<?xml version="1.0" encoding="iso-8859-1" standalone="no"?>
<!DOCTYPE svg PUBLIC "-//W3C//DTD SVG 1.0//EN" "http://www.w3.org/TR/2001/REC-SVG-20010904/DTD/svg10.dtd">
<svg xmlns="http://www.w3.org/2000/svg" width="1299" height="800">
<path style="fill:rgb(255, 0, 0);fill-opacity:0;fill-rule:evenodd;stroke:rgb(0, 0, 0);stroke-width:0.2;" d="M 0, 365.184 L 164.797, 136.944 L 208.897, 155.513 L 265.377, 178.723 L 308.704, 197.292 L 371.373, 222.824 L 408.511, 171.76 L 436.364, 133.075 L 471.18, 85.8801 L 677.756, 174.855 L 856.48, 248.356 L 883.559, 259.961 L 904.449, 268.472 L 1087.04, 345.841 L 1299.03, 435.59 L 1033.66, 800 L 798.453, 701.741 L 234.429, 463.443 z "/>
<path style="fill:rgb(0, 255, 0);fill-opacity:0;fill-rule:evenodd;stroke:rgb(0, 0, 0);stroke-width:0.2;" d="M 164.797, 136.944 L 264.603, 0 L 471.18, 85.8801 L 436.364, 133.075 L 408.511, 171.76 L 371.373, 222.824 L 308.704, 197.292 L 265.377, 178.723 L 208.897, 155.513 z "/>
<path style="fill:rgb(0, 0, 255);fill-opacity:0;fill-rule:evenodd;stroke:rgb(0, 0, 0);stroke-width:0.2;" d="M 252.998, 119.149 L 291.683, 65.764 L 379.11, 102.128 L 339.652, 155.513 z "/>
<path style="fill:rgb(255, 255, 0);fill-opacity:0;fill-rule:evenodd;stroke:rgb(0, 0, 0);stroke-width:0.2;" d="M 177.95, 136.17 L 270.019, 8.51064 L 454.159, 85.1064 L 361.315, 212.766 z "/>
<path style="fill:rgb(255, 0, 0);fill-opacity:0;fill-rule:evenodd;stroke:rgb(0, 0, 0);stroke-width:0.2;" d="M 183.366, 134.623 L 271.567, 13.1528 L 291.683, 65.764 L 252.998, 119.149 z "/>
<path style="fill:rgb(0, 255, 0);fill-opacity:0;fill-rule:evenodd;stroke:rgb(0, 0, 0);stroke-width:0.2;" d="M 271.567, 13.1528 L 448.743, 86.6538 L 379.11, 102.128 L 291.683, 65.764 z "/>
<path style="fill:rgb(0, 0, 255);fill-opacity:0;fill-rule:evenodd;stroke:rgb(0, 0, 0);stroke-width:0.2;" d="M 183.366, 134.623 L 252.998, 119.149 L 339.652, 155.513 L 359.768, 208.124 z "/>
<path style="fill:rgb(255, 255, 0);fill-opacity:0;fill-rule:evenodd;stroke:rgb(0, 0, 0);stroke-width:0.2;" d="M 339.652, 155.513 L 379.11, 102.128 L 448.743, 86.6538 L 359.768, 208.124 z "/>
<path style="fill:rgb(255, 0, 0);fill-opacity:0;fill-rule:evenodd;stroke:rgb(0, 0, 0);stroke-width:0.2;" d="M 127.66, 323.404 L 155.513, 288.588 L 181.818, 285.493 L 265.377, 178.723 L 308.704, 197.292 L 211.219, 323.404 L 297.872, 359.768 L 401.547, 403.095 L 374.468, 440.232 L 138.491, 345.068 z "/>
<path style="fill:rgb(0, 255, 0);fill-opacity:0;fill-rule:evenodd;stroke:rgb(0, 0, 0);stroke-width:0.2;" d="M 782.205, 618.182 L 813.153, 574.855 L 897.485, 610.445 L 985.687, 646.035 L 1083.17, 511.412 L 995.745, 475.048 L 1027.47, 430.948 L 1053, 395.358 L 1061.51, 382.979 L 1189.94, 436.364 L 995.745, 706.383 z "/>
<path style="fill:rgb(0, 0, 255);fill-opacity:0;fill-rule:evenodd;stroke:rgb(0, 0, 0);stroke-width:0.2;" d="M 408.511, 171.76 L 436.364, 133.075 L 644.487, 222.824 L 650.677, 213.54 L 876.596, 307.157 L 868.085, 318.762 L 956.286, 355.899 L 931.528, 390.716 L 806.963, 339.652 L 825.532, 314.894 L 680.077, 254.545 L 663.83, 277.756 L 532.302, 223.598 z "/>
<path style="fill:rgb(255, 255, 0);fill-opacity:0;fill-rule:evenodd;stroke:rgb(0, 0, 0);stroke-width:0.2;" d="M 463.443, 317.988 L 481.238, 294.004 L 507.544, 257.64 L 532.302, 223.598 L 663.83, 277.756 L 709.478, 299.42 L 760.542, 320.309 L 806.963, 339.652 L 931.528, 390.716 L 1027.47, 430.948 L 995.745, 475.048 L 897.485, 610.445 L 813.153, 574.855 L 876.596, 488.975 L 765.184, 443.327 L 557.834, 356.673 z "/>
<path style="fill:rgb(255, 0, 0);fill-opacity:0;fill-rule:evenodd;stroke:rgb(0, 0, 0);stroke-width:0.2;" d="M 64.2166, 354.352 L 208.897, 155.513 L 265.377, 178.723 L 181.818, 285.493 L 155.513, 288.588 L 127.66, 323.404 L 138.491, 345.068 L 374.468, 440.232 L 401.547, 403.095 L 813.153, 574.855 L 782.205, 618.182 L 995.745, 706.383 L 1189.94, 436.364 L 1232.5, 453.385 L 1013.54, 751.257 L 820.89, 670.793 L 255.319, 434.816 z "/>
<path style="fill:rgb(0, 255, 0);fill-opacity:0;fill-rule:evenodd;stroke:rgb(0, 0, 0);stroke-width:0.2;" d="M 297.872, 359.768 L 361.315, 275.435 L 463.443, 317.988 L 401.547, 403.095 z "/>
<path style="fill:rgb(0, 0, 255);fill-opacity:0;fill-rule:evenodd;stroke:rgb(0, 0, 0);stroke-width:0.2;" d="M 234.429, 463.443 L 255.319, 434.816 L 820.89, 670.793 L 798.453, 701.741 z "/>
<path style="fill:rgb(255, 255, 0);fill-opacity:0;fill-rule:evenodd;stroke:rgb(0, 0, 0);stroke-width:0.2;" d="M 876.596, 307.157 L 904.449, 268.472 L 1087.04, 345.841 L 1061.51, 382.979 z "/>
<path style="fill:rgb(255, 0, 0);fill-opacity:0;fill-rule:evenodd;stroke:rgb(0, 0, 0);stroke-width:0.2;" d="M 897.485, 610.445 L 995.745, 475.048 L 1083.17, 511.412 L 985.687, 646.035 z "/>
<path style="fill:rgb(0, 255, 0);fill-opacity:0;fill-rule:evenodd;stroke:rgb(0, 0, 0);stroke-width:0.2;" d="M 931.528, 390.716 L 956.286, 355.899 L 1053, 395.358 L 1027.47, 430.948 z "/>
<path style="fill:rgb(0, 0, 255);fill-opacity:0;fill-rule:evenodd;stroke:rgb(0, 0, 0);stroke-width:0.2;" d="M 436.364, 133.075 L 471.18, 85.8801 L 677.756, 174.855 L 650.677, 213.54 L 644.487, 222.824 z "/>
<path style="fill:rgb(255, 255, 0);fill-opacity:0;fill-rule:evenodd;stroke:rgb(0, 0, 0);stroke-width:0.2;" d="M 663.83, 277.756 L 680.077, 254.545 L 825.532, 314.894 L 806.963, 339.652 L 760.542, 320.309 L 709.478, 299.42 z "/>
<path style="fill:rgb(255, 0, 0);fill-opacity:0;fill-rule:evenodd;stroke:rgb(0, 0, 0);stroke-width:0.2;" d="M 211.219, 323.404 L 308.704, 197.292 L 371.373, 222.824 L 343.52, 267.698 L 361.315, 275.435 L 297.872, 359.768 z "/>
<path style="fill:rgb(0, 255, 0);fill-opacity:0;fill-rule:evenodd;stroke:rgb(0, 0, 0);stroke-width:0.2;" d="M 0, 365.184 L 164.797, 136.944 L 208.897, 155.513 L 64.2166, 354.352 L 255.319, 434.816 L 234.429, 463.443 z "/>
<path style="fill:rgb(0, 0, 255);fill-opacity:0;fill-rule:evenodd;stroke:rgb(0, 0, 0);stroke-width:0.2;" d="M 650.677, 213.54 L 677.756, 174.855 L 856.48, 248.356 L 883.559, 259.961 L 904.449, 268.472 L 876.596, 307.157 z "/>
<path style="fill:rgb(255, 255, 0);fill-opacity:0;fill-rule:evenodd;stroke:rgb(0, 0, 0);stroke-width:0.2;" d="M 401.547, 403.095 L 463.443, 317.988 L 557.834, 356.673 L 765.184, 443.327 L 876.596, 488.975 L 813.153, 574.855 z "/>
<path style="fill:rgb(255, 0, 0);fill-opacity:0;fill-rule:evenodd;stroke:rgb(0, 0, 0);stroke-width:0.2;" d="M 343.52, 267.698 L 371.373, 222.824 L 408.511, 171.76 L 532.302, 223.598 L 507.544, 257.64 L 481.238, 294.004 L 463.443, 317.988 L 361.315, 275.435 z "/>
<path style="fill:rgb(0, 255, 0);fill-opacity:0;fill-rule:evenodd;stroke:rgb(0, 0, 0);stroke-width:0.2;" d="M 481.238, 294.004 L 507.544, 257.64 L 685.493, 331.915 L 736.557, 353.578 L 808.511, 383.752 L 765.184, 443.327 L 557.834, 356.673 L 574.855, 333.462 z "/>
<path style="fill:rgb(0, 0, 255);fill-opacity:0;fill-rule:evenodd;stroke:rgb(0, 0, 0);stroke-width:0.2;" d="M 798.453, 701.741 L 820.89, 670.793 L 1013.54, 751.257 L 1232.5, 453.385 L 1189.94, 436.364 L 1061.51, 382.979 L 1087.04, 345.841 L 1299.03, 435.59 L 1033.66, 800 z "/>
</svg>