<?xml version="1.0" encoding="iso-8859-1" standalone="no"?>
<!DOCTYPE svg PUBLIC "-//W3C//DTD SVG 1.0//EN" "http://www.w3.org/TR/2001/REC-SVG-20010904/DTD/svg10.dtd">
<svg xmlns="http://www.w3.org/2000/svg" width="185" height="300">
<path style="fill:rgb(255, 0, 0);fill-opacity:1.0;fill-rule:evenodd;stroke:rgb(0, 0, 0);stroke-width:1.0;" d="M 20.5092, 40.1186 L 27.2689, 31.3289 L 49.3268, 40.5162 L 42.7555, 49.5152 z M 30.1151, 40.4325 L 33.5054, 41.8556 L 35.933, 38.5072 L 32.5427, 37.0841 z "/>
<path style="fill:rgb(0, 255, 0);fill-opacity:1.0;fill-rule:evenodd;stroke:rgb(0, 0, 0);stroke-width:1.0;" d="M 20.5092, 40.1186 L 27.2689, 31.3289 L 49.3268, 40.5162 L 42.7555, 49.5152 z M 30.1151, 40.4325 L 33.5054, 41.8556 L 35.933, 38.5072 L 32.5427, 37.0841 z "/>
<path style="fill:rgb(0, 0, 255);fill-opacity:1.0;fill-rule:evenodd;stroke:rgb(0, 0, 0);stroke-width:1.0;" d="M 20.0698, 24.1088 L 22.5602, 20.6976 L 28.6083, 23.2717 L 30.6592, 20.4674 L 25.8668, 18.4374 L 28.0851, 15.4238 L 39.6582, 20.3209 L 35.6819, 25.7412 L 40.2232, 27.6666 L 40.7883, 26.8713 L 42.3369, 28.5037 L 39.5326, 32.3125 z M 32.0405, 24.6739 L 32.5846, 24.9041 L 34.4472, 22.4765 L 36.6864, 23.1461 L 33.8403, 21.8696 z "/>
<path style="fill:rgb(255, 255, 0);fill-opacity:1.0;fill-rule:evenodd;stroke:rgb(0, 0, 0);stroke-width:1.0;" d="M 20.0698, 24.1088 L 22.5602, 20.6976 L 28.6083, 23.2717 L 30.6592, 20.4674 L 25.8668, 18.4374 L 28.0851, 15.4238 L 39.6582, 20.3209 L 35.6819, 25.7412 L 40.2232, 27.6666 L 40.7883, 26.8713 L 42.3369, 28.5037 L 39.5326, 32.3125 z M 32.0405, 24.6739 L 32.5846, 24.9041 L 34.4472, 22.4765 L 36.6864, 23.1461 L 33.8403, 21.8696 z "/>
<path style="fill:rgb(255, 0, 0);fill-opacity:1.0;fill-rule:evenodd;stroke:rgb(0, 0, 0);stroke-width:1.0;" d="M 163.425, 84.4646 L 169.892, 75.2145 L 183.369, 80.8859 L 176.693, 90.0523 z M 169.222, 82.4555 L 171.106, 83.2717 L 172.968, 80.6976 L 170.875, 79.8186 z "/>
<path style="fill:rgb(0, 255, 0);fill-opacity:1.0;fill-rule:evenodd;stroke:rgb(0, 0, 0);stroke-width:1.0;" d="M 163.425, 84.4646 L 169.892, 75.2145 L 183.369, 80.8859 L 176.693, 90.0523 z M 169.222, 82.4555 L 171.106, 83.2717 L 172.968, 80.6976 L 170.875, 79.8186 z "/>
<path style="fill:rgb(0, 0, 255);fill-opacity:1.0;fill-rule:evenodd;stroke:rgb(0, 0, 0);stroke-width:1.0;" d="M 60.6488, 9.20823 L 67.3666, 0 L 69.4803, 0.878968 L 68.4339, 2.32299 L 74.2728, 4.77154 L 75.3191, 3.34845 L 77.2864, 4.18556 L 70.5895, 13.3938 L 68.3711, 12.452 L 69.1454, 11.3638 L 63.7251, 9.08266 L 62.9508, 10.1709 z M 65.797, 6.08999 L 71.3219, 8.45483 L 71.9079, 7.63865 L 66.4039, 5.27381 z "/>
<path style="fill:rgb(255, 255, 0);fill-opacity:1.0;fill-rule:evenodd;stroke:rgb(0, 0, 0);stroke-width:1.0;" d="M 60.6488, 9.20823 L 67.3666, 0 L 69.4803, 0.878968 L 68.4339, 2.32299 L 74.2728, 4.77154 L 75.3191, 3.34845 L 77.2864, 4.18556 L 70.5895, 13.3938 L 68.3711, 12.452 L 69.1454, 11.3638 L 63.7251, 9.08266 L 62.9508, 10.1709 z M 65.797, 6.08999 L 71.3219, 8.45483 L 71.9079, 7.63865 L 66.4039, 5.27381 z "/>
<path style="fill:rgb(255, 0, 0);fill-opacity:1.0;fill-rule:evenodd;stroke:rgb(0, 0, 0);stroke-width:1.0;" d="M 57.1329, 81.4719 L 60.4186, 77.1189 L 66.8643, 79.8396 L 63.6624, 84.2344 z M 61.0255, 81.8068 L 61.444, 82.016 L 62.2393, 81.2626 L 61.5487, 80.9906 z "/>
<path style="fill:rgb(0, 255, 0);fill-opacity:1.0;fill-rule:evenodd;stroke:rgb(0, 0, 0);stroke-width:1.0;" d="M 57.1329, 81.4719 L 60.4186, 77.1189 L 66.8643, 79.8396 L 63.6624, 84.2344 z M 61.0255, 81.8068 L 61.444, 82.016 L 62.2393, 81.2626 L 61.5487, 80.9906 z "/>
<path style="fill:rgb(0, 0, 255);fill-opacity:1.0;fill-rule:evenodd;stroke:rgb(0, 0, 0);stroke-width:1.0;" d="M 146.076, 102.421 L 148.964, 98.4234 L 154.133, 100.6 L 151.245, 104.597 z M 148.964, 101.521 L 150.638, 102.253 L 151.161, 101.563 L 149.487, 100.83 z "/>
<path style="fill:rgb(255, 255, 0);fill-opacity:1.0;fill-rule:evenodd;stroke:rgb(0, 0, 0);stroke-width:1.0;" d="M 146.076, 102.421 L 148.964, 98.4234 L 154.133, 100.6 L 151.245, 104.597 z M 148.964, 101.521 L 150.638, 102.253 L 151.161, 101.563 L 149.487, 100.83 z "/>
<path style="fill:rgb(255, 0, 0);fill-opacity:1.0;fill-rule:evenodd;stroke:rgb(0, 0, 0);stroke-width:1.0;" d="M 84.8832, 293.994 L 93.338, 284.053 L 105.539, 290.08 L 97.1259, 300 z M 93.5682, 289.934 L 98.4025, 292.299 L 101.249, 288.95 L 96.4144, 286.585 z "/>
<path style="fill:rgb(0, 255, 0);fill-opacity:1.0;fill-rule:evenodd;stroke:rgb(0, 0, 0);stroke-width:1.0;" d="M 84.8832, 293.994 L 93.338, 284.053 L 105.539, 290.08 L 97.1259, 300 z M 93.5682, 289.934 L 98.4025, 292.299 L 101.249, 288.95 L 96.4144, 286.585 z "/>
<path style="fill:rgb(0, 0, 255);fill-opacity:1.0;fill-rule:evenodd;stroke:rgb(0, 0, 0);stroke-width:1.0;" d="M 165.413, 256.073 L 167.569, 253.143 L 169.704, 254.063 L 172.11, 250.778 L 169.955, 249.857 L 172.068, 246.969 L 185.42, 252.389 L 178.514, 261.765 z M 173.722, 254.984 L 175.794, 256.093 L 177.468, 253.854 L 175.291, 252.892 z "/>
<path style="fill:rgb(255, 255, 0);fill-opacity:1.0;fill-rule:evenodd;stroke:rgb(0, 0, 0);stroke-width:1.0;" d="M 165.413, 256.073 L 167.569, 253.143 L 169.704, 254.063 L 172.11, 250.778 L 169.955, 249.857 L 172.068, 246.969 L 185.42, 252.389 L 178.514, 261.765 z M 173.722, 254.984 L 175.794, 256.093 L 177.468, 253.854 L 175.291, 252.892 z "/>
<path style="fill:rgb(255, 0, 0);fill-opacity:1.0;fill-rule:evenodd;stroke:rgb(0, 0, 0);stroke-width:1.0;" d="M 17.6421, 287.987 L 24.2553, 285.916 L 29.7593, 295.103 L 22.7904, 297.551 z M 20.7813, 291.671 L 22.3927, 294.517 L 23.0834, 294.287 L 21.4719, 291.441 z "/>
<path style="fill:rgb(0, 255, 0);fill-opacity:1.0;fill-rule:evenodd;stroke:rgb(0, 0, 0);stroke-width:1.0;" d="M 17.6421, 287.987 L 24.2553, 285.916 L 29.7593, 295.103 L 22.7904, 297.551 z M 20.7813, 291.671 L 22.3927, 294.517 L 23.0834, 294.287 L 21.4719, 291.441 z "/>
<path style="fill:rgb(0, 0, 255);fill-opacity:1.0;fill-rule:evenodd;stroke:rgb(0, 0, 0);stroke-width:1.0;" d="M 107.653, 252.18 L 111.608, 247.513 L 114.58, 249.564 L 115.249, 248.769 L 117.468, 249.836 L 113.178, 254.901 z M 112.633, 251.071 L 113.889, 251.657 L 114.391, 251.071 L 113.198, 250.38 z M 111.713, 252.264 L 112.11, 252.473 L 112.466, 252.054 L 112.068, 251.845 z "/>
<path style="fill:rgb(255, 255, 0);fill-opacity:1.0;fill-rule:evenodd;stroke:rgb(0, 0, 0);stroke-width:1.0;" d="M 107.653, 252.18 L 111.608, 247.513 L 114.58, 249.564 L 115.249, 248.769 L 117.468, 249.836 L 113.178, 254.901 z M 112.633, 251.071 L 113.889, 251.657 L 114.391, 251.071 L 113.198, 250.38 z M 111.713, 252.264 L 112.11, 252.473 L 112.466, 252.054 L 112.068, 251.845 z "/>
<path style="fill:rgb(255, 0, 0);fill-opacity:1.0;fill-rule:evenodd;stroke:rgb(0, 0, 0);stroke-width:1.0;" d="M 107.653, 252.18 L 111.608, 247.513 L 114.58, 249.564 L 115.249, 248.769 L 117.468, 249.836 L 113.178, 254.901 z M 112.633, 251.071 L 113.889, 251.657 L 114.391, 251.071 L 113.198, 250.38 z M 111.713, 252.264 L 112.11, 252.473 L 112.466, 252.054 L 112.068, 251.845 z "/>
<path style="fill:rgb(0, 255, 0);fill-opacity:1.0;fill-rule:evenodd;stroke:rgb(0, 0, 0);stroke-width:1.0;" d="M 0, 236.631 L 5.39937, 234.935 L 5.56679, 236.568 L 8.09906, 235.773 L 10.1081, 238.012 L 2.23927, 240.481 z M 2.92989, 238.828 L 6.73875, 237.824 L 7.93164, 237.238 L 7.61772, 237.175 z M 2.11371, 237.531 L 2.92989, 237.447 L 2.7834, 237.133 L 2.17649, 237.3 z M 3.47401, 236.652 L 3.95535, 237.551 L 4.83432, 237.258 L 4.35298, 236.379 z "/>
<path style="fill:rgb(0, 0, 255);fill-opacity:1.0;fill-rule:evenodd;stroke:rgb(0, 0, 0);stroke-width:1.0;" d="M 0, 236.631 L 5.39937, 234.935 L 5.56679, 236.568 L 8.09906, 235.773 L 10.1081, 238.012 L 2.23927, 240.481 z M 2.92989, 238.828 L 6.73875, 237.824 L 7.93164, 237.238 L 7.61772, 237.175 z M 2.11371, 237.531 L 2.92989, 237.447 L 2.7834, 237.133 L 2.17649, 237.3 z M 3.47401, 236.652 L 3.95535, 237.551 L 4.83432, 237.258 L 4.35298, 236.379 z "/>
<path style="fill:rgb(255, 255, 0);fill-opacity:1.0;fill-rule:evenodd;stroke:rgb(0, 0, 0);stroke-width:1.0;" d="M 0, 236.631 L 5.39937, 234.935 L 5.56679, 236.568 L 8.09906, 235.773 L 10.1081, 238.012 L 2.23927, 240.481 z M 2.92989, 238.828 L 6.73875, 237.824 L 7.93164, 237.238 L 7.61772, 237.175 z M 2.11371, 237.531 L 2.92989, 237.447 L 2.7834, 237.133 L 2.17649, 237.3 z M 3.47401, 236.652 L 3.95535, 237.551 L 4.83432, 237.258 L 4.35298, 236.379 z "/>
<path style="fill:rgb(255, 0, 0);fill-opacity:1.0;fill-rule:evenodd;stroke:rgb(0, 0, 0);stroke-width:1.0;" d="M 0, 236.631 L 5.39937, 234.935 L 5.56679, 236.568 L 8.09906, 235.773 L 10.1081, 238.012 L 2.23927, 240.481 z M 2.92989, 238.828 L 6.73875, 237.824 L 7.93164, 237.238 L 7.61772, 237.175 z M 2.11371, 237.531 L 2.92989, 237.447 L 2.7834, 237.133 L 2.17649, 237.3 z M 3.47401, 236.652 L 3.95535, 237.551 L 4.83432, 237.258 L 4.35298, 236.379 z "/>
<path style="fill:rgb(0, 255, 0);fill-opacity:1.0;fill-rule:evenodd;stroke:rgb(0, 0, 0);stroke-width:1.0;" d="M 61.737, 247.136 L 65.7761, 242.428 L 68.3083, 243.683 L 65.1692, 248.811 z M 64.0181, 246.195 L 65.2529, 246.822 L 66.1109, 245.881 L 64.8762, 245.232 z "/>
<path style="fill:rgb(0, 0, 255);fill-opacity:1.0;fill-rule:evenodd;stroke:rgb(0, 0, 0);stroke-width:1.0;" d="M 61.737, 247.136 L 65.7761, 242.428 L 68.3083, 243.683 L 65.1692, 248.811 z M 64.0181, 246.195 L 65.2529, 246.822 L 66.1109, 245.881 L 64.8762, 245.232 z "/>
<path style="fill:rgb(255, 255, 0);fill-opacity:1.0;fill-rule:evenodd;stroke:rgb(0, 0, 0);stroke-width:1.0;" d="M 30.9522, 254.461 L 34.3216, 253.247 L 37.0631, 257.893 L 33.6938, 259.107 z M 33.045, 254.712 L 33.5682, 256.324 L 34.8448, 257.433 L 34.0077, 255.382 z "/>
<path style="fill:rgb(255, 0, 0);fill-opacity:1.0;fill-rule:evenodd;stroke:rgb(0, 0, 0);stroke-width:1.0;" d="M 30.9522, 254.461 L 34.3216, 253.247 L 37.0631, 257.893 L 33.6938, 259.107 z M 33.045, 254.712 L 33.5682, 256.324 L 34.8448, 257.433 L 34.0077, 255.382 z "/>
<path style="fill:rgb(0, 255, 0);fill-opacity:1.0;fill-rule:evenodd;stroke:rgb(0, 0, 0);stroke-width:1.0;" d="M 4.49948, 272.543 L 6.6969, 269.529 L 9.45937, 274.405 L 5.92257, 275.535 z M 6.52947, 273.275 L 6.80153, 273.757 L 7.11545, 273.798 L 6.88525, 273.171 z "/>
<path style="fill:rgb(0, 0, 255);fill-opacity:1.0;fill-rule:evenodd;stroke:rgb(0, 0, 0);stroke-width:1.0;" d="M 4.49948, 272.543 L 6.6969, 269.529 L 9.45937, 274.405 L 5.92257, 275.535 z M 6.52947, 273.275 L 6.80153, 273.757 L 7.11545, 273.798 L 6.88525, 273.171 z "/>
<path style="fill:rgb(255, 255, 0);fill-opacity:1.0;fill-rule:evenodd;stroke:rgb(0, 0, 0);stroke-width:1.0;" d="M 57.677, 261.43 L 59.9581, 260.279 L 64.1856, 262.351 L 62.4486, 264.799 z M 59.3931, 261.095 L 59.7907, 261.765 L 60.6278, 262.183 L 60.879, 261.87 z "/>
<path style="fill:rgb(255, 0, 0);fill-opacity:1.0;fill-rule:evenodd;stroke:rgb(0, 0, 0);stroke-width:1.0;" d="M 57.677, 261.43 L 59.9581, 260.279 L 64.1856, 262.351 L 62.4486, 264.799 z M 59.3931, 261.095 L 59.7907, 261.765 L 60.6278, 262.183 L 60.879, 261.87 z "/>
</svg>