<?xml version="1.0" encoding="iso-8859-1" standalone="no"?>
<!DOCTYPE svg PUBLIC "-//W3C//DTD SVG 1.0//EN" "http://www.w3.org/TR/2001/REC-SVG-20010904/DTD/svg10.dtd">
<svg xmlns="http://www.w3.org/2000/svg" width="703" height="800">
<path style="fill:rgb(255, 0, 0);fill-opacity:0;fill-rule:evenodd;stroke:rgb(0, 0, 0);stroke-width:0.2;" d="M 574.874, 512.545 L 581.273, 503.778 L 589.596, 507.292 L 583.197, 516.059 z "/>
<path style="fill:rgb(0, 255, 0);fill-opacity:0;fill-rule:evenodd;stroke:rgb(0, 0, 0);stroke-width:0.2;" d="M 14.0935, 489.61 L 14.7593, 485.874 L 110.935, 495.936 L 110.27, 499.635 z "/>
<path style="fill:rgb(0, 0, 255);fill-opacity:0;fill-rule:evenodd;stroke:rgb(0, 0, 0);stroke-width:0.2;" d="M 478.92, 512.803 L 481.953, 508.623 L 486.022, 510.325 L 489.832, 505.109 L 503.334, 510.806 L 496.527, 520.202 z "/>
<path style="fill:rgb(255, 255, 0);fill-opacity:0;fill-rule:evenodd;stroke:rgb(0, 0, 0);stroke-width:0.2;" d="M 157.766, 668.387 L 167.383, 655.181 L 185.583, 662.801 L 182.365, 667.24 L 176.853, 668.128 L 174.375, 671.494 L 176.927, 672.567 L 171.156, 680.483 L 159.208, 675.452 L 162.833, 670.495 z "/>
<path style="fill:rgb(255, 0, 0);fill-opacity:0;fill-rule:evenodd;stroke:rgb(0, 0, 0);stroke-width:0.2;" d="M 109.419, 739.927 L 112.674, 735.525 L 114.745, 736.413 L 119.369, 731.9 L 126.693, 735.007 L 125.621, 738.854 L 137.976, 748.065 L 132.316, 755.759 L 126.841, 755.056 L 126.398, 757.091 L 122.551, 757.424 L 117.557, 755.278 L 120.997, 750.543 L 124.067, 751.838 L 125.473, 745.143 L 124.141, 746.215 z "/>
<path style="fill:rgb(0, 255, 0);fill-opacity:0;fill-rule:evenodd;stroke:rgb(0, 0, 0);stroke-width:0.2;" d="M 93.0688, 490.276 L 95.6952, 475.776 L 114.117, 477.736 L 111.453, 492.163 z "/>
<path style="fill:rgb(0, 0, 255);fill-opacity:0;fill-rule:evenodd;stroke:rgb(0, 0, 0);stroke-width:0.2;" d="M 201.045, 520.498 L 207.222, 511.916 L 213.104, 514.357 L 219.577, 505.405 L 228.344, 509.067 L 215.656, 526.564 z "/>
<path style="fill:rgb(255, 255, 0);fill-opacity:0;fill-rule:evenodd;stroke:rgb(0, 0, 0);stroke-width:0.2;" d="M 456.54, 503.815 L 463.273, 495.492 L 477.958, 501.669 L 471.744, 510.214 z "/>
<path style="fill:rgb(255, 0, 0);fill-opacity:0;fill-rule:evenodd;stroke:rgb(0, 0, 0);stroke-width:0.2;" d="M 131.206, 694.539 L 144.227, 676.266 L 156.323, 681.555 L 143.154, 699.496 z "/>
<path style="fill:rgb(0, 255, 0);fill-opacity:0;fill-rule:evenodd;stroke:rgb(0, 0, 0);stroke-width:0.2;" d="M 272.215, 635.428 L 275.36, 631.137 L 293.929, 639.016 L 290.785, 643.307 z "/>
<path style="fill:rgb(0, 0, 255);fill-opacity:0;fill-rule:evenodd;stroke:rgb(0, 0, 0);stroke-width:0.2;" d="M 250.687, 405.086 L 256.679, 396.874 L 282.832, 407.861 L 277.283, 415.444 z "/>
<path style="fill:rgb(255, 255, 0);fill-opacity:0;fill-rule:evenodd;stroke:rgb(0, 0, 0);stroke-width:0.2;" d="M 201.045, 520.498 L 207.222, 511.916 L 213.104, 514.357 L 219.577, 505.405 L 228.344, 509.067 L 215.656, 526.564 z "/>
<path style="fill:rgb(255, 0, 0);fill-opacity:0;fill-rule:evenodd;stroke:rgb(0, 0, 0);stroke-width:0.2;" d="M 545.466, 503.334 L 546.946, 501.299 L 558.783, 506.293 L 557.34, 508.328 z "/>
<path style="fill:rgb(0, 255, 0);fill-opacity:0;fill-rule:evenodd;stroke:rgb(0, 0, 0);stroke-width:0.2;" d="M 369.39, 511.472 L 372.941, 506.626 L 385.185, 511.805 L 380.265, 518.537 z "/>
<path style="fill:rgb(0, 0, 255);fill-opacity:0;fill-rule:evenodd;stroke:rgb(0, 0, 0);stroke-width:0.2;" d="M 88.6669, 514.431 L 90.8864, 501.891 L 109.493, 503.815 L 107.199, 516.392 z "/>
<path style="fill:rgb(255, 255, 0);fill-opacity:0;fill-rule:evenodd;stroke:rgb(0, 0, 0);stroke-width:0.2;" d="M 278.134, 694.687 L 288.158, 680.964 L 291.414, 682.332 L 281.389, 696.056 z "/>
<path style="fill:rgb(255, 0, 0);fill-opacity:0;fill-rule:evenodd;stroke:rgb(0, 0, 0);stroke-width:0.2;" d="M 271.032, 691.728 L 282.906, 675.304 L 294.41, 680.15 L 282.573, 696.537 z "/>
<path style="fill:rgb(0, 255, 0);fill-opacity:0;fill-rule:evenodd;stroke:rgb(0, 0, 0);stroke-width:0.2;" d="M 402.46, 511.509 L 414.26, 494.752 L 421.584, 497.378 L 408.896, 514.764 z "/>
<path style="fill:rgb(0, 0, 255);fill-opacity:0;fill-rule:evenodd;stroke:rgb(0, 0, 0);stroke-width:0.2;" d="M 257.382, 711.629 L 264.78, 701.383 L 266.963, 702.344 L 272.363, 699.903 L 280.945, 703.454 L 279.761, 705.082 L 284.94, 707.893 L 286.161, 711.037 L 279.465, 720.211 L 275.323, 721.099 L 269.404, 719.323 L 268.22, 720.951 L 259.564, 717.326 L 259.638, 712.628 z "/>
<path style="fill:rgb(255, 255, 0);fill-opacity:0;fill-rule:evenodd;stroke:rgb(0, 0, 0);stroke-width:0.2;" d="M 260.304, 711.999 L 266.297, 703.713 L 270.773, 702.677 L 278.911, 706.043 L 282.832, 710.556 L 276.987, 718.953 L 269.922, 718.62 L 261.599, 715.18 z "/>
<path style="fill:rgb(255, 0, 0);fill-opacity:0;fill-rule:evenodd;stroke:rgb(0, 0, 0);stroke-width:0.2;" d="M 278.06, 609.534 L 281.167, 605.243 L 299.773, 613.122 L 296.666, 617.339 z "/>
<path style="fill:rgb(0, 255, 0);fill-opacity:0;fill-rule:evenodd;stroke:rgb(0, 0, 0);stroke-width:0.2;" d="M 277.616, 551.607 L 282.61, 544.763 L 285.495, 545.984 L 280.501, 552.827 z "/>
<path style="fill:rgb(0, 0, 255);fill-opacity:0;fill-rule:evenodd;stroke:rgb(0, 0, 0);stroke-width:0.2;" d="M 88.6669, 514.431 L 90.8864, 501.891 L 109.493, 503.815 L 107.199, 516.392 z "/>
<path style="fill:rgb(255, 255, 0);fill-opacity:0;fill-rule:evenodd;stroke:rgb(0, 0, 0);stroke-width:0.2;" d="M 277.024, 415.74 L 282.832, 407.861 L 297.591, 414.149 L 291.783, 421.991 z "/>
<path style="fill:rgb(255, 0, 0);fill-opacity:0;fill-rule:evenodd;stroke:rgb(0, 0, 0);stroke-width:0.2;" d="M 280.723, 489.61 L 293.411, 472.188 L 307.948, 478.291 L 295.261, 495.751 z "/>
<path style="fill:rgb(0, 255, 0);fill-opacity:0;fill-rule:evenodd;stroke:rgb(0, 0, 0);stroke-width:0.2;" d="M 273.214, 426.615 L 280.168, 417.071 L 291.783, 421.991 L 284.755, 431.461 z "/>
<path style="fill:rgb(0, 0, 255);fill-opacity:0;fill-rule:evenodd;stroke:rgb(0, 0, 0);stroke-width:0.2;" d="M 201.045, 520.498 L 206.15, 513.432 L 211.957, 515.874 L 218.431, 506.996 L 227.16, 510.695 L 217.136, 524.53 z "/>
<path style="fill:rgb(255, 255, 0);fill-opacity:0;fill-rule:evenodd;stroke:rgb(0, 0, 0);stroke-width:0.2;" d="M 163.055, 504.259 L 169.122, 495.973 L 178, 499.709 L 171.933, 508.032 z "/>
<path style="fill:rgb(255, 0, 0);fill-opacity:0;fill-rule:evenodd;stroke:rgb(0, 0, 0);stroke-width:0.2;" d="M 276.469, 54.3765 L 277.801, 52.6009 L 284.274, 55.3382 L 282.943, 57.1138 z "/>
<path style="fill:rgb(0, 255, 0);fill-opacity:0;fill-rule:evenodd;stroke:rgb(0, 0, 0);stroke-width:0.2;" d="M 277.024, 415.74 L 282.462, 408.378 L 297.591, 414.149 L 291.783, 421.991 z "/>
<path style="fill:rgb(0, 0, 255);fill-opacity:0;fill-rule:evenodd;stroke:rgb(0, 0, 0);stroke-width:0.2;" d="M 559.375, 505.479 L 566.477, 497.526 L 578.314, 502.52 L 572.211, 510.88 z "/>
<path style="fill:rgb(255, 255, 0);fill-opacity:0;fill-rule:evenodd;stroke:rgb(0, 0, 0);stroke-width:0.2;" d="M 186.434, 514.357 L 192.833, 505.59 L 207.407, 511.694 L 201.045, 520.498 z "/>
<path style="fill:rgb(255, 0, 0);fill-opacity:0;fill-rule:evenodd;stroke:rgb(0, 0, 0);stroke-width:0.2;" d="M 113.525, 465.788 L 114.45, 460.387 L 126.546, 465.381 L 124.252, 478.772 L 114.117, 477.736 L 116.188, 466.01 z "/>
<path style="fill:rgb(0, 255, 0);fill-opacity:0;fill-rule:evenodd;stroke:rgb(0, 0, 0);stroke-width:0.2;" d="M 280.168, 369.871 L 293.041, 352.3 L 298.775, 354.705 L 286.42, 372.497 z "/>
<path style="fill:rgb(0, 0, 255);fill-opacity:0;fill-rule:evenodd;stroke:rgb(0, 0, 0);stroke-width:0.2;" d="M 602.395, 202.044 L 605.206, 201.119 L 607.13, 195.459 L 611.976, 197.679 L 609.127, 195.496 L 604.356, 194.313 L 607.537, 190.022 L 613.196, 192.981 L 615.86, 193.129 L 612.901, 192.315 L 614.491, 190.096 L 619.559, 192.093 L 610.163, 205.262 z M 608.758, 193.277 L 609.978, 194.424 L 613.418, 195.422 L 612.272, 194.054 z "/>
<path style="fill:rgb(255, 255, 0);fill-opacity:0;fill-rule:evenodd;stroke:rgb(0, 0, 0);stroke-width:0.2;" d="M 583.197, 516.059 L 589.744, 507.107 L 592.815, 508.402 L 586.304, 517.353 z "/>
<path style="fill:rgb(255, 0, 0);fill-opacity:0;fill-rule:evenodd;stroke:rgb(0, 0, 0);stroke-width:0.2;" d="M 343.903, 147.482 L 349.97, 139.122 L 361.289, 143.82 L 355.223, 152.18 z "/>
<path style="fill:rgb(0, 255, 0);fill-opacity:0;fill-rule:evenodd;stroke:rgb(0, 0, 0);stroke-width:0.2;" d="M 180.108, 199.38 L 183.326, 196.532 L 189.763, 199.306 L 184.584, 206.298 L 185.953, 201.896 z "/>
<path style="fill:rgb(0, 0, 255);fill-opacity:0;fill-rule:evenodd;stroke:rgb(0, 0, 0);stroke-width:0.2;" d="M 186.434, 514.357 L 192.833, 505.59 L 207.407, 511.694 L 201.045, 520.498 z "/>
<path style="fill:rgb(255, 255, 0);fill-opacity:0;fill-rule:evenodd;stroke:rgb(0, 0, 0);stroke-width:0.2;" d="M 277.024, 415.74 L 282.832, 407.861 L 297.591, 414.149 L 291.783, 421.991 z "/>
<path style="fill:rgb(255, 0, 0);fill-opacity:0;fill-rule:evenodd;stroke:rgb(0, 0, 0);stroke-width:0.2;" d="M 342.202, 731.715 L 347.159, 731.419 L 357.923, 736.672 L 358.404, 738.077 L 355.408, 742.183 L 357.22, 738.78 L 354.224, 737.486 L 355.223, 736.191 z "/>
<path style="fill:rgb(0, 255, 0);fill-opacity:0;fill-rule:evenodd;stroke:rgb(0, 0, 0);stroke-width:0.2;" d="M 249.836, 416.775 L 257.197, 406.973 L 268.664, 411.819 L 262.265, 420.622 L 263.153, 422.398 z "/>
<path style="fill:rgb(0, 0, 255);fill-opacity:0;fill-rule:evenodd;stroke:rgb(0, 0, 0);stroke-width:0.2;" d="M 276.432, 599.14 L 281.981, 590.928 L 285.902, 592.593 L 279.576, 600.472 z "/>
<path style="fill:rgb(255, 255, 0);fill-opacity:0;fill-rule:evenodd;stroke:rgb(0, 0, 0);stroke-width:0.2;" d="M 111.453, 492.163 L 114.117, 477.736 L 124.252, 478.772 L 121.441, 493.235 z "/>
<path style="fill:rgb(255, 0, 0);fill-opacity:0;fill-rule:evenodd;stroke:rgb(0, 0, 0);stroke-width:0.2;" d="M 274.028, 722.948 L 275.323, 721.099 L 330.92, 744.625 L 329.662, 746.326 L 322.782, 744.218 z "/>
<path style="fill:rgb(0, 255, 0);fill-opacity:0;fill-rule:evenodd;stroke:rgb(0, 0, 0);stroke-width:0.2;" d="M 273.214, 426.615 L 280.168, 417.071 L 291.783, 421.991 L 284.755, 431.461 z "/>
<path style="fill:rgb(0, 0, 255);fill-opacity:0;fill-rule:evenodd;stroke:rgb(0, 0, 0);stroke-width:0.2;" d="M 299.478, 572.876 L 301.586, 570.028 L 323.669, 579.461 L 321.598, 582.309 z "/>
<path style="fill:rgb(255, 255, 0);fill-opacity:0;fill-rule:evenodd;stroke:rgb(0, 0, 0);stroke-width:0.2;" d="M 178, 499.709 L 184.584, 490.646 L 199.232, 496.823 L 194.054, 503.926 L 182.254, 498.932 L 180.848, 500.892 z "/>
<path style="fill:rgb(255, 0, 0);fill-opacity:0;fill-rule:evenodd;stroke:rgb(0, 0, 0);stroke-width:0.2;" d="M 198.53, 507.958 L 204.929, 499.228 L 207.888, 500.486 L 201.526, 509.215 z "/>
<path style="fill:rgb(0, 255, 0);fill-opacity:0;fill-rule:evenodd;stroke:rgb(0, 0, 0);stroke-width:0.2;" d="M 278.578, 694.058 L 287.714, 681.555 L 290.97, 682.924 L 281.833, 695.427 z "/>
<path style="fill:rgb(0, 0, 255);fill-opacity:0;fill-rule:evenodd;stroke:rgb(0, 0, 0);stroke-width:0.2;" d="M 126.767, 716.142 L 133.352, 707.116 L 145.411, 712.147 L 138.789, 721.173 z "/>
<path style="fill:rgb(255, 255, 0);fill-opacity:0;fill-rule:evenodd;stroke:rgb(0, 0, 0);stroke-width:0.2;" d="M 271.697, 27.7061 L 291.635, 0 L 294.595, 1.25769 L 274.657, 28.9638 z "/>
<path style="fill:rgb(255, 0, 0);fill-opacity:0;fill-rule:evenodd;stroke:rgb(0, 0, 0);stroke-width:0.2;" d="M 280.168, 369.871 L 293.041, 352.3 L 298.775, 354.705 L 286.42, 372.497 z "/>
<path style="fill:rgb(0, 255, 0);fill-opacity:0;fill-rule:evenodd;stroke:rgb(0, 0, 0);stroke-width:0.2;" d="M 626.513, 203.634 L 629.62, 199.343 L 641.125, 204.189 L 638.017, 208.48 z "/>
<path style="fill:rgb(0, 0, 255);fill-opacity:0;fill-rule:evenodd;stroke:rgb(0, 0, 0);stroke-width:0.2;" d="M 324.039, 506.922 L 326.814, 503.778 L 335.655, 508.106 L 332.325, 510.473 z "/>
<path style="fill:rgb(255, 255, 0);fill-opacity:0;fill-rule:evenodd;stroke:rgb(0, 0, 0);stroke-width:0.2;" d="M 336.949, 512.36 L 339.723, 509.178 L 348.564, 513.506 L 345.235, 515.874 z "/>
<path style="fill:rgb(255, 0, 0);fill-opacity:0;fill-rule:evenodd;stroke:rgb(0, 0, 0);stroke-width:0.2;" d="M 356.332, 505.035 L 359.625, 502.631 L 367.984, 506.108 L 365.284, 509.289 z "/>
<path style="fill:rgb(0, 255, 0);fill-opacity:0;fill-rule:evenodd;stroke:rgb(0, 0, 0);stroke-width:0.2;" d="M 263.781, 381.449 L 270.107, 372.645 L 281.278, 377.269 L 274.953, 386.073 z "/>
<path style="fill:rgb(0, 0, 255);fill-opacity:0;fill-rule:evenodd;stroke:rgb(0, 0, 0);stroke-width:0.2;" d="M 540.916, 509.585 L 545.466, 503.334 L 557.34, 508.328 L 558.968, 506.034 L 561.557, 507.107 L 555.343, 515.652 z "/>
<path style="fill:rgb(255, 255, 0);fill-opacity:0;fill-rule:evenodd;stroke:rgb(0, 0, 0);stroke-width:0.2;" d="M 280.982, 453.433 L 282.462, 451.362 L 287.936, 453.655 L 286.42, 455.727 z "/>
<path style="fill:rgb(255, 0, 0);fill-opacity:0;fill-rule:evenodd;stroke:rgb(0, 0, 0);stroke-width:0.2;" d="M 107.199, 516.392 L 109.493, 503.815 L 119.332, 504.85 L 117.187, 517.427 z "/>
<path style="fill:rgb(0, 255, 0);fill-opacity:0;fill-rule:evenodd;stroke:rgb(0, 0, 0);stroke-width:0.2;" d="M 274.028, 722.948 L 275.323, 721.099 L 330.92, 744.625 L 329.662, 746.326 L 322.782, 744.218 z "/>
<path style="fill:rgb(0, 0, 255);fill-opacity:0;fill-rule:evenodd;stroke:rgb(0, 0, 0);stroke-width:0.2;" d="M 265.446, 363.657 L 270.218, 357.183 L 284.94, 363.398 L 280.168, 369.871 z "/>
<path style="fill:rgb(255, 255, 0);fill-opacity:0;fill-rule:evenodd;stroke:rgb(0, 0, 0);stroke-width:0.2;" d="M 363.25, 517.871 L 367.763, 511.62 L 381.412, 518.981 L 378.712, 522.754 z "/>
<path style="fill:rgb(255, 0, 0);fill-opacity:0;fill-rule:evenodd;stroke:rgb(0, 0, 0);stroke-width:0.2;" d="M 602.395, 202.044 L 605.206, 201.119 L 607.13, 195.459 L 611.976, 197.679 L 609.127, 195.496 L 604.356, 194.313 L 607.537, 190.022 L 613.196, 192.981 L 615.86, 193.129 L 612.901, 192.315 L 614.491, 190.096 L 619.559, 192.093 L 610.163, 205.262 z M 608.758, 193.277 L 609.978, 194.424 L 613.418, 195.422 L 612.272, 194.054 z "/>
<path style="fill:rgb(0, 255, 0);fill-opacity:0;fill-rule:evenodd;stroke:rgb(0, 0, 0);stroke-width:0.2;" d="M 268.146, 778.545 L 272.585, 774.143 L 274.213, 774.809 L 275.766, 772.701 L 273.51, 771.739 L 276.617, 767.411 L 279.576, 768.669 L 271.401, 779.914 z "/>
<path style="fill:rgb(0, 0, 255);fill-opacity:0;fill-rule:evenodd;stroke:rgb(0, 0, 0);stroke-width:0.2;" d="M 199.787, 548.315 L 211.624, 531.965 L 217.654, 534.48 L 205.78, 550.83 z "/>
<path style="fill:rgb(255, 255, 0);fill-opacity:0;fill-rule:evenodd;stroke:rgb(0, 0, 0);stroke-width:0.2;" d="M 291.34, 512.286 L 295.002, 507.292 L 297.517, 508.365 L 293.855, 513.358 z "/>
<path style="fill:rgb(255, 0, 0);fill-opacity:0;fill-rule:evenodd;stroke:rgb(0, 0, 0);stroke-width:0.2;" d="M 273.214, 426.615 L 279.133, 418.551 L 281.093, 419.365 L 277.209, 424.691 L 286.753, 428.723 L 284.755, 431.461 z "/>
<path style="fill:rgb(0, 255, 0);fill-opacity:0;fill-rule:evenodd;stroke:rgb(0, 0, 0);stroke-width:0.2;" d="M 282.758, 553.789 L 288.491, 545.873 L 291.487, 547.131 L 285.717, 555.047 z "/>
<path style="fill:rgb(0, 0, 255);fill-opacity:0;fill-rule:evenodd;stroke:rgb(0, 0, 0);stroke-width:0.2;" d="M 273.214, 426.615 L 279.133, 418.551 L 281.093, 419.365 L 277.209, 424.691 L 286.753, 428.723 L 284.755, 431.461 z "/>
<path style="fill:rgb(255, 255, 0);fill-opacity:0;fill-rule:evenodd;stroke:rgb(0, 0, 0);stroke-width:0.2;" d="M 277.246, 387.035 L 283.534, 378.268 L 288.232, 380.228 L 281.944, 388.995 z "/>
<path style="fill:rgb(255, 0, 0);fill-opacity:0;fill-rule:evenodd;stroke:rgb(0, 0, 0);stroke-width:0.2;" d="M 253.794, 715.328 L 267.037, 697.166 L 360.327, 736.228 L 347.085, 754.39 z "/>
<path style="fill:rgb(0, 255, 0);fill-opacity:0;fill-rule:evenodd;stroke:rgb(0, 0, 0);stroke-width:0.2;" d="M 279.465, 720.211 L 286.161, 711.037 L 336.32, 732.455 L 340.759, 731.16 L 346.937, 732.677 L 357.22, 738.78 L 347.898, 751.394 L 344.384, 751.246 L 330.92, 744.625 L 330.032, 741.074 z "/>
<path style="fill:rgb(0, 0, 255);fill-opacity:0;fill-rule:evenodd;stroke:rgb(0, 0, 0);stroke-width:0.2;" d="M 332.584, 142.821 L 338.614, 134.425 L 349.97, 139.122 L 355.999, 130.762 L 367.319, 135.46 L 361.289, 143.82 L 372.608, 148.518 L 366.579, 156.878 L 355.223, 152.18 L 349.193, 160.54 L 337.874, 155.879 L 343.903, 147.482 z "/>
<path style="fill:rgb(255, 255, 0);fill-opacity:0;fill-rule:evenodd;stroke:rgb(0, 0, 0);stroke-width:0.2;" d="M 141.305, 515.245 L 147.075, 504.887 L 153.216, 507.44 L 146.077, 517.242 z "/>
<path style="fill:rgb(255, 0, 0);fill-opacity:0;fill-rule:evenodd;stroke:rgb(0, 0, 0);stroke-width:0.2;" d="M 673.27, 202.118 L 679.632, 193.425 L 685.366, 195.866 L 679.04, 204.559 z "/>
<path style="fill:rgb(0, 255, 0);fill-opacity:0;fill-rule:evenodd;stroke:rgb(0, 0, 0);stroke-width:0.2;" d="M 157.766, 668.387 L 164.609, 658.991 L 167.05, 659.99 L 169.64, 656.439 L 172.229, 657.548 L 162.833, 670.495 z "/>
<path style="fill:rgb(0, 0, 255);fill-opacity:0;fill-rule:evenodd;stroke:rgb(0, 0, 0);stroke-width:0.2;" d="M 182.254, 498.932 L 184.214, 496.121 L 196.088, 501.114 L 194.054, 503.926 z "/>
<path style="fill:rgb(255, 255, 0);fill-opacity:0;fill-rule:evenodd;stroke:rgb(0, 0, 0);stroke-width:0.2;" d="M 279.724, 625.218 L 282.869, 620.928 L 301.438, 628.807 L 298.294, 633.098 z "/>
<path style="fill:rgb(255, 0, 0);fill-opacity:0;fill-rule:evenodd;stroke:rgb(0, 0, 0);stroke-width:0.2;" d="M 338.688, 734.452 L 343.238, 735.414 L 344.717, 733.417 L 356.48, 739.779 L 354.853, 741.998 z "/>
<path style="fill:rgb(0, 255, 0);fill-opacity:0;fill-rule:evenodd;stroke:rgb(0, 0, 0);stroke-width:0.2;" d="M 172.636, 648.449 L 172.932, 642.049 L 178.333, 635.206 L 183.696, 637.462 L 174.745, 649.299 z "/>
<path style="fill:rgb(0, 0, 255);fill-opacity:0;fill-rule:evenodd;stroke:rgb(0, 0, 0);stroke-width:0.2;" d="M 362.325, 522.125 L 363.878, 520.054 L 369.797, 522.569 L 373.126, 520.83 L 376.64, 522.347 L 373.274, 526.86 z "/>
<path style="fill:rgb(255, 255, 0);fill-opacity:0;fill-rule:evenodd;stroke:rgb(0, 0, 0);stroke-width:0.2;" d="M 148.444, 670.865 L 152.476, 665.317 L 162.833, 670.495 L 159.208, 675.452 z "/>
<path style="fill:rgb(255, 0, 0);fill-opacity:0;fill-rule:evenodd;stroke:rgb(0, 0, 0);stroke-width:0.2;" d="M 233.671, 185.657 L 237.481, 180.441 L 240.218, 181.625 L 238.073, 184.584 L 329.662, 223.276 L 328.256, 225.2 z "/>
<path style="fill:rgb(0, 255, 0);fill-opacity:0;fill-rule:evenodd;stroke:rgb(0, 0, 0);stroke-width:0.2;" d="M 180.108, 199.38 L 183.326, 196.532 L 189.763, 199.306 L 184.584, 206.298 L 185.953, 201.896 z "/>
<path style="fill:rgb(0, 0, 255);fill-opacity:0;fill-rule:evenodd;stroke:rgb(0, 0, 0);stroke-width:0.2;" d="M 303.288, 726.98 L 306.358, 722.837 L 315.088, 726.536 L 312.017, 730.679 z "/>
<path style="fill:rgb(255, 255, 0);fill-opacity:0;fill-rule:evenodd;stroke:rgb(0, 0, 0);stroke-width:0.2;" d="M 276.691, 327.184 L 283.202, 318.306 L 286.272, 319.6 L 279.761, 328.478 z "/>
<path style="fill:rgb(255, 0, 0);fill-opacity:0;fill-rule:evenodd;stroke:rgb(0, 0, 0);stroke-width:0.2;" d="M 279.761, 328.478 L 286.124, 319.785 L 289.194, 321.043 L 282.869, 329.773 z "/>
<path style="fill:rgb(0, 255, 0);fill-opacity:0;fill-rule:evenodd;stroke:rgb(0, 0, 0);stroke-width:0.2;" d="M 207.222, 511.916 L 213.77, 502.964 L 219.577, 505.405 L 213.104, 514.357 z "/>
<path style="fill:rgb(0, 0, 255);fill-opacity:0;fill-rule:evenodd;stroke:rgb(0, 0, 0);stroke-width:0.2;" d="M 141.897, 512.064 L 143.598, 503.408 L 147.112, 504.887 z "/>
<path style="fill:rgb(255, 255, 0);fill-opacity:0;fill-rule:evenodd;stroke:rgb(0, 0, 0);stroke-width:0.2;" d="M 248.356, 475.924 L 252.869, 469.709 L 257.123, 471.485 L 252.573, 477.699 z "/>
<path style="fill:rgb(255, 0, 0);fill-opacity:0;fill-rule:evenodd;stroke:rgb(0, 0, 0);stroke-width:0.2;" d="M 369.39, 511.472 L 372.941, 506.626 L 385.185, 511.805 L 380.265, 518.537 z "/>
<path style="fill:rgb(0, 255, 0);fill-opacity:0;fill-rule:evenodd;stroke:rgb(0, 0, 0);stroke-width:0.2;" d="M 370.5, 510.843 L 372.978, 507.44 L 384.371, 512.951 L 379.822, 517.871 L 376.233, 516.355 L 376.418, 513.321 z "/>
<path style="fill:rgb(0, 0, 255);fill-opacity:0;fill-rule:evenodd;stroke:rgb(0, 0, 0);stroke-width:0.2;" d="M 630.545, 506.589 L 635.65, 499.561 L 631.951, 498.007 L 633.504, 495.899 L 663.689, 508.586 L 648.967, 528.82 L 638.387, 524.345 L 646.451, 513.284 z "/>
<path style="fill:rgb(255, 255, 0);fill-opacity:0;fill-rule:evenodd;stroke:rgb(0, 0, 0);stroke-width:0.2;" d="M 268.516, 464.53 L 270.144, 462.311 L 281.796, 467.194 L 280.205, 469.413 z "/>
<path style="fill:rgb(255, 0, 0);fill-opacity:0;fill-rule:evenodd;stroke:rgb(0, 0, 0);stroke-width:0.2;" d="M 279.983, 459.463 L 283.608, 454.543 L 288.676, 457.835 L 285.717, 461.867 z "/>
<path style="fill:rgb(0, 255, 0);fill-opacity:0;fill-rule:evenodd;stroke:rgb(0, 0, 0);stroke-width:0.2;" d="M 154.141, 673.344 L 157.766, 668.387 L 162.833, 670.495 L 159.208, 675.452 z "/>
<path style="fill:rgb(0, 0, 255);fill-opacity:0;fill-rule:evenodd;stroke:rgb(0, 0, 0);stroke-width:0.2;" d="M 128.025, 714.403 L 132.131, 708.781 L 144.19, 713.811 L 140.047, 719.471 z "/>
<path style="fill:rgb(255, 255, 0);fill-opacity:0;fill-rule:evenodd;stroke:rgb(0, 0, 0);stroke-width:0.2;" d="M 192.833, 505.59 L 199.232, 496.823 L 204.929, 499.228 L 198.53, 507.958 z "/>
<path style="fill:rgb(255, 0, 0);fill-opacity:0;fill-rule:evenodd;stroke:rgb(0, 0, 0);stroke-width:0.2;" d="M 291.34, 512.286 L 295.002, 507.292 L 297.517, 508.365 L 293.855, 513.358 z "/>
<path style="fill:rgb(0, 255, 0);fill-opacity:0;fill-rule:evenodd;stroke:rgb(0, 0, 0);stroke-width:0.2;" d="M 626.513, 203.634 L 629.62, 199.343 L 641.125, 204.189 L 638.017, 208.48 z "/>
<path style="fill:rgb(0, 0, 255);fill-opacity:0;fill-rule:evenodd;stroke:rgb(0, 0, 0);stroke-width:0.2;" d="M 356.332, 505.035 L 359.625, 502.631 L 367.984, 506.108 L 365.284, 509.289 z "/>
<path style="fill:rgb(255, 255, 0);fill-opacity:0;fill-rule:evenodd;stroke:rgb(0, 0, 0);stroke-width:0.2;" d="M 274.065, 352.041 L 278.319, 346.308 L 292.745, 352.522 L 288.676, 357.997 z "/>
<path style="fill:rgb(255, 0, 0);fill-opacity:0;fill-rule:evenodd;stroke:rgb(0, 0, 0);stroke-width:0.2;" d="M 649.891, 192.278 L 658.843, 179.997 L 674.12, 185.176 L 664.466, 198.419 z "/>
<path style="fill:rgb(0, 255, 0);fill-opacity:0;fill-rule:evenodd;stroke:rgb(0, 0, 0);stroke-width:0.2;" d="M 490.017, 505.183 L 492.717, 501.484 L 498.747, 504.037 L 496.047, 507.736 z "/>
<path style="fill:rgb(0, 0, 255);fill-opacity:0;fill-rule:evenodd;stroke:rgb(0, 0, 0);stroke-width:0.2;" d="M 144.597, 496.712 L 146.299, 486.318 L 169.122, 495.973 L 162.944, 504.444 z "/>
<path style="fill:rgb(255, 255, 0);fill-opacity:0;fill-rule:evenodd;stroke:rgb(0, 0, 0);stroke-width:0.2;" d="M 255.791, 408.822 L 257.197, 406.973 L 268.664, 411.819 L 267.369, 413.705 z "/>
<path style="fill:rgb(255, 0, 0);fill-opacity:0;fill-rule:evenodd;stroke:rgb(0, 0, 0);stroke-width:0.2;" d="M 255.828, 408.822 L 257.197, 406.973 L 268.664, 411.819 L 267.369, 413.705 z "/>
<path style="fill:rgb(0, 255, 0);fill-opacity:0;fill-rule:evenodd;stroke:rgb(0, 0, 0);stroke-width:0.2;" d="M 280.723, 489.61 L 293.411, 472.188 L 307.948, 478.291 L 295.261, 495.751 z "/>
<path style="fill:rgb(0, 0, 255);fill-opacity:0;fill-rule:evenodd;stroke:rgb(0, 0, 0);stroke-width:0.2;" d="M 359.625, 522.828 L 372.312, 505.368 L 386.85, 511.472 L 374.162, 528.931 z "/>
<path style="fill:rgb(255, 255, 0);fill-opacity:0;fill-rule:evenodd;stroke:rgb(0, 0, 0);stroke-width:0.2;" d="M 278.504, 506.885 L 282.166, 501.854 L 284.792, 502.964 L 281.13, 507.958 z "/>
<path style="fill:rgb(255, 0, 0);fill-opacity:0;fill-rule:evenodd;stroke:rgb(0, 0, 0);stroke-width:0.2;" d="M 278.874, 265.853 L 282.24, 261.155 L 286.05, 262.746 L 281.315, 269.367 z "/>
<path style="fill:rgb(0, 255, 0);fill-opacity:0;fill-rule:evenodd;stroke:rgb(0, 0, 0);stroke-width:0.2;" d="M 267.369, 413.705 L 268.664, 411.819 L 280.168, 417.071 L 279.133, 418.551 z "/>
<path style="fill:rgb(0, 0, 255);fill-opacity:0;fill-rule:evenodd;stroke:rgb(0, 0, 0);stroke-width:0.2;" d="M 267.369, 413.705 L 268.664, 411.819 L 280.168, 417.071 L 279.133, 418.551 z "/>
<path style="fill:rgb(255, 255, 0);fill-opacity:0;fill-rule:evenodd;stroke:rgb(0, 0, 0);stroke-width:0.2;" d="M 242.512, 505.516 L 244.139, 503.223 L 253.017, 506.848 L 251.352, 509.178 z "/>
<path style="fill:rgb(255, 0, 0);fill-opacity:0;fill-rule:evenodd;stroke:rgb(0, 0, 0);stroke-width:0.2;" d="M 278.134, 694.687 L 288.158, 680.964 L 291.414, 682.332 L 281.389, 696.056 z "/>
<path style="fill:rgb(0, 255, 0);fill-opacity:0;fill-rule:evenodd;stroke:rgb(0, 0, 0);stroke-width:0.2;" d="M 272.104, 789.606 L 278.282, 781.135 L 283.497, 783.317 L 277.32, 791.825 z "/>
<path style="fill:rgb(0, 0, 255);fill-opacity:0;fill-rule:evenodd;stroke:rgb(0, 0, 0);stroke-width:0.2;" d="M 272.104, 789.606 L 278.282, 781.135 L 283.497, 783.317 L 277.32, 791.825 z "/>
<path style="fill:rgb(255, 255, 0);fill-opacity:0;fill-rule:evenodd;stroke:rgb(0, 0, 0);stroke-width:0.2;" d="M 250.687, 405.086 L 256.679, 396.874 L 282.832, 407.861 L 277.283, 415.444 z "/>
<path style="fill:rgb(255, 0, 0);fill-opacity:0;fill-rule:evenodd;stroke:rgb(0, 0, 0);stroke-width:0.2;" d="M 269.182, 442.521 L 275.027, 434.494 L 277.431, 435.53 L 271.586, 443.557 z "/>
<path style="fill:rgb(0, 255, 0);fill-opacity:0;fill-rule:evenodd;stroke:rgb(0, 0, 0);stroke-width:0.2;" d="M 286.087, 510.103 L 289.749, 505.072 L 292.412, 506.219 L 288.787, 511.213 z "/>
<path style="fill:rgb(0, 0, 255);fill-opacity:0;fill-rule:evenodd;stroke:rgb(0, 0, 0);stroke-width:0.2;" d="M 281.056, 793.379 L 287.64, 784.316 L 290.341, 785.463 L 283.756, 794.525 z "/>
<path style="fill:rgb(255, 255, 0);fill-opacity:0;fill-rule:evenodd;stroke:rgb(0, 0, 0);stroke-width:0.2;" d="M 250.687, 405.086 L 256.679, 396.874 L 282.832, 407.861 L 277.283, 415.444 z "/>
<path style="fill:rgb(255, 0, 0);fill-opacity:0;fill-rule:evenodd;stroke:rgb(0, 0, 0);stroke-width:0.2;" d="M 233.671, 185.657 L 237.481, 180.441 L 240.218, 181.625 L 238.073, 184.584 L 329.662, 223.276 L 328.256, 225.2 z "/>
<path style="fill:rgb(0, 255, 0);fill-opacity:0;fill-rule:evenodd;stroke:rgb(0, 0, 0);stroke-width:0.2;" d="M 278.578, 694.058 L 287.714, 681.555 L 290.97, 682.924 L 281.833, 695.427 z "/>
<path style="fill:rgb(0, 0, 255);fill-opacity:0;fill-rule:evenodd;stroke:rgb(0, 0, 0);stroke-width:0.2;" d="M 250.687, 405.086 L 256.679, 396.874 L 282.832, 407.861 L 277.283, 415.444 z "/>
<path style="fill:rgb(255, 255, 0);fill-opacity:0;fill-rule:evenodd;stroke:rgb(0, 0, 0);stroke-width:0.2;" d="M 241.032, 507.588 L 242.512, 505.516 L 251.352, 509.178 L 249.873, 511.25 z "/>
<path style="fill:rgb(255, 0, 0);fill-opacity:0;fill-rule:evenodd;stroke:rgb(0, 0, 0);stroke-width:0.2;" d="M 273.214, 426.615 L 279.133, 418.551 L 281.093, 419.365 L 277.209, 424.691 L 286.753, 428.723 L 284.755, 431.461 z "/>
<path style="fill:rgb(0, 255, 0);fill-opacity:0;fill-rule:evenodd;stroke:rgb(0, 0, 0);stroke-width:0.2;" d="M 523.235, 198.678 L 529.486, 190.022 L 538.179, 193.684 L 531.891, 202.266 z "/>
<path style="fill:rgb(0, 0, 255);fill-opacity:0;fill-rule:evenodd;stroke:rgb(0, 0, 0);stroke-width:0.2;" d="M 278.578, 522.31 L 281.981, 517.686 L 285.754, 519.277 L 282.351, 523.938 z "/>
<path style="fill:rgb(255, 255, 0);fill-opacity:0;fill-rule:evenodd;stroke:rgb(0, 0, 0);stroke-width:0.2;" d="M 336.135, 350.71 L 341.684, 342.979 L 347.566, 345.457 L 342.054, 353.077 L 339.317, 351.893 L 341.943, 349.008 L 340.796, 348.527 L 338.799, 351.819 z "/>
<path style="fill:rgb(255, 0, 0);fill-opacity:0;fill-rule:evenodd;stroke:rgb(0, 0, 0);stroke-width:0.2;" d="M 329.181, 746.881 L 330.92, 744.625 L 335.248, 748.102 L 334.508, 749.101 z "/>
<path style="fill:rgb(0, 255, 0);fill-opacity:0;fill-rule:evenodd;stroke:rgb(0, 0, 0);stroke-width:0.2;" d="M 286.087, 510.103 L 289.749, 505.072 L 292.412, 506.219 L 288.787, 511.213 z "/>
<path style="fill:rgb(0, 0, 255);fill-opacity:0;fill-rule:evenodd;stroke:rgb(0, 0, 0);stroke-width:0.2;" d="M 284.052, 778.212 L 288.306, 772.368 L 291.34, 773.626 L 287.086, 779.47 z "/>
<path style="fill:rgb(255, 255, 0);fill-opacity:0;fill-rule:evenodd;stroke:rgb(0, 0, 0);stroke-width:0.2;" d="M 277.246, 387.035 L 283.534, 378.268 L 288.232, 380.228 L 281.944, 388.995 z "/>
<path style="fill:rgb(255, 0, 0);fill-opacity:0;fill-rule:evenodd;stroke:rgb(0, 0, 0);stroke-width:0.2;" d="M 279.761, 328.478 L 286.124, 319.785 L 289.194, 321.043 L 282.869, 329.773 z "/>
<path style="fill:rgb(0, 255, 0);fill-opacity:0;fill-rule:evenodd;stroke:rgb(0, 0, 0);stroke-width:0.2;" d="M 624.886, 205.817 L 626.513, 203.634 L 634.355, 206.927 L 632.765, 209.146 z "/>
<path style="fill:rgb(0, 0, 255);fill-opacity:0;fill-rule:evenodd;stroke:rgb(0, 0, 0);stroke-width:0.2;" d="M 283.46, 297.295 L 288.306, 290.674 L 296.555, 294.114 L 293.781, 297.924 L 288.75, 295.815 L 286.679, 298.664 z "/>
<path style="fill:rgb(255, 255, 0);fill-opacity:0;fill-rule:evenodd;stroke:rgb(0, 0, 0);stroke-width:0.2;" d="M 572.433, 511.509 L 578.314, 502.52 L 581.273, 503.778 L 574.874, 512.545 z "/>
<path style="fill:rgb(255, 0, 0);fill-opacity:0;fill-rule:evenodd;stroke:rgb(0, 0, 0);stroke-width:0.2;" d="M 279.133, 418.551 L 280.168, 417.071 L 291.783, 421.991 L 290.674, 423.508 z "/>
<path style="fill:rgb(0, 255, 0);fill-opacity:0;fill-rule:evenodd;stroke:rgb(0, 0, 0);stroke-width:0.2;" d="M 279.133, 418.551 L 280.168, 417.071 L 291.783, 421.991 L 290.674, 423.508 z "/>
<path style="fill:rgb(0, 0, 255);fill-opacity:0;fill-rule:evenodd;stroke:rgb(0, 0, 0);stroke-width:0.2;" d="M 271.069, 444.259 L 277.431, 435.53 L 282.018, 437.453 L 275.618, 446.183 z "/>
<path style="fill:rgb(255, 255, 0);fill-opacity:0;fill-rule:evenodd;stroke:rgb(0, 0, 0);stroke-width:0.2;" d="M 276.913, 273.214 L 278.726, 270.662 L 285.421, 273.362 L 283.608, 275.914 z "/>
<path style="fill:rgb(255, 0, 0);fill-opacity:0;fill-rule:evenodd;stroke:rgb(0, 0, 0);stroke-width:0.2;" d="M 262.265, 420.622 L 267.369, 413.705 L 279.133, 418.551 L 273.214, 426.615 z "/>
<path style="fill:rgb(0, 255, 0);fill-opacity:0;fill-rule:evenodd;stroke:rgb(0, 0, 0);stroke-width:0.2;" d="M 546.946, 501.299 L 551.126, 495.566 L 559.227, 498.969 L 558.561, 501.188 L 559.967, 499.265 L 562.963, 500.559 L 558.783, 506.293 z "/>
<path style="fill:rgb(0, 0, 255);fill-opacity:0;fill-rule:evenodd;stroke:rgb(0, 0, 0);stroke-width:0.2;" d="M 278.874, 265.853 L 282.24, 261.155 L 286.05, 262.746 L 281.315, 269.367 z "/>
<path style="fill:rgb(255, 255, 0);fill-opacity:0;fill-rule:evenodd;stroke:rgb(0, 0, 0);stroke-width:0.2;" d="M 281.13, 507.958 L 284.792, 502.964 L 287.345, 504.074 L 283.682, 509.067 z "/>
<path style="fill:rgb(255, 0, 0);fill-opacity:0;fill-rule:evenodd;stroke:rgb(0, 0, 0);stroke-width:0.2;" d="M 288.787, 511.213 L 292.412, 506.219 L 295.002, 507.292 L 291.34, 512.286 z "/>
<path style="fill:rgb(0, 255, 0);fill-opacity:0;fill-rule:evenodd;stroke:rgb(0, 0, 0);stroke-width:0.2;" d="M 262.265, 420.622 L 267.369, 413.705 L 279.133, 418.551 L 273.214, 426.615 z "/>
<path style="fill:rgb(0, 0, 255);fill-opacity:0;fill-rule:evenodd;stroke:rgb(0, 0, 0);stroke-width:0.2;" d="M 283.202, 488.131 L 286.79, 484.542 L 290.341, 486.022 L 290.156, 489.055 L 296.111, 491.534 L 294.595, 493.642 L 291.229, 493.013 z "/>
<path style="fill:rgb(255, 255, 0);fill-opacity:0;fill-rule:evenodd;stroke:rgb(0, 0, 0);stroke-width:0.2;" d="M 676.525, 192.13 L 682.887, 183.4 L 688.658, 185.842 L 683.405, 193.092 L 686.031, 194.202 L 684.959, 195.681 z "/>
<path style="fill:rgb(255, 0, 0);fill-opacity:0;fill-rule:evenodd;stroke:rgb(0, 0, 0);stroke-width:0.2;" d="M 286.679, 298.664 L 288.75, 295.815 L 293.781, 297.924 L 292.301, 299.921 L 315.753, 309.909 L 319.305, 305.137 L 302.511, 296.629 L 323.374, 305.359 L 317.122, 313.904 L 293.411, 304.36 L 295.039, 302.141 z "/>
<path style="fill:rgb(0, 255, 0);fill-opacity:0;fill-rule:evenodd;stroke:rgb(0, 0, 0);stroke-width:0.2;" d="M 472.188, 509.622 L 476.331, 503.889 L 479.179, 505.072 L 475.036, 510.806 z "/>
<path style="fill:rgb(0, 0, 255);fill-opacity:0;fill-rule:evenodd;stroke:rgb(0, 0, 0);stroke-width:0.2;" d="M 274.953, 386.073 L 281.241, 377.306 L 283.534, 378.268 L 277.246, 387.035 z "/>
<path style="fill:rgb(255, 255, 0);fill-opacity:0;fill-rule:evenodd;stroke:rgb(0, 0, 0);stroke-width:0.2;" d="M 559.708, 496.195 L 560.559, 495.048 L 566.477, 497.526 L 565.626, 498.71 z "/>
<path style="fill:rgb(255, 0, 0);fill-opacity:0;fill-rule:evenodd;stroke:rgb(0, 0, 0);stroke-width:0.2;" d="M 559.375, 505.479 L 566.477, 497.526 L 578.314, 502.52 L 572.211, 510.88 z "/>
<path style="fill:rgb(0, 255, 0);fill-opacity:0;fill-rule:evenodd;stroke:rgb(0, 0, 0);stroke-width:0.2;" d="M 681.888, 205.743 L 687.178, 198.493 L 690.137, 199.713 L 684.848, 207.001 z "/>
<path style="fill:rgb(0, 0, 255);fill-opacity:0;fill-rule:evenodd;stroke:rgb(0, 0, 0);stroke-width:0.2;" d="M 123.105, 726.758 L 129.875, 717.437 L 130.984, 717.917 L 128.58, 728.978 z "/>
<path style="fill:rgb(255, 255, 0);fill-opacity:0;fill-rule:evenodd;stroke:rgb(0, 0, 0);stroke-width:0.2;" d="M 600.213, 503.556 L 607.981, 492.274 L 632.987, 502.483 L 630.101, 506.404 L 646.007, 513.839 L 640.385, 521.57 L 626.476, 515.726 L 628.141, 513.469 z "/>
<path style="fill:rgb(255, 0, 0);fill-opacity:0;fill-rule:evenodd;stroke:rgb(0, 0, 0);stroke-width:0.2;" d="M 95.6952, 475.776 L 97.8037, 464.272 L 116.188, 466.01 L 115.078, 472.225 L 108.679, 471.596 L 107.939, 475.85 L 114.339, 476.515 L 114.117, 477.736 z "/>
<path style="fill:rgb(0, 255, 0);fill-opacity:0;fill-rule:evenodd;stroke:rgb(0, 0, 0);stroke-width:0.2;" d="M 574.541, 523.753 L 580.867, 515.06 L 583.715, 516.281 L 577.389, 524.936 z "/>
<path style="fill:rgb(0, 0, 255);fill-opacity:0;fill-rule:evenodd;stroke:rgb(0, 0, 0);stroke-width:0.2;" d="M 274.953, 386.073 L 281.241, 377.306 L 283.534, 378.268 L 277.246, 387.035 z "/>
<path style="fill:rgb(255, 255, 0);fill-opacity:0;fill-rule:evenodd;stroke:rgb(0, 0, 0);stroke-width:0.2;" d="M 639.497, 206.409 L 645.859, 197.679 L 651.741, 200.157 L 645.415, 208.887 z "/>
<path style="fill:rgb(255, 0, 0);fill-opacity:0;fill-rule:evenodd;stroke:rgb(0, 0, 0);stroke-width:0.2;" d="M 283.682, 509.067 L 287.345, 504.074 L 289.749, 505.072 L 286.087, 510.103 z "/>
<path style="fill:rgb(0, 255, 0);fill-opacity:0;fill-rule:evenodd;stroke:rgb(0, 0, 0);stroke-width:0.2;" d="M 281.056, 793.379 L 287.64, 784.316 L 290.341, 785.463 L 283.756, 794.525 z "/>
<path style="fill:rgb(0, 0, 255);fill-opacity:0;fill-rule:evenodd;stroke:rgb(0, 0, 0);stroke-width:0.2;" d="M 272.511, 597.512 L 278.06, 589.263 L 281.981, 590.928 L 275.692, 598.844 z "/>
<path style="fill:rgb(255, 255, 0);fill-opacity:0;fill-rule:evenodd;stroke:rgb(0, 0, 0);stroke-width:0.2;" d="M 322.079, 387.627 L 323.632, 385.444 L 337.245, 391.067 L 335.691, 393.249 z "/>
<path style="fill:rgb(255, 0, 0);fill-opacity:0;fill-rule:evenodd;stroke:rgb(0, 0, 0);stroke-width:0.2;" d="M 501.817, 206.89 L 507.44, 199.084 L 510.399, 200.305 L 504.776, 208.11 z "/>
<path style="fill:rgb(0, 255, 0);fill-opacity:0;fill-rule:evenodd;stroke:rgb(0, 0, 0);stroke-width:0.2;" d="M 531.891, 202.266 L 537.328, 194.831 L 538.586, 195.089 L 539.992, 196.014 L 534.924, 203.56 z "/>
<path style="fill:rgb(0, 0, 255);fill-opacity:0;fill-rule:evenodd;stroke:rgb(0, 0, 0);stroke-width:0.2;" d="M 673.27, 202.118 L 679.632, 193.425 L 685.366, 195.866 L 679.04, 204.559 z "/>
<path style="fill:rgb(255, 255, 0);fill-opacity:0;fill-rule:evenodd;stroke:rgb(0, 0, 0);stroke-width:0.2;" d="M 339.76, 335.174 L 345.716, 326.999 L 351.413, 329.403 L 345.457, 337.578 z "/>
<path style="fill:rgb(255, 0, 0);fill-opacity:0;fill-rule:evenodd;stroke:rgb(0, 0, 0);stroke-width:0.2;" d="M 664.466, 198.419 L 670.791, 189.726 L 676.525, 192.13 L 670.199, 200.823 z "/>
<path style="fill:rgb(0, 255, 0);fill-opacity:0;fill-rule:evenodd;stroke:rgb(0, 0, 0);stroke-width:0.2;" d="M 271.401, 276.173 L 272.326, 274.916 L 281.352, 278.8 L 280.39, 280.057 z "/>
<path style="fill:rgb(0, 0, 255);fill-opacity:0;fill-rule:evenodd;stroke:rgb(0, 0, 0);stroke-width:0.2;" d="M 583.197, 516.059 L 589.744, 507.107 L 592.815, 508.402 L 586.304, 517.353 z "/>
<path style="fill:rgb(255, 255, 0);fill-opacity:0;fill-rule:evenodd;stroke:rgb(0, 0, 0);stroke-width:0.2;" d="M 472.188, 509.622 L 476.331, 503.889 L 479.179, 505.072 L 475.036, 510.806 z "/>
<path style="fill:rgb(255, 0, 0);fill-opacity:0;fill-rule:evenodd;stroke:rgb(0, 0, 0);stroke-width:0.2;" d="M 276.691, 327.184 L 283.202, 318.306 L 286.272, 319.6 L 279.761, 328.478 z "/>
<path style="fill:rgb(0, 255, 0);fill-opacity:0;fill-rule:evenodd;stroke:rgb(0, 0, 0);stroke-width:0.2;" d="M 276.728, 777.953 L 282.573, 769.926 L 285.532, 771.184 L 279.65, 779.211 z "/>
<path style="fill:rgb(0, 0, 255);fill-opacity:0;fill-rule:evenodd;stroke:rgb(0, 0, 0);stroke-width:0.2;" d="M 324.039, 506.922 L 326.814, 503.778 L 335.655, 508.106 L 332.325, 510.473 z "/>
<path style="fill:rgb(255, 255, 0);fill-opacity:0;fill-rule:evenodd;stroke:rgb(0, 0, 0);stroke-width:0.2;" d="M 123.771, 742.22 L 125.621, 739.668 L 133.87, 745.55 L 131.872, 748.213 z "/>
<path style="fill:rgb(255, 0, 0);fill-opacity:0;fill-rule:evenodd;stroke:rgb(0, 0, 0);stroke-width:0.2;" d="M 268.516, 464.53 L 270.144, 462.311 L 281.796, 467.194 L 280.205, 469.413 z "/>
<path style="fill:rgb(0, 255, 0);fill-opacity:0;fill-rule:evenodd;stroke:rgb(0, 0, 0);stroke-width:0.2;" d="M 670.199, 200.823 L 676.525, 192.13 L 679.632, 193.425 L 673.27, 202.118 z "/>
<path style="fill:rgb(0, 0, 255);fill-opacity:0;fill-rule:evenodd;stroke:rgb(0, 0, 0);stroke-width:0.2;" d="M 631.211, 197.161 L 632.876, 194.831 L 644.417, 199.639 L 642.715, 201.97 z "/>
<path style="fill:rgb(255, 255, 0);fill-opacity:0;fill-rule:evenodd;stroke:rgb(0, 0, 0);stroke-width:0.2;" d="M 280.205, 757.35 L 284.163, 751.912 L 287.086, 753.17 L 283.165, 758.607 z "/>
<path style="fill:rgb(255, 0, 0);fill-opacity:0;fill-rule:evenodd;stroke:rgb(0, 0, 0);stroke-width:0.2;" d="M 207.333, 523.124 L 208.628, 521.2 L 217.136, 524.53 L 215.656, 526.564 z "/>
<path style="fill:rgb(0, 255, 0);fill-opacity:0;fill-rule:evenodd;stroke:rgb(0, 0, 0);stroke-width:0.2;" d="M 107.199, 516.392 L 109.493, 503.815 L 119.332, 504.85 L 117.187, 517.427 z "/>
<path style="fill:rgb(0, 0, 255);fill-opacity:0;fill-rule:evenodd;stroke:rgb(0, 0, 0);stroke-width:0.2;" d="M 629.62, 199.343 L 631.211, 197.161 L 642.715, 201.97 L 641.125, 204.189 z "/>
<path style="fill:rgb(255, 255, 0);fill-opacity:0;fill-rule:evenodd;stroke:rgb(0, 0, 0);stroke-width:0.2;" d="M 280.205, 757.35 L 284.163, 751.912 L 287.086, 753.17 L 283.165, 758.607 z "/>
<path style="fill:rgb(255, 0, 0);fill-opacity:0;fill-rule:evenodd;stroke:rgb(0, 0, 0);stroke-width:0.2;" d="M 300.217, 337.097 L 306.58, 328.33 L 309.539, 329.588 L 303.177, 338.392 z "/>
<path style="fill:rgb(0, 255, 0);fill-opacity:0;fill-rule:evenodd;stroke:rgb(0, 0, 0);stroke-width:0.2;" d="M 150.22, 527.489 L 156.175, 519.277 L 167.716, 524.16 L 161.761, 532.372 z "/>
<path style="fill:rgb(0, 0, 255);fill-opacity:0;fill-rule:evenodd;stroke:rgb(0, 0, 0);stroke-width:0.2;" d="M 278.726, 536.921 L 282.388, 531.854 L 284.2, 532.594 L 280.538, 537.661 z "/>
<path style="fill:rgb(255, 255, 0);fill-opacity:0;fill-rule:evenodd;stroke:rgb(0, 0, 0);stroke-width:0.2;" d="M 632.765, 209.146 L 634.355, 206.927 L 637.536, 208.295 L 635.946, 210.478 z "/>
<path style="fill:rgb(255, 0, 0);fill-opacity:0;fill-rule:evenodd;stroke:rgb(0, 0, 0);stroke-width:0.2;" d="M 280.501, 552.827 L 285.495, 545.984 L 287.751, 546.909 L 282.758, 553.789 z "/>
<path style="fill:rgb(0, 255, 0);fill-opacity:0;fill-rule:evenodd;stroke:rgb(0, 0, 0);stroke-width:0.2;" d="M 572.433, 511.509 L 578.314, 502.52 L 581.273, 503.778 L 574.874, 512.545 z "/>
<path style="fill:rgb(0, 0, 255);fill-opacity:0;fill-rule:evenodd;stroke:rgb(0, 0, 0);stroke-width:0.2;" d="M 147.297, 515.578 L 153.216, 507.44 L 164.757, 512.286 L 158.838, 520.424 z "/>
<path style="fill:rgb(255, 255, 0);fill-opacity:0;fill-rule:evenodd;stroke:rgb(0, 0, 0);stroke-width:0.2;" d="M 279.983, 459.463 L 283.608, 454.543 L 288.676, 457.835 L 285.717, 461.867 z "/>
<path style="fill:rgb(255, 0, 0);fill-opacity:0;fill-rule:evenodd;stroke:rgb(0, 0, 0);stroke-width:0.2;" d="M 272.511, 597.512 L 278.06, 589.263 L 281.981, 590.928 L 275.692, 598.844 z "/>
<path style="fill:rgb(0, 255, 0);fill-opacity:0;fill-rule:evenodd;stroke:rgb(0, 0, 0);stroke-width:0.2;" d="M 281.13, 507.958 L 284.792, 502.964 L 287.345, 504.074 L 283.682, 509.067 z "/>
<path style="fill:rgb(0, 0, 255);fill-opacity:0;fill-rule:evenodd;stroke:rgb(0, 0, 0);stroke-width:0.2;" d="M 629.62, 199.343 L 631.211, 197.161 L 642.715, 201.97 L 641.125, 204.189 z "/>
<path style="fill:rgb(255, 255, 0);fill-opacity:0;fill-rule:evenodd;stroke:rgb(0, 0, 0);stroke-width:0.2;" d="M 264.151, 701.124 L 267, 698.423 L 272.622, 699.496 L 266.963, 702.344 z "/>
<path style="fill:rgb(255, 0, 0);fill-opacity:0;fill-rule:evenodd;stroke:rgb(0, 0, 0);stroke-width:0.2;" d="M 206.15, 513.432 L 207.222, 511.916 L 213.104, 514.357 L 211.957, 515.874 z "/>
<path style="fill:rgb(0, 255, 0);fill-opacity:0;fill-rule:evenodd;stroke:rgb(0, 0, 0);stroke-width:0.2;" d="M 218.431, 506.996 L 219.577, 505.405 L 228.344, 509.067 L 227.16, 510.695 z "/>
<path style="fill:rgb(0, 0, 255);fill-opacity:0;fill-rule:evenodd;stroke:rgb(0, 0, 0);stroke-width:0.2;" d="M 271.697, 27.7061 L 291.635, 0 L 294.595, 1.25769 L 274.657, 28.9638 z "/>
<path style="fill:rgb(255, 255, 0);fill-opacity:0;fill-rule:evenodd;stroke:rgb(0, 0, 0);stroke-width:0.2;" d="M 271.032, 691.728 L 282.906, 675.304 L 294.41, 680.15 L 282.573, 696.537 L 291.414, 682.332 L 288.158, 680.964 L 278.134, 694.687 z "/>
<path style="fill:rgb(255, 0, 0);fill-opacity:0;fill-rule:evenodd;stroke:rgb(0, 0, 0);stroke-width:0.2;" d="M 110.639, 738.299 L 112.674, 735.525 L 123.734, 740.852 L 125.362, 738.669 L 137.162, 747.066 L 133.796, 751.616 L 124.289, 743.848 z "/>
<path style="fill:rgb(0, 255, 0);fill-opacity:0;fill-rule:evenodd;stroke:rgb(0, 0, 0);stroke-width:0.2;" d="M 257.382, 711.629 L 264.78, 701.383 L 266.963, 702.344 L 272.363, 699.903 L 280.945, 703.454 L 279.761, 705.082 L 284.94, 707.893 L 286.161, 711.037 L 279.465, 720.211 L 275.323, 721.099 L 269.404, 719.323 L 268.22, 720.951 L 259.564, 717.326 L 259.638, 712.628 z "/>
<path style="fill:rgb(0, 0, 255);fill-opacity:0;fill-rule:evenodd;stroke:rgb(0, 0, 0);stroke-width:0.2;" d="M 355.149, 505.775 L 358.034, 501.743 L 370.981, 507.181 L 368.058, 511.213 z "/>
<path style="fill:rgb(255, 255, 0);fill-opacity:0;fill-rule:evenodd;stroke:rgb(0, 0, 0);stroke-width:0.2;" d="M 278.504, 506.885 L 282.166, 501.854 L 284.792, 502.964 L 281.13, 507.958 z "/>
<path style="fill:rgb(255, 0, 0);fill-opacity:0;fill-rule:evenodd;stroke:rgb(0, 0, 0);stroke-width:0.2;" d="M 334.212, 511.435 L 337.134, 507.44 L 349.97, 512.84 L 347.048, 516.835 z "/>
<path style="fill:rgb(0, 255, 0);fill-opacity:0;fill-rule:evenodd;stroke:rgb(0, 0, 0);stroke-width:0.2;" d="M 281.13, 507.958 L 284.792, 502.964 L 287.345, 504.074 L 283.682, 509.067 z "/>
<path style="fill:rgb(0, 0, 255);fill-opacity:0;fill-rule:evenodd;stroke:rgb(0, 0, 0);stroke-width:0.2;" d="M 280.575, 121.33 L 286.605, 112.97 L 297.961, 117.668 L 291.894, 126.028 z "/>
<path style="fill:rgb(255, 255, 0);fill-opacity:0;fill-rule:evenodd;stroke:rgb(0, 0, 0);stroke-width:0.2;" d="M 359.625, 522.828 L 372.312, 505.368 L 386.85, 511.472 L 374.162, 528.931 z "/>
<path style="fill:rgb(255, 0, 0);fill-opacity:0;fill-rule:evenodd;stroke:rgb(0, 0, 0);stroke-width:0.2;" d="M 280.538, 537.661 L 284.2, 532.594 L 286.716, 533.666 L 283.054, 538.734 z "/>
<path style="fill:rgb(0, 255, 0);fill-opacity:0;fill-rule:evenodd;stroke:rgb(0, 0, 0);stroke-width:0.2;" d="M 321.339, 506.034 L 324.261, 502.002 L 337.134, 507.44 L 334.212, 511.435 z "/>
<path style="fill:rgb(0, 0, 255);fill-opacity:0;fill-rule:evenodd;stroke:rgb(0, 0, 0);stroke-width:0.2;" d="M 162.944, 504.444 L 169.122, 495.973 L 178, 499.709 L 171.822, 508.18 z "/>
<path style="fill:rgb(255, 255, 0);fill-opacity:0;fill-rule:evenodd;stroke:rgb(0, 0, 0);stroke-width:0.2;" d="M 361.4, 522.495 L 363.989, 518.981 L 377.639, 522.31 L 373.644, 527.711 z "/>
<path style="fill:rgb(255, 0, 0);fill-opacity:0;fill-rule:evenodd;stroke:rgb(0, 0, 0);stroke-width:0.2;" d="M 545.466, 503.334 L 546.946, 501.299 L 558.783, 506.293 L 557.34, 508.328 z "/>
<path style="fill:rgb(0, 255, 0);fill-opacity:0;fill-rule:evenodd;stroke:rgb(0, 0, 0);stroke-width:0.2;" d="M 171.822, 508.18 L 178, 499.709 L 192.204, 506.441 L 186.434, 514.357 z "/>
<path style="fill:rgb(0, 0, 255);fill-opacity:0;fill-rule:evenodd;stroke:rgb(0, 0, 0);stroke-width:0.2;" d="M 678.818, 508.254 L 691.802, 490.424 L 703.306, 495.455 L 690.803, 512.988 z "/>
<path style="fill:rgb(255, 255, 0);fill-opacity:0;fill-rule:evenodd;stroke:rgb(0, 0, 0);stroke-width:0.2;" d="M 274.065, 397.059 L 279.872, 388.995 L 289.675, 393.064 L 283.904, 401.128 z "/>
<path style="fill:rgb(255, 0, 0);fill-opacity:0;fill-rule:evenodd;stroke:rgb(0, 0, 0);stroke-width:0.2;" d="M 275.729, 48.384 L 278.393, 44.8328 L 284.163, 47.3112 L 281.537, 50.8623 z "/>
<path style="fill:rgb(0, 255, 0);fill-opacity:0;fill-rule:evenodd;stroke:rgb(0, 0, 0);stroke-width:0.2;" d="M 540.916, 509.585 L 545.466, 503.334 L 557.34, 508.328 L 558.968, 506.034 L 561.557, 507.107 L 555.343, 515.652 z "/>
<path style="fill:rgb(0, 0, 255);fill-opacity:0;fill-rule:evenodd;stroke:rgb(0, 0, 0);stroke-width:0.2;" d="M 370.5, 510.843 L 372.978, 507.44 L 384.371, 512.951 L 379.822, 517.871 L 376.233, 516.355 L 376.418, 513.321 z "/>
<path style="fill:rgb(255, 255, 0);fill-opacity:0;fill-rule:evenodd;stroke:rgb(0, 0, 0);stroke-width:0.2;" d="M 255.2, 714.625 L 256.716, 711.333 L 260.822, 715.772 L 259.342, 717.621 z "/>
<path style="fill:rgb(255, 0, 0);fill-opacity:0;fill-rule:evenodd;stroke:rgb(0, 0, 0);stroke-width:0.2;" d="M 276.469, 54.3765 L 277.801, 52.6009 L 284.274, 55.3382 L 282.943, 57.1138 z "/>
<path style="fill:rgb(0, 255, 0);fill-opacity:0;fill-rule:evenodd;stroke:rgb(0, 0, 0);stroke-width:0.2;" d="M 392.842, 83.1923 L 408.822, 60.406 L 413.113, 62.1815 L 396.985, 83.6732 z "/>
<path style="fill:rgb(0, 0, 255);fill-opacity:0;fill-rule:evenodd;stroke:rgb(0, 0, 0);stroke-width:0.2;" d="M 117.89, 796.745 L 120.664, 762.824 L 137.236, 686.216 L 149.554, 669.312 L 147.593, 668.461 L 150.627, 664.281 L 152.476, 665.317 L 161.872, 652.74 L 159.393, 651.778 L 162.833, 647.302 L 157.322, 638.609 L 158.506, 637.019 L 166.57, 647.45 L 167.309, 635.206 L 163.462, 633.615 L 166.865, 628.881 L 162.649, 615.231 L 165.127, 612.013 L 163.092, 611.199 L 165.312, 608.166 L 163.388, 607.463 L 166.385, 601.359 L 251.242, 476.959 L 253.313, 477.736 L 257.641, 472.04 L 343.312, 352.374 L 351.709, 336.209 L 349.822, 320.155 L 336.801, 303.657 L 329.736, 299.145 L 214.695, 250.576 L 215.804, 248.948 L 206.002, 234.781 L 205.558, 218.283 L 233.412, 178.407 L 256.235, 168.049 L 280.834, 168.641 L 294.262, 174.449 L 306.025, 182.661 L 304.508, 185.324 L 288.195, 174.634 L 275.951, 170.454 L 257.604, 170.121 L 243.917, 174.892 L 236.482, 179.923 L 210.256, 217.432 L 209.22, 230.601 L 213.844, 241.291 L 229.417, 253.239 L 373.459, 314.163 L 388.329, 323.226 L 384.408, 326.629 L 378.379, 321.709 L 346.863, 308.096 L 353.188, 317.862 L 356.332, 328.219 L 356.295, 338.318 L 351.302, 347.566 L 193.351, 566.588 L 171.822, 600.139 L 169.122, 609.756 L 170.306, 628.067 L 175.41, 630.397 L 172.34, 634.614 L 175.521, 638.794 L 172.932, 642.049 L 172.562, 649.521 L 143.931, 688.991 L 126.398, 766.375 L 123.919, 796.93 z "/>
<path style="fill:rgb(255, 255, 0);fill-opacity:0;fill-rule:evenodd;stroke:rgb(0, 0, 0);stroke-width:0.2;" d="M 269.626, 661.248 L 279.909, 647.154 L 285.569, 649.521 L 275.286, 663.615 z "/>
<path style="fill:rgb(255, 0, 0);fill-opacity:0;fill-rule:evenodd;stroke:rgb(0, 0, 0);stroke-width:0.2;" d="M 272.215, 635.428 L 275.36, 631.137 L 293.929, 639.016 L 290.785, 643.307 z "/>
<path style="fill:rgb(0, 255, 0);fill-opacity:0;fill-rule:evenodd;stroke:rgb(0, 0, 0);stroke-width:0.2;" d="M 283.682, 509.067 L 287.345, 504.074 L 289.749, 505.072 L 286.087, 510.103 z "/>
<path style="fill:rgb(0, 0, 255);fill-opacity:0;fill-rule:evenodd;stroke:rgb(0, 0, 0);stroke-width:0.2;" d="M 271.032, 691.728 L 282.906, 675.304 L 294.41, 680.15 L 282.573, 696.537 z "/>
<path style="fill:rgb(255, 255, 0);fill-opacity:0;fill-rule:evenodd;stroke:rgb(0, 0, 0);stroke-width:0.2;" d="M 260.304, 711.999 L 266.297, 703.713 L 270.773, 702.677 L 278.911, 706.043 L 282.832, 710.556 L 276.987, 718.953 L 269.922, 718.62 L 261.599, 715.18 z "/>
<path style="fill:rgb(255, 0, 0);fill-opacity:0;fill-rule:evenodd;stroke:rgb(0, 0, 0);stroke-width:0.2;" d="M 117.89, 796.745 L 120.664, 762.824 L 137.236, 686.216 L 149.554, 669.312 L 147.593, 668.461 L 150.627, 664.281 L 152.476, 665.317 L 161.872, 652.74 L 159.393, 651.778 L 162.833, 647.302 L 157.322, 638.609 L 158.506, 637.019 L 166.57, 647.45 L 167.309, 635.206 L 163.462, 633.615 L 166.865, 628.881 L 162.649, 615.231 L 165.127, 612.013 L 163.092, 611.199 L 165.312, 608.166 L 163.388, 607.463 L 166.385, 601.359 L 251.242, 476.959 L 253.313, 477.736 L 257.641, 472.04 L 343.312, 352.374 L 351.709, 336.209 L 349.822, 320.155 L 336.801, 303.657 L 329.736, 299.145 L 214.695, 250.576 L 215.804, 248.948 L 206.002, 234.781 L 205.558, 218.283 L 233.412, 178.407 L 256.235, 168.049 L 280.834, 168.641 L 294.262, 174.449 L 306.025, 182.661 L 304.508, 185.324 L 288.195, 174.634 L 275.951, 170.454 L 257.604, 170.121 L 243.917, 174.892 L 236.482, 179.923 L 210.256, 217.432 L 209.22, 230.601 L 213.844, 241.291 L 229.417, 253.239 L 373.459, 314.163 L 388.329, 323.226 L 384.408, 326.629 L 378.379, 321.709 L 346.863, 308.096 L 353.188, 317.862 L 356.332, 328.219 L 356.295, 338.318 L 351.302, 347.566 L 193.351, 566.588 L 171.822, 600.139 L 169.122, 609.756 L 170.306, 628.067 L 175.41, 630.397 L 172.34, 634.614 L 175.521, 638.794 L 172.932, 642.049 L 172.562, 649.521 L 143.931, 688.991 L 126.398, 766.375 L 123.919, 796.93 z "/>
<path style="fill:rgb(0, 255, 0);fill-opacity:0;fill-rule:evenodd;stroke:rgb(0, 0, 0);stroke-width:0.2;" d="M 278.06, 609.534 L 281.167, 605.243 L 299.773, 613.122 L 296.666, 617.339 z "/>
<path style="fill:rgb(0, 0, 255);fill-opacity:0;fill-rule:evenodd;stroke:rgb(0, 0, 0);stroke-width:0.2;" d="M 359.625, 522.828 L 363.25, 517.871 L 378.712, 522.754 L 374.162, 528.931 z "/>
<path style="fill:rgb(255, 255, 0);fill-opacity:0;fill-rule:evenodd;stroke:rgb(0, 0, 0);stroke-width:0.2;" d="M 279.761, 705.082 L 281.204, 703.084 L 284.015, 704.268 L 284.94, 707.893 z "/>
<path style="fill:rgb(255, 0, 0);fill-opacity:0;fill-rule:evenodd;stroke:rgb(0, 0, 0);stroke-width:0.2;" d="M 490.017, 505.183 L 492.717, 501.484 L 498.747, 504.037 L 496.047, 507.736 z "/>
<path style="fill:rgb(0, 255, 0);fill-opacity:0;fill-rule:evenodd;stroke:rgb(0, 0, 0);stroke-width:0.2;" d="M 274.546, 129.69 L 292.708, 104.61 L 303.99, 109.308 L 297.961, 117.668 L 338.614, 134.425 L 344.68, 126.065 L 355.999, 130.762 L 362.029, 122.403 L 373.385, 127.1 L 367.319, 135.46 L 378.638, 140.158 L 360.549, 165.238 L 349.193, 160.54 L 343.164, 168.937 L 331.807, 164.202 L 337.874, 155.879 L 326.555, 151.181 L 332.584, 142.821 L 291.894, 126.028 L 285.865, 134.388 z "/>
<path style="fill:rgb(0, 0, 255);fill-opacity:0;fill-rule:evenodd;stroke:rgb(0, 0, 0);stroke-width:0.2;" d="M 267.998, 721.247 L 269.404, 719.323 L 275.323, 721.099 L 272.289, 722.43 z "/>
<path style="fill:rgb(255, 255, 0);fill-opacity:0;fill-rule:evenodd;stroke:rgb(0, 0, 0);stroke-width:0.2;" d="M 277.616, 791.936 L 282.018, 785.907 L 284.607, 787.016 L 281.056, 793.379 z "/>
<path style="fill:rgb(255, 0, 0);fill-opacity:0;fill-rule:evenodd;stroke:rgb(0, 0, 0);stroke-width:0.2;" d="M 117.89, 796.745 L 120.664, 762.824 L 137.236, 686.216 L 149.554, 669.312 L 147.593, 668.461 L 150.627, 664.281 L 152.476, 665.317 L 161.872, 652.74 L 159.393, 651.778 L 162.833, 647.302 L 157.322, 638.609 L 158.506, 637.019 L 166.57, 647.45 L 167.309, 635.206 L 163.462, 633.615 L 166.865, 628.881 L 162.649, 615.231 L 165.127, 612.013 L 163.092, 611.199 L 165.312, 608.166 L 163.388, 607.463 L 166.385, 601.359 L 251.242, 476.959 L 253.313, 477.736 L 257.641, 472.04 L 343.312, 352.374 L 351.709, 336.209 L 349.822, 320.155 L 336.801, 303.657 L 329.736, 299.145 L 214.695, 250.576 L 215.804, 248.948 L 206.002, 234.781 L 205.558, 218.283 L 233.412, 178.407 L 256.235, 168.049 L 280.834, 168.641 L 294.262, 174.449 L 306.025, 182.661 L 304.508, 185.324 L 288.195, 174.634 L 275.951, 170.454 L 257.604, 170.121 L 243.917, 174.892 L 236.482, 179.923 L 210.256, 217.432 L 209.22, 230.601 L 213.844, 241.291 L 229.417, 253.239 L 373.459, 314.163 L 388.329, 323.226 L 384.408, 326.629 L 378.379, 321.709 L 346.863, 308.096 L 353.188, 317.862 L 356.332, 328.219 L 356.295, 338.318 L 351.302, 347.566 L 193.351, 566.588 L 171.822, 600.139 L 169.122, 609.756 L 170.306, 628.067 L 175.41, 630.397 L 172.34, 634.614 L 175.521, 638.794 L 172.932, 642.049 L 172.562, 649.521 L 143.931, 688.991 L 126.398, 766.375 L 123.919, 796.93 z "/>
<path style="fill:rgb(0, 255, 0);fill-opacity:0;fill-rule:evenodd;stroke:rgb(0, 0, 0);stroke-width:0.2;" d="M 262.265, 420.622 L 268.664, 411.819 L 280.168, 417.071 L 273.214, 426.615 z "/>
<path style="fill:rgb(0, 0, 255);fill-opacity:0;fill-rule:evenodd;stroke:rgb(0, 0, 0);stroke-width:0.2;" d="M 278.837, 303.62 L 283.46, 297.295 L 295.039, 302.141 L 293.411, 304.36 L 296.333, 305.581 L 290.045, 314.237 L 282.018, 310.834 L 285.31, 306.358 z "/>
<path style="fill:rgb(255, 255, 0);fill-opacity:0;fill-rule:evenodd;stroke:rgb(0, 0, 0);stroke-width:0.2;" d="M 279.133, 418.551 L 280.168, 417.071 L 291.783, 421.991 L 290.674, 423.508 z "/>
<path style="fill:rgb(255, 0, 0);fill-opacity:0;fill-rule:evenodd;stroke:rgb(0, 0, 0);stroke-width:0.2;" d="M 279.133, 418.551 L 280.168, 417.071 L 291.783, 421.991 L 290.674, 423.508 z "/>
<path style="fill:rgb(0, 255, 0);fill-opacity:0;fill-rule:evenodd;stroke:rgb(0, 0, 0);stroke-width:0.2;" d="M 276.913, 273.214 L 278.726, 270.662 L 285.421, 273.362 L 283.608, 275.914 z "/>
<path style="fill:rgb(0, 0, 255);fill-opacity:0;fill-rule:evenodd;stroke:rgb(0, 0, 0);stroke-width:0.2;" d="M 274.657, 563.814 L 277.246, 559.671 L 301.586, 570.028 L 298.479, 574.245 L 290.119, 569.88 L 286.457, 574.874 L 282.129, 573.061 L 285.828, 568.031 z "/>
<path style="fill:rgb(255, 255, 0);fill-opacity:0;fill-rule:evenodd;stroke:rgb(0, 0, 0);stroke-width:0.2;" d="M 347.048, 516.835 L 349.97, 512.84 L 362.954, 518.278 L 359.994, 522.31 z "/>
<path style="fill:rgb(255, 0, 0);fill-opacity:0;fill-rule:evenodd;stroke:rgb(0, 0, 0);stroke-width:0.2;" d="M 332.103, 745.808 L 344.384, 751.246 L 347.898, 751.394 L 350.932, 748.324 L 347.861, 752.467 L 346.382, 752.726 z "/>
<path style="fill:rgb(0, 255, 0);fill-opacity:0;fill-rule:evenodd;stroke:rgb(0, 0, 0);stroke-width:0.2;" d="M 272.659, 505.516 L 276.95, 499.672 L 279.502, 500.744 L 275.249, 506.589 z "/>
<path style="fill:rgb(0, 0, 255);fill-opacity:0;fill-rule:evenodd;stroke:rgb(0, 0, 0);stroke-width:0.2;" d="M 681.888, 205.743 L 687.178, 198.493 L 690.137, 199.713 L 684.848, 207.001 z "/>
<path style="fill:rgb(255, 255, 0);fill-opacity:0;fill-rule:evenodd;stroke:rgb(0, 0, 0);stroke-width:0.2;" d="M 218.431, 506.996 L 219.577, 505.405 L 228.344, 509.067 L 227.16, 510.695 z "/>
<path style="fill:rgb(255, 0, 0);fill-opacity:0;fill-rule:evenodd;stroke:rgb(0, 0, 0);stroke-width:0.2;" d="M 139.973, 522.384 L 141.305, 515.245 L 155.768, 519.869 L 150.22, 527.489 z "/>
<path style="fill:rgb(0, 255, 0);fill-opacity:0;fill-rule:evenodd;stroke:rgb(0, 0, 0);stroke-width:0.2;" d="M 414.778, 515.06 L 420.252, 507.588 L 425.616, 509.844 L 420.178, 517.316 z "/>
<path style="fill:rgb(0, 0, 255);fill-opacity:0;fill-rule:evenodd;stroke:rgb(0, 0, 0);stroke-width:0.2;" d="M 414.778, 515.06 L 420.252, 507.588 L 425.616, 509.844 L 420.178, 517.316 z "/>
<path style="fill:rgb(255, 255, 0);fill-opacity:0;fill-rule:evenodd;stroke:rgb(0, 0, 0);stroke-width:0.2;" d="M 275.84, 505.738 L 279.502, 500.744 L 282.166, 501.854 L 278.504, 506.885 z "/>
<path style="fill:rgb(255, 0, 0);fill-opacity:0;fill-rule:evenodd;stroke:rgb(0, 0, 0);stroke-width:0.2;" d="M 501.817, 206.89 L 507.44, 199.084 L 510.399, 200.305 L 504.776, 208.11 z "/>
<path style="fill:rgb(0, 255, 0);fill-opacity:0;fill-rule:evenodd;stroke:rgb(0, 0, 0);stroke-width:0.2;" d="M 141.897, 512.064 L 143.598, 503.408 L 147.112, 504.887 z "/>
<path style="fill:rgb(0, 0, 255);fill-opacity:0;fill-rule:evenodd;stroke:rgb(0, 0, 0);stroke-width:0.2;" d="M 531.891, 202.266 L 537.328, 194.831 L 538.586, 195.089 L 539.992, 196.014 L 534.924, 203.56 z "/>
<path style="fill:rgb(255, 255, 0);fill-opacity:0;fill-rule:evenodd;stroke:rgb(0, 0, 0);stroke-width:0.2;" d="M 271.401, 276.173 L 272.326, 274.916 L 281.352, 278.8 L 280.39, 280.057 z "/>
<path style="fill:rgb(255, 0, 0);fill-opacity:0;fill-rule:evenodd;stroke:rgb(0, 0, 0);stroke-width:0.2;" d="M 280.982, 453.433 L 282.462, 451.362 L 287.936, 453.655 L 286.42, 455.727 z "/>
<path style="fill:rgb(0, 255, 0);fill-opacity:0;fill-rule:evenodd;stroke:rgb(0, 0, 0);stroke-width:0.2;" d="M 679.04, 204.559 L 685.366, 195.866 L 688.214, 197.05 L 681.888, 205.743 z "/>
<path style="fill:rgb(0, 0, 255);fill-opacity:0;fill-rule:evenodd;stroke:rgb(0, 0, 0);stroke-width:0.2;" d="M 280.908, 738.077 L 283.313, 734.785 L 285.643, 735.747 L 283.202, 739.076 z "/>
<path style="fill:rgb(255, 255, 0);fill-opacity:0;fill-rule:evenodd;stroke:rgb(0, 0, 0);stroke-width:0.2;" d="M 268.035, 506.885 L 270.625, 503.371 L 273.362, 504.554 L 270.81, 508.032 z "/>
<path style="fill:rgb(255, 0, 0);fill-opacity:0;fill-rule:evenodd;stroke:rgb(0, 0, 0);stroke-width:0.2;" d="M 277.024, 415.74 L 282.462, 408.378 L 297.591, 414.149 L 291.783, 421.991 z "/>
<path style="fill:rgb(0, 255, 0);fill-opacity:0;fill-rule:evenodd;stroke:rgb(0, 0, 0);stroke-width:0.2;" d="M 258.603, 142.932 L 317.529, 61.8856 L 343.755, 72.9089 L 349.526, 64.9558 L 355.26, 67.3972 L 358.182, 63.4022 L 367.467, 67.2863 L 364.544, 71.2813 L 403.496, 87.6682 L 368.502, 135.275 L 379.119, 140.972 L 361.807, 165.201 L 349.896, 161.132 L 338.725, 176.631 z "/>
<path style="fill:rgb(0, 0, 255);fill-opacity:0;fill-rule:evenodd;stroke:rgb(0, 0, 0);stroke-width:0.2;" d="M 367.763, 511.62 L 372.312, 505.368 L 386.85, 511.472 L 381.412, 518.981 z "/>
<path style="fill:rgb(255, 255, 0);fill-opacity:0;fill-rule:evenodd;stroke:rgb(0, 0, 0);stroke-width:0.2;" d="M 209.664, 238.443 L 211.328, 236.075 L 214.991, 237.592 L 213.326, 239.959 z "/>
<path style="fill:rgb(255, 0, 0);fill-opacity:0;fill-rule:evenodd;stroke:rgb(0, 0, 0);stroke-width:0.2;" d="M 263.596, 408.304 L 265.89, 405.197 L 268.553, 406.344 L 266.26, 409.414 z "/>
<path style="fill:rgb(0, 255, 0);fill-opacity:0;fill-rule:evenodd;stroke:rgb(0, 0, 0);stroke-width:0.2;" d="M 263.596, 408.304 L 265.89, 405.197 L 268.553, 406.344 L 266.26, 409.414 z "/>
<path style="fill:rgb(0, 0, 255);fill-opacity:0;fill-rule:evenodd;stroke:rgb(0, 0, 0);stroke-width:0.2;" d="M 275.84, 505.738 L 279.502, 500.744 L 282.166, 501.854 L 278.504, 506.885 z "/>
<path style="fill:rgb(255, 255, 0);fill-opacity:0;fill-rule:evenodd;stroke:rgb(0, 0, 0);stroke-width:0.2;" d="M 287.936, 479.697 L 293.411, 472.188 L 307.948, 478.291 L 303.399, 484.542 z "/>
<path style="fill:rgb(255, 0, 0);fill-opacity:0;fill-rule:evenodd;stroke:rgb(0, 0, 0);stroke-width:0.2;" d="M 168.752, 502.372 L 170.01, 500.633 L 173.82, 502.224 L 172.562, 503.963 z "/>
<path style="fill:rgb(0, 255, 0);fill-opacity:0;fill-rule:evenodd;stroke:rgb(0, 0, 0);stroke-width:0.2;" d="M 258.603, 142.932 L 317.529, 61.8856 L 343.755, 72.9089 L 349.526, 64.9558 L 355.26, 67.3972 L 358.182, 63.4022 L 367.467, 67.2863 L 364.544, 71.2813 L 403.496, 87.6682 L 368.502, 135.275 L 379.119, 140.972 L 361.807, 165.201 L 349.896, 161.132 L 338.725, 176.631 z "/>
<path style="fill:rgb(0, 0, 255);fill-opacity:0;fill-rule:evenodd;stroke:rgb(0, 0, 0);stroke-width:0.2;" d="M 263.855, 144.449 L 321.931, 64.1051 L 343.201, 72.9089 L 348.453, 65.6217 L 401.979, 87.8162 L 367.319, 135.46 L 378.638, 140.158 L 360.549, 165.238 L 349.193, 160.54 L 338.466, 175.41 z "/>
<path style="fill:rgb(255, 255, 0);fill-opacity:0;fill-rule:evenodd;stroke:rgb(0, 0, 0);stroke-width:0.2;" d="M 148.444, 670.865 L 161.576, 652.666 L 255.347, 691.95 L 242.105, 710.112 z "/>
<path style="fill:rgb(255, 0, 0);fill-opacity:0;fill-rule:evenodd;stroke:rgb(0, 0, 0);stroke-width:0.2;" d="M 253.794, 715.328 L 267.037, 697.166 L 360.327, 736.228 L 347.085, 754.39 z "/>
<path style="fill:rgb(0, 255, 0);fill-opacity:0;fill-rule:evenodd;stroke:rgb(0, 0, 0);stroke-width:0.2;" d="M 5.54862, 492.311 L 8.35992, 480.88 L 93.0688, 490.276 L 95.6952, 475.776 L 124.326, 478.772 L 117.446, 517.427 L 88.6669, 514.431 L 90.8864, 501.891 z "/>
<path style="fill:rgb(0, 0, 255);fill-opacity:0;fill-rule:evenodd;stroke:rgb(0, 0, 0);stroke-width:0.2;" d="M 0, 531.04 L 3.99501, 519.388 L 86.1886, 527.97 L 88.6669, 514.431 L 117.446, 517.427 L 110.529, 555.639 L 81.5647, 552.606 L 83.8581, 539.807 z "/>
<path style="fill:rgb(255, 255, 0);fill-opacity:0;fill-rule:evenodd;stroke:rgb(0, 0, 0);stroke-width:0.2;" d="M 679.04, 204.559 L 685.366, 195.866 L 688.214, 197.05 L 681.888, 205.743 z "/>
<path style="fill:rgb(255, 0, 0);fill-opacity:0;fill-rule:evenodd;stroke:rgb(0, 0, 0);stroke-width:0.2;" d="M 281.944, 388.995 L 283.46, 386.85 L 294.965, 391.585 L 293.411, 393.693 z "/>
<path style="fill:rgb(0, 255, 0);fill-opacity:0;fill-rule:evenodd;stroke:rgb(0, 0, 0);stroke-width:0.2;" d="M 670.199, 200.823 L 676.525, 192.13 L 679.632, 193.425 L 673.27, 202.118 z "/>
<path style="fill:rgb(0, 0, 255);fill-opacity:0;fill-rule:evenodd;stroke:rgb(0, 0, 0);stroke-width:0.2;" d="M 120.294, 628.511 L 124.067, 607.981 L 166.311, 626.032 L 154.252, 642.826 z "/>
<path style="fill:rgb(255, 255, 0);fill-opacity:0;fill-rule:evenodd;stroke:rgb(0, 0, 0);stroke-width:0.2;" d="M 238.998, 400.314 L 245.027, 391.991 L 256.679, 396.874 L 250.354, 405.604 z "/>
<path style="fill:rgb(255, 0, 0);fill-opacity:0;fill-rule:evenodd;stroke:rgb(0, 0, 0);stroke-width:0.2;" d="M 172.636, 648.449 L 176.039, 632.95 L 212.401, 645.637 L 200.823, 661.95 L 175.632, 651.371 L 176.631, 650.076 z "/>
<path style="fill:rgb(0, 255, 0);fill-opacity:0;fill-rule:evenodd;stroke:rgb(0, 0, 0);stroke-width:0.2;" d="M 263.855, 144.449 L 321.931, 64.1051 L 343.201, 72.9089 L 348.453, 65.6217 L 401.979, 87.8162 L 367.319, 135.46 L 378.638, 140.158 L 360.549, 165.238 L 349.193, 160.54 L 338.466, 175.41 z "/>
<path style="fill:rgb(0, 0, 255);fill-opacity:0;fill-rule:evenodd;stroke:rgb(0, 0, 0);stroke-width:0.2;" d="M 278.504, 506.885 L 282.166, 501.854 L 284.792, 502.964 L 281.13, 507.958 z "/>
<path style="fill:rgb(255, 255, 0);fill-opacity:0;fill-rule:evenodd;stroke:rgb(0, 0, 0);stroke-width:0.2;" d="M 270.107, 753.096 L 277.912, 743.515 L 281.611, 745.069 L 274.435, 754.945 z "/>
<path style="fill:rgb(255, 0, 0);fill-opacity:0;fill-rule:evenodd;stroke:rgb(0, 0, 0);stroke-width:0.2;" d="M 279.761, 705.082 L 281.204, 703.084 L 284.015, 704.268 L 284.94, 707.893 z "/>
<path style="fill:rgb(0, 255, 0);fill-opacity:0;fill-rule:evenodd;stroke:rgb(0, 0, 0);stroke-width:0.2;" d="M 152.476, 665.317 L 161.576, 652.666 L 167.383, 655.181 L 157.766, 668.387 z "/>
<path style="fill:rgb(0, 0, 255);fill-opacity:0;fill-rule:evenodd;stroke:rgb(0, 0, 0);stroke-width:0.2;" d="M 274.435, 754.945 L 280.427, 746.733 L 283.387, 747.991 L 277.431, 756.166 z "/>
<path style="fill:rgb(255, 255, 0);fill-opacity:0;fill-rule:evenodd;stroke:rgb(0, 0, 0);stroke-width:0.2;" d="M 276.728, 521.533 L 280.094, 516.909 L 281.981, 517.686 L 278.578, 522.31 z "/>
<path style="fill:rgb(255, 0, 0);fill-opacity:0;fill-rule:evenodd;stroke:rgb(0, 0, 0);stroke-width:0.2;" d="M 278.504, 506.885 L 282.166, 501.854 L 284.792, 502.964 L 281.13, 507.958 z "/>
<path style="fill:rgb(0, 255, 0);fill-opacity:0;fill-rule:evenodd;stroke:rgb(0, 0, 0);stroke-width:0.2;" d="M 355.149, 505.775 L 358.034, 501.743 L 370.981, 507.181 L 368.058, 511.213 z "/>
<path style="fill:rgb(0, 0, 255);fill-opacity:0;fill-rule:evenodd;stroke:rgb(0, 0, 0);stroke-width:0.2;" d="M 334.212, 511.435 L 337.134, 507.44 L 349.97, 512.84 L 347.048, 516.835 z "/>
<path style="fill:rgb(255, 255, 0);fill-opacity:0;fill-rule:evenodd;stroke:rgb(0, 0, 0);stroke-width:0.2;" d="M 276.728, 777.953 L 282.573, 769.926 L 285.532, 771.184 L 279.65, 779.211 z "/>
<path style="fill:rgb(255, 0, 0);fill-opacity:0;fill-rule:evenodd;stroke:rgb(0, 0, 0);stroke-width:0.2;" d="M 303.694, 484.136 L 306.617, 480.104 L 319.527, 485.541 L 316.604, 489.536 z "/>
<path style="fill:rgb(0, 255, 0);fill-opacity:0;fill-rule:evenodd;stroke:rgb(0, 0, 0);stroke-width:0.2;" d="M 283.423, 538.216 L 286.716, 533.666 L 289.601, 534.85 L 286.272, 539.4 z "/>
<path style="fill:rgb(0, 0, 255);fill-opacity:0;fill-rule:evenodd;stroke:rgb(0, 0, 0);stroke-width:0.2;" d="M 279.465, 720.211 L 286.161, 711.037 L 336.32, 732.455 L 340.759, 731.16 L 346.937, 732.677 L 357.22, 738.78 L 347.898, 751.394 L 344.384, 751.246 L 330.92, 744.625 L 330.032, 741.074 z "/>
<path style="fill:rgb(255, 255, 0);fill-opacity:0;fill-rule:evenodd;stroke:rgb(0, 0, 0);stroke-width:0.2;" d="M 295.63, 495.233 L 298.553, 491.201 L 311.352, 496.601 L 308.429, 500.596 z "/>
<path style="fill:rgb(255, 0, 0);fill-opacity:0;fill-rule:evenodd;stroke:rgb(0, 0, 0);stroke-width:0.2;" d="M 264.743, 711.259 L 267.961, 706.968 L 273.251, 709.262 L 270.033, 713.553 z "/>
<path style="fill:rgb(0, 255, 0);fill-opacity:0;fill-rule:evenodd;stroke:rgb(0, 0, 0);stroke-width:0.2;" d="M 274.213, 457.021 L 279.835, 449.253 L 282.684, 450.437 L 284.644, 447.737 L 293.3, 451.362 L 290.748, 454.839 L 282.462, 451.362 L 277.394, 458.39 z "/>
<path style="fill:rgb(0, 0, 255);fill-opacity:0;fill-rule:evenodd;stroke:rgb(0, 0, 0);stroke-width:0.2;" d="M 271.032, 691.728 L 282.906, 675.304 L 294.41, 680.15 L 282.573, 696.537 L 291.414, 682.332 L 288.158, 680.964 L 278.134, 694.687 z "/>
<path style="fill:rgb(255, 255, 0);fill-opacity:0;fill-rule:evenodd;stroke:rgb(0, 0, 0);stroke-width:0.2;" d="M 270.107, 753.096 L 277.912, 743.515 L 281.611, 745.069 L 274.435, 754.945 z "/>
<path style="fill:rgb(255, 0, 0);fill-opacity:0;fill-rule:evenodd;stroke:rgb(0, 0, 0);stroke-width:0.2;" d="M 148.444, 670.865 L 161.872, 652.74 L 167.383, 655.181 L 154.141, 673.344 z "/>
<path style="fill:rgb(0, 255, 0);fill-opacity:0;fill-rule:evenodd;stroke:rgb(0, 0, 0);stroke-width:0.2;" d="M 282.351, 489.314 L 286.309, 483.877 L 297.221, 490.905 L 294.669, 494.419 z "/>
<path style="fill:rgb(0, 0, 255);fill-opacity:0;fill-rule:evenodd;stroke:rgb(0, 0, 0);stroke-width:0.2;" d="M 540.695, 205.891 L 547.834, 196.384 L 553.419, 198.789 L 546.317, 208.332 z "/>
<path style="fill:rgb(255, 255, 0);fill-opacity:0;fill-rule:evenodd;stroke:rgb(0, 0, 0);stroke-width:0.2;" d="M 284.2, 793.897 L 290.452, 785.315 L 306.691, 789.014 L 298.701, 800 L 292.671, 797.448 L 294.225, 795.339 L 291.894, 794.34 L 290.341, 796.486 z "/>
<path style="fill:rgb(255, 0, 0);fill-opacity:0;fill-rule:evenodd;stroke:rgb(0, 0, 0);stroke-width:0.2;" d="M 288.787, 511.213 L 292.412, 506.219 L 295.002, 507.292 L 291.34, 512.286 z "/>
<path style="fill:rgb(0, 255, 0);fill-opacity:0;fill-rule:evenodd;stroke:rgb(0, 0, 0);stroke-width:0.2;" d="M 451.029, 501.891 L 453.729, 498.118 L 457.428, 498.377 L 459.241, 495.862 L 456.392, 494.641 L 457.539, 493.087 L 463.273, 495.492 L 462.126, 497.082 L 459.796, 496.084 L 456.984, 503.223 z "/>
<path style="fill:rgb(0, 0, 255);fill-opacity:0;fill-rule:evenodd;stroke:rgb(0, 0, 0);stroke-width:0.2;" d="M 280.575, 121.33 L 286.605, 112.97 L 297.961, 117.668 L 291.894, 126.028 z "/>
<path style="fill:rgb(255, 255, 0);fill-opacity:0;fill-rule:evenodd;stroke:rgb(0, 0, 0);stroke-width:0.2;" d="M 290.008, 480.104 L 294.299, 474.259 L 305.248, 478.957 L 302.807, 482.36 L 296.851, 479.882 L 293.559, 481.583 z "/>
<path style="fill:rgb(255, 0, 0);fill-opacity:0;fill-rule:evenodd;stroke:rgb(0, 0, 0);stroke-width:0.2;" d="M 456.54, 503.815 L 463.273, 495.492 L 477.958, 501.669 L 471.744, 510.214 z "/>
<path style="fill:rgb(0, 255, 0);fill-opacity:0;fill-rule:evenodd;stroke:rgb(0, 0, 0);stroke-width:0.2;" d="M 341.203, 354.298 L 347.492, 345.494 L 353.447, 348.046 L 347.011, 356.776 z "/>
<path style="fill:rgb(0, 0, 255);fill-opacity:0;fill-rule:evenodd;stroke:rgb(0, 0, 0);stroke-width:0.2;" d="M 639.497, 206.409 L 645.859, 197.679 L 651.741, 200.157 L 645.415, 208.887 z "/>
<path style="fill:rgb(255, 255, 0);fill-opacity:0;fill-rule:evenodd;stroke:rgb(0, 0, 0);stroke-width:0.2;" d="M 277.949, 739.076 L 281.204, 733.897 L 283.313, 734.785 L 279.65, 739.816 z "/>
<path style="fill:rgb(255, 0, 0);fill-opacity:0;fill-rule:evenodd;stroke:rgb(0, 0, 0);stroke-width:0.2;" d="M 280.538, 537.661 L 284.2, 532.594 L 286.716, 533.666 L 283.054, 538.734 z "/>
<path style="fill:rgb(0, 255, 0);fill-opacity:0;fill-rule:evenodd;stroke:rgb(0, 0, 0);stroke-width:0.2;" d="M 277.616, 551.607 L 282.61, 544.763 L 285.495, 545.984 L 280.501, 552.827 z "/>
<path style="fill:rgb(0, 0, 255);fill-opacity:0;fill-rule:evenodd;stroke:rgb(0, 0, 0);stroke-width:0.2;" d="M 402.46, 511.509 L 414.26, 494.752 L 421.584, 497.378 L 408.896, 514.764 z "/>
<path style="fill:rgb(255, 255, 0);fill-opacity:0;fill-rule:evenodd;stroke:rgb(0, 0, 0);stroke-width:0.2;" d="M 284.94, 707.893 L 286.309, 705.969 L 294.669, 708.744 L 342.054, 729.385 L 340.759, 731.16 z "/>
<path style="fill:rgb(255, 0, 0);fill-opacity:0;fill-rule:evenodd;stroke:rgb(0, 0, 0);stroke-width:0.2;" d="M 277.209, 424.691 L 281.093, 419.365 L 290.674, 423.508 L 286.753, 428.723 z "/>
<path style="fill:rgb(0, 255, 0);fill-opacity:0;fill-rule:evenodd;stroke:rgb(0, 0, 0);stroke-width:0.2;" d="M 523.235, 198.678 L 529.486, 190.022 L 538.179, 193.684 L 531.891, 202.266 z "/>
<path style="fill:rgb(0, 0, 255);fill-opacity:0;fill-rule:evenodd;stroke:rgb(0, 0, 0);stroke-width:0.2;" d="M 258.751, 330.846 L 271.586, 313.423 L 283.202, 318.306 L 276.691, 327.184 L 300.994, 337.43 L 299.256, 339.76 L 330.328, 353.336 L 326, 359.181 z "/>
<path style="fill:rgb(255, 255, 0);fill-opacity:0;fill-rule:evenodd;stroke:rgb(0, 0, 0);stroke-width:0.2;" d="M 285.199, 483.433 L 287.936, 479.697 L 303.399, 484.542 L 298.886, 490.794 z "/>
<path style="fill:rgb(255, 0, 0);fill-opacity:0;fill-rule:evenodd;stroke:rgb(0, 0, 0);stroke-width:0.2;" d="M 274.657, 563.814 L 277.246, 559.671 L 301.586, 570.028 L 298.479, 574.245 L 290.119, 569.88 L 286.457, 574.874 L 282.129, 573.061 L 285.828, 568.031 z "/>
<path style="fill:rgb(0, 255, 0);fill-opacity:0;fill-rule:evenodd;stroke:rgb(0, 0, 0);stroke-width:0.2;" d="M 574.874, 512.545 L 581.273, 503.778 L 589.596, 507.292 L 583.197, 516.059 z "/>
<path style="fill:rgb(0, 0, 255);fill-opacity:0;fill-rule:evenodd;stroke:rgb(0, 0, 0);stroke-width:0.2;" d="M 242.512, 505.516 L 244.139, 503.223 L 253.017, 506.848 L 251.352, 509.178 z "/>
<path style="fill:rgb(255, 255, 0);fill-opacity:0;fill-rule:evenodd;stroke:rgb(0, 0, 0);stroke-width:0.2;" d="M 664.466, 198.419 L 670.791, 189.726 L 676.525, 192.13 L 670.199, 200.823 z "/>
<path style="fill:rgb(255, 0, 0);fill-opacity:0;fill-rule:evenodd;stroke:rgb(0, 0, 0);stroke-width:0.2;" d="M 289.009, 480.141 L 293.892, 473.408 L 306.173, 478.587 L 302.659, 483.396 z "/>
<path style="fill:rgb(0, 255, 0);fill-opacity:0;fill-rule:evenodd;stroke:rgb(0, 0, 0);stroke-width:0.2;" d="M 277.616, 791.936 L 282.018, 785.907 L 284.607, 787.016 L 281.056, 793.379 z "/>
<path style="fill:rgb(0, 0, 255);fill-opacity:0;fill-rule:evenodd;stroke:rgb(0, 0, 0);stroke-width:0.2;" d="M 274.694, 775.364 L 279.576, 768.669 L 282.573, 769.926 L 277.69, 776.659 z "/>
<path style="fill:rgb(255, 255, 0);fill-opacity:0;fill-rule:evenodd;stroke:rgb(0, 0, 0);stroke-width:0.2;" d="M 126.767, 716.142 L 133.352, 707.116 L 133.463, 707.153 L 130.836, 717.88 z "/>
<path style="fill:rgb(255, 0, 0);fill-opacity:0;fill-rule:evenodd;stroke:rgb(0, 0, 0);stroke-width:0.2;" d="M 265.446, 363.657 L 270.218, 357.183 L 284.94, 363.398 L 280.168, 369.871 z "/>
<path style="fill:rgb(0, 255, 0);fill-opacity:0;fill-rule:evenodd;stroke:rgb(0, 0, 0);stroke-width:0.2;" d="M 280.908, 738.077 L 283.313, 734.785 L 285.643, 735.747 L 283.202, 739.076 z "/>
<path style="fill:rgb(0, 0, 255);fill-opacity:0;fill-rule:evenodd;stroke:rgb(0, 0, 0);stroke-width:0.2;" d="M 280.39, 778.175 L 285.532, 771.184 L 288.306, 772.368 L 283.719, 778.693 z "/>
<path style="fill:rgb(255, 255, 0);fill-opacity:0;fill-rule:evenodd;stroke:rgb(0, 0, 0);stroke-width:0.2;" d="M 355.149, 735.488 L 360.327, 736.228 L 355.851, 742.368 L 358.404, 738.077 z "/>
<path style="fill:rgb(255, 0, 0);fill-opacity:0;fill-rule:evenodd;stroke:rgb(0, 0, 0);stroke-width:0.2;" d="M 278.837, 303.62 L 283.46, 297.295 L 295.039, 302.141 L 293.411, 304.36 L 296.333, 305.581 L 290.045, 314.237 L 282.018, 310.834 L 285.31, 306.358 z "/>
<path style="fill:rgb(0, 255, 0);fill-opacity:0;fill-rule:evenodd;stroke:rgb(0, 0, 0);stroke-width:0.2;" d="M 283.165, 739.113 L 285.643, 735.747 L 287.788, 736.635 L 285.014, 740.445 z "/>
<path style="fill:rgb(0, 0, 255);fill-opacity:0;fill-rule:evenodd;stroke:rgb(0, 0, 0);stroke-width:0.2;" d="M 263.596, 659.62 L 268.257, 653.221 L 270.736, 654.256 L 273.88, 649.928 L 267.333, 647.154 L 270.921, 642.197 L 284.681, 648.042 L 285.569, 649.521 L 275.286, 663.615 z "/>
<path style="fill:rgb(255, 255, 0);fill-opacity:0;fill-rule:evenodd;stroke:rgb(0, 0, 0);stroke-width:0.2;" d="M 241.032, 507.588 L 242.512, 505.516 L 251.352, 509.178 L 249.873, 511.25 z "/>
<path style="fill:rgb(255, 0, 0);fill-opacity:0;fill-rule:evenodd;stroke:rgb(0, 0, 0);stroke-width:0.2;" d="M 277.431, 756.166 L 282.055, 749.803 L 284.866, 750.987 L 280.205, 757.35 z "/>
<path style="fill:rgb(0, 255, 0);fill-opacity:0;fill-rule:evenodd;stroke:rgb(0, 0, 0);stroke-width:0.2;" d="M 333.361, 741.703 L 338.688, 734.452 L 354.853, 741.998 L 350.377, 748.102 z "/>
<path style="fill:rgb(0, 0, 255);fill-opacity:0;fill-rule:evenodd;stroke:rgb(0, 0, 0);stroke-width:0.2;" d="M 278.578, 522.31 L 281.981, 517.686 L 285.754, 519.277 L 282.351, 523.938 z "/>
<path style="fill:rgb(255, 255, 0);fill-opacity:0;fill-rule:evenodd;stroke:rgb(0, 0, 0);stroke-width:0.2;" d="M 284.57, 708.485 L 292.93, 711.148 L 340.352, 731.789 L 336.32, 732.455 L 286.161, 711.037 z "/>
<path style="fill:rgb(255, 0, 0);fill-opacity:0;fill-rule:evenodd;stroke:rgb(0, 0, 0);stroke-width:0.2;" d="M 275.729, 720.507 L 279.465, 720.211 L 330.032, 741.074 L 331.401, 743.996 z "/>
<path style="fill:rgb(0, 255, 0);fill-opacity:0;fill-rule:evenodd;stroke:rgb(0, 0, 0);stroke-width:0.2;" d="M 340.759, 731.16 L 342.498, 728.756 L 347.529, 730.864 L 346.826, 731.863 z "/>
<path style="fill:rgb(0, 0, 255);fill-opacity:0;fill-rule:evenodd;stroke:rgb(0, 0, 0);stroke-width:0.2;" d="M 273.214, 426.615 L 279.133, 418.551 L 281.093, 419.365 L 277.209, 424.691 L 286.753, 428.723 L 284.755, 431.461 z "/>
<path style="fill:rgb(255, 255, 0);fill-opacity:0;fill-rule:evenodd;stroke:rgb(0, 0, 0);stroke-width:0.2;" d="M 367.763, 511.62 L 372.312, 505.368 L 386.85, 511.472 L 381.412, 518.981 z "/>
<path style="fill:rgb(255, 0, 0);fill-opacity:0;fill-rule:evenodd;stroke:rgb(0, 0, 0);stroke-width:0.2;" d="M 276.728, 521.533 L 280.094, 516.909 L 281.981, 517.686 L 278.578, 522.31 z "/>
<path style="fill:rgb(0, 255, 0);fill-opacity:0;fill-rule:evenodd;stroke:rgb(0, 0, 0);stroke-width:0.2;" d="M 198.53, 507.958 L 204.929, 499.228 L 207.888, 500.486 L 201.526, 509.215 z "/>
<path style="fill:rgb(0, 0, 255);fill-opacity:0;fill-rule:evenodd;stroke:rgb(0, 0, 0);stroke-width:0.2;" d="M 342.831, 752.615 L 347.861, 752.467 L 351.376, 748.583 L 347.085, 754.39 z "/>
<path style="fill:rgb(255, 255, 0);fill-opacity:0;fill-rule:evenodd;stroke:rgb(0, 0, 0);stroke-width:0.2;" d="M 269.626, 661.248 L 279.909, 647.154 L 285.569, 649.521 L 275.286, 663.615 z "/>
<path style="fill:rgb(255, 0, 0);fill-opacity:0;fill-rule:evenodd;stroke:rgb(0, 0, 0);stroke-width:0.2;" d="M 13.3167, 493.79 L 15.4252, 482.175 L 121.441, 493.235 L 119.332, 504.85 z "/>
<path style="fill:rgb(0, 255, 0);fill-opacity:0;fill-rule:evenodd;stroke:rgb(0, 0, 0);stroke-width:0.2;" d="M 280.501, 552.827 L 285.495, 545.984 L 287.751, 546.909 L 282.758, 553.789 z "/>
<path style="fill:rgb(0, 0, 255);fill-opacity:0;fill-rule:evenodd;stroke:rgb(0, 0, 0);stroke-width:0.2;" d="M 678.818, 508.254 L 691.802, 490.424 L 703.306, 495.455 L 690.803, 512.988 z "/>
<path style="fill:rgb(255, 255, 0);fill-opacity:0;fill-rule:evenodd;stroke:rgb(0, 0, 0);stroke-width:0.2;" d="M 256.716, 711.333 L 264.151, 701.124 L 264.78, 701.383 L 257.382, 711.629 z "/>
<path style="fill:rgb(255, 0, 0);fill-opacity:0;fill-rule:evenodd;stroke:rgb(0, 0, 0);stroke-width:0.2;" d="M 540.695, 205.891 L 547.834, 196.384 L 553.419, 198.789 L 546.317, 208.332 z "/>
<path style="fill:rgb(0, 255, 0);fill-opacity:0;fill-rule:evenodd;stroke:rgb(0, 0, 0);stroke-width:0.2;" d="M 631.211, 197.161 L 632.876, 194.831 L 644.417, 199.639 L 642.715, 201.97 z "/>
<path style="fill:rgb(0, 0, 255);fill-opacity:0;fill-rule:evenodd;stroke:rgb(0, 0, 0);stroke-width:0.2;" d="M 271.069, 444.259 L 277.431, 435.53 L 282.018, 437.453 L 275.618, 446.183 z "/>
<path style="fill:rgb(255, 255, 0);fill-opacity:0;fill-rule:evenodd;stroke:rgb(0, 0, 0);stroke-width:0.2;" d="M 279.724, 625.218 L 282.869, 620.928 L 301.438, 628.807 L 298.294, 633.098 z "/>
<path style="fill:rgb(255, 0, 0);fill-opacity:0;fill-rule:evenodd;stroke:rgb(0, 0, 0);stroke-width:0.2;" d="M 8.17497, 492.569 L 9.91353, 482.989 L 15.2032, 483.544 L 13.4647, 493.124 z "/>
<path style="fill:rgb(0, 255, 0);fill-opacity:0;fill-rule:evenodd;stroke:rgb(0, 0, 0);stroke-width:0.2;" d="M 275.729, 48.384 L 278.393, 44.8328 L 284.163, 47.3112 L 281.537, 50.8623 z "/>
<path style="fill:rgb(0, 0, 255);fill-opacity:0;fill-rule:evenodd;stroke:rgb(0, 0, 0);stroke-width:0.2;" d="M 263.781, 381.449 L 270.107, 372.645 L 281.278, 377.269 L 274.953, 386.073 z "/>
<path style="fill:rgb(255, 255, 0);fill-opacity:0;fill-rule:evenodd;stroke:rgb(0, 0, 0);stroke-width:0.2;" d="M 332.88, 742.331 L 333.361, 741.703 L 350.377, 748.102 L 346.456, 750.802 L 335.618, 746.215 L 337.134, 744.144 z "/>
<path style="fill:rgb(255, 0, 0);fill-opacity:0;fill-rule:evenodd;stroke:rgb(0, 0, 0);stroke-width:0.2;" d="M 258.751, 330.846 L 271.586, 313.423 L 283.202, 318.306 L 276.691, 327.184 L 300.994, 337.43 L 299.256, 339.76 L 330.328, 353.336 L 326, 359.181 z "/>
<path style="fill:rgb(0, 255, 0);fill-opacity:0;fill-rule:evenodd;stroke:rgb(0, 0, 0);stroke-width:0.2;" d="M 478.92, 512.803 L 481.953, 508.623 L 486.022, 510.325 L 489.832, 505.109 L 503.334, 510.806 L 496.527, 520.202 z "/>
<path style="fill:rgb(0, 0, 255);fill-opacity:0;fill-rule:evenodd;stroke:rgb(0, 0, 0);stroke-width:0.2;" d="M 147.297, 515.578 L 153.216, 507.44 L 164.757, 512.286 L 158.838, 520.424 z "/>
<path style="fill:rgb(255, 255, 0);fill-opacity:0;fill-rule:evenodd;stroke:rgb(0, 0, 0);stroke-width:0.2;" d="M 274.694, 775.364 L 279.576, 768.669 L 282.573, 769.926 L 277.69, 776.659 z "/>
<path style="fill:rgb(255, 0, 0);fill-opacity:0;fill-rule:evenodd;stroke:rgb(0, 0, 0);stroke-width:0.2;" d="M 233.671, 185.657 L 237.481, 180.441 L 240.218, 181.625 L 238.073, 184.584 L 329.662, 223.276 L 328.256, 225.2 z "/>
<path style="fill:rgb(0, 255, 0);fill-opacity:0;fill-rule:evenodd;stroke:rgb(0, 0, 0);stroke-width:0.2;" d="M 117.89, 796.745 L 120.664, 762.824 L 137.236, 686.216 L 149.554, 669.312 L 147.593, 668.461 L 150.627, 664.281 L 152.476, 665.317 L 161.872, 652.74 L 159.393, 651.778 L 162.833, 647.302 L 157.322, 638.609 L 158.506, 637.019 L 166.57, 647.45 L 167.309, 635.206 L 163.462, 633.615 L 166.865, 628.881 L 162.649, 615.231 L 165.127, 612.013 L 163.092, 611.199 L 165.312, 608.166 L 163.388, 607.463 L 166.385, 601.359 L 251.242, 476.959 L 253.313, 477.736 L 257.641, 472.04 L 343.312, 352.374 L 351.709, 336.209 L 349.822, 320.155 L 336.801, 303.657 L 329.736, 299.145 L 214.695, 250.576 L 215.804, 248.948 L 206.002, 234.781 L 205.558, 218.283 L 233.412, 178.407 L 256.235, 168.049 L 280.834, 168.641 L 294.262, 174.449 L 306.025, 182.661 L 304.508, 185.324 L 288.195, 174.634 L 275.951, 170.454 L 257.604, 170.121 L 243.917, 174.892 L 236.482, 179.923 L 210.256, 217.432 L 209.22, 230.601 L 213.844, 241.291 L 229.417, 253.239 L 373.459, 314.163 L 388.329, 323.226 L 384.408, 326.629 L 378.379, 321.709 L 346.863, 308.096 L 353.188, 317.862 L 356.332, 328.219 L 356.295, 338.318 L 351.302, 347.566 L 193.351, 566.588 L 171.822, 600.139 L 169.122, 609.756 L 170.306, 628.067 L 175.41, 630.397 L 172.34, 634.614 L 175.521, 638.794 L 172.932, 642.049 L 172.562, 649.521 L 143.931, 688.991 L 126.398, 766.375 L 123.919, 796.93 z "/>
<path style="fill:rgb(0, 0, 255);fill-opacity:0;fill-rule:evenodd;stroke:rgb(0, 0, 0);stroke-width:0.2;" d="M 375.568, 510.954 L 377.047, 508.919 L 379.748, 510.066 L 379.489, 514.579 z "/>
<path style="fill:rgb(255, 255, 0);fill-opacity:0;fill-rule:evenodd;stroke:rgb(0, 0, 0);stroke-width:0.2;" d="M 321.339, 506.034 L 324.261, 502.002 L 337.134, 507.44 L 334.212, 511.435 z "/>
<path style="fill:rgb(255, 0, 0);fill-opacity:0;fill-rule:evenodd;stroke:rgb(0, 0, 0);stroke-width:0.2;" d="M 274.065, 352.041 L 278.319, 346.308 L 292.745, 352.522 L 288.676, 357.997 z "/>
<path style="fill:rgb(0, 255, 0);fill-opacity:0;fill-rule:evenodd;stroke:rgb(0, 0, 0);stroke-width:0.2;" d="M 280.723, 489.61 L 285.199, 483.433 L 298.886, 490.794 L 295.261, 495.751 z "/>
<path style="fill:rgb(0, 0, 255);fill-opacity:0;fill-rule:evenodd;stroke:rgb(0, 0, 0);stroke-width:0.2;" d="M 280.39, 778.175 L 285.532, 771.184 L 288.306, 772.368 L 283.719, 778.693 z "/>
<path style="fill:rgb(255, 255, 0);fill-opacity:0;fill-rule:evenodd;stroke:rgb(0, 0, 0);stroke-width:0.2;" d="M 283.46, 386.85 L 284.126, 385.962 L 295.63, 390.66 L 294.965, 391.585 z "/>
<path style="fill:rgb(255, 0, 0);fill-opacity:0;fill-rule:evenodd;stroke:rgb(0, 0, 0);stroke-width:0.2;" d="M 600.213, 503.556 L 607.981, 492.274 L 632.987, 502.483 L 630.101, 506.404 L 646.007, 513.839 L 640.385, 521.57 L 626.476, 515.726 L 628.141, 513.469 z "/>
<path style="fill:rgb(0, 255, 0);fill-opacity:0;fill-rule:evenodd;stroke:rgb(0, 0, 0);stroke-width:0.2;" d="M 162.944, 504.444 L 169.122, 495.973 L 178, 499.709 L 171.822, 508.18 z "/>
<path style="fill:rgb(0, 0, 255);fill-opacity:0;fill-rule:evenodd;stroke:rgb(0, 0, 0);stroke-width:0.2;" d="M 268.035, 506.885 L 270.625, 503.371 L 273.362, 504.554 L 270.81, 508.032 z "/>
<path style="fill:rgb(255, 255, 0);fill-opacity:0;fill-rule:evenodd;stroke:rgb(0, 0, 0);stroke-width:0.2;" d="M 163.055, 504.259 L 169.122, 495.973 L 178, 499.709 L 171.933, 508.032 z "/>
<path style="fill:rgb(255, 0, 0);fill-opacity:0;fill-rule:evenodd;stroke:rgb(0, 0, 0);stroke-width:0.2;" d="M 5.54862, 492.311 L 7.6571, 481.435 L 15.4252, 482.175 L 13.3167, 493.79 z "/>
<path style="fill:rgb(0, 255, 0);fill-opacity:0;fill-rule:evenodd;stroke:rgb(0, 0, 0);stroke-width:0.2;" d="M 277.949, 739.076 L 281.204, 733.897 L 283.313, 734.785 L 279.65, 739.816 z "/>
<path style="fill:rgb(0, 0, 255);fill-opacity:0;fill-rule:evenodd;stroke:rgb(0, 0, 0);stroke-width:0.2;" d="M 275.729, 720.507 L 279.465, 720.211 L 330.032, 741.074 L 331.401, 743.996 z "/>
<path style="fill:rgb(255, 255, 0);fill-opacity:0;fill-rule:evenodd;stroke:rgb(0, 0, 0);stroke-width:0.2;" d="M 293.818, 478.55 L 298.775, 475.998 L 301.475, 477.144 L 299.995, 479.142 z "/>
<path style="fill:rgb(255, 0, 0);fill-opacity:0;fill-rule:evenodd;stroke:rgb(0, 0, 0);stroke-width:0.2;" d="M 261.747, 328.293 L 268.146, 319.527 L 276.062, 322.856 L 269.626, 331.623 z "/>
<path style="fill:rgb(0, 255, 0);fill-opacity:0;fill-rule:evenodd;stroke:rgb(0, 0, 0);stroke-width:0.2;" d="M 520.017, 197.642 L 523.494, 192.833 L 526.527, 194.128 L 523.087, 198.9 z "/>
<path style="fill:rgb(0, 0, 255);fill-opacity:0;fill-rule:evenodd;stroke:rgb(0, 0, 0);stroke-width:0.2;" d="M 117.89, 796.745 L 120.664, 762.824 L 137.236, 686.216 L 149.554, 669.312 L 147.593, 668.461 L 150.627, 664.281 L 152.476, 665.317 L 161.872, 652.74 L 159.393, 651.778 L 162.833, 647.302 L 157.322, 638.609 L 158.506, 637.019 L 166.57, 647.45 L 167.309, 635.206 L 163.462, 633.615 L 166.865, 628.881 L 162.649, 615.231 L 165.127, 612.013 L 163.092, 611.199 L 165.312, 608.166 L 163.388, 607.463 L 166.385, 601.359 L 251.242, 476.959 L 253.313, 477.736 L 257.641, 472.04 L 343.312, 352.374 L 351.709, 336.209 L 349.822, 320.155 L 336.801, 303.657 L 329.736, 299.145 L 214.695, 250.576 L 215.804, 248.948 L 206.002, 234.781 L 205.558, 218.283 L 233.412, 178.407 L 256.235, 168.049 L 280.834, 168.641 L 294.262, 174.449 L 306.025, 182.661 L 304.508, 185.324 L 288.195, 174.634 L 275.951, 170.454 L 257.604, 170.121 L 243.917, 174.892 L 236.482, 179.923 L 210.256, 217.432 L 209.22, 230.601 L 213.844, 241.291 L 229.417, 253.239 L 373.459, 314.163 L 388.329, 323.226 L 384.408, 326.629 L 378.379, 321.709 L 346.863, 308.096 L 353.188, 317.862 L 356.332, 328.219 L 356.295, 338.318 L 351.302, 347.566 L 193.351, 566.588 L 171.822, 600.139 L 169.122, 609.756 L 170.306, 628.067 L 175.41, 630.397 L 172.34, 634.614 L 175.521, 638.794 L 172.932, 642.049 L 172.562, 649.521 L 143.931, 688.991 L 126.398, 766.375 L 123.919, 796.93 z "/>
<path style="fill:rgb(255, 255, 0);fill-opacity:0;fill-rule:evenodd;stroke:rgb(0, 0, 0);stroke-width:0.2;" d="M 109.863, 501.78 L 111.342, 493.679 L 121.182, 494.715 L 119.702, 502.816 z "/>
<path style="fill:rgb(255, 0, 0);fill-opacity:0;fill-rule:evenodd;stroke:rgb(0, 0, 0);stroke-width:0.2;" d="M 141.305, 515.245 L 147.075, 504.887 L 153.216, 507.44 L 146.077, 517.242 z "/>
<path style="fill:rgb(0, 255, 0);fill-opacity:0;fill-rule:evenodd;stroke:rgb(0, 0, 0);stroke-width:0.2;" d="M 630.545, 506.589 L 635.65, 499.561 L 631.951, 498.007 L 633.504, 495.899 L 663.689, 508.586 L 648.967, 528.82 L 638.387, 524.345 L 646.451, 513.284 z "/>
<path style="fill:rgb(0, 0, 255);fill-opacity:0;fill-rule:evenodd;stroke:rgb(0, 0, 0);stroke-width:0.2;" d="M 638.387, 207.962 L 639.497, 206.409 L 645.415, 208.887 L 644.269, 210.441 z "/>
<path style="fill:rgb(255, 255, 0);fill-opacity:0;fill-rule:evenodd;stroke:rgb(0, 0, 0);stroke-width:0.2;" d="M 277.209, 424.691 L 281.093, 419.365 L 290.674, 423.508 L 286.753, 428.723 z "/>
<path style="fill:rgb(255, 0, 0);fill-opacity:0;fill-rule:evenodd;stroke:rgb(0, 0, 0);stroke-width:0.2;" d="M 243.991, 414.334 L 250.058, 405.974 L 257.197, 406.973 L 249.836, 416.775 z "/>
<path style="fill:rgb(0, 255, 0);fill-opacity:0;fill-rule:evenodd;stroke:rgb(0, 0, 0);stroke-width:0.2;" d="M 274.435, 754.945 L 280.427, 746.733 L 283.387, 747.991 L 277.431, 756.166 z "/>
<path style="fill:rgb(0, 0, 255);fill-opacity:0;fill-rule:evenodd;stroke:rgb(0, 0, 0);stroke-width:0.2;" d="M 278.726, 536.921 L 282.388, 531.854 L 284.2, 532.594 L 280.538, 537.661 z "/>
<path style="fill:rgb(255, 255, 0);fill-opacity:0;fill-rule:evenodd;stroke:rgb(0, 0, 0);stroke-width:0.2;" d="M 274.213, 457.021 L 279.835, 449.253 L 282.684, 450.437 L 284.644, 447.737 L 293.3, 451.362 L 290.748, 454.839 L 282.462, 451.362 L 277.394, 458.39 z "/>
<path style="fill:rgb(255, 0, 0);fill-opacity:0;fill-rule:evenodd;stroke:rgb(0, 0, 0);stroke-width:0.2;" d="M 201.045, 520.498 L 206.15, 513.432 L 211.957, 515.874 L 218.431, 506.996 L 227.16, 510.695 L 217.136, 524.53 z "/>
<path style="fill:rgb(0, 255, 0);fill-opacity:0;fill-rule:evenodd;stroke:rgb(0, 0, 0);stroke-width:0.2;" d="M 274.546, 129.69 L 292.708, 104.61 L 303.99, 109.308 L 297.961, 117.668 L 338.614, 134.425 L 344.68, 126.065 L 355.999, 130.762 L 362.029, 122.403 L 373.385, 127.1 L 367.319, 135.46 L 378.638, 140.158 L 360.549, 165.238 L 349.193, 160.54 L 343.164, 168.937 L 331.807, 164.202 L 337.874, 155.879 L 326.555, 151.181 L 332.584, 142.821 L 291.894, 126.028 L 285.865, 134.388 z "/>
<path style="fill:rgb(0, 0, 255);fill-opacity:0;fill-rule:evenodd;stroke:rgb(0, 0, 0);stroke-width:0.2;" d="M 267.961, 394.581 L 274.25, 385.814 L 280.353, 388.329 L 274.028, 397.096 z "/>
<path style="fill:rgb(255, 255, 0);fill-opacity:0;fill-rule:evenodd;stroke:rgb(0, 0, 0);stroke-width:0.2;" d="M 263.596, 659.62 L 268.257, 653.221 L 270.736, 654.256 L 273.88, 649.928 L 267.333, 647.154 L 270.921, 642.197 L 284.681, 648.042 L 285.569, 649.521 L 275.286, 663.615 z "/>
<path style="fill:rgb(255, 0, 0);fill-opacity:0;fill-rule:evenodd;stroke:rgb(0, 0, 0);stroke-width:0.2;" d="M 207.222, 511.916 L 213.77, 502.964 L 219.577, 505.405 L 213.104, 514.357 z "/>
<path style="fill:rgb(0, 255, 0);fill-opacity:0;fill-rule:evenodd;stroke:rgb(0, 0, 0);stroke-width:0.2;" d="M 280.723, 489.61 L 285.199, 483.433 L 298.886, 490.794 L 295.261, 495.751 z "/>
<path style="fill:rgb(0, 0, 255);fill-opacity:0;fill-rule:evenodd;stroke:rgb(0, 0, 0);stroke-width:0.2;" d="M 286.309, 489.055 L 287.271, 487.724 L 292.005, 490.202 L 290.489, 492.348 z "/>
<path style="fill:rgb(255, 255, 0);fill-opacity:0;fill-rule:evenodd;stroke:rgb(0, 0, 0);stroke-width:0.2;" d="M 5.54862, 492.311 L 8.35992, 480.88 L 93.0688, 490.276 L 95.6952, 475.776 L 124.326, 478.772 L 117.446, 517.427 L 88.6669, 514.431 L 90.8864, 501.891 z "/>
<path style="fill:rgb(255, 0, 0);fill-opacity:0;fill-rule:evenodd;stroke:rgb(0, 0, 0);stroke-width:0.2;" d="M 201.526, 509.215 L 207.888, 500.486 L 213.77, 502.964 L 207.407, 511.694 z "/>
<path style="fill:rgb(0, 255, 0);fill-opacity:0;fill-rule:evenodd;stroke:rgb(0, 0, 0);stroke-width:0.2;" d="M 276.432, 599.14 L 281.981, 590.928 L 285.902, 592.593 L 279.576, 600.472 z "/>
<path style="fill:rgb(0, 0, 255);fill-opacity:0;fill-rule:evenodd;stroke:rgb(0, 0, 0);stroke-width:0.2;" d="M 277.431, 756.166 L 282.055, 749.803 L 284.866, 750.987 L 280.205, 757.35 z "/>
<path style="fill:rgb(255, 255, 0);fill-opacity:0;fill-rule:evenodd;stroke:rgb(0, 0, 0);stroke-width:0.2;" d="M 277.209, 424.691 L 281.093, 419.365 L 290.674, 423.508 L 286.753, 428.723 z "/>
<path style="fill:rgb(255, 0, 0);fill-opacity:0;fill-rule:evenodd;stroke:rgb(0, 0, 0);stroke-width:0.2;" d="M 201.526, 509.215 L 207.888, 500.486 L 213.77, 502.964 L 207.407, 511.694 z "/>
<path style="fill:rgb(0, 255, 0);fill-opacity:0;fill-rule:evenodd;stroke:rgb(0, 0, 0);stroke-width:0.2;" d="M 277.209, 424.691 L 281.093, 419.365 L 290.674, 423.508 L 286.753, 428.723 z "/>
<path style="fill:rgb(0, 0, 255);fill-opacity:0;fill-rule:evenodd;stroke:rgb(0, 0, 0);stroke-width:0.2;" d="M 365.987, 524.086 L 367.541, 521.977 L 372.83, 523.716 L 368.946, 525.343 z "/>
<path style="fill:rgb(255, 255, 0);fill-opacity:0;fill-rule:evenodd;stroke:rgb(0, 0, 0);stroke-width:0.2;" d="M 274.065, 397.059 L 279.872, 388.995 L 289.675, 393.064 L 283.904, 401.128 z "/>
<path style="fill:rgb(255, 0, 0);fill-opacity:0;fill-rule:evenodd;stroke:rgb(0, 0, 0);stroke-width:0.2;" d="M 192.833, 505.59 L 199.232, 496.823 L 204.929, 499.228 L 198.53, 507.958 z "/>
<path style="fill:rgb(0, 255, 0);fill-opacity:0;fill-rule:evenodd;stroke:rgb(0, 0, 0);stroke-width:0.2;" d="M 171.822, 508.18 L 178, 499.709 L 192.204, 506.441 L 186.434, 514.357 z "/>
</svg>