<?xml version="1.0" encoding="iso-8859-1" standalone="no"?>
<!DOCTYPE svg PUBLIC "-//W3C//DTD SVG 1.0//EN" "http://www.w3.org/TR/2001/REC-SVG-20010904/DTD/svg10.dtd">
<svg xmlns="http://www.w3.org/2000/svg" width="1060" height="800">
<path style="fill:rgb(255, 0, 0);fill-opacity:0;fill-rule:evenodd;stroke:rgb(255, 0, 117);stroke-width:1;" d="M 289.331, 404.159 L 315.371, 368.354 L 429.656, 416.456 L 415.009, 436.528 L 361.121, 413.924 L 357.685, 418.445 L 378.481, 427.125 L 381.013, 431.103 L 381.736, 436.528 L 378.843, 440.687 L 389.331, 445.027 L 382.821, 454.069 L 385.533, 455.335 L 386.618, 458.59 L 385.172, 460.217 L 384.448, 461.483 L 380.47, 462.387 L 377.577, 461.121 L 359.494, 486.257 L 365.099, 488.608 L 364.195, 490.054 L 360.94, 494.394 L 360.036, 495.66 L 310.85, 474.864 L 334.358, 442.676 L 330.741, 441.23 L 329.656, 437.975 L 331.284, 435.805 L 335.081, 434.539 L 339.06, 436.166 L 345.931, 426.763 L 339.602, 424.231 L 347.016, 414.105 L 351.175, 415.732 L 354.611, 411.212 L 345.027, 407.052 L 333.635, 422.785 L 289.331, 404.159 z "/>
<path style="fill:rgb(0, 255, 0);fill-opacity:0;fill-rule:evenodd;stroke:rgb(255, 0, 117);stroke-width:1;" d="M 412.477, 283.906 L 425.316, 266.004 L 461.121, 280.832 L 454.792, 289.693 L 480.47, 300.362 L 483.002, 296.745 L 508.137, 307.052 L 506.329, 309.584 L 538.879, 322.966 L 546.112, 314.467 L 567.631, 323.508 L 543.4, 345.75 L 529.114, 358.951 L 509.765, 350.995 L 508.318, 351.718 L 489.15, 343.761 L 489.693, 343.219 L 413.201, 311.573 L 428.21, 290.416 L 412.477, 283.906 z "/>
<path style="fill:rgb(0, 0, 255);fill-opacity:0;fill-rule:evenodd;stroke:rgb(255, 0, 117);stroke-width:1;" d="M 442.134, 161.121 L 461.121, 134.901 L 603.255, 194.937 L 604.159, 193.671 L 615.913, 198.553 L 610.127, 206.329 L 580.832, 246.474 L 560.759, 237.975 L 570.524, 224.593 L 583.725, 230.199 L 588.788, 222.966 L 442.134, 161.121 z "/>
<path style="fill:rgb(255, 255, 0);fill-opacity:0;fill-rule:evenodd;stroke:rgb(255, 0, 117);stroke-width:1;" d="M 512.839, 413.743 L 559.855, 371.067 L 551.175, 363.834 L 557.505, 355.154 L 543.4, 345.75 L 567.631, 323.508 L 569.62, 324.231 L 621.157, 345.931 L 558.228, 432.731 L 512.839, 413.743 z "/>
<path style="fill:rgb(255, 0, 0);fill-opacity:0;fill-rule:evenodd;stroke:rgb(255, 0, 117);stroke-width:1;" d="M 847.197, 189.873 L 871.248, 156.781 L 957.324, 192.767 L 948.463, 205.063 L 953.707, 207.233 L 931.646, 237.613 L 897.468, 223.146 L 871.79, 212.477 L 878.662, 203.074 L 847.197, 189.873 z "/>
<path style="fill:rgb(0, 255, 0);fill-opacity:0;fill-rule:evenodd;stroke:rgb(255, 0, 117);stroke-width:1;" d="M 625.497, 108.861 L 656.962, 66.0036 L 728.933, 96.3834 L 718.445, 110.488 L 697.468, 139.241 L 625.497, 108.861 z "/>
<path style="fill:rgb(0, 0, 255);fill-opacity:0;fill-rule:evenodd;stroke:rgb(255, 0, 117);stroke-width:1;" d="M 60.217, 367.089 L 71.4286, 322.423 L 78.8427, 323.508 L 87.7034, 288.065 L 146.835, 296.745 L 140.506, 321.7 L 106.329, 316.637 L 92.5859, 371.79 L 60.217, 367.089 z "/>
<path style="fill:rgb(255, 255, 0);fill-opacity:0;fill-rule:evenodd;stroke:rgb(255, 0, 117);stroke-width:1;" d="M 142.495, 254.25 L 153.526, 209.946 L 161.483, 211.031 L 170.344, 175.407 L 228.933, 183.906 L 222.604, 208.68 L 189.15, 203.978 L 181.555, 234.358 L 175.769, 257.685 L 175.407, 258.951 L 142.495, 254.25 z "/>
<path style="fill:rgb(255, 0, 0);fill-opacity:0;fill-rule:evenodd;stroke:rgb(255, 0, 117);stroke-width:1;" d="M 439.241, 518.626 L 486.799, 476.492 L 460.398, 459.313 L 482.459, 439.783 L 527.486, 469.078 L 496.926, 496.203 L 503.255, 500.362 L 464.376, 535.081 L 439.241, 518.626 z "/>
<path style="fill:rgb(0, 255, 0);fill-opacity:0;fill-rule:evenodd;stroke:rgb(255, 0, 117);stroke-width:1;" d="M 574.864, 669.259 L 583.363, 657.685 L 582.278, 655.335 L 589.15, 645.931 L 591.32, 646.835 L 593.671, 643.761 L 591.32, 642.676 L 599.638, 631.646 L 679.024, 665.099 L 670.886, 676.311 L 667.812, 674.864 L 665.642, 677.939 L 668.716, 679.204 L 661.844, 688.427 L 657.685, 688.788 L 649.005, 700.542 L 638.517, 696.203 L 647.197, 684.448 L 645.75, 681.555 L 641.41, 681.917 L 632.731, 693.852 L 622.423, 689.331 L 631.103, 677.577 L 629.476, 675.045 L 626.04, 675.226 L 617.179, 687.161 L 606.691, 682.821 L 615.371, 670.886 L 613.382, 668.174 L 609.403, 668.354 L 600.723, 680.289 L 590.235, 675.769 L 598.915, 664.014 L 597.649, 661.664 L 594.394, 662.025 L 585.714, 673.779 L 574.864, 669.259 z M 601.989, 650.995 L 608.137, 653.526 L 610.307, 650.633 L 608.861, 649.91 L 604.159, 648.101 L 601.989, 650.995 z M 650.09, 671.248 L 656.058, 673.779 L 658.228, 670.886 L 652.08, 668.174 L 650.09, 671.248 z M 633.996, 664.557 L 640.145, 667.089 L 642.315, 664.195 L 636.166, 661.664 L 633.996, 664.557 z M 617.902, 657.866 L 624.051, 660.398 L 626.221, 657.505 L 620.072, 654.973 L 617.902, 657.866 z "/>
<path style="fill:rgb(0, 0, 255);fill-opacity:0;fill-rule:evenodd;stroke:rgb(255, 0, 117);stroke-width:1;" d="M 224.593, 141.41 L 235.805, 96.9259 L 248.825, 98.7342 L 251.356, 88.4268 L 245.57, 87.5226 L 251.899, 62.7486 L 310.669, 71.4286 L 310.669, 71.6094 L 304.34, 96.2025 L 267.993, 90.9584 L 265.461, 101.266 L 268.716, 101.808 L 257.505, 146.293 L 224.593, 141.41 z "/>
<path style="fill:rgb(255, 255, 0);fill-opacity:0;fill-rule:evenodd;stroke:rgb(255, 0, 117);stroke-width:1;" d="M 572.333, 290.778 L 600.723, 251.899 L 654.611, 274.684 L 657.685, 270.344 L 660.217, 271.429 L 671.248, 276.13 L 657.324, 294.937 L 639.241, 287.342 L 636.528, 287.523 L 622.966, 281.736 L 620.615, 284.991 L 634.177, 290.597 L 635.262, 292.586 L 653.526, 300.362 L 639.602, 319.168 L 596.383, 300.904 L 604.159, 290.235 L 603.436, 290.054 L 609.042, 282.459 L 609.403, 281.013 L 618.264, 268.897 L 613.924, 267.089 L 605.063, 279.204 L 602.893, 279.928 L 589.512, 298.011 L 572.333, 290.778 z M 621.338, 300.181 L 628.571, 303.255 L 630.922, 300.181 L 625.316, 297.83 L 624.231, 299.277 L 622.604, 298.553 L 621.338, 300.181 z "/>
<path style="fill:rgb(255, 0, 0);fill-opacity:0;fill-rule:evenodd;stroke:rgb(255, 0, 117);stroke-width:1;" d="M 658.77, 557.685 L 677.396, 532.188 L 673.599, 530.561 L 681.917, 519.168 L 701.627, 527.306 L 684.448, 550.814 L 699.096, 556.962 L 716.275, 533.454 L 732.55, 540.325 L 715.371, 563.834 L 730.199, 569.982 L 747.378, 546.655 L 767.269, 554.973 L 758.77, 566.546 L 754.973, 564.919 L 736.347, 590.416 L 658.77, 557.685 z "/>
<path style="fill:rgb(0, 255, 0);fill-opacity:0;fill-rule:evenodd;stroke:rgb(255, 0, 117);stroke-width:1;" d="M 643.942, 468.716 L 675.407, 425.316 L 689.512, 431.284 L 691.139, 432.007 L 689.512, 434.358 L 711.573, 443.58 L 699.638, 460.036 L 702.893, 461.483 L 714.828, 445.027 L 730.018, 451.356 L 722.785, 461.121 L 722.604, 463.291 L 701.085, 492.767 L 686.438, 486.438 L 698.734, 469.439 L 698.011, 466.365 L 694.213, 467.631 L 681.736, 484.629 L 643.942, 468.716 z "/>
<path style="fill:rgb(0, 0, 255);fill-opacity:0;fill-rule:evenodd;stroke:rgb(255, 0, 117);stroke-width:1;" d="M 829.837, 630.561 L 848.825, 604.34 L 844.304, 602.351 L 852.622, 590.958 L 872.694, 599.277 L 855.335, 623.327 L 859.132, 624.955 L 855.335, 630.199 L 863.653, 633.635 L 867.45, 628.391 L 870.705, 629.837 L 888.246, 605.787 L 903.978, 612.477 L 886.438, 636.347 L 890.054, 637.975 L 886.438, 643.219 L 894.394, 646.474 L 898.192, 641.41 L 901.447, 642.676 L 918.987, 618.807 L 938.879, 627.125 L 931.465, 637.251 L 930.38, 638.698 L 926.582, 637.071 L 913.382, 655.154 L 911.392, 654.43 L 909.584, 656.781 L 911.573, 657.505 L 907.414, 663.291 L 829.837, 630.561 z "/>
<path style="fill:rgb(255, 255, 0);fill-opacity:0;fill-rule:evenodd;stroke:rgb(255, 0, 117);stroke-width:1;" d="M 761.121, 665.099 L 769.62, 653.345 L 773.96, 655.154 L 792.586, 629.476 L 856.239, 656.239 L 837.432, 681.917 L 841.953, 683.906 L 833.454, 695.479 L 813.201, 686.98 L 830.38, 663.472 L 822.604, 660.217 L 805.425, 683.725 L 789.512, 677.034 L 806.51, 653.526 L 798.553, 650.09 L 781.374, 673.599 L 761.121, 665.099 z "/>
<path style="fill:rgb(255, 0, 0);fill-opacity:0;fill-rule:evenodd;stroke:rgb(255, 0, 117);stroke-width:1;" d="M 689.873, 635.081 L 698.373, 623.508 L 702.351, 625.136 L 720.976, 599.458 L 784.629, 626.221 L 765.823, 651.899 L 769.62, 653.345 L 761.121, 665.099 L 741.772, 656.962 L 758.951, 633.454 L 750.995, 630.199 L 733.996, 653.526 L 717.902, 646.835 L 735.081, 623.327 L 727.306, 620.072 L 710.307, 643.58 L 689.873, 635.081 z "/>
<path style="fill:rgb(0, 255, 0);fill-opacity:0;fill-rule:evenodd;stroke:rgb(255, 0, 117);stroke-width:1;" d="M 618.987, 605.244 L 627.486, 593.671 L 631.103, 595.118 L 649.729, 569.439 L 713.02, 596.022 L 694.394, 621.7 L 698.373, 623.508 L 689.873, 635.081 L 670.344, 626.944 L 687.523, 603.436 L 679.566, 600 L 662.387, 623.508 L 646.293, 616.637 L 663.472, 593.309 L 655.696, 590.054 L 638.517, 613.382 L 618.987, 605.244 z "/>
<path style="fill:rgb(0, 0, 255);fill-opacity:0;fill-rule:evenodd;stroke:rgb(255, 0, 117);stroke-width:1;" d="M 642.315, 762.929 L 656.962, 743.038 L 657.324, 740.687 L 669.801, 723.689 L 706.148, 739.06 L 734.177, 750.814 L 720.253, 769.801 L 716.998, 770.886 L 703.797, 788.969 L 688.246, 782.278 L 700.904, 765.099 L 700.904, 762.568 L 709.042, 751.537 L 704.159, 749.548 L 696.203, 760.579 L 693.671, 761.664 L 680.832, 779.204 L 665.28, 772.694 L 678.119, 755.154 L 677.939, 752.984 L 686.076, 741.953 L 681.917, 740.145 L 673.779, 751.175 L 671.067, 752.08 L 658.228, 769.62 L 642.315, 762.929 z "/>
<path style="fill:rgb(255, 255, 0);fill-opacity:0;fill-rule:evenodd;stroke:rgb(255, 0, 117);stroke-width:1;" d="M 808.137, 767.812 L 827.306, 741.591 L 826.944, 739.421 L 828.21, 737.432 L 830.922, 736.528 L 834.72, 731.465 L 850.814, 738.156 L 838.698, 754.792 L 838.336, 757.143 L 830.741, 767.45 L 836.528, 768.897 L 843.4, 759.132 L 845.931, 757.324 L 857.685, 741.049 L 873.599, 747.74 L 861.844, 764.014 L 861.844, 766.546 L 854.611, 776.492 L 858.228, 779.204 L 866.004, 768.354 L 868.535, 767.269 L 880.47, 750.814 L 896.383, 757.324 L 892.586, 762.387 L 893.852, 764.919 L 892.405, 766.908 L 888.969, 767.45 L 869.62, 794.033 L 866.365, 794.756 L 809.403, 770.705 L 808.137, 767.812 z "/>
<path style="fill:rgb(255, 0, 0);fill-opacity:0;fill-rule:evenodd;stroke:rgb(255, 0, 117);stroke-width:1;" d="M 339.421, 635.081 L 358.59, 608.68 L 362.025, 607.776 L 377.577, 614.286 L 379.566, 611.573 L 362.025, 604.159 L 369.259, 594.213 L 391.863, 603.617 L 408.68, 610.669 L 410.127, 608.499 L 424.412, 614.647 L 393.128, 657.685 L 350.271, 639.602 L 362.749, 622.604 L 359.675, 621.338 L 347.197, 638.336 L 339.421, 635.081 z M 367.631, 635.262 L 373.237, 637.613 L 373.96, 636.528 L 385.353, 641.41 L 386.076, 640.325 L 387.342, 640.868 L 388.788, 638.879 L 370.705, 631.103 L 367.631, 635.262 z M 380.289, 617.902 L 382.821, 618.987 L 381.736, 620.434 L 396.383, 626.582 L 399.277, 622.604 L 382.278, 615.371 L 380.289, 617.902 z "/>
<path style="fill:rgb(0, 255, 0);fill-opacity:0;fill-rule:evenodd;stroke:rgb(255, 0, 117);stroke-width:1;" d="M 560.759, 728.391 L 564.738, 722.966 L 564.195, 720.615 L 565.823, 718.264 L 568.535, 717.902 L 589.331, 689.512 L 626.401, 705.244 L 648.463, 714.467 L 627.848, 742.676 L 629.114, 745.389 L 627.848, 747.197 L 624.231, 747.74 L 620.072, 753.345 L 604.34, 746.835 L 608.499, 741.049 L 607.957, 738.698 L 609.403, 736.709 L 612.477, 735.805 L 626.04, 717.179 L 619.53, 714.286 L 605.967, 733.092 L 607.052, 735.624 L 605.244, 737.975 L 602.17, 738.156 L 597.83, 744.123 L 582.459, 737.613 L 586.799, 731.826 L 585.895, 729.476 L 587.342, 727.667 L 590.597, 726.401 L 604.159, 707.957 L 597.83, 705.244 L 584.268, 723.689 L 584.81, 726.221 L 583.002, 728.571 L 580.289, 729.295 L 576.13, 734.901 L 560.759, 728.391 z "/>
<path style="fill:rgb(0, 0, 255);fill-opacity:0;fill-rule:evenodd;stroke:rgb(255, 0, 117);stroke-width:1;" d="M 359.855, 556.781 L 373.96, 537.613 L 455.515, 571.971 L 437.975, 596.203 L 360.94, 563.834 L 364.557, 558.951 L 359.855, 556.781 z "/>
<path style="fill:rgb(255, 255, 0);fill-opacity:0;fill-rule:evenodd;stroke:rgb(255, 0, 117);stroke-width:1;" d="M 757.685, 583.002 L 775.588, 558.59 L 852.622, 590.958 L 844.304, 602.351 L 834.72, 615.552 L 808.68, 604.521 L 807.233, 606.691 L 783.363, 596.564 L 781.555, 595.841 L 783.002, 593.671 L 757.685, 583.002 z "/>
<path style="fill:rgb(255, 0, 0);fill-opacity:0;fill-rule:evenodd;stroke:rgb(255, 0, 117);stroke-width:1;" d="M 290.416, 696.564 L 309.765, 669.982 L 317.179, 659.855 L 374.141, 683.725 L 347.197, 720.615 L 290.416, 696.564 z M 313.924, 682.64 L 319.168, 684.991 L 323.327, 679.024 L 325.136, 679.747 L 326.763, 677.577 L 325.497, 675.407 L 320.796, 673.418 L 317.541, 673.599 L 318.445, 676.492 L 313.924, 682.64 z M 331.465, 695.66 L 339.06, 698.734 L 341.591, 701.627 L 349.186, 691.32 L 344.485, 691.32 L 336.347, 687.884 L 337.071, 691.139 L 334.901, 694.213 L 331.465, 695.66 z M 304.34, 695.841 L 309.584, 698.011 L 316.275, 688.788 L 311.031, 686.618 L 304.34, 695.841 z "/>
<path style="fill:rgb(0, 255, 0);fill-opacity:0;fill-rule:evenodd;stroke:rgb(255, 0, 117);stroke-width:1;" d="M 175.769, 257.685 L 181.555, 234.358 L 255.335, 244.846 L 252.26, 257.685 L 257.685, 258.409 L 251.175, 284.448 L 250.271, 288.065 L 226.401, 284.629 L 231.103, 265.642 L 175.769, 257.685 z "/>
<path style="fill:rgb(0, 0, 255);fill-opacity:0;fill-rule:evenodd;stroke:rgb(255, 0, 117);stroke-width:1;" d="M 178.3, 563.834 L 202.532, 530.741 L 209.403, 533.816 L 212.116, 530.018 L 252.984, 547.197 L 241.591, 562.929 L 234.539, 572.514 L 232.369, 575.588 L 226.221, 584.087 L 178.3, 563.834 z "/>
<path style="fill:rgb(255, 255, 0);fill-opacity:0;fill-rule:evenodd;stroke:rgb(255, 0, 117);stroke-width:1;" d="M 976.492, 396.564 L 984.268, 385.895 L 991.863, 389.15 L 1002.89, 373.96 L 995.298, 370.886 L 1003.62, 359.675 L 1060.58, 383.544 L 1053.35, 393.49 L 1052.26, 394.756 L 1045.03, 391.682 L 1034, 406.872 L 1041.23, 409.946 L 1033.45, 420.615 L 976.492, 396.564 z M 1005.24, 394.756 L 1020.07, 401.085 L 1029.48, 388.246 L 1014.65, 381.917 L 1012.84, 384.448 L 1005.24, 394.756 z "/>
<path style="fill:rgb(255, 0, 0);fill-opacity:0;fill-rule:evenodd;stroke:rgb(255, 0, 117);stroke-width:1;" d="M 876.492, 713.562 L 885.714, 701.085 L 890.235, 702.893 L 908.318, 678.3 L 956.058, 698.373 L 937.794, 723.327 L 941.772, 725.136 L 932.911, 737.251 L 908.318, 726.944 L 927.306, 700.904 L 919.53, 697.649 L 900.542, 723.689 L 876.492, 713.562 z "/>
<path style="fill:rgb(0, 255, 0);fill-opacity:0;fill-rule:evenodd;stroke:rgb(255, 0, 117);stroke-width:1;" d="M 739.964, 445.027 L 758.047, 420.072 L 761.302, 421.519 L 763.834, 418.083 L 756.962, 415.371 L 763.834, 406.148 L 791.682, 417.902 L 814.828, 427.667 L 796.383, 452.984 L 784.087, 447.74 L 785.895, 445.208 L 775.045, 440.506 L 785.172, 426.763 L 778.843, 424.051 L 777.396, 426.04 L 778.662, 426.582 L 778.119, 427.486 L 779.928, 428.391 L 761.121, 453.888 L 739.964, 445.027 z "/>
<path style="fill:rgb(0, 0, 255);fill-opacity:0;fill-rule:evenodd;stroke:rgb(255, 0, 117);stroke-width:1;" d="M 270.344, 754.069 L 280.108, 740.868 L 278.662, 740.145 L 281.013, 736.709 L 290.235, 740.506 L 305.967, 718.807 L 339.06, 732.731 L 332.911, 741.23 L 332.007, 740.868 L 316.817, 761.664 L 317.902, 762.025 L 311.212, 771.248 L 270.344, 754.069 z "/>
<path style="fill:rgb(255, 255, 0);fill-opacity:0;fill-rule:evenodd;stroke:rgb(255, 0, 117);stroke-width:1;" d="M 500, 112.658 L 507.052, 103.074 L 509.584, 99.6383 L 524.955, 106.148 L 533.454, 94.575 L 517.902, 88.0651 L 527.667, 74.8644 L 573.056, 94.2134 L 564.195, 106.51 L 559.313, 104.521 L 560.94, 102.351 L 555.335, 100 L 548.463, 109.222 L 544.304, 107.595 L 540.506, 112.658 L 555.154, 118.987 L 545.57, 132.007 L 500, 112.658 z "/>
<path style="fill:rgb(255, 0, 0);fill-opacity:0;fill-rule:evenodd;stroke:rgb(255, 0, 117);stroke-width:1;" d="M 545.57, 132.007 L 555.154, 118.987 L 570.344, 125.316 L 573.96, 120.253 L 569.801, 118.445 L 576.854, 108.861 L 570.886, 106.51 L 569.259, 108.68 L 564.195, 106.51 L 573.056, 94.2134 L 618.445, 113.382 L 609.042, 126.221 L 593.852, 119.892 L 585.353, 131.646 L 600.542, 138.156 L 598.011, 141.41 L 590.958, 151.175 L 545.57, 132.007 z "/>
<path style="fill:rgb(0, 255, 0);fill-opacity:0;fill-rule:evenodd;stroke:rgb(255, 0, 117);stroke-width:1;" d="M 494.394, 784.087 L 496.203, 780.289 L 498.915, 775.407 L 513.743, 755.154 L 510.488, 753.707 L 517.36, 744.304 L 559.675, 762.206 L 557.685, 764.738 L 549.548, 775.769 L 533.273, 768.897 L 535.624, 765.823 L 530.741, 763.834 L 526.401, 769.62 L 527.486, 770.163 L 523.327, 775.769 L 522.242, 775.226 L 520.976, 777.034 L 518.445, 780.47 L 522.966, 782.459 L 525.136, 779.566 L 541.772, 786.618 L 531.826, 800 L 494.394, 784.087 z "/>
<path style="fill:rgb(0, 0, 255);fill-opacity:0;fill-rule:evenodd;stroke:rgb(255, 0, 117);stroke-width:1;" d="M 833.454, 695.479 L 841.953, 683.906 L 842.857, 682.459 L 852.803, 686.618 L 851.175, 688.788 L 854.792, 690.235 L 866.184, 674.684 L 862.568, 673.237 L 860.759, 675.588 L 850.995, 671.429 L 860.579, 658.228 L 899.277, 674.322 L 888.065, 689.693 L 879.024, 685.895 L 872.152, 695.298 L 885.714, 701.085 L 876.492, 713.562 L 833.454, 695.479 z "/>
<path style="fill:rgb(255, 255, 0);fill-opacity:0;fill-rule:evenodd;stroke:rgb(255, 0, 117);stroke-width:1;" d="M 286.438, 316.637 L 317.722, 274.503 L 346.474, 286.799 L 345.208, 288.608 L 315.19, 328.933 L 286.438, 316.637 z "/>
<path style="fill:rgb(255, 0, 0);fill-opacity:0;fill-rule:evenodd;stroke:rgb(255, 0, 117);stroke-width:1;" d="M 808.499, 242.857 L 824.231, 221.338 L 855.696, 234.539 L 881.193, 245.208 L 865.461, 266.727 L 808.499, 242.857 z "/>
<path style="fill:rgb(0, 255, 0);fill-opacity:0;fill-rule:evenodd;stroke:rgb(255, 0, 117);stroke-width:1;" d="M 869.439, 268.354 L 895.841, 232.007 L 892.224, 230.38 L 897.468, 223.146 L 931.646, 237.613 L 926.401, 244.846 L 922.966, 243.4 L 896.564, 279.747 L 889.873, 277.034 L 892.224, 273.779 L 877.215, 267.45 L 874.864, 270.705 L 869.439, 268.354 z "/>
<path style="fill:rgb(0, 0, 255);fill-opacity:0;fill-rule:evenodd;stroke:rgb(255, 0, 117);stroke-width:1;" d="M 900.181, 281.374 L 910.127, 267.631 L 922.785, 273.056 L 925.136, 269.801 L 921.881, 268.354 L 926.944, 261.302 L 925.678, 260.759 L 926.401, 259.855 L 917.902, 256.239 L 926.401, 244.846 L 963.291, 260.217 L 954.792, 271.79 L 941.591, 266.184 L 933.273, 277.396 L 946.655, 283.002 L 944.123, 286.438 L 936.709, 296.745 L 900.181, 281.374 z "/>
<path style="fill:rgb(255, 255, 0);fill-opacity:0;fill-rule:evenodd;stroke:rgb(255, 0, 117);stroke-width:1;" d="M 112.477, 539.602 L 120.796, 528.391 L 123.689, 529.476 L 125.859, 526.582 L 122.966, 525.316 L 130.38, 515.19 L 133.635, 515.009 L 141.953, 503.617 L 152.803, 508.137 L 144.485, 519.53 L 145.931, 521.881 L 149.548, 521.7 L 157.866, 510.307 L 168.897, 515.009 L 160.579, 526.401 L 162.025, 528.571 L 154.792, 538.698 L 151.899, 537.432 L 149.729, 540.506 L 152.441, 541.591 L 144.304, 552.984 L 112.477, 539.602 z M 133.996, 533.816 L 139.783, 536.166 L 141.953, 533.273 L 138.698, 531.826 L 136.166, 530.741 L 133.996, 533.816 z "/>
<path style="fill:rgb(255, 0, 0);fill-opacity:0;fill-rule:evenodd;stroke:rgb(255, 0, 117);stroke-width:1;" d="M 302.17, 552.803 L 311.031, 540.868 L 318.445, 544.123 L 326.401, 533.454 L 327.486, 533.996 L 328.752, 532.188 L 320.072, 528.571 L 328.391, 517.179 L 362.387, 531.465 L 354.611, 542.315 L 345.389, 538.517 L 343.761, 540.868 L 344.665, 541.23 L 337.071, 551.899 L 345.208, 555.335 L 336.528, 567.269 L 302.17, 552.803 z "/>
<path style="fill:rgb(0, 255, 0);fill-opacity:0;fill-rule:evenodd;stroke:rgb(255, 0, 117);stroke-width:1;" d="M 824.231, 221.338 L 847.197, 189.873 L 878.662, 203.074 L 871.79, 212.477 L 855.696, 234.539 L 824.231, 221.338 z "/>
<path style="fill:rgb(0, 0, 255);fill-opacity:0;fill-rule:evenodd;stroke:rgb(255, 0, 117);stroke-width:1;" d="M 602.712, 99.0958 L 633.996, 56.2387 L 656.962, 66.0036 L 625.497, 108.861 L 602.712, 99.0958 z "/>
<path style="fill:rgb(255, 255, 0);fill-opacity:0;fill-rule:evenodd;stroke:rgb(255, 0, 117);stroke-width:1;" d="M 691.682, 403.074 L 706.872, 382.278 L 757.685, 403.617 L 742.495, 424.412 L 740.687, 423.689 L 729.656, 419.168 L 733.996, 413.382 L 730.741, 411.935 L 719.349, 407.052 L 715.009, 413.02 L 711.212, 411.392 L 691.682, 403.074 z "/>
<path style="fill:rgb(255, 0, 0);fill-opacity:0;fill-rule:evenodd;stroke:rgb(255, 0, 117);stroke-width:1;" d="M 326.04, 263.291 L 349.729, 231.284 L 378.481, 243.58 L 354.973, 275.588 L 326.04, 263.291 z "/>
<path style="fill:rgb(0, 255, 0);fill-opacity:0;fill-rule:evenodd;stroke:rgb(255, 0, 117);stroke-width:1;" d="M 675.407, 425.316 L 691.682, 403.074 L 711.212, 411.392 L 707.233, 416.637 L 721.519, 422.785 L 723.87, 421.519 L 726.763, 417.902 L 729.656, 419.168 L 740.687, 423.689 L 724.593, 445.931 L 711.392, 440.506 L 715.732, 434.539 L 713.382, 433.454 L 693.852, 425.316 L 689.512, 431.284 L 675.407, 425.316 z "/>
<path style="fill:rgb(0, 0, 255);fill-opacity:0;fill-rule:evenodd;stroke:rgb(255, 0, 117);stroke-width:1;" d="M 997.83, 322.423 L 1005.24, 312.297 L 1012.84, 315.371 L 1014.29, 313.201 L 1013.56, 313.02 L 1013.92, 312.477 L 1011.93, 311.573 L 1030.02, 286.799 L 1050.81, 295.66 L 1032.73, 320.434 L 1030.38, 319.349 L 1028.39, 321.881 L 1035.8, 325.136 L 1028.39, 335.262 L 997.83, 322.423 z "/>
<path style="fill:rgb(255, 255, 0);fill-opacity:0;fill-rule:evenodd;stroke:rgb(255, 0, 117);stroke-width:1;" d="M 915.552, 666.546 L 935.624, 638.879 L 931.465, 637.251 L 938.879, 627.125 L 967.993, 639.421 L 959.855, 650.814 L 951.899, 647.559 L 940.325, 663.472 L 948.282, 666.727 L 940.687, 677.215 L 915.552, 666.546 z "/>
<path style="fill:rgb(255, 0, 0);fill-opacity:0;fill-rule:evenodd;stroke:rgb(255, 0, 117);stroke-width:1;" d="M 967.45, 309.584 L 974.864, 299.458 L 982.278, 302.532 L 983.725, 300.542 L 983.183, 300.362 L 984.268, 298.915 L 982.098, 298.192 L 999.638, 273.96 L 1020.25, 282.64 L 1002.17, 307.595 L 1000.18, 306.691 L 998.192, 309.222 L 1005.24, 312.297 L 997.83, 322.423 L 967.45, 309.584 z "/>
<path style="fill:rgb(0, 255, 0);fill-opacity:0;fill-rule:evenodd;stroke:rgb(255, 0, 117);stroke-width:1;" d="M 940.687, 677.215 L 948.282, 666.727 L 955.335, 669.801 L 966.908, 653.888 L 959.855, 650.814 L 967.993, 639.421 L 996.383, 651.356 L 988.969, 661.483 L 985.714, 660.036 L 965.461, 687.703 L 940.687, 677.215 z "/>
<path style="fill:rgb(0, 0, 255);fill-opacity:0;fill-rule:evenodd;stroke:rgb(255, 0, 117);stroke-width:1;" d="M 936.709, 296.745 L 944.123, 286.438 L 951.537, 289.693 L 953.165, 287.342 L 952.803, 287.161 L 953.526, 286.076 L 951.899, 285.353 L 969.62, 261.302 L 989.693, 269.801 L 972.152, 293.852 L 970.344, 293.128 L 967.993, 296.564 L 974.864, 299.458 L 967.45, 309.584 L 936.709, 296.745 z "/>
<path style="fill:rgb(255, 255, 0);fill-opacity:0;fill-rule:evenodd;stroke:rgb(255, 0, 117);stroke-width:1;" d="M 844.123, 552.803 L 852.08, 541.953 L 852.803, 541.049 L 857.866, 543.038 L 860.398, 542.857 L 869.62, 530.199 L 869.078, 527.667 L 864.014, 525.678 L 871.79, 514.828 L 896.564, 525.316 L 885.895, 539.964 L 882.278, 538.517 L 877.939, 544.304 L 878.843, 544.665 L 875.588, 549.186 L 875.949, 551.175 L 880.832, 553.165 L 880.108, 554.25 L 872.514, 564.738 L 844.123, 552.803 z "/>
<path style="fill:rgb(255, 0, 0);fill-opacity:0;fill-rule:evenodd;stroke:rgb(255, 0, 117);stroke-width:1;" d="M 726.401, 355.515 L 739.964, 336.89 L 759.855, 345.389 L 756.058, 350.633 L 773.237, 357.866 L 776.854, 352.803 L 790.235, 358.409 L 777.034, 376.673 L 726.401, 355.515 z "/>
<path style="fill:rgb(0, 255, 0);fill-opacity:0;fill-rule:evenodd;stroke:rgb(255, 0, 117);stroke-width:1;" d="M 276.311, 544.123 L 292.948, 521.157 L 296.203, 522.604 L 298.011, 520.253 L 291.32, 517.36 L 300.181, 505.244 L 328.391, 517.179 L 320.072, 528.571 L 312.658, 525.497 L 310.669, 528.21 L 313.201, 529.295 L 296.383, 552.622 L 276.311, 544.123 z "/>
<path style="fill:rgb(0, 0, 255);fill-opacity:0;fill-rule:evenodd;stroke:rgb(255, 0, 117);stroke-width:1;" d="M 718.445, 110.488 L 728.933, 96.3834 L 785.353, 120.253 L 772.694, 137.251 L 760.94, 132.369 L 764.014, 128.391 L 758.77, 126.04 L 757.866, 127.125 L 718.445, 110.488 z "/>
<path style="fill:rgb(255, 255, 0);fill-opacity:0;fill-rule:evenodd;stroke:rgb(255, 0, 117);stroke-width:1;" d="M 775.949, 287.703 L 789.15, 269.439 L 839.602, 290.597 L 826.401, 308.861 L 812.839, 303.074 L 816.998, 297.288 L 801.447, 290.778 L 797.107, 296.564 L 795.841, 296.022 L 775.949, 287.703 z "/>
<path style="fill:rgb(255, 0, 0);fill-opacity:0;fill-rule:evenodd;stroke:rgb(255, 0, 117);stroke-width:1;" d="M 637.251, 170.705 L 644.304, 160.94 L 648.644, 162.749 L 650.995, 162.929 L 652.984, 160.036 L 650.814, 159.132 L 668.535, 134.901 L 692.586, 145.027 L 684.991, 155.515 L 677.577, 152.441 L 670.163, 162.749 L 668.897, 166.908 L 667.089, 169.439 L 667.631, 171.429 L 671.971, 173.237 L 665.099, 182.459 L 637.251, 170.705 z "/>
<path style="fill:rgb(0, 255, 0);fill-opacity:0;fill-rule:evenodd;stroke:rgb(255, 0, 117);stroke-width:1;" d="M 903.436, 112.658 L 916.094, 95.2984 L 938.156, 104.521 L 935.624, 107.957 L 964.557, 120.072 L 954.43, 134.177 L 903.436, 112.658 z "/>
<path style="fill:rgb(0, 0, 255);fill-opacity:0;fill-rule:evenodd;stroke:rgb(255, 0, 117);stroke-width:1;" d="M 537.613, 717.902 L 565.099, 679.566 L 585.895, 688.065 L 558.409, 726.401 L 537.613, 717.902 z "/>
<path style="fill:rgb(255, 255, 0);fill-opacity:0;fill-rule:evenodd;stroke:rgb(255, 0, 117);stroke-width:1;" d="M 986.799, 612.839 L 994.213, 602.712 L 1000.54, 605.425 L 1003.25, 605.244 L 1015.19, 588.788 L 1013.02, 587.342 L 1007.41, 584.81 L 1014.29, 575.407 L 1042.68, 587.523 L 1035.99, 596.745 L 1030.38, 594.394 L 1028.21, 594.213 L 1015.55, 611.754 L 1017.18, 613.382 L 1022.24, 615.552 L 1015.37, 624.955 L 986.799, 612.839 z "/>
<path style="fill:rgb(255, 0, 0);fill-opacity:0;fill-rule:evenodd;stroke:rgb(255, 0, 117);stroke-width:1;" d="M 991.139, 668.174 L 1001.81, 653.707 L 1053.16, 675.226 L 1040.87, 692.043 L 1027.49, 686.618 L 1030.02, 683.002 L 1028.57, 681.555 L 1026.76, 680.832 L 1025.32, 682.64 L 991.139, 668.174 z "/>
<path style="fill:rgb(0, 255, 0);fill-opacity:0;fill-rule:evenodd;stroke:rgb(255, 0, 117);stroke-width:1;" d="M 612.297, 512.116 L 624.774, 494.937 L 675.045, 516.275 L 664.738, 530.38 L 629.837, 515.732 L 627.667, 518.626 L 612.297, 512.116 z "/>
<path style="fill:rgb(0, 0, 255);fill-opacity:0;fill-rule:evenodd;stroke:rgb(255, 0, 117);stroke-width:1;" d="M 671.429, 185.172 L 681.917, 170.705 L 715.552, 184.991 L 714.828, 185.895 L 720.253, 188.246 L 723.146, 184.268 L 734.901, 189.15 L 722.061, 206.51 L 671.429, 185.172 z "/>
<path style="fill:rgb(255, 255, 0);fill-opacity:0;fill-rule:evenodd;stroke:rgb(255, 0, 117);stroke-width:1;" d="M 939.06, 739.783 L 949.367, 725.678 L 983.544, 740.145 L 982.278, 741.772 L 984.629, 742.857 L 986.618, 742.676 L 989.15, 739.06 L 1002.53, 744.665 L 990.235, 761.483 L 939.06, 739.783 z "/>
<path style="fill:rgb(255, 0, 0);fill-opacity:0;fill-rule:evenodd;stroke:rgb(255, 0, 117);stroke-width:1;" d="M 561.844, 581.193 L 574.684, 563.653 L 587.703, 569.259 L 584.629, 573.237 L 589.693, 575.407 L 590.235, 574.503 L 622.604, 588.246 L 612.297, 602.351 L 561.844, 581.193 z "/>
<path style="fill:rgb(0, 255, 0);fill-opacity:0;fill-rule:evenodd;stroke:rgb(255, 0, 117);stroke-width:1;" d="M 766.908, 54.792 L 777.215, 40.868 L 810.669, 55.1537 L 810.307, 55.6962 L 814.828, 57.6854 L 817.541, 54.0687 L 829.837, 59.3128 L 817.541, 76.1302 L 766.908, 54.792 z "/>
<path style="fill:rgb(0, 0, 255);fill-opacity:0;fill-rule:evenodd;stroke:rgb(255, 0, 117);stroke-width:1;" d="M 1007.59, 557.324 L 1025.32, 533.092 L 1021.34, 531.284 L 1030.74, 518.445 L 1055.33, 528.752 L 1043.4, 545.208 L 1038.7, 543.219 L 1023.51, 564.014 L 1007.59, 557.324 z "/>
<path style="fill:rgb(255, 255, 0);fill-opacity:0;fill-rule:evenodd;stroke:rgb(255, 0, 117);stroke-width:1;" d="M 586.98, 546.655 L 599.819, 529.295 L 624.955, 539.783 L 628.752, 541.41 L 626.221, 544.846 L 646.293, 553.345 L 638.336, 564.376 L 614.105, 554.25 L 611.935, 557.324 L 586.98, 546.655 z "/>
<path style="fill:rgb(255, 0, 0);fill-opacity:0;fill-rule:evenodd;stroke:rgb(255, 0, 117);stroke-width:1;" d="M 574.684, 563.653 L 586.98, 546.655 L 611.935, 557.324 L 615.913, 558.951 L 613.743, 561.844 L 633.996, 570.344 L 625.497, 581.917 L 601.808, 571.79 L 600, 574.322 L 587.703, 569.259 L 574.684, 563.653 z "/>
<path style="fill:rgb(0, 255, 0);fill-opacity:0;fill-rule:evenodd;stroke:rgb(255, 0, 117);stroke-width:1;" d="M 599.819, 529.295 L 612.297, 512.116 L 627.667, 518.626 L 641.591, 524.412 L 639.602, 527.306 L 659.313, 535.624 L 651.175, 546.835 L 627.125, 536.709 L 624.955, 539.783 L 599.819, 529.295 z "/>
<path style="fill:rgb(0, 0, 255);fill-opacity:0;fill-rule:evenodd;stroke:rgb(255, 0, 117);stroke-width:1;" d="M 935.443, 527.125 L 952.984, 503.074 L 949.186, 501.447 L 958.951, 488.246 L 982.459, 498.011 L 972.875, 511.392 L 969.259, 509.946 L 951.718, 533.996 L 935.443, 527.125 z "/>
<path style="fill:rgb(255, 255, 0);fill-opacity:0;fill-rule:evenodd;stroke:rgb(255, 0, 117);stroke-width:1;" d="M 779.024, 755.877 L 784.81, 747.92 L 789.873, 749.91 L 792.767, 748.825 L 795.298, 745.389 L 796.564, 744.665 L 802.712, 736.166 L 803.255, 734.72 L 805.425, 731.646 L 805.787, 729.476 L 799.819, 726.944 L 805.967, 718.626 L 831.646, 729.656 L 825.497, 737.975 L 821.7, 736.347 L 818.807, 737.251 L 819.892, 739.06 L 800.723, 765.099 L 779.024, 755.877 z "/>
<path style="fill:rgb(255, 0, 0);fill-opacity:0;fill-rule:evenodd;stroke:rgb(255, 0, 117);stroke-width:1;" d="M 431.284, 83.7251 L 442.857, 67.8119 L 446.293, 69.2586 L 462.206, 47.3779 L 477.758, 53.8879 L 461.664, 75.7685 L 465.642, 77.396 L 454.069, 93.3092 L 431.284, 83.7251 z "/>
<path style="fill:rgb(0, 255, 0);fill-opacity:0;fill-rule:evenodd;stroke:rgb(255, 0, 117);stroke-width:1;" d="M 959.675, 537.251 L 977.215, 513.201 L 972.875, 511.392 L 982.459, 498.011 L 1006.69, 508.318 L 1000.18, 517.179 L 995.298, 515.19 L 993.309, 517.902 L 994.213, 518.445 L 993.671, 519.349 L 994.213, 519.53 L 976.311, 544.304 L 959.675, 537.251 z "/>
<path style="fill:rgb(0, 0, 255);fill-opacity:0;fill-rule:evenodd;stroke:rgb(255, 0, 117);stroke-width:1;" d="M 941.23, 60.9403 L 953.888, 43.3996 L 975.949, 52.6221 L 973.779, 55.5154 L 1001.45, 67.2694 L 993.128, 78.481 L 965.642, 66.9078 L 963.11, 70.1627 L 941.23, 60.9403 z "/>
<path style="fill:rgb(255, 255, 0);fill-opacity:0;fill-rule:evenodd;stroke:rgb(255, 0, 117);stroke-width:1;" d="M 408.499, 74.141 L 420.072, 58.4087 L 423.689, 59.8553 L 439.783, 37.7939 L 454.792, 44.3038 L 438.879, 66.1844 L 442.857, 67.8119 L 431.284, 83.7251 L 408.499, 74.141 z "/>
<path style="fill:rgb(255, 0, 0);fill-opacity:0;fill-rule:evenodd;stroke:rgb(255, 0, 117);stroke-width:1;" d="M 983.544, 547.378 L 1001.99, 522.061 L 1004.7, 520.976 L 1003.25, 518.626 L 1000.18, 517.179 L 1006.69, 508.318 L 1030.74, 518.445 L 1021.34, 531.284 L 1017.72, 529.837 L 999.819, 554.25 L 983.544, 547.378 z "/>
<path style="fill:rgb(0, 255, 0);fill-opacity:0;fill-rule:evenodd;stroke:rgb(255, 0, 117);stroke-width:1;" d="M 454.069, 93.3092 L 465.642, 77.396 L 469.259, 79.0235 L 485.172, 57.1429 L 500.542, 63.472 L 482.098, 88.6076 L 486.438, 90.4159 L 477.034, 103.074 L 454.069, 93.3092 z "/>
<path style="fill:rgb(0, 0, 255);fill-opacity:0;fill-rule:evenodd;stroke:rgb(255, 0, 117);stroke-width:1;" d="M 916.094, 95.2984 L 928.752, 77.9385 L 950.814, 87.1609 L 948.463, 90.4159 L 975.588, 101.808 L 967.45, 113.02 L 940.325, 101.627 L 938.156, 104.521 L 916.094, 95.2984 z "/>
<path style="fill:rgb(255, 255, 0);fill-opacity:0;fill-rule:evenodd;stroke:rgb(255, 0, 117);stroke-width:1;" d="M 928.752, 77.9385 L 941.23, 60.9403 L 963.11, 70.1627 L 961.121, 72.8752 L 988.246, 84.2676 L 980.108, 95.66 L 952.984, 84.2676 L 950.814, 87.1609 L 928.752, 77.9385 z "/>
<path style="fill:rgb(255, 0, 0);fill-opacity:0;fill-rule:evenodd;stroke:rgb(255, 0, 117);stroke-width:1;" d="M 911.573, 516.998 L 929.114, 492.948 L 930.922, 493.671 L 933.996, 489.512 L 928.752, 487.342 L 935.443, 478.3 L 958.951, 488.246 L 949.186, 501.447 L 945.389, 499.819 L 927.848, 523.87 L 911.573, 516.998 z "/>
<path style="fill:rgb(0, 255, 0);fill-opacity:0;fill-rule:evenodd;stroke:rgb(255, 0, 117);stroke-width:1;" d="M 781.917, 526.763 L 789.693, 515.913 L 792.224, 512.477 L 795.479, 507.957 L 798.915, 503.255 L 801.447, 500 L 813.562, 483.725 L 829.295, 490.416 L 816.817, 506.691 L 814.467, 509.946 L 811.212, 514.286 L 807.414, 519.349 L 805.425, 522.242 L 800.362, 529.114 L 797.468, 533.273 L 781.917, 526.763 z "/>
<path style="fill:rgb(0, 0, 255);fill-opacity:0;fill-rule:evenodd;stroke:rgb(255, 0, 117);stroke-width:1;" d="M 532.55, 620.796 L 542.315, 607.233 L 596.383, 630.018 L 587.703, 641.953 L 548.101, 625.316 L 547.016, 626.944 L 532.55, 620.796 z "/>
<path style="fill:rgb(255, 255, 0);fill-opacity:0;fill-rule:evenodd;stroke:rgb(255, 0, 117);stroke-width:1;" d="M 978.843, 461.664 L 985.895, 451.899 L 989.873, 453.707 L 991.863, 452.803 L 992.043, 451.175 L 1010.31, 426.221 L 1026.04, 432.911 L 1007.78, 457.866 L 1005.79, 458.59 L 1006.33, 460.579 L 1010.13, 462.206 L 1003.07, 471.79 L 978.843, 461.664 z "/>
<path style="fill:rgb(255, 0, 0);fill-opacity:0;fill-rule:evenodd;stroke:rgb(255, 0, 117);stroke-width:1;" d="M 955.154, 451.537 L 962.206, 441.953 L 965.461, 443.4 L 968.354, 442.857 L 967.812, 440.868 L 986.076, 415.913 L 1001.99, 422.785 L 983.725, 447.74 L 981.555, 448.282 L 982.64, 450.633 L 985.895, 451.899 L 978.843, 461.664 L 955.154, 451.537 z "/>
<path style="fill:rgb(0, 255, 0);fill-opacity:0;fill-rule:evenodd;stroke:rgb(255, 0, 117);stroke-width:1;" d="M 840.325, 486.799 L 858.59, 461.844 L 860.759, 462.749 L 862.568, 460.217 L 861.302, 458.59 L 856.962, 456.781 L 863.472, 448.101 L 887.342, 458.047 L 880.651, 467.45 L 876.854, 465.823 L 856.6, 493.671 L 840.325, 486.799 z "/>
<path style="fill:rgb(0, 0, 255);fill-opacity:0;fill-rule:evenodd;stroke:rgb(255, 0, 117);stroke-width:1;" d="M 477.034, 103.074 L 486.438, 90.4159 L 489.873, 91.8626 L 508.137, 66.7269 L 523.689, 73.2369 L 504.521, 99.2767 L 502.532, 99.4575 L 503.436, 101.627 L 507.052, 103.074 L 500, 112.658 L 477.034, 103.074 z "/>
<path style="fill:rgb(255, 255, 0);fill-opacity:0;fill-rule:evenodd;stroke:rgb(255, 0, 117);stroke-width:1;" d="M 479.385, 693.852 L 488.969, 680.651 L 503.797, 686.98 L 502.351, 688.788 L 505.063, 689.873 L 505.606, 689.15 L 542.134, 704.702 L 533.454, 716.637 L 479.385, 693.852 z "/>
<path style="fill:rgb(255, 0, 0);fill-opacity:0;fill-rule:evenodd;stroke:rgb(255, 0, 117);stroke-width:1;" d="M 751.718, 320.615 L 763.834, 304.159 L 783.906, 312.477 L 781.917, 315.009 L 811.754, 327.667 L 803.797, 338.698 L 773.96, 326.04 L 771.79, 329.114 L 751.718, 320.615 z "/>
<path style="fill:rgb(0, 255, 0);fill-opacity:0;fill-rule:evenodd;stroke:rgb(255, 0, 117);stroke-width:1;" d="M 1003.07, 471.79 L 1010.13, 462.206 L 1013.56, 463.653 L 1015.55, 462.749 L 1015.19, 461.121 L 1033.45, 435.986 L 1049.37, 442.676 L 1030.92, 467.812 L 1029.29, 468.535 L 1030.02, 470.524 L 1033.27, 471.971 L 1026.22, 481.555 L 1003.07, 471.79 z "/>
<path style="fill:rgb(0, 0, 255);fill-opacity:0;fill-rule:evenodd;stroke:rgb(255, 0, 117);stroke-width:1;" d="M 763.834, 304.159 L 775.949, 287.703 L 795.841, 296.022 L 793.852, 298.734 L 823.689, 311.212 L 815.732, 322.242 L 785.895, 309.765 L 783.906, 312.477 L 763.834, 304.159 z "/>
<path style="fill:rgb(255, 255, 0);fill-opacity:0;fill-rule:evenodd;stroke:rgb(255, 0, 117);stroke-width:1;" d="M 864.557, 497.107 L 884.81, 469.259 L 880.651, 467.45 L 887.342, 458.047 L 911.573, 468.354 L 905.244, 477.034 L 901.085, 475.226 L 898.373, 475.407 L 896.745, 477.758 L 898.553, 478.662 L 880.289, 503.617 L 864.557, 497.107 z "/>
<path style="fill:rgb(255, 0, 0);fill-opacity:0;fill-rule:evenodd;stroke:rgb(255, 0, 117);stroke-width:1;" d="M 739.964, 336.89 L 751.718, 320.615 L 771.79, 329.114 L 769.982, 331.646 L 799.638, 344.123 L 791.682, 355.154 L 761.844, 342.676 L 759.855, 345.389 L 739.964, 336.89 z "/>
<path style="fill:rgb(0, 255, 0);fill-opacity:0;fill-rule:evenodd;stroke:rgb(255, 0, 117);stroke-width:1;" d="M 894.756, 574.141 L 902.351, 563.472 L 906.691, 565.28 L 908.68, 564.376 L 908.499, 563.291 L 926.582, 538.517 L 941.591, 544.846 L 923.689, 569.62 L 921.881, 569.801 L 921.519, 572.152 L 925.497, 573.779 L 918.083, 584.087 L 894.756, 574.141 z "/>
<path style="fill:rgb(0, 0, 255);fill-opacity:0;fill-rule:evenodd;stroke:rgb(255, 0, 117);stroke-width:1;" d="M 793.309, 467.089 L 811.573, 441.953 L 813.562, 442.857 L 815.371, 440.325 L 813.924, 438.156 L 810.488, 436.709 L 816.637, 428.391 L 840.145, 438.156 L 833.092, 447.74 L 829.295, 446.112 L 809.042, 473.779 L 793.309, 467.089 z "/>
<path style="fill:rgb(255, 255, 0);fill-opacity:0;fill-rule:evenodd;stroke:rgb(255, 0, 117);stroke-width:1;" d="M 980.832, 686.257 L 989.15, 674.684 L 1025.14, 689.693 L 1027.49, 686.618 L 1040.87, 692.043 L 1028.03, 709.765 L 1014.65, 704.159 L 1016.82, 701.266 L 980.832, 686.257 z "/>
<path style="fill:rgb(255, 0, 0);fill-opacity:0;fill-rule:evenodd;stroke:rgb(255, 0, 117);stroke-width:1;" d="M 816.817, 477.034 L 836.89, 449.367 L 833.092, 447.74 L 840.145, 438.156 L 863.472, 448.101 L 856.962, 456.781 L 853.526, 455.335 L 851.175, 455.335 L 849.186, 457.866 L 850.633, 458.409 L 832.369, 483.544 L 816.817, 477.034 z "/>
<path style="fill:rgb(0, 255, 0);fill-opacity:0;fill-rule:evenodd;stroke:rgb(255, 0, 117);stroke-width:1;" d="M 911.212, 369.801 L 929.295, 345.027 L 931.646, 343.58 L 931.465, 341.772 L 927.848, 340.145 L 934.72, 330.561 L 957.505, 340.325 L 950.633, 349.729 L 947.378, 348.282 L 945.027, 349.367 L 944.665, 351.537 L 926.582, 376.13 L 911.212, 369.801 z "/>
<path style="fill:rgb(0, 0, 255);fill-opacity:0;fill-rule:evenodd;stroke:rgb(255, 0, 117);stroke-width:1;" d="M 918.083, 584.087 L 925.497, 573.779 L 929.295, 575.407 L 931.103, 574.864 L 931.826, 574.141 L 931.284, 572.875 L 949.367, 548.101 L 964.557, 554.43 L 946.474, 579.204 L 944.846, 579.566 L 944.485, 581.736 L 948.282, 583.363 L 940.868, 593.49 L 918.083, 584.087 z "/>
<path style="fill:rgb(255, 255, 0);fill-opacity:0;fill-rule:evenodd;stroke:rgb(255, 0, 117);stroke-width:1;" d="M 963.472, 603.074 L 970.886, 592.948 L 975.407, 594.756 L 977.034, 594.213 L 977.577, 593.49 L 977.215, 592.224 L 995.298, 567.45 L 1010.31, 573.779 L 992.224, 598.553 L 990.416, 598.915 L 990.597, 601.266 L 994.213, 602.712 L 986.799, 612.839 L 963.472, 603.074 z "/>
<path style="fill:rgb(255, 0, 0);fill-opacity:0;fill-rule:evenodd;stroke:rgb(255, 0, 117);stroke-width:1;" d="M 865.461, 350.452 L 883.363, 325.859 L 886.076, 324.774 L 885.533, 322.423 L 882.278, 320.976 L 889.15, 311.392 L 911.935, 320.976 L 904.882, 330.561 L 901.266, 329.114 L 899.096, 330.199 L 898.734, 332.188 L 880.832, 356.962 L 865.461, 350.452 z "/>
<path style="fill:rgb(0, 255, 0);fill-opacity:0;fill-rule:evenodd;stroke:rgb(255, 0, 117);stroke-width:1;" d="M 1006.33, 155.877 L 1012.66, 147.197 L 1016.46, 148.825 L 1018.99, 147.016 L 1019.17, 145.389 L 1037.61, 120.253 L 1052.8, 126.582 L 1031.83, 155.335 L 1035.99, 157.143 L 1029.66, 165.823 L 1006.33, 155.877 z "/>
<path style="fill:rgb(0, 0, 255);fill-opacity:0;fill-rule:evenodd;stroke:rgb(255, 0, 117);stroke-width:1;" d="M 955.696, 720.615 L 963.834, 709.403 L 999.819, 724.593 L 1001.99, 721.519 L 1015.37, 727.125 L 1002.53, 744.665 L 989.15, 739.06 L 991.682, 735.805 L 955.696, 720.615 z "/>
<path style="fill:rgb(255, 255, 0);fill-opacity:0;fill-rule:evenodd;stroke:rgb(255, 0, 117);stroke-width:1;" d="M 983.725, 146.474 L 990.054, 137.794 L 993.49, 139.241 L 996.022, 137.613 L 995.841, 136.89 L 1015.37, 109.946 L 1030.38, 116.275 L 1008.86, 145.75 L 1012.66, 147.197 L 1006.33, 155.877 L 983.725, 146.474 z "/>
<path style="fill:rgb(255, 0, 0);fill-opacity:0;fill-rule:evenodd;stroke:rgb(255, 0, 117);stroke-width:1;" d="M 700.723, 148.101 L 709.222, 136.528 L 746.474, 152.26 L 748.463, 149.548 L 760.217, 154.43 L 747.559, 171.79 L 735.805, 166.908 L 737.975, 163.834 L 700.723, 148.101 z "/>
<path style="fill:rgb(0, 255, 0);fill-opacity:0;fill-rule:evenodd;stroke:rgb(255, 0, 117);stroke-width:1;" d="M 590.958, 151.175 L 598.011, 141.41 L 602.893, 143.4 L 604.34, 142.134 L 605.787, 140.325 L 604.702, 139.783 L 622.423, 115.371 L 637.432, 121.7 L 620.072, 145.57 L 618.626, 145.027 L 616.998, 147.197 L 617.36, 149.548 L 620.976, 150.995 L 613.924, 160.94 L 590.958, 151.175 z "/>
<path style="fill:rgb(0, 0, 255);fill-opacity:0;fill-rule:evenodd;stroke:rgb(255, 0, 117);stroke-width:1;" d="M 940.868, 593.49 L 948.282, 583.363 L 953.345, 585.533 L 954.611, 583.544 L 954.611, 582.459 L 972.514, 557.866 L 987.342, 564.195 L 969.439, 588.608 L 968.716, 588.427 L 967.269, 589.693 L 967.631, 591.501 L 970.886, 592.948 L 963.472, 603.074 L 940.868, 593.49 z "/>
<path style="fill:rgb(255, 255, 0);fill-opacity:0;fill-rule:evenodd;stroke:rgb(255, 0, 117);stroke-width:1;" d="M 613.924, 160.94 L 620.976, 150.995 L 625.136, 152.803 L 627.125, 151.718 L 628.571, 149.729 L 627.667, 149.367 L 645.389, 125.136 L 660.217, 131.284 L 642.495, 155.515 L 641.23, 155.154 L 639.964, 156.962 L 639.783, 158.951 L 644.304, 160.94 L 637.251, 170.705 L 613.924, 160.94 z "/>
<path style="fill:rgb(255, 0, 0);fill-opacity:0;fill-rule:evenodd;stroke:rgb(255, 0, 117);stroke-width:1;" d="M 232.731, 526.221 L 251.356, 500.542 L 247.378, 498.915 L 256.239, 486.799 L 277.939, 496.022 L 269.078, 507.957 L 265.823, 506.691 L 247.016, 532.369 L 232.731, 526.221 z "/>
<path style="fill:rgb(0, 255, 0);fill-opacity:0;fill-rule:evenodd;stroke:rgb(255, 0, 117);stroke-width:1;" d="M 688.065, 165.642 L 696.383, 154.25 L 733.454, 169.982 L 735.805, 166.908 L 747.559, 171.79 L 734.901, 189.15 L 723.146, 184.268 L 725.136, 181.374 L 688.065, 165.642 z "/>
<path style="fill:rgb(0, 0, 255);fill-opacity:0;fill-rule:evenodd;stroke:rgb(255, 0, 117);stroke-width:1;" d="M 960.759, 136.709 L 967.089, 128.029 L 970.705, 129.656 L 973.237, 128.029 L 972.875, 127.306 L 992.586, 100.362 L 1007.23, 106.51 L 987.342, 133.635 L 986.618, 133.454 L 986.257, 133.996 L 985.895, 135.986 L 990.054, 137.794 L 983.725, 146.474 L 960.759, 136.709 z "/>
<path style="fill:rgb(255, 255, 0);fill-opacity:0;fill-rule:evenodd;stroke:rgb(255, 0, 117);stroke-width:1;" d="M 872.514, 564.738 L 880.108, 554.25 L 883.906, 555.696 L 886.076, 554.792 L 885.714, 553.345 L 903.617, 528.933 L 918.264, 535.081 L 900.542, 559.494 L 898.915, 560.036 L 899.096, 562.206 L 902.351, 563.472 L 894.756, 574.141 L 872.514, 564.738 z "/>
<path style="fill:rgb(255, 0, 0);fill-opacity:0;fill-rule:evenodd;stroke:rgb(255, 0, 117);stroke-width:1;" d="M 968.174, 703.436 L 976.311, 692.405 L 1012.3, 707.414 L 1014.65, 704.159 L 1028.03, 709.765 L 1015.37, 727.125 L 1001.99, 721.519 L 1004.16, 718.626 L 968.174, 703.436 z "/>
<path style="fill:rgb(0, 255, 0);fill-opacity:0;fill-rule:evenodd;stroke:rgb(255, 0, 117);stroke-width:1;" d="M 99.8192, 63.472 L 101.989, 60.217 L 103.978, 57.5045 L 108.137, 52.2604 L 164.195, 75.9494 L 156.058, 87.1609 L 119.168, 71.6094 L 99.8192, 63.472 z "/>
<path style="fill:rgb(0, 0, 255);fill-opacity:0;fill-rule:evenodd;stroke:rgb(255, 0, 117);stroke-width:1;" d="M 168.535, 499.277 L 187.342, 473.599 L 183.363, 471.971 L 192.224, 459.855 L 214.286, 469.078 L 205.425, 481.193 L 201.447, 479.566 L 182.64, 505.244 L 168.535, 499.277 z "/>
<path style="fill:rgb(255, 255, 0);fill-opacity:0;fill-rule:evenodd;stroke:rgb(255, 0, 117);stroke-width:1;" d="M 254.069, 535.262 L 272.875, 509.584 L 269.078, 507.957 L 277.939, 496.022 L 300.181, 505.244 L 291.32, 517.36 L 286.799, 515.552 L 267.993, 541.23 L 254.069, 535.262 z "/>
<path style="fill:rgb(255, 0, 0);fill-opacity:0;fill-rule:evenodd;stroke:rgb(255, 0, 117);stroke-width:1;" d="M 933.996, 379.385 L 952.26, 354.43 L 954.611, 353.165 L 954.43, 351.356 L 950.633, 349.729 L 957.505, 340.325 L 980.47, 349.91 L 973.599, 359.313 L 969.982, 357.866 L 967.45, 358.77 L 966.908, 360.579 L 948.825, 385.533 L 933.996, 379.385 z "/>
<path style="fill:rgb(0, 255, 0);fill-opacity:0;fill-rule:evenodd;stroke:rgb(255, 0, 117);stroke-width:1;" d="M 272.333, 688.969 L 283.183, 673.96 L 278.843, 672.152 L 283.002, 666.365 L 287.523, 668.174 L 291.682, 662.387 L 287.161, 660.579 L 294.756, 650.271 L 317.179, 659.855 L 309.765, 669.982 L 305.606, 668.354 L 286.257, 694.937 L 272.333, 688.969 z "/>
<path style="fill:rgb(0, 0, 255);fill-opacity:0;fill-rule:evenodd;stroke:rgb(255, 0, 117);stroke-width:1;" d="M 888.788, 360.217 L 907.052, 335.262 L 908.861, 333.996 L 908.68, 332.188 L 904.882, 330.561 L 911.935, 320.976 L 934.72, 330.561 L 927.848, 340.145 L 924.774, 338.879 L 922.242, 339.602 L 921.519, 341.41 L 903.255, 366.365 L 888.788, 360.217 z "/>
<path style="fill:rgb(255, 255, 0);fill-opacity:0;fill-rule:evenodd;stroke:rgb(255, 0, 117);stroke-width:1;" d="M 125.497, 481.193 L 144.123, 455.515 L 140.506, 453.888 L 149.186, 441.772 L 170.705, 450.814 L 161.844, 462.929 L 158.228, 461.302 L 139.421, 487.161 L 125.497, 481.193 z "/>
<path style="fill:rgb(255, 0, 0);fill-opacity:0;fill-rule:evenodd;stroke:rgb(255, 0, 117);stroke-width:1;" d="M 147.016, 490.235 L 165.823, 464.557 L 161.844, 462.929 L 170.705, 450.814 L 192.224, 459.855 L 183.363, 471.971 L 179.747, 470.524 L 161.121, 496.203 L 147.016, 490.235 z "/>
<path style="fill:rgb(0, 255, 0);fill-opacity:0;fill-rule:evenodd;stroke:rgb(255, 0, 117);stroke-width:1;" d="M 847.559, 406.329 L 855.154, 396.022 L 858.77, 397.649 L 861.121, 396.203 L 861.121, 394.575 L 878.843, 370.163 L 893.309, 376.311 L 875.588, 400.542 L 873.599, 401.447 L 873.237, 403.617 L 876.854, 405.063 L 873.779, 409.222 L 869.259, 415.552 L 847.559, 406.329 z "/>
<path style="fill:rgb(0, 0, 255);fill-opacity:0;fill-rule:evenodd;stroke:rgb(255, 0, 117);stroke-width:1;" d="M 843.942, 341.41 L 863.291, 314.828 L 859.313, 313.201 L 867.269, 302.17 L 889.15, 311.392 L 882.278, 320.976 L 881.193, 322.423 L 877.577, 320.796 L 858.228, 347.378 L 843.942, 341.41 z "/>
<path style="fill:rgb(255, 255, 0);fill-opacity:0;fill-rule:evenodd;stroke:rgb(255, 0, 117);stroke-width:1;" d="M 804.521, 388.246 L 812.116, 377.939 L 816.275, 379.566 L 818.083, 377.758 L 818.264, 376.492 L 835.986, 352.08 L 850.633, 358.228 L 832.731, 382.64 L 830.561, 383.183 L 829.837, 385.895 L 833.092, 387.161 L 825.678, 397.288 L 804.521, 388.246 z "/>
<path style="fill:rgb(255, 0, 0);fill-opacity:0;fill-rule:evenodd;stroke:rgb(255, 0, 117);stroke-width:1;" d="M 615.552, 244.846 L 631.646, 222.604 L 627.667, 220.796 L 638.698, 205.606 L 660.398, 214.828 L 653.345, 224.593 L 650.09, 223.327 L 647.378, 222.966 L 648.101, 224.774 L 629.295, 250.633 L 615.552, 244.846 z "/>
<path style="fill:rgb(0, 255, 0);fill-opacity:0;fill-rule:evenodd;stroke:rgb(255, 0, 117);stroke-width:1;" d="M 104.159, 472.152 L 122.785, 446.474 L 119.349, 445.027 L 128.029, 432.911 L 149.186, 441.772 L 140.506, 453.888 L 136.709, 452.26 L 117.902, 478.119 L 104.159, 472.152 z "/>
<path style="fill:rgb(0, 0, 255);fill-opacity:0;fill-rule:evenodd;stroke:rgb(255, 0, 117);stroke-width:1;" d="M 250.271, 679.747 L 269.62, 653.165 L 265.642, 651.537 L 273.056, 641.23 L 294.756, 650.271 L 287.161, 660.579 L 283.363, 658.951 L 279.204, 664.738 L 283.002, 666.365 L 278.843, 672.152 L 274.864, 670.524 L 264.014, 685.533 L 250.271, 679.747 z "/>
<path style="fill:rgb(255, 255, 0);fill-opacity:0;fill-rule:evenodd;stroke:rgb(255, 0, 117);stroke-width:1;" d="M 190.054, 508.318 L 208.861, 482.64 L 205.425, 481.193 L 214.286, 469.078 L 235.262, 478.119 L 226.582, 490.054 L 222.604, 488.427 L 203.797, 514.286 L 190.054, 508.318 z "/>
<path style="fill:rgb(255, 0, 0);fill-opacity:0;fill-rule:evenodd;stroke:rgb(255, 0, 117);stroke-width:1;" d="M 594.213, 235.805 L 613.201, 209.946 L 615.19, 209.403 L 613.924, 207.957 L 610.127, 206.329 L 615.913, 198.553 L 617.36, 196.564 L 638.698, 205.606 L 627.667, 220.796 L 624.231, 219.53 L 608.137, 241.591 L 594.213, 235.805 z "/>
<path style="fill:rgb(0, 255, 0);fill-opacity:0;fill-rule:evenodd;stroke:rgb(255, 0, 117);stroke-width:1;" d="M 822.242, 332.369 L 841.591, 305.787 L 838.156, 304.34 L 846.112, 293.309 L 867.269, 302.17 L 859.313, 313.201 L 855.877, 311.754 L 836.528, 338.336 L 822.242, 332.369 z "/>
<path style="fill:rgb(0, 0, 255);fill-opacity:0;fill-rule:evenodd;stroke:rgb(255, 0, 117);stroke-width:1;" d="M 211.392, 517.36 L 230.199, 491.682 L 226.582, 490.054 L 235.262, 478.119 L 256.239, 486.799 L 247.378, 498.915 L 243.942, 497.468 L 225.136, 523.146 L 211.392, 517.36 z "/>
<path style="fill:rgb(255, 255, 0);fill-opacity:0;fill-rule:evenodd;stroke:rgb(255, 0, 117);stroke-width:1;" d="M 638.517, 258.409 L 652.441, 239.421 L 655.515, 240.687 L 661.483, 243.219 L 658.59, 247.016 L 659.855, 250.09 L 671.067, 254.792 L 672.875, 253.707 L 675.949, 249.367 L 687.342, 254.069 L 671.248, 276.13 L 660.217, 271.429 L 663.472, 267.269 L 661.664, 266.546 L 662.387, 265.461 L 660.398, 264.738 L 659.313, 266.184 L 658.047, 266.727 L 638.517, 258.409 z "/>
<path style="fill:rgb(255, 0, 0);fill-opacity:0;fill-rule:evenodd;stroke:rgb(255, 0, 117);stroke-width:1;" d="M 713.562, 130.741 L 721.519, 119.892 L 758.77, 135.624 L 760.94, 132.369 L 772.694, 137.251 L 760.217, 154.43 L 748.463, 149.548 L 750.814, 146.474 L 713.562, 130.741 z "/>
<path style="fill:rgb(0, 255, 0);fill-opacity:0;fill-rule:evenodd;stroke:rgb(255, 0, 117);stroke-width:1;" d="M 184.087, 651.899 L 203.436, 625.316 L 200, 623.87 L 207.414, 613.562 L 229.295, 622.785 L 221.881, 633.092 L 217.722, 631.284 L 198.373, 657.866 L 184.087, 651.899 z "/>
<path style="fill:rgb(0, 0, 255);fill-opacity:0;fill-rule:evenodd;stroke:rgb(255, 0, 117);stroke-width:1;" d="M 783.544, 379.566 L 791.139, 369.078 L 794.213, 370.344 L 796.564, 369.078 L 796.745, 367.812 L 814.647, 343.219 L 828.752, 349.186 L 810.85, 373.779 L 809.403, 374.503 L 808.68, 376.492 L 812.116, 377.939 L 804.521, 388.246 L 783.544, 379.566 z "/>
<path style="fill:rgb(255, 255, 0);fill-opacity:0;fill-rule:evenodd;stroke:rgb(255, 0, 117);stroke-width:1;" d="M 162.206, 642.676 L 181.555, 616.094 L 178.3, 614.647 L 185.714, 604.521 L 207.414, 613.562 L 200, 623.87 L 195.841, 622.242 L 176.492, 648.644 L 162.206, 642.676 z "/>
<path style="fill:rgb(255, 0, 0);fill-opacity:0;fill-rule:evenodd;stroke:rgb(255, 0, 117);stroke-width:1;" d="M 75.0452, 605.967 L 94.3942, 579.385 L 90.5967, 577.939 L 98.0108, 567.631 L 119.892, 576.854 L 112.477, 586.98 L 108.499, 585.353 L 89.1501, 611.935 L 75.0452, 605.967 z "/>
<path style="fill:rgb(0, 255, 0);fill-opacity:0;fill-rule:evenodd;stroke:rgb(255, 0, 117);stroke-width:1;" d="M 108.137, 52.2604 L 115.732, 41.5913 L 138.156, 50.9946 L 142.676, 52.9837 L 148.463, 55.3345 L 155.335, 58.4087 L 160.94, 60.7595 L 171.971, 65.2803 L 164.195, 75.9494 L 108.137, 52.2604 z "/>
<path style="fill:rgb(0, 0, 255);fill-opacity:0;fill-rule:evenodd;stroke:rgb(255, 0, 117);stroke-width:1;" d="M 140.868, 633.635 L 160.217, 607.233 L 156.239, 605.425 L 163.653, 595.298 L 185.714, 604.521 L 178.3, 614.647 L 174.141, 613.02 L 154.792, 639.602 L 140.868, 633.635 z "/>
<path style="fill:rgb(255, 255, 0);fill-opacity:0;fill-rule:evenodd;stroke:rgb(255, 0, 117);stroke-width:1;" d="M 53.3454, 596.926 L 72.6944, 570.344 L 68.1736, 568.535 L 75.5877, 558.228 L 98.0108, 567.631 L 90.5967, 577.939 L 86.4376, 576.13 L 67.0886, 602.712 L 53.3454, 596.926 z "/>
<path style="fill:rgb(255, 0, 0);fill-opacity:0;fill-rule:evenodd;stroke:rgb(255, 0, 117);stroke-width:1;" d="M 206.51, 661.302 L 225.859, 634.72 L 221.881, 633.092 L 229.295, 622.785 L 251.356, 632.188 L 243.942, 642.315 L 239.602, 640.506 L 220.253, 667.089 L 206.51, 661.302 z "/>
<path style="fill:rgb(0, 255, 0);fill-opacity:0;fill-rule:evenodd;stroke:rgb(255, 0, 117);stroke-width:1;" d="M 97.1067, 615.19 L 116.456, 588.788 L 112.477, 586.98 L 119.892, 576.854 L 141.591, 585.895 L 134.177, 596.203 L 130.38, 594.575 L 111.031, 621.157 L 97.1067, 615.19 z "/>
<path style="fill:rgb(0, 0, 255);fill-opacity:0;fill-rule:evenodd;stroke:rgb(255, 0, 117);stroke-width:1;" d="M 119.168, 624.593 L 138.517, 598.011 L 134.177, 596.203 L 141.591, 585.895 L 163.653, 595.298 L 156.239, 605.425 L 152.26, 603.797 L 132.911, 630.38 L 119.168, 624.593 z "/>
<path style="fill:rgb(255, 255, 0);fill-opacity:0;fill-rule:evenodd;stroke:rgb(255, 0, 117);stroke-width:1;" d="M 228.571, 670.524 L 247.92, 643.942 L 243.942, 642.315 L 251.356, 632.188 L 273.056, 641.23 L 265.642, 651.537 L 261.664, 649.91 L 242.315, 676.311 L 228.571, 670.524 z "/>
<path style="fill:rgb(255, 0, 0);fill-opacity:0;fill-rule:evenodd;stroke:rgb(255, 0, 117);stroke-width:1;" d="M 589.15, 93.4901 L 620.615, 50.6329 L 633.996, 56.2387 L 602.712, 99.0958 L 589.15, 93.4901 z "/>
<path style="fill:rgb(0, 255, 0);fill-opacity:0;fill-rule:evenodd;stroke:rgb(255, 0, 117);stroke-width:1;" d="M 890.597, 424.593 L 895.118, 418.264 L 898.192, 414.105 L 902.17, 415.732 L 921.7, 388.969 L 934.72, 394.394 L 915.19, 421.157 L 919.711, 423.146 L 912.116, 433.635 L 890.597, 424.593 z "/>
<path style="fill:rgb(0, 0, 255);fill-opacity:0;fill-rule:evenodd;stroke:rgb(255, 0, 117);stroke-width:1;" d="M 973.418, 255.515 L 982.64, 243.038 L 1028.21, 262.206 L 1019.71, 273.779 L 1018.99, 274.684 L 973.418, 255.515 z "/>
<path style="fill:rgb(255, 255, 0);fill-opacity:0;fill-rule:evenodd;stroke:rgb(255, 0, 117);stroke-width:1;" d="M 933.454, 442.495 L 941.23, 432.188 L 945.389, 433.996 L 964.919, 407.233 L 977.939, 412.658 L 958.409, 439.421 L 962.749, 441.23 L 962.206, 441.953 L 955.154, 451.537 L 933.454, 442.495 z "/>
<path style="fill:rgb(255, 0, 0);fill-opacity:0;fill-rule:evenodd;stroke:rgb(255, 0, 117);stroke-width:1;" d="M 912.116, 433.635 L 919.711, 423.146 L 924.231, 424.955 L 943.761, 398.192 L 956.781, 403.617 L 937.251, 430.38 L 941.23, 432.188 L 933.454, 442.495 L 912.116, 433.635 z "/>
<path style="fill:rgb(0, 255, 0);fill-opacity:0;fill-rule:evenodd;stroke:rgb(255, 0, 117);stroke-width:1;" d="M 315.19, 328.933 L 345.208, 288.608 L 359.132, 294.575 L 329.114, 334.901 L 315.19, 328.933 z "/>
<path style="fill:rgb(0, 0, 255);fill-opacity:0;fill-rule:evenodd;stroke:rgb(255, 0, 117);stroke-width:1;" d="M 64.557, 519.349 L 72.3327, 508.68 L 72.6944, 508.137 L 76.311, 509.584 L 78.481, 506.51 L 74.8644, 505.063 L 78.6618, 500 L 82.2785, 495.118 L 85.5335, 494.937 L 93.8517, 483.363 L 105.425, 488.246 L 97.1067, 499.638 L 98.5533, 501.989 L 91.1392, 511.935 L 87.7034, 510.488 L 85.5335, 513.382 L 88.9693, 515.009 L 80.8318, 526.221 L 64.557, 519.349 z "/>
<path style="fill:rgb(255, 255, 0);fill-opacity:0;fill-rule:evenodd;stroke:rgb(255, 0, 117);stroke-width:1;" d="M 748.282, 744.665 L 758.228, 731.103 L 756.962, 728.571 L 763.653, 719.349 L 767.089, 720.796 L 769.439, 717.722 L 766.004, 716.275 L 773.96, 705.244 L 790.416, 712.116 L 782.278, 723.146 L 778.843, 721.7 L 776.673, 724.593 L 780.108, 726.04 L 773.237, 735.443 L 769.259, 735.805 L 760.579, 747.74 L 752.08, 744.123 L 750.995, 745.75 L 748.282, 744.665 z "/>
<path style="fill:rgb(255, 0, 0);fill-opacity:0;fill-rule:evenodd;stroke:rgb(255, 0, 117);stroke-width:1;" d="M 239.964, 593.128 L 247.92, 582.278 L 251.356, 583.544 L 253.526, 580.651 L 250.09, 579.204 L 257.324, 569.439 L 260.94, 569.439 L 269.801, 557.324 L 280.651, 561.844 L 271.971, 573.96 L 273.418, 576.311 L 266.365, 586.076 L 263.472, 584.81 L 261.483, 587.884 L 264.195, 588.969 L 256.239, 600 L 239.964, 593.128 z "/>
<path style="fill:rgb(0, 255, 0);fill-opacity:0;fill-rule:evenodd;stroke:rgb(255, 0, 117);stroke-width:1;" d="M 256.239, 600 L 264.195, 588.969 L 267.45, 590.416 L 269.62, 587.342 L 266.365, 586.076 L 273.418, 576.311 L 277.034, 576.13 L 285.714, 564.014 L 296.564, 568.535 L 287.703, 580.651 L 289.693, 583.002 L 282.64, 592.767 L 279.747, 591.682 L 277.577, 594.575 L 280.289, 595.841 L 272.333, 606.872 L 256.239, 600 z "/>
<path style="fill:rgb(0, 0, 255);fill-opacity:0;fill-rule:evenodd;stroke:rgb(255, 0, 117);stroke-width:1;" d="M 80.8318, 526.221 L 88.9693, 515.009 L 91.6817, 516.094 L 92.9476, 514.467 L 91.3201, 513.743 L 92.4051, 512.477 L 91.1392, 511.935 L 98.5533, 501.989 L 101.808, 501.808 L 110.127, 490.235 L 120.976, 494.756 L 112.658, 506.329 L 114.467, 508.68 L 107.233, 518.626 L 103.978, 517.36 L 101.808, 520.253 L 104.882, 521.7 L 96.745, 532.911 L 80.8318, 526.221 z "/>
<path style="fill:rgb(255, 255, 0);fill-opacity:0;fill-rule:evenodd;stroke:rgb(255, 0, 117);stroke-width:1;" d="M 320.072, 626.944 L 328.21, 615.913 L 331.465, 617.179 L 333.816, 614.105 L 330.38, 612.658 L 337.432, 603.074 L 341.41, 602.712 L 349.729, 591.139 L 360.759, 595.66 L 352.26, 607.414 L 353.526, 609.946 L 346.655, 619.53 L 343.58, 618.264 L 341.41, 621.338 L 344.304, 622.604 L 336.166, 633.635 L 320.072, 626.944 z "/>
<path style="fill:rgb(255, 0, 0);fill-opacity:0;fill-rule:evenodd;stroke:rgb(255, 0, 117);stroke-width:1;" d="M 96.745, 532.911 L 104.882, 521.7 L 107.776, 522.785 L 109.946, 519.892 L 107.233, 518.626 L 114.467, 508.68 L 117.541, 508.318 L 125.859, 496.745 L 137.071, 501.447 L 128.752, 513.02 L 130.38, 515.19 L 122.966, 525.316 L 119.53, 523.87 L 117.36, 526.763 L 120.796, 528.391 L 112.477, 539.602 L 96.745, 532.911 z "/>
<path style="fill:rgb(0, 255, 0);fill-opacity:0;fill-rule:evenodd;stroke:rgb(255, 0, 117);stroke-width:1;" d="M 224.231, 586.618 L 226.221, 584.087 L 232.369, 575.588 L 235.081, 576.673 L 237.251, 573.779 L 234.539, 572.514 L 241.591, 562.929 L 244.846, 562.568 L 253.526, 550.452 L 264.738, 555.154 L 255.877, 567.269 L 257.324, 569.439 L 250.09, 579.204 L 247.559, 578.119 L 245.389, 581.013 L 247.92, 582.278 L 239.964, 593.128 L 224.231, 586.618 z "/>
<path style="fill:rgb(0, 0, 255);fill-opacity:0;fill-rule:evenodd;stroke:rgb(255, 0, 117);stroke-width:1;" d="M 506.51, 656.6 L 515.371, 644.485 L 530.199, 650.814 L 528.571, 652.984 L 532.369, 654.611 L 533.996, 652.441 L 534.177, 652.441 L 545.931, 657.505 L 547.197, 660.579 L 562.387, 666.908 L 556.42, 675.226 L 541.23, 668.716 L 537.975, 669.801 L 525.497, 664.557 L 525.136, 664.376 L 526.582, 662.387 L 522.966, 660.759 L 521.519, 662.749 L 506.51, 656.6 z "/>
<path style="fill:rgb(255, 255, 0);fill-opacity:0;fill-rule:evenodd;stroke:rgb(255, 0, 117);stroke-width:1;" d="M 360.94, 494.394 L 364.195, 490.054 L 365.823, 490.597 L 375.045, 477.939 L 373.418, 477.215 L 377.939, 471.067 L 379.385, 471.79 L 386.257, 462.568 L 400.723, 468.716 L 376.13, 502.351 L 361.664, 496.203 L 362.387, 495.118 L 360.94, 494.394 z "/>
<path style="fill:rgb(255, 0, 0);fill-opacity:0;fill-rule:evenodd;stroke:rgb(255, 0, 117);stroke-width:1;" d="M 654.25, 702.893 L 662.929, 691.139 L 661.844, 688.427 L 668.716, 679.204 L 671.609, 680.47 L 673.779, 677.577 L 670.886, 676.311 L 679.024, 665.099 L 694.937, 671.79 L 686.799, 683.002 L 683.544, 681.555 L 681.374, 684.448 L 684.629, 685.895 L 677.939, 695.118 L 673.779, 695.66 L 665.099, 707.414 L 654.25, 702.893 z "/>
<path style="fill:rgb(0, 255, 0);fill-opacity:0;fill-rule:evenodd;stroke:rgb(255, 0, 117);stroke-width:1;" d="M 717.541, 729.656 L 726.221, 717.722 L 725.136, 715.009 L 731.826, 705.787 L 735.081, 707.233 L 737.432, 703.978 L 734.177, 702.532 L 742.134, 691.863 L 758.047, 698.553 L 750.271, 709.222 L 747.016, 707.957 L 744.485, 711.392 L 747.74, 712.658 L 741.23, 721.7 L 737.432, 722.242 L 728.571, 734.177 L 717.541, 729.656 z "/>
<path style="fill:rgb(0, 0, 255);fill-opacity:0;fill-rule:evenodd;stroke:rgb(255, 0, 117);stroke-width:1;" d="M 488.969, 680.651 L 497.83, 668.535 L 512.839, 674.864 L 511.212, 676.854 L 515.19, 678.481 L 516.817, 676.492 L 529.114, 681.736 L 529.295, 684.81 L 544.665, 691.139 L 538.879, 699.096 L 523.327, 692.586 L 520.253, 693.671 L 507.776, 688.427 L 509.584, 686.076 L 505.606, 684.448 L 503.797, 686.98 L 488.969, 680.651 z "/>
<path style="fill:rgb(255, 255, 0);fill-opacity:0;fill-rule:evenodd;stroke:rgb(255, 0, 117);stroke-width:1;" d="M 497.83, 668.535 L 506.51, 656.6 L 521.519, 662.749 L 519.711, 665.28 L 523.689, 666.908 L 525.497, 664.557 L 537.975, 669.801 L 538.156, 672.514 L 553.707, 679.024 L 547.559, 687.161 L 532.188, 680.651 L 529.114, 681.736 L 516.817, 676.492 L 518.083, 674.503 L 514.286, 672.875 L 512.839, 674.864 L 497.83, 668.535 z "/>
<path style="fill:rgb(255, 0, 0);fill-opacity:0;fill-rule:evenodd;stroke:rgb(255, 0, 117);stroke-width:1;" d="M 686.076, 716.275 L 694.756, 704.521 L 693.671, 701.627 L 700.362, 692.586 L 703.436, 693.852 L 705.787, 690.778 L 702.532, 689.331 L 710.669, 678.481 L 726.401, 685.172 L 718.445, 696.203 L 715.19, 694.756 L 712.839, 697.83 L 716.275, 699.277 L 709.584, 708.499 L 705.244, 708.861 L 696.564, 720.615 L 686.076, 716.275 z "/>
<path style="fill:rgb(0, 255, 0);fill-opacity:0;fill-rule:evenodd;stroke:rgb(255, 0, 117);stroke-width:1;" d="M 304.521, 620.253 L 312.477, 609.222 L 315.732, 610.669 L 317.902, 607.414 L 314.828, 606.148 L 321.881, 596.564 L 325.859, 596.203 L 334.358, 584.629 L 345.027, 588.969 L 336.347, 600.723 L 337.432, 603.074 L 330.38, 612.658 L 327.486, 611.392 L 325.316, 614.647 L 328.21, 615.913 L 320.072, 626.944 L 304.521, 620.253 z "/>
<path style="fill:rgb(0, 0, 255);fill-opacity:0;fill-rule:evenodd;stroke:rgb(255, 0, 117);stroke-width:1;" d="M 765.461, 749.729 L 774.141, 737.975 L 773.237, 735.443 L 780.108, 726.04 L 783.002, 727.306 L 785.172, 724.412 L 782.278, 723.146 L 790.416, 712.116 L 805.967, 718.626 L 799.819, 726.944 L 798.011, 729.476 L 795.118, 728.391 L 792.767, 731.646 L 795.479, 732.911 L 788.608, 742.315 L 784.991, 742.495 L 776.311, 754.43 L 765.461, 749.729 z "/>
<path style="fill:rgb(255, 255, 0);fill-opacity:0;fill-rule:evenodd;stroke:rgb(255, 0, 117);stroke-width:1;" d="M 797.468, 533.273 L 800.362, 529.114 L 805.425, 522.242 L 808.499, 523.689 L 810.669, 520.615 L 807.414, 519.349 L 811.212, 514.286 L 813.743, 515.19 L 816.094, 511.935 L 814.467, 509.946 L 816.817, 506.691 L 819.892, 506.329 L 826.582, 497.288 L 837.613, 501.808 L 830.922, 511.031 L 832.188, 513.201 L 830.199, 516.094 L 826.944, 516.456 L 824.593, 519.892 L 826.763, 520.796 L 822.966, 525.859 L 820.072, 524.774 L 818.083, 527.667 L 820.796, 528.752 L 812.839, 539.783 L 797.468, 533.273 z "/>
<path style="fill:rgb(255, 0, 0);fill-opacity:0;fill-rule:evenodd;stroke:rgb(255, 0, 117);stroke-width:1;" d="M 515.371, 644.485 L 523.87, 632.731 L 538.156, 638.879 L 536.528, 641.049 L 541.23, 643.038 L 542.857, 640.868 L 554.611, 645.75 L 555.515, 648.463 L 571.067, 654.973 L 565.099, 663.291 L 549.367, 656.781 L 545.931, 657.505 L 534.177, 652.441 L 535.443, 650.633 L 531.465, 649.005 L 530.199, 650.814 L 515.371, 644.485 z "/>
<path style="fill:rgb(0, 255, 0);fill-opacity:0;fill-rule:evenodd;stroke:rgb(255, 0, 117);stroke-width:1;" d="M 750.814, 513.562 L 758.951, 502.532 L 761.844, 503.797 L 764.014, 500.723 L 761.121, 499.458 L 764.557, 494.575 L 767.089, 495.66 L 769.62, 492.405 L 767.993, 490.054 L 770.344, 486.98 L 773.96, 486.618 L 780.47, 477.577 L 790.958, 482.098 L 784.448, 491.139 L 785.895, 493.49 L 783.544, 496.745 L 780.289, 496.745 L 777.758, 500.181 L 780.108, 501.266 L 776.673, 506.148 L 773.599, 504.702 L 771.429, 507.776 L 774.684, 509.222 L 766.727, 520.253 L 750.814, 513.562 z "/>
<path style="fill:rgb(0, 0, 255);fill-opacity:0;fill-rule:evenodd;stroke:rgb(255, 0, 117);stroke-width:1;" d="M 812.839, 539.783 L 820.796, 528.752 L 824.051, 530.199 L 826.221, 527.306 L 822.966, 525.859 L 826.763, 520.796 L 828.933, 521.7 L 831.465, 518.264 L 830.199, 516.094 L 832.188, 513.201 L 835.443, 512.839 L 842.134, 503.797 L 852.984, 508.318 L 846.474, 517.541 L 847.74, 519.711 L 845.75, 522.604 L 842.495, 522.966 L 839.964, 526.221 L 842.315, 527.306 L 838.517, 532.369 L 835.443, 531.103 L 833.273, 533.996 L 836.347, 535.443 L 828.391, 546.293 L 812.839, 539.783 z "/>
<path style="fill:rgb(255, 255, 0);fill-opacity:0;fill-rule:evenodd;stroke:rgb(255, 0, 117);stroke-width:1;" d="M 733.996, 736.528 L 742.857, 724.412 L 741.23, 721.7 L 747.74, 712.658 L 751.175, 714.105 L 753.707, 710.669 L 750.271, 709.222 L 758.047, 698.553 L 773.96, 705.244 L 766.004, 716.275 L 762.929, 715.009 L 760.579, 718.083 L 763.653, 719.349 L 756.962, 728.571 L 752.984, 728.933 L 744.304, 740.868 L 733.996, 736.528 z "/>
<path style="fill:rgb(255, 0, 0);fill-opacity:0;fill-rule:evenodd;stroke:rgb(255, 0, 117);stroke-width:1;" d="M 873.779, 409.222 L 876.854, 405.063 L 890.416, 386.257 L 911.935, 395.298 L 898.192, 414.105 L 895.118, 418.264 L 873.779, 409.222 z "/>
<path style="fill:rgb(0, 255, 0);fill-opacity:0;fill-rule:evenodd;stroke:rgb(255, 0, 117);stroke-width:1;" d="M 670.163, 709.584 L 678.662, 697.649 L 677.939, 695.118 L 684.629, 685.895 L 687.523, 687.161 L 689.512, 684.087 L 686.799, 683.002 L 694.937, 671.79 L 710.669, 678.481 L 702.532, 689.331 L 699.096, 687.884 L 696.926, 691.139 L 700.362, 692.586 L 693.671, 701.627 L 689.15, 702.17 L 680.47, 713.924 L 670.163, 709.584 z "/>
<path style="fill:rgb(0, 0, 255);fill-opacity:0;fill-rule:evenodd;stroke:rgb(255, 0, 117);stroke-width:1;" d="M 702.17, 723.146 L 710.85, 711.212 L 709.584, 708.499 L 716.275, 699.277 L 718.987, 700.362 L 721.338, 697.288 L 718.445, 696.203 L 726.401, 685.172 L 742.134, 691.863 L 734.177, 702.532 L 730.922, 701.266 L 728.571, 704.34 L 731.826, 705.787 L 725.136, 715.009 L 721.338, 715.732 L 712.658, 727.486 L 702.17, 723.146 z "/>
<path style="fill:rgb(255, 255, 0);fill-opacity:0;fill-rule:evenodd;stroke:rgb(255, 0, 117);stroke-width:1;" d="M 523.87, 632.731 L 532.55, 620.796 L 547.016, 626.944 L 545.389, 628.933 L 550.09, 630.922 L 551.356, 629.114 L 563.11, 633.996 L 564.014, 636.709 L 579.747, 643.219 L 573.96, 651.175 L 558.228, 644.665 L 554.611, 645.75 L 542.857, 640.868 L 544.665, 638.336 L 539.964, 636.347 L 538.156, 638.879 L 523.87, 632.731 z "/>
<path style="fill:rgb(255, 0, 0);fill-opacity:0;fill-rule:evenodd;stroke:rgb(255, 0, 117);stroke-width:1;" d="M 828.391, 546.293 L 836.347, 535.443 L 839.241, 536.528 L 841.41, 533.635 L 838.517, 532.369 L 842.315, 527.306 L 844.485, 528.21 L 846.835, 524.774 L 845.75, 522.604 L 847.74, 519.711 L 851.356, 519.168 L 857.866, 510.307 L 868.354, 514.828 L 862.025, 523.689 L 862.568, 526.04 L 860.217, 529.295 L 857.685, 529.476 L 855.335, 532.911 L 857.866, 533.996 L 854.25, 539.06 L 850.633, 537.432 L 848.463, 540.506 L 852.08, 541.953 L 844.123, 552.803 L 828.391, 546.293 z "/>
<path style="fill:rgb(0, 255, 0);fill-opacity:0;fill-rule:evenodd;stroke:rgb(255, 0, 117);stroke-width:1;" d="M 766.727, 520.253 L 774.684, 509.222 L 777.396, 510.307 L 779.747, 507.414 L 776.673, 506.148 L 780.108, 501.266 L 782.459, 502.17 L 784.991, 498.734 L 783.544, 496.745 L 785.895, 493.49 L 789.693, 493.309 L 796.383, 484.268 L 806.329, 488.427 L 799.819, 497.649 L 801.447, 500 L 798.915, 503.255 L 795.66, 503.255 L 792.948, 506.872 L 795.479, 507.957 L 792.224, 512.477 L 789.693, 511.392 L 789.331, 511.935 L 787.161, 514.828 L 789.693, 515.913 L 781.917, 526.763 L 766.727, 520.253 z "/>
<path style="fill:rgb(0, 0, 255);fill-opacity:0;fill-rule:evenodd;stroke:rgb(255, 0, 117);stroke-width:1;" d="M 50.2712, 513.382 L 58.4087, 502.532 L 60.7595, 503.436 L 63.2911, 500.181 L 60.7595, 499.096 L 64.3761, 494.213 L 66.3653, 495.118 L 68.8969, 491.501 L 67.9928, 489.331 L 70.1627, 486.257 L 72.8752, 485.533 L 75.4069, 482.098 L 77.2152, 481.374 L 80.651, 476.673 L 89.3309, 480.47 L 85.8951, 485.172 L 85.8951, 486.438 L 83.3635, 489.873 L 84.4485, 492.224 L 82.2785, 495.118 L 79.0235, 495.479 L 76.4919, 499.096 L 78.6618, 500 L 74.8644, 505.063 L 71.7902, 503.797 L 69.0778, 507.414 L 72.3327, 508.68 L 64.557, 519.349 L 50.2712, 513.382 z "/>
<path style="fill:rgb(255, 255, 0);fill-opacity:0;fill-rule:evenodd;stroke:rgb(255, 0, 117);stroke-width:1;" d="M 54.792, 72.3327 L 61.302, 63.472 L 64.557, 62.7486 L 73.4177, 50.8137 L 72.8752, 48.6438 L 75.0452, 45.5696 L 77.9385, 44.6655 L 83.7251, 36.7089 L 94.7559, 41.4105 L 88.7884, 49.5479 L 89.5118, 51.3562 L 87.3418, 54.4304 L 84.2676, 55.3345 L 78.481, 63.2911 L 75.4069, 67.2694 L 76.1302, 69.8011 L 69.6203, 78.6618 L 54.792, 72.3327 z "/>
<path style="fill:rgb(255, 0, 0);fill-opacity:0;fill-rule:evenodd;stroke:rgb(255, 0, 117);stroke-width:1;" d="M 452.984, 752.984 L 464.919, 736.528 L 473.237, 740.145 L 475.045, 737.794 L 480.651, 740.145 L 479.024, 742.315 L 492.948, 748.282 L 484.268, 760.217 L 478.662, 757.866 L 475.407, 762.206 L 452.984, 752.984 z "/>
<path style="fill:rgb(0, 255, 0);fill-opacity:0;fill-rule:evenodd;stroke:rgb(255, 0, 117);stroke-width:1;" d="M 69.6203, 78.6618 L 76.1302, 69.8011 L 78.481, 69.2586 L 87.7034, 56.7812 L 87.3418, 54.4304 L 89.5118, 51.3562 L 92.0434, 50.8137 L 97.6492, 42.8571 L 108.499, 47.3779 L 102.712, 55.3345 L 103.978, 57.5045 L 101.989, 60.217 L 98.3725, 61.302 L 89.5118, 73.2369 L 89.8734, 75.7685 L 83.5443, 84.4485 L 69.6203, 78.6618 z "/>
<path style="fill:rgb(0, 0, 255);fill-opacity:0;fill-rule:evenodd;stroke:rgb(255, 0, 117);stroke-width:1;" d="M 554.25, 78.6618 L 568.535, 59.3128 L 590.778, 68.7161 L 576.492, 88.0651 L 554.25, 78.6618 z "/>
<path style="fill:rgb(255, 255, 0);fill-opacity:0;fill-rule:evenodd;stroke:rgb(255, 0, 117);stroke-width:1;" d="M 317.722, 274.503 L 326.04, 263.291 L 354.973, 275.588 L 352.26, 279.024 L 367.269, 285.353 L 362.025, 292.405 L 347.197, 286.076 L 346.474, 286.799 L 317.722, 274.503 z "/>
<path style="fill:rgb(255, 0, 0);fill-opacity:0;fill-rule:evenodd;stroke:rgb(255, 0, 117);stroke-width:1;" d="M 103.255, 93.1284 L 111.212, 82.2785 L 148.101, 97.83 L 140.145, 108.861 L 103.255, 93.1284 z "/>
<path style="fill:rgb(0, 255, 0);fill-opacity:0;fill-rule:evenodd;stroke:rgb(255, 0, 117);stroke-width:1;" d="M 111.212, 82.2785 L 119.168, 71.6094 L 156.058, 87.1609 L 148.101, 97.83 L 111.212, 82.2785 z "/>
<path style="fill:rgb(0, 0, 255);fill-opacity:0;fill-rule:evenodd;stroke:rgb(255, 0, 117);stroke-width:1;" d="M 655.877, 226.763 L 663.653, 216.275 L 702.893, 232.731 L 695.118, 243.4 L 682.278, 237.975 L 683.725, 235.986 L 681.917, 235.262 L 681.555, 235.624 L 670.344, 230.741 L 669.078, 232.369 L 663.834, 230.018 L 655.877, 226.763 z "/>
<path style="fill:rgb(255, 255, 0);fill-opacity:0;fill-rule:evenodd;stroke:rgb(255, 0, 117);stroke-width:1;" d="M 133.092, 47.3779 L 139.06, 39.0597 L 142.676, 40.5063 L 144.123, 42.4955 L 145.57, 40.5063 L 150.452, 42.4955 L 152.08, 45.3888 L 156.058, 44.8463 L 162.749, 47.7396 L 164.557, 50.4521 L 168.716, 50.2712 L 179.566, 54.792 L 171.971, 65.2803 L 160.94, 60.7595 L 159.494, 57.3237 L 155.335, 58.4087 L 148.463, 55.3345 L 146.835, 52.6221 L 142.676, 52.9837 L 138.156, 50.9946 L 139.783, 48.6438 L 136.709, 48.8246 L 133.092, 47.3779 z "/>
<path style="fill:rgb(255, 0, 0);fill-opacity:0;fill-rule:evenodd;stroke:rgb(255, 0, 117);stroke-width:1;" d="M 654.611, 237.251 L 659.132, 231.103 L 662.025, 232.369 L 663.834, 230.018 L 669.078, 232.369 L 677.396, 235.805 L 676.13, 237.613 L 681.013, 239.602 L 682.278, 237.975 L 695.118, 243.4 L 687.342, 254.069 L 675.949, 249.367 L 674.322, 248.644 L 675.769, 247.016 L 670.886, 244.846 L 669.439, 246.655 L 661.483, 243.219 L 655.515, 240.687 L 657.324, 238.336 L 654.611, 237.251 z "/>
<path style="fill:rgb(0, 255, 0);fill-opacity:0;fill-rule:evenodd;stroke:rgb(255, 0, 117);stroke-width:1;" d="M 357.685, 313.562 L 370.705, 296.022 L 387.703, 303.436 L 389.873, 304.34 L 376.854, 321.881 L 357.685, 313.562 z "/>
<path style="fill:rgb(0, 0, 255);fill-opacity:0;fill-rule:evenodd;stroke:rgb(255, 0, 117);stroke-width:1;" d="M 110.307, 761.121 L 114.828, 754.973 L 130.199, 733.816 L 141.049, 738.336 L 123.327, 762.568 L 118.083, 760.398 L 115.913, 763.472 L 110.307, 761.121 z "/>
<path style="fill:rgb(255, 255, 0);fill-opacity:0;fill-rule:evenodd;stroke:rgb(255, 0, 117);stroke-width:1;" d="M 80.8318, 668.897 L 97.2875, 646.474 L 98.915, 644.304 L 109.946, 649.005 L 108.318, 651.175 L 92.0434, 673.599 L 80.8318, 668.897 z "/>
<path style="fill:rgb(255, 0, 0);fill-opacity:0;fill-rule:evenodd;stroke:rgb(255, 0, 117);stroke-width:1;" d="M 154.43, 699.819 L 170.886, 677.396 L 183.002, 682.64 L 166.727, 705.063 L 154.43, 699.819 z "/>
<path style="fill:rgb(0, 255, 0);fill-opacity:0;fill-rule:evenodd;stroke:rgb(255, 0, 117);stroke-width:1;" d="M 137.613, 768.716 L 155.154, 744.123 L 166.184, 748.644 L 150.814, 770.344 L 148.644, 773.237 L 137.613, 768.716 z "/>
<path style="fill:rgb(0, 0, 255);fill-opacity:0;fill-rule:evenodd;stroke:rgb(255, 0, 117);stroke-width:1;" d="M 179.024, 711.573 L 195.479, 688.788 L 207.052, 693.49 L 190.416, 716.275 L 179.024, 711.573 z "/>
<path style="fill:rgb(255, 255, 0);fill-opacity:0;fill-rule:evenodd;stroke:rgb(255, 0, 117);stroke-width:1;" d="M 201.266, 720.796 L 217.722, 698.011 L 229.114, 702.712 L 212.658, 725.497 L 201.266, 720.796 z "/>
<path style="fill:rgb(255, 0, 0);fill-opacity:0;fill-rule:evenodd;stroke:rgb(255, 0, 117);stroke-width:1;" d="M 234.539, 734.72 L 250.995, 711.935 L 262.206, 716.637 L 245.75, 739.421 L 234.539, 734.72 z "/>
<path style="fill:rgb(0, 255, 0);fill-opacity:0;fill-rule:evenodd;stroke:rgb(255, 0, 117);stroke-width:1;" d="M 256.058, 743.761 L 272.514, 720.976 L 283.725, 725.497 L 267.089, 748.463 L 256.058, 743.761 z "/>
<path style="fill:rgb(0, 0, 255);fill-opacity:0;fill-rule:evenodd;stroke:rgb(255, 0, 117);stroke-width:1;" d="M 212.658, 725.497 L 229.114, 702.712 L 240.145, 707.414 L 223.689, 730.199 L 212.658, 725.497 z "/>
<path style="fill:rgb(255, 255, 0);fill-opacity:0;fill-rule:evenodd;stroke:rgb(255, 0, 117);stroke-width:1;" d="M 94.7559, 746.655 L 110.669, 724.955 L 111.212, 724.051 L 121.157, 728.391 L 100.362, 756.962 L 95.8409, 754.973 L 100.181, 748.825 L 94.7559, 746.655 z "/>
<path style="fill:rgb(255, 0, 0);fill-opacity:0;fill-rule:evenodd;stroke:rgb(255, 0, 117);stroke-width:1;" d="M 100.362, 756.962 L 121.157, 728.391 L 131.284, 732.55 L 130.199, 733.816 L 114.828, 754.973 L 109.042, 752.622 L 104.521, 758.77 L 100.362, 756.962 z "/>
<path style="fill:rgb(0, 255, 0);fill-opacity:0;fill-rule:evenodd;stroke:rgb(255, 0, 117);stroke-width:1;" d="M 223.689, 730.199 L 240.145, 707.414 L 250.995, 711.935 L 234.539, 734.72 L 223.689, 730.199 z "/>
<path style="fill:rgb(0, 0, 255);fill-opacity:0;fill-rule:evenodd;stroke:rgb(255, 0, 117);stroke-width:1;" d="M 190.416, 716.275 L 207.052, 693.49 L 217.722, 698.011 L 201.266, 720.796 L 190.416, 716.275 z "/>
<path style="fill:rgb(255, 255, 0);fill-opacity:0;fill-rule:evenodd;stroke:rgb(255, 0, 117);stroke-width:1;" d="M 156.058, 780.289 L 175.769, 752.622 L 185.714, 756.781 L 170.344, 778.481 L 165.099, 776.311 L 160.759, 782.278 L 156.058, 780.289 z "/>
<path style="fill:rgb(255, 0, 0);fill-opacity:0;fill-rule:evenodd;stroke:rgb(255, 0, 117);stroke-width:1;" d="M 170.344, 778.481 L 185.714, 756.781 L 195.479, 760.759 L 175.407, 788.969 L 175.226, 789.15 L 170.524, 786.98 L 175.226, 780.47 L 170.344, 778.481 z "/>
<path style="fill:rgb(0, 255, 0);fill-opacity:0;fill-rule:evenodd;stroke:rgb(255, 0, 117);stroke-width:1;" d="M 80.651, 748.644 L 100.723, 720.976 L 110.669, 724.955 L 94.7559, 746.655 L 89.5118, 744.304 L 85.1718, 750.452 L 80.8318, 748.644 L 80.651, 748.644 z "/>
<path style="fill:rgb(0, 0, 255);fill-opacity:0;fill-rule:evenodd;stroke:rgb(255, 0, 117);stroke-width:1;" d="M 143.942, 695.479 L 160.217, 673.056 L 170.886, 677.396 L 154.43, 699.819 L 143.942, 695.479 z "/>
<path style="fill:rgb(255, 255, 0);fill-opacity:0;fill-rule:evenodd;stroke:rgb(255, 0, 117);stroke-width:1;" d="M 122.966, 686.618 L 139.241, 664.195 L 149.91, 668.716 L 133.454, 690.958 L 122.966, 686.618 z "/>
<path style="fill:rgb(255, 0, 0);fill-opacity:0;fill-rule:evenodd;stroke:rgb(255, 0, 117);stroke-width:1;" d="M 150.814, 770.344 L 166.184, 748.644 L 175.769, 752.622 L 156.058, 780.289 L 150.995, 778.3 L 155.335, 772.333 L 150.814, 770.344 z "/>
<path style="fill:rgb(0, 255, 0);fill-opacity:0;fill-rule:evenodd;stroke:rgb(255, 0, 117);stroke-width:1;" d="M 60.3978, 660.217 L 76.6727, 637.794 L 87.1609, 642.315 L 70.8861, 664.557 L 60.3978, 660.217 z "/>
<path style="fill:rgb(0, 0, 255);fill-opacity:0;fill-rule:evenodd;stroke:rgb(255, 0, 117);stroke-width:1;" d="M 75.4069, 738.336 L 91.1392, 716.817 L 100.723, 720.976 L 80.651, 748.644 L 76.4919, 746.835 L 80.8318, 740.687 L 75.4069, 738.336 z "/>
<path style="fill:rgb(255, 255, 0);fill-opacity:0;fill-rule:evenodd;stroke:rgb(255, 0, 117);stroke-width:1;" d="M 245.75, 739.421 L 262.206, 716.637 L 272.514, 720.976 L 256.058, 743.761 L 245.75, 739.421 z "/>
<path style="fill:rgb(255, 0, 0);fill-opacity:0;fill-rule:evenodd;stroke:rgb(255, 0, 117);stroke-width:1;" d="M 102.351, 677.939 L 118.626, 655.515 L 129.114, 659.855 L 112.658, 682.278 L 102.351, 677.939 z "/>
<path style="fill:rgb(0, 255, 0);fill-opacity:0;fill-rule:evenodd;stroke:rgb(255, 0, 117);stroke-width:1;" d="M 133.454, 690.958 L 149.91, 668.716 L 160.217, 673.056 L 143.942, 695.479 L 133.454, 690.958 z "/>
<path style="fill:rgb(0, 0, 255);fill-opacity:0;fill-rule:evenodd;stroke:rgb(255, 0, 117);stroke-width:1;" d="M 49.9096, 655.877 L 66.3653, 633.454 L 76.6727, 637.794 L 60.3978, 660.217 L 49.9096, 655.877 z "/>
<path style="fill:rgb(255, 255, 0);fill-opacity:0;fill-rule:evenodd;stroke:rgb(255, 0, 117);stroke-width:1;" d="M 92.0434, 673.599 L 108.318, 651.175 L 118.626, 655.515 L 102.351, 677.939 L 92.0434, 673.599 z "/>
<path style="fill:rgb(255, 0, 0);fill-opacity:0;fill-rule:evenodd;stroke:rgb(255, 0, 117);stroke-width:1;" d="M 112.658, 682.278 L 129.114, 659.855 L 139.241, 664.195 L 122.966, 686.618 L 112.658, 682.278 z "/>
<path style="fill:rgb(0, 255, 0);fill-opacity:0;fill-rule:evenodd;stroke:rgb(255, 0, 117);stroke-width:1;" d="M 61.4828, 740.506 L 81.736, 712.839 L 91.1392, 716.817 L 75.4069, 738.336 L 69.9819, 736.166 L 65.4611, 742.134 L 61.4828, 740.506 z "/>
<path style="fill:rgb(0, 0, 255);fill-opacity:0;fill-rule:evenodd;stroke:rgb(255, 0, 117);stroke-width:1;" d="M 70.8861, 664.557 L 87.1609, 642.315 L 97.2875, 646.474 L 80.8318, 668.897 L 70.8861, 664.557 z "/>
<path style="fill:rgb(255, 255, 0);fill-opacity:0;fill-rule:evenodd;stroke:rgb(255, 0, 117);stroke-width:1;" d="M 56.7812, 738.517 L 61.302, 732.369 L 56.962, 730.561 L 72.6944, 709.042 L 81.736, 712.839 L 61.4828, 740.506 L 56.7812, 738.517 z "/>
<path style="fill:rgb(255, 0, 0);fill-opacity:0;fill-rule:evenodd;stroke:rgb(255, 0, 117);stroke-width:1;" d="M 368.354, 111.754 L 375.769, 101.808 L 388.969, 107.414 L 381.555, 117.541 L 368.354, 111.754 z "/>
<path style="fill:rgb(0, 255, 0);fill-opacity:0;fill-rule:evenodd;stroke:rgb(255, 0, 117);stroke-width:1;" d="M 312.839, 250.452 L 316.998, 234.177 L 326.944, 235.624 L 322.785, 251.899 L 312.839, 250.452 z "/>
<path style="fill:rgb(0, 0, 255);fill-opacity:0;fill-rule:evenodd;stroke:rgb(255, 0, 117);stroke-width:1;" d="M 171.429, 676.492 L 179.024, 666.184 L 189.512, 670.705 L 181.917, 681.013 L 171.429, 676.492 z "/>
<path style="fill:rgb(255, 255, 0);fill-opacity:0;fill-rule:evenodd;stroke:rgb(255, 0, 117);stroke-width:1;" d="M 219.53, 696.022 L 226.944, 685.895 L 236.166, 689.693 L 228.752, 699.819 L 219.53, 696.022 z "/>
<path style="fill:rgb(255, 0, 0);fill-opacity:0;fill-rule:evenodd;stroke:rgb(255, 0, 117);stroke-width:1;" d="M 57.6854, 626.401 L 58.2278, 625.497 L 63.8336, 617.902 L 74.6835, 622.423 L 68.3544, 630.922 L 57.6854, 626.401 z "/>
<path style="fill:rgb(0, 255, 0);fill-opacity:0;fill-rule:evenodd;stroke:rgb(255, 0, 117);stroke-width:1;" d="M 243.942, 704.521 L 250.271, 695.66 L 259.855, 699.638 L 252.26, 709.946 L 247.378, 707.957 L 248.463, 706.329 L 243.942, 704.521 z "/>
<path style="fill:rgb(0, 0, 255);fill-opacity:0;fill-rule:evenodd;stroke:rgb(255, 0, 117);stroke-width:1;" d="M 252.26, 709.946 L 259.855, 699.638 L 268.174, 703.074 L 260.579, 713.562 L 252.26, 709.946 z "/>
<path style="fill:rgb(255, 255, 0);fill-opacity:0;fill-rule:evenodd;stroke:rgb(255, 0, 117);stroke-width:1;" d="M 68.3544, 630.922 L 74.6835, 622.423 L 84.4485, 626.582 L 78.3002, 635.081 L 68.3544, 630.922 z "/>
<path style="fill:rgb(255, 0, 0);fill-opacity:0;fill-rule:evenodd;stroke:rgb(255, 0, 117);stroke-width:1;" d="M 200.181, 687.161 L 207.233, 677.577 L 215.913, 681.193 L 208.861, 690.778 L 200.181, 687.161 z "/>
<path style="fill:rgb(0, 255, 0);fill-opacity:0;fill-rule:evenodd;stroke:rgb(255, 0, 117);stroke-width:1;" d="M 88.9693, 639.602 L 95.2984, 630.922 L 104.702, 634.901 L 98.3725, 643.761 L 88.9693, 639.602 z "/>
<path style="fill:rgb(0, 0, 255);fill-opacity:0;fill-rule:evenodd;stroke:rgb(255, 0, 117);stroke-width:1;" d="M 212.116, 689.331 L 217.541, 681.917 L 226.944, 685.895 L 219.53, 696.022 L 215.009, 694.033 L 216.817, 691.32 L 212.116, 689.331 z "/>
<path style="fill:rgb(255, 255, 0);fill-opacity:0;fill-rule:evenodd;stroke:rgb(255, 0, 117);stroke-width:1;" d="M 82.2785, 781.013 L 88.2459, 772.875 L 98.1917, 777.215 L 92.2242, 785.353 L 86.6184, 783.002 L 82.2785, 781.013 z "/>
<path style="fill:rgb(255, 0, 0);fill-opacity:0;fill-rule:evenodd;stroke:rgb(255, 0, 117);stroke-width:1;" d="M 53.1646, 768.716 L 59.132, 760.579 L 69.0778, 764.919 L 63.1103, 773.056 L 58.4087, 771.067 L 53.1646, 768.716 z "/>
<path style="fill:rgb(0, 255, 0);fill-opacity:0;fill-rule:evenodd;stroke:rgb(255, 0, 117);stroke-width:1;" d="M 131.465, 656.6 L 137.251, 648.644 L 147.378, 652.803 L 141.41, 660.759 L 131.465, 656.6 z "/>
<path style="fill:rgb(0, 0, 255);fill-opacity:0;fill-rule:evenodd;stroke:rgb(255, 0, 117);stroke-width:1;" d="M 142.676, 662.206 L 149.186, 653.526 L 158.047, 657.324 L 151.718, 666.004 L 142.676, 662.206 z "/>
<path style="fill:rgb(255, 255, 0);fill-opacity:0;fill-rule:evenodd;stroke:rgb(255, 0, 117);stroke-width:1;" d="M 84.6293, 760.398 L 90.2351, 752.622 L 95.8409, 754.973 L 100.362, 756.962 L 94.7559, 764.557 L 94.7559, 764.557 L 84.6293, 760.398 z "/>
<path style="fill:rgb(255, 0, 0);fill-opacity:0;fill-rule:evenodd;stroke:rgb(255, 0, 117);stroke-width:1;" d="M 94.7559, 764.557 L 100.362, 756.962 L 104.521, 758.77 L 110.307, 761.121 L 104.702, 768.716 L 94.7559, 764.557 z "/>
<path style="fill:rgb(0, 255, 0);fill-opacity:0;fill-rule:evenodd;stroke:rgb(255, 0, 117);stroke-width:1;" d="M 75.0452, 756.42 L 80.8318, 748.644 L 85.1718, 750.452 L 90.2351, 752.622 L 84.6293, 760.398 L 75.0452, 756.42 z "/>
<path style="fill:rgb(0, 0, 255);fill-opacity:0;fill-rule:evenodd;stroke:rgb(255, 0, 117);stroke-width:1;" d="M 63.1103, 773.056 L 69.0778, 764.919 L 77.9385, 768.535 L 71.9711, 776.673 L 67.6311, 774.864 L 63.1103, 773.056 z "/>
<path style="fill:rgb(255, 255, 0);fill-opacity:0;fill-rule:evenodd;stroke:rgb(255, 0, 117);stroke-width:1;" d="M 122.423, 652.803 L 128.21, 644.665 L 137.251, 648.644 L 131.465, 656.6 L 122.423, 652.803 z "/>
<path style="fill:rgb(255, 0, 0);fill-opacity:0;fill-rule:evenodd;stroke:rgb(255, 0, 117);stroke-width:1;" d="M 112.116, 648.463 L 117.902, 640.325 L 126.944, 644.123 L 120.976, 652.26 L 112.116, 648.463 z "/>
<path style="fill:rgb(0, 255, 0);fill-opacity:0;fill-rule:evenodd;stroke:rgb(255, 0, 117);stroke-width:1;" d="M 55.5154, 748.463 L 60.9403, 740.687 L 69.9819, 744.304 L 64.557, 752.08 L 55.5154, 748.463 z "/>
<path style="fill:rgb(0, 0, 255);fill-opacity:0;fill-rule:evenodd;stroke:rgb(255, 0, 117);stroke-width:1;" d="M 236.166, 703.074 L 237.613, 701.085 L 237.071, 700.723 L 243.038, 692.586 L 249.005, 695.118 L 241.591, 705.244 L 236.166, 703.074 z "/>
<path style="fill:rgb(255, 255, 0);fill-opacity:0;fill-rule:evenodd;stroke:rgb(255, 0, 117);stroke-width:1;" d="M 75.5877, 778.3 L 81.5552, 770.163 L 88.2459, 772.875 L 82.2785, 781.013 L 77.9385, 779.204 L 75.5877, 778.3 z "/>
<path style="fill:rgb(255, 0, 0);fill-opacity:0;fill-rule:evenodd;stroke:rgb(255, 0, 117);stroke-width:1;" d="M 151.718, 666.004 L 158.047, 657.324 L 164.376, 659.855 L 157.866, 668.716 L 151.718, 666.004 z "/>
<path style="fill:rgb(0, 255, 0);fill-opacity:0;fill-rule:evenodd;stroke:rgb(255, 0, 117);stroke-width:1;" d="M 104.702, 768.716 L 110.307, 761.121 L 115.913, 763.472 L 110.488, 771.067 L 104.702, 768.716 z "/>
<path style="fill:rgb(0, 0, 255);fill-opacity:0;fill-rule:evenodd;stroke:rgb(255, 0, 117);stroke-width:1;" d="M 0, 416.456 L 16.2749, 394.213 L 117.179, 436.709 L 101.627, 458.047 L 100.904, 458.951 L 0, 416.456 z "/>
<path style="fill:rgb(255, 255, 0);fill-opacity:0;fill-rule:evenodd;stroke:rgb(255, 0, 117);stroke-width:1;" d="M 31.1031, 587.523 L 50.4521, 560.94 L 46.6546, 559.313 L 54.0687, 549.186 L 75.5877, 558.228 L 68.1736, 568.535 L 64.557, 566.908 L 45.208, 593.49 L 31.1031, 587.523 z "/>
<path style="fill:rgb(255, 0, 0);fill-opacity:0;fill-rule:evenodd;stroke:rgb(255, 0, 117);stroke-width:1;" d="M 35.6239, 507.233 L 43.5805, 496.203 L 46.4738, 497.468 L 49.0054, 494.213 L 46.1121, 492.948 L 49.7288, 487.884 L 51.8987, 488.788 L 54.2495, 485.533 L 53.1646, 483.183 L 55.5154, 480.108 L 58.9512, 479.566 L 61.4828, 476.13 L 62.9295, 475.045 L 66.1844, 470.705 L 75.0452, 474.322 L 71.7902, 478.843 L 71.6094, 480.47 L 69.0778, 483.906 L 70.1627, 486.257 L 67.9928, 489.331 L 64.557, 489.873 L 62.0253, 493.309 L 64.3761, 494.213 L 60.7595, 499.096 L 58.047, 498.011 L 55.6962, 501.266 L 58.4087, 502.532 L 50.2712, 513.382 L 35.6239, 507.233 z "/>
<path style="fill:rgb(0, 255, 0);fill-opacity:0;fill-rule:evenodd;stroke:rgb(255, 0, 117);stroke-width:1;" d="M 40.6872, 66.3653 L 48.6438, 55.5154 L 51.7179, 56.7812 L 53.1646, 55.1537 L 49.9096, 53.7071 L 56.7812, 44.123 L 59.6745, 43.7613 L 62.5678, 39.783 L 66.1844, 39.6022 L 67.8119, 37.4322 L 73.2369, 39.6022 L 71.6094, 41.953 L 73.2369, 44.3038 L 70.3436, 48.2821 L 70.8861, 50.2712 L 64.0145, 59.6745 L 60.9403, 58.4087 L 59.6745, 60.217 L 62.7486, 61.4828 L 61.302, 63.472 L 54.792, 72.3327 L 40.6872, 66.3653 z "/>
<path style="fill:rgb(0, 0, 255);fill-opacity:0;fill-rule:evenodd;stroke:rgb(255, 0, 117);stroke-width:1;" d="M 41.953, 732.369 L 62.2061, 704.702 L 72.6944, 709.042 L 56.962, 730.561 L 54.9729, 729.837 L 51.3562, 728.21 L 46.8354, 734.358 L 41.953, 732.369 z "/>
<path style="fill:rgb(255, 255, 0);fill-opacity:0;fill-rule:evenodd;stroke:rgb(255, 0, 117);stroke-width:1;" d="M 39.6022, 651.537 L 55.877, 629.114 L 66.3653, 633.454 L 49.9096, 655.877 L 39.6022, 651.537 z "/>
<path style="fill:rgb(255, 0, 0);fill-opacity:0;fill-rule:evenodd;stroke:rgb(255, 0, 117);stroke-width:1;" d="M 43.038, 764.557 L 48.2821, 757.324 L 49.0054, 756.42 L 59.132, 760.579 L 53.1646, 768.716 L 48.1013, 766.727 L 43.038, 764.557 z "/>
<path style="fill:rgb(0, 255, 0);fill-opacity:0;fill-rule:evenodd;stroke:rgb(255, 0, 117);stroke-width:1;" d="M 48.1013, 621.338 L 53.7071, 613.743 L 63.8336, 617.902 L 58.2278, 625.497 L 48.1013, 621.338 z "/>
<path style="fill:rgb(0, 0, 255);fill-opacity:0;fill-rule:evenodd;stroke:rgb(255, 0, 117);stroke-width:1;" d="M 469.439, 43.038 L 500.904, 0 L 562.749, 26.2206 L 531.284, 69.0778 L 469.439, 43.038 z "/>
<path style="fill:rgb(255, 255, 0);fill-opacity:0;fill-rule:evenodd;stroke:rgb(255, 0, 117);stroke-width:1;" d="M 953.888, 43.3996 L 966.365, 26.4014 L 1017.18, 47.9204 L 1007.23, 61.6637 L 978.119, 49.5479 L 975.949, 52.6221 L 953.888, 43.3996 z "/>
<path style="fill:rgb(255, 0, 0);fill-opacity:0;fill-rule:evenodd;stroke:rgb(255, 0, 117);stroke-width:1;" d="M 337.071, 43.9421 L 345.027, 33.2731 L 348.644, 34.7197 L 350.633, 34.5389 L 349.91, 33.2731 L 368.535, 7.77577 L 386.618, 15.3707 L 367.993, 40.6872 L 366.184, 40.868 L 366.727, 43.7613 L 369.801, 45.0271 L 362.749, 54.792 L 337.071, 43.9421 z "/>
<path style="fill:rgb(0, 255, 0);fill-opacity:0;fill-rule:evenodd;stroke:rgb(255, 0, 117);stroke-width:1;" d="M 385.353, 64.3761 L 392.405, 54.6112 L 396.022, 56.0579 L 398.011, 55.6962 L 397.649, 54.6112 L 416.998, 28.2098 L 432.188, 34.7197 L 416.094, 56.7812 L 420.072, 58.4087 L 408.499, 74.141 L 385.353, 64.3761 z "/>
<path style="fill:rgb(0, 0, 255);fill-opacity:0;fill-rule:evenodd;stroke:rgb(255, 0, 117);stroke-width:1;" d="M 362.749, 54.792 L 369.801, 45.0271 L 373.056, 46.2929 L 375.769, 46.2929 L 374.684, 44.6655 L 393.852, 18.4448 L 409.042, 24.9548 L 390.054, 50.9946 L 387.703, 51.1754 L 388.969, 53.1646 L 392.405, 54.6112 L 385.353, 64.3761 L 362.749, 54.792 z "/>
<path style="fill:rgb(255, 255, 0);fill-opacity:0;fill-rule:evenodd;stroke:rgb(255, 0, 117);stroke-width:1;" d="M 783.002, 35.6239 L 791.501, 24.0506 L 828.029, 39.6022 L 830.199, 36.7089 L 842.676, 41.7722 L 829.837, 59.3128 L 817.541, 54.0687 L 819.711, 50.9946 L 783.002, 35.6239 z "/>
<path style="fill:rgb(255, 0, 0);fill-opacity:0;fill-rule:evenodd;stroke:rgb(255, 0, 117);stroke-width:1;" d="M 124.955, 28.9331 L 131.465, 20.2532 L 141.049, 24.2315 L 140.145, 25.3165 L 151.537, 30.1989 L 152.441, 28.5714 L 159.132, 31.4647 L 160.217, 33.9964 L 171.067, 38.5172 L 173.599, 37.613 L 187.884, 43.5805 L 179.566, 54.792 L 168.716, 50.2712 L 165.28, 48.8246 L 164.919, 46.6546 L 154.25, 42.1338 L 150.814, 42.6763 L 150.452, 42.4955 L 145.57, 40.5063 L 144.304, 39.9638 L 145.389, 38.5172 L 133.996, 33.6347 L 133.273, 34.7197 L 126.944, 32.0072 L 128.21, 30.3797 L 124.955, 28.9331 z "/>
<path style="fill:rgb(0, 255, 0);fill-opacity:0;fill-rule:evenodd;stroke:rgb(255, 0, 117);stroke-width:1;" d="M 145.931, 23.689 L 152.803, 14.4665 L 195.841, 32.5497 L 187.884, 43.5805 L 173.599, 37.613 L 159.132, 31.4647 L 152.441, 28.5714 L 149.729, 27.4864 L 150.814, 25.859 L 145.931, 23.689 z "/>
</svg>