<?xml version="1.0" encoding="iso-8859-1" standalone="no"?>
<!DOCTYPE svg PUBLIC "-//W3C//DTD SVG 1.0//EN" "http://www.w3.org/TR/2001/REC-SVG-20010904/DTD/svg10.dtd">
<svg xmlns="http://www.w3.org/2000/svg" width="825" height="800">
<path style="fill:rgb(255, 0, 0);fill-opacity:0;fill-rule:evenodd;stroke:rgb(0, 198, 255);stroke-width:1;" d="M 293.026, 144.949 L 294.069, 144.775 L 312.492, 143.559 L 352.64, 140.604 L 368.977, 139.387 L 392.961, 137.649 L 407.908, 136.607 L 420.769, 135.738 L 422.507, 138.518 L 433.283, 155.551 L 456.224, 191.527 L 466.305, 207.343 L 350.033, 250.445 L 346.209, 251.662 L 342.212, 252.531 L 338.04, 252.879 L 334.043, 252.879 L 329.872, 252.357 L 326.048, 251.662 L 324.136, 250.967 L 320.313, 249.75 L 317.011, 248.012 L 315.446, 246.969 L 312.492, 244.71 L 309.885, 242.277 L 308.842, 241.06 L 307.799, 239.67 L 306.235, 236.715 L 305.192, 233.761 L 304.497, 230.632 L 293.026, 144.949 z "/>
<path style="fill:rgb(0, 255, 0);fill-opacity:0;fill-rule:evenodd;stroke:rgb(0, 198, 255);stroke-width:1;" d="M 179.361, 543.124 L 187.356, 530.089 L 193.787, 532.522 L 194.829, 534.086 L 200.565, 531.827 L 203.693, 530.437 L 208.733, 527.656 L 213.774, 524.527 L 218.64, 521.225 L 220.726, 519.313 L 224.897, 515.49 L 228.72, 511.493 L 230.458, 509.407 L 232.023, 507.321 L 234.977, 502.803 L 237.41, 498.284 L 238.453, 495.851 L 239.322, 493.417 L 240.713, 488.725 L 241.234, 486.292 L 241.929, 481.251 L 242.103, 476.385 L 242.103, 473.778 L 241.755, 471.345 L 241.06, 466.478 L 238.975, 459.874 L 230.806, 457.093 L 238.106, 444.58 L 244.362, 446.839 L 249.75, 437.801 L 262.09, 441.973 L 264.871, 437.106 L 311.449, 452.922 L 305.366, 463.176 L 300.326, 461.612 L 301.369, 466.652 L 276.863, 509.928 L 288.507, 528.003 L 306.409, 521.399 L 323.963, 548.686 L 332.305, 561.547 L 274.082, 583.098 L 256.007, 555.116 L 229.763, 564.849 L 226.287, 570.411 L 180.404, 553.9 L 185.618, 545.383 L 179.361, 543.124 z "/>
<path style="fill:rgb(0, 0, 255);fill-opacity:0;fill-rule:evenodd;stroke:rgb(0, 198, 255);stroke-width:1;" d="M 586.226, 656.615 L 686.509, 619.422 L 703.889, 646.361 L 713.795, 642.711 L 707.365, 632.805 L 712.231, 630.893 L 704.41, 618.553 L 733.435, 607.778 L 734.825, 607.604 L 736.389, 607.778 L 737.78, 608.299 L 738.301, 608.82 L 739.17, 609.863 L 750.815, 628.286 L 754.291, 626.896 L 754.986, 626.896 L 756.202, 627.069 L 756.898, 627.243 L 757.419, 627.591 L 758.114, 628.46 L 758.114, 628.981 L 758.114, 629.85 L 757.593, 630.719 L 757.071, 631.067 L 754.812, 631.936 L 757.767, 636.802 L 756.376, 637.323 L 774.278, 664.784 L 742.125, 676.776 L 724.397, 649.316 L 719.531, 651.054 L 716.576, 646.535 L 706.322, 650.358 L 736.911, 697.806 L 704.236, 709.972 L 663.741, 646.882 L 656.441, 649.489 L 660.786, 656.094 L 652.965, 659.048 L 654.703, 661.655 L 650.706, 663.046 L 648.968, 660.439 L 640.452, 663.741 L 636.281, 657.31 L 629.676, 659.744 L 669.65, 721.616 L 636.107, 734.13 L 586.226, 656.615 z "/>
<path style="fill:rgb(255, 255, 0);fill-opacity:0;fill-rule:evenodd;stroke:rgb(0, 198, 255);stroke-width:1;" d="M 102.368, 693.982 L 112.448, 670.345 L 132.088, 675.212 L 134.869, 675.212 L 151.727, 679.383 L 153.465, 675.212 L 155.725, 675.733 L 157.81, 670.867 L 141.821, 666.869 L 151.901, 643.233 L 167.195, 647.056 L 169.455, 641.842 L 167.195, 641.147 L 168.76, 637.671 L 152.249, 633.5 L 150.684, 632.457 L 131.045, 627.591 L 140.952, 604.823 L 162.329, 610.037 L 159.027, 617.684 L 167.369, 619.77 L 165.284, 624.636 L 170.671, 626.027 L 172.409, 621.682 L 176.233, 619.944 L 178.492, 614.556 L 183.185, 615.599 L 182.663, 616.641 L 198.479, 620.465 L 197.089, 623.941 L 213.078, 627.938 L 204.388, 648.273 L 185.966, 643.754 L 184.401, 647.578 L 181.621, 646.882 L 179.883, 651.054 L 200.912, 656.268 L 191.875, 677.297 L 171.193, 672.257 L 167.891, 680.078 L 188.573, 685.118 L 178.492, 708.408 L 154.682, 702.498 L 152.944, 706.496 L 137.823, 702.672 L 143.559, 689.29 L 137.649, 687.899 L 135.738, 692.418 L 128.438, 690.506 L 124.614, 699.37 L 102.368, 693.982 z "/>
<path style="fill:rgb(255, 0, 0);fill-opacity:0;fill-rule:evenodd;stroke:rgb(0, 198, 255);stroke-width:1;" d="M 528.699, 423.202 L 547.643, 416.25 L 550.945, 421.464 L 581.012, 410.341 L 577.536, 405.127 L 582.75, 403.215 L 596.481, 398.175 L 619.248, 433.804 L 600.652, 440.756 L 598.392, 440.061 L 595.959, 436.237 L 596.828, 435.021 L 589.876, 424.245 L 584.315, 426.157 L 585.531, 428.069 L 562.242, 436.759 L 573.887, 455.008 L 575.277, 454.486 L 579.448, 460.917 L 578.058, 461.438 L 590.05, 480.382 L 612.992, 471.866 L 614.208, 473.604 L 619.944, 471.519 L 612.818, 460.395 L 610.732, 460.048 L 608.473, 456.398 L 609.342, 454.486 L 628.112, 447.534 L 651.227, 483.685 L 632.457, 490.637 L 628.633, 484.901 L 598.74, 496.024 L 602.39, 501.76 L 583.446, 508.712 L 528.699, 423.202 z "/>
<path style="fill:rgb(0, 255, 0);fill-opacity:0;fill-rule:evenodd;stroke:rgb(0, 198, 255);stroke-width:1;" d="M 570.237, 288.334 L 584.662, 283.12 L 586.226, 285.379 L 620.291, 272.866 L 678.514, 363.763 L 644.275, 376.45 L 645.84, 379.057 L 644.449, 379.752 L 631.588, 384.445 L 607.256, 346.209 L 624.289, 339.952 L 638.019, 361.503 L 652.27, 356.289 L 612.296, 293.721 L 598.045, 299.109 L 611.949, 320.66 L 594.916, 326.917 L 570.237, 288.334 z "/>
<path style="fill:rgb(0, 0, 255);fill-opacity:0;fill-rule:evenodd;stroke:rgb(0, 198, 255);stroke-width:1;" d="M 716.75, 168.586 L 795.655, 139.909 L 821.899, 181.621 L 743.167, 210.298 L 716.75, 168.586 z "/>
<path style="fill:rgb(255, 255, 0);fill-opacity:0;fill-rule:evenodd;stroke:rgb(0, 198, 255);stroke-width:1;" d="M 297.545, 615.599 L 352.987, 594.916 L 353.682, 595.959 L 368.282, 618.727 L 356.463, 623.072 L 366.544, 638.714 L 378.883, 634.021 L 393.656, 656.963 L 337.693, 677.819 L 322.746, 654.703 L 333.869, 650.532 L 323.963, 635.238 L 312.839, 639.409 L 297.545, 615.599 z "/>
<path style="fill:rgb(255, 0, 0);fill-opacity:0;fill-rule:evenodd;stroke:rgb(0, 198, 255);stroke-width:1;" d="M 574.756, 220.378 L 648.099, 193.439 L 679.557, 242.277 L 660.439, 249.403 L 644.971, 225.418 L 640.799, 226.982 L 642.364, 229.416 L 640.452, 230.111 L 641.321, 231.501 L 639.061, 232.37 L 651.054, 250.967 L 636.976, 256.181 L 624.984, 237.41 L 616.468, 240.539 L 617.858, 242.798 L 619.075, 243.493 L 629.155, 259.309 L 609.863, 266.435 L 589.702, 234.803 L 588.66, 235.151 L 586.922, 232.544 L 583.446, 233.934 L 582.75, 232.718 L 574.756, 220.378 z "/>
<path style="fill:rgb(0, 255, 0);fill-opacity:0;fill-rule:evenodd;stroke:rgb(0, 198, 255);stroke-width:1;" d="M 405.822, 283.467 L 430.328, 274.43 L 436.759, 284.336 L 434.325, 285.205 L 438.844, 292.157 L 454.486, 286.422 L 450.489, 280.165 L 446.665, 281.556 L 439.887, 270.954 L 467, 260.873 L 473.43, 270.954 L 469.781, 272.344 L 474.126, 278.775 L 489.768, 273.039 L 485.77, 266.609 L 483.685, 267.304 L 477.08, 257.05 L 500.196, 248.534 L 502.455, 252.01 L 527.134, 290.245 L 505.931, 298.066 L 498.631, 286.769 L 501.76, 285.553 L 498.631, 280.687 L 487.682, 284.684 L 497.762, 300.5 L 483.511, 305.714 L 474.995, 292.331 L 467.521, 294.938 L 476.037, 308.321 L 461.612, 313.708 L 452.053, 298.588 L 441.451, 302.411 L 445.449, 308.668 L 448.751, 307.278 L 454.486, 316.142 L 436.063, 323.094 L 416.598, 292.679 L 412.6, 294.069 L 405.822, 283.467 z "/>
<path style="fill:rgb(0, 0, 255);fill-opacity:0;fill-rule:evenodd;stroke:rgb(0, 198, 255);stroke-width:1;" d="M 656.615, 779.318 L 699.718, 712.405 L 710.841, 716.402 L 714.143, 711.362 L 714.491, 711.536 L 739.518, 720.747 L 688.594, 800 L 663.22, 790.615 L 667.912, 783.489 L 656.615, 779.318 z "/>
<path style="fill:rgb(255, 255, 0);fill-opacity:0;fill-rule:evenodd;stroke:rgb(0, 198, 255);stroke-width:1;" d="M 288.334, 98.3706 L 299.804, 96.6326 L 320.66, 98.892 L 322.398, 112.101 L 313.882, 112.796 L 315.273, 123.919 L 337.867, 122.355 L 336.476, 111.406 L 333.174, 111.579 L 331.784, 100.978 L 364.284, 103.932 L 365.501, 113.144 L 359.418, 113.491 L 360.287, 121.312 L 379.752, 119.922 L 378.883, 112.101 L 374.191, 112.448 L 373.148, 104.975 L 395.221, 107.234 L 396.263, 116.272 L 400.261, 115.924 L 405.996, 125.31 L 408.255, 128.438 L 408.429, 129.307 L 407.039, 129.307 L 407.908, 136.607 L 392.961, 137.649 L 392.092, 131.566 L 368.282, 133.304 L 368.977, 139.387 L 352.64, 140.604 L 351.944, 134.347 L 346.904, 134.695 L 347.078, 135.564 L 319.618, 137.476 L 319.444, 136.607 L 311.623, 137.128 L 312.492, 143.559 L 294.069, 144.775 L 288.334, 98.3706 z "/>
<path style="fill:rgb(255, 0, 0);fill-opacity:0;fill-rule:evenodd;stroke:rgb(0, 198, 255);stroke-width:1;" d="M 599.957, 510.276 L 628.286, 499.848 L 627.243, 498.284 L 654.356, 488.377 L 670.693, 513.752 L 658.179, 518.271 L 655.92, 514.621 L 639.061, 520.704 L 648.968, 536.346 L 649.489, 537.041 L 666.174, 530.784 L 664.089, 527.482 L 676.428, 522.789 L 692.418, 547.643 L 636.976, 568.151 L 634.021, 563.632 L 629.676, 556.854 L 636.976, 554.247 L 629.502, 542.603 L 622.203, 545.383 L 615.946, 535.651 L 615.425, 534.782 L 623.246, 531.827 L 614.903, 518.792 L 607.256, 521.573 L 599.957, 510.276 z "/>
<path style="fill:rgb(0, 255, 0);fill-opacity:0;fill-rule:evenodd;stroke:rgb(0, 198, 255);stroke-width:1;" d="M 677.993, 334.738 L 694.851, 328.481 L 698.501, 334.217 L 710.841, 329.698 L 712.753, 329.003 L 709.103, 323.267 L 727.004, 316.663 L 744.21, 343.428 L 729.959, 348.642 L 727.526, 344.992 L 711.536, 350.902 L 716.924, 359.244 L 718.662, 358.723 L 723.007, 365.327 L 721.269, 366.022 L 726.483, 374.017 L 742.82, 368.108 L 740.908, 365.153 L 754.812, 359.939 L 771.497, 386.009 L 770.28, 386.531 L 754.638, 392.266 L 753.422, 392.614 L 749.946, 387.226 L 736.042, 392.266 L 739.518, 397.654 L 722.312, 404.084 L 701.282, 371.062 L 702.846, 370.541 L 701.629, 368.629 L 700.065, 369.151 L 677.993, 334.738 z "/>
<path style="fill:rgb(0, 0, 255);fill-opacity:0;fill-rule:evenodd;stroke:rgb(0, 198, 255);stroke-width:1;" d="M 633.326, 265.045 L 649.837, 258.962 L 653.139, 264.176 L 667.738, 258.788 L 664.61, 254.095 L 682.859, 247.491 L 699.37, 273.561 L 685.987, 278.427 L 683.554, 274.777 L 666.869, 280.86 L 672.431, 289.376 L 674.343, 288.681 L 678.514, 295.112 L 676.428, 295.807 L 681.99, 304.323 L 697.98, 298.414 L 696.415, 295.981 L 710.493, 290.593 L 727.004, 316.663 L 709.103, 323.267 L 705.627, 317.706 L 691.375, 322.92 L 694.851, 328.481 L 677.993, 334.738 L 633.326, 265.045 z "/>
<path style="fill:rgb(255, 255, 0);fill-opacity:0;fill-rule:evenodd;stroke:rgb(0, 198, 255);stroke-width:1;" d="M 668.086, 86.8998 L 688.768, 79.2527 L 695.373, 89.333 L 697.806, 90.202 L 697.632, 90.202 L 699.37, 92.9828 L 703.541, 91.5924 L 701.282, 88.1164 L 703.194, 87.4212 L 696.068, 76.4719 L 716.576, 68.8247 L 723.876, 80.1217 L 724.571, 79.9479 L 726.657, 83.0763 L 730.828, 81.5121 L 729.437, 79.6003 L 731.175, 77.3409 L 723.181, 64.8273 L 742.125, 57.7015 L 766.63, 95.7636 L 688.073, 124.962 L 681.121, 114.186 L 684.945, 112.796 L 668.086, 86.8998 z "/>
<path style="fill:rgb(255, 0, 0);fill-opacity:0;fill-rule:evenodd;stroke:rgb(0, 198, 255);stroke-width:1;" d="M 472.735, 496.72 L 476.037, 495.503 L 486.813, 491.506 L 489.246, 495.329 L 504.193, 489.941 L 503.672, 489.072 L 523.311, 481.773 L 560.678, 539.822 L 537.389, 548.512 L 536.346, 547.121 L 527.482, 550.424 L 530.089, 554.595 L 513.752, 560.678 L 496.893, 534.26 L 513.404, 528.177 L 518.097, 535.477 L 531.306, 530.61 L 515.49, 505.931 L 502.455, 510.797 L 507.669, 518.966 L 490.81, 525.049 L 472.735, 496.72 z "/>
<path style="fill:rgb(0, 255, 0);fill-opacity:0;fill-rule:evenodd;stroke:rgb(0, 198, 255);stroke-width:1;" d="M 737.258, 265.74 L 754.464, 259.483 L 757.94, 264.697 L 766.457, 261.569 L 765.24, 259.657 L 787.834, 251.314 L 825.027, 309.363 L 805.388, 316.663 L 805.04, 316.142 L 790.093, 321.529 L 792.353, 325.179 L 788.877, 326.396 L 778.796, 330.219 L 760.895, 302.411 L 777.058, 296.328 L 782.099, 304.323 L 795.481, 299.457 L 779.492, 274.604 L 766.283, 279.47 L 771.149, 286.943 L 754.812, 293.026 L 737.258, 265.74 z "/>
<path style="fill:rgb(0, 0, 255);fill-opacity:0;fill-rule:evenodd;stroke:rgb(0, 198, 255);stroke-width:1;" d="M 470.302, 317.358 L 486.639, 311.275 L 490.289, 316.837 L 514.968, 307.799 L 511.319, 302.064 L 527.482, 296.155 L 540.517, 316.315 L 498.11, 331.957 L 510.624, 351.423 L 553.031, 335.781 L 566.066, 356.116 L 555.464, 360.113 L 549.902, 362.199 L 546.252, 356.637 L 522.268, 365.675 L 525.57, 371.062 L 508.364, 377.319 L 497.589, 360.634 L 496.024, 361.156 L 478.992, 334.564 L 480.904, 333.869 L 470.302, 317.358 z "/>
<path style="fill:rgb(255, 255, 0);fill-opacity:0;fill-rule:evenodd;stroke:rgb(0, 198, 255);stroke-width:1;" d="M 422.855, 594.569 L 431.023, 591.44 L 478.818, 573.713 L 506.279, 616.294 L 450.489, 637.15 L 449.62, 636.107 L 431.371, 607.604 L 422.855, 594.569 z "/>
<path style="fill:rgb(255, 0, 0);fill-opacity:0;fill-rule:evenodd;stroke:rgb(0, 198, 255);stroke-width:1;" d="M 631.588, 384.445 L 644.449, 379.752 L 646.535, 383.055 L 665.479, 376.103 L 722.312, 465.088 L 703.889, 471.866 L 705.279, 473.952 L 692.07, 478.818 L 677.297, 455.529 L 688.942, 451.184 L 658.527, 403.737 L 646.882, 408.082 L 631.588, 384.445 z "/>
<path style="fill:rgb(0, 255, 0);fill-opacity:0;fill-rule:evenodd;stroke:rgb(0, 198, 255);stroke-width:1;" d="M 319.096, 491.158 L 329.35, 472.735 L 346.383, 466.478 L 348.816, 470.302 L 355.247, 468.043 L 343.602, 449.794 L 353.335, 431.718 L 363.763, 414.686 L 362.025, 411.905 L 372.627, 407.908 L 390.007, 435.194 L 375.755, 440.408 L 374.191, 437.975 L 360.287, 443.189 L 368.629, 456.05 L 372.974, 454.486 L 372.105, 453.27 L 381.664, 449.62 L 380.1, 447.36 L 394.525, 442.146 L 410.167, 466.305 L 396.785, 471.345 L 396.09, 471.692 L 393.309, 467.347 L 382.707, 471.345 L 383.228, 472.214 L 321.703, 495.155 L 319.096, 491.158 z "/>
<path style="fill:rgb(0, 0, 255);fill-opacity:0;fill-rule:evenodd;stroke:rgb(0, 198, 255);stroke-width:1;" d="M 350.033, 305.714 L 363.241, 300.847 L 362.372, 299.631 L 370.541, 296.502 L 371.236, 297.545 L 379.057, 294.59 L 378.536, 293.548 L 386.357, 290.593 L 386.878, 291.462 L 396.959, 287.812 L 396.437, 286.943 L 399.566, 285.727 L 410.341, 302.759 L 409.298, 303.28 L 435.716, 344.471 L 399.392, 358.027 L 401.303, 360.982 L 388.616, 365.675 L 373.843, 342.907 L 385.14, 338.562 L 387.921, 343.081 L 406.344, 336.302 L 390.702, 311.797 L 374.017, 318.053 L 377.667, 323.615 L 364.632, 328.308 L 350.033, 305.714 z "/>
<path style="fill:rgb(255, 255, 0);fill-opacity:0;fill-rule:evenodd;stroke:rgb(0, 198, 255);stroke-width:1;" d="M 494.286, 149.815 L 534.608, 135.042 L 531.827, 130.35 L 547.817, 124.614 L 567.63, 155.551 L 574.582, 166.674 L 518.097, 187.356 L 509.407, 173.452 L 494.286, 149.815 z "/>
<path style="fill:rgb(255, 0, 0);fill-opacity:0;fill-rule:evenodd;stroke:rgb(0, 198, 255);stroke-width:1;" d="M 417.293, 410.341 L 430.502, 405.475 L 431.718, 405.127 L 434.499, 409.298 L 438.497, 407.734 L 438.323, 407.56 L 478.297, 392.614 L 488.203, 408.082 L 464.914, 416.772 L 468.564, 422.333 L 492.201, 413.643 L 501.934, 428.764 L 456.919, 445.449 L 459.005, 448.751 L 448.403, 452.748 L 445.275, 453.965 L 433.804, 436.063 L 450.489, 429.98 L 449.967, 429.111 L 456.398, 426.678 L 452.574, 420.769 L 446.144, 423.202 L 445.622, 422.333 L 428.938, 428.59 L 417.293, 410.341 z "/>
<path style="fill:rgb(0, 255, 0);fill-opacity:0;fill-rule:evenodd;stroke:rgb(0, 198, 255);stroke-width:1;" d="M 512.535, 379.752 L 552.857, 364.979 L 553.204, 365.675 L 557.897, 363.937 L 555.464, 360.113 L 566.066, 356.116 L 568.846, 355.247 L 579.97, 372.627 L 563.632, 378.536 L 564.154, 379.405 L 557.723, 381.838 L 561.894, 388.095 L 568.499, 385.662 L 569.02, 386.357 L 585.01, 380.448 L 596.481, 398.175 L 582.75, 403.215 L 580.143, 399.218 L 576.146, 400.782 L 576.494, 401.13 L 536.346, 416.076 L 526.439, 400.956 L 549.728, 392.266 L 545.731, 386.183 L 522.268, 394.873 L 512.535, 379.752 z "/>
<path style="fill:rgb(0, 0, 255);fill-opacity:0;fill-rule:evenodd;stroke:rgb(0, 198, 255);stroke-width:1;" d="M 448.403, 452.748 L 459.005, 448.751 L 464.393, 446.839 L 465.957, 449.446 L 468.912, 449.272 L 471.519, 448.056 L 509.059, 434.325 L 518.444, 448.751 L 501.238, 455.181 L 505.41, 461.612 L 522.789, 455.181 L 532.348, 470.302 L 493.939, 484.554 L 490.984, 486.639 L 492.722, 489.246 L 486.813, 491.506 L 476.037, 495.503 L 464.914, 478.123 L 492.896, 467.869 L 487.682, 459.526 L 459.526, 469.954 L 448.403, 452.748 z "/>
<path style="fill:rgb(255, 255, 0);fill-opacity:0;fill-rule:evenodd;stroke:rgb(0, 198, 255);stroke-width:1;" d="M 308.494, 514.621 L 327.091, 507.669 L 340.647, 528.699 L 343.254, 527.83 L 342.038, 526.092 L 346.035, 524.527 L 347.252, 526.265 L 350.206, 525.223 L 336.824, 504.193 L 355.768, 497.067 L 376.972, 530.089 L 380.969, 528.525 L 388.616, 540.691 L 365.675, 549.207 L 355.073, 532.522 L 344.471, 536.346 L 355.247, 553.031 L 332.305, 561.547 L 323.963, 548.686 L 329.177, 546.774 L 308.494, 514.621 z "/>
<path style="fill:rgb(255, 0, 0);fill-opacity:0;fill-rule:evenodd;stroke:rgb(0, 198, 255);stroke-width:1;" d="M 276.168, 374.365 L 278.253, 371.062 L 289.376, 355.942 L 291.81, 352.466 L 305.366, 338.909 L 312.492, 332.653 L 320.139, 326.396 L 354.551, 379.926 L 330.393, 388.79 L 294.938, 376.624 L 293.026, 379.926 L 276.168, 374.365 z M 304.323, 359.765 L 311.623, 371.236 L 319.965, 368.282 L 320.834, 369.672 L 326.917, 367.413 L 318.922, 355.073 L 310.406, 358.201 L 310.059, 357.68 L 304.323, 359.765 z "/>
<path style="fill:rgb(0, 255, 0);fill-opacity:0;fill-rule:evenodd;stroke:rgb(0, 198, 255);stroke-width:1;" d="M 484.554, 678.688 L 505.757, 670.693 L 515.664, 685.987 L 525.223, 682.511 L 515.49, 667.217 L 534.608, 660.091 L 561.894, 702.672 L 545.557, 708.581 L 539.3, 698.849 L 530.784, 701.977 L 529.394, 699.718 L 525.57, 701.108 L 532.87, 712.579 L 514.621, 719.357 L 505.41, 704.932 L 506.452, 704.584 L 505.931, 703.889 L 507.843, 703.194 L 505.931, 699.891 L 499.674, 702.151 L 484.554, 678.688 z "/>
<path style="fill:rgb(0, 0, 255);fill-opacity:0;fill-rule:evenodd;stroke:rgb(0, 198, 255);stroke-width:1;" d="M 517.402, 723.702 L 537.389, 716.229 L 537.91, 717.098 L 543.472, 714.838 L 542.081, 712.753 L 545.21, 711.71 L 543.645, 709.277 L 545.557, 708.581 L 561.894, 702.672 L 572.322, 718.836 L 572.322, 719.705 L 571.975, 720.747 L 571.106, 721.269 L 563.632, 724.05 L 563.98, 724.571 L 559.635, 726.135 L 563.285, 731.871 L 567.456, 730.306 L 567.977, 731.175 L 575.625, 728.395 L 577.536, 728.568 L 578.753, 729.09 L 579.101, 729.611 L 589.007, 744.905 L 582.924, 747.165 L 582.577, 746.643 L 538.953, 762.633 L 529.394, 747.686 L 543.472, 742.299 L 538.605, 734.651 L 527.134, 738.996 L 517.402, 723.702 z "/>
<path style="fill:rgb(255, 255, 0);fill-opacity:0;fill-rule:evenodd;stroke:rgb(0, 198, 255);stroke-width:1;" d="M 548.512, 117.315 L 563.632, 111.753 L 574.234, 128.612 L 577.015, 127.569 L 578.753, 130.524 L 583.619, 128.786 L 570.411, 107.93 L 587.964, 101.499 L 618.901, 150.163 L 601.347, 156.594 L 592.136, 141.994 L 593.7, 141.473 L 590.224, 136.085 L 580.839, 139.561 L 593.526, 159.722 L 574.582, 166.674 L 567.63, 155.551 L 571.975, 153.987 L 548.512, 117.315 z "/>
<path style="fill:rgb(255, 0, 0);fill-opacity:0;fill-rule:evenodd;stroke:rgb(0, 198, 255);stroke-width:1;" d="M 365.675, 722.485 L 389.833, 713.622 L 395.047, 721.79 L 395.568, 721.616 L 397.48, 724.571 L 403.215, 722.312 L 404.953, 721.79 L 403.215, 718.836 L 404.258, 718.488 L 399.044, 710.319 L 421.464, 701.977 L 428.416, 712.926 L 429.633, 714.664 L 425.114, 716.402 L 422.681, 719.183 L 428.938, 729.09 L 432.761, 729.09 L 437.628, 727.352 L 443.884, 736.911 L 388.269, 757.419 L 381.838, 747.512 L 391.223, 743.863 L 384.966, 734.304 L 382.359, 733.782 L 374.712, 736.563 L 367.413, 725.44 L 365.675, 722.485 z "/>
<path style="fill:rgb(0, 255, 0);fill-opacity:0;fill-rule:evenodd;stroke:rgb(0, 198, 255);stroke-width:1;" d="M 695.025, 483.511 L 723.007, 473.257 L 725.614, 473.604 L 734.478, 470.302 L 742.82, 483.337 L 732.913, 486.987 L 736.737, 492.896 L 739.865, 491.679 L 752.031, 510.624 L 759.331, 508.017 L 759.852, 508.712 L 766.978, 520.009 L 727.699, 534.608 L 713.448, 512.188 L 725.788, 507.669 L 727.699, 510.624 L 730.654, 511.319 L 735.347, 509.581 L 726.657, 496.024 L 719.705, 498.458 L 721.79, 501.76 L 709.624, 506.279 L 695.025, 483.511 z "/>
<path style="fill:rgb(0, 0, 255);fill-opacity:0;fill-rule:evenodd;stroke:rgb(0, 198, 255);stroke-width:1;" d="M 388.616, 365.675 L 401.303, 360.982 L 403.389, 364.284 L 439.713, 350.902 L 448.056, 363.937 L 433.283, 369.498 L 441.277, 381.838 L 456.05, 376.276 L 464.393, 389.311 L 431.545, 401.477 L 430.676, 402.346 L 428.938, 403.389 L 430.502, 405.475 L 417.293, 410.341 L 405.475, 392.092 L 426.852, 384.271 L 421.812, 376.276 L 400.434, 384.097 L 388.616, 365.675 z "/>
<path style="fill:rgb(255, 255, 0);fill-opacity:0;fill-rule:evenodd;stroke:rgb(0, 198, 255);stroke-width:1;" d="M 464.045, 102.716 L 486.118, 94.7208 L 496.372, 110.884 L 508.886, 106.365 L 506.279, 102.368 L 505.583, 102.716 L 497.762, 90.3758 L 520.356, 82.2073 L 526.787, 92.1138 L 528.525, 94.7208 L 521.573, 97.3278 L 530.089, 110.884 L 536.867, 108.277 L 543.472, 118.879 L 520.356, 127.395 L 513.926, 117.315 L 507.669, 119.574 L 505.236, 120.617 L 511.666, 130.524 L 487.682, 139.387 L 481.078, 128.959 L 487.856, 126.526 L 479.166, 112.796 L 472.04, 115.403 L 464.045, 102.716 z "/>
<path style="fill:rgb(255, 0, 0);fill-opacity:0;fill-rule:evenodd;stroke:rgb(0, 198, 255);stroke-width:1;" d="M 404.084, 109.494 L 437.801, 112.275 L 464.045, 102.716 L 472.04, 115.403 L 474.126, 118.879 L 465.262, 122.007 L 468.043, 126.526 L 472.388, 124.962 L 480.73, 138.171 L 461.438, 145.297 L 453.443, 132.783 L 444.406, 136.085 L 446.144, 138.866 L 445.101, 139.214 L 451.358, 148.946 L 433.283, 155.551 L 422.507, 138.518 L 431.371, 135.39 L 425.288, 125.831 L 421.464, 124.614 L 415.207, 127.048 L 404.084, 109.494 z "/>
<path style="fill:rgb(0, 255, 0);fill-opacity:0;fill-rule:evenodd;stroke:rgb(0, 198, 255);stroke-width:1;" d="M 446.491, 168.412 L 461.091, 163.024 L 462.133, 164.762 L 471.345, 161.46 L 469.954, 159.201 L 489.594, 152.075 L 502.976, 173.104 L 506.105, 174.669 L 509.407, 173.452 L 518.097, 187.356 L 518.271, 187.53 L 496.893, 195.525 L 487.682, 180.925 L 477.949, 184.575 L 487.508, 199.522 L 466.305, 207.343 L 456.224, 191.527 L 462.655, 189.094 L 459.353, 183.88 L 456.919, 184.923 L 446.491, 168.412 z "/>
<path style="fill:rgb(0, 0, 255);fill-opacity:0;fill-rule:evenodd;stroke:rgb(0, 198, 255);stroke-width:1;" d="M 535.824, 234.803 L 574.756, 220.378 L 582.75, 232.718 L 574.929, 235.672 L 577.884, 240.365 L 581.012, 239.322 L 600.304, 269.563 L 593.526, 272.17 L 594.395, 273.561 L 567.108, 283.641 L 553.378, 262.09 L 565.023, 257.745 L 567.977, 262.09 L 575.972, 259.135 L 566.761, 244.536 L 559.809, 247.143 L 562.242, 250.967 L 549.381, 255.833 L 535.824, 234.803 z "/>
<path style="fill:rgb(255, 255, 0);fill-opacity:0;fill-rule:evenodd;stroke:rgb(0, 198, 255);stroke-width:1;" d="M 409.124, 560.678 L 429.459, 553.204 L 436.759, 564.501 L 445.796, 561.025 L 438.497, 549.728 L 458.484, 542.255 L 478.818, 573.713 L 431.023, 591.44 L 423.202, 579.274 L 421.464, 579.97 L 409.124, 560.678 z "/>
<path style="fill:rgb(255, 0, 0);fill-opacity:0;fill-rule:evenodd;stroke:rgb(0, 198, 255);stroke-width:1;" d="M 378.188, 76.1243 L 380.969, 61.3513 L 381.664, 57.5277 L 387.4, 58.2229 L 388.964, 49.5329 L 390.18, 49.5329 L 392.092, 38.9311 L 398.523, 39.6263 L 400.434, 38.0621 L 405.301, 38.5835 L 406.517, 39.9739 L 408.777, 39.1049 L 413.469, 39.6263 L 414.686, 41.0167 L 419.552, 41.5381 L 420.943, 44.1451 L 420.248, 47.9687 L 423.897, 48.3163 L 423.202, 51.9661 L 426.157, 52.3137 L 424.419, 61.1775 L 428.416, 61.5251 L 435.89, 58.7443 L 439.192, 63.9583 L 446.665, 75.6029 L 431.023, 81.3383 L 406.517, 78.7313 L 408.603, 68.4771 L 397.48, 67.2605 L 395.394, 78.0361 L 378.188, 76.1243 z "/>
<path style="fill:rgb(0, 255, 0);fill-opacity:0;fill-rule:evenodd;stroke:rgb(0, 198, 255);stroke-width:1;" d="M 378.883, 634.021 L 387.573, 630.893 L 383.924, 625.158 L 431.371, 607.604 L 449.62, 636.107 L 435.89, 641.321 L 432.587, 636.107 L 403.563, 646.882 L 407.039, 652.096 L 393.656, 656.963 L 378.883, 634.021 z "/>
<path style="fill:rgb(0, 0, 255);fill-opacity:0;fill-rule:evenodd;stroke:rgb(0, 198, 255);stroke-width:1;" d="M 346.035, 584.315 L 370.367, 575.103 L 376.972, 585.184 L 385.314, 582.055 L 378.883, 571.975 L 402.172, 563.285 L 409.993, 575.277 L 405.822, 576.841 L 407.908, 580.143 L 408.603, 579.796 L 415.381, 590.224 L 367.065, 608.299 L 360.287, 597.697 L 360.808, 597.35 L 358.723, 594.047 L 353.682, 595.959 L 352.987, 594.916 L 346.035, 584.315 z "/>
<path style="fill:rgb(255, 255, 0);fill-opacity:0;fill-rule:evenodd;stroke:rgb(0, 198, 255);stroke-width:1;" d="M 257.224, 406.865 L 276.168, 374.365 L 293.026, 379.926 L 294.417, 380.448 L 293.026, 382.881 L 323.441, 393.135 L 307.278, 420.769 L 276.515, 410.341 L 274.951, 412.948 L 265.392, 409.646 L 257.224, 406.865 z M 281.208, 402.52 L 284.858, 403.91 L 293.895, 406.865 L 297.545, 405.996 L 301.542, 399.218 L 300.847, 395.742 L 287.812, 391.223 L 281.208, 402.52 z "/>
<path style="fill:rgb(255, 0, 0);fill-opacity:0;fill-rule:evenodd;stroke:rgb(0, 198, 255);stroke-width:1;" d="M 717.619, 235.151 L 735.868, 228.373 L 740.734, 236.02 L 753.595, 231.154 L 748.729, 223.506 L 764.371, 217.771 L 784.01, 248.186 L 767.326, 254.443 L 760.721, 244.189 L 758.462, 245.058 L 757.767, 244.015 L 754.638, 245.231 L 756.724, 248.36 L 749.077, 251.141 L 754.464, 259.483 L 737.258, 265.74 L 717.619, 235.151 z "/>
<path style="fill:rgb(0, 255, 0);fill-opacity:0;fill-rule:evenodd;stroke:rgb(0, 198, 255);stroke-width:1;" d="M 629.85, 99.2396 L 656.789, 89.1592 L 657.31, 90.0282 L 663.741, 87.595 L 671.91, 99.9348 L 662.003, 103.758 L 665.827, 109.668 L 664.784, 110.189 L 667.912, 114.708 L 678.862, 110.537 L 681.121, 114.186 L 688.073, 124.962 L 654.703, 137.476 L 629.85, 99.2396 z "/>
<path style="fill:rgb(0, 0, 255);fill-opacity:0;fill-rule:evenodd;stroke:rgb(0, 198, 255);stroke-width:1;" d="M 254.617, 428.069 L 265.392, 409.646 L 274.951, 412.948 L 274.082, 414.512 L 335.607, 435.368 L 325.874, 452.053 L 320.834, 450.315 L 322.051, 448.403 L 312.492, 445.275 L 311.275, 447.187 L 254.617, 428.069 z "/>
<path style="fill:rgb(255, 255, 0);fill-opacity:0;fill-rule:evenodd;stroke:rgb(0, 198, 255);stroke-width:1;" d="M 520.356, 82.2073 L 565.37, 65.6963 L 582.577, 92.809 L 549.381, 104.975 L 547.295, 102.02 L 541.212, 104.28 L 532.175, 90.0282 L 526.787, 92.1138 L 520.356, 82.2073 z "/>
<path style="fill:rgb(255, 0, 0);fill-opacity:0;fill-rule:evenodd;stroke:rgb(0, 198, 255);stroke-width:1;" d="M 364.979, 487.856 L 375.581, 482.816 L 376.798, 484.727 L 399.739, 476.211 L 396.785, 471.345 L 410.167, 466.305 L 427.721, 493.765 L 414.86, 498.631 L 410.167, 491.332 L 390.702, 498.631 L 395.047, 505.41 L 379.926, 510.971 L 364.979, 487.856 z "/>
<path style="fill:rgb(0, 255, 0);fill-opacity:0;fill-rule:evenodd;stroke:rgb(0, 198, 255);stroke-width:1;" d="M 319.096, 752.726 L 330.567, 748.381 L 331.436, 749.772 L 335.607, 748.034 L 336.129, 745.774 L 334.738, 743.515 L 332.653, 744.384 L 329.524, 739.518 L 367.413, 725.44 L 374.712, 736.563 L 374.712, 736.737 L 364.806, 740.387 L 367.413, 744.384 L 353.856, 749.424 L 363.763, 764.719 L 342.385, 772.713 L 334.564, 760.547 L 326.048, 763.502 L 319.096, 752.726 z "/>
<path style="fill:rgb(0, 0, 255);fill-opacity:0;fill-rule:evenodd;stroke:rgb(0, 198, 255);stroke-width:1;" d="M 379.926, 510.971 L 395.047, 505.41 L 399.392, 512.188 L 419.031, 505.062 L 414.86, 498.631 L 427.721, 493.765 L 444.58, 520.009 L 431.718, 524.701 L 429.111, 520.704 L 405.301, 529.568 L 406.17, 530.958 L 394.699, 534.086 L 379.926, 510.971 z "/>
<path style="fill:rgb(255, 255, 0);fill-opacity:0;fill-rule:evenodd;stroke:rgb(0, 198, 255);stroke-width:1;" d="M 516.88, 565.544 L 544.341, 555.29 L 548.512, 561.894 L 552.683, 568.151 L 545.557, 570.758 L 552.509, 581.708 L 559.635, 579.101 L 565.892, 588.833 L 568.846, 593.352 L 541.386, 603.606 L 516.88, 565.544 z "/>
<path style="fill:rgb(255, 0, 0);fill-opacity:0;fill-rule:evenodd;stroke:rgb(0, 198, 255);stroke-width:1;" d="M 449.967, 691.375 L 477.775, 681.121 L 484.901, 691.897 L 480.382, 693.635 L 479.34, 695.025 L 481.251, 697.98 L 483.858, 697.111 L 502.803, 726.483 L 482.642, 733.956 L 468.564, 712.057 L 470.476, 711.362 L 464.219, 701.629 L 461.96, 700.587 L 457.093, 702.325 L 449.967, 691.375 z "/>
<path style="fill:rgb(0, 255, 0);fill-opacity:0;fill-rule:evenodd;stroke:rgb(0, 198, 255);stroke-width:1;" d="M 421.464, 701.977 L 449.967, 691.375 L 457.093, 702.325 L 452.748, 703.889 L 451.358, 705.453 L 453.27, 708.408 L 455.355, 707.712 L 474.126, 737.085 L 454.834, 744.21 L 440.756, 722.138 L 442.146, 721.616 L 435.716, 711.71 L 433.804, 711.015 L 428.416, 712.926 L 421.464, 701.977 z "/>
<path style="fill:rgb(0, 0, 255);fill-opacity:0;fill-rule:evenodd;stroke:rgb(0, 198, 255);stroke-width:1;" d="M 321.703, 422.507 L 332.653, 403.737 L 327.96, 402.172 L 333.174, 393.483 L 336.998, 392.092 L 340.995, 398.175 L 348.295, 395.394 L 346.73, 392.961 L 359.765, 388.095 L 372.627, 407.908 L 362.025, 411.905 L 356.116, 413.991 L 352.466, 408.429 L 348.121, 409.993 L 346.209, 413.122 L 348.99, 417.467 L 341.864, 429.459 L 321.703, 422.507 z "/>
<path style="fill:rgb(255, 255, 0);fill-opacity:0;fill-rule:evenodd;stroke:rgb(0, 198, 255);stroke-width:1;" d="M 548.512, 561.894 L 576.841, 551.466 L 594.221, 578.405 L 565.892, 588.833 L 559.635, 579.101 L 552.683, 568.151 L 548.512, 561.894 z "/>
<path style="fill:rgb(255, 0, 0);fill-opacity:0;fill-rule:evenodd;stroke:rgb(0, 198, 255);stroke-width:1;" d="M 727.526, 427.721 L 767.499, 412.948 L 765.588, 409.993 L 781.403, 404.084 L 792.527, 421.464 L 776.885, 427.373 L 774.973, 424.419 L 734.825, 439.192 L 727.526, 427.721 z "/>
<path style="fill:rgb(0, 255, 0);fill-opacity:0;fill-rule:evenodd;stroke:rgb(0, 198, 255);stroke-width:1;" d="M 738.475, 444.927 L 778.623, 430.154 L 776.885, 427.373 L 792.527, 421.464 L 803.476, 438.497 L 787.66, 444.406 L 785.748, 441.625 L 745.774, 456.398 L 738.475, 444.927 z "/>
<path style="fill:rgb(0, 0, 255);fill-opacity:0;fill-rule:evenodd;stroke:rgb(0, 198, 255);stroke-width:1;" d="M 743.341, 476.559 L 758.462, 470.997 L 777.927, 501.76 L 782.099, 500.196 L 789.398, 511.84 L 766.978, 520.009 L 759.852, 508.712 L 763.154, 507.495 L 743.341, 476.559 z "/>
<path style="fill:rgb(255, 255, 0);fill-opacity:0;fill-rule:evenodd;stroke:rgb(0, 198, 255);stroke-width:1;" d="M 716.924, 410.689 L 757.071, 395.916 L 754.638, 392.266 L 770.28, 386.531 L 781.403, 404.084 L 765.588, 409.993 L 763.502, 406.691 L 723.702, 421.464 L 716.924, 410.689 z "/>
<path style="fill:rgb(255, 0, 0);fill-opacity:0;fill-rule:evenodd;stroke:rgb(0, 198, 255);stroke-width:1;" d="M 605.866, 539.474 L 615.946, 535.651 L 622.203, 545.383 L 629.676, 556.854 L 634.021, 563.632 L 623.767, 567.456 L 605.866, 539.474 z "/>
<path style="fill:rgb(0, 255, 0);fill-opacity:0;fill-rule:evenodd;stroke:rgb(0, 198, 255);stroke-width:1;" d="M 576.32, 550.424 L 586.4, 546.6 L 604.302, 574.756 L 594.221, 578.405 L 576.841, 551.466 L 576.32, 550.424 z "/>
<path style="fill:rgb(0, 0, 255);fill-opacity:0;fill-rule:evenodd;stroke:rgb(0, 198, 255);stroke-width:1;" d="M 595.959, 543.124 L 605.866, 539.474 L 623.767, 567.456 L 614.034, 571.106 L 595.959, 543.124 z "/>
<path style="fill:rgb(255, 255, 0);fill-opacity:0;fill-rule:evenodd;stroke:rgb(0, 198, 255);stroke-width:1;" d="M 586.4, 546.6 L 595.959, 543.124 L 614.034, 571.106 L 604.302, 574.756 L 586.4, 546.6 z "/>
<path style="fill:rgb(255, 0, 0);fill-opacity:0;fill-rule:evenodd;stroke:rgb(0, 198, 255);stroke-width:1;" d="M 144.428, 57.5277 L 153.987, 49.8805 L 169.281, 61.1775 L 159.722, 68.8247 L 144.428, 57.5277 z "/>
<path style="fill:rgb(0, 255, 0);fill-opacity:0;fill-rule:evenodd;stroke:rgb(0, 198, 255);stroke-width:1;" d="M 0, 350.38 L 6.25679, 345.514 L 14.773, 345.688 L 17.38, 353.682 L 21.2036, 356.811 L 19.8132, 357.854 L 15.2944, 361.33 L 11.1232, 358.723 L 2.4332, 356.985 L 0, 350.38 z "/>
<path style="fill:rgb(0, 0, 255);fill-opacity:0;fill-rule:evenodd;stroke:rgb(0, 198, 255);stroke-width:1;" d="M 180.925, 719.878 L 185.966, 717.967 L 192.57, 727.699 L 187.53, 729.785 L 180.925, 719.878 z "/>
<path style="fill:rgb(255, 255, 0);fill-opacity:0;fill-rule:evenodd;stroke:rgb(0, 198, 255);stroke-width:1;" d="M 431.545, 41.7119 L 453.443, 33.7171 L 460.743, 45.1879 L 464.045, 43.9713 L 466.478, 47.9687 L 472.735, 45.7093 L 470.128, 41.7119 L 470.65, 41.5381 L 463.176, 29.8935 L 489.768, 19.987 L 497.241, 31.6315 L 500.543, 30.4149 L 502.976, 34.2385 L 509.928, 31.6315 L 499.327, 15.2944 L 526.265, 5.38779 L 547.469, 38.2359 L 520.356, 48.3163 L 513.926, 38.4097 L 504.193, 42.0595 L 510.624, 51.9661 L 483.858, 61.8727 L 477.428, 51.7923 L 467.347, 55.4421 L 473.778, 65.5225 L 446.665, 75.6029 L 439.192, 63.9583 L 442.32, 62.9155 L 443.711, 60.6561 L 431.545, 41.7119 z "/>
<path style="fill:rgb(255, 0, 0);fill-opacity:0;fill-rule:evenodd;stroke:rgb(0, 198, 255);stroke-width:1;" d="M 657.832, 20.856 L 675.038, 14.4254 L 676.776, 17.0324 L 681.121, 15.4682 L 679.383, 12.8612 L 692.939, 7.82099 L 691.201, 5.04019 L 704.758, 0 L 719.183, 22.0726 L 701.456, 28.6769 L 696.068, 27.6342 L 694.156, 24.6796 L 685.814, 27.6342 L 698.849, 47.7949 L 706.843, 44.8403 L 704.584, 41.1905 L 707.539, 37.5407 L 724.919, 31.1101 L 739.17, 53.0089 L 725.614, 58.0491 L 724.05, 55.6159 L 710.146, 60.8299 L 708.408, 58.2229 L 704.41, 59.6133 L 706.148, 62.3941 L 688.768, 68.8247 L 657.832, 20.856 z "/>
<path style="fill:rgb(0, 255, 0);fill-opacity:0;fill-rule:evenodd;stroke:rgb(0, 198, 255);stroke-width:1;" d="M 300.847, 67.9557 L 313.535, 38.0621 L 320.834, 29.3721 L 334.217, 30.7625 L 335.607, 32.6743 L 337.693, 32.6743 L 334.564, 50.0543 L 343.776, 50.9233 L 344.819, 45.0141 L 347.599, 45.3617 L 349.685, 34.4123 L 355.768, 35.1075 L 357.68, 33.5433 L 362.72, 34.0647 L 364.458, 35.4551 L 366.717, 34.4123 L 371.062, 34.9337 L 373.148, 36.8455 L 379.579, 37.5407 L 376.276, 54.5731 L 375.755, 54.5731 L 374.712, 60.6561 L 380.969, 61.3513 L 378.188, 76.1243 L 344.645, 72.6483 L 346.73, 62.0465 L 334.391, 60.8299 L 332.305, 71.2579 L 300.847, 67.9557 z "/>
</svg>