<?xml version="1.0" encoding="iso-8859-1" standalone="no"?>
<!DOCTYPE svg PUBLIC "-//W3C//DTD SVG 1.0//EN" "http://www.w3.org/TR/2001/REC-SVG-20010904/DTD/svg10.dtd">
<svg xmlns="http://www.w3.org/2000/svg" width="1060" height="800">
<path style="fill:rgb(255, 0, 0);fill-opacity:0;fill-rule:evenodd;stroke:rgb(0, 113, 255);stroke-width:1;" d="M 828.28, 190.674 L 830.883, 187.205 L 840.425, 173.845 L 847.538, 164.65 L 859.683, 147.994 L 860.03, 147.473 L 868.185, 150.943 L 870.093, 148.341 L 877.38, 151.29 L 875.472, 154.066 L 901.843, 165.17 L 989.98, 203.166 L 978.183, 219.128 L 966.558, 235.09 L 970.028, 236.651 L 961.006, 248.796 L 968.293, 251.746 L 957.71, 266.32 L 946.432, 261.462 L 944.524, 264.064 L 937.237, 261.115 L 939.146, 258.339 L 908.61, 245.5 L 917.805, 233.008 L 895.077, 223.292 L 900.455, 216.005 L 889.178, 210.974 L 887.27, 213.576 L 879.809, 210.627 L 881.891, 207.851 L 866.103, 201.258 L 847.191, 205.942 L 843.028, 211.494 L 834.353, 208.024 L 828.28, 190.674 z "/>
<path style="fill:rgb(0, 255, 0);fill-opacity:0;fill-rule:evenodd;stroke:rgb(0, 113, 255);stroke-width:1;" d="M 269.443, 384.819 L 283.843, 365.214 L 299.631, 343.353 L 337.974, 359.488 L 343.873, 362.091 L 339.015, 368.51 L 357.927, 376.491 L 405.812, 396.79 L 354.977, 466.71 L 306.918, 446.584 L 311.95, 439.644 L 293.732, 432.01 L 314.379, 403.73 L 309.174, 401.475 L 298.59, 397.137 L 269.443, 384.819 z "/>
<path style="fill:rgb(0, 0, 255);fill-opacity:0;fill-rule:evenodd;stroke:rgb(0, 113, 255);stroke-width:1;" d="M 802.082, 663.804 L 825.678, 631.533 L 844.936, 639.688 L 848.059, 635.524 L 845.977, 634.656 L 853.611, 624.073 L 855.693, 624.94 L 858.642, 620.95 L 839.211, 612.622 L 862.633, 580.525 L 877.554, 586.944 L 876.686, 587.812 L 877.901, 588.332 L 887.617, 592.496 L 888.311, 591.455 L 896.812, 594.925 L 896.291, 595.793 L 908.957, 601.171 L 909.651, 600.304 L 943.656, 614.704 L 942.962, 615.745 L 953.546, 620.082 L 954.24, 619.041 L 976.274, 628.237 L 956.322, 655.65 L 913.641, 637.606 L 912.6, 639.167 L 906.701, 636.565 L 900.282, 633.789 L 901.323, 632.401 L 887.964, 626.849 L 885.535, 630.319 L 886.923, 630.839 L 882.759, 636.391 L 884.841, 637.259 L 883.279, 639.514 L 877.207, 647.842 L 875.125, 646.801 L 870.961, 652.527 L 869.573, 652.006 L 867.144, 655.303 L 894.036, 666.753 L 885.882, 677.857 L 883.8, 676.99 L 879.983, 682.195 L 877.901, 681.327 L 873.563, 687.226 L 871.655, 686.532 L 868.011, 691.564 L 848.059, 683.236 L 851.876, 678.204 L 845.63, 675.428 L 842.16, 680.113 L 835.567, 677.337 L 835.22, 677.857 L 802.082, 663.804 z "/>
<path style="fill:rgb(255, 255, 0);fill-opacity:0;fill-rule:evenodd;stroke:rgb(0, 113, 255);stroke-width:1;" d="M 722.446, 772.761 L 746.042, 739.796 L 765.647, 747.777 L 768.25, 744.134 L 766.341, 743.44 L 774.149, 732.509 L 776.231, 733.203 L 776.404, 732.856 L 778.833, 729.56 L 759.228, 721.405 L 782.477, 688.961 L 798.092, 695.381 L 797.745, 695.901 L 802.082, 697.636 L 808.848, 700.412 L 809.195, 700.065 L 817.697, 703.535 L 817.35, 704.056 L 838.69, 712.904 L 837.996, 713.598 L 839.211, 714.118 L 848.753, 718.109 L 849.273, 717.241 L 872.349, 726.784 L 856.387, 748.992 L 853.611, 747.777 L 850.314, 752.635 L 808.501, 735.285 L 806.072, 738.755 L 807.981, 739.449 L 803.817, 745.175 L 805.725, 746.042 L 797.918, 756.799 L 796.01, 756.105 L 791.846, 761.83 L 790.111, 761.136 L 787.508, 764.606 L 814.227, 775.71 L 806.419, 786.467 L 804.511, 785.6 L 800.694, 790.805 L 798.612, 789.937 L 794.275, 796.01 L 792.019, 794.969 L 788.549, 800 L 768.77, 791.846 L 769.464, 790.805 L 756.625, 785.6 L 755.931, 786.641 L 722.446, 772.761 z "/>
<path style="fill:rgb(255, 0, 0);fill-opacity:0;fill-rule:evenodd;stroke:rgb(0, 113, 255);stroke-width:1;" d="M 538.018, 552.071 L 552.939, 531.598 L 568.206, 510.605 L 696.769, 564.736 L 666.58, 606.203 L 538.018, 552.071 z "/>
<path style="fill:rgb(0, 255, 0);fill-opacity:0;fill-rule:evenodd;stroke:rgb(0, 113, 255);stroke-width:1;" d="M 437.215, 482.845 L 467.404, 441.379 L 488.397, 450.228 L 479.896, 461.852 L 498.807, 469.833 L 502.104, 465.322 L 503.492, 466.016 L 509.391, 458.035 L 505.921, 456.647 L 514.596, 444.676 L 554.674, 461.505 L 546.172, 473.303 L 542.182, 471.741 L 536.977, 478.855 L 537.844, 479.202 L 536.977, 480.416 L 538.018, 480.937 L 534.895, 485.274 L 553.98, 493.255 L 562.655, 481.11 L 583.301, 489.959 L 568.206, 510.605 L 552.939, 531.598 L 532.292, 522.923 L 538.365, 514.596 L 520.494, 507.135 L 518.933, 509.564 L 516.851, 508.697 L 508.697, 519.627 L 511.646, 520.841 L 506.268, 528.128 L 466.19, 511.299 L 471.741, 503.665 L 473.823, 504.533 L 481.457, 494.123 L 479.202, 493.082 L 481.11, 490.479 L 464.281, 483.539 L 458.209, 491.694 L 437.215, 482.845 z "/>
<path style="fill:rgb(0, 0, 255);fill-opacity:0;fill-rule:evenodd;stroke:rgb(0, 113, 255);stroke-width:1;" d="M 489.265, 390.891 L 550.683, 307.092 L 599.436, 327.738 L 540.447, 408.241 L 543.396, 409.456 L 542.182, 411.017 L 540.967, 412.752 L 489.265, 390.891 z "/>
<path style="fill:rgb(255, 255, 0);fill-opacity:0;fill-rule:evenodd;stroke:rgb(0, 113, 255);stroke-width:1;" d="M 840.425, 173.845 L 847.538, 164.65 L 859.683, 147.994 L 860.03, 147.473 L 868.185, 150.943 L 875.472, 154.066 L 901.843, 165.17 L 892.475, 177.836 L 915.897, 187.725 L 910.345, 195.185 L 956.322, 214.617 L 947.126, 227.109 L 966.558, 235.09 L 970.028, 236.651 L 961.006, 248.796 L 968.293, 251.746 L 957.71, 266.32 L 946.432, 261.462 L 939.146, 258.339 L 908.61, 245.5 L 917.805, 233.008 L 895.077, 223.292 L 900.455, 216.005 L 889.178, 210.974 L 881.891, 207.851 L 866.103, 201.258 L 854.652, 196.4 L 863.847, 183.908 L 840.425, 173.845 z "/>
<path style="fill:rgb(255, 0, 0);fill-opacity:0;fill-rule:evenodd;stroke:rgb(0, 113, 255);stroke-width:1;" d="M 331.902, 607.764 L 359.141, 570.462 L 383.951, 581.045 L 375.103, 593.19 L 393.667, 600.998 L 408.068, 607.07 L 413.793, 599.263 L 432.878, 607.244 L 418.998, 626.328 L 426.285, 629.451 L 429.061, 625.634 L 435.827, 628.41 L 446.931, 613.142 L 489.091, 630.839 L 481.978, 640.555 L 473.129, 636.912 L 464.455, 648.71 L 467.751, 650.098 L 466.537, 651.833 L 471.741, 654.088 L 465.322, 662.763 L 455.78, 658.773 L 455.433, 659.466 L 443.982, 654.609 L 444.502, 653.915 L 437.562, 651.139 L 436.868, 652.006 L 331.902, 607.764 z "/>
<path style="fill:rgb(0, 255, 0);fill-opacity:0;fill-rule:evenodd;stroke:rgb(0, 113, 255);stroke-width:1;" d="M 612.622, 726.09 L 624.593, 709.607 L 627.716, 710.995 L 633.615, 702.668 L 645.24, 707.699 L 670.05, 673.693 L 658.252, 668.835 L 664.671, 659.987 L 661.722, 658.773 L 673.346, 642.984 L 726.437, 665.365 L 726.957, 666.927 L 722.273, 673.346 L 711.342, 688.441 L 709.434, 688.788 L 697.636, 683.756 L 692.778, 690.523 L 699.024, 692.952 L 698.504, 693.646 L 682.368, 715.853 L 676.296, 713.251 L 671.438, 720.017 L 683.062, 724.875 L 683.409, 726.61 L 667.968, 747.777 L 665.886, 748.471 L 612.622, 726.09 z "/>
<path style="fill:rgb(0, 0, 255);fill-opacity:0;fill-rule:evenodd;stroke:rgb(0, 113, 255);stroke-width:1;" d="M 881.371, 555.021 L 940.534, 471.915 L 989.286, 491.867 L 983.041, 500.542 L 970.722, 517.892 L 946.953, 508.003 L 923.878, 540.447 L 958.577, 554.847 L 940.881, 579.657 L 881.371, 555.021 z "/>
<path style="fill:rgb(255, 255, 0);fill-opacity:0;fill-rule:evenodd;stroke:rgb(0, 113, 255);stroke-width:1;" d="M 369.031, 332.596 L 376.491, 322.533 L 378.399, 323.227 L 381.696, 318.716 L 373.195, 315.073 L 379.961, 305.704 L 395.402, 284.363 L 409.109, 289.915 L 420.56, 294.773 L 418.131, 298.243 L 429.581, 302.928 L 454.912, 313.511 L 470.18, 319.931 L 436.001, 367.122 L 381.696, 344.394 L 385.339, 339.536 L 369.031, 332.596 z "/>
<path style="fill:rgb(255, 0, 0);fill-opacity:0;fill-rule:evenodd;stroke:rgb(0, 113, 255);stroke-width:1;" d="M 252.613, 716.721 L 283.322, 674.734 L 291.13, 678.031 L 311.256, 686.532 L 305.53, 694.513 L 309, 695.901 L 307.612, 697.983 L 313.685, 700.412 L 312.644, 701.8 L 370.072, 726.09 L 360.703, 739.102 L 350.119, 753.502 L 309.174, 736.326 L 306.918, 739.623 L 252.613, 716.721 z "/>
<path style="fill:rgb(0, 255, 0);fill-opacity:0;fill-rule:evenodd;stroke:rgb(0, 113, 255);stroke-width:1;" d="M 293.732, 432.01 L 314.379, 403.73 L 334.678, 375.624 L 352.895, 383.257 L 389.33, 398.352 L 348.384, 454.739 L 311.95, 439.644 L 293.732, 432.01 z "/>
<path style="fill:rgb(0, 0, 255);fill-opacity:0;fill-rule:evenodd;stroke:rgb(0, 113, 255);stroke-width:1;" d="M 253.828, 285.751 L 260.421, 276.73 L 272.045, 260.594 L 291.65, 268.749 L 292.865, 267.187 L 362.091, 296.161 L 361.05, 297.723 L 379.961, 305.704 L 373.195, 315.073 L 361.917, 330.687 L 354.457, 327.738 L 353.069, 329.646 L 348.731, 327.912 L 350.293, 325.656 L 341.791, 322.186 L 341.444, 322.88 L 335.198, 320.278 L 337.627, 316.981 L 326.177, 312.123 L 321.145, 319.063 L 289.395, 305.704 L 294.426, 298.764 L 282.282, 293.732 L 280.2, 296.682 L 265.799, 290.783 L 264.411, 292.691 L 259.9, 290.783 L 261.288, 288.874 L 253.828, 285.751 z "/>
<path style="fill:rgb(255, 255, 0);fill-opacity:0;fill-rule:evenodd;stroke:rgb(0, 113, 255);stroke-width:1;" d="M 363.826, 755.064 L 371.98, 743.787 L 382.39, 729.56 L 384.125, 727.131 L 386.38, 728.172 L 454.739, 703.709 L 456.474, 701.453 L 459.076, 702.494 L 482.845, 712.557 L 464.455, 737.888 L 462.72, 740.317 L 460.638, 739.276 L 441.379, 746.216 L 441.379, 746.216 L 392.106, 763.739 L 390.197, 766.168 L 387.942, 765.127 L 363.826, 755.064 z "/>
<path style="fill:rgb(255, 0, 0);fill-opacity:0;fill-rule:evenodd;stroke:rgb(0, 113, 255);stroke-width:1;" d="M 363.826, 755.064 L 371.98, 743.787 L 382.39, 729.56 L 386.38, 728.172 L 454.739, 703.709 L 459.076, 702.494 L 482.845, 712.557 L 464.455, 737.888 L 460.638, 739.276 L 441.379, 746.216 L 392.106, 763.739 L 387.942, 765.127 L 363.826, 755.064 z "/>
<path style="fill:rgb(0, 255, 0);fill-opacity:0;fill-rule:evenodd;stroke:rgb(0, 113, 255);stroke-width:1;" d="M 544.264, 409.456 L 560.226, 387.768 L 572.544, 392.973 L 573.585, 391.585 L 595.272, 400.781 L 596.487, 399.219 L 637.259, 416.396 L 636.565, 417.437 L 657.385, 426.285 L 655.823, 428.54 L 669.356, 434.266 L 653.568, 455.78 L 634.136, 447.625 L 632.401, 450.054 L 607.244, 439.471 L 608.111, 438.603 L 586.771, 429.408 L 586.077, 430.449 L 561.44, 420.039 L 563.349, 417.61 L 544.264, 409.456 z "/>
<path style="fill:rgb(0, 0, 255);fill-opacity:0;fill-rule:evenodd;stroke:rgb(0, 113, 255);stroke-width:1;" d="M 252.266, 540.967 L 254.348, 538.018 L 263.197, 526.046 L 276.556, 531.772 L 279.853, 527.261 L 275.168, 525.179 L 287.139, 508.697 L 292.171, 510.952 L 295.12, 506.962 L 281.067, 500.889 L 293.038, 484.58 L 294.079, 483.192 L 337.627, 501.583 L 292.344, 563.349 L 265.626, 552.071 L 268.575, 547.907 L 252.266, 540.967 z "/>
<path style="fill:rgb(255, 255, 0);fill-opacity:0;fill-rule:evenodd;stroke:rgb(0, 113, 255);stroke-width:1;" d="M 735.112, 490.306 L 747.083, 473.823 L 752.462, 476.252 L 761.483, 463.761 L 784.212, 473.476 L 774.149, 487.183 L 781.609, 490.306 L 784.732, 485.968 L 795.489, 490.479 L 796.53, 488.744 L 805.899, 492.735 L 804.684, 494.47 L 822.381, 501.93 L 827.239, 495.164 L 846.671, 503.492 L 825.678, 532.119 L 738.755, 495.337 L 740.664, 492.735 L 735.112, 490.306 z "/>
<path style="fill:rgb(255, 0, 0);fill-opacity:0;fill-rule:evenodd;stroke:rgb(0, 113, 255);stroke-width:1;" d="M 111.386, 174.019 L 139.666, 134.808 L 203.34, 161.353 L 187.205, 183.908 L 182.867, 182.173 L 173.325, 195.185 L 145.912, 183.735 L 143.309, 187.378 L 111.386, 174.019 z "/>
<path style="fill:rgb(0, 255, 0);fill-opacity:0;fill-rule:evenodd;stroke:rgb(0, 113, 255);stroke-width:1;" d="M 812.839, 479.722 L 823.596, 464.975 L 837.302, 470.7 L 844.069, 461.332 L 822.555, 452.136 L 827.586, 445.37 L 822.034, 443.114 L 834.179, 426.632 L 886.749, 449.013 L 846.671, 503.492 L 827.239, 495.164 L 820.126, 492.214 L 823.596, 487.703 L 817.697, 485.101 L 819.605, 482.672 L 812.839, 479.722 z "/>
<path style="fill:rgb(0, 0, 255);fill-opacity:0;fill-rule:evenodd;stroke:rgb(0, 113, 255);stroke-width:1;" d="M 534.548, 690.176 L 537.324, 686.185 L 552.592, 665.539 L 567.339, 671.785 L 570.288, 667.794 L 576.881, 670.744 L 578.096, 669.182 L 606.723, 681.327 L 605.682, 682.715 L 612.969, 685.838 L 610.193, 689.829 L 623.379, 695.381 L 603.6, 722.273 L 539.926, 695.381 L 541.661, 693.125 L 534.548, 690.176 z "/>
<path style="fill:rgb(255, 255, 0);fill-opacity:0;fill-rule:evenodd;stroke:rgb(0, 113, 255);stroke-width:1;" d="M 567.339, 633.789 L 587.118, 606.723 L 616.092, 618.868 L 614.53, 621.123 L 625.981, 625.808 L 627.543, 623.726 L 657.038, 636.044 L 637.085, 663.283 L 623.552, 657.558 L 621.123, 661.028 L 613.663, 657.905 L 612.622, 659.466 L 583.995, 647.322 L 585.209, 645.76 L 578.096, 642.811 L 580.698, 639.514 L 567.339, 633.789 z "/>
<path style="fill:rgb(255, 0, 0);fill-opacity:0;fill-rule:evenodd;stroke:rgb(0, 113, 255);stroke-width:1;" d="M 681.674, 613.316 L 699.198, 589.2 L 709.087, 593.19 L 710.648, 591.108 L 713.598, 592.323 L 717.068, 587.638 L 736.5, 595.793 L 738.235, 593.537 L 751.074, 598.916 L 753.676, 595.272 L 773.281, 603.6 L 765.994, 613.663 L 761.483, 614.01 L 758.534, 618 L 760.442, 621.123 L 747.257, 639.341 L 744.481, 639.688 L 718.109, 628.584 L 717.588, 625.461 L 713.251, 623.726 L 709.607, 625.114 L 681.674, 613.316 z "/>
<path style="fill:rgb(0, 255, 0);fill-opacity:0;fill-rule:evenodd;stroke:rgb(0, 113, 255);stroke-width:1;" d="M 617.133, 216.526 L 642.464, 182 L 703.188, 207.677 L 687.92, 228.324 L 683.062, 226.242 L 667.968, 246.714 L 650.965, 239.601 L 664.671, 221.037 L 655.997, 217.393 L 653.741, 220.343 L 644.372, 216.352 L 637.779, 225.374 L 617.133, 216.526 z "/>
<path style="fill:rgb(0, 0, 255);fill-opacity:0;fill-rule:evenodd;stroke:rgb(0, 113, 255);stroke-width:1;" d="M 362.264, 566.124 L 392.453, 524.658 L 437.736, 543.743 L 433.225, 549.989 L 426.111, 559.705 L 421.948, 557.97 L 415.528, 566.645 L 425.244, 570.635 L 412.926, 587.465 L 362.264, 566.124 z "/>
<path style="fill:rgb(255, 255, 0);fill-opacity:0;fill-rule:evenodd;stroke:rgb(0, 113, 255);stroke-width:1;" d="M 735.979, 558.491 L 741.705, 550.51 L 736.326, 548.254 L 746.91, 533.854 L 751.594, 535.762 L 753.329, 533.507 L 762.177, 537.324 L 763.739, 540.447 L 762.698, 541.835 L 770.505, 544.958 L 771.893, 546.346 L 771.72, 546.693 L 782.303, 551.204 L 783.171, 549.989 L 786.294, 549.816 L 790.978, 551.898 L 791.846, 550.51 L 807.287, 557.103 L 799.827, 566.992 L 797.571, 567.339 L 798.612, 569.074 L 795.142, 573.932 L 789.59, 575.146 L 781.609, 585.903 L 783.344, 586.597 L 776.404, 595.966 L 773.628, 597.007 L 743.093, 583.995 L 741.705, 582.433 L 744.481, 578.616 L 741.878, 577.575 L 745.869, 572.197 L 744.481, 571.503 L 743.613, 569.421 L 746.389, 565.777 L 743.787, 561.787 L 735.979, 558.491 z "/>
<path style="fill:rgb(255, 0, 0);fill-opacity:0;fill-rule:evenodd;stroke:rgb(0, 113, 255);stroke-width:1;" d="M 202.472, 404.424 L 219.302, 381.522 L 232.488, 387.074 L 235.264, 383.431 L 278.638, 401.648 L 275.862, 405.465 L 282.282, 408.241 L 281.935, 408.762 L 288.18, 411.364 L 272.219, 433.398 L 261.115, 428.714 L 259.9, 430.102 L 258.165, 429.408 L 257.298, 430.622 L 209.586, 410.497 L 211.321, 408.068 L 202.472, 404.424 z "/>
<path style="fill:rgb(0, 255, 0);fill-opacity:0;fill-rule:evenodd;stroke:rgb(0, 113, 255);stroke-width:1;" d="M 164.476, 616.265 L 174.192, 603.08 L 184.776, 607.417 L 191.195, 598.742 L 179.918, 594.058 L 189.286, 581.045 L 257.992, 609.846 L 238.733, 636.391 L 206.81, 623.032 L 215.485, 610.887 L 210.453, 608.805 L 208.371, 611.928 L 204.381, 610.367 L 191.889, 627.716 L 164.476, 616.265 z "/>
<path style="fill:rgb(0, 0, 255);fill-opacity:0;fill-rule:evenodd;stroke:rgb(0, 113, 255);stroke-width:1;" d="M 576.534, 360.182 L 582.607, 352.028 L 591.108, 355.671 L 592.496, 353.936 L 602.386, 358.1 L 606.55, 352.375 L 596.66, 348.211 L 600.998, 342.138 L 592.496, 338.495 L 600.477, 327.565 L 664.151, 354.63 L 656.344, 365.04 L 647.842, 361.57 L 642.984, 367.99 L 637.779, 365.908 L 633.962, 371.286 L 639.167, 373.368 L 637.779, 375.277 L 646.281, 378.92 L 638.3, 389.85 L 631.186, 386.727 L 631.533, 386.207 L 625.114, 383.431 L 626.328, 381.869 L 611.408, 375.45 L 610.887, 376.144 L 600.998, 371.98 L 601.518, 371.46 L 592.323, 367.643 L 592.496, 367.296 L 583.995, 363.826 L 584.168, 363.479 L 576.534, 360.182 z "/>
<path style="fill:rgb(255, 255, 0);fill-opacity:0;fill-rule:evenodd;stroke:rgb(0, 113, 255);stroke-width:1;" d="M 291.13, 678.031 L 314.899, 645.587 L 378.92, 672.479 L 364.346, 692.605 L 345.955, 684.797 L 344.567, 686.706 L 338.495, 684.103 L 330.687, 694.86 L 311.256, 686.532 L 291.13, 678.031 z "/>
<path style="fill:rgb(255, 0, 0);fill-opacity:0;fill-rule:evenodd;stroke:rgb(0, 113, 255);stroke-width:1;" d="M 949.555, 278.291 L 963.782, 258.686 L 983.908, 267.014 L 992.583, 255.042 L 984.255, 251.572 L 984.429, 251.572 L 982.347, 248.449 L 973.845, 244.806 L 979.744, 236.825 L 999.87, 245.153 L 1002.99, 240.989 L 1029.54, 252.093 L 995.879, 297.723 L 949.555, 278.291 z "/>
<path style="fill:rgb(0, 255, 0);fill-opacity:0;fill-rule:evenodd;stroke:rgb(0, 113, 255);stroke-width:1;" d="M 216.005, 362.438 L 224.333, 350.987 L 246.194, 320.972 L 289.048, 339.015 L 273.26, 360.876 L 259.033, 380.481 L 229.191, 367.816 L 216.005, 362.438 z "/>
<path style="fill:rgb(0, 0, 255);fill-opacity:0;fill-rule:evenodd;stroke:rgb(0, 113, 255);stroke-width:1;" d="M 667.794, 301.019 L 674.561, 291.824 L 679.419, 293.906 L 683.756, 294.079 L 686.185, 295.12 L 693.472, 285.057 L 691.043, 284.19 L 692.952, 281.588 L 684.797, 278.118 L 691.737, 268.575 L 732.509, 285.925 L 733.897, 283.843 L 744.134, 288.18 L 742.746, 290.089 L 754.023, 294.947 L 747.777, 303.448 L 747.083, 304.316 L 736.326, 299.805 L 727.651, 311.603 L 731.989, 315.767 L 737.02, 318.022 L 730.08, 327.391 L 667.794, 301.019 z "/>
<path style="fill:rgb(255, 255, 0);fill-opacity:0;fill-rule:evenodd;stroke:rgb(0, 113, 255);stroke-width:1;" d="M 269.443, 384.819 L 283.843, 365.214 L 299.631, 343.353 L 337.974, 359.488 L 328.259, 373.021 L 334.678, 375.624 L 314.379, 403.73 L 309.174, 401.475 L 298.59, 397.137 L 269.443, 384.819 z "/>
<path style="fill:rgb(255, 0, 0);fill-opacity:0;fill-rule:evenodd;stroke:rgb(0, 113, 255);stroke-width:1;" d="M 327.565, 103.231 L 355.498, 64.7148 L 402.863, 84.4936 L 399.046, 89.6985 L 389.677, 102.537 L 388.115, 102.017 L 384.472, 106.875 L 376.318, 103.405 L 372.848, 108.089 L 374.93, 108.957 L 367.122, 119.887 L 327.565, 103.231 z "/>
<path style="fill:rgb(0, 255, 0);fill-opacity:0;fill-rule:evenodd;stroke:rgb(0, 113, 255);stroke-width:1;" d="M 651.659, 458.382 L 653.568, 455.78 L 669.356, 434.266 L 742.225, 470.527 L 727.478, 490.479 L 651.659, 458.382 z "/>
<path style="fill:rgb(0, 0, 255);fill-opacity:0;fill-rule:evenodd;stroke:rgb(0, 113, 255);stroke-width:1;" d="M 498.287, 668.662 L 498.634, 667.794 L 534.374, 618.694 L 535.762, 618.694 L 536.456, 618.694 L 560.226, 628.757 L 560.92, 629.625 L 560.746, 630.666 L 550.163, 645.413 L 547.04, 644.025 L 539.926, 654.088 L 541.835, 654.956 L 539.926, 657.732 L 553.98, 663.63 L 552.592, 665.539 L 537.324, 686.185 L 498.807, 670.05 L 498.287, 669.182 L 498.287, 668.662 z "/>
<path style="fill:rgb(255, 255, 0);fill-opacity:0;fill-rule:evenodd;stroke:rgb(0, 113, 255);stroke-width:1;" d="M 695.901, 110.692 L 722.967, 73.5632 L 779.527, 97.3325 L 770.158, 110.345 L 764.433, 107.916 L 749.512, 128.215 L 732.509, 120.928 L 745.522, 103.058 L 733.55, 98.0265 L 717.588, 119.887 L 695.901, 110.692 z "/>
<path style="fill:rgb(255, 0, 0);fill-opacity:0;fill-rule:evenodd;stroke:rgb(0, 113, 255);stroke-width:1;" d="M 419.692, 579.31 L 426.805, 569.594 L 435.654, 573.238 L 445.717, 559.532 L 436.868, 555.888 L 443.808, 546.346 L 498.287, 569.247 L 491.173, 578.963 L 482.672, 575.32 L 480.069, 578.616 L 472.782, 588.679 L 481.457, 592.323 L 478.855, 595.793 L 474.17, 602.212 L 419.692, 579.31 z "/>
<path style="fill:rgb(0, 255, 0);fill-opacity:0;fill-rule:evenodd;stroke:rgb(0, 113, 255);stroke-width:1;" d="M 351.854, 164.997 L 357.059, 157.883 L 366.255, 145.218 L 383.778, 152.678 L 387.595, 147.3 L 419.866, 160.833 L 415.875, 166.211 L 433.225, 173.498 L 425.591, 184.082 L 418.825, 193.103 L 351.854, 164.997 z "/>
<path style="fill:rgb(0, 0, 255);fill-opacity:0;fill-rule:evenodd;stroke:rgb(0, 113, 255);stroke-width:1;" d="M 599.436, 240.989 L 610.54, 225.721 L 642.464, 239.254 L 635.697, 248.449 L 637.432, 253.828 L 668.835, 267.014 L 649.404, 293.212 L 611.408, 277.077 L 628.931, 253.481 L 618.868, 249.143 L 608.805, 244.806 L 599.436, 240.989 z "/>
<path style="fill:rgb(255, 255, 0);fill-opacity:0;fill-rule:evenodd;stroke:rgb(0, 113, 255);stroke-width:1;" d="M 657.558, 533.68 L 659.987, 520.668 L 661.722, 520.841 L 662.589, 516.851 L 665.192, 515.463 L 667.968, 515.81 L 669.876, 506.268 L 675.081, 506.788 L 675.428, 504.533 L 678.204, 504.186 L 682.021, 504.533 L 685.144, 505.574 L 689.135, 506.441 L 694.34, 508.35 L 693.819, 511.126 L 696.595, 511.299 L 698.504, 513.034 L 698.157, 514.769 L 709.26, 515.984 L 711.169, 517.892 L 710.822, 519.8 L 718.803, 520.668 L 718.456, 522.923 L 725.222, 523.617 L 723.314, 533.16 L 722.273, 532.986 L 721.752, 535.936 L 719.67, 535.589 L 718.629, 541.488 L 713.945, 540.967 L 712.21, 549.989 L 707.352, 549.295 L 707.005, 551.377 L 704.229, 552.071 L 699.371, 551.377 L 697.463, 550.336 L 697.81, 548.254 L 691.39, 547.56 L 691.737, 545.305 L 683.93, 544.437 L 684.624, 541.488 L 672.999, 540.273 L 673.693, 537.15 L 663.283, 535.936 L 663.63, 534.374 L 657.558, 533.68 z "/>
<path style="fill:rgb(255, 0, 0);fill-opacity:0;fill-rule:evenodd;stroke:rgb(0, 113, 255);stroke-width:1;" d="M 478.855, 595.793 L 481.457, 592.323 L 491.173, 578.963 L 498.287, 569.247 L 552.939, 592.323 L 533.68, 618.868 L 511.126, 609.326 L 509.911, 611.234 L 494.296, 604.641 L 495.684, 602.733 L 478.855, 595.793 z "/>
<path style="fill:rgb(0, 255, 0);fill-opacity:0;fill-rule:evenodd;stroke:rgb(0, 113, 255);stroke-width:1;" d="M 187.031, 197.441 L 193.971, 187.899 L 200.043, 190.501 L 204.728, 189.113 L 211.147, 180.265 L 209.239, 176.621 L 203.687, 174.366 L 210.8, 164.476 L 262.503, 186.164 L 255.389, 195.879 L 249.837, 193.624 L 245.326, 194.491 L 238.907, 203.34 L 239.948, 207.157 L 245.673, 209.412 L 238.733, 219.128 L 187.031, 197.441 z "/>
<path style="fill:rgb(0, 0, 255);fill-opacity:0;fill-rule:evenodd;stroke:rgb(0, 113, 255);stroke-width:1;" d="M 188.766, 263.023 L 195.359, 254.001 L 198.829, 249.143 L 206.636, 252.44 L 209.412, 248.623 L 207.504, 247.929 L 215.311, 237.172 L 235.437, 245.673 L 227.109, 257.298 L 230.579, 258.686 L 228.497, 261.462 L 233.008, 263.37 L 234.223, 261.635 L 237.172, 259.38 L 244.459, 249.143 L 265.799, 258.165 L 254.175, 274.127 L 260.421, 276.73 L 253.828, 285.751 L 251.399, 289.221 L 188.766, 263.023 z "/>
<path style="fill:rgb(255, 255, 0);fill-opacity:0;fill-rule:evenodd;stroke:rgb(0, 113, 255);stroke-width:1;" d="M 137.758, 667.968 L 155.628, 643.158 L 158.577, 644.372 L 170.722, 627.716 L 184.776, 633.615 L 170.028, 654.088 L 173.151, 655.476 L 171.069, 658.252 L 173.151, 659.119 L 169.161, 664.498 L 180.265, 669.009 L 186.164, 661.028 L 212.709, 672.132 L 197.614, 692.952 L 137.758, 667.968 z "/>
<path style="fill:rgb(255, 0, 0);fill-opacity:0;fill-rule:evenodd;stroke:rgb(0, 113, 255);stroke-width:1;" d="M 673.867, 406.853 L 674.734, 405.465 L 682.195, 395.402 L 693.125, 400.087 L 698.677, 392.626 L 701.453, 393.841 L 705.617, 388.115 L 691.911, 382.216 L 700.759, 370.072 L 748.992, 390.544 L 747.951, 391.932 L 740.317, 402.516 L 728.519, 397.484 L 722.793, 405.292 L 721.232, 404.598 L 716.894, 410.497 L 730.254, 416.222 L 724.528, 423.856 L 722.099, 427.326 L 673.867, 406.853 z "/>
<path style="fill:rgb(0, 255, 0);fill-opacity:0;fill-rule:evenodd;stroke:rgb(0, 113, 255);stroke-width:1;" d="M 123.531, 604.468 L 137.931, 584.515 L 135.676, 583.474 L 149.555, 564.39 L 189.286, 581.045 L 179.918, 594.058 L 175.407, 600.304 L 172.11, 598.916 L 157.71, 618.694 L 123.531, 604.468 z "/>
<path style="fill:rgb(0, 0, 255);fill-opacity:0;fill-rule:evenodd;stroke:rgb(0, 113, 255);stroke-width:1;" d="M 586.944, 503.665 L 589.72, 495.164 L 594.752, 496.031 L 597.875, 486.315 L 599.783, 486.662 L 602.906, 476.946 L 610.54, 478.508 L 611.234, 475.905 L 618.347, 477.293 L 617.653, 479.722 L 623.205, 480.763 L 622.338, 483.713 L 635.871, 486.315 L 637.606, 488.571 L 637.259, 489.438 L 644.893, 490.653 L 644.199, 492.561 L 655.476, 494.47 L 657.211, 496.552 L 654.262, 505.921 L 653.047, 505.747 L 652.18, 508.523 L 651.139, 508.35 L 650.445, 510.605 L 647.669, 513.208 L 644.199, 512.687 L 641.423, 521.709 L 636.044, 520.668 L 635.524, 522.403 L 632.921, 522.576 L 629.104, 521.882 L 627.022, 520.841 L 627.543, 518.933 L 619.215, 517.372 L 619.562, 516.157 L 617.133, 515.637 L 615.745, 513.902 L 616.092, 512.687 L 600.824, 509.911 L 601.345, 508.003 L 593.19, 506.615 L 593.711, 504.88 L 586.944, 503.665 z "/>
<path style="fill:rgb(255, 255, 0);fill-opacity:0;fill-rule:evenodd;stroke:rgb(0, 113, 255);stroke-width:1;" d="M 411.538, 130.644 L 419.345, 119.887 L 417.784, 117.458 L 427.673, 103.752 L 434.786, 94.036 L 477.987, 112.253 L 476.252, 114.682 L 468.792, 125.092 L 460.985, 135.676 L 456.647, 135.676 L 449.013, 146.259 L 439.991, 142.442 L 447.625, 131.859 L 446.237, 129.43 L 442.767, 129.777 L 435.133, 140.36 L 426.285, 136.543 L 433.919, 126.133 L 432.184, 123.704 L 428.714, 123.878 L 421.08, 134.635 L 411.538, 130.644 z "/>
<path style="fill:rgb(255, 0, 0);fill-opacity:0;fill-rule:evenodd;stroke:rgb(0, 113, 255);stroke-width:1;" d="M 483.366, 221.557 L 489.265, 213.403 L 498.634, 200.564 L 510.432, 205.595 L 517.892, 195.359 L 528.996, 200.043 L 531.945, 195.879 L 551.03, 203.86 L 537.324, 222.945 L 539.579, 223.813 L 527.261, 240.815 L 524.138, 240.989 L 514.422, 236.998 L 513.381, 234.049 L 497.246, 227.283 L 493.602, 228.324 L 484.407, 224.333 L 483.366, 221.557 z "/>
<path style="fill:rgb(0, 255, 0);fill-opacity:0;fill-rule:evenodd;stroke:rgb(0, 113, 255);stroke-width:1;" d="M 919.02, 324.962 L 933.941, 304.663 L 974.713, 322.186 L 967.252, 332.075 L 970.549, 333.463 L 950.943, 360.182 L 930.818, 351.507 L 933.941, 347.343 L 921.796, 342.138 L 930.644, 329.993 L 919.02, 324.962 z "/>
<path style="fill:rgb(0, 0, 255);fill-opacity:0;fill-rule:evenodd;stroke:rgb(0, 113, 255);stroke-width:1;" d="M 995.185, 215.311 L 1010.28, 194.838 L 1056.95, 214.791 L 1032.66, 247.755 L 1002.65, 235.09 L 1012.01, 222.425 L 995.185, 215.311 z "/>
<path style="fill:rgb(255, 255, 0);fill-opacity:0;fill-rule:evenodd;stroke:rgb(0, 113, 255);stroke-width:1;" d="M 757.84, 449.36 L 764.259, 440.685 L 768.076, 435.48 L 779.007, 440.165 L 784.038, 433.225 L 782.303, 432.531 L 787.855, 424.897 L 778.66, 420.907 L 787.682, 408.762 L 789.07, 406.68 L 828.627, 423.509 L 819.085, 436.348 L 810.41, 432.704 L 800.867, 445.543 L 804.164, 446.931 L 791.846, 463.761 L 757.84, 449.36 z "/>
<path style="fill:rgb(255, 0, 0);fill-opacity:0;fill-rule:evenodd;stroke:rgb(0, 113, 255);stroke-width:1;" d="M 657.385, 296.682 L 687.573, 255.736 L 686.359, 255.216 L 696.422, 241.683 L 688.614, 238.213 L 704.056, 217.046 L 736.5, 230.753 L 720.885, 252.093 L 712.383, 248.449 L 702.494, 262.156 L 697.983, 260.247 L 691.737, 268.575 L 684.797, 278.118 L 674.561, 291.824 L 667.794, 301.019 L 657.385, 296.682 z "/>
<path style="fill:rgb(0, 255, 0);fill-opacity:0;fill-rule:evenodd;stroke:rgb(0, 113, 255);stroke-width:1;" d="M 306.918, 446.584 L 311.95, 439.644 L 348.384, 454.739 L 389.33, 398.352 L 352.895, 383.257 L 357.927, 376.491 L 405.812, 396.79 L 354.977, 466.71 L 306.918, 446.584 z "/>
<path style="fill:rgb(0, 0, 255);fill-opacity:0;fill-rule:evenodd;stroke:rgb(0, 113, 255);stroke-width:1;" d="M 463.414, 73.5632 L 463.934, 72.6957 L 472.088, 61.4183 L 482.498, 65.7558 L 486.836, 59.6834 L 484.06, 58.4689 L 487.877, 53.0904 L 480.416, 49.9675 L 488.224, 39.3841 L 532.119, 57.9484 L 527.261, 64.5413 L 524.658, 68.0113 L 516.678, 64.7148 L 513.034, 69.5728 L 508.523, 67.6643 L 504.186, 73.7367 L 511.646, 76.8597 L 511.299, 77.3802 L 516.331, 79.4622 L 508.003, 91.0865 L 507.309, 91.954 L 463.414, 73.5632 z "/>
<path style="fill:rgb(255, 255, 0);fill-opacity:0;fill-rule:evenodd;stroke:rgb(0, 113, 255);stroke-width:1;" d="M 724.528, 423.856 L 730.254, 416.222 L 740.317, 402.516 L 747.951, 391.932 L 787.682, 408.762 L 778.66, 420.907 L 768.076, 435.48 L 764.259, 440.685 L 724.528, 423.856 z "/>
<path style="fill:rgb(255, 0, 0);fill-opacity:0;fill-rule:evenodd;stroke:rgb(0, 113, 255);stroke-width:1;" d="M 233.182, 226.936 L 238.733, 219.128 L 245.673, 209.412 L 255.389, 195.879 L 262.503, 186.164 L 297.202, 200.564 L 288.527, 212.362 L 282.802, 220.343 L 275.515, 217.22 L 260.421, 238.213 L 233.182, 226.936 z "/>
<path style="fill:rgb(0, 255, 0);fill-opacity:0;fill-rule:evenodd;stroke:rgb(0, 113, 255);stroke-width:1;" d="M 778.486, 60.3774 L 793.407, 40.4251 L 853.784, 66.2763 L 838.864, 86.2286 L 778.486, 60.3774 z "/>
<path style="fill:rgb(0, 0, 255);fill-opacity:0;fill-rule:evenodd;stroke:rgb(0, 113, 255);stroke-width:1;" d="M 305.357, 148.861 L 313.511, 137.584 L 322.88, 141.574 L 331.555, 129.777 L 329.3, 126.307 L 323.401, 123.878 L 329.3, 115.897 L 373.889, 134.635 L 366.949, 144.177 L 357.58, 140.187 L 347.69, 153.893 L 357.059, 157.883 L 351.854, 164.997 L 349.946, 167.599 L 305.357, 148.861 z "/>
<path style="fill:rgb(255, 255, 0);fill-opacity:0;fill-rule:evenodd;stroke:rgb(0, 113, 255);stroke-width:1;" d="M 159.965, 527.955 L 176.448, 505.4 L 179.05, 501.93 L 185.296, 504.706 L 186.858, 502.451 L 212.188, 513.034 L 210.453, 515.29 L 223.119, 520.668 L 204.207, 546.519 L 159.965, 527.955 z "/>
<path style="fill:rgb(255, 0, 0);fill-opacity:0;fill-rule:evenodd;stroke:rgb(0, 113, 255);stroke-width:1;" d="M 438.95, 205.248 L 446.064, 195.532 L 447.452, 193.624 L 455.953, 197.094 L 464.455, 185.47 L 463.067, 182.867 L 456.994, 180.438 L 463.24, 171.937 L 506.268, 189.98 L 498.981, 200.043 L 489.785, 196.226 L 479.896, 209.586 L 489.265, 213.403 L 483.366, 221.557 L 482.151, 223.292 L 438.95, 205.248 z "/>
<path style="fill:rgb(0, 255, 0);fill-opacity:0;fill-rule:evenodd;stroke:rgb(0, 113, 255);stroke-width:1;" d="M 741.705, 332.422 L 751.247, 319.237 L 756.625, 321.492 L 771.199, 301.887 L 802.949, 315.42 L 787.335, 336.586 L 793.407, 339.015 L 784.906, 350.64 L 784.732, 350.64 L 741.705, 332.422 z "/>
<path style="fill:rgb(0, 0, 255);fill-opacity:0;fill-rule:evenodd;stroke:rgb(0, 113, 255);stroke-width:1;" d="M 839.731, 370.766 L 846.671, 361.223 L 855.519, 365.04 L 865.582, 351.16 L 856.734, 347.517 L 862.112, 340.056 L 905.313, 358.274 L 899.935, 365.734 L 890.74, 361.744 L 880.677, 375.624 L 889.872, 379.44 L 881.197, 391.412 L 841.64, 374.756 L 843.375, 372.327 L 839.731, 370.766 z "/>
<path style="fill:rgb(255, 255, 0);fill-opacity:0;fill-rule:evenodd;stroke:rgb(0, 113, 255);stroke-width:1;" d="M 856.213, 178.877 L 863.327, 169.161 L 898.894, 184.255 L 892.128, 193.45 L 929.95, 209.586 L 922.837, 219.128 L 952.331, 231.62 L 944.871, 241.683 L 907.916, 225.895 L 914.682, 216.699 L 878.421, 201.258 L 885.535, 191.368 L 856.213, 178.877 z "/>
<path style="fill:rgb(255, 0, 0);fill-opacity:0;fill-rule:evenodd;stroke:rgb(0, 113, 255);stroke-width:1;" d="M 638.3, 389.85 L 646.281, 378.92 L 647.148, 377.532 L 656.517, 381.522 L 659.293, 377.532 L 663.977, 371.286 L 654.782, 367.296 L 656.344, 365.04 L 664.151, 354.63 L 700.759, 370.072 L 691.911, 382.216 L 691.564, 382.737 L 683.409, 379.267 L 682.021, 381.175 L 675.775, 389.677 L 683.756, 393.147 L 682.195, 395.402 L 674.734, 405.465 L 638.3, 389.85 z "/>
<path style="fill:rgb(0, 255, 0);fill-opacity:0;fill-rule:evenodd;stroke:rgb(0, 113, 255);stroke-width:1;" d="M 429.581, 302.928 L 455.78, 266.84 L 496.031, 283.669 L 487.009, 295.988 L 472.088, 289.742 L 454.912, 313.511 L 429.581, 302.928 z "/>
<path style="fill:rgb(0, 0, 255);fill-opacity:0;fill-rule:evenodd;stroke:rgb(0, 113, 255);stroke-width:1;" d="M 305.357, 226.762 L 307.959, 223.119 L 318.022, 209.239 L 374.93, 233.008 L 360.182, 253.654 L 346.649, 246.888 L 347.17, 246.194 L 322.013, 234.743 L 322.707, 234.049 L 305.357, 226.762 z "/>
<path style="fill:rgb(255, 255, 0);fill-opacity:0;fill-rule:evenodd;stroke:rgb(0, 113, 255);stroke-width:1;" d="M 367.296, 256.951 L 382.216, 236.131 L 432.704, 257.124 L 417.784, 277.944 L 367.296, 256.951 z "/>
<path style="fill:rgb(255, 0, 0);fill-opacity:0;fill-rule:evenodd;stroke:rgb(0, 113, 255);stroke-width:1;" d="M 481.631, 502.971 L 510.258, 463.067 L 536.283, 473.65 L 507.656, 513.728 L 481.631, 502.971 z "/>
<path style="fill:rgb(0, 255, 0);fill-opacity:0;fill-rule:evenodd;stroke:rgb(0, 113, 255);stroke-width:1;" d="M 150.943, 247.235 L 180.091, 206.81 L 190.327, 211.147 L 190.848, 210.28 L 205.075, 216.352 L 201.952, 220.516 L 195.359, 229.885 L 182, 248.276 L 175.407, 257.471 L 150.943, 247.235 z "/>
<path style="fill:rgb(0, 0, 255);fill-opacity:0;fill-rule:evenodd;stroke:rgb(0, 113, 255);stroke-width:1;" d="M 807.113, 360.182 L 831.23, 327.044 L 855.866, 337.454 L 845.457, 351.681 L 851.702, 354.283 L 846.671, 361.223 L 839.731, 370.766 L 837.996, 373.195 L 807.113, 360.182 z "/>
<path style="fill:rgb(255, 255, 0);fill-opacity:0;fill-rule:evenodd;stroke:rgb(0, 113, 255);stroke-width:1;" d="M 596.66, 61.2448 L 611.755, 40.4251 L 617.306, 42.854 L 623.032, 45.283 L 624.246, 47.5385 L 628.584, 49.2735 L 627.369, 51.0085 L 629.972, 50.6615 L 633.615, 52.0494 L 635.003, 51.8759 L 647.322, 57.0809 L 648.189, 55.8664 L 658.773, 60.3774 L 643.678, 81.0236 L 633.095, 76.5127 L 634.136, 75.1247 L 621.817, 69.9198 L 622.164, 69.5728 L 615.745, 66.7968 L 615.398, 67.3173 L 607.764, 64.0208 L 606.723, 65.4088 L 596.66, 61.2448 z "/>
<path style="fill:rgb(255, 0, 0);fill-opacity:0;fill-rule:evenodd;stroke:rgb(0, 113, 255);stroke-width:1;" d="M 100.629, 649.057 L 108.263, 638.647 L 119.887, 622.685 L 152.678, 636.565 L 133.594, 662.936 L 100.629, 649.057 z "/>
<path style="fill:rgb(0, 255, 0);fill-opacity:0;fill-rule:evenodd;stroke:rgb(0, 113, 255);stroke-width:1;" d="M 452.31, 147.647 L 459.944, 137.064 L 466.363, 139.666 L 470.007, 138.452 L 475.385, 130.991 L 475.038, 127.695 L 468.792, 125.092 L 476.252, 114.682 L 486.142, 118.846 L 484.927, 120.581 L 494.99, 124.745 L 496.205, 123.01 L 509.391, 128.562 L 501.236, 140.013 L 493.776, 136.717 L 490.653, 136.89 L 484.58, 145.218 L 486.142, 147.126 L 493.602, 150.249 L 487.183, 159.271 L 485.448, 161.527 L 471.741, 155.801 L 472.956, 154.066 L 463.934, 150.249 L 462.893, 151.984 L 452.31, 147.647 z "/>
<path style="fill:rgb(0, 0, 255);fill-opacity:0;fill-rule:evenodd;stroke:rgb(0, 113, 255);stroke-width:1;" d="M 801.214, 144.871 L 802.776, 142.442 L 805.205, 138.972 L 803.123, 138.105 L 807.807, 131.338 L 809.889, 132.032 L 812.665, 128.042 L 859.683, 147.994 L 847.538, 164.65 L 801.214, 144.871 z "/>
<path style="fill:rgb(255, 255, 0);fill-opacity:0;fill-rule:evenodd;stroke:rgb(0, 113, 255);stroke-width:1;" d="M 886.055, 329.82 L 896.291, 315.94 L 910.518, 296.855 L 911.733, 295.294 L 933.941, 304.663 L 919.02, 324.962 L 908.436, 339.362 L 886.055, 329.82 z "/>
<path style="fill:rgb(255, 0, 0);fill-opacity:0;fill-rule:evenodd;stroke:rgb(0, 113, 255);stroke-width:1;" d="M 765.3, 279.679 L 769.811, 273.433 L 771.72, 270.831 L 775.363, 269.963 L 785.773, 255.91 L 784.732, 253.134 L 784.906, 252.96 L 792.019, 243.244 L 813.88, 252.613 L 811.798, 255.389 L 806.246, 262.85 L 802.429, 263.37 L 792.366, 277.077 L 793.754, 279.853 L 789.59, 285.404 L 787.161, 288.874 L 765.3, 279.679 z "/>
<path style="fill:rgb(0, 255, 0);fill-opacity:0;fill-rule:evenodd;stroke:rgb(0, 113, 255);stroke-width:1;" d="M 734.418, 258.339 L 749.512, 237.866 L 784.906, 252.96 L 784.732, 253.134 L 771.72, 270.831 L 769.811, 273.433 L 759.748, 269.269 L 761.31, 267.014 L 748.818, 261.635 L 747.083, 263.891 L 734.418, 258.339 z "/>
<path style="fill:rgb(0, 0, 255);fill-opacity:0;fill-rule:evenodd;stroke:rgb(0, 113, 255);stroke-width:1;" d="M 416.049, 196.92 L 418.825, 193.103 L 425.591, 184.082 L 430.449, 186.164 L 432.531, 183.041 L 435.133, 184.082 L 438.95, 178.877 L 436.695, 177.836 L 438.603, 175.233 L 433.398, 173.151 L 443.114, 159.792 L 461.679, 167.426 L 442.247, 193.971 L 446.064, 195.532 L 438.95, 205.248 L 438.256, 206.289 L 416.049, 196.92 z "/>
<path style="fill:rgb(255, 255, 0);fill-opacity:0;fill-rule:evenodd;stroke:rgb(0, 113, 255);stroke-width:1;" d="M 188.939, 648.536 L 204.034, 627.716 L 235.437, 640.902 L 220.343, 661.722 L 188.939, 648.536 z "/>
<path style="fill:rgb(255, 0, 0);fill-opacity:0;fill-rule:evenodd;stroke:rgb(0, 113, 255);stroke-width:1;" d="M 265.973, 248.623 L 291.303, 213.576 L 288.527, 212.362 L 297.202, 200.564 L 318.022, 209.239 L 307.959, 223.119 L 301.193, 220.169 L 277.25, 253.307 L 265.973, 248.623 z "/>
<path style="fill:rgb(0, 255, 0);fill-opacity:0;fill-rule:evenodd;stroke:rgb(0, 113, 255);stroke-width:1;" d="M 899.588, 399.219 L 913.121, 380.481 L 926.654, 362.091 L 944.177, 369.378 L 917.111, 406.506 L 899.588, 399.219 z "/>
<path style="fill:rgb(0, 0, 255);fill-opacity:0;fill-rule:evenodd;stroke:rgb(0, 113, 255);stroke-width:1;" d="M 989.98, 405.465 L 1002.3, 388.636 L 1031.97, 401.128 L 1040.12, 404.598 L 1027.8, 421.427 L 989.98, 405.465 z "/>
<path style="fill:rgb(255, 255, 0);fill-opacity:0;fill-rule:evenodd;stroke:rgb(0, 113, 255);stroke-width:1;" d="M 388.809, 122.143 L 405.639, 99.0674 L 408.068, 100.108 L 410.15, 96.9855 L 408.588, 95.5975 L 405.118, 94.2095 L 412.058, 84.4936 L 434.786, 94.036 L 427.673, 103.752 L 423.336, 102.017 L 420.733, 101.496 L 419.172, 103.752 L 421.948, 104.793 L 404.598, 128.736 L 388.809, 122.143 z "/>
<path style="fill:rgb(255, 0, 0);fill-opacity:0;fill-rule:evenodd;stroke:rgb(0, 113, 255);stroke-width:1;" d="M 978.009, 421.774 L 989.98, 405.465 L 1027.8, 421.427 L 1016.01, 437.736 L 978.009, 421.774 z "/>
<path style="fill:rgb(0, 255, 0);fill-opacity:0;fill-rule:evenodd;stroke:rgb(0, 113, 255);stroke-width:1;" d="M 846.845, 314.552 L 872.869, 279.332 L 889.525, 286.445 L 871.655, 310.735 L 863.5, 321.666 L 846.845, 314.552 z "/>
<path style="fill:rgb(0, 0, 255);fill-opacity:0;fill-rule:evenodd;stroke:rgb(0, 113, 255);stroke-width:1;" d="M 830.709, 307.612 L 835.567, 301.019 L 856.734, 272.392 L 872.869, 279.332 L 846.845, 314.552 L 830.709, 307.612 z "/>
<path style="fill:rgb(255, 255, 0);fill-opacity:0;fill-rule:evenodd;stroke:rgb(0, 113, 255);stroke-width:1;" d="M 133.941, 461.679 L 141.054, 452.136 L 142.789, 451.789 L 147.647, 445.023 L 153.546, 437.042 L 153.199, 435.48 L 159.965, 426.285 L 180.785, 435.133 L 167.773, 443.982 L 149.902, 468.445 L 133.941, 461.679 z "/>
<path style="fill:rgb(255, 0, 0);fill-opacity:0;fill-rule:evenodd;stroke:rgb(0, 113, 255);stroke-width:1;" d="M 550.51, 111.039 L 551.551, 109.477 L 560.052, 97.853 L 563.175, 93.689 L 570.982, 82.9321 L 581.566, 68.5318 L 589.2, 71.4812 L 595.272, 74.2572 L 582.954, 91.26 L 580.351, 90.0455 L 577.228, 94.2095 L 580.004, 95.2505 L 576.534, 99.9349 L 572.197, 105.834 L 564.216, 116.764 L 550.51, 111.039 z "/>
<path style="fill:rgb(0, 255, 0);fill-opacity:0;fill-rule:evenodd;stroke:rgb(0, 113, 255);stroke-width:1;" d="M 607.591, 38.6901 L 615.918, 27.2392 L 667.274, 48.9265 L 658.773, 60.3774 L 648.189, 55.8664 L 646.628, 55.1724 L 645.934, 53.2639 L 637.085, 49.6205 L 635.871, 47.712 L 634.136, 46.8445 L 633.095, 48.2325 L 627.369, 45.977 L 628.41, 44.589 L 626.328, 43.7215 L 623.899, 43.895 L 619.909, 42.1601 L 617.306, 42.854 L 611.755, 40.4251 L 607.591, 38.6901 z "/>
<path style="fill:rgb(0, 0, 255);fill-opacity:0;fill-rule:evenodd;stroke:rgb(0, 113, 255);stroke-width:1;" d="M 120.408, 443.288 L 123.878, 438.43 L 139.319, 417.61 L 159.965, 426.285 L 153.199, 435.48 L 141.054, 452.136 L 120.408, 443.288 z "/>
<path style="fill:rgb(255, 255, 0);fill-opacity:0;fill-rule:evenodd;stroke:rgb(0, 113, 255);stroke-width:1;" d="M 119.193, 706.484 L 126.654, 696.075 L 179.05, 718.282 L 171.59, 728.519 L 159.965, 723.661 L 159.098, 721.926 L 133.073, 710.995 L 130.297, 711.169 L 119.193, 706.484 z "/>
<path style="fill:rgb(255, 0, 0);fill-opacity:0;fill-rule:evenodd;stroke:rgb(0, 113, 255);stroke-width:1;" d="M 218.955, 497.072 L 244.459, 462.026 L 258.512, 467.925 L 257.471, 469.313 L 235.09, 499.848 L 232.835, 502.971 L 218.955, 497.072 z "/>
<path style="fill:rgb(0, 255, 0);fill-opacity:0;fill-rule:evenodd;stroke:rgb(0, 113, 255);stroke-width:1;" d="M 508.35, 172.631 L 514.249, 164.476 L 513.208, 162.394 L 531.078, 137.758 L 532.466, 136.023 L 547.04, 142.095 L 527.781, 168.64 L 524.832, 168.814 L 518.759, 176.968 L 508.35, 172.631 z "/>
<path style="fill:rgb(0, 0, 255);fill-opacity:0;fill-rule:evenodd;stroke:rgb(0, 113, 255);stroke-width:1;" d="M 191.889, 485.621 L 199.87, 474.691 L 217.567, 450.575 L 231.273, 456.474 L 205.769, 491.52 L 191.889, 485.621 z "/>
<path style="fill:rgb(255, 255, 0);fill-opacity:0;fill-rule:evenodd;stroke:rgb(0, 113, 255);stroke-width:1;" d="M 156.495, 462.546 L 162.394, 454.392 L 180.785, 435.133 L 195.185, 441.206 L 177.662, 465.322 L 174.019, 470.007 L 156.495, 462.546 z "/>
<path style="fill:rgb(255, 0, 0);fill-opacity:0;fill-rule:evenodd;stroke:rgb(0, 113, 255);stroke-width:1;" d="M 205.769, 491.52 L 231.273, 456.474 L 244.459, 462.026 L 218.955, 497.072 L 205.769, 491.52 z "/>
<path style="fill:rgb(0, 255, 0);fill-opacity:0;fill-rule:evenodd;stroke:rgb(0, 113, 255);stroke-width:1;" d="M 116.938, 234.223 L 123.531, 225.027 L 129.95, 216.179 L 136.543, 207.157 L 142.442, 198.655 L 147.3, 192.062 L 158.23, 196.573 L 144.003, 216.352 L 128.389, 237.866 L 127.868, 238.733 L 116.938, 234.223 z "/>
<path style="fill:rgb(0, 0, 255);fill-opacity:0;fill-rule:evenodd;stroke:rgb(0, 113, 255);stroke-width:1;" d="M 564.216, 116.764 L 572.197, 105.834 L 614.01, 123.531 L 606.029, 134.461 L 564.216, 116.764 z "/>
<path style="fill:rgb(255, 255, 0);fill-opacity:0;fill-rule:evenodd;stroke:rgb(0, 113, 255);stroke-width:1;" d="M 715.333, 259.553 L 720.885, 252.093 L 736.5, 230.753 L 740.143, 225.721 L 753.329, 231.447 L 728.692, 265.105 L 715.333, 259.553 z "/>
<path style="fill:rgb(255, 0, 0);fill-opacity:0;fill-rule:evenodd;stroke:rgb(0, 113, 255);stroke-width:1;" d="M 141.401, 243.244 L 150.77, 230.232 L 149.035, 229.538 L 155.107, 221.037 L 169.334, 201.258 L 180.785, 206.116 L 180.091, 206.81 L 150.943, 247.235 L 141.401, 243.244 z "/>
<path style="fill:rgb(0, 255, 0);fill-opacity:0;fill-rule:evenodd;stroke:rgb(0, 113, 255);stroke-width:1;" d="M 268.228, 438.95 L 272.219, 433.398 L 288.18, 411.364 L 298.59, 397.137 L 309.174, 401.475 L 278.812, 443.288 L 268.228, 438.95 z "/>
<path style="fill:rgb(0, 0, 255);fill-opacity:0;fill-rule:evenodd;stroke:rgb(0, 113, 255);stroke-width:1;" d="M 175.407, 257.471 L 182, 248.276 L 183.908, 247.582 L 184.429, 246.888 L 195.359, 231.794 L 195.359, 229.885 L 201.952, 220.516 L 215.485, 226.242 L 208.718, 235.61 L 206.289, 236.304 L 203.687, 239.948 L 201.258, 238.907 L 197.614, 243.938 L 200.043, 244.979 L 194.838, 252.266 L 195.359, 254.001 L 188.766, 263.023 L 175.407, 257.471 z "/>
<path style="fill:rgb(255, 255, 0);fill-opacity:0;fill-rule:evenodd;stroke:rgb(0, 113, 255);stroke-width:1;" d="M 589.2, 71.4812 L 596.66, 61.2448 L 606.723, 65.4088 L 607.417, 67.6643 L 613.316, 70.0933 L 612.275, 71.6547 L 618.694, 74.2572 L 619.735, 72.8692 L 630.319, 77.3802 L 633.095, 76.5127 L 643.678, 81.0236 L 644.719, 81.5441 L 637.259, 91.7805 L 625.461, 86.9226 L 624.767, 85.0141 L 613.489, 80.3296 L 613.836, 79.8092 L 608.111, 77.3802 L 607.764, 77.9007 L 601.865, 75.2982 L 599.436, 75.8187 L 595.272, 74.2572 L 589.2, 71.4812 z "/>
<path style="fill:rgb(255, 0, 0);fill-opacity:0;fill-rule:evenodd;stroke:rgb(0, 113, 255);stroke-width:1;" d="M 418.131, 298.243 L 420.56, 294.773 L 444.155, 261.982 L 455.78, 266.84 L 429.581, 302.928 L 418.131, 298.243 z "/>
<path style="fill:rgb(0, 255, 0);fill-opacity:0;fill-rule:evenodd;stroke:rgb(0, 113, 255);stroke-width:1;" d="M 572.197, 105.834 L 576.534, 99.9349 L 585.209, 103.578 L 588.332, 99.2409 L 620.429, 112.774 L 621.47, 113.294 L 614.01, 123.531 L 572.197, 105.834 z "/>
<path style="fill:rgb(0, 0, 255);fill-opacity:0;fill-rule:evenodd;stroke:rgb(0, 113, 255);stroke-width:1;" d="M 787.508, 142.442 L 791.325, 136.717 L 789.07, 135.849 L 795.489, 126.48 L 798.092, 125.613 L 800.867, 121.449 L 800.867, 119.367 L 808.328, 109.477 L 821.861, 114.682 L 812.665, 128.042 L 809.889, 132.032 L 807.807, 131.338 L 803.123, 138.105 L 805.205, 138.972 L 802.776, 142.442 L 798.092, 140.707 L 794.969, 145.391 L 787.508, 142.442 z "/>
<path style="fill:rgb(255, 255, 0);fill-opacity:0;fill-rule:evenodd;stroke:rgb(0, 113, 255);stroke-width:1;" d="M 293.212, 143.656 L 303.275, 130.124 L 307.612, 131.859 L 310.562, 127.868 L 306.051, 126.133 L 313.511, 115.897 L 320.104, 118.673 L 324.442, 112.6 L 322.88, 112.08 L 325.483, 108.436 L 332.422, 111.386 L 329.3, 115.897 L 323.401, 123.878 L 313.511, 137.584 L 305.357, 148.861 L 293.212, 143.656 z "/>
<path style="fill:rgb(255, 0, 0);fill-opacity:0;fill-rule:evenodd;stroke:rgb(0, 113, 255);stroke-width:1;" d="M 409.109, 289.915 L 417.784, 277.944 L 432.704, 257.124 L 444.155, 261.982 L 420.56, 294.773 L 409.109, 289.915 z "/>
<path style="fill:rgb(0, 255, 0);fill-opacity:0;fill-rule:evenodd;stroke:rgb(0, 113, 255);stroke-width:1;" d="M 235.09, 499.848 L 257.471, 469.313 L 269.443, 474.344 L 268.749, 475.385 L 255.91, 492.908 L 247.061, 504.88 L 235.09, 499.848 z "/>
<path style="fill:rgb(0, 0, 255);fill-opacity:0;fill-rule:evenodd;stroke:rgb(0, 113, 255);stroke-width:1;" d="M 595.966, 88.6576 L 603.947, 77.7272 L 625.461, 86.9226 L 637.259, 91.7805 L 629.278, 102.711 L 628.063, 102.19 L 595.966, 88.6576 z "/>
<path style="fill:rgb(255, 255, 0);fill-opacity:0;fill-rule:evenodd;stroke:rgb(0, 113, 255);stroke-width:1;" d="M 142.962, 528.128 L 160.312, 504.359 L 163.609, 499.848 L 176.448, 505.4 L 159.965, 527.955 L 155.975, 533.507 L 142.962, 528.128 z "/>
<path style="fill:rgb(255, 0, 0);fill-opacity:0;fill-rule:evenodd;stroke:rgb(0, 113, 255);stroke-width:1;" d="M 199.87, 552.418 L 204.207, 546.519 L 223.119, 520.668 L 223.813, 519.974 L 234.917, 524.658 L 211.147, 557.103 L 199.87, 552.418 z "/>
<path style="fill:rgb(0, 255, 0);fill-opacity:0;fill-rule:evenodd;stroke:rgb(0, 113, 255);stroke-width:1;" d="M 329.126, 402.689 L 337.28, 391.585 L 368.684, 404.598 L 360.703, 415.702 L 329.126, 402.689 z "/>
<path style="fill:rgb(0, 0, 255);fill-opacity:0;fill-rule:evenodd;stroke:rgb(0, 113, 255);stroke-width:1;" d="M 453.524, 68.1848 L 473.129, 41.1191 L 476.599, 42.6805 L 482.151, 35.0466 L 489.265, 37.9961 L 488.224, 39.3841 L 480.416, 49.9675 L 472.088, 61.4183 L 463.934, 72.6957 L 453.524, 68.1848 z "/>
<path style="fill:rgb(255, 255, 0);fill-opacity:0;fill-rule:evenodd;stroke:rgb(0, 113, 255);stroke-width:1;" d="M 588.332, 99.2409 L 595.966, 88.6576 L 628.063, 102.19 L 620.429, 112.774 L 588.332, 99.2409 z "/>
<path style="fill:rgb(255, 0, 0);fill-opacity:0;fill-rule:evenodd;stroke:rgb(0, 113, 255);stroke-width:1;" d="M 104.793, 183.041 L 111.386, 174.019 L 143.309, 187.378 L 149.035, 189.807 L 147.3, 192.062 L 142.442, 198.655 L 104.793, 183.041 z "/>
<path style="fill:rgb(0, 255, 0);fill-opacity:0;fill-rule:evenodd;stroke:rgb(0, 113, 255);stroke-width:1;" d="M 868.185, 323.401 L 876.166, 312.644 L 871.655, 310.735 L 889.525, 286.445 L 890.219, 285.404 L 900.802, 289.742 L 899.241, 291.997 L 885.014, 311.256 L 874.084, 326.003 L 868.185, 323.401 z "/>
<path style="fill:rgb(0, 0, 255);fill-opacity:0;fill-rule:evenodd;stroke:rgb(0, 113, 255);stroke-width:1;" d="M 540.794, 166.385 L 548.428, 155.801 L 579.484, 168.814 L 571.676, 179.397 L 540.794, 166.385 z "/>
<path style="fill:rgb(255, 255, 0);fill-opacity:0;fill-rule:evenodd;stroke:rgb(0, 113, 255);stroke-width:1;" d="M 428.714, 57.7749 L 446.758, 32.9646 L 460.117, 38.5166 L 442.073, 63.3268 L 428.714, 57.7749 z "/>
<path style="fill:rgb(255, 0, 0);fill-opacity:0;fill-rule:evenodd;stroke:rgb(0, 113, 255);stroke-width:1;" d="M 532.986, 176.968 L 540.794, 166.385 L 571.676, 179.397 L 564.043, 190.154 L 532.986, 176.968 z "/>
<path style="fill:rgb(0, 255, 0);fill-opacity:0;fill-rule:evenodd;stroke:rgb(0, 113, 255);stroke-width:1;" d="M 789.59, 285.404 L 793.754, 279.853 L 806.246, 262.85 L 811.798, 255.389 L 822.728, 259.9 L 802.602, 287.139 L 800.52, 290.089 L 789.59, 285.404 z "/>
<path style="fill:rgb(0, 0, 255);fill-opacity:0;fill-rule:evenodd;stroke:rgb(0, 113, 255);stroke-width:1;" d="M 649.404, 293.212 L 668.835, 267.014 L 679.592, 252.266 L 686.359, 255.216 L 687.573, 255.736 L 657.385, 296.682 L 649.404, 293.212 z "/>
<path style="fill:rgb(255, 255, 0);fill-opacity:0;fill-rule:evenodd;stroke:rgb(0, 113, 255);stroke-width:1;" d="M 181.306, 658.946 L 188.939, 648.536 L 220.343, 661.722 L 212.709, 672.132 L 186.164, 661.028 L 181.306, 658.946 z "/>
<path style="fill:rgb(255, 0, 0);fill-opacity:0;fill-rule:evenodd;stroke:rgb(0, 113, 255);stroke-width:1;" d="M 828.28, 190.674 L 830.883, 187.205 L 854.652, 196.4 L 866.103, 201.258 L 847.191, 205.942 L 843.028, 211.494 L 834.353, 208.024 L 828.28, 190.674 z "/>
<path style="fill:rgb(0, 255, 0);fill-opacity:0;fill-rule:evenodd;stroke:rgb(0, 113, 255);stroke-width:1;" d="M 824.463, 296.335 L 845.63, 267.708 L 856.734, 272.392 L 835.567, 301.019 L 824.463, 296.335 z "/>
<path style="fill:rgb(0, 0, 255);fill-opacity:0;fill-rule:evenodd;stroke:rgb(0, 113, 255);stroke-width:1;" d="M 415.875, 52.3964 L 433.919, 27.5862 L 446.758, 32.9646 L 428.714, 57.7749 L 415.875, 52.3964 z "/>
<path style="fill:rgb(255, 255, 0);fill-opacity:0;fill-rule:evenodd;stroke:rgb(0, 113, 255);stroke-width:1;" d="M 978.183, 219.128 L 989.98, 203.166 L 999.349, 190.327 L 1010.28, 194.838 L 995.185, 215.311 L 989.113, 223.639 L 978.183, 219.128 z "/>
<path style="fill:rgb(255, 0, 0);fill-opacity:0;fill-rule:evenodd;stroke:rgb(0, 113, 255);stroke-width:1;" d="M 525.699, 187.205 L 532.986, 176.968 L 564.043, 190.154 L 556.582, 200.217 L 525.699, 187.205 z "/>
<path style="fill:rgb(0, 255, 0);fill-opacity:0;fill-rule:evenodd;stroke:rgb(0, 113, 255);stroke-width:1;" d="M 222.425, 561.961 L 243.418, 533.333 L 254.348, 538.018 L 252.266, 540.967 L 245.673, 549.816 L 233.876, 566.124 L 233.529, 566.645 L 222.425, 561.961 z "/>
<path style="fill:rgb(0, 0, 255);fill-opacity:0;fill-rule:evenodd;stroke:rgb(0, 113, 255);stroke-width:1;" d="M 972.11, 429.928 L 978.009, 421.774 L 1016.01, 437.736 L 1009.93, 446.064 L 972.11, 429.928 z "/>
<path style="fill:rgb(255, 255, 0);fill-opacity:0;fill-rule:evenodd;stroke:rgb(0, 113, 255);stroke-width:1;" d="M 497.593, 163.609 L 501.93, 157.71 L 519.974, 133.073 L 531.078, 137.758 L 513.208, 162.394 L 508.003, 160.312 L 503.665, 166.211 L 497.593, 163.609 z "/>
<path style="fill:rgb(255, 0, 0);fill-opacity:0;fill-rule:evenodd;stroke:rgb(0, 113, 255);stroke-width:1;" d="M 442.073, 63.3268 L 460.117, 38.5166 L 461.679, 36.4346 L 473.129, 41.1191 L 453.524, 68.1848 L 442.073, 63.3268 z "/>
<path style="fill:rgb(0, 255, 0);fill-opacity:0;fill-rule:evenodd;stroke:rgb(0, 113, 255);stroke-width:1;" d="M 548.428, 155.801 L 555.715, 145.738 L 586.771, 158.751 L 579.484, 168.814 L 548.428, 155.801 z "/>
<path style="fill:rgb(0, 0, 255);fill-opacity:0;fill-rule:evenodd;stroke:rgb(0, 113, 255);stroke-width:1;" d="M 802.602, 287.139 L 822.728, 259.9 L 833.832, 264.758 L 813.88, 291.824 L 802.602, 287.139 z "/>
<path style="fill:rgb(255, 255, 0);fill-opacity:0;fill-rule:evenodd;stroke:rgb(0, 113, 255);stroke-width:1;" d="M 701.28, 170.202 L 703.535, 167.079 L 723.487, 139.84 L 733.55, 144.177 L 726.09, 154.413 L 711.342, 174.539 L 701.28, 170.202 z "/>
<path style="fill:rgb(255, 0, 0);fill-opacity:0;fill-rule:evenodd;stroke:rgb(0, 113, 255);stroke-width:1;" d="M 813.88, 291.824 L 833.832, 264.758 L 835.047, 263.197 L 845.63, 267.708 L 824.463, 296.335 L 813.88, 291.824 z "/>
<path style="fill:rgb(0, 255, 0);fill-opacity:0;fill-rule:evenodd;stroke:rgb(0, 113, 255);stroke-width:1;" d="M 830.883, 187.205 L 840.425, 173.845 L 863.847, 183.908 L 854.652, 196.4 L 830.883, 187.205 z "/>
<path style="fill:rgb(0, 0, 255);fill-opacity:0;fill-rule:evenodd;stroke:rgb(0, 113, 255);stroke-width:1;" d="M 408.241, 732.683 L 438.777, 722.099 L 445.196, 732.683 L 414.834, 743.266 L 408.241, 732.683 z "/>
<path style="fill:rgb(255, 255, 0);fill-opacity:0;fill-rule:evenodd;stroke:rgb(0, 113, 255);stroke-width:1;" d="M 487.183, 159.271 L 493.602, 150.249 L 501.236, 140.013 L 509.391, 128.562 L 519.974, 133.073 L 501.93, 157.71 L 497.246, 155.801 L 492.908, 161.7 L 487.183, 159.271 z "/>
<path style="fill:rgb(255, 0, 0);fill-opacity:0;fill-rule:evenodd;stroke:rgb(0, 113, 255);stroke-width:1;" d="M 518.933, 95.771 L 538.365, 69.2258 L 549.295, 73.7367 L 529.863, 100.455 L 518.933, 95.771 z "/>
<path style="fill:rgb(0, 255, 0);fill-opacity:0;fill-rule:evenodd;stroke:rgb(0, 113, 255);stroke-width:1;" d="M 529.863, 100.455 L 549.295, 73.7367 L 560.399, 78.4212 L 540.967, 105.14 L 529.863, 100.455 z "/>
<path style="fill:rgb(0, 0, 255);fill-opacity:0;fill-rule:evenodd;stroke:rgb(0, 113, 255);stroke-width:1;" d="M 508.003, 91.0865 L 516.331, 79.4622 L 524.658, 68.0113 L 527.261, 64.5413 L 538.365, 69.2258 L 518.933, 95.771 L 508.003, 91.0865 z "/>
<path style="fill:rgb(255, 255, 0);fill-opacity:0;fill-rule:evenodd;stroke:rgb(0, 113, 255);stroke-width:1;" d="M 132.379, 523.617 L 153.372, 494.817 L 160.486, 497.766 L 156.842, 502.798 L 160.312, 504.359 L 142.962, 528.128 L 132.379, 523.617 z "/>
<path style="fill:rgb(255, 0, 0);fill-opacity:0;fill-rule:evenodd;stroke:rgb(0, 113, 255);stroke-width:1;" d="M 263.197, 504.706 L 268.055, 498.113 L 280.894, 480.416 L 281.414, 479.722 L 293.038, 484.58 L 281.067, 500.889 L 274.648, 509.391 L 263.197, 504.706 z "/>
<path style="fill:rgb(0, 255, 0);fill-opacity:0;fill-rule:evenodd;stroke:rgb(0, 113, 255);stroke-width:1;" d="M 730.08, 327.391 L 737.02, 318.022 L 747.083, 304.316 L 747.777, 303.448 L 759.401, 308.306 L 751.247, 319.237 L 741.705, 332.422 L 730.08, 327.391 z "/>
<path style="fill:rgb(0, 0, 255);fill-opacity:0;fill-rule:evenodd;stroke:rgb(0, 113, 255);stroke-width:1;" d="M 188.419, 469.833 L 206.116, 445.89 L 217.567, 450.575 L 199.87, 474.691 L 188.419, 469.833 z "/>
<path style="fill:rgb(255, 255, 0);fill-opacity:0;fill-rule:evenodd;stroke:rgb(0, 113, 255);stroke-width:1;" d="M 540.967, 105.14 L 560.399, 78.4212 L 570.982, 82.9321 L 563.175, 93.689 L 559.879, 92.301 L 556.756, 96.465 L 560.052, 97.853 L 551.551, 109.477 L 540.967, 105.14 z "/>
<path style="fill:rgb(255, 0, 0);fill-opacity:0;fill-rule:evenodd;stroke:rgb(0, 113, 255);stroke-width:1;" d="M 360.703, 739.102 L 370.072, 726.09 L 377.879, 715.333 L 389.33, 720.191 L 384.125, 727.131 L 382.39, 729.56 L 371.98, 743.787 L 360.703, 739.102 z "/>
<path style="fill:rgb(0, 255, 0);fill-opacity:0;fill-rule:evenodd;stroke:rgb(0, 113, 255);stroke-width:1;" d="M 666.233, 148.514 L 672.479, 140.013 L 700.065, 151.811 L 707.005, 154.76 L 703.015, 160.139 L 692.952, 155.801 L 690.696, 158.924 L 666.233, 148.514 z "/>
<path style="fill:rgb(0, 0, 255);fill-opacity:0;fill-rule:evenodd;stroke:rgb(0, 113, 255);stroke-width:1;" d="M 177.662, 465.322 L 195.185, 441.206 L 206.116, 445.89 L 188.419, 469.833 L 177.662, 465.322 z "/>
<path style="fill:rgb(255, 255, 0);fill-opacity:0;fill-rule:evenodd;stroke:rgb(0, 113, 255);stroke-width:1;" d="M 128.389, 237.866 L 144.003, 216.352 L 155.107, 221.037 L 149.035, 229.538 L 150.77, 230.232 L 141.401, 243.244 L 128.389, 237.866 z "/>
<path style="fill:rgb(255, 0, 0);fill-opacity:0;fill-rule:evenodd;stroke:rgb(0, 113, 255);stroke-width:1;" d="M 591.455, 268.575 L 608.805, 244.806 L 618.868, 249.143 L 601.518, 272.913 L 591.455, 268.575 z "/>
<path style="fill:rgb(0, 255, 0);fill-opacity:0;fill-rule:evenodd;stroke:rgb(0, 113, 255);stroke-width:1;" d="M 784.906, 350.64 L 800.52, 329.82 L 811.971, 334.678 L 796.183, 355.498 L 784.906, 350.64 z "/>
<path style="fill:rgb(0, 0, 255);fill-opacity:0;fill-rule:evenodd;stroke:rgb(0, 113, 255);stroke-width:1;" d="M 684.971, 123.01 L 691.217, 114.509 L 718.976, 126.307 L 712.557, 134.808 L 684.971, 123.01 z "/>
<path style="fill:rgb(255, 255, 0);fill-opacity:0;fill-rule:evenodd;stroke:rgb(0, 113, 255);stroke-width:1;" d="M 601.518, 272.913 L 618.868, 249.143 L 628.931, 253.481 L 611.408, 277.077 L 601.518, 272.913 z "/>
<path style="fill:rgb(255, 0, 0);fill-opacity:0;fill-rule:evenodd;stroke:rgb(0, 113, 255);stroke-width:1;" d="M 678.725, 131.512 L 684.971, 123.01 L 712.557, 134.808 L 706.311, 143.309 L 678.725, 131.512 z "/>
<path style="fill:rgb(0, 255, 0);fill-opacity:0;fill-rule:evenodd;stroke:rgb(0, 113, 255);stroke-width:1;" d="M 672.479, 140.013 L 678.725, 131.512 L 706.311, 143.309 L 700.065, 151.811 L 672.479, 140.013 z "/>
<path style="fill:rgb(0, 0, 255);fill-opacity:0;fill-rule:evenodd;stroke:rgb(0, 113, 255);stroke-width:1;" d="M 273.26, 360.876 L 289.048, 339.015 L 299.631, 343.353 L 283.843, 365.214 L 273.26, 360.876 z "/>
<path style="fill:rgb(255, 255, 0);fill-opacity:0;fill-rule:evenodd;stroke:rgb(0, 113, 255);stroke-width:1;" d="M 582.086, 264.585 L 599.436, 240.989 L 608.805, 244.806 L 591.455, 268.575 L 582.086, 264.585 z "/>
<path style="fill:rgb(255, 0, 0);fill-opacity:0;fill-rule:evenodd;stroke:rgb(0, 113, 255);stroke-width:1;" d="M 885.014, 311.256 L 899.241, 291.997 L 910.518, 296.855 L 896.291, 315.94 L 885.014, 311.256 z "/>
<path style="fill:rgb(0, 255, 0);fill-opacity:0;fill-rule:evenodd;stroke:rgb(0, 113, 255);stroke-width:1;" d="M 255.91, 492.908 L 268.749, 475.385 L 280.894, 480.416 L 268.055, 498.113 L 255.91, 492.908 z "/>
<path style="fill:rgb(0, 0, 255);fill-opacity:0;fill-rule:evenodd;stroke:rgb(0, 113, 255);stroke-width:1;" d="M 258.165, 566.124 L 264.238, 557.623 L 289.221, 568.206 L 283.149, 576.708 L 258.165, 566.124 z "/>
<path style="fill:rgb(255, 255, 0);fill-opacity:0;fill-rule:evenodd;stroke:rgb(0, 113, 255);stroke-width:1;" d="M 239.601, 568.553 L 251.572, 552.245 L 264.238, 557.623 L 258.165, 566.124 L 252.44, 573.932 L 239.601, 568.553 z "/>
<path style="fill:rgb(255, 0, 0);fill-opacity:0;fill-rule:evenodd;stroke:rgb(0, 113, 255);stroke-width:1;" d="M 328.259, 373.021 L 337.974, 359.488 L 343.873, 362.091 L 339.015, 368.51 L 357.927, 376.491 L 352.895, 383.257 L 334.678, 375.624 L 328.259, 373.021 z "/>
<path style="fill:rgb(0, 255, 0);fill-opacity:0;fill-rule:evenodd;stroke:rgb(0, 113, 255);stroke-width:1;" d="M 1002.3, 388.636 L 1004.55, 385.513 L 1007.33, 384.645 L 1009.24, 382.216 L 1035.26, 393.147 L 1037.17, 394.014 L 1031.97, 401.128 L 1002.3, 388.636 z "/>
<path style="fill:rgb(0, 0, 255);fill-opacity:0;fill-rule:evenodd;stroke:rgb(0, 113, 255);stroke-width:1;" d="M 659.987, 156.669 L 666.233, 148.514 L 690.696, 158.924 L 684.45, 167.252 L 659.987, 156.669 z "/>
<path style="fill:rgb(255, 255, 0);fill-opacity:0;fill-rule:evenodd;stroke:rgb(0, 113, 255);stroke-width:1;" d="M 729.213, 183.388 L 744.654, 162.394 L 754.023, 166.385 L 738.582, 187.378 L 729.213, 183.388 z "/>
<path style="fill:rgb(255, 0, 0);fill-opacity:0;fill-rule:evenodd;stroke:rgb(0, 113, 255);stroke-width:1;" d="M 252.44, 573.932 L 258.165, 566.124 L 283.149, 576.708 L 277.424, 584.515 L 252.44, 573.932 z "/>
<path style="fill:rgb(0, 255, 0);fill-opacity:0;fill-rule:evenodd;stroke:rgb(0, 113, 255);stroke-width:1;" d="M 711.342, 174.539 L 726.09, 154.413 L 735.632, 158.577 L 720.885, 178.53 L 711.342, 174.539 z "/>
<path style="fill:rgb(0, 0, 255);fill-opacity:0;fill-rule:evenodd;stroke:rgb(0, 113, 255);stroke-width:1;" d="M 1029.36, 354.63 L 1034.74, 347.17 L 1060.77, 358.274 L 1055.39, 365.561 L 1029.36, 354.63 z "/>
<path style="fill:rgb(255, 255, 0);fill-opacity:0;fill-rule:evenodd;stroke:rgb(0, 113, 255);stroke-width:1;" d="M 720.191, 179.571 L 720.885, 178.53 L 735.632, 158.577 L 744.654, 162.394 L 729.213, 183.388 L 720.191, 179.571 z "/>
<path style="fill:rgb(255, 0, 0);fill-opacity:0;fill-rule:evenodd;stroke:rgb(0, 113, 255);stroke-width:1;" d="M 1023.99, 361.744 L 1029.36, 354.63 L 1055.39, 365.561 L 1050.18, 372.848 L 1023.99, 361.744 z "/>
<path style="fill:rgb(0, 255, 0);fill-opacity:0;fill-rule:evenodd;stroke:rgb(0, 113, 255);stroke-width:1;" d="M 1009.24, 382.216 L 1014.27, 375.103 L 1040.29, 386.207 L 1035.26, 393.147 L 1009.24, 382.216 z "/>
<path style="fill:rgb(0, 0, 255);fill-opacity:0;fill-rule:evenodd;stroke:rgb(0, 113, 255);stroke-width:1;" d="M 1019.13, 368.51 L 1023.99, 361.744 L 1050.18, 372.848 L 1045.15, 379.614 L 1019.13, 368.51 z "/>
<path style="fill:rgb(255, 255, 0);fill-opacity:0;fill-rule:evenodd;stroke:rgb(0, 113, 255);stroke-width:1;" d="M 890.393, 395.229 L 903.925, 376.664 L 913.121, 380.481 L 899.588, 399.219 L 890.393, 395.229 z "/>
<path style="fill:rgb(255, 0, 0);fill-opacity:0;fill-rule:evenodd;stroke:rgb(0, 113, 255);stroke-width:1;" d="M 1014.27, 375.103 L 1019.13, 368.51 L 1045.15, 379.614 L 1040.29, 386.207 L 1014.27, 375.103 z "/>
<path style="fill:rgb(0, 255, 0);fill-opacity:0;fill-rule:evenodd;stroke:rgb(0, 113, 255);stroke-width:1;" d="M 881.197, 391.412 L 889.872, 379.44 L 894.903, 372.848 L 903.925, 376.664 L 890.393, 395.229 L 881.197, 391.412 z "/>
<path style="fill:rgb(0, 0, 255);fill-opacity:0;fill-rule:evenodd;stroke:rgb(0, 113, 255);stroke-width:1;" d="M 116.591, 435.307 L 130.297, 416.743 L 132.032, 414.487 L 139.319, 417.61 L 123.878, 438.43 L 116.591, 435.307 z "/>
<path style="fill:rgb(255, 255, 0);fill-opacity:0;fill-rule:evenodd;stroke:rgb(0, 113, 255);stroke-width:1;" d="M 323.574, 673.346 L 328.953, 665.886 L 345.782, 672.999 L 340.403, 680.46 L 323.574, 673.346 z "/>
<path style="fill:rgb(255, 0, 0);fill-opacity:0;fill-rule:evenodd;stroke:rgb(0, 113, 255);stroke-width:1;" d="M 227.977, 509.738 L 232.835, 502.971 L 235.09, 499.848 L 247.061, 504.88 L 239.948, 514.769 L 227.977, 509.738 z "/>
<path style="fill:rgb(0, 255, 0);fill-opacity:0;fill-rule:evenodd;stroke:rgb(0, 113, 255);stroke-width:1;" d="M 233.876, 566.124 L 245.673, 549.816 L 251.572, 552.245 L 239.601, 568.553 L 233.876, 566.124 z "/>
<path style="fill:rgb(0, 0, 255);fill-opacity:0;fill-rule:evenodd;stroke:rgb(0, 113, 255);stroke-width:1;" d="M 690.523, 168.987 L 694.687, 163.262 L 703.535, 167.079 L 701.28, 170.202 L 699.371, 172.804 L 690.523, 168.987 z "/>
<path style="fill:rgb(255, 255, 0);fill-opacity:0;fill-rule:evenodd;stroke:rgb(0, 113, 255);stroke-width:1;" d="M 97.6795, 508.87 L 117.111, 482.151 L 123.184, 473.997 L 157.883, 488.571 L 153.372, 494.817 L 132.379, 523.617 L 97.6795, 508.87 z "/>
<path style="fill:rgb(255, 0, 0);fill-opacity:0;fill-rule:evenodd;stroke:rgb(0, 113, 255);stroke-width:1;" d="M 94.036, 589.2 L 102.884, 577.055 L 120.928, 552.245 L 149.555, 564.39 L 135.676, 583.474 L 131.512, 589.2 L 112.774, 581.392 L 110.171, 584.862 L 120.408, 589.026 L 120.755, 593.19 L 116.764, 598.742 L 94.036, 589.2 z "/>
<path style="fill:rgb(0, 255, 0);fill-opacity:0;fill-rule:evenodd;stroke:rgb(0, 113, 255);stroke-width:1;" d="M 83.9731, 432.01 L 93.1685, 419.172 L 103.405, 405.465 L 130.297, 416.743 L 116.591, 435.307 L 110.865, 443.288 L 83.9731, 432.01 z "/>
<path style="fill:rgb(0, 0, 255);fill-opacity:0;fill-rule:evenodd;stroke:rgb(0, 113, 255);stroke-width:1;" d="M 83.9731, 208.545 L 90.3925, 199.523 L 92.301, 200.39 L 129.95, 216.179 L 123.531, 225.027 L 83.9731, 208.545 z "/>
<path style="fill:rgb(255, 255, 0);fill-opacity:0;fill-rule:evenodd;stroke:rgb(0, 113, 255);stroke-width:1;" d="M 92.301, 200.39 L 98.8939, 191.368 L 136.543, 207.157 L 129.95, 216.179 L 92.301, 200.39 z "/>
<path style="fill:rgb(255, 0, 0);fill-opacity:0;fill-rule:evenodd;stroke:rgb(0, 113, 255);stroke-width:1;" d="M 89.525, 571.329 L 107.395, 546.693 L 120.928, 552.245 L 102.884, 577.055 L 89.525, 571.329 z "/>
<path style="fill:rgb(0, 255, 0);fill-opacity:0;fill-rule:evenodd;stroke:rgb(0, 113, 255);stroke-width:1;" d="M 98.8939, 191.368 L 104.793, 183.041 L 142.442, 198.655 L 136.543, 207.157 L 98.8939, 191.368 z "/>
<path style="fill:rgb(0, 0, 255);fill-opacity:0;fill-rule:evenodd;stroke:rgb(0, 113, 255);stroke-width:1;" d="M 88.4841, 46.4975 L 94.383, 38.3431 L 127.868, 52.3964 L 121.796, 60.5509 L 88.4841, 46.4975 z "/>
<path style="fill:rgb(255, 255, 0);fill-opacity:0;fill-rule:evenodd;stroke:rgb(0, 113, 255);stroke-width:1;" d="M 94.383, 38.3431 L 100.282, 30.1887 L 133.767, 44.4155 L 127.868, 52.3964 L 94.383, 38.3431 z "/>
<path style="fill:rgb(255, 0, 0);fill-opacity:0;fill-rule:evenodd;stroke:rgb(0, 113, 255);stroke-width:1;" d="M 529.516, 42.3336 L 557.45, 3.81696 L 598.395, 20.9933 L 570.288, 59.5099 L 529.516, 42.3336 z "/>
<path style="fill:rgb(0, 255, 0);fill-opacity:0;fill-rule:evenodd;stroke:rgb(0, 113, 255);stroke-width:1;" d="M 570.288, 59.5099 L 598.395, 20.9933 L 611.928, 26.7187 L 583.995, 65.2353 L 570.288, 59.5099 z "/>
<path style="fill:rgb(0, 0, 255);fill-opacity:0;fill-rule:evenodd;stroke:rgb(0, 113, 255);stroke-width:1;" d="M 518.065, 41.4661 L 532.986, 20.9933 L 548.254, 0 L 557.45, 3.81696 L 529.516, 42.3336 L 527.261, 45.4565 L 518.065, 41.4661 z "/>
<path style="fill:rgb(255, 255, 0);fill-opacity:0;fill-rule:evenodd;stroke:rgb(0, 113, 255);stroke-width:1;" d="M 403.036, 46.8445 L 421.08, 22.0343 L 433.919, 27.5862 L 415.875, 52.3964 L 403.036, 46.8445 z "/>
<path style="fill:rgb(255, 0, 0);fill-opacity:0;fill-rule:evenodd;stroke:rgb(0, 113, 255);stroke-width:1;" d="M 390.371, 41.6396 L 408.415, 16.8293 L 421.08, 22.0343 L 403.036, 46.8445 L 390.371, 41.6396 z "/>
<path style="fill:rgb(0, 255, 0);fill-opacity:0;fill-rule:evenodd;stroke:rgb(0, 113, 255);stroke-width:1;" d="M 100.282, 30.1887 L 106.354, 21.8608 L 139.84, 35.9141 L 133.767, 44.4155 L 100.282, 30.1887 z "/>
<path style="fill:rgb(0, 0, 255);fill-opacity:0;fill-rule:evenodd;stroke:rgb(0, 113, 255);stroke-width:1;" d="M 0, 325.136 L 38.3431, 272.566 L 66.1028, 284.19 L 94.5565, 296.161 L 90.913, 301.019 L 108.957, 308.653 L 112.6, 303.622 L 116.07, 305.183 L 122.143, 296.855 L 118.673, 295.467 L 128.909, 281.414 L 164.129, 296.161 L 153.719, 310.388 L 150.423, 309 L 144.35, 317.502 L 147.473, 318.89 L 144.177, 323.401 L 162.568, 331.208 L 165.864, 326.524 L 195.185, 338.842 L 224.333, 350.987 L 216.005, 362.438 L 229.191, 367.816 L 219.302, 381.522 L 202.472, 404.424 L 198.829, 409.456 L 155.975, 391.412 L 157.71, 388.809 L 56.2134, 346.302 L 54.9989, 348.211 L 0, 325.136 z "/>
<path style="fill:rgb(255, 255, 0);fill-opacity:0;fill-rule:evenodd;stroke:rgb(0, 113, 255);stroke-width:1;" d="M 0, 325.136 L 38.3431, 272.566 L 66.1028, 284.19 L 57.2544, 296.161 L 53.0904, 294.426 L 39.5576, 312.991 L 74.0837, 327.391 L 77.7272, 322.533 L 94.9035, 329.646 L 91.26, 334.678 L 125.786, 349.078 L 129.43, 344.22 L 146.779, 351.334 L 143.136, 356.365 L 178.183, 370.939 L 191.021, 353.416 L 186.164, 351.334 L 195.185, 338.842 L 224.333, 350.987 L 216.005, 362.438 L 229.191, 367.816 L 219.302, 381.522 L 202.472, 404.424 L 198.829, 409.456 L 155.975, 391.412 L 157.71, 388.809 L 56.2134, 346.302 L 54.9989, 348.211 L 0, 325.136 z "/>
<path style="fill:rgb(255, 0, 0);fill-opacity:0;fill-rule:evenodd;stroke:rgb(0, 113, 255);stroke-width:1;" d="M 39.5576, 312.991 L 53.0904, 294.426 L 57.2544, 296.161 L 66.1028, 284.19 L 94.5565, 296.161 L 90.913, 301.019 L 108.957, 308.653 L 112.6, 303.622 L 116.07, 305.183 L 122.143, 296.855 L 118.673, 295.467 L 128.909, 281.414 L 164.129, 296.161 L 153.719, 310.388 L 150.423, 309 L 144.35, 317.502 L 147.473, 318.89 L 144.177, 323.401 L 162.568, 331.208 L 165.864, 326.524 L 195.185, 338.842 L 186.164, 351.334 L 191.021, 353.416 L 178.183, 370.939 L 143.136, 356.365 L 146.779, 351.334 L 129.43, 344.22 L 125.786, 349.078 L 91.26, 334.678 L 94.9035, 329.646 L 77.7272, 322.533 L 74.0837, 327.391 L 39.5576, 312.991 z "/>
<path style="fill:rgb(0, 255, 0);fill-opacity:0;fill-rule:evenodd;stroke:rgb(0, 113, 255);stroke-width:1;" d="M 190.154, 65.5823 L 231.794, 8.84841 L 325.483, 48.5795 L 286.792, 101.67 L 278.465, 98.0265 L 253.654, 87.6166 L 237.692, 109.477 L 192.756, 90.566 L 206.116, 72.3487 L 190.154, 65.5823 z "/>
<path style="fill:rgb(0, 0, 255);fill-opacity:0;fill-rule:evenodd;stroke:rgb(0, 113, 255);stroke-width:1;" d="M 192.756, 90.566 L 206.116, 72.3487 L 215.832, 76.5127 L 238.039, 46.1505 L 228.324, 41.9866 L 241.683, 23.7692 L 286.619, 42.6805 L 270.137, 65.0618 L 295.12, 75.4717 L 278.465, 98.0265 L 253.654, 87.6166 L 237.692, 109.477 L 192.756, 90.566 z "/>
<path style="fill:rgb(255, 255, 0);fill-opacity:0;fill-rule:evenodd;stroke:rgb(0, 113, 255);stroke-width:1;" d="M 190.154, 65.5823 L 231.794, 8.84841 L 325.483, 48.5795 L 286.792, 101.67 L 278.465, 98.0265 L 295.12, 75.4717 L 270.137, 65.0618 L 286.619, 42.6805 L 241.683, 23.7692 L 228.324, 41.9866 L 238.039, 46.1505 L 215.832, 76.5127 L 206.116, 72.3487 L 190.154, 65.5823 z "/>
<path style="fill:rgb(255, 0, 0);fill-opacity:0;fill-rule:evenodd;stroke:rgb(0, 113, 255);stroke-width:1;" d="M 363.826, 755.064 L 371.98, 743.787 L 382.39, 729.56 L 386.38, 728.172 L 454.739, 703.709 L 459.076, 702.494 L 482.845, 712.557 L 464.455, 737.888 L 460.638, 739.276 L 441.379, 746.216 L 392.106, 763.739 L 387.942, 765.127 L 363.826, 755.064 z "/>
</svg>