<?xml version="1.0" encoding="iso-8859-1" standalone="no"?>
<!DOCTYPE svg PUBLIC "-//W3C//DTD SVG 1.0//EN" "http://www.w3.org/TR/2001/REC-SVG-20010904/DTD/svg10.dtd">
<svg xmlns="http://www.w3.org/2000/svg" width="684" height="800">
<path style="fill:rgb(255, 0, 0);fill-opacity:0;fill-rule:evenodd;stroke:rgb(255, 0, 180);stroke-width:1;" d="M 362.302, 260.625 L 372.995, 246.126 L 374.264, 246.67 L 421.205, 180.698 L 548.799, 236.701 L 551.337, 229.814 L 567.105, 223.833 L 584.866, 230.539 L 593.203, 242.32 L 581.604, 273.312 L 595.741, 278.931 L 594.835, 281.468 L 598.459, 282.193 L 597.01, 285.818 L 600.091, 286.362 L 599.366, 288.718 L 602.447, 289.261 L 591.572, 318.623 L 588.491, 317.898 L 587.766, 320.072 L 584.504, 319.529 L 583.416, 322.429 L 579.248, 321.522 L 567.286, 353.965 L 579.973, 361.758 L 563.117, 407.068 L 566.742, 407.793 L 577.798, 432.623 L 563.299, 456.185 L 531.219, 465.066 L 523.607, 462.347 L 508.745, 457.272 L 500.589, 454.372 L 489.352, 429.542 L 504.758, 403.806 L 488.446, 398.188 L 477.571, 394.563 L 495.333, 347.077 L 486.633, 345.265 L 485.365, 348.346 L 477.39, 348.709 L 469.959, 348.165 L 463.072, 347.44 L 455.46, 345.446 L 448.029, 342.365 L 442.229, 339.103 L 443.498, 335.841 L 386.407, 323.516 L 390.575, 312.46 L 389.307, 312.098 L 393.475, 300.68 L 401.994, 277.843 L 362.302, 260.625 z "/>
<path style="fill:rgb(0, 255, 0);fill-opacity:0;fill-rule:evenodd;stroke:rgb(255, 0, 180);stroke-width:1;" d="M 386.407, 323.516 L 390.575, 312.46 L 389.307, 312.098 L 393.475, 300.68 L 398.55, 301.767 L 433.711, 210.965 L 548.799, 236.701 L 551.337, 229.814 L 567.105, 223.833 L 584.866, 230.539 L 593.203, 242.32 L 581.604, 273.312 L 595.741, 278.931 L 594.835, 281.468 L 598.459, 282.193 L 597.01, 285.818 L 600.091, 286.362 L 599.366, 288.718 L 602.447, 289.261 L 591.572, 318.623 L 588.491, 317.898 L 587.766, 320.072 L 584.504, 319.529 L 583.416, 322.429 L 579.248, 321.522 L 567.286, 353.965 L 579.973, 361.758 L 563.117, 407.068 L 566.742, 407.793 L 577.798, 432.623 L 563.299, 456.185 L 531.219, 465.066 L 523.607, 462.347 L 508.745, 457.272 L 500.589, 454.372 L 489.352, 429.542 L 504.758, 403.806 L 488.446, 398.188 L 505.845, 350.884 L 495.333, 347.077 L 486.633, 345.265 L 443.498, 335.841 L 386.407, 323.516 z "/>
<path style="fill:rgb(0, 0, 255);fill-opacity:0;fill-rule:evenodd;stroke:rgb(255, 0, 180);stroke-width:1;" d="M 365.202, 712.46 L 381.151, 671.5 L 372.089, 669.325 L 409.062, 573.267 L 431.174, 578.342 L 438.061, 561.124 L 435.886, 560.58 L 423.924, 535.569 L 438.242, 511.826 L 470.503, 503.126 L 479.746, 506.208 L 494.608, 511.282 L 501.858, 513.638 L 513.276, 538.469 L 505.845, 550.974 L 498.414, 563.117 L 523.063, 574.898 L 514.363, 596.828 L 536.837, 601.903 L 523.607, 635.433 L 526.325, 635.976 L 525.6, 641.595 L 526.144, 641.595 L 518.713, 660.444 L 514.907, 665.338 L 512.188, 664.794 L 498.958, 698.324 L 490.077, 696.149 L 474.309, 736.928 L 452.923, 732.034 L 454.372, 728.41 L 444.585, 726.235 L 444.223, 727.141 L 437.517, 726.96 L 434.255, 726.778 L 427.73, 726.053 L 421.205, 724.966 L 414.862, 723.335 L 411.781, 722.429 L 405.618, 720.254 L 402.719, 719.166 L 397.1, 716.448 L 397.463, 715.541 L 387.857, 713.367 L 386.407, 717.173 L 365.202, 712.46 z "/>
<path style="fill:rgb(255, 255, 0);fill-opacity:0;fill-rule:evenodd;stroke:rgb(255, 0, 180);stroke-width:1;" d="M 372.089, 669.325 L 409.062, 573.267 L 431.174, 578.342 L 438.061, 561.124 L 435.886, 560.58 L 423.924, 535.569 L 438.242, 511.826 L 470.503, 503.126 L 479.746, 506.208 L 494.608, 511.282 L 501.858, 513.638 L 513.276, 538.469 L 505.845, 550.974 L 498.414, 563.117 L 523.063, 574.898 L 514.363, 596.828 L 536.837, 601.903 L 523.607, 635.433 L 526.325, 635.976 L 525.6, 641.595 L 526.144, 641.595 L 518.713, 660.444 L 514.907, 665.338 L 512.188, 664.794 L 498.958, 698.324 L 490.077, 696.149 L 381.151, 671.5 L 372.089, 669.325 z "/>
<path style="fill:rgb(255, 0, 0);fill-opacity:0;fill-rule:evenodd;stroke:rgb(255, 0, 180);stroke-width:1;" d="M 421.205, 180.698 L 427.186, 171.998 L 444.223, 149.162 L 460.535, 127.594 L 471.409, 112.913 L 481.921, 116.72 L 534.3, 138.65 L 531.4, 142.637 L 556.774, 153.149 L 553.512, 157.499 L 575.079, 164.93 L 605.347, 175.442 L 584.866, 230.539 L 567.105, 223.833 L 551.337, 229.814 L 548.799, 236.701 L 421.205, 180.698 z "/>
<path style="fill:rgb(0, 255, 0);fill-opacity:0;fill-rule:evenodd;stroke:rgb(255, 0, 180);stroke-width:1;" d="M 404.531, 314.998 L 411.418, 297.599 L 422.655, 268.419 L 428.636, 252.832 L 434.617, 237.245 L 440.961, 221.115 L 462.166, 225.827 L 482.465, 230.358 L 502.945, 234.889 L 537.019, 242.501 L 559.855, 247.576 L 553.33, 264.613 L 530.131, 324.422 L 523.425, 341.459 L 501.314, 336.565 L 427.005, 320.072 L 404.531, 314.998 z "/>
<path style="fill:rgb(0, 0, 255);fill-opacity:0;fill-rule:evenodd;stroke:rgb(255, 0, 180);stroke-width:1;" d="M 498.777, 107.295 L 503.67, 100.77 L 508.02, 94.6081 L 513.276, 87.1772 L 523.063, 73.5841 L 550.793, 34.9796 L 559.13, 23.3802 L 576.529, 30.6298 L 650.295, 61.0784 L 665.7, 67.4218 L 657, 79.565 L 614.046, 139.556 L 605.528, 151.337 L 590.304, 144.993 L 543.362, 125.6 L 525.238, 118.169 L 516.176, 114.545 L 507.295, 110.739 L 498.777, 107.295 z "/>
<path style="fill:rgb(255, 255, 0);fill-opacity:0;fill-rule:evenodd;stroke:rgb(255, 0, 180);stroke-width:1;" d="M 411.418, 297.599 L 422.655, 268.419 L 428.636, 252.832 L 434.617, 237.245 L 442.954, 239.239 L 446.76, 229.089 L 459.81, 231.989 L 462.166, 225.827 L 482.465, 230.358 L 502.945, 234.889 L 537.019, 242.501 L 534.662, 248.845 L 549.162, 251.926 L 544.993, 262.8 L 553.33, 264.613 L 530.131, 324.422 L 521.976, 322.61 L 517.626, 333.484 L 503.67, 330.222 L 501.314, 336.565 L 427.005, 320.072 L 429.542, 313.729 L 415.224, 310.648 L 419.574, 299.411 L 411.418, 297.599 z "/>
<path style="fill:rgb(255, 0, 0);fill-opacity:0;fill-rule:evenodd;stroke:rgb(255, 0, 180);stroke-width:1;" d="M 379.882, 667.512 L 413.412, 579.067 L 466.153, 590.847 L 486.09, 595.197 L 506.208, 599.728 L 527.232, 604.259 L 521.251, 619.846 L 515.451, 635.07 L 509.651, 650.295 L 493.702, 692.524 L 379.882, 667.512 z "/>
<path style="fill:rgb(0, 255, 0);fill-opacity:0;fill-rule:evenodd;stroke:rgb(255, 0, 180);stroke-width:1;" d="M 508.02, 94.6081 L 513.276, 87.1772 L 523.063, 73.5841 L 550.793, 34.9796 L 568.192, 42.2293 L 576.529, 30.6298 L 650.295, 61.0784 L 641.595, 73.2216 L 657, 79.565 L 614.046, 139.556 L 598.641, 133.213 L 590.304, 144.993 L 543.362, 125.6 L 525.238, 118.169 L 516.176, 114.545 L 525.238, 101.676 L 508.02, 94.6081 z "/>
<path style="fill:rgb(0, 0, 255);fill-opacity:0;fill-rule:evenodd;stroke:rgb(255, 0, 180);stroke-width:1;" d="M 233.802, 616.946 L 238.151, 605.89 L 235.433, 605.347 L 259.9, 541.912 L 260.625, 542.093 L 266.425, 527.413 L 279.112, 493.521 L 294.155, 496.783 L 319.166, 502.401 L 305.392, 538.469 L 347.984, 547.712 L 314.635, 634.708 L 266.244, 624.196 L 247.757, 620.027 L 233.802, 616.946 z "/>
<path style="fill:rgb(255, 255, 0);fill-opacity:0;fill-rule:evenodd;stroke:rgb(255, 0, 180);stroke-width:1;" d="M 415.224, 310.648 L 419.574, 299.411 L 430.992, 270.231 L 436.973, 254.644 L 442.954, 239.239 L 446.76, 229.089 L 459.81, 231.989 L 480.109, 236.701 L 500.589, 241.232 L 534.662, 248.845 L 549.162, 251.926 L 544.993, 262.8 L 521.976, 322.61 L 517.626, 333.484 L 503.67, 330.222 L 429.542, 313.729 L 415.224, 310.648 z "/>
<path style="fill:rgb(255, 0, 0);fill-opacity:0;fill-rule:evenodd;stroke:rgb(255, 0, 180);stroke-width:1;" d="M 509.832, 106.57 L 563.661, 32.4422 L 655.551, 70.6842 L 601.722, 144.812 L 509.832, 106.57 z "/>
<path style="fill:rgb(0, 255, 0);fill-opacity:0;fill-rule:evenodd;stroke:rgb(255, 0, 180);stroke-width:1;" d="M 392.932, 662.075 L 396.375, 653.194 L 417.218, 598.097 L 420.662, 589.035 L 432.986, 591.754 L 463.253, 598.641 L 483.371, 602.99 L 503.308, 607.34 L 514.182, 609.696 L 511.101, 617.852 L 505.301, 632.895 L 499.683, 648.12 L 490.077, 673.312 L 486.452, 682.737 L 474.49, 680.018 L 404.894, 664.613 L 392.932, 662.075 z "/>
<path style="fill:rgb(0, 0, 255);fill-opacity:0;fill-rule:evenodd;stroke:rgb(255, 0, 180);stroke-width:1;" d="M 396.375, 653.194 L 417.218, 598.097 L 424.286, 599.547 L 425.555, 595.922 L 430.992, 597.01 L 432.986, 591.754 L 463.253, 598.641 L 483.371, 602.99 L 503.308, 607.34 L 501.314, 612.596 L 505.12, 613.502 L 504.033, 616.221 L 511.101, 617.852 L 505.301, 632.895 L 499.683, 648.12 L 490.077, 673.312 L 483.009, 671.681 L 481.559, 675.85 L 476.484, 674.762 L 474.49, 680.018 L 404.894, 664.613 L 407.068, 659.357 L 401.994, 658.269 L 403.444, 654.644 L 396.375, 653.194 z "/>
<path style="fill:rgb(255, 255, 0);fill-opacity:0;fill-rule:evenodd;stroke:rgb(255, 0, 180);stroke-width:1;" d="M 519.438, 103.67 L 566.017, 39.3294 L 646.126, 72.4966 L 599.547, 137.019 L 519.438, 103.67 z "/>
<path style="fill:rgb(255, 0, 0);fill-opacity:0;fill-rule:evenodd;stroke:rgb(255, 0, 180);stroke-width:1;" d="M 421.205, 180.698 L 427.186, 171.998 L 441.867, 178.885 L 438.423, 183.235 L 465.247, 195.378 L 468.147, 191.754 L 494.427, 203.715 L 498.958, 197.734 L 523.063, 208.79 L 527.413, 203.534 L 531.944, 204.803 L 538.469, 205.165 L 545.356, 203.534 L 551.518, 199.909 L 554.961, 195.378 L 556.23, 189.035 L 555.505, 185.591 L 553.149, 181.785 L 547.893, 177.617 L 551.155, 173.448 L 526.869, 162.574 L 529.95, 158.768 L 503.67, 146.806 L 506.751, 143 L 480.109, 130.675 L 477.028, 134.662 L 460.535, 127.594 L 471.409, 112.913 L 481.921, 116.72 L 534.3, 138.65 L 531.4, 142.637 L 556.774, 153.149 L 553.512, 157.499 L 575.079, 164.93 L 605.347, 175.442 L 584.866, 230.539 L 567.105, 223.833 L 551.337, 229.814 L 548.799, 236.701 L 421.205, 180.698 z "/>
<path style="fill:rgb(0, 255, 0);fill-opacity:0;fill-rule:evenodd;stroke:rgb(255, 0, 180);stroke-width:1;" d="M 432.805, 279.112 L 434.617, 271.319 L 438.423, 263.888 L 444.948, 256.638 L 449.66, 253.194 L 456.185, 249.57 L 464.522, 246.488 L 472.497, 244.676 L 476.303, 244.132 L 483.552, 243.951 L 493.702, 245.039 L 503.67, 247.757 L 512.37, 251.744 L 519.801, 257.182 L 525.057, 262.8 L 528.681, 268.6 L 531.038, 275.668 L 531.4, 284.368 L 529.588, 291.98 L 526.144, 298.505 L 521.432, 304.123 L 517.082, 307.929 L 509.47, 312.642 L 501.858, 315.723 L 496.42, 317.354 L 487.177, 318.623 L 473.222, 318.26 L 462.528, 315.723 L 449.66, 309.56 L 442.954, 304.304 L 437.517, 297.599 L 433.348, 287.268 L 432.805, 279.112 z "/>
<path style="fill:rgb(0, 0, 255);fill-opacity:0;fill-rule:evenodd;stroke:rgb(255, 0, 180);stroke-width:1;" d="M 31.8985, 510.195 L 36.0671, 499.32 L 44.5854, 476.846 L 129.769, 495.696 L 131.038, 492.433 L 125.963, 491.164 L 136.837, 462.71 L 145.174, 464.522 L 150.43, 451.291 L 156.774, 452.741 L 151.337, 466.878 L 155.868, 467.966 L 149.524, 484.096 L 145.356, 483.19 L 139.556, 497.87 L 175.623, 505.845 L 184.866, 507.839 L 180.698, 518.894 L 176.348, 529.95 L 172.179, 541.006 L 162.755, 539.012 L 40.4169, 512.007 L 31.8985, 510.195 z "/>
<path style="fill:rgb(255, 255, 0);fill-opacity:0;fill-rule:evenodd;stroke:rgb(255, 0, 180);stroke-width:1;" d="M 8.15587, 722.61 L 21.749, 674.037 L 111.645, 694.336 L 110.195, 697.78 L 193.203, 716.629 L 183.416, 741.821 L 182.51, 744.359 L 176.167, 742.909 L 178.16, 737.834 L 101.495, 720.435 L 100.227, 723.335 L 50.2039, 711.917 L 42.9542, 730.403 L 8.15587, 722.61 z "/>
<path style="fill:rgb(255, 0, 0);fill-opacity:0;fill-rule:evenodd;stroke:rgb(255, 0, 180);stroke-width:1;" d="M 401.994, 658.269 L 403.444, 654.644 L 424.286, 599.547 L 425.555, 595.922 L 430.992, 597.01 L 501.314, 612.596 L 505.12, 613.502 L 504.033, 616.221 L 483.009, 671.681 L 481.559, 675.85 L 476.484, 674.762 L 407.068, 659.357 L 401.994, 658.269 z "/>
<path style="fill:rgb(0, 255, 0);fill-opacity:0;fill-rule:evenodd;stroke:rgb(255, 0, 180);stroke-width:1;" d="M 117.082, 444.042 L 128.681, 413.412 L 245.582, 438.967 L 247.576, 433.711 L 297.78, 444.767 L 291.255, 461.622 L 274.4, 457.997 L 273.675, 459.81 L 257.363, 456.185 L 253.194, 466.878 L 236.701, 463.253 L 234.164, 469.778 L 156.774, 452.741 L 150.43, 451.291 L 117.082, 444.042 z "/>
<path style="fill:rgb(0, 0, 255);fill-opacity:0;fill-rule:evenodd;stroke:rgb(255, 0, 180);stroke-width:1;" d="M 31.8985, 510.195 L 36.0671, 499.32 L 40.2356, 488.083 L 44.5854, 476.846 L 53.1038, 478.84 L 129.769, 495.696 L 139.556, 497.87 L 175.623, 505.845 L 184.866, 507.839 L 180.698, 518.894 L 176.348, 529.95 L 172.179, 541.006 L 162.755, 539.012 L 40.4169, 512.007 L 31.8985, 510.195 z "/>
<path style="fill:rgb(255, 255, 0);fill-opacity:0;fill-rule:evenodd;stroke:rgb(255, 0, 180);stroke-width:1;" d="M 365.202, 712.46 L 381.151, 671.5 L 490.077, 696.149 L 474.309, 736.928 L 452.923, 732.034 L 454.372, 728.41 L 444.585, 726.235 L 444.223, 727.141 L 437.517, 726.96 L 434.255, 726.778 L 427.73, 726.053 L 421.205, 724.966 L 414.862, 723.335 L 411.781, 722.429 L 405.618, 720.254 L 402.719, 719.166 L 397.1, 716.448 L 397.463, 715.541 L 387.857, 713.367 L 386.407, 717.173 L 365.202, 712.46 z "/>
<path style="fill:rgb(255, 0, 0);fill-opacity:0;fill-rule:evenodd;stroke:rgb(255, 0, 180);stroke-width:1;" d="M 36.0671, 499.32 L 40.2356, 488.083 L 48.9352, 489.896 L 53.1038, 478.84 L 129.769, 495.696 L 139.556, 497.87 L 175.623, 505.845 L 171.454, 516.901 L 180.698, 518.894 L 176.348, 529.95 L 166.923, 527.957 L 162.755, 539.012 L 40.4169, 512.007 L 44.4042, 501.133 L 36.0671, 499.32 z "/>
<path style="fill:rgb(0, 255, 0);fill-opacity:0;fill-rule:evenodd;stroke:rgb(255, 0, 180);stroke-width:1;" d="M 153.693, 655.007 L 161.305, 635.07 L 165.655, 623.471 L 166.017, 622.565 L 173.448, 603.715 L 187.585, 606.797 L 224.377, 614.771 L 232.533, 616.765 L 233.802, 616.946 L 247.757, 620.027 L 240.507, 638.876 L 235.795, 651.382 L 229.995, 666.425 L 228.002, 671.5 L 212.596, 668.056 L 167.286, 658.088 L 153.693, 655.007 z "/>
<path style="fill:rgb(0, 0, 255);fill-opacity:0;fill-rule:evenodd;stroke:rgb(255, 0, 180);stroke-width:1;" d="M 279.112, 493.521 L 286.543, 474.128 L 291.255, 461.622 L 297.78, 444.767 L 298.505, 442.773 L 313.367, 446.035 L 358.858, 456.004 L 374.082, 459.447 L 366.833, 478.296 L 364.295, 484.459 L 361.939, 490.802 L 354.508, 510.195 L 339.284, 506.751 L 319.166, 502.401 L 294.155, 496.783 L 279.112, 493.521 z "/>
<path style="fill:rgb(255, 255, 0);fill-opacity:0;fill-rule:evenodd;stroke:rgb(255, 0, 180);stroke-width:1;" d="M 229.995, 666.425 L 235.795, 651.382 L 240.507, 638.876 L 247.757, 620.027 L 266.244, 624.196 L 314.635, 634.708 L 296.692, 681.468 L 286.18, 679.112 L 280.743, 692.886 L 232.714, 682.374 L 236.701, 672.225 L 238.514, 672.587 L 239.058, 670.775 L 247.757, 672.768 L 248.663, 670.594 L 229.995, 666.425 z "/>
<path style="fill:rgb(255, 0, 0);fill-opacity:0;fill-rule:evenodd;stroke:rgb(255, 0, 180);stroke-width:1;" d="M 391.3, 320.616 L 398.55, 301.767 L 412.324, 266.063 L 418.305, 250.476 L 424.286, 235.07 L 434.617, 237.245 L 428.636, 252.832 L 422.655, 268.419 L 411.418, 297.599 L 404.531, 314.998 L 427.005, 320.072 L 501.314, 336.565 L 523.425, 341.459 L 530.131, 324.422 L 553.33, 264.613 L 559.855, 247.576 L 537.019, 242.501 L 502.945, 234.889 L 482.465, 230.358 L 462.166, 225.827 L 465.066, 218.034 L 485.546, 222.565 L 506.026, 227.096 L 548.799, 236.701 L 573.267, 241.957 L 530.856, 351.609 L 391.3, 320.616 z "/>
<path style="fill:rgb(0, 255, 0);fill-opacity:0;fill-rule:evenodd;stroke:rgb(255, 0, 180);stroke-width:1;" d="M 391.3, 320.616 L 398.55, 301.767 L 412.324, 266.063 L 418.305, 250.476 L 428.636, 252.832 L 422.655, 268.419 L 411.418, 297.599 L 404.531, 314.998 L 427.005, 320.072 L 501.314, 336.565 L 523.425, 341.459 L 530.131, 324.422 L 553.33, 264.613 L 559.855, 247.576 L 537.019, 242.501 L 502.945, 234.889 L 482.465, 230.358 L 485.546, 222.565 L 506.026, 227.096 L 548.799, 236.701 L 573.267, 241.957 L 530.856, 351.609 L 391.3, 320.616 z "/>
<path style="fill:rgb(0, 0, 255);fill-opacity:0;fill-rule:evenodd;stroke:rgb(255, 0, 180);stroke-width:1;" d="M 183.416, 741.821 L 193.203, 716.629 L 194.653, 713.185 L 211.328, 716.991 L 211.146, 717.716 L 241.051, 724.422 L 241.414, 723.335 L 277.481, 731.491 L 251.926, 788.944 L 218.758, 781.332 L 229.995, 752.515 L 183.416, 741.821 z "/>
<path style="fill:rgb(255, 255, 0);fill-opacity:0;fill-rule:evenodd;stroke:rgb(255, 0, 180);stroke-width:1;" d="M 43.8604, 610.24 L 55.2787, 580.517 L 138.831, 598.822 L 139.737, 596.466 L 173.448, 603.715 L 166.017, 622.565 L 165.655, 623.471 L 132.125, 616.221 L 127.413, 628.546 L 43.8604, 610.24 z "/>
<path style="fill:rgb(255, 0, 0);fill-opacity:0;fill-rule:evenodd;stroke:rgb(255, 0, 180);stroke-width:1;" d="M 0, 757.046 L 8.15587, 722.61 L 42.9542, 730.403 L 46.3978, 731.309 L 40.4169, 746.353 L 46.0353, 747.621 L 40.9606, 760.852 L 82.2836, 770.276 L 70.6842, 800 L 21.2053, 788.763 L 0, 757.046 z "/>
<path style="fill:rgb(0, 255, 0);fill-opacity:0;fill-rule:evenodd;stroke:rgb(255, 0, 180);stroke-width:1;" d="M 391.3, 320.616 L 398.55, 301.767 L 412.324, 266.063 L 422.655, 268.419 L 411.418, 297.599 L 404.531, 314.998 L 427.005, 320.072 L 501.314, 336.565 L 523.425, 341.459 L 530.131, 324.422 L 553.33, 264.613 L 559.855, 247.576 L 537.019, 242.501 L 502.945, 234.889 L 506.026, 227.096 L 548.799, 236.701 L 573.267, 241.957 L 530.856, 351.609 L 391.3, 320.616 z "/>
<path style="fill:rgb(0, 0, 255);fill-opacity:0;fill-rule:evenodd;stroke:rgb(255, 0, 180);stroke-width:1;" d="M 495.333, 429.361 L 508.382, 408.7 L 536.475, 401.087 L 563.661, 410.874 L 573.448, 432.261 L 560.58, 452.923 L 532.669, 460.353 L 505.483, 450.566 L 495.333, 429.361 z "/>
<path style="fill:rgb(255, 255, 0);fill-opacity:0;fill-rule:evenodd;stroke:rgb(255, 0, 180);stroke-width:1;" d="M 379.882, 667.512 L 413.412, 579.067 L 466.153, 590.847 L 486.09, 595.197 L 506.208, 599.728 L 503.308, 607.34 L 483.371, 602.99 L 463.253, 598.641 L 432.986, 591.754 L 420.662, 589.035 L 417.218, 598.097 L 396.375, 653.194 L 392.932, 662.075 L 404.894, 664.613 L 474.49, 680.018 L 486.452, 682.737 L 490.077, 673.312 L 499.683, 648.12 L 505.301, 632.895 L 511.101, 617.852 L 521.251, 619.846 L 515.451, 635.07 L 509.651, 650.295 L 493.702, 692.524 L 379.882, 667.512 z "/>
<path style="fill:rgb(255, 0, 0);fill-opacity:0;fill-rule:evenodd;stroke:rgb(255, 0, 180);stroke-width:1;" d="M 431.174, 534.481 L 443.86, 514.363 L 471.409, 506.932 L 497.87, 516.538 L 507.657, 537.381 L 494.971, 557.499 L 467.603, 564.749 L 440.961, 555.143 L 431.174, 534.481 z "/>
<path style="fill:rgb(0, 255, 0);fill-opacity:0;fill-rule:evenodd;stroke:rgb(255, 0, 180);stroke-width:1;" d="M 233.802, 616.946 L 238.151, 605.89 L 235.433, 605.347 L 259.9, 541.912 L 260.625, 542.093 L 296.149, 549.887 L 297.599, 550.249 L 273.856, 611.871 L 271.137, 611.328 L 266.244, 624.196 L 247.757, 620.027 L 233.802, 616.946 z "/>
<path style="fill:rgb(0, 0, 255);fill-opacity:0;fill-rule:evenodd;stroke:rgb(255, 0, 180);stroke-width:1;" d="M 161.305, 635.07 L 165.655, 623.471 L 166.017, 622.565 L 180.154, 625.646 L 187.585, 606.797 L 224.377, 614.771 L 232.533, 616.765 L 225.283, 635.614 L 240.507, 638.876 L 235.795, 651.382 L 220.39, 648.12 L 212.596, 668.056 L 167.286, 658.088 L 175.079, 638.151 L 161.305, 635.07 z "/>
<path style="fill:rgb(255, 255, 0);fill-opacity:0;fill-rule:evenodd;stroke:rgb(255, 0, 180);stroke-width:1;" d="M 286.543, 474.128 L 291.255, 461.622 L 306.117, 464.884 L 313.367, 446.035 L 358.858, 456.004 L 351.609, 474.853 L 366.833, 478.296 L 361.939, 490.802 L 346.715, 487.358 L 339.284, 506.751 L 319.166, 502.401 L 294.155, 496.783 L 301.586, 477.39 L 286.543, 474.128 z "/>
<path style="fill:rgb(255, 0, 0);fill-opacity:0;fill-rule:evenodd;stroke:rgb(255, 0, 180);stroke-width:1;" d="M 379.882, 667.512 L 413.412, 579.067 L 466.153, 590.847 L 486.09, 595.197 L 483.371, 602.99 L 463.253, 598.641 L 432.986, 591.754 L 420.662, 589.035 L 417.218, 598.097 L 396.375, 653.194 L 392.932, 662.075 L 404.894, 664.613 L 474.49, 680.018 L 486.452, 682.737 L 490.077, 673.312 L 499.683, 648.12 L 505.301, 632.895 L 515.451, 635.07 L 509.651, 650.295 L 493.702, 692.524 L 379.882, 667.512 z "/>
<path style="fill:rgb(0, 255, 0);fill-opacity:0;fill-rule:evenodd;stroke:rgb(255, 0, 180);stroke-width:1;" d="M 501.676, 429.542 L 502.401, 425.555 L 505.12, 419.393 L 508.382, 415.587 L 512.37, 412.143 L 516.538, 409.787 L 524.15, 407.068 L 532.125, 405.8 L 536.112, 405.8 L 543.725, 406.706 L 549.524, 408.518 L 555.143, 411.237 L 558.949, 413.956 L 562.574, 417.399 L 565.655, 422.474 L 567.105, 427.005 L 567.467, 431.899 L 566.742, 436.067 L 564.386, 441.323 L 560.942, 445.673 L 556.411, 449.298 L 551.88, 452.016 L 544.631, 454.372 L 537.562, 455.46 L 533.031, 455.641 L 527.413, 455.097 L 521.432, 453.647 L 514.363, 450.566 L 510.014, 447.304 L 506.932, 444.404 L 503.67, 439.329 L 501.676, 432.986 L 501.676, 429.542 z "/>
<path style="fill:rgb(0, 0, 255);fill-opacity:0;fill-rule:evenodd;stroke:rgb(255, 0, 180);stroke-width:1;" d="M 379.882, 667.512 L 413.412, 579.067 L 466.153, 590.847 L 463.253, 598.641 L 432.986, 591.754 L 420.662, 589.035 L 417.218, 598.097 L 396.375, 653.194 L 392.932, 662.075 L 404.894, 664.613 L 474.49, 680.018 L 486.452, 682.737 L 490.077, 673.312 L 499.683, 648.12 L 509.651, 650.295 L 493.702, 692.524 L 379.882, 667.512 z "/>
<path style="fill:rgb(255, 255, 0);fill-opacity:0;fill-rule:evenodd;stroke:rgb(255, 0, 180);stroke-width:1;" d="M 437.336, 534.844 L 437.879, 530.856 L 440.779, 524.875 L 443.86, 521.069 L 447.848, 517.807 L 451.835, 515.451 L 459.266, 512.732 L 467.059, 511.464 L 471.047, 511.464 L 478.478, 512.37 L 484.277, 514.182 L 489.533, 516.72 L 493.339, 519.438 L 496.783, 522.882 L 499.864, 527.775 L 501.314, 532.306 L 501.676, 537.2 L 500.952, 541.006 L 498.595, 546.262 L 495.152, 550.43 L 490.983, 554.055 L 486.271, 556.593 L 479.203, 559.13 L 472.497, 560.217 L 467.966, 560.217 L 462.528, 559.674 L 456.547, 558.224 L 449.841, 555.143 L 445.492, 552.243 L 442.592, 549.343 L 439.329, 544.449 L 437.336, 538.106 L 437.336, 534.844 z "/>
<path style="fill:rgb(255, 0, 0);fill-opacity:0;fill-rule:evenodd;stroke:rgb(255, 0, 180);stroke-width:1;" d="M 438.423, 183.235 L 441.867, 178.885 L 477.028, 134.662 L 480.109, 130.675 L 506.751, 143 L 503.67, 146.806 L 468.147, 191.754 L 465.247, 195.378 L 438.423, 183.235 z "/>
<path style="fill:rgb(0, 255, 0);fill-opacity:0;fill-rule:evenodd;stroke:rgb(255, 0, 180);stroke-width:1;" d="M 468.147, 191.754 L 503.67, 146.806 L 529.95, 158.768 L 526.869, 162.574 L 498.958, 197.734 L 494.427, 203.715 L 468.147, 191.754 z "/>
<path style="fill:rgb(0, 0, 255);fill-opacity:0;fill-rule:evenodd;stroke:rgb(255, 0, 180);stroke-width:1;" d="M 45.1291, 566.198 L 58.541, 531.763 L 97.3267, 540.462 L 92.6144, 552.605 L 85.1835, 550.974 L 76.4839, 573.267 L 45.1291, 566.198 z "/>
<path style="fill:rgb(255, 255, 0);fill-opacity:0;fill-rule:evenodd;stroke:rgb(255, 0, 180);stroke-width:1;" d="M 498.958, 197.734 L 526.869, 162.574 L 551.155, 173.448 L 547.893, 177.617 L 527.413, 203.534 L 523.063, 208.79 L 498.958, 197.734 z "/>
<path style="fill:rgb(255, 0, 0);fill-opacity:0;fill-rule:evenodd;stroke:rgb(255, 0, 180);stroke-width:1;" d="M 430.811, 646.126 L 441.504, 617.671 L 476.303, 625.646 L 465.428, 653.919 L 430.811, 646.126 z "/>
<path style="fill:rgb(0, 255, 0);fill-opacity:0;fill-rule:evenodd;stroke:rgb(255, 0, 180);stroke-width:1;" d="M 427.186, 171.998 L 444.223, 149.162 L 460.535, 127.594 L 477.028, 134.662 L 441.867, 178.885 L 427.186, 171.998 z "/>
<path style="fill:rgb(0, 0, 255);fill-opacity:0;fill-rule:evenodd;stroke:rgb(255, 0, 180);stroke-width:1;" d="M 516.72, 191.935 L 516.901, 187.222 L 519.257, 182.329 L 523.063, 178.885 L 527.05, 176.71 L 533.937, 175.079 L 543, 175.804 L 547.893, 177.617 L 553.149, 181.785 L 555.505, 185.591 L 556.23, 189.035 L 554.961, 195.378 L 551.518, 199.909 L 545.356, 203.534 L 538.469, 205.165 L 531.944, 204.803 L 527.413, 203.534 L 521.976, 200.634 L 518.894, 197.191 L 516.72, 191.935 z "/>
<path style="fill:rgb(255, 255, 0);fill-opacity:0;fill-rule:evenodd;stroke:rgb(255, 0, 180);stroke-width:1;" d="M 479.746, 506.208 L 508.745, 457.272 L 523.607, 462.347 L 494.608, 511.282 L 479.746, 506.208 z "/>
<path style="fill:rgb(255, 0, 0);fill-opacity:0;fill-rule:evenodd;stroke:rgb(255, 0, 180);stroke-width:1;" d="M 374.264, 255.913 L 410.331, 208.065 L 423.924, 212.415 L 389.85, 261.169 L 374.264, 255.913 z "/>
<path style="fill:rgb(0, 255, 0);fill-opacity:0;fill-rule:evenodd;stroke:rgb(255, 0, 180);stroke-width:1;" d="M 465.428, 653.919 L 476.303, 625.646 L 498.595, 616.221 L 477.934, 670.775 L 465.428, 653.919 z "/>
<path style="fill:rgb(0, 0, 255);fill-opacity:0;fill-rule:evenodd;stroke:rgb(255, 0, 180);stroke-width:1;" d="M 408.518, 655.551 L 429.18, 600.816 L 441.504, 617.671 L 430.811, 646.126 L 408.518, 655.551 z "/>
<path style="fill:rgb(255, 255, 0);fill-opacity:0;fill-rule:evenodd;stroke:rgb(255, 0, 180);stroke-width:1;" d="M 429.18, 600.816 L 498.595, 616.221 L 476.303, 625.646 L 441.504, 617.671 L 429.18, 600.816 z "/>
<path style="fill:rgb(255, 0, 0);fill-opacity:0;fill-rule:evenodd;stroke:rgb(255, 0, 180);stroke-width:1;" d="M 408.518, 655.551 L 430.811, 646.126 L 465.428, 653.919 L 477.934, 670.775 L 408.518, 655.551 z "/>
<path style="fill:rgb(0, 255, 0);fill-opacity:0;fill-rule:evenodd;stroke:rgb(255, 0, 180);stroke-width:1;" d="M 125.963, 491.164 L 136.837, 462.71 L 145.174, 464.522 L 150.43, 451.291 L 156.774, 452.741 L 151.337, 466.878 L 155.868, 467.966 L 149.524, 484.096 L 145.356, 483.19 L 139.556, 497.87 L 129.769, 495.696 L 131.038, 492.433 L 125.963, 491.164 z "/>
<path style="fill:rgb(0, 0, 255);fill-opacity:0;fill-rule:evenodd;stroke:rgb(255, 0, 180);stroke-width:1;" d="M 260.625, 542.093 L 266.425, 527.413 L 269.506, 528.138 L 298.142, 534.481 L 301.767, 535.206 L 296.149, 549.887 L 260.625, 542.093 z "/>
<path style="fill:rgb(255, 255, 0);fill-opacity:0;fill-rule:evenodd;stroke:rgb(255, 0, 180);stroke-width:1;" d="M 269.506, 528.138 L 274.218, 515.451 L 303.036, 521.794 L 298.142, 534.481 L 269.506, 528.138 z "/>
<path style="fill:rgb(255, 0, 0);fill-opacity:0;fill-rule:evenodd;stroke:rgb(255, 0, 180);stroke-width:1;" d="M 442.229, 339.103 L 443.498, 335.841 L 486.633, 345.265 L 485.365, 348.346 L 477.39, 348.709 L 469.959, 348.165 L 463.072, 347.44 L 455.46, 345.446 L 448.029, 342.365 L 442.229, 339.103 z "/>
<path style="fill:rgb(0, 255, 0);fill-opacity:0;fill-rule:evenodd;stroke:rgb(255, 0, 180);stroke-width:1;" d="M 487.358, 109.47 L 495.877, 97.5079 L 503.67, 100.77 L 498.777, 107.295 L 507.295, 110.739 L 503.308, 115.995 L 487.358, 109.47 z "/>
<path style="fill:rgb(0, 0, 255);fill-opacity:0;fill-rule:evenodd;stroke:rgb(255, 0, 180);stroke-width:1;" d="M 385.319, 58.7222 L 388.763, 53.8287 L 398.55, 57.816 L 401.45, 53.8287 L 407.975, 56.5473 L 401.45, 65.6094 L 385.319, 58.7222 z "/>
<path style="fill:rgb(255, 255, 0);fill-opacity:0;fill-rule:evenodd;stroke:rgb(255, 0, 180);stroke-width:1;" d="M 495.877, 97.5079 L 505.664, 83.9148 L 513.276, 87.1772 L 508.02, 94.6081 L 503.67, 100.77 L 495.877, 97.5079 z "/>
<path style="fill:rgb(255, 0, 0);fill-opacity:0;fill-rule:evenodd;stroke:rgb(255, 0, 180);stroke-width:1;" d="M 505.664, 83.9148 L 515.451, 70.3217 L 523.063, 73.5841 L 513.276, 87.1772 L 505.664, 83.9148 z "/>
<path style="fill:rgb(0, 255, 0);fill-opacity:0;fill-rule:evenodd;stroke:rgb(255, 0, 180);stroke-width:1;" d="M 521.432, 123.607 L 525.238, 118.169 L 543.362, 125.6 L 539.737, 131.038 L 521.432, 123.607 z "/>
<path style="fill:rgb(0, 0, 255);fill-opacity:0;fill-rule:evenodd;stroke:rgb(255, 0, 180);stroke-width:1;" d="M 503.308, 115.995 L 507.295, 110.739 L 516.176, 114.545 L 525.238, 118.169 L 521.432, 123.607 L 503.308, 115.995 z "/>
<path style="fill:rgb(255, 255, 0);fill-opacity:0;fill-rule:evenodd;stroke:rgb(255, 0, 180);stroke-width:1;" d="M 349.252, 43.6792 L 352.877, 38.6044 L 370.82, 46.2166 L 367.195, 51.2913 L 349.252, 43.6792 z "/>
<path style="fill:rgb(255, 0, 0);fill-opacity:0;fill-rule:evenodd;stroke:rgb(255, 0, 180);stroke-width:1;" d="M 367.195, 51.2913 L 370.82, 46.2166 L 380.97, 50.5664 L 388.763, 53.8287 L 385.319, 58.7222 L 367.195, 51.2913 z "/>
<path style="fill:rgb(0, 255, 0);fill-opacity:0;fill-rule:evenodd;stroke:rgb(255, 0, 180);stroke-width:1;" d="M 401.45, 53.8287 L 407.975, 44.9479 L 411.418, 40.2356 L 417.943, 42.9542 L 407.975, 56.5473 L 401.45, 53.8287 z "/>
<path style="fill:rgb(0, 0, 255);fill-opacity:0;fill-rule:evenodd;stroke:rgb(255, 0, 180);stroke-width:1;" d="M 411.418, 40.2356 L 421.386, 26.6425 L 427.911, 29.3611 L 417.943, 42.9542 L 411.418, 40.2356 z "/>
<path style="fill:rgb(255, 255, 0);fill-opacity:0;fill-rule:evenodd;stroke:rgb(255, 0, 180);stroke-width:1;" d="M 421.205, 180.698 L 427.186, 171.998 L 441.867, 178.885 L 438.423, 183.235 L 465.247, 195.378 L 468.147, 191.754 L 494.427, 203.715 L 498.958, 197.734 L 523.063, 208.79 L 527.413, 203.534 L 531.944, 204.803 L 538.469, 205.165 L 545.356, 203.534 L 551.518, 199.909 L 554.961, 195.378 L 556.23, 189.035 L 555.505, 185.591 L 553.149, 181.785 L 547.893, 177.617 L 551.155, 173.448 L 526.869, 162.574 L 529.95, 158.768 L 503.67, 146.806 L 506.751, 143 L 480.109, 130.675 L 477.028, 134.662 L 460.535, 127.594 L 471.409, 112.913 L 481.921, 116.72 L 534.3, 138.65 L 531.4, 142.637 L 556.774, 153.149 L 553.512, 157.499 L 575.079, 164.93 L 605.347, 175.442 L 584.866, 230.539 L 567.105, 223.833 L 551.337, 229.814 L 548.799, 236.701 L 421.205, 180.698 z "/>
<path style="fill:rgb(255, 0, 0);fill-opacity:0;fill-rule:evenodd;stroke:rgb(255, 0, 180);stroke-width:1;" d="M 386.407, 323.516 L 390.575, 312.46 L 389.307, 312.098 L 393.475, 300.68 L 398.55, 301.767 L 433.711, 210.965 L 548.799, 236.701 L 551.337, 229.814 L 567.105, 223.833 L 584.866, 230.539 L 593.203, 242.32 L 581.604, 273.312 L 595.741, 278.931 L 594.835, 281.468 L 598.459, 282.193 L 597.01, 285.818 L 600.091, 286.362 L 599.366, 288.718 L 602.447, 289.261 L 591.572, 318.623 L 588.491, 317.898 L 587.766, 320.072 L 584.504, 319.529 L 583.416, 322.429 L 579.248, 321.522 L 567.286, 353.965 L 579.973, 361.758 L 563.117, 407.068 L 566.742, 407.793 L 577.798, 432.623 L 563.299, 456.185 L 531.219, 465.066 L 523.607, 462.347 L 508.745, 457.272 L 500.589, 454.372 L 489.352, 429.542 L 504.758, 403.806 L 488.446, 398.188 L 505.845, 350.884 L 495.333, 347.077 L 486.633, 345.265 L 443.498, 335.841 L 386.407, 323.516 z "/>
<path style="fill:rgb(0, 255, 0);fill-opacity:0;fill-rule:evenodd;stroke:rgb(255, 0, 180);stroke-width:1;" d="M 481.921, 116.72 L 487.358, 109.47 L 495.877, 97.5079 L 505.664, 83.9148 L 515.451, 70.3217 L 542.456, 32.8047 L 532.669, 28.8174 L 530.494, 17.7617 L 535.75, 10.6932 L 539.012, 6.16221 L 555.686, 1.99366 L 562.936, 5.07476 L 566.742, 0 L 618.94, 21.9302 L 617.852, 23.3802 L 633.62, 29.9048 L 633.983, 29.1799 L 684.73, 53.4662 L 668.237, 96.058 L 670.956, 96.6017 L 670.05, 99.1391 L 673.312, 99.8641 L 672.225, 102.583 L 675.85, 103.308 L 664.794, 132.669 L 661.35, 131.944 L 660.444, 134.481 L 657, 133.756 L 656.094, 136.475 L 652.288, 135.569 L 651.563, 137.744 L 634.889, 137.019 L 622.383, 168.011 L 605.347, 175.442 L 575.079, 164.93 L 553.512, 157.499 L 556.774, 153.149 L 531.4, 142.637 L 534.3, 138.65 L 481.921, 116.72 z "/>
<path style="fill:rgb(0, 0, 255);fill-opacity:0;fill-rule:evenodd;stroke:rgb(255, 0, 180);stroke-width:1;" d="M 530.494, 17.7617 L 535.75, 10.6932 L 539.012, 6.16221 L 555.686, 1.99366 L 562.936, 5.07476 L 566.742, 0 L 618.94, 21.9302 L 617.852, 23.3802 L 633.62, 29.9048 L 633.983, 29.1799 L 684.73, 53.4662 L 668.237, 96.058 L 670.956, 96.6017 L 670.05, 99.1391 L 673.312, 99.8641 L 672.225, 102.583 L 675.85, 103.308 L 664.794, 132.669 L 661.35, 131.944 L 660.444, 134.481 L 657, 133.756 L 656.094, 136.475 L 652.288, 135.569 L 651.563, 137.744 L 634.889, 137.019 L 622.383, 168.011 L 605.347, 175.442 L 575.079, 164.93 L 571.636, 153.512 L 576.892, 146.262 L 609.153, 159.674 L 677.3, 64.8845 L 555.505, 14.4993 L 542.456, 32.8047 L 532.669, 28.8174 L 530.494, 17.7617 z "/>
<path style="fill:rgb(255, 255, 0);fill-opacity:0;fill-rule:evenodd;stroke:rgb(255, 0, 180);stroke-width:1;" d="M 515.451, 70.3217 L 542.456, 32.8047 L 555.505, 14.4993 L 677.3, 64.8845 L 609.153, 159.674 L 576.892, 146.262 L 539.737, 131.038 L 543.362, 125.6 L 590.304, 144.993 L 605.528, 151.337 L 614.046, 139.556 L 657, 79.565 L 665.7, 67.4218 L 650.295, 61.0784 L 576.529, 30.6298 L 559.13, 23.3802 L 550.793, 34.9796 L 523.063, 73.5841 L 515.451, 70.3217 z "/>
</svg>