<?xml version="1.0" encoding="iso-8859-1" standalone="no"?>
<!DOCTYPE svg PUBLIC "-//W3C//DTD SVG 1.0//EN" "http://www.w3.org/TR/2001/REC-SVG-20010904/DTD/svg10.dtd">
<svg xmlns="http://www.w3.org/2000/svg" width="1060" height="800">
<path style="fill:rgb(255, 0, 0);fill-opacity:0;fill-rule:evenodd;stroke:rgb(57, 255, 0);stroke-width:1;" d="M 876.956, 262.343 L 894.423, 238.478 L 899.784, 240.726 L 906.701, 243.666 L 907.22, 242.802 L 950.627, 260.96 L 949.935, 261.997 L 962.732, 267.185 L 963.77, 265.802 L 993.515, 278.253 L 991.613, 280.847 L 1004.24, 286.208 L 1005.62, 284.133 L 1049.03, 302.291 L 1048.51, 303.329 L 1060.44, 308.344 L 1043.32, 331.863 L 1031.56, 326.848 L 1030.87, 327.886 L 987.635, 309.728 L 988.5, 308.517 L 986.425, 307.652 L 981.236, 314.57 L 953.567, 352.962 L 952.529, 354.345 L 900.821, 332.728 L 934.544, 286.208 L 932.469, 285.344 L 931.777, 286.381 L 888.716, 268.396 L 889.235, 267.531 L 876.956, 262.343 z "/>
<path style="fill:rgb(0, 255, 0);fill-opacity:0;fill-rule:evenodd;stroke:rgb(57, 255, 0);stroke-width:1;" d="M 302.637, 520.19 L 367.661, 430.437 L 435.106, 458.625 L 460.009, 469.174 L 442.369, 493.558 L 381.15, 467.791 L 346.909, 515.175 L 356.074, 518.98 L 360.571, 512.754 L 412.624, 534.544 L 394.985, 558.755 L 302.637, 520.19 z "/>
<path style="fill:rgb(0, 0, 255);fill-opacity:0;fill-rule:evenodd;stroke:rgb(57, 255, 0);stroke-width:1;" d="M 925.378, 770.082 L 941.98, 747.428 L 961.695, 720.277 L 980.545, 694.682 L 981.582, 693.299 L 1037.79, 716.991 L 977.086, 800 L 938.003, 783.571 L 942.499, 777.173 L 925.378, 770.082 z "/>
<path style="fill:rgb(255, 255, 0);fill-opacity:0;fill-rule:evenodd;stroke:rgb(57, 255, 0);stroke-width:1;" d="M 540.597, 615.824 L 601.297, 532.642 L 674.622, 563.597 L 644.358, 604.929 L 603.891, 587.808 L 581.755, 618.072 L 592.65, 622.568 L 584.176, 634.155 L 540.597, 615.824 z "/>
<path style="fill:rgb(255, 0, 0);fill-opacity:0;fill-rule:evenodd;stroke:rgb(57, 255, 0);stroke-width:1;" d="M 894.769, 610.808 L 915.694, 582.274 L 920.017, 584.003 L 923.649, 578.988 L 898.919, 568.439 L 923.13, 535.409 L 1022.05, 577.605 L 997.838, 610.636 L 943.018, 587.289 L 939.386, 592.304 L 943.709, 594.207 L 922.611, 622.741 L 894.769, 610.808 z "/>
<path style="fill:rgb(0, 255, 0);fill-opacity:0;fill-rule:evenodd;stroke:rgb(57, 255, 0);stroke-width:1;" d="M 151.319, 733.939 L 210.463, 652.14 L 265.11, 674.795 L 259.749, 682.058 L 254.561, 689.494 L 253.351, 691.051 L 242.802, 705.577 L 209.252, 691.569 L 193.515, 713.532 L 227.064, 727.54 L 212.538, 747.601 L 204.41, 758.668 L 152.01, 736.879 L 151.319, 733.939 z "/>
<path style="fill:rgb(0, 0, 255);fill-opacity:0;fill-rule:evenodd;stroke:rgb(57, 255, 0);stroke-width:1;" d="M 621.358, 719.758 L 641.764, 691.742 L 658.539, 698.833 L 657.328, 700.389 L 739.3, 734.803 L 740.337, 733.247 L 757.285, 740.337 L 736.706, 768.353 L 716.645, 759.879 L 706.961, 773.195 L 699.006, 769.909 L 676.87, 760.571 L 686.554, 747.255 L 621.358, 719.758 z "/>
<path style="fill:rgb(255, 255, 0);fill-opacity:0;fill-rule:evenodd;stroke:rgb(57, 255, 0);stroke-width:1;" d="M 387.03, 409.684 L 417.121, 368.18 L 417.812, 368.526 L 449.287, 381.669 L 461.046, 386.684 L 458.106, 390.661 L 496.498, 406.744 L 487.678, 418.85 L 484.565, 417.466 L 480.761, 422.655 L 489.235, 426.286 L 474.535, 446.52 L 387.03, 409.684 z "/>
<path style="fill:rgb(255, 0, 0);fill-opacity:0;fill-rule:evenodd;stroke:rgb(57, 255, 0);stroke-width:1;" d="M 417.812, 368.526 L 447.903, 327.194 L 536.965, 364.548 L 513.792, 396.541 L 507.047, 393.601 L 502.032, 400.692 L 504.799, 401.902 L 503.07, 404.323 L 468.655, 389.797 L 481.107, 372.849 L 461.738, 364.721 L 449.287, 381.669 L 417.812, 368.526 z "/>
<path style="fill:rgb(0, 255, 0);fill-opacity:0;fill-rule:evenodd;stroke:rgb(57, 255, 0);stroke-width:1;" d="M 286.727, 83.5279 L 316.472, 42.5422 L 347.082, 55.3394 L 331.172, 77.3022 L 347.082, 84.0467 L 362.992, 62.0839 L 365.413, 63.1215 L 388.586, 72.8059 L 403.286, 79.0316 L 399.654, 84.2196 L 373.541, 120.017 L 286.727, 83.5279 z "/>
<path style="fill:rgb(0, 0, 255);fill-opacity:0;fill-rule:evenodd;stroke:rgb(57, 255, 0);stroke-width:1;" d="M 856.55, 182.101 L 890.272, 135.754 L 898.919, 139.386 L 903.588, 132.987 L 922.784, 141.115 L 918.115, 147.687 L 913.446, 145.612 L 903.761, 158.928 L 905.664, 159.792 L 902.032, 164.808 L 915.521, 170.514 L 920.363, 164.116 L 931.431, 168.612 L 928.145, 173.109 L 935.409, 176.221 L 946.822, 160.657 L 970.169, 171.379 L 953.394, 194.38 L 954.259, 196.109 L 958.063, 197.838 L 943.191, 218.245 L 921.92, 209.425 L 931.604, 196.282 L 920.19, 191.44 L 910.333, 204.929 L 889.754, 196.282 L 900.821, 181.236 L 891.137, 177.086 L 886.295, 183.831 L 884.565, 182.966 L 878.513, 191.44 L 856.55, 182.101 z "/>
<path style="fill:rgb(255, 255, 0);fill-opacity:0;fill-rule:evenodd;stroke:rgb(57, 255, 0);stroke-width:1;" d="M 918.98, 489.408 L 947.687, 449.978 L 957.026, 437.008 L 967.92, 421.963 L 973.454, 424.384 L 983.485, 410.376 L 1032.6, 431.128 L 993.861, 484.565 L 947.687, 465.197 L 940.424, 475.054 L 927.454, 493.039 L 918.98, 489.408 z "/>
<path style="fill:rgb(255, 0, 0);fill-opacity:0;fill-rule:evenodd;stroke:rgb(57, 255, 0);stroke-width:1;" d="M 228.621, 627.064 L 258.885, 585.214 L 281.02, 594.553 L 276.524, 600.951 L 295.201, 608.733 L 299.697, 602.335 L 313.705, 608.214 L 309.209, 614.613 L 326.157, 621.703 L 330.826, 615.305 L 344.488, 621.012 L 329.096, 642.283 L 333.247, 644.012 L 318.547, 664.591 L 291.569, 653.351 L 307.825, 630.869 L 297.622, 626.546 L 281.366, 649.2 L 228.621, 627.064 z M 261.133, 621.53 L 278.08, 628.621 L 287.246, 615.997 L 270.298, 608.906 L 261.133, 621.53 z "/>
<path style="fill:rgb(0, 255, 0);fill-opacity:0;fill-rule:evenodd;stroke:rgb(57, 255, 0);stroke-width:1;" d="M 79.7233, 367.488 L 109.814, 325.984 L 145.785, 341.202 L 131.604, 360.571 L 143.018, 365.24 L 157.026, 345.871 L 192.823, 360.917 L 178.124, 381.15 L 172.59, 378.902 L 157.198, 400 L 139.386, 392.564 L 144.401, 385.819 L 122.611, 376.654 L 117.769, 383.398 L 108.776, 379.594 L 109.295, 376.827 L 104.799, 374.924 L 103.07, 377.173 L 99.265, 375.616 L 79.7233, 367.488 z "/>
<path style="fill:rgb(0, 0, 255);fill-opacity:0;fill-rule:evenodd;stroke:rgb(57, 255, 0);stroke-width:1;" d="M 545.266, 193.515 L 576.221, 151.146 L 598.876, 160.657 L 601.297, 161.695 L 582.62, 187.116 L 592.477, 191.267 L 596.282, 186.079 L 599.049, 187.289 L 597.665, 189.192 L 602.162, 191.094 L 603.545, 189.019 L 604.756, 189.537 L 619.109, 169.823 L 637.095, 177.432 L 632.08, 184.349 L 638.997, 187.289 L 641.245, 184.349 L 657.155, 190.921 L 644.877, 207.869 L 650.238, 210.117 L 635.365, 230.35 L 614.44, 221.53 L 624.297, 207.869 L 612.365, 202.853 L 601.989, 217.207 L 545.266, 193.515 z "/>
<path style="fill:rgb(255, 255, 0);fill-opacity:0;fill-rule:evenodd;stroke:rgb(57, 255, 0);stroke-width:1;" d="M 485.949, 451.189 L 500.821, 430.783 L 502.551, 431.474 L 514.137, 415.391 L 539.213, 425.94 L 542.845, 420.752 L 561.868, 428.707 L 558.063, 434.068 L 567.748, 438.046 L 573.627, 437.008 L 576.048, 438.046 L 577.951, 435.452 L 595.071, 442.715 L 564.808, 484.393 L 526.762, 468.482 L 532.642, 460.182 L 531.431, 459.836 L 534.025, 456.204 L 523.822, 451.881 L 515.348, 463.64 L 485.949, 451.189 z "/>
<path style="fill:rgb(255, 0, 0);fill-opacity:0;fill-rule:evenodd;stroke:rgb(57, 255, 0);stroke-width:1;" d="M 183.658, 385.128 L 199.222, 363.684 L 284.479, 399.481 L 286.208, 401.902 L 257.155, 442.023 L 228.967, 430.091 L 233.982, 423.346 L 207.869, 412.451 L 214.786, 402.767 L 191.094, 392.91 L 193.515, 389.278 L 183.658, 385.128 z "/>
<path style="fill:rgb(0, 255, 0);fill-opacity:0;fill-rule:evenodd;stroke:rgb(57, 255, 0);stroke-width:1;" d="M 850.843, 678.08 L 853.437, 674.622 L 853.091, 674.622 L 867.791, 654.561 L 866.753, 651.967 L 868.482, 649.546 L 871.768, 648.681 L 876.265, 650.757 L 876.956, 652.832 L 884.565, 655.945 L 888.024, 655.599 L 895.633, 658.885 L 897.017, 661.306 L 904.626, 664.419 L 907.912, 663.9 L 915.521, 667.185 L 916.559, 669.607 L 924.514, 672.892 L 927.626, 672.374 L 944.747, 679.464 L 945.958, 681.885 L 953.913, 685.344 L 956.68, 684.652 L 964.808, 687.938 L 965.672, 690.186 L 973.281, 693.472 L 976.567, 692.953 L 980.545, 694.682 L 961.695, 720.277 L 949.416, 715.089 L 946.822, 718.547 L 932.296, 712.495 L 934.717, 709.036 L 921.747, 703.502 L 923.303, 701.427 L 917.942, 699.179 L 915.521, 702.464 L 911.716, 700.908 L 912.581, 699.697 L 893.385, 691.569 L 890.618, 695.374 L 875.919, 689.321 L 878.859, 685.344 L 860.009, 677.562 L 857.588, 681.02 L 850.843, 678.08 z "/>
<path style="fill:rgb(0, 0, 255);fill-opacity:0;fill-rule:evenodd;stroke:rgb(57, 255, 0);stroke-width:1;" d="M 318.029, 212.538 L 330.134, 196.109 L 334.803, 198.011 L 338.435, 192.996 L 359.706, 201.989 L 375.443, 180.718 L 430.437, 204.064 L 400, 245.914 L 386.857, 239.343 L 347.773, 219.974 L 343.45, 224.816 L 318.029, 212.538 z "/>
<path style="fill:rgb(255, 255, 0);fill-opacity:0;fill-rule:evenodd;stroke:rgb(57, 255, 0);stroke-width:1;" d="M 114.483, 509.122 L 135.581, 480.069 L 137.83, 479.377 L 141.807, 481.107 L 142.672, 483.009 L 142.326, 483.528 L 154.259, 488.543 L 155.296, 486.987 L 205.966, 508.085 L 206.831, 510.333 L 187.462, 537.311 L 184.176, 536.1 L 178.642, 543.709 L 180.718, 546.476 L 177.951, 550.454 L 152.183, 539.732 L 138.176, 533.852 L 122.784, 527.454 L 131.085, 516.04 L 114.483, 509.122 z "/>
<path style="fill:rgb(255, 0, 0);fill-opacity:0;fill-rule:evenodd;stroke:rgb(57, 255, 0);stroke-width:1;" d="M 641.072, 233.636 L 650.584, 220.666 L 657.328, 223.433 L 665.802, 211.846 L 659.058, 208.906 L 667.704, 197.147 L 688.802, 205.966 L 684.133, 212.365 L 685.344, 215.132 L 682.923, 218.591 L 687.765, 220.493 L 696.239, 208.906 L 722.698, 219.974 L 726.675, 214.613 L 753.48, 225.854 L 722.698, 267.877 L 699.006, 257.847 L 708.344, 245.05 L 709.209, 245.396 L 711.803, 242.11 L 702.637, 238.132 L 690.878, 254.561 L 672.719, 246.952 L 682.231, 233.636 L 683.096, 233.982 L 685.517, 230.696 L 676.178, 226.891 L 673.757, 230.177 L 674.622, 230.523 L 665.11, 243.666 L 641.072, 233.636 z "/>
<path style="fill:rgb(0, 255, 0);fill-opacity:0;fill-rule:evenodd;stroke:rgb(57, 255, 0);stroke-width:1;" d="M 676.005, 185.733 L 684.652, 173.8 L 691.396, 176.567 L 700.043, 164.635 L 693.299, 161.868 L 701.773, 150.108 L 725.811, 160.138 L 716.645, 172.59 L 715.78, 172.244 L 713.532, 175.184 L 722.525, 178.988 L 733.766, 163.424 L 752.097, 171.206 L 741.029, 186.597 L 748.984, 189.883 L 760.052, 174.492 L 783.571, 184.349 L 753.48, 225.854 L 726.675, 214.613 L 730.826, 208.906 L 704.712, 197.838 L 713.186, 186.252 L 707.825, 184.003 L 705.058, 187.981 L 701.6, 188.327 L 697.103, 194.553 L 676.005, 185.733 z "/>
<path style="fill:rgb(0, 0, 255);fill-opacity:0;fill-rule:evenodd;stroke:rgb(57, 255, 0);stroke-width:1;" d="M 509.122, 402.94 L 513.792, 396.541 L 536.965, 364.548 L 603.026, 392.391 L 573.109, 433.55 L 561.868, 428.707 L 542.845, 420.752 L 528.837, 414.872 L 530.912, 412.105 L 509.122, 402.94 z "/>
<path style="fill:rgb(255, 255, 0);fill-opacity:0;fill-rule:evenodd;stroke:rgb(57, 255, 0);stroke-width:1;" d="M 466.926, 301.427 L 495.288, 262.862 L 512.927, 270.298 L 505.837, 279.983 L 513.619, 283.268 L 517.077, 278.599 L 568.958, 300.735 L 559.447, 313.705 L 564.635, 315.953 L 549.762, 336.187 L 526.762, 326.329 L 537.484, 311.803 L 526.589, 307.134 L 515.521, 322.179 L 466.926, 301.427 z "/>
<path style="fill:rgb(255, 0, 0);fill-opacity:0;fill-rule:evenodd;stroke:rgb(57, 255, 0);stroke-width:1;" d="M 848.768, 462.084 L 862.776, 442.888 L 868.482, 445.309 L 872.806, 439.429 L 881.453, 443.061 L 885.257, 437.7 L 871.077, 431.82 L 878.859, 421.098 L 947.687, 449.978 L 918.98, 489.408 L 917.769, 491.137 L 901.686, 484.22 L 904.28, 480.761 L 890.791, 475.054 L 866.407, 464.851 L 863.813, 468.482 L 848.768, 462.084 z "/>
<path style="fill:rgb(0, 255, 0);fill-opacity:0;fill-rule:evenodd;stroke:rgb(57, 255, 0);stroke-width:1;" d="M 705.404, 101.859 L 720.104, 81.7985 L 733.939, 87.5054 L 732.382, 89.4077 L 749.503, 96.671 L 752.27, 97.8815 L 755.556, 93.3852 L 783.225, 104.972 L 792.564, 92.1747 L 812.797, 100.649 L 834.241, 106.528 L 832.685, 108.604 L 831.647, 108.258 L 803.632, 143.191 L 787.203, 136.273 L 788.586, 134.544 L 766.796, 125.378 L 765.586, 127.108 L 744.834, 118.288 L 746.044, 116.559 L 724.254, 107.393 L 722.871, 109.122 L 705.404, 101.859 z "/>
<path style="fill:rgb(0, 0, 255);fill-opacity:0;fill-rule:evenodd;stroke:rgb(57, 255, 0);stroke-width:1;" d="M 150.454, 451.535 L 165.153, 431.301 L 170.169, 433.377 L 185.387, 412.451 L 201.989, 419.542 L 197.319, 425.94 L 214.094, 433.031 L 219.282, 426.113 L 228.967, 430.091 L 257.155, 442.023 L 249.373, 452.572 L 227.064, 443.234 L 220.839, 451.881 L 242.802, 461.219 L 226.546, 483.528 L 188.327, 467.618 L 198.53, 453.437 L 196.109, 452.399 L 200.259, 446.693 L 191.613, 443.234 L 177.259, 462.949 L 150.454, 451.535 z "/>
<path style="fill:rgb(255, 255, 0);fill-opacity:0;fill-rule:evenodd;stroke:rgb(57, 255, 0);stroke-width:1;" d="M 301.427, 590.575 L 316.645, 577.259 L 331.518, 564.116 L 410.895, 597.147 L 389.278, 627.237 L 301.427, 590.575 z "/>
<path style="fill:rgb(255, 0, 0);fill-opacity:0;fill-rule:evenodd;stroke:rgb(57, 255, 0);stroke-width:1;" d="M 697.968, 399.135 L 728.232, 357.631 L 755.21, 369.045 L 736.533, 394.812 L 747.428, 399.481 L 763.165, 377.864 L 779.939, 384.782 L 777, 388.759 L 794.466, 396.022 L 786.511, 406.917 L 785.992, 407.609 L 776.308, 403.632 L 773.195, 407.782 L 774.233, 408.128 L 767.488, 417.466 L 776.135, 421.098 L 771.812, 427.151 L 770.082, 429.399 L 697.968, 399.135 z "/>
<path style="fill:rgb(0, 255, 0);fill-opacity:0;fill-rule:evenodd;stroke:rgb(57, 255, 0);stroke-width:1;" d="M 36.8353, 208.733 L 49.2866, 191.958 L 48.5949, 189.364 L 49.9784, 187.462 L 53.2642, 186.425 L 60.0086, 177.259 L 58.7981, 175.53 L 66.2343, 165.326 L 133.679, 193.861 L 109.641, 226.719 L 93.0393, 219.628 L 66.2343, 208.214 L 67.9637, 205.793 L 63.4674, 203.891 L 59.6628, 209.079 L 61.5651, 209.944 L 56.377, 217.034 L 36.8353, 208.733 z "/>
<path style="fill:rgb(0, 0, 255);fill-opacity:0;fill-rule:evenodd;stroke:rgb(57, 255, 0);stroke-width:1;" d="M 406.917, 559.792 L 417.812, 544.92 L 430.091, 550.108 L 434.414, 544.401 L 427.324, 541.461 L 436.489, 528.837 L 472.114, 543.882 L 462.776, 556.853 L 457.588, 554.604 L 453.61, 560.138 L 469.866, 567.056 L 486.122, 544.574 L 486.295, 544.574 L 513.273, 555.988 L 486.468, 592.996 L 406.917, 559.792 z "/>
<path style="fill:rgb(255, 255, 0);fill-opacity:0;fill-rule:evenodd;stroke:rgb(57, 255, 0);stroke-width:1;" d="M 401.556, 131.777 L 416.429, 111.371 L 425.076, 115.002 L 427.151, 112.062 L 423.346, 110.506 L 434.76, 94.7687 L 438.046, 96.1522 L 440.121, 93.3852 L 441.85, 90.9641 L 458.971, 98.0545 L 447.211, 114.483 L 455.339, 117.769 L 459.144, 112.581 L 468.482, 116.386 L 476.61, 105.491 L 495.633, 113.446 L 463.467, 157.717 L 401.556, 131.777 z "/>
<path style="fill:rgb(255, 0, 0);fill-opacity:0;fill-rule:evenodd;stroke:rgb(57, 255, 0);stroke-width:1;" d="M 448.768, 511.889 L 458.106, 499.265 L 465.37, 502.205 L 469.52, 496.498 L 457.069, 491.31 L 467.618, 476.783 L 546.649, 509.814 L 519.844, 546.995 L 492.866, 535.581 L 509.122, 513.1 L 492.866, 506.182 L 488.543, 512.062 L 493.731, 514.31 L 484.565, 526.935 L 448.768, 511.889 z "/>
<path style="fill:rgb(0, 255, 0);fill-opacity:0;fill-rule:evenodd;stroke:rgb(57, 255, 0);stroke-width:1;" d="M 704.021, 540.424 L 733.593, 500.303 L 739.645, 499.611 L 759.533, 472.633 L 790.489, 485.776 L 739.818, 554.259 L 739.127, 555.469 L 704.021, 540.424 z "/>
<path style="fill:rgb(0, 0, 255);fill-opacity:0;fill-rule:evenodd;stroke:rgb(57, 255, 0);stroke-width:1;" d="M 79.0316, 563.424 L 93.7311, 543.191 L 99.265, 545.439 L 114.656, 523.995 L 122.784, 527.454 L 138.176, 533.852 L 130.393, 544.401 L 127.972, 545.439 L 119.153, 557.717 L 133.16, 563.597 L 131.95, 565.326 L 135.927, 566.883 L 146.476, 552.183 L 144.574, 550.281 L 152.183, 539.732 L 177.951, 550.454 L 147.687, 592.131 L 79.0316, 563.424 z "/>
<path style="fill:rgb(255, 255, 0);fill-opacity:0;fill-rule:evenodd;stroke:rgb(57, 255, 0);stroke-width:1;" d="M 125.378, 108.949 L 135.236, 95.4604 L 144.228, 99.265 L 157.371, 81.1068 L 147.86, 77.1293 L 158.582, 62.2568 L 213.575, 85.2572 L 196.974, 108.085 L 169.131, 96.3251 L 163.078, 104.453 L 190.921, 116.213 L 175.357, 137.657 L 149.07, 125.378 L 151.837, 121.401 L 125.378, 108.949 z "/>
<path style="fill:rgb(255, 0, 0);fill-opacity:0;fill-rule:evenodd;stroke:rgb(57, 255, 0);stroke-width:1;" d="M 637.095, 505.837 L 641.418, 499.784 L 639.689, 499.092 L 681.712, 442.023 L 683.441, 442.715 L 688.284, 436.316 L 717.683, 448.941 L 713.186, 454.994 L 715.435, 455.858 L 694.509, 484.22 L 691.224, 482.836 L 685.69, 490.445 L 689.494, 492.002 L 673.757, 513.273 L 671.682, 512.235 L 667.013, 518.634 L 637.095, 505.837 z "/>
<path style="fill:rgb(0, 255, 0);fill-opacity:0;fill-rule:evenodd;stroke:rgb(57, 255, 0);stroke-width:1;" d="M 430.091, 89.2348 L 440.467, 75.054 L 459.317, 49.1137 L 460.527, 47.5573 L 520.363, 72.6329 L 521.228, 73.6706 L 521.574, 74.3623 L 521.92, 75.9187 L 521.747, 77.6481 L 499.784, 107.739 L 446.001, 85.0843 L 441.85, 90.9641 L 440.121, 93.3852 L 430.091, 89.2348 z "/>
<path style="fill:rgb(0, 0, 255);fill-opacity:0;fill-rule:evenodd;stroke:rgb(57, 255, 0);stroke-width:1;" d="M 494.769, 262.689 L 503.761, 250.065 L 510.679, 253.005 L 509.814, 254.215 L 525.551, 260.787 L 529.01, 259.749 L 530.393, 260.268 L 531.95, 258.366 L 528.318, 256.982 L 527.626, 254.561 L 513.446, 248.681 L 512.754, 249.719 L 506.01, 246.952 L 515.867, 233.29 L 522.784, 236.23 L 521.747, 237.441 L 541.115, 245.396 L 544.747, 240.38 L 525.724, 232.425 L 525.032, 233.29 L 517.942, 230.35 L 526.589, 218.418 L 568.266, 235.711 L 564.981, 240.38 L 563.251, 239.689 L 550.627, 257.328 L 555.296, 259.23 L 567.92, 241.591 L 566.883, 241.245 L 570.342, 236.403 L 586.079, 242.974 L 572.59, 261.997 L 571.898, 261.824 L 568.958, 265.802 L 567.575, 265.283 L 561.349, 273.757 L 560.311, 273.411 L 553.221, 283.441 L 538.003, 277.043 L 546.649, 265.11 L 543.709, 263.9 L 535.063, 275.832 L 517.077, 268.223 L 515.002, 271.163 L 512.927, 270.298 L 495.288, 262.862 L 494.769, 262.689 z "/>
<path style="fill:rgb(255, 255, 0);fill-opacity:0;fill-rule:evenodd;stroke:rgb(57, 255, 0);stroke-width:1;" d="M 908.604, 124.859 L 923.995, 103.934 L 927.108, 105.318 L 928.491, 103.243 L 953.394, 113.619 L 952.01, 115.694 L 954.431, 116.732 L 956.161, 114.31 L 978.47, 123.649 L 976.74, 126.243 L 978.815, 127.108 L 980.372, 125.032 L 999.914, 133.16 L 998.357, 135.409 L 1008.04, 139.559 L 992.823, 160.311 L 983.658, 156.507 L 982.274, 158.409 L 962.387, 150.108 L 963.77, 148.033 L 961.522, 147.168 L 959.62, 149.762 L 936.965, 140.251 L 939.04, 137.484 L 937.138, 136.792 L 935.581, 139.04 L 909.987, 128.318 L 911.543, 126.07 L 908.604, 124.859 z "/>
<path style="fill:rgb(255, 0, 0);fill-opacity:0;fill-rule:evenodd;stroke:rgb(57, 255, 0);stroke-width:1;" d="M 770.774, 559.101 L 792.218, 530.048 L 796.714, 531.95 L 808.82, 515.521 L 789.97, 507.566 L 801.556, 491.829 L 857.069, 515.348 L 845.482, 531.258 L 828.361, 523.822 L 816.256, 540.251 L 820.579, 542.153 L 799.308, 571.206 L 770.774, 559.101 z "/>
<path style="fill:rgb(0, 255, 0);fill-opacity:0;fill-rule:evenodd;stroke:rgb(57, 255, 0);stroke-width:1;" d="M 50.4972, 633.982 L 68.6554, 608.56 L 68.3096, 606.831 L 76.4375, 595.59 L 128.664, 617.207 L 98.7462, 658.885 L 84.3926, 652.832 L 81.1068, 651.621 L 83.0091, 648.854 L 68.3096, 642.802 L 66.4073, 640.553 L 50.4972, 633.982 z "/>
<path style="fill:rgb(0, 0, 255);fill-opacity:0;fill-rule:evenodd;stroke:rgb(57, 255, 0);stroke-width:1;" d="M 738.089, 350.022 L 761.262, 318.201 L 798.617, 333.939 L 799.654, 332.728 L 821.963, 342.067 L 820.406, 344.315 L 804.669, 365.932 L 797.752, 375.443 L 789.451, 371.812 L 786.165, 376.308 L 770.601, 369.736 L 774.06, 365.067 L 738.089, 350.022 z "/>
<path style="fill:rgb(255, 255, 0);fill-opacity:0;fill-rule:evenodd;stroke:rgb(57, 255, 0);stroke-width:1;" d="M 805.88, 722.179 L 823.865, 697.622 L 903.07, 730.999 L 885.084, 755.556 L 805.88, 722.179 z "/>
<path style="fill:rgb(255, 0, 0);fill-opacity:0;fill-rule:evenodd;stroke:rgb(57, 255, 0);stroke-width:1;" d="M 680.156, 619.974 L 684.306, 614.094 L 694.163, 618.245 L 703.848, 604.929 L 707.479, 600.086 L 697.622, 595.936 L 710.246, 578.642 L 764.375, 601.47 L 751.751, 618.764 L 745.352, 615.997 L 743.796, 617.899 L 741.894, 617.034 L 729.961, 633.463 L 738.608, 637.095 L 734.457, 642.802 L 680.156, 619.974 z "/>
<path style="fill:rgb(0, 255, 0);fill-opacity:0;fill-rule:evenodd;stroke:rgb(57, 255, 0);stroke-width:1;" d="M 255.772, 355.728 L 269.261, 336.879 L 274.276, 338.954 L 288.457, 319.239 L 315.089, 330.307 L 317.51, 329.269 L 319.412, 326.502 L 336.706, 333.593 L 305.75, 376.481 L 255.772, 355.728 z "/>
<path style="fill:rgb(0, 0, 255);fill-opacity:0;fill-rule:evenodd;stroke:rgb(57, 255, 0);stroke-width:1;" d="M 811.241, 244.704 L 824.557, 226.027 L 827.324, 227.064 L 831.128, 221.876 L 829.053, 221.012 L 838.911, 207.523 L 867.445, 219.455 L 866.061, 221.185 L 866.234, 221.358 L 876.783, 225.681 L 877.994, 223.952 L 893.039, 230.177 L 882.663, 244.704 L 872.46, 240.38 L 867.099, 247.99 L 867.964, 250.757 L 875.746, 254.042 L 867.445, 265.456 L 842.888, 255.08 L 841.332, 257.328 L 811.241, 244.704 z "/>
<path style="fill:rgb(255, 255, 0);fill-opacity:0;fill-rule:evenodd;stroke:rgb(57, 255, 0);stroke-width:1;" d="M 20.7523, 682.75 L 35.9706, 661.652 L 47.7302, 666.667 L 41.3316, 675.659 L 43.5798, 676.697 L 53.783, 662.516 L 51.3619, 661.479 L 49.4596, 664.246 L 37.7, 659.23 L 50.3243, 641.591 L 80.588, 654.215 L 78.5128, 656.982 L 80.7609, 657.847 L 84.3926, 652.832 L 98.7462, 658.885 L 100.13, 659.576 L 99.9568, 661.133 L 99.0921, 662.689 L 98.5733, 663.381 L 97.0169, 664.764 L 96.1522, 665.11 L 92.1747, 670.644 L 92.0017, 672.201 L 91.31, 673.584 L 90.0994, 674.795 L 88.543, 675.659 L 81.2797, 685.863 L 81.2797, 686.554 L 80.588, 688.111 L 79.3774, 689.494 L 77.821, 690.532 L 72.46, 698.141 L 72.2871, 698.833 L 71.7683, 700.043 L 71.2495, 700.562 L 70.0389, 701.427 L 68.4825, 702.118 L 67.099, 702.291 L 65.8885, 702.118 L 64.332, 701.773 L 62.9486, 700.908 L 61.9109, 699.87 L 34.7601, 688.629 L 31.9931, 687.938 L 30.6096, 687.419 L 29.399, 686.9 L 27.3238, 685.517 L 20.7523, 682.75 z M 53.61, 668.569 L 61.3921, 671.682 L 60.5275, 672.892 L 67.099, 675.659 L 73.1518, 667.185 L 70.9036, 666.321 L 69.3472, 668.396 L 57.2417, 663.381 L 53.61, 668.569 z M 55.5123, 683.787 L 62.2568, 686.554 L 65.0238, 682.75 L 58.2793, 679.983 L 55.5123, 683.787 z "/>
<path style="fill:rgb(255, 0, 0);fill-opacity:0;fill-rule:evenodd;stroke:rgb(57, 255, 0);stroke-width:1;" d="M 778.037, 290.705 L 787.895, 277.043 L 790.316, 277.907 L 794.12, 272.546 L 792.045, 271.682 L 805.015, 253.351 L 835.279, 265.975 L 833.204, 268.915 L 841.332, 272.201 L 857.242, 278.772 L 849.978, 288.975 L 842.715, 285.863 L 838.565, 286.9 L 832.512, 295.374 L 842.196, 299.351 L 832.512, 313.186 L 817.639, 306.961 L 818.85, 305.231 L 807.955, 300.908 L 806.744, 302.464 L 778.037, 290.705 z "/>
<path style="fill:rgb(0, 255, 0);fill-opacity:0;fill-rule:evenodd;stroke:rgb(57, 255, 0);stroke-width:1;" d="M 474.881, 720.968 L 525.032, 652.313 L 549.07, 662.343 L 531.777, 686.208 L 534.371, 687.246 L 527.281, 696.757 L 518.634, 708.69 L 516.213, 707.652 L 499.092, 730.999 L 474.881, 720.968 z "/>
<path style="fill:rgb(0, 0, 255);fill-opacity:0;fill-rule:evenodd;stroke:rgb(57, 255, 0);stroke-width:1;" d="M 576.221, 151.146 L 606.485, 109.295 L 655.772, 130.048 L 642.629, 147.86 L 640.38, 146.995 L 641.591, 145.093 L 619.109, 135.581 L 613.575, 143.364 L 616.688, 145.612 L 632.08, 152.183 L 622.914, 164.808 L 602.162, 156.161 L 598.876, 160.657 L 576.221, 151.146 z "/>
<path style="fill:rgb(255, 255, 0);fill-opacity:0;fill-rule:evenodd;stroke:rgb(57, 255, 0);stroke-width:1;" d="M 55.3394, 498.919 L 64.332, 486.641 L 69.866, 489.062 L 76.4375, 480.069 L 71.2495, 477.821 L 86.2949, 457.069 L 128.145, 474.708 L 126.935, 476.438 L 114.31, 493.731 L 111.889, 492.866 L 113.619, 490.618 L 109.122, 488.716 L 99.6109, 501.859 L 106.355, 504.799 L 97.7086, 516.732 L 55.3394, 498.919 z "/>
<path style="fill:rgb(255, 0, 0);fill-opacity:0;fill-rule:evenodd;stroke:rgb(57, 255, 0);stroke-width:1;" d="M 49.6325, 408.82 L 79.7233, 367.488 L 99.265, 375.616 L 95.9792, 380.112 L 119.844, 390.143 L 111.198, 402.075 L 92.3476, 394.12 L 90.0994, 397.406 L 91.6559, 398.098 L 89.9265, 400.519 L 88.3701, 399.827 L 86.2949, 402.594 L 109.987, 412.624 L 98.0545, 429.053 L 49.6325, 408.82 z "/>
<path style="fill:rgb(0, 255, 0);fill-opacity:0;fill-rule:evenodd;stroke:rgb(57, 255, 0);stroke-width:1;" d="M 584.176, 634.155 L 592.65, 622.568 L 612.538, 595.417 L 653.005, 612.538 L 624.643, 651.275 L 584.176, 634.155 z "/>
<path style="fill:rgb(0, 0, 255);fill-opacity:0;fill-rule:evenodd;stroke:rgb(57, 255, 0);stroke-width:1;" d="M 352.616, 678.772 L 382.534, 637.268 L 420.061, 652.832 L 397.752, 683.614 L 389.97, 694.336 L 352.616, 678.772 z "/>
<path style="fill:rgb(255, 255, 0);fill-opacity:0;fill-rule:evenodd;stroke:rgb(57, 255, 0);stroke-width:1;" d="M 635.019, 168.439 L 661.306, 132.123 L 666.667, 134.371 L 667.358, 133.333 L 697.968, 146.131 L 696.757, 147.86 L 701.773, 150.108 L 693.299, 161.868 L 684.652, 173.8 L 676.005, 185.733 L 663.035, 180.199 L 661.997, 181.582 L 647.298, 175.357 L 648.163, 173.973 L 635.019, 168.439 z "/>
<path style="fill:rgb(255, 0, 0);fill-opacity:0;fill-rule:evenodd;stroke:rgb(57, 255, 0);stroke-width:1;" d="M 27.3238, 541.807 L 49.2866, 511.543 L 51.8807, 512.581 L 56.377, 506.528 L 94.2499, 522.265 L 89.7536, 528.664 L 91.6559, 529.529 L 69.866, 559.62 L 27.3238, 541.807 z "/>
<path style="fill:rgb(0, 255, 0);fill-opacity:0;fill-rule:evenodd;stroke:rgb(57, 255, 0);stroke-width:1;" d="M 84.3926, 91.8288 L 89.9265, 84.2196 L 94.4228, 77.9939 L 102.205, 81.2797 L 105.664, 76.6105 L 108.085, 77.6481 L 112.581, 71.5953 L 110.333, 70.5577 L 116.386, 62.2568 L 108.431, 58.971 L 117.077, 46.8655 L 118.288, 45.3091 L 158.582, 62.2568 L 147.86, 77.1293 L 139.04, 73.4976 L 135.754, 78.1669 L 137.484, 78.8586 L 116.732, 107.22 L 84.3926, 91.8288 z "/>
<path style="fill:rgb(0, 0, 255);fill-opacity:0;fill-rule:evenodd;stroke:rgb(57, 255, 0);stroke-width:1;" d="M 644.358, 604.929 L 674.622, 563.597 L 710.246, 578.642 L 697.622, 595.936 L 684.306, 614.094 L 680.156, 619.974 L 644.358, 604.929 z "/>
<path style="fill:rgb(255, 255, 0);fill-opacity:0;fill-rule:evenodd;stroke:rgb(57, 255, 0);stroke-width:1;" d="M 240.899, 145.958 L 268.05, 108.604 L 312.84, 127.454 L 301.081, 143.709 L 290.013, 139.04 L 284.479, 146.649 L 290.186, 149.07 L 282.923, 158.928 L 270.471, 153.74 L 267.877, 157.198 L 240.899, 145.958 z "/>
<path style="fill:rgb(255, 0, 0);fill-opacity:0;fill-rule:evenodd;stroke:rgb(57, 255, 0);stroke-width:1;" d="M 510.852, 745.698 L 541.115, 704.194 L 572.936, 717.683 L 563.424, 730.826 L 545.266, 755.728 L 542.845, 759.187 L 510.852, 745.698 z "/>
<path style="fill:rgb(0, 255, 0);fill-opacity:0;fill-rule:evenodd;stroke:rgb(57, 255, 0);stroke-width:1;" d="M 262.17, 580.718 L 289.148, 543.364 L 333.42, 561.868 L 332.555, 563.251 L 331.518, 564.116 L 316.645, 577.259 L 299.351, 569.996 L 293.99, 577.432 L 303.156, 581.236 L 298.314, 587.808 L 295.201, 590.229 L 292.434, 589.019 L 290.013, 592.304 L 262.17, 580.718 z "/>
<path style="fill:rgb(0, 0, 255);fill-opacity:0;fill-rule:evenodd;stroke:rgb(57, 255, 0);stroke-width:1;" d="M 625.162, 84.3926 L 641.764, 61.5651 L 661.133, 69.866 L 668.569, 72.9788 L 690.359, 82.1444 L 695.72, 84.3926 L 679.118, 107.047 L 625.162, 84.3926 z "/>
<path style="fill:rgb(255, 255, 0);fill-opacity:0;fill-rule:evenodd;stroke:rgb(57, 255, 0);stroke-width:1;" d="M 103.243, 148.725 L 118.634, 127.626 L 123.995, 130.048 L 129.702, 122.265 L 138.176, 125.897 L 132.815, 133.16 L 150.454, 140.77 L 155.123, 134.371 L 172.071, 142.326 L 152.183, 169.477 L 103.243, 148.725 z "/>
<path style="fill:rgb(255, 0, 0);fill-opacity:0;fill-rule:evenodd;stroke:rgb(57, 255, 0);stroke-width:1;" d="M 306.961, 321.314 L 316.299, 308.517 L 324.6, 311.976 L 325.119, 313.878 L 326.675, 311.803 L 325.638, 309.728 L 317.856, 306.442 L 327.367, 293.126 L 336.533, 296.93 L 338.608, 293.99 L 326.675, 289.148 L 334.112, 278.772 L 366.45, 292.261 L 336.706, 333.593 L 319.412, 326.502 L 306.961, 321.314 z "/>
<path style="fill:rgb(0, 255, 0);fill-opacity:0;fill-rule:evenodd;stroke:rgb(57, 255, 0);stroke-width:1;" d="M 718.201, 690.878 L 724.946, 681.539 L 726.848, 678.945 L 735.495, 682.577 L 743.623, 671.682 L 734.976, 667.877 L 743.45, 656.291 L 783.571, 673.238 L 775.097, 684.825 L 766.623, 681.366 L 765.586, 682.75 L 758.495, 692.261 L 766.969, 695.893 L 758.323, 707.825 L 718.201, 690.878 z "/>
<path style="fill:rgb(0, 0, 255);fill-opacity:0;fill-rule:evenodd;stroke:rgb(57, 255, 0);stroke-width:1;" d="M 104.28, 431.82 L 113.446, 419.023 L 121.92, 422.655 L 130.393, 411.068 L 121.92, 407.609 L 129.183, 397.406 L 169.996, 414.527 L 162.387, 424.903 L 149.589, 419.542 L 149.07, 420.233 L 148.206, 419.888 L 140.942, 429.745 L 144.055, 432.166 L 154.086, 436.316 L 144.92, 448.768 L 104.28, 431.82 z "/>
<path style="fill:rgb(255, 255, 0);fill-opacity:0;fill-rule:evenodd;stroke:rgb(57, 255, 0);stroke-width:1;" d="M 375.443, 180.718 L 381.496, 172.244 L 390.316, 160.311 L 445.482, 183.485 L 430.437, 204.064 L 375.443, 180.718 z "/>
<path style="fill:rgb(255, 0, 0);fill-opacity:0;fill-rule:evenodd;stroke:rgb(57, 255, 0);stroke-width:1;" d="M 663.554, 667.704 L 691.915, 628.967 L 718.547, 640.208 L 703.675, 660.441 L 701.6, 663.208 L 696.585, 670.298 L 690.186, 678.945 L 663.554, 667.704 z "/>
<path style="fill:rgb(0, 255, 0);fill-opacity:0;fill-rule:evenodd;stroke:rgb(57, 255, 0);stroke-width:1;" d="M 641.764, 61.5651 L 657.674, 39.6022 L 705.577, 61.3921 L 690.359, 82.1444 L 668.569, 72.9788 L 674.103, 65.8885 L 666.84, 62.6027 L 661.133, 69.866 L 641.764, 61.5651 z "/>
<path style="fill:rgb(0, 0, 255);fill-opacity:0;fill-rule:evenodd;stroke:rgb(57, 255, 0);stroke-width:1;" d="M 207.177, 191.958 L 224.816, 167.92 L 242.802, 176.74 L 240.208, 180.199 L 244.185, 181.755 L 242.974, 183.485 L 268.396, 195.071 L 266.148, 198.184 L 255.772, 212.365 L 207.177, 191.958 z "/>
<path style="fill:rgb(255, 255, 0);fill-opacity:0;fill-rule:evenodd;stroke:rgb(57, 255, 0);stroke-width:1;" d="M 305.923, 194.725 L 312.668, 185.387 L 312.84, 183.485 L 315.435, 179.853 L 316.299, 180.199 L 336.533, 152.702 L 334.457, 151.837 L 342.931, 140.251 L 363.684, 148.898 L 355.383, 160.138 L 353.307, 159.274 L 330.653, 190.402 L 329.442, 189.883 L 328.578, 192.131 L 321.833, 201.47 L 305.923, 194.725 z "/>
<path style="fill:rgb(255, 0, 0);fill-opacity:0;fill-rule:evenodd;stroke:rgb(57, 255, 0);stroke-width:1;" d="M 285.69, 186.079 L 297.795, 169.65 L 316.818, 143.709 L 314.916, 142.845 L 323.044, 131.777 L 342.931, 140.251 L 334.457, 151.837 L 333.074, 151.146 L 310.419, 182.101 L 308.344, 183.139 L 302.118, 192.996 L 285.69, 186.079 z "/>
<path style="fill:rgb(0, 255, 0);fill-opacity:0;fill-rule:evenodd;stroke:rgb(57, 255, 0);stroke-width:1;" d="M 564.981, 283.268 L 574.665, 269.78 L 585.214, 274.103 L 593.515, 262.689 L 586.252, 259.749 L 595.417, 246.952 L 625.681, 259.403 L 617.553, 270.644 L 610.463, 267.704 L 591.267, 294.163 L 564.981, 283.268 z "/>
<path style="fill:rgb(0, 0, 255);fill-opacity:0;fill-rule:evenodd;stroke:rgb(57, 255, 0);stroke-width:1;" d="M 341.029, 186.425 L 344.661, 181.582 L 344.142, 179.161 L 356.593, 162.214 L 354.518, 161.349 L 355.383, 160.138 L 363.684, 148.898 L 390.316, 160.311 L 381.496, 172.244 L 379.767, 171.552 L 367.315, 188.5 L 364.721, 189.364 L 360.744, 194.898 L 341.029, 186.425 z M 361.262, 171.725 L 366.278, 173.973 L 366.796, 174.146 L 371.12, 168.266 L 365.413, 166.018 L 361.262, 171.725 z "/>
<path style="fill:rgb(255, 255, 0);fill-opacity:0;fill-rule:evenodd;stroke:rgb(57, 255, 0);stroke-width:1;" d="M 576.221, 434.76 L 606.139, 393.774 L 624.989, 401.556 L 595.071, 442.715 L 577.951, 435.452 L 576.221, 434.76 z "/>
<path style="fill:rgb(255, 0, 0);fill-opacity:0;fill-rule:evenodd;stroke:rgb(57, 255, 0);stroke-width:1;" d="M 577.432, 711.976 L 577.778, 711.457 L 584.868, 701.773 L 588.327, 703.329 L 588.5, 704.194 L 593.515, 703.502 L 593.342, 702.637 L 601.816, 690.878 L 602.681, 690.705 L 601.297, 687.419 L 600.432, 687.592 L 596.455, 685.863 L 603.891, 675.832 L 630.869, 687.073 L 623.087, 697.795 L 618.764, 696.066 L 618.591, 695.374 L 614.786, 696.066 L 614.959, 696.585 L 607.004, 707.652 L 605.793, 707.825 L 606.831, 711.457 L 608.042, 711.111 L 612.192, 713.013 L 604.583, 723.217 L 577.432, 711.976 z "/>
<path style="fill:rgb(0, 255, 0);fill-opacity:0;fill-rule:evenodd;stroke:rgb(57, 255, 0);stroke-width:1;" d="M 550.627, 700.043 L 558.409, 689.494 L 565.672, 692.607 L 567.229, 690.532 L 566.018, 690.013 L 572.763, 680.847 L 573.627, 679.637 L 574.838, 680.156 L 576.221, 678.253 L 568.958, 675.141 L 576.74, 664.419 L 603.891, 675.832 L 596.455, 685.863 L 595.936, 686.554 L 588.154, 683.268 L 587.116, 684.652 L 577.778, 697.449 L 585.56, 700.735 L 584.868, 701.773 L 577.778, 711.457 L 550.627, 700.043 z "/>
<path style="fill:rgb(0, 0, 255);fill-opacity:0;fill-rule:evenodd;stroke:rgb(57, 255, 0);stroke-width:1;" d="M 373.541, 120.017 L 399.654, 84.2196 L 403.113, 84.0467 L 406.399, 85.4302 L 408.301, 87.6783 L 401.038, 97.7086 L 405.88, 99.7838 L 413.143, 89.7536 L 417.466, 89.9265 L 420.233, 91.1371 L 421.963, 93.3852 L 395.85, 129.356 L 373.541, 120.017 z "/>
<path style="fill:rgb(255, 255, 0);fill-opacity:0;fill-rule:evenodd;stroke:rgb(57, 255, 0);stroke-width:1;" d="M 286.9, 306.615 L 294.336, 296.412 L 295.72, 296.93 L 306.961, 281.193 L 303.848, 279.81 L 311.457, 269.261 L 334.112, 278.772 L 326.675, 289.148 L 323.217, 287.765 L 311.976, 303.502 L 313.532, 304.194 L 306.096, 314.57 L 297.276, 310.765 L 297.103, 309.036 L 295.374, 310.073 L 286.9, 306.615 z "/>
<path style="fill:rgb(255, 0, 0);fill-opacity:0;fill-rule:evenodd;stroke:rgb(57, 255, 0);stroke-width:1;" d="M 754.864, 53.2642 L 765.413, 34.7601 L 808.474, 52.5724 L 800, 64.505 L 794.293, 62.2568 L 792.391, 62.7756 L 788.932, 67.6178 L 773.541, 61.3921 L 777.173, 56.377 L 770.082, 53.4371 L 766.623, 58.1064 L 754.864, 53.2642 z "/>
<path style="fill:rgb(0, 255, 0);fill-opacity:0;fill-rule:evenodd;stroke:rgb(57, 255, 0);stroke-width:1;" d="M 228.967, 162.214 L 239.17, 150.108 L 250.93, 155.815 L 251.621, 158.236 L 276.524, 168.612 L 277.389, 167.402 L 286.9, 171.033 L 276.351, 185.387 L 228.967, 162.214 z "/>
<path style="fill:rgb(0, 0, 255);fill-opacity:0;fill-rule:evenodd;stroke:rgb(57, 255, 0);stroke-width:1;" d="M 802.767, 65.3696 L 811.241, 53.783 L 863.294, 75.3999 L 854.475, 87.6783 L 843.234, 83.0091 L 841.332, 80.588 L 815.737, 70.0389 L 814.008, 70.2118 L 802.767, 65.3696 z "/>
<path style="fill:rgb(255, 255, 0);fill-opacity:0;fill-rule:evenodd;stroke:rgb(57, 255, 0);stroke-width:1;" d="M 389.97, 694.336 L 397.752, 683.614 L 399.654, 684.479 L 420.406, 655.599 L 435.106, 661.652 L 406.572, 701.254 L 389.97, 694.336 z "/>
<path style="fill:rgb(255, 0, 0);fill-opacity:0;fill-rule:evenodd;stroke:rgb(57, 255, 0);stroke-width:1;" d="M 327.713, 715.953 L 334.457, 706.442 L 333.766, 706.269 L 334.63, 705.058 L 336.706, 705.058 L 338.435, 705.577 L 385.819, 725.465 L 386.857, 726.675 L 387.03, 727.713 L 379.248, 738.262 L 369.045, 733.939 L 367.661, 731.518 L 356.247, 726.848 L 356.593, 726.329 L 350.886, 723.908 L 350.54, 724.427 L 346.217, 722.525 L 342.931, 722.179 L 327.713, 715.953 z "/>
<path style="fill:rgb(0, 255, 0);fill-opacity:0;fill-rule:evenodd;stroke:rgb(57, 255, 0);stroke-width:1;" d="M 333.766, 242.974 L 340.683, 233.463 L 364.894, 243.666 L 364.029, 244.877 L 392.045, 256.636 L 386.511, 264.419 L 385.473, 265.456 L 384.263, 265.975 L 383.398, 266.148 L 382.015, 265.975 L 381.323, 265.802 L 380.112, 265.11 L 379.594, 264.591 L 337.743, 246.952 L 339.127, 245.223 L 333.766, 242.974 z "/>
<path style="fill:rgb(0, 0, 255);fill-opacity:0;fill-rule:evenodd;stroke:rgb(57, 255, 0);stroke-width:1;" d="M 649.719, 661.824 L 677.907, 623.087 L 691.915, 628.967 L 663.554, 667.704 L 649.719, 661.824 z "/>
<path style="fill:rgb(255, 255, 0);fill-opacity:0;fill-rule:evenodd;stroke:rgb(57, 255, 0);stroke-width:1;" d="M 407.09, 606.658 L 414.872, 596.109 L 466.926, 617.726 L 459.144, 628.448 L 447.211, 623.433 L 446.347, 621.53 L 440.986, 619.282 L 421.79, 611.327 L 418.677, 611.673 L 411.241, 608.387 L 407.09, 606.658 z "/>
<path style="fill:rgb(255, 0, 0);fill-opacity:0;fill-rule:evenodd;stroke:rgb(57, 255, 0);stroke-width:1;" d="M 644.877, 281.02 L 652.486, 270.644 L 705.231, 292.434 L 697.622, 302.983 L 685.171, 297.795 L 685.171, 296.239 L 676.87, 292.78 L 674.449, 293.472 L 670.471, 291.742 L 670.298, 290.013 L 658.712, 285.171 L 656.118, 285.69 L 644.877, 281.02 z "/>
<path style="fill:rgb(0, 255, 0);fill-opacity:0;fill-rule:evenodd;stroke:rgb(57, 255, 0);stroke-width:1;" d="M 555.815, 337.916 L 564.116, 328.923 L 569.996, 331.518 L 571.552, 329.442 L 568.093, 327.886 L 580.545, 311.284 L 583.139, 311.284 L 587.116, 306.096 L 597.319, 310.592 L 593.688, 315.607 L 595.244, 317.683 L 573.973, 345.871 L 555.815, 337.916 z "/>
<path style="fill:rgb(0, 0, 255);fill-opacity:0;fill-rule:evenodd;stroke:rgb(57, 255, 0);stroke-width:1;" d="M 592.65, 353.653 L 599.914, 343.45 L 610.636, 347.946 L 611.154, 350.022 L 623.087, 354.864 L 624.125, 353.653 L 629.313, 355.728 L 629.486, 357.631 L 637.613, 360.917 L 640.208, 360.225 L 652.832, 365.413 L 645.569, 375.616 L 592.65, 353.653 z "/>
<path style="fill:rgb(255, 255, 0);fill-opacity:0;fill-rule:evenodd;stroke:rgb(57, 255, 0);stroke-width:1;" d="M 624.643, 651.275 L 653.005, 612.538 L 665.629, 617.899 L 637.268, 656.636 L 624.643, 651.275 z "/>
<path style="fill:rgb(255, 0, 0);fill-opacity:0;fill-rule:evenodd;stroke:rgb(57, 255, 0);stroke-width:1;" d="M 637.268, 656.636 L 665.629, 617.899 L 677.907, 623.087 L 649.719, 661.824 L 637.268, 656.636 z "/>
<path style="fill:rgb(0, 255, 0);fill-opacity:0;fill-rule:evenodd;stroke:rgb(57, 255, 0);stroke-width:1;" d="M 573.973, 345.871 L 595.244, 317.683 L 598.011, 317.683 L 601.816, 312.495 L 612.192, 317.164 L 608.56, 322.006 L 610.117, 324.081 L 607.869, 327.367 L 605.275, 327.194 L 601.816, 331.863 L 602.853, 333.939 L 598.357, 339.818 L 595.417, 338.435 L 593.169, 341.375 L 596.282, 342.758 L 589.019, 352.443 L 573.973, 345.871 z "/>
<path style="fill:rgb(0, 0, 255);fill-opacity:0;fill-rule:evenodd;stroke:rgb(57, 255, 0);stroke-width:1;" d="M 798.098, 78.6857 L 805.361, 68.4825 L 819.369, 74.3623 L 818.504, 75.5728 L 826.805, 79.0316 L 828.534, 76.6105 L 834.76, 79.2045 L 835.279, 80.9339 L 840.986, 83.182 L 843.234, 83.0091 L 854.475, 87.6783 L 846.174, 98.9192 L 835.106, 94.2499 L 834.241, 92.1747 L 829.053, 90.0994 L 826.459, 90.2724 L 820.233, 87.6783 L 821.963, 85.2572 L 814.527, 82.1444 L 812.624, 84.7384 L 798.098, 78.6857 z "/>
<path style="fill:rgb(255, 255, 0);fill-opacity:0;fill-rule:evenodd;stroke:rgb(57, 255, 0);stroke-width:1;" d="M 342.931, 233.29 L 348.984, 225.162 L 385.3, 241.591 L 386.857, 239.343 L 400, 245.914 L 392.045, 256.636 L 364.029, 244.877 L 364.894, 243.666 L 365.586, 242.802 L 342.931, 233.29 z "/>
<path style="fill:rgb(255, 0, 0);fill-opacity:0;fill-rule:evenodd;stroke:rgb(57, 255, 0);stroke-width:1;" d="M 316.299, 739.3 L 322.698, 730.48 L 347.773, 741.029 L 350.367, 740.51 L 352.27, 741.375 L 353.48, 743.45 L 358.15, 745.352 L 361.089, 745.006 L 371.293, 749.33 L 363.338, 760.571 L 352.962, 756.247 L 351.924, 753.999 L 346.909, 751.924 L 344.142, 752.443 L 342.24, 751.751 L 341.375, 749.849 L 316.299, 739.3 z "/>
<path style="fill:rgb(0, 255, 0);fill-opacity:0;fill-rule:evenodd;stroke:rgb(57, 255, 0);stroke-width:1;" d="M 324.254, 728.059 L 330.653, 719.239 L 355.901, 729.788 L 358.495, 729.269 L 360.571, 730.134 L 361.608, 732.209 L 366.278, 734.112 L 369.045, 733.939 L 379.248, 738.262 L 371.293, 749.33 L 361.089, 745.006 L 359.879, 742.758 L 355.037, 740.683 L 352.27, 741.375 L 350.367, 740.51 L 349.503, 738.608 L 324.254, 728.059 z "/>
<path style="fill:rgb(0, 0, 255);fill-opacity:0;fill-rule:evenodd;stroke:rgb(57, 255, 0);stroke-width:1;" d="M 285.171, 730.307 L 298.141, 712.495 L 297.622, 709.728 L 299.006, 707.825 L 301.773, 707.479 L 306.096, 701.427 L 304.194, 700.562 L 309.382, 693.299 L 324.427, 699.697 L 319.066, 706.788 L 317.164, 706.096 L 312.84, 712.149 L 313.878, 714.224 L 312.149, 716.472 L 309.209, 717.164 L 296.412, 734.803 L 285.171, 730.307 z "/>
<path style="fill:rgb(255, 255, 0);fill-opacity:0;fill-rule:evenodd;stroke:rgb(57, 255, 0);stroke-width:1;" d="M 255.772, 718.029 L 268.742, 700.216 L 268.223, 697.449 L 269.607, 695.547 L 272.374, 695.201 L 276.697, 689.148 L 274.795, 688.284 L 279.983, 681.02 L 295.028, 687.419 L 289.667, 694.682 L 287.765, 693.818 L 283.441, 699.87 L 284.479, 701.773 L 283.096, 703.675 L 279.81, 704.885 L 267.013, 722.525 L 255.772, 718.029 z "/>
<path style="fill:rgb(255, 0, 0);fill-opacity:0;fill-rule:evenodd;stroke:rgb(57, 255, 0);stroke-width:1;" d="M 241.072, 711.803 L 253.869, 693.99 L 253.351, 691.051 L 254.561, 689.494 L 257.501, 688.975 L 261.824, 682.923 L 259.749, 682.058 L 265.11, 674.795 L 279.983, 681.02 L 274.795, 688.284 L 273.065, 687.592 L 268.742, 693.645 L 269.607, 695.547 L 268.223, 697.449 L 264.937, 698.66 L 252.14, 716.472 L 241.072, 711.803 z "/>
<path style="fill:rgb(0, 255, 0);fill-opacity:0;fill-rule:evenodd;stroke:rgb(57, 255, 0);stroke-width:1;" d="M 597.147, 295.374 L 604.064, 285.69 L 608.042, 287.419 L 617.726, 273.93 L 618.418, 274.276 L 620.32, 271.855 L 617.553, 270.644 L 625.681, 259.403 L 637.959, 264.591 L 611.327, 301.427 L 597.147, 295.374 z "/>
<path style="fill:rgb(0, 0, 255);fill-opacity:0;fill-rule:evenodd;stroke:rgb(57, 255, 0);stroke-width:1;" d="M 270.817, 724.254 L 283.614, 706.442 L 283.096, 703.675 L 284.479, 701.773 L 287.246, 701.427 L 291.569, 695.374 L 289.667, 694.682 L 295.028, 687.419 L 309.382, 693.299 L 304.194, 700.562 L 302.81, 700.043 L 298.314, 706.096 L 299.006, 707.825 L 297.622, 709.728 L 294.682, 711.111 L 281.885, 728.923 L 270.817, 724.254 z "/>
<path style="fill:rgb(255, 255, 0);fill-opacity:0;fill-rule:evenodd;stroke:rgb(57, 255, 0);stroke-width:1;" d="M 324.427, 667.185 L 330.826, 658.193 L 333.42, 657.501 L 337.916, 651.448 L 337.397, 649.2 L 340.164, 645.396 L 343.277, 646.779 L 346.044, 642.974 L 342.931, 641.591 L 350.713, 630.696 L 363.684, 636.057 L 358.15, 643.839 L 355.037, 644.185 L 352.443, 647.471 L 351.751, 647.125 L 349.676, 649.892 L 353.653, 651.448 L 350.713, 655.599 L 348.292, 656.291 L 344.142, 661.997 L 344.661, 664.073 L 338.262, 672.892 L 324.427, 667.185 z "/>
<path style="fill:rgb(255, 0, 0);fill-opacity:0;fill-rule:evenodd;stroke:rgb(57, 255, 0);stroke-width:1;" d="M 690.186, 678.945 L 696.585, 670.298 L 699.87, 669.261 L 702.983, 665.11 L 701.6, 663.208 L 703.675, 660.441 L 706.788, 659.922 L 718.893, 643.32 L 729.269, 647.644 L 717.164, 664.246 L 717.683, 666.321 L 715.607, 669.088 L 712.84, 669.261 L 709.728, 673.584 L 710.938, 675.659 L 704.021, 684.825 L 690.186, 678.945 z "/>
<path style="fill:rgb(0, 255, 0);fill-opacity:0;fill-rule:evenodd;stroke:rgb(57, 255, 0);stroke-width:1;" d="M 621.53, 323.044 L 626.546, 316.299 L 632.771, 318.72 L 633.982, 318.893 L 643.666, 323.044 L 646.433, 322.525 L 657.501, 327.021 L 655.945, 329.096 L 659.576, 330.48 L 660.96, 328.578 L 675.141, 334.457 L 667.704, 344.834 L 653.524, 338.954 L 654.734, 337.224 L 651.275, 335.668 L 650.065, 337.397 L 638.997, 332.901 L 637.786, 330.999 L 628.275, 327.021 L 626.891, 325.292 L 621.53, 323.044 z "/>
<path style="fill:rgb(0, 0, 255);fill-opacity:0;fill-rule:evenodd;stroke:rgb(57, 255, 0);stroke-width:1;" d="M 614.094, 333.42 L 619.109, 326.502 L 625.335, 329.096 L 626.546, 329.269 L 636.23, 333.42 L 638.997, 332.901 L 650.065, 337.397 L 648.508, 339.645 L 651.967, 341.029 L 653.524, 338.954 L 667.704, 344.834 L 660.268, 355.037 L 646.087, 349.157 L 647.298, 347.601 L 643.666, 346.044 L 642.629, 347.773 L 631.561, 343.277 L 630.35, 341.375 L 620.839, 337.397 L 619.455, 335.668 L 614.094, 333.42 z "/>
<path style="fill:rgb(255, 255, 0);fill-opacity:0;fill-rule:evenodd;stroke:rgb(57, 255, 0);stroke-width:1;" d="M 606.658, 343.796 L 611.673, 336.879 L 617.726, 339.473 L 619.109, 339.645 L 628.794, 343.796 L 631.561, 343.277 L 642.629, 347.773 L 641.072, 350.022 L 644.531, 351.405 L 646.087, 349.157 L 660.268, 355.037 L 652.832, 365.413 L 640.208, 360.225 L 638.651, 359.533 L 639.689, 357.977 L 636.23, 356.593 L 635.192, 358.15 L 629.313, 355.728 L 624.125, 353.653 L 622.914, 351.751 L 613.403, 347.773 L 612.019, 346.044 L 606.658, 343.796 z "/>
<path style="fill:rgb(255, 0, 0);fill-opacity:0;fill-rule:evenodd;stroke:rgb(57, 255, 0);stroke-width:1;" d="M 628.967, 312.84 L 633.982, 305.923 L 640.035, 308.344 L 641.591, 308.69 L 651.102, 312.668 L 654.042, 312.322 L 664.937, 316.818 L 663.381, 318.893 L 666.84, 320.45 L 668.396, 318.201 L 682.577, 324.081 L 675.141, 334.457 L 660.96, 328.578 L 662.17, 326.675 L 658.712, 325.292 L 657.501, 327.021 L 646.433, 322.525 L 645.223, 320.623 L 635.711, 316.645 L 634.328, 314.916 L 628.967, 312.84 z "/>
<path style="fill:rgb(0, 255, 0);fill-opacity:0;fill-rule:evenodd;stroke:rgb(57, 255, 0);stroke-width:1;" d="M 704.021, 684.825 L 710.938, 675.659 L 713.705, 675.141 L 716.818, 670.99 L 715.607, 669.088 L 717.683, 666.321 L 720.277, 665.629 L 732.555, 649.027 L 742.758, 653.351 L 730.48, 669.952 L 731.345, 672.201 L 729.269, 674.968 L 726.675, 675.141 L 723.562, 679.291 L 724.946, 681.539 L 718.201, 690.878 L 704.021, 684.825 z "/>
<path style="fill:rgb(0, 0, 255);fill-opacity:0;fill-rule:evenodd;stroke:rgb(57, 255, 0);stroke-width:1;" d="M 636.576, 302.464 L 641.591, 295.374 L 647.817, 297.968 L 648.854, 297.795 L 658.885, 302.464 L 661.479, 301.946 L 672.374, 306.442 L 670.99, 308.171 L 674.449, 309.555 L 675.832, 307.825 L 690.013, 313.705 L 682.577, 324.081 L 668.396, 318.201 L 669.952, 316.126 L 666.321, 314.57 L 664.937, 316.818 L 654.042, 312.322 L 652.832, 310.073 L 642.802, 305.577 L 641.591, 304.712 L 636.576, 302.464 z "/>
<path style="fill:rgb(255, 255, 0);fill-opacity:0;fill-rule:evenodd;stroke:rgb(57, 255, 0);stroke-width:1;" d="M 644.877, 291.915 L 649.2, 285.69 L 654.561, 287.938 L 656.636, 287.765 L 666.494, 291.915 L 669.607, 291.396 L 670.471, 291.742 L 674.449, 293.472 L 679.983, 295.72 L 678.599, 297.795 L 682.058, 299.179 L 683.441, 297.103 L 685.171, 297.795 L 697.622, 302.983 L 690.013, 313.705 L 675.832, 307.825 L 677.216, 305.923 L 673.757, 304.367 L 672.374, 306.442 L 661.479, 301.946 L 660.614, 299.351 L 651.102, 295.374 L 649.892, 293.99 L 644.877, 291.915 z "/>
<path style="fill:rgb(255, 0, 0);fill-opacity:0;fill-rule:evenodd;stroke:rgb(57, 255, 0);stroke-width:1;" d="M 403.805, 618.764 L 411.241, 608.387 L 418.677, 611.673 L 423, 613.403 L 423.865, 615.305 L 429.053, 617.553 L 427.843, 619.109 L 434.068, 621.703 L 435.279, 620.147 L 444.617, 623.952 L 447.211, 623.433 L 459.144, 628.448 L 451.708, 638.824 L 439.602, 633.809 L 438.911, 631.907 L 429.399, 628.102 L 430.61, 626.373 L 424.557, 623.779 L 423.346, 625.508 L 418.158, 623.26 L 415.391, 623.779 L 403.805, 618.764 z "/>
<path style="fill:rgb(0, 255, 0);fill-opacity:0;fill-rule:evenodd;stroke:rgb(57, 255, 0);stroke-width:1;" d="M 396.195, 629.14 L 403.805, 618.764 L 415.391, 623.779 L 416.429, 625.681 L 421.617, 627.929 L 420.406, 629.486 L 426.632, 632.08 L 427.67, 630.523 L 437.008, 634.328 L 439.602, 633.809 L 451.708, 638.824 L 444.099, 649.2 L 432.166, 644.185 L 431.301, 642.283 L 421.963, 638.478 L 423.173, 636.749 L 416.948, 634.155 L 415.737, 635.884 L 410.722, 633.636 L 407.955, 634.155 L 396.195, 629.14 z "/>
<path style="fill:rgb(0, 0, 255);fill-opacity:0;fill-rule:evenodd;stroke:rgb(57, 255, 0);stroke-width:1;" d="M 388.759, 639.516 L 396.195, 629.14 L 407.955, 634.155 L 408.993, 636.057 L 414.008, 638.305 L 412.97, 639.862 L 419.196, 642.456 L 420.233, 640.899 L 429.572, 644.704 L 432.166, 644.185 L 444.099, 649.2 L 436.662, 659.576 L 424.73, 654.561 L 423.865, 652.659 L 414.527, 648.854 L 415.737, 647.125 L 409.511, 644.531 L 408.301, 646.26 L 403.113, 644.012 L 400.519, 644.531 L 388.759, 639.516 z "/>
<path style="fill:rgb(255, 255, 0);fill-opacity:0;fill-rule:evenodd;stroke:rgb(57, 255, 0);stroke-width:1;" d="M 287.246, 162.732 L 301.081, 143.709 L 312.84, 127.454 L 323.044, 131.777 L 314.916, 142.845 L 316.818, 143.709 L 297.795, 169.65 L 288.457, 165.672 L 289.84, 163.77 L 287.246, 162.732 z "/>
<path style="fill:rgb(255, 0, 0);fill-opacity:0;fill-rule:evenodd;stroke:rgb(57, 255, 0);stroke-width:1;" d="M 85.0843, 138.867 L 105.318, 111.025 L 118.98, 116.904 L 97.5357, 146.304 L 85.949, 141.461 L 87.1595, 139.732 L 85.0843, 138.867 z "/>
<path style="fill:rgb(0, 255, 0);fill-opacity:0;fill-rule:evenodd;stroke:rgb(57, 255, 0);stroke-width:1;" d="M 57.9334, 127.281 L 72.1141, 107.912 L 78.1669, 99.6109 L 91.8288, 105.491 L 71.7683, 133.16 L 69.1742, 133.333 L 66.5802, 132.987 L 63.9862, 132.469 L 61.738, 131.258 L 60.8733, 130.739 L 59.144, 129.183 L 57.9334, 127.281 z "/>
<path style="fill:rgb(0, 0, 255);fill-opacity:0;fill-rule:evenodd;stroke:rgb(57, 255, 0);stroke-width:1;" d="M 212.365, 281.366 L 218.072, 273.584 L 221.358, 274.968 L 225.681, 268.915 L 224.125, 266.84 L 238.132, 247.298 L 243.666, 239.862 L 244.185, 238.997 L 250.065, 241.418 L 247.817, 244.531 L 252.14, 246.26 L 234.328, 271.163 L 231.042, 270.817 L 227.064, 276.524 L 229.313, 277.389 L 223.26, 285.863 L 212.365, 281.366 z "/>
<path style="fill:rgb(255, 255, 0);fill-opacity:0;fill-rule:evenodd;stroke:rgb(57, 255, 0);stroke-width:1;" d="M 144.401, 262.689 L 150.454, 254.388 L 160.484, 258.539 L 201.124, 275.486 L 197.838, 280.156 L 190.402, 277.043 L 187.808, 280.674 L 144.401, 262.689 z "/>
<path style="fill:rgb(255, 0, 0);fill-opacity:0;fill-rule:evenodd;stroke:rgb(57, 255, 0);stroke-width:1;" d="M 71.7683, 133.16 L 91.8288, 105.491 L 105.318, 111.025 L 85.0843, 138.867 L 80.0692, 139.04 L 74.3623, 136.619 L 71.7683, 133.16 z "/>
<path style="fill:rgb(0, 255, 0);fill-opacity:0;fill-rule:evenodd;stroke:rgb(57, 255, 0);stroke-width:1;" d="M 262.17, 215.132 L 273.411, 199.741 L 292.78, 207.869 L 290.878, 210.29 L 297.795, 213.23 L 288.284, 226.2 L 262.17, 215.132 z "/>
<path style="fill:rgb(0, 0, 255);fill-opacity:0;fill-rule:evenodd;stroke:rgb(57, 255, 0);stroke-width:1;" d="M 303.156, 232.425 L 313.532, 218.072 L 339.473, 230.523 L 329.961, 243.666 L 303.156, 232.425 z "/>
<path style="fill:rgb(255, 255, 0);fill-opacity:0;fill-rule:evenodd;stroke:rgb(57, 255, 0);stroke-width:1;" d="M 611.327, 301.427 L 637.959, 264.591 L 650.065, 269.607 L 642.629, 279.81 L 638.651, 279.637 L 620.32, 305.058 L 611.327, 301.427 z "/>
<path style="fill:rgb(255, 0, 0);fill-opacity:0;fill-rule:evenodd;stroke:rgb(57, 255, 0);stroke-width:1;" d="M 126.762, 300.908 L 134.89, 289.84 L 137.657, 290.878 L 167.056, 303.156 L 158.928, 314.397 L 126.762, 300.908 z "/>
<path style="fill:rgb(0, 255, 0);fill-opacity:0;fill-rule:evenodd;stroke:rgb(57, 255, 0);stroke-width:1;" d="M 82.8361, 81.2797 L 91.8288, 68.8284 L 88.0242, 67.4449 L 106.355, 42.3692 L 117.077, 46.8655 L 108.431, 58.971 L 94.4228, 77.9939 L 89.9265, 84.2196 L 82.8361, 81.2797 z "/>
<path style="fill:rgb(0, 0, 255);fill-opacity:0;fill-rule:evenodd;stroke:rgb(57, 255, 0);stroke-width:1;" d="M 138.867, 270.298 L 144.401, 262.689 L 187.808, 280.674 L 184.695, 284.825 L 191.958, 287.938 L 189.364, 291.396 L 149.416, 274.622 L 138.867, 270.298 z "/>
<path style="fill:rgb(255, 255, 0);fill-opacity:0;fill-rule:evenodd;stroke:rgb(57, 255, 0);stroke-width:1;" d="M 165.672, 241.072 L 171.552, 232.944 L 177.259, 235.365 L 210.29, 249.027 L 207.35, 253.178 L 214.959, 256.291 L 212.019, 260.268 L 204.756, 257.328 L 171.379, 243.493 L 165.672, 241.072 z "/>
<path style="fill:rgb(255, 0, 0);fill-opacity:0;fill-rule:evenodd;stroke:rgb(57, 255, 0);stroke-width:1;" d="M 73.1518, 71.7683 L 78.3398, 64.6779 L 76.6105, 62.6027 L 94.9416, 37.527 L 106.355, 42.3692 L 88.0242, 67.4449 L 84.5655, 67.4449 L 79.3774, 74.5352 L 73.1518, 71.7683 z "/>
<path style="fill:rgb(0, 255, 0);fill-opacity:0;fill-rule:evenodd;stroke:rgb(57, 255, 0);stroke-width:1;" d="M 180.545, 227.237 L 187.981, 216.688 L 220.493, 230.177 L 215.132, 237.613 L 212.365, 236.403 L 210.117, 239.689 L 182.447, 228.102 L 180.545, 227.237 z "/>
<path style="fill:rgb(0, 0, 255);fill-opacity:0;fill-rule:evenodd;stroke:rgb(57, 255, 0);stroke-width:1;" d="M 62.2568, 66.9261 L 67.2719, 60.1816 L 65.7155, 58.2793 L 84.0467, 33.0307 L 94.9416, 37.527 L 76.6105, 62.6027 L 73.3247, 62.9486 L 68.4825, 69.693 L 62.2568, 66.9261 z "/>
<path style="fill:rgb(255, 255, 0);fill-opacity:0;fill-rule:evenodd;stroke:rgb(57, 255, 0);stroke-width:1;" d="M 182.274, 324.081 L 187.808, 316.126 L 201.989, 296.585 L 206.312, 296.585 L 210.29, 291.224 L 214.959, 293.126 L 210.981, 298.66 L 212.365, 301.081 L 194.38, 325.984 L 190.229, 324.254 L 188.5, 326.675 L 182.274, 324.081 z "/>
<path style="fill:rgb(255, 0, 0);fill-opacity:0;fill-rule:evenodd;stroke:rgb(57, 255, 0);stroke-width:1;" d="M 441.85, 90.9641 L 446.001, 85.0843 L 499.784, 107.739 L 495.633, 113.446 L 476.61, 105.491 L 458.971, 98.0545 L 441.85, 90.9641 z "/>
<path style="fill:rgb(0, 255, 0);fill-opacity:0;fill-rule:evenodd;stroke:rgb(57, 255, 0);stroke-width:1;" d="M 16.9477, 110.506 L 31.4743, 90.4453 L 35.1059, 89.5806 L 40.8128, 92.0017 L 41.3316, 94.5958 L 45.3091, 96.1522 L 30.6096, 116.213 L 25.4215, 116.04 L 19.5417, 113.619 L 16.9477, 110.506 z "/>
<path style="fill:rgb(0, 0, 255);fill-opacity:0;fill-rule:evenodd;stroke:rgb(57, 255, 0);stroke-width:1;" d="M 30.6096, 116.213 L 45.3091, 96.1522 L 48.7678, 95.4604 L 54.3018, 97.7086 L 54.6476, 100.303 L 58.7981, 102.032 L 44.2715, 121.92 L 40.6399, 121.92 L 38.0458, 121.401 L 35.6247, 120.536 L 33.5495, 119.326 L 32.6848, 118.634 L 31.9931, 117.942 L 30.6096, 116.213 z "/>
<path style="fill:rgb(255, 255, 0);fill-opacity:0;fill-rule:evenodd;stroke:rgb(57, 255, 0);stroke-width:1;" d="M 143.364, 282.923 L 149.416, 274.622 L 189.364, 291.396 L 186.425, 295.547 L 178.815, 292.434 L 175.875, 296.585 L 143.364, 282.923 z "/>
<path style="fill:rgb(255, 0, 0);fill-opacity:0;fill-rule:evenodd;stroke:rgb(57, 255, 0);stroke-width:1;" d="M 425.767, 76.7834 L 448.941, 44.7903 L 459.317, 49.1137 L 440.467, 75.054 L 435.798, 72.9788 L 431.301, 79.0316 L 425.767, 76.7834 z "/>
<path style="fill:rgb(0, 255, 0);fill-opacity:0;fill-rule:evenodd;stroke:rgb(57, 255, 0);stroke-width:1;" d="M 945.958, 432.339 L 965.672, 405.188 L 976.74, 409.857 L 967.92, 421.963 L 957.026, 437.008 L 945.958, 432.339 z "/>
<path style="fill:rgb(0, 0, 255);fill-opacity:0;fill-rule:evenodd;stroke:rgb(57, 255, 0);stroke-width:1;" d="M 282.231, 291.742 L 300.389, 266.494 L 304.367, 268.05 L 306.269, 265.629 L 312.322, 268.223 L 311.457, 269.261 L 303.848, 279.81 L 288.629, 300.908 L 282.923, 298.66 L 286.554, 293.472 L 282.231, 291.742 z "/>
<path style="fill:rgb(255, 255, 0);fill-opacity:0;fill-rule:evenodd;stroke:rgb(57, 255, 0);stroke-width:1;" d="M 44.2715, 121.92 L 58.7981, 102.032 L 62.2568, 101.167 L 67.7907, 103.588 L 68.3096, 106.182 L 72.1141, 107.912 L 57.9334, 127.281 L 51.7077, 127.108 L 45.4821, 124.514 L 44.2715, 121.92 z "/>
<path style="fill:rgb(255, 0, 0);fill-opacity:0;fill-rule:evenodd;stroke:rgb(57, 255, 0);stroke-width:1;" d="M 28.3614, 258.193 L 51.3619, 227.41 L 57.4146, 230.004 L 52.5724, 236.403 L 56.7229, 238.305 L 54.1288, 241.937 L 38.5646, 262.689 L 28.3614, 258.193 z "/>
<path style="fill:rgb(0, 255, 0);fill-opacity:0;fill-rule:evenodd;stroke:rgb(57, 255, 0);stroke-width:1;" d="M 43.061, 620.666 L 47.5573, 614.267 L 63.2944, 592.304 L 66.2343, 593.515 L 67.4449, 591.786 L 74.3623, 594.725 L 52.7454, 624.643 L 43.061, 620.666 z "/>
<path style="fill:rgb(0, 0, 255);fill-opacity:0;fill-rule:evenodd;stroke:rgb(57, 255, 0);stroke-width:1;" d="M 250.757, 286.9 L 254.734, 281.539 L 253.524, 279.464 L 271.509, 254.388 L 281.539, 258.539 L 263.381, 283.614 L 260.441, 283.614 L 256.463, 289.148 L 250.757, 286.9 z "/>
<path style="fill:rgb(255, 255, 0);fill-opacity:0;fill-rule:evenodd;stroke:rgb(57, 255, 0);stroke-width:1;" d="M 242.629, 346.044 L 260.614, 321.141 L 265.283, 323.217 L 269.088, 318.029 L 274.103, 320.104 L 250.238, 353.307 L 244.185, 350.886 L 246.433, 347.773 L 242.629, 346.044 z "/>
<path style="fill:rgb(255, 0, 0);fill-opacity:0;fill-rule:evenodd;stroke:rgb(57, 255, 0);stroke-width:1;" d="M 420.233, 66.7531 L 439.083, 40.8128 L 448.941, 44.7903 L 425.767, 76.7834 L 424.903, 76.2646 L 424.038, 77.3022 L 421.098, 76.0917 L 421.963, 74.8811 L 421.271, 74.7082 L 425.422, 69.0013 L 420.233, 66.7531 z "/>
<path style="fill:rgb(0, 255, 0);fill-opacity:0;fill-rule:evenodd;stroke:rgb(57, 255, 0);stroke-width:1;" d="M 160.484, 258.539 L 165.845, 251.102 L 199.222, 264.937 L 196.628, 268.396 L 204.064, 271.509 L 201.124, 275.486 L 160.484, 258.539 z "/>
<path style="fill:rgb(0, 0, 255);fill-opacity:0;fill-rule:evenodd;stroke:rgb(57, 255, 0);stroke-width:1;" d="M 213.921, 334.112 L 231.907, 309.209 L 234.674, 309.382 L 238.824, 303.675 L 243.839, 305.75 L 240.035, 311.284 L 241.764, 313.186 L 223.779, 338.262 L 213.921, 334.112 z "/>
<path style="fill:rgb(255, 255, 0);fill-opacity:0;fill-rule:evenodd;stroke:rgb(57, 255, 0);stroke-width:1;" d="M 300.389, 736.187 L 310.246, 722.525 L 309.382, 722.179 L 314.57, 714.916 L 315.607, 715.262 L 320.104, 708.863 L 318.201, 707.998 L 319.066, 706.788 L 324.427, 699.697 L 333.42, 703.329 L 307.652, 739.127 L 300.389, 736.187 z "/>
<path style="fill:rgb(255, 0, 0);fill-opacity:0;fill-rule:evenodd;stroke:rgb(57, 255, 0);stroke-width:1;" d="M 213.748, 52.9183 L 223.433, 39.6022 L 227.41, 41.3316 L 229.14, 38.9105 L 243.32, 44.7903 L 231.734, 60.5275 L 213.748, 52.9183 z "/>
<path style="fill:rgb(0, 255, 0);fill-opacity:0;fill-rule:evenodd;stroke:rgb(57, 255, 0);stroke-width:1;" d="M 232.771, 342.067 L 254.561, 311.976 L 260.441, 314.397 L 256.809, 319.585 L 260.614, 321.141 L 242.629, 346.044 L 232.771, 342.067 z "/>
<path style="fill:rgb(0, 0, 255);fill-opacity:0;fill-rule:evenodd;stroke:rgb(57, 255, 0);stroke-width:1;" d="M 204.064, 329.961 L 225.681, 299.87 L 231.215, 302.291 L 227.583, 307.307 L 231.907, 309.209 L 213.921, 334.112 L 204.064, 329.961 z "/>
<path style="fill:rgb(255, 255, 0);fill-opacity:0;fill-rule:evenodd;stroke:rgb(57, 255, 0);stroke-width:1;" d="M 406.572, 68.8284 L 429.918, 36.8353 L 439.083, 40.8128 L 420.233, 66.7531 L 416.429, 65.1967 L 412.105, 71.0765 L 406.572, 68.8284 z "/>
<path style="fill:rgb(255, 0, 0);fill-opacity:0;fill-rule:evenodd;stroke:rgb(57, 255, 0);stroke-width:1;" d="M 927.626, 417.466 L 943.364, 395.85 L 954.431, 400.519 L 938.694, 422.309 L 934.89, 427.67 L 929.356, 425.422 L 933.333, 419.888 L 927.626, 417.466 z "/>
<path style="fill:rgb(0, 255, 0);fill-opacity:0;fill-rule:evenodd;stroke:rgb(57, 255, 0);stroke-width:1;" d="M 234.328, 271.163 L 252.14, 246.26 L 261.997, 250.411 L 240.208, 280.674 L 235.192, 278.599 L 239.17, 273.065 L 234.328, 271.163 z "/>
<path style="fill:rgb(0, 0, 255);fill-opacity:0;fill-rule:evenodd;stroke:rgb(57, 255, 0);stroke-width:1;" d="M 889.235, 413.489 L 892.002, 409.684 L 911.543, 382.534 L 921.92, 386.857 L 906.182, 408.474 L 900.821, 406.226 L 894.077, 415.564 L 889.235, 413.489 z "/>
<path style="fill:rgb(255, 255, 0);fill-opacity:0;fill-rule:evenodd;stroke:rgb(57, 255, 0);stroke-width:1;" d="M 177.259, 235.365 L 182.447, 228.102 L 210.117, 239.689 L 214.44, 241.418 L 223.087, 245.05 L 220.32, 248.854 L 212.711, 245.741 L 210.29, 249.027 L 177.259, 235.365 z "/>
<path style="fill:rgb(255, 0, 0);fill-opacity:0;fill-rule:evenodd;stroke:rgb(57, 255, 0);stroke-width:1;" d="M 194.38, 325.984 L 212.365, 301.081 L 216.342, 302.81 L 219.974, 297.449 L 225.681, 299.87 L 204.064, 329.961 L 194.38, 325.984 z "/>
<path style="fill:rgb(0, 255, 0);fill-opacity:0;fill-rule:evenodd;stroke:rgb(57, 255, 0);stroke-width:1;" d="M 938.694, 422.309 L 954.431, 400.519 L 965.672, 405.188 L 945.958, 432.339 L 941.288, 430.264 L 945.093, 424.903 L 938.694, 422.309 z "/>
<path style="fill:rgb(0, 0, 255);fill-opacity:0;fill-rule:evenodd;stroke:rgb(57, 255, 0);stroke-width:1;" d="M 24.3839, 188.327 L 46.0009, 158.755 L 48.9408, 160.138 L 50.8431, 159.792 L 51.7077, 159.792 L 53.0912, 160.138 L 53.783, 160.484 L 54.9935, 161.349 L 55.3394, 161.868 L 55.6853, 162.905 L 38.9105, 186.079 L 34.4142, 184.176 L 29.7449, 190.575 L 24.3839, 188.327 z "/>
<path style="fill:rgb(255, 255, 0);fill-opacity:0;fill-rule:evenodd;stroke:rgb(57, 255, 0);stroke-width:1;" d="M 269.088, 292.953 L 291.051, 262.516 L 300.389, 266.494 L 282.231, 291.742 L 278.08, 290.013 L 274.276, 295.201 L 269.088, 292.953 z "/>
<path style="fill:rgb(255, 0, 0);fill-opacity:0;fill-rule:evenodd;stroke:rgb(57, 255, 0);stroke-width:1;" d="M 240.208, 280.674 L 261.997, 250.411 L 271.509, 254.388 L 253.524, 279.464 L 248.854, 277.562 L 245.05, 282.75 L 240.208, 280.674 z "/>
<path style="fill:rgb(0, 255, 0);fill-opacity:0;fill-rule:evenodd;stroke:rgb(57, 255, 0);stroke-width:1;" d="M 799.827, 438.911 L 814.527, 418.677 L 819.369, 411.933 L 828.707, 415.91 L 823.865, 422.655 L 807.782, 444.79 L 802.94, 442.715 L 804.323, 440.813 L 799.827, 438.911 z "/>
<path style="fill:rgb(0, 0, 255);fill-opacity:0;fill-rule:evenodd;stroke:rgb(57, 255, 0);stroke-width:1;" d="M 52.0536, 267.358 L 58.971, 258.02 L 64.8508, 260.614 L 66.9261, 257.847 L 81.1068, 263.727 L 82.8361, 264.591 L 73.3247, 277.562 L 60.5275, 272.201 L 61.2192, 271.336 L 52.0536, 267.358 z "/>
<path style="fill:rgb(255, 255, 0);fill-opacity:0;fill-rule:evenodd;stroke:rgb(57, 255, 0);stroke-width:1;" d="M 66.4073, 219.974 L 68.8284, 216.688 L 76.9563, 220.147 L 79.8962, 216.169 L 82.6632, 217.38 L 83.8738, 217.034 L 87.6783, 218.591 L 88.0242, 219.801 L 90.4453, 220.839 L 93.0393, 219.628 L 109.641, 226.719 L 103.243, 235.365 L 102.205, 235.019 L 66.4073, 219.974 z "/>
<path style="fill:rgb(255, 0, 0);fill-opacity:0;fill-rule:evenodd;stroke:rgb(57, 255, 0);stroke-width:1;" d="M 906.182, 408.474 L 921.92, 386.857 L 932.642, 391.353 L 916.904, 412.97 L 912.927, 418.504 L 907.393, 416.083 L 911.371, 410.722 L 906.182, 408.474 z "/>
<path style="fill:rgb(0, 255, 0);fill-opacity:0;fill-rule:evenodd;stroke:rgb(57, 255, 0);stroke-width:1;" d="M 263.381, 283.614 L 281.539, 258.539 L 291.051, 262.516 L 269.088, 292.953 L 264.764, 291.224 L 268.569, 285.863 L 263.381, 283.614 z "/>
<path style="fill:rgb(0, 0, 255);fill-opacity:0;fill-rule:evenodd;stroke:rgb(57, 255, 0);stroke-width:1;" d="M 19.1958, 254.388 L 20.0605, 253.178 L 35.7977, 232.08 L 37.527, 230.004 L 40.9857, 231.561 L 46.0009, 224.989 L 51.3619, 227.41 L 28.3614, 258.193 L 19.1958, 254.388 z "/>
<path style="fill:rgb(255, 255, 0);fill-opacity:0;fill-rule:evenodd;stroke:rgb(57, 255, 0);stroke-width:1;" d="M 885.257, 399.827 L 900.994, 378.037 L 911.543, 382.534 L 892.002, 409.684 L 886.468, 407.436 L 890.445, 401.902 L 885.257, 399.827 z "/>
<path style="fill:rgb(255, 0, 0);fill-opacity:0;fill-rule:evenodd;stroke:rgb(57, 255, 0);stroke-width:1;" d="M 137.657, 290.878 L 143.364, 282.923 L 175.875, 296.585 L 170.169, 304.54 L 167.056, 303.156 L 137.657, 290.878 z "/>
<path style="fill:rgb(0, 255, 0);fill-opacity:0;fill-rule:evenodd;stroke:rgb(57, 255, 0);stroke-width:1;" d="M 66.2343, 238.997 L 71.9412, 231.215 L 97.1898, 241.937 L 96.671, 244.358 L 96.1522, 245.396 L 94.7687, 247.644 L 93.0393, 249.719 L 92.0017, 250.584 L 89.5806, 252.313 L 69.866, 243.839 L 71.7683, 241.245 L 66.2343, 238.997 z "/>
<path style="fill:rgb(0, 0, 255);fill-opacity:0;fill-rule:evenodd;stroke:rgb(57, 255, 0);stroke-width:1;" d="M 38.2188, 193.861 L 42.7151, 187.808 L 38.9105, 186.079 L 55.6853, 162.905 L 59.4898, 164.462 L 61.9109, 163.424 L 66.2343, 165.326 L 58.7981, 175.53 L 49.9784, 187.462 L 48.5949, 189.364 L 43.5798, 196.109 L 38.2188, 193.861 z "/>
<path style="fill:rgb(255, 255, 0);fill-opacity:0;fill-rule:evenodd;stroke:rgb(57, 255, 0);stroke-width:1;" d="M 864.851, 391.18 L 880.588, 369.563 L 890.964, 373.887 L 871.077, 401.211 L 865.888, 399.135 L 870.039, 393.428 L 864.851, 391.18 z "/>
<path style="fill:rgb(255, 0, 0);fill-opacity:0;fill-rule:evenodd;stroke:rgb(57, 255, 0);stroke-width:1;" d="M 850.151, 392.564 L 870.039, 365.067 L 880.588, 369.563 L 864.851, 391.18 L 858.971, 388.759 L 854.821, 394.466 L 850.151, 392.564 z "/>
<path style="fill:rgb(0, 255, 0);fill-opacity:0;fill-rule:evenodd;stroke:rgb(57, 255, 0);stroke-width:1;" d="M 60.3545, 222.568 L 63.2944, 218.591 L 66.4073, 219.974 L 102.205, 235.019 L 102.551, 236.23 L 102.378, 237.613 L 101.859, 238.824 L 100.821, 240.035 L 99.438, 241.072 L 97.1898, 241.937 L 71.9412, 231.215 L 66.0614, 228.794 L 68.1366, 225.854 L 60.3545, 222.568 z "/>
<path style="fill:rgb(0, 0, 255);fill-opacity:0;fill-rule:evenodd;stroke:rgb(57, 255, 0);stroke-width:1;" d="M 843.926, 382.361 L 859.663, 360.744 L 870.039, 365.067 L 850.151, 392.564 L 845.136, 390.316 L 849.287, 384.609 L 843.926, 382.361 z "/>
<path style="fill:rgb(255, 255, 0);fill-opacity:0;fill-rule:evenodd;stroke:rgb(57, 255, 0);stroke-width:1;" d="M 916.904, 412.97 L 932.642, 391.353 L 943.364, 395.85 L 927.626, 417.466 L 924.687, 421.617 L 919.326, 419.369 L 922.265, 415.218 L 916.904, 412.97 z "/>
<path style="fill:rgb(255, 0, 0);fill-opacity:0;fill-rule:evenodd;stroke:rgb(57, 255, 0);stroke-width:1;" d="M 158.928, 314.397 L 167.056, 303.156 L 170.169, 304.54 L 188.154, 311.976 L 185.733, 315.262 L 187.808, 316.126 L 182.274, 324.081 L 158.928, 314.397 z "/>
<path style="fill:rgb(0, 255, 0);fill-opacity:0;fill-rule:evenodd;stroke:rgb(57, 255, 0);stroke-width:1;" d="M 165.845, 251.102 L 171.379, 243.493 L 204.756, 257.328 L 199.222, 264.937 L 165.845, 251.102 z "/>
<path style="fill:rgb(0, 0, 255);fill-opacity:0;fill-rule:evenodd;stroke:rgb(57, 255, 0);stroke-width:1;" d="M 223.779, 338.262 L 241.764, 313.186 L 246.26, 315.089 L 249.892, 309.901 L 254.561, 311.976 L 232.771, 342.067 L 223.779, 338.262 z "/>
<path style="fill:rgb(255, 255, 0);fill-opacity:0;fill-rule:evenodd;stroke:rgb(57, 255, 0);stroke-width:1;" d="M 824.211, 374.233 L 839.948, 352.443 L 849.978, 356.766 L 830.091, 384.09 L 824.73, 381.842 L 828.88, 376.135 L 824.211, 374.233 z "/>
<path style="fill:rgb(255, 0, 0);fill-opacity:0;fill-rule:evenodd;stroke:rgb(57, 255, 0);stroke-width:1;" d="M 19.1958, 186.079 L 23.6922, 180.199 L 19.7147, 178.47 L 36.8353, 155.123 L 40.6399, 156.68 L 42.1963, 155.815 L 45.4821, 157.198 L 45.8279, 158.755 L 46.0009, 158.755 L 24.3839, 188.327 L 19.1958, 186.079 z "/>
<path style="fill:rgb(0, 255, 0);fill-opacity:0;fill-rule:evenodd;stroke:rgb(57, 255, 0);stroke-width:1;" d="M 38.5646, 262.689 L 54.1288, 241.937 L 61.738, 245.223 L 62.2568, 247.471 L 58.971, 251.967 L 62.4297, 253.524 L 58.971, 258.02 L 52.0536, 267.358 L 51.3619, 268.223 L 38.5646, 262.689 z "/>
<path style="fill:rgb(0, 0, 255);fill-opacity:0;fill-rule:evenodd;stroke:rgb(57, 255, 0);stroke-width:1;" d="M 871.077, 401.211 L 890.964, 373.887 L 900.994, 378.037 L 885.257, 399.827 L 880.069, 397.579 L 875.919, 403.286 L 871.077, 401.211 z "/>
<path style="fill:rgb(255, 255, 0);fill-opacity:0;fill-rule:evenodd;stroke:rgb(57, 255, 0);stroke-width:1;" d="M 486.295, 544.574 L 492.866, 535.581 L 519.844, 546.995 L 513.273, 555.988 L 486.295, 544.574 z "/>
<path style="fill:rgb(255, 0, 0);fill-opacity:0;fill-rule:evenodd;stroke:rgb(57, 255, 0);stroke-width:1;" d="M 108.776, 506.528 L 112.754, 501.167 L 109.814, 499.957 L 114.31, 493.731 L 126.935, 476.438 L 135.581, 480.069 L 114.483, 509.122 L 108.776, 506.528 z "/>
<path style="fill:rgb(0, 255, 0);fill-opacity:0;fill-rule:evenodd;stroke:rgb(57, 255, 0);stroke-width:1;" d="M 830.091, 384.09 L 849.978, 356.766 L 859.663, 360.744 L 843.926, 382.361 L 838.738, 380.285 L 834.587, 385.992 L 830.091, 384.09 z "/>
<path style="fill:rgb(0, 0, 255);fill-opacity:0;fill-rule:evenodd;stroke:rgb(57, 255, 0);stroke-width:1;" d="M 214.44, 241.418 L 216.688, 238.132 L 215.132, 237.613 L 220.493, 230.177 L 243.666, 239.862 L 238.132, 247.298 L 236.23, 246.433 L 233.982, 249.546 L 223.087, 245.05 L 214.44, 241.418 z "/>
<path style="fill:rgb(255, 255, 0);fill-opacity:0;fill-rule:evenodd;stroke:rgb(57, 255, 0);stroke-width:1;" d="M 839.948, 455.685 L 854.648, 435.452 L 865.024, 439.775 L 862.776, 442.888 L 848.768, 462.084 L 843.58, 460.009 L 845.136, 457.933 L 839.948, 455.685 z "/>
<path style="fill:rgb(255, 0, 0);fill-opacity:0;fill-rule:evenodd;stroke:rgb(57, 255, 0);stroke-width:1;" d="M 807.782, 444.79 L 823.865, 422.655 L 834.414, 426.978 L 819.715, 447.211 L 814.354, 444.963 L 810.722, 446.001 L 807.782, 444.79 z "/>
<path style="fill:rgb(0, 255, 0);fill-opacity:0;fill-rule:evenodd;stroke:rgb(57, 255, 0);stroke-width:1;" d="M 804.669, 365.932 L 820.406, 344.315 L 830.437, 348.465 L 814.7, 370.255 L 804.669, 365.932 z "/>
<path style="fill:rgb(0, 0, 255);fill-opacity:0;fill-rule:evenodd;stroke:rgb(57, 255, 0);stroke-width:1;" d="M 64.1591, 256.636 L 66.7531, 252.832 L 64.1591, 251.621 L 69.866, 243.839 L 89.5806, 252.313 L 81.1068, 263.727 L 66.9261, 257.847 L 64.1591, 256.636 z "/>
<path style="fill:rgb(255, 255, 0);fill-opacity:0;fill-rule:evenodd;stroke:rgb(57, 255, 0);stroke-width:1;" d="M 27.6697, 605.966 L 43.4068, 584.176 L 53.4371, 588.327 L 37.7, 610.117 L 27.6697, 605.966 z "/>
<path style="fill:rgb(255, 0, 0);fill-opacity:0;fill-rule:evenodd;stroke:rgb(57, 255, 0);stroke-width:1;" d="M 288.284, 226.2 L 297.795, 213.23 L 299.351, 210.981 L 313.532, 218.072 L 303.156, 232.425 L 288.284, 226.2 z "/>
<path style="fill:rgb(0, 255, 0);fill-opacity:0;fill-rule:evenodd;stroke:rgb(57, 255, 0);stroke-width:1;" d="M 37.7, 610.117 L 53.4371, 588.327 L 63.2944, 592.304 L 47.5573, 614.267 L 37.7, 610.117 z "/>
<path style="fill:rgb(0, 0, 255);fill-opacity:0;fill-rule:evenodd;stroke:rgb(57, 255, 0);stroke-width:1;" d="M 17.9853, 601.989 L 33.7224, 580.026 L 43.4068, 584.176 L 27.6697, 605.966 L 17.9853, 601.989 z "/>
<path style="fill:rgb(255, 255, 0);fill-opacity:0;fill-rule:evenodd;stroke:rgb(57, 255, 0);stroke-width:1;" d="M 545.266, 755.728 L 563.424, 730.826 L 568.439, 732.901 L 565.326, 737.397 L 569.304, 738.954 L 554.259, 759.533 L 545.266, 755.728 z "/>
<path style="fill:rgb(255, 0, 0);fill-opacity:0;fill-rule:evenodd;stroke:rgb(57, 255, 0);stroke-width:1;" d="M 829.745, 451.535 L 844.444, 431.301 L 854.648, 435.452 L 839.948, 455.685 L 829.745, 451.535 z "/>
<path style="fill:rgb(0, 255, 0);fill-opacity:0;fill-rule:evenodd;stroke:rgb(57, 255, 0);stroke-width:1;" d="M 814.7, 370.255 L 830.437, 348.465 L 839.948, 352.443 L 824.211, 374.233 L 814.7, 370.255 z "/>
<path style="fill:rgb(0, 0, 255);fill-opacity:0;fill-rule:evenodd;stroke:rgb(57, 255, 0);stroke-width:1;" d="M 819.715, 447.211 L 834.414, 426.978 L 844.444, 431.301 L 829.745, 451.535 L 819.715, 447.211 z "/>
<path style="fill:rgb(255, 255, 0);fill-opacity:0;fill-rule:evenodd;stroke:rgb(57, 255, 0);stroke-width:1;" d="M 790.661, 435.106 L 805.361, 414.872 L 807.955, 411.241 L 812.451, 413.143 L 809.857, 416.775 L 814.527, 418.677 L 799.827, 438.911 L 790.661, 435.106 z "/>
<path style="fill:rgb(255, 0, 0);fill-opacity:0;fill-rule:evenodd;stroke:rgb(57, 255, 0);stroke-width:1;" d="M 771.812, 427.151 L 776.135, 421.098 L 785.992, 407.609 L 786.511, 406.917 L 796.022, 410.895 L 781.323, 431.128 L 771.812, 427.151 z "/>
<path style="fill:rgb(0, 255, 0);fill-opacity:0;fill-rule:evenodd;stroke:rgb(57, 255, 0);stroke-width:1;" d="M 781.323, 431.128 L 796.022, 410.895 L 805.361, 414.872 L 790.661, 435.106 L 781.323, 431.128 z "/>
<path style="fill:rgb(0, 0, 255);fill-opacity:0;fill-rule:evenodd;stroke:rgb(57, 255, 0);stroke-width:1;" d="M 0.172936, 476.092 L 30.6096, 433.895 L 79.7233, 454.475 L 68.1366, 470.558 L 50.3243, 463.121 L 44.4444, 471.422 L 57.0687, 476.61 L 47.0385, 490.445 L 25.9403, 481.626 L 23.0004, 485.603 L 17.4665, 483.355 L 0.172936, 476.092 z "/>
<path style="fill:rgb(255, 255, 0);fill-opacity:0;fill-rule:evenodd;stroke:rgb(57, 255, 0);stroke-width:1;" d="M 0, 671.855 L 27.4968, 633.463 L 46.1738, 641.245 L 18.677, 679.637 L 0, 671.855 z "/>
<path style="fill:rgb(255, 0, 0);fill-opacity:0;fill-rule:evenodd;stroke:rgb(57, 255, 0);stroke-width:1;" d="M 1.38348, 298.141 L 11.5867, 284.306 L 55.1665, 302.637 L 41.6775, 321.141 L 39.6022, 320.104 L 18.5041, 311.284 L 21.7899, 306.788 L 1.38348, 298.141 z "/>
<path style="fill:rgb(0, 255, 0);fill-opacity:0;fill-rule:evenodd;stroke:rgb(57, 255, 0);stroke-width:1;" d="M 3.11284, 104.799 L 17.6394, 84.9114 L 21.6169, 83.8738 L 27.1509, 86.1219 L 27.4968, 88.716 L 31.4743, 90.4453 L 16.9477, 110.506 L 14.1807, 110.506 L 11.9326, 110.16 L 10.2032, 109.641 L 7.7821, 108.604 L 6.57155, 107.912 L 4.66926, 106.528 L 3.11284, 104.799 z "/>
<path style="fill:rgb(0, 0, 255);fill-opacity:0;fill-rule:evenodd;stroke:rgb(57, 255, 0);stroke-width:1;" d="M 6.39862, 180.718 L 27.8426, 151.319 L 30.6096, 152.529 L 31.9931, 152.183 L 32.6848, 152.01 L 34.0683, 152.183 L 34.7601, 152.356 L 35.4518, 152.702 L 36.3165, 153.567 L 36.6623, 154.086 L 36.8353, 155.123 L 19.7147, 178.47 L 15.3913, 184.522 L 6.39862, 180.718 z "/>
<path style="fill:rgb(255, 255, 0);fill-opacity:0;fill-rule:evenodd;stroke:rgb(57, 255, 0);stroke-width:1;" d="M 4.32339, 603.026 L 23.6922, 575.875 L 33.7224, 580.026 L 17.9853, 601.989 L 14.1807, 607.177 L 4.32339, 603.026 z "/>
<path style="fill:rgb(255, 0, 0);fill-opacity:0;fill-rule:evenodd;stroke:rgb(57, 255, 0);stroke-width:1;" d="M 8.99265, 248.508 L 24.7298, 227.41 L 35.7977, 232.08 L 20.0605, 253.178 L 8.99265, 248.508 z "/>
<path style="fill:rgb(0, 255, 0);fill-opacity:0;fill-rule:evenodd;stroke:rgb(57, 255, 0);stroke-width:1;" d="M 316.472, 42.5422 L 347.428, 0 L 425.594, 32.8578 L 410.376, 53.61 L 404.323, 51.1889 L 388.586, 72.8059 L 365.413, 63.1215 L 378.383, 45.4821 L 375.616, 44.2715 L 382.534, 34.933 L 382.188, 33.3766 L 367.488, 27.1509 L 347.082, 55.3394 L 316.472, 42.5422 z "/>
<path style="fill:rgb(0, 0, 255);fill-opacity:0;fill-rule:evenodd;stroke:rgb(57, 255, 0);stroke-width:1;" d="M 664.073, 31.6472 L 685.69, 1.55642 L 765.413, 34.7601 L 754.864, 53.2642 L 751.578, 58.971 L 721.66, 45.655 L 715.607, 54.1288 L 694.682, 45.3091 L 705.231, 30.4367 L 705.058, 28.5344 L 698.833, 25.9403 L 699.697, 24.7298 L 695.893, 23.0004 L 684.998, 38.2188 L 686.9, 38.9105 L 685.69, 40.6399 L 664.073, 31.6472 z "/>
<path style="fill:rgb(255, 255, 0);fill-opacity:0;fill-rule:evenodd;stroke:rgb(57, 255, 0);stroke-width:1;" d="M 831.647, 30.9555 L 844.444, 13.1431 L 858.279, 18.85 L 854.648, 23.8651 L 875.4, 32.5119 L 879.032, 27.4968 L 884.738, 29.9179 L 894.423, 33.8954 L 881.626, 51.7077 L 831.647, 30.9555 z "/>
<path style="fill:rgb(255, 0, 0);fill-opacity:0;fill-rule:evenodd;stroke:rgb(57, 255, 0);stroke-width:1;" d="M 491.137, 28.3614 L 498.919, 17.6394 L 509.122, 21.9628 L 509.987, 23.8651 L 537.138, 35.2789 L 539.559, 34.7601 L 550.454, 39.2564 L 543.537, 48.7678 L 541.634, 49.6325 L 491.137, 28.3614 z "/>
<path style="fill:rgb(0, 255, 0);fill-opacity:0;fill-rule:evenodd;stroke:rgb(57, 255, 0);stroke-width:1;" d="M 38.0458, 56.377 L 53.9559, 34.4142 L 61.9109, 23.6922 L 73.1518, 28.3614 L 54.8206, 53.61 L 50.3243, 51.7077 L 44.7903, 59.144 L 38.0458, 56.377 z "/>
<path style="fill:rgb(0, 0, 255);fill-opacity:0;fill-rule:evenodd;stroke:rgb(57, 255, 0);stroke-width:1;" d="M 51.3619, 62.6027 L 56.377, 55.6853 L 54.8206, 53.61 L 73.1518, 28.3614 L 84.0467, 33.0307 L 65.7155, 58.2793 L 62.9486, 57.9334 L 57.5875, 65.1967 L 51.3619, 62.6027 z "/>
<path style="fill:rgb(255, 255, 0);fill-opacity:0;fill-rule:evenodd;stroke:rgb(57, 255, 0);stroke-width:1;" d="M 203.026, 48.422 L 213.748, 33.8954 L 210.29, 32.5119 L 219.801, 19.3688 L 228.967, 23.3463 L 229.313, 24.5569 L 227.064, 27.8426 L 228.275, 28.1885 L 229.486, 31.1284 L 223.433, 39.6022 L 213.748, 52.9183 L 203.026, 48.422 z "/>
<path style="fill:rgb(255, 0, 0);fill-opacity:0;fill-rule:evenodd;stroke:rgb(57, 255, 0);stroke-width:1;" d="M 229.14, 38.9105 L 234.328, 31.6472 L 233.636, 31.4743 L 233.117, 29.0532 L 234.155, 27.4968 L 232.771, 26.805 L 232.08, 26.1133 L 235.884, 21.0981 L 239.689, 22.6546 L 254.734, 28.8802 L 243.32, 44.7903 L 229.14, 38.9105 z "/>
</svg>