<?xml version="1.0" encoding="iso-8859-1" standalone="no"?>
<!DOCTYPE svg PUBLIC "-//W3C//DTD SVG 1.0//EN" "http://www.w3.org/TR/2001/REC-SVG-20010904/DTD/svg10.dtd">
<svg xmlns="http://www.w3.org/2000/svg" width="509" height="800">
<path style="fill:rgb(255, 0, 0);fill-opacity:0;fill-rule:evenodd;stroke:rgb(45, 0, 255);stroke-width:1;" d="M 198.022, 369.602 L 231.797, 323.667 L 340.458, 369.795 L 353.969, 375.585 L 320.386, 421.327 L 198.022, 369.602 z "/>
<path style="fill:rgb(0, 255, 0);fill-opacity:0;fill-rule:evenodd;stroke:rgb(45, 0, 255);stroke-width:1;" d="M 366.321, 53.462 L 387.551, 24.5115 L 398.938, 29.3366 L 402.992, 23.7394 L 450.856, 43.8118 L 459.735, 31.8456 L 497.756, 47.8649 L 431.942, 137.805 L 394.113, 121.978 L 425.573, 78.9385 L 417.66, 75.4644 L 414.186, 80.2895 L 366.321, 53.462 z "/>
<path style="fill:rgb(0, 0, 255);fill-opacity:0;fill-rule:evenodd;stroke:rgb(45, 0, 255);stroke-width:1;" d="M 320.386, 421.327 L 353.969, 375.585 L 373.269, 383.691 L 462.63, 421.52 L 429.24, 467.069 L 429.047, 467.455 L 320.386, 421.327 z "/>
<path style="fill:rgb(255, 255, 0);fill-opacity:0;fill-rule:evenodd;stroke:rgb(45, 0, 255);stroke-width:1;" d="M 251.291, 488.299 L 284.68, 442.943 L 400.483, 491.966 L 334.861, 523.619 L 251.291, 488.299 z "/>
<path style="fill:rgb(255, 0, 0);fill-opacity:0;fill-rule:evenodd;stroke:rgb(45, 0, 255);stroke-width:1;" d="M 76.6224, 38.6007 L 80.0965, 33.5826 L 79.1315, 33.1966 L 87.6236, 21.6164 L 88.5887, 22.0024 L 91.6767, 17.5633 L 126.224, 31.8456 L 124.68, 34.1616 L 130.277, 36.4777 L 131.821, 34.5476 L 135.875, 36.0917 L 139.542, 31.0736 L 138.384, 30.6876 L 160.386, 0 L 166.562, 2.50905 L 166.755, 2.12304 L 180.458, 7.72014 L 180.265, 8.10615 L 186.055, 10.6152 L 163.86, 41.4958 L 162.702, 41.1098 L 159.228, 45.9349 L 162.895, 47.4789 L 161.351, 49.6019 L 167.334, 52.111 L 168.685, 50.3739 L 196.864, 61.9542 L 193.004, 67.1653 L 193.776, 67.5513 L 187.021, 76.6224 L 186.441, 76.4294 L 182.774, 81.4475 L 163.667, 73.5344 L 164.246, 72.7624 L 148.806, 66.3932 L 147.455, 68.3233 L 144.174, 66.9723 L 140.507, 72.1834 L 141.086, 72.3764 L 123.329, 97.0808 L 119.276, 102.678 L 113.486, 100.169 L 113.1, 100.555 L 99.3969, 94.7648 L 99.5899, 94.3788 L 94.1858, 92.0627 L 116.188, 61.3752 L 116.96, 61.7612 L 120.434, 56.9361 L 116.767, 55.392 L 118.311, 53.269 L 112.521, 50.953 L 111.17, 52.883 L 76.6224, 38.6007 z "/>
<path style="fill:rgb(0, 255, 0);fill-opacity:0;fill-rule:evenodd;stroke:rgb(45, 0, 255);stroke-width:1;" d="M 232.762, 698.866 L 241.641, 686.9 L 256.116, 692.883 L 284.294, 654.475 L 262.678, 645.404 L 256.502, 653.703 L 240.869, 647.141 L 255.923, 626.683 L 293.172, 642.316 L 305.911, 624.946 L 290.663, 618.577 L 299.735, 606.417 L 371.918, 636.912 L 362.847, 649.264 L 375.585, 654.668 L 366.9, 666.441 L 332.159, 651.773 L 341.037, 639.614 L 325.597, 633.052 L 319.614, 634.403 L 293.366, 670.109 L 311.315, 677.829 L 302.63, 689.795 L 288.54, 683.812 L 282.364, 684.97 L 271.556, 699.638 L 283.329, 704.463 L 274.451, 716.622 L 232.762, 698.866 z "/>
<path style="fill:rgb(0, 0, 255);fill-opacity:0;fill-rule:evenodd;stroke:rgb(45, 0, 255);stroke-width:1;" d="M 34.7407, 118.311 L 57.9011, 86.6586 L 87.4306, 99.2039 L 81.8335, 106.538 L 109.24, 118.311 L 114.837, 110.591 L 170.229, 134.138 L 146.876, 165.983 L 34.7407, 118.311 z "/>
<path style="fill:rgb(255, 255, 0);fill-opacity:0;fill-rule:evenodd;stroke:rgb(45, 0, 255);stroke-width:1;" d="M 103.643, 484.439 L 110.591, 474.982 L 125.645, 455.103 L 135.103, 459.156 L 133.366, 461.665 L 140.121, 464.56 L 178.142, 480.579 L 179.879, 478.263 L 205.742, 489.264 L 204.198, 491.194 L 228.13, 501.23 L 229.674, 498.914 L 239.517, 503.16 L 217.901, 532.69 L 103.643, 484.439 z "/>
<path style="fill:rgb(255, 0, 0);fill-opacity:0;fill-rule:evenodd;stroke:rgb(45, 0, 255);stroke-width:1;" d="M 351.267, 753.293 L 360.338, 741.134 L 374.234, 746.924 L 374.813, 746.152 L 379.059, 745.187 L 379.831, 745.38 L 390.639, 730.712 L 389.867, 730.712 L 388.516, 726.852 L 389.288, 726.466 L 374.813, 720.483 L 383.884, 707.937 L 402.22, 715.657 L 428.082, 680.338 L 427.31, 680.145 L 425.38, 676.671 L 425.766, 675.899 L 410.712, 669.53 L 402.027, 681.496 L 366.9, 666.441 L 375.585, 654.668 L 388.516, 660.072 L 397.587, 647.72 L 470.35, 678.601 L 461.665, 690.374 L 446.224, 683.812 L 433.293, 701.375 L 424.415, 713.534 L 384.849, 767.382 L 351.267, 753.293 z "/>
<path style="fill:rgb(0, 255, 0);fill-opacity:0;fill-rule:evenodd;stroke:rgb(45, 0, 255);stroke-width:1;" d="M 110.398, 324.825 L 131.242, 296.454 L 144.946, 302.244 L 159.035, 308.227 L 162.702, 309.771 L 192.232, 322.316 L 189.53, 325.983 L 171.58, 350.688 L 110.398, 324.825 z "/>
<path style="fill:rgb(0, 0, 255);fill-opacity:0;fill-rule:evenodd;stroke:rgb(45, 0, 255);stroke-width:1;" d="M 113.1, 594.644 L 150.736, 543.305 L 190.881, 560.097 L 223.498, 573.993 L 219.059, 580.169 L 206.707, 584.608 L 175.826, 571.484 L 172.352, 576.502 L 162.702, 572.449 L 166.369, 567.431 L 157.877, 563.957 L 132.207, 598.89 L 140.507, 602.364 L 141.472, 604.294 L 139.542, 606.61 L 137.033, 607.382 L 115.03, 598.118 L 113.1, 594.644 z "/>
<path style="fill:rgb(255, 255, 0);fill-opacity:0;fill-rule:evenodd;stroke:rgb(45, 0, 255);stroke-width:1;" d="M 429.24, 467.069 L 462.63, 421.52 L 508.758, 441.013 L 509.337, 441.978 L 444.487, 473.438 L 429.24, 467.069 z "/>
<path style="fill:rgb(255, 0, 0);fill-opacity:0;fill-rule:evenodd;stroke:rgb(45, 0, 255);stroke-width:1;" d="M 57.9011, 625.525 L 64.6562, 616.261 L 71.6043, 619.156 L 75.0784, 614.331 L 74.4994, 612.786 L 68.9023, 610.277 L 75.2714, 601.785 L 77.3945, 602.75 L 83.5706, 594.451 L 92.2557, 598.118 L 123.522, 611.242 L 125.645, 608.54 L 144.367, 616.454 L 94.5718, 640.965 L 57.9011, 625.525 z M 86.4656, 621.665 L 101.134, 627.648 L 103.643, 626.297 L 110.784, 616.261 L 98.2388, 611.049 L 93.7998, 611.435 L 91.0977, 615.103 L 86.4656, 621.665 z "/>
<path style="fill:rgb(0, 255, 0);fill-opacity:0;fill-rule:evenodd;stroke:rgb(45, 0, 255);stroke-width:1;" d="M 43.6188, 207.672 L 57.5151, 188.565 L 71.7973, 194.548 L 72.1834, 193.969 L 114.065, 211.725 L 96.3088, 235.85 L 65.8142, 222.726 L 70.0603, 217.129 L 60.0241, 212.69 L 57.7081, 215.971 L 45.1628, 210.567 L 43.6188, 207.672 z "/>
<path style="fill:rgb(0, 0, 255);fill-opacity:0;fill-rule:evenodd;stroke:rgb(45, 0, 255);stroke-width:1;" d="M 242.606, 500.265 L 251.291, 488.299 L 334.861, 523.619 L 316.912, 531.725 L 242.606, 500.265 z "/>
<path style="fill:rgb(255, 255, 0);fill-opacity:0;fill-rule:evenodd;stroke:rgb(45, 0, 255);stroke-width:1;" d="M 174.089, 674.162 L 183.16, 661.616 L 191.074, 665.09 L 199.566, 653.51 L 215.199, 660.072 L 206.514, 671.846 L 241.641, 686.9 L 232.762, 698.866 L 174.089, 674.162 z "/>
<path style="fill:rgb(255, 0, 0);fill-opacity:0;fill-rule:evenodd;stroke:rgb(45, 0, 255);stroke-width:1;" d="M 35.5127, 536.936 L 57.3221, 507.214 L 87.2376, 519.952 L 65.4282, 549.481 L 35.5127, 536.936 z "/>
<path style="fill:rgb(0, 255, 0);fill-opacity:0;fill-rule:evenodd;stroke:rgb(45, 0, 255);stroke-width:1;" d="M 168.685, 354.548 L 171.58, 350.688 L 189.53, 325.983 L 219.445, 338.721 L 198.601, 367.093 L 168.685, 354.548 z "/>
<path style="fill:rgb(0, 0, 255);fill-opacity:0;fill-rule:evenodd;stroke:rgb(45, 0, 255);stroke-width:1;" d="M 72.9554, 377.129 L 86.2726, 358.987 L 140.7, 381.954 L 127.382, 400.097 L 112.714, 393.92 L 115.416, 390.253 L 115.995, 390.06 L 116.381, 387.358 L 92.4487, 377.322 L 89.9397, 378.866 L 87.0446, 383.112 L 72.9554, 377.129 z "/>
<path style="fill:rgb(255, 255, 0);fill-opacity:0;fill-rule:evenodd;stroke:rgb(45, 0, 255);stroke-width:1;" d="M 31.6526, 432.907 L 45.7419, 413.993 L 68.9023, 423.836 L 66.2002, 427.31 L 96.1158, 439.855 L 87.0446, 452.207 L 62.5332, 441.785 L 60.0241, 445.066 L 51.339, 441.399 L 31.6526, 432.907 z "/>
<path style="fill:rgb(255, 0, 0);fill-opacity:0;fill-rule:evenodd;stroke:rgb(45, 0, 255);stroke-width:1;" d="M 45.7419, 413.993 L 59.0591, 395.85 L 71.7973, 401.255 L 69.4813, 404.15 L 71.4113, 405.501 L 72.3764, 405.694 L 109.626, 421.327 L 100.748, 433.679 L 70.8323, 420.941 L 68.9023, 423.836 L 45.7419, 413.993 z "/>
<path style="fill:rgb(0, 255, 0);fill-opacity:0;fill-rule:evenodd;stroke:rgb(45, 0, 255);stroke-width:1;" d="M 27.4065, 221.954 L 36.0917, 210.181 L 65.8142, 222.726 L 96.3088, 235.85 L 87.8166, 247.431 L 75.8504, 242.413 L 66.2002, 238.359 L 59.8311, 235.657 L 27.4065, 221.954 z "/>
<path style="fill:rgb(0, 0, 255);fill-opacity:0;fill-rule:evenodd;stroke:rgb(45, 0, 255);stroke-width:1;" d="M 79.3245, 477.105 L 87.8166, 465.718 L 91.8697, 467.455 L 113.486, 437.925 L 128.54, 444.294 L 107.117, 473.438 L 110.591, 474.982 L 103.643, 484.439 L 102.099, 486.755 L 79.3245, 477.105 z "/>
<path style="fill:rgb(255, 255, 0);fill-opacity:0;fill-rule:evenodd;stroke:rgb(45, 0, 255);stroke-width:1;" d="M 121.592, 425.766 L 141.665, 398.552 L 143.402, 397.973 L 142.823, 396.622 L 138.77, 394.885 L 146.49, 384.463 L 169.071, 394.113 L 156.333, 411.484 L 152.859, 409.94 L 136.647, 432.135 L 121.592, 425.766 z "/>
<path style="fill:rgb(255, 0, 0);fill-opacity:0;fill-rule:evenodd;stroke:rgb(45, 0, 255);stroke-width:1;" d="M 144.753, 435.609 L 160.965, 413.414 L 156.333, 411.484 L 169.071, 394.113 L 192.232, 403.764 L 184.704, 413.993 L 181.037, 412.449 L 178.721, 412.835 L 179.107, 414.958 L 159.421, 441.785 L 144.753, 435.609 z "/>
<path style="fill:rgb(0, 255, 0);fill-opacity:0;fill-rule:evenodd;stroke:rgb(45, 0, 255);stroke-width:1;" d="M 190.302, 454.91 L 206.321, 433.1 L 202.268, 431.363 L 215.392, 413.607 L 238.552, 423.45 L 231.218, 433.486 L 227.165, 431.749 L 224.849, 431.749 L 225.042, 433.872 L 204.97, 461.086 L 190.302, 454.91 z "/>
<path style="fill:rgb(0, 0, 255);fill-opacity:0;fill-rule:evenodd;stroke:rgb(45, 0, 255);stroke-width:1;" d="M 167.334, 445.259 L 187.214, 417.853 L 189.723, 417.274 L 188.758, 415.73 L 184.704, 413.993 L 192.232, 403.764 L 215.392, 413.607 L 202.268, 431.363 L 197.829, 429.433 L 181.809, 451.242 L 167.334, 445.259 z "/>
<path style="fill:rgb(255, 255, 0);fill-opacity:0;fill-rule:evenodd;stroke:rgb(45, 0, 255);stroke-width:1;" d="M 131.242, 296.454 L 140.121, 284.294 L 153.245, 289.891 L 154.21, 292.4 L 164.825, 296.84 L 166.948, 296.068 L 172.159, 298.191 L 172.352, 300.121 L 190.881, 308.034 L 184.318, 316.912 L 165.597, 308.999 L 162.702, 309.771 L 159.035, 308.227 L 158.263, 305.525 L 147.648, 301.086 L 144.946, 302.244 L 131.242, 296.454 z "/>
<path style="fill:rgb(255, 0, 0);fill-opacity:0;fill-rule:evenodd;stroke:rgb(45, 0, 255);stroke-width:1;" d="M 148.42, 272.907 L 157.105, 261.327 L 170.229, 266.924 L 171.001, 269.047 L 182.967, 274.065 L 184.318, 272.521 L 189.144, 274.644 L 189.53, 276.574 L 208.058, 284.294 L 201.496, 293.366 L 182.581, 285.452 L 180.265, 286.031 L 176.019, 284.294 L 175.054, 281.978 L 165.018, 277.732 L 161.544, 278.504 L 148.42, 272.907 z "/>
<path style="fill:rgb(0, 255, 0);fill-opacity:0;fill-rule:evenodd;stroke:rgb(45, 0, 255);stroke-width:1;" d="M 140.121, 284.294 L 148.42, 272.907 L 161.544, 278.504 L 162.316, 280.627 L 173.317, 285.259 L 176.019, 284.294 L 180.265, 286.031 L 180.651, 288.154 L 199.566, 296.261 L 193.004, 305.332 L 173.703, 297.033 L 172.159, 298.191 L 166.948, 296.068 L 167.141, 294.138 L 155.947, 289.505 L 153.245, 289.891 L 140.121, 284.294 z "/>
<path style="fill:rgb(0, 0, 255);fill-opacity:0;fill-rule:evenodd;stroke:rgb(45, 0, 255);stroke-width:1;" d="M 424.415, 713.534 L 433.293, 701.375 L 448.733, 707.937 L 439.855, 720.097 L 424.415, 713.534 z "/>
<path style="fill:rgb(255, 255, 0);fill-opacity:0;fill-rule:evenodd;stroke:rgb(45, 0, 255);stroke-width:1;" d="M 341.037, 366.321 L 344.897, 361.11 L 379.638, 375.585 L 375.971, 380.796 L 341.037, 366.321 z "/>
<path style="fill:rgb(255, 0, 0);fill-opacity:0;fill-rule:evenodd;stroke:rgb(45, 0, 255);stroke-width:1;" d="M 367.672, 202.268 L 374.427, 192.425 L 386.972, 197.443 L 380.217, 207.286 L 367.672, 202.268 z "/>
<path style="fill:rgb(0, 255, 0);fill-opacity:0;fill-rule:evenodd;stroke:rgb(45, 0, 255);stroke-width:1;" d="M 1.15802, 758.118 L 9.84318, 746.538 L 16.9843, 749.433 L 25.4765, 738.046 L 41.6888, 744.801 L 35.5127, 753.293 L 36.4777, 753.679 L 37.6357, 757.346 L 37.2497, 757.925 L 73.5344, 773.366 L 74.1134, 772.4 L 78.7455, 771.435 L 79.9035, 772.014 L 107.889, 733.8 L 106.731, 733.414 L 104.994, 729.747 L 105.573, 728.975 L 91.6767, 722.992 L 111.556, 695.971 L 124.101, 689.795 L 166.948, 707.937 L 151.894, 728.396 L 137.033, 722.027 L 115.03, 752.135 L 130.084, 758.504 L 121.206, 770.663 L 106.152, 764.294 L 93.2207, 781.858 L 108.275, 788.227 L 99.7829, 800 L 1.15802, 758.118 z "/>
<path style="fill:rgb(0, 0, 255);fill-opacity:0;fill-rule:evenodd;stroke:rgb(45, 0, 255);stroke-width:1;" d="M 21.4234, 610.084 L 30.3016, 598.118 L 38.4077, 601.592 L 50.1809, 585.573 L 42.0748, 582.099 L 50.953, 570.133 L 81.4475, 583.064 L 72.7624, 594.837 L 65.0422, 591.749 L 53.076, 607.768 L 60.9891, 611.049 L 52.304, 623.209 L 21.4234, 610.084 z "/>
<path style="fill:rgb(255, 255, 0);fill-opacity:0;fill-rule:evenodd;stroke:rgb(45, 0, 255);stroke-width:1;" d="M 18.3353, 451.242 L 31.6526, 432.907 L 51.339, 441.399 L 47.0929, 447.189 L 66.9723, 455.682 L 69.6743, 454.138 L 71.0253, 451.242 L 70.2533, 450.856 L 71.4113, 449.312 L 86.2726, 455.682 L 72.7624, 474.403 L 18.3353, 451.242 z "/>
<path style="fill:rgb(255, 0, 0);fill-opacity:0;fill-rule:evenodd;stroke:rgb(45, 0, 255);stroke-width:1;" d="M 8.49216, 259.397 L 17.1773, 247.624 L 17.7563, 247.817 L 30.4946, 253.414 L 32.0386, 256.116 L 37.2497, 258.432 L 35.7057, 260.362 L 41.8818, 263.064 L 43.4258, 260.941 L 54.041, 265.38 L 56.7431, 264.415 L 70.8323, 270.398 L 62.1472, 282.171 L 48.2509, 276.381 L 47.6719, 274.258 L 37.0567, 269.819 L 38.2147, 268.082 L 32.0386, 265.573 L 30.6876, 267.117 L 25.4765, 264.801 L 22.7744, 265.573 L 8.49216, 259.397 z "/>
<path style="fill:rgb(0, 255, 0);fill-opacity:0;fill-rule:evenodd;stroke:rgb(45, 0, 255);stroke-width:1;" d="M 0, 270.784 L 8.49216, 259.397 L 22.7744, 265.573 L 23.3534, 267.503 L 28.9505, 269.819 L 27.5995, 271.556 L 33.7756, 274.065 L 35.1267, 272.521 L 45.7419, 276.96 L 48.2509, 276.381 L 62.1472, 282.171 L 53.848, 293.752 L 39.7587, 287.961 L 38.7937, 286.031 L 28.1785, 281.592 L 29.5296, 279.662 L 23.3534, 276.96 L 22.0024, 278.89 L 16.5983, 276.574 L 14.2823, 276.96 L 0, 270.784 z "/>
<path style="fill:rgb(0, 0, 255);fill-opacity:0;fill-rule:evenodd;stroke:rgb(45, 0, 255);stroke-width:1;" d="M 26.2485, 236.815 L 33.7756, 226.586 L 47.0929, 232.376 L 46.1279, 233.727 L 57.7081, 238.552 L 59.8311, 235.657 L 66.2002, 238.359 L 66.9723, 240.676 L 72.7624, 242.992 L 75.8504, 242.413 L 87.8166, 247.431 L 79.3245, 259.011 L 68.7093, 254.572 L 68.1303, 255.151 L 67.3583, 254.765 L 66.2002, 251.87 L 60.4101, 249.361 L 57.7081, 250.133 L 51.339, 247.431 L 52.883, 245.308 L 41.3028, 240.483 L 39.5657, 242.606 L 26.2485, 236.815 z "/>
<path style="fill:rgb(255, 255, 0);fill-opacity:0;fill-rule:evenodd;stroke:rgb(45, 0, 255);stroke-width:1;" d="M 17.7563, 247.817 L 24.1255, 239.131 L 38.6007, 245.308 L 38.4077, 245.694 L 62.3402, 255.923 L 61.5682, 257.081 L 62.9192, 257.853 L 66.3932, 257.853 L 68.1303, 255.151 L 68.7093, 254.572 L 79.3245, 259.011 L 70.8323, 270.398 L 56.7431, 264.415 L 30.4946, 253.414 L 17.7563, 247.817 z "/>
</svg>