<?xml version="1.0" encoding="iso-8859-1" standalone="no"?>
<!DOCTYPE svg PUBLIC "-//W3C//DTD SVG 1.0//EN" "http://www.w3.org/TR/2001/REC-SVG-20010904/DTD/svg10.dtd">
<svg xmlns="http://www.w3.org/2000/svg" width="1167" height="800">
<path style="fill:rgb(255, 0, 0);fill-opacity:0;fill-rule:evenodd;stroke:rgb(0, 142, 255);stroke-width:1;" d="M 288.386, 731.328 L 293.655, 723.425 L 298.749, 716.4 L 309.989, 700.944 L 317.717, 690.406 L 319.473, 688.65 L 332.645, 670.209 L 344.061, 654.753 L 349.33, 647.728 L 358.639, 651.592 L 376.729, 659.319 L 412.909, 674.599 L 430.999, 682.151 L 440.307, 686.191 L 470.165, 698.661 L 466.652, 703.578 L 478.419, 708.672 L 473.326, 715.346 L 475.434, 715.873 L 451.196, 783.315 L 448.562, 782.086 L 443.82, 788.408 L 433.458, 783.842 L 428.891, 789.813 L 288.386, 731.328 z "/>
<path style="fill:rgb(0, 255, 0);fill-opacity:0;fill-rule:evenodd;stroke:rgb(0, 142, 255);stroke-width:1;" d="M 902.744, 700.768 L 931.723, 661.076 L 964.566, 674.775 L 993.721, 634.907 L 1033.41, 651.416 L 1021.47, 667.75 L 1167.24, 728.869 L 1133, 775.587 L 997.936, 719.034 L 985.642, 735.719 L 902.744, 700.768 z "/>
<path style="fill:rgb(0, 0, 255);fill-opacity:0;fill-rule:evenodd;stroke:rgb(0, 142, 255);stroke-width:1;" d="M 874.643, 547.969 L 902.042, 510.56 L 947.706, 529.879 L 948.76, 528.474 L 957.541, 532.162 L 960.351, 528.474 L 972.997, 511.262 L 980.724, 500.549 L 990.735, 486.85 L 1096.99, 531.987 L 1035.35, 615.939 L 874.643, 547.969 z "/>
<path style="fill:rgb(255, 255, 0);fill-opacity:0;fill-rule:evenodd;stroke:rgb(0, 142, 255);stroke-width:1;" d="M 742.217, 632.975 L 801.581, 551.131 L 931.723, 605.752 L 926.63, 612.777 L 931.548, 614.885 L 917.146, 634.731 L 906.432, 649.484 L 903.271, 648.079 L 878.858, 681.625 L 877.453, 681.098 L 872.536, 687.772 L 742.217, 632.975 z "/>
<path style="fill:rgb(255, 0, 0);fill-opacity:0;fill-rule:evenodd;stroke:rgb(0, 142, 255);stroke-width:1;" d="M 442.591, 354.775 L 491.592, 287.684 L 496.158, 289.616 L 497.563, 287.684 L 632.448, 344.237 L 580.637, 415.016 L 445.928, 358.639 L 447.333, 356.707 L 442.591, 354.775 z "/>
<path style="fill:rgb(0, 255, 0);fill-opacity:0;fill-rule:evenodd;stroke:rgb(0, 142, 255);stroke-width:1;" d="M 951.745, 698.836 L 987.223, 651.592 L 1021.47, 667.75 L 1167.24, 728.869 L 1133, 775.587 L 997.936, 719.034 L 951.745, 698.836 z "/>
<path style="fill:rgb(0, 0, 255);fill-opacity:0;fill-rule:evenodd;stroke:rgb(0, 142, 255);stroke-width:1;" d="M 381.12, 627.706 L 411.679, 585.906 L 414.841, 581.515 L 435.214, 553.765 L 438.375, 549.374 L 442.591, 543.403 L 475.082, 557.102 L 533.743, 581.866 L 525.84, 597.146 L 491.24, 663.535 L 489.133, 665.115 L 486.674, 666.345 L 485.269, 666.872 L 482.634, 667.398 L 479.649, 667.75 L 476.839, 667.574 L 473.853, 667.047 L 413.611, 641.581 L 381.12, 627.706 z "/>
<path style="fill:rgb(255, 255, 0);fill-opacity:0;fill-rule:evenodd;stroke:rgb(0, 142, 255);stroke-width:1;" d="M 240.263, 425.203 L 302.437, 340.198 L 342.305, 356.883 L 344.413, 361.976 L 358.288, 367.596 L 372.338, 373.392 L 379.012, 372.338 L 439.605, 398.332 L 432.755, 407.991 L 421.164, 423.622 L 409.396, 439.956 L 393.589, 433.282 L 383.052, 428.891 L 340.198, 410.977 L 326.674, 405.181 L 295.939, 447.684 L 240.263, 425.203 z "/>
<path style="fill:rgb(255, 0, 0);fill-opacity:0;fill-rule:evenodd;stroke:rgb(0, 142, 255);stroke-width:1;" d="M 753.282, 352.843 L 781.207, 310.516 L 798.419, 284.347 L 810.011, 266.959 L 871.658, 292.953 L 901.164, 305.247 L 904.501, 306.828 L 843.557, 390.604 L 843.381, 390.779 L 839.517, 389.023 L 810.538, 376.905 L 753.282, 352.843 z "/>
<path style="fill:rgb(0, 255, 0);fill-opacity:0;fill-rule:evenodd;stroke:rgb(0, 142, 255);stroke-width:1;" d="M 61.2953, 337.563 L 67.618, 328.782 L 68.4962, 327.377 L 69.5499, 325.971 L 72.36, 322.459 L 102.217, 281.888 L 103.271, 280.483 L 105.027, 278.2 L 106.959, 275.565 L 110.823, 270.472 L 116.97, 268.891 L 129.967, 275.038 L 191.965, 300.681 L 203.908, 305.774 L 206.015, 312.448 L 201.625, 318.419 L 199.517, 321.229 L 198.814, 322.283 L 197.058, 324.742 L 167.025, 365.664 L 164.918, 368.474 L 164.391, 369.177 L 162.459, 371.811 L 157.892, 377.783 L 148.935, 379.539 L 137.87, 374.446 L 75.1701, 348.101 L 63.4029, 343.359 L 61.2953, 337.563 z "/>
<path style="fill:rgb(0, 0, 255);fill-opacity:0;fill-rule:evenodd;stroke:rgb(0, 142, 255);stroke-width:1;" d="M 293.655, 723.425 L 298.749, 716.4 L 309.989, 700.944 L 317.717, 690.406 L 319.473, 688.65 L 332.645, 670.209 L 344.061, 654.753 L 349.33, 647.728 L 358.639, 651.592 L 376.729, 659.319 L 412.909, 674.599 L 430.999, 682.151 L 440.307, 686.191 L 436.795, 690.933 L 435.038, 693.216 L 433.458, 695.499 L 423.622, 708.672 L 400.966, 739.407 L 389.726, 754.863 L 384.457, 761.888 L 375.148, 758.024 L 357.058, 750.296 L 321.054, 735.016 L 302.788, 727.289 L 293.655, 723.425 z "/>
<path style="fill:rgb(255, 255, 0);fill-opacity:0;fill-rule:evenodd;stroke:rgb(0, 142, 255);stroke-width:1;" d="M 68.4962, 327.377 L 69.5499, 325.971 L 72.36, 322.459 L 102.217, 281.888 L 103.271, 280.483 L 129.967, 275.038 L 191.965, 300.681 L 198.814, 322.283 L 197.058, 324.742 L 167.025, 365.664 L 164.918, 368.474 L 137.87, 374.446 L 75.1701, 348.101 L 68.4962, 327.377 z "/>
<path style="fill:rgb(255, 0, 0);fill-opacity:0;fill-rule:evenodd;stroke:rgb(0, 142, 255);stroke-width:1;" d="M 661.778, 170.187 L 663.886, 167.201 L 667.047, 163.161 L 671.087, 157.717 L 675.126, 152.272 L 692.338, 128.386 L 693.919, 126.279 L 697.783, 120.834 L 701.822, 115.214 L 705.335, 111.175 L 711.306, 113.985 L 778.046, 141.383 L 785.247, 144.72 L 791.921, 147.53 L 805.269, 153.15 L 803.337, 156.487 L 800, 162.634 L 781.207, 196.18 L 778.046, 201.8 L 774.533, 207.947 L 770.318, 215.675 L 734.841, 200.746 L 668.628, 172.997 L 661.778, 170.187 z "/>
<path style="fill:rgb(0, 255, 0);fill-opacity:0;fill-rule:evenodd;stroke:rgb(0, 142, 255);stroke-width:1;" d="M 819.319, 524.435 L 880.966, 440.307 L 990.735, 486.85 L 980.724, 500.549 L 960.527, 491.943 L 952.799, 502.656 L 972.997, 511.262 L 960.351, 528.474 L 951.394, 524.61 L 954.38, 520.395 L 908.891, 501.251 L 919.78, 486.498 L 930.67, 491.24 L 937.344, 482.108 L 911.877, 471.394 L 906.959, 478.068 L 910.648, 479.649 L 903.974, 488.782 L 902.92, 488.255 L 890.274, 505.642 L 902.042, 510.56 L 874.643, 547.969 L 819.319, 524.435 z "/>
<path style="fill:rgb(0, 0, 255);fill-opacity:0;fill-rule:evenodd;stroke:rgb(0, 142, 255);stroke-width:1;" d="M 298.749, 716.4 L 309.989, 700.944 L 319.297, 704.808 L 341.954, 674.072 L 332.645, 670.209 L 344.061, 654.753 L 353.37, 658.793 L 358.639, 651.592 L 376.729, 659.319 L 371.636, 666.345 L 407.64, 681.625 L 412.909, 674.599 L 430.999, 682.151 L 425.73, 689.352 L 435.038, 693.216 L 433.458, 695.499 L 423.622, 708.672 L 414.314, 704.808 L 391.658, 735.543 L 400.966, 739.407 L 389.726, 754.863 L 380.417, 750.823 L 375.148, 758.024 L 357.058, 750.296 L 362.327, 743.271 L 326.147, 727.991 L 321.054, 735.016 L 302.788, 727.289 L 307.881, 720.263 L 298.749, 716.4 z "/>
<path style="fill:rgb(255, 255, 0);fill-opacity:0;fill-rule:evenodd;stroke:rgb(0, 142, 255);stroke-width:1;" d="M 307.881, 720.263 L 319.297, 704.808 L 309.989, 700.944 L 317.717, 690.406 L 319.473, 688.65 L 332.645, 670.209 L 341.954, 674.072 L 353.37, 658.793 L 371.636, 666.345 L 376.729, 659.319 L 412.909, 674.599 L 407.64, 681.625 L 425.73, 689.352 L 414.314, 704.808 L 423.622, 708.672 L 400.966, 739.407 L 391.658, 735.543 L 380.417, 750.823 L 362.327, 743.271 L 357.058, 750.296 L 321.054, 735.016 L 326.147, 727.991 L 307.881, 720.263 z "/>
<path style="fill:rgb(255, 0, 0);fill-opacity:0;fill-rule:evenodd;stroke:rgb(0, 142, 255);stroke-width:1;" d="M 566.937, 75.5214 L 583.095, 53.3919 L 597.497, 33.3699 L 597.673, 33.1943 L 723.074, 85.8836 L 705.335, 111.175 L 701.822, 115.214 L 697.783, 120.834 L 693.919, 126.279 L 692.338, 128.386 L 670.209, 119.078 L 597.673, 88.5181 L 582.569, 82.1954 L 566.937, 75.5214 z "/>
<path style="fill:rgb(0, 255, 0);fill-opacity:0;fill-rule:evenodd;stroke:rgb(0, 142, 255);stroke-width:1;" d="M 785.95, 635.96 L 791.57, 628.057 L 826.872, 579.407 L 905.554, 612.25 L 918.2, 617.519 L 912.58, 625.247 L 877.278, 673.897 L 798.595, 641.229 L 785.95, 635.96 z "/>
<path style="fill:rgb(0, 0, 255);fill-opacity:0;fill-rule:evenodd;stroke:rgb(0, 142, 255);stroke-width:1;" d="M 375.675, 337.739 L 387.618, 321.405 L 390.955, 316.487 L 395.697, 310.165 L 407.113, 294.358 L 421.515, 274.687 L 425.554, 269.243 L 437.146, 253.26 L 498.09, 278.727 L 491.592, 287.684 L 442.591, 354.775 L 436.443, 363.03 L 375.675, 337.739 z "/>
<path style="fill:rgb(255, 255, 0);fill-opacity:0;fill-rule:evenodd;stroke:rgb(0, 142, 255);stroke-width:1;" d="M 606.63, 578.88 L 650.011, 514.248 L 678.463, 526.015 L 680.922, 522.503 L 731.855, 543.754 L 683.557, 611.021 L 606.63, 578.88 z "/>
<path style="fill:rgb(255, 0, 0);fill-opacity:0;fill-rule:evenodd;stroke:rgb(0, 142, 255);stroke-width:1;" d="M 262.569, 145.95 L 287.508, 112.228 L 296.817, 116.092 L 294.533, 119.254 L 310.867, 126.103 L 315.082, 120.483 L 328.957, 126.279 L 338.617, 113.282 L 328.606, 109.067 L 347.75, 83.0735 L 343.71, 81.3172 L 350.033, 72.7113 L 372.514, 82.1954 L 404.303, 95.719 L 342.13, 179.671 L 310.867, 166.323 L 262.569, 145.95 z "/>
<path style="fill:rgb(0, 255, 0);fill-opacity:0;fill-rule:evenodd;stroke:rgb(0, 142, 255);stroke-width:1;" d="M 189.506, 259.056 L 220.241, 217.256 L 251.328, 230.428 L 254.841, 225.686 L 259.232, 219.715 L 256.246, 218.485 L 275.214, 192.843 L 278.024, 193.897 L 282.591, 187.75 L 325.62, 206.015 L 263.447, 290.494 L 189.506, 259.056 z "/>
<path style="fill:rgb(0, 0, 255);fill-opacity:0;fill-rule:evenodd;stroke:rgb(0, 142, 255);stroke-width:1;" d="M 638.244, 304.544 L 644.215, 296.114 L 653.524, 283.293 L 659.846, 274.687 L 663.535, 269.945 L 664.237, 268.891 L 699.715, 220.417 L 754.16, 243.425 L 698.485, 330.011 L 638.244, 304.544 z "/>
<path style="fill:rgb(255, 255, 0);fill-opacity:0;fill-rule:evenodd;stroke:rgb(0, 142, 255);stroke-width:1;" d="M 78.5071, 328.43 L 109.594, 286.454 L 128.738, 282.591 L 183.71, 305.247 L 188.804, 321.229 L 158.771, 362.503 L 139.1, 366.894 L 83.4248, 343.535 L 78.5071, 328.43 z "/>
<path style="fill:rgb(255, 0, 0);fill-opacity:0;fill-rule:evenodd;stroke:rgb(0, 142, 255);stroke-width:1;" d="M 520.395, 254.841 L 547.969, 217.08 L 591.877, 235.697 L 604.347, 234.468 L 612.25, 237.805 L 625.423, 243.425 L 628.584, 239.034 L 640, 243.776 L 635.785, 249.572 L 630.867, 256.246 L 663.535, 269.945 L 659.846, 274.687 L 653.524, 283.293 L 644.215, 296.114 L 638.244, 304.544 L 625.247, 299.1 L 520.395, 254.841 z "/>
<path style="fill:rgb(0, 255, 0);fill-opacity:0;fill-rule:evenodd;stroke:rgb(0, 142, 255);stroke-width:1;" d="M 896.773, 117.673 L 948.76, 45.8397 L 1005.31, 69.3743 L 1001.27, 74.9945 L 965.093, 124.874 L 994.072, 136.817 L 992.843, 138.573 L 981.954, 152.975 L 896.773, 117.673 z "/>
<path style="fill:rgb(0, 0, 255);fill-opacity:0;fill-rule:evenodd;stroke:rgb(0, 142, 255);stroke-width:1;" d="M 852.689, 210.231 L 859.89, 197.409 L 870.604, 178.266 L 877.629, 165.62 L 913.633, 180.022 L 944.72, 193.019 L 970.889, 204.259 L 962.81, 215.499 L 949.286, 234.116 L 940.505, 246.586 L 924.874, 240.088 L 904.325, 231.658 L 891.855, 249.923 L 887.113, 256.773 L 866.389, 248.518 L 867.969, 246.235 L 871.131, 241.668 L 883.952, 223.052 L 869.726, 217.431 L 852.689, 210.231 z "/>
<path style="fill:rgb(255, 255, 0);fill-opacity:0;fill-rule:evenodd;stroke:rgb(0, 142, 255);stroke-width:1;" d="M 236.048, 559.21 L 252.558, 536.553 L 262.569, 523.03 L 276.795, 529.001 L 300.154, 538.836 L 329.484, 551.131 L 351.262, 560.439 L 367.596, 567.289 L 357.585, 580.812 L 341.076, 603.293 L 316.839, 593.106 L 288.738, 581.515 L 260.461, 569.396 L 236.048, 559.21 z "/>
<path style="fill:rgb(255, 0, 0);fill-opacity:0;fill-rule:evenodd;stroke:rgb(0, 142, 255);stroke-width:1;" d="M 160.176, 533.392 L 221.647, 450.318 L 231.658, 454.709 L 246.937, 461.207 L 254.49, 464.369 L 265.203, 468.935 L 237.98, 505.818 L 203.732, 552.009 L 193.019, 547.442 L 160.176, 533.392 z "/>
<path style="fill:rgb(0, 255, 0);fill-opacity:0;fill-rule:evenodd;stroke:rgb(0, 142, 255);stroke-width:1;" d="M 381.12, 627.706 L 411.679, 585.906 L 414.841, 581.515 L 417.3, 577.651 L 463.491, 596.268 L 431.701, 639.473 L 441.01, 643.337 L 437.849, 647.552 L 451.899, 653.348 L 458.222, 655.456 L 463.139, 655.982 L 469.111, 654.753 L 474.204, 652.821 L 479.473, 648.079 L 514.951, 598.375 L 516.707, 594.863 L 516.707, 591.701 L 516.356, 588.891 L 515.126, 586.081 L 513.37, 583.974 L 510.735, 582.042 L 523.732, 587.311 L 525.313, 589.067 L 526.367, 590.999 L 526.367, 593.458 L 525.84, 597.146 L 491.24, 663.535 L 489.133, 665.115 L 486.674, 666.345 L 485.269, 666.872 L 482.634, 667.398 L 479.649, 667.75 L 476.839, 667.574 L 473.853, 667.047 L 413.611, 641.581 L 381.12, 627.706 z "/>
<path style="fill:rgb(0, 0, 255);fill-opacity:0;fill-rule:evenodd;stroke:rgb(0, 142, 255);stroke-width:1;" d="M 55.8507, 443.82 L 60.4171, 437.322 L 67.9693, 440.483 L 66.3886, 442.591 L 69.5499, 443.82 L 71.1306, 441.537 L 74.1164, 442.942 L 76.5752, 439.429 L 98.8804, 448.738 L 103.798, 441.888 L 81.4929, 432.755 L 90.0988, 420.812 L 87.4643, 419.759 L 102.042, 399.912 L 102.569, 399.034 L 120.132, 406.235 L 128.386, 409.923 L 166.498, 425.73 L 156.136, 439.956 L 151.745, 445.928 L 142.261, 459.1 L 137.695, 465.247 L 127.508, 479.297 L 105.906, 470.34 L 82.8979, 460.505 L 81.4929, 459.978 L 84.4786, 455.763 L 55.8507, 443.82 z "/>
<path style="fill:rgb(255, 255, 0);fill-opacity:0;fill-rule:evenodd;stroke:rgb(0, 142, 255);stroke-width:1;" d="M 79.7366, 644.04 L 122.766, 585.379 L 141.207, 593.106 L 175.631, 607.859 L 171.943, 612.777 L 171.416, 613.48 L 172.47, 613.831 L 168.957, 618.573 L 140.856, 657.563 L 134.709, 666.696 L 79.7366, 644.04 z "/>
<path style="fill:rgb(255, 0, 0);fill-opacity:0;fill-rule:evenodd;stroke:rgb(0, 142, 255);stroke-width:1;" d="M 628.408, 573.963 L 663.008, 523.732 L 726.235, 548.496 L 691.636, 598.902 L 628.408, 573.963 z "/>
<path style="fill:rgb(0, 255, 0);fill-opacity:0;fill-rule:evenodd;stroke:rgb(0, 142, 255);stroke-width:1;" d="M 567.113, 130.318 L 597.673, 88.5181 L 670.209, 119.078 L 639.824, 160.878 L 623.666, 154.38 L 567.113, 130.318 z "/>
<path style="fill:rgb(0, 0, 255);fill-opacity:0;fill-rule:evenodd;stroke:rgb(0, 142, 255);stroke-width:1;" d="M 489.835, 529.177 L 517.234, 491.416 L 520.395, 487.201 L 534.446, 492.997 L 542.173, 482.459 L 545.686, 484.04 L 586.959, 501.427 L 552.009, 555.17 L 489.835, 529.177 z "/>
<path style="fill:rgb(255, 255, 0);fill-opacity:0;fill-rule:evenodd;stroke:rgb(0, 142, 255);stroke-width:1;" d="M 699.89, 434.512 L 715.873, 407.64 L 722.722, 395.873 L 725.884, 397.278 L 808.079, 440.132 L 786.125, 471.218 L 699.89, 434.512 z "/>
<path style="fill:rgb(255, 0, 0);fill-opacity:0;fill-rule:evenodd;stroke:rgb(0, 142, 255);stroke-width:1;" d="M 902.744, 700.768 L 931.723, 661.076 L 964.566, 674.775 L 993.721, 634.907 L 1033.41, 651.416 L 1021.47, 667.75 L 987.223, 651.592 L 951.745, 698.836 L 997.936, 719.034 L 985.642, 735.719 L 902.744, 700.768 z "/>
<path style="fill:rgb(0, 255, 0);fill-opacity:0;fill-rule:evenodd;stroke:rgb(0, 142, 255);stroke-width:1;" d="M 512.492, 195.653 L 516.883, 189.506 L 514.775, 188.628 L 539.539, 154.555 L 540.593, 153.15 L 587.838, 173.172 L 608.562, 181.954 L 608.035, 182.832 L 592.58, 203.732 L 578.353, 223.403 L 512.492, 195.653 z "/>
<path style="fill:rgb(0, 0, 255);fill-opacity:0;fill-rule:evenodd;stroke:rgb(0, 142, 255);stroke-width:1;" d="M 335.456, 292.953 L 381.647, 229.901 L 437.146, 253.26 L 421.515, 274.687 L 394.116, 263.095 L 379.715, 282.942 L 407.113, 294.358 L 395.697, 310.165 L 368.299, 298.573 L 363.732, 304.72 L 335.456, 292.953 z "/>
<path style="fill:rgb(255, 255, 0);fill-opacity:0;fill-rule:evenodd;stroke:rgb(0, 142, 255);stroke-width:1;" d="M 236.048, 559.21 L 252.558, 536.553 L 290.143, 552.36 L 300.154, 538.836 L 329.484, 551.131 L 319.473, 564.83 L 357.585, 580.812 L 341.076, 603.293 L 316.839, 593.106 L 288.738, 581.515 L 260.461, 569.396 L 236.048, 559.21 z "/>
<path style="fill:rgb(255, 0, 0);fill-opacity:0;fill-rule:evenodd;stroke:rgb(0, 142, 255);stroke-width:1;" d="M 546.74, 694.094 L 570.45, 645.796 L 637.014, 673.721 L 604.523, 718.507 L 546.74, 694.094 z "/>
<path style="fill:rgb(0, 255, 0);fill-opacity:0;fill-rule:evenodd;stroke:rgb(0, 142, 255);stroke-width:1;" d="M 976.685, 126.806 L 986.345, 113.633 L 1014.27, 125.225 L 1017.78, 125.049 L 1021.3, 120.132 L 1017.96, 118.727 L 1019.36, 116.795 L 993.546, 106.081 L 1001.62, 94.8408 L 1011.81, 99.056 L 1015.85, 93.6114 L 1019.71, 95.1921 L 1021.3, 93.0845 L 1001.27, 84.8299 L 1017.08, 62.876 L 1069.77, 84.8299 L 1067.66, 87.8156 L 1037.8, 129.089 L 1034.99, 127.859 L 1019.36, 149.462 L 1003.91, 142.964 L 1005.14, 141.032 L 1003.91, 138.046 L 976.685, 126.806 z "/>
<path style="fill:rgb(0, 0, 255);fill-opacity:0;fill-rule:evenodd;stroke:rgb(0, 142, 255);stroke-width:1;" d="M 912.58, 118.902 L 957.541, 56.7289 L 1001.27, 74.9945 L 965.093, 124.874 L 956.312, 136.992 L 912.58, 118.902 z "/>
<path style="fill:rgb(255, 255, 0);fill-opacity:0;fill-rule:evenodd;stroke:rgb(0, 142, 255);stroke-width:1;" d="M 310.867, 166.323 L 337.563, 129.967 L 347.047, 116.795 L 372.514, 82.1954 L 404.303, 95.719 L 342.13, 179.671 L 310.867, 166.323 z "/>
<path style="fill:rgb(255, 0, 0);fill-opacity:0;fill-rule:evenodd;stroke:rgb(0, 142, 255);stroke-width:1;" d="M 417.3, 577.651 L 428.013, 563.776 L 446.103, 570.801 L 454.533, 559.561 L 455.236, 558.683 L 497.212, 576.422 L 490.538, 586.081 L 481.229, 582.393 L 474.731, 592.053 L 495.631, 600.659 L 502.656, 603.644 L 474.731, 644.04 L 469.111, 641.932 L 448.035, 633.502 L 441.01, 643.337 L 431.701, 639.473 L 463.491, 596.268 L 417.3, 577.651 z "/>
<path style="fill:rgb(0, 255, 0);fill-opacity:0;fill-rule:evenodd;stroke:rgb(0, 142, 255);stroke-width:1;" d="M 55.8507, 443.82 L 60.4171, 437.322 L 67.9693, 440.483 L 66.3886, 442.591 L 69.5499, 443.82 L 71.1306, 441.537 L 74.1164, 442.942 L 76.5752, 439.429 L 98.8804, 448.738 L 103.798, 441.888 L 81.4929, 432.755 L 90.0988, 420.812 L 87.4643, 419.759 L 102.042, 399.912 L 102.569, 399.034 L 120.132, 406.235 L 104.852, 427.311 L 113.282, 430.823 L 128.386, 409.923 L 166.498, 425.73 L 156.136, 439.956 L 132.602, 430.121 L 128.211, 436.092 L 151.745, 445.928 L 142.261, 459.1 L 118.902, 449.44 L 114.336, 455.587 L 137.695, 465.247 L 127.508, 479.297 L 105.906, 470.34 L 109.067, 465.95 L 84.4786, 455.763 L 55.8507, 443.82 z "/>
<path style="fill:rgb(0, 0, 255);fill-opacity:0;fill-rule:evenodd;stroke:rgb(0, 142, 255);stroke-width:1;" d="M 72.0088, 209.177 L 89.7475, 185.115 L 104.501, 191.438 L 105.906, 189.506 L 181.427, 221.647 L 180.022, 223.578 L 195.302, 230.077 L 177.739, 254.138 L 170.011, 250.801 L 171.065, 249.221 L 160, 244.479 L 158.771, 246.059 L 144.018, 239.737 L 145.247, 238.156 L 133.655, 233.238 L 132.602, 234.995 L 117.673, 228.672 L 118.902, 226.915 L 107.662, 222.173 L 106.432, 223.93 L 91.1526, 217.256 L 92.2064, 215.675 L 81.1416, 210.933 L 79.9122, 212.514 L 72.0088, 209.177 z "/>
<path style="fill:rgb(255, 255, 0);fill-opacity:0;fill-rule:evenodd;stroke:rgb(0, 142, 255);stroke-width:1;" d="M 680.395, 466.476 L 699.89, 434.512 L 786.125, 471.218 L 764.171, 501.954 L 680.395, 466.476 z "/>
<path style="fill:rgb(255, 0, 0);fill-opacity:0;fill-rule:evenodd;stroke:rgb(0, 142, 255);stroke-width:1;" d="M 728.694, 773.48 L 761.01, 729.221 L 773.304, 736.597 L 784.018, 742.744 L 794.731, 749.067 L 818.793, 763.117 L 791.745, 800 L 728.694, 773.48 z "/>
<path style="fill:rgb(0, 255, 0);fill-opacity:0;fill-rule:evenodd;stroke:rgb(0, 142, 255);stroke-width:1;" d="M 160.176, 533.392 L 164.04, 532.865 L 222.525, 453.48 L 221.647, 450.318 L 231.658, 454.709 L 246.937, 461.207 L 254.49, 464.369 L 229.901, 497.563 L 217.783, 514.072 L 193.019, 547.442 L 160.176, 533.392 z "/>
<path style="fill:rgb(0, 0, 255);fill-opacity:0;fill-rule:evenodd;stroke:rgb(0, 142, 255);stroke-width:1;" d="M 196.004, 252.909 L 212.689, 230.077 L 245.532, 243.952 L 263.798, 219.188 L 301.207, 234.819 L 296.641, 241.317 L 293.831, 240.088 L 285.928, 250.801 L 288.738, 252.031 L 266.432, 282.415 L 230.604, 267.311 L 231.833, 265.554 L 220.241, 260.812 L 219.012, 262.569 L 196.004, 252.909 z "/>
<path style="fill:rgb(255, 255, 0);fill-opacity:0;fill-rule:evenodd;stroke:rgb(0, 142, 255);stroke-width:1;" d="M 705.335, 111.175 L 723.074, 85.8836 L 820.198, 126.63 L 809.133, 145.95 L 805.269, 153.15 L 791.921, 147.53 L 785.247, 144.72 L 778.046, 141.383 L 711.306, 113.985 L 705.335, 111.175 z "/>
<path style="fill:rgb(255, 0, 0);fill-opacity:0;fill-rule:evenodd;stroke:rgb(0, 142, 255);stroke-width:1;" d="M 810.538, 376.905 L 844.259, 330.714 L 857.256, 312.799 L 871.658, 292.953 L 901.164, 305.247 L 839.517, 389.023 L 810.538, 376.905 z "/>
<path style="fill:rgb(0, 255, 0);fill-opacity:0;fill-rule:evenodd;stroke:rgb(0, 142, 255);stroke-width:1;" d="M 271.35, 83.0735 L 280.132, 71.3063 L 294.885, 51.2843 L 296.114, 49.7036 L 323.688, 61.4709 L 317.366, 70.0768 L 326.85, 74.1164 L 332.119, 66.9155 L 339.144, 69.9012 L 333.699, 77.1021 L 343.71, 81.3172 L 347.75, 83.0735 L 328.606, 109.067 L 338.617, 113.282 L 328.957, 126.279 L 315.082, 120.483 L 310.867, 126.103 L 294.533, 119.254 L 296.817, 116.092 L 287.508, 112.228 L 286.63, 111.877 L 299.1, 94.8408 L 271.35, 83.0735 z "/>
<path style="fill:rgb(0, 0, 255);fill-opacity:0;fill-rule:evenodd;stroke:rgb(0, 142, 255);stroke-width:1;" d="M 675.126, 152.272 L 692.338, 128.386 L 693.919, 126.279 L 700.593, 128.913 L 781.207, 162.283 L 787.355, 164.918 L 768.562, 190.911 L 762.415, 188.277 L 681.625, 155.082 L 675.126, 152.272 z "/>
<path style="fill:rgb(255, 255, 0);fill-opacity:0;fill-rule:evenodd;stroke:rgb(0, 142, 255);stroke-width:1;" d="M 688.65, 702.349 L 719.737, 659.846 L 775.763, 683.381 L 752.404, 715.521 L 747.838, 721.493 L 744.676, 726.059 L 688.65, 702.349 z "/>
<path style="fill:rgb(255, 0, 0);fill-opacity:0;fill-rule:evenodd;stroke:rgb(0, 142, 255);stroke-width:1;" d="M 232.536, 707.969 L 263.622, 665.115 L 263.974, 665.291 L 269.769, 667.75 L 319.473, 688.65 L 317.717, 690.406 L 309.989, 700.944 L 298.749, 716.4 L 293.655, 723.425 L 288.386, 731.328 L 288.386, 731.504 L 257.124, 718.332 L 232.536, 707.969 z "/>
<path style="fill:rgb(0, 255, 0);fill-opacity:0;fill-rule:evenodd;stroke:rgb(0, 142, 255);stroke-width:1;" d="M 742.217, 632.975 L 801.581, 551.131 L 931.723, 605.752 L 926.63, 612.777 L 840.746, 576.948 L 840.044, 578.002 L 825.115, 571.855 L 820.373, 578.353 L 801.405, 570.45 L 755.038, 634.204 L 851.46, 674.424 L 853.919, 671.087 L 877.453, 681.098 L 872.536, 687.772 L 742.217, 632.975 z "/>
<path style="fill:rgb(0, 0, 255);fill-opacity:0;fill-rule:evenodd;stroke:rgb(0, 142, 255);stroke-width:1;" d="M 85.3568, 735.543 L 92.0307, 726.411 L 116.443, 693.216 L 151.043, 707.969 L 171.416, 716.4 L 140.329, 758.902 L 96.0703, 740.285 L 85.3568, 735.543 z "/>
<path style="fill:rgb(255, 255, 0);fill-opacity:0;fill-rule:evenodd;stroke:rgb(0, 142, 255);stroke-width:1;" d="M 644.215, 296.114 L 653.524, 283.293 L 659.846, 274.687 L 673.546, 280.483 L 677.761, 274.687 L 686.191, 263.447 L 706.564, 235.697 L 738.178, 249.045 L 731.328, 258.353 L 709.374, 288.035 L 701.295, 284.874 L 690.757, 299.1 L 681.449, 311.745 L 674.775, 308.935 L 644.215, 296.114 z "/>
<path style="fill:rgb(255, 0, 0);fill-opacity:0;fill-rule:evenodd;stroke:rgb(0, 142, 255);stroke-width:1;" d="M 440.483, 508.452 L 452.602, 491.767 L 446.103, 488.957 L 460.505, 469.111 L 471.394, 467.003 L 499.319, 478.771 L 496.509, 482.81 L 517.234, 491.416 L 489.835, 529.177 L 481.756, 525.84 L 440.483, 508.452 z "/>
<path style="fill:rgb(0, 255, 0);fill-opacity:0;fill-rule:evenodd;stroke:rgb(0, 142, 255);stroke-width:1;" d="M 638.244, 304.544 L 644.215, 296.114 L 674.775, 308.935 L 681.449, 311.745 L 680.22, 313.677 L 694.094, 319.122 L 698.31, 317.892 L 734.665, 259.759 L 731.328, 258.353 L 738.178, 249.045 L 706.564, 235.697 L 686.191, 263.447 L 677.761, 274.687 L 673.546, 280.483 L 659.846, 274.687 L 663.535, 269.945 L 664.237, 268.891 L 699.715, 220.417 L 754.16, 243.425 L 698.485, 330.011 L 638.244, 304.544 z "/>
<path style="fill:rgb(0, 0, 255);fill-opacity:0;fill-rule:evenodd;stroke:rgb(0, 142, 255);stroke-width:1;" d="M 506.345, 481.229 L 511.087, 474.731 L 516.356, 467.53 L 520.571, 461.734 L 537.08, 439.078 L 608.035, 468.76 L 594.16, 490.187 L 553.589, 473.15 L 550.077, 471.57 L 542.173, 482.459 L 534.446, 492.997 L 520.395, 487.201 L 506.345, 481.229 z "/>
<path style="fill:rgb(255, 255, 0);fill-opacity:0;fill-rule:evenodd;stroke:rgb(0, 142, 255);stroke-width:1;" d="M 193.721, 627.881 L 219.188, 592.931 L 253.26, 607.333 L 275.038, 616.465 L 264.501, 630.692 L 248.694, 624.018 L 242.722, 632.272 L 258.529, 638.946 L 245.181, 657.387 L 226.564, 649.484 L 209.352, 639.122 L 193.721, 627.881 z "/>
<path style="fill:rgb(255, 0, 0);fill-opacity:0;fill-rule:evenodd;stroke:rgb(0, 142, 255);stroke-width:1;" d="M 269.769, 667.75 L 298.573, 628.233 L 299.627, 626.828 L 317.014, 633.853 L 349.33, 647.728 L 344.061, 654.753 L 332.645, 670.209 L 319.473, 688.65 L 269.769, 667.75 z "/>
<path style="fill:rgb(0, 255, 0);fill-opacity:0;fill-rule:evenodd;stroke:rgb(0, 142, 255);stroke-width:1;" d="M 859.89, 197.409 L 870.604, 178.266 L 905.554, 191.789 L 913.633, 180.022 L 944.72, 193.019 L 937.344, 204.435 L 962.81, 215.499 L 949.286, 234.116 L 933.831, 227.442 L 878.683, 204.962 L 859.89, 197.409 z "/>
<path style="fill:rgb(0, 0, 255);fill-opacity:0;fill-rule:evenodd;stroke:rgb(0, 142, 255);stroke-width:1;" d="M 134.709, 666.696 L 140.856, 657.563 L 168.957, 618.573 L 176.861, 623.666 L 180.549, 618.573 L 182.656, 620.154 L 193.721, 627.881 L 209.352, 639.122 L 206.542, 643.161 L 178.266, 681.976 L 172.997, 679.868 L 171.416, 682.151 L 134.709, 666.696 z "/>
<path style="fill:rgb(255, 255, 0);fill-opacity:0;fill-rule:evenodd;stroke:rgb(0, 142, 255);stroke-width:1;" d="M 304.544, 533.743 L 309.286, 527.245 L 323.688, 507.574 L 331.767, 496.509 L 367.069, 511.438 L 384.632, 518.99 L 357.409, 556.224 L 304.544, 533.743 z "/>
<path style="fill:rgb(255, 0, 0);fill-opacity:0;fill-rule:evenodd;stroke:rgb(0, 142, 255);stroke-width:1;" d="M 268.189, 391.482 L 274.863, 382.7 L 274.863, 380.417 L 285.928, 364.962 L 297.87, 362.854 L 299.276, 360.746 L 311.921, 358.112 L 314.204, 358.99 L 328.079, 356.004 L 347.398, 364.259 L 347.398, 366.015 L 360.922, 371.636 L 360.922, 372.338 L 361.098, 373.919 L 347.574, 392.536 L 345.291, 392.711 L 332.47, 387.091 L 329.484, 387.618 L 306.125, 392.711 L 303.842, 393.238 L 296.465, 403.425 L 293.655, 403.952 L 268.716, 393.589 L 268.364, 392.536 L 268.189, 391.482 z "/>
<path style="fill:rgb(0, 255, 0);fill-opacity:0;fill-rule:evenodd;stroke:rgb(0, 142, 255);stroke-width:1;" d="M 437.146, 153.677 L 461.91, 119.956 L 527.947, 147.881 L 526.894, 149.286 L 524.962, 152.097 L 512.316, 169.133 L 486.147, 158.068 L 477.014, 170.538 L 442.415, 155.96 L 437.146, 153.677 z "/>
<path style="fill:rgb(0, 0, 255);fill-opacity:0;fill-rule:evenodd;stroke:rgb(0, 142, 255);stroke-width:1;" d="M 725.884, 397.278 L 738.178, 379.188 L 826.872, 416.773 L 809.133, 440.659 L 808.079, 440.132 L 725.884, 397.278 z "/>
<path style="fill:rgb(255, 255, 0);fill-opacity:0;fill-rule:evenodd;stroke:rgb(0, 142, 255);stroke-width:1;" d="M 337.036, 609.089 L 367.596, 567.289 L 411.679, 585.906 L 381.12, 627.706 L 337.036, 609.089 z "/>
<path style="fill:rgb(255, 0, 0);fill-opacity:0;fill-rule:evenodd;stroke:rgb(0, 142, 255);stroke-width:1;" d="M 103.447, 639.824 L 113.458, 626.125 L 129.967, 603.293 L 133.128, 604.523 L 141.207, 593.106 L 175.631, 607.859 L 171.943, 612.777 L 171.416, 613.48 L 172.47, 613.831 L 168.957, 618.573 L 140.856, 657.563 L 139.627, 657.036 L 109.594, 644.215 L 106.608, 642.283 L 103.447, 639.824 z "/>
<path style="fill:rgb(0, 255, 0);fill-opacity:0;fill-rule:evenodd;stroke:rgb(0, 142, 255);stroke-width:1;" d="M 309.286, 453.304 L 340.198, 410.977 L 383.052, 428.891 L 352.141, 471.218 L 334.753, 464.018 L 309.286, 453.304 z "/>
<path style="fill:rgb(0, 0, 255);fill-opacity:0;fill-rule:evenodd;stroke:rgb(0, 142, 255);stroke-width:1;" d="M 384.457, 761.888 L 389.726, 754.863 L 405.357, 761.537 L 412.206, 758.024 L 418.002, 754.336 L 423.447, 750.121 L 428.891, 744.852 L 436.268, 736.07 L 441.361, 727.64 L 444.171, 720.966 L 445.928, 713.765 L 446.806, 706.564 L 447.333, 701.471 L 433.458, 695.499 L 435.038, 693.216 L 436.795, 690.933 L 466.652, 703.578 L 463.139, 709.199 L 466.652, 710.955 L 441.888, 778.924 L 438.551, 777.344 L 433.458, 783.842 L 384.457, 761.888 z "/>
<path style="fill:rgb(255, 255, 0);fill-opacity:0;fill-rule:evenodd;stroke:rgb(0, 142, 255);stroke-width:1;" d="M 570.45, 645.796 L 588.54, 609.089 L 595.39, 607.333 L 625.598, 620.154 L 608.035, 644.391 L 618.046, 648.606 L 646.498, 660.724 L 637.014, 673.721 L 570.45, 645.796 z "/>
<path style="fill:rgb(255, 0, 0);fill-opacity:0;fill-rule:evenodd;stroke:rgb(0, 142, 255);stroke-width:1;" d="M 392.36, 488.255 L 423.271, 445.752 L 439.254, 452.602 L 436.268, 456.641 L 461.734, 467.355 L 460.505, 469.111 L 446.103, 488.957 L 433.985, 505.642 L 392.36, 488.255 z "/>
<path style="fill:rgb(0, 255, 0);fill-opacity:0;fill-rule:evenodd;stroke:rgb(0, 142, 255);stroke-width:1;" d="M 794.731, 749.067 L 825.818, 706.564 L 826.872, 705.159 L 862.7, 720.263 L 827.574, 768.211 L 818.793, 763.117 L 794.731, 749.067 z "/>
<path style="fill:rgb(0, 0, 255);fill-opacity:0;fill-rule:evenodd;stroke:rgb(0, 142, 255);stroke-width:1;" d="M 237.98, 505.818 L 265.203, 468.935 L 309.638, 487.201 L 301.559, 498.266 L 287.157, 517.936 L 282.415, 524.435 L 237.98, 505.818 z "/>
<path style="fill:rgb(255, 255, 0);fill-opacity:0;fill-rule:evenodd;stroke:rgb(0, 142, 255);stroke-width:1;" d="M 755.038, 634.204 L 801.405, 570.45 L 820.373, 578.353 L 785.95, 625.774 L 791.57, 628.057 L 785.95, 635.96 L 798.595, 641.229 L 794.731, 646.498 L 853.919, 671.087 L 851.46, 674.424 L 755.038, 634.204 z "/>
<path style="fill:rgb(255, 0, 0);fill-opacity:0;fill-rule:evenodd;stroke:rgb(0, 142, 255);stroke-width:1;" d="M 635.785, 249.572 L 640, 243.776 L 646.147, 235.521 L 666.52, 207.42 L 667.223, 206.718 L 699.715, 220.417 L 664.237, 268.891 L 640.351, 258.88 L 641.581, 252.031 L 635.785, 249.572 z "/>
<path style="fill:rgb(0, 255, 0);fill-opacity:0;fill-rule:evenodd;stroke:rgb(0, 142, 255);stroke-width:1;" d="M 409.396, 439.956 L 421.164, 423.622 L 423.974, 424.852 L 435.39, 409.045 L 432.755, 407.991 L 439.605, 398.332 L 457.519, 405.532 L 457.168, 408.167 L 455.06, 410.801 L 451.372, 411.679 L 447.684, 416.948 L 455.763, 420.285 L 459.451, 415.016 L 457.87, 412.031 L 459.978, 409.396 L 464.193, 408.342 L 481.581, 415.719 L 456.641, 449.967 L 454.007, 453.48 L 424.325, 441.01 L 421.515, 445.049 L 409.396, 439.956 z "/>
<path style="fill:rgb(0, 0, 255);fill-opacity:0;fill-rule:evenodd;stroke:rgb(0, 142, 255);stroke-width:1;" d="M 442.415, 155.96 L 464.193, 126.279 L 524.962, 152.097 L 512.316, 169.133 L 486.147, 158.068 L 477.014, 170.538 L 442.415, 155.96 z "/>
<path style="fill:rgb(255, 255, 0);fill-opacity:0;fill-rule:evenodd;stroke:rgb(0, 142, 255);stroke-width:1;" d="M 559.912, 680.044 L 561.142, 678.814 L 577.124, 663.535 L 583.271, 653.875 L 629.111, 673.546 L 622.613, 682.854 L 609.791, 701.12 L 597.497, 695.851 L 594.336, 700.241 L 581.339, 695.851 L 573.26, 691.284 L 566.937, 686.718 L 563.249, 683.205 L 559.912, 680.044 z "/>
<path style="fill:rgb(255, 0, 0);fill-opacity:0;fill-rule:evenodd;stroke:rgb(0, 142, 255);stroke-width:1;" d="M 387.618, 321.405 L 390.955, 316.487 L 395.697, 310.165 L 407.113, 294.358 L 421.515, 274.687 L 425.554, 269.243 L 451.196, 279.956 L 413.26, 332.119 L 387.618, 321.405 z "/>
<path style="fill:rgb(0, 255, 0);fill-opacity:0;fill-rule:evenodd;stroke:rgb(0, 142, 255);stroke-width:1;" d="M 468.233, 232.887 L 477.366, 220.417 L 481.054, 221.998 L 483.513, 220.241 L 499.144, 198.814 L 512.667, 204.435 L 503.535, 217.08 L 512.316, 220.768 L 521.449, 208.123 L 535.499, 214.094 L 519.868, 235.521 L 519.693, 238.332 L 522.678, 239.561 L 513.546, 252.031 L 495.982, 244.479 L 487.025, 240.79 L 468.233, 232.887 z "/>
<path style="fill:rgb(0, 0, 255);fill-opacity:0;fill-rule:evenodd;stroke:rgb(0, 142, 255);stroke-width:1;" d="M 882.547, 263.447 L 887.113, 256.773 L 891.855, 249.923 L 904.325, 231.658 L 940.505, 246.586 L 946.652, 249.221 L 924.171, 280.659 L 882.547, 263.447 z "/>
<path style="fill:rgb(255, 255, 0);fill-opacity:0;fill-rule:evenodd;stroke:rgb(0, 142, 255);stroke-width:1;" d="M 389.726, 754.863 L 400.966, 739.407 L 423.622, 708.672 L 433.458, 695.499 L 447.333, 701.471 L 446.806, 706.564 L 445.928, 713.765 L 444.171, 720.966 L 441.361, 727.64 L 436.268, 736.07 L 428.891, 744.852 L 423.447, 750.121 L 418.002, 754.336 L 412.206, 758.024 L 405.357, 761.537 L 389.726, 754.863 z "/>
<path style="fill:rgb(255, 0, 0);fill-opacity:0;fill-rule:evenodd;stroke:rgb(0, 142, 255);stroke-width:1;" d="M 362.854, 475.785 L 393.589, 433.282 L 409.396, 439.956 L 421.515, 445.049 L 423.271, 445.752 L 392.36, 488.255 L 362.854, 475.785 z "/>
<path style="fill:rgb(0, 255, 0);fill-opacity:0;fill-rule:evenodd;stroke:rgb(0, 142, 255);stroke-width:1;" d="M 357.409, 556.224 L 384.632, 518.99 L 420.285, 533.919 L 415.895, 539.89 L 410.801, 546.915 L 404.303, 544.105 L 396.4, 554.819 L 402.898, 557.629 L 396.575, 566.411 L 393.063, 571.153 L 357.409, 556.224 z "/>
<path style="fill:rgb(0, 0, 255);fill-opacity:0;fill-rule:evenodd;stroke:rgb(0, 142, 255);stroke-width:1;" d="M 802.108, 312.975 L 815.104, 295.06 L 848.299, 308.935 L 857.256, 312.799 L 884.303, 324.04 L 871.131, 341.954 L 844.259, 330.714 L 835.126, 326.85 L 802.108, 312.975 z "/>
<path style="fill:rgb(255, 255, 0);fill-opacity:0;fill-rule:evenodd;stroke:rgb(0, 142, 255);stroke-width:1;" d="M 122.766, 585.379 L 141.207, 560.088 L 178.266, 575.719 L 174.226, 581.339 L 171.416, 580.11 L 166.674, 586.432 L 172.119, 588.716 L 173.875, 586.257 L 176.861, 587.486 L 180.198, 582.744 L 191.087, 587.311 L 175.631, 607.859 L 141.207, 593.106 L 122.766, 585.379 z "/>
<path style="fill:rgb(255, 0, 0);fill-opacity:0;fill-rule:evenodd;stroke:rgb(0, 142, 255);stroke-width:1;" d="M 468.233, 232.887 L 477.366, 220.417 L 481.054, 221.998 L 483.513, 220.241 L 499.144, 198.814 L 512.667, 204.435 L 503.535, 217.08 L 512.316, 220.768 L 521.449, 208.123 L 535.499, 214.094 L 519.868, 235.521 L 519.693, 238.332 L 522.678, 239.561 L 513.546, 252.031 L 495.982, 244.479 L 505.642, 231.306 L 496.685, 227.618 L 487.025, 240.79 L 468.233, 232.887 z "/>
<path style="fill:rgb(0, 255, 0);fill-opacity:0;fill-rule:evenodd;stroke:rgb(0, 142, 255);stroke-width:1;" d="M 825.818, 240.79 L 845.137, 207.069 L 852.689, 210.231 L 883.952, 223.052 L 871.131, 241.668 L 866.213, 239.737 L 863.052, 244.303 L 867.969, 246.235 L 866.389, 248.518 L 861.471, 255.543 L 825.818, 240.79 z "/>
<path style="fill:rgb(0, 0, 255);fill-opacity:0;fill-rule:evenodd;stroke:rgb(0, 142, 255);stroke-width:1;" d="M 162.459, 371.811 L 164.391, 369.177 L 167.025, 365.664 L 197.058, 324.742 L 199.517, 321.229 L 201.625, 318.419 L 223.052, 327.552 L 220.768, 330.714 L 187.574, 376.026 L 184.061, 380.944 L 162.459, 371.811 z "/>
<path style="fill:rgb(255, 255, 0);fill-opacity:0;fill-rule:evenodd;stroke:rgb(0, 142, 255);stroke-width:1;" d="M 176.509, 684.435 L 178.266, 681.976 L 206.542, 643.161 L 222.173, 649.835 L 223.227, 648.255 L 224.984, 649.484 L 224.281, 650.362 L 226.564, 654.05 L 233.238, 656.861 L 204.61, 696.202 L 176.509, 684.435 z "/>
<path style="fill:rgb(255, 0, 0);fill-opacity:0;fill-rule:evenodd;stroke:rgb(0, 142, 255);stroke-width:1;" d="M 337.563, 712.536 L 360.22, 681.8 L 396.4, 697.08 L 373.568, 727.816 L 337.563, 712.536 z "/>
<path style="fill:rgb(0, 255, 0);fill-opacity:0;fill-rule:evenodd;stroke:rgb(0, 142, 255);stroke-width:1;" d="M 260.461, 569.396 L 274.336, 550.428 L 291.372, 557.453 L 313.853, 566.937 L 330.714, 574.138 L 316.839, 593.106 L 288.738, 581.515 L 260.461, 569.396 z "/>
<path style="fill:rgb(0, 0, 255);fill-opacity:0;fill-rule:evenodd;stroke:rgb(0, 142, 255);stroke-width:1;" d="M 752.404, 715.521 L 775.763, 683.381 L 803.513, 695.148 L 802.459, 696.729 L 773.304, 736.597 L 761.01, 729.221 L 754.687, 725.532 L 759.78, 718.683 L 752.404, 715.521 z "/>
<path style="fill:rgb(255, 255, 0);fill-opacity:0;fill-rule:evenodd;stroke:rgb(0, 142, 255);stroke-width:1;" d="M 288.386, 731.328 L 293.655, 723.425 L 302.788, 727.289 L 321.054, 735.016 L 357.058, 750.296 L 375.148, 758.024 L 384.457, 761.888 L 433.458, 783.842 L 428.891, 789.813 L 288.386, 731.328 z "/>
<path style="fill:rgb(255, 0, 0);fill-opacity:0;fill-rule:evenodd;stroke:rgb(0, 142, 255);stroke-width:1;" d="M 133.304, 172.645 L 141.383, 161.581 L 150.165, 165.269 L 160.878, 150.867 L 152.272, 147.179 L 160.527, 135.939 L 193.897, 149.989 L 185.642, 161.405 L 177.036, 157.717 L 166.323, 172.119 L 174.929, 175.807 L 166.85, 186.872 L 133.304, 172.645 z "/>
<path style="fill:rgb(0, 255, 0);fill-opacity:0;fill-rule:evenodd;stroke:rgb(0, 142, 255);stroke-width:1;" d="M 456.641, 449.967 L 481.581, 415.719 L 493.172, 420.637 L 489.484, 425.73 L 509.506, 434.16 L 488.255, 463.315 L 456.641, 449.967 z "/>
<path style="fill:rgb(0, 0, 255);fill-opacity:0;fill-rule:evenodd;stroke:rgb(0, 142, 255);stroke-width:1;" d="M 100.11, 158.595 L 108.189, 147.53 L 116.97, 151.218 L 127.684, 136.817 L 118.902, 132.953 L 119.956, 131.548 L 127.157, 121.712 L 160.527, 135.939 L 152.272, 147.179 L 143.666, 143.666 L 133.128, 158.068 L 141.383, 161.581 L 133.304, 172.645 L 100.11, 158.595 z "/>
<path style="fill:rgb(255, 255, 0);fill-opacity:0;fill-rule:evenodd;stroke:rgb(0, 142, 255);stroke-width:1;" d="M 533.392, 84.8299 L 563.074, 45.1372 L 572.031, 48.8255 L 583.095, 53.3919 L 566.937, 75.5214 L 582.569, 82.1954 L 575.895, 91.3282 L 560.615, 84.8299 L 551.658, 96.9484 L 545.51, 94.4896 L 548.145, 91.1526 L 539.012, 87.1131 L 533.392, 84.8299 z "/>
<path style="fill:rgb(255, 0, 0);fill-opacity:0;fill-rule:evenodd;stroke:rgb(0, 142, 255);stroke-width:1;" d="M 199.868, 200.746 L 207.42, 190.209 L 213.919, 193.019 L 216.729, 192.667 L 218.134, 190.56 L 226.74, 178.968 L 226.213, 176.334 L 219.715, 173.524 L 226.74, 164.04 L 259.934, 178.09 L 255.368, 184.413 L 252.909, 187.75 L 248.518, 185.818 L 243.952, 186.169 L 236.575, 196.18 L 233.765, 199.868 L 236.224, 202.503 L 240.615, 204.435 L 236.4, 210.055 L 233.063, 214.797 L 199.868, 200.746 z "/>
<path style="fill:rgb(0, 255, 0);fill-opacity:0;fill-rule:evenodd;stroke:rgb(0, 142, 255);stroke-width:1;" d="M 209.001, 697.431 L 237.98, 657.212 L 261.866, 667.047 L 232.711, 707.267 L 209.001, 697.431 z "/>
<path style="fill:rgb(0, 0, 255);fill-opacity:0;fill-rule:evenodd;stroke:rgb(0, 142, 255);stroke-width:1;" d="M 639.824, 160.878 L 670.209, 119.078 L 692.338, 128.386 L 675.126, 152.272 L 671.087, 157.717 L 667.047, 163.161 L 663.886, 167.201 L 661.778, 170.187 L 639.824, 160.878 z "/>
<path style="fill:rgb(255, 255, 0);fill-opacity:0;fill-rule:evenodd;stroke:rgb(0, 142, 255);stroke-width:1;" d="M 680.922, 522.503 L 693.392, 505.291 L 744.325, 526.367 L 731.855, 543.754 L 680.922, 522.503 z "/>
<path style="fill:rgb(255, 0, 0);fill-opacity:0;fill-rule:evenodd;stroke:rgb(0, 142, 255);stroke-width:1;" d="M 164.391, 369.177 L 164.918, 368.474 L 167.025, 365.664 L 197.058, 324.742 L 198.814, 322.283 L 199.517, 321.229 L 217.431, 328.782 L 182.305, 376.553 L 164.391, 369.177 z "/>
<path style="fill:rgb(0, 255, 0);fill-opacity:0;fill-rule:evenodd;stroke:rgb(0, 142, 255);stroke-width:1;" d="M 809.835, 89.2206 L 833.546, 57.0801 L 856.378, 64.9835 L 838.99, 96.2459 L 840.395, 96.9484 L 840.922, 97.4753 L 841.625, 98.5291 L 841.976, 99.9341 L 841.8, 101.164 L 841.098, 102.393 L 840.571, 102.92 L 839.166, 103.622 L 837.761, 104.149 L 836.004, 104.325 L 834.248, 104.149 L 832.843, 103.447 L 831.614, 102.569 L 830.911, 101.339 L 830.56, 100.11 L 831.087, 98.1778 L 809.835, 89.2206 z "/>
<path style="fill:rgb(0, 0, 255);fill-opacity:0;fill-rule:evenodd;stroke:rgb(0, 142, 255);stroke-width:1;" d="M 193.019, 547.442 L 217.783, 514.072 L 220.944, 515.477 L 233.238, 498.968 L 229.901, 497.563 L 254.49, 464.369 L 265.203, 468.935 L 203.732, 552.009 L 193.019, 547.442 z "/>
<path style="fill:rgb(255, 255, 0);fill-opacity:0;fill-rule:evenodd;stroke:rgb(0, 142, 255);stroke-width:1;" d="M 657.914, 744.501 L 673.546, 723.074 L 710.428, 738.705 L 694.797, 759.956 L 657.914, 744.501 z "/>
<path style="fill:rgb(255, 0, 0);fill-opacity:0;fill-rule:evenodd;stroke:rgb(0, 142, 255);stroke-width:1;" d="M 110.823, 327.377 L 125.049, 308.233 L 130.67, 307.003 L 155.082, 317.19 L 156.663, 322.283 L 142.964, 341.076 L 137.168, 342.305 L 112.228, 331.767 L 110.823, 327.377 z "/>
<path style="fill:rgb(0, 255, 0);fill-opacity:0;fill-rule:evenodd;stroke:rgb(0, 142, 255);stroke-width:1;" d="M 392.36, 572.031 L 393.063, 571.153 L 396.575, 566.411 L 399.561, 567.64 L 418.88, 541.12 L 415.895, 539.89 L 420.285, 533.919 L 442.591, 543.403 L 438.375, 549.374 L 433.458, 547.267 L 430.296, 551.658 L 435.214, 553.765 L 414.841, 581.515 L 392.36, 572.031 z "/>
<path style="fill:rgb(0, 0, 255);fill-opacity:0;fill-rule:evenodd;stroke:rgb(0, 142, 255);stroke-width:1;" d="M 432.404, 557.278 L 435.214, 553.765 L 438.375, 549.374 L 442.591, 543.403 L 475.082, 557.102 L 533.743, 581.866 L 525.84, 597.146 L 526.367, 593.458 L 526.367, 590.999 L 525.313, 589.067 L 523.732, 587.311 L 510.735, 582.042 L 497.212, 576.422 L 455.236, 558.683 L 454.533, 559.561 L 444.347, 555.17 L 442.942, 554.819 L 440.834, 554.643 L 438.551, 554.643 L 436.443, 555.17 L 434.512, 556.048 L 432.404, 557.278 z "/>
<path style="fill:rgb(255, 255, 0);fill-opacity:0;fill-rule:evenodd;stroke:rgb(0, 142, 255);stroke-width:1;" d="M 451.899, 653.348 L 454.885, 653.524 L 456.992, 653.348 L 459.1, 652.821 L 461.032, 651.943 L 462.613, 650.889 L 463.491, 650.011 L 469.111, 641.932 L 474.731, 644.04 L 502.656, 603.644 L 495.631, 600.659 L 498.266, 597.146 L 498.793, 595.917 L 498.968, 594.512 L 498.793, 592.58 L 498.266, 590.999 L 497.212, 589.594 L 495.456, 588.013 L 490.538, 586.081 L 497.212, 576.422 L 510.735, 582.042 L 513.37, 583.974 L 515.126, 586.081 L 516.356, 588.891 L 516.707, 591.701 L 516.707, 594.863 L 514.951, 598.375 L 479.473, 648.079 L 474.204, 652.821 L 469.111, 654.753 L 463.139, 655.982 L 458.222, 655.456 L 451.899, 653.348 z "/>
<path style="fill:rgb(255, 0, 0);fill-opacity:0;fill-rule:evenodd;stroke:rgb(0, 142, 255);stroke-width:1;" d="M 232.184, 216.026 L 233.063, 214.797 L 236.4, 210.055 L 239.21, 211.284 L 247.816, 199.517 L 258.178, 185.467 L 255.368, 184.413 L 259.934, 178.09 L 282.591, 187.75 L 278.024, 193.897 L 275.214, 192.843 L 256.246, 218.485 L 259.232, 219.715 L 254.841, 225.686 L 232.184, 216.026 z "/>
<path style="fill:rgb(0, 255, 0);fill-opacity:0;fill-rule:evenodd;stroke:rgb(0, 142, 255);stroke-width:1;" d="M 785.95, 625.774 L 820.373, 578.353 L 825.115, 571.855 L 840.044, 578.002 L 909.418, 606.981 L 905.554, 612.25 L 826.872, 579.407 L 791.57, 628.057 L 785.95, 625.774 z "/>
<path style="fill:rgb(0, 0, 255);fill-opacity:0;fill-rule:evenodd;stroke:rgb(0, 142, 255);stroke-width:1;" d="M 794.731, 646.498 L 798.595, 641.229 L 877.278, 673.897 L 912.58, 625.247 L 918.2, 627.53 L 879.034, 681.625 L 853.919, 671.087 L 794.731, 646.498 z "/>
<path style="fill:rgb(255, 255, 0);fill-opacity:0;fill-rule:evenodd;stroke:rgb(0, 142, 255);stroke-width:1;" d="M 282.415, 524.435 L 287.157, 517.936 L 289.616, 518.814 L 303.842, 499.319 L 301.559, 498.266 L 309.638, 487.201 L 331.767, 496.509 L 323.688, 507.574 L 320.351, 506.169 L 306.125, 525.84 L 309.286, 527.245 L 304.544, 533.743 L 282.415, 524.435 z "/>
<path style="fill:rgb(255, 0, 0);fill-opacity:0;fill-rule:evenodd;stroke:rgb(0, 142, 255);stroke-width:1;" d="M 781.207, 310.516 L 798.419, 284.347 L 850.231, 306.301 L 848.299, 308.935 L 815.104, 295.06 L 802.108, 312.975 L 835.126, 326.85 L 831.438, 331.767 L 781.207, 310.516 z "/>
<path style="fill:rgb(0, 255, 0);fill-opacity:0;fill-rule:evenodd;stroke:rgb(0, 142, 255);stroke-width:1;" d="M 653.524, 283.293 L 659.846, 274.687 L 673.546, 280.483 L 676.883, 281.888 L 681.098, 276.092 L 677.761, 274.687 L 686.191, 263.447 L 689.528, 264.676 L 709.726, 273.458 L 701.295, 284.874 L 690.757, 299.1 L 684.083, 296.29 L 653.524, 283.293 z "/>
<path style="fill:rgb(0, 0, 255);fill-opacity:0;fill-rule:evenodd;stroke:rgb(0, 142, 255);stroke-width:1;" d="M 188.452, 296.29 L 190.56, 293.48 L 245.357, 316.663 L 226.564, 342.305 L 221.998, 340.198 L 221.998, 336.334 L 221.471, 332.997 L 220.768, 330.714 L 223.052, 327.552 L 201.625, 318.419 L 206.015, 312.448 L 203.908, 305.774 L 191.965, 300.681 L 188.452, 296.29 z "/>
<path style="fill:rgb(255, 255, 0);fill-opacity:0;fill-rule:evenodd;stroke:rgb(0, 142, 255);stroke-width:1;" d="M 156.312, 98.0022 L 185.115, 58.4852 L 195.477, 62.876 L 186.169, 75.697 L 191.262, 77.8046 L 189.506, 80.2634 L 195.302, 82.7223 L 177.563, 106.959 L 165.971, 102.042 L 164.215, 104.501 L 158.068, 102.042 L 159.824, 99.4072 L 156.312, 98.0022 z "/>
<path style="fill:rgb(255, 0, 0);fill-opacity:0;fill-rule:evenodd;stroke:rgb(0, 142, 255);stroke-width:1;" d="M 128.386, 376.729 L 130.143, 374.27 L 137.87, 374.446 L 148.935, 379.539 L 157.892, 377.783 L 162.459, 371.811 L 184.061, 380.944 L 187.574, 376.026 L 191.087, 374.973 L 194.424, 373.919 L 198.814, 371.811 L 203.557, 373.743 L 184.061, 400.263 L 128.386, 376.729 z "/>
<path style="fill:rgb(0, 255, 0);fill-opacity:0;fill-rule:evenodd;stroke:rgb(0, 142, 255);stroke-width:1;" d="M 433.458, 783.842 L 438.551, 777.344 L 441.888, 778.924 L 466.652, 710.955 L 463.139, 709.199 L 466.652, 703.578 L 478.419, 708.672 L 473.326, 715.346 L 475.434, 715.873 L 451.196, 783.315 L 448.562, 782.086 L 443.82, 788.408 L 433.458, 783.842 z "/>
<path style="fill:rgb(0, 0, 255);fill-opacity:0;fill-rule:evenodd;stroke:rgb(0, 142, 255);stroke-width:1;" d="M 294.533, 119.254 L 296.817, 116.092 L 325.445, 77.2777 L 341.778, 84.303 L 324.742, 107.311 L 315.082, 120.483 L 310.867, 126.103 L 294.533, 119.254 z "/>
<path style="fill:rgb(255, 255, 0);fill-opacity:0;fill-rule:evenodd;stroke:rgb(0, 142, 255);stroke-width:1;" d="M 869.726, 217.431 L 878.683, 204.962 L 933.831, 227.442 L 924.874, 240.088 L 904.325, 231.658 L 883.952, 223.052 L 869.726, 217.431 z "/>
<path style="fill:rgb(255, 0, 0);fill-opacity:0;fill-rule:evenodd;stroke:rgb(0, 142, 255);stroke-width:1;" d="M 713.765, 768.035 L 729.396, 746.784 L 737.3, 735.895 L 744.676, 726.059 L 747.838, 721.493 L 754.687, 725.532 L 761.01, 729.221 L 728.694, 773.48 L 728.167, 774.182 L 713.765, 768.035 z "/>
<path style="fill:rgb(0, 255, 0);fill-opacity:0;fill-rule:evenodd;stroke:rgb(0, 142, 255);stroke-width:1;" d="M 344.588, 711.131 L 362.151, 687.069 L 389.374, 698.661 L 371.636, 722.547 L 344.588, 711.131 z "/>
<path style="fill:rgb(0, 0, 255);fill-opacity:0;fill-rule:evenodd;stroke:rgb(0, 142, 255);stroke-width:1;" d="M 66.3886, 274.336 L 85.0055, 248.869 L 140.329, 272.228 L 138.222, 275.038 L 134.358, 274.863 L 129.967, 275.038 L 116.97, 268.891 L 110.823, 270.472 L 106.959, 275.565 L 86.2349, 266.608 L 82.7223, 271.35 L 76.7508, 273.106 L 70.2525, 275.917 L 66.3886, 274.336 z "/>
<path style="fill:rgb(255, 255, 0);fill-opacity:0;fill-rule:evenodd;stroke:rgb(0, 142, 255);stroke-width:1;" d="M 552.184, 124.171 L 575.895, 91.3282 L 582.569, 82.1954 L 597.673, 88.5181 L 567.113, 130.318 L 552.184, 124.171 z "/>
<path style="fill:rgb(255, 0, 0);fill-opacity:0;fill-rule:evenodd;stroke:rgb(0, 142, 255);stroke-width:1;" d="M 673.546, 723.074 L 681.449, 712.184 L 737.3, 735.895 L 729.396, 746.784 L 720.439, 742.92 L 710.428, 738.705 L 673.546, 723.074 z "/>
<path style="fill:rgb(0, 255, 0);fill-opacity:0;fill-rule:evenodd;stroke:rgb(0, 142, 255);stroke-width:1;" d="M 280.132, 71.3063 L 294.885, 51.2843 L 296.114, 49.7036 L 323.688, 61.4709 L 317.366, 70.0768 L 307.881, 83.0735 L 280.132, 71.3063 z "/>
<path style="fill:rgb(0, 0, 255);fill-opacity:0;fill-rule:evenodd;stroke:rgb(0, 142, 255);stroke-width:1;" d="M 140.329, 758.902 L 171.416, 716.4 L 185.467, 722.371 L 163.337, 752.404 L 154.204, 764.874 L 140.329, 758.902 z "/>
<path style="fill:rgb(255, 255, 0);fill-opacity:0;fill-rule:evenodd;stroke:rgb(0, 142, 255);stroke-width:1;" d="M 650.011, 514.248 L 664.94, 493.524 L 693.392, 505.291 L 680.922, 522.503 L 678.463, 526.015 L 650.011, 514.248 z "/>
<path style="fill:rgb(255, 0, 0);fill-opacity:0;fill-rule:evenodd;stroke:rgb(0, 142, 255);stroke-width:1;" d="M 286.63, 111.877 L 299.1, 94.8408 L 307.881, 83.0735 L 317.366, 70.0768 L 326.85, 74.1164 L 333.699, 77.1021 L 343.71, 81.3172 L 347.75, 83.0735 L 328.606, 109.067 L 324.742, 107.311 L 341.778, 84.303 L 325.445, 77.2777 L 296.817, 116.092 L 287.508, 112.228 L 286.63, 111.877 z "/>
<path style="fill:rgb(0, 255, 0);fill-opacity:0;fill-rule:evenodd;stroke:rgb(0, 142, 255);stroke-width:1;" d="M 680.22, 313.677 L 681.449, 311.745 L 690.757, 299.1 L 701.295, 284.874 L 709.374, 288.035 L 731.328, 258.353 L 734.665, 259.759 L 698.31, 317.892 L 694.094, 319.122 L 680.22, 313.677 z "/>
<path style="fill:rgb(0, 0, 255);fill-opacity:0;fill-rule:evenodd;stroke:rgb(0, 142, 255);stroke-width:1;" d="M 295.939, 447.684 L 326.674, 405.181 L 340.198, 410.977 L 309.286, 453.304 L 295.939, 447.684 z "/>
<path style="fill:rgb(255, 255, 0);fill-opacity:0;fill-rule:evenodd;stroke:rgb(0, 142, 255);stroke-width:1;" d="M 319.297, 704.808 L 341.954, 674.072 L 360.22, 681.8 L 337.563, 712.536 L 319.297, 704.808 z "/>
<path style="fill:rgb(255, 0, 0);fill-opacity:0;fill-rule:evenodd;stroke:rgb(0, 142, 255);stroke-width:1;" d="M 84.4786, 153.677 L 89.7475, 146.476 L 88.6937, 144.193 L 90.8013, 141.559 L 93.0845, 141.032 L 93.0845, 140.154 L 103.271, 126.279 L 102.393, 124.171 L 109.594, 114.336 L 127.157, 121.712 L 119.956, 131.548 L 117.146, 132.075 L 106.959, 145.95 L 104.676, 145.774 L 106.432, 148.057 L 104.325, 150.867 L 101.69, 151.57 L 96.4215, 158.771 L 84.4786, 153.677 z "/>
<path style="fill:rgb(0, 255, 0);fill-opacity:0;fill-rule:evenodd;stroke:rgb(0, 142, 255);stroke-width:1;" d="M 360.22, 681.8 L 371.636, 666.345 L 407.64, 681.625 L 396.4, 697.08 L 360.22, 681.8 z "/>
<path style="fill:rgb(0, 0, 255);fill-opacity:0;fill-rule:evenodd;stroke:rgb(0, 142, 255);stroke-width:1;" d="M 326.147, 727.991 L 337.563, 712.536 L 373.568, 727.816 L 362.327, 743.271 L 326.147, 727.991 z "/>
<path style="fill:rgb(255, 255, 0);fill-opacity:0;fill-rule:evenodd;stroke:rgb(0, 142, 255);stroke-width:1;" d="M 373.568, 727.816 L 396.4, 697.08 L 414.314, 704.808 L 391.658, 735.543 L 373.568, 727.816 z "/>
<path style="fill:rgb(255, 0, 0);fill-opacity:0;fill-rule:evenodd;stroke:rgb(0, 142, 255);stroke-width:1;" d="M 681.449, 712.184 L 688.65, 702.349 L 744.676, 726.059 L 737.3, 735.895 L 681.449, 712.184 z "/>
<path style="fill:rgb(0, 255, 0);fill-opacity:0;fill-rule:evenodd;stroke:rgb(0, 142, 255);stroke-width:1;" d="M 67.2667, 146.476 L 72.5357, 139.276 L 72.0088, 137.168 L 74.1164, 134.358 L 76.2239, 133.831 L 76.0483, 133.128 L 86.4105, 119.078 L 85.708, 117.322 L 93.0845, 107.311 L 109.594, 114.336 L 102.393, 124.171 L 100.285, 124.874 L 90.0988, 138.924 L 88.5181, 138.924 L 89.9232, 141.207 L 87.8156, 143.842 L 84.4786, 144.193 L 79.2097, 151.57 L 67.2667, 146.476 z "/>
<path style="fill:rgb(0, 0, 255);fill-opacity:0;fill-rule:evenodd;stroke:rgb(0, 142, 255);stroke-width:1;" d="M 167.025, 365.664 L 197.058, 324.742 L 210.406, 330.187 L 180.373, 371.284 L 167.025, 365.664 z "/>
<path style="fill:rgb(255, 255, 0);fill-opacity:0;fill-rule:evenodd;stroke:rgb(0, 142, 255);stroke-width:1;" d="M 497.563, 189.506 L 512.316, 169.133 L 524.962, 152.097 L 526.894, 149.286 L 539.539, 154.555 L 514.775, 188.628 L 510.209, 194.775 L 497.563, 189.506 z "/>
<path style="fill:rgb(255, 0, 0);fill-opacity:0;fill-rule:evenodd;stroke:rgb(0, 142, 255);stroke-width:1;" d="M 76.2239, 469.813 L 82.8979, 460.505 L 105.906, 470.34 L 127.508, 479.297 L 118.902, 491.24 L 85.3568, 477.19 L 86.5862, 475.434 L 80.2634, 472.799 L 80.966, 471.745 L 76.2239, 469.813 z "/>
<path style="fill:rgb(0, 255, 0);fill-opacity:0;fill-rule:evenodd;stroke:rgb(0, 142, 255);stroke-width:1;" d="M 449.791, 626.828 L 463.491, 606.63 L 464.193, 607.157 L 484.918, 615.939 L 493.348, 603.996 L 495.982, 605.049 L 473.853, 636.839 L 472.975, 636.312 L 452.25, 627.706 L 449.791, 626.828 z "/>
<path style="fill:rgb(0, 0, 255);fill-opacity:0;fill-rule:evenodd;stroke:rgb(0, 142, 255);stroke-width:1;" d="M 455.587, 227.442 L 478.244, 196.531 L 479.122, 197.058 L 485.971, 187.574 L 497.739, 192.492 L 477.366, 220.417 L 468.233, 232.887 L 455.587, 227.442 z "/>
<path style="fill:rgb(255, 255, 0);fill-opacity:0;fill-rule:evenodd;stroke:rgb(0, 142, 255);stroke-width:1;" d="M 464.193, 607.157 L 474.731, 592.053 L 481.229, 582.393 L 490.538, 586.081 L 495.456, 588.013 L 497.212, 589.594 L 498.266, 590.999 L 498.793, 592.58 L 498.968, 594.512 L 498.793, 595.917 L 498.266, 597.146 L 495.631, 600.659 L 493.348, 603.996 L 484.918, 615.939 L 464.193, 607.157 z "/>
<path style="fill:rgb(255, 0, 0);fill-opacity:0;fill-rule:evenodd;stroke:rgb(0, 142, 255);stroke-width:1;" d="M 177.739, 254.138 L 195.302, 230.077 L 208.474, 212.162 L 220.241, 217.256 L 189.506, 259.056 L 177.739, 254.138 z "/>
<path style="fill:rgb(0, 255, 0);fill-opacity:0;fill-rule:evenodd;stroke:rgb(0, 142, 255);stroke-width:1;" d="M 784.018, 742.744 L 814.226, 701.647 L 825.818, 706.564 L 794.731, 749.067 L 784.018, 742.744 z "/>
<path style="fill:rgb(0, 0, 255);fill-opacity:0;fill-rule:evenodd;stroke:rgb(0, 142, 255);stroke-width:1;" d="M 406.937, 192.843 L 414.665, 182.13 L 453.128, 198.288 L 460.329, 201.449 L 452.426, 212.162 L 441.361, 207.42 L 406.937, 192.843 z "/>
<path style="fill:rgb(255, 255, 0);fill-opacity:0;fill-rule:evenodd;stroke:rgb(0, 142, 255);stroke-width:1;" d="M 483.688, 471.745 L 514.424, 429.418 L 525.84, 434.336 L 519.868, 442.591 L 505.993, 461.559 L 499.846, 469.989 L 495.104, 476.487 L 483.688, 471.745 z "/>
<path style="fill:rgb(255, 0, 0);fill-opacity:0;fill-rule:evenodd;stroke:rgb(0, 142, 255);stroke-width:1;" d="M 618.046, 648.606 L 629.989, 632.097 L 658.617, 644.215 L 646.498, 660.724 L 618.046, 648.606 z "/>
<path style="fill:rgb(0, 255, 0);fill-opacity:0;fill-rule:evenodd;stroke:rgb(0, 142, 255);stroke-width:1;" d="M 773.304, 736.597 L 802.459, 696.729 L 814.226, 701.647 L 784.018, 742.744 L 773.304, 736.597 z "/>
<path style="fill:rgb(0, 0, 255);fill-opacity:0;fill-rule:evenodd;stroke:rgb(0, 142, 255);stroke-width:1;" d="M 422.217, 171.767 L 429.769, 161.405 L 446.806, 168.606 L 449.44, 169.66 L 475.082, 180.549 L 467.53, 190.911 L 460.681, 187.925 L 422.217, 171.767 z "/>
<path style="fill:rgb(255, 255, 0);fill-opacity:0;fill-rule:evenodd;stroke:rgb(0, 142, 255);stroke-width:1;" d="M 245.005, 135.763 L 273.985, 95.8946 L 285.752, 100.812 L 271.526, 120.307 L 256.773, 140.681 L 245.005, 135.763 z "/>
<path style="fill:rgb(255, 0, 0);fill-opacity:0;fill-rule:evenodd;stroke:rgb(0, 142, 255);stroke-width:1;" d="M 345.291, 392.711 L 347.574, 392.536 L 361.098, 373.919 L 360.922, 372.338 L 363.557, 372.162 L 374.797, 376.553 L 376.026, 378.661 L 382.173, 381.295 L 382.525, 382.7 L 382.7, 383.578 L 369.352, 401.844 L 366.542, 402.195 L 345.291, 392.711 z "/>
<path style="fill:rgb(0, 255, 0);fill-opacity:0;fill-rule:evenodd;stroke:rgb(0, 142, 255);stroke-width:1;" d="M 257.475, 408.342 L 260.461, 404.127 L 259.934, 401.142 L 266.081, 392.887 L 268.364, 392.536 L 268.716, 393.589 L 293.655, 403.952 L 296.465, 403.425 L 284.874, 420.11 L 282.064, 420.11 L 258.002, 410.099 L 257.651, 409.221 L 257.475, 408.342 z "/>
<path style="fill:rgb(0, 0, 255);fill-opacity:0;fill-rule:evenodd;stroke:rgb(0, 142, 255);stroke-width:1;" d="M 433.633, 218.134 L 441.361, 207.42 L 452.426, 212.162 L 460.329, 201.449 L 467.179, 191.965 L 478.244, 196.531 L 455.587, 227.442 L 433.633, 218.134 z "/>
<path style="fill:rgb(255, 255, 0);fill-opacity:0;fill-rule:evenodd;stroke:rgb(0, 142, 255);stroke-width:1;" d="M 207.069, 487.903 L 231.658, 454.709 L 246.937, 461.207 L 239.21, 471.57 L 236.926, 470.516 L 220.066, 493.348 L 207.069, 487.903 z "/>
<path style="fill:rgb(255, 0, 0);fill-opacity:0;fill-rule:evenodd;stroke:rgb(0, 142, 255);stroke-width:1;" d="M 352.141, 471.218 L 383.052, 428.891 L 393.589, 433.282 L 362.854, 475.785 L 352.141, 471.218 z "/>
<path style="fill:rgb(0, 255, 0);fill-opacity:0;fill-rule:evenodd;stroke:rgb(0, 142, 255);stroke-width:1;" d="M 545.686, 484.04 L 553.589, 473.15 L 594.16, 490.187 L 586.959, 501.427 L 545.686, 484.04 z "/>
<path style="fill:rgb(0, 0, 255);fill-opacity:0;fill-rule:evenodd;stroke:rgb(0, 142, 255);stroke-width:1;" d="M 677.585, 160.527 L 681.625, 155.082 L 762.415, 188.277 L 758.551, 193.721 L 751.701, 190.911 L 677.585, 160.527 z "/>
<path style="fill:rgb(255, 255, 0);fill-opacity:0;fill-rule:evenodd;stroke:rgb(0, 142, 255);stroke-width:1;" d="M 188.277, 111.526 L 217.08, 71.8332 L 228.321, 76.5752 L 222.876, 84.1273 L 199.517, 116.268 L 188.277, 111.526 z "/>
<path style="fill:rgb(255, 0, 0);fill-opacity:0;fill-rule:evenodd;stroke:rgb(0, 142, 255);stroke-width:1;" d="M 700.593, 128.913 L 704.457, 123.469 L 778.573, 154.204 L 785.071, 156.839 L 781.207, 162.283 L 700.593, 128.913 z "/>
<path style="fill:rgb(0, 255, 0);fill-opacity:0;fill-rule:evenodd;stroke:rgb(0, 142, 255);stroke-width:1;" d="M 578.353, 223.403 L 592.58, 203.732 L 603.82, 208.474 L 614.709, 213.216 L 600.483, 232.887 L 578.353, 223.403 z "/>
<path style="fill:rgb(0, 0, 255);fill-opacity:0;fill-rule:evenodd;stroke:rgb(0, 142, 255);stroke-width:1;" d="M 199.517, 116.268 L 222.876, 84.1273 L 224.632, 84.8299 L 230.077, 77.2777 L 238.156, 80.7903 L 232.711, 88.1668 L 234.468, 89.045 L 233.063, 90.9769 L 211.109, 121.186 L 199.517, 116.268 z "/>
<path style="fill:rgb(255, 255, 0);fill-opacity:0;fill-rule:evenodd;stroke:rgb(0, 142, 255);stroke-width:1;" d="M 194.951, 504.413 L 207.069, 487.903 L 220.066, 493.348 L 229.901, 497.563 L 233.238, 498.968 L 220.944, 515.477 L 217.783, 514.072 L 194.951, 504.413 z "/>
<path style="fill:rgb(255, 0, 0);fill-opacity:0;fill-rule:evenodd;stroke:rgb(0, 142, 255);stroke-width:1;" d="M 182.656, 620.154 L 183.183, 619.451 L 206.367, 587.486 L 219.188, 592.931 L 193.721, 627.881 L 182.656, 620.154 z "/>
<path style="fill:rgb(0, 255, 0);fill-opacity:0;fill-rule:evenodd;stroke:rgb(0, 142, 255);stroke-width:1;" d="M 894.841, 220.066 L 913.809, 193.721 L 930.318, 200.395 L 911.35, 226.74 L 894.841, 220.066 z "/>
<path style="fill:rgb(0, 0, 255);fill-opacity:0;fill-rule:evenodd;stroke:rgb(0, 142, 255);stroke-width:1;" d="M 176.861, 758.2 L 198.99, 728.167 L 213.216, 734.314 L 191.262, 764.171 L 176.861, 758.2 z "/>
<path style="fill:rgb(255, 255, 0);fill-opacity:0;fill-rule:evenodd;stroke:rgb(0, 142, 255);stroke-width:1;" d="M 871.131, 241.668 L 883.952, 223.052 L 885.884, 220.417 L 906.432, 228.672 L 904.325, 231.658 L 891.855, 249.923 L 871.131, 241.668 z "/>
<path style="fill:rgb(255, 0, 0);fill-opacity:0;fill-rule:evenodd;stroke:rgb(0, 142, 255);stroke-width:1;" d="M 83.6004, 67.4424 L 84.8299, 65.6861 L 93.9627, 53.2162 L 95.5434, 53.9188 L 104.149, 42.3271 L 102.393, 41.6246 L 103.095, 40.7464 L 107.838, 34.0724 L 121.361, 39.6926 L 113.282, 50.5818 L 96.9484, 73.0626 L 83.6004, 67.4424 z "/>
<path style="fill:rgb(0, 255, 0);fill-opacity:0;fill-rule:evenodd;stroke:rgb(0, 142, 255);stroke-width:1;" d="M 437.146, 153.677 L 461.91, 119.956 L 527.947, 147.881 L 526.894, 149.286 L 524.962, 152.097 L 464.193, 126.279 L 442.415, 155.96 L 437.146, 153.677 z "/>
<path style="fill:rgb(0, 0, 255);fill-opacity:0;fill-rule:evenodd;stroke:rgb(0, 142, 255);stroke-width:1;" d="M 177.563, 106.959 L 195.302, 82.7223 L 206.367, 67.4424 L 215.148, 71.1306 L 217.08, 71.8332 L 188.277, 111.526 L 177.563, 106.959 z "/>
<path style="fill:rgb(255, 255, 0);fill-opacity:0;fill-rule:evenodd;stroke:rgb(0, 142, 255);stroke-width:1;" d="M 328.957, 126.279 L 338.617, 113.282 L 347.047, 116.795 L 370.406, 126.63 L 360.746, 139.802 L 337.563, 129.967 L 328.957, 126.279 z "/>
<path style="fill:rgb(255, 0, 0);fill-opacity:0;fill-rule:evenodd;stroke:rgb(0, 142, 255);stroke-width:1;" d="M 327.728, 303.666 L 335.456, 292.953 L 363.732, 304.72 L 374.094, 309.111 L 366.367, 319.824 L 327.728, 303.666 z "/>
<path style="fill:rgb(0, 255, 0);fill-opacity:0;fill-rule:evenodd;stroke:rgb(0, 142, 255);stroke-width:1;" d="M 870.604, 178.266 L 877.629, 165.62 L 913.633, 180.022 L 905.554, 191.789 L 870.604, 178.266 z "/>
<path style="fill:rgb(0, 0, 255);fill-opacity:0;fill-rule:evenodd;stroke:rgb(0, 142, 255);stroke-width:1;" d="M 704.457, 123.469 L 708.496, 118.024 L 775.236, 145.423 L 782.613, 148.408 L 778.573, 154.204 L 704.457, 123.469 z "/>
<path style="fill:rgb(255, 255, 0);fill-opacity:0;fill-rule:evenodd;stroke:rgb(0, 142, 255);stroke-width:1;" d="M 320, 314.38 L 327.728, 303.666 L 366.367, 319.824 L 358.639, 330.538 L 320, 314.38 z "/>
<path style="fill:rgb(255, 0, 0);fill-opacity:0;fill-rule:evenodd;stroke:rgb(0, 142, 255);stroke-width:1;" d="M 145.95, 93.6114 L 174.929, 54.0944 L 176.685, 54.7969 L 185.115, 58.4852 L 156.312, 98.0022 L 145.95, 93.6114 z "/>
<path style="fill:rgb(0, 255, 0);fill-opacity:0;fill-rule:evenodd;stroke:rgb(0, 142, 255);stroke-width:1;" d="M 163.337, 752.404 L 185.467, 722.371 L 198.99, 728.167 L 176.861, 758.2 L 163.337, 752.404 z "/>
<path style="fill:rgb(0, 0, 255);fill-opacity:0;fill-rule:evenodd;stroke:rgb(0, 142, 255);stroke-width:1;" d="M 120.834, 639.122 L 141.207, 610.318 L 155.434, 615.939 L 135.236, 644.918 L 120.834, 639.122 z "/>
<path style="fill:rgb(255, 255, 0);fill-opacity:0;fill-rule:evenodd;stroke:rgb(0, 142, 255);stroke-width:1;" d="M 673.546, 165.971 L 677.585, 160.527 L 751.701, 190.911 L 747.662, 196.707 L 740.285, 193.37 L 673.546, 165.971 z "/>
<path style="fill:rgb(255, 0, 0);fill-opacity:0;fill-rule:evenodd;stroke:rgb(0, 142, 255);stroke-width:1;" d="M 67.2667, 481.229 L 73.7651, 472.272 L 74.9945, 472.799 L 85.3568, 477.19 L 118.902, 491.24 L 112.404, 500.198 L 99.9341, 494.929 L 89.2206, 490.538 L 75.8727, 484.918 L 67.2667, 481.229 z "/>
<path style="fill:rgb(0, 255, 0);fill-opacity:0;fill-rule:evenodd;stroke:rgb(0, 142, 255);stroke-width:1;" d="M 414.665, 182.13 L 422.217, 171.767 L 460.681, 187.925 L 453.128, 198.288 L 414.665, 182.13 z "/>
<path style="fill:rgb(0, 0, 255);fill-opacity:0;fill-rule:evenodd;stroke:rgb(0, 142, 255);stroke-width:1;" d="M 437.849, 647.552 L 441.01, 643.337 L 448.035, 633.502 L 452.25, 627.706 L 472.975, 636.312 L 469.111, 641.932 L 463.491, 650.011 L 462.613, 650.889 L 461.032, 651.943 L 459.1, 652.821 L 456.992, 653.348 L 454.885, 653.524 L 451.899, 653.348 L 437.849, 647.552 z "/>
<path style="fill:rgb(255, 255, 0);fill-opacity:0;fill-rule:evenodd;stroke:rgb(0, 142, 255);stroke-width:1;" d="M 253.963, 661.076 L 282.591, 621.734 L 292.777, 625.95 L 263.974, 665.291 L 263.622, 665.115 L 253.963, 661.076 z "/>
<path style="fill:rgb(255, 0, 0);fill-opacity:0;fill-rule:evenodd;stroke:rgb(0, 142, 255);stroke-width:1;" d="M 577.124, 663.535 L 583.271, 653.875 L 629.111, 673.546 L 622.613, 682.854 L 605.049, 675.302 L 606.806, 672.843 L 592.755, 667.047 L 590.999, 669.506 L 577.124, 663.535 z "/>
<path style="fill:rgb(0, 255, 0);fill-opacity:0;fill-rule:evenodd;stroke:rgb(0, 142, 255);stroke-width:1;" d="M 644.215, 296.114 L 653.524, 283.293 L 684.083, 296.29 L 674.775, 308.935 L 644.215, 296.114 z "/>
<path style="fill:rgb(0, 0, 255);fill-opacity:0;fill-rule:evenodd;stroke:rgb(0, 142, 255);stroke-width:1;" d="M 136.29, 89.5719 L 165.269, 50.0549 L 174.929, 54.0944 L 145.95, 93.6114 L 136.29, 89.5719 z "/>
<path style="fill:rgb(255, 255, 0);fill-opacity:0;fill-rule:evenodd;stroke:rgb(0, 142, 255);stroke-width:1;" d="M 126.806, 85.5324 L 143.139, 63.0516 L 155.609, 46.0154 L 165.269, 50.0549 L 136.29, 89.5719 L 126.806, 85.5324 z "/>
<path style="fill:rgb(255, 0, 0);fill-opacity:0;fill-rule:evenodd;stroke:rgb(0, 142, 255);stroke-width:1;" d="M 171.943, 612.777 L 175.631, 607.859 L 191.087, 587.311 L 194.599, 582.569 L 206.367, 587.486 L 183.183, 619.451 L 182.656, 620.154 L 180.549, 618.573 L 171.943, 612.777 z "/>
<path style="fill:rgb(0, 255, 0);fill-opacity:0;fill-rule:evenodd;stroke:rgb(0, 142, 255);stroke-width:1;" d="M 399.034, 203.557 L 406.937, 192.843 L 441.361, 207.42 L 433.633, 218.134 L 424.852, 214.446 L 408.869, 207.772 L 399.034, 203.557 z "/>
<path style="fill:rgb(0, 0, 255);fill-opacity:0;fill-rule:evenodd;stroke:rgb(0, 142, 255);stroke-width:1;" d="M 429.769, 161.405 L 435.917, 153.15 L 437.146, 153.677 L 442.415, 155.96 L 477.014, 170.538 L 481.581, 172.47 L 475.609, 180.724 L 475.082, 180.549 L 449.44, 169.66 L 451.723, 166.498 L 449.265, 165.445 L 446.806, 168.606 L 429.769, 161.405 z "/>
<path style="fill:rgb(255, 255, 0);fill-opacity:0;fill-rule:evenodd;stroke:rgb(0, 142, 255);stroke-width:1;" d="M 358.639, 330.538 L 366.367, 319.824 L 374.094, 309.111 L 390.955, 316.487 L 375.675, 337.739 L 358.639, 330.538 z "/>
<path style="fill:rgb(255, 0, 0);fill-opacity:0;fill-rule:evenodd;stroke:rgb(0, 142, 255);stroke-width:1;" d="M 245.181, 657.387 L 258.529, 638.946 L 264.501, 630.692 L 275.038, 616.465 L 283.82, 620.154 L 282.591, 621.734 L 253.963, 661.076 L 245.181, 657.387 z "/>
<path style="fill:rgb(0, 255, 0);fill-opacity:0;fill-rule:evenodd;stroke:rgb(0, 142, 255);stroke-width:1;" d="M 54.0944, 767.684 L 55.8507, 765.049 L 83.0735, 727.113 L 85.3568, 723.776 L 92.0307, 726.411 L 85.3568, 735.543 L 96.0703, 740.285 L 88.8694, 750.472 L 76.5752, 745.379 L 59.0121, 769.791 L 54.0944, 767.684 z "/>
<path style="fill:rgb(0, 0, 255);fill-opacity:0;fill-rule:evenodd;stroke:rgb(0, 142, 255);stroke-width:1;" d="M 499.846, 469.989 L 505.993, 461.559 L 508.277, 460.856 L 511.965, 455.763 L 513.897, 456.465 L 517.936, 450.845 L 516.18, 450.143 L 520.395, 444.171 L 519.868, 442.591 L 525.84, 434.336 L 537.08, 439.078 L 520.571, 461.734 L 517.585, 462.437 L 515.302, 465.598 L 516.356, 467.53 L 511.087, 474.731 L 499.846, 469.989 z "/>
<path style="fill:rgb(255, 255, 0);fill-opacity:0;fill-rule:evenodd;stroke:rgb(0, 142, 255);stroke-width:1;" d="M 191.262, 198.288 L 198.288, 188.628 L 197.936, 185.993 L 207.947, 172.47 L 207.596, 170.714 L 215.851, 159.297 L 226.74, 164.04 L 219.715, 173.524 L 215.499, 179.495 L 213.041, 178.266 L 211.636, 180.198 L 214.094, 181.251 L 207.42, 190.209 L 199.868, 200.746 L 199.693, 200.922 L 198.99, 200.571 L 198.288, 201.273 L 191.262, 198.288 z "/>
<path style="fill:rgb(255, 0, 0);fill-opacity:0;fill-rule:evenodd;stroke:rgb(0, 142, 255);stroke-width:1;" d="M 177.387, 191.789 L 191.789, 172.294 L 193.721, 172.997 L 195.302, 170.889 L 193.37, 170.011 L 204.61, 154.555 L 215.851, 159.297 L 207.596, 170.714 L 204.962, 171.24 L 195.126, 184.764 L 191.965, 185.993 L 185.291, 195.126 L 177.387, 191.789 z "/>
<path style="fill:rgb(0, 255, 0);fill-opacity:0;fill-rule:evenodd;stroke:rgb(0, 142, 255);stroke-width:1;" d="M 187.574, 376.026 L 220.768, 330.714 L 221.471, 332.997 L 221.998, 336.334 L 221.998, 340.198 L 221.471, 344.413 L 220.417, 348.452 L 218.661, 352.492 L 216.553, 356.356 L 213.919, 359.868 L 212.338, 361.625 L 209.001, 364.962 L 207.245, 366.542 L 203.205, 369.352 L 198.814, 371.811 L 194.424, 373.919 L 191.087, 374.973 L 187.574, 376.026 z "/>
<path style="fill:rgb(0, 0, 255);fill-opacity:0;fill-rule:evenodd;stroke:rgb(0, 142, 255);stroke-width:1;" d="M 211.109, 121.186 L 233.063, 90.9769 L 244.654, 95.719 L 222.876, 125.576 L 222.525, 125.928 L 211.109, 121.186 z "/>
<path style="fill:rgb(255, 255, 0);fill-opacity:0;fill-rule:evenodd;stroke:rgb(0, 142, 255);stroke-width:1;" d="M 840.044, 578.002 L 840.746, 576.948 L 926.63, 612.777 L 931.548, 614.885 L 906.432, 649.484 L 903.271, 648.079 L 918.2, 627.53 L 912.58, 625.247 L 918.2, 617.519 L 905.554, 612.25 L 909.418, 606.981 L 840.044, 578.002 z "/>
<path style="fill:rgb(255, 0, 0);fill-opacity:0;fill-rule:evenodd;stroke:rgb(0, 142, 255);stroke-width:1;" d="M 261.164, 85.1811 L 270.648, 72.1844 L 266.959, 70.6037 L 284.347, 46.7179 L 294.885, 51.2843 L 280.132, 71.3063 L 271.35, 83.0735 L 267.838, 87.9912 L 261.164, 85.1811 z "/>
<path style="fill:rgb(0, 255, 0);fill-opacity:0;fill-rule:evenodd;stroke:rgb(0, 142, 255);stroke-width:1;" d="M 170.187, 188.628 L 176.861, 179.495 L 176.685, 176.861 L 186.696, 163.337 L 185.642, 161.405 L 193.897, 149.989 L 204.61, 154.555 L 193.37, 170.011 L 191.614, 169.308 L 190.033, 171.592 L 191.789, 172.294 L 177.387, 191.789 L 170.187, 188.628 z "/>
<path style="fill:rgb(0, 0, 255);fill-opacity:0;fill-rule:evenodd;stroke:rgb(0, 142, 255);stroke-width:1;" d="M 271.35, 83.0735 L 280.132, 71.3063 L 307.881, 83.0735 L 299.1, 94.8408 L 271.35, 83.0735 z "/>
<path style="fill:rgb(255, 255, 0);fill-opacity:0;fill-rule:evenodd;stroke:rgb(0, 142, 255);stroke-width:1;" d="M 624.369, 221.295 L 626.476, 218.134 L 641.932, 197.058 L 655.28, 202.678 L 637.541, 226.915 L 624.369, 221.295 z "/>
<path style="fill:rgb(255, 0, 0);fill-opacity:0;fill-rule:evenodd;stroke:rgb(0, 142, 255);stroke-width:1;" d="M 634.731, 230.779 L 637.541, 226.915 L 655.28, 202.678 L 666.52, 207.42 L 646.147, 235.521 L 634.731, 230.779 z "/>
<path style="fill:rgb(0, 255, 0);fill-opacity:0;fill-rule:evenodd;stroke:rgb(0, 142, 255);stroke-width:1;" d="M 59.0121, 769.791 L 76.5752, 745.379 L 88.8694, 750.472 L 71.3063, 774.709 L 65.3348, 772.25 L 59.0121, 769.791 z "/>
<path style="fill:rgb(0, 0, 255);fill-opacity:0;fill-rule:evenodd;stroke:rgb(0, 142, 255);stroke-width:1;" d="M 366.542, 402.195 L 369.352, 401.844 L 382.7, 383.578 L 382.525, 382.7 L 388.847, 385.335 L 391.833, 385.335 L 395.873, 386.915 L 396.4, 389.199 L 382.7, 408.518 L 379.539, 408.869 L 367.596, 403.776 L 366.542, 402.195 z "/>
<path style="fill:rgb(255, 255, 0);fill-opacity:0;fill-rule:evenodd;stroke:rgb(0, 142, 255);stroke-width:1;" d="M 250.274, 418.529 L 253.26, 414.665 L 254.665, 414.314 L 257.651, 409.221 L 258.002, 410.099 L 282.064, 420.11 L 284.874, 420.11 L 285.225, 422.217 L 279.078, 430.648 L 275.917, 431.175 L 250.977, 420.461 L 250.274, 418.529 z "/>
<path style="fill:rgb(255, 0, 0);fill-opacity:0;fill-rule:evenodd;stroke:rgb(0, 142, 255);stroke-width:1;" d="M 937.344, 204.435 L 944.72, 193.019 L 970.889, 204.259 L 962.81, 215.499 L 937.344, 204.435 z "/>
<path style="fill:rgb(0, 255, 0);fill-opacity:0;fill-rule:evenodd;stroke:rgb(0, 142, 255);stroke-width:1;" d="M 670.384, 170.011 L 673.546, 165.971 L 740.285, 193.37 L 737.3, 197.585 L 670.384, 170.011 z "/>
<path style="fill:rgb(0, 0, 255);fill-opacity:0;fill-rule:evenodd;stroke:rgb(0, 142, 255);stroke-width:1;" d="M 285.752, 565.181 L 291.372, 557.453 L 294.533, 553.063 L 317.19, 562.371 L 313.853, 566.937 L 308.408, 574.49 L 285.752, 565.181 z "/>
<path style="fill:rgb(255, 255, 0);fill-opacity:0;fill-rule:evenodd;stroke:rgb(0, 142, 255);stroke-width:1;" d="M 300.681, 381.647 L 302.788, 378.661 L 322.634, 374.797 L 327.025, 376.905 L 329.484, 387.618 L 306.125, 392.711 L 300.681, 381.647 z "/>
<path style="fill:rgb(255, 0, 0);fill-opacity:0;fill-rule:evenodd;stroke:rgb(0, 142, 255);stroke-width:1;" d="M 708.496, 118.024 L 711.306, 113.985 L 778.046, 141.383 L 775.236, 145.423 L 708.496, 118.024 z "/>
<path style="fill:rgb(0, 255, 0);fill-opacity:0;fill-rule:evenodd;stroke:rgb(0, 142, 255);stroke-width:1;" d="M 236.926, 255.895 L 245.532, 243.952 L 266.784, 252.909 L 258.178, 264.676 L 236.926, 255.895 z "/>
<path style="fill:rgb(0, 0, 255);fill-opacity:0;fill-rule:evenodd;stroke:rgb(0, 142, 255);stroke-width:1;" d="M 614.709, 213.216 L 630.165, 192.141 L 641.932, 197.058 L 626.476, 218.134 L 614.709, 213.216 z "/>
<path style="fill:rgb(255, 255, 0);fill-opacity:0;fill-rule:evenodd;stroke:rgb(0, 142, 255);stroke-width:1;" d="M 129.967, 275.038 L 134.358, 274.863 L 138.222, 275.038 L 148.408, 276.795 L 154.907, 278.375 L 161.229, 280.483 L 167.377, 282.942 L 173.172, 285.752 L 178.617, 288.913 L 181.251, 290.67 L 186.169, 294.358 L 188.452, 296.29 L 191.965, 300.681 L 129.967, 275.038 z "/>
<path style="fill:rgb(255, 0, 0);fill-opacity:0;fill-rule:evenodd;stroke:rgb(0, 142, 255);stroke-width:1;" d="M 608.035, 644.391 L 625.598, 620.154 L 635.609, 624.369 L 629.989, 632.097 L 618.046, 648.606 L 608.035, 644.391 z "/>
<path style="fill:rgb(0, 255, 0);fill-opacity:0;fill-rule:evenodd;stroke:rgb(0, 142, 255);stroke-width:1;" d="M 455.939, 147.003 L 465.423, 134.358 L 484.04, 142.086 L 474.555, 154.907 L 455.939, 147.003 z "/>
<path style="fill:rgb(0, 0, 255);fill-opacity:0;fill-rule:evenodd;stroke:rgb(0, 142, 255);stroke-width:1;" d="M 689.528, 264.676 L 697.958, 253.26 L 718.507, 261.866 L 709.726, 273.458 L 689.528, 264.676 z "/>
<path style="fill:rgb(255, 255, 0);fill-opacity:0;fill-rule:evenodd;stroke:rgb(0, 142, 255);stroke-width:1;" d="M 75.1701, 348.101 L 137.87, 374.446 L 130.143, 374.27 L 123.644, 373.392 L 113.985, 371.284 L 108.013, 369.177 L 102.042, 366.894 L 96.5971, 364.083 L 91.3282, 361.098 L 86.4105, 357.585 L 81.8441, 353.897 L 75.1701, 348.101 z "/>
<path style="fill:rgb(255, 0, 0);fill-opacity:0;fill-rule:evenodd;stroke:rgb(0, 142, 255);stroke-width:1;" d="M 96.9484, 73.0626 L 113.282, 50.5818 L 123.82, 54.9726 L 107.486, 77.4533 L 96.9484, 73.0626 z "/>
<path style="fill:rgb(0, 255, 0);fill-opacity:0;fill-rule:evenodd;stroke:rgb(0, 142, 255);stroke-width:1;" d="M 592.58, 203.732 L 608.035, 182.832 L 619.1, 187.398 L 603.82, 208.474 L 592.58, 203.732 z "/>
<path style="fill:rgb(0, 0, 255);fill-opacity:0;fill-rule:evenodd;stroke:rgb(0, 142, 255);stroke-width:1;" d="M 603.82, 208.474 L 619.1, 187.398 L 630.165, 192.141 L 614.709, 213.216 L 603.82, 208.474 z "/>
<path style="fill:rgb(255, 255, 0);fill-opacity:0;fill-rule:evenodd;stroke:rgb(0, 142, 255);stroke-width:1;" d="M 600.483, 232.887 L 614.709, 213.216 L 626.476, 218.134 L 624.369, 221.295 L 612.25, 237.805 L 604.347, 234.468 L 600.483, 232.887 z "/>
<path style="fill:rgb(255, 0, 0);fill-opacity:0;fill-rule:evenodd;stroke:rgb(0, 142, 255);stroke-width:1;" d="M 629.989, 632.097 L 635.609, 624.369 L 664.237, 636.487 L 658.617, 644.215 L 629.989, 632.097 z "/>
<path style="fill:rgb(0, 255, 0);fill-opacity:0;fill-rule:evenodd;stroke:rgb(0, 142, 255);stroke-width:1;" d="M 612.25, 237.805 L 624.369, 221.295 L 637.541, 226.915 L 634.731, 230.779 L 628.584, 239.034 L 625.423, 243.425 L 612.25, 237.805 z "/>
<path style="fill:rgb(0, 0, 255);fill-opacity:0;fill-rule:evenodd;stroke:rgb(0, 142, 255);stroke-width:1;" d="M 560.439, 686.542 L 563.249, 683.205 L 566.937, 686.718 L 573.26, 691.284 L 581.339, 695.851 L 594.336, 700.241 L 588.189, 708.321 L 562.898, 697.431 L 568.167, 690.406 L 560.439, 686.542 z "/>
<path style="fill:rgb(255, 255, 0);fill-opacity:0;fill-rule:evenodd;stroke:rgb(0, 142, 255);stroke-width:1;" d="M 852.689, 210.231 L 859.89, 197.409 L 878.683, 204.962 L 869.726, 217.431 L 852.689, 210.231 z "/>
<path style="fill:rgb(255, 0, 0);fill-opacity:0;fill-rule:evenodd;stroke:rgb(0, 142, 255);stroke-width:1;" d="M 107.486, 77.4533 L 123.82, 54.9726 L 133.48, 59.0121 L 117.146, 81.4929 L 107.486, 77.4533 z "/>
<path style="fill:rgb(0, 255, 0);fill-opacity:0;fill-rule:evenodd;stroke:rgb(0, 142, 255);stroke-width:1;" d="M 117.146, 81.4929 L 133.48, 59.0121 L 143.139, 63.0516 L 126.806, 85.5324 L 117.146, 81.4929 z "/>
<path style="fill:rgb(0, 0, 255);fill-opacity:0;fill-rule:evenodd;stroke:rgb(0, 142, 255);stroke-width:1;" d="M 694.797, 759.956 L 710.428, 738.705 L 720.439, 742.92 L 704.808, 764.171 L 694.797, 759.956 z "/>
<path style="fill:rgb(255, 255, 0);fill-opacity:0;fill-rule:evenodd;stroke:rgb(0, 142, 255);stroke-width:1;" d="M 160.176, 533.392 L 221.647, 450.318 L 222.525, 453.48 L 164.04, 532.865 L 160.176, 533.392 z "/>
<path style="fill:rgb(255, 0, 0);fill-opacity:0;fill-rule:evenodd;stroke:rgb(0, 142, 255);stroke-width:1;" d="M 101.866, 649.133 L 106.608, 642.283 L 109.594, 644.215 L 139.627, 657.036 L 135.412, 663.183 L 101.866, 649.133 z "/>
<path style="fill:rgb(0, 255, 0);fill-opacity:0;fill-rule:evenodd;stroke:rgb(0, 142, 255);stroke-width:1;" d="M 668.628, 172.997 L 670.384, 170.011 L 737.3, 197.585 L 734.841, 200.746 L 668.628, 172.997 z "/>
<path style="fill:rgb(0, 0, 255);fill-opacity:0;fill-rule:evenodd;stroke:rgb(0, 142, 255);stroke-width:1;" d="M 734.841, 200.746 L 737.3, 197.585 L 744.852, 200.746 L 751.526, 203.381 L 754.336, 199.341 L 760.659, 201.976 L 774.533, 207.947 L 770.318, 215.675 L 734.841, 200.746 z "/>
<path style="fill:rgb(255, 255, 0);fill-opacity:0;fill-rule:evenodd;stroke:rgb(0, 142, 255);stroke-width:1;" d="M 428.013, 563.776 L 429.769, 560.966 L 432.404, 557.278 L 434.512, 556.048 L 436.443, 555.17 L 438.551, 554.643 L 440.834, 554.643 L 442.942, 554.819 L 444.347, 555.17 L 454.533, 559.561 L 446.103, 570.801 L 428.013, 563.776 z "/>
<path style="fill:rgb(255, 0, 0);fill-opacity:0;fill-rule:evenodd;stroke:rgb(0, 142, 255);stroke-width:1;" d="M 924.874, 240.088 L 933.831, 227.442 L 949.286, 234.116 L 940.505, 246.586 L 924.874, 240.088 z "/>
<path style="fill:rgb(0, 255, 0);fill-opacity:0;fill-rule:evenodd;stroke:rgb(0, 142, 255);stroke-width:1;" d="M 704.808, 764.171 L 720.439, 742.92 L 729.396, 746.784 L 713.765, 768.035 L 704.808, 764.171 z "/>
<path style="fill:rgb(0, 0, 255);fill-opacity:0;fill-rule:evenodd;stroke:rgb(0, 142, 255);stroke-width:1;" d="M 583.271, 680.22 L 590.999, 669.506 L 592.755, 667.047 L 606.806, 672.843 L 605.049, 675.302 L 597.146, 686.015 L 583.271, 680.22 z "/>
<path style="fill:rgb(255, 255, 0);fill-opacity:0;fill-rule:evenodd;stroke:rgb(0, 142, 255);stroke-width:1;" d="M 315.082, 120.483 L 324.742, 107.311 L 328.606, 109.067 L 338.617, 113.282 L 328.957, 126.279 L 315.082, 120.483 z "/>
<path style="fill:rgb(255, 0, 0);fill-opacity:0;fill-rule:evenodd;stroke:rgb(0, 142, 255);stroke-width:1;" d="M 104.852, 427.311 L 120.132, 406.235 L 128.386, 409.923 L 113.282, 430.823 L 104.852, 427.311 z "/>
<path style="fill:rgb(0, 255, 0);fill-opacity:0;fill-rule:evenodd;stroke:rgb(0, 142, 255);stroke-width:1;" d="M 773.304, 192.843 L 792.097, 166.85 L 796.663, 168.782 L 781.207, 196.18 L 773.304, 192.843 z "/>
<path style="fill:rgb(0, 0, 255);fill-opacity:0;fill-rule:evenodd;stroke:rgb(0, 142, 255);stroke-width:1;" d="M 648.782, 571.855 L 655.807, 562.371 L 672.141, 569.045 L 665.115, 578.705 L 648.782, 571.855 z "/>
<path style="fill:rgb(255, 255, 0);fill-opacity:0;fill-rule:evenodd;stroke:rgb(0, 142, 255);stroke-width:1;" d="M 436.795, 690.933 L 440.307, 686.191 L 470.165, 698.661 L 466.652, 703.578 L 436.795, 690.933 z "/>
<path style="fill:rgb(255, 0, 0);fill-opacity:0;fill-rule:evenodd;stroke:rgb(0, 142, 255);stroke-width:1;" d="M 114.336, 455.587 L 118.902, 449.44 L 142.261, 459.1 L 137.695, 465.247 L 114.336, 455.587 z "/>
<path style="fill:rgb(0, 255, 0);fill-opacity:0;fill-rule:evenodd;stroke:rgb(0, 142, 255);stroke-width:1;" d="M 128.211, 436.092 L 132.602, 430.121 L 156.136, 439.956 L 151.745, 445.928 L 128.211, 436.092 z "/>
<path style="fill:rgb(0, 0, 255);fill-opacity:0;fill-rule:evenodd;stroke:rgb(0, 142, 255);stroke-width:1;" d="M 866.389, 248.518 L 867.969, 246.235 L 871.131, 241.668 L 891.855, 249.923 L 887.113, 256.773 L 866.389, 248.518 z "/>
<path style="fill:rgb(255, 255, 0);fill-opacity:0;fill-rule:evenodd;stroke:rgb(0, 142, 255);stroke-width:1;" d="M 530.231, 83.4248 L 559.912, 43.7322 L 561.317, 44.2591 L 563.074, 45.1372 L 533.392, 84.8299 L 530.231, 83.4248 z "/>
<path style="fill:rgb(255, 0, 0);fill-opacity:0;fill-rule:evenodd;stroke:rgb(0, 142, 255);stroke-width:1;" d="M 536.026, 117.849 L 537.08, 116.443 L 551.658, 96.9484 L 557.453, 99.5829 L 541.998, 120.307 L 536.026, 117.849 z "/>
<path style="fill:rgb(0, 255, 0);fill-opacity:0;fill-rule:evenodd;stroke:rgb(0, 142, 255);stroke-width:1;" d="M 768.562, 190.911 L 787.355, 164.918 L 792.097, 166.85 L 773.304, 192.843 L 768.562, 190.911 z "/>
<path style="fill:rgb(0, 0, 255);fill-opacity:0;fill-rule:evenodd;stroke:rgb(0, 142, 255);stroke-width:1;" d="M 487.025, 240.79 L 496.685, 227.618 L 505.642, 231.306 L 495.982, 244.479 L 487.025, 240.79 z "/>
<path style="fill:rgb(255, 255, 0);fill-opacity:0;fill-rule:evenodd;stroke:rgb(0, 142, 255);stroke-width:1;" d="M 298.573, 377.08 L 300.329, 373.743 L 320.703, 369.352 L 325.62, 371.284 L 327.025, 376.905 L 322.634, 374.797 L 302.788, 378.661 L 300.681, 381.647 L 298.573, 377.08 z "/>
<path style="fill:rgb(255, 0, 0);fill-opacity:0;fill-rule:evenodd;stroke:rgb(0, 142, 255);stroke-width:1;" d="M 479.824, 93.6114 L 497.563, 69.9012 L 498.09, 72.0088 L 498.617, 74.292 L 484.742, 92.7333 L 495.982, 97.6509 L 497.036, 99.4072 L 498.617, 101.69 L 479.824, 93.6114 z "/>
<path style="fill:rgb(0, 255, 0);fill-opacity:0;fill-rule:evenodd;stroke:rgb(0, 142, 255);stroke-width:1;" d="M 81.4929, 459.978 L 84.4786, 455.763 L 109.067, 465.95 L 105.906, 470.34 L 82.8979, 460.505 L 81.4929, 459.978 z "/>
<path style="fill:rgb(0, 0, 255);fill-opacity:0;fill-rule:evenodd;stroke:rgb(0, 142, 255);stroke-width:1;" d="M 408.869, 207.772 L 412.909, 202.151 L 428.891, 208.825 L 424.852, 214.446 L 408.869, 207.772 z "/>
<path style="fill:rgb(255, 255, 0);fill-opacity:0;fill-rule:evenodd;stroke:rgb(0, 142, 255);stroke-width:1;" d="M 561.142, 678.814 L 578.353, 651.943 L 583.271, 653.875 L 577.124, 663.535 L 561.142, 678.814 z "/>
<path style="fill:rgb(255, 0, 0);fill-opacity:0;fill-rule:evenodd;stroke:rgb(0, 142, 255);stroke-width:1;" d="M 760.659, 201.976 L 764.698, 196.356 L 769.44, 198.288 L 778.046, 201.8 L 774.533, 207.947 L 760.659, 201.976 z "/>
<path style="fill:rgb(0, 255, 0);fill-opacity:0;fill-rule:evenodd;stroke:rgb(0, 142, 255);stroke-width:1;" d="M 425.73, 689.352 L 430.999, 682.151 L 440.307, 686.191 L 436.795, 690.933 L 435.038, 693.216 L 425.73, 689.352 z "/>
<path style="fill:rgb(0, 0, 255);fill-opacity:0;fill-rule:evenodd;stroke:rgb(0, 142, 255);stroke-width:1;" d="M 344.061, 654.753 L 349.33, 647.728 L 358.639, 651.592 L 353.37, 658.793 L 344.061, 654.753 z "/>
<path style="fill:rgb(255, 255, 0);fill-opacity:0;fill-rule:evenodd;stroke:rgb(0, 142, 255);stroke-width:1;" d="M 375.148, 758.024 L 380.417, 750.823 L 389.726, 754.863 L 384.457, 761.888 L 375.148, 758.024 z "/>
<path style="fill:rgb(255, 0, 0);fill-opacity:0;fill-rule:evenodd;stroke:rgb(0, 142, 255);stroke-width:1;" d="M 293.655, 723.425 L 298.749, 716.4 L 307.881, 720.263 L 302.788, 727.289 L 293.655, 723.425 z "/>
<path style="fill:rgb(0, 255, 0);fill-opacity:0;fill-rule:evenodd;stroke:rgb(0, 142, 255);stroke-width:1;" d="M 594.336, 700.241 L 597.497, 695.851 L 609.791, 701.12 L 606.63, 705.335 L 594.336, 700.241 z "/>
<path style="fill:rgb(0, 0, 255);fill-opacity:0;fill-rule:evenodd;stroke:rgb(0, 142, 255);stroke-width:1;" d="M 64.8079, 557.98 L 67.618, 553.414 L 66.0373, 552.711 L 70.7794, 546.213 L 75.8727, 549.726 L 68.4962, 559.561 L 64.8079, 557.98 z "/>
<path style="fill:rgb(255, 255, 0);fill-opacity:0;fill-rule:evenodd;stroke:rgb(0, 142, 255);stroke-width:1;" d="M 326.85, 74.1164 L 332.119, 66.9155 L 339.144, 69.9012 L 333.699, 77.1021 L 326.85, 74.1164 z "/>
<path style="fill:rgb(255, 0, 0);fill-opacity:0;fill-rule:evenodd;stroke:rgb(0, 142, 255);stroke-width:1;" d="M 789.286, 151.043 L 791.921, 147.53 L 805.269, 153.15 L 803.337, 156.487 L 795.785, 153.502 L 789.286, 151.043 z "/>
<path style="fill:rgb(0, 255, 0);fill-opacity:0;fill-rule:evenodd;stroke:rgb(0, 142, 255);stroke-width:1;" d="M 791.394, 159.297 L 795.785, 153.502 L 803.337, 156.487 L 800, 162.634 L 796.312, 161.405 L 791.394, 159.297 z "/>
<path style="fill:rgb(0, 0, 255);fill-opacity:0;fill-rule:evenodd;stroke:rgb(0, 142, 255);stroke-width:1;" d="M 769.44, 198.288 L 773.304, 192.843 L 781.207, 196.18 L 778.046, 201.8 L 769.44, 198.288 z "/>
<path style="fill:rgb(255, 255, 0);fill-opacity:0;fill-rule:evenodd;stroke:rgb(0, 142, 255);stroke-width:1;" d="M 747.662, 196.707 L 751.701, 190.911 L 758.551, 193.721 L 754.336, 199.341 L 747.662, 196.707 z "/>
<path style="fill:rgb(255, 0, 0);fill-opacity:0;fill-rule:evenodd;stroke:rgb(0, 142, 255);stroke-width:1;" d="M 778.573, 154.204 L 782.613, 148.408 L 789.286, 151.043 L 785.071, 156.839 L 778.573, 154.204 z "/>
<path style="fill:rgb(0, 255, 0);fill-opacity:0;fill-rule:evenodd;stroke:rgb(0, 142, 255);stroke-width:1;" d="M 36.3557, 702.876 L 60.7684, 669.506 L 116.443, 693.216 L 92.0307, 726.411 L 85.3568, 723.776 L 41.6246, 705.159 L 36.3557, 702.876 z "/>
<path style="fill:rgb(0, 0, 255);fill-opacity:0;fill-rule:evenodd;stroke:rgb(0, 142, 255);stroke-width:1;" d="M 39.8683, 425.203 L 42.5027, 421.515 L 49.7036, 411.679 L 61.6465, 395.17 L 68.6718, 385.686 L 96.5971, 397.278 L 67.7936, 436.795 L 39.8683, 425.203 z "/>
<path style="fill:rgb(255, 255, 0);fill-opacity:0;fill-rule:evenodd;stroke:rgb(0, 142, 255);stroke-width:1;" d="M 49.528, 487.201 L 55.6751, 478.771 L 66.0373, 483.161 L 72.5357, 485.796 L 75.8727, 484.918 L 89.2206, 490.538 L 87.9912, 492.294 L 95.8946, 495.631 L 99.9341, 494.929 L 112.404, 500.198 L 104.852, 510.56 L 49.528, 487.201 z "/>
<path style="fill:rgb(255, 0, 0);fill-opacity:0;fill-rule:evenodd;stroke:rgb(0, 142, 255);stroke-width:1;" d="M 28.101, 516.18 L 30.5598, 512.843 L 85.708, 536.202 L 75.8727, 549.726 L 70.7794, 546.213 L 28.101, 516.18 z "/>
<path style="fill:rgb(0, 255, 0);fill-opacity:0;fill-rule:evenodd;stroke:rgb(0, 142, 255);stroke-width:1;" d="M 49.3524, 53.5675 L 64.8079, 32.4918 L 76.3996, 37.4094 L 62.7003, 56.202 L 61.1196, 58.4852 L 49.3524, 53.5675 z "/>
<path style="fill:rgb(0, 0, 255);fill-opacity:0;fill-rule:evenodd;stroke:rgb(0, 142, 255);stroke-width:1;" d="M 154.204, 45.4885 L 185.115, 3.16136 L 238.683, 25.6422 L 260.812, 34.9506 L 263.095, 31.7892 L 276.795, 37.5851 L 274.512, 40.7464 L 285.401, 45.3128 L 284.347, 46.7179 L 266.959, 70.6037 L 254.665, 87.64 L 238.156, 80.7903 L 230.077, 77.2777 L 228.321, 76.5752 L 217.08, 71.8332 L 215.148, 71.1306 L 218.661, 66.3886 L 180.022, 50.0549 L 176.685, 54.7969 L 174.929, 54.0944 L 165.269, 50.0549 L 155.609, 46.0154 L 154.204, 45.4885 z "/>
<path style="fill:rgb(255, 255, 0);fill-opacity:0;fill-rule:evenodd;stroke:rgb(0, 142, 255);stroke-width:1;" d="M 726.586, 54.0944 L 757.146, 12.6454 L 778.046, 21.427 L 775.587, 24.764 L 815.28, 41.6246 L 817.914, 37.9363 L 827.047, 41.8002 L 834.775, 31.0867 L 848.123, 36.7069 L 867.442, 44.9616 L 856.378, 64.9835 L 833.546, 57.0801 L 809.835, 89.2206 L 726.586, 54.0944 z "/>
<path style="fill:rgb(255, 0, 0);fill-opacity:0;fill-rule:evenodd;stroke:rgb(0, 142, 255);stroke-width:1;" d="M 62.7003, 56.202 L 76.3996, 37.4094 L 80.7903, 31.2623 L 103.095, 40.7464 L 102.393, 41.6246 L 93.9627, 53.2162 L 84.8299, 65.6861 L 78.6828, 63.0516 L 77.4533, 64.8079 L 73.4138, 63.0516 L 74.6432, 61.2953 L 62.7003, 56.202 z "/>
<path style="fill:rgb(0, 255, 0);fill-opacity:0;fill-rule:evenodd;stroke:rgb(0, 142, 255);stroke-width:1;" d="M 341.251, 35.4775 L 351.087, 21.9539 L 361.273, 26.3447 L 368.825, 16.1581 L 366.718, 15.2799 L 367.245, 14.5774 L 358.99, 11.2404 L 367.245, 0 L 397.629, 12.8211 L 386.74, 27.7497 L 392.711, 30.3842 L 389.199, 35.3019 L 392.536, 36.7069 L 394.116, 34.5993 L 402.02, 38.112 L 416.597, 18.2656 L 420.285, 13.348 L 454.885, 28.101 L 451.196, 33.0187 L 423.798, 70.4281 L 394.468, 57.9583 L 397.453, 53.9188 L 390.955, 51.1087 L 390.252, 52.1625 L 377.08, 46.5423 L 378.31, 44.9616 L 372.162, 42.3271 L 368.65, 47.0692 L 341.251, 35.4775 z "/>
<path style="fill:rgb(0, 0, 255);fill-opacity:0;fill-rule:evenodd;stroke:rgb(0, 142, 255);stroke-width:1;" d="M 341.251, 35.4775 L 351.087, 21.9539 L 361.273, 26.3447 L 368.825, 16.1581 L 366.718, 15.2799 L 367.245, 14.5774 L 358.99, 11.2404 L 367.245, 0 L 397.629, 12.8211 L 386.74, 27.7497 L 392.711, 30.3842 L 389.199, 35.3019 L 392.536, 36.7069 L 394.116, 34.5993 L 402.02, 38.112 L 416.597, 18.2656 L 451.196, 33.0187 L 423.798, 70.4281 L 394.468, 57.9583 L 397.453, 53.9188 L 390.955, 51.1087 L 390.252, 52.1625 L 377.08, 46.5423 L 378.31, 44.9616 L 372.162, 42.3271 L 368.65, 47.0692 L 341.251, 35.4775 z "/>
<path style="fill:rgb(255, 255, 0);fill-opacity:0;fill-rule:evenodd;stroke:rgb(0, 142, 255);stroke-width:1;" d="M 416.597, 18.2656 L 420.285, 13.348 L 454.885, 28.101 L 451.196, 33.0187 L 416.597, 18.2656 z "/>
<path style="fill:rgb(255, 0, 0);fill-opacity:0;fill-rule:evenodd;stroke:rgb(0, 142, 255);stroke-width:1;" d="M 513.37, 48.8255 L 529.177, 27.7497 L 531.636, 27.3985 L 514.072, 51.2843 L 513.37, 48.8255 z "/>
<path style="fill:rgb(0, 255, 0);fill-opacity:0;fill-rule:evenodd;stroke:rgb(0, 142, 255);stroke-width:1;" d="M 951.745, 698.836 L 987.223, 651.592 L 1021.47, 667.75 L 1167.24, 728.869 L 1133, 775.587 L 997.936, 719.034 L 951.745, 698.836 z "/>
<path style="fill:rgb(0, 0, 255);fill-opacity:0;fill-rule:evenodd;stroke:rgb(0, 142, 255);stroke-width:1;" d="M 902.744, 700.768 L 931.723, 661.076 L 964.566, 674.775 L 993.721, 634.907 L 1033.41, 651.416 L 1021.47, 667.75 L 987.223, 651.592 L 951.745, 698.836 L 997.936, 719.034 L 985.642, 735.719 L 902.744, 700.768 z "/>
<path style="fill:rgb(255, 255, 0);fill-opacity:0;fill-rule:evenodd;stroke:rgb(0, 142, 255);stroke-width:1;" d="M 0, 753.282 L 4.03952, 747.311 L 36.3557, 702.876 L 41.6246, 705.159 L 85.3568, 723.776 L 92.0307, 726.411 L 85.3568, 735.543 L 96.0703, 740.285 L 88.8694, 750.472 L 71.3063, 774.709 L 65.3348, 772.25 L 59.0121, 769.791 L 54.6213, 775.763 L 0, 753.282 z "/>
<path style="fill:rgb(255, 0, 0);fill-opacity:0;fill-rule:evenodd;stroke:rgb(0, 142, 255);stroke-width:1;" d="M 17.2119, 749.067 L 44.2591, 711.306 L 83.0735, 727.113 L 55.8507, 765.049 L 17.2119, 749.067 z "/>
<path style="fill:rgb(0, 255, 0);fill-opacity:0;fill-rule:evenodd;stroke:rgb(0, 142, 255);stroke-width:1;" d="M 0, 753.282 L 4.03952, 747.311 L 12.2942, 750.648 L 54.0944, 767.684 L 59.0121, 769.791 L 54.6213, 775.763 L 0, 753.282 z "/>
<path style="fill:rgb(0, 0, 255);fill-opacity:0;fill-rule:evenodd;stroke:rgb(0, 142, 255);stroke-width:1;" d="M 4.03952, 747.311 L 36.3557, 702.876 L 41.6246, 705.159 L 18.6169, 737.651 L 20.9001, 738.705 L 12.2942, 750.648 L 4.03952, 747.311 z "/>
<path style="fill:rgb(255, 255, 0);fill-opacity:0;fill-rule:evenodd;stroke:rgb(0, 142, 255);stroke-width:1;" d="M 18.6169, 737.651 L 41.6246, 705.159 L 85.3568, 723.776 L 83.0735, 727.113 L 44.2591, 711.306 L 41.449, 710.077 L 20.9001, 738.705 L 18.6169, 737.651 z "/>
<path style="fill:rgb(255, 0, 0);fill-opacity:0;fill-rule:evenodd;stroke:rgb(0, 142, 255);stroke-width:1;" d="M 12.2942, 750.648 L 20.9001, 738.705 L 41.449, 710.077 L 44.2591, 711.306 L 17.2119, 749.067 L 55.8507, 765.049 L 54.0944, 767.684 L 12.2942, 750.648 z "/>
<path style="fill:rgb(0, 255, 0);fill-opacity:0;fill-rule:evenodd;stroke:rgb(0, 142, 255);stroke-width:1;" d="M 17.2119, 749.067 L 44.2591, 711.306 L 83.0735, 727.113 L 55.8507, 765.049 L 17.2119, 749.067 z "/>
<path style="fill:rgb(0, 0, 255);fill-opacity:0;fill-rule:evenodd;stroke:rgb(0, 142, 255);stroke-width:1;" d="M 0, 753.282 L 4.03952, 747.311 L 12.2942, 750.648 L 54.0944, 767.684 L 59.0121, 769.791 L 54.6213, 775.763 L 0, 753.282 z "/>
<path style="fill:rgb(255, 255, 0);fill-opacity:0;fill-rule:evenodd;stroke:rgb(0, 142, 255);stroke-width:1;" d="M 12.2942, 750.648 L 20.9001, 738.705 L 41.449, 710.077 L 44.2591, 711.306 L 17.2119, 749.067 L 55.8507, 765.049 L 54.0944, 767.684 L 12.2942, 750.648 z "/>
<path style="fill:rgb(255, 0, 0);fill-opacity:0;fill-rule:evenodd;stroke:rgb(0, 142, 255);stroke-width:1;" d="M 23.8858, 332.294 L 43.2053, 305.95 L 47.0692, 307.53 L 47.7717, 303.491 L 48.2986, 301.383 L 49.7036, 297.344 L 51.6356, 293.48 L 54.0944, 289.791 L 55.4995, 288.035 L 58.6608, 284.698 L 62.1734, 281.537 L 66.0373, 278.551 L 70.2525, 275.917 L 66.3886, 274.336 L 85.0055, 248.869 L 140.329, 272.228 L 138.222, 275.038 L 148.408, 276.795 L 154.907, 278.375 L 161.229, 280.483 L 167.377, 282.942 L 173.172, 285.752 L 178.617, 288.913 L 181.251, 290.67 L 186.169, 294.358 L 188.452, 296.29 L 190.56, 293.48 L 245.357, 316.663 L 226.564, 342.305 L 221.998, 340.198 L 221.471, 344.413 L 220.417, 348.452 L 218.661, 352.492 L 216.553, 356.356 L 213.919, 359.868 L 212.338, 361.625 L 209.001, 364.962 L 207.245, 366.542 L 203.205, 369.352 L 198.814, 371.811 L 203.557, 373.743 L 184.061, 400.263 L 128.386, 376.729 L 130.143, 374.27 L 123.644, 373.392 L 113.985, 371.284 L 108.013, 369.177 L 102.042, 366.894 L 96.5971, 364.083 L 91.3282, 361.098 L 86.4105, 357.585 L 81.8441, 353.897 L 80.2634, 356.18 L 23.8858, 332.294 z "/>
<path style="fill:rgb(0, 255, 0);fill-opacity:0;fill-rule:evenodd;stroke:rgb(0, 142, 255);stroke-width:1;" d="M 46.7179, 319.824 L 49.1767, 316.663 L 82.7223, 271.35 L 86.2349, 266.608 L 106.959, 275.565 L 105.027, 278.2 L 103.271, 280.483 L 102.217, 281.888 L 72.36, 322.459 L 69.5499, 325.971 L 68.4962, 327.377 L 67.618, 328.782 L 46.7179, 319.824 z "/>
<path style="fill:rgb(0, 0, 255);fill-opacity:0;fill-rule:evenodd;stroke:rgb(0, 142, 255);stroke-width:1;" d="M 23.8858, 332.294 L 43.2053, 305.95 L 47.0692, 307.53 L 47.9473, 312.623 L 49.1767, 316.663 L 46.7179, 319.824 L 67.618, 328.782 L 61.2953, 337.563 L 63.4029, 343.359 L 75.1701, 348.101 L 81.8441, 353.897 L 80.2634, 356.18 L 23.8858, 332.294 z "/>
<path style="fill:rgb(255, 255, 0);fill-opacity:0;fill-rule:evenodd;stroke:rgb(0, 142, 255);stroke-width:1;" d="M 47.0692, 307.53 L 48.2986, 301.383 L 49.7036, 297.344 L 51.6356, 293.48 L 54.0944, 289.791 L 55.4995, 288.035 L 58.6608, 284.698 L 62.1734, 281.537 L 66.0373, 278.551 L 70.2525, 275.917 L 76.7508, 273.106 L 82.7223, 271.35 L 49.1767, 316.663 L 47.9473, 312.623 L 47.0692, 307.53 z "/>
<path style="fill:rgb(255, 0, 0);fill-opacity:0;fill-rule:evenodd;stroke:rgb(0, 142, 255);stroke-width:1;" d="M 384.457, 761.888 L 389.726, 754.863 L 405.357, 761.537 L 412.206, 758.024 L 418.002, 754.336 L 423.447, 750.121 L 428.891, 744.852 L 436.268, 736.07 L 441.361, 727.64 L 444.171, 720.966 L 445.928, 713.765 L 446.806, 706.564 L 447.333, 701.471 L 433.458, 695.499 L 435.038, 693.216 L 436.795, 690.933 L 466.652, 703.578 L 463.139, 709.199 L 466.652, 710.955 L 441.888, 778.924 L 438.551, 777.344 L 433.458, 783.842 L 384.457, 761.888 z "/>
<path style="fill:rgb(0, 255, 0);fill-opacity:0;fill-rule:evenodd;stroke:rgb(0, 142, 255);stroke-width:1;" d="M 288.386, 731.328 L 293.655, 723.425 L 302.788, 727.289 L 321.054, 735.016 L 357.058, 750.296 L 375.148, 758.024 L 384.457, 761.888 L 433.458, 783.842 L 428.891, 789.813 L 288.386, 731.328 z "/>
<path style="fill:rgb(0, 0, 255);fill-opacity:0;fill-rule:evenodd;stroke:rgb(0, 142, 255);stroke-width:1;" d="M 433.458, 783.842 L 438.551, 777.344 L 441.888, 778.924 L 466.652, 710.955 L 463.139, 709.199 L 466.652, 703.578 L 478.419, 708.672 L 473.326, 715.346 L 475.434, 715.873 L 451.196, 783.315 L 448.562, 782.086 L 443.82, 788.408 L 433.458, 783.842 z "/>
<path style="fill:rgb(255, 255, 0);fill-opacity:0;fill-rule:evenodd;stroke:rgb(0, 142, 255);stroke-width:1;" d="M 479.824, 93.6114 L 497.563, 69.9012 L 510.209, 53.0406 L 513.37, 48.8255 L 529.177, 27.7497 L 542.525, 10.011 L 561.317, 18.09 L 578.002, 25.1153 L 586.959, 28.9791 L 572.031, 48.8255 L 583.095, 53.3919 L 566.937, 75.5214 L 582.569, 82.1954 L 575.895, 91.3282 L 560.615, 84.8299 L 551.658, 96.9484 L 557.453, 99.5829 L 541.998, 120.307 L 536.026, 117.849 L 522.327, 111.877 L 498.617, 101.69 L 479.824, 93.6114 z "/>
<path style="fill:rgb(255, 0, 0);fill-opacity:0;fill-rule:evenodd;stroke:rgb(0, 142, 255);stroke-width:1;" d="M 486.85, 92.2064 L 499.144, 76.2239 L 498.617, 74.292 L 498.09, 72.0088 L 511.965, 53.9188 L 513.194, 54.4457 L 514.424, 52.6894 L 514.072, 51.2843 L 531.636, 27.3985 L 533.919, 27.0472 L 535.675, 26.6959 L 544.457, 15.2799 L 552.536, 18.6169 L 555.521, 18.4413 L 558.507, 18.2656 L 575.543, 25.4665 L 561.317, 44.2591 L 559.912, 43.7322 L 530.231, 83.4248 L 533.392, 84.8299 L 539.012, 87.1131 L 536.378, 90.6257 L 545.51, 94.4896 L 551.658, 96.9484 L 537.08, 116.443 L 525.137, 111.526 L 522.327, 111.877 L 498.617, 101.69 L 497.036, 99.4072 L 495.982, 97.6509 L 495.104, 95.8946 L 486.85, 92.2064 z "/>
<path style="fill:rgb(0, 255, 0);fill-opacity:0;fill-rule:evenodd;stroke:rgb(0, 142, 255);stroke-width:1;" d="M 563.074, 45.1372 L 578.002, 25.1153 L 586.959, 28.9791 L 572.031, 48.8255 L 563.074, 45.1372 z "/>
</svg>