<?xml version="1.0" encoding="iso-8859-1" standalone="no"?>
<!DOCTYPE svg PUBLIC "-//W3C//DTD SVG 1.0//EN" "http://www.w3.org/TR/2001/REC-SVG-20010904/DTD/svg10.dtd">
<svg xmlns="http://www.w3.org/2000/svg" width="1055" height="800">
<path style="fill:rgb(255, 0, 0);fill-opacity:0;fill-rule:evenodd;stroke:rgb(0, 255, 33);stroke-width:1;" d="M 857.296, 354.521 L 890.421, 309.4 L 924.799, 323.903 L 931.244, 315.13 L 982.274, 336.795 L 1000.72, 311.37 L 1029.19, 323.366 L 1000.9, 362.041 L 1010.38, 365.98 L 981.379, 405.909 L 980.662, 406.804 L 857.296, 354.521 z "/>
<path style="fill:rgb(0, 255, 0);fill-opacity:0;fill-rule:evenodd;stroke:rgb(0, 255, 33);stroke-width:1;" d="M 850.85, 483.259 L 873.411, 452.462 L 877.708, 454.252 L 880.752, 450.134 L 909.4, 462.131 L 912.623, 457.654 L 924.261, 441.719 L 928.38, 443.509 L 933.214, 436.885 L 928.917, 435.094 L 937.511, 423.456 L 947.359, 427.574 L 947.896, 426.679 L 1005.37, 450.85 L 1004.83, 451.567 L 1008.42, 452.999 L 988.004, 481.11 L 976.544, 496.688 L 954.521, 527.126 L 951.298, 525.694 L 948.97, 528.917 L 861.415, 492.032 L 863.742, 488.63 L 850.85, 483.259 z "/>
<path style="fill:rgb(0, 0, 255);fill-opacity:0;fill-rule:evenodd;stroke:rgb(0, 255, 33);stroke-width:1;" d="M 817.547, 613.25 L 819.158, 611.28 L 846.911, 572.963 L 918.174, 603.044 L 922.113, 597.851 L 937.332, 604.297 L 944.494, 594.628 L 950.94, 597.493 L 957.565, 588.362 L 964.906, 591.585 L 991.406, 602.686 L 990.152, 604.476 L 992.48, 605.372 L 947.001, 667.86 L 817.547, 613.25 z "/>
<path style="fill:rgb(255, 255, 0);fill-opacity:0;fill-rule:evenodd;stroke:rgb(0, 255, 33);stroke-width:1;" d="M 716.92, 243.509 L 719.964, 239.391 L 747.359, 201.97 L 861.952, 250.671 L 820.054, 307.789 L 771.71, 287.377 L 784.96, 269.114 L 755.595, 256.759 L 753.984, 259.266 L 716.92, 243.509 z "/>
<path style="fill:rgb(255, 0, 0);fill-opacity:0;fill-rule:evenodd;stroke:rgb(0, 255, 33);stroke-width:1;" d="M 281.647, 111.728 L 313.518, 67.6813 L 421.486, 112.981 L 418.979, 116.383 L 424.53, 118.89 L 395.166, 159.355 L 281.647, 111.728 z "/>
<path style="fill:rgb(0, 255, 0);fill-opacity:0;fill-rule:evenodd;stroke:rgb(0, 255, 33);stroke-width:1;" d="M 60.1611, 153.089 L 90.0627, 111.549 L 81.8263, 108.147 L 85.7654, 102.596 L 107.789, 71.9785 L 141.987, 86.3026 L 128.201, 105.461 L 123.903, 111.191 L 136.079, 116.383 L 188.541, 138.406 L 165.801, 169.74 L 115.309, 148.612 L 103.312, 143.599 L 98.6571, 150.045 L 87.3769, 165.622 L 68.0394, 157.386 L 68.5765, 156.67 L 60.1611, 153.089 z "/>
<path style="fill:rgb(0, 0, 255);fill-opacity:0;fill-rule:evenodd;stroke:rgb(0, 255, 33);stroke-width:1;" d="M 80.0358, 541.271 L 83.0797, 537.153 L 111.907, 497.762 L 209.132, 538.406 L 208.057, 539.839 L 210.206, 540.913 L 179.409, 582.99 L 113.16, 555.058 L 80.0358, 541.271 z "/>
<path style="fill:rgb(255, 255, 0);fill-opacity:0;fill-rule:evenodd;stroke:rgb(0, 255, 33);stroke-width:1;" d="M 643.868, 658.55 L 651.925, 647.09 L 656.043, 648.881 L 671.441, 627.395 L 668.397, 626.141 L 684.512, 603.76 L 749.508, 630.439 L 756.132, 621.128 L 767.95, 625.962 L 768.308, 629.543 L 780.125, 634.378 L 753.268, 671.979 L 726.231, 660.877 L 723.724, 664.458 L 708.863, 685.228 L 643.868, 658.55 z M 704.924, 640.286 L 733.214, 652.104 L 741.808, 640.107 L 713.697, 628.29 L 704.924, 640.286 z "/>
<path style="fill:rgb(255, 0, 0);fill-opacity:0;fill-rule:evenodd;stroke:rgb(0, 255, 33);stroke-width:1;" d="M 613.429, 388.183 L 613.608, 388.004 L 671.083, 309.221 L 671.799, 308.147 L 739.302, 336.795 L 738.765, 337.69 L 725.515, 355.774 L 715.488, 369.561 L 687.914, 357.923 L 676.455, 373.679 L 653.536, 405.192 L 613.429, 388.183 z "/>
<path style="fill:rgb(0, 255, 0);fill-opacity:0;fill-rule:evenodd;stroke:rgb(0, 255, 33);stroke-width:1;" d="M 76.8129, 392.48 L 109.758, 346.643 L 200.179, 384.244 L 199.284, 385.676 L 187.825, 401.611 L 186.213, 403.76 L 180.842, 401.432 L 175.112, 409.49 L 180.483, 411.638 L 168.308, 428.827 L 148.791, 420.77 L 148.433, 421.128 L 147.896, 422.023 L 133.393, 416.115 L 113.697, 407.878 L 82.9006, 395.166 L 76.8129, 392.48 z "/>
<path style="fill:rgb(0, 0, 255);fill-opacity:0;fill-rule:evenodd;stroke:rgb(0, 255, 33);stroke-width:1;" d="M 599.821, 108.326 L 612.355, 61.7726 L 656.938, 80.3939 L 718.89, 106.535 L 716.204, 109.937 L 720.143, 111.549 L 693.823, 147.896 L 599.821, 108.326 z "/>
<path style="fill:rgb(255, 255, 0);fill-opacity:0;fill-rule:evenodd;stroke:rgb(0, 255, 33);stroke-width:1;" d="M 652.82, 406.088 L 653.536, 405.192 L 676.455, 373.679 L 708.863, 387.466 L 730.528, 357.923 L 769.561, 374.396 L 771.889, 375.291 L 726.589, 437.243 L 652.82, 406.088 z "/>
<path style="fill:rgb(255, 0, 0);fill-opacity:0;fill-rule:evenodd;stroke:rgb(0, 255, 33);stroke-width:1;" d="M 708.147, 561.146 L 735.363, 524.082 L 735.721, 524.082 L 739.481, 518.711 L 809.311, 548.254 L 808.057, 550.045 L 821.307, 555.774 L 802.328, 581.558 L 803.402, 582.095 L 792.659, 596.956 L 708.147, 561.146 z "/>
<path style="fill:rgb(0, 255, 0);fill-opacity:0;fill-rule:evenodd;stroke:rgb(0, 255, 33);stroke-width:1;" d="M 814.324, 412.892 L 839.391, 378.514 L 939.481, 420.77 L 937.511, 423.456 L 928.917, 435.094 L 924.261, 441.719 L 912.623, 457.654 L 887.735, 447.269 L 897.404, 434.02 L 888.272, 430.081 L 880.573, 440.824 L 868.039, 435.452 L 816.115, 413.787 L 814.324, 412.892 z "/>
<path style="fill:rgb(0, 0, 255);fill-opacity:0;fill-rule:evenodd;stroke:rgb(0, 255, 33);stroke-width:1;" d="M 837.78, 734.109 L 838.675, 733.035 L 856.58, 707.968 L 844.942, 703.133 L 871.62, 665.712 L 927.305, 688.63 L 882.005, 752.372 L 837.78, 734.109 z "/>
<path style="fill:rgb(255, 255, 0);fill-opacity:0;fill-rule:evenodd;stroke:rgb(0, 255, 33);stroke-width:1;" d="M 576.723, 199.463 L 591.585, 138.048 L 672.695, 172.784 L 646.195, 208.774 L 624.709, 205.909 L 576.723, 199.463 z "/>
<path style="fill:rgb(255, 0, 0);fill-opacity:0;fill-rule:evenodd;stroke:rgb(0, 255, 33);stroke-width:1;" d="M 197.493, 576.544 L 205.551, 565.622 L 208.236, 566.697 L 223.098, 546.285 L 225.425, 547.18 L 227.037, 545.21 L 316.383, 585.855 L 296.15, 618.263 L 197.493, 576.544 z "/>
<path style="fill:rgb(0, 255, 0);fill-opacity:0;fill-rule:evenodd;stroke:rgb(0, 255, 33);stroke-width:1;" d="M 739.481, 518.711 L 764.727, 484.333 L 847.807, 519.427 L 826.5, 548.612 L 821.307, 555.774 L 808.057, 550.045 L 809.311, 548.254 L 739.481, 518.711 z "/>
<path style="fill:rgb(0, 0, 255);fill-opacity:0;fill-rule:evenodd;stroke:rgb(0, 255, 33);stroke-width:1;" d="M 547.359, 341.092 L 548.433, 341.271 L 585.497, 345.748 L 590.868, 348.075 L 605.013, 328.38 L 599.821, 326.231 L 602.686, 322.471 L 610.922, 311.191 L 619.338, 299.373 L 627.037, 288.988 L 654.969, 300.806 L 654.073, 302.059 L 596.598, 380.842 L 596.061, 381.558 L 554.7, 364.19 L 549.508, 358.46 L 547.359, 341.092 z "/>
<path style="fill:rgb(255, 255, 0);fill-opacity:0;fill-rule:evenodd;stroke:rgb(0, 255, 33);stroke-width:1;" d="M 890.421, 309.4 L 916.383, 273.769 L 1001.79, 309.937 L 1000.72, 311.37 L 982.274, 336.795 L 931.244, 315.13 L 924.799, 323.903 L 890.421, 309.4 z "/>
<path style="fill:rgb(255, 0, 0);fill-opacity:0;fill-rule:evenodd;stroke:rgb(0, 255, 33);stroke-width:1;" d="M 397.493, 252.283 L 401.97, 242.077 L 439.57, 248.702 L 460.519, 219.875 L 518.89, 244.584 L 510.474, 277.35 L 447.449, 263.384 L 397.493, 252.283 z "/>
<path style="fill:rgb(0, 255, 0);fill-opacity:0;fill-rule:evenodd;stroke:rgb(0, 255, 33);stroke-width:1;" d="M 884.333, 90.5998 L 907.431, 58.7287 L 943.957, 74.1271 L 949.508, 66.2489 L 982.99, 80.3939 L 954.342, 119.964 L 884.333, 90.5998 z "/>
<path style="fill:rgb(0, 0, 255);fill-opacity:0;fill-rule:evenodd;stroke:rgb(0, 255, 33);stroke-width:1;" d="M 189.615, 587.287 L 197.493, 576.544 L 296.15, 618.263 L 297.583, 618.8 L 271.979, 653.894 L 269.83, 652.999 L 267.323, 651.925 L 268.397, 650.313 L 229.185, 633.662 L 234.199, 626.858 L 214.324, 618.442 L 223.993, 605.192 L 221.486, 600.716 L 189.615, 587.287 z "/>
<path style="fill:rgb(255, 255, 0);fill-opacity:0;fill-rule:evenodd;stroke:rgb(0, 255, 33);stroke-width:1;" d="M 621.128, 677.529 L 636.885, 655.506 L 643.868, 658.55 L 708.863, 685.228 L 723.724, 664.458 L 738.406, 670.546 L 711.191, 708.684 L 707.073, 714.593 L 625.962, 681.11 L 626.858, 679.857 L 621.128, 677.529 z "/>
<path style="fill:rgb(255, 0, 0);fill-opacity:0;fill-rule:evenodd;stroke:rgb(0, 255, 33);stroke-width:1;" d="M 162.578, 478.066 L 190.689, 438.854 L 198.03, 441.719 L 217.189, 414.861 L 229.185, 398.03 L 229.902, 396.956 L 258.908, 409.132 L 222.202, 460.34 L 205.551, 454.611 L 194.808, 469.293 L 205.192, 471.083 L 199.642, 485.586 L 162.578, 478.066 z "/>
<path style="fill:rgb(0, 255, 0);fill-opacity:0;fill-rule:evenodd;stroke:rgb(0, 255, 33);stroke-width:1;" d="M 301.164, 464.637 L 321.576, 436.347 L 402.686, 470.009 L 382.274, 498.299 L 345.568, 483.08 L 301.164, 464.637 z "/>
<path style="fill:rgb(0, 0, 255);fill-opacity:0;fill-rule:evenodd;stroke:rgb(0, 255, 33);stroke-width:1;" d="M 241.182, 164.19 L 261.415, 136.258 L 336.079, 167.771 L 309.4, 204.655 L 283.796, 193.912 L 292.032, 182.632 L 281.11, 177.977 L 279.499, 180.125 L 241.182, 164.19 z "/>
<path style="fill:rgb(255, 255, 0);fill-opacity:0;fill-rule:evenodd;stroke:rgb(0, 255, 33);stroke-width:1;" d="M 711.728, 291.853 L 733.572, 262.131 L 744.494, 266.607 L 739.481, 273.59 L 771.71, 287.377 L 820.054, 307.789 L 803.223, 330.707 L 711.728, 291.853 z "/>
<path style="fill:rgb(255, 0, 0);fill-opacity:0;fill-rule:evenodd;stroke:rgb(0, 255, 33);stroke-width:1;" d="M 843.688, 171.71 L 847.09, 167.055 L 848.165, 165.443 L 855.864, 168.666 L 861.415, 160.967 L 886.482, 126.589 L 935.004, 146.822 L 904.566, 188.72 L 868.577, 173.679 L 863.742, 180.304 L 843.688, 171.71 z "/>
<path style="fill:rgb(0, 255, 0);fill-opacity:0;fill-rule:evenodd;stroke:rgb(0, 255, 33);stroke-width:1;" d="M 963.832, 210.385 L 993.196, 170.815 L 1021.13, 182.811 L 1010.38, 197.314 L 1020.41, 201.611 L 1031.15, 187.108 L 1045.66, 193.196 L 1044.23, 195.166 L 1055.86, 200 L 1039.93, 221.665 L 1037.42, 220.591 L 1030.62, 229.722 L 1002.86, 217.905 L 997.672, 224.888 L 963.832, 210.385 z "/>
<path style="fill:rgb(0, 0, 255);fill-opacity:0;fill-rule:evenodd;stroke:rgb(0, 255, 33);stroke-width:1;" d="M 782.453, 459.982 L 808.057, 424.888 L 834.199, 435.81 L 825.962, 447.269 L 841.361, 453.715 L 849.597, 442.435 L 859.803, 446.732 L 873.411, 452.462 L 850.85, 483.259 L 847.807, 487.556 L 782.453, 459.982 z "/>
<path style="fill:rgb(255, 255, 0);fill-opacity:0;fill-rule:evenodd;stroke:rgb(0, 255, 33);stroke-width:1;" d="M 340.376, 352.551 L 365.622, 317.816 L 478.603, 365.443 L 469.472, 378.156 L 407.699, 352.193 L 384.602, 342.525 L 376.902, 353.089 L 373.321, 351.656 L 361.683, 367.771 L 360.43, 367.234 L 351.119, 363.295 L 354.521, 358.639 L 340.376, 352.551 z "/>
<path style="fill:rgb(255, 0, 0);fill-opacity:0;fill-rule:evenodd;stroke:rgb(0, 255, 33);stroke-width:1;" d="M 619.875, 252.999 L 643.868, 220.412 L 648.702, 213.787 L 644.047, 211.817 L 646.195, 208.774 L 672.695, 172.784 L 694.718, 182.095 L 691.495, 186.571 L 693.823, 187.645 L 677.529, 210.027 L 675.739, 209.311 L 666.428, 222.023 L 675.38, 225.783 L 647.09, 264.458 L 619.875, 252.999 z "/>
<path style="fill:rgb(0, 255, 0);fill-opacity:0;fill-rule:evenodd;stroke:rgb(0, 255, 33);stroke-width:1;" d="M 938.406, 753.447 L 970.098, 709.221 L 1014.5, 727.842 L 991.406, 760.072 L 982.99, 771.889 L 968.666, 765.98 L 938.406, 753.447 z "/>
<path style="fill:rgb(0, 0, 255);fill-opacity:0;fill-rule:evenodd;stroke:rgb(0, 255, 33);stroke-width:1;" d="M 129.275, 319.964 L 143.957, 299.731 L 211.817, 328.201 L 220.949, 315.488 L 223.814, 311.549 L 237.064, 317.278 L 235.631, 319.248 L 210.385, 353.984 L 129.275, 319.964 z "/>
<path style="fill:rgb(255, 255, 0);fill-opacity:0;fill-rule:evenodd;stroke:rgb(0, 255, 33);stroke-width:1;" d="M 811.638, 140.018 L 838.317, 103.133 L 888.272, 124.082 L 886.482, 126.589 L 861.415, 160.967 L 811.638, 140.018 z "/>
<path style="fill:rgb(255, 0, 0);fill-opacity:0;fill-rule:evenodd;stroke:rgb(0, 255, 33);stroke-width:1;" d="M 117.278, 464.637 L 147.896, 422.023 L 148.433, 421.128 L 190.689, 438.854 L 162.578, 478.066 L 159.534, 482.184 L 117.278, 464.637 z "/>
<path style="fill:rgb(0, 255, 0);fill-opacity:0;fill-rule:evenodd;stroke:rgb(0, 255, 33);stroke-width:1;" d="M 258.192, 524.978 L 273.769, 503.312 L 317.816, 521.576 L 353.984, 536.795 L 338.406, 558.46 L 258.192, 524.978 z "/>
<path style="fill:rgb(0, 0, 255);fill-opacity:0;fill-rule:evenodd;stroke:rgb(0, 255, 33);stroke-width:1;" d="M 85.9445, 774.396 L 102.059, 751.835 L 133.751, 765.085 L 133.035, 765.98 L 136.437, 767.413 L 144.494, 755.953 L 174.575, 768.308 L 147.717, 800 L 85.9445, 774.396 z "/>
<path style="fill:rgb(255, 255, 0);fill-opacity:0;fill-rule:evenodd;stroke:rgb(0, 255, 33);stroke-width:1;" d="M 935.721, 248.702 L 949.508, 230.081 L 999.105, 251.209 L 1002.86, 252.82 L 1018.08, 232.229 L 1034.38, 239.033 L 1013.97, 266.607 L 1005.19, 278.424 L 935.721, 248.702 z "/>
<path style="fill:rgb(255, 0, 0);fill-opacity:0;fill-rule:evenodd;stroke:rgb(0, 255, 33);stroke-width:1;" d="M 161.862, 275.201 L 179.23, 251.209 L 215.219, 266.249 L 215.756, 265.533 L 234.915, 273.59 L 246.374, 278.424 L 228.469, 303.312 L 200.537, 291.495 L 161.862, 275.201 z "/>
<path style="fill:rgb(0, 255, 0);fill-opacity:0;fill-rule:evenodd;stroke:rgb(0, 255, 33);stroke-width:1;" d="M 323.008, 401.97 L 348.254, 367.234 L 351.119, 363.295 L 360.43, 367.234 L 351.119, 380.125 L 355.595, 381.916 L 346.285, 394.987 L 357.028, 399.284 L 432.229, 430.976 L 434.736, 432.05 L 425.246, 444.942 L 323.008, 401.97 z "/>
<path style="fill:rgb(0, 0, 255);fill-opacity:0;fill-rule:evenodd;stroke:rgb(0, 255, 33);stroke-width:1;" d="M 803.939, 755.774 L 804.655, 754.7 L 823.277, 728.559 L 824.172, 727.126 L 838.675, 733.035 L 837.78, 734.109 L 882.005, 752.372 L 862.489, 779.767 L 803.939, 755.774 z "/>
<path style="fill:rgb(255, 255, 0);fill-opacity:0;fill-rule:evenodd;stroke:rgb(0, 255, 33);stroke-width:1;" d="M 822.023, 201.611 L 822.919, 200.358 L 833.483, 185.676 L 855.685, 194.628 L 865.354, 180.842 L 863.742, 180.304 L 868.577, 173.679 L 904.566, 188.72 L 880.394, 222.202 L 877.708, 222.919 L 874.485, 222.739 L 822.023, 201.611 z "/>
<path style="fill:rgb(255, 0, 0);fill-opacity:0;fill-rule:evenodd;stroke:rgb(0, 255, 33);stroke-width:1;" d="M 974.217, 524.978 L 990.51, 502.417 L 1002.69, 507.61 L 1045.12, 525.515 L 1020.41, 559.714 L 989.257, 546.464 L 994.27, 539.66 L 989.078, 537.69 L 994.987, 529.454 L 983.169, 524.62 L 980.842, 527.842 L 974.217, 524.978 z "/>
<path style="fill:rgb(0, 255, 0);fill-opacity:0;fill-rule:evenodd;stroke:rgb(0, 255, 33);stroke-width:1;" d="M 205.551, 479.499 L 222.202, 460.34 L 258.908, 409.132 L 280.215, 417.905 L 279.678, 418.979 L 258.013, 448.881 L 237.78, 477.171 L 228.111, 490.6 L 205.551, 479.499 z "/>
<path style="fill:rgb(0, 0, 255);fill-opacity:0;fill-rule:evenodd;stroke:rgb(0, 255, 33);stroke-width:1;" d="M 128.201, 105.461 L 141.987, 86.3026 L 206.625, 113.518 L 188.541, 138.406 L 136.079, 116.383 L 140.197, 110.474 L 128.201, 105.461 z "/>
<path style="fill:rgb(255, 255, 0);fill-opacity:0;fill-rule:evenodd;stroke:rgb(0, 255, 33);stroke-width:1;" d="M 49.5971, 437.601 L 61.5936, 420.949 L 63.7422, 421.665 L 94.3599, 434.557 L 105.64, 439.212 L 104.745, 440.466 L 113.339, 444.047 L 133.393, 416.115 L 147.896, 422.023 L 117.278, 464.637 L 116.741, 465.533 L 49.5971, 437.601 z "/>
<path style="fill:rgb(255, 0, 0);fill-opacity:0;fill-rule:evenodd;stroke:rgb(0, 255, 33);stroke-width:1;" d="M 647.09, 264.458 L 675.38, 225.783 L 687.377, 230.976 L 688.988, 231.692 L 685.586, 236.526 L 713.339, 248.165 L 688.63, 282.005 L 647.09, 264.458 z "/>
<path style="fill:rgb(0, 255, 0);fill-opacity:0;fill-rule:evenodd;stroke:rgb(0, 255, 33);stroke-width:1;" d="M 213.25, 202.686 L 231.513, 177.619 L 275.201, 195.882 L 289.346, 201.97 L 287.019, 205.013 L 271.083, 227.037 L 213.25, 202.686 z "/>
<path style="fill:rgb(0, 0, 255);fill-opacity:0;fill-rule:evenodd;stroke:rgb(0, 255, 33);stroke-width:1;" d="M 276.813, 245.658 L 301.701, 211.28 L 305.282, 206.446 L 307.431, 207.341 L 309.4, 204.655 L 336.079, 167.771 L 350.045, 173.679 L 326.589, 206.088 L 332.14, 208.415 L 298.478, 254.79 L 276.813, 245.658 z "/>
<path style="fill:rgb(255, 255, 0);fill-opacity:0;fill-rule:evenodd;stroke:rgb(0, 255, 33);stroke-width:1;" d="M 188.362, 645.658 L 202.507, 626.321 L 225.067, 635.989 L 227.216, 632.945 L 229.185, 633.662 L 268.397, 650.313 L 267.323, 651.925 L 269.83, 652.999 L 254.79, 673.769 L 188.362, 645.658 z "/>
<path style="fill:rgb(255, 0, 0);fill-opacity:0;fill-rule:evenodd;stroke:rgb(0, 255, 33);stroke-width:1;" d="M 317.816, 521.576 L 345.568, 483.08 L 382.274, 498.299 L 353.984, 536.795 L 317.816, 521.576 z "/>
<path style="fill:rgb(0, 255, 0);fill-opacity:0;fill-rule:evenodd;stroke:rgb(0, 255, 33);stroke-width:1;" d="M 298.478, 254.79 L 332.14, 208.415 L 340.555, 211.996 L 364.19, 179.409 L 377.261, 184.96 L 352.551, 218.979 L 346.106, 227.932 L 345.031, 227.395 L 340.734, 233.124 L 318.89, 263.384 L 298.478, 254.79 z "/>
<path style="fill:rgb(0, 0, 255);fill-opacity:0;fill-rule:evenodd;stroke:rgb(0, 255, 33);stroke-width:1;" d="M 673.411, 75.9176 L 673.948, 75.2014 L 695.613, 45.2999 L 696.867, 43.6885 L 739.302, 61.5936 L 733.751, 69.1137 L 715.846, 93.8227 L 673.411, 75.9176 z "/>
<path style="fill:rgb(255, 255, 0);fill-opacity:0;fill-rule:evenodd;stroke:rgb(0, 255, 33);stroke-width:1;" d="M 392.122, 240.466 L 393.196, 238.854 L 419.517, 202.686 L 460.519, 219.875 L 439.57, 248.702 L 401.97, 242.077 L 392.122, 240.466 z "/>
<path style="fill:rgb(255, 0, 0);fill-opacity:0;fill-rule:evenodd;stroke:rgb(0, 255, 33);stroke-width:1;" d="M 775.291, 676.455 L 799.642, 642.256 L 801.97, 638.854 L 838.675, 654.073 L 837.78, 655.148 L 811.996, 691.495 L 775.291, 676.455 z "/>
<path style="fill:rgb(0, 255, 0);fill-opacity:0;fill-rule:evenodd;stroke:rgb(0, 255, 33);stroke-width:1;" d="M 462.131, 187.287 L 478.424, 164.727 L 533.393, 187.825 L 527.126, 214.682 L 462.131, 187.287 z "/>
<path style="fill:rgb(0, 0, 255);fill-opacity:0;fill-rule:evenodd;stroke:rgb(0, 255, 33);stroke-width:1;" d="M 596.598, 380.842 L 654.073, 302.059 L 671.083, 309.221 L 613.608, 388.004 L 596.598, 380.842 z "/>
<path style="fill:rgb(255, 255, 0);fill-opacity:0;fill-rule:evenodd;stroke:rgb(0, 255, 33);stroke-width:1;" d="M 143.957, 299.731 L 161.862, 275.201 L 200.537, 291.495 L 192.122, 303.312 L 220.949, 315.488 L 211.817, 328.201 L 143.957, 299.731 z "/>
<path style="fill:rgb(255, 0, 0);fill-opacity:0;fill-rule:evenodd;stroke:rgb(0, 255, 33);stroke-width:1;" d="M 464.1, 158.818 L 469.83, 151.119 L 472.337, 152.193 L 484.691, 151.656 L 492.569, 140.734 L 539.839, 160.43 L 533.393, 187.825 L 478.424, 164.727 L 464.1, 158.818 z "/>
<path style="fill:rgb(0, 255, 0);fill-opacity:0;fill-rule:evenodd;stroke:rgb(0, 255, 33);stroke-width:1;" d="M 693.823, 147.896 L 720.143, 111.549 L 721.397, 109.937 L 755.953, 124.261 L 728.201, 162.399 L 693.823, 147.896 z "/>
<path style="fill:rgb(0, 0, 255);fill-opacity:0;fill-rule:evenodd;stroke:rgb(0, 255, 33);stroke-width:1;" d="M 87.3769, 165.622 L 98.6571, 150.045 L 110.654, 155.058 L 115.309, 148.612 L 165.801, 169.74 L 149.866, 191.764 L 87.3769, 165.622 z "/>
<path style="fill:rgb(255, 255, 0);fill-opacity:0;fill-rule:evenodd;stroke:rgb(0, 255, 33);stroke-width:1;" d="M 215.936, 507.431 L 226.321, 493.107 L 228.111, 490.6 L 237.78, 477.171 L 279.857, 494.718 L 273.769, 503.312 L 258.192, 524.978 L 215.936, 507.431 z "/>
<path style="fill:rgb(255, 0, 0);fill-opacity:0;fill-rule:evenodd;stroke:rgb(0, 255, 33);stroke-width:1;" d="M 810.027, 694.181 L 811.996, 691.495 L 837.78, 655.148 L 857.296, 663.205 L 859.266, 660.698 L 871.62, 665.712 L 844.942, 703.133 L 841.898, 707.252 L 810.027, 694.181 z "/>
<path style="fill:rgb(0, 255, 0);fill-opacity:0;fill-rule:evenodd;stroke:rgb(0, 255, 33);stroke-width:1;" d="M 258.013, 448.881 L 279.678, 418.979 L 321.576, 436.347 L 301.164, 464.637 L 299.91, 466.249 L 258.013, 448.881 z "/>
<path style="fill:rgb(0, 0, 255);fill-opacity:0;fill-rule:evenodd;stroke:rgb(0, 255, 33);stroke-width:1;" d="M 735.542, 726.41 L 764.011, 686.303 L 766.876, 682.363 L 795.524, 694.181 L 764.19, 738.048 L 735.542, 726.41 z "/>
<path style="fill:rgb(255, 255, 0);fill-opacity:0;fill-rule:evenodd;stroke:rgb(0, 255, 33);stroke-width:1;" d="M 764.19, 738.048 L 795.524, 694.181 L 823.635, 705.64 L 810.922, 723.366 L 792.301, 749.687 L 764.19, 738.048 z "/>
<path style="fill:rgb(255, 0, 0);fill-opacity:0;fill-rule:evenodd;stroke:rgb(0, 255, 33);stroke-width:1;" d="M 497.404, 64.4584 L 510.833, 46.0161 L 514.056, 47.2695 L 516.025, 44.4047 L 564.906, 64.8165 L 559.355, 86.8397 L 554.163, 88.2722 L 497.404, 64.4584 z "/>
<path style="fill:rgb(0, 255, 0);fill-opacity:0;fill-rule:evenodd;stroke:rgb(0, 255, 33);stroke-width:1;" d="M 790.51, 600 L 792.659, 596.956 L 803.402, 582.095 L 822.023, 556.67 L 836.168, 562.578 L 832.945, 567.055 L 846.911, 572.963 L 819.158, 611.28 L 790.51, 600 z "/>
<path style="fill:rgb(0, 0, 255);fill-opacity:0;fill-rule:evenodd;stroke:rgb(0, 255, 33);stroke-width:1;" d="M 358.997, 383.348 L 369.024, 369.561 L 369.919, 369.919 L 450.671, 403.939 L 440.645, 417.726 L 366.338, 386.392 L 358.997, 383.348 z "/>
<path style="fill:rgb(255, 255, 0);fill-opacity:0;fill-rule:evenodd;stroke:rgb(0, 255, 33);stroke-width:1;" d="M 129.454, 726.768 L 156.312, 689.705 L 184.781, 701.701 L 157.923, 738.585 L 129.454, 726.768 z "/>
<path style="fill:rgb(255, 0, 0);fill-opacity:0;fill-rule:evenodd;stroke:rgb(0, 255, 33);stroke-width:1;" d="M 369.919, 369.919 L 379.23, 357.028 L 398.389, 365.085 L 460.161, 391.047 L 450.671, 403.939 L 369.919, 369.919 z "/>
<path style="fill:rgb(0, 255, 0);fill-opacity:0;fill-rule:evenodd;stroke:rgb(0, 255, 33);stroke-width:1;" d="M 707.073, 714.593 L 711.191, 708.684 L 716.383, 710.833 L 724.082, 699.91 L 721.397, 698.657 L 726.231, 692.032 L 729.096, 693.107 L 736.974, 682.184 L 732.14, 680.215 L 736.079, 674.664 L 764.011, 686.303 L 735.542, 726.41 L 707.073, 714.593 z "/>
<path style="fill:rgb(0, 0, 255);fill-opacity:0;fill-rule:evenodd;stroke:rgb(0, 255, 33);stroke-width:1;" d="M 666.428, 222.023 L 675.739, 209.311 L 677.529, 210.027 L 693.823, 187.645 L 691.495, 186.571 L 694.718, 182.095 L 695.434, 181.2 L 723.366, 193.017 L 703.312, 220.412 L 697.046, 217.905 L 687.377, 230.976 L 675.38, 225.783 L 666.428, 222.023 z "/>
<path style="fill:rgb(255, 255, 0);fill-opacity:0;fill-rule:evenodd;stroke:rgb(0, 255, 33);stroke-width:1;" d="M 174.217, 425.783 L 181.916, 415.04 L 186.571, 417.01 L 189.436, 413.071 L 184.96, 411.28 L 189.615, 404.655 L 187.825, 401.611 L 199.284, 385.676 L 229.185, 398.03 L 217.189, 414.861 L 214.324, 413.787 L 212.355, 416.473 L 211.459, 416.115 L 208.057, 420.77 L 203.939, 419.158 L 201.074, 423.098 L 206.088, 425.246 L 198.389, 435.989 L 174.217, 425.783 z "/>
<path style="fill:rgb(255, 0, 0);fill-opacity:0;fill-rule:evenodd;stroke:rgb(0, 255, 33);stroke-width:1;" d="M 210.385, 353.984 L 235.631, 319.248 L 264.1, 331.244 L 240.645, 363.653 L 238.854, 365.98 L 210.385, 353.984 z "/>
<path style="fill:rgb(0, 255, 0);fill-opacity:0;fill-rule:evenodd;stroke:rgb(0, 255, 33);stroke-width:1;" d="M 240.645, 363.653 L 264.1, 331.244 L 265.175, 329.633 L 294.36, 341.808 L 269.651, 375.828 L 240.645, 363.653 z "/>
<path style="fill:rgb(0, 0, 255);fill-opacity:0;fill-rule:evenodd;stroke:rgb(0, 255, 33);stroke-width:1;" d="M 949.508, 230.081 L 963.832, 210.385 L 997.672, 224.888 L 1013.61, 231.692 L 999.105, 251.209 L 949.508, 230.081 z "/>
<path style="fill:rgb(255, 255, 0);fill-opacity:0;fill-rule:evenodd;stroke:rgb(0, 255, 33);stroke-width:1;" d="M 281.289, 384.602 L 306.535, 349.687 L 334.646, 361.504 L 309.4, 396.24 L 281.289, 384.602 z "/>
<path style="fill:rgb(255, 0, 0);fill-opacity:0;fill-rule:evenodd;stroke:rgb(0, 255, 33);stroke-width:1;" d="M 357.028, 399.284 L 366.338, 386.392 L 440.645, 417.726 L 441.719, 418.084 L 432.229, 430.976 L 357.028, 399.284 z "/>
<path style="fill:rgb(0, 255, 0);fill-opacity:0;fill-rule:evenodd;stroke:rgb(0, 255, 33);stroke-width:1;" d="M 569.024, 231.334 L 571.352, 221.307 L 611.996, 226.679 L 610.564, 228.827 L 618.621, 232.229 L 631.155, 215.04 L 643.868, 220.412 L 619.875, 252.999 L 569.024, 231.334 z "/>
<path style="fill:rgb(0, 0, 255);fill-opacity:0;fill-rule:evenodd;stroke:rgb(0, 255, 33);stroke-width:1;" d="M 779.409, 183.706 L 780.842, 181.737 L 800.358, 154.7 L 804.476, 149.15 L 832.229, 160.788 L 807.162, 195.345 L 779.409, 183.706 z "/>
<path style="fill:rgb(255, 255, 0);fill-opacity:0;fill-rule:evenodd;stroke:rgb(0, 255, 33);stroke-width:1;" d="M 841.719, 72.6947 L 866.428, 38.675 L 894.539, 50.4924 L 869.83, 84.5121 L 841.719, 72.6947 z "/>
<path style="fill:rgb(255, 0, 0);fill-opacity:0;fill-rule:evenodd;stroke:rgb(0, 255, 33);stroke-width:1;" d="M 167.592, 751.119 L 199.821, 706.535 L 222.919, 716.562 L 186.929, 758.997 L 167.592, 751.119 z "/>
<path style="fill:rgb(0, 255, 0);fill-opacity:0;fill-rule:evenodd;stroke:rgb(0, 255, 33);stroke-width:1;" d="M 709.937, 102.059 L 715.846, 93.8227 L 733.751, 69.1137 L 761.862, 80.9311 L 741.629, 108.863 L 738.048, 113.876 L 709.937, 102.059 z "/>
<path style="fill:rgb(0, 0, 255);fill-opacity:0;fill-rule:evenodd;stroke:rgb(0, 255, 33);stroke-width:1;" d="M 882.005, 580.125 L 886.84, 573.5 L 886.303, 571.889 L 888.451, 568.845 L 891.316, 568.129 L 898.478, 558.46 L 895.434, 557.028 L 905.282, 543.778 L 905.64, 543.062 L 934.109, 555.058 L 923.903, 569.024 L 920.68, 567.592 L 904.566, 589.615 L 882.005, 580.125 z "/>
<path style="fill:rgb(255, 255, 0);fill-opacity:0;fill-rule:evenodd;stroke:rgb(0, 255, 33);stroke-width:1;" d="M 696.688, 229.364 L 703.312, 220.412 L 723.366, 193.017 L 724.082, 192.122 L 747.359, 201.97 L 719.964, 239.391 L 696.688, 229.364 z "/>
<path style="fill:rgb(255, 0, 0);fill-opacity:0;fill-rule:evenodd;stroke:rgb(0, 255, 33);stroke-width:1;" d="M 571.352, 221.307 L 576.723, 199.463 L 624.709, 205.909 L 618.621, 232.229 L 610.564, 228.827 L 611.996, 226.679 L 571.352, 221.307 z "/>
<path style="fill:rgb(0, 255, 0);fill-opacity:0;fill-rule:evenodd;stroke:rgb(0, 255, 33);stroke-width:1;" d="M 63.7422, 421.665 L 82.9006, 395.166 L 113.697, 407.878 L 94.3599, 434.557 L 63.7422, 421.665 z "/>
<path style="fill:rgb(0, 0, 255);fill-opacity:0;fill-rule:evenodd;stroke:rgb(0, 255, 33);stroke-width:1;" d="M 991.406, 760.072 L 1014.5, 727.842 L 1027.75, 733.214 L 1026.5, 734.825 L 1040.11, 740.376 L 1021.49, 766.338 L 1019.16, 769.74 L 1005.55, 764.011 L 1004.66, 765.443 L 991.406, 760.072 z "/>
<path style="fill:rgb(255, 255, 0);fill-opacity:0;fill-rule:evenodd;stroke:rgb(0, 255, 33);stroke-width:1;" d="M 919.069, 780.483 L 938.406, 753.447 L 968.666, 765.98 L 949.15, 793.017 L 919.069, 780.483 z "/>
<path style="fill:rgb(255, 0, 0);fill-opacity:0;fill-rule:evenodd;stroke:rgb(0, 255, 33);stroke-width:1;" d="M 741.629, 108.863 L 761.862, 80.9311 L 767.413, 73.4109 L 789.973, 82.9006 L 764.19, 118.353 L 741.629, 108.863 z "/>
<path style="fill:rgb(0, 255, 0);fill-opacity:0;fill-rule:evenodd;stroke:rgb(0, 255, 33);stroke-width:1;" d="M 725.515, 355.774 L 738.765, 337.69 L 782.811, 356.312 L 769.561, 374.396 L 730.528, 357.923 L 725.515, 355.774 z "/>
<path style="fill:rgb(0, 0, 255);fill-opacity:0;fill-rule:evenodd;stroke:rgb(0, 255, 33);stroke-width:1;" d="M 773.859, 125.873 L 800.179, 89.5255 L 822.202, 98.8362 L 796.777, 133.751 L 795.882, 135.004 L 773.859, 125.873 z "/>
<path style="fill:rgb(255, 255, 0);fill-opacity:0;fill-rule:evenodd;stroke:rgb(0, 255, 33);stroke-width:1;" d="M 398.389, 365.085 L 407.699, 352.193 L 469.472, 378.156 L 460.161, 391.047 L 398.389, 365.085 z "/>
<path style="fill:rgb(255, 0, 0);fill-opacity:0;fill-rule:evenodd;stroke:rgb(0, 255, 33);stroke-width:1;" d="M 229.364, 774.754 L 265.175, 734.109 L 281.11, 740.734 L 249.239, 783.348 L 229.364, 774.754 z "/>
<path style="fill:rgb(0, 255, 0);fill-opacity:0;fill-rule:evenodd;stroke:rgb(0, 255, 33);stroke-width:1;" d="M 678.962, 601.432 L 686.661, 590.51 L 757.207, 619.696 L 756.132, 621.128 L 749.508, 630.439 L 684.512, 603.76 L 678.962, 601.432 z "/>
<path style="fill:rgb(0, 0, 255);fill-opacity:0;fill-rule:evenodd;stroke:rgb(0, 255, 33);stroke-width:1;" d="M 753.268, 671.979 L 780.125, 634.378 L 799.642, 642.256 L 775.291, 676.455 L 774.396, 676.097 L 771.889, 679.678 L 753.268, 671.979 z "/>
<path style="fill:rgb(255, 255, 0);fill-opacity:0;fill-rule:evenodd;stroke:rgb(0, 255, 33);stroke-width:1;" d="M 204.118, 215.219 L 213.25, 202.686 L 271.083, 227.037 L 262.131, 239.57 L 204.118, 215.219 z "/>
<path style="fill:rgb(255, 0, 0);fill-opacity:0;fill-rule:evenodd;stroke:rgb(0, 255, 33);stroke-width:1;" d="M 981.379, 405.909 L 1010.38, 365.98 L 1014.5, 367.771 L 1028.47, 373.679 L 999.284, 413.608 L 981.379, 405.909 z "/>
<path style="fill:rgb(0, 255, 0);fill-opacity:0;fill-rule:evenodd;stroke:rgb(0, 255, 33);stroke-width:1;" d="M 431.155, 311.907 L 431.871, 310.833 L 439.212, 300.627 L 497.583, 325.336 L 494.718, 335.004 L 489.346, 336.616 L 431.155, 311.907 z "/>
<path style="fill:rgb(0, 0, 255);fill-opacity:0;fill-rule:evenodd;stroke:rgb(0, 255, 33);stroke-width:1;" d="M 442.793, 275.739 L 447.449, 263.384 L 510.474, 277.35 L 507.252, 289.884 L 455.148, 278.424 L 442.793, 275.739 z "/>
<path style="fill:rgb(255, 255, 0);fill-opacity:0;fill-rule:evenodd;stroke:rgb(0, 255, 33);stroke-width:1;" d="M 554.7, 291.316 L 557.386, 279.32 L 558.639, 279.499 L 609.848, 285.944 L 612.355, 282.901 L 627.037, 288.988 L 619.338, 299.373 L 555.237, 291.316 L 554.7, 291.316 z "/>
<path style="fill:rgb(255, 0, 0);fill-opacity:0;fill-rule:evenodd;stroke:rgb(0, 255, 33);stroke-width:1;" d="M 120.501, 746.106 L 128.559, 735.004 L 153.268, 745.21 L 167.592, 751.119 L 186.929, 758.997 L 177.619, 769.74 L 174.575, 768.308 L 144.494, 755.953 L 120.501, 746.106 z "/>
<path style="fill:rgb(0, 255, 0);fill-opacity:0;fill-rule:evenodd;stroke:rgb(0, 255, 33);stroke-width:1;" d="M 153.268, 745.21 L 157.923, 738.585 L 184.781, 701.701 L 185.676, 700.448 L 199.821, 706.535 L 167.592, 751.119 L 153.268, 745.21 z "/>
<path style="fill:rgb(0, 0, 255);fill-opacity:0;fill-rule:evenodd;stroke:rgb(0, 255, 33);stroke-width:1;" d="M 549.508, 476.276 L 558.46, 464.279 L 565.443, 467.144 L 564.906, 467.86 L 577.44, 473.232 L 578.872, 471.262 L 593.554, 477.529 L 592.122, 479.499 L 604.655, 484.87 L 605.192, 484.154 L 612.355, 487.198 L 603.402, 499.373 L 596.777, 496.688 L 596.598, 496.688 L 596.598, 496.509 L 597.672, 495.076 L 583.527, 488.988 L 582.095, 490.958 L 569.024, 485.407 L 570.278, 483.617 L 568.845, 482.901 L 556.849, 477.708 L 555.774, 478.962 L 549.508, 476.276 z "/>
<path style="fill:rgb(255, 255, 0);fill-opacity:0;fill-rule:evenodd;stroke:rgb(0, 255, 33);stroke-width:1;" d="M 179.23, 251.209 L 186.392, 241.361 L 253.357, 269.472 L 248.344, 276.276 L 236.526, 271.262 L 234.915, 273.59 L 215.756, 265.533 L 215.219, 266.249 L 179.23, 251.209 z "/>
<path style="fill:rgb(255, 0, 0);fill-opacity:0;fill-rule:evenodd;stroke:rgb(0, 255, 33);stroke-width:1;" d="M 439.212, 300.627 L 446.911, 289.884 L 461.594, 295.971 L 500.806, 312.623 L 497.583, 325.336 L 439.212, 300.627 z "/>
<path style="fill:rgb(0, 255, 0);fill-opacity:0;fill-rule:evenodd;stroke:rgb(0, 255, 33);stroke-width:1;" d="M 552.551, 303.85 L 555.237, 291.316 L 619.338, 299.373 L 610.922, 311.191 L 552.551, 303.85 z "/>
<path style="fill:rgb(0, 0, 255);fill-opacity:0;fill-rule:evenodd;stroke:rgb(0, 255, 33);stroke-width:1;" d="M 158.639, 483.617 L 159.534, 482.184 L 162.578, 478.066 L 199.642, 485.586 L 210.922, 489.167 L 226.321, 493.107 L 215.936, 507.431 L 158.639, 483.617 z "/>
<path style="fill:rgb(255, 255, 0);fill-opacity:0;fill-rule:evenodd;stroke:rgb(0, 255, 33);stroke-width:1;" d="M 231.513, 177.619 L 241.182, 164.19 L 279.499, 180.125 L 284.87, 182.453 L 275.201, 195.882 L 231.513, 177.619 z "/>
<path style="fill:rgb(255, 0, 0);fill-opacity:0;fill-rule:evenodd;stroke:rgb(0, 255, 33);stroke-width:1;" d="M 808.057, 424.888 L 816.115, 413.787 L 868.039, 435.452 L 859.803, 446.732 L 849.597, 442.435 L 834.199, 435.81 L 808.057, 424.888 z "/>
<path style="fill:rgb(0, 255, 0);fill-opacity:0;fill-rule:evenodd;stroke:rgb(0, 255, 33);stroke-width:1;" d="M 999.284, 413.608 L 1028.47, 373.679 L 1042.97, 379.767 L 1013.79, 419.696 L 999.284, 413.608 z "/>
<path style="fill:rgb(0, 0, 255);fill-opacity:0;fill-rule:evenodd;stroke:rgb(0, 255, 33);stroke-width:1;" d="M 333.393, 269.472 L 355.237, 239.212 L 359.355, 233.662 L 360.43, 234.02 L 364.727, 228.111 L 377.619, 233.483 L 373.5, 239.033 L 347.18, 275.201 L 333.393, 269.472 z "/>
<path style="fill:rgb(255, 255, 0);fill-opacity:0;fill-rule:evenodd;stroke:rgb(0, 255, 33);stroke-width:1;" d="M 179.409, 582.99 L 210.206, 540.913 L 208.057, 539.839 L 209.132, 538.406 L 210.743, 536.079 L 228.111, 543.599 L 227.037, 545.21 L 225.425, 547.18 L 223.098, 546.285 L 208.236, 566.697 L 205.551, 565.622 L 197.493, 576.544 L 189.615, 587.287 L 179.409, 582.99 z "/>
<path style="fill:rgb(255, 0, 0);fill-opacity:0;fill-rule:evenodd;stroke:rgb(0, 255, 33);stroke-width:1;" d="M 115.309, 720.68 L 143.42, 682.005 L 157.565, 688.093 L 156.312, 689.705 L 129.454, 726.768 L 115.309, 720.68 z "/>
<path style="fill:rgb(0, 255, 0);fill-opacity:0;fill-rule:evenodd;stroke:rgb(0, 255, 33);stroke-width:1;" d="M 796.777, 133.751 L 822.202, 98.8362 L 823.456, 96.8666 L 838.317, 103.133 L 811.638, 140.018 L 796.777, 133.751 z "/>
<path style="fill:rgb(0, 0, 255);fill-opacity:0;fill-rule:evenodd;stroke:rgb(0, 255, 33);stroke-width:1;" d="M 548.791, 315.667 L 551.298, 303.671 L 552.551, 303.85 L 610.922, 311.191 L 602.686, 322.471 L 548.791, 315.667 z "/>
<path style="fill:rgb(255, 255, 0);fill-opacity:0;fill-rule:evenodd;stroke:rgb(0, 255, 33);stroke-width:1;" d="M 1000.9, 362.041 L 1029.19, 323.366 L 1042.79, 329.096 L 1014.5, 367.771 L 1010.38, 365.98 L 1000.9, 362.041 z "/>
<path style="fill:rgb(255, 0, 0);fill-opacity:0;fill-rule:evenodd;stroke:rgb(0, 255, 33);stroke-width:1;" d="M 324.978, 348.254 L 325.515, 347.538 L 351.298, 311.907 L 365.622, 317.816 L 340.376, 352.551 L 339.302, 354.163 L 324.978, 348.254 z "/>
<path style="fill:rgb(0, 255, 0);fill-opacity:0;fill-rule:evenodd;stroke:rgb(0, 255, 33);stroke-width:1;" d="M 296.509, 336.437 L 323.008, 299.91 L 337.332, 305.998 L 311.37, 341.629 L 310.833, 342.525 L 296.509, 336.437 z "/>
<path style="fill:rgb(0, 0, 255);fill-opacity:0;fill-rule:evenodd;stroke:rgb(0, 255, 33);stroke-width:1;" d="M 807.162, 195.345 L 832.229, 160.788 L 847.09, 167.055 L 843.688, 171.71 L 833.483, 185.676 L 822.919, 200.358 L 822.023, 201.611 L 807.162, 195.345 z "/>
<path style="fill:rgb(255, 255, 0);fill-opacity:0;fill-rule:evenodd;stroke:rgb(0, 255, 33);stroke-width:1;" d="M 403.76, 299.015 L 423.098, 272.337 L 426.679, 264.637 L 441.54, 267.86 L 439.212, 275.022 L 437.959, 278.603 L 418.621, 305.282 L 403.76, 299.015 z "/>
<path style="fill:rgb(255, 0, 0);fill-opacity:0;fill-rule:evenodd;stroke:rgb(0, 255, 33);stroke-width:1;" d="M 282.543, 330.707 L 309.042, 294.181 L 323.008, 299.91 L 296.509, 336.437 L 282.543, 330.707 z "/>
<path style="fill:rgb(0, 255, 0);fill-opacity:0;fill-rule:evenodd;stroke:rgb(0, 255, 33);stroke-width:1;" d="M 267.502, 378.693 L 269.651, 375.828 L 294.36, 341.808 L 308.147, 347.538 L 306.535, 349.687 L 281.289, 384.602 L 267.502, 378.693 z "/>
<path style="fill:rgb(0, 0, 255);fill-opacity:0;fill-rule:evenodd;stroke:rgb(0, 255, 33);stroke-width:1;" d="M 262.131, 239.57 L 271.083, 227.037 L 287.019, 205.013 L 301.701, 211.28 L 276.813, 245.658 L 262.131, 239.57 z "/>
<path style="fill:rgb(255, 255, 0);fill-opacity:0;fill-rule:evenodd;stroke:rgb(0, 255, 33);stroke-width:1;" d="M 546.106, 328.38 L 548.791, 315.667 L 602.686, 322.471 L 599.821, 326.231 L 593.912, 334.288 L 547.18, 328.38 L 546.106, 328.38 z "/>
<path style="fill:rgb(255, 0, 0);fill-opacity:0;fill-rule:evenodd;stroke:rgb(0, 255, 33);stroke-width:1;" d="M 347.18, 275.201 L 373.5, 239.033 L 387.466, 244.942 L 382.811, 251.209 L 361.146, 281.11 L 347.18, 275.201 z "/>
<path style="fill:rgb(0, 255, 0);fill-opacity:0;fill-rule:evenodd;stroke:rgb(0, 255, 33);stroke-width:1;" d="M 311.37, 341.629 L 337.332, 305.998 L 351.298, 311.907 L 325.515, 347.538 L 311.37, 341.629 z "/>
<path style="fill:rgb(0, 0, 255);fill-opacity:0;fill-rule:evenodd;stroke:rgb(0, 255, 33);stroke-width:1;" d="M 388.541, 292.569 L 408.953, 264.458 L 411.28, 261.056 L 426.679, 264.637 L 423.098, 272.337 L 403.76, 299.015 L 388.541, 292.569 z "/>
<path style="fill:rgb(255, 255, 0);fill-opacity:0;fill-rule:evenodd;stroke:rgb(0, 255, 33);stroke-width:1;" d="M 751.119, 171.889 L 777.081, 136.079 L 790.689, 141.808 L 785.855, 148.612 L 766.159, 175.649 L 764.727, 177.619 L 751.119, 171.889 z "/>
<path style="fill:rgb(255, 0, 0);fill-opacity:0;fill-rule:evenodd;stroke:rgb(0, 255, 33);stroke-width:1;" d="M 368.487, 221.844 L 391.047, 190.689 L 406.625, 197.314 L 384.064, 228.469 L 368.487, 221.844 z "/>
<path style="fill:rgb(0, 255, 0);fill-opacity:0;fill-rule:evenodd;stroke:rgb(0, 255, 33);stroke-width:1;" d="M 309.4, 396.24 L 334.646, 361.504 L 348.254, 367.234 L 323.008, 401.97 L 309.4, 396.24 z "/>
<path style="fill:rgb(0, 0, 255);fill-opacity:0;fill-rule:evenodd;stroke:rgb(0, 255, 33);stroke-width:1;" d="M 760.251, 123.903 L 764.19, 118.353 L 789.973, 82.9006 L 801.611, 87.735 L 800.179, 89.5255 L 773.859, 125.873 L 771.71, 128.738 L 768.666, 127.484 L 760.251, 123.903 z "/>
<path style="fill:rgb(255, 255, 0);fill-opacity:0;fill-rule:evenodd;stroke:rgb(0, 255, 33);stroke-width:1;" d="M 952.193, 530.17 L 954.521, 527.126 L 976.544, 496.688 L 990.51, 502.417 L 974.217, 524.978 L 965.98, 536.079 L 952.193, 530.17 z "/>
<path style="fill:rgb(255, 0, 0);fill-opacity:0;fill-rule:evenodd;stroke:rgb(0, 255, 33);stroke-width:1;" d="M 352.551, 218.979 L 377.261, 184.96 L 391.047, 190.689 L 368.487, 221.844 L 366.338, 224.709 L 352.551, 218.979 z "/>
<path style="fill:rgb(0, 255, 0);fill-opacity:0;fill-rule:evenodd;stroke:rgb(0, 255, 33);stroke-width:1;" d="M 380.304, 233.483 L 384.064, 228.469 L 406.625, 197.314 L 419.517, 202.686 L 393.196, 238.854 L 380.304, 233.483 z "/>
<path style="fill:rgb(0, 0, 255);fill-opacity:0;fill-rule:evenodd;stroke:rgb(0, 255, 33);stroke-width:1;" d="M 728.201, 162.399 L 755.953, 124.261 L 757.207, 122.65 L 760.251, 123.903 L 768.666, 127.484 L 765.98, 131.244 L 739.839, 167.234 L 728.201, 162.399 z "/>
<path style="fill:rgb(255, 255, 0);fill-opacity:0;fill-rule:evenodd;stroke:rgb(0, 255, 33);stroke-width:1;" d="M 71.0833, 96.5085 L 93.6437, 65.1746 L 108.326, 71.4414 L 107.789, 71.9785 L 85.7654, 102.596 L 71.0833, 96.5085 z "/>
<path style="fill:rgb(255, 0, 0);fill-opacity:0;fill-rule:evenodd;stroke:rgb(0, 255, 33);stroke-width:1;" d="M 326.589, 206.088 L 350.045, 173.679 L 364.19, 179.409 L 340.555, 211.996 L 332.14, 208.415 L 326.589, 206.088 z "/>
<path style="fill:rgb(0, 255, 0);fill-opacity:0;fill-rule:evenodd;stroke:rgb(0, 255, 33);stroke-width:1;" d="M 448.523, 287.735 L 455.148, 278.424 L 507.252, 289.884 L 504.566, 300.09 L 504.208, 299.91 L 463.563, 290.958 L 448.523, 287.735 z "/>
<path style="fill:rgb(0, 0, 255);fill-opacity:0;fill-rule:evenodd;stroke:rgb(0, 255, 33);stroke-width:1;" d="M 318.89, 263.384 L 340.734, 233.124 L 355.237, 239.212 L 333.393, 269.472 L 318.89, 263.384 z "/>
<path style="fill:rgb(255, 255, 0);fill-opacity:0;fill-rule:evenodd;stroke:rgb(0, 255, 33);stroke-width:1;" d="M 854.611, 563.295 L 857.654, 558.818 L 877.35, 531.961 L 891.316, 537.869 L 868.577, 569.024 L 854.611, 563.295 z "/>
<path style="fill:rgb(255, 0, 0);fill-opacity:0;fill-rule:evenodd;stroke:rgb(0, 255, 33);stroke-width:1;" d="M 911.549, 585.855 L 923.903, 569.024 L 934.109, 555.058 L 948.075, 560.967 L 925.694, 591.764 L 911.549, 585.855 z "/>
<path style="fill:rgb(0, 255, 0);fill-opacity:0;fill-rule:evenodd;stroke:rgb(0, 255, 33);stroke-width:1;" d="M 868.577, 569.024 L 891.316, 537.869 L 905.282, 543.778 L 895.434, 557.028 L 882.363, 574.933 L 868.577, 569.024 z "/>
<path style="fill:rgb(0, 0, 255);fill-opacity:0;fill-rule:evenodd;stroke:rgb(0, 255, 33);stroke-width:1;" d="M 558.639, 279.499 L 562.757, 261.952 L 612.355, 282.901 L 609.848, 285.944 L 558.639, 279.499 z "/>
<path style="fill:rgb(255, 255, 0);fill-opacity:0;fill-rule:evenodd;stroke:rgb(0, 255, 33);stroke-width:1;" d="M 826.5, 548.612 L 847.807, 519.427 L 862.847, 525.694 L 848.165, 545.927 L 844.942, 544.673 L 838.496, 553.447 L 834.915, 554.342 L 828.827, 551.656 L 826.5, 548.612 z "/>
<path style="fill:rgb(255, 0, 0);fill-opacity:0;fill-rule:evenodd;stroke:rgb(0, 255, 33);stroke-width:1;" d="M 361.146, 281.11 L 382.811, 251.209 L 396.777, 257.117 L 395.524, 258.729 L 375.112, 287.019 L 361.146, 281.11 z "/>
<path style="fill:rgb(0, 255, 0);fill-opacity:0;fill-rule:evenodd;stroke:rgb(0, 255, 33);stroke-width:1;" d="M 418.621, 305.282 L 437.959, 278.603 L 439.212, 275.022 L 442.793, 275.739 L 455.148, 278.424 L 448.523, 287.735 L 446.911, 289.884 L 439.212, 300.627 L 431.871, 310.833 L 418.621, 305.282 z "/>
<path style="fill:rgb(0, 0, 255);fill-opacity:0;fill-rule:evenodd;stroke:rgb(0, 255, 33);stroke-width:1;" d="M 547.18, 328.38 L 593.912, 334.288 L 585.497, 345.748 L 548.433, 341.271 L 547.18, 328.38 z "/>
<path style="fill:rgb(255, 255, 0);fill-opacity:0;fill-rule:evenodd;stroke:rgb(0, 255, 33);stroke-width:1;" d="M 739.839, 167.234 L 765.98, 131.244 L 777.081, 136.079 L 751.119, 171.889 L 739.839, 167.234 z "/>
<path style="fill:rgb(255, 0, 0);fill-opacity:0;fill-rule:evenodd;stroke:rgb(0, 255, 33);stroke-width:1;" d="M 434.557, 175.828 L 454.611, 148.075 L 455.506, 148.433 L 457.296, 145.927 L 469.83, 151.119 L 464.1, 158.818 L 447.807, 181.379 L 434.557, 175.828 z "/>
<path style="fill:rgb(0, 255, 0);fill-opacity:0;fill-rule:evenodd;stroke:rgb(0, 255, 33);stroke-width:1;" d="M 766.159, 175.649 L 785.855, 148.612 L 800.358, 154.7 L 780.842, 181.737 L 766.159, 175.649 z "/>
<path style="fill:rgb(0, 0, 255);fill-opacity:0;fill-rule:evenodd;stroke:rgb(0, 255, 33);stroke-width:1;" d="M 843.151, 552.731 L 848.165, 545.927 L 862.847, 525.694 L 877.35, 531.961 L 857.654, 558.818 L 843.151, 552.731 z "/>
<path style="fill:rgb(255, 255, 0);fill-opacity:0;fill-rule:evenodd;stroke:rgb(0, 255, 33);stroke-width:1;" d="M 988.004, 481.11 L 1008.42, 452.999 L 1008.95, 452.283 L 1023.28, 458.371 L 1007.34, 480.394 L 1003.04, 478.603 L 998.209, 485.407 L 988.004, 481.11 z "/>
<path style="fill:rgb(255, 0, 0);fill-opacity:0;fill-rule:evenodd;stroke:rgb(0, 255, 33);stroke-width:1;" d="M 375.112, 287.019 L 395.524, 258.729 L 408.953, 264.458 L 388.541, 292.569 L 375.112, 287.019 z "/>
<path style="fill:rgb(0, 255, 0);fill-opacity:0;fill-rule:evenodd;stroke:rgb(0, 255, 33);stroke-width:1;" d="M 925.694, 591.764 L 948.075, 560.967 L 959.355, 565.622 L 958.639, 566.517 L 939.66, 592.659 L 936.795, 596.419 L 925.694, 591.764 z "/>
<path style="fill:rgb(0, 0, 255);fill-opacity:0;fill-rule:evenodd;stroke:rgb(0, 255, 33);stroke-width:1;" d="M 700.985, 287.377 L 722.829, 257.475 L 733.572, 262.131 L 711.728, 291.853 L 700.985, 287.377 z "/>
<path style="fill:rgb(255, 255, 0);fill-opacity:0;fill-rule:evenodd;stroke:rgb(0, 255, 33);stroke-width:1;" d="M 447.807, 181.379 L 464.1, 158.818 L 478.424, 164.727 L 462.131, 187.287 L 447.807, 181.379 z "/>
<path style="fill:rgb(255, 0, 0);fill-opacity:0;fill-rule:evenodd;stroke:rgb(0, 255, 33);stroke-width:1;" d="M 792.301, 749.687 L 810.922, 723.366 L 823.277, 728.559 L 804.655, 754.7 L 792.301, 749.687 z "/>
<path style="fill:rgb(0, 255, 0);fill-opacity:0;fill-rule:evenodd;stroke:rgb(0, 255, 33);stroke-width:1;" d="M 939.66, 592.659 L 958.639, 566.517 L 970.098, 571.352 L 964.369, 579.051 L 957.565, 588.362 L 950.94, 597.493 L 944.494, 594.628 L 939.66, 592.659 z "/>
<path style="fill:rgb(0, 0, 255);fill-opacity:0;fill-rule:evenodd;stroke:rgb(0, 255, 33);stroke-width:1;" d="M 461.594, 295.971 L 463.563, 290.958 L 504.208, 299.91 L 500.806, 312.623 L 461.594, 295.971 z "/>
<path style="fill:rgb(255, 255, 0);fill-opacity:0;fill-rule:evenodd;stroke:rgb(0, 255, 33);stroke-width:1;" d="M 964.369, 579.051 L 970.098, 571.352 L 1003.94, 585.676 L 998.209, 593.375 L 971.889, 582.095 L 964.369, 579.051 z "/>
<path style="fill:rgb(255, 0, 0);fill-opacity:0;fill-rule:evenodd;stroke:rgb(0, 255, 33);stroke-width:1;" d="M 964.906, 591.585 L 971.889, 582.095 L 998.209, 593.375 L 991.406, 602.686 L 964.906, 591.585 z "/>
<path style="fill:rgb(0, 255, 0);fill-opacity:0;fill-rule:evenodd;stroke:rgb(0, 255, 33);stroke-width:1;" d="M 44.4047, 524.261 L 51.2086, 514.951 L 73.4109, 524.261 L 66.607, 533.572 L 44.4047, 524.261 z "/>
<path style="fill:rgb(0, 0, 255);fill-opacity:0;fill-rule:evenodd;stroke:rgb(0, 255, 33);stroke-width:1;" d="M 505.103, 687.914 L 505.103, 686.661 L 505.461, 685.407 L 505.998, 684.333 L 506.893, 683.259 L 507.968, 682.363 L 509.221, 681.468 L 510.474, 680.752 L 512.086, 680.394 L 513.697, 680.036 L 515.309, 679.857 L 516.92, 680.036 L 518.532, 680.215 L 519.964, 680.752 L 521.397, 681.289 L 522.65, 682.184 L 523.724, 683.08 L 524.62, 684.154 L 525.336, 685.228 L 525.694, 686.482 L 525.873, 687.556 L 525.694, 688.809 L 525.336, 690.063 L 524.799, 691.316 L 523.903, 692.39 L 523.008, 693.286 L 521.755, 694.181 L 520.322, 694.718 L 518.89, 695.255 L 517.278, 695.613 L 515.667, 695.613 L 514.056, 695.613 L 512.444, 695.434 L 510.833, 694.897 L 509.4, 694.181 L 508.147, 693.465 L 507.073, 692.569 L 506.177, 691.495 L 505.64, 690.421 L 505.103, 689.167 L 505.103, 687.914 z "/>
<path style="fill:rgb(255, 255, 0);fill-opacity:0;fill-rule:evenodd;stroke:rgb(0, 255, 33);stroke-width:1;" d="M 367.234, 687.914 L 367.413, 686.661 L 367.771, 685.586 L 368.308, 684.333 L 369.203, 683.259 L 370.098, 682.363 L 371.352, 681.468 L 372.784, 680.931 L 374.217, 680.394 L 375.828, 680.036 L 377.44, 679.857 L 379.051, 680.036 L 380.662, 680.215 L 382.274, 680.752 L 383.706, 681.289 L 384.96, 682.184 L 386.034, 683.08 L 386.929, 684.154 L 387.466, 685.228 L 388.004, 686.482 L 388.183, 687.735 L 388.004, 688.988 L 387.645, 690.063 L 387.108, 691.316 L 386.213, 692.39 L 385.139, 693.286 L 383.885, 694.181 L 382.632, 694.897 L 381.021, 695.255 L 379.409, 695.613 L 377.798, 695.792 L 376.186, 695.613 L 374.575, 695.434 L 373.142, 694.897 L 371.71, 694.36 L 370.457, 693.465 L 369.382, 692.569 L 368.487, 691.495 L 367.771, 690.421 L 367.413, 689.167 L 367.234, 687.914 z "/>
<path style="fill:rgb(255, 0, 0);fill-opacity:0;fill-rule:evenodd;stroke:rgb(0, 255, 33);stroke-width:1;" d="M 627.932, 508.863 L 635.273, 499.552 L 638.317, 500.985 L 640.645, 497.941 L 652.641, 503.491 L 646.374, 512.981 L 642.793, 511.37 L 640.645, 514.235 L 639.033, 513.518 L 638.675, 513.876 L 627.932, 508.863 z "/>
<path style="fill:rgb(0, 255, 0);fill-opacity:0;fill-rule:evenodd;stroke:rgb(0, 255, 33);stroke-width:1;" d="M 965.622, 536.616 L 965.98, 536.079 L 974.217, 524.978 L 980.842, 527.842 L 986.929, 530.349 L 978.514, 541.987 L 965.622, 536.616 z "/>
<path style="fill:rgb(0, 0, 255);fill-opacity:0;fill-rule:evenodd;stroke:rgb(0, 255, 33);stroke-width:1;" d="M 14.5031, 572.426 L 35.094, 543.957 L 48.8809, 549.687 L 50.1343, 548.075 L 109.937, 573.321 L 108.863, 574.933 L 115.846, 577.977 L 111.728, 583.527 L 124.261, 588.899 L 128.38, 583.169 L 209.132, 617.368 L 202.507, 626.321 L 188.362, 645.658 L 14.5031, 572.426 z "/>
<path style="fill:rgb(255, 255, 0);fill-opacity:0;fill-rule:evenodd;stroke:rgb(0, 255, 33);stroke-width:1;" d="M 32.9454, 752.014 L 43.3303, 737.69 L 48.3438, 738.585 L 57.4754, 726.052 L 102.059, 664.637 L 143.42, 682.005 L 115.309, 720.68 L 78.7825, 771.173 L 32.9454, 752.014 z "/>
<path style="fill:rgb(255, 0, 0);fill-opacity:0;fill-rule:evenodd;stroke:rgb(0, 255, 33);stroke-width:1;" d="M 6.80394, 210.564 L 30.9758, 177.44 L 129.633, 218.979 L 101.522, 257.296 L 101.164, 256.938 L 51.9248, 236.168 L 59.2659, 226.141 L 48.3438, 221.665 L 44.7628, 226.679 L 6.80394, 210.564 z "/>
<path style="fill:rgb(0, 255, 0);fill-opacity:0;fill-rule:evenodd;stroke:rgb(0, 255, 33);stroke-width:1;" d="M 0, 493.286 L 25.6043, 458.013 L 113.697, 495.255 L 111.907, 497.762 L 83.0797, 537.153 L 68.7556, 531.244 L 73.769, 524.44 L 73.4109, 524.261 L 51.2086, 514.951 L 39.5703, 509.937 L 3.76007, 494.718 L 0, 493.286 z "/>
<path style="fill:rgb(0, 0, 255);fill-opacity:0;fill-rule:evenodd;stroke:rgb(0, 255, 33);stroke-width:1;" d="M 39.5703, 88.0931 L 64.8165, 53.1782 L 93.6437, 65.1746 L 71.0833, 96.5085 L 68.3975, 100.09 L 39.5703, 88.0931 z "/>
<path style="fill:rgb(255, 255, 0);fill-opacity:0;fill-rule:evenodd;stroke:rgb(0, 255, 33);stroke-width:1;" d="M 42.077, 719.785 L 86.6607, 658.371 L 102.059, 664.637 L 57.4754, 726.052 L 42.077, 719.785 z "/>
<path style="fill:rgb(255, 0, 0);fill-opacity:0;fill-rule:evenodd;stroke:rgb(0, 255, 33);stroke-width:1;" d="M 313.518, 67.6813 L 339.123, 32.2292 L 550.045, 120.68 L 539.839, 160.43 L 492.569, 140.734 L 482.363, 136.437 L 478.782, 141.45 L 469.651, 137.69 L 473.948, 131.603 L 434.736, 115.13 L 421.128, 133.93 L 454.611, 148.075 L 434.557, 175.828 L 395.166, 159.355 L 424.53, 118.89 L 418.979, 116.383 L 421.486, 112.981 L 313.518, 67.6813 z "/>
<path style="fill:rgb(0, 255, 0);fill-opacity:0;fill-rule:evenodd;stroke:rgb(0, 255, 33);stroke-width:1;" d="M 869.83, 84.5121 L 894.539, 50.4924 L 900.985, 41.7189 L 887.019, 35.8102 L 891.137, 30.0806 L 912.086, 1.25336 L 912.981, 0 L 1011.46, 41.3608 L 982.99, 80.3939 L 949.508, 66.2489 L 940.018, 62.3098 L 943.062, 58.1916 L 916.204, 46.9114 L 907.431, 58.7287 L 884.333, 90.5998 L 869.83, 84.5121 z "/>
<path style="fill:rgb(0, 0, 255);fill-opacity:0;fill-rule:evenodd;stroke:rgb(0, 255, 33);stroke-width:1;" d="M 148.075, 57.4754 L 148.612, 56.5801 L 175.112, 20.4118 L 177.798, 21.4861 L 180.842, 17.1889 L 189.078, 20.7699 L 181.916, 30.4387 L 200.537, 38.496 L 203.76, 34.1987 L 250.85, 54.0734 L 252.82, 54.9687 L 226.679, 90.7789 L 148.075, 57.4754 z "/>
<path style="fill:rgb(255, 255, 0);fill-opacity:0;fill-rule:evenodd;stroke:rgb(0, 255, 33);stroke-width:1;" d="M 612.355, 61.7726 L 622.56, 24.53 L 626.141, 20.949 L 629.722, 19.5166 L 634.378, 19.6956 L 695.613, 45.2999 L 673.948, 75.2014 L 663.742, 70.9042 L 656.938, 80.3939 L 612.355, 61.7726 z "/>
<path style="fill:rgb(255, 0, 0);fill-opacity:0;fill-rule:evenodd;stroke:rgb(0, 255, 33);stroke-width:1;" d="M 482.722, 58.3706 L 507.61, 23.9928 L 569.024, 49.7762 L 564.906, 64.8165 L 516.025, 44.4047 L 514.056, 47.2695 L 510.833, 46.0161 L 497.404, 64.4584 L 482.722, 58.3706 z "/>
<path style="fill:rgb(0, 255, 0);fill-opacity:0;fill-rule:evenodd;stroke:rgb(0, 255, 33);stroke-width:1;" d="M 771.173, 42.9722 L 771.71, 42.077 L 797.314, 6.98299 L 826.321, 19.1585 L 800.179, 55.1477 L 771.173, 42.9722 z "/>
<path style="fill:rgb(0, 0, 255);fill-opacity:0;fill-rule:evenodd;stroke:rgb(0, 255, 33);stroke-width:1;" d="M 457.296, 47.6276 L 457.475, 47.2695 L 481.826, 13.7869 L 482.184, 13.4288 L 507.61, 23.9928 L 482.722, 58.3706 L 457.296, 47.6276 z "/>
<path style="fill:rgb(255, 255, 0);fill-opacity:0;fill-rule:evenodd;stroke:rgb(0, 255, 33);stroke-width:1;" d="M 813.071, 60.5192 L 838.138, 25.7833 L 852.82, 32.0501 L 827.574, 66.786 L 813.071, 60.5192 z "/>
<path style="fill:rgb(255, 0, 0);fill-opacity:0;fill-rule:evenodd;stroke:rgb(0, 255, 33);stroke-width:1;" d="M 827.574, 66.786 L 852.82, 32.0501 L 853.357, 31.3339 L 867.502, 37.2426 L 866.428, 38.675 L 841.719, 72.6947 L 827.574, 66.786 z "/>
<path style="fill:rgb(0, 255, 0);fill-opacity:0;fill-rule:evenodd;stroke:rgb(0, 255, 33);stroke-width:1;" d="M 800.179, 55.1477 L 826.321, 19.1585 L 839.212, 24.53 L 838.138, 25.7833 L 813.071, 60.5192 L 800.179, 55.1477 z "/>
</svg>