<?xml version="1.0" encoding="iso-8859-1" standalone="no"?>
<!DOCTYPE svg PUBLIC "-//W3C//DTD SVG 1.0//EN" "http://www.w3.org/TR/2001/REC-SVG-20010904/DTD/svg10.dtd">
<svg xmlns="http://www.w3.org/2000/svg" width="1028" height="800">
<path style="fill:rgb(255, 0, 0);fill-opacity:0;fill-rule:evenodd;stroke:rgb(0, 255, 15);stroke-width:1;" d="M 412.693, 123.05 L 473.865, 38.431 L 584.927, 84.9714 L 641.164, 108.418 L 635.522, 116.351 L 634.817, 115.998 L 619.48, 137.329 L 590.392, 125.165 L 572.234, 150.022 L 550.375, 180.696 L 524.46, 170.119 L 412.693, 123.05 z "/>
<path style="fill:rgb(0, 255, 0);fill-opacity:0;fill-rule:evenodd;stroke:rgb(0, 255, 15);stroke-width:1;" d="M 256.324, 345.879 L 261.613, 338.299 L 317.144, 262.142 L 389.246, 292.287 L 456.589, 320.846 L 438.255, 343.94 L 474.041, 360.511 L 434.024, 415.161 L 430.674, 419.216 L 256.324, 345.879 z M 309.74, 337.594 L 404.407, 376.025 L 402.115, 379.198 L 410.93, 382.724 L 438.255, 343.94 L 371.441, 316.792 L 367.034, 322.785 L 331.247, 307.801 L 309.74, 337.594 z "/>
<path style="fill:rgb(0, 0, 255);fill-opacity:0;fill-rule:evenodd;stroke:rgb(0, 255, 15);stroke-width:1;" d="M 412.693, 123.05 L 473.865, 38.431 L 584.927, 84.9714 L 563.596, 114.412 L 508.065, 91.1415 L 490.084, 115.822 L 546.32, 138.74 L 524.46, 170.119 L 412.693, 123.05 z "/>
<path style="fill:rgb(255, 255, 0);fill-opacity:0;fill-rule:evenodd;stroke:rgb(0, 255, 15);stroke-width:1;" d="M 365.8, 536.095 L 398.766, 490.436 L 385.015, 484.619 L 395.416, 470.339 L 395.769, 470.516 L 414.103, 445.13 L 496.783, 479.859 L 467.166, 520.405 L 459.762, 530.983 L 473.689, 536.8 L 448.832, 571 L 365.8, 536.095 z "/>
<path style="fill:rgb(255, 0, 0);fill-opacity:0;fill-rule:evenodd;stroke:rgb(0, 255, 15);stroke-width:1;" d="M 216.483, 616.836 L 220.009, 612.076 L 244.16, 578.757 L 271.485, 590.216 L 274.658, 585.809 L 287.88, 591.274 L 296.518, 579.286 L 283.297, 573.821 L 304.275, 544.91 L 305.509, 543.323 L 361.393, 566.77 L 326.84, 614.191 L 340.591, 620.009 L 313.442, 657.558 L 216.483, 616.836 z "/>
<path style="fill:rgb(0, 255, 0);fill-opacity:0;fill-rule:evenodd;stroke:rgb(0, 255, 15);stroke-width:1;" d="M 719.083, 251.036 L 725.077, 242.75 L 729.661, 236.404 L 731.6, 233.583 L 738.651, 224.063 L 753.989, 230.41 L 774.967, 199.207 L 777.611, 195.505 L 793.125, 173.997 L 845.483, 195.857 L 846.717, 194.094 L 863.993, 201.322 L 845.659, 226.884 L 802.292, 286.294 L 786.955, 279.947 L 788.541, 277.832 L 739.885, 257.206 L 738.123, 259.674 L 724.372, 253.856 L 724.725, 253.327 L 719.083, 251.036 z "/>
<path style="fill:rgb(0, 0, 255);fill-opacity:0;fill-rule:evenodd;stroke:rgb(0, 255, 15);stroke-width:1;" d="M 449.361, 426.267 L 478.978, 383.958 L 491.494, 389.07 L 503.129, 372.675 L 520.758, 347.995 L 632.173, 394.711 L 614.015, 419.568 L 555.663, 394.888 L 544.381, 411.106 L 532.922, 406.523 L 521.992, 422.036 L 524.284, 422.918 L 505.597, 449.361 L 449.361, 426.267 z "/>
<path style="fill:rgb(255, 255, 0);fill-opacity:0;fill-rule:evenodd;stroke:rgb(0, 255, 15);stroke-width:1;" d="M 95.0198, 559.542 L 122.345, 521.816 L 132.041, 508.594 L 142.442, 493.962 L 153.019, 479.683 L 181.049, 491.494 L 170.648, 505.773 L 160.071, 520.405 L 150.375, 533.627 L 146.673, 538.916 L 156.721, 543.147 L 157.779, 541.736 L 165.535, 545.086 L 166.77, 543.499 L 169.59, 544.733 L 171.353, 542.265 L 177.171, 543.499 L 181.225, 546.496 L 179.462, 548.964 L 181.578, 549.846 L 180.344, 551.609 L 188.277, 554.958 L 187.395, 556.368 L 201.675, 562.362 L 205.553, 557.074 L 218.422, 562.362 L 247.157, 574.526 L 244.16, 578.757 L 220.009, 612.076 L 194.799, 601.498 L 188.277, 598.678 L 175.584, 593.389 L 164.301, 588.629 L 157.779, 585.809 L 138.563, 577.876 L 131.864, 575.055 L 120.758, 570.295 L 108.065, 565.007 L 101.543, 562.186 L 95.0198, 559.542 z "/>
<path style="fill:rgb(255, 0, 0);fill-opacity:0;fill-rule:evenodd;stroke:rgb(0, 255, 15);stroke-width:1;" d="M 397.003, 692.464 L 400.176, 687.88 L 406.875, 678.713 L 416.219, 666.02 L 418.158, 663.2 L 427.677, 650.154 L 437.55, 654.209 L 447.774, 640.106 L 462.935, 619.127 L 468.224, 612.076 L 528.338, 637.285 L 527.104, 639.048 L 497.135, 680.3 L 466.99, 721.904 L 397.003, 692.464 z "/>
<path style="fill:rgb(0, 255, 0);fill-opacity:0;fill-rule:evenodd;stroke:rgb(0, 255, 15);stroke-width:1;" d="M 606.258, 783.076 L 621.595, 762.098 L 625.474, 763.684 L 634.112, 751.873 L 632.173, 748.524 L 606.435, 737.77 L 630.586, 704.628 L 640.282, 708.682 L 637.99, 712.032 L 663.2, 722.609 L 668.136, 724.548 L 673.953, 723.314 L 683.649, 709.916 L 703.922, 718.378 L 705.862, 715.734 L 714.147, 719.083 L 712.032, 721.904 L 725.782, 727.721 L 727.721, 724.901 L 736.007, 728.427 L 734.068, 731.071 L 759.454, 741.825 L 737.77, 771.617 L 718.026, 763.332 L 715.91, 766.152 L 706.214, 761.922 L 708.153, 759.277 L 693.169, 752.931 L 695.284, 749.934 L 684.531, 745.527 L 679.418, 746.761 L 665.315, 765.8 L 673.072, 769.149 L 668.136, 776.025 L 664.786, 774.614 L 646.276, 800 L 606.258, 783.076 z "/>
<path style="fill:rgb(0, 0, 255);fill-opacity:0;fill-rule:evenodd;stroke:rgb(0, 255, 15);stroke-width:1;" d="M 226.884, 477.391 L 234.288, 466.99 L 257.735, 434.2 L 255.619, 433.319 L 285.236, 391.891 L 329.308, 410.225 L 303.57, 446.364 L 297.576, 443.896 L 293.698, 449.361 L 299.515, 451.829 L 327.016, 463.112 L 296.342, 505.95 L 226.884, 477.391 z "/>
<path style="fill:rgb(255, 255, 0);fill-opacity:0;fill-rule:evenodd;stroke:rgb(0, 255, 15);stroke-width:1;" d="M 571, 475.981 L 600.793, 433.848 L 611.371, 423.27 L 614.015, 419.568 L 632.173, 394.711 L 688.762, 418.51 L 668.312, 445.306 L 646.628, 470.692 L 626.708, 498.898 L 571, 475.981 z "/>
<path style="fill:rgb(255, 0, 0);fill-opacity:0;fill-rule:evenodd;stroke:rgb(0, 255, 15);stroke-width:1;" d="M 699.691, 387.307 L 761.922, 303.041 L 838.784, 335.654 L 808.109, 377.611 L 766.152, 359.806 L 752.402, 353.989 L 728.779, 386.073 L 721.199, 396.474 L 699.691, 387.307 z "/>
<path style="fill:rgb(0, 255, 0);fill-opacity:0;fill-rule:evenodd;stroke:rgb(0, 255, 15);stroke-width:1;" d="M 344.116, 615.249 L 352.402, 603.614 L 356.633, 597.796 L 364.39, 587.395 L 369.678, 579.991 L 375.143, 572.587 L 376.554, 573.116 L 399.295, 582.636 L 444.249, 601.675 L 468.4, 611.723 L 468.224, 612.076 L 462.935, 619.127 L 447.774, 640.106 L 437.55, 654.209 L 427.677, 650.154 L 385.897, 632.702 L 344.116, 615.249 z "/>
<path style="fill:rgb(0, 0, 255);fill-opacity:0;fill-rule:evenodd;stroke:rgb(0, 255, 15);stroke-width:1;" d="M 487.087, 717.849 L 510.181, 685.765 L 497.135, 680.3 L 527.104, 639.048 L 543.499, 646.1 L 548.788, 656.853 L 551.08, 657.735 L 552.49, 661.966 L 558.308, 660.555 L 560.071, 661.26 L 563.244, 669.722 L 564.83, 669.37 L 566.417, 669.722 L 570.648, 680.476 L 568.709, 682.239 L 568.18, 682.415 L 571, 689.996 L 569.766, 691.406 L 564.654, 692.64 L 566.241, 697.576 L 569.238, 706.39 L 543.852, 741.648 L 487.087, 717.849 z "/>
<path style="fill:rgb(255, 255, 0);fill-opacity:0;fill-rule:evenodd;stroke:rgb(0, 255, 15);stroke-width:1;" d="M 388.189, 256.148 L 411.106, 224.24 L 399.295, 219.304 L 402.468, 214.896 L 404.76, 215.954 L 405.994, 214.191 L 404.055, 213.31 L 411.459, 202.909 L 413.751, 203.79 L 416.747, 199.736 L 426.443, 203.79 L 440.194, 184.751 L 427.149, 179.286 L 436.316, 166.77 L 449.185, 172.058 L 449.537, 171.529 L 477.391, 182.988 L 446.54, 225.65 L 474.57, 237.285 L 468.576, 245.571 L 443.896, 279.771 L 388.189, 256.148 z "/>
<path style="fill:rgb(255, 0, 0);fill-opacity:0;fill-rule:evenodd;stroke:rgb(0, 255, 15);stroke-width:1;" d="M 261.613, 338.299 L 317.144, 262.142 L 389.246, 292.287 L 371.441, 316.792 L 367.034, 322.785 L 331.247, 307.801 L 309.74, 337.594 L 297.929, 353.46 L 261.613, 338.299 z "/>
<path style="fill:rgb(0, 255, 0);fill-opacity:0;fill-rule:evenodd;stroke:rgb(0, 255, 15);stroke-width:1;" d="M 490.084, 115.822 L 508.065, 91.1415 L 563.596, 114.412 L 584.927, 84.9714 L 641.164, 108.418 L 635.522, 116.351 L 634.817, 115.998 L 619.48, 137.329 L 590.392, 125.165 L 572.234, 150.022 L 546.32, 138.74 L 490.084, 115.822 z "/>
<path style="fill:rgb(0, 0, 255);fill-opacity:0;fill-rule:evenodd;stroke:rgb(0, 255, 15);stroke-width:1;" d="M 54.8259, 712.737 L 84.9714, 671.309 L 103.834, 679.242 L 99.6033, 685.059 L 111.591, 690.172 L 114.941, 685.588 L 128.162, 691.053 L 124.636, 695.813 L 173.645, 716.615 L 147.73, 752.049 L 54.8259, 712.737 z "/>
<path style="fill:rgb(255, 255, 0);fill-opacity:0;fill-rule:evenodd;stroke:rgb(0, 255, 15);stroke-width:1;" d="M 833.142, 443.72 L 846.893, 425.033 L 879.683, 439.136 L 891.494, 444.249 L 895.02, 439.312 L 899.427, 441.252 L 895.901, 445.835 L 902.071, 448.656 L 919.7, 424.68 L 922.521, 425.914 L 923.755, 424.504 L 922.168, 419.216 L 921.639, 420.097 L 901.014, 411.283 L 910.71, 398.061 L 909.828, 397.708 L 915.646, 389.952 L 922.168, 381.137 L 924.989, 377.259 L 925.87, 377.611 L 929.396, 372.675 L 978.933, 393.83 L 956.192, 424.504 L 953.9, 427.677 L 948.083, 425.209 L 950.022, 422.389 L 944.733, 420.097 L 959.365, 400.353 L 941.384, 392.772 L 935.214, 401.234 L 936.448, 401.763 L 934.861, 403.702 L 933.627, 403.173 L 923.579, 416.924 L 928.515, 430.322 L 932.922, 432.085 L 902.424, 473.336 L 833.142, 443.72 z "/>
<path style="fill:rgb(255, 0, 0);fill-opacity:0;fill-rule:evenodd;stroke:rgb(0, 255, 15);stroke-width:1;" d="M 480.74, 240.106 L 485.5, 233.583 L 512.649, 244.866 L 523.579, 229.705 L 533.627, 230.762 L 543.147, 217.364 L 538.916, 215.602 L 543.323, 209.431 L 547.554, 211.194 L 546.849, 212.252 L 564.83, 219.656 L 564.478, 220.361 L 598.854, 234.817 L 599.383, 234.112 L 616.659, 241.34 L 600.088, 264.081 L 599.03, 265.668 L 587.748, 261.084 L 576.113, 276.95 L 544.381, 263.729 L 542.794, 266.02 L 480.74, 240.106 z "/>
<path style="fill:rgb(0, 255, 0);fill-opacity:0;fill-rule:evenodd;stroke:rgb(0, 255, 15);stroke-width:1;" d="M 550.375, 180.696 L 572.234, 150.022 L 590.392, 125.165 L 619.48, 137.329 L 618.599, 138.387 L 613.839, 144.91 L 609.96, 150.375 L 637.814, 162.01 L 634.817, 166.241 L 607.14, 204.319 L 550.375, 180.696 z "/>
<path style="fill:rgb(0, 0, 255);fill-opacity:0;fill-rule:evenodd;stroke:rgb(0, 255, 15);stroke-width:1;" d="M 448.832, 571 L 473.689, 536.8 L 459.762, 530.983 L 467.166, 520.405 L 481.974, 526.752 L 480.917, 528.162 L 494.491, 533.803 L 525.165, 491.67 L 539.268, 497.84 L 508.947, 539.797 L 522.874, 545.615 L 491.494, 588.806 L 448.832, 571 z "/>
<path style="fill:rgb(255, 255, 0);fill-opacity:0;fill-rule:evenodd;stroke:rgb(0, 255, 15);stroke-width:1;" d="M 505.597, 449.361 L 524.284, 422.918 L 537.682, 428.383 L 548.788, 412.693 L 600.793, 433.848 L 571, 475.981 L 505.597, 449.361 z "/>
<path style="fill:rgb(255, 0, 0);fill-opacity:0;fill-rule:evenodd;stroke:rgb(0, 255, 15);stroke-width:1;" d="M 218.422, 562.362 L 248.215, 521.463 L 304.275, 544.91 L 283.297, 573.821 L 274.658, 585.809 L 271.485, 590.216 L 244.16, 578.757 L 247.157, 574.526 L 218.422, 562.362 z "/>
<path style="fill:rgb(0, 255, 0);fill-opacity:0;fill-rule:evenodd;stroke:rgb(0, 255, 15);stroke-width:1;" d="M 487.087, 717.849 L 510.181, 685.765 L 497.135, 680.3 L 527.104, 639.048 L 543.499, 646.1 L 548.788, 656.853 L 551.08, 657.735 L 541.56, 659.321 L 541.031, 657.558 L 525.165, 660.908 L 526.047, 663.376 L 518.819, 664.963 L 522.521, 675.364 L 515.469, 676.774 L 517.937, 684.002 L 516.175, 684.354 L 518.114, 689.643 L 515.822, 690.172 L 519.7, 700.397 L 529.925, 698.281 L 532.393, 705.509 L 540.855, 703.746 L 541.031, 704.628 L 557.074, 701.278 L 556.368, 699.515 L 566.241, 697.576 L 569.238, 706.39 L 543.852, 741.648 L 487.087, 717.849 z "/>
<path style="fill:rgb(0, 0, 255);fill-opacity:0;fill-rule:evenodd;stroke:rgb(0, 255, 15);stroke-width:1;" d="M 147.73, 752.049 L 173.645, 716.615 L 241.164, 744.822 L 215.073, 780.432 L 147.73, 752.049 z "/>
<path style="fill:rgb(255, 255, 0);fill-opacity:0;fill-rule:evenodd;stroke:rgb(0, 255, 15);stroke-width:1;" d="M 443.896, 279.771 L 468.576, 245.571 L 538.387, 274.835 L 537.858, 275.364 L 513.706, 309.035 L 443.896, 279.771 z "/>
<path style="fill:rgb(255, 0, 0);fill-opacity:0;fill-rule:evenodd;stroke:rgb(0, 255, 15);stroke-width:1;" d="M 859.586, 531.688 L 883.385, 498.193 L 939.445, 521.287 L 924.813, 541.736 L 917.761, 551.609 L 915.646, 554.606 L 907.36, 551.256 L 891.318, 573.997 L 895.901, 575.937 L 889.202, 585.456 L 875.452, 604.848 L 864.698, 600.441 L 871.926, 590.216 L 882.503, 575.408 L 890.789, 563.773 L 901.366, 548.788 L 859.586, 531.688 z "/>
<path style="fill:rgb(0, 255, 0);fill-opacity:0;fill-rule:evenodd;stroke:rgb(0, 255, 15);stroke-width:1;" d="M 705.685, 618.599 L 734.068, 579.639 L 767.563, 593.742 L 764.213, 598.854 L 763.156, 598.149 L 761.393, 600.617 L 784.663, 610.665 L 771.089, 629.176 L 760.335, 643.984 L 744.998, 637.285 L 744.469, 638.343 L 744.469, 638.343 L 742.177, 638.519 L 739.885, 638.872 L 711.327, 626.708 L 709.387, 626.003 L 712.561, 621.595 L 705.685, 618.599 z "/>
<path style="fill:rgb(0, 0, 255);fill-opacity:0;fill-rule:evenodd;stroke:rgb(0, 255, 15);stroke-width:1;" d="M 95.0198, 559.542 L 122.345, 521.816 L 150.375, 533.627 L 146.673, 538.916 L 156.721, 543.147 L 157.779, 541.736 L 165.535, 545.086 L 166.77, 543.499 L 169.59, 544.733 L 171.353, 542.265 L 177.171, 543.499 L 181.225, 546.496 L 179.462, 548.964 L 181.578, 549.846 L 180.344, 551.609 L 188.277, 554.958 L 187.395, 556.368 L 201.675, 562.362 L 205.553, 557.074 L 218.422, 562.362 L 247.157, 574.526 L 244.16, 578.757 L 220.009, 612.076 L 194.799, 601.498 L 201.498, 592.331 L 206.611, 585.456 L 213.662, 575.76 L 206.963, 573.116 L 194.447, 567.651 L 183.164, 562.891 L 171.529, 558.131 L 162.186, 554.253 L 150.551, 549.317 L 139.445, 544.733 L 126.576, 539.445 L 120.053, 536.624 L 113.178, 546.144 L 108.065, 553.195 L 101.543, 562.186 L 95.0198, 559.542 z "/>
<path style="fill:rgb(255, 255, 0);fill-opacity:0;fill-rule:evenodd;stroke:rgb(0, 255, 15);stroke-width:1;" d="M 352.402, 603.614 L 356.633, 597.796 L 364.39, 587.395 L 369.678, 579.991 L 462.935, 619.127 L 447.774, 640.106 L 383.429, 613.134 L 382.195, 614.72 L 367.21, 608.55 L 366.505, 609.431 L 352.402, 603.614 z "/>
<path style="fill:rgb(255, 0, 0);fill-opacity:0;fill-rule:evenodd;stroke:rgb(0, 255, 15);stroke-width:1;" d="M 687.704, 93.7858 L 695.284, 83.3848 L 702.336, 86.3817 L 713.795, 70.3394 L 706.919, 67.5187 L 715.029, 56.2362 L 770.383, 79.5064 L 762.45, 90.6126 L 756.104, 87.9683 L 747.29, 99.9559 L 751.168, 101.543 L 747.995, 105.95 L 750.639, 107.184 L 743.411, 117.232 L 687.704, 93.7858 z "/>
<path style="fill:rgb(0, 255, 0);fill-opacity:0;fill-rule:evenodd;stroke:rgb(0, 255, 15);stroke-width:1;" d="M 139.445, 96.0776 L 169.766, 53.9445 L 212.076, 71.3971 L 193.389, 97.4879 L 187.924, 105.068 L 181.754, 113.706 L 139.445, 96.0776 z "/>
<path style="fill:rgb(0, 0, 255);fill-opacity:0;fill-rule:evenodd;stroke:rgb(0, 255, 15);stroke-width:1;" d="M 313.442, 657.558 L 340.591, 620.009 L 344.116, 615.249 L 385.897, 632.702 L 376.377, 645.747 L 374.438, 648.568 L 358.572, 670.604 L 355.223, 675.011 L 313.442, 657.558 z "/>
<path style="fill:rgb(255, 255, 0);fill-opacity:0;fill-rule:evenodd;stroke:rgb(0, 255, 15);stroke-width:1;" d="M 147.73, 285.059 L 150.198, 281.71 L 169.238, 256.148 L 173.292, 257.911 L 175.231, 255.443 L 226.884, 277.655 L 203.438, 309.035 L 181.225, 299.515 L 167.475, 293.521 L 147.73, 285.059 z "/>
<path style="fill:rgb(255, 0, 0);fill-opacity:0;fill-rule:evenodd;stroke:rgb(0, 255, 15);stroke-width:1;" d="M 178.757, 242.926 L 202.204, 211.547 L 257.382, 235.522 L 234.112, 266.725 L 178.757, 242.926 z "/>
<path style="fill:rgb(0, 255, 0);fill-opacity:0;fill-rule:evenodd;stroke:rgb(0, 255, 15);stroke-width:1;" d="M 187.219, 445.483 L 191.626, 439.136 L 194.976, 440.546 L 205.553, 425.914 L 195.857, 421.86 L 197.796, 419.392 L 196.739, 419.039 L 202.556, 410.754 L 205.201, 411.988 L 207.669, 408.462 L 224.592, 415.513 L 233.583, 419.216 L 230.939, 423.094 L 247.51, 429.969 L 255.619, 433.319 L 257.735, 434.2 L 234.288, 466.99 L 199.03, 452.534 L 197.444, 454.65 L 189.511, 451.3 L 187.219, 445.483 z "/>
<path style="fill:rgb(0, 0, 255);fill-opacity:0;fill-rule:evenodd;stroke:rgb(0, 255, 15);stroke-width:1;" d="M 649.273, 223.006 L 672.014, 191.803 L 678.184, 194.447 L 678.537, 194.094 L 682.768, 195.857 L 683.12, 195.505 L 691.758, 199.03 L 690.172, 201.146 L 705.156, 207.492 L 706.567, 205.553 L 725.43, 213.486 L 725.782, 213.134 L 727.545, 213.839 L 726.311, 215.425 L 724.372, 218.246 L 725.077, 219.304 L 726.487, 220.009 L 721.199, 227.237 L 719.965, 226.708 L 717.849, 227.589 L 715.734, 230.41 L 716.792, 231.996 L 713.442, 236.58 L 711.15, 236.756 L 706.567, 243.103 L 704.628, 242.398 L 704.099, 243.103 L 699.868, 241.34 L 698.634, 243.103 L 688.409, 238.872 L 689.643, 237.109 L 669.017, 228.294 L 664.963, 229.528 L 649.273, 223.006 z "/>
<path style="fill:rgb(255, 255, 0);fill-opacity:0;fill-rule:evenodd;stroke:rgb(0, 255, 15);stroke-width:1;" d="M 256.148, 145.615 L 269.899, 125.87 L 268.841, 125.518 L 277.303, 113.53 L 330.542, 135.037 L 308.33, 166.77 L 256.148, 145.615 z "/>
<path style="fill:rgb(255, 0, 0);fill-opacity:0;fill-rule:evenodd;stroke:rgb(0, 255, 15);stroke-width:1;" d="M 438.255, 343.94 L 456.589, 320.846 L 520.758, 347.995 L 503.129, 372.675 L 474.041, 360.511 L 438.255, 343.94 z "/>
<path style="fill:rgb(0, 255, 0);fill-opacity:0;fill-rule:evenodd;stroke:rgb(0, 255, 15);stroke-width:1;" d="M 515.469, 676.774 L 522.521, 675.364 L 518.819, 664.963 L 526.047, 663.376 L 525.165, 660.908 L 541.031, 657.558 L 541.56, 659.321 L 551.08, 657.735 L 552.49, 661.966 L 558.308, 660.555 L 560.071, 661.26 L 563.244, 669.722 L 564.83, 669.37 L 566.417, 669.722 L 570.648, 680.476 L 568.709, 682.239 L 568.18, 682.415 L 571, 689.996 L 569.766, 691.406 L 564.654, 692.64 L 566.241, 697.576 L 556.368, 699.515 L 557.074, 701.278 L 541.031, 704.628 L 540.855, 703.746 L 532.393, 705.509 L 529.925, 698.281 L 519.7, 700.397 L 515.822, 690.172 L 518.114, 689.643 L 516.175, 684.354 L 517.937, 684.002 L 515.469, 676.774 z "/>
<path style="fill:rgb(0, 0, 255);fill-opacity:0;fill-rule:evenodd;stroke:rgb(0, 255, 15);stroke-width:1;" d="M 814.456, 144.557 L 828.206, 125.165 L 834.905, 127.986 L 839.312, 121.639 L 889.555, 142.089 L 887.439, 145.086 L 876.686, 159.542 L 871.045, 167.475 L 814.456, 144.557 z "/>
<path style="fill:rgb(255, 255, 0);fill-opacity:0;fill-rule:evenodd;stroke:rgb(0, 255, 15);stroke-width:1;" d="M 855.178, 89.5549 L 863.112, 78.6249 L 865.932, 74.5703 L 873.336, 64.5218 L 927.986, 87.4394 L 908.594, 114.235 L 896.606, 109.123 L 897.84, 107.536 L 855.178, 89.5549 z "/>
<path style="fill:rgb(255, 0, 0);fill-opacity:0;fill-rule:evenodd;stroke:rgb(0, 255, 15);stroke-width:1;" d="M 518.819, 664.963 L 526.047, 663.376 L 525.165, 660.908 L 541.031, 657.558 L 541.56, 659.321 L 551.08, 657.735 L 552.49, 661.966 L 558.308, 660.555 L 560.071, 661.26 L 563.244, 669.722 L 564.83, 669.37 L 566.417, 669.722 L 570.648, 680.476 L 568.709, 682.239 L 568.18, 682.415 L 571, 689.996 L 569.766, 691.406 L 564.654, 692.64 L 566.241, 697.576 L 556.368, 699.515 L 557.074, 701.278 L 541.031, 704.628 L 540.855, 703.746 L 532.393, 705.509 L 529.925, 698.281 L 522.521, 675.364 L 518.819, 664.963 z "/>
<path style="fill:rgb(0, 255, 0);fill-opacity:0;fill-rule:evenodd;stroke:rgb(0, 255, 15);stroke-width:1;" d="M 656.148, 337.594 L 661.26, 330.542 L 669.017, 319.788 L 663.376, 317.32 L 694.403, 274.482 L 717.32, 284.178 L 673.424, 344.822 L 656.148, 337.594 z "/>
<path style="fill:rgb(0, 0, 255);fill-opacity:0;fill-rule:evenodd;stroke:rgb(0, 255, 15);stroke-width:1;" d="M 672.19, 503.834 L 688.762, 480.917 L 685.059, 479.154 L 688.585, 474.394 L 692.287, 475.981 L 717.144, 441.781 L 737.241, 450.242 L 692.287, 512.296 L 672.19, 503.834 z "/>
<path style="fill:rgb(255, 255, 0);fill-opacity:0;fill-rule:evenodd;stroke:rgb(0, 255, 15);stroke-width:1;" d="M 344.116, 615.249 L 352.402, 603.614 L 366.505, 609.431 L 367.21, 608.55 L 382.195, 614.72 L 383.429, 613.134 L 447.774, 640.106 L 437.55, 654.209 L 427.677, 650.154 L 385.897, 632.702 L 344.116, 615.249 z "/>
<path style="fill:rgb(255, 0, 0);fill-opacity:0;fill-rule:evenodd;stroke:rgb(0, 255, 15);stroke-width:1;" d="M 753.46, 554.782 L 791.362, 501.366 L 826.443, 515.822 L 829.617, 517.056 L 814.279, 538.74 L 789.423, 528.515 L 774.086, 550.022 L 766.858, 560.247 L 753.46, 554.782 z "/>
<path style="fill:rgb(0, 255, 0);fill-opacity:0;fill-rule:evenodd;stroke:rgb(0, 255, 15);stroke-width:1;" d="M 355.223, 675.011 L 358.572, 670.604 L 374.438, 648.568 L 376.377, 645.747 L 418.158, 663.2 L 416.219, 666.02 L 406.875, 678.713 L 400.176, 687.88 L 397.003, 692.464 L 389.599, 689.467 L 355.223, 675.011 z "/>
<path style="fill:rgb(0, 0, 255);fill-opacity:0;fill-rule:evenodd;stroke:rgb(0, 255, 15);stroke-width:1;" d="M 964.125, 588.1 L 981.049, 564.478 L 994.623, 545.262 L 1022.65, 556.897 L 992.155, 599.559 L 964.125, 588.1 z "/>
<path style="fill:rgb(255, 255, 0);fill-opacity:0;fill-rule:evenodd;stroke:rgb(0, 255, 15);stroke-width:1;" d="M 660.732, 82.5033 L 691.406, 40.3702 L 717.849, 51.6527 L 718.378, 51.829 L 715.029, 56.2362 L 706.919, 67.5187 L 695.284, 83.3848 L 687.704, 93.7858 L 660.732, 82.5033 z "/>
<path style="fill:rgb(255, 0, 0);fill-opacity:0;fill-rule:evenodd;stroke:rgb(0, 255, 15);stroke-width:1;" d="M 292.287, 749.581 L 303.922, 733.539 L 306.919, 734.949 L 310.621, 729.837 L 307.448, 728.603 L 317.497, 714.852 L 350.463, 728.779 L 323.843, 765.095 L 321.375, 764.213 L 322.785, 762.274 L 292.287, 749.581 z "/>
<path style="fill:rgb(0, 255, 0);fill-opacity:0;fill-rule:evenodd;stroke:rgb(0, 255, 15);stroke-width:1;" d="M 466.99, 721.904 L 497.135, 680.3 L 510.181, 685.765 L 487.087, 717.849 L 543.852, 741.648 L 536.8, 751.168 L 466.99, 721.904 z "/>
<path style="fill:rgb(0, 0, 255);fill-opacity:0;fill-rule:evenodd;stroke:rgb(0, 255, 15);stroke-width:1;" d="M 743.411, 117.232 L 750.639, 107.184 L 762.45, 90.6126 L 770.383, 79.5064 L 771.265, 79.859 L 771.617, 79.5064 L 798.59, 90.7889 L 771.441, 128.867 L 743.411, 117.232 z "/>
<path style="fill:rgb(255, 255, 0);fill-opacity:0;fill-rule:evenodd;stroke:rgb(0, 255, 15);stroke-width:1;" d="M 244.689, 154.606 L 252.093, 144.028 L 252.446, 144.028 L 256.148, 145.615 L 308.33, 166.77 L 293.169, 188.1 L 250.683, 171 L 258.264, 160.247 L 244.689, 154.606 z "/>
<path style="fill:rgb(255, 0, 0);fill-opacity:0;fill-rule:evenodd;stroke:rgb(0, 255, 15);stroke-width:1;" d="M 969.414, 356.457 L 987.748, 331.6 L 1028.82, 349.229 L 1010.67, 374.086 L 969.414, 356.457 z "/>
<path style="fill:rgb(0, 255, 0);fill-opacity:0;fill-rule:evenodd;stroke:rgb(0, 255, 15);stroke-width:1;" d="M 561.657, 329.132 L 576.818, 308.33 L 618.951, 325.959 L 625.65, 328.779 L 610.665, 349.581 L 561.657, 329.132 z "/>
<path style="fill:rgb(0, 0, 255);fill-opacity:0;fill-rule:evenodd;stroke:rgb(0, 255, 15);stroke-width:1;" d="M 597.091, 577.347 L 612.957, 556.016 L 623.006, 560.423 L 623.535, 562.01 L 626.708, 563.244 L 629.881, 564.654 L 628.471, 566.417 L 636.404, 569.943 L 638.519, 567.122 L 644.689, 569.766 L 643.455, 571.353 L 648.744, 573.645 L 651.212, 572.234 L 662.671, 577.171 L 646.981, 598.325 L 636.051, 593.565 L 635.346, 592.155 L 630.41, 590.04 L 629.528, 591.097 L 623.182, 588.453 L 625.297, 585.456 L 618.599, 582.636 L 617.717, 583.87 L 615.425, 582.812 L 614.72, 583.693 L 609.079, 581.225 L 607.492, 581.754 L 597.091, 577.347 z "/>
<path style="fill:rgb(255, 255, 0);fill-opacity:0;fill-rule:evenodd;stroke:rgb(0, 255, 15);stroke-width:1;" d="M 923.402, 476.333 L 941.031, 452.358 L 948.435, 455.531 L 949.669, 453.944 L 971.882, 463.288 L 970.472, 465.227 L 978.581, 468.753 L 960.952, 492.375 L 954.253, 489.555 L 953.724, 490.436 L 946.496, 487.263 L 945.615, 488.497 L 935.566, 484.266 L 936.624, 482.856 L 929.396, 479.859 L 929.925, 479.154 L 923.402, 476.333 z "/>
<path style="fill:rgb(255, 0, 0);fill-opacity:0;fill-rule:evenodd;stroke:rgb(0, 255, 15);stroke-width:1;" d="M 235.522, 192.86 L 250.683, 171 L 293.169, 188.1 L 277.832, 210.137 L 235.522, 192.86 z "/>
<path style="fill:rgb(0, 255, 0);fill-opacity:0;fill-rule:evenodd;stroke:rgb(0, 255, 15);stroke-width:1;" d="M 231.468, 133.98 L 260.379, 92.5518 L 282.415, 101.543 L 274.658, 112.472 L 252.975, 143.499 L 236.58, 136.977 L 237.109, 136.271 L 231.468, 133.98 z "/>
<path style="fill:rgb(0, 0, 255);fill-opacity:0;fill-rule:evenodd;stroke:rgb(0, 255, 15);stroke-width:1;" d="M 959.189, 730.19 L 963.773, 723.843 L 965.183, 724.372 L 982.459, 700.749 L 981.049, 700.22 L 989.687, 688.233 L 1012.25, 697.752 L 1003.79, 709.387 L 1003.79, 709.387 L 1001.85, 708.682 L 984.398, 732.481 L 985.632, 733.01 L 981.049, 739.357 L 959.189, 730.19 z "/>
<path style="fill:rgb(255, 255, 0);fill-opacity:0;fill-rule:evenodd;stroke:rgb(0, 255, 15);stroke-width:1;" d="M 756.104, 698.81 L 771.441, 678.008 L 776.377, 671.133 L 787.66, 675.892 L 789.07, 673.777 L 791.714, 674.835 L 795.24, 669.899 L 807.404, 675.011 L 803.702, 680.123 L 805.289, 680.829 L 802.821, 684.178 L 783.781, 710.445 L 756.104, 698.81 z "/>
<path style="fill:rgb(255, 0, 0);fill-opacity:0;fill-rule:evenodd;stroke:rgb(0, 255, 15);stroke-width:1;" d="M 909.652, 762.979 L 927.81, 738.123 L 947.907, 746.584 L 948.612, 745.527 L 950.375, 746.232 L 949.493, 747.29 L 961.481, 752.402 L 960.776, 753.46 L 943.323, 777.259 L 909.652, 762.979 z "/>
<path style="fill:rgb(0, 255, 0);fill-opacity:0;fill-rule:evenodd;stroke:rgb(0, 255, 15);stroke-width:1;" d="M 819.392, 293.521 L 827.325, 282.591 L 825.209, 281.71 L 833.142, 271.838 L 840.723, 274.835 L 844.601, 276.421 L 850.419, 278.889 L 853.768, 280.123 L 865.051, 285.059 L 873.513, 288.585 L 857.999, 309.74 L 819.392, 293.521 z "/>
<path style="fill:rgb(0, 0, 255);fill-opacity:0;fill-rule:evenodd;stroke:rgb(0, 255, 15);stroke-width:1;" d="M 108.242, 673.424 L 134.156, 637.99 L 157.426, 647.686 L 131.512, 683.297 L 108.242, 673.424 z "/>
<path style="fill:rgb(255, 255, 0);fill-opacity:0;fill-rule:evenodd;stroke:rgb(0, 255, 15);stroke-width:1;" d="M 836.316, 588.806 L 843.72, 578.228 L 847.774, 579.815 L 847.951, 581.401 L 851.476, 581.225 L 861.525, 567.122 L 860.643, 564.478 L 858.175, 564.83 L 854.473, 563.244 L 862.406, 551.961 L 890.789, 563.773 L 882.503, 575.408 L 878.625, 573.821 L 878.625, 572.234 L 875.099, 572.411 L 864.874, 586.866 L 866.285, 589.158 L 868.048, 588.629 L 871.926, 590.216 L 864.698, 600.441 L 836.316, 588.806 z "/>
<path style="fill:rgb(255, 0, 0);fill-opacity:0;fill-rule:evenodd;stroke:rgb(0, 255, 15);stroke-width:1;" d="M 257.911, 736.712 L 271.133, 718.731 L 293.345, 728.074 L 306.567, 710.269 L 317.497, 714.852 L 307.448, 728.603 L 303.922, 733.539 L 292.287, 749.581 L 291.23, 750.815 L 257.911, 736.712 z "/>
<path style="fill:rgb(0, 255, 0);fill-opacity:0;fill-rule:evenodd;stroke:rgb(0, 255, 15);stroke-width:1;" d="M 540.679, 320.317 L 565.007, 286.646 L 568.356, 282.063 L 589.335, 290.877 L 581.93, 301.278 L 576.818, 308.33 L 561.657, 329.132 L 540.679, 320.317 z "/>
<path style="fill:rgb(0, 0, 255);fill-opacity:0;fill-rule:evenodd;stroke:rgb(0, 255, 15);stroke-width:1;" d="M 808.638, 577.347 L 816.042, 566.946 L 823.27, 569.943 L 834.553, 554.077 L 827.325, 551.256 L 831.556, 545.262 L 834.729, 540.679 L 862.406, 551.961 L 854.473, 563.244 L 853.768, 564.125 L 846.893, 561.128 L 837.373, 574.526 L 844.425, 577.347 L 843.72, 578.228 L 836.316, 588.806 L 808.638, 577.347 z "/>
<path style="fill:rgb(255, 255, 0);fill-opacity:0;fill-rule:evenodd;stroke:rgb(0, 255, 15);stroke-width:1;" d="M 524.46, 170.119 L 546.32, 138.74 L 572.234, 150.022 L 550.375, 180.696 L 524.46, 170.119 z "/>
<path style="fill:rgb(255, 0, 0);fill-opacity:0;fill-rule:evenodd;stroke:rgb(0, 255, 15);stroke-width:1;" d="M 358.572, 670.604 L 374.438, 648.568 L 396.122, 657.558 L 408.814, 662.847 L 399.647, 675.716 L 392.948, 684.883 L 358.572, 670.604 z "/>
<path style="fill:rgb(0, 255, 0);fill-opacity:0;fill-rule:evenodd;stroke:rgb(0, 255, 15);stroke-width:1;" d="M 855.355, 253.327 L 870.692, 232.349 L 904.187, 246.276 L 905.245, 246.805 L 889.907, 267.959 L 855.355, 253.327 z "/>
<path style="fill:rgb(0, 0, 255);fill-opacity:0;fill-rule:evenodd;stroke:rgb(0, 255, 15);stroke-width:1;" d="M 920.053, 624.24 L 920.582, 623.535 L 925.87, 616.13 L 928.867, 615.602 L 935.037, 607.14 L 937.858, 608.197 L 941.736, 602.732 L 938.916, 601.498 L 941.913, 597.268 L 941.384, 594.623 L 947.201, 586.514 L 969.59, 595.681 L 964.301, 603.085 L 960.423, 604.495 L 957.426, 608.726 L 954.958, 607.669 L 950.198, 614.544 L 952.666, 615.602 L 946.673, 623.887 L 946.849, 626.884 L 942.265, 633.23 L 920.053, 624.24 z "/>
<path style="fill:rgb(255, 255, 0);fill-opacity:0;fill-rule:evenodd;stroke:rgb(0, 255, 15);stroke-width:1;" d="M 675.54, 160.952 L 678.361, 156.897 L 682.944, 150.727 L 686.47, 145.791 L 691.053, 139.621 L 693.521, 135.919 L 721.375, 147.554 L 707.801, 166.241 L 703.217, 172.587 L 675.54, 160.952 z "/>
<path style="fill:rgb(255, 0, 0);fill-opacity:0;fill-rule:evenodd;stroke:rgb(0, 255, 15);stroke-width:1;" d="M 190.569, 173.116 L 221.419, 129.925 L 231.468, 133.98 L 237.109, 136.271 L 236.58, 136.977 L 220.185, 160.071 L 206.258, 179.639 L 190.569, 173.116 z "/>
<path style="fill:rgb(0, 255, 0);fill-opacity:0;fill-rule:evenodd;stroke:rgb(0, 255, 15);stroke-width:1;" d="M 326.84, 614.191 L 361.393, 566.77 L 375.143, 572.587 L 369.678, 579.991 L 364.39, 587.395 L 356.633, 597.796 L 352.402, 603.614 L 344.116, 615.249 L 340.591, 620.009 L 326.84, 614.191 z "/>
<path style="fill:rgb(0, 0, 255);fill-opacity:0;fill-rule:evenodd;stroke:rgb(0, 255, 15);stroke-width:1;" d="M 868.4, 395.945 L 883.208, 376.025 L 915.646, 389.952 L 909.828, 397.708 L 900.837, 409.872 L 893.257, 406.523 L 868.4, 395.945 z "/>
<path style="fill:rgb(255, 255, 0);fill-opacity:0;fill-rule:evenodd;stroke:rgb(0, 255, 15);stroke-width:1;" d="M 766.858, 560.247 L 774.086, 550.022 L 777.964, 551.609 L 788.894, 536.271 L 811.106, 545.439 L 800, 561.128 L 802.468, 562.01 L 803.349, 560.952 L 804.936, 561.657 L 797.003, 572.587 L 766.858, 560.247 z "/>
<path style="fill:rgb(255, 0, 0);fill-opacity:0;fill-rule:evenodd;stroke:rgb(0, 255, 15);stroke-width:1;" d="M 245.042, 417.805 L 255.972, 402.644 L 269.37, 383.781 L 286.117, 390.657 L 285.236, 391.891 L 255.619, 433.319 L 247.51, 429.969 L 253.68, 421.331 L 245.042, 417.805 z "/>
<path style="fill:rgb(0, 255, 0);fill-opacity:0;fill-rule:evenodd;stroke:rgb(0, 255, 15);stroke-width:1;" d="M 785.015, 135.037 L 815.337, 92.5518 L 815.69, 92.0229 L 830.498, 98.193 L 824.857, 105.95 L 799.647, 141.208 L 785.015, 135.037 z "/>
<path style="fill:rgb(0, 0, 255);fill-opacity:0;fill-rule:evenodd;stroke:rgb(0, 255, 15);stroke-width:1;" d="M 584.751, 585.809 L 592.508, 575.408 L 597.091, 577.347 L 607.492, 581.754 L 616.307, 585.632 L 617.717, 583.87 L 618.599, 582.636 L 625.297, 585.456 L 623.182, 588.453 L 629.528, 591.097 L 630.41, 590.04 L 635.346, 592.155 L 636.051, 593.565 L 646.981, 598.325 L 647.51, 598.325 L 639.577, 608.903 L 627.942, 603.967 L 626.003, 604.495 L 621.772, 602.732 L 621.595, 601.498 L 606.611, 595.152 L 584.751, 585.809 z "/>
<path style="fill:rgb(255, 255, 0);fill-opacity:0;fill-rule:evenodd;stroke:rgb(0, 255, 15);stroke-width:1;" d="M 547.025, 611.547 L 578.405, 569.414 L 592.508, 575.408 L 584.751, 585.809 L 579.286, 593.389 L 571.529, 603.79 L 567.827, 608.726 L 561.128, 617.717 L 547.025, 611.547 z "/>
<path style="fill:rgb(255, 0, 0);fill-opacity:0;fill-rule:evenodd;stroke:rgb(0, 255, 15);stroke-width:1;" d="M 136.271, 565.007 L 141.384, 557.779 L 143.676, 558.836 L 144.557, 559.189 L 150.375, 561.657 L 156.721, 552.843 L 156.897, 552.49 L 162.01, 554.606 L 171.177, 558.66 L 176.289, 560.599 L 176.113, 560.952 L 169.766, 569.59 L 175.408, 571.882 L 176.289, 572.234 L 178.757, 573.292 L 173.468, 580.344 L 171, 579.462 L 170.119, 579.11 L 164.478, 576.642 L 158.308, 585.104 L 158.131, 585.28 L 138.916, 577.347 L 139.092, 577.171 L 145.262, 568.709 L 139.445, 566.241 L 138.387, 565.888 L 136.271, 565.007 z "/>
<path style="fill:rgb(0, 255, 0);fill-opacity:0;fill-rule:evenodd;stroke:rgb(0, 255, 15);stroke-width:1;" d="M 274.658, 112.472 L 282.415, 101.543 L 338.123, 124.108 L 330.542, 135.037 L 277.303, 113.53 L 274.658, 112.472 z "/>
<path style="fill:rgb(0, 0, 255);fill-opacity:0;fill-rule:evenodd;stroke:rgb(0, 255, 15);stroke-width:1;" d="M 467.166, 520.405 L 496.783, 479.859 L 511.415, 486.029 L 481.974, 526.752 L 467.166, 520.405 z "/>
<path style="fill:rgb(255, 255, 0);fill-opacity:0;fill-rule:evenodd;stroke:rgb(0, 255, 15);stroke-width:1;" d="M 605.906, 307.272 L 613.662, 296.518 L 652.622, 312.737 L 663.376, 317.32 L 669.017, 319.788 L 661.26, 330.542 L 660.732, 330.19 L 626.179, 315.91 L 605.906, 307.272 z "/>
<path style="fill:rgb(255, 0, 0);fill-opacity:0;fill-rule:evenodd;stroke:rgb(0, 255, 15);stroke-width:1;" d="M 672.014, 664.61 L 680.123, 653.504 L 718.202, 669.546 L 733.539, 676.069 L 725.43, 687.175 L 672.014, 664.61 z "/>
<path style="fill:rgb(0, 255, 0);fill-opacity:0;fill-rule:evenodd;stroke:rgb(0, 255, 15);stroke-width:1;" d="M 610.137, 350.286 L 610.665, 349.581 L 625.65, 328.779 L 653.504, 340.414 L 637.99, 361.922 L 610.137, 350.286 z "/>
<path style="fill:rgb(0, 0, 255);fill-opacity:0;fill-rule:evenodd;stroke:rgb(0, 255, 15);stroke-width:1;" d="M 771.089, 129.396 L 771.441, 128.867 L 798.59, 90.7889 L 801.41, 86.7342 L 815.337, 92.5518 L 785.015, 135.037 L 771.089, 129.396 z "/>
<path style="fill:rgb(255, 255, 0);fill-opacity:0;fill-rule:evenodd;stroke:rgb(0, 255, 15);stroke-width:1;" d="M 204.848, 556.721 L 235.875, 513.883 L 249.625, 519.524 L 248.215, 521.463 L 218.422, 562.362 L 205.553, 557.074 L 204.848, 556.721 z "/>
<path style="fill:rgb(255, 0, 0);fill-opacity:0;fill-rule:evenodd;stroke:rgb(0, 255, 15);stroke-width:1;" d="M 599.736, 290.701 L 614.544, 270.075 L 630.939, 247.334 L 644.513, 253.151 L 624.416, 280.829 L 613.134, 296.342 L 599.736, 290.701 z "/>
<path style="fill:rgb(0, 255, 0);fill-opacity:0;fill-rule:evenodd;stroke:rgb(0, 255, 15);stroke-width:1;" d="M 508.947, 539.797 L 539.268, 497.84 L 553.195, 503.658 L 522.874, 545.615 L 508.947, 539.797 z "/>
<path style="fill:rgb(0, 0, 255);fill-opacity:0;fill-rule:evenodd;stroke:rgb(0, 255, 15);stroke-width:1;" d="M 480.917, 528.162 L 481.974, 526.752 L 511.415, 486.029 L 525.165, 491.67 L 494.491, 533.803 L 480.917, 528.162 z "/>
<path style="fill:rgb(255, 255, 0);fill-opacity:0;fill-rule:evenodd;stroke:rgb(0, 255, 15);stroke-width:1;" d="M 303.041, 75.9806 L 310.798, 65.227 L 364.037, 87.792 L 356.28, 98.3693 L 303.041, 75.9806 z "/>
<path style="fill:rgb(255, 0, 0);fill-opacity:0;fill-rule:evenodd;stroke:rgb(0, 255, 15);stroke-width:1;" d="M 958.131, 496.43 L 960.952, 492.375 L 978.581, 468.753 L 988.1, 455.707 L 997.444, 459.586 L 998.149, 458.704 L 999.736, 459.409 L 999.207, 460.291 L 1001.85, 461.525 L 971.882, 502.248 L 958.131, 496.43 z "/>
<path style="fill:rgb(0, 255, 0);fill-opacity:0;fill-rule:evenodd;stroke:rgb(0, 255, 15);stroke-width:1;" d="M 939.797, 102.6 L 947.554, 91.8466 L 1001.5, 114.412 L 993.565, 125.342 L 973.997, 117.056 L 968.532, 114.764 L 967.122, 112.649 L 954.429, 107.184 L 952.49, 107.889 L 946.673, 105.421 L 939.797, 102.6 z "/>
<path style="fill:rgb(0, 0, 255);fill-opacity:0;fill-rule:evenodd;stroke:rgb(0, 255, 15);stroke-width:1;" d="M 839.841, 534.861 L 850.771, 519.524 L 869.81, 492.728 L 883.385, 498.193 L 859.586, 531.688 L 853.239, 540.502 L 839.841, 534.861 z "/>
<path style="fill:rgb(255, 255, 0);fill-opacity:0;fill-rule:evenodd;stroke:rgb(0, 255, 15);stroke-width:1;" d="M 911.062, 690.701 L 929.22, 665.668 L 951.785, 675.187 L 938.034, 694.05 L 933.451, 700.22 L 911.062, 690.701 z "/>
<path style="fill:rgb(255, 0, 0);fill-opacity:0;fill-rule:evenodd;stroke:rgb(0, 255, 15);stroke-width:1;" d="M 607.14, 204.319 L 634.817, 166.241 L 650.154, 172.763 L 645.571, 179.11 L 642.926, 182.812 L 641.869, 182.459 L 633.936, 193.389 L 621.772, 210.489 L 607.14, 204.319 z "/>
<path style="fill:rgb(0, 255, 0);fill-opacity:0;fill-rule:evenodd;stroke:rgb(0, 255, 15);stroke-width:1;" d="M 733.892, 388.365 L 741.825, 377.435 L 750.463, 381.137 L 793.83, 399.647 L 786.073, 410.225 L 747.818, 394.006 L 747.642, 394.182 L 733.892, 388.365 z "/>
<path style="fill:rgb(0, 0, 255);fill-opacity:0;fill-rule:evenodd;stroke:rgb(0, 255, 15);stroke-width:1;" d="M 369.678, 579.991 L 376.554, 573.116 L 399.295, 582.636 L 397.003, 585.809 L 441.957, 604.672 L 444.249, 601.675 L 468.4, 611.723 L 468.224, 612.076 L 462.935, 619.127 L 369.678, 579.991 z "/>
<path style="fill:rgb(255, 255, 0);fill-opacity:0;fill-rule:evenodd;stroke:rgb(0, 255, 15);stroke-width:1;" d="M 642.221, 751.168 L 663.2, 722.609 L 668.136, 724.548 L 685.588, 731.952 L 679.947, 739.533 L 674.306, 737.241 L 658.969, 758.043 L 642.221, 751.168 z "/>
<path style="fill:rgb(255, 0, 0);fill-opacity:0;fill-rule:evenodd;stroke:rgb(0, 255, 15);stroke-width:1;" d="M 607.316, 553.548 L 612.252, 546.849 L 611.371, 545.439 L 612.957, 543.323 L 614.72, 543.323 L 622.829, 532.217 L 649.449, 543.676 L 641.164, 554.782 L 634.993, 552.138 L 626.708, 563.244 L 623.535, 562.01 L 623.006, 560.423 L 612.957, 556.016 L 607.316, 553.548 z "/>
<path style="fill:rgb(0, 255, 0);fill-opacity:0;fill-rule:evenodd;stroke:rgb(0, 255, 15);stroke-width:1;" d="M 919.524, 136.095 L 927.281, 125.518 L 930.983, 127.104 L 943.676, 132.569 L 944.557, 134.156 L 955.134, 138.74 L 957.25, 138.034 L 978.052, 146.673 L 970.119, 157.602 L 949.846, 148.964 L 949.141, 147.025 L 938.211, 142.442 L 935.743, 142.794 L 923.402, 137.682 L 919.524, 136.095 z "/>
<path style="fill:rgb(0, 0, 255);fill-opacity:0;fill-rule:evenodd;stroke:rgb(0, 255, 15);stroke-width:1;" d="M 947.201, 347.642 L 954.782, 337.241 L 959.542, 330.895 L 967.475, 334.244 L 973.821, 325.782 L 987.748, 331.6 L 969.414, 356.457 L 968.18, 358.219 L 954.253, 352.226 L 955.134, 351.168 L 947.201, 347.642 z "/>
<path style="fill:rgb(255, 255, 0);fill-opacity:0;fill-rule:evenodd;stroke:rgb(0, 255, 15);stroke-width:1;" d="M 837.55, 261.789 L 838.784, 260.203 L 846.364, 249.625 L 855.355, 253.327 L 889.907, 267.959 L 882.151, 278.713 L 880.917, 278.184 L 871.926, 274.482 L 870.868, 275.716 L 862.406, 272.19 L 861.525, 270.251 L 857.999, 268.841 L 857.118, 270.075 L 851.476, 267.783 L 852.358, 266.373 L 847.422, 264.257 L 846.54, 265.491 L 837.55, 261.789 z "/>
<path style="fill:rgb(255, 0, 0);fill-opacity:0;fill-rule:evenodd;stroke:rgb(0, 255, 15);stroke-width:1;" d="M 138.563, 577.876 L 138.916, 577.347 L 139.092, 577.171 L 145.262, 568.709 L 150.375, 561.657 L 156.721, 552.843 L 156.897, 552.49 L 162.01, 554.606 L 162.186, 554.253 L 171.529, 558.131 L 171.177, 558.66 L 176.289, 560.599 L 176.113, 560.952 L 169.766, 569.59 L 164.478, 576.642 L 158.308, 585.104 L 158.131, 585.28 L 157.779, 585.809 L 138.563, 577.876 z "/>
<path style="fill:rgb(0, 255, 0);fill-opacity:0;fill-rule:evenodd;stroke:rgb(0, 255, 15);stroke-width:1;" d="M 930.983, 127.104 L 938.916, 116.175 L 953.9, 122.345 L 953.724, 123.402 L 964.301, 127.81 L 966.417, 127.633 L 985.985, 135.919 L 978.052, 146.673 L 957.25, 138.034 L 956.721, 136.624 L 946.144, 131.864 L 943.676, 132.569 L 930.983, 127.104 z "/>
<path style="fill:rgb(0, 0, 255);fill-opacity:0;fill-rule:evenodd;stroke:rgb(0, 255, 15);stroke-width:1;" d="M 371.265, 248.92 L 376.906, 241.164 L 382.547, 233.407 L 386.249, 228.118 L 390.657, 229.881 L 398.59, 218.951 L 399.295, 219.304 L 411.106, 224.24 L 388.189, 256.148 L 371.265, 248.92 z "/>
<path style="fill:rgb(255, 255, 0);fill-opacity:0;fill-rule:evenodd;stroke:rgb(0, 255, 15);stroke-width:1;" d="M 839.841, 733.539 L 854.826, 712.913 L 865.403, 698.634 L 879.33, 704.451 L 868.576, 719.26 L 853.768, 739.357 L 839.841, 733.539 z "/>
<path style="fill:rgb(255, 0, 0);fill-opacity:0;fill-rule:evenodd;stroke:rgb(0, 255, 15);stroke-width:1;" d="M 938.916, 116.175 L 946.673, 105.421 L 952.49, 107.889 L 952.138, 108.418 L 958.308, 111.062 L 959.013, 112.649 L 972.94, 118.466 L 973.997, 117.056 L 993.565, 125.342 L 985.985, 135.919 L 966.417, 127.633 L 964.301, 127.81 L 953.724, 123.402 L 953.9, 122.345 L 938.916, 116.175 z "/>
<path style="fill:rgb(0, 255, 0);fill-opacity:0;fill-rule:evenodd;stroke:rgb(0, 255, 15);stroke-width:1;" d="M 810.93, 723.138 L 827.325, 700.926 L 830.145, 701.983 L 832.085, 699.515 L 830.498, 698.81 L 833.848, 694.227 L 839.312, 686.47 L 850.948, 691.406 L 842.309, 703.394 L 840.723, 702.688 L 838.431, 705.685 L 841.252, 706.919 L 825.033, 729.132 L 810.93, 723.138 z "/>
<path style="fill:rgb(0, 0, 255);fill-opacity:0;fill-rule:evenodd;stroke:rgb(0, 255, 15);stroke-width:1;" d="M 798.942, 142.265 L 799.647, 141.208 L 824.857, 105.95 L 838.078, 111.415 L 828.206, 125.165 L 814.456, 144.557 L 812.164, 147.73 L 798.942, 142.265 z "/>
<path style="fill:rgb(255, 255, 0);fill-opacity:0;fill-rule:evenodd;stroke:rgb(0, 255, 15);stroke-width:1;" d="M 907.889, 159.013 L 915.646, 148.259 L 928.162, 153.548 L 928.867, 155.663 L 939.797, 160.247 L 942.265, 159.718 L 962.539, 168.18 L 954.782, 178.933 L 934.509, 170.472 L 933.803, 168.532 L 922.874, 163.949 L 920.405, 164.301 L 907.889, 159.013 z "/>
<path style="fill:rgb(255, 0, 0);fill-opacity:0;fill-rule:evenodd;stroke:rgb(0, 255, 15);stroke-width:1;" d="M 687.175, 643.632 L 695.461, 632.349 L 706.214, 636.933 L 706.743, 638.695 L 716.615, 642.926 L 717.849, 644.513 L 717.497, 645.218 L 722.785, 647.51 L 727.369, 647.157 L 731.952, 649.097 L 734.597, 648.92 L 744.998, 653.327 L 736.888, 664.257 L 726.487, 659.85 L 725.43, 658.264 L 720.494, 656.148 L 718.731, 653.504 L 713.795, 651.565 L 709.916, 651.741 L 700.22, 647.51 L 696.871, 647.862 L 687.175, 643.632 z "/>
<path style="fill:rgb(0, 255, 0);fill-opacity:0;fill-rule:evenodd;stroke:rgb(0, 255, 15);stroke-width:1;" d="M 900.132, 169.766 L 907.889, 159.013 L 920.405, 164.301 L 921.111, 166.064 L 932.217, 170.824 L 934.509, 170.472 L 954.782, 178.933 L 947.025, 189.335 L 932.569, 183.341 L 926.928, 181.049 L 926.047, 179.286 L 915.117, 174.703 L 912.649, 175.055 L 909.299, 173.645 L 900.132, 169.766 z "/>
<path style="fill:rgb(0, 0, 255);fill-opacity:0;fill-rule:evenodd;stroke:rgb(0, 255, 15);stroke-width:1;" d="M 750.463, 381.137 L 758.396, 370.383 L 801.763, 388.894 L 793.83, 399.647 L 750.463, 381.137 z "/>
<path style="fill:rgb(255, 255, 0);fill-opacity:0;fill-rule:evenodd;stroke:rgb(0, 255, 15);stroke-width:1;" d="M 915.646, 148.259 L 923.402, 137.682 L 935.743, 142.794 L 936.271, 144.733 L 947.554, 149.317 L 949.846, 148.964 L 970.119, 157.602 L 962.539, 168.18 L 942.265, 159.718 L 941.56, 157.779 L 930.63, 153.195 L 928.162, 153.548 L 915.646, 148.259 z "/>
<path style="fill:rgb(255, 0, 0);fill-opacity:0;fill-rule:evenodd;stroke:rgb(0, 255, 15);stroke-width:1;" d="M 758.396, 370.383 L 766.152, 359.806 L 808.109, 377.611 L 809.696, 378.14 L 801.763, 388.894 L 758.396, 370.383 z "/>
<path style="fill:rgb(0, 255, 0);fill-opacity:0;fill-rule:evenodd;stroke:rgb(0, 255, 15);stroke-width:1;" d="M 634.288, 217.364 L 635.346, 216.13 L 640.987, 208.197 L 643.632, 206.963 L 650.154, 197.973 L 652.27, 198.854 L 655.443, 194.623 L 652.975, 193.565 L 653.68, 192.508 L 654.385, 192.86 L 657.911, 187.924 L 657.558, 185.632 L 658.44, 184.398 L 663.2, 178.052 L 676.95, 183.87 L 671.309, 191.803 L 668.841, 192.508 L 664.434, 198.502 L 661.966, 197.444 L 658.969, 201.675 L 661.26, 202.556 L 654.209, 212.428 L 654.385, 214.191 L 647.862, 223.182 L 634.288, 217.364 z "/>
<path style="fill:rgb(0, 0, 255);fill-opacity:0;fill-rule:evenodd;stroke:rgb(0, 255, 15);stroke-width:1;" d="M 825.033, 729.132 L 841.252, 706.919 L 843.896, 707.977 L 846.011, 705.156 L 844.425, 704.451 L 853.239, 692.464 L 864.874, 697.223 L 857.47, 707.096 L 855.002, 707.625 L 852.005, 711.679 L 854.826, 712.913 L 839.841, 733.539 L 838.784, 734.949 L 825.033, 729.132 z "/>
<path style="fill:rgb(255, 255, 0);fill-opacity:0;fill-rule:evenodd;stroke:rgb(0, 255, 15);stroke-width:1;" d="M 771.089, 629.176 L 784.663, 610.665 L 788.894, 604.672 L 807.933, 612.781 L 790.128, 637.109 L 771.089, 629.176 z "/>
<path style="fill:rgb(255, 0, 0);fill-opacity:0;fill-rule:evenodd;stroke:rgb(0, 255, 15);stroke-width:1;" d="M 652.622, 312.737 L 663.376, 297.929 L 683.825, 269.546 L 694.579, 274.13 L 694.403, 274.482 L 663.376, 317.32 L 652.622, 312.737 z "/>
<path style="fill:rgb(0, 255, 0);fill-opacity:0;fill-rule:evenodd;stroke:rgb(0, 255, 15);stroke-width:1;" d="M 526.928, 314.5 L 551.08, 281.005 L 551.08, 280.829 L 565.007, 286.646 L 540.679, 320.317 L 526.928, 314.5 z "/>
<path style="fill:rgb(0, 0, 255);fill-opacity:0;fill-rule:evenodd;stroke:rgb(0, 255, 15);stroke-width:1;" d="M 385.544, 157.955 L 393.477, 146.849 L 416.747, 156.545 L 416.219, 157.25 L 436.316, 165.712 L 428.911, 176.113 L 408.991, 167.651 L 385.544, 157.955 z "/>
<path style="fill:rgb(255, 255, 0);fill-opacity:0;fill-rule:evenodd;stroke:rgb(0, 255, 15);stroke-width:1;" d="M 613.839, 144.91 L 618.599, 138.387 L 620.185, 138.916 L 624.769, 132.569 L 625.826, 132.922 L 629, 128.515 L 629.528, 128.867 L 630.234, 127.81 L 629.528, 126.399 L 635.522, 118.466 L 636.227, 116.527 L 635.522, 116.351 L 641.164, 108.418 L 642.221, 107.007 L 645.042, 108.065 L 645.394, 107.713 L 653.327, 111.062 L 652.799, 111.767 L 655.796, 113.001 L 655.443, 113.706 L 649.097, 122.345 L 648.039, 121.816 L 646.452, 122.874 L 640.282, 131.512 L 637.814, 131.335 L 634.817, 135.566 L 634.993, 136.271 L 636.756, 137.153 L 632.878, 142.442 L 631.291, 146.144 L 628.294, 150.903 L 613.839, 144.91 z "/>
<path style="fill:rgb(255, 0, 0);fill-opacity:0;fill-rule:evenodd;stroke:rgb(0, 255, 15);stroke-width:1;" d="M 695.461, 632.349 L 702.336, 623.006 L 709.387, 626.003 L 711.327, 626.708 L 739.885, 638.872 L 742.177, 638.519 L 743.764, 639.224 L 744.469, 638.343 L 744.469, 638.343 L 753.283, 642.045 L 744.998, 653.327 L 734.597, 648.92 L 733.539, 647.334 L 720.494, 641.869 L 720.846, 641.164 L 719.083, 640.458 L 709.211, 636.227 L 708.153, 637.814 L 706.214, 636.933 L 695.461, 632.349 z "/>
<path style="fill:rgb(0, 255, 0);fill-opacity:0;fill-rule:evenodd;stroke:rgb(0, 255, 15);stroke-width:1;" d="M 575.231, 624.769 L 576.465, 623.182 L 577.876, 623.711 L 584.927, 614.191 L 589.863, 616.307 L 588.629, 618.07 L 591.097, 619.127 L 592.508, 617.188 L 605.553, 622.653 L 605.729, 624.416 L 610.313, 626.355 L 612.428, 625.65 L 625.121, 631.115 L 625.297, 631.115 L 616.836, 642.574 L 575.231, 624.769 z "/>
<path style="fill:rgb(0, 0, 255);fill-opacity:0;fill-rule:evenodd;stroke:rgb(0, 255, 15);stroke-width:1;" d="M 703.922, 246.805 L 706.567, 243.103 L 711.15, 236.756 L 713.442, 236.58 L 716.792, 231.996 L 715.734, 230.41 L 717.849, 227.589 L 719.965, 226.708 L 721.199, 227.237 L 726.487, 220.009 L 725.077, 219.304 L 724.372, 218.246 L 726.311, 215.425 L 729.132, 214.544 L 732.305, 210.137 L 744.998, 215.425 L 738.651, 224.063 L 736.712, 224.416 L 734.949, 223.711 L 729.484, 231.115 L 731.071, 231.82 L 731.6, 233.583 L 729.661, 236.404 L 727.545, 236.58 L 724.196, 241.164 L 725.077, 242.75 L 719.083, 251.036 L 717.849, 252.799 L 703.922, 246.805 z "/>
<path style="fill:rgb(255, 255, 0);fill-opacity:0;fill-rule:evenodd;stroke:rgb(0, 255, 15);stroke-width:1;" d="M 926.928, 564.654 L 932.041, 557.426 L 933.98, 554.782 L 936.271, 555.663 L 941.913, 547.907 L 939.268, 547.025 L 942.442, 542.618 L 945.086, 542.442 L 948.435, 537.682 L 947.201, 535.743 L 953.548, 527.104 L 968.004, 533.098 L 961.657, 541.913 L 959.013, 542.265 L 955.84, 546.673 L 957.074, 548.259 L 953.548, 553.019 L 950.375, 551.785 L 944.91, 559.365 L 946.32, 559.894 L 939.268, 569.766 L 926.928, 564.654 z "/>
<path style="fill:rgb(255, 0, 0);fill-opacity:0;fill-rule:evenodd;stroke:rgb(0, 255, 15);stroke-width:1;" d="M 868.929, 170.295 L 871.045, 167.475 L 876.686, 159.542 L 878.272, 159.189 L 887.968, 147.201 L 887.439, 145.086 L 889.555, 142.089 L 894.667, 134.861 L 908.242, 140.502 L 904.539, 145.615 L 901.014, 150.727 L 899.603, 150.198 L 889.379, 164.301 L 890.26, 165.712 L 882.68, 176.113 L 868.929, 170.295 z "/>
<path style="fill:rgb(0, 255, 0);fill-opacity:0;fill-rule:evenodd;stroke:rgb(0, 255, 15);stroke-width:1;" d="M 513.706, 309.035 L 537.858, 275.364 L 551.08, 280.829 L 551.08, 281.005 L 526.928, 314.5 L 513.706, 309.035 z "/>
<path style="fill:rgb(0, 0, 255);fill-opacity:0;fill-rule:evenodd;stroke:rgb(0, 255, 15);stroke-width:1;" d="M 656.677, 161.305 L 661.437, 154.782 L 663.023, 152.49 L 666.725, 154.077 L 672.367, 146.32 L 668.665, 144.91 L 672.19, 139.797 L 675.364, 139.268 L 677.832, 135.919 L 676.421, 134.156 L 682.768, 125.165 L 697.047, 131.159 L 693.521, 135.919 L 691.053, 139.621 L 688.233, 140.502 L 685.588, 144.028 L 686.47, 145.791 L 682.944, 150.727 L 679.771, 149.493 L 677.655, 150.375 L 675.716, 153.019 L 675.364, 155.663 L 678.361, 156.897 L 675.54, 160.952 L 670.956, 167.122 L 656.677, 161.305 z "/>
<path style="fill:rgb(255, 255, 0);fill-opacity:0;fill-rule:evenodd;stroke:rgb(0, 255, 15);stroke-width:1;" d="M 942.442, 571 L 949.317, 561.305 L 950.551, 561.657 L 956.016, 554.077 L 953.548, 553.019 L 957.074, 548.259 L 959.013, 548.083 L 962.186, 543.499 L 961.657, 541.913 L 968.004, 533.098 L 981.578, 538.563 L 975.408, 547.378 L 972.587, 547.907 L 969.59, 552.138 L 970.472, 554.253 L 967.122, 558.836 L 964.301, 557.779 L 959.013, 565.183 L 962.01, 566.417 L 954.958, 576.289 L 942.442, 571 z "/>
<path style="fill:rgb(255, 0, 0);fill-opacity:0;fill-rule:evenodd;stroke:rgb(0, 255, 15);stroke-width:1;" d="M 739.357, 405.289 L 747.642, 394.182 L 747.818, 394.006 L 786.073, 410.225 L 777.611, 421.684 L 739.357, 405.289 z "/>
<path style="fill:rgb(0, 255, 0);fill-opacity:0;fill-rule:evenodd;stroke:rgb(0, 255, 15);stroke-width:1;" d="M 221.772, 187.219 L 222.477, 186.338 L 236.227, 166.77 L 244.689, 154.606 L 258.264, 160.247 L 250.683, 171 L 235.522, 192.86 L 221.772, 187.219 z "/>
<path style="fill:rgb(0, 0, 255);fill-opacity:0;fill-rule:evenodd;stroke:rgb(0, 255, 15);stroke-width:1;" d="M 956.192, 424.504 L 978.933, 393.83 L 992.86, 399.824 L 970.295, 430.498 L 956.192, 424.504 z "/>
<path style="fill:rgb(255, 255, 0);fill-opacity:0;fill-rule:evenodd;stroke:rgb(0, 255, 15);stroke-width:1;" d="M 895.549, 756.985 L 914.588, 730.895 L 915.822, 729.308 L 918.819, 730.542 L 922.521, 725.782 L 929.749, 728.779 L 926.223, 733.715 L 929.925, 735.302 L 927.81, 738.123 L 909.652, 762.979 L 895.549, 756.985 z "/>
<path style="fill:rgb(255, 0, 0);fill-opacity:0;fill-rule:evenodd;stroke:rgb(0, 255, 15);stroke-width:1;" d="M 805.289, 479.506 L 813.751, 467.695 L 850.066, 482.68 L 841.781, 494.491 L 805.289, 479.506 z "/>
<path style="fill:rgb(0, 255, 0);fill-opacity:0;fill-rule:evenodd;stroke:rgb(0, 255, 15);stroke-width:1;" d="M 908.947, 114.764 L 917.761, 102.777 L 919.877, 102.6 L 922.697, 98.7219 L 921.639, 96.959 L 931.335, 83.9136 L 945.439, 89.9074 L 935.743, 103.129 L 934.332, 103.305 L 930.983, 107.713 L 931.688, 109.299 L 923.226, 120.758 L 908.947, 114.764 z "/>
<path style="fill:rgb(0, 0, 255);fill-opacity:0;fill-rule:evenodd;stroke:rgb(0, 255, 15);stroke-width:1;" d="M 797.179, 717.32 L 797.885, 716.439 L 817.1, 690.172 L 818.687, 687.88 L 833.848, 694.227 L 830.498, 698.81 L 832.085, 699.515 L 830.145, 701.983 L 827.325, 700.926 L 810.93, 723.138 L 797.179, 717.32 z "/>
<path style="fill:rgb(255, 255, 0);fill-opacity:0;fill-rule:evenodd;stroke:rgb(0, 255, 15);stroke-width:1;" d="M 838.784, 85.5002 L 841.075, 82.1507 L 848.303, 72.2785 L 850.419, 73.16 L 853.063, 69.4579 L 850.948, 68.5765 L 858.352, 58.3517 L 860.115, 56.0599 L 874.923, 62.4063 L 873.336, 64.5218 L 865.932, 74.5703 L 863.993, 73.8651 L 863.817, 74.2177 L 861.172, 77.9198 L 863.112, 78.6249 L 855.178, 89.5549 L 853.592, 91.6703 L 838.784, 85.5002 z "/>
<path style="fill:rgb(255, 0, 0);fill-opacity:0;fill-rule:evenodd;stroke:rgb(0, 255, 15);stroke-width:1;" d="M 647.686, 148.964 L 669.017, 119.348 L 669.899, 118.29 L 683.649, 124.108 L 682.768, 125.165 L 676.421, 134.156 L 672.19, 139.797 L 668.665, 144.91 L 663.023, 152.49 L 661.437, 154.782 L 647.686, 148.964 z "/>
<path style="fill:rgb(0, 255, 0);fill-opacity:0;fill-rule:evenodd;stroke:rgb(0, 255, 15);stroke-width:1;" d="M 825.914, 268.488 L 833.671, 257.911 L 838.784, 260.203 L 837.55, 261.789 L 846.54, 265.491 L 847.422, 264.257 L 852.358, 266.373 L 851.476, 267.783 L 857.118, 270.075 L 857.999, 268.841 L 861.525, 270.251 L 862.406, 272.19 L 870.868, 275.716 L 871.926, 274.482 L 880.917, 278.184 L 873.513, 288.585 L 865.051, 285.059 L 866.108, 283.649 L 856.765, 279.771 L 853.768, 280.123 L 850.419, 278.889 L 851.829, 276.95 L 845.835, 274.482 L 844.601, 276.421 L 840.723, 274.835 L 840.194, 272.19 L 832.437, 269.017 L 831.203, 270.604 L 825.914, 268.488 z "/>
<path style="fill:rgb(0, 0, 255);fill-opacity:0;fill-rule:evenodd;stroke:rgb(0, 255, 15);stroke-width:1;" d="M 637.99, 286.47 L 658.616, 258.087 L 673.248, 264.257 L 672.719, 264.963 L 652.622, 292.64 L 637.99, 286.47 z "/>
<path style="fill:rgb(255, 255, 0);fill-opacity:0;fill-rule:evenodd;stroke:rgb(0, 255, 15);stroke-width:1;" d="M 970.295, 430.498 L 992.86, 399.824 L 1006.26, 405.465 L 986.514, 432.085 L 983.517, 436.139 L 970.295, 430.498 z "/>
<path style="fill:rgb(255, 0, 0);fill-opacity:0;fill-rule:evenodd;stroke:rgb(0, 255, 15);stroke-width:1;" d="M 132.041, 508.594 L 142.442, 493.962 L 170.648, 505.773 L 160.071, 520.405 L 132.041, 508.594 z "/>
<path style="fill:rgb(0, 255, 0);fill-opacity:0;fill-rule:evenodd;stroke:rgb(0, 255, 15);stroke-width:1;" d="M 142.442, 493.962 L 153.019, 479.683 L 181.049, 491.494 L 170.648, 505.773 L 142.442, 493.962 z "/>
<path style="fill:rgb(0, 0, 255);fill-opacity:0;fill-rule:evenodd;stroke:rgb(0, 255, 15);stroke-width:1;" d="M 245.923, 734.068 L 273.601, 696.342 L 284.178, 700.749 L 271.133, 718.731 L 257.911, 736.712 L 256.501, 738.651 L 245.923, 734.068 z "/>
<path style="fill:rgb(255, 255, 0);fill-opacity:0;fill-rule:evenodd;stroke:rgb(0, 255, 15);stroke-width:1;" d="M 634.112, 143.323 L 649.097, 122.345 L 655.443, 113.706 L 669.017, 119.348 L 647.686, 148.964 L 634.112, 143.323 z "/>
<path style="fill:rgb(255, 0, 0);fill-opacity:0;fill-rule:evenodd;stroke:rgb(0, 255, 15);stroke-width:1;" d="M 271.133, 718.731 L 284.178, 700.749 L 306.567, 710.269 L 293.345, 728.074 L 271.133, 718.731 z "/>
<path style="fill:rgb(0, 255, 0);fill-opacity:0;fill-rule:evenodd;stroke:rgb(0, 255, 15);stroke-width:1;" d="M 901.543, 184.222 L 909.299, 173.645 L 912.649, 175.055 L 923.931, 179.639 L 924.636, 181.401 L 930.101, 183.693 L 932.569, 183.341 L 947.025, 189.335 L 939.445, 200.088 L 901.543, 184.222 z "/>
<path style="fill:rgb(0, 0, 255);fill-opacity:0;fill-rule:evenodd;stroke:rgb(0, 255, 15);stroke-width:1;" d="M 797.708, 490.436 L 805.289, 479.506 L 841.781, 494.491 L 834.024, 505.421 L 798.942, 490.965 L 797.708, 490.436 z "/>
<path style="fill:rgb(255, 255, 0);fill-opacity:0;fill-rule:evenodd;stroke:rgb(0, 255, 15);stroke-width:1;" d="M 959.365, 269.37 L 966.946, 258.969 L 998.149, 272.19 L 992.684, 279.595 L 994.799, 280.652 L 996.21, 278.713 L 1007.67, 283.649 L 1003.97, 288.409 L 990.921, 282.768 L 959.365, 269.37 z "/>
<path style="fill:rgb(255, 0, 0);fill-opacity:0;fill-rule:evenodd;stroke:rgb(0, 255, 15);stroke-width:1;" d="M 911.944, 333.539 L 920.053, 322.609 L 954.782, 337.241 L 947.201, 347.642 L 946.673, 348.347 L 911.944, 333.539 z "/>
<path style="fill:rgb(0, 255, 0);fill-opacity:0;fill-rule:evenodd;stroke:rgb(0, 255, 15);stroke-width:1;" d="M 624.416, 280.829 L 644.513, 253.151 L 645.042, 252.446 L 658.616, 258.087 L 637.99, 286.47 L 624.416, 280.829 z "/>
<path style="fill:rgb(0, 0, 255);fill-opacity:0;fill-rule:evenodd;stroke:rgb(0, 255, 15);stroke-width:1;" d="M 878.625, 221.419 L 886.734, 210.137 L 920.934, 224.592 L 912.825, 235.699 L 912.12, 235.346 L 878.625, 221.419 z "/>
<path style="fill:rgb(255, 255, 0);fill-opacity:0;fill-rule:evenodd;stroke:rgb(0, 255, 15);stroke-width:1;" d="M 836.492, 513.53 L 855.531, 486.734 L 869.81, 492.728 L 850.771, 519.524 L 836.492, 513.53 z "/>
<path style="fill:rgb(255, 0, 0);fill-opacity:0;fill-rule:evenodd;stroke:rgb(0, 255, 15);stroke-width:1;" d="M 935.743, 301.454 L 943.676, 290.524 L 976.113, 304.451 L 978.405, 305.333 L 970.472, 316.086 L 935.743, 301.454 z "/>
<path style="fill:rgb(0, 255, 0);fill-opacity:0;fill-rule:evenodd;stroke:rgb(0, 255, 15);stroke-width:1;" d="M 920.053, 322.609 L 927.986, 311.855 L 962.715, 326.664 L 959.542, 330.895 L 954.782, 337.241 L 920.053, 322.609 z "/>
<path style="fill:rgb(0, 0, 255);fill-opacity:0;fill-rule:evenodd;stroke:rgb(0, 255, 15);stroke-width:1;" d="M 122.345, 521.816 L 132.041, 508.594 L 160.071, 520.405 L 150.375, 533.627 L 122.345, 521.816 z "/>
<path style="fill:rgb(255, 255, 0);fill-opacity:0;fill-rule:evenodd;stroke:rgb(0, 255, 15);stroke-width:1;" d="M 680.123, 653.504 L 687.175, 643.632 L 696.871, 647.862 L 725.43, 659.85 L 718.202, 669.546 L 680.123, 653.504 z "/>
<path style="fill:rgb(255, 0, 0);fill-opacity:0;fill-rule:evenodd;stroke:rgb(0, 255, 15);stroke-width:1;" d="M 599.03, 602.556 L 603.085, 597.091 L 604.672, 597.796 L 606.611, 595.152 L 621.595, 601.498 L 621.772, 602.732 L 626.003, 604.495 L 627.942, 603.967 L 639.577, 608.903 L 641.164, 609.608 L 632.878, 620.538 L 620.361, 615.249 L 619.304, 613.486 L 615.249, 611.723 L 612.781, 612.076 L 600.264, 606.611 L 602.204, 603.967 L 599.03, 602.556 z "/>
<path style="fill:rgb(0, 255, 0);fill-opacity:0;fill-rule:evenodd;stroke:rgb(0, 255, 15);stroke-width:1;" d="M 783.781, 710.445 L 802.821, 684.178 L 817.1, 690.172 L 797.885, 716.439 L 783.781, 710.445 z "/>
<path style="fill:rgb(0, 0, 255);fill-opacity:0;fill-rule:evenodd;stroke:rgb(0, 255, 15);stroke-width:1;" d="M 797.003, 572.587 L 804.936, 561.657 L 819.921, 540.326 L 831.556, 545.262 L 827.325, 551.256 L 816.042, 566.946 L 808.638, 577.347 L 797.003, 572.587 z "/>
<path style="fill:rgb(255, 255, 0);fill-opacity:0;fill-rule:evenodd;stroke:rgb(0, 255, 15);stroke-width:1;" d="M 220.185, 160.071 L 236.58, 136.977 L 252.975, 143.499 L 252.446, 144.028 L 252.093, 144.028 L 244.689, 154.606 L 236.227, 166.77 L 220.185, 160.071 z "/>
<path style="fill:rgb(255, 0, 0);fill-opacity:0;fill-rule:evenodd;stroke:rgb(0, 255, 15);stroke-width:1;" d="M 791.362, 501.366 L 798.942, 490.965 L 834.024, 505.421 L 826.443, 515.822 L 791.362, 501.366 z "/>
<path style="fill:rgb(0, 255, 0);fill-opacity:0;fill-rule:evenodd;stroke:rgb(0, 255, 15);stroke-width:1;" d="M 870.692, 232.349 L 878.625, 221.419 L 912.12, 235.346 L 904.187, 246.276 L 870.692, 232.349 z "/>
<path style="fill:rgb(0, 0, 255);fill-opacity:0;fill-rule:evenodd;stroke:rgb(0, 255, 15);stroke-width:1;" d="M 927.986, 311.855 L 935.743, 301.454 L 970.472, 316.086 L 962.715, 326.664 L 927.986, 311.855 z "/>
<path style="fill:rgb(255, 255, 0);fill-opacity:0;fill-rule:evenodd;stroke:rgb(0, 255, 15);stroke-width:1;" d="M 591.45, 551.256 L 592.86, 549.493 L 591.979, 548.964 L 597.973, 541.031 L 600.088, 541.031 L 601.851, 538.916 L 600.97, 537.858 L 609.079, 527.104 L 608.374, 526.752 L 609.079, 525.87 L 623.182, 531.864 L 622.829, 532.217 L 614.72, 543.323 L 612.957, 543.323 L 611.371, 545.439 L 612.252, 546.849 L 607.316, 553.548 L 604.848, 556.897 L 600.793, 555.134 L 598.502, 558.308 L 592.508, 555.663 L 594.623, 552.666 L 591.45, 551.256 z "/>
<path style="fill:rgb(255, 0, 0);fill-opacity:0;fill-rule:evenodd;stroke:rgb(0, 255, 15);stroke-width:1;" d="M 707.801, 166.241 L 721.375, 147.554 L 725.43, 141.913 L 739.885, 148.083 L 722.433, 172.411 L 707.801, 166.241 z "/>
<path style="fill:rgb(0, 255, 0);fill-opacity:0;fill-rule:evenodd;stroke:rgb(0, 255, 15);stroke-width:1;" d="M 975.231, 648.215 L 975.937, 647.157 L 989.863, 627.766 L 993.742, 622.301 L 1007.49, 627.942 L 1006.96, 628.823 L 998.678, 640.635 L 989.158, 654.033 L 975.231, 648.215 z "/>
<path style="fill:rgb(0, 0, 255);fill-opacity:0;fill-rule:evenodd;stroke:rgb(0, 255, 15);stroke-width:1;" d="M 735.478, 177.876 L 753.107, 153.548 L 767.563, 159.718 L 750.11, 183.87 L 735.478, 177.876 z "/>
<path style="fill:rgb(255, 255, 0);fill-opacity:0;fill-rule:evenodd;stroke:rgb(0, 255, 15);stroke-width:1;" d="M 560.599, 618.422 L 561.128, 617.717 L 567.827, 608.726 L 569.238, 608.197 L 571.706, 604.848 L 571.529, 603.79 L 579.286, 593.389 L 581.93, 594.623 L 583.517, 592.508 L 590.745, 595.505 L 589.158, 597.796 L 592.86, 599.207 L 585.809, 608.55 L 583.517, 609.431 L 581.049, 612.957 L 581.049, 614.896 L 574.174, 624.24 L 560.599, 618.422 z "/>
<path style="fill:rgb(255, 0, 0);fill-opacity:0;fill-rule:evenodd;stroke:rgb(0, 255, 15);stroke-width:1;" d="M 591.45, 613.31 L 595.505, 607.845 L 598.502, 609.255 L 600.264, 606.611 L 612.781, 612.076 L 613.662, 613.486 L 618.246, 615.425 L 620.361, 615.249 L 632.878, 620.538 L 625.121, 631.115 L 612.428, 625.65 L 612.076, 624.063 L 607.492, 621.948 L 605.553, 622.653 L 592.508, 617.188 L 594.447, 614.544 L 591.45, 613.31 z "/>
<path style="fill:rgb(0, 255, 0);fill-opacity:0;fill-rule:evenodd;stroke:rgb(0, 255, 15);stroke-width:1;" d="M 618.951, 325.959 L 626.179, 315.91 L 660.732, 330.19 L 653.504, 340.414 L 625.65, 328.779 L 618.951, 325.959 z "/>
<path style="fill:rgb(0, 0, 255);fill-opacity:0;fill-rule:evenodd;stroke:rgb(0, 255, 15);stroke-width:1;" d="M 193.389, 97.4879 L 212.076, 71.3971 L 225.474, 77.0383 L 206.787, 103.129 L 193.389, 97.4879 z "/>
<path style="fill:rgb(255, 255, 0);fill-opacity:0;fill-rule:evenodd;stroke:rgb(0, 255, 15);stroke-width:1;" d="M 826.443, 75.9806 L 843.72, 52.1816 L 858.352, 58.3517 L 850.948, 68.5765 L 848.303, 72.2785 L 841.075, 82.1507 L 826.443, 75.9806 z "/>
<path style="fill:rgb(255, 0, 0);fill-opacity:0;fill-rule:evenodd;stroke:rgb(0, 255, 15);stroke-width:1;" d="M 845.659, 226.884 L 863.993, 201.322 L 877.567, 206.963 L 859.233, 232.525 L 845.659, 226.884 z "/>
<path style="fill:rgb(0, 255, 0);fill-opacity:0;fill-rule:evenodd;stroke:rgb(0, 255, 15);stroke-width:1;" d="M 763.508, 189.687 L 781.137, 165.359 L 795.24, 171.177 L 793.125, 173.997 L 777.611, 195.505 L 763.508, 189.687 z "/>
<path style="fill:rgb(0, 0, 255);fill-opacity:0;fill-rule:evenodd;stroke:rgb(0, 255, 15);stroke-width:1;" d="M 600.088, 264.081 L 616.659, 241.34 L 617.364, 240.282 L 631.82, 246.276 L 630.939, 247.334 L 614.544, 270.075 L 600.088, 264.081 z "/>
<path style="fill:rgb(255, 255, 0);fill-opacity:0;fill-rule:evenodd;stroke:rgb(0, 255, 15);stroke-width:1;" d="M 943.676, 290.524 L 951.609, 279.947 L 983.164, 293.345 L 976.113, 303.041 L 976.994, 303.394 L 976.113, 304.451 L 943.676, 290.524 z "/>
<path style="fill:rgb(255, 0, 0);fill-opacity:0;fill-rule:evenodd;stroke:rgb(0, 255, 15);stroke-width:1;" d="M 951.609, 279.947 L 959.365, 269.37 L 990.921, 282.768 L 983.164, 293.345 L 951.609, 279.947 z "/>
<path style="fill:rgb(0, 255, 0);fill-opacity:0;fill-rule:evenodd;stroke:rgb(0, 255, 15);stroke-width:1;" d="M 342.53, 216.659 L 348.7, 208.197 L 388.541, 224.945 L 386.249, 228.118 L 382.547, 233.407 L 342.53, 216.659 z "/>
<path style="fill:rgb(0, 0, 255);fill-opacity:0;fill-rule:evenodd;stroke:rgb(0, 255, 15);stroke-width:1;" d="M 330.718, 233.054 L 336.888, 224.416 L 376.906, 241.164 L 371.265, 248.92 L 356.633, 242.75 L 356.104, 243.632 L 330.718, 233.054 z "/>
<path style="fill:rgb(255, 255, 0);fill-opacity:0;fill-rule:evenodd;stroke:rgb(0, 255, 15);stroke-width:1;" d="M 750.11, 183.87 L 767.563, 159.718 L 781.137, 165.359 L 763.508, 189.687 L 750.11, 183.87 z "/>
<path style="fill:rgb(255, 0, 0);fill-opacity:0;fill-rule:evenodd;stroke:rgb(0, 255, 15);stroke-width:1;" d="M 532.217, 674.306 L 556.192, 669.546 L 561.833, 686.117 L 538.034, 690.877 L 532.217, 674.306 z "/>
<path style="fill:rgb(0, 255, 0);fill-opacity:0;fill-rule:evenodd;stroke:rgb(0, 255, 15);stroke-width:1;" d="M 846.893, 425.033 L 853.944, 415.513 L 886.734, 429.44 L 879.683, 439.136 L 846.893, 425.033 z "/>
<path style="fill:rgb(0, 0, 255);fill-opacity:0;fill-rule:evenodd;stroke:rgb(0, 255, 15);stroke-width:1;" d="M 853.944, 415.513 L 861.172, 405.818 L 885.853, 416.395 L 893.786, 419.921 L 886.734, 429.44 L 853.944, 415.513 z "/>
<path style="fill:rgb(255, 255, 0);fill-opacity:0;fill-rule:evenodd;stroke:rgb(0, 255, 15);stroke-width:1;" d="M 722.433, 172.411 L 739.885, 148.083 L 753.107, 153.548 L 735.478, 177.876 L 722.433, 172.411 z "/>
<path style="fill:rgb(255, 0, 0);fill-opacity:0;fill-rule:evenodd;stroke:rgb(0, 255, 15);stroke-width:1;" d="M 652.093, 293.169 L 652.622, 292.64 L 672.719, 264.963 L 683.825, 269.546 L 663.376, 297.929 L 652.093, 293.169 z "/>
<path style="fill:rgb(0, 255, 0);fill-opacity:0;fill-rule:evenodd;stroke:rgb(0, 255, 15);stroke-width:1;" d="M 206.258, 179.639 L 220.185, 160.071 L 236.227, 166.77 L 222.477, 186.338 L 206.258, 179.639 z "/>
<path style="fill:rgb(0, 0, 255);fill-opacity:0;fill-rule:evenodd;stroke:rgb(0, 255, 15);stroke-width:1;" d="M 224.592, 415.513 L 238.872, 395.593 L 255.972, 402.644 L 245.042, 417.805 L 244.16, 419.039 L 236.227, 415.866 L 233.583, 419.216 L 224.592, 415.513 z "/>
<path style="fill:rgb(255, 255, 0);fill-opacity:0;fill-rule:evenodd;stroke:rgb(0, 255, 15);stroke-width:1;" d="M 336.888, 224.416 L 342.53, 216.659 L 382.547, 233.407 L 376.906, 241.164 L 336.888, 224.416 z "/>
<path style="fill:rgb(255, 0, 0);fill-opacity:0;fill-rule:evenodd;stroke:rgb(0, 255, 15);stroke-width:1;" d="M 381.666, 672.719 L 386.249, 666.373 L 389.07, 667.431 L 396.122, 657.558 L 408.814, 662.847 L 416.219, 666.02 L 406.875, 678.713 L 399.647, 675.716 L 397.179, 674.835 L 394.711, 678.184 L 381.666, 672.719 z "/>
<path style="fill:rgb(0, 255, 0);fill-opacity:0;fill-rule:evenodd;stroke:rgb(0, 255, 15);stroke-width:1;" d="M 841.075, 663.905 L 845.835, 657.382 L 862.23, 634.993 L 872.807, 639.577 L 856.413, 661.966 L 855.355, 661.437 L 850.595, 667.959 L 841.075, 663.905 z "/>
<path style="fill:rgb(0, 0, 255);fill-opacity:0;fill-rule:evenodd;stroke:rgb(0, 255, 15);stroke-width:1;" d="M 581.93, 301.278 L 589.335, 290.877 L 591.979, 287.351 L 599.736, 290.701 L 613.134, 296.342 L 613.662, 296.518 L 605.906, 307.272 L 603.614, 310.269 L 581.93, 301.278 z "/>
<path style="fill:rgb(255, 255, 0);fill-opacity:0;fill-rule:evenodd;stroke:rgb(0, 255, 15);stroke-width:1;" d="M 881.974, 375.672 L 888.497, 366.858 L 922.168, 381.137 L 915.646, 389.952 L 883.208, 376.025 L 881.974, 375.672 z "/>
<path style="fill:rgb(255, 0, 0);fill-opacity:0;fill-rule:evenodd;stroke:rgb(0, 255, 15);stroke-width:1;" d="M 742.001, 692.816 L 743.059, 691.23 L 756.809, 672.543 L 757.162, 672.014 L 771.441, 678.008 L 756.104, 698.81 L 742.001, 692.816 z "/>
<path style="fill:rgb(0, 255, 0);fill-opacity:0;fill-rule:evenodd;stroke:rgb(0, 255, 15);stroke-width:1;" d="M 646.276, 556.545 L 653.68, 546.673 L 652.975, 546.496 L 654.385, 544.733 L 679.771, 555.487 L 671.133, 567.298 L 646.276, 556.545 z "/>
<path style="fill:rgb(0, 0, 255);fill-opacity:0;fill-rule:evenodd;stroke:rgb(0, 255, 15);stroke-width:1;" d="M 924.813, 541.736 L 939.445, 521.287 L 953.548, 527.104 L 947.201, 535.743 L 942.442, 542.618 L 939.268, 547.025 L 938.916, 547.554 L 934.509, 545.615 L 933.098, 547.554 L 928.867, 545.791 L 930.278, 543.852 L 924.813, 541.736 z "/>
<path style="fill:rgb(255, 255, 0);fill-opacity:0;fill-rule:evenodd;stroke:rgb(0, 255, 15);stroke-width:1;" d="M 361.393, 606.082 L 364.918, 601.322 L 371.617, 591.979 L 373.557, 592.86 L 392.42, 600.793 L 383.429, 613.134 L 382.195, 614.72 L 367.21, 608.55 L 361.393, 606.082 z "/>
<path style="fill:rgb(255, 0, 0);fill-opacity:0;fill-rule:evenodd;stroke:rgb(0, 255, 15);stroke-width:1;" d="M 875.981, 673.777 L 878.096, 670.956 L 894.138, 649.273 L 905.773, 654.033 L 890.613, 674.835 L 887.616, 678.713 L 875.981, 673.777 z "/>
<path style="fill:rgb(0, 255, 0);fill-opacity:0;fill-rule:evenodd;stroke:rgb(0, 255, 15);stroke-width:1;" d="M 884.619, 752.402 L 899.251, 732.129 L 903.658, 726.311 L 914.588, 730.895 L 895.549, 756.985 L 884.619, 752.402 z "/>
<path style="fill:rgb(0, 0, 255);fill-opacity:0;fill-rule:evenodd;stroke:rgb(0, 255, 15);stroke-width:1;" d="M 801.939, 635.699 L 816.571, 615.778 L 830.674, 621.772 L 816.042, 641.692 L 801.939, 635.699 z "/>
<path style="fill:rgb(255, 255, 0);fill-opacity:0;fill-rule:evenodd;stroke:rgb(0, 255, 15);stroke-width:1;" d="M 888.497, 366.858 L 894.667, 358.396 L 928.338, 372.851 L 924.989, 377.259 L 922.168, 381.137 L 888.497, 366.858 z "/>
<path style="fill:rgb(255, 0, 0);fill-opacity:0;fill-rule:evenodd;stroke:rgb(0, 255, 15);stroke-width:1;" d="M 967.122, 558.836 L 970.472, 554.253 L 974.703, 554.253 L 977.876, 550.022 L 975.408, 547.378 L 981.578, 538.563 L 995.328, 544.381 L 994.623, 545.262 L 981.049, 564.478 L 967.122, 558.836 z "/>
<path style="fill:rgb(0, 255, 0);fill-opacity:0;fill-rule:evenodd;stroke:rgb(0, 255, 15);stroke-width:1;" d="M 962.362, 704.628 L 977.876, 683.297 L 989.687, 688.233 L 981.049, 700.22 L 974.174, 709.564 L 962.362, 704.628 z "/>
<path style="fill:rgb(0, 0, 255);fill-opacity:0;fill-rule:evenodd;stroke:rgb(0, 255, 15);stroke-width:1;" d="M 866.99, 666.197 L 883.208, 643.984 L 894.491, 648.568 L 894.138, 649.273 L 878.096, 670.956 L 866.99, 666.197 z "/>
<path style="fill:rgb(255, 255, 0);fill-opacity:0;fill-rule:evenodd;stroke:rgb(0, 255, 15);stroke-width:1;" d="M 729.837, 685.588 L 743.587, 666.902 L 756.809, 672.543 L 743.059, 691.23 L 729.837, 685.588 z "/>
<path style="fill:rgb(255, 0, 0);fill-opacity:0;fill-rule:evenodd;stroke:rgb(0, 255, 15);stroke-width:1;" d="M 861.172, 405.818 L 868.4, 395.945 L 893.257, 406.523 L 885.853, 416.395 L 861.172, 405.818 z "/>
<path style="fill:rgb(0, 255, 0);fill-opacity:0;fill-rule:evenodd;stroke:rgb(0, 255, 15);stroke-width:1;" d="M 824.857, 648.568 L 841.252, 626.179 L 852.005, 630.586 L 835.61, 652.975 L 824.857, 648.568 z "/>
<path style="fill:rgb(0, 0, 255);fill-opacity:0;fill-rule:evenodd;stroke:rgb(0, 255, 15);stroke-width:1;" d="M 173.292, 310.093 L 181.225, 299.515 L 203.438, 309.035 L 195.505, 319.612 L 173.292, 310.093 z "/>
<path style="fill:rgb(255, 255, 0);fill-opacity:0;fill-rule:evenodd;stroke:rgb(0, 255, 15);stroke-width:1;" d="M 814.456, 644.16 L 816.042, 641.692 L 830.674, 621.772 L 841.252, 626.179 L 824.857, 648.568 L 814.456, 644.16 z "/>
<path style="fill:rgb(255, 0, 0);fill-opacity:0;fill-rule:evenodd;stroke:rgb(0, 255, 15);stroke-width:1;" d="M 951.432, 700.044 L 966.946, 678.537 L 977.876, 683.297 L 962.362, 704.628 L 951.432, 700.044 z "/>
<path style="fill:rgb(0, 255, 0);fill-opacity:0;fill-rule:evenodd;stroke:rgb(0, 255, 15);stroke-width:1;" d="M 890.613, 674.835 L 905.773, 654.033 L 906.126, 653.504 L 917.232, 658.264 L 916.351, 659.145 L 901.719, 679.418 L 890.613, 674.835 z "/>
<path style="fill:rgb(0, 0, 255);fill-opacity:0;fill-rule:evenodd;stroke:rgb(0, 255, 15);stroke-width:1;" d="M 856.413, 661.966 L 872.807, 639.577 L 883.208, 643.984 L 866.99, 666.197 L 856.413, 661.966 z "/>
<path style="fill:rgb(255, 255, 0);fill-opacity:0;fill-rule:evenodd;stroke:rgb(0, 255, 15);stroke-width:1;" d="M 835.61, 652.975 L 852.005, 630.586 L 862.23, 634.993 L 845.835, 657.382 L 835.61, 652.975 z "/>
<path style="fill:rgb(255, 0, 0);fill-opacity:0;fill-rule:evenodd;stroke:rgb(0, 255, 15);stroke-width:1;" d="M 621.772, 210.489 L 633.936, 193.389 L 647.51, 199.207 L 640.987, 208.197 L 635.346, 216.13 L 621.772, 210.489 z "/>
<path style="fill:rgb(0, 255, 0);fill-opacity:0;fill-rule:evenodd;stroke:rgb(0, 255, 15);stroke-width:1;" d="M 940.679, 695.461 L 956.368, 674.13 L 966.946, 678.537 L 951.432, 700.044 L 940.679, 695.461 z "/>
<path style="fill:rgb(0, 0, 255);fill-opacity:0;fill-rule:evenodd;stroke:rgb(0, 255, 15);stroke-width:1;" d="M 875.452, 604.848 L 889.202, 585.456 L 901.19, 590.216 L 887.263, 609.784 L 875.452, 604.848 z "/>
<path style="fill:rgb(255, 255, 0);fill-opacity:0;fill-rule:evenodd;stroke:rgb(0, 255, 15);stroke-width:1;" d="M 898.193, 614.191 L 911.944, 594.799 L 923.755, 599.559 L 910.004, 619.127 L 898.193, 614.191 z "/>
<path style="fill:rgb(255, 0, 0);fill-opacity:0;fill-rule:evenodd;stroke:rgb(0, 255, 15);stroke-width:1;" d="M 901.719, 679.418 L 916.351, 659.145 L 927.281, 663.905 L 912.472, 684.002 L 901.719, 679.418 z "/>
<path style="fill:rgb(0, 255, 0);fill-opacity:0;fill-rule:evenodd;stroke:rgb(0, 255, 15);stroke-width:1;" d="M 864.169, 743.764 L 878.978, 723.667 L 887.792, 727.369 L 888.145, 726.664 L 889.555, 727.369 L 889.202, 727.898 L 889.907, 728.25 L 875.099, 748.347 L 864.169, 743.764 z "/>
<path style="fill:rgb(0, 0, 255);fill-opacity:0;fill-rule:evenodd;stroke:rgb(0, 255, 15);stroke-width:1;" d="M 953.724, 637.99 L 967.475, 618.599 L 978.933, 623.358 L 965.183, 642.75 L 953.724, 637.99 z "/>
<path style="fill:rgb(255, 255, 0);fill-opacity:0;fill-rule:evenodd;stroke:rgb(0, 255, 15);stroke-width:1;" d="M 942.265, 633.23 L 946.849, 626.884 L 956.016, 613.839 L 967.475, 618.599 L 953.724, 637.99 L 942.265, 633.23 z "/>
<path style="fill:rgb(255, 0, 0);fill-opacity:0;fill-rule:evenodd;stroke:rgb(0, 255, 15);stroke-width:1;" d="M 875.099, 748.347 L 889.907, 728.25 L 893.257, 723.667 L 898.369, 725.782 L 895.02, 730.366 L 899.251, 732.129 L 884.619, 752.402 L 875.099, 748.347 z "/>
<path style="fill:rgb(0, 255, 0);fill-opacity:0;fill-rule:evenodd;stroke:rgb(0, 255, 15);stroke-width:1;" d="M 401.234, 178.405 L 408.991, 167.651 L 428.911, 176.113 L 421.155, 186.69 L 401.234, 178.405 z "/>
<path style="fill:rgb(0, 0, 255);fill-opacity:0;fill-rule:evenodd;stroke:rgb(0, 255, 15);stroke-width:1;" d="M 853.768, 739.357 L 868.576, 719.26 L 878.978, 723.667 L 864.169, 743.764 L 853.768, 739.357 z "/>
<path style="fill:rgb(255, 255, 0);fill-opacity:0;fill-rule:evenodd;stroke:rgb(0, 255, 15);stroke-width:1;" d="M 139.797, 295.637 L 147.73, 285.059 L 167.475, 293.521 L 159.542, 304.099 L 139.797, 295.637 z "/>
<path style="fill:rgb(255, 0, 0);fill-opacity:0;fill-rule:evenodd;stroke:rgb(0, 255, 15);stroke-width:1;" d="M 720.494, 397.179 L 721.199, 396.474 L 728.779, 386.073 L 733.892, 388.365 L 747.642, 394.182 L 739.357, 405.289 L 720.494, 397.179 z "/>
<path style="fill:rgb(0, 255, 0);fill-opacity:0;fill-rule:evenodd;stroke:rgb(0, 255, 15);stroke-width:1;" d="M 887.263, 609.784 L 901.19, 590.216 L 911.944, 594.799 L 898.193, 614.191 L 887.263, 609.784 z "/>
<path style="fill:rgb(0, 0, 255);fill-opacity:0;fill-rule:evenodd;stroke:rgb(0, 255, 15);stroke-width:1;" d="M 965.183, 642.75 L 978.933, 623.358 L 989.863, 627.766 L 975.937, 647.157 L 965.183, 642.75 z "/>
<path style="fill:rgb(255, 255, 0);fill-opacity:0;fill-rule:evenodd;stroke:rgb(0, 255, 15);stroke-width:1;" d="M 910.004, 619.127 L 923.755, 599.559 L 934.509, 603.967 L 925.87, 616.13 L 920.582, 623.535 L 910.004, 619.127 z "/>
<path style="fill:rgb(255, 0, 0);fill-opacity:0;fill-rule:evenodd;stroke:rgb(0, 255, 15);stroke-width:1;" d="M 174.703, 123.402 L 181.754, 113.706 L 187.924, 105.068 L 198.854, 109.652 L 185.632, 127.986 L 174.703, 123.402 z "/>
<path style="fill:rgb(0, 255, 0);fill-opacity:0;fill-rule:evenodd;stroke:rgb(0, 255, 15);stroke-width:1;" d="M 535.919, 675.892 L 554.077, 672.367 L 558.131, 684.531 L 540.15, 688.056 L 535.919, 675.892 z "/>
<path style="fill:rgb(0, 0, 255);fill-opacity:0;fill-rule:evenodd;stroke:rgb(0, 255, 15);stroke-width:1;" d="M 132.569, 554.253 L 139.445, 544.733 L 150.551, 549.317 L 162.186, 554.253 L 162.01, 554.606 L 156.897, 552.49 L 156.721, 552.843 L 150.375, 561.657 L 144.557, 559.189 L 143.676, 558.836 L 141.384, 557.779 L 132.569, 554.253 z "/>
<path style="fill:rgb(255, 255, 0);fill-opacity:0;fill-rule:evenodd;stroke:rgb(0, 255, 15);stroke-width:1;" d="M 169.766, 569.59 L 176.113, 560.952 L 176.289, 560.599 L 171.177, 558.66 L 171.529, 558.131 L 183.164, 562.891 L 194.447, 567.651 L 187.395, 577.171 L 178.757, 573.292 L 176.289, 572.234 L 175.408, 571.882 L 169.766, 569.59 z "/>
<path style="fill:rgb(255, 0, 0);fill-opacity:0;fill-rule:evenodd;stroke:rgb(0, 255, 15);stroke-width:1;" d="M 515.469, 676.774 L 522.521, 675.364 L 529.925, 698.281 L 519.7, 700.397 L 515.822, 690.172 L 518.114, 689.643 L 516.175, 684.354 L 517.937, 684.002 L 515.469, 676.774 z "/>
<path style="fill:rgb(0, 255, 0);fill-opacity:0;fill-rule:evenodd;stroke:rgb(0, 255, 15);stroke-width:1;" d="M 157.779, 585.809 L 158.131, 585.28 L 158.308, 585.104 L 164.478, 576.642 L 170.119, 579.11 L 171, 579.462 L 173.468, 580.344 L 182.283, 584.222 L 175.584, 593.389 L 164.301, 588.629 L 157.779, 585.809 z "/>
<path style="fill:rgb(0, 0, 255);fill-opacity:0;fill-rule:evenodd;stroke:rgb(0, 255, 15);stroke-width:1;" d="M 908.418, 564.654 L 915.646, 554.606 L 917.761, 551.609 L 932.041, 557.426 L 926.928, 564.654 L 923.226, 563.244 L 918.995, 569.061 L 908.418, 564.654 z "/>
<path style="fill:rgb(255, 255, 0);fill-opacity:0;fill-rule:evenodd;stroke:rgb(0, 255, 15);stroke-width:1;" d="M 120.758, 570.295 L 127.457, 561.305 L 136.271, 565.007 L 138.387, 565.888 L 139.445, 566.241 L 145.262, 568.709 L 139.092, 577.171 L 138.916, 577.347 L 138.563, 577.876 L 131.864, 575.055 L 120.758, 570.295 z "/>
<path style="fill:rgb(255, 0, 0);fill-opacity:0;fill-rule:evenodd;stroke:rgb(0, 255, 15);stroke-width:1;" d="M 392.948, 684.883 L 399.647, 675.716 L 408.814, 662.847 L 416.219, 666.02 L 406.875, 678.713 L 400.176, 687.88 L 392.948, 684.883 z "/>
<path style="fill:rgb(0, 255, 0);fill-opacity:0;fill-rule:evenodd;stroke:rgb(0, 255, 15);stroke-width:1;" d="M 355.223, 675.011 L 358.572, 670.604 L 392.948, 684.883 L 389.599, 689.467 L 355.223, 675.011 z "/>
<path style="fill:rgb(0, 0, 255);fill-opacity:0;fill-rule:evenodd;stroke:rgb(0, 255, 15);stroke-width:1;" d="M 764.39, 663.023 L 772.499, 651.917 L 786.249, 657.735 L 778.14, 668.841 L 764.39, 663.023 z "/>
<path style="fill:rgb(255, 255, 0);fill-opacity:0;fill-rule:evenodd;stroke:rgb(0, 255, 15);stroke-width:1;" d="M 159.542, 304.099 L 167.475, 293.521 L 181.225, 299.515 L 173.292, 310.093 L 159.542, 304.099 z "/>
<path style="fill:rgb(255, 0, 0);fill-opacity:0;fill-rule:evenodd;stroke:rgb(0, 255, 15);stroke-width:1;" d="M 652.446, 473.336 L 664.963, 456.236 L 673.424, 459.762 L 660.908, 476.862 L 652.446, 473.336 z "/>
<path style="fill:rgb(0, 255, 0);fill-opacity:0;fill-rule:evenodd;stroke:rgb(0, 255, 15);stroke-width:1;" d="M 397.003, 585.809 L 399.295, 582.636 L 444.249, 601.675 L 441.957, 604.672 L 397.003, 585.809 z "/>
<path style="fill:rgb(0, 0, 255);fill-opacity:0;fill-rule:evenodd;stroke:rgb(0, 255, 15);stroke-width:1;" d="M 772.499, 651.917 L 779.903, 642.045 L 793.477, 647.686 L 786.249, 657.735 L 772.499, 651.917 z "/>
<path style="fill:rgb(255, 255, 0);fill-opacity:0;fill-rule:evenodd;stroke:rgb(0, 255, 15);stroke-width:1;" d="M 645.571, 179.11 L 650.154, 172.763 L 653.151, 168.532 L 666.02, 173.997 L 663.2, 178.052 L 658.44, 184.398 L 645.571, 179.11 z "/>
<path style="fill:rgb(255, 0, 0);fill-opacity:0;fill-rule:evenodd;stroke:rgb(0, 255, 15);stroke-width:1;" d="M 826.796, 255.09 L 834.376, 244.513 L 846.364, 249.625 L 838.784, 260.203 L 833.671, 257.911 L 826.796, 255.09 z "/>
<path style="fill:rgb(0, 255, 0);fill-opacity:0;fill-rule:evenodd;stroke:rgb(0, 255, 15);stroke-width:1;" d="M 187.395, 577.171 L 194.447, 567.651 L 206.963, 573.116 L 200.088, 582.636 L 187.395, 577.171 z "/>
<path style="fill:rgb(0, 0, 255);fill-opacity:0;fill-rule:evenodd;stroke:rgb(0, 255, 15);stroke-width:1;" d="M 119.7, 548.964 L 126.576, 539.445 L 139.445, 544.733 L 132.569, 554.253 L 119.7, 548.964 z "/>
<path style="fill:rgb(255, 255, 0);fill-opacity:0;fill-rule:evenodd;stroke:rgb(0, 255, 15);stroke-width:1;" d="M 175.584, 593.389 L 182.283, 584.222 L 194.976, 589.511 L 188.277, 598.678 L 175.584, 593.389 z "/>
<path style="fill:rgb(255, 0, 0);fill-opacity:0;fill-rule:evenodd;stroke:rgb(0, 255, 15);stroke-width:1;" d="M 108.065, 565.007 L 114.588, 555.84 L 127.457, 561.305 L 120.758, 570.295 L 108.065, 565.007 z "/>
<path style="fill:rgb(0, 255, 0);fill-opacity:0;fill-rule:evenodd;stroke:rgb(0, 255, 15);stroke-width:1;" d="M 374.438, 648.568 L 376.377, 645.747 L 418.158, 663.2 L 416.219, 666.02 L 408.814, 662.847 L 396.122, 657.558 L 374.438, 648.568 z "/>
<path style="fill:rgb(0, 0, 255);fill-opacity:0;fill-rule:evenodd;stroke:rgb(0, 255, 15);stroke-width:1;" d="M 538.387, 676.95 L 552.49, 674.13 L 555.84, 683.473 L 541.56, 686.294 L 538.387, 676.95 z "/>
<path style="fill:rgb(255, 255, 0);fill-opacity:0;fill-rule:evenodd;stroke:rgb(0, 255, 15);stroke-width:1;" d="M 114.588, 555.84 L 119.7, 548.964 L 132.569, 554.253 L 127.457, 561.305 L 114.588, 555.84 z "/>
<path style="fill:rgb(255, 0, 0);fill-opacity:0;fill-rule:evenodd;stroke:rgb(0, 255, 15);stroke-width:1;" d="M 182.283, 584.222 L 187.395, 577.171 L 200.088, 582.636 L 194.976, 589.511 L 182.283, 584.222 z "/>
<path style="fill:rgb(0, 255, 0);fill-opacity:0;fill-rule:evenodd;stroke:rgb(0, 255, 15);stroke-width:1;" d="M 356.633, 597.796 L 364.39, 587.395 L 374.438, 591.626 L 373.557, 592.86 L 371.617, 591.979 L 364.918, 601.322 L 356.633, 597.796 z "/>
<path style="fill:rgb(0, 0, 255);fill-opacity:0;fill-rule:evenodd;stroke:rgb(0, 255, 15);stroke-width:1;" d="M 240.458, 93.7858 L 245.747, 86.3817 L 257.558, 91.1415 L 252.27, 98.7219 L 240.458, 93.7858 z "/>
<path style="fill:rgb(255, 255, 0);fill-opacity:0;fill-rule:evenodd;stroke:rgb(0, 255, 15);stroke-width:1;" d="M 105.421, 425.562 L 110.71, 417.981 L 121.639, 422.389 L 115.998, 429.969 L 105.421, 425.562 z "/>
<path style="fill:rgb(255, 0, 0);fill-opacity:0;fill-rule:evenodd;stroke:rgb(0, 255, 15);stroke-width:1;" d="M 200.088, 582.636 L 206.963, 573.116 L 213.662, 575.76 L 206.611, 585.456 L 200.088, 582.636 z "/>
<path style="fill:rgb(0, 255, 0);fill-opacity:0;fill-rule:evenodd;stroke:rgb(0, 255, 15);stroke-width:1;" d="M 127.457, 561.305 L 132.569, 554.253 L 141.384, 557.779 L 136.271, 565.007 L 127.457, 561.305 z "/>
<path style="fill:rgb(0, 0, 255);fill-opacity:0;fill-rule:evenodd;stroke:rgb(0, 255, 15);stroke-width:1;" d="M 113.178, 546.144 L 120.053, 536.624 L 126.576, 539.445 L 119.7, 548.964 L 113.178, 546.144 z "/>
<path style="fill:rgb(255, 255, 0);fill-opacity:0;fill-rule:evenodd;stroke:rgb(0, 255, 15);stroke-width:1;" d="M 173.468, 580.344 L 178.757, 573.292 L 187.395, 577.171 L 182.283, 584.222 L 173.468, 580.344 z "/>
<path style="fill:rgb(255, 0, 0);fill-opacity:0;fill-rule:evenodd;stroke:rgb(0, 255, 15);stroke-width:1;" d="M 188.277, 598.678 L 194.976, 589.511 L 201.498, 592.331 L 194.799, 601.498 L 188.277, 598.678 z "/>
<path style="fill:rgb(0, 255, 0);fill-opacity:0;fill-rule:evenodd;stroke:rgb(0, 255, 15);stroke-width:1;" d="M 101.543, 562.186 L 108.065, 553.195 L 114.588, 555.84 L 108.065, 565.007 L 101.543, 562.186 z "/>
<path style="fill:rgb(0, 0, 255);fill-opacity:0;fill-rule:evenodd;stroke:rgb(0, 255, 15);stroke-width:1;" d="M 108.065, 553.195 L 113.178, 546.144 L 119.7, 548.964 L 114.588, 555.84 L 108.065, 553.195 z "/>
<path style="fill:rgb(255, 255, 0);fill-opacity:0;fill-rule:evenodd;stroke:rgb(0, 255, 15);stroke-width:1;" d="M 194.976, 589.511 L 200.088, 582.636 L 206.611, 585.456 L 201.498, 592.331 L 194.976, 589.511 z "/>
<path style="fill:rgb(255, 0, 0);fill-opacity:0;fill-rule:evenodd;stroke:rgb(0, 255, 15);stroke-width:1;" d="M 131.864, 575.055 L 138.387, 565.888 L 139.445, 566.241 L 133.275, 574.703 L 139.092, 577.171 L 158.308, 585.104 L 163.949, 587.572 L 170.119, 579.11 L 171, 579.462 L 164.301, 588.629 L 157.779, 585.809 L 138.563, 577.876 L 131.864, 575.055 z "/>
<path style="fill:rgb(0, 255, 0);fill-opacity:0;fill-rule:evenodd;stroke:rgb(0, 255, 15);stroke-width:1;" d="M 131.864, 575.055 L 138.387, 565.888 L 139.445, 566.241 L 133.275, 574.703 L 139.092, 577.171 L 158.308, 585.104 L 163.949, 587.572 L 170.119, 579.11 L 171, 579.462 L 164.301, 588.629 L 157.779, 585.809 L 138.563, 577.876 L 131.864, 575.055 z "/>
<path style="fill:rgb(0, 0, 255);fill-opacity:0;fill-rule:evenodd;stroke:rgb(0, 255, 15);stroke-width:1;" d="M 131.864, 575.055 L 138.387, 565.888 L 139.445, 566.241 L 133.275, 574.703 L 139.092, 577.171 L 158.308, 585.104 L 163.949, 587.572 L 170.119, 579.11 L 171, 579.462 L 164.301, 588.629 L 157.779, 585.809 L 138.563, 577.876 L 131.864, 575.055 z "/>
<path style="fill:rgb(255, 255, 0);fill-opacity:0;fill-rule:evenodd;stroke:rgb(0, 255, 15);stroke-width:1;" d="M 131.864, 575.055 L 138.387, 565.888 L 139.445, 566.241 L 133.275, 574.703 L 139.092, 577.171 L 158.308, 585.104 L 163.949, 587.572 L 170.119, 579.11 L 171, 579.462 L 164.301, 588.629 L 157.779, 585.809 L 138.563, 577.876 L 131.864, 575.055 z "/>
<path style="fill:rgb(255, 0, 0);fill-opacity:0;fill-rule:evenodd;stroke:rgb(0, 255, 15);stroke-width:1;" d="M 143.676, 558.836 L 150.551, 549.317 L 162.186, 554.253 L 171.529, 558.131 L 183.164, 562.891 L 176.289, 572.234 L 175.408, 571.882 L 181.754, 563.244 L 176.113, 560.952 L 156.721, 552.843 L 150.903, 550.375 L 144.557, 559.189 L 143.676, 558.836 z "/>
<path style="fill:rgb(0, 255, 0);fill-opacity:0;fill-rule:evenodd;stroke:rgb(0, 255, 15);stroke-width:1;" d="M 143.676, 558.836 L 150.551, 549.317 L 162.186, 554.253 L 171.529, 558.131 L 183.164, 562.891 L 176.289, 572.234 L 175.408, 571.882 L 181.754, 563.244 L 176.113, 560.952 L 156.721, 552.843 L 150.903, 550.375 L 144.557, 559.189 L 143.676, 558.836 z "/>
<path style="fill:rgb(0, 0, 255);fill-opacity:0;fill-rule:evenodd;stroke:rgb(0, 255, 15);stroke-width:1;" d="M 143.676, 558.836 L 150.551, 549.317 L 162.186, 554.253 L 171.529, 558.131 L 183.164, 562.891 L 176.289, 572.234 L 175.408, 571.882 L 181.754, 563.244 L 176.113, 560.952 L 156.721, 552.843 L 150.903, 550.375 L 144.557, 559.189 L 143.676, 558.836 z "/>
<path style="fill:rgb(255, 255, 0);fill-opacity:0;fill-rule:evenodd;stroke:rgb(0, 255, 15);stroke-width:1;" d="M 143.676, 558.836 L 150.551, 549.317 L 162.186, 554.253 L 171.529, 558.131 L 183.164, 562.891 L 176.289, 572.234 L 175.408, 571.882 L 181.754, 563.244 L 176.113, 560.952 L 156.721, 552.843 L 150.903, 550.375 L 144.557, 559.189 L 143.676, 558.836 z "/>
<path style="fill:rgb(255, 0, 0);fill-opacity:0;fill-rule:evenodd;stroke:rgb(0, 255, 15);stroke-width:1;" d="M 0, 689.643 L 60.4672, 606.787 L 134.156, 637.99 L 108.242, 673.424 L 104.011, 679.242 L 103.834, 679.242 L 84.9714, 671.309 L 54.8259, 712.737 L 0, 689.643 z "/>
<path style="fill:rgb(0, 255, 0);fill-opacity:0;fill-rule:evenodd;stroke:rgb(0, 255, 15);stroke-width:1;" d="M 273.424, 63.4641 L 299.339, 28.03 L 313.618, 34.0238 L 318.202, 27.5011 L 332.305, 33.4949 L 347.995, 11.9877 L 377.788, 24.5042 L 402.468, 34.9052 L 364.037, 87.792 L 310.798, 65.227 L 303.041, 75.9806 L 273.424, 63.4641 z "/>
<path style="fill:rgb(0, 0, 255);fill-opacity:0;fill-rule:evenodd;stroke:rgb(0, 255, 15);stroke-width:1;" d="M 729.837, 35.0815 L 744.116, 15.6897 L 747.29, 11.4588 L 803.702, 35.0815 L 805.112, 33.3186 L 820.626, 39.8413 L 819.216, 41.9568 L 843.72, 52.1816 L 826.443, 75.9806 L 802.115, 65.5796 L 799.647, 68.929 L 767.387, 55.3548 L 769.855, 52.0053 L 729.837, 35.0815 z "/>
<path style="fill:rgb(255, 255, 0);fill-opacity:0;fill-rule:evenodd;stroke:rgb(0, 255, 15);stroke-width:1;" d="M 604.495, 58.8806 L 635.346, 16.7475 L 651.741, 23.6227 L 691.406, 40.3702 L 660.732, 82.5033 L 604.495, 58.8806 z "/>
<path style="fill:rgb(255, 0, 0);fill-opacity:0;fill-rule:evenodd;stroke:rgb(0, 255, 15);stroke-width:1;" d="M 245.923, 52.0053 L 275.011, 11.9877 L 288.762, 17.8052 L 302.512, 23.6227 L 299.339, 28.03 L 273.424, 63.4641 L 245.923, 52.0053 z "/>
<path style="fill:rgb(0, 255, 0);fill-opacity:0;fill-rule:evenodd;stroke:rgb(0, 255, 15);stroke-width:1;" d="M 949.669, 55.7074 L 990.216, 0 L 1006.08, 6.69899 L 965.359, 62.4063 L 949.669, 55.7074 z "/>
</svg>