<?xml version="1.0" encoding="iso-8859-1" standalone="no"?>
<!DOCTYPE svg PUBLIC "-//W3C//DTD SVG 1.0//EN" "http://www.w3.org/TR/2001/REC-SVG-20010904/DTD/svg10.dtd">
<svg xmlns="http://www.w3.org/2000/svg" width="1065" height="800">
<path style="fill:rgb(255, 0, 0);fill-opacity:0;fill-rule:evenodd;stroke:rgb(255, 211, 0);stroke-width:1;" d="M 408.684, 670.647 L 469.652, 587.065 L 720.217, 692.537 L 722.569, 689.462 L 778.833, 713.161 L 715.694, 800 L 408.684, 670.647 z "/>
<path style="fill:rgb(0, 255, 0);fill-opacity:0;fill-rule:evenodd;stroke:rgb(255, 211, 0);stroke-width:1;" d="M 525.192, 127.182 L 535.685, 112.89 L 553.777, 88.1049 L 567.164, 93.7133 L 557.395, 107.101 L 563.908, 109.995 L 590.864, 73.27 L 577.295, 67.4808 L 595.929, 42.3338 L 703.754, 88.1049 L 639.53, 175.667 L 525.192, 127.182 z "/>
<path style="fill:rgb(0, 0, 255);fill-opacity:0;fill-rule:evenodd;stroke:rgb(255, 211, 0);stroke-width:1;" d="M 625.599, 408.684 L 626.685, 407.417 L 643.872, 383.537 L 656.897, 365.807 L 840.706, 443.419 L 836.183, 449.751 L 826.956, 445.952 L 800.181, 482.316 L 625.599, 408.684 z "/>
<path style="fill:rgb(255, 255, 0);fill-opacity:0;fill-rule:evenodd;stroke:rgb(255, 211, 0);stroke-width:1;" d="M 898.779, 655.269 L 961.375, 568.792 L 962.099, 568.973 L 994.663, 582.542 L 1065.94, 612.393 L 1050.38, 634.102 L 1007.69, 616.192 L 975.848, 660.335 L 982.361, 663.048 L 996.472, 643.51 L 1032.65, 658.706 L 1012.75, 686.205 L 1001.36, 681.502 L 992.13, 694.527 L 962.822, 682.225 L 957.395, 680.054 L 961.013, 674.989 L 921.936, 658.706 L 918.498, 663.591 L 898.779, 655.269 z "/>
<path style="fill:rgb(255, 0, 0);fill-opacity:0;fill-rule:evenodd;stroke:rgb(255, 211, 0);stroke-width:1;" d="M 697.422, 199.91 L 762.37, 113.614 L 808.322, 133.695 L 776.843, 175.486 L 835.821, 200.995 L 832.203, 206.422 L 823.881, 217.639 L 812.302, 233.559 L 803.256, 246.043 L 697.422, 199.91 z "/>
<path style="fill:rgb(0, 255, 0);fill-opacity:0;fill-rule:evenodd;stroke:rgb(255, 211, 0);stroke-width:1;" d="M 632.474, 309 L 635.188, 305.201 L 632.836, 304.297 L 681.682, 237.901 L 793.306, 285.482 L 791.135, 288.376 L 786.974, 293.985 L 770.873, 316.056 L 763.094, 326.549 L 754.953, 337.585 L 751.334, 342.469 L 723.293, 330.529 L 739.575, 308.458 L 710.629, 295.975 L 703.754, 305.382 L 697.241, 314.247 L 687.472, 327.454 L 664.496, 317.684 L 661.782, 321.483 L 632.474, 309 z "/>
<path style="fill:rgb(0, 0, 255);fill-opacity:0;fill-rule:evenodd;stroke:rgb(255, 211, 0);stroke-width:1;" d="M 860.787, 370.692 L 870.194, 358.028 L 886.296, 364.903 L 895.161, 352.962 L 900.95, 355.495 L 910.9, 342.108 L 940.389, 354.591 L 962.099, 363.998 L 959.928, 367.074 L 965.174, 369.245 L 976.029, 354.591 L 1007.33, 367.797 L 1008.59, 365.988 L 1014.38, 368.521 L 1011.85, 371.777 L 1007.15, 369.968 L 989.959, 393.125 L 997.196, 396.201 L 988.512, 407.96 L 985.075, 406.513 L 984.894, 406.875 L 980.914, 405.246 L 971.144, 418.634 L 958.661, 413.388 L 936.409, 443.419 L 898.96, 427.499 L 906.92, 416.644 L 903.483, 415.197 L 892.447, 430.213 L 884.125, 426.775 L 895.522, 411.217 L 875.26, 402.533 L 884.848, 389.507 L 889.552, 382.994 L 860.787, 370.692 z "/>
<path style="fill:rgb(255, 255, 0);fill-opacity:0;fill-rule:evenodd;stroke:rgb(255, 211, 0);stroke-width:1;" d="M 638.263, 471.28 L 646.585, 460.244 L 651.108, 454.093 L 661.601, 439.801 L 668.295, 430.755 L 817.368, 493.532 L 803.618, 512.347 L 787.517, 534.238 L 638.263, 471.28 z "/>
<path style="fill:rgb(255, 0, 0);fill-opacity:0;fill-rule:evenodd;stroke:rgb(255, 211, 0);stroke-width:1;" d="M 837.268, 250.384 L 844.143, 240.977 L 852.465, 229.76 L 860.787, 218.363 L 864.948, 212.935 L 907.825, 231.027 L 918.137, 217.096 L 952.51, 231.569 L 967.164, 211.669 L 989.417, 220.896 L 968.973, 248.756 L 959.023, 262.325 L 988.15, 274.627 L 982.904, 281.682 L 967.345, 303.03 L 965.898, 305.02 L 837.268, 250.384 z "/>
<path style="fill:rgb(0, 255, 0);fill-opacity:0;fill-rule:evenodd;stroke:rgb(255, 211, 0);stroke-width:1;" d="M 549.435, 582.904 L 558.842, 569.878 L 564.089, 562.822 L 593.035, 522.298 L 608.774, 500.588 L 652.555, 518.679 L 653.822, 517.051 L 686.929, 530.801 L 689.1, 527.725 L 704.478, 534.238 L 699.774, 540.57 L 682.768, 564.45 L 674.627, 575.486 L 643.51, 562.46 L 642.062, 564.631 L 630.122, 559.566 L 603.89, 595.929 L 598.643, 593.578 L 593.216, 601.176 L 549.435, 582.904 z "/>
<path style="fill:rgb(0, 0, 255);fill-opacity:0;fill-rule:evenodd;stroke:rgb(255, 211, 0);stroke-width:1;" d="M 186.522, 132.429 L 248.937, 45.9521 L 320.217, 75.6219 L 313.885, 84.4867 L 299.774, 104.025 L 293.08, 113.071 L 289.1, 118.86 L 274.265, 112.709 L 261.239, 130.62 L 242.967, 155.948 L 186.522, 132.429 z "/>
<path style="fill:rgb(255, 255, 0);fill-opacity:0;fill-rule:evenodd;stroke:rgb(255, 211, 0);stroke-width:1;" d="M 598.824, 603.347 L 603.89, 595.929 L 630.122, 559.566 L 642.062, 564.631 L 643.51, 562.46 L 674.627, 575.486 L 745.726, 606.603 L 713.704, 651.108 L 598.824, 603.347 z "/>
<path style="fill:rgb(255, 0, 0);fill-opacity:0;fill-rule:evenodd;stroke:rgb(255, 211, 0);stroke-width:1;" d="M 719.674, 643.148 L 733.062, 624.695 L 744.821, 629.579 L 747.354, 625.961 L 764.36, 633.017 L 783.537, 606.422 L 766.712, 599.367 L 769.245, 595.749 L 757.304, 590.683 L 770.692, 572.049 L 800.181, 584.351 L 802.533, 581.095 L 836.545, 595.387 L 834.012, 598.824 L 856.626, 608.232 L 843.057, 627.227 L 829.127, 621.438 L 821.348, 632.112 L 835.278, 638.082 L 826.775, 649.842 L 812.845, 644.052 L 805.066, 654.545 L 819.177, 660.335 L 805.608, 679.15 L 782.632, 669.742 L 780.28, 672.818 L 746.088, 658.526 L 748.621, 655.088 L 719.674, 643.148 z "/>
<path style="fill:rgb(0, 255, 0);fill-opacity:0;fill-rule:evenodd;stroke:rgb(255, 211, 0);stroke-width:1;" d="M 800.181, 482.316 L 826.956, 445.952 L 836.183, 449.751 L 834.555, 451.922 L 840.525, 454.455 L 845.228, 445.228 L 860.063, 451.56 L 872.908, 458.254 L 878.517, 460.606 L 887.743, 463.501 L 901.312, 470.918 L 916.508, 475.26 L 929.534, 483.039 L 939.665, 487.2 L 940.751, 485.934 L 945.093, 487.743 L 928.087, 508.186 L 925.554, 513.614 L 921.212, 519.584 L 913.614, 516.327 L 911.443, 519.222 L 913.614, 520.127 L 908.005, 527.906 L 800.181, 482.316 z "/>
<path style="fill:rgb(0, 0, 255);fill-opacity:0;fill-rule:evenodd;stroke:rgb(255, 211, 0);stroke-width:1;" d="M 103.483, 246.223 L 142.741, 191.588 L 176.753, 205.699 L 184.713, 208.955 L 176.572, 220.172 L 219.81, 238.082 L 209.679, 252.013 L 203.89, 260.154 L 195.387, 256.536 L 183.085, 273.903 L 163.184, 265.762 L 160.289, 269.742 L 103.483, 246.223 z "/>
<path style="fill:rgb(255, 255, 0);fill-opacity:0;fill-rule:evenodd;stroke:rgb(255, 211, 0);stroke-width:1;" d="M 857.892, 711.895 L 898.779, 655.269 L 918.498, 663.591 L 921.936, 658.706 L 961.013, 674.989 L 957.395, 680.054 L 962.822, 682.225 L 937.675, 716.961 L 934.962, 715.875 L 919.222, 737.585 L 857.892, 711.895 z "/>
<path style="fill:rgb(255, 0, 0);fill-opacity:0;fill-rule:evenodd;stroke:rgb(255, 211, 0);stroke-width:1;" d="M 377.205, 202.261 L 394.573, 178.019 L 402.533, 167.164 L 489.009, 203.347 L 482.497, 212.212 L 459.882, 243.691 L 438.535, 234.826 L 436.002, 238.263 L 377.567, 213.84 L 383.899, 204.975 L 377.205, 202.261 z "/>
<path style="fill:rgb(0, 255, 0);fill-opacity:0;fill-rule:evenodd;stroke:rgb(255, 211, 0);stroke-width:1;" d="M 809.588, 160.109 L 826.052, 137.856 L 940.027, 186.341 L 923.926, 208.232 L 914.337, 204.071 L 909.091, 211.307 L 907.282, 211.669 L 814.835, 172.411 L 814.473, 171.144 L 819.358, 164.27 L 809.588, 160.109 z "/>
<path style="fill:rgb(0, 0, 255);fill-opacity:0;fill-rule:evenodd;stroke:rgb(255, 211, 0);stroke-width:1;" d="M 305.201, 327.454 L 320.579, 306.106 L 326.006, 298.507 L 431.117, 342.108 L 425.328, 350.249 L 434.735, 354.048 L 428.223, 363.275 L 419.72, 375.034 L 305.201, 327.454 z "/>
<path style="fill:rgb(255, 255, 0);fill-opacity:0;fill-rule:evenodd;stroke:rgb(255, 211, 0);stroke-width:1;" d="M 800.362, 529.172 L 804.885, 522.84 L 809.588, 524.83 L 815.197, 517.232 L 803.618, 512.347 L 817.368, 493.532 L 858.978, 511.262 L 845.952, 528.81 L 871.461, 539.665 L 886.115, 519.765 L 912.709, 530.981 L 881.23, 573.677 L 854.817, 562.28 L 856.807, 559.928 L 801.447, 536.409 L 805.246, 531.162 L 800.362, 529.172 z "/>
<path style="fill:rgb(255, 0, 0);fill-opacity:0;fill-rule:evenodd;stroke:rgb(255, 211, 0);stroke-width:1;" d="M 375.938, 656.897 L 439.258, 570.059 L 471.823, 583.808 L 469.652, 587.065 L 408.684, 670.647 L 375.938, 656.897 z "/>
<path style="fill:rgb(0, 255, 0);fill-opacity:0;fill-rule:evenodd;stroke:rgb(255, 211, 0);stroke-width:1;" d="M 328.901, 126.82 L 343.193, 106.739 L 337.223, 104.206 L 343.012, 96.427 L 347.716, 89.7332 L 380.461, 103.483 L 371.416, 116.147 L 377.024, 118.498 L 377.567, 117.594 L 385.708, 121.031 L 384.984, 121.936 L 390.412, 124.288 L 399.095, 112.166 L 432.564, 125.916 L 424.062, 137.675 L 415.739, 149.254 L 408.141, 159.747 L 403.076, 166.983 L 364.722, 151.063 L 370.692, 142.741 L 361.827, 138.942 L 360.923, 140.208 L 328.901, 126.82 z "/>
<path style="fill:rgb(0, 0, 255);fill-opacity:0;fill-rule:evenodd;stroke:rgb(255, 211, 0);stroke-width:1;" d="M 86.2958, 679.15 L 102.759, 656.355 L 106.377, 651.47 L 206.061, 693.442 L 185.979, 721.122 L 86.2958, 679.15 z "/>
<path style="fill:rgb(255, 255, 0);fill-opacity:0;fill-rule:evenodd;stroke:rgb(255, 211, 0);stroke-width:1;" d="M 273.541, 165.174 L 289.824, 142.56 L 294.708, 135.866 L 301.945, 138.761 L 300.317, 140.932 L 337.947, 156.671 L 338.67, 155.586 L 351.877, 161.194 L 350.972, 162.641 L 386.793, 177.476 L 388.241, 175.305 L 394.573, 178.019 L 377.205, 202.261 L 373.768, 206.965 L 273.541, 165.174 z "/>
<path style="fill:rgb(255, 0, 0);fill-opacity:0;fill-rule:evenodd;stroke:rgb(255, 211, 0);stroke-width:1;" d="M 318.046, 724.378 L 349.706, 680.597 L 411.578, 706.468 L 380.1, 750.068 L 373.587, 747.535 L 318.046, 724.378 z "/>
<path style="fill:rgb(0, 255, 0);fill-opacity:0;fill-rule:evenodd;stroke:rgb(255, 211, 0);stroke-width:1;" d="M 163.365, 419.177 L 171.868, 407.598 L 175.124, 408.865 L 176.572, 407.056 L 177.476, 407.417 L 189.417, 391.316 L 212.754, 401.266 L 223.971, 386.07 L 281.321, 410.312 L 273.18, 421.167 L 272.818, 421.891 L 267.933, 419.9 L 265.762, 422.795 L 261.058, 420.805 L 257.078, 426.413 L 250.565, 435.278 L 259.973, 439.258 L 259.249, 440.344 L 250.746, 452.103 L 248.394, 455.179 L 220.172, 443.238 L 235.911, 421.348 L 209.317, 410.131 L 193.397, 432.022 L 163.365, 419.177 z "/>
<path style="fill:rgb(0, 0, 255);fill-opacity:0;fill-rule:evenodd;stroke:rgb(255, 211, 0);stroke-width:1;" d="M 517.594, 563.003 L 523.202, 555.224 L 519.403, 553.596 L 560.109, 497.151 L 564.27, 498.779 L 574.401, 484.848 L 584.351, 482.858 L 592.492, 486.296 L 594.12, 492.99 L 598.1, 494.799 L 598.824, 493.894 L 603.709, 492.266 L 609.317, 494.618 L 608.774, 500.588 L 593.035, 522.298 L 581.456, 517.594 L 575.305, 525.916 L 552.329, 557.938 L 564.089, 562.822 L 558.842, 569.878 L 544.188, 563.727 L 538.399, 571.687 L 517.594, 563.003 z "/>
<path style="fill:rgb(255, 255, 0);fill-opacity:0;fill-rule:evenodd;stroke:rgb(255, 211, 0);stroke-width:1;" d="M 185.256, 209.136 L 206.061, 180.19 L 212.573, 182.904 L 213.116, 181.818 L 231.027, 189.236 L 230.484, 190.14 L 271.551, 207.146 L 271.732, 206.784 L 289.462, 214.202 L 289.1, 214.925 L 295.251, 217.458 L 274.084, 246.766 L 267.39, 244.052 L 269.199, 241.52 L 244.595, 231.208 L 243.691, 232.474 L 230.665, 227.047 L 231.569, 225.78 L 193.216, 209.86 L 191.768, 211.85 L 185.256, 209.136 z "/>
<path style="fill:rgb(255, 0, 0);fill-opacity:0;fill-rule:evenodd;stroke:rgb(255, 211, 0);stroke-width:1;" d="M 424.062, 381.185 L 435.097, 366.169 L 428.223, 363.275 L 434.735, 354.048 L 448.666, 334.69 L 470.556, 343.917 L 505.473, 358.39 L 474.175, 401.99 L 424.062, 381.185 z "/>
<path style="fill:rgb(0, 255, 0);fill-opacity:0;fill-rule:evenodd;stroke:rgb(255, 211, 0);stroke-width:1;" d="M 826.232, 341.927 L 856.264, 301.402 L 898.598, 319.493 L 870.194, 358.028 L 860.787, 370.692 L 855.179, 378.471 L 827.499, 366.712 L 841.067, 348.259 L 826.232, 341.927 z "/>
<path style="fill:rgb(0, 0, 255);fill-opacity:0;fill-rule:evenodd;stroke:rgb(255, 211, 0);stroke-width:1;" d="M 453.731, 96.9697 L 460.606, 87.7431 L 464.405, 82.4966 L 474.355, 86.8385 L 482.135, 76.3455 L 479.059, 75.0791 L 479.602, 74.3555 L 472.546, 71.28 L 478.878, 62.777 L 481.23, 59.5206 L 511.262, 72.3654 L 505.111, 80.8684 L 507.825, 82.1348 L 506.015, 84.6676 L 512.166, 87.3813 L 520.308, 76.3455 L 549.435, 88.6477 L 538.218, 103.844 L 535.142, 102.578 L 529.534, 110.176 L 535.685, 112.89 L 525.192, 127.182 L 494.618, 114.156 L 505.292, 99.5025 L 502.94, 98.417 L 505.292, 95.1606 L 500.588, 93.1705 L 498.417, 96.246 L 496.065, 95.1606 L 485.029, 110.357 L 453.731, 96.9697 z "/>
<path style="fill:rgb(255, 255, 0);fill-opacity:0;fill-rule:evenodd;stroke:rgb(255, 211, 0);stroke-width:1;" d="M 378.471, 295.613 L 393.306, 274.989 L 387.155, 272.456 L 396.563, 259.249 L 399.095, 260.154 L 399.457, 259.611 L 423.7, 269.561 L 422.795, 271.009 L 429.127, 273.541 L 421.71, 283.853 L 424.423, 284.939 L 424.966, 286.929 L 429.851, 288.919 L 432.384, 288.195 L 435.097, 289.462 L 442.334, 279.331 L 448.847, 282.044 L 449.751, 280.778 L 474.175, 290.909 L 473.632, 291.452 L 475.984, 292.356 L 466.214, 305.925 L 459.521, 303.03 L 444.867, 323.474 L 417.187, 312.076 L 422.614, 304.478 L 411.398, 299.955 L 406.151, 307.191 L 378.471, 295.613 z "/>
<path style="fill:rgb(255, 0, 0);fill-opacity:0;fill-rule:evenodd;stroke:rgb(255, 211, 0);stroke-width:1;" d="M 492.99, 248.575 L 510.719, 223.971 L 517.775, 214.202 L 532.067, 220.534 L 545.816, 226.504 L 581.456, 241.882 L 555.948, 275.893 L 492.99, 248.575 z "/>
<path style="fill:rgb(0, 255, 0);fill-opacity:0;fill-rule:evenodd;stroke:rgb(255, 211, 0);stroke-width:1;" d="M 286.929, 767.074 L 293.261, 758.571 L 290.366, 757.485 L 303.392, 739.394 L 306.287, 740.479 L 310.991, 733.967 L 366.531, 757.304 L 361.646, 764.179 L 363.998, 765.084 L 366.169, 766.531 L 367.978, 768.159 L 369.245, 769.968 L 370.149, 771.958 L 370.33, 774.129 L 370.149, 776.119 L 369.426, 778.109 L 368.159, 780.1 L 367.436, 780.823 L 365.445, 782.451 L 364.36, 782.994 L 363.275, 783.718 L 360.742, 784.441 L 358.028, 784.984 L 356.038, 785.165 L 353.324, 788.783 L 352.239, 788.422 L 348.801, 792.944 L 286.929, 767.074 z "/>
<path style="fill:rgb(0, 0, 255);fill-opacity:0;fill-rule:evenodd;stroke:rgb(255, 211, 0);stroke-width:1;" d="M 408.141, 159.747 L 415.739, 149.254 L 422.976, 152.51 L 426.052, 151.787 L 433.469, 141.836 L 424.062, 137.675 L 432.564, 125.916 L 434.193, 123.564 L 465.491, 137.133 L 455.54, 150.339 L 464.948, 154.5 L 475.441, 140.57 L 506.015, 153.957 L 498.598, 163.727 L 495.341, 168.069 L 486.658, 164.45 L 479.059, 174.22 L 481.592, 175.305 L 480.687, 176.572 L 486.839, 179.285 L 486.658, 179.466 L 479.421, 189.055 L 478.697, 189.959 L 452.103, 178.381 L 462.777, 164.27 L 456.807, 161.556 L 452.646, 166.983 L 449.57, 165.717 L 442.696, 174.763 L 408.141, 159.747 z "/>
<path style="fill:rgb(255, 255, 0);fill-opacity:0;fill-rule:evenodd;stroke:rgb(255, 211, 0);stroke-width:1;" d="M 204.613, 285.482 L 224.333, 257.983 L 225.057, 257.078 L 248.756, 267.028 L 249.842, 265.581 L 272.094, 274.808 L 270.828, 276.436 L 293.985, 286.024 L 289.1, 293.08 L 273.722, 314.247 L 204.613, 285.482 z "/>
<path style="fill:rgb(255, 0, 0);fill-opacity:0;fill-rule:evenodd;stroke:rgb(255, 211, 0);stroke-width:1;" d="M 556.128, 394.03 L 559.023, 389.869 L 562.46, 389.688 L 568.431, 381.547 L 570.24, 382.27 L 579.104, 369.787 L 575.486, 368.159 L 580.552, 361.284 L 582.18, 360.742 L 583.989, 360.561 L 585.979, 360.742 L 591.949, 363.275 L 592.673, 362.189 L 643.872, 383.537 L 626.685, 407.417 L 625.599, 408.141 L 623.971, 408.503 L 622.886, 408.503 L 608.412, 402.533 L 607.508, 403.799 L 607.327, 405.97 L 603.528, 411.217 L 602.081, 412.121 L 600.633, 412.121 L 599.367, 411.94 L 598.281, 411.578 L 567.888, 398.915 L 556.128, 394.03 z "/>
<path style="fill:rgb(0, 255, 0);fill-opacity:0;fill-rule:evenodd;stroke:rgb(255, 211, 0);stroke-width:1;" d="M 293.442, 470.194 L 302.307, 458.073 L 316.78, 438.354 L 325.283, 426.594 L 330.167, 419.9 L 358.933, 432.022 L 368.521, 436.002 L 373.044, 437.992 L 363.817, 450.837 L 357.666, 448.123 L 330.167, 485.753 L 293.442, 470.194 z "/>
<path style="fill:rgb(0, 0, 255);fill-opacity:0;fill-rule:evenodd;stroke:rgb(255, 211, 0);stroke-width:1;" d="M 857.892, 94.7987 L 858.254, 94.4369 L 868.385, 80.1447 L 877.974, 84.1248 L 885.572, 73.4509 L 880.687, 71.4609 L 889.371, 59.5206 L 936.952, 79.2402 L 927.182, 92.9896 L 920.488, 90.2759 L 914.337, 98.7788 L 925.916, 103.664 L 915.242, 118.679 L 857.892, 94.7987 z "/>
<path style="fill:rgb(255, 255, 0);fill-opacity:0;fill-rule:evenodd;stroke:rgb(255, 211, 0);stroke-width:1;" d="M 368.34, 754.772 L 373.587, 747.535 L 380.1, 750.068 L 411.578, 706.468 L 439.077, 717.865 L 395.115, 778.652 L 390.773, 776.843 L 392.221, 774.672 L 373.044, 766.712 L 369.245, 758.571 L 371.235, 755.857 L 368.34, 754.772 z "/>
<path style="fill:rgb(255, 0, 0);fill-opacity:0;fill-rule:evenodd;stroke:rgb(255, 211, 0);stroke-width:1;" d="M 682.768, 564.45 L 699.774, 540.57 L 760.018, 565.717 L 758.933, 567.164 L 770.692, 572.049 L 757.304, 590.683 L 756.581, 591.949 L 744.821, 587.065 L 743.012, 589.417 L 682.768, 564.45 z "/>
<path style="fill:rgb(0, 255, 0);fill-opacity:0;fill-rule:evenodd;stroke:rgb(255, 211, 0);stroke-width:1;" d="M 250.746, 452.103 L 259.249, 440.344 L 269.923, 444.867 L 274.446, 438.535 L 277.521, 439.801 L 280.054, 436.183 L 277.16, 434.916 L 283.853, 425.69 L 273.18, 421.167 L 281.321, 410.312 L 282.587, 408.503 L 325.283, 426.594 L 316.78, 438.354 L 306.829, 434.193 L 292.356, 453.912 L 302.307, 458.073 L 293.442, 470.194 L 250.746, 452.103 z "/>
<path style="fill:rgb(0, 0, 255);fill-opacity:0;fill-rule:evenodd;stroke:rgb(255, 211, 0);stroke-width:1;" d="M 87.924, 91.3614 L 107.644, 64.2243 L 113.976, 66.7571 L 116.147, 64.0434 L 120.85, 66.0335 L 125.373, 59.8824 L 131.886, 62.5961 L 134.057, 59.7015 L 151.967, 67.2999 L 144.188, 77.9738 L 147.083, 79.2402 L 147.626, 81.2302 L 127.906, 108.186 L 87.924, 91.3614 z "/>
<path style="fill:rgb(255, 255, 0);fill-opacity:0;fill-rule:evenodd;stroke:rgb(255, 211, 0);stroke-width:1;" d="M 41.0674, 663.41 L 59.1588, 638.625 L 62.0534, 638.082 L 64.948, 634.102 L 66.7571, 633.198 L 68.9281, 630.303 L 77.7929, 634.102 L 75.6219, 636.997 L 75.6219, 638.625 L 72.7273, 642.605 L 73.9937, 644.233 L 76.5265, 644.233 L 79.4211, 640.253 L 81.2302, 639.349 L 83.4012, 636.273 L 92.085, 640.072 L 89.9141, 642.967 L 90.095, 644.776 L 87.2004, 648.575 L 88.1049, 650.204 L 90.9995, 650.204 L 94.0751, 646.043 L 96.246, 645.138 L 98.0552, 642.605 L 106.377, 646.043 L 104.387, 648.937 L 104.206, 650.384 L 101.131, 654.545 L 102.759, 656.355 L 86.2958, 679.15 L 84.4867, 681.682 L 41.0674, 663.41 z "/>
<path style="fill:rgb(255, 0, 0);fill-opacity:0;fill-rule:evenodd;stroke:rgb(255, 211, 0);stroke-width:1;" d="M 986.522, 532.429 L 1001.9, 511.262 L 1065.58, 537.856 L 1059.61, 546.359 L 1050.38, 559.023 L 1020.71, 546.721 L 986.522, 532.429 z "/>
<path style="fill:rgb(0, 255, 0);fill-opacity:0;fill-rule:evenodd;stroke:rgb(255, 211, 0);stroke-width:1;" d="M 463.32, 773.587 L 488.467, 738.851 L 525.373, 754.229 L 500.226, 789.145 L 463.32, 773.587 z "/>
<path style="fill:rgb(0, 0, 255);fill-opacity:0;fill-rule:evenodd;stroke:rgb(255, 211, 0);stroke-width:1;" d="M 136.228, 773.044 L 139.484, 768.34 L 138.761, 767.978 L 138.037, 765.084 L 140.208, 761.827 L 143.826, 761.104 L 151.244, 763.998 L 153.415, 760.923 L 143.826, 756.943 L 152.329, 745.002 L 177.476, 755.314 L 177.114, 755.857 L 170.421, 765.084 L 175.305, 767.074 L 182.18, 757.304 L 207.327, 767.616 L 198.824, 779.557 L 187.065, 774.672 L 184.532, 778.29 L 196.11, 782.994 L 187.969, 794.392 L 169.516, 786.793 L 173.496, 781.185 L 170.421, 779.919 L 167.888, 780.642 L 162.28, 778.29 L 161.556, 776.481 L 162.28, 775.215 L 159.023, 773.948 L 154.319, 780.642 L 136.228, 773.044 z "/>
<path style="fill:rgb(255, 255, 0);fill-opacity:0;fill-rule:evenodd;stroke:rgb(255, 211, 0);stroke-width:1;" d="M 182.542, 648.937 L 197.739, 627.951 L 202.804, 621.257 L 245.319, 639.168 L 225.237, 667.028 L 182.542, 648.937 z "/>
<path style="fill:rgb(255, 0, 0);fill-opacity:0;fill-rule:evenodd;stroke:rgb(255, 211, 0);stroke-width:1;" d="M 396.382, 447.218 L 414.111, 423.157 L 412.664, 422.614 L 419.539, 413.207 L 454.998, 428.042 L 430.393, 461.511 L 403.799, 450.294 L 396.382, 447.218 z "/>
<path style="fill:rgb(0, 255, 0);fill-opacity:0;fill-rule:evenodd;stroke:rgb(255, 211, 0);stroke-width:1;" d="M 500.769, 186.703 L 509.091, 175.667 L 510.9, 175.305 L 513.614, 171.506 L 513.071, 169.878 L 520.85, 159.566 L 563.908, 178.2 L 555.586, 189.055 L 551.244, 187.246 L 547.626, 192.13 L 551.967, 193.939 L 543.464, 205.337 L 500.769, 186.703 z "/>
<path style="fill:rgb(0, 0, 255);fill-opacity:0;fill-rule:evenodd;stroke:rgb(255, 211, 0);stroke-width:1;" d="M 968.973, 248.756 L 989.417, 220.896 L 997.015, 210.583 L 1025.6, 222.705 L 1017.82, 233.017 L 1014.02, 231.389 L 1013.3, 232.112 L 1011.13, 231.208 L 1009.14, 233.74 L 1011.49, 234.826 L 993.758, 259.249 L 968.973, 248.756 z "/>
<path style="fill:rgb(255, 255, 0);fill-opacity:0;fill-rule:evenodd;stroke:rgb(255, 211, 0);stroke-width:1;" d="M 79.2402, 610.945 L 103.664, 577.295 L 132.248, 589.417 L 126.097, 597.919 L 107.825, 622.886 L 79.2402, 610.945 z "/>
<path style="fill:rgb(255, 0, 0);fill-opacity:0;fill-rule:evenodd;stroke:rgb(255, 211, 0);stroke-width:1;" d="M 271.913, 316.961 L 273.722, 314.247 L 289.1, 293.08 L 292.718, 292.899 L 298.327, 285.301 L 309, 289.643 L 303.573, 297.422 L 304.659, 299.593 L 307.915, 299.231 L 313.342, 291.452 L 325.102, 296.336 L 319.674, 304.116 L 320.579, 306.106 L 305.201, 327.454 L 303.392, 330.167 L 271.913, 316.961 z "/>
<path style="fill:rgb(0, 255, 0);fill-opacity:0;fill-rule:evenodd;stroke:rgb(255, 211, 0);stroke-width:1;" d="M 803.256, 246.043 L 812.302, 233.559 L 819.358, 236.635 L 831.117, 220.715 L 823.881, 217.639 L 832.203, 206.422 L 860.787, 218.363 L 852.465, 229.76 L 845.047, 226.685 L 836.725, 237.901 L 844.143, 240.977 L 837.268, 250.384 L 831.66, 257.983 L 803.256, 246.043 z "/>
<path style="fill:rgb(0, 0, 255);fill-opacity:0;fill-rule:evenodd;stroke:rgb(255, 211, 0);stroke-width:1;" d="M 425.147, 85.0294 L 429.308, 79.4211 L 432.926, 74.5364 L 435.64, 74.3555 L 443.962, 62.9579 L 443.057, 60.6061 L 448.666, 53.1886 L 450.294, 50.6558 L 478.878, 62.777 L 472.546, 71.28 L 471.642, 72.7273 L 468.385, 73.9937 L 459.882, 85.3912 L 460.606, 87.7431 L 453.731, 96.9697 L 425.147, 85.0294 z "/>
<path style="fill:rgb(255, 255, 0);fill-opacity:0;fill-rule:evenodd;stroke:rgb(255, 211, 0);stroke-width:1;" d="M 363.998, 475.803 L 370.511, 466.938 L 376.3, 458.978 L 385.165, 462.596 L 388.241, 458.254 L 395.658, 461.511 L 422.433, 472.727 L 406.875, 493.894 L 363.998, 475.803 z "/>
<path style="fill:rgb(255, 0, 0);fill-opacity:0;fill-rule:evenodd;stroke:rgb(255, 211, 0);stroke-width:1;" d="M 98.0552, 771.416 L 115.423, 747.535 L 118.318, 748.621 L 120.85, 745.002 L 114.156, 742.289 L 121.755, 731.796 L 122.298, 730.891 L 150.701, 742.831 L 142.379, 754.229 L 135.866, 751.334 L 133.876, 754.229 L 136.59, 755.495 L 118.86, 780.1 L 98.0552, 771.416 z "/>
<path style="fill:rgb(0, 255, 0);fill-opacity:0;fill-rule:evenodd;stroke:rgb(255, 211, 0);stroke-width:1;" d="M 735.414, 364.179 L 743.374, 353.324 L 748.982, 355.676 L 751.696, 355.314 L 761.827, 341.565 L 760.199, 339.937 L 754.953, 337.585 L 763.094, 326.549 L 791.316, 338.67 L 783.175, 349.525 L 777.386, 347.173 L 775.758, 347.173 L 765.265, 361.646 L 767.436, 363.094 L 772.139, 365.084 L 771.054, 366.712 L 763.998, 376.3 L 735.414, 364.179 z "/>
<path style="fill:rgb(0, 0, 255);fill-opacity:0;fill-rule:evenodd;stroke:rgb(255, 211, 0);stroke-width:1;" d="M 835.821, 406.875 L 853.55, 382.632 L 857.169, 377.748 L 884.848, 389.507 L 875.26, 402.533 L 863.501, 418.634 L 835.821, 406.875 z "/>
<path style="fill:rgb(255, 255, 0);fill-opacity:0;fill-rule:evenodd;stroke:rgb(255, 211, 0);stroke-width:1;" d="M 499.864, 470.014 L 513.071, 451.56 L 564.812, 473.27 L 551.606, 491.542 L 538.218, 485.934 L 542.56, 480.145 L 518.679, 470.194 L 514.518, 475.984 L 512.528, 475.26 L 499.864, 470.014 z "/>
<path style="fill:rgb(255, 0, 0);fill-opacity:0;fill-rule:evenodd;stroke:rgb(255, 211, 0);stroke-width:1;" d="M 448.847, 540.57 L 461.872, 522.659 L 474.355, 527.906 L 475.441, 528.268 L 471.28, 534.057 L 477.793, 536.771 L 480.507, 532.972 L 487.019, 535.866 L 484.487, 539.484 L 495.884, 544.188 L 500.045, 538.399 L 512.89, 543.826 L 499.864, 561.737 L 448.847, 540.57 z "/>
<path style="fill:rgb(0, 255, 0);fill-opacity:0;fill-rule:evenodd;stroke:rgb(255, 211, 0);stroke-width:1;" d="M 538.399, 58.0733 L 541.113, 54.0932 L 557.757, 31.479 L 586.522, 43.6002 L 566.983, 70.1945 L 538.399, 58.0733 z "/>
<path style="fill:rgb(0, 0, 255);fill-opacity:0;fill-rule:evenodd;stroke:rgb(255, 211, 0);stroke-width:1;" d="M 188.512, 725.102 L 203.709, 704.116 L 207.146, 705.563 L 213.659, 708.277 L 214.021, 708.458 L 210.583, 713.342 L 211.307, 715.152 L 215.468, 716.961 L 215.83, 716.418 L 224.514, 720.036 L 226.323, 718.589 L 229.037, 714.79 L 242.424, 720.398 L 227.047, 741.384 L 188.512, 725.102 z "/>
<path style="fill:rgb(255, 255, 0);fill-opacity:0;fill-rule:evenodd;stroke:rgb(255, 211, 0);stroke-width:1;" d="M 156.852, 648.033 L 177.476, 619.81 L 173.496, 618.182 L 181.275, 607.327 L 205.518, 617.458 L 202.804, 621.257 L 197.739, 627.951 L 193.758, 626.323 L 173.134, 654.726 L 156.852, 648.033 z "/>
<path style="fill:rgb(255, 0, 0);fill-opacity:0;fill-rule:evenodd;stroke:rgb(255, 211, 0);stroke-width:1;" d="M 235.911, 660.516 L 250.927, 639.711 L 289.281, 655.812 L 274.265, 676.617 L 260.697, 671.009 L 264.858, 665.4 L 251.289, 659.611 L 249.48, 659.792 L 245.862, 664.677 L 245.319, 664.496 L 238.987, 661.782 L 235.911, 660.516 z "/>
<path style="fill:rgb(0, 255, 0);fill-opacity:0;fill-rule:evenodd;stroke:rgb(255, 211, 0);stroke-width:1;" d="M 133.333, 638.082 L 153.777, 609.86 L 149.616, 608.051 L 157.576, 597.377 L 181.275, 607.327 L 173.496, 618.182 L 169.878, 616.554 L 149.435, 644.776 L 133.333, 638.082 z "/>
<path style="fill:rgb(0, 0, 255);fill-opacity:0;fill-rule:evenodd;stroke:rgb(255, 211, 0);stroke-width:1;" d="M 109.272, 627.951 L 129.896, 599.367 L 126.097, 597.919 L 132.248, 589.417 L 133.695, 587.427 L 157.576, 597.377 L 149.616, 608.051 L 145.816, 606.422 L 125.192, 634.645 L 109.272, 627.951 z "/>
<path style="fill:rgb(255, 255, 0);fill-opacity:0;fill-rule:evenodd;stroke:rgb(255, 211, 0);stroke-width:1;" d="M 530.801, 425.871 L 538.942, 414.835 L 594.12, 438.173 L 601.538, 441.248 L 593.397, 452.465 L 530.801, 425.871 z "/>
<path style="fill:rgb(255, 0, 0);fill-opacity:0;fill-rule:evenodd;stroke:rgb(255, 211, 0);stroke-width:1;" d="M 461.872, 522.659 L 474.717, 504.93 L 487.381, 510.176 L 484.668, 513.614 L 521.574, 528.991 L 513.614, 540.208 L 476.526, 524.83 L 474.355, 527.906 L 461.872, 522.659 z "/>
<path style="fill:rgb(0, 255, 0);fill-opacity:0;fill-rule:evenodd;stroke:rgb(255, 211, 0);stroke-width:1;" d="M 785.165, 385.346 L 794.934, 371.958 L 802.533, 375.215 L 810.674, 364.36 L 802.895, 361.104 L 813.026, 347.535 L 830.755, 355.133 L 811.94, 380.642 L 811.036, 380.823 L 810.855, 383.537 L 813.749, 384.803 L 806.694, 394.392 L 785.165, 385.346 z "/>
<path style="fill:rgb(0, 0, 255);fill-opacity:0;fill-rule:evenodd;stroke:rgb(255, 211, 0);stroke-width:1;" d="M 706.829, 351.877 L 713.885, 342.469 L 714.428, 342.65 L 723.293, 330.529 L 751.334, 342.469 L 743.374, 353.324 L 735.414, 364.179 L 706.829, 351.877 z "/>
<path style="fill:rgb(255, 255, 0);fill-opacity:0;fill-rule:evenodd;stroke:rgb(255, 211, 0);stroke-width:1;" d="M 487.019, 487.743 L 499.864, 470.014 L 512.528, 475.26 L 508.186, 481.23 L 512.89, 483.22 L 514.88, 480.507 L 546.902, 493.894 L 538.942, 505.111 L 506.196, 491.542 L 507.644, 489.552 L 503.302, 487.924 L 499.683, 492.99 L 487.019, 487.743 z "/>
<path style="fill:rgb(255, 0, 0);fill-opacity:0;fill-rule:evenodd;stroke:rgb(255, 211, 0);stroke-width:1;" d="M 763.998, 376.3 L 771.054, 366.712 L 774.672, 368.159 L 777.567, 366.531 L 776.662, 366.169 L 795.658, 340.299 L 813.026, 347.535 L 802.895, 361.104 L 796.02, 358.209 L 787.879, 369.064 L 794.934, 371.958 L 785.165, 385.346 L 763.998, 376.3 z "/>
<path style="fill:rgb(0, 255, 0);fill-opacity:0;fill-rule:evenodd;stroke:rgb(255, 211, 0);stroke-width:1;" d="M 474.717, 504.93 L 487.019, 487.743 L 499.683, 492.99 L 495.884, 498.236 L 500.226, 500.045 L 501.854, 497.693 L 534.419, 511.262 L 526.278, 522.479 L 493.713, 508.91 L 495.161, 507.101 L 490.819, 505.292 L 487.381, 510.176 L 474.717, 504.93 z "/>
<path style="fill:rgb(0, 0, 255);fill-opacity:0;fill-rule:evenodd;stroke:rgb(255, 211, 0);stroke-width:1;" d="M 274.446, 394.573 L 280.235, 386.793 L 296.698, 364.36 L 298.327, 362.008 L 316.961, 369.968 L 314.971, 372.863 L 300.859, 392.04 L 293.261, 402.533 L 274.446, 394.573 z "/>
<path style="fill:rgb(255, 255, 0);fill-opacity:0;fill-rule:evenodd;stroke:rgb(255, 211, 0);stroke-width:1;" d="M 222.886, 683.853 L 238.987, 661.782 L 245.319, 664.496 L 241.158, 670.104 L 255.45, 676.074 L 257.44, 674.808 L 260.335, 670.828 L 260.697, 671.009 L 274.265, 676.617 L 258.164, 698.688 L 244.052, 692.718 L 248.213, 687.11 L 233.559, 680.959 L 229.398, 686.567 L 222.886, 683.853 z "/>
<path style="fill:rgb(255, 0, 0);fill-opacity:0;fill-rule:evenodd;stroke:rgb(255, 211, 0);stroke-width:1;" d="M 207.146, 705.563 L 222.886, 683.853 L 229.398, 686.567 L 225.599, 691.995 L 239.711, 697.965 L 241.52, 696.156 L 244.052, 692.718 L 258.164, 698.688 L 242.424, 720.398 L 229.037, 714.79 L 228.313, 714.428 L 231.027, 710.81 L 231.931, 708.639 L 217.639, 702.668 L 213.659, 708.277 L 207.146, 705.563 z "/>
<path style="fill:rgb(0, 255, 0);fill-opacity:0;fill-rule:evenodd;stroke:rgb(255, 211, 0);stroke-width:1;" d="M 811.217, 337.042 L 835.278, 304.297 L 841.972, 295.251 L 856.264, 301.402 L 826.232, 341.927 L 825.509, 343.012 L 811.217, 337.042 z "/>
<path style="fill:rgb(0, 0, 255);fill-opacity:0;fill-rule:evenodd;stroke:rgb(255, 211, 0);stroke-width:1;" d="M 532.067, 220.534 L 543.464, 205.337 L 551.967, 193.939 L 555.586, 189.055 L 563.908, 178.2 L 577.657, 184.351 L 570.059, 194.482 L 562.099, 204.975 L 553.777, 216.011 L 545.816, 226.504 L 532.067, 220.534 z "/>
<path style="fill:rgb(255, 255, 0);fill-opacity:0;fill-rule:evenodd;stroke:rgb(255, 211, 0);stroke-width:1;" d="M 538.942, 414.835 L 546.721, 404.161 L 601.9, 427.318 L 594.12, 438.173 L 538.942, 414.835 z "/>
<path style="fill:rgb(255, 0, 0);fill-opacity:0;fill-rule:evenodd;stroke:rgb(255, 211, 0);stroke-width:1;" d="M 546.721, 404.161 L 554.681, 393.306 L 556.128, 394.03 L 567.888, 398.915 L 568.25, 400.362 L 595.929, 412.121 L 598.281, 411.578 L 599.367, 411.94 L 609.86, 416.463 L 601.9, 427.318 L 546.721, 404.161 z "/>
<path style="fill:rgb(0, 255, 0);fill-opacity:0;fill-rule:evenodd;stroke:rgb(255, 211, 0);stroke-width:1;" d="M 269.561, 253.098 L 274.084, 246.766 L 295.251, 217.458 L 296.698, 215.468 L 310.991, 221.438 L 284.034, 259.068 L 280.959, 263.229 L 273.541, 260.154 L 276.617, 255.993 L 269.561, 253.098 z "/>
<path style="fill:rgb(0, 0, 255);fill-opacity:0;fill-rule:evenodd;stroke:rgb(255, 211, 0);stroke-width:1;" d="M 966.621, 73.27 L 967.345, 72.1845 L 993.758, 35.64 L 1008.59, 41.791 L 981.456, 79.4211 L 966.621, 73.27 z "/>
<path style="fill:rgb(255, 255, 0);fill-opacity:0;fill-rule:evenodd;stroke:rgb(255, 211, 0);stroke-width:1;" d="M 284.034, 259.068 L 310.991, 221.438 L 325.645, 227.589 L 298.688, 265.038 L 284.034, 259.068 z "/>
<path style="fill:rgb(255, 0, 0);fill-opacity:0;fill-rule:evenodd;stroke:rgb(255, 211, 0);stroke-width:1;" d="M 770.873, 316.056 L 786.974, 293.985 L 788.783, 293.442 L 791.497, 289.824 L 791.135, 288.376 L 793.306, 285.482 L 799.457, 277.16 L 813.569, 283.311 L 806.875, 292.175 L 805.246, 294.527 L 803.256, 294.889 L 800.543, 298.507 L 801.266, 299.955 L 784.984, 322.026 L 770.873, 316.056 z "/>
<path style="fill:rgb(0, 255, 0);fill-opacity:0;fill-rule:evenodd;stroke:rgb(255, 211, 0);stroke-width:1;" d="M 298.688, 265.038 L 325.645, 227.589 L 339.937, 233.559 L 339.575, 234.102 L 317.684, 264.677 L 312.981, 271.009 L 298.688, 265.038 z "/>
<path style="fill:rgb(0, 0, 255);fill-opacity:0;fill-rule:evenodd;stroke:rgb(255, 211, 0);stroke-width:1;" d="M 784.261, 168.431 L 810.493, 130.981 L 824.966, 136.952 L 798.734, 174.401 L 784.261, 168.431 z "/>
<path style="fill:rgb(255, 255, 0);fill-opacity:0;fill-rule:evenodd;stroke:rgb(255, 211, 0);stroke-width:1;" d="M 914.518, 119.584 L 915.242, 118.679 L 925.916, 103.664 L 930.439, 97.5124 L 932.248, 98.2361 L 934.419, 95.1606 L 932.429, 94.256 L 941.294, 81.9539 L 955.948, 87.924 L 948.349, 98.5979 L 936.228, 115.242 L 928.81, 125.554 L 914.518, 119.584 z "/>
<path style="fill:rgb(255, 0, 0);fill-opacity:0;fill-rule:evenodd;stroke:rgb(255, 211, 0);stroke-width:1;" d="M 994.844, 85.0294 L 1021.8, 47.3994 L 1036.45, 53.5504 L 1028.13, 65.1289 L 1026.32, 65.6716 L 1016.92, 78.6974 L 1017.28, 80.1447 L 1009.5, 90.9995 L 994.844, 85.0294 z "/>
<path style="fill:rgb(0, 255, 0);fill-opacity:0;fill-rule:evenodd;stroke:rgb(255, 211, 0);stroke-width:1;" d="M 453.731, 323.293 L 466.214, 305.925 L 475.984, 292.356 L 477.793, 289.824 L 493.532, 296.336 L 485.572, 307.553 L 477.793, 318.227 L 470.014, 329.263 L 469.471, 329.806 L 453.731, 323.293 z "/>
<path style="fill:rgb(0, 0, 255);fill-opacity:0;fill-rule:evenodd;stroke:rgb(255, 211, 0);stroke-width:1;" d="M 981.456, 79.4211 L 1008.59, 41.791 L 1021.8, 47.3994 L 994.844, 85.0294 L 981.456, 79.4211 z "/>
<path style="fill:rgb(255, 255, 0);fill-opacity:0;fill-rule:evenodd;stroke:rgb(255, 211, 0);stroke-width:1;" d="M 957.214, 137.313 L 964.45, 127.001 L 966.983, 126.64 L 977.476, 112.166 L 976.572, 110.357 L 984.17, 99.6834 L 998.824, 105.834 L 998.1, 106.92 L 991.226, 116.508 L 988.874, 116.87 L 978.562, 131.343 L 979.104, 133.152 L 971.868, 143.464 L 957.214, 137.313 z "/>
<path style="fill:rgb(255, 0, 0);fill-opacity:0;fill-rule:evenodd;stroke:rgb(255, 211, 0);stroke-width:1;" d="M 457.35, 247.128 L 459.882, 243.691 L 482.497, 212.212 L 496.789, 218.182 L 471.642, 253.098 L 457.35, 247.128 z "/>
<path style="fill:rgb(0, 255, 0);fill-opacity:0;fill-rule:evenodd;stroke:rgb(255, 211, 0);stroke-width:1;" d="M 942.741, 131.343 L 950.158, 121.031 L 952.329, 120.488 L 962.822, 106.015 L 962.28, 104.387 L 969.878, 93.7133 L 984.17, 99.6834 L 976.572, 110.357 L 974.582, 110.9 L 964.27, 125.373 L 964.45, 127.001 L 957.214, 137.313 L 942.741, 131.343 z "/>
<path style="fill:rgb(0, 0, 255);fill-opacity:0;fill-rule:evenodd;stroke:rgb(255, 211, 0);stroke-width:1;" d="M 485.572, 307.553 L 493.532, 296.336 L 537.856, 314.79 L 529.896, 325.825 L 485.572, 307.553 z "/>
<path style="fill:rgb(255, 255, 0);fill-opacity:0;fill-rule:evenodd;stroke:rgb(255, 211, 0);stroke-width:1;" d="M 374.31, 450.837 L 380.823, 441.972 L 387.517, 444.686 L 395.839, 448.304 L 395.296, 449.028 L 400.543, 451.199 L 403.799, 450.294 L 430.393, 461.511 L 422.433, 472.727 L 395.658, 461.511 L 395.296, 458.616 L 389.869, 456.264 L 389.326, 457.169 L 374.31, 450.837 z "/>
<path style="fill:rgb(255, 0, 0);fill-opacity:0;fill-rule:evenodd;stroke:rgb(255, 211, 0);stroke-width:1;" d="M 928.81, 125.554 L 936.228, 115.242 L 938.218, 114.518 L 948.53, 100.045 L 948.349, 98.5979 L 955.948, 87.924 L 969.878, 93.7133 L 962.28, 104.387 L 960.289, 104.93 L 949.796, 119.403 L 950.158, 121.031 L 942.741, 131.343 L 928.81, 125.554 z "/>
<path style="fill:rgb(0, 255, 0);fill-opacity:0;fill-rule:evenodd;stroke:rgb(255, 211, 0);stroke-width:1;" d="M 293.08, 113.071 L 299.774, 104.025 L 300.136, 104.206 L 314.247, 84.6676 L 313.885, 84.4867 L 320.217, 75.6219 L 334.509, 81.592 L 327.996, 90.6377 L 325.283, 91.5423 L 319.855, 98.9597 L 317.503, 98.0552 L 314.247, 102.759 L 316.418, 103.483 L 313.342, 107.825 L 313.885, 109.634 L 307.191, 119.041 L 293.08, 113.071 z "/>
<path style="fill:rgb(0, 0, 255);fill-opacity:0;fill-rule:evenodd;stroke:rgb(255, 211, 0);stroke-width:1;" d="M 471.642, 253.098 L 496.789, 218.182 L 510.719, 223.971 L 492.99, 248.575 L 485.572, 258.887 L 471.642, 253.098 z "/>
<path style="fill:rgb(255, 255, 0);fill-opacity:0;fill-rule:evenodd;stroke:rgb(255, 211, 0);stroke-width:1;" d="M 470.014, 329.263 L 477.793, 318.227 L 522.117, 336.68 L 514.337, 347.535 L 478.517, 332.7 L 470.014, 329.263 z "/>
<path style="fill:rgb(255, 0, 0);fill-opacity:0;fill-rule:evenodd;stroke:rgb(255, 211, 0);stroke-width:1;" d="M 553.777, 216.011 L 562.099, 204.975 L 604.794, 223.428 L 596.472, 234.464 L 553.777, 216.011 z "/>
<path style="fill:rgb(0, 255, 0);fill-opacity:0;fill-rule:evenodd;stroke:rgb(255, 211, 0);stroke-width:1;" d="M 477.793, 318.227 L 485.572, 307.553 L 529.896, 325.825 L 522.117, 336.68 L 477.793, 318.227 z "/>
<path style="fill:rgb(0, 0, 255);fill-opacity:0;fill-rule:evenodd;stroke:rgb(255, 211, 0);stroke-width:1;" d="M 348.078, 497.874 L 356.038, 486.839 L 398.734, 504.93 L 393.487, 512.166 L 394.934, 512.709 L 392.04, 516.508 L 348.078, 497.874 z "/>
<path style="fill:rgb(255, 255, 0);fill-opacity:0;fill-rule:evenodd;stroke:rgb(255, 211, 0);stroke-width:1;" d="M 307.191, 119.041 L 313.885, 109.634 L 316.599, 109.272 L 319.674, 104.93 L 320.941, 105.473 L 324.197, 100.95 L 323.112, 100.407 L 328.539, 92.8087 L 327.996, 90.6377 L 334.509, 81.592 L 335.052, 80.6875 L 349.706, 86.8385 L 347.716, 89.7332 L 343.012, 96.427 L 339.213, 97.6934 L 334.147, 104.93 L 331.796, 103.844 L 328.539, 108.548 L 330.891, 109.634 L 327.996, 113.614 L 327.815, 115.604 L 321.303, 124.83 L 307.191, 119.041 z "/>
<path style="fill:rgb(255, 0, 0);fill-opacity:0;fill-rule:evenodd;stroke:rgb(255, 211, 0);stroke-width:1;" d="M 356.038, 486.839 L 361.465, 479.24 L 363.998, 475.803 L 406.875, 493.894 L 398.734, 504.93 L 356.038, 486.839 z "/>
<path style="fill:rgb(0, 255, 0);fill-opacity:0;fill-rule:evenodd;stroke:rgb(255, 211, 0);stroke-width:1;" d="M 961.375, 310.991 L 965.898, 305.02 L 967.345, 303.03 L 969.335, 302.488 L 975.667, 293.985 L 977.476, 294.166 L 980.552, 289.824 L 979.647, 288.557 L 983.808, 282.949 L 982.904, 281.682 L 988.15, 274.627 L 989.055, 273.36 L 1003.53, 279.512 L 997.377, 287.653 L 994.482, 288.014 L 990.502, 293.261 L 989.055, 293.442 L 985.979, 297.603 L 986.703, 298.688 L 980.552, 307.01 L 981.637, 309.181 L 975.848, 317.142 L 961.375, 310.991 z "/>
<path style="fill:rgb(0, 0, 255);fill-opacity:0;fill-rule:evenodd;stroke:rgb(255, 211, 0);stroke-width:1;" d="M 971.868, 143.464 L 979.104, 133.152 L 981.275, 132.429 L 991.588, 117.956 L 991.226, 116.508 L 998.1, 106.92 L 1012.21, 112.89 L 1005.34, 122.298 L 1003.17, 122.84 L 984.532, 148.711 L 971.868, 143.464 z "/>
<path style="fill:rgb(255, 255, 0);fill-opacity:0;fill-rule:evenodd;stroke:rgb(255, 211, 0);stroke-width:1;" d="M 545.816, 226.504 L 553.777, 216.011 L 596.472, 234.464 L 588.512, 244.957 L 581.456, 241.882 L 545.816, 226.504 z "/>
<path style="fill:rgb(255, 0, 0);fill-opacity:0;fill-rule:evenodd;stroke:rgb(255, 211, 0);stroke-width:1;" d="M 333.786, 491.904 L 334.509, 491 L 356.4, 460.968 L 360.018, 462.415 L 361.827, 460.063 L 369.426, 463.32 L 367.797, 465.672 L 370.511, 466.938 L 363.998, 475.803 L 361.465, 479.24 L 359.475, 480.145 L 356.581, 484.125 L 356.038, 486.839 L 348.078, 497.874 L 333.786, 491.904 z "/>
<path style="fill:rgb(0, 255, 0);fill-opacity:0;fill-rule:evenodd;stroke:rgb(255, 211, 0);stroke-width:1;" d="M 562.099, 204.975 L 570.059, 194.482 L 578.381, 198.1 L 612.573, 213.116 L 604.794, 223.428 L 562.099, 204.975 z "/>
<path style="fill:rgb(0, 0, 255);fill-opacity:0;fill-rule:evenodd;stroke:rgb(255, 211, 0);stroke-width:1;" d="M 479.421, 189.055 L 486.658, 179.466 L 489.552, 178.924 L 496.608, 169.878 L 499.683, 165.536 L 498.598, 163.727 L 506.015, 153.957 L 506.377, 153.234 L 520.85, 159.566 L 513.071, 169.878 L 510.357, 170.421 L 492.085, 194.663 L 479.421, 189.055 z "/>
<path style="fill:rgb(255, 255, 0);fill-opacity:0;fill-rule:evenodd;stroke:rgb(255, 211, 0);stroke-width:1;" d="M 678.426, 339.937 L 685.301, 330.529 L 687.291, 329.806 L 697.603, 315.875 L 697.241, 314.247 L 703.754, 305.382 L 717.865, 311.352 L 711.352, 320.217 L 709.181, 320.76 L 698.869, 334.69 L 699.231, 336.499 L 692.537, 345.907 L 678.426, 339.937 z "/>
<path style="fill:rgb(255, 0, 0);fill-opacity:0;fill-rule:evenodd;stroke:rgb(255, 211, 0);stroke-width:1;" d="M 692.537, 345.907 L 699.231, 336.499 L 701.945, 335.957 L 712.076, 322.026 L 711.352, 320.217 L 717.865, 311.352 L 732.157, 317.503 L 725.645, 326.368 L 724.921, 326.006 L 723.293, 326.911 L 713.161, 340.841 L 713.885, 342.469 L 706.829, 351.877 L 692.537, 345.907 z "/>
<path style="fill:rgb(0, 255, 0);fill-opacity:0;fill-rule:evenodd;stroke:rgb(255, 211, 0);stroke-width:1;" d="M 58.616, 304.659 L 67.6617, 292.175 L 101.854, 306.649 L 98.9597, 310.629 L 102.397, 312.257 L 98.9597, 316.961 L 95.3415, 315.513 L 92.8087, 319.132 L 84.8485, 315.694 L 59.7015, 305.201 L 58.616, 304.659 z "/>
<path style="fill:rgb(0, 0, 255);fill-opacity:0;fill-rule:evenodd;stroke:rgb(255, 211, 0);stroke-width:1;" d="M 346.45, 276.617 L 368.521, 246.043 L 382.994, 252.013 L 360.923, 282.587 L 346.45, 276.617 z "/>
<path style="fill:rgb(255, 255, 0);fill-opacity:0;fill-rule:evenodd;stroke:rgb(255, 211, 0);stroke-width:1;" d="M 624.152, 465.31 L 632.112, 454.274 L 634.464, 453.912 L 637.359, 449.932 L 636.635, 448.123 L 647.128, 433.65 L 661.601, 439.801 L 651.108, 454.093 L 648.756, 454.817 L 645.862, 458.797 L 646.585, 460.244 L 638.263, 471.28 L 624.152, 465.31 z "/>
<path style="fill:rgb(255, 0, 0);fill-opacity:0;fill-rule:evenodd;stroke:rgb(255, 211, 0);stroke-width:1;" d="M 317.684, 264.677 L 339.575, 234.102 L 354.048, 240.072 L 332.157, 270.647 L 317.684, 264.677 z "/>
<path style="fill:rgb(0, 255, 0);fill-opacity:0;fill-rule:evenodd;stroke:rgb(255, 211, 0);stroke-width:1;" d="M 360.923, 282.587 L 382.994, 252.013 L 397.467, 257.983 L 396.563, 259.249 L 387.155, 272.456 L 375.396, 288.557 L 360.923, 282.587 z "/>
<path style="fill:rgb(0, 0, 255);fill-opacity:0;fill-rule:evenodd;stroke:rgb(255, 211, 0);stroke-width:1;" d="M 332.157, 270.647 L 354.048, 240.072 L 368.521, 246.043 L 346.45, 276.617 L 332.157, 270.647 z "/>
<path style="fill:rgb(255, 255, 0);fill-opacity:0;fill-rule:evenodd;stroke:rgb(255, 211, 0);stroke-width:1;" d="M 975.848, 317.142 L 981.637, 309.181 L 997.377, 287.653 L 1003.53, 279.512 L 1003.89, 278.969 L 1014.2, 283.311 L 993.216, 311.895 L 997.558, 313.704 L 990.502, 323.293 L 975.848, 317.142 z "/>
<path style="fill:rgb(255, 0, 0);fill-opacity:0;fill-rule:evenodd;stroke:rgb(255, 211, 0);stroke-width:1;" d="M 188.331, 281.682 L 196.472, 270.285 L 199.005, 269.742 L 202.081, 265.581 L 201.719, 263.229 L 203.89, 260.154 L 209.679, 252.013 L 214.202, 253.822 L 215.468, 251.832 L 222.705, 254.907 L 221.438, 256.897 L 224.333, 257.983 L 204.613, 285.482 L 202.985, 287.834 L 188.331, 281.682 z "/>
<path style="fill:rgb(0, 255, 0);fill-opacity:0;fill-rule:evenodd;stroke:rgb(255, 211, 0);stroke-width:1;" d="M 595.929, 453.37 L 604.071, 442.334 L 606.061, 441.791 L 608.774, 437.992 L 608.593, 436.183 L 619.086, 421.891 L 633.198, 427.861 L 622.705, 442.153 L 620.353, 442.877 L 617.458, 446.676 L 618.182, 448.304 L 610.041, 459.34 L 595.929, 453.37 z "/>
<path style="fill:rgb(0, 0, 255);fill-opacity:0;fill-rule:evenodd;stroke:rgb(255, 211, 0);stroke-width:1;" d="M 67.6617, 292.175 L 76.5265, 280.235 L 110.538, 294.527 L 108.005, 298.146 L 111.624, 299.593 L 108.005, 304.659 L 104.387, 303.211 L 101.854, 306.649 L 67.6617, 292.175 z "/>
<path style="fill:rgb(255, 255, 0);fill-opacity:0;fill-rule:evenodd;stroke:rgb(255, 211, 0);stroke-width:1;" d="M 610.041, 459.34 L 618.182, 448.304 L 620.353, 447.942 L 623.247, 444.143 L 622.705, 442.153 L 633.198, 427.861 L 647.128, 433.65 L 636.635, 448.123 L 634.464, 448.847 L 631.569, 452.646 L 632.112, 454.274 L 624.152, 465.31 L 610.041, 459.34 z "/>
<path style="fill:rgb(255, 0, 0);fill-opacity:0;fill-rule:evenodd;stroke:rgb(255, 211, 0);stroke-width:1;" d="M 799.638, 326.73 L 827.318, 289.1 L 841.972, 295.251 L 835.278, 304.297 L 831.117, 302.488 L 828.403, 303.573 L 829.308, 304.478 L 809.588, 331.072 L 799.638, 326.73 z "/>
<path style="fill:rgb(0, 255, 0);fill-opacity:0;fill-rule:evenodd;stroke:rgb(255, 211, 0);stroke-width:1;" d="M 157.757, 168.973 L 164.812, 159.023 L 205.699, 176.029 L 198.643, 185.979 L 192.673, 183.446 L 158.661, 169.335 L 157.757, 168.973 z "/>
<path style="fill:rgb(0, 0, 255);fill-opacity:0;fill-rule:evenodd;stroke:rgb(255, 211, 0);stroke-width:1;" d="M 470.556, 343.917 L 478.517, 332.7 L 514.337, 347.535 L 506.377, 358.752 L 505.473, 358.39 L 470.556, 343.917 z "/>
<path style="fill:rgb(255, 255, 0);fill-opacity:0;fill-rule:evenodd;stroke:rgb(255, 211, 0);stroke-width:1;" d="M 790.412, 322.931 L 804.161, 304.297 L 805.608, 305.02 L 808.141, 301.583 L 806.513, 300.859 L 809.769, 296.336 L 811.398, 296.156 L 810.855, 293.985 L 806.875, 292.175 L 813.569, 283.311 L 827.318, 289.1 L 799.638, 326.73 L 790.412, 322.931 z "/>
<path style="fill:rgb(255, 0, 0);fill-opacity:0;fill-rule:evenodd;stroke:rgb(255, 211, 0);stroke-width:1;" d="M 578.381, 198.1 L 586.522, 187.246 L 620.896, 202.081 L 612.573, 213.116 L 578.381, 198.1 z "/>
<path style="fill:rgb(0, 255, 0);fill-opacity:0;fill-rule:evenodd;stroke:rgb(255, 211, 0);stroke-width:1;" d="M 150.52, 180.733 L 158.661, 169.335 L 192.673, 183.446 L 184.532, 194.844 L 150.52, 180.733 z "/>
<path style="fill:rgb(0, 0, 255);fill-opacity:0;fill-rule:evenodd;stroke:rgb(255, 211, 0);stroke-width:1;" d="M 142.741, 191.588 L 150.52, 180.733 L 184.532, 194.844 L 176.753, 205.699 L 142.741, 191.588 z "/>
<path style="fill:rgb(255, 255, 0);fill-opacity:0;fill-rule:evenodd;stroke:rgb(255, 211, 0);stroke-width:1;" d="M 820.805, 400.543 L 838.535, 376.3 L 853.55, 382.632 L 835.821, 406.875 L 820.805, 400.543 z "/>
<path style="fill:rgb(255, 0, 0);fill-opacity:0;fill-rule:evenodd;stroke:rgb(255, 211, 0);stroke-width:1;" d="M 126.82, 50.1131 L 134.781, 39.4392 L 168.25, 53.5504 L 160.289, 64.4052 L 126.82, 50.1131 z "/>
<path style="fill:rgb(0, 255, 0);fill-opacity:0;fill-rule:evenodd;stroke:rgb(255, 211, 0);stroke-width:1;" d="M 242.967, 155.948 L 261.239, 130.62 L 275.531, 136.59 L 257.259, 161.918 L 242.967, 155.948 z "/>
<path style="fill:rgb(0, 0, 255);fill-opacity:0;fill-rule:evenodd;stroke:rgb(255, 211, 0);stroke-width:1;" d="M 257.259, 161.918 L 275.531, 136.59 L 289.824, 142.56 L 273.541, 165.174 L 271.551, 167.888 L 257.259, 161.918 z "/>
<path style="fill:rgb(255, 255, 0);fill-opacity:0;fill-rule:evenodd;stroke:rgb(255, 211, 0);stroke-width:1;" d="M 806.694, 394.392 L 813.749, 384.803 L 824.423, 370.33 L 838.535, 376.3 L 820.805, 400.543 L 806.694, 394.392 z "/>
<path style="fill:rgb(255, 0, 0);fill-opacity:0;fill-rule:evenodd;stroke:rgb(255, 211, 0);stroke-width:1;" d="M 76.5265, 280.235 L 83.4012, 270.466 L 117.594, 284.939 L 110.538, 294.527 L 76.5265, 280.235 z "/>
<path style="fill:rgb(0, 255, 0);fill-opacity:0;fill-rule:evenodd;stroke:rgb(255, 211, 0);stroke-width:1;" d="M 358.933, 432.022 L 367.616, 420.262 L 381.909, 400.543 L 383.899, 397.829 L 393.487, 401.809 L 391.135, 404.885 L 377.024, 424.242 L 368.521, 436.002 L 358.933, 432.022 z "/>
<path style="fill:rgb(0, 0, 255);fill-opacity:0;fill-rule:evenodd;stroke:rgb(255, 211, 0);stroke-width:1;" d="M 102.397, 323.474 L 126.097, 290.909 L 135.685, 294.889 L 134.962, 295.975 L 119.946, 316.418 L 111.986, 327.454 L 102.397, 323.474 z "/>
<path style="fill:rgb(255, 255, 0);fill-opacity:0;fill-rule:evenodd;stroke:rgb(255, 211, 0);stroke-width:1;" d="M 153.415, 338.308 L 157.938, 331.976 L 172.049, 312.619 L 176.029, 310.81 L 181.999, 313.342 L 181.456, 316.599 L 167.164, 335.957 L 162.641, 342.289 L 153.415, 338.308 z "/>
<path style="fill:rgb(255, 0, 0);fill-opacity:0;fill-rule:evenodd;stroke:rgb(255, 211, 0);stroke-width:1;" d="M 328.358, 488.467 L 330.167, 485.753 L 357.666, 448.123 L 363.817, 450.837 L 356.4, 460.968 L 334.509, 491 L 328.358, 488.467 z "/>
<path style="fill:rgb(0, 255, 0);fill-opacity:0;fill-rule:evenodd;stroke:rgb(255, 211, 0);stroke-width:1;" d="M 325.464, 410.312 L 329.806, 404.342 L 343.917, 384.984 L 353.324, 388.964 L 339.032, 408.503 L 334.871, 414.292 L 325.464, 410.312 z "/>
<path style="fill:rgb(0, 0, 255);fill-opacity:0;fill-rule:evenodd;stroke:rgb(255, 211, 0);stroke-width:1;" d="M 193.758, 350.972 L 210.403, 327.996 L 220.172, 332.157 L 203.347, 355.133 L 193.758, 350.972 z "/>
<path style="fill:rgb(255, 255, 0);fill-opacity:0;fill-rule:evenodd;stroke:rgb(255, 211, 0);stroke-width:1;" d="M 270.647, 382.813 L 286.929, 360.199 L 296.698, 364.36 L 280.235, 386.793 L 270.647, 382.813 z "/>
<path style="fill:rgb(255, 0, 0);fill-opacity:0;fill-rule:evenodd;stroke:rgb(255, 211, 0);stroke-width:1;" d="M 261.058, 378.833 L 262.867, 376.3 L 277.521, 356.219 L 286.929, 360.199 L 270.647, 382.813 L 261.058, 378.833 z "/>
<path style="fill:rgb(0, 255, 0);fill-opacity:0;fill-rule:evenodd;stroke:rgb(255, 211, 0);stroke-width:1;" d="M 184.532, 346.992 L 186.522, 344.098 L 201.176, 324.016 L 210.403, 327.996 L 193.758, 350.972 L 184.532, 346.992 z "/>
<path style="fill:rgb(0, 0, 255);fill-opacity:0;fill-rule:evenodd;stroke:rgb(255, 211, 0);stroke-width:1;" d="M 202.442, 356.4 L 203.347, 355.133 L 220.172, 332.157 L 229.398, 335.957 L 214.744, 356.038 L 211.307, 354.591 L 208.232, 358.933 L 202.442, 356.4 z "/>
<path style="fill:rgb(255, 255, 0);fill-opacity:0;fill-rule:evenodd;stroke:rgb(255, 211, 0);stroke-width:1;" d="M 138.218, 325.645 L 139.484, 324.016 L 153.596, 304.839 L 153.957, 305.02 L 156.852, 302.849 L 162.099, 305.02 L 162.28, 308.458 L 147.083, 329.444 L 138.218, 325.645 z "/>
<path style="fill:rgb(255, 0, 0);fill-opacity:0;fill-rule:evenodd;stroke:rgb(255, 211, 0);stroke-width:1;" d="M 167.164, 335.957 L 181.456, 316.599 L 181.818, 315.875 L 191.768, 320.036 L 177.114, 340.118 L 167.164, 335.957 z "/>
<path style="fill:rgb(0, 255, 0);fill-opacity:0;fill-rule:evenodd;stroke:rgb(255, 211, 0);stroke-width:1;" d="M 252.917, 372.139 L 267.571, 352.058 L 277.521, 356.219 L 262.867, 376.3 L 252.917, 372.139 z "/>
<path style="fill:rgb(0, 0, 255);fill-opacity:0;fill-rule:evenodd;stroke:rgb(255, 211, 0);stroke-width:1;" d="M 214.744, 356.038 L 229.398, 335.957 L 239.349, 340.118 L 224.695, 360.199 L 214.744, 356.038 z "/>
<path style="fill:rgb(255, 255, 0);fill-opacity:0;fill-rule:evenodd;stroke:rgb(255, 211, 0);stroke-width:1;" d="M 129.534, 319.855 L 144.188, 299.955 L 153.957, 304.116 L 153.596, 304.839 L 139.484, 324.016 L 129.534, 319.855 z "/>
<path style="fill:rgb(255, 0, 0);fill-opacity:0;fill-rule:evenodd;stroke:rgb(255, 211, 0);stroke-width:1;" d="M 147.083, 329.444 L 162.28, 308.458 L 172.049, 312.619 L 157.938, 331.976 L 153.777, 330.348 L 152.691, 331.796 L 147.083, 329.444 z "/>
<path style="fill:rgb(0, 255, 0);fill-opacity:0;fill-rule:evenodd;stroke:rgb(255, 211, 0);stroke-width:1;" d="M 949.616, 713.704 L 964.631, 692.356 L 973.858, 696.156 L 959.023, 717.503 L 949.616, 713.704 z "/>
<path style="fill:rgb(0, 0, 255);fill-opacity:0;fill-rule:evenodd;stroke:rgb(255, 211, 0);stroke-width:1;" d="M 224.695, 360.199 L 239.349, 340.118 L 248.937, 344.279 L 234.283, 364.179 L 224.695, 360.199 z "/>
<path style="fill:rgb(255, 255, 0);fill-opacity:0;fill-rule:evenodd;stroke:rgb(255, 211, 0);stroke-width:1;" d="M 386.793, 428.223 L 386.793, 428.223 L 400.905, 409.046 L 401.809, 407.779 L 411.036, 411.759 L 410.131, 412.845 L 396.201, 432.203 L 386.793, 428.223 z "/>
<path style="fill:rgb(255, 0, 0);fill-opacity:0;fill-rule:evenodd;stroke:rgb(255, 211, 0);stroke-width:1;" d="M 357.847, 416.101 L 372.139, 396.563 L 381.909, 400.543 L 367.616, 420.262 L 357.847, 416.101 z "/>
<path style="fill:rgb(0, 255, 0);fill-opacity:0;fill-rule:evenodd;stroke:rgb(255, 211, 0);stroke-width:1;" d="M 243.51, 368.159 L 258.164, 348.078 L 267.571, 352.058 L 252.917, 372.139 L 243.51, 368.159 z "/>
<path style="fill:rgb(0, 0, 255);fill-opacity:0;fill-rule:evenodd;stroke:rgb(255, 211, 0);stroke-width:1;" d="M 320.036, 400.181 L 334.147, 380.823 L 343.917, 384.984 L 329.806, 404.342 L 320.036, 400.181 z "/>
<path style="fill:rgb(255, 255, 0);fill-opacity:0;fill-rule:evenodd;stroke:rgb(255, 211, 0);stroke-width:1;" d="M 177.114, 340.118 L 191.768, 320.036 L 201.176, 324.016 L 186.522, 344.098 L 177.114, 340.118 z "/>
<path style="fill:rgb(255, 0, 0);fill-opacity:0;fill-rule:evenodd;stroke:rgb(255, 211, 0);stroke-width:1;" d="M 119.946, 316.418 L 134.962, 295.975 L 144.188, 299.955 L 129.534, 319.855 L 129.172, 320.217 L 119.946, 316.418 z "/>
<path style="fill:rgb(0, 255, 0);fill-opacity:0;fill-rule:evenodd;stroke:rgb(255, 211, 0);stroke-width:1;" d="M 377.024, 424.242 L 391.135, 404.885 L 400.905, 409.046 L 386.793, 428.223 L 377.024, 424.242 z "/>
<path style="fill:rgb(0, 0, 255);fill-opacity:0;fill-rule:evenodd;stroke:rgb(255, 211, 0);stroke-width:1;" d="M 234.283, 364.179 L 248.937, 344.279 L 258.164, 348.078 L 243.51, 368.159 L 234.283, 364.179 z "/>
<path style="fill:rgb(255, 255, 0);fill-opacity:0;fill-rule:evenodd;stroke:rgb(255, 211, 0);stroke-width:1;" d="M 339.032, 408.503 L 353.324, 388.964 L 362.913, 392.944 L 348.801, 412.302 L 348.621, 412.664 L 339.032, 408.503 z "/>
<path style="fill:rgb(255, 0, 0);fill-opacity:0;fill-rule:evenodd;stroke:rgb(255, 211, 0);stroke-width:1;" d="M 300.859, 392.04 L 314.971, 372.863 L 324.559, 376.843 L 310.448, 396.201 L 300.859, 392.04 z "/>
<path style="fill:rgb(0, 255, 0);fill-opacity:0;fill-rule:evenodd;stroke:rgb(255, 211, 0);stroke-width:1;" d="M 310.448, 396.201 L 324.559, 376.843 L 334.147, 380.823 L 320.036, 400.181 L 310.448, 396.201 z "/>
<path style="fill:rgb(0, 0, 255);fill-opacity:0;fill-rule:evenodd;stroke:rgb(255, 211, 0);stroke-width:1;" d="M 348.801, 412.302 L 362.913, 392.944 L 363.094, 392.583 L 372.139, 396.563 L 357.847, 416.101 L 348.801, 412.302 z "/>
<path style="fill:rgb(255, 255, 0);fill-opacity:0;fill-rule:evenodd;stroke:rgb(255, 211, 0);stroke-width:1;" d="M 570.059, 194.482 L 577.657, 184.351 L 578.2, 183.627 L 586.522, 187.246 L 578.381, 198.1 L 570.059, 194.482 z "/>
<path style="fill:rgb(255, 0, 0);fill-opacity:0;fill-rule:evenodd;stroke:rgb(255, 211, 0);stroke-width:1;" d="M 0, 494.437 L 45.0475, 432.384 L 39.4392, 430.032 L 38.7155, 430.936 L 29.308, 426.956 L 31.6599, 423.7 L 23.3379, 420.081 L 30.2126, 410.493 L 38.7155, 414.111 L 40.1628, 411.94 L 50.294, 416.282 L 48.6658, 418.453 L 53.7313, 420.443 L 61.6915, 409.408 L 99.3216, 425.147 L 98.417, 426.594 L 152.872, 449.57 L 153.777, 448.123 L 191.949, 464.043 L 135.866, 541.294 L 135.504, 541.113 L 129.715, 548.892 L 110.719, 540.932 L 108.186, 541.836 L 18.6341, 504.206 L 19.7196, 502.759 L 0, 494.437 z "/>
<path style="fill:rgb(0, 255, 0);fill-opacity:0;fill-rule:evenodd;stroke:rgb(255, 211, 0);stroke-width:1;" d="M 20.4432, 358.933 L 59.7015, 305.201 L 84.8485, 315.694 L 72.7273, 332.338 L 82.3157, 336.318 L 84.8485, 332.881 L 100.95, 339.575 L 104.025, 335.595 L 133.695, 348.078 L 130.981, 351.877 L 147.083, 358.752 L 144.912, 361.827 L 153.777, 365.626 L 164.993, 350.249 L 189.959, 360.742 L 166.621, 392.763 L 172.592, 395.296 L 157.033, 416.644 L 120.669, 401.266 L 132.248, 385.165 L 138.58, 387.879 L 140.751, 384.984 L 140.57, 382.09 L 121.212, 373.948 L 117.775, 378.471 L 85.2103, 364.722 L 88.4668, 360.38 L 67.6617, 351.515 L 64.5862, 352.239 L 62.2343, 355.495 L 68.7472, 358.209 L 56.8069, 374.31 L 20.4432, 358.933 z "/>
<path style="fill:rgb(0, 0, 255);fill-opacity:0;fill-rule:evenodd;stroke:rgb(255, 211, 0);stroke-width:1;" d="M 23.5188, 56.9878 L 24.7852, 55.3596 L 42.1529, 31.479 L 59.8824, 39.0773 L 68.9281, 26.7752 L 118.679, 47.7612 L 90.9995, 85.7531 L 79.4211, 80.8684 L 77.2501, 83.763 L 33.6499, 65.3098 L 35.8209, 62.2343 L 23.5188, 56.9878 z "/>
<path style="fill:rgb(255, 255, 0);fill-opacity:0;fill-rule:evenodd;stroke:rgb(255, 211, 0);stroke-width:1;" d="M 27.4989, 740.479 L 35.4591, 729.625 L 36.1827, 729.986 L 39.0773, 726.006 L 41.972, 727.273 L 46.133, 721.664 L 38.5346, 718.589 L 50.4749, 702.126 L 81.592, 714.971 L 72.7273, 727.454 L 81.773, 731.253 L 90.6377, 718.77 L 121.755, 731.796 L 114.156, 742.289 L 111.262, 746.45 L 102.94, 743.012 L 99.8643, 747.354 L 103.121, 748.801 L 97.8743, 756.219 L 98.5979, 756.581 L 90.9995, 767.074 L 63.3198, 755.495 L 75.0791, 739.213 L 70.3754, 737.223 L 66.5762, 742.469 L 62.5961, 740.841 L 54.6359, 751.877 L 27.4989, 740.479 z "/>
<path style="fill:rgb(255, 0, 0);fill-opacity:0;fill-rule:evenodd;stroke:rgb(255, 211, 0);stroke-width:1;" d="M 793.668, 67.6617 L 809.046, 46.3139 L 812.845, 47.7612 L 828.946, 25.3279 L 889.733, 50.6558 L 868.385, 80.1447 L 858.254, 94.4369 L 793.668, 67.6617 z "/>
<path style="fill:rgb(0, 255, 0);fill-opacity:0;fill-rule:evenodd;stroke:rgb(255, 211, 0);stroke-width:1;" d="M 372.682, 55.3596 L 374.853, 52.284 L 386.251, 36.7255 L 392.763, 28.0416 L 443.238, 49.3894 L 442.334, 50.4749 L 448.666, 53.1886 L 443.057, 60.6061 L 432.926, 74.5364 L 429.308, 79.4211 L 415.559, 73.6318 L 414.111, 75.6219 L 384.803, 63.3198 L 386.431, 61.1488 L 372.682, 55.3596 z "/>
<path style="fill:rgb(0, 0, 255);fill-opacity:0;fill-rule:evenodd;stroke:rgb(255, 211, 0);stroke-width:1;" d="M 311.714, 36.9064 L 318.046, 28.2225 L 326.187, 31.6599 L 337.947, 15.9204 L 329.625, 12.3021 L 338.851, 0 L 362.008, 9.76934 L 351.153, 24.6043 L 356.219, 26.7752 L 358.209, 24.0615 L 362.913, 26.0516 L 371.777, 14.1113 L 395.658, 24.2424 L 392.763, 28.0416 L 386.251, 36.7255 L 377.748, 33.1072 L 366.35, 48.6658 L 374.853, 52.284 L 372.682, 55.3596 L 368.521, 60.9679 L 344.64, 50.8367 L 353.686, 38.5346 L 343.917, 34.3736 L 334.871, 46.6757 L 311.714, 36.9064 z "/>
<path style="fill:rgb(255, 255, 0);fill-opacity:0;fill-rule:evenodd;stroke:rgb(255, 211, 0);stroke-width:1;" d="M 825.328, 23.6997 L 833.288, 12.664 L 898.055, 39.6201 L 895.884, 42.5147 L 890.095, 50.6558 L 889.733, 50.6558 L 828.946, 25.3279 L 825.328, 23.6997 z "/>
<path style="fill:rgb(255, 0, 0);fill-opacity:0;fill-rule:evenodd;stroke:rgb(255, 211, 0);stroke-width:1;" d="M 952.872, 66.2144 L 979.104, 29.6698 L 993.758, 35.64 L 967.345, 72.1845 L 952.872, 66.2144 z "/>
<path style="fill:rgb(0, 255, 0);fill-opacity:0;fill-rule:evenodd;stroke:rgb(255, 211, 0);stroke-width:1;" d="M 924.107, 54.2741 L 950.339, 17.5486 L 964.812, 23.6997 L 938.399, 60.2442 L 924.107, 54.2741 z "/>
<path style="fill:rgb(0, 0, 255);fill-opacity:0;fill-rule:evenodd;stroke:rgb(255, 211, 0);stroke-width:1;" d="M 938.399, 60.2442 L 964.812, 23.6997 L 979.104, 29.6698 L 952.872, 66.2144 L 938.399, 60.2442 z "/>
<path style="fill:rgb(255, 255, 0);fill-opacity:0;fill-rule:evenodd;stroke:rgb(255, 211, 0);stroke-width:1;" d="M 909.815, 48.3039 L 936.047, 11.7594 L 950.339, 17.5486 L 924.107, 54.2741 L 909.815, 48.3039 z "/>
<path style="fill:rgb(255, 0, 0);fill-opacity:0;fill-rule:evenodd;stroke:rgb(255, 211, 0);stroke-width:1;" d="M 519.765, 66.2144 L 525.554, 58.2542 L 534.057, 46.4948 L 543.826, 33.1072 L 547.987, 27.318 L 557.757, 31.479 L 541.113, 54.0932 L 538.399, 58.0733 L 529.534, 70.3754 L 519.765, 66.2144 z "/>
<path style="fill:rgb(0, 255, 0);fill-opacity:0;fill-rule:evenodd;stroke:rgb(255, 211, 0);stroke-width:1;" d="M 134.781, 39.4392 L 142.379, 28.7653 L 175.848, 42.8765 L 168.25, 53.5504 L 134.781, 39.4392 z "/>
</svg>