<?xml version="1.0" encoding="iso-8859-1" standalone="no"?>
<!DOCTYPE svg PUBLIC "-//W3C//DTD SVG 1.0//EN" "http://www.w3.org/TR/2001/REC-SVG-20010904/DTD/svg10.dtd">
<svg xmlns="http://www.w3.org/2000/svg" width="1070" height="800">
<path style="fill:rgb(255, 0, 0);fill-opacity:0;fill-rule:evenodd;stroke:rgb(48, 255, 0);stroke-width:1;" d="M 258.685, 615.692 L 277.188, 515.011 L 484.354, 603.537 L 446.077, 657.415 L 440.272, 665.215 L 425.215, 685.896 L 258.685, 615.692 z "/>
<path style="fill:rgb(0, 255, 0);fill-opacity:0;fill-rule:evenodd;stroke:rgb(48, 255, 0);stroke-width:1;" d="M 515.374, 713.469 L 516.825, 682.086 L 529.524, 666.122 L 531.882, 662.857 L 525.896, 660.317 L 523.537, 648.889 L 532.063, 637.46 L 545.125, 643.084 L 549.478, 644.717 L 573.424, 654.331 L 575.057, 655.238 L 588.118, 660.499 L 590.658, 661.587 L 596.463, 653.424 L 710.385, 699.683 L 706.939, 704.58 L 689.342, 729.615 L 682.086, 740.499 L 676.1, 748.662 L 671.565, 755.011 L 653.605, 779.683 L 530.068, 727.8 L 534.966, 721.451 L 525.714, 717.642 L 515.374, 713.469 z "/>
<path style="fill:rgb(0, 0, 255);fill-opacity:0;fill-rule:evenodd;stroke:rgb(48, 255, 0);stroke-width:1;" d="M 235.646, 755.737 L 255.964, 647.982 L 405.442, 710.748 L 379.864, 746.122 L 373.333, 755.011 L 340.499, 800 L 235.646, 755.737 z "/>
<path style="fill:rgb(255, 255, 0);fill-opacity:0;fill-rule:evenodd;stroke:rgb(48, 255, 0);stroke-width:1;" d="M 57.6871, 306.939 L 68.7528, 243.447 L 159.637, 253.061 L 177.415, 254.875 L 165.624, 318.549 L 57.6871, 306.939 z "/>
<path style="fill:rgb(255, 0, 0);fill-opacity:0;fill-rule:evenodd;stroke:rgb(48, 255, 0);stroke-width:1;" d="M 808.163, 290.068 L 817.415, 277.188 L 822.313, 275.918 L 827.029, 277.914 L 831.746, 271.383 L 830.113, 270.839 L 839.909, 257.778 L 840.998, 258.322 L 850.431, 245.624 L 840.454, 241.633 L 839.546, 238.549 L 841.542, 235.646 L 845.17, 234.921 L 846.984, 235.646 L 853.878, 226.395 L 842.449, 221.497 L 854.966, 204.626 L 895.238, 221.678 L 1020.41, 274.467 L 1005.53, 294.966 L 978.685, 283.537 L 981.043, 280.091 L 887.075, 240.363 L 879.819, 250.522 L 880.181, 250.884 L 881.088, 251.973 L 881.27, 253.061 L 880.907, 254.331 L 880, 255.238 L 878.73, 255.964 L 877.098, 256.145 L 875.646, 255.964 L 851.882, 288.254 L 856.599, 290.975 L 858.05, 293.878 L 848.798, 306.576 L 808.163, 290.068 z "/>
<path style="fill:rgb(0, 255, 0);fill-opacity:0;fill-rule:evenodd;stroke:rgb(48, 255, 0);stroke-width:1;" d="M 313.832, 348.118 L 314.195, 344.49 L 321.088, 341.224 L 319.093, 333.424 L 317.642, 325.624 L 324.535, 322.54 L 320.907, 306.757 L 327.619, 303.855 L 326.712, 298.594 L 324.172, 288.073 L 333.968, 283.537 L 331.791, 281.179 L 330.159, 278.639 L 329.433, 277.37 L 328.889, 276.1 L 328.163, 273.197 L 328.163, 270.476 L 333.968, 271.383 L 337.415, 272.29 L 342.313, 273.741 L 347.574, 275.556 L 352.653, 277.914 L 355.011, 279.365 L 359.546, 282.086 L 363.719, 285.17 L 365.714, 286.984 L 378.413, 283.9 L 408.163, 296.054 L 387.664, 321.27 L 389.297, 324.898 L 378.231, 331.61 L 375.873, 345.215 L 371.882, 347.029 L 403.084, 360.091 L 384.218, 386.213 L 354.649, 373.878 L 351.565, 365.17 L 344.853, 364.626 L 338.141, 363.719 L 331.429, 362.268 L 324.898, 360.635 L 321.814, 359.546 L 315.646, 357.188 L 314.558, 353.741 L 314.014, 349.932 L 313.832, 348.118 z "/>
<path style="fill:rgb(0, 0, 255);fill-opacity:0;fill-rule:evenodd;stroke:rgb(48, 255, 0);stroke-width:1;" d="M 393.469, 392.925 L 422.494, 353.016 L 479.456, 376.78 L 508.481, 388.934 L 537.687, 401.088 L 537.868, 401.27 L 508.844, 441.361 L 393.469, 392.925 z "/>
<path style="fill:rgb(255, 255, 0);fill-opacity:0;fill-rule:evenodd;stroke:rgb(48, 255, 0);stroke-width:1;" d="M 961.451, 768.254 L 984.308, 736.871 L 996.463, 741.95 L 1011.88, 720.726 L 979.773, 707.12 L 997.37, 682.812 L 1037.1, 699.501 L 1036.92, 699.683 L 1064.85, 711.474 L 1061.95, 715.646 L 1069.21, 718.73 L 1054.69, 738.685 L 1033.83, 767.347 L 1018.78, 787.846 L 1011.52, 784.943 L 1009.16, 788.209 L 961.451, 768.254 z "/>
<path style="fill:rgb(255, 0, 0);fill-opacity:0;fill-rule:evenodd;stroke:rgb(48, 255, 0);stroke-width:1;" d="M 675.011, 597.551 L 704.036, 557.823 L 811.066, 602.993 L 782.222, 642.721 L 717.823, 615.692 L 675.011, 597.551 z "/>
<path style="fill:rgb(0, 255, 0);fill-opacity:0;fill-rule:evenodd;stroke:rgb(48, 255, 0);stroke-width:1;" d="M 341.224, 179.592 L 346.848, 139.138 L 353.56, 136.961 L 359.002, 134.24 L 457.868, 175.964 L 428.299, 216.417 L 398.005, 203.537 L 376.78, 194.649 L 363.175, 188.844 L 359.002, 187.211 L 346.667, 181.95 L 341.224, 179.592 z "/>
<path style="fill:rgb(0, 0, 255);fill-opacity:0;fill-rule:evenodd;stroke:rgb(48, 255, 0);stroke-width:1;" d="M 456.961, 228.571 L 459.501, 225.125 L 475.646, 203.175 L 486.531, 188.118 L 495.42, 191.927 L 577.234, 226.576 L 586.304, 230.385 L 575.42, 245.261 L 559.093, 267.392 L 556.735, 270.658 L 545.306, 265.76 L 547.664, 262.494 L 527.166, 253.968 L 524.807, 257.052 L 489.07, 241.995 L 491.429, 238.73 L 470.93, 230.023 L 468.39, 233.288 L 456.961, 228.571 z "/>
<path style="fill:rgb(255, 255, 0);fill-opacity:0;fill-rule:evenodd;stroke:rgb(48, 255, 0);stroke-width:1;" d="M 592.29, 146.395 L 621.315, 106.485 L 706.576, 142.222 L 677.732, 182.132 L 663.583, 176.145 L 606.621, 152.381 L 592.29, 146.395 z "/>
<path style="fill:rgb(255, 0, 0);fill-opacity:0;fill-rule:evenodd;stroke:rgb(48, 255, 0);stroke-width:1;" d="M 530.068, 727.8 L 534.966, 721.451 L 548.753, 703.129 L 671.565, 755.011 L 653.605, 779.683 L 530.068, 727.8 z "/>
<path style="fill:rgb(0, 255, 0);fill-opacity:0;fill-rule:evenodd;stroke:rgb(48, 255, 0);stroke-width:1;" d="M 333.605, 228.027 L 341.224, 179.592 L 346.667, 181.95 L 359.002, 187.211 L 363.175, 188.844 L 376.78, 194.649 L 398.005, 203.537 L 428.299, 216.417 L 415.964, 233.288 L 403.81, 249.977 L 399.093, 256.327 L 333.605, 228.027 z "/>
<path style="fill:rgb(0, 0, 255);fill-opacity:0;fill-rule:evenodd;stroke:rgb(48, 255, 0);stroke-width:1;" d="M 548.753, 703.129 L 559.819, 687.71 L 563.084, 688.98 L 569.977, 679.365 L 621.678, 701.134 L 619.138, 704.399 L 651.973, 718.005 L 654.331, 714.739 L 661.224, 717.642 L 689.342, 729.615 L 682.086, 740.499 L 676.1, 748.662 L 671.565, 755.011 L 548.753, 703.129 z "/>
<path style="fill:rgb(255, 255, 0);fill-opacity:0;fill-rule:evenodd;stroke:rgb(48, 255, 0);stroke-width:1;" d="M 341.224, 179.592 L 346.848, 139.138 L 353.56, 136.961 L 359.002, 134.24 L 457.868, 175.964 L 428.299, 216.417 L 398.005, 203.537 L 418.685, 175.601 L 378.957, 158.73 L 368.798, 154.195 L 363.175, 156.553 L 359.002, 187.211 L 346.667, 181.95 L 341.224, 179.592 z "/>
<path style="fill:rgb(255, 0, 0);fill-opacity:0;fill-rule:evenodd;stroke:rgb(48, 255, 0);stroke-width:1;" d="M 739.048, 356.463 L 771.519, 311.655 L 813.968, 329.252 L 812.336, 331.429 L 826.485, 337.596 L 821.769, 343.946 L 809.796, 360.635 L 800.544, 373.152 L 795.465, 380.045 L 784.036, 375.329 L 777.687, 372.608 L 770.431, 369.705 L 739.048, 356.463 z "/>
<path style="fill:rgb(0, 255, 0);fill-opacity:0;fill-rule:evenodd;stroke:rgb(48, 255, 0);stroke-width:1;" d="M 323.447, 330.884 L 330.34, 315.465 L 327.256, 313.107 L 332.88, 298.957 L 330.34, 293.696 L 342.857, 281.361 L 350.476, 285.351 L 357.914, 288.073 L 364.263, 290.068 L 371.338, 291.519 L 379.864, 293.333 L 381.134, 298.957 L 382.041, 302.222 L 383.855, 306.395 L 386.213, 311.293 L 387.846, 314.376 L 376.599, 321.27 L 373.878, 335.238 L 366.984, 344.853 L 384.943, 354.467 L 383.855, 357.914 L 381.315, 360.816 L 371.519, 366.44 L 359.365, 352.109 L 355.737, 356.463 L 349.025, 348.118 L 341.769, 338.685 L 333.424, 341.95 L 326.349, 336.508 L 323.447, 330.884 z "/>
<path style="fill:rgb(0, 0, 255);fill-opacity:0;fill-rule:evenodd;stroke:rgb(48, 255, 0);stroke-width:1;" d="M 462.041, 144.218 L 491.247, 103.946 L 505.215, 109.751 L 534.603, 122.086 L 549.297, 128.254 L 520.998, 167.438 L 520.091, 168.526 L 507.937, 163.447 L 473.651, 149.116 L 462.041, 144.218 z "/>
<path style="fill:rgb(255, 255, 0);fill-opacity:0;fill-rule:evenodd;stroke:rgb(48, 255, 0);stroke-width:1;" d="M 520.091, 168.526 L 520.998, 167.438 L 549.297, 128.254 L 592.29, 146.395 L 606.621, 152.381 L 594.83, 168.707 L 583.946, 183.764 L 578.322, 191.565 L 577.596, 192.653 L 553.107, 182.313 L 540.952, 177.234 L 520.091, 168.526 z "/>
<path style="fill:rgb(255, 0, 0);fill-opacity:0;fill-rule:evenodd;stroke:rgb(48, 255, 0);stroke-width:1;" d="M 534.603, 122.086 L 553.651, 95.7823 L 563.628, 82.1769 L 621.315, 106.485 L 592.29, 146.395 L 549.297, 128.254 L 534.603, 122.086 z "/>
<path style="fill:rgb(0, 255, 0);fill-opacity:0;fill-rule:evenodd;stroke:rgb(48, 255, 0);stroke-width:1;" d="M 795.102, 509.388 L 809.07, 490.159 L 824.49, 469.116 L 881.451, 493.243 L 880.181, 495.057 L 864.218, 516.825 L 852.063, 533.515 L 814.331, 517.551 L 795.102, 509.388 z "/>
<path style="fill:rgb(0, 0, 255);fill-opacity:0;fill-rule:evenodd;stroke:rgb(48, 255, 0);stroke-width:1;" d="M 577.596, 192.653 L 578.322, 191.565 L 583.946, 183.764 L 594.83, 168.707 L 606.621, 152.381 L 663.583, 176.145 L 635.102, 215.51 L 634.376, 216.417 L 630.204, 214.785 L 626.213, 212.971 L 622.222, 211.338 L 618.05, 209.705 L 614.059, 207.891 L 609.887, 206.259 L 601.905, 202.812 L 597.732, 201.179 L 593.741, 199.365 L 589.751, 197.732 L 585.578, 196.1 L 581.587, 194.286 L 577.596, 192.653 z "/>
<path style="fill:rgb(255, 255, 0);fill-opacity:0;fill-rule:evenodd;stroke:rgb(48, 255, 0);stroke-width:1;" d="M 405.442, 120.272 L 432.653, 82.9025 L 434.649, 80 L 447.71, 85.6236 L 476.735, 97.7778 L 491.247, 103.946 L 462.041, 144.218 L 405.442, 120.272 z "/>
<path style="fill:rgb(255, 0, 0);fill-opacity:0;fill-rule:evenodd;stroke:rgb(48, 255, 0);stroke-width:1;" d="M 422.494, 353.016 L 432.109, 339.773 L 445.533, 320.907 L 446.803, 319.274 L 451.338, 312.925 L 508.481, 336.871 L 503.946, 343.039 L 489.252, 363.356 L 479.456, 376.78 L 422.494, 353.016 z "/>
<path style="fill:rgb(0, 255, 0);fill-opacity:0;fill-rule:evenodd;stroke:rgb(48, 255, 0);stroke-width:1;" d="M 462.041, 144.218 L 491.247, 103.946 L 505.215, 109.751 L 534.603, 122.086 L 549.297, 128.254 L 520.998, 167.438 L 520.091, 168.526 L 507.937, 163.447 L 508.844, 162.177 L 509.751, 160.907 L 475.465, 146.576 L 474.558, 147.846 L 473.651, 149.116 L 462.041, 144.218 z "/>
<path style="fill:rgb(0, 0, 255);fill-opacity:0;fill-rule:evenodd;stroke:rgb(48, 255, 0);stroke-width:1;" d="M 520.998, 167.438 L 549.297, 128.254 L 592.29, 146.395 L 606.621, 152.381 L 594.83, 168.707 L 583.946, 183.764 L 578.322, 191.565 L 553.832, 181.224 L 541.678, 176.145 L 520.998, 167.438 z "/>
<path style="fill:rgb(255, 255, 0);fill-opacity:0;fill-rule:evenodd;stroke:rgb(48, 255, 0);stroke-width:1;" d="M 785.125, 557.642 L 797.823, 540.227 L 814.331, 517.551 L 852.063, 533.515 L 866.213, 539.501 L 836.825, 579.592 L 785.125, 557.642 z "/>
<path style="fill:rgb(255, 0, 0);fill-opacity:0;fill-rule:evenodd;stroke:rgb(48, 255, 0);stroke-width:1;" d="M 355.193, 95.2381 L 361.723, 60.2268 L 385.125, 70.0227 L 386.939, 70.7483 L 387.664, 69.8413 L 400, 75.102 L 403.265, 70.5669 L 432.653, 82.9025 L 405.442, 120.272 L 358.277, 100.68 L 355.193, 95.2381 z "/>
<path style="fill:rgb(0, 255, 0);fill-opacity:0;fill-rule:evenodd;stroke:rgb(48, 255, 0);stroke-width:1;" d="M 707.12, 525.714 L 726.893, 498.685 L 727.256, 498.322 L 794.739, 526.44 L 787.846, 536.054 L 774.966, 553.288 L 707.12, 525.714 z "/>
<path style="fill:rgb(0, 0, 255);fill-opacity:0;fill-rule:evenodd;stroke:rgb(48, 255, 0);stroke-width:1;" d="M 739.048, 356.463 L 771.519, 311.655 L 813.968, 329.252 L 812.336, 331.429 L 807.438, 338.141 L 805.261, 341.224 L 813.424, 344.671 L 803.628, 358.095 L 790.023, 352.29 L 784.762, 350.113 L 781.497, 354.649 L 775.147, 363.356 L 770.431, 369.705 L 739.048, 356.463 z "/>
<path style="fill:rgb(255, 255, 0);fill-opacity:0;fill-rule:evenodd;stroke:rgb(48, 255, 0);stroke-width:1;" d="M 672.472, 445.351 L 695.147, 414.512 L 752.834, 439.002 L 747.029, 446.621 L 740.136, 456.054 L 730.159, 469.841 L 727.256, 468.571 L 708.934, 460.771 L 678.639, 447.891 L 672.472, 445.351 z "/>
<path style="fill:rgb(255, 0, 0);fill-opacity:0;fill-rule:evenodd;stroke:rgb(48, 255, 0);stroke-width:1;" d="M 931.701, 585.578 L 935.692, 580.136 L 934.785, 579.773 L 935.147, 579.048 L 941.134, 570.884 L 941.497, 570.34 L 942.404, 570.884 L 946.213, 565.624 L 982.676, 581.043 L 981.95, 582.132 L 997.914, 588.844 L 998.821, 587.755 L 1035.1, 602.993 L 1031.47, 608.073 L 1032.56, 608.435 L 1032.02, 609.161 L 1026.21, 617.324 L 1025.67, 618.231 L 1024.4, 617.687 L 1020.59, 622.948 L 984.308, 607.528 L 985.215, 606.259 L 969.252, 599.546 L 968.163, 600.816 L 931.701, 585.578 z "/>
<path style="fill:rgb(0, 255, 0);fill-opacity:0;fill-rule:evenodd;stroke:rgb(48, 255, 0);stroke-width:1;" d="M 858.776, 687.71 L 862.585, 682.268 L 861.678, 681.905 L 862.222, 681.361 L 868.027, 673.197 L 868.571, 672.653 L 869.478, 673.016 L 873.288, 667.755 L 909.751, 683.175 L 908.844, 684.263 L 924.989, 690.975 L 925.714, 689.887 L 962.177, 705.125 L 958.367, 710.204 L 959.637, 710.748 L 959.093, 711.474 L 953.288, 719.456 L 952.562, 720.363 L 951.474, 719.819 L 947.664, 725.079 L 911.383, 709.841 L 912.29, 708.571 L 896.145, 701.678 L 895.238, 702.948 L 858.776, 687.71 z "/>
<path style="fill:rgb(0, 0, 255);fill-opacity:0;fill-rule:evenodd;stroke:rgb(48, 255, 0);stroke-width:1;" d="M 456.417, 280.635 L 485.624, 240.544 L 489.07, 241.995 L 524.807, 257.052 L 528.98, 258.866 L 499.773, 298.957 L 456.417, 280.635 z "/>
<path style="fill:rgb(255, 255, 0);fill-opacity:0;fill-rule:evenodd;stroke:rgb(48, 255, 0);stroke-width:1;" d="M 645.805, 637.823 L 672.834, 600.635 L 675.011, 597.551 L 717.823, 615.692 L 688.617, 655.782 L 645.805, 637.823 z "/>
<path style="fill:rgb(255, 0, 0);fill-opacity:0;fill-rule:evenodd;stroke:rgb(48, 255, 0);stroke-width:1;" d="M 557.279, 676.1 L 565.805, 664.671 L 569.615, 659.592 L 573.424, 654.331 L 575.057, 655.238 L 588.118, 660.499 L 590.658, 661.587 L 676.281, 697.687 L 665.578, 712.018 L 616.236, 692.063 L 569.977, 679.365 L 557.279, 676.1 z "/>
<path style="fill:rgb(0, 255, 0);fill-opacity:0;fill-rule:evenodd;stroke:rgb(48, 255, 0);stroke-width:1;" d="M 991.02, 776.236 L 1005.9, 755.737 L 1009.71, 757.37 L 1030.75, 728.707 L 1026.94, 727.075 L 1041.45, 707.12 L 1061.95, 715.646 L 1069.21, 718.73 L 1054.69, 738.685 L 1050.7, 737.052 L 1029.84, 765.714 L 1033.83, 767.347 L 1018.78, 787.846 L 1011.52, 784.943 L 991.02, 776.236 z "/>
<path style="fill:rgb(0, 0, 255);fill-opacity:0;fill-rule:evenodd;stroke:rgb(48, 255, 0);stroke-width:1;" d="M 744.308, 679.365 L 759.728, 658.322 L 786.032, 669.388 L 783.855, 672.29 L 821.587, 688.435 L 823.764, 685.533 L 850.794, 696.961 L 835.374, 718.005 L 808.345, 706.576 L 810.522, 703.673 L 772.789, 687.528 L 770.612, 690.431 L 744.308, 679.365 z "/>
<path style="fill:rgb(255, 255, 0);fill-opacity:0;fill-rule:evenodd;stroke:rgb(48, 255, 0);stroke-width:1;" d="M 709.66, 726.531 L 725.079, 705.669 L 751.383, 716.735 L 749.206, 719.637 L 780.952, 733.243 L 786.939, 735.782 L 789.116, 732.88 L 816.145, 744.127 L 800.726, 765.17 L 773.696, 753.741 L 775.873, 750.839 L 737.959, 734.875 L 735.964, 737.778 L 709.66, 726.531 z "/>
<path style="fill:rgb(255, 0, 0);fill-opacity:0;fill-rule:evenodd;stroke:rgb(48, 255, 0);stroke-width:1;" d="M 637.823, 571.791 L 653.424, 550.204 L 661.224, 539.864 L 704.036, 557.823 L 675.011, 597.551 L 672.834, 600.635 L 652.698, 592.109 L 654.694, 589.388 L 645.624, 585.578 L 651.429, 577.596 L 637.823, 571.791 z "/>
<path style="fill:rgb(0, 255, 0);fill-opacity:0;fill-rule:evenodd;stroke:rgb(48, 255, 0);stroke-width:1;" d="M 573.424, 581.95 L 594.104, 553.469 L 637.823, 571.791 L 651.429, 577.596 L 645.624, 585.578 L 630.748, 606.077 L 573.424, 581.95 z "/>
<path style="fill:rgb(0, 0, 255);fill-opacity:0;fill-rule:evenodd;stroke:rgb(48, 255, 0);stroke-width:1;" d="M 165.624, 318.549 L 177.415, 254.875 L 209.705, 258.322 L 197.732, 322.177 L 165.624, 318.549 z "/>
<path style="fill:rgb(255, 255, 0);fill-opacity:0;fill-rule:evenodd;stroke:rgb(48, 255, 0);stroke-width:1;" d="M 923.9, 325.261 L 942.041, 300.408 L 957.098, 306.576 L 957.098, 307.846 L 991.746, 322.358 L 993.197, 321.814 L 1006.98, 327.619 L 1007.17, 328.707 L 990.295, 352.109 L 988.481, 352.653 L 975.782, 347.392 L 975.057, 345.578 L 940.227, 330.884 L 937.868, 331.247 L 923.9, 325.261 z "/>
<path style="fill:rgb(255, 0, 0);fill-opacity:0;fill-rule:evenodd;stroke:rgb(48, 255, 0);stroke-width:1;" d="M 672.472, 445.351 L 695.147, 414.512 L 752.834, 439.002 L 747.029, 446.621 L 740.136, 456.054 L 719.456, 447.347 L 716.19, 451.701 L 708.934, 460.771 L 678.639, 447.891 L 672.472, 445.351 z "/>
<path style="fill:rgb(0, 255, 0);fill-opacity:0;fill-rule:evenodd;stroke:rgb(48, 255, 0);stroke-width:1;" d="M 144.399, 440.816 L 144.58, 439.909 L 156.009, 378.231 L 186.485, 381.497 L 174.694, 444.082 L 144.399, 440.816 z "/>
<path style="fill:rgb(0, 0, 255);fill-opacity:0;fill-rule:evenodd;stroke:rgb(48, 255, 0);stroke-width:1;" d="M 515.374, 713.469 L 516.825, 682.086 L 529.524, 666.122 L 531.882, 662.857 L 543.311, 648.526 L 545.85, 649.615 L 569.615, 659.592 L 565.805, 664.671 L 565.079, 664.308 L 563.628, 665.941 L 550.385, 683.719 L 540.771, 697.143 L 525.714, 717.642 L 515.374, 713.469 z "/>
<path style="fill:rgb(255, 255, 0);fill-opacity:0;fill-rule:evenodd;stroke:rgb(48, 255, 0);stroke-width:1;" d="M 343.039, 216.599 L 348.662, 185.76 L 346.667, 181.95 L 359.002, 187.211 L 363.175, 188.844 L 361.361, 191.565 L 358.821, 195.374 L 369.342, 205.533 L 372.971, 209.705 L 382.585, 219.864 L 390.93, 223.129 L 411.791, 231.655 L 415.964, 233.288 L 403.81, 249.977 L 401.814, 247.256 L 351.383, 226.213 L 347.574, 223.492 L 344.49, 219.683 L 343.039, 216.599 z "/>
<path style="fill:rgb(255, 0, 0);fill-opacity:0;fill-rule:evenodd;stroke:rgb(48, 255, 0);stroke-width:1;" d="M 359.002, 187.211 L 363.175, 156.553 L 368.798, 154.195 L 378.957, 158.73 L 418.685, 175.601 L 398.005, 203.537 L 376.78, 194.649 L 363.175, 188.844 L 359.002, 187.211 z "/>
<path style="fill:rgb(0, 255, 0);fill-opacity:0;fill-rule:evenodd;stroke:rgb(48, 255, 0);stroke-width:1;" d="M 833.197, 431.202 L 846.259, 413.061 L 853.152, 415.964 L 854.966, 413.424 L 898.322, 431.565 L 896.508, 433.923 L 903.22, 436.825 L 889.796, 455.147 L 883.265, 452.245 L 881.088, 455.147 L 838.095, 437.007 L 840.272, 434.104 L 833.197, 431.202 z "/>
<path style="fill:rgb(0, 0, 255);fill-opacity:0;fill-rule:evenodd;stroke:rgb(48, 255, 0);stroke-width:1;" d="M 770.249, 107.029 L 793.651, 74.7392 L 801.633, 78.1859 L 850.068, 98.6848 L 829.751, 126.44 L 817.052, 120.998 L 827.937, 106.122 L 794.921, 92.1542 L 794.014, 93.2426 L 796.372, 94.3311 L 786.213, 107.937 L 792.562, 110.658 L 789.66, 115.193 L 770.249, 107.029 z "/>
<path style="fill:rgb(255, 255, 0);fill-opacity:0;fill-rule:evenodd;stroke:rgb(48, 255, 0);stroke-width:1;" d="M 426.848, 268.118 L 456.236, 228.209 L 456.961, 228.571 L 468.39, 233.288 L 485.624, 240.544 L 456.417, 280.635 L 426.848, 268.118 z "/>
<path style="fill:rgb(255, 0, 0);fill-opacity:0;fill-rule:evenodd;stroke:rgb(48, 255, 0);stroke-width:1;" d="M 508.481, 388.934 L 537.324, 348.844 L 566.531, 361.179 L 537.687, 401.088 L 508.481, 388.934 z "/>
<path style="fill:rgb(0, 255, 0);fill-opacity:0;fill-rule:evenodd;stroke:rgb(48, 255, 0);stroke-width:1;" d="M 505.215, 109.751 L 524.444, 83.4467 L 534.24, 69.8413 L 563.628, 82.1769 L 553.651, 95.7823 L 534.603, 122.086 L 505.215, 109.751 z "/>
<path style="fill:rgb(0, 0, 255);fill-opacity:0;fill-rule:evenodd;stroke:rgb(48, 255, 0);stroke-width:1;" d="M 428.299, 216.417 L 457.868, 175.964 L 486.531, 188.118 L 475.646, 203.175 L 459.501, 225.125 L 456.961, 228.571 L 456.236, 228.209 L 444.444, 223.129 L 428.299, 216.417 z "/>
<path style="fill:rgb(255, 255, 0);fill-opacity:0;fill-rule:evenodd;stroke:rgb(48, 255, 0);stroke-width:1;" d="M 432.109, 339.773 L 445.533, 320.907 L 446.803, 319.274 L 503.946, 343.039 L 489.252, 363.356 L 432.109, 339.773 z "/>
<path style="fill:rgb(255, 0, 0);fill-opacity:0;fill-rule:evenodd;stroke:rgb(48, 255, 0);stroke-width:1;" d="M 479.456, 376.78 L 489.252, 363.356 L 503.946, 343.039 L 508.481, 336.871 L 537.324, 348.844 L 508.481, 388.934 L 479.456, 376.78 z "/>
<path style="fill:rgb(0, 255, 0);fill-opacity:0;fill-rule:evenodd;stroke:rgb(48, 255, 0);stroke-width:1;" d="M 447.71, 85.6236 L 476.735, 45.7143 L 505.578, 57.8685 L 476.735, 97.7778 L 447.71, 85.6236 z "/>
<path style="fill:rgb(0, 0, 255);fill-opacity:0;fill-rule:evenodd;stroke:rgb(48, 255, 0);stroke-width:1;" d="M 476.735, 97.7778 L 505.578, 57.8685 L 534.24, 69.8413 L 524.444, 83.4467 L 505.215, 109.751 L 491.247, 103.946 L 476.735, 97.7778 z "/>
<path style="fill:rgb(255, 255, 0);fill-opacity:0;fill-rule:evenodd;stroke:rgb(48, 255, 0);stroke-width:1;" d="M 653.605, 779.683 L 671.565, 755.011 L 676.1, 748.662 L 682.086, 740.499 L 688.254, 743.22 L 711.111, 752.653 L 690.612, 780.952 L 682.63, 791.837 L 669.388, 786.213 L 653.605, 779.683 z "/>
<path style="fill:rgb(255, 0, 0);fill-opacity:0;fill-rule:evenodd;stroke:rgb(48, 255, 0);stroke-width:1;" d="M 724.717, 477.279 L 730.159, 469.841 L 740.136, 456.054 L 747.029, 446.621 L 752.834, 439.002 L 752.834, 438.821 L 781.859, 451.156 L 761.905, 478.186 L 753.741, 489.433 L 724.717, 477.279 z "/>
<path style="fill:rgb(0, 255, 0);fill-opacity:0;fill-rule:evenodd;stroke:rgb(48, 255, 0);stroke-width:1;" d="M 785.488, 419.229 L 813.605, 380.59 L 842.449, 392.925 L 814.512, 431.383 L 785.488, 419.229 z "/>
<path style="fill:rgb(0, 0, 255);fill-opacity:0;fill-rule:evenodd;stroke:rgb(48, 255, 0);stroke-width:1;" d="M 499.773, 298.957 L 528.98, 258.866 L 545.306, 265.76 L 556.735, 270.658 L 527.528, 310.748 L 499.773, 298.957 z "/>
<path style="fill:rgb(255, 255, 0);fill-opacity:0;fill-rule:evenodd;stroke:rgb(48, 255, 0);stroke-width:1;" d="M 616.599, 625.488 L 622.766, 616.961 L 630.748, 606.077 L 645.624, 585.578 L 654.694, 589.388 L 652.698, 592.109 L 672.834, 600.635 L 645.805, 637.823 L 616.599, 625.488 z "/>
<path style="fill:rgb(255, 0, 0);fill-opacity:0;fill-rule:evenodd;stroke:rgb(48, 255, 0);stroke-width:1;" d="M 897.959, 548.753 L 924.989, 511.746 L 953.288, 523.719 L 924.263, 563.084 L 902.313, 553.832 L 903.946, 551.474 L 897.959, 548.753 z "/>
<path style="fill:rgb(0, 255, 0);fill-opacity:0;fill-rule:evenodd;stroke:rgb(48, 255, 0);stroke-width:1;" d="M 756.1, 126.077 L 757.732, 123.9 L 768.617, 109.206 L 770.249, 107.029 L 789.66, 115.193 L 826.122, 130.794 L 824.49, 132.971 L 819.229, 140.227 L 813.605, 147.664 L 811.973, 149.841 L 756.1, 126.077 z "/>
<path style="fill:rgb(0, 0, 255);fill-opacity:0;fill-rule:evenodd;stroke:rgb(48, 255, 0);stroke-width:1;" d="M 929.524, 480 L 944.58, 459.501 L 957.46, 441.542 L 985.397, 453.333 L 957.46, 491.61 L 929.524, 480 z "/>
<path style="fill:rgb(255, 255, 0);fill-opacity:0;fill-rule:evenodd;stroke:rgb(48, 255, 0);stroke-width:1;" d="M 395.828, 338.141 L 403.265, 327.8 L 417.959, 307.483 L 422.676, 300.952 L 451.338, 312.925 L 446.803, 319.274 L 445.533, 320.907 L 432.109, 339.773 L 431.02, 339.229 L 423.583, 349.751 L 395.828, 338.141 z "/>
<path style="fill:rgb(255, 0, 0);fill-opacity:0;fill-rule:evenodd;stroke:rgb(48, 255, 0);stroke-width:1;" d="M 367.166, 92.6984 L 368.617, 81.2698 L 371.519, 77.2789 L 401.814, 89.6145 L 411.973, 75.6463 L 430.658, 83.4467 L 422.132, 95.2381 L 419.41, 94.1497 L 413.061, 102.676 L 416.145, 103.946 L 405.261, 118.821 L 396.553, 115.011 L 399.274, 111.383 L 371.882, 99.9546 L 373.152, 94.6939 L 367.166, 92.6984 z "/>
<path style="fill:rgb(0, 255, 0);fill-opacity:0;fill-rule:evenodd;stroke:rgb(48, 255, 0);stroke-width:1;" d="M 658.503, 464.399 L 672.472, 445.351 L 678.639, 447.891 L 708.934, 460.771 L 727.256, 468.571 L 713.288, 487.619 L 658.503, 464.399 z "/>
<path style="fill:rgb(0, 0, 255);fill-opacity:0;fill-rule:evenodd;stroke:rgb(48, 255, 0);stroke-width:1;" d="M 678.639, 447.891 L 685.17, 439.365 L 687.71, 435.193 L 688.617, 431.746 L 689.887, 428.662 L 690.431, 426.485 L 692.608, 424.308 L 695.147, 423.22 L 698.231, 423.22 L 701.134, 423.583 L 704.036, 424.671 L 706.032, 426.122 L 712.018, 430.839 L 716.735, 433.197 L 720.544, 433.923 L 725.261, 434.467 L 728.163, 434.83 L 730.159, 435.556 L 732.698, 437.188 L 736.689, 440.272 L 739.229, 442.63 L 741.769, 443.719 L 744.671, 444.807 L 747.029, 446.621 L 740.136, 456.054 L 719.456, 447.347 L 716.19, 451.701 L 708.934, 460.771 L 678.639, 447.891 z "/>
<path style="fill:rgb(255, 255, 0);fill-opacity:0;fill-rule:evenodd;stroke:rgb(48, 255, 0);stroke-width:1;" d="M 759.728, 408.345 L 784.036, 375.329 L 795.465, 380.045 L 800.544, 373.152 L 811.61, 377.687 L 814.694, 378.957 L 813.605, 380.59 L 785.488, 419.229 L 759.728, 408.345 z "/>
<path style="fill:rgb(255, 0, 0);fill-opacity:0;fill-rule:evenodd;stroke:rgb(48, 255, 0);stroke-width:1;" d="M 576.327, 279.002 L 605.896, 238.549 L 629.297, 248.526 L 599.728, 288.798 L 576.327, 279.002 z "/>
<path style="fill:rgb(0, 255, 0);fill-opacity:0;fill-rule:evenodd;stroke:rgb(48, 255, 0);stroke-width:1;" d="M 594.104, 553.469 L 609.887, 531.882 L 631.837, 541.134 L 653.424, 550.204 L 637.823, 571.791 L 594.104, 553.469 z "/>
<path style="fill:rgb(0, 0, 255);fill-opacity:0;fill-rule:evenodd;stroke:rgb(48, 255, 0);stroke-width:1;" d="M 782.222, 642.721 L 811.066, 602.993 L 832.834, 612.063 L 803.81, 651.973 L 782.222, 642.721 z "/>
<path style="fill:rgb(255, 255, 0);fill-opacity:0;fill-rule:evenodd;stroke:rgb(48, 255, 0);stroke-width:1;" d="M 369.342, 205.533 L 371.701, 202.086 L 376.78, 194.649 L 398.005, 203.537 L 428.299, 216.417 L 415.964, 233.288 L 411.791, 231.655 L 390.93, 223.129 L 382.585, 219.864 L 372.971, 209.705 L 369.342, 205.533 z "/>
<path style="fill:rgb(255, 0, 0);fill-opacity:0;fill-rule:evenodd;stroke:rgb(48, 255, 0);stroke-width:1;" d="M 757.732, 123.9 L 768.617, 109.206 L 823.401, 132.426 L 812.517, 147.12 L 757.732, 123.9 z "/>
<path style="fill:rgb(0, 255, 0);fill-opacity:0;fill-rule:evenodd;stroke:rgb(48, 255, 0);stroke-width:1;" d="M 556.735, 270.658 L 559.093, 267.392 L 575.42, 245.261 L 586.304, 230.385 L 605.896, 238.549 L 576.327, 279.002 L 568.163, 275.374 L 556.735, 270.658 z "/>
<path style="fill:rgb(0, 0, 255);fill-opacity:0;fill-rule:evenodd;stroke:rgb(48, 255, 0);stroke-width:1;" d="M 505.215, 109.751 L 524.444, 83.4467 L 553.651, 95.7823 L 534.603, 122.086 L 505.215, 109.751 z "/>
<path style="fill:rgb(255, 255, 0);fill-opacity:0;fill-rule:evenodd;stroke:rgb(48, 255, 0);stroke-width:1;" d="M 422.494, 353.016 L 432.109, 339.773 L 489.252, 363.356 L 479.456, 376.78 L 422.494, 353.016 z "/>
<path style="fill:rgb(255, 0, 0);fill-opacity:0;fill-rule:evenodd;stroke:rgb(48, 255, 0);stroke-width:1;" d="M 858.776, 687.71 L 862.585, 682.268 L 861.678, 681.905 L 862.222, 681.361 L 863.311, 681.723 L 869.116, 673.56 L 868.027, 673.197 L 868.571, 672.653 L 869.478, 673.016 L 873.288, 667.755 L 909.751, 683.175 L 908.844, 684.263 L 907.937, 685.714 L 896.145, 701.678 L 895.238, 702.948 L 858.776, 687.71 z "/>
<path style="fill:rgb(0, 255, 0);fill-opacity:0;fill-rule:evenodd;stroke:rgb(48, 255, 0);stroke-width:1;" d="M 931.701, 585.578 L 935.692, 580.136 L 934.785, 579.773 L 935.147, 579.048 L 936.236, 579.592 L 942.041, 571.429 L 941.134, 570.884 L 941.497, 570.34 L 942.404, 570.884 L 946.213, 565.624 L 982.676, 581.043 L 981.95, 582.132 L 976.145, 589.932 L 969.252, 599.546 L 968.163, 600.816 L 931.701, 585.578 z "/>
<path style="fill:rgb(0, 0, 255);fill-opacity:0;fill-rule:evenodd;stroke:rgb(48, 255, 0);stroke-width:1;" d="M 984.308, 607.528 L 985.215, 606.259 L 992.109, 596.644 L 997.914, 588.844 L 998.821, 587.755 L 1035.1, 602.993 L 1031.47, 608.073 L 1032.56, 608.435 L 1032.02, 609.161 L 1031.11, 608.798 L 1025.12, 616.78 L 1026.21, 617.324 L 1025.67, 618.231 L 1024.4, 617.687 L 1020.59, 622.948 L 984.308, 607.528 z "/>
<path style="fill:rgb(255, 255, 0);fill-opacity:0;fill-rule:evenodd;stroke:rgb(48, 255, 0);stroke-width:1;" d="M 911.383, 709.841 L 912.29, 708.571 L 924.082, 692.426 L 924.989, 690.975 L 925.714, 689.887 L 962.177, 705.125 L 958.367, 710.204 L 959.637, 710.748 L 959.093, 711.474 L 958.005, 710.93 L 952.2, 718.912 L 953.288, 719.456 L 952.562, 720.363 L 951.474, 719.819 L 947.664, 725.079 L 911.383, 709.841 z "/>
<path style="fill:rgb(255, 0, 0);fill-opacity:0;fill-rule:evenodd;stroke:rgb(48, 255, 0);stroke-width:1;" d="M 661.224, 717.642 L 665.578, 712.018 L 676.281, 697.687 L 679.365, 693.515 L 706.939, 704.58 L 689.342, 729.615 L 661.224, 717.642 z "/>
<path style="fill:rgb(0, 255, 0);fill-opacity:0;fill-rule:evenodd;stroke:rgb(48, 255, 0);stroke-width:1;" d="M 1005.17, 463.673 L 1017.14, 447.166 L 1015.33, 446.44 L 1017.51, 443.356 L 1019.32, 444.082 L 1024.94, 436.463 L 1024.76, 433.741 L 1032.38, 423.22 L 1051.61, 431.383 L 1043.99, 441.905 L 1040.73, 442.812 L 1034.92, 450.612 L 1036.73, 451.519 L 1034.56, 454.422 L 1032.74, 453.696 L 1020.77, 470.204 L 1005.17, 463.673 z "/>
<path style="fill:rgb(0, 0, 255);fill-opacity:0;fill-rule:evenodd;stroke:rgb(48, 255, 0);stroke-width:1;" d="M 1024.4, 471.655 L 1036.37, 455.329 L 1034.56, 454.422 L 1036.73, 451.519 L 1038.55, 452.245 L 1044.17, 444.626 L 1043.99, 441.905 L 1051.61, 431.383 L 1070.84, 439.546 L 1063.04, 449.887 L 1059.77, 450.794 L 1039.82, 478.186 L 1024.4, 471.655 z "/>
<path style="fill:rgb(255, 255, 0);fill-opacity:0;fill-rule:evenodd;stroke:rgb(48, 255, 0);stroke-width:1;" d="M 985.941, 455.51 L 1005.71, 428.481 L 1005.53, 425.578 L 1013.15, 415.238 L 1032.38, 423.22 L 1024.76, 433.741 L 1021.5, 434.649 L 1015.69, 442.63 L 1017.51, 443.356 L 1015.33, 446.44 L 1013.51, 445.533 L 1001.54, 462.041 L 985.941, 455.51 z "/>
<path style="fill:rgb(255, 0, 0);fill-opacity:0;fill-rule:evenodd;stroke:rgb(48, 255, 0);stroke-width:1;" d="M 399.093, 256.327 L 403.81, 249.977 L 415.964, 233.288 L 428.299, 216.417 L 444.444, 223.129 L 415.057, 263.22 L 399.093, 256.327 z "/>
<path style="fill:rgb(0, 255, 0);fill-opacity:0;fill-rule:evenodd;stroke:rgb(48, 255, 0);stroke-width:1;" d="M 864.218, 516.825 L 880.181, 495.057 L 908.844, 507.392 L 893.061, 528.98 L 864.218, 516.825 z "/>
<path style="fill:rgb(0, 0, 255);fill-opacity:0;fill-rule:evenodd;stroke:rgb(48, 255, 0);stroke-width:1;" d="M 565.624, 592.834 L 573.424, 581.95 L 630.748, 606.077 L 622.766, 616.961 L 565.624, 592.834 z "/>
<path style="fill:rgb(255, 255, 0);fill-opacity:0;fill-rule:evenodd;stroke:rgb(48, 255, 0);stroke-width:1;" d="M 333.605, 228.027 L 341.224, 179.592 L 346.667, 181.95 L 340.862, 216.417 L 342.494, 220.227 L 345.941, 224.036 L 350.839, 227.483 L 403.81, 249.977 L 399.093, 256.327 L 333.605, 228.027 z "/>
<path style="fill:rgb(255, 0, 0);fill-opacity:0;fill-rule:evenodd;stroke:rgb(48, 255, 0);stroke-width:1;" d="M 900.317, 467.664 L 915.193, 447.166 L 940.045, 457.506 L 943.492, 458.957 L 944.58, 459.501 L 929.524, 480 L 900.317, 467.664 z "/>
<path style="fill:rgb(0, 255, 0);fill-opacity:0;fill-rule:evenodd;stroke:rgb(48, 255, 0);stroke-width:1;" d="M 403.265, 327.8 L 417.959, 307.483 L 446.803, 319.274 L 445.533, 320.907 L 432.109, 339.773 L 431.02, 339.229 L 412.698, 331.61 L 403.265, 327.8 z "/>
<path style="fill:rgb(0, 0, 255);fill-opacity:0;fill-rule:evenodd;stroke:rgb(48, 255, 0);stroke-width:1;" d="M 651.247, 474.195 L 658.503, 464.399 L 713.288, 487.619 L 716.19, 488.889 L 713.107, 492.88 L 708.934, 498.685 L 694.422, 492.517 L 651.247, 474.195 z "/>
<path style="fill:rgb(255, 255, 0);fill-opacity:0;fill-rule:evenodd;stroke:rgb(48, 255, 0);stroke-width:1;" d="M 532.063, 637.46 L 540.227, 626.395 L 596.644, 650.522 L 593.016, 655.601 L 592.109, 655.057 L 588.118, 660.499 L 575.057, 655.238 L 574.15, 653.968 L 567.256, 650.884 L 568.345, 649.252 L 562.177, 646.712 L 561.088, 648.163 L 548.027, 642.54 L 545.125, 643.084 L 532.063, 637.46 z "/>
<path style="fill:rgb(255, 0, 0);fill-opacity:0;fill-rule:evenodd;stroke:rgb(48, 255, 0);stroke-width:1;" d="M 634.376, 216.417 L 635.102, 215.51 L 663.583, 176.145 L 677.732, 182.132 L 648.526, 222.404 L 634.376, 216.417 z "/>
<path style="fill:rgb(0, 255, 0);fill-opacity:0;fill-rule:evenodd;stroke:rgb(48, 255, 0);stroke-width:1;" d="M 803.81, 651.973 L 832.834, 612.063 L 846.984, 618.05 L 846.803, 618.231 L 817.959, 657.778 L 803.81, 651.973 z "/>
<path style="fill:rgb(0, 0, 255);fill-opacity:0;fill-rule:evenodd;stroke:rgb(48, 255, 0);stroke-width:1;" d="M 751.927, 353.741 L 775.692, 321.088 L 801.633, 331.973 L 795.283, 340.499 L 778.05, 333.243 L 766.621, 348.481 L 781.497, 354.649 L 775.147, 363.356 L 751.927, 353.741 z "/>
<path style="fill:rgb(255, 255, 0);fill-opacity:0;fill-rule:evenodd;stroke:rgb(48, 255, 0);stroke-width:1;" d="M 373.333, 755.011 L 379.864, 746.122 L 389.297, 751.02 L 390.023, 751.746 L 404.172, 768.435 L 415.238, 781.678 L 422.857, 787.302 L 416.508, 796.19 L 407.438, 791.111 L 381.859, 760.635 L 373.333, 755.011 z "/>
<path style="fill:rgb(255, 0, 0);fill-opacity:0;fill-rule:evenodd;stroke:rgb(48, 255, 0);stroke-width:1;" d="M 801.633, 78.1859 L 809.796, 66.9388 L 814.694, 68.9342 L 834.649, 77.4603 L 858.413, 87.4376 L 850.068, 98.6848 L 801.633, 78.1859 z "/>
<path style="fill:rgb(0, 255, 0);fill-opacity:0;fill-rule:evenodd;stroke:rgb(48, 255, 0);stroke-width:1;" d="M 883.084, 542.585 L 893.061, 528.98 L 908.844, 507.392 L 910.295, 505.578 L 924.989, 511.746 L 897.959, 548.753 L 883.084, 542.585 z "/>
<path style="fill:rgb(0, 0, 255);fill-opacity:0;fill-rule:evenodd;stroke:rgb(48, 255, 0);stroke-width:1;" d="M 373.333, 755.011 L 379.864, 746.122 L 389.297, 751.02 L 390.023, 751.746 L 404.172, 768.435 L 415.238, 781.678 L 422.857, 787.302 L 416.508, 796.19 L 407.438, 791.111 L 393.107, 773.696 L 381.859, 760.635 L 373.333, 755.011 z "/>
<path style="fill:rgb(255, 255, 0);fill-opacity:0;fill-rule:evenodd;stroke:rgb(48, 255, 0);stroke-width:1;" d="M 814.512, 431.383 L 842.449, 392.925 L 856.599, 398.912 L 846.259, 413.061 L 833.197, 431.202 L 828.662, 437.37 L 814.512, 431.383 z "/>
<path style="fill:rgb(255, 0, 0);fill-opacity:0;fill-rule:evenodd;stroke:rgb(48, 255, 0);stroke-width:1;" d="M 593.741, 657.415 L 596.463, 653.424 L 710.385, 699.683 L 706.939, 704.58 L 679.365, 693.515 L 593.741, 657.415 z "/>
<path style="fill:rgb(0, 255, 0);fill-opacity:0;fill-rule:evenodd;stroke:rgb(48, 255, 0);stroke-width:1;" d="M 940.045, 457.506 L 960.907, 426.122 L 951.111, 421.95 L 969.433, 396.735 L 984.308, 403.084 L 964.354, 430.476 L 943.492, 458.957 L 940.045, 457.506 z "/>
<path style="fill:rgb(0, 0, 255);fill-opacity:0;fill-rule:evenodd;stroke:rgb(48, 255, 0);stroke-width:1;" d="M 528.798, 688.073 L 530.975, 677.188 L 548.209, 659.773 L 563.628, 665.941 L 550.385, 683.719 L 540.771, 697.143 L 530.612, 693.515 L 532.608, 690.068 L 528.798, 688.073 z "/>
<path style="fill:rgb(255, 255, 0);fill-opacity:0;fill-rule:evenodd;stroke:rgb(48, 255, 0);stroke-width:1;" d="M 961.814, 442.449 L 969.07, 432.29 L 964.354, 430.476 L 984.308, 403.084 L 998.821, 409.252 L 979.048, 436.463 L 971.61, 446.44 L 961.814, 442.449 z "/>
<path style="fill:rgb(255, 0, 0);fill-opacity:0;fill-rule:evenodd;stroke:rgb(48, 255, 0);stroke-width:1;" d="M 770.431, 369.705 L 775.147, 363.356 L 781.497, 354.649 L 784.762, 350.113 L 790.023, 352.29 L 803.628, 358.095 L 809.796, 360.635 L 800.544, 373.152 L 795.465, 380.045 L 784.036, 375.329 L 777.687, 372.608 L 770.431, 369.705 z "/>
<path style="fill:rgb(0, 255, 0);fill-opacity:0;fill-rule:evenodd;stroke:rgb(48, 255, 0);stroke-width:1;" d="M 559.274, 601.361 L 565.624, 592.834 L 622.766, 616.961 L 616.599, 625.488 L 559.274, 601.361 z "/>
<path style="fill:rgb(0, 0, 255);fill-opacity:0;fill-rule:evenodd;stroke:rgb(48, 255, 0);stroke-width:1;" d="M 931.519, 433.56 L 940.408, 421.587 L 942.404, 420.862 L 944.399, 421.769 L 945.85, 419.773 L 936.78, 415.964 L 955.102, 390.748 L 969.433, 396.735 L 951.111, 421.95 L 940.045, 437.188 L 931.519, 433.56 z "/>
<path style="fill:rgb(255, 255, 0);fill-opacity:0;fill-rule:evenodd;stroke:rgb(48, 255, 0);stroke-width:1;" d="M 712.2, 389.66 L 720.907, 377.687 L 761.361, 394.921 L 752.834, 406.712 L 712.2, 389.66 z "/>
<path style="fill:rgb(255, 0, 0);fill-opacity:0;fill-rule:evenodd;stroke:rgb(48, 255, 0);stroke-width:1;" d="M 1030.2, 238.549 L 1046.89, 215.51 L 1054.69, 204.989 L 1068.84, 210.975 L 1044.35, 244.535 L 1030.2, 238.549 z "/>
<path style="fill:rgb(0, 255, 0);fill-opacity:0;fill-rule:evenodd;stroke:rgb(48, 255, 0);stroke-width:1;" d="M 919.546, 428.662 L 929.524, 414.694 L 921.179, 411.247 L 923.175, 408.345 L 940.408, 384.58 L 955.102, 390.748 L 936.78, 415.964 L 925.714, 431.202 L 919.546, 428.662 z "/>
<path style="fill:rgb(0, 0, 255);fill-opacity:0;fill-rule:evenodd;stroke:rgb(48, 255, 0);stroke-width:1;" d="M 635.646, 495.42 L 644.172, 484.172 L 679.546, 499.048 L 677.914, 501.406 L 685.533, 504.49 L 678.821, 513.741 L 635.646, 495.42 z "/>
<path style="fill:rgb(255, 255, 0);fill-opacity:0;fill-rule:evenodd;stroke:rgb(48, 255, 0);stroke-width:1;" d="M 415.057, 263.22 L 444.444, 223.129 L 456.236, 228.209 L 426.848, 268.118 L 415.057, 263.22 z "/>
<path style="fill:rgb(255, 0, 0);fill-opacity:0;fill-rule:evenodd;stroke:rgb(48, 255, 0);stroke-width:1;" d="M 800.544, 373.152 L 809.796, 360.635 L 821.769, 343.946 L 826.485, 337.596 L 827.029, 336.689 L 841.542, 342.857 L 826.667, 363.537 L 818.685, 360.091 L 817.052, 362.449 L 821.406, 364.263 L 811.61, 377.687 L 800.544, 373.152 z "/>
<path style="fill:rgb(0, 255, 0);fill-opacity:0;fill-rule:evenodd;stroke:rgb(48, 255, 0);stroke-width:1;" d="M 728.889, 366.803 L 737.052, 355.556 L 739.048, 356.463 L 770.431, 369.705 L 777.687, 372.608 L 769.342, 383.855 L 728.889, 366.803 z "/>
<path style="fill:rgb(0, 0, 255);fill-opacity:0;fill-rule:evenodd;stroke:rgb(48, 255, 0);stroke-width:1;" d="M 527.528, 310.748 L 556.735, 270.658 L 568.163, 275.374 L 538.957, 315.465 L 527.528, 310.748 z "/>
<path style="fill:rgb(255, 255, 0);fill-opacity:0;fill-rule:evenodd;stroke:rgb(48, 255, 0);stroke-width:1;" d="M 720.907, 377.687 L 728.889, 366.803 L 769.342, 383.855 L 761.361, 394.921 L 720.907, 377.687 z "/>
<path style="fill:rgb(255, 0, 0);fill-opacity:0;fill-rule:evenodd;stroke:rgb(48, 255, 0);stroke-width:1;" d="M 644.172, 484.172 L 651.247, 474.195 L 694.422, 492.517 L 685.533, 504.49 L 677.914, 501.406 L 679.546, 499.048 L 644.172, 484.172 z "/>
<path style="fill:rgb(0, 255, 0);fill-opacity:0;fill-rule:evenodd;stroke:rgb(48, 255, 0);stroke-width:1;" d="M 885.442, 461.315 L 889.796, 455.147 L 903.22, 436.825 L 906.304, 432.472 L 921.361, 438.821 L 915.193, 447.166 L 900.317, 467.664 L 885.442, 461.315 z "/>
<path style="fill:rgb(0, 0, 255);fill-opacity:0;fill-rule:evenodd;stroke:rgb(48, 255, 0);stroke-width:1;" d="M 814.694, 68.9342 L 817.415, 65.3061 L 830.295, 47.7098 L 848.073, 55.1474 L 840.272, 65.6689 L 842.63, 66.7574 L 834.649, 77.4603 L 814.694, 68.9342 z "/>
<path style="fill:rgb(255, 255, 0);fill-opacity:0;fill-rule:evenodd;stroke:rgb(48, 255, 0);stroke-width:1;" d="M 486.349, 144.58 L 493.424, 134.785 L 495.42, 135.692 L 505.397, 122.086 L 520.454, 128.435 L 510.476, 142.041 L 513.741, 143.311 L 506.667, 153.107 L 486.349, 144.58 z "/>
<path style="fill:rgb(255, 0, 0);fill-opacity:0;fill-rule:evenodd;stroke:rgb(48, 255, 0);stroke-width:1;" d="M 986.485, 220.227 L 1005.53, 194.104 L 1006.44, 192.653 L 1020.95, 198.821 L 1017.87, 203.175 L 1001, 226.213 L 986.485, 220.227 z "/>
<path style="fill:rgb(0, 255, 0);fill-opacity:0;fill-rule:evenodd;stroke:rgb(48, 255, 0);stroke-width:1;" d="M 524.444, 83.4467 L 534.24, 69.8413 L 563.628, 82.1769 L 553.651, 95.7823 L 524.444, 83.4467 z "/>
<path style="fill:rgb(0, 0, 255);fill-opacity:0;fill-rule:evenodd;stroke:rgb(48, 255, 0);stroke-width:1;" d="M 606.803, 682.63 L 613.515, 673.379 L 652.88, 690.249 L 646.168, 699.138 L 618.231, 689.887 L 606.803, 682.63 z "/>
<path style="fill:rgb(255, 255, 0);fill-opacity:0;fill-rule:evenodd;stroke:rgb(48, 255, 0);stroke-width:1;" d="M 979.048, 436.463 L 998.821, 409.252 L 1013.15, 415.238 L 1005.53, 425.578 L 993.197, 442.63 L 979.048, 436.463 z "/>
<path style="fill:rgb(255, 0, 0);fill-opacity:0;fill-rule:evenodd;stroke:rgb(48, 255, 0);stroke-width:1;" d="M 685.533, 98.8662 L 691.882, 89.4331 L 733.605, 105.76 L 726.349, 115.737 L 685.533, 98.8662 z "/>
<path style="fill:rgb(0, 255, 0);fill-opacity:0;fill-rule:evenodd;stroke:rgb(48, 255, 0);stroke-width:1;" d="M 775.873, 484.172 L 795.828, 456.961 L 809.977, 462.948 L 794.558, 483.991 L 790.023, 490.159 L 775.873, 484.172 z "/>
<path style="fill:rgb(0, 0, 255);fill-opacity:0;fill-rule:evenodd;stroke:rgb(48, 255, 0);stroke-width:1;" d="M 569.977, 679.365 L 616.236, 692.063 L 665.578, 712.018 L 661.224, 717.642 L 654.331, 714.739 L 621.678, 701.134 L 569.977, 679.365 z "/>
<path style="fill:rgb(255, 255, 0);fill-opacity:0;fill-rule:evenodd;stroke:rgb(48, 255, 0);stroke-width:1;" d="M 761.905, 478.186 L 781.859, 451.156 L 795.828, 456.961 L 775.873, 484.172 L 761.905, 478.186 z "/>
<path style="fill:rgb(255, 0, 0);fill-opacity:0;fill-rule:evenodd;stroke:rgb(48, 255, 0);stroke-width:1;" d="M 693.333, 519.909 L 708.934, 498.685 L 713.107, 492.88 L 726.893, 498.685 L 707.12, 525.714 L 693.333, 519.909 z "/>
<path style="fill:rgb(0, 255, 0);fill-opacity:0;fill-rule:evenodd;stroke:rgb(48, 255, 0);stroke-width:1;" d="M 446.803, 319.274 L 451.338, 312.925 L 508.481, 336.871 L 503.946, 343.039 L 446.803, 319.274 z "/>
<path style="fill:rgb(0, 0, 255);fill-opacity:0;fill-rule:evenodd;stroke:rgb(48, 255, 0);stroke-width:1;" d="M 590.658, 661.587 L 593.741, 657.415 L 679.365, 693.515 L 676.281, 697.687 L 590.658, 661.587 z "/>
<path style="fill:rgb(255, 255, 0);fill-opacity:0;fill-rule:evenodd;stroke:rgb(48, 255, 0);stroke-width:1;" d="M 412.698, 331.61 L 426.304, 312.925 L 445.533, 320.907 L 432.109, 339.773 L 431.02, 339.229 L 412.698, 331.61 z "/>
<path style="fill:rgb(255, 0, 0);fill-opacity:0;fill-rule:evenodd;stroke:rgb(48, 255, 0);stroke-width:1;" d="M 881.088, 390.567 L 898.322, 366.803 L 913.016, 372.971 L 895.782, 396.735 L 881.088, 390.567 z "/>
<path style="fill:rgb(0, 255, 0);fill-opacity:0;fill-rule:evenodd;stroke:rgb(48, 255, 0);stroke-width:1;" d="M 928.798, 195.918 L 944.399, 174.331 L 959.274, 180.499 L 943.492, 202.086 L 928.798, 195.918 z "/>
<path style="fill:rgb(0, 0, 255);fill-opacity:0;fill-rule:evenodd;stroke:rgb(48, 255, 0);stroke-width:1;" d="M 525.714, 717.642 L 540.771, 697.143 L 550.385, 683.719 L 559.819, 687.71 L 548.753, 703.129 L 534.966, 721.451 L 525.714, 717.642 z "/>
<path style="fill:rgb(255, 255, 0);fill-opacity:0;fill-rule:evenodd;stroke:rgb(48, 255, 0);stroke-width:1;" d="M 678.821, 513.741 L 685.533, 504.49 L 694.422, 492.517 L 708.934, 498.685 L 693.333, 519.909 L 678.821, 513.741 z "/>
<path style="fill:rgb(255, 0, 0);fill-opacity:0;fill-rule:evenodd;stroke:rgb(48, 255, 0);stroke-width:1;" d="M 794.558, 483.991 L 809.977, 462.948 L 824.49, 469.116 L 809.07, 490.159 L 794.558, 483.991 z "/>
<path style="fill:rgb(0, 255, 0);fill-opacity:0;fill-rule:evenodd;stroke:rgb(48, 255, 0);stroke-width:1;" d="M 963.628, 210.431 L 981.769, 185.76 L 982.494, 184.49 L 994.286, 189.388 L 975.238, 215.51 L 963.628, 210.431 z "/>
<path style="fill:rgb(0, 0, 255);fill-opacity:0;fill-rule:evenodd;stroke:rgb(48, 255, 0);stroke-width:1;" d="M 975.238, 215.51 L 994.286, 189.388 L 1005.53, 194.104 L 986.485, 220.227 L 975.238, 215.51 z "/>
<path style="fill:rgb(255, 255, 0);fill-opacity:0;fill-rule:evenodd;stroke:rgb(48, 255, 0);stroke-width:1;" d="M 395.828, 338.141 L 403.265, 327.8 L 412.698, 331.61 L 431.02, 339.229 L 423.583, 349.751 L 395.828, 338.141 z "/>
<path style="fill:rgb(255, 0, 0);fill-opacity:0;fill-rule:evenodd;stroke:rgb(48, 255, 0);stroke-width:1;" d="M 708.934, 460.771 L 716.19, 451.701 L 719.456, 447.347 L 740.136, 456.054 L 730.159, 469.841 L 727.256, 468.571 L 708.934, 460.771 z "/>
<path style="fill:rgb(0, 255, 0);fill-opacity:0;fill-rule:evenodd;stroke:rgb(48, 255, 0);stroke-width:1;" d="M 766.621, 348.481 L 778.05, 333.243 L 795.283, 340.499 L 797.823, 341.587 L 790.023, 352.29 L 784.762, 350.113 L 781.497, 354.649 L 766.621, 348.481 z "/>
<path style="fill:rgb(0, 0, 255);fill-opacity:0;fill-rule:evenodd;stroke:rgb(48, 255, 0);stroke-width:1;" d="M 840.272, 65.6689 L 848.073, 55.1474 L 874.014, 66.2132 L 866.213, 76.7347 L 842.63, 66.7574 L 840.272, 65.6689 z "/>
<path style="fill:rgb(255, 255, 0);fill-opacity:0;fill-rule:evenodd;stroke:rgb(48, 255, 0);stroke-width:1;" d="M 564.717, 735.42 L 572.88, 724.535 L 597.188, 735.057 L 589.025, 745.941 L 564.717, 735.42 z "/>
<path style="fill:rgb(255, 0, 0);fill-opacity:0;fill-rule:evenodd;stroke:rgb(48, 255, 0);stroke-width:1;" d="M 523.537, 648.889 L 532.063, 637.46 L 545.125, 643.084 L 549.478, 644.717 L 545.85, 649.615 L 543.311, 648.526 L 531.882, 662.857 L 525.896, 660.317 L 523.537, 648.889 z "/>
<path style="fill:rgb(0, 255, 0);fill-opacity:0;fill-rule:evenodd;stroke:rgb(48, 255, 0);stroke-width:1;" d="M 905.941, 186.304 L 922.812, 163.447 L 929.161, 165.986 L 928.98, 169.252 L 932.789, 170.884 L 917.914, 191.383 L 905.941, 186.304 z "/>
<path style="fill:rgb(0, 0, 255);fill-opacity:0;fill-rule:evenodd;stroke:rgb(48, 255, 0);stroke-width:1;" d="M 894.512, 181.406 L 907.755, 163.447 L 911.383, 158.549 L 922.812, 163.447 L 905.941, 186.304 L 894.512, 181.406 z "/>
<path style="fill:rgb(255, 255, 0);fill-opacity:0;fill-rule:evenodd;stroke:rgb(48, 255, 0);stroke-width:1;" d="M 896.145, 701.678 L 907.937, 685.714 L 924.082, 692.426 L 912.29, 708.571 L 896.145, 701.678 z "/>
<path style="fill:rgb(255, 0, 0);fill-opacity:0;fill-rule:evenodd;stroke:rgb(48, 255, 0);stroke-width:1;" d="M 834.649, 77.4603 L 842.63, 66.7574 L 866.213, 76.7347 L 858.413, 87.4376 L 834.649, 77.4603 z "/>
<path style="fill:rgb(0, 255, 0);fill-opacity:0;fill-rule:evenodd;stroke:rgb(48, 255, 0);stroke-width:1;" d="M 801.814, 63.4921 L 817.959, 41.542 L 830.658, 46.9841 L 830.295, 47.7098 L 817.415, 65.3061 L 809.796, 62.0408 L 807.075, 65.6689 L 801.814, 63.4921 z "/>
<path style="fill:rgb(0, 0, 255);fill-opacity:0;fill-rule:evenodd;stroke:rgb(48, 255, 0);stroke-width:1;" d="M 953.469, 206.259 L 971.61, 181.406 L 981.769, 185.76 L 963.628, 210.431 L 953.469, 206.259 z "/>
<path style="fill:rgb(255, 255, 0);fill-opacity:0;fill-rule:evenodd;stroke:rgb(48, 255, 0);stroke-width:1;" d="M 943.492, 202.086 L 959.274, 180.499 L 961.633, 177.234 L 971.61, 181.406 L 953.469, 206.259 L 943.492, 202.086 z "/>
<path style="fill:rgb(255, 0, 0);fill-opacity:0;fill-rule:evenodd;stroke:rgb(48, 255, 0);stroke-width:1;" d="M 894.694, 398.005 L 895.782, 396.735 L 913.016, 372.971 L 922.449, 376.961 L 905.215, 400.726 L 904.127, 401.995 L 894.694, 398.005 z "/>
<path style="fill:rgb(0, 255, 0);fill-opacity:0;fill-rule:evenodd;stroke:rgb(48, 255, 0);stroke-width:1;" d="M 884.172, 153.469 L 898.503, 133.878 L 910.295, 138.776 L 895.964, 158.549 L 884.172, 153.469 z "/>
<path style="fill:rgb(0, 0, 255);fill-opacity:0;fill-rule:evenodd;stroke:rgb(48, 255, 0);stroke-width:1;" d="M 833.56, 370.431 L 850.794, 346.848 L 860.59, 351.02 L 843.356, 374.603 L 833.56, 370.431 z "/>
<path style="fill:rgb(255, 255, 0);fill-opacity:0;fill-rule:evenodd;stroke:rgb(48, 255, 0);stroke-width:1;" d="M 852.608, 378.594 L 869.841, 354.83 L 879.637, 359.002 L 862.404, 382.585 L 852.608, 378.594 z "/>
<path style="fill:rgb(255, 0, 0);fill-opacity:0;fill-rule:evenodd;stroke:rgb(48, 255, 0);stroke-width:1;" d="M 917.914, 191.383 L 932.789, 170.884 L 933.515, 169.796 L 944.399, 174.331 L 928.798, 195.918 L 917.914, 191.383 z "/>
<path style="fill:rgb(0, 255, 0);fill-opacity:0;fill-rule:evenodd;stroke:rgb(48, 255, 0);stroke-width:1;" d="M 1010.61, 230.385 L 1027.3, 207.166 L 1037.28, 211.338 L 1020.41, 234.558 L 1010.61, 230.385 z "/>
<path style="fill:rgb(0, 0, 255);fill-opacity:0;fill-rule:evenodd;stroke:rgb(48, 255, 0);stroke-width:1;" d="M 862.404, 382.585 L 879.637, 359.002 L 889.433, 362.993 L 872.018, 386.757 L 862.404, 382.585 z "/>
<path style="fill:rgb(255, 255, 0);fill-opacity:0;fill-rule:evenodd;stroke:rgb(48, 255, 0);stroke-width:1;" d="M 609.887, 531.882 L 617.506, 521.361 L 639.456, 530.612 L 631.837, 541.134 L 609.887, 531.882 z "/>
<path style="fill:rgb(255, 0, 0);fill-opacity:0;fill-rule:evenodd;stroke:rgb(48, 255, 0);stroke-width:1;" d="M 631.837, 541.134 L 639.456, 530.612 L 661.224, 539.864 L 653.424, 550.204 L 631.837, 541.134 z "/>
<path style="fill:rgb(0, 255, 0);fill-opacity:0;fill-rule:evenodd;stroke:rgb(48, 255, 0);stroke-width:1;" d="M 905.215, 400.726 L 922.449, 376.961 L 932.063, 380.952 L 914.649, 404.717 L 905.215, 400.726 z "/>
<path style="fill:rgb(0, 0, 255);fill-opacity:0;fill-rule:evenodd;stroke:rgb(48, 255, 0);stroke-width:1;" d="M 569.07, 177.596 L 579.955, 162.54 L 594.83, 168.707 L 583.946, 183.764 L 569.07, 177.596 z "/>
<path style="fill:rgb(255, 255, 0);fill-opacity:0;fill-rule:evenodd;stroke:rgb(48, 255, 0);stroke-width:1;" d="M 1020.41, 234.558 L 1037.28, 211.338 L 1046.89, 215.51 L 1030.2, 238.549 L 1020.41, 234.558 z "/>
<path style="fill:rgb(255, 0, 0);fill-opacity:0;fill-rule:evenodd;stroke:rgb(48, 255, 0);stroke-width:1;" d="M 1035.65, 166.531 L 1053.61, 141.678 L 1062.49, 145.306 L 1044.54, 170.159 L 1035.65, 166.531 z "/>
<path style="fill:rgb(0, 255, 0);fill-opacity:0;fill-rule:evenodd;stroke:rgb(48, 255, 0);stroke-width:1;" d="M 1001, 226.213 L 1017.87, 203.175 L 1027.3, 207.166 L 1010.61, 230.385 L 1001, 226.213 z "/>
<path style="fill:rgb(0, 0, 255);fill-opacity:0;fill-rule:evenodd;stroke:rgb(48, 255, 0);stroke-width:1;" d="M 843.356, 374.603 L 860.59, 351.02 L 869.841, 354.83 L 852.608, 378.594 L 843.356, 374.603 z "/>
<path style="fill:rgb(255, 255, 0);fill-opacity:0;fill-rule:evenodd;stroke:rgb(48, 255, 0);stroke-width:1;" d="M 824.308, 366.621 L 826.667, 363.537 L 841.542, 342.857 L 850.794, 346.848 L 833.56, 370.431 L 824.308, 366.621 z "/>
<path style="fill:rgb(255, 0, 0);fill-opacity:0;fill-rule:evenodd;stroke:rgb(48, 255, 0);stroke-width:1;" d="M 1016.24, 87.0748 L 1032.93, 64.2177 L 1042.36, 68.39 L 1025.85, 91.0658 L 1016.24, 87.0748 z "/>
<path style="fill:rgb(0, 255, 0);fill-opacity:0;fill-rule:evenodd;stroke:rgb(48, 255, 0);stroke-width:1;" d="M 872.018, 386.757 L 889.433, 362.993 L 898.322, 366.803 L 881.088, 390.567 L 872.018, 386.757 z "/>
<path style="fill:rgb(0, 0, 255);fill-opacity:0;fill-rule:evenodd;stroke:rgb(48, 255, 0);stroke-width:1;" d="M 870.93, 171.61 L 884.172, 153.469 L 895.964, 158.549 L 882.902, 176.508 L 870.93, 171.61 z "/>
<path style="fill:rgb(255, 255, 0);fill-opacity:0;fill-rule:evenodd;stroke:rgb(48, 255, 0);stroke-width:1;" d="M 679.728, 51.3379 L 684.989, 43.9002 L 713.832, 55.873 L 708.209, 63.3107 L 679.728, 51.3379 z "/>
<path style="fill:rgb(255, 0, 0);fill-opacity:0;fill-rule:evenodd;stroke:rgb(48, 255, 0);stroke-width:1;" d="M 962.177, 64.2177 L 978.866, 41.3605 L 988.118, 45.3515 L 971.429, 68.2086 L 962.177, 64.2177 z "/>
<path style="fill:rgb(0, 255, 0);fill-opacity:0;fill-rule:evenodd;stroke:rgb(48, 255, 0);stroke-width:1;" d="M 882.902, 176.508 L 895.964, 158.549 L 907.755, 163.447 L 894.512, 181.406 L 882.902, 176.508 z "/>
<path style="fill:rgb(0, 0, 255);fill-opacity:0;fill-rule:evenodd;stroke:rgb(48, 255, 0);stroke-width:1;" d="M 998.277, 79.4558 L 1014.97, 56.78 L 1024.04, 60.5896 L 1007.35, 83.4467 L 998.277, 79.4558 z "/>
<path style="fill:rgb(255, 255, 0);fill-opacity:0;fill-rule:evenodd;stroke:rgb(48, 255, 0);stroke-width:1;" d="M 1025.85, 91.0658 L 1042.36, 68.39 L 1051.61, 72.1995 L 1034.92, 94.8753 L 1025.85, 91.0658 z "/>
<path style="fill:rgb(255, 0, 0);fill-opacity:0;fill-rule:evenodd;stroke:rgb(48, 255, 0);stroke-width:1;" d="M 969.977, 595.556 L 977.778, 584.853 L 997.188, 592.834 L 989.388, 603.537 L 969.977, 595.556 z "/>
<path style="fill:rgb(0, 255, 0);fill-opacity:0;fill-rule:evenodd;stroke:rgb(48, 255, 0);stroke-width:1;" d="M 989.206, 75.6463 L 1005.9, 52.7891 L 1014.97, 56.78 L 998.277, 79.4558 L 989.206, 75.6463 z "/>
<path style="fill:rgb(0, 0, 255);fill-opacity:0;fill-rule:evenodd;stroke:rgb(48, 255, 0);stroke-width:1;" d="M 980.317, 71.8367 L 997.007, 49.161 L 1005.9, 52.7891 L 989.206, 75.6463 L 980.317, 71.8367 z "/>
<path style="fill:rgb(255, 255, 0);fill-opacity:0;fill-rule:evenodd;stroke:rgb(48, 255, 0);stroke-width:1;" d="M 953.107, 60.4082 L 969.796, 37.551 L 978.866, 41.3605 L 962.177, 64.2177 L 953.107, 60.4082 z "/>
<path style="fill:rgb(255, 0, 0);fill-opacity:0;fill-rule:evenodd;stroke:rgb(48, 255, 0);stroke-width:1;" d="M 971.429, 68.2086 L 988.118, 45.3515 L 997.007, 49.161 L 980.317, 71.8367 L 971.429, 68.2086 z "/>
<path style="fill:rgb(0, 255, 0);fill-opacity:0;fill-rule:evenodd;stroke:rgb(48, 255, 0);stroke-width:1;" d="M 914.649, 404.717 L 932.063, 380.952 L 940.408, 384.58 L 923.175, 408.345 L 914.649, 404.717 z "/>
<path style="fill:rgb(0, 0, 255);fill-opacity:0;fill-rule:evenodd;stroke:rgb(48, 255, 0);stroke-width:1;" d="M 1007.35, 83.4467 L 1024.04, 60.5896 L 1032.93, 64.2177 L 1016.24, 87.0748 L 1007.35, 83.4467 z "/>
<path style="fill:rgb(255, 255, 0);fill-opacity:0;fill-rule:evenodd;stroke:rgb(48, 255, 0);stroke-width:1;" d="M 417.959, 307.483 L 422.676, 300.952 L 451.338, 312.925 L 446.803, 319.274 L 417.959, 307.483 z "/>
<path style="fill:rgb(255, 0, 0);fill-opacity:0;fill-rule:evenodd;stroke:rgb(48, 255, 0);stroke-width:1;" d="M 384.58, 232.2 L 390.93, 223.129 L 411.791, 231.655 L 405.261, 240.726 L 384.58, 232.2 z "/>
<path style="fill:rgb(0, 255, 0);fill-opacity:0;fill-rule:evenodd;stroke:rgb(48, 255, 0);stroke-width:1;" d="M 548.027, 728.345 L 556.372, 717.279 L 572.88, 724.535 L 564.717, 735.42 L 548.027, 728.345 z "/>
<path style="fill:rgb(0, 0, 255);fill-opacity:0;fill-rule:evenodd;stroke:rgb(48, 255, 0);stroke-width:1;" d="M 774.966, 553.288 L 787.846, 536.054 L 797.823, 540.227 L 785.125, 557.642 L 774.966, 553.288 z "/>
<path style="fill:rgb(255, 255, 0);fill-opacity:0;fill-rule:evenodd;stroke:rgb(48, 255, 0);stroke-width:1;" d="M 969.252, 599.546 L 976.145, 589.932 L 992.109, 596.644 L 985.215, 606.259 L 969.252, 599.546 z "/>
<path style="fill:rgb(255, 0, 0);fill-opacity:0;fill-rule:evenodd;stroke:rgb(48, 255, 0);stroke-width:1;" d="M 360.454, 216.599 L 372.971, 209.705 L 382.585, 219.864 L 370.068, 226.757 L 360.454, 216.599 z "/>
<path style="fill:rgb(0, 255, 0);fill-opacity:0;fill-rule:evenodd;stroke:rgb(48, 255, 0);stroke-width:1;" d="M 340.862, 216.417 L 346.667, 181.95 L 348.662, 185.76 L 343.039, 216.599 L 344.49, 219.683 L 347.574, 223.492 L 351.383, 226.213 L 401.814, 247.256 L 403.81, 249.977 L 350.839, 227.483 L 345.941, 224.036 L 342.494, 220.227 L 340.862, 216.417 z "/>
<path style="fill:rgb(0, 0, 255);fill-opacity:0;fill-rule:evenodd;stroke:rgb(48, 255, 0);stroke-width:1;" d="M 456.417, 341.587 L 462.585, 332.88 L 478.912, 339.592 L 472.562, 348.299 L 456.417, 341.587 z "/>
<path style="fill:rgb(255, 255, 0);fill-opacity:0;fill-rule:evenodd;stroke:rgb(48, 255, 0);stroke-width:1;" d="M 541.678, 176.145 L 549.841, 165.079 L 561.814, 170.159 L 553.832, 181.224 L 541.678, 176.145 z "/>
<path style="fill:rgb(255, 0, 0);fill-opacity:0;fill-rule:evenodd;stroke:rgb(48, 255, 0);stroke-width:1;" d="M 566.349, 241.451 L 577.234, 226.576 L 586.304, 230.385 L 575.42, 245.261 L 566.349, 241.451 z "/>
<path style="fill:rgb(0, 255, 0);fill-opacity:0;fill-rule:evenodd;stroke:rgb(48, 255, 0);stroke-width:1;" d="M 475.646, 203.175 L 486.531, 188.118 L 495.42, 191.927 L 484.535, 206.803 L 475.646, 203.175 z "/>
<path style="fill:rgb(0, 0, 255);fill-opacity:0;fill-rule:evenodd;stroke:rgb(48, 255, 0);stroke-width:1;" d="M 821.769, 659.773 L 829.206, 648.889 L 841.361, 653.787 L 834.104, 664.671 L 821.769, 659.773 z "/>
<path style="fill:rgb(255, 255, 0);fill-opacity:0;fill-rule:evenodd;stroke:rgb(48, 255, 0);stroke-width:1;" d="M 976.145, 589.932 L 981.95, 582.132 L 997.914, 588.844 L 992.109, 596.644 L 976.145, 589.932 z "/>
<path style="fill:rgb(255, 0, 0);fill-opacity:0;fill-rule:evenodd;stroke:rgb(48, 255, 0);stroke-width:1;" d="M 803.628, 358.095 L 813.424, 344.671 L 805.261, 341.224 L 807.438, 338.141 L 821.769, 343.946 L 809.796, 360.635 L 803.628, 358.095 z "/>
<path style="fill:rgb(0, 255, 0);fill-opacity:0;fill-rule:evenodd;stroke:rgb(48, 255, 0);stroke-width:1;" d="M 550.385, 683.719 L 563.628, 665.941 L 565.079, 664.308 L 565.805, 664.671 L 557.279, 676.1 L 569.977, 679.365 L 563.084, 688.98 L 559.819, 687.71 L 550.385, 683.719 z "/>
<path style="fill:rgb(0, 0, 255);fill-opacity:0;fill-rule:evenodd;stroke:rgb(48, 255, 0);stroke-width:1;" d="M 545.85, 649.615 L 549.478, 644.717 L 573.424, 654.331 L 569.615, 659.592 L 545.85, 649.615 z "/>
<path style="fill:rgb(255, 255, 0);fill-opacity:0;fill-rule:evenodd;stroke:rgb(48, 255, 0);stroke-width:1;" d="M 619.138, 704.399 L 621.678, 701.134 L 654.331, 714.739 L 651.973, 718.005 L 619.138, 704.399 z "/>
<path style="fill:rgb(255, 0, 0);fill-opacity:0;fill-rule:evenodd;stroke:rgb(48, 255, 0);stroke-width:1;" d="M 571.066, 50.7937 L 571.61, 50.068 L 577.415, 52.6077 L 588.118, 37.7324 L 594.467, 40.4535 L 583.039, 55.873 L 571.066, 50.7937 z "/>
<path style="fill:rgb(0, 255, 0);fill-opacity:0;fill-rule:evenodd;stroke:rgb(48, 255, 0);stroke-width:1;" d="M 807.438, 338.141 L 812.336, 331.429 L 826.485, 337.596 L 821.769, 343.946 L 807.438, 338.141 z "/>
<path style="fill:rgb(0, 0, 255);fill-opacity:0;fill-rule:evenodd;stroke:rgb(48, 255, 0);stroke-width:1;" d="M 703.129, 446.077 L 708.209, 439.184 L 721.27, 444.807 L 719.456, 447.347 L 716.19, 451.701 L 703.129, 446.077 z "/>
<path style="fill:rgb(255, 255, 0);fill-opacity:0;fill-rule:evenodd;stroke:rgb(48, 255, 0);stroke-width:1;" d="M 765.714, 682.268 L 768.073, 679.002 L 771.519, 674.286 L 773.878, 671.02 L 781.678, 674.286 L 773.515, 685.533 L 765.714, 682.268 z "/>
<path style="fill:rgb(255, 0, 0);fill-opacity:0;fill-rule:evenodd;stroke:rgb(48, 255, 0);stroke-width:1;" d="M 1034.2, 729.252 L 1038.37, 723.447 L 1042.72, 725.079 L 1048.89, 727.8 L 1053.06, 729.433 L 1048.71, 735.42 L 1034.2, 729.252 z "/>
<path style="fill:rgb(0, 255, 0);fill-opacity:0;fill-rule:evenodd;stroke:rgb(48, 255, 0);stroke-width:1;" d="M 731.066, 729.252 L 733.424, 725.986 L 736.871, 721.27 L 739.048, 718.005 L 747.029, 721.451 L 738.866, 732.517 L 731.066, 729.252 z "/>
<path style="fill:rgb(0, 0, 255);fill-opacity:0;fill-rule:evenodd;stroke:rgb(48, 255, 0);stroke-width:1;" d="M 778.05, 749.025 L 786.213, 737.778 L 794.014, 741.043 L 791.474, 744.49 L 788.027, 749.206 L 785.85, 752.29 L 778.05, 749.025 z "/>
<path style="fill:rgb(255, 255, 0);fill-opacity:0;fill-rule:evenodd;stroke:rgb(48, 255, 0);stroke-width:1;" d="M 1024.94, 652.517 L 1027.3, 649.252 L 1030.75, 644.535 L 1033.11, 641.27 L 1040.91, 644.717 L 1032.74, 655.782 L 1024.94, 652.517 z "/>
<path style="fill:rgb(255, 0, 0);fill-opacity:0;fill-rule:evenodd;stroke:rgb(48, 255, 0);stroke-width:1;" d="M 1008.25, 764.989 L 1012.43, 759.002 L 1027.12, 765.17 L 1022.77, 771.156 L 1018.41, 769.342 L 1012.24, 766.621 L 1008.25, 764.989 z "/>
<path style="fill:rgb(0, 255, 0);fill-opacity:0;fill-rule:evenodd;stroke:rgb(48, 255, 0);stroke-width:1;" d="M 812.698, 701.859 L 820.862, 690.794 L 828.662, 694.059 L 826.304, 697.506 L 822.857, 702.222 L 820.68, 705.306 L 812.698, 701.859 z "/>
<path style="fill:rgb(0, 0, 255);fill-opacity:0;fill-rule:evenodd;stroke:rgb(48, 255, 0);stroke-width:1;" d="M 368.798, 154.195 L 374.422, 146.757 L 384.58, 151.293 L 378.957, 158.73 L 368.798, 154.195 z "/>
<path style="fill:rgb(255, 255, 0);fill-opacity:0;fill-rule:evenodd;stroke:rgb(48, 255, 0);stroke-width:1;" d="M 677.007, 95.2381 L 683.356, 86.1678 L 691.882, 89.4331 L 685.533, 98.8662 L 677.007, 95.2381 z "/>
<path style="fill:rgb(255, 0, 0);fill-opacity:0;fill-rule:evenodd;stroke:rgb(48, 255, 0);stroke-width:1;" d="M 422.857, 787.302 L 461.134, 734.15 L 462.585, 734.512 L 423.946, 788.209 L 422.857, 787.302 z "/>
<path style="fill:rgb(0, 255, 0);fill-opacity:0;fill-rule:evenodd;stroke:rgb(48, 255, 0);stroke-width:1;" d="M 231.293, 137.143 L 243.447, 70.9297 L 244.717, 70.9297 L 232.744, 137.324 L 231.293, 137.143 z "/>
<path style="fill:rgb(0, 0, 255);fill-opacity:0;fill-rule:evenodd;stroke:rgb(48, 255, 0);stroke-width:1;" d="M 361.361, 191.565 L 363.175, 188.844 L 376.78, 194.649 L 371.701, 202.086 L 361.361, 191.565 z "/>
<path style="fill:rgb(255, 255, 0);fill-opacity:0;fill-rule:evenodd;stroke:rgb(48, 255, 0);stroke-width:1;" d="M 209.705, 258.322 L 220.771, 195.374 L 222.222, 195.556 L 210.794, 258.322 L 209.705, 258.322 z "/>
<path style="fill:rgb(255, 0, 0);fill-opacity:0;fill-rule:evenodd;stroke:rgb(48, 255, 0);stroke-width:1;" d="M 520.091, 168.526 L 520.998, 167.438 L 541.678, 176.145 L 553.832, 181.224 L 578.322, 191.565 L 577.596, 192.653 L 553.107, 182.313 L 540.952, 177.234 L 520.091, 168.526 z "/>
<path style="fill:rgb(0, 255, 0);fill-opacity:0;fill-rule:evenodd;stroke:rgb(48, 255, 0);stroke-width:1;" d="M 174.694, 444.082 L 186.485, 381.497 L 187.755, 381.678 L 175.964, 444.263 L 174.694, 444.082 z "/>
<path style="fill:rgb(0, 0, 255);fill-opacity:0;fill-rule:evenodd;stroke:rgb(48, 255, 0);stroke-width:1;" d="M 197.732, 322.177 L 209.705, 258.322 L 210.794, 258.322 L 198.821, 322.177 L 197.732, 322.177 z "/>
<path style="fill:rgb(255, 255, 0);fill-opacity:0;fill-rule:evenodd;stroke:rgb(48, 255, 0);stroke-width:1;" d="M 676.1, 748.662 L 682.086, 740.499 L 688.254, 743.22 L 682.086, 751.383 L 676.1, 748.662 z "/>
<path style="fill:rgb(255, 0, 0);fill-opacity:0;fill-rule:evenodd;stroke:rgb(48, 255, 0);stroke-width:1;" d="M 358.821, 195.374 L 361.361, 191.565 L 371.701, 202.086 L 369.342, 205.533 L 358.821, 195.374 z "/>
<path style="fill:rgb(0, 255, 0);fill-opacity:0;fill-rule:evenodd;stroke:rgb(48, 255, 0);stroke-width:1;" d="M 524.082, 31.0204 L 528.617, 24.8526 L 535.692, 27.9365 L 531.701, 33.3787 L 534.785, 34.8299 L 534.422, 35.3741 L 524.082, 31.0204 z "/>
<path style="fill:rgb(0, 0, 255);fill-opacity:0;fill-rule:evenodd;stroke:rgb(48, 255, 0);stroke-width:1;" d="M 581.587, 194.286 L 582.313, 193.379 L 586.304, 195.011 L 590.295, 196.825 L 594.467, 198.458 L 598.458, 200.272 L 602.449, 201.905 L 610.612, 205.351 L 614.785, 206.984 L 618.776, 208.617 L 622.766, 210.431 L 626.939, 212.063 L 630.93, 213.878 L 630.204, 214.785 L 626.213, 212.971 L 622.222, 211.338 L 618.05, 209.705 L 614.059, 207.891 L 609.887, 206.259 L 601.905, 202.812 L 597.732, 201.179 L 593.741, 199.365 L 589.751, 197.732 L 585.578, 196.1 L 581.587, 194.286 z "/>
<path style="fill:rgb(255, 255, 0);fill-opacity:0;fill-rule:evenodd;stroke:rgb(48, 255, 0);stroke-width:1;" d="M 222.585, 184.671 L 229.841, 145.669 L 231.111, 145.85 L 224.036, 185.034 L 222.585, 184.671 z "/>
<path style="fill:rgb(255, 0, 0);fill-opacity:0;fill-rule:evenodd;stroke:rgb(48, 255, 0);stroke-width:1;" d="M 473.651, 149.116 L 474.558, 147.846 L 508.844, 162.177 L 507.937, 163.447 L 473.651, 149.116 z "/>
<path style="fill:rgb(0, 255, 0);fill-opacity:0;fill-rule:evenodd;stroke:rgb(48, 255, 0);stroke-width:1;" d="M 474.558, 147.846 L 475.465, 146.576 L 509.751, 160.907 L 508.844, 162.177 L 474.558, 147.846 z "/>
<path style="fill:rgb(0, 0, 255);fill-opacity:0;fill-rule:evenodd;stroke:rgb(48, 255, 0);stroke-width:1;" d="M 583.039, 55.873 L 594.467, 40.4535 L 608.254, 21.4059 L 611.338, 17.0522 L 614.422, 12.8798 L 642.358, 24.4898 L 657.052, 30.6576 L 685.896, 42.8118 L 684.989, 43.9002 L 679.728, 51.3379 L 654.694, 85.9864 L 583.039, 55.873 z "/>
<path style="fill:rgb(255, 255, 0);fill-opacity:0;fill-rule:evenodd;stroke:rgb(48, 255, 0);stroke-width:1;" d="M 391.111, 61.8594 L 420.136, 21.9501 L 476.735, 45.7143 L 447.71, 85.6236 L 434.649, 80 L 391.111, 61.8594 z "/>
<path style="fill:rgb(255, 0, 0);fill-opacity:0;fill-rule:evenodd;stroke:rgb(48, 255, 0);stroke-width:1;" d="M 361.723, 60.2268 L 364.626, 44.6259 L 390.023, 9.43311 L 420.136, 21.9501 L 391.111, 61.8594 L 385.125, 70.0227 L 361.723, 60.2268 z "/>
<path style="fill:rgb(0, 255, 0);fill-opacity:0;fill-rule:evenodd;stroke:rgb(48, 255, 0);stroke-width:1;" d="M 684.989, 43.9002 L 685.896, 42.8118 L 717.098, 0 L 745.578, 11.9728 L 739.955, 19.7732 L 713.832, 55.873 L 684.989, 43.9002 z "/>
<path style="fill:rgb(0, 0, 255);fill-opacity:0;fill-rule:evenodd;stroke:rgb(48, 255, 0);stroke-width:1;" d="M 850.794, 22.6757 L 858.05, 12.517 L 901.406, 30.4762 L 894.15, 40.6349 L 850.794, 22.6757 z "/>
<path style="fill:rgb(255, 255, 0);fill-opacity:0;fill-rule:evenodd;stroke:rgb(48, 255, 0);stroke-width:1;" d="M 364.626, 44.6259 L 372.971, 2.17687 L 390.204, 9.43311 L 364.626, 44.6259 z "/>
<path style="fill:rgb(255, 0, 0);fill-opacity:0;fill-rule:evenodd;stroke:rgb(48, 255, 0);stroke-width:1;" d="M 969.796, 37.551 L 981.95, 21.2245 L 990.839, 24.8526 L 978.866, 41.3605 L 969.796, 37.551 z "/>
<path style="fill:rgb(0, 255, 0);fill-opacity:0;fill-rule:evenodd;stroke:rgb(48, 255, 0);stroke-width:1;" d="M 243.447, 70.9297 L 253.968, 9.2517 L 255.42, 9.43311 L 244.717, 70.9297 L 243.447, 70.9297 z "/>
<path style="fill:rgb(0, 0, 255);fill-opacity:0;fill-rule:evenodd;stroke:rgb(48, 255, 0);stroke-width:1;" d="M 991.02, 776.236 L 1005.9, 755.737 L 1009.71, 757.37 L 1030.75, 728.707 L 1026.94, 727.075 L 1041.45, 707.12 L 1061.95, 715.646 L 1069.21, 718.73 L 1054.69, 738.685 L 1050.7, 737.052 L 1029.84, 765.714 L 1033.83, 767.347 L 1018.78, 787.846 L 1011.52, 784.943 L 991.02, 776.236 z "/>
<path style="fill:rgb(255, 255, 0);fill-opacity:0;fill-rule:evenodd;stroke:rgb(48, 255, 0);stroke-width:1;" d="M 0, 361.361 L 3.80952, 341.587 L 7.25624, 323.265 L 11.2472, 302.041 L 57.6871, 306.939 L 68.7528, 243.447 L 159.637, 253.061 L 177.415, 254.875 L 209.705, 258.322 L 210.794, 258.322 L 198.821, 322.177 L 197.007, 331.61 L 189.569, 371.882 L 187.755, 381.678 L 175.964, 444.263 L 174.694, 444.082 L 144.399, 440.816 L 144.58, 439.909 L 35.3741, 428.299 L 46.8027, 366.44 L 0, 361.361 z "/>
<path style="fill:rgb(255, 0, 0);fill-opacity:0;fill-rule:evenodd;stroke:rgb(48, 255, 0);stroke-width:1;" d="M 0, 361.361 L 3.80952, 341.587 L 7.25624, 323.265 L 11.2472, 302.041 L 57.6871, 306.939 L 165.624, 318.549 L 197.732, 322.177 L 195.918, 331.429 L 188.299, 371.882 L 186.485, 381.497 L 156.009, 378.231 L 46.8027, 366.44 L 0, 361.361 z "/>
<path style="fill:rgb(0, 255, 0);fill-opacity:0;fill-rule:evenodd;stroke:rgb(48, 255, 0);stroke-width:1;" d="M 35.3741, 428.299 L 46.8027, 366.44 L 156.009, 378.231 L 144.58, 439.909 L 35.3741, 428.299 z "/>
<path style="fill:rgb(0, 0, 255);fill-opacity:0;fill-rule:evenodd;stroke:rgb(48, 255, 0);stroke-width:1;" d="M 3.80952, 341.587 L 7.25624, 323.265 L 155.646, 339.048 L 152.018, 357.007 L 3.80952, 341.587 z "/>
<path style="fill:rgb(255, 255, 0);fill-opacity:0;fill-rule:evenodd;stroke:rgb(48, 255, 0);stroke-width:1;" d="M 373.333, 755.011 L 379.864, 746.122 L 389.297, 751.02 L 390.023, 751.746 L 404.172, 768.435 L 415.238, 781.678 L 422.857, 787.302 L 416.508, 796.19 L 407.438, 791.111 L 393.107, 773.696 L 381.859, 760.635 L 373.333, 755.011 z "/>
<path style="fill:rgb(255, 0, 0);fill-opacity:0;fill-rule:evenodd;stroke:rgb(48, 255, 0);stroke-width:1;" d="M 654.694, 85.9864 L 679.728, 51.3379 L 684.989, 43.9002 L 713.832, 55.873 L 739.955, 19.7732 L 745.578, 11.9728 L 788.571, 29.932 L 782.766, 37.9138 L 733.605, 105.76 L 726.349, 115.737 L 685.533, 98.8662 L 677.007, 95.2381 L 654.694, 85.9864 z "/>
<path style="fill:rgb(0, 255, 0);fill-opacity:0;fill-rule:evenodd;stroke:rgb(48, 255, 0);stroke-width:1;" d="M 654.694, 85.9864 L 679.728, 51.3379 L 708.209, 63.3107 L 713.832, 55.873 L 739.955, 19.7732 L 782.766, 37.9138 L 733.605, 105.76 L 691.882, 89.4331 L 685.533, 98.8662 L 677.007, 95.2381 L 654.694, 85.9864 z "/>
<path style="fill:rgb(0, 0, 255);fill-opacity:0;fill-rule:evenodd;stroke:rgb(48, 255, 0);stroke-width:1;" d="M 739.955, 19.7732 L 745.578, 11.9728 L 788.571, 29.932 L 782.766, 37.9138 L 739.955, 19.7732 z "/>
<path style="fill:rgb(255, 255, 0);fill-opacity:0;fill-rule:evenodd;stroke:rgb(48, 255, 0);stroke-width:1;" d="M 530.068, 727.8 L 534.966, 721.451 L 548.753, 703.129 L 671.565, 755.011 L 653.605, 779.683 L 530.068, 727.8 z "/>
</svg>