<?xml version="1.0" encoding="iso-8859-1" standalone="no"?>
<!DOCTYPE svg PUBLIC "-//W3C//DTD SVG 1.0//EN" "http://www.w3.org/TR/2001/REC-SVG-20010904/DTD/svg10.dtd">
<svg xmlns="http://www.w3.org/2000/svg" width="1061" height="800">
<path style="fill:rgb(255, 0, 0);fill-opacity:0;fill-rule:evenodd;stroke:rgb(0, 255, 224);stroke-width:1;" d="M 76.4665, 339.706 L 84.8796, 328.114 L 92.358, 331.292 L 149.942, 251.835 L 386.258, 351.11 L 340.079, 414.489 L 280.813, 389.624 L 260.809, 417.107 L 245.852, 410.75 L 264.922, 384.763 L 251.274, 378.967 L 265.483, 359.149 L 205.469, 333.91 L 172.19, 379.902 L 76.4665, 339.706 z "/>
<path style="fill:rgb(0, 255, 0);fill-opacity:0;fill-rule:evenodd;stroke:rgb(0, 255, 224);stroke-width:1;" d="M 207.151, 216.312 L 239.495, 172.19 L 242.86, 167.516 L 249.591, 170.32 L 258.565, 158.168 L 269.596, 162.655 L 260.622, 174.994 L 371.863, 221.921 L 380.837, 209.582 L 392.428, 214.443 L 383.454, 226.782 L 401.776, 234.447 L 366.067, 283.244 L 207.151, 216.312 z "/>
<path style="fill:rgb(0, 0, 255);fill-opacity:0;fill-rule:evenodd;stroke:rgb(0, 255, 224);stroke-width:1;" d="M 854.779, 185.277 L 873.662, 157.046 L 876.84, 154.429 L 880.393, 152.185 L 884.319, 150.315 L 888.432, 148.82 L 890.675, 148.072 L 892.919, 147.698 L 897.406, 146.95 L 902.08, 146.763 L 906.754, 146.95 L 911.241, 147.511 L 916.102, 148.633 L 920.215, 149.755 L 1043.98, 201.916 L 1008.65, 250.339 L 854.779, 185.277 z "/>
<path style="fill:rgb(255, 255, 0);fill-opacity:0;fill-rule:evenodd;stroke:rgb(0, 255, 224);stroke-width:1;" d="M 599.766, 557.513 L 613.601, 538.817 L 607.993, 536.387 L 626.502, 511.708 L 771.208, 573.966 L 758.869, 590.605 L 738.864, 617.341 L 599.766, 557.513 z "/>
<path style="fill:rgb(255, 0, 0);fill-opacity:0;fill-rule:evenodd;stroke:rgb(0, 255, 224);stroke-width:1;" d="M 438.981, 733.068 L 467.025, 694.742 L 623.697, 761.112 L 611.545, 777.752 L 620.332, 781.491 L 616.967, 786.165 L 607.993, 782.426 L 595.653, 799.439 L 574.527, 790.465 L 546.483, 778.687 L 438.981, 733.068 z "/>
<path style="fill:rgb(0, 255, 0);fill-opacity:0;fill-rule:evenodd;stroke:rgb(0, 255, 224);stroke-width:1;" d="M 432.437, 95.3494 L 439.729, 85.0666 L 442.72, 86.3753 L 456.555, 66.9315 L 453.564, 65.8098 L 461.229, 55.1531 L 488.525, 66.5576 L 494.134, 80.7665 L 489.834, 86.5623 L 500.117, 90.8624 L 494.508, 98.5277 L 552.466, 122.645 L 533.396, 149.007 L 530.03, 147.698 L 516.756, 166.207 L 510.213, 167.703 L 513.952, 176.303 L 507.595, 185.09 L 449.264, 160.972 L 452.442, 156.485 L 446.086, 153.868 L 475.625, 112.737 L 471.512, 111.054 L 470.016, 113.111 L 463.66, 114.232 L 441.785, 105.071 L 445.151, 100.584 L 432.437, 95.3494 z "/>
<path style="fill:rgb(0, 0, 255);fill-opacity:0;fill-rule:evenodd;stroke:rgb(0, 255, 224);stroke-width:1;" d="M 209.582, 700.911 L 237.439, 662.772 L 265.109, 674.363 L 262.304, 678.102 L 268.474, 680.72 L 277.822, 667.82 L 251.274, 656.415 L 281.187, 615.471 L 336.901, 639.028 L 306.988, 680.159 L 283.244, 670.063 L 273.709, 682.963 L 278.196, 684.833 L 281, 681.094 L 316.523, 696.05 L 312.409, 701.659 L 305.679, 698.668 L 285.674, 725.777 L 292.592, 728.768 L 288.479, 734.19 L 252.956, 719.233 L 256.695, 713.999 L 240.991, 707.455 L 237.252, 712.503 L 209.582, 700.911 z "/>
<path style="fill:rgb(255, 255, 0);fill-opacity:0;fill-rule:evenodd;stroke:rgb(0, 255, 224);stroke-width:1;" d="M 784.669, 141.528 L 817.387, 96.8451 L 820.005, 94.4146 L 822.061, 92.9189 L 825.613, 91.0493 L 828.044, 89.9276 L 831.596, 88.8058 L 834.774, 88.4319 L 836.644, 88.6188 L 838.514, 89.3667 L 852.349, 70.4838 L 875.158, 80.0187 L 869.923, 87.1232 L 887.497, 136.107 L 873.662, 157.046 L 854.779, 185.277 L 827.296, 173.685 L 828.231, 172.19 L 822.248, 169.759 L 829.166, 160.224 L 784.669, 141.528 z "/>
<path style="fill:rgb(255, 0, 0);fill-opacity:0;fill-rule:evenodd;stroke:rgb(0, 255, 224);stroke-width:1;" d="M 366.067, 283.244 L 401.776, 234.447 L 402.337, 234.821 L 431.316, 195.186 L 463.66, 208.647 L 442.159, 238.373 L 462.725, 246.974 L 419.724, 305.866 L 366.067, 283.244 z "/>
<path style="fill:rgb(0, 255, 0);fill-opacity:0;fill-rule:evenodd;stroke:rgb(0, 255, 224);stroke-width:1;" d="M 59.4531, 154.989 L 75.9056, 132.554 L 99.8364, 99.8364 L 157.794, 124.328 L 149.755, 135.359 L 159.103, 139.285 L 126.759, 183.407 L 59.4531, 154.989 z "/>
<path style="fill:rgb(0, 0, 255);fill-opacity:0;fill-rule:evenodd;stroke:rgb(0, 255, 224);stroke-width:1;" d="M 649.311, 97.7799 L 687.824, 45.2442 L 749.521, 71.4186 L 711.007, 123.954 L 649.311, 97.7799 z "/>
<path style="fill:rgb(255, 255, 0);fill-opacity:0;fill-rule:evenodd;stroke:rgb(0, 255, 224);stroke-width:1;" d="M 288.479, 734.19 L 292.592, 728.768 L 306.24, 734.564 L 326.057, 707.455 L 312.409, 701.659 L 316.523, 696.05 L 392.989, 728.581 L 401.963, 732.321 L 394.672, 742.603 L 389.063, 741.295 L 376.91, 757.747 L 381.211, 761.112 L 377.658, 765.786 L 390.932, 771.395 L 386.819, 777.004 L 333.536, 754.382 L 334.097, 753.634 L 288.479, 734.19 z "/>
<path style="fill:rgb(255, 0, 0);fill-opacity:0;fill-rule:evenodd;stroke:rgb(0, 255, 224);stroke-width:1;" d="M 52.7226, 636.784 L 69.362, 613.975 L 106.754, 629.867 L 114.606, 618.836 L 174.246, 643.889 L 166.02, 655.106 L 164.524, 654.545 L 148.072, 676.981 L 52.7226, 636.784 z "/>
<path style="fill:rgb(0, 255, 0);fill-opacity:0;fill-rule:evenodd;stroke:rgb(0, 255, 224);stroke-width:1;" d="M 570.04, 370.367 L 602.571, 325.871 L 660.902, 350.549 L 628.558, 395.046 L 570.04, 370.367 z "/>
<path style="fill:rgb(0, 0, 255);fill-opacity:0;fill-rule:evenodd;stroke:rgb(0, 255, 224);stroke-width:1;" d="M 596.588, 170.133 L 606.684, 156.485 L 608.179, 157.233 L 630.054, 127.693 L 686.703, 151.811 L 654.919, 194.999 L 596.588, 170.133 z "/>
<path style="fill:rgb(255, 255, 0);fill-opacity:0;fill-rule:evenodd;stroke:rgb(0, 255, 224);stroke-width:1;" d="M 172.938, 380.276 L 202.29, 340.079 L 260.248, 364.384 L 243.608, 387.38 L 231.082, 404.581 L 172.938, 380.276 z "/>
<path style="fill:rgb(255, 0, 0);fill-opacity:0;fill-rule:evenodd;stroke:rgb(0, 255, 224);stroke-width:1;" d="M 304.37, 29.9135 L 318.205, 11.0306 L 322.505, 12.7133 L 326.618, 7.10446 L 413.555, 43.5616 L 409.254, 49.3573 L 413.555, 51.2269 L 399.907, 69.9229 L 362.702, 54.4052 L 364.01, 52.7226 L 342.884, 43.7485 L 341.575, 45.6181 L 304.37, 29.9135 z "/>
<path style="fill:rgb(0, 255, 0);fill-opacity:0;fill-rule:evenodd;stroke:rgb(0, 255, 224);stroke-width:1;" d="M 656.415, 515.261 L 684.272, 477.121 L 740.921, 501.052 L 734.19, 510.026 L 730.451, 511.895 L 720.355, 525.73 L 720.729, 528.535 L 713.999, 537.696 L 711.194, 541.622 L 665.202, 522.365 L 667.072, 519.748 L 656.415, 515.261 z "/>
<path style="fill:rgb(0, 0, 255);fill-opacity:0;fill-rule:evenodd;stroke:rgb(0, 255, 224);stroke-width:1;" d="M 687.824, 45.2442 L 714.186, 9.34798 L 775.882, 35.5223 L 749.521, 71.4186 L 687.824, 45.2442 z "/>
<path style="fill:rgb(255, 255, 0);fill-opacity:0;fill-rule:evenodd;stroke:rgb(0, 255, 224);stroke-width:1;" d="M 422.716, 638.841 L 458.986, 589.11 L 465.342, 580.323 L 501.799, 595.653 L 495.817, 604.066 L 493.012, 604.627 L 491.33, 607.058 L 492.078, 608.927 L 489.46, 612.853 L 486.656, 613.414 L 484.786, 616.032 L 485.721, 617.901 L 482.73, 622.014 L 479.925, 622.762 L 478.243, 625.193 L 478.99, 627.249 L 476.373, 630.802 L 473.382, 631.736 L 471.886, 633.98 L 472.447, 636.036 L 469.642, 639.963 L 467.025, 640.71 L 465.155, 643.141 L 465.903, 645.384 L 459.547, 654.358 L 422.716, 638.841 z "/>
<path style="fill:rgb(255, 0, 0);fill-opacity:0;fill-rule:evenodd;stroke:rgb(0, 255, 224);stroke-width:1;" d="M 422.155, 409.628 L 446.086, 377.097 L 520.495, 408.881 L 510.774, 422.155 L 491.704, 413.928 L 477.495, 433.185 L 422.155, 409.628 z "/>
<path style="fill:rgb(0, 255, 0);fill-opacity:0;fill-rule:evenodd;stroke:rgb(0, 255, 224);stroke-width:1;" d="M 131.993, 453.751 L 163.029, 411.498 L 209.956, 431.129 L 178.92, 473.569 L 131.993, 453.751 z "/>
<path style="fill:rgb(0, 0, 255);fill-opacity:0;fill-rule:evenodd;stroke:rgb(0, 255, 224);stroke-width:1;" d="M 142.276, 520.495 L 174.994, 475.812 L 219.117, 494.321 L 217.06, 497.125 L 208.273, 509.091 L 202.664, 516.756 L 186.399, 539.004 L 142.276, 520.495 z "/>
<path style="fill:rgb(255, 255, 0);fill-opacity:0;fill-rule:evenodd;stroke:rgb(0, 255, 224);stroke-width:1;" d="M 379.715, 467.025 L 404.394, 433.559 L 460.668, 457.677 L 462.725, 458.425 L 457.677, 464.968 L 450.76, 474.503 L 448.703, 477.308 L 438.981, 490.395 L 438.046, 491.891 L 379.715, 467.025 z "/>
<path style="fill:rgb(255, 0, 0);fill-opacity:0;fill-rule:evenodd;stroke:rgb(0, 255, 224);stroke-width:1;" d="M 658.659, 197.055 L 690.629, 152.185 L 734.564, 170.133 L 702.594, 215.004 L 658.659, 197.055 z "/>
<path style="fill:rgb(0, 255, 0);fill-opacity:0;fill-rule:evenodd;stroke:rgb(0, 255, 224);stroke-width:1;" d="M 293.34, 584.623 L 316.149, 553.213 L 369.432, 575.649 L 378.967, 579.575 L 372.423, 588.736 L 368.684, 587.053 L 352.419, 609.488 L 293.34, 584.623 z "/>
<path style="fill:rgb(0, 0, 255);fill-opacity:0;fill-rule:evenodd;stroke:rgb(0, 255, 224);stroke-width:1;" d="M 785.604, 756.999 L 808.974, 756.438 L 808.226, 734.564 L 809.722, 734.564 L 809.535, 729.329 L 828.605, 728.955 L 828.792, 734.19 L 829.914, 734.19 L 830.661, 756.438 L 853.657, 756.065 L 854.218, 772.517 L 831.035, 772.891 L 831.596, 794.765 L 830.287, 794.765 L 830.474, 799.626 L 811.778, 800 L 811.591, 794.578 L 809.722, 794.765 L 809.161, 773.452 L 786.165, 773.826 L 785.604, 756.999 z "/>
<path style="fill:rgb(255, 255, 0);fill-opacity:0;fill-rule:evenodd;stroke:rgb(0, 255, 224);stroke-width:1;" d="M 260.809, 417.107 L 280.813, 389.624 L 340.079, 414.489 L 320.075, 441.972 L 260.809, 417.107 z "/>
<path style="fill:rgb(255, 0, 0);fill-opacity:0;fill-rule:evenodd;stroke:rgb(0, 255, 224);stroke-width:1;" d="M 40.0093, 579.575 L 65.4358, 544.613 L 64.3141, 523.113 L 104.51, 540.126 L 75.1577, 580.509 L 85.4405, 584.81 L 77.7752, 595.466 L 59.6401, 587.801 L 46.9269, 582.566 L 40.0093, 579.575 z "/>
<path style="fill:rgb(0, 255, 0);fill-opacity:0;fill-rule:evenodd;stroke:rgb(0, 255, 224);stroke-width:1;" d="M 518.813, 275.578 L 543.678, 241.926 L 590.605, 261.93 L 565.927, 295.583 L 518.813, 275.578 z "/>
<path style="fill:rgb(0, 0, 255);fill-opacity:0;fill-rule:evenodd;stroke:rgb(0, 255, 224);stroke-width:1;" d="M 171.816, 201.355 L 204.16, 157.233 L 239.495, 172.19 L 207.151, 216.312 L 171.816, 201.355 z "/>
<path style="fill:rgb(255, 255, 0);fill-opacity:0;fill-rule:evenodd;stroke:rgb(0, 255, 224);stroke-width:1;" d="M 265.483, 83.5709 L 282.87, 59.8271 L 347.932, 87.3101 L 340.827, 97.032 L 344.193, 98.3407 L 341.014, 102.641 L 337.275, 100.958 L 330.171, 110.68 L 265.483, 83.5709 z "/>
<path style="fill:rgb(255, 0, 0);fill-opacity:0;fill-rule:evenodd;stroke:rgb(0, 255, 224);stroke-width:1;" d="M 171.629, 751.951 L 188.081, 729.516 L 246.6, 754.195 L 230.334, 776.817 L 230.147, 776.63 L 171.629, 751.951 z "/>
<path style="fill:rgb(0, 255, 0);fill-opacity:0;fill-rule:evenodd;stroke:rgb(0, 255, 224);stroke-width:1;" d="M 394.485, 144.146 L 426.829, 100.023 L 456.368, 112.363 L 424.211, 156.298 L 424.024, 156.485 L 394.485, 144.146 z "/>
<path style="fill:rgb(0, 0, 255);fill-opacity:0;fill-rule:evenodd;stroke:rgb(0, 255, 224);stroke-width:1;" d="M 114.606, 618.836 L 117.598, 614.91 L 121.15, 616.406 L 131.993, 601.636 L 128.254, 600.14 L 131.059, 596.214 L 132.928, 596.962 L 190.699, 621.267 L 174.246, 643.889 L 114.606, 618.836 z "/>
<path style="fill:rgb(255, 255, 0);fill-opacity:0;fill-rule:evenodd;stroke:rgb(0, 255, 224);stroke-width:1;" d="M 205.656, 154.989 L 236.504, 112.737 L 271.652, 127.506 L 264.174, 137.602 L 261.369, 136.48 L 259.126, 139.472 L 260.996, 140.407 L 259.126, 142.837 L 260.061, 143.211 L 256.135, 148.633 L 252.022, 146.763 L 247.721, 152.559 L 243.421, 150.876 L 242.487, 152.372 L 248.095, 154.616 L 244.917, 158.916 L 246.974, 159.663 L 245.852, 161.159 L 243.982, 160.224 L 239.495, 166.207 L 221.36, 158.729 L 219.677, 160.972 L 205.656, 154.989 z M 229.399, 145.642 L 234.447, 147.885 L 236.317, 145.268 L 238.186, 146.015 L 244.356, 137.228 L 236.13, 133.863 L 232.391, 139.285 L 233.513, 139.846 L 229.399, 145.642 z "/>
<path style="fill:rgb(255, 0, 0);fill-opacity:0;fill-rule:evenodd;stroke:rgb(0, 255, 224);stroke-width:1;" d="M 549.287, 479.364 L 564.992, 457.677 L 582.379, 434.12 L 610.236, 445.899 L 585.557, 479.738 L 577.331, 491.143 L 549.287, 479.364 z "/>
<path style="fill:rgb(0, 255, 0);fill-opacity:0;fill-rule:evenodd;stroke:rgb(0, 255, 224);stroke-width:1;" d="M 150.315, 589.67 L 167.329, 566.114 L 215.938, 586.679 L 198.925, 610.049 L 150.315, 589.67 z "/>
<path style="fill:rgb(0, 0, 255);fill-opacity:0;fill-rule:evenodd;stroke:rgb(0, 255, 224);stroke-width:1;" d="M 394.672, 627.062 L 396.541, 624.445 L 405.889, 611.732 L 407.198, 610.049 L 410.189, 611.358 L 427.203, 588.175 L 446.459, 596.214 L 453.377, 586.679 L 458.986, 589.11 L 422.716, 638.841 L 394.672, 627.062 z "/>
<path style="fill:rgb(255, 255, 0);fill-opacity:0;fill-rule:evenodd;stroke:rgb(0, 255, 224);stroke-width:1;" d="M 507.034, 673.054 L 521.056, 653.798 L 518.065, 652.676 L 536.2, 627.623 L 542.744, 630.428 L 539.004, 635.476 L 555.644, 642.58 L 559.383, 637.345 L 565.927, 640.15 L 549.287, 663.146 L 547.792, 665.202 L 544.239, 663.706 L 530.404, 682.963 L 507.034, 673.054 z "/>
<path style="fill:rgb(255, 0, 0);fill-opacity:0;fill-rule:evenodd;stroke:rgb(0, 255, 224);stroke-width:1;" d="M 539.565, 608.927 L 560.879, 579.014 L 595.84, 593.41 L 595.84, 593.597 L 574.714, 623.323 L 539.565, 608.927 z "/>
<path style="fill:rgb(0, 255, 0);fill-opacity:0;fill-rule:evenodd;stroke:rgb(0, 255, 224);stroke-width:1;" d="M 244.73, 478.243 L 263.052, 453.19 L 300.444, 469.082 L 280.626, 496.378 L 246.226, 481.795 L 244.73, 478.243 z "/>
<path style="fill:rgb(0, 0, 255);fill-opacity:0;fill-rule:evenodd;stroke:rgb(0, 255, 224);stroke-width:1;" d="M 585.557, 479.738 L 610.236, 445.899 L 640.337, 458.612 L 615.658, 492.452 L 585.557, 479.738 z "/>
<path style="fill:rgb(255, 255, 0);fill-opacity:0;fill-rule:evenodd;stroke:rgb(0, 255, 224);stroke-width:1;" d="M 346.623, 512.456 L 359.336, 495.069 L 417.107, 519.374 L 404.581, 536.761 L 346.623, 512.456 z "/>
<path style="fill:rgb(255, 0, 0);fill-opacity:0;fill-rule:evenodd;stroke:rgb(0, 255, 224);stroke-width:1;" d="M 42.6268, 266.043 L 57.5835, 245.478 L 57.0227, 242.487 L 73.4751, 219.864 L 94.9755, 228.839 L 77.2143, 253.33 L 75.9056, 252.769 L 60.5749, 273.709 L 56.2748, 271.839 L 42.6268, 266.043 z "/>
<path style="fill:rgb(0, 255, 0);fill-opacity:0;fill-rule:evenodd;stroke:rgb(0, 255, 224);stroke-width:1;" d="M 438.981, 490.395 L 448.703, 477.308 L 451.32, 478.616 L 453.377, 475.812 L 450.76, 474.503 L 457.677, 464.968 L 460.668, 466.277 L 471.138, 452.068 L 489.46, 459.921 L 478.99, 474.129 L 481.795, 475.251 L 475.064, 484.599 L 471.512, 483.104 L 469.082, 486.282 L 472.634, 487.778 L 463.099, 500.678 L 438.981, 490.395 z "/>
<path style="fill:rgb(0, 0, 255);fill-opacity:0;fill-rule:evenodd;stroke:rgb(0, 255, 224);stroke-width:1;" d="M 208.273, 509.091 L 217.06, 497.125 L 223.23, 496.191 L 232.765, 500.117 L 267.165, 514.7 L 254.265, 532.461 L 220.238, 517.878 L 210.33, 513.765 L 208.273, 509.091 z "/>
<path style="fill:rgb(255, 255, 0);fill-opacity:0;fill-rule:evenodd;stroke:rgb(0, 255, 224);stroke-width:1;" d="M 477.308, 331.666 L 493.947, 309.044 L 527.974, 323.627 L 511.334, 346.249 L 477.308, 331.666 z "/>
<path style="fill:rgb(255, 0, 0);fill-opacity:0;fill-rule:evenodd;stroke:rgb(0, 255, 224);stroke-width:1;" d="M 195.373, 480.673 L 226.408, 438.233 L 244.543, 445.899 L 213.508, 488.338 L 195.373, 480.673 z "/>
<path style="fill:rgb(0, 255, 0);fill-opacity:0;fill-rule:evenodd;stroke:rgb(0, 255, 224);stroke-width:1;" d="M 413.181, 421.594 L 422.155, 409.628 L 477.495, 433.185 L 483.477, 435.616 L 474.503, 447.768 L 469.455, 445.712 L 452.068, 438.233 L 441.599, 433.746 L 413.181, 421.594 z "/>
<path style="fill:rgb(0, 0, 255);fill-opacity:0;fill-rule:evenodd;stroke:rgb(0, 255, 224);stroke-width:1;" d="M 519.561, 438.607 L 536.761, 414.863 L 566.861, 427.577 L 549.661, 451.133 L 519.561, 438.607 z "/>
<path style="fill:rgb(255, 255, 0);fill-opacity:0;fill-rule:evenodd;stroke:rgb(0, 255, 224);stroke-width:1;" d="M 45.2442, 713.438 L 53.8444, 701.659 L 112.55, 726.525 L 103.95, 738.303 L 48.2356, 714.746 L 45.2442, 713.438 z "/>
<path style="fill:rgb(255, 0, 0);fill-opacity:0;fill-rule:evenodd;stroke:rgb(0, 255, 224);stroke-width:1;" d="M 759.43, 566.114 L 768.404, 553.774 L 770.46, 552.839 L 773.078, 549.474 L 771.956, 547.978 L 777.378, 540.5 L 779.808, 540.126 L 782.613, 536.387 L 782.239, 534.143 L 790.839, 522.178 L 806.918, 528.909 L 774.76, 572.657 L 759.43, 566.114 z "/>
<path style="fill:rgb(0, 255, 0);fill-opacity:0;fill-rule:evenodd;stroke:rgb(0, 255, 224);stroke-width:1;" d="M 352.419, 609.488 L 368.684, 587.053 L 372.423, 588.736 L 378.967, 579.575 L 387.38, 567.983 L 401.215, 573.779 L 369.993, 616.78 L 352.419, 609.488 z "/>
<path style="fill:rgb(0, 0, 255);fill-opacity:0;fill-rule:evenodd;stroke:rgb(0, 255, 224);stroke-width:1;" d="M 337.649, 523.674 L 345.875, 512.269 L 346.623, 512.456 L 404.581, 536.761 L 404.954, 536.948 L 396.728, 548.539 L 337.649, 523.674 z "/>
<path style="fill:rgb(255, 255, 0);fill-opacity:0;fill-rule:evenodd;stroke:rgb(0, 255, 224);stroke-width:1;" d="M 524.982, 352.045 L 541.622, 329.423 L 558.635, 306.427 L 573.218, 312.783 L 539.565, 358.215 L 524.982, 352.045 z "/>
<path style="fill:rgb(255, 0, 0);fill-opacity:0;fill-rule:evenodd;stroke:rgb(0, 255, 224);stroke-width:1;" d="M 369.993, 616.78 L 401.215, 573.779 L 402.524, 571.909 L 417.481, 578.079 L 395.98, 607.619 L 386.819, 620.332 L 384.95, 622.949 L 369.993, 616.78 z "/>
<path style="fill:rgb(0, 255, 0);fill-opacity:0;fill-rule:evenodd;stroke:rgb(0, 255, 224);stroke-width:1;" d="M 65.9967, 692.124 L 74.7838, 680.159 L 129.563, 703.342 L 120.776, 715.307 L 65.9967, 692.124 z "/>
<path style="fill:rgb(0, 0, 255);fill-opacity:0;fill-rule:evenodd;stroke:rgb(0, 255, 224);stroke-width:1;" d="M 197.242, 543.678 L 199.86, 540.126 L 208.273, 528.348 L 213.321, 527.413 L 247.348, 541.809 L 234.634, 559.383 L 197.242, 543.678 z "/>
<path style="fill:rgb(255, 255, 0);fill-opacity:0;fill-rule:evenodd;stroke:rgb(0, 255, 224);stroke-width:1;" d="M 53.8444, 701.659 L 62.0706, 690.442 L 65.9967, 692.124 L 120.776, 715.307 L 112.55, 726.525 L 53.8444, 701.659 z "/>
<path style="fill:rgb(255, 0, 0);fill-opacity:0;fill-rule:evenodd;stroke:rgb(0, 255, 224);stroke-width:1;" d="M 132.928, 596.962 L 141.154, 585.744 L 150.315, 589.67 L 198.925, 610.049 L 190.699, 621.267 L 132.928, 596.962 z "/>
<path style="fill:rgb(0, 255, 0);fill-opacity:0;fill-rule:evenodd;stroke:rgb(0, 255, 224);stroke-width:1;" d="M 404.394, 433.559 L 413.181, 421.594 L 441.599, 433.746 L 438.607, 437.672 L 449.077, 441.972 L 452.068, 438.233 L 469.455, 445.712 L 460.668, 457.677 L 404.394, 433.559 z "/>
<path style="fill:rgb(0, 0, 255);fill-opacity:0;fill-rule:evenodd;stroke:rgb(0, 255, 224);stroke-width:1;" d="M 623.51, 507.969 L 655.106, 464.781 L 669.876, 470.951 L 639.028, 513.204 L 638.28, 514.139 L 623.51, 507.969 z "/>
<path style="fill:rgb(255, 255, 0);fill-opacity:0;fill-rule:evenodd;stroke:rgb(0, 255, 224);stroke-width:1;" d="M 608.74, 501.799 L 615.658, 492.452 L 640.337, 458.612 L 655.106, 464.781 L 623.51, 507.969 L 608.74, 501.799 z "/>
<path style="fill:rgb(255, 0, 0);fill-opacity:0;fill-rule:evenodd;stroke:rgb(0, 255, 224);stroke-width:1;" d="M 490.208, 664.641 L 501.613, 648.937 L 513.952, 631.923 L 521.43, 621.454 L 528.535, 624.445 L 536.2, 627.623 L 518.065, 652.676 L 504.978, 670.811 L 490.208, 664.641 z "/>
<path style="fill:rgb(0, 255, 0);fill-opacity:0;fill-rule:evenodd;stroke:rgb(0, 255, 224);stroke-width:1;" d="M 639.028, 513.204 L 669.876, 470.951 L 684.272, 477.121 L 656.415, 515.261 L 653.424, 519.374 L 639.028, 513.204 z "/>
<path style="fill:rgb(0, 0, 255);fill-opacity:0;fill-rule:evenodd;stroke:rgb(0, 255, 224);stroke-width:1;" d="M 713.999, 537.696 L 720.729, 528.535 L 723.534, 527.226 L 734.19, 512.456 L 734.19, 510.026 L 740.921, 501.052 L 758.869, 508.717 L 751.764, 518.439 L 749.334, 518.813 L 738.864, 533.022 L 739.425, 535.265 L 733.629, 543.118 L 731.947, 545.361 L 713.999, 537.696 z "/>
<path style="fill:rgb(255, 255, 0);fill-opacity:0;fill-rule:evenodd;stroke:rgb(0, 255, 224);stroke-width:1;" d="M 600.514, 714.186 L 608.553, 703.155 L 617.527, 706.894 L 617.901, 706.52 L 618.649, 706.894 L 662.211, 725.029 L 653.798, 736.434 L 600.514, 714.186 z "/>
<path style="fill:rgb(255, 0, 0);fill-opacity:0;fill-rule:evenodd;stroke:rgb(0, 255, 224);stroke-width:1;" d="M 475.251, 658.285 L 506.66, 615.284 L 521.43, 621.454 L 513.952, 631.923 L 501.613, 648.937 L 498.621, 647.628 L 487.217, 663.333 L 475.251, 658.285 z "/>
<path style="fill:rgb(0, 255, 0);fill-opacity:0;fill-rule:evenodd;stroke:rgb(0, 255, 224);stroke-width:1;" d="M 330.358, 533.583 L 337.649, 523.674 L 396.728, 548.539 L 389.437, 558.448 L 330.358, 533.583 z "/>
<path style="fill:rgb(0, 0, 255);fill-opacity:0;fill-rule:evenodd;stroke:rgb(0, 255, 224);stroke-width:1;" d="M 323.066, 543.491 L 330.358, 533.583 L 389.437, 558.448 L 382.332, 568.357 L 376.537, 565.927 L 323.066, 543.491 z "/>
<path style="fill:rgb(255, 255, 0);fill-opacity:0;fill-rule:evenodd;stroke:rgb(0, 255, 224);stroke-width:1;" d="M 808.413, 257.069 L 838.327, 215.004 L 852.349, 220.612 L 822.435, 262.678 L 808.413, 257.069 z "/>
<path style="fill:rgb(255, 0, 0);fill-opacity:0;fill-rule:evenodd;stroke:rgb(0, 255, 224);stroke-width:1;" d="M 512.83, 520.495 L 520.122, 510.213 L 522.926, 509.091 L 526.478, 503.856 L 526.478, 501.052 L 532.087, 493.199 L 536.013, 493.012 L 541.061, 485.908 L 554.335, 491.143 L 549.1, 498.434 L 550.596, 500.865 L 544.987, 509.091 L 541.622, 509.839 L 537.696, 515.261 L 537.322, 517.317 L 530.217, 527.413 L 512.83, 520.495 z "/>
<path style="fill:rgb(0, 255, 0);fill-opacity:0;fill-rule:evenodd;stroke:rgb(0, 255, 224);stroke-width:1;" d="M 660.902, 636.41 L 669.128, 625.006 L 719.42, 646.132 L 711.194, 657.537 L 664.454, 637.906 L 660.902, 636.41 z "/>
<path style="fill:rgb(0, 0, 255);fill-opacity:0;fill-rule:evenodd;stroke:rgb(0, 255, 224);stroke-width:1;" d="M 406.824, 566.674 L 414.863, 555.27 L 417.107, 556.205 L 421.033, 550.783 L 417.668, 549.287 L 424.959, 539.191 L 429.072, 540.874 L 430.755, 538.817 L 426.642, 536.948 L 434.307, 526.665 L 450.386, 533.396 L 443.468, 542.931 L 442.907, 543.865 L 438.607, 541.996 L 436.738, 544.426 L 441.225, 546.296 L 438.981, 549.1 L 435.242, 554.148 L 433.933, 556.018 L 430.755, 554.709 L 425.333, 562.187 L 427.016, 562.935 L 420.098, 572.283 L 406.824, 566.674 z "/>
<path style="fill:rgb(255, 255, 0);fill-opacity:0;fill-rule:evenodd;stroke:rgb(0, 255, 224);stroke-width:1;" d="M 438.794, 579.201 L 447.394, 567.422 L 448.516, 567.796 L 453.19, 561.253 L 450.386, 560.131 L 453.751, 555.644 L 456.929, 554.896 L 459.547, 551.157 L 458.986, 548.352 L 465.342, 539.565 L 481.047, 546.296 L 474.877, 554.709 L 471.138, 555.831 L 468.334, 559.57 L 469.455, 562.187 L 466.464, 566.114 L 463.473, 564.992 L 458.425, 571.909 L 461.416, 573.218 L 452.816, 585.183 L 438.794, 579.201 z "/>
<path style="fill:rgb(255, 0, 0);fill-opacity:0;fill-rule:evenodd;stroke:rgb(0, 255, 224);stroke-width:1;" d="M 656.228, 649.124 L 664.454, 637.906 L 711.194, 657.537 L 702.968, 668.567 L 681.094, 659.406 L 673.615, 656.415 L 656.228, 649.124 z "/>
<path style="fill:rgb(0, 255, 0);fill-opacity:0;fill-rule:evenodd;stroke:rgb(0, 255, 224);stroke-width:1;" d="M 749.521, 549.848 L 757.747, 538.631 L 760.178, 538.257 L 766.534, 529.47 L 766.16, 527.226 L 774.76, 515.261 L 790.839, 522.178 L 782.239, 534.143 L 779.621, 534.891 L 776.817, 538.817 L 777.378, 540.5 L 771.956, 547.978 L 769.339, 548.913 L 764.104, 556.018 L 749.521, 549.848 z "/>
<path style="fill:rgb(0, 0, 255);fill-opacity:0;fill-rule:evenodd;stroke:rgb(0, 255, 224);stroke-width:1;" d="M 733.629, 543.118 L 739.425, 535.265 L 742.043, 531.713 L 744.473, 531.339 L 750.456, 523.113 L 749.521, 521.43 L 751.764, 518.439 L 758.869, 508.717 L 774.76, 515.261 L 766.16, 527.226 L 763.917, 528.161 L 757.56, 536.761 L 757.747, 538.631 L 749.521, 549.848 L 733.629, 543.118 z "/>
<path style="fill:rgb(255, 255, 0);fill-opacity:0;fill-rule:evenodd;stroke:rgb(0, 255, 224);stroke-width:1;" d="M 316.149, 553.213 L 323.066, 543.491 L 376.537, 565.927 L 369.432, 575.649 L 316.149, 553.213 z "/>
<path style="fill:rgb(255, 0, 0);fill-opacity:0;fill-rule:evenodd;stroke:rgb(0, 255, 224);stroke-width:1;" d="M 545.548, 691.003 L 546.483, 689.694 L 554.522, 678.663 L 556.766, 677.915 L 559.757, 673.802 L 559.196, 672.12 L 562, 668.38 L 562.374, 667.82 L 565.179, 667.633 L 574.901, 654.358 L 586.866, 659.406 L 577.144, 672.867 L 578.827, 673.615 L 577.518, 675.485 L 577.892, 675.672 L 576.396, 677.915 L 575.649, 677.541 L 575.088, 678.289 L 572.657, 679.037 L 569.292, 683.524 L 569.479, 685.581 L 560.879, 697.546 L 545.548, 691.003 z "/>
<path style="fill:rgb(0, 255, 0);fill-opacity:0;fill-rule:evenodd;stroke:rgb(0, 255, 224);stroke-width:1;" d="M 222.856, 794.765 L 230.147, 784.669 L 232.391, 785.604 L 234.073, 783.361 L 230.708, 781.865 L 249.965, 755.691 L 264.548, 761.86 L 263.052, 763.73 L 245.291, 787.848 L 241.552, 786.352 L 239.869, 788.595 L 241.739, 789.343 L 234.26, 799.626 L 222.856, 794.765 z "/>
<path style="fill:rgb(0, 0, 255);fill-opacity:0;fill-rule:evenodd;stroke:rgb(0, 255, 224);stroke-width:1;" d="M 423.837, 573.031 L 431.877, 562 L 433.933, 562.748 L 438.981, 555.831 L 435.242, 554.148 L 438.981, 549.1 L 441.599, 548.726 L 444.59, 544.613 L 443.468, 542.931 L 450.386, 533.396 L 465.342, 539.565 L 458.986, 548.352 L 455.62, 549.474 L 453.19, 553.026 L 453.751, 555.644 L 450.386, 560.131 L 447.581, 559.009 L 442.72, 565.553 L 445.712, 566.674 L 437.111, 578.453 L 423.837, 573.031 z "/>
<path style="fill:rgb(255, 255, 0);fill-opacity:0;fill-rule:evenodd;stroke:rgb(0, 255, 224);stroke-width:1;" d="M 623.323, 694.555 L 631.736, 682.776 L 649.124, 690.068 L 646.506, 693.62 L 654.172, 696.798 L 656.789, 693.246 L 678.476, 702.407 L 670.063, 714.186 L 647.815, 704.838 L 650.245, 701.472 L 642.767, 698.294 L 640.337, 701.659 L 626.688, 695.864 L 623.323, 694.555 z "/>
<path style="fill:rgb(255, 0, 0);fill-opacity:0;fill-rule:evenodd;stroke:rgb(0, 255, 224);stroke-width:1;" d="M 628.558, 395.046 L 660.902, 350.549 L 671.746, 355.036 L 640.71, 397.476 L 639.215, 399.533 L 628.558, 395.046 z "/>
<path style="fill:rgb(0, 255, 0);fill-opacity:0;fill-rule:evenodd;stroke:rgb(0, 255, 224);stroke-width:1;" d="M 618.649, 706.894 L 626.688, 695.864 L 640.337, 701.659 L 647.815, 704.838 L 670.063, 714.186 L 662.211, 725.029 L 618.649, 706.894 z "/>
<path style="fill:rgb(0, 0, 255);fill-opacity:0;fill-rule:evenodd;stroke:rgb(0, 255, 224);stroke-width:1;" d="M 648.189, 660.341 L 656.228, 649.124 L 673.615, 656.415 L 671.559, 659.406 L 679.037, 662.398 L 681.094, 659.406 L 702.968, 668.567 L 694.929, 679.785 L 672.867, 670.624 L 675.485, 666.885 L 668.007, 663.893 L 665.389, 667.446 L 648.189, 660.341 z "/>
<path style="fill:rgb(255, 255, 0);fill-opacity:0;fill-rule:evenodd;stroke:rgb(0, 255, 224);stroke-width:1;" d="M 631.736, 682.776 L 639.963, 671.559 L 657.163, 678.663 L 654.358, 682.402 L 662.585, 685.768 L 665.202, 682.215 L 686.703, 691.19 L 678.476, 702.407 L 656.789, 693.246 L 658.846, 690.255 L 651.367, 687.076 L 649.124, 690.068 L 631.736, 682.776 z "/>
<path style="fill:rgb(255, 0, 0);fill-opacity:0;fill-rule:evenodd;stroke:rgb(0, 255, 224);stroke-width:1;" d="M 639.963, 671.559 L 648.189, 660.341 L 665.389, 667.446 L 662.772, 670.998 L 670.25, 674.176 L 672.867, 670.624 L 694.929, 679.785 L 686.703, 691.19 L 665.202, 682.215 L 667.82, 678.663 L 659.593, 675.298 L 657.163, 678.663 L 639.963, 671.559 z "/>
<path style="fill:rgb(0, 255, 0);fill-opacity:0;fill-rule:evenodd;stroke:rgb(0, 255, 224);stroke-width:1;" d="M 1014.44, 480.299 L 1036.69, 449.825 L 1051.83, 456.368 L 1029.59, 486.656 L 1014.44, 480.299 z "/>
<path style="fill:rgb(0, 0, 255);fill-opacity:0;fill-rule:evenodd;stroke:rgb(0, 255, 224);stroke-width:1;" d="M 1000.42, 474.316 L 1022.67, 444.029 L 1036.69, 449.825 L 1014.44, 480.299 L 1000.42, 474.316 z "/>
<path style="fill:rgb(255, 255, 0);fill-opacity:0;fill-rule:evenodd;stroke:rgb(0, 255, 224);stroke-width:1;" d="M 31.7831, 707.829 L 56.6487, 673.802 L 69.7359, 679.411 L 63.1923, 688.385 L 60.3879, 688.572 L 51.2269, 701.098 L 52.1617, 703.342 L 44.8703, 713.251 L 31.7831, 707.829 z "/>
<path style="fill:rgb(255, 0, 0);fill-opacity:0;fill-rule:evenodd;stroke:rgb(0, 255, 224);stroke-width:1;" d="M 577.144, 704.277 L 605.749, 664.828 L 617.527, 669.876 L 613.601, 675.298 L 610.423, 673.989 L 605.001, 681.468 L 604.44, 681.281 L 603.132, 683.15 L 605.375, 684.085 L 602.571, 687.824 L 601.262, 687.263 L 596.962, 693.059 L 596.588, 694.929 L 594.905, 697.172 L 592.475, 697.733 L 590.605, 700.164 L 594.344, 701.846 L 588.923, 709.325 L 577.144, 704.277 z "/>
<path style="fill:rgb(0, 255, 0);fill-opacity:0;fill-rule:evenodd;stroke:rgb(0, 255, 224);stroke-width:1;" d="M 588.923, 709.325 L 594.344, 701.846 L 597.897, 703.342 L 599.579, 701.098 L 599.018, 699.229 L 600.888, 696.611 L 602.571, 695.49 L 607.058, 689.507 L 605.936, 688.946 L 608.553, 685.581 L 610.236, 686.329 L 611.732, 684.272 L 610.984, 683.898 L 616.406, 676.42 L 613.601, 675.298 L 617.527, 669.876 L 629.119, 674.737 L 608.553, 703.155 L 600.514, 714.186 L 588.923, 709.325 z "/>
<path style="fill:rgb(0, 0, 255);fill-opacity:0;fill-rule:evenodd;stroke:rgb(0, 255, 224);stroke-width:1;" d="M 549.661, 451.133 L 566.861, 427.577 L 582.379, 434.12 L 564.992, 457.677 L 549.661, 451.133 z "/>
<path style="fill:rgb(255, 255, 0);fill-opacity:0;fill-rule:evenodd;stroke:rgb(0, 255, 224);stroke-width:1;" d="M 504.417, 432.251 L 521.804, 408.507 L 536.761, 414.863 L 519.561, 438.607 L 504.417, 432.251 z "/>
<path style="fill:rgb(255, 0, 0);fill-opacity:0;fill-rule:evenodd;stroke:rgb(0, 255, 224);stroke-width:1;" d="M 212.386, 522.926 L 213.508, 521.43 L 215.19, 519.187 L 220.238, 517.878 L 254.265, 532.461 L 247.348, 541.809 L 213.321, 527.413 L 212.386, 522.926 z "/>
<path style="fill:rgb(0, 255, 0);fill-opacity:0;fill-rule:evenodd;stroke:rgb(0, 255, 224);stroke-width:1;" d="M 238.186, 487.217 L 240.804, 483.664 L 246.226, 481.795 L 280.626, 496.378 L 273.709, 505.726 L 239.308, 491.143 L 238.186, 487.217 z "/>
<path style="fill:rgb(0, 0, 255);fill-opacity:0;fill-rule:evenodd;stroke:rgb(0, 255, 224);stroke-width:1;" d="M 232.204, 495.443 L 234.447, 492.265 L 239.308, 491.143 L 273.709, 505.726 L 267.165, 514.7 L 232.765, 500.117 L 232.204, 495.443 z "/>
<path style="fill:rgb(255, 255, 0);fill-opacity:0;fill-rule:evenodd;stroke:rgb(0, 255, 224);stroke-width:1;" d="M 511.334, 346.249 L 527.974, 323.627 L 541.622, 329.423 L 524.982, 352.045 L 511.334, 346.249 z "/>
<path style="fill:rgb(255, 0, 0);fill-opacity:0;fill-rule:evenodd;stroke:rgb(0, 255, 224);stroke-width:1;" d="M 506.66, 615.284 L 516.756, 601.262 L 538.817, 610.423 L 528.535, 624.445 L 521.43, 621.454 L 506.66, 615.284 z "/>
<path style="fill:rgb(0, 255, 0);fill-opacity:0;fill-rule:evenodd;stroke:rgb(0, 255, 224);stroke-width:1;" d="M 355.784, 667.072 L 358.215, 663.52 L 356.158, 662.772 L 362.889, 652.489 L 364.945, 653.237 L 366.067, 651.554 L 382.332, 657.911 L 381.211, 659.406 L 383.454, 660.341 L 376.35, 670.998 L 374.106, 670.063 L 372.05, 673.241 L 355.784, 667.072 z "/>
<path style="fill:rgb(0, 0, 255);fill-opacity:0;fill-rule:evenodd;stroke:rgb(0, 255, 224);stroke-width:1;" d="M 533.77, 684.459 L 547.792, 665.202 L 549.287, 663.146 L 562, 668.38 L 559.196, 672.12 L 554.522, 678.663 L 546.483, 689.694 L 533.77, 684.459 z "/>
<path style="fill:rgb(255, 255, 0);fill-opacity:0;fill-rule:evenodd;stroke:rgb(0, 255, 224);stroke-width:1;" d="M 803.178, 424.772 L 811.031, 413.742 L 814.77, 415.424 L 817.2, 411.685 L 828.605, 416.172 L 830.287, 413.555 L 835.896, 415.798 L 831.222, 422.342 L 827.109, 420.659 L 819.444, 431.316 L 803.178, 424.772 z "/>
<path style="fill:rgb(255, 0, 0);fill-opacity:0;fill-rule:evenodd;stroke:rgb(0, 255, 224);stroke-width:1;" d="M 96.4711, 411.124 L 109.745, 393.176 L 122.832, 398.598 L 109.745, 416.546 L 96.4711, 411.124 z "/>
<path style="fill:rgb(0, 255, 0);fill-opacity:0;fill-rule:evenodd;stroke:rgb(0, 255, 224);stroke-width:1;" d="M 83.7579, 405.702 L 97.032, 387.754 L 109.745, 393.176 L 96.4711, 411.124 L 83.7579, 405.702 z "/>
<path style="fill:rgb(0, 0, 255);fill-opacity:0;fill-rule:evenodd;stroke:rgb(0, 255, 224);stroke-width:1;" d="M 186.399, 539.004 L 202.664, 516.756 L 213.508, 521.43 L 212.386, 522.926 L 208.273, 528.348 L 199.86, 540.126 L 196.308, 538.444 L 193.69, 542.183 L 186.399, 539.004 z "/>
<path style="fill:rgb(255, 255, 0);fill-opacity:0;fill-rule:evenodd;stroke:rgb(0, 255, 224);stroke-width:1;" d="M 141.154, 585.744 L 158.168, 562.374 L 167.329, 566.114 L 150.315, 589.67 L 141.154, 585.744 z "/>
<path style="fill:rgb(255, 0, 0);fill-opacity:0;fill-rule:evenodd;stroke:rgb(0, 255, 224);stroke-width:1;" d="M 114.606, 603.319 L 132.554, 578.827 L 141.154, 582.379 L 131.059, 596.214 L 128.254, 600.14 L 123.393, 606.871 L 114.606, 603.319 z "/>
<path style="fill:rgb(0, 255, 0);fill-opacity:0;fill-rule:evenodd;stroke:rgb(0, 255, 224);stroke-width:1;" d="M 72.1664, 400.841 L 85.2536, 382.893 L 97.032, 387.754 L 83.7579, 405.702 L 72.1664, 400.841 z "/>
<path style="fill:rgb(0, 0, 255);fill-opacity:0;fill-rule:evenodd;stroke:rgb(0, 255, 224);stroke-width:1;" d="M 106.754, 599.953 L 124.702, 575.462 L 132.554, 578.827 L 114.606, 603.319 L 106.754, 599.953 z "/>
<path style="fill:rgb(255, 255, 0);fill-opacity:0;fill-rule:evenodd;stroke:rgb(0, 255, 224);stroke-width:1;" d="M 132.554, 578.827 L 147.698, 557.887 L 156.298, 561.627 L 141.154, 582.379 L 132.554, 578.827 z "/>
<path style="fill:rgb(255, 0, 0);fill-opacity:0;fill-rule:evenodd;stroke:rgb(0, 255, 224);stroke-width:1;" d="M 124.702, 575.462 L 139.846, 554.709 L 147.698, 557.887 L 132.554, 578.827 L 124.702, 575.462 z "/>
<path style="fill:rgb(0, 255, 0);fill-opacity:0;fill-rule:evenodd;stroke:rgb(0, 255, 224);stroke-width:1;" d="M 1007.9, 689.507 L 1011.64, 684.085 L 1015.56, 678.85 L 1029.77, 684.459 L 1025.66, 690.442 L 1022.29, 695.303 L 1007.9, 689.507 z "/>
<path style="fill:rgb(0, 0, 255);fill-opacity:0;fill-rule:evenodd;stroke:rgb(0, 255, 224);stroke-width:1;" d="M 969.385, 729.516 L 977.051, 719.047 L 991.447, 725.029 L 987.707, 730.077 L 983.781, 735.499 L 969.385, 729.516 z "/>
<path style="fill:rgb(255, 255, 0);fill-opacity:0;fill-rule:evenodd;stroke:rgb(0, 255, 224);stroke-width:1;" d="M 955.363, 723.72 L 959.29, 718.112 L 963.029, 713.064 L 977.051, 719.047 L 969.385, 729.516 L 955.363, 723.72 z "/>
<path style="fill:rgb(255, 0, 0);fill-opacity:0;fill-rule:evenodd;stroke:rgb(0, 255, 224);stroke-width:1;" d="M 990.325, 689.32 L 997.803, 678.663 L 1011.64, 684.085 L 1007.9, 689.507 L 1004.16, 694.929 L 990.325, 689.32 z "/>
<path style="fill:rgb(0, 255, 0);fill-opacity:0;fill-rule:evenodd;stroke:rgb(0, 255, 224);stroke-width:1;" d="M 945.455, 712.316 L 953.12, 701.846 L 966.955, 707.642 L 963.029, 713.064 L 959.29, 718.112 L 945.455, 712.316 z "/>
<path style="fill:rgb(0, 0, 255);fill-opacity:0;fill-rule:evenodd;stroke:rgb(0, 255, 224);stroke-width:1;" d="M 1018.37, 700.911 L 1022.29, 695.303 L 1025.66, 690.442 L 1039.5, 696.05 L 1032.02, 706.52 L 1018.37, 700.911 z "/>
<path style="fill:rgb(255, 255, 0);fill-opacity:0;fill-rule:evenodd;stroke:rgb(0, 255, 224);stroke-width:1;" d="M 987.707, 730.077 L 991.447, 725.029 L 995.186, 719.794 L 1009.02, 725.59 L 1001.54, 735.873 L 987.707, 730.077 z "/>
<path style="fill:rgb(255, 0, 0);fill-opacity:0;fill-rule:evenodd;stroke:rgb(0, 255, 224);stroke-width:1;" d="M 969.198, 680.346 L 976.49, 670.25 L 990.325, 676.046 L 985.464, 682.776 L 983.033, 686.142 L 969.198, 680.346 z "/>
<path style="fill:rgb(0, 255, 0);fill-opacity:0;fill-rule:evenodd;stroke:rgb(0, 255, 224);stroke-width:1;" d="M 993.316, 711.381 L 1000.61, 700.911 L 1014.07, 706.52 L 1006.59, 716.99 L 993.316, 711.381 z "/>
<path style="fill:rgb(0, 0, 255);fill-opacity:0;fill-rule:evenodd;stroke:rgb(0, 255, 224);stroke-width:1;" d="M 386.819, 620.332 L 395.98, 607.619 L 405.889, 611.732 L 396.541, 624.445 L 386.819, 620.332 z "/>
<path style="fill:rgb(255, 255, 0);fill-opacity:0;fill-rule:evenodd;stroke:rgb(0, 255, 224);stroke-width:1;" d="M 50.1052, 280.439 L 56.2748, 271.839 L 60.5749, 273.709 L 50.1052, 288.105 L 50.1052, 280.439 z "/>
<path style="fill:rgb(255, 0, 0);fill-opacity:0;fill-rule:evenodd;stroke:rgb(0, 255, 224);stroke-width:1;" d="M 16.4524, 107.315 L 26.9222, 93.1059 L 33.6527, 95.9103 L 72.1664, 43.3746 L 117.411, 62.4445 L 68.4272, 129.376 L 16.4524, 107.315 z "/>
<path style="fill:rgb(0, 255, 0);fill-opacity:0;fill-rule:evenodd;stroke:rgb(0, 255, 224);stroke-width:1;" d="M 0, 129.75 L 16.4524, 107.315 L 68.4272, 129.376 L 75.9056, 132.554 L 59.4531, 154.989 L 0, 129.75 z "/>
<path style="fill:rgb(0, 0, 255);fill-opacity:0;fill-rule:evenodd;stroke:rgb(0, 255, 224);stroke-width:1;" d="M 4.30007, 309.044 L 35.1484, 266.791 L 37.205, 263.8 L 42.6268, 266.043 L 56.2748, 271.839 L 50.1052, 280.439 L 50.1052, 288.105 L 27.857, 318.953 L 4.30007, 309.044 z "/>
<path style="fill:rgb(255, 255, 0);fill-opacity:0;fill-rule:evenodd;stroke:rgb(0, 255, 224);stroke-width:1;" d="M 20.9395, 407.759 L 52.1617, 364.945 L 74.4099, 374.293 L 68.4272, 382.519 L 66.1837, 381.584 L 48.6095, 405.702 L 48.9834, 407.198 L 42.0659, 416.733 L 20.9395, 407.759 z "/>
<path style="fill:rgb(255, 0, 0);fill-opacity:0;fill-rule:evenodd;stroke:rgb(0, 255, 224);stroke-width:1;" d="M 22.0612, 77.4013 L 33.0918, 62.4445 L 52.9096, 35.3354 L 65.4358, 40.5702 L 34.4006, 82.8231 L 22.0612, 77.4013 z "/>
<path style="fill:rgb(0, 255, 0);fill-opacity:0;fill-rule:evenodd;stroke:rgb(0, 255, 224);stroke-width:1;" d="M 17.9481, 622.388 L 46.9269, 582.566 L 59.6401, 587.801 L 30.6614, 627.623 L 17.9481, 622.388 z "/>
<path style="fill:rgb(0, 0, 255);fill-opacity:0;fill-rule:evenodd;stroke:rgb(0, 255, 224);stroke-width:1;" d="M 16.2655, 55.34 L 36.0832, 28.0439 L 52.9096, 35.3354 L 33.0918, 62.4445 L 16.2655, 55.34 z "/>
<path style="fill:rgb(255, 255, 0);fill-opacity:0;fill-rule:evenodd;stroke:rgb(0, 255, 224);stroke-width:1;" d="M 987.147, 17.5742 L 1000.05, 0 L 1061.56, 25.9874 L 1048.47, 43.5616 L 987.147, 17.5742 z "/>
</svg>