<?xml version="1.0" encoding="iso-8859-1" standalone="no"?>
<!DOCTYPE svg PUBLIC "-//W3C//DTD SVG 1.0//EN" "http://www.w3.org/TR/2001/REC-SVG-20010904/DTD/svg10.dtd">
<svg xmlns="http://www.w3.org/2000/svg" width="950" height="800">
<path style="fill:rgb(255, 0, 0);fill-opacity:0;fill-rule:evenodd;stroke:rgb(0, 255, 194);stroke-width:1;" d="M 534.889, 253.878 L 616.807, 178.527 L 804.493, 263.729 L 772.867, 304.342 L 739.512, 346.857 L 534.889, 253.878 z "/>
<path style="fill:rgb(0, 255, 0);fill-opacity:0;fill-rule:evenodd;stroke:rgb(0, 255, 194);stroke-width:1;" d="M 399.049, 588.291 L 427.911, 488.745 L 596.241, 553.554 L 583.798, 574.12 L 591.402, 576.539 L 554.072, 634.435 L 545.085, 630.979 L 534.889, 646.36 L 399.049, 588.291 z "/>
<path style="fill:rgb(0, 0, 255);fill-opacity:0;fill-rule:evenodd;stroke:rgb(0, 255, 194);stroke-width:1;" d="M 645.841, 155.368 L 696.306, 91.5965 L 741.067, 111.99 L 829.553, 152.085 L 875.697, 173.169 L 825.232, 236.941 L 779.088, 215.857 L 690.603, 175.762 L 645.841, 155.368 z "/>
<path style="fill:rgb(255, 255, 0);fill-opacity:0;fill-rule:evenodd;stroke:rgb(0, 255, 194);stroke-width:1;" d="M 351.35, 696.652 L 353.77, 689.739 L 382.977, 610.585 L 406.308, 620.782 L 411.32, 614.733 L 533.161, 667.099 L 477.857, 750.918 L 464.55, 744.869 L 359.3, 700.108 L 351.35, 696.652 z "/>
<path style="fill:rgb(255, 0, 0);fill-opacity:0;fill-rule:evenodd;stroke:rgb(0, 255, 194);stroke-width:1;" d="M 474.746, 361.374 L 510.521, 298.293 L 579.65, 313.329 L 639.62, 340.117 L 694.578, 364.658 L 684.727, 375.718 L 680.233, 374.336 L 658.803, 415.122 L 602.29, 404.407 L 535.926, 389.371 L 474.746, 361.374 z "/>
<path style="fill:rgb(0, 255, 0);fill-opacity:0;fill-rule:evenodd;stroke:rgb(0, 255, 194);stroke-width:1;" d="M 645.841, 155.368 L 696.306, 91.5965 L 741.067, 111.99 L 734.5, 120.285 L 822.986, 160.38 L 829.553, 152.085 L 875.697, 173.169 L 825.232, 236.941 L 779.088, 215.857 L 784.273, 209.289 L 695.787, 169.021 L 690.603, 175.762 L 645.841, 155.368 z "/>
<path style="fill:rgb(0, 0, 255);fill-opacity:0;fill-rule:evenodd;stroke:rgb(0, 255, 194);stroke-width:1;" d="M 145.863, 230.547 L 200.302, 150.529 L 206.524, 149.492 L 212.746, 148.283 L 312.638, 188.205 L 315.057, 192.18 L 317.477, 196.155 L 263.037, 276.172 L 256.643, 277.382 L 250.076, 278.591 L 150.011, 238.669 L 147.937, 234.521 L 145.863, 230.547 z "/>
<path style="fill:rgb(255, 255, 0);fill-opacity:0;fill-rule:evenodd;stroke:rgb(0, 255, 194);stroke-width:1;" d="M 547.851, 250.076 L 617.326, 188.205 L 658.63, 207.215 L 644.459, 225.016 L 712.033, 255.952 L 726.032, 238.324 L 785.483, 265.803 L 731.043, 333.204 L 671.938, 306.416 L 686.628, 287.924 L 619.054, 256.989 L 604.191, 275.653 L 547.851, 250.076 z "/>
<path style="fill:rgb(255, 0, 0);fill-opacity:0;fill-rule:evenodd;stroke:rgb(0, 255, 194);stroke-width:1;" d="M 444.848, 425.491 L 451.761, 414.258 L 468.006, 405.962 L 488.918, 407.172 L 511.903, 414.085 L 532.642, 422.553 L 554.936, 433.441 L 575.675, 446.576 L 612.659, 476.647 L 625.794, 493.238 L 632.016, 509.484 L 625.794, 518.643 L 611.45, 526.593 L 588.81, 525.038 L 546.468, 513.286 L 508.792, 493.584 L 489.955, 481.659 L 472.327, 468.006 L 458.846, 454.526 L 447.267, 439.836 L 444.848, 425.491 z "/>
<path style="fill:rgb(0, 255, 0);fill-opacity:0;fill-rule:evenodd;stroke:rgb(0, 255, 194);stroke-width:1;" d="M 655.52, 150.702 L 694.232, 101.966 L 734.5, 120.285 L 822.986, 160.38 L 862.735, 178.527 L 824.195, 227.263 L 784.273, 209.289 L 695.787, 169.021 L 655.52, 150.702 z "/>
<path style="fill:rgb(0, 0, 255);fill-opacity:0;fill-rule:evenodd;stroke:rgb(0, 255, 194);stroke-width:1;" d="M 714.107, 573.774 L 718.427, 568.244 L 738.302, 543.357 L 778.051, 561.504 L 797.753, 536.617 L 802.074, 531.259 L 803.629, 529.358 L 911.99, 578.959 L 862.044, 641.521 L 714.107, 573.774 z "/>
<path style="fill:rgb(255, 255, 0);fill-opacity:0;fill-rule:evenodd;stroke:rgb(0, 255, 194);stroke-width:1;" d="M 366.213, 170.577 L 389.544, 76.5608 L 481.659, 117.693 L 464.895, 184.921 L 458.328, 211.536 L 366.213, 170.577 z "/>
<path style="fill:rgb(255, 0, 0);fill-opacity:0;fill-rule:evenodd;stroke:rgb(0, 255, 194);stroke-width:1;" d="M 353.77, 689.739 L 429.121, 631.151 L 487.362, 656.211 L 482.523, 665.198 L 492.029, 666.58 L 464.55, 744.869 L 359.3, 700.108 L 365.867, 690.603 L 353.77, 689.739 z "/>
<path style="fill:rgb(0, 255, 0);fill-opacity:0;fill-rule:evenodd;stroke:rgb(0, 255, 194);stroke-width:1;" d="M 331.13, 301.231 L 334.759, 286.196 L 336.833, 287.06 L 375.891, 233.657 L 403.37, 243.508 L 405.444, 240.743 L 452.798, 261.309 L 496.003, 269.95 L 480.622, 314.539 L 478.203, 317.822 L 441.91, 302.441 L 437.416, 307.28 L 414.776, 302.787 L 413.394, 301.059 L 403.716, 299.849 L 397.148, 329.056 L 394.556, 329.92 L 380.212, 323.526 L 383.841, 308.663 L 331.13, 301.231 z "/>
<path style="fill:rgb(0, 0, 255);fill-opacity:0;fill-rule:evenodd;stroke:rgb(0, 255, 194);stroke-width:1;" d="M 630.633, 681.962 L 673.839, 626.831 L 669.864, 624.93 L 694.578, 593.649 L 760.423, 623.547 L 731.389, 660.704 L 692.504, 710.132 L 630.633, 681.962 z "/>
<path style="fill:rgb(255, 255, 0);fill-opacity:0;fill-rule:evenodd;stroke:rgb(0, 255, 194);stroke-width:1;" d="M 632.016, 680.233 L 645.15, 663.815 L 684.727, 613.523 L 696.133, 599.179 L 756.794, 625.794 L 745.215, 641.002 L 731.908, 658.63 L 706.675, 691.64 L 695.096, 706.848 L 632.016, 680.233 z "/>
<path style="fill:rgb(255, 0, 0);fill-opacity:0;fill-rule:evenodd;stroke:rgb(0, 255, 194);stroke-width:1;" d="M 757.658, 587.081 L 778.051, 561.504 L 802.938, 572.91 L 824.195, 546.122 L 900.756, 581.205 L 859.106, 633.571 L 757.658, 587.081 z "/>
<path style="fill:rgb(0, 255, 0);fill-opacity:0;fill-rule:evenodd;stroke:rgb(0, 255, 194);stroke-width:1;" d="M 177.144, 192.007 L 260.099, 170.577 L 285.85, 234.867 L 202.203, 255.952 L 177.144, 192.007 z "/>
<path style="fill:rgb(0, 0, 255);fill-opacity:0;fill-rule:evenodd;stroke:rgb(0, 255, 194);stroke-width:1;" d="M 689.22, 153.813 L 714.28, 122.186 L 740.376, 134.111 L 733.809, 142.407 L 758.522, 153.813 L 765.262, 145.345 L 829.898, 174.725 L 804.839, 206.351 L 740.894, 177.317 L 746.252, 170.404 L 720.328, 158.652 L 714.971, 165.565 L 689.22, 153.813 z "/>
<path style="fill:rgb(255, 255, 0);fill-opacity:0;fill-rule:evenodd;stroke:rgb(0, 255, 194);stroke-width:1;" d="M 7.43141, 738.302 L 27.4789, 687.838 L 33.7006, 685.764 L 94.8801, 712.378 L 95.7442, 714.625 L 95.5714, 715.144 L 87.4487, 735.191 L 54.0938, 727.414 L 47.3536, 744.178 L 71.7218, 749.881 L 58.5872, 782.545 L 52.884, 784.619 L 18.3193, 769.065 L 33.0093, 746.77 L 7.43141, 738.302 z "/>
<path style="fill:rgb(255, 0, 0);fill-opacity:0;fill-rule:evenodd;stroke:rgb(0, 255, 194);stroke-width:1;" d="M 245.928, 469.389 L 265.457, 452.279 L 274.962, 454.007 L 303.824, 459.019 L 336.833, 458.328 L 376.064, 459.883 L 355.498, 514.15 L 343.4, 509.657 L 288.615, 489.609 L 245.928, 469.389 z "/>
<path style="fill:rgb(0, 255, 0);fill-opacity:0;fill-rule:evenodd;stroke:rgb(0, 255, 194);stroke-width:1;" d="M 645.15, 663.815 L 684.727, 613.523 L 745.215, 641.002 L 731.908, 658.63 L 706.675, 691.64 L 645.15, 663.815 z "/>
<path style="fill:rgb(0, 0, 255);fill-opacity:0;fill-rule:evenodd;stroke:rgb(0, 255, 194);stroke-width:1;" d="M 602.117, 669 L 662.26, 578.959 L 694.578, 593.649 L 669.864, 624.93 L 673.839, 626.831 L 630.633, 681.962 L 602.117, 669 z "/>
<path style="fill:rgb(255, 255, 0);fill-opacity:0;fill-rule:evenodd;stroke:rgb(0, 255, 194);stroke-width:1;" d="M 406.308, 620.782 L 411.32, 614.733 L 533.161, 667.099 L 477.857, 750.918 L 464.55, 744.869 L 492.029, 666.58 L 482.523, 665.198 L 487.362, 656.211 L 429.121, 631.151 L 406.308, 620.782 z "/>
<path style="fill:rgb(255, 0, 0);fill-opacity:0;fill-rule:evenodd;stroke:rgb(0, 255, 194);stroke-width:1;" d="M 822.467, 754.202 L 847.354, 724.303 L 887.794, 743.832 L 910.953, 754.893 L 894.189, 774.941 L 899.028, 777.36 L 896.09, 780.989 L 897.127, 781.508 L 882.782, 798.617 L 841.65, 778.743 L 850.637, 767.855 L 822.467, 754.202 z "/>
<path style="fill:rgb(0, 255, 0);fill-opacity:0;fill-rule:evenodd;stroke:rgb(0, 255, 194);stroke-width:1;" d="M 195.118, 215.857 L 195.982, 207.388 L 198.92, 201.339 L 203.068, 196.5 L 212.227, 190.452 L 223.115, 186.995 L 228.473, 186.304 L 235.904, 186.304 L 242.99, 187.514 L 249.903, 189.933 L 257.161, 193.908 L 262.865, 199.266 L 265.975, 203.932 L 268.395, 215.857 L 265.284, 225.189 L 258.544, 233.139 L 250.076, 238.151 L 238.669, 241.434 L 221.733, 240.916 L 208.944, 235.904 L 202.895, 231.238 L 196.328, 221.733 L 195.118, 215.857 z "/>
<path style="fill:rgb(0, 0, 255);fill-opacity:0;fill-rule:evenodd;stroke:rgb(0, 255, 194);stroke-width:1;" d="M 58.5872, 782.545 L 71.7218, 749.881 L 72.2402, 748.671 L 81.0542, 750.572 L 87.4487, 735.191 L 95.5714, 715.144 L 128.754, 728.97 L 101.62, 798.617 L 96.6083, 800 L 58.5872, 782.545 z "/>
<path style="fill:rgb(255, 255, 0);fill-opacity:0;fill-rule:evenodd;stroke:rgb(0, 255, 194);stroke-width:1;" d="M 829.38, 114.755 L 851.847, 85.8933 L 873.796, 95.7442 L 879.499, 88.3128 L 926.334, 109.397 L 897.991, 145.69 L 829.38, 114.755 z "/>
<path style="fill:rgb(255, 0, 0);fill-opacity:0;fill-rule:evenodd;stroke:rgb(0, 255, 194);stroke-width:1;" d="M 813.135, 336.315 L 853.575, 287.924 L 899.546, 310.045 L 859.278, 358.436 L 854.094, 356.016 L 841.996, 350.14 L 813.135, 336.315 z "/>
<path style="fill:rgb(0, 255, 0);fill-opacity:0;fill-rule:evenodd;stroke:rgb(0, 255, 194);stroke-width:1;" d="M 692.158, 556.319 L 712.378, 530.914 L 730.525, 508.101 L 731.908, 506.373 L 758.177, 518.471 L 756.794, 520.199 L 791.877, 536.099 L 793.26, 534.543 L 797.753, 536.617 L 778.051, 561.504 L 738.302, 543.357 L 718.427, 568.244 L 692.158, 556.319 z "/>
<path style="fill:rgb(0, 0, 255);fill-opacity:0;fill-rule:evenodd;stroke:rgb(0, 255, 194);stroke-width:1;" d="M 200.302, 90.3867 L 206.697, 62.3893 L 236.595, 76.388 L 225.016, 91.2508 L 234.694, 95.7442 L 227.436, 104.904 L 264.247, 121.668 L 271.506, 112.335 L 281.184, 116.656 L 293.973, 100.41 L 336.66, 120.631 L 328.883, 151.221 L 274.444, 125.297 L 271.506, 128.754 L 215.165, 103.176 L 218.276, 99.2007 L 200.302, 90.3867 z "/>
<path style="fill:rgb(255, 255, 0);fill-opacity:0;fill-rule:evenodd;stroke:rgb(0, 255, 194);stroke-width:1;" d="M 665.543, 273.407 L 685.245, 248.693 L 724.822, 266.839 L 731.216, 258.717 L 756.276, 270.123 L 724.303, 310.218 L 699.417, 298.812 L 705.12, 291.553 L 665.543, 273.407 z "/>
<path style="fill:rgb(255, 0, 0);fill-opacity:0;fill-rule:evenodd;stroke:rgb(0, 255, 194);stroke-width:1;" d="M 845.798, 720.328 L 852.02, 713.588 L 856.513, 716.008 L 872.24, 698.38 L 933.765, 741.931 L 919.594, 759.041 L 910.953, 754.893 L 887.794, 743.832 L 847.354, 724.303 L 849.255, 722.057 L 845.798, 720.328 z "/>
<path style="fill:rgb(0, 255, 0);fill-opacity:0;fill-rule:evenodd;stroke:rgb(0, 255, 194);stroke-width:1;" d="M 353.77, 689.739 L 382.977, 610.585 L 406.308, 620.782 L 429.121, 631.151 L 353.77, 689.739 z "/>
<path style="fill:rgb(0, 0, 255);fill-opacity:0;fill-rule:evenodd;stroke:rgb(0, 255, 194);stroke-width:1;" d="M 707.539, 152.949 L 720.501, 136.531 L 733.809, 142.407 L 758.522, 153.813 L 811.579, 177.835 L 798.617, 194.254 L 746.252, 170.404 L 720.328, 158.652 L 707.539, 152.949 z "/>
<path style="fill:rgb(255, 255, 0);fill-opacity:0;fill-rule:evenodd;stroke:rgb(0, 255, 194);stroke-width:1;" d="M 692.158, 556.319 L 712.378, 530.914 L 730.525, 508.101 L 731.908, 506.373 L 758.177, 518.471 L 756.794, 520.199 L 738.302, 543.357 L 718.427, 568.244 L 692.158, 556.319 z "/>
<path style="fill:rgb(255, 0, 0);fill-opacity:0;fill-rule:evenodd;stroke:rgb(0, 255, 194);stroke-width:1;" d="M 831.108, 383.495 L 850.81, 359.819 L 869.648, 368.805 L 881.573, 354.461 L 902.657, 364.658 L 898.509, 369.497 L 870.858, 402.679 L 831.108, 383.495 z "/>
<path style="fill:rgb(0, 255, 0);fill-opacity:0;fill-rule:evenodd;stroke:rgb(0, 255, 194);stroke-width:1;" d="M 84.165, 447.094 L 99.5463, 387.47 L 125.988, 399.741 L 110.434, 450.897 L 84.165, 447.094 z "/>
<path style="fill:rgb(0, 0, 255);fill-opacity:0;fill-rule:evenodd;stroke:rgb(0, 255, 194);stroke-width:1;" d="M 260.099, 170.577 L 315.057, 192.18 L 285.85, 234.867 L 260.099, 170.577 z "/>
<path style="fill:rgb(255, 255, 0);fill-opacity:0;fill-rule:evenodd;stroke:rgb(0, 255, 194);stroke-width:1;" d="M 202.203, 255.952 L 285.85, 234.867 L 256.643, 277.382 L 202.203, 255.952 z "/>
<path style="fill:rgb(255, 0, 0);fill-opacity:0;fill-rule:evenodd;stroke:rgb(0, 255, 194);stroke-width:1;" d="M 147.937, 234.521 L 177.144, 192.007 L 202.203, 255.952 L 147.937, 234.521 z "/>
<path style="fill:rgb(0, 255, 0);fill-opacity:0;fill-rule:evenodd;stroke:rgb(0, 255, 194);stroke-width:1;" d="M 177.144, 192.007 L 206.524, 149.492 L 260.099, 170.577 L 177.144, 192.007 z "/>
<path style="fill:rgb(0, 0, 255);fill-opacity:0;fill-rule:evenodd;stroke:rgb(0, 255, 194);stroke-width:1;" d="M 731.389, 660.704 L 760.423, 623.547 L 790.149, 636.855 L 775.805, 655.174 L 774.595, 656.902 L 772.348, 655.865 L 758.868, 673.148 L 757.485, 672.456 L 745.906, 667.272 L 731.389, 660.704 z "/>
<path style="fill:rgb(255, 255, 0);fill-opacity:0;fill-rule:evenodd;stroke:rgb(0, 255, 194);stroke-width:1;" d="M 314.366, 783.755 L 335.969, 731.562 L 361.374, 742.795 L 347.894, 760.769 L 344.092, 772.867 L 333.031, 792.05 L 314.366, 783.755 z "/>
<path style="fill:rgb(255, 0, 0);fill-opacity:0;fill-rule:evenodd;stroke:rgb(0, 255, 194);stroke-width:1;" d="M 756.103, 81.7455 L 778.397, 53.2296 L 779.78, 51.5014 L 788.421, 55.4763 L 791.359, 51.5014 L 811.579, 60.4882 L 808.814, 64.1175 L 784.964, 94.7073 L 756.103, 81.7455 z "/>
<path style="fill:rgb(0, 255, 0);fill-opacity:0;fill-rule:evenodd;stroke:rgb(0, 255, 194);stroke-width:1;" d="M 738.302, 543.357 L 756.794, 520.199 L 791.877, 536.099 L 793.26, 534.543 L 797.753, 536.617 L 791.877, 544.048 L 778.051, 561.504 L 738.302, 543.357 z "/>
<path style="fill:rgb(0, 0, 255);fill-opacity:0;fill-rule:evenodd;stroke:rgb(0, 255, 194);stroke-width:1;" d="M 784.964, 94.7073 L 808.814, 64.1175 L 837.848, 77.2521 L 813.999, 107.842 L 784.964, 94.7073 z "/>
<path style="fill:rgb(255, 255, 0);fill-opacity:0;fill-rule:evenodd;stroke:rgb(0, 255, 194);stroke-width:1;" d="M 788.766, 367.25 L 813.135, 338.043 L 840.959, 351.523 L 816.591, 380.73 L 788.766, 367.25 z "/>
<path style="fill:rgb(255, 0, 0);fill-opacity:0;fill-rule:evenodd;stroke:rgb(0, 255, 194);stroke-width:1;" d="M 293.973, 100.41 L 308.317, 82.4368 L 341.326, 98.1638 L 346.338, 100.756 L 340.808, 122.359 L 336.66, 120.631 L 293.973, 100.41 z "/>
<path style="fill:rgb(0, 255, 0);fill-opacity:0;fill-rule:evenodd;stroke:rgb(0, 255, 194);stroke-width:1;" d="M 692.504, 710.132 L 731.389, 660.704 L 745.906, 667.272 L 707.194, 716.699 L 692.504, 710.132 z "/>
<path style="fill:rgb(0, 0, 255);fill-opacity:0;fill-rule:evenodd;stroke:rgb(0, 255, 194);stroke-width:1;" d="M 308.317, 82.4368 L 319.551, 67.7468 L 325.599, 60.661 L 348.758, 70.8576 L 341.326, 98.1638 L 308.317, 82.4368 z "/>
<path style="fill:rgb(255, 255, 0);fill-opacity:0;fill-rule:evenodd;stroke:rgb(0, 255, 194);stroke-width:1;" d="M 749.017, 683.171 L 757.485, 672.456 L 758.868, 673.148 L 813.999, 698.207 L 805.53, 708.922 L 749.017, 683.171 z "/>
<path style="fill:rgb(255, 0, 0);fill-opacity:0;fill-rule:evenodd;stroke:rgb(0, 255, 194);stroke-width:1;" d="M 740.894, 693.714 L 749.017, 683.171 L 805.53, 708.922 L 797.235, 719.464 L 795.852, 718.773 L 740.894, 693.714 z "/>
<path style="fill:rgb(0, 255, 0);fill-opacity:0;fill-rule:evenodd;stroke:rgb(0, 255, 194);stroke-width:1;" d="M 75.5239, 503.262 L 85.0292, 460.747 L 103.867, 469.734 L 90.9052, 509.484 L 75.5239, 503.262 z "/>
<path style="fill:rgb(0, 0, 255);fill-opacity:0;fill-rule:evenodd;stroke:rgb(0, 255, 194);stroke-width:1;" d="M 707.194, 716.699 L 745.906, 667.272 L 757.485, 672.456 L 749.017, 683.171 L 740.894, 693.714 L 733.29, 703.564 L 725.34, 713.588 L 718.773, 722.057 L 707.194, 716.699 z "/>
<path style="fill:rgb(255, 255, 0);fill-opacity:0;fill-rule:evenodd;stroke:rgb(0, 255, 194);stroke-width:1;" d="M 767.509, 665.889 L 774.595, 656.902 L 775.805, 655.174 L 828.689, 679.196 L 820.393, 689.911 L 767.509, 665.889 z "/>
<path style="fill:rgb(255, 0, 0);fill-opacity:0;fill-rule:evenodd;stroke:rgb(0, 255, 194);stroke-width:1;" d="M 194.772, 98.5094 L 197.019, 88.8313 L 200.302, 90.3867 L 199.093, 95.5714 L 215.165, 103.176 L 271.506, 128.754 L 327.673, 155.541 L 328.883, 151.221 L 332.858, 152.949 L 330.266, 161.936 L 194.772, 98.5094 z "/>
<path style="fill:rgb(0, 255, 0);fill-opacity:0;fill-rule:evenodd;stroke:rgb(0, 255, 194);stroke-width:1;" d="M 725.34, 713.588 L 733.29, 703.564 L 788.248, 728.451 L 780.298, 738.475 L 778.743, 737.784 L 725.34, 713.588 z "/>
<path style="fill:rgb(0, 0, 255);fill-opacity:0;fill-rule:evenodd;stroke:rgb(0, 255, 194);stroke-width:1;" d="M 733.29, 703.564 L 740.894, 693.714 L 795.852, 718.773 L 788.248, 728.451 L 733.29, 703.564 z "/>
<path style="fill:rgb(255, 255, 0);fill-opacity:0;fill-rule:evenodd;stroke:rgb(0, 255, 194);stroke-width:1;" d="M 813.999, 107.842 L 837.848, 77.2521 L 840.441, 73.9685 L 855.822, 80.8814 L 851.847, 85.8933 L 829.38, 114.755 L 813.999, 107.842 z "/>
<path style="fill:rgb(255, 0, 0);fill-opacity:0;fill-rule:evenodd;stroke:rgb(0, 255, 194);stroke-width:1;" d="M 868.438, 405.617 L 870.858, 402.679 L 898.509, 369.497 L 911.471, 375.891 L 883.819, 408.9 L 881.4, 412.011 L 868.438, 405.617 z "/>
<path style="fill:rgb(0, 255, 0);fill-opacity:0;fill-rule:evenodd;stroke:rgb(0, 255, 194);stroke-width:1;" d="M 758.868, 673.148 L 772.348, 655.865 L 774.595, 656.902 L 767.509, 665.889 L 820.393, 689.911 L 813.999, 698.207 L 758.868, 673.148 z "/>
<path style="fill:rgb(0, 0, 255);fill-opacity:0;fill-rule:evenodd;stroke:rgb(0, 255, 194);stroke-width:1;" d="M 718.773, 722.057 L 725.34, 713.588 L 778.743, 737.784 L 772.175, 746.252 L 718.773, 722.057 z "/>
<path style="fill:rgb(255, 255, 0);fill-opacity:0;fill-rule:evenodd;stroke:rgb(0, 255, 194);stroke-width:1;" d="M 0, 756.967 L 7.43141, 738.302 L 33.0093, 746.77 L 18.3193, 769.065 L 2.59235, 761.979 L 0, 756.967 z "/>
<path style="fill:rgb(255, 0, 0);fill-opacity:0;fill-rule:evenodd;stroke:rgb(0, 255, 194);stroke-width:1;" d="M 816.591, 380.73 L 840.959, 351.523 L 841.996, 350.14 L 854.094, 356.016 L 850.81, 359.819 L 831.108, 383.495 L 828.689, 386.433 L 816.591, 380.73 z "/>
<path style="fill:rgb(0, 255, 0);fill-opacity:0;fill-rule:evenodd;stroke:rgb(0, 255, 194);stroke-width:1;" d="M 810.888, 765.435 L 820.739, 753.338 L 822.467, 754.202 L 850.637, 767.855 L 841.65, 778.743 L 840.786, 779.78 L 810.888, 765.435 z "/>
<path style="fill:rgb(0, 0, 255);fill-opacity:0;fill-rule:evenodd;stroke:rgb(0, 255, 194);stroke-width:1;" d="M 593.303, 240.743 L 608.684, 221.56 L 626.658, 229.682 L 611.45, 249.039 L 593.303, 240.743 z "/>
<path style="fill:rgb(255, 255, 0);fill-opacity:0;fill-rule:evenodd;stroke:rgb(0, 255, 194);stroke-width:1;" d="M 227.436, 104.904 L 234.694, 95.7442 L 271.506, 112.335 L 264.247, 121.668 L 227.436, 104.904 z "/>
<path style="fill:rgb(255, 0, 0);fill-opacity:0;fill-rule:evenodd;stroke:rgb(0, 255, 194);stroke-width:1;" d="M 791.877, 544.048 L 797.753, 536.617 L 802.074, 531.259 L 823.677, 541.11 L 813.48, 554.072 L 791.877, 544.048 z "/>
<path style="fill:rgb(0, 255, 0);fill-opacity:0;fill-rule:evenodd;stroke:rgb(0, 255, 194);stroke-width:1;" d="M 271.506, 128.754 L 274.444, 125.297 L 328.883, 151.221 L 327.673, 155.541 L 271.506, 128.754 z "/>
<path style="fill:rgb(0, 0, 255);fill-opacity:0;fill-rule:evenodd;stroke:rgb(0, 255, 194);stroke-width:1;" d="M 325.599, 60.661 L 330.611, 54.4394 L 351.005, 63.4262 L 348.758, 70.8576 L 325.599, 60.661 z "/>
<path style="fill:rgb(255, 255, 0);fill-opacity:0;fill-rule:evenodd;stroke:rgb(0, 255, 194);stroke-width:1;" d="M 341.326, 98.1638 L 348.758, 70.8576 L 353.424, 72.9315 L 346.338, 100.756 L 341.326, 98.1638 z "/>
<path style="fill:rgb(255, 0, 0);fill-opacity:0;fill-rule:evenodd;stroke:rgb(0, 255, 194);stroke-width:1;" d="M 328.883, 151.221 L 336.66, 120.631 L 340.808, 122.359 L 332.858, 152.949 L 328.883, 151.221 z "/>
<path style="fill:rgb(0, 255, 0);fill-opacity:0;fill-rule:evenodd;stroke:rgb(0, 255, 194);stroke-width:1;" d="M 197.019, 88.8313 L 203.586, 60.8339 L 206.697, 62.3893 L 200.302, 90.3867 L 197.019, 88.8313 z "/>
<path style="fill:rgb(0, 0, 255);fill-opacity:0;fill-rule:evenodd;stroke:rgb(0, 255, 194);stroke-width:1;" d="M 199.093, 95.5714 L 200.302, 90.3867 L 218.276, 99.2007 L 215.165, 103.176 L 199.093, 95.5714 z "/>
<path style="fill:rgb(255, 255, 0);fill-opacity:0;fill-rule:evenodd;stroke:rgb(0, 255, 194);stroke-width:1;" d="M 873.968, 488.745 L 882.091, 479.24 L 889.004, 482.696 L 880.881, 492.201 L 873.968, 488.745 z "/>
<path style="fill:rgb(255, 0, 0);fill-opacity:0;fill-rule:evenodd;stroke:rgb(0, 255, 194);stroke-width:1;" d="M 351.35, 696.652 L 353.77, 689.739 L 365.867, 690.603 L 359.3, 700.108 L 351.35, 696.652 z "/>
<path style="fill:rgb(0, 255, 0);fill-opacity:0;fill-rule:evenodd;stroke:rgb(0, 255, 194);stroke-width:1;" d="M 225.707, 214.647 L 225.707, 213.091 L 226.572, 211.363 L 227.781, 210.326 L 228.991, 209.808 L 230.892, 209.289 L 232.275, 209.289 L 233.83, 209.635 L 235.04, 209.981 L 236.768, 211.363 L 237.459, 212.573 L 237.632, 213.61 L 237.287, 215.165 L 236.077, 216.893 L 234.003, 217.93 L 232.966, 218.276 L 230.892, 218.276 L 229.51, 218.103 L 227.609, 217.066 L 226.744, 216.375 L 225.707, 214.647 z "/>
<path style="fill:rgb(0, 0, 255);fill-opacity:0;fill-rule:evenodd;stroke:rgb(0, 255, 194);stroke-width:1;" d="M 767.855, 45.6254 L 796.544, 8.98682 L 950.356, 78.4619 L 926.334, 109.397 L 879.499, 88.3128 L 785.483, 45.7982 L 780.989, 51.6742 L 767.855, 45.6254 z "/>
<path style="fill:rgb(255, 255, 0);fill-opacity:0;fill-rule:evenodd;stroke:rgb(0, 255, 194);stroke-width:1;" d="M 518.471, 99.3735 L 539.209, 20.7388 L 589.501, 43.2059 L 652.236, 71.3761 L 602.463, 135.666 L 539.555, 107.496 L 543.53, 102.484 L 518.471, 99.3735 z "/>
<path style="fill:rgb(255, 0, 0);fill-opacity:0;fill-rule:evenodd;stroke:rgb(0, 255, 194);stroke-width:1;" d="M 539.555, 107.496 L 543.53, 102.484 L 550.27, 94.016 L 569.972, 68.4381 L 578.44, 57.5502 L 583.625, 50.8101 L 589.501, 43.2059 L 652.236, 71.3761 L 602.463, 135.666 L 539.555, 107.496 z "/>
<path style="fill:rgb(0, 255, 0);fill-opacity:0;fill-rule:evenodd;stroke:rgb(0, 255, 194);stroke-width:1;" d="M 518.471, 99.3735 L 539.209, 20.7388 L 589.501, 43.2059 L 583.625, 50.8101 L 578.44, 57.5502 L 569.972, 68.4381 L 550.27, 94.016 L 543.53, 102.484 L 518.471, 99.3735 z "/>
<path style="fill:rgb(0, 0, 255);fill-opacity:0;fill-rule:evenodd;stroke:rgb(0, 255, 194);stroke-width:1;" d="M 536.963, 86.9302 L 549.579, 35.0832 L 583.625, 50.8101 L 578.44, 57.5502 L 569.972, 68.4381 L 550.27, 94.016 L 536.963, 86.9302 z "/>
<path style="fill:rgb(255, 255, 0);fill-opacity:0;fill-rule:evenodd;stroke:rgb(0, 255, 194);stroke-width:1;" d="M 757.658, 587.081 L 778.051, 561.504 L 802.938, 572.91 L 824.195, 546.122 L 900.756, 581.205 L 859.106, 633.571 L 757.658, 587.081 z "/>
<path style="fill:rgb(255, 0, 0);fill-opacity:0;fill-rule:evenodd;stroke:rgb(0, 255, 194);stroke-width:1;" d="M 194.772, 98.5094 L 197.019, 88.8313 L 203.586, 60.8339 L 208.944, 37.5027 L 215.857, 8.64118 L 217.93, 0 L 356.362, 62.0436 L 353.424, 72.9315 L 348.931, 90.3867 L 346.338, 100.756 L 340.808, 122.359 L 332.858, 152.949 L 330.266, 161.936 L 194.772, 98.5094 z "/>
<path style="fill:rgb(0, 255, 0);fill-opacity:0;fill-rule:evenodd;stroke:rgb(0, 255, 194);stroke-width:1;" d="M 225.016, 91.2508 L 236.595, 76.388 L 252.149, 56.6861 L 263.556, 42.5146 L 273.061, 46.6623 L 310.045, 63.4262 L 319.551, 67.7468 L 308.317, 82.4368 L 293.973, 100.41 L 281.184, 116.656 L 271.506, 112.335 L 234.694, 95.7442 L 225.016, 91.2508 z "/>
<path style="fill:rgb(0, 0, 255);fill-opacity:0;fill-rule:evenodd;stroke:rgb(0, 255, 194);stroke-width:1;" d="M 229.855, 88.8313 L 262.865, 46.6623 L 314.02, 69.8207 L 281.011, 111.99 L 229.855, 88.8313 z "/>
<path style="fill:rgb(255, 255, 0);fill-opacity:0;fill-rule:evenodd;stroke:rgb(0, 255, 194);stroke-width:1;" d="M 212.227, 38.8853 L 218.622, 10.0238 L 269.086, 33.7006 L 273.407, 28.1702 L 330.611, 54.4394 L 325.599, 60.661 L 319.551, 67.7468 L 310.045, 63.4262 L 317.304, 54.2666 L 280.32, 37.5027 L 273.061, 46.6623 L 263.556, 42.5146 L 252.149, 56.6861 L 212.227, 38.8853 z "/>
<path style="fill:rgb(255, 0, 0);fill-opacity:0;fill-rule:evenodd;stroke:rgb(0, 255, 194);stroke-width:1;" d="M 203.586, 60.8339 L 208.944, 37.5027 L 212.227, 38.8853 L 252.149, 56.6861 L 236.595, 76.388 L 206.697, 62.3893 L 203.586, 60.8339 z "/>
<path style="fill:rgb(0, 255, 0);fill-opacity:0;fill-rule:evenodd;stroke:rgb(0, 255, 194);stroke-width:1;" d="M 215.857, 8.64118 L 217.93, 0 L 356.362, 62.0436 L 353.424, 72.9315 L 348.758, 70.8576 L 351.005, 63.4262 L 330.611, 54.4394 L 273.407, 28.1702 L 220.177, 3.80212 L 218.622, 10.0238 L 215.857, 8.64118 z "/>
<path style="fill:rgb(0, 0, 255);fill-opacity:0;fill-rule:evenodd;stroke:rgb(0, 255, 194);stroke-width:1;" d="M 273.061, 46.6623 L 280.32, 37.5027 L 317.304, 54.2666 L 310.045, 63.4262 L 273.061, 46.6623 z "/>
<path style="fill:rgb(255, 255, 0);fill-opacity:0;fill-rule:evenodd;stroke:rgb(0, 255, 194);stroke-width:1;" d="M 218.622, 10.0238 L 220.177, 3.80212 L 273.407, 28.1702 L 269.086, 33.7006 L 218.622, 10.0238 z "/>
</svg>