<?xml version="1.0" encoding="iso-8859-1" standalone="no"?>
<!DOCTYPE svg PUBLIC "-//W3C//DTD SVG 1.0//EN" "http://www.w3.org/TR/2001/REC-SVG-20010904/DTD/svg10.dtd">
<svg xmlns="http://www.w3.org/2000/svg" width="895" height="800">
<path style="fill:rgb(255, 0, 0);fill-opacity:0;fill-rule:evenodd;stroke:rgb(0, 255, 152);stroke-width:1;" d="M 349.446, 305.351 L 355.72, 300.738 L 360.886, 297.601 L 365.683, 295.572 L 375.646, 292.066 L 379.52, 291.328 L 383.395, 290.221 L 386.531, 288.745 L 390.59, 287.085 L 400.554, 280.258 L 403.137, 277.675 L 407.196, 272.325 L 385.793, 263.284 L 383.395, 266.421 L 371.218, 261.255 L 407.196, 212.362 L 456.273, 233.026 L 686.9, 330.258 L 630.443, 407.565 L 607.38, 397.97 L 574.354, 443.173 L 401.845, 327.122 L 395.572, 335.793 L 349.446, 305.351 z "/>
<path style="fill:rgb(0, 255, 0);fill-opacity:0;fill-rule:evenodd;stroke:rgb(0, 255, 152);stroke-width:1;" d="M 627.491, 490.037 L 737.085, 339.852 L 894.28, 406.089 L 784.686, 556.273 L 627.491, 490.037 z "/>
<path style="fill:rgb(0, 0, 255);fill-opacity:0;fill-rule:evenodd;stroke:rgb(0, 255, 152);stroke-width:1;" d="M 555.72, 609.41 L 579.151, 577.306 L 567.343, 572.325 L 582.103, 551.845 L 583.948, 549.446 L 595.941, 554.428 L 619.373, 522.325 L 673.985, 545.387 L 795.941, 596.679 L 788.93, 606.273 L 810.148, 615.129 L 793.911, 637.454 L 805.351, 642.251 L 788.007, 666.052 L 776.568, 661.07 L 760.148, 683.579 L 738.93, 674.539 L 732.288, 683.764 L 555.72, 609.41 z "/>
<path style="fill:rgb(255, 255, 0);fill-opacity:0;fill-rule:evenodd;stroke:rgb(0, 255, 152);stroke-width:1;" d="M 208.118, 463.1 L 272.325, 375.277 L 388.561, 424.354 L 388.007, 424.908 L 324.354, 511.993 L 208.118, 463.1 z "/>
<path style="fill:rgb(255, 0, 0);fill-opacity:0;fill-rule:evenodd;stroke:rgb(0, 255, 152);stroke-width:1;" d="M 378.782, 521.033 L 434.502, 444.834 L 562.362, 498.708 L 506.458, 574.908 L 378.782, 521.033 z "/>
<path style="fill:rgb(0, 255, 0);fill-opacity:0;fill-rule:evenodd;stroke:rgb(0, 255, 152);stroke-width:1;" d="M 292.066, 348.708 L 331.734, 294.28 L 579.889, 460.886 L 579.889, 461.07 L 574.908, 467.897 L 292.066, 348.708 z "/>
<path style="fill:rgb(0, 0, 255);fill-opacity:0;fill-rule:evenodd;stroke:rgb(0, 255, 152);stroke-width:1;" d="M 439.668, 678.598 L 460.886, 649.815 L 509.779, 670.48 L 640.959, 726.015 L 619.926, 754.797 L 439.668, 678.598 z "/>
<path style="fill:rgb(255, 255, 0);fill-opacity:0;fill-rule:evenodd;stroke:rgb(0, 255, 152);stroke-width:1;" d="M 739.483, 154.428 L 771.402, 111.439 L 804.428, 66.7897 L 861.808, 91.1439 L 845.756, 112.731 L 837.085, 109.041 L 825.646, 124.354 L 834.871, 128.229 L 797.232, 179.151 L 739.483, 154.428 z "/>
<path style="fill:rgb(255, 0, 0);fill-opacity:0;fill-rule:evenodd;stroke:rgb(0, 255, 152);stroke-width:1;" d="M 231.365, 591.144 L 238.192, 581.919 L 259.225, 590.775 L 278.598, 564.207 L 303.875, 574.723 L 396.679, 613.838 L 370.295, 649.815 L 231.365, 591.144 z "/>
<path style="fill:rgb(0, 255, 0);fill-opacity:0;fill-rule:evenodd;stroke:rgb(0, 255, 152);stroke-width:1;" d="M 486.716, 126.384 L 523.063, 98.7085 L 617.528, 138.007 L 585.24, 182.657 L 541.144, 164.207 L 526.753, 158.303 L 535.24, 146.494 L 486.716, 126.384 z "/>
<path style="fill:rgb(0, 0, 255);fill-opacity:0;fill-rule:evenodd;stroke:rgb(0, 255, 152);stroke-width:1;" d="M 611.439, 99.8155 L 643.358, 56.6421 L 640.037, 55.3506 L 656.458, 33.0258 L 677.86, 42.0664 L 692.62, 48.3395 L 676.015, 70.6642 L 715.683, 87.6384 L 683.764, 130.627 L 611.439, 99.8155 z "/>
<path style="fill:rgb(255, 255, 0);fill-opacity:0;fill-rule:evenodd;stroke:rgb(0, 255, 152);stroke-width:1;" d="M 426.384, 173.616 L 486.716, 126.384 L 535.24, 146.494 L 526.753, 158.303 L 541.144, 164.207 L 509.41, 208.118 L 426.384, 173.616 z "/>
<path style="fill:rgb(255, 0, 0);fill-opacity:0;fill-rule:evenodd;stroke:rgb(0, 255, 152);stroke-width:1;" d="M 251.292, 54.428 L 263.1, 54.797 L 273.063, 83.5793 L 294.649, 93.1734 L 308.487, 88.3764 L 323.063, 69.9262 L 340.406, 80.2583 L 342.066, 79.5203 L 384.317, 110.517 L 349.446, 139.483 L 253.506, 99.0775 L 251.292, 54.428 z "/>
<path style="fill:rgb(0, 255, 0);fill-opacity:0;fill-rule:evenodd;stroke:rgb(0, 255, 152);stroke-width:1;" d="M 92.8044, 414.76 L 166.605, 356.827 L 199.815, 371.033 L 149.815, 437.823 L 149.077, 439.114 L 92.8044, 414.76 z "/>
<path style="fill:rgb(0, 0, 255);fill-opacity:0;fill-rule:evenodd;stroke:rgb(0, 255, 152);stroke-width:1;" d="M 793.358, 560.886 L 826.199, 515.683 L 895.387, 544.834 L 878.598, 567.528 L 871.587, 576.568 L 853.137, 585.978 L 793.358, 560.886 z "/>
<path style="fill:rgb(255, 255, 0);fill-opacity:0;fill-rule:evenodd;stroke:rgb(0, 255, 152);stroke-width:1;" d="M 32.6568, 103.69 L 41.1439, 92.0664 L 46.1255, 94.0959 L 46.8635, 92.9889 L 49.262, 94.0959 L 56.6421, 83.9483 L 49.4465, 80.9963 L 60.3321, 66.0517 L 85.0554, 76.3838 L 73.4317, 92.2509 L 82.8413, 96.1255 L 94.4649, 80.4428 L 121.956, 92.0664 L 110.332, 107.749 L 118.635, 111.439 L 130.258, 95.572 L 153.506, 105.351 L 111.07, 138.745 L 90.7749, 130.258 L 103.137, 113.469 L 96.4945, 110.701 L 92.9889, 115.498 L 90.2214, 116.605 L 83.7638, 125.461 L 66.0517, 117.897 L 75.2768, 105.166 L 69.1882, 102.768 L 68.2657, 104.059 L 66.4207, 103.137 L 58.1181, 114.576 L 32.6568, 103.69 z "/>
<path style="fill:rgb(255, 0, 0);fill-opacity:0;fill-rule:evenodd;stroke:rgb(0, 255, 152);stroke-width:1;" d="M 597.417, 245.572 L 621.033, 212.731 L 629.52, 201.107 L 687.454, 225.092 L 655.351, 269.742 L 597.417, 245.572 z "/>
<path style="fill:rgb(0, 255, 0);fill-opacity:0;fill-rule:evenodd;stroke:rgb(0, 255, 152);stroke-width:1;" d="M 509.41, 208.118 L 541.144, 164.207 L 585.24, 182.657 L 599.446, 188.561 L 567.712, 232.472 L 509.41, 208.118 z "/>
<path style="fill:rgb(0, 0, 255);fill-opacity:0;fill-rule:evenodd;stroke:rgb(0, 255, 152);stroke-width:1;" d="M 683.764, 130.627 L 715.683, 87.6384 L 732.841, 94.8339 L 771.402, 111.439 L 739.483, 154.428 L 683.764, 130.627 z "/>
<path style="fill:rgb(255, 255, 0);fill-opacity:0;fill-rule:evenodd;stroke:rgb(0, 255, 152);stroke-width:1;" d="M 188.93, 785.24 L 216.605, 747.417 L 225.092, 750.923 L 230.258, 743.911 L 226.384, 742.251 L 231.55, 735.055 L 267.712, 750.185 L 271.033, 751.661 L 265.498, 759.041 L 264.207, 758.303 L 235.793, 797.048 L 228.229, 793.727 L 223.616, 800 L 188.93, 785.24 z "/>
<path style="fill:rgb(255, 0, 0);fill-opacity:0;fill-rule:evenodd;stroke:rgb(0, 255, 152);stroke-width:1;" d="M 71.5867, 285.978 L 95.203, 267.897 L 106.642, 259.225 L 130.258, 277.122 L 125.277, 280.996 L 127.86, 282.841 L 132.841, 279.151 L 153.137, 294.465 L 142.251, 302.768 L 131.919, 295.018 L 125.83, 299.631 L 135.978, 307.38 L 118.081, 321.033 L 102.952, 309.594 L 90.7749, 300.369 L 79.1513, 291.513 L 71.5867, 285.978 z M 121.956, 287.454 L 130.258, 293.727 L 136.162, 289.299 L 127.86, 282.841 L 121.956, 287.454 z "/>
<path style="fill:rgb(0, 255, 0);fill-opacity:0;fill-rule:evenodd;stroke:rgb(0, 255, 152);stroke-width:1;" d="M 688.007, 226.384 L 720.111, 181.734 L 757.934, 197.601 L 753.875, 203.137 L 755.904, 204.059 L 747.232, 216.052 L 745.203, 215.314 L 739.483, 223.247 L 729.889, 219.188 L 721.956, 230.074 L 731.55, 234.133 L 719.557, 250.923 L 703.69, 244.28 L 709.963, 235.609 L 688.007, 226.384 z "/>
<path style="fill:rgb(0, 0, 255);fill-opacity:0;fill-rule:evenodd;stroke:rgb(0, 255, 152);stroke-width:1;" d="M 732.841, 94.8339 L 765.867, 50.1845 L 804.428, 66.7897 L 771.402, 111.439 L 732.841, 94.8339 z "/>
<path style="fill:rgb(255, 255, 0);fill-opacity:0;fill-rule:evenodd;stroke:rgb(0, 255, 152);stroke-width:1;" d="M 99.0775, 192.804 L 117.897, 178.413 L 123.616, 182.657 L 123.985, 182.288 L 130.074, 186.716 L 134.686, 183.21 L 136.9, 181.55 L 130.812, 177.122 L 131.734, 176.384 L 126.199, 172.14 L 143.173, 159.041 L 161.808, 166.79 L 157.38, 172.509 L 162.915, 176.568 L 166.236, 173.985 L 183.948, 187.269 L 166.052, 201.107 L 159.594, 196.31 L 158.856, 197.048 L 153.875, 193.173 L 146.863, 198.524 L 146.125, 200.554 L 156.642, 208.303 L 139.114, 221.587 L 124.908, 210.886 L 131.365, 206.089 L 130.996, 201.845 L 123.432, 196.125 L 113.653, 203.69 L 101.661, 194.834 L 99.0775, 192.804 z "/>
<path style="fill:rgb(255, 0, 0);fill-opacity:0;fill-rule:evenodd;stroke:rgb(0, 255, 152);stroke-width:1;" d="M 14.9446, 161.808 L 25.4613, 147.417 L 36.3469, 152.03 L 39.8524, 147.232 L 43.3579, 148.708 L 45.203, 146.125 L 42.6199, 145.018 L 45.0185, 141.697 L 33.2103, 136.716 L 41.6974, 125.277 L 67.8967, 136.347 L 68.6347, 136.531 L 70.4797, 133.948 L 99.4465, 146.125 L 96.679, 150 L 94.4649, 151.476 L 92.0664, 150.554 L 86.9004, 157.565 L 84.8708, 158.487 L 72.1402, 153.137 L 66.4207, 161.07 L 75.4613, 164.76 L 72.3247, 169.004 L 69.9262, 170.48 L 68.2657, 169.742 L 64.0221, 175.277 L 57.5646, 179.705 L 14.9446, 161.808 z "/>
<path style="fill:rgb(0, 255, 0);fill-opacity:0;fill-rule:evenodd;stroke:rgb(0, 255, 152);stroke-width:1;" d="M 196.31, 173.063 L 208.487, 156.458 L 210.148, 157.196 L 211.439, 155.166 L 209.963, 154.613 L 214.945, 147.786 L 211.255, 146.125 L 220.111, 133.026 L 242.804, 142.435 L 232.841, 156.089 L 242.251, 159.963 L 252.03, 146.494 L 273.432, 155.535 L 263.838, 168.635 L 260.332, 167.343 L 258.118, 169.926 L 241.882, 192.251 L 223.247, 184.317 L 232.841, 171.033 L 224.723, 167.712 L 214.945, 180.996 L 196.31, 173.063 z "/>
<path style="fill:rgb(0, 0, 255);fill-opacity:0;fill-rule:evenodd;stroke:rgb(0, 255, 152);stroke-width:1;" d="M 55.3506, 230.443 L 73.9852, 216.052 L 81.9188, 221.956 L 83.0258, 221.033 L 86.1624, 223.432 L 92.6199, 218.45 L 89.4834, 216.052 L 90.7749, 215.129 L 82.8413, 209.225 L 101.661, 194.834 L 113.653, 203.69 L 115.129, 204.797 L 112.362, 206.827 L 114.391, 208.487 L 111.993, 210.332 L 132.841, 226.015 L 119.188, 236.531 L 117.343, 235.055 L 113.1, 238.192 L 114.576, 239.299 L 112.546, 240.775 L 111.255, 239.852 L 106.827, 243.173 L 108.672, 244.649 L 97.048, 253.506 L 76.0148, 237.823 L 73.4317, 239.852 L 71.4022, 238.192 L 68.6347, 240.406 L 55.3506, 230.443 z "/>
<path style="fill:rgb(255, 255, 0);fill-opacity:0;fill-rule:evenodd;stroke:rgb(0, 255, 152);stroke-width:1;" d="M 43.9114, 318.45 L 79.1513, 291.513 L 90.7749, 300.369 L 85.4244, 304.428 L 84.5018, 308.303 L 86.7159, 309.963 L 94.6494, 315.867 L 102.952, 309.594 L 118.081, 321.033 L 82.8413, 347.97 L 68.2657, 336.716 L 76.1993, 330.812 L 66.2362, 323.247 L 61.9926, 323.985 L 56.6421, 328.044 L 43.9114, 318.45 z "/>
<path style="fill:rgb(255, 0, 0);fill-opacity:0;fill-rule:evenodd;stroke:rgb(0, 255, 152);stroke-width:1;" d="M 174.908, 592.804 L 207.934, 547.232 L 238.007, 559.779 L 204.797, 605.351 L 174.908, 592.804 z "/>
<path style="fill:rgb(0, 255, 0);fill-opacity:0;fill-rule:evenodd;stroke:rgb(0, 255, 152);stroke-width:1;" d="M 57.0111, 508.856 L 77.6753, 480.258 L 74.3542, 478.782 L 81.5498, 469.004 L 116.052, 483.395 L 113.469, 486.9 L 84.3173, 527.306 L 64.5756, 519.188 L 68.6347, 513.653 L 57.0111, 508.856 z "/>
<path style="fill:rgb(0, 0, 255);fill-opacity:0;fill-rule:evenodd;stroke:rgb(0, 255, 152);stroke-width:1;" d="M 106.089, 258.672 L 129.889, 240.59 L 176.199, 275.646 L 176.937, 276.384 L 153.137, 294.465 L 132.841, 279.151 L 130.258, 277.122 L 106.642, 259.225 L 106.089, 258.672 z "/>
<path style="fill:rgb(255, 255, 0);fill-opacity:0;fill-rule:evenodd;stroke:rgb(0, 255, 152);stroke-width:1;" d="M 129.889, 240.59 L 149.446, 225.646 L 154.428, 229.336 L 158.487, 226.384 L 189.668, 249.815 L 199.815, 257.749 L 176.199, 275.646 L 129.889, 240.59 z "/>
<path style="fill:rgb(255, 0, 0);fill-opacity:0;fill-rule:evenodd;stroke:rgb(0, 255, 152);stroke-width:1;" d="M 147.601, 154.797 L 163.838, 142.251 L 178.967, 148.155 L 183.395, 141.513 L 170.849, 136.716 L 190.959, 121.771 L 220.111, 133.026 L 211.255, 146.125 L 210.701, 147.048 L 202.214, 143.911 L 195.018, 154.797 L 202.214, 157.565 L 192.804, 172.14 L 147.601, 154.797 z "/>
<path style="fill:rgb(0, 255, 0);fill-opacity:0;fill-rule:evenodd;stroke:rgb(0, 255, 152);stroke-width:1;" d="M 140.037, 747.232 L 169.188, 707.196 L 183.026, 695.756 L 201.661, 703.69 L 186.716, 723.985 L 162.915, 756.827 L 140.037, 747.232 z "/>
<path style="fill:rgb(0, 0, 255);fill-opacity:0;fill-rule:evenodd;stroke:rgb(0, 255, 152);stroke-width:1;" d="M 169.373, 767.897 L 201.845, 723.247 L 216.605, 710.701 L 230.258, 716.421 L 221.771, 728.044 L 187.269, 775.461 L 169.373, 767.897 z "/>
<path style="fill:rgb(255, 255, 0);fill-opacity:0;fill-rule:evenodd;stroke:rgb(0, 255, 152);stroke-width:1;" d="M 273.247, 707.011 L 293.542, 679.52 L 329.336, 694.649 L 309.041, 722.325 L 273.247, 707.011 z "/>
<path style="fill:rgb(255, 0, 0);fill-opacity:0;fill-rule:evenodd;stroke:rgb(0, 255, 152);stroke-width:1;" d="M 567.712, 232.472 L 599.446, 188.561 L 629.52, 201.107 L 621.033, 212.731 L 605.535, 206.458 L 592.066, 225.092 L 599.631, 228.229 L 589.852, 241.697 L 567.712, 232.472 z "/>
<path style="fill:rgb(0, 255, 0);fill-opacity:0;fill-rule:evenodd;stroke:rgb(0, 255, 152);stroke-width:1;" d="M 319.188, 784.871 L 352.399, 739.852 L 355.166, 740.959 L 371.956, 748.155 L 338.93, 793.173 L 319.188, 784.871 z "/>
<path style="fill:rgb(0, 0, 255);fill-opacity:0;fill-rule:evenodd;stroke:rgb(0, 255, 152);stroke-width:1;" d="M 162.546, 224.17 L 178.598, 211.808 L 209.041, 235.055 L 212.915, 232.103 L 224.723, 240.959 L 201.292, 258.672 L 199.815, 257.749 L 189.668, 249.815 L 193.173, 247.232 L 162.546, 224.17 z "/>
<path style="fill:rgb(255, 255, 0);fill-opacity:0;fill-rule:evenodd;stroke:rgb(0, 255, 152);stroke-width:1;" d="M 106.827, 713.284 L 116.421, 699.815 L 121.402, 695.018 L 124.539, 696.31 L 130.074, 688.745 L 157.565, 700.185 L 138.376, 726.568 L 106.827, 713.284 z "/>
<path style="fill:rgb(255, 0, 0);fill-opacity:0;fill-rule:evenodd;stroke:rgb(0, 255, 152);stroke-width:1;" d="M 578.413, 59.2251 L 585.055, 50.369 L 597.601, 39.6679 L 597.97, 39.8524 L 624.539, 51.2915 L 615.498, 63.4686 L 599.077, 56.4576 L 592.62, 65.3137 L 578.413, 59.2251 z "/>
<path style="fill:rgb(0, 255, 0);fill-opacity:0;fill-rule:evenodd;stroke:rgb(0, 255, 152);stroke-width:1;" d="M 241.882, 199.077 L 260.517, 173.801 L 261.993, 174.539 L 276.015, 180.443 L 257.38, 205.72 L 241.882, 199.077 z "/>
<path style="fill:rgb(0, 0, 255);fill-opacity:0;fill-rule:evenodd;stroke:rgb(0, 255, 152);stroke-width:1;" d="M 828.413, 219.742 L 837.823, 207.011 L 860.332, 216.421 L 850.923, 229.151 L 828.413, 219.742 z "/>
<path style="fill:rgb(255, 255, 0);fill-opacity:0;fill-rule:evenodd;stroke:rgb(0, 255, 152);stroke-width:1;" d="M 219.004, 316.79 L 240.406, 300 L 241.328, 299.446 L 242.066, 299.631 L 249.262, 294.28 L 253.69, 297.232 L 247.048, 302.952 L 247.601, 304.244 L 234.133, 322.878 L 231.734, 323.432 L 219.004, 318.081 L 219.004, 316.79 z "/>
<path style="fill:rgb(255, 0, 0);fill-opacity:0;fill-rule:evenodd;stroke:rgb(0, 255, 152);stroke-width:1;" d="M 62.9151, 279.336 L 86.5314, 261.439 L 95.203, 267.897 L 71.5867, 285.978 L 62.9151, 279.336 z "/>
<path style="fill:rgb(0, 255, 0);fill-opacity:0;fill-rule:evenodd;stroke:rgb(0, 255, 152);stroke-width:1;" d="M 242.251, 698.155 L 254.982, 690.59 L 265.314, 700.554 L 252.583, 708.118 L 242.251, 698.155 z "/>
<path style="fill:rgb(0, 0, 255);fill-opacity:0;fill-rule:evenodd;stroke:rgb(0, 255, 152);stroke-width:1;" d="M 111.255, 743.911 L 119.926, 732.288 L 128.229, 735.793 L 119.557, 747.417 L 111.255, 743.911 z "/>
<path style="fill:rgb(255, 255, 0);fill-opacity:0;fill-rule:evenodd;stroke:rgb(0, 255, 152);stroke-width:1;" d="M 26.3838, 121.033 L 32.8413, 112.362 L 40.2214, 115.683 L 33.7638, 124.17 L 26.3838, 121.033 z "/>
<path style="fill:rgb(255, 0, 0);fill-opacity:0;fill-rule:evenodd;stroke:rgb(0, 255, 152);stroke-width:1;" d="M 19.1882, 117.712 L 25.6458, 109.225 L 32.8413, 112.362 L 26.3838, 121.033 L 19.1882, 117.712 z "/>
<path style="fill:rgb(0, 255, 0);fill-opacity:0;fill-rule:evenodd;stroke:rgb(0, 255, 152);stroke-width:1;" d="M 1.47601, 477.122 L 20.2952, 466.052 L 42.2509, 475.277 L 46.31, 469.926 L 28.0443, 462.177 L 43.5424, 452.768 L 76.9373, 466.79 L 71.7712, 473.616 L 66.6052, 480.996 L 63.6531, 479.705 L 61.8081, 482.103 L 64.2066, 483.026 L 60.5166, 488.192 L 58.3026, 487.269 L 52.0295, 495.756 L 21.0332, 482.841 L 19.5572, 484.686 L 1.47601, 477.122 z "/>
<path style="fill:rgb(0, 0, 255);fill-opacity:0;fill-rule:evenodd;stroke:rgb(0, 255, 152);stroke-width:1;" d="M 10.5166, 532.472 L 22.6937, 515.867 L 75.8303, 538.192 L 63.8376, 554.797 L 49.8155, 549.077 L 10.5166, 532.472 z "/>
<path style="fill:rgb(255, 255, 0);fill-opacity:0;fill-rule:evenodd;stroke:rgb(0, 255, 152);stroke-width:1;" d="M 0, 549.631 L 9.7786, 536.347 L 41.8819, 549.631 L 41.1439, 550.554 L 47.048, 552.952 L 49.8155, 549.077 L 63.8376, 554.797 L 51.845, 571.402 L 0, 549.631 z "/>
<path style="fill:rgb(255, 0, 0);fill-opacity:0;fill-rule:evenodd;stroke:rgb(0, 255, 152);stroke-width:1;" d="M 9.9631, 148.708 L 25.4613, 128.044 L 35.4244, 132.288 L 24.1697, 147.417 L 19.9262, 153.137 L 9.9631, 148.708 z "/>
<path style="fill:rgb(0, 255, 0);fill-opacity:0;fill-rule:evenodd;stroke:rgb(0, 255, 152);stroke-width:1;" d="M 624.539, 19.1882 L 648.524, 0 L 704.797, 24.1697 L 693.911, 38.9299 L 683.395, 34.5018 L 677.86, 42.0664 L 656.458, 33.0258 L 655.166, 32.2878 L 630.258, 21.7712 L 624.539, 19.1882 z "/>
<path style="fill:rgb(0, 0, 255);fill-opacity:0;fill-rule:evenodd;stroke:rgb(0, 255, 152);stroke-width:1;" d="M 620.664, 34.6863 L 630.258, 21.7712 L 655.166, 32.2878 L 645.572, 45.3875 L 620.664, 34.6863 z "/>
</svg>