<?xml version="1.0" encoding="iso-8859-1" standalone="no"?>
<!DOCTYPE svg PUBLIC "-//W3C//DTD SVG 1.0//EN" "http://www.w3.org/TR/2001/REC-SVG-20010904/DTD/svg10.dtd">
<svg xmlns="http://www.w3.org/2000/svg" width="1081" height="800">
<path style="fill:rgb(255, 0, 0);fill-opacity:0;fill-rule:evenodd;stroke:rgb(255, 0, 224);stroke-width:1;" d="M 907.869, 636.782 L 927.675, 593.988 L 932.803, 595.225 L 970.645, 513.705 L 966.401, 512.644 L 967.286, 510.875 L 1081.17, 541.468 L 1056.41, 594.518 L 1022.46, 667.551 L 907.869, 636.782 z "/>
<path style="fill:rgb(0, 255, 0);fill-opacity:0;fill-rule:evenodd;stroke:rgb(255, 0, 224);stroke-width:1;" d="M 457.118, 343.943 L 493.369, 250.575 L 615.561, 277.984 L 577.542, 375.774 L 577.365, 376.304 L 457.118, 343.943 z "/>
<path style="fill:rgb(0, 0, 255);fill-opacity:0;fill-rule:evenodd;stroke:rgb(255, 0, 224);stroke-width:1;" d="M 351.901, 671.264 L 358.621, 636.428 L 361.627, 625.641 L 366.225, 613.97 L 384.792, 618.214 L 394.518, 593.457 L 399.646, 580.371 L 490.009, 600.707 L 453.581, 694.076 L 434.66, 689.832 L 425.287, 713.528 L 381.609, 703.625 L 390.805, 679.929 L 351.901, 671.264 z "/>
<path style="fill:rgb(255, 255, 0);fill-opacity:0;fill-rule:evenodd;stroke:rgb(255, 0, 224);stroke-width:1;" d="M 496.198, 692.838 L 516.357, 640.141 L 650.575, 674.271 L 621.751, 758.974 L 551.194, 740.937 L 564.81, 710.345 L 496.198, 692.838 z "/>
<path style="fill:rgb(255, 0, 0);fill-opacity:0;fill-rule:evenodd;stroke:rgb(255, 0, 224);stroke-width:1;" d="M 615.208, 387.622 L 678.691, 221.22 L 729.797, 232.538 L 700.265, 309.637 L 697.259, 309.107 L 682.051, 348.895 L 683.82, 349.248 L 664.368, 400.354 L 615.208, 387.622 z "/>
<path style="fill:rgb(0, 255, 0);fill-opacity:0;fill-rule:evenodd;stroke:rgb(255, 0, 224);stroke-width:1;" d="M 779.487, 375.42 L 815.561, 288.771 L 886.649, 305.747 L 906.631, 333.156 L 877.984, 395.225 L 841.733, 385.5 L 839.611, 389.92 L 799.293, 380.195 L 780.725, 375.774 L 779.487, 375.42 z "/>
<path style="fill:rgb(0, 0, 255);fill-opacity:0;fill-rule:evenodd;stroke:rgb(255, 0, 224);stroke-width:1;" d="M 552.431, 546.065 L 604.775, 411.141 L 658.532, 425.995 L 656.764, 431.653 L 653.758, 440.318 L 617.33, 547.48 L 624.226, 548.718 L 619.452, 563.218 L 619.275, 563.572 L 612.555, 561.45 L 552.431, 546.065 z "/>
<path style="fill:rgb(255, 255, 0);fill-opacity:0;fill-rule:evenodd;stroke:rgb(255, 0, 224);stroke-width:1;" d="M 430.239, 415.031 L 447.922, 368.523 L 567.639, 401.415 L 541.468, 470.027 L 513.528, 463.837 L 480.637, 456.587 L 484.35, 446.861 L 487.356, 447.569 L 490.893, 438.55 L 487.71, 437.843 L 491.424, 428.47 L 430.239, 415.031 z "/>
<path style="fill:rgb(255, 0, 0);fill-opacity:0;fill-rule:evenodd;stroke:rgb(255, 0, 224);stroke-width:1;" d="M 306.808, 351.547 L 306.985, 346.419 L 310.168, 342.529 L 314.766, 339.876 L 322.016, 339.699 L 400.354, 360.566 L 360.743, 460.477 L 356.852, 463.66 L 345.889, 464.545 L 341.291, 460.477 L 306.808, 351.547 z "/>
<path style="fill:rgb(0, 255, 0);fill-opacity:0;fill-rule:evenodd;stroke:rgb(255, 0, 224);stroke-width:1;" d="M 875.332, 724.315 L 891.424, 690.716 L 991.158, 718.126 L 952.255, 800 L 917.949, 791.158 L 938.815, 746.95 L 877.984, 730.327 L 880.106, 725.729 L 875.332, 724.315 z "/>
<path style="fill:rgb(0, 0, 255);fill-opacity:0;fill-rule:evenodd;stroke:rgb(255, 0, 224);stroke-width:1;" d="M 852.697, 199.293 L 864.721, 170.999 L 876.746, 143.059 L 896.552, 169.761 L 891.6, 171.883 L 889.655, 174.005 L 896.198, 182.847 L 879.399, 189.92 L 879.045, 192.042 L 882.582, 196.994 L 900.973, 189.036 L 916.18, 209.549 L 897.79, 217.33 L 901.503, 222.281 L 905.217, 220.69 L 906.985, 221.397 L 920.601, 215.561 L 935.809, 235.897 L 922.193, 241.733 L 922.016, 243.678 L 918.479, 245.093 L 922.193, 250.221 L 943.059, 241.202 L 954.2, 256.233 L 932.449, 301.68 L 929.62, 302.741 L 904.156, 268.435 L 916.711, 263.13 L 911.583, 256.057 L 898.851, 261.362 L 886.295, 244.385 L 898.851, 239.08 L 893.546, 231.83 L 880.99, 237.312 L 867.551, 219.275 L 880.283, 213.97 L 876.569, 208.842 L 874.978, 206.897 L 862.423, 212.202 L 852.697, 199.293 z "/>
<path style="fill:rgb(255, 255, 0);fill-opacity:0;fill-rule:evenodd;stroke:rgb(255, 0, 224);stroke-width:1;" d="M 520.424, 629.708 L 536.516, 593.988 L 665.252, 627.586 L 664.898, 628.117 L 649.16, 663.307 L 619.629, 655.526 L 621.927, 650.398 L 553.316, 632.538 L 551.017, 637.666 L 520.424, 629.708 z "/>
<path style="fill:rgb(255, 0, 0);fill-opacity:0;fill-rule:evenodd;stroke:rgb(255, 0, 224);stroke-width:1;" d="M 475.332, 749.248 L 477.454, 739.699 L 496.198, 692.838 L 564.81, 710.345 L 551.194, 740.937 L 540.23, 766.048 L 515.296, 759.505 L 485.234, 751.724 L 475.332, 749.248 z "/>
<path style="fill:rgb(0, 255, 0);fill-opacity:0;fill-rule:evenodd;stroke:rgb(255, 0, 224);stroke-width:1;" d="M 777.011, 96.7286 L 785.146, 93.3687 L 779.31, 85.588 L 820.513, 67.7277 L 850.221, 107.162 L 834.306, 145.004 L 825.111, 142.882 L 824.05, 145.535 L 823.873, 145.712 L 811.494, 129.266 L 804.067, 132.626 L 777.011, 96.7286 z "/>
<path style="fill:rgb(0, 0, 255);fill-opacity:0;fill-rule:evenodd;stroke:rgb(255, 0, 224);stroke-width:1;" d="M 412.378, 461.715 L 430.239, 415.031 L 491.424, 428.47 L 487.71, 437.843 L 484.35, 446.861 L 480.637, 456.587 L 473.563, 475.155 L 470.911, 474.624 L 412.378, 461.715 z "/>
<path style="fill:rgb(255, 255, 0);fill-opacity:0;fill-rule:evenodd;stroke:rgb(255, 0, 224);stroke-width:1;" d="M 292.485, 282.582 L 417.153, 311.052 L 408.665, 329.973 L 292.838, 299.735 L 292.485, 282.582 z "/>
<path style="fill:rgb(255, 0, 0);fill-opacity:0;fill-rule:evenodd;stroke:rgb(255, 0, 224);stroke-width:1;" d="M 678.691, 221.22 L 693.192, 183.378 L 748.718, 195.579 L 734.218, 233.422 L 729.797, 232.538 L 678.691, 221.22 z "/>
<path style="fill:rgb(0, 255, 0);fill-opacity:0;fill-rule:evenodd;stroke:rgb(255, 0, 224);stroke-width:1;" d="M 8.6649, 686.649 L 11.1406, 686.649 L 10.7869, 675.862 L 73.3864, 674.624 L 74.4474, 702.741 L 54.4651, 703.625 L 32.8912, 703.979 L 9.37224, 704.509 L 8.6649, 686.649 z "/>
<path style="fill:rgb(0, 0, 255);fill-opacity:0;fill-rule:evenodd;stroke:rgb(255, 0, 224);stroke-width:1;" d="M 28.4704, 737.754 L 92.4845, 737.577 L 92.6614, 761.804 L 64.3678, 761.804 L 28.6472, 761.981 L 28.4704, 737.754 z "/>
<path style="fill:rgb(255, 255, 0);fill-opacity:0;fill-rule:evenodd;stroke:rgb(255, 0, 224);stroke-width:1;" d="M 849.337, 516.534 L 865.782, 482.228 L 900.088, 491.6 L 883.643, 525.906 L 849.337, 516.534 z "/>
<path style="fill:rgb(255, 0, 0);fill-opacity:0;fill-rule:evenodd;stroke:rgb(255, 0, 224);stroke-width:1;" d="M 646.331, 480.283 L 652.166, 457.118 L 707.692, 465.252 L 701.857, 488.417 L 699.735, 488.064 L 677.277, 484.704 L 664.545, 482.935 L 646.331, 480.283 z "/>
<path style="fill:rgb(0, 255, 0);fill-opacity:0;fill-rule:evenodd;stroke:rgb(255, 0, 224);stroke-width:1;" d="M 405.305, 480.46 L 412.378, 461.715 L 470.911, 474.624 L 463.837, 493.369 L 405.305, 480.46 z "/>
<path style="fill:rgb(0, 0, 255);fill-opacity:0;fill-rule:evenodd;stroke:rgb(255, 0, 224);stroke-width:1;" d="M 0, 421.927 L 36.9584, 416.092 L 44.5623, 444.032 L 7.60389, 449.691 L 0, 421.927 z "/>
<path style="fill:rgb(255, 255, 0);fill-opacity:0;fill-rule:evenodd;stroke:rgb(255, 0, 224);stroke-width:1;" d="M 719.363, 589.036 L 727.851, 553.846 L 744.651, 555.968 L 742.706, 563.749 L 743.059, 564.81 L 756.852, 568.523 L 745.358, 593.103 L 742.529, 595.225 L 719.363, 589.036 z "/>
<path style="fill:rgb(255, 0, 0);fill-opacity:0;fill-rule:evenodd;stroke:rgb(255, 0, 224);stroke-width:1;" d="M 698.497, 175.066 L 704.509, 160.035 L 755.791, 171.706 L 749.779, 186.914 L 698.497, 175.066 z "/>
<path style="fill:rgb(0, 255, 0);fill-opacity:0;fill-rule:evenodd;stroke:rgb(255, 0, 224);stroke-width:1;" d="M 8.84173, 388.329 L 37.6658, 383.908 L 45.0928, 411.671 L 16.4456, 416.269 L 8.84173, 388.329 z "/>
<path style="fill:rgb(0, 0, 255);fill-opacity:0;fill-rule:evenodd;stroke:rgb(255, 0, 224);stroke-width:1;" d="M 890.893, 447.922 L 901.857, 425.464 L 903.448, 425.818 L 911.406, 409.372 L 926.79, 413.793 L 914.766, 438.55 L 916.711, 439.08 L 913.174, 446.508 L 911.583, 445.977 L 909.991, 449.16 L 911.583, 449.691 L 909.814, 453.227 L 890.893, 447.922 z "/>
<path style="fill:rgb(255, 255, 0);fill-opacity:0;fill-rule:evenodd;stroke:rgb(255, 0, 224);stroke-width:1;" d="M 619.452, 563.218 L 624.58, 549.602 L 638.196, 551.724 L 636.251, 559.682 L 647.745, 561.273 L 678.515, 565.694 L 682.935, 566.401 L 680.106, 577.365 L 679.752, 577.896 L 678.515, 578.603 L 619.452, 563.218 z "/>
<path style="fill:rgb(255, 0, 0);fill-opacity:0;fill-rule:evenodd;stroke:rgb(255, 0, 224);stroke-width:1;" d="M 736.693, 512.644 L 740.053, 499.558 L 799.646, 516.004 L 798.232, 521.662 L 777.011, 518.479 L 736.693, 512.644 z "/>
<path style="fill:rgb(0, 255, 0);fill-opacity:0;fill-rule:evenodd;stroke:rgb(255, 0, 224);stroke-width:1;" d="M 506.101, 483.112 L 513.528, 463.837 L 541.468, 470.027 L 534.041, 489.302 L 506.101, 483.112 z "/>
<path style="fill:rgb(0, 0, 255);fill-opacity:0;fill-rule:evenodd;stroke:rgb(255, 0, 224);stroke-width:1;" d="M 727.144, 550.663 L 729.443, 541.468 L 735.102, 542.352 L 769.938, 547.303 L 790.805, 550.309 L 788.506, 559.505 L 727.144, 550.663 z "/>
<path style="fill:rgb(255, 255, 0);fill-opacity:0;fill-rule:evenodd;stroke:rgb(255, 0, 224);stroke-width:1;" d="M 717.595, 118.479 L 725.906, 96.5517 L 732.095, 96.0212 L 747.834, 117.949 L 744.651, 125.376 L 717.595, 118.479 z "/>
<path style="fill:rgb(255, 0, 0);fill-opacity:0;fill-rule:evenodd;stroke:rgb(255, 0, 224);stroke-width:1;" d="M 745.358, 593.103 L 756.852, 568.523 L 762.865, 555.968 L 773.298, 558.798 L 766.048, 574.359 L 755.968, 595.933 L 745.358, 593.103 z "/>
<path style="fill:rgb(0, 255, 0);fill-opacity:0;fill-rule:evenodd;stroke:rgb(255, 0, 224);stroke-width:1;" d="M 809.903, 612.202 L 810.433, 610.61 L 816.092, 598.939 L 845.623, 606.897 L 839.257, 620.159 L 809.903, 612.202 z "/>
<path style="fill:rgb(0, 0, 255);fill-opacity:0;fill-rule:evenodd;stroke:rgb(255, 0, 224);stroke-width:1;" d="M 844.032, 527.675 L 849.337, 516.534 L 883.643, 525.906 L 878.338, 537.047 L 844.032, 527.675 z "/>
<path style="fill:rgb(255, 255, 0);fill-opacity:0;fill-rule:evenodd;stroke:rgb(255, 0, 224);stroke-width:1;" d="M 734.394, 522.37 L 736.693, 512.644 L 777.011, 518.479 L 776.835, 519.363 L 780.018, 521.309 L 779.487, 523.431 L 788.329, 524.668 L 787.091, 529.62 L 775.597, 527.851 L 776.127, 525.906 L 758.621, 523.431 L 758.09, 525.906 L 739.876, 523.254 L 734.394, 522.37 z "/>
<path style="fill:rgb(255, 0, 0);fill-opacity:0;fill-rule:evenodd;stroke:rgb(255, 0, 224);stroke-width:1;" d="M 727.144, 272.149 L 729.443, 266.844 L 749.956, 271.618 L 770.999, 276.569 L 768.877, 282.228 L 770.822, 283.643 L 769.938, 285.765 L 767.286, 286.472 L 766.932, 287.179 L 755.438, 284.527 L 754.023, 284.881 L 749.956, 283.996 L 749.602, 282.405 L 736.87, 279.399 L 738.638, 274.801 L 727.144, 272.149 z "/>
<path style="fill:rgb(0, 255, 0);fill-opacity:0;fill-rule:evenodd;stroke:rgb(255, 0, 224);stroke-width:1;" d="M 691.6, 369.054 L 694.96, 361.273 L 708.93, 364.633 L 709.284, 363.749 L 710.875, 364.103 L 732.095, 369.408 L 727.144, 381.256 L 704.332, 375.597 L 705.57, 372.414 L 691.6, 369.054 z "/>
<path style="fill:rgb(0, 0, 255);fill-opacity:0;fill-rule:evenodd;stroke:rgb(255, 0, 224);stroke-width:1;" d="M 763.218, 409.726 L 767.462, 400.531 L 775.066, 402.476 L 774.359, 403.714 L 779.31, 405.128 L 784.792, 393.457 L 791.512, 395.225 L 786.03, 406.897 L 787.268, 407.25 L 785.323, 411.141 L 779.134, 424.226 L 766.401, 420.69 L 770.645, 411.671 L 763.218, 409.726 z "/>
<path style="fill:rgb(255, 255, 0);fill-opacity:0;fill-rule:evenodd;stroke:rgb(255, 0, 224);stroke-width:1;" d="M 824.403, 264.368 L 832.361, 245.27 L 843.501, 247.569 L 850.575, 257.118 L 845.27, 269.496 L 824.403, 264.368 z "/>
<path style="fill:rgb(255, 0, 0);fill-opacity:0;fill-rule:evenodd;stroke:rgb(255, 0, 224);stroke-width:1;" d="M 793.988, 502.564 L 800, 489.302 L 807.25, 473.74 L 819.098, 476.923 L 808.488, 499.735 L 807.25, 499.381 L 804.598, 505.393 L 793.988, 502.564 z "/>
<path style="fill:rgb(0, 255, 0);fill-opacity:0;fill-rule:evenodd;stroke:rgb(255, 0, 224);stroke-width:1;" d="M 758.09, 180.018 L 761.627, 171.176 L 763.926, 171.706 L 776.481, 174.713 L 779.841, 175.42 L 792.927, 178.603 L 801.592, 190.274 L 772.767, 183.554 L 758.09, 180.018 z "/>
<path style="fill:rgb(0, 0, 255);fill-opacity:0;fill-rule:evenodd;stroke:rgb(255, 0, 224);stroke-width:1;" d="M 79.2219, 729.089 L 79.5756, 714.943 L 104.332, 715.473 L 103.802, 729.62 L 79.2219, 729.089 z "/>
<path style="fill:rgb(255, 255, 0);fill-opacity:0;fill-rule:evenodd;stroke:rgb(255, 0, 224);stroke-width:1;" d="M 839.08, 291.6 L 843.148, 282.051 L 873.033, 289.478 L 872.325, 291.247 L 876.216, 292.131 L 872.856, 300.088 L 839.08, 291.6 z "/>
<path style="fill:rgb(255, 0, 0);fill-opacity:0;fill-rule:evenodd;stroke:rgb(255, 0, 224);stroke-width:1;" d="M 735.102, 542.352 L 737.401, 532.98 L 765.34, 536.87 L 773.298, 538.108 L 772.591, 540.584 L 771.53, 540.407 L 769.938, 547.303 L 735.102, 542.352 z "/>
<path style="fill:rgb(0, 255, 0);fill-opacity:0;fill-rule:evenodd;stroke:rgb(255, 0, 224);stroke-width:1;" d="M 193.103, 731.388 L 193.103, 722.016 L 229.355, 722.016 L 229.355, 731.388 L 193.103, 731.388 z "/>
<path style="fill:rgb(0, 0, 255);fill-opacity:0;fill-rule:evenodd;stroke:rgb(255, 0, 224);stroke-width:1;" d="M 641.202, 491.6 L 643.855, 481.167 L 664.191, 484.173 L 664.545, 482.935 L 677.277, 484.704 L 675.332, 492.131 L 662.599, 490.363 L 661.538, 494.43 L 641.202, 491.6 z "/>
<path style="fill:rgb(255, 255, 0);fill-opacity:0;fill-rule:evenodd;stroke:rgb(255, 0, 224);stroke-width:1;" d="M 798.585, 607.427 L 809.019, 585.5 L 815.031, 587.091 L 816.446, 583.731 L 822.458, 585.323 L 816.092, 598.939 L 810.433, 610.61 L 798.585, 607.427 z "/>
<path style="fill:rgb(255, 0, 0);fill-opacity:0;fill-rule:evenodd;stroke:rgb(255, 0, 224);stroke-width:1;" d="M 737.401, 532.98 L 739.876, 523.254 L 758.09, 525.906 L 767.816, 527.144 L 767.286, 528.912 L 771.53, 529.62 L 770.115, 535.632 L 765.871, 534.925 L 765.34, 536.87 L 737.401, 532.98 z "/>
<path style="fill:rgb(0, 255, 0);fill-opacity:0;fill-rule:evenodd;stroke:rgb(255, 0, 224);stroke-width:1;" d="M 689.302, 380.725 L 692.661, 372.767 L 704.332, 375.597 L 727.144, 381.256 L 723.784, 389.036 L 696.375, 382.317 L 689.302, 380.725 z "/>
<path style="fill:rgb(0, 0, 255);fill-opacity:0;fill-rule:evenodd;stroke:rgb(255, 0, 224);stroke-width:1;" d="M 766.755, 598.939 L 776.835, 577.365 L 777.188, 576.835 L 782.67, 578.249 L 784.085, 575.066 L 789.744, 576.658 L 788.329, 579.841 L 777.896, 601.945 L 766.755, 598.939 z "/>
<path style="fill:rgb(255, 255, 0);fill-opacity:0;fill-rule:evenodd;stroke:rgb(255, 0, 224);stroke-width:1;" d="M 788.152, 426.702 L 798.762, 404.598 L 801.061, 399.646 L 809.903, 401.945 L 803.183, 416.092 L 804.598, 416.446 L 798.408, 429.531 L 788.152, 426.702 z "/>
<path style="fill:rgb(255, 0, 0);fill-opacity:0;fill-rule:evenodd;stroke:rgb(255, 0, 224);stroke-width:1;" d="M 818.391, 435.013 L 824.58, 421.927 L 825.818, 422.281 L 833.245, 406.72 L 841.556, 409.019 L 827.94, 437.666 L 818.391, 435.013 z "/>
<path style="fill:rgb(0, 255, 0);fill-opacity:0;fill-rule:evenodd;stroke:rgb(255, 0, 224);stroke-width:1;" d="M 657.825, 519.717 L 660.124, 510.875 L 690.716, 515.119 L 688.594, 524.138 L 657.825, 519.717 z "/>
<path style="fill:rgb(0, 0, 255);fill-opacity:0;fill-rule:evenodd;stroke:rgb(255, 0, 224);stroke-width:1;" d="M 777.896, 601.945 L 788.329, 579.841 L 793.28, 581.079 L 794.872, 577.896 L 800.354, 579.31 L 798.762, 582.67 L 788.329, 604.775 L 777.896, 601.945 z "/>
<path style="fill:rgb(255, 255, 0);fill-opacity:0;fill-rule:evenodd;stroke:rgb(255, 0, 224);stroke-width:1;" d="M 798.408, 429.531 L 804.598, 416.446 L 805.836, 416.799 L 811.671, 404.598 L 820.866, 407.073 L 808.842, 432.361 L 798.408, 429.531 z "/>
<path style="fill:rgb(255, 0, 0);fill-opacity:0;fill-rule:evenodd;stroke:rgb(255, 0, 224);stroke-width:1;" d="M 673.21, 451.813 L 674.801, 444.385 L 694.43, 446.861 L 710.698, 448.806 L 709.107, 456.41 L 673.21, 451.813 z "/>
<path style="fill:rgb(0, 255, 0);fill-opacity:0;fill-rule:evenodd;stroke:rgb(255, 0, 224);stroke-width:1;" d="M 737.224, 293.899 L 741.291, 283.82 L 766.225, 290.009 L 765.871, 290.716 L 767.109, 292.131 L 766.225, 294.253 L 763.572, 295.668 L 761.804, 299.912 L 737.224, 293.899 z "/>
<path style="fill:rgb(0, 0, 255);fill-opacity:0;fill-rule:evenodd;stroke:rgb(255, 0, 224);stroke-width:1;" d="M 752.431, 227.233 L 754.907, 221.397 L 763.395, 223.519 L 790.274, 229.708 L 787.091, 237.666 L 765.871, 232.714 L 766.755, 230.592 L 752.431, 227.233 z "/>
<path style="fill:rgb(255, 255, 0);fill-opacity:0;fill-rule:evenodd;stroke:rgb(255, 0, 224);stroke-width:1;" d="M 769.584, 191.335 L 772.767, 183.554 L 801.592, 190.274 L 804.067, 195.756 L 802.829, 199.116 L 775.95, 192.75 L 769.584, 191.335 z "/>
<path style="fill:rgb(255, 0, 0);fill-opacity:0;fill-rule:evenodd;stroke:rgb(255, 0, 224);stroke-width:1;" d="M 788.329, 604.775 L 798.762, 582.67 L 803.89, 584.085 L 805.305, 581.079 L 810.433, 582.493 L 809.019, 585.5 L 798.585, 607.427 L 788.329, 604.775 z "/>
<path style="fill:rgb(0, 255, 0);fill-opacity:0;fill-rule:evenodd;stroke:rgb(255, 0, 224);stroke-width:1;" d="M 655.703, 528.205 L 657.825, 519.717 L 688.594, 524.138 L 686.472, 532.626 L 655.703, 528.205 z "/>
<path style="fill:rgb(0, 0, 255);fill-opacity:0;fill-rule:evenodd;stroke:rgb(255, 0, 224);stroke-width:1;" d="M 649.691, 553.139 L 651.813, 544.651 L 682.582, 548.895 L 680.46, 557.383 L 649.691, 553.139 z "/>
<path style="fill:rgb(255, 255, 0);fill-opacity:0;fill-rule:evenodd;stroke:rgb(255, 0, 224);stroke-width:1;" d="M 843.148, 282.051 L 847.392, 272.502 L 865.429, 276.923 L 873.74, 287.887 L 873.033, 289.478 L 843.148, 282.051 z "/>
<path style="fill:rgb(255, 0, 0);fill-opacity:0;fill-rule:evenodd;stroke:rgb(255, 0, 224);stroke-width:1;" d="M 756.145, 477.63 L 763.926, 461.185 L 774.889, 464.014 L 763.395, 488.594 L 756.145, 486.826 L 760.035, 478.691 L 756.145, 477.63 z "/>
<path style="fill:rgb(0, 255, 0);fill-opacity:0;fill-rule:evenodd;stroke:rgb(255, 0, 224);stroke-width:1;" d="M 763.395, 488.594 L 774.889, 464.014 L 785.853, 467.02 L 778.249, 483.466 L 773.828, 482.228 L 770.115, 490.539 L 763.395, 488.594 z "/>
<path style="fill:rgb(0, 0, 255);fill-opacity:0;fill-rule:evenodd;stroke:rgb(255, 0, 224);stroke-width:1;" d="M 762.157, 215.031 L 765.34, 207.25 L 769.584, 208.134 L 796.463, 214.5 L 793.28, 222.281 L 766.578, 215.915 L 762.157, 215.031 z "/>
<path style="fill:rgb(255, 255, 0);fill-opacity:0;fill-rule:evenodd;stroke:rgb(255, 0, 224);stroke-width:1;" d="M 692.661, 391.158 L 696.375, 382.317 L 723.784, 389.036 L 720.071, 397.878 L 692.661, 391.158 z "/>
<path style="fill:rgb(255, 0, 0);fill-opacity:0;fill-rule:evenodd;stroke:rgb(255, 0, 224);stroke-width:1;" d="M 755.968, 595.933 L 766.048, 574.359 L 776.835, 577.365 L 766.755, 598.939 L 755.968, 595.933 z "/>
<path style="fill:rgb(0, 255, 0);fill-opacity:0;fill-rule:evenodd;stroke:rgb(255, 0, 224);stroke-width:1;" d="M 808.842, 432.361 L 820.866, 407.073 L 829.531, 409.372 L 823.519, 421.751 L 824.58, 421.927 L 818.391, 435.013 L 808.842, 432.361 z "/>
<path style="fill:rgb(0, 0, 255);fill-opacity:0;fill-rule:evenodd;stroke:rgb(255, 0, 224);stroke-width:1;" d="M 647.745, 561.273 L 649.691, 553.139 L 680.46, 557.383 L 678.515, 565.694 L 647.745, 561.273 z "/>
<path style="fill:rgb(255, 255, 0);fill-opacity:0;fill-rule:evenodd;stroke:rgb(255, 0, 224);stroke-width:1;" d="M 651.813, 544.651 L 653.758, 536.34 L 684.527, 540.76 L 682.582, 548.895 L 651.813, 544.651 z "/>
<path style="fill:rgb(255, 0, 0);fill-opacity:0;fill-rule:evenodd;stroke:rgb(255, 0, 224);stroke-width:1;" d="M 653.758, 536.34 L 655.703, 528.205 L 686.472, 532.626 L 684.527, 540.76 L 653.758, 536.34 z "/>
<path style="fill:rgb(0, 255, 0);fill-opacity:0;fill-rule:evenodd;stroke:rgb(255, 0, 224);stroke-width:1;" d="M 808.488, 499.735 L 819.098, 476.923 L 830.239, 479.929 L 822.989, 495.491 L 819.098, 494.43 L 815.915, 501.68 L 808.488, 499.735 z "/>
<path style="fill:rgb(0, 0, 255);fill-opacity:0;fill-rule:evenodd;stroke:rgb(255, 0, 224);stroke-width:1;" d="M 720.424, 323.784 L 723.784, 315.827 L 752.078, 322.9 L 748.541, 330.681 L 720.424, 323.784 z "/>
<path style="fill:rgb(255, 255, 0);fill-opacity:0;fill-rule:evenodd;stroke:rgb(255, 0, 224);stroke-width:1;" d="M 730.15, 300.973 L 732.803, 294.783 L 736.34, 295.668 L 737.224, 293.899 L 761.804, 299.912 L 758.267, 307.869 L 730.15, 300.973 z "/>
<path style="fill:rgb(255, 0, 0);fill-opacity:0;fill-rule:evenodd;stroke:rgb(255, 0, 224);stroke-width:1;" d="M 778.249, 483.466 L 785.853, 467.02 L 796.817, 470.027 L 789.036, 486.472 L 786.737, 485.765 L 783.201, 493.722 L 778.603, 492.485 L 782.14, 484.527 L 778.249, 483.466 z "/>
<path style="fill:rgb(0, 255, 0);fill-opacity:0;fill-rule:evenodd;stroke:rgb(255, 0, 224);stroke-width:1;" d="M 717.241, 331.565 L 720.424, 323.784 L 748.541, 330.681 L 745.358, 338.462 L 723.961, 333.156 L 717.241, 331.565 z "/>
<path style="fill:rgb(0, 0, 255);fill-opacity:0;fill-rule:evenodd;stroke:rgb(255, 0, 224);stroke-width:1;" d="M 772.591, 200.884 L 775.95, 192.75 L 802.829, 199.116 L 799.469, 207.25 L 772.591, 200.884 z "/>
<path style="fill:rgb(255, 255, 0);fill-opacity:0;fill-rule:evenodd;stroke:rgb(255, 0, 224);stroke-width:1;" d="M 689.302, 398.939 L 692.661, 391.158 L 720.071, 397.878 L 716.711, 405.659 L 689.302, 398.939 z "/>
<path style="fill:rgb(255, 0, 0);fill-opacity:0;fill-rule:evenodd;stroke:rgb(255, 0, 224);stroke-width:1;" d="M 788.152, 495.137 L 791.866, 487.179 L 789.036, 486.472 L 796.817, 470.027 L 807.781, 472.856 L 807.25, 473.74 L 800, 489.302 L 795.402, 488.064 L 791.689, 496.021 L 788.152, 495.137 z "/>
<path style="fill:rgb(0, 255, 0);fill-opacity:0;fill-rule:evenodd;stroke:rgb(255, 0, 224);stroke-width:1;" d="M 745.004, 474.624 L 752.608, 458.179 L 763.926, 461.185 L 756.145, 477.63 L 754.2, 481.874 L 749.425, 480.637 L 751.547, 476.393 L 745.004, 474.624 z "/>
<path style="fill:rgb(0, 0, 255);fill-opacity:0;fill-rule:evenodd;stroke:rgb(255, 0, 224);stroke-width:1;" d="M 686.118, 406.72 L 689.302, 398.939 L 716.711, 405.659 L 713.351, 413.439 L 686.118, 406.72 z "/>
<path style="fill:rgb(255, 255, 0);fill-opacity:0;fill-rule:evenodd;stroke:rgb(255, 0, 224);stroke-width:1;" d="M 777.011, 384.615 L 780.725, 375.774 L 799.293, 380.195 L 793.634, 393.988 L 784.439, 391.689 L 786.384, 386.914 L 777.011, 384.615 z "/>
<path style="fill:rgb(255, 0, 0);fill-opacity:0;fill-rule:evenodd;stroke:rgb(255, 0, 224);stroke-width:1;" d="M 834.483, 498.497 L 842.087, 481.874 L 854.465, 485.234 L 846.684, 501.857 L 834.483, 498.497 z "/>
<path style="fill:rgb(0, 255, 0);fill-opacity:0;fill-rule:evenodd;stroke:rgb(255, 0, 224);stroke-width:1;" d="M 726.967, 308.4 L 730.15, 300.973 L 758.267, 307.869 L 755.261, 315.296 L 730.858, 309.284 L 726.967, 308.4 z "/>
<path style="fill:rgb(0, 0, 255);fill-opacity:0;fill-rule:evenodd;stroke:rgb(255, 0, 224);stroke-width:1;" d="M 667.551, 402.829 L 673.563, 387.091 L 686.826, 390.097 L 683.996, 397.347 L 680.813, 405.836 L 667.551, 402.829 z "/>
<path style="fill:rgb(255, 255, 0);fill-opacity:0;fill-rule:evenodd;stroke:rgb(255, 0, 224);stroke-width:1;" d="M 674.801, 494.43 L 675.332, 492.131 L 677.277, 484.704 L 699.735, 488.064 L 697.259, 497.79 L 674.801, 494.43 z "/>
<path style="fill:rgb(255, 0, 0);fill-opacity:0;fill-rule:evenodd;stroke:rgb(255, 0, 224);stroke-width:1;" d="M 709.461, 355.084 L 712.821, 347.303 L 717.418, 348.541 L 738.815, 353.846 L 735.455, 361.45 L 714.235, 356.145 L 709.461, 355.084 z "/>
<path style="fill:rgb(0, 255, 0);fill-opacity:0;fill-rule:evenodd;stroke:rgb(255, 0, 224);stroke-width:1;" d="M 763.395, 223.519 L 766.578, 215.915 L 793.28, 222.281 L 790.274, 229.708 L 763.395, 223.519 z "/>
<path style="fill:rgb(0, 0, 255);fill-opacity:0;fill-rule:evenodd;stroke:rgb(255, 0, 224);stroke-width:1;" d="M 723.784, 315.827 L 725.199, 312.821 L 729.089, 313.705 L 730.858, 309.284 L 755.261, 315.296 L 752.078, 322.9 L 723.784, 315.827 z "/>
<path style="fill:rgb(255, 255, 0);fill-opacity:0;fill-rule:evenodd;stroke:rgb(255, 0, 224);stroke-width:1;" d="M 769.584, 208.134 L 772.591, 200.884 L 799.469, 207.25 L 796.463, 214.5 L 769.584, 208.134 z "/>
<path style="fill:rgb(255, 0, 0);fill-opacity:0;fill-rule:evenodd;stroke:rgb(255, 0, 224);stroke-width:1;" d="M 822.989, 495.491 L 830.239, 479.929 L 830.769, 478.868 L 842.087, 481.874 L 834.483, 498.497 L 822.989, 495.491 z "/>
<path style="fill:rgb(0, 255, 0);fill-opacity:0;fill-rule:evenodd;stroke:rgb(255, 0, 224);stroke-width:1;" d="M 779.134, 424.226 L 785.323, 411.141 L 786.561, 411.494 L 790.981, 402.476 L 798.762, 404.598 L 788.152, 426.702 L 779.134, 424.226 z "/>
<path style="fill:rgb(0, 0, 255);fill-opacity:0;fill-rule:evenodd;stroke:rgb(255, 0, 224);stroke-width:1;" d="M 763.926, 171.706 L 767.462, 162.865 L 777.719, 158.444 L 784.792, 167.816 L 776.481, 174.713 L 763.926, 171.706 z "/>
<path style="fill:rgb(255, 255, 0);fill-opacity:0;fill-rule:evenodd;stroke:rgb(255, 0, 224);stroke-width:1;" d="M 683.289, 441.91 L 684.35, 437.489 L 712.467, 441.026 L 710.698, 448.806 L 694.43, 446.861 L 694.96, 444.209 L 685.057, 442.971 L 685.234, 442.087 L 683.289, 441.91 z "/>
<path style="fill:rgb(255, 0, 0);fill-opacity:0;fill-rule:evenodd;stroke:rgb(255, 0, 224);stroke-width:1;" d="M 710.875, 364.103 L 714.235, 356.145 L 735.455, 361.45 L 732.095, 369.408 L 710.875, 364.103 z "/>
<path style="fill:rgb(0, 255, 0);fill-opacity:0;fill-rule:evenodd;stroke:rgb(255, 0, 224);stroke-width:1;" d="M 762.511, 240.672 L 765.871, 232.714 L 787.091, 237.666 L 783.731, 245.623 L 762.511, 240.672 z "/>
<path style="fill:rgb(0, 0, 255);fill-opacity:0;fill-rule:evenodd;stroke:rgb(255, 0, 224);stroke-width:1;" d="M 720.601, 341.114 L 723.961, 333.156 L 745.358, 338.462 L 741.998, 346.242 L 720.601, 341.114 z "/>
<path style="fill:rgb(255, 255, 0);fill-opacity:0;fill-rule:evenodd;stroke:rgb(255, 0, 224);stroke-width:1;" d="M 749.956, 271.618 L 753.139, 263.837 L 774.359, 268.789 L 770.999, 276.569 L 749.956, 271.618 z "/>
<path style="fill:rgb(255, 0, 0);fill-opacity:0;fill-rule:evenodd;stroke:rgb(255, 0, 224);stroke-width:1;" d="M 756.145, 256.233 L 759.328, 248.453 L 780.548, 253.404 L 777.365, 261.185 L 756.145, 256.233 z "/>
<path style="fill:rgb(0, 255, 0);fill-opacity:0;fill-rule:evenodd;stroke:rgb(255, 0, 224);stroke-width:1;" d="M 653.758, 440.318 L 656.764, 431.653 L 676.569, 435.013 L 674.271, 443.501 L 653.758, 440.318 z "/>
<path style="fill:rgb(0, 0, 255);fill-opacity:0;fill-rule:evenodd;stroke:rgb(255, 0, 224);stroke-width:1;" d="M 15.3846, 363.218 L 24.7569, 361.45 L 30.7692, 379.664 L 23.6958, 381.079 L 21.397, 381.432 L 15.3846, 363.218 z "/>
<path style="fill:rgb(255, 255, 0);fill-opacity:0;fill-rule:evenodd;stroke:rgb(255, 0, 224);stroke-width:1;" d="M 759.328, 248.453 L 762.511, 240.672 L 783.731, 245.623 L 780.548, 253.404 L 759.328, 248.453 z "/>
<path style="fill:rgb(255, 0, 0);fill-opacity:0;fill-rule:evenodd;stroke:rgb(255, 0, 224);stroke-width:1;" d="M 717.418, 348.541 L 720.601, 341.114 L 741.998, 346.242 L 738.815, 353.846 L 717.418, 348.541 z "/>
<path style="fill:rgb(0, 255, 0);fill-opacity:0;fill-rule:evenodd;stroke:rgb(255, 0, 224);stroke-width:1;" d="M 753.139, 263.837 L 756.145, 256.233 L 777.365, 261.185 L 774.359, 268.789 L 753.139, 263.837 z "/>
<path style="fill:rgb(0, 0, 255);fill-opacity:0;fill-rule:evenodd;stroke:rgb(255, 0, 224);stroke-width:1;" d="M 797.701, 669.85 L 801.415, 661.715 L 820.69, 667.02 L 816.976, 674.978 L 797.701, 669.85 z "/>
<path style="fill:rgb(255, 255, 0);fill-opacity:0;fill-rule:evenodd;stroke:rgb(255, 0, 224);stroke-width:1;" d="M 387.445, 591.689 L 392.396, 578.78 L 399.646, 580.371 L 394.518, 593.457 L 387.445, 591.689 z "/>
<path style="fill:rgb(255, 0, 0);fill-opacity:0;fill-rule:evenodd;stroke:rgb(255, 0, 224);stroke-width:1;" d="M 772.06, 390.097 L 772.237, 389.744 L 774.536, 384.085 L 777.011, 384.615 L 786.384, 386.914 L 784.439, 391.689 L 783.908, 392.927 L 772.06, 390.097 z "/>
<path style="fill:rgb(0, 255, 0);fill-opacity:0;fill-rule:evenodd;stroke:rgb(255, 0, 224);stroke-width:1;" d="M 776.481, 174.713 L 784.792, 167.816 L 792.927, 178.603 L 779.841, 175.42 L 776.481, 174.713 z "/>
<path style="fill:rgb(0, 0, 255);fill-opacity:0;fill-rule:evenodd;stroke:rgb(255, 0, 224);stroke-width:1;" d="M 271.618, 22.8117 L 282.582, 22.2812 L 282.051, 16.7993 L 323.961, 14.6773 L 339.699, 13.7931 L 444.209, 8.31123 L 459.416, 6.01238 L 499.912, 3.89036 L 499.558, 0.884173 L 515.473, 0.176835 L 519.01, 39.0805 L 515.473, 39.2573 L 516.888, 54.4651 L 461.362, 196.286 L 445.093, 238.373 L 399.646, 227.763 L 404.067, 216.622 L 286.295, 220.866 L 284.35, 190.451 L 289.302, 190.274 L 283.996, 131.034 L 281.344, 131.211 L 271.618, 22.8117 z "/>
<path style="fill:rgb(255, 255, 0);fill-opacity:0;fill-rule:evenodd;stroke:rgb(255, 0, 224);stroke-width:1;" d="M 744.651, 51.4589 L 763.042, 3.53669 L 771.353, 0 L 820.513, 67.1972 L 771.353, 87.8868 L 744.651, 51.4589 z "/>
</svg>