<?xml version="1.0" encoding="iso-8859-1" standalone="no"?>
<!DOCTYPE svg PUBLIC "-//W3C//DTD SVG 1.0//EN" "http://www.w3.org/TR/2001/REC-SVG-20010904/DTD/svg10.dtd">
<svg xmlns="http://www.w3.org/2000/svg" width="1060" height="800">
<path style="fill:rgb(255, 0, 0);fill-opacity:0;fill-rule:evenodd;stroke:rgb(255, 0, 2);stroke-width:1;" d="M 711.535, 87.0118 L 742.961, 43.96 L 871.753, 98.2743 L 808.538, 184.923 L 740.963, 156.403 L 769.119, 117.893 L 772.752, 112.807 L 711.535, 87.0118 z "/>
<path style="fill:rgb(0, 255, 0);fill-opacity:0;fill-rule:evenodd;stroke:rgb(255, 0, 2);stroke-width:1;" d="M 754.768, 338.056 L 819.437, 248.865 L 928.065, 294.278 L 895.731, 338.238 L 851.589, 319.891 L 819.8, 364.396 L 754.768, 338.056 z "/>
<path style="fill:rgb(0, 0, 255);fill-opacity:0;fill-rule:evenodd;stroke:rgb(255, 0, 2);stroke-width:1;" d="M 910.99, 376.567 L 961.308, 307.539 L 1060.49, 349.5 L 1010.17, 418.347 L 910.99, 376.567 z "/>
<path style="fill:rgb(255, 255, 0);fill-opacity:0;fill-rule:evenodd;stroke:rgb(255, 0, 2);stroke-width:1;" d="M 111.717, 299.728 L 138.056, 262.489 L 182.925, 280.836 L 181.471, 283.015 L 197.275, 289.555 L 200.363, 285.195 L 206.721, 287.738 L 205.813, 289.192 L 230.154, 299.364 L 228.338, 302.089 L 293.733, 328.974 L 265.213, 368.937 L 260.127, 366.757 L 248.865, 362.216 L 247.23, 361.671 L 248.683, 359.491 L 200.727, 339.873 L 199.273, 341.689 L 176.385, 332.425 L 174.75, 334.605 L 155.858, 326.794 L 116.44, 310.627 L 112.262, 308.992 L 117.166, 301.907 L 111.717, 299.728 z "/>
<path style="fill:rgb(255, 0, 0);fill-opacity:0;fill-rule:evenodd;stroke:rgb(255, 0, 2);stroke-width:1;" d="M 686.83, 760.036 L 719.346, 715.895 L 691.008, 703.906 L 699.909, 691.735 L 705.359, 694.096 L 727.52, 663.942 L 788.556, 689.737 L 807.266, 697.548 L 743.869, 784.196 L 686.83, 760.036 z "/>
<path style="fill:rgb(0, 255, 0);fill-opacity:0;fill-rule:evenodd;stroke:rgb(255, 0, 2);stroke-width:1;" d="M 160.4, 233.424 L 174.75, 213.624 L 199.273, 180.018 L 184.741, 174.024 L 207.084, 143.324 L 302.271, 183.47 L 280.654, 213.079 L 279.746, 214.351 L 269.936, 210.173 L 231.244, 263.397 L 160.4, 233.424 z M 189.827, 226.521 L 198.002, 229.973 L 201.09, 225.795 L 203.996, 227.066 L 208.719, 225.25 L 214.532, 227.793 L 214.714, 231.608 L 217.984, 233.061 L 215.077, 237.239 L 223.252, 240.69 L 255.586, 196.367 L 222.343, 182.38 L 189.827, 226.521 z "/>
<path style="fill:rgb(0, 0, 255);fill-opacity:0;fill-rule:evenodd;stroke:rgb(255, 0, 2);stroke-width:1;" d="M 41.9619, 337.511 L 43.2334, 335.695 L 61.2171, 310.445 L 70.4814, 297.366 L 93.5513, 306.812 L 92.6431, 307.902 L 95.0045, 308.629 L 99.5459, 309.9 L 102.089, 310.263 L 106.994, 310.808 L 110.445, 310.808 L 114.078, 311.172 L 115.713, 311.717 L 116.44, 310.627 L 155.858, 326.794 L 152.407, 331.698 L 153.497, 332.062 L 139.873, 351.317 L 146.231, 353.86 L 162.761, 330.609 L 206.54, 348.592 L 186.194, 377.293 L 203.088, 384.196 L 206.721, 378.928 L 212.716, 381.29 L 213.624, 380.018 L 216.712, 379.473 L 221.435, 381.471 L 222.525, 383.651 L 221.617, 385.104 L 230.518, 388.738 L 226.521, 394.369 L 237.421, 398.91 L 240.327, 400 L 228.701, 416.349 L 174.387, 394.005 L 175.114, 392.916 L 130.427, 374.75 L 132.062, 372.389 L 101.181, 359.673 L 128.429, 321.163 L 119.346, 316.985 L 115.895, 316.076 L 112.988, 315.35 L 110.99, 314.986 L 109.173, 314.805 L 103.179, 314.805 L 99.1826, 314.441 L 95.3678, 313.533 L 93.5513, 312.988 L 90.0999, 311.535 L 89.555, 312.443 L 84.6503, 310.263 L 60.1272, 344.959 L 41.9619, 337.511 z "/>
<path style="fill:rgb(255, 255, 0);fill-opacity:0;fill-rule:evenodd;stroke:rgb(255, 0, 2);stroke-width:1;" d="M 769.119, 586.194 L 796.367, 548.411 L 809.809, 554.042 L 810.899, 552.407 L 819.437, 556.04 L 820.527, 554.587 L 825.068, 556.403 L 827.975, 552.407 L 892.825, 579.473 L 860.309, 624.342 L 854.496, 621.98 L 814.714, 605.268 L 769.119, 586.194 z "/>
<path style="fill:rgb(255, 0, 0);fill-opacity:0;fill-rule:evenodd;stroke:rgb(255, 0, 2);stroke-width:1;" d="M 278.111, 228.52 L 287.193, 215.985 L 280.654, 213.079 L 302.271, 183.47 L 304.087, 180.926 L 376.022, 211.262 L 374.569, 213.261 L 378.747, 215.077 L 348.955, 255.949 L 324.432, 245.595 L 302.816, 236.512 L 301.362, 238.329 L 283.742, 230.881 L 278.111, 228.52 z "/>
<path style="fill:rgb(0, 255, 0);fill-opacity:0;fill-rule:evenodd;stroke:rgb(255, 0, 2);stroke-width:1;" d="M 907.902, 164.396 L 936.966, 124.796 L 1011.08, 156.04 L 984.923, 191.826 L 978.928, 199.818 L 943.324, 184.741 L 920.254, 174.932 L 914.623, 172.57 L 917.711, 168.392 L 907.902, 164.396 z "/>
<path style="fill:rgb(0, 0, 255);fill-opacity:0;fill-rule:evenodd;stroke:rgb(255, 0, 2);stroke-width:1;" d="M 312.807, 450.318 L 336.603, 418.347 L 364.214, 430.336 L 354.95, 442.87 L 363.851, 446.685 L 368.574, 440.327 L 384.196, 447.048 L 379.292, 453.769 L 391.099, 458.674 L 394.005, 454.678 L 391.644, 453.769 L 394.732, 449.591 L 402.18, 452.861 L 406.54, 446.685 L 399.092, 443.597 L 406.721, 433.243 L 433.787, 444.868 L 430.699, 449.046 L 435.786, 451.226 L 421.98, 469.755 L 427.611, 472.298 L 412.171, 493.006 L 312.807, 450.318 z "/>
<path style="fill:rgb(255, 255, 0);fill-opacity:0;fill-rule:evenodd;stroke:rgb(255, 0, 2);stroke-width:1;" d="M 235.786, 268.665 L 250.681, 248.501 L 256.312, 250.863 L 270.663, 231.063 L 280.654, 235.241 L 283.742, 230.881 L 301.362, 238.329 L 297.911, 243.052 L 319.528, 252.134 L 324.432, 245.595 L 348.955, 255.949 L 315.168, 302.089 L 235.786, 268.665 z M 276.476, 267.393 L 295.731, 275.568 L 306.085, 261.217 L 286.83, 253.224 L 276.476, 267.393 z "/>
<path style="fill:rgb(255, 0, 0);fill-opacity:0;fill-rule:evenodd;stroke:rgb(255, 0, 2);stroke-width:1;" d="M 265.032, 130.245 L 277.021, 113.533 L 286.285, 117.348 L 291.008, 110.99 L 289.555, 110.445 L 300.272, 95.5495 L 326.794, 106.812 L 316.258, 121.344 L 314.623, 120.799 L 309.718, 127.339 L 331.153, 136.421 L 338.056, 127.157 L 328.792, 123.161 L 337.511, 111.172 L 383.288, 130.427 L 374.387, 142.598 L 365.486, 138.783 L 358.946, 148.047 L 371.48, 153.315 L 359.491, 169.846 L 265.032, 130.245 z "/>
<path style="fill:rgb(0, 255, 0);fill-opacity:0;fill-rule:evenodd;stroke:rgb(255, 0, 2);stroke-width:1;" d="M 144.414, 681.926 L 170.572, 646.322 L 199.637, 658.492 L 186.194, 676.839 L 193.46, 679.927 L 197.82, 673.933 L 216.167, 681.744 L 231.608, 660.854 L 256.494, 671.39 L 243.415, 689.192 L 242.688, 688.828 L 239.237, 693.733 L 245.595, 696.458 L 229.609, 718.074 L 144.414, 681.926 z "/>
<path style="fill:rgb(0, 0, 255);fill-opacity:0;fill-rule:evenodd;stroke:rgb(255, 0, 2);stroke-width:1;" d="M 345.141, 401.272 L 376.203, 359.491 L 454.678, 393.279 L 453.769, 394.369 L 439.6, 413.442 L 433.061, 410.718 L 420.708, 427.43 L 402.906, 419.8 L 417.075, 400.545 L 395.095, 391.099 L 389.464, 398.91 L 399.273, 403.088 L 390.736, 414.532 L 379.292, 409.628 L 375.658, 414.351 L 345.141, 401.272 z "/>
<path style="fill:rgb(255, 255, 0);fill-opacity:0;fill-rule:evenodd;stroke:rgb(255, 0, 2);stroke-width:1;" d="M 825.068, 502.997 L 840.145, 482.652 L 878.292, 499.001 L 880.109, 496.276 L 881.199, 496.821 L 889.192, 485.922 L 902.271, 491.553 L 902.634, 490.827 L 944.777, 508.81 L 925.159, 535.513 L 877.748, 515.35 L 869.936, 525.886 L 831.063, 509.173 L 833.061, 506.449 L 825.068, 502.997 z "/>
<path style="fill:rgb(255, 0, 0);fill-opacity:0;fill-rule:evenodd;stroke:rgb(255, 0, 2);stroke-width:1;" d="M 86.6485, 205.631 L 115.895, 165.668 L 144.051, 177.475 L 141.689, 180.745 L 179.837, 196.912 L 169.301, 211.444 L 174.75, 213.624 L 160.4, 233.424 L 158.401, 235.967 L 86.6485, 205.631 z M 122.616, 204.36 L 139.873, 211.626 L 149.5, 198.365 L 134.06, 191.826 L 132.788, 193.824 L 130.972, 193.097 L 122.616, 204.36 z "/>
<path style="fill:rgb(0, 255, 0);fill-opacity:0;fill-rule:evenodd;stroke:rgb(255, 0, 2);stroke-width:1;" d="M 226.885, 565.849 L 271.935, 505.722 L 298.093, 516.985 L 294.641, 521.526 L 314.26, 530.064 L 306.085, 540.963 L 286.285, 532.425 L 281.926, 538.238 L 279.201, 541.871 L 299.001, 550.409 L 290.282, 562.035 L 267.938, 552.407 L 264.487, 556.948 L 267.757, 558.401 L 263.76, 563.851 L 266.485, 565.123 L 267.212, 564.214 L 289.555, 573.842 L 278.656, 588.374 L 226.885, 565.849 z "/>
<path style="fill:rgb(0, 0, 255);fill-opacity:0;fill-rule:evenodd;stroke:rgb(255, 0, 2);stroke-width:1;" d="M 672.298, 452.316 L 705.177, 407.629 L 756.767, 429.609 L 760.945, 431.426 L 741.871, 457.221 L 735.513, 454.678 L 721.708, 473.388 L 672.298, 452.316 z "/>
<path style="fill:rgb(255, 255, 0);fill-opacity:0;fill-rule:evenodd;stroke:rgb(255, 0, 2);stroke-width:1;" d="M 589.101, 567.121 L 620.708, 523.524 L 669.936, 544.051 L 675.386, 546.412 L 643.778, 590.009 L 589.101, 567.121 z "/>
<path style="fill:rgb(255, 0, 0);fill-opacity:0;fill-rule:evenodd;stroke:rgb(255, 0, 2);stroke-width:1;" d="M 918.074, 649.41 L 950.59, 604.36 L 1001.63, 625.613 L 990.917, 640.327 L 988.193, 639.237 L 982.925, 646.503 L 989.646, 649.41 L 973.115, 672.298 L 918.074, 649.41 z "/>
<path style="fill:rgb(0, 255, 0);fill-opacity:0;fill-rule:evenodd;stroke:rgb(255, 0, 2);stroke-width:1;" d="M 41.2352, 267.03 L 49.4096, 255.586 L 56.6757, 255.223 L 61.5804, 248.32 L 59.0372, 247.411 L 58.129, 245.05 L 66.1217, 233.787 L 70.1181, 233.061 L 107.72, 248.501 L 109.173, 251.045 L 132.062, 260.49 L 121.163, 275.931 L 119.891, 275.386 L 112.988, 285.195 L 105.177, 281.926 L 92.0981, 300.272 L 80.109, 295.368 L 86.8302, 285.74 L 43.96, 268.302 L 41.2352, 267.03 z "/>
<path style="fill:rgb(0, 0, 255);fill-opacity:0;fill-rule:evenodd;stroke:rgb(255, 0, 2);stroke-width:1;" d="M 271.935, 505.722 L 293.006, 477.748 L 372.389, 512.08 L 357.13, 532.425 L 351.499, 530.064 L 336.785, 549.864 L 334.06, 548.592 L 331.517, 552.044 L 318.983, 546.594 L 318.074, 546.049 L 330.064, 530.064 L 324.251, 527.52 L 332.425, 516.621 L 327.339, 514.441 L 324.977, 517.711 L 323.524, 518.256 L 309.355, 511.898 L 310.082, 510.99 L 305.359, 508.992 L 299.001, 517.53 L 298.093, 516.985 L 271.935, 505.722 z "/>
<path style="fill:rgb(255, 255, 0);fill-opacity:0;fill-rule:evenodd;stroke:rgb(255, 0, 2);stroke-width:1;" d="M 705.177, 407.629 L 736.603, 364.759 L 788.374, 386.739 L 770.936, 410.354 L 756.767, 429.609 L 705.177, 407.629 z "/>
<path style="fill:rgb(255, 0, 0);fill-opacity:0;fill-rule:evenodd;stroke:rgb(255, 0, 2);stroke-width:1;" d="M 648.865, 594.187 L 658.492, 580.926 L 668.483, 585.104 L 671.935, 580.2 L 670.3, 579.473 L 673.388, 575.295 L 674.478, 571.662 L 667.212, 568.574 L 676.476, 556.04 L 688.647, 561.126 L 687.012, 563.306 L 698.093, 568.029 L 699.546, 566.213 L 707.539, 569.482 L 697.548, 583.288 L 707.357, 587.466 L 717.711, 573.115 L 725.886, 576.567 L 723.887, 579.11 L 734.242, 583.47 L 736.24, 580.926 L 748.592, 586.013 L 740.599, 597.094 L 739.146, 599.092 L 732.243, 596.185 L 728.792, 598.91 L 722.071, 608.174 L 730.064, 611.444 L 720.799, 624.342 L 688.102, 610.718 L 699.728, 594.732 L 690.282, 590.917 L 678.837, 606.721 L 648.865, 594.187 z "/>
<path style="fill:rgb(0, 255, 0);fill-opacity:0;fill-rule:evenodd;stroke:rgb(255, 0, 2);stroke-width:1;" d="M 620.708, 523.524 L 652.679, 479.201 L 702.089, 499.728 L 669.936, 544.051 L 620.708, 523.524 z "/>
<path style="fill:rgb(0, 0, 255);fill-opacity:0;fill-rule:evenodd;stroke:rgb(255, 0, 2);stroke-width:1;" d="M 535.695, 638.147 L 567.666, 595.459 L 570.027, 595.095 L 576.385, 597.82 L 576.93, 599.818 L 581.29, 601.635 L 584.741, 600.727 L 602.725, 608.538 L 600.908, 611.081 L 616.167, 617.62 L 609.446, 626.34 L 607.811, 628.701 L 603.815, 634.151 L 600.727, 637.965 L 598.002, 641.78 L 584.741, 659.401 L 535.695, 638.147 z "/>
<path style="fill:rgb(255, 255, 0);fill-opacity:0;fill-rule:evenodd;stroke:rgb(255, 0, 2);stroke-width:1;" d="M 82.2888, 504.632 L 93.5513, 489.192 L 99.3642, 491.735 L 113.715, 471.935 L 137.148, 481.926 L 124.432, 499.546 L 128.61, 501.181 L 129.882, 499.728 L 138.238, 503.179 L 153.134, 483.015 L 177.112, 493.006 L 148.411, 532.425 L 82.2888, 504.632 z "/>
<path style="fill:rgb(255, 0, 0);fill-opacity:0;fill-rule:evenodd;stroke:rgb(255, 0, 2);stroke-width:1;" d="M 480.291, 221.072 L 493.915, 202.543 L 523.524, 215.077 L 519.346, 220.89 L 521.708, 223.797 L 534.968, 229.428 L 538.238, 228.883 L 542.234, 223.433 L 555.677, 229.064 L 574.932, 202.906 L 591.644, 209.991 L 575.114, 232.698 L 581.108, 235.241 L 583.106, 232.698 L 586.558, 234.151 L 576.567, 247.593 L 579.473, 248.865 L 571.299, 259.764 L 480.291, 221.072 z "/>
<path style="fill:rgb(0, 255, 0);fill-opacity:0;fill-rule:evenodd;stroke:rgb(255, 0, 2);stroke-width:1;" d="M 706.085, 546.776 L 713.533, 536.785 L 716.258, 536.24 L 724.796, 524.432 L 723.887, 522.252 L 731.335, 512.08 L 746.049, 518.256 L 745.322, 519.164 L 792.371, 538.783 L 776.022, 561.308 L 772.934, 562.035 L 764.578, 573.479 L 753.134, 568.574 L 761.308, 557.13 L 760.581, 554.768 L 756.767, 555.313 L 748.592, 566.757 L 737.511, 562.035 L 745.867, 550.59 L 744.777, 548.229 L 741.144, 548.774 L 732.788, 560.036 L 722.071, 555.677 L 730.245, 544.233 L 729.155, 541.689 L 720.981, 552.952 L 706.085, 546.776 z "/>
<path style="fill:rgb(0, 0, 255);fill-opacity:0;fill-rule:evenodd;stroke:rgb(255, 0, 2);stroke-width:1;" d="M 645.958, 289.555 L 652.861, 280.109 L 648.683, 278.474 L 656.312, 268.12 L 662.852, 270.845 L 679.746, 247.775 L 723.706, 266.485 L 714.078, 279.746 L 700.636, 297.911 L 692.28, 309.173 L 645.958, 289.555 z "/>
<path style="fill:rgb(255, 255, 0);fill-opacity:0;fill-rule:evenodd;stroke:rgb(255, 0, 2);stroke-width:1;" d="M 543.143, 398.365 L 553.315, 384.559 L 569.301, 391.281 L 575.114, 383.47 L 577.657, 384.559 L 579.655, 381.653 L 581.835, 382.561 L 582.743, 381.29 L 562.216, 372.57 L 562.579, 372.025 L 570.209, 361.671 L 570.754, 360.763 L 631.971, 386.739 L 623.433, 398.365 L 604.178, 390.191 L 601.635, 393.642 L 604.541, 394.914 L 598.365, 403.27 L 614.714, 410.173 L 604.36, 424.342 L 543.143, 398.365 z "/>
<path style="fill:rgb(255, 0, 0);fill-opacity:0;fill-rule:evenodd;stroke:rgb(255, 0, 2);stroke-width:1;" d="M 119.164, 161.126 L 151.68, 116.803 L 202.725, 138.42 L 189.464, 156.585 L 163.669, 145.686 L 161.671, 148.592 L 165.123, 150.045 L 163.124, 152.952 L 164.396, 156.04 L 179.655, 162.398 L 168.937, 177.112 L 147.321, 167.847 L 149.682, 164.759 L 143.506, 162.216 L 138.42, 169.301 L 119.164, 161.126 z "/>
<path style="fill:rgb(0, 255, 0);fill-opacity:0;fill-rule:evenodd;stroke:rgb(255, 0, 2);stroke-width:1;" d="M 521.344, 330.609 L 526.067, 324.251 L 535.15, 311.898 L 544.596, 299.183 L 554.042, 286.104 L 596.185, 304.087 L 587.466, 316.076 L 563.669, 348.592 L 521.344, 330.609 z "/>
<path style="fill:rgb(0, 0, 255);fill-opacity:0;fill-rule:evenodd;stroke:rgb(255, 0, 2);stroke-width:1;" d="M 932.425, 237.602 L 957.493, 203.451 L 959.128, 203.451 L 960.581, 202.725 L 960.945, 201.998 L 960.945, 201.09 L 959.855, 200.182 L 962.943, 196.185 L 966.213, 195.277 L 1007.63, 212.897 L 976.022, 255.949 L 932.425, 237.602 z "/>
<path style="fill:rgb(255, 255, 0);fill-opacity:0;fill-rule:evenodd;stroke:rgb(255, 0, 2);stroke-width:1;" d="M 51.7711, 572.025 L 64.8501, 554.223 L 59.2189, 551.862 L 71.9346, 534.06 L 129.155, 557.856 L 100.272, 598.002 L 76.8392, 588.193 L 90.0999, 569.846 L 78.4741, 564.941 L 68.3015, 578.928 L 51.7711, 572.025 z "/>
<path style="fill:rgb(255, 0, 0);fill-opacity:0;fill-rule:evenodd;stroke:rgb(255, 0, 2);stroke-width:1;" d="M 589.827, 234.514 L 629.064, 180.563 L 634.696, 181.835 L 635.967, 183.651 L 634.151, 186.194 L 663.942, 198.728 L 665.758, 196.185 L 668.12, 196.004 L 672.843, 198.728 L 672.116, 200.545 L 671.935, 201.09 L 671.935, 201.09 L 661.762, 214.896 L 661.217, 215.441 L 660.49, 216.167 L 657.584, 219.619 L 646.322, 214.896 L 642.325, 220.163 L 639.6, 219.074 L 633.787, 226.885 L 636.694, 228.156 L 623.978, 245.595 L 598.91, 235.059 L 596.912, 237.965 L 589.827, 234.514 z "/>
<path style="fill:rgb(0, 255, 0);fill-opacity:0;fill-rule:evenodd;stroke:rgb(255, 0, 2);stroke-width:1;" d="M 887.557, 691.553 L 910.445, 659.764 L 965.486, 682.834 L 956.948, 694.641 L 942.416, 714.805 L 937.148, 712.625 L 933.515, 713.896 L 922.252, 709.173 L 922.071, 705.904 L 922.797, 704.814 L 910.445, 699.728 L 909.718, 700.817 L 904.632, 701.544 L 887.738, 694.46 L 887.557, 691.553 z "/>
<path style="fill:rgb(0, 0, 255);fill-opacity:0;fill-rule:evenodd;stroke:rgb(255, 0, 2);stroke-width:1;" d="M 888.102, 218.71 L 920.254, 174.932 L 943.324, 184.741 L 936.603, 193.824 L 957.856, 202.906 L 957.493, 203.451 L 932.425, 237.602 L 888.102, 218.71 z "/>
<path style="fill:rgb(255, 255, 0);fill-opacity:0;fill-rule:evenodd;stroke:rgb(255, 0, 2);stroke-width:1;" d="M 608.356, 101.907 L 619.255, 87.0118 L 633.969, 93.188 L 637.602, 88.465 L 631.608, 85.9219 L 638.329, 76.6576 L 629.609, 73.0245 L 634.514, 66.1217 L 692.28, 90.4632 L 692.098, 90.8265 L 687.193, 97.5477 L 677.566, 93.3697 L 670.845, 102.452 L 665.032, 100.091 L 661.58, 104.632 L 677.203, 111.353 L 675.568, 113.351 L 667.03, 125.159 L 666.303, 126.249 L 608.356, 101.907 z "/>
<path style="fill:rgb(255, 0, 0);fill-opacity:0;fill-rule:evenodd;stroke:rgb(255, 0, 2);stroke-width:1;" d="M 238.329, 655.041 L 248.501, 641.235 L 260.49, 646.322 L 259.582, 647.593 L 262.67, 648.865 L 266.667, 643.233 L 269.028, 644.142 L 273.569, 637.965 L 269.936, 634.332 L 257.402, 628.883 L 266.667, 616.53 L 322.071, 639.964 L 321.344, 640.872 L 312.988, 652.316 L 300.272, 647.048 L 296.821, 646.503 L 288.465, 657.947 L 303.906, 664.668 L 302.997, 665.94 L 293.915, 678.474 L 238.329, 655.041 z "/>
<path style="fill:rgb(0, 255, 0);fill-opacity:0;fill-rule:evenodd;stroke:rgb(255, 0, 2);stroke-width:1;" d="M 140.599, 471.026 L 153.497, 453.406 L 168.574, 459.764 L 175.477, 450.318 L 154.95, 441.599 L 167.484, 424.523 L 213.079, 443.597 L 180.745, 487.92 L 140.599, 471.026 z "/>
<path style="fill:rgb(0, 0, 255);fill-opacity:0;fill-rule:evenodd;stroke:rgb(255, 0, 2);stroke-width:1;" d="M 604.905, 272.116 L 609.264, 266.122 L 611.807, 267.212 L 638.874, 230.518 L 679.746, 247.775 L 662.852, 270.845 L 656.312, 268.12 L 648.683, 278.474 L 652.861, 280.109 L 645.958, 289.555 L 604.905, 272.116 z "/>
<path style="fill:rgb(255, 255, 0);fill-opacity:0;fill-rule:evenodd;stroke:rgb(255, 0, 2);stroke-width:1;" d="M 667.03, 125.159 L 675.568, 113.351 L 687.738, 118.438 L 697.911, 104.45 L 685.922, 99.3642 L 687.193, 97.5477 L 692.098, 90.8265 L 748.774, 114.623 L 742.598, 123.161 L 732.788, 119.164 L 722.616, 133.152 L 732.243, 137.33 L 723.706, 149.137 L 667.03, 125.159 z "/>
<path style="fill:rgb(255, 0, 0);fill-opacity:0;fill-rule:evenodd;stroke:rgb(255, 0, 2);stroke-width:1;" d="M 360.4, 170.209 L 377.475, 146.594 L 387.103, 150.59 L 400.363, 132.062 L 408.719, 135.513 L 411.262, 132.062 L 433.243, 141.326 L 400.182, 186.921 L 360.4, 170.209 z "/>
<path style="fill:rgb(0, 255, 0);fill-opacity:0;fill-rule:evenodd;stroke:rgb(255, 0, 2);stroke-width:1;" d="M 852.498, 203.633 L 884.65, 159.855 L 914.623, 172.57 L 920.254, 174.932 L 888.102, 218.71 L 852.498, 203.633 z "/>
<path style="fill:rgb(0, 0, 255);fill-opacity:0;fill-rule:evenodd;stroke:rgb(255, 0, 2);stroke-width:1;" d="M 327.157, 609.264 L 335.876, 597.457 L 345.141, 601.453 L 351.499, 592.916 L 350.227, 592.371 L 351.68, 590.372 L 354.405, 591.644 L 358.946, 585.468 L 348.411, 580.926 L 355.858, 570.936 L 361.671, 573.479 L 366.394, 567.302 L 397.457, 580.745 L 392.734, 587.103 L 399.092, 589.827 L 391.826, 599.455 L 381.108, 594.914 L 375.114, 602.906 L 377.293, 603.815 L 371.117, 612.171 L 379.655, 615.804 L 371.117, 627.066 L 370.391, 628.156 L 327.157, 609.264 z "/>
<path style="fill:rgb(255, 255, 0);fill-opacity:0;fill-rule:evenodd;stroke:rgb(255, 0, 2);stroke-width:1;" d="M 448.501, 441.78 L 453.951, 434.514 L 457.221, 429.973 L 472.661, 436.694 L 476.294, 431.789 L 472.48, 430.336 L 473.751, 428.701 L 475.568, 429.609 L 480.472, 422.888 L 467.03, 417.075 L 476.476, 404.178 L 526.975, 425.976 L 517.711, 438.329 L 503.724, 432.334 L 497.548, 440.872 L 496.458, 440.509 L 493.006, 445.232 L 507.902, 451.589 L 500.454, 461.58 L 499.001, 463.397 L 448.501, 441.78 z "/>
<path style="fill:rgb(255, 0, 0);fill-opacity:0;fill-rule:evenodd;stroke:rgb(255, 0, 2);stroke-width:1;" d="M 894.46, 472.116 L 917.893, 440.327 L 976.93, 465.395 L 960.763, 487.193 L 931.153, 474.659 L 933.152, 471.753 L 928.247, 469.755 L 926.249, 472.48 L 918.256, 469.028 L 917.166, 468.665 L 909.9, 478.656 L 894.46, 472.116 z "/>
<path style="fill:rgb(0, 255, 0);fill-opacity:0;fill-rule:evenodd;stroke:rgb(255, 0, 2);stroke-width:1;" d="M 641.054, 741.144 L 642.144, 739.691 L 650.5, 728.065 L 659.764, 732.062 L 672.116, 715.168 L 662.852, 711.353 L 669.028, 702.997 L 713.351, 721.889 L 707.357, 730.064 L 698.274, 726.249 L 685.922, 743.143 L 695.005, 746.957 L 685.377, 760.036 L 641.054, 741.144 z "/>
<path style="fill:rgb(0, 0, 255);fill-opacity:0;fill-rule:evenodd;stroke:rgb(255, 0, 2);stroke-width:1;" d="M 401.272, 117.711 L 408.356, 108.084 L 406.54, 107.357 L 425.068, 81.7439 L 464.487, 98.2743 L 460.854, 103.179 L 438.874, 133.515 L 401.272, 117.711 z "/>
<path style="fill:rgb(255, 255, 0);fill-opacity:0;fill-rule:evenodd;stroke:rgb(255, 0, 2);stroke-width:1;" d="M 324.251, 691.371 L 331.335, 681.562 L 333.697, 678.474 L 341.144, 681.744 L 340.418, 682.834 L 344.596, 684.65 L 354.95, 670.481 L 350.772, 668.665 L 349.864, 669.936 L 342.416, 666.667 L 342.598, 666.303 L 343.688, 664.85 L 352.407, 652.861 L 395.64, 671.026 L 394.914, 671.935 L 385.468, 684.832 L 375.84, 680.836 L 370.027, 681.926 L 363.306, 691.19 L 376.748, 696.821 L 368.574, 708.084 L 367.302, 709.537 L 324.251, 691.371 z "/>
<path style="fill:rgb(255, 0, 0);fill-opacity:0;fill-rule:evenodd;stroke:rgb(255, 0, 2);stroke-width:1;" d="M 768.029, 643.96 L 784.378, 621.435 L 798.728, 627.43 L 838.51, 643.96 L 844.323, 646.503 L 828.883, 667.757 L 828.338, 668.302 L 827.248, 668.665 L 826.34, 668.483 L 768.029, 643.96 z "/>
<path style="fill:rgb(0, 255, 0);fill-opacity:0;fill-rule:evenodd;stroke:rgb(255, 0, 2);stroke-width:1;" d="M 428.338, 349.682 L 437.239, 337.511 L 448.32, 342.234 L 459.219, 327.339 L 449.228, 322.979 L 457.039, 312.443 L 494.46, 328.247 L 478.656, 349.682 L 474.478, 348.047 L 471.753, 351.862 L 481.926, 356.222 L 472.843, 368.574 L 428.338, 349.682 z "/>
<path style="fill:rgb(0, 0, 255);fill-opacity:0;fill-rule:evenodd;stroke:rgb(255, 0, 2);stroke-width:1;" d="M 753.86, 487.193 L 777.475, 454.859 L 785.649, 443.778 L 797.457, 448.865 L 798.365, 447.775 L 816.712, 455.767 L 813.442, 460.127 L 784.559, 499.546 L 753.86, 487.193 z "/>
<path style="fill:rgb(255, 255, 0);fill-opacity:0;fill-rule:evenodd;stroke:rgb(255, 0, 2);stroke-width:1;" d="M 976.022, 255.949 L 1007.63, 212.897 L 1008.54, 211.807 L 1038.15, 224.342 L 1028.34, 237.602 L 1025.43, 241.599 L 1005.63, 268.665 L 976.022, 255.949 z "/>
<path style="fill:rgb(255, 0, 0);fill-opacity:0;fill-rule:evenodd;stroke:rgb(255, 0, 2);stroke-width:1;" d="M 500.454, 461.58 L 507.902, 451.589 L 515.168, 454.678 L 514.078, 456.131 L 517.53, 457.584 L 521.526, 452.498 L 518.983, 451.408 L 525.341, 443.052 L 516.985, 439.419 L 517.711, 438.329 L 526.975, 425.976 L 570.209, 444.505 L 562.035, 455.586 L 553.678, 451.953 L 546.594, 461.58 L 543.688, 460.309 L 540.236, 464.85 L 551.499, 469.755 L 543.688, 480.109 L 500.454, 461.58 z "/>
<path style="fill:rgb(0, 255, 0);fill-opacity:0;fill-rule:evenodd;stroke:rgb(255, 0, 2);stroke-width:1;" d="M 176.748, 637.784 L 201.453, 603.996 L 202.725, 604.541 L 215.622, 609.991 L 212.352, 614.351 L 211.626, 617.257 L 228.52, 624.523 L 233.606, 617.62 L 247.048, 623.252 L 222.343, 657.039 L 208.538, 651.226 L 212.534, 645.958 L 210.536, 642.87 L 206.903, 641.417 L 196.004, 636.694 L 190.917, 643.778 L 176.748, 637.784 z "/>
<path style="fill:rgb(0, 0, 255);fill-opacity:0;fill-rule:evenodd;stroke:rgb(255, 0, 2);stroke-width:1;" d="M 518.801, 689.373 L 526.249, 679.019 L 528.429, 678.837 L 541.508, 661.035 L 543.506, 659.401 L 550.227, 650.136 L 580.745, 663.034 L 573.842, 672.298 L 573.479, 674.659 L 560.4, 692.461 L 561.49, 692.825 L 554.405, 702.452 L 553.315, 703.906 L 518.801, 689.373 z "/>
<path style="fill:rgb(255, 255, 0);fill-opacity:0;fill-rule:evenodd;stroke:rgb(255, 0, 2);stroke-width:1;" d="M 472.843, 368.574 L 481.926, 356.222 L 504.814, 325.159 L 534.06, 337.511 L 529.155, 344.233 L 521.163, 355.132 L 512.08, 367.484 L 502.089, 380.926 L 472.843, 368.574 z "/>
<path style="fill:rgb(255, 0, 0);fill-opacity:0;fill-rule:evenodd;stroke:rgb(255, 0, 2);stroke-width:1;" d="M 502.089, 380.926 L 512.08, 367.484 L 524.251, 372.57 L 529.337, 365.486 L 526.431, 364.214 L 527.884, 362.398 L 530.064, 363.306 L 532.425, 359.855 L 521.163, 355.132 L 529.155, 344.233 L 570.209, 361.671 L 562.579, 372.025 L 552.225, 367.666 L 543.143, 380.2 L 553.315, 384.559 L 543.143, 398.365 L 502.089, 380.926 z "/>
<path style="fill:rgb(0, 255, 0);fill-opacity:0;fill-rule:evenodd;stroke:rgb(255, 0, 2);stroke-width:1;" d="M 647.775, 233.787 L 660.49, 216.167 L 661.217, 215.441 L 665.213, 217.257 L 675.749, 202.725 L 671.935, 201.09 L 671.935, 201.09 L 672.116, 200.545 L 680.654, 188.919 L 699.909, 197.094 L 709.355, 201.09 L 688.647, 229.246 L 676.294, 245.958 L 647.775, 233.787 z "/>
<path style="fill:rgb(0, 0, 255);fill-opacity:0;fill-rule:evenodd;stroke:rgb(255, 0, 2);stroke-width:1;" d="M 491.735, 527.157 L 501.362, 514.078 L 522.797, 485.559 L 551.499, 497.911 L 520.618, 539.51 L 491.735, 527.157 z "/>
<path style="fill:rgb(255, 255, 0);fill-opacity:0;fill-rule:evenodd;stroke:rgb(255, 0, 2);stroke-width:1;" d="M 516.258, 172.207 L 545.686, 132.062 L 579.292, 146.412 L 571.662, 156.948 L 570.936, 157.856 L 566.394, 155.858 L 563.851, 157.13 L 544.051, 184.015 L 516.258, 172.207 z "/>
<path style="fill:rgb(255, 0, 0);fill-opacity:0;fill-rule:evenodd;stroke:rgb(255, 0, 2);stroke-width:1;" d="M 428.338, 651.771 L 440.145, 636.149 L 444.687, 638.147 L 463.397, 613.442 L 490.463, 625.068 L 460.127, 665.577 L 428.338, 651.771 z "/>
<path style="fill:rgb(0, 255, 0);fill-opacity:0;fill-rule:evenodd;stroke:rgb(255, 0, 2);stroke-width:1;" d="M 298.819, 597.094 L 329.882, 555.677 L 358.038, 567.847 L 355.858, 570.936 L 348.411, 580.926 L 335.876, 597.457 L 327.157, 609.264 L 298.819, 597.094 z "/>
<path style="fill:rgb(0, 0, 255);fill-opacity:0;fill-rule:evenodd;stroke:rgb(255, 0, 2);stroke-width:1;" d="M 720.799, 624.342 L 730.064, 611.444 L 739.146, 599.092 L 740.599, 597.094 L 784.015, 615.259 L 764.214, 642.507 L 720.799, 624.342 z "/>
<path style="fill:rgb(255, 255, 0);fill-opacity:0;fill-rule:evenodd;stroke:rgb(255, 0, 2);stroke-width:1;" d="M 682.652, 241.78 L 689.918, 231.789 L 688.647, 229.246 L 709.355, 201.09 L 738.965, 213.624 L 732.243, 222.707 L 719.891, 239.782 L 709.9, 253.406 L 682.652, 241.78 z "/>
<path style="fill:rgb(255, 0, 0);fill-opacity:0;fill-rule:evenodd;stroke:rgb(255, 0, 2);stroke-width:1;" d="M 396.367, 336.24 L 425.613, 296.276 L 451.953, 307.539 L 435.604, 329.882 L 437.965, 330.79 L 438.692, 329.882 L 441.962, 331.335 L 437.239, 337.511 L 428.338, 349.682 L 396.367, 336.24 z "/>
<path style="fill:rgb(0, 255, 0);fill-opacity:0;fill-rule:evenodd;stroke:rgb(255, 0, 2);stroke-width:1;" d="M 849.228, 376.385 L 867.393, 350.772 L 875.386, 354.042 L 888.647, 335.513 L 910.263, 344.414 L 878.837, 388.556 L 849.228, 376.385 z "/>
<path style="fill:rgb(0, 0, 255);fill-opacity:0;fill-rule:evenodd;stroke:rgb(255, 0, 2);stroke-width:1;" d="M 576.567, 88.465 L 605.813, 48.5014 L 631.244, 59.2189 L 613.079, 84.287 L 619.255, 87.0118 L 608.356, 101.907 L 576.567, 88.465 z "/>
<path style="fill:rgb(255, 255, 0);fill-opacity:0;fill-rule:evenodd;stroke:rgb(255, 0, 2);stroke-width:1;" d="M 784.559, 499.546 L 813.442, 460.127 L 841.235, 471.935 L 812.171, 511.353 L 784.559, 499.546 z "/>
<path style="fill:rgb(255, 0, 0);fill-opacity:0;fill-rule:evenodd;stroke:rgb(255, 0, 2);stroke-width:1;" d="M 982.925, 665.758 L 986.376, 661.035 L 985.468, 659.401 L 993.46, 648.32 L 996.549, 649.591 L 998.002, 647.411 L 994.914, 646.14 L 1007.81, 628.52 L 1038.69, 641.417 L 1031.43, 651.408 L 1018.71, 668.847 L 1016.35, 672.298 L 1013.99, 672.48 L 1010.54, 677.203 L 998.183, 672.116 L 1001.63, 667.393 L 1000.91, 665.94 L 998.547, 666.122 L 995.095, 670.845 L 982.925, 665.758 z "/>
<path style="fill:rgb(0, 255, 0);fill-opacity:0;fill-rule:evenodd;stroke:rgb(255, 0, 2);stroke-width:1;" d="M 349.682, 552.952 L 379.292, 513.533 L 408.174, 526.067 L 397.275, 540.418 L 386.376, 535.695 L 377.838, 547.321 L 388.738, 552.044 L 379.292, 564.396 L 374.932, 570.209 L 364.214, 565.668 L 367.847, 560.945 L 349.682, 552.952 z "/>
<path style="fill:rgb(0, 0, 255);fill-opacity:0;fill-rule:evenodd;stroke:rgb(255, 0, 2);stroke-width:1;" d="M 345.867, 95.3678 L 362.216, 72.6612 L 356.222, 70.2997 L 365.849, 57.0391 L 402.543, 72.4796 L 392.189, 86.8302 L 387.284, 84.832 L 371.662, 106.267 L 345.867, 95.3678 z "/>
<path style="fill:rgb(255, 255, 0);fill-opacity:0;fill-rule:evenodd;stroke:rgb(255, 0, 2);stroke-width:1;" d="M 957.13, 99.5459 L 984.015, 63.2153 L 992.734, 66.8483 L 994.732, 64.1235 L 1013.99, 72.2979 L 985.104, 111.353 L 957.13, 99.5459 z "/>
<path style="fill:rgb(255, 0, 0);fill-opacity:0;fill-rule:evenodd;stroke:rgb(255, 0, 2);stroke-width:1;" d="M 987.284, 737.148 L 987.648, 736.785 L 993.642, 728.429 L 996.004, 729.337 L 1012.9, 706.085 L 1019.44, 697.003 L 1017.08, 696.094 L 1019.26, 693.006 L 1046.14, 704.269 L 1043.96, 707.175 L 1042.33, 706.449 L 1019.07, 738.783 L 1022.89, 740.236 L 1016.35, 749.319 L 1004.9, 744.414 L 1005.81, 743.143 L 993.279, 737.875 L 992.189, 739.146 L 987.284, 737.148 z "/>
<path style="fill:rgb(0, 255, 0);fill-opacity:0;fill-rule:evenodd;stroke:rgb(255, 0, 2);stroke-width:1;" d="M 429.064, 291.735 L 453.406, 258.674 L 478.837, 269.391 L 475.749, 273.751 L 485.014, 277.748 L 467.03, 302.089 L 452.134, 295.731 L 448.865, 300.272 L 429.064, 291.735 z "/>
<path style="fill:rgb(0, 0, 255);fill-opacity:0;fill-rule:evenodd;stroke:rgb(255, 0, 2);stroke-width:1;" d="M 107.539, 730.609 L 124.251, 707.72 L 176.385, 729.519 L 163.124, 747.866 L 130.427, 734.242 L 127.157, 738.783 L 107.539, 730.609 z "/>
<path style="fill:rgb(255, 255, 0);fill-opacity:0;fill-rule:evenodd;stroke:rgb(255, 0, 2);stroke-width:1;" d="M 520.618, 539.51 L 551.499, 497.911 L 553.497, 495.186 L 574.932, 504.45 L 572.57, 507.539 L 572.57, 511.353 L 544.051, 549.682 L 520.618, 539.51 z "/>
<path style="fill:rgb(255, 0, 0);fill-opacity:0;fill-rule:evenodd;stroke:rgb(255, 0, 2);stroke-width:1;" d="M 309.173, 79.564 L 325.341, 57.2207 L 319.709, 54.8592 L 329.337, 41.5985 L 365.849, 57.0391 L 356.222, 70.2997 L 349.137, 67.2116 L 346.412, 70.8447 L 348.047, 71.3896 L 334.423, 90.0999 L 309.173, 79.564 z "/>
<path style="fill:rgb(0, 255, 0);fill-opacity:0;fill-rule:evenodd;stroke:rgb(255, 0, 2);stroke-width:1;" d="M 555.495, 493.188 L 579.292, 461.035 L 578.565, 459.401 L 585.468, 449.955 L 610.173, 460.672 L 578.565, 503.179 L 555.495, 493.188 z "/>
<path style="fill:rgb(0, 0, 255);fill-opacity:0;fill-rule:evenodd;stroke:rgb(255, 0, 2);stroke-width:1;" d="M 550.59, 186.013 L 554.95, 180.018 L 558.401, 181.471 L 575.114, 158.401 L 571.662, 156.948 L 579.292, 146.412 L 606.721, 158.038 L 580.926, 193.279 L 577.657, 197.639 L 550.59, 186.013 z "/>
<path style="fill:rgb(255, 255, 0);fill-opacity:0;fill-rule:evenodd;stroke:rgb(255, 0, 2);stroke-width:1;" d="M 493.915, 202.543 L 512.988, 176.748 L 550.409, 192.552 L 531.335, 218.347 L 523.524, 215.077 L 493.915, 202.543 z "/>
<path style="fill:rgb(255, 0, 0);fill-opacity:0;fill-rule:evenodd;stroke:rgb(255, 0, 2);stroke-width:1;" d="M 580.926, 193.279 L 606.721, 158.038 L 624.342, 165.486 L 633.969, 169.482 L 607.993, 204.905 L 580.926, 193.279 z "/>
<path style="fill:rgb(0, 255, 0);fill-opacity:0;fill-rule:evenodd;stroke:rgb(255, 0, 2);stroke-width:1;" d="M 604.36, 424.342 L 614.714, 410.173 L 617.439, 409.991 L 630.154, 392.552 L 633.243, 393.824 L 638.874, 386.376 L 633.787, 384.196 L 637.239, 379.473 L 660.127, 389.282 L 627.248, 433.969 L 604.36, 424.342 z "/>
<path style="fill:rgb(0, 0, 255);fill-opacity:0;fill-rule:evenodd;stroke:rgb(255, 0, 2);stroke-width:1;" d="M 500.272, 313.351 L 518.619, 288.465 L 513.896, 286.467 L 514.986, 284.65 L 523.524, 273.206 L 554.042, 286.104 L 544.596, 299.183 L 538.965, 296.821 L 534.787, 297.911 L 527.157, 308.447 L 535.15, 311.898 L 526.067, 324.251 L 500.272, 313.351 z "/>
<path style="fill:rgb(255, 255, 0);fill-opacity:0;fill-rule:evenodd;stroke:rgb(255, 0, 2);stroke-width:1;" d="M 728.792, 476.476 L 759.673, 434.696 L 771.48, 439.6 L 773.297, 437.239 L 776.203, 438.51 L 771.117, 445.595 L 768.029, 444.323 L 764.396, 449.228 L 777.475, 454.859 L 753.86, 487.193 L 728.792, 476.476 z "/>
<path style="fill:rgb(255, 0, 0);fill-opacity:0;fill-rule:evenodd;stroke:rgb(255, 0, 2);stroke-width:1;" d="M 37.7838, 601.635 L 51.0445, 583.106 L 96.2761, 602.18 L 79.564, 625.25 L 60.6721, 617.257 L 64.1235, 612.534 L 37.7838, 601.635 z "/>
<path style="fill:rgb(0, 255, 0);fill-opacity:0;fill-rule:evenodd;stroke:rgb(255, 0, 2);stroke-width:1;" d="M 91.0082, 753.497 L 107.539, 730.609 L 127.157, 738.783 L 134.423, 741.871 L 134.787, 743.869 L 132.607, 747.139 L 134.605, 748.047 L 134.968, 747.502 L 136.24, 747.321 L 152.225, 754.042 L 141.144, 769.119 L 114.986, 758.22 L 112.08, 762.216 L 91.0082, 753.497 z "/>
<path style="fill:rgb(0, 0, 255);fill-opacity:0;fill-rule:evenodd;stroke:rgb(255, 0, 2);stroke-width:1;" d="M 798.728, 627.43 L 814.714, 605.268 L 854.496, 621.98 L 838.51, 643.96 L 798.728, 627.43 z "/>
<path style="fill:rgb(255, 255, 0);fill-opacity:0;fill-rule:evenodd;stroke:rgb(255, 0, 2);stroke-width:1;" d="M 155.132, 774.024 L 161.308, 765.486 L 158.946, 764.578 L 164.033, 757.493 L 166.031, 758.22 L 172.934, 748.592 L 170.936, 747.866 L 182.016, 732.425 L 205.813, 742.416 L 194.55, 758.038 L 192.734, 757.312 L 186.376, 766.031 L 187.466, 766.576 L 182.016, 774.024 L 178.747, 772.752 L 172.57, 781.29 L 155.132, 774.024 z "/>
<path style="fill:rgb(255, 0, 0);fill-opacity:0;fill-rule:evenodd;stroke:rgb(255, 0, 2);stroke-width:1;" d="M 691.553, 310.082 L 692.28, 309.173 L 700.636, 297.911 L 707.72, 300.817 L 709.718, 298.274 L 705.54, 296.458 L 716.985, 281.017 L 714.078, 279.746 L 723.706, 266.485 L 724.069, 265.94 L 730.972, 268.847 L 745.141, 274.841 L 712.625, 318.983 L 691.553, 310.082 z "/>
<path style="fill:rgb(0, 255, 0);fill-opacity:0;fill-rule:evenodd;stroke:rgb(255, 0, 2);stroke-width:1;" d="M 885.74, 158.401 L 916.803, 116.076 L 936.966, 124.796 L 907.902, 164.396 L 905.904, 166.939 L 885.74, 158.401 z "/>
<path style="fill:rgb(0, 0, 255);fill-opacity:0;fill-rule:evenodd;stroke:rgb(255, 0, 2);stroke-width:1;" d="M 936.421, 90.6449 L 966.939, 49.228 L 985.286, 57.0391 L 981.471, 62.1253 L 984.015, 63.2153 L 957.13, 99.5459 L 936.421, 90.6449 z "/>
<path style="fill:rgb(255, 255, 0);fill-opacity:0;fill-rule:evenodd;stroke:rgb(255, 0, 2);stroke-width:1;" d="M 179.473, 784.196 L 184.378, 777.475 L 185.286, 777.838 L 186.739, 775.84 L 183.651, 774.569 L 188.919, 767.121 L 190.554, 767.847 L 196.912, 758.946 L 194.55, 758.038 L 205.813, 742.416 L 229.428, 752.225 L 218.165, 767.847 L 215.804, 766.757 L 208.538, 776.93 L 209.628, 777.475 L 205.268, 783.651 L 202.361, 782.38 L 201.09, 784.378 L 201.998, 784.741 L 197.094, 791.644 L 179.473, 784.196 z "/>
<path style="fill:rgb(255, 0, 0);fill-opacity:0;fill-rule:evenodd;stroke:rgb(255, 0, 2);stroke-width:1;" d="M 728.429, 261.217 L 735.513, 251.589 L 737.693, 252.498 L 752.225, 232.698 L 750.954, 230.699 L 757.493, 221.435 L 774.932, 228.883 L 775.658, 229.246 L 776.385, 230.154 L 776.567, 231.244 L 776.567, 231.789 L 745.141, 274.841 L 730.972, 268.847 L 734.605, 263.76 L 728.429, 261.217 z "/>
<path style="fill:rgb(0, 255, 0);fill-opacity:0;fill-rule:evenodd;stroke:rgb(255, 0, 2);stroke-width:1;" d="M 110.445, 435.241 L 127.52, 411.807 L 129.337, 409.264 L 160.581, 422.343 L 141.508, 448.32 L 110.445, 435.241 z "/>
<path style="fill:rgb(0, 0, 255);fill-opacity:0;fill-rule:evenodd;stroke:rgb(255, 0, 2);stroke-width:1;" d="M 571.299, 345.867 L 577.293, 337.511 L 574.569, 336.421 L 588.193, 317.711 L 587.466, 316.076 L 596.185, 304.087 L 619.437, 313.896 L 610.718, 325.886 L 608.174, 326.249 L 594.55, 344.959 L 591.826, 343.688 L 585.831, 352.044 L 571.299, 345.867 z "/>
<path style="fill:rgb(255, 255, 0);fill-opacity:0;fill-rule:evenodd;stroke:rgb(255, 0, 2);stroke-width:1;" d="M 202.18, 789.827 L 218.165, 767.847 L 229.428, 752.225 L 253.769, 762.398 L 245.05, 774.387 L 233.061, 769.301 L 231.063, 772.025 L 233.424, 772.934 L 227.975, 780.381 L 223.615, 778.383 L 221.253, 781.653 L 235.604, 787.648 L 226.703, 800 L 202.18, 789.827 z "/>
<path style="fill:rgb(255, 0, 0);fill-opacity:0;fill-rule:evenodd;stroke:rgb(255, 0, 2);stroke-width:1;" d="M 607.266, 352.77 L 631.789, 319.164 L 654.133, 328.61 L 647.23, 338.056 L 629.428, 362.216 L 607.266, 352.77 z "/>
<path style="fill:rgb(0, 255, 0);fill-opacity:0;fill-rule:evenodd;stroke:rgb(255, 0, 2);stroke-width:1;" d="M 784.923, 416.349 L 803.27, 391.462 L 830.699, 403.27 L 824.523, 411.626 L 820.527, 417.075 L 813.806, 426.158 L 812.534, 427.975 L 808.538, 426.34 L 805.995, 429.973 L 799.273, 427.248 L 801.817, 423.433 L 794.914, 420.527 L 792.189, 424.16 L 785.649, 421.435 L 788.374, 417.802 L 784.923, 416.349 z "/>
<path style="fill:rgb(0, 0, 255);fill-opacity:0;fill-rule:evenodd;stroke:rgb(255, 0, 2);stroke-width:1;" d="M 707.539, 256.676 L 709.9, 253.406 L 719.891, 239.782 L 723.342, 239.055 L 733.697, 224.705 L 732.243, 222.707 L 738.965, 213.624 L 757.493, 221.435 L 750.954, 230.699 L 747.684, 230.699 L 737.33, 244.868 L 738.238, 247.775 L 735.513, 251.589 L 728.429, 261.217 L 726.067, 264.487 L 707.539, 256.676 z "/>
<path style="fill:rgb(255, 255, 0);fill-opacity:0;fill-rule:evenodd;stroke:rgb(255, 0, 2);stroke-width:1;" d="M 216.712, 379.473 L 232.879, 356.767 L 248.32, 363.124 L 248.865, 362.216 L 260.127, 366.757 L 237.421, 398.91 L 226.521, 394.369 L 230.518, 388.738 L 221.617, 385.104 L 222.525, 383.651 L 221.435, 381.471 L 216.712, 379.473 z "/>
<path style="fill:rgb(255, 0, 0);fill-opacity:0;fill-rule:evenodd;stroke:rgb(255, 0, 2);stroke-width:1;" d="M 280.291, 77.9292 L 311.898, 34.3324 L 329.337, 41.5985 L 319.709, 54.8592 L 301.726, 79.7457 L 294.096, 76.6576 L 290.1, 82.1072 L 280.291, 77.9292 z "/>
<path style="fill:rgb(0, 255, 0);fill-opacity:0;fill-rule:evenodd;stroke:rgb(255, 0, 2);stroke-width:1;" d="M 431.244, 424.705 L 439.6, 413.442 L 453.769, 394.369 L 476.476, 404.178 L 467.03, 417.075 L 457.221, 429.973 L 453.951, 434.514 L 431.244, 424.705 z "/>
<path style="fill:rgb(0, 0, 255);fill-opacity:0;fill-rule:evenodd;stroke:rgb(255, 0, 2);stroke-width:1;" d="M 462.125, 514.441 L 493.915, 471.571 L 509.9, 478.474 L 507.72, 481.381 L 478.111, 521.344 L 462.125, 514.441 z "/>
<path style="fill:rgb(255, 255, 0);fill-opacity:0;fill-rule:evenodd;stroke:rgb(255, 0, 2);stroke-width:1;" d="M 669.936, 544.051 L 702.089, 499.728 L 717.53, 506.267 L 700.817, 529.337 L 696.821, 534.787 L 689.555, 544.777 L 685.377, 550.59 L 675.386, 546.412 L 669.936, 544.051 z "/>
<path style="fill:rgb(255, 0, 0);fill-opacity:0;fill-rule:evenodd;stroke:rgb(255, 0, 2);stroke-width:1;" d="M 363.851, 755.495 L 385.468, 726.067 L 391.281, 728.429 L 397.275, 731.153 L 408.538, 735.876 L 386.921, 765.304 L 363.851, 755.495 z "/>
<path style="fill:rgb(0, 255, 0);fill-opacity:0;fill-rule:evenodd;stroke:rgb(255, 0, 2);stroke-width:1;" d="M 480.109, 589.282 L 482.652, 585.831 L 489.373, 576.748 L 491.008, 574.569 L 498.819, 564.033 L 521.708, 574.024 L 523.342, 578.02 L 506.449, 600.727 L 484.105, 590.917 L 480.109, 589.282 z "/>
<path style="fill:rgb(0, 0, 255);fill-opacity:0;fill-rule:evenodd;stroke:rgb(255, 0, 2);stroke-width:1;" d="M 446.322, 508.81 L 447.048, 507.902 L 454.859, 497.366 L 457.402, 493.915 L 474.114, 471.208 L 478.837, 465.032 L 493.915, 471.571 L 462.125, 514.441 L 461.399, 515.168 L 446.322, 508.81 z "/>
<path style="fill:rgb(255, 255, 0);fill-opacity:0;fill-rule:evenodd;stroke:rgb(255, 0, 2);stroke-width:1;" d="M 723.706, 149.137 L 732.243, 137.33 L 742.598, 123.161 L 748.774, 114.623 L 751.862, 110.627 L 769.119, 117.893 L 740.963, 156.403 L 723.706, 149.137 z "/>
<path style="fill:rgb(255, 0, 0);fill-opacity:0;fill-rule:evenodd;stroke:rgb(255, 0, 2);stroke-width:1;" d="M 985.104, 111.353 L 1013.99, 72.2979 L 1017.44, 67.5749 L 1032.33, 73.9328 L 1000.18, 117.711 L 985.104, 111.353 z "/>
<path style="fill:rgb(0, 255, 0);fill-opacity:0;fill-rule:evenodd;stroke:rgb(255, 0, 2);stroke-width:1;" d="M 48.5014, 429.064 L 53.2243, 422.525 L 53.2243, 420.345 L 58.129, 413.442 L 55.4042, 412.171 L 72.6612, 388.738 L 94.0963, 397.82 L 77.0209, 421.253 L 72.4796, 419.255 L 68.3015, 425.068 L 62.6703, 422.707 L 55.9491, 431.971 L 48.5014, 429.064 z "/>
<path style="fill:rgb(0, 0, 255);fill-opacity:0;fill-rule:evenodd;stroke:rgb(255, 0, 2);stroke-width:1;" d="M 388.919, 575.658 L 413.261, 543.324 L 421.798, 532.062 L 435.967, 538.238 L 427.793, 549.137 L 425.25, 552.407 L 420.163, 559.491 L 415.441, 565.668 L 413.442, 568.211 L 403.27, 582.016 L 388.919, 575.658 z "/>
<path style="fill:rgb(255, 255, 0);fill-opacity:0;fill-rule:evenodd;stroke:rgb(255, 0, 2);stroke-width:1;" d="M 503.542, 682.834 L 534.787, 640.327 L 548.955, 646.322 L 535.15, 665.032 L 535.15, 667.03 L 532.788, 670.118 L 531.698, 669.755 L 526.249, 677.384 L 526.249, 679.019 L 518.801, 689.373 L 503.542, 682.834 z "/>
<path style="fill:rgb(255, 0, 0);fill-opacity:0;fill-rule:evenodd;stroke:rgb(255, 0, 2);stroke-width:1;" d="M 414.351, 645.777 L 415.985, 643.415 L 437.784, 614.532 L 446.866, 602.361 L 460.854, 608.356 L 440.145, 636.149 L 428.338, 651.771 L 414.351, 645.777 z "/>
<path style="fill:rgb(0, 255, 0);fill-opacity:0;fill-rule:evenodd;stroke:rgb(255, 0, 2);stroke-width:1;" d="M 420.527, 585.831 L 435.967, 565.304 L 434.877, 564.941 L 439.6, 558.765 L 442.144, 555.313 L 450.318, 544.414 L 465.577, 550.954 L 449.955, 571.844 L 444.505, 579.11 L 442.325, 582.016 L 434.696, 592.007 L 420.527, 585.831 z "/>
<path style="fill:rgb(0, 0, 255);fill-opacity:0;fill-rule:evenodd;stroke:rgb(255, 0, 2);stroke-width:1;" d="M 464.668, 736.421 L 477.566, 718.619 L 508.629, 731.88 L 501.362, 741.689 L 509.718, 745.322 L 506.085, 750.227 L 504.814, 751.862 L 496.458, 748.229 L 495.55, 749.682 L 464.668, 736.421 z "/>
<path style="fill:rgb(255, 255, 0);fill-opacity:0;fill-rule:evenodd;stroke:rgb(255, 0, 2);stroke-width:1;" d="M 385.831, 632.334 L 393.097, 622.707 L 396.185, 621.98 L 417.257, 594.187 L 429.973, 599.637 L 421.98, 610.354 L 422.707, 613.442 L 403.996, 638.329 L 402.906, 639.6 L 385.831, 632.334 z "/>
<path style="fill:rgb(255, 0, 0);fill-opacity:0;fill-rule:evenodd;stroke:rgb(255, 0, 2);stroke-width:1;" d="M 985.468, 556.04 L 993.279, 545.322 L 1008.17, 551.68 L 1024.7, 558.583 L 1039.06, 564.578 L 1047.41, 568.029 L 1039.6, 578.747 L 985.468, 556.04 z "/>
<path style="fill:rgb(0, 255, 0);fill-opacity:0;fill-rule:evenodd;stroke:rgb(255, 0, 2);stroke-width:1;" d="M 418.529, 496.821 L 448.683, 456.312 L 462.67, 462.489 L 460.49, 465.395 L 443.778, 487.92 L 441.235, 491.553 L 433.243, 502.089 L 432.698, 502.816 L 418.529, 496.821 z "/>
<path style="fill:rgb(0, 0, 255);fill-opacity:0;fill-rule:evenodd;stroke:rgb(255, 0, 2);stroke-width:1;" d="M 910.445, 659.764 L 918.074, 649.41 L 973.115, 672.298 L 965.486, 682.834 L 910.445, 659.764 z "/>
<path style="fill:rgb(255, 255, 0);fill-opacity:0;fill-rule:evenodd;stroke:rgb(255, 0, 2);stroke-width:1;" d="M 456.857, 595.459 L 459.764, 591.826 L 458.492, 589.101 L 460.672, 586.194 L 464.487, 585.468 L 468.665, 580.018 L 466.122, 578.928 L 482.47, 556.948 L 498.819, 564.033 L 491.008, 574.569 L 487.193, 572.752 L 485.559, 575.114 L 489.373, 576.748 L 482.652, 585.831 L 480.291, 584.923 L 476.113, 590.554 L 477.203, 593.097 L 474.841, 596.185 L 471.39, 596.73 L 468.483, 600.545 L 456.857, 595.459 z "/>
<path style="fill:rgb(255, 0, 0);fill-opacity:0;fill-rule:evenodd;stroke:rgb(255, 0, 2);stroke-width:1;" d="M 440.69, 588.919 L 443.778, 584.923 L 442.325, 582.016 L 444.505, 579.11 L 448.501, 578.565 L 452.679, 572.934 L 449.955, 571.844 L 465.577, 550.954 L 466.303, 550.045 L 482.47, 556.948 L 466.122, 578.928 L 463.579, 577.838 L 459.401, 583.47 L 460.672, 586.194 L 458.492, 589.101 L 454.678, 589.646 L 451.589, 593.642 L 440.69, 588.919 z "/>
<path style="fill:rgb(0, 255, 0);fill-opacity:0;fill-rule:evenodd;stroke:rgb(255, 0, 2);stroke-width:1;" d="M 202.725, 604.541 L 208.538, 596.549 L 212.716, 594.55 L 264.305, 616.53 L 256.494, 627.248 L 247.048, 623.252 L 233.606, 617.62 L 234.514, 616.349 L 216.53, 608.719 L 215.622, 609.991 L 202.725, 604.541 z "/>
<path style="fill:rgb(0, 0, 255);fill-opacity:0;fill-rule:evenodd;stroke:rgb(255, 0, 2);stroke-width:1;" d="M 285.377, 591.281 L 299.728, 572.207 L 303.542, 573.66 L 308.629, 566.939 L 309.9, 567.484 L 315.35, 560.218 L 310.445, 558.038 L 318.983, 546.594 L 331.517, 552.044 L 332.425, 552.407 L 329.882, 555.677 L 298.819, 597.094 L 285.377, 591.281 z "/>
<path style="fill:rgb(255, 255, 0);fill-opacity:0;fill-rule:evenodd;stroke:rgb(255, 0, 2);stroke-width:1;" d="M 451.953, 753.497 L 464.668, 736.421 L 495.55, 749.682 L 482.834, 766.757 L 475.568, 763.669 L 451.953, 753.497 z "/>
<path style="fill:rgb(255, 0, 0);fill-opacity:0;fill-rule:evenodd;stroke:rgb(255, 0, 2);stroke-width:1;" d="M 592.371, 653.224 L 599.273, 643.96 L 598.002, 641.78 L 600.727, 637.965 L 603.451, 637.965 L 605.631, 634.877 L 603.815, 634.151 L 607.811, 628.701 L 610.718, 629.973 L 612.352, 627.611 L 609.446, 626.34 L 616.167, 617.62 L 619.255, 613.261 L 634.332, 619.8 L 633.969, 620.345 L 624.523, 632.879 L 622.162, 631.971 L 620.527, 634.151 L 622.707, 635.241 L 618.71, 640.69 L 617.257, 639.964 L 615.077, 642.87 L 615.804, 644.505 L 615.622, 644.687 L 613.079, 648.138 L 610.536, 648.865 L 603.815, 658.129 L 592.371, 653.224 z "/>
<path style="fill:rgb(0, 255, 0);fill-opacity:0;fill-rule:evenodd;stroke:rgb(255, 0, 2);stroke-width:1;" d="M 268.12, 72.8429 L 279.201, 57.7657 L 298.274, 31.2443 L 299.728, 29.2461 L 311.898, 34.3324 L 280.291, 77.9292 L 268.12, 72.8429 z "/>
<path style="fill:rgb(0, 0, 255);fill-opacity:0;fill-rule:evenodd;stroke:rgb(255, 0, 2);stroke-width:1;" d="M 820.345, 364.396 L 839.964, 336.785 L 843.233, 335.876 L 848.138, 328.974 L 859.582, 333.697 L 854.678, 340.418 L 855.223, 343.143 L 835.604, 370.754 L 820.345, 364.396 z "/>
<path style="fill:rgb(255, 255, 0);fill-opacity:0;fill-rule:evenodd;stroke:rgb(255, 0, 2);stroke-width:1;" d="M 876.294, 471.39 L 880.654, 465.395 L 882.289, 466.122 L 884.65, 462.852 L 883.015, 462.125 L 886.467, 457.402 L 889.737, 458.856 L 892.28, 455.586 L 889.01, 454.133 L 893.915, 447.411 L 895.55, 448.138 L 897.911, 444.868 L 896.094, 444.142 L 903.361, 434.151 L 917.893, 440.327 L 894.46, 472.116 L 890.463, 477.566 L 876.294, 471.39 z "/>
<path style="fill:rgb(255, 0, 0);fill-opacity:0;fill-rule:evenodd;stroke:rgb(255, 0, 2);stroke-width:1;" d="M 606.721, 659.401 L 615.441, 647.775 L 616.712, 647.23 L 615.622, 644.687 L 615.804, 644.505 L 618.71, 640.69 L 622.707, 635.241 L 625.795, 636.512 L 627.43, 634.151 L 624.523, 632.879 L 633.969, 620.345 L 648.683, 626.703 L 639.237, 639.237 L 636.149, 637.965 L 634.514, 640.327 L 637.602, 641.599 L 630.518, 651.045 L 626.521, 651.589 L 626.885, 652.679 L 618.165, 664.305 L 606.721, 659.401 z "/>
<path style="fill:rgb(0, 255, 0);fill-opacity:0;fill-rule:evenodd;stroke:rgb(255, 0, 2);stroke-width:1;" d="M 310.808, 686.83 L 317.53, 677.384 L 316.985, 675.568 L 319.164, 672.661 L 319.346, 672.48 L 321.708, 671.753 L 326.067, 665.758 L 324.614, 665.213 L 328.247, 660.309 L 331.517, 661.58 L 332.607, 660.127 L 329.337, 658.674 L 337.511, 647.593 L 338.056, 646.685 L 352.407, 652.861 L 343.688, 664.85 L 340.418, 663.397 L 339.328, 665.032 L 342.598, 666.303 L 342.416, 666.667 L 338.965, 671.208 L 337.693, 670.663 L 333.333, 676.658 L 333.697, 678.474 L 331.335, 681.562 L 329.155, 682.289 L 322.252, 691.735 L 310.808, 686.83 z "/>
<path style="fill:rgb(0, 0, 255);fill-opacity:0;fill-rule:evenodd;stroke:rgb(255, 0, 2);stroke-width:1;" d="M 566.939, 794.55 L 575.295, 783.288 L 575.114, 781.29 L 582.198, 771.844 L 584.378, 772.752 L 587.103, 769.119 L 584.923, 768.211 L 594.55, 755.132 L 608.901, 761.126 L 599.092, 774.387 L 596.73, 773.297 L 594.005, 776.93 L 596.549, 778.02 L 589.464, 787.466 L 586.558, 788.193 L 578.202, 799.455 L 566.939, 794.55 z "/>
<path style="fill:rgb(255, 255, 0);fill-opacity:0;fill-rule:evenodd;stroke:rgb(255, 0, 2);stroke-width:1;" d="M 539.691, 781.108 L 549.137, 768.392 L 555.858, 759.31 L 561.671, 761.671 L 564.578, 757.856 L 558.765, 755.313 L 567.484, 743.506 L 580.563, 748.955 L 570.754, 762.216 L 568.029, 765.849 L 560.945, 775.295 L 548.047, 792.734 L 541.689, 790.009 L 546.231, 783.833 L 539.691, 781.108 z "/>
<path style="fill:rgb(255, 0, 0);fill-opacity:0;fill-rule:evenodd;stroke:rgb(255, 0, 2);stroke-width:1;" d="M 552.952, 788.556 L 561.308, 777.293 L 560.945, 775.295 L 568.029, 765.849 L 570.209, 766.757 L 572.934, 763.124 L 570.754, 762.216 L 580.563, 748.955 L 594.55, 755.132 L 584.923, 768.211 L 582.561, 767.121 L 579.837, 770.936 L 582.198, 771.844 L 575.114, 781.29 L 572.752, 782.198 L 564.396, 793.46 L 552.952, 788.556 z "/>
<path style="fill:rgb(0, 255, 0);fill-opacity:0;fill-rule:evenodd;stroke:rgb(255, 0, 2);stroke-width:1;" d="M 861.58, 465.213 L 867.575, 457.221 L 871.935, 451.226 L 875.749, 452.861 L 878.474, 449.046 L 874.659, 447.411 L 879.382, 441.235 L 881.199, 441.962 L 883.56, 438.874 L 881.744, 437.965 L 889.01, 427.975 L 903.361, 434.151 L 896.094, 444.142 L 894.46, 443.415 L 892.098, 446.685 L 893.915, 447.411 L 889.01, 454.133 L 886.285, 452.861 L 883.742, 456.312 L 886.467, 457.402 L 883.015, 462.125 L 881.017, 461.399 L 878.656, 464.668 L 880.654, 465.395 L 876.294, 471.39 L 861.58, 465.213 z "/>
<path style="fill:rgb(0, 0, 255);fill-opacity:0;fill-rule:evenodd;stroke:rgb(255, 0, 2);stroke-width:1;" d="M 621.798, 665.94 L 630.699, 653.951 L 631.971, 653.588 L 630.518, 651.045 L 637.602, 641.599 L 640.509, 642.87 L 642.144, 640.509 L 639.237, 639.237 L 648.683, 626.703 L 663.034, 632.879 L 661.944, 634.151 L 653.588, 645.413 L 650.681, 644.142 L 649.046, 646.503 L 651.953, 647.775 L 644.687, 657.221 L 641.417, 657.766 L 641.78, 658.674 L 632.698, 670.663 L 621.798, 665.94 z "/>
<path style="fill:rgb(255, 255, 0);fill-opacity:0;fill-rule:evenodd;stroke:rgb(255, 0, 2);stroke-width:1;" d="M 846.14, 460.127 L 853.224, 450.5 L 855.586, 449.955 L 858.856, 445.413 L 861.035, 446.322 L 864.124, 442.144 L 862.125, 441.235 L 867.938, 433.243 L 867.212, 431.244 L 868.12, 430.336 L 874.296, 421.798 L 889.01, 427.975 L 881.744, 437.965 L 879.382, 438.329 L 873.751, 446.14 L 871.571, 445.232 L 868.302, 449.591 L 870.481, 450.5 L 867.03, 455.223 L 867.575, 457.221 L 861.58, 465.213 L 860.854, 466.303 L 846.14, 460.127 z "/>
<path style="fill:rgb(255, 0, 0);fill-opacity:0;fill-rule:evenodd;stroke:rgb(255, 0, 2);stroke-width:1;" d="M 913.715, 788.556 L 920.254, 779.655 L 919.164, 777.293 L 921.708, 773.842 L 924.977, 773.479 L 926.975, 770.572 L 924.796, 769.664 L 928.61, 764.214 L 931.517, 765.486 L 933.515, 762.761 L 930.609, 761.49 L 938.965, 750.045 L 954.042, 756.403 L 945.686, 767.847 L 943.143, 766.757 L 941.144, 769.482 L 943.506, 770.572 L 939.691, 776.022 L 937.693, 775.114 L 935.695, 777.838 L 936.603, 780.2 L 934.06, 783.651 L 930.972, 784.196 L 924.614, 793.097 L 913.715, 788.556 z "/>
<path style="fill:rgb(0, 255, 0);fill-opacity:0;fill-rule:evenodd;stroke:rgb(255, 0, 2);stroke-width:1;" d="M 368.574, 708.084 L 376.748, 696.821 L 377.112, 696.458 L 380.381, 697.729 L 384.741, 691.916 L 381.29, 690.463 L 385.468, 684.832 L 394.914, 671.935 L 409.264, 677.929 L 408.174, 679.746 L 397.094, 694.641 L 395.095, 693.733 L 391.644, 698.274 L 393.824, 699.183 L 392.552, 700.817 L 382.925, 714.078 L 368.574, 708.084 z "/>
<path style="fill:rgb(0, 0, 255);fill-opacity:0;fill-rule:evenodd;stroke:rgb(255, 0, 2);stroke-width:1;" d="M 371.117, 627.066 L 379.655, 615.804 L 380.381, 614.896 L 382.925, 615.985 L 385.468, 612.716 L 382.743, 611.444 L 390.736, 600.908 L 394.005, 602.18 L 393.824, 598.547 L 401.09, 588.919 L 412.352, 593.824 L 405.086, 603.451 L 400.908, 605.268 L 404.905, 606.903 L 396.912, 617.62 L 394.005, 616.349 L 391.644, 619.619 L 394.369, 620.89 L 393.097, 622.707 L 385.831, 632.334 L 385.286, 633.061 L 371.117, 627.066 z "/>
<path style="fill:rgb(255, 255, 0);fill-opacity:0;fill-rule:evenodd;stroke:rgb(255, 0, 2);stroke-width:1;" d="M 689.555, 544.777 L 696.821, 534.787 L 700.817, 536.421 L 704.814, 530.972 L 700.817, 529.337 L 717.53, 506.267 L 731.335, 512.08 L 723.887, 522.252 L 714.623, 534.968 L 713.17, 534.423 L 701.907, 549.864 L 689.555, 544.777 z "/>
<path style="fill:rgb(255, 0, 0);fill-opacity:0;fill-rule:evenodd;stroke:rgb(255, 0, 2);stroke-width:1;" d="M 433.243, 502.089 L 441.235, 491.553 L 443.415, 492.461 L 445.958, 489.01 L 443.778, 487.92 L 460.49, 465.395 L 474.114, 471.208 L 457.402, 493.915 L 454.496, 492.643 L 451.953, 496.094 L 454.859, 497.366 L 447.048, 507.902 L 433.243, 502.089 z "/>
<path style="fill:rgb(0, 255, 0);fill-opacity:0;fill-rule:evenodd;stroke:rgb(255, 0, 2);stroke-width:1;" d="M 526.794, 775.658 L 535.332, 764.033 L 534.968, 762.579 L 542.416, 752.589 L 544.414, 753.497 L 546.776, 750.227 L 544.777, 749.319 L 553.497, 737.511 L 567.484, 743.506 L 558.765, 755.313 L 556.948, 754.587 L 554.587, 757.675 L 556.403, 758.583 L 555.858, 759.31 L 549.137, 768.392 L 546.957, 768.574 L 538.056, 780.381 L 526.794, 775.658 z "/>
<path style="fill:rgb(0, 0, 255);fill-opacity:0;fill-rule:evenodd;stroke:rgb(255, 0, 2);stroke-width:1;" d="M 928.429, 794.732 L 934.968, 785.831 L 934.06, 783.651 L 936.603, 780.2 L 939.51, 779.473 L 941.508, 776.748 L 939.691, 776.022 L 943.506, 770.572 L 946.049, 771.662 L 948.047, 768.756 L 945.686, 767.847 L 954.042, 756.403 L 968.574, 762.398 L 960.218, 773.842 L 957.675, 772.934 L 955.677, 775.658 L 958.038, 776.748 L 954.223, 782.016 L 952.044, 781.108 L 950.045, 784.015 L 951.135, 786.194 L 948.592, 789.827 L 945.686, 790.372 L 939.146, 799.092 L 928.429, 794.732 z "/>
<path style="fill:rgb(255, 255, 0);fill-opacity:0;fill-rule:evenodd;stroke:rgb(255, 0, 2);stroke-width:1;" d="M 899.364, 782.38 L 905.722, 773.479 L 904.995, 771.48 L 905.904, 770.391 L 907.539, 767.847 L 910.263, 767.302 L 912.262, 764.396 L 910.627, 763.669 L 914.623, 758.401 L 916.985, 759.31 L 918.983, 756.585 L 916.621, 755.495 L 925.341, 743.506 L 939.51, 749.319 L 938.965, 750.045 L 930.609, 761.49 L 928.792, 760.581 L 926.612, 763.488 L 928.61, 764.214 L 924.796, 769.664 L 922.979, 768.937 L 920.981, 771.662 L 921.708, 773.842 L 919.164, 777.293 L 916.44, 778.02 L 909.9, 786.921 L 899.364, 782.38 z "/>
<path style="fill:rgb(255, 0, 0);fill-opacity:0;fill-rule:evenodd;stroke:rgb(255, 0, 2);stroke-width:1;" d="M 899.546, 489.555 L 907.357, 479.019 L 910.082, 480.291 L 952.589, 498.274 L 944.777, 508.81 L 902.634, 490.827 L 899.546, 489.555 z "/>
<path style="fill:rgb(0, 255, 0);fill-opacity:0;fill-rule:evenodd;stroke:rgb(255, 0, 2);stroke-width:1;" d="M 482.652, 306.63 L 489.555, 297.184 L 488.283, 294.823 L 490.463, 291.735 L 493.37, 291.008 L 495.731, 287.92 L 493.551, 287.012 L 499.728, 278.292 L 508.265, 266.848 L 523.524, 273.206 L 514.986, 284.65 L 511.172, 283.015 L 508.447, 286.83 L 510.99, 287.92 L 507.902, 292.098 L 505.904, 291.371 L 502.997, 295.368 L 503.724, 297.729 L 501.907, 300.272 L 500.454, 299.546 L 496.458, 304.814 L 493.733, 306.812 L 490.1, 311.717 L 488.283, 310.99 L 489.373, 309.355 L 482.652, 306.63 z "/>
<path style="fill:rgb(0, 0, 255);fill-opacity:0;fill-rule:evenodd;stroke:rgb(255, 0, 2);stroke-width:1;" d="M 910.082, 480.291 L 918.256, 469.028 L 926.249, 472.48 L 931.153, 474.659 L 960.763, 487.193 L 952.589, 498.274 L 910.082, 480.291 z "/>
<path style="fill:rgb(255, 255, 0);fill-opacity:0;fill-rule:evenodd;stroke:rgb(255, 0, 2);stroke-width:1;" d="M 833.969, 453.043 L 841.235, 443.233 L 842.507, 443.778 L 845.595, 439.6 L 842.688, 438.329 L 849.41, 429.246 L 851.408, 430.154 L 854.314, 426.158 L 853.406, 423.797 L 859.582, 415.441 L 874.296, 421.798 L 868.12, 430.336 L 865.395, 431.063 L 862.489, 434.877 L 864.124, 435.604 L 857.766, 444.323 L 855.041, 443.233 L 851.589, 448.138 L 852.498, 448.501 L 845.595, 457.947 L 833.969, 453.043 z "/>
<path style="fill:rgb(255, 0, 0);fill-opacity:0;fill-rule:evenodd;stroke:rgb(255, 0, 2);stroke-width:1;" d="M 858.492, 728.61 L 865.758, 718.438 L 912.443, 738.056 L 904.995, 748.229 L 858.492, 728.61 z "/>
<path style="fill:rgb(0, 255, 0);fill-opacity:0;fill-rule:evenodd;stroke:rgb(255, 0, 2);stroke-width:1;" d="M 453.406, 258.674 L 461.944, 247.048 L 485.014, 256.857 L 482.107, 260.854 L 485.74, 262.307 L 484.287, 264.305 L 492.643, 267.757 L 496.821, 261.944 L 508.265, 266.848 L 499.728, 278.292 L 478.837, 269.391 L 453.406, 258.674 z "/>
<path style="fill:rgb(0, 0, 255);fill-opacity:0;fill-rule:evenodd;stroke:rgb(255, 0, 2);stroke-width:1;" d="M 819.8, 447.048 L 827.793, 436.149 L 828.883, 436.512 L 831.244, 433.424 L 828.156, 432.153 L 834.696, 423.07 L 836.512, 423.797 L 839.419, 419.8 L 838.874, 417.62 L 845.05, 409.264 L 859.582, 415.441 L 853.406, 423.797 L 850.5, 424.705 L 847.775, 428.52 L 849.41, 429.246 L 842.688, 438.329 L 840.327, 437.421 L 837.239, 441.599 L 838.147, 441.962 L 831.063, 451.771 L 819.8, 447.048 z "/>
<path style="fill:rgb(255, 255, 0);fill-opacity:0;fill-rule:evenodd;stroke:rgb(255, 0, 2);stroke-width:1;" d="M 984.923, 191.826 L 1011.08, 156.04 L 1025.98, 162.398 L 1007.27, 188.011 L 1000.73, 185.286 L 993.46, 195.277 L 984.923, 191.826 z "/>
<path style="fill:rgb(255, 0, 0);fill-opacity:0;fill-rule:evenodd;stroke:rgb(255, 0, 2);stroke-width:1;" d="M 344.414, 766.757 L 355.313, 751.862 L 363.851, 755.495 L 386.921, 765.304 L 376.022, 780.018 L 344.414, 766.757 z "/>
<path style="fill:rgb(0, 255, 0);fill-opacity:0;fill-rule:evenodd;stroke:rgb(255, 0, 2);stroke-width:1;" d="M 411.807, 576.93 L 415.622, 571.662 L 413.442, 568.211 L 415.441, 565.668 L 418.892, 565.123 L 421.435, 561.853 L 420.163, 559.491 L 425.25, 552.407 L 428.52, 553.86 L 431.063, 550.59 L 427.793, 549.137 L 435.967, 538.238 L 450.318, 544.414 L 442.144, 555.313 L 439.6, 554.223 L 437.057, 557.675 L 439.6, 558.765 L 434.877, 564.941 L 434.514, 565.668 L 431.608, 566.213 L 429.246, 569.482 L 429.791, 571.844 L 427.793, 574.387 L 424.705, 575.477 L 420.708, 580.745 L 411.807, 576.93 z "/>
<path style="fill:rgb(0, 0, 255);fill-opacity:0;fill-rule:evenodd;stroke:rgb(255, 0, 2);stroke-width:1;" d="M 804.905, 440.69 L 811.989, 430.881 L 813.806, 431.608 L 816.894, 427.43 L 813.806, 426.158 L 820.527, 417.075 L 822.343, 417.802 L 825.25, 413.806 L 824.523, 411.626 L 830.699, 403.27 L 845.05, 409.264 L 838.874, 417.62 L 835.967, 418.347 L 833.061, 422.343 L 834.696, 423.07 L 828.156, 432.153 L 825.795, 431.244 L 822.525, 435.422 L 823.797, 435.967 L 816.53, 445.777 L 804.905, 440.69 z "/>
<path style="fill:rgb(255, 255, 0);fill-opacity:0;fill-rule:evenodd;stroke:rgb(255, 0, 2);stroke-width:1;" d="M 826.158, 772.752 L 833.061, 763.306 L 848.32, 769.846 L 848.865, 771.48 L 868.665, 779.837 L 870.663, 779.292 L 879.746, 783.106 L 884.832, 785.104 L 877.929, 794.55 L 840.509, 778.747 L 826.158, 772.752 z "/>
<path style="fill:rgb(255, 0, 0);fill-opacity:0;fill-rule:evenodd;stroke:rgb(255, 0, 2);stroke-width:1;" d="M 541.689, 483.015 L 543.688, 480.109 L 551.499, 469.755 L 562.035, 455.586 L 570.209, 444.505 L 570.936, 443.597 L 585.468, 449.955 L 578.565, 459.401 L 577.475, 460.854 L 571.662, 458.311 L 569.301, 458.856 L 557.675, 474.478 L 559.491, 476.658 L 564.214, 478.656 L 556.222, 489.373 L 541.689, 483.015 z "/>
<path style="fill:rgb(0, 255, 0);fill-opacity:0;fill-rule:evenodd;stroke:rgb(255, 0, 2);stroke-width:1;" d="M 469.21, 610.536 L 484.105, 590.917 L 506.449, 600.727 L 491.553, 620.345 L 469.21, 610.536 z "/>
<path style="fill:rgb(0, 0, 255);fill-opacity:0;fill-rule:evenodd;stroke:rgb(255, 0, 2);stroke-width:1;" d="M 593.642, 351.68 L 594.187, 348.592 L 602.361, 337.511 L 604.905, 336.24 L 611.262, 327.52 L 610.718, 325.886 L 619.437, 313.896 L 631.789, 319.164 L 607.266, 352.77 L 604.541, 356.403 L 593.642, 351.68 z "/>
<path style="fill:rgb(255, 255, 0);fill-opacity:0;fill-rule:evenodd;stroke:rgb(255, 0, 2);stroke-width:1;" d="M 478.111, 521.344 L 507.72, 481.381 L 515.35, 484.65 L 514.441, 486.104 L 516.258, 486.83 L 511.353, 493.551 L 511.353, 495.731 L 509.355, 498.274 L 506.812, 499.546 L 497.366, 512.262 L 501.362, 514.078 L 491.735, 527.157 L 478.111, 521.344 z "/>
<path style="fill:rgb(255, 0, 0);fill-opacity:0;fill-rule:evenodd;stroke:rgb(255, 0, 2);stroke-width:1;" d="M 31.7893, 330.972 L 38.5104, 321.708 L 53.5876, 300.454 L 55.2225, 301.181 L 63.9419, 288.828 L 71.5713, 291.916 L 59.2189, 309.537 L 61.2171, 310.445 L 43.2334, 335.695 L 31.7893, 330.972 z "/>
<path style="fill:rgb(0, 255, 0);fill-opacity:0;fill-rule:evenodd;stroke:rgb(255, 0, 2);stroke-width:1;" d="M 379.292, 564.396 L 388.738, 552.044 L 397.275, 540.418 L 408.174, 526.067 L 421.798, 532.062 L 413.261, 543.324 L 407.084, 540.781 L 404.723, 543.688 L 407.448, 544.777 L 389.464, 568.756 L 379.292, 564.396 z "/>
<path style="fill:rgb(0, 0, 255);fill-opacity:0;fill-rule:evenodd;stroke:rgb(255, 0, 2);stroke-width:1;" d="M 475.931, 717.893 L 483.742, 707.539 L 516.258, 721.526 L 515.713, 722.434 L 523.887, 726.067 L 517.166, 735.15 L 508.81, 731.698 L 508.629, 731.88 L 477.566, 718.619 L 475.931, 717.893 z "/>
<path style="fill:rgb(255, 255, 0);fill-opacity:0;fill-rule:evenodd;stroke:rgb(255, 0, 2);stroke-width:1;" d="M 845.413, 746.412 L 851.953, 737.33 L 898.638, 756.948 L 893.006, 764.941 L 892.098, 766.031 L 845.413, 746.412 z "/>
<path style="fill:rgb(255, 0, 0);fill-opacity:0;fill-rule:evenodd;stroke:rgb(255, 0, 2);stroke-width:1;" d="M 835.604, 370.754 L 855.223, 343.143 L 857.584, 339.873 L 871.208, 345.504 L 867.393, 350.772 L 849.228, 376.385 L 835.604, 370.754 z "/>
<path style="fill:rgb(0, 255, 0);fill-opacity:0;fill-rule:evenodd;stroke:rgb(255, 0, 2);stroke-width:1;" d="M 554.405, 702.452 L 561.49, 692.825 L 582.925, 663.76 L 593.642, 668.302 L 580.018, 686.649 L 565.123, 706.994 L 554.405, 702.452 z "/>
<path style="fill:rgb(0, 0, 255);fill-opacity:0;fill-rule:evenodd;stroke:rgb(255, 0, 2);stroke-width:1;" d="M 851.953, 737.33 L 858.492, 728.61 L 904.995, 748.229 L 898.638, 756.948 L 851.953, 737.33 z "/>
<path style="fill:rgb(255, 255, 0);fill-opacity:0;fill-rule:evenodd;stroke:rgb(255, 0, 2);stroke-width:1;" d="M 37.2389, 277.748 L 43.96, 268.302 L 86.8302, 285.74 L 80.109, 295.368 L 71.5713, 291.916 L 63.9419, 288.828 L 37.2389, 277.748 z "/>
<path style="fill:rgb(255, 0, 0);fill-opacity:0;fill-rule:evenodd;stroke:rgb(255, 0, 2);stroke-width:1;" d="M 839.237, 754.768 L 845.413, 746.412 L 892.098, 766.031 L 885.922, 774.569 L 839.237, 754.768 z "/>
<path style="fill:rgb(0, 255, 0);fill-opacity:0;fill-rule:evenodd;stroke:rgb(255, 0, 2);stroke-width:1;" d="M 35.604, 485.014 L 63.2153, 446.866 L 64.4868, 445.232 L 70.4814, 447.775 L 65.3951, 455.041 L 63.5786, 456.131 L 61.5804, 458.856 L 67.9382, 461.399 L 47.2298, 489.918 L 35.604, 485.014 z "/>
<path style="fill:rgb(0, 0, 255);fill-opacity:0;fill-rule:evenodd;stroke:rgb(255, 0, 2);stroke-width:1;" d="M 833.061, 763.306 L 839.237, 754.768 L 885.922, 774.569 L 879.746, 783.106 L 870.663, 779.292 L 848.32, 769.846 L 833.061, 763.306 z "/>
<path style="fill:rgb(255, 255, 0);fill-opacity:0;fill-rule:evenodd;stroke:rgb(255, 0, 2);stroke-width:1;" d="M 666.848, 683.379 L 692.643, 648.683 L 703.724, 653.588 L 682.834, 681.744 L 677.929, 688.102 L 666.848, 683.379 z "/>
<path style="fill:rgb(255, 0, 0);fill-opacity:0;fill-rule:evenodd;stroke:rgb(255, 0, 2);stroke-width:1;" d="M 47.2298, 489.918 L 67.9382, 461.399 L 75.5677, 464.668 L 77.0209, 462.489 L 77.3842, 459.946 L 82.4705, 452.861 L 87.7384, 455.041 L 58.8556, 494.823 L 47.2298, 489.918 z "/>
<path style="fill:rgb(0, 255, 0);fill-opacity:0;fill-rule:evenodd;stroke:rgb(255, 0, 2);stroke-width:1;" d="M 58.8556, 494.823 L 87.7384, 455.041 L 91.5531, 456.494 L 87.3751, 462.307 L 90.8265, 463.76 L 83.5604, 473.751 L 88.2834, 475.931 L 70.8447, 499.909 L 58.8556, 494.823 z "/>
<path style="fill:rgb(0, 0, 255);fill-opacity:0;fill-rule:evenodd;stroke:rgb(255, 0, 2);stroke-width:1;" d="M 77.2025, 439.782 L 83.0154, 431.971 L 104.632, 402.18 L 115.713, 406.903 L 98.6376, 430.336 L 96.0945, 429.246 L 94.0963, 429.973 L 94.0963, 432.334 L 86.1035, 443.415 L 77.2025, 439.782 z "/>
<path style="fill:rgb(255, 255, 0);fill-opacity:0;fill-rule:evenodd;stroke:rgb(255, 0, 2);stroke-width:1;" d="M 770.936, 410.354 L 788.374, 386.739 L 789.282, 385.468 L 803.27, 391.462 L 784.923, 416.349 L 781.835, 414.896 L 779.11, 418.71 L 772.389, 415.804 L 774.932, 412.171 L 770.936, 410.354 z "/>
<path style="fill:rgb(255, 0, 0);fill-opacity:0;fill-rule:evenodd;stroke:rgb(255, 0, 2);stroke-width:1;" d="M 35.9673, 413.987 L 58.6739, 382.925 L 72.6612, 388.738 L 55.4042, 412.171 L 46.8665, 408.538 L 41.2352, 416.167 L 35.9673, 413.987 z "/>
<path style="fill:rgb(0, 255, 0);fill-opacity:0;fill-rule:evenodd;stroke:rgb(255, 0, 2);stroke-width:1;" d="M 336.603, 418.347 L 344.777, 407.084 L 377.475, 421.253 L 369.119, 432.334 L 364.214, 430.336 L 336.603, 418.347 z "/>
<path style="fill:rgb(0, 0, 255);fill-opacity:0;fill-rule:evenodd;stroke:rgb(255, 0, 2);stroke-width:1;" d="M 382.38, 724.614 L 392.916, 710.263 L 401.09, 713.715 L 400.182, 714.986 L 403.633, 716.44 L 404.541, 715.168 L 408.538, 716.985 L 419.074, 721.344 L 408.538, 735.876 L 397.275, 731.153 L 398.547, 729.519 L 392.552, 726.975 L 391.281, 728.429 L 385.468, 726.067 L 382.38, 724.614 z "/>
<path style="fill:rgb(255, 255, 0);fill-opacity:0;fill-rule:evenodd;stroke:rgb(255, 0, 2);stroke-width:1;" d="M 647.23, 338.056 L 654.133, 328.61 L 692.461, 344.959 L 685.559, 354.405 L 654.314, 341.144 L 647.23, 338.056 z "/>
<path style="fill:rgb(255, 0, 0);fill-opacity:0;fill-rule:evenodd;stroke:rgb(255, 0, 2);stroke-width:1;" d="M 24.5232, 480.291 L 25.7947, 478.656 L 43.4151, 454.496 L 49.0463, 456.676 L 52.6794, 451.408 L 52.6794, 448.32 L 55.9491, 443.778 L 63.2153, 446.866 L 35.604, 485.014 L 24.5232, 480.291 z "/>
<path style="fill:rgb(0, 255, 0);fill-opacity:0;fill-rule:evenodd;stroke:rgb(255, 0, 2);stroke-width:1;" d="M 379.473, 104.269 L 392.189, 86.8302 L 402.543, 72.4796 L 413.806, 77.0209 L 390.736, 108.992 L 379.473, 104.269 z "/>
<path style="fill:rgb(0, 0, 255);fill-opacity:0;fill-rule:evenodd;stroke:rgb(255, 0, 2);stroke-width:1;" d="M 403.996, 638.329 L 422.707, 613.442 L 425.613, 609.264 L 437.784, 614.532 L 415.985, 643.415 L 403.996, 638.329 z "/>
<path style="fill:rgb(255, 255, 0);fill-opacity:0;fill-rule:evenodd;stroke:rgb(255, 0, 2);stroke-width:1;" d="M 893.006, 764.941 L 898.638, 756.948 L 904.995, 748.229 L 912.443, 738.056 L 925.341, 743.506 L 916.621, 755.495 L 914.623, 758.401 L 910.627, 763.669 L 907.539, 767.847 L 905.904, 770.391 L 893.006, 764.941 z "/>
<path style="fill:rgb(255, 0, 0);fill-opacity:0;fill-rule:evenodd;stroke:rgb(255, 0, 2);stroke-width:1;" d="M 657.221, 679.201 L 667.393, 665.395 L 683.742, 643.597 L 693.37, 647.775 L 692.643, 648.683 L 666.848, 683.379 L 657.221, 679.201 z "/>
<path style="fill:rgb(0, 255, 0);fill-opacity:0;fill-rule:evenodd;stroke:rgb(255, 0, 2);stroke-width:1;" d="M 248.138, 723.342 L 269.936, 693.733 L 273.025, 689.555 L 279.927, 692.461 L 271.753, 703.724 L 276.113, 705.54 L 259.946, 727.52 L 259.401, 728.247 L 248.138, 723.342 z "/>
<path style="fill:rgb(0, 0, 255);fill-opacity:0;fill-rule:evenodd;stroke:rgb(255, 0, 2);stroke-width:1;" d="M 24.7048, 417.075 L 30.3361, 409.446 L 32.8792, 410.354 L 37.0572, 404.541 L 31.2443, 402.18 L 49.228, 377.475 L 59.4005, 381.653 L 58.6739, 382.925 L 35.9673, 413.987 L 31.6076, 419.982 L 24.7048, 417.075 z "/>
<path style="fill:rgb(255, 255, 0);fill-opacity:0;fill-rule:evenodd;stroke:rgb(255, 0, 2);stroke-width:1;" d="M 38.1471, 562.761 L 43.0518, 556.04 L 61.9437, 529.882 L 71.9346, 534.06 L 59.2189, 551.862 L 48.1381, 566.939 L 38.1471, 562.761 z "/>
<path style="fill:rgb(255, 0, 0);fill-opacity:0;fill-rule:evenodd;stroke:rgb(255, 0, 2);stroke-width:1;" d="M 952.952, 722.797 L 969.482, 699.909 L 972.025, 700.999 L 972.025, 698.274 L 977.657, 690.463 L 985.468, 693.551 L 978.383, 703.542 L 980.381, 704.45 L 963.851, 727.339 L 952.952, 722.797 z "/>
<path style="fill:rgb(0, 255, 0);fill-opacity:0;fill-rule:evenodd;stroke:rgb(255, 0, 2);stroke-width:1;" d="M 236.331, 718.438 L 252.861, 695.731 L 258.311, 697.911 L 263.397, 691.008 L 269.936, 693.733 L 248.138, 723.342 L 236.331, 718.438 z "/>
<path style="fill:rgb(0, 0, 255);fill-opacity:0;fill-rule:evenodd;stroke:rgb(255, 0, 2);stroke-width:1;" d="M 316.985, 752.77 L 317.711, 751.862 L 337.148, 725.341 L 339.51, 722.071 L 344.414, 724.251 L 347.139, 720.436 L 352.044, 722.434 L 348.592, 726.975 L 326.794, 756.767 L 316.985, 752.77 z "/>
<path style="fill:rgb(255, 255, 0);fill-opacity:0;fill-rule:evenodd;stroke:rgb(255, 0, 2);stroke-width:1;" d="M 294.641, 742.234 L 312.443, 717.893 L 315.168, 714.441 L 326.431, 719.164 L 325.522, 720.436 L 306.085, 746.957 L 294.641, 742.234 z "/>
<path style="fill:rgb(255, 0, 0);fill-opacity:0;fill-rule:evenodd;stroke:rgb(255, 0, 2);stroke-width:1;" d="M 638.692, 665.213 L 644.687, 657.221 L 651.953, 647.775 L 653.588, 645.413 L 661.944, 634.151 L 672.48, 638.692 L 656.131, 660.49 L 653.043, 659.219 L 653.224, 662.67 L 648.138, 669.391 L 638.692, 665.213 z "/>
<path style="fill:rgb(0, 255, 0);fill-opacity:0;fill-rule:evenodd;stroke:rgb(255, 0, 2);stroke-width:1;" d="M 306.085, 746.957 L 325.522, 720.436 L 337.148, 725.341 L 317.711, 751.862 L 306.085, 746.957 z "/>
<path style="fill:rgb(0, 0, 255);fill-opacity:0;fill-rule:evenodd;stroke:rgb(255, 0, 2);stroke-width:1;" d="M 408.538, 716.985 L 411.262, 713.351 L 413.079, 714.26 L 415.622, 710.627 L 413.806, 709.9 L 430.154, 687.557 L 440.509, 691.916 L 419.074, 721.344 L 408.538, 716.985 z "/>
<path style="fill:rgb(255, 255, 0);fill-opacity:0;fill-rule:evenodd;stroke:rgb(255, 0, 2);stroke-width:1;" d="M 326.794, 756.767 L 348.592, 726.975 L 351.68, 728.429 L 354.223, 724.977 L 360.4, 727.52 L 358.401, 730.245 L 336.058, 760.763 L 326.794, 756.767 z "/>
<path style="fill:rgb(255, 0, 0);fill-opacity:0;fill-rule:evenodd;stroke:rgb(255, 0, 2);stroke-width:1;" d="M 940.418, 717.53 L 942.416, 714.805 L 956.948, 694.641 L 969.482, 699.909 L 952.952, 722.797 L 940.418, 717.53 z "/>
<path style="fill:rgb(0, 255, 0);fill-opacity:0;fill-rule:evenodd;stroke:rgb(255, 0, 2);stroke-width:1;" d="M 336.058, 760.763 L 358.401, 730.245 L 362.761, 732.062 L 359.128, 737.148 L 364.396, 739.328 L 355.313, 751.862 L 344.414, 766.757 L 343.869, 767.484 L 339.146, 765.668 L 341.144, 762.943 L 336.058, 760.763 z "/>
<path style="fill:rgb(0, 0, 255);fill-opacity:0;fill-rule:evenodd;stroke:rgb(255, 0, 2);stroke-width:1;" d="M 77.0209, 421.253 L 94.0963, 397.82 L 104.632, 402.18 L 83.0154, 431.971 L 77.7475, 429.791 L 82.2888, 423.433 L 77.0209, 421.253 z "/>
<path style="fill:rgb(255, 255, 0);fill-opacity:0;fill-rule:evenodd;stroke:rgb(255, 0, 2);stroke-width:1;" d="M 98.6376, 430.336 L 115.713, 406.903 L 127.52, 411.807 L 110.445, 435.241 L 98.6376, 430.336 z "/>
<path style="fill:rgb(255, 0, 0);fill-opacity:0;fill-rule:evenodd;stroke:rgb(255, 0, 2);stroke-width:1;" d="M 635.059, 367.302 L 641.599, 358.401 L 672.843, 371.844 L 666.485, 380.563 L 635.059, 367.302 z "/>
<path style="fill:rgb(0, 255, 0);fill-opacity:0;fill-rule:evenodd;stroke:rgb(255, 0, 2);stroke-width:1;" d="M 647.775, 349.864 L 654.314, 341.144 L 685.559, 354.405 L 679.201, 363.124 L 647.775, 349.864 z "/>
<path style="fill:rgb(0, 0, 255);fill-opacity:0;fill-rule:evenodd;stroke:rgb(255, 0, 2);stroke-width:1;" d="M 963.851, 727.339 L 980.381, 704.45 L 992.552, 709.537 L 976.385, 731.88 L 976.022, 732.425 L 963.851, 727.339 z "/>
<path style="fill:rgb(255, 255, 0);fill-opacity:0;fill-rule:evenodd;stroke:rgb(255, 0, 2);stroke-width:1;" d="M 70.8447, 499.909 L 88.2834, 475.931 L 99.7275, 480.654 L 93.5513, 489.192 L 82.2888, 504.632 L 70.8447, 499.909 z "/>
<path style="fill:rgb(255, 0, 0);fill-opacity:0;fill-rule:evenodd;stroke:rgb(255, 0, 2);stroke-width:1;" d="M 628.701, 376.022 L 635.059, 367.302 L 666.485, 380.563 L 660.127, 389.282 L 637.239, 379.473 L 628.701, 376.022 z "/>
<path style="fill:rgb(0, 255, 0);fill-opacity:0;fill-rule:evenodd;stroke:rgb(255, 0, 2);stroke-width:1;" d="M 641.599, 358.401 L 647.775, 349.864 L 679.201, 363.124 L 672.843, 371.844 L 641.599, 358.401 z "/>
<path style="fill:rgb(0, 0, 255);fill-opacity:0;fill-rule:evenodd;stroke:rgb(255, 0, 2);stroke-width:1;" d="M 23.7965, 556.767 L 27.4296, 551.68 L 31.2443, 550.772 L 25.0681, 548.229 L 43.7784, 522.252 L 52.861, 526.067 L 34.1508, 552.044 L 29.0645, 558.946 L 23.7965, 556.767 z "/>
<path style="fill:rgb(255, 255, 0);fill-opacity:0;fill-rule:evenodd;stroke:rgb(255, 0, 2);stroke-width:1;" d="M 29.0645, 558.946 L 34.1508, 552.044 L 52.861, 526.067 L 61.9437, 529.882 L 43.0518, 556.04 L 37.2389, 553.497 L 37.0572, 556.948 L 34.1508, 560.945 L 29.0645, 558.946 z "/>
<path style="fill:rgb(255, 0, 0);fill-opacity:0;fill-rule:evenodd;stroke:rgb(255, 0, 2);stroke-width:1;" d="M 283.197, 737.33 L 299.364, 715.35 L 307.357, 718.801 L 308.992, 716.44 L 312.443, 717.893 L 294.641, 742.234 L 283.197, 737.33 z "/>
<path style="fill:rgb(0, 255, 0);fill-opacity:0;fill-rule:evenodd;stroke:rgb(255, 0, 2);stroke-width:1;" d="M 271.571, 732.425 L 287.738, 710.445 L 299.364, 715.35 L 283.197, 737.33 L 271.571, 732.425 z "/>
<path style="fill:rgb(0, 0, 255);fill-opacity:0;fill-rule:evenodd;stroke:rgb(255, 0, 2);stroke-width:1;" d="M 259.946, 727.52 L 276.113, 705.54 L 287.738, 710.445 L 271.571, 732.425 L 259.946, 727.52 z "/>
<path style="fill:rgb(255, 255, 0);fill-opacity:0;fill-rule:evenodd;stroke:rgb(255, 0, 2);stroke-width:1;" d="M 976.385, 731.88 L 992.552, 709.537 L 1004, 714.26 L 993.642, 728.429 L 987.648, 736.785 L 976.385, 731.88 z "/>
<path style="fill:rgb(255, 0, 0);fill-opacity:0;fill-rule:evenodd;stroke:rgb(255, 0, 2);stroke-width:1;" d="M 524.977, 758.401 L 543.688, 733.152 L 553.497, 737.511 L 544.777, 749.319 L 542.416, 752.589 L 534.968, 762.579 L 524.977, 758.401 z "/>
<path style="fill:rgb(0, 255, 0);fill-opacity:0;fill-rule:evenodd;stroke:rgb(255, 0, 2);stroke-width:1;" d="M 656.131, 660.49 L 672.48, 638.692 L 683.742, 643.597 L 667.393, 665.395 L 656.131, 660.49 z "/>
<path style="fill:rgb(0, 0, 255);fill-opacity:0;fill-rule:evenodd;stroke:rgb(255, 0, 2);stroke-width:1;" d="M 506.085, 750.227 L 509.718, 745.322 L 517.166, 735.15 L 523.887, 726.067 L 524.614, 725.159 L 534.423, 729.337 L 515.895, 754.405 L 506.085, 750.227 z "/>
<path style="fill:rgb(255, 255, 0);fill-opacity:0;fill-rule:evenodd;stroke:rgb(255, 0, 2);stroke-width:1;" d="M 682.834, 681.744 L 703.724, 653.588 L 712.262, 657.221 L 692.825, 683.197 L 691.19, 685.377 L 682.834, 681.744 z "/>
<path style="fill:rgb(255, 0, 0);fill-opacity:0;fill-rule:evenodd;stroke:rgb(255, 0, 2);stroke-width:1;" d="M 392.552, 700.817 L 393.824, 699.183 L 397.094, 694.641 L 408.174, 679.746 L 419.074, 684.287 L 403.633, 705.54 L 392.552, 700.817 z "/>
<path style="fill:rgb(0, 255, 0);fill-opacity:0;fill-rule:evenodd;stroke:rgb(255, 0, 2);stroke-width:1;" d="M 515.895, 754.405 L 534.423, 729.337 L 543.688, 733.152 L 524.977, 758.401 L 515.895, 754.405 z "/>
<path style="fill:rgb(0, 0, 255);fill-opacity:0;fill-rule:evenodd;stroke:rgb(255, 0, 2);stroke-width:1;" d="M 403.633, 705.54 L 419.074, 684.287 L 419.982, 683.197 L 430.154, 687.557 L 413.806, 709.9 L 403.633, 705.54 z "/>
<path style="fill:rgb(255, 255, 0);fill-opacity:0;fill-rule:evenodd;stroke:rgb(255, 0, 2);stroke-width:1;" d="M 692.825, 683.197 L 712.262, 657.221 L 721.163, 661.217 L 711.717, 673.933 L 709.355, 672.843 L 707.357, 675.568 L 709.718, 676.658 L 701.907, 687.012 L 692.825, 683.197 z "/>
<path style="fill:rgb(255, 0, 0);fill-opacity:0;fill-rule:evenodd;stroke:rgb(255, 0, 2);stroke-width:1;" d="M 565.123, 706.994 L 580.018, 686.649 L 591.281, 691.371 L 576.385, 711.717 L 565.123, 706.994 z "/>
<path style="fill:rgb(0, 255, 0);fill-opacity:0;fill-rule:evenodd;stroke:rgb(255, 0, 2);stroke-width:1;" d="M 587.103, 716.258 L 601.998, 695.913 L 613.079, 700.636 L 612.352, 701.726 L 598.183, 720.981 L 587.103, 716.258 z "/>
<path style="fill:rgb(0, 0, 255);fill-opacity:0;fill-rule:evenodd;stroke:rgb(255, 0, 2);stroke-width:1;" d="M 576.385, 711.717 L 591.281, 691.371 L 601.998, 695.913 L 587.103, 716.258 L 576.385, 711.717 z "/>
<path style="fill:rgb(255, 255, 0);fill-opacity:0;fill-rule:evenodd;stroke:rgb(255, 0, 2);stroke-width:1;" d="M 609.264, 725.704 L 623.433, 706.449 L 634.514, 711.172 L 620.345, 730.427 L 609.264, 725.704 z "/>
<path style="fill:rgb(255, 0, 0);fill-opacity:0;fill-rule:evenodd;stroke:rgb(255, 0, 2);stroke-width:1;" d="M 598.183, 720.981 L 612.352, 701.726 L 623.433, 706.449 L 609.264, 725.704 L 598.183, 720.981 z "/>
<path style="fill:rgb(0, 255, 0);fill-opacity:0;fill-rule:evenodd;stroke:rgb(255, 0, 2);stroke-width:1;" d="M 620.345, 730.427 L 634.514, 711.172 L 645.595, 715.895 L 631.426, 735.15 L 620.345, 730.427 z "/>
<path style="fill:rgb(0, 0, 255);fill-opacity:0;fill-rule:evenodd;stroke:rgb(255, 0, 2);stroke-width:1;" d="M 631.426, 735.15 L 645.595, 715.895 L 656.312, 720.254 L 650.5, 728.065 L 642.144, 739.691 L 631.426, 735.15 z "/>
<path style="fill:rgb(255, 255, 0);fill-opacity:0;fill-rule:evenodd;stroke:rgb(255, 0, 2);stroke-width:1;" d="M 302.997, 665.94 L 303.906, 664.668 L 312.988, 652.316 L 321.344, 640.872 L 329.337, 644.323 L 310.99, 669.391 L 302.997, 665.94 z "/>
<path style="fill:rgb(255, 0, 0);fill-opacity:0;fill-rule:evenodd;stroke:rgb(255, 0, 2);stroke-width:1;" d="M 310.99, 669.391 L 329.337, 644.323 L 337.511, 647.593 L 329.337, 658.674 L 328.247, 660.309 L 324.614, 665.213 L 319.346, 672.48 L 319.164, 672.661 L 310.99, 669.391 z "/>
<path style="fill:rgb(0, 255, 0);fill-opacity:0;fill-rule:evenodd;stroke:rgb(255, 0, 2);stroke-width:1;" d="M 999.455, 700.454 L 1008.17, 688.465 L 1019.26, 693.006 L 1017.08, 696.094 L 1019.44, 697.003 L 1012.9, 706.085 L 999.455, 700.454 z "/>
<path style="fill:rgb(0, 0, 255);fill-opacity:0;fill-rule:evenodd;stroke:rgb(255, 0, 2);stroke-width:1;" d="M 4.17802, 112.08 L 20.7084, 89.555 L 36.149, 68.3015 L 105.177, 97.1844 L 60.4905, 158.765 L 30.3361, 146.049 L 20.7084, 142.053 L 33.4242, 124.432 L 4.17802, 112.08 z "/>
<path style="fill:rgb(255, 255, 0);fill-opacity:0;fill-rule:evenodd;stroke:rgb(255, 0, 2);stroke-width:1;" d="M 0, 321.344 L 30.881, 277.929 L 57.9473, 289.01 L 44.6866, 307.72 L 41.9619, 308.265 L 40.1453, 310.808 L 41.2352, 312.807 L 35.604, 320.618 L 38.5104, 321.708 L 31.7893, 330.972 L 29.9728, 333.697 L 0, 321.344 z "/>
<path style="fill:rgb(255, 0, 0);fill-opacity:0;fill-rule:evenodd;stroke:rgb(255, 0, 2);stroke-width:1;" d="M 12.5341, 626.34 L 25.7947, 608.356 L 57.584, 621.617 L 60.6721, 617.257 L 79.564, 625.25 L 63.3969, 647.593 L 12.5341, 626.34 z "/>
<path style="fill:rgb(0, 255, 0);fill-opacity:0;fill-rule:evenodd;stroke:rgb(255, 0, 2);stroke-width:1;" d="M 15.2589, 474.114 L 33.9691, 448.32 L 40.8719, 438.874 L 51.5895, 443.415 L 43.4151, 454.496 L 25.7947, 478.656 L 24.7048, 478.656 L 22.3433, 478.474 L 20.1635, 477.929 L 18.1653, 477.021 L 16.5304, 475.749 L 15.2589, 474.114 z "/>
<path style="fill:rgb(0, 0, 255);fill-opacity:0;fill-rule:evenodd;stroke:rgb(255, 0, 2);stroke-width:1;" d="M 16.3488, 152.225 L 19.9818, 147.139 L 27.4296, 150.227 L 30.3361, 146.049 L 60.4905, 158.765 L 53.7693, 167.847 L 16.3488, 152.225 z "/>
<path style="fill:rgb(255, 255, 0);fill-opacity:0;fill-rule:evenodd;stroke:rgb(255, 0, 2);stroke-width:1;" d="M 8.53769, 399.818 L 30.5177, 369.664 L 40.5086, 373.842 L 18.5286, 404.178 L 8.53769, 399.818 z "/>
<path style="fill:rgb(255, 0, 0);fill-opacity:0;fill-rule:evenodd;stroke:rgb(255, 0, 2);stroke-width:1;" d="M 12.8974, 156.948 L 16.3488, 152.225 L 53.7693, 167.847 L 47.4114, 176.748 L 17.257, 164.033 L 20.1635, 160.036 L 12.8974, 156.948 z "/>
<path style="fill:rgb(0, 255, 0);fill-opacity:0;fill-rule:evenodd;stroke:rgb(255, 0, 2);stroke-width:1;" d="M 10.7175, 551.135 L 34.5141, 518.256 L 43.7784, 522.252 L 25.0681, 548.229 L 18.5286, 545.504 L 18.8919, 548.955 L 15.8038, 553.315 L 10.7175, 551.135 z "/>
<path style="fill:rgb(0, 0, 255);fill-opacity:0;fill-rule:evenodd;stroke:rgb(255, 0, 2);stroke-width:1;" d="M 6.35786, 470.3 L 25.0681, 444.687 L 29.0645, 439.055 L 34.5141, 441.235 L 30.3361, 446.866 L 33.9691, 448.32 L 15.2589, 474.114 L 6.35786, 470.3 z "/>
<path style="fill:rgb(255, 255, 0);fill-opacity:0;fill-rule:evenodd;stroke:rgb(255, 0, 2);stroke-width:1;" d="M 18.5286, 404.178 L 40.5086, 373.842 L 49.228, 377.475 L 31.2443, 402.18 L 27.4296, 400.545 L 23.4332, 406.176 L 18.5286, 404.178 z "/>
<path style="fill:rgb(255, 0, 0);fill-opacity:0;fill-rule:evenodd;stroke:rgb(255, 0, 2);stroke-width:1;" d="M 171.662, 89.1916 L 184.741, 71.0263 L 188.374, 72.6612 L 206.54, 47.5931 L 224.886, 55.2225 L 237.421, 60.4905 L 233.243, 66.1217 L 231.426, 65.3951 L 225.431, 73.7511 L 237.784, 78.8374 L 245.232, 68.4832 L 244.323, 68.1199 L 248.683, 62.1253 L 249.591, 62.4886 L 257.584, 51.4078 L 255.404, 50.3179 L 256.857, 48.3197 L 249.773, 45.4133 L 268.847, 18.8919 L 277.384, 22.525 L 278.837, 20.5268 L 291.735, 25.7947 L 290.1, 27.7929 L 298.274, 31.2443 L 279.201, 57.7657 L 272.298, 54.8592 L 270.663, 56.8574 L 266.303, 55.0409 L 258.129, 66.485 L 258.856, 66.6667 L 254.678, 72.4796 L 253.406, 71.9346 L 246.503, 82.4705 L 258.492, 87.5568 L 261.762, 83.0154 L 276.476, 89.3733 L 269.936, 98.2743 L 276.839, 101.181 L 260.49, 123.706 L 243.96, 116.803 L 243.052, 118.074 L 239.782, 116.803 L 238.147, 118.983 L 219.255, 110.99 L 222.707, 106.267 L 202.361, 97.7293 L 198.91, 102.452 L 172.207, 91.1898 L 171.662, 89.1916 z "/>
<path style="fill:rgb(0, 255, 0);fill-opacity:0;fill-rule:evenodd;stroke:rgb(255, 0, 2);stroke-width:1;" d="M 824.523, 43.7784 L 847.593, 11.8074 L 855.949, 0 L 888.102, 13.2607 L 924.069, 28.3379 L 892.643, 72.1163 L 824.523, 43.7784 z "/>
<path style="fill:rgb(0, 0, 255);fill-opacity:0;fill-rule:evenodd;stroke:rgb(255, 0, 2);stroke-width:1;" d="M 609.264, 43.96 L 634.877, 8.71935 L 638.329, 10.1726 L 682.652, 28.8828 L 656.676, 64.3052 L 641.054, 57.584 L 644.505, 52.861 L 644.868, 49.4096 L 628.156, 42.3252 L 622.888, 49.7729 L 609.264, 43.96 z "/>
<path style="fill:rgb(255, 255, 0);fill-opacity:0;fill-rule:evenodd;stroke:rgb(255, 0, 2);stroke-width:1;" d="M 681.381, 63.0336 L 695.186, 44.3233 L 688.465, 41.4169 L 699.909, 25.7947 L 740.963, 43.0518 L 732.788, 54.3143 L 729.519, 58.8556 L 724.432, 56.6757 L 710.627, 75.5677 L 681.381, 63.0336 z "/>
<path style="fill:rgb(255, 0, 0);fill-opacity:0;fill-rule:evenodd;stroke:rgb(255, 0, 2);stroke-width:1;" d="M 202.906, 46.1399 L 234.877, 1.99818 L 256.857, 11.2625 L 230.699, 47.2298 L 224.886, 55.2225 L 206.54, 47.5931 L 202.906, 46.1399 z "/>
<path style="fill:rgb(0, 255, 0);fill-opacity:0;fill-rule:evenodd;stroke:rgb(255, 0, 2);stroke-width:1;" d="M 230.699, 47.2298 L 256.857, 11.2625 L 270.481, 16.8937 L 268.847, 18.8919 L 249.773, 45.4133 L 244.323, 53.0427 L 230.699, 47.2298 z "/>
</svg>