<?xml version="1.0" encoding="iso-8859-1" standalone="no"?>
<!DOCTYPE svg PUBLIC "-//W3C//DTD SVG 1.0//EN" "http://www.w3.org/TR/2001/REC-SVG-20010904/DTD/svg10.dtd">
<svg xmlns="http://www.w3.org/2000/svg" width="1089" height="800">
<path style="fill:rgb(255, 0, 0);fill-opacity:0;fill-rule:evenodd;stroke:rgb(0, 255, 56);stroke-width:1;" d="M 809.623, 510.941 L 823.872, 491.325 L 828.129, 491.511 L 849.41, 462.457 L 881.61, 456.165 L 938.978, 480.407 L 944.714, 480.037 L 1013.19, 508.906 L 1022.44, 496.322 L 1020.77, 492.621 L 1025.58, 491.881 L 1037.24, 475.966 L 1065.37, 487.809 L 1030.77, 535.184 L 1089.8, 560.167 L 1067.59, 590.886 L 1060.93, 587.925 L 1054.64, 596.438 L 1057.97, 604.21 L 1046.31, 599.399 L 1038.35, 610.317 L 1035.21, 609.022 L 1023.73, 624.751 L 967.476, 601.064 L 970.622, 596.623 L 962.85, 593.477 L 961.74, 594.957 L 886.607, 563.313 L 880.685, 564.238 L 820.356, 538.7 L 809.623, 510.941 z "/>
<path style="fill:rgb(0, 255, 0);fill-opacity:0;fill-rule:evenodd;stroke:rgb(0, 255, 56);stroke-width:1;" d="M 722.461, 627.527 L 744.853, 596.623 L 750.22, 599.028 L 749.109, 600.324 L 757.252, 603.84 L 758.362, 602.359 L 762.619, 604.21 L 773.907, 588.665 L 757.067, 581.633 L 777.238, 553.69 L 878.094, 595.882 L 871.247, 605.135 L 895.859, 615.498 L 898.82, 611.427 L 939.163, 628.267 L 936.017, 632.709 L 934.351, 632.154 L 930.835, 636.965 L 932.501, 637.52 L 926.764, 645.293 L 925.283, 644.552 L 921.582, 649.549 L 923.248, 650.104 L 917.696, 657.876 L 916.031, 657.136 L 912.7, 661.763 L 914.365, 662.503 L 908.443, 670.645 L 906.778, 669.905 L 903.447, 674.717 L 905.112, 675.272 L 899.56, 682.859 L 897.895, 682.304 L 894.194, 687.3 L 895.859, 688.041 L 884.386, 703.771 L 882.905, 703.215 L 879.389, 708.027 L 880.87, 708.767 L 877.909, 712.653 L 837.381, 695.628 L 840.527, 691.372 L 841.823, 691.927 L 845.154, 687.486 L 843.858, 686.93 L 849.41, 678.973 L 850.891, 679.528 L 854.407, 674.902 L 852.926, 674.161 L 856.072, 669.905 L 841.268, 663.798 L 833.865, 674.161 L 828.314, 671.941 L 829.424, 670.275 L 822.947, 667.684 L 821.837, 669.165 L 811.844, 664.909 L 812.954, 663.428 L 806.292, 660.652 L 805.182, 662.133 L 783.9, 653.25 L 785.01, 651.77 L 779.089, 649.179 L 777.978, 650.844 L 767.8, 646.588 L 768.91, 644.923 L 762.433, 642.332 L 761.323, 643.812 L 750.96, 639.556 L 752.07, 637.89 L 745.778, 635.3 L 744.668, 636.78 L 734.675, 632.709 L 735.785, 631.043 L 729.308, 628.452 L 728.198, 629.933 L 722.461, 627.527 z "/>
<path style="fill:rgb(0, 0, 255);fill-opacity:0;fill-rule:evenodd;stroke:rgb(0, 255, 56);stroke-width:1;" d="M 903.262, 114.55 L 945.084, 57.1825 L 989.683, 75.8732 L 1012.63, 44.2285 L 1042.98, 56.9975 L 978.21, 146.195 L 903.262, 114.55 z "/>
<path style="fill:rgb(255, 255, 0);fill-opacity:0;fill-rule:evenodd;stroke:rgb(0, 255, 56);stroke-width:1;" d="M 222.623, 762.804 L 241.869, 737.081 L 244.275, 733.75 L 248.161, 735.415 L 258.709, 721.351 L 254.823, 719.5 L 265.001, 705.991 L 286.653, 676.937 L 289.059, 673.606 L 309.97, 682.674 L 284.432, 717.095 L 285.913, 719.685 L 327.18, 737.451 L 354.013, 701.735 L 375.295, 710.803 L 348.092, 747.444 L 344.761, 751.885 L 337.173, 748.554 L 328.291, 760.583 L 335.878, 763.729 L 326.255, 776.683 L 308.86, 800 L 290.724, 792.228 L 308.489, 768.355 L 263.891, 749.109 L 260.745, 749.665 L 257.969, 748.739 L 241.314, 770.946 L 222.623, 762.804 z "/>
<path style="fill:rgb(255, 0, 0);fill-opacity:0;fill-rule:evenodd;stroke:rgb(0, 255, 56);stroke-width:1;" d="M 195.79, 249.827 L 211.52, 228.36 L 233.912, 237.798 L 247.421, 219.292 L 274.254, 230.766 L 266.482, 241.129 L 296.276, 253.713 L 307.009, 239.093 L 323.664, 246.125 L 273.329, 314.781 L 230.766, 296.831 L 240.759, 283.322 L 204.118, 267.962 L 212.445, 256.859 L 195.79, 249.827 z "/>
<path style="fill:rgb(0, 255, 0);fill-opacity:0;fill-rule:evenodd;stroke:rgb(0, 255, 56);stroke-width:1;" d="M 76.6135, 374.185 L 83.0904, 365.302 L 97.5249, 345.871 L 109.554, 350.867 L 122.508, 333.287 L 167.476, 352.348 L 172.103, 346.056 L 183.946, 351.053 L 175.249, 362.711 L 155.818, 389.359 L 145.455, 403.424 L 76.6135, 374.185 z "/>
<path style="fill:rgb(0, 0, 255);fill-opacity:0;fill-rule:evenodd;stroke:rgb(0, 255, 56);stroke-width:1;" d="M 721.721, 132.316 L 740.412, 106.593 L 750.405, 110.664 L 756.327, 102.336 L 766.32, 106.593 L 772.612, 97.895 L 812.584, 112.144 L 780.384, 156.743 L 721.721, 132.316 z "/>
<path style="fill:rgb(255, 255, 0);fill-opacity:0;fill-rule:evenodd;stroke:rgb(0, 255, 56);stroke-width:1;" d="M 491.881, 245.2 L 512.607, 216.886 L 590.701, 249.641 L 570.53, 277.4 L 570.16, 277.955 L 491.881, 245.2 z "/>
<path style="fill:rgb(255, 0, 0);fill-opacity:0;fill-rule:evenodd;stroke:rgb(0, 255, 56);stroke-width:1;" d="M 632.709, 767.245 L 641.962, 755.031 L 644.737, 756.142 L 656.026, 740.967 L 645.108, 736.341 L 643.812, 738.006 L 633.449, 733.38 L 647.328, 715.059 L 657.321, 719.5 L 656.211, 720.981 L 666.944, 725.607 L 678.418, 710.248 L 675.457, 708.952 L 685.265, 695.998 L 708.952, 706.361 L 702.29, 715.244 L 699.329, 719.315 L 696.368, 718.02 L 685.08, 733.195 L 695.998, 738.006 L 697.294, 736.155 L 708.212, 740.782 L 694.333, 759.288 L 684.155, 754.846 L 685.265, 753.181 L 673.791, 748.184 L 662.318, 763.544 L 666.204, 765.209 L 656.951, 777.793 L 632.709, 767.245 z "/>
<path style="fill:rgb(0, 255, 0);fill-opacity:0;fill-rule:evenodd;stroke:rgb(0, 255, 56);stroke-width:1;" d="M 386.398, 667.314 L 401.018, 646.773 L 485.589, 681.564 L 482.443, 686.005 L 487.069, 688.041 L 472.635, 708.027 L 387.879, 673.051 L 390.655, 669.165 L 386.398, 667.314 z "/>
<path style="fill:rgb(0, 0, 255);fill-opacity:0;fill-rule:evenodd;stroke:rgb(0, 255, 56);stroke-width:1;" d="M 38.6768, 331.992 L 54.2216, 310.71 L 90.3077, 325.885 L 82.1652, 336.988 L 98.8203, 344.02 L 97.5249, 345.871 L 83.0904, 365.302 L 76.6135, 374.185 L 63.6595, 368.818 L 70.3215, 359.75 L 46.4492, 349.572 L 54.4067, 338.654 L 38.6768, 331.992 z "/>
<path style="fill:rgb(255, 255, 0);fill-opacity:0;fill-rule:evenodd;stroke:rgb(0, 255, 56);stroke-width:1;" d="M 300.162, 644.182 L 307.564, 634.374 L 312.191, 636.41 L 314.781, 635.3 L 314.226, 633.449 L 333.472, 607.356 L 348.832, 613.833 L 343.65, 621.05 L 349.017, 623.271 L 350.127, 621.79 L 353.088, 622.901 L 357.159, 617.349 L 372.334, 623.641 L 355.679, 646.403 L 359.565, 648.068 L 347.721, 664.353 L 300.162, 644.182 z M 326.255, 642.702 L 336.248, 646.958 L 338.839, 646.033 L 337.728, 643.812 L 345.131, 633.634 L 336.988, 630.303 L 329.586, 640.111 L 326.625, 640.481 L 326.255, 642.702 z "/>
<path style="fill:rgb(255, 0, 0);fill-opacity:0;fill-rule:evenodd;stroke:rgb(0, 255, 56);stroke-width:1;" d="M 557.206, 199.491 L 559.796, 195.79 L 565.903, 187.277 L 571.455, 189.683 L 577.562, 180.985 L 572.195, 178.765 L 573.121, 177.284 L 581.078, 166.551 L 625.121, 184.872 L 599.584, 220.032 L 596.253, 218.737 L 597.918, 216.516 L 557.206, 199.491 z "/>
<path style="fill:rgb(0, 255, 0);fill-opacity:0;fill-rule:evenodd;stroke:rgb(0, 255, 56);stroke-width:1;" d="M 167.661, 344.205 L 183.206, 322.924 L 219.847, 338.469 L 211.89, 349.387 L 228.545, 356.604 L 226.879, 358.825 L 220.217, 368.078 L 212.445, 378.441 L 197.455, 372.149 L 175.249, 362.711 L 183.946, 351.053 L 172.103, 346.056 L 167.661, 344.205 z "/>
<path style="fill:rgb(0, 0, 255);fill-opacity:0;fill-rule:evenodd;stroke:rgb(0, 255, 56);stroke-width:1;" d="M 195.79, 249.827 L 211.52, 228.36 L 233.912, 237.798 L 248.346, 243.905 L 240.204, 255.008 L 256.489, 261.855 L 240.759, 283.322 L 230.211, 278.88 L 204.118, 267.962 L 212.445, 256.859 L 195.79, 249.827 z "/>
<path style="fill:rgb(255, 255, 0);fill-opacity:0;fill-rule:evenodd;stroke:rgb(0, 255, 56);stroke-width:1;" d="M 303.493, 401.943 L 319.223, 380.291 L 355.864, 395.651 L 347.536, 406.94 L 364.006, 413.787 L 348.647, 434.883 L 311.82, 419.523 L 319.593, 408.605 L 303.493, 401.943 z "/>
<path style="fill:rgb(255, 0, 0);fill-opacity:0;fill-rule:evenodd;stroke:rgb(0, 255, 56);stroke-width:1;" d="M 515.198, 347.721 L 530.743, 326.625 L 567.569, 342.17 L 559.426, 353.458 L 575.341, 360.12 L 559.796, 381.402 L 523.525, 366.227 L 531.853, 354.754 L 515.198, 347.721 z "/>
<path style="fill:rgb(0, 255, 0);fill-opacity:0;fill-rule:evenodd;stroke:rgb(0, 255, 56);stroke-width:1;" d="M 366.042, 326.07 L 381.587, 304.788 L 418.228, 320.333 L 410.086, 331.251 L 426.741, 338.284 L 425.445, 339.949 L 411.011, 359.565 L 374.37, 344.02 L 382.512, 333.102 L 366.042, 326.07 z "/>
<path style="fill:rgb(0, 0, 255);fill-opacity:0;fill-rule:evenodd;stroke:rgb(0, 255, 56);stroke-width:1;" d="M 38.6768, 331.992 L 54.2216, 310.71 L 90.3077, 325.885 L 82.1652, 336.988 L 98.8203, 344.02 L 97.5249, 345.871 L 83.0904, 365.302 L 70.3215, 359.75 L 46.4492, 349.572 L 54.4067, 338.654 L 38.6768, 331.992 z "/>
<path style="fill:rgb(255, 255, 0);fill-opacity:0;fill-rule:evenodd;stroke:rgb(0, 255, 56);stroke-width:1;" d="M 611.427, 532.778 L 627.157, 511.127 L 663.428, 526.116 L 654.916, 537.775 L 671.571, 544.622 L 656.396, 565.533 L 619.755, 550.173 L 627.527, 539.44 L 611.427, 532.778 z "/>
<path style="fill:rgb(255, 0, 0);fill-opacity:0;fill-rule:evenodd;stroke:rgb(0, 255, 56);stroke-width:1;" d="M 462.087, 510.756 L 477.816, 489.66 L 513.902, 505.02 L 505.945, 515.568 L 522.6, 522.6 L 506.685, 544.067 L 470.414, 528.337 L 478.186, 517.789 L 462.087, 510.756 z "/>
<path style="fill:rgb(0, 255, 0);fill-opacity:0;fill-rule:evenodd;stroke:rgb(0, 255, 56);stroke-width:1;" d="M 670.645, 461.346 L 685.635, 440.25 L 722.831, 455.424 L 714.689, 466.713 L 730.234, 473.19 L 715.244, 494.471 L 678.973, 479.667 L 687.115, 468.193 L 670.645, 461.346 z "/>
<path style="fill:rgb(0, 0, 255);fill-opacity:0;fill-rule:evenodd;stroke:rgb(0, 255, 56);stroke-width:1;" d="M 639.556, 400.648 L 655.101, 379.181 L 691.002, 394.171 L 682.674, 405.829 L 699.329, 412.676 L 684.155, 433.588 L 647.698, 418.413 L 655.656, 407.495 L 639.556, 400.648 z "/>
<path style="fill:rgb(255, 255, 0);fill-opacity:0;fill-rule:evenodd;stroke:rgb(0, 255, 56);stroke-width:1;" d="M 334.768, 462.642 L 350.682, 441.545 L 386.213, 457.09 L 378.256, 467.638 L 395.096, 475.04 L 379.181, 496.137 L 343.095, 480.407 L 351.238, 469.859 L 334.768, 462.642 z "/>
<path style="fill:rgb(255, 0, 0);fill-opacity:0;fill-rule:evenodd;stroke:rgb(0, 255, 56);stroke-width:1;" d="M 619.755, 88.087 L 632.524, 71.0618 L 634.559, 71.987 L 649.364, 52.186 L 647.513, 51.2607 L 653.065, 43.8584 L 680.638, 55.517 L 678.973, 57.7377 L 682.304, 59.2181 L 678.788, 63.8446 L 673.976, 61.8089 L 658.802, 82.1652 L 662.318, 83.6456 L 655.101, 93.4536 L 668.795, 99.1904 L 663.243, 106.778 L 619.755, 88.087 z "/>
<path style="fill:rgb(0, 255, 0);fill-opacity:0;fill-rule:evenodd;stroke:rgb(0, 255, 56);stroke-width:1;" d="M 741.152, 292.575 L 755.031, 273.699 L 795.929, 290.724 L 805.922, 276.845 L 815.915, 280.916 L 817.395, 281.656 L 821.282, 283.322 L 797.409, 316.262 L 790.562, 313.486 L 788.156, 312.746 L 753.551, 297.941 L 741.152, 292.575 z "/>
<path style="fill:rgb(0, 0, 255);fill-opacity:0;fill-rule:evenodd;stroke:rgb(0, 255, 56);stroke-width:1;" d="M 663.243, 106.778 L 668.795, 99.1904 L 677.492, 87.7169 L 695.073, 64.0296 L 723.757, 76.4284 L 691.927, 119.176 L 663.243, 106.778 z "/>
<path style="fill:rgb(255, 255, 0);fill-opacity:0;fill-rule:evenodd;stroke:rgb(0, 255, 56);stroke-width:1;" d="M 456.72, 651.214 L 459.681, 647.143 L 466.343, 637.89 L 481.888, 616.054 L 488.92, 606.431 L 515.013, 617.164 L 497.802, 641.221 L 482.813, 661.948 L 456.72, 651.214 z "/>
<path style="fill:rgb(255, 0, 0);fill-opacity:0;fill-rule:evenodd;stroke:rgb(0, 255, 56);stroke-width:1;" d="M 749.85, 354.939 L 766.505, 332.547 L 771.686, 334.768 L 774.462, 335.693 L 788.526, 341.615 L 782.42, 350.127 L 782.05, 351.608 L 785.195, 352.718 L 786.491, 350.867 L 801.851, 357.344 L 803.516, 358.455 L 806.847, 357.159 L 807.032, 354.939 L 810.178, 350.682 L 824.983, 356.974 L 808.328, 379.736 L 749.85, 354.939 z "/>
<path style="fill:rgb(0, 255, 0);fill-opacity:0;fill-rule:evenodd;stroke:rgb(0, 255, 56);stroke-width:1;" d="M 426, 219.847 L 443.026, 196.53 L 443.396, 196.715 L 459.866, 203.562 L 457.09, 207.634 L 455.239, 206.708 L 453.019, 209.669 L 470.044, 216.886 L 470.784, 215.776 L 472.08, 216.331 L 470.044, 219.107 L 474.3, 220.958 L 480.592, 212.26 L 496.877, 219.107 L 479.667, 242.424 L 426, 219.847 z "/>
<path style="fill:rgb(0, 0, 255);fill-opacity:0;fill-rule:evenodd;stroke:rgb(0, 255, 56);stroke-width:1;" d="M 676.382, 252.972 L 678.973, 249.456 L 696.183, 225.769 L 699.699, 220.958 L 702.475, 217.257 L 709.692, 220.402 L 709.877, 220.217 L 731.899, 229.84 L 731.899, 230.025 L 725.422, 238.538 L 708.582, 260.375 L 708.582, 260.56 L 705.066, 265.186 L 676.382, 252.972 z "/>
<path style="fill:rgb(255, 255, 0);fill-opacity:0;fill-rule:evenodd;stroke:rgb(0, 255, 56);stroke-width:1;" d="M 634.004, 147.49 L 637.335, 143.049 L 663.243, 107.703 L 677.122, 113.625 L 659.172, 138.052 L 663.058, 139.718 L 663.983, 138.607 L 674.161, 142.864 L 673.236, 143.974 L 688.411, 150.451 L 677.307, 165.811 L 652.51, 155.263 L 651.77, 156.188 L 641.591, 151.746 L 642.332, 151.006 L 634.004, 147.49 z "/>
<path style="fill:rgb(255, 0, 0);fill-opacity:0;fill-rule:evenodd;stroke:rgb(0, 255, 56);stroke-width:1;" d="M 155.818, 389.359 L 175.249, 362.711 L 197.455, 372.149 L 193.199, 378.071 L 187.647, 385.473 L 219.847, 399.167 L 210.224, 412.306 L 155.818, 389.359 z "/>
<path style="fill:rgb(0, 255, 0);fill-opacity:0;fill-rule:evenodd;stroke:rgb(0, 255, 56);stroke-width:1;" d="M 72.3572, 505.02 L 80.6847, 493.546 L 99.7455, 501.689 L 108.258, 490.215 L 142.679, 504.65 L 125.839, 527.782 L 114.18, 522.785 L 89.3824, 512.422 L 79.3893, 508.166 L 72.3572, 505.02 z "/>
<path style="fill:rgb(0, 0, 255);fill-opacity:0;fill-rule:evenodd;stroke:rgb(0, 255, 56);stroke-width:1;" d="M 277.585, 634.559 L 284.617, 624.936 L 299.237, 604.95 L 305.529, 596.253 L 309.785, 590.331 L 332.547, 599.954 L 307.564, 634.374 L 300.162, 644.182 L 277.585, 634.559 z "/>
<path style="fill:rgb(255, 255, 0);fill-opacity:0;fill-rule:evenodd;stroke:rgb(0, 255, 56);stroke-width:1;" d="M 193.754, 541.291 L 201.712, 530.002 L 241.499, 546.472 L 251.307, 550.544 L 255.193, 544.992 L 279.251, 554.985 L 267.222, 571.825 L 239.648, 560.352 L 193.754, 541.291 z "/>
<path style="fill:rgb(255, 0, 0);fill-opacity:0;fill-rule:evenodd;stroke:rgb(0, 255, 56);stroke-width:1;" d="M 691.557, 329.586 L 699.699, 318.483 L 705.066, 320.888 L 708.027, 320.703 L 716.539, 309.23 L 718.39, 306.824 L 716.724, 304.973 L 711.358, 302.753 L 720.056, 291.094 L 749.294, 303.678 L 740.782, 315.152 L 735.6, 312.931 L 732.454, 312.561 L 724.682, 322.924 L 732.454, 326.255 L 720.426, 342.17 L 691.557, 329.586 z "/>
<path style="fill:rgb(0, 255, 0);fill-opacity:0;fill-rule:evenodd;stroke:rgb(0, 255, 56);stroke-width:1;" d="M 632.894, 304.603 L 640.851, 293.685 L 647.143, 296.276 L 649.364, 296.091 L 659.912, 281.841 L 658.432, 280.361 L 652.51, 277.955 L 661.207, 266.111 L 690.632, 278.51 L 682.119, 290.169 L 677.492, 288.133 L 674.161, 287.948 L 663.613, 302.198 L 665.649, 304.048 L 670.46, 305.899 L 662.133, 317.002 L 632.894, 304.603 z "/>
<path style="fill:rgb(0, 0, 255);fill-opacity:0;fill-rule:evenodd;stroke:rgb(0, 255, 56);stroke-width:1;" d="M 662.133, 317.002 L 670.46, 305.899 L 675.827, 308.304 L 678.788, 308.86 L 689.706, 294.24 L 687.856, 292.575 L 682.119, 290.169 L 690.632, 278.51 L 720.056, 291.094 L 711.358, 302.753 L 706.546, 300.717 L 703.215, 300.347 L 692.852, 314.411 L 694.888, 316.447 L 699.699, 318.483 L 691.557, 329.586 L 662.133, 317.002 z "/>
<path style="fill:rgb(255, 255, 0);fill-opacity:0;fill-rule:evenodd;stroke:rgb(0, 255, 56);stroke-width:1;" d="M 604.025, 292.204 L 612.167, 281.286 L 616.979, 283.507 L 620.495, 283.692 L 630.858, 269.443 L 628.823, 267.407 L 623.826, 265.371 L 632.339, 253.713 L 661.207, 266.111 L 652.51, 277.955 L 647.328, 275.734 L 644.923, 275.364 L 634.374, 289.614 L 636.04, 291.464 L 640.851, 293.685 L 632.894, 304.603 L 604.025, 292.204 z "/>
<path style="fill:rgb(255, 0, 0);fill-opacity:0;fill-rule:evenodd;stroke:rgb(0, 255, 56);stroke-width:1;" d="M 774.462, 335.693 L 790.562, 313.486 L 797.409, 316.262 L 805.737, 319.778 L 803.886, 321.258 L 802.776, 322.739 L 801.48, 325.7 L 820.541, 333.657 L 824.057, 332.732 L 823.502, 331.622 L 828.869, 329.586 L 841.083, 334.768 L 824.983, 356.974 L 810.178, 350.682 L 812.769, 346.981 L 812.584, 344.39 L 793.523, 336.618 L 792.043, 337.173 L 790.932, 338.284 L 788.526, 341.615 L 774.462, 335.693 z "/>
<path style="fill:rgb(0, 255, 0);fill-opacity:0;fill-rule:evenodd;stroke:rgb(0, 255, 56);stroke-width:1;" d="M 575.526, 280.176 L 583.484, 269.072 L 586.445, 270.923 L 588.295, 271.848 L 590.886, 271.848 L 601.619, 257.229 L 600.324, 255.378 L 595.327, 253.343 L 603.84, 241.684 L 632.339, 253.713 L 623.826, 265.371 L 618.274, 262.966 L 615.684, 262.966 L 605.32, 277.215 L 606.061, 278.695 L 612.167, 281.286 L 604.025, 292.204 L 575.526, 280.176 z "/>
<path style="fill:rgb(0, 0, 255);fill-opacity:0;fill-rule:evenodd;stroke:rgb(0, 255, 56);stroke-width:1;" d="M 823.132, 149.711 L 836.641, 131.02 L 850.335, 136.757 L 855.147, 130.28 L 869.211, 136.202 L 864.585, 142.864 L 877.354, 148.23 L 864.03, 166.736 L 823.132, 149.711 z "/>
<path style="fill:rgb(255, 255, 0);fill-opacity:0;fill-rule:evenodd;stroke:rgb(0, 255, 56);stroke-width:1;" d="M 604.765, 141.013 L 611.427, 131.945 L 617.349, 134.536 L 619.755, 131.205 L 618.459, 130.65 L 637.89, 104.187 L 655.101, 111.589 L 635.67, 137.867 L 633.449, 136.942 L 631.043, 140.273 L 637.335, 143.049 L 634.004, 147.49 L 630.673, 152.117 L 604.765, 141.013 z "/>
<path style="fill:rgb(255, 0, 0);fill-opacity:0;fill-rule:evenodd;stroke:rgb(0, 255, 56);stroke-width:1;" d="M 464.122, 770.391 L 476.151, 754.291 L 520.379, 773.352 L 508.351, 789.267 L 467.268, 771.686 L 464.122, 770.391 z "/>
<path style="fill:rgb(0, 255, 0);fill-opacity:0;fill-rule:evenodd;stroke:rgb(0, 255, 56);stroke-width:1;" d="M 423.225, 782.235 L 441.73, 757.437 L 437.289, 755.401 L 447.282, 741.892 L 470.969, 751.885 L 463.752, 761.508 L 460.236, 760.028 L 457.275, 761.138 L 458.015, 762.989 L 438.769, 788.897 L 423.225, 782.235 z "/>
<path style="fill:rgb(0, 0, 255);fill-opacity:0;fill-rule:evenodd;stroke:rgb(0, 255, 56);stroke-width:1;" d="M 482.258, 721.536 L 490.215, 710.248 L 497.432, 713.208 L 508.536, 717.835 L 537.775, 729.864 L 548.693, 734.49 L 540.736, 745.593 L 482.258, 721.536 z "/>
<path style="fill:rgb(255, 255, 0);fill-opacity:0;fill-rule:evenodd;stroke:rgb(0, 255, 56);stroke-width:1;" d="M 267.222, 571.825 L 279.251, 554.985 L 299.792, 526.486 L 314.226, 532.408 L 313.486, 533.333 L 300.162, 552.024 L 286.098, 571.455 L 281.656, 577.747 L 267.222, 571.825 z "/>
<path style="fill:rgb(255, 0, 0);fill-opacity:0;fill-rule:evenodd;stroke:rgb(0, 255, 56);stroke-width:1;" d="M 691.927, 119.176 L 723.757, 76.4284 L 725.422, 74.2077 L 739.486, 80.3146 L 705.991, 125.283 L 691.927, 119.176 z "/>
<path style="fill:rgb(0, 255, 0);fill-opacity:0;fill-rule:evenodd;stroke:rgb(0, 255, 56);stroke-width:1;" d="M 460.791, 173.953 L 471.339, 159.149 L 485.034, 164.885 L 484.663, 165.441 L 486.884, 166.366 L 487.809, 168.031 L 501.874, 173.768 L 504.65, 173.768 L 517.974, 179.32 L 507.796, 193.569 L 494.471, 188.018 L 493.176, 186.167 L 479.112, 180.245 L 476.336, 180.245 L 460.791, 173.953 z "/>
<path style="fill:rgb(0, 0, 255);fill-opacity:0;fill-rule:evenodd;stroke:rgb(0, 255, 56);stroke-width:1;" d="M 673.976, 170.252 L 677.307, 165.811 L 688.411, 150.451 L 706.731, 125.653 L 720.981, 131.575 L 720.426, 132.501 L 710.062, 146.565 L 704.326, 154.337 L 688.226, 176.359 L 673.976, 170.252 z "/>
<path style="fill:rgb(255, 255, 0);fill-opacity:0;fill-rule:evenodd;stroke:rgb(0, 255, 56);stroke-width:1;" d="M 780.384, 156.743 L 812.584, 112.144 L 826.648, 118.066 L 804.071, 149.341 L 794.448, 162.665 L 780.384, 156.743 z "/>
<path style="fill:rgb(255, 0, 0);fill-opacity:0;fill-rule:evenodd;stroke:rgb(0, 255, 56);stroke-width:1;" d="M 340.319, 594.772 L 345.316, 587.925 L 341.8, 586.63 L 349.202, 576.266 L 355.679, 579.042 L 356.974, 577.932 L 363.636, 568.864 L 361.971, 566.458 L 357.529, 564.608 L 364.562, 554.8 L 386.583, 564.053 L 380.847, 572.01 L 379.736, 573.676 L 375.295, 571.825 L 372.704, 572.38 L 371.779, 574.416 L 372.334, 576.452 L 354.939, 600.879 L 340.319, 594.772 z "/>
<path style="fill:rgb(0, 255, 0);fill-opacity:0;fill-rule:evenodd;stroke:rgb(0, 255, 56);stroke-width:1;" d="M 379.181, 763.359 L 389.359, 749.665 L 394.541, 751.885 L 397.502, 751.885 L 404.164, 743.003 L 403.053, 740.782 L 397.687, 738.376 L 407.68, 724.867 L 427.851, 733.565 L 417.858, 747.074 L 412.491, 744.853 L 409.16, 745.038 L 402.683, 753.921 L 403.794, 755.771 L 409.53, 758.177 L 399.352, 772.056 L 379.181, 763.359 z "/>
<path style="fill:rgb(0, 0, 255);fill-opacity:0;fill-rule:evenodd;stroke:rgb(0, 255, 56);stroke-width:1;" d="M 318.853, 585.889 L 336.803, 560.722 L 338.654, 561.647 L 340.504, 559.056 L 339.579, 557.021 L 336.433, 555.725 L 343.28, 546.102 L 364.562, 554.8 L 357.529, 564.608 L 353.088, 562.757 L 349.017, 562.572 L 342.355, 571.825 L 341.985, 573.306 L 349.202, 576.266 L 341.8, 586.63 L 337.173, 584.594 L 332.362, 591.441 L 318.853, 585.889 z "/>
<path style="fill:rgb(255, 255, 0);fill-opacity:0;fill-rule:evenodd;stroke:rgb(0, 255, 56);stroke-width:1;" d="M 399.352, 772.056 L 409.53, 758.177 L 414.342, 760.213 L 417.673, 760.213 L 424.15, 751.515 L 422.299, 748.924 L 417.858, 747.074 L 427.851, 733.565 L 447.282, 741.892 L 437.289, 755.401 L 431.922, 753.181 L 428.776, 753.366 L 422.299, 762.248 L 424.15, 764.469 L 428.961, 766.505 L 418.783, 780.384 L 399.352, 772.056 z "/>
<path style="fill:rgb(255, 0, 0);fill-opacity:0;fill-rule:evenodd;stroke:rgb(0, 255, 56);stroke-width:1;" d="M 791.302, 220.402 L 810.363, 193.939 L 822.022, 177.839 L 835.716, 183.576 L 821.282, 203.562 L 804.997, 226.139 L 791.302, 220.402 z "/>
<path style="fill:rgb(0, 255, 0);fill-opacity:0;fill-rule:evenodd;stroke:rgb(0, 255, 56);stroke-width:1;" d="M 471.339, 159.149 L 487.254, 136.942 L 500.393, 142.309 L 495.767, 148.786 L 498.543, 151.191 L 501.689, 152.672 L 505.205, 147.86 L 516.678, 152.487 L 504.464, 169.697 L 486.884, 162.295 L 485.034, 164.885 L 471.339, 159.149 z "/>
<path style="fill:rgb(0, 0, 255);fill-opacity:0;fill-rule:evenodd;stroke:rgb(0, 255, 56);stroke-width:1;" d="M 467.453, 715.429 L 472.635, 708.027 L 487.069, 688.041 L 490.03, 683.969 L 491.14, 684.34 L 497.247, 675.827 L 510.941, 681.379 L 495.212, 703.4 L 492.991, 703.771 L 490.03, 707.842 L 491.325, 708.952 L 490.215, 710.248 L 482.258, 721.536 L 467.453, 715.429 z "/>
<path style="fill:rgb(255, 255, 0);fill-opacity:0;fill-rule:evenodd;stroke:rgb(0, 255, 56);stroke-width:1;" d="M 163.775, 737.451 L 183.021, 711.728 L 192.274, 699.329 L 206.708, 705.621 L 197.455, 717.835 L 178.21, 743.743 L 163.775, 737.451 z "/>
<path style="fill:rgb(255, 0, 0);fill-opacity:0;fill-rule:evenodd;stroke:rgb(0, 255, 56);stroke-width:1;" d="M 817.395, 281.656 L 825.908, 269.813 L 874.208, 290.169 L 865.695, 302.012 L 851.816, 296.276 L 851.631, 294.425 L 831.83, 286.098 L 829.794, 286.838 L 821.282, 283.322 L 817.395, 281.656 z "/>
<path style="fill:rgb(0, 255, 0);fill-opacity:0;fill-rule:evenodd;stroke:rgb(0, 255, 56);stroke-width:1;" d="M 588.48, 134.166 L 594.587, 126.024 L 597.918, 124.913 L 611.427, 106.593 L 610.872, 103.817 L 617.164, 95.3042 L 633.079, 102.151 L 626.787, 110.664 L 623.456, 111.774 L 618.274, 118.621 L 615.684, 117.511 L 612.538, 121.767 L 615.128, 123.063 L 609.577, 130.465 L 611.427, 131.945 L 604.765, 141.013 L 588.48, 134.166 z "/>
<path style="fill:rgb(0, 0, 255);fill-opacity:0;fill-rule:evenodd;stroke:rgb(0, 255, 56);stroke-width:1;" d="M 572.01, 127.134 L 573.306, 125.653 L 578.302, 118.806 L 581.818, 118.066 L 587, 110.849 L 589.961, 112.144 L 592.922, 107.888 L 590.146, 106.593 L 594.772, 100.116 L 594.587, 96.5996 L 600.694, 88.272 L 617.164, 95.3042 L 610.872, 103.817 L 607.171, 104.187 L 601.619, 111.959 L 600.139, 111.219 L 597.178, 115.29 L 598.658, 115.845 L 593.477, 122.878 L 594.032, 125.468 L 594.772, 125.653 L 594.587, 126.024 L 588.48, 134.166 L 572.01, 127.134 z "/>
<path style="fill:rgb(255, 255, 0);fill-opacity:0;fill-rule:evenodd;stroke:rgb(0, 255, 56);stroke-width:1;" d="M 47.1895, 739.486 L 55.7021, 727.828 L 100.486, 746.519 L 91.7881, 758.362 L 47.1895, 739.486 z "/>
<path style="fill:rgb(255, 0, 0);fill-opacity:0;fill-rule:evenodd;stroke:rgb(0, 255, 56);stroke-width:1;" d="M 104.372, 793.153 L 111.774, 782.975 L 129.355, 758.732 L 144.714, 765.209 L 126.949, 789.452 L 119.547, 799.63 L 104.372, 793.153 z "/>
<path style="fill:rgb(0, 255, 0);fill-opacity:0;fill-rule:evenodd;stroke:rgb(0, 255, 56);stroke-width:1;" d="M 512.792, 102.521 L 521.49, 90.4927 L 550.914, 103.262 L 565.163, 109.368 L 556.28, 121.212 L 512.792, 102.521 z "/>
<path style="fill:rgb(0, 0, 255);fill-opacity:0;fill-rule:evenodd;stroke:rgb(0, 255, 56);stroke-width:1;" d="M 286.098, 571.455 L 300.162, 552.024 L 327.365, 563.127 L 313.486, 582.373 L 286.098, 571.455 z "/>
<path style="fill:rgb(255, 255, 0);fill-opacity:0;fill-rule:evenodd;stroke:rgb(0, 255, 56);stroke-width:1;" d="M 906.593, 166.921 L 915.105, 155.077 L 958.964, 173.398 L 950.451, 185.242 L 921.212, 173.028 L 906.593, 166.921 z "/>
<path style="fill:rgb(255, 0, 0);fill-opacity:0;fill-rule:evenodd;stroke:rgb(0, 255, 56);stroke-width:1;" d="M 849.04, 244.46 L 857.368, 232.986 L 902.521, 251.862 L 894.194, 263.336 L 849.04, 244.46 z "/>
<path style="fill:rgb(0, 255, 0);fill-opacity:0;fill-rule:evenodd;stroke:rgb(0, 255, 56);stroke-width:1;" d="M 797.409, 316.262 L 821.282, 283.322 L 829.794, 286.838 L 836.641, 289.799 L 812.769, 322.739 L 805.737, 319.778 L 797.409, 316.262 z "/>
<path style="fill:rgb(0, 0, 255);fill-opacity:0;fill-rule:evenodd;stroke:rgb(0, 255, 56);stroke-width:1;" d="M 644.182, 244.645 L 650.659, 235.947 L 653.435, 234.837 L 656.766, 230.396 L 657.691, 230.951 L 661.022, 226.324 L 659.727, 225.769 L 666.574, 216.146 L 666.204, 213.926 L 672.866, 204.858 L 688.041, 211.335 L 681.564, 220.217 L 678.418, 220.773 L 671.571, 230.396 L 669.35, 229.47 L 666.019, 233.912 L 668.24, 234.837 L 664.539, 239.833 L 665.279, 242.054 L 658.802, 250.752 L 644.182, 244.645 z "/>
<path style="fill:rgb(255, 255, 0);fill-opacity:0;fill-rule:evenodd;stroke:rgb(0, 255, 56);stroke-width:1;" d="M 373.259, 607.171 L 380.477, 597.363 L 383.067, 596.808 L 393.986, 581.633 L 393.43, 579.042 L 400.278, 569.604 L 415.637, 576.081 L 408.235, 586.26 L 405.274, 586.815 L 395.096, 600.879 L 395.096, 602.73 L 387.694, 613.093 L 373.259, 607.171 z "/>
<path style="fill:rgb(255, 0, 0);fill-opacity:0;fill-rule:evenodd;stroke:rgb(0, 255, 56);stroke-width:1;" d="M 39.047, 750.59 L 47.1895, 739.486 L 91.7881, 758.362 L 83.6456, 769.466 L 73.8376, 765.394 L 39.047, 750.59 z "/>
<path style="fill:rgb(0, 255, 0);fill-opacity:0;fill-rule:evenodd;stroke:rgb(0, 255, 56);stroke-width:1;" d="M 702.105, 269.257 L 705.066, 265.186 L 708.582, 260.56 L 712.098, 259.82 L 715.614, 255.008 L 716.724, 255.563 L 720.611, 250.382 L 719.315, 249.827 L 725.977, 240.944 L 725.422, 238.538 L 731.899, 230.025 L 731.899, 229.84 L 746.334, 235.947 L 739.857, 244.645 L 737.081, 245.755 L 730.419, 254.823 L 728.013, 253.898 L 724.312, 258.709 L 726.718, 259.82 L 723.201, 264.446 L 723.387, 266.852 L 716.91, 275.549 L 702.105, 269.257 z "/>
<path style="fill:rgb(0, 0, 255);fill-opacity:0;fill-rule:evenodd;stroke:rgb(0, 255, 56);stroke-width:1;" d="M 614.758, 232.246 L 621.05, 223.734 L 624.011, 223.178 L 627.712, 218.182 L 629.008, 218.737 L 632.894, 213.555 L 631.413, 213 L 638.075, 203.932 L 637.52, 201.712 L 644.182, 192.644 L 658.802, 198.936 L 651.955, 208.189 L 648.994, 208.744 L 641.962, 218.182 L 639.741, 217.257 L 636.41, 221.883 L 638.631, 222.808 L 634.929, 227.805 L 636.04, 230.025 L 629.748, 238.538 L 614.758, 232.246 z "/>
<path style="fill:rgb(255, 255, 0);fill-opacity:0;fill-rule:evenodd;stroke:rgb(0, 255, 56);stroke-width:1;" d="M 538.145, 199.861 L 545.547, 189.683 L 548.508, 188.943 L 559.796, 173.398 L 559.611, 170.807 L 567.014, 160.629 L 581.078, 166.551 L 573.121, 177.284 L 570.9, 177.839 L 565.903, 184.687 L 563.868, 183.761 L 560.352, 188.573 L 562.387, 189.498 L 559.426, 193.569 L 559.796, 195.79 L 557.206, 199.491 L 552.579, 205.783 L 538.145, 199.861 z "/>
<path style="fill:rgb(255, 0, 0);fill-opacity:0;fill-rule:evenodd;stroke:rgb(0, 255, 56);stroke-width:1;" d="M 497.432, 713.208 L 505.76, 701.55 L 517.233, 706.361 L 517.789, 708.397 L 522.23, 710.248 L 523.525, 711.913 L 530.372, 714.689 L 532.778, 715.059 L 542.216, 718.76 L 546.102, 718.205 L 557.021, 722.646 L 548.693, 734.49 L 537.775, 729.864 L 536.294, 727.273 L 524.821, 722.461 L 525.931, 720.796 L 519.084, 718.02 L 517.974, 719.685 L 512.052, 717.095 L 508.536, 717.835 L 497.432, 713.208 z "/>
<path style="fill:rgb(0, 255, 0);fill-opacity:0;fill-rule:evenodd;stroke:rgb(0, 255, 56);stroke-width:1;" d="M 629.748, 238.538 L 636.04, 230.025 L 638.816, 229.47 L 642.517, 224.289 L 643.442, 224.659 L 646.773, 220.217 L 645.848, 219.847 L 652.88, 210.224 L 651.955, 208.189 L 658.802, 198.936 L 672.866, 204.858 L 666.204, 213.926 L 663.613, 214.851 L 656.766, 224.474 L 654.36, 223.363 L 651.029, 227.99 L 653.25, 228.915 L 650.104, 233.356 L 650.659, 235.947 L 644.182, 244.645 L 629.748, 238.538 z "/>
<path style="fill:rgb(0, 0, 255);fill-opacity:0;fill-rule:evenodd;stroke:rgb(0, 255, 56);stroke-width:1;" d="M 262.78, 628.452 L 269.813, 618.644 L 272.774, 618.089 L 278.51, 610.317 L 280.176, 611.057 L 284.062, 605.69 L 282.396, 605.135 L 285.172, 601.249 L 284.432, 598.658 L 290.909, 589.961 L 305.529, 596.253 L 299.237, 604.95 L 296.461, 605.876 L 293.5, 609.762 L 291.834, 609.022 L 287.948, 614.388 L 289.614, 615.128 L 284.062, 622.901 L 284.617, 624.936 L 277.585, 634.559 L 262.78, 628.452 z "/>
<path style="fill:rgb(255, 255, 0);fill-opacity:0;fill-rule:evenodd;stroke:rgb(0, 255, 56);stroke-width:1;" d="M 186.167, 551.839 L 193.754, 541.291 L 239.648, 560.352 L 232.061, 570.9 L 186.167, 551.839 z "/>
<path style="fill:rgb(255, 0, 0);fill-opacity:0;fill-rule:evenodd;stroke:rgb(0, 255, 56);stroke-width:1;" d="M 71.0618, 519.454 L 79.3893, 508.166 L 89.3824, 512.422 L 88.6421, 513.347 L 110.664, 522.785 L 114.18, 522.785 L 125.839, 527.782 L 117.511, 539.07 L 105.852, 534.074 L 104.557, 532.408 L 82.1652, 522.785 L 81.4249, 523.71 L 71.0618, 519.454 z "/>
<path style="fill:rgb(0, 255, 0);fill-opacity:0;fill-rule:evenodd;stroke:rgb(0, 255, 56);stroke-width:1;" d="M 445.616, 641.221 L 452.464, 631.969 L 454.499, 631.413 L 457.46, 627.342 L 459.681, 628.082 L 464.492, 621.42 L 462.272, 620.495 L 468.008, 612.723 L 468.008, 610.132 L 474.855, 600.509 L 488.92, 606.431 L 481.888, 616.054 L 479.297, 616.979 L 473.56, 624.936 L 471.154, 623.826 L 466.528, 630.303 L 468.934, 631.413 L 466.158, 635.3 L 466.343, 637.89 L 459.681, 647.143 L 445.616, 641.221 z "/>
<path style="fill:rgb(0, 0, 255);fill-opacity:0;fill-rule:evenodd;stroke:rgb(0, 255, 56);stroke-width:1;" d="M 32.0148, 531.483 L 39.047, 521.86 L 41.2676, 521.305 L 53.2963, 504.464 L 52.186, 503.909 L 58.2929, 495.397 L 72.9123, 501.504 L 67.1756, 509.461 L 65.325, 508.721 L 52.7412, 526.301 L 53.2963, 529.077 L 47.0044, 537.775 L 32.0148, 531.483 z "/>
<path style="fill:rgb(255, 255, 0);fill-opacity:0;fill-rule:evenodd;stroke:rgb(0, 255, 56);stroke-width:1;" d="M 248.161, 622.161 L 255.193, 612.723 L 258.154, 611.982 L 263.706, 604.21 L 265.741, 604.95 L 269.628, 599.584 L 267.592, 598.843 L 270.553, 594.957 L 269.813, 592.737 L 276.29, 583.854 L 290.909, 589.961 L 284.432, 598.658 L 281.471, 599.584 L 278.695, 603.47 L 277.4, 602.915 L 273.514, 608.281 L 274.809, 608.836 L 269.072, 616.609 L 269.813, 618.644 L 262.78, 628.452 L 248.161, 622.161 z "/>
<path style="fill:rgb(255, 0, 0);fill-opacity:0;fill-rule:evenodd;stroke:rgb(0, 255, 56);stroke-width:1;" d="M 219.292, 609.947 L 226.324, 600.324 L 228.915, 599.769 L 234.652, 591.811 L 236.687, 592.737 L 240.389, 587.555 L 238.538, 586.63 L 241.684, 582.188 L 241.129, 580.153 L 247.421, 571.64 L 262.04, 577.747 L 255.563, 586.63 L 252.602, 587.185 L 249.641, 591.256 L 247.606, 590.331 L 243.535, 595.882 L 245.57, 596.808 L 240.204, 604.395 L 240.944, 606.616 L 233.912, 616.239 L 219.292, 609.947 z "/>
<path style="fill:rgb(0, 255, 0);fill-opacity:0;fill-rule:evenodd;stroke:rgb(0, 255, 56);stroke-width:1;" d="M 513.532, 690.817 L 521.49, 679.528 L 532.593, 683.969 L 533.889, 686.56 L 537.96, 688.226 L 539.255, 690.076 L 546.657, 693.037 L 548.878, 692.667 L 559.241, 696.923 L 562.572, 696.368 L 572.75, 700.625 L 564.793, 711.913 L 553.875, 707.472 L 552.394, 705.066 L 540.551, 700.069 L 541.661, 698.589 L 535.369, 695.813 L 534.259, 697.479 L 527.782, 694.888 L 524.821, 695.443 L 513.532, 690.817 z "/>
<path style="fill:rgb(0, 0, 255);fill-opacity:0;fill-rule:evenodd;stroke:rgb(0, 255, 56);stroke-width:1;" d="M 658.802, 250.752 L 665.279, 242.054 L 668.24, 241.499 L 671.941, 236.502 L 672.681, 236.873 L 676.012, 232.246 L 675.272, 231.876 L 682.119, 222.438 L 681.564, 220.217 L 688.041, 211.335 L 702.475, 217.257 L 699.699, 220.958 L 696.183, 225.769 L 692.667, 226.879 L 686.005, 235.947 L 683.784, 235.022 L 679.898, 240.389 L 682.119, 241.314 L 678.788, 245.755 L 678.973, 249.456 L 676.382, 252.972 L 673.421, 257.044 L 658.802, 250.752 z "/>
<path style="fill:rgb(255, 255, 0);fill-opacity:0;fill-rule:evenodd;stroke:rgb(0, 255, 56);stroke-width:1;" d="M 732.824, 195.235 L 740.597, 184.502 L 742.817, 185.427 L 746.519, 180.06 L 744.483, 179.135 L 748.184, 174.138 L 751.885, 175.804 L 758.362, 166.736 L 754.291, 165.071 L 760.398, 156.743 L 775.758, 163.035 L 770.021, 171.177 L 765.579, 169.327 L 759.102, 178.58 L 763.359, 180.245 L 759.658, 185.427 L 755.216, 183.761 L 751.33, 189.128 L 755.586, 190.978 L 747.999, 201.527 L 732.824, 195.235 z "/>
<path style="fill:rgb(255, 0, 0);fill-opacity:0;fill-rule:evenodd;stroke:rgb(0, 255, 56);stroke-width:1;" d="M 505.76, 701.55 L 513.532, 690.817 L 524.821, 695.443 L 526.116, 697.294 L 532.223, 699.884 L 530.928, 701.55 L 537.59, 704.326 L 538.7, 702.66 L 550.729, 707.472 L 553.875, 707.472 L 564.793, 711.913 L 557.021, 722.646 L 546.102, 718.205 L 544.067, 715.984 L 534.814, 712.283 L 533.703, 710.248 L 527.226, 707.472 L 524.08, 707.657 L 519.824, 705.806 L 517.233, 706.361 L 505.76, 701.55 z "/>
<path style="fill:rgb(0, 255, 0);fill-opacity:0;fill-rule:evenodd;stroke:rgb(0, 255, 56);stroke-width:1;" d="M 233.912, 616.239 L 240.944, 606.616 L 243.35, 605.69 L 248.716, 598.103 L 250.567, 598.843 L 254.268, 593.662 L 252.602, 592.922 L 255.748, 588.48 L 255.563, 586.63 L 262.04, 577.747 L 276.29, 583.854 L 269.813, 592.737 L 266.667, 593.292 L 263.706, 597.178 L 262.225, 596.623 L 258.339, 601.804 L 259.82, 602.545 L 254.268, 610.317 L 255.193, 612.723 L 248.161, 622.161 L 233.912, 616.239 z "/>
<path style="fill:rgb(0, 0, 255);fill-opacity:0;fill-rule:evenodd;stroke:rgb(0, 255, 56);stroke-width:1;" d="M 233.912, 692.667 L 255.748, 663.428 L 270.923, 670.09 L 249.271, 699.144 L 245.57, 697.664 L 243.72, 700.069 L 237.243, 697.294 L 239.093, 694.703 L 233.912, 692.667 z "/>
<path style="fill:rgb(255, 255, 0);fill-opacity:0;fill-rule:evenodd;stroke:rgb(0, 255, 56);stroke-width:1;" d="M 63.1043, 530.372 L 71.0618, 519.454 L 81.4249, 523.71 L 80.6847, 524.636 L 102.706, 533.889 L 105.852, 534.074 L 117.511, 539.07 L 109.554, 549.988 L 98.08, 545.177 L 96.9697, 543.511 L 74.0227, 533.703 L 73.2824, 534.629 L 63.1043, 530.372 z "/>
<path style="fill:rgb(255, 0, 0);fill-opacity:0;fill-rule:evenodd;stroke:rgb(0, 255, 56);stroke-width:1;" d="M 804.071, 149.341 L 826.648, 118.066 L 841.453, 124.173 L 836.641, 131.02 L 823.132, 149.711 L 818.876, 155.448 L 804.071, 149.341 z "/>
<path style="fill:rgb(0, 255, 0);fill-opacity:0;fill-rule:evenodd;stroke:rgb(0, 255, 56);stroke-width:1;" d="M 249.271, 699.144 L 270.923, 670.09 L 286.653, 676.937 L 265.001, 705.991 L 249.271, 699.144 z "/>
<path style="fill:rgb(0, 0, 255);fill-opacity:0;fill-rule:evenodd;stroke:rgb(0, 255, 56);stroke-width:1;" d="M 438.584, 623.271 L 442.471, 617.904 L 459.496, 594.217 L 474.855, 600.509 L 468.008, 610.132 L 453.944, 629.748 L 438.584, 623.271 z "/>
<path style="fill:rgb(255, 255, 0);fill-opacity:0;fill-rule:evenodd;stroke:rgb(0, 255, 56);stroke-width:1;" d="M 201.712, 530.002 L 209.669, 519.084 L 241.314, 532.038 L 249.456, 535.554 L 241.499, 546.472 L 201.712, 530.002 z "/>
<path style="fill:rgb(255, 0, 0);fill-opacity:0;fill-rule:evenodd;stroke:rgb(0, 255, 56);stroke-width:1;" d="M 22.5769, 773.167 L 31.2746, 761.508 L 66.0652, 776.128 L 67.9158, 776.868 L 59.2181, 788.526 L 55.1469, 786.861 L 22.5769, 773.167 z "/>
<path style="fill:rgb(0, 255, 0);fill-opacity:0;fill-rule:evenodd;stroke:rgb(0, 255, 56);stroke-width:1;" d="M 408.605, 58.4779 L 415.267, 49.2251 L 432.292, 56.4423 L 461.161, 68.8411 L 454.499, 77.9089 L 408.605, 58.4779 z "/>
<path style="fill:rgb(0, 0, 255);fill-opacity:0;fill-rule:evenodd;stroke:rgb(0, 255, 56);stroke-width:1;" d="M 31.0895, 448.207 L 34.7907, 443.211 L 38.1217, 438.584 L 42.563, 432.477 L 50.3354, 421.744 L 65.5101, 428.036 L 46.2642, 454.684 L 42.7481, 453.204 L 40.8975, 455.61 L 33.4953, 452.464 L 35.1608, 450.058 L 31.0895, 448.207 z "/>
<path style="fill:rgb(255, 255, 0);fill-opacity:0;fill-rule:evenodd;stroke:rgb(0, 255, 56);stroke-width:1;" d="M 415.267, 49.2251 L 421.929, 40.3424 L 438.954, 47.3745 L 467.823, 59.7733 L 461.161, 68.8411 L 432.292, 56.4423 L 415.267, 49.2251 z "/>
<path style="fill:rgb(255, 0, 0);fill-opacity:0;fill-rule:evenodd;stroke:rgb(0, 255, 56);stroke-width:1;" d="M 221.143, 685.08 L 241.684, 657.506 L 255.748, 663.428 L 233.912, 692.667 L 222.623, 687.671 L 223.919, 686.19 L 221.143, 685.08 z "/>
<path style="fill:rgb(0, 255, 0);fill-opacity:0;fill-rule:evenodd;stroke:rgb(0, 255, 56);stroke-width:1;" d="M 362.526, 604.025 L 381.587, 577.377 L 384.363, 578.672 L 386.028, 576.266 L 386.398, 574.416 L 380.847, 572.01 L 386.583, 564.053 L 400.278, 569.604 L 393.43, 579.042 L 380.477, 597.363 L 373.259, 607.171 L 372.519, 608.096 L 362.526, 604.025 z "/>
<path style="fill:rgb(0, 0, 255);fill-opacity:0;fill-rule:evenodd;stroke:rgb(0, 255, 56);stroke-width:1;" d="M 192.459, 672.681 L 213, 645.108 L 227.435, 651.399 L 207.078, 678.788 L 192.459, 672.681 z "/>
<path style="fill:rgb(255, 255, 0);fill-opacity:0;fill-rule:evenodd;stroke:rgb(0, 255, 56);stroke-width:1;" d="M 74.7629, 467.083 L 94.0088, 440.805 L 108.443, 446.912 L 89.5674, 472.82 L 86.4215, 471.524 L 84.3858, 474.3 L 76.9836, 471.154 L 78.6491, 468.749 L 74.7629, 467.083 z "/>
<path style="fill:rgb(255, 0, 0);fill-opacity:0;fill-rule:evenodd;stroke:rgb(0, 255, 56);stroke-width:1;" d="M 539.995, 663.428 L 548.508, 651.585 L 582.188, 665.464 L 573.676, 677.492 L 539.995, 663.428 z "/>
<path style="fill:rgb(0, 255, 0);fill-opacity:0;fill-rule:evenodd;stroke:rgb(0, 255, 56);stroke-width:1;" d="M 207.078, 678.788 L 227.435, 651.399 L 241.684, 657.506 L 221.143, 685.08 L 207.078, 678.788 z "/>
<path style="fill:rgb(0, 0, 255);fill-opacity:0;fill-rule:evenodd;stroke:rgb(0, 255, 56);stroke-width:1;" d="M 33.1251, 581.818 L 34.7907, 579.227 L 38.3067, 580.708 L 44.9688, 571.64 L 82.3502, 587.37 L 75.133, 597.178 L 47.0044, 585.334 L 45.709, 587.185 L 33.1251, 581.818 z "/>
<path style="fill:rgb(255, 255, 0);fill-opacity:0;fill-rule:evenodd;stroke:rgb(0, 255, 56);stroke-width:1;" d="M 615.684, 68.1009 L 637.52, 38.3067 L 650.659, 43.8584 L 638.26, 60.8836 L 628.823, 73.8376 L 615.684, 68.1009 z "/>
<path style="fill:rgb(255, 0, 0);fill-opacity:0;fill-rule:evenodd;stroke:rgb(0, 255, 56);stroke-width:1;" d="M 83.6456, 690.261 L 92.1582, 678.973 L 126.394, 693.592 L 117.881, 705.066 L 83.6456, 690.261 z "/>
<path style="fill:rgb(0, 255, 0);fill-opacity:0;fill-rule:evenodd;stroke:rgb(0, 255, 56);stroke-width:1;" d="M 776.498, 213.926 L 795.189, 187.833 L 810.363, 193.939 L 791.302, 220.402 L 776.498, 213.926 z "/>
<path style="fill:rgb(0, 0, 255);fill-opacity:0;fill-rule:evenodd;stroke:rgb(0, 255, 56);stroke-width:1;" d="M 134.906, 725.052 L 154.152, 699.329 L 169.142, 705.806 L 149.896, 731.529 L 134.906, 725.052 z "/>
<path style="fill:rgb(255, 255, 0);fill-opacity:0;fill-rule:evenodd;stroke:rgb(0, 255, 56);stroke-width:1;" d="M 116.216, 479.482 L 124.543, 468.008 L 158.964, 482.628 L 150.636, 493.916 L 116.216, 479.482 z "/>
<path style="fill:rgb(255, 0, 0);fill-opacity:0;fill-rule:evenodd;stroke:rgb(0, 255, 56);stroke-width:1;" d="M 193.014, 750.035 L 212.26, 724.312 L 227.25, 730.789 L 208.004, 756.512 L 193.014, 750.035 z "/>
<path style="fill:rgb(0, 255, 0);fill-opacity:0;fill-rule:evenodd;stroke:rgb(0, 255, 56);stroke-width:1;" d="M 76.6135, 699.884 L 83.6456, 690.261 L 117.881, 705.066 L 123.803, 707.472 L 116.586, 717.095 L 76.6135, 699.884 z "/>
<path style="fill:rgb(0, 0, 255);fill-opacity:0;fill-rule:evenodd;stroke:rgb(0, 255, 56);stroke-width:1;" d="M 178.21, 743.743 L 197.455, 717.835 L 212.26, 724.312 L 193.014, 750.035 L 178.21, 743.743 z "/>
<path style="fill:rgb(255, 255, 0);fill-opacity:0;fill-rule:evenodd;stroke:rgb(0, 255, 56);stroke-width:1;" d="M 100.486, 667.87 L 108.813, 656.766 L 143.049, 671.386 L 134.721, 682.674 L 100.486, 667.87 z "/>
<path style="fill:rgb(255, 0, 0);fill-opacity:0;fill-rule:evenodd;stroke:rgb(0, 255, 56);stroke-width:1;" d="M 116.956, 645.848 L 125.098, 634.744 L 159.334, 649.549 L 151.191, 660.652 L 116.956, 645.848 z "/>
<path style="fill:rgb(0, 255, 0);fill-opacity:0;fill-rule:evenodd;stroke:rgb(0, 255, 56);stroke-width:1;" d="M 92.1582, 678.973 L 100.486, 667.87 L 134.721, 682.674 L 126.394, 693.592 L 92.1582, 678.973 z "/>
<path style="fill:rgb(0, 0, 255);fill-opacity:0;fill-rule:evenodd;stroke:rgb(0, 255, 56);stroke-width:1;" d="M 209.669, 519.084 L 218.367, 506.87 L 250.012, 520.009 L 241.314, 532.038 L 209.669, 519.084 z "/>
<path style="fill:rgb(255, 255, 0);fill-opacity:0;fill-rule:evenodd;stroke:rgb(0, 255, 56);stroke-width:1;" d="M 208.004, 756.512 L 227.25, 730.789 L 241.869, 737.081 L 222.623, 762.804 L 208.004, 756.512 z "/>
<path style="fill:rgb(255, 0, 0);fill-opacity:0;fill-rule:evenodd;stroke:rgb(0, 255, 56);stroke-width:1;" d="M 761.693, 207.449 L 780.939, 181.726 L 795.189, 187.833 L 776.498, 213.926 L 761.693, 207.449 z "/>
<path style="fill:rgb(0, 255, 0);fill-opacity:0;fill-rule:evenodd;stroke:rgb(0, 255, 56);stroke-width:1;" d="M 124.543, 468.008 L 132.501, 457.09 L 166.921, 471.709 L 158.964, 482.628 L 124.543, 468.008 z "/>
<path style="fill:rgb(0, 0, 255);fill-opacity:0;fill-rule:evenodd;stroke:rgb(0, 255, 56);stroke-width:1;" d="M 31.2746, 761.508 L 39.047, 750.59 L 73.8376, 765.394 L 66.0652, 776.128 L 31.2746, 761.508 z "/>
<path style="fill:rgb(255, 255, 0);fill-opacity:0;fill-rule:evenodd;stroke:rgb(0, 255, 56);stroke-width:1;" d="M 108.813, 656.766 L 116.956, 645.848 L 151.191, 660.652 L 143.049, 671.386 L 108.813, 656.766 z "/>
<path style="fill:rgb(255, 0, 0);fill-opacity:0;fill-rule:evenodd;stroke:rgb(0, 255, 56);stroke-width:1;" d="M 164.145, 659.912 L 184.316, 632.709 L 198.011, 638.631 L 186.722, 653.805 L 177.654, 665.834 L 164.145, 659.912 z "/>
<path style="fill:rgb(0, 255, 0);fill-opacity:0;fill-rule:evenodd;stroke:rgb(0, 255, 56);stroke-width:1;" d="M 108.258, 490.215 L 116.216, 479.482 L 150.636, 493.916 L 142.679, 504.65 L 108.258, 490.215 z "/>
<path style="fill:rgb(0, 0, 255);fill-opacity:0;fill-rule:evenodd;stroke:rgb(0, 255, 56);stroke-width:1;" d="M 497.802, 641.221 L 515.013, 617.164 L 530.557, 623.641 L 513.347, 647.513 L 497.802, 641.221 z "/>
<path style="fill:rgb(255, 255, 0);fill-opacity:0;fill-rule:evenodd;stroke:rgb(0, 255, 56);stroke-width:1;" d="M 348.092, 747.444 L 375.295, 710.803 L 385.658, 715.429 L 377.331, 726.533 L 375.295, 726.903 L 365.857, 739.672 L 366.042, 741.892 L 358.455, 752.07 L 348.092, 747.444 z "/>
<path style="fill:rgb(255, 0, 0);fill-opacity:0;fill-rule:evenodd;stroke:rgb(0, 255, 56);stroke-width:1;" d="M 126.949, 789.452 L 144.714, 765.209 L 159.704, 771.501 L 141.938, 795.744 L 126.949, 789.452 z "/>
<path style="fill:rgb(0, 255, 0);fill-opacity:0;fill-rule:evenodd;stroke:rgb(0, 255, 56);stroke-width:1;" d="M 747.999, 201.527 L 755.586, 190.978 L 759.658, 185.427 L 763.359, 180.245 L 766.505, 175.804 L 780.939, 181.726 L 761.693, 207.449 L 747.999, 201.527 z "/>
<path style="fill:rgb(0, 0, 255);fill-opacity:0;fill-rule:evenodd;stroke:rgb(0, 255, 56);stroke-width:1;" d="M 149.896, 731.529 L 169.142, 705.806 L 183.021, 711.728 L 163.775, 737.451 L 149.896, 731.529 z "/>
<path style="fill:rgb(255, 255, 0);fill-opacity:0;fill-rule:evenodd;stroke:rgb(0, 255, 56);stroke-width:1;" d="M 527.967, 670.46 L 534.629, 661.207 L 539.995, 663.428 L 573.676, 677.492 L 567.199, 686.56 L 527.967, 670.46 z "/>
<path style="fill:rgb(255, 0, 0);fill-opacity:0;fill-rule:evenodd;stroke:rgb(0, 255, 56);stroke-width:1;" d="M 82.9054, 770.761 L 83.6456, 769.466 L 91.7881, 758.362 L 100.486, 746.519 L 115.29, 752.811 L 97.7099, 776.868 L 82.9054, 770.761 z "/>
<path style="fill:rgb(0, 255, 0);fill-opacity:0;fill-rule:evenodd;stroke:rgb(0, 255, 56);stroke-width:1;" d="M 121.212, 719.13 L 140.458, 693.407 L 154.152, 699.329 L 134.906, 725.052 L 121.212, 719.13 z "/>
<path style="fill:rgb(0, 0, 255);fill-opacity:0;fill-rule:evenodd;stroke:rgb(0, 255, 56);stroke-width:1;" d="M 125.098, 634.744 L 132.871, 624.566 L 167.106, 639.186 L 159.334, 649.549 L 125.098, 634.744 z "/>
<path style="fill:rgb(255, 255, 0);fill-opacity:0;fill-rule:evenodd;stroke:rgb(0, 255, 56);stroke-width:1;" d="M 513.347, 647.513 L 530.557, 623.641 L 545.362, 629.748 L 528.152, 653.805 L 513.347, 647.513 z "/>
<path style="fill:rgb(255, 0, 0);fill-opacity:0;fill-rule:evenodd;stroke:rgb(0, 255, 56);stroke-width:1;" d="M 545.732, 58.1078 L 554.615, 46.2642 L 580.523, 57.5526 L 584.039, 59.0331 L 575.156, 70.8767 L 545.732, 58.1078 z "/>
<path style="fill:rgb(0, 255, 0);fill-opacity:0;fill-rule:evenodd;stroke:rgb(0, 255, 56);stroke-width:1;" d="M 398.612, 599.769 L 408.235, 586.26 L 415.637, 576.081 L 430.627, 582.188 L 413.602, 605.876 L 398.612, 599.769 z "/>
<path style="fill:rgb(0, 0, 255);fill-opacity:0;fill-rule:evenodd;stroke:rgb(0, 255, 56);stroke-width:1;" d="M 521.49, 679.528 L 527.967, 670.46 L 567.199, 686.56 L 560.722, 695.628 L 532.593, 683.969 L 521.49, 679.528 z "/>
<path style="fill:rgb(255, 255, 0);fill-opacity:0;fill-rule:evenodd;stroke:rgb(0, 255, 56);stroke-width:1;" d="M 413.602, 605.876 L 430.627, 582.188 L 445.431, 588.295 L 428.406, 611.982 L 413.602, 605.876 z "/>
<path style="fill:rgb(255, 0, 0);fill-opacity:0;fill-rule:evenodd;stroke:rgb(0, 255, 56);stroke-width:1;" d="M 218.367, 506.87 L 226.324, 495.952 L 257.784, 509.091 L 250.012, 520.009 L 218.367, 506.87 z "/>
<path style="fill:rgb(0, 255, 0);fill-opacity:0;fill-rule:evenodd;stroke:rgb(0, 255, 56);stroke-width:1;" d="M 804.997, 226.139 L 821.282, 203.562 L 836.641, 209.854 L 820.356, 232.616 L 804.997, 226.139 z "/>
<path style="fill:rgb(0, 0, 255);fill-opacity:0;fill-rule:evenodd;stroke:rgb(0, 255, 56);stroke-width:1;" d="M 97.7099, 776.868 L 115.29, 752.811 L 129.355, 758.732 L 111.774, 782.975 L 97.7099, 776.868 z "/>
<path style="fill:rgb(255, 255, 0);fill-opacity:0;fill-rule:evenodd;stroke:rgb(0, 255, 56);stroke-width:1;" d="M 428.406, 611.982 L 445.431, 588.295 L 459.496, 594.217 L 442.471, 617.904 L 428.406, 611.982 z "/>
<path style="fill:rgb(255, 0, 0);fill-opacity:0;fill-rule:evenodd;stroke:rgb(0, 255, 56);stroke-width:1;" d="M 529.447, 79.9445 L 537.775, 68.8411 L 567.199, 81.61 L 558.871, 92.7134 L 529.447, 79.9445 z "/>
<path style="fill:rgb(0, 255, 0);fill-opacity:0;fill-rule:evenodd;stroke:rgb(0, 255, 56);stroke-width:1;" d="M 605.69, 53.6664 L 613.833, 42.7481 L 622.161, 31.6447 L 636.78, 37.9366 L 620.495, 59.9584 L 605.69, 53.6664 z "/>
<path style="fill:rgb(0, 0, 255);fill-opacity:0;fill-rule:evenodd;stroke:rgb(0, 255, 56);stroke-width:1;" d="M 881.425, 228.36 L 889.382, 217.071 L 918.621, 229.285 L 910.664, 240.389 L 881.425, 228.36 z "/>
<path style="fill:rgb(255, 255, 0);fill-opacity:0;fill-rule:evenodd;stroke:rgb(0, 255, 56);stroke-width:1;" d="M 688.226, 176.359 L 704.326, 154.337 L 718.945, 160.629 L 702.845, 182.651 L 688.226, 176.359 z "/>
<path style="fill:rgb(255, 0, 0);fill-opacity:0;fill-rule:evenodd;stroke:rgb(0, 255, 56);stroke-width:1;" d="M 834.606, 238.538 L 850.891, 215.961 L 865.325, 221.883 L 857.368, 232.986 L 849.04, 244.46 L 834.606, 238.538 z "/>
<path style="fill:rgb(0, 255, 0);fill-opacity:0;fill-rule:evenodd;stroke:rgb(0, 255, 56);stroke-width:1;" d="M 820.356, 232.616 L 836.641, 209.854 L 850.891, 215.961 L 834.606, 238.538 L 820.356, 232.616 z "/>
<path style="fill:rgb(0, 0, 255);fill-opacity:0;fill-rule:evenodd;stroke:rgb(0, 255, 56);stroke-width:1;" d="M 537.775, 68.8411 L 545.732, 58.1078 L 575.156, 70.8767 L 567.199, 81.61 L 537.775, 68.8411 z "/>
<path style="fill:rgb(255, 255, 0);fill-opacity:0;fill-rule:evenodd;stroke:rgb(0, 255, 56);stroke-width:1;" d="M 889.382, 217.071 L 897.34, 206.153 L 926.579, 218.367 L 918.621, 229.285 L 889.382, 217.071 z "/>
<path style="fill:rgb(255, 0, 0);fill-opacity:0;fill-rule:evenodd;stroke:rgb(0, 255, 56);stroke-width:1;" d="M 905.482, 194.68 L 913.44, 183.946 L 942.679, 195.975 L 934.721, 206.893 L 905.482, 194.68 z "/>
<path style="fill:rgb(0, 255, 0);fill-opacity:0;fill-rule:evenodd;stroke:rgb(0, 255, 56);stroke-width:1;" d="M 521.49, 90.4927 L 529.447, 79.9445 L 558.871, 92.7134 L 550.914, 103.262 L 521.49, 90.4927 z "/>
<path style="fill:rgb(0, 0, 255);fill-opacity:0;fill-rule:evenodd;stroke:rgb(0, 255, 56);stroke-width:1;" d="M 702.845, 182.651 L 718.945, 160.629 L 733.195, 166.736 L 717.095, 188.573 L 702.845, 182.651 z "/>
<path style="fill:rgb(255, 255, 0);fill-opacity:0;fill-rule:evenodd;stroke:rgb(0, 255, 56);stroke-width:1;" d="M 913.44, 183.946 L 921.212, 173.028 L 950.451, 185.242 L 942.679, 195.975 L 913.44, 183.946 z "/>
<path style="fill:rgb(255, 0, 0);fill-opacity:0;fill-rule:evenodd;stroke:rgb(0, 255, 56);stroke-width:1;" d="M 487.254, 136.942 L 492.806, 129.17 L 532.038, 145.455 L 526.486, 153.227 L 500.393, 142.309 L 487.254, 136.942 z "/>
<path style="fill:rgb(0, 255, 0);fill-opacity:0;fill-rule:evenodd;stroke:rgb(0, 255, 56);stroke-width:1;" d="M 665.094, 82.3502 L 678.788, 63.8446 L 682.304, 59.2181 L 682.674, 58.663 L 695.073, 64.0296 L 677.492, 87.7169 L 665.094, 82.3502 z "/>
<path style="fill:rgb(0, 0, 255);fill-opacity:0;fill-rule:evenodd;stroke:rgb(0, 255, 56);stroke-width:1;" d="M 451.723, 29.9792 L 458.385, 20.9114 L 487.439, 33.3102 L 480.777, 42.1929 L 451.723, 29.9792 z "/>
<path style="fill:rgb(255, 255, 0);fill-opacity:0;fill-rule:evenodd;stroke:rgb(0, 255, 56);stroke-width:1;" d="M 438.954, 47.3745 L 445.431, 38.6768 L 474.3, 50.8906 L 467.823, 59.7733 L 438.954, 47.3745 z "/>
<path style="fill:rgb(255, 0, 0);fill-opacity:0;fill-rule:evenodd;stroke:rgb(0, 255, 56);stroke-width:1;" d="M 445.431, 38.6768 L 451.723, 29.9792 L 480.777, 42.1929 L 474.3, 50.8906 L 445.431, 38.6768 z "/>
<path style="fill:rgb(0, 255, 0);fill-opacity:0;fill-rule:evenodd;stroke:rgb(0, 255, 56);stroke-width:1;" d="M 187.647, 385.473 L 193.199, 378.071 L 225.399, 391.765 L 219.847, 399.167 L 187.647, 385.473 z "/>
<path style="fill:rgb(0, 0, 255);fill-opacity:0;fill-rule:evenodd;stroke:rgb(0, 255, 56);stroke-width:1;" d="M 845.894, 90.4927 L 852.371, 81.61 L 877.354, 91.9732 L 870.692, 101.041 L 845.894, 90.4927 z "/>
<path style="fill:rgb(255, 255, 0);fill-opacity:0;fill-rule:evenodd;stroke:rgb(0, 255, 56);stroke-width:1;" d="M 561.647, 120.657 L 575.341, 102.336 L 586.815, 107.148 L 578.302, 118.806 L 573.306, 125.653 L 561.647, 120.657 z "/>
<path style="fill:rgb(255, 0, 0);fill-opacity:0;fill-rule:evenodd;stroke:rgb(0, 255, 56);stroke-width:1;" d="M 724.497, 152.672 L 734.12, 139.903 L 734.675, 138.978 L 748.924, 144.899 L 738.746, 158.779 L 724.497, 152.672 z "/>
<path style="fill:rgb(0, 255, 0);fill-opacity:0;fill-rule:evenodd;stroke:rgb(0, 255, 56);stroke-width:1;" d="M 710.062, 146.565 L 720.426, 132.501 L 734.12, 139.903 L 724.497, 152.672 L 710.062, 146.565 z "/>
<path style="fill:rgb(0, 0, 255);fill-opacity:0;fill-rule:evenodd;stroke:rgb(0, 255, 56);stroke-width:1;" d="M 193.199, 378.071 L 197.455, 372.149 L 212.445, 378.441 L 229.655, 385.843 L 225.399, 391.765 L 193.199, 378.071 z "/>
<path style="fill:rgb(255, 255, 0);fill-opacity:0;fill-rule:evenodd;stroke:rgb(0, 255, 56);stroke-width:1;" d="M 628.823, 540.921 L 629.193, 539.255 L 630.488, 537.775 L 631.969, 536.664 L 634.004, 535.924 L 644.182, 534.074 L 646.403, 534.259 L 648.439, 534.814 L 650.104, 535.924 L 651.399, 537.22 L 652.14, 538.885 L 652.325, 540.551 L 651.77, 542.216 L 650.659, 543.697 L 648.994, 544.807 L 647.143, 545.547 L 636.965, 547.398 L 634.744, 547.213 L 632.709, 546.657 L 630.858, 545.547 L 629.563, 544.067 L 628.823, 542.586 L 628.823, 540.921 z "/>
<path style="fill:rgb(255, 0, 0);fill-opacity:0;fill-rule:evenodd;stroke:rgb(0, 255, 56);stroke-width:1;" d="M 656.951, 404.904 L 657.506, 403.238 L 658.617, 401.758 L 660.282, 400.648 L 662.133, 399.907 L 672.311, 398.057 L 674.532, 398.242 L 676.567, 398.797 L 678.418, 399.907 L 679.713, 401.203 L 680.453, 402.868 L 680.453, 404.534 L 680.083, 406.199 L 678.973, 407.68 L 677.307, 408.79 L 675.272, 409.53 L 665.094, 411.381 L 662.873, 411.196 L 660.837, 410.641 L 659.172, 409.53 L 657.876, 408.235 L 657.136, 406.57 L 656.951, 404.904 z "/>
<path style="fill:rgb(0, 255, 0);fill-opacity:0;fill-rule:evenodd;stroke:rgb(0, 255, 56);stroke-width:1;" d="M 689.521, 468.193 L 690.076, 466.528 L 691.187, 465.047 L 692.667, 463.937 L 694.703, 463.197 L 704.881, 461.346 L 707.102, 461.531 L 709.137, 462.087 L 710.988, 463.197 L 712.098, 464.492 L 713.023, 466.158 L 713.023, 467.823 L 712.468, 469.489 L 711.358, 470.969 L 709.877, 472.08 L 707.842, 472.82 L 697.664, 474.67 L 695.443, 474.485 L 693.407, 473.745 L 691.557, 472.82 L 690.261, 471.339 L 689.521, 469.859 L 689.521, 468.193 z "/>
<path style="fill:rgb(0, 0, 255);fill-opacity:0;fill-rule:evenodd;stroke:rgb(0, 255, 56);stroke-width:1;" d="M 321.814, 407.31 L 322.369, 405.644 L 323.479, 404.164 L 324.96, 403.053 L 326.995, 402.128 L 337.173, 400.463 L 339.394, 400.648 L 341.43, 401.203 L 343.28, 402.313 L 344.576, 403.609 L 345.316, 405.274 L 345.316, 406.94 L 344.761, 408.605 L 343.65, 410.086 L 342.17, 411.196 L 340.134, 411.936 L 329.956, 413.787 L 327.735, 413.602 L 325.7, 413.046 L 323.849, 411.936 L 322.554, 410.641 L 321.999, 408.975 L 321.814, 407.31 z "/>
<path style="fill:rgb(255, 255, 0);fill-opacity:0;fill-rule:evenodd;stroke:rgb(0, 255, 56);stroke-width:1;" d="M 480.407, 517.604 L 480.777, 516.123 L 481.888, 514.643 L 483.553, 513.532 L 485.589, 512.607 L 495.767, 510.941 L 497.988, 511.127 L 500.023, 511.682 L 501.689, 512.607 L 502.984, 514.087 L 503.724, 515.568 L 503.909, 517.418 L 503.354, 519.084 L 502.244, 520.379 L 500.578, 521.675 L 498.728, 522.415 L 488.55, 524.266 L 486.329, 524.08 L 484.293, 523.34 L 482.443, 522.415 L 481.147, 520.935 L 480.407, 519.454 L 480.407, 517.604 z "/>
<path style="fill:rgb(255, 0, 0);fill-opacity:0;fill-rule:evenodd;stroke:rgb(0, 255, 56);stroke-width:1;" d="M 352.533, 469.674 L 352.903, 468.008 L 354.013, 466.528 L 355.679, 465.418 L 357.715, 464.492 L 367.893, 462.827 L 370.113, 463.012 L 372.149, 463.567 L 373.814, 464.677 L 375.11, 465.973 L 375.85, 467.638 L 376.035, 469.304 L 375.48, 470.969 L 374.37, 472.45 L 372.704, 473.56 L 370.854, 474.3 L 360.675, 476.151 L 358.455, 475.966 L 356.419, 475.411 L 354.569, 474.3 L 353.273, 472.82 L 352.533, 471.339 L 352.533, 469.674 z "/>
<path style="fill:rgb(0, 255, 0);fill-opacity:0;fill-rule:evenodd;stroke:rgb(0, 255, 56);stroke-width:1;" d="M 185.797, 352.163 L 186.352, 350.682 L 187.462, 349.202 L 188.943, 347.907 L 190.978, 347.166 L 201.157, 345.501 L 203.377, 345.686 L 205.413, 346.241 L 207.263, 347.166 L 208.559, 348.647 L 209.299, 350.312 L 209.299, 351.978 L 208.744, 353.458 L 207.634, 354.939 L 206.153, 356.234 L 204.118, 356.974 L 193.939, 358.825 L 191.719, 358.64 L 189.683, 357.9 L 187.833, 356.974 L 186.537, 355.494 L 185.982, 354.013 L 185.797, 352.163 z "/>
<path style="fill:rgb(0, 0, 255);fill-opacity:0;fill-rule:evenodd;stroke:rgb(0, 255, 56);stroke-width:1;" d="M 384.733, 332.547 L 385.288, 330.881 L 386.398, 329.401 L 388.064, 328.291 L 389.914, 327.55 L 400.093, 325.7 L 402.313, 325.885 L 404.534, 326.625 L 406.199, 327.55 L 407.495, 329.031 L 408.235, 330.511 L 408.235, 332.177 L 407.865, 333.842 L 406.755, 335.323 L 405.089, 336.433 L 403.053, 337.173 L 392.875, 339.024 L 390.655, 338.839 L 388.619, 338.284 L 386.954, 337.173 L 385.658, 335.878 L 384.918, 334.212 L 384.733, 332.547 z "/>
<path style="fill:rgb(255, 255, 0);fill-opacity:0;fill-rule:evenodd;stroke:rgb(0, 255, 56);stroke-width:1;" d="M 56.9975, 338.654 L 57.3676, 336.988 L 58.4779, 335.508 L 60.1434, 334.397 L 62.179, 333.657 L 72.3572, 331.807 L 74.5778, 331.992 L 76.6135, 332.547 L 78.279, 333.657 L 79.5744, 334.953 L 80.3146, 336.618 L 80.4997, 338.284 L 79.9445, 339.949 L 78.8341, 341.43 L 77.1686, 342.54 L 75.133, 343.28 L 65.1399, 345.131 L 62.9193, 344.946 L 60.8836, 344.39 L 59.0331, 343.28 L 57.7377, 341.985 L 56.9975, 340.319 L 56.9975, 338.654 z "/>
<path style="fill:rgb(255, 0, 0);fill-opacity:0;fill-rule:evenodd;stroke:rgb(0, 255, 56);stroke-width:1;" d="M 214.296, 256.674 L 214.851, 255.008 L 215.961, 253.528 L 217.442, 252.417 L 219.477, 251.677 L 229.655, 249.827 L 231.876, 250.012 L 233.912, 250.752 L 235.577, 251.677 L 236.873, 253.158 L 237.798, 254.638 L 237.798, 256.303 L 237.243, 257.969 L 236.132, 259.449 L 234.652, 260.56 L 232.616, 261.485 L 222.438, 263.151 L 220.217, 262.966 L 218.182, 262.41 L 216.331, 261.3 L 215.036, 260.005 L 214.296, 258.339 L 214.296, 256.674 z "/>
<path style="fill:rgb(0, 255, 0);fill-opacity:0;fill-rule:evenodd;stroke:rgb(0, 255, 56);stroke-width:1;" d="M 534.259, 354.198 L 534.814, 352.533 L 535.924, 351.053 L 537.59, 349.942 L 539.44, 349.017 L 549.618, 347.351 L 551.839, 347.536 L 553.875, 348.092 L 555.725, 349.202 L 557.021, 350.497 L 557.761, 352.163 L 557.761, 353.828 L 557.206, 355.494 L 556.095, 356.974 L 554.615, 358.085 L 552.579, 358.825 L 542.401, 360.675 L 540.18, 360.49 L 538.145, 359.75 L 536.479, 358.825 L 535.184, 357.344 L 534.444, 355.864 L 534.259, 354.198 z "/>
<path style="fill:rgb(0, 0, 255);fill-opacity:0;fill-rule:evenodd;stroke:rgb(0, 255, 56);stroke-width:1;" d="M 212.445, 378.441 L 220.217, 368.078 L 237.428, 375.295 L 229.655, 385.843 L 212.445, 378.441 z "/>
<path style="fill:rgb(255, 255, 0);fill-opacity:0;fill-rule:evenodd;stroke:rgb(0, 255, 56);stroke-width:1;" d="M 220.217, 368.078 L 226.879, 358.825 L 244.275, 366.042 L 237.428, 375.295 L 220.217, 368.078 z "/>
<path style="fill:rgb(255, 0, 0);fill-opacity:0;fill-rule:evenodd;stroke:rgb(0, 255, 56);stroke-width:1;" d="M 749.294, 321.443 L 757.437, 312.191 L 768.17, 317.557 L 760.213, 326.81 L 749.294, 321.443 z "/>
<path style="fill:rgb(0, 255, 0);fill-opacity:0;fill-rule:evenodd;stroke:rgb(0, 255, 56);stroke-width:1;" d="M 811.844, 269.257 L 814.619, 265.186 L 825.908, 269.813 L 817.395, 281.656 L 815.915, 280.916 L 811.844, 269.257 z "/>
<path style="fill:rgb(0, 0, 255);fill-opacity:0;fill-rule:evenodd;stroke:rgb(0, 255, 56);stroke-width:1;" d="M 250.012, 520.009 L 257.784, 509.091 L 266.482, 512.607 L 266.111, 512.977 L 258.524, 523.525 L 250.012, 520.009 z "/>
<path style="fill:rgb(255, 255, 0);fill-opacity:0;fill-rule:evenodd;stroke:rgb(0, 255, 56);stroke-width:1;" d="M 0, 596.068 L 8.14249, 584.964 L 17.0252, 588.85 L 66.2503, 609.577 L 58.1078, 620.495 L 9.06778, 599.769 L 0, 596.068 z "/>
<path style="fill:rgb(255, 0, 0);fill-opacity:0;fill-rule:evenodd;stroke:rgb(0, 255, 56);stroke-width:1;" d="M 17.0252, 588.85 L 24.7976, 578.302 L 33.1251, 581.818 L 45.709, 587.185 L 47.0044, 585.334 L 75.133, 597.178 L 66.2503, 609.577 L 17.0252, 588.85 z "/>
<path style="fill:rgb(0, 255, 0);fill-opacity:0;fill-rule:evenodd;stroke:rgb(0, 255, 56);stroke-width:1;" d="M 0.740227, 611.242 L 9.06778, 599.769 L 58.1078, 620.495 L 49.7802, 631.969 L 0.740227, 611.242 z "/>
<path style="fill:rgb(0, 0, 255);fill-opacity:0;fill-rule:evenodd;stroke:rgb(0, 255, 56);stroke-width:1;" d="M 9.25283, 453.944 L 15.5448, 445.246 L 16.47, 443.951 L 18.8758, 445.061 L 23.6873, 438.584 L 21.0965, 437.659 L 23.1321, 434.698 L 24.4275, 433.033 L 27.0183, 432.477 L 29.9792, 428.221 L 29.0539, 426.741 L 36.6412, 416.007 L 50.3354, 421.744 L 42.563, 432.477 L 40.5274, 432.663 L 37.3814, 437.104 L 38.1217, 438.584 L 34.7907, 443.211 L 32.1999, 442.285 L 27.5734, 448.762 L 29.9792, 449.688 L 22.762, 459.681 L 9.25283, 453.944 z "/>
<path style="fill:rgb(255, 255, 0);fill-opacity:0;fill-rule:evenodd;stroke:rgb(0, 255, 56);stroke-width:1;" d="M 14.4344, 784.455 L 22.5769, 773.167 L 55.1469, 786.861 L 46.8193, 798.149 L 14.4344, 784.455 z "/>
<path style="fill:rgb(255, 0, 0);fill-opacity:0;fill-rule:evenodd;stroke:rgb(0, 255, 56);stroke-width:1;" d="M 18.8758, 575.896 L 27.3884, 564.238 L 44.9688, 571.64 L 38.3067, 580.708 L 34.7907, 579.227 L 33.1251, 581.818 L 24.7976, 578.302 L 18.8758, 575.896 z "/>
<path style="fill:rgb(0, 255, 0);fill-opacity:0;fill-rule:evenodd;stroke:rgb(0, 255, 56);stroke-width:1;" d="M 122.322, 30.7194 L 144.714, 0 L 326.255, 76.7985 L 336.618, 81.0548 L 339.024, 77.7238 L 359.935, 86.6065 L 360.861, 85.1261 L 405.644, 104.187 L 404.534, 105.667 L 420.264, 112.329 L 395.836, 145.64 L 394.171, 144.899 L 356.234, 196.715 L 242.794, 148.786 L 273.514, 106.778 L 203.932, 77.3537 L 210.78, 68.1009 L 122.322, 30.7194 z "/>
<path style="fill:rgb(0, 0, 255);fill-opacity:0;fill-rule:evenodd;stroke:rgb(0, 255, 56);stroke-width:1;" d="M 554.615, 46.2642 L 579.227, 13.139 L 622.161, 31.6447 L 613.833, 42.7481 L 596.993, 35.5309 L 580.523, 57.5526 L 554.615, 46.2642 z "/>
<path style="fill:rgb(255, 255, 0);fill-opacity:0;fill-rule:evenodd;stroke:rgb(0, 255, 56);stroke-width:1;" d="M 456.905, 20.3562 L 465.603, 8.32755 L 496.137, 21.2815 L 487.439, 33.3102 L 458.385, 20.9114 L 456.905, 20.3562 z "/>
</svg>