<?xml version="1.0" encoding="iso-8859-1" standalone="no"?>
<!DOCTYPE svg PUBLIC "-//W3C//DTD SVG 1.0//EN" "http://www.w3.org/TR/2001/REC-SVG-20010904/DTD/svg10.dtd">
<svg xmlns="http://www.w3.org/2000/svg" width="187" height="800">
<path style="fill:rgb(255, 0, 0);fill-opacity:0;fill-rule:evenodd;stroke:rgb(0, 30, 255);stroke-width:1;" d="M 0, 736.349 L 14.3526, 716.693 L 19.9688, 719.189 L 39.9376, 691.42 L 44.6178, 693.292 L 58.6583, 674.259 L 62.0905, 675.507 L 92.3557, 688.612 L 86.4275, 696.724 L 118.253, 710.14 L 101.092, 733.853 L 117.941, 741.03 L 135.101, 717.317 L 187.207, 739.47 L 162.871, 773.167 L 169.111, 775.663 L 151.326, 800 L 94.8518, 776.287 L 103.9, 764.119 L 101.404, 763.183 L 108.58, 753.51 L 94.2278, 747.582 L 87.3635, 757.254 L 85.1794, 756.318 L 76.4431, 768.487 L 0, 736.349 z "/>
<path style="fill:rgb(0, 255, 0);fill-opacity:0;fill-rule:evenodd;stroke:rgb(0, 30, 255);stroke-width:1;" d="M 59.9064, 669.891 L 60.5304, 667.083 L 61.1544, 665.523 L 63.0265, 663.027 L 64.2746, 661.778 L 67.0827, 659.906 L 70.8268, 658.97 L 74.571, 658.346 L 76.131, 656.162 L 79.2512, 657.41 L 116.069, 673.011 L 118.565, 669.891 L 164.119, 688.924 L 169.111, 691.108 L 159.438, 704.524 L 110.764, 683.931 L 103.9, 693.292 L 92.3557, 688.612 L 62.0905, 675.507 L 60.5304, 673.011 L 59.9064, 669.891 z "/>
<path style="fill:rgb(0, 0, 255);fill-opacity:0;fill-rule:evenodd;stroke:rgb(0, 30, 255);stroke-width:1;" d="M 78.6271, 654.29 L 78.6271, 651.17 L 79.2512, 649.61 L 80.8112, 646.49 L 83.3073, 643.994 L 84.8674, 642.746 L 88.2995, 641.186 L 92.3557, 639.938 L 96.7239, 641.81 L 153.822, 665.835 L 149.454, 672.075 L 170.047, 680.811 L 164.119, 688.924 L 118.565, 669.891 L 116.069, 673.011 L 79.2512, 657.41 L 78.6271, 654.29 z "/>
<path style="fill:rgb(255, 255, 0);fill-opacity:0;fill-rule:evenodd;stroke:rgb(0, 30, 255);stroke-width:1;" d="M 112.012, 623.713 L 112.949, 619.657 L 120.125, 609.672 L 125.741, 609.984 L 131.045, 602.808 L 130.421, 600.624 L 130.733, 598.44 L 131.045, 597.504 L 131.981, 596.568 L 133.853, 594.696 L 136.349, 593.76 L 137.91, 593.448 L 140.718, 593.448 L 143.526, 594.072 L 144.774, 594.696 L 146.022, 595.632 L 147.894, 597.192 L 148.518, 599.376 L 172.231, 609.36 L 170.359, 611.544 L 157.878, 628.705 L 149.766, 639.938 L 112.012, 623.713 z "/>
<path style="fill:rgb(255, 0, 0);fill-opacity:0;fill-rule:evenodd;stroke:rgb(0, 30, 255);stroke-width:1;" d="M 95.7878, 635.257 L 96.4119, 632.137 L 98.2839, 629.329 L 101.092, 626.833 L 104.524, 624.961 L 108.268, 623.713 L 110.452, 623.089 L 112.012, 623.713 L 149.766, 639.938 L 155.694, 642.434 L 155.694, 644.306 L 153.51, 647.114 L 164.119, 651.794 L 153.822, 665.835 L 96.7239, 641.81 L 95.7878, 638.69 L 95.7878, 635.257 z "/>
<path style="fill:rgb(0, 255, 0);fill-opacity:0;fill-rule:evenodd;stroke:rgb(0, 30, 255);stroke-width:1;" d="M 58.6583, 20.5928 L 67.3947, 0 L 127.301, 14.3526 L 118.565, 34.9454 L 58.6583, 20.5928 z "/>
</svg>