<?xml version="1.0" encoding="iso-8859-1" standalone="no"?>
<!DOCTYPE svg PUBLIC "-//W3C//DTD SVG 1.0//EN" "http://www.w3.org/TR/2001/REC-SVG-20010904/DTD/svg10.dtd">
<svg xmlns="http://www.w3.org/2000/svg" width="979" height="800">
<path style="fill:rgb(255, 0, 0);fill-opacity:0;fill-rule:evenodd;stroke:rgb(0, 255, 127);stroke-width:1;" d="M 171.114, 566.162 L 207.795, 515.91 L 207.061, 515.543 L 230.536, 483.265 L 279.872, 503.806 L 246.309, 549.84 L 261.348, 556.075 L 402.384, 615.497 L 380.559, 645.392 L 229.619, 581.935 L 224.668, 588.721 L 171.114, 566.162 z "/>
<path style="fill:rgb(0, 255, 0);fill-opacity:0;fill-rule:evenodd;stroke:rgb(0, 255, 127);stroke-width:1;" d="M 539.202, 426.41 L 553.874, 380.743 L 580.834, 392.114 L 580.101, 393.214 L 613.113, 406.969 L 609.995, 411.371 L 613.297, 412.838 L 610.729, 416.323 L 615.314, 418.157 L 621, 410.454 L 637.506, 417.24 L 638.239, 416.139 L 665.75, 427.694 L 636.956, 467.309 L 604.493, 453.737 L 614.764, 439.615 L 622.834, 442.916 L 627.602, 436.314 L 607.244, 427.877 L 603.76, 426.227 L 598.808, 432.829 L 606.694, 436.13 L 596.424, 450.436 L 566.346, 437.781 L 578.634, 420.908 L 579.917, 421.458 L 583.586, 416.139 L 573.132, 411.738 L 569.28, 416.873 L 570.931, 417.607 L 558.459, 434.48 L 539.202, 426.41 z "/>
<path style="fill:rgb(0, 0, 255);fill-opacity:0;fill-rule:evenodd;stroke:rgb(0, 255, 127);stroke-width:1;" d="M 864.191, 670.885 L 867.309, 666.483 L 866.942, 666.3 L 875.011, 655.112 L 875.378, 655.296 L 878.68, 650.894 L 912.059, 665.016 L 910.591, 666.85 L 916.094, 669.234 L 917.561, 667.033 L 921.229, 668.684 L 924.347, 664.466 L 923.43, 663.916 L 944.888, 634.388 L 950.39, 636.772 L 950.573, 636.405 L 963.595, 641.907 L 963.411, 642.091 L 969.097, 644.658 L 947.639, 674.003 L 946.722, 673.453 L 943.42, 678.038 L 947.272, 679.688 L 945.805, 681.706 L 950.94, 683.906 L 952.04, 682.072 L 979.367, 693.627 L 976.066, 698.212 L 976.433, 698.395 L 969.647, 707.749 L 969.28, 707.565 L 965.796, 712.334 L 946.171, 704.081 L 946.905, 703.164 L 934.25, 697.845 L 932.783, 699.862 L 928.748, 698.028 L 925.264, 702.613 L 926.364, 703.164 L 905.089, 732.325 L 899.404, 729.94 L 899.037, 730.307 L 885.832, 724.805 L 886.199, 724.255 L 880.88, 722.054 L 901.972, 692.893 L 903.072, 693.26 L 906.557, 688.675 L 903.072, 687.391 L 904.539, 685.19 L 898.854, 682.806 L 897.387, 684.823 L 864.191, 670.885 z "/>
<path style="fill:rgb(255, 255, 0);fill-opacity:0;fill-rule:evenodd;stroke:rgb(0, 255, 127);stroke-width:1;" d="M 164.695, 264.833 L 190.188, 229.803 L 205.777, 236.405 L 234.021, 197.891 L 242.274, 201.376 L 244.842, 197.891 L 252.178, 201.009 L 253.278, 199.725 L 269.968, 206.878 L 237.873, 250.711 L 241.174, 252.178 L 216.048, 286.657 L 164.695, 264.833 z "/>
<path style="fill:rgb(255, 0, 0);fill-opacity:0;fill-rule:evenodd;stroke:rgb(0, 255, 127);stroke-width:1;" d="M 364.053, 439.431 L 377.442, 420.908 L 375.791, 420.174 L 391.38, 398.533 L 469.876, 431.178 L 453.37, 481.431 L 430.078, 471.71 L 431.729, 469.693 L 429.711, 468.776 L 429.344, 466.575 L 364.053, 439.431 z M 417.79, 446.401 L 421.825, 448.051 L 419.441, 451.536 L 424.209, 453.553 L 426.96, 449.885 L 434.296, 453.003 L 436.68, 449.885 L 435.03, 449.152 L 440.715, 441.265 L 425.86, 435.213 L 417.79, 446.401 z M 393.031, 438.331 L 407.886, 444.567 L 416.323, 432.829 L 408.987, 429.711 L 412.105, 425.493 L 405.685, 422.742 L 404.402, 424.759 L 403.301, 424.209 L 393.031, 438.331 z "/>
<path style="fill:rgb(0, 255, 0);fill-opacity:0;fill-rule:evenodd;stroke:rgb(0, 255, 127);stroke-width:1;" d="M 69.5094, 526.731 L 133.517, 439.615 L 165.429, 453.187 L 159.193, 461.623 L 101.421, 540.303 L 69.5094, 526.731 z "/>
<path style="fill:rgb(0, 0, 255);fill-opacity:0;fill-rule:evenodd;stroke:rgb(0, 255, 127);stroke-width:1;" d="M 580.834, 294.911 L 588.354, 278.038 L 617.515, 290.326 L 615.497, 293.26 L 644.292, 305.548 L 652.912, 309.033 L 661.531, 297.295 L 664.466, 298.579 L 672.169, 288.125 L 688.125, 294.911 L 680.055, 305.731 L 681.155, 307.565 L 684.64, 309.216 L 687.575, 309.033 L 695.644, 298.028 L 702.43, 300.963 L 703.714, 299.312 L 733.425, 311.967 L 722.788, 326.639 L 702.613, 318.019 L 697.845, 324.438 L 718.019, 332.875 L 706.832, 348.464 L 666.3, 331.224 L 674.92, 319.303 L 674.736, 317.652 L 667.584, 314.718 L 658.047, 327.74 L 580.834, 294.911 z "/>
<path style="fill:rgb(255, 255, 0);fill-opacity:0;fill-rule:evenodd;stroke:rgb(0, 255, 127);stroke-width:1;" d="M 515.91, 502.338 L 529.298, 459.789 L 534.067, 458.322 L 583.402, 479.23 L 616.965, 493.168 L 588.171, 532.783 L 559.56, 520.679 L 560.66, 519.211 L 555.158, 517.011 L 545.254, 512.792 L 544.154, 514.26 L 515.91, 502.338 z M 566.346, 503.439 L 567.079, 505.64 L 580.834, 511.508 L 589.088, 500.138 L 575.332, 494.269 L 572.581, 494.819 L 566.346, 503.439 z M 535.351, 490.967 L 536.451, 492.801 L 549.473, 498.304 L 557.726, 486.933 L 543.971, 481.064 L 541.953, 481.797 L 535.351, 490.967 z "/>
<path style="fill:rgb(255, 0, 0);fill-opacity:0;fill-rule:evenodd;stroke:rgb(0, 255, 127);stroke-width:1;" d="M 241.174, 285.924 L 261.898, 257.313 L 258.964, 256.029 L 286.657, 218.249 L 293.26, 221.183 L 296.194, 217.331 L 305.181, 221.183 L 304.264, 222.283 L 307.749, 223.751 L 308.299, 222.834 L 324.438, 229.619 L 303.897, 257.863 L 300.229, 256.396 L 295.277, 262.999 L 302.247, 265.933 L 274.003, 304.264 L 258.23, 297.662 L 258.78, 296.745 L 255.663, 295.461 L 254.929, 296.378 L 245.392, 292.526 L 248.143, 288.858 L 241.174, 285.924 z "/>
<path style="fill:rgb(0, 255, 0);fill-opacity:0;fill-rule:evenodd;stroke:rgb(0, 255, 127);stroke-width:1;" d="M 802.201, 168.363 L 811.738, 155.158 L 825.309, 160.844 L 831.729, 152.224 L 813.205, 144.521 L 826.227, 126.547 L 877.029, 148.006 L 906.74, 160.477 L 860.89, 198.808 L 844.2, 191.839 L 848.051, 186.52 L 842.549, 184.136 L 841.999, 184.869 L 802.201, 168.363 z M 840.165, 167.079 L 861.256, 175.699 L 872.811, 159.56 L 863.641, 155.892 L 862.173, 157.909 L 850.252, 152.957 L 840.165, 167.079 z "/>
<path style="fill:rgb(0, 0, 255);fill-opacity:0;fill-rule:evenodd;stroke:rgb(0, 255, 127);stroke-width:1;" d="M 645.025, 151.307 L 651.628, 135.901 L 674.92, 145.621 L 679.688, 139.202 L 654.746, 128.748 L 660.064, 116.644 L 687.575, 128.198 L 692.16, 121.962 L 662.999, 109.674 L 671.619, 90.0504 L 686.474, 96.4695 L 691.059, 98.3035 L 688.675, 101.605 L 721.687, 115.543 L 707.565, 134.801 L 721.687, 140.669 L 713.251, 152.407 L 694.911, 144.704 L 692.893, 147.455 L 694.544, 148.006 L 691.793, 151.857 L 708.482, 158.826 L 700.046, 170.381 L 660.248, 153.508 L 658.047, 156.809 L 645.025, 151.307 z "/>
<path style="fill:rgb(255, 255, 0);fill-opacity:0;fill-rule:evenodd;stroke:rgb(0, 255, 127);stroke-width:1;" d="M 482.531, 253.278 L 498.304, 230.72 L 501.788, 232.187 L 533.15, 186.887 L 530.766, 185.97 L 545.621, 164.695 L 565.429, 172.581 L 562.311, 179.734 L 555.342, 195.873 L 547.088, 192.572 L 544.521, 192.939 L 541.22, 197.707 L 542.32, 199.725 L 551.857, 203.576 L 546.171, 216.781 L 529.849, 210.179 L 527.098, 210.362 L 524.163, 214.58 L 525.814, 216.598 L 543.237, 223.567 L 523.246, 269.601 L 482.531, 253.278 z M 504.172, 240.99 L 519.578, 247.409 L 527.831, 235.855 L 515.543, 230.72 L 511.325, 231.087 L 504.172, 240.99 z "/>
<path style="fill:rgb(255, 0, 0);fill-opacity:0;fill-rule:evenodd;stroke:rgb(0, 255, 127);stroke-width:1;" d="M 80.3301, 699.129 L 91.8845, 683.356 L 94.8189, 684.64 L 130.399, 635.855 L 127.464, 634.755 L 138.652, 619.349 L 168.73, 632.004 L 159.927, 644.108 L 155.158, 642.091 L 144.888, 656.213 L 149.289, 657.863 L 140.486, 670.151 L 145.071, 671.985 L 143.237, 674.736 L 138.469, 672.719 L 129.482, 685.19 L 125.08, 683.356 L 114.81, 697.478 L 119.578, 699.496 L 110.591, 711.784 L 80.3301, 699.129 z "/>
<path style="fill:rgb(0, 255, 0);fill-opacity:0;fill-rule:evenodd;stroke:rgb(0, 255, 127);stroke-width:1;" d="M 494.635, 568.913 L 500.321, 551.307 L 506.74, 554.058 L 503.806, 558.093 L 507.84, 559.743 L 515.177, 549.656 L 502.522, 544.337 L 506.557, 531.866 L 517.011, 536.268 L 522.146, 529.298 L 514.81, 526.181 L 514.076, 527.281 L 508.574, 524.897 L 514.076, 507.84 L 527.831, 513.709 L 525.447, 516.827 L 574.415, 537.368 L 566.162, 548.556 L 534.984, 535.534 L 530.582, 541.586 L 561.761, 554.791 L 553.508, 566.162 L 525.08, 554.241 L 520.495, 560.477 L 549.106, 572.398 L 540.669, 583.952 L 507.84, 570.197 L 505.64, 573.498 L 494.635, 568.913 z "/>
<path style="fill:rgb(0, 0, 255);fill-opacity:0;fill-rule:evenodd;stroke:rgb(0, 255, 127);stroke-width:1;" d="M 260.431, 459.422 L 264.833, 453.187 L 263.549, 452.636 L 275.287, 436.497 L 275.837, 436.68 L 282.439, 427.694 L 281.889, 427.327 L 287.758, 419.257 L 288.308, 419.441 L 295.094, 410.271 L 294.544, 409.904 L 306.098, 393.948 L 307.382, 394.498 L 320.037, 377.075 L 342.228, 386.428 L 329.574, 403.851 L 330.674, 404.218 L 312.884, 428.794 L 311.967, 428.427 L 305.181, 437.781 L 306.098, 438.148 L 287.941, 463.09 L 286.474, 462.54 L 282.072, 468.409 L 277.121, 466.392 L 276.754, 466.942 L 264.649, 461.807 L 264.833, 461.44 L 260.431, 459.422 z "/>
<path style="fill:rgb(255, 255, 0);fill-opacity:0;fill-rule:evenodd;stroke:rgb(0, 255, 127);stroke-width:1;" d="M 767.721, 216.781 L 775.974, 205.594 L 776.708, 204.493 L 780.559, 206.144 L 799.266, 180.468 L 828.061, 192.572 L 828.794, 191.472 L 856.121, 202.843 L 815.589, 236.956 L 797.799, 229.436 L 814.305, 206.694 L 813.755, 203.393 L 810.087, 201.926 L 805.869, 203.21 L 789.363, 225.951 L 767.721, 216.781 z "/>
<path style="fill:rgb(255, 0, 0);fill-opacity:0;fill-rule:evenodd;stroke:rgb(0, 255, 127);stroke-width:1;" d="M 108.207, 179.184 L 115.36, 169.28 L 121.229, 171.664 L 123.43, 168.547 L 126.914, 170.014 L 130.766, 164.695 L 138.469, 167.996 L 143.054, 161.577 L 126.181, 154.425 L 129.115, 150.573 L 135.901, 141.22 L 194.039, 165.796 L 186.887, 175.516 L 184.319, 179 L 167.263, 171.664 L 162.494, 178.083 L 170.747, 181.568 L 166.896, 186.887 L 169.83, 187.987 L 167.63, 191.288 L 173.682, 193.856 L 166.529, 203.576 L 141.403, 193.122 L 151.123, 179.734 L 143.237, 176.433 L 133.517, 189.638 L 108.207, 179.184 z "/>
<path style="fill:rgb(0, 255, 0);fill-opacity:0;fill-rule:evenodd;stroke:rgb(0, 255, 127);stroke-width:1;" d="M 516.277, 88.95 L 532.783, 66.3916 L 545.621, 71.8936 L 553.141, 75.0115 L 551.307, 77.3957 L 557.176, 79.7799 L 558.826, 77.3957 L 571.481, 82.7144 L 585.97, 88.7666 L 600.275, 95.0023 L 589.454, 119.762 L 579, 115.36 L 528.015, 93.9019 L 516.277, 88.95 z "/>
<path style="fill:rgb(0, 0, 255);fill-opacity:0;fill-rule:evenodd;stroke:rgb(0, 255, 127);stroke-width:1;" d="M 219.349, 680.789 L 225.768, 671.802 L 221.366, 669.968 L 226.502, 662.815 L 230.903, 664.649 L 234.204, 660.431 L 298.579, 687.391 L 295.277, 691.793 L 299.862, 693.81 L 294.911, 700.779 L 290.142, 698.945 L 283.723, 707.749 L 219.349, 680.789 z "/>
<path style="fill:rgb(255, 255, 0);fill-opacity:0;fill-rule:evenodd;stroke:rgb(0, 255, 127);stroke-width:1;" d="M 315.268, 738.377 L 324.805, 725.172 L 339.294, 731.224 L 337.46, 733.608 L 341.128, 735.259 L 351.765, 720.587 L 347.73, 718.936 L 347.18, 719.853 L 333.058, 713.801 L 342.962, 700.413 L 376.525, 714.535 L 376.891, 716.919 L 360.385, 756.534 L 356.534, 757.267 L 335.442, 748.464 L 334.525, 746.63 L 315.268, 738.377 z "/>
<path style="fill:rgb(255, 0, 0);fill-opacity:0;fill-rule:evenodd;stroke:rgb(0, 255, 127);stroke-width:1;" d="M 75.3783, 379.826 L 83.448, 369.005 L 87.2994, 370.656 L 107.29, 343.329 L 121.596, 349.198 L 117.194, 355.25 L 118.845, 355.8 L 117.744, 357.267 L 118.478, 357.634 L 122.146, 359.101 L 123.246, 357.634 L 124.347, 358.184 L 128.748, 352.315 L 143.237, 358.368 L 123.246, 385.878 L 126.364, 387.162 L 118.478, 397.983 L 100.688, 390.463 L 109.124, 378.725 L 108.207, 378.359 L 112.242, 372.673 L 107.657, 370.656 L 103.439, 376.341 L 102.155, 375.791 L 93.5351, 387.529 L 75.3783, 379.826 z "/>
<path style="fill:rgb(0, 255, 0);fill-opacity:0;fill-rule:evenodd;stroke:rgb(0, 255, 127);stroke-width:1;" d="M 282.439, 726.639 L 311.233, 687.024 L 342.962, 700.413 L 333.058, 713.801 L 324.805, 725.172 L 315.268, 738.377 L 314.168, 739.844 L 282.439, 726.639 z "/>
<path style="fill:rgb(0, 0, 255);fill-opacity:0;fill-rule:evenodd;stroke:rgb(0, 255, 127);stroke-width:1;" d="M 125.08, 400.917 L 132.783, 390.463 L 154.608, 399.633 L 155.342, 398.716 L 161.761, 401.467 L 165.429, 396.515 L 137.001, 384.411 L 140.853, 379.276 L 142.137, 380.009 L 143.054, 378.725 L 177.717, 393.214 L 173.865, 398.716 L 180.468, 401.467 L 177.533, 405.502 L 178.817, 407.336 L 183.952, 409.354 L 186.887, 408.436 L 193.489, 399.266 L 208.528, 405.502 L 191.472, 428.794 L 125.08, 400.917 z "/>
<path style="fill:rgb(255, 255, 0);fill-opacity:0;fill-rule:evenodd;stroke:rgb(0, 255, 127);stroke-width:1;" d="M 657.863, 271.619 L 688.492, 229.986 L 717.286, 242.274 L 692.71, 275.837 L 686.841, 283.906 L 657.863, 271.619 z "/>
<path style="fill:rgb(255, 0, 0);fill-opacity:0;fill-rule:evenodd;stroke:rgb(0, 255, 127);stroke-width:1;" d="M 141.77, 107.657 L 149.289, 97.0197 L 150.94, 94.8189 L 162.494, 99.5873 L 172.031, 86.199 L 160.844, 81.6139 L 168.363, 71.16 L 211.646, 89.1334 L 204.127, 99.5873 L 186.887, 92.4347 L 181.568, 99.7707 L 178.45, 98.4869 L 176.433, 101.421 L 180.834, 103.255 L 178.634, 106.19 L 194.59, 112.976 L 185.603, 125.264 L 185.236, 125.814 L 141.77, 107.657 z "/>
<path style="fill:rgb(0, 255, 0);fill-opacity:0;fill-rule:evenodd;stroke:rgb(0, 255, 127);stroke-width:1;" d="M 759.101, 63.6405 L 764.42, 50.0688 L 775.608, 54.8372 L 779.092, 50.0688 L 778.175, 48.0514 L 767.354, 43.4663 L 768.822, 39.6149 L 771.389, 40.7153 L 774.874, 31.3618 L 788.996, 37.2306 L 806.052, 44.5667 L 808.253, 41.4489 L 823.475, 47.868 L 812.655, 62.5401 L 793.398, 54.287 L 789.363, 59.7891 L 788.629, 60.8895 L 807.886, 68.9592 L 799.266, 80.6969 L 759.101, 63.6405 z "/>
<path style="fill:rgb(0, 0, 255);fill-opacity:0;fill-rule:evenodd;stroke:rgb(0, 255, 127);stroke-width:1;" d="M 360.018, 123.98 L 365.337, 116.46 L 362.769, 115.36 L 379.092, 92.6181 L 423.659, 111.142 L 401.834, 141.403 L 386.612, 134.984 L 389.363, 130.949 L 388.996, 128.198 L 395.048, 119.945 L 383.31, 115.177 L 377.258, 123.43 L 374.324, 124.713 L 371.389, 128.748 L 360.018, 123.98 z "/>
<path style="fill:rgb(255, 255, 0);fill-opacity:0;fill-rule:evenodd;stroke:rgb(0, 255, 127);stroke-width:1;" d="M 640.624, 405.135 L 650.527, 391.38 L 658.23, 394.681 L 667.767, 381.66 L 660.064, 378.359 L 661.348, 376.525 L 669.418, 365.52 L 685.74, 372.306 L 685.74, 372.123 L 697.478, 377.258 L 694.36, 386.245 L 671.252, 417.973 L 640.624, 405.135 z "/>
<path style="fill:rgb(255, 0, 0);fill-opacity:0;fill-rule:evenodd;stroke:rgb(0, 255, 127);stroke-width:1;" d="M 548.923, 44.3833 L 564.878, 22.5585 L 620.449, 45.8505 L 614.397, 60.7061 L 611.279, 65.1077 L 607.978, 66.2082 L 582.852, 55.5708 L 585.42, 52.2696 L 567.996, 44.9335 L 563.778, 50.619 L 561.577, 49.702 L 548.923, 44.3833 z "/>
<path style="fill:rgb(0, 255, 0);fill-opacity:0;fill-rule:evenodd;stroke:rgb(0, 255, 127);stroke-width:1;" d="M 81.6139, 323.338 L 111.142, 282.072 L 136.635, 292.526 L 118.661, 317.652 L 106.923, 333.792 L 81.6139, 323.338 z "/>
<path style="fill:rgb(0, 0, 255);fill-opacity:0;fill-rule:evenodd;stroke:rgb(0, 255, 127);stroke-width:1;" d="M 379.826, 272.352 L 396.515, 249.427 L 449.885, 271.619 L 433.196, 294.727 L 431.545, 293.994 L 420.358, 289.225 L 426.41, 280.789 L 423.842, 277.487 L 421.091, 276.387 L 417.79, 280.972 L 405.135, 275.837 L 408.07, 271.985 L 404.218, 270.335 L 400.917, 270.518 L 394.865, 278.771 L 379.826, 272.352 z "/>
<path style="fill:rgb(255, 255, 0);fill-opacity:0;fill-rule:evenodd;stroke:rgb(0, 255, 127);stroke-width:1;" d="M 671.619, 90.0504 L 682.072, 66.0248 L 740.945, 90.784 L 725.172, 112.609 L 708.299, 105.64 L 714.718, 96.8363 L 692.893, 87.6662 L 686.474, 96.4695 L 671.619, 90.0504 z "/>
<path style="fill:rgb(255, 0, 0);fill-opacity:0;fill-rule:evenodd;stroke:rgb(0, 255, 127);stroke-width:1;" d="M 150.757, 377.442 L 161.027, 363.32 L 201.009, 380.193 L 200.275, 381.11 L 203.026, 382.393 L 205.777, 381.843 L 208.161, 378.725 L 223.384, 385.144 L 208.528, 405.502 L 193.489, 399.266 L 196.424, 395.415 L 196.057, 393.398 L 193.122, 392.114 L 191.288, 394.498 L 150.757, 377.442 z "/>
<path style="fill:rgb(0, 255, 0);fill-opacity:0;fill-rule:evenodd;stroke:rgb(0, 255, 127);stroke-width:1;" d="M 452.636, 342.779 L 460.523, 332.141 L 473.361, 337.46 L 477.396, 331.958 L 464.558, 326.456 L 472.811, 315.085 L 482.898, 319.303 L 481.981, 320.403 L 486.749, 322.421 L 487.666, 321.32 L 489.317, 322.054 L 491.151, 319.486 L 502.155, 324.072 L 504.356, 324.989 L 498.67, 342.595 L 492.068, 339.844 L 490.784, 337.643 L 488.583, 338.193 L 487.483, 339.844 L 488.033, 341.495 L 486.016, 344.246 L 496.653, 348.647 L 492.068, 362.953 L 479.597, 357.634 L 476.295, 356.35 L 478.313, 353.599 L 452.636, 342.779 z "/>
<path style="fill:rgb(0, 0, 255);fill-opacity:0;fill-rule:evenodd;stroke:rgb(0, 255, 127);stroke-width:1;" d="M 363.503, 294.911 L 379.826, 272.352 L 394.865, 278.771 L 395.965, 279.138 L 391.747, 285.007 L 408.436, 291.976 L 411.921, 293.443 L 416.139, 287.575 L 420.358, 289.225 L 431.545, 293.994 L 415.222, 316.369 L 400, 310.133 L 404.402, 303.897 L 385.878, 296.194 L 384.227, 295.461 L 379.642, 301.513 L 363.503, 294.911 z "/>
<path style="fill:rgb(255, 255, 0);fill-opacity:0;fill-rule:evenodd;stroke:rgb(0, 255, 127);stroke-width:1;" d="M 425.126, 377.992 L 439.431, 358.368 L 448.051, 362.036 L 451.903, 363.686 L 454.837, 364.787 L 452.82, 367.721 L 450.802, 367.905 L 449.152, 370.105 L 451.903, 371.206 L 452.27, 370.839 L 466.208, 376.525 L 465.658, 377.075 L 468.226, 378.175 L 469.876, 375.974 L 468.959, 374.14 L 470.977, 371.573 L 471.527, 371.756 L 486.933, 378.175 L 480.147, 398.716 L 477.029, 399.633 L 425.126, 377.992 z "/>
<path style="fill:rgb(255, 0, 0);fill-opacity:0;fill-rule:evenodd;stroke:rgb(0, 255, 127);stroke-width:1;" d="M 532.783, 66.3916 L 548.923, 44.3833 L 561.577, 49.702 L 557.176, 55.7542 L 561.761, 57.5883 L 563.595, 55.0206 L 599.541, 70.243 L 585.97, 88.7666 L 571.481, 82.7144 L 575.516, 77.2123 L 574.966, 77.0289 L 551.674, 67.1252 L 548.739, 67.6754 L 545.621, 71.8936 L 532.783, 66.3916 z "/>
<path style="fill:rgb(0, 255, 0);fill-opacity:0;fill-rule:evenodd;stroke:rgb(0, 255, 127);stroke-width:1;" d="M 192.572, 65.1077 L 200.642, 53.9202 L 207.428, 56.6713 L 219.532, 39.7983 L 212.93, 37.0472 L 220.449, 26.5933 L 249.06, 38.5144 L 241.724, 48.6016 L 236.956, 46.5841 L 234.021, 45.8505 L 231.82, 48.9684 L 235.488, 50.4356 L 217.331, 75.5617 L 192.572, 65.1077 z "/>
<path style="fill:rgb(0, 0, 255);fill-opacity:0;fill-rule:evenodd;stroke:rgb(0, 255, 127);stroke-width:1;" d="M 242.641, 151.123 L 250.527, 140.486 L 254.929, 142.32 L 255.296, 143.787 L 257.863, 144.154 L 259.331, 142.137 L 258.597, 141.403 L 267.95, 128.381 L 269.785, 128.198 L 271.068, 126.547 L 269.418, 124.53 L 267.033, 125.447 L 262.632, 123.613 L 270.702, 112.425 L 299.679, 124.53 L 291.793, 135.534 L 287.575, 133.884 L 286.657, 131.683 L 283.906, 131.683 L 282.256, 133.884 L 282.806, 134.801 L 273.819, 147.272 L 271.985, 147.639 L 270.518, 149.473 L 272.352, 151.674 L 274.92, 150.757 L 279.505, 152.591 L 271.802, 163.228 L 242.641, 151.123 z "/>
<path style="fill:rgb(255, 255, 0);fill-opacity:0;fill-rule:evenodd;stroke:rgb(0, 255, 127);stroke-width:1;" d="M 54.1036, 156.075 L 72.6272, 130.766 L 75.9285, 132.05 L 77.5791, 129.482 L 70.7932, 126.731 L 77.9459, 116.827 L 106.923, 129.115 L 100.504, 138.102 L 95.5525, 136.084 L 92.9849, 137.185 L 90.6006, 140.486 L 88.3998, 141.586 L 84.9152, 146.171 L 80.3301, 152.407 L 81.9807, 154.058 L 87.116, 156.259 L 79.5965, 166.713 L 54.1036, 156.075 z "/>
<path style="fill:rgb(255, 0, 0);fill-opacity:0;fill-rule:evenodd;stroke:rgb(0, 255, 127);stroke-width:1;" d="M 427.144, 313.618 L 435.58, 302.063 L 443.099, 305.181 L 455.571, 287.941 L 448.051, 284.64 L 455.021, 275.103 L 484.182, 287.208 L 480.147, 292.893 L 477.212, 296.928 L 469.509, 293.627 L 459.972, 306.832 L 460.706, 309.033 L 458.689, 311.784 L 459.239, 313.984 L 463.457, 315.818 L 456.304, 325.906 L 427.144, 313.618 z "/>
<path style="fill:rgb(0, 255, 0);fill-opacity:0;fill-rule:evenodd;stroke:rgb(0, 255, 127);stroke-width:1;" d="M 112.792, 95.7359 L 118.845, 87.2994 L 120.312, 85.0986 L 125.447, 87.116 L 128.381, 86.9326 L 130.582, 83.8148 L 138.102, 73.3608 L 137.001, 71.7102 L 131.683, 69.5094 L 139.936, 57.9551 L 169.097, 70.0596 L 168.363, 71.16 L 160.844, 81.6139 L 155.158, 79.2297 L 151.307, 79.7799 L 141.953, 92.6181 L 143.971, 94.8189 L 149.289, 97.0197 L 141.77, 107.657 L 112.792, 95.7359 z "/>
<path style="fill:rgb(0, 0, 255);fill-opacity:0;fill-rule:evenodd;stroke:rgb(0, 255, 127);stroke-width:1;" d="M 589.821, 382.21 L 608.161, 357.084 L 611.646, 358.551 L 613.847, 355.25 L 607.244, 352.499 L 614.58, 342.412 L 643.191, 354.516 L 635.672, 364.603 L 627.052, 361.119 L 615.131, 377.442 L 623.751, 381.11 L 623.2, 381.843 L 615.131, 392.847 L 589.821, 382.21 z "/>
<path style="fill:rgb(255, 255, 0);fill-opacity:0;fill-rule:evenodd;stroke:rgb(0, 255, 127);stroke-width:1;" d="M 416.323, 224.668 L 429.344, 206.878 L 441.449, 212.013 L 443.283, 212.93 L 441.816, 214.947 L 441.449, 217.331 L 444.017, 218.432 L 444.75, 217.331 L 482.531, 233.287 L 471.894, 247.96 L 416.323, 224.668 z "/>
<path style="fill:rgb(255, 0, 0);fill-opacity:0;fill-rule:evenodd;stroke:rgb(0, 255, 127);stroke-width:1;" d="M 907.474, 60.5227 L 911.692, 40.3485 L 922.696, 41.8157 L 925.997, 25.6763 L 930.032, 26.2265 L 930.766, 23.2921 L 938.835, 24.2091 L 938.102, 27.1435 L 941.586, 27.5103 L 938.102, 43.6497 L 948.189, 44.9335 L 943.787, 64.9243 L 936.084, 64.0073 L 935.351, 67.8588 L 913.893, 65.1077 L 914.81, 61.4397 L 907.474, 60.5227 z "/>
<path style="fill:rgb(0, 255, 0);fill-opacity:0;fill-rule:evenodd;stroke:rgb(0, 255, 127);stroke-width:1;" d="M 240.624, 75.1949 L 241.724, 73.5442 L 260.431, 46.9509 L 283.356, 56.121 L 284.64, 54.287 L 292.16, 57.4049 L 283.54, 69.326 L 270.335, 87.116 L 240.624, 75.1949 z "/>
<path style="fill:rgb(0, 0, 255);fill-opacity:0;fill-rule:evenodd;stroke:rgb(0, 255, 127);stroke-width:1;" d="M 130.582, 252.728 L 137.918, 242.641 L 145.254, 245.759 L 153.324, 234.755 L 153.324, 233.838 L 156.992, 228.702 L 155.342, 227.235 L 150.573, 225.218 L 158.093, 214.947 L 187.254, 227.052 L 179.551, 237.689 L 171.848, 234.388 L 159.376, 251.628 L 167.079, 254.929 L 159.56, 265.016 L 130.582, 252.728 z "/>
<path style="fill:rgb(255, 255, 0);fill-opacity:0;fill-rule:evenodd;stroke:rgb(0, 255, 127);stroke-width:1;" d="M 72.2604, 228.336 L 80.3301, 217.331 L 84.365, 218.982 L 84.9152, 220.266 L 87.8496, 221.55 L 98.1201, 207.244 L 96.4695, 205.044 L 91.1508, 202.659 L 92.2513, 201.009 L 99.4039, 191.288 L 128.381, 203.393 L 124.347, 208.895 L 119.945, 214.947 L 116.644, 213.48 L 115.727, 211.463 L 113.526, 210.546 L 101.421, 227.235 L 103.072, 227.969 L 104.723, 227.419 L 109.491, 229.253 L 101.238, 240.44 L 72.2604, 228.336 z "/>
<path style="fill:rgb(255, 0, 0);fill-opacity:0;fill-rule:evenodd;stroke:rgb(0, 255, 127);stroke-width:1;" d="M 79.5965, 166.713 L 87.116, 156.259 L 92.8015, 158.643 L 95.5525, 158.826 L 103.439, 147.822 L 103.072, 145.805 L 105.64, 142.137 L 105.456, 140.303 L 100.504, 138.102 L 106.923, 129.115 L 135.901, 141.22 L 129.115, 150.573 L 121.962, 147.639 L 119.945, 150.573 L 122.879, 151.674 L 104.356, 177.166 L 79.5965, 166.713 z "/>
<path style="fill:rgb(0, 255, 0);fill-opacity:0;fill-rule:evenodd;stroke:rgb(0, 255, 127);stroke-width:1;" d="M 488.4, 588.904 L 494.635, 568.913 L 505.64, 573.498 L 545.805, 590.371 L 533.15, 607.611 L 520.128, 602.293 L 491.151, 590.005 L 488.4, 588.904 z "/>
<path style="fill:rgb(0, 0, 255);fill-opacity:0;fill-rule:evenodd;stroke:rgb(0, 255, 127);stroke-width:1;" d="M 400.183, 68.7758 L 416.69, 46.2173 L 419.441, 47.5011 L 429.528, 51.7194 L 424.026, 59.2389 L 439.065, 65.658 L 444.567, 57.9551 L 446.217, 58.6887 L 458.322, 63.8239 L 441.816, 86.3824 L 400.183, 68.7758 z "/>
<path style="fill:rgb(255, 255, 0);fill-opacity:0;fill-rule:evenodd;stroke:rgb(0, 255, 127);stroke-width:1;" d="M 468.226, 153.691 L 480.514, 136.818 L 535.718, 160.11 L 525.08, 174.599 L 488.767, 159.193 L 489.684, 157.909 L 486.016, 156.442 L 483.448, 157.726 L 482.164, 159.56 L 480.33, 158.826 L 468.226, 153.691 z "/>
<path style="fill:rgb(255, 0, 0);fill-opacity:0;fill-rule:evenodd;stroke:rgb(0, 255, 127);stroke-width:1;" d="M 703.897, 275.47 L 717.836, 256.396 L 733.058, 262.815 L 728.473, 269.234 L 743.145, 275.287 L 746.263, 275.103 L 749.931, 269.968 L 768.455, 277.854 L 745.346, 296.745 L 733.242, 291.609 L 736.359, 287.391 L 722.238, 281.339 L 721.137, 282.806 L 703.897, 275.47 z "/>
<path style="fill:rgb(0, 255, 0);fill-opacity:0;fill-rule:evenodd;stroke:rgb(0, 255, 127);stroke-width:1;" d="M 615.131, 392.847 L 623.2, 381.843 L 628.886, 384.227 L 629.803, 382.944 L 631.27, 383.677 L 641.357, 369.739 L 639.89, 367.721 L 634.938, 365.704 L 635.672, 364.603 L 643.191, 354.516 L 669.418, 365.52 L 661.348, 376.525 L 656.213, 374.324 L 653.095, 378.542 L 654.379, 378.909 L 637.322, 402.201 L 615.131, 392.847 z "/>
<path style="fill:rgb(0, 0, 255);fill-opacity:0;fill-rule:evenodd;stroke:rgb(0, 255, 127);stroke-width:1;" d="M 322.238, 100.688 L 328.657, 91.7011 L 332.875, 93.3517 L 335.626, 92.6181 L 337.093, 90.4172 L 335.993, 88.95 L 328.473, 85.8322 L 335.076, 76.6621 L 336.359, 74.8281 L 374.14, 90.6006 L 366.437, 101.421 L 358.735, 98.3035 L 355.8, 98.6703 L 354.7, 100.138 L 355.433, 102.705 L 358.918, 104.172 L 352.499, 113.343 L 322.238, 100.688 z "/>
<path style="fill:rgb(255, 255, 0);fill-opacity:0;fill-rule:evenodd;stroke:rgb(0, 255, 127);stroke-width:1;" d="M 608.712, 232.737 L 616.598, 214.947 L 634.755, 222.65 L 637.506, 223.751 L 635.855, 225.951 L 638.973, 225.585 L 660.981, 234.938 L 659.147, 237.139 L 671.435, 242.458 L 664.649, 251.444 L 652.545, 246.309 L 650.527, 249.06 L 628.886, 239.89 L 627.235, 237.506 L 625.585, 239.89 L 608.712, 232.737 z "/>
<path style="fill:rgb(255, 0, 0);fill-opacity:0;fill-rule:evenodd;stroke:rgb(0, 255, 127);stroke-width:1;" d="M 334.525, 130.215 L 342.595, 119.028 L 376.525, 132.967 L 377.808, 131.316 L 386.612, 134.984 L 401.834, 141.403 L 391.197, 156.259 L 366.988, 146.171 L 368.455, 144.154 L 334.525, 130.215 z "/>
<path style="fill:rgb(0, 255, 0);fill-opacity:0;fill-rule:evenodd;stroke:rgb(0, 255, 127);stroke-width:1;" d="M 268.134, 96.4695 L 284.457, 73.7276 L 287.391, 74.8281 L 289.592, 71.7102 L 283.54, 69.326 L 292.16, 57.4049 L 316.185, 67.3086 L 315.268, 68.409 L 307.565, 79.2297 L 300.596, 76.2953 L 292.16, 88.033 L 299.129, 90.9674 L 288.858, 105.089 L 268.134, 96.4695 z "/>
<path style="fill:rgb(0, 0, 255);fill-opacity:0;fill-rule:evenodd;stroke:rgb(0, 255, 127);stroke-width:1;" d="M 193.856, 216.048 L 214.764, 187.62 L 211.096, 185.97 L 218.432, 176.066 L 242.641, 186.153 L 235.488, 196.24 L 231.82, 194.773 L 210.912, 223.2 L 193.856, 216.048 z "/>
<path style="fill:rgb(255, 255, 0);fill-opacity:0;fill-rule:evenodd;stroke:rgb(0, 255, 127);stroke-width:1;" d="M 141.77, 730.491 L 150.94, 717.836 L 154.608, 719.486 L 173.498, 693.443 L 189.821, 700.229 L 170.931, 726.272 L 174.782, 727.923 L 165.612, 740.394 L 141.77, 730.491 z "/>
<path style="fill:rgb(255, 0, 0);fill-opacity:0;fill-rule:evenodd;stroke:rgb(0, 255, 127);stroke-width:1;" d="M 169.647, 205.777 L 190.555, 177.166 L 186.887, 175.516 L 194.039, 165.796 L 218.432, 176.066 L 211.096, 185.97 L 207.061, 184.319 L 186.337, 212.93 L 169.647, 205.777 z "/>
<path style="fill:rgb(0, 255, 0);fill-opacity:0;fill-rule:evenodd;stroke:rgb(0, 255, 127);stroke-width:1;" d="M 76.4787, 793.398 L 91.7011, 772.856 L 102.705, 758.184 L 90.784, 753.049 L 95.9193, 746.08 L 122.329, 757.267 L 98.6703, 789.179 L 90.9674, 799.633 L 76.4787, 793.398 z "/>
<path style="fill:rgb(0, 0, 255);fill-opacity:0;fill-rule:evenodd;stroke:rgb(0, 255, 127);stroke-width:1;" d="M 441.999, 189.454 L 455.021, 171.848 L 467.125, 176.983 L 465.108, 179.551 L 466.758, 181.751 L 469.143, 181.751 L 505.823, 197.157 L 497.203, 209.078 L 459.972, 193.306 L 458.872, 191.839 L 456.121, 192.022 L 454.287, 194.59 L 441.999, 189.454 z "/>
<path style="fill:rgb(255, 255, 0);fill-opacity:0;fill-rule:evenodd;stroke:rgb(0, 255, 127);stroke-width:1;" d="M 455.021, 171.848 L 468.226, 153.691 L 480.33, 158.826 L 478.313, 161.577 L 479.413, 163.595 L 481.247, 164.328 L 481.797, 163.778 L 518.845, 179.367 L 510.408, 191.105 L 473.361, 175.516 L 472.26, 174.232 L 469.143, 174.232 L 467.125, 176.983 L 455.021, 171.848 z "/>
<path style="fill:rgb(255, 0, 0);fill-opacity:0;fill-rule:evenodd;stroke:rgb(0, 255, 127);stroke-width:1;" d="M 500.688, 110.225 L 516.277, 88.95 L 528.015, 93.9019 L 528.932, 95.9193 L 549.106, 104.539 L 550.023, 106.373 L 547.455, 109.858 L 544.521, 110.775 L 530.399, 104.723 L 529.298, 106.557 L 543.237, 112.425 L 543.971, 114.626 L 536.268, 125.264 L 500.688, 110.225 z "/>
<path style="fill:rgb(0, 255, 0);fill-opacity:0;fill-rule:evenodd;stroke:rgb(0, 255, 127);stroke-width:1;" d="M 616.598, 214.947 L 622.283, 202.109 L 685.74, 228.886 L 677.121, 240.624 L 663.916, 234.938 L 662.815, 232.921 L 650.344, 227.602 L 636.772, 221.917 L 634.755, 222.65 L 616.598, 214.947 z "/>
<path style="fill:rgb(0, 0, 255);fill-opacity:0;fill-rule:evenodd;stroke:rgb(0, 255, 127);stroke-width:1;" d="M 744.062, 206.878 L 751.215, 197.157 L 751.765, 196.424 L 755.617, 198.074 L 775.974, 170.197 L 791.747, 176.983 L 772.123, 204.127 L 775.974, 205.594 L 767.721, 216.781 L 744.062, 206.878 z "/>
<path style="fill:rgb(255, 255, 0);fill-opacity:0;fill-rule:evenodd;stroke:rgb(0, 255, 127);stroke-width:1;" d="M 600.825, 250.344 L 608.712, 232.737 L 625.585, 239.89 L 627.052, 240.44 L 625.585, 242.458 L 629.069, 242.458 L 649.06, 250.894 L 647.226, 253.462 L 659.514, 258.597 L 652.728, 267.767 L 640.44, 262.632 L 638.973, 264.833 L 618.799, 256.213 L 616.965, 254.195 L 615.314, 256.396 L 600.825, 250.344 z "/>
<path style="fill:rgb(255, 0, 0);fill-opacity:0;fill-rule:evenodd;stroke:rgb(0, 255, 127);stroke-width:1;" d="M 419.441, 47.5011 L 435.763, 25.6763 L 447.134, 30.4448 L 444.2, 34.2962 L 444.383, 36.497 L 456.121, 41.4489 L 459.422, 40.7153 L 462.357, 36.8638 L 474.461, 41.9991 L 458.322, 63.8239 L 446.217, 58.6887 L 449.152, 55.0206 L 448.235, 52.0862 L 436.497, 47.1343 L 433.746, 48.4182 L 430.995, 52.2696 L 429.528, 51.7194 L 419.441, 47.5011 z "/>
<path style="fill:rgb(0, 255, 0);fill-opacity:0;fill-rule:evenodd;stroke:rgb(0, 255, 127);stroke-width:1;" d="M 88.2164, 85.4654 L 94.2687, 77.2123 L 97.9367, 78.6795 L 101.055, 77.9459 L 99.7707, 76.8455 L 119.578, 49.3352 L 136.084, 56.3044 L 116.827, 82.8978 L 114.81, 83.6314 L 115.177, 85.8322 L 118.845, 87.2994 L 112.792, 95.7359 L 88.2164, 85.4654 z "/>
<path style="fill:rgb(0, 0, 255);fill-opacity:0;fill-rule:evenodd;stroke:rgb(0, 255, 127);stroke-width:1;" d="M 720.954, 197.157 L 728.106, 187.437 L 731.774, 189.088 L 752.682, 160.477 L 768.822, 167.263 L 747.914, 195.873 L 751.215, 197.157 L 744.062, 206.878 L 720.954, 197.157 z "/>
<path style="fill:rgb(255, 255, 0);fill-opacity:0;fill-rule:evenodd;stroke:rgb(0, 255, 127);stroke-width:1;" d="M 429.344, 206.878 L 441.999, 189.454 L 454.287, 194.59 L 452.453, 197.157 L 455.387, 198.808 L 492.985, 214.764 L 484.732, 226.318 L 447.134, 210.362 L 445.851, 209.078 L 443.466, 209.445 L 441.449, 212.013 L 429.344, 206.878 z "/>
<path style="fill:rgb(255, 0, 0);fill-opacity:0;fill-rule:evenodd;stroke:rgb(0, 255, 127);stroke-width:1;" d="M 39.4315, 65.1077 L 45.4837, 56.8547 L 49.1518, 58.5053 L 52.453, 57.2215 L 53.0032, 56.4878 L 51.9028, 55.9376 L 71.16, 29.1609 L 87.4828, 36.1302 L 68.0422, 62.9069 L 66.3916, 63.0903 L 66.2082, 65.4746 L 70.243, 67.1252 L 64.3741, 75.5617 L 39.4315, 65.1077 z "/>
<path style="fill:rgb(0, 255, 0);fill-opacity:0;fill-rule:evenodd;stroke:rgb(0, 255, 127);stroke-width:1;" d="M 64.3741, 75.5617 L 70.243, 67.1252 L 73.1774, 68.409 L 76.2953, 67.6754 L 76.8455, 66.7584 L 75.7451, 66.3916 L 95.1857, 39.2481 L 111.692, 46.2173 L 92.2513, 73.1774 L 90.4172, 73.1774 L 90.6006, 75.7451 L 94.2687, 77.2123 L 88.2164, 85.4654 L 64.3741, 75.5617 z "/>
<path style="fill:rgb(0, 0, 255);fill-opacity:0;fill-rule:evenodd;stroke:rgb(0, 255, 127);stroke-width:1;" d="M 698.028, 187.62 L 704.998, 177.717 L 708.849, 179.367 L 729.574, 150.757 L 745.163, 157.359 L 724.438, 185.97 L 728.106, 187.437 L 720.954, 197.157 L 698.028, 187.62 z "/>
<path style="fill:rgb(255, 255, 0);fill-opacity:0;fill-rule:evenodd;stroke:rgb(0, 255, 127);stroke-width:1;" d="M 542.503, 127.831 L 550.206, 117.377 L 552.957, 116.644 L 566.896, 122.513 L 568.18, 120.679 L 554.241, 114.81 L 553.874, 112.425 L 556.259, 108.941 L 559.01, 108.574 L 576.616, 115.91 L 579, 115.36 L 589.454, 119.762 L 578.634, 143.054 L 542.503, 127.831 z "/>
<path style="fill:rgb(255, 0, 0);fill-opacity:0;fill-rule:evenodd;stroke:rgb(0, 255, 127);stroke-width:1;" d="M 339.661, 327.74 L 348.097, 316.185 L 404.952, 339.844 L 396.515, 351.398 L 396.149, 351.215 L 339.661, 327.74 z "/>
<path style="fill:rgb(0, 255, 0);fill-opacity:0;fill-rule:evenodd;stroke:rgb(0, 255, 127);stroke-width:1;" d="M 331.591, 338.927 L 339.661, 327.74 L 396.149, 351.215 L 388.079, 362.586 L 331.591, 338.927 z "/>
<path style="fill:rgb(0, 0, 255);fill-opacity:0;fill-rule:evenodd;stroke:rgb(0, 255, 127);stroke-width:1;" d="M 300.779, 175.149 L 308.299, 164.695 L 317.469, 168.547 L 367.354, 189.271 L 359.652, 199.725 L 300.779, 175.149 z "/>
<path style="fill:rgb(255, 255, 0);fill-opacity:0;fill-rule:evenodd;stroke:rgb(0, 255, 127);stroke-width:1;" d="M 192.756, 328.29 L 200.459, 317.836 L 256.763, 341.495 L 248.693, 352.499 L 218.065, 339.661 L 202.293, 333.058 L 203.21, 331.591 L 199.908, 330.124 L 199.725, 330.674 L 196.24, 329.207 L 195.873, 329.574 L 192.756, 328.29 z "/>
<path style="fill:rgb(255, 0, 0);fill-opacity:0;fill-rule:evenodd;stroke:rgb(0, 255, 127);stroke-width:1;" d="M 327.189, 144.154 L 335.259, 132.967 L 366.988, 146.171 L 391.197, 156.259 L 383.127, 167.263 L 369.188, 161.577 L 371.022, 159.01 L 367.905, 157.726 L 366.071, 160.293 L 328.106, 144.521 L 327.189, 144.154 z "/>
<path style="fill:rgb(0, 255, 0);fill-opacity:0;fill-rule:evenodd;stroke:rgb(0, 255, 127);stroke-width:1;" d="M 355.8, 305.548 L 363.503, 294.911 L 379.642, 301.513 L 400, 310.133 L 415.222, 316.369 L 420.358, 318.569 L 412.471, 329.207 L 355.8, 305.548 z "/>
<path style="fill:rgb(0, 0, 255);fill-opacity:0;fill-rule:evenodd;stroke:rgb(0, 255, 127);stroke-width:1;" d="M 320.22, 155.525 L 328.106, 144.521 L 366.071, 160.293 L 369.188, 161.577 L 383.127, 167.263 L 375.057, 178.45 L 325.355, 157.726 L 320.22, 155.525 z "/>
<path style="fill:rgb(255, 255, 0);fill-opacity:0;fill-rule:evenodd;stroke:rgb(0, 255, 127);stroke-width:1;" d="M 348.097, 316.185 L 355.8, 305.548 L 412.471, 329.207 L 404.952, 339.844 L 348.097, 316.185 z "/>
<path style="fill:rgb(255, 0, 0);fill-opacity:0;fill-rule:evenodd;stroke:rgb(0, 255, 127);stroke-width:1;" d="M 153.324, 352.315 L 163.228, 338.927 L 171.664, 327.373 L 176.249, 321.137 L 183.769, 310.867 L 197.707, 316.735 L 167.263, 358.184 L 153.324, 352.315 z "/>
<path style="fill:rgb(0, 255, 0);fill-opacity:0;fill-rule:evenodd;stroke:rgb(0, 255, 127);stroke-width:1;" d="M 456.304, 689.592 L 467.859, 653.278 L 487.299, 661.348 L 492.068, 663.365 L 469.143, 694.911 L 456.304, 689.592 z "/>
<path style="fill:rgb(0, 0, 255);fill-opacity:0;fill-rule:evenodd;stroke:rgb(0, 255, 127);stroke-width:1;" d="M 595.323, 262.632 L 600.825, 250.344 L 615.314, 256.396 L 617.698, 257.497 L 616.231, 259.514 L 617.698, 259.147 L 627.052, 263.182 L 629.253, 262.448 L 633.104, 263.916 L 634.204, 266.116 L 639.34, 268.317 L 646.492, 271.435 L 649.06, 270.702 L 660.981, 275.837 L 653.829, 285.557 L 627.969, 274.553 L 624.851, 275.287 L 621, 273.636 L 621, 271.435 L 612.013, 267.767 L 610.912, 266.483 L 609.262, 268.684 L 595.323, 262.632 z "/>
<path style="fill:rgb(255, 255, 0);fill-opacity:0;fill-rule:evenodd;stroke:rgb(0, 255, 127);stroke-width:1;" d="M 639.89, 162.861 L 645.025, 151.307 L 658.047, 156.809 L 699.129, 174.232 L 691.426, 184.686 L 639.89, 162.861 z "/>
<path style="fill:rgb(255, 0, 0);fill-opacity:0;fill-rule:evenodd;stroke:rgb(0, 255, 127);stroke-width:1;" d="M 187.254, 341.128 L 195.323, 330.124 L 201.926, 332.875 L 202.476, 334.342 L 216.231, 340.211 L 218.065, 339.661 L 248.693, 352.499 L 240.624, 363.686 L 239.34, 363.136 L 209.995, 350.665 L 209.629, 349.014 L 195.873, 343.145 L 194.223, 344.062 L 187.254, 341.128 z "/>
<path style="fill:rgb(0, 255, 0);fill-opacity:0;fill-rule:evenodd;stroke:rgb(0, 255, 127);stroke-width:1;" d="M 317.469, 168.547 L 325.355, 157.726 L 375.057, 178.45 L 367.354, 189.271 L 317.469, 168.547 z "/>
<path style="fill:rgb(0, 0, 255);fill-opacity:0;fill-rule:evenodd;stroke:rgb(0, 255, 127);stroke-width:1;" d="M 715.452, 255.296 L 723.155, 244.842 L 746.263, 254.562 L 741.862, 260.614 L 749.931, 264.099 L 754.333, 258.047 L 779.276, 268.684 L 768.455, 277.854 L 749.931, 269.968 L 733.058, 262.815 L 717.836, 256.396 L 715.452, 255.296 z "/>
<path style="fill:rgb(255, 255, 0);fill-opacity:0;fill-rule:evenodd;stroke:rgb(0, 255, 127);stroke-width:1;" d="M 590.005, 274.553 L 595.323, 262.632 L 609.262, 268.684 L 621, 273.636 L 624.851, 275.287 L 656.946, 288.858 L 651.444, 296.194 L 639.89, 291.243 L 641.541, 289.225 L 637.506, 287.391 L 633.471, 293.077 L 619.532, 287.208 L 623.751, 281.522 L 606.878, 274.37 L 602.843, 280.055 L 590.005, 274.553 z "/>
<path style="fill:rgb(255, 0, 0);fill-opacity:0;fill-rule:evenodd;stroke:rgb(0, 255, 127);stroke-width:1;" d="M 442.916, 357.084 L 446.584, 352.132 L 449.885, 353.599 L 453.37, 348.647 L 458.689, 350.665 L 461.44, 350.298 L 464.374, 351.398 L 465.658, 354.516 L 468.592, 355.8 L 470.06, 353.783 L 476.295, 356.35 L 474.278, 358.918 L 477.579, 360.385 L 479.597, 357.634 L 492.068, 362.953 L 486.933, 378.175 L 471.527, 371.756 L 473.911, 368.638 L 470.426, 367.171 L 468.042, 370.289 L 459.055, 366.621 L 460.523, 364.42 L 455.571, 362.403 L 451.903, 363.686 L 448.051, 362.036 L 447.134, 358.918 L 442.916, 357.084 z "/>
<path style="fill:rgb(0, 255, 0);fill-opacity:0;fill-rule:evenodd;stroke:rgb(0, 255, 127);stroke-width:1;" d="M 46.4007, 367.721 L 54.6538, 356.534 L 57.4049, 357.818 L 60.1559, 353.966 L 57.5883, 352.866 L 69.1426, 336.91 L 71.8936, 338.193 L 77.3957, 330.674 L 85.8322, 334.159 L 80.5135, 341.678 L 83.8148, 343.145 L 72.077, 358.918 L 69.6928, 358.001 L 66.9418, 361.852 L 69.1426, 362.769 L 60.8895, 373.773 L 46.4007, 367.721 z "/>
<path style="fill:rgb(0, 0, 255);fill-opacity:0;fill-rule:evenodd;stroke:rgb(0, 255, 127);stroke-width:1;" d="M 60.8895, 373.773 L 69.1426, 362.769 L 71.5268, 363.686 L 74.2779, 359.835 L 72.077, 358.918 L 83.8148, 343.145 L 86.3824, 344.246 L 91.7011, 336.726 L 100.688, 340.394 L 95.1857, 347.914 L 97.9367, 349.014 L 86.3824, 364.97 L 83.8148, 363.87 L 80.8803, 367.905 L 83.448, 369.005 L 75.3783, 379.826 L 60.8895, 373.773 z "/>
<path style="fill:rgb(255, 255, 0);fill-opacity:0;fill-rule:evenodd;stroke:rgb(0, 255, 127);stroke-width:1;" d="M 286.291, 169.097 L 294.544, 157.726 L 297.111, 158.826 L 300.229, 154.425 L 297.662, 153.324 L 303.53, 145.254 L 307.015, 144.154 L 315.635, 132.233 L 326.639, 136.818 L 318.019, 148.923 L 318.386, 150.573 L 311.967, 159.56 L 309.583, 158.643 L 306.648, 162.678 L 309.033, 163.595 L 308.299, 164.695 L 300.779, 175.149 L 286.291, 169.097 z "/>
<path style="fill:rgb(255, 0, 0);fill-opacity:0;fill-rule:evenodd;stroke:rgb(0, 255, 127);stroke-width:1;" d="M 271.802, 163.228 L 279.505, 152.591 L 280.238, 151.49 L 282.989, 152.591 L 285.924, 148.556 L 283.173, 147.455 L 289.225, 139.202 L 292.526, 137.918 L 300.963, 126.181 L 312.15, 130.949 L 303.897, 142.32 L 303.53, 145.254 L 297.662, 153.324 L 294.727, 152.224 L 291.609, 156.442 L 294.544, 157.726 L 286.291, 169.097 L 271.802, 163.228 z "/>
<path style="fill:rgb(0, 255, 0);fill-opacity:0;fill-rule:evenodd;stroke:rgb(0, 255, 127);stroke-width:1;" d="M 164.695, 741.862 L 165.612, 740.394 L 174.782, 727.923 L 175.149, 727.556 L 177.166, 728.29 L 179.734, 724.805 L 179, 724.438 L 181.018, 721.687 L 180.284, 720.037 L 185.97, 712.15 L 188.721, 711.6 L 194.223, 704.264 L 204.493, 708.666 L 199.358, 715.818 L 200.092, 717.836 L 199.358, 718.936 L 194.223, 725.906 L 191.839, 726.456 L 190.188, 728.84 L 189.271, 728.29 L 186.337, 732.141 L 188.904, 733.242 L 184.136, 739.844 L 178.45, 747.73 L 164.695, 741.862 z "/>
<path style="fill:rgb(0, 0, 255);fill-opacity:0;fill-rule:evenodd;stroke:rgb(0, 255, 127);stroke-width:1;" d="M 225.585, 76.6621 L 231.27, 68.5924 L 228.152, 67.3086 L 236.039, 55.9376 L 237.873, 56.6713 L 240.44, 53.0032 L 239.34, 52.453 L 241.724, 48.6016 L 249.06, 38.5144 L 262.448, 44.0165 L 260.431, 46.9509 L 241.724, 73.5442 L 239.156, 72.6272 L 234.021, 79.9633 L 225.585, 76.6621 z "/>
<path style="fill:rgb(255, 255, 0);fill-opacity:0;fill-rule:evenodd;stroke:rgb(0, 255, 127);stroke-width:1;" d="M 147.639, 332.325 L 151.674, 326.823 L 168.18, 304.264 L 183.769, 310.867 L 176.249, 321.137 L 173.132, 321.137 L 170.014, 325.355 L 171.664, 327.373 L 163.228, 338.927 L 147.639, 332.325 z "/>
<path style="fill:rgb(255, 0, 0);fill-opacity:0;fill-rule:evenodd;stroke:rgb(0, 255, 127);stroke-width:1;" d="M 188.537, 370.472 L 196.607, 359.101 L 231.637, 373.773 L 223.384, 385.144 L 208.161, 378.725 L 188.537, 370.472 z "/>
<path style="fill:rgb(0, 255, 0);fill-opacity:0;fill-rule:evenodd;stroke:rgb(0, 255, 127);stroke-width:1;" d="M 42.5493, 737.093 L 50.619, 726.272 L 85.4654, 741.128 L 77.3957, 751.949 L 68.409, 748.097 L 42.5493, 737.093 z "/>
<path style="fill:rgb(0, 0, 255);fill-opacity:0;fill-rule:evenodd;stroke:rgb(0, 255, 127);stroke-width:1;" d="M 196.607, 359.101 L 204.493, 348.464 L 209.995, 350.665 L 239.34, 363.136 L 231.637, 373.773 L 196.607, 359.101 z "/>
<path style="fill:rgb(255, 255, 0);fill-opacity:0;fill-rule:evenodd;stroke:rgb(0, 255, 127);stroke-width:1;" d="M 110.225, 796.149 L 116.644, 787.162 L 114.076, 786.061 L 131.499, 762.769 L 135.167, 763.136 L 139.386, 764.97 L 142.87, 767.538 L 120.679, 797.616 L 118.478, 796.515 L 116.827, 798.9 L 110.225, 796.149 z "/>
<path style="fill:rgb(255, 0, 0);fill-opacity:0;fill-rule:evenodd;stroke:rgb(0, 255, 127);stroke-width:1;" d="M 98.6703, 789.179 L 122.329, 757.267 L 126.914, 759.285 L 125.997, 760.385 L 131.499, 762.769 L 114.076, 786.061 L 108.757, 793.398 L 98.6703, 789.179 z "/>
<path style="fill:rgb(0, 255, 0);fill-opacity:0;fill-rule:evenodd;stroke:rgb(0, 255, 127);stroke-width:1;" d="M 120.679, 797.616 L 142.87, 767.538 L 146.355, 767.721 L 151.674, 770.105 L 153.691, 772.306 L 136.451, 795.598 L 131.499, 793.581 L 126.731, 800 L 120.679, 797.616 z "/>
<path style="fill:rgb(0, 0, 255);fill-opacity:0;fill-rule:evenodd;stroke:rgb(0, 255, 127);stroke-width:1;" d="M 269.601, 772.673 L 286.657, 749.198 L 299.312, 754.516 L 282.256, 777.992 L 269.601, 772.673 z "/>
<path style="fill:rgb(255, 255, 0);fill-opacity:0;fill-rule:evenodd;stroke:rgb(0, 255, 127);stroke-width:1;" d="M 110.775, 244.475 L 129.298, 219.166 L 133.884, 212.93 L 138.835, 214.947 L 134.25, 221.366 L 139.752, 223.567 L 121.229, 248.877 L 110.775, 244.475 z "/>
<path style="fill:rgb(255, 0, 0);fill-opacity:0;fill-rule:evenodd;stroke:rgb(0, 255, 127);stroke-width:1;" d="M 298.395, 776.341 L 305.731, 766.437 L 335.076, 778.909 L 327.923, 788.812 L 298.395, 776.341 z "/>
<path style="fill:rgb(0, 255, 0);fill-opacity:0;fill-rule:evenodd;stroke:rgb(0, 255, 127);stroke-width:1;" d="M 245.759, 762.769 L 262.815, 739.294 L 275.287, 744.613 L 258.23, 767.905 L 245.759, 762.769 z "/>
<path style="fill:rgb(0, 0, 255);fill-opacity:0;fill-rule:evenodd;stroke:rgb(0, 255, 127);stroke-width:1;" d="M 777.442, 144.337 L 781.11, 139.019 L 797.799, 116.277 L 808.803, 120.862 L 792.297, 143.604 L 788.629, 142.137 L 784.778, 147.455 L 777.442, 144.337 z "/>
<path style="fill:rgb(255, 255, 0);fill-opacity:0;fill-rule:evenodd;stroke:rgb(0, 255, 127);stroke-width:1;" d="M 34.2962, 748.281 L 42.5493, 737.093 L 68.409, 748.097 L 59.9725, 759.285 L 34.2962, 748.281 z "/>
<path style="fill:rgb(255, 0, 0);fill-opacity:0;fill-rule:evenodd;stroke:rgb(0, 255, 127);stroke-width:1;" d="M 308.849, 756.167 L 316.002, 746.263 L 342.595, 757.451 L 342.228, 758.184 L 344.979, 759.285 L 338.193, 768.455 L 312.15, 757.451 L 308.849, 756.167 z "/>
<path style="fill:rgb(0, 255, 0);fill-opacity:0;fill-rule:evenodd;stroke:rgb(0, 255, 127);stroke-width:1;" d="M 196.607, 741.495 L 209.812, 723.338 L 213.297, 718.569 L 225.951, 723.705 L 209.262, 746.813 L 196.607, 741.495 z "/>
<path style="fill:rgb(0, 0, 255);fill-opacity:0;fill-rule:evenodd;stroke:rgb(0, 255, 127);stroke-width:1;" d="M 233.654, 757.634 L 234.755, 755.983 L 250.711, 734.159 L 262.815, 739.294 L 245.759, 762.769 L 233.654, 757.634 z "/>
<path style="fill:rgb(255, 255, 0);fill-opacity:0;fill-rule:evenodd;stroke:rgb(0, 255, 127);stroke-width:1;" d="M 209.262, 746.813 L 225.951, 723.705 L 238.239, 729.023 L 222.467, 750.665 L 221.55, 751.949 L 209.262, 746.813 z "/>
<path style="fill:rgb(255, 0, 0);fill-opacity:0;fill-rule:evenodd;stroke:rgb(0, 255, 127);stroke-width:1;" d="M 101.238, 240.44 L 109.491, 229.253 L 119.945, 214.947 L 124.347, 208.895 L 129.849, 211.279 L 125.264, 217.515 L 129.298, 219.166 L 110.775, 244.475 L 101.238, 240.44 z "/>
<path style="fill:rgb(0, 255, 0);fill-opacity:0;fill-rule:evenodd;stroke:rgb(0, 255, 127);stroke-width:1;" d="M 222.467, 750.665 L 238.239, 729.023 L 250.711, 734.159 L 234.755, 755.983 L 222.467, 750.665 z "/>
<path style="fill:rgb(0, 0, 255);fill-opacity:0;fill-rule:evenodd;stroke:rgb(0, 255, 127);stroke-width:1;" d="M 208.895, 134.984 L 225.218, 112.242 L 237.139, 117.194 L 220.816, 139.936 L 208.895, 134.984 z "/>
<path style="fill:rgb(255, 255, 0);fill-opacity:0;fill-rule:evenodd;stroke:rgb(0, 255, 127);stroke-width:1;" d="M 121.229, 248.877 L 139.752, 223.567 L 144.337, 217.148 L 149.289, 219.349 L 144.704, 225.768 L 148.923, 227.419 L 137.918, 242.641 L 130.582, 252.728 L 121.229, 248.877 z "/>
<path style="fill:rgb(255, 0, 0);fill-opacity:0;fill-rule:evenodd;stroke:rgb(0, 255, 127);stroke-width:1;" d="M 258.23, 767.905 L 275.287, 744.613 L 286.657, 749.198 L 269.601, 772.673 L 258.23, 767.905 z "/>
<path style="fill:rgb(0, 255, 0);fill-opacity:0;fill-rule:evenodd;stroke:rgb(0, 255, 127);stroke-width:1;" d="M 305.731, 766.437 L 312.15, 757.451 L 338.193, 768.455 L 341.678, 769.922 L 335.076, 778.909 L 305.731, 766.437 z "/>
<path style="fill:rgb(0, 0, 255);fill-opacity:0;fill-rule:evenodd;stroke:rgb(0, 255, 127);stroke-width:1;" d="M 197.157, 130.215 L 213.663, 107.474 L 225.218, 112.242 L 208.895, 134.984 L 197.157, 130.215 z "/>
<path style="fill:rgb(255, 255, 0);fill-opacity:0;fill-rule:evenodd;stroke:rgb(0, 255, 127);stroke-width:1;" d="M 185.603, 125.264 L 194.59, 112.976 L 201.926, 102.705 L 213.663, 107.474 L 197.157, 130.215 L 185.603, 125.264 z "/>
<path style="fill:rgb(255, 0, 0);fill-opacity:0;fill-rule:evenodd;stroke:rgb(0, 255, 127);stroke-width:1;" d="M 467.859, 653.278 L 472.26, 639.34 L 496.103, 649.243 L 487.299, 661.348 L 467.859, 653.278 z "/>
<path style="fill:rgb(0, 255, 0);fill-opacity:0;fill-rule:evenodd;stroke:rgb(0, 255, 127);stroke-width:1;" d="M 220.816, 139.936 L 237.139, 117.194 L 248.51, 121.962 L 232.004, 144.704 L 220.816, 139.936 z "/>
<path style="fill:rgb(0, 0, 255);fill-opacity:0;fill-rule:evenodd;stroke:rgb(0, 255, 127);stroke-width:1;" d="M 760.752, 130.399 L 777.258, 107.657 L 788.079, 112.242 L 771.573, 134.984 L 760.752, 130.399 z "/>
<path style="fill:rgb(255, 255, 0);fill-opacity:0;fill-rule:evenodd;stroke:rgb(0, 255, 127);stroke-width:1;" d="M 739.661, 121.596 L 756.35, 98.8537 L 766.988, 103.255 L 750.298, 125.997 L 739.661, 121.596 z "/>
<path style="fill:rgb(255, 0, 0);fill-opacity:0;fill-rule:evenodd;stroke:rgb(0, 255, 127);stroke-width:1;" d="M 768.822, 138.835 L 771.573, 134.984 L 788.079, 112.242 L 797.799, 116.277 L 781.11, 139.019 L 776.525, 137.001 L 773.773, 140.853 L 768.822, 138.835 z "/>
<path style="fill:rgb(0, 255, 0);fill-opacity:0;fill-rule:evenodd;stroke:rgb(0, 255, 127);stroke-width:1;" d="M 750.298, 125.997 L 766.988, 103.255 L 777.258, 107.657 L 760.752, 130.399 L 750.298, 125.997 z "/>
<path style="fill:rgb(0, 0, 255);fill-opacity:0;fill-rule:evenodd;stroke:rgb(0, 255, 127);stroke-width:1;" d="M 729.757, 117.377 L 747.18, 93.3517 L 752.866, 95.7359 L 752.132, 97.0197 L 756.35, 98.8537 L 739.661, 121.596 L 729.757, 117.377 z "/>
<path style="fill:rgb(255, 255, 0);fill-opacity:0;fill-rule:evenodd;stroke:rgb(0, 255, 127);stroke-width:1;" d="M 792.297, 143.604 L 808.803, 120.862 L 819.257, 125.264 L 802.568, 148.006 L 792.297, 143.604 z "/>
<path style="fill:rgb(255, 0, 0);fill-opacity:0;fill-rule:evenodd;stroke:rgb(0, 255, 127);stroke-width:1;" d="M 571.114, 333.608 L 576.433, 326.456 L 607.611, 339.477 L 602.293, 346.813 L 572.581, 334.159 L 571.114, 333.608 z "/>
<path style="fill:rgb(0, 255, 0);fill-opacity:0;fill-rule:evenodd;stroke:rgb(0, 255, 127);stroke-width:1;" d="M 485.649, 597.707 L 491.151, 590.005 L 520.128, 602.293 L 514.443, 609.812 L 488.216, 598.808 L 485.649, 597.707 z "/>
<path style="fill:rgb(0, 0, 255);fill-opacity:0;fill-rule:evenodd;stroke:rgb(0, 255, 127);stroke-width:1;" d="M 184.136, 739.844 L 188.904, 733.242 L 194.223, 725.906 L 199.358, 718.936 L 209.812, 723.338 L 196.607, 741.495 L 194.59, 744.246 L 184.136, 739.844 z "/>
<path style="fill:rgb(255, 255, 0);fill-opacity:0;fill-rule:evenodd;stroke:rgb(0, 255, 127);stroke-width:1;" d="M 555.158, 376.158 L 555.892, 375.241 L 555.708, 374.507 L 555.708, 373.04 L 556.075, 371.756 L 556.625, 371.022 L 557.909, 370.105 L 558.643, 369.739 L 560.293, 369.188 L 561.944, 366.988 L 584.319, 376.341 L 580.651, 381.293 L 583.769, 382.577 L 581.018, 386.428 L 557.909, 376.708 L 557.726, 377.258 L 555.158, 376.158 z "/>
<path style="fill:rgb(255, 0, 0);fill-opacity:0;fill-rule:evenodd;stroke:rgb(0, 255, 127);stroke-width:1;" d="M 75.3783, 299.496 L 80.3301, 292.71 L 77.2123, 291.426 L 90.0504, 274.003 L 99.7707, 278.221 L 81.9807, 302.247 L 75.3783, 299.496 z "/>
<path style="fill:rgb(0, 255, 0);fill-opacity:0;fill-rule:evenodd;stroke:rgb(0, 255, 127);stroke-width:1;" d="M 482.898, 606.144 L 488.216, 598.808 L 514.443, 609.812 L 517.377, 611.096 L 512.059, 618.432 L 485.465, 607.244 L 482.898, 606.144 z "/>
<path style="fill:rgb(0, 0, 255);fill-opacity:0;fill-rule:evenodd;stroke:rgb(0, 255, 127);stroke-width:1;" d="M 477.212, 313.618 L 481.981, 307.015 L 483.265, 305.181 L 505.273, 314.351 L 508.391, 315.635 L 502.155, 324.072 L 491.151, 319.486 L 477.212, 313.618 z "/>
<path style="fill:rgb(255, 255, 0);fill-opacity:0;fill-rule:evenodd;stroke:rgb(0, 255, 127);stroke-width:1;" d="M 62.7235, 293.994 L 72.4438, 281.155 L 80.5135, 269.968 L 90.0504, 274.003 L 77.2123, 291.426 L 73.7276, 289.959 L 68.7758, 296.561 L 62.7235, 293.994 z "/>
<path style="fill:rgb(255, 0, 0);fill-opacity:0;fill-rule:evenodd;stroke:rgb(0, 255, 127);stroke-width:1;" d="M 81.9807, 302.247 L 99.7707, 278.221 L 109.124, 282.256 L 96.2861, 299.496 L 93.3517, 298.395 L 88.2164, 304.998 L 81.9807, 302.247 z "/>
<path style="fill:rgb(0, 255, 0);fill-opacity:0;fill-rule:evenodd;stroke:rgb(0, 255, 127);stroke-width:1;" d="M 567.63, 340.945 L 572.581, 334.159 L 602.293, 346.813 L 597.341, 353.599 L 569.647, 341.862 L 567.63, 340.945 z "/>
<path style="fill:rgb(0, 0, 255);fill-opacity:0;fill-rule:evenodd;stroke:rgb(0, 255, 127);stroke-width:1;" d="M 142.503, 322.971 L 156.992, 303.164 L 160.477, 304.631 L 161.394, 303.347 L 164.695, 302.797 L 168.18, 304.264 L 151.674, 326.823 L 142.503, 322.971 z "/>
<path style="fill:rgb(255, 255, 0);fill-opacity:0;fill-rule:evenodd;stroke:rgb(0, 255, 127);stroke-width:1;" d="M 475.195, 630.72 L 480.33, 623.567 L 503.806, 633.287 L 507.657, 634.938 L 502.522, 642.091 L 477.762, 631.82 L 475.195, 630.72 z "/>
<path style="fill:rgb(255, 0, 0);fill-opacity:0;fill-rule:evenodd;stroke:rgb(0, 255, 127);stroke-width:1;" d="M 472.26, 639.34 L 477.762, 631.82 L 502.522, 642.091 L 503.989, 642.824 L 498.487, 650.344 L 496.103, 649.243 L 472.26, 639.34 z "/>
<path style="fill:rgb(0, 255, 0);fill-opacity:0;fill-rule:evenodd;stroke:rgb(0, 255, 127);stroke-width:1;" d="M 564.695, 348.647 L 569.647, 341.862 L 597.341, 353.599 L 597.707, 354.7 L 593.306, 360.752 L 566.896, 349.748 L 564.695, 348.647 z "/>
<path style="fill:rgb(0, 0, 255);fill-opacity:0;fill-rule:evenodd;stroke:rgb(0, 255, 127);stroke-width:1;" d="M 123.246, 314.901 L 137.735, 295.094 L 147.639, 299.312 L 133.15, 319.12 L 123.246, 314.901 z "/>
<path style="fill:rgb(255, 255, 0);fill-opacity:0;fill-rule:evenodd;stroke:rgb(0, 255, 127);stroke-width:1;" d="M 559.376, 365.887 L 565.062, 358.001 L 588.354, 367.721 L 589.271, 369.739 L 584.319, 376.341 L 561.944, 366.988 L 559.376, 365.887 z "/>
<path style="fill:rgb(255, 0, 0);fill-opacity:0;fill-rule:evenodd;stroke:rgb(0, 255, 127);stroke-width:1;" d="M 480.33, 614.03 L 485.465, 607.244 L 512.059, 618.432 L 513.159, 618.982 L 508.207, 625.768 L 483.081, 615.314 L 480.33, 614.03 z "/>
<path style="fill:rgb(0, 255, 0);fill-opacity:0;fill-rule:evenodd;stroke:rgb(0, 255, 127);stroke-width:1;" d="M 477.946, 622.467 L 483.081, 615.314 L 508.207, 625.768 L 509.124, 626.135 L 503.806, 633.287 L 480.33, 623.567 L 477.946, 622.467 z "/>
<path style="fill:rgb(0, 0, 255);fill-opacity:0;fill-rule:evenodd;stroke:rgb(0, 255, 127);stroke-width:1;" d="M 481.614, 297.295 L 487.85, 288.858 L 512.792, 299.129 L 507.474, 306.465 L 485.465, 297.295 L 484.548, 298.579 L 481.614, 297.295 z "/>
<path style="fill:rgb(255, 255, 0);fill-opacity:0;fill-rule:evenodd;stroke:rgb(0, 255, 127);stroke-width:1;" d="M 133.15, 319.12 L 147.639, 299.312 L 156.992, 303.164 L 142.503, 322.971 L 133.15, 319.12 z "/>
<path style="fill:rgb(255, 0, 0);fill-opacity:0;fill-rule:evenodd;stroke:rgb(0, 255, 127);stroke-width:1;" d="M 561.761, 356.534 L 566.896, 349.748 L 593.306, 360.752 L 588.354, 367.721 L 565.062, 358.001 L 561.761, 356.534 z "/>
<path style="fill:rgb(0, 255, 0);fill-opacity:0;fill-rule:evenodd;stroke:rgb(0, 255, 127);stroke-width:1;" d="M 479.23, 305.731 L 484.548, 298.579 L 485.465, 297.295 L 507.474, 306.465 L 510.225, 307.749 L 505.273, 314.351 L 483.265, 305.181 L 481.981, 307.015 L 479.23, 305.731 z "/>
<path style="fill:rgb(0, 0, 255);fill-opacity:0;fill-rule:evenodd;stroke:rgb(0, 255, 127);stroke-width:1;" d="M 814.856, 39.4315 L 823.659, 27.3269 L 836.314, 32.829 L 827.327, 44.7501 L 814.856, 39.4315 z "/>
<path style="fill:rgb(255, 255, 0);fill-opacity:0;fill-rule:evenodd;stroke:rgb(0, 255, 127);stroke-width:1;" d="M 316.185, 84.7318 L 324.989, 72.4438 L 335.076, 76.6621 L 328.473, 85.8322 L 326.089, 88.95 L 316.185, 84.7318 z "/>
<path style="fill:rgb(255, 0, 0);fill-opacity:0;fill-rule:evenodd;stroke:rgb(0, 255, 127);stroke-width:1;" d="M 114.993, 326.272 L 123.246, 314.901 L 133.15, 319.12 L 124.897, 330.307 L 114.993, 326.272 z "/>
<path style="fill:rgb(0, 255, 0);fill-opacity:0;fill-rule:evenodd;stroke:rgb(0, 255, 127);stroke-width:1;" d="M 364.97, 558.093 L 371.389, 549.106 L 383.31, 554.058 L 376.708, 563.044 L 364.97, 558.093 z "/>
<path style="fill:rgb(0, 0, 255);fill-opacity:0;fill-rule:evenodd;stroke:rgb(0, 255, 127);stroke-width:1;" d="M 0, 283.173 L 17.9734, 259.147 L 13.3884, 257.13 L 13.9386, 256.396 L 23.4755, 243.558 L 81.6139, 268.501 L 80.5135, 269.968 L 72.4438, 281.155 L 67.6754, 278.955 L 48.9684, 304.264 L 0, 283.173 z M 24.3925, 280.422 L 30.0779, 282.806 L 39.0646, 286.657 L 50.0688, 271.435 L 49.5186, 270.151 L 38.331, 265.383 L 35.3966, 265.199 L 24.3925, 280.422 z "/>
<path style="fill:rgb(255, 255, 0);fill-opacity:0;fill-rule:evenodd;stroke:rgb(0, 255, 127);stroke-width:1;" d="M 14.6722, 204.127 L 25.4929, 189.088 L 34.4796, 192.939 L 35.3966, 191.839 L 48.2348, 197.341 L 55.0206, 187.987 L 42.1825, 182.485 L 44.0165, 179.917 L 35.0298, 176.066 L 41.4489, 167.263 L 42.1825, 166.346 L 99.7707, 190.738 L 99.4039, 191.288 L 92.2513, 201.009 L 77.0289, 194.59 L 72.994, 200.275 L 66.2082, 197.341 L 61.2563, 204.127 L 83.2646, 213.297 L 80.3301, 217.331 L 72.2604, 228.336 L 14.6722, 204.127 z "/>
<path style="fill:rgb(255, 0, 0);fill-opacity:0;fill-rule:evenodd;stroke:rgb(0, 255, 127);stroke-width:1;" d="M 18.1568, 770.105 L 34.2962, 748.281 L 59.9725, 759.285 L 91.7011, 772.856 L 76.4787, 793.398 L 75.7451, 794.681 L 66.9418, 790.83 L 53.0032, 784.961 L 30.6282, 775.424 L 18.1568, 770.105 z "/>
<path style="fill:rgb(0, 255, 0);fill-opacity:0;fill-rule:evenodd;stroke:rgb(0, 255, 127);stroke-width:1;" d="M 27.3269, 445.484 L 35.58, 434.296 L 39.4315, 435.947 L 40.1651, 437.231 L 42.9161, 437.414 L 55.204, 420.541 L 54.1036, 418.89 L 53.0032, 419.441 L 47.868, 417.24 L 55.5708, 406.602 L 85.282, 419.074 L 77.5791, 429.711 L 72.6272, 427.51 L 72.994, 426.96 L 69.6928, 426.777 L 67.3086, 430.078 L 57.5883, 443.466 L 59.2389, 445.117 L 60.1559, 444.567 L 65.1077, 446.768 L 57.0381, 457.955 L 27.3269, 445.484 z "/>
<path style="fill:rgb(0, 0, 255);fill-opacity:0;fill-rule:evenodd;stroke:rgb(0, 255, 127);stroke-width:1;" d="M 17.0564, 355.25 L 23.2921, 346.63 L 27.8771, 348.464 L 49.5186, 318.936 L 70.6098, 327.74 L 55.0206, 349.014 L 51.536, 347.364 L 48.0514, 352.132 L 55.5708, 355.25 L 54.6538, 356.534 L 46.4007, 367.721 L 17.0564, 355.25 z "/>
<path style="fill:rgb(255, 255, 0);fill-opacity:0;fill-rule:evenodd;stroke:rgb(0, 255, 127);stroke-width:1;" d="M 21.0912, 142.137 L 29.3443, 130.949 L 37.2306, 134.25 L 48.785, 118.661 L 40.7153, 115.36 L 48.6016, 104.539 L 77.9459, 116.827 L 70.7932, 126.731 L 65.4746, 124.347 L 63.0903, 125.08 L 61.8065, 127.098 L 64.5575, 128.381 L 46.7675, 152.957 L 21.0912, 142.137 z "/>
<path style="fill:rgb(255, 0, 0);fill-opacity:0;fill-rule:evenodd;stroke:rgb(0, 255, 127);stroke-width:1;" d="M 696.011, 36.6804 L 707.199, 11.0041 L 762.403, 34.663 L 752.866, 47.6845 L 758.184, 49.702 L 753.232, 61.0729 L 696.011, 36.6804 z "/>
<path style="fill:rgb(0, 255, 0);fill-opacity:0;fill-rule:evenodd;stroke:rgb(0, 255, 127);stroke-width:1;" d="M 372.123, 57.0381 L 379.642, 46.7675 L 383.677, 48.4182 L 404.585, 19.9908 L 419.807, 26.4099 L 398.716, 55.0206 L 402.568, 56.4878 L 395.232, 66.575 L 372.123, 57.0381 z "/>
<path style="fill:rgb(0, 0, 255);fill-opacity:0;fill-rule:evenodd;stroke:rgb(0, 255, 127);stroke-width:1;" d="M 356.167, 50.0688 L 362.953, 40.8987 L 366.621, 40.1651 L 369.922, 35.7634 L 368.638, 33.1958 L 371.939, 28.7941 L 374.874, 28.9775 L 386.612, 13.0215 L 397.983, 17.79 L 385.695, 34.4796 L 387.162, 36.497 L 384.227, 40.5319 L 381.293, 40.7153 L 378.542, 44.5667 L 379.642, 46.7675 L 372.123, 57.0381 L 356.167, 50.0688 z "/>
<path style="fill:rgb(255, 255, 0);fill-opacity:0;fill-rule:evenodd;stroke:rgb(0, 255, 127);stroke-width:1;" d="M 325.539, 37.2306 L 332.325, 28.0605 L 336.176, 27.1435 L 338.927, 23.1087 L 337.643, 20.541 L 341.311, 15.7726 L 344.429, 15.7726 L 355.983, 0 L 367.171, 4.76845 L 355.066, 21.2746 L 356.35, 23.6589 L 353.783, 27.3269 L 350.298, 27.8771 L 347.547, 31.5452 L 348.464, 34.4796 L 341.495, 43.8331 L 325.539, 37.2306 z "/>
<path style="fill:rgb(255, 0, 0);fill-opacity:0;fill-rule:evenodd;stroke:rgb(0, 255, 127);stroke-width:1;" d="M 180.101, 58.6887 L 183.586, 53.9202 L 182.669, 51.3526 L 184.503, 48.9684 L 187.804, 48.2348 L 189.821, 45.1169 L 187.804, 44.3833 L 193.489, 36.6804 L 196.24, 37.7808 L 199.541, 33.3792 L 196.607, 32.0954 L 205.227, 20.3576 L 220.449, 26.5933 L 212.93, 37.0472 L 211.829, 38.5144 L 208.161, 36.8638 L 204.677, 41.6323 L 207.428, 42.7327 L 201.926, 50.2522 L 199.908, 49.5186 L 198.991, 50.619 L 197.891, 52.2696 L 198.624, 54.8372 L 196.607, 57.7717 L 193.673, 58.1385 L 190.188, 62.9069 L 180.101, 58.6887 z "/>
<path style="fill:rgb(0, 255, 0);fill-opacity:0;fill-rule:evenodd;stroke:rgb(0, 255, 127);stroke-width:1;" d="M 341.495, 43.8331 L 348.464, 34.4796 L 351.398, 33.746 L 354.516, 29.5277 L 353.783, 27.3269 L 356.35, 23.6589 L 359.285, 23.2921 L 371.389, 6.60248 L 382.21, 11.1875 L 370.839, 26.5933 L 371.939, 28.7941 L 368.638, 33.1958 L 365.337, 34.1128 L 362.219, 38.331 L 362.953, 40.8987 L 356.167, 50.0688 L 341.495, 43.8331 z "/>
<path style="fill:rgb(0, 0, 255);fill-opacity:0;fill-rule:evenodd;stroke:rgb(0, 255, 127);stroke-width:1;" d="M 137.001, 40.8987 L 140.669, 35.7634 L 139.019, 33.1958 L 141.036, 30.4448 L 144.337, 30.0779 L 146.538, 27.1435 L 144.154, 26.2265 L 149.656, 18.5236 L 153.141, 19.8074 L 156.442, 15.4058 L 152.957, 13.9386 L 161.577, 2.20083 L 176.249, 8.25309 L 167.63, 20.1742 L 164.145, 18.707 L 161.027, 23.1087 L 164.512, 24.5759 L 158.826, 32.2788 L 156.442, 31.1784 L 154.241, 34.1128 L 155.892, 36.6804 L 153.874, 39.4315 L 150.206, 39.7983 L 146.538, 44.7501 L 137.001, 40.8987 z "/>
<path style="fill:rgb(255, 255, 0);fill-opacity:0;fill-rule:evenodd;stroke:rgb(0, 255, 127);stroke-width:1;" d="M 151.123, 46.7675 L 154.791, 41.8157 L 153.874, 39.4315 L 155.892, 36.6804 L 158.826, 35.9468 L 160.844, 33.1958 L 160.844, 33.0124 L 158.826, 32.2788 L 164.512, 24.5759 L 167.446, 25.8597 L 170.747, 21.2746 L 167.63, 20.1742 L 176.249, 8.25309 L 190.738, 14.3054 L 182.118, 26.0431 L 178.634, 24.7593 L 175.516, 29.1609 L 179, 30.6282 L 173.315, 38.331 L 170.747, 37.2306 L 168.73, 40.1651 L 170.197, 42.7327 L 168.363, 45.3003 L 164.695, 45.8505 L 161.027, 50.8024 L 151.123, 46.7675 z "/>
<path style="fill:rgb(255, 0, 0);fill-opacity:0;fill-rule:evenodd;stroke:rgb(0, 255, 127);stroke-width:1;" d="M 165.796, 52.8198 L 169.28, 47.868 L 168.363, 45.3003 L 170.197, 42.7327 L 173.498, 41.9991 L 175.516, 39.2481 L 173.315, 38.331 L 179, 30.6282 L 181.935, 31.912 L 185.236, 27.3269 L 182.118, 26.0431 L 190.738, 14.3054 L 205.227, 20.3576 L 196.607, 32.0954 L 193.489, 30.8116 L 190.188, 35.2132 L 193.489, 36.6804 L 187.804, 44.3833 L 185.603, 43.4663 L 183.402, 46.4007 L 184.503, 48.9684 L 182.669, 51.3526 L 179, 52.0862 L 175.516, 56.8547 L 165.796, 52.8198 z "/>
<path style="fill:rgb(0, 255, 0);fill-opacity:0;fill-rule:evenodd;stroke:rgb(0, 255, 127);stroke-width:1;" d="M 803.118, 34.4796 L 811.921, 22.3751 L 823.659, 27.3269 L 814.856, 39.4315 L 803.118, 34.4796 z "/>
<path style="fill:rgb(0, 0, 255);fill-opacity:0;fill-rule:evenodd;stroke:rgb(0, 255, 127);stroke-width:1;" d="M 792.114, 29.8945 L 801.1, 17.79 L 811.921, 22.3751 L 803.118, 34.4796 L 792.114, 29.8945 z "/>
</svg>