<?xml version="1.0" encoding="iso-8859-1" standalone="no"?>
<!DOCTYPE svg PUBLIC "-//W3C//DTD SVG 1.0//EN" "http://www.w3.org/TR/2001/REC-SVG-20010904/DTD/svg10.dtd">
<svg xmlns="http://www.w3.org/2000/svg" width="958" height="800">
<path style="fill:rgb(255, 0, 0);fill-opacity:0;fill-rule:evenodd;stroke:rgb(0, 49, 255);stroke-width:1;" d="M 187.607, 386.431 L 206.422, 356.943 L 247.671, 372.501 L 283.492, 322.75 L 367.797, 358.571 L 365.445, 361.827 L 383.899, 369.426 L 384.803, 367.978 L 432.745, 388.241 L 418.634, 407.598 L 403.437, 401.266 L 382.813, 429.67 L 400.181, 437.63 L 377.024, 465.853 L 292.899, 426.594 L 187.607, 386.431 z "/>
<path style="fill:rgb(0, 255, 0);fill-opacity:0;fill-rule:evenodd;stroke:rgb(0, 49, 255);stroke-width:1;" d="M 614.925, 251.651 L 625.418, 236.635 L 684.215, 261.239 L 693.442, 248.575 L 686.929, 245.862 L 691.09, 240.072 L 682.587, 236.454 L 686.929, 230.484 L 678.607, 227.047 L 683.311, 220.353 L 684.396, 220.896 L 709.724, 185.979 L 708.82, 185.436 L 712.257, 180.733 L 724.74, 185.979 L 739.937, 192.311 L 742.831, 188.331 L 758.571, 194.844 L 753.324, 202.081 L 754.772, 202.623 L 753.324, 204.613 L 802.895, 225.237 L 767.978, 273.36 L 762.008, 270.828 L 749.163, 288.376 L 743.193, 285.844 L 732.338, 301.221 L 726.911, 299.05 L 714.428, 316.418 L 708.096, 320.76 L 667.933, 304.116 L 684.577, 280.959 L 614.925, 251.651 z "/>
<path style="fill:rgb(0, 0, 255);fill-opacity:0;fill-rule:evenodd;stroke:rgb(0, 49, 255);stroke-width:1;" d="M 749.525, 168.431 L 788.964, 114.699 L 807.056, 122.479 L 819.358, 105.654 L 852.827, 119.946 L 846.133, 128.991 L 856.264, 133.333 L 862.958, 124.107 L 895.884, 138.037 L 881.954, 157.033 L 870.737, 152.148 L 868.204, 155.586 L 852.284, 148.711 L 839.801, 165.717 L 855.179, 172.23 L 852.827, 175.486 L 864.948, 180.733 L 851.199, 199.548 L 817.73, 185.256 L 824.062, 176.753 L 814.111, 172.592 L 807.779, 181.095 L 790.954, 174.039 L 784.261, 183.085 L 749.525, 168.431 z M 807.779, 151.967 L 820.805, 157.214 L 826.413, 149.435 L 826.052, 149.435 L 825.328, 149.796 L 824.604, 149.977 L 823.881, 149.977 L 823.157, 149.796 L 822.433, 149.435 L 821.891, 148.711 L 821.891, 147.987 L 822.252, 147.445 L 822.614, 147.083 L 823.338, 146.721 L 824.423, 146.54 L 825.147, 146.721 L 825.871, 147.083 L 826.413, 147.626 L 826.594, 148.349 L 826.413, 148.892 L 826.594, 149.073 L 832.745, 140.57 L 819.72, 135.142 L 807.779, 151.967 z "/>
<path style="fill:rgb(255, 255, 0);fill-opacity:0;fill-rule:evenodd;stroke:rgb(0, 49, 255);stroke-width:1;" d="M 433.288, 138.218 L 451.922, 112.709 L 594.663, 173.315 L 582.723, 189.417 L 569.878, 206.965 L 513.252, 182.904 L 519.403, 174.763 L 433.288, 138.218 z "/>
<path style="fill:rgb(255, 0, 0);fill-opacity:0;fill-rule:evenodd;stroke:rgb(0, 49, 255);stroke-width:1;" d="M 255.269, 545.816 L 270.828, 524.469 L 272.456, 525.192 L 278.064, 517.413 L 294.166, 524.107 L 291.814, 527.363 L 296.156, 529.172 L 303.03, 519.946 L 282.949, 511.624 L 293.442, 496.97 L 313.342, 505.292 L 318.77, 497.693 L 313.885, 495.703 L 312.8, 497.151 L 289.824, 487.562 L 287.472, 491 L 279.873, 487.743 L 295.07, 466.757 L 360.018, 493.894 L 305.925, 567.526 L 255.269, 545.816 z "/>
<path style="fill:rgb(0, 255, 0);fill-opacity:0;fill-rule:evenodd;stroke:rgb(0, 49, 255);stroke-width:1;" d="M 504.206, 401.266 L 545.816, 344.46 L 602.442, 368.702 L 560.832, 425.328 L 504.206, 401.266 z "/>
<path style="fill:rgb(0, 0, 255);fill-opacity:0;fill-rule:evenodd;stroke:rgb(0, 49, 255);stroke-width:1;" d="M 462.777, 457.35 L 504.206, 401.266 L 560.832, 425.328 L 519.403, 481.411 L 462.777, 457.35 z "/>
<path style="fill:rgb(255, 255, 0);fill-opacity:0;fill-rule:evenodd;stroke:rgb(0, 49, 255);stroke-width:1;" d="M 553.777, 340.479 L 561.013, 330.71 L 564.089, 331.976 L 565.898, 329.625 L 563.727, 328.72 L 570.24, 319.855 L 577.114, 322.75 L 571.325, 330.348 L 578.2, 333.243 L 581.095, 329.263 L 585.617, 331.072 L 587.969, 327.996 L 583.446, 326.006 L 589.055, 318.589 L 593.397, 320.579 L 596.11, 316.961 L 591.588, 314.971 L 597.015, 307.915 L 601.357, 309.724 L 603.89, 306.468 L 599.367, 304.659 L 602.261, 300.678 L 616.554, 306.649 L 614.202, 309.905 L 617.639, 311.352 L 619.991, 308.096 L 625.057, 310.267 L 622.705, 313.523 L 627.77, 315.694 L 630.122, 312.438 L 639.349, 316.418 L 636.997, 319.674 L 641.701, 321.664 L 644.052, 318.408 L 649.842, 320.76 L 647.671, 323.835 L 651.651, 325.645 L 656.536, 318.951 L 679.873, 328.901 L 671.551, 340.118 L 668.114, 338.67 L 666.124, 341.203 L 669.561, 342.65 L 663.048, 351.515 L 656.716, 348.801 L 660.697, 343.374 L 651.832, 339.575 L 647.852, 345.002 L 649.118, 345.545 L 645.862, 350.068 L 644.414, 349.525 L 642.786, 351.696 L 644.233, 352.239 L 640.434, 357.485 L 638.987, 356.762 L 637.359, 358.933 L 638.806, 359.656 L 635.369, 364.179 L 633.921, 363.455 L 631.931, 366.169 L 633.379, 366.712 L 631.931, 368.883 L 622.705, 364.903 L 623.247, 364.179 L 619.81, 362.732 L 619.267, 363.455 L 614.925, 361.646 L 615.649, 360.742 L 612.573, 359.294 L 611.85, 360.38 L 605.518, 357.666 L 606.242, 356.581 L 602.804, 355.133 L 602.081, 356.219 L 596.11, 353.505 L 596.834, 352.601 L 593.578, 351.153 L 592.492, 352.42 L 588.15, 350.43 L 588.874, 349.525 L 585.798, 348.259 L 582.542, 352.782 L 553.777, 340.479 z "/>
<path style="fill:rgb(255, 0, 0);fill-opacity:0;fill-rule:evenodd;stroke:rgb(0, 49, 255);stroke-width:1;" d="M 851.741, 78.8783 L 871.823, 50.4749 L 874.536, 51.5604 L 878.517, 45.9521 L 901.131, 55.7214 L 892.99, 67.119 L 899.864, 69.8327 L 897.693, 72.9082 L 901.493, 74.5364 L 908.729, 64.4052 L 910.9, 65.3098 L 920.488, 51.7413 L 958.661, 67.6617 L 944.188, 88.2858 L 933.514, 83.763 L 928.449, 91.1805 L 932.972, 92.9896 L 932.248, 93.8942 L 939.846, 96.9697 L 929.353, 111.443 L 890.095, 94.9796 L 894.075, 89.3713 L 893.171, 87.7431 L 896.608, 83.2203 L 887.743, 79.602 L 884.125, 84.6676 L 881.954, 85.5721 L 878.878, 90.2759 L 851.741, 78.8783 z "/>
<path style="fill:rgb(0, 255, 0);fill-opacity:0;fill-rule:evenodd;stroke:rgb(0, 49, 255);stroke-width:1;" d="M 94.9796, 477.793 L 126.459, 435.097 L 184.532, 459.701 L 176.572, 470.556 L 153.053, 502.397 L 94.9796, 477.793 z "/>
<path style="fill:rgb(0, 0, 255);fill-opacity:0;fill-rule:evenodd;stroke:rgb(0, 49, 255);stroke-width:1;" d="M 148.892, 437.63 L 166.26, 413.93 L 270.828, 457.711 L 254.184, 480.507 L 253.46, 481.592 L 148.892, 437.63 z "/>
<path style="fill:rgb(255, 255, 0);fill-opacity:0;fill-rule:evenodd;stroke:rgb(0, 49, 255);stroke-width:1;" d="M 47.0375, 571.144 L 85.2103, 519.765 L 127.363, 537.856 L 91.3614, 586.522 L 90.8186, 587.246 L 62.777, 575.305 L 63.6816, 574.22 L 56.0832, 570.963 L 53.7313, 574.039 L 47.0375, 571.144 z "/>
<path style="fill:rgb(255, 0, 0);fill-opacity:0;fill-rule:evenodd;stroke:rgb(0, 49, 255);stroke-width:1;" d="M 477.974, 77.431 L 490.819, 59.8824 L 494.618, 54.8168 L 584.713, 92.8087 L 569.697, 114.156 L 568.431, 116.147 L 477.974, 77.431 z "/>
<path style="fill:rgb(0, 255, 0);fill-opacity:0;fill-rule:evenodd;stroke:rgb(0, 49, 255);stroke-width:1;" d="M 480.326, 548.711 L 498.055, 524.469 L 510.9, 530.077 L 510.538, 530.62 L 515.966, 532.972 L 520.85, 526.459 L 502.397, 518.498 L 513.252, 503.664 L 524.83, 508.729 L 527.001, 505.654 L 543.645, 512.89 L 555.586, 496.789 L 570.782, 503.483 L 550.158, 531.524 L 534.962, 525.011 L 530.801, 531.162 L 545.635, 537.494 L 537.494, 548.53 L 522.659, 542.198 L 518.498, 548.349 L 532.972, 554.5 L 523.564, 567.345 L 480.326, 548.711 z "/>
<path style="fill:rgb(0, 0, 255);fill-opacity:0;fill-rule:evenodd;stroke:rgb(0, 49, 255);stroke-width:1;" d="M 118.86, 595.387 L 153.415, 548.892 L 195.206, 566.621 L 171.506, 598.643 L 160.651, 613.297 L 118.86, 595.387 z "/>
<path style="fill:rgb(255, 255, 0);fill-opacity:0;fill-rule:evenodd;stroke:rgb(0, 49, 255);stroke-width:1;" d="M 193.758, 344.098 L 227.408, 298.869 L 277.883, 320.217 L 264.496, 338.308 L 255.812, 334.509 L 257.44, 332.157 L 252.374, 329.986 L 244.233, 341.022 L 248.213, 342.65 L 250.384, 339.937 L 259.068, 343.736 L 245.319, 362.189 L 211.488, 347.716 L 209.317, 350.791 L 193.758, 344.098 z M 222.886, 332.157 L 229.579, 335.052 L 237.72, 338.489 L 246.043, 326.911 L 231.027, 320.76 L 222.886, 332.157 z "/>
<path style="fill:rgb(255, 0, 0);fill-opacity:0;fill-rule:evenodd;stroke:rgb(0, 49, 255);stroke-width:1;" d="M 701.04, 146.721 L 724.559, 114.699 L 721.303, 113.252 L 728.901, 102.759 L 732.338, 104.206 L 755.133, 73.27 L 779.376, 83.4012 L 756.762, 114.518 L 758.933, 115.423 L 749.525, 128.087 L 747.716, 127.182 L 725.825, 157.214 L 708.277, 149.796 L 701.04, 146.721 z "/>
<path style="fill:rgb(0, 255, 0);fill-opacity:0;fill-rule:evenodd;stroke:rgb(0, 49, 255);stroke-width:1;" d="M 95.8842, 754.229 L 119.584, 721.483 L 125.916, 724.197 L 176.753, 745.364 L 153.053, 778.109 L 141.294, 773.225 L 95.8842, 754.229 z "/>
<path style="fill:rgb(0, 0, 255);fill-opacity:0;fill-rule:evenodd;stroke:rgb(0, 49, 255);stroke-width:1;" d="M 555.586, 496.789 L 597.739, 439.62 L 636.997, 384.08 L 646.223, 388.422 L 636.997, 402.171 L 614.564, 443.6 L 585.979, 481.592 L 586.703, 481.954 L 570.782, 503.483 L 555.586, 496.789 z "/>
<path style="fill:rgb(255, 255, 0);fill-opacity:0;fill-rule:evenodd;stroke:rgb(0, 49, 255);stroke-width:1;" d="M 412.483, 331.434 L 427.137, 311.533 L 428.765, 312.257 L 437.992, 299.593 L 456.807, 307.553 L 448.485, 318.77 L 458.616, 323.112 L 462.596, 317.684 L 467.3, 319.674 L 471.642, 313.704 L 487.562, 320.579 L 463.863, 352.962 L 412.483, 331.434 z "/>
<path style="fill:rgb(255, 0, 0);fill-opacity:0;fill-rule:evenodd;stroke:rgb(0, 49, 255);stroke-width:1;" d="M 194.844, 106.558 L 202.804, 95.5224 L 206.603, 97.1506 L 226.504, 70.0136 L 244.957, 77.7929 L 239.891, 84.8485 L 247.671, 88.1049 L 252.917, 80.8684 L 271.009, 88.4668 L 250.927, 115.785 L 254.365, 117.232 L 252.013, 120.308 L 247.671, 126.097 L 246.223, 128.087 L 225.961, 119.584 L 238.263, 102.578 L 239.53, 102.397 L 241.701, 99.5025 L 229.218, 94.256 L 227.408, 96.6079 L 227.77, 98.0552 L 215.468, 115.242 L 194.844, 106.558 z "/>
<path style="fill:rgb(0, 255, 0);fill-opacity:0;fill-rule:evenodd;stroke:rgb(0, 49, 255);stroke-width:1;" d="M 487.019, 229.218 L 507.644, 200.633 L 509.634, 201.538 L 512.528, 197.558 L 518.318, 199.91 L 528.268, 204.071 L 524.107, 210.041 L 541.294, 217.277 L 545.274, 211.669 L 561.556, 218.544 L 538.399, 250.746 L 516.508, 241.52 L 520.488, 235.911 L 522.479, 236.816 L 525.011, 233.379 L 513.433, 228.494 L 510.9, 231.75 L 512.528, 232.474 L 508.367, 238.263 L 487.019, 229.218 z "/>
<path style="fill:rgb(0, 0, 255);fill-opacity:0;fill-rule:evenodd;stroke:rgb(0, 49, 255);stroke-width:1;" d="M 252.555, 264.134 L 276.074, 231.569 L 294.346, 239.168 L 290.185, 244.776 L 305.02, 250.927 L 309, 245.319 L 316.418, 248.394 L 325.283, 252.013 L 318.408, 261.601 L 319.313, 263.772 L 303.573, 285.482 L 282.768, 276.798 L 291.09, 265.038 L 282.949, 261.782 L 274.446, 273.36 L 252.555, 264.134 z "/>
<path style="fill:rgb(255, 255, 0);fill-opacity:0;fill-rule:evenodd;stroke:rgb(0, 49, 255);stroke-width:1;" d="M 153.053, 502.397 L 176.572, 470.556 L 194.482, 478.155 L 200.814, 469.471 L 222.524, 478.878 L 220.172, 482.135 L 211.488, 493.713 L 199.91, 509.453 L 192.673, 519.222 L 153.053, 502.397 z "/>
<path style="fill:rgb(255, 0, 0);fill-opacity:0;fill-rule:evenodd;stroke:rgb(0, 49, 255);stroke-width:1;" d="M 392.221, 272.637 L 411.759, 246.585 L 407.96, 244.957 L 416.644, 233.379 L 435.821, 241.339 L 418.815, 263.953 L 426.775, 267.209 L 443.781, 244.776 L 462.596, 252.555 L 455.179, 262.325 L 453.731, 264.496 L 450.475, 263.048 L 430.755, 289.281 L 392.221, 272.637 z "/>
<path style="fill:rgb(0, 255, 0);fill-opacity:0;fill-rule:evenodd;stroke:rgb(0, 49, 255);stroke-width:1;" d="M 346.992, 253.098 L 365.988, 227.951 L 362.008, 226.142 L 362.913, 225.057 L 370.873, 214.383 L 389.507, 222.162 L 372.863, 244.233 L 381.366, 248.033 L 398.01, 225.599 L 416.644, 233.379 L 407.96, 244.957 L 404.523, 243.51 L 384.984, 269.561 L 346.992, 253.098 z "/>
<path style="fill:rgb(0, 0, 255);fill-opacity:0;fill-rule:evenodd;stroke:rgb(0, 49, 255);stroke-width:1;" d="M 417.006, 519.584 L 440.163, 489.19 L 452.827, 494.618 L 458.073, 496.97 L 448.304, 509.815 L 462.958, 516.327 L 472.727, 503.483 L 474.898, 504.387 L 488.648, 510.357 L 465.672, 540.932 L 417.006, 519.584 z "/>
<path style="fill:rgb(255, 255, 0);fill-opacity:0;fill-rule:evenodd;stroke:rgb(0, 49, 255);stroke-width:1;" d="M 91.3614, 586.522 L 127.363, 537.856 L 153.415, 548.892 L 118.86, 595.387 L 117.232, 597.558 L 110.176, 594.482 L 108.367, 597.015 L 98.7788, 593.035 L 100.769, 590.502 L 91.3614, 586.522 z "/>
<path style="fill:rgb(255, 0, 0);fill-opacity:0;fill-rule:evenodd;stroke:rgb(0, 49, 255);stroke-width:1;" d="M 152.329, 88.1049 L 159.928, 77.7929 L 163.184, 79.2402 L 183.446, 51.5604 L 196.834, 57.1687 L 183.627, 75.2601 L 189.236, 77.6119 L 191.949, 73.8128 L 195.206, 72.5464 L 203.89, 60.787 L 218.905, 67.119 L 219.086, 66.7571 L 219.267, 66.938 L 199.367, 94.256 L 202.804, 95.5224 L 194.844, 106.558 L 177.295, 99.1407 L 183.989, 89.9141 L 176.572, 86.8385 L 170.059, 95.7033 L 152.329, 88.1049 z "/>
<path style="fill:rgb(0, 255, 0);fill-opacity:0;fill-rule:evenodd;stroke:rgb(0, 49, 255);stroke-width:1;" d="M 220.896, 531.343 L 228.132, 521.393 L 252.194, 488.467 L 280.778, 500.588 L 262.144, 526.097 L 249.48, 543.464 L 220.896, 531.343 z "/>
<path style="fill:rgb(0, 0, 255);fill-opacity:0;fill-rule:evenodd;stroke:rgb(0, 49, 255);stroke-width:1;" d="M 45.4093, 105.834 L 60.4251, 84.4867 L 118.137, 108.729 L 102.759, 129.715 L 76.1646, 118.679 L 63.6816, 113.433 L 59.8824, 111.805 L 45.4093, 105.834 z "/>
<path style="fill:rgb(255, 255, 0);fill-opacity:0;fill-rule:evenodd;stroke:rgb(0, 49, 255);stroke-width:1;" d="M 358.209, 308.458 L 365.626, 298.146 L 372.863, 301.221 L 375.215, 297.784 L 371.416, 296.156 L 381.366, 282.406 L 423.157, 299.955 L 412.845, 314.066 L 409.046, 312.438 L 407.056, 315.332 L 414.473, 318.408 L 406.875, 328.901 L 385.889, 320.217 L 396.382, 305.925 L 395.115, 305.382 L 397.467, 302.126 L 392.583, 299.955 L 390.231, 303.392 L 389.145, 302.849 L 378.652, 317.142 L 358.209, 308.458 z "/>
<path style="fill:rgb(255, 0, 0);fill-opacity:0;fill-rule:evenodd;stroke:rgb(0, 49, 255);stroke-width:1;" d="M 309.362, 288.014 L 316.78, 277.702 L 324.74, 280.959 L 326.911, 278.064 L 322.75, 276.255 L 332.881, 262.325 L 374.491, 279.692 L 364.541, 293.442 L 360.742, 291.995 L 358.39, 295.07 L 365.626, 298.146 L 358.209, 308.458 L 337.042, 299.593 L 347.354, 285.482 L 346.269, 284.939 L 348.621, 281.682 L 343.917, 279.692 L 341.746, 282.768 L 340.299, 282.044 L 329.806, 296.517 L 309.362, 288.014 z "/>
<path style="fill:rgb(0, 255, 0);fill-opacity:0;fill-rule:evenodd;stroke:rgb(0, 49, 255);stroke-width:1;" d="M 282.406, 223.066 L 294.166, 206.603 L 316.056, 215.649 L 319.132, 211.488 L 313.885, 209.317 L 314.971, 207.689 L 298.327, 200.814 L 307.734, 187.969 L 343.374, 202.804 L 327.635, 224.876 L 324.016, 223.247 L 316.418, 233.74 L 302.488, 227.951 L 300.678, 230.484 L 295.794, 228.494 L 282.406, 223.066 z "/>
<path style="fill:rgb(0, 0, 255);fill-opacity:0;fill-rule:evenodd;stroke:rgb(0, 49, 255);stroke-width:1;" d="M 678.969, 162.46 L 693.08, 143.284 L 701.04, 146.721 L 708.277, 149.796 L 704.297, 155.224 L 716.961, 160.47 L 720.398, 155.767 L 733.967, 161.556 L 731.615, 164.631 L 748.801, 171.868 L 737.585, 187.246 L 678.969, 162.46 z "/>
<path style="fill:rgb(255, 255, 0);fill-opacity:0;fill-rule:evenodd;stroke:rgb(0, 49, 255);stroke-width:1;" d="M 122.84, 314.247 L 139.846, 290.547 L 152.148, 295.794 L 161.556, 282.768 L 161.194, 280.959 L 167.888, 272.094 L 183.808, 278.607 L 175.305, 290.185 L 150.339, 324.559 L 146.721, 323.112 L 147.626, 321.664 L 134.962, 316.418 L 133.333, 318.589 L 126.64, 315.875 L 122.84, 314.247 z "/>
<path style="fill:rgb(255, 0, 0);fill-opacity:0;fill-rule:evenodd;stroke:rgb(0, 49, 255);stroke-width:1;" d="M 134.419, 214.564 L 135.504, 212.935 L 143.103, 202.804 L 147.445, 204.613 L 151.244, 204.251 L 159.023, 194.12 L 158.48, 191.588 L 152.872, 189.236 L 161.556, 177.295 L 190.321, 189.417 L 182.18, 200.814 L 177.295, 198.824 L 174.22, 199.186 L 165.717, 210.222 L 166.621, 212.212 L 172.049, 214.564 L 163.908, 225.78 L 163.184, 226.685 L 134.419, 214.564 z "/>
<path style="fill:rgb(0, 255, 0);fill-opacity:0;fill-rule:evenodd;stroke:rgb(0, 49, 255);stroke-width:1;" d="M 97.3315, 649.661 L 104.206, 640.253 L 109.453, 642.605 L 112.709, 638.263 L 110.538, 637.359 L 128.63, 612.754 L 153.777, 623.609 L 145.455, 634.826 L 137.856, 631.569 L 125.735, 648.033 L 133.333, 651.289 L 125.735, 661.782 L 97.3315, 649.661 z "/>
<path style="fill:rgb(0, 0, 255);fill-opacity:0;fill-rule:evenodd;stroke:rgb(0, 49, 255);stroke-width:1;" d="M 367.074, 178.924 L 375.577, 166.802 L 381.728, 169.335 L 383.175, 168.973 L 384.803, 166.621 L 383.175, 165.898 L 381.728, 164.45 L 396.744, 143.645 L 422.252, 154.138 L 415.378, 163.727 L 414.111, 165.536 L 409.227, 163.546 L 406.332, 162.822 L 397.286, 175.305 L 404.704, 178.2 L 403.437, 180.009 L 395.477, 190.864 L 367.074, 178.924 z "/>
<path style="fill:rgb(255, 255, 0);fill-opacity:0;fill-rule:evenodd;stroke:rgb(0, 49, 255);stroke-width:1;" d="M 68.9281, 637.72 L 75.2601, 629.037 L 76.5265, 627.408 L 83.9439, 630.665 L 85.934, 627.951 L 85.2103, 627.77 L 95.5224, 614.021 L 88.4668, 610.945 L 97.3315, 599.186 L 121.574, 609.679 L 111.624, 623.066 L 103.483, 634.102 L 101.493, 633.379 L 98.2361, 637.72 L 104.206, 640.253 L 97.3315, 649.661 L 68.9281, 637.72 z "/>
<path style="fill:rgb(255, 0, 0);fill-opacity:0;fill-rule:evenodd;stroke:rgb(0, 49, 255);stroke-width:1;" d="M 424.062, 202.985 L 432.022, 191.949 L 439.982, 195.206 L 441.429, 193.397 L 441.429, 191.949 L 448.485, 182.18 L 450.294, 181.275 L 451.922, 178.924 L 444.143, 175.667 L 451.741, 164.993 L 480.507, 176.934 L 472.727, 187.788 L 465.129, 184.532 L 462.777, 187.788 L 462.958, 187.788 L 455.54, 198.281 L 455.179, 198.1 L 453.189, 200.814 L 460.968, 204.071 L 453.008, 215.106 L 424.062, 202.985 z "/>
<path style="fill:rgb(0, 255, 0);fill-opacity:0;fill-rule:evenodd;stroke:rgb(0, 49, 255);stroke-width:1;" d="M 395.477, 190.864 L 403.437, 180.009 L 411.578, 183.446 L 413.207, 180.914 L 412.664, 180.371 L 420.262, 169.697 L 421.529, 169.154 L 423.157, 166.983 L 415.378, 163.727 L 422.252, 154.138 L 422.976, 153.053 L 451.741, 164.993 L 444.143, 175.667 L 436.364, 172.411 L 434.374, 175.124 L 434.916, 175.305 L 434.735, 176.029 L 427.137, 186.341 L 425.69, 186.522 L 424.062, 188.693 L 432.022, 191.949 L 424.062, 202.985 L 395.477, 190.864 z "/>
<path style="fill:rgb(0, 0, 255);fill-opacity:0;fill-rule:evenodd;stroke:rgb(0, 49, 255);stroke-width:1;" d="M 453.008, 215.106 L 460.968, 204.071 L 466.576, 206.422 L 469.652, 202.261 L 470.918, 202.804 L 479.783, 190.683 L 472.727, 187.788 L 480.507, 176.934 L 505.111, 187.246 L 497.151, 198.281 L 495.884, 197.919 L 486.839, 210.403 L 485.572, 209.86 L 482.858, 213.478 L 489.009, 216.011 L 481.049, 227.047 L 453.008, 215.106 z "/>
<path style="fill:rgb(255, 255, 0);fill-opacity:0;fill-rule:evenodd;stroke:rgb(0, 49, 255);stroke-width:1;" d="M 159.928, 614.383 L 160.651, 613.297 L 171.506, 598.643 L 173.315, 599.548 L 219.629, 619.267 L 205.518, 638.806 L 186.16, 630.665 L 184.532, 629.941 L 187.246, 625.961 L 159.928, 614.383 z "/>
<path style="fill:rgb(255, 0, 0);fill-opacity:0;fill-rule:evenodd;stroke:rgb(0, 49, 255);stroke-width:1;" d="M 192.673, 519.222 L 199.91, 509.453 L 205.518, 511.805 L 207.87, 511.262 L 214.202, 502.759 L 214.021, 500.769 L 217.277, 496.065 L 211.488, 493.713 L 220.172, 482.135 L 244.595, 492.447 L 228.132, 514.699 L 226.142, 513.795 L 223.247, 517.775 L 223.79, 519.584 L 228.132, 521.393 L 220.896, 531.343 L 192.673, 519.222 z "/>
<path style="fill:rgb(0, 255, 0);fill-opacity:0;fill-rule:evenodd;stroke:rgb(0, 49, 255);stroke-width:1;" d="M 35.8209, 706.649 L 43.4193, 696.517 L 50.8367, 699.593 L 61.8725, 684.758 L 62.777, 683.492 L 55.7214, 680.416 L 63.5007, 669.923 L 91.9041, 682.044 L 84.3057, 692.356 L 77.0692, 689.281 L 64.948, 705.744 L 72.7273, 709 L 65.1289, 719.132 L 35.8209, 706.649 z "/>
<path style="fill:rgb(0, 0, 255);fill-opacity:0;fill-rule:evenodd;stroke:rgb(0, 49, 255);stroke-width:1;" d="M 31.6599, 564.812 L 69.8327, 513.252 L 85.2103, 519.765 L 47.0375, 571.144 L 46.8566, 571.325 L 31.6599, 564.812 z "/>
<path style="fill:rgb(255, 255, 0);fill-opacity:0;fill-rule:evenodd;stroke:rgb(0, 49, 255);stroke-width:1;" d="M 47.7612, 776.662 L 55.1787, 766.35 L 58.9778, 767.978 L 62.0534, 767.616 L 60.9679, 765.445 L 79.4211, 739.937 L 96.246, 746.992 L 77.6119, 772.501 L 75.6219, 773.225 L 79.602, 776.119 L 72.0036, 786.793 L 47.7612, 776.662 z "/>
<path style="fill:rgb(255, 0, 0);fill-opacity:0;fill-rule:evenodd;stroke:rgb(0, 49, 255);stroke-width:1;" d="M 216.735, 200.995 L 236.997, 172.953 L 233.379, 171.506 L 241.52, 160.289 L 262.144, 168.792 L 232.293, 208.774 L 230.665, 208.051 L 231.389, 207.146 L 216.735, 200.995 z "/>
<path style="fill:rgb(0, 255, 0);fill-opacity:0;fill-rule:evenodd;stroke:rgb(0, 49, 255);stroke-width:1;" d="M 194.301, 190.321 L 214.202, 162.822 L 211.126, 161.556 L 218.905, 150.701 L 241.52, 160.289 L 233.379, 171.506 L 229.76, 170.059 L 210.222, 196.834 L 194.301, 190.321 z "/>
<path style="fill:rgb(0, 0, 255);fill-opacity:0;fill-rule:evenodd;stroke:rgb(0, 49, 255);stroke-width:1;" d="M 259.43, 69.6517 L 265.943, 60.787 L 272.999, 63.8625 L 281.321, 52.284 L 274.265, 49.3894 L 280.778, 40.5246 L 309.181, 52.284 L 303.754, 60.0633 L 302.488, 61.6915 L 296.698, 59.3397 L 295.07, 58.616 L 286.929, 69.8327 L 294.527, 72.9082 L 288.195, 81.592 L 259.43, 69.6517 z "/>
<path style="fill:rgb(255, 255, 0);fill-opacity:0;fill-rule:evenodd;stroke:rgb(0, 49, 255);stroke-width:1;" d="M 323.293, 244.414 L 343.736, 216.915 L 340.479, 215.468 L 348.259, 204.975 L 370.873, 214.383 L 362.913, 225.057 L 358.933, 223.247 L 338.67, 250.927 L 323.293, 244.414 z "/>
<path style="fill:rgb(255, 0, 0);fill-opacity:0;fill-rule:evenodd;stroke:rgb(0, 49, 255);stroke-width:1;" d="M 161.918, 662.144 L 163.546, 659.792 L 164.27, 660.154 L 186.16, 630.665 L 205.518, 638.806 L 181.818, 670.647 L 161.918, 662.144 z "/>
<path style="fill:rgb(0, 255, 0);fill-opacity:0;fill-rule:evenodd;stroke:rgb(0, 49, 255);stroke-width:1;" d="M 88.8286, 730.348 L 109.272, 702.126 L 106.558, 701.04 L 113.795, 690.909 L 134.781, 699.774 L 127.182, 710.267 L 123.383, 708.639 L 103.302, 736.318 L 88.8286, 730.348 z "/>
<path style="fill:rgb(0, 0, 255);fill-opacity:0;fill-rule:evenodd;stroke:rgb(0, 49, 255);stroke-width:1;" d="M 68.0235, 721.303 L 87.924, 693.985 L 84.3057, 692.356 L 91.9041, 682.044 L 113.795, 690.909 L 106.558, 701.04 L 102.578, 699.412 L 82.3157, 727.273 L 68.0235, 721.303 z "/>
<path style="fill:rgb(255, 255, 0);fill-opacity:0;fill-rule:evenodd;stroke:rgb(0, 49, 255);stroke-width:1;" d="M 127.182, 710.267 L 134.781, 699.774 L 190.14, 722.931 L 191.407, 725.102 L 184.713, 734.328 L 133.876, 712.981 L 127.182, 710.267 z "/>
<path style="fill:rgb(255, 0, 0);fill-opacity:0;fill-rule:evenodd;stroke:rgb(0, 49, 255);stroke-width:1;" d="M 455.179, 262.325 L 462.596, 252.555 L 520.308, 276.798 L 512.347, 287.11 L 455.179, 262.325 z "/>
<path style="fill:rgb(0, 255, 0);fill-opacity:0;fill-rule:evenodd;stroke:rgb(0, 49, 255);stroke-width:1;" d="M 439.077, 488.648 L 450.656, 473.27 L 464.586, 479.059 L 462.777, 481.411 L 466.214, 483.039 L 464.224, 485.572 L 479.059, 492.085 L 480.868, 489.733 L 484.125, 491.18 L 486.296, 488.467 L 500.588, 494.437 L 488.648, 510.357 L 474.898, 504.387 L 477.612, 500.769 L 474.536, 499.322 L 476.165, 497.151 L 460.425, 490.095 L 458.435, 492.809 L 455.36, 491.361 L 452.827, 494.618 L 440.163, 489.19 L 439.077, 488.648 z "/>
<path style="fill:rgb(0, 0, 255);fill-opacity:0;fill-rule:evenodd;stroke:rgb(0, 49, 255);stroke-width:1;" d="M 447.942, 272.275 L 453.731, 264.496 L 455.179, 262.325 L 512.347, 287.11 L 504.93, 296.879 L 451.018, 273.541 L 447.942, 272.275 z "/>
<path style="fill:rgb(255, 255, 0);fill-opacity:0;fill-rule:evenodd;stroke:rgb(0, 49, 255);stroke-width:1;" d="M 125.916, 724.197 L 133.876, 712.981 L 184.713, 734.328 L 176.753, 745.364 L 125.916, 724.197 z "/>
<path style="fill:rgb(255, 0, 0);fill-opacity:0;fill-rule:evenodd;stroke:rgb(0, 49, 255);stroke-width:1;" d="M 443.962, 282.949 L 451.018, 273.541 L 504.93, 296.879 L 497.332, 306.829 L 484.848, 301.583 L 484.668, 299.955 L 457.35, 287.834 L 456.445, 288.195 L 443.962, 282.949 z "/>
<path style="fill:rgb(0, 255, 0);fill-opacity:0;fill-rule:evenodd;stroke:rgb(0, 49, 255);stroke-width:1;" d="M 180.733, 170.421 L 192.311, 154.5 L 188.693, 152.872 L 196.834, 141.474 L 218.905, 150.701 L 211.126, 161.556 L 210.583, 162.28 L 206.422, 160.651 L 195.025, 176.391 L 180.733, 170.421 z "/>
<path style="fill:rgb(0, 0, 255);fill-opacity:0;fill-rule:evenodd;stroke:rgb(0, 49, 255);stroke-width:1;" d="M 65.3098, 335.052 L 66.3953, 333.424 L 81.2302, 313.161 L 89.7332, 301.945 L 104.025, 307.915 L 92.9896, 323.112 L 79.7829, 341.022 L 65.3098, 335.052 z "/>
<path style="fill:rgb(255, 255, 0);fill-opacity:0;fill-rule:evenodd;stroke:rgb(0, 49, 255);stroke-width:1;" d="M 37.63, 116.508 L 45.4093, 105.834 L 59.8824, 111.805 L 58.2542, 114.156 L 62.2343, 115.785 L 63.6816, 113.433 L 76.1646, 118.679 L 77.0692, 120.308 L 93.8942, 127.363 L 87.7431, 136.047 L 70.7372, 128.991 L 67.8426, 129.353 L 56.0832, 124.469 L 57.8924, 121.936 L 53.7313, 120.308 L 52.1031, 122.479 L 37.63, 116.508 z "/>
<path style="fill:rgb(255, 0, 0);fill-opacity:0;fill-rule:evenodd;stroke:rgb(0, 49, 255);stroke-width:1;" d="M 137.856, 152.148 L 149.254, 136.409 L 145.816, 134.962 L 153.957, 123.564 L 175.486, 132.61 L 167.345, 144.007 L 163.727, 142.56 L 152.329, 158.118 L 137.856, 152.148 z "/>
<path style="fill:rgb(0, 255, 0);fill-opacity:0;fill-rule:evenodd;stroke:rgb(0, 49, 255);stroke-width:1;" d="M 108.548, 353.505 L 133.876, 319.132 L 147.445, 324.921 L 129.715, 349.163 L 122.298, 359.294 L 108.548, 353.505 z "/>
<path style="fill:rgb(0, 0, 255);fill-opacity:0;fill-rule:evenodd;stroke:rgb(0, 49, 255);stroke-width:1;" d="M 116.327, 142.922 L 127.544, 127.544 L 124.469, 126.097 L 132.61, 114.699 L 153.957, 123.564 L 145.816, 134.962 L 142.379, 133.514 L 130.981, 149.073 L 116.327, 142.922 z "/>
<path style="fill:rgb(255, 255, 0);fill-opacity:0;fill-rule:evenodd;stroke:rgb(0, 49, 255);stroke-width:1;" d="M 94.9796, 140.751 L 102.759, 129.715 L 118.137, 108.729 L 132.61, 114.699 L 124.469, 126.097 L 109.453, 146.721 L 94.9796, 140.751 z "/>
<path style="fill:rgb(255, 0, 0);fill-opacity:0;fill-rule:evenodd;stroke:rgb(0, 49, 255);stroke-width:1;" d="M 159.566, 161.375 L 170.963, 145.635 L 167.345, 144.007 L 175.486, 132.61 L 196.834, 141.474 L 188.693, 152.872 L 185.256, 151.425 L 173.858, 167.164 L 159.566, 161.375 z "/>
<path style="fill:rgb(0, 255, 0);fill-opacity:0;fill-rule:evenodd;stroke:rgb(0, 49, 255);stroke-width:1;" d="M 191.588, 238.444 L 207.327, 217.277 L 215.649, 206.242 L 229.76, 212.212 L 205.699, 244.595 L 191.588, 238.444 z "/>
<path style="fill:rgb(0, 0, 255);fill-opacity:0;fill-rule:evenodd;stroke:rgb(0, 49, 255);stroke-width:1;" d="M 96.427, 767.255 L 102.759, 758.571 L 140.57, 774.31 L 141.294, 773.225 L 153.053, 778.109 L 144.912, 789.145 L 133.333, 784.261 L 132.61, 782.451 L 96.427, 767.255 z "/>
<path style="fill:rgb(255, 255, 0);fill-opacity:0;fill-rule:evenodd;stroke:rgb(0, 49, 255);stroke-width:1;" d="M 88.4668, 778.109 L 94.6178, 769.607 L 130.801, 784.803 L 133.333, 784.261 L 144.912, 789.145 L 137.133, 800 L 125.373, 794.934 L 124.649, 793.306 L 88.4668, 778.109 z "/>
<path style="fill:rgb(255, 0, 0);fill-opacity:0;fill-rule:evenodd;stroke:rgb(0, 49, 255);stroke-width:1;" d="M 67.2999, 409.769 L 89.1904, 379.557 L 103.121, 385.165 L 91.7232, 401.085 L 81.2302, 415.739 L 67.2999, 409.769 z "/>
<path style="fill:rgb(0, 255, 0);fill-opacity:0;fill-rule:evenodd;stroke:rgb(0, 49, 255);stroke-width:1;" d="M 138.399, 82.3157 L 161.375, 50.6558 L 173.315, 55.7214 L 157.757, 76.8883 L 159.928, 77.7929 L 152.329, 88.1049 L 138.399, 82.3157 z "/>
<path style="fill:rgb(0, 0, 255);fill-opacity:0;fill-rule:evenodd;stroke:rgb(0, 49, 255);stroke-width:1;" d="M 96.246, 348.44 L 109.815, 329.986 L 112.709, 327.815 L 115.604, 327.092 L 117.956, 323.654 L 112.347, 321.303 L 118.86, 312.619 L 122.84, 314.247 L 126.64, 315.875 L 122.117, 322.207 L 128.449, 324.921 L 107.644, 353.324 L 96.246, 348.44 z "/>
<path style="fill:rgb(255, 255, 0);fill-opacity:0;fill-rule:evenodd;stroke:rgb(0, 49, 255);stroke-width:1;" d="M 276.074, 231.569 L 282.406, 223.066 L 295.794, 228.494 L 295.975, 230.122 L 301.945, 232.474 L 303.754, 232.112 L 322.026, 240.253 L 316.418, 248.394 L 309, 245.319 L 294.346, 239.168 L 276.074, 231.569 z "/>
<path style="fill:rgb(255, 0, 0);fill-opacity:0;fill-rule:evenodd;stroke:rgb(0, 49, 255);stroke-width:1;" d="M 69.6517, 271.732 L 91.7232, 242.243 L 102.578, 246.947 L 80.6875, 276.436 L 69.6517, 271.732 z "/>
<path style="fill:rgb(0, 255, 0);fill-opacity:0;fill-rule:evenodd;stroke:rgb(0, 49, 255);stroke-width:1;" d="M 121.393, 206.965 L 136.59, 185.979 L 136.952, 185.617 L 151.244, 191.588 L 143.103, 202.804 L 135.504, 212.935 L 121.393, 206.965 z "/>
<path style="fill:rgb(0, 0, 255);fill-opacity:0;fill-rule:evenodd;stroke:rgb(0, 49, 255);stroke-width:1;" d="M 80.6875, 276.436 L 102.578, 246.947 L 112.709, 251.289 L 90.6377, 280.778 L 80.6875, 276.436 z "/>
<path style="fill:rgb(255, 255, 0);fill-opacity:0;fill-rule:evenodd;stroke:rgb(0, 49, 255);stroke-width:1;" d="M 90.6377, 280.778 L 112.709, 251.289 L 123.564, 255.993 L 108.186, 276.436 L 105.654, 279.873 L 101.493, 278.064 L 97.3315, 283.673 L 90.6377, 280.778 z "/>
<path style="fill:rgb(255, 0, 0);fill-opacity:0;fill-rule:evenodd;stroke:rgb(0, 49, 255);stroke-width:1;" d="M 63.3198, 269.019 L 67.6617, 263.048 L 63.3198, 261.239 L 70.9181, 251.108 L 80.5066, 238.082 L 80.8684, 237.72 L 91.7232, 242.243 L 69.6517, 271.732 L 63.3198, 269.019 z "/>
<path style="fill:rgb(0, 255, 0);fill-opacity:0;fill-rule:evenodd;stroke:rgb(0, 49, 255);stroke-width:1;" d="M 247.671, 126.097 L 252.013, 120.308 L 263.41, 125.192 L 263.591, 125.011 L 287.291, 134.962 L 280.959, 143.464 L 257.802, 133.695 L 259.611, 131.162 L 247.671, 126.097 z "/>
<path style="fill:rgb(0, 0, 255);fill-opacity:0;fill-rule:evenodd;stroke:rgb(0, 49, 255);stroke-width:1;" d="M 56.445, 405.427 L 74.7173, 380.1 L 85.2103, 384.441 L 68.9281, 406.875 L 66.938, 409.769 L 56.445, 405.427 z "/>
<path style="fill:rgb(255, 255, 0);fill-opacity:0;fill-rule:evenodd;stroke:rgb(0, 49, 255);stroke-width:1;" d="M 109.634, 202.081 L 124.83, 181.095 L 136.59, 185.979 L 121.393, 206.965 L 109.634, 202.081 z "/>
<path style="fill:rgb(255, 0, 0);fill-opacity:0;fill-rule:evenodd;stroke:rgb(0, 49, 255);stroke-width:1;" d="M 63.5007, 184.532 L 79.7829, 162.28 L 90.8186, 166.983 L 75.6219, 187.969 L 72.0036, 186.341 L 67.6617, 186.16 L 63.5007, 184.532 z "/>
<path style="fill:rgb(0, 255, 0);fill-opacity:0;fill-rule:evenodd;stroke:rgb(0, 49, 255);stroke-width:1;" d="M 75.6219, 187.969 L 90.8186, 166.983 L 102.397, 171.687 L 87.0194, 192.673 L 75.6219, 187.969 z "/>
<path style="fill:rgb(0, 0, 255);fill-opacity:0;fill-rule:evenodd;stroke:rgb(0, 49, 255);stroke-width:1;" d="M 98.2361, 197.377 L 113.433, 176.391 L 124.83, 181.095 L 109.634, 202.081 L 98.2361, 197.377 z "/>
<path style="fill:rgb(255, 255, 0);fill-opacity:0;fill-rule:evenodd;stroke:rgb(0, 49, 255);stroke-width:1;" d="M 87.0194, 192.673 L 102.397, 171.687 L 113.433, 176.391 L 98.2361, 197.377 L 87.0194, 192.673 z "/>
<path style="fill:rgb(255, 0, 0);fill-opacity:0;fill-rule:evenodd;stroke:rgb(0, 49, 255);stroke-width:1;" d="M 118.679, 281.14 L 134.057, 260.516 L 145.093, 265.219 L 129.896, 285.844 L 118.679, 281.14 z "/>
<path style="fill:rgb(0, 255, 0);fill-opacity:0;fill-rule:evenodd;stroke:rgb(0, 49, 255);stroke-width:1;" d="M 303.754, 60.0633 L 309.181, 52.284 L 338.489, 64.7671 L 333.062, 72.3654 L 309.362, 62.4152 L 303.754, 60.0633 z "/>
<path style="fill:rgb(0, 0, 255);fill-opacity:0;fill-rule:evenodd;stroke:rgb(0, 49, 255);stroke-width:1;" d="M 163.908, 225.78 L 172.049, 214.564 L 178.924, 204.975 L 189.597, 209.679 L 174.401, 229.398 L 174.582, 230.665 L 172.953, 231.027 L 167.345, 228.856 L 167.164, 227.227 L 163.908, 225.78 z "/>
<path style="fill:rgb(255, 255, 0);fill-opacity:0;fill-rule:evenodd;stroke:rgb(0, 49, 255);stroke-width:1;" d="M 108.186, 276.436 L 123.564, 255.993 L 134.057, 260.516 L 118.679, 281.14 L 108.186, 276.436 z "/>
<path style="fill:rgb(255, 0, 0);fill-opacity:0;fill-rule:evenodd;stroke:rgb(0, 49, 255);stroke-width:1;" d="M 140.208, 290.185 L 155.405, 269.561 L 166.079, 274.084 L 150.701, 294.708 L 140.208, 290.185 z "/>
<path style="fill:rgb(0, 255, 0);fill-opacity:0;fill-rule:evenodd;stroke:rgb(0, 49, 255);stroke-width:1;" d="M 129.896, 285.844 L 145.093, 265.219 L 155.405, 269.561 L 140.208, 290.185 L 129.896, 285.844 z "/>
<path style="fill:rgb(0, 0, 255);fill-opacity:0;fill-rule:evenodd;stroke:rgb(0, 49, 255);stroke-width:1;" d="M 79.7829, 341.022 L 92.9896, 323.112 L 104.206, 327.996 L 90.9995, 345.907 L 79.7829, 341.022 z "/>
<path style="fill:rgb(255, 255, 0);fill-opacity:0;fill-rule:evenodd;stroke:rgb(0, 49, 255);stroke-width:1;" d="M 174.401, 229.398 L 189.597, 209.679 L 199.005, 213.659 L 199.005, 213.84 L 184.351, 233.198 L 181.456, 234.102 L 177.295, 232.293 L 178.2, 231.027 L 174.401, 229.398 z "/>
<path style="fill:rgb(255, 0, 0);fill-opacity:0;fill-rule:evenodd;stroke:rgb(0, 49, 255);stroke-width:1;" d="M 564.089, 52.6459 L 569.878, 44.8666 L 593.939, 55.1787 L 588.331, 62.9579 L 564.089, 52.6459 z "/>
<path style="fill:rgb(0, 255, 0);fill-opacity:0;fill-rule:evenodd;stroke:rgb(0, 49, 255);stroke-width:1;" d="M 553.053, 68.5663 L 559.023, 60.6061 L 582.361, 70.7372 L 576.391, 78.6974 L 553.053, 68.5663 z "/>
<path style="fill:rgb(0, 0, 255);fill-opacity:0;fill-rule:evenodd;stroke:rgb(0, 49, 255);stroke-width:1;" d="M 292.175, 86.1149 L 297.965, 78.1547 L 321.483, 88.1049 L 315.694, 96.0651 L 292.175, 86.1149 z "/>
<path style="fill:rgb(255, 255, 0);fill-opacity:0;fill-rule:evenodd;stroke:rgb(0, 49, 255);stroke-width:1;" d="M 297.965, 78.1547 L 303.573, 70.3754 L 327.273, 80.3256 L 321.483, 88.1049 L 297.965, 78.1547 z "/>
<path style="fill:rgb(255, 0, 0);fill-opacity:0;fill-rule:evenodd;stroke:rgb(0, 49, 255);stroke-width:1;" d="M 280.597, 101.854 L 286.386, 93.8942 L 309.905, 103.844 L 304.297, 111.805 L 280.597, 101.854 z "/>
<path style="fill:rgb(0, 255, 0);fill-opacity:0;fill-rule:evenodd;stroke:rgb(0, 49, 255);stroke-width:1;" d="M 286.386, 93.8942 L 292.175, 86.1149 L 315.694, 96.0651 L 309.905, 103.844 L 286.386, 93.8942 z "/>
<path style="fill:rgb(0, 0, 255);fill-opacity:0;fill-rule:evenodd;stroke:rgb(0, 49, 255);stroke-width:1;" d="M 274.989, 109.634 L 280.597, 101.854 L 304.297, 111.805 L 298.507, 119.584 L 274.989, 109.634 z "/>
<path style="fill:rgb(255, 255, 0);fill-opacity:0;fill-rule:evenodd;stroke:rgb(0, 49, 255);stroke-width:1;" d="M 303.573, 70.3754 L 309.362, 62.4152 L 333.062, 72.3654 L 327.273, 80.3256 L 303.573, 70.3754 z "/>
<path style="fill:rgb(255, 0, 0);fill-opacity:0;fill-rule:evenodd;stroke:rgb(0, 49, 255);stroke-width:1;" d="M 269.199, 117.413 L 274.989, 109.634 L 298.507, 119.584 L 292.899, 127.363 L 269.199, 117.413 z "/>
<path style="fill:rgb(0, 255, 0);fill-opacity:0;fill-rule:evenodd;stroke:rgb(0, 49, 255);stroke-width:1;" d="M 263.591, 125.011 L 269.199, 117.413 L 292.899, 127.363 L 287.291, 134.962 L 263.591, 125.011 z "/>
<path style="fill:rgb(0, 0, 255);fill-opacity:0;fill-rule:evenodd;stroke:rgb(0, 49, 255);stroke-width:1;" d="M 37.63, 321.303 L 43.7811, 312.981 L 48.123, 307.191 L 51.9222, 308.82 L 56.445, 302.849 L 62.4152, 305.201 L 47.5803, 325.464 L 37.63, 321.303 z "/>
<path style="fill:rgb(255, 255, 0);fill-opacity:0;fill-rule:evenodd;stroke:rgb(0, 49, 255);stroke-width:1;" d="M 184.351, 233.198 L 199.005, 213.84 L 199.005, 213.659 L 207.327, 217.277 L 191.588, 238.444 L 187.788, 236.816 L 187.427, 234.645 L 184.351, 233.198 z "/>
<path style="fill:rgb(255, 0, 0);fill-opacity:0;fill-rule:evenodd;stroke:rgb(0, 49, 255);stroke-width:1;" d="M 47.5803, 325.464 L 62.4152, 305.201 L 68.2044, 307.734 L 63.6816, 313.704 L 67.4808, 315.332 L 57.1687, 329.625 L 47.5803, 325.464 z "/>
<path style="fill:rgb(0, 255, 0);fill-opacity:0;fill-rule:evenodd;stroke:rgb(0, 49, 255);stroke-width:1;" d="M 57.1687, 329.625 L 67.4808, 315.332 L 71.28, 316.961 L 75.8028, 310.991 L 81.2302, 313.161 L 66.3953, 333.424 L 57.1687, 329.625 z "/>
<path style="fill:rgb(0, 0, 255);fill-opacity:0;fill-rule:evenodd;stroke:rgb(0, 49, 255);stroke-width:1;" d="M 0, 608.593 L 28.5844, 569.516 L 55.3596, 581.095 L 54.6359, 582.361 L 64.7671, 586.522 L 49.0276, 608.412 L 48.4848, 608.051 L 47.2185, 609.86 L 47.7612, 610.041 L 44.6857, 614.564 L 48.3039, 616.011 L 51.9222, 617.639 L 57.3496, 610.403 L 60.4251, 611.85 L 61.5106, 610.222 L 58.2542, 608.955 L 73.0891, 588.874 L 92.8087, 597.377 L 70.7372, 627.227 L 75.2601, 629.037 L 68.9281, 637.72 L 0, 608.593 z "/>
<path style="fill:rgb(255, 255, 0);fill-opacity:0;fill-rule:evenodd;stroke:rgb(0, 49, 255);stroke-width:1;" d="M 6.87472, 441.429 L 14.8349, 430.393 L 18.4532, 431.841 L 37.9919, 405.246 L 48.3039, 409.588 L 49.3894, 408.141 L 78.6974, 420.443 L 50.1131, 459.521 L 6.87472, 441.429 z "/>
<path style="fill:rgb(255, 0, 0);fill-opacity:0;fill-rule:evenodd;stroke:rgb(0, 49, 255);stroke-width:1;" d="M 8.86477, 258.887 L 18.6341, 246.043 L 30.3935, 251.289 L 34.0118, 246.404 L 32.9263, 245.862 L 39.6201, 237.178 L 32.0217, 233.921 L 31.2981, 234.826 L 27.137, 233.198 L 36.9064, 220.353 L 37.2682, 219.81 L 38.8964, 219.448 L 41.6101, 219.81 L 43.7811, 220.715 L 44.8666, 221.8 L 45.4093, 222.705 L 47.2185, 222.524 L 49.9322, 223.066 L 52.1031, 224.514 L 53.0077, 225.599 L 53.3695, 226.504 L 64.4052, 231.027 L 67.2999, 230.846 L 69.8327, 231.569 L 71.28, 232.474 L 72.5464, 234.283 L 75.2601, 234.102 L 77.7929, 235.007 L 79.7829, 236.454 L 80.5066, 238.082 L 70.9181, 251.108 L 67.119, 249.48 L 67.6617, 248.937 L 59.1588, 245.138 L 52.8268, 253.641 L 51.9222, 253.279 L 47.7612, 258.706 L 60.9679, 264.315 L 51.1986, 277.16 L 8.86477, 258.887 z "/>
<path style="fill:rgb(0, 255, 0);fill-opacity:0;fill-rule:evenodd;stroke:rgb(0, 49, 255);stroke-width:1;" d="M 6.6938, 160.109 L 21.8905, 138.58 L 72.0036, 159.204 L 72.9082, 159.566 L 57.7114, 181.095 L 6.6938, 160.109 z "/>
<path style="fill:rgb(0, 0, 255);fill-opacity:0;fill-rule:evenodd;stroke:rgb(0, 49, 255);stroke-width:1;" d="M 7.59837, 694.708 L 15.1967, 684.577 L 21.8905, 687.472 L 34.0118, 671.37 L 26.7752, 668.295 L 34.5545, 657.621 L 63.5007, 669.923 L 55.7214, 680.416 L 48.6658, 677.521 L 47.3994, 679.15 L 36.7255, 693.623 L 43.4193, 696.517 L 35.8209, 706.649 L 7.59837, 694.708 z "/>
<path style="fill:rgb(255, 255, 0);fill-opacity:0;fill-rule:evenodd;stroke:rgb(0, 49, 255);stroke-width:1;" d="M 24.4233, 766.893 L 32.0217, 756.4 L 35.64, 757.847 L 37.9919, 757.847 L 37.2682, 755.314 L 55.5405, 729.986 L 73.27, 737.223 L 54.6359, 762.913 L 51.1986, 763.275 L 52.4649, 765.265 L 55.1787, 766.35 L 47.7612, 776.662 L 24.4233, 766.893 z "/>
<path style="fill:rgb(255, 0, 0);fill-opacity:0;fill-rule:evenodd;stroke:rgb(0, 49, 255);stroke-width:1;" d="M 21.8905, 138.58 L 29.4889, 128.087 L 44.1429, 134.057 L 47.7612, 135.685 L 59.5206, 140.389 L 79.4211, 148.53 L 72.0036, 159.204 L 21.8905, 138.58 z "/>
<path style="fill:rgb(0, 255, 0);fill-opacity:0;fill-rule:evenodd;stroke:rgb(0, 49, 255);stroke-width:1;" d="M 29.4889, 128.087 L 37.63, 116.508 L 52.1031, 122.479 L 50.4749, 125.011 L 54.455, 126.64 L 56.0832, 124.469 L 67.8426, 129.353 L 68.9281, 131.524 L 85.7531, 138.399 L 79.9638, 146.721 L 62.777, 139.665 L 59.5206, 140.389 L 47.7612, 135.685 L 49.9322, 132.61 L 46.3139, 131.162 L 44.1429, 134.057 L 29.4889, 128.087 z "/>
<path style="fill:rgb(0, 0, 255);fill-opacity:0;fill-rule:evenodd;stroke:rgb(0, 49, 255);stroke-width:1;" d="M 569.697, 114.156 L 584.713, 92.8087 L 587.427, 89.0095 L 595.025, 92.2659 L 598.462, 87.3813 L 591.768, 84.6676 L 600.814, 71.8227 L 607.508, 74.5364 L 610.945, 69.6517 L 606.061, 67.6617 L 610.945, 60.6061 L 616.554, 62.777 L 619.629, 58.4351 L 612.754, 55.5405 L 626.323, 36.5445 L 633.198, 39.4392 L 638.625, 31.6599 L 652.013, 37.0873 L 649.48, 40.7056 L 660.516, 45.2284 L 667.209, 35.8209 L 680.597, 41.2483 L 678.245, 44.6857 L 684.939, 47.3994 L 676.617, 59.1588 L 669.199, 56.2641 L 665.581, 61.5106 L 674.084, 64.948 L 657.078, 89.1904 L 648.213, 85.7531 L 644.776, 90.6377 L 649.842, 92.6278 L 645.138, 99.3216 L 639.53, 97.1506 L 635.911, 102.216 L 640.615, 104.206 L 627.951, 122.298 L 622.524, 120.308 L 616.735, 128.449 L 615.106, 127.725 L 614.744, 128.268 L 620.715, 131.524 L 617.82, 135.685 L 575.486, 118.498 L 576.753, 116.87 L 569.697, 114.156 z "/>
<path style="fill:rgb(255, 255, 0);fill-opacity:0;fill-rule:evenodd;stroke:rgb(0, 49, 255);stroke-width:1;" d="M 765.988, 42.6956 L 777.205, 27.318 L 779.919, 28.5844 L 787.155, 18.6341 L 784.441, 17.5486 L 797.105, 0 L 830.574, 14.1113 L 820.986, 27.318 L 823.338, 28.2225 L 815.378, 39.0773 L 818.996, 40.7056 L 820.986, 37.9919 L 827.318, 40.5246 L 836.725, 28.0416 L 859.34, 37.8109 L 855.179, 43.4193 L 858.073, 44.6857 L 837.268, 72.7273 L 809.95, 61.3297 L 813.749, 55.9023 L 812.302, 55.3596 L 816.644, 49.5703 L 808.503, 46.133 L 804.704, 51.3795 L 803.618, 50.8367 L 799.276, 56.8069 L 765.988, 42.6956 z "/>
<path style="fill:rgb(255, 0, 0);fill-opacity:0;fill-rule:evenodd;stroke:rgb(0, 49, 255);stroke-width:1;" d="M 409.769, 48.6658 L 424.785, 28.4034 L 442.877, 36.0018 L 436.364, 44.8666 L 443.962, 47.9421 L 448.304, 41.972 L 471.823, 51.9222 L 466.214, 59.5206 L 473.813, 62.5961 L 479.24, 54.9977 L 490.819, 59.8824 L 477.974, 77.431 L 409.769, 48.6658 z "/>
<path style="fill:rgb(0, 255, 0);fill-opacity:0;fill-rule:evenodd;stroke:rgb(0, 49, 255);stroke-width:1;" d="M 79.4211, 57.5305 L 95.1606, 35.8209 L 111.081, 42.5147 L 106.377, 49.0276 L 108.548, 49.9322 L 110.9, 49.5703 L 125.735, 55.9023 L 127.001, 57.7114 L 129.353, 58.616 L 134.057, 52.284 L 145.997, 57.1687 L 147.626, 58.0733 L 131.886, 79.602 L 79.4211, 57.5305 z "/>
<path style="fill:rgb(0, 0, 255);fill-opacity:0;fill-rule:evenodd;stroke:rgb(0, 49, 255);stroke-width:1;" d="M 231.027, 57.5305 L 237.359, 49.0276 L 244.052, 51.9222 L 251.832, 41.0674 L 251.108, 39.4392 L 245.5, 37.0873 L 251.108, 29.4889 L 251.47, 28.9462 L 252.013, 28.2225 L 280.778, 40.5246 L 274.265, 49.3894 L 267.028, 46.3139 L 258.526, 57.8924 L 265.943, 60.787 L 259.43, 69.6517 L 231.027, 57.5305 z "/>
<path style="fill:rgb(255, 255, 0);fill-opacity:0;fill-rule:evenodd;stroke:rgb(0, 49, 255);stroke-width:1;" d="M 496.427, 44.1429 L 502.397, 36.3636 L 526.459, 46.6757 L 520.488, 54.6359 L 496.427, 44.1429 z "/>
<path style="fill:rgb(255, 0, 0);fill-opacity:0;fill-rule:evenodd;stroke:rgb(0, 49, 255);stroke-width:1;" d="M 502.397, 36.3636 L 507.644, 29.308 L 531.705, 39.6201 L 526.459, 46.6757 L 502.397, 36.3636 z "/>
</svg>