<?xml version="1.0" encoding="iso-8859-1" standalone="no"?>
<!DOCTYPE svg PUBLIC "-//W3C//DTD SVG 1.0//EN" "http://www.w3.org/TR/2001/REC-SVG-20010904/DTD/svg10.dtd">
<svg xmlns="http://www.w3.org/2000/svg" width="1128" height="800">
<path style="fill:rgb(255, 0, 0);fill-opacity:0;fill-rule:evenodd;stroke:rgb(65, 0, 255);stroke-width:1;" d="M 836.164, 125.662 L 842.192, 117.626 L 858.995, 94.6119 L 867.58, 82.9224 L 911.416, 101.187 L 917.26, 103.562 L 937.169, 111.963 L 940.274, 107.763 L 956.712, 114.521 L 985.023, 75.7991 L 1012.79, 87.4886 L 1008.22, 93.6986 L 1034.34, 104.658 L 1038.72, 98.6301 L 1128.58, 136.256 L 1128.58, 136.256 L 1097.35, 179.178 L 1039.82, 155.068 L 1011.14, 143.014 L 979.909, 185.936 L 951.416, 174.064 L 951.598, 174.064 L 836.164, 125.662 z "/>
<path style="fill:rgb(0, 255, 0);fill-opacity:0;fill-rule:evenodd;stroke:rgb(65, 0, 255);stroke-width:1;" d="M 622.831, 598.721 L 654.612, 555.068 L 657.352, 551.233 L 814.977, 616.804 L 812.603, 620.274 L 796.895, 642.009 L 792.877, 647.671 L 781.735, 663.014 L 777.717, 668.311 L 761.279, 691.142 L 752.694, 702.831 L 651.689, 660.822 L 660.274, 648.95 L 676.712, 626.301 L 662.283, 620.274 L 665.023, 616.256 L 622.831, 598.721 z "/>
<path style="fill:rgb(0, 0, 255);fill-opacity:0;fill-rule:evenodd;stroke:rgb(65, 0, 255);stroke-width:1;" d="M 290.594, 338.265 L 319.635, 298.63 L 319.087, 298.265 L 321.279, 295.342 L 317.26, 293.516 L 349.224, 250.046 L 464.475, 298.995 L 401.096, 385.205 L 290.594, 338.265 z "/>
<path style="fill:rgb(255, 255, 0);fill-opacity:0;fill-rule:evenodd;stroke:rgb(65, 0, 255);stroke-width:1;" d="M 807.671, 556.164 L 811.689, 550.502 L 813.881, 547.763 L 820.822, 538.082 L 857.534, 488.219 L 864.658, 478.539 L 866.484, 475.799 L 870.868, 469.954 L 900.091, 482.374 L 915.068, 488.584 L 935.708, 497.352 L 950.685, 503.562 L 983.196, 517.26 L 956.895, 553.607 L 946.849, 567.306 L 936.073, 582.1 L 920.365, 603.653 L 888.037, 589.954 L 873.059, 583.744 L 851.689, 574.612 L 837.078, 568.402 L 807.671, 556.164 z "/>
<path style="fill:rgb(255, 0, 0);fill-opacity:0;fill-rule:evenodd;stroke:rgb(65, 0, 255);stroke-width:1;" d="M 494.064, 594.521 L 517.991, 561.461 L 512.511, 559.269 L 516.712, 553.425 L 520.365, 548.311 L 525.845, 550.685 L 556.347, 508.676 L 657.352, 551.233 L 654.612, 555.068 L 622.831, 598.721 L 599.817, 630.502 L 595.251, 636.895 L 494.064, 594.521 z "/>
<path style="fill:rgb(0, 255, 0);fill-opacity:0;fill-rule:evenodd;stroke:rgb(65, 0, 255);stroke-width:1;" d="M 604.384, 414.247 L 635.799, 371.142 L 749.954, 419.178 L 687.123, 505.388 L 615.16, 475.251 L 643.47, 436.347 L 646.393, 432.146 L 623.744, 422.466 L 604.384, 414.247 z "/>
<path style="fill:rgb(0, 0, 255);fill-opacity:0;fill-rule:evenodd;stroke:rgb(65, 0, 255);stroke-width:1;" d="M 752.694, 702.831 L 761.279, 691.142 L 777.717, 668.311 L 781.735, 663.014 L 792.877, 647.671 L 796.895, 642.009 L 812.603, 620.274 L 814.977, 616.804 L 888.402, 647.854 L 825.388, 733.699 L 752.694, 702.831 z "/>
<path style="fill:rgb(255, 255, 0);fill-opacity:0;fill-rule:evenodd;stroke:rgb(65, 0, 255);stroke-width:1;" d="M 392.877, 551.598 L 451.689, 470.868 L 457.9, 473.607 L 461.553, 468.676 L 477.078, 475.068 L 473.242, 480.365 L 496.438, 490.046 L 500.457, 484.749 L 515.799, 491.324 L 511.963, 496.621 L 517.808, 499.178 L 509.224, 511.05 L 502.466, 508.128 L 488.584, 527.306 L 495.342, 530.046 L 482.557, 547.58 L 463.196, 574.064 L 454.429, 570.411 L 450.411, 575.89 L 392.877, 551.598 z "/>
<path style="fill:rgb(255, 0, 0);fill-opacity:0;fill-rule:evenodd;stroke:rgb(65, 0, 255);stroke-width:1;" d="M 687.123, 505.388 L 749.954, 419.178 L 810.411, 444.566 L 787.215, 476.712 L 760.913, 512.877 L 747.763, 530.959 L 687.123, 505.388 z "/>
<path style="fill:rgb(0, 255, 0);fill-opacity:0;fill-rule:evenodd;stroke:rgb(65, 0, 255);stroke-width:1;" d="M 747.763, 530.959 L 760.913, 512.877 L 766.758, 515.251 L 793.059, 479.087 L 787.215, 476.712 L 810.411, 444.566 L 870.868, 469.954 L 866.484, 475.799 L 864.658, 478.539 L 857.534, 488.219 L 820.822, 538.082 L 813.881, 547.763 L 811.689, 550.502 L 807.671, 556.164 L 747.763, 530.959 z "/>
<path style="fill:rgb(0, 0, 255);fill-opacity:0;fill-rule:evenodd;stroke:rgb(65, 0, 255);stroke-width:1;" d="M 496.256, 102.1 L 505.388, 89.3151 L 531.324, 66.1187 L 551.05, 48.5845 L 557.26, 43.105 L 576.986, 51.3242 L 594.886, 58.8128 L 607.123, 63.9269 L 628.493, 72.8767 L 623.927, 79.2694 L 614.247, 92.7854 L 612.055, 95.7078 L 607.306, 102.283 L 605.297, 104.84 L 589.954, 126.21 L 584.11, 123.836 L 575.89, 120.365 L 569.498, 129.315 L 557.26, 124.201 L 555.434, 126.758 L 496.256, 102.1 z "/>
<path style="fill:rgb(255, 255, 0);fill-opacity:0;fill-rule:evenodd;stroke:rgb(65, 0, 255);stroke-width:1;" d="M 490.411, 366.393 L 521.826, 323.288 L 635.799, 371.142 L 604.384, 414.247 L 490.411, 366.393 z "/>
<path style="fill:rgb(255, 0, 0);fill-opacity:0;fill-rule:evenodd;stroke:rgb(65, 0, 255);stroke-width:1;" d="M 173.881, 450.046 L 183.927, 436.347 L 213.333, 396.164 L 214.612, 396.712 L 225.205, 382.283 L 226.667, 383.014 L 233.973, 372.968 L 240.183, 375.525 L 261.187, 384.292 L 277.078, 391.05 L 275.616, 392.877 L 269.772, 400.913 L 265.936, 399.452 L 225.388, 454.795 L 227.215, 455.708 L 230.502, 451.324 L 234.155, 450.776 L 239.087, 452.785 L 219.178, 480 L 199.635, 471.781 L 197.078, 470.685 L 177.169, 462.466 L 174.612, 461.187 L 176.073, 459.361 L 180.822, 452.785 L 173.881, 450.046 z "/>
<path style="fill:rgb(0, 255, 0);fill-opacity:0;fill-rule:evenodd;stroke:rgb(65, 0, 255);stroke-width:1;" d="M 867.58, 82.9224 L 898.813, 39.8174 L 985.023, 75.7991 L 956.712, 114.521 L 940.274, 107.763 L 937.169, 111.963 L 917.26, 103.562 L 920.365, 99.1781 L 914.703, 96.8037 L 911.416, 101.187 L 867.58, 82.9224 z "/>
<path style="fill:rgb(0, 0, 255);fill-opacity:0;fill-rule:evenodd;stroke:rgb(65, 0, 255);stroke-width:1;" d="M 899.178, 299.909 L 930.594, 256.804 L 957.808, 268.311 L 1011.87, 290.959 L 980.274, 334.247 L 899.178, 299.909 z "/>
<path style="fill:rgb(255, 255, 0);fill-opacity:0;fill-rule:evenodd;stroke:rgb(65, 0, 255);stroke-width:1;" d="M 964.749, 418.447 L 971.324, 409.68 L 996.347, 375.16 L 1065.21, 404.201 L 1026.85, 456.621 L 981.187, 437.26 L 987.763, 428.128 L 964.749, 418.447 z "/>
<path style="fill:rgb(255, 0, 0);fill-opacity:0;fill-rule:evenodd;stroke:rgb(65, 0, 255);stroke-width:1;" d="M 496.256, 102.1 L 505.388, 89.3151 L 554.338, 109.772 L 565.114, 94.0639 L 572.603, 83.105 L 531.324, 66.1187 L 551.05, 48.5845 L 572.42, 57.7169 L 576.986, 51.3242 L 594.886, 58.8128 L 590.137, 65.2055 L 602.557, 70.3196 L 623.927, 79.2694 L 614.247, 92.7854 L 608.402, 90.2283 L 606.21, 93.1507 L 601.461, 99.9087 L 599.452, 102.466 L 584.11, 123.836 L 575.89, 120.365 L 569.498, 129.315 L 557.26, 124.201 L 555.434, 126.758 L 496.256, 102.1 z "/>
<path style="fill:rgb(0, 255, 0);fill-opacity:0;fill-rule:evenodd;stroke:rgb(65, 0, 255);stroke-width:1;" d="M 625.753, 330.959 L 652.42, 294.247 L 686.941, 308.676 L 688.584, 306.484 L 684.384, 304.658 L 706.119, 274.521 L 699.726, 271.781 L 711.598, 255.525 L 741.735, 268.128 L 741.553, 268.493 L 729.863, 284.566 L 724.201, 282.192 L 702.283, 312.146 L 698.63, 310.685 L 696.804, 313.059 L 709.772, 318.539 L 683.105, 355.068 L 625.753, 330.959 z "/>
<path style="fill:rgb(0, 0, 255);fill-opacity:0;fill-rule:evenodd;stroke:rgb(65, 0, 255);stroke-width:1;" d="M 88.9498, 425.023 L 95.1598, 416.256 L 96.2557, 416.804 L 110.137, 397.808 L 115.982, 400.365 L 127.671, 384.658 L 176.986, 405.479 L 174.064, 409.315 L 175.89, 410.046 L 177.352, 408.219 L 179.361, 407.489 L 184.84, 409.863 L 185.205, 412.237 L 184.292, 413.516 L 186.849, 414.612 L 174.064, 432.146 L 183.927, 436.347 L 173.881, 450.046 L 180.822, 452.785 L 176.073, 459.361 L 174.612, 461.187 L 88.9498, 425.023 z "/>
<path style="fill:rgb(255, 255, 0);fill-opacity:0;fill-rule:evenodd;stroke:rgb(65, 0, 255);stroke-width:1;" d="M 712.694, 164.749 L 720.365, 154.155 L 722.374, 151.598 L 728.584, 143.014 L 730.228, 140.639 L 738.265, 129.863 L 739.909, 127.489 L 744.11, 121.644 L 816.256, 152.146 L 812.237, 157.808 L 810.594, 160 L 794.521, 181.918 L 784.84, 195.068 L 770.594, 189.041 L 765.845, 187.032 L 745.936, 178.63 L 712.694, 164.749 z "/>
<path style="fill:rgb(255, 0, 0);fill-opacity:0;fill-rule:evenodd;stroke:rgb(65, 0, 255);stroke-width:1;" d="M 216.621, 306.849 L 240.913, 273.425 L 246.758, 275.982 L 253.516, 266.667 L 247.671, 264.11 L 253.516, 256.256 L 293.881, 273.242 L 287.854, 281.461 L 308.858, 290.411 L 289.68, 316.712 L 296.986, 319.817 L 285.297, 335.89 L 216.621, 306.849 z "/>
<path style="fill:rgb(0, 255, 0);fill-opacity:0;fill-rule:evenodd;stroke:rgb(65, 0, 255);stroke-width:1;" d="M 173.881, 450.046 L 183.927, 436.347 L 213.333, 396.164 L 214.612, 396.712 L 225.205, 382.283 L 226.667, 383.014 L 230.685, 384.658 L 232.694, 385.571 L 253.881, 394.338 L 255.708, 395.251 L 265.936, 399.452 L 225.388, 454.795 L 216.073, 467.58 L 212.785, 466.301 L 205.845, 463.379 L 180.822, 452.785 L 173.881, 450.046 z "/>
<path style="fill:rgb(0, 0, 255);fill-opacity:0;fill-rule:evenodd;stroke:rgb(65, 0, 255);stroke-width:1;" d="M 676.712, 626.301 L 695.89, 600 L 718.721, 609.498 L 796.895, 642.009 L 792.877, 647.671 L 781.735, 663.014 L 777.717, 668.311 L 699.543, 635.799 L 676.712, 626.301 z "/>
<path style="fill:rgb(255, 255, 0);fill-opacity:0;fill-rule:evenodd;stroke:rgb(65, 0, 255);stroke-width:1;" d="M 622.831, 598.721 L 654.612, 555.068 L 712.329, 578.265 L 695.89, 600 L 676.712, 626.301 L 662.283, 620.274 L 665.023, 616.256 L 622.831, 598.721 z "/>
<path style="fill:rgb(255, 0, 0);fill-opacity:0;fill-rule:evenodd;stroke:rgb(65, 0, 255);stroke-width:1;" d="M 840.183, 275.068 L 871.781, 231.963 L 914.703, 250.046 L 930.594, 256.804 L 899.178, 299.909 L 840.183, 275.068 z "/>
<path style="fill:rgb(0, 255, 0);fill-opacity:0;fill-rule:evenodd;stroke:rgb(65, 0, 255);stroke-width:1;" d="M 927.489, 458.995 L 952.146, 425.205 L 981.187, 437.26 L 1026.85, 456.621 L 1002.19, 490.594 L 927.489, 458.995 z "/>
<path style="fill:rgb(0, 0, 255);fill-opacity:0;fill-rule:evenodd;stroke:rgb(65, 0, 255);stroke-width:1;" d="M 753.242, 326.21 L 764.566, 310.868 L 762.192, 309.772 L 770.411, 298.63 L 767.306, 297.169 L 771.507, 291.507 L 776.986, 284.018 L 787.58, 288.584 L 788.128, 288.037 L 842.922, 311.05 L 813.516, 351.598 L 753.242, 326.21 z "/>
<path style="fill:rgb(255, 255, 0);fill-opacity:0;fill-rule:evenodd;stroke:rgb(65, 0, 255);stroke-width:1;" d="M 850.411, 550.32 L 864.11, 531.872 L 873.242, 519.269 L 886.758, 500.822 L 901.553, 507.032 L 922.557, 515.799 L 937.352, 522.009 L 924.384, 539.909 L 914.155, 553.79 L 901.005, 571.689 L 886.21, 565.479 L 865.205, 556.53 L 850.411, 550.32 z "/>
<path style="fill:rgb(255, 0, 0);fill-opacity:0;fill-rule:evenodd;stroke:rgb(65, 0, 255);stroke-width:1;" d="M 957.808, 268.311 L 989.406, 225.205 L 1046.76, 249.498 L 1020.27, 285.845 L 1015.53, 292.603 L 1011.87, 290.959 L 957.808, 268.311 z "/>
<path style="fill:rgb(0, 255, 0);fill-opacity:0;fill-rule:evenodd;stroke:rgb(65, 0, 255);stroke-width:1;" d="M 784.84, 195.068 L 794.521, 181.918 L 810.594, 160 L 812.237, 157.808 L 816.256, 152.146 L 873.425, 176.256 L 849.498, 209.132 L 842.009, 219.361 L 812.968, 207.123 L 784.84, 195.068 z "/>
<path style="fill:rgb(0, 0, 255);fill-opacity:0;fill-rule:evenodd;stroke:rgb(65, 0, 255);stroke-width:1;" d="M 365.845, 540.274 L 428.128, 454.795 L 455.16, 466.301 L 451.689, 470.868 L 392.877, 551.598 L 365.845, 540.274 z "/>
<path style="fill:rgb(255, 255, 0);fill-opacity:0;fill-rule:evenodd;stroke:rgb(65, 0, 255);stroke-width:1;" d="M 660.274, 648.95 L 676.712, 626.301 L 699.543, 635.799 L 777.717, 668.311 L 761.279, 691.142 L 660.274, 648.95 z "/>
<path style="fill:rgb(255, 0, 0);fill-opacity:0;fill-rule:evenodd;stroke:rgb(65, 0, 255);stroke-width:1;" d="M 695.89, 600 L 712.329, 578.265 L 812.603, 620.274 L 796.895, 642.009 L 718.721, 609.498 L 695.89, 600 z "/>
<path style="fill:rgb(0, 255, 0);fill-opacity:0;fill-rule:evenodd;stroke:rgb(65, 0, 255);stroke-width:1;" d="M 241.826, 449.863 L 251.872, 435.982 L 248.584, 434.521 L 258.813, 420.639 L 256.256, 419.543 L 269.772, 400.913 L 275.616, 392.877 L 321.279, 412.055 L 301.735, 438.721 L 299.178, 437.626 L 288.402, 452.237 L 279.635, 448.584 L 269.954, 461.735 L 241.826, 449.863 z "/>
<path style="fill:rgb(0, 0, 255);fill-opacity:0;fill-rule:evenodd;stroke:rgb(65, 0, 255);stroke-width:1;" d="M 174.612, 461.187 L 176.073, 459.361 L 180.822, 452.785 L 230.685, 384.658 L 232.694, 385.571 L 240.183, 375.525 L 261.187, 384.292 L 253.881, 394.338 L 255.708, 395.251 L 205.845, 463.379 L 201.096, 469.954 L 199.635, 471.781 L 197.078, 470.685 L 177.169, 462.466 L 174.612, 461.187 z "/>
<path style="fill:rgb(255, 255, 0);fill-opacity:0;fill-rule:evenodd;stroke:rgb(65, 0, 255);stroke-width:1;" d="M 841.644, 366.941 L 844.201, 363.653 L 873.425, 323.47 L 921.461, 343.562 L 914.703, 352.877 L 909.954, 359.269 L 906.484, 364.201 L 889.68, 387.215 L 869.406, 378.63 L 858.63, 374.064 L 841.644, 366.941 z "/>
<path style="fill:rgb(255, 0, 0);fill-opacity:0;fill-rule:evenodd;stroke:rgb(65, 0, 255);stroke-width:1;" d="M 103.562, 259.909 L 113.059, 246.758 L 118.539, 249.132 L 133.881, 227.945 L 159.817, 238.904 L 189.406, 251.324 L 177.534, 267.397 L 183.744, 269.954 L 170.594, 288.219 L 103.562, 259.909 z "/>
<path style="fill:rgb(0, 255, 0);fill-opacity:0;fill-rule:evenodd;stroke:rgb(65, 0, 255);stroke-width:1;" d="M 699.543, 635.799 L 718.721, 609.498 L 796.895, 642.009 L 792.877, 647.671 L 781.735, 663.014 L 777.717, 668.311 L 699.543, 635.799 z "/>
<path style="fill:rgb(0, 0, 255);fill-opacity:0;fill-rule:evenodd;stroke:rgb(65, 0, 255);stroke-width:1;" d="M 734.064, 230.32 L 765.845, 187.032 L 770.594, 189.041 L 784.84, 195.068 L 812.968, 207.123 L 799.269, 225.753 L 781.553, 250.411 L 734.064, 230.32 z "/>
<path style="fill:rgb(255, 255, 0);fill-opacity:0;fill-rule:evenodd;stroke:rgb(65, 0, 255);stroke-width:1;" d="M 695.342, 361.279 L 726.393, 318.904 L 773.516, 338.63 L 742.648, 381.187 L 695.342, 361.279 z "/>
<path style="fill:rgb(255, 0, 0);fill-opacity:0;fill-rule:evenodd;stroke:rgb(65, 0, 255);stroke-width:1;" d="M 823.562, 64.2922 L 854.795, 21.1872 L 898.813, 39.8174 L 867.58, 82.9224 L 852.237, 76.347 L 823.562, 64.2922 z "/>
<path style="fill:rgb(0, 255, 0);fill-opacity:0;fill-rule:evenodd;stroke:rgb(65, 0, 255);stroke-width:1;" d="M 891.324, 746.849 L 937.169, 684.201 L 967.306, 696.986 L 921.461, 759.635 L 891.324, 746.849 z "/>
<path style="fill:rgb(0, 0, 255);fill-opacity:0;fill-rule:evenodd;stroke:rgb(65, 0, 255);stroke-width:1;" d="M 914.703, 250.046 L 946.119, 206.941 L 989.406, 225.205 L 957.808, 268.311 L 930.594, 256.804 L 914.703, 250.046 z "/>
<path style="fill:rgb(255, 255, 0);fill-opacity:0;fill-rule:evenodd;stroke:rgb(65, 0, 255);stroke-width:1;" d="M 742.648, 381.187 L 773.516, 338.63 L 817.717, 357.26 L 805.662, 373.881 L 804.201, 373.151 L 802.557, 375.342 L 800.183, 374.429 L 796.164, 379.909 L 800.183, 381.553 L 792.877, 391.416 L 786.849, 399.817 L 742.648, 381.187 z "/>
<path style="fill:rgb(255, 0, 0);fill-opacity:0;fill-rule:evenodd;stroke:rgb(65, 0, 255);stroke-width:1;" d="M 72.8767, 350.137 L 86.3927, 331.872 L 88.7671, 332.785 L 91.3242, 329.498 L 83.2877, 326.027 L 92.7854, 313.242 L 149.772, 337.169 L 129.68, 364.566 L 124.384, 371.689 L 72.8767, 350.137 z "/>
<path style="fill:rgb(0, 255, 0);fill-opacity:0;fill-rule:evenodd;stroke:rgb(65, 0, 255);stroke-width:1;" d="M 630.502, 278.356 L 638.904, 267.032 L 650.046, 251.689 L 662.283, 234.886 L 704.658, 252.968 L 672.877, 296.256 L 630.502, 278.356 z "/>
<path style="fill:rgb(0, 0, 255);fill-opacity:0;fill-rule:evenodd;stroke:rgb(65, 0, 255);stroke-width:1;" d="M 482.557, 547.58 L 495.342, 530.046 L 509.224, 511.05 L 517.808, 499.178 L 521.461, 494.064 L 556.347, 508.676 L 525.845, 550.685 L 520.365, 548.311 L 516.712, 553.425 L 512.511, 559.269 L 508.493, 564.566 L 501.553, 561.644 L 505.023, 557.078 L 482.557, 547.58 z "/>
<path style="fill:rgb(255, 255, 0);fill-opacity:0;fill-rule:evenodd;stroke:rgb(65, 0, 255);stroke-width:1;" d="M 297.534, 444.384 L 301.735, 438.721 L 321.279, 412.055 L 323.105, 409.68 L 369.498, 429.224 L 343.927, 464.11 L 297.534, 444.384 z "/>
<path style="fill:rgb(255, 0, 0);fill-opacity:0;fill-rule:evenodd;stroke:rgb(65, 0, 255);stroke-width:1;" d="M 722.374, 151.598 L 728.584, 143.014 L 730.228, 140.639 L 738.265, 129.863 L 746.484, 132.968 L 758.356, 138.082 L 766.941, 141.553 L 778.813, 146.484 L 787.215, 150.137 L 798.904, 155.068 L 810.594, 160 L 794.521, 181.918 L 722.374, 151.598 z "/>
<path style="fill:rgb(0, 255, 0);fill-opacity:0;fill-rule:evenodd;stroke:rgb(65, 0, 255);stroke-width:1;" d="M 129.68, 364.566 L 149.772, 337.169 L 206.758, 361.096 L 189.224, 385.753 L 187.58, 388.311 L 129.68, 364.566 z "/>
<path style="fill:rgb(0, 0, 255);fill-opacity:0;fill-rule:evenodd;stroke:rgb(65, 0, 255);stroke-width:1;" d="M 680.913, 208.037 L 693.699, 190.502 L 704.658, 175.708 L 712.694, 164.749 L 745.936, 178.63 L 714.155, 221.918 L 680.913, 208.037 z "/>
<path style="fill:rgb(255, 255, 0);fill-opacity:0;fill-rule:evenodd;stroke:rgb(65, 0, 255);stroke-width:1;" d="M 599.817, 630.502 L 622.831, 598.721 L 665.023, 616.256 L 662.283, 620.274 L 642.009, 648.037 L 624.84, 640.913 L 621.005, 646.393 L 605.845, 640.183 L 609.863, 634.703 L 599.817, 630.502 z "/>
<path style="fill:rgb(255, 0, 0);fill-opacity:0;fill-rule:evenodd;stroke:rgb(65, 0, 255);stroke-width:1;" d="M 599.817, 630.502 L 622.831, 598.721 L 665.023, 616.256 L 662.283, 620.274 L 642.009, 648.037 L 624.84, 640.913 L 609.863, 634.703 L 599.817, 630.502 z "/>
<path style="fill:rgb(0, 255, 0);fill-opacity:0;fill-rule:evenodd;stroke:rgb(65, 0, 255);stroke-width:1;" d="M 979.909, 185.936 L 1011.14, 143.014 L 1039.82, 155.068 L 1015.89, 187.945 L 1008.58, 197.991 L 979.909, 185.936 z "/>
<path style="fill:rgb(0, 0, 255);fill-opacity:0;fill-rule:evenodd;stroke:rgb(65, 0, 255);stroke-width:1;" d="M 792.329, 107.215 L 817.9, 71.9635 L 823.562, 64.2922 L 852.237, 76.347 L 842.922, 88.9498 L 826.849, 111.233 L 821.005, 119.269 L 792.329, 107.215 z "/>
<path style="fill:rgb(255, 255, 0);fill-opacity:0;fill-rule:evenodd;stroke:rgb(65, 0, 255);stroke-width:1;" d="M 651.689, 660.822 L 660.274, 648.95 L 761.279, 691.142 L 752.694, 702.831 L 651.689, 660.822 z "/>
<path style="fill:rgb(255, 0, 0);fill-opacity:0;fill-rule:evenodd;stroke:rgb(65, 0, 255);stroke-width:1;" d="M 887.489, 442.192 L 910.685, 410.411 L 916.53, 402.374 L 920.183, 403.836 L 921.826, 401.644 L 946.484, 412.055 L 943.744, 415.708 L 915.799, 454.247 L 887.489, 442.192 z "/>
<path style="fill:rgb(0, 255, 0);fill-opacity:0;fill-rule:evenodd;stroke:rgb(65, 0, 255);stroke-width:1;" d="M 505.388, 89.3151 L 531.324, 66.1187 L 572.603, 83.105 L 565.114, 94.0639 L 554.338, 109.772 L 505.388, 89.3151 z "/>
<path style="fill:rgb(0, 0, 255);fill-opacity:0;fill-rule:evenodd;stroke:rgb(65, 0, 255);stroke-width:1;" d="M 937.169, 400.365 L 965.114, 362.009 L 996.347, 375.16 L 971.324, 409.68 L 964.566, 406.758 L 961.826, 410.594 L 937.169, 400.365 z "/>
<path style="fill:rgb(255, 255, 0);fill-opacity:0;fill-rule:evenodd;stroke:rgb(65, 0, 255);stroke-width:1;" d="M 865.205, 544.11 L 887.854, 512.694 L 919.452, 525.845 L 896.621, 557.26 L 865.205, 544.11 z "/>
<path style="fill:rgb(255, 0, 0);fill-opacity:0;fill-rule:evenodd;stroke:rgb(65, 0, 255);stroke-width:1;" d="M 592.511, 465.571 L 620.822, 426.849 L 643.47, 436.347 L 615.16, 475.251 L 592.511, 465.571 z "/>
<path style="fill:rgb(0, 255, 0);fill-opacity:0;fill-rule:evenodd;stroke:rgb(65, 0, 255);stroke-width:1;" d="M 838.356, 421.553 L 869.406, 378.63 L 889.68, 387.215 L 874.886, 407.489 L 858.447, 429.954 L 838.356, 421.553 z "/>
<path style="fill:rgb(0, 0, 255);fill-opacity:0;fill-rule:evenodd;stroke:rgb(65, 0, 255);stroke-width:1;" d="M 155.982, 225.388 L 177.717, 195.251 L 206.575, 207.306 L 184.84, 237.443 L 155.982, 225.388 z "/>
<path style="fill:rgb(255, 255, 0);fill-opacity:0;fill-rule:evenodd;stroke:rgb(65, 0, 255);stroke-width:1;" d="M 714.155, 221.918 L 745.936, 178.63 L 765.845, 187.032 L 734.064, 230.32 L 714.155, 221.918 z "/>
<path style="fill:rgb(255, 0, 0);fill-opacity:0;fill-rule:evenodd;stroke:rgb(65, 0, 255);stroke-width:1;" d="M 978.447, 628.128 L 996.712, 603.105 L 1030.5, 617.352 L 1012.24, 642.374 L 978.447, 628.128 z "/>
<path style="fill:rgb(0, 255, 0);fill-opacity:0;fill-rule:evenodd;stroke:rgb(65, 0, 255);stroke-width:1;" d="M 819.726, 353.425 L 829.589, 339.726 L 841.826, 345.023 L 844.566, 341.187 L 840.913, 339.726 L 844.932, 334.064 L 848.95, 335.708 L 851.689, 331.872 L 839.087, 326.575 L 848.95, 313.059 L 873.425, 323.47 L 844.201, 363.653 L 819.726, 353.425 z "/>
<path style="fill:rgb(0, 0, 255);fill-opacity:0;fill-rule:evenodd;stroke:rgb(65, 0, 255);stroke-width:1;" d="M 820.822, 538.082 L 857.534, 488.219 L 867.397, 492.237 L 863.562, 497.352 L 853.699, 511.233 L 855.525, 511.963 L 857.534, 512.694 L 859.726, 513.607 L 873.242, 519.269 L 864.11, 531.872 L 850.411, 526.027 L 848.219, 525.114 L 846.21, 524.201 L 844.384, 523.47 L 834.338, 537.169 L 830.502, 542.283 L 820.822, 538.082 z "/>
<path style="fill:rgb(255, 255, 0);fill-opacity:0;fill-rule:evenodd;stroke:rgb(65, 0, 255);stroke-width:1;" d="M 671.233, 118.721 L 686.758, 97.5342 L 723.288, 112.877 L 714.886, 124.384 L 707.032, 121.096 L 707.58, 120.365 L 701.735, 117.991 L 696.804, 124.749 L 710.502, 130.411 L 709.406, 132.055 L 719.635, 136.256 L 717.991, 138.447 L 671.233, 118.721 z "/>
<path style="fill:rgb(255, 0, 0);fill-opacity:0;fill-rule:evenodd;stroke:rgb(65, 0, 255);stroke-width:1;" d="M 459.178, 409.498 L 474.703, 388.128 L 506.849, 401.826 L 499.543, 411.689 L 500.822, 412.237 L 492.42, 423.744 L 459.178, 409.498 z "/>
<path style="fill:rgb(0, 255, 0);fill-opacity:0;fill-rule:evenodd;stroke:rgb(65, 0, 255);stroke-width:1;" d="M 189.224, 385.753 L 206.758, 361.096 L 207.489, 360.548 L 234.703, 371.872 L 233.973, 372.968 L 226.667, 383.014 L 225.205, 382.283 L 214.612, 396.712 L 213.333, 396.164 L 189.224, 385.753 z "/>
<path style="fill:rgb(0, 0, 255);fill-opacity:0;fill-rule:evenodd;stroke:rgb(65, 0, 255);stroke-width:1;" d="M 825.023, 268.676 L 843.47, 243.653 L 856.621, 225.571 L 871.781, 231.963 L 840.183, 275.068 L 825.023, 268.676 z "/>
<path style="fill:rgb(255, 255, 0);fill-opacity:0;fill-rule:evenodd;stroke:rgb(65, 0, 255);stroke-width:1;" d="M 663.014, 130.046 L 671.233, 118.721 L 717.991, 138.447 L 726.758, 142.1 L 728.584, 143.014 L 722.374, 151.598 L 720.365, 154.155 L 663.014, 130.046 z "/>
<path style="fill:rgb(255, 0, 0);fill-opacity:0;fill-rule:evenodd;stroke:rgb(65, 0, 255);stroke-width:1;" d="M 647.306, 151.598 L 655.342, 140.639 L 712.694, 164.749 L 704.658, 175.708 L 682.374, 166.393 L 647.306, 151.598 z "/>
<path style="fill:rgb(0, 255, 0);fill-opacity:0;fill-rule:evenodd;stroke:rgb(65, 0, 255);stroke-width:1;" d="M 140.822, 70.137 L 143.562, 66.3014 L 149.406, 58.0822 L 165.479, 35.7991 L 171.142, 27.9452 L 185.936, 33.9726 L 163.653, 65.2055 L 155.616, 76.347 L 140.822, 70.137 z "/>
<path style="fill:rgb(0, 0, 255);fill-opacity:0;fill-rule:evenodd;stroke:rgb(65, 0, 255);stroke-width:1;" d="M 29.589, 171.507 L 44.7489, 150.502 L 60.4566, 128.95 L 74.7032, 134.977 L 58.2648, 157.626 L 50.411, 168.767 L 44.0183, 177.534 L 29.589, 171.507 z "/>
<path style="fill:rgb(255, 255, 0);fill-opacity:0;fill-rule:evenodd;stroke:rgb(65, 0, 255);stroke-width:1;" d="M 655.342, 140.639 L 663.014, 130.046 L 720.365, 154.155 L 712.694, 164.749 L 655.342, 140.639 z "/>
<path style="fill:rgb(255, 0, 0);fill-opacity:0;fill-rule:evenodd;stroke:rgb(65, 0, 255);stroke-width:1;" d="M 184.11, 88.2192 L 214.429, 45.8447 L 228.858, 51.8721 L 222.466, 61.0046 L 208.767, 80 L 198.539, 94.0639 L 184.11, 88.2192 z "/>
<path style="fill:rgb(0, 255, 0);fill-opacity:0;fill-rule:evenodd;stroke:rgb(65, 0, 255);stroke-width:1;" d="M 169.863, 82.1918 L 177.717, 71.2329 L 185.388, 60.4566 L 200.183, 39.8174 L 214.429, 45.8447 L 184.11, 88.2192 L 169.863, 82.1918 z "/>
<path style="fill:rgb(0, 0, 255);fill-opacity:0;fill-rule:evenodd;stroke:rgb(65, 0, 255);stroke-width:1;" d="M 706.119, 71.2329 L 713.973, 60.4566 L 726.758, 65.9361 L 727.489, 67.2146 L 752.329, 77.8082 L 753.059, 76.895 L 761.644, 80.5479 L 768.402, 83.4703 L 760.548, 94.0639 L 706.119, 71.2329 z "/>
<path style="fill:rgb(255, 255, 0);fill-opacity:0;fill-rule:evenodd;stroke:rgb(65, 0, 255);stroke-width:1;" d="M 922.557, 394.155 L 936.621, 374.977 L 950.502, 355.982 L 965.114, 362.009 L 937.169, 400.365 L 922.557, 394.155 z "/>
<path style="fill:rgb(255, 0, 0);fill-opacity:0;fill-rule:evenodd;stroke:rgb(65, 0, 255);stroke-width:1;" d="M 386.484, 169.132 L 391.963, 161.461 L 395.068, 160.731 L 403.836, 148.311 L 409.498, 140.274 L 408.219, 138.082 L 413.699, 130.411 L 430.868, 137.352 L 425.388, 145.023 L 422.1, 145.388 L 407.489, 166.21 L 408.402, 168.402 L 402.922, 175.89 L 386.484, 169.132 z "/>
<path style="fill:rgb(0, 255, 0);fill-opacity:0;fill-rule:evenodd;stroke:rgb(65, 0, 255);stroke-width:1;" d="M 821.005, 119.269 L 826.849, 111.233 L 829.589, 110.137 L 836.164, 101.187 L 838.721, 102.283 L 842.557, 96.8037 L 840.183, 95.8904 L 844.018, 90.411 L 842.922, 88.9498 L 852.237, 76.347 L 867.58, 82.9224 L 858.995, 94.6119 L 855.525, 95.3425 L 851.689, 100.822 L 848.95, 99.5434 L 844.932, 105.205 L 847.671, 106.301 L 841.096, 115.068 L 842.192, 117.626 L 836.164, 125.662 L 821.005, 119.269 z "/>
<path style="fill:rgb(0, 0, 255);fill-opacity:0;fill-rule:evenodd;stroke:rgb(65, 0, 255);stroke-width:1;" d="M 803.653, 259.726 L 821.187, 234.521 L 843.47, 243.653 L 825.023, 268.676 L 803.653, 259.726 z "/>
<path style="fill:rgb(255, 255, 0);fill-opacity:0;fill-rule:evenodd;stroke:rgb(65, 0, 255);stroke-width:1;" d="M 781.553, 250.411 L 799.269, 225.753 L 821.187, 234.521 L 803.653, 259.726 L 781.553, 250.411 z "/>
<path style="fill:rgb(255, 0, 0);fill-opacity:0;fill-rule:evenodd;stroke:rgb(65, 0, 255);stroke-width:1;" d="M 654.612, 555.068 L 657.352, 551.233 L 814.977, 616.804 L 812.603, 620.274 L 712.329, 578.265 L 654.612, 555.068 z "/>
<path style="fill:rgb(0, 255, 0);fill-opacity:0;fill-rule:evenodd;stroke:rgb(65, 0, 255);stroke-width:1;" d="M 492.42, 423.744 L 500.822, 412.237 L 499.543, 411.689 L 506.849, 401.826 L 532.237, 412.603 L 516.53, 433.973 L 492.42, 423.744 z "/>
<path style="fill:rgb(0, 0, 255);fill-opacity:0;fill-rule:evenodd;stroke:rgb(65, 0, 255);stroke-width:1;" d="M 722.374, 306.849 L 747.763, 271.781 L 762.192, 277.808 L 755.799, 286.758 L 740.457, 307.763 L 736.621, 313.059 L 733.333, 311.598 L 730.776, 315.068 L 723.836, 312.146 L 726.393, 308.676 L 722.374, 306.849 z "/>
<path style="fill:rgb(255, 255, 0);fill-opacity:0;fill-rule:evenodd;stroke:rgb(65, 0, 255);stroke-width:1;" d="M 284.749, 470.137 L 289.498, 463.744 L 331.324, 481.279 L 320.548, 496.256 L 294.977, 485.479 L 295.525, 484.749 L 290.228, 482.557 L 292.055, 480 L 297.352, 482.192 L 301.187, 477.078 L 284.749, 470.137 z "/>
<path style="fill:rgb(255, 0, 0);fill-opacity:0;fill-rule:evenodd;stroke:rgb(65, 0, 255);stroke-width:1;" d="M 907.763, 387.945 L 915.434, 377.534 L 917.808, 378.63 L 922.74, 371.872 L 920.183, 370.959 L 924.384, 365.297 L 926.21, 365.297 L 929.863, 360.365 L 928.95, 358.904 L 935.708, 349.589 L 950.502, 355.982 L 936.621, 374.977 L 933.516, 373.699 L 926.941, 382.648 L 928.402, 383.196 L 920.913, 393.425 L 907.763, 387.945 z "/>
<path style="fill:rgb(0, 255, 0);fill-opacity:0;fill-rule:evenodd;stroke:rgb(65, 0, 255);stroke-width:1;" d="M 861.005, 218.995 L 863.927, 215.16 L 868.493, 208.767 L 871.416, 208.402 L 881.826, 194.155 L 880.548, 192.329 L 887.854, 182.283 L 903.014, 188.676 L 895.525, 198.904 L 892.968, 199.452 L 887.671, 206.758 L 886.575, 206.393 L 884.384, 209.315 L 885.479, 209.68 L 882.557, 213.699 L 883.653, 215.16 L 876.347, 225.388 L 861.005, 218.995 z "/>
<path style="fill:rgb(0, 0, 255);fill-opacity:0;fill-rule:evenodd;stroke:rgb(65, 0, 255);stroke-width:1;" d="M 64.6575, 175.16 L 64.8402, 174.795 L 72.8767, 163.836 L 89.3151, 141.005 L 103.927, 147.215 L 79.2694, 181.187 L 64.6575, 175.16 z "/>
<path style="fill:rgb(255, 255, 0);fill-opacity:0;fill-rule:evenodd;stroke:rgb(65, 0, 255);stroke-width:1;" d="M 801.279, 405.845 L 807.123, 397.808 L 807.306, 397.626 L 809.315, 397.443 L 818.63, 384.658 L 821.187, 384.475 L 826.119, 377.717 L 822.831, 376.256 L 829.224, 367.489 L 843.288, 373.516 L 837.26, 381.735 L 834.521, 382.283 L 830.137, 388.493 L 830.868, 390.32 L 821.735, 402.74 L 822.283, 404.201 L 816.438, 412.237 L 801.279, 405.845 z "/>
<path style="fill:rgb(255, 0, 0);fill-opacity:0;fill-rule:evenodd;stroke:rgb(65, 0, 255);stroke-width:1;" d="M 894.612, 382.466 L 901.553, 372.785 L 903.927, 372.237 L 909.041, 365.297 L 906.484, 364.201 L 909.954, 359.269 L 912.146, 358.904 L 916.164, 353.425 L 914.703, 352.877 L 921.461, 343.562 L 935.708, 349.589 L 928.95, 358.904 L 926.575, 359.452 L 923.288, 363.836 L 924.384, 365.297 L 920.183, 370.959 L 917.991, 370.046 L 913.242, 376.621 L 915.434, 377.534 L 907.763, 387.945 L 894.612, 382.466 z "/>
<path style="fill:rgb(0, 255, 0);fill-opacity:0;fill-rule:evenodd;stroke:rgb(65, 0, 255);stroke-width:1;" d="M 598.356, 321.279 L 604.566, 312.877 L 606.575, 312.329 L 613.151, 303.196 L 615.16, 302.648 L 617.9, 298.813 L 616.804, 298.265 L 621.553, 291.689 L 620.457, 291.142 L 627.032, 282.009 L 641.279, 288.037 L 635.251, 296.256 L 633.425, 296.804 L 629.954, 301.553 L 625.753, 302.648 L 624.11, 305.023 L 624.292, 308.128 L 617.9, 317.078 L 618.63, 318.721 L 612.42, 327.306 L 598.356, 321.279 z "/>
<path style="fill:rgb(0, 0, 255);fill-opacity:0;fill-rule:evenodd;stroke:rgb(65, 0, 255);stroke-width:1;" d="M 51.1416, 349.224 L 80.9132, 308.311 L 92.7854, 313.242 L 83.2877, 326.027 L 63.0137, 354.155 L 51.1416, 349.224 z "/>
<path style="fill:rgb(255, 255, 0);fill-opacity:0;fill-rule:evenodd;stroke:rgb(65, 0, 255);stroke-width:1;" d="M 431.598, 187.945 L 436.895, 180.639 L 440, 179.909 L 443.105, 175.525 L 446.575, 174.064 L 448.95, 170.594 L 448.219, 167.671 L 454.247, 159.269 L 454.612, 156.712 L 459.909, 149.589 L 474.521, 155.434 L 468.676, 163.836 L 466.484, 163.836 L 460.457, 172.42 L 457.717, 172.785 L 454.247, 177.717 L 455.16, 179.909 L 451.324, 185.023 L 452.42, 186.484 L 446.941, 194.155 L 431.598, 187.945 z "/>
<path style="fill:rgb(255, 0, 0);fill-opacity:0;fill-rule:evenodd;stroke:rgb(65, 0, 255);stroke-width:1;" d="M 80, 102.283 L 88.0365, 91.6895 L 89.6804, 89.3151 L 92.7854, 90.5936 L 94.6119, 88.0365 L 91.6895, 86.758 L 98.0822, 77.8082 L 100.822, 79.0868 L 103.014, 75.9817 L 99.726, 74.7032 L 103.014, 70.137 L 105.936, 71.4155 L 110.137, 65.7534 L 119.817, 69.7717 L 115.616, 75.4338 L 117.443, 76.347 L 113.973, 80.9132 L 111.598, 79.8174 L 109.406, 82.7397 L 112.146, 83.8356 L 105.571, 92.7854 L 102.648, 91.5068 L 100.822, 94.0639 L 103.744, 95.3425 L 94.0639, 108.311 L 80, 102.283 z "/>
<path style="fill:rgb(0, 255, 0);fill-opacity:0;fill-rule:evenodd;stroke:rgb(65, 0, 255);stroke-width:1;" d="M 713.973, 60.4566 L 722.192, 49.1324 L 734.977, 54.4292 L 735.342, 56.621 L 754.886, 64.8402 L 757.26, 63.9269 L 761.096, 65.5708 L 769.863, 69.2237 L 761.644, 80.5479 L 753.059, 76.895 L 749.041, 75.2511 L 748.493, 73.0594 L 729.315, 65.0228 L 726.758, 65.9361 L 713.973, 60.4566 z "/>
<path style="fill:rgb(0, 0, 255);fill-opacity:0;fill-rule:evenodd;stroke:rgb(65, 0, 255);stroke-width:1;" d="M 786.849, 399.817 L 792.877, 391.416 L 794.703, 390.685 L 803.288, 378.995 L 805.662, 378.082 L 810.046, 372.055 L 808.584, 371.324 L 815.525, 361.826 L 829.224, 367.489 L 822.831, 376.256 L 819.543, 374.977 L 814.612, 381.735 L 815.89, 383.562 L 806.941, 395.799 L 807.306, 397.626 L 807.123, 397.808 L 801.279, 405.845 L 786.849, 399.817 z "/>
<path style="fill:rgb(255, 255, 0);fill-opacity:0;fill-rule:evenodd;stroke:rgb(65, 0, 255);stroke-width:1;" d="M 596.53, 221.005 L 604.384, 210.411 L 644.384, 227.215 L 631.781, 244.384 L 623.196, 240.913 L 627.945, 234.338 L 621.37, 231.416 L 617.717, 229.954 L 618.447, 228.676 L 613.151, 226.484 L 610.594, 226.849 L 596.53, 221.005 z "/>
<path style="fill:rgb(255, 0, 0);fill-opacity:0;fill-rule:evenodd;stroke:rgb(65, 0, 255);stroke-width:1;" d="M 556.895, 275.068 L 564.749, 264.475 L 577.9, 270.137 L 579.726, 270.868 L 579.178, 271.598 L 596.895, 279.269 L 597.626, 278.356 L 602.374, 280.365 L 612.237, 284.566 L 604.566, 295.16 L 590.868, 289.498 L 589.589, 288.95 L 590.32, 287.854 L 573.881, 280.913 L 573.151, 282.009 L 556.895, 275.068 z "/>
<path style="fill:rgb(0, 255, 0);fill-opacity:0;fill-rule:evenodd;stroke:rgb(65, 0, 255);stroke-width:1;" d="M 849.498, 209.132 L 873.425, 176.256 L 887.854, 182.283 L 880.548, 192.329 L 868.493, 208.767 L 863.927, 215.16 L 849.498, 209.132 z "/>
<path style="fill:rgb(0, 0, 255);fill-opacity:0;fill-rule:evenodd;stroke:rgb(65, 0, 255);stroke-width:1;" d="M 129.132, 60.4566 L 134.064, 53.6986 L 134.795, 52.6027 L 137.169, 52.0548 L 141.37, 46.0274 L 143.379, 46.758 L 146.484, 42.3744 L 146.849, 41.8265 L 145.023, 41.0959 L 151.598, 31.7808 L 150.868, 30.3196 L 156.895, 21.9178 L 171.142, 27.9452 L 165.479, 35.7991 L 163.47, 36.1644 L 156.712, 45.8447 L 154.521, 44.9315 L 150.868, 49.863 L 153.059, 50.7763 L 148.676, 56.8037 L 149.406, 58.0822 L 143.562, 66.3014 L 129.132, 60.4566 z "/>
<path style="fill:rgb(255, 255, 0);fill-opacity:0;fill-rule:evenodd;stroke:rgb(65, 0, 255);stroke-width:1;" d="M 564.749, 264.475 L 572.603, 253.699 L 586.301, 259.543 L 584.84, 261.553 L 587.763, 262.831 L 589.224, 260.639 L 601.461, 265.936 L 602.557, 266.484 L 600.548, 269.224 L 608.037, 272.329 L 609.498, 270.502 L 622.283, 275.799 L 614.977, 285.662 L 612.237, 284.566 L 602.374, 280.365 L 604.749, 277.26 L 597.078, 273.79 L 594.703, 277.078 L 581.187, 271.416 L 583.014, 268.858 L 579.726, 267.58 L 577.9, 270.137 L 564.749, 264.475 z "/>
<path style="fill:rgb(255, 0, 0);fill-opacity:0;fill-rule:evenodd;stroke:rgb(65, 0, 255);stroke-width:1;" d="M 94.0639, 108.311 L 103.744, 95.3425 L 106.667, 96.4384 L 108.493, 94.0639 L 105.571, 92.7854 L 112.146, 83.8356 L 114.703, 84.9315 L 116.712, 82.0091 L 113.973, 80.9132 L 117.443, 76.347 L 120.548, 77.6256 L 124.566, 72.1461 L 134.064, 76.1644 L 130.046, 81.8265 L 131.507, 82.3744 L 128.219, 86.758 L 124.749, 85.2968 L 122.374, 88.5845 L 126.027, 90.0457 L 121.644, 96.0731 L 120, 98.2648 L 116.895, 96.9863 L 114.703, 99.9087 L 117.808, 101.187 L 108.128, 114.338 L 94.0639, 108.311 z "/>
<path style="fill:rgb(0, 255, 0);fill-opacity:0;fill-rule:evenodd;stroke:rgb(65, 0, 255);stroke-width:1;" d="M 1003.47, 593.973 L 1010.96, 583.562 L 1056.62, 602.922 L 1049.13, 613.151 L 1037.26, 608.037 L 1003.47, 593.973 z "/>
<path style="fill:rgb(0, 0, 255);fill-opacity:0;fill-rule:evenodd;stroke:rgb(65, 0, 255);stroke-width:1;" d="M 827.397, 416.986 L 835.434, 405.845 L 839.087, 400.913 L 843.288, 394.886 L 846.941, 389.954 L 854.429, 379.726 L 858.63, 374.064 L 869.406, 378.63 L 838.356, 421.553 L 827.397, 416.986 z "/>
<path style="fill:rgb(255, 255, 0);fill-opacity:0;fill-rule:evenodd;stroke:rgb(65, 0, 255);stroke-width:1;" d="M 734.429, 315.982 L 736.621, 313.059 L 740.457, 307.763 L 742.466, 307.397 L 746.667, 301.553 L 748.858, 302.648 L 752.694, 297.352 L 750.32, 296.438 L 757.078, 287.306 L 755.799, 286.758 L 762.192, 277.808 L 776.986, 284.018 L 771.507, 291.507 L 768.767, 291.872 L 762.009, 301.187 L 759.817, 300.091 L 755.799, 305.571 L 758.174, 306.484 L 753.79, 312.329 L 754.521, 314.155 L 748.858, 322.009 L 734.429, 315.982 z "/>
<path style="fill:rgb(255, 0, 0);fill-opacity:0;fill-rule:evenodd;stroke:rgb(65, 0, 255);stroke-width:1;" d="M 417.717, 182.1 L 423.379, 174.429 L 424.84, 174.247 L 428.858, 168.95 L 432.511, 167.306 L 434.338, 164.932 L 433.79, 162.009 L 440.183, 153.242 L 440, 152.146 L 446.027, 143.562 L 459.909, 149.589 L 454.612, 156.712 L 451.142, 158.539 L 445.479, 166.393 L 442.74, 167.306 L 439.635, 171.689 L 440, 173.881 L 436.164, 178.995 L 436.895, 180.639 L 431.598, 187.945 L 417.717, 182.1 z "/>
<path style="fill:rgb(0, 255, 0);fill-opacity:0;fill-rule:evenodd;stroke:rgb(65, 0, 255);stroke-width:1;" d="M 914.155, 553.79 L 924.384, 539.909 L 930.959, 542.648 L 936.073, 544.84 L 943.379, 547.763 L 950.32, 550.685 L 956.895, 553.607 L 946.849, 567.306 L 939.909, 564.566 L 932.968, 561.644 L 925.845, 558.721 L 920.731, 556.53 L 914.155, 553.79 z "/>
<path style="fill:rgb(0, 0, 255);fill-opacity:0;fill-rule:evenodd;stroke:rgb(65, 0, 255);stroke-width:1;" d="M 873.425, 436.347 L 889.68, 413.881 L 896.438, 404.566 L 910.685, 410.411 L 887.489, 442.192 L 873.425, 436.347 z "/>
<path style="fill:rgb(255, 255, 0);fill-opacity:0;fill-rule:evenodd;stroke:rgb(65, 0, 255);stroke-width:1;" d="M 915.799, 454.247 L 943.744, 415.708 L 955.434, 420.639 L 952.146, 425.205 L 927.489, 458.995 L 915.799, 454.247 z "/>
<path style="fill:rgb(255, 0, 0);fill-opacity:0;fill-rule:evenodd;stroke:rgb(65, 0, 255);stroke-width:1;" d="M 918.721, 766.758 L 920.365, 764.201 L 919.087, 763.653 L 927.854, 751.416 L 958.539, 764.018 L 948.128, 778.813 L 918.721, 766.758 z "/>
<path style="fill:rgb(0, 255, 0);fill-opacity:0;fill-rule:evenodd;stroke:rgb(65, 0, 255);stroke-width:1;" d="M 1012.24, 642.374 L 1030.5, 617.352 L 1037.26, 608.037 L 1049.13, 613.151 L 1050.05, 613.516 L 1025.02, 647.854 L 1012.24, 642.374 z "/>
<path style="fill:rgb(0, 0, 255);fill-opacity:0;fill-rule:evenodd;stroke:rgb(65, 0, 255);stroke-width:1;" d="M 226.667, 383.014 L 233.973, 372.968 L 240.183, 375.525 L 261.187, 384.292 L 277.078, 391.05 L 275.616, 392.877 L 269.772, 400.913 L 265.936, 399.452 L 255.708, 395.251 L 253.881, 394.338 L 232.694, 385.571 L 230.685, 384.658 L 226.667, 383.014 z "/>
<path style="fill:rgb(255, 255, 0);fill-opacity:0;fill-rule:evenodd;stroke:rgb(65, 0, 255);stroke-width:1;" d="M 722.192, 49.1324 L 730.228, 38.3562 L 768.95, 54.6119 L 761.096, 65.5708 L 757.26, 63.9269 L 734.977, 54.4292 L 722.192, 49.1324 z "/>
<path style="fill:rgb(255, 0, 0);fill-opacity:0;fill-rule:evenodd;stroke:rgb(65, 0, 255);stroke-width:1;" d="M 963.653, 706.301 L 968.95, 698.995 L 967.306, 698.265 L 970.776, 693.333 L 972.055, 693.881 L 973.699, 691.507 L 1002.56, 703.744 L 992.146, 718.174 L 963.653, 706.301 z "/>
<path style="fill:rgb(0, 255, 0);fill-opacity:0;fill-rule:evenodd;stroke:rgb(65, 0, 255);stroke-width:1;" d="M 163.653, 65.2055 L 185.936, 33.9726 L 200.183, 39.8174 L 185.388, 60.4566 L 184.11, 59.726 L 182.466, 62.1005 L 180.639, 61.1872 L 174.429, 69.7717 L 163.653, 65.2055 z "/>
<path style="fill:rgb(0, 0, 255);fill-opacity:0;fill-rule:evenodd;stroke:rgb(65, 0, 255);stroke-width:1;" d="M 291.324, 453.151 L 297.534, 444.384 L 343.927, 464.11 L 337.717, 472.694 L 295.89, 454.977 L 291.324, 453.151 z "/>
<path style="fill:rgb(255, 255, 0);fill-opacity:0;fill-rule:evenodd;stroke:rgb(65, 0, 255);stroke-width:1;" d="M 639.452, 162.192 L 647.306, 151.598 L 682.374, 166.393 L 674.521, 176.986 L 666.849, 173.699 L 639.452, 162.192 z "/>
<path style="fill:rgb(255, 0, 0);fill-opacity:0;fill-rule:evenodd;stroke:rgb(65, 0, 255);stroke-width:1;" d="M 199.635, 471.781 L 201.096, 469.954 L 205.845, 463.379 L 212.785, 466.301 L 221.918, 453.516 L 225.388, 454.795 L 227.215, 455.708 L 230.502, 451.324 L 234.155, 450.776 L 239.087, 452.785 L 219.178, 480 L 199.635, 471.781 z "/>
<path style="fill:rgb(0, 255, 0);fill-opacity:0;fill-rule:evenodd;stroke:rgb(65, 0, 255);stroke-width:1;" d="M 289.498, 463.744 L 295.89, 454.977 L 337.717, 472.694 L 331.324, 481.279 L 289.498, 463.744 z "/>
<path style="fill:rgb(0, 0, 255);fill-opacity:0;fill-rule:evenodd;stroke:rgb(65, 0, 255);stroke-width:1;" d="M 816.438, 412.237 L 822.283, 404.201 L 824.11, 403.836 L 844.566, 375.708 L 854.429, 379.726 L 846.941, 389.954 L 844.566, 390.32 L 842.192, 393.425 L 843.288, 394.886 L 839.087, 400.913 L 836.712, 400.913 L 834.338, 404.201 L 835.434, 405.845 L 827.397, 416.986 L 816.438, 412.237 z "/>
<path style="fill:rgb(255, 255, 0);fill-opacity:0;fill-rule:evenodd;stroke:rgb(65, 0, 255);stroke-width:1;" d="M 226.667, 81.4612 L 237.078, 67.032 L 243.653, 57.7169 L 258.447, 63.7443 L 241.279, 87.6712 L 226.667, 81.4612 z "/>
<path style="fill:rgb(255, 0, 0);fill-opacity:0;fill-rule:evenodd;stroke:rgb(65, 0, 255);stroke-width:1;" d="M 333.881, 299.726 L 350.685, 276.895 L 365.845, 283.288 L 349.041, 306.119 L 333.881, 299.726 z "/>
<path style="fill:rgb(0, 255, 0);fill-opacity:0;fill-rule:evenodd;stroke:rgb(65, 0, 255);stroke-width:1;" d="M 739.909, 127.489 L 744.11, 121.644 L 816.256, 152.146 L 812.237, 157.808 L 800.548, 152.877 L 801.826, 150.868 L 790.137, 145.936 L 788.676, 147.945 L 780.274, 144.292 L 781.735, 142.466 L 770.046, 137.534 L 768.584, 139.361 L 760, 135.89 L 761.279, 133.881 L 749.589, 128.95 L 748.128, 130.959 L 739.909, 127.489 z "/>
<path style="fill:rgb(0, 0, 255);fill-opacity:0;fill-rule:evenodd;stroke:rgb(65, 0, 255);stroke-width:1;" d="M 858.447, 429.954 L 874.886, 407.489 L 889.68, 413.881 L 873.425, 436.347 L 858.447, 429.954 z "/>
<path style="fill:rgb(255, 255, 0);fill-opacity:0;fill-rule:evenodd;stroke:rgb(65, 0, 255);stroke-width:1;" d="M 601.461, 265.936 L 609.68, 254.612 L 638.904, 267.032 L 630.502, 278.356 L 602.557, 266.484 L 601.461, 265.936 z "/>
<path style="fill:rgb(255, 0, 0);fill-opacity:0;fill-rule:evenodd;stroke:rgb(65, 0, 255);stroke-width:1;" d="M 671.598, 181.005 L 674.521, 176.986 L 682.374, 166.393 L 704.658, 175.708 L 693.699, 190.502 L 682.374, 185.753 L 671.598, 181.005 z "/>
<path style="fill:rgb(0, 255, 0);fill-opacity:0;fill-rule:evenodd;stroke:rgb(65, 0, 255);stroke-width:1;" d="M 572.603, 253.699 L 580.822, 242.374 L 609.68, 254.612 L 601.461, 265.936 L 589.224, 260.639 L 586.301, 259.543 L 572.603, 253.699 z "/>
<path style="fill:rgb(0, 0, 255);fill-opacity:0;fill-rule:evenodd;stroke:rgb(65, 0, 255);stroke-width:1;" d="M 58.2648, 157.626 L 74.7032, 134.977 L 89.3151, 141.005 L 72.8767, 163.836 L 58.2648, 157.626 z "/>
<path style="fill:rgb(255, 255, 0);fill-opacity:0;fill-rule:evenodd;stroke:rgb(65, 0, 255);stroke-width:1;" d="M 888.037, 589.954 L 890.046, 587.032 L 896.621, 589.772 L 908.493, 594.703 L 915.434, 597.808 L 939.909, 564.566 L 946.849, 567.306 L 920.365, 603.653 L 888.037, 589.954 z "/>
<path style="fill:rgb(255, 0, 0);fill-opacity:0;fill-rule:evenodd;stroke:rgb(65, 0, 255);stroke-width:1;" d="M 948.493, 506.849 L 950.685, 503.562 L 983.196, 517.26 L 956.895, 553.607 L 950.32, 550.685 L 974.064, 517.26 L 966.941, 514.338 L 955.068, 509.406 L 948.493, 506.849 z "/>
<path style="fill:rgb(0, 255, 0);fill-opacity:0;fill-rule:evenodd;stroke:rgb(65, 0, 255);stroke-width:1;" d="M 208.767, 80 L 222.466, 61.0046 L 237.078, 67.032 L 226.667, 81.4612 L 218.63, 92.6027 L 211.142, 89.4977 L 215.89, 82.9224 L 208.767, 80 z "/>
<path style="fill:rgb(0, 0, 255);fill-opacity:0;fill-rule:evenodd;stroke:rgb(65, 0, 255);stroke-width:1;" d="M 996.712, 603.105 L 1003.47, 593.973 L 1037.26, 608.037 L 1030.5, 617.352 L 996.712, 603.105 z "/>
<path style="fill:rgb(255, 255, 0);fill-opacity:0;fill-rule:evenodd;stroke:rgb(65, 0, 255);stroke-width:1;" d="M 580.822, 242.374 L 588.676, 231.598 L 602.009, 237.26 L 606.027, 238.904 L 613.516, 242.192 L 617.534, 243.836 L 609.68, 254.612 L 580.822, 242.374 z "/>
<path style="fill:rgb(255, 0, 0);fill-opacity:0;fill-rule:evenodd;stroke:rgb(65, 0, 255);stroke-width:1;" d="M 549.406, 285.297 L 556.895, 275.068 L 573.151, 282.009 L 586.667, 287.671 L 579.178, 298.082 L 571.142, 294.612 L 549.406, 285.297 z "/>
<path style="fill:rgb(0, 255, 0);fill-opacity:0;fill-rule:evenodd;stroke:rgb(65, 0, 255);stroke-width:1;" d="M 415.525, 159.087 L 425.388, 145.023 L 430.868, 137.352 L 446.027, 143.562 L 440, 152.146 L 438.721, 151.598 L 429.589, 164.749 L 415.525, 159.087 z "/>
<path style="fill:rgb(0, 0, 255);fill-opacity:0;fill-rule:evenodd;stroke:rgb(65, 0, 255);stroke-width:1;" d="M 623.744, 183.744 L 631.781, 172.785 L 658.995, 184.292 L 650.959, 195.251 L 623.744, 183.744 z "/>
<path style="fill:rgb(255, 255, 0);fill-opacity:0;fill-rule:evenodd;stroke:rgb(65, 0, 255);stroke-width:1;" d="M 631.781, 172.785 L 639.452, 162.192 L 666.849, 173.699 L 658.995, 184.292 L 631.781, 172.785 z "/>
<path style="fill:rgb(255, 0, 0);fill-opacity:0;fill-rule:evenodd;stroke:rgb(65, 0, 255);stroke-width:1;" d="M 287.123, 496.256 L 288.95, 493.699 L 294.977, 485.479 L 320.548, 496.256 L 312.511, 507.032 L 287.123, 496.256 z "/>
<path style="fill:rgb(0, 255, 0);fill-opacity:0;fill-rule:evenodd;stroke:rgb(65, 0, 255);stroke-width:1;" d="M 886.758, 500.822 L 889.132, 497.169 L 894.612, 490.046 L 897.169, 486.575 L 900.091, 482.374 L 915.068, 488.584 L 909.224, 496.621 L 905.936, 501.005 L 901.553, 507.032 L 886.758, 500.822 z "/>
<path style="fill:rgb(0, 0, 255);fill-opacity:0;fill-rule:evenodd;stroke:rgb(65, 0, 255);stroke-width:1;" d="M 922.557, 515.799 L 926.941, 509.954 L 930.228, 505.571 L 935.708, 497.352 L 950.685, 503.562 L 948.493, 506.849 L 946.484, 509.589 L 940.457, 517.808 L 937.352, 522.009 L 922.557, 515.799 z "/>
<path style="fill:rgb(255, 255, 0);fill-opacity:0;fill-rule:evenodd;stroke:rgb(65, 0, 255);stroke-width:1;" d="M 873.059, 583.744 L 878.539, 575.89 L 881.826, 571.507 L 886.21, 565.479 L 901.005, 571.689 L 898.082, 575.89 L 892.237, 584.11 L 890.046, 587.032 L 888.037, 589.954 L 873.059, 583.744 z "/>
<path style="fill:rgb(255, 0, 0);fill-opacity:0;fill-rule:evenodd;stroke:rgb(65, 0, 255);stroke-width:1;" d="M 857.534, 488.219 L 864.658, 478.539 L 870.685, 481.096 L 871.598, 479.817 L 877.808, 482.374 L 880, 479.452 L 890.959, 484.018 L 888.402, 487.489 L 894.612, 490.046 L 889.132, 497.169 L 888.037, 494.795 L 874.521, 489.132 L 871.781, 489.863 L 865.571, 498.082 L 863.562, 497.352 L 867.397, 492.237 L 857.534, 488.219 z "/>
<path style="fill:rgb(0, 255, 0);fill-opacity:0;fill-rule:evenodd;stroke:rgb(65, 0, 255);stroke-width:1;" d="M 813.881, 547.763 L 820.822, 538.082 L 830.502, 542.283 L 834.338, 537.169 L 836.164, 538.082 L 830.32, 546.484 L 830.868, 548.676 L 844.384, 554.338 L 847.671, 553.607 L 842.557, 560.913 L 836.347, 558.356 L 833.79, 561.826 L 822.831, 557.26 L 825.023, 554.155 L 818.813, 551.598 L 819.726, 550.32 L 813.881, 547.763 z "/>
<path style="fill:rgb(0, 0, 255);fill-opacity:0;fill-rule:evenodd;stroke:rgb(65, 0, 255);stroke-width:1;" d="M 837.078, 568.402 L 840, 564.384 L 842.557, 560.913 L 847.671, 553.607 L 850.411, 550.32 L 865.205, 556.53 L 860.822, 562.557 L 857.534, 566.941 L 851.689, 574.612 L 837.078, 568.402 z "/>
<path style="fill:rgb(255, 255, 0);fill-opacity:0;fill-rule:evenodd;stroke:rgb(65, 0, 255);stroke-width:1;" d="M 259.726, 481.279 L 266.119, 472.511 L 290.228, 482.557 L 295.525, 484.749 L 294.977, 485.479 L 288.95, 493.699 L 259.726, 481.279 z "/>
<path style="fill:rgb(255, 0, 0);fill-opacity:0;fill-rule:evenodd;stroke:rgb(65, 0, 255);stroke-width:1;" d="M 570.959, 309.224 L 578.63, 298.813 L 582.831, 300.639 L 583.014, 300.091 L 597.626, 306.119 L 602.922, 308.493 L 594.886, 319.452 L 570.959, 309.224 z "/>
<path style="fill:rgb(0, 255, 0);fill-opacity:0;fill-rule:evenodd;stroke:rgb(65, 0, 255);stroke-width:1;" d="M 540.822, 296.986 L 549.406, 285.297 L 571.142, 294.612 L 562.74, 306.301 L 540.822, 296.986 z "/>
<path style="fill:rgb(0, 0, 255);fill-opacity:0;fill-rule:evenodd;stroke:rgb(65, 0, 255);stroke-width:1;" d="M 588.676, 231.598 L 596.53, 221.005 L 610.594, 226.849 L 608.95, 229.224 L 611.872, 230.502 L 613.516, 228.128 L 617.717, 229.954 L 621.37, 231.416 L 613.516, 242.192 L 606.027, 238.904 L 607.671, 236.895 L 603.47, 235.068 L 602.009, 237.26 L 588.676, 231.598 z "/>
<path style="fill:rgb(255, 255, 0);fill-opacity:0;fill-rule:evenodd;stroke:rgb(65, 0, 255);stroke-width:1;" d="M 108.128, 114.338 L 117.808, 101.187 L 120, 98.2648 L 121.644, 96.0731 L 134.977, 101.735 L 121.461, 120 L 108.128, 114.338 z "/>
<path style="fill:rgb(255, 0, 0);fill-opacity:0;fill-rule:evenodd;stroke:rgb(65, 0, 255);stroke-width:1;" d="M 837.626, 543.196 L 841.096, 538.447 L 850.411, 526.027 L 864.11, 531.872 L 850.411, 550.32 L 844.384, 547.763 L 845.297, 546.484 L 837.626, 543.196 z "/>
<path style="fill:rgb(0, 255, 0);fill-opacity:0;fill-rule:evenodd;stroke:rgb(65, 0, 255);stroke-width:1;" d="M 635.068, 245.114 L 638.539, 240.365 L 639.635, 240.913 L 644.749, 233.973 L 643.653, 233.425 L 647.306, 228.493 L 662.283, 234.886 L 650.046, 251.689 L 635.068, 245.114 z "/>
<path style="fill:rgb(0, 0, 255);fill-opacity:0;fill-rule:evenodd;stroke:rgb(65, 0, 255);stroke-width:1;" d="M 859.726, 513.607 L 868.676, 501.187 L 872.146, 496.256 L 880, 499.543 L 880.731, 498.265 L 886.758, 500.822 L 873.242, 519.269 L 859.726, 513.607 z "/>
<path style="fill:rgb(255, 255, 0);fill-opacity:0;fill-rule:evenodd;stroke:rgb(65, 0, 255);stroke-width:1;" d="M 943.379, 547.763 L 951.416, 536.256 L 959.269, 525.114 L 966.941, 514.338 L 974.064, 517.26 L 950.32, 550.685 L 943.379, 547.763 z "/>
<path style="fill:rgb(255, 0, 0);fill-opacity:0;fill-rule:evenodd;stroke:rgb(65, 0, 255);stroke-width:1;" d="M 766.393, 656.621 L 777.534, 641.279 L 792.877, 647.671 L 781.735, 663.014 L 766.393, 656.621 z "/>
<path style="fill:rgb(0, 255, 0);fill-opacity:0;fill-rule:evenodd;stroke:rgb(65, 0, 255);stroke-width:1;" d="M 908.493, 594.703 L 916.53, 584.11 L 924.384, 573.151 L 932.968, 561.644 L 939.909, 564.566 L 915.434, 597.808 L 908.493, 594.703 z "/>
<path style="fill:rgb(0, 0, 255);fill-opacity:0;fill-rule:evenodd;stroke:rgb(65, 0, 255);stroke-width:1;" d="M 406.027, 338.995 L 422.831, 316.347 L 432.877, 320.548 L 416.256, 343.196 L 406.027, 338.995 z "/>
<path style="fill:rgb(255, 255, 0);fill-opacity:0;fill-rule:evenodd;stroke:rgb(65, 0, 255);stroke-width:1;" d="M 788.858, 59.726 L 794.338, 52.0548 L 823.562, 64.2922 L 817.9, 71.9635 L 788.858, 59.726 z "/>
<path style="fill:rgb(255, 0, 0);fill-opacity:0;fill-rule:evenodd;stroke:rgb(65, 0, 255);stroke-width:1;" d="M 717.991, 138.447 L 719.635, 136.256 L 733.516, 117.26 L 744.11, 121.644 L 739.909, 127.489 L 738.265, 129.863 L 730.228, 140.639 L 728.402, 139.909 L 726.758, 142.1 L 717.991, 138.447 z "/>
<path style="fill:rgb(0, 255, 0);fill-opacity:0;fill-rule:evenodd;stroke:rgb(65, 0, 255);stroke-width:1;" d="M 751.233, 157.626 L 759.635, 145.936 L 778.082, 153.607 L 769.498, 165.297 L 751.233, 157.626 z "/>
<path style="fill:rgb(0, 0, 255);fill-opacity:0;fill-rule:evenodd;stroke:rgb(65, 0, 255);stroke-width:1;" d="M 898.082, 575.89 L 901.005, 571.689 L 907.763, 574.429 L 913.607, 566.393 L 918.721, 568.584 L 923.105, 570.411 L 924.384, 573.151 L 916.53, 584.11 L 912.694, 584.658 L 898.63, 578.813 L 898.082, 575.89 z "/>
<path style="fill:rgb(255, 255, 0);fill-opacity:0;fill-rule:evenodd;stroke:rgb(65, 0, 255);stroke-width:1;" d="M 937.352, 522.009 L 940.457, 517.808 L 944.11, 516.712 L 957.991, 522.374 L 959.269, 525.114 L 951.416, 536.256 L 947.763, 536.804 L 943.379, 534.977 L 938.265, 532.785 L 944.11, 524.749 L 937.352, 522.009 z "/>
<path style="fill:rgb(255, 0, 0);fill-opacity:0;fill-rule:evenodd;stroke:rgb(65, 0, 255);stroke-width:1;" d="M 658.082, 198.356 L 666.119, 187.397 L 670.868, 180.822 L 671.598, 181.005 L 682.374, 185.753 L 669.772, 203.105 L 658.082, 198.356 z "/>
<path style="fill:rgb(0, 255, 0);fill-opacity:0;fill-rule:evenodd;stroke:rgb(65, 0, 255);stroke-width:1;" d="M 669.772, 203.105 L 682.374, 185.753 L 693.699, 190.502 L 680.913, 208.037 L 669.772, 203.105 z "/>
<path style="fill:rgb(0, 0, 255);fill-opacity:0;fill-rule:evenodd;stroke:rgb(65, 0, 255);stroke-width:1;" d="M 709.406, 132.055 L 710.502, 130.411 L 714.886, 124.384 L 723.288, 112.877 L 733.516, 117.26 L 719.635, 136.256 L 709.406, 132.055 z "/>
<path style="fill:rgb(255, 255, 0);fill-opacity:0;fill-rule:evenodd;stroke:rgb(65, 0, 255);stroke-width:1;" d="M 761.096, 65.5708 L 768.95, 54.6119 L 784.658, 61.3699 L 776.804, 72.1461 L 769.863, 69.2237 L 761.096, 65.5708 z "/>
<path style="fill:rgb(255, 0, 0);fill-opacity:0;fill-rule:evenodd;stroke:rgb(65, 0, 255);stroke-width:1;" d="M 400.183, 179.543 L 402.922, 175.89 L 408.402, 168.402 L 408.584, 168.219 L 423.379, 174.429 L 417.717, 182.1 L 414.977, 185.753 L 400.183, 179.543 z "/>
<path style="fill:rgb(0, 255, 0);fill-opacity:0;fill-rule:evenodd;stroke:rgb(65, 0, 255);stroke-width:1;" d="M 909.224, 496.621 L 915.068, 488.584 L 935.708, 497.352 L 930.228, 505.571 L 909.224, 496.621 z "/>
<path style="fill:rgb(0, 0, 255);fill-opacity:0;fill-rule:evenodd;stroke:rgb(65, 0, 255);stroke-width:1;" d="M 851.689, 574.612 L 857.534, 566.941 L 878.539, 575.89 L 873.059, 583.744 L 851.689, 574.612 z "/>
<path style="fill:rgb(255, 255, 0);fill-opacity:0;fill-rule:evenodd;stroke:rgb(65, 0, 255);stroke-width:1;" d="M 155.616, 76.347 L 163.653, 65.2055 L 174.429, 69.7717 L 177.717, 71.2329 L 169.863, 82.1918 L 155.616, 76.347 z "/>
<path style="fill:rgb(255, 0, 0);fill-opacity:0;fill-rule:evenodd;stroke:rgb(65, 0, 255);stroke-width:1;" d="M 583.014, 300.091 L 590.868, 289.498 L 604.566, 295.16 L 605.479, 295.525 L 597.626, 306.119 L 583.014, 300.091 z "/>
<path style="fill:rgb(0, 255, 0);fill-opacity:0;fill-rule:evenodd;stroke:rgb(65, 0, 255);stroke-width:1;" d="M 892.237, 584.11 L 898.082, 575.89 L 898.63, 578.813 L 912.694, 584.658 L 916.53, 584.11 L 908.493, 594.703 L 896.621, 589.772 L 898.63, 586.849 L 892.237, 584.11 z "/>
<path style="fill:rgb(0, 0, 255);fill-opacity:0;fill-rule:evenodd;stroke:rgb(65, 0, 255);stroke-width:1;" d="M 940.457, 517.808 L 946.484, 509.589 L 953.059, 512.329 L 955.068, 509.406 L 966.941, 514.338 L 959.269, 525.114 L 957.991, 522.374 L 944.11, 516.712 L 940.457, 517.808 z "/>
<path style="fill:rgb(255, 255, 0);fill-opacity:0;fill-rule:evenodd;stroke:rgb(65, 0, 255);stroke-width:1;" d="M 576.986, 80.7306 L 582.831, 72.1461 L 599.452, 78.5388 L 593.425, 87.3059 L 576.986, 80.7306 z "/>
<path style="fill:rgb(255, 0, 0);fill-opacity:0;fill-rule:evenodd;stroke:rgb(65, 0, 255);stroke-width:1;" d="M 866.484, 475.799 L 870.868, 469.954 L 900.091, 482.374 L 897.169, 486.575 L 890.959, 484.018 L 880, 479.452 L 874.703, 477.26 L 873.607, 478.721 L 866.484, 475.799 z "/>
<path style="fill:rgb(0, 255, 0);fill-opacity:0;fill-rule:evenodd;stroke:rgb(65, 0, 255);stroke-width:1;" d="M 602.557, 70.3196 L 607.123, 63.9269 L 628.493, 72.8767 L 623.927, 79.2694 L 602.557, 70.3196 z "/>
<path style="fill:rgb(0, 0, 255);fill-opacity:0;fill-rule:evenodd;stroke:rgb(65, 0, 255);stroke-width:1;" d="M 565.114, 94.0639 L 572.603, 83.105 L 585.205, 88.0365 L 577.717, 98.9954 L 565.114, 94.0639 z "/>
<path style="fill:rgb(255, 255, 0);fill-opacity:0;fill-rule:evenodd;stroke:rgb(65, 0, 255);stroke-width:1;" d="M 807.671, 556.164 L 811.689, 550.502 L 818.813, 553.425 L 817.717, 555.068 L 822.831, 557.26 L 833.79, 561.826 L 840, 564.384 L 837.078, 568.402 L 807.671, 556.164 z "/>
<path style="fill:rgb(255, 0, 0);fill-opacity:0;fill-rule:evenodd;stroke:rgb(65, 0, 255);stroke-width:1;" d="M 551.05, 48.5845 L 557.26, 43.105 L 576.986, 51.3242 L 572.42, 57.7169 L 551.05, 48.5845 z "/>
<path style="fill:rgb(0, 255, 0);fill-opacity:0;fill-rule:evenodd;stroke:rgb(65, 0, 255);stroke-width:1;" d="M 44.0183, 177.534 L 50.411, 168.767 L 64.8402, 174.795 L 64.6575, 175.16 L 58.4475, 183.562 L 44.0183, 177.534 z "/>
<path style="fill:rgb(0, 0, 255);fill-opacity:0;fill-rule:evenodd;stroke:rgb(65, 0, 255);stroke-width:1;" d="M 860.822, 562.557 L 865.205, 556.53 L 886.21, 565.479 L 881.826, 571.507 L 860.822, 562.557 z "/>
<path style="fill:rgb(255, 255, 0);fill-opacity:0;fill-rule:evenodd;stroke:rgb(65, 0, 255);stroke-width:1;" d="M 901.553, 507.032 L 905.936, 501.005 L 926.941, 509.954 L 922.557, 515.799 L 901.553, 507.032 z "/>
<path style="fill:rgb(255, 0, 0);fill-opacity:0;fill-rule:evenodd;stroke:rgb(65, 0, 255);stroke-width:1;" d="M 584.11, 123.836 L 599.452, 102.466 L 605.297, 104.84 L 589.954, 126.21 L 584.11, 123.836 z "/>
<path style="fill:rgb(0, 255, 0);fill-opacity:0;fill-rule:evenodd;stroke:rgb(65, 0, 255);stroke-width:1;" d="M 901.005, 571.689 L 914.155, 553.79 L 920.731, 556.53 L 913.607, 566.393 L 907.763, 574.429 L 901.005, 571.689 z "/>
<path style="fill:rgb(0, 0, 255);fill-opacity:0;fill-rule:evenodd;stroke:rgb(65, 0, 255);stroke-width:1;" d="M 924.384, 539.909 L 937.352, 522.009 L 944.11, 524.749 L 938.265, 532.785 L 930.959, 542.648 L 924.384, 539.909 z "/>
<path style="fill:rgb(255, 255, 0);fill-opacity:0;fill-rule:evenodd;stroke:rgb(65, 0, 255);stroke-width:1;" d="M 830.32, 546.484 L 836.164, 538.082 L 838.904, 537.534 L 841.096, 538.447 L 837.626, 543.196 L 845.297, 546.484 L 844.384, 547.763 L 850.411, 550.32 L 847.671, 553.607 L 844.384, 554.338 L 830.868, 548.676 L 830.32, 546.484 z "/>
<path style="fill:rgb(255, 0, 0);fill-opacity:0;fill-rule:evenodd;stroke:rgb(65, 0, 255);stroke-width:1;" d="M 865.571, 498.082 L 871.781, 489.863 L 874.521, 489.132 L 888.037, 494.795 L 889.132, 497.169 L 886.758, 500.822 L 880.731, 498.265 L 880, 499.543 L 872.146, 496.256 L 868.676, 501.187 L 866.484, 500.274 L 865.571, 498.082 z "/>
<path style="fill:rgb(0, 255, 0);fill-opacity:0;fill-rule:evenodd;stroke:rgb(65, 0, 255);stroke-width:1;" d="M 857.534, 566.941 L 860.822, 562.557 L 881.826, 571.507 L 878.539, 575.89 L 857.534, 566.941 z "/>
<path style="fill:rgb(0, 0, 255);fill-opacity:0;fill-rule:evenodd;stroke:rgb(65, 0, 255);stroke-width:1;" d="M 905.936, 501.005 L 909.224, 496.621 L 930.228, 505.571 L 926.941, 509.954 L 905.936, 501.005 z "/>
<path style="fill:rgb(255, 255, 0);fill-opacity:0;fill-rule:evenodd;stroke:rgb(65, 0, 255);stroke-width:1;" d="M 605.845, 640.183 L 609.863, 634.703 L 624.84, 640.913 L 621.005, 646.393 L 605.845, 640.183 z "/>
<path style="fill:rgb(255, 0, 0);fill-opacity:0;fill-rule:evenodd;stroke:rgb(65, 0, 255);stroke-width:1;" d="M 590.137, 65.2055 L 594.886, 58.8128 L 607.123, 63.9269 L 602.557, 70.3196 L 590.137, 65.2055 z "/>
<path style="fill:rgb(0, 255, 0);fill-opacity:0;fill-rule:evenodd;stroke:rgb(65, 0, 255);stroke-width:1;" d="M 658.995, 184.292 L 666.849, 173.699 L 674.521, 176.986 L 671.598, 181.005 L 670.868, 180.822 L 666.119, 187.397 L 658.995, 184.292 z "/>
<path style="fill:rgb(0, 0, 255);fill-opacity:0;fill-rule:evenodd;stroke:rgb(65, 0, 255);stroke-width:1;" d="M 650.959, 195.251 L 658.995, 184.292 L 666.119, 187.397 L 658.082, 198.356 L 650.959, 195.251 z "/>
<path style="fill:rgb(255, 255, 0);fill-opacity:0;fill-rule:evenodd;stroke:rgb(65, 0, 255);stroke-width:1;" d="M 577.717, 98.9954 L 585.205, 88.0365 L 592.146, 90.7763 L 584.475, 101.735 L 577.717, 98.9954 z "/>
<path style="fill:rgb(255, 0, 0);fill-opacity:0;fill-rule:evenodd;stroke:rgb(65, 0, 255);stroke-width:1;" d="M 918.721, 568.584 L 925.845, 558.721 L 932.968, 561.644 L 924.384, 573.151 L 923.105, 570.411 L 918.721, 568.584 z "/>
<path style="fill:rgb(0, 255, 0);fill-opacity:0;fill-rule:evenodd;stroke:rgb(65, 0, 255);stroke-width:1;" d="M 936.073, 544.84 L 943.379, 534.977 L 947.763, 536.804 L 951.416, 536.256 L 943.379, 547.763 L 936.073, 544.84 z "/>
<path style="fill:rgb(0, 0, 255);fill-opacity:0;fill-rule:evenodd;stroke:rgb(65, 0, 255);stroke-width:1;" d="M 930.959, 542.648 L 938.265, 532.785 L 943.379, 534.977 L 936.073, 544.84 L 930.959, 542.648 z "/>
<path style="fill:rgb(255, 255, 0);fill-opacity:0;fill-rule:evenodd;stroke:rgb(65, 0, 255);stroke-width:1;" d="M 913.607, 566.393 L 920.731, 556.53 L 925.845, 558.721 L 918.721, 568.584 L 913.607, 566.393 z "/>
<path style="fill:rgb(255, 0, 0);fill-opacity:0;fill-rule:evenodd;stroke:rgb(65, 0, 255);stroke-width:1;" d="M 787.215, 150.137 L 788.676, 147.945 L 790.137, 145.936 L 801.826, 150.868 L 800.548, 152.877 L 798.904, 155.068 L 787.215, 150.137 z "/>
<path style="fill:rgb(0, 255, 0);fill-opacity:0;fill-rule:evenodd;stroke:rgb(65, 0, 255);stroke-width:1;" d="M 746.484, 132.968 L 748.128, 130.959 L 749.589, 128.95 L 761.279, 133.881 L 760, 135.89 L 758.356, 138.082 L 746.484, 132.968 z "/>
<path style="fill:rgb(0, 0, 255);fill-opacity:0;fill-rule:evenodd;stroke:rgb(65, 0, 255);stroke-width:1;" d="M 766.941, 141.553 L 768.584, 139.361 L 770.046, 137.534 L 781.735, 142.466 L 780.274, 144.292 L 778.813, 146.484 L 766.941, 141.553 z "/>
<path style="fill:rgb(255, 255, 0);fill-opacity:0;fill-rule:evenodd;stroke:rgb(65, 0, 255);stroke-width:1;" d="M 27.5799, 484.749 L 57.3516, 444.201 L 132.785, 476.164 L 103.014, 516.712 L 27.5799, 484.749 z "/>
<path style="fill:rgb(255, 0, 0);fill-opacity:0;fill-rule:evenodd;stroke:rgb(65, 0, 255);stroke-width:1;" d="M 26.3014, 769.68 L 49.4977, 737.534 L 122.192, 767.671 L 98.9954, 800 L 26.3014, 769.68 z "/>
<path style="fill:rgb(0, 255, 0);fill-opacity:0;fill-rule:evenodd;stroke:rgb(65, 0, 255);stroke-width:1;" d="M 0, 216.256 L 6.94064, 206.758 L 16.621, 210.776 L 26.484, 197.26 L 25.0228, 195.982 L 17.3516, 192.511 L 24.8402, 182.1 L 72.8767, 202.192 L 65.5708, 212.237 L 56.0731, 208.219 L 50.411, 216.073 L 46.21, 221.918 L 55.5251, 225.753 L 47.8539, 236.347 L 0, 216.256 z "/>
<path style="fill:rgb(0, 0, 255);fill-opacity:0;fill-rule:evenodd;stroke:rgb(65, 0, 255);stroke-width:1;" d="M 21.3699, 77.0776 L 28.8584, 66.8493 L 44.2009, 73.242 L 45.4795, 75.0685 L 70.6849, 85.6621 L 73.79, 85.6621 L 85.1142, 90.411 L 79.4521, 98.0822 L 77.2603, 101.187 L 21.3699, 77.0776 z "/>
<path style="fill:rgb(255, 255, 0);fill-opacity:0;fill-rule:evenodd;stroke:rgb(65, 0, 255);stroke-width:1;" d="M 306.484, 49.4977 L 341.735, 2.55708 L 369.315, 14.4292 L 334.247, 61.5525 L 306.484, 49.4977 z "/>
<path style="fill:rgb(255, 0, 0);fill-opacity:0;fill-rule:evenodd;stroke:rgb(65, 0, 255);stroke-width:1;" d="M 794.338, 52.0548 L 802.374, 41.0959 L 810.228, 30.137 L 818.63, 18.6301 L 825.753, 8.94977 L 854.795, 21.1872 L 823.562, 64.2922 L 794.338, 52.0548 z "/>
<path style="fill:rgb(0, 255, 0);fill-opacity:0;fill-rule:evenodd;stroke:rgb(65, 0, 255);stroke-width:1;" d="M 730.228, 38.3562 L 745.571, 17.1689 L 802.374, 41.0959 L 794.338, 52.0548 L 788.858, 59.726 L 787.032, 62.2831 L 784.658, 61.3699 L 768.95, 54.6119 L 730.228, 38.3562 z "/>
<path style="fill:rgb(0, 0, 255);fill-opacity:0;fill-rule:evenodd;stroke:rgb(65, 0, 255);stroke-width:1;" d="M 745.571, 17.1689 L 753.425, 6.39269 L 810.228, 30.137 L 802.374, 41.0959 L 745.571, 17.1689 z "/>
<path style="fill:rgb(255, 255, 0);fill-opacity:0;fill-rule:evenodd;stroke:rgb(65, 0, 255);stroke-width:1;" d="M 989.589, 42.9224 L 1020.82, 0 L 1034.89, 5.84475 L 1029.77, 12.968 L 1022.1, 23.379 L 1011.87, 37.4429 L 1003.65, 48.7671 L 989.589, 42.9224 z "/>
<path style="fill:rgb(255, 0, 0);fill-opacity:0;fill-rule:evenodd;stroke:rgb(65, 0, 255);stroke-width:1;" d="M 1003.65, 48.7671 L 1011.87, 37.4429 L 1014.43, 37.0776 L 1023.01, 25.5708 L 1022.1, 23.379 L 1029.77, 12.968 L 1044.38, 18.9954 L 1036.35, 30.137 L 1034.7, 30.137 L 1025.57, 42.7397 L 1026.67, 43.653 L 1018.26, 54.9772 L 1003.65, 48.7671 z "/>
<path style="fill:rgb(0, 255, 0);fill-opacity:0;fill-rule:evenodd;stroke:rgb(65, 0, 255);stroke-width:1;" d="M 114.521, 54.4292 L 119.452, 47.4886 L 122.74, 46.21 L 125.845, 41.8265 L 127.123, 42.3744 L 131.324, 36.347 L 130.411, 35.4338 L 136.438, 27.032 L 135.708, 24.8402 L 142.283, 15.8904 L 156.895, 21.9178 L 150.868, 30.3196 L 148.128, 31.5982 L 142.1, 40 L 140.091, 39.0868 L 135.89, 45.1142 L 137.717, 45.8447 L 133.699, 51.6895 L 134.064, 53.6986 L 129.132, 60.4566 L 114.521, 54.4292 z "/>
</svg>