<?xml version="1.0" encoding="iso-8859-1" standalone="no"?>
<!DOCTYPE svg PUBLIC "-//W3C//DTD SVG 1.0//EN" "http://www.w3.org/TR/2001/REC-SVG-20010904/DTD/svg10.dtd">
<svg xmlns="http://www.w3.org/2000/svg" width="1125" height="800">
<path style="fill:rgb(255, 0, 0);fill-opacity:0;fill-rule:evenodd;stroke:rgb(0, 255, 228);stroke-width:1;" d="M 307.581, 500.045 L 343.713, 485.883 L 345.347, 483.341 L 352.429, 473.718 L 372.946, 445.393 L 376.759, 439.946 L 363.323, 434.317 L 364.049, 433.227 L 368.77, 426.872 L 373.309, 420.517 L 380.39, 410.894 L 387.29, 401.271 L 394.19, 391.648 L 608.261, 481.162 L 527.826, 592.283 L 307.581, 500.045 z "/>
<path style="fill:rgb(0, 255, 0);fill-opacity:0;fill-rule:evenodd;stroke:rgb(0, 255, 228);stroke-width:1;" d="M 522.923, 696.686 L 525.465, 693.055 L 524.376, 692.51 L 570.132, 630.413 L 571.221, 630.776 L 572.674, 628.779 L 577.031, 630.595 L 593.736, 637.494 L 599.183, 630.05 L 599.728, 629.324 L 648.025, 649.478 L 647.481, 650.386 L 641.852, 657.83 L 666.001, 667.998 L 673.445, 658.193 L 809.079, 715.751 L 807.808, 717.749 L 809.623, 718.475 L 783.477, 754.607 L 776.577, 764.049 L 750.613, 800 L 611.711, 742.261 L 616.069, 735.906 L 592.102, 725.738 L 586.655, 733.182 L 586.11, 734.09 L 537.812, 713.754 L 538.357, 713.028 L 543.804, 705.583 L 526.736, 698.32 L 522.923, 696.686 z M 633.137, 714.843 L 673.627, 732.274 L 697.049, 700.681 L 656.378, 683.432 L 633.137, 714.843 z "/>
<path style="fill:rgb(0, 0, 255);fill-opacity:0;fill-rule:evenodd;stroke:rgb(0, 255, 228);stroke-width:1;" d="M 747.163, 651.657 L 778.756, 606.446 L 762.415, 599.546 L 785.111, 564.866 L 788.924, 558.693 L 950.34, 626.237 L 922.742, 663.822 L 933.636, 668.543 L 899.138, 715.57 L 747.163, 651.657 z "/>
<path style="fill:rgb(255, 255, 0);fill-opacity:0;fill-rule:evenodd;stroke:rgb(0, 255, 228);stroke-width:1;" d="M 611.711, 742.261 L 616.069, 735.906 L 618.066, 733.182 L 619.337, 733.908 L 633.137, 714.843 L 673.627, 732.274 L 697.049, 700.681 L 656.378, 683.432 L 664.911, 671.63 L 664.004, 671.085 L 666.001, 667.998 L 673.445, 658.193 L 809.079, 715.751 L 807.808, 717.749 L 809.623, 718.475 L 783.477, 754.607 L 776.577, 764.049 L 750.613, 800 L 611.711, 742.261 z "/>
<path style="fill:rgb(255, 0, 0);fill-opacity:0;fill-rule:evenodd;stroke:rgb(0, 255, 228);stroke-width:1;" d="M 618.429, 593.191 L 629.868, 576.668 L 621.335, 573.763 L 661.099, 519.292 L 662.733, 517.658 L 664.548, 516.024 L 667.453, 514.389 L 669.269, 513.663 L 672.719, 513.3 L 676.169, 512.937 L 679.619, 513.3 L 683.613, 514.571 L 719.201, 529.641 L 715.025, 535.452 L 737.177, 544.167 L 712.483, 578.847 L 762.415, 599.546 L 778.756, 606.446 L 747.163, 651.657 L 641.852, 607.535 L 644.394, 604.085 L 618.429, 593.191 z "/>
<path style="fill:rgb(0, 255, 0);fill-opacity:0;fill-rule:evenodd;stroke:rgb(0, 255, 228);stroke-width:1;" d="M 698.139, 461.916 L 703.768, 454.108 L 742.079, 401.997 L 762.233, 374.399 L 766.954, 376.577 L 809.805, 394.553 L 837.04, 405.992 L 861.371, 416.341 L 828.507, 461.189 L 809.805, 453.2 L 784.203, 488.062 L 778.393, 495.869 L 698.139, 461.916 z "/>
<path style="fill:rgb(0, 0, 255);fill-opacity:0;fill-rule:evenodd;stroke:rgb(0, 255, 228);stroke-width:1;" d="M 256.741, 446.482 L 263.64, 436.859 L 270.54, 427.417 L 277.621, 417.794 L 284.521, 408.171 L 289.242, 401.816 L 293.781, 395.461 L 298.502, 389.106 L 305.402, 379.483 L 312.483, 370.041 L 319.383, 360.418 L 394.19, 391.648 L 387.29, 401.271 L 380.39, 410.894 L 373.309, 420.517 L 368.77, 426.872 L 364.049, 433.227 L 363.323, 434.317 L 359.51, 439.582 L 372.946, 445.393 L 352.429, 473.718 L 345.347, 483.341 L 331.911, 477.712 L 256.741, 446.482 z "/>
<path style="fill:rgb(255, 255, 0);fill-opacity:0;fill-rule:evenodd;stroke:rgb(0, 255, 228);stroke-width:1;" d="M 526.736, 698.32 L 577.031, 630.595 L 593.736, 637.494 L 599.183, 630.05 L 647.481, 650.386 L 641.852, 657.83 L 666.001, 667.998 L 664.004, 671.085 L 618.066, 733.182 L 616.069, 735.906 L 592.102, 725.738 L 586.655, 733.182 L 538.357, 713.028 L 543.804, 705.583 L 526.736, 698.32 z "/>
<path style="fill:rgb(255, 0, 0);fill-opacity:0;fill-rule:evenodd;stroke:rgb(0, 255, 228);stroke-width:1;" d="M 597.004, 213.345 L 628.779, 170.132 L 708.852, 204.085 L 712.483, 199.365 L 745.166, 212.982 L 741.534, 217.885 L 780.39, 234.408 L 779.301, 236.042 L 784.203, 238.039 L 753.7, 280.163 L 734.09, 272.174 L 702.678, 258.92 L 697.413, 256.559 L 705.583, 245.483 L 681.071, 235.134 L 675.806, 232.955 L 667.998, 243.668 L 597.004, 213.345 z "/>
<path style="fill:rgb(0, 255, 0);fill-opacity:0;fill-rule:evenodd;stroke:rgb(0, 255, 228);stroke-width:1;" d="M 778.393, 495.869 L 784.203, 488.062 L 809.805, 453.2 L 828.507, 461.189 L 911.303, 496.232 L 957.059, 515.66 L 925.647, 558.33 L 778.393, 495.869 z "/>
<path style="fill:rgb(0, 0, 255);fill-opacity:0;fill-rule:evenodd;stroke:rgb(0, 255, 228);stroke-width:1;" d="M 862.823, 234.589 L 865.002, 231.502 L 885.157, 204.267 L 886.972, 201.543 L 894.961, 190.831 L 903.132, 179.755 L 905.129, 177.031 L 924.739, 150.159 L 926.555, 147.435 L 930.549, 149.069 L 940.172, 153.246 L 964.14, 163.232 L 983.023, 171.403 L 982.115, 172.855 L 981.026, 174.308 L 979.936, 175.76 L 978.847, 177.213 L 970.676, 188.47 L 961.961, 200.817 L 947.435, 221.516 L 942.351, 228.416 L 933.273, 240.944 L 924.557, 252.928 L 923.468, 254.38 L 922.379, 255.833 L 921.289, 257.467 L 920.2, 258.92 L 900.953, 250.749 L 876.623, 240.399 L 866.636, 236.223 L 862.823, 234.589 z "/>
<path style="fill:rgb(255, 255, 0);fill-opacity:0;fill-rule:evenodd;stroke:rgb(0, 255, 228);stroke-width:1;" d="M 201.543, 423.241 L 240.399, 369.678 L 260.735, 341.353 L 263.822, 337.177 L 319.383, 360.418 L 312.483, 370.041 L 305.402, 379.483 L 298.502, 389.106 L 293.781, 395.461 L 289.242, 401.816 L 284.521, 408.171 L 277.621, 417.794 L 270.54, 427.417 L 263.64, 436.859 L 256.741, 446.482 L 201.543, 423.241 z "/>
<path style="fill:rgb(255, 0, 0);fill-opacity:0;fill-rule:evenodd;stroke:rgb(0, 255, 228);stroke-width:1;" d="M 439.401, 147.798 L 471.357, 104.04 L 569.587, 145.256 L 560.145, 158.148 L 550.704, 171.039 L 541.443, 183.931 L 537.631, 189.197 L 453.563, 153.79 L 439.401, 147.798 z "/>
<path style="fill:rgb(0, 255, 0);fill-opacity:0;fill-rule:evenodd;stroke:rgb(0, 255, 228);stroke-width:1;" d="M 779.846, 348.616 L 803.631, 315.933 L 870.268, 343.895 L 878.257, 332.819 L 898.23, 341.353 L 926.01, 352.973 L 894.054, 396.732 L 779.846, 348.616 z "/>
<path style="fill:rgb(0, 0, 255);fill-opacity:0;fill-rule:evenodd;stroke:rgb(0, 255, 228);stroke-width:1;" d="M 597.004, 213.345 L 628.779, 170.132 L 708.852, 204.085 L 709.215, 204.267 L 705.583, 209.169 L 721.562, 215.887 L 737.358, 222.606 L 740.99, 217.703 L 741.534, 217.885 L 780.39, 234.408 L 779.301, 236.042 L 784.203, 238.039 L 753.7, 280.163 L 734.09, 272.174 L 751.158, 248.933 L 758.42, 252.02 L 769.678, 236.586 L 749.887, 228.234 L 737.721, 222.969 L 705.22, 209.351 L 701.407, 207.717 L 681.071, 235.134 L 675.806, 232.955 L 667.998, 243.668 L 597.004, 213.345 z "/>
<path style="fill:rgb(255, 255, 0);fill-opacity:0;fill-rule:evenodd;stroke:rgb(0, 255, 228);stroke-width:1;" d="M 143.259, 399.092 L 157.785, 379.119 L 168.316, 364.775 L 174.671, 355.697 L 165.229, 351.702 L 168.679, 346.8 L 171.766, 342.987 L 193.554, 312.846 L 196.278, 308.852 L 263.822, 337.177 L 260.735, 341.353 L 240.399, 369.678 L 233.318, 378.938 L 205.356, 366.409 L 197.912, 377.485 L 187.562, 391.648 L 172.855, 411.621 L 143.259, 399.092 z "/>
<path style="fill:rgb(255, 0, 0);fill-opacity:0;fill-rule:evenodd;stroke:rgb(0, 255, 228);stroke-width:1;" d="M 915.66, 722.469 L 949.614, 675.261 L 971.221, 684.521 L 980.118, 688.334 L 979.029, 689.968 L 995.007, 696.686 L 1024.78, 655.651 L 1030.78, 658.012 L 1036.95, 660.554 L 1004.27, 705.583 L 1012.44, 709.033 L 1020.61, 712.483 L 989.923, 754.789 L 952.519, 739.174 L 953.427, 738.084 L 915.66, 722.469 z "/>
<path style="fill:rgb(0, 255, 0);fill-opacity:0;fill-rule:evenodd;stroke:rgb(0, 255, 228);stroke-width:1;" d="M 828.507, 461.189 L 861.371, 416.341 L 944.167, 451.566 L 911.303, 496.232 L 828.507, 461.189 z "/>
<path style="fill:rgb(0, 0, 255);fill-opacity:0;fill-rule:evenodd;stroke:rgb(0, 255, 228);stroke-width:1;" d="M 184.113, 652.383 L 190.468, 643.849 L 202.996, 626.419 L 209.896, 617.158 L 211.167, 615.161 L 215.343, 609.714 L 300.499, 645.483 L 269.269, 688.153 L 227.871, 670.722 L 184.113, 652.383 z "/>
<path style="fill:rgb(255, 255, 0);fill-opacity:0;fill-rule:evenodd;stroke:rgb(0, 255, 228);stroke-width:1;" d="M 1023.69, 543.985 L 1056.56, 499.138 L 1105.76, 520.2 L 1125.37, 528.37 L 1122.83, 532.002 L 1093.05, 572.492 L 1072.9, 563.958 L 1041.13, 607.354 L 1035.68, 605.175 L 1029.14, 602.27 L 1060.37, 559.419 L 1023.69, 543.985 z "/>
<path style="fill:rgb(255, 0, 0);fill-opacity:0;fill-rule:evenodd;stroke:rgb(0, 255, 228);stroke-width:1;" d="M 1009.9, 760.599 L 1066.55, 682.705 L 1081.43, 687.245 L 1113.39, 697.231 L 1108.31, 703.949 L 1055.65, 774.217 L 1009.9, 760.599 z "/>
<path style="fill:rgb(0, 255, 0);fill-opacity:0;fill-rule:evenodd;stroke:rgb(0, 255, 228);stroke-width:1;" d="M 597.004, 213.345 L 628.779, 170.132 L 708.852, 204.085 L 705.22, 209.351 L 701.407, 207.717 L 681.071, 235.134 L 675.806, 232.955 L 667.998, 243.668 L 597.004, 213.345 z "/>
<path style="fill:rgb(0, 0, 255);fill-opacity:0;fill-rule:evenodd;stroke:rgb(0, 255, 228);stroke-width:1;" d="M 707.036, 111.847 L 710.486, 106.945 L 707.217, 105.674 L 710.304, 101.498 L 731.366, 72.4467 L 733.908, 68.9968 L 735.542, 66.6364 L 811.802, 98.7744 L 811.621, 99.1375 L 807.808, 104.222 L 799.818, 115.297 L 787.835, 131.639 L 779.846, 143.259 L 757.512, 133.454 L 761.144, 128.552 L 737.721, 118.747 L 736.087, 120.744 L 731.003, 118.566 L 729.187, 121.289 L 723.377, 118.747 L 707.036, 111.847 z "/>
<path style="fill:rgb(255, 255, 0);fill-opacity:0;fill-rule:evenodd;stroke:rgb(0, 255, 228);stroke-width:1;" d="M 650.386, 600.454 L 654.562, 594.462 L 667.635, 576.123 L 675.987, 564.321 L 708.852, 577.394 L 712.483, 578.847 L 762.415, 599.546 L 736.813, 635.679 L 695.778, 618.974 L 650.386, 600.454 z "/>
<path style="fill:rgb(255, 0, 0);fill-opacity:0;fill-rule:evenodd;stroke:rgb(0, 255, 228);stroke-width:1;" d="M 898.23, 341.353 L 930.005, 297.594 L 1000.64, 327.19 L 999.001, 329.187 L 968.679, 370.949 L 926.01, 352.973 L 898.23, 341.353 z "/>
<path style="fill:rgb(0, 255, 0);fill-opacity:0;fill-rule:evenodd;stroke:rgb(0, 255, 228);stroke-width:1;" d="M 703.768, 454.108 L 742.079, 401.997 L 746.8, 403.995 L 734.453, 420.699 L 777.304, 438.856 L 804.539, 450.295 L 815.433, 435.406 L 821.244, 437.767 L 809.805, 453.2 L 784.203, 488.062 L 703.768, 454.108 z "/>
<path style="fill:rgb(0, 0, 255);fill-opacity:0;fill-rule:evenodd;stroke:rgb(0, 255, 228);stroke-width:1;" d="M 899.138, 715.57 L 933.636, 668.543 L 922.742, 663.822 L 950.34, 626.237 L 951.43, 624.966 L 962.324, 629.687 L 971.766, 633.5 L 1000.09, 645.665 L 1008.99, 649.296 L 1003, 657.467 L 986.291, 679.982 L 980.118, 688.334 L 971.221, 684.521 L 949.614, 675.261 L 915.66, 722.469 L 899.138, 715.57 z "/>
<path style="fill:rgb(255, 255, 0);fill-opacity:0;fill-rule:evenodd;stroke:rgb(0, 255, 228);stroke-width:1;" d="M 920.2, 258.92 L 921.289, 257.467 L 922.379, 255.833 L 923.468, 254.38 L 924.557, 252.928 L 933.273, 240.944 L 942.351, 228.416 L 947.435, 221.516 L 981.571, 235.86 L 1028.05, 255.288 L 1000.82, 292.51 L 934.181, 264.73 L 920.2, 258.92 z "/>
<path style="fill:rgb(255, 0, 0);fill-opacity:0;fill-rule:evenodd;stroke:rgb(0, 255, 228);stroke-width:1;" d="M 874.626, 232.047 L 892.601, 207.535 L 912.574, 180.118 L 930.186, 156.151 L 936.178, 158.874 L 937.086, 157.422 L 937.631, 156.877 L 961.416, 166.863 L 960.872, 167.59 L 959.782, 169.042 L 978.847, 177.213 L 970.676, 188.47 L 936.541, 174.126 L 927.644, 186.291 L 943.441, 193.01 L 961.961, 200.817 L 947.435, 221.516 L 942.351, 228.416 L 923.286, 220.427 L 907.671, 213.89 L 898.593, 226.419 L 933.273, 240.944 L 924.557, 252.928 L 905.493, 244.757 L 904.222, 246.21 L 903.677, 246.936 L 879.346, 236.768 L 879.709, 236.223 L 880.799, 234.771 L 874.626, 232.047 z "/>
<path style="fill:rgb(0, 255, 0);fill-opacity:0;fill-rule:evenodd;stroke:rgb(0, 255, 228);stroke-width:1;" d="M 772.583, 636.405 L 778.938, 627.69 L 787.835, 615.524 L 794.008, 607.172 L 801.089, 610.259 L 802.179, 608.806 L 829.414, 620.245 L 828.325, 621.698 L 892.419, 648.57 L 886.791, 656.378 L 876.804, 669.995 L 871.176, 677.803 L 824.694, 658.193 L 806.718, 650.749 L 805.629, 652.202 L 778.575, 640.763 L 779.664, 639.31 L 772.583, 636.405 z "/>
<path style="fill:rgb(0, 0, 255);fill-opacity:0;fill-rule:evenodd;stroke:rgb(0, 255, 228);stroke-width:1;" d="M 157.785, 379.119 L 168.316, 364.775 L 174.671, 355.697 L 181.389, 346.981 L 171.766, 342.987 L 193.554, 312.846 L 260.735, 341.353 L 240.399, 369.678 L 211.711, 357.694 L 205.356, 366.409 L 197.912, 377.485 L 187.562, 391.648 L 157.785, 379.119 z "/>
<path style="fill:rgb(255, 255, 0);fill-opacity:0;fill-rule:evenodd;stroke:rgb(0, 255, 228);stroke-width:1;" d="M 181.026, 244.757 L 212.619, 201.18 L 241.852, 213.345 L 270.177, 225.148 L 261.825, 236.95 L 265.638, 238.584 L 264.548, 240.218 L 271.63, 243.123 L 254.017, 267.453 L 246.754, 264.548 L 245.483, 266.364 L 238.765, 263.459 L 235.679, 267.635 L 181.026, 244.757 z "/>
<path style="fill:rgb(255, 0, 0);fill-opacity:0;fill-rule:evenodd;stroke:rgb(0, 255, 228);stroke-width:1;" d="M 811.621, 304.857 L 827.78, 282.524 L 877.349, 303.223 L 884.975, 292.873 L 890.604, 295.234 L 898.774, 283.795 L 930.368, 297.049 L 930.005, 297.594 L 898.23, 341.353 L 878.257, 332.819 L 811.621, 304.857 z "/>
<path style="fill:rgb(0, 255, 0);fill-opacity:0;fill-rule:evenodd;stroke:rgb(0, 255, 228);stroke-width:1;" d="M 1000.82, 292.51 L 1028.05, 255.288 L 1032.41, 249.296 L 1038.22, 251.657 L 1093.05, 274.898 L 1064.19, 314.48 L 1063.1, 315.751 L 1060.92, 316.478 L 1057.65, 316.659 L 1049.3, 313.391 L 1000.82, 292.51 z "/>
<path style="fill:rgb(0, 0, 255);fill-opacity:0;fill-rule:evenodd;stroke:rgb(0, 255, 228);stroke-width:1;" d="M 981.571, 235.86 L 996.823, 208.261 L 1015.34, 191.92 L 1019.34, 186.655 L 1032.41, 192.102 L 1070, 208.08 L 1038.22, 251.657 L 1032.41, 249.296 L 1028.05, 255.288 L 981.571, 235.86 z "/>
<path style="fill:rgb(255, 255, 0);fill-opacity:0;fill-rule:evenodd;stroke:rgb(0, 255, 228);stroke-width:1;" d="M 969.042, 576.85 L 970.495, 574.852 L 1000.45, 533.999 L 1023.69, 543.985 L 1060.37, 559.419 L 1029.14, 602.27 L 969.042, 576.85 z "/>
<path style="fill:rgb(255, 0, 0);fill-opacity:0;fill-rule:evenodd;stroke:rgb(0, 255, 228);stroke-width:1;" d="M 356.06, 319.746 L 362.052, 311.575 L 365.865, 313.209 L 375.67, 299.591 L 370.586, 297.413 L 387.108, 274.716 L 393.827, 277.621 L 397.821, 272.174 L 403.268, 274.535 L 407.626, 268.543 L 449.932, 286.337 L 445.03, 293.236 L 441.398, 298.139 L 439.038, 297.049 L 423.059, 319.201 L 418.157, 317.022 L 407.989, 331.003 L 411.802, 332.456 L 405.81, 340.626 L 394.734, 336.087 L 397.458, 332.456 L 369.496, 320.654 L 366.954, 324.285 L 356.06, 319.746 z "/>
<path style="fill:rgb(0, 255, 0);fill-opacity:0;fill-rule:evenodd;stroke:rgb(0, 255, 228);stroke-width:1;" d="M 967.408, 520.018 L 1000.09, 475.352 L 1056.56, 499.138 L 1023.69, 543.985 L 1000.45, 533.999 L 967.408, 520.018 z "/>
<path style="fill:rgb(0, 0, 255);fill-opacity:0;fill-rule:evenodd;stroke:rgb(0, 255, 228);stroke-width:1;" d="M 911.303, 496.232 L 944.167, 451.566 L 1000.09, 475.352 L 967.408, 520.018 L 957.059, 515.66 L 911.303, 496.232 z "/>
<path style="fill:rgb(255, 255, 0);fill-opacity:0;fill-rule:evenodd;stroke:rgb(0, 255, 228);stroke-width:1;" d="M 168.316, 364.775 L 174.671, 355.697 L 181.389, 346.981 L 171.766, 342.987 L 193.554, 312.846 L 260.735, 341.353 L 240.399, 369.678 L 211.711, 357.694 L 205.356, 366.409 L 197.912, 377.485 L 168.316, 364.775 z "/>
<path style="fill:rgb(255, 0, 0);fill-opacity:0;fill-rule:evenodd;stroke:rgb(0, 255, 228);stroke-width:1;" d="M 323.196, 767.136 L 327.916, 760.781 L 347.708, 733.545 L 354.063, 725.011 L 358.239, 726.827 L 412.71, 749.705 L 381.843, 791.829 L 323.196, 767.136 z "/>
<path style="fill:rgb(0, 255, 0);fill-opacity:0;fill-rule:evenodd;stroke:rgb(0, 255, 228);stroke-width:1;" d="M 831.049, 72.8098 L 845.756, 52.6555 L 862.642, 29.596 L 878.802, 36.3141 L 883.159, 38.1298 L 919.837, 53.3818 L 888.243, 96.5956 L 831.049, 72.8098 z "/>
<path style="fill:rgb(0, 0, 255);fill-opacity:0;fill-rule:evenodd;stroke:rgb(0, 255, 228);stroke-width:1;" d="M 565.048, 258.012 L 569.768, 251.475 L 590.468, 223.332 L 613.709, 233.137 L 661.825, 253.473 L 652.928, 265.638 L 648.57, 263.822 L 645.12, 268.361 L 649.66, 270.177 L 636.405, 288.153 L 565.048, 258.012 z "/>
<path style="fill:rgb(255, 255, 0);fill-opacity:0;fill-rule:evenodd;stroke:rgb(0, 255, 228);stroke-width:1;" d="M 519.11, 90.059 L 543.259, 57.0132 L 550.885, 46.4821 L 565.229, 52.4739 L 607.354, 70.0862 L 575.579, 113.663 L 519.11, 90.059 z "/>
<path style="fill:rgb(255, 0, 0);fill-opacity:0;fill-rule:evenodd;stroke:rgb(0, 255, 228);stroke-width:1;" d="M 196.096, 714.117 L 227.871, 670.722 L 269.269, 688.153 L 284.34, 694.507 L 252.383, 737.903 L 196.096, 714.117 z "/>
<path style="fill:rgb(0, 255, 0);fill-opacity:0;fill-rule:evenodd;stroke:rgb(0, 255, 228);stroke-width:1;" d="M 295.415, 293.055 L 299.773, 287.063 L 300.318, 286.155 L 319.564, 259.646 L 320.472, 258.375 L 326.645, 250.023 L 383.659, 273.808 L 377.485, 282.161 L 365.32, 298.865 L 362.96, 302.133 L 360.236, 305.946 L 358.42, 308.307 L 356.605, 310.849 L 352.429, 316.841 L 295.415, 293.055 z "/>
<path style="fill:rgb(0, 0, 255);fill-opacity:0;fill-rule:evenodd;stroke:rgb(0, 255, 228);stroke-width:1;" d="M 748.434, 186.473 L 779.846, 143.259 L 785.474, 145.62 L 789.832, 147.435 L 824.33, 161.961 L 836.314, 167.045 L 804.902, 210.077 L 748.434, 186.473 z "/>
<path style="fill:rgb(255, 255, 0);fill-opacity:0;fill-rule:evenodd;stroke:rgb(0, 255, 228);stroke-width:1;" d="M 785.474, 145.62 L 793.827, 134.181 L 787.835, 131.639 L 799.818, 115.297 L 807.808, 104.222 L 811.621, 99.1375 L 868.271, 122.923 L 836.314, 167.045 L 824.33, 161.961 L 789.832, 147.435 L 785.474, 145.62 z "/>
<path style="fill:rgb(255, 0, 0);fill-opacity:0;fill-rule:evenodd;stroke:rgb(0, 255, 228);stroke-width:1;" d="M 622.787, 359.328 L 646.573, 326.464 L 703.586, 350.25 L 671.63, 394.553 L 628.416, 376.396 L 630.232, 374.035 L 636.586, 365.138 L 622.787, 359.328 z "/>
<path style="fill:rgb(0, 255, 0);fill-opacity:0;fill-rule:evenodd;stroke:rgb(0, 255, 228);stroke-width:1;" d="M 681.071, 235.134 L 701.407, 207.717 L 705.22, 209.351 L 737.721, 222.969 L 749.887, 228.234 L 769.678, 236.586 L 758.42, 252.02 L 751.158, 248.933 L 734.09, 272.174 L 697.413, 256.559 L 705.583, 245.483 L 681.071, 235.134 z "/>
<path style="fill:rgb(0, 0, 255);fill-opacity:0;fill-rule:evenodd;stroke:rgb(0, 255, 228);stroke-width:1;" d="M 619.519, 132.183 L 651.112, 88.6064 L 655.107, 90.2406 L 669.451, 70.631 L 685.429, 48.4793 L 686.337, 47.3899 L 706.128, 55.7422 L 705.22, 56.8316 L 681.434, 89.6959 L 674.716, 98.7744 L 666.364, 110.032 L 670.359, 112.755 L 647.662, 143.985 L 619.519, 132.183 z "/>
<path style="fill:rgb(255, 255, 0);fill-opacity:0;fill-rule:evenodd;stroke:rgb(0, 255, 228);stroke-width:1;" d="M 831.049, 72.8098 L 845.756, 52.6555 L 866.455, 61.3709 L 883.159, 38.1298 L 919.837, 53.3818 L 888.243, 96.5956 L 831.049, 72.8098 z "/>
<path style="fill:rgb(255, 0, 0);fill-opacity:0;fill-rule:evenodd;stroke:rgb(0, 255, 228);stroke-width:1;" d="M 559.964, 695.597 L 591.012, 652.928 L 603.177, 658.012 L 611.53, 646.573 L 624.603, 652.202 L 616.432, 663.459 L 629.868, 669.088 L 598.82, 711.938 L 585.384, 706.31 L 576.85, 717.749 L 563.777, 712.301 L 572.129, 700.681 L 559.964, 695.597 z "/>
<path style="fill:rgb(0, 255, 0);fill-opacity:0;fill-rule:evenodd;stroke:rgb(0, 255, 228);stroke-width:1;" d="M 894.054, 396.732 L 926.01, 352.973 L 968.679, 370.949 L 970.495, 371.675 L 938.72, 415.433 L 894.054, 396.732 z "/>
<path style="fill:rgb(0, 0, 255);fill-opacity:0;fill-rule:evenodd;stroke:rgb(0, 255, 228);stroke-width:1;" d="M 249.66, 273.445 L 254.017, 267.453 L 271.63, 243.123 L 281.071, 230.05 L 319.02, 245.847 L 311.394, 256.196 L 319.564, 259.646 L 300.318, 286.155 L 299.773, 287.063 L 295.415, 293.055 L 249.66, 273.445 z "/>
<path style="fill:rgb(255, 255, 0);fill-opacity:0;fill-rule:evenodd;stroke:rgb(0, 255, 228);stroke-width:1;" d="M 575.579, 113.663 L 607.354, 70.0862 L 651.112, 88.6064 L 619.519, 132.183 L 575.579, 113.663 z "/>
<path style="fill:rgb(255, 0, 0);fill-opacity:0;fill-rule:evenodd;stroke:rgb(0, 255, 228);stroke-width:1;" d="M 734.453, 420.699 L 746.8, 403.995 L 766.954, 376.577 L 809.805, 394.553 L 777.304, 438.856 L 734.453, 420.699 z "/>
<path style="fill:rgb(0, 255, 0);fill-opacity:0;fill-rule:evenodd;stroke:rgb(0, 255, 228);stroke-width:1;" d="M 152.519, 695.415 L 184.113, 652.383 L 227.871, 670.722 L 196.096, 714.117 L 152.519, 695.415 z "/>
<path style="fill:rgb(0, 0, 255);fill-opacity:0;fill-rule:evenodd;stroke:rgb(0, 255, 228);stroke-width:1;" d="M 252.383, 737.903 L 284.34, 694.507 L 298.684, 700.499 L 312.483, 706.31 L 327.009, 712.483 L 318.112, 724.648 L 295.052, 756.06 L 252.383, 737.903 z "/>
<path style="fill:rgb(255, 255, 0);fill-opacity:0;fill-rule:evenodd;stroke:rgb(0, 255, 228);stroke-width:1;" d="M 968.679, 370.949 L 999.001, 329.187 L 1043.49, 347.889 L 1013.35, 389.65 L 970.495, 371.675 L 968.679, 370.949 z "/>
<path style="fill:rgb(255, 0, 0);fill-opacity:0;fill-rule:evenodd;stroke:rgb(0, 255, 228);stroke-width:1;" d="M 109.669, 677.44 L 140.536, 635.134 L 141.08, 634.408 L 184.113, 652.383 L 152.519, 695.415 L 109.669, 677.44 z "/>
<path style="fill:rgb(0, 255, 0);fill-opacity:0;fill-rule:evenodd;stroke:rgb(0, 255, 228);stroke-width:1;" d="M 933.636, 668.543 L 939.809, 660.191 L 956.514, 637.857 L 962.324, 629.687 L 971.766, 633.5 L 1000.09, 645.665 L 1008.99, 649.296 L 1003, 657.467 L 986.291, 679.982 L 980.118, 688.334 L 971.221, 684.521 L 949.614, 675.261 L 942.896, 672.537 L 933.636, 668.543 z "/>
<path style="fill:rgb(0, 0, 255);fill-opacity:0;fill-rule:evenodd;stroke:rgb(0, 255, 228);stroke-width:1;" d="M 925.647, 558.33 L 957.059, 515.66 L 967.408, 520.018 L 1000.45, 533.999 L 970.495, 574.852 L 939.083, 561.416 L 937.631, 563.414 L 925.647, 558.33 z "/>
<path style="fill:rgb(255, 255, 0);fill-opacity:0;fill-rule:evenodd;stroke:rgb(0, 255, 228);stroke-width:1;" d="M 639.31, 568.679 L 658.738, 532.547 L 699.591, 542.714 L 724.648, 549.069 L 708.852, 577.394 L 675.987, 564.321 L 667.635, 576.123 L 648.207, 570.858 L 639.31, 568.679 z "/>
<path style="fill:rgb(255, 0, 0);fill-opacity:0;fill-rule:evenodd;stroke:rgb(0, 255, 228);stroke-width:1;" d="M 1041.13, 607.354 L 1072.9, 563.958 L 1093.05, 572.492 L 1112.66, 580.844 L 1084.7, 618.611 L 1080.71, 624.24 L 1064.55, 617.34 L 1041.13, 607.354 z "/>
<path style="fill:rgb(0, 255, 0);fill-opacity:0;fill-rule:evenodd;stroke:rgb(0, 255, 228);stroke-width:1;" d="M 340.99, 230.595 L 358.965, 205.719 L 375.851, 212.801 L 374.943, 214.072 L 385.837, 218.611 L 386.745, 217.34 L 403.268, 224.24 L 402.36, 225.511 L 413.618, 230.05 L 414.344, 228.961 L 431.049, 235.86 L 414.526, 258.738 L 399.092, 252.202 L 397.64, 254.199 L 340.99, 230.595 z "/>
<path style="fill:rgb(0, 0, 255);fill-opacity:0;fill-rule:evenodd;stroke:rgb(0, 255, 228);stroke-width:1;" d="M 779.119, 634.952 L 780.39, 632.955 L 781.661, 631.139 L 783.114, 629.324 L 791.829, 617.34 L 793.282, 615.343 L 794.553, 613.527 L 796.187, 611.711 L 867, 641.489 L 865.547, 643.668 L 851.384, 662.914 L 849.932, 664.73 L 827.054, 655.107 L 824.694, 658.193 L 806.718, 650.749 L 809.079, 647.662 L 779.119, 634.952 z "/>
<path style="fill:rgb(255, 255, 0);fill-opacity:0;fill-rule:evenodd;stroke:rgb(0, 255, 228);stroke-width:1;" d="M 712.483, 578.847 L 737.177, 544.167 L 785.111, 564.866 L 762.415, 599.546 L 712.483, 578.847 z "/>
<path style="fill:rgb(255, 0, 0);fill-opacity:0;fill-rule:evenodd;stroke:rgb(0, 255, 228);stroke-width:1;" d="M 291.058, 417.249 L 312.12, 388.561 L 369.678, 412.528 L 348.616, 441.398 L 291.058, 417.249 z "/>
<path style="fill:rgb(0, 255, 0);fill-opacity:0;fill-rule:evenodd;stroke:rgb(0, 255, 228);stroke-width:1;" d="M 947.435, 221.516 L 961.961, 200.817 L 970.676, 188.47 L 978.847, 177.213 L 979.936, 175.76 L 981.026, 174.308 L 982.115, 172.855 L 983.023, 171.403 L 1001.18, 179.029 L 1019.34, 186.655 L 1015.34, 191.92 L 996.823, 208.261 L 981.571, 235.86 L 947.435, 221.516 z "/>
<path style="fill:rgb(0, 0, 255);fill-opacity:0;fill-rule:evenodd;stroke:rgb(0, 255, 228);stroke-width:1;" d="M 561.779, 347.889 L 593.373, 304.131 L 631.321, 320.109 L 603.722, 358.42 L 599.909, 363.867 L 561.779, 347.889 z "/>
<path style="fill:rgb(255, 255, 0);fill-opacity:0;fill-rule:evenodd;stroke:rgb(0, 255, 228);stroke-width:1;" d="M 1040.76, 160.872 L 1050.93, 147.072 L 1047.3, 145.438 L 1058.37, 130.368 L 1062.01, 131.82 L 1070.9, 119.655 L 1072.36, 117.658 L 1075.26, 118.929 L 1082.52, 121.834 L 1091.97, 125.828 L 1109.21, 133.091 L 1077.62, 176.487 L 1058.56, 168.498 L 1040.76, 160.872 z "/>
<path style="fill:rgb(255, 0, 0);fill-opacity:0;fill-rule:evenodd;stroke:rgb(0, 255, 228);stroke-width:1;" d="M 1013.35, 389.65 L 1043.49, 347.889 L 1045.12, 345.892 L 1082.89, 361.689 L 1080.89, 364.412 L 1051.11, 405.447 L 1013.35, 389.65 z "/>
<path style="fill:rgb(0, 255, 0);fill-opacity:0;fill-rule:evenodd;stroke:rgb(0, 255, 228);stroke-width:1;" d="M 88.2433, 612.074 L 94.5983, 603.541 L 114.026, 576.85 L 117.839, 571.766 L 119.473, 569.405 L 138.175, 577.394 L 157.422, 585.384 L 151.975, 592.828 L 132.547, 619.519 L 126.192, 628.053 L 88.2433, 612.074 z "/>
<path style="fill:rgb(0, 0, 255);fill-opacity:0;fill-rule:evenodd;stroke:rgb(0, 255, 228);stroke-width:1;" d="M 989.923, 754.789 L 1020.61, 712.483 L 1047.12, 677.44 L 1052.56, 670.177 L 1084.34, 682.524 L 1081.43, 687.245 L 1066.55, 682.705 L 1009.9, 760.599 L 989.923, 754.789 z "/>
<path style="fill:rgb(255, 255, 0);fill-opacity:0;fill-rule:evenodd;stroke:rgb(0, 255, 228);stroke-width:1;" d="M 278.348, 205.719 L 284.703, 196.823 L 290.876, 188.47 L 297.049, 179.936 L 358.965, 205.719 L 340.99, 230.595 L 334.09, 227.69 L 333.182, 228.597 L 278.348, 205.719 z "/>
<path style="fill:rgb(255, 0, 0);fill-opacity:0;fill-rule:evenodd;stroke:rgb(0, 255, 228);stroke-width:1;" d="M 596.278, 420.154 L 622.061, 384.748 L 665.456, 402.905 L 639.855, 438.493 L 596.278, 420.154 z "/>
<path style="fill:rgb(0, 255, 0);fill-opacity:0;fill-rule:evenodd;stroke:rgb(0, 255, 228);stroke-width:1;" d="M 939.809, 660.191 L 956.514, 637.857 L 965.592, 641.67 L 971.766, 633.5 L 1000.09, 645.665 L 994.099, 653.654 L 1003, 657.467 L 986.291, 679.982 L 977.576, 676.169 L 971.221, 684.521 L 949.614, 675.261 L 942.896, 672.537 L 949.069, 664.004 L 939.809, 660.191 z "/>
<path style="fill:rgb(0, 0, 255);fill-opacity:0;fill-rule:evenodd;stroke:rgb(0, 255, 228);stroke-width:1;" d="M 665.275, 300.681 L 684.521, 274.172 L 686.337, 274.898 L 741.534, 298.139 L 722.288, 324.648 L 665.275, 300.681 z "/>
<path style="fill:rgb(255, 255, 0);fill-opacity:0;fill-rule:evenodd;stroke:rgb(0, 255, 228);stroke-width:1;" d="M 647.662, 143.985 L 670.359, 112.755 L 674.172, 107.671 L 710.849, 123.105 L 702.86, 133.999 L 709.396, 136.723 L 690.876, 162.324 L 647.662, 143.985 z "/>
<path style="fill:rgb(255, 0, 0);fill-opacity:0;fill-rule:evenodd;stroke:rgb(0, 255, 228);stroke-width:1;" d="M 370.586, 704.857 L 374.035, 700.318 L 387.29, 681.979 L 444.485, 706.128 L 427.417, 729.369 L 425.783, 731.548 L 372.22, 709.033 L 374.035, 706.31 L 370.586, 704.857 z "/>
<path style="fill:rgb(0, 255, 0);fill-opacity:0;fill-rule:evenodd;stroke:rgb(0, 255, 228);stroke-width:1;" d="M 761.689, 651.294 L 772.583, 636.405 L 779.664, 639.31 L 778.575, 640.763 L 805.629, 652.202 L 806.718, 650.749 L 824.694, 658.193 L 871.176, 677.803 L 860.1, 692.873 L 761.689, 651.294 z "/>
<path style="fill:rgb(0, 0, 255);fill-opacity:0;fill-rule:evenodd;stroke:rgb(0, 255, 228);stroke-width:1;" d="M 284.521, 408.171 L 289.242, 401.816 L 293.781, 395.461 L 298.502, 389.106 L 373.309, 420.517 L 368.77, 426.872 L 364.049, 433.227 L 359.51, 439.582 L 284.521, 408.171 z "/>
<path style="fill:rgb(255, 255, 0);fill-opacity:0;fill-rule:evenodd;stroke:rgb(0, 255, 228);stroke-width:1;" d="M 641.852, 607.535 L 644.394, 604.085 L 691.966, 623.877 L 695.778, 618.974 L 736.813, 635.679 L 762.415, 599.546 L 778.756, 606.446 L 747.163, 651.657 L 641.852, 607.535 z "/>
<path style="fill:rgb(255, 0, 0);fill-opacity:0;fill-rule:evenodd;stroke:rgb(0, 255, 228);stroke-width:1;" d="M 172.855, 411.621 L 187.562, 391.648 L 197.912, 377.485 L 205.356, 366.409 L 233.318, 378.938 L 201.543, 423.241 L 172.855, 411.621 z "/>
<path style="fill:rgb(0, 255, 0);fill-opacity:0;fill-rule:evenodd;stroke:rgb(0, 255, 228);stroke-width:1;" d="M 942.896, 659.646 L 957.24, 640.036 L 966.5, 643.849 L 972.492, 635.679 L 997.186, 646.21 L 991.194, 654.38 L 1000.09, 658.193 L 985.565, 677.621 L 976.668, 673.99 L 970.495, 682.342 L 945.801, 671.811 L 951.975, 663.459 L 942.896, 659.646 z "/>
<path style="fill:rgb(0, 0, 255);fill-opacity:0;fill-rule:evenodd;stroke:rgb(0, 255, 228);stroke-width:1;" d="M 410.168, 264.73 L 414.526, 258.738 L 431.049, 235.86 L 474.081, 253.836 L 467.726, 262.551 L 453.2, 282.705 L 410.168, 264.73 z "/>
<path style="fill:rgb(255, 255, 0);fill-opacity:0;fill-rule:evenodd;stroke:rgb(0, 255, 228);stroke-width:1;" d="M 461.552, 65.7286 L 468.089, 56.65 L 483.886, 35.0431 L 490.059, 26.3277 L 493.327, 21.97 L 493.327, 21.97 L 521.289, 33.7721 L 489.514, 77.5306 L 461.552, 65.7286 z "/>
<path style="fill:rgb(255, 0, 0);fill-opacity:0;fill-rule:evenodd;stroke:rgb(0, 255, 228);stroke-width:1;" d="M 621.335, 573.763 L 661.099, 519.292 L 662.733, 517.658 L 664.548, 516.024 L 667.453, 514.389 L 669.269, 513.663 L 672.719, 513.3 L 676.169, 512.937 L 679.619, 513.3 L 683.613, 514.571 L 719.201, 529.641 L 715.025, 535.452 L 707.036, 532.365 L 699.591, 542.714 L 658.738, 532.547 L 639.31, 568.679 L 636.042, 573.763 L 632.41, 572.855 L 629.868, 576.668 L 621.335, 573.763 z "/>
<path style="fill:rgb(0, 255, 0);fill-opacity:0;fill-rule:evenodd;stroke:rgb(0, 255, 228);stroke-width:1;" d="M 777.304, 438.856 L 809.805, 394.553 L 837.04, 405.992 L 815.433, 435.406 L 804.539, 450.295 L 777.304, 438.856 z "/>
<path style="fill:rgb(0, 0, 255);fill-opacity:0;fill-rule:evenodd;stroke:rgb(0, 255, 228);stroke-width:1;" d="M 120.744, 70.4494 L 121.471, 69.5415 L 128.552, 59.7367 L 130.005, 60.463 L 153.972, 27.5987 L 179.573, 38.493 L 163.958, 60.0999 L 158.511, 67.3627 L 159.964, 67.9074 L 149.433, 82.433 L 120.744, 70.4494 z "/>
<path style="fill:rgb(255, 255, 0);fill-opacity:0;fill-rule:evenodd;stroke:rgb(0, 255, 228);stroke-width:1;" d="M 827.78, 282.524 L 835.406, 271.993 L 843.759, 260.735 L 898.774, 283.795 L 890.604, 295.234 L 884.975, 292.873 L 877.349, 303.223 L 827.78, 282.524 z "/>
<path style="fill:rgb(255, 0, 0);fill-opacity:0;fill-rule:evenodd;stroke:rgb(0, 255, 228);stroke-width:1;" d="M 287.608, 98.2297 L 301.952, 78.2569 L 359.51, 102.406 L 354.97, 108.579 L 352.792, 111.847 L 344.984, 122.379 L 332.819, 117.113 L 321.743, 112.574 L 287.608, 98.2297 z "/>
<path style="fill:rgb(0, 255, 0);fill-opacity:0;fill-rule:evenodd;stroke:rgb(0, 255, 228);stroke-width:1;" d="M 780.39, 632.955 L 781.661, 631.139 L 783.114, 629.324 L 791.829, 617.34 L 793.282, 615.343 L 794.553, 613.527 L 852.837, 638.221 L 838.856, 657.467 L 780.39, 632.955 z "/>
<path style="fill:rgb(0, 0, 255);fill-opacity:0;fill-rule:evenodd;stroke:rgb(0, 255, 228);stroke-width:1;" d="M 263.64, 436.859 L 270.54, 427.417 L 345.71, 458.647 L 352.61, 449.206 L 359.51, 439.582 L 372.946, 445.393 L 352.429, 473.718 L 338.811, 468.089 L 263.64, 436.859 z "/>
<path style="fill:rgb(255, 255, 0);fill-opacity:0;fill-rule:evenodd;stroke:rgb(0, 255, 228);stroke-width:1;" d="M 160.508, 631.321 L 179.936, 604.63 L 185.565, 597.186 L 195.915, 601.543 L 206.264, 605.901 L 215.343, 609.714 L 211.167, 615.161 L 212.982, 615.887 L 204.812, 627.145 L 202.996, 626.419 L 190.468, 643.849 L 160.508, 631.321 z "/>
<path style="fill:rgb(255, 0, 0);fill-opacity:0;fill-rule:evenodd;stroke:rgb(0, 255, 228);stroke-width:1;" d="M 886.972, 201.543 L 894.961, 190.831 L 903.132, 179.755 L 906.945, 181.389 L 908.942, 178.665 L 910.576, 179.392 L 912.574, 180.118 L 927.644, 186.291 L 943.441, 193.01 L 923.286, 220.427 L 907.671, 213.89 L 892.601, 207.535 L 890.785, 206.627 L 888.97, 205.901 L 890.967, 203.177 L 886.972, 201.543 z "/>
<path style="fill:rgb(0, 255, 0);fill-opacity:0;fill-rule:evenodd;stroke:rgb(0, 255, 228);stroke-width:1;" d="M 94.5983, 603.541 L 114.026, 576.85 L 151.975, 592.828 L 132.547, 619.519 L 94.5983, 603.541 z "/>
<path style="fill:rgb(0, 0, 255);fill-opacity:0;fill-rule:evenodd;stroke:rgb(0, 255, 228);stroke-width:1;" d="M 314.662, 61.0077 L 327.372, 43.3954 L 384.93, 67.7258 L 372.038, 85.1566 L 349.16, 75.5334 L 314.662, 61.0077 z "/>
<path style="fill:rgb(255, 255, 0);fill-opacity:0;fill-rule:evenodd;stroke:rgb(0, 255, 228);stroke-width:1;" d="M 582.115, 414.344 L 613.89, 370.222 L 623.695, 374.217 L 625.329, 371.857 L 630.232, 374.035 L 628.416, 376.396 L 671.63, 394.553 L 665.456, 402.905 L 622.061, 384.748 L 596.278, 420.154 L 582.115, 414.344 z "/>
<path style="fill:rgb(255, 0, 0);fill-opacity:0;fill-rule:evenodd;stroke:rgb(0, 255, 228);stroke-width:1;" d="M 136.723, 305.765 L 148.888, 289.06 L 196.278, 308.852 L 193.554, 312.846 L 171.766, 342.987 L 168.679, 346.8 L 158.874, 342.624 L 161.779, 338.629 L 162.869, 336.995 L 168.134, 329.914 L 174.308, 321.38 L 136.723, 305.765 z "/>
<path style="fill:rgb(0, 255, 0);fill-opacity:0;fill-rule:evenodd;stroke:rgb(0, 255, 228);stroke-width:1;" d="M 358.239, 726.827 L 371.493, 708.67 L 372.22, 709.033 L 425.783, 731.548 L 412.71, 749.705 L 358.239, 726.827 z "/>
<path style="fill:rgb(0, 0, 255);fill-opacity:0;fill-rule:evenodd;stroke:rgb(0, 255, 228);stroke-width:1;" d="M 132.547, 619.519 L 151.975, 592.828 L 157.422, 585.384 L 171.039, 591.194 L 185.565, 597.186 L 179.936, 604.63 L 160.508, 631.321 L 132.547, 619.519 z "/>
<path style="fill:rgb(255, 255, 0);fill-opacity:0;fill-rule:evenodd;stroke:rgb(0, 255, 228);stroke-width:1;" d="M 301.952, 78.2569 L 314.662, 61.0077 L 349.16, 75.5334 L 346.437, 79.1648 L 369.496, 88.788 L 359.51, 102.406 L 301.952, 78.2569 z "/>
<path style="fill:rgb(255, 0, 0);fill-opacity:0;fill-rule:evenodd;stroke:rgb(0, 255, 228);stroke-width:1;" d="M 478.438, 762.596 L 493.872, 741.353 L 536.541, 759.51 L 521.108, 780.572 L 478.438, 762.596 z "/>
<path style="fill:rgb(0, 255, 0);fill-opacity:0;fill-rule:evenodd;stroke:rgb(0, 255, 228);stroke-width:1;" d="M 93.3273, 365.865 L 105.311, 349.16 L 147.617, 366.954 L 128.915, 392.919 L 93.3273, 365.865 z "/>
<path style="fill:rgb(0, 0, 255);fill-opacity:0;fill-rule:evenodd;stroke:rgb(0, 255, 228);stroke-width:1;" d="M 304.494, 287.971 L 316.478, 271.63 L 325.556, 275.443 L 333.908, 264.004 L 362.96, 275.987 L 350.613, 292.873 L 348.434, 295.96 L 345.529, 299.955 L 324.103, 290.876 L 321.198, 294.871 L 304.494, 287.971 z "/>
<path style="fill:rgb(255, 255, 0);fill-opacity:0;fill-rule:evenodd;stroke:rgb(0, 255, 228);stroke-width:1;" d="M 691.602, 234.408 L 705.039, 216.432 L 752.247, 236.405 L 738.992, 254.562 L 691.602, 234.408 z "/>
<path style="fill:rgb(255, 0, 0);fill-opacity:0;fill-rule:evenodd;stroke:rgb(0, 255, 228);stroke-width:1;" d="M 256.741, 446.482 L 263.64, 436.859 L 338.811, 468.089 L 352.429, 473.718 L 345.347, 483.341 L 331.911, 477.712 L 256.741, 446.482 z "/>
<path style="fill:rgb(0, 255, 0);fill-opacity:0;fill-rule:evenodd;stroke:rgb(0, 255, 228);stroke-width:1;" d="M 160.508, 631.321 L 179.936, 604.63 L 200.817, 613.345 L 209.896, 617.158 L 202.996, 626.419 L 190.468, 643.849 L 160.508, 631.321 z "/>
<path style="fill:rgb(0, 0, 255);fill-opacity:0;fill-rule:evenodd;stroke:rgb(0, 255, 228);stroke-width:1;" d="M 541.443, 183.931 L 550.704, 171.039 L 554.698, 172.855 L 555.061, 174.489 L 557.422, 175.397 L 567.59, 161.416 L 560.145, 158.148 L 569.587, 145.256 L 570.132, 144.53 L 595.188, 155.243 L 585.747, 168.134 L 581.934, 166.5 L 579.573, 165.592 L 577.394, 168.498 L 579.936, 169.405 L 562.869, 192.828 L 541.443, 183.931 z "/>
<path style="fill:rgb(255, 255, 0);fill-opacity:0;fill-rule:evenodd;stroke:rgb(0, 255, 228);stroke-width:1;" d="M 774.217, 168.679 L 789.832, 147.435 L 824.33, 161.961 L 808.897, 183.023 L 800.363, 179.392 L 797.821, 183.023 L 790.014, 179.755 L 792.556, 176.487 L 774.217, 168.679 z "/>
<path style="fill:rgb(255, 0, 0);fill-opacity:0;fill-rule:evenodd;stroke:rgb(0, 255, 228);stroke-width:1;" d="M 899.138, 715.57 L 933.636, 668.543 L 942.896, 672.537 L 949.614, 675.261 L 915.66, 722.469 L 899.138, 715.57 z "/>
<path style="fill:rgb(0, 255, 0);fill-opacity:0;fill-rule:evenodd;stroke:rgb(0, 255, 228);stroke-width:1;" d="M 424.149, 194.099 L 444.485, 166.137 L 446.119, 166.863 L 445.756, 167.408 L 472.447, 178.847 L 469.178, 183.205 L 466.636, 186.836 L 455.197, 202.27 L 448.116, 199.365 L 447.027, 200.999 L 443.395, 202.27 L 424.149, 194.099 z "/>
<path style="fill:rgb(0, 0, 255);fill-opacity:0;fill-rule:evenodd;stroke:rgb(0, 255, 228);stroke-width:1;" d="M 734.09, 272.174 L 751.158, 248.933 L 758.42, 252.02 L 769.678, 236.586 L 749.887, 228.234 L 752.61, 224.603 L 779.301, 236.042 L 784.203, 238.039 L 753.7, 280.163 L 734.09, 272.174 z "/>
<path style="fill:rgb(255, 255, 0);fill-opacity:0;fill-rule:evenodd;stroke:rgb(0, 255, 228);stroke-width:1;" d="M 132.547, 619.519 L 151.975, 592.828 L 179.936, 604.63 L 160.508, 631.321 L 132.547, 619.519 z "/>
<path style="fill:rgb(255, 0, 0);fill-opacity:0;fill-rule:evenodd;stroke:rgb(0, 255, 228);stroke-width:1;" d="M 803.631, 315.933 L 811.621, 304.857 L 878.257, 332.819 L 870.268, 343.895 L 803.631, 315.933 z "/>
<path style="fill:rgb(0, 255, 0);fill-opacity:0;fill-rule:evenodd;stroke:rgb(0, 255, 228);stroke-width:1;" d="M 781.661, 631.139 L 783.114, 629.324 L 791.829, 617.34 L 793.282, 615.343 L 839.219, 634.771 L 827.599, 650.567 L 781.661, 631.139 z "/>
<path style="fill:rgb(0, 0, 255);fill-opacity:0;fill-rule:evenodd;stroke:rgb(0, 255, 228);stroke-width:1;" d="M 270.54, 427.417 L 277.621, 417.794 L 352.61, 449.206 L 345.71, 458.647 L 270.54, 427.417 z "/>
<path style="fill:rgb(255, 255, 0);fill-opacity:0;fill-rule:evenodd;stroke:rgb(0, 255, 228);stroke-width:1;" d="M 305.402, 379.483 L 312.483, 370.041 L 387.29, 401.271 L 380.39, 410.894 L 305.402, 379.483 z "/>
<path style="fill:rgb(255, 0, 0);fill-opacity:0;fill-rule:evenodd;stroke:rgb(0, 255, 228);stroke-width:1;" d="M 298.502, 389.106 L 305.402, 379.483 L 380.39, 410.894 L 373.309, 420.517 L 298.502, 389.106 z "/>
<path style="fill:rgb(0, 255, 0);fill-opacity:0;fill-rule:evenodd;stroke:rgb(0, 255, 228);stroke-width:1;" d="M 312.483, 370.041 L 319.383, 360.418 L 394.19, 391.648 L 387.29, 401.271 L 312.483, 370.041 z "/>
<path style="fill:rgb(0, 0, 255);fill-opacity:0;fill-rule:evenodd;stroke:rgb(0, 255, 228);stroke-width:1;" d="M 277.621, 417.794 L 284.521, 408.171 L 359.51, 439.582 L 352.61, 449.206 L 277.621, 417.794 z "/>
<path style="fill:rgb(255, 255, 0);fill-opacity:0;fill-rule:evenodd;stroke:rgb(0, 255, 228);stroke-width:1;" d="M 618.429, 593.191 L 629.868, 576.668 L 632.41, 572.855 L 636.042, 573.763 L 639.31, 568.679 L 648.207, 570.858 L 636.223, 587.199 L 654.562, 594.462 L 650.386, 600.454 L 695.778, 618.974 L 691.966, 623.877 L 644.394, 604.085 L 618.429, 593.191 z "/>
<path style="fill:rgb(255, 0, 0);fill-opacity:0;fill-rule:evenodd;stroke:rgb(0, 255, 228);stroke-width:1;" d="M 707.217, 105.674 L 710.304, 101.498 L 731.366, 72.4467 L 751.521, 80.9805 L 727.553, 114.026 L 710.486, 106.945 L 707.217, 105.674 z "/>
<path style="fill:rgb(0, 255, 0);fill-opacity:0;fill-rule:evenodd;stroke:rgb(0, 255, 228);stroke-width:1;" d="M 489.514, 77.5306 L 521.289, 33.7721 L 536.36, 40.1271 L 528.552, 50.8398 L 504.585, 83.8856 L 489.514, 77.5306 z "/>
<path style="fill:rgb(0, 0, 255);fill-opacity:0;fill-rule:evenodd;stroke:rgb(0, 255, 228);stroke-width:1;" d="M 979.029, 689.968 L 980.118, 688.334 L 986.291, 679.982 L 1003, 657.467 L 1008.99, 649.296 L 1024.78, 655.651 L 995.007, 696.686 L 979.029, 689.968 z "/>
<path style="fill:rgb(255, 255, 0);fill-opacity:0;fill-rule:evenodd;stroke:rgb(0, 255, 228);stroke-width:1;" d="M 424.694, 141.625 L 443.395, 116.024 L 456.65, 97.8665 L 471.357, 104.04 L 439.401, 147.798 L 424.694, 141.625 z "/>
<path style="fill:rgb(255, 0, 0);fill-opacity:0;fill-rule:evenodd;stroke:rgb(0, 255, 228);stroke-width:1;" d="M 128.915, 392.919 L 147.617, 366.954 L 153.972, 358.42 L 160.327, 349.523 L 165.229, 351.702 L 174.671, 355.697 L 168.316, 364.775 L 157.785, 379.119 L 143.259, 399.092 L 128.915, 392.919 z "/>
<path style="fill:rgb(0, 255, 0);fill-opacity:0;fill-rule:evenodd;stroke:rgb(0, 255, 228);stroke-width:1;" d="M 698.139, 461.916 L 703.768, 454.108 L 784.203, 488.062 L 778.393, 495.869 L 698.139, 461.916 z "/>
<path style="fill:rgb(0, 0, 255);fill-opacity:0;fill-rule:evenodd;stroke:rgb(0, 255, 228);stroke-width:1;" d="M 651.294, 294.507 L 658.193, 285.066 L 662.188, 279.437 L 665.819, 274.535 L 683.432, 250.204 L 697.413, 256.559 L 684.521, 274.172 L 665.275, 300.681 L 651.294, 294.507 z "/>
<path style="fill:rgb(255, 255, 0);fill-opacity:0;fill-rule:evenodd;stroke:rgb(0, 255, 228);stroke-width:1;" d="M 165.411, 60.8261 L 173.218, 50.2951 L 189.923, 57.3763 L 231.502, 74.9887 L 223.695, 85.5197 L 188.47, 70.4494 L 165.411, 60.8261 z "/>
<path style="fill:rgb(255, 0, 0);fill-opacity:0;fill-rule:evenodd;stroke:rgb(0, 255, 228);stroke-width:1;" d="M 298.684, 700.499 L 329.914, 657.83 L 344.258, 663.822 L 329.006, 684.703 L 328.461, 685.247 L 327.916, 685.066 L 312.483, 706.31 L 298.684, 700.499 z "/>
<path style="fill:rgb(0, 255, 0);fill-opacity:0;fill-rule:evenodd;stroke:rgb(0, 255, 228);stroke-width:1;" d="M 95.5061, 671.448 L 120.563, 637.131 L 126.373, 629.324 L 140.536, 635.134 L 109.669, 677.44 L 95.5061, 671.448 z "/>
<path style="fill:rgb(0, 0, 255);fill-opacity:0;fill-rule:evenodd;stroke:rgb(0, 255, 228);stroke-width:1;" d="M 143.259, 399.092 L 157.785, 379.119 L 187.562, 391.648 L 172.855, 411.621 L 143.259, 399.092 z "/>
<path style="fill:rgb(255, 255, 0);fill-opacity:0;fill-rule:evenodd;stroke:rgb(0, 255, 228);stroke-width:1;" d="M 603.722, 358.42 L 631.321, 320.109 L 646.573, 326.464 L 622.787, 359.328 L 618.793, 364.775 L 603.722, 358.42 z "/>
<path style="fill:rgb(255, 0, 0);fill-opacity:0;fill-rule:evenodd;stroke:rgb(0, 255, 228);stroke-width:1;" d="M 384.567, 119.292 L 388.561, 113.663 L 395.824, 103.677 L 413.436, 79.7095 L 427.78, 85.7013 L 414.526, 103.858 L 399.092, 125.284 L 384.567, 119.292 z "/>
<path style="fill:rgb(0, 255, 0);fill-opacity:0;fill-rule:evenodd;stroke:rgb(0, 255, 228);stroke-width:1;" d="M 424.875, 347.889 L 427.78, 343.713 L 446.482, 317.749 L 449.206, 317.385 L 458.466, 304.494 L 468.815, 308.852 L 459.555, 321.925 L 460.281, 323.74 L 452.837, 334.271 L 451.021, 336.632 L 444.666, 345.347 L 438.675, 353.7 L 424.875, 347.889 z "/>
<path style="fill:rgb(0, 0, 255);fill-opacity:0;fill-rule:evenodd;stroke:rgb(0, 255, 228);stroke-width:1;" d="M 636.405, 288.153 L 649.66, 270.177 L 645.12, 268.361 L 648.57, 263.822 L 652.928, 265.638 L 661.825, 253.473 L 665.093, 249.115 L 677.803, 254.562 L 668.906, 266.909 L 667.635, 266.364 L 662.733, 273.082 L 665.819, 274.535 L 662.188, 279.437 L 659.646, 279.256 L 657.104, 282.887 L 658.193, 285.066 L 651.294, 294.507 L 636.405, 288.153 z "/>
<path style="fill:rgb(255, 255, 0);fill-opacity:0;fill-rule:evenodd;stroke:rgb(0, 255, 228);stroke-width:1;" d="M 354.97, 108.579 L 359.51, 102.406 L 369.496, 88.788 L 372.038, 85.1566 L 384.93, 67.7258 L 399.455, 73.7177 L 382.025, 97.8665 L 375.67, 106.4 L 369.496, 103.858 L 367.499, 106.764 L 364.231, 105.311 L 360.236, 110.758 L 354.97, 108.579 z "/>
<path style="fill:rgb(255, 0, 0);fill-opacity:0;fill-rule:evenodd;stroke:rgb(0, 255, 228);stroke-width:1;" d="M 445.756, 59.0104 L 452.111, 50.2951 L 452.292, 50.1135 L 454.834, 49.7503 L 460.463, 42.3059 L 462.46, 43.2138 L 465.547, 38.8561 L 463.55, 38.1298 L 469.542, 29.9591 L 468.089, 28.325 L 474.262, 19.7912 L 490.059, 26.3277 L 483.886, 35.0431 L 481.344, 35.2247 L 475.352, 43.3954 L 474.081, 42.6691 L 471.176, 46.4821 L 472.628, 47.0268 L 467, 55.0159 L 468.089, 56.65 L 461.552, 65.7286 L 445.756, 59.0104 z "/>
<path style="fill:rgb(0, 255, 0);fill-opacity:0;fill-rule:evenodd;stroke:rgb(0, 255, 228);stroke-width:1;" d="M 889.333, 201.362 L 905.129, 179.936 L 929.278, 190.104 L 913.482, 211.53 L 889.333, 201.362 z "/>
<path style="fill:rgb(0, 0, 255);fill-opacity:0;fill-rule:evenodd;stroke:rgb(0, 255, 228);stroke-width:1;" d="M 149.433, 82.433 L 159.964, 67.9074 L 158.511, 67.3627 L 163.958, 60.0999 L 165.411, 60.8261 L 188.47, 70.4494 L 178.847, 83.5225 L 172.492, 92.2379 L 149.433, 82.433 z "/>
<path style="fill:rgb(255, 255, 0);fill-opacity:0;fill-rule:evenodd;stroke:rgb(0, 255, 228);stroke-width:1;" d="M 464.276, 215.343 L 480.799, 192.646 L 485.701, 194.825 L 487.335, 192.465 L 482.433, 190.286 L 490.604, 179.392 L 490.785, 179.21 L 505.311, 185.384 L 498.956, 194.099 L 495.869, 194.644 L 494.598, 194.281 L 492.056, 197.549 L 495.688, 199.183 L 479.165, 221.698 L 464.276, 215.343 z "/>
<path style="fill:rgb(255, 0, 0);fill-opacity:0;fill-rule:evenodd;stroke:rgb(0, 255, 228);stroke-width:1;" d="M 521.471, 240.399 L 529.278, 229.324 L 531.82, 228.779 L 541.988, 214.616 L 541.262, 212.801 L 548.706, 202.451 L 563.414, 208.443 L 555.788, 218.974 L 553.427, 219.337 L 543.078, 233.681 L 543.985, 235.497 L 535.996, 246.391 L 521.471, 240.399 z "/>
<path style="fill:rgb(0, 255, 0);fill-opacity:0;fill-rule:evenodd;stroke:rgb(0, 255, 228);stroke-width:1;" d="M 1008.26, 762.96 L 1009.9, 760.599 L 1055.65, 774.217 L 1086.16, 733.545 L 1092.15, 736.269 L 1058.01, 783.296 L 1008.26, 762.96 z "/>
<path style="fill:rgb(0, 0, 255);fill-opacity:0;fill-rule:evenodd;stroke:rgb(0, 255, 228);stroke-width:1;" d="M 450.113, 209.351 L 455.197, 202.27 L 466.636, 186.836 L 469.905, 188.289 L 472.447, 184.657 L 469.178, 183.205 L 472.447, 178.847 L 476.441, 173.4 L 480.073, 174.852 L 480.799, 173.945 L 482.796, 174.671 L 482.07, 175.76 L 490.604, 179.392 L 482.433, 190.286 L 478.438, 188.652 L 476.623, 191.012 L 480.799, 192.646 L 464.276, 215.343 L 450.113, 209.351 z "/>
<path style="fill:rgb(255, 255, 0);fill-opacity:0;fill-rule:evenodd;stroke:rgb(0, 255, 228);stroke-width:1;" d="M 535.996, 246.391 L 543.985, 235.497 L 546.346, 234.771 L 556.514, 220.608 L 555.788, 218.974 L 563.414, 208.443 L 577.213, 214.253 L 569.768, 224.784 L 567.953, 225.329 L 557.785, 239.673 L 557.966, 241.307 L 549.977, 252.202 L 535.996, 246.391 z "/>
<path style="fill:rgb(255, 0, 0);fill-opacity:0;fill-rule:evenodd;stroke:rgb(0, 255, 228);stroke-width:1;" d="M 504.585, 83.8856 L 528.552, 50.8398 L 543.259, 57.0132 L 519.11, 90.059 L 504.585, 83.8856 z "/>
<path style="fill:rgb(0, 255, 0);fill-opacity:0;fill-rule:evenodd;stroke:rgb(0, 255, 228);stroke-width:1;" d="M 474.626, 304.494 L 480.254, 296.686 L 482.796, 295.778 L 486.791, 290.15 L 488.606, 290.876 L 492.056, 285.974 L 488.97, 284.703 L 491.148, 281.616 L 492.419, 282.161 L 496.777, 276.169 L 496.596, 274.172 L 502.587, 265.819 L 517.113, 271.811 L 511.303, 279.982 L 508.398, 280.89 L 501.861, 289.968 L 499.682, 289.06 L 496.051, 294.144 L 498.048, 295.052 L 494.054, 300.681 L 494.78, 302.678 L 489.151, 310.486 L 474.626, 304.494 z "/>
<path style="fill:rgb(0, 0, 255);fill-opacity:0;fill-rule:evenodd;stroke:rgb(0, 255, 228);stroke-width:1;" d="M 445.03, 293.236 L 449.932, 286.337 L 451.384, 284.34 L 453.926, 283.613 L 457.921, 278.166 L 460.1, 279.074 L 463.731, 273.99 L 461.552, 273.082 L 468.271, 264.004 L 467.726, 262.551 L 474.081, 253.836 L 488.606, 260.009 L 482.796, 267.817 L 479.891, 268.543 L 473.173, 277.985 L 471.357, 277.258 L 467.907, 281.979 L 469.723, 282.705 L 465.729, 288.153 L 465.729, 290.331 L 459.918, 298.32 L 447.208, 293.055 L 446.482, 293.963 L 445.03, 293.236 z "/>
<path style="fill:rgb(255, 255, 0);fill-opacity:0;fill-rule:evenodd;stroke:rgb(0, 255, 228);stroke-width:1;" d="M 231.684, 174.671 L 238.221, 165.592 L 286.518, 185.747 L 286.155, 186.473 L 290.876, 188.47 L 284.703, 196.823 L 260.917, 187.018 L 231.684, 174.671 z "/>
<path style="fill:rgb(255, 0, 0);fill-opacity:0;fill-rule:evenodd;stroke:rgb(0, 255, 228);stroke-width:1;" d="M 459.918, 298.32 L 465.729, 290.331 L 468.452, 289.787 L 472.447, 284.158 L 474.626, 285.066 L 478.075, 280.163 L 475.715, 279.256 L 482.251, 270.359 L 482.796, 267.817 L 488.606, 260.009 L 502.587, 265.819 L 496.596, 274.172 L 494.054, 274.898 L 489.514, 281.071 L 491.148, 281.616 L 488.97, 284.703 L 485.338, 283.069 L 483.159, 286.155 L 481.888, 288.153 L 483.704, 288.879 L 479.709, 294.507 L 480.254, 296.686 L 474.626, 304.494 L 459.918, 298.32 z "/>
<path style="fill:rgb(0, 255, 0);fill-opacity:0;fill-rule:evenodd;stroke:rgb(0, 255, 228);stroke-width:1;" d="M 289.242, 401.816 L 293.781, 395.461 L 368.77, 426.872 L 364.049, 433.227 L 289.242, 401.816 z "/>
<path style="fill:rgb(0, 0, 255);fill-opacity:0;fill-rule:evenodd;stroke:rgb(0, 255, 228);stroke-width:1;" d="M 845.756, 52.6555 L 862.642, 29.596 L 878.802, 36.3141 L 883.159, 38.1298 L 866.455, 61.3709 L 845.756, 52.6555 z "/>
<path style="fill:rgb(255, 255, 0);fill-opacity:0;fill-rule:evenodd;stroke:rgb(0, 255, 228);stroke-width:1;" d="M 489.151, 310.486 L 494.78, 302.678 L 497.322, 301.77 L 501.316, 296.323 L 503.132, 297.049 L 506.582, 291.966 L 504.766, 291.239 L 511.303, 282.161 L 511.303, 279.982 L 517.113, 271.811 L 531.639, 277.985 L 525.828, 286.155 L 522.923, 286.882 L 516.387, 295.96 L 514.208, 295.052 L 510.576, 300.318 L 512.574, 301.226 L 508.579, 306.673 L 509.305, 308.852 L 503.677, 316.659 L 489.151, 310.486 z "/>
<path style="fill:rgb(255, 0, 0);fill-opacity:0;fill-rule:evenodd;stroke:rgb(0, 255, 228);stroke-width:1;" d="M 320.472, 258.375 L 326.645, 250.023 L 383.659, 273.808 L 377.485, 282.161 L 362.96, 275.987 L 333.908, 264.004 L 320.472, 258.375 z "/>
<path style="fill:rgb(0, 255, 0);fill-opacity:0;fill-rule:evenodd;stroke:rgb(0, 255, 228);stroke-width:1;" d="M 686.337, 274.898 L 692.51, 266.364 L 696.323, 267.817 L 725.193, 279.982 L 729.369, 281.798 L 747.708, 289.424 L 741.534, 298.139 L 686.337, 274.898 z "/>
<path style="fill:rgb(0, 0, 255);fill-opacity:0;fill-rule:evenodd;stroke:rgb(0, 255, 228);stroke-width:1;" d="M 295.052, 756.06 L 318.112, 724.648 L 333.182, 731.003 L 315.388, 755.515 L 314.299, 754.97 L 309.215, 762.052 L 295.052, 756.06 z "/>
<path style="fill:rgb(255, 255, 0);fill-opacity:0;fill-rule:evenodd;stroke:rgb(0, 255, 228);stroke-width:1;" d="M 189.923, 57.3763 L 198.094, 46.1189 L 239.673, 63.7313 L 231.502, 74.9887 L 189.923, 57.3763 z "/>
<path style="fill:rgb(255, 0, 0);fill-opacity:0;fill-rule:evenodd;stroke:rgb(0, 255, 228);stroke-width:1;" d="M 412.347, 337.358 L 428.325, 315.207 L 439.946, 319.927 L 447.935, 309.033 L 443.94, 307.399 L 445.211, 305.765 L 438.675, 303.041 L 442.306, 298.139 L 456.468, 303.949 L 446.482, 317.749 L 427.78, 343.713 L 412.347, 337.358 z "/>
<path style="fill:rgb(0, 255, 0);fill-opacity:0;fill-rule:evenodd;stroke:rgb(0, 255, 228);stroke-width:1;" d="M 238.221, 165.592 L 244.576, 156.877 L 297.594, 179.029 L 297.049, 179.936 L 290.876, 188.47 L 286.155, 186.473 L 286.518, 185.747 L 238.221, 165.592 z "/>
<path style="fill:rgb(0, 0, 255);fill-opacity:0;fill-rule:evenodd;stroke:rgb(0, 255, 228);stroke-width:1;" d="M 178.847, 83.5225 L 188.47, 70.4494 L 223.695, 85.5197 L 214.253, 98.5928 L 178.847, 83.5225 z "/>
<path style="fill:rgb(255, 255, 0);fill-opacity:0;fill-rule:evenodd;stroke:rgb(0, 255, 228);stroke-width:1;" d="M 438.675, 353.7 L 444.666, 345.347 L 447.208, 344.803 L 451.566, 338.811 L 451.021, 336.632 L 452.837, 334.271 L 455.379, 333.727 L 467.544, 316.841 L 478.62, 321.562 L 466.273, 338.448 L 467.181, 340.626 L 465.91, 342.442 L 462.823, 342.987 L 458.466, 349.16 L 459.374, 351.339 L 453.382, 359.691 L 438.675, 353.7 z "/>
<path style="fill:rgb(255, 0, 0);fill-opacity:0;fill-rule:evenodd;stroke:rgb(0, 255, 228);stroke-width:1;" d="M 696.323, 267.817 L 702.678, 258.92 L 734.09, 272.174 L 753.7, 280.163 L 754.244, 280.345 L 747.708, 289.424 L 729.369, 281.798 L 731.366, 279.256 L 727.009, 277.44 L 725.193, 279.982 L 696.323, 267.817 z "/>
<path style="fill:rgb(0, 255, 0);fill-opacity:0;fill-rule:evenodd;stroke:rgb(0, 255, 228);stroke-width:1;" d="M 878.802, 36.3141 L 886.791, 25.2383 L 890.422, 26.8724 L 927.644, 42.4875 L 919.837, 53.3818 L 883.159, 38.1298 L 878.802, 36.3141 z "/>
<path style="fill:rgb(0, 0, 255);fill-opacity:0;fill-rule:evenodd;stroke:rgb(0, 255, 228);stroke-width:1;" d="M 493.872, 741.353 L 501.498, 731.003 L 544.167, 749.16 L 536.541, 759.51 L 493.872, 741.353 z "/>
<path style="fill:rgb(255, 255, 0);fill-opacity:0;fill-rule:evenodd;stroke:rgb(0, 255, 228);stroke-width:1;" d="M 481.888, 371.675 L 487.88, 363.323 L 490.422, 362.96 L 494.78, 356.968 L 494.235, 354.789 L 494.417, 354.244 L 495.869, 352.429 L 496.051, 352.247 L 498.593, 351.884 L 510.758, 334.998 L 521.471, 339.355 L 509.124, 356.423 L 510.032, 358.42 L 508.761, 360.236 L 505.856, 360.962 L 501.316, 367.136 L 502.224, 369.315 L 496.232, 377.667 L 481.888, 371.675 z "/>
<path style="fill:rgb(255, 0, 0);fill-opacity:0;fill-rule:evenodd;stroke:rgb(0, 255, 228);stroke-width:1;" d="M 467.726, 365.683 L 473.718, 357.331 L 476.26, 356.968 L 480.617, 350.976 L 479.891, 348.797 L 480.254, 348.434 L 481.525, 346.618 L 481.707, 346.255 L 484.249, 345.892 L 496.414, 329.006 L 507.127, 333.364 L 494.78, 350.431 L 495.869, 352.429 L 494.417, 354.244 L 491.512, 354.97 L 486.972, 361.144 L 487.88, 363.323 L 481.888, 371.675 L 467.726, 365.683 z "/>
<path style="fill:rgb(0, 255, 0);fill-opacity:0;fill-rule:evenodd;stroke:rgb(0, 255, 228);stroke-width:1;" d="M 453.382, 359.691 L 459.374, 351.339 L 461.916, 350.976 L 466.273, 344.984 L 465.547, 342.805 L 465.91, 342.442 L 467.181, 340.626 L 467.363, 340.263 L 469.905, 339.9 L 482.251, 323.014 L 492.783, 327.553 L 480.617, 344.439 L 481.525, 346.618 L 480.254, 348.434 L 477.167, 348.979 L 472.628, 355.152 L 473.718, 357.331 L 467.726, 365.683 L 453.382, 359.691 z "/>
<path style="fill:rgb(0, 0, 255);fill-opacity:0;fill-rule:evenodd;stroke:rgb(0, 255, 228);stroke-width:1;" d="M 922.742, 663.822 L 950.34, 626.237 L 951.43, 624.966 L 962.324, 629.687 L 956.514, 637.857 L 939.809, 660.191 L 933.636, 668.543 L 922.742, 663.822 z "/>
<path style="fill:rgb(255, 255, 0);fill-opacity:0;fill-rule:evenodd;stroke:rgb(0, 255, 228);stroke-width:1;" d="M 190.286, 42.8507 L 194.462, 37.222 L 211.167, 44.3032 L 214.616, 39.764 L 247.118, 53.5633 L 239.673, 63.7313 L 198.094, 46.1189 L 190.286, 42.8507 z "/>
<path style="fill:rgb(255, 0, 0);fill-opacity:0;fill-rule:evenodd;stroke:rgb(0, 255, 228);stroke-width:1;" d="M 218.793, 192.646 L 225.329, 183.568 L 254.744, 195.733 L 271.085, 202.633 L 264.367, 211.711 L 248.025, 204.812 L 218.793, 192.646 z "/>
<path style="fill:rgb(0, 255, 0);fill-opacity:0;fill-rule:evenodd;stroke:rgb(0, 255, 228);stroke-width:1;" d="M 311.03, 761.507 L 315.388, 755.515 L 333.182, 731.003 L 335.179, 728.28 L 347.708, 733.545 L 327.916, 760.781 L 326.645, 760.236 L 322.288, 766.228 L 311.03, 761.507 z "/>
<path style="fill:rgb(0, 0, 255);fill-opacity:0;fill-rule:evenodd;stroke:rgb(0, 255, 228);stroke-width:1;" d="M 479.165, 221.698 L 495.688, 199.183 L 496.596, 197.73 L 500.59, 196.823 L 504.585, 191.375 L 513.3, 195.007 L 509.305, 200.454 L 510.395, 203.722 L 492.964, 227.508 L 479.165, 221.698 z "/>
<path style="fill:rgb(255, 255, 0);fill-opacity:0;fill-rule:evenodd;stroke:rgb(0, 255, 228);stroke-width:1;" d="M 699.591, 542.714 L 707.036, 532.365 L 715.025, 535.452 L 737.177, 544.167 L 712.483, 578.847 L 708.852, 577.394 L 724.648, 549.069 L 699.591, 542.714 z "/>
<path style="fill:rgb(255, 0, 0);fill-opacity:0;fill-rule:evenodd;stroke:rgb(0, 255, 228);stroke-width:1;" d="M 784.748, 630.958 L 794.553, 617.703 L 824.33, 630.232 L 814.526, 643.486 L 784.748, 630.958 z "/>
<path style="fill:rgb(0, 255, 0);fill-opacity:0;fill-rule:evenodd;stroke:rgb(0, 255, 228);stroke-width:1;" d="M 1012.44, 709.033 L 1033.68, 671.811 L 1047.12, 677.44 L 1020.61, 712.483 L 1012.44, 709.033 z "/>
<path style="fill:rgb(0, 0, 255);fill-opacity:0;fill-rule:evenodd;stroke:rgb(0, 255, 228);stroke-width:1;" d="M 569.768, 251.475 L 590.468, 223.332 L 613.709, 233.137 L 606.264, 243.305 L 591.375, 236.95 L 578.121, 255.107 L 569.768, 251.475 z "/>
<path style="fill:rgb(255, 255, 0);fill-opacity:0;fill-rule:evenodd;stroke:rgb(0, 255, 228);stroke-width:1;" d="M 214.616, 39.764 L 223.15, 27.9619 L 254.38, 41.2165 L 255.651, 41.7612 L 247.118, 53.5633 L 214.616, 39.764 z "/>
<path style="fill:rgb(255, 0, 0);fill-opacity:0;fill-rule:evenodd;stroke:rgb(0, 255, 228);stroke-width:1;" d="M 636.405, 79.8911 L 645.302, 67.7258 L 664.548, 41.3981 L 665.456, 40.1271 L 674.898, 44.1217 L 658.92, 66.0917 L 646.028, 83.8856 L 636.405, 79.8911 z "/>
<path style="fill:rgb(0, 255, 0);fill-opacity:0;fill-rule:evenodd;stroke:rgb(0, 255, 228);stroke-width:1;" d="M 507.308, 234.408 L 526.373, 207.717 L 540.717, 213.709 L 529.278, 229.324 L 521.471, 240.399 L 507.308, 234.408 z "/>
<path style="fill:rgb(0, 0, 255);fill-opacity:0;fill-rule:evenodd;stroke:rgb(0, 255, 228);stroke-width:1;" d="M 396.005, 129.46 L 399.092, 125.284 L 414.526, 103.858 L 429.233, 110.032 L 410.531, 135.633 L 396.005, 129.46 z "/>
<path style="fill:rgb(255, 255, 0);fill-opacity:0;fill-rule:evenodd;stroke:rgb(0, 255, 228);stroke-width:1;" d="M 111.484, 340.626 L 117.839, 331.911 L 155.424, 347.526 L 160.327, 349.523 L 153.972, 358.42 L 111.484, 340.626 z "/>
<path style="fill:rgb(255, 0, 0);fill-opacity:0;fill-rule:evenodd;stroke:rgb(0, 255, 228);stroke-width:1;" d="M 279.8, 108.942 L 287.608, 98.2297 L 321.743, 112.574 L 313.936, 123.286 L 279.8, 108.942 z "/>
<path style="fill:rgb(0, 255, 0);fill-opacity:0;fill-rule:evenodd;stroke:rgb(0, 255, 228);stroke-width:1;" d="M 410.531, 135.633 L 429.233, 110.032 L 443.395, 116.024 L 424.694, 141.625 L 410.531, 135.633 z "/>
<path style="fill:rgb(0, 0, 255);fill-opacity:0;fill-rule:evenodd;stroke:rgb(0, 255, 228);stroke-width:1;" d="M 105.311, 349.16 L 111.484, 340.626 L 153.972, 358.42 L 147.617, 366.954 L 105.311, 349.16 z "/>
<path style="fill:rgb(255, 255, 0);fill-opacity:0;fill-rule:evenodd;stroke:rgb(0, 255, 228);stroke-width:1;" d="M 345.529, 299.955 L 348.434, 295.96 L 350.613, 292.873 L 362.96, 275.987 L 377.485, 282.161 L 365.32, 298.865 L 362.96, 302.133 L 360.236, 305.946 L 345.529, 299.955 z "/>
<path style="fill:rgb(255, 0, 0);fill-opacity:0;fill-rule:evenodd;stroke:rgb(0, 255, 228);stroke-width:1;" d="M 382.025, 97.8665 L 399.455, 73.7177 L 400, 72.9914 L 413.981, 78.9832 L 413.436, 79.7095 L 395.824, 103.677 L 382.025, 97.8665 z "/>
<path style="fill:rgb(0, 255, 0);fill-opacity:0;fill-rule:evenodd;stroke:rgb(0, 255, 228);stroke-width:1;" d="M 955.969, 104.766 L 962.324, 96.0508 L 1001.36, 112.574 L 995.007, 121.289 L 955.969, 104.766 z "/>
<path style="fill:rgb(0, 0, 255);fill-opacity:0;fill-rule:evenodd;stroke:rgb(0, 255, 228);stroke-width:1;" d="M 295.415, 293.055 L 299.773, 287.063 L 320.654, 295.778 L 342.079, 304.675 L 356.605, 310.849 L 352.429, 316.841 L 295.415, 293.055 z "/>
<path style="fill:rgb(255, 255, 0);fill-opacity:0;fill-rule:evenodd;stroke:rgb(0, 255, 228);stroke-width:1;" d="M 967.953, 88.4249 L 974.308, 79.8911 L 1013.35, 96.2324 L 1006.99, 104.766 L 967.953, 88.4249 z "/>
<path style="fill:rgb(255, 0, 0);fill-opacity:0;fill-rule:evenodd;stroke:rgb(0, 255, 228);stroke-width:1;" d="M 171.947, 92.9641 L 172.492, 92.2379 L 178.847, 83.5225 L 214.253, 98.5928 L 207.354, 108.034 L 171.947, 92.9641 z "/>
<path style="fill:rgb(0, 255, 0);fill-opacity:0;fill-rule:evenodd;stroke:rgb(0, 255, 228);stroke-width:1;" d="M 117.839, 331.911 L 124.376, 323.014 L 161.779, 338.629 L 158.874, 342.624 L 155.424, 347.526 L 117.839, 331.911 z "/>
<path style="fill:rgb(0, 0, 255);fill-opacity:0;fill-rule:evenodd;stroke:rgb(0, 255, 228);stroke-width:1;" d="M 342.805, 690.513 L 358.057, 669.632 L 372.401, 675.806 L 358.965, 693.963 L 353.518, 701.407 L 347.708, 698.865 L 351.339, 694.144 L 342.805, 690.513 z "/>
<path style="fill:rgb(255, 255, 0);fill-opacity:0;fill-rule:evenodd;stroke:rgb(0, 255, 228);stroke-width:1;" d="M 705.22, 209.351 L 708.852, 204.085 L 712.483, 199.365 L 745.166, 212.982 L 741.534, 217.885 L 737.721, 222.969 L 705.22, 209.351 z "/>
<path style="fill:rgb(255, 0, 0);fill-opacity:0;fill-rule:evenodd;stroke:rgb(0, 255, 228);stroke-width:1;" d="M 689.968, 95.143 L 690.876, 93.6904 L 714.843, 61.0077 L 724.285, 65.0023 L 700.681, 97.5034 L 699.41, 99.1375 L 689.968, 95.143 z "/>
<path style="fill:rgb(0, 255, 0);fill-opacity:0;fill-rule:evenodd;stroke:rgb(0, 255, 228);stroke-width:1;" d="M 681.434, 89.6959 L 705.22, 56.8316 L 714.843, 61.0077 L 690.876, 93.6904 L 681.434, 89.6959 z "/>
<path style="fill:rgb(0, 0, 255);fill-opacity:0;fill-rule:evenodd;stroke:rgb(0, 255, 228);stroke-width:1;" d="M 130.731, 314.117 L 136.723, 305.765 L 174.308, 321.38 L 168.134, 329.914 L 165.774, 328.824 L 130.731, 314.117 z "/>
<path style="fill:rgb(255, 255, 0);fill-opacity:0;fill-rule:evenodd;stroke:rgb(0, 255, 228);stroke-width:1;" d="M 124.376, 323.014 L 130.731, 314.117 L 165.774, 328.824 L 160.508, 336.087 L 162.869, 336.995 L 161.779, 338.629 L 124.376, 323.014 z "/>
<path style="fill:rgb(255, 0, 0);fill-opacity:0;fill-rule:evenodd;stroke:rgb(0, 255, 228);stroke-width:1;" d="M 700.681, 97.5034 L 724.285, 65.0023 L 733.908, 68.9968 L 731.366, 72.4467 L 710.304, 101.498 L 700.681, 97.5034 z "/>
<path style="fill:rgb(0, 255, 0);fill-opacity:0;fill-rule:evenodd;stroke:rgb(0, 255, 228);stroke-width:1;" d="M 950.159, 112.755 L 955.969, 104.766 L 995.007, 121.289 L 989.015, 129.278 L 950.159, 112.755 z "/>
<path style="fill:rgb(0, 0, 255);fill-opacity:0;fill-rule:evenodd;stroke:rgb(0, 255, 228);stroke-width:1;" d="M 636.223, 587.199 L 648.207, 570.858 L 667.635, 576.123 L 654.562, 594.462 L 636.223, 587.199 z "/>
<path style="fill:rgb(255, 255, 0);fill-opacity:0;fill-rule:evenodd;stroke:rgb(0, 255, 228);stroke-width:1;" d="M 944.349, 120.563 L 950.159, 112.755 L 989.015, 129.278 L 983.386, 136.904 L 944.349, 120.563 z "/>
<path style="fill:rgb(255, 0, 0);fill-opacity:0;fill-rule:evenodd;stroke:rgb(0, 255, 228);stroke-width:1;" d="M 962.324, 96.0508 L 967.953, 88.4249 L 1006.99, 104.766 L 1001.36, 112.574 L 962.324, 96.0508 z "/>
<path style="fill:rgb(0, 255, 0);fill-opacity:0;fill-rule:evenodd;stroke:rgb(0, 255, 228);stroke-width:1;" d="M 348.434, 295.96 L 350.613, 292.873 L 362.96, 275.987 L 377.485, 282.161 L 365.32, 298.865 L 362.96, 302.133 L 348.434, 295.96 z "/>
<path style="fill:rgb(0, 0, 255);fill-opacity:0;fill-rule:evenodd;stroke:rgb(0, 255, 228);stroke-width:1;" d="M 329.006, 684.703 L 344.258, 663.822 L 358.057, 669.632 L 342.805, 690.513 L 329.006, 684.703 z "/>
<path style="fill:rgb(255, 255, 0);fill-opacity:0;fill-rule:evenodd;stroke:rgb(0, 255, 228);stroke-width:1;" d="M 114.026, 576.85 L 117.839, 571.766 L 119.473, 569.405 L 138.175, 577.394 L 157.422, 585.384 L 151.975, 592.828 L 114.026, 576.85 z "/>
<path style="fill:rgb(255, 0, 0);fill-opacity:0;fill-rule:evenodd;stroke:rgb(0, 255, 228);stroke-width:1;" d="M 522.923, 696.686 L 525.465, 693.055 L 571.221, 630.776 L 572.674, 628.779 L 577.031, 630.595 L 526.736, 698.32 L 522.923, 696.686 z "/>
<path style="fill:rgb(0, 255, 0);fill-opacity:0;fill-rule:evenodd;stroke:rgb(0, 255, 228);stroke-width:1;" d="M 358.965, 693.963 L 372.401, 675.806 L 387.29, 681.979 L 374.035, 700.318 L 358.965, 693.963 z "/>
<path style="fill:rgb(0, 0, 255);fill-opacity:0;fill-rule:evenodd;stroke:rgb(0, 255, 228);stroke-width:1;" d="M 787.653, 630.232 L 795.279, 619.882 L 821.425, 630.958 L 813.799, 641.307 L 787.653, 630.232 z "/>
<path style="fill:rgb(255, 255, 0);fill-opacity:0;fill-rule:evenodd;stroke:rgb(0, 255, 228);stroke-width:1;" d="M 193.554, 312.846 L 196.278, 308.852 L 263.822, 337.177 L 260.735, 341.353 L 193.554, 312.846 z "/>
<path style="fill:rgb(255, 0, 0);fill-opacity:0;fill-rule:evenodd;stroke:rgb(0, 255, 228);stroke-width:1;" d="M 414.526, 103.858 L 427.78, 85.7013 L 442.306, 91.8747 L 429.233, 110.032 L 414.526, 103.858 z "/>
<path style="fill:rgb(0, 255, 0);fill-opacity:0;fill-rule:evenodd;stroke:rgb(0, 255, 228);stroke-width:1;" d="M 429.233, 110.032 L 442.306, 91.8747 L 456.65, 97.8665 L 443.395, 116.024 L 429.233, 110.032 z "/>
<path style="fill:rgb(0, 0, 255);fill-opacity:0;fill-rule:evenodd;stroke:rgb(0, 255, 228);stroke-width:1;" d="M 205.356, 366.409 L 211.711, 357.694 L 240.399, 369.678 L 233.318, 378.938 L 205.356, 366.409 z "/>
<path style="fill:rgb(255, 255, 0);fill-opacity:0;fill-rule:evenodd;stroke:rgb(0, 255, 228);stroke-width:1;" d="M 268.906, 123.831 L 274.353, 116.387 L 308.488, 130.731 L 303.041, 138.175 L 268.906, 123.831 z "/>
<path style="fill:rgb(255, 0, 0);fill-opacity:0;fill-rule:evenodd;stroke:rgb(0, 255, 228);stroke-width:1;" d="M 225.329, 183.568 L 231.684, 174.671 L 260.917, 187.018 L 254.744, 195.733 L 225.329, 183.568 z "/>
<path style="fill:rgb(0, 255, 0);fill-opacity:0;fill-rule:evenodd;stroke:rgb(0, 255, 228);stroke-width:1;" d="M 274.353, 116.387 L 279.8, 108.942 L 313.936, 123.286 L 310.667, 127.463 L 308.488, 130.731 L 274.353, 116.387 z "/>
<path style="fill:rgb(0, 0, 255);fill-opacity:0;fill-rule:evenodd;stroke:rgb(0, 255, 228);stroke-width:1;" d="M 212.619, 201.18 L 218.793, 192.646 L 248.025, 204.812 L 241.852, 213.345 L 212.619, 201.18 z "/>
<path style="fill:rgb(255, 255, 0);fill-opacity:0;fill-rule:evenodd;stroke:rgb(0, 255, 228);stroke-width:1;" d="M 350.613, 292.873 L 362.96, 275.987 L 377.485, 282.161 L 365.32, 298.865 L 350.613, 292.873 z "/>
<path style="fill:rgb(255, 0, 0);fill-opacity:0;fill-rule:evenodd;stroke:rgb(0, 255, 228);stroke-width:1;" d="M 838.856, 657.467 L 852.837, 638.221 L 865.547, 643.668 L 851.384, 662.914 L 838.856, 657.467 z "/>
<path style="fill:rgb(0, 255, 0);fill-opacity:0;fill-rule:evenodd;stroke:rgb(0, 255, 228);stroke-width:1;" d="M 263.64, 131.094 L 268.906, 123.831 L 303.041, 138.175 L 297.776, 145.438 L 263.64, 131.094 z "/>
<path style="fill:rgb(0, 0, 255);fill-opacity:0;fill-rule:evenodd;stroke:rgb(0, 255, 228);stroke-width:1;" d="M 658.92, 66.0917 L 674.898, 44.1217 L 685.429, 48.4793 L 669.451, 70.631 L 658.92, 66.0917 z "/>
<path style="fill:rgb(255, 255, 0);fill-opacity:0;fill-rule:evenodd;stroke:rgb(0, 255, 228);stroke-width:1;" d="M 643.123, 208.261 L 648.207, 201.18 L 680.527, 214.072 L 675.443, 221.153 L 643.123, 208.261 z "/>
<path style="fill:rgb(255, 0, 0);fill-opacity:0;fill-rule:evenodd;stroke:rgb(0, 255, 228);stroke-width:1;" d="M 92.7826, 57.3763 L 100.227, 47.2084 L 111.303, 32.138 L 111.666, 31.5933 L 117.295, 33.9537 L 113.663, 39.2192 L 117.113, 40.6718 L 102.043, 61.3709 L 92.7826, 57.3763 z "/>
<path style="fill:rgb(0, 255, 0);fill-opacity:0;fill-rule:evenodd;stroke:rgb(0, 255, 228);stroke-width:1;" d="M 300.318, 286.155 L 319.564, 259.646 L 320.472, 258.375 L 333.908, 264.004 L 325.556, 275.443 L 316.478, 271.63 L 304.494, 287.971 L 300.318, 286.155 z "/>
<path style="fill:rgb(0, 0, 255);fill-opacity:0;fill-rule:evenodd;stroke:rgb(0, 255, 228);stroke-width:1;" d="M 297.776, 145.438 L 303.041, 138.175 L 308.488, 130.731 L 310.667, 127.463 L 322.651, 132.547 L 309.578, 150.34 L 297.776, 145.438 z "/>
<path style="fill:rgb(255, 255, 0);fill-opacity:0;fill-rule:evenodd;stroke:rgb(0, 255, 228);stroke-width:1;" d="M 151.975, 592.828 L 157.422, 585.384 L 171.039, 591.194 L 185.565, 597.186 L 179.936, 604.63 L 151.975, 592.828 z "/>
<path style="fill:rgb(255, 0, 0);fill-opacity:0;fill-rule:evenodd;stroke:rgb(0, 255, 228);stroke-width:1;" d="M 102.043, 61.3709 L 117.113, 40.6718 L 126.918, 44.8479 L 111.847, 65.547 L 102.043, 61.3709 z "/>
<path style="fill:rgb(0, 255, 0);fill-opacity:0;fill-rule:evenodd;stroke:rgb(0, 255, 228);stroke-width:1;" d="M 111.847, 65.547 L 126.918, 44.8479 L 136.541, 48.8425 L 128.552, 59.7367 L 121.471, 69.5415 L 111.847, 65.547 z "/>
<path style="fill:rgb(0, 0, 255);fill-opacity:0;fill-rule:evenodd;stroke:rgb(0, 255, 228);stroke-width:1;" d="M 320.654, 295.778 L 321.198, 294.871 L 324.103, 290.876 L 345.529, 299.955 L 360.236, 305.946 L 358.42, 308.307 L 356.605, 310.849 L 342.079, 304.675 L 320.654, 295.778 z "/>
<path style="fill:rgb(255, 255, 0);fill-opacity:0;fill-rule:evenodd;stroke:rgb(0, 255, 228);stroke-width:1;" d="M 327.009, 712.483 L 335.542, 700.681 L 349.887, 706.491 L 341.534, 718.293 L 327.009, 712.483 z "/>
<path style="fill:rgb(255, 0, 0);fill-opacity:0;fill-rule:evenodd;stroke:rgb(0, 255, 228);stroke-width:1;" d="M 684.34, 102.769 L 689.968, 95.143 L 699.41, 99.1375 L 700.681, 97.5034 L 710.304, 101.498 L 707.217, 105.674 L 703.404, 110.94 L 684.34, 102.769 z "/>
<path style="fill:rgb(0, 255, 0);fill-opacity:0;fill-rule:evenodd;stroke:rgb(0, 255, 228);stroke-width:1;" d="M 179.936, 604.63 L 185.565, 597.186 L 195.915, 601.543 L 206.264, 605.901 L 202.27, 611.348 L 200.817, 613.345 L 179.936, 604.63 z "/>
<path style="fill:rgb(0, 0, 255);fill-opacity:0;fill-rule:evenodd;stroke:rgb(0, 255, 228);stroke-width:1;" d="M 366.954, 117.839 L 374.217, 107.671 L 388.561, 113.663 L 384.567, 119.292 L 381.298, 123.831 L 366.954, 117.839 z "/>
<path style="fill:rgb(255, 255, 0);fill-opacity:0;fill-rule:evenodd;stroke:rgb(0, 255, 228);stroke-width:1;" d="M 742.079, 401.997 L 762.233, 374.399 L 766.954, 376.577 L 746.8, 403.995 L 742.079, 401.997 z "/>
<path style="fill:rgb(255, 0, 0);fill-opacity:0;fill-rule:evenodd;stroke:rgb(0, 255, 228);stroke-width:1;" d="M 194.099, 622.606 L 200.817, 613.345 L 202.27, 611.348 L 211.167, 615.161 L 212.982, 615.887 L 204.812, 627.145 L 202.996, 626.419 L 194.099, 622.606 z "/>
<path style="fill:rgb(0, 255, 0);fill-opacity:0;fill-rule:evenodd;stroke:rgb(0, 255, 228);stroke-width:1;" d="M 786.927, 109.85 L 791.103, 104.04 L 795.642, 106.037 L 799.637, 100.772 L 807.808, 104.222 L 799.818, 115.297 L 786.927, 109.85 z "/>
<path style="fill:rgb(0, 0, 255);fill-opacity:0;fill-rule:evenodd;stroke:rgb(0, 255, 228);stroke-width:1;" d="M 863.005, 72.0835 L 869.723, 62.8234 L 882.07, 67.9074 L 875.352, 77.1675 L 863.005, 72.0835 z "/>
<path style="fill:rgb(255, 255, 0);fill-opacity:0;fill-rule:evenodd;stroke:rgb(0, 255, 228);stroke-width:1;" d="M 737.721, 222.969 L 741.534, 217.885 L 780.39, 234.408 L 779.301, 236.042 L 752.61, 224.603 L 749.887, 228.234 L 737.721, 222.969 z "/>
<path style="fill:rgb(255, 0, 0);fill-opacity:0;fill-rule:evenodd;stroke:rgb(0, 255, 228);stroke-width:1;" d="M 94.5983, 568.679 L 98.4113, 563.595 L 107.853, 567.408 L 117.839, 571.766 L 114.026, 576.85 L 94.5983, 568.679 z "/>
<path style="fill:rgb(0, 255, 0);fill-opacity:0;fill-rule:evenodd;stroke:rgb(0, 255, 228);stroke-width:1;" d="M 876.804, 669.995 L 886.791, 656.378 L 893.509, 659.283 L 883.522, 672.719 L 876.804, 669.995 z "/>
<path style="fill:rgb(0, 0, 255);fill-opacity:0;fill-rule:evenodd;stroke:rgb(0, 255, 228);stroke-width:1;" d="M 674.716, 98.7744 L 681.434, 89.6959 L 690.876, 93.6904 L 689.968, 95.143 L 684.34, 102.769 L 674.716, 98.7744 z "/>
<path style="fill:rgb(255, 255, 0);fill-opacity:0;fill-rule:evenodd;stroke:rgb(0, 255, 228);stroke-width:1;" d="M 827.599, 650.567 L 839.219, 634.771 L 844.485, 636.95 L 833.046, 652.746 L 827.599, 650.567 z "/>
<path style="fill:rgb(255, 0, 0);fill-opacity:0;fill-rule:evenodd;stroke:rgb(0, 255, 228);stroke-width:1;" d="M 165.229, 351.702 L 168.679, 346.8 L 171.766, 342.987 L 181.389, 346.981 L 174.671, 355.697 L 165.229, 351.702 z "/>
<path style="fill:rgb(0, 255, 0);fill-opacity:0;fill-rule:evenodd;stroke:rgb(0, 255, 228);stroke-width:1;" d="M 865.729, 233.863 L 866.818, 232.41 L 886.791, 204.993 L 888.97, 205.901 L 868.815, 233.318 L 878.802, 237.494 L 878.438, 238.039 L 877.712, 238.947 L 867.726, 234.589 L 865.729, 233.863 z "/>
<path style="fill:rgb(0, 0, 255);fill-opacity:0;fill-rule:evenodd;stroke:rgb(0, 255, 228);stroke-width:1;" d="M 618.066, 733.182 L 664.004, 671.085 L 664.911, 671.63 L 656.378, 683.432 L 633.137, 714.843 L 619.337, 733.908 L 618.066, 733.182 z "/>
<path style="fill:rgb(255, 255, 0);fill-opacity:0;fill-rule:evenodd;stroke:rgb(0, 255, 228);stroke-width:1;" d="M 906.764, 177.758 L 926.373, 150.885 L 927.281, 149.614 L 929.46, 150.522 L 939.083, 154.698 L 938.538, 155.606 L 938.175, 155.969 L 928.37, 151.793 L 908.761, 178.665 L 906.764, 177.758 z "/>
<path style="fill:rgb(255, 0, 0);fill-opacity:0;fill-rule:evenodd;stroke:rgb(0, 255, 228);stroke-width:1;" d="M 524.376, 692.51 L 570.132, 630.413 L 571.221, 630.776 L 525.465, 693.055 L 524.376, 692.51 z "/>
<path style="fill:rgb(0, 255, 0);fill-opacity:0;fill-rule:evenodd;stroke:rgb(0, 255, 228);stroke-width:1;" d="M 200.817, 613.345 L 202.27, 611.348 L 206.264, 605.901 L 215.343, 609.714 L 211.167, 615.161 L 209.896, 617.158 L 200.817, 613.345 z "/>
<path style="fill:rgb(0, 0, 255);fill-opacity:0;fill-rule:evenodd;stroke:rgb(0, 255, 228);stroke-width:1;" d="M 868.815, 233.318 L 888.97, 205.901 L 890.785, 206.627 L 871.72, 232.592 L 879.709, 236.223 L 879.346, 236.768 L 878.802, 237.494 L 868.815, 233.318 z "/>
<path style="fill:rgb(255, 255, 0);fill-opacity:0;fill-rule:evenodd;stroke:rgb(0, 255, 228);stroke-width:1;" d="M 908.761, 178.665 L 928.37, 151.793 L 938.175, 155.969 L 937.631, 156.877 L 937.086, 157.422 L 929.278, 153.972 L 910.576, 179.392 L 908.942, 178.665 L 908.761, 178.665 z "/>
<path style="fill:rgb(255, 0, 0);fill-opacity:0;fill-rule:evenodd;stroke:rgb(0, 255, 228);stroke-width:1;" d="M 616.795, 196.459 L 620.245, 191.557 L 632.773, 196.459 L 629.324, 201.543 L 616.795, 196.459 z "/>
<path style="fill:rgb(0, 255, 0);fill-opacity:0;fill-rule:evenodd;stroke:rgb(0, 255, 228);stroke-width:1;" d="M 871.72, 232.592 L 890.785, 206.627 L 892.601, 207.535 L 874.626, 232.047 L 880.799, 234.771 L 879.709, 236.223 L 871.72, 232.592 z "/>
<path style="fill:rgb(0, 0, 255);fill-opacity:0;fill-rule:evenodd;stroke:rgb(0, 255, 228);stroke-width:1;" d="M 345.529, 299.955 L 348.434, 295.96 L 362.96, 302.133 L 360.236, 305.946 L 345.529, 299.955 z "/>
<path style="fill:rgb(255, 255, 0);fill-opacity:0;fill-rule:evenodd;stroke:rgb(0, 255, 228);stroke-width:1;" d="M 910.576, 179.392 L 929.278, 153.972 L 937.086, 157.422 L 936.178, 158.874 L 930.186, 156.151 L 912.574, 180.118 L 910.576, 179.392 z "/>
<path style="fill:rgb(255, 0, 0);fill-opacity:0;fill-rule:evenodd;stroke:rgb(0, 255, 228);stroke-width:1;" d="M 778.938, 627.69 L 787.835, 615.524 L 791.829, 617.34 L 783.114, 629.324 L 778.938, 627.69 z "/>
<path style="fill:rgb(0, 255, 0);fill-opacity:0;fill-rule:evenodd;stroke:rgb(0, 255, 228);stroke-width:1;" d="M 865.002, 231.502 L 885.157, 204.267 L 886.791, 204.993 L 866.818, 232.41 L 865.002, 231.502 z "/>
<path style="fill:rgb(0, 0, 255);fill-opacity:0;fill-rule:evenodd;stroke:rgb(0, 255, 228);stroke-width:1;" d="M 348.434, 295.96 L 350.613, 292.873 L 365.32, 298.865 L 362.96, 302.133 L 348.434, 295.96 z "/>
<path style="fill:rgb(255, 255, 0);fill-opacity:0;fill-rule:evenodd;stroke:rgb(0, 255, 228);stroke-width:1;" d="M 905.129, 177.031 L 924.739, 150.159 L 926.373, 150.885 L 906.764, 177.758 L 905.129, 177.031 z "/>
<path style="fill:rgb(255, 0, 0);fill-opacity:0;fill-rule:evenodd;stroke:rgb(0, 255, 228);stroke-width:1;" d="M 823.059, 128.915 L 825.238, 125.647 L 838.13, 131.094 L 835.769, 134.181 L 823.059, 128.915 z "/>
<path style="fill:rgb(0, 255, 0);fill-opacity:0;fill-rule:evenodd;stroke:rgb(0, 255, 228);stroke-width:1;" d="M 0, 485.52 L 21.2438, 456.468 L 30.1407, 444.122 L 40.6718, 429.778 L 52.2923, 413.981 L 63.9128, 398.003 L 307.581, 500.045 L 527.826, 592.283 L 463.913, 679.8 L 0, 485.52 z "/>
<path style="fill:rgb(0, 0, 255);fill-opacity:0;fill-rule:evenodd;stroke:rgb(0, 255, 228);stroke-width:1;" d="M 63.1866, 47.2084 L 68.2705, 40.3087 L 72.0835, 35.2247 L 78.8016, 37.9483 L 89.8774, 22.6963 L 82.7962, 19.7912 L 85.5197, 15.9782 L 89.8774, 9.80481 L 91.1484, 8.35225 L 119.837, 20.5175 L 111.666, 31.5933 L 111.303, 32.138 L 108.034, 30.867 L 107.127, 31.9564 L 105.129, 31.2301 L 106.037, 29.9591 L 103.677, 29.0513 L 92.601, 43.9401 L 100.227, 47.2084 L 92.7826, 57.3763 L 91.5116, 59.192 L 63.1866, 47.2084 z "/>
<path style="fill:rgb(255, 255, 0);fill-opacity:0;fill-rule:evenodd;stroke:rgb(0, 255, 228);stroke-width:1;" d="M 74.0808, 662.551 L 99.3191, 628.053 L 120.563, 637.131 L 95.5061, 671.448 L 83.1593, 666.364 L 74.0808, 662.551 z "/>
<path style="fill:rgb(255, 0, 0);fill-opacity:0;fill-rule:evenodd;stroke:rgb(0, 255, 228);stroke-width:1;" d="M 68.8153, 603.904 L 75.1702, 595.37 L 94.5983, 568.679 L 98.4113, 563.595 L 107.853, 567.408 L 117.839, 571.766 L 114.026, 576.85 L 94.5983, 603.541 L 88.2433, 612.074 L 68.8153, 603.904 z "/>
<path style="fill:rgb(0, 255, 0);fill-opacity:0;fill-rule:evenodd;stroke:rgb(0, 255, 228);stroke-width:1;" d="M 75.1702, 595.37 L 94.5983, 568.679 L 114.026, 576.85 L 94.5983, 603.541 L 75.1702, 595.37 z "/>
<path style="fill:rgb(0, 0, 255);fill-opacity:0;fill-rule:evenodd;stroke:rgb(0, 255, 228);stroke-width:1;" d="M 575.579, 38.1298 L 594.644, 11.9837 L 664.548, 41.3981 L 645.302, 67.7258 L 635.679, 63.7313 L 633.863, 66.2733 L 582.478, 44.6664 L 584.294, 41.7612 L 575.579, 38.1298 z "/>
<path style="fill:rgb(255, 255, 0);fill-opacity:0;fill-rule:evenodd;stroke:rgb(0, 255, 228);stroke-width:1;" d="M 761.689, 43.7585 L 769.315, 33.409 L 772.764, 34.8616 L 771.13, 37.222 L 775.851, 39.2192 L 798.003, 8.89696 L 852.292, 31.9564 L 830.322, 62.2787 L 833.772, 63.7313 L 827.962, 71.7204 L 761.689, 43.7585 z M 797.095, 44.4848 L 813.436, 51.2029 L 826.872, 32.6827 L 810.713, 25.783 L 797.095, 44.4848 z "/>
<path style="fill:rgb(255, 0, 0);fill-opacity:0;fill-rule:evenodd;stroke:rgb(0, 255, 228);stroke-width:1;" d="M 203.541, 19.6096 L 211.711, 8.53382 L 262.551, 30.1407 L 254.38, 41.2165 L 223.15, 27.9619 L 203.541, 19.6096 z "/>
<path style="fill:rgb(0, 255, 0);fill-opacity:0;fill-rule:evenodd;stroke:rgb(0, 255, 228);stroke-width:1;" d="M 398.911, 39.4008 L 405.266, 30.5039 L 407.808, 30.3223 L 421.97, 10.7127 L 420.699, 9.2601 L 424.875, 3.26827 L 427.417, 0 L 442.669, 6.53654 L 436.496, 15.0704 L 434.498, 15.2519 L 428.325, 23.7857 L 426.328, 23.0595 L 424.512, 25.4199 L 426.509, 26.3277 L 419.973, 35.2247 L 420.517, 37.0404 L 414.163, 45.7558 L 398.911, 39.4008 z "/>
<path style="fill:rgb(0, 0, 255);fill-opacity:0;fill-rule:evenodd;stroke:rgb(0, 255, 228);stroke-width:1;" d="M 429.959, 52.4739 L 436.314, 43.5769 L 436.496, 43.3954 L 439.219, 43.2138 L 444.666, 35.5878 L 446.664, 36.4957 L 449.75, 32.3196 L 447.753, 31.4117 L 453.745, 23.241 L 452.292, 21.6069 L 458.466, 13.0731 L 474.262, 19.7912 L 468.089, 28.325 L 465.547, 28.6882 L 459.555, 36.6773 L 458.284, 36.1325 L 455.561, 39.9455 L 456.832, 40.4902 L 451.203, 48.2978 L 452.292, 50.1135 L 452.111, 50.2951 L 445.756, 59.0104 L 429.959, 52.4739 z "/>
<path style="fill:rgb(255, 255, 0);fill-opacity:0;fill-rule:evenodd;stroke:rgb(0, 255, 228);stroke-width:1;" d="M 414.163, 45.7558 L 420.517, 37.0404 L 423.786, 36.8588 L 438.13, 16.8861 L 436.496, 15.0704 L 442.669, 6.53654 L 458.466, 13.0731 L 452.292, 21.6069 L 449.75, 21.97 L 443.94, 29.9591 L 442.488, 29.4144 L 439.764, 33.2274 L 441.035, 33.7721 L 435.406, 41.5797 L 436.496, 43.3954 L 436.314, 43.5769 L 429.959, 52.4739 L 414.163, 45.7558 z "/>
<path style="fill:rgb(255, 0, 0);fill-opacity:0;fill-rule:evenodd;stroke:rgb(0, 255, 228);stroke-width:1;" d="M 890.422, 26.8724 L 899.501, 14.1625 L 937.631, 30.1407 L 928.37, 42.8507 L 927.644, 42.4875 L 890.422, 26.8724 z "/>
<path style="fill:rgb(0, 255, 0);fill-opacity:0;fill-rule:evenodd;stroke:rgb(0, 255, 228);stroke-width:1;" d="M 611.711, 742.261 L 616.069, 735.906 L 618.066, 733.182 L 619.337, 733.908 L 633.137, 714.843 L 673.627, 732.274 L 697.049, 700.681 L 656.378, 683.432 L 664.911, 671.63 L 664.004, 671.085 L 666.001, 667.998 L 673.445, 658.193 L 809.079, 715.751 L 807.808, 717.749 L 809.623, 718.475 L 783.477, 754.607 L 776.577, 764.049 L 750.613, 800 L 611.711, 742.261 z "/>
<path style="fill:rgb(0, 0, 255);fill-opacity:0;fill-rule:evenodd;stroke:rgb(0, 255, 228);stroke-width:1;" d="M 1009.9, 760.599 L 1066.55, 682.705 L 1081.43, 687.245 L 1113.39, 697.231 L 1108.31, 703.949 L 1055.65, 774.217 L 1009.9, 760.599 z "/>
<path style="fill:rgb(255, 255, 0);fill-opacity:0;fill-rule:evenodd;stroke:rgb(0, 255, 228);stroke-width:1;" d="M 1008.26, 762.96 L 1009.9, 760.599 L 1055.65, 774.217 L 1086.16, 733.545 L 1092.15, 736.269 L 1058.01, 783.296 L 1008.26, 762.96 z "/>
<path style="fill:rgb(255, 0, 0);fill-opacity:0;fill-rule:evenodd;stroke:rgb(0, 255, 228);stroke-width:1;" d="M 989.923, 754.789 L 1020.61, 712.483 L 1047.12, 677.44 L 1052.56, 670.177 L 1084.34, 682.524 L 1081.43, 687.245 L 1066.55, 682.705 L 1009.9, 760.599 L 989.923, 754.789 z "/>
<path style="fill:rgb(0, 255, 0);fill-opacity:0;fill-rule:evenodd;stroke:rgb(0, 255, 228);stroke-width:1;" d="M 1086.16, 733.545 L 1108.31, 703.949 L 1114.12, 706.128 L 1092.15, 736.269 L 1086.16, 733.545 z "/>
<path style="fill:rgb(0, 0, 255);fill-opacity:0;fill-rule:evenodd;stroke:rgb(0, 255, 228);stroke-width:1;" d="M 1086.16, 733.545 L 1108.31, 703.949 L 1114.12, 706.128 L 1092.15, 736.269 L 1086.16, 733.545 z "/>
</svg>