<?xml version="1.0" encoding="iso-8859-1" standalone="no"?>
<!DOCTYPE svg PUBLIC "-//W3C//DTD SVG 1.0//EN" "http://www.w3.org/TR/2001/REC-SVG-20010904/DTD/svg10.dtd">
<svg xmlns="http://www.w3.org/2000/svg" width="1062" height="800">
<path style="fill:rgb(255, 0, 0);fill-opacity:0;fill-rule:evenodd;stroke:rgb(0, 255, 5);stroke-width:1;" d="M 479.355, 132.915 L 485.804, 102.105 L 508.733, 73.8021 L 547.067, 52.6646 L 591.85, 40.1254 L 640.215, 39.7671 L 677.833, 47.2906 L 719.749, 63.7707 L 739.454, 83.1169 L 664.935, 128.258 L 648.455, 117.152 L 627.676, 110.703 L 606.897, 112.136 L 588.267, 119.66 L 575.728, 134.348 L 570.354, 150.47 L 479.355, 132.915 z "/>
<path style="fill:rgb(0, 255, 0);fill-opacity:0;fill-rule:evenodd;stroke:rgb(0, 255, 5);stroke-width:1;" d="M 637.707, 627.676 L 644.514, 618.719 L 661.352, 625.526 L 688.222, 588.983 L 857.322, 660.636 L 830.452, 697.179 L 707.927, 645.231 L 701.12, 654.545 L 637.707, 627.676 z "/>
<path style="fill:rgb(0, 0, 255);fill-opacity:0;fill-rule:evenodd;stroke:rgb(0, 255, 5);stroke-width:1;" d="M 453.918, 391.939 L 470.757, 368.294 L 480.788, 372.593 L 506.583, 337.125 L 546.708, 353.963 L 536.677, 367.577 L 542.409, 370.443 L 532.736, 381.908 L 538.827, 385.49 L 542.051, 388.715 L 543.842, 393.014 L 543.484, 397.313 L 540.26, 401.612 L 552.441, 406.628 L 547.067, 414.51 L 575.011, 426.332 L 565.338, 439.23 L 531.661, 425.974 L 520.555, 441.379 L 489.028, 427.765 L 500.851, 411.644 L 453.918, 391.939 z "/>
<path style="fill:rgb(255, 255, 0);fill-opacity:0;fill-rule:evenodd;stroke:rgb(0, 255, 5);stroke-width:1;" d="M 945.096, 747.694 L 984.505, 714.375 L 1024.99, 741.961 L 1062.61, 767.756 L 1024.63, 800 L 1001.34, 783.878 L 1008.87, 777.429 L 976.623, 755.575 L 967.667, 763.099 L 945.096, 747.694 z "/>
<path style="fill:rgb(255, 0, 0);fill-opacity:0;fill-rule:evenodd;stroke:rgb(0, 255, 5);stroke-width:1;" d="M 0, 191.312 L 34.7515, 161.935 L 63.0542, 180.923 L 71.2942, 186.655 L 76.6682, 181.997 L 107.12, 202.777 L 64.8455, 238.603 L 21.4957, 209.225 L 23.6453, 207.434 L 0, 191.312 z "/>
<path style="fill:rgb(0, 255, 0);fill-opacity:0;fill-rule:evenodd;stroke:rgb(0, 255, 5);stroke-width:1;" d="M 451.769, 51.5898 L 461.442, 37.6176 L 467.532, 40.1254 L 484.729, 15.4053 L 478.997, 13.2557 L 488.312, 0 L 507.3, 7.52351 L 521.988, 13.2557 L 486.162, 65.562 L 467.891, 58.0385 L 451.769, 51.5898 z "/>
<path style="fill:rgb(0, 0, 255);fill-opacity:0;fill-rule:evenodd;stroke:rgb(0, 255, 5);stroke-width:1;" d="M 462.875, 184.505 L 471.473, 163.726 L 485.087, 166.95 L 547.783, 181.639 L 539.185, 202.06 L 501.209, 193.103 L 496.91, 203.493 L 483.654, 200.269 L 487.595, 190.237 L 462.875, 184.505 z "/>
<path style="fill:rgb(255, 255, 0);fill-opacity:0;fill-rule:evenodd;stroke:rgb(0, 255, 5);stroke-width:1;" d="M 547.067, 414.51 L 552.441, 406.628 L 557.815, 399.463 L 590.058, 413.077 L 583.968, 421.675 L 602.956, 429.557 L 594.357, 441.021 L 596.507, 441.379 L 597.223, 442.096 L 597.94, 442.812 L 598.657, 444.604 L 592.924, 452.127 L 591.85, 452.485 L 588.983, 452.844 L 586.476, 451.411 L 585.759, 449.261 L 586.476, 447.828 L 571.07, 441.021 L 565.338, 439.23 L 575.011, 426.332 L 547.067, 414.51 z "/>
<path style="fill:rgb(255, 0, 0);fill-opacity:0;fill-rule:evenodd;stroke:rgb(0, 255, 5);stroke-width:1;" d="M 498.343, 206.717 L 502.284, 196.686 L 526.646, 202.06 L 522.705, 212.091 L 498.343, 206.717 z "/>
</svg>