<?xml version="1.0" encoding="iso-8859-1" standalone="no"?>
<!DOCTYPE svg PUBLIC "-//W3C//DTD SVG 1.0//EN" "http://www.w3.org/TR/2001/REC-SVG-20010904/DTD/svg10.dtd">
<svg xmlns="http://www.w3.org/2000/svg" width="917" height="800">
<path style="fill:rgb(255, 0, 0);fill-opacity:0;fill-rule:evenodd;stroke:rgb(29, 0, 255);stroke-width:1;" d="M 613.293, 189.288 L 617.251, 183.954 L 646.16, 196.171 L 650.635, 189.976 L 687.804, 205.808 L 696.064, 209.249 L 708.626, 192.041 L 707.593, 188.256 L 722.392, 168.294 L 727.382, 167.434 L 810.669, 202.71 L 791.224, 229.211 L 785.201, 226.629 L 782.104, 230.931 L 779.695, 231.62 L 762.659, 224.564 L 762.659, 222.499 L 753.366, 218.542 L 752.162, 220.262 L 737.191, 213.895 L 738.223, 212.347 L 726.006, 207.184 L 724.973, 208.733 L 716.369, 205.119 L 701.914, 224.737 L 754.743, 247.107 L 755.087, 249.516 L 751.99, 253.818 L 757.84, 256.227 L 739.944, 280.663 L 738.74, 282.383 L 720.843, 274.812 L 718.606, 271.37 L 711.895, 268.445 L 711.207, 269.477 L 709.142, 269.821 L 703.635, 267.584 L 702.603, 265.692 L 703.463, 264.659 L 696.236, 261.562 L 695.375, 262.594 L 692.45, 262.766 L 687.46, 260.701 L 686.255, 258.636 L 686.943, 257.604 L 681.093, 255.195 L 676.447, 255.883 L 665.606, 251.409 L 664.401, 249 L 665.606, 247.107 L 659.411, 244.526 L 682.814, 212.519 L 658.206, 202.022 L 654.592, 206.84 L 613.293, 189.288 z "/>
<path style="fill:rgb(0, 255, 0);fill-opacity:0;fill-rule:evenodd;stroke:rgb(29, 0, 255);stroke-width:1;" d="M 725.317, 555.646 L 779.695, 480.964 L 811.185, 494.214 L 774.36, 544.633 L 791.224, 551.861 L 797.247, 543.601 L 829.77, 557.367 L 823.747, 565.627 L 830.458, 568.38 L 833.211, 564.595 L 848.01, 570.789 L 845.085, 574.575 L 894.988, 595.569 L 877.092, 619.832 L 827.361, 598.838 L 825.812, 600.903 L 811.357, 594.881 L 813.25, 592.127 L 748.204, 564.767 L 747.171, 566.315 L 737.191, 562.013 L 737.879, 560.981 L 725.317, 555.646 z "/>
<path style="fill:rgb(0, 0, 255);fill-opacity:0;fill-rule:evenodd;stroke:rgb(29, 0, 255);stroke-width:1;" d="M 524.5, 334.351 L 554.614, 292.708 L 574.575, 301.14 L 571.134, 306.13 L 625.683, 329.017 L 613.293, 346.053 L 618.456, 348.29 L 604.173, 367.735 L 524.5, 334.351 z M 566.143, 333.835 L 584.556, 341.407 L 594.364, 327.64 L 575.952, 320.069 L 566.143, 333.835 z "/>
<path style="fill:rgb(255, 255, 0);fill-opacity:0;fill-rule:evenodd;stroke:rgb(29, 0, 255);stroke-width:1;" d="M 662.852, 321.962 L 681.093, 296.838 L 701.914, 305.614 L 705.012, 304.754 L 715.853, 309.4 L 716.369, 311.637 L 720.155, 313.186 L 723.252, 312.497 L 736.847, 318.176 L 737.879, 320.241 L 741.493, 321.79 L 744.418, 321.273 L 755.087, 325.747 L 757.324, 328.673 L 776.941, 336.933 L 759.217, 361.54 L 731.168, 349.839 L 728.587, 353.452 L 682.641, 334.179 L 683.846, 332.631 L 674.898, 329.017 L 675.93, 327.468 L 662.852, 321.962 z "/>
<path style="fill:rgb(255, 0, 0);fill-opacity:0;fill-rule:evenodd;stroke:rgb(29, 0, 255);stroke-width:1;" d="M 562.013, 282.211 L 584.556, 251.065 L 677.479, 289.955 L 663.024, 310.088 L 657.69, 307.851 L 652.872, 314.562 L 643.235, 310.432 L 640.138, 314.906 L 629.297, 310.26 L 625.511, 308.712 L 634.115, 296.666 L 625.339, 293.052 L 621.553, 298.215 L 612.433, 294.429 L 610.024, 297.698 L 605.722, 295.978 L 608.131, 292.708 L 590.062, 285.137 L 585.072, 291.848 L 562.013, 282.211 z "/>
<path style="fill:rgb(0, 255, 0);fill-opacity:0;fill-rule:evenodd;stroke:rgb(29, 0, 255);stroke-width:1;" d="M 441.901, 444.139 L 472.876, 401.119 L 508.841, 416.089 L 530.867, 425.21 L 515.035, 447.236 L 527.253, 452.226 L 520.714, 461.174 L 514.347, 458.593 L 505.571, 470.639 L 441.901, 444.139 z M 477.866, 434.33 L 480.619, 435.707 L 482.512, 433.297 L 497.483, 439.664 L 507.464, 426.242 L 489.568, 418.499 L 477.866, 434.33 z "/>
<path style="fill:rgb(0, 0, 255);fill-opacity:0;fill-rule:evenodd;stroke:rgb(29, 0, 255);stroke-width:1;" d="M 722.908, 419.187 L 738.051, 398.365 L 742.869, 400.43 L 764.035, 371.177 L 774.188, 357.066 L 769.542, 355.001 L 784.341, 334.524 L 812.734, 346.397 L 775.565, 397.677 L 751.301, 431.06 L 722.908, 419.187 z "/>
<path style="fill:rgb(255, 255, 0);fill-opacity:0;fill-rule:evenodd;stroke:rgb(29, 0, 255);stroke-width:1;" d="M 402.151, 499.892 L 425.554, 468.058 L 490.6, 495.763 L 467.197, 527.597 L 456.7, 523.123 L 457.389, 521.919 L 456.7, 521.575 L 458.765, 518.993 L 450.85, 515.552 L 452.57, 513.143 L 432.093, 504.539 L 427.447, 510.733 L 402.151, 499.892 z "/>
<path style="fill:rgb(255, 0, 0);fill-opacity:0;fill-rule:evenodd;stroke:rgb(29, 0, 255);stroke-width:1;" d="M 786.234, 300.624 L 797.075, 285.825 L 798.968, 286.685 L 804.302, 279.286 L 812.562, 282.9 L 825.812, 264.659 L 828.565, 265.864 L 858.335, 278.598 L 855.066, 283.244 L 856.786, 285.825 L 852.829, 291.331 L 849.731, 291.676 L 846.462, 290.299 L 844.225, 293.224 L 847.494, 294.773 L 848.699, 297.01 L 832.179, 319.381 L 828.393, 320.413 L 809.12, 312.153 L 808.26, 310.26 L 810.325, 307.335 L 806.367, 305.786 L 804.474, 308.367 L 801.549, 309.056 L 787.61, 303.033 L 786.234, 300.624 z "/>
<path style="fill:rgb(0, 255, 0);fill-opacity:0;fill-rule:evenodd;stroke:rgb(29, 0, 255);stroke-width:1;" d="M 637.556, 665.089 L 650.635, 647.193 L 656.141, 649.43 L 665.95, 636.18 L 711.207, 655.281 L 705.012, 663.368 L 686.427, 688.836 L 639.277, 668.875 L 637.556, 665.089 z "/>
<path style="fill:rgb(0, 0, 255);fill-opacity:0;fill-rule:evenodd;stroke:rgb(29, 0, 255);stroke-width:1;" d="M 805.679, 736.847 L 816.176, 722.564 L 818.929, 723.769 L 824.78, 715.853 L 842.504, 723.424 L 844.913, 720.155 L 840.611, 718.262 L 851.28, 703.635 L 864.014, 708.97 L 880.878, 716.197 L 872.446, 727.554 L 874.683, 728.587 L 852.312, 759.217 L 832.007, 750.613 L 833.556, 748.548 L 805.679, 736.847 z "/>
<path style="fill:rgb(255, 255, 0);fill-opacity:0;fill-rule:evenodd;stroke:rgb(29, 0, 255);stroke-width:1;" d="M 823.575, 410.067 L 856.442, 364.982 L 897.053, 382.018 L 882.426, 402.323 L 866.939, 395.784 L 861.26, 403.528 L 871.585, 408.002 L 859.196, 425.038 L 844.225, 418.671 L 845.601, 416.778 L 839.75, 414.197 L 838.202, 416.262 L 823.575, 410.067 z "/>
<path style="fill:rgb(255, 0, 0);fill-opacity:0;fill-rule:evenodd;stroke:rgb(29, 0, 255);stroke-width:1;" d="M 526.909, 621.725 L 541.192, 601.936 L 546.526, 604.345 L 556.507, 590.579 L 578.017, 599.527 L 566.143, 615.702 L 573.026, 618.628 L 574.059, 617.251 L 583.695, 621.381 L 585.244, 619.316 L 606.582, 628.264 L 591.611, 648.914 L 526.909, 621.725 z "/>
<path style="fill:rgb(0, 255, 0);fill-opacity:0;fill-rule:evenodd;stroke:rgb(29, 0, 255);stroke-width:1;" d="M 306.13, 658.55 L 321.273, 637.901 L 345.709, 648.398 L 368.767, 658.206 L 367.907, 659.239 L 370.316, 660.271 L 378.232, 649.602 L 385.459, 652.7 L 379.953, 660.271 L 388.557, 663.885 L 371.177, 687.288 L 340.03, 674.037 L 340.718, 673.177 L 306.13, 658.55 z "/>
<path style="fill:rgb(0, 0, 255);fill-opacity:0;fill-rule:evenodd;stroke:rgb(29, 0, 255);stroke-width:1;" d="M 795.182, 449.129 L 820.478, 414.197 L 846.978, 425.382 L 844.569, 428.823 L 863.67, 436.911 L 858.507, 443.966 L 850.075, 440.525 L 840.955, 453.087 L 849.215, 456.7 L 841.988, 466.509 L 840.783, 468.23 L 795.182, 449.129 z "/>
<path style="fill:rgb(255, 255, 0);fill-opacity:0;fill-rule:evenodd;stroke:rgb(29, 0, 255);stroke-width:1;" d="M 854.205, 698.989 L 865.39, 683.674 L 870.381, 685.739 L 873.65, 681.093 L 863.67, 676.963 L 877.264, 658.378 L 914.605, 674.21 L 883.115, 717.057 L 880.878, 716.197 L 864.014, 708.97 L 867.283, 704.496 L 854.205, 698.989 z "/>
<path style="fill:rgb(255, 0, 0);fill-opacity:0;fill-rule:evenodd;stroke:rgb(29, 0, 255);stroke-width:1;" d="M 682.125, 116.498 L 700.366, 91.2024 L 720.843, 99.8064 L 716.025, 106.345 L 737.363, 115.294 L 741.321, 109.787 L 736.675, 107.894 L 737.535, 106.69 L 756.808, 114.777 L 753.194, 119.768 L 758.701, 122.177 L 744.074, 142.482 L 682.125, 116.498 z "/>
<path style="fill:rgb(0, 255, 0);fill-opacity:0;fill-rule:evenodd;stroke:rgb(29, 0, 255);stroke-width:1;" d="M 378.92, 531.383 L 402.151, 499.892 L 427.447, 510.733 L 424.521, 514.863 L 442.074, 522.263 L 436.911, 529.318 L 448.096, 534.136 L 439.32, 546.182 L 433.814, 543.773 L 431.405, 547.214 L 405.593, 536.201 L 401.979, 541.192 L 378.92, 531.383 z "/>
<path style="fill:rgb(0, 0, 255);fill-opacity:0;fill-rule:evenodd;stroke:rgb(29, 0, 255);stroke-width:1;" d="M 807.916, 104.28 L 815.315, 94.1278 L 826.328, 98.7739 L 835.104, 86.7283 L 824.091, 82.0822 L 832.867, 70.0366 L 878.985, 89.3095 L 870.037, 101.527 L 858.851, 96.881 L 850.247, 108.582 L 861.433, 113.229 L 854.033, 123.553 L 807.916, 104.28 z "/>
<path style="fill:rgb(255, 255, 0);fill-opacity:0;fill-rule:evenodd;stroke:rgb(29, 0, 255);stroke-width:1;" d="M 672.145, 485.782 L 675.586, 481.136 L 677.135, 481.652 L 681.953, 475.113 L 687.46, 473.736 L 678.339, 469.606 L 697.784, 442.762 L 731.512, 456.872 L 701.57, 498.172 L 672.145, 485.782 z "/>
<path style="fill:rgb(255, 0, 0);fill-opacity:0;fill-rule:evenodd;stroke:rgb(29, 0, 255);stroke-width:1;" d="M 680.576, 606.754 L 696.064, 585.588 L 699.161, 584.556 L 751.473, 606.754 L 750.097, 608.475 L 734.61, 629.641 L 724.973, 625.511 L 680.576, 606.754 z "/>
<path style="fill:rgb(0, 255, 0);fill-opacity:0;fill-rule:evenodd;stroke:rgb(29, 0, 255);stroke-width:1;" d="M 472.876, 401.119 L 495.074, 370.488 L 531.039, 385.459 L 527.253, 390.622 L 530.523, 391.998 L 527.425, 396.472 L 515.724, 412.476 L 512.454, 411.099 L 508.841, 416.089 L 472.876, 401.119 z "/>
<path style="fill:rgb(0, 0, 255);fill-opacity:0;fill-rule:evenodd;stroke:rgb(29, 0, 255);stroke-width:1;" d="M 601.42, 225.941 L 620.176, 200.301 L 642.547, 209.766 L 639.966, 213.379 L 661.304, 222.327 L 660.615, 223.188 L 665.606, 225.253 L 650.462, 245.902 L 649.946, 246.591 L 601.42, 225.941 z "/>
<path style="fill:rgb(255, 255, 0);fill-opacity:0;fill-rule:evenodd;stroke:rgb(29, 0, 255);stroke-width:1;" d="M 596.429, 595.913 L 627.92, 552.893 L 654.42, 564.25 L 622.758, 607.098 L 609.68, 601.592 L 599.871, 597.29 L 596.429, 595.913 z "/>
<path style="fill:rgb(255, 0, 0);fill-opacity:0;fill-rule:evenodd;stroke:rgb(29, 0, 255);stroke-width:1;" d="M 619.66, 518.133 L 634.975, 496.967 L 651.839, 504.022 L 686.599, 518.649 L 671.628, 539.299 L 641.342, 526.737 L 640.826, 527.425 L 621.725, 519.51 L 621.897, 519.165 L 619.66, 518.133 z "/>
<path style="fill:rgb(0, 255, 0);fill-opacity:0;fill-rule:evenodd;stroke:rgb(29, 0, 255);stroke-width:1;" d="M 817.896, 174.145 L 818.24, 173.457 L 842.504, 140.245 L 848.527, 131.813 L 870.553, 140.589 L 866.939, 145.408 L 864.014, 144.203 L 860.572, 149.021 L 867.627, 151.947 L 862.293, 159.346 L 863.67, 160.034 L 862.981, 160.895 L 854.549, 172.596 L 845.601, 184.986 L 845.429, 184.986 L 817.896, 174.145 z "/>
<path style="fill:rgb(0, 0, 255);fill-opacity:0;fill-rule:evenodd;stroke:rgb(29, 0, 255);stroke-width:1;" d="M 556.163, 777.285 L 571.822, 755.775 L 597.462, 766.616 L 594.536, 770.746 L 610.024, 777.113 L 611.228, 775.565 L 623.962, 780.899 L 610.024, 800 L 556.163, 777.285 z "/>
<path style="fill:rgb(255, 255, 0);fill-opacity:0;fill-rule:evenodd;stroke:rgb(29, 0, 255);stroke-width:1;" d="M 565.455, 495.59 L 583.695, 470.295 L 600.731, 477.35 L 602.108, 475.629 L 600.043, 474.769 L 607.959, 463.756 L 625.683, 471.327 L 598.322, 509.357 L 565.455, 495.59 z "/>
<path style="fill:rgb(255, 0, 0);fill-opacity:0;fill-rule:evenodd;stroke:rgb(29, 0, 255);stroke-width:1;" d="M 473.908, 742.697 L 490.6, 720.155 L 501.269, 724.629 L 507.12, 716.369 L 520.886, 722.22 L 519.337, 724.285 L 532.588, 729.963 L 511.422, 758.701 L 473.908, 742.697 z "/>
<path style="fill:rgb(0, 255, 0);fill-opacity:0;fill-rule:evenodd;stroke:rgb(29, 0, 255);stroke-width:1;" d="M 223.188, 741.321 L 223.532, 738.912 L 224.392, 736.502 L 225.597, 734.265 L 227.49, 732.2 L 228.522, 731.168 L 230.759, 729.619 L 232.136, 728.931 L 234.889, 727.726 L 236.438, 727.21 L 287.202, 748.376 L 288.578, 750.613 L 285.137, 755.259 L 281.867, 755.775 L 276.705, 763.003 L 278.081, 763.519 L 275.844, 766.616 L 223.704, 744.934 L 223.188, 742.525 L 223.188, 741.321 z "/>
<path style="fill:rgb(0, 0, 255);fill-opacity:0;fill-rule:evenodd;stroke:rgb(29, 0, 255);stroke-width:1;" d="M 426.931, 722.736 L 437.083, 708.97 L 442.762, 711.379 L 457.561, 691.245 L 485.094, 702.947 L 479.931, 710.002 L 474.08, 707.593 L 464.444, 720.671 L 470.295, 723.08 L 460.142, 736.847 L 426.931, 722.736 z "/>
<path style="fill:rgb(255, 255, 0);fill-opacity:0;fill-rule:evenodd;stroke:rgb(29, 0, 255);stroke-width:1;" d="M 315.767, 635.664 L 339.858, 602.968 L 353.624, 608.819 L 366.014, 614.154 L 358.443, 624.65 L 360.163, 625.339 L 351.732, 636.696 L 353.624, 637.556 L 345.709, 648.398 L 321.273, 637.901 L 315.767, 635.664 z "/>
<path style="fill:rgb(255, 0, 0);fill-opacity:0;fill-rule:evenodd;stroke:rgb(29, 0, 255);stroke-width:1;" d="M 601.764, 721.532 L 617.423, 700.022 L 657.69, 716.885 L 641.858, 738.395 L 601.764, 721.532 z "/>
<path style="fill:rgb(0, 255, 0);fill-opacity:0;fill-rule:evenodd;stroke:rgb(29, 0, 255);stroke-width:1;" d="M 330.049, 598.838 L 345.709, 577.845 L 360.508, 584.04 L 393.891, 598.322 L 386.492, 608.303 L 374.274, 603.14 L 369.456, 609.68 L 356.894, 604.345 L 353.624, 608.819 L 339.858, 602.968 L 330.049, 598.838 z "/>
<path style="fill:rgb(0, 0, 255);fill-opacity:0;fill-rule:evenodd;stroke:rgb(29, 0, 255);stroke-width:1;" d="M 502.99, 613.293 L 503.678, 612.433 L 520.886, 588.858 L 531.899, 593.504 L 535.857, 587.997 L 531.383, 586.105 L 535.513, 580.598 L 539.987, 582.319 L 545.838, 574.403 L 557.711, 579.393 L 541.192, 601.936 L 526.909, 621.725 L 525.877, 622.93 L 502.99, 613.293 z "/>
<path style="fill:rgb(255, 255, 0);fill-opacity:0;fill-rule:evenodd;stroke:rgb(29, 0, 255);stroke-width:1;" d="M 385.631, 705.184 L 395.268, 692.106 L 415.573, 664.573 L 434.158, 676.102 L 427.447, 685.051 L 406.281, 713.96 L 385.631, 705.184 z "/>
<path style="fill:rgb(255, 0, 0);fill-opacity:0;fill-rule:evenodd;stroke:rgb(29, 0, 255);stroke-width:1;" d="M 750.269, 145.063 L 761.97, 128.888 L 765.928, 130.609 L 779.867, 111.164 L 798.623, 118.907 L 782.964, 140.589 L 786.922, 142.138 L 776.769, 156.249 L 750.269, 145.063 z "/>
<path style="fill:rgb(0, 255, 0);fill-opacity:0;fill-rule:evenodd;stroke:rgb(29, 0, 255);stroke-width:1;" d="M 845.429, 184.986 L 845.601, 184.986 L 854.549, 172.596 L 861.777, 175.522 L 870.037, 163.992 L 862.981, 160.895 L 863.67, 160.034 L 871.585, 149.193 L 894.128, 158.658 L 877.608, 181.544 L 877.608, 184.986 L 879.673, 185.846 L 878.641, 187.395 L 872.274, 196.171 L 845.429, 184.986 z "/>
<path style="fill:rgb(0, 0, 255);fill-opacity:0;fill-rule:evenodd;stroke:rgb(29, 0, 255);stroke-width:1;" d="M 643.923, 167.778 L 655.797, 151.775 L 707.593, 173.629 L 698.129, 186.707 L 674.382, 176.726 L 672.145, 179.824 L 643.923, 167.778 z "/>
<path style="fill:rgb(255, 255, 0);fill-opacity:0;fill-rule:evenodd;stroke:rgb(29, 0, 255);stroke-width:1;" d="M 631.017, 753.194 L 636.008, 746.483 L 641.858, 738.395 L 657.69, 716.885 L 661.648, 711.551 L 683.674, 720.843 L 682.125, 723.08 L 665.778, 745.279 L 663.368, 748.72 L 650.807, 743.386 L 640.654, 757.324 L 631.017, 753.194 z "/>
<path style="fill:rgb(255, 0, 0);fill-opacity:0;fill-rule:evenodd;stroke:rgb(29, 0, 255);stroke-width:1;" d="M 244.009, 716.541 L 244.526, 713.788 L 245.73, 711.207 L 246.419, 709.83 L 248.311, 707.593 L 250.721, 705.356 L 253.474, 703.635 L 291.159, 719.294 L 293.741, 718.778 L 299.419, 721.187 L 300.968, 723.424 L 303.893, 724.457 L 301.484, 727.726 L 306.475, 729.791 L 299.247, 739.6 L 294.773, 737.707 L 244.009, 716.541 z "/>
<path style="fill:rgb(0, 255, 0);fill-opacity:0;fill-rule:evenodd;stroke:rgb(29, 0, 255);stroke-width:1;" d="M 552.721, 292.02 L 560.465, 281.523 L 562.013, 282.211 L 585.072, 291.848 L 625.511, 308.712 L 629.297, 310.26 L 621.553, 320.757 L 574.575, 301.14 L 554.614, 292.708 L 552.721, 292.02 z "/>
<path style="fill:rgb(0, 0, 255);fill-opacity:0;fill-rule:evenodd;stroke:rgb(29, 0, 255);stroke-width:1;" d="M 651.839, 504.022 L 666.81, 483.545 L 672.145, 485.782 L 701.57, 498.172 L 686.599, 518.649 L 651.839, 504.022 z "/>
<path style="fill:rgb(255, 255, 0);fill-opacity:0;fill-rule:evenodd;stroke:rgb(29, 0, 255);stroke-width:1;" d="M 290.299, 763.691 L 315.079, 729.275 L 335.384, 737.707 L 315.939, 764.896 L 310.604, 772.123 L 290.299, 763.691 z "/>
<path style="fill:rgb(255, 0, 0);fill-opacity:0;fill-rule:evenodd;stroke:rgb(29, 0, 255);stroke-width:1;" d="M 570.961, 585.072 L 577.845, 575.78 L 600.043, 545.666 L 600.731, 544.461 L 617.767, 551.861 L 587.825, 592.299 L 585.072, 591.095 L 570.961, 585.072 z "/>
<path style="fill:rgb(0, 255, 0);fill-opacity:0;fill-rule:evenodd;stroke:rgb(29, 0, 255);stroke-width:1;" d="M 318.348, 786.234 L 319.036, 785.373 L 349.15, 743.386 L 368.251, 751.301 L 348.634, 778.318 L 340.891, 775.048 L 329.361, 790.88 L 322.822, 788.299 L 318.348, 786.234 z "/>
<path style="fill:rgb(0, 0, 255);fill-opacity:0;fill-rule:evenodd;stroke:rgb(29, 0, 255);stroke-width:1;" d="M 633.254, 182.577 L 643.923, 167.778 L 672.145, 179.824 L 668.531, 184.642 L 692.106, 194.622 L 690.213, 197.032 L 693.138, 198.408 L 687.804, 205.808 L 650.635, 189.976 L 633.254, 182.577 z "/>
<path style="fill:rgb(255, 255, 0);fill-opacity:0;fill-rule:evenodd;stroke:rgb(29, 0, 255);stroke-width:1;" d="M 495.074, 370.488 L 503.678, 358.443 L 552.893, 378.92 L 552.377, 379.609 L 559.604, 382.706 L 551.172, 393.891 L 531.039, 385.459 L 495.074, 370.488 z "/>
<path style="fill:rgb(255, 0, 0);fill-opacity:0;fill-rule:evenodd;stroke:rgb(29, 0, 255);stroke-width:1;" d="M 548.075, 556.507 L 567.864, 529.662 L 568.38, 528.974 L 579.738, 533.792 L 578.189, 536.029 L 589.202, 540.675 L 588.858, 541.02 L 570.617, 565.799 L 565.111, 563.39 L 561.153, 568.724 L 549.796, 563.906 L 553.409, 558.744 L 548.075, 556.507 z "/>
<path style="fill:rgb(0, 255, 0);fill-opacity:0;fill-rule:evenodd;stroke:rgb(29, 0, 255);stroke-width:1;" d="M 364.638, 696.236 L 371.177, 687.288 L 388.557, 663.885 L 389.589, 662.336 L 404.732, 668.875 L 389.417, 689.697 L 395.268, 692.106 L 385.631, 705.184 L 364.638, 696.236 z "/>
<path style="fill:rgb(0, 0, 255);fill-opacity:0;fill-rule:evenodd;stroke:rgb(29, 0, 255);stroke-width:1;" d="M 370.832, 542.224 L 378.92, 531.383 L 401.979, 541.192 L 432.953, 554.442 L 424.866, 565.283 L 424.693, 565.283 L 370.832, 542.224 z "/>
<path style="fill:rgb(255, 255, 0);fill-opacity:0;fill-rule:evenodd;stroke:rgb(29, 0, 255);stroke-width:1;" d="M 460.142, 736.847 L 470.295, 723.08 L 479.931, 710.002 L 485.094, 702.947 L 491.461, 694.343 L 503.162, 699.161 L 505.227, 700.194 L 496.623, 711.895 L 490.6, 720.155 L 473.908, 742.697 L 460.142, 736.847 z "/>
<path style="fill:rgb(255, 0, 0);fill-opacity:0;fill-rule:evenodd;stroke:rgb(29, 0, 255);stroke-width:1;" d="M 389.589, 638.417 L 412.992, 606.41 L 432.093, 614.498 L 423.145, 626.715 L 418.499, 624.823 L 414.369, 630.157 L 419.187, 632.222 L 408.518, 646.505 L 389.589, 638.417 z "/>
<path style="fill:rgb(0, 255, 0);fill-opacity:0;fill-rule:evenodd;stroke:rgb(29, 0, 255);stroke-width:1;" d="M 368.423, 643.063 L 399.57, 600.731 L 412.992, 606.41 L 389.589, 638.417 L 382.018, 648.742 L 368.423, 643.063 z "/>
<path style="fill:rgb(0, 0, 255);fill-opacity:0;fill-rule:evenodd;stroke:rgb(29, 0, 255);stroke-width:1;" d="M 363.089, 552.893 L 370.832, 542.224 L 424.693, 565.283 L 416.95, 575.78 L 363.089, 552.893 z "/>
<path style="fill:rgb(255, 255, 0);fill-opacity:0;fill-rule:evenodd;stroke:rgb(29, 0, 255);stroke-width:1;" d="M 236.438, 727.21 L 244.009, 716.541 L 294.773, 737.707 L 296.322, 740.46 L 290.471, 748.548 L 287.202, 748.376 L 236.438, 727.21 z "/>
<path style="fill:rgb(255, 0, 0);fill-opacity:0;fill-rule:evenodd;stroke:rgb(29, 0, 255);stroke-width:1;" d="M 779.867, 244.87 L 791.224, 229.211 L 810.669, 202.71 L 826.328, 209.249 L 804.646, 238.847 L 796.558, 235.578 L 787.438, 248.139 L 779.867, 244.87 z "/>
<path style="fill:rgb(0, 255, 0);fill-opacity:0;fill-rule:evenodd;stroke:rgb(29, 0, 255);stroke-width:1;" d="M 623.274, 464.272 L 625.339, 461.519 L 652.7, 425.038 L 655.281, 425.038 L 658.034, 425.382 L 659.239, 425.898 L 661.82, 426.758 L 663.885, 427.963 L 664.745, 428.823 L 666.466, 430.372 L 666.982, 431.405 L 648.225, 456.356 L 643.235, 454.291 L 643.923, 458.249 L 640.826, 462.379 L 636.524, 464.788 L 637.556, 465.132 L 634.459, 469.09 L 623.274, 464.272 z "/>
<path style="fill:rgb(0, 0, 255);fill-opacity:0;fill-rule:evenodd;stroke:rgb(29, 0, 255);stroke-width:1;" d="M 655.797, 151.775 L 664.057, 140.589 L 711.035, 160.551 L 705.7, 167.778 L 710.518, 169.671 L 707.593, 173.629 L 655.797, 151.775 z "/>
<path style="fill:rgb(255, 255, 0);fill-opacity:0;fill-rule:evenodd;stroke:rgb(29, 0, 255);stroke-width:1;" d="M 423.145, 578.533 L 441.385, 553.409 L 463.067, 562.53 L 444.827, 587.653 L 423.145, 578.533 z "/>
<path style="fill:rgb(255, 0, 0);fill-opacity:0;fill-rule:evenodd;stroke:rgb(29, 0, 255);stroke-width:1;" d="M 576.812, 609.507 L 581.114, 603.657 L 584.384, 605.033 L 588.169, 599.871 L 580.942, 596.773 L 585.072, 591.095 L 587.825, 592.299 L 596.429, 595.913 L 599.871, 597.29 L 598.838, 599.871 L 605.894, 602.796 L 609.68, 601.592 L 622.758, 607.098 L 610.368, 623.79 L 597.806, 618.456 L 597.978, 615.702 L 590.234, 612.605 L 586.449, 613.637 L 576.812, 609.507 z "/>
<path style="fill:rgb(0, 255, 0);fill-opacity:0;fill-rule:evenodd;stroke:rgb(29, 0, 255);stroke-width:1;" d="M 312.325, 775.909 L 319.208, 766.272 L 315.939, 764.896 L 335.384, 737.707 L 349.15, 743.386 L 319.036, 785.373 L 312.497, 782.62 L 316.283, 777.458 L 312.325, 775.909 z "/>
<path style="fill:rgb(0, 0, 255);fill-opacity:0;fill-rule:evenodd;stroke:rgb(29, 0, 255);stroke-width:1;" d="M 477.35, 688.664 L 480.792, 684.018 L 506.604, 648.914 L 520.542, 654.764 L 501.613, 680.404 L 497.139, 678.512 L 490.256, 687.976 L 492.149, 688.664 L 488.535, 693.482 L 477.35, 688.664 z "/>
<path style="fill:rgb(255, 255, 0);fill-opacity:0;fill-rule:evenodd;stroke:rgb(29, 0, 255);stroke-width:1;" d="M 692.45, 404.044 L 717.057, 369.972 L 721.704, 363.605 L 733.061, 368.251 L 730.824, 371.349 L 727.898, 371.865 L 726.522, 373.758 L 726.006, 373.414 L 720.499, 380.985 L 725.489, 383.05 L 706.216, 409.723 L 692.45, 404.044 z "/>
<path style="fill:rgb(255, 0, 0);fill-opacity:0;fill-rule:evenodd;stroke:rgb(29, 0, 255);stroke-width:1;" d="M 657.518, 469.606 L 682.814, 436.223 L 697.784, 442.762 L 678.339, 469.606 L 676.791, 471.671 L 673.693, 470.295 L 665.95, 473.392 L 657.518, 469.606 z "/>
<path style="fill:rgb(0, 255, 0);fill-opacity:0;fill-rule:evenodd;stroke:rgb(29, 0, 255);stroke-width:1;" d="M 637.901, 381.157 L 663.713, 345.537 L 667.326, 340.546 L 675.586, 343.988 L 667.67, 354.829 L 672.833, 357.066 L 670.94, 359.819 L 651.323, 386.836 L 637.901, 381.157 z "/>
<path style="fill:rgb(0, 0, 255);fill-opacity:0;fill-rule:evenodd;stroke:rgb(29, 0, 255);stroke-width:1;" d="M 776.769, 156.249 L 786.922, 142.138 L 788.471, 140.073 L 791.74, 141.278 L 795.182, 136.632 L 791.912, 135.255 L 800.86, 123.037 L 810.153, 126.995 L 816.692, 118.047 L 821.338, 119.94 L 820.133, 121.488 L 814.971, 128.716 L 790.708, 162.099 L 776.769, 156.249 z "/>
<path style="fill:rgb(255, 255, 0);fill-opacity:0;fill-rule:evenodd;stroke:rgb(29, 0, 255);stroke-width:1;" d="M 450.678, 677.135 L 461.174, 662.852 L 479.759, 637.384 L 481.308, 635.492 L 494.558, 641.17 L 477.006, 665.089 L 473.564, 663.541 L 467.541, 671.8 L 468.058, 671.972 L 463.756, 677.823 L 460.486, 676.447 L 457.733, 680.06 L 450.678, 677.135 z "/>
<path style="fill:rgb(255, 0, 0);fill-opacity:0;fill-rule:evenodd;stroke:rgb(29, 0, 255);stroke-width:1;" d="M 828.565, 265.864 L 839.406, 251.237 L 843.708, 253.13 L 853.001, 257.088 L 862.293, 260.873 L 872.102, 265.175 L 861.26, 279.802 L 858.335, 278.598 L 828.565, 265.864 z "/>
<path style="fill:rgb(0, 255, 0);fill-opacity:0;fill-rule:evenodd;stroke:rgb(29, 0, 255);stroke-width:1;" d="M 664.745, 392.515 L 694.171, 351.904 L 699.849, 354.313 L 691.762, 365.326 L 700.194, 368.94 L 678.856, 398.365 L 664.745, 392.515 z "/>
<path style="fill:rgb(0, 0, 255);fill-opacity:0;fill-rule:evenodd;stroke:rgb(29, 0, 255);stroke-width:1;" d="M 646.849, 467.369 L 650.807, 462.207 L 656.829, 460.142 L 648.225, 456.356 L 666.982, 431.405 L 668.187, 429.856 L 682.814, 436.223 L 657.518, 469.606 L 655.625, 472.36 L 647.709, 468.918 L 646.849, 467.369 z "/>
<path style="fill:rgb(255, 255, 0);fill-opacity:0;fill-rule:evenodd;stroke:rgb(29, 0, 255);stroke-width:1;" d="M 700.366, 91.2024 L 706.905, 82.2542 L 728.587, 91.3745 L 747.171, 99.1181 L 743.214, 104.28 L 745.967, 105.485 L 749.753, 104.453 L 766.961, 111.68 L 762.831, 117.359 L 756.808, 114.777 L 737.535, 106.69 L 720.843, 99.8064 L 700.366, 91.2024 z "/>
<path style="fill:rgb(255, 0, 0);fill-opacity:0;fill-rule:evenodd;stroke:rgb(29, 0, 255);stroke-width:1;" d="M 615.702, 457.217 L 625.167, 444.655 L 621.037, 442.762 L 639.966, 417.638 L 653.732, 423.489 L 652.7, 425.038 L 625.339, 461.519 L 615.702, 457.217 z "/>
<path style="fill:rgb(0, 255, 0);fill-opacity:0;fill-rule:evenodd;stroke:rgb(29, 0, 255);stroke-width:1;" d="M 444.827, 587.653 L 463.067, 562.53 L 469.778, 553.409 L 483.545, 559.26 L 458.593, 593.504 L 444.827, 587.653 z "/>
<path style="fill:rgb(0, 0, 255);fill-opacity:0;fill-rule:evenodd;stroke:rgb(29, 0, 255);stroke-width:1;" d="M 496.623, 711.895 L 505.227, 700.194 L 509.529, 701.914 L 542.74, 716.197 L 532.588, 729.963 L 519.337, 724.285 L 520.886, 722.22 L 507.12, 716.369 L 496.623, 711.895 z "/>
<path style="fill:rgb(255, 255, 0);fill-opacity:0;fill-rule:evenodd;stroke:rgb(29, 0, 255);stroke-width:1;" d="M 533.448, 424.177 L 540.331, 415.057 L 543.945, 414.197 L 545.838, 411.96 L 539.643, 409.206 L 551.172, 393.891 L 559.604, 382.706 L 572.338, 388.213 L 571.134, 389.761 L 543.429, 426.414 L 541.02, 429.684 L 534.825, 427.103 L 533.448, 424.177 z "/>
<path style="fill:rgb(255, 0, 0);fill-opacity:0;fill-rule:evenodd;stroke:rgb(29, 0, 255);stroke-width:1;" d="M 660.615, 633.771 L 667.498, 624.65 L 701.054, 638.933 L 717.918, 645.988 L 711.207, 655.281 L 665.95, 636.18 L 660.615, 633.771 z "/>
<path style="fill:rgb(0, 255, 0);fill-opacity:0;fill-rule:evenodd;stroke:rgb(29, 0, 255);stroke-width:1;" d="M 491.461, 694.343 L 501.613, 680.404 L 520.542, 654.764 L 532.071, 659.755 L 511.25, 688.148 L 503.162, 699.161 L 491.461, 694.343 z "/>
<path style="fill:rgb(0, 0, 255);fill-opacity:0;fill-rule:evenodd;stroke:rgb(29, 0, 255);stroke-width:1;" d="M 408.518, 646.505 L 419.187, 632.222 L 423.317, 633.943 L 427.275, 628.436 L 423.145, 626.715 L 432.093, 614.498 L 445.343, 620.176 L 415.401, 660.959 L 414.885, 661.648 L 408.862, 659.066 L 413.508, 652.872 L 414.025, 653.044 L 414.541, 652.355 L 414.885, 652.527 L 416.778, 649.946 L 408.518, 646.505 z "/>
<path style="fill:rgb(255, 255, 0);fill-opacity:0;fill-rule:evenodd;stroke:rgb(29, 0, 255);stroke-width:1;" d="M 790.708, 162.099 L 814.971, 128.716 L 818.757, 130.265 L 828.737, 134.394 L 816.52, 151.258 L 813.594, 155.216 L 804.474, 167.778 L 790.708, 162.099 z "/>
<path style="fill:rgb(255, 0, 0);fill-opacity:0;fill-rule:evenodd;stroke:rgb(29, 0, 255);stroke-width:1;" d="M 473.22, 670.08 L 477.006, 665.089 L 494.558, 641.17 L 508.152, 646.849 L 506.604, 648.914 L 480.792, 684.018 L 473.908, 681.265 L 479.931, 673.005 L 473.22, 670.08 z "/>
<path style="fill:rgb(0, 255, 0);fill-opacity:0;fill-rule:evenodd;stroke:rgb(29, 0, 255);stroke-width:1;" d="M 820.305, 245.558 L 829.598, 232.996 L 832.867, 228.522 L 841.988, 215.96 L 857.131, 222.327 L 836.653, 250.204 L 835.448, 251.925 L 820.305, 245.558 z "/>
<path style="fill:rgb(0, 0, 255);fill-opacity:0;fill-rule:evenodd;stroke:rgb(29, 0, 255);stroke-width:1;" d="M 804.646, 238.847 L 826.328, 209.249 L 841.988, 215.96 L 832.867, 228.522 L 828.909, 226.801 L 825.468, 231.276 L 829.598, 232.996 L 820.305, 245.558 L 804.646, 238.847 z "/>
<path style="fill:rgb(255, 255, 0);fill-opacity:0;fill-rule:evenodd;stroke:rgb(29, 0, 255);stroke-width:1;" d="M 706.216, 409.723 L 725.489, 383.05 L 730.824, 375.823 L 743.902, 381.157 L 719.294, 415.229 L 706.216, 409.723 z "/>
<path style="fill:rgb(255, 0, 0);fill-opacity:0;fill-rule:evenodd;stroke:rgb(29, 0, 255);stroke-width:1;" d="M 678.856, 398.365 L 700.194, 368.94 L 701.914, 366.53 L 709.314, 369.628 L 711.035, 367.391 L 717.057, 369.972 L 692.45, 404.044 L 678.856, 398.365 z "/>
<path style="fill:rgb(0, 255, 0);fill-opacity:0;fill-rule:evenodd;stroke:rgb(29, 0, 255);stroke-width:1;" d="M 651.323, 386.836 L 670.94, 359.819 L 678.684, 363.089 L 688.492, 349.495 L 694.171, 351.904 L 664.745, 392.515 L 651.323, 386.836 z "/>
<path style="fill:rgb(0, 0, 255);fill-opacity:0;fill-rule:evenodd;stroke:rgb(29, 0, 255);stroke-width:1;" d="M 667.498, 624.65 L 674.382, 615.186 L 718.778, 633.943 L 724.629, 636.524 L 719.639, 643.407 L 702.947, 636.352 L 701.054, 638.933 L 667.498, 624.65 z "/>
<path style="fill:rgb(255, 255, 0);fill-opacity:0;fill-rule:evenodd;stroke:rgb(29, 0, 255);stroke-width:1;" d="M 461.174, 535.685 L 467.197, 527.597 L 490.6, 495.763 L 502.129, 500.753 L 500.581, 502.646 L 481.48, 528.63 L 476.662, 526.565 L 474.425, 529.49 L 478.038, 530.867 L 471.327, 539.987 L 461.174, 535.685 z "/>
<path style="fill:rgb(255, 0, 0);fill-opacity:0;fill-rule:evenodd;stroke:rgb(29, 0, 255);stroke-width:1;" d="M 611.056, 369.972 L 636.524, 334.696 L 644.784, 338.137 L 639.449, 345.709 L 644.612, 347.774 L 639.966, 354.141 L 624.478, 375.479 L 611.056, 369.972 z "/>
<path style="fill:rgb(0, 255, 0);fill-opacity:0;fill-rule:evenodd;stroke:rgb(29, 0, 255);stroke-width:1;" d="M 804.474, 167.778 L 813.594, 155.216 L 820.305, 158.142 L 823.231, 154.184 L 816.52, 151.258 L 828.737, 134.394 L 842.504, 140.245 L 818.24, 173.457 L 804.474, 167.778 z "/>
<path style="fill:rgb(0, 0, 255);fill-opacity:0;fill-rule:evenodd;stroke:rgb(29, 0, 255);stroke-width:1;" d="M 543.429, 426.414 L 571.134, 389.761 L 583.007, 394.924 L 564.595, 419.359 L 562.53, 418.499 L 550.828, 434.158 L 547.559, 432.781 L 550.14, 429.34 L 543.429, 426.414 z "/>
<path style="fill:rgb(255, 255, 0);fill-opacity:0;fill-rule:evenodd;stroke:rgb(29, 0, 255);stroke-width:1;" d="M 624.478, 375.479 L 639.966, 354.141 L 643.407, 353.969 L 649.602, 345.537 L 652.355, 346.741 L 655.625, 342.095 L 663.713, 345.537 L 637.901, 381.157 L 624.478, 375.479 z "/>
<path style="fill:rgb(255, 0, 0);fill-opacity:0;fill-rule:evenodd;stroke:rgb(29, 0, 255);stroke-width:1;" d="M 441.557, 671.628 L 451.194, 658.55 L 447.236, 657.002 L 465.993, 631.534 L 479.759, 637.384 L 461.174, 662.852 L 456.872, 660.959 L 447.236, 674.037 L 441.557, 671.628 z "/>
<path style="fill:rgb(0, 255, 0);fill-opacity:0;fill-rule:evenodd;stroke:rgb(29, 0, 255);stroke-width:1;" d="M 415.401, 660.959 L 445.343, 620.176 L 456.356, 624.995 L 433.125, 656.657 L 426.758, 653.904 L 425.898, 654.937 L 427.791, 657.002 L 422.456, 664.057 L 419.531, 664.401 L 416.262, 663.024 L 415.401, 660.959 z "/>
<path style="fill:rgb(0, 0, 255);fill-opacity:0;fill-rule:evenodd;stroke:rgb(29, 0, 255);stroke-width:1;" d="M 458.593, 593.504 L 483.545, 559.26 L 489.396, 551.172 L 497.827, 554.614 L 490.944, 564.078 L 488.707, 563.046 L 484.577, 568.897 L 483.889, 568.552 L 482.512, 570.273 L 488.707, 572.854 L 470.123, 598.322 L 458.593, 593.504 z "/>
<path style="fill:rgb(255, 255, 0);fill-opacity:0;fill-rule:evenodd;stroke:rgb(29, 0, 255);stroke-width:1;" d="M 415.917, 718.09 L 443.278, 681.093 L 446.72, 676.274 L 454.119, 679.372 L 449.301, 686.083 L 446.72, 685.051 L 443.794, 689.18 L 449.817, 691.762 L 437.083, 708.97 L 426.931, 722.736 L 415.917, 718.09 z "/>
<path style="fill:rgb(255, 0, 0);fill-opacity:0;fill-rule:evenodd;stroke:rgb(29, 0, 255);stroke-width:1;" d="M 864.358, 565.111 L 866.251, 562.702 L 894.988, 522.951 L 904.797, 527.081 L 882.254, 558.228 L 874.339, 569.241 L 864.358, 565.111 z "/>
<path style="fill:rgb(0, 255, 0);fill-opacity:0;fill-rule:evenodd;stroke:rgb(29, 0, 255);stroke-width:1;" d="M 491.461, 607.27 L 520.026, 568.036 L 521.23, 566.487 L 528.458, 569.585 L 523.639, 576.124 L 522.263, 575.436 L 515.552, 584.556 L 521.919, 587.309 L 520.886, 588.858 L 503.678, 612.433 L 491.461, 607.27 z "/>
<path style="fill:rgb(0, 0, 255);fill-opacity:0;fill-rule:evenodd;stroke:rgb(29, 0, 255);stroke-width:1;" d="M 509.529, 701.914 L 517.617, 690.901 L 525.016, 693.999 L 537.75, 699.505 L 539.471, 696.924 L 552.721, 702.603 L 542.74, 716.197 L 509.529, 701.914 z "/>
<path style="fill:rgb(255, 255, 0);fill-opacity:0;fill-rule:evenodd;stroke:rgb(29, 0, 255);stroke-width:1;" d="M 701.57, 693.482 L 718.606, 670.252 L 722.392, 670.252 L 720.155, 668.187 L 728.415, 657.002 L 735.814, 660.271 L 733.921, 662.852 L 734.954, 664.573 L 729.447, 672.145 L 726.866, 671.972 L 726.006, 671.8 L 727.21, 674.554 L 730.48, 675.93 L 713.788, 698.645 L 701.57, 693.482 z "/>
<path style="fill:rgb(255, 0, 0);fill-opacity:0;fill-rule:evenodd;stroke:rgb(29, 0, 255);stroke-width:1;" d="M 605.722, 452.915 L 611.744, 444.827 L 607.442, 440.525 L 608.647, 438.976 L 627.232, 414.197 L 628.436, 412.648 L 639.966, 417.638 L 621.037, 442.762 L 611.572, 455.324 L 605.722, 452.915 z "/>
<path style="fill:rgb(0, 255, 0);fill-opacity:0;fill-rule:evenodd;stroke:rgb(29, 0, 255);stroke-width:1;" d="M 511.25, 688.148 L 532.071, 659.755 L 545.838, 665.606 L 529.834, 687.288 L 525.016, 693.999 L 517.617, 690.901 L 511.25, 688.148 z "/>
<path style="fill:rgb(0, 0, 255);fill-opacity:0;fill-rule:evenodd;stroke:rgb(29, 0, 255);stroke-width:1;" d="M 712.755, 700.022 L 713.788, 698.645 L 730.48, 675.93 L 738.912, 664.401 L 746.483, 667.67 L 738.74, 678.167 L 743.214, 680.06 L 725.834, 703.807 L 724.973, 705.184 L 712.755, 700.022 z "/>
<path style="fill:rgb(255, 255, 0);fill-opacity:0;fill-rule:evenodd;stroke:rgb(29, 0, 255);stroke-width:1;" d="M 725.834, 703.807 L 743.214, 680.06 L 753.022, 666.81 L 760.938, 670.08 L 755.948, 676.619 L 751.818, 677.479 L 748.892, 681.609 L 755.948, 684.534 L 738.051, 708.97 L 725.834, 703.807 z "/>
<path style="fill:rgb(255, 0, 0);fill-opacity:0;fill-rule:evenodd;stroke:rgb(29, 0, 255);stroke-width:1;" d="M 674.382, 615.186 L 680.576, 606.754 L 724.973, 625.511 L 718.778, 633.943 L 674.382, 615.186 z "/>
<path style="fill:rgb(0, 255, 0);fill-opacity:0;fill-rule:evenodd;stroke:rgb(29, 0, 255);stroke-width:1;" d="M 532.416, 557.883 L 534.997, 554.27 L 556.679, 524.844 L 567.864, 529.662 L 548.075, 556.507 L 543.601, 562.702 L 532.416, 557.883 z "/>
<path style="fill:rgb(0, 0, 255);fill-opacity:0;fill-rule:evenodd;stroke:rgb(29, 0, 255);stroke-width:1;" d="M 804.99, 668.703 L 827.189, 638.245 L 838.374, 643.063 L 836.825, 645.128 L 818.757, 669.735 L 812.39, 678.339 L 805.507, 675.586 L 807.055, 673.349 L 809.809, 673.005 L 811.185, 671.284 L 804.99, 668.703 z "/>
<path style="fill:rgb(255, 255, 0);fill-opacity:0;fill-rule:evenodd;stroke:rgb(29, 0, 255);stroke-width:1;" d="M 483.889, 545.149 L 489.051, 538.094 L 511.766, 507.464 L 523.123, 512.282 L 504.367, 537.922 L 499.032, 535.513 L 489.912, 547.731 L 483.889, 545.149 z "/>
<path style="fill:rgb(255, 0, 0);fill-opacity:0;fill-rule:evenodd;stroke:rgb(29, 0, 255);stroke-width:1;" d="M 539.471, 696.924 L 542.568, 692.794 L 558.572, 671.112 L 563.218, 673.005 L 567.004, 670.768 L 571.478, 672.489 L 571.822, 675.07 L 572.854, 675.414 L 552.721, 702.603 L 539.471, 696.924 z "/>
<path style="fill:rgb(0, 255, 0);fill-opacity:0;fill-rule:evenodd;stroke:rgb(29, 0, 255);stroke-width:1;" d="M 665.089, 767.821 L 666.638, 765.584 L 665.261, 765.068 L 671.972, 755.948 L 692.622, 727.382 L 703.119, 731.856 L 686.943, 754.227 L 682.814, 752.506 L 680.06, 756.464 L 681.437, 756.98 L 671.628, 770.574 L 665.089, 767.821 z "/>
<path style="fill:rgb(0, 0, 255);fill-opacity:0;fill-rule:evenodd;stroke:rgb(29, 0, 255);stroke-width:1;" d="M 686.427, 688.836 L 705.012, 663.368 L 719.294, 669.391 L 718.606, 670.252 L 701.57, 693.482 L 700.538, 694.859 L 686.427, 688.836 z "/>
<path style="fill:rgb(255, 255, 0);fill-opacity:0;fill-rule:evenodd;stroke:rgb(29, 0, 255);stroke-width:1;" d="M 598.322, 509.357 L 625.683, 471.327 L 627.404, 469.09 L 631.017, 470.639 L 628.264, 474.425 L 631.534, 475.801 L 624.65, 485.266 L 628.092, 486.814 L 608.819, 513.659 L 598.322, 509.357 z "/>
<path style="fill:rgb(255, 0, 0);fill-opacity:0;fill-rule:evenodd;stroke:rgb(29, 0, 255);stroke-width:1;" d="M 591.955, 727.898 L 593.676, 725.489 L 592.644, 722.908 L 594.02, 721.015 L 597.806, 719.983 L 601.764, 721.532 L 641.858, 738.395 L 636.008, 746.483 L 591.955, 727.898 z "/>
<path style="fill:rgb(0, 255, 0);fill-opacity:0;fill-rule:evenodd;stroke:rgb(29, 0, 255);stroke-width:1;" d="M 608.819, 513.659 L 628.092, 486.814 L 633.082, 488.879 L 639.966, 479.415 L 642.547, 480.447 L 645.472, 476.662 L 648.57, 477.866 L 634.975, 496.967 L 619.66, 518.133 L 608.819, 513.659 z "/>
<path style="fill:rgb(0, 0, 255);fill-opacity:0;fill-rule:evenodd;stroke:rgb(29, 0, 255);stroke-width:1;" d="M 574.747, 751.646 L 581.114, 742.869 L 622.241, 760.25 L 615.874, 768.854 L 574.747, 751.646 z "/>
<path style="fill:rgb(255, 255, 0);fill-opacity:0;fill-rule:evenodd;stroke:rgb(29, 0, 255);stroke-width:1;" d="M 749.925, 713.96 L 766.444, 691.418 L 769.714, 690.729 L 776.941, 680.749 L 780.727, 682.297 L 781.932, 680.749 L 786.922, 682.986 L 778.662, 694.171 L 760.766, 718.606 L 749.925, 713.96 z "/>
<path style="fill:rgb(255, 0, 0);fill-opacity:0;fill-rule:evenodd;stroke:rgb(29, 0, 255);stroke-width:1;" d="M 857.303, 558.916 L 886.04, 519.165 L 894.988, 522.951 L 866.251, 562.702 L 857.303, 558.916 z "/>
<path style="fill:rgb(0, 255, 0);fill-opacity:0;fill-rule:evenodd;stroke:rgb(29, 0, 255);stroke-width:1;" d="M 481.308, 602.968 L 499.892, 577.501 L 503.334, 572.854 L 508.669, 575.091 L 515.208, 565.971 L 520.026, 568.036 L 491.461, 607.27 L 481.308, 602.968 z "/>
<path style="fill:rgb(0, 0, 255);fill-opacity:0;fill-rule:evenodd;stroke:rgb(29, 0, 255);stroke-width:1;" d="M 532.76, 481.996 L 555.474, 450.333 L 566.487, 454.807 L 543.601, 486.47 L 532.76, 481.996 z "/>
<path style="fill:rgb(255, 255, 0);fill-opacity:0;fill-rule:evenodd;stroke:rgb(29, 0, 255);stroke-width:1;" d="M 554.786, 491.116 L 573.371, 465.304 L 577.501, 459.454 L 588.342, 463.928 L 583.695, 470.295 L 565.455, 495.59 L 554.786, 491.116 z "/>
<path style="fill:rgb(255, 0, 0);fill-opacity:0;fill-rule:evenodd;stroke:rgb(29, 0, 255);stroke-width:1;" d="M 872.274, 196.171 L 878.641, 187.395 L 888.449, 191.525 L 917.014, 203.571 L 910.647, 212.347 L 872.274, 196.171 z "/>
<path style="fill:rgb(0, 255, 0);fill-opacity:0;fill-rule:evenodd;stroke:rgb(29, 0, 255);stroke-width:1;" d="M 581.114, 742.869 L 586.965, 734.782 L 628.092, 751.99 L 622.241, 760.25 L 581.114, 742.869 z "/>
<path style="fill:rgb(0, 0, 255);fill-opacity:0;fill-rule:evenodd;stroke:rgb(29, 0, 255);stroke-width:1;" d="M 591.955, 441.901 L 598.322, 433.297 L 616.391, 409.378 L 627.232, 414.197 L 608.647, 438.976 L 605.205, 437.599 L 599.527, 445.171 L 591.955, 441.901 z "/>
<path style="fill:rgb(255, 255, 0);fill-opacity:0;fill-rule:evenodd;stroke:rgb(29, 0, 255);stroke-width:1;" d="M 432.781, 657.002 L 433.125, 656.657 L 456.356, 624.995 L 467.369, 629.641 L 465.993, 631.534 L 447.236, 657.002 L 442.59, 654.937 L 438.976, 659.755 L 432.781, 657.002 z "/>
<path style="fill:rgb(255, 0, 0);fill-opacity:0;fill-rule:evenodd;stroke:rgb(29, 0, 255);stroke-width:1;" d="M 793.977, 664.057 L 800.172, 655.797 L 816.348, 633.599 L 827.189, 638.245 L 804.99, 668.703 L 793.977, 664.057 z "/>
<path style="fill:rgb(0, 255, 0);fill-opacity:0;fill-rule:evenodd;stroke:rgb(29, 0, 255);stroke-width:1;" d="M 522.435, 477.694 L 545.322, 446.031 L 555.474, 450.333 L 532.76, 481.996 L 522.435, 477.694 z "/>
<path style="fill:rgb(0, 0, 255);fill-opacity:0;fill-rule:evenodd;stroke:rgb(29, 0, 255);stroke-width:1;" d="M 543.601, 486.47 L 566.487, 454.807 L 573.026, 457.561 L 568.897, 463.411 L 573.371, 465.304 L 554.786, 491.116 L 543.601, 486.47 z "/>
<path style="fill:rgb(255, 255, 0);fill-opacity:0;fill-rule:evenodd;stroke:rgb(29, 0, 255);stroke-width:1;" d="M 406.281, 713.96 L 427.447, 685.051 L 432.437, 687.116 L 438.46, 679.028 L 443.278, 681.093 L 415.917, 718.09 L 406.281, 713.96 z "/>
<path style="fill:rgb(255, 0, 0);fill-opacity:0;fill-rule:evenodd;stroke:rgb(29, 0, 255);stroke-width:1;" d="M 738.051, 708.97 L 755.948, 684.534 L 760.422, 686.599 L 763.347, 682.469 L 770.746, 685.567 L 766.444, 691.418 L 749.925, 713.96 L 738.051, 708.97 z "/>
<path style="fill:rgb(0, 255, 0);fill-opacity:0;fill-rule:evenodd;stroke:rgb(29, 0, 255);stroke-width:1;" d="M 524.156, 549.624 L 526.049, 547.387 L 545.838, 520.37 L 556.679, 524.844 L 534.997, 554.27 L 524.156, 549.624 z "/>
<path style="fill:rgb(0, 0, 255);fill-opacity:0;fill-rule:evenodd;stroke:rgb(29, 0, 255);stroke-width:1;" d="M 511.766, 547.387 L 513.487, 544.977 L 534.136, 516.928 L 535.169, 515.724 L 545.838, 520.37 L 526.049, 547.387 L 520.886, 545.149 L 517.445, 549.624 L 511.766, 547.387 z "/>
<path style="fill:rgb(255, 255, 0);fill-opacity:0;fill-rule:evenodd;stroke:rgb(29, 0, 255);stroke-width:1;" d="M 481.48, 528.63 L 500.581, 502.646 L 511.766, 507.464 L 489.051, 538.094 L 483.373, 535.685 L 486.986, 530.867 L 481.48, 528.63 z "/>
<path style="fill:rgb(255, 0, 0);fill-opacity:0;fill-rule:evenodd;stroke:rgb(29, 0, 255);stroke-width:1;" d="M 470.123, 598.322 L 488.707, 572.854 L 491.116, 573.887 L 494.558, 569.241 L 501.269, 571.994 L 497.827, 576.64 L 499.892, 577.501 L 481.308, 602.968 L 470.123, 598.322 z "/>
<path style="fill:rgb(0, 255, 0);fill-opacity:0;fill-rule:evenodd;stroke:rgb(29, 0, 255);stroke-width:1;" d="M 750.957, 285.309 L 767.993, 262.078 L 769.886, 262.766 L 774.876, 256.055 L 778.662, 255.023 L 781.415, 251.409 L 786.922, 253.646 L 777.974, 265.864 L 760.594, 289.439 L 750.957, 285.309 z "/>
<path style="fill:rgb(0, 0, 255);fill-opacity:0;fill-rule:evenodd;stroke:rgb(29, 0, 255);stroke-width:1;" d="M 774.016, 655.109 L 777.802, 649.946 L 776.597, 649.43 L 793.289, 626.715 L 794.838, 624.65 L 805.334, 628.952 L 788.643, 651.667 L 783.308, 659.066 L 774.016, 655.109 z "/>
<path style="fill:rgb(255, 255, 0);fill-opacity:0;fill-rule:evenodd;stroke:rgb(29, 0, 255);stroke-width:1;" d="M 502.474, 540.331 L 504.367, 537.922 L 523.123, 512.282 L 534.136, 516.928 L 513.487, 544.977 L 502.474, 540.331 z "/>
<path style="fill:rgb(255, 0, 0);fill-opacity:0;fill-rule:evenodd;stroke:rgb(29, 0, 255);stroke-width:1;" d="M 570.617, 565.799 L 588.858, 541.02 L 600.043, 545.666 L 577.845, 575.78 L 571.822, 573.199 L 575.78, 568.036 L 570.617, 565.799 z "/>
<path style="fill:rgb(0, 255, 0);fill-opacity:0;fill-rule:evenodd;stroke:rgb(29, 0, 255);stroke-width:1;" d="M 563.734, 420.736 L 564.595, 419.359 L 583.007, 394.924 L 594.536, 399.914 L 576.64, 423.833 L 575.263, 425.726 L 563.734, 420.736 z "/>
<path style="fill:rgb(0, 0, 255);fill-opacity:0;fill-rule:evenodd;stroke:rgb(29, 0, 255);stroke-width:1;" d="M 586.965, 734.782 L 591.955, 727.898 L 636.008, 746.483 L 631.017, 753.194 L 628.092, 751.99 L 586.965, 734.782 z "/>
<path style="fill:rgb(255, 255, 0);fill-opacity:0;fill-rule:evenodd;stroke:rgb(29, 0, 255);stroke-width:1;" d="M 769.714, 295.461 L 770.918, 293.741 L 792.256, 264.659 L 793.633, 262.938 L 794.838, 263.455 L 797.763, 259.497 L 804.818, 262.422 L 777.974, 299.075 L 769.714, 295.461 z "/>
<path style="fill:rgb(255, 0, 0);fill-opacity:0;fill-rule:evenodd;stroke:rgb(29, 0, 255);stroke-width:1;" d="M 739.944, 280.663 L 757.84, 256.227 L 761.97, 250.549 L 768.337, 253.302 L 763.519, 260.185 L 767.993, 262.078 L 750.957, 285.309 L 739.944, 280.663 z "/>
<path style="fill:rgb(0, 255, 0);fill-opacity:0;fill-rule:evenodd;stroke:rgb(29, 0, 255);stroke-width:1;" d="M 693.138, 763.691 L 713.1, 736.158 L 723.769, 740.46 L 707.421, 762.831 L 703.635, 768.165 L 693.138, 763.691 z "/>
<path style="fill:rgb(0, 0, 255);fill-opacity:0;fill-rule:evenodd;stroke:rgb(29, 0, 255);stroke-width:1;" d="M 529.834, 687.288 L 545.838, 665.606 L 558.572, 671.112 L 542.568, 692.794 L 537.75, 690.729 L 534.481, 691.762 L 530.523, 690.041 L 529.834, 687.288 z "/>
<path style="fill:rgb(255, 255, 0);fill-opacity:0;fill-rule:evenodd;stroke:rgb(29, 0, 255);stroke-width:1;" d="M 818.757, 669.735 L 836.825, 645.128 L 848.01, 649.946 L 833.039, 670.596 L 830.114, 674.554 L 826.844, 673.177 L 825.984, 674.382 L 820.478, 672.145 L 821.51, 670.768 L 818.757, 669.735 z "/>
<path style="fill:rgb(255, 0, 0);fill-opacity:0;fill-rule:evenodd;stroke:rgb(29, 0, 255);stroke-width:1;" d="M 735.642, 776.253 L 753.022, 752.334 L 764.724, 757.152 L 747.344, 781.071 L 735.642, 776.253 z "/>
<path style="fill:rgb(0, 255, 0);fill-opacity:0;fill-rule:evenodd;stroke:rgb(29, 0, 255);stroke-width:1;" d="M 877.78, 115.122 L 892.407, 94.9882 L 906.345, 100.839 L 891.719, 120.972 L 877.78, 115.122 z "/>
<path style="fill:rgb(0, 0, 255);fill-opacity:0;fill-rule:evenodd;stroke:rgb(29, 0, 255);stroke-width:1;" d="M 779.695, 727.726 L 780.899, 726.178 L 797.935, 702.947 L 804.474, 705.7 L 811.013, 696.924 L 814.455, 698.301 L 790.191, 731.168 L 789.675, 732.028 L 779.695, 727.726 z "/>
<path style="fill:rgb(255, 255, 0);fill-opacity:0;fill-rule:evenodd;stroke:rgb(29, 0, 255);stroke-width:1;" d="M 759.733, 719.983 L 760.766, 718.606 L 778.662, 694.171 L 789.331, 698.817 L 772.123, 722.392 L 770.574, 724.457 L 759.733, 719.983 z "/>
<path style="fill:rgb(255, 0, 0);fill-opacity:0;fill-rule:evenodd;stroke:rgb(29, 0, 255);stroke-width:1;" d="M 713.788, 771.951 L 733.577, 744.59 L 735.126, 742.353 L 744.59, 746.311 L 726.522, 771.263 L 723.08, 775.909 L 713.788, 771.951 z "/>
<path style="fill:rgb(0, 255, 0);fill-opacity:0;fill-rule:evenodd;stroke:rgb(29, 0, 255);stroke-width:1;" d="M 862.293, 260.873 L 882.598, 233.168 L 892.407, 237.298 L 872.102, 265.175 L 862.293, 260.873 z "/>
<path style="fill:rgb(0, 0, 255);fill-opacity:0;fill-rule:evenodd;stroke:rgb(29, 0, 255);stroke-width:1;" d="M 864.186, 109.443 L 870.037, 101.527 L 878.985, 89.3095 L 892.407, 94.9882 L 877.78, 115.122 L 864.186, 109.443 z "/>
<path style="fill:rgb(255, 255, 0);fill-opacity:0;fill-rule:evenodd;stroke:rgb(29, 0, 255);stroke-width:1;" d="M 665.778, 745.279 L 682.125, 723.08 L 692.622, 727.382 L 671.972, 755.948 L 665.95, 753.366 L 670.252, 747.344 L 665.778, 745.279 z "/>
<path style="fill:rgb(255, 0, 0);fill-opacity:0;fill-rule:evenodd;stroke:rgb(29, 0, 255);stroke-width:1;" d="M 751.129, 653.216 L 758.012, 644.096 L 776.081, 619.488 L 784.857, 623.102 L 766.616, 647.881 L 765.928, 648.742 L 760.766, 646.505 L 759.905, 647.709 L 760.938, 649.258 L 762.314, 649.774 L 759.217, 654.248 L 757.84, 653.56 L 756.464, 655.453 L 751.129, 653.216 z "/>
<path style="fill:rgb(0, 255, 0);fill-opacity:0;fill-rule:evenodd;stroke:rgb(29, 0, 255);stroke-width:1;" d="M 760.594, 289.439 L 777.974, 265.864 L 783.48, 268.273 L 787.61, 262.594 L 792.256, 264.659 L 770.918, 293.741 L 760.594, 289.439 z "/>
<path style="fill:rgb(0, 0, 255);fill-opacity:0;fill-rule:evenodd;stroke:rgb(29, 0, 255);stroke-width:1;" d="M 587.309, 428.479 L 605.378, 404.56 L 616.391, 409.378 L 598.322, 433.297 L 587.309, 428.479 z "/>
<path style="fill:rgb(255, 255, 0);fill-opacity:0;fill-rule:evenodd;stroke:rgb(29, 0, 255);stroke-width:1;" d="M 726.522, 771.263 L 744.59, 746.311 L 754.399, 750.441 L 753.022, 752.334 L 735.642, 776.253 L 732.2, 780.727 L 727.21, 778.662 L 731.34, 773.156 L 726.522, 771.263 z "/>
<path style="fill:rgb(255, 0, 0);fill-opacity:0;fill-rule:evenodd;stroke:rgb(29, 0, 255);stroke-width:1;" d="M 841.988, 466.509 L 849.215, 456.7 L 850.247, 457.045 L 859.54, 444.483 L 858.507, 443.966 L 863.67, 436.911 L 869.348, 439.32 L 865.562, 444.483 L 869.348, 446.203 L 851.624, 470.639 L 849.559, 470.811 L 847.666, 470.639 L 846.634, 470.467 L 844.913, 469.778 L 843.364, 468.574 L 842.848, 468.058 L 841.988, 466.509 z "/>
<path style="fill:rgb(0, 255, 0);fill-opacity:0;fill-rule:evenodd;stroke:rgb(29, 0, 255);stroke-width:1;" d="M 788.643, 651.667 L 805.334, 628.952 L 816.348, 633.599 L 800.172, 655.797 L 794.493, 656.485 L 791.912, 655.281 L 788.643, 651.667 z "/>
<path style="fill:rgb(0, 0, 255);fill-opacity:0;fill-rule:evenodd;stroke:rgb(29, 0, 255);stroke-width:1;" d="M 576.64, 423.833 L 594.536, 399.914 L 605.378, 404.56 L 587.309, 428.479 L 576.64, 423.833 z "/>
<path style="fill:rgb(255, 255, 0);fill-opacity:0;fill-rule:evenodd;stroke:rgb(29, 0, 255);stroke-width:1;" d="M 743.73, 647.537 L 749.064, 640.31 L 767.133, 615.702 L 776.081, 619.488 L 758.012, 644.096 L 753.883, 642.375 L 748.548, 649.602 L 743.73, 647.537 z "/>
<path style="fill:rgb(255, 0, 0);fill-opacity:0;fill-rule:evenodd;stroke:rgb(29, 0, 255);stroke-width:1;" d="M 853.001, 257.088 L 854.721, 254.678 L 873.478, 229.383 L 882.598, 233.168 L 862.293, 260.873 L 853.001, 257.088 z "/>
<path style="fill:rgb(0, 255, 0);fill-opacity:0;fill-rule:evenodd;stroke:rgb(29, 0, 255);stroke-width:1;" d="M 686.943, 754.227 L 703.119, 731.856 L 713.1, 736.158 L 693.138, 763.691 L 687.632, 761.454 L 691.418, 756.12 L 686.943, 754.227 z "/>
<path style="fill:rgb(0, 0, 255);fill-opacity:0;fill-rule:evenodd;stroke:rgb(29, 0, 255);stroke-width:1;" d="M 707.421, 769.37 L 711.035, 764.379 L 707.421, 762.831 L 723.769, 740.46 L 733.577, 744.59 L 713.788, 771.951 L 707.421, 769.37 z "/>
<path style="fill:rgb(255, 255, 0);fill-opacity:0;fill-rule:evenodd;stroke:rgb(29, 0, 255);stroke-width:1;" d="M 851.624, 470.639 L 869.348, 446.203 L 873.478, 447.924 L 877.092, 442.762 L 882.254, 444.999 L 860.744, 474.425 L 851.624, 470.639 z "/>
<path style="fill:rgb(255, 0, 0);fill-opacity:0;fill-rule:evenodd;stroke:rgb(29, 0, 255);stroke-width:1;" d="M 725.834, 641.514 L 734.61, 629.641 L 750.097, 608.475 L 758.357, 611.917 L 740.288, 636.524 L 736.502, 634.975 L 730.308, 643.407 L 725.834, 641.514 z "/>
<path style="fill:rgb(0, 255, 0);fill-opacity:0;fill-rule:evenodd;stroke:rgb(29, 0, 255);stroke-width:1;" d="M 860.744, 474.425 L 882.254, 444.999 L 887.245, 447.064 L 883.459, 452.054 L 887.245, 453.603 L 869.52, 478.038 L 860.744, 474.425 z "/>
<path style="fill:rgb(0, 0, 255);fill-opacity:0;fill-rule:evenodd;stroke:rgb(29, 0, 255);stroke-width:1;" d="M 843.192, 674.898 L 858.335, 654.42 L 869.176, 658.894 L 854.033, 679.544 L 849.903, 679.888 L 846.634, 678.512 L 843.192, 674.898 z "/>
<path style="fill:rgb(255, 255, 0);fill-opacity:0;fill-rule:evenodd;stroke:rgb(29, 0, 255);stroke-width:1;" d="M 790.191, 731.168 L 814.455, 698.301 L 817.724, 699.677 L 813.078, 705.872 L 812.218, 705.528 L 810.325, 708.109 L 816.52, 710.863 L 798.795, 734.782 L 790.191, 731.168 z "/>
<path style="fill:rgb(255, 0, 0);fill-opacity:0;fill-rule:evenodd;stroke:rgb(29, 0, 255);stroke-width:1;" d="M 772.123, 722.392 L 789.331, 698.817 L 793.117, 693.655 L 797.591, 695.547 L 793.633, 701.054 L 797.935, 702.947 L 780.899, 726.178 L 772.123, 722.392 z "/>
<path style="fill:rgb(0, 255, 0);fill-opacity:0;fill-rule:evenodd;stroke:rgb(29, 0, 255);stroke-width:1;" d="M 847.494, 247.795 L 864.014, 225.253 L 873.478, 229.383 L 854.721, 254.678 L 849.043, 252.269 L 851.108, 249.516 L 847.494, 247.795 z "/>
<path style="fill:rgb(0, 0, 255);fill-opacity:0;fill-rule:evenodd;stroke:rgb(29, 0, 255);stroke-width:1;" d="M 833.039, 670.596 L 848.01, 649.946 L 858.335, 654.42 L 843.192, 674.898 L 838.546, 675.07 L 835.448, 673.693 L 833.039, 670.596 z "/>
<path style="fill:rgb(255, 255, 0);fill-opacity:0;fill-rule:evenodd;stroke:rgb(29, 0, 255);stroke-width:1;" d="M 740.288, 636.524 L 758.357, 611.917 L 767.133, 615.702 L 749.064, 640.31 L 740.288, 636.524 z "/>
<path style="fill:rgb(255, 0, 0);fill-opacity:0;fill-rule:evenodd;stroke:rgb(29, 0, 255);stroke-width:1;" d="M 766.616, 647.881 L 784.857, 623.102 L 793.289, 626.715 L 776.597, 649.43 L 775.048, 651.495 L 766.616, 647.881 z "/>
<path style="fill:rgb(0, 255, 0);fill-opacity:0;fill-rule:evenodd;stroke:rgb(29, 0, 255);stroke-width:1;" d="M 869.52, 478.038 L 887.245, 453.603 L 895.849, 457.389 L 878.124, 481.652 L 869.52, 478.038 z "/>
<path style="fill:rgb(0, 0, 255);fill-opacity:0;fill-rule:evenodd;stroke:rgb(29, 0, 255);stroke-width:1;" d="M 836.653, 250.204 L 857.131, 222.327 L 864.014, 225.253 L 847.494, 247.795 L 843.708, 253.13 L 839.406, 251.237 L 836.653, 250.204 z "/>
<path style="fill:rgb(255, 255, 0);fill-opacity:0;fill-rule:evenodd;stroke:rgb(29, 0, 255);stroke-width:1;" d="M 785.029, 774.36 L 791.224, 765.928 L 801.893, 770.402 L 796.558, 777.63 L 791.224, 775.393 L 790.364, 776.597 L 785.029, 774.36 z "/>
<path style="fill:rgb(255, 0, 0);fill-opacity:0;fill-rule:evenodd;stroke:rgb(29, 0, 255);stroke-width:1;" d="M 0, 380.469 L 51.4519, 310.777 L 89.8258, 327.124 L 127.855, 275.5 L 129.404, 276.188 L 165.197, 227.662 L 153.84, 222.672 L 142.138, 225.081 L 133.534, 236.954 L 117.875, 230.243 L 98.6018, 181.372 L 109.099, 167.09 L 172.596, 153.151 L 189.288, 160.206 L 180.34, 172.424 L 184.642, 180.684 L 195.483, 185.33 L 233.168, 134.05 L 234.373, 134.567 L 269.649, 86.7283 L 230.243, 70.0366 L 227.834, 64.8742 L 274.812, 1.20456 L 281.523, 0 L 361.712, 34.0718 L 380.297, 41.9875 L 386.32, 33.8998 L 383.738, 32.6952 L 391.826, 21.8542 L 403.011, 26.6724 L 393.719, 39.0622 L 397.161, 40.6109 L 399.226, 37.6855 L 506.948, 83.6309 L 504.539, 86.9004 L 507.292, 88.105 L 516.068, 76.0594 L 573.887, 100.667 L 572.51, 102.388 L 591.611, 110.475 L 529.662, 194.795 L 510.217, 186.535 L 452.57, 264.659 L 455.152, 265.692 L 391.31, 352.42 L 389.073, 351.387 L 332.459, 428.307 L 353.969, 437.427 L 341.579, 454.119 L 342.611, 454.463 L 292.88, 521.919 L 272.747, 513.487 L 271.37, 515.38 L 213.551, 490.772 L 225.941, 473.908 L 221.983, 472.188 L 215.616, 480.619 L 107.034, 434.33 L 109.099, 431.405 L 105.485, 429.856 L 96.3648, 442.246 L 84.8354, 437.427 L 92.579, 426.758 L 96.0206, 428.135 L 99.8064, 422.973 L 0, 380.469 z M 278.253, 204.947 L 298.043, 213.379 L 310.26, 196.687 L 300.28, 192.385 L 299.247, 193.59 L 291.676, 190.32 L 292.708, 188.944 L 290.643, 188.083 L 278.253, 204.947 z M 256.055, 345.537 L 293.741, 361.54 L 296.322, 362.573 L 305.098, 350.527 L 264.831, 333.491 L 256.055, 345.537 z M 221.467, 277.221 L 244.182, 286.857 L 249.344, 279.974 L 226.629, 270.338 L 225.597, 271.542 L 221.467, 277.221 z M 466.509, 192.385 L 480.275, 198.064 L 488.879, 186.018 L 475.113, 180.34 L 466.509, 192.385 z M 423.661, 139.901 L 447.924, 149.882 L 450.85, 145.58 L 426.758, 135.599 L 423.661, 139.901 z "/>
<path style="fill:rgb(0, 255, 0);fill-opacity:0;fill-rule:evenodd;stroke:rgb(29, 0, 255);stroke-width:1;" d="M 706.905, 82.2542 L 744.074, 31.1465 L 827.877, 66.2508 L 812.39, 87.7608 L 807.055, 85.5238 L 791.396, 107.034 L 773.156, 99.4622 L 790.019, 76.2314 L 788.643, 72.9619 L 758.529, 60.228 L 748.892, 73.6502 L 771.263, 83.1146 L 759.561, 99.1181 L 733.749, 88.277 L 730.652, 88.6212 L 728.587, 91.3745 L 706.905, 82.2542 z "/>
</svg>