<?xml version="1.0" encoding="iso-8859-1" standalone="no"?>
<!DOCTYPE svg PUBLIC "-//W3C//DTD SVG 1.0//EN" "http://www.w3.org/TR/2001/REC-SVG-20010904/DTD/svg10.dtd">
<svg xmlns="http://www.w3.org/2000/svg" width="1046" height="800">
<path style="fill:rgb(255, 0, 0);fill-opacity:0;fill-rule:evenodd;stroke:rgb(0, 152, 255);stroke-width:1;" d="M 0, 556.969 L 9.0212, 537.483 L 5.77357, 536.581 L 7.21696, 533.333 L 8.11908, 533.694 L 25.6202, 495.444 L 26.1615, 494.181 L 28.1461, 490.212 L 27.0636, 489.851 L 27.244, 489.49 L 26.3419, 489.31 L 24.5377, 488.408 L 23.0943, 487.145 L 22.1922, 485.882 L 21.8313, 484.258 L 22.0117, 482.634 L 22.3726, 481.912 L 23.2747, 480.469 L 24.7181, 479.206 L 26.5223, 478.484 L 28.507, 477.943 L 30.6721, 477.943 L 32.4763, 478.304 L 50.6991, 483.175 L 62.4267, 457.555 L 87.6861, 464.231 L 76.3194, 487.866 L 99.7745, 494.542 L 107.894, 477.582 L 118.539, 480.469 L 118.358, 480.83 L 135.498, 485.341 L 131.529, 494.001 L 128.823, 493.279 L 126.477, 498.331 L 127.56, 499.053 L 128.281, 499.955 L 128.281, 501.037 L 127.921, 501.94 L 146.685, 506.811 L 146.324, 507.533 L 158.051, 510.78 L 151.015, 526.116 L 115.471, 516.554 L 115.111, 517.636 L 126.297, 520.523 L 124.312, 524.673 L 117.276, 522.688 L 106.991, 544.7 L 113.667, 546.504 L 106.811, 561.119 L 104.826, 560.577 L 104.465, 562.201 L 84.0776, 605.683 L 44.2039, 595.219 L 44.9256, 593.775 L 1.08254, 582.048 L 9.7429, 563.284 L 7.39738, 563.103 L 6.31484, 562.923 L 5.2323, 562.562 L 3.24763, 561.479 L 1.80424, 560.217 L 1.08254, 559.495 L 0.721696, 558.773 L 0, 556.969 z "/>
<path style="fill:rgb(0, 255, 0);fill-opacity:0;fill-rule:evenodd;stroke:rgb(0, 152, 255);stroke-width:1;" d="M 854.488, 330.537 L 880.65, 316.825 L 882.815, 318.99 L 887.866, 316.103 L 886.784, 315.02 L 982.95, 266.306 L 1032.21, 314.659 L 1036.72, 312.494 L 1046.64, 322.418 L 904.646, 373.297 L 854.488, 330.537 z M 910.239, 325.846 L 912.765, 328.913 L 913.306, 328.733 L 924.853, 341.723 L 924.132, 342.084 L 926.658, 344.79 L 940.37, 339.378 L 939.829, 338.475 L 991.791, 319.892 L 991.971, 321.155 L 1003.7, 316.644 L 1001.17, 313.216 L 999.91, 313.577 L 977.898, 291.385 L 958.412, 300.586 L 959.134, 301.488 L 929.905, 317.005 L 929.184, 316.103 L 910.239, 325.846 z "/>
<path style="fill:rgb(0, 0, 255);fill-opacity:0;fill-rule:evenodd;stroke:rgb(0, 152, 255);stroke-width:1;" d="M 311.592, 90.0316 L 402.706, 27.6049 L 446.189, 64.0505 L 361.931, 121.786 L 358.683, 123.951 L 311.592, 90.0316 z "/>
<path style="fill:rgb(255, 255, 0);fill-opacity:0;fill-rule:evenodd;stroke:rgb(0, 152, 255);stroke-width:1;" d="M 361.931, 121.786 L 446.189, 64.0505 L 489.851, 100.677 L 409.743, 155.525 L 361.931, 121.786 z "/>
<path style="fill:rgb(255, 0, 0);fill-opacity:0;fill-rule:evenodd;stroke:rgb(0, 152, 255);stroke-width:1;" d="M 432.657, 174.29 L 512.404, 119.26 L 556.067, 155.706 L 554.984, 156.428 L 479.567, 208.39 L 478.845, 208.931 L 432.657, 174.29 z "/>
<path style="fill:rgb(0, 255, 0);fill-opacity:0;fill-rule:evenodd;stroke:rgb(0, 152, 255);stroke-width:1;" d="M 721.516, 706.901 L 722.418, 706.54 L 732.882, 702.571 L 732.521, 702.21 L 735.047, 701.308 L 730.356, 694.091 L 733.243, 693.189 L 731.439, 690.483 L 750.564, 683.446 L 757.059, 693.369 L 770.23, 688.498 L 783.401, 708.886 L 773.297, 712.855 L 775.282, 715.922 L 781.055, 713.938 L 792.061, 730.898 L 795.489, 729.635 L 801.804, 739.378 L 798.015, 740.821 L 803.428, 749.12 L 797.294, 751.466 L 819.486, 785.566 L 781.055, 800 L 778.169, 795.309 L 781.958, 793.866 L 762.833, 764.276 L 759.765, 765.359 L 753.992, 756.337 L 756.879, 755.255 L 737.573, 725.304 L 734.145, 726.567 L 721.516, 706.901 z "/>
<path style="fill:rgb(0, 0, 255);fill-opacity:0;fill-rule:evenodd;stroke:rgb(0, 152, 255);stroke-width:1;" d="M 479.567, 208.39 L 554.984, 156.428 L 598.647, 192.693 L 527.56, 241.768 L 479.567, 208.39 z "/>
<path style="fill:rgb(255, 255, 0);fill-opacity:0;fill-rule:evenodd;stroke:rgb(0, 152, 255);stroke-width:1;" d="M 395.309, 265.945 L 411.006, 255.12 L 419.305, 262.156 L 433.018, 252.594 L 424.538, 245.737 L 437.709, 236.536 L 446.369, 243.572 L 457.736, 235.634 L 452.503, 231.304 L 475.237, 215.426 L 497.429, 230.221 L 499.053, 229.138 L 520.884, 245.016 L 467.118, 282.724 L 452.323, 270.456 L 453.225, 269.914 L 445.286, 263.419 L 436.987, 269.193 L 444.565, 275.327 L 445.106, 274.966 L 460.262, 287.415 L 440.595, 301.128 L 425.259, 290.663 L 395.309, 265.945 z "/>
<path style="fill:rgb(255, 0, 0);fill-opacity:0;fill-rule:evenodd;stroke:rgb(0, 152, 255);stroke-width:1;" d="M 478.845, 309.968 L 487.325, 304.014 L 488.769, 305.097 L 497.068, 299.323 L 495.625, 298.06 L 550.834, 258.728 L 598.647, 291.926 L 543.257, 331.258 L 542.174, 330.356 L 539.287, 332.521 L 531.71, 326.387 L 526.116, 330.537 L 521.425, 326.748 L 518.719, 328.552 L 513.848, 326.567 L 511.502, 324.583 L 509.698, 325.846 L 502.481, 319.892 L 503.924, 318.809 L 501.037, 315.922 L 500.135, 312.855 L 492.558, 318.088 L 488.227, 314.479 L 486.062, 315.922 L 478.845, 309.968 z "/>
<path style="fill:rgb(0, 255, 0);fill-opacity:0;fill-rule:evenodd;stroke:rgb(0, 152, 255);stroke-width:1;" d="M 351.466, 229.86 L 370.771, 216.328 L 385.386, 228.417 L 384.664, 228.958 L 392.783, 235.814 L 401.804, 229.499 L 393.685, 222.643 L 393.144, 223.004 L 378.89, 211.096 L 427.244, 176.996 L 447.452, 192.332 L 445.467, 193.595 L 462.788, 205.142 L 462.246, 205.503 L 464.592, 207.488 L 464.231, 207.848 L 467.839, 210.916 L 445.828, 226.432 L 440.776, 222.102 L 429.59, 229.86 L 437.709, 236.536 L 424.538, 245.737 L 416.238, 238.701 L 402.706, 248.263 L 411.006, 255.12 L 395.309, 265.945 L 351.466, 229.86 z "/>
<path style="fill:rgb(0, 0, 255);fill-opacity:0;fill-rule:evenodd;stroke:rgb(0, 152, 255);stroke-width:1;" d="M 866.035, 507.894 L 879.567, 502.842 L 881.191, 505.187 L 885.16, 507.713 L 899.414, 502.481 L 895.805, 496.888 L 915.291, 489.671 L 965.088, 567.433 L 945.783, 574.65 L 941.994, 568.696 L 927.379, 574.109 L 927.74, 576.996 L 930.086, 580.424 L 916.013, 585.476 L 901.759, 563.103 L 920.884, 556.067 L 916.373, 549.211 L 913.487, 550.293 L 909.878, 549.932 L 896.346, 554.984 L 885.341, 537.664 L 898.331, 532.972 L 900.677, 530.988 L 903.924, 529.725 L 899.414, 522.688 L 880.108, 529.725 L 866.035, 507.894 z "/>
<path style="fill:rgb(255, 255, 0);fill-opacity:0;fill-rule:evenodd;stroke:rgb(0, 152, 255);stroke-width:1;" d="M 550.834, 258.728 L 572.124, 243.933 L 605.683, 271.719 L 653.676, 238.34 L 685.972, 264.862 L 676.77, 271.177 L 631.304, 303.112 L 613.081, 301.849 L 598.647, 291.926 L 550.834, 258.728 z "/>
<path style="fill:rgb(255, 0, 0);fill-opacity:0;fill-rule:evenodd;stroke:rgb(0, 152, 255);stroke-width:1;" d="M 854.488, 237.077 L 917.276, 193.775 L 928.281, 204.781 L 924.312, 207.127 L 972.666, 254.939 L 913.667, 285.431 L 896.346, 270.816 L 906.45, 265.584 L 906.089, 265.043 L 926.477, 254.037 L 927.018, 254.939 L 936.401, 249.887 L 932.07, 245.016 L 931.168, 245.557 L 910.419, 223.726 L 901.037, 229.86 L 901.94, 230.762 L 879.928, 245.196 L 879.567, 245.016 L 870.907, 250.97 L 854.488, 237.077 z "/>
<path style="fill:rgb(0, 255, 0);fill-opacity:0;fill-rule:evenodd;stroke:rgb(0, 152, 255);stroke-width:1;" d="M 792.783, 279.296 L 854.488, 237.077 L 870.907, 250.97 L 863.148, 256.202 L 863.87, 256.924 L 835.183, 276.59 L 834.461, 276.049 L 827.064, 281.101 L 845.828, 296.797 L 854.849, 292.106 L 853.947, 291.024 L 886.062, 274.786 L 886.964, 275.688 L 896.346, 270.816 L 913.667, 285.431 L 869.283, 307.984 L 870.546, 309.247 L 844.384, 322.598 L 792.783, 279.296 z "/>
<path style="fill:rgb(0, 0, 255);fill-opacity:0;fill-rule:evenodd;stroke:rgb(0, 152, 255);stroke-width:1;" d="M 252.954, 157.691 L 263.599, 141.994 L 284.889, 149.752 L 288.498, 143.437 L 267.569, 135.498 L 283.627, 109.698 L 302.751, 125.034 L 310.149, 120.162 L 291.385, 104.826 L 311.231, 90.9337 L 325.485, 100.857 L 322.237, 102.661 L 344.429, 118.899 L 355.977, 127.199 L 335.949, 140.911 L 322.598, 129.544 L 315.922, 134.055 L 329.454, 145.422 L 311.953, 157.51 L 298.06, 145.963 L 293.55, 152.458 L 306.721, 163.464 L 286.874, 176.996 L 280.018, 172.124 L 272.801, 167.614 L 265.043, 163.284 L 257.104, 159.495 L 252.954, 157.691 z "/>
<path style="fill:rgb(255, 255, 0);fill-opacity:0;fill-rule:evenodd;stroke:rgb(0, 152, 255);stroke-width:1;" d="M 776.906, 498.512 L 830.131, 470.185 L 836.987, 481.191 L 837.709, 482.273 L 832.837, 484.078 L 831.033, 486.604 L 832.657, 489.31 L 835.544, 488.227 L 868.922, 540.009 L 840.956, 550.293 L 841.317, 551.015 L 816.599, 560.217 L 800.722, 535.498 L 816.779, 529.364 L 819.847, 534.055 L 824.357, 535.498 L 836.987, 530.807 L 839.693, 527.74 L 828.687, 510.6 L 823.636, 509.878 L 811.728, 514.208 L 809.743, 517.456 L 812.991, 522.688 L 796.392, 528.823 L 776.906, 498.512 z "/>
<path style="fill:rgb(255, 0, 0);fill-opacity:0;fill-rule:evenodd;stroke:rgb(0, 152, 255);stroke-width:1;" d="M 667.93, 622.102 L 686.333, 612.179 L 688.678, 615.607 L 698.602, 611.998 L 697.88, 610.916 L 720.253, 599.549 L 730.717, 615.787 L 713.938, 621.922 L 715.922, 624.989 L 710.329, 626.973 L 713.036, 631.123 L 735.228, 622.824 L 747.136, 641.407 L 725.124, 649.526 L 727.47, 653.135 L 731.258, 651.691 L 733.784, 655.661 L 752.007, 648.985 L 762.291, 664.682 L 726.928, 677.853 L 729.454, 681.822 L 727.289, 682.724 L 710.871, 688.678 L 698.782, 670.095 L 719.531, 662.336 L 714.659, 654.759 L 693.911, 662.517 L 683.987, 647 L 704.556, 639.423 L 699.504, 631.304 L 678.935, 639.062 L 667.93, 622.102 z "/>
<path style="fill:rgb(0, 255, 0);fill-opacity:0;fill-rule:evenodd;stroke:rgb(0, 152, 255);stroke-width:1;" d="M 714.299, 213.261 L 730.717, 202.075 L 736.31, 206.766 L 772.034, 182.228 L 766.261, 177.537 L 780.514, 167.794 L 808.48, 191.249 L 809.202, 190.708 L 824.899, 203.699 L 800, 220.839 L 786.829, 209.833 L 791.7, 206.405 L 780.875, 197.384 L 761.028, 211.096 L 772.034, 220.478 L 777.447, 216.689 L 790.257, 227.515 L 757.24, 250.248 L 738.656, 234.732 L 748.579, 227.876 L 742.445, 223.004 L 733.243, 229.138 L 714.299, 213.261 z "/>
<path style="fill:rgb(0, 0, 255);fill-opacity:0;fill-rule:evenodd;stroke:rgb(0, 152, 255);stroke-width:1;" d="M 670.095, 177.176 L 702.932, 154.443 L 716.103, 165.449 L 710.51, 169.418 L 721.335, 178.62 L 741.543, 164.727 L 730.717, 155.706 L 725.846, 159.134 L 712.494, 147.948 L 737.573, 130.807 L 753.27, 143.978 L 752.548, 144.339 L 780.514, 167.794 L 766.261, 177.537 L 760.668, 172.846 L 725.124, 197.203 L 730.717, 202.075 L 714.299, 213.261 L 695.354, 197.384 L 704.195, 191.249 L 698.241, 186.378 L 688.859, 192.873 L 670.095, 177.176 z "/>
<path style="fill:rgb(255, 255, 0);fill-opacity:0;fill-rule:evenodd;stroke:rgb(0, 152, 255);stroke-width:1;" d="M 291.926, 180.424 L 306.36, 170.681 L 312.134, 175.553 L 325.665, 166.351 L 319.711, 161.119 L 334.687, 150.834 L 340.641, 155.886 L 354.353, 146.504 L 348.579, 141.633 L 361.931, 132.431 L 375.462, 142.174 L 374.019, 143.076 L 377.267, 145.963 L 380.514, 143.798 L 403.067, 160.217 L 385.747, 172.124 L 368.245, 157.33 L 361.389, 162.021 L 378.89, 176.816 L 355.616, 192.693 L 338.656, 178.439 L 330.176, 184.213 L 333.424, 187.1 L 335.228, 185.837 L 349.12, 197.564 L 328.913, 211.457 L 291.926, 180.424 z "/>
<path style="fill:rgb(255, 0, 0);fill-opacity:0;fill-rule:evenodd;stroke:rgb(0, 152, 255);stroke-width:1;" d="M 544.52, 646.459 L 589.626, 606.225 L 604.06, 593.956 L 620.298, 619.215 L 610.735, 622.643 L 611.276, 623.545 L 606.946, 625.169 L 611.096, 631.664 L 615.426, 630.221 L 615.607, 630.582 L 625.35, 626.973 L 639.062, 648.263 L 606.946, 660.171 L 597.925, 646.098 L 593.415, 645.737 L 591.069, 642.309 L 584.935, 644.655 L 595.76, 661.434 L 567.794, 671.719 L 558.051, 656.743 L 552.458, 658.728 L 544.52, 646.459 z "/>
<path style="fill:rgb(0, 255, 0);fill-opacity:0;fill-rule:evenodd;stroke:rgb(0, 152, 255);stroke-width:1;" d="M 481.732, 709.247 L 500.135, 685.611 L 511.502, 676.049 L 521.786, 682.724 L 529.003, 676.229 L 518.719, 669.734 L 544.52, 646.459 L 552.458, 658.728 L 555.165, 662.878 L 548.309, 665.404 L 551.556, 670.456 L 549.391, 671.177 L 569.057, 701.849 L 571.042, 700.947 L 574.47, 706.18 L 580.965, 703.834 L 589.445, 716.825 L 571.944, 723.139 L 569.959, 720.072 L 562.201, 719.17 L 560.036, 720.433 L 555.165, 720.253 L 553.36, 718.088 L 551.015, 719.711 L 546.504, 718.99 L 544.88, 717.546 L 538.205, 716.644 L 541.272, 700.045 L 538.746, 699.684 L 539.287, 696.076 L 528.462, 694.993 L 524.853, 715.201 L 517.276, 714.299 L 515.652, 715.381 L 510.6, 714.84 L 508.615, 713.036 L 506.089, 714.84 L 501.579, 714.299 L 500.496, 712.494 L 484.799, 710.871 L 481.732, 709.247 z "/>
<path style="fill:rgb(0, 0, 255);fill-opacity:0;fill-rule:evenodd;stroke:rgb(0, 152, 255);stroke-width:1;" d="M 854.668, 125.395 L 919.982, 80.1083 L 941.452, 97.9702 L 940.009, 98.8724 L 946.143, 103.924 L 950.834, 100.496 L 961.66, 109.517 L 929.003, 132.251 L 916.013, 121.425 L 925.214, 114.93 L 914.569, 106.27 L 885.882, 126.297 L 896.166, 134.777 L 905.007, 128.642 L 918.358, 139.648 L 886.423, 161.84 L 876.68, 152.278 L 881.191, 149.211 L 863.329, 134.235 L 864.411, 133.514 L 854.668, 125.395 z "/>
<path style="fill:rgb(255, 255, 0);fill-opacity:0;fill-rule:evenodd;stroke:rgb(0, 152, 255);stroke-width:1;" d="M 848.714, 610.555 L 861.705, 605.864 L 868.02, 603.518 L 873.793, 612.539 L 886.062, 608.029 L 885.521, 605.683 L 880.83, 598.466 L 897.249, 592.512 L 916.554, 622.643 L 905.909, 626.613 L 904.826, 624.989 L 891.655, 629.86 L 893.82, 633.288 L 895.625, 632.567 L 896.888, 632.567 L 898.512, 635.092 L 898.151, 636.355 L 896.527, 636.897 L 898.512, 639.964 L 909.698, 635.814 L 908.976, 634.732 L 921.425, 630.221 L 939.829, 658.728 L 922.688, 665.223 L 916.734, 656.022 L 904.646, 660.532 L 904.646, 662.336 L 909.517, 670.095 L 899.053, 673.884 L 891.295, 676.77 L 875.056, 651.511 L 887.506, 646.82 L 884.98, 642.67 L 883.717, 643.031 L 879.928, 637.077 L 881.552, 636.536 L 879.206, 632.927 L 866.216, 637.618 L 848.714, 610.555 z "/>
<path style="fill:rgb(255, 0, 0);fill-opacity:0;fill-rule:evenodd;stroke:rgb(0, 152, 255);stroke-width:1;" d="M 830.131, 470.185 L 884.258, 441.317 L 915.291, 489.671 L 895.805, 496.888 L 879.567, 502.842 L 866.035, 507.894 L 857.555, 510.961 L 838.25, 480.65 L 836.987, 481.191 L 830.131, 470.185 z "/>
<path style="fill:rgb(0, 255, 0);fill-opacity:0;fill-rule:evenodd;stroke:rgb(0, 152, 255);stroke-width:1;" d="M 542.896, 340.821 L 560.577, 328.733 L 557.871, 326.748 L 569.418, 318.268 L 572.124, 320.974 L 599.369, 301.849 L 616.689, 314.118 L 614.524, 315.562 L 597.203, 327.289 L 601.173, 330.717 L 606.044, 331.439 L 623.906, 319.17 L 660.352, 344.79 L 661.795, 343.347 L 673.703, 352.729 L 670.816, 357.42 L 600.992, 350.564 L 602.977, 338.475 L 593.775, 337.573 L 591.791, 349.662 L 569.418, 347.497 L 543.798, 342.264 L 542.896, 340.821 z "/>
<path style="fill:rgb(0, 0, 255);fill-opacity:0;fill-rule:evenodd;stroke:rgb(0, 152, 255);stroke-width:1;" d="M 585.656, 680.018 L 624.267, 665.765 L 621.561, 661.434 L 642.49, 653.676 L 654.939, 673.162 L 634.912, 680.559 L 639.603, 687.957 L 659.811, 680.559 L 673.523, 701.849 L 654.578, 708.886 L 649.707, 701.488 L 639.964, 705.097 L 638.16, 702.391 L 633.649, 704.014 L 635.995, 707.803 L 634.912, 708.164 L 638.701, 714.299 L 618.313, 721.876 L 616.328, 718.629 L 605.503, 722.598 L 595.038, 706.36 L 617.411, 698.241 L 612.539, 690.843 L 605.503, 693.369 L 605.142, 692.828 L 596.121, 696.256 L 585.656, 680.018 z "/>
<path style="fill:rgb(255, 255, 0);fill-opacity:0;fill-rule:evenodd;stroke:rgb(0, 152, 255);stroke-width:1;" d="M 701.488, 539.829 L 743.527, 517.817 L 753.811, 533.694 L 741.001, 538.385 L 746.234, 546.504 L 759.044, 541.813 L 768.426, 556.428 L 755.255, 561.299 L 760.307, 569.238 L 773.478, 564.186 L 785.386, 582.409 L 771.313, 587.641 L 769.869, 585.476 L 766.08, 583.311 L 752.188, 588.363 L 755.977, 594.136 L 742.084, 599.369 L 728.733, 578.8 L 746.234, 572.305 L 743.708, 568.336 L 740.46, 569.418 L 739.919, 568.516 L 737.573, 569.418 L 733.965, 569.057 L 724.763, 572.485 L 717.546, 561.119 L 727.289, 557.33 L 729.093, 554.984 L 734.506, 553 L 733.243, 551.015 L 732.341, 551.376 L 730.356, 548.489 L 711.592, 555.345 L 701.488, 539.829 z "/>
<path style="fill:rgb(255, 0, 0);fill-opacity:0;fill-rule:evenodd;stroke:rgb(0, 152, 255);stroke-width:1;" d="M 742.084, 599.369 L 755.977, 594.136 L 759.765, 600.09 L 771.493, 595.76 L 774.38, 592.512 L 771.313, 587.641 L 785.386, 582.409 L 803.428, 610.374 L 794.226, 613.802 L 792.061, 610.374 L 781.958, 614.163 L 791.7, 629.319 L 801.804, 625.71 L 799.459, 621.922 L 808.48, 618.493 L 826.522, 646.279 L 812.449, 651.511 L 809.743, 647.361 L 804.15, 647.181 L 792.783, 651.511 L 796.211, 656.743 L 782.499, 661.795 L 765.178, 634.912 L 777.267, 630.401 L 775.462, 627.695 L 772.936, 628.597 L 771.132, 625.71 L 773.658, 624.808 L 772.034, 622.282 L 759.946, 626.793 L 742.084, 599.369 z "/>
<path style="fill:rgb(0, 255, 0);fill-opacity:0;fill-rule:evenodd;stroke:rgb(0, 152, 255);stroke-width:1;" d="M 742.806, 127.018 L 769.328, 109.157 L 784.844, 122.327 L 795.67, 114.93 L 779.973, 101.759 L 806.856, 83.5363 L 818.223, 94.903 L 810.825, 99.9549 L 824.899, 111.863 L 830.131, 108.254 L 838.25, 114.569 L 841.317, 117.095 L 815.156, 134.957 L 808.841, 129.725 L 810.284, 128.823 L 801.985, 121.967 L 792.061, 128.823 L 800, 135.498 L 801.083, 134.777 L 807.578, 140.189 L 780.334, 158.773 L 769.869, 149.932 L 776.545, 145.422 L 770.591, 140.37 L 771.854, 139.468 L 771.493, 139.287 L 763.194, 132.251 L 755.255, 137.664 L 742.806, 127.018 z "/>
<path style="fill:rgb(0, 0, 255);fill-opacity:0;fill-rule:evenodd;stroke:rgb(0, 152, 255);stroke-width:1;" d="M 777.988, 667.388 L 800.902, 658.908 L 802.526, 661.434 L 811.547, 658.006 L 808.3, 652.954 L 812.449, 651.511 L 826.522, 646.279 L 841.317, 669.373 L 831.755, 672.982 L 830.672, 671.358 L 807.037, 680.198 L 814.795, 692.106 L 838.611, 683.266 L 837.709, 681.642 L 847.091, 678.214 L 862.246, 701.849 L 848.173, 707.082 L 844.204, 708.525 L 840.595, 702.932 L 831.033, 706.36 L 832.657, 708.705 L 810.104, 717.005 L 777.988, 667.388 z "/>
<path style="fill:rgb(255, 255, 0);fill-opacity:0;fill-rule:evenodd;stroke:rgb(0, 152, 255);stroke-width:1;" d="M 636.716, 573.568 L 655.3, 563.825 L 656.743, 565.449 L 663.419, 562.021 L 661.976, 560.397 L 687.415, 547.226 L 694.993, 558.773 L 697.7, 557.871 L 705.277, 569.238 L 675.507, 580.244 L 677.853, 583.852 L 680.92, 582.589 L 683.085, 586.017 L 687.596, 585.837 L 705.277, 579.161 L 713.216, 591.43 L 711.592, 592.152 L 711.592, 592.332 L 696.076, 598.106 L 697.519, 600.271 L 690.122, 602.977 L 690.663, 603.699 L 682.905, 606.585 L 686.333, 612.179 L 667.93, 622.102 L 654.037, 600.631 L 662.336, 597.564 L 661.615, 596.662 L 670.095, 593.415 L 665.584, 586.378 L 657.465, 589.265 L 656.924, 588.543 L 648.263, 591.791 L 636.716, 573.568 z "/>
<path style="fill:rgb(255, 0, 0);fill-opacity:0;fill-rule:evenodd;stroke:rgb(0, 152, 255);stroke-width:1;" d="M 792.603, 169.238 L 818.764, 151.015 L 831.394, 161.66 L 838.43, 156.788 L 825.981, 146.504 L 851.962, 128.462 L 859.359, 134.596 L 858.097, 135.498 L 863.148, 139.648 L 855.751, 144.7 L 868.02, 154.984 L 874.515, 150.474 L 876.68, 152.278 L 886.423, 161.84 L 863.69, 177.537 L 845.828, 162.742 L 835.363, 169.959 L 853.225, 184.754 L 830.492, 200.631 L 817.682, 189.986 L 823.816, 185.656 L 817.682, 180.785 L 819.847, 179.341 L 816.779, 176.816 L 816.599, 176.816 L 812.991, 173.748 L 804.871, 179.341 L 792.603, 169.238 z "/>
<path style="fill:rgb(0, 255, 0);fill-opacity:0;fill-rule:evenodd;stroke:rgb(0, 152, 255);stroke-width:1;" d="M 891.295, 676.77 L 899.053, 673.884 L 901.398, 677.492 L 907.713, 675.868 L 909.517, 676.41 L 943.437, 663.96 L 968.696, 703.293 L 952.097, 709.427 L 945.963, 700.045 L 941.272, 701.669 L 938.385, 697.158 L 931.529, 699.684 L 935.138, 705.097 L 933.153, 705.819 L 938.566, 714.479 L 919.802, 721.335 L 909.517, 705.277 L 910.78, 703.293 L 912.585, 702.751 L 909.157, 697.158 L 907.713, 697.7 L 904.285, 697.158 L 891.295, 676.77 z "/>
<path style="fill:rgb(0, 0, 255);fill-opacity:0;fill-rule:evenodd;stroke:rgb(0, 152, 255);stroke-width:1;" d="M 820.027, 565.81 L 833.018, 560.938 L 834.822, 563.645 L 842.76, 560.758 L 843.302, 561.84 L 847.993, 560.036 L 847.271, 558.954 L 872.711, 549.752 L 882.815, 565.449 L 864.411, 572.305 L 868.561, 578.8 L 886.964, 572.124 L 897.429, 588.363 L 887.325, 591.971 L 886.784, 591.249 L 871.267, 596.843 L 870.726, 595.94 L 866.576, 597.384 L 867.298, 598.466 L 858.999, 601.534 L 861.705, 605.864 L 848.714, 610.555 L 836.085, 590.889 L 857.375, 582.95 L 853.045, 576.094 L 831.755, 584.032 L 820.027, 565.81 z "/>
<path style="fill:rgb(255, 255, 0);fill-opacity:0;fill-rule:evenodd;stroke:rgb(0, 152, 255);stroke-width:1;" d="M 907.533, 588.724 L 916.013, 585.476 L 930.086, 580.424 L 945.783, 574.65 L 965.088, 567.433 L 981.326, 592.693 L 923.771, 613.983 L 907.533, 588.724 z "/>
<path style="fill:rgb(255, 0, 0);fill-opacity:0;fill-rule:evenodd;stroke:rgb(0, 152, 255);stroke-width:1;" d="M 613.081, 301.849 L 631.304, 303.112 L 676.77, 271.177 L 682.544, 275.868 L 680.198, 277.492 L 680.92, 278.214 L 679.838, 289.22 L 677.853, 290.663 L 678.935, 291.565 L 650.789, 311.231 L 648.083, 308.886 L 635.453, 317.727 L 613.081, 301.849 z "/>
<path style="fill:rgb(0, 255, 0);fill-opacity:0;fill-rule:evenodd;stroke:rgb(0, 152, 255);stroke-width:1;" d="M 76.3194, 487.866 L 87.6861, 464.231 L 89.1295, 462.427 L 90.0316, 462.788 L 92.3771, 457.555 L 93.0988, 457.916 L 94.0009, 456.112 L 95.4443, 454.668 L 96.3464, 454.127 L 97.2485, 453.586 L 99.4136, 452.684 L 101.759, 452.323 L 104.105, 452.323 L 105.368, 452.323 L 107.533, 453.045 L 109.517, 453.947 L 111.322, 455.21 L 111.863, 455.931 L 112.945, 457.736 L 113.126, 458.457 L 113.487, 460.442 L 113.126, 462.246 L 112.765, 462.968 L 113.667, 463.329 L 111.141, 468.561 L 112.043, 468.922 L 107.894, 477.582 L 99.7745, 494.542 L 76.3194, 487.866 z "/>
<path style="fill:rgb(0, 0, 255);fill-opacity:0;fill-rule:evenodd;stroke:rgb(0, 152, 255);stroke-width:1;" d="M 553, 53.4055 L 565.629, 44.3843 L 599.549, 71.8088 L 587.821, 80.1083 L 584.032, 77.041 L 574.29, 83.8972 L 562.562, 74.1543 L 571.042, 68.2003 L 553, 53.4055 z "/>
<path style="fill:rgb(255, 255, 0);fill-opacity:0;fill-rule:evenodd;stroke:rgb(0, 152, 255);stroke-width:1;" d="M 710.871, 688.678 L 727.289, 682.724 L 729.093, 685.611 L 743.347, 680.379 L 741.362, 677.492 L 762.472, 669.553 L 768.245, 678.394 L 764.637, 679.838 L 770.23, 688.498 L 757.059, 693.369 L 750.564, 683.446 L 731.439, 690.483 L 733.243, 693.189 L 730.356, 694.091 L 735.047, 701.308 L 732.521, 702.21 L 732.882, 702.571 L 722.418, 706.54 L 710.871, 688.678 z "/>
<path style="fill:rgb(255, 0, 0);fill-opacity:0;fill-rule:evenodd;stroke:rgb(0, 152, 255);stroke-width:1;" d="M 482.634, 460.081 L 501.94, 456.292 L 505.187, 465.494 L 499.414, 466.576 L 507.533, 490.212 L 512.404, 489.31 L 515.471, 497.97 L 496.888, 501.579 L 483.356, 462.246 L 482.634, 460.081 z "/>
<path style="fill:rgb(0, 255, 0);fill-opacity:0;fill-rule:evenodd;stroke:rgb(0, 152, 255);stroke-width:1;" d="M 838.25, 61.8854 L 846.008, 56.2923 L 849.617, 59.3595 L 853.586, 56.6531 L 878.665, 77.2215 L 867.118, 85.3406 L 838.25, 61.8854 z "/>
<path style="fill:rgb(0, 0, 255);fill-opacity:0;fill-rule:evenodd;stroke:rgb(0, 152, 255);stroke-width:1;" d="M 826.703, 76.3194 L 830.853, 73.4326 L 826.883, 70.0045 L 834.1, 64.9526 L 863.509, 88.7686 L 851.962, 96.8877 L 826.703, 76.3194 z "/>
<path style="fill:rgb(255, 255, 0);fill-opacity:0;fill-rule:evenodd;stroke:rgb(0, 152, 255);stroke-width:1;" d="M 892.016, 24.5377 L 899.955, 18.7641 L 903.383, 21.6509 L 906.811, 19.1249 L 932.612, 39.5129 L 921.245, 47.8124 L 892.016, 24.5377 z "/>
<path style="fill:rgb(255, 0, 0);fill-opacity:0;fill-rule:evenodd;stroke:rgb(0, 152, 255);stroke-width:1;" d="M 865.313, 43.3018 L 873.252, 37.7086 L 876.68, 40.5954 L 880.289, 37.889 L 905.548, 58.0965 L 894.001, 66.396 L 865.313, 43.3018 z "/>
<path style="fill:rgb(0, 255, 0);fill-opacity:0;fill-rule:evenodd;stroke:rgb(0, 152, 255);stroke-width:1;" d="M 906.811, 19.1249 L 910.6, 16.4186 L 907.172, 13.7122 L 914.389, 8.2995 L 943.618, 31.5742 L 932.612, 39.5129 L 906.811, 19.1249 z "/>
<path style="fill:rgb(0, 0, 255);fill-opacity:0;fill-rule:evenodd;stroke:rgb(0, 152, 255);stroke-width:1;" d="M 811.908, 80.6495 L 819.305, 75.4172 L 823.455, 78.6649 L 826.703, 76.3194 L 851.962, 96.8877 L 841.317, 104.465 L 811.908, 80.6495 z "/>
<path style="fill:rgb(255, 255, 0);fill-opacity:0;fill-rule:evenodd;stroke:rgb(0, 152, 255);stroke-width:1;" d="M 918.899, 5.2323 L 926.658, 0 L 930.086, 2.70636 L 933.514, 0.360848 L 958.412, 20.9292 L 947.226, 28.507 L 918.899, 5.2323 z "/>
<path style="fill:rgb(255, 0, 0);fill-opacity:0;fill-rule:evenodd;stroke:rgb(0, 152, 255);stroke-width:1;" d="M 853.586, 56.6531 L 856.834, 54.3076 L 853.586, 51.6013 L 861.344, 46.1885 L 889.671, 69.4632 L 878.665, 77.2215 L 853.586, 56.6531 z "/>
<path style="fill:rgb(0, 255, 0);fill-opacity:0;fill-rule:evenodd;stroke:rgb(0, 152, 255);stroke-width:1;" d="M 880.289, 37.889 L 884.078, 35.3631 L 880.65, 32.4763 L 887.866, 27.244 L 916.373, 50.3383 L 905.548, 58.0965 L 880.289, 37.889 z "/>
<path style="fill:rgb(0, 0, 255);fill-opacity:0;fill-rule:evenodd;stroke:rgb(0, 152, 255);stroke-width:1;" d="M 838.25, 114.569 L 854.488, 102.661 L 863.87, 110.239 L 847.632, 121.967 L 841.317, 117.095 L 838.25, 114.569 z "/>
<path style="fill:rgb(255, 255, 0);fill-opacity:0;fill-rule:evenodd;stroke:rgb(0, 152, 255);stroke-width:1;" d="M 910.6, 62.968 L 919.26, 56.6531 L 927.921, 63.5092 L 919.26, 69.8241 L 910.6, 62.968 z "/>
<path style="fill:rgb(255, 0, 0);fill-opacity:0;fill-rule:evenodd;stroke:rgb(0, 152, 255);stroke-width:1;" d="M 902.661, 68.7415 L 910.6, 62.968 L 919.26, 69.8241 L 911.322, 75.5977 L 902.661, 68.7415 z "/>
<path style="fill:rgb(0, 255, 0);fill-opacity:0;fill-rule:evenodd;stroke:rgb(0, 152, 255);stroke-width:1;" d="M 883.717, 81.9125 L 892.016, 76.1389 L 900.316, 82.8146 L 892.016, 88.5882 L 883.717, 81.9125 z "/>
<path style="fill:rgb(0, 0, 255);fill-opacity:0;fill-rule:evenodd;stroke:rgb(0, 152, 255);stroke-width:1;" d="M 864.051, 97.9702 L 872.17, 92.0162 L 880.108, 98.3311 L 871.989, 104.105 L 864.051, 97.9702 z "/>
<path style="fill:rgb(255, 255, 0);fill-opacity:0;fill-rule:evenodd;stroke:rgb(0, 152, 255);stroke-width:1;" d="M 928.823, 49.6166 L 937.664, 43.6626 L 944.88, 49.6166 L 936.22, 55.5706 L 928.823, 49.6166 z "/>
<path style="fill:rgb(255, 0, 0);fill-opacity:0;fill-rule:evenodd;stroke:rgb(0, 152, 255);stroke-width:1;" d="M 937.664, 43.6626 L 945.783, 37.889 L 953, 44.0235 L 944.88, 49.6166 L 937.664, 43.6626 z "/>
<path style="fill:rgb(0, 255, 0);fill-opacity:0;fill-rule:evenodd;stroke:rgb(0, 152, 255);stroke-width:1;" d="M 872.17, 92.0162 L 879.747, 86.6035 L 887.686, 92.7379 L 880.108, 98.3311 L 872.17, 92.0162 z "/>
</svg>