<?xml version="1.0" encoding="iso-8859-1" standalone="no"?>
<!DOCTYPE svg PUBLIC "-//W3C//DTD SVG 1.0//EN" "http://www.w3.org/TR/2001/REC-SVG-20010904/DTD/svg10.dtd">
<svg xmlns="http://www.w3.org/2000/svg" width="1050" height="800">
<path style="fill:rgb(255, 0, 0);fill-opacity:0;fill-rule:evenodd;stroke:rgb(255, 0, 118);stroke-width:1;" d="M 389.465, 640.415 L 411.054, 623.661 L 389.983, 607.945 L 561.313, 475.82 L 605.009, 508.636 L 412.09, 657.513 L 389.465, 640.415 z "/>
<path style="fill:rgb(0, 255, 0);fill-opacity:0;fill-rule:evenodd;stroke:rgb(255, 0, 118);stroke-width:1;" d="M 444.732, 455.268 L 573.057, 356.304 L 594.646, 372.366 L 579.62, 383.938 L 605.354, 403.282 L 493.955, 489.119 L 491.883, 490.674 L 444.732, 455.268 z "/>
<path style="fill:rgb(0, 0, 255);fill-opacity:0;fill-rule:evenodd;stroke:rgb(255, 0, 118);stroke-width:1;" d="M 41.6235, 627.288 L 56.9948, 615.889 L 52.5043, 612.435 L 75.475, 595.337 L 202.245, 693.61 L 183.592, 707.599 L 164.076, 722.107 L 41.6235, 627.288 z "/>
<path style="fill:rgb(255, 255, 0);fill-opacity:0;fill-rule:evenodd;stroke:rgb(255, 0, 118);stroke-width:1;" d="M 887.737, 318.826 L 937.824, 245.941 L 998.791, 270.121 L 950.95, 339.033 L 936.097, 333.161 L 925.907, 348.014 L 887.737, 318.826 z "/>
<path style="fill:rgb(255, 0, 0);fill-opacity:0;fill-rule:evenodd;stroke:rgb(255, 0, 118);stroke-width:1;" d="M 103.109, 594.301 L 134.715, 570.639 L 252.504, 661.485 L 228.152, 679.62 L 220.898, 685.147 L 103.109, 594.301 z "/>
<path style="fill:rgb(0, 255, 0);fill-opacity:0;fill-rule:evenodd;stroke:rgb(255, 0, 118);stroke-width:1;" d="M 9.32642, 288.083 L 11.5717, 269.43 L 18.4801, 269.775 L 29.5337, 174.439 L 79.1019, 177.72 L 68.0484, 273.057 L 70.8117, 273.402 L 70.1209, 279.275 L 68.5665, 279.102 L 68.0484, 282.729 L 46.9775, 281.347 L 48.0138, 271.848 L 35.924, 270.984 L 33.6788, 289.81 L 9.32642, 288.083 z "/>
<path style="fill:rgb(0, 0, 255);fill-opacity:0;fill-rule:evenodd;stroke:rgb(255, 0, 118);stroke-width:1;" d="M 862.694, 178.756 L 906.218, 116.062 L 973.402, 143.005 L 930.052, 205.699 L 882.211, 186.528 L 862.694, 178.756 z "/>
<path style="fill:rgb(255, 255, 0);fill-opacity:0;fill-rule:evenodd;stroke:rgb(255, 0, 118);stroke-width:1;" d="M 937.997, 357.513 L 950.95, 339.033 L 998.791, 270.121 L 1050.6, 291.71 L 996.718, 367.012 L 984.456, 353.195 L 953.713, 368.912 L 937.997, 357.513 z "/>
<path style="fill:rgb(255, 0, 0);fill-opacity:0;fill-rule:evenodd;stroke:rgb(255, 0, 118);stroke-width:1;" d="M 254.059, 500 L 323.316, 447.15 L 367.185, 481.174 L 283.938, 544.732 L 260.276, 511.226 L 254.059, 500 z "/>
<path style="fill:rgb(0, 255, 0);fill-opacity:0;fill-rule:evenodd;stroke:rgb(255, 0, 118);stroke-width:1;" d="M 11.9171, 669.43 L 20.8981, 662.694 L 12.2625, 656.131 L 32.4698, 640.933 L 150.604, 731.779 L 121.416, 753.713 L 11.9171, 669.43 z "/>
<path style="fill:rgb(0, 0, 255);fill-opacity:0;fill-rule:evenodd;stroke:rgb(255, 0, 118);stroke-width:1;" d="M 684.629, 141.278 L 707.427, 108.636 L 829.016, 157.34 L 806.39, 189.983 L 749.568, 167.358 L 684.629, 141.278 z "/>
<path style="fill:rgb(255, 255, 0);fill-opacity:0;fill-rule:evenodd;stroke:rgb(255, 0, 118);stroke-width:1;" d="M 760.104, 324.007 L 788.083, 284.283 L 855.786, 311.399 L 856.995, 311.744 L 848.877, 322.971 L 803.627, 356.304 L 781.52, 339.896 L 760.104, 324.007 z "/>
<path style="fill:rgb(255, 0, 0);fill-opacity:0;fill-rule:evenodd;stroke:rgb(255, 0, 118);stroke-width:1;" d="M 607.427, 276.166 L 652.332, 241.796 L 674.784, 259.758 L 674.439, 260.104 L 706.218, 283.765 L 675.302, 307.772 L 662.694, 317.444 L 607.427, 276.166 z "/>
<path style="fill:rgb(0, 255, 0);fill-opacity:0;fill-rule:evenodd;stroke:rgb(255, 0, 118);stroke-width:1;" d="M 937.824, 245.941 L 969.257, 202.073 L 1029.71, 226.943 L 998.791, 270.121 L 937.824, 245.941 z "/>
<path style="fill:rgb(0, 0, 255);fill-opacity:0;fill-rule:evenodd;stroke:rgb(255, 0, 118);stroke-width:1;" d="M 0, 774.957 L 62.1762, 728.325 L 99.4819, 756.995 L 85.1468, 767.703 L 68.3938, 780.311 L 63.7306, 776.684 L 32.8152, 800 L 0, 774.957 z "/>
<path style="fill:rgb(255, 255, 0);fill-opacity:0;fill-rule:evenodd;stroke:rgb(255, 0, 118);stroke-width:1;" d="M 490.328, 163.903 L 530.397, 104.663 L 559.931, 116.062 L 588.946, 127.461 L 570.294, 145.769 L 556.304, 140.242 L 517.617, 174.611 L 490.328, 163.903 z "/>
<path style="fill:rgb(255, 0, 0);fill-opacity:0;fill-rule:evenodd;stroke:rgb(255, 0, 118);stroke-width:1;" d="M 829.706, 376.339 L 873.402, 342.487 L 918.48, 376.166 L 874.957, 410.017 L 840.415, 384.283 L 829.706, 376.339 z "/>
<path style="fill:rgb(0, 255, 0);fill-opacity:0;fill-rule:evenodd;stroke:rgb(255, 0, 118);stroke-width:1;" d="M 932.297, 77.5475 L 985.32, 0 L 1005.18, 7.77202 L 1001.73, 13.1261 L 1013.3, 17.6166 L 994.646, 45.0777 L 972.712, 77.2021 L 966.839, 85.8377 L 954.231, 80.829 L 951.295, 85.1468 L 932.297, 77.5475 z "/>
<path style="fill:rgb(0, 0, 255);fill-opacity:0;fill-rule:evenodd;stroke:rgb(255, 0, 118);stroke-width:1;" d="M 323.316, 447.15 L 367.53, 413.299 L 407.081, 449.05 L 407.945, 449.741 L 367.185, 481.174 L 323.316, 447.15 z "/>
<path style="fill:rgb(255, 255, 0);fill-opacity:0;fill-rule:evenodd;stroke:rgb(255, 0, 118);stroke-width:1;" d="M 788.083, 284.283 L 810.708, 252.332 L 840.069, 264.767 L 852.85, 269.257 L 878.584, 280.138 L 855.786, 311.399 L 788.083, 284.283 z "/>
<path style="fill:rgb(255, 0, 0);fill-opacity:0;fill-rule:evenodd;stroke:rgb(255, 0, 118);stroke-width:1;" d="M 675.993, 258.377 L 697.582, 227.116 L 762.522, 253.195 L 740.76, 284.456 L 675.993, 258.377 z "/>
<path style="fill:rgb(0, 255, 0);fill-opacity:0;fill-rule:evenodd;stroke:rgb(255, 0, 118);stroke-width:1;" d="M 358.377, 368.394 L 387.219, 356.131 L 458.204, 409.845 L 437.133, 426.079 L 435.924, 426.943 L 385.32, 388.774 L 358.377, 368.394 z "/>
<path style="fill:rgb(0, 0, 255);fill-opacity:0;fill-rule:evenodd;stroke:rgb(255, 0, 118);stroke-width:1;" d="M 688.428, 553.886 L 732.988, 526.079 L 755.095, 512.263 L 765.803, 520.38 L 777.547, 529.361 L 781.002, 531.952 L 734.024, 561.14 L 714.335, 573.402 L 688.428, 553.886 z "/>
<path style="fill:rgb(255, 255, 0);fill-opacity:0;fill-rule:evenodd;stroke:rgb(255, 0, 118);stroke-width:1;" d="M 601.036, 651.123 L 638.515, 628.325 L 676.857, 662.522 L 642.142, 686.183 L 601.036, 651.123 z "/>
<path style="fill:rgb(255, 0, 0);fill-opacity:0;fill-rule:evenodd;stroke:rgb(255, 0, 118);stroke-width:1;" d="M 682.038, 483.247 L 704.836, 465.976 L 756.131, 504.663 L 761.313, 508.463 L 755.095, 512.263 L 732.988, 526.079 L 705.009, 505.009 L 707.945, 502.763 L 682.038, 483.247 z "/>
<path style="fill:rgb(0, 255, 0);fill-opacity:0;fill-rule:evenodd;stroke:rgb(255, 0, 118);stroke-width:1;" d="M 623.143, 229.879 L 640.933, 204.318 L 697.582, 227.116 L 675.993, 258.377 L 674.957, 259.931 L 674.784, 259.758 L 652.332, 241.796 L 623.143, 229.879 z "/>
<path style="fill:rgb(0, 0, 255);fill-opacity:0;fill-rule:evenodd;stroke:rgb(255, 0, 118);stroke-width:1;" d="M 367.53, 413.299 L 375.302, 407.254 L 368.221, 401.9 L 385.32, 388.774 L 435.924, 426.943 L 407.081, 449.05 L 367.53, 413.299 z "/>
<path style="fill:rgb(255, 255, 0);fill-opacity:0;fill-rule:evenodd;stroke:rgb(255, 0, 118);stroke-width:1;" d="M 813.817, 769.775 L 818.48, 763.385 L 815.889, 762.176 L 824.698, 750.086 L 823.661, 749.568 L 839.206, 728.152 L 840.242, 728.67 L 849.223, 716.408 L 851.813, 717.617 L 856.649, 711.054 L 868.394, 715.889 L 877.375, 719.689 L 872.539, 726.252 L 875.13, 727.461 L 867.876, 737.478 L 865.285, 736.269 L 859.585, 744.214 L 862.176, 745.25 L 854.75, 755.44 L 852.159, 754.404 L 846.287, 762.349 L 848.877, 763.385 L 841.796, 773.057 L 839.206, 772.021 L 834.542, 778.584 L 813.817, 769.775 z "/>
<path style="fill:rgb(255, 0, 0);fill-opacity:0;fill-rule:evenodd;stroke:rgb(255, 0, 118);stroke-width:1;" d="M 617.962, 600.518 L 661.658, 567.012 L 691.537, 589.465 L 680.484, 596.718 L 668.221, 605.009 L 659.758, 610.708 L 648.359, 618.135 L 644.732, 620.553 L 617.962, 600.518 z "/>
<path style="fill:rgb(0, 255, 0);fill-opacity:0;fill-rule:evenodd;stroke:rgb(255, 0, 118);stroke-width:1;" d="M 712.781, 206.39 L 727.634, 184.801 L 735.233, 187.91 L 792.055, 210.535 L 777.029, 232.124 L 712.781, 206.39 z "/>
<path style="fill:rgb(0, 0, 255);fill-opacity:0;fill-rule:evenodd;stroke:rgb(255, 0, 118);stroke-width:1;" d="M 387.219, 356.131 L 405.699, 348.359 L 408.808, 350.604 L 411.226, 348.705 L 475.13, 396.891 L 458.204, 409.845 L 387.219, 356.131 z "/>
<path style="fill:rgb(255, 255, 0);fill-opacity:0;fill-rule:evenodd;stroke:rgb(255, 0, 118);stroke-width:1;" d="M 638.687, 516.58 L 682.038, 483.247 L 707.945, 502.763 L 705.009, 505.009 L 664.594, 536.097 L 638.687, 516.58 z "/>
<path style="fill:rgb(255, 0, 0);fill-opacity:0;fill-rule:evenodd;stroke:rgb(255, 0, 118);stroke-width:1;" d="M 670.466, 161.831 L 684.629, 141.278 L 749.568, 167.358 L 735.233, 187.91 L 727.634, 184.801 L 670.466, 161.831 z "/>
<path style="fill:rgb(0, 255, 0);fill-opacity:0;fill-rule:evenodd;stroke:rgb(255, 0, 118);stroke-width:1;" d="M 664.594, 536.097 L 705.009, 505.009 L 732.988, 526.079 L 688.428, 553.886 L 664.594, 536.097 z "/>
<path style="fill:rgb(0, 0, 255);fill-opacity:0;fill-rule:evenodd;stroke:rgb(255, 0, 118);stroke-width:1;" d="M 655.44, 183.42 L 670.466, 161.831 L 727.634, 184.801 L 712.781, 206.39 L 667.703, 188.256 L 655.44, 183.42 z "/>
<path style="fill:rgb(255, 255, 0);fill-opacity:0;fill-rule:evenodd;stroke:rgb(255, 0, 118);stroke-width:1;" d="M 579.62, 383.938 L 594.646, 372.366 L 619.516, 353.022 L 645.25, 372.366 L 605.354, 403.282 L 579.62, 383.938 z "/>
<path style="fill:rgb(255, 0, 0);fill-opacity:0;fill-rule:evenodd;stroke:rgb(255, 0, 118);stroke-width:1;" d="M 920.207, 94.8187 L 932.297, 77.5475 L 951.295, 85.1468 L 1000.52, 105.009 L 988.428, 122.28 L 920.207, 94.8187 z "/>
<path style="fill:rgb(0, 255, 0);fill-opacity:0;fill-rule:evenodd;stroke:rgb(255, 0, 118);stroke-width:1;" d="M 595.337, 583.42 L 639.033, 549.914 L 661.658, 567.012 L 617.962, 600.518 L 595.337, 583.42 z "/>
<path style="fill:rgb(0, 0, 255);fill-opacity:0;fill-rule:evenodd;stroke:rgb(255, 0, 118);stroke-width:1;" d="M 735.233, 187.91 L 749.568, 167.358 L 806.39, 189.983 L 792.055, 210.535 L 735.233, 187.91 z "/>
<path style="fill:rgb(255, 255, 0);fill-opacity:0;fill-rule:evenodd;stroke:rgb(255, 0, 118);stroke-width:1;" d="M 715.371, 357.513 L 759.413, 323.316 L 760.104, 324.007 L 781.52, 339.896 L 737.478, 374.093 L 715.371, 357.513 z "/>
<path style="fill:rgb(255, 0, 0);fill-opacity:0;fill-rule:evenodd;stroke:rgb(255, 0, 118);stroke-width:1;" d="M 726.252, 699.827 L 768.394, 664.076 L 789.81, 673.057 L 764.94, 707.599 L 760.276, 713.99 L 726.252, 699.827 z "/>
<path style="fill:rgb(0, 255, 0);fill-opacity:0;fill-rule:evenodd;stroke:rgb(255, 0, 118);stroke-width:1;" d="M 737.478, 374.093 L 781.52, 339.896 L 803.627, 356.304 L 759.585, 390.501 L 737.478, 374.093 z "/>
<path style="fill:rgb(0, 0, 255);fill-opacity:0;fill-rule:evenodd;stroke:rgb(255, 0, 118);stroke-width:1;" d="M 573.402, 567.012 L 617.098, 533.506 L 639.033, 549.914 L 595.337, 583.42 L 573.402, 567.012 z "/>
<path style="fill:rgb(255, 255, 0);fill-opacity:0;fill-rule:evenodd;stroke:rgb(255, 0, 118);stroke-width:1;" d="M 874.957, 410.017 L 918.48, 376.166 L 940.415, 392.401 L 896.718, 426.252 L 887.392, 419.171 L 874.957, 410.017 z "/>
<path style="fill:rgb(255, 0, 0);fill-opacity:0;fill-rule:evenodd;stroke:rgb(255, 0, 118);stroke-width:1;" d="M 496.546, 626.252 L 517.962, 610.017 L 518.653, 610.535 L 561.831, 643.523 L 540.415, 659.758 L 496.546, 626.252 z "/>
<path style="fill:rgb(0, 255, 0);fill-opacity:0;fill-rule:evenodd;stroke:rgb(255, 0, 118);stroke-width:1;" d="M 623.316, 454.577 L 647.323, 436.097 L 643.523, 433.161 L 651.641, 426.943 L 681.693, 449.396 L 649.568, 474.266 L 623.316, 454.577 z "/>
<path style="fill:rgb(0, 0, 255);fill-opacity:0;fill-rule:evenodd;stroke:rgb(255, 0, 118);stroke-width:1;" d="M 896.718, 426.252 L 940.415, 392.401 L 952.85, 401.727 L 952.332, 402.073 L 955.268, 404.318 L 951.123, 407.599 L 951.123, 409.499 L 940.587, 417.617 L 942.66, 419.171 L 925.389, 432.47 L 932.47, 437.651 L 922.971, 444.041 L 921.762, 444.905 L 896.718, 426.252 z "/>
<path style="fill:rgb(255, 255, 0);fill-opacity:0;fill-rule:evenodd;stroke:rgb(255, 0, 118);stroke-width:1;" d="M 734.024, 561.14 L 781.002, 531.952 L 781.52, 532.47 L 784.456, 530.57 L 794.819, 540.242 L 790.674, 542.832 L 776.339, 551.813 L 777.029, 552.677 L 774.266, 554.404 L 779.102, 559.067 L 764.076, 568.394 L 766.321, 569.603 L 752.504, 578.238 L 734.024, 561.14 z "/>
<path style="fill:rgb(255, 0, 0);fill-opacity:0;fill-rule:evenodd;stroke:rgb(255, 0, 118);stroke-width:1;" d="M 326.77, 381.865 L 358.377, 368.394 L 385.32, 388.774 L 368.221, 401.9 L 360.794, 407.427 L 326.77, 381.865 z "/>
<path style="fill:rgb(0, 255, 0);fill-opacity:0;fill-rule:evenodd;stroke:rgb(255, 0, 118);stroke-width:1;" d="M 596.718, 265.976 L 623.143, 229.879 L 652.332, 241.796 L 607.427, 276.166 L 597.582, 268.739 L 596.718, 265.976 z "/>
<path style="fill:rgb(0, 0, 255);fill-opacity:0;fill-rule:evenodd;stroke:rgb(255, 0, 118);stroke-width:1;" d="M 21.2435, 516.926 L 41.9689, 507.081 L 44.5596, 510.19 L 71.848, 497.237 L 84.9741, 513.126 L 41.2781, 533.851 L 34.5423, 525.734 L 30.2245, 527.807 L 21.2435, 516.926 z "/>
<path style="fill:rgb(255, 255, 0);fill-opacity:0;fill-rule:evenodd;stroke:rgb(255, 0, 118);stroke-width:1;" d="M 651.468, 412.263 L 654.059, 410.19 L 661.14, 415.544 L 681.174, 400 L 700.518, 414.508 L 689.465, 423.143 L 702.073, 432.47 L 692.228, 440.069 L 679.62, 430.743 L 677.893, 431.952 L 651.468, 412.263 z "/>
<path style="fill:rgb(255, 0, 0);fill-opacity:0;fill-rule:evenodd;stroke:rgb(255, 0, 118);stroke-width:1;" d="M 594.991, 467.876 L 600.518, 463.558 L 602.591, 462.176 L 612.263, 469.43 L 626.425, 458.549 L 648.532, 475.13 L 626.943, 491.71 L 594.991, 467.876 z "/>
<path style="fill:rgb(0, 255, 0);fill-opacity:0;fill-rule:evenodd;stroke:rgb(255, 0, 118);stroke-width:1;" d="M 561.658, 576.166 L 573.402, 567.012 L 595.337, 583.42 L 617.962, 600.518 L 606.218, 609.499 L 561.658, 576.166 z "/>
<path style="fill:rgb(0, 0, 255);fill-opacity:0;fill-rule:evenodd;stroke:rgb(255, 0, 118);stroke-width:1;" d="M 561.313, 475.82 L 573.23, 466.667 L 616.926, 499.482 L 605.009, 508.636 L 561.313, 475.82 z "/>
<path style="fill:rgb(255, 255, 0);fill-opacity:0;fill-rule:evenodd;stroke:rgb(255, 0, 118);stroke-width:1;" d="M 588.601, 658.722 L 601.036, 651.123 L 642.142, 686.183 L 629.706, 694.646 L 609.326, 676.857 L 588.601, 658.722 z "/>
<path style="fill:rgb(255, 0, 0);fill-opacity:0;fill-rule:evenodd;stroke:rgb(255, 0, 118);stroke-width:1;" d="M 636.097, 626.252 L 644.732, 620.553 L 648.359, 618.135 L 688.946, 654.404 L 676.857, 662.522 L 638.515, 628.325 L 636.097, 626.252 z "/>
<path style="fill:rgb(0, 255, 0);fill-opacity:0;fill-rule:evenodd;stroke:rgb(255, 0, 118);stroke-width:1;" d="M 428.325, 467.876 L 444.732, 455.268 L 491.883, 490.674 L 486.528, 494.819 L 474.611, 486.01 L 469.257, 490.155 L 453.022, 478.066 L 455.959, 475.82 L 449.914, 471.33 L 441.451, 477.72 L 438.515, 475.475 L 428.325, 467.876 z "/>
<path style="fill:rgb(0, 0, 255);fill-opacity:0;fill-rule:evenodd;stroke:rgb(255, 0, 118);stroke-width:1;" d="M 573.23, 466.667 L 588.601, 454.75 L 600.518, 463.558 L 594.991, 467.876 L 626.943, 491.71 L 616.926, 499.482 L 573.23, 466.667 z "/>
<path style="fill:rgb(255, 255, 0);fill-opacity:0;fill-rule:evenodd;stroke:rgb(255, 0, 118);stroke-width:1;" d="M 792.228, 529.188 L 807.081, 520.207 L 819.689, 532.124 L 822.28, 530.57 L 828.325, 536.442 L 829.534, 535.579 L 837.997, 543.696 L 826.77, 559.413 L 792.228, 529.188 z "/>
<path style="fill:rgb(255, 0, 0);fill-opacity:0;fill-rule:evenodd;stroke:rgb(255, 0, 118);stroke-width:1;" d="M 811.399, 517.962 L 814.335, 516.062 L 811.744, 513.644 L 824.698, 505.699 L 825.734, 505.009 L 849.396, 522.971 L 849.914, 523.489 L 850.604, 524.525 L 850.777, 525.734 L 837.997, 543.696 L 829.534, 535.579 L 830.743, 534.888 L 811.399, 517.962 z "/>
<path style="fill:rgb(0, 255, 0);fill-opacity:0;fill-rule:evenodd;stroke:rgb(255, 0, 118);stroke-width:1;" d="M 659.758, 610.708 L 668.221, 605.009 L 691.71, 621.589 L 692.401, 621.071 L 713.99, 637.306 L 699.655, 646.978 L 659.758, 610.708 z "/>
<path style="fill:rgb(0, 0, 255);fill-opacity:0;fill-rule:evenodd;stroke:rgb(255, 0, 118);stroke-width:1;" d="M 585.492, 693.437 L 609.326, 676.857 L 629.706, 694.646 L 607.081, 710.017 L 585.492, 693.437 z "/>
<path style="fill:rgb(255, 255, 0);fill-opacity:0;fill-rule:evenodd;stroke:rgb(255, 0, 118);stroke-width:1;" d="M 786.183, 410.017 L 829.706, 376.339 L 840.415, 384.283 L 820.898, 399.309 L 810.363, 407.599 L 796.891, 417.962 L 786.183, 410.017 z "/>
<path style="fill:rgb(255, 0, 0);fill-opacity:0;fill-rule:evenodd;stroke:rgb(255, 0, 118);stroke-width:1;" d="M 648.359, 618.135 L 659.758, 610.708 L 699.655, 646.978 L 688.946, 654.404 L 648.359, 618.135 z "/>
<path style="fill:rgb(0, 255, 0);fill-opacity:0;fill-rule:evenodd;stroke:rgb(255, 0, 118);stroke-width:1;" d="M 765.803, 520.38 L 787.737, 503.8 L 805.009, 490.674 L 816.753, 499.655 L 794.473, 516.58 L 777.547, 529.361 L 765.803, 520.38 z "/>
<path style="fill:rgb(0, 0, 255);fill-opacity:0;fill-rule:evenodd;stroke:rgb(255, 0, 118);stroke-width:1;" d="M 680.484, 596.718 L 691.537, 589.465 L 735.751, 622.625 L 724.698, 630.052 L 702.591, 613.299 L 680.484, 596.718 z "/>
<path style="fill:rgb(255, 255, 0);fill-opacity:0;fill-rule:evenodd;stroke:rgb(255, 0, 118);stroke-width:1;" d="M 682.729, 736.097 L 693.264, 727.116 L 737.824, 745.596 L 730.397, 755.959 L 724.698, 753.541 L 723.661, 754.922 L 718.998, 752.85 L 719.862, 751.468 L 713.99, 749.05 L 712.953, 750.432 L 694.819, 743.005 L 695.855, 741.623 L 682.729, 736.097 z "/>
<path style="fill:rgb(255, 0, 0);fill-opacity:0;fill-rule:evenodd;stroke:rgb(255, 0, 118);stroke-width:1;" d="M 662.694, 317.444 L 675.302, 307.772 L 685.147, 315.026 L 697.582, 305.527 L 708.981, 314.162 L 684.111, 333.333 L 662.694, 317.444 z "/>
<path style="fill:rgb(0, 255, 0);fill-opacity:0;fill-rule:evenodd;stroke:rgb(255, 0, 118);stroke-width:1;" d="M 844.732, 452.159 L 887.392, 419.171 L 896.718, 426.252 L 858.204, 455.959 L 854.059, 459.24 L 844.732, 452.159 z "/>
<path style="fill:rgb(0, 0, 255);fill-opacity:0;fill-rule:evenodd;stroke:rgb(255, 0, 118);stroke-width:1;" d="M 693.264, 727.116 L 704.318, 717.789 L 745.596, 734.888 L 737.824, 745.596 L 693.264, 727.116 z "/>
<path style="fill:rgb(255, 255, 0);fill-opacity:0;fill-rule:evenodd;stroke:rgb(255, 0, 118);stroke-width:1;" d="M 642.66, 418.998 L 651.468, 412.263 L 677.893, 431.952 L 684.629, 436.96 L 675.82, 443.869 L 642.66, 418.998 z "/>
<path style="fill:rgb(255, 0, 0);fill-opacity:0;fill-rule:evenodd;stroke:rgb(255, 0, 118);stroke-width:1;" d="M 273.748, 685.147 L 284.283, 677.202 L 310.881, 697.582 L 300.345, 705.527 L 273.748, 685.147 z "/>
<path style="fill:rgb(0, 255, 0);fill-opacity:0;fill-rule:evenodd;stroke:rgb(255, 0, 118);stroke-width:1;" d="M 543.696, 328.67 L 565.63, 311.572 L 576.857, 320.035 L 555.095, 336.96 L 543.696, 328.67 z "/>
<path style="fill:rgb(0, 0, 255);fill-opacity:0;fill-rule:evenodd;stroke:rgb(255, 0, 118);stroke-width:1;" d="M 810.363, 407.599 L 820.898, 399.309 L 843.005, 415.717 L 832.297, 424.007 L 810.363, 407.599 z "/>
<path style="fill:rgb(255, 255, 0);fill-opacity:0;fill-rule:evenodd;stroke:rgb(255, 0, 118);stroke-width:1;" d="M 692.401, 621.071 L 702.591, 613.299 L 724.698, 630.052 L 713.99, 637.306 L 692.401, 621.071 z "/>
<path style="fill:rgb(255, 0, 0);fill-opacity:0;fill-rule:evenodd;stroke:rgb(255, 0, 118);stroke-width:1;" d="M 755.095, 512.263 L 761.313, 508.463 L 756.131, 504.663 L 787.737, 503.8 L 765.803, 520.38 L 755.095, 512.263 z "/>
<path style="fill:rgb(0, 255, 0);fill-opacity:0;fill-rule:evenodd;stroke:rgb(255, 0, 118);stroke-width:1;" d="M 794.473, 516.58 L 816.753, 499.655 L 824.698, 505.699 L 811.744, 513.644 L 800.173, 520.725 L 794.473, 516.58 z "/>
<path style="fill:rgb(0, 0, 255);fill-opacity:0;fill-rule:evenodd;stroke:rgb(255, 0, 118);stroke-width:1;" d="M 911.054, 451.986 L 921.762, 444.905 L 922.971, 444.041 L 934.715, 454.404 L 935.233, 454.922 L 924.87, 462.867 L 911.054, 451.986 z "/>
<path style="fill:rgb(255, 255, 0);fill-opacity:0;fill-rule:evenodd;stroke:rgb(255, 0, 118);stroke-width:1;" d="M 857.168, 186.701 L 862.694, 178.756 L 882.211, 186.528 L 877.029, 193.955 L 875.302, 193.955 L 857.168, 186.701 z "/>
<path style="fill:rgb(255, 0, 0);fill-opacity:0;fill-rule:evenodd;stroke:rgb(255, 0, 118);stroke-width:1;" d="M 415.889, 477.547 L 428.325, 467.876 L 438.515, 475.475 L 426.079, 485.32 L 415.889, 477.547 z "/>
<path style="fill:rgb(0, 255, 0);fill-opacity:0;fill-rule:evenodd;stroke:rgb(255, 0, 118);stroke-width:1;" d="M 776.339, 551.813 L 790.674, 542.832 L 798.964, 550.432 L 784.456, 559.413 L 777.029, 552.677 L 776.339, 551.813 z "/>
<path style="fill:rgb(0, 0, 255);fill-opacity:0;fill-rule:evenodd;stroke:rgb(255, 0, 118);stroke-width:1;" d="M 922.971, 444.041 L 932.47, 437.651 L 933.851, 436.788 L 935.406, 437.997 L 935.924, 437.651 L 942.487, 443.351 L 942.314, 443.523 L 934.715, 454.404 L 922.971, 444.041 z "/>
<path style="fill:rgb(255, 255, 0);fill-opacity:0;fill-rule:evenodd;stroke:rgb(255, 0, 118);stroke-width:1;" d="M 649.223, 192.401 L 655.44, 183.42 L 667.703, 188.256 L 661.485, 197.237 L 649.223, 192.401 z "/>
<path style="fill:rgb(255, 0, 0);fill-opacity:0;fill-rule:evenodd;stroke:rgb(255, 0, 118);stroke-width:1;" d="M 440.933, 336.442 L 452.85, 329.706 L 460.104, 337.133 L 448.359, 343.869 L 440.933, 336.442 z "/>
<path style="fill:rgb(0, 255, 0);fill-opacity:0;fill-rule:evenodd;stroke:rgb(255, 0, 118);stroke-width:1;" d="M 707.427, 108.636 L 749.741, 47.4957 L 871.503, 96.2003 L 829.016, 157.34 L 707.427, 108.636 z "/>
<path style="fill:rgb(0, 0, 255);fill-opacity:0;fill-rule:evenodd;stroke:rgb(255, 0, 118);stroke-width:1;" d="M 50.4318, 64.2487 L 59.2401, 53.0225 L 156.649, 97.0639 L 160.794, 104.836 L 140.587, 156.822 L 136.615, 159.758 L 86.0104, 136.96 L 98.6183, 121.071 L 59.4128, 103.282 L 79.62, 77.5475 L 50.4318, 64.2487 z "/>
<path style="fill:rgb(255, 255, 0);fill-opacity:0;fill-rule:evenodd;stroke:rgb(255, 0, 118);stroke-width:1;" d="M 361.313, 106.39 L 401.209, 17.4439 L 445.078, 29.0155 L 449.914, 30.3972 L 371.675, 110.535 L 361.313, 106.39 z "/>
<path style="fill:rgb(255, 0, 0);fill-opacity:0;fill-rule:evenodd;stroke:rgb(255, 0, 118);stroke-width:1;" d="M 597.755, 59.9309 L 601.382, 54.5769 L 605.181, 49.0501 L 610.363, 51.1226 L 610.535, 50.6045 L 641.969, 63.0397 L 635.579, 72.3661 L 636.788, 72.8843 L 631.606, 80.6563 L 617.789, 75.1295 L 621.416, 70.1209 L 602.245, 62.5216 L 602.763, 61.8307 L 597.755, 59.9309 z "/>
</svg>