<?xml version="1.0" encoding="iso-8859-1" standalone="no"?>
<!DOCTYPE svg PUBLIC "-//W3C//DTD SVG 1.0//EN" "http://www.w3.org/TR/2001/REC-SVG-20010904/DTD/svg10.dtd">
<svg xmlns="http://www.w3.org/2000/svg" width="1184" height="800">
<path style="fill:rgb(255, 0, 0);fill-opacity:0;fill-rule:evenodd;stroke:rgb(0, 139, 255);stroke-width:1;" d="M 362.099, 481.128 L 397.599, 480.501 L 396.972, 455.86 L 371.287, 456.278 L 370.869, 437.484 L 396.346, 437.066 L 395.719, 413.26 L 397.39, 413.26 L 397.181, 407.413 L 418.481, 406.996 L 418.69, 412.843 L 420.569, 412.843 L 420.987, 436.857 L 446.881, 436.44 L 447.298, 455.025 L 421.196, 455.234 L 421.822, 480.084 L 458.366, 479.666 L 458.784, 499.504 L 445.21, 499.713 L 445.21, 505.978 L 444.792, 507.439 L 444.375, 508.275 L 443.122, 509.528 L 441.242, 510.363 L 440.198, 510.572 L 438.11, 510.78 L 437.066, 510.572 L 435.187, 510.154 L 434.351, 509.528 L 433.516, 509.11 L 432.472, 507.648 L 431.845, 506.186 L 431.845, 505.351 L 389.454, 505.978 L 389.663, 506.813 L 389.246, 508.275 L 388.828, 509.11 L 387.575, 510.363 L 385.904, 511.198 L 383.816, 511.825 L 381.728, 511.825 L 380.684, 511.616 L 379.849, 511.407 L 377.969, 510.572 L 376.716, 509.319 L 376.299, 508.483 L 375.881, 507.022 L 375.672, 500.757 L 362.516, 500.966 L 362.099, 481.128 z "/>
<path style="fill:rgb(0, 255, 0);fill-opacity:0;fill-rule:evenodd;stroke:rgb(0, 139, 255);stroke-width:1;" d="M 216.967, 780.162 L 232.629, 758.653 L 226.99, 756.147 L 249.126, 726.077 L 250.587, 726.703 L 265.831, 732.968 L 282.746, 740.277 L 296.946, 746.333 L 261.655, 794.571 L 249.126, 789.35 L 244.531, 795.824 L 228.452, 788.932 L 230.749, 786.009 L 216.967, 780.162 z "/>
<path style="fill:rgb(0, 0, 255);fill-opacity:0;fill-rule:evenodd;stroke:rgb(0, 139, 255);stroke-width:1;" d="M 314.487, 260.82 L 315.949, 242.026 L 341.425, 243.279 L 343.305, 218.846 L 345.602, 218.846 L 346.019, 213.208 L 366.693, 214.043 L 366.275, 219.89 L 368.155, 220.099 L 366.275, 244.74 L 391.125, 245.784 L 389.663, 264.578 L 364.187, 263.534 L 362.307, 287.131 L 360.01, 287.131 L 359.593, 292.978 L 339.128, 292.143 L 339.546, 286.505 L 337.458, 286.296 L 339.337, 261.864 L 314.487, 260.82 z "/>
<path style="fill:rgb(255, 255, 0);fill-opacity:0;fill-rule:evenodd;stroke:rgb(0, 139, 255);stroke-width:1;" d="M 171.443, 225.529 L 173.114, 206.943 L 198.799, 208.196 L 200.887, 183.973 L 202.976, 183.973 L 203.393, 178.543 L 224.276, 179.588 L 223.858, 185.226 L 225.529, 185.226 L 223.44, 209.658 L 248.499, 210.911 L 246.829, 229.079 L 221.352, 227.826 L 219.055, 252.884 L 216.967, 252.676 L 216.549, 258.105 L 196.293, 257.27 L 196.711, 251.84 L 194.623, 251.631 L 196.711, 226.782 L 171.443, 225.529 z "/>
<path style="fill:rgb(255, 0, 0);fill-opacity:0;fill-rule:evenodd;stroke:rgb(0, 139, 255);stroke-width:1;" d="M 226.573, 379.431 L 252.467, 379.013 L 251.631, 355.208 L 253.72, 355.208 L 253.511, 349.569 L 274.393, 349.152 L 274.393, 353.119 L 274.602, 354.79 L 275.646, 354.79 L 276.481, 379.431 L 302.167, 378.804 L 302.793, 397.39 L 277.317, 397.807 L 278.152, 422.24 L 275.855, 422.24 L 276.064, 427.878 L 255.39, 428.295 L 255.181, 422.866 L 253.093, 422.866 L 252.258, 397.599 L 226.99, 398.016 L 226.573, 379.431 z "/>
<path style="fill:rgb(0, 255, 0);fill-opacity:0;fill-rule:evenodd;stroke:rgb(0, 139, 255);stroke-width:1;" d="M 274.184, 580.527 L 299.452, 580.318 L 299.243, 556.304 L 300.496, 556.304 L 300.496, 550.666 L 321.378, 550.666 L 321.378, 555.469 L 323.466, 555.469 L 323.675, 579.901 L 349.36, 579.692 L 349.569, 598.277 L 324.511, 598.486 L 324.719, 623.545 L 323.258, 623.545 L 323.258, 628.765 L 302.167, 628.974 L 301.958, 624.171 L 299.869, 624.171 L 299.452, 599.113 L 274.393, 599.113 L 274.184, 580.527 z "/>
<path style="fill:rgb(0, 0, 255);fill-opacity:0;fill-rule:evenodd;stroke:rgb(0, 139, 255);stroke-width:1;" d="M 435.813, 665.1 L 436.857, 646.933 L 462.334, 647.768 L 463.795, 623.545 L 465.466, 623.545 L 465.675, 618.115 L 486.557, 618.951 L 486.348, 624.38 L 488.228, 624.38 L 486.766, 648.603 L 512.66, 649.439 L 511.616, 667.606 L 485.722, 666.771 L 484.469, 691.83 L 482.589, 691.83 L 482.172, 697.259 L 461.289, 696.424 L 461.707, 691.203 L 459.828, 690.995 L 461.289, 666.145 L 435.813, 665.1 z "/>
<path style="fill:rgb(255, 255, 0);fill-opacity:0;fill-rule:evenodd;stroke:rgb(0, 139, 255);stroke-width:1;" d="M 532.08, 568.207 L 533.542, 533.542 L 537.719, 533.751 L 538.972, 505.978 L 563.821, 506.604 L 562.777, 531.872 L 562.569, 534.169 L 566.536, 534.169 L 564.866, 569.877 L 560.271, 569.668 L 559.019, 596.607 L 534.377, 595.98 L 535.839, 568.416 L 532.08, 568.207 z "/>
<path style="fill:rgb(255, 0, 0);fill-opacity:0;fill-rule:evenodd;stroke:rgb(0, 139, 255);stroke-width:1;" d="M 162.046, 707.074 L 171.652, 694.127 L 180.005, 697.677 L 192.743, 680.136 L 184.39, 676.586 L 191.073, 667.398 L 193.996, 663.43 L 250.587, 687.445 L 242.234, 698.512 L 236.805, 696.215 L 234.926, 697.468 L 235.761, 699.139 L 227.826, 709.997 L 228.243, 710.833 L 214.67, 729.209 L 162.046, 707.074 z M 195.04, 703.942 L 203.602, 707.7 L 205.273, 705.403 L 210.911, 707.7 L 214.879, 707.492 L 222.396, 697.259 L 220.517, 694.753 L 214.879, 692.456 L 216.758, 690.159 L 207.987, 686.4 L 195.04, 703.942 z "/>
<path style="fill:rgb(0, 255, 0);fill-opacity:0;fill-rule:evenodd;stroke:rgb(0, 139, 255);stroke-width:1;" d="M 571.339, 735.891 L 573.01, 701.436 L 577.604, 701.644 L 579.066, 674.08 L 603.498, 674.706 L 602.036, 702.062 L 606.004, 702.062 L 604.124, 737.771 L 599.739, 737.562 L 598.486, 764.5 L 573.845, 763.874 L 575.307, 736.1 L 571.339, 735.891 z "/>
<path style="fill:rgb(0, 0, 255);fill-opacity:0;fill-rule:evenodd;stroke:rgb(0, 139, 255);stroke-width:1;" d="M 663.43, 772.018 L 665.518, 736.518 L 669.486, 736.727 L 671.156, 709.371 L 695.589, 710.206 L 693.918, 737.98 L 698.303, 738.188 L 696.424, 772.435 L 692.247, 772.227 L 690.577, 800 L 666.145, 799.165 L 667.606, 772.227 L 663.43, 772.018 z "/>
<path style="fill:rgb(255, 255, 0);fill-opacity:0;fill-rule:evenodd;stroke:rgb(0, 139, 255);stroke-width:1;" d="M 454.607, 325.137 L 458.784, 290.89 L 462.96, 291.308 L 466.51, 263.534 L 490.942, 265.205 L 489.481, 277.108 L 487.601, 292.352 L 491.569, 292.561 L 487.184, 327.852 L 483.007, 327.643 L 479.666, 354.581 L 455.651, 352.91 L 458.992, 325.346 L 454.607, 325.137 z "/>
<path style="fill:rgb(255, 0, 0);fill-opacity:0;fill-rule:evenodd;stroke:rgb(0, 139, 255);stroke-width:1;" d="M 627.721, 605.377 L 629.809, 570.295 L 633.986, 570.295 L 635.656, 542.939 L 660.089, 543.983 L 658.209, 571.757 L 662.386, 571.966 L 660.089, 606.212 L 656.121, 606.004 L 654.451, 633.986 L 630.018, 632.942 L 631.898, 605.586 L 627.721, 605.377 z "/>
<path style="fill:rgb(0, 255, 0);fill-opacity:0;fill-rule:evenodd;stroke:rgb(0, 139, 255);stroke-width:1;" d="M 530.619, 391.543 L 534.795, 355.625 L 539.18, 356.043 L 542.522, 329.105 L 566.536, 330.775 L 563.195, 358.758 L 567.371, 358.966 L 563.195, 392.796 L 558.81, 392.587 L 555.469, 420.36 L 531.245, 418.69 L 534.586, 391.752 L 530.619, 391.543 z "/>
<path style="fill:rgb(0, 0, 255);fill-opacity:0;fill-rule:evenodd;stroke:rgb(0, 139, 255);stroke-width:1;" d="M 1113.86, 779.327 L 1177.34, 763.665 L 1179.85, 769.512 L 1181.52, 773.062 L 1182.35, 775.777 L 1184.44, 780.162 L 1120.96, 795.615 L 1113.86, 779.327 z "/>
<path style="fill:rgb(255, 255, 0);fill-opacity:0;fill-rule:evenodd;stroke:rgb(0, 139, 255);stroke-width:1;" d="M 149.099, 773.48 L 167.267, 748.63 L 173.114, 740.694 L 197.129, 750.927 L 173.114, 783.712 L 149.099, 773.48 z "/>
<path style="fill:rgb(255, 0, 0);fill-opacity:0;fill-rule:evenodd;stroke:rgb(0, 139, 255);stroke-width:1;" d="M 250.587, 726.703 L 264.996, 706.656 L 273.558, 710.415 L 280.24, 713.13 L 277.317, 717.306 L 278.778, 721.274 L 282.328, 716.471 L 288.802, 719.186 L 285.252, 723.989 L 289.428, 725.659 L 294.231, 724.615 L 297.364, 720.439 L 310.728, 726.077 L 312.399, 726.912 L 297.99, 746.75 L 296.946, 746.333 L 282.746, 740.277 L 287.34, 734.012 L 270.217, 726.912 L 265.831, 732.968 L 250.587, 726.703 z "/>
<path style="fill:rgb(0, 255, 0);fill-opacity:0;fill-rule:evenodd;stroke:rgb(0, 139, 255);stroke-width:1;" d="M 121.326, 758.027 L 137.405, 736.1 L 167.267, 748.63 L 149.099, 773.48 L 147.638, 775.359 L 134.064, 769.721 L 134.691, 768.885 L 125.711, 765.127 L 128.635, 761.159 L 121.326, 758.027 z "/>
<path style="fill:rgb(0, 0, 255);fill-opacity:0;fill-rule:evenodd;stroke:rgb(0, 139, 255);stroke-width:1;" d="M 131.35, 679.509 L 137.823, 670.739 L 153.276, 649.648 L 169.982, 656.539 L 168.729, 658.001 L 147.847, 686.609 L 131.35, 679.509 z "/>
<path style="fill:rgb(255, 255, 0);fill-opacity:0;fill-rule:evenodd;stroke:rgb(0, 139, 255);stroke-width:1;" d="M 743.827, 50.7439 L 752.388, 39.4675 L 779.327, 51.1616 L 766.171, 68.7027 L 747.794, 60.5586 L 743.827, 50.7439 z "/>
<path style="fill:rgb(255, 0, 0);fill-opacity:0;fill-rule:evenodd;stroke:rgb(0, 139, 255);stroke-width:1;" d="M 273.558, 710.415 L 281.075, 700.183 L 318.246, 716.053 L 310.728, 726.077 L 297.364, 720.439 L 280.24, 713.13 L 273.558, 710.415 z "/>
<path style="fill:rgb(0, 255, 0);fill-opacity:0;fill-rule:evenodd;stroke:rgb(0, 139, 255);stroke-width:1;" d="M 146.594, 688.28 L 147.847, 686.609 L 168.729, 658.001 L 179.796, 662.803 L 161.838, 687.445 L 157.661, 693.083 L 146.594, 688.28 z "/>
<path style="fill:rgb(0, 0, 255);fill-opacity:0;fill-rule:evenodd;stroke:rgb(0, 139, 255);stroke-width:1;" d="M 123.414, 664.683 L 138.867, 643.383 L 153.276, 649.648 L 137.823, 670.739 L 123.414, 664.683 z "/>
<path style="fill:rgb(255, 255, 0);fill-opacity:0;fill-rule:evenodd;stroke:rgb(0, 139, 255);stroke-width:1;" d="M 161.838, 687.445 L 179.796, 662.803 L 191.073, 667.398 L 184.39, 676.586 L 173.114, 692.039 L 161.838, 687.445 z "/>
<path style="fill:rgb(255, 0, 0);fill-opacity:0;fill-rule:evenodd;stroke:rgb(0, 139, 255);stroke-width:1;" d="M 124.458, 419.107 L 124.667, 402.819 L 142.208, 402.819 L 141.999, 419.107 L 124.458, 419.107 z "/>
<path style="fill:rgb(0, 255, 0);fill-opacity:0;fill-rule:evenodd;stroke:rgb(0, 139, 255);stroke-width:1;" d="M 241.608, 699.556 L 242.234, 698.512 L 250.587, 687.445 L 264.161, 693.083 L 254.973, 705.194 L 241.608, 699.556 z "/>
<path style="fill:rgb(0, 0, 255);fill-opacity:0;fill-rule:evenodd;stroke:rgb(0, 139, 255);stroke-width:1;" d="M 0, 526.86 L 22.1352, 496.163 L 69.9556, 516.419 L 70.3733, 515.792 L 80.1879, 519.969 L 79.1438, 521.013 L 117.567, 537.092 L 115.061, 540.433 L 122.997, 543.566 L 129.261, 534.795 L 122.579, 532.08 L 134.482, 515.583 L 141.164, 518.507 L 149.726, 506.813 L 165.388, 513.286 L 168.52, 509.11 L 178.126, 513.078 L 174.785, 517.672 L 190.446, 524.354 L 181.676, 536.466 L 188.567, 539.389 L 181.676, 548.577 L 174.367, 545.445 L 163.299, 560.689 L 170.817, 563.821 L 172.905, 560.898 L 192.743, 569.251 L 166.849, 604.96 L 146.802, 596.607 L 149.099, 593.683 L 93.3438, 570.295 L 91.2555, 573.427 L 71.6262, 565.074 L 76.2203, 558.601 L 58.2616, 551.083 L 57.4263, 552.127 L 46.9851, 547.742 L 47.6116, 546.907 L 0, 526.86 z "/>
<path style="fill:rgb(255, 255, 0);fill-opacity:0;fill-rule:evenodd;stroke:rgb(0, 139, 255);stroke-width:1;" d="M 78.935, 341.634 L 105.038, 341.008 L 104.203, 316.575 L 106.917, 316.575 L 106.708, 310.937 L 126.547, 310.519 L 126.755, 316.158 L 128.635, 316.158 L 129.261, 341.216 L 154.32, 340.59 L 154.946, 359.175 L 147.638, 359.175 L 147.847, 365.022 L 141.373, 365.231 L 142.417, 397.39 L 115.27, 398.016 L 115.479, 401.984 L 104.829, 402.193 L 104.62, 398.225 L 93.7614, 398.434 L 92.2997, 359.384 L 79.5615, 359.593 L 78.935, 341.634 z "/>
<path style="fill:rgb(255, 0, 0);fill-opacity:0;fill-rule:evenodd;stroke:rgb(0, 139, 255);stroke-width:1;" d="M 103.785, 29.8617 L 129.261, 29.6528 L 128.844, 5.63821 L 130.305, 5.63821 L 130.097, 0 L 150.979, 0 L 150.979, 4.80292 L 153.067, 4.80292 L 153.485, 29.2352 L 178.961, 29.0264 L 179.17, 47.6116 L 154.111, 47.8204 L 154.529, 72.8791 L 152.858, 72.8791 L 152.858, 78.0997 L 131.767, 78.3085 L 131.767, 73.5056 L 129.47, 73.5056 L 129.261, 48.4469 L 103.994, 48.6557 L 103.785, 29.8617 z "/>
<path style="fill:rgb(0, 255, 0);fill-opacity:0;fill-rule:evenodd;stroke:rgb(0, 139, 255);stroke-width:1;" d="M 110.05, 659.045 L 111.303, 657.374 L 125.711, 637.745 L 138.867, 643.383 L 123.414, 664.683 L 110.05, 659.045 z "/>
</svg>