<?xml version="1.0" encoding="iso-8859-1" standalone="no"?>
<!DOCTYPE svg PUBLIC "-//W3C//DTD SVG 1.0//EN" "http://www.w3.org/TR/2001/REC-SVG-20010904/DTD/svg10.dtd">
<svg xmlns="http://www.w3.org/2000/svg" width="1062" height="800">
<path style="fill:rgb(255, 0, 0);fill-opacity:0;fill-rule:evenodd;stroke:rgb(255, 41, 0);stroke-width:1;" d="M 757.146, 531.852 L 770.127, 513.892 L 774.75, 515.848 L 781.863, 506.246 L 778.128, 504.645 L 799.644, 475.306 L 802.667, 476.55 L 833.963, 489.887 L 902.601, 518.871 L 892.643, 532.563 L 861.169, 575.595 L 835.919, 565.103 L 836.808, 564.036 L 783.641, 541.631 L 782.93, 542.698 L 757.146, 531.852 z "/>
<path style="fill:rgb(0, 255, 0);fill-opacity:0;fill-rule:evenodd;stroke:rgb(255, 41, 0);stroke-width:1;" d="M 299.622, 339.453 L 301.045, 337.497 L 329.851, 297.844 L 328.784, 297.311 L 336.253, 286.997 L 359.369, 255.168 L 360.969, 252.856 L 416.626, 276.15 L 354.39, 361.858 L 310.113, 343.187 L 309.758, 343.721 L 299.622, 339.453 z "/>
<path style="fill:rgb(0, 0, 255);fill-opacity:0;fill-rule:evenodd;stroke:rgb(255, 41, 0);stroke-width:1;" d="M 926.428, 691.354 L 934.252, 680.151 L 930.34, 678.551 L 942.432, 661.48 L 946.344, 663.259 L 954.168, 652.056 L 957.19, 653.301 L 958.08, 652.056 L 961.102, 651.345 L 967.326, 653.834 L 968.571, 658.102 L 969.282, 658.28 L 1011.78, 675.706 L 1013.38, 673.394 L 1037.39, 683.174 L 1035.61, 685.663 L 1049.48, 691.354 L 1048.41, 692.776 L 1062.28, 698.289 L 1055.17, 708.246 L 1060.32, 710.558 L 1055.88, 716.782 L 1052.14, 721.938 L 1056.59, 723.894 L 1042.72, 743.454 L 1031.34, 738.831 L 1034.54, 734.208 L 1008.58, 723.539 L 1006.62, 726.206 L 982.796, 716.426 L 984.752, 713.759 L 942.254, 696.333 L 941.543, 697.399 L 926.428, 691.354 z "/>
<path style="fill:rgb(255, 255, 0);fill-opacity:0;fill-rule:evenodd;stroke:rgb(255, 41, 0);stroke-width:1;" d="M 400.089, 381.774 L 431.918, 338.208 L 498.778, 366.481 L 494.866, 371.638 L 509.091, 377.684 L 511.403, 374.661 L 534.163, 384.263 L 532.385, 386.397 L 527.05, 393.865 L 522.427, 400.089 L 517.093, 407.557 L 515.137, 410.224 L 503.756, 425.695 L 400.089, 381.774 z "/>
<path style="fill:rgb(255, 0, 0);fill-opacity:0;fill-rule:evenodd;stroke:rgb(255, 41, 0);stroke-width:1;" d="M 201.823, 150.611 L 233.296, 107.757 L 258.369, 118.426 L 260.502, 119.138 L 256.946, 124.116 L 330.029, 155.057 L 314.025, 176.75 L 319.715, 179.24 L 307.802, 195.421 L 201.823, 150.611 z "/>
<path style="fill:rgb(0, 255, 0);fill-opacity:0;fill-rule:evenodd;stroke:rgb(255, 41, 0);stroke-width:1;" d="M 482.418, 268.86 L 545.899, 182.085 L 546.433, 182.263 L 564.926, 190.087 L 565.103, 189.731 L 581.996, 196.844 L 582.885, 200.044 L 594.443, 205.023 L 580.218, 224.405 L 586.086, 226.895 L 570.082, 248.766 L 552.656, 241.298 L 541.987, 255.879 L 533.808, 252.501 L 525.094, 264.414 L 526.873, 265.303 L 514.425, 282.374 L 482.418, 268.86 z "/>
<path style="fill:rgb(0, 0, 255);fill-opacity:0;fill-rule:evenodd;stroke:rgb(255, 41, 0);stroke-width:1;" d="M 68.4597, 332.696 L 100.111, 289.309 L 184.219, 324.872 L 182.796, 326.65 L 154.701, 365.059 L 152.389, 368.26 L 92.6428, 342.832 L 68.4597, 332.696 z "/>
<path style="fill:rgb(255, 255, 0);fill-opacity:0;fill-rule:evenodd;stroke:rgb(255, 41, 0);stroke-width:1;" d="M 318.649, 495.221 L 327.539, 482.774 L 330.918, 484.196 L 341.765, 469.26 L 339.275, 468.371 L 338.742, 467.304 L 341.765, 463.214 L 343.01, 462.858 L 345.499, 463.925 L 350.3, 457.168 L 346.922, 455.746 L 360.08, 437.431 L 416.092, 460.547 L 415.026, 462.147 L 405.601, 475.128 L 416.092, 479.573 L 418.582, 480.64 L 409.513, 493.443 L 391.02, 519.226 L 384.619, 516.559 L 383.552, 518.16 L 368.615, 512.114 L 368.082, 513.003 L 362.036, 510.513 L 361.503, 511.403 L 358.835, 511.936 L 355.101, 510.513 L 353.856, 508.38 L 354.745, 507.135 L 341.943, 501.978 L 339.275, 503.223 L 334.119, 501.089 L 333.763, 501.623 L 318.649, 495.221 z M 389.242, 486.508 L 397.777, 489.887 L 403.112, 481.885 L 394.577, 478.506 L 391.909, 482.596 L 389.242, 486.508 z "/>
<path style="fill:rgb(255, 0, 0);fill-opacity:0;fill-rule:evenodd;stroke:rgb(255, 41, 0);stroke-width:1;" d="M 865.97, 283.441 L 889.976, 250.545 L 891.932, 251.256 L 927.673, 266.37 L 929.629, 263.525 L 934.074, 265.303 L 939.764, 257.479 L 947.233, 260.68 L 977.284, 273.127 L 973.905, 277.751 L 982.618, 281.485 L 969.816, 299.089 L 975.506, 301.578 L 959.858, 322.916 L 865.97, 283.441 z "/>
<path style="fill:rgb(0, 255, 0);fill-opacity:0;fill-rule:evenodd;stroke:rgb(255, 41, 0);stroke-width:1;" d="M 903.667, 235.074 L 931.407, 197.022 L 1013.38, 231.518 L 997.911, 252.856 L 989.375, 249.3 L 977.106, 266.015 L 951.323, 255.168 L 947.233, 260.68 L 939.764, 257.479 L 934.074, 265.303 L 929.629, 263.525 L 935.497, 255.523 L 925.006, 251.256 L 929.095, 245.743 L 903.667, 235.074 z "/>
<path style="fill:rgb(0, 0, 255);fill-opacity:0;fill-rule:evenodd;stroke:rgb(255, 41, 0);stroke-width:1;" d="M 596.933, 111.669 L 628.051, 69.3487 L 705.046, 101.889 L 692.776, 118.782 L 691.531, 118.248 L 685.486, 126.428 L 676.061, 122.338 L 663.259, 139.764 L 638.72, 129.451 L 596.933, 111.669 z "/>
<path style="fill:rgb(255, 255, 0);fill-opacity:0;fill-rule:evenodd;stroke:rgb(255, 41, 0);stroke-width:1;" d="M 431.918, 338.208 L 463.57, 294.999 L 531.674, 323.983 L 513.181, 349.233 L 519.76, 352.078 L 519.049, 352.967 L 506.601, 369.86 L 498.778, 366.481 L 431.918, 338.208 z "/>
<path style="fill:rgb(255, 0, 0);fill-opacity:0;fill-rule:evenodd;stroke:rgb(255, 41, 0);stroke-width:1;" d="M 706.824, 216.581 L 722.294, 195.421 L 727.806, 197.911 L 744.521, 174.972 L 769.415, 185.641 L 752.523, 208.58 L 765.503, 214.092 L 771.549, 205.735 L 784.352, 211.247 L 795.199, 196.488 L 821.338, 207.513 L 789.153, 251.434 L 706.824, 216.581 z "/>
<path style="fill:rgb(0, 255, 0);fill-opacity:0;fill-rule:evenodd;stroke:rgb(255, 41, 0);stroke-width:1;" d="M 79.84, 632.318 L 86.2414, 623.605 L 80.1956, 621.116 L 105.801, 586.441 L 171.416, 614.537 L 139.409, 657.746 L 137.097, 656.679 L 106.335, 643.699 L 79.84, 632.318 z "/>
<path style="fill:rgb(0, 0, 255);fill-opacity:0;fill-rule:evenodd;stroke:rgb(255, 41, 0);stroke-width:1;" d="M 575.239, 388.175 L 582.174, 378.573 L 591.065, 382.307 L 599.6, 370.927 L 599.244, 368.082 L 592.132, 365.059 L 600.845, 353.145 L 687.619, 389.953 L 659.347, 428.54 L 631.429, 416.626 L 634.096, 413.07 L 628.94, 410.936 L 642.632, 392.265 L 625.561, 384.974 L 622.183, 389.776 L 628.051, 392.265 L 617.915, 406.135 L 575.239, 388.175 z "/>
<path style="fill:rgb(255, 255, 0);fill-opacity:0;fill-rule:evenodd;stroke:rgb(255, 41, 0);stroke-width:1;" d="M 148.833, 504.645 L 164.837, 482.418 L 160.036, 480.285 L 168.393, 468.904 L 170.171, 466.415 L 253.745, 501.623 L 225.117, 540.92 L 197.377, 529.184 L 199.689, 525.806 L 195.955, 524.205 L 208.58, 507.135 L 192.932, 500.556 L 189.02, 505.712 L 193.999, 507.846 L 185.108, 519.938 L 148.833, 504.645 z "/>
<path style="fill:rgb(255, 0, 0);fill-opacity:0;fill-rule:evenodd;stroke:rgb(255, 41, 0);stroke-width:1;" d="M 805.335, 371.283 L 849.433, 310.647 L 904.023, 333.585 L 902.601, 335.719 L 898.155, 341.587 L 895.31, 340.342 L 892.465, 344.254 L 895.31, 345.499 L 888.731, 354.568 L 874.683, 348.7 L 873.794, 346.032 L 857.435, 339.275 L 851.211, 347.811 L 850.144, 347.277 L 846.41, 352.434 L 880.018, 366.659 L 873.794, 375.372 L 868.282, 373.061 L 857.435, 387.997 L 832.896, 377.684 L 830.051, 381.596 L 805.335, 371.283 z "/>
<path style="fill:rgb(0, 255, 0);fill-opacity:0;fill-rule:evenodd;stroke:rgb(255, 41, 0);stroke-width:1;" d="M 370.038, 221.738 L 394.932, 187.953 L 397.955, 183.685 L 415.026, 190.798 L 412.358, 194.176 L 432.629, 202.712 L 438.853, 194.354 L 468.371, 206.802 L 436.719, 250.011 L 370.038, 221.738 z "/>
<path style="fill:rgb(0, 0, 255);fill-opacity:0;fill-rule:evenodd;stroke:rgb(255, 41, 0);stroke-width:1;" d="M 272.95, 560.124 L 299.267, 523.85 L 366.837, 552.301 L 346.21, 580.573 L 343.01, 584.841 L 329.14, 578.973 L 322.738, 587.864 L 312.781, 583.596 L 298.911, 577.906 L 276.862, 568.482 L 280.596, 563.325 L 272.95, 560.124 z "/>
<path style="fill:rgb(255, 255, 0);fill-opacity:0;fill-rule:evenodd;stroke:rgb(255, 41, 0);stroke-width:1;" d="M 740.076, 763.37 L 752.878, 745.588 L 779.373, 756.79 L 777.773, 758.924 L 791.109, 764.437 L 798.044, 754.834 L 754.657, 736.697 L 767.815, 718.382 L 828.451, 743.632 L 828.273, 743.81 L 787.553, 800 L 767.282, 791.643 L 772.083, 785.063 L 766.748, 782.752 L 764.792, 785.597 L 752.523, 780.44 L 759.28, 771.194 L 740.076, 763.37 z "/>
<path style="fill:rgb(255, 0, 0);fill-opacity:0;fill-rule:evenodd;stroke:rgb(255, 41, 0);stroke-width:1;" d="M 833.963, 489.887 L 855.479, 460.369 L 938.164, 495.221 L 933.719, 501.445 L 914.87, 527.228 L 909.891, 525.094 L 901.534, 536.297 L 896.91, 534.341 L 892.643, 532.563 L 902.601, 518.871 L 833.963, 489.887 z "/>
<path style="fill:rgb(0, 255, 0);fill-opacity:0;fill-rule:evenodd;stroke:rgb(255, 41, 0);stroke-width:1;" d="M 622.894, 271.527 L 641.209, 246.455 L 647.966, 237.208 L 654.19, 228.495 L 713.047, 253.39 L 681.752, 296.244 L 636.586, 277.217 L 625.917, 272.772 L 622.894, 271.527 z "/>
<path style="fill:rgb(0, 0, 255);fill-opacity:0;fill-rule:evenodd;stroke:rgb(255, 41, 0);stroke-width:1;" d="M 418.582, 628.051 L 435.475, 604.934 L 430.14, 602.801 L 444.899, 582.352 L 522.783, 615.248 L 496.999, 650.633 L 478.329, 642.632 L 472.105, 640.142 L 477.439, 632.674 L 472.461, 630.54 L 480.285, 619.871 L 481.174, 616.493 L 474.239, 613.647 L 470.86, 618.271 L 460.725, 614.003 L 442.943, 638.186 L 434.23, 634.63 L 426.406, 631.251 L 418.582, 628.051 z "/>
<path style="fill:rgb(255, 255, 0);fill-opacity:0;fill-rule:evenodd;stroke:rgb(255, 41, 0);stroke-width:1;" d="M 513.892, 515.137 L 526.695, 497.177 L 521.716, 495.043 L 536.83, 473.883 L 605.646, 502.334 L 593.021, 519.938 L 563.325, 507.668 L 557.279, 516.204 L 586.797, 528.473 L 574.172, 546.077 L 543.587, 533.274 L 546.788, 528.651 L 535.586, 524.028 L 526.873, 520.471 L 513.892, 515.137 z "/>
<path style="fill:rgb(255, 0, 0);fill-opacity:0;fill-rule:evenodd;stroke:rgb(255, 41, 0);stroke-width:1;" d="M 626.273, 714.47 L 631.785, 706.824 L 657.035, 671.972 L 714.114, 695.977 L 705.935, 707.179 L 697.399, 719.093 L 687.619, 732.607 L 683.352, 738.297 L 655.257, 726.561 L 626.273, 714.47 z "/>
<path style="fill:rgb(0, 255, 0);fill-opacity:0;fill-rule:evenodd;stroke:rgb(255, 41, 0);stroke-width:1;" d="M 241.476, 399.555 L 269.749, 360.791 L 324.517, 383.908 L 292.865, 427.295 L 251.078, 409.691 L 245.921, 407.379 L 249.3, 402.756 L 241.476, 399.555 z "/>
<path style="fill:rgb(0, 0, 255);fill-opacity:0;fill-rule:evenodd;stroke:rgb(255, 41, 0);stroke-width:1;" d="M 537.364, 735.63 L 551.234, 716.426 L 554.612, 714.826 L 570.971, 692.421 L 609.38, 708.602 L 625.739, 715.359 L 613.647, 732.074 L 607.424, 740.431 L 600.667, 737.586 L 588.397, 754.657 L 566.526, 745.588 L 565.281, 747.188 L 537.364, 735.63 z "/>
<path style="fill:rgb(255, 255, 0);fill-opacity:0;fill-rule:evenodd;stroke:rgb(255, 41, 0);stroke-width:1;" d="M 746.655, 449.344 L 762.658, 427.473 L 838.764, 459.658 L 842.321, 454.679 L 855.479, 460.369 L 833.963, 489.887 L 802.667, 476.55 L 804.623, 473.705 L 801.6, 472.461 L 748.789, 450.233 L 746.655, 449.344 z "/>
<path style="fill:rgb(255, 0, 0);fill-opacity:0;fill-rule:evenodd;stroke:rgb(255, 41, 0);stroke-width:1;" d="M 836.097, 633.563 L 853.523, 609.913 L 872.727, 618.093 L 874.15, 616.137 L 911.314, 631.963 L 879.84, 674.639 L 845.343, 660.058 L 852.456, 650.456 L 850.856, 649.744 L 856.368, 642.276 L 836.097, 633.563 z "/>
<path style="fill:rgb(0, 255, 0);fill-opacity:0;fill-rule:evenodd;stroke:rgb(255, 41, 0);stroke-width:1;" d="M 355.99, 735.452 L 368.615, 718.56 L 362.925, 716.248 L 374.128, 700.956 L 374.661, 700.244 L 440.809, 728.517 L 412.358, 766.926 L 388.531, 756.79 L 403.112, 737.053 L 387.82, 730.473 L 377.328, 744.699 L 355.99, 735.452 z "/>
<path style="fill:rgb(0, 0, 255);fill-opacity:0;fill-rule:evenodd;stroke:rgb(255, 41, 0);stroke-width:1;" d="M 651.167, 580.573 L 664.859, 561.903 L 687.086, 571.327 L 692.954, 563.503 L 670.727, 553.901 L 684.419, 535.408 L 739.72, 558.88 L 738.12, 561.014 L 728.162, 574.705 L 709.847, 566.882 L 707.357, 570.26 L 711.98, 572.216 L 707.002, 579.151 L 702.556, 577.195 L 700.067, 580.573 L 718.56, 588.397 L 709.847, 600.133 L 681.752, 588.22 L 678.729, 592.309 L 651.167, 580.573 z "/>
<path style="fill:rgb(255, 255, 0);fill-opacity:0;fill-rule:evenodd;stroke:rgb(255, 41, 0);stroke-width:1;" d="M 901.534, 536.297 L 909.891, 525.094 L 914.87, 527.228 L 933.719, 501.445 L 964.303, 514.425 L 967.682, 509.98 L 987.953, 518.515 L 965.726, 548.922 L 968.749, 550.345 L 961.28, 560.48 L 953.279, 557.102 L 955.59, 554.079 L 938.697, 546.966 L 935.852, 550.878 L 916.648, 542.698 L 901.534, 536.297 z "/>
<path style="fill:rgb(255, 0, 0);fill-opacity:0;fill-rule:evenodd;stroke:rgb(255, 41, 0);stroke-width:1;" d="M 839.475, 81.4403 L 865.615, 45.699 L 894.954, 57.9684 L 911.314, 64.9033 L 904.023, 74.8611 L 906.868, 75.928 L 886.597, 103.845 L 851.567, 89.2643 L 852.99, 87.1305 L 839.475, 81.4403 z "/>
<path style="fill:rgb(0, 255, 0);fill-opacity:0;fill-rule:evenodd;stroke:rgb(255, 41, 0);stroke-width:1;" d="M 723.716, 481.707 L 745.054, 452.189 L 746.833, 453.078 L 748.789, 450.233 L 801.6, 472.461 L 799.644, 475.306 L 778.128, 504.645 L 723.716, 481.707 z "/>
<path style="fill:rgb(0, 0, 255);fill-opacity:0;fill-rule:evenodd;stroke:rgb(255, 41, 0);stroke-width:1;" d="M 522.249, 368.082 L 532.385, 354.39 L 542.521, 358.657 L 548.566, 350.3 L 533.985, 344.076 L 540.565, 335.186 L 544.832, 329.495 L 600.845, 353.145 L 592.132, 365.059 L 590.176, 367.548 L 575.772, 361.325 L 568.66, 370.927 L 578.617, 375.017 L 569.193, 387.82 L 522.249, 368.082 z "/>
<path style="fill:rgb(255, 255, 0);fill-opacity:0;fill-rule:evenodd;stroke:rgb(255, 41, 0);stroke-width:1;" d="M 760.525, 681.752 L 769.593, 669.304 L 780.084, 655.079 L 787.553, 645.121 L 791.109, 640.142 L 830.585, 656.857 L 820.449, 670.727 L 800, 698.466 L 760.525, 681.752 z "/>
<path style="fill:rgb(255, 0, 0);fill-opacity:0;fill-rule:evenodd;stroke:rgb(255, 41, 0);stroke-width:1;" d="M 233.296, 107.757 L 257.835, 74.1498 L 282.374, 84.4632 L 278.818, 89.4421 L 312.781, 103.845 L 295.355, 127.673 L 261.925, 113.625 L 258.369, 118.426 L 233.296, 107.757 z "/>
<path style="fill:rgb(0, 255, 0);fill-opacity:0;fill-rule:evenodd;stroke:rgb(255, 41, 0);stroke-width:1;" d="M 961.102, 153.634 L 989.909, 113.803 L 1019.25, 125.895 L 1014.09, 133.007 L 1026.72, 138.342 L 1018.18, 150.078 L 1010.18, 146.699 L 1005.73, 152.745 L 1021.38, 159.146 L 1010.36, 174.261 L 961.102, 153.634 z "/>
<path style="fill:rgb(0, 0, 255);fill-opacity:0;fill-rule:evenodd;stroke:rgb(255, 41, 0);stroke-width:1;" d="M 676.773, 646.01 L 687.442, 631.429 L 700.067, 636.764 L 702.023, 636.586 L 711.269, 623.961 L 697.399, 618.093 L 703.801, 609.38 L 757.324, 632.318 L 751.1, 640.676 L 737.23, 634.808 L 731.718, 642.098 L 727.984, 647.255 L 729.051, 649.033 L 741.142, 654.19 L 739.542, 656.501 L 730.296, 668.949 L 676.773, 646.01 z "/>
<path style="fill:rgb(255, 255, 0);fill-opacity:0;fill-rule:evenodd;stroke:rgb(255, 41, 0);stroke-width:1;" d="M 122.338, 560.302 L 140.298, 535.941 L 149.9, 522.605 L 157.546, 525.806 L 161.814, 519.76 L 173.905, 524.917 L 169.638, 530.785 L 173.194, 532.385 L 177.284, 526.695 L 193.821, 533.808 L 178.884, 554.257 L 166.615, 549.1 L 161.458, 556.39 L 173.727, 561.547 L 162.347, 577.195 L 122.338, 560.302 z "/>
<path style="fill:rgb(255, 0, 0);fill-opacity:0;fill-rule:evenodd;stroke:rgb(255, 41, 0);stroke-width:1;" d="M 540.387, 435.297 L 556.39, 413.603 L 562.97, 416.448 L 567.059, 410.936 L 610.625, 429.251 L 606.713, 434.585 L 613.114, 437.253 L 606.535, 446.321 L 596.933, 459.48 L 591.065, 456.813 L 589.82, 458.413 L 588.931, 458.769 L 587.864, 458.769 L 570.971, 451.656 L 570.438, 448.811 L 571.683, 447.21 L 568.126, 445.61 L 566.882, 447.21 L 563.325, 448.455 L 545.899, 441.343 L 545.188, 440.631 L 544.832, 439.564 L 545.01, 438.497 L 545.721, 437.431 L 540.387, 435.297 z "/>
<path style="fill:rgb(0, 255, 0);fill-opacity:0;fill-rule:evenodd;stroke:rgb(255, 41, 0);stroke-width:1;" d="M 155.412, 721.405 L 160.569, 714.47 L 158.257, 713.403 L 170.705, 696.51 L 173.016, 697.577 L 177.284, 691.887 L 228.495, 713.759 L 206.624, 743.276 L 155.412, 721.405 z "/>
<path style="fill:rgb(0, 0, 255);fill-opacity:0;fill-rule:evenodd;stroke:rgb(255, 41, 0);stroke-width:1;" d="M 800, 698.466 L 820.449, 670.727 L 835.741, 677.128 L 834.852, 678.195 L 842.676, 681.574 L 844.632, 678.906 L 845.343, 679.084 L 849.789, 673.216 L 847.122, 672.149 L 848.722, 670.016 L 874.15, 680.862 L 870.593, 685.663 L 871.483, 686.019 L 847.477, 718.737 L 800, 698.466 z "/>
<path style="fill:rgb(255, 255, 0);fill-opacity:0;fill-rule:evenodd;stroke:rgb(255, 41, 0);stroke-width:1;" d="M 45.8769, 360.969 L 67.0371, 331.985 L 68.4597, 332.696 L 92.6428, 342.832 L 89.4421, 347.277 L 129.807, 364.525 L 115.226, 384.441 L 68.9931, 364.881 L 65.6146, 369.327 L 45.8769, 360.969 z "/>
<path style="fill:rgb(255, 0, 0);fill-opacity:0;fill-rule:evenodd;stroke:rgb(255, 41, 0);stroke-width:1;" d="M 703.801, 509.269 L 714.648, 494.51 L 715.892, 495.043 L 717.671, 492.732 L 716.07, 492.02 L 723.716, 481.707 L 778.128, 504.645 L 781.863, 506.246 L 774.75, 515.848 L 770.127, 513.892 L 757.146, 531.852 L 703.801, 509.269 z "/>
<path style="fill:rgb(0, 255, 0);fill-opacity:0;fill-rule:evenodd;stroke:rgb(255, 41, 0);stroke-width:1;" d="M 842.854, 419.471 L 870.06, 381.952 L 909.891, 398.666 L 882.685, 436.186 L 842.854, 419.471 z "/>
<path style="fill:rgb(0, 0, 255);fill-opacity:0;fill-rule:evenodd;stroke:rgb(255, 41, 0);stroke-width:1;" d="M 581.996, 676.95 L 602.267, 649.033 L 657.035, 671.972 L 631.785, 706.824 L 618.449, 701.311 L 632.674, 681.574 L 627.517, 679.44 L 625.028, 682.818 L 615.07, 678.729 L 608.313, 687.975 L 602.978, 685.663 L 594.088, 682.107 L 581.996, 676.95 z "/>
<path style="fill:rgb(255, 255, 0);fill-opacity:0;fill-rule:evenodd;stroke:rgb(255, 41, 0);stroke-width:1;" d="M 775.106, 622.005 L 783.641, 610.447 L 792.354, 614.181 L 798.755, 605.646 L 785.419, 599.956 L 795.91, 585.552 L 797.333, 583.596 L 845.699, 604.045 L 833.607, 620.582 L 820.627, 615.07 L 814.581, 623.25 L 822.938, 626.806 L 814.225, 638.72 L 775.106, 622.005 z "/>
<path style="fill:rgb(255, 0, 0);fill-opacity:0;fill-rule:evenodd;stroke:rgb(255, 41, 0);stroke-width:1;" d="M 687.619, 732.607 L 697.399, 719.093 L 705.046, 722.294 L 709.135, 716.604 L 708.602, 716.426 L 710.38, 714.114 L 712.692, 715.003 L 715.537, 711.269 L 705.935, 707.179 L 714.114, 695.977 L 758.924, 714.648 L 750.567, 726.028 L 739.364, 721.405 L 735.63, 726.384 L 730.829, 733.141 L 742.032, 737.942 L 732.252, 751.278 L 687.619, 732.607 z "/>
<path style="fill:rgb(0, 255, 0);fill-opacity:0;fill-rule:evenodd;stroke:rgb(255, 41, 0);stroke-width:1;" d="M 704.69, 276.328 L 719.627, 256.057 L 768.882, 276.862 L 746.299, 307.802 L 727.806, 299.978 L 730.296, 296.244 L 705.223, 285.752 L 710.38, 278.64 L 704.69, 276.328 z "/>
<path style="fill:rgb(0, 0, 255);fill-opacity:0;fill-rule:evenodd;stroke:rgb(255, 41, 0);stroke-width:1;" d="M 593.91, 759.28 L 602.801, 747.01 L 607.602, 748.966 L 608.846, 754.301 L 614.181, 747.01 L 622.361, 735.63 L 613.647, 732.074 L 625.739, 715.359 L 626.273, 714.47 L 655.257, 726.561 L 645.477, 740.253 L 650.633, 742.387 L 634.096, 765.148 L 639.431, 767.459 L 635.163, 773.327 L 633.385, 775.639 L 593.91, 759.28 z "/>
<path style="fill:rgb(255, 255, 0);fill-opacity:0;fill-rule:evenodd;stroke:rgb(255, 41, 0);stroke-width:1;" d="M 227.428, 743.632 L 245.566, 719.271 L 300.867, 743.098 L 282.907, 767.282 L 227.428, 743.632 z "/>
<path style="fill:rgb(255, 0, 0);fill-opacity:0;fill-rule:evenodd;stroke:rgb(255, 41, 0);stroke-width:1;" d="M 894.599, 581.285 L 910.602, 559.235 L 905.979, 557.279 L 916.648, 542.698 L 935.852, 550.878 L 938.697, 546.966 L 955.59, 554.079 L 953.279, 557.102 L 961.28, 560.48 L 963.058, 561.191 L 940.831, 591.776 L 938.52, 590.887 L 910.425, 578.973 L 904.557, 576.484 L 902.423, 579.507 L 900.467, 578.795 L 897.8, 582.707 L 895.844, 581.818 L 894.599, 581.285 z M 930.874, 564.57 L 940.12, 568.482 L 944.743, 561.903 L 935.675, 557.991 L 930.874, 564.57 z "/>
<path style="fill:rgb(0, 255, 0);fill-opacity:0;fill-rule:evenodd;stroke:rgb(255, 41, 0);stroke-width:1;" d="M 30.0511, 750.211 L 32.1849, 747.366 L 56.7237, 713.581 L 88.9086, 727.095 L 54.7677, 774.216 L 43.9209, 769.593 L 50.1445, 760.88 L 39.1198, 756.257 L 40.3645, 754.479 L 30.0511, 750.211 z "/>
<path style="fill:rgb(0, 0, 255);fill-opacity:0;fill-rule:evenodd;stroke:rgb(255, 41, 0);stroke-width:1;" d="M 971.594, 623.25 L 983.863, 606.179 L 987.242, 607.78 L 998.978, 591.42 L 995.599, 589.998 L 1003.25, 579.507 L 1004.67, 580.04 L 1025.29, 588.753 L 1011.42, 607.957 L 1028.5, 615.07 L 1027.25, 617.026 L 1020.32, 626.628 L 1014.09, 623.961 L 1011.6, 627.517 L 1017.83, 630.007 L 1012.85, 636.942 L 1010.89, 639.609 L 971.594, 623.25 z "/>
<path style="fill:rgb(255, 255, 0);fill-opacity:0;fill-rule:evenodd;stroke:rgb(255, 41, 0);stroke-width:1;" d="M 69.8822, 481.174 L 74.1498, 475.483 L 101.711, 437.608 L 130.162, 449.522 L 111.314, 475.306 L 98.333, 493.265 L 84.2854, 487.397 L 72.9051, 482.596 L 69.8822, 481.174 z "/>
<path style="fill:rgb(255, 0, 0);fill-opacity:0;fill-rule:evenodd;stroke:rgb(255, 41, 0);stroke-width:1;" d="M 573.461, 307.624 L 583.241, 294.288 L 590.887, 297.488 L 588.22, 292.865 L 593.91, 284.863 L 592.309, 284.152 L 593.376, 282.729 L 594.977, 283.263 L 595.866, 282.196 L 593.021, 280.951 L 602.089, 268.326 L 622.716, 277.039 L 625.917, 272.772 L 636.586, 277.217 L 622.538, 296.421 L 604.757, 320.782 L 573.461, 307.624 z "/>
<path style="fill:rgb(0, 255, 0);fill-opacity:0;fill-rule:evenodd;stroke:rgb(255, 41, 0);stroke-width:1;" d="M 150.789, 220.493 L 170.705, 192.932 L 203.601, 206.802 L 199.867, 211.958 L 201.467, 212.847 L 202.534, 214.27 L 202.89, 214.981 L 202.89, 216.404 L 211.425, 219.96 L 212.847, 218.182 L 221.916, 221.916 L 211.069, 236.675 L 202.178, 232.941 L 202.89, 231.874 L 200.044, 230.629 L 199.689, 231.162 L 193.999, 228.673 L 192.22, 229.384 L 190.265, 229.74 L 188.309, 229.384 L 187.419, 229.206 L 183.685, 234.363 L 150.789, 220.493 z "/>
<path style="fill:rgb(0, 0, 255);fill-opacity:0;fill-rule:evenodd;stroke:rgb(255, 41, 0);stroke-width:1;" d="M 360.08, 437.431 L 366.126, 428.895 L 401.867, 443.654 L 407.202, 436.186 L 405.068, 435.297 L 413.781, 423.027 L 446.855, 436.719 L 425.339, 466.415 L 415.026, 462.147 L 416.092, 460.547 L 360.08, 437.431 z "/>
<path style="fill:rgb(255, 255, 0);fill-opacity:0;fill-rule:evenodd;stroke:rgb(255, 41, 0);stroke-width:1;" d="M 624.139, 609.735 L 643.343, 583.774 L 665.57, 593.198 L 662.725, 597.11 L 676.239, 602.801 L 679.084, 598.889 L 703.801, 609.38 L 697.399, 618.093 L 685.841, 613.114 L 676.595, 625.561 L 654.545, 616.137 L 655.435, 615.07 L 650.811, 613.114 L 646.188, 619.16 L 628.228, 611.514 L 624.139, 609.735 z "/>
<path style="fill:rgb(255, 0, 0);fill-opacity:0;fill-rule:evenodd;stroke:rgb(255, 41, 0);stroke-width:1;" d="M 162.347, 577.195 L 173.727, 561.547 L 178.884, 554.257 L 193.821, 533.808 L 200.578, 536.653 L 198.978, 538.609 L 220.316, 547.677 L 190.087, 588.931 L 162.347, 577.195 z "/>
<path style="fill:rgb(0, 255, 0);fill-opacity:0;fill-rule:evenodd;stroke:rgb(255, 41, 0);stroke-width:1;" d="M 421.605, 535.764 L 440.631, 509.091 L 450.411, 495.399 L 471.216, 504.112 L 479.218, 507.313 L 474.239, 514.603 L 450.411, 547.677 L 421.605, 535.764 z "/>
<path style="fill:rgb(0, 0, 255);fill-opacity:0;fill-rule:evenodd;stroke:rgb(255, 41, 0);stroke-width:1;" d="M 503.756, 425.695 L 515.137, 410.224 L 518.337, 411.647 L 520.293, 408.98 L 517.093, 407.557 L 522.427, 400.089 L 524.739, 399.555 L 528.295, 394.399 L 527.05, 393.865 L 532.385, 386.397 L 546.433, 392.443 L 527.406, 418.404 L 533.274, 420.894 L 552.301, 394.932 L 565.815, 400.622 L 556.39, 413.603 L 540.387, 435.297 L 537.008, 439.92 L 503.756, 425.695 z "/>
<path style="fill:rgb(255, 255, 0);fill-opacity:0;fill-rule:evenodd;stroke:rgb(255, 41, 0);stroke-width:1;" d="M 434.763, 692.954 L 437.431, 689.042 L 448.811, 673.572 L 455.39, 676.417 L 459.836, 674.639 L 467.659, 663.97 L 458.769, 660.236 L 467.304, 648.322 L 463.747, 646.899 L 466.415, 643.165 L 475.306, 646.899 L 478.329, 642.632 L 496.999, 650.633 L 458.769, 703.09 L 434.763, 692.954 z "/>
<path style="fill:rgb(255, 0, 0);fill-opacity:0;fill-rule:evenodd;stroke:rgb(255, 41, 0);stroke-width:1;" d="M 593.732, 463.925 L 596.933, 459.48 L 606.535, 446.321 L 612.403, 448.811 L 614.003, 447.566 L 614.714, 444.721 L 628.051, 426.406 L 653.123, 437.075 L 624.139, 476.728 L 593.732, 463.925 z "/>
<path style="fill:rgb(0, 255, 0);fill-opacity:0;fill-rule:evenodd;stroke:rgb(255, 41, 0);stroke-width:1;" d="M 616.493, 323.983 L 625.561, 311.536 L 631.963, 314.203 L 634.274, 313.492 L 640.676, 304.957 L 640.498, 302.645 L 634.096, 299.978 L 642.81, 288.064 L 677.662, 302.645 L 668.771, 314.737 L 662.547, 312.069 L 659.88, 312.958 L 653.479, 321.849 L 654.012, 323.627 L 660.236, 326.295 L 651.345, 338.564 L 616.493, 323.983 z "/>
<path style="fill:rgb(0, 0, 255);fill-opacity:0;fill-rule:evenodd;stroke:rgb(255, 41, 0);stroke-width:1;" d="M 100.467, 404.357 L 114.337, 385.508 L 121.094, 388.175 L 135.141, 368.971 L 139.053, 370.749 L 143.321, 364.881 L 161.28, 372.349 L 128.918, 416.448 L 100.467, 404.357 z "/>
<path style="fill:rgb(255, 255, 0);fill-opacity:0;fill-rule:evenodd;stroke:rgb(255, 41, 0);stroke-width:1;" d="M 580.04, 137.808 L 593.376, 119.849 L 591.242, 118.96 L 596.755, 111.491 L 596.933, 111.669 L 638.72, 129.451 L 620.227, 154.879 L 608.313, 149.9 L 594.088, 143.854 L 580.04, 137.808 z "/>
<path style="fill:rgb(255, 0, 0);fill-opacity:0;fill-rule:evenodd;stroke:rgb(255, 41, 0);stroke-width:1;" d="M 279.529, 622.538 L 288.064, 610.802 L 293.221, 603.868 L 303.712, 589.464 L 306.735, 585.552 L 310.291, 586.975 L 312.781, 583.596 L 322.738, 587.864 L 325.05, 588.931 L 319.715, 596.221 L 316.87, 595.154 L 314.737, 598 L 328.784, 603.868 L 306.913, 634.096 L 304.245, 637.653 L 285.575, 629.829 L 288.242, 626.273 L 279.529, 622.538 z "/>
<path style="fill:rgb(0, 255, 0);fill-opacity:0;fill-rule:evenodd;stroke:rgb(255, 41, 0);stroke-width:1;" d="M 791.998, 82.5072 L 802.134, 68.2818 L 808.002, 70.7713 L 823.294, 49.7888 L 847.122, 59.9244 L 831.829, 80.7291 L 838.053, 83.3963 L 827.917, 97.4439 L 791.998, 82.5072 z "/>
<path style="fill:rgb(0, 0, 255);fill-opacity:0;fill-rule:evenodd;stroke:rgb(255, 41, 0);stroke-width:1;" d="M 34.1409, 377.15 L 45.8769, 360.969 L 65.6146, 369.327 L 107.224, 386.93 L 95.4879, 403.112 L 34.1409, 377.15 z "/>
<path style="fill:rgb(255, 255, 0);fill-opacity:0;fill-rule:evenodd;stroke:rgb(255, 41, 0);stroke-width:1;" d="M 678.729, 352.078 L 695.443, 329.14 L 700.778, 331.451 L 713.047, 314.559 L 734.741, 323.627 L 705.579, 363.459 L 678.729, 352.078 z "/>
<path style="fill:rgb(255, 0, 0);fill-opacity:0;fill-rule:evenodd;stroke:rgb(255, 41, 0);stroke-width:1;" d="M 865.437, 577.551 L 896.91, 534.341 L 901.534, 536.297 L 916.648, 542.698 L 905.979, 557.279 L 910.602, 559.235 L 894.599, 581.285 L 892.643, 583.952 L 889.798, 587.686 L 865.437, 577.551 z "/>
<path style="fill:rgb(0, 255, 0);fill-opacity:0;fill-rule:evenodd;stroke:rgb(255, 41, 0);stroke-width:1;" d="M 173.194, 686.908 L 187.597, 667.348 L 190.442, 668.593 L 208.402, 676.239 L 206.09, 679.084 L 218.537, 684.419 L 220.849, 681.396 L 226.895, 684.063 L 235.074, 687.619 L 228.851, 695.799 L 238.809, 700.067 L 230.629, 711.091 L 219.249, 706.29 L 220.138, 705.046 L 189.375, 691.887 L 188.309, 693.487 L 173.194, 686.908 z "/>
<path style="fill:rgb(0, 0, 255);fill-opacity:0;fill-rule:evenodd;stroke:rgb(255, 41, 0);stroke-width:1;" d="M 582.707, 242.721 L 593.198, 228.317 L 587.331, 226.006 L 601.734, 206.268 L 631.963, 219.071 L 625.739, 227.784 L 618.982, 237.03 L 607.246, 253.034 L 582.707, 242.721 z "/>
<path style="fill:rgb(255, 255, 0);fill-opacity:0;fill-rule:evenodd;stroke:rgb(255, 41, 0);stroke-width:1;" d="M 518.871, 579.684 L 546.966, 540.387 L 571.149, 550.345 L 554.968, 572.927 L 543.054, 589.642 L 518.871, 579.684 z "/>
<path style="fill:rgb(255, 0, 0);fill-opacity:0;fill-rule:evenodd;stroke:rgb(255, 41, 0);stroke-width:1;" d="M 449.878, 495.221 L 458.591, 483.307 L 480.107, 453.078 L 481.529, 450.945 L 502.867, 459.836 L 501.267, 462.325 L 481.529, 489.887 L 471.216, 504.112 L 450.411, 495.399 L 449.878, 495.221 z "/>
<path style="fill:rgb(0, 255, 0);fill-opacity:0;fill-rule:evenodd;stroke:rgb(255, 41, 0);stroke-width:1;" d="M 785.775, 397.422 L 801.423, 376.261 L 818.671, 383.374 L 815.826, 387.286 L 816.537, 391.198 L 828.629, 396.355 L 831.118, 397.422 L 835.919, 390.842 L 850.5, 396.888 L 835.03, 418.226 L 785.775, 397.422 z "/>
<path style="fill:rgb(0, 0, 255);fill-opacity:0;fill-rule:evenodd;stroke:rgb(255, 41, 0);stroke-width:1;" d="M 127.495, 252.678 L 143.321, 230.807 L 164.303, 239.52 L 161.458, 243.432 L 195.599, 257.657 L 185.286, 271.883 L 149.011, 256.768 L 146.166, 260.502 L 127.495, 252.678 z "/>
<path style="fill:rgb(255, 255, 0);fill-opacity:0;fill-rule:evenodd;stroke:rgb(255, 41, 0);stroke-width:1;" d="M 715.715, 151.856 L 730.296, 132.118 L 724.428, 129.629 L 735.275, 114.692 L 767.637, 128.384 L 756.79, 143.321 L 751.1, 141.009 L 736.697, 160.747 L 715.715, 151.856 z "/>
<path style="fill:rgb(255, 0, 0);fill-opacity:0;fill-rule:evenodd;stroke:rgb(255, 41, 0);stroke-width:1;" d="M 602.801, 259.08 L 607.246, 253.034 L 618.982, 237.03 L 621.649, 238.275 L 628.406, 228.851 L 625.739, 227.784 L 631.963, 219.071 L 654.19, 228.495 L 647.966, 237.208 L 645.832, 236.319 L 639.075, 245.566 L 641.209, 246.455 L 622.894, 271.527 L 606.357, 264.414 L 608.491, 261.569 L 602.801, 259.08 z "/>
<path style="fill:rgb(0, 255, 0);fill-opacity:0;fill-rule:evenodd;stroke:rgb(255, 41, 0);stroke-width:1;" d="M 903.667, 718.026 L 921.627, 692.954 L 939.053, 700.067 L 936.208, 703.979 L 962.347, 714.826 L 949.722, 732.607 L 924.294, 722.116 L 921.805, 725.495 L 903.667, 718.026 z "/>
<path style="fill:rgb(0, 0, 255);fill-opacity:0;fill-rule:evenodd;stroke:rgb(255, 41, 0);stroke-width:1;" d="M 767.815, 167.86 L 772.972, 160.569 L 789.864, 137.808 L 819.382, 150.433 L 797.333, 180.485 L 767.815, 167.86 z "/>
<path style="fill:rgb(255, 255, 0);fill-opacity:0;fill-rule:evenodd;stroke:rgb(255, 41, 0);stroke-width:1;" d="M 170.705, 192.932 L 182.263, 177.106 L 243.61, 202.89 L 234.897, 215.159 L 210.358, 204.846 L 207.691, 208.58 L 203.601, 206.802 L 170.705, 192.932 z "/>
<path style="fill:rgb(255, 0, 0);fill-opacity:0;fill-rule:evenodd;stroke:rgb(255, 41, 0);stroke-width:1;" d="M 730.296, 668.949 L 739.542, 656.501 L 744.343, 658.457 L 750.211, 659.347 L 758.035, 648.855 L 757.324, 645.832 L 749.678, 642.632 L 751.1, 640.676 L 757.324, 632.318 L 787.553, 645.121 L 780.084, 655.079 L 775.106, 653.123 L 771.016, 654.19 L 763.37, 664.503 L 764.792, 667.17 L 769.593, 669.304 L 760.525, 681.752 L 730.296, 668.949 z "/>
<path style="fill:rgb(0, 255, 0);fill-opacity:0;fill-rule:evenodd;stroke:rgb(255, 41, 0);stroke-width:1;" d="M 939.409, 462.147 L 949.367, 448.455 L 958.08, 452.189 L 966.793, 440.276 L 958.08, 436.541 L 966.437, 425.161 L 994.354, 436.897 L 992.576, 439.387 L 986.175, 448.1 L 978.351, 444.721 L 969.104, 457.346 L 976.928, 460.725 L 967.326, 473.883 L 939.409, 462.147 z "/>
<path style="fill:rgb(0, 0, 255);fill-opacity:0;fill-rule:evenodd;stroke:rgb(255, 41, 0);stroke-width:1;" d="M 564.392, 156.124 L 578.262, 137.097 L 580.04, 137.808 L 594.088, 143.854 L 591.954, 146.699 L 592.309, 150.078 L 602.089, 154.168 L 606.179, 152.745 L 608.313, 149.9 L 620.227, 154.879 L 623.783, 156.479 L 609.913, 175.506 L 564.392, 156.124 z "/>
<path style="fill:rgb(255, 255, 0);fill-opacity:0;fill-rule:evenodd;stroke:rgb(255, 41, 0);stroke-width:1;" d="M 769.771, 73.0829 L 787.197, 49.2554 L 790.931, 50.8557 L 796.977, 42.4983 L 806.757, 46.5881 L 814.937, 35.3856 L 823.472, 38.942 L 802.134, 68.2818 L 791.998, 82.5072 L 769.771, 73.0829 z "/>
<path style="fill:rgb(255, 0, 0);fill-opacity:0;fill-rule:evenodd;stroke:rgb(255, 41, 0);stroke-width:1;" d="M 369.504, 72.016 L 388.353, 45.5212 L 395.288, 48.5441 L 395.466, 48.1885 L 394.399, 45.5212 L 399.2, 38.7642 L 402.756, 38.4085 L 406.668, 33.074 L 413.959, 36.0969 L 418.582, 38.2307 L 388.531, 79.84 L 382.663, 79.6621 L 372.705, 75.5723 L 369.504, 72.016 z "/>
<path style="fill:rgb(0, 255, 0);fill-opacity:0;fill-rule:evenodd;stroke:rgb(255, 41, 0);stroke-width:1;" d="M 648.5, 191.865 L 657.035, 180.129 L 659.347, 181.018 L 669.126, 167.504 L 669.126, 165.904 L 671.082, 163.058 L 673.038, 162.169 L 679.084, 153.812 L 695.621, 160.925 L 689.753, 168.926 L 689.398, 170.705 L 687.264, 173.55 L 685.841, 174.261 L 675.884, 187.953 L 677.84, 188.842 L 671.438, 197.733 L 669.304, 200.578 L 648.5, 191.865 z "/>
<path style="fill:rgb(0, 0, 255);fill-opacity:0;fill-rule:evenodd;stroke:rgb(255, 41, 0);stroke-width:1;" d="M 463.214, 113.803 L 471.038, 102.956 L 472.283, 101.356 L 479.751, 104.557 L 528.829, 125.006 L 519.938, 137.453 L 463.214, 113.803 z "/>
<path style="fill:rgb(255, 255, 0);fill-opacity:0;fill-rule:evenodd;stroke:rgb(255, 41, 0);stroke-width:1;" d="M 206.624, 743.276 L 228.495, 713.759 L 230.629, 711.091 L 238.809, 700.067 L 254.634, 707.002 L 245.566, 719.271 L 227.428, 743.632 L 222.627, 750.033 L 206.624, 743.276 z "/>
<path style="fill:rgb(255, 0, 0);fill-opacity:0;fill-rule:evenodd;stroke:rgb(255, 41, 0);stroke-width:1;" d="M 615.603, 177.817 L 645.477, 137.097 L 655.968, 141.543 L 648.5, 151.856 L 656.857, 155.412 L 650.989, 163.592 L 634.452, 185.997 L 615.603, 177.817 z "/>
<path style="fill:rgb(0, 255, 0);fill-opacity:0;fill-rule:evenodd;stroke:rgb(255, 41, 0);stroke-width:1;" d="M 957.19, 404.712 L 959.68, 401.334 L 984.219, 367.548 L 1004.13, 375.906 L 1003.25, 377.15 L 990.62, 394.577 L 984.397, 391.731 L 973.905, 405.957 L 980.307, 408.624 L 973.016, 418.582 L 966.97, 416.092 L 971.06, 410.58 L 957.19, 404.712 z "/>
<path style="fill:rgb(0, 0, 255);fill-opacity:0;fill-rule:evenodd;stroke:rgb(255, 41, 0);stroke-width:1;" d="M 145.099, 423.205 L 169.282, 390.309 L 176.217, 393.154 L 184.574, 381.596 L 193.287, 385.152 L 194.71, 385.864 L 192.398, 389.064 L 162.703, 429.607 L 161.992, 430.496 L 145.099, 423.205 z "/>
<path style="fill:rgb(255, 255, 0);fill-opacity:0;fill-rule:evenodd;stroke:rgb(255, 41, 0);stroke-width:1;" d="M 366.126, 428.895 L 380.351, 409.158 L 413.781, 423.027 L 405.068, 435.297 L 407.202, 436.186 L 401.867, 443.654 L 366.126, 428.895 z "/>
<path style="fill:rgb(255, 0, 0);fill-opacity:0;fill-rule:evenodd;stroke:rgb(255, 41, 0);stroke-width:1;" d="M 119.315, 263.881 L 127.495, 252.678 L 146.166, 260.502 L 187.064, 277.751 L 179.062, 288.953 L 119.315, 263.881 z "/>
<path style="fill:rgb(0, 255, 0);fill-opacity:0;fill-rule:evenodd;stroke:rgb(255, 41, 0);stroke-width:1;" d="M 416.448, 92.9984 L 440.809, 59.0353 L 447.033, 50.3223 L 458.769, 55.1234 L 453.968, 62.0582 L 455.034, 64.3699 L 451.3, 69.5266 L 448.1, 70.4156 L 446.677, 72.1938 L 444.188, 71.1269 L 440.631, 76.1058 L 451.122, 80.3734 L 436.186, 101.178 L 416.448, 92.9984 z "/>
<path style="fill:rgb(0, 0, 255);fill-opacity:0;fill-rule:evenodd;stroke:rgb(255, 41, 0);stroke-width:1;" d="M 388.886, 522.249 L 391.02, 519.226 L 409.513, 493.443 L 432.452, 502.867 L 429.607, 506.957 L 411.825, 531.674 L 388.886, 522.249 z "/>
<path style="fill:rgb(255, 255, 0);fill-opacity:0;fill-rule:evenodd;stroke:rgb(255, 41, 0);stroke-width:1;" d="M 128.918, 416.448 L 161.28, 372.349 L 171.594, 376.795 L 163.414, 387.82 L 169.282, 390.309 L 145.099, 423.205 L 128.918, 416.448 z "/>
<path style="fill:rgb(255, 0, 0);fill-opacity:0;fill-rule:evenodd;stroke:rgb(255, 41, 0);stroke-width:1;" d="M 809.069, 181.729 L 829.162, 154.523 L 852.812, 164.481 L 832.896, 191.865 L 809.069, 181.729 z "/>
<path style="fill:rgb(0, 255, 0);fill-opacity:0;fill-rule:evenodd;stroke:rgb(255, 41, 0);stroke-width:1;" d="M 506.068, 74.8611 L 521.538, 53.523 L 515.848, 51.0336 L 517.448, 48.8998 L 519.582, 45.8769 L 522.249, 42.1427 L 532.563, 27.9173 L 549.811, 35.03 L 527.228, 66.5037 L 517.626, 79.6621 L 514.07, 78.2396 L 506.068, 74.8611 z "/>
<path style="fill:rgb(0, 0, 255);fill-opacity:0;fill-rule:evenodd;stroke:rgb(255, 41, 0);stroke-width:1;" d="M 235.252, 608.491 L 246.277, 593.198 L 288.064, 610.802 L 279.529, 622.538 L 277.039, 626.095 L 235.252, 608.491 z "/>
<path style="fill:rgb(255, 255, 0);fill-opacity:0;fill-rule:evenodd;stroke:rgb(255, 41, 0);stroke-width:1;" d="M 980.662, 479.573 L 1012.49, 436.008 L 1022.63, 440.276 L 1027.07, 442.054 L 995.243, 485.619 L 980.662, 479.573 z "/>
<path style="fill:rgb(255, 0, 0);fill-opacity:0;fill-rule:evenodd;stroke:rgb(255, 41, 0);stroke-width:1;" d="M 944.743, 757.679 L 950.789, 749.322 L 957.368, 740.076 L 965.904, 727.984 L 986.886, 736.697 L 965.726, 766.393 L 944.743, 757.679 z "/>
<path style="fill:rgb(0, 255, 0);fill-opacity:0;fill-rule:evenodd;stroke:rgb(255, 41, 0);stroke-width:1;" d="M 187.419, 289.842 L 196.488, 277.573 L 200.756, 279.351 L 202.712, 276.684 L 201.823, 275.261 L 201.645, 273.839 L 202, 272.416 L 202.712, 270.994 L 204.134, 269.927 L 205.735, 269.038 L 207.513, 268.682 L 208.58, 268.504 L 211.069, 265.126 L 206.802, 263.347 L 215.337, 251.611 L 232.407, 258.724 L 226.006, 267.437 L 204.49, 296.955 L 187.419, 289.842 z "/>
<path style="fill:rgb(0, 0, 255);fill-opacity:0;fill-rule:evenodd;stroke:rgb(255, 41, 0);stroke-width:1;" d="M 251.434, 586.264 L 261.925, 571.683 L 262.814, 572.038 L 301.045, 588.22 L 303.712, 589.464 L 293.221, 603.868 L 251.434, 586.264 z "/>
<path style="fill:rgb(255, 255, 0);fill-opacity:0;fill-rule:evenodd;stroke:rgb(255, 41, 0);stroke-width:1;" d="M 527.228, 66.5037 L 549.811, 35.03 L 573.461, 44.81 L 572.572, 45.8769 L 556.39, 68.4597 L 539.32, 61.5248 L 533.808, 69.1709 L 527.228, 66.5037 z "/>
<path style="fill:rgb(255, 0, 0);fill-opacity:0;fill-rule:evenodd;stroke:rgb(255, 41, 0);stroke-width:1;" d="M 911.314, 450.233 L 940.653, 410.047 L 955.234, 416.092 L 925.895, 456.457 L 911.314, 450.233 z "/>
<path style="fill:rgb(0, 255, 0);fill-opacity:0;fill-rule:evenodd;stroke:rgb(255, 41, 0);stroke-width:1;" d="M 650.278, 340.164 L 651.345, 338.564 L 660.236, 326.295 L 668.771, 314.737 L 677.662, 302.645 L 679.973, 299.267 L 694.554, 305.49 L 692.421, 308.157 L 664.681, 346.21 L 650.278, 340.164 z "/>
<path style="fill:rgb(0, 0, 255);fill-opacity:0;fill-rule:evenodd;stroke:rgb(255, 41, 0);stroke-width:1;" d="M 620.405, 622.005 L 628.228, 611.514 L 646.188, 619.16 L 669.304, 629.118 L 671.082, 628.406 L 683.174, 633.563 L 674.639, 645.121 L 620.405, 622.005 z "/>
<path style="fill:rgb(255, 255, 0);fill-opacity:0;fill-rule:evenodd;stroke:rgb(255, 41, 0);stroke-width:1;" d="M 243.076, 420.716 L 244.677, 418.404 L 251.078, 409.691 L 292.865, 427.295 L 303.89, 431.918 L 295.888, 443.121 L 243.076, 420.716 z "/>
<path style="fill:rgb(255, 0, 0);fill-opacity:0;fill-rule:evenodd;stroke:rgb(255, 41, 0);stroke-width:1;" d="M 61.1691, 469.971 L 70.4156, 457.168 L 67.0371, 455.746 L 85.3523, 430.673 L 101.711, 437.608 L 74.1498, 475.483 L 61.1691, 469.971 z "/>
<path style="fill:rgb(0, 255, 0);fill-opacity:0;fill-rule:evenodd;stroke:rgb(255, 41, 0);stroke-width:1;" d="M 235.074, 431.385 L 243.076, 420.716 L 295.888, 443.121 L 288.064, 453.79 L 235.074, 431.385 z "/>
<path style="fill:rgb(0, 0, 255);fill-opacity:0;fill-rule:evenodd;stroke:rgb(255, 41, 0);stroke-width:1;" d="M 897.8, 444.543 L 928.028, 403.112 L 941.543, 408.802 L 940.653, 410.047 L 911.314, 450.233 L 897.8, 444.543 z "/>
<path style="fill:rgb(255, 255, 0);fill-opacity:0;fill-rule:evenodd;stroke:rgb(255, 41, 0);stroke-width:1;" d="M 320.605, 144.032 L 331.451, 129.273 L 327.006, 127.317 L 345.499, 102.067 L 346.922, 99.9333 L 361.858, 106.335 L 361.147, 107.224 L 330.918, 148.477 L 320.605, 144.032 z "/>
<path style="fill:rgb(255, 0, 0);fill-opacity:0;fill-rule:evenodd;stroke:rgb(255, 41, 0);stroke-width:1;" d="M 925.895, 456.457 L 955.234, 416.092 L 956.301, 414.848 L 969.638, 420.538 L 966.437, 425.161 L 958.08, 436.541 L 949.367, 448.455 L 939.409, 462.147 L 925.895, 456.457 z "/>
<path style="fill:rgb(0, 255, 0);fill-opacity:0;fill-rule:evenodd;stroke:rgb(255, 41, 0);stroke-width:1;" d="M 38.4085, 525.094 L 60.2801, 495.043 L 66.3259, 497.533 L 68.9931, 494.154 L 65.6146, 492.732 L 72.9051, 482.596 L 84.2854, 487.397 L 72.1938, 503.756 L 52.9896, 530.073 L 52.4561, 530.962 L 38.4085, 525.094 z "/>
<path style="fill:rgb(0, 0, 255);fill-opacity:0;fill-rule:evenodd;stroke:rgb(255, 41, 0);stroke-width:1;" d="M 434.941, 178.351 L 440.631, 170.705 L 444.899, 164.837 L 453.79, 168.749 L 484.374, 181.729 L 486.152, 182.441 L 476.373, 195.955 L 434.941, 178.351 z "/>
<path style="fill:rgb(255, 255, 0);fill-opacity:0;fill-rule:evenodd;stroke:rgb(255, 41, 0);stroke-width:1;" d="M 688.331, 298.555 L 696.155, 287.886 L 726.917, 301.045 L 727.806, 299.978 L 746.299, 307.802 L 747.366, 308.157 L 738.831, 319.715 L 688.331, 298.555 z "/>
<path style="fill:rgb(255, 0, 0);fill-opacity:0;fill-rule:evenodd;stroke:rgb(255, 41, 0);stroke-width:1;" d="M 635.163, 773.327 L 639.431, 767.459 L 644.766, 759.991 L 642.454, 759.102 L 646.544, 753.412 L 648.855, 754.479 L 657.035, 742.921 L 674.817, 750.211 L 671.26, 755.012 L 660.236, 770.305 L 652.767, 780.618 L 635.163, 773.327 z "/>
<path style="fill:rgb(0, 255, 0);fill-opacity:0;fill-rule:evenodd;stroke:rgb(255, 41, 0);stroke-width:1;" d="M 100.289, 494.154 L 103.312, 489.887 L 105.979, 491.131 L 106.513, 490.42 L 106.335, 488.642 L 106.513, 487.575 L 107.046, 485.797 L 107.579, 485.086 L 108.291, 484.196 L 109.713, 482.952 L 110.78, 482.24 L 112.736, 481.351 L 115.937, 477.084 L 111.314, 475.306 L 130.162, 449.522 L 144.032, 455.39 L 112.914, 497.888 L 112.203, 499.133 L 100.289, 494.154 z "/>
<path style="fill:rgb(0, 0, 255);fill-opacity:0;fill-rule:evenodd;stroke:rgb(255, 41, 0);stroke-width:1;" d="M 215.515, 301.578 L 237.03, 272.06 L 245.032, 275.439 L 247.344, 272.238 L 246.633, 271.705 L 245.921, 270.46 L 245.743, 269.038 L 245.921, 268.326 L 246.099, 267.615 L 250.189, 262.103 L 260.325, 266.37 L 258.902, 268.326 L 230.273, 307.802 L 215.515, 301.578 z "/>
<path style="fill:rgb(255, 255, 0);fill-opacity:0;fill-rule:evenodd;stroke:rgb(255, 41, 0);stroke-width:1;" d="M 387.82, 81.0847 L 388.531, 79.84 L 418.582, 38.2307 L 425.339, 40.898 L 426.228, 41.2536 L 418.048, 52.8117 L 424.806, 55.6568 L 402.223, 86.9527 L 387.82, 81.0847 z "/>
<path style="fill:rgb(255, 0, 0);fill-opacity:0;fill-rule:evenodd;stroke:rgb(255, 41, 0);stroke-width:1;" d="M 664.681, 346.21 L 692.421, 308.157 L 706.468, 314.025 L 695.443, 329.14 L 678.729, 352.078 L 664.681, 346.21 z "/>
<path style="fill:rgb(0, 255, 0);fill-opacity:0;fill-rule:evenodd;stroke:rgb(255, 41, 0);stroke-width:1;" d="M 522.605, 285.219 L 542.698, 257.835 L 546.966, 257.302 L 562.08, 263.703 L 540.742, 292.865 L 522.605, 285.219 z "/>
<path style="fill:rgb(0, 0, 255);fill-opacity:0;fill-rule:evenodd;stroke:rgb(255, 41, 0);stroke-width:1;" d="M 330.918, 148.477 L 361.147, 107.224 L 375.55, 113.27 L 356.524, 139.231 L 352.79, 137.631 L 344.61, 148.833 L 341.943, 147.766 L 339.098, 151.856 L 330.918, 148.477 z "/>
<path style="fill:rgb(255, 255, 0);fill-opacity:0;fill-rule:evenodd;stroke:rgb(255, 41, 0);stroke-width:1;" d="M 291.087, 274.728 L 317.937, 237.92 L 331.985, 243.788 L 311.358, 272.238 L 305.134, 280.596 L 291.087, 274.728 z "/>
<path style="fill:rgb(255, 0, 0);fill-opacity:0;fill-rule:evenodd;stroke:rgb(255, 41, 0);stroke-width:1;" d="M 162.703, 429.607 L 192.398, 389.064 L 202.712, 393.332 L 192.22, 407.557 L 195.955, 409.158 L 176.573, 435.475 L 162.703, 429.607 z "/>
<path style="fill:rgb(0, 255, 0);fill-opacity:0;fill-rule:evenodd;stroke:rgb(255, 41, 0);stroke-width:1;" d="M 435.297, 102.245 L 436.186, 101.178 L 451.122, 80.3734 L 457.168, 72.016 L 462.681, 74.1498 L 469.793, 64.3699 L 478.329, 68.104 L 449.522, 108.113 L 435.297, 102.245 z "/>
<path style="fill:rgb(0, 0, 255);fill-opacity:0;fill-rule:evenodd;stroke:rgb(255, 41, 0);stroke-width:1;" d="M 257.835, 74.1498 L 265.303, 63.8364 L 314.737, 84.8188 L 307.268, 95.1323 L 282.374, 84.4632 L 257.835, 74.1498 z "/>
<path style="fill:rgb(255, 255, 0);fill-opacity:0;fill-rule:evenodd;stroke:rgb(255, 41, 0);stroke-width:1;" d="M 416.092, 479.573 L 425.339, 466.415 L 446.855, 436.719 L 448.1, 434.763 L 459.48, 439.564 L 456.813, 443.476 L 439.209, 468.015 L 427.651, 484.196 L 418.582, 480.64 L 416.092, 479.573 z "/>
<path style="fill:rgb(255, 0, 0);fill-opacity:0;fill-rule:evenodd;stroke:rgb(255, 41, 0);stroke-width:1;" d="M 754.657, 66.8593 L 783.463, 27.3839 L 791.109, 30.5846 L 786.486, 36.8082 L 789.864, 38.2307 L 783.107, 47.4772 L 787.197, 49.2554 L 769.771, 73.0829 L 754.657, 66.8593 z "/>
<path style="fill:rgb(0, 255, 0);fill-opacity:0;fill-rule:evenodd;stroke:rgb(255, 41, 0);stroke-width:1;" d="M 181.018, 379.996 L 183.152, 377.15 L 211.247, 338.742 L 223.516, 343.899 L 205.557, 368.26 L 193.287, 385.152 L 184.574, 381.596 L 181.018, 379.996 z "/>
<path style="fill:rgb(0, 0, 255);fill-opacity:0;fill-rule:evenodd;stroke:rgb(255, 41, 0);stroke-width:1;" d="M 890.509, 736.697 L 897.088, 727.273 L 950.789, 749.322 L 944.743, 757.679 L 944.032, 758.746 L 890.509, 736.697 z "/>
<path style="fill:rgb(255, 255, 0);fill-opacity:0;fill-rule:evenodd;stroke:rgb(255, 41, 0);stroke-width:1;" d="M 355.812, 598.889 L 357.591, 596.755 L 361.68, 598.355 L 368.082, 589.642 L 360.613, 586.441 L 362.925, 583.063 L 382.663, 556.035 L 396.533, 561.903 L 394.399, 564.926 L 368.615, 600.133 L 367.904, 601.2 L 367.193, 600.845 L 365.592, 602.978 L 355.812, 598.889 z "/>
<path style="fill:rgb(255, 0, 0);fill-opacity:0;fill-rule:evenodd;stroke:rgb(255, 41, 0);stroke-width:1;" d="M 174.972, 362.392 L 196.666, 332.518 L 211.247, 338.742 L 183.152, 377.15 L 176.039, 374.305 L 182.441, 365.592 L 174.972, 362.392 z "/>
<path style="fill:rgb(0, 255, 0);fill-opacity:0;fill-rule:evenodd;stroke:rgb(255, 41, 0);stroke-width:1;" d="M 967.326, 473.883 L 976.928, 460.725 L 977.817, 461.08 L 986.886, 448.455 L 986.175, 448.1 L 992.576, 439.387 L 999.867, 442.409 L 1003.42, 437.431 L 1006.45, 438.853 L 1009.47, 434.763 L 1012.49, 436.008 L 980.662, 479.573 L 967.326, 473.883 z "/>
<path style="fill:rgb(0, 0, 255);fill-opacity:0;fill-rule:evenodd;stroke:rgb(255, 41, 0);stroke-width:1;" d="M 720.16, 585.375 L 728.162, 574.705 L 738.12, 561.014 L 758.213, 569.549 L 740.076, 594.088 L 720.16, 585.375 z "/>
<path style="fill:rgb(255, 255, 0);fill-opacity:0;fill-rule:evenodd;stroke:rgb(255, 41, 0);stroke-width:1;" d="M 449.522, 108.113 L 478.329, 68.104 L 480.996, 64.3699 L 487.931, 67.2149 L 480.285, 77.884 L 477.617, 77.884 L 476.55, 79.3065 L 485.263, 83.0407 L 476.195, 95.6657 L 474.061, 94.7766 L 468.726, 102.067 L 471.038, 102.956 L 463.214, 113.803 L 449.522, 108.113 z "/>
<path style="fill:rgb(255, 0, 0);fill-opacity:0;fill-rule:evenodd;stroke:rgb(255, 41, 0);stroke-width:1;" d="M 481.529, 489.887 L 501.267, 462.325 L 519.049, 469.615 L 499.311, 497.177 L 481.529, 489.887 z "/>
<path style="fill:rgb(0, 255, 0);fill-opacity:0;fill-rule:evenodd;stroke:rgb(255, 41, 0);stroke-width:1;" d="M 897.088, 727.273 L 903.667, 718.026 L 921.805, 725.495 L 957.368, 740.076 L 950.789, 749.322 L 897.088, 727.273 z "/>
<path style="fill:rgb(0, 0, 255);fill-opacity:0;fill-rule:evenodd;stroke:rgb(255, 41, 0);stroke-width:1;" d="M 276.862, 690.998 L 292.865, 669.304 L 315.092, 678.729 L 299.089, 700.422 L 276.862, 690.998 z "/>
<path style="fill:rgb(255, 255, 0);fill-opacity:0;fill-rule:evenodd;stroke:rgb(255, 41, 0);stroke-width:1;" d="M 292.865, 427.295 L 324.517, 383.908 L 335.719, 388.709 L 303.89, 431.918 L 292.865, 427.295 z "/>
<path style="fill:rgb(255, 0, 0);fill-opacity:0;fill-rule:evenodd;stroke:rgb(255, 41, 0);stroke-width:1;" d="M 452.545, 159.502 L 460.725, 148.3 L 464.103, 147.944 L 500.2, 163.236 L 491.131, 175.861 L 489.353, 174.972 L 458.591, 161.992 L 452.545, 159.502 z "/>
<path style="fill:rgb(0, 255, 0);fill-opacity:0;fill-rule:evenodd;stroke:rgb(255, 41, 0);stroke-width:1;" d="M 402.223, 86.9527 L 424.806, 55.6568 L 426.584, 53.1674 L 440.809, 59.0353 L 416.448, 92.9984 L 402.223, 86.9527 z "/>
<path style="fill:rgb(0, 0, 255);fill-opacity:0;fill-rule:evenodd;stroke:rgb(255, 41, 0);stroke-width:1;" d="M 297.133, 723.539 L 328.251, 681.574 L 328.962, 680.685 L 339.987, 685.308 L 312.603, 722.472 L 308.335, 728.34 L 297.133, 723.539 z "/>
<path style="fill:rgb(255, 255, 0);fill-opacity:0;fill-rule:evenodd;stroke:rgb(255, 41, 0);stroke-width:1;" d="M 317.048, 290.02 L 319.36, 286.641 L 346.21, 249.655 L 359.369, 255.168 L 336.253, 286.997 L 330.207, 284.508 L 324.161, 293.043 L 317.048, 290.02 z "/>
<path style="fill:rgb(255, 0, 0);fill-opacity:0;fill-rule:evenodd;stroke:rgb(255, 41, 0);stroke-width:1;" d="M 218.893, 248.233 L 247.699, 208.402 L 261.569, 214.27 L 242.365, 240.587 L 237.03, 238.453 L 227.428, 251.789 L 218.893, 248.233 z "/>
<path style="fill:rgb(0, 255, 0);fill-opacity:0;fill-rule:evenodd;stroke:rgb(255, 41, 0);stroke-width:1;" d="M 288.064, 331.985 L 307.268, 305.49 L 310.469, 306.913 L 320.071, 293.754 L 328.784, 297.311 L 329.851, 297.844 L 301.045, 337.497 L 288.064, 331.985 z "/>
<path style="fill:rgb(0, 0, 255);fill-opacity:0;fill-rule:evenodd;stroke:rgb(255, 41, 0);stroke-width:1;" d="M 282.907, 260.325 L 303.534, 231.874 L 317.937, 237.92 L 291.087, 274.728 L 283.619, 271.527 L 289.664, 263.17 L 282.907, 260.325 z "/>
<path style="fill:rgb(255, 255, 0);fill-opacity:0;fill-rule:evenodd;stroke:rgb(255, 41, 0);stroke-width:1;" d="M 419.293, 179.062 L 423.383, 173.55 L 426.406, 174.794 L 434.941, 178.351 L 476.373, 195.955 L 468.371, 206.802 L 438.853, 194.354 L 435.652, 192.932 L 439.564, 187.597 L 419.293, 179.062 z "/>
<path style="fill:rgb(255, 0, 0);fill-opacity:0;fill-rule:evenodd;stroke:rgb(255, 41, 0);stroke-width:1;" d="M 311.358, 272.238 L 331.985, 243.788 L 346.21, 249.655 L 319.36, 286.641 L 311.714, 283.441 L 317.937, 274.906 L 311.358, 272.238 z "/>
<path style="fill:rgb(0, 255, 0);fill-opacity:0;fill-rule:evenodd;stroke:rgb(255, 41, 0);stroke-width:1;" d="M 154.701, 365.059 L 182.796, 326.65 L 196.666, 332.518 L 174.972, 362.392 L 167.148, 359.013 L 160.747, 367.726 L 154.701, 365.059 z "/>
<path style="fill:rgb(0, 0, 255);fill-opacity:0;fill-rule:evenodd;stroke:rgb(255, 41, 0);stroke-width:1;" d="M 494.154, 566.348 L 514.959, 537.364 L 526.873, 520.471 L 535.586, 524.028 L 519.938, 545.721 L 522.783, 546.966 L 505.535, 571.149 L 494.154, 566.348 z "/>
<path style="fill:rgb(255, 255, 0);fill-opacity:0;fill-rule:evenodd;stroke:rgb(255, 41, 0);stroke-width:1;" d="M 494.51, 84.1076 L 498.244, 78.9509 L 509.98, 83.9298 L 514.07, 78.2396 L 517.626, 79.6621 L 551.234, 93.7097 L 543.587, 104.557 L 494.51, 84.1076 z "/>
<path style="fill:rgb(255, 0, 0);fill-opacity:0;fill-rule:evenodd;stroke:rgb(255, 41, 0);stroke-width:1;" d="M 570.971, 692.421 L 578.617, 681.752 L 590.709, 686.73 L 594.088, 682.107 L 602.978, 685.663 L 599.778, 690.109 L 617.382, 697.399 L 609.38, 708.602 L 570.971, 692.421 z "/>
<path style="fill:rgb(0, 255, 0);fill-opacity:0;fill-rule:evenodd;stroke:rgb(255, 41, 0);stroke-width:1;" d="M 248.944, 256.59 L 275.439, 219.96 L 289.664, 226.006 L 269.038, 254.457 L 261.747, 251.434 L 255.879, 259.613 L 248.944, 256.59 z "/>
<path style="fill:rgb(0, 0, 255);fill-opacity:0;fill-rule:evenodd;stroke:rgb(255, 41, 0);stroke-width:1;" d="M 230.807, 437.431 L 235.074, 431.385 L 288.064, 453.79 L 280.596, 463.925 L 247.166, 449.7 L 250.189, 445.61 L 230.807, 437.431 z "/>
<path style="fill:rgb(255, 255, 0);fill-opacity:0;fill-rule:evenodd;stroke:rgb(255, 41, 0);stroke-width:1;" d="M 759.28, 602.089 L 777.239, 577.551 L 795.91, 585.552 L 785.419, 599.956 L 784.886, 599.778 L 777.417, 609.913 L 759.28, 602.089 z "/>
<path style="fill:rgb(255, 0, 0);fill-opacity:0;fill-rule:evenodd;stroke:rgb(255, 41, 0);stroke-width:1;" d="M 479.751, 104.557 L 484.019, 98.5108 L 495.932, 103.49 L 498.955, 99.0442 L 536.297, 114.692 L 528.829, 125.006 L 479.751, 104.557 z "/>
<path style="fill:rgb(0, 255, 0);fill-opacity:0;fill-rule:evenodd;stroke:rgb(255, 41, 0);stroke-width:1;" d="M 241.298, 242.009 L 242.365, 240.587 L 261.569, 214.27 L 275.439, 219.96 L 248.944, 256.59 L 241.654, 253.567 L 248.055, 244.854 L 241.298, 242.009 z "/>
<path style="fill:rgb(0, 0, 255);fill-opacity:0;fill-rule:evenodd;stroke:rgb(255, 41, 0);stroke-width:1;" d="M 687.086, 139.409 L 712.336, 105.09 L 725.317, 110.425 L 702.734, 141.365 L 700.067, 144.921 L 687.086, 139.409 z "/>
<path style="fill:rgb(255, 255, 0);fill-opacity:0;fill-rule:evenodd;stroke:rgb(255, 41, 0);stroke-width:1;" d="M 176.573, 435.475 L 195.955, 409.158 L 197.199, 407.557 L 201.467, 409.335 L 211.603, 395.466 L 219.604, 398.666 L 213.381, 407.202 L 210.891, 405.957 L 208.758, 408.98 L 209.824, 409.335 L 207.868, 412.18 L 209.469, 412.714 L 190.62, 438.497 L 189.02, 440.809 L 176.573, 435.475 z "/>
<path style="fill:rgb(255, 0, 0);fill-opacity:0;fill-rule:evenodd;stroke:rgb(255, 41, 0);stroke-width:1;" d="M 263.17, 262.636 L 269.038, 254.457 L 289.664, 226.006 L 303.534, 231.874 L 282.907, 260.325 L 275.261, 256.946 L 269.215, 265.126 L 263.17, 262.636 z "/>
<path style="fill:rgb(0, 255, 0);fill-opacity:0;fill-rule:evenodd;stroke:rgb(255, 41, 0);stroke-width:1;" d="M 517.626, 79.6621 L 527.228, 66.5037 L 533.808, 69.1709 L 550.7, 76.2836 L 560.836, 80.5512 L 551.234, 93.7097 L 517.626, 79.6621 z "/>
<path style="fill:rgb(0, 0, 255);fill-opacity:0;fill-rule:evenodd;stroke:rgb(255, 41, 0);stroke-width:1;" d="M 230.273, 307.802 L 258.902, 268.326 L 266.726, 271.527 L 264.059, 275.439 L 264.236, 279.351 L 261.391, 283.263 L 257.302, 284.508 L 261.747, 286.286 L 242.543, 312.958 L 230.273, 307.802 z "/>
<path style="fill:rgb(255, 255, 0);fill-opacity:0;fill-rule:evenodd;stroke:rgb(255, 41, 0);stroke-width:1;" d="M 634.452, 185.997 L 650.989, 163.592 L 652.767, 164.303 L 656.501, 159.324 L 655.435, 158.969 L 662.725, 148.833 L 672.149, 152.923 L 667.882, 158.613 L 667.348, 158.435 L 664.859, 161.636 L 667.704, 162.881 L 658.991, 174.794 L 658.457, 174.439 L 655.435, 178.529 L 657.568, 179.418 L 657.035, 180.129 L 648.5, 191.865 L 634.452, 185.997 z "/>
<path style="fill:rgb(255, 0, 0);fill-opacity:0;fill-rule:evenodd;stroke:rgb(255, 41, 0);stroke-width:1;" d="M 459.48, 551.411 L 477.795, 525.806 L 483.13, 518.337 L 487.575, 520.293 L 490.242, 516.559 L 498.244, 519.938 L 490.242, 530.962 L 471.927, 556.568 L 459.48, 551.411 z "/>
<path style="fill:rgb(0, 255, 0);fill-opacity:0;fill-rule:evenodd;stroke:rgb(255, 41, 0);stroke-width:1;" d="M 214.448, 394.754 L 222.449, 383.73 L 246.455, 350.834 L 257.835, 355.635 L 237.742, 383.018 L 233.296, 389.064 L 227.784, 386.753 L 220.138, 397.244 L 214.448, 394.754 z "/>
<path style="fill:rgb(0, 0, 255);fill-opacity:0;fill-rule:evenodd;stroke:rgb(255, 41, 0);stroke-width:1;" d="M 490.776, 89.2643 L 494.51, 84.1076 L 543.587, 104.557 L 536.297, 114.692 L 498.955, 99.0442 L 502.512, 94.2432 L 490.776, 89.2643 z "/>
<path style="fill:rgb(255, 255, 0);fill-opacity:0;fill-rule:evenodd;stroke:rgb(255, 41, 0);stroke-width:1;" d="M 143.321, 230.807 L 150.789, 220.493 L 183.685, 234.363 L 206.09, 243.788 L 204.312, 246.277 L 205.201, 246.633 L 203.245, 249.3 L 202.534, 248.944 L 201.823, 250.011 L 172.127, 237.564 L 171.594, 238.453 L 166.437, 236.497 L 164.303, 239.52 L 143.321, 230.807 z "/>
<path style="fill:rgb(255, 0, 0);fill-opacity:0;fill-rule:evenodd;stroke:rgb(255, 41, 0);stroke-width:1;" d="M 211.958, 644.054 L 219.427, 633.919 L 262.103, 652.056 L 260.147, 654.545 L 254.634, 662.192 L 211.958, 644.054 z "/>
<path style="fill:rgb(0, 255, 0);fill-opacity:0;fill-rule:evenodd;stroke:rgb(255, 41, 0);stroke-width:1;" d="M 112.914, 497.888 L 144.032, 455.39 L 155.234, 460.191 L 153.456, 462.681 L 134.43, 488.82 L 130.518, 494.154 L 125.183, 491.843 L 118.96, 500.378 L 112.914, 497.888 z "/>
<path style="fill:rgb(0, 0, 255);fill-opacity:0;fill-rule:evenodd;stroke:rgb(255, 41, 0);stroke-width:1;" d="M 417.515, 680.685 L 443.476, 644.943 L 447.033, 640.142 L 457.702, 644.766 L 447.388, 658.635 L 428.006, 685.13 L 417.515, 680.685 z "/>
<path style="fill:rgb(255, 255, 0);fill-opacity:0;fill-rule:evenodd;stroke:rgb(255, 41, 0);stroke-width:1;" d="M 233.296, 395.999 L 241.654, 384.619 L 237.742, 383.018 L 257.835, 355.635 L 269.749, 360.791 L 241.476, 399.555 L 233.296, 395.999 z "/>
<path style="fill:rgb(255, 0, 0);fill-opacity:0;fill-rule:evenodd;stroke:rgb(255, 41, 0);stroke-width:1;" d="M 253.745, 317.582 L 276.506, 286.286 L 282.729, 277.573 L 290.376, 280.774 L 286.108, 286.641 L 284.33, 285.93 L 278.818, 293.576 L 285.397, 296.244 L 266.015, 322.916 L 253.745, 317.582 z "/>
<path style="fill:rgb(0, 255, 0);fill-opacity:0;fill-rule:evenodd;stroke:rgb(255, 41, 0);stroke-width:1;" d="M 290.731, 718.382 L 302.289, 702.734 L 298.555, 700.956 L 299.089, 700.422 L 315.092, 678.729 L 316.515, 676.595 L 328.251, 681.574 L 297.133, 723.539 L 292.687, 721.583 L 293.932, 719.804 L 290.731, 718.382 z "/>
<path style="fill:rgb(0, 0, 255);fill-opacity:0;fill-rule:evenodd;stroke:rgb(255, 41, 0);stroke-width:1;" d="M 325.939, 730.651 L 334.297, 719.271 L 330.74, 717.671 L 350.478, 690.998 L 351.723, 690.998 L 354.39, 691.176 L 356.701, 691.887 L 357.946, 692.243 L 360.436, 693.843 L 362.214, 695.977 L 340.342, 725.317 L 333.941, 734.03 L 325.939, 730.651 z "/>
<path style="fill:rgb(255, 255, 0);fill-opacity:0;fill-rule:evenodd;stroke:rgb(255, 41, 0);stroke-width:1;" d="M 740.787, 170.171 L 746.833, 161.992 L 745.588, 161.458 L 752.523, 152.034 L 750.922, 151.323 L 756.79, 143.321 L 767.637, 128.384 L 778.84, 133.185 L 751.456, 170.527 L 748.966, 173.727 L 740.787, 170.171 z "/>
<path style="fill:rgb(255, 0, 0);fill-opacity:0;fill-rule:evenodd;stroke:rgb(255, 41, 0);stroke-width:1;" d="M 236.675, 460.369 L 244.143, 450.233 L 245.032, 448.811 L 247.166, 449.7 L 280.596, 463.925 L 272.06, 475.483 L 236.675, 460.369 z "/>
<path style="fill:rgb(0, 255, 0);fill-opacity:0;fill-rule:evenodd;stroke:rgb(255, 41, 0);stroke-width:1;" d="M 125.895, 757.146 L 134.252, 745.588 L 169.816, 760.702 L 161.458, 772.261 L 155.234, 769.593 L 127.317, 757.679 L 125.895, 757.146 z "/>
<path style="fill:rgb(0, 0, 255);fill-opacity:0;fill-rule:evenodd;stroke:rgb(255, 41, 0);stroke-width:1;" d="M 88.9086, 546.255 L 115.403, 509.802 L 126.606, 514.603 L 122.694, 519.938 L 100.111, 550.878 L 88.9086, 546.255 z "/>
<path style="fill:rgb(255, 255, 0);fill-opacity:0;fill-rule:evenodd;stroke:rgb(255, 41, 0);stroke-width:1;" d="M 368.615, 600.133 L 394.399, 564.926 L 405.779, 569.727 L 388.531, 593.376 L 380.173, 605.112 L 368.615, 600.133 z "/>
<path style="fill:rgb(255, 0, 0);fill-opacity:0;fill-rule:evenodd;stroke:rgb(255, 41, 0);stroke-width:1;" d="M 346.21, 580.573 L 366.837, 552.301 L 368.437, 550.167 L 382.663, 556.035 L 362.925, 583.063 L 355.101, 579.684 L 352.612, 583.241 L 346.21, 580.573 z "/>
<path style="fill:rgb(0, 255, 0);fill-opacity:0;fill-rule:evenodd;stroke:rgb(255, 41, 0);stroke-width:1;" d="M 360.969, 154.879 L 368.615, 144.388 L 387.642, 118.426 L 389.242, 116.293 L 399.555, 120.738 L 373.238, 156.657 L 371.283, 159.146 L 360.969, 154.879 z "/>
<path style="fill:rgb(0, 0, 255);fill-opacity:0;fill-rule:evenodd;stroke:rgb(255, 41, 0);stroke-width:1;" d="M 398.844, 155.768 L 417.515, 130.34 L 431.918, 136.386 L 409.335, 167.148 L 405.779, 165.726 L 404.534, 162.881 L 407.202, 159.324 L 398.844, 155.768 z "/>
<path style="fill:rgb(255, 255, 0);fill-opacity:0;fill-rule:evenodd;stroke:rgb(255, 41, 0);stroke-width:1;" d="M 134.43, 488.82 L 153.456, 462.681 L 168.393, 468.904 L 160.036, 480.285 L 149.367, 495.043 L 134.43, 488.82 z "/>
<path style="fill:rgb(255, 0, 0);fill-opacity:0;fill-rule:evenodd;stroke:rgb(255, 41, 0);stroke-width:1;" d="M 77.3505, 541.454 L 95.4879, 516.559 L 99.5777, 518.337 L 110.247, 503.756 L 117.537, 506.779 L 115.403, 509.802 L 88.9086, 546.255 L 77.3505, 541.454 z "/>
<path style="fill:rgb(0, 255, 0);fill-opacity:0;fill-rule:evenodd;stroke:rgb(255, 41, 0);stroke-width:1;" d="M 323.983, 200.4 L 341.943, 175.683 L 354.212, 158.791 L 363.636, 162.881 L 355.279, 174.261 L 333.23, 204.312 L 323.983, 200.4 z "/>
<path style="fill:rgb(0, 0, 255);fill-opacity:0;fill-rule:evenodd;stroke:rgb(255, 41, 0);stroke-width:1;" d="M 891.932, 251.256 L 899.756, 240.587 L 925.006, 251.256 L 935.497, 255.523 L 929.629, 263.525 L 927.673, 266.37 L 891.932, 251.256 z "/>
<path style="fill:rgb(255, 255, 0);fill-opacity:0;fill-rule:evenodd;stroke:rgb(255, 41, 0);stroke-width:1;" d="M 66.148, 536.653 L 66.8593, 535.941 L 86.0636, 509.447 L 94.9544, 497.177 L 102.601, 500.378 L 93.3541, 512.825 L 91.2203, 513.359 L 90.3312, 514.425 L 95.4879, 516.559 L 77.3505, 541.454 L 66.148, 536.653 z "/>
<path style="fill:rgb(255, 0, 0);fill-opacity:0;fill-rule:evenodd;stroke:rgb(255, 41, 0);stroke-width:1;" d="M 991.687, 701.134 L 991.687, 697.577 L 993.11, 694.377 L 995.777, 691.531 L 999.511, 689.575 L 1003.96, 688.509 L 1008.58, 688.509 L 1012.85, 689.575 L 1016.58, 691.531 L 1019.25, 694.377 L 1020.67, 697.577 L 1020.67, 701.134 L 1019.25, 704.334 L 1016.58, 707.179 L 1012.85, 709.313 L 1008.58, 710.38 L 1003.96, 710.38 L 999.511, 709.313 L 995.777, 707.179 L 993.11, 704.512 L 991.687, 701.134 z "/>
<path style="fill:rgb(0, 255, 0);fill-opacity:0;fill-rule:evenodd;stroke:rgb(255, 41, 0);stroke-width:1;" d="M 396.71, 671.972 L 426.406, 631.251 L 434.23, 634.63 L 432.985, 636.408 L 434.052, 636.764 L 432.096, 639.431 L 431.029, 638.898 L 429.784, 640.676 L 428.006, 639.964 L 423.205, 646.544 L 420.538, 647.433 L 426.762, 650.1 L 407.379, 676.417 L 396.71, 671.972 z "/>
<path style="fill:rgb(0, 0, 255);fill-opacity:0;fill-rule:evenodd;stroke:rgb(255, 41, 0);stroke-width:1;" d="M 374.661, 662.725 L 402.045, 625.028 L 408.98, 627.873 L 400.8, 639.075 L 405.423, 641.031 L 386.219, 667.526 L 374.661, 662.725 z "/>
<path style="fill:rgb(255, 255, 0);fill-opacity:0;fill-rule:evenodd;stroke:rgb(255, 41, 0);stroke-width:1;" d="M 208.224, 448.455 L 209.647, 446.499 L 229.206, 419.827 L 233.652, 413.781 L 244.677, 418.404 L 243.076, 420.716 L 235.074, 431.385 L 230.807, 437.431 L 226.717, 442.943 L 219.249, 453.078 L 208.224, 448.455 z "/>
<path style="fill:rgb(255, 0, 0);fill-opacity:0;fill-rule:evenodd;stroke:rgb(255, 41, 0);stroke-width:1;" d="M 363.103, 657.746 L 381.596, 632.496 L 382.663, 631.074 L 389.42, 633.919 L 389.064, 631.251 L 395.643, 622.361 L 402.045, 625.028 L 374.661, 662.725 L 363.103, 657.746 z "/>
<path style="fill:rgb(0, 255, 0);fill-opacity:0;fill-rule:evenodd;stroke:rgb(255, 41, 0);stroke-width:1;" d="M 312.603, 722.472 L 339.987, 685.308 L 351.189, 690.109 L 350.478, 690.998 L 330.74, 717.671 L 326.828, 715.892 L 319.715, 725.672 L 312.603, 722.472 z "/>
<path style="fill:rgb(0, 0, 255);fill-opacity:0;fill-rule:evenodd;stroke:rgb(255, 41, 0);stroke-width:1;" d="M 79.1287, 686.73 L 102.956, 654.368 L 114.514, 659.347 L 108.113, 668.06 L 90.6868, 691.709 L 79.1287, 686.73 z "/>
<path style="fill:rgb(255, 255, 0);fill-opacity:0;fill-rule:evenodd;stroke:rgb(255, 41, 0);stroke-width:1;" d="M 386.219, 667.526 L 405.423, 641.031 L 410.58, 643.165 L 416.27, 635.341 L 413.959, 634.452 L 414.136, 633.385 L 414.848, 631.607 L 416.092, 630.007 L 416.804, 629.295 L 418.582, 628.051 L 426.406, 631.251 L 396.71, 671.972 L 386.219, 667.526 z "/>
<path style="fill:rgb(255, 0, 0);fill-opacity:0;fill-rule:evenodd;stroke:rgb(255, 41, 0);stroke-width:1;" d="M 199.511, 660.769 L 205.912, 652.056 L 248.589, 670.371 L 242.187, 679.084 L 233.296, 675.172 L 199.511, 660.769 z "/>
<path style="fill:rgb(0, 255, 0);fill-opacity:0;fill-rule:evenodd;stroke:rgb(255, 41, 0);stroke-width:1;" d="M 235.608, 687.797 L 242.187, 679.084 L 248.589, 670.371 L 254.634, 662.192 L 260.147, 654.545 L 271.171, 659.347 L 251.434, 686.019 L 246.633, 692.421 L 235.608, 687.797 z "/>
<path style="fill:rgb(0, 0, 255);fill-opacity:0;fill-rule:evenodd;stroke:rgb(255, 41, 0);stroke-width:1;" d="M 540.209, 293.576 L 540.742, 292.865 L 562.08, 263.703 L 562.792, 262.636 L 574.705, 267.793 L 552.123, 298.555 L 540.209, 293.576 z "/>
<path style="fill:rgb(255, 255, 0);fill-opacity:0;fill-rule:evenodd;stroke:rgb(255, 41, 0);stroke-width:1;" d="M 211.247, 379.106 L 235.43, 346.21 L 246.455, 350.834 L 222.449, 383.73 L 211.247, 379.106 z "/>
<path style="fill:rgb(255, 0, 0);fill-opacity:0;fill-rule:evenodd;stroke:rgb(255, 41, 0);stroke-width:1;" d="M 36.0969, 670.016 L 58.3241, 639.964 L 65.6146, 630.007 L 71.1269, 632.318 L 62.5917, 643.876 L 59.391, 645.121 L 66.6815, 648.144 L 46.9438, 674.639 L 36.0969, 670.016 z "/>
<path style="fill:rgb(0, 255, 0);fill-opacity:0;fill-rule:evenodd;stroke:rgb(255, 41, 0);stroke-width:1;" d="M 52.9896, 530.073 L 72.1938, 503.756 L 86.0636, 509.447 L 66.8593, 535.941 L 52.9896, 530.073 z "/>
<path style="fill:rgb(0, 0, 255);fill-opacity:0;fill-rule:evenodd;stroke:rgb(255, 41, 0);stroke-width:1;" d="M 72.3716, 620.582 L 81.0847, 608.846 L 75.928, 606.535 L 92.6428, 583.952 L 94.421, 581.64 L 105.801, 586.441 L 80.1956, 621.116 L 78.5952, 623.25 L 72.3716, 620.582 z "/>
<path style="fill:rgb(255, 255, 0);fill-opacity:0;fill-rule:evenodd;stroke:rgb(255, 41, 0);stroke-width:1;" d="M 390.131, 608.846 L 415.559, 573.816 L 416.448, 572.749 L 427.295, 577.373 L 409.158, 602.267 L 406.313, 601.022 L 397.955, 612.225 L 390.131, 608.846 z "/>
<path style="fill:rgb(255, 0, 0);fill-opacity:0;fill-rule:evenodd;stroke:rgb(255, 41, 0);stroke-width:1;" d="M 751.456, 170.527 L 778.84, 133.185 L 789.864, 137.808 L 772.972, 160.569 L 766.215, 157.724 L 763.192, 161.814 L 768.171, 163.948 L 764.614, 168.926 L 763.903, 168.749 L 762.303, 170.705 L 760.702, 169.993 L 758.213, 173.372 L 751.456, 170.527 z "/>
<path style="fill:rgb(0, 255, 0);fill-opacity:0;fill-rule:evenodd;stroke:rgb(255, 41, 0);stroke-width:1;" d="M 340.342, 725.317 L 362.214, 695.977 L 374.128, 700.956 L 362.925, 716.248 L 352.256, 730.473 L 340.342, 725.317 z "/>
<path style="fill:rgb(0, 0, 255);fill-opacity:0;fill-rule:evenodd;stroke:rgb(255, 41, 0);stroke-width:1;" d="M 280.062, 771.194 L 282.907, 767.282 L 300.867, 743.098 L 306.379, 735.63 L 314.203, 739.009 L 312.247, 741.676 L 312.958, 744.877 L 307.802, 751.812 L 290.198, 775.461 L 280.062, 771.194 z "/>
<path style="fill:rgb(255, 255, 0);fill-opacity:0;fill-rule:evenodd;stroke:rgb(255, 41, 0);stroke-width:1;" d="M 54.7677, 613.47 L 60.2801, 606.001 L 80.3734, 578.795 L 92.6428, 583.952 L 75.928, 606.535 L 69.8822, 604.045 L 60.9913, 616.137 L 54.7677, 613.47 z "/>
<path style="fill:rgb(255, 0, 0);fill-opacity:0;fill-rule:evenodd;stroke:rgb(255, 41, 0);stroke-width:1;" d="M 446.677, 478.329 L 468.371, 448.277 L 480.107, 453.078 L 458.591, 483.307 L 446.677, 478.329 z "/>
<path style="fill:rgb(0, 255, 0);fill-opacity:0;fill-rule:evenodd;stroke:rgb(255, 41, 0);stroke-width:1;" d="M 205.912, 652.056 L 211.958, 644.054 L 254.634, 662.192 L 248.589, 670.371 L 205.912, 652.056 z "/>
<path style="fill:rgb(0, 0, 255);fill-opacity:0;fill-rule:evenodd;stroke:rgb(255, 41, 0);stroke-width:1;" d="M 100.111, 550.878 L 122.694, 519.938 L 133.896, 524.739 L 129.273, 531.14 L 111.314, 555.679 L 100.111, 550.878 z "/>
<path style="fill:rgb(255, 255, 0);fill-opacity:0;fill-rule:evenodd;stroke:rgb(255, 41, 0);stroke-width:1;" d="M 266.015, 322.916 L 285.397, 296.244 L 290.02, 298.2 L 293.221, 293.932 L 294.999, 294.643 L 297.311, 291.443 L 302.289, 293.576 L 277.573, 327.717 L 266.015, 322.916 z "/>
<path style="fill:rgb(255, 0, 0);fill-opacity:0;fill-rule:evenodd;stroke:rgb(255, 41, 0);stroke-width:1;" d="M 50.5001, 596.399 L 67.5706, 573.283 L 69.3487, 570.971 L 82.1516, 576.484 L 80.3734, 578.795 L 60.2801, 606.001 L 54.9455, 603.868 L 58.1463, 599.6 L 50.5001, 596.399 z "/>
<path style="fill:rgb(0, 255, 0);fill-opacity:0;fill-rule:evenodd;stroke:rgb(255, 41, 0);stroke-width:1;" d="M 68.4597, 682.107 L 92.2872, 649.922 L 99.3999, 652.945 L 102.956, 654.368 L 79.1287, 686.73 L 68.4597, 682.107 z "/>
<path style="fill:rgb(0, 0, 255);fill-opacity:0;fill-rule:evenodd;stroke:rgb(255, 41, 0);stroke-width:1;" d="M 318.826, 639.075 L 337.675, 613.114 L 342.654, 606.357 L 352.256, 610.447 L 348.344, 615.781 L 343.01, 613.647 L 341.765, 615.603 L 348.522, 618.449 L 330.029, 643.876 L 318.826, 639.075 z "/>
<path style="fill:rgb(255, 255, 0);fill-opacity:0;fill-rule:evenodd;stroke:rgb(255, 41, 0);stroke-width:1;" d="M 199.867, 442.409 L 230.096, 401.156 L 236.319, 403.823 L 229.74, 412.714 L 228.495, 412.18 L 224.405, 417.693 L 229.206, 419.827 L 209.647, 446.499 L 199.867, 442.409 z "/>
<path style="fill:rgb(255, 0, 0);fill-opacity:0;fill-rule:evenodd;stroke:rgb(255, 41, 0);stroke-width:1;" d="M 339.275, 650.989 L 341.231, 648.5 L 359.724, 623.072 L 363.636, 617.737 L 369.327, 620.049 L 365.592, 625.206 L 371.105, 627.517 L 352.434, 653.301 L 350.478, 655.79 L 339.275, 650.989 z "/>
<path style="fill:rgb(0, 255, 0);fill-opacity:0;fill-rule:evenodd;stroke:rgb(255, 41, 0);stroke-width:1;" d="M 56.3681, 678.729 L 76.1058, 652.056 L 81.4403, 654.368 L 86.4192, 647.433 L 92.2872, 649.922 L 68.4597, 682.107 L 67.3928, 683.352 L 56.3681, 678.729 z "/>
<path style="fill:rgb(0, 0, 255);fill-opacity:0;fill-rule:evenodd;stroke:rgb(255, 41, 0);stroke-width:1;" d="M 352.434, 653.301 L 371.105, 627.517 L 379.818, 615.603 L 384.797, 617.737 L 375.728, 630.007 L 381.596, 632.496 L 363.103, 657.746 L 352.434, 653.301 z "/>
<path style="fill:rgb(255, 255, 0);fill-opacity:0;fill-rule:evenodd;stroke:rgb(255, 41, 0);stroke-width:1;" d="M 482.063, 562.97 L 483.307, 561.191 L 501.623, 535.764 L 503.756, 532.741 L 514.959, 537.364 L 494.154, 566.348 L 493.265, 567.593 L 482.063, 562.97 z "/>
<path style="fill:rgb(255, 0, 0);fill-opacity:0;fill-rule:evenodd;stroke:rgb(255, 41, 0);stroke-width:1;" d="M 306.913, 634.096 L 328.784, 603.868 L 334.652, 606.357 L 331.629, 610.625 L 337.675, 613.114 L 318.826, 639.075 L 306.913, 634.096 z "/>
<path style="fill:rgb(0, 255, 0);fill-opacity:0;fill-rule:evenodd;stroke:rgb(255, 41, 0);stroke-width:1;" d="M 690.998, 209.291 L 692.954, 206.979 L 708.068, 186.175 L 710.024, 186.886 L 718.204, 175.683 L 726.561, 179.24 L 701.311, 213.736 L 690.998, 209.291 z "/>
<path style="fill:rgb(0, 0, 255);fill-opacity:0;fill-rule:evenodd;stroke:rgb(255, 41, 0);stroke-width:1;" d="M 242.543, 312.958 L 261.747, 286.286 L 266.548, 288.42 L 269.927, 283.619 L 276.506, 286.286 L 253.745, 317.582 L 242.543, 312.958 z "/>
<path style="fill:rgb(255, 255, 0);fill-opacity:0;fill-rule:evenodd;stroke:rgb(255, 41, 0);stroke-width:1;" d="M 373.238, 156.657 L 399.555, 120.738 L 409.513, 125.006 L 408.269, 126.606 L 389.776, 151.856 L 386.397, 152.567 L 381.774, 150.611 L 383.196, 153.634 L 379.284, 159.146 L 373.238, 156.657 z "/>
<path style="fill:rgb(255, 0, 0);fill-opacity:0;fill-rule:evenodd;stroke:rgb(255, 41, 0);stroke-width:1;" d="M 360.08, 218.715 L 361.858, 216.404 L 379.818, 191.687 L 385.508, 184.041 L 394.932, 187.953 L 370.038, 221.738 L 369.504, 222.627 L 360.08, 218.715 z "/>
<path style="fill:rgb(0, 255, 0);fill-opacity:0;fill-rule:evenodd;stroke:rgb(255, 41, 0);stroke-width:1;" d="M 204.49, 296.955 L 226.006, 267.437 L 237.03, 272.06 L 215.515, 301.578 L 204.49, 296.955 z "/>
<path style="fill:rgb(0, 0, 255);fill-opacity:0;fill-rule:evenodd;stroke:rgb(255, 41, 0);stroke-width:1;" d="M 950.078, 397.244 L 957.546, 386.93 L 973.194, 365.415 L 974.617, 363.459 L 984.219, 367.548 L 959.68, 401.334 L 950.078, 397.244 z "/>
<path style="fill:rgb(255, 255, 0);fill-opacity:0;fill-rule:evenodd;stroke:rgb(255, 41, 0);stroke-width:1;" d="M 190.62, 438.497 L 209.469, 412.714 L 210.891, 410.936 L 214.981, 412.714 L 224.939, 399.022 L 230.096, 401.156 L 199.867, 442.409 L 190.62, 438.497 z "/>
<path style="fill:rgb(255, 0, 0);fill-opacity:0;fill-rule:evenodd;stroke:rgb(255, 41, 0);stroke-width:1;" d="M 897.088, 380.885 L 906.868, 367.371 L 906.513, 367.193 L 923.227, 344.254 L 933.007, 348.522 L 916.47, 371.46 L 912.914, 369.86 L 909.535, 374.661 L 910.958, 375.194 L 904.557, 384.085 L 897.088, 380.885 z "/>
<path style="fill:rgb(0, 255, 0);fill-opacity:0;fill-rule:evenodd;stroke:rgb(255, 41, 0);stroke-width:1;" d="M 99.3999, 695.266 L 116.826, 671.794 L 123.227, 663.081 L 130.162, 666.104 L 133.185, 667.348 L 109.18, 699.533 L 99.3999, 695.266 z "/>
<path style="fill:rgb(0, 0, 255);fill-opacity:0;fill-rule:evenodd;stroke:rgb(255, 41, 0);stroke-width:1;" d="M 190.442, 668.593 L 197.022, 659.702 L 199.511, 660.769 L 233.296, 675.172 L 226.895, 684.063 L 220.849, 681.396 L 208.402, 676.239 L 190.442, 668.593 z "/>
<path style="fill:rgb(255, 255, 0);fill-opacity:0;fill-rule:evenodd;stroke:rgb(255, 41, 0);stroke-width:1;" d="M 407.379, 676.417 L 426.762, 650.1 L 430.673, 651.7 L 437.431, 642.454 L 443.476, 644.943 L 417.515, 680.685 L 407.379, 676.417 z "/>
<path style="fill:rgb(255, 0, 0);fill-opacity:0;fill-rule:evenodd;stroke:rgb(255, 41, 0);stroke-width:1;" d="M 795.377, 182.974 L 797.333, 180.485 L 819.382, 150.433 L 829.162, 154.523 L 809.069, 181.729 L 805.157, 187.242 L 795.377, 182.974 z "/>
<path style="fill:rgb(0, 255, 0);fill-opacity:0;fill-rule:evenodd;stroke:rgb(255, 41, 0);stroke-width:1;" d="M 314.381, 121.983 L 327.362, 104.023 L 332.696, 96.7326 L 345.499, 102.067 L 327.006, 127.317 L 314.381, 121.983 z "/>
<path style="fill:rgb(0, 0, 255);fill-opacity:0;fill-rule:evenodd;stroke:rgb(255, 41, 0);stroke-width:1;" d="M 976.395, 329.851 L 998.444, 299.444 L 1008.94, 303.89 L 987.242, 333.585 L 986.708, 334.297 L 976.395, 329.851 z "/>
<path style="fill:rgb(255, 255, 0);fill-opacity:0;fill-rule:evenodd;stroke:rgb(255, 41, 0);stroke-width:1;" d="M 205.557, 368.26 L 223.516, 343.899 L 224.939, 341.765 L 235.43, 346.21 L 211.247, 379.106 L 206.802, 377.15 L 210.002, 372.883 L 206.446, 371.46 L 205.557, 368.26 z "/>
<path style="fill:rgb(255, 0, 0);fill-opacity:0;fill-rule:evenodd;stroke:rgb(255, 41, 0);stroke-width:1;" d="M 356.524, 139.231 L 375.55, 113.27 L 387.642, 118.426 L 368.615, 144.388 L 356.524, 139.231 z "/>
<path style="fill:rgb(0, 255, 0);fill-opacity:0;fill-rule:evenodd;stroke:rgb(255, 41, 0);stroke-width:1;" d="M 277.573, 327.717 L 302.289, 293.576 L 305.312, 294.821 L 303.178, 297.844 L 305.668, 298.911 L 302.467, 303.534 L 307.268, 305.49 L 288.064, 331.985 L 277.573, 327.717 z "/>
<path style="fill:rgb(0, 0, 255);fill-opacity:0;fill-rule:evenodd;stroke:rgb(255, 41, 0);stroke-width:1;" d="M 496.466, 501.267 L 499.311, 497.177 L 519.049, 469.615 L 520.827, 467.304 L 530.073, 471.038 L 505.712, 505.179 L 496.466, 501.267 z "/>
<path style="fill:rgb(255, 255, 0);fill-opacity:0;fill-rule:evenodd;stroke:rgb(255, 41, 0);stroke-width:1;" d="M 439.209, 468.015 L 456.813, 443.476 L 468.371, 448.277 L 446.677, 478.329 L 441.343, 476.195 L 445.432, 470.505 L 439.209, 468.015 z "/>
<path style="fill:rgb(255, 0, 0);fill-opacity:0;fill-rule:evenodd;stroke:rgb(255, 41, 0);stroke-width:1;" d="M 929.095, 389.598 L 943.499, 369.86 L 952.923, 356.879 L 962.703, 360.969 L 948.477, 380.351 L 943.676, 380.885 L 944.032, 381.596 L 942.787, 383.374 L 945.455, 384.441 L 938.875, 393.687 L 929.095, 389.598 z "/>
<path style="fill:rgb(0, 255, 0);fill-opacity:0;fill-rule:evenodd;stroke:rgb(255, 41, 0);stroke-width:1;" d="M 965.726, 766.393 L 986.886, 736.697 L 997.555, 740.965 L 984.752, 758.924 L 976.395, 770.66 L 965.726, 766.393 z "/>
<path style="fill:rgb(0, 0, 255);fill-opacity:0;fill-rule:evenodd;stroke:rgb(255, 41, 0);stroke-width:1;" d="M 702.734, 141.365 L 725.317, 110.425 L 735.275, 114.692 L 724.428, 129.629 L 712.692, 145.632 L 702.734, 141.365 z "/>
<path style="fill:rgb(255, 255, 0);fill-opacity:0;fill-rule:evenodd;stroke:rgb(255, 41, 0);stroke-width:1;" d="M 966.259, 325.583 L 988.486, 295.177 L 998.444, 299.444 L 976.395, 329.851 L 966.259, 325.583 z "/>
<path style="fill:rgb(255, 0, 0);fill-opacity:0;fill-rule:evenodd;stroke:rgb(255, 41, 0);stroke-width:1;" d="M 46.9438, 674.639 L 66.6815, 648.144 L 71.4826, 646.188 L 70.5935, 644.943 L 74.5054, 639.964 L 80.5512, 642.632 L 76.8171, 647.433 L 75.0389, 647.611 L 76.1058, 652.056 L 56.3681, 678.729 L 46.9438, 674.639 z "/>
<path style="fill:rgb(0, 255, 0);fill-opacity:0;fill-rule:evenodd;stroke:rgb(255, 41, 0);stroke-width:1;" d="M 550.7, 76.2836 L 556.39, 68.4597 L 572.572, 45.8769 L 582.707, 50.1445 L 560.836, 80.5512 L 550.7, 76.2836 z "/>
<path style="fill:rgb(0, 0, 255);fill-opacity:0;fill-rule:evenodd;stroke:rgb(255, 41, 0);stroke-width:1;" d="M 552.123, 298.555 L 574.705, 267.793 L 581.107, 270.46 L 576.128, 277.395 L 580.218, 279.173 L 562.792, 303.001 L 552.123, 298.555 z "/>
<path style="fill:rgb(255, 255, 0);fill-opacity:0;fill-rule:evenodd;stroke:rgb(255, 41, 0);stroke-width:1;" d="M 333.23, 204.312 L 355.279, 174.261 L 365.237, 178.351 L 361.147, 183.863 L 343.187, 208.402 L 333.23, 204.312 z "/>
<path style="fill:rgb(255, 0, 0);fill-opacity:0;fill-rule:evenodd;stroke:rgb(255, 41, 0);stroke-width:1;" d="M 330.029, 643.876 L 348.522, 618.449 L 350.656, 615.426 L 355.812, 617.737 L 353.679, 620.582 L 359.724, 623.072 L 341.231, 648.5 L 330.029, 643.876 z "/>
<path style="fill:rgb(0, 255, 0);fill-opacity:0;fill-rule:evenodd;stroke:rgb(255, 41, 0);stroke-width:1;" d="M 789.687, 194.176 L 792.887, 189.909 L 802.312, 193.821 L 807.646, 186.708 L 829.695, 196.132 L 821.338, 207.513 L 795.199, 196.488 L 789.687, 194.176 z "/>
<path style="fill:rgb(0, 0, 255);fill-opacity:0;fill-rule:evenodd;stroke:rgb(255, 41, 0);stroke-width:1;" d="M 251.434, 686.019 L 271.171, 659.347 L 273.127, 656.857 L 283.263, 661.125 L 281.129, 664.148 L 263.17, 688.509 L 261.036, 687.619 L 259.791, 687.442 L 257.124, 687.264 L 254.101, 687.442 L 252.678, 686.908 L 251.967, 686.553 L 251.434, 686.019 z "/>
<path style="fill:rgb(255, 255, 0);fill-opacity:0;fill-rule:evenodd;stroke:rgb(255, 41, 0);stroke-width:1;" d="M 314.381, 196.31 L 339.631, 161.992 L 345.499, 164.481 L 338.386, 174.083 L 341.943, 175.683 L 323.983, 200.4 L 314.381, 196.31 z "/>
<path style="fill:rgb(255, 0, 0);fill-opacity:0;fill-rule:evenodd;stroke:rgb(255, 41, 0);stroke-width:1;" d="M 246.277, 593.198 L 251.434, 586.264 L 293.221, 603.868 L 288.064, 610.802 L 246.277, 593.198 z "/>
<path style="fill:rgb(0, 255, 0);fill-opacity:0;fill-rule:evenodd;stroke:rgb(255, 41, 0);stroke-width:1;" d="M 384.797, 606.713 L 393.154, 595.332 L 388.531, 593.376 L 405.779, 569.727 L 415.559, 573.816 L 390.131, 608.846 L 384.797, 606.713 z "/>
<path style="fill:rgb(0, 0, 255);fill-opacity:0;fill-rule:evenodd;stroke:rgb(255, 41, 0);stroke-width:1;" d="M 993.999, 409.158 L 1001.47, 399.022 L 1013.91, 381.774 L 1024.58, 386.219 L 1004.67, 413.603 L 993.999, 409.158 z "/>
<path style="fill:rgb(255, 255, 0);fill-opacity:0;fill-rule:evenodd;stroke:rgb(255, 41, 0);stroke-width:1;" d="M 99.3999, 652.945 L 106.335, 643.699 L 137.097, 656.679 L 130.162, 666.104 L 123.227, 663.081 L 114.514, 659.347 L 102.956, 654.368 L 99.3999, 652.945 z "/>
<path style="fill:rgb(255, 0, 0);fill-opacity:0;fill-rule:evenodd;stroke:rgb(255, 41, 0);stroke-width:1;" d="M 263.17, 688.509 L 281.129, 664.148 L 292.865, 669.304 L 276.862, 690.998 L 274.906, 693.487 L 263.17, 688.509 z "/>
<path style="fill:rgb(0, 255, 0);fill-opacity:0;fill-rule:evenodd;stroke:rgb(255, 41, 0);stroke-width:1;" d="M 471.927, 556.568 L 490.242, 530.962 L 501.623, 535.764 L 483.307, 561.191 L 471.927, 556.568 z "/>
<path style="fill:rgb(0, 0, 255);fill-opacity:0;fill-rule:evenodd;stroke:rgb(255, 41, 0);stroke-width:1;" d="M 300.333, 779.907 L 320.249, 753.056 L 326.65, 744.343 L 331.985, 746.655 L 323.805, 757.679 L 327.717, 759.28 L 309.758, 783.819 L 300.333, 779.907 z "/>
<path style="fill:rgb(255, 255, 0);fill-opacity:0;fill-rule:evenodd;stroke:rgb(255, 41, 0);stroke-width:1;" d="M 987.242, 333.585 L 1008.94, 303.89 L 1010, 302.289 L 1015.16, 304.601 L 1011.42, 309.58 L 1008.94, 311.002 L 1015.34, 313.67 L 999.155, 335.897 L 997.733, 337.853 L 987.242, 333.585 z "/>
<path style="fill:rgb(255, 0, 0);fill-opacity:0;fill-rule:evenodd;stroke:rgb(255, 41, 0);stroke-width:1;" d="M 918.782, 385.152 L 922.16, 380.529 L 942.609, 352.434 L 952.923, 356.879 L 943.499, 369.86 L 940.653, 368.615 L 926.428, 388.353 L 918.782, 385.152 z "/>
<path style="fill:rgb(0, 255, 0);fill-opacity:0;fill-rule:evenodd;stroke:rgb(255, 41, 0);stroke-width:1;" d="M 450.411, 547.677 L 474.239, 514.603 L 481.351, 517.448 L 475.839, 525.094 L 477.795, 525.806 L 459.48, 551.411 L 450.411, 547.677 z "/>
<path style="fill:rgb(0, 0, 255);fill-opacity:0;fill-rule:evenodd;stroke:rgb(255, 41, 0);stroke-width:1;" d="M 38.4085, 591.242 L 55.6568, 568.126 L 67.5706, 573.283 L 50.5001, 596.399 L 38.4085, 591.242 z "/>
<path style="fill:rgb(255, 255, 0);fill-opacity:0;fill-rule:evenodd;stroke:rgb(255, 41, 0);stroke-width:1;" d="M 671.438, 197.733 L 677.84, 188.842 L 692.421, 169.104 L 698.466, 171.594 L 692.598, 179.595 L 697.577, 181.729 L 682.285, 202.534 L 671.438, 197.733 z "/>
<path style="fill:rgb(255, 0, 0);fill-opacity:0;fill-rule:evenodd;stroke:rgb(255, 41, 0);stroke-width:1;" d="M 420.894, 172.483 L 426.406, 164.659 L 422.85, 163.236 L 440.098, 139.942 L 441.698, 137.453 L 450.767, 141.365 L 448.989, 143.676 L 431.918, 167.148 L 426.406, 174.794 L 423.383, 173.55 L 420.894, 172.483 z "/>
<path style="fill:rgb(0, 255, 0);fill-opacity:0;fill-rule:evenodd;stroke:rgb(255, 41, 0);stroke-width:1;" d="M 343.187, 208.402 L 361.147, 183.863 L 365.592, 185.641 L 374.483, 173.372 L 378.929, 175.328 L 370.038, 187.597 L 351.9, 212.136 L 343.187, 208.402 z "/>
<path style="fill:rgb(0, 0, 255);fill-opacity:0;fill-rule:evenodd;stroke:rgb(255, 41, 0);stroke-width:1;" d="M 111.314, 555.679 L 129.273, 531.14 L 140.298, 535.941 L 122.338, 560.302 L 111.314, 555.679 z "/>
<path style="fill:rgb(255, 255, 0);fill-opacity:0;fill-rule:evenodd;stroke:rgb(255, 41, 0);stroke-width:1;" d="M 290.198, 775.461 L 307.802, 751.812 L 310.647, 753.056 L 312.958, 750.033 L 320.249, 753.056 L 300.333, 779.907 L 290.198, 775.461 z "/>
<path style="fill:rgb(255, 0, 0);fill-opacity:0;fill-rule:evenodd;stroke:rgb(255, 41, 0);stroke-width:1;" d="M 604.757, 320.782 L 622.538, 296.421 L 633.385, 301.045 L 625.561, 311.536 L 616.493, 323.983 L 615.603, 325.406 L 604.757, 320.782 z "/>
<path style="fill:rgb(0, 255, 0);fill-opacity:0;fill-rule:evenodd;stroke:rgb(255, 41, 0);stroke-width:1;" d="M 505.535, 571.149 L 522.783, 546.966 L 526.339, 541.987 L 530.429, 543.765 L 526.873, 548.566 L 532.918, 551.056 L 515.67, 575.239 L 505.535, 571.149 z "/>
<path style="fill:rgb(0, 0, 255);fill-opacity:0;fill-rule:evenodd;stroke:rgb(255, 41, 0);stroke-width:1;" d="M 562.792, 303.001 L 580.218, 279.173 L 591.065, 283.619 L 583.241, 294.288 L 573.461, 307.624 L 562.792, 303.001 z "/>
<path style="fill:rgb(255, 255, 0);fill-opacity:0;fill-rule:evenodd;stroke:rgb(255, 41, 0);stroke-width:1;" d="M 409.158, 602.267 L 427.295, 577.373 L 437.431, 581.64 L 419.293, 606.535 L 409.158, 602.267 z "/>
<path style="fill:rgb(255, 0, 0);fill-opacity:0;fill-rule:evenodd;stroke:rgb(255, 41, 0);stroke-width:1;" d="M 262.814, 572.038 L 268.148, 564.926 L 276.862, 568.482 L 298.911, 577.906 L 296.244, 581.64 L 303.712, 584.663 L 301.045, 588.22 L 262.814, 572.038 z "/>
<path style="fill:rgb(0, 255, 0);fill-opacity:0;fill-rule:evenodd;stroke:rgb(255, 41, 0);stroke-width:1;" d="M 411.825, 531.674 L 429.607, 506.957 L 431.029, 507.668 L 434.052, 506.424 L 440.631, 509.091 L 421.605, 535.764 L 411.825, 531.674 z "/>
<path style="fill:rgb(0, 0, 255);fill-opacity:0;fill-rule:evenodd;stroke:rgb(255, 41, 0);stroke-width:1;" d="M 889.798, 587.686 L 892.643, 583.952 L 893.888, 584.485 L 895.844, 581.818 L 897.8, 582.707 L 905.446, 585.908 L 933.541, 597.644 L 928.74, 604.223 L 889.798, 587.686 z "/>
<path style="fill:rgb(255, 255, 0);fill-opacity:0;fill-rule:evenodd;stroke:rgb(255, 41, 0);stroke-width:1;" d="M 428.006, 685.13 L 447.388, 658.635 L 456.635, 662.725 L 448.811, 673.572 L 437.431, 689.042 L 428.006, 685.13 z "/>
<path style="fill:rgb(255, 0, 0);fill-opacity:0;fill-rule:evenodd;stroke:rgb(255, 41, 0);stroke-width:1;" d="M 915.937, 372.172 L 916.47, 371.46 L 933.007, 348.522 L 942.609, 352.434 L 922.16, 380.529 L 917.182, 378.573 L 920.382, 373.95 L 915.937, 372.172 z "/>
<path style="fill:rgb(0, 255, 0);fill-opacity:0;fill-rule:evenodd;stroke:rgb(255, 41, 0);stroke-width:1;" d="M 885.886, 358.657 L 888.731, 354.568 L 895.31, 345.499 L 898.155, 341.587 L 902.601, 335.719 L 913.27, 340.164 L 896.555, 363.103 L 885.886, 358.657 z "/>
<path style="fill:rgb(0, 0, 255);fill-opacity:0;fill-rule:evenodd;stroke:rgb(255, 41, 0);stroke-width:1;" d="M 351.9, 212.136 L 370.038, 187.597 L 379.818, 191.687 L 361.858, 216.404 L 351.9, 212.136 z "/>
<path style="fill:rgb(255, 255, 0);fill-opacity:0;fill-rule:evenodd;stroke:rgb(255, 41, 0);stroke-width:1;" d="M 389.776, 151.856 L 408.269, 126.606 L 417.515, 130.34 L 398.844, 155.768 L 395.466, 156.301 L 390.842, 154.345 L 389.776, 151.856 z "/>
<path style="fill:rgb(255, 0, 0);fill-opacity:0;fill-rule:evenodd;stroke:rgb(255, 41, 0);stroke-width:1;" d="M 749.856, 598.177 L 767.282, 573.283 L 777.239, 577.551 L 759.28, 602.089 L 749.856, 598.177 z "/>
<path style="fill:rgb(0, 255, 0);fill-opacity:0;fill-rule:evenodd;stroke:rgb(255, 41, 0);stroke-width:1;" d="M 740.076, 594.088 L 758.213, 569.549 L 767.282, 573.283 L 749.856, 598.177 L 740.076, 594.088 z "/>
<path style="fill:rgb(0, 0, 255);fill-opacity:0;fill-rule:evenodd;stroke:rgb(255, 41, 0);stroke-width:1;" d="M 409.335, 167.148 L 431.918, 136.386 L 440.098, 139.942 L 422.85, 163.236 L 420.182, 162.169 L 414.848, 169.46 L 409.335, 167.148 z "/>
<path style="fill:rgb(255, 255, 0);fill-opacity:0;fill-rule:evenodd;stroke:rgb(255, 41, 0);stroke-width:1;" d="M 896.555, 363.103 L 913.27, 340.164 L 923.227, 344.254 L 906.513, 367.193 L 896.555, 363.103 z "/>
<path style="fill:rgb(255, 0, 0);fill-opacity:0;fill-rule:evenodd;stroke:rgb(255, 41, 0);stroke-width:1;" d="M 947.055, 382.485 L 948.477, 380.351 L 962.703, 360.969 L 973.194, 365.415 L 957.546, 386.93 L 947.055, 382.485 z "/>
<path style="fill:rgb(0, 255, 0);fill-opacity:0;fill-rule:evenodd;stroke:rgb(255, 41, 0);stroke-width:1;" d="M 682.285, 202.534 L 697.577, 181.729 L 708.068, 186.175 L 692.954, 206.979 L 682.285, 202.534 z "/>
<path style="fill:rgb(0, 0, 255);fill-opacity:0;fill-rule:evenodd;stroke:rgb(255, 41, 0);stroke-width:1;" d="M 90.6868, 691.709 L 108.113, 668.06 L 116.826, 671.794 L 99.3999, 695.266 L 90.6868, 691.709 z "/>
<path style="fill:rgb(255, 255, 0);fill-opacity:0;fill-rule:evenodd;stroke:rgb(255, 41, 0);stroke-width:1;" d="M 453.79, 168.749 L 458.591, 161.992 L 489.353, 174.972 L 484.374, 181.729 L 453.79, 168.749 z "/>
<path style="fill:rgb(255, 0, 0);fill-opacity:0;fill-rule:evenodd;stroke:rgb(255, 41, 0);stroke-width:1;" d="M 431.918, 167.148 L 448.989, 143.676 L 457.702, 147.411 L 444.899, 164.837 L 440.631, 170.705 L 431.918, 167.148 z "/>
<path style="fill:rgb(0, 255, 0);fill-opacity:0;fill-rule:evenodd;stroke:rgb(255, 41, 0);stroke-width:1;" d="M 905.446, 585.908 L 910.425, 578.973 L 938.52, 590.887 L 933.541, 597.644 L 905.446, 585.908 z "/>
<path style="fill:rgb(0, 0, 255);fill-opacity:0;fill-rule:evenodd;stroke:rgb(255, 41, 0);stroke-width:1;" d="M 990.62, 394.577 L 1003.25, 377.15 L 1013.91, 381.774 L 1001.47, 399.022 L 990.62, 394.577 z "/>
<path style="fill:rgb(255, 255, 0);fill-opacity:0;fill-rule:evenodd;stroke:rgb(255, 41, 0);stroke-width:1;" d="M 219.249, 453.078 L 226.717, 442.943 L 244.143, 450.233 L 236.675, 460.369 L 219.249, 453.078 z "/>
<path style="fill:rgb(255, 0, 0);fill-opacity:0;fill-rule:evenodd;stroke:rgb(255, 41, 0);stroke-width:1;" d="M 926.428, 691.354 L 934.252, 680.151 L 949.367, 686.375 L 942.254, 696.333 L 941.543, 697.399 L 926.428, 691.354 z "/>
<path style="fill:rgb(0, 255, 0);fill-opacity:0;fill-rule:evenodd;stroke:rgb(255, 41, 0);stroke-width:1;" d="M 946.344, 663.259 L 954.168, 652.056 L 968.571, 658.102 L 969.282, 658.28 L 961.458, 669.482 L 946.344, 663.259 z "/>
<path style="fill:rgb(0, 0, 255);fill-opacity:0;fill-rule:evenodd;stroke:rgb(255, 41, 0);stroke-width:1;" d="M 313.136, 97.9773 L 320.96, 87.4861 L 335.186, 93.5319 L 332.696, 96.7326 L 327.362, 104.023 L 313.136, 97.9773 z "/>
<path style="fill:rgb(255, 255, 0);fill-opacity:0;fill-rule:evenodd;stroke:rgb(255, 41, 0);stroke-width:1;" d="M 519.049, 354.745 L 519.049, 352.967 L 519.76, 352.078 L 534.163, 332.518 L 540.565, 335.186 L 533.985, 344.076 L 525.45, 355.635 L 522.072, 356.168 L 519.049, 354.745 z "/>
<path style="fill:rgb(255, 0, 0);fill-opacity:0;fill-rule:evenodd;stroke:rgb(255, 41, 0);stroke-width:1;" d="M 0, 426.762 L 17.7817, 402.223 L 73.7942, 425.872 L 61.347, 442.765 L 44.6321, 435.652 L 43.2096, 437.608 L 41.2536, 436.897 L 37.1638, 442.409 L 0, 426.762 z "/>
<path style="fill:rgb(0, 255, 0);fill-opacity:0;fill-rule:evenodd;stroke:rgb(255, 41, 0);stroke-width:1;" d="M 23.8275, 664.681 L 38.942, 644.41 L 53.523, 624.672 L 58.6797, 626.984 L 51.2114, 636.942 L 58.3241, 639.964 L 36.0969, 670.016 L 23.8275, 664.681 z "/>
<path style="fill:rgb(0, 0, 255);fill-opacity:0;fill-rule:evenodd;stroke:rgb(255, 41, 0);stroke-width:1;" d="M 25.0722, 735.63 L 44.81, 708.602 L 56.7237, 713.581 L 32.1849, 747.366 L 28.0951, 745.766 L 30.0511, 742.921 L 27.5617, 741.854 L 30.5846, 737.942 L 25.0722, 735.63 z "/>
<path style="fill:rgb(255, 255, 0);fill-opacity:0;fill-rule:evenodd;stroke:rgb(255, 41, 0);stroke-width:1;" d="M 23.8275, 588.753 L 25.9613, 585.908 L 43.0318, 562.792 L 55.6568, 568.126 L 38.4085, 591.242 L 36.2747, 594.088 L 23.8275, 588.753 z "/>
<path style="fill:rgb(255, 0, 0);fill-opacity:0;fill-rule:evenodd;stroke:rgb(255, 41, 0);stroke-width:1;" d="M 286.286, 34.8522 L 308.335, 4.26762 L 365.77, 28.0951 L 370.216, 21.6937 L 391.198, 30.4068 L 364.703, 67.5706 L 286.286, 34.8522 z "/>
<path style="fill:rgb(0, 255, 0);fill-opacity:0;fill-rule:evenodd;stroke:rgb(255, 41, 0);stroke-width:1;" d="M 891.932, 49.611 L 908.113, 27.206 L 913.625, 19.7377 L 947.233, 33.7853 L 921.627, 69.1709 L 911.314, 64.9033 L 894.954, 57.9684 L 898.866, 52.6339 L 891.932, 49.611 z "/>
<path style="fill:rgb(0, 0, 255);fill-opacity:0;fill-rule:evenodd;stroke:rgb(255, 41, 0);stroke-width:1;" d="M 715.359, 50.3223 L 729.762, 30.5846 L 743.276, 11.9138 L 766.215, 21.5159 L 760.347, 29.5177 L 754.479, 37.6973 L 747.9, 35.03 L 741.142, 44.2765 L 747.722, 47.1216 L 738.297, 59.9244 L 715.359, 50.3223 z "/>
<path style="fill:rgb(255, 255, 0);fill-opacity:0;fill-rule:evenodd;stroke:rgb(255, 41, 0);stroke-width:1;" d="M 484.552, 60.1022 L 487.753, 55.479 L 513.359, 19.9155 L 532.563, 27.9173 L 522.249, 42.1427 L 518.16, 40.5423 L 515.492, 44.2765 L 519.582, 45.8769 L 517.448, 48.8998 L 515.848, 49.611 L 514.248, 49.9667 L 513.181, 49.9667 L 505.535, 60.6357 L 495.577, 56.3681 L 494.866, 57.2572 L 495.932, 58.6797 L 493.976, 61.347 L 491.843, 61.347 L 490.954, 62.7695 L 484.552, 60.1022 z "/>
<path style="fill:rgb(255, 0, 0);fill-opacity:0;fill-rule:evenodd;stroke:rgb(255, 41, 0);stroke-width:1;" d="M 439.564, 44.0987 L 449.7, 29.8733 L 445.255, 27.9173 L 465.526, 0 L 482.24, 6.93487 L 455.034, 44.81 L 451.834, 49.2554 L 439.564, 44.0987 z "/>
<path style="fill:rgb(0, 255, 0);fill-opacity:0;fill-rule:evenodd;stroke:rgb(255, 41, 0);stroke-width:1;" d="M 455.034, 44.81 L 482.24, 6.93487 L 497.355, 13.1585 L 471.571, 48.8998 L 465.526, 57.2572 L 457.702, 54.0565 L 462.325, 47.8329 L 455.034, 44.81 z "/>
<path style="fill:rgb(0, 0, 255);fill-opacity:0;fill-rule:evenodd;stroke:rgb(255, 41, 0);stroke-width:1;" d="M 738.297, 59.9244 L 747.722, 47.1216 L 750.567, 43.0318 L 755.546, 45.1656 L 765.326, 31.6515 L 760.347, 29.5177 L 766.215, 21.5159 L 766.926, 20.449 L 783.463, 27.3839 L 754.657, 66.8593 L 738.297, 59.9244 z "/>
<path style="fill:rgb(255, 255, 0);fill-opacity:0;fill-rule:evenodd;stroke:rgb(255, 41, 0);stroke-width:1;" d="M 471.571, 48.8998 L 497.355, 13.1585 L 513.359, 19.9155 L 487.753, 55.479 L 471.571, 48.8998 z "/>
<path style="fill:rgb(255, 0, 0);fill-opacity:0;fill-rule:evenodd;stroke:rgb(255, 41, 0);stroke-width:1;" d="M 846.055, 46.2325 L 857.257, 30.7624 L 875.217, 6.04579 L 876.639, 4.26762 L 890.509, 9.95777 L 874.328, 32.3627 L 870.06, 30.5846 L 855.657, 50.3223 L 846.055, 46.2325 z "/>
<path style="fill:rgb(0, 255, 0);fill-opacity:0;fill-rule:evenodd;stroke:rgb(255, 41, 0);stroke-width:1;" d="M 991.687, 701.134 L 991.687, 697.577 L 993.11, 694.377 L 995.777, 691.531 L 999.511, 689.575 L 1003.96, 688.509 L 1008.58, 688.509 L 1012.85, 689.575 L 1016.58, 691.531 L 1019.25, 694.377 L 1020.67, 697.577 L 1020.67, 701.134 L 1019.25, 704.334 L 1016.58, 707.179 L 1012.85, 709.313 L 1008.58, 710.38 L 1003.96, 710.38 L 999.511, 709.313 L 995.777, 707.179 L 993.11, 704.512 L 991.687, 701.134 z "/>
</svg>