<?xml version="1.0" encoding="iso-8859-1" standalone="no"?>
<!DOCTYPE svg PUBLIC "-//W3C//DTD SVG 1.0//EN" "http://www.w3.org/TR/2001/REC-SVG-20010904/DTD/svg10.dtd">
<svg xmlns="http://www.w3.org/2000/svg" width="2443" height="800">
<path style="fill:rgb(255, 0, 0);fill-opacity:0;fill-rule:evenodd;stroke:rgb(255, 23, 0);stroke-width:1;" d="M 930.222, 302.222 L 1029.33, 281.333 L 1049.33, 313.333 L 1036, 318.222 L 1046.67, 335.556 L 1102.22, 315.556 L 1089.33, 295.111 L 1081.33, 297.778 L 1066.22, 273.778 L 1162.67, 254.222 L 1186.67, 292.889 L 1165.33, 300.444 L 1187.56, 335.556 L 1209.33, 328 L 1235.56, 369.778 L 1151.11, 400 L 1130.22, 366.667 L 1139.56, 363.556 L 1129.78, 347.556 L 1064, 371.111 L 1073.78, 387.556 L 1085.33, 383.111 L 1106.22, 416 L 1020.89, 447.111 L 996.444, 408 L 992.889, 402.667 L 1014.67, 395.111 L 1013.78, 393.778 L 980, 339.556 L 958.667, 347.556 L 947.111, 329.333 L 930.222, 302.222 z "/>
<path style="fill:rgb(0, 255, 0);fill-opacity:0;fill-rule:evenodd;stroke:rgb(255, 23, 0);stroke-width:1;" d="M 0, 651.111 L 54.2222, 612 L 81.3333, 633.778 L 101.778, 619.111 L 75.5556, 598.222 L 134.667, 555.111 L 173.778, 585.778 L 165.778, 591.556 L 200, 618.222 L 145.333, 658.222 L 156, 671.111 L 223.111, 647.111 L 266.667, 717.778 L 220, 734.667 L 209.333, 716.889 L 161.333, 733.778 L 155.556, 737.778 L 170.222, 752 L 117.778, 771.111 L 69.3333, 722.222 L 123.111, 691.556 L 99.1111, 667.111 L 45.3333, 697.333 L 0, 651.111 z "/>
<path style="fill:rgb(0, 0, 255);fill-opacity:0;fill-rule:evenodd;stroke:rgb(255, 23, 0);stroke-width:1;" d="M 248.889, 636.444 L 315.111, 603.111 L 348, 585.333 L 366.667, 615.556 L 369.333, 614.667 L 376, 614.667 L 371.556, 607.556 L 381.778, 604 L 384.889, 609.778 L 393.333, 606.667 L 384.444, 592.444 L 382.667, 592.889 L 371.111, 573.778 L 449.333, 534.222 L 468, 564.444 L 450.667, 570.667 L 447.111, 577.333 L 463.111, 602.667 L 488, 593.778 L 494.222, 604 L 510.222, 630.222 L 420.889, 662.667 L 411.111, 646.667 L 414.222, 641.778 L 405.778, 628 L 394.222, 632.444 L 396, 635.111 L 390.222, 636.889 L 391.111, 638.667 L 380.889, 642.222 L 380, 640.444 L 373.778, 642.667 L 372.444, 640.444 L 359.556, 644.889 L 368.444, 659.111 L 375.556, 659.556 L 389.333, 681.778 L 315.111, 739.111 L 284, 694.667 L 305.778, 686.667 L 285.778, 654.222 L 264.444, 661.778 L 248.889, 636.444 z "/>
<path style="fill:rgb(255, 255, 0);fill-opacity:0;fill-rule:evenodd;stroke:rgb(255, 23, 0);stroke-width:1;" d="M 2180.89, 692.444 L 2240.89, 669.778 L 2256.89, 694.222 L 2293.33, 680 L 2277.78, 656.444 L 2308, 645.333 L 2303.11, 637.333 L 2338.67, 623.556 L 2367.11, 667.111 L 2340.44, 676.889 L 2351.56, 693.778 L 2376.44, 684 L 2407.56, 730.667 L 2225.33, 800 L 2200.89, 762.667 L 2195.56, 754.667 L 2216.44, 746.667 L 2180.89, 692.444 z "/>
<path style="fill:rgb(255, 0, 0);fill-opacity:0;fill-rule:evenodd;stroke:rgb(255, 23, 0);stroke-width:1;" d="M 1403.56, 556 L 1467.11, 532.889 L 1490.22, 569.333 L 1530.67, 554.222 L 1516.44, 531.556 L 1510.67, 533.778 L 1502.22, 520 L 1566.67, 496.444 L 1597.78, 545.333 L 1606.22, 542.222 L 1643.56, 601.333 L 1576, 626.222 L 1547.11, 580 L 1522.67, 588.889 L 1551.56, 635.111 L 1471.56, 664 L 1403.56, 556 z "/>
<path style="fill:rgb(0, 255, 0);fill-opacity:0;fill-rule:evenodd;stroke:rgb(255, 23, 0);stroke-width:1;" d="M 694.222, 353.333 L 798.667, 331.111 L 817.778, 361.778 L 797.778, 368.889 L 807.556, 384.889 L 875.556, 360.444 L 866.667, 345.778 L 848, 352.444 L 829.778, 323.111 L 930.222, 302.222 L 947.111, 329.333 L 937.778, 332.444 L 938.222, 339.111 L 965.333, 383.111 L 916, 400.444 L 903.111, 380 L 891.556, 384.444 L 889.333, 380.444 L 879.111, 384 L 894.667, 408.444 L 843.556, 426.667 L 828.889, 402.667 L 818.667, 406.667 L 820.444, 409.778 L 810.667, 413.333 L 823.111, 433.333 L 759.111, 456.444 L 739.111, 424.444 L 760, 416.444 L 741.778, 387.111 L 720, 395.111 L 694.222, 353.333 z "/>
<path style="fill:rgb(0, 0, 255);fill-opacity:0;fill-rule:evenodd;stroke:rgb(255, 23, 0);stroke-width:1;" d="M 1612.44, 502.667 L 1671.56, 480.889 L 1689.78, 509.333 L 1697.33, 506.667 L 1704, 517.778 L 1715.56, 513.778 L 1708.44, 502.667 L 1715.56, 500 L 1697.33, 471.556 L 1768.44, 445.778 L 1787.11, 475.111 L 1793.78, 472.889 L 1798.67, 480.444 L 1809.78, 476.444 L 1797.33, 456.444 L 1800.89, 448.889 L 1793.33, 436.889 L 1825.78, 424.889 L 1884, 516.889 L 1842.22, 532 L 1826.22, 507.111 L 1824.44, 508 L 1817.33, 496.444 L 1793.78, 504.889 L 1815.56, 539.556 L 1742.22, 566.222 L 1720, 531.111 L 1692.89, 540.889 L 1715.11, 575.556 L 1675.11, 590.222 L 1630.67, 519.556 L 1624.44, 521.778 L 1612.44, 502.667 z "/>
<path style="fill:rgb(255, 255, 0);fill-opacity:0;fill-rule:evenodd;stroke:rgb(255, 23, 0);stroke-width:1;" d="M 593.778, 456.889 L 645.333, 438.667 L 665.778, 472 L 664, 472.444 L 668.444, 480 L 691.111, 472 L 665.778, 431.111 L 716.444, 413.333 L 766.222, 494.222 L 773.778, 500 L 782.222, 496.889 L 800.444, 526.222 L 740.444, 547.556 L 719.556, 513.333 L 694.222, 522.222 L 715.556, 556.444 L 656, 578.222 L 639.111, 550.222 L 637.778, 548.444 L 645.333, 546.222 L 646.222, 542.222 L 593.778, 456.889 z "/>
<path style="fill:rgb(255, 0, 0);fill-opacity:0;fill-rule:evenodd;stroke:rgb(255, 23, 0);stroke-width:1;" d="M 1335.11, 448 L 1402.67, 423.556 L 1421.78, 453.778 L 1406.67, 459.111 L 1424, 485.778 L 1487.56, 462.667 L 1470.22, 436 L 1460, 439.556 L 1440.89, 409.333 L 1514.22, 382.667 L 1529.33, 406.667 L 1518.67, 410.667 L 1550.67, 461.333 L 1552, 468.889 L 1559.56, 480.889 L 1533.78, 490.222 L 1525.78, 477.778 L 1506.22, 484.889 L 1514.22, 497.333 L 1462.22, 516.444 L 1464, 518.667 L 1446.67, 525.333 L 1436.44, 508.889 L 1416.44, 516.444 L 1426.67, 532.444 L 1395.56, 543.556 L 1335.11, 448 z "/>
<path style="fill:rgb(0, 255, 0);fill-opacity:0;fill-rule:evenodd;stroke:rgb(255, 23, 0);stroke-width:1;" d="M 1911.56, 238.222 L 1967.11, 217.778 L 1979.56, 236.444 L 1981.78, 235.556 L 1989.78, 248 L 2008, 241.333 L 2000, 228.889 L 2004, 227.556 L 1992, 208.889 L 2055.56, 185.778 L 2117.78, 284.444 L 2063.56, 304 L 2055.11, 290.222 L 2031.11, 299.111 L 2035.11, 305.778 L 1983.11, 324.444 L 1961.33, 290.222 L 1964.44, 289.333 L 1952.89, 270.667 L 1945.33, 273.778 L 1942.22, 268.889 L 1932.89, 272 L 1931.56, 269.778 L 1911.56, 238.222 z "/>
<path style="fill:rgb(0, 0, 255);fill-opacity:0;fill-rule:evenodd;stroke:rgb(255, 23, 0);stroke-width:1;" d="M 2246.22, 253.333 L 2252.44, 251.111 L 2276.44, 242.222 L 2282.22, 250.667 L 2376, 216 L 2405.33, 261.333 L 2407.56, 260.444 L 2443.11, 316 L 2316, 362.667 L 2246.22, 253.333 z M 2313.33, 277.333 L 2338.22, 315.556 L 2378.22, 300.444 L 2353.33, 262.222 L 2313.33, 277.333 z "/>
<path style="fill:rgb(255, 255, 0);fill-opacity:0;fill-rule:evenodd;stroke:rgb(255, 23, 0);stroke-width:1;" d="M 1069.78, 538.667 L 1131.11, 516.889 L 1150.22, 547.111 L 1145.33, 548.889 L 1159.11, 570.667 L 1193.33, 558.667 L 1179.11, 536 L 1171.11, 539.111 L 1152.44, 508.889 L 1212.89, 487.111 L 1274.67, 586.222 L 1228, 603.111 L 1212, 577.333 L 1189.78, 585.333 L 1196.89, 596.889 L 1200, 595.556 L 1207.56, 607.111 L 1140, 631.556 L 1098.22, 564.889 L 1088.44, 568.444 L 1069.78, 538.667 z "/>
<path style="fill:rgb(255, 0, 0);fill-opacity:0;fill-rule:evenodd;stroke:rgb(255, 23, 0);stroke-width:1;" d="M 1163.56, 661.778 L 1216.44, 643.111 L 1228.44, 647.556 L 1236, 659.556 L 1252.44, 653.778 L 1236.44, 628.444 L 1291.56, 608.889 L 1352, 705.778 L 1295.11, 726.222 L 1272.89, 690.667 L 1245.78, 700.444 L 1268, 736 L 1208.89, 757.333 L 1188.89, 724.889 L 1196.89, 722.222 L 1199.11, 719.111 L 1163.56, 661.778 z "/>
<path style="fill:rgb(0, 255, 0);fill-opacity:0;fill-rule:evenodd;stroke:rgb(255, 23, 0);stroke-width:1;" d="M 2104.44, 508 L 2152.44, 489.778 L 2156, 495.556 L 2188.89, 482.667 L 2186.67, 479.556 L 2232, 462.222 L 2263.11, 508.889 L 2241.78, 516.889 L 2243.11, 519.111 L 2229.33, 524 L 2241.78, 542.667 L 2253.33, 538.222 L 2254.22, 540 L 2277.33, 531.111 L 2301.78, 568 L 2257.33, 584.889 L 2248.44, 588.444 L 2240.44, 576.444 L 2213.78, 586.667 L 2215.11, 588 L 2177.33, 602.667 L 2153.33, 566.222 L 2170.22, 559.556 L 2159.56, 544 L 2134.67, 553.333 L 2104.44, 508 z "/>
<path style="fill:rgb(0, 0, 255);fill-opacity:0;fill-rule:evenodd;stroke:rgb(255, 23, 0);stroke-width:1;" d="M 922.222, 592 L 985.778, 568.889 L 1004.89, 599.556 L 1000, 601.333 L 1007.56, 613.778 L 1040.44, 601.778 L 1032.89, 588.889 L 1027.11, 591.111 L 1008.44, 560.889 L 1069.78, 538.667 L 1088.44, 568.444 L 1077.78, 572.444 L 1119.56, 639.111 L 1061.33, 660 L 1048.44, 639.556 L 1056.89, 636.444 L 1050.22, 625.333 L 1025.33, 634.222 L 1025.33, 640.889 L 1041.78, 667.111 L 993.778, 684.444 L 968, 642.667 L 972, 640.889 L 958.667, 619.556 L 949.778, 617.778 L 940.444, 620.889 L 939.556, 619.556 L 922.222, 592 z "/>
<path style="fill:rgb(255, 255, 0);fill-opacity:0;fill-rule:evenodd;stroke:rgb(255, 23, 0);stroke-width:1;" d="M 461.778, 532 L 512.444, 514.222 L 532.889, 548 L 534.667, 547.111 L 538.222, 552.889 L 543.111, 551.111 L 540.444, 546.667 L 550.222, 543.556 L 552.444, 547.556 L 559.111, 545.333 L 551.556, 533.333 L 549.778, 533.778 L 532.889, 506.222 L 587.111, 487.111 L 628, 554.222 L 639.111, 550.222 L 656, 578.222 L 594.667, 600 L 574.667, 567.111 L 549.333, 576 L 569.778, 609.778 L 510.222, 630.222 L 494.222, 604 L 504, 600.444 L 461.778, 532 z "/>
<path style="fill:rgb(255, 0, 0);fill-opacity:0;fill-rule:evenodd;stroke:rgb(255, 23, 0);stroke-width:1;" d="M 1652.89, 669.333 L 1711.56, 648 L 1724.44, 668.444 L 1728.44, 666.667 L 1734.67, 676.444 L 1753.33, 669.333 L 1747.56, 660 L 1751.56, 658.667 L 1739.11, 638.222 L 1799.11, 616.889 L 1811.11, 636 L 1823.56, 655.556 L 1808.44, 660.889 L 1815.11, 668 L 1844, 715.111 L 1796.89, 731.556 L 1779.56, 703.556 L 1753.78, 712.889 L 1771.11, 740.889 L 1724.44, 757.778 L 1690.67, 703.111 L 1676.89, 708 L 1672, 700 L 1652.89, 669.333 z "/>
<path style="fill:rgb(0, 255, 0);fill-opacity:0;fill-rule:evenodd;stroke:rgb(255, 23, 0);stroke-width:1;" d="M 339.111, 432 L 428.889, 408.444 L 456.444, 448.889 L 461.778, 446.667 L 467.556, 455.111 L 478.667, 451.111 L 472.889, 442.667 L 480.889, 439.556 L 458.667, 403.111 L 536, 388 L 552.444, 414.667 L 541.333, 418.667 L 565.778, 458.222 L 440.889, 502.667 L 386.667, 458.667 L 377.778, 464.444 L 370.222, 458.222 L 339.111, 432 z "/>
<path style="fill:rgb(0, 0, 255);fill-opacity:0;fill-rule:evenodd;stroke:rgb(255, 23, 0);stroke-width:1;" d="M 1621.33, 343.556 L 1685.33, 320.444 L 1706.22, 352.889 L 1726.67, 345.778 L 1706.22, 312.889 L 1756, 294.667 L 1776.89, 327.556 L 1787.56, 324 L 1795.11, 336.444 L 1784.44, 340 L 1815.11, 388.444 L 1766.22, 406.222 L 1744.89, 372 L 1735.11, 375.556 L 1730.67, 368.444 L 1724.44, 371.111 L 1718.67, 372.889 L 1744.89, 414.222 L 1692.44, 432.889 L 1652.44, 369.333 L 1640.44, 373.778 L 1621.33, 343.556 z "/>
<path style="fill:rgb(255, 255, 0);fill-opacity:0;fill-rule:evenodd;stroke:rgb(255, 23, 0);stroke-width:1;" d="M 1778.22, 286.667 L 1827.56, 268.444 L 1848.89, 302.222 L 1871.11, 294.222 L 1849.78, 260.444 L 1911.56, 238.222 L 1931.56, 269.778 L 1920.89, 273.333 L 1960.44, 336 L 1909.33, 354.222 L 1883.56, 313.333 L 1871.56, 317.778 L 1875.11, 323.556 L 1864.44, 327.111 L 1886.67, 362.667 L 1837.78, 380.444 L 1807.11, 332 L 1795.11, 336.444 L 1787.56, 324 L 1799.11, 319.556 L 1778.22, 286.667 z "/>
<path style="fill:rgb(255, 0, 0);fill-opacity:0;fill-rule:evenodd;stroke:rgb(255, 23, 0);stroke-width:1;" d="M 776, 486.222 L 996.444, 408 L 1020.89, 447.111 L 800.444, 526.222 L 782.222, 496.889 L 776, 486.222 z "/>
<path style="fill:rgb(0, 255, 0);fill-opacity:0;fill-rule:evenodd;stroke:rgb(255, 23, 0);stroke-width:1;" d="M 234.222, 484.444 L 268, 463.111 L 272.444, 466.667 L 302.222, 446.222 L 306.222, 449.333 L 320.889, 439.111 L 324, 441.778 L 333.333, 435.556 L 333.778, 436 L 339.111, 432 L 370.222, 458.222 L 346.667, 474.222 L 368, 492 L 376, 489.333 L 392, 478.667 L 420, 501.778 L 332.444, 547.111 L 283.556, 506.222 L 281.778, 508 L 276.889, 504 L 267.111, 511.111 L 241.333, 490.222 L 234.222, 484.444 z "/>
<path style="fill:rgb(0, 0, 255);fill-opacity:0;fill-rule:evenodd;stroke:rgb(255, 23, 0);stroke-width:1;" d="M 1514.22, 382.667 L 1621.33, 343.556 L 1640.44, 373.778 L 1641.78, 376.444 L 1613.78, 386.667 L 1619.56, 395.556 L 1616.44, 396.889 L 1617.78, 399.556 L 1610.22, 402.222 L 1616, 411.556 L 1627.11, 407.556 L 1631.11, 413.778 L 1659.11, 403.556 L 1678.22, 433.778 L 1571.11, 472.444 L 1552, 442.222 L 1579.56, 432.444 L 1571.11, 419.111 L 1574.67, 417.778 L 1565.78, 404.444 L 1535.11, 415.556 L 1529.33, 406.667 L 1514.22, 382.667 z "/>
<path style="fill:rgb(255, 255, 0);fill-opacity:0;fill-rule:evenodd;stroke:rgb(255, 23, 0);stroke-width:1;" d="M 2176.44, 144.444 L 2253.78, 112 L 2299.11, 90.6667 L 2332.89, 143.556 L 2329.78, 144.444 L 2335.11, 153.333 L 2330.67, 154.667 L 2294.67, 168 L 2285.33, 153.333 L 2244.44, 168.444 L 2252.89, 182.222 L 2216.89, 195.556 L 2210.67, 197.778 L 2176.44, 144.444 z "/>
<path style="fill:rgb(255, 0, 0);fill-opacity:0;fill-rule:evenodd;stroke:rgb(255, 23, 0);stroke-width:1;" d="M 1473.78, 158.667 L 1533.33, 137.333 L 1571.11, 198.222 L 1562.22, 201.333 L 1568.44, 211.111 L 1587.11, 204.444 L 1607.11, 236.889 L 1528, 265.333 L 1508, 232.889 L 1526.67, 226.222 L 1520.44, 216 L 1511.56, 219.556 L 1473.78, 158.667 z "/>
<path style="fill:rgb(0, 255, 0);fill-opacity:0;fill-rule:evenodd;stroke:rgb(255, 23, 0);stroke-width:1;" d="M 1554.22, 129.778 L 1612.89, 108.889 L 1650.67, 169.778 L 1643.11, 172.444 L 1649.33, 182.222 L 1667.11, 175.556 L 1687.56, 208.444 L 1607.11, 236.889 L 1587.11, 204.444 L 1605.78, 197.778 L 1599.56, 188 L 1592, 190.667 L 1554.22, 129.778 z "/>
<path style="fill:rgb(0, 0, 255);fill-opacity:0;fill-rule:evenodd;stroke:rgb(255, 23, 0);stroke-width:1;" d="M 1633.33, 101.778 L 1691.56, 80.8889 L 1729.33, 141.778 L 1722.67, 144 L 1728.44, 153.778 L 1746.67, 147.556 L 1749.33, 152 L 1766.67, 180 L 1687.56, 208.444 L 1667.11, 175.556 L 1686.22, 168.889 L 1680, 159.556 L 1671.11, 162.667 L 1633.33, 101.778 z "/>
<path style="fill:rgb(255, 255, 0);fill-opacity:0;fill-rule:evenodd;stroke:rgb(255, 23, 0);stroke-width:1;" d="M 1867.11, 25.3333 L 1938.22, 0 L 1998.67, 97.3333 L 1927.56, 122.667 L 1909.33, 93.7778 L 1921.33, 89.7778 L 1920, 88 L 1926.67, 85.7778 L 1902.67, 47.1111 L 1884.89, 53.7778 L 1867.11, 25.3333 z "/>
<path style="fill:rgb(255, 0, 0);fill-opacity:0;fill-rule:evenodd;stroke:rgb(255, 23, 0);stroke-width:1;" d="M 2168.89, 619.556 L 2209.33, 604 L 2218.67, 617.778 L 2270.67, 597.778 L 2264.44, 588.444 L 2260.89, 589.778 L 2257.33, 584.889 L 2301.78, 568 L 2338.67, 623.556 L 2303.11, 637.333 L 2297.78, 639.111 L 2288.44, 625.333 L 2276.89, 629.778 L 2280.89, 635.556 L 2200, 666.667 L 2168.89, 619.556 z "/>
<path style="fill:rgb(0, 255, 0);fill-opacity:0;fill-rule:evenodd;stroke:rgb(255, 23, 0);stroke-width:1;" d="M 1708, 85.7778 L 1777.78, 60.8889 L 1802.22, 100.889 L 1796, 103.111 L 1812, 129.333 L 1829.33, 123.111 L 1847.11, 151.556 L 1766.67, 180 L 1749.33, 152 L 1771.11, 144 L 1747.56, 106.222 L 1725.78, 114.222 L 1708, 85.7778 z "/>
<path style="fill:rgb(0, 0, 255);fill-opacity:0;fill-rule:evenodd;stroke:rgb(255, 23, 0);stroke-width:1;" d="M 1788.44, 56.8889 L 1856.44, 32.8889 L 1881.33, 72.8889 L 1875.11, 75.1111 L 1891.11, 100.444 L 1909.33, 93.7778 L 1927.56, 122.667 L 1847.11, 151.556 L 1829.33, 123.111 L 1850.67, 115.556 L 1827.11, 77.3333 L 1805.78, 84.8889 L 1788.44, 56.8889 z "/>
<path style="fill:rgb(255, 255, 0);fill-opacity:0;fill-rule:evenodd;stroke:rgb(255, 23, 0);stroke-width:1;" d="M 1243.11, 234.222 L 1312.44, 229.333 L 1347.56, 284.889 L 1357.78, 281.333 L 1380.89, 317.778 L 1311.56, 343.111 L 1300.44, 325.778 L 1288, 305.778 L 1308.44, 298.222 L 1288.44, 266.222 L 1268, 273.778 L 1248, 241.778 L 1243.11, 234.222 z "/>
<path style="fill:rgb(255, 0, 0);fill-opacity:0;fill-rule:evenodd;stroke:rgb(255, 23, 0);stroke-width:1;" d="M 850.667, 617.778 L 922.222, 592 L 939.556, 619.556 L 930.667, 622.667 L 973.333, 691.111 L 921.333, 709.333 L 876.444, 637.778 L 865.333, 641.778 L 850.667, 617.778 z "/>
<path style="fill:rgb(0, 255, 0);fill-opacity:0;fill-rule:evenodd;stroke:rgb(255, 23, 0);stroke-width:1;" d="M 777.333, 644 L 850.667, 617.778 L 865.333, 641.778 L 856, 645.333 L 900.444, 716.444 L 848, 735.111 L 804, 664.444 L 792.889, 668.444 L 777.333, 644 z "/>
<path style="fill:rgb(0, 0, 255);fill-opacity:0;fill-rule:evenodd;stroke:rgb(255, 23, 0);stroke-width:1;" d="M 705.333, 670.222 L 777.333, 644 L 792.889, 668.444 L 798.667, 677.778 L 784.444, 683.111 L 794.222, 698.222 L 796.889, 697.333 L 826.222, 744 L 777.778, 761.333 L 748.889, 715.111 L 750.667, 714.667 L 744.889, 705.333 L 742.222, 706.667 L 732.444, 690.667 L 720.889, 695.111 L 705.333, 670.222 z "/>
<path style="fill:rgb(255, 255, 0);fill-opacity:0;fill-rule:evenodd;stroke:rgb(255, 23, 0);stroke-width:1;" d="M 2216.89, 195.556 L 2252.89, 182.222 L 2262.67, 196.889 L 2268.44, 197.778 L 2304.89, 184.444 L 2294.67, 168 L 2330.67, 154.667 L 2358.67, 198.222 L 2293.78, 222.222 L 2300.89, 233.333 L 2276.44, 242.222 L 2252.44, 251.111 L 2216.89, 195.556 z "/>
<path style="fill:rgb(255, 0, 0);fill-opacity:0;fill-rule:evenodd;stroke:rgb(255, 23, 0);stroke-width:1;" d="M 1216.44, 252.889 L 1248, 241.778 L 1268, 273.778 L 1288, 305.778 L 1300.44, 325.778 L 1269.33, 336.889 L 1216.44, 252.889 z "/>
<path style="fill:rgb(0, 255, 0);fill-opacity:0;fill-rule:evenodd;stroke:rgb(255, 23, 0);stroke-width:1;" d="M 1175.11, 266.667 L 1204, 256.889 L 1255.56, 342.667 L 1253.78, 343.111 L 1226.22, 352.889 L 1175.11, 266.667 z "/>
<path style="fill:rgb(0, 0, 255);fill-opacity:0;fill-rule:evenodd;stroke:rgb(255, 23, 0);stroke-width:1;" d="M 208, 514.222 L 241.333, 490.222 L 267.111, 511.111 L 317.333, 551.111 L 289.778, 571.111 L 269.333, 554.667 L 274.667, 551.111 L 226.667, 512.444 L 215.556, 520.444 L 208, 514.222 z "/>
<path style="fill:rgb(255, 255, 0);fill-opacity:0;fill-rule:evenodd;stroke:rgb(255, 23, 0);stroke-width:1;" d="M 2030.67, 396.889 L 2052.89, 389.333 L 2056, 394.667 L 2063.56, 392.444 L 2060, 386.667 L 2136.44, 359.556 L 2141.33, 367.556 L 2131.11, 371.111 L 2140.44, 385.778 L 2076.44, 408.444 L 2079.56, 413.778 L 2048, 424.889 L 2030.67, 396.889 z "/>
<path style="fill:rgb(255, 0, 0);fill-opacity:0;fill-rule:evenodd;stroke:rgb(255, 23, 0);stroke-width:1;" d="M 1344.44, 259.556 L 1379.56, 247.111 L 1394.22, 257.333 L 1420.89, 303.556 L 1380.89, 317.778 L 1357.78, 281.333 L 1344.44, 259.556 z "/>
<path style="fill:rgb(0, 255, 0);fill-opacity:0;fill-rule:evenodd;stroke:rgb(255, 23, 0);stroke-width:1;" d="M 164.444, 545.778 L 185.778, 530.222 L 262.222, 591.111 L 231.556, 613.333 L 207.556, 593.778 L 216.444, 587.556 L 164.444, 545.778 z "/>
<path style="fill:rgb(0, 0, 255);fill-opacity:0;fill-rule:evenodd;stroke:rgb(255, 23, 0);stroke-width:1;" d="M 2013.78, 369.778 L 2045.78, 358.222 L 2049.33, 363.556 L 2112.89, 340.889 L 2121.78, 355.556 L 2132, 352 L 2136.44, 359.556 L 2060, 386.667 L 2056.89, 381.333 L 2049.33, 384 L 2052.89, 389.333 L 2030.67, 396.889 L 2013.78, 369.778 z "/>
<path style="fill:rgb(255, 255, 0);fill-opacity:0;fill-rule:evenodd;stroke:rgb(255, 23, 0);stroke-width:1;" d="M 1997.33, 342.667 L 2103.11, 305.333 L 2107.56, 312.444 L 2097.33, 316 L 2106.22, 330.222 L 2042.67, 352.889 L 2045.78, 358.222 L 2013.78, 369.778 L 1997.33, 342.667 z "/>
<path style="fill:rgb(255, 0, 0);fill-opacity:0;fill-rule:evenodd;stroke:rgb(255, 23, 0);stroke-width:1;" d="M 2048, 424.889 L 2079.56, 413.778 L 2082.67, 418.222 L 2146.67, 395.556 L 2155.56, 410.222 L 2165.78, 406.667 L 2169.78, 413.333 L 2064, 451.111 L 2048, 424.889 z "/>
<path style="fill:rgb(0, 255, 0);fill-opacity:0;fill-rule:evenodd;stroke:rgb(255, 23, 0);stroke-width:1;" d="M 185.778, 530.222 L 208, 514.222 L 215.556, 520.444 L 264, 558.667 L 269.333, 554.667 L 289.778, 571.111 L 262.222, 591.111 L 185.778, 530.222 z "/>
<path style="fill:rgb(0, 0, 255);fill-opacity:0;fill-rule:evenodd;stroke:rgb(255, 23, 0);stroke-width:1;" d="M 1994.22, 570.222 L 2021.78, 560.444 L 2053.78, 612.444 L 2026.22, 622.222 L 1994.22, 570.222 z "/>
<path style="fill:rgb(255, 255, 0);fill-opacity:0;fill-rule:evenodd;stroke:rgb(255, 23, 0);stroke-width:1;" d="M 1912, 599.556 L 1940, 589.778 L 1972, 641.778 L 1944.44, 651.556 L 1912, 599.556 z "/>
<path style="fill:rgb(255, 0, 0);fill-opacity:0;fill-rule:evenodd;stroke:rgb(255, 23, 0);stroke-width:1;" d="M 2047.11, 551.556 L 2074.67, 541.333 L 2107.11, 593.778 L 2079.56, 603.556 L 2047.11, 551.556 z "/>
<path style="fill:rgb(0, 255, 0);fill-opacity:0;fill-rule:evenodd;stroke:rgb(255, 23, 0);stroke-width:1;" d="M 1966.22, 580.444 L 1994.22, 570.222 L 2026.22, 622.222 L 1999.56, 632 L 1966.22, 580.444 z "/>
<path style="fill:rgb(0, 0, 255);fill-opacity:0;fill-rule:evenodd;stroke:rgb(255, 23, 0);stroke-width:1;" d="M 1940, 589.778 L 1966.22, 580.444 L 1999.56, 632 L 1972, 641.778 L 1940, 589.778 z "/>
<path style="fill:rgb(255, 255, 0);fill-opacity:0;fill-rule:evenodd;stroke:rgb(255, 23, 0);stroke-width:1;" d="M 1811.11, 636 L 1837.33, 626.222 L 1871.11, 677.778 L 1843.56, 688 L 1823.56, 655.556 L 1811.11, 636 z "/>
<path style="fill:rgb(255, 0, 0);fill-opacity:0;fill-rule:evenodd;stroke:rgb(255, 23, 0);stroke-width:1;" d="M 2074.67, 541.333 L 2100.44, 532.444 L 2132.89, 584.444 L 2107.11, 593.778 L 2074.67, 541.333 z "/>
<path style="fill:rgb(0, 255, 0);fill-opacity:0;fill-rule:evenodd;stroke:rgb(255, 23, 0);stroke-width:1;" d="M 1862.22, 617.778 L 1887.56, 608.444 L 1920.89, 660 L 1895.11, 669.333 L 1862.22, 617.778 z "/>
<path style="fill:rgb(0, 0, 255);fill-opacity:0;fill-rule:evenodd;stroke:rgb(255, 23, 0);stroke-width:1;" d="M 2021.78, 560.444 L 2047.11, 551.556 L 2079.56, 603.556 L 2053.78, 612.444 L 2021.78, 560.444 z "/>
<path style="fill:rgb(255, 255, 0);fill-opacity:0;fill-rule:evenodd;stroke:rgb(255, 23, 0);stroke-width:1;" d="M 1837.33, 626.222 L 1862.22, 617.778 L 1895.11, 669.333 L 1871.11, 677.778 L 1837.33, 626.222 z "/>
<path style="fill:rgb(255, 0, 0);fill-opacity:0;fill-rule:evenodd;stroke:rgb(255, 23, 0);stroke-width:1;" d="M 1887.56, 608.444 L 1912, 599.556 L 1944.44, 651.556 L 1920.89, 660 L 1887.56, 608.444 z "/>
</svg>