<?xml version="1.0" encoding="iso-8859-1" standalone="no"?>
<!DOCTYPE svg PUBLIC "-//W3C//DTD SVG 1.0//EN" "http://www.w3.org/TR/2001/REC-SVG-20010904/DTD/svg10.dtd">
<svg xmlns="http://www.w3.org/2000/svg" width="1042" height="800">
<path style="fill:rgb(255, 0, 0);fill-opacity:0;fill-rule:evenodd;stroke:rgb(255, 219, 0);stroke-width:1;" d="M 583.519, 337.996 L 591.715, 326.592 L 594.566, 327.661 L 638.575, 267.261 L 635.902, 266.192 L 644.098, 255.145 L 675.1, 268.151 L 672.784, 271.359 L 685.612, 276.704 L 689.71, 278.486 L 692.027, 275.278 L 724.989, 289.176 L 724.098, 290.245 L 735.857, 295.234 L 728.552, 305.39 L 730.334, 306.102 L 721.96, 317.862 L 720, 317.149 L 718.04, 319.644 L 729.621, 324.276 L 742.272, 306.281 L 739.421, 305.033 L 744.588, 297.55 L 755.635, 302.004 L 750.468, 309.488 L 746.548, 307.884 L 730.512, 330.869 L 714.655, 324.276 L 712.339, 327.661 L 713.586, 328.196 L 696.837, 351.18 L 693.808, 349.755 L 674.566, 376.303 L 583.519, 337.996 z M 631.804, 325.523 L 682.405, 346.726 L 699.51, 323.207 L 648.909, 302.004 L 648.374, 302.717 L 653.898, 305.033 L 650.156, 310.2 L 653.898, 311.804 L 651.759, 314.655 L 648.552, 313.229 L 641.425, 323.029 L 637.327, 321.247 L 636.08, 323.029 L 634.12, 322.316 L 631.804, 325.523 z M 688.998, 342.094 L 694.699, 344.41 L 697.728, 340.134 L 692.205, 337.817 L 688.998, 342.094 z "/>
<path style="fill:rgb(0, 255, 0);fill-opacity:0;fill-rule:evenodd;stroke:rgb(255, 219, 0);stroke-width:1;" d="M 38.4855, 519.376 L 58.0846, 462.004 L 56.3029, 461.648 L 73.0512, 412.472 L 75.902, 413.185 L 134.699, 424.41 L 119.911, 468.241 L 109.577, 466.281 L 107.795, 471.626 L 101.737, 470.379 L 88.5523, 509.042 L 105.122, 512.428 L 91.4031, 531.136 L 87.4833, 536.837 L 47.5724, 523.653 L 48.2851, 521.336 L 38.4855, 519.376 z "/>
<path style="fill:rgb(0, 0, 255);fill-opacity:0;fill-rule:evenodd;stroke:rgb(255, 219, 0);stroke-width:1;" d="M 853.63, 734.076 L 913.14, 652.65 L 963.92, 674.031 L 919.911, 734.254 L 904.41, 755.457 L 853.63, 734.076 z "/>
<path style="fill:rgb(255, 255, 0);fill-opacity:0;fill-rule:evenodd;stroke:rgb(255, 219, 0);stroke-width:1;" d="M 75.902, 413.185 L 93.5412, 361.871 L 90.5122, 361.336 L 106.726, 313.764 L 115.813, 315.546 L 116.169, 314.477 L 143.43, 323.207 L 129.176, 365.078 L 130.423, 365.791 L 130.78, 366.325 L 131.314, 367.572 L 132.205, 367.751 L 131.849, 369.71 L 151.626, 373.808 L 134.699, 424.41 L 75.902, 413.185 z "/>
<path style="fill:rgb(255, 0, 0);fill-opacity:0;fill-rule:evenodd;stroke:rgb(255, 219, 0);stroke-width:1;" d="M 627.706, 214.165 L 639.465, 184.944 L 655.323, 188.33 L 654.788, 189.755 L 668.686, 192.428 L 671.359, 182.984 L 658.53, 180.668 L 657.817, 182.272 L 642.138, 178.708 L 651.938, 154.12 L 720.356, 167.483 L 716.437, 179.243 L 714.298, 185.479 L 687.038, 179.955 L 685.612, 184.588 L 690.601, 185.657 L 691.314, 187.617 L 710.022, 191.537 L 704.321, 207.929 L 685.791, 203.653 L 684.187, 205.256 L 678.842, 203.831 L 676.882, 208.463 L 702.717, 213.808 L 700.579, 219.154 L 702.717, 219.51 L 694.878, 242.316 L 653.719, 224.855 L 658.886, 217.55 L 659.955, 217.728 L 664.232, 212.383 L 660.49, 210.245 L 658.174, 209.532 L 654.61, 209.71 L 646.236, 221.648 L 627.706, 214.165 z "/>
<path style="fill:rgb(0, 255, 0);fill-opacity:0;fill-rule:evenodd;stroke:rgb(255, 219, 0);stroke-width:1;" d="M 759.02, 269.042 L 763.118, 256.748 L 763.653, 255.323 L 772.027, 256.927 L 776.303, 244.276 L 768.285, 242.851 L 770.958, 234.655 L 807.661, 241.604 L 804.633, 250.334 L 803.029, 249.978 L 801.96, 253.541 L 811.938, 255.501 L 815.857, 243.385 L 834.744, 246.949 L 827.795, 267.617 L 832.784, 268.508 L 833.675, 266.192 L 837.238, 266.904 L 845.434, 242.138 L 867.884, 246.592 L 849.889, 305.924 L 849.354, 306.459 L 848.463, 306.459 L 792.873, 283.296 L 797.862, 267.617 L 801.425, 268.33 L 802.673, 264.588 L 793.586, 262.45 L 790.2, 263.519 L 784.143, 279.733 L 759.02, 269.042 z M 823.875, 282.94 L 832.606, 284.9 L 834.566, 278.664 L 826.192, 276.882 L 823.875, 282.94 z "/>
<path style="fill:rgb(0, 0, 255);fill-opacity:0;fill-rule:evenodd;stroke:rgb(255, 219, 0);stroke-width:1;" d="M 800.891, 152.695 L 808.018, 129.889 L 811.225, 130.423 L 818.708, 106.37 L 836.169, 109.577 L 837.238, 109.755 L 833.14, 123.118 L 838.664, 124.187 L 839.911, 120.267 L 850.245, 122.049 L 853.274, 112.428 L 868.775, 115.1 L 870.2, 115.457 L 863.608, 136.659 L 874.298, 138.619 L 876.615, 130.423 L 881.425, 131.136 L 885.167, 119.02 L 905.657, 122.584 L 891.047, 170.156 L 800.891, 152.695 z "/>
<path style="fill:rgb(255, 255, 0);fill-opacity:0;fill-rule:evenodd;stroke:rgb(255, 219, 0);stroke-width:1;" d="M 201.514, 213.987 L 206.86, 212.918 L 307.171, 255.323 L 292.561, 275.457 L 291.849, 274.922 L 277.773, 293.452 L 240.891, 277.951 L 238.575, 280.802 L 239.465, 283.474 L 224.855, 286.147 L 201.514, 213.987 z M 232.695, 245.345 L 237.149, 260.312 L 240.713, 262.094 L 249.978, 260.49 L 252.65, 256.748 L 250.869, 250.334 L 236.615, 244.633 L 232.695, 245.345 z M 258.708, 267.617 L 274.031, 273.675 L 281.336, 263.163 L 270.29, 258.708 L 266.013, 256.927 L 258.708, 267.617 z "/>
<path style="fill:rgb(255, 0, 0);fill-opacity:0;fill-rule:evenodd;stroke:rgb(255, 219, 0);stroke-width:1;" d="M 739.955, 376.303 L 769.71, 335.323 L 817.639, 355.457 L 834.566, 362.762 L 831.537, 376.481 L 829.042, 377.016 L 819.243, 390.022 L 817.283, 389.131 L 816.214, 390.913 L 820.312, 393.051 L 823.519, 391.269 L 827.261, 392.873 L 827.261, 395.724 L 824.053, 411.581 L 809.978, 405.523 L 739.955, 376.303 z "/>
<path style="fill:rgb(0, 255, 0);fill-opacity:0;fill-rule:evenodd;stroke:rgb(255, 219, 0);stroke-width:1;" d="M 775.768, 221.826 L 780.757, 207.216 L 784.499, 207.929 L 788.419, 207.394 L 792.16, 196.347 L 784.677, 194.922 L 789.666, 180.49 L 810.512, 184.588 L 804.098, 203.296 L 814.967, 205.434 L 816.927, 200.089 L 813.719, 199.376 L 818.352, 186.192 L 883.563, 199.02 L 867.884, 246.592 L 845.434, 242.138 L 838.664, 241.247 L 845.612, 220.935 L 839.02, 219.51 L 837.416, 223.964 L 835.635, 225.568 L 834.744, 225.39 L 832.071, 232.873 L 813.898, 229.131 L 816.214, 222.539 L 814.254, 218.976 L 815.857, 214.699 L 809.8, 213.452 L 804.989, 227.706 L 775.768, 221.826 z "/>
<path style="fill:rgb(0, 0, 255);fill-opacity:0;fill-rule:evenodd;stroke:rgb(255, 219, 0);stroke-width:1;" d="M 529.532, 457.728 L 547.706, 410.69 L 566.058, 418.708 L 568.909, 419.955 L 566.771, 422.806 L 569.443, 425.122 L 634.12, 452.383 L 621.114, 470.022 L 623.43, 471.091 L 608.998, 491.047 L 529.532, 457.728 z M 557.327, 449.889 L 572.116, 456.303 L 580.49, 445.256 L 576.57, 443.653 L 579.065, 440.089 L 573.898, 437.773 L 571.047, 441.514 L 565.523, 439.198 L 557.327, 449.889 z M 582.806, 458.085 L 590.111, 461.114 L 587.617, 464.499 L 593.853, 467.171 L 595.813, 466.459 L 605.791, 452.739 L 591.18, 446.682 L 582.806, 458.085 z "/>
<path style="fill:rgb(255, 255, 0);fill-opacity:0;fill-rule:evenodd;stroke:rgb(255, 219, 0);stroke-width:1;" d="M 859.332, 543.786 L 868.419, 501.559 L 871.982, 496.214 L 877.506, 495.145 L 944.855, 524.009 L 944.499, 524.543 L 935.412, 536.837 L 927.038, 548.062 L 918.842, 558.931 L 913.318, 566.236 L 898.53, 560.178 L 884.276, 554.298 L 859.332, 543.786 z "/>
<path style="fill:rgb(255, 0, 0);fill-opacity:0;fill-rule:evenodd;stroke:rgb(255, 219, 0);stroke-width:1;" d="M 818.708, 106.37 L 826.192, 81.4254 L 840.624, 83.9198 L 842.405, 78.2183 L 827.439, 75.5457 L 832.784, 58.0846 L 920.267, 74.4766 L 914.922, 92.1158 L 887.661, 87.3051 L 885.523, 94.0757 L 912.784, 98.8864 L 905.657, 122.584 L 885.167, 119.02 L 884.811, 119.02 L 887.661, 109.755 L 871.269, 106.904 L 868.775, 115.1 L 853.274, 112.428 L 852.739, 112.428 L 855.412, 103.341 L 839.02, 100.49 L 836.169, 109.577 L 818.708, 106.37 z M 850.958, 90.8686 L 871.804, 94.6102 L 875.546, 82.4944 L 871.091, 81.7817 L 854.699, 78.931 L 850.958, 90.8686 z "/>
<path style="fill:rgb(0, 255, 0);fill-opacity:0;fill-rule:evenodd;stroke:rgb(255, 219, 0);stroke-width:1;" d="M 547.706, 410.69 L 566.592, 363.653 L 650.512, 400 L 636.437, 418.886 L 634.833, 418.174 L 621.648, 435.813 L 604.365, 430.468 L 576.57, 418.886 L 577.461, 417.817 L 571.225, 414.967 L 568.018, 416.214 L 566.058, 418.708 L 547.706, 410.69 z M 596.169, 413.007 L 611.136, 419.243 L 617.728, 410.334 L 616.659, 407.305 L 606.325, 402.851 L 602.584, 404.098 L 596.169, 413.007 z M 574.788, 399.109 L 576.927, 401.247 L 588.686, 406.236 L 596.704, 395.546 L 585.657, 390.913 L 581.203, 390.557 L 574.788, 399.109 z "/>
<path style="fill:rgb(0, 0, 255);fill-opacity:0;fill-rule:evenodd;stroke:rgb(255, 219, 0);stroke-width:1;" d="M 662.272, 736.748 L 673.675, 721.069 L 672.249, 720.356 L 688.285, 697.906 L 707.884, 706.281 L 696.303, 722.138 L 703.252, 725.167 L 715.011, 709.131 L 753.497, 725.345 L 749.577, 772.918 L 737.817, 772.383 L 726.949, 767.751 L 725.523, 767.216 L 727.305, 747.795 L 718.931, 744.41 L 707.528, 760.089 L 687.394, 751.537 L 688.107, 750.646 L 694.165, 742.272 L 686.503, 739.065 L 682.049, 745.122 L 662.272, 736.748 z "/>
<path style="fill:rgb(255, 255, 0);fill-opacity:0;fill-rule:evenodd;stroke:rgb(255, 219, 0);stroke-width:1;" d="M 848.285, 591.893 L 851.849, 575.857 L 862.717, 577.105 L 863.43, 576.748 L 866.993, 577.283 L 868.953, 570.69 L 864.499, 570.334 L 864.499, 569.8 L 853.452, 568.731 L 859.332, 543.786 L 884.276, 554.298 L 879.644, 560.535 L 894.076, 566.592 L 898.53, 560.178 L 913.318, 566.236 L 915.1, 567.127 L 910.29, 573.719 L 908.33, 572.829 L 905.657, 576.392 L 917.06, 581.024 L 921.871, 574.432 L 944.143, 583.697 L 937.016, 593.675 L 939.332, 596.347 L 920.445, 622.361 L 893.007, 610.78 L 899.065, 602.405 L 901.024, 603.296 L 906.013, 596.526 L 890.156, 589.755 L 885.167, 596.704 L 887.661, 597.595 L 881.604, 605.969 L 848.285, 591.893 z "/>
<path style="fill:rgb(255, 0, 0);fill-opacity:0;fill-rule:evenodd;stroke:rgb(255, 219, 0);stroke-width:1;" d="M 704.855, 531.849 L 720.178, 511.002 L 722.138, 510.646 L 736.57, 490.869 L 758.842, 500.312 L 747.439, 515.991 L 752.428, 517.951 L 753.14, 517.238 L 754.744, 517.951 L 756.704, 515.278 L 760.98, 517.06 L 757.951, 521.158 L 761.871, 522.762 L 773.63, 506.726 L 799.644, 517.416 L 789.131, 563.385 L 784.499, 565.167 L 733.007, 543.608 L 744.944, 527.394 L 736.214, 523.831 L 724.454, 540.045 L 704.855, 531.849 z "/>
<path style="fill:rgb(0, 255, 0);fill-opacity:0;fill-rule:evenodd;stroke:rgb(255, 219, 0);stroke-width:1;" d="M 215.234, 691.136 L 228.597, 673.497 L 226.281, 672.428 L 241.247, 652.472 L 319.465, 686.325 L 306.815, 703.073 L 275.813, 689.532 L 271.18, 695.768 L 301.114, 708.775 L 287.216, 727.483 L 269.933, 720 L 271.715, 717.684 L 271.18, 715.367 L 215.234, 691.136 z M 243.029, 689.532 L 254.967, 694.699 L 258.886, 695.234 L 266.548, 684.722 L 257.105, 680.802 L 258.53, 678.664 L 252.65, 676.169 L 243.029, 689.532 z "/>
<path style="fill:rgb(0, 0, 255);fill-opacity:0;fill-rule:evenodd;stroke:rgb(255, 219, 0);stroke-width:1;" d="M 226.459, 469.844 L 235.189, 443.831 L 254.967, 447.751 L 251.581, 457.372 L 264.41, 459.866 L 273.675, 432.606 L 261.024, 430.111 L 257.996, 439.02 L 238.218, 435.1 L 249.443, 402.316 L 266.904, 408.552 L 264.766, 414.61 L 291.314, 423.697 L 295.056, 418.53 L 302.361, 421.024 L 311.982, 424.588 L 296.837, 445.612 L 294.878, 444.9 L 292.561, 448.107 L 294.343, 448.82 L 282.762, 465.033 L 283.296, 466.102 L 268.33, 487.127 L 226.459, 469.844 z "/>
<path style="fill:rgb(255, 255, 0);fill-opacity:0;fill-rule:evenodd;stroke:rgb(255, 219, 0);stroke-width:1;" d="M 714.833, 473.764 L 722.673, 462.717 L 729.8, 465.746 L 737.639, 454.699 L 730.69, 451.849 L 740.846, 437.595 L 760.802, 445.612 L 750.646, 459.866 L 754.388, 461.47 L 758.129, 462.895 L 768.285, 448.82 L 785.39, 455.768 L 775.412, 470.022 L 783.252, 473.229 L 793.229, 458.976 L 811.938, 466.637 L 801.604, 512.071 L 773.452, 500.49 L 781.826, 488.731 L 782.717, 489.087 L 785.212, 485.702 L 776.659, 482.138 L 767.038, 495.857 L 750.646, 489.087 L 754.031, 484.454 L 752.249, 483.742 L 755.635, 479.109 L 749.755, 476.793 L 743.519, 485.523 L 714.833, 473.764 z "/>
<path style="fill:rgb(255, 0, 0);fill-opacity:0;fill-rule:evenodd;stroke:rgb(255, 219, 0);stroke-width:1;" d="M 384.143, 679.911 L 414.432, 642.138 L 433.853, 650.334 L 429.399, 656.214 L 430.824, 658.174 L 439.02, 661.559 L 446.682, 650.869 L 464.677, 658.53 L 457.194, 668.686 L 464.321, 671.537 L 466.281, 668.864 L 470.2, 668.151 L 480, 672.249 L 469.131, 687.038 L 470.557, 687.751 L 454.699, 709.488 L 438.486, 702.717 L 448.285, 689.354 L 448.285, 687.216 L 442.584, 684.722 L 431.537, 699.866 L 412.829, 692.027 L 423.875, 676.882 L 416.927, 673.853 L 405.88, 688.998 L 384.143, 679.911 z "/>
<path style="fill:rgb(0, 255, 0);fill-opacity:0;fill-rule:evenodd;stroke:rgb(255, 219, 0);stroke-width:1;" d="M 68.2405, 646.771 L 75.3675, 624.855 L 94.0757, 628.419 L 93.7194, 629.844 L 103.163, 631.626 L 107.973, 616.837 L 99.5991, 615.234 L 98.3519, 618.797 L 79.2873, 615.234 L 90.3341, 580.668 L 107.795, 587.973 L 106.37, 592.249 L 107.795, 594.744 L 106.013, 600.089 L 120.624, 602.94 L 123.118, 594.209 L 141.114, 601.693 L 132.027, 627.706 L 118.842, 624.855 L 116.347, 632.16 L 129.532, 634.833 L 117.951, 667.795 L 101.381, 660.49 L 102.984, 656.214 L 101.381, 655.857 L 104.232, 647.661 L 97.1047, 646.236 L 96.0356, 649.087 L 86.0579, 647.127 L 83.9198, 653.363 L 68.2405, 646.771 z "/>
<path style="fill:rgb(0, 0, 255);fill-opacity:0;fill-rule:evenodd;stroke:rgb(255, 219, 0);stroke-width:1;" d="M 427.973, 355.991 L 438.842, 341.203 L 459.154, 349.755 L 464.321, 342.806 L 457.194, 339.777 L 456.481, 340.846 L 441.871, 334.61 L 454.699, 317.327 L 520.624, 345.301 L 513.318, 363.831 L 487.127, 352.962 L 490.869, 347.795 L 483.207, 344.588 L 470.557, 361.871 L 477.684, 364.9 L 481.604, 359.733 L 509.755, 371.67 L 502.094, 391.091 L 487.305, 384.677 L 481.96, 382.539 L 485.167, 378.263 L 476.971, 374.699 L 475.902, 376.303 L 427.973, 355.991 z "/>
<path style="fill:rgb(255, 255, 0);fill-opacity:0;fill-rule:evenodd;stroke:rgb(255, 219, 0);stroke-width:1;" d="M 121.158, 210.245 L 122.405, 131.314 L 166.058, 141.292 L 163.385, 170.69 L 155.011, 170.334 L 153.051, 211.67 L 149.31, 211.492 L 149.131, 214.521 L 153.408, 215.947 L 151.091, 220.045 L 136.125, 215.234 L 136.481, 213.452 L 134.343, 213.274 L 134.165, 210.245 L 121.158, 210.245 z "/>
<path style="fill:rgb(255, 0, 0);fill-opacity:0;fill-rule:evenodd;stroke:rgb(255, 219, 0);stroke-width:1;" d="M 899.243, 460.045 L 930.601, 417.105 L 944.855, 422.984 L 952.695, 426.37 L 942.895, 440.089 L 950.022, 442.94 L 952.517, 439.555 L 958.04, 441.871 L 955.546, 445.256 L 963.207, 448.463 L 972.65, 435.457 L 979.955, 438.486 L 993.318, 444.009 L 977.817, 465.39 L 979.243, 465.924 L 964.098, 486.771 L 936.481, 475.189 L 944.499, 464.321 L 949.844, 466.459 L 956.258, 457.728 L 935.947, 449.176 L 929.354, 458.263 L 935.412, 460.757 L 927.394, 471.804 L 899.243, 460.045 z "/>
<path style="fill:rgb(0, 255, 0);fill-opacity:0;fill-rule:evenodd;stroke:rgb(255, 219, 0);stroke-width:1;" d="M 421.559, 634.655 L 451.314, 597.773 L 469.666, 605.434 L 459.688, 619.332 L 466.281, 622.004 L 469.131, 620.223 L 477.327, 608.82 L 492.472, 615.056 L 481.96, 629.844 L 488.196, 632.517 L 491.225, 631.626 L 500.668, 618.441 L 516.169, 625.033 L 500.49, 646.592 L 498.352, 645.702 L 487.84, 660.312 L 478.931, 656.57 L 478.396, 653.719 L 480, 651.403 L 472.16, 648.196 L 464.677, 658.53 L 446.682, 650.869 L 454.699, 640 L 446.86, 636.793 L 443.118, 636.615 L 439.376, 641.96 L 421.559, 634.655 z "/>
<path style="fill:rgb(0, 0, 255);fill-opacity:0;fill-rule:evenodd;stroke:rgb(255, 219, 0);stroke-width:1;" d="M 323.92, 762.94 L 337.105, 740.49 L 358.664, 712.16 L 380.579, 721.604 L 362.049, 747.261 L 369.889, 750.646 L 388.419, 724.811 L 411.938, 734.61 L 402.316, 747.973 L 397.862, 746.013 L 372.205, 781.648 L 355.635, 774.699 L 362.94, 764.722 L 365.434, 765.791 L 367.572, 762.762 L 357.416, 758.664 L 347.261, 772.739 L 323.92, 762.94 z "/>
<path style="fill:rgb(255, 255, 0);fill-opacity:0;fill-rule:evenodd;stroke:rgb(255, 219, 0);stroke-width:1;" d="M 224.855, 286.147 L 239.465, 283.474 L 243.385, 282.762 L 246.771, 284.187 L 245.523, 286.147 L 247.127, 291.492 L 260.49, 296.481 L 263.697, 291.67 L 275.991, 296.481 L 274.209, 299.332 L 306.815, 313.229 L 296.125, 329.265 L 282.762, 324.098 L 278.129, 331.225 L 282.584, 333.007 L 283.831, 331.047 L 292.739, 334.61 L 280.445, 352.606 L 240.535, 335.323 L 224.855, 286.147 z M 252.65, 312.517 L 256.036, 322.673 L 267.082, 327.127 L 274.744, 316.437 L 255.501, 308.419 L 252.65, 312.517 z "/>
<path style="fill:rgb(255, 0, 0);fill-opacity:0;fill-rule:evenodd;stroke:rgb(255, 219, 0);stroke-width:1;" d="M 704.499, 614.699 L 716.258, 598.842 L 715.367, 596.169 L 730.334, 575.857 L 781.292, 597.238 L 770.067, 646.058 L 753.497, 638.931 L 745.122, 635.367 L 747.617, 624.677 L 730.69, 622.361 L 728.731, 625.033 L 704.499, 614.699 z M 733.007, 609.354 L 747.795, 615.59 L 754.388, 606.147 L 752.071, 603.118 L 740.846, 598.486 L 733.007, 609.354 z "/>
<path style="fill:rgb(0, 255, 0);fill-opacity:0;fill-rule:evenodd;stroke:rgb(255, 219, 0);stroke-width:1;" d="M 689.532, 665.122 L 704.321, 644.633 L 706.281, 645.523 L 720.891, 625.39 L 739.243, 632.873 L 733.719, 640.356 L 734.076, 642.673 L 731.403, 645.88 L 735.679, 647.661 L 737.105, 645.702 L 742.272, 647.661 L 740.668, 649.978 L 744.588, 651.581 L 753.497, 638.931 L 770.067, 646.058 L 758.842, 694.165 L 726.236, 680.445 L 736.748, 665.835 L 739.243, 665.479 L 740.49, 666.013 L 742.272, 663.341 L 726.592, 656.927 L 721.604, 663.875 L 726.592, 666.013 L 718.396, 677.238 L 689.532, 665.122 z "/>
<path style="fill:rgb(0, 0, 255);fill-opacity:0;fill-rule:evenodd;stroke:rgb(255, 219, 0);stroke-width:1;" d="M 526.86, 596.347 L 535.947, 583.697 L 546.281, 587.973 L 553.942, 577.283 L 543.786, 573.007 L 551.982, 561.604 L 583.697, 574.967 L 579.065, 581.559 L 578.352, 581.203 L 574.788, 586.013 L 583.697, 589.933 L 587.261, 585.301 L 586.192, 584.766 L 591.002, 578.174 L 622.539, 591.359 L 614.165, 602.584 L 604.365, 598.486 L 596.526, 609.176 L 606.503, 613.274 L 604.543, 615.947 L 597.238, 625.924 L 567.305, 613.452 L 577.461, 599.733 L 566.949, 595.278 L 556.971, 608.998 L 526.86, 596.347 z "/>
<path style="fill:rgb(255, 255, 0);fill-opacity:0;fill-rule:evenodd;stroke:rgb(255, 219, 0);stroke-width:1;" d="M 251.403, 560.891 L 260.134, 548.597 L 267.617, 551.626 L 276.347, 539.51 L 269.22, 536.481 L 277.773, 524.722 L 304.321, 535.768 L 287.572, 558.931 L 304.855, 566.236 L 321.604, 542.895 L 348.33, 553.942 L 339.243, 566.414 L 332.116, 563.385 L 323.742, 575.323 L 330.334, 577.996 L 321.604, 590.111 L 251.403, 560.891 z "/>
<path style="fill:rgb(255, 0, 0);fill-opacity:0;fill-rule:evenodd;stroke:rgb(255, 219, 0);stroke-width:1;" d="M 662.806, 126.147 L 670.646, 106.192 L 698.441, 111.715 L 697.728, 113.675 L 709.666, 115.991 L 713.586, 104.41 L 701.648, 102.094 L 700.935, 103.875 L 674.388, 98.7082 L 682.405, 78.931 L 700.935, 82.4944 L 699.688, 86.0579 L 738.53, 93.5412 L 731.403, 114.922 L 733.541, 115.278 L 725.88, 138.263 L 662.806, 126.147 z "/>
<path style="fill:rgb(0, 255, 0);fill-opacity:0;fill-rule:evenodd;stroke:rgb(255, 219, 0);stroke-width:1;" d="M 463.252, 114.031 L 488.196, 103.875 L 519.911, 148.597 L 513.853, 151.091 L 519.02, 158.575 L 528.107, 160.535 L 529.354, 162.316 L 533.274, 160.535 L 536.481, 159.822 L 539.688, 159.465 L 543.252, 159.287 L 546.637, 159.465 L 550.022, 160 L 553.229, 160.713 L 555.546, 155.724 L 569.087, 158.931 L 563.385, 173.363 L 549.844, 170.334 L 551.626, 165.702 L 550.022, 165.167 L 546.637, 164.811 L 545.033, 164.633 L 541.648, 164.811 L 538.263, 165.345 L 535.056, 166.236 L 533.452, 168.196 L 530.601, 175.857 L 519.911, 179.421 L 511.002, 177.639 L 508.151, 177.996 L 505.301, 179.065 L 503.519, 180.312 L 501.915, 181.737 L 500.312, 184.232 L 499.599, 185.835 L 499.421, 187.261 L 504.588, 188.508 L 501.559, 195.813 L 481.425, 191.002 L 484.276, 183.697 L 490.69, 185.301 L 491.759, 183.697 L 493.719, 180.846 L 497.461, 177.283 L 501.915, 174.076 L 506.904, 171.759 L 506.013, 170.512 L 507.973, 164.454 L 503.519, 155.902 L 497.105, 158.396 L 479.465, 133.452 L 477.506, 134.165 L 463.252, 114.031 z "/>
<path style="fill:rgb(0, 0, 255);fill-opacity:0;fill-rule:evenodd;stroke:rgb(255, 219, 0);stroke-width:1;" d="M 497.105, 529.176 L 507.617, 509.755 L 538.263, 522.762 L 542.539, 516.704 L 509.399, 503.697 L 516.704, 487.661 L 520.089, 486.949 L 580.846, 512.784 L 569.265, 528.641 L 556.258, 523.118 L 551.804, 529.354 L 563.029, 534.165 L 552.517, 548.419 L 515.1, 532.561 L 512.784, 535.768 L 497.105, 529.176 z "/>
<path style="fill:rgb(255, 255, 0);fill-opacity:0;fill-rule:evenodd;stroke:rgb(255, 219, 0);stroke-width:1;" d="M 355.1, 320.713 L 361.693, 311.804 L 368.641, 314.655 L 376.659, 303.786 L 373.987, 301.826 L 369.71, 300.045 L 379.866, 286.147 L 408.552, 298.441 L 400.535, 309.131 L 399.109, 311.091 L 396.437, 309.844 L 389.844, 318.753 L 407.127, 326.058 L 413.363, 317.327 L 410.512, 316.258 L 420.134, 303.252 L 447.751, 315.011 L 437.595, 328.909 L 430.646, 326.058 L 422.628, 336.927 L 429.577, 339.777 L 422.45, 349.399 L 355.1, 320.713 z "/>
<path style="fill:rgb(255, 0, 0);fill-opacity:0;fill-rule:evenodd;stroke:rgb(255, 219, 0);stroke-width:1;" d="M 288.463, 292.561 L 295.234, 283.474 L 301.114, 286.147 L 308.953, 275.457 L 302.539, 272.784 L 313.408, 257.996 L 341.024, 269.577 L 331.403, 282.94 L 328.731, 281.693 L 322.316, 290.245 L 339.421, 297.55 L 345.657, 288.998 L 342.984, 287.751 L 352.606, 274.566 L 379.866, 286.147 L 369.71, 300.045 L 366.86, 298.797 L 362.762, 297.906 L 354.744, 308.775 L 361.693, 311.804 L 355.1, 320.713 L 316.08, 304.143 L 314.655, 306.102 L 312.695, 305.212 L 314.12, 303.43 L 288.463, 292.561 z "/>
<path style="fill:rgb(0, 255, 0);fill-opacity:0;fill-rule:evenodd;stroke:rgb(255, 219, 0);stroke-width:1;" d="M 328.374, 594.922 L 341.024, 577.639 L 338.886, 576.748 L 353.675, 556.258 L 405.88, 577.996 L 407.661, 578.708 L 375.768, 618.441 L 359.555, 611.67 L 361.514, 608.82 L 328.374, 594.922 z M 354.388, 589.22 L 366.682, 594.388 L 365.256, 596.347 L 368.107, 597.595 L 377.372, 584.766 L 362.405, 578.352 L 354.388, 589.22 z "/>
<path style="fill:rgb(0, 0, 255);fill-opacity:0;fill-rule:evenodd;stroke:rgb(255, 219, 0);stroke-width:1;" d="M 470.913, 572.65 L 481.96, 554.655 L 517.773, 569.8 L 522.049, 563.92 L 486.414, 548.953 L 497.105, 529.176 L 512.784, 535.768 L 510.646, 538.441 L 547.884, 554.298 L 534.878, 571.938 L 536.659, 572.829 L 521.158, 593.853 L 470.913, 572.65 z "/>
<path style="fill:rgb(255, 255, 0);fill-opacity:0;fill-rule:evenodd;stroke:rgb(255, 219, 0);stroke-width:1;" d="M 207.929, 747.973 L 223.252, 726.949 L 236.793, 732.65 L 238.04, 731.047 L 243.207, 733.185 L 246.236, 728.909 L 229.666, 721.96 L 238.04, 710.379 L 264.232, 721.425 L 263.875, 721.782 L 267.617, 723.385 L 269.933, 720 L 287.216, 727.483 L 288.107, 727.84 L 276.169, 747.439 L 253.007, 737.639 L 248.374, 743.875 L 273.14, 754.209 L 265.301, 772.205 L 207.929, 747.973 z "/>
<path style="fill:rgb(255, 0, 0);fill-opacity:0;fill-rule:evenodd;stroke:rgb(255, 219, 0);stroke-width:1;" d="M 358.842, 385.924 L 383.964, 351.18 L 420.846, 366.682 L 440.445, 374.878 L 415.323, 409.443 L 358.842, 385.924 z M 388.953, 382.717 L 403.385, 388.775 L 411.403, 377.906 L 396.971, 371.849 L 388.953, 382.717 z "/>
<path style="fill:rgb(0, 255, 0);fill-opacity:0;fill-rule:evenodd;stroke:rgb(255, 219, 0);stroke-width:1;" d="M 291.67, 357.416 L 316.971, 322.673 L 339.599, 332.116 L 373.096, 346.192 L 347.795, 380.935 L 291.67, 357.416 z M 321.247, 354.209 L 322.316, 354.744 L 335.857, 360.267 L 343.875, 349.22 L 329.265, 343.341 L 321.247, 354.209 z "/>
<path style="fill:rgb(0, 0, 255);fill-opacity:0;fill-rule:evenodd;stroke:rgb(255, 219, 0);stroke-width:1;" d="M 426.548, 414.076 L 441.871, 393.408 L 443.296, 393.942 L 456.303, 376.125 L 484.811, 388.241 L 487.305, 384.677 L 502.094, 391.091 L 494.076, 411.403 L 474.833, 403.207 L 475.724, 401.96 L 465.746, 397.862 L 462.361, 399.644 L 458.797, 404.276 L 458.797, 407.661 L 469.131, 411.938 L 470.379, 410.334 L 491.047, 419.243 L 483.563, 438.307 L 426.548, 414.076 z "/>
<path style="fill:rgb(255, 255, 0);fill-opacity:0;fill-rule:evenodd;stroke:rgb(255, 219, 0);stroke-width:1;" d="M 928.463, 627.706 L 931.136, 624.321 L 933.096, 625.212 L 944.677, 609.354 L 956.258, 614.343 L 960.535, 608.641 L 950.557, 604.543 L 961.069, 590.111 L 993.14, 603.653 L 993.853, 605.434 L 996.347, 606.503 L 999.376, 602.405 L 1011.85, 607.751 L 980.846, 649.978 L 928.463, 627.706 z M 965.523, 620.401 L 965.88, 622.361 L 976.927, 627.35 L 979.777, 627.171 L 986.548, 618.263 L 985.122, 616.303 L 973.898, 611.492 L 971.581, 612.561 L 965.523, 620.401 z M 944.855, 623.252 L 948.062, 624.677 L 951.091, 620.579 L 947.706, 619.154 L 944.855, 623.252 z "/>
<path style="fill:rgb(255, 0, 0);fill-opacity:0;fill-rule:evenodd;stroke:rgb(255, 219, 0);stroke-width:1;" d="M 159.287, 667.795 L 173.719, 623.964 L 201.158, 635.724 L 197.238, 641.069 L 192.784, 646.949 L 189.22, 645.345 L 186.726, 648.552 L 202.227, 655.323 L 205.078, 651.225 L 201.693, 649.8 L 209.889, 638.753 L 235.189, 649.8 L 226.993, 660.846 L 223.608, 659.421 L 204.187, 685.078 L 187.261, 677.595 L 186.192, 679.198 L 181.915, 677.238 L 192.784, 662.984 L 189.042, 661.381 L 187.261, 663.697 L 183.163, 661.915 L 174.432, 673.497 L 172.65, 673.675 L 159.287, 667.795 z "/>
<path style="fill:rgb(0, 255, 0);fill-opacity:0;fill-rule:evenodd;stroke:rgb(255, 219, 0);stroke-width:1;" d="M 287.038, 637.862 L 295.234, 626.637 L 299.688, 628.597 L 318.04, 603.118 L 341.381, 612.739 L 344.41, 612.027 L 345.301, 611.67 L 370.78, 622.183 L 340.312, 660.134 L 320.178, 651.759 L 338.886, 625.568 L 329.978, 621.826 L 311.091, 647.84 L 287.038, 637.862 z "/>
<path style="fill:rgb(0, 0, 255);fill-opacity:0;fill-rule:evenodd;stroke:rgb(255, 219, 0);stroke-width:1;" d="M 378.085, 533.63 L 393.408, 512.071 L 409.978, 518.842 L 412.65, 515.1 L 407.305, 512.784 L 404.989, 510.29 L 398.575, 507.617 L 410.512, 491.047 L 418.174, 494.432 L 425.122, 497.283 L 421.203, 502.806 L 430.29, 506.726 L 428.686, 508.686 L 432.249, 510.29 L 434.031, 507.795 L 435.457, 507.795 L 439.02, 503.163 L 452.561, 508.864 L 440.267, 531.136 L 418.886, 522.227 L 415.145, 527.394 L 437.238, 536.659 L 426.013, 553.408 L 378.085, 533.63 z "/>
<path style="fill:rgb(255, 255, 0);fill-opacity:0;fill-rule:evenodd;stroke:rgb(255, 219, 0);stroke-width:1;" d="M 275.813, 487.127 L 284.9, 474.655 L 289.532, 476.615 L 319.644, 435.457 L 349.933, 448.285 L 335.145, 468.419 L 327.305, 465.212 L 325.167, 468.241 L 328.552, 469.666 L 322.316, 478.218 L 320.535, 477.506 L 314.833, 485.345 L 328.018, 490.869 L 317.684, 504.944 L 275.813, 487.127 z "/>
<path style="fill:rgb(255, 0, 0);fill-opacity:0;fill-rule:evenodd;stroke:rgb(255, 219, 0);stroke-width:1;" d="M 104.944, 297.728 L 110.468, 274.922 L 140.579, 284.722 L 139.688, 286.503 L 157.862, 292.561 L 160.178, 294.521 L 159.465, 295.59 L 162.851, 296.659 L 168.196, 287.572 L 187.261, 293.987 L 196.704, 324.633 L 190.824, 326.236 L 104.944, 297.728 z "/>
<path style="fill:rgb(0, 255, 0);fill-opacity:0;fill-rule:evenodd;stroke:rgb(255, 219, 0);stroke-width:1;" d="M 732.829, 138.797 L 737.817, 124.365 L 751.537, 127.038 L 755.1, 116.169 L 753.853, 114.744 L 741.737, 112.249 L 746.548, 98.3519 L 808.374, 110.646 L 806.592, 115.813 L 803.742, 124.009 L 790.913, 121.336 L 786.637, 133.808 L 799.822, 136.303 L 794.655, 151.269 L 732.829, 138.797 z M 760.802, 128.641 L 777.194, 131.67 L 780.757, 120.624 L 779.688, 119.198 L 766.147, 116.526 L 764.543, 117.416 L 760.802, 128.641 z "/>
<path style="fill:rgb(0, 0, 255);fill-opacity:0;fill-rule:evenodd;stroke:rgb(255, 219, 0);stroke-width:1;" d="M 754.922, 86.5924 L 760.624, 70.5568 L 762.762, 70.9131 L 766.503, 60.4009 L 759.911, 59.1537 L 764.9, 44.7216 L 790.557, 49.8886 L 785.033, 65.5679 L 795.189, 67.706 L 800.535, 51.8486 L 826.726, 57.0156 L 821.737, 71.2695 L 815.679, 70.0223 L 811.938, 80.5345 L 814.076, 81.069 L 808.731, 96.7483 L 786.102, 92.294 L 791.269, 77.5056 L 782.895, 75.7238 L 777.728, 91.0468 L 754.922, 86.5924 z "/>
<path style="fill:rgb(255, 255, 0);fill-opacity:0;fill-rule:evenodd;stroke:rgb(255, 219, 0);stroke-width:1;" d="M 37.7728, 545.924 L 47.5724, 526.86 L 97.6392, 541.648 L 152.695, 565.167 L 146.815, 585.122 L 122.94, 574.967 L 126.682, 569.621 L 109.933, 562.851 L 106.37, 567.84 L 92.294, 562.316 L 96.2138, 556.793 L 61.2918, 546.281 L 58.2628, 551.982 L 41.6927, 546.993 L 37.7728, 545.924 z "/>
<path style="fill:rgb(255, 0, 0);fill-opacity:0;fill-rule:evenodd;stroke:rgb(255, 219, 0);stroke-width:1;" d="M 144.499, 367.394 L 154.477, 330.512 L 186.726, 341.559 L 188.508, 338.53 L 202.94, 343.341 L 207.216, 356.169 L 194.566, 358.664 L 192.249, 360.445 L 193.497, 364.543 L 196.526, 365.256 L 208.463, 362.94 L 213.63, 378.441 L 214.165, 382.183 L 213.274, 390.557 L 195.278, 383.608 L 193.318, 382.895 L 195.991, 378.976 L 164.454, 371.314 L 164.098, 372.205 L 144.499, 367.394 z M 165.167, 357.773 L 172.472, 360.267 L 173.185, 359.198 L 180.49, 361.871 L 185.479, 353.497 L 184.41, 350.468 L 185.479, 350.29 L 173.541, 346.192 L 172.472, 345.835 L 165.167, 357.773 z "/>
<path style="fill:rgb(0, 255, 0);fill-opacity:0;fill-rule:evenodd;stroke:rgb(255, 219, 0);stroke-width:1;" d="M 141.114, 719.644 L 153.051, 684.722 L 172.65, 693.274 L 170.156, 696.481 L 215.056, 715.189 L 208.463, 724.454 L 210.067, 724.989 L 196.704, 743.341 L 172.65, 733.185 L 179.421, 723.92 L 184.588, 725.88 L 187.261, 722.138 L 167.127, 713.586 L 164.276, 717.684 L 169.621, 720 L 163.029, 728.909 L 141.114, 719.644 z "/>
<path style="fill:rgb(0, 0, 255);fill-opacity:0;fill-rule:evenodd;stroke:rgb(255, 219, 0);stroke-width:1;" d="M 249.443, 402.316 L 251.047, 395.902 L 252.116, 389.31 L 252.472, 382.717 L 252.472, 376.125 L 254.254, 375.234 L 341.737, 412.116 L 330.156, 427.795 L 304.677, 417.817 L 302.361, 421.024 L 295.056, 418.53 L 288.82, 416.392 L 292.027, 411.047 L 271.18, 403.563 L 267.973, 408.909 L 266.904, 408.552 L 249.443, 402.316 z "/>
<path style="fill:rgb(255, 255, 0);fill-opacity:0;fill-rule:evenodd;stroke:rgb(255, 219, 0);stroke-width:1;" d="M 719.287, 206.147 L 727.305, 182.272 L 722.673, 181.381 L 726.949, 168.552 L 788.597, 180.134 L 787.528, 182.984 L 784.321, 192.962 L 780.935, 192.249 L 780.223, 194.388 L 778.976, 196.169 L 772.027, 216.125 L 719.287, 206.147 z M 740.49, 199.376 L 756.169, 202.405 L 761.336, 186.726 L 745.657, 183.875 L 740.49, 199.376 z "/>
<path style="fill:rgb(255, 0, 0);fill-opacity:0;fill-rule:evenodd;stroke:rgb(255, 219, 0);stroke-width:1;" d="M 111.002, 264.766 L 115.457, 233.764 L 143.786, 243.207 L 142.717, 244.989 L 175.679, 255.857 L 185.835, 289.532 L 161.247, 281.336 L 164.276, 275.991 L 137.55, 267.261 L 138.619, 265.479 L 134.699, 264.053 L 132.561, 266.548 L 129.889, 271.18 L 112.962, 265.657 L 111.002, 264.766 z "/>
<path style="fill:rgb(0, 255, 0);fill-opacity:0;fill-rule:evenodd;stroke:rgb(255, 219, 0);stroke-width:1;" d="M 460.223, 712.339 L 468.419, 701.114 L 471.269, 702.361 L 486.771, 681.336 L 492.116, 675.457 L 530.245, 691.492 L 526.682, 698.085 L 511.537, 718.931 L 515.1, 720.535 L 506.904, 731.938 L 460.223, 712.339 z M 485.345, 703.252 L 496.036, 707.706 L 500.846, 706.815 L 504.944, 701.114 L 509.22, 702.895 L 510.468, 701.114 L 510.646, 698.441 L 496.392, 692.561 L 492.294, 693.63 L 485.345, 703.252 z "/>
<path style="fill:rgb(0, 0, 255);fill-opacity:0;fill-rule:evenodd;stroke:rgb(255, 219, 0);stroke-width:1;" d="M 553.408, 751.537 L 561.782, 740.134 L 565.167, 741.559 L 579.955, 721.247 L 585.835, 715.011 L 623.608, 730.869 L 620.935, 736.748 L 605.078, 758.486 L 608.641, 760.089 L 600.445, 771.314 L 553.408, 751.537 z M 579.243, 742.45 L 589.577, 746.726 L 594.388, 746.548 L 598.486, 740.668 L 602.584, 742.45 L 603.831, 740.668 L 604.009, 737.283 L 590.111, 731.581 L 586.013, 733.007 L 579.243, 742.45 z "/>
<path style="fill:rgb(255, 255, 0);fill-opacity:0;fill-rule:evenodd;stroke:rgb(255, 219, 0);stroke-width:1;" d="M 317.684, 504.944 L 328.018, 490.869 L 347.795, 499.243 L 360.267, 482.138 L 341.024, 474.12 L 351.715, 459.51 L 388.775, 475.189 L 364.722, 508.151 L 368.998, 509.933 L 359.733, 522.584 L 317.684, 504.944 z "/>
<path style="fill:rgb(255, 0, 0);fill-opacity:0;fill-rule:evenodd;stroke:rgb(255, 219, 0);stroke-width:1;" d="M 343.163, 431.359 L 353.497, 416.927 L 402.673, 437.595 L 395.902, 447.038 L 403.207, 450.067 L 409.978, 440.802 L 471.091, 466.815 L 466.102, 478.753 L 448.463, 472.339 L 443.653, 470.735 L 445.969, 467.35 L 440.802, 465.033 L 438.486, 462.539 L 430.646, 459.154 L 426.192, 459.688 L 420.312, 458.263 L 417.461, 462.004 L 416.036, 461.47 L 377.372, 447.394 L 379.154, 444.543 L 350.646, 434.744 L 343.163, 431.359 z "/>
<path style="fill:rgb(0, 255, 0);fill-opacity:0;fill-rule:evenodd;stroke:rgb(255, 219, 0);stroke-width:1;" d="M 506.904, 731.938 L 515.1, 720.535 L 518.486, 721.96 L 533.274, 701.648 L 538.976, 695.234 L 576.57, 711.269 L 572.65, 719.109 L 558.396, 738.708 L 561.782, 740.134 L 553.408, 751.537 L 506.904, 731.938 z M 532.205, 722.673 L 542.717, 727.127 L 547.528, 726.414 L 551.626, 720.891 L 555.902, 722.673 L 557.149, 720.891 L 557.327, 717.862 L 543.252, 712.16 L 538.619, 713.764 L 532.205, 722.673 z "/>
<path style="fill:rgb(0, 0, 255);fill-opacity:0;fill-rule:evenodd;stroke:rgb(255, 219, 0);stroke-width:1;" d="M 600.445, 771.314 L 608.641, 760.089 L 612.027, 761.514 L 629.844, 737.105 L 632.517, 734.61 L 670.468, 750.646 L 667.439, 756.526 L 651.759, 778.085 L 654.967, 779.51 L 646.771, 790.735 L 600.445, 771.314 z M 626.102, 762.227 L 636.615, 766.682 L 641.069, 765.969 L 641.96, 764.722 L 645.167, 760.267 L 649.443, 762.049 L 650.69, 760.445 L 650.69, 757.06 L 636.793, 751.18 L 632.695, 752.962 L 626.102, 762.227 z "/>
<path style="fill:rgb(255, 255, 0);fill-opacity:0;fill-rule:evenodd;stroke:rgb(255, 219, 0);stroke-width:1;" d="M 730.156, 399.109 L 741.915, 383.252 L 806.236, 410.69 L 809.978, 405.523 L 824.053, 411.581 L 818.886, 432.606 L 813.719, 434.566 L 730.156, 399.109 z "/>
<path style="fill:rgb(255, 0, 0);fill-opacity:0;fill-rule:evenodd;stroke:rgb(255, 219, 0);stroke-width:1;" d="M 700.757, 244.633 L 704.499, 233.764 L 708.775, 234.477 L 714.12, 218.619 L 767.038, 228.775 L 759.555, 251.403 L 759.911, 253.363 L 759.02, 255.857 L 763.118, 256.748 L 759.02, 269.042 L 700.757, 244.633 z M 726.058, 244.098 L 739.599, 248.196 L 739.955, 247.127 L 741.381, 247.483 L 745.835, 235.367 L 730.334, 232.339 L 726.058, 244.098 z "/>
<path style="fill:rgb(0, 255, 0);fill-opacity:0;fill-rule:evenodd;stroke:rgb(255, 219, 0);stroke-width:1;" d="M 818.886, 717.862 L 830.111, 671.002 L 846.503, 677.773 L 845.256, 684.543 L 856.837, 689.354 L 859.866, 687.216 L 862.004, 684.187 L 876.08, 690.067 L 860.579, 711.269 L 847.929, 705.924 L 850.423, 702.539 L 844.722, 700.045 L 842.762, 702.895 L 840.802, 710.379 L 859.688, 718.396 L 849.354, 732.294 L 820.668, 720.178 L 818.886, 717.862 z "/>
<path style="fill:rgb(0, 0, 255);fill-opacity:0;fill-rule:evenodd;stroke:rgb(255, 219, 0);stroke-width:1;" d="M 149.31, 406.949 L 159.287, 377.728 L 193.675, 385.568 L 195.278, 383.608 L 213.274, 390.557 L 208.82, 403.029 L 196.704, 397.684 L 192.962, 402.851 L 206.503, 408.731 L 199.198, 431.18 L 186.192, 425.657 L 182.272, 424.053 L 184.232, 421.381 L 149.31, 406.949 z M 164.454, 400.713 L 164.633, 402.138 L 169.443, 404.098 L 177.817, 407.661 L 184.766, 398.218 L 182.984, 396.258 L 171.403, 391.448 L 164.454, 400.713 z "/>
<path style="fill:rgb(255, 255, 0);fill-opacity:0;fill-rule:evenodd;stroke:rgb(255, 219, 0);stroke-width:1;" d="M 930.78, 255.323 L 935.056, 241.247 L 936.125, 241.782 L 937.016, 240.535 L 936.303, 238.753 L 936.125, 237.862 L 936.125, 236.793 L 936.481, 235.011 L 936.837, 234.12 L 938.085, 232.517 L 939.688, 231.091 L 941.648, 230.022 L 943.964, 229.131 L 946.459, 228.953 L 948.953, 228.953 L 951.982, 229.666 L 953.764, 230.557 L 955.189, 231.626 L 956.793, 233.408 L 959.822, 232.873 L 995.1, 247.127 L 974.967, 274.922 L 931.67, 255.857 L 930.78, 255.323 z "/>
<path style="fill:rgb(255, 0, 0);fill-opacity:0;fill-rule:evenodd;stroke:rgb(255, 219, 0);stroke-width:1;" d="M 137.55, 442.584 L 147.35, 412.829 L 184.232, 428.33 L 186.192, 425.657 L 199.198, 431.18 L 187.082, 466.637 L 170.156, 459.51 L 172.294, 456.659 L 137.55, 442.584 z M 159.644, 440.98 L 167.661, 444.365 L 171.759, 445.969 L 174.254, 445.612 L 179.955, 437.595 L 177.639, 434.566 L 167.305, 430.29 L 159.644, 440.98 z "/>
<path style="fill:rgb(0, 255, 0);fill-opacity:0;fill-rule:evenodd;stroke:rgb(255, 219, 0);stroke-width:1;" d="M 640.535, 644.098 L 648.018, 633.764 L 651.759, 635.367 L 669.755, 610.423 L 684.9, 616.659 L 680.624, 622.717 L 681.514, 623.073 L 680.802, 623.786 L 685.612, 625.746 L 686.147, 625.212 L 687.216, 625.568 L 691.492, 619.51 L 706.459, 625.746 L 688.285, 650.869 L 691.492, 652.116 L 684.187, 662.272 L 666.013, 654.788 L 673.497, 644.454 L 673.318, 642.851 L 676.169, 638.931 L 671.537, 636.971 L 669.042, 640.356 L 666.726, 641.425 L 659.243, 651.938 L 640.535, 644.098 z "/>
<path style="fill:rgb(0, 0, 255);fill-opacity:0;fill-rule:evenodd;stroke:rgb(255, 219, 0);stroke-width:1;" d="M 965.167, 584.41 L 972.829, 574.076 L 981.024, 577.639 L 982.094, 576.214 L 986.726, 578.174 L 989.755, 573.898 L 976.927, 568.374 L 984.588, 558.04 L 995.991, 562.851 L 998.129, 559.822 L 1035.37, 575.679 L 1011.85, 607.751 L 999.376, 602.405 L 998.486, 602.049 L 999.911, 600.267 L 999.198, 598.842 L 965.167, 584.41 z M 994.744, 581.559 L 1007.57, 586.904 L 1010.24, 586.37 L 1016.66, 577.283 L 1014.88, 575.323 L 1002.76, 570.334 L 994.744, 581.559 z "/>
<path style="fill:rgb(255, 255, 0);fill-opacity:0;fill-rule:evenodd;stroke:rgb(255, 219, 0);stroke-width:1;" d="M 597.238, 625.924 L 604.543, 615.947 L 608.285, 617.55 L 626.281, 592.428 L 641.425, 598.664 L 637.327, 604.365 L 638.753, 604.9 L 638.04, 605.969 L 639.644, 606.503 L 642.673, 607.751 L 643.207, 607.038 L 644.276, 607.572 L 648.552, 601.693 L 662.628, 607.572 L 644.811, 632.517 L 648.018, 633.764 L 640.535, 644.098 L 622.539, 636.615 L 630.2, 625.924 L 630.379, 623.964 L 633.051, 620.401 L 628.241, 618.441 L 626.102, 621.47 L 623.43, 623.252 L 615.768, 633.764 L 597.238, 625.924 z "/>
<path style="fill:rgb(255, 0, 0);fill-opacity:0;fill-rule:evenodd;stroke:rgb(255, 219, 0);stroke-width:1;" d="M 675.457, 457.728 L 693.987, 431.715 L 690.78, 430.468 L 698.085, 419.955 L 715.902, 427.261 L 708.419, 437.951 L 707.884, 439.198 L 704.855, 443.474 L 710.735, 445.969 L 713.764, 441.693 L 715.546, 441.158 L 723.207, 430.29 L 740.49, 437.416 L 732.472, 448.641 L 729.087, 447.038 L 710.735, 472.873 L 696.481, 466.993 L 699.51, 462.895 L 698.976, 460.757 L 701.292, 457.55 L 697.016, 455.768 L 695.056, 458.619 L 692.383, 459.332 L 689.532, 463.43 L 675.457, 457.728 z "/>
<path style="fill:rgb(0, 255, 0);fill-opacity:0;fill-rule:evenodd;stroke:rgb(255, 219, 0);stroke-width:1;" d="M 918.842, 558.931 L 927.038, 548.062 L 937.55, 552.517 L 945.924, 541.292 L 935.412, 536.837 L 944.499, 524.543 L 986.013, 542.539 L 979.065, 551.982 L 975.501, 556.793 L 963.742, 551.804 L 962.851, 553.051 L 958.931, 551.448 L 955.902, 555.189 L 960, 557.149 L 956.615, 561.604 L 968.018, 566.592 L 960.356, 576.927 L 918.842, 558.931 z "/>
<path style="fill:rgb(0, 0, 255);fill-opacity:0;fill-rule:evenodd;stroke:rgb(255, 219, 0);stroke-width:1;" d="M 633.764, 440.089 L 651.938, 414.61 L 648.552, 413.185 L 656.036, 402.673 L 673.497, 409.8 L 665.657, 420.668 L 665.835, 421.737 L 662.806, 426.013 L 668.33, 428.151 L 671.359, 424.053 L 673.497, 422.806 L 680.624, 412.829 L 698.085, 419.955 L 690.78, 430.468 L 686.86, 428.686 L 668.508, 454.521 L 654.61, 448.641 L 657.461, 444.722 L 657.105, 442.584 L 658.886, 440.089 L 654.967, 438.486 L 653.185, 440.98 L 650.512, 441.336 L 647.305, 445.791 L 633.764, 440.089 z "/>
<path style="fill:rgb(255, 255, 0);fill-opacity:0;fill-rule:evenodd;stroke:rgb(255, 219, 0);stroke-width:1;" d="M 615.234, 493.363 L 622.717, 482.851 L 625.746, 484.098 L 644.276, 458.619 L 658.352, 464.499 L 655.323, 468.597 L 656.214, 470.735 L 654.076, 473.408 L 658.174, 475.189 L 659.955, 472.517 L 662.45, 471.448 L 665.301, 467.35 L 679.555, 473.408 L 660.49, 499.599 L 663.519, 500.846 L 656.748, 510.29 L 640, 503.341 L 646.771, 493.898 L 646.949, 492.116 L 649.978, 488.018 L 644.098, 485.523 L 641.425, 489.087 L 639.465, 489.978 L 631.804, 500.312 L 615.234, 493.363 z "/>
<path style="fill:rgb(255, 0, 0);fill-opacity:0;fill-rule:evenodd;stroke:rgb(255, 219, 0);stroke-width:1;" d="M 619.866, 715.902 L 635.189, 694.878 L 635.546, 692.918 L 632.695, 691.67 L 642.316, 678.664 L 682.94, 695.768 L 673.14, 708.953 L 669.577, 707.35 L 653.185, 729.978 L 619.866, 715.902 z M 638.753, 707.884 L 639.822, 709.488 L 649.978, 713.942 L 652.829, 713.408 L 659.421, 704.677 L 645.523, 698.619 L 638.753, 707.884 z "/>
<path style="fill:rgb(0, 255, 0);fill-opacity:0;fill-rule:evenodd;stroke:rgb(255, 219, 0);stroke-width:1;" d="M 656.748, 510.29 L 663.519, 500.846 L 667.795, 502.628 L 686.86, 476.437 L 700.579, 482.316 L 697.55, 486.414 L 698.085, 488.731 L 696.303, 491.759 L 700.223, 493.363 L 702.361, 490.334 L 704.855, 489.443 L 707.706, 485.702 L 721.425, 491.403 L 702.895, 516.704 L 706.281, 518.129 L 698.976, 528.285 L 682.049, 521.158 L 689.176, 511.359 L 688.285, 509.933 L 692.383, 505.479 L 686.325, 502.984 L 683.653, 507.261 L 681.693, 507.795 L 674.388, 517.773 L 656.748, 510.29 z "/>
<path style="fill:rgb(0, 0, 255);fill-opacity:0;fill-rule:evenodd;stroke:rgb(255, 219, 0);stroke-width:1;" d="M 579.599, 698.797 L 594.922, 677.773 L 595.278, 676.169 L 592.428, 675.1 L 594.209, 672.606 L 602.227, 661.559 L 642.316, 678.664 L 632.695, 691.67 L 629.488, 690.423 L 613.096, 712.873 L 579.599, 698.797 z M 598.486, 690.958 L 599.555, 692.739 L 605.256, 695.056 L 609.532, 696.837 L 612.918, 696.125 L 619.154, 687.572 L 605.256, 681.693 L 598.486, 690.958 z "/>
<path style="fill:rgb(255, 255, 0);fill-opacity:0;fill-rule:evenodd;stroke:rgb(255, 219, 0);stroke-width:1;" d="M 539.332, 681.693 L 557.327, 657.283 L 553.408, 655.679 L 561.604, 644.454 L 602.227, 661.559 L 594.209, 672.606 L 591.002, 671.359 L 572.829, 695.947 L 539.332, 681.693 z M 560.178, 671.18 L 560.356, 674.031 L 570.156, 678.129 L 573.363, 676.704 L 579.599, 668.33 L 566.236, 662.628 L 560.178, 671.18 z "/>
<path style="fill:rgb(255, 0, 0);fill-opacity:0;fill-rule:evenodd;stroke:rgb(255, 219, 0);stroke-width:1;" d="M 398.396, 485.88 L 416.036, 461.47 L 417.461, 462.004 L 436.169, 468.775 L 431.002, 476.437 L 435.1, 478.04 L 435.813, 479.465 L 434.744, 481.069 L 436.704, 481.782 L 445.078, 478.04 L 448.463, 472.339 L 466.102, 478.753 L 462.539, 484.633 L 463.608, 485.167 L 460.935, 491.581 L 457.728, 495.857 L 458.619, 496.392 L 454.699, 501.737 L 456.125, 502.45 L 452.561, 508.864 L 439.02, 503.163 L 431.715, 499.955 L 436.882, 493.007 L 423.519, 487.305 L 418.174, 494.432 L 410.512, 491.047 L 398.396, 485.88 z "/>
<path style="fill:rgb(0, 255, 0);fill-opacity:0;fill-rule:evenodd;stroke:rgb(255, 219, 0);stroke-width:1;" d="M 499.243, 664.766 L 517.238, 640 L 513.497, 638.575 L 521.514, 627.528 L 561.604, 644.454 L 553.408, 655.679 L 550.379, 654.432 L 532.561, 678.842 L 499.243, 664.766 z M 519.911, 653.898 L 520.624, 656.927 L 530.067, 661.024 L 533.452, 659.777 L 539.688, 651.225 L 526.325, 645.345 L 519.911, 653.898 z "/>
<path style="fill:rgb(0, 0, 255);fill-opacity:0;fill-rule:evenodd;stroke:rgb(255, 219, 0);stroke-width:1;" d="M 183.697, 594.209 L 194.566, 562.851 L 207.394, 568.196 L 214.165, 571.047 L 206.325, 581.737 L 220.401, 587.617 L 228.241, 576.748 L 243.563, 583.163 L 238.396, 590.468 L 240.178, 591.18 L 225.39, 611.67 L 183.697, 594.209 z "/>
<path style="fill:rgb(255, 255, 0);fill-opacity:0;fill-rule:evenodd;stroke:rgb(255, 219, 0);stroke-width:1;" d="M 665.657, 594.744 L 680.267, 574.967 L 680.98, 575.145 L 683.474, 571.759 L 679.198, 569.978 L 688.463, 557.149 L 725.702, 572.829 L 699.332, 608.998 L 665.657, 594.744 z M 685.969, 588.508 L 696.837, 593.14 L 698.085, 591.18 L 701.648, 592.784 L 709.31, 582.272 L 694.878, 576.214 L 685.969, 588.508 z "/>
<path style="fill:rgb(255, 0, 0);fill-opacity:0;fill-rule:evenodd;stroke:rgb(255, 219, 0);stroke-width:1;" d="M 115.457, 233.764 L 118.842, 209.889 L 126.682, 212.205 L 136.125, 215.234 L 155.546, 222.004 L 166.771, 225.746 L 175.679, 255.857 L 142.717, 244.989 L 143.786, 243.207 L 115.457, 233.764 z "/>
<path style="fill:rgb(0, 255, 0);fill-opacity:0;fill-rule:evenodd;stroke:rgb(255, 219, 0);stroke-width:1;" d="M 625.39, 577.817 L 651.759, 541.648 L 688.463, 557.149 L 679.198, 569.978 L 674.922, 568.196 L 672.249, 571.759 L 673.318, 572.116 L 658.886, 591.893 L 625.39, 577.817 z M 641.425, 567.661 L 645.345, 569.265 L 644.454, 570.869 L 655.323, 575.501 L 664.232, 563.207 L 649.443, 556.971 L 641.425, 567.661 z "/>
<path style="fill:rgb(0, 0, 255);fill-opacity:0;fill-rule:evenodd;stroke:rgb(255, 219, 0);stroke-width:1;" d="M 592.071, 563.742 L 606.503, 543.786 L 607.394, 544.321 L 609.889, 540.757 L 605.612, 538.976 L 607.394, 536.481 L 614.878, 526.147 L 651.759, 541.648 L 625.39, 577.817 L 592.071, 563.742 z M 612.383, 557.506 L 622.361, 561.604 L 623.608, 562.138 L 624.677, 560.535 L 628.241, 561.96 L 636.08, 551.269 L 621.292, 545.033 L 612.383, 557.506 z "/>
<path style="fill:rgb(255, 255, 0);fill-opacity:0;fill-rule:evenodd;stroke:rgb(255, 219, 0);stroke-width:1;" d="M 208.107, 523.118 L 216.303, 499.065 L 271.893, 522.227 L 256.036, 543.786 L 238.753, 536.481 L 242.851, 530.78 L 228.419, 524.722 L 224.499, 530.067 L 208.107, 523.118 z "/>
<path style="fill:rgb(255, 0, 0);fill-opacity:0;fill-rule:evenodd;stroke:rgb(255, 219, 0);stroke-width:1;" d="M 945.746, 395.902 L 961.96, 373.808 L 1013.1, 395.189 L 997.238, 416.748 L 995.991, 416.214 L 982.272, 410.512 L 988.686, 401.604 L 984.41, 399.822 L 982.628, 402.138 L 969.978, 396.793 L 971.759, 394.298 L 968.196, 392.873 L 961.247, 402.316 L 960.535, 401.96 L 945.746, 395.902 z "/>
<path style="fill:rgb(0, 255, 0);fill-opacity:0;fill-rule:evenodd;stroke:rgb(255, 219, 0);stroke-width:1;" d="M 778.619, 333.007 L 790.735, 316.615 L 840.089, 337.461 L 834.566, 362.762 L 817.639, 355.457 L 820.846, 351.002 L 778.619, 333.007 z "/>
<path style="fill:rgb(0, 0, 255);fill-opacity:0;fill-rule:evenodd;stroke:rgb(255, 219, 0);stroke-width:1;" d="M 912.606, 317.149 L 923.296, 282.762 L 938.619, 288.998 L 938.263, 289.532 L 958.396, 297.728 L 935.412, 329.443 L 914.922, 321.069 L 916.526, 318.753 L 912.606, 317.149 z "/>
<path style="fill:rgb(255, 255, 0);fill-opacity:0;fill-rule:evenodd;stroke:rgb(255, 219, 0);stroke-width:1;" d="M 923.296, 282.762 L 931.67, 255.857 L 974.967, 274.922 L 958.396, 297.728 L 938.263, 289.532 L 938.619, 288.998 L 923.296, 282.762 z "/>
<path style="fill:rgb(255, 0, 0);fill-opacity:0;fill-rule:evenodd;stroke:rgb(255, 219, 0);stroke-width:1;" d="M 194.566, 562.851 L 203.653, 535.947 L 216.125, 541.114 L 213.63, 546.815 L 217.906, 548.597 L 217.016, 550.022 L 224.855, 553.408 L 229.131, 555.189 L 233.942, 548.597 L 246.771, 553.942 L 239.644, 563.742 L 253.363, 569.443 L 246.236, 579.599 L 210.067, 564.633 L 207.394, 568.196 L 194.566, 562.851 z "/>
<path style="fill:rgb(0, 255, 0);fill-opacity:0;fill-rule:evenodd;stroke:rgb(255, 219, 0);stroke-width:1;" d="M 229.488, 615.947 L 239.465, 602.049 L 244.276, 604.009 L 246.771, 604.543 L 251.225, 598.307 L 253.007, 599.02 L 256.57, 594.209 L 256.392, 591.893 L 249.087, 588.864 L 256.57, 578.352 L 281.158, 588.508 L 265.835, 609.889 L 263.519, 608.82 L 262.45, 610.245 L 262.984, 612.205 L 267.439, 613.987 L 257.639, 627.528 L 229.488, 615.947 z "/>
<path style="fill:rgb(0, 0, 255);fill-opacity:0;fill-rule:evenodd;stroke:rgb(255, 219, 0);stroke-width:1;" d="M 257.639, 627.528 L 267.439, 613.987 L 272.249, 615.947 L 274.031, 615.947 L 275.635, 613.808 L 273.497, 612.918 L 288.82, 591.715 L 313.051, 601.871 L 305.212, 612.739 L 298.619, 609.532 L 295.412, 610.423 L 291.67, 615.59 L 293.274, 616.303 L 288.998, 622.183 L 290.601, 622.895 L 290.601, 623.608 L 295.768, 625.746 L 295.234, 626.637 L 287.038, 637.862 L 286.147, 637.506 L 285.078, 638.931 L 257.639, 627.528 z "/>
<path style="fill:rgb(255, 255, 0);fill-opacity:0;fill-rule:evenodd;stroke:rgb(255, 219, 0);stroke-width:1;" d="M 961.247, 778.797 L 975.145, 759.733 L 989.042, 765.434 L 986.726, 768.641 L 1023.25, 784.143 L 1011.49, 800 L 961.247, 778.797 z "/>
<path style="fill:rgb(255, 0, 0);fill-opacity:0;fill-rule:evenodd;stroke:rgb(255, 219, 0);stroke-width:1;" d="M 930.601, 417.105 L 945.746, 395.902 L 960.535, 401.96 L 956.793, 407.127 L 978.174, 416.036 L 982.272, 410.512 L 995.991, 416.214 L 979.955, 438.486 L 972.65, 435.457 L 965.88, 432.606 L 970.156, 426.726 L 948.775, 417.817 L 944.855, 422.984 L 930.601, 417.105 z "/>
<path style="fill:rgb(0, 255, 0);fill-opacity:0;fill-rule:evenodd;stroke:rgb(255, 219, 0);stroke-width:1;" d="M 564.454, 552.339 L 583.341, 526.325 L 579.421, 524.722 L 587.082, 514.388 L 614.878, 526.147 L 607.394, 536.481 L 604.009, 535.234 L 598.486, 542.895 L 596.347, 542.004 L 594.922, 543.964 L 596.704, 544.677 L 584.944, 560.891 L 564.454, 552.339 z "/>
<path style="fill:rgb(0, 0, 255);fill-opacity:0;fill-rule:evenodd;stroke:rgb(255, 219, 0);stroke-width:1;" d="M 104.944, 537.016 L 110.646, 520.445 L 118.129, 522.584 L 145.212, 533.987 L 146.993, 534.699 L 148.775, 532.027 L 162.851, 538.085 L 155.546, 558.396 L 104.944, 537.016 z "/>
<path style="fill:rgb(255, 255, 0);fill-opacity:0;fill-rule:evenodd;stroke:rgb(255, 219, 0);stroke-width:1;" d="M 979.065, 551.982 L 986.013, 542.539 L 986.548, 542.004 L 1042.32, 565.523 L 1035.37, 575.679 L 998.129, 559.822 L 995.991, 562.851 L 984.588, 558.04 L 986.726, 555.189 L 979.065, 551.982 z "/>
<path style="fill:rgb(255, 0, 0);fill-opacity:0;fill-rule:evenodd;stroke:rgb(255, 219, 0);stroke-width:1;" d="M 203.653, 535.947 L 208.107, 523.118 L 224.499, 530.067 L 223.964, 530.78 L 260.134, 545.924 L 252.294, 556.258 L 246.771, 553.942 L 233.942, 548.597 L 216.125, 541.114 L 203.653, 535.947 z "/>
<path style="fill:rgb(0, 255, 0);fill-opacity:0;fill-rule:evenodd;stroke:rgb(255, 219, 0);stroke-width:1;" d="M 153.051, 684.722 L 156.615, 672.784 L 179.777, 682.227 L 177.996, 684.543 L 212.561, 699.154 L 206.325, 707.528 L 172.65, 693.274 L 153.051, 684.722 z "/>
<path style="fill:rgb(0, 0, 255);fill-opacity:0;fill-rule:evenodd;stroke:rgb(255, 219, 0);stroke-width:1;" d="M 863.073, 668.864 L 871.626, 657.105 L 868.597, 655.857 L 876.793, 644.633 L 879.644, 645.702 L 882.316, 642.138 L 885.345, 643.385 L 896.57, 648.196 L 877.149, 674.744 L 863.073, 668.864 z "/>
<path style="fill:rgb(255, 255, 0);fill-opacity:0;fill-rule:evenodd;stroke:rgb(255, 219, 0);stroke-width:1;" d="M 359.376, 523.296 L 359.733, 522.584 L 380.401, 495.501 L 393.408, 501.024 L 372.739, 528.998 L 359.376, 523.296 z "/>
<path style="fill:rgb(255, 0, 0);fill-opacity:0;fill-rule:evenodd;stroke:rgb(255, 219, 0);stroke-width:1;" d="M 393.229, 760.445 L 402.316, 747.973 L 411.938, 734.61 L 421.737, 738.708 L 421.024, 739.777 L 408.196, 757.773 L 404.989, 756.526 L 400, 763.296 L 393.229, 760.445 z "/>
<path style="fill:rgb(0, 255, 0);fill-opacity:0;fill-rule:evenodd;stroke:rgb(255, 219, 0);stroke-width:1;" d="M 407.84, 766.503 L 412.65, 759.555 L 408.196, 757.773 L 421.024, 739.777 L 431.002, 744.053 L 413.363, 768.82 L 407.84, 766.503 z "/>
<path style="fill:rgb(0, 0, 255);fill-opacity:0;fill-rule:evenodd;stroke:rgb(255, 219, 0);stroke-width:1;" d="M 413.363, 768.82 L 431.002, 744.053 L 440.624, 747.973 L 427.973, 765.969 L 422.984, 763.831 L 417.817, 770.78 L 413.363, 768.82 z "/>
<path style="fill:rgb(255, 255, 0);fill-opacity:0;fill-rule:evenodd;stroke:rgb(255, 219, 0);stroke-width:1;" d="M 427.973, 765.969 L 440.624, 747.973 L 450.423, 751.893 L 432.784, 776.659 L 429.042, 775.056 L 433.675, 768.285 L 427.973, 765.969 z "/>
<path style="fill:rgb(255, 0, 0);fill-opacity:0;fill-rule:evenodd;stroke:rgb(255, 219, 0);stroke-width:1;" d="M 3.74165, 672.428 L 9.08686, 654.788 L 27.2606, 657.996 L 27.0824, 658.886 L 40.98, 661.381 L 40.98, 661.381 L 40.98, 661.024 L 48.8196, 635.724 L 62.539, 638.218 L 60.0445, 643.92 L 68.2405, 646.771 L 83.9198, 653.363 L 101.381, 660.49 L 117.951, 667.795 L 123.118, 670.29 L 120.98, 675.813 L 113.318, 674.388 L 107.795, 692.383 L 81.6036, 687.751 L 80.1782, 692.205 L 77.8619, 691.849 L 73.9421, 704.855 L 79.2873, 705.746 L 77.8619, 710.379 L 79.1091, 710.557 L 76.0802, 720.891 L 74.2984, 720.535 L 73.4076, 723.207 L 68.4187, 722.316 L 63.9644, 736.927 L 65.9243, 737.283 L 63.9644, 743.697 L 47.216, 740.668 L 49.1759, 734.076 L 13.363, 727.661 L 25.4788, 688.998 L 17.2829, 687.572 L 20.8463, 676.347 L 10.6904, 674.566 L 11.0468, 673.675 L 3.74165, 672.428 z "/>
<path style="fill:rgb(0, 255, 0);fill-opacity:0;fill-rule:evenodd;stroke:rgb(255, 219, 0);stroke-width:1;" d="M 2.31626, 653.541 L 10.3341, 627.171 L 7.66147, 626.637 L 9.79955, 620.579 L 5.52339, 619.688 L 7.66147, 613.808 L 6.41425, 613.452 L 29.2205, 545.924 L 37.2383, 547.528 L 37.7728, 545.924 L 41.6927, 546.993 L 58.2628, 551.982 L 58.0846, 552.339 L 88.7305, 560.891 L 62.539, 638.218 L 48.8196, 635.724 L 40.98, 661.024 L 41.3363, 661.203 L 40.98, 661.381 L 40.98, 661.381 L 27.0824, 658.886 L 27.2606, 657.996 L 9.08686, 654.788 L 2.31626, 653.541 z "/>
<path style="fill:rgb(0, 0, 255);fill-opacity:0;fill-rule:evenodd;stroke:rgb(255, 219, 0);stroke-width:1;" d="M 0, 775.056 L 12.294, 740.49 L 88.3742, 755.991 L 81.4254, 775.412 L 84.098, 775.947 L 82.6726, 780.045 L 80.3563, 779.51 L 75.5457, 793.229 L 58.9755, 789.666 L 54.8775, 789.131 L 37.0601, 786.102 L 28.5078, 784.321 L 0, 775.056 z "/>
<path style="fill:rgb(255, 255, 0);fill-opacity:0;fill-rule:evenodd;stroke:rgb(255, 219, 0);stroke-width:1;" d="M 121.871, 102.984 L 126.86, 91.0468 L 146.993, 95.8575 L 150.557, 87.1269 L 128.107, 81.7817 L 133.274, 69.1314 L 137.372, 70.2004 L 144.855, 52.2049 L 141.114, 51.314 L 145.39, 40.8018 L 163.92, 45.078 L 167.483, 36.7038 L 153.229, 33.3185 L 157.149, 23.5189 L 160, 21.3808 L 163.207, 22.0935 L 166.236, 14.7884 L 167.483, 13.8976 L 171.403, 14.9666 L 174.076, 8.37416 L 177.105, 6.23608 L 182.806, 7.66147 L 186.013, 0 L 215.59, 7.12695 L 205.256, 32.2494 L 189.399, 28.3296 L 188.686, 30.1114 L 183.875, 29.0423 L 181.915, 33.4967 L 187.439, 34.7439 L 186.37, 37.2383 L 201.693, 40.8018 L 191.715, 64.8552 L 171.938, 60.0445 L 168.731, 61.1136 L 166.236, 66.9933 L 167.661, 69.6659 L 187.617, 74.4766 L 177.461, 99.0646 L 159.644, 94.7884 L 158.575, 97.1047 L 155.546, 96.2138 L 154.12, 99.9555 L 157.684, 100.668 L 156.793, 103.163 L 171.938, 106.726 L 161.604, 131.67 L 122.049, 122.227 L 124.365, 116.169 L 122.227, 115.813 L 127.038, 104.232 L 121.871, 102.984 z "/>
<path style="fill:rgb(255, 0, 0);fill-opacity:0;fill-rule:evenodd;stroke:rgb(255, 219, 0);stroke-width:1;" d="M 682.405, 78.931 L 688.998, 59.1537 L 716.615, 64.4989 L 716.08, 66.1024 L 726.949, 68.2405 L 727.661, 67.3497 L 729.265, 64.6771 L 730.334, 61.6481 L 730.69, 58.6192 L 730.512, 57.1938 L 719.644, 55.0557 L 719.109, 57.0156 L 693.808, 52.0267 L 700.579, 32.2494 L 757.773, 43.4744 L 750.646, 64.6771 L 748.864, 64.3207 L 741.203, 87.1269 L 701.826, 79.4655 L 700.935, 82.4944 L 682.405, 78.931 z "/>
</svg>