<?xml version="1.0" encoding="iso-8859-1" standalone="no"?>
<!DOCTYPE svg PUBLIC "-//W3C//DTD SVG 1.0//EN" "http://www.w3.org/TR/2001/REC-SVG-20010904/DTD/svg10.dtd">
<svg xmlns="http://www.w3.org/2000/svg" width="962" height="800">
<path style="fill:rgb(255, 0, 0);fill-opacity:0;fill-rule:evenodd;stroke:rgb(90, 0, 255);stroke-width:1;" d="M 584.778, 168.764 L 593.577, 156.797 L 587.593, 154.333 L 627.365, 100.132 L 633.172, 102.596 L 643.379, 88.6934 L 682.446, 105.235 L 664.144, 130.224 L 750.198, 166.476 L 768.324, 141.487 L 807.919, 158.205 L 749.67, 238.099 L 710.075, 221.381 L 728.377, 196.392 L 642.675, 160.141 L 624.197, 185.306 L 584.778, 168.764 z "/>
<path style="fill:rgb(0, 255, 0);fill-opacity:0;fill-rule:evenodd;stroke:rgb(90, 0, 255);stroke-width:1;" d="M 479.894, 294.237 L 486.758, 284.558 L 509.635, 253.058 L 514.386, 254.993 L 524.593, 240.915 L 519.842, 238.979 L 523.185, 234.228 L 538.143, 213.638 L 541.311, 209.415 L 559.437, 216.982 L 550.286, 229.652 L 543.775, 238.803 L 559.261, 245.139 L 561.197, 242.499 L 577.387, 249.186 L 575.451, 252.002 L 590.937, 258.513 L 606.423, 237.044 L 625.253, 244.963 L 618.742, 253.938 L 604.136, 274.175 L 598.328, 271.711 L 587.769, 286.318 L 592.169, 288.077 L 582.49, 301.452 L 562.604, 328.905 L 479.894, 294.237 z "/>
<path style="fill:rgb(0, 0, 255);fill-opacity:0;fill-rule:evenodd;stroke:rgb(90, 0, 255);stroke-width:1;" d="M 316.762, 369.556 L 339.463, 338.407 L 344.391, 331.72 L 426.573, 366.388 L 429.74, 361.989 L 444.171, 368.148 L 471.975, 379.938 L 468.104, 385.218 L 460.185, 396.128 L 449.45, 410.911 L 441.355, 421.997 L 316.762, 369.556 z "/>
<path style="fill:rgb(255, 255, 0);fill-opacity:0;fill-rule:evenodd;stroke:rgb(90, 0, 255);stroke-width:1;" d="M 367.268, 624.373 L 384.162, 601.496 L 411.263, 612.934 L 420.062, 600.968 L 468.984, 621.733 L 417.422, 691.949 L 368.324, 671.183 L 385.57, 647.602 L 394.369, 635.812 L 367.268, 624.373 z "/>
<path style="fill:rgb(255, 0, 0);fill-opacity:0;fill-rule:evenodd;stroke:rgb(90, 0, 255);stroke-width:1;" d="M 35.0198, 395.073 L 96.6124, 310.427 L 144.127, 330.488 L 97.1403, 395.249 L 82.5341, 415.134 L 35.0198, 395.073 z "/>
<path style="fill:rgb(0, 255, 0);fill-opacity:0;fill-rule:evenodd;stroke:rgb(90, 0, 255);stroke-width:1;" d="M 543.247, 650.418 L 548.702, 649.362 L 548.35, 648.306 L 560.845, 646.194 L 561.021, 647.25 L 566.476, 646.37 L 572.459, 666.08 L 607.479, 659.921 L 611.879, 663.264 L 613.814, 665.024 L 617.51, 668.896 L 619.27, 670.832 L 620.853, 672.943 L 623.669, 677.167 L 624.901, 679.278 L 627.013, 683.678 L 628.597, 688.253 L 629.3, 690.541 L 630.18, 695.293 L 630.532, 697.58 L 630.532, 700.044 L 630.532, 704.795 L 629.828, 709.547 L 627.893, 716.41 L 625.957, 720.985 L 591.817, 726.969 L 593.049, 731.368 L 598.152, 730.488 L 599.208, 733.656 L 587.593, 735.768 L 587.945, 737.176 L 575.979, 739.287 L 575.451, 737.703 L 569.996, 738.583 L 543.247, 650.418 z "/>
<path style="fill:rgb(0, 0, 255);fill-opacity:0;fill-rule:evenodd;stroke:rgb(90, 0, 255);stroke-width:1;" d="M 465.816, 514.034 L 487.286, 484.294 L 495.029, 487.637 L 555.741, 512.802 L 505.939, 581.962 L 473.031, 568.236 L 501.364, 528.817 L 465.816, 514.034 z "/>
<path style="fill:rgb(255, 255, 0);fill-opacity:0;fill-rule:evenodd;stroke:rgb(90, 0, 255);stroke-width:1;" d="M 162.604, 121.601 L 169.116, 112.626 L 167.356, 111.747 L 174.923, 101.54 L 177.387, 102.596 L 183.722, 93.7967 L 185.306, 94.5007 L 189.529, 88.6934 L 199.912, 93.2688 L 203.256, 88.6934 L 213.286, 92.9168 L 210.119, 97.3163 L 221.205, 101.892 L 229.476, 90.6291 L 273.119, 109.107 L 254.465, 134.624 L 257.105, 135.68 L 249.538, 146.062 L 246.898, 145.007 L 240.035, 154.333 L 225.077, 147.998 L 225.781, 146.942 L 178.443, 126.881 L 177.739, 127.937 L 162.604, 121.601 z "/>
<path style="fill:rgb(255, 0, 0);fill-opacity:0;fill-rule:evenodd;stroke:rgb(90, 0, 255);stroke-width:1;" d="M 664.32, 599.384 L 674.879, 599.208 L 674.527, 590.585 L 693.533, 590.233 L 693.533, 588.473 L 723.097, 587.945 L 724.857, 654.289 L 714.474, 654.465 L 714.474, 659.745 L 695.293, 660.097 L 695.293, 661.153 L 685.79, 661.153 L 685.614, 654.641 L 665.904, 654.993 L 664.32, 599.384 z "/>
<path style="fill:rgb(0, 255, 0);fill-opacity:0;fill-rule:evenodd;stroke:rgb(90, 0, 255);stroke-width:1;" d="M 228.773, 764.276 L 230.18, 762.341 L 258.337, 722.217 L 289.133, 680.334 L 312.363, 690.189 L 287.725, 724.153 L 283.678, 722.393 L 277.871, 730.488 L 268.368, 742.279 L 307.083, 758.997 L 285.262, 788.385 L 228.773, 764.276 z "/>
<path style="fill:rgb(0, 0, 255);fill-opacity:0;fill-rule:evenodd;stroke:rgb(90, 0, 255);stroke-width:1;" d="M 249.714, 285.966 L 257.457, 275.231 L 269.248, 280.334 L 270.128, 282.622 L 291.949, 291.773 L 294.589, 291.069 L 312.363, 298.636 L 316.586, 293.005 L 323.449, 283.678 L 328.377, 276.639 L 335.592, 266.96 L 391.377, 290.365 L 361.285, 331.72 L 299.692, 305.675 L 298.988, 306.731 L 286.318, 301.452 L 285.614, 299.164 L 281.39, 297.404 L 282.094, 296.348 L 275.759, 293.885 L 275.055, 294.765 L 264.32, 290.189 L 262.209, 291.245 L 249.714, 285.966 z "/>
<path style="fill:rgb(255, 255, 0);fill-opacity:0;fill-rule:evenodd;stroke:rgb(90, 0, 255);stroke-width:1;" d="M 283.326, 439.243 L 289.837, 430.092 L 298.636, 417.598 L 303.036, 411.439 L 310.427, 401.408 L 379.41, 430.092 L 358.469, 459.305 L 352.31, 467.752 L 341.927, 463.528 L 339.287, 467.048 L 300.22, 450.858 L 302.86, 447.338 L 283.326, 439.243 z "/>
<path style="fill:rgb(255, 0, 0);fill-opacity:0;fill-rule:evenodd;stroke:rgb(90, 0, 255);stroke-width:1;" d="M 426.221, 193.753 L 441.003, 173.515 L 446.282, 175.627 L 448.57, 172.459 L 455.433, 175.451 L 454.905, 176.155 L 483.942, 188.297 L 482.534, 190.057 L 497.14, 196.216 L 498.548, 194.457 L 527.585, 206.599 L 527.937, 206.071 L 534.448, 208.711 L 532.512, 211.351 L 538.143, 213.638 L 523.185, 234.228 L 510.691, 228.949 L 509.107, 231.06 L 431.148, 198.504 L 432.556, 196.392 L 426.221, 193.753 z "/>
<path style="fill:rgb(0, 255, 0);fill-opacity:0;fill-rule:evenodd;stroke:rgb(90, 0, 255);stroke-width:1;" d="M 524.945, 457.193 L 551.694, 420.414 L 555.213, 415.662 L 609.591, 438.539 L 579.498, 480.07 L 524.945, 457.193 z "/>
<path style="fill:rgb(0, 0, 255);fill-opacity:0;fill-rule:evenodd;stroke:rgb(90, 0, 255);stroke-width:1;" d="M 171.403, 741.399 L 198.152, 704.971 L 202.2, 699.34 L 239.155, 715.002 L 235.636, 719.93 L 241.795, 722.393 L 244.963, 717.994 L 256.049, 722.745 L 244.963, 737.703 L 240.387, 735.944 L 232.116, 747.206 L 237.747, 749.494 L 228.773, 761.637 L 230.18, 762.341 L 228.773, 764.276 L 227.893, 765.332 L 171.403, 741.399 z "/>
<path style="fill:rgb(255, 255, 0);fill-opacity:0;fill-rule:evenodd;stroke:rgb(90, 0, 255);stroke-width:1;" d="M 360.229, 532.512 L 367.62, 522.305 L 370.26, 522.129 L 374.131, 516.85 L 372.899, 515.09 L 382.578, 501.716 L 452.618, 531.104 L 442.939, 544.479 L 439.947, 544.831 L 436.428, 549.758 L 437.308, 552.046 L 430.092, 561.901 L 360.229, 532.512 z "/>
<path style="fill:rgb(255, 0, 0);fill-opacity:0;fill-rule:evenodd;stroke:rgb(90, 0, 255);stroke-width:1;" d="M 108.579, 73.2072 L 114.562, 65.1122 L 112.099, 64.0563 L 119.666, 53.6736 L 122.129, 54.7294 L 128.465, 46.2824 L 196.392, 75.319 L 190.409, 83.414 L 192.697, 84.2939 L 189.529, 88.6934 L 185.306, 94.5007 L 183.722, 93.7967 L 177.387, 102.596 L 174.923, 101.54 L 110.163, 74.0871 L 108.579, 73.2072 z "/>
<path style="fill:rgb(0, 255, 0);fill-opacity:0;fill-rule:evenodd;stroke:rgb(90, 0, 255);stroke-width:1;" d="M 600.264, 572.635 L 623.669, 572.283 L 622.965, 542.191 L 644.787, 542.015 L 644.963, 553.102 L 643.379, 553.102 L 643.379, 554.685 L 643.555, 567.18 L 655.697, 567.18 L 656.049, 591.113 L 644.083, 591.113 L 644.435, 606.951 L 646.722, 606.951 L 647.074, 618.39 L 632.996, 618.566 L 620.502, 635.108 L 608.183, 629.652 L 616.278, 618.742 L 624.725, 618.742 L 623.845, 586.89 L 600.616, 587.242 L 600.264, 572.635 z "/>
<path style="fill:rgb(0, 0, 255);fill-opacity:0;fill-rule:evenodd;stroke:rgb(90, 0, 255);stroke-width:1;" d="M 686.67, 711.131 L 691.773, 710.251 L 691.421, 709.195 L 704.795, 706.731 L 705.147, 707.963 L 710.427, 707.083 L 716.938, 728.729 L 722.217, 727.849 L 732.248, 761.813 L 727.145, 762.692 L 737, 795.425 L 731.72, 796.48 L 732.072, 797.712 L 719.402, 800 L 719.05, 798.592 L 713.066, 799.648 L 686.67, 711.131 z "/>
<path style="fill:rgb(255, 255, 0);fill-opacity:0;fill-rule:evenodd;stroke:rgb(90, 0, 255);stroke-width:1;" d="M 61.9446, 261.681 L 92.5649, 219.974 L 93.2688, 219.27 L 136.208, 237.396 L 125.825, 251.474 L 117.73, 262.385 L 113.154, 268.72 L 104.883, 279.982 L 61.9446, 261.681 z "/>
<path style="fill:rgb(255, 0, 0);fill-opacity:0;fill-rule:evenodd;stroke:rgb(90, 0, 255);stroke-width:1;" d="M 555.213, 415.662 L 555.741, 414.782 L 578.795, 383.282 L 633.172, 406.159 L 609.591, 438.539 L 555.213, 415.662 z "/>
<path style="fill:rgb(0, 255, 0);fill-opacity:0;fill-rule:evenodd;stroke:rgb(90, 0, 255);stroke-width:1;" d="M 307.435, 207.303 L 329.96, 176.155 L 372.019, 193.753 L 385.042, 199.208 L 363.748, 228.773 L 362.516, 230.356 L 354.421, 226.837 L 307.435, 207.303 z "/>
<path style="fill:rgb(0, 0, 255);fill-opacity:0;fill-rule:evenodd;stroke:rgb(90, 0, 255);stroke-width:1;" d="M 727.145, 632.644 L 746.326, 632.292 L 745.447, 600.968 L 767.796, 600.616 L 768.148, 612.758 L 765.684, 612.934 L 766.212, 627.189 L 778.179, 627.013 L 778.883, 651.122 L 766.74, 651.298 L 767.268, 666.608 L 769.908, 666.432 L 770.26, 678.223 L 747.734, 678.575 L 746.854, 647.074 L 727.673, 647.25 L 727.145, 632.644 z "/>
<path style="fill:rgb(255, 255, 0);fill-opacity:0;fill-rule:evenodd;stroke:rgb(90, 0, 255);stroke-width:1;" d="M 723.801, 484.294 L 742.983, 483.942 L 742.103, 452.618 L 764.276, 452.266 L 764.628, 464.584 L 762.341, 464.584 L 762.692, 478.839 L 774.659, 478.663 L 775.363, 502.772 L 763.396, 502.948 L 763.748, 518.258 L 766.388, 518.258 L 766.74, 529.872 L 744.215, 530.224 L 743.335, 498.724 L 724.153, 499.076 L 723.801, 484.294 z "/>
<path style="fill:rgb(255, 0, 0);fill-opacity:0;fill-rule:evenodd;stroke:rgb(90, 0, 255);stroke-width:1;" d="M 354.773, 241.091 L 362.516, 230.356 L 363.748, 228.773 L 367.62, 230.532 L 385.218, 206.071 L 419.358, 220.326 L 401.584, 244.963 L 405.103, 246.37 L 402.64, 249.714 L 396.304, 258.513 L 354.773, 241.091 z "/>
<path style="fill:rgb(0, 255, 0);fill-opacity:0;fill-rule:evenodd;stroke:rgb(90, 0, 255);stroke-width:1;" d="M 444.171, 368.148 L 444.699, 367.444 L 474.967, 325.737 L 502.948, 337.527 L 498.02, 344.215 L 471.975, 379.938 L 444.171, 368.148 z "/>
<path style="fill:rgb(0, 0, 255);fill-opacity:0;fill-rule:evenodd;stroke:rgb(90, 0, 255);stroke-width:1;" d="M 99.604, 511.043 L 103.3, 506.115 L 102.244, 503.3 L 107.875, 495.557 L 104.004, 493.797 L 109.107, 486.758 L 112.802, 488.341 L 115.618, 484.47 L 149.054, 498.548 L 154.685, 490.805 L 160.141, 493.093 L 154.509, 500.836 L 162.604, 504.355 L 153.454, 516.85 L 149.406, 522.481 L 142.543, 519.666 L 136.736, 520.722 L 133.392, 525.297 L 121.953, 520.37 L 102.244, 512.099 L 99.604, 511.043 z "/>
<path style="fill:rgb(255, 255, 0);fill-opacity:0;fill-rule:evenodd;stroke:rgb(90, 0, 255);stroke-width:1;" d="M 226.661, 417.774 L 255.873, 377.123 L 283.502, 388.561 L 262.033, 418.478 L 254.289, 429.212 L 226.661, 417.774 z "/>
<path style="fill:rgb(255, 0, 0);fill-opacity:0;fill-rule:evenodd;stroke:rgb(90, 0, 255);stroke-width:1;" d="M 88.3414, 706.379 L 95.0286, 697.228 L 99.0761, 691.773 L 102.596, 686.846 L 107.699, 679.982 L 114.21, 671.183 L 119.138, 664.496 L 145.183, 675.407 L 135.504, 688.781 L 114.562, 717.466 L 88.3414, 706.379 z "/>
<path style="fill:rgb(0, 255, 0);fill-opacity:0;fill-rule:evenodd;stroke:rgb(90, 0, 255);stroke-width:1;" d="M 387.33, 196.744 L 387.681, 196.216 L 393.489, 188.297 L 408.447, 167.532 L 413.198, 161.021 L 416.19, 156.797 L 443.995, 168.236 L 440.299, 173.163 L 441.003, 173.515 L 426.221, 193.753 L 424.637, 193.049 L 413.902, 207.831 L 387.33, 196.744 z "/>
<path style="fill:rgb(0, 0, 255);fill-opacity:0;fill-rule:evenodd;stroke:rgb(90, 0, 255);stroke-width:1;" d="M 418.83, 356.533 L 449.098, 314.826 L 474.967, 325.737 L 444.699, 367.444 L 418.83, 356.533 z "/>
<path style="fill:rgb(255, 255, 0);fill-opacity:0;fill-rule:evenodd;stroke:rgb(90, 0, 255);stroke-width:1;" d="M 235.108, 326.089 L 236.516, 324.153 L 235.108, 321.161 L 246.018, 306.379 L 243.379, 305.323 L 247.426, 299.868 L 250.066, 300.924 L 250.594, 300.044 L 278.399, 311.659 L 280.51, 312.714 L 276.991, 317.642 L 293.709, 324.681 L 283.502, 338.759 L 282.27, 338.231 L 280.862, 340.343 L 273.999, 337.352 L 275.407, 335.416 L 271.711, 333.832 L 267.84, 334.888 L 249.538, 327.145 L 245.491, 328.025 L 244.083, 329.784 L 235.108, 326.089 z "/>
<path style="fill:rgb(255, 0, 0);fill-opacity:0;fill-rule:evenodd;stroke:rgb(90, 0, 255);stroke-width:1;" d="M 320.634, 745.799 L 325.385, 739.287 L 331.016, 741.751 L 333.128, 739.111 L 334.36, 737.527 L 328.553, 735.064 L 333.656, 728.201 L 338.759, 730.488 L 341.751, 729.432 L 349.494, 732.776 L 354.949, 735.064 L 352.486, 738.231 L 360.229, 741.575 L 362.516, 738.407 L 384.338, 747.734 L 368.676, 768.852 L 367.62, 768.324 L 346.854, 759.349 L 348.966, 756.709 L 341.223, 753.366 L 338.935, 756.357 L 324.857, 750.198 L 326.265, 748.262 L 320.634, 745.799 z M 345.623, 748.79 L 353.014, 751.782 L 357.061, 746.326 L 349.494, 743.159 L 345.623, 748.79 z "/>
<path style="fill:rgb(0, 255, 0);fill-opacity:0;fill-rule:evenodd;stroke:rgb(90, 0, 255);stroke-width:1;" d="M 349.142, 169.82 L 364.1, 149.054 L 408.447, 167.532 L 393.489, 188.297 L 349.142, 169.82 z "/>
<path style="fill:rgb(0, 0, 255);fill-opacity:0;fill-rule:evenodd;stroke:rgb(90, 0, 255);stroke-width:1;" d="M 497.14, 445.403 L 505.411, 434.14 L 513.154, 437.484 L 523.537, 422.877 L 515.97, 419.71 L 523.889, 408.799 L 551.694, 420.414 L 524.945, 457.193 L 497.14, 445.403 z "/>
<path style="fill:rgb(255, 255, 0);fill-opacity:0;fill-rule:evenodd;stroke:rgb(90, 0, 255);stroke-width:1;" d="M 114.562, 717.466 L 135.504, 688.781 L 164.54, 701.1 L 165.244, 702.86 L 152.222, 720.634 L 150.11, 721.161 L 143.775, 729.784 L 114.562, 717.466 z "/>
<path style="fill:rgb(255, 0, 0);fill-opacity:0;fill-rule:evenodd;stroke:rgb(90, 0, 255);stroke-width:1;" d="M 234.58, 705.499 L 242.675, 694.413 L 249.538, 697.228 L 257.457, 686.494 L 251.298, 683.854 L 262.736, 668.016 L 289.485, 679.278 L 288.253, 681.038 L 278.399, 694.413 L 270.832, 691.421 L 262.033, 703.388 L 269.424, 706.555 L 261.857, 716.938 L 234.58, 705.499 z "/>
<path style="fill:rgb(0, 255, 0);fill-opacity:0;fill-rule:evenodd;stroke:rgb(90, 0, 255);stroke-width:1;" d="M 178.443, 681.566 L 186.186, 671.183 L 193.577, 674.351 L 202.552, 662.033 L 194.985, 658.865 L 205.543, 644.435 L 233.348, 656.225 L 232.82, 657.105 L 230.884, 659.745 L 222.613, 670.832 L 215.222, 667.664 L 212.231, 671.887 L 206.423, 679.806 L 213.814, 682.974 L 206.247, 693.357 L 178.443, 681.566 z "/>
<path style="fill:rgb(0, 0, 255);fill-opacity:0;fill-rule:evenodd;stroke:rgb(90, 0, 255);stroke-width:1;" d="M 154.333, 417.422 L 170.172, 395.952 L 182.314, 401.056 L 205.719, 411.087 L 210.471, 413.022 L 197.272, 431.148 L 189.705, 427.981 L 187.242, 431.324 L 154.333, 417.422 z "/>
<path style="fill:rgb(255, 255, 0);fill-opacity:0;fill-rule:evenodd;stroke:rgb(90, 0, 255);stroke-width:1;" d="M 468.28, 434.316 L 477.079, 422.349 L 484.998, 425.517 L 495.557, 411.087 L 487.637, 407.743 L 495.557, 396.832 L 523.889, 408.799 L 515.97, 419.71 L 508.755, 416.718 L 498.196, 431.148 L 505.411, 434.14 L 497.14, 445.403 L 496.612, 446.282 L 468.28, 434.316 z "/>
<path style="fill:rgb(255, 0, 0);fill-opacity:0;fill-rule:evenodd;stroke:rgb(90, 0, 255);stroke-width:1;" d="M 150.286, 669.6 L 155.389, 662.56 L 157.853, 659.217 L 165.42, 662.385 L 177.035, 646.37 L 177.211, 646.194 L 169.644, 643.027 L 177.387, 632.468 L 205.543, 644.435 L 194.985, 658.865 L 188.121, 656.049 L 179.147, 668.192 L 186.186, 671.183 L 178.443, 681.566 L 150.286, 669.6 z "/>
<path style="fill:rgb(0, 255, 0);fill-opacity:0;fill-rule:evenodd;stroke:rgb(90, 0, 255);stroke-width:1;" d="M 440.827, 422.877 L 441.355, 421.997 L 449.45, 410.911 L 456.665, 414.078 L 467.4, 399.12 L 460.185, 396.128 L 468.104, 385.218 L 495.557, 396.832 L 487.637, 407.743 L 480.422, 404.751 L 469.864, 419.182 L 477.079, 422.349 L 468.28, 434.316 L 440.827, 422.877 z "/>
<path style="fill:rgb(0, 0, 255);fill-opacity:0;fill-rule:evenodd;stroke:rgb(90, 0, 255);stroke-width:1;" d="M 128.465, 651.122 L 135.68, 641.267 L 138.847, 636.868 L 143.071, 631.236 L 150.462, 621.205 L 177.387, 632.468 L 169.644, 643.027 L 157.853, 659.217 L 155.389, 662.56 L 128.465, 651.122 z "/>
<path style="fill:rgb(255, 255, 0);fill-opacity:0;fill-rule:evenodd;stroke:rgb(90, 0, 255);stroke-width:1;" d="M 80.2464, 195.864 L 87.9894, 185.13 L 90.4531, 184.426 L 93.4448, 180.554 L 92.7409, 178.795 L 101.716, 166.3 L 129.344, 177.915 L 120.546, 190.057 L 118.258, 191.113 L 115.442, 195.161 L 115.266, 197.272 L 107.875, 207.479 L 80.2464, 195.864 z "/>
<path style="fill:rgb(255, 0, 0);fill-opacity:0;fill-rule:evenodd;stroke:rgb(90, 0, 255);stroke-width:1;" d="M 212.055, 685.79 L 213.814, 682.974 L 214.166, 682.446 L 222.613, 670.832 L 230.884, 659.745 L 232.82, 657.105 L 260.625, 668.72 L 242.147, 694.061 L 239.507, 697.58 L 212.055, 685.79 z "/>
<path style="fill:rgb(0, 255, 0);fill-opacity:0;fill-rule:evenodd;stroke:rgb(90, 0, 255);stroke-width:1;" d="M 25.165, 172.635 L 32.5561, 162.429 L 34.8438, 161.197 L 37.6595, 157.325 L 37.6595, 155.565 L 46.1065, 143.775 L 73.9111, 155.565 L 65.2882, 167.18 L 62.4725, 167.708 L 59.8328, 171.403 L 60.5367, 173.867 L 52.7937, 184.25 L 25.165, 172.635 z "/>
<path style="fill:rgb(0, 0, 255);fill-opacity:0;fill-rule:evenodd;stroke:rgb(90, 0, 255);stroke-width:1;" d="M 630.004, 273.471 L 638.099, 262.209 L 644.787, 253.058 L 677.167, 266.608 L 662.209, 287.198 L 659.041, 285.966 L 656.401, 289.485 L 630.884, 278.751 L 633.7, 274.879 L 630.004, 273.471 z "/>
<path style="fill:rgb(255, 255, 0);fill-opacity:0;fill-rule:evenodd;stroke:rgb(90, 0, 255);stroke-width:1;" d="M 257.457, 275.231 L 273.119, 253.762 L 284.558, 258.513 L 285.438, 260.977 L 294.413, 264.848 L 295.645, 263.264 L 307.259, 268.192 L 291.597, 289.661 L 280.334, 284.91 L 281.038, 283.678 L 274.703, 281.038 L 273.999, 281.918 L 269.424, 279.982 L 269.248, 280.334 L 257.457, 275.231 z "/>
<path style="fill:rgb(255, 0, 0);fill-opacity:0;fill-rule:evenodd;stroke:rgb(90, 0, 255);stroke-width:1;" d="M 502.772, 384.866 L 522.481, 357.589 L 518.434, 355.829 L 519.842, 353.894 L 525.121, 346.678 L 550.11, 357.413 L 545.183, 364.276 L 543.599, 366.388 L 540.255, 364.98 L 537.44, 365.156 L 534.976, 368.5 L 536.56, 369.204 L 519.842, 392.081 L 502.772, 384.866 z "/>
<path style="fill:rgb(0, 255, 0);fill-opacity:0;fill-rule:evenodd;stroke:rgb(90, 0, 255);stroke-width:1;" d="M 126.353, 577.563 L 149.23, 546.414 L 156.973, 536.032 L 171.755, 542.367 L 163.132, 553.982 L 141.311, 583.898 L 126.353, 577.563 z "/>
<path style="fill:rgb(0, 0, 255);fill-opacity:0;fill-rule:evenodd;stroke:rgb(90, 0, 255);stroke-width:1;" d="M 541.663, 408.799 L 560.845, 382.402 L 564.716, 377.123 L 567.18, 373.603 L 572.283, 366.74 L 586.538, 372.723 L 578.795, 383.282 L 555.741, 414.782 L 541.663, 408.799 z "/>
<path style="fill:rgb(255, 255, 0);fill-opacity:0;fill-rule:evenodd;stroke:rgb(90, 0, 255);stroke-width:1;" d="M 527.409, 395.425 L 547.118, 368.5 L 548.174, 368.852 L 550.11, 366.212 L 545.183, 364.276 L 550.11, 357.413 L 572.283, 366.74 L 567.18, 373.603 L 562.253, 371.667 L 560.141, 374.483 L 561.373, 375.011 L 561.021, 375.539 L 564.716, 377.123 L 560.845, 382.402 L 557.149, 380.818 L 542.015, 401.584 L 527.409, 395.425 z "/>
<path style="fill:rgb(255, 0, 0);fill-opacity:0;fill-rule:evenodd;stroke:rgb(90, 0, 255);stroke-width:1;" d="M 458.601, 285.438 L 467.048, 273.647 L 471.623, 275.583 L 475.495, 275.759 L 482.71, 266.08 L 475.495, 263.088 L 486.054, 248.658 L 502.948, 255.697 L 484.998, 280.686 L 482.358, 281.214 L 482.71, 282.974 L 486.758, 284.558 L 479.894, 294.237 L 458.601, 285.438 z "/>
<path style="fill:rgb(0, 255, 0);fill-opacity:0;fill-rule:evenodd;stroke:rgb(90, 0, 255);stroke-width:1;" d="M 479.894, 375.363 L 499.604, 348.438 L 500.66, 348.966 L 502.596, 346.15 L 498.02, 344.215 L 502.948, 337.527 L 525.121, 346.678 L 519.842, 353.894 L 515.09, 351.782 L 513.33, 354.421 L 514.562, 354.773 L 494.853, 381.698 L 479.894, 375.363 z "/>
<path style="fill:rgb(0, 0, 255);fill-opacity:0;fill-rule:evenodd;stroke:rgb(90, 0, 255);stroke-width:1;" d="M 437.659, 276.639 L 444.523, 267.136 L 448.57, 268.72 L 449.978, 267.84 L 468.984, 241.443 L 486.054, 248.658 L 475.495, 263.088 L 468.104, 259.921 L 461.065, 269.776 L 462.648, 271.887 L 467.048, 273.647 L 458.601, 285.438 L 437.659, 276.639 z "/>
<path style="fill:rgb(255, 255, 0);fill-opacity:0;fill-rule:evenodd;stroke:rgb(90, 0, 255);stroke-width:1;" d="M 578.795, 383.282 L 586.538, 372.723 L 641.091, 395.601 L 633.172, 406.159 L 578.795, 383.282 z "/>
<path style="fill:rgb(255, 0, 0);fill-opacity:0;fill-rule:evenodd;stroke:rgb(90, 0, 255);stroke-width:1;" d="M 353.014, 144.303 L 360.933, 133.216 L 408.975, 153.278 L 405.631, 157.853 L 413.198, 161.021 L 408.447, 167.532 L 364.1, 149.054 L 353.014, 144.303 z "/>
<path style="fill:rgb(0, 255, 0);fill-opacity:0;fill-rule:evenodd;stroke:rgb(90, 0, 255);stroke-width:1;" d="M 417.07, 268.016 L 417.598, 267.488 L 425.517, 256.577 L 429.74, 258.337 L 433.788, 258.161 L 440.827, 248.482 L 433.436, 245.491 L 443.819, 231.412 L 460.889, 238.451 L 442.763, 263.44 L 440.299, 263.792 L 441.179, 265.552 L 444.523, 267.136 L 437.659, 276.639 L 417.07, 268.016 z "/>
<path style="fill:rgb(0, 0, 255);fill-opacity:0;fill-rule:evenodd;stroke:rgb(90, 0, 255);stroke-width:1;" d="M 329.96, 176.155 L 337.879, 165.068 L 349.142, 169.82 L 393.489, 188.297 L 387.681, 196.216 L 381.522, 193.753 L 380.994, 194.281 L 373.955, 191.289 L 372.019, 193.753 L 329.96, 176.155 z "/>
<path style="fill:rgb(255, 255, 0);fill-opacity:0;fill-rule:evenodd;stroke:rgb(90, 0, 255);stroke-width:1;" d="M 28.3326, 308.843 L 42.2349, 289.661 L 72.1513, 302.156 L 58.249, 321.337 L 28.3326, 308.843 z "/>
<path style="fill:rgb(255, 0, 0);fill-opacity:0;fill-rule:evenodd;stroke:rgb(90, 0, 255);stroke-width:1;" d="M 299.868, 739.287 L 330.312, 697.756 L 344.039, 703.564 L 331.368, 720.985 L 313.77, 745.095 L 299.868, 739.287 z "/>
<path style="fill:rgb(0, 255, 0);fill-opacity:0;fill-rule:evenodd;stroke:rgb(90, 0, 255);stroke-width:1;" d="M 396.304, 258.513 L 402.64, 249.714 L 406.863, 251.474 L 409.503, 250.77 L 408.799, 248.834 L 426.573, 224.197 L 443.819, 231.412 L 433.436, 245.491 L 425.869, 242.323 L 418.83, 252.002 L 421.293, 254.817 L 425.517, 256.577 L 417.598, 267.488 L 396.304, 258.513 z "/>
<path style="fill:rgb(0, 0, 255);fill-opacity:0;fill-rule:evenodd;stroke:rgb(90, 0, 255);stroke-width:1;" d="M 57.8971, 549.23 L 66.344, 537.791 L 112.978, 557.501 L 115.794, 558.733 L 107.347, 570.172 L 57.8971, 549.23 z "/>
<path style="fill:rgb(255, 255, 0);fill-opacity:0;fill-rule:evenodd;stroke:rgb(90, 0, 255);stroke-width:1;" d="M 227.893, 558.029 L 246.37, 532.688 L 247.25, 533.04 L 249.186, 530.4 L 244.611, 528.465 L 251.298, 519.49 L 272.063, 528.289 L 265.376, 537.44 L 260.977, 535.68 L 259.745, 537.44 L 259.393, 539.023 L 241.443, 563.66 L 227.893, 558.029 z "/>
<path style="fill:rgb(255, 0, 0);fill-opacity:0;fill-rule:evenodd;stroke:rgb(90, 0, 255);stroke-width:1;" d="M 281.39, 43.6428 L 287.901, 34.6678 L 288.605, 33.7879 L 302.156, 39.4193 L 343.863, 56.8412 L 336.472, 66.872 L 281.39, 43.6428 z "/>
<path style="fill:rgb(0, 255, 0);fill-opacity:0;fill-rule:evenodd;stroke:rgb(90, 0, 255);stroke-width:1;" d="M 207.479, 549.23 L 225.077, 525.121 L 226.837, 523.889 L 228.773, 521.601 L 224.373, 519.666 L 230.708, 510.867 L 251.298, 519.49 L 244.611, 528.465 L 239.859, 526.529 L 237.923, 529.168 L 238.979, 529.52 L 220.502, 554.861 L 207.479, 549.23 z "/>
<path style="fill:rgb(0, 0, 255);fill-opacity:0;fill-rule:evenodd;stroke:rgb(90, 0, 255);stroke-width:1;" d="M 562.604, 328.905 L 582.49, 301.452 L 602.2, 309.723 L 587.593, 329.96 L 582.314, 337.176 L 562.604, 328.905 z "/>
<path style="fill:rgb(255, 255, 0);fill-opacity:0;fill-rule:evenodd;stroke:rgb(90, 0, 255);stroke-width:1;" d="M 299.516, 218.214 L 307.435, 207.303 L 354.421, 226.837 L 346.502, 237.747 L 299.516, 218.214 z "/>
<path style="fill:rgb(255, 0, 0);fill-opacity:0;fill-rule:evenodd;stroke:rgb(90, 0, 255);stroke-width:1;" d="M 192.873, 364.628 L 200.616, 354.07 L 253.234, 376.595 L 245.842, 386.626 L 241.267, 384.69 L 231.94, 380.818 L 230.884, 378.707 L 208.535, 369.204 L 204.839, 369.556 L 192.873, 364.628 z "/>
<path style="fill:rgb(0, 255, 0);fill-opacity:0;fill-rule:evenodd;stroke:rgb(90, 0, 255);stroke-width:1;" d="M 602.024, 282.798 L 622.085, 255.169 L 618.742, 253.938 L 625.253, 244.963 L 644.787, 253.058 L 638.099, 262.209 L 633.876, 260.449 L 613.99, 287.901 L 602.024, 282.798 z "/>
<path style="fill:rgb(0, 0, 255);fill-opacity:0;fill-rule:evenodd;stroke:rgb(90, 0, 255);stroke-width:1;" d="M 582.314, 337.176 L 587.593, 329.96 L 591.289, 329.608 L 594.105, 325.737 L 593.753, 323.625 L 595.337, 321.513 L 597.8, 320.458 L 610.999, 302.156 L 623.845, 307.435 L 610.471, 326.265 L 610.647, 327.673 L 609.063, 329.784 L 606.775, 331.192 L 603.96, 335.064 L 604.663, 337.352 L 599.56, 344.391 L 582.314, 337.176 z "/>
<path style="fill:rgb(255, 255, 0);fill-opacity:0;fill-rule:evenodd;stroke:rgb(90, 0, 255);stroke-width:1;" d="M 119.842, 287.725 L 128.289, 276.287 L 135.328, 279.278 L 170.7, 294.237 L 172.283, 294.765 L 163.836, 306.203 L 119.842, 287.725 z "/>
<path style="fill:rgb(255, 0, 0);fill-opacity:0;fill-rule:evenodd;stroke:rgb(90, 0, 255);stroke-width:1;" d="M 157.501, 735.592 L 163.836, 726.969 L 167.532, 722.041 L 168.94, 722.745 L 172.635, 717.642 L 171.227, 716.938 L 178.619, 706.907 L 184.25, 698.988 L 198.152, 704.971 L 171.403, 741.399 L 157.501, 735.592 z "/>
<path style="fill:rgb(0, 255, 0);fill-opacity:0;fill-rule:evenodd;stroke:rgb(90, 0, 255);stroke-width:1;" d="M 599.56, 344.391 L 604.663, 337.352 L 607.655, 336.824 L 610.823, 332.424 L 610.471, 330.312 L 612.055, 328.201 L 614.518, 327.497 L 627.717, 309.195 L 640.739, 314.474 L 627.189, 333.128 L 627.365, 334.536 L 625.429, 337.352 L 623.845, 337.879 L 620.678, 342.103 L 621.205, 344.215 L 616.102, 351.254 L 599.56, 344.391 z "/>
<path style="fill:rgb(0, 0, 255);fill-opacity:0;fill-rule:evenodd;stroke:rgb(90, 0, 255);stroke-width:1;" d="M 74.0871, 527.233 L 81.4782, 517.026 L 94.6766, 522.657 L 113.682, 530.752 L 126.353, 536.032 L 124.945, 537.967 L 129.168, 539.727 L 123.009, 547.998 L 120.546, 546.942 L 98.1962, 537.44 L 86.9336, 532.688 L 74.0871, 527.233 z "/>
<path style="fill:rgb(255, 255, 0);fill-opacity:0;fill-rule:evenodd;stroke:rgb(90, 0, 255);stroke-width:1;" d="M 66.344, 537.791 L 74.0871, 527.233 L 86.9336, 532.688 L 88.5174, 535.152 L 97.3163, 538.847 L 98.1962, 537.44 L 120.546, 546.942 L 112.978, 557.501 L 66.344, 537.791 z "/>
<path style="fill:rgb(255, 0, 0);fill-opacity:0;fill-rule:evenodd;stroke:rgb(90, 0, 255);stroke-width:1;" d="M 29.3885, 584.426 L 37.4835, 573.339 L 80.5983, 591.641 L 72.5033, 602.728 L 36.6036, 587.418 L 29.3885, 584.426 z "/>
<path style="fill:rgb(0, 255, 0);fill-opacity:0;fill-rule:evenodd;stroke:rgb(90, 0, 255);stroke-width:1;" d="M 302.156, 39.4193 L 310.251, 28.3326 L 351.782, 45.7545 L 343.863, 56.8412 L 302.156, 39.4193 z "/>
<path style="fill:rgb(0, 0, 255);fill-opacity:0;fill-rule:evenodd;stroke:rgb(90, 0, 255);stroke-width:1;" d="M 301.98, 363.396 L 309.547, 353.014 L 312.011, 352.486 L 315.53, 347.734 L 314.826, 345.623 L 324.681, 332.248 L 339.463, 338.407 L 316.762, 369.556 L 301.98, 363.396 z "/>
<path style="fill:rgb(255, 255, 0);fill-opacity:0;fill-rule:evenodd;stroke:rgb(90, 0, 255);stroke-width:1;" d="M 74.0871, 700.396 L 80.4223, 691.597 L 82.8861, 691.069 L 85.5257, 687.374 L 85.1738, 685.086 L 88.3414, 680.862 L 90.9811, 681.918 L 96.0845, 674.879 L 93.4448, 673.823 L 99.78, 665.2 L 114.21, 671.183 L 107.699, 679.982 L 104.531, 678.751 L 99.4281, 685.614 L 102.596, 686.846 L 99.0761, 691.773 L 97.3163, 691.069 L 93.9727, 695.645 L 93.2688, 696.524 L 95.0286, 697.228 L 88.3414, 706.379 L 74.0871, 700.396 z "/>
<path style="fill:rgb(255, 0, 0);fill-opacity:0;fill-rule:evenodd;stroke:rgb(90, 0, 255);stroke-width:1;" d="M 170.172, 395.952 L 177.739, 385.57 L 189.353, 390.497 L 190.937, 392.785 L 200.264, 396.656 L 199.032, 398.416 L 204.663, 400.88 L 205.895, 399.12 L 211.175, 401.408 L 213.11, 400.176 L 225.957, 405.631 L 218.214, 416.366 L 210.471, 413.022 L 205.719, 411.087 L 205.015, 409.679 L 199.208, 407.215 L 200.264, 405.631 L 195.337, 403.52 L 194.281, 405.103 L 185.13, 401.232 L 182.314, 401.056 L 170.172, 395.952 z "/>
<path style="fill:rgb(0, 255, 0);fill-opacity:0;fill-rule:evenodd;stroke:rgb(90, 0, 255);stroke-width:1;" d="M 185.306, 375.011 L 192.873, 364.628 L 204.839, 369.556 L 207.303, 372.019 L 215.75, 375.539 L 214.518, 377.299 L 219.974, 379.586 L 221.205, 378.003 L 227.013, 380.466 L 229.476, 379.762 L 231.94, 380.818 L 241.267, 384.69 L 233.348, 395.601 L 221.733, 390.673 L 221.029, 388.385 L 215.398, 385.922 L 216.278, 384.69 L 210.647, 382.402 L 209.767, 383.634 L 201.32, 379.938 L 197.096, 379.938 L 185.306, 375.011 z "/>
<path style="fill:rgb(0, 0, 255);fill-opacity:0;fill-rule:evenodd;stroke:rgb(90, 0, 255);stroke-width:1;" d="M 173.691, 211.175 L 174.395, 210.295 L 181.082, 201.32 L 225.077, 219.798 L 217.686, 229.652 L 204.839, 224.197 L 195.161, 220.15 L 182.314, 214.87 L 173.691, 211.175 z "/>
<path style="fill:rgb(255, 255, 0);fill-opacity:0;fill-rule:evenodd;stroke:rgb(90, 0, 255);stroke-width:1;" d="M 442.939, 495.381 L 451.914, 483.238 L 454.377, 482.006 L 456.841, 478.663 L 456.841, 476.551 L 467.576, 461.945 L 481.126, 467.576 L 479.718, 469.512 L 478.487, 471.095 L 470.568, 482.006 L 467.048, 482.886 L 464.232, 486.582 L 465.64, 488.517 L 456.489, 501.188 L 442.939, 495.381 z "/>
<path style="fill:rgb(255, 0, 0);fill-opacity:0;fill-rule:evenodd;stroke:rgb(90, 0, 255);stroke-width:1;" d="M 143.775, 729.784 L 150.11, 721.161 L 152.222, 720.634 L 165.244, 702.86 L 164.54, 701.1 L 170.348, 693.181 L 184.25, 698.988 L 178.619, 706.907 L 175.803, 707.611 L 172.635, 711.835 L 170.7, 711.131 L 167.004, 716.058 L 168.94, 716.762 L 162.78, 725.209 L 163.836, 726.969 L 157.501, 735.592 L 143.775, 729.784 z "/>
<path style="fill:rgb(0, 255, 0);fill-opacity:0;fill-rule:evenodd;stroke:rgb(90, 0, 255);stroke-width:1;" d="M 81.4782, 517.026 L 89.0453, 506.643 L 99.604, 511.043 L 102.244, 512.099 L 103.828, 513.682 L 115.266, 518.61 L 114.21, 520.194 L 120.37, 522.657 L 121.953, 520.37 L 133.392, 525.297 L 135.856, 526.353 L 128.289, 536.736 L 126.353, 536.032 L 113.682, 530.752 L 115.618, 528.113 L 110.691, 526.001 L 109.811, 527.409 L 97.4923, 522.129 L 94.6766, 522.657 L 81.4782, 517.026 z "/>
<path style="fill:rgb(0, 0, 255);fill-opacity:0;fill-rule:evenodd;stroke:rgb(90, 0, 255);stroke-width:1;" d="M 273.119, 253.762 L 280.862, 243.203 L 322.041, 260.625 L 314.298, 271.183 L 307.259, 268.192 L 295.645, 263.264 L 284.558, 258.513 L 273.119, 253.762 z "/>
<path style="fill:rgb(255, 255, 0);fill-opacity:0;fill-rule:evenodd;stroke:rgb(90, 0, 255);stroke-width:1;" d="M 273.999, 351.606 L 283.502, 338.759 L 293.709, 324.681 L 296.876, 320.458 L 311.131, 326.441 L 301.452, 339.639 L 298.812, 340.343 L 295.117, 345.447 L 295.996, 347.206 L 288.253, 357.589 L 273.999, 351.606 z "/>
<path style="fill:rgb(255, 0, 0);fill-opacity:0;fill-rule:evenodd;stroke:rgb(90, 0, 255);stroke-width:1;" d="M 177.563, 385.394 L 185.306, 375.011 L 197.096, 379.938 L 198.152, 382.05 L 208.183, 386.274 L 206.951, 387.857 L 212.055, 389.969 L 213.286, 388.385 L 219.094, 390.849 L 221.733, 390.673 L 233.348, 395.601 L 225.957, 405.631 L 213.11, 400.176 L 212.934, 398.944 L 207.655, 396.832 L 208.887, 395.249 L 203.08, 392.785 L 202.024, 394.369 L 192.697, 390.497 L 189.353, 390.497 L 177.739, 385.57 L 177.563, 385.394 z "/>
<path style="fill:rgb(0, 255, 0);fill-opacity:0;fill-rule:evenodd;stroke:rgb(90, 0, 255);stroke-width:1;" d="M 46.1065, 688.429 L 52.4417, 679.982 L 55.6093, 679.454 L 58.601, 675.407 L 57.3691, 673.119 L 60.1848, 669.248 L 63.1764, 670.48 L 68.4558, 663.44 L 65.4641, 662.209 L 71.7994, 653.234 L 86.0537, 659.217 L 79.5425, 668.192 L 76.0229, 666.784 L 70.9195, 673.823 L 74.4391, 675.231 L 71.4474, 679.278 L 68.6318, 679.454 L 65.4641, 683.854 L 66.696, 685.79 L 60.3608, 694.589 L 46.1065, 688.429 z "/>
<path style="fill:rgb(0, 0, 255);fill-opacity:0;fill-rule:evenodd;stroke:rgb(90, 0, 255);stroke-width:1;" d="M 70.3916, 634.58 L 81.4782, 619.27 L 81.3022, 615.926 L 94.6766, 597.624 L 108.579, 603.432 L 101.54, 612.934 L 99.4281, 613.638 L 96.4364, 617.686 L 96.9644, 619.622 L 94.5007, 622.789 L 91.509, 623.317 L 80.2464, 638.627 L 70.3916, 634.58 z "/>
<path style="fill:rgb(255, 255, 0);fill-opacity:0;fill-rule:evenodd;stroke:rgb(90, 0, 255);stroke-width:1;" d="M 304.443, 509.107 L 325.913, 479.542 L 340.343, 485.526 L 318.874, 515.09 L 304.443, 509.107 z "/>
<path style="fill:rgb(255, 0, 0);fill-opacity:0;fill-rule:evenodd;stroke:rgb(90, 0, 255);stroke-width:1;" d="M 98.0202, 646.018 L 109.283, 630.708 L 108.403, 628.597 L 110.163, 626.309 L 110.867, 625.253 L 113.506, 624.901 L 116.498, 620.853 L 115.794, 618.566 L 122.481, 609.415 L 136.56, 615.222 L 129.872, 624.373 L 127.057, 625.253 L 123.889, 629.476 L 124.945, 631.06 L 122.305, 634.58 L 119.666, 635.108 L 108.403, 650.418 L 98.0202, 646.018 z "/>
<path style="fill:rgb(0, 255, 0);fill-opacity:0;fill-rule:evenodd;stroke:rgb(90, 0, 255);stroke-width:1;" d="M 60.3608, 694.589 L 66.696, 685.79 L 68.9837, 685.262 L 72.1513, 680.862 L 71.4474, 679.278 L 74.4391, 675.231 L 77.0788, 676.287 L 82.1821, 669.248 L 79.5425, 668.192 L 86.0537, 659.217 L 99.78, 665.2 L 93.4448, 673.823 L 90.2772, 672.415 L 85.1738, 679.454 L 88.3414, 680.862 L 85.1738, 685.086 L 82.0062, 685.966 L 79.3665, 689.485 L 80.4223, 691.597 L 74.0871, 700.396 L 60.3608, 694.589 z "/>
<path style="fill:rgb(0, 0, 255);fill-opacity:0;fill-rule:evenodd;stroke:rgb(90, 0, 255);stroke-width:1;" d="M 265.552, 637.396 L 266.08, 636.868 L 273.647, 626.485 L 275.935, 625.957 L 279.454, 621.205 L 278.575, 618.918 L 288.605, 605.191 L 302.684, 611.175 L 293.181, 624.021 L 290.717, 625.077 L 287.022, 630.18 L 287.549, 631.764 L 280.158, 641.795 L 279.278, 643.203 L 265.552, 637.396 z "/>
<path style="fill:rgb(255, 255, 0);fill-opacity:0;fill-rule:evenodd;stroke:rgb(90, 0, 255);stroke-width:1;" d="M 111.747, 652.178 L 123.185, 636.516 L 122.305, 634.58 L 124.945, 631.06 L 127.233, 630.708 L 130.224, 626.661 L 129.872, 624.373 L 136.56, 615.222 L 150.462, 621.205 L 143.071, 631.236 L 140.607, 631.06 L 137.44, 635.108 L 138.847, 636.868 L 135.68, 641.267 L 133.744, 640.387 L 121.953, 656.401 L 111.747, 652.178 z "/>
<path style="fill:rgb(255, 0, 0);fill-opacity:0;fill-rule:evenodd;stroke:rgb(90, 0, 255);stroke-width:1;" d="M 84.1179, 640.387 L 95.5565, 624.549 L 94.5007, 622.789 L 96.9644, 619.622 L 98.9001, 619.446 L 102.244, 615.046 L 101.54, 612.934 L 108.579, 603.432 L 122.481, 609.415 L 115.794, 618.566 L 112.978, 619.27 L 109.811, 623.493 L 110.867, 625.253 L 110.163, 626.309 L 108.403, 628.597 L 105.587, 629.125 L 94.1487, 644.611 L 84.1179, 640.387 z "/>
<path style="fill:rgb(0, 255, 0);fill-opacity:0;fill-rule:evenodd;stroke:rgb(90, 0, 255);stroke-width:1;" d="M 401.056, 476.903 L 421.997, 447.69 L 436.428, 453.674 L 428.685, 464.408 L 427.629, 466.168 L 425.869, 465.288 L 423.053, 469.16 L 425.341, 470.04 L 424.637, 471.095 L 416.014, 483.062 L 401.056, 476.903 z "/>
<path style="fill:rgb(0, 0, 255);fill-opacity:0;fill-rule:evenodd;stroke:rgb(90, 0, 255);stroke-width:1;" d="M 357.061, 722.569 L 365.684, 710.955 L 401.584, 726.441 L 392.961, 738.055 L 357.061, 722.569 z "/>
<path style="fill:rgb(255, 255, 0);fill-opacity:0;fill-rule:evenodd;stroke:rgb(90, 0, 255);stroke-width:1;" d="M 32.5561, 682.798 L 38.3634, 675.055 L 41.0031, 673.999 L 44.3467, 669.248 L 43.4668, 667.84 L 45.0506, 665.728 L 46.6344, 663.616 L 49.2741, 664.672 L 54.3775, 657.633 L 51.7378, 656.401 L 58.425, 647.602 L 71.7994, 653.234 L 65.4641, 662.209 L 62.1205, 660.801 L 57.0172, 667.84 L 60.1848, 669.248 L 57.3691, 673.119 L 54.3775, 673.647 L 53.1456, 675.231 L 51.3858, 677.695 L 52.4417, 679.982 L 46.1065, 688.429 L 32.5561, 682.798 z "/>
<path style="fill:rgb(255, 0, 0);fill-opacity:0;fill-rule:evenodd;stroke:rgb(90, 0, 255);stroke-width:1;" d="M 332.248, 520.722 L 339.639, 510.691 L 342.103, 510.339 L 345.799, 505.235 L 344.919, 503.476 L 354.773, 489.925 L 368.852, 495.908 L 359.173, 509.283 L 356.709, 509.811 L 352.838, 514.914 L 353.894, 516.674 L 346.502, 526.705 L 332.248, 520.722 z "/>
<path style="fill:rgb(0, 255, 0);fill-opacity:0;fill-rule:evenodd;stroke:rgb(90, 0, 255);stroke-width:1;" d="M 252.002, 630.884 L 259.745, 620.326 L 261.857, 619.974 L 265.904, 614.518 L 265.376, 612.758 L 273.999, 601.144 L 275.055, 599.384 L 288.605, 605.191 L 278.575, 618.918 L 276.111, 619.798 L 272.591, 624.549 L 273.647, 626.485 L 266.08, 636.868 L 252.002, 630.884 z "/>
<path style="fill:rgb(0, 0, 255);fill-opacity:0;fill-rule:evenodd;stroke:rgb(90, 0, 255);stroke-width:1;" d="M 280.158, 641.795 L 287.549, 631.764 L 290.013, 631.412 L 293.885, 626.309 L 293.181, 624.021 L 302.684, 611.175 L 316.938, 617.158 L 307.435, 630.18 L 304.971, 630.532 L 300.924, 635.812 L 301.628, 637.923 L 294.413, 647.778 L 280.158, 641.795 z "/>
<path style="fill:rgb(255, 255, 0);fill-opacity:0;fill-rule:evenodd;stroke:rgb(90, 0, 255);stroke-width:1;" d="M 308.139, 653.586 L 315.706, 643.379 L 317.994, 643.027 L 321.689, 638.099 L 320.985, 636.164 L 330.664, 622.965 L 344.743, 629.125 L 334.712, 642.675 L 332.6, 642.675 L 328.729, 647.778 L 329.608, 649.538 L 322.217, 659.569 L 308.139, 653.586 z "/>
<path style="fill:rgb(255, 0, 0);fill-opacity:0;fill-rule:evenodd;stroke:rgb(90, 0, 255);stroke-width:1;" d="M 358.469, 459.305 L 379.41, 430.092 L 393.841, 436.076 L 386.274, 446.81 L 384.162, 447.162 L 381.346, 451.21 L 381.874, 452.794 L 372.899, 465.288 L 358.469, 459.305 z "/>
<path style="fill:rgb(0, 255, 0);fill-opacity:0;fill-rule:evenodd;stroke:rgb(90, 0, 255);stroke-width:1;" d="M 349.67, 671.359 L 357.589, 660.449 L 360.405, 659.921 L 363.044, 656.225 L 362.165, 654.289 L 371.491, 641.619 L 385.57, 647.602 L 368.324, 671.183 L 363.924, 677.343 L 349.67, 671.359 z "/>
<path style="fill:rgb(0, 0, 255);fill-opacity:0;fill-rule:evenodd;stroke:rgb(90, 0, 255);stroke-width:1;" d="M 107.875, 207.479 L 115.266, 197.272 L 118.258, 196.216 L 121.073, 192.345 L 120.546, 190.057 L 129.344, 177.915 L 143.599, 183.898 L 122.129, 213.462 L 107.875, 207.479 z "/>
<path style="fill:rgb(255, 255, 0);fill-opacity:0;fill-rule:evenodd;stroke:rgb(90, 0, 255);stroke-width:1;" d="M 113.154, 571.931 L 136.032, 540.783 L 149.23, 546.414 L 126.353, 577.563 L 113.154, 571.931 z "/>
<path style="fill:rgb(255, 0, 0);fill-opacity:0;fill-rule:evenodd;stroke:rgb(90, 0, 255);stroke-width:1;" d="M 141.311, 583.898 L 163.132, 553.982 L 176.859, 559.789 L 155.037, 589.705 L 141.311, 583.898 z "/>
<path style="fill:rgb(0, 255, 0);fill-opacity:0;fill-rule:evenodd;stroke:rgb(90, 0, 255);stroke-width:1;" d="M 288.253, 357.589 L 295.996, 347.206 L 297.756, 346.678 L 301.628, 341.399 L 301.452, 339.639 L 311.131, 326.441 L 324.681, 332.248 L 314.826, 345.623 L 312.538, 346.502 L 309.019, 351.254 L 309.547, 353.014 L 301.98, 363.396 L 288.253, 357.589 z "/>
<path style="fill:rgb(0, 0, 255);fill-opacity:0;fill-rule:evenodd;stroke:rgb(90, 0, 255);stroke-width:1;" d="M 135.328, 219.622 L 135.68, 219.27 L 143.599, 208.535 L 146.238, 208.183 L 149.23, 204.136 L 148.174, 202.024 L 157.325, 189.705 L 171.579, 195.689 L 162.604, 208.007 L 159.085, 208.887 L 156.269, 212.758 L 157.325, 215.222 L 149.582, 225.781 L 135.328, 219.622 z "/>
<path style="fill:rgb(255, 255, 0);fill-opacity:0;fill-rule:evenodd;stroke:rgb(90, 0, 255);stroke-width:1;" d="M 290.541, 503.3 L 298.636, 492.213 L 303.212, 485.878 L 312.011, 473.735 L 325.913, 479.542 L 304.443, 509.107 L 290.541, 503.3 z "/>
<path style="fill:rgb(255, 0, 0);fill-opacity:0;fill-rule:evenodd;stroke:rgb(90, 0, 255);stroke-width:1;" d="M 621.909, 354.245 L 628.773, 344.919 L 634.404, 347.382 L 635.812, 345.447 L 650.418, 351.782 L 648.482, 354.421 L 651.65, 355.653 L 653.586, 353.014 L 668.192, 359.173 L 660.097, 370.26 L 621.909, 354.245 z "/>
<path style="fill:rgb(0, 255, 0);fill-opacity:0;fill-rule:evenodd;stroke:rgb(90, 0, 255);stroke-width:1;" d="M 181.434, 528.641 L 190.761, 515.97 L 193.049, 515.618 L 195.864, 511.747 L 194.985, 509.811 L 202.904, 499.076 L 217.334, 505.235 L 209.415, 515.97 L 206.247, 516.498 L 203.96, 519.666 L 204.663, 522.305 L 195.689, 534.624 L 181.434, 528.641 z "/>
<path style="fill:rgb(0, 0, 255);fill-opacity:0;fill-rule:evenodd;stroke:rgb(90, 0, 255);stroke-width:1;" d="M 275.583, 424.109 L 284.558, 411.791 L 287.549, 411.439 L 290.189, 407.743 L 288.957, 405.631 L 297.052, 394.193 L 311.307, 400.176 L 310.427, 401.408 L 303.036, 411.439 L 301.1, 412.319 L 298.46, 416.014 L 298.636, 417.598 L 289.837, 430.092 L 275.583, 424.109 z "/>
<path style="fill:rgb(255, 255, 0);fill-opacity:0;fill-rule:evenodd;stroke:rgb(90, 0, 255);stroke-width:1;" d="M 346.502, 526.705 L 353.894, 516.674 L 356.005, 516.322 L 359.877, 511.043 L 359.173, 509.283 L 368.852, 495.908 L 382.578, 501.716 L 372.899, 515.09 L 370.788, 515.442 L 366.916, 520.722 L 367.62, 522.305 L 360.229, 532.512 L 346.502, 526.705 z "/>
<path style="fill:rgb(255, 0, 0);fill-opacity:0;fill-rule:evenodd;stroke:rgb(90, 0, 255);stroke-width:1;" d="M 210.119, 613.11 L 218.038, 602.376 L 219.974, 602.024 L 223.845, 596.92 L 222.789, 595.337 L 231.764, 583.194 L 246.018, 589.177 L 237.22, 601.32 L 234.58, 601.848 L 231.06, 606.599 L 231.94, 608.359 L 224.197, 619.094 L 210.119, 613.11 z "/>
<path style="fill:rgb(0, 255, 0);fill-opacity:0;fill-rule:evenodd;stroke:rgb(90, 0, 255);stroke-width:1;" d="M 155.037, 589.705 L 176.859, 559.789 L 190.409, 565.596 L 181.434, 577.739 L 176.859, 584.074 L 168.412, 595.337 L 155.037, 589.705 z "/>
<path style="fill:rgb(0, 0, 255);fill-opacity:0;fill-rule:evenodd;stroke:rgb(90, 0, 255);stroke-width:1;" d="M 322.217, 659.569 L 329.608, 649.538 L 331.72, 649.186 L 333.656, 646.37 L 335.592, 643.907 L 334.712, 642.675 L 344.743, 629.125 L 358.469, 634.932 L 357.765, 635.812 L 348.79, 648.306 L 345.623, 648.834 L 342.103, 653.762 L 343.335, 655.697 L 336.12, 665.552 L 322.217, 659.569 z "/>
<path style="fill:rgb(255, 255, 0);fill-opacity:0;fill-rule:evenodd;stroke:rgb(90, 0, 255);stroke-width:1;" d="M 104.004, 281.038 L 104.883, 279.982 L 113.154, 268.72 L 115.618, 267.84 L 118.61, 263.968 L 117.73, 262.385 L 125.825, 251.474 L 140.079, 257.457 L 132.16, 268.192 L 129.344, 269.072 L 127.057, 272.239 L 127.409, 274.351 L 118.082, 287.022 L 104.004, 281.038 z "/>
<path style="fill:rgb(255, 0, 0);fill-opacity:0;fill-rule:evenodd;stroke:rgb(90, 0, 255);stroke-width:1;" d="M 318.874, 515.09 L 340.343, 485.526 L 341.399, 484.294 L 354.773, 489.925 L 344.919, 503.476 L 342.631, 503.828 L 338.935, 508.931 L 339.639, 510.691 L 332.248, 520.722 L 318.874, 515.09 z "/>
<path style="fill:rgb(0, 255, 0);fill-opacity:0;fill-rule:evenodd;stroke:rgb(90, 0, 255);stroke-width:1;" d="M 262.033, 418.478 L 283.502, 388.561 L 297.052, 394.193 L 288.957, 405.631 L 284.558, 411.791 L 275.583, 424.109 L 262.033, 418.478 z "/>
<path style="fill:rgb(0, 0, 255);fill-opacity:0;fill-rule:evenodd;stroke:rgb(90, 0, 255);stroke-width:1;" d="M 248.834, 485.702 L 256.929, 474.439 L 259.041, 474.087 L 261.857, 470.216 L 261.329, 468.456 L 270.304, 456.137 L 284.382, 461.945 L 275.407, 474.439 L 272.943, 475.319 L 270.304, 478.839 L 271.007, 480.422 L 262.912, 491.509 L 248.834, 485.702 z "/>
<path style="fill:rgb(255, 255, 0);fill-opacity:0;fill-rule:evenodd;stroke:rgb(90, 0, 255);stroke-width:1;" d="M 294.413, 647.778 L 301.628, 637.923 L 304.267, 637.22 L 308.315, 631.764 L 307.435, 630.18 L 316.938, 617.158 L 330.664, 622.965 L 320.985, 636.164 L 318.346, 636.692 L 314.826, 641.795 L 315.706, 643.379 L 308.139, 653.586 L 294.413, 647.778 z "/>
<path style="fill:rgb(255, 0, 0);fill-opacity:0;fill-rule:evenodd;stroke:rgb(90, 0, 255);stroke-width:1;" d="M 195.689, 534.624 L 204.663, 522.305 L 209.415, 515.97 L 217.334, 505.235 L 230.708, 510.867 L 224.373, 519.666 L 209.239, 540.431 L 195.689, 534.624 z "/>
<path style="fill:rgb(0, 255, 0);fill-opacity:0;fill-rule:evenodd;stroke:rgb(90, 0, 255);stroke-width:1;" d="M 153.454, 516.85 L 162.604, 504.355 L 165.068, 503.828 L 167.884, 499.78 L 167.18, 498.02 L 175.099, 487.462 L 189.177, 493.269 L 181.258, 504.004 L 178.443, 504.531 L 175.627, 508.403 L 176.859, 510.163 L 167.708, 522.833 L 153.454, 516.85 z "/>
<path style="fill:rgb(0, 0, 255);fill-opacity:0;fill-rule:evenodd;stroke:rgb(90, 0, 255);stroke-width:1;" d="M 182.314, 601.144 L 190.585, 589.881 L 192.873, 589.705 L 196.04, 585.482 L 194.985, 583.37 L 203.96, 571.403 L 218.038, 577.387 L 209.063, 589.705 L 206.599, 590.057 L 203.608, 594.105 L 203.608, 596.744 L 196.04, 607.127 L 182.314, 601.144 z "/>
<path style="fill:rgb(255, 255, 0);fill-opacity:0;fill-rule:evenodd;stroke:rgb(90, 0, 255);stroke-width:1;" d="M 224.197, 619.094 L 231.94, 608.359 L 234.228, 607.831 L 237.571, 603.08 L 237.22, 601.32 L 246.018, 589.177 L 259.921, 595.161 L 251.298, 607.127 L 248.306, 607.831 L 244.787, 612.758 L 245.842, 614.342 L 238.099, 624.901 L 224.197, 619.094 z "/>
<path style="fill:rgb(255, 0, 0);fill-opacity:0;fill-rule:evenodd;stroke:rgb(90, 0, 255);stroke-width:1;" d="M 66.344, 190.057 L 74.4391, 178.971 L 76.1989, 178.795 L 79.1905, 174.747 L 79.0145, 172.635 L 87.9894, 160.493 L 101.716, 166.3 L 92.7409, 178.795 L 90.6291, 179.322 L 87.8135, 183.37 L 87.9894, 185.13 L 80.2464, 195.864 L 66.344, 190.057 z "/>
<path style="fill:rgb(0, 255, 0);fill-opacity:0;fill-rule:evenodd;stroke:rgb(90, 0, 255);stroke-width:1;" d="M 362.341, 604.311 L 371.491, 591.817 L 373.779, 591.641 L 376.067, 588.473 L 375.363, 586.538 L 383.634, 575.275 L 397.712, 581.258 L 389.617, 592.521 L 386.802, 592.873 L 384.514, 596.04 L 385.218, 598.68 L 376.595, 610.295 L 362.341, 604.311 z "/>
<path style="fill:rgb(0, 0, 255);fill-opacity:0;fill-rule:evenodd;stroke:rgb(90, 0, 255);stroke-width:1;" d="M 348.262, 598.328 L 357.237, 585.834 L 359.525, 585.658 L 362.341, 581.962 L 361.285, 580.378 L 369.38, 569.292 L 383.634, 575.275 L 375.363, 586.538 L 372.547, 586.89 L 370.26, 590.057 L 371.491, 591.817 L 362.341, 604.311 L 348.262, 598.328 z "/>
<path style="fill:rgb(255, 255, 0);fill-opacity:0;fill-rule:evenodd;stroke:rgb(90, 0, 255);stroke-width:1;" d="M 234.756, 479.718 L 242.851, 468.632 L 245.491, 468.104 L 248.13, 464.408 L 247.426, 462.473 L 256.225, 450.154 L 270.304, 456.137 L 261.329, 468.456 L 259.041, 468.984 L 256.225, 472.855 L 256.929, 474.439 L 248.834, 485.702 L 234.756, 479.718 z "/>
<path style="fill:rgb(255, 0, 0);fill-opacity:0;fill-rule:evenodd;stroke:rgb(90, 0, 255);stroke-width:1;" d="M 334.008, 592.345 L 342.983, 579.85 L 345.447, 579.498 L 348.086, 575.979 L 347.03, 574.219 L 355.125, 563.308 L 369.38, 569.292 L 361.285, 580.378 L 358.645, 580.378 L 356.005, 584.074 L 357.237, 585.834 L 348.262, 598.328 L 334.008, 592.345 z "/>
<path style="fill:rgb(0, 255, 0);fill-opacity:0;fill-rule:evenodd;stroke:rgb(90, 0, 255);stroke-width:1;" d="M 122.129, 213.462 L 143.599, 183.898 L 157.325, 189.705 L 148.174, 202.024 L 145.886, 202.728 L 143.071, 206.775 L 143.599, 208.535 L 135.68, 219.27 L 122.129, 213.462 z "/>
<path style="fill:rgb(0, 0, 255);fill-opacity:0;fill-rule:evenodd;stroke:rgb(90, 0, 255);stroke-width:1;" d="M 372.899, 465.288 L 381.874, 452.794 L 384.338, 452.442 L 387.154, 448.394 L 386.274, 446.81 L 393.841, 436.076 L 408.095, 441.883 L 400.528, 452.618 L 397.712, 453.322 L 395.073, 457.017 L 395.952, 458.777 L 387.154, 471.095 L 372.899, 465.288 z "/>
<path style="fill:rgb(255, 255, 0);fill-opacity:0;fill-rule:evenodd;stroke:rgb(90, 0, 255);stroke-width:1;" d="M 387.154, 471.095 L 395.952, 458.777 L 398.24, 458.425 L 400.88, 454.729 L 400.528, 452.618 L 408.095, 441.883 L 421.997, 447.69 L 401.056, 476.903 L 387.154, 471.095 z "/>
<path style="fill:rgb(255, 0, 0);fill-opacity:0;fill-rule:evenodd;stroke:rgb(90, 0, 255);stroke-width:1;" d="M 276.639, 497.316 L 284.91, 486.054 L 287.198, 485.702 L 290.013, 481.83 L 289.485, 479.894 L 298.284, 467.752 L 312.011, 473.735 L 303.212, 485.878 L 300.572, 486.406 L 297.932, 490.101 L 298.636, 492.213 L 290.541, 503.3 L 276.639, 497.316 z "/>
<path style="fill:rgb(0, 255, 0);fill-opacity:0;fill-rule:evenodd;stroke:rgb(90, 0, 255);stroke-width:1;" d="M 196.04, 607.127 L 203.608, 596.744 L 205.719, 597.624 L 210.119, 591.641 L 209.063, 589.705 L 218.038, 577.387 L 231.764, 583.194 L 222.789, 595.337 L 220.678, 595.689 L 217.334, 600.44 L 218.038, 602.376 L 210.119, 613.11 L 196.04, 607.127 z "/>
<path style="fill:rgb(0, 0, 255);fill-opacity:0;fill-rule:evenodd;stroke:rgb(90, 0, 255);stroke-width:1;" d="M 251.474, 557.501 L 260.449, 545.359 L 261.857, 545.183 L 265.904, 539.727 L 264.848, 538.143 L 265.376, 537.44 L 272.063, 528.289 L 286.318, 534.272 L 265.024, 563.308 L 251.474, 557.501 z "/>
<path style="fill:rgb(255, 255, 0);fill-opacity:0;fill-rule:evenodd;stroke:rgb(90, 0, 255);stroke-width:1;" d="M 238.099, 624.901 L 245.842, 614.342 L 248.306, 614.342 L 251.826, 609.415 L 251.298, 607.127 L 259.921, 595.161 L 273.999, 601.144 L 265.376, 612.758 L 262.56, 613.11 L 258.689, 618.566 L 259.745, 620.326 L 252.002, 630.884 L 238.099, 624.901 z "/>
<path style="fill:rgb(255, 0, 0);fill-opacity:0;fill-rule:evenodd;stroke:rgb(90, 0, 255);stroke-width:1;" d="M 262.912, 491.509 L 271.007, 480.422 L 273.119, 480.07 L 275.759, 476.551 L 275.407, 474.439 L 284.382, 461.945 L 298.284, 467.752 L 289.485, 479.894 L 287.022, 480.598 L 284.206, 484.294 L 284.91, 486.054 L 276.639, 497.316 L 262.912, 491.509 z "/>
<path style="fill:rgb(0, 255, 0);fill-opacity:0;fill-rule:evenodd;stroke:rgb(90, 0, 255);stroke-width:1;" d="M 336.12, 665.552 L 343.335, 655.697 L 344.039, 654.641 L 346.326, 654.114 L 349.142, 650.418 L 348.79, 648.306 L 357.765, 635.812 L 371.491, 641.619 L 362.165, 654.289 L 360.229, 654.993 L 357.413, 658.689 L 357.589, 660.449 L 349.67, 671.359 L 336.12, 665.552 z "/>
<path style="fill:rgb(0, 0, 255);fill-opacity:0;fill-rule:evenodd;stroke:rgb(90, 0, 255);stroke-width:1;" d="M 168.412, 595.337 L 176.859, 584.074 L 179.674, 583.546 L 182.138, 580.202 L 181.434, 577.739 L 190.409, 565.596 L 203.96, 571.403 L 194.985, 583.37 L 193.049, 584.074 L 189.881, 588.297 L 190.585, 589.881 L 182.314, 601.144 L 168.412, 595.337 z "/>
<path style="fill:rgb(255, 255, 0);fill-opacity:0;fill-rule:evenodd;stroke:rgb(90, 0, 255);stroke-width:1;" d="M 167.708, 522.833 L 176.859, 510.163 L 179.322, 509.987 L 182.138, 506.115 L 181.258, 504.004 L 189.177, 493.269 L 202.904, 499.076 L 194.985, 509.811 L 192.873, 510.515 L 189.881, 514.386 L 190.761, 515.97 L 181.434, 528.641 L 167.708, 522.833 z "/>
<path style="fill:rgb(255, 0, 0);fill-opacity:0;fill-rule:evenodd;stroke:rgb(90, 0, 255);stroke-width:1;" d="M 265.024, 563.308 L 286.318, 534.272 L 300.044, 540.079 L 292.653, 550.11 L 289.837, 550.814 L 286.67, 555.037 L 286.494, 555.389 L 287.374, 557.325 L 278.927, 569.116 L 265.024, 563.308 z "/>
<path style="fill:rgb(0, 255, 0);fill-opacity:0;fill-rule:evenodd;stroke:rgb(90, 0, 255);stroke-width:1;" d="M 456.489, 501.188 L 465.64, 488.517 L 468.104, 488.165 L 470.744, 484.47 L 470.568, 482.006 L 478.487, 471.095 L 492.037, 476.903 L 484.294, 487.462 L 480.95, 488.165 L 478.311, 491.685 L 479.015, 494.501 L 470.04, 506.819 L 456.489, 501.188 z "/>
<path style="fill:rgb(0, 0, 255);fill-opacity:0;fill-rule:evenodd;stroke:rgb(90, 0, 255);stroke-width:1;" d="M 278.927, 569.116 L 287.374, 557.325 L 290.013, 556.797 L 293.357, 552.222 L 292.653, 550.11 L 300.044, 540.079 L 314.122, 546.062 L 307.083, 555.741 L 304.267, 556.269 L 300.572, 561.373 L 301.628, 563.132 L 293.005, 575.099 L 278.927, 569.116 z "/>
<path style="fill:rgb(255, 255, 0);fill-opacity:0;fill-rule:evenodd;stroke:rgb(90, 0, 255);stroke-width:1;" d="M 52.7937, 184.25 L 60.5367, 173.867 L 62.8245, 172.811 L 65.4641, 168.94 L 65.2882, 167.18 L 73.9111, 155.565 L 74.4391, 154.685 L 87.9894, 160.493 L 79.0145, 172.635 L 76.1989, 173.515 L 73.3832, 177.563 L 74.4391, 178.971 L 66.344, 190.057 L 52.7937, 184.25 z "/>
<path style="fill:rgb(255, 0, 0);fill-opacity:0;fill-rule:evenodd;stroke:rgb(90, 0, 255);stroke-width:1;" d="M 221.381, 474.087 L 229.476, 462.824 L 231.412, 462.297 L 234.228, 458.425 L 233.7, 457.193 L 239.683, 448.922 L 242.851, 444.523 L 256.225, 450.154 L 247.426, 462.473 L 245.139, 463.176 L 242.499, 466.872 L 242.851, 468.632 L 234.756, 479.718 L 221.381, 474.087 z "/>
<path style="fill:rgb(0, 255, 0);fill-opacity:0;fill-rule:evenodd;stroke:rgb(90, 0, 255);stroke-width:1;" d="M 173.867, 226.309 L 182.314, 214.87 L 195.161, 220.15 L 195.513, 223.141 L 200.44, 225.077 L 204.839, 224.197 L 217.686, 229.652 L 209.415, 241.267 L 196.392, 235.812 L 194.457, 233.348 L 189.705, 231.236 L 186.89, 231.764 L 173.867, 226.309 z "/>
<path style="fill:rgb(0, 0, 255);fill-opacity:0;fill-rule:evenodd;stroke:rgb(90, 0, 255);stroke-width:1;" d="M 241.971, 296.524 L 249.714, 285.966 L 262.209, 291.245 L 285.966, 301.276 L 278.399, 311.659 L 250.594, 300.044 L 241.971, 296.524 z "/>
<path style="fill:rgb(255, 255, 0);fill-opacity:0;fill-rule:evenodd;stroke:rgb(90, 0, 255);stroke-width:1;" d="M 320.282, 586.538 L 329.081, 574.395 L 331.896, 574.043 L 334.888, 569.82 L 333.832, 567.884 L 341.399, 557.501 L 355.125, 563.308 L 347.03, 574.219 L 344.919, 574.571 L 342.279, 578.267 L 342.983, 579.85 L 334.008, 592.345 L 320.282, 586.538 z "/>
<path style="fill:rgb(255, 0, 0);fill-opacity:0;fill-rule:evenodd;stroke:rgb(90, 0, 255);stroke-width:1;" d="M 293.005, 575.099 L 301.628, 563.132 L 303.564, 562.604 L 307.259, 557.501 L 307.083, 555.741 L 314.122, 546.062 L 327.849, 551.87 L 320.81, 561.373 L 318.346, 561.549 L 314.474, 566.828 L 315.706, 568.588 L 306.731, 580.73 L 293.005, 575.099 z "/>
<path style="fill:rgb(0, 255, 0);fill-opacity:0;fill-rule:evenodd;stroke:rgb(90, 0, 255);stroke-width:1;" d="M 306.731, 580.73 L 315.706, 568.588 L 317.642, 568.06 L 320.634, 564.012 L 320.106, 562.429 L 320.81, 561.373 L 327.849, 551.87 L 341.399, 557.501 L 333.832, 567.884 L 331.368, 568.764 L 328.377, 572.811 L 329.081, 574.395 L 320.282, 586.538 L 306.731, 580.73 z "/>
<path style="fill:rgb(0, 0, 255);fill-opacity:0;fill-rule:evenodd;stroke:rgb(90, 0, 255);stroke-width:1;" d="M 416.014, 483.062 L 424.637, 471.095 L 426.925, 470.744 L 429.74, 466.696 L 428.685, 464.408 L 436.428, 453.674 L 450.154, 459.305 L 442.059, 470.568 L 439.771, 471.271 L 437.132, 474.967 L 438.187, 476.551 L 429.388, 488.693 L 416.014, 483.062 z "/>
<path style="fill:rgb(255, 255, 0);fill-opacity:0;fill-rule:evenodd;stroke:rgb(90, 0, 255);stroke-width:1;" d="M 143.071, 268.72 L 150.99, 257.809 L 163.308, 263.088 L 164.364, 265.2 L 169.644, 267.312 L 171.755, 266.608 L 186.362, 272.767 L 178.443, 283.678 L 143.071, 268.72 z "/>
<path style="fill:rgb(255, 0, 0);fill-opacity:0;fill-rule:evenodd;stroke:rgb(90, 0, 255);stroke-width:1;" d="M 135.328, 279.278 L 143.071, 268.72 L 178.443, 283.678 L 170.7, 294.237 L 135.328, 279.278 z "/>
<path style="fill:rgb(0, 255, 0);fill-opacity:0;fill-rule:evenodd;stroke:rgb(90, 0, 255);stroke-width:1;" d="M 349.494, 732.776 L 357.061, 722.569 L 392.961, 738.055 L 385.394, 748.086 L 384.338, 747.734 L 362.516, 738.407 L 354.949, 735.064 L 349.494, 732.776 z "/>
<path style="fill:rgb(0, 0, 255);fill-opacity:0;fill-rule:evenodd;stroke:rgb(90, 0, 255);stroke-width:1;" d="M 193.049, 462.297 L 211.351, 437.132 L 225.957, 443.115 L 207.655, 468.28 L 193.049, 462.297 z "/>
<path style="fill:rgb(255, 255, 0);fill-opacity:0;fill-rule:evenodd;stroke:rgb(90, 0, 255);stroke-width:1;" d="M 641.267, 330.664 L 644.787, 325.737 L 648.13, 327.321 L 650.242, 324.329 L 665.552, 330.84 L 663.968, 333.128 L 667.136, 334.36 L 668.896, 332.072 L 684.558, 339.111 L 676.991, 349.494 L 661.153, 342.807 L 662.912, 340.343 L 659.745, 338.935 L 657.809, 341.399 L 642.499, 335.064 L 644.787, 332.072 L 641.267, 330.664 z "/>
<path style="fill:rgb(255, 0, 0);fill-opacity:0;fill-rule:evenodd;stroke:rgb(90, 0, 255);stroke-width:1;" d="M 158.557, 247.426 L 166.3, 236.868 L 178.267, 241.971 L 180.378, 244.259 L 185.306, 246.37 L 188.825, 246.37 L 201.672, 251.826 L 193.929, 262.385 L 180.202, 256.577 L 179.147, 254.993 L 173.339, 252.53 L 170.524, 252.53 L 158.557, 247.426 z "/>
<path style="fill:rgb(0, 255, 0);fill-opacity:0;fill-rule:evenodd;stroke:rgb(90, 0, 255);stroke-width:1;" d="M 632.82, 341.399 L 636.692, 336.12 L 640.563, 337.703 L 642.499, 335.064 L 657.809, 341.399 L 656.049, 343.863 L 659.393, 345.271 L 661.153, 342.807 L 676.991, 349.494 L 669.6, 359.701 L 668.192, 359.173 L 653.586, 353.014 L 654.993, 350.902 L 652.002, 349.67 L 650.418, 351.782 L 635.812, 345.447 L 637.396, 343.335 L 632.82, 341.399 z "/>
<path style="fill:rgb(0, 0, 255);fill-opacity:0;fill-rule:evenodd;stroke:rgb(90, 0, 255);stroke-width:1;" d="M 166.3, 236.868 L 173.867, 226.309 L 186.89, 231.764 L 187.593, 234.052 L 192.697, 236.164 L 196.392, 235.812 L 209.415, 241.267 L 201.672, 251.826 L 188.825, 246.37 L 187.066, 243.907 L 182.314, 241.795 L 178.267, 241.971 L 166.3, 236.868 z "/>
<path style="fill:rgb(255, 255, 0);fill-opacity:0;fill-rule:evenodd;stroke:rgb(90, 0, 255);stroke-width:1;" d="M 150.99, 257.809 L 158.557, 247.426 L 170.524, 252.53 L 171.755, 254.641 L 177.563, 257.105 L 180.202, 256.577 L 193.929, 262.385 L 186.362, 272.767 L 171.755, 266.608 L 171.403, 265.2 L 165.948, 262.912 L 163.308, 263.088 L 150.99, 257.809 z "/>
<path style="fill:rgb(255, 0, 0);fill-opacity:0;fill-rule:evenodd;stroke:rgb(90, 0, 255);stroke-width:1;" d="M 207.655, 468.28 L 225.957, 443.115 L 239.683, 448.922 L 233.7, 457.193 L 234.228, 458.425 L 231.412, 462.297 L 229.476, 462.824 L 221.381, 474.087 L 207.655, 468.28 z "/>
<path style="fill:rgb(0, 255, 0);fill-opacity:0;fill-rule:evenodd;stroke:rgb(90, 0, 255);stroke-width:1;" d="M 303.036, 287.198 L 309.547, 278.399 L 311.307, 278.047 L 315.882, 271.887 L 314.298, 271.183 L 322.041, 260.625 L 335.944, 266.432 L 335.592, 266.96 L 328.377, 276.639 L 326.969, 276.111 L 323.801, 280.334 L 321.865, 282.974 L 323.449, 283.678 L 316.586, 293.005 L 303.036, 287.198 z "/>
<path style="fill:rgb(0, 0, 255);fill-opacity:0;fill-rule:evenodd;stroke:rgb(90, 0, 255);stroke-width:1;" d="M 146.59, 427.805 L 154.333, 417.422 L 187.242, 431.324 L 179.498, 441.707 L 146.59, 427.805 z "/>
<path style="fill:rgb(255, 255, 0);fill-opacity:0;fill-rule:evenodd;stroke:rgb(90, 0, 255);stroke-width:1;" d="M 179.498, 456.489 L 197.8, 431.324 L 211.351, 437.132 L 193.049, 462.297 L 179.498, 456.489 z "/>
<path style="fill:rgb(255, 0, 0);fill-opacity:0;fill-rule:evenodd;stroke:rgb(90, 0, 255);stroke-width:1;" d="M 60.3608, 623.141 L 66.1681, 615.222 L 69.5117, 615.222 L 78.3106, 603.08 L 77.2547, 601.32 L 83.414, 592.873 L 94.6766, 597.624 L 81.3022, 615.926 L 72.3273, 628.245 L 60.3608, 623.141 z "/>
<path style="fill:rgb(0, 255, 0);fill-opacity:0;fill-rule:evenodd;stroke:rgb(90, 0, 255);stroke-width:1;" d="M 149.23, 226.309 L 149.582, 225.781 L 157.325, 215.222 L 162.604, 208.007 L 171.579, 195.689 L 181.962, 200.088 L 181.082, 201.32 L 174.395, 210.295 L 172.283, 210.295 L 164.892, 220.502 L 165.596, 221.557 L 159.261, 230.532 L 149.23, 226.309 z "/>
<path style="fill:rgb(0, 0, 255);fill-opacity:0;fill-rule:evenodd;stroke:rgb(90, 0, 255);stroke-width:1;" d="M 21.2934, 678.047 L 28.3326, 668.368 L 30.7963, 667.664 L 33.7879, 663.44 L 32.9081, 662.033 L 39.7712, 652.706 L 51.0339, 657.633 L 46.6344, 663.616 L 45.0506, 665.728 L 42.2349, 665.904 L 36.7796, 673.119 L 38.3634, 675.055 L 32.5561, 682.798 L 21.2934, 678.047 z "/>
<path style="fill:rgb(255, 255, 0);fill-opacity:0;fill-rule:evenodd;stroke:rgb(90, 0, 255);stroke-width:1;" d="M 331.368, 720.985 L 344.039, 703.564 L 358.645, 709.723 L 345.799, 727.145 L 331.368, 720.985 z "/>
<path style="fill:rgb(255, 0, 0);fill-opacity:0;fill-rule:evenodd;stroke:rgb(90, 0, 255);stroke-width:1;" d="M 785.746, 334.536 L 791.905, 325.737 L 803.168, 330.488 L 797.184, 339.111 L 785.746, 334.536 z "/>
<path style="fill:rgb(0, 255, 0);fill-opacity:0;fill-rule:evenodd;stroke:rgb(90, 0, 255);stroke-width:1;" d="M 948.35, 77.7827 L 955.037, 68.1038 L 962.78, 71.0955 L 959.261, 76.5508 L 956.093, 80.9503 L 948.35, 77.7827 z "/>
<path style="fill:rgb(0, 0, 255);fill-opacity:0;fill-rule:evenodd;stroke:rgb(90, 0, 255);stroke-width:1;" d="M 640.387, 318.346 L 650.242, 304.795 L 654.993, 306.907 L 645.139, 320.458 L 640.387, 318.346 z "/>
<path style="fill:rgb(255, 255, 0);fill-opacity:0;fill-rule:evenodd;stroke:rgb(90, 0, 255);stroke-width:1;" d="M 5.10339, 237.571 L 11.6146, 228.773 L 15.6621, 223.317 L 19.3577, 218.39 L 24.4611, 211.351 L 31.8522, 201.32 L 35.8997, 195.864 L 92.5649, 219.974 L 61.9446, 261.681 L 5.10339, 237.571 z "/>
<path style="fill:rgb(255, 0, 0);fill-opacity:0;fill-rule:evenodd;stroke:rgb(90, 0, 255);stroke-width:1;" d="M 16.542, 60.1848 L 23.2292, 51.2099 L 20.2376, 49.978 L 22.7013, 46.6344 L 28.1566, 39.0673 L 31.1483, 40.2992 L 37.1315, 32.2041 L 112.099, 64.0563 L 114.562, 65.1122 L 108.579, 73.2072 L 110.163, 74.0871 L 102.244, 84.6458 L 100.132, 83.7659 L 93.7967, 92.5649 L 79.0145, 86.2297 L 79.7184, 85.3498 L 32.3801, 65.1122 L 31.3242, 66.52 L 16.542, 60.1848 z "/>
<path style="fill:rgb(0, 255, 0);fill-opacity:0;fill-rule:evenodd;stroke:rgb(90, 0, 255);stroke-width:1;" d="M 9.50286, 616.102 L 16.718, 606.247 L 21.4694, 608.183 L 29.0365, 597.8 L 24.2851, 595.689 L 31.3242, 586.186 L 36.0757, 588.121 L 36.6036, 587.418 L 72.5033, 602.728 L 74.615, 603.608 L 66.1681, 615.222 L 60.3608, 623.141 L 51.9138, 634.756 L 49.626, 633.7 L 37.8355, 628.773 L 35.7237, 631.588 L 27.1007, 627.893 L 29.2125, 625.077 L 19.5337, 621.029 L 17.4219, 623.845 L 11.7906, 621.381 L 14.2543, 618.038 L 9.50286, 616.102 z "/>
<path style="fill:rgb(0, 0, 255);fill-opacity:0;fill-rule:evenodd;stroke:rgb(90, 0, 255);stroke-width:1;" d="M 5.63132, 743.687 L 5.8073, 743.335 L 14.0783, 731.896 L 16.894, 731.368 L 20.2376, 726.793 L 19.5337, 724.153 L 26.5728, 714.65 L 68.6318, 732.072 L 61.9446, 741.223 L 61.2407, 742.279 L 58.9529, 742.455 L 55.4333, 747.558 L 55.9613, 749.318 L 47.5143, 761.109 L 44.1707, 759.701 L 42.059, 762.516 L 34.8438, 759.525 L 36.9556, 756.709 L 30.7963, 754.07 L 28.6846, 757.061 L 20.9415, 753.718 L 23.0532, 750.902 L 16.542, 748.086 L 14.6062, 750.726 L 7.21513, 747.558 L 8.97492, 745.095 L 5.63132, 743.687 z M 42.4109, 740.695 L 45.4026, 741.927 L 47.8663, 738.231 L 47.1623, 736.648 L 45.0506, 737.176 L 42.4109, 740.695 z M 28.6846, 735.064 L 31.5002, 736.296 L 34.1399, 732.6 L 33.26, 731.016 L 31.1483, 731.544 L 28.6846, 735.064 z "/>
<path style="fill:rgb(255, 255, 0);fill-opacity:0;fill-rule:evenodd;stroke:rgb(90, 0, 255);stroke-width:1;" d="M 0, 627.189 L 5.98328, 619.094 L 11.7906, 621.381 L 17.4219, 623.845 L 19.5337, 621.029 L 29.2125, 625.077 L 27.1007, 627.893 L 35.7237, 631.588 L 37.8355, 628.773 L 49.626, 633.7 L 41.531, 644.787 L 33.9639, 641.619 L 20.5895, 635.812 L 20.2376, 633.876 L 14.2543, 631.412 L 11.2626, 631.94 L 0, 627.189 z "/>
<path style="fill:rgb(255, 0, 0);fill-opacity:0;fill-rule:evenodd;stroke:rgb(90, 0, 255);stroke-width:1;" d="M 10.9107, 166.652 L 18.6538, 156.269 L 21.2934, 155.389 L 24.2851, 151.342 L 23.9331, 149.054 L 32.0282, 137.791 L 46.1065, 143.775 L 37.6595, 155.565 L 34.3159, 155.917 L 31.5002, 159.789 L 32.5561, 162.429 L 25.165, 172.635 L 10.9107, 166.652 z "/>
<path style="fill:rgb(0, 255, 0);fill-opacity:0;fill-rule:evenodd;stroke:rgb(90, 0, 255);stroke-width:1;" d="M 266.608, 37.4835 L 273.119, 28.5086 L 274.527, 29.2125 L 280.686, 20.7655 L 284.734, 22.5253 L 289.133, 16.542 L 284.91, 14.7822 L 286.494, 12.6705 L 286.142, 10.7347 L 293.885, 0 L 308.667, 6.15926 L 302.508, 14.7822 L 300.044, 15.3102 L 287.549, 32.3801 L 287.901, 34.6678 L 281.39, 43.6428 L 266.608, 37.4835 z "/>
<path style="fill:rgb(0, 0, 255);fill-opacity:0;fill-rule:evenodd;stroke:rgb(90, 0, 255);stroke-width:1;" d="M 310.251, 28.3326 L 317.994, 17.5979 L 359.701, 35.0198 L 351.782, 45.7545 L 310.251, 28.3326 z "/>
<path style="fill:rgb(255, 255, 0);fill-opacity:0;fill-rule:evenodd;stroke:rgb(90, 0, 255);stroke-width:1;" d="M 317.994, 17.5979 L 325.561, 7.21513 L 367.268, 24.637 L 359.701, 35.0198 L 317.994, 17.5979 z "/>
</svg>