<?xml version="1.0" encoding="iso-8859-1" standalone="no"?>
<!DOCTYPE svg PUBLIC "-//W3C//DTD SVG 1.0//EN" "http://www.w3.org/TR/2001/REC-SVG-20010904/DTD/svg10.dtd">
<svg xmlns="http://www.w3.org/2000/svg" width="888" height="800">
<path style="fill:rgb(255, 0, 0);fill-opacity:0;fill-rule:evenodd;stroke:rgb(180, 255, 0);stroke-width:1;" d="M 140.697, 264.761 L 174.832, 217.457 L 344.293, 288.846 L 532.64, 368.898 L 656.357, 421.226 L 728.958, 451.549 L 698.462, 494.347 L 696.383, 497.119 L 693.437, 495.906 L 691.705, 498.332 L 598.484, 458.653 L 410.656, 380.16 L 140.697, 264.761 z "/>
<path style="fill:rgb(0, 255, 0);fill-opacity:0;fill-rule:evenodd;stroke:rgb(180, 255, 0);stroke-width:1;" d="M 0, 571.627 L 19.7531, 527.442 L 127.529, 558.804 L 131.341, 559.844 L 237.903, 590.86 L 241.369, 591.9 L 255.577, 596.058 L 322.46, 626.554 L 315.183, 641.455 L 337.708, 651.679 L 341.52, 653.238 L 379.467, 670.392 L 382.933, 671.951 L 491.748, 720.814 L 504.05, 726.186 L 497.812, 734.676 L 510.981, 741.087 L 508.902, 743.686 L 496.253, 738.488 L 481.178, 758.415 L 493.827, 764.652 L 492.268, 767.425 L 479.272, 761.88 L 474.594, 766.039 L 468.01, 766.385 L 412.736, 743.686 L 403.725, 745.592 L 398.181, 743.513 L 398.007, 740.567 L 388.997, 736.929 L 385.878, 737.622 L 382.24, 736.236 L 381.546, 733.637 L 372.363, 729.825 L 374.616, 726.359 L 334.936, 711.111 L 324.193, 706.953 L 322.287, 704.007 L 319.861, 702.967 L 316.049, 705.393 L 296.296, 697.942 L 297.336, 694.477 L 291.271, 692.571 L 273.424, 687.546 L 253.671, 679.922 L 237.384, 671.258 L 215.724, 659.822 L 209.14, 661.382 L 160.97, 641.109 L 142.257, 636.604 L 127.875, 632.099 L 120.598, 630.019 L 112.974, 640.069 L 81.0916, 626.554 L 90.6216, 614.252 L 85.2502, 603.855 L 58.5662, 593.112 L 56.3136, 596.058 L 25.1245, 584.276 L 26.684, 578.558 L 0, 571.627 z "/>
<path style="fill:rgb(0, 0, 255);fill-opacity:0;fill-rule:evenodd;stroke:rgb(180, 255, 0);stroke-width:1;" d="M 9.18345, 565.909 L 19.7531, 549.101 L 28.59, 534.2 L 102.231, 555.859 L 133.42, 565.042 L 130.301, 569.721 L 158.718, 579.077 L 150.747, 591.38 L 142.084, 605.068 L 115.919, 595.018 L 107.429, 606.974 L 77.4529, 594.499 L 9.18345, 565.909 z "/>
<path style="fill:rgb(255, 255, 0);fill-opacity:0;fill-rule:evenodd;stroke:rgb(180, 255, 0);stroke-width:1;" d="M 427.117, 686.853 L 451.722, 652.545 L 531.947, 685.987 L 517.566, 706.086 L 507.169, 701.754 L 500.238, 711.458 L 496.946, 715.963 L 427.117, 686.853 z "/>
<path style="fill:rgb(255, 0, 0);fill-opacity:0;fill-rule:evenodd;stroke:rgb(180, 255, 0);stroke-width:1;" d="M 72.9478, 760.147 L 86.8096, 741.087 L 181.243, 780.94 L 180.55, 781.98 L 167.555, 800 L 72.9478, 760.147 z "/>
<path style="fill:rgb(0, 255, 0);fill-opacity:0;fill-rule:evenodd;stroke:rgb(180, 255, 0);stroke-width:1;" d="M 9.18345, 565.909 L 19.7531, 549.101 L 91.6613, 572.493 L 77.4529, 594.499 L 9.18345, 565.909 z "/>
<path style="fill:rgb(0, 0, 255);fill-opacity:0;fill-rule:evenodd;stroke:rgb(180, 255, 0);stroke-width:1;" d="M 19.7531, 549.101 L 28.59, 534.2 L 102.231, 555.859 L 91.6613, 572.493 L 19.7531, 549.101 z "/>
<path style="fill:rgb(255, 255, 0);fill-opacity:0;fill-rule:evenodd;stroke:rgb(180, 255, 0);stroke-width:1;" d="M 77.4529, 594.499 L 91.6613, 572.493 L 150.747, 591.38 L 142.084, 605.068 L 115.919, 595.018 L 107.429, 606.974 L 77.4529, 594.499 z "/>
<path style="fill:rgb(255, 0, 0);fill-opacity:0;fill-rule:evenodd;stroke:rgb(180, 255, 0);stroke-width:1;" d="M 91.6613, 572.493 L 102.231, 555.859 L 133.42, 565.042 L 130.301, 569.721 L 158.718, 579.077 L 150.747, 591.38 L 91.6613, 572.493 z "/>
<path style="fill:rgb(0, 255, 0);fill-opacity:0;fill-rule:evenodd;stroke:rgb(180, 255, 0);stroke-width:1;" d="M 221.269, 660.515 L 227.16, 653.411 L 233.745, 653.411 L 239.463, 654.797 L 244.661, 656.357 L 249.859, 658.956 L 251.072, 660.342 L 250.032, 661.902 L 259.909, 666.407 L 265.28, 668.659 L 270.998, 671.258 L 273.944, 669.352 L 280.702, 674.897 L 284.514, 678.016 L 286.073, 679.229 L 286.94, 681.481 L 285.727, 682.868 L 283.647, 683.387 L 270.652, 681.828 L 266.32, 681.828 L 265.454, 679.402 L 260.256, 677.323 L 259.389, 678.536 L 250.206, 674.551 L 251.419, 672.991 L 242.755, 668.833 L 240.329, 671.085 L 233.918, 668.139 L 234.611, 667.446 L 230.972, 665.714 L 221.269, 660.515 z "/>
<path style="fill:rgb(0, 0, 255);fill-opacity:0;fill-rule:evenodd;stroke:rgb(180, 255, 0);stroke-width:1;" d="M 459.519, 640.936 L 468.183, 628.287 L 515.313, 648.04 L 508.729, 656.357 L 459.519, 640.936 z "/>
<path style="fill:rgb(255, 255, 0);fill-opacity:0;fill-rule:evenodd;stroke:rgb(180, 255, 0);stroke-width:1;" d="M 61.6851, 532.294 L 77.7994, 510.288 L 99.8051, 519.472 L 83.6907, 541.65 L 61.6851, 532.294 z "/>
<path style="fill:rgb(255, 0, 0);fill-opacity:0;fill-rule:evenodd;stroke:rgb(180, 255, 0);stroke-width:1;" d="M 379.467, 670.392 L 393.329, 648.04 L 385.358, 645.094 L 395.235, 630.019 L 414.642, 637.47 L 404.938, 652.372 L 396.968, 649.426 L 382.933, 671.951 L 379.467, 670.392 z "/>
<path style="fill:rgb(0, 255, 0);fill-opacity:0;fill-rule:evenodd;stroke:rgb(180, 255, 0);stroke-width:1;" d="M 207.581, 572.84 L 217.63, 558.458 L 238.077, 566.775 L 228.027, 581.157 L 207.581, 572.84 z "/>
<path style="fill:rgb(0, 0, 255);fill-opacity:0;fill-rule:evenodd;stroke:rgb(180, 255, 0);stroke-width:1;" d="M 385.358, 645.094 L 395.235, 630.019 L 414.642, 637.47 L 404.938, 652.372 L 396.968, 649.426 L 393.329, 648.04 L 385.358, 645.094 z "/>
<path style="fill:rgb(255, 255, 0);fill-opacity:0;fill-rule:evenodd;stroke:rgb(180, 255, 0);stroke-width:1;" d="M 337.708, 651.679 L 352.437, 629.5 L 346.545, 627.247 L 354.343, 615.638 L 369.591, 621.356 L 361.793, 632.965 L 356.075, 630.886 L 341.52, 653.238 L 337.708, 651.679 z "/>
<path style="fill:rgb(255, 0, 0);fill-opacity:0;fill-rule:evenodd;stroke:rgb(180, 255, 0);stroke-width:1;" d="M 127.529, 558.804 L 140.004, 539.051 L 134.113, 536.972 L 141.737, 525.19 L 156.985, 530.908 L 149.361, 542.69 L 143.47, 540.438 L 131.341, 559.844 L 127.529, 558.804 z "/>
<path style="fill:rgb(0, 255, 0);fill-opacity:0;fill-rule:evenodd;stroke:rgb(180, 255, 0);stroke-width:1;" d="M 364.392, 637.124 L 373.403, 624.128 L 391.076, 631.232 L 382.066, 644.228 L 364.392, 637.124 z "/>
<path style="fill:rgb(0, 0, 255);fill-opacity:0;fill-rule:evenodd;stroke:rgb(180, 255, 0);stroke-width:1;" d="M 236.864, 580.464 L 244.488, 568.854 L 259.736, 574.572 L 252.112, 586.182 L 246.22, 584.102 L 241.369, 591.9 L 237.903, 590.86 L 242.755, 582.716 L 236.864, 580.464 z "/>
<path style="fill:rgb(255, 255, 0);fill-opacity:0;fill-rule:evenodd;stroke:rgb(180, 255, 0);stroke-width:1;" d="M 540.957, 694.65 L 546.675, 685.813 L 569.894, 694.304 L 564.176, 703.141 L 540.957, 694.65 z "/>
<path style="fill:rgb(255, 0, 0);fill-opacity:0;fill-rule:evenodd;stroke:rgb(180, 255, 0);stroke-width:1;" d="M 439.42, 627.594 L 445.138, 619.277 L 466.45, 627.594 L 460.732, 635.911 L 439.42, 627.594 z "/>
<path style="fill:rgb(0, 255, 0);fill-opacity:0;fill-rule:evenodd;stroke:rgb(180, 255, 0);stroke-width:1;" d="M 134.113, 536.972 L 141.737, 525.19 L 156.985, 530.908 L 149.361, 542.69 L 143.47, 540.438 L 140.004, 539.051 L 134.113, 536.972 z "/>
<path style="fill:rgb(0, 0, 255);fill-opacity:0;fill-rule:evenodd;stroke:rgb(180, 255, 0);stroke-width:1;" d="M 236.864, 580.464 L 244.488, 568.854 L 259.736, 574.572 L 252.112, 586.182 L 246.22, 584.102 L 242.755, 582.716 L 236.864, 580.464 z "/>
<path style="fill:rgb(255, 255, 0);fill-opacity:0;fill-rule:evenodd;stroke:rgb(180, 255, 0);stroke-width:1;" d="M 346.545, 627.247 L 354.343, 615.638 L 369.591, 621.356 L 361.793, 632.965 L 356.075, 630.886 L 352.437, 629.5 L 346.545, 627.247 z "/>
<path style="fill:rgb(255, 0, 0);fill-opacity:0;fill-rule:evenodd;stroke:rgb(180, 255, 0);stroke-width:1;" d="M 70.6953, 531.774 L 78.4925, 521.031 L 88.7156, 525.363 L 80.9183, 536.106 L 70.6953, 531.774 z "/>
<path style="fill:rgb(0, 255, 0);fill-opacity:0;fill-rule:evenodd;stroke:rgb(180, 255, 0);stroke-width:1;" d="M 266.32, 681.828 L 270.652, 681.828 L 283.647, 683.387 L 285.727, 682.868 L 286.94, 681.481 L 286.073, 679.229 L 284.514, 678.016 L 280.702, 674.897 L 280.702, 674.031 L 285.38, 676.457 L 294.044, 681.481 L 294.91, 683.907 L 293.697, 685.987 L 291.271, 687.719 L 287.633, 687.719 L 282.608, 687.199 L 275.85, 685.467 L 274.464, 686.506 L 266.32, 681.828 z "/>
<path style="fill:rgb(0, 0, 255);fill-opacity:0;fill-rule:evenodd;stroke:rgb(180, 255, 0);stroke-width:1;" d="M 236.517, 662.248 L 237.21, 660.515 L 239.636, 659.649 L 243.102, 659.996 L 249.166, 662.595 L 256.097, 666.06 L 257.83, 667.62 L 257.31, 670.045 L 255.577, 671.605 L 253.325, 671.605 L 251.419, 671.258 L 244.834, 668.139 L 237.557, 663.981 L 236.517, 662.248 z "/>
<path style="fill:rgb(255, 255, 0);fill-opacity:0;fill-rule:evenodd;stroke:rgb(180, 255, 0);stroke-width:1;" d="M 379.467, 670.392 L 393.329, 648.04 L 395.928, 644.228 L 399.567, 645.614 L 396.968, 649.426 L 382.933, 671.951 L 379.467, 670.392 z "/>
<path style="fill:rgb(255, 0, 0);fill-opacity:0;fill-rule:evenodd;stroke:rgb(180, 255, 0);stroke-width:1;" d="M 379.467, 670.392 L 393.329, 648.04 L 395.928, 644.228 L 399.567, 645.614 L 396.968, 649.426 L 382.933, 671.951 L 379.467, 670.392 z "/>
<path style="fill:rgb(0, 255, 0);fill-opacity:0;fill-rule:evenodd;stroke:rgb(180, 255, 0);stroke-width:1;" d="M 337.708, 651.679 L 352.437, 629.5 L 354.343, 626.727 L 357.981, 628.113 L 356.075, 630.886 L 341.52, 653.238 L 337.708, 651.679 z "/>
<path style="fill:rgb(0, 0, 255);fill-opacity:0;fill-rule:evenodd;stroke:rgb(180, 255, 0);stroke-width:1;" d="M 127.529, 558.804 L 140.004, 539.051 L 141.737, 536.279 L 145.376, 537.665 L 143.47, 540.438 L 131.341, 559.844 L 127.529, 558.804 z "/>
<path style="fill:rgb(255, 255, 0);fill-opacity:0;fill-rule:evenodd;stroke:rgb(180, 255, 0);stroke-width:1;" d="M 279.835, 685.813 L 281.741, 683.734 L 283.647, 683.387 L 285.727, 682.868 L 286.94, 681.481 L 286.073, 679.229 L 284.514, 678.016 L 286.073, 675.763 L 294.39, 679.575 L 288.672, 688.586 L 279.835, 685.813 z "/>
<path style="fill:rgb(255, 0, 0);fill-opacity:0;fill-rule:evenodd;stroke:rgb(180, 255, 0);stroke-width:1;" d="M 214.165, 653.065 L 215.724, 650.985 L 217.804, 649.773 L 222.309, 649.946 L 224.388, 650.812 L 225.428, 651.852 L 225.081, 654.104 L 223.695, 656.184 L 221.962, 657.916 L 220.23, 658.783 L 218.15, 658.436 L 216.244, 657.57 L 214.512, 654.971 L 214.165, 653.065 z "/>
<path style="fill:rgb(0, 255, 0);fill-opacity:0;fill-rule:evenodd;stroke:rgb(180, 255, 0);stroke-width:1;" d="M 139.658, 535.413 L 143.643, 529.348 L 151.44, 532.294 L 147.455, 538.532 L 145.376, 537.665 L 141.737, 536.279 L 139.658, 535.413 z "/>
<path style="fill:rgb(0, 0, 255);fill-opacity:0;fill-rule:evenodd;stroke:rgb(180, 255, 0);stroke-width:1;" d="M 242.235, 579.077 L 246.394, 573.013 L 254.191, 575.958 L 250.206, 582.023 L 248.126, 581.33 L 244.488, 579.944 L 242.235, 579.077 z "/>
<path style="fill:rgb(255, 255, 0);fill-opacity:0;fill-rule:evenodd;stroke:rgb(180, 255, 0);stroke-width:1;" d="M 393.676, 643.361 L 397.834, 637.297 L 405.631, 640.243 L 401.646, 646.307 L 399.567, 645.614 L 395.928, 644.228 L 393.676, 643.361 z "/>
<path style="fill:rgb(255, 0, 0);fill-opacity:0;fill-rule:evenodd;stroke:rgb(180, 255, 0);stroke-width:1;" d="M 352.09, 625.861 L 356.075, 619.796 L 364.046, 622.742 L 360.061, 628.807 L 357.981, 628.113 L 354.343, 626.727 L 352.09, 625.861 z "/>
<path style="fill:rgb(0, 255, 0);fill-opacity:0;fill-rule:evenodd;stroke:rgb(180, 255, 0);stroke-width:1;" d="M 298.549, 47.65 L 333.203, 0 L 888.889, 234.091 L 853.715, 280.875 L 852.328, 280.182 L 851.462, 281.395 L 781.46, 250.552 L 314.836, 53.8878 L 314.49, 54.4076 L 298.549, 47.65 z "/>
</svg>