<?xml version="1.0" encoding="iso-8859-1" standalone="no"?>
<!DOCTYPE svg PUBLIC "-//W3C//DTD SVG 1.0//EN" "http://www.w3.org/TR/2001/REC-SVG-20010904/DTD/svg10.dtd">
<svg xmlns="http://www.w3.org/2000/svg" width="1074" height="800">
<path style="fill:rgb(255, 0, 0);fill-opacity:0;fill-rule:evenodd;stroke:rgb(255, 0, 173);stroke-width:1;" d="M 839.866, 682.369 L 904.76, 592.983 L 984.849, 626.592 L 951.598, 672.536 L 955.531, 674.145 L 923.888, 717.765 L 839.866, 682.369 z "/>
<path style="fill:rgb(0, 255, 0);fill-opacity:0;fill-rule:evenodd;stroke:rgb(255, 0, 173);stroke-width:1;" d="M 302.659, 133.542 L 314.994, 116.737 L 326.257, 101.184 L 333.944, 90.6369 L 339.307, 83.1285 L 347.531, 71.8659 L 357.542, 58.1006 L 366.659, 45.5866 L 450.682, 80.8045 L 436.38, 100.469 L 422.257, 94.3911 L 386.324, 143.911 L 400.447, 149.81 L 386.682, 168.76 L 302.659, 133.542 z "/>
<path style="fill:rgb(0, 0, 255);fill-opacity:0;fill-rule:evenodd;stroke:rgb(255, 0, 173);stroke-width:1;" d="M 447.106, 515.933 L 479.464, 471.598 L 477.497, 470.704 L 509.497, 426.726 L 510.034, 426.011 L 580.112, 455.508 L 577.966, 458.369 L 516.648, 542.212 L 515.039, 544.536 L 447.106, 515.933 z "/>
<path style="fill:rgb(255, 255, 0);fill-opacity:0;fill-rule:evenodd;stroke:rgb(255, 0, 173);stroke-width:1;" d="M 516.648, 542.212 L 577.966, 458.369 L 662.704, 494.302 L 632.313, 536.134 L 603.709, 524.156 L 592.089, 519.151 L 582.257, 532.559 L 593.877, 537.564 L 574.034, 564.737 L 573.14, 565.989 L 516.648, 542.212 z "/>
<path style="fill:rgb(255, 0, 0);fill-opacity:0;fill-rule:evenodd;stroke:rgb(255, 0, 173);stroke-width:1;" d="M 264.939, 439.061 L 324.827, 357.006 L 326.615, 355.933 L 330.547, 354.145 L 333.408, 353.609 L 336.447, 353.788 L 384.358, 373.989 L 354.682, 414.57 L 369.341, 420.827 L 334.659, 468.38 L 264.939, 439.061 z "/>
<path style="fill:rgb(0, 255, 0);fill-opacity:0;fill-rule:evenodd;stroke:rgb(255, 0, 173);stroke-width:1;" d="M 35.5754, 486.793 L 53.2737, 462.123 L 53.8101, 461.408 L 99.0391, 480.179 L 123.531, 446.212 L 116.559, 443.352 L 117.989, 441.385 L 122.637, 443.352 L 139.084, 420.469 L 188.603, 440.849 L 125.318, 529.52 L 101.363, 519.508 L 98.324, 523.978 L 87.2402, 519.33 L 90.6369, 514.682 L 68.648, 505.564 L 71.3296, 501.631 L 35.5754, 486.793 z "/>
<path style="fill:rgb(0, 0, 255);fill-opacity:0;fill-rule:evenodd;stroke:rgb(255, 0, 173);stroke-width:1;" d="M 625.877, 419.218 L 657.698, 375.955 L 673.251, 378.816 L 688.983, 382.391 L 689.698, 381.497 L 732.067, 399.553 L 737.073, 392.939 L 752.447, 396.693 L 751.911, 397.408 L 741.899, 410.994 L 756.38, 417.073 L 744.939, 432.626 L 724.022, 461.05 L 625.877, 419.218 z "/>
<path style="fill:rgb(255, 255, 0);fill-opacity:0;fill-rule:evenodd;stroke:rgb(255, 0, 173);stroke-width:1;" d="M 643.218, 597.81 L 645.542, 594.771 L 665.207, 567.598 L 675.039, 554.369 L 689.162, 560.268 L 721.341, 516.112 L 762.994, 533.631 L 730.637, 577.966 L 698.994, 621.408 L 643.218, 597.81 z "/>
<path style="fill:rgb(255, 0, 0);fill-opacity:0;fill-rule:evenodd;stroke:rgb(255, 0, 173);stroke-width:1;" d="M 609.788, 234.19 L 624.268, 214.346 L 619.978, 212.559 L 652.514, 167.33 L 659.486, 170.369 L 660.022, 169.832 L 711.151, 191.106 L 708.112, 195.575 L 737.609, 208.089 L 716.872, 236.872 L 680.402, 221.676 L 659.307, 250.994 L 615.687, 232.76 L 613.542, 235.799 L 609.788, 234.19 z "/>
<path style="fill:rgb(0, 255, 0);fill-opacity:0;fill-rule:evenodd;stroke:rgb(255, 0, 173);stroke-width:1;" d="M 574.034, 564.737 L 593.877, 537.564 L 603.709, 524.156 L 632.313, 536.134 L 662.704, 494.302 L 664.492, 492.156 L 692.916, 504.134 L 660.737, 548.291 L 650.905, 561.52 L 665.207, 567.598 L 645.542, 594.771 L 637.497, 591.553 L 636.782, 592.447 L 580.827, 568.849 L 581.542, 567.955 L 574.034, 564.737 z "/>
<path style="fill:rgb(0, 0, 255);fill-opacity:0;fill-rule:evenodd;stroke:rgb(255, 0, 173);stroke-width:1;" d="M 119.598, 130.682 L 142.123, 99.933 L 266.011, 152.134 L 249.922, 174.123 L 246.704, 178.413 L 243.486, 183.061 L 119.598, 130.682 z "/>
<path style="fill:rgb(255, 255, 0);fill-opacity:0;fill-rule:evenodd;stroke:rgb(255, 0, 173);stroke-width:1;" d="M 884.022, 378.458 L 902.615, 352.715 L 914.056, 357.542 L 923.531, 344.134 L 956.067, 341.989 L 960.536, 335.911 L 998.257, 351.821 L 1003.8, 353.966 L 962.682, 411.173 L 884.022, 378.458 z "/>
<path style="fill:rgb(255, 0, 0);fill-opacity:0;fill-rule:evenodd;stroke:rgb(255, 0, 173);stroke-width:1;" d="M 542.749, 206.123 L 544.536, 203.62 L 557.408, 185.922 L 568.492, 190.57 L 599.24, 147.844 L 608.358, 151.598 L 612.827, 145.52 L 640.715, 157.318 L 636.246, 163.397 L 643.754, 166.436 L 612.827, 209.52 L 619.978, 212.559 L 624.268, 214.346 L 609.788, 234.19 L 589.587, 225.788 L 583.866, 233.654 L 577.43, 236.514 L 568.492, 237.765 L 560.089, 234.19 L 556.156, 227.575 L 557.05, 221.855 L 562.413, 214.346 L 542.749, 206.123 z "/>
<path style="fill:rgb(0, 255, 0);fill-opacity:0;fill-rule:evenodd;stroke:rgb(255, 0, 173);stroke-width:1;" d="M 790.525, 255.464 L 805.363, 235.084 L 933.363, 288.536 L 933.006, 288.894 L 939.799, 291.754 L 924.961, 312.313 L 914.056, 307.844 L 908.514, 315.352 L 871.687, 299.978 L 871.33, 300.335 L 866.324, 298.19 L 859.888, 295.508 L 831.642, 283.709 L 831.821, 283.352 L 794.816, 267.799 L 800.715, 259.754 L 790.525, 255.464 z "/>
<path style="fill:rgb(0, 0, 255);fill-opacity:0;fill-rule:evenodd;stroke:rgb(255, 0, 173);stroke-width:1;" d="M 78.6592, 187.888 L 100.827, 157.497 L 115.486, 163.575 L 112.268, 168.045 L 224, 215.24 L 214.704, 228.112 L 205.05, 241.341 L 78.6592, 187.888 z "/>
<path style="fill:rgb(255, 255, 0);fill-opacity:0;fill-rule:evenodd;stroke:rgb(255, 0, 173);stroke-width:1;" d="M 767.821, 324.827 L 782.838, 304.089 L 793.385, 308.38 L 798.927, 300.693 L 841.654, 318.57 L 855.24, 299.799 L 856.313, 300.335 L 859.888, 295.508 L 866.324, 298.19 L 862.927, 303.017 L 864.179, 303.553 L 850.592, 322.324 L 891.352, 339.486 L 885.453, 347.531 L 895.464, 351.821 L 880.804, 372.201 L 849.877, 359.33 L 848.983, 360.581 L 798.034, 339.307 L 798.927, 337.877 L 767.821, 324.827 z "/>
<path style="fill:rgb(255, 0, 0);fill-opacity:0;fill-rule:evenodd;stroke:rgb(255, 0, 173);stroke-width:1;" d="M 489.117, 606.034 L 506.458, 582.436 L 524.514, 589.944 L 527.196, 586.369 L 553.296, 597.453 L 550.615, 601.028 L 592.626, 618.905 L 595.307, 615.151 L 612.291, 622.302 L 609.609, 625.877 L 627.307, 633.385 L 610.324, 656.804 L 590.123, 648.402 L 587.441, 652.156 L 580.827, 649.475 L 579.933, 650.726 L 568.67, 645.899 L 572.246, 641.073 L 527.374, 622.123 L 523.62, 627.307 L 513.073, 622.659 L 513.788, 621.587 L 507.173, 618.726 L 508.603, 616.581 L 500.201, 613.006 L 501.453, 611.218 L 489.117, 606.034 z "/>
<path style="fill:rgb(0, 255, 0);fill-opacity:0;fill-rule:evenodd;stroke:rgb(255, 0, 173);stroke-width:1;" d="M 959.464, 256.894 L 982.525, 225.251 L 983.419, 224.179 L 1012.56, 236.514 L 1009.52, 240.626 L 1018.99, 244.737 L 1025.07, 236.514 L 1074.23, 257.251 L 1045.63, 296.223 L 977.877, 267.62 L 979.486, 265.475 L 959.464, 256.894 z "/>
<path style="fill:rgb(0, 0, 255);fill-opacity:0;fill-rule:evenodd;stroke:rgb(255, 0, 173);stroke-width:1;" d="M 935.687, 722.771 L 957.855, 692.022 L 960.536, 693.274 L 1003.44, 634.279 L 1045.99, 652.156 L 1003.26, 711.151 L 979.307, 701.14 L 957.14, 731.709 L 935.687, 722.771 z "/>
<path style="fill:rgb(255, 255, 0);fill-opacity:0;fill-rule:evenodd;stroke:rgb(255, 0, 173);stroke-width:1;" d="M 597.274, 258.145 L 613.542, 235.799 L 615.687, 232.76 L 659.307, 250.994 L 680.402, 221.676 L 716.872, 236.872 L 705.609, 252.425 L 701.497, 257.966 L 705.073, 259.575 L 695.955, 272.268 L 692.38, 270.838 L 677.363, 291.575 L 597.274, 258.145 z "/>
<path style="fill:rgb(255, 0, 0);fill-opacity:0;fill-rule:evenodd;stroke:rgb(255, 0, 173);stroke-width:1;" d="M 630.704, 742.078 L 651.263, 714.19 L 663.061, 697.922 L 729.922, 726.346 L 732.603, 727.598 L 700.246, 771.575 L 630.704, 742.078 z "/>
<path style="fill:rgb(0, 255, 0);fill-opacity:0;fill-rule:evenodd;stroke:rgb(255, 0, 173);stroke-width:1;" d="M 724.022, 461.05 L 744.939, 432.626 L 844.156, 474.816 L 843.084, 476.425 L 823.24, 503.24 L 724.022, 461.05 z "/>
<path style="fill:rgb(0, 0, 255);fill-opacity:0;fill-rule:evenodd;stroke:rgb(255, 0, 173);stroke-width:1;" d="M 454.078, 189.497 L 497.698, 128.894 L 530.771, 142.659 L 505.028, 178.413 L 532.737, 190.034 L 527.911, 196.648 L 514.86, 214.883 L 454.078, 189.497 z "/>
<path style="fill:rgb(255, 255, 0);fill-opacity:0;fill-rule:evenodd;stroke:rgb(255, 0, 173);stroke-width:1;" d="M 334.659, 468.38 L 369.341, 420.827 L 384, 426.905 L 397.408, 432.626 L 395.084, 435.844 L 409.922, 442.101 L 423.33, 447.821 L 390.972, 492.156 L 334.659, 468.38 z "/>
<path style="fill:rgb(255, 0, 0);fill-opacity:0;fill-rule:evenodd;stroke:rgb(255, 0, 173);stroke-width:1;" d="M 853.095, 436.916 L 863.464, 422.793 L 858.994, 420.827 L 869.542, 406.525 L 943.732, 438.168 L 911.374, 482.145 L 877.765, 467.844 L 889.207, 452.291 L 853.095, 436.916 z "/>
<path style="fill:rgb(0, 255, 0);fill-opacity:0;fill-rule:evenodd;stroke:rgb(255, 0, 173);stroke-width:1;" d="M 515.933, 314.994 L 546.324, 273.877 L 547.933, 271.911 L 605.497, 295.33 L 579.754, 330.19 L 573.318, 339.486 L 515.933, 314.994 z "/>
<path style="fill:rgb(0, 0, 255);fill-opacity:0;fill-rule:evenodd;stroke:rgb(255, 0, 173);stroke-width:1;" d="M 751.911, 397.408 L 752.447, 396.693 L 772.648, 369.162 L 779.263, 372.022 L 779.978, 371.128 L 850.771, 401.341 L 850.413, 401.877 L 857.028, 404.737 L 835.933, 433.341 L 751.911, 397.408 z "/>
<path style="fill:rgb(255, 255, 0);fill-opacity:0;fill-rule:evenodd;stroke:rgb(255, 0, 173);stroke-width:1;" d="M 823.24, 503.24 L 843.084, 476.425 L 845.944, 477.676 L 857.028, 462.659 L 875.799, 470.525 L 877.765, 467.844 L 911.374, 482.145 L 878.48, 526.838 L 823.24, 503.24 z "/>
<path style="fill:rgb(255, 0, 0);fill-opacity:0;fill-rule:evenodd;stroke:rgb(255, 0, 173);stroke-width:1;" d="M 461.944, 312.67 L 476.603, 292.648 L 503.777, 255.642 L 546.324, 273.877 L 515.933, 314.994 L 515.754, 315.352 L 514.145, 314.637 L 511.464, 318.212 L 499.665, 313.207 L 491.084, 325.006 L 461.944, 312.67 z "/>
<path style="fill:rgb(0, 255, 0);fill-opacity:0;fill-rule:evenodd;stroke:rgb(255, 0, 173);stroke-width:1;" d="M 935.866, 547.754 L 965.363, 507.173 L 968.402, 506.458 L 976.983, 494.659 L 1012.74, 509.855 L 1004.69, 520.939 L 1003.62, 520.402 L 988.961, 540.782 L 992.894, 542.391 L 989.14, 547.754 L 991.464, 548.827 L 992.894, 551.866 L 980.38, 569.028 L 976.804, 568.313 L 937.475, 551.687 L 935.866, 547.754 z "/>
<path style="fill:rgb(0, 0, 255);fill-opacity:0;fill-rule:evenodd;stroke:rgb(255, 0, 173);stroke-width:1;" d="M 526.123, 377.743 L 527.196, 376.313 L 556.693, 336.268 L 584.939, 348.246 L 582.257, 352 L 609.966, 363.799 L 582.257, 401.52 L 526.123, 377.743 z "/>
<path style="fill:rgb(255, 255, 0);fill-opacity:0;fill-rule:evenodd;stroke:rgb(255, 0, 173);stroke-width:1;" d="M 634.279, 665.922 L 655.374, 637.318 L 764.961, 683.978 L 757.095, 694.704 L 725.095, 680.939 L 685.944, 664.313 L 664.134, 693.989 L 637.14, 682.369 L 642.86, 674.682 L 641.43, 673.966 L 644.112, 670.212 L 634.279, 665.922 z "/>
<path style="fill:rgb(255, 0, 0);fill-opacity:0;fill-rule:evenodd;stroke:rgb(255, 0, 173);stroke-width:1;" d="M 794.458, 139.799 L 796.425, 137.117 L 822.704, 101.006 L 875.084, 123.173 L 849.877, 157.855 L 846.838, 161.966 L 794.458, 139.799 z "/>
<path style="fill:rgb(0, 255, 0);fill-opacity:0;fill-rule:evenodd;stroke:rgb(255, 0, 173);stroke-width:1;" d="M 205.05, 241.341 L 214.704, 228.112 L 224.715, 232.223 L 235.62, 217.028 L 225.788, 212.916 L 235.799, 198.972 L 257.788, 208.268 L 255.464, 211.665 L 256.894, 212.201 L 256, 213.453 L 261.006, 215.598 L 264.402, 211.128 L 278.346, 217.028 L 272.626, 224.715 L 284.246, 229.721 L 259.218, 264.223 L 205.05, 241.341 z "/>
<path style="fill:rgb(0, 0, 255);fill-opacity:0;fill-rule:evenodd;stroke:rgb(255, 0, 173);stroke-width:1;" d="M 492.156, 126.57 L 508.067, 104.581 L 537.743, 116.916 L 536.313, 118.883 L 561.52, 129.43 L 562.771, 127.642 L 594.413, 140.693 L 583.866, 155.173 L 581.006, 154.101 L 573.14, 165.006 L 568.313, 163.039 L 562.95, 170.369 L 549.006, 164.469 L 556.693, 153.564 L 530.771, 142.659 L 497.698, 128.894 L 492.156, 126.57 z "/>
<path style="fill:rgb(255, 255, 0);fill-opacity:0;fill-rule:evenodd;stroke:rgb(255, 0, 173);stroke-width:1;" d="M 402.592, 325.184 L 420.112, 301.587 L 423.866, 296.402 L 461.944, 312.67 L 491.084, 325.006 L 469.81, 353.966 L 402.592, 325.184 z "/>
<path style="fill:rgb(255, 0, 0);fill-opacity:0;fill-rule:evenodd;stroke:rgb(255, 0, 173);stroke-width:1;" d="M 677.363, 291.575 L 692.38, 270.838 L 695.955, 272.268 L 705.073, 259.575 L 701.497, 257.966 L 705.609, 252.425 L 720.447, 258.682 L 723.844, 253.855 L 755.486, 267.441 L 751.911, 271.732 L 723.665, 311.061 L 677.363, 291.575 z "/>
<path style="fill:rgb(0, 255, 0);fill-opacity:0;fill-rule:evenodd;stroke:rgb(255, 0, 173);stroke-width:1;" d="M 765.497, 574.57 L 787.665, 544.179 L 848.626, 569.922 L 826.458, 600.313 L 765.497, 574.57 z "/>
<path style="fill:rgb(0, 0, 255);fill-opacity:0;fill-rule:evenodd;stroke:rgb(255, 0, 173);stroke-width:1;" d="M 713.654, 627.486 L 745.296, 584.045 L 755.486, 588.335 L 816.447, 614.078 L 800.358, 636.067 L 742.793, 611.754 L 727.061, 633.207 L 713.654, 627.486 z "/>
<path style="fill:rgb(255, 255, 0);fill-opacity:0;fill-rule:evenodd;stroke:rgb(255, 0, 173);stroke-width:1;" d="M 235.978, 667.531 L 239.196, 663.24 L 263.687, 629.989 L 267.263, 625.162 L 272.804, 627.486 L 273.52, 626.592 L 305.877, 640.358 L 305.162, 641.251 L 309.989, 643.397 L 295.866, 662.704 L 278.883, 685.765 L 235.978, 667.531 z "/>
<path style="fill:rgb(255, 0, 0);fill-opacity:0;fill-rule:evenodd;stroke:rgb(255, 0, 173);stroke-width:1;" d="M 673.251, 378.816 L 699.173, 343.598 L 755.486, 367.732 L 737.073, 392.939 L 732.067, 399.553 L 689.698, 381.497 L 688.983, 382.391 L 673.251, 378.816 z "/>
<path style="fill:rgb(0, 255, 0);fill-opacity:0;fill-rule:evenodd;stroke:rgb(255, 0, 173);stroke-width:1;" d="M 288.179, 598.525 L 297.475, 585.832 L 298.905, 583.866 L 310.883, 589.05 L 316.782, 580.648 L 310.525, 578.145 L 319.821, 565.453 L 367.553, 585.832 L 353.43, 605.14 L 361.117, 608.358 L 351.642, 621.229 L 346.458, 618.905 L 344.134, 622.302 L 288.179, 598.525 z "/>
<path style="fill:rgb(0, 0, 255);fill-opacity:0;fill-rule:evenodd;stroke:rgb(255, 0, 173);stroke-width:1;" d="M 47.7318, 735.821 L 67.5754, 708.469 L 83.486, 715.084 L 98.1453, 721.341 L 126.212, 733.14 L 127.642, 733.676 L 134.972, 736.715 L 115.128, 764.067 L 86.3464, 751.911 L 84.7374, 751.196 L 86.8827, 747.978 L 75.6201, 743.33 L 73.2961, 746.369 L 47.7318, 735.821 z "/>
<path style="fill:rgb(255, 255, 0);fill-opacity:0;fill-rule:evenodd;stroke:rgb(255, 0, 173);stroke-width:1;" d="M 181.81, 553.296 L 212.916, 510.57 L 245.631, 524.335 L 237.587, 535.419 L 239.374, 536.134 L 229.542, 549.721 L 237.05, 552.76 L 235.799, 554.369 L 244.737, 558.123 L 232.581, 574.749 L 181.81, 553.296 z "/>
<path style="fill:rgb(255, 0, 0);fill-opacity:0;fill-rule:evenodd;stroke:rgb(255, 0, 173);stroke-width:1;" d="M 150.883, 387.039 L 177.162, 350.749 L 179.665, 347.531 L 202.19, 357.006 L 198.615, 362.19 L 187.352, 377.564 L 189.497, 378.458 L 223.464, 392.76 L 207.374, 414.927 L 172.693, 400.447 L 175.017, 397.229 L 150.883, 387.039 z "/>
<path style="fill:rgb(0, 255, 0);fill-opacity:0;fill-rule:evenodd;stroke:rgb(255, 0, 173);stroke-width:1;" d="M 437.989, 629.631 L 451.933, 610.503 L 449.966, 609.609 L 482.324, 565.274 L 510.391, 577.073 L 506.458, 582.436 L 489.117, 606.034 L 488.402, 607.106 L 487.151, 606.57 L 485.542, 608.715 L 484.469, 608.179 L 461.587, 639.642 L 437.989, 629.631 z "/>
<path style="fill:rgb(0, 0, 255);fill-opacity:0;fill-rule:evenodd;stroke:rgb(255, 0, 173);stroke-width:1;" d="M 721.341, 160.715 L 723.486, 157.676 L 741.899, 132.469 L 753.341, 116.916 L 777.832, 83.3073 L 791.777, 89.3855 L 766.212, 124.246 L 764.067, 127.106 L 777.654, 133.006 L 766.749, 148.022 L 751.017, 169.475 L 748.872, 172.335 L 721.341, 160.715 z "/>
<path style="fill:rgb(255, 255, 0);fill-opacity:0;fill-rule:evenodd;stroke:rgb(255, 0, 173);stroke-width:1;" d="M 847.911, 772.827 L 877.765, 731.352 L 920.67, 749.05 L 897.073, 781.944 L 877.408, 773.899 L 871.151, 782.48 L 847.911, 772.827 z "/>
<path style="fill:rgb(255, 0, 0);fill-opacity:0;fill-rule:evenodd;stroke:rgb(255, 0, 173);stroke-width:1;" d="M 351.642, 621.229 L 361.117, 608.358 L 363.441, 605.318 L 371.486, 608.715 L 381.497, 595.128 L 422.793, 612.648 L 415.464, 622.659 L 424.223, 626.235 L 409.743, 646.078 L 395.62, 640 L 394.011, 642.145 L 365.765, 630.168 L 367.553, 628.022 L 351.642, 621.229 z "/>
<path style="fill:rgb(0, 255, 0);fill-opacity:0;fill-rule:evenodd;stroke:rgb(255, 0, 173);stroke-width:1;" d="M 217.922, 718.123 L 228.291, 704 L 231.33, 705.43 L 234.19, 703.642 L 239.911, 695.777 L 249.922, 682.369 L 267.978, 690.056 L 261.542, 698.994 L 260.827, 702.57 L 267.084, 705.251 L 270.302, 702.749 L 276.737, 693.81 L 295.151, 701.676 L 279.598, 722.771 L 279.061, 725.631 L 282.279, 727.061 L 278.883, 731.531 L 272.089, 740.827 L 249.922, 731.352 L 260.648, 716.872 L 250.816, 712.76 L 239.911, 727.598 L 217.922, 718.123 z "/>
<path style="fill:rgb(0, 0, 255);fill-opacity:0;fill-rule:evenodd;stroke:rgb(255, 0, 173);stroke-width:1;" d="M 510.034, 221.497 L 514.86, 214.883 L 527.911, 196.648 L 544.536, 203.62 L 542.749, 206.123 L 562.413, 214.346 L 557.05, 221.855 L 556.156, 227.575 L 560.089, 234.19 L 568.492, 237.765 L 577.43, 236.514 L 583.866, 233.654 L 589.587, 225.788 L 609.788, 234.19 L 613.542, 235.799 L 597.274, 258.145 L 583.151, 252.246 L 583.508, 251.531 L 524.514, 227.039 L 524.156, 227.397 L 510.034, 221.497 z "/>
<path style="fill:rgb(255, 255, 0);fill-opacity:0;fill-rule:evenodd;stroke:rgb(255, 0, 173);stroke-width:1;" d="M 259.218, 264.223 L 284.246, 229.721 L 329.475, 248.849 L 307.844, 278.346 L 297.296, 280.134 L 259.218, 264.223 z "/>
<path style="fill:rgb(255, 0, 0);fill-opacity:0;fill-rule:evenodd;stroke:rgb(255, 0, 173);stroke-width:1;" d="M 162.682, 694.704 L 163.575, 693.274 L 180.559, 670.212 L 213.095, 684.156 L 231.151, 659.665 L 235.441, 661.631 L 217.385, 686.123 L 239.911, 695.777 L 234.19, 703.642 L 231.33, 705.43 L 228.291, 704 L 217.922, 718.123 L 162.682, 694.704 z "/>
<path style="fill:rgb(0, 255, 0);fill-opacity:0;fill-rule:evenodd;stroke:rgb(255, 0, 173);stroke-width:1;" d="M 239.017, 577.609 L 248.67, 564.38 L 256.179, 567.598 L 257.43, 565.81 L 263.508, 568.492 L 270.48, 559.017 L 256.894, 553.117 L 266.011, 540.782 L 314.994, 561.52 L 305.698, 574.034 L 288.358, 566.525 L 285.855, 569.922 L 288.536, 570.994 L 282.816, 578.682 L 286.749, 580.469 L 286.212, 581.006 L 297.475, 585.832 L 288.179, 598.525 L 239.017, 577.609 z "/>
<path style="fill:rgb(0, 0, 255);fill-opacity:0;fill-rule:evenodd;stroke:rgb(255, 0, 173);stroke-width:1;" d="M 653.765, 86.5251 L 657.162, 81.8771 L 685.587, 42.905 L 721.341, 58.1006 L 720.447, 59.352 L 699.709, 87.5978 L 695.419, 93.4972 L 681.832, 87.7765 L 675.933, 95.8212 L 653.765, 86.5251 z "/>
<path style="fill:rgb(255, 255, 0);fill-opacity:0;fill-rule:evenodd;stroke:rgb(255, 0, 173);stroke-width:1;" d="M 355.933, 565.989 L 386.145, 524.514 L 434.235, 544.894 L 417.788, 567.419 L 415.642, 570.458 L 380.782, 555.799 L 369.162, 571.531 L 355.933, 565.989 z "/>
<path style="fill:rgb(255, 0, 0);fill-opacity:0;fill-rule:evenodd;stroke:rgb(255, 0, 173);stroke-width:1;" d="M 406.168, 591.553 L 422.257, 569.385 L 417.788, 567.419 L 434.235, 544.894 L 468.38, 559.374 L 435.844, 604.067 L 406.168, 591.553 z "/>
<path style="fill:rgb(0, 255, 0);fill-opacity:0;fill-rule:evenodd;stroke:rgb(255, 0, 173);stroke-width:1;" d="M 923.888, 717.765 L 955.531, 674.145 L 951.598, 672.536 L 984.849, 626.592 L 1003.44, 634.279 L 960.536, 693.274 L 957.855, 692.022 L 935.687, 722.771 L 923.888, 717.765 z "/>
<path style="fill:rgb(0, 0, 255);fill-opacity:0;fill-rule:evenodd;stroke:rgb(255, 0, 173);stroke-width:1;" d="M 277.631, 521.832 L 281.207, 516.827 L 287.821, 507.709 L 294.078, 499.128 L 298.369, 493.408 L 347.352, 514.145 L 326.615, 542.57 L 277.631, 521.832 z "/>
<path style="fill:rgb(255, 255, 0);fill-opacity:0;fill-rule:evenodd;stroke:rgb(255, 0, 173);stroke-width:1;" d="M 577.251, 713.654 L 590.123, 696.313 L 602.101, 679.866 L 612.469, 684.156 L 613.542, 682.726 L 621.944, 684.335 L 631.955, 688.626 L 626.056, 696.67 L 627.665, 697.207 L 626.413, 698.994 L 633.207, 701.855 L 631.955, 703.464 L 637.855, 705.966 L 636.425, 707.754 L 619.084, 731.531 L 577.251, 713.654 z "/>
<path style="fill:rgb(255, 0, 0);fill-opacity:0;fill-rule:evenodd;stroke:rgb(255, 0, 173);stroke-width:1;" d="M 827.352, 201.475 L 845.408, 176.626 L 853.81, 165.184 L 872.223, 172.872 L 890.816, 180.737 L 864.358, 217.028 L 827.352, 201.475 z "/>
<path style="fill:rgb(0, 255, 0);fill-opacity:0;fill-rule:evenodd;stroke:rgb(255, 0, 173);stroke-width:1;" d="M 60.067, 348.961 L 69.7207, 335.553 L 82.4134, 340.737 L 90.4581, 329.832 L 77.7654, 324.469 L 85.8101, 313.385 L 107.978, 322.682 L 106.905, 323.933 L 130.324, 333.765 L 122.994, 343.777 L 113.52, 339.844 L 108.335, 347.173 L 105.475, 346.101 L 103.687, 348.246 L 104.045, 350.749 L 114.592, 355.218 L 105.475, 367.911 L 60.067, 348.961 z "/>
<path style="fill:rgb(0, 0, 255);fill-opacity:0;fill-rule:evenodd;stroke:rgb(255, 0, 173);stroke-width:1;" d="M 613.363, 116.38 L 615.687, 113.162 L 633.564, 88.6704 L 639.642, 80.4469 L 653.765, 86.5251 L 675.933, 95.8212 L 669.676, 104.402 L 651.799, 128.894 L 649.654, 131.754 L 613.363, 116.38 z "/>
<path style="fill:rgb(255, 255, 0);fill-opacity:0;fill-rule:evenodd;stroke:rgb(255, 0, 173);stroke-width:1;" d="M 284.067, 189.14 L 300.693, 166.257 L 368.626, 195.039 L 355.218, 213.453 L 301.765, 190.749 L 298.369, 189.318 L 295.151, 193.788 L 284.067, 189.14 z "/>
<path style="fill:rgb(255, 0, 0);fill-opacity:0;fill-rule:evenodd;stroke:rgb(255, 0, 173);stroke-width:1;" d="M 663.061, 697.922 L 670.57, 687.732 L 682.726, 692.916 L 690.95, 681.654 L 716.514, 692.559 L 745.654, 704.894 L 729.922, 726.346 L 663.061, 697.922 z "/>
<path style="fill:rgb(0, 255, 0);fill-opacity:0;fill-rule:evenodd;stroke:rgb(255, 0, 173);stroke-width:1;" d="M 726.525, 634.101 L 727.061, 633.207 L 742.793, 611.754 L 800.358, 636.067 L 784.089, 658.413 L 726.525, 634.101 z "/>
<path style="fill:rgb(0, 0, 255);fill-opacity:0;fill-rule:evenodd;stroke:rgb(255, 0, 173);stroke-width:1;" d="M 131.933, 620.693 L 160.894, 581.184 L 197.721, 596.916 L 190.212, 607.285 L 189.497, 607.106 L 184.492, 613.899 L 178.771, 611.397 L 172.156, 620.335 L 169.654, 619.263 L 159.821, 632.67 L 131.933, 620.693 z "/>
<path style="fill:rgb(255, 255, 0);fill-opacity:0;fill-rule:evenodd;stroke:rgb(255, 0, 173);stroke-width:1;" d="M 660.737, 548.291 L 692.916, 504.134 L 721.341, 516.112 L 689.162, 560.268 L 675.039, 554.369 L 660.737, 548.291 z "/>
<path style="fill:rgb(255, 0, 0);fill-opacity:0;fill-rule:evenodd;stroke:rgb(255, 0, 173);stroke-width:1;" d="M 893.497, 787.128 L 897.073, 781.944 L 920.67, 749.05 L 957.497, 764.425 L 956.067, 766.391 L 937.654, 792.134 L 935.508, 794.994 L 893.497, 787.128 z "/>
<path style="fill:rgb(0, 255, 0);fill-opacity:0;fill-rule:evenodd;stroke:rgb(255, 0, 173);stroke-width:1;" d="M 587.441, 344.849 L 587.978, 344.134 L 619.62, 301.229 L 647.866, 313.207 L 619.263, 352 L 615.687, 356.827 L 587.441, 344.849 z "/>
<path style="fill:rgb(0, 0, 255);fill-opacity:0;fill-rule:evenodd;stroke:rgb(255, 0, 173);stroke-width:1;" d="M 114.056, 316.961 L 115.844, 314.458 L 145.698, 273.162 L 173.944, 285.14 L 142.302, 328.76 L 114.056, 316.961 z "/>
<path style="fill:rgb(255, 255, 0);fill-opacity:0;fill-rule:evenodd;stroke:rgb(255, 0, 173);stroke-width:1;" d="M 419.575, 504.313 L 451.933, 459.978 L 462.302, 464.268 L 477.497, 470.704 L 479.464, 471.598 L 447.106, 515.933 L 419.575, 504.313 z "/>
<path style="fill:rgb(255, 0, 0);fill-opacity:0;fill-rule:evenodd;stroke:rgb(255, 0, 173);stroke-width:1;" d="M 86.8827, 302.302 L 116.737, 261.006 L 145.698, 273.162 L 115.844, 314.458 L 114.056, 313.564 L 112.447, 315.888 L 104.223, 312.492 L 105.832, 310.168 L 86.8827, 302.302 z "/>
<path style="fill:rgb(0, 255, 0);fill-opacity:0;fill-rule:evenodd;stroke:rgb(255, 0, 173);stroke-width:1;" d="M 354.682, 414.57 L 384.358, 373.989 L 413.676, 386.324 L 384, 426.905 L 369.341, 420.827 L 354.682, 414.57 z "/>
<path style="fill:rgb(0, 0, 255);fill-opacity:0;fill-rule:evenodd;stroke:rgb(255, 0, 173);stroke-width:1;" d="M 645.184, 366.838 L 649.654, 360.939 L 675.933, 325.184 L 704, 337.162 L 699.173, 343.598 L 673.251, 378.816 L 645.184, 366.838 z "/>
<path style="fill:rgb(255, 255, 0);fill-opacity:0;fill-rule:evenodd;stroke:rgb(255, 0, 173);stroke-width:1;" d="M 423.33, 447.821 L 455.33, 403.844 L 480.715, 414.57 L 448.536, 458.547 L 438.168, 454.078 L 423.33, 447.821 z "/>
<path style="fill:rgb(255, 0, 0);fill-opacity:0;fill-rule:evenodd;stroke:rgb(255, 0, 173);stroke-width:1;" d="M 730.637, 577.966 L 762.994, 533.631 L 787.665, 544.179 L 765.497, 574.57 L 755.486, 588.335 L 745.296, 584.045 L 730.637, 577.966 z "/>
<path style="fill:rgb(0, 255, 0);fill-opacity:0;fill-rule:evenodd;stroke:rgb(255, 0, 173);stroke-width:1;" d="M 934.615, 113.162 L 934.972, 112.804 L 958.391, 80.4469 L 961.073, 76.6927 L 990.749, 89.0279 L 990.391, 89.3855 L 964.291, 125.497 L 934.615, 113.162 z "/>
<path style="fill:rgb(0, 0, 255);fill-opacity:0;fill-rule:evenodd;stroke:rgb(255, 0, 173);stroke-width:1;" d="M 483.575, 361.117 L 484.291, 360.045 L 507.888, 328.045 L 512.358, 322.145 L 539.352, 333.587 L 512.358, 370.056 L 510.57, 372.737 L 483.575, 361.117 z "/>
<path style="fill:rgb(255, 255, 0);fill-opacity:0;fill-rule:evenodd;stroke:rgb(255, 0, 173);stroke-width:1;" d="M 359.866, 306.95 L 377.207, 283.352 L 377.564, 283.531 L 420.112, 301.587 L 402.592, 325.184 L 359.866, 306.95 z "/>
<path style="fill:rgb(255, 0, 0);fill-opacity:0;fill-rule:evenodd;stroke:rgb(255, 0, 173);stroke-width:1;" d="M 172.693, 337.698 L 202.19, 296.939 L 226.324, 307.128 L 196.827, 347.888 L 172.693, 337.698 z "/>
<path style="fill:rgb(0, 255, 0);fill-opacity:0;fill-rule:evenodd;stroke:rgb(255, 0, 173);stroke-width:1;" d="M 447.642, 663.777 L 460.693, 646.257 L 469.453, 634.101 L 476.246, 637.14 L 477.497, 635.352 L 490.726, 641.073 L 507.173, 618.726 L 513.788, 621.587 L 513.073, 622.659 L 487.866, 656.804 L 474.279, 675.218 L 447.642, 663.777 z "/>
<path style="fill:rgb(0, 0, 255);fill-opacity:0;fill-rule:evenodd;stroke:rgb(255, 0, 173);stroke-width:1;" d="M 908.514, 182.883 L 934.078, 148.022 L 961.788, 159.821 L 936.223, 194.682 L 908.514, 182.883 z "/>
<path style="fill:rgb(255, 255, 0);fill-opacity:0;fill-rule:evenodd;stroke:rgb(255, 0, 173);stroke-width:1;" d="M 725.631, 105.117 L 729.207, 100.112 L 750.838, 70.6145 L 778.547, 82.4134 L 777.832, 83.3073 L 753.341, 116.916 L 725.631, 105.117 z "/>
<path style="fill:rgb(255, 0, 0);fill-opacity:0;fill-rule:evenodd;stroke:rgb(255, 0, 173);stroke-width:1;" d="M 995.575, 721.698 L 1003.26, 711.151 L 1045.99, 652.156 L 1059.75, 658.056 L 1015.24, 719.374 L 1009.34, 727.419 L 1005.77, 725.989 L 995.575, 721.698 z "/>
<path style="fill:rgb(0, 255, 0);fill-opacity:0;fill-rule:evenodd;stroke:rgb(255, 0, 173);stroke-width:1;" d="M 849.877, 157.855 L 875.084, 123.173 L 900.648, 133.899 L 872.76, 172.156 L 854.346, 164.291 L 857.028, 160.894 L 849.877, 157.855 z "/>
<path style="fill:rgb(0, 0, 255);fill-opacity:0;fill-rule:evenodd;stroke:rgb(255, 0, 173);stroke-width:1;" d="M 409.207, 240.626 L 424.76, 219.531 L 469.453, 238.48 L 453.899, 259.575 L 409.207, 240.626 z "/>
<path style="fill:rgb(255, 255, 0);fill-opacity:0;fill-rule:evenodd;stroke:rgb(255, 0, 173);stroke-width:1;" d="M 284.961, 217.743 L 294.078, 205.05 L 289.073, 202.726 L 292.291, 198.436 L 295.151, 199.687 L 348.782, 222.391 L 336.268, 239.374 L 291.218, 220.246 L 284.961, 217.743 z "/>
<path style="fill:rgb(255, 0, 0);fill-opacity:0;fill-rule:evenodd;stroke:rgb(255, 0, 173);stroke-width:1;" d="M 483.575, 679.151 L 493.587, 665.743 L 497.341, 667.352 L 506.816, 654.659 L 523.978, 657.162 L 514.324, 670.212 L 522.547, 670.034 L 533.81, 654.659 L 543.464, 658.592 L 539.352, 664.313 L 539.888, 664.492 L 533.274, 673.43 L 527.374, 675.397 L 523.441, 680.76 L 525.408, 684.335 L 518.257, 693.81 L 483.575, 679.151 z "/>
<path style="fill:rgb(0, 255, 0);fill-opacity:0;fill-rule:evenodd;stroke:rgb(255, 0, 173);stroke-width:1;" d="M 953.207, 201.296 L 978.413, 166.793 L 1004.16, 177.877 L 980.022, 210.95 L 979.128, 212.201 L 953.207, 201.296 z "/>
<path style="fill:rgb(0, 0, 255);fill-opacity:0;fill-rule:evenodd;stroke:rgb(255, 0, 173);stroke-width:1;" d="M 960.536, 335.911 L 964.827, 330.011 L 977.341, 312.67 L 1015.24, 328.402 L 998.257, 351.821 L 960.536, 335.911 z "/>
<path style="fill:rgb(255, 255, 0);fill-opacity:0;fill-rule:evenodd;stroke:rgb(255, 0, 173);stroke-width:1;" d="M 755.486, 588.335 L 765.497, 574.57 L 826.458, 600.313 L 816.447, 614.078 L 755.486, 588.335 z "/>
<path style="fill:rgb(255, 0, 0);fill-opacity:0;fill-rule:evenodd;stroke:rgb(255, 0, 173);stroke-width:1;" d="M 128.715, 377.743 L 146.056, 353.609 L 154.994, 341.453 L 177.162, 350.749 L 150.883, 387.039 L 128.715, 377.743 z "/>
<path style="fill:rgb(0, 255, 0);fill-opacity:0;fill-rule:evenodd;stroke:rgb(255, 0, 173);stroke-width:1;" d="M 604.425, 665.385 L 632.313, 627.486 L 655.374, 637.318 L 634.279, 665.922 L 632.849, 667.888 L 604.425, 665.385 z "/>
<path style="fill:rgb(0, 0, 255);fill-opacity:0;fill-rule:evenodd;stroke:rgb(255, 0, 173);stroke-width:1;" d="M 311.419, 759.598 L 314.101, 756.022 L 321.966, 745.475 L 330.19, 749.05 L 339.128, 736.894 L 330.726, 733.497 L 331.62, 732.067 L 340.022, 720.626 L 365.229, 731.352 L 357.542, 741.899 L 355.933, 744.223 L 348.067, 740.827 L 339.307, 752.804 L 346.994, 756.022 L 338.95, 767.285 L 336.626, 770.324 L 311.419, 759.598 z "/>
<path style="fill:rgb(255, 255, 0);fill-opacity:0;fill-rule:evenodd;stroke:rgb(255, 0, 173);stroke-width:1;" d="M 911.017, 331.62 L 924.961, 312.313 L 939.799, 291.754 L 942.48, 288.179 L 961.788, 296.223 L 960.715, 297.832 L 943.732, 321.073 L 936.581, 331.084 L 930.503, 328.581 L 919.777, 335.374 L 911.017, 331.62 z "/>
<path style="fill:rgb(255, 0, 0);fill-opacity:0;fill-rule:evenodd;stroke:rgb(255, 0, 173);stroke-width:1;" d="M 172.693, 631.061 L 180.38, 620.514 L 186.816, 623.374 L 188.246, 622.838 L 196.827, 611.218 L 196.112, 609.788 L 190.212, 607.285 L 197.721, 596.916 L 200.045, 593.877 L 224.358, 604.067 L 214.525, 617.296 L 208.268, 614.615 L 206.123, 614.793 L 197.184, 626.95 L 198.615, 628.38 L 204.335, 630.704 L 195.397, 643.039 L 173.408, 633.564 L 174.659, 631.955 L 172.693, 631.061 z "/>
<path style="fill:rgb(0, 255, 0);fill-opacity:0;fill-rule:evenodd;stroke:rgb(255, 0, 173);stroke-width:1;" d="M 442.816, 274.592 L 446.749, 269.408 L 453.899, 259.575 L 469.453, 238.48 L 488.223, 246.525 L 459.441, 285.318 L 456.223, 289.788 L 448.894, 286.749 L 454.436, 279.419 L 442.816, 274.592 z "/>
<path style="fill:rgb(0, 0, 255);fill-opacity:0;fill-rule:evenodd;stroke:rgb(255, 0, 173);stroke-width:1;" d="M 217.385, 653.765 L 222.927, 646.257 L 241.698, 620.693 L 263.687, 629.989 L 239.196, 663.24 L 235.441, 661.631 L 231.151, 659.665 L 217.385, 653.765 z "/>
<path style="fill:rgb(255, 255, 0);fill-opacity:0;fill-rule:evenodd;stroke:rgb(255, 0, 173);stroke-width:1;" d="M 957.14, 731.709 L 979.307, 701.14 L 1003.26, 711.151 L 995.575, 721.698 L 981.095, 741.721 L 957.14, 731.709 z "/>
<path style="fill:rgb(255, 0, 0);fill-opacity:0;fill-rule:evenodd;stroke:rgb(255, 0, 173);stroke-width:1;" d="M 935.866, 254.57 L 939.62, 249.385 L 962.503, 218.101 L 963.218, 217.028 L 982.525, 225.251 L 959.464, 256.894 L 955.173, 262.793 L 935.866, 254.57 z "/>
<path style="fill:rgb(0, 255, 0);fill-opacity:0;fill-rule:evenodd;stroke:rgb(255, 0, 173);stroke-width:1;" d="M 872.223, 172.872 L 872.76, 172.156 L 900.648, 133.899 L 919.419, 141.944 L 890.816, 180.737 L 872.223, 172.872 z "/>
<path style="fill:rgb(0, 0, 255);fill-opacity:0;fill-rule:evenodd;stroke:rgb(255, 0, 173);stroke-width:1;" d="M 862.391, 219.709 L 864.358, 217.028 L 890.816, 180.737 L 905.475, 186.994 L 909.408, 188.603 L 907.441, 191.285 L 882.592, 225.251 L 880.804, 227.575 L 862.391, 219.709 z "/>
<path style="fill:rgb(255, 255, 0);fill-opacity:0;fill-rule:evenodd;stroke:rgb(255, 0, 173);stroke-width:1;" d="M 432.804, 615.687 L 440.134, 605.855 L 435.844, 604.067 L 468.38, 559.374 L 482.324, 565.274 L 449.966, 609.609 L 442.458, 619.799 L 432.804, 615.687 z "/>
<path style="fill:rgb(255, 0, 0);fill-opacity:0;fill-rule:evenodd;stroke:rgb(255, 0, 173);stroke-width:1;" d="M 97.2514, 667.173 L 110.48, 649.117 L 149.81, 665.922 L 136.581, 683.978 L 97.2514, 667.173 z "/>
<path style="fill:rgb(0, 255, 0);fill-opacity:0;fill-rule:evenodd;stroke:rgb(255, 0, 173);stroke-width:1;" d="M 118.525, 761.922 L 122.279, 756.916 L 124.246, 756.38 L 132.291, 745.475 L 131.218, 744.223 L 137.296, 735.642 L 136.045, 735.106 L 136.76, 733.855 L 147.128, 730.816 L 149.631, 731.709 L 151.24, 729.385 L 164.469, 734.927 L 150.525, 754.235 L 138.726, 770.503 L 118.525, 761.922 z "/>
<path style="fill:rgb(0, 0, 255);fill-opacity:0;fill-rule:evenodd;stroke:rgb(255, 0, 173);stroke-width:1;" d="M 459.441, 285.318 L 488.223, 246.525 L 505.207, 253.855 L 503.777, 255.642 L 476.603, 292.648 L 459.441, 285.318 z "/>
<path style="fill:rgb(255, 255, 0);fill-opacity:0;fill-rule:evenodd;stroke:rgb(255, 0, 173);stroke-width:1;" d="M 462.302, 464.268 L 494.302, 420.469 L 509.497, 426.726 L 477.497, 470.704 L 462.302, 464.268 z "/>
<path style="fill:rgb(255, 0, 0);fill-opacity:0;fill-rule:evenodd;stroke:rgb(255, 0, 173);stroke-width:1;" d="M 390.972, 492.156 L 423.33, 447.821 L 438.168, 454.078 L 405.81, 498.413 L 390.972, 492.156 z "/>
<path style="fill:rgb(0, 255, 0);fill-opacity:0;fill-rule:evenodd;stroke:rgb(255, 0, 173);stroke-width:1;" d="M 395.084, 435.844 L 397.408, 432.626 L 427.084, 392.045 L 441.922, 398.302 L 409.922, 442.101 L 395.084, 435.844 z "/>
<path style="fill:rgb(0, 0, 255);fill-opacity:0;fill-rule:evenodd;stroke:rgb(255, 0, 173);stroke-width:1;" d="M 705.609, 252.425 L 716.872, 236.872 L 737.609, 208.089 L 752.447, 214.168 L 727.061, 249.385 L 723.844, 253.855 L 720.447, 258.682 L 705.609, 252.425 z "/>
<path style="fill:rgb(255, 255, 0);fill-opacity:0;fill-rule:evenodd;stroke:rgb(255, 0, 173);stroke-width:1;" d="M 209.52, 793.385 L 225.43, 771.397 L 224.894, 769.073 L 222.57, 768 L 230.257, 757.274 L 255.106, 767.642 L 247.24, 778.726 L 244.559, 777.296 L 241.698, 777.475 L 225.251, 800 L 209.52, 793.385 z "/>
<path style="fill:rgb(255, 0, 0);fill-opacity:0;fill-rule:evenodd;stroke:rgb(255, 0, 173);stroke-width:1;" d="M 142.302, 328.76 L 173.944, 285.14 L 187.709, 290.86 L 158.212, 331.62 L 156.425, 334.123 L 170.369, 339.844 L 168.045, 342.883 L 154.101, 336.983 L 156.067, 334.48 L 142.302, 328.76 z "/>
<path style="fill:rgb(0, 255, 0);fill-opacity:0;fill-rule:evenodd;stroke:rgb(255, 0, 173);stroke-width:1;" d="M 698.994, 621.408 L 730.637, 577.966 L 745.296, 584.045 L 713.654, 627.486 L 698.994, 621.408 z "/>
<path style="fill:rgb(0, 0, 255);fill-opacity:0;fill-rule:evenodd;stroke:rgb(255, 0, 173);stroke-width:1;" d="M 596.38, 407.598 L 628.201, 364.514 L 629.095, 363.441 L 643.218, 369.52 L 641.073, 372.38 L 610.682, 413.676 L 596.38, 407.598 z "/>
<path style="fill:rgb(255, 255, 0);fill-opacity:0;fill-rule:evenodd;stroke:rgb(255, 0, 173);stroke-width:1;" d="M 610.682, 413.676 L 641.073, 372.38 L 657.698, 375.955 L 625.877, 419.218 L 625.341, 419.933 L 610.682, 413.676 z "/>
<path style="fill:rgb(255, 0, 0);fill-opacity:0;fill-rule:evenodd;stroke:rgb(255, 0, 173);stroke-width:1;" d="M 36.2905, 165.006 L 43.7989, 154.816 L 47.0168, 156.246 L 64.3575, 132.469 L 68.4693, 126.749 L 81.162, 132.112 L 78.838, 135.151 L 79.7318, 135.508 L 72.581, 145.341 L 50.2346, 175.911 L 36.648, 170.19 L 39.5084, 166.436 L 36.2905, 165.006 z "/>
<path style="fill:rgb(0, 255, 0);fill-opacity:0;fill-rule:evenodd;stroke:rgb(255, 0, 173);stroke-width:1;" d="M 582.257, 401.52 L 609.966, 363.799 L 613.899, 358.436 L 628.201, 364.514 L 596.38, 407.598 L 582.257, 401.52 z "/>
<path style="fill:rgb(0, 0, 255);fill-opacity:0;fill-rule:evenodd;stroke:rgb(255, 0, 173);stroke-width:1;" d="M 405.81, 498.413 L 438.168, 454.078 L 448.536, 458.547 L 451.933, 459.978 L 419.575, 504.313 L 405.81, 498.413 z "/>
<path style="fill:rgb(255, 255, 0);fill-opacity:0;fill-rule:evenodd;stroke:rgb(255, 0, 173);stroke-width:1;" d="M 448.536, 458.547 L 480.715, 414.57 L 494.302, 420.469 L 462.302, 464.268 L 451.933, 459.978 L 448.536, 458.547 z "/>
<path style="fill:rgb(255, 0, 0);fill-opacity:0;fill-rule:evenodd;stroke:rgb(255, 0, 173);stroke-width:1;" d="M 206.659, 355.039 L 219.531, 337.341 L 253.497, 351.464 L 240.447, 369.341 L 206.659, 355.039 z "/>
<path style="fill:rgb(0, 255, 0);fill-opacity:0;fill-rule:evenodd;stroke:rgb(255, 0, 173);stroke-width:1;" d="M 575.285, 338.592 L 581.184, 330.726 L 579.754, 330.19 L 605.497, 295.33 L 619.62, 301.229 L 587.978, 344.134 L 575.285, 338.592 z "/>
<path style="fill:rgb(0, 0, 255);fill-opacity:0;fill-rule:evenodd;stroke:rgb(255, 0, 173);stroke-width:1;" d="M 995.218, 85.095 L 995.933, 83.8436 L 1004.69, 71.6872 L 1010.59, 63.6425 L 1022.93, 46.6592 L 1038.3, 53.095 L 1037.94, 53.8101 L 1012.74, 88.6704 L 1010.59, 91.5307 L 995.218, 85.095 z "/>
<path style="fill:rgb(255, 255, 0);fill-opacity:0;fill-rule:evenodd;stroke:rgb(255, 0, 173);stroke-width:1;" d="M 512.358, 370.056 L 539.352, 333.587 L 541.855, 330.011 L 556.693, 336.268 L 527.196, 376.313 L 512.358, 370.056 z "/>
<path style="fill:rgb(255, 0, 0);fill-opacity:0;fill-rule:evenodd;stroke:rgb(255, 0, 173);stroke-width:1;" d="M 563.844, 93.4972 L 573.14, 80.9832 L 578.86, 73.1173 L 589.765, 58.1006 L 606.57, 65.2514 L 599.777, 74.3687 L 581.899, 98.8603 L 580.648, 100.648 L 563.844, 93.4972 z "/>
<path style="fill:rgb(0, 255, 0);fill-opacity:0;fill-rule:evenodd;stroke:rgb(255, 0, 173);stroke-width:1;" d="M 158.212, 331.62 L 187.709, 290.86 L 202.19, 296.939 L 172.693, 337.698 L 158.212, 331.62 z "/>
<path style="fill:rgb(0, 0, 255);fill-opacity:0;fill-rule:evenodd;stroke:rgb(255, 0, 173);stroke-width:1;" d="M 920.849, 241.52 L 939.62, 215.777 L 943.732, 210.056 L 962.503, 218.101 L 939.62, 249.385 L 920.849, 241.52 z "/>
<path style="fill:rgb(255, 255, 0);fill-opacity:0;fill-rule:evenodd;stroke:rgb(255, 0, 173);stroke-width:1;" d="M 409.922, 442.101 L 441.922, 398.302 L 455.33, 403.844 L 423.33, 447.821 L 409.922, 442.101 z "/>
<path style="fill:rgb(255, 0, 0);fill-opacity:0;fill-rule:evenodd;stroke:rgb(255, 0, 173);stroke-width:1;" d="M 465.52, 764.425 L 469.989, 758.346 L 481.966, 763.352 L 508.782, 726.704 L 524.335, 733.318 L 507.709, 755.844 L 505.564, 758.883 L 496.626, 755.128 L 483.933, 772.291 L 465.52, 764.425 z "/>
<path style="fill:rgb(0, 255, 0);fill-opacity:0;fill-rule:evenodd;stroke:rgb(255, 0, 173);stroke-width:1;" d="M 74.5475, 443.173 L 92.067, 418.503 L 92.2458, 416.894 L 89.3855, 415.821 L 96.3575, 406.168 L 119.24, 415.464 L 112.268, 425.117 L 108.335, 423.508 L 106.369, 424.402 L 88.6704, 449.073 L 74.5475, 443.173 z "/>
<path style="fill:rgb(0, 0, 255);fill-opacity:0;fill-rule:evenodd;stroke:rgb(255, 0, 173);stroke-width:1;" d="M 936.223, 194.682 L 961.788, 159.821 L 978.413, 166.793 L 953.207, 201.296 L 952.849, 201.654 L 936.223, 194.682 z "/>
<path style="fill:rgb(255, 255, 0);fill-opacity:0;fill-rule:evenodd;stroke:rgb(255, 0, 173);stroke-width:1;" d="M 67.5754, 708.469 L 78.3017, 693.631 L 112.089, 707.933 L 111.017, 709.542 L 126.212, 733.14 L 98.1453, 721.341 L 101.184, 717.05 L 99.3966, 714.011 L 88.8492, 709.721 L 86.1676, 711.151 L 83.486, 715.084 L 67.5754, 708.469 z "/>
<path style="fill:rgb(255, 0, 0);fill-opacity:0;fill-rule:evenodd;stroke:rgb(255, 0, 173);stroke-width:1;" d="M 260.112, 115.486 L 263.687, 110.48 L 269.408, 102.615 L 273.162, 97.4302 L 281.207, 86.5251 L 284.603, 86.3464 L 286.57, 83.8436 L 283.888, 82.7709 L 287.464, 77.9441 L 290.503, 73.6536 L 304.447, 79.7318 L 298.011, 88.6704 L 296.223, 87.9553 L 294.436, 90.4581 L 294.972, 92.6034 L 286.391, 104.581 L 274.056, 121.385 L 260.112, 115.486 z "/>
<path style="fill:rgb(0, 255, 0);fill-opacity:0;fill-rule:evenodd;stroke:rgb(255, 0, 173);stroke-width:1;" d="M 890.816, 180.737 L 919.419, 141.944 L 934.078, 148.022 L 908.514, 182.883 L 905.475, 186.994 L 890.816, 180.737 z "/>
<path style="fill:rgb(0, 0, 255);fill-opacity:0;fill-rule:evenodd;stroke:rgb(255, 0, 173);stroke-width:1;" d="M 64, 181.81 L 86.1676, 151.24 L 92.4246, 142.659 L 106.726, 148.559 L 100.291, 157.318 L 100.827, 157.497 L 78.6592, 187.888 L 64, 181.81 z "/>
<path style="fill:rgb(255, 255, 0);fill-opacity:0;fill-rule:evenodd;stroke:rgb(255, 0, 173);stroke-width:1;" d="M 469.81, 353.966 L 491.084, 325.006 L 499.665, 313.207 L 511.464, 318.212 L 505.028, 326.793 L 507.888, 328.045 L 484.291, 360.045 L 469.81, 353.966 z "/>
<path style="fill:rgb(255, 0, 0);fill-opacity:0;fill-rule:evenodd;stroke:rgb(255, 0, 173);stroke-width:1;" d="M 780.514, 130.324 L 806.972, 94.3911 L 822.704, 101.006 L 796.425, 137.117 L 780.514, 130.324 z "/>
<path style="fill:rgb(0, 255, 0);fill-opacity:0;fill-rule:evenodd;stroke:rgb(255, 0, 173);stroke-width:1;" d="M 861.676, 82.5922 L 888.67, 45.4078 L 902.436, 51.1285 L 894.57, 61.8547 L 896.715, 62.7486 L 878.838, 87.419 L 877.587, 89.2067 L 861.676, 82.5922 z "/>
<path style="fill:rgb(0, 0, 255);fill-opacity:0;fill-rule:evenodd;stroke:rgb(255, 0, 173);stroke-width:1;" d="M 964.291, 125.497 L 990.391, 89.3855 L 1006.12, 96 L 1002.91, 100.469 L 980.022, 132.112 L 964.291, 125.497 z "/>
<path style="fill:rgb(255, 255, 0);fill-opacity:0;fill-rule:evenodd;stroke:rgb(255, 0, 173);stroke-width:1;" d="M 882.592, 225.251 L 907.441, 191.285 L 913.877, 193.966 L 907.799, 202.369 L 920.492, 207.732 L 901.721, 233.475 L 882.592, 225.251 z "/>
<path style="fill:rgb(255, 0, 0);fill-opacity:0;fill-rule:evenodd;stroke:rgb(255, 0, 173);stroke-width:1;" d="M 384, 426.905 L 413.676, 386.324 L 427.084, 392.045 L 397.408, 432.626 L 384, 426.905 z "/>
<path style="fill:rgb(0, 255, 0);fill-opacity:0;fill-rule:evenodd;stroke:rgb(255, 0, 173);stroke-width:1;" d="M 524.335, 78.838 L 534.704, 64.7151 L 573.14, 80.9832 L 563.844, 93.4972 L 562.771, 94.9274 L 524.335, 78.838 z "/>
<path style="fill:rgb(0, 0, 255);fill-opacity:0;fill-rule:evenodd;stroke:rgb(255, 0, 173);stroke-width:1;" d="M 995.933, 137.475 L 1015.96, 109.765 L 1021.5, 102.257 L 1036.87, 108.693 L 1011.31, 143.911 L 995.933, 137.475 z "/>
<path style="fill:rgb(255, 255, 0);fill-opacity:0;fill-rule:evenodd;stroke:rgb(255, 0, 173);stroke-width:1;" d="M 793.922, 738.324 L 801.966, 727.419 L 805.542, 728.849 L 837.363, 742.078 L 835.039, 745.296 L 853.989, 753.162 L 848.268, 761.028 L 845.587, 759.777 L 793.922, 738.324 z "/>
<path style="fill:rgb(255, 0, 0);fill-opacity:0;fill-rule:evenodd;stroke:rgb(255, 0, 173);stroke-width:1;" d="M 634.816, 354.682 L 661.095, 318.927 L 675.933, 325.184 L 649.654, 360.939 L 634.816, 354.682 z "/>
<path style="fill:rgb(0, 255, 0);fill-opacity:0;fill-rule:evenodd;stroke:rgb(255, 0, 173);stroke-width:1;" d="M 89.5642, 456.939 L 112.268, 425.117 L 119.24, 415.464 L 133.899, 421.721 L 120.67, 440.313 L 117.274, 438.883 L 100.827, 461.765 L 89.5642, 456.939 z "/>
<path style="fill:rgb(0, 0, 255);fill-opacity:0;fill-rule:evenodd;stroke:rgb(255, 0, 173);stroke-width:1;" d="M 727.061, 249.385 L 752.447, 214.168 L 753.698, 212.38 L 768, 218.279 L 751.017, 241.698 L 741.184, 255.285 L 727.061, 249.385 z "/>
<path style="fill:rgb(255, 255, 0);fill-opacity:0;fill-rule:evenodd;stroke:rgb(255, 0, 173);stroke-width:1;" d="M 766.212, 124.246 L 791.777, 89.3855 L 792.67, 88.3128 L 806.972, 94.3911 L 780.514, 130.324 L 766.212, 124.246 z "/>
<path style="fill:rgb(255, 0, 0);fill-opacity:0;fill-rule:evenodd;stroke:rgb(255, 0, 173);stroke-width:1;" d="M 619.263, 352 L 647.866, 313.207 L 661.095, 318.927 L 634.816, 354.682 L 632.492, 357.542 L 619.263, 352 z "/>
<path style="fill:rgb(0, 255, 0);fill-opacity:0;fill-rule:evenodd;stroke:rgb(255, 0, 173);stroke-width:1;" d="M 723.665, 311.061 L 751.911, 271.732 L 765.14, 277.274 L 756.38, 289.609 L 737.251, 316.067 L 736.894, 316.425 L 723.665, 311.061 z "/>
<path style="fill:rgb(0, 0, 255);fill-opacity:0;fill-rule:evenodd;stroke:rgb(255, 0, 173);stroke-width:1;" d="M 162.145, 782.48 L 192.179, 741.363 L 204.693, 746.547 L 174.659, 787.844 L 162.145, 782.48 z "/>
<path style="fill:rgb(255, 255, 0);fill-opacity:0;fill-rule:evenodd;stroke:rgb(255, 0, 173);stroke-width:1;" d="M 194.324, 351.285 L 196.827, 347.888 L 226.324, 307.128 L 237.944, 311.955 L 231.508, 320.894 L 225.073, 329.654 L 219.531, 337.341 L 206.659, 355.039 L 204.335, 354.145 L 203.62, 355.039 L 194.324, 351.285 z "/>
<path style="fill:rgb(255, 0, 0);fill-opacity:0;fill-rule:evenodd;stroke:rgb(255, 0, 173);stroke-width:1;" d="M 225.609, 493.229 L 232.223, 484.291 L 287.821, 507.709 L 281.207, 516.827 L 225.609, 493.229 z "/>
<path style="fill:rgb(0, 255, 0);fill-opacity:0;fill-rule:evenodd;stroke:rgb(255, 0, 173);stroke-width:1;" d="M 149.989, 777.296 L 162.86, 759.419 L 179.844, 736.179 L 192.179, 741.363 L 162.145, 782.48 L 149.989, 777.296 z "/>
<path style="fill:rgb(0, 0, 255);fill-opacity:0;fill-rule:evenodd;stroke:rgb(255, 0, 173);stroke-width:1;" d="M 342.704, 563.307 L 374.525, 519.687 L 386.145, 524.514 L 355.933, 565.989 L 354.324, 568.134 L 342.704, 563.307 z "/>
<path style="fill:rgb(255, 255, 0);fill-opacity:0;fill-rule:evenodd;stroke:rgb(255, 0, 173);stroke-width:1;" d="M 848.089, 76.8715 L 875.084, 39.6872 L 875.62, 39.8659 L 888.67, 45.4078 L 861.676, 82.5922 L 848.089, 76.8715 z "/>
<path style="fill:rgb(255, 0, 0);fill-opacity:0;fill-rule:evenodd;stroke:rgb(255, 0, 173);stroke-width:1;" d="M 169.654, 72.581 L 185.922, 50.2346 L 208.447, 59.7095 L 192.179, 82.0559 L 169.654, 72.581 z "/>
<path style="fill:rgb(0, 255, 0);fill-opacity:0;fill-rule:evenodd;stroke:rgb(255, 0, 173);stroke-width:1;" d="M 807.508, 194.145 L 826.279, 168.402 L 845.408, 176.626 L 827.352, 201.475 L 826.637, 202.19 L 817.877, 198.436 L 817.341, 198.793 L 816.268, 198.972 L 813.587, 198.257 L 812.514, 197.899 L 810.369, 196.827 L 807.508, 194.145 z "/>
<path style="fill:rgb(0, 0, 255);fill-opacity:0;fill-rule:evenodd;stroke:rgb(255, 0, 173);stroke-width:1;" d="M 513.966, 773.721 L 538.994, 739.575 L 553.654, 745.654 L 538.458, 766.391 L 528.447, 779.978 L 513.966, 773.721 z "/>
<path style="fill:rgb(255, 255, 0);fill-opacity:0;fill-rule:evenodd;stroke:rgb(255, 0, 173);stroke-width:1;" d="M 90.2793, 124.425 L 93.1397, 120.313 L 91.1732, 119.419 L 91.8883, 118.346 L 99.933, 107.263 L 103.151, 108.514 L 104.939, 106.19 L 101.721, 104.76 L 114.056, 87.9553 L 128.715, 94.2123 L 116.559, 111.017 L 112.804, 109.408 L 111.017, 111.911 L 114.771, 113.52 L 103.687, 128.715 L 102.793, 129.788 L 90.2793, 124.425 z "/>
<path style="fill:rgb(255, 0, 0);fill-opacity:0;fill-rule:evenodd;stroke:rgb(255, 0, 173);stroke-width:1;" d="M 174.659, 787.844 L 204.693, 746.547 L 216.67, 751.553 L 199.508, 775.33 L 186.816, 792.849 L 174.659, 787.844 z "/>
<path style="fill:rgb(0, 255, 0);fill-opacity:0;fill-rule:evenodd;stroke:rgb(255, 0, 173);stroke-width:1;" d="M 919.598, 106.369 L 920.67, 104.939 L 938.369, 80.6257 L 943.017, 74.0112 L 958.391, 80.4469 L 934.972, 112.804 L 919.598, 106.369 z "/>
<path style="fill:rgb(0, 0, 255);fill-opacity:0;fill-rule:evenodd;stroke:rgb(255, 0, 173);stroke-width:1;" d="M 901.721, 233.475 L 920.492, 207.732 L 939.62, 215.777 L 920.849, 241.52 L 901.721, 233.475 z "/>
<path style="fill:rgb(255, 255, 0);fill-opacity:0;fill-rule:evenodd;stroke:rgb(255, 0, 173);stroke-width:1;" d="M 943.732, 321.073 L 960.715, 297.832 L 981.81, 306.592 L 977.341, 312.67 L 964.827, 330.011 L 943.732, 321.073 z "/>
<path style="fill:rgb(255, 0, 0);fill-opacity:0;fill-rule:evenodd;stroke:rgb(255, 0, 173);stroke-width:1;" d="M 751.374, 323.754 L 752.447, 322.503 L 771.575, 295.866 L 778.19, 286.57 L 791.419, 292.112 L 782.838, 304.089 L 767.821, 324.827 L 764.603, 329.117 L 751.374, 323.754 z "/>
<path style="fill:rgb(0, 255, 0);fill-opacity:0;fill-rule:evenodd;stroke:rgb(255, 0, 173);stroke-width:1;" d="M 232.223, 484.291 L 238.48, 475.531 L 271.911, 489.654 L 294.078, 499.128 L 287.821, 507.709 L 232.223, 484.291 z "/>
<path style="fill:rgb(0, 0, 255);fill-opacity:0;fill-rule:evenodd;stroke:rgb(255, 0, 173);stroke-width:1;" d="M 295.151, 199.687 L 301.765, 190.749 L 355.218, 213.453 L 348.782, 222.391 L 295.151, 199.687 z "/>
<path style="fill:rgb(255, 255, 0);fill-opacity:0;fill-rule:evenodd;stroke:rgb(255, 0, 173);stroke-width:1;" d="M 456.223, 752.268 L 465.52, 739.933 L 483.218, 715.799 L 496.983, 721.698 L 473.385, 753.698 L 466.95, 750.838 L 463.553, 755.486 L 456.223, 752.268 z "/>
<path style="fill:rgb(255, 0, 0);fill-opacity:0;fill-rule:evenodd;stroke:rgb(255, 0, 173);stroke-width:1;" d="M 219.352, 501.989 L 225.609, 493.229 L 281.207, 516.827 L 277.631, 521.832 L 275.307, 525.05 L 241.698, 510.927 L 241.341, 511.285 L 219.352, 501.989 z "/>
<path style="fill:rgb(0, 255, 0);fill-opacity:0;fill-rule:evenodd;stroke:rgb(255, 0, 173);stroke-width:1;" d="M 980.022, 132.112 L 1002.91, 100.469 L 1010.23, 103.687 L 1011.31, 107.799 L 1015.96, 109.765 L 995.933, 137.475 L 995.218, 138.547 L 980.022, 132.112 z "/>
<path style="fill:rgb(0, 0, 255);fill-opacity:0;fill-rule:evenodd;stroke:rgb(255, 0, 173);stroke-width:1;" d="M 105.475, 367.911 L 114.592, 355.218 L 122.994, 343.777 L 130.324, 333.765 L 134.257, 328.223 L 145.877, 333.05 L 134.436, 348.782 L 117.095, 372.737 L 105.475, 367.911 z "/>
<path style="fill:rgb(255, 255, 0);fill-opacity:0;fill-rule:evenodd;stroke:rgb(255, 0, 173);stroke-width:1;" d="M 272.089, 740.827 L 278.883, 731.531 L 280.492, 732.067 L 286.391, 724.022 L 285.676, 722.413 L 289.609, 717.05 L 291.754, 717.944 L 293.542, 715.263 L 292.827, 714.905 L 303.017, 701.14 L 313.743, 705.609 L 306.771, 714.905 L 305.877, 714.547 L 300.335, 722.056 L 302.659, 723.128 L 298.905, 728.134 L 296.939, 728.313 L 290.86, 736.536 L 292.291, 737.073 L 286.927, 744.402 L 285.497, 746.547 L 272.089, 740.827 z "/>
<path style="fill:rgb(255, 0, 0);fill-opacity:0;fill-rule:evenodd;stroke:rgb(255, 0, 173);stroke-width:1;" d="M 805.542, 728.849 L 813.05, 718.302 L 814.123, 718.838 L 844.514, 731.531 L 842.011, 735.106 L 860.425, 742.793 L 855.598, 749.587 L 837.363, 742.078 L 805.542, 728.849 z "/>
<path style="fill:rgb(0, 255, 0);fill-opacity:0;fill-rule:evenodd;stroke:rgb(255, 0, 173);stroke-width:1;" d="M 103.687, 128.715 L 114.771, 113.52 L 116.559, 111.017 L 128.715, 94.2123 L 142.123, 99.933 L 119.598, 130.682 L 117.095, 134.257 L 111.732, 132.112 L 116.559, 125.497 L 116.201, 123.352 L 113.698, 124.782 L 109.05, 130.86 L 103.687, 128.715 z "/>
<path style="fill:rgb(0, 0, 255);fill-opacity:0;fill-rule:evenodd;stroke:rgb(255, 0, 173);stroke-width:1;" d="M 504.849, 771.754 L 514.503, 758.704 L 507.709, 755.844 L 524.335, 733.318 L 538.994, 739.575 L 513.966, 773.721 L 512.894, 775.151 L 504.849, 771.754 z "/>
<path style="fill:rgb(255, 255, 0);fill-opacity:0;fill-rule:evenodd;stroke:rgb(255, 0, 173);stroke-width:1;" d="M 469.989, 758.346 L 473.385, 753.698 L 496.983, 721.698 L 508.782, 726.704 L 481.966, 763.352 L 469.989, 758.346 z "/>
<path style="fill:rgb(255, 0, 0);fill-opacity:0;fill-rule:evenodd;stroke:rgb(255, 0, 173);stroke-width:1;" d="M 402.056, 250.279 L 409.207, 240.626 L 453.899, 259.575 L 446.749, 269.408 L 402.056, 250.279 z "/>
<path style="fill:rgb(0, 255, 0);fill-opacity:0;fill-rule:evenodd;stroke:rgb(255, 0, 173);stroke-width:1;" d="M 393.296, 734.034 L 403.128, 720.626 L 424.939, 690.95 L 435.844, 695.598 L 416.715, 721.877 L 412.782, 720.089 L 410.279, 723.307 L 412.067, 724.201 L 402.056, 737.788 L 393.296, 734.034 z "/>
<path style="fill:rgb(0, 0, 255);fill-opacity:0;fill-rule:evenodd;stroke:rgb(255, 0, 173);stroke-width:1;" d="M 737.073, 392.939 L 755.486, 367.732 L 760.67, 360.939 L 774.436, 366.838 L 772.648, 369.162 L 752.447, 396.693 L 737.073, 392.939 z "/>
<path style="fill:rgb(255, 255, 0);fill-opacity:0;fill-rule:evenodd;stroke:rgb(255, 0, 173);stroke-width:1;" d="M 246.346, 109.765 L 249.028, 106.011 L 250.101, 104.76 L 251.888, 105.475 L 257.609, 97.7877 L 255.642, 96.8939 L 259.575, 91.7095 L 262.257, 92.7821 L 265.654, 88.1341 L 264.402, 87.5978 L 267.978, 82.7709 L 267.62, 80.6257 L 273.698, 72.2235 L 287.464, 77.9441 L 283.888, 82.7709 L 281.207, 86.5251 L 277.989, 87.0615 L 274.95, 91.352 L 272.983, 90.6369 L 269.229, 95.8212 L 273.162, 97.4302 L 269.408, 102.615 L 267.263, 101.899 L 261.721, 109.587 L 263.687, 110.48 L 260.112, 115.486 L 246.346, 109.765 z "/>
<path style="fill:rgb(255, 0, 0);fill-opacity:0;fill-rule:evenodd;stroke:rgb(255, 0, 173);stroke-width:1;" d="M 284.246, 229.721 L 291.218, 220.246 L 336.268, 239.374 L 329.475, 248.849 L 284.246, 229.721 z "/>
<path style="fill:rgb(0, 255, 0);fill-opacity:0;fill-rule:evenodd;stroke:rgb(255, 0, 173);stroke-width:1;" d="M 793.385, 188.067 L 815.196, 158.212 L 829.318, 164.291 L 826.279, 168.402 L 807.508, 194.145 L 793.385, 188.067 z "/>
<path style="fill:rgb(0, 0, 255);fill-opacity:0;fill-rule:evenodd;stroke:rgb(255, 0, 173);stroke-width:1;" d="M 779.263, 182.168 L 801.073, 152.313 L 815.196, 158.212 L 793.385, 188.067 L 779.263, 182.168 z "/>
<path style="fill:rgb(255, 255, 0);fill-opacity:0;fill-rule:evenodd;stroke:rgb(255, 0, 173);stroke-width:1;" d="M 50.2346, 175.911 L 72.581, 145.341 L 86.1676, 151.24 L 64, 181.81 L 50.2346, 175.911 z "/>
<path style="fill:rgb(255, 0, 0);fill-opacity:0;fill-rule:evenodd;stroke:rgb(255, 0, 173);stroke-width:1;" d="M 615.866, 735.642 L 619.084, 731.531 L 636.425, 707.754 L 651.263, 714.19 L 630.704, 742.078 L 615.866, 735.642 z "/>
<path style="fill:rgb(0, 255, 0);fill-opacity:0;fill-rule:evenodd;stroke:rgb(255, 0, 173);stroke-width:1;" d="M 546.682, 780.693 L 552.76, 772.469 L 567.955, 751.732 L 582.257, 757.989 L 561.877, 785.877 L 555.441, 783.196 L 554.905, 784.089 L 546.682, 780.693 z "/>
<path style="fill:rgb(0, 0, 255);fill-opacity:0;fill-rule:evenodd;stroke:rgb(255, 0, 173);stroke-width:1;" d="M 765.497, 176.268 L 766.034, 175.732 L 781.587, 154.279 L 787.307, 146.592 L 801.073, 152.313 L 779.263, 182.168 L 765.497, 176.268 z "/>
<path style="fill:rgb(255, 255, 0);fill-opacity:0;fill-rule:evenodd;stroke:rgb(255, 0, 173);stroke-width:1;" d="M 545.788, 705.609 L 565.095, 679.33 L 566.883, 676.827 L 581.006, 682.905 L 575.642, 690.235 L 559.911, 711.687 L 545.788, 705.609 z "/>
<path style="fill:rgb(255, 0, 0);fill-opacity:0;fill-rule:evenodd;stroke:rgb(255, 0, 173);stroke-width:1;" d="M 395.441, 259.397 L 402.056, 250.279 L 446.749, 269.408 L 442.816, 274.592 L 440.134, 278.346 L 437.989, 277.453 L 395.441, 259.397 z "/>
<path style="fill:rgb(0, 255, 0);fill-opacity:0;fill-rule:evenodd;stroke:rgb(255, 0, 173);stroke-width:1;" d="M 737.251, 316.067 L 756.38, 289.609 L 771.575, 295.866 L 752.447, 322.503 L 737.251, 316.067 z "/>
<path style="fill:rgb(0, 0, 255);fill-opacity:0;fill-rule:evenodd;stroke:rgb(255, 0, 173);stroke-width:1;" d="M 530.95, 699.352 L 550.257, 672.894 L 565.095, 679.33 L 545.788, 705.609 L 530.95, 699.352 z "/>
<path style="fill:rgb(255, 255, 0);fill-opacity:0;fill-rule:evenodd;stroke:rgb(255, 0, 173);stroke-width:1;" d="M 52.2011, 95.6425 L 70.9721, 69.8994 L 85.9888, 76.1564 L 75.0838, 90.9944 L 67.2179, 101.899 L 52.2011, 95.6425 z "/>
<path style="fill:rgb(255, 0, 0);fill-opacity:0;fill-rule:evenodd;stroke:rgb(255, 0, 173);stroke-width:1;" d="M 518.257, 693.81 L 525.408, 684.335 L 525.765, 683.62 L 527.732, 684.335 L 535.061, 674.145 L 533.274, 673.43 L 539.888, 664.492 L 541.497, 665.207 L 544, 661.631 L 553.475, 665.564 L 548.469, 672.179 L 550.257, 672.894 L 530.95, 699.352 L 518.257, 693.81 z "/>
<path style="fill:rgb(0, 255, 0);fill-opacity:0;fill-rule:evenodd;stroke:rgb(255, 0, 173);stroke-width:1;" d="M 424.581, 731.888 L 427.62, 727.598 L 447.642, 700.603 L 459.799, 705.788 L 438.883, 734.212 L 436.737, 737.073 L 424.581, 731.888 z "/>
<path style="fill:rgb(0, 0, 255);fill-opacity:0;fill-rule:evenodd;stroke:rgb(255, 0, 173);stroke-width:1;" d="M 40.581, 745.654 L 47.7318, 735.821 L 73.2961, 746.369 L 84.7374, 751.196 L 86.3464, 751.911 L 79.1955, 761.743 L 40.581, 745.654 z "/>
<path style="fill:rgb(255, 255, 0);fill-opacity:0;fill-rule:evenodd;stroke:rgb(255, 0, 173);stroke-width:1;" d="M 695.24, 146.592 L 712.939, 122.279 L 714.011, 120.849 L 722.056, 124.246 L 726.346, 118.346 L 731.709, 120.67 L 727.598, 126.391 L 709.184, 151.598 L 708.648, 152.313 L 695.24, 146.592 z "/>
<path style="fill:rgb(255, 0, 0);fill-opacity:0;fill-rule:evenodd;stroke:rgb(255, 0, 173);stroke-width:1;" d="M 390.436, 715.263 L 392.76, 712.045 L 412.246, 685.587 L 424.939, 690.95 L 403.128, 720.626 L 390.436, 715.263 z "/>
<path style="fill:rgb(0, 255, 0);fill-opacity:0;fill-rule:evenodd;stroke:rgb(255, 0, 173);stroke-width:1;" d="M 716.514, 692.559 L 725.095, 680.939 L 757.095, 694.704 L 748.514, 706.145 L 745.654, 704.894 L 716.514, 692.559 z "/>
<path style="fill:rgb(0, 0, 255);fill-opacity:0;fill-rule:evenodd;stroke:rgb(255, 0, 173);stroke-width:1;" d="M 250.994, 52.2011 L 260.291, 39.3296 L 288.536, 51.1285 L 286.391, 54.3464 L 279.24, 64.1788 L 250.994, 52.2011 z "/>
<path style="fill:rgb(255, 255, 0);fill-opacity:0;fill-rule:evenodd;stroke:rgb(255, 0, 173);stroke-width:1;" d="M 709.184, 151.598 L 727.598, 126.391 L 741.899, 132.469 L 723.486, 157.676 L 709.184, 151.598 z "/>
<path style="fill:rgb(255, 0, 0);fill-opacity:0;fill-rule:evenodd;stroke:rgb(255, 0, 173);stroke-width:1;" d="M 377.564, 283.531 L 383.821, 275.128 L 426.369, 293.184 L 423.866, 296.402 L 420.112, 301.587 L 377.564, 283.531 z "/>
<path style="fill:rgb(0, 255, 0);fill-opacity:0;fill-rule:evenodd;stroke:rgb(255, 0, 173);stroke-width:1;" d="M 238.48, 475.531 L 246.346, 464.804 L 279.598, 478.927 L 271.911, 489.654 L 238.48, 475.531 z "/>
<path style="fill:rgb(0, 0, 255);fill-opacity:0;fill-rule:evenodd;stroke:rgb(255, 0, 173);stroke-width:1;" d="M 212.916, 510.57 L 219.352, 501.989 L 241.341, 511.285 L 240.804, 512.179 L 261.006, 520.581 L 255.285, 528.447 L 245.631, 524.335 L 212.916, 510.57 z "/>
<path style="fill:rgb(255, 255, 0);fill-opacity:0;fill-rule:evenodd;stroke:rgb(255, 0, 173);stroke-width:1;" d="M 389.542, 267.441 L 395.441, 259.397 L 437.989, 277.453 L 431.911, 285.497 L 389.542, 267.441 z "/>
<path style="fill:rgb(255, 0, 0);fill-opacity:0;fill-rule:evenodd;stroke:rgb(255, 0, 173);stroke-width:1;" d="M 438.883, 734.212 L 459.799, 705.788 L 471.598, 710.793 L 453.899, 734.927 L 450.682, 739.218 L 438.883, 734.212 z "/>
<path style="fill:rgb(0, 255, 0);fill-opacity:0;fill-rule:evenodd;stroke:rgb(255, 0, 173);stroke-width:1;" d="M 300.156, 750.123 L 317.676, 726.168 L 331.62, 732.067 L 330.726, 733.497 L 321.966, 745.475 L 314.101, 756.022 L 300.156, 750.123 z "/>
<path style="fill:rgb(0, 0, 255);fill-opacity:0;fill-rule:evenodd;stroke:rgb(255, 0, 173);stroke-width:1;" d="M 338.95, 767.285 L 346.994, 756.022 L 355.933, 744.223 L 357.542, 741.899 L 370.592, 747.441 L 369.877, 748.693 L 352, 772.827 L 338.95, 767.285 z "/>
<path style="fill:rgb(255, 255, 0);fill-opacity:0;fill-rule:evenodd;stroke:rgb(255, 0, 173);stroke-width:1;" d="M 383.821, 275.128 L 389.542, 267.441 L 431.911, 285.497 L 426.369, 293.184 L 383.821, 275.128 z "/>
<path style="fill:rgb(255, 0, 0);fill-opacity:0;fill-rule:evenodd;stroke:rgb(255, 0, 173);stroke-width:1;" d="M 150.168, 687.553 L 168.045, 663.24 L 181.453, 668.961 L 180.559, 670.212 L 163.575, 693.274 L 150.168, 687.553 z "/>
<path style="fill:rgb(0, 255, 0);fill-opacity:0;fill-rule:evenodd;stroke:rgb(255, 0, 173);stroke-width:1;" d="M 110.48, 649.117 L 116.559, 640.894 L 155.888, 657.698 L 155.709, 658.056 L 149.81, 665.922 L 110.48, 649.117 z "/>
<path style="fill:rgb(0, 0, 255);fill-opacity:0;fill-rule:evenodd;stroke:rgb(255, 0, 173);stroke-width:1;" d="M 136.581, 683.978 L 149.81, 665.922 L 155.709, 658.056 L 168.045, 663.24 L 150.168, 687.553 L 149.095, 689.162 L 136.581, 683.978 z "/>
<path style="fill:rgb(255, 255, 0);fill-opacity:0;fill-rule:evenodd;stroke:rgb(255, 0, 173);stroke-width:1;" d="M 199.508, 775.33 L 216.67, 751.553 L 230.257, 757.274 L 222.57, 768 L 213.095, 781.05 L 199.508, 775.33 z "/>
<path style="fill:rgb(255, 0, 0);fill-opacity:0;fill-rule:evenodd;stroke:rgb(255, 0, 173);stroke-width:1;" d="M 751.017, 169.475 L 766.749, 148.022 L 781.587, 154.279 L 766.034, 175.732 L 751.017, 169.475 z "/>
<path style="fill:rgb(0, 255, 0);fill-opacity:0;fill-rule:evenodd;stroke:rgb(255, 0, 173);stroke-width:1;" d="M 286.927, 744.402 L 292.291, 737.073 L 298.905, 728.134 L 302.659, 723.128 L 304.447, 720.626 L 317.676, 726.168 L 300.156, 750.123 L 286.927, 744.402 z "/>
<path style="fill:rgb(0, 0, 255);fill-opacity:0;fill-rule:evenodd;stroke:rgb(255, 0, 173);stroke-width:1;" d="M 751.017, 241.698 L 768, 218.279 L 781.408, 224 L 764.603, 247.419 L 751.017, 241.698 z "/>
<path style="fill:rgb(255, 255, 0);fill-opacity:0;fill-rule:evenodd;stroke:rgb(255, 0, 173);stroke-width:1;" d="M 416, 722.771 L 416.715, 721.877 L 435.844, 695.598 L 447.642, 700.603 L 427.62, 727.598 L 416, 722.771 z "/>
<path style="fill:rgb(255, 0, 0);fill-opacity:0;fill-rule:evenodd;stroke:rgb(255, 0, 173);stroke-width:1;" d="M 215.777, 643.218 L 224.536, 631.061 L 220.603, 629.453 L 222.57, 626.771 L 235.62, 609.073 L 246.883, 613.721 L 241.698, 620.693 L 222.927, 646.257 L 215.777, 643.218 z "/>
<path style="fill:rgb(0, 255, 0);fill-opacity:0;fill-rule:evenodd;stroke:rgb(255, 0, 173);stroke-width:1;" d="M 369.341, 702.212 L 388.827, 675.575 L 400.626, 680.76 L 381.14, 707.218 L 369.341, 702.212 z "/>
<path style="fill:rgb(0, 0, 255);fill-opacity:0;fill-rule:evenodd;stroke:rgb(255, 0, 173);stroke-width:1;" d="M 362.011, 783.374 L 365.587, 778.547 L 364.514, 778.19 L 380.425, 756.559 L 392.402, 761.743 L 391.151, 763.352 L 375.777, 784.268 L 373.095, 788.022 L 362.011, 783.374 z "/>
<path style="fill:rgb(255, 255, 0);fill-opacity:0;fill-rule:evenodd;stroke:rgb(255, 0, 173);stroke-width:1;" d="M 763.888, 248.313 L 764.603, 247.419 L 781.408, 224 L 794.279, 229.363 L 776.581, 253.676 L 763.888, 248.313 z "/>
<path style="fill:rgb(255, 0, 0);fill-opacity:0;fill-rule:evenodd;stroke:rgb(255, 0, 173);stroke-width:1;" d="M 381.14, 707.218 L 400.626, 680.76 L 412.246, 685.587 L 392.76, 712.045 L 381.14, 707.218 z "/>
<path style="fill:rgb(0, 255, 0);fill-opacity:0;fill-rule:evenodd;stroke:rgb(255, 0, 173);stroke-width:1;" d="M 559.911, 711.687 L 575.642, 690.235 L 590.123, 696.313 L 577.251, 713.654 L 574.212, 717.765 L 559.911, 711.687 z "/>
<path style="fill:rgb(0, 0, 255);fill-opacity:0;fill-rule:evenodd;stroke:rgb(255, 0, 173);stroke-width:1;" d="M 357.721, 697.207 L 365.229, 687.017 L 377.207, 670.749 L 388.827, 675.575 L 369.341, 702.212 L 357.721, 697.207 z "/>
<path style="fill:rgb(255, 255, 0);fill-opacity:0;fill-rule:evenodd;stroke:rgb(255, 0, 173);stroke-width:1;" d="M 43.0838, 417.073 L 61.3184, 391.508 L 73.4749, 396.693 L 59.352, 416.358 L 55.2402, 422.078 L 43.0838, 417.073 z "/>
<path style="fill:rgb(255, 0, 0);fill-opacity:0;fill-rule:evenodd;stroke:rgb(255, 0, 173);stroke-width:1;" d="M 122.101, 633.385 L 127.821, 625.698 L 167.151, 642.503 L 161.43, 650.19 L 122.101, 633.385 z "/>
<path style="fill:rgb(0, 255, 0);fill-opacity:0;fill-rule:evenodd;stroke:rgb(255, 0, 173);stroke-width:1;" d="M 352, 772.827 L 369.877, 748.693 L 382.391, 753.877 L 380.425, 756.559 L 364.514, 778.19 L 352, 772.827 z "/>
<path style="fill:rgb(0, 0, 255);fill-opacity:0;fill-rule:evenodd;stroke:rgb(255, 0, 173);stroke-width:1;" d="M 214.883, 91.7095 L 231.151, 69.3631 L 234.547, 64.5363 L 245.81, 69.3631 L 242.413, 74.0112 L 226.145, 96.3575 L 214.883, 91.7095 z "/>
<path style="fill:rgb(255, 255, 0);fill-opacity:0;fill-rule:evenodd;stroke:rgb(255, 0, 173);stroke-width:1;" d="M 231.508, 320.894 L 237.944, 311.955 L 271.911, 326.078 L 265.296, 335.017 L 231.508, 320.894 z "/>
<path style="fill:rgb(255, 0, 0);fill-opacity:0;fill-rule:evenodd;stroke:rgb(255, 0, 173);stroke-width:1;" d="M 534.704, 64.7151 L 540.425, 56.8492 L 542.034, 57.5642 L 578.86, 73.1173 L 573.14, 80.9832 L 534.704, 64.7151 z "/>
<path style="fill:rgb(0, 255, 0);fill-opacity:0;fill-rule:evenodd;stroke:rgb(255, 0, 173);stroke-width:1;" d="M 225.073, 329.654 L 231.508, 320.894 L 265.296, 335.017 L 258.86, 343.955 L 225.073, 329.654 z "/>
<path style="fill:rgb(0, 0, 255);fill-opacity:0;fill-rule:evenodd;stroke:rgb(255, 0, 173);stroke-width:1;" d="M 116.559, 640.894 L 122.101, 633.385 L 161.43, 650.19 L 155.888, 657.698 L 116.559, 640.894 z "/>
<path style="fill:rgb(255, 255, 0);fill-opacity:0;fill-rule:evenodd;stroke:rgb(255, 0, 173);stroke-width:1;" d="M 651.799, 128.894 L 669.676, 104.402 L 681.832, 109.587 L 664.313, 133.542 L 663.955, 133.899 L 651.799, 128.894 z "/>
<path style="fill:rgb(255, 0, 0);fill-opacity:0;fill-rule:evenodd;stroke:rgb(255, 0, 173);stroke-width:1;" d="M 538.458, 766.391 L 553.654, 745.654 L 567.955, 751.732 L 552.76, 772.469 L 538.458, 766.391 z "/>
<path style="fill:rgb(0, 255, 0);fill-opacity:0;fill-rule:evenodd;stroke:rgb(255, 0, 173);stroke-width:1;" d="M 683.084, 141.408 L 700.782, 117.274 L 712.939, 122.279 L 695.24, 146.592 L 683.084, 141.408 z "/>
<path style="fill:rgb(0, 0, 255);fill-opacity:0;fill-rule:evenodd;stroke:rgb(255, 0, 173);stroke-width:1;" d="M 150.525, 754.235 L 164.469, 734.927 L 167.33, 730.994 L 179.844, 736.179 L 162.86, 759.419 L 150.525, 754.235 z "/>
<path style="fill:rgb(255, 255, 0);fill-opacity:0;fill-rule:evenodd;stroke:rgb(255, 0, 173);stroke-width:1;" d="M 198.615, 362.19 L 202.19, 357.006 L 203.62, 355.039 L 204.335, 354.145 L 206.659, 355.039 L 240.447, 369.341 L 234.726, 377.207 L 200.581, 362.905 L 198.615, 362.19 z "/>
<path style="fill:rgb(255, 0, 0);fill-opacity:0;fill-rule:evenodd;stroke:rgb(255, 0, 173);stroke-width:1;" d="M 776.581, 253.676 L 794.279, 229.363 L 805.899, 234.19 L 805.363, 235.084 L 790.525, 255.464 L 788.38, 258.503 L 776.581, 253.676 z "/>
<path style="fill:rgb(0, 255, 0);fill-opacity:0;fill-rule:evenodd;stroke:rgb(255, 0, 173);stroke-width:1;" d="M 249.922, 174.123 L 266.011, 152.134 L 266.369, 151.598 L 278.883, 156.961 L 277.81, 158.391 L 262.615, 179.307 L 249.922, 174.123 z "/>
<path style="fill:rgb(0, 0, 255);fill-opacity:0;fill-rule:evenodd;stroke:rgb(255, 0, 173);stroke-width:1;" d="M 453.899, 734.927 L 471.598, 710.793 L 483.218, 715.799 L 465.52, 739.933 L 453.899, 734.927 z "/>
<path style="fill:rgb(255, 255, 0);fill-opacity:0;fill-rule:evenodd;stroke:rgb(255, 0, 173);stroke-width:1;" d="M 117.095, 372.737 L 134.436, 348.782 L 146.056, 353.609 L 128.715, 377.743 L 117.095, 372.737 z "/>
<path style="fill:rgb(255, 0, 0);fill-opacity:0;fill-rule:evenodd;stroke:rgb(255, 0, 173);stroke-width:1;" d="M 604.246, 108.335 L 622.302, 83.8436 L 633.564, 88.6704 L 615.687, 113.162 L 604.246, 108.335 z "/>
<path style="fill:rgb(0, 255, 0);fill-opacity:0;fill-rule:evenodd;stroke:rgb(255, 0, 173);stroke-width:1;" d="M 375.777, 784.268 L 391.151, 763.352 L 404.38, 768.894 L 389.006, 789.989 L 375.777, 784.268 z "/>
<path style="fill:rgb(0, 0, 255);fill-opacity:0;fill-rule:evenodd;stroke:rgb(255, 0, 173);stroke-width:1;" d="M 581.899, 98.8603 L 599.777, 74.3687 L 611.039, 79.1955 L 593.162, 103.687 L 581.899, 98.8603 z "/>
<path style="fill:rgb(255, 255, 0);fill-opacity:0;fill-rule:evenodd;stroke:rgb(255, 0, 173);stroke-width:1;" d="M 194.86, 370.95 L 200.581, 362.905 L 234.726, 377.207 L 228.827, 385.43 L 194.86, 370.95 z "/>
<path style="fill:rgb(255, 0, 0);fill-opacity:0;fill-rule:evenodd;stroke:rgb(255, 0, 173);stroke-width:1;" d="M 593.162, 103.687 L 611.039, 79.1955 L 622.302, 83.8436 L 604.246, 108.335 L 593.162, 103.687 z "/>
<path style="fill:rgb(0, 255, 0);fill-opacity:0;fill-rule:evenodd;stroke:rgb(255, 0, 173);stroke-width:1;" d="M 295.866, 662.704 L 309.989, 643.397 L 311.598, 641.251 L 324.291, 646.615 L 308.559, 668.067 L 295.866, 662.704 z "/>
<path style="fill:rgb(0, 0, 255);fill-opacity:0;fill-rule:evenodd;stroke:rgb(255, 0, 173);stroke-width:1;" d="M 408.849, 647.33 L 409.743, 646.078 L 424.223, 626.235 L 436.559, 631.598 L 430.302, 640.179 L 421.184, 652.514 L 408.849, 647.33 z "/>
<path style="fill:rgb(255, 255, 0);fill-opacity:0;fill-rule:evenodd;stroke:rgb(255, 0, 173);stroke-width:1;" d="M 226.145, 96.3575 L 242.413, 74.0112 L 253.855, 78.838 L 237.587, 101.184 L 226.145, 96.3575 z "/>
<path style="fill:rgb(255, 0, 0);fill-opacity:0;fill-rule:evenodd;stroke:rgb(255, 0, 173);stroke-width:1;" d="M 68.4693, 424.939 L 72.9385, 418.86 L 85.2737, 401.52 L 96.3575, 406.168 L 89.3855, 415.821 L 79.5531, 429.587 L 68.4693, 424.939 z "/>
<path style="fill:rgb(0, 255, 0);fill-opacity:0;fill-rule:evenodd;stroke:rgb(255, 0, 173);stroke-width:1;" d="M 219.531, 337.341 L 225.073, 329.654 L 258.86, 343.955 L 253.497, 351.464 L 219.531, 337.341 z "/>
<path style="fill:rgb(0, 0, 255);fill-opacity:0;fill-rule:evenodd;stroke:rgb(255, 0, 173);stroke-width:1;" d="M 237.587, 101.184 L 253.855, 78.838 L 265.296, 83.6648 L 259.575, 91.7095 L 255.642, 96.8939 L 250.101, 104.76 L 249.028, 106.011 L 237.587, 101.184 z "/>
<path style="fill:rgb(255, 255, 0);fill-opacity:0;fill-rule:evenodd;stroke:rgb(255, 0, 173);stroke-width:1;" d="M 203.441, 86.8827 L 219.709, 64.5363 L 231.151, 69.3631 L 214.883, 91.7095 L 203.441, 86.8827 z "/>
<path style="fill:rgb(255, 0, 0);fill-opacity:0;fill-rule:evenodd;stroke:rgb(255, 0, 173);stroke-width:1;" d="M 158.212, 67.7542 L 174.48, 45.4078 L 185.922, 50.2346 L 169.654, 72.581 L 158.212, 67.7542 z "/>
<path style="fill:rgb(0, 255, 0);fill-opacity:0;fill-rule:evenodd;stroke:rgb(255, 0, 173);stroke-width:1;" d="M 135.687, 58.2793 L 151.955, 35.933 L 163.218, 40.7598 L 146.95, 63.1061 L 135.687, 58.2793 z "/>
<path style="fill:rgb(0, 0, 255);fill-opacity:0;fill-rule:evenodd;stroke:rgb(255, 0, 173);stroke-width:1;" d="M 192.179, 82.0559 L 208.447, 59.7095 L 219.709, 64.5363 L 203.441, 86.8827 L 192.179, 82.0559 z "/>
<path style="fill:rgb(255, 255, 0);fill-opacity:0;fill-rule:evenodd;stroke:rgb(255, 0, 173);stroke-width:1;" d="M 146.95, 63.1061 L 163.218, 40.7598 L 174.48, 45.4078 L 158.212, 67.7542 L 146.95, 63.1061 z "/>
<path style="fill:rgb(255, 0, 0);fill-opacity:0;fill-rule:evenodd;stroke:rgb(255, 0, 173);stroke-width:1;" d="M 189.497, 378.458 L 194.86, 370.95 L 228.827, 385.43 L 223.464, 392.76 L 189.497, 378.458 z "/>
<path style="fill:rgb(0, 255, 0);fill-opacity:0;fill-rule:evenodd;stroke:rgb(255, 0, 173);stroke-width:1;" d="M 318.391, 672.358 L 334.302, 650.905 L 345.207, 655.553 L 332.335, 673.073 L 328.402, 678.436 L 320.179, 675.039 L 318.391, 672.358 z "/>
<path style="fill:rgb(0, 0, 255);fill-opacity:0;fill-rule:evenodd;stroke:rgb(255, 0, 173);stroke-width:1;" d="M 306.235, 671.106 L 308.559, 668.067 L 324.291, 646.615 L 334.302, 650.905 L 318.391, 672.358 L 316.246, 675.397 L 306.235, 671.106 z "/>
<path style="fill:rgb(255, 255, 0);fill-opacity:0;fill-rule:evenodd;stroke:rgb(255, 0, 173);stroke-width:1;" d="M 274.056, 121.385 L 286.391, 104.581 L 300.872, 110.838 L 288.536, 127.464 L 274.056, 121.385 z "/>
<path style="fill:rgb(255, 0, 0);fill-opacity:0;fill-rule:evenodd;stroke:rgb(255, 0, 173);stroke-width:1;" d="M 271.911, 489.654 L 279.598, 478.927 L 301.944, 488.402 L 298.369, 493.408 L 294.078, 499.128 L 271.911, 489.654 z "/>
<path style="fill:rgb(0, 255, 0);fill-opacity:0;fill-rule:evenodd;stroke:rgb(255, 0, 173);stroke-width:1;" d="M 75.0838, 90.9944 L 85.9888, 76.1564 L 100.291, 82.2346 L 86.7039, 100.827 L 82.0559, 98.8603 L 80.2682, 96.7151 L 82.2346, 94.0335 L 75.0838, 90.9944 z "/>
<path style="fill:rgb(0, 0, 255);fill-opacity:0;fill-rule:evenodd;stroke:rgb(255, 0, 173);stroke-width:1;" d="M 288.536, 127.464 L 300.872, 110.838 L 314.994, 116.737 L 302.659, 133.542 L 288.536, 127.464 z "/>
<path style="fill:rgb(255, 255, 0);fill-opacity:0;fill-rule:evenodd;stroke:rgb(255, 0, 173);stroke-width:1;" d="M 664.313, 133.542 L 681.832, 109.587 L 682.369, 108.872 L 691.844, 112.983 L 673.966, 137.475 L 664.313, 133.542 z "/>
<path style="fill:rgb(255, 0, 0);fill-opacity:0;fill-rule:evenodd;stroke:rgb(255, 0, 173);stroke-width:1;" d="M 59.352, 417.43 L 59.352, 416.358 L 73.4749, 396.693 L 85.2737, 401.52 L 72.9385, 418.86 L 68.4693, 416.894 L 67.3966, 418.86 L 66.1453, 419.754 L 65.4302, 419.933 L 63.8212, 420.291 L 62.3911, 420.112 L 61.676, 419.933 L 60.4246, 419.039 L 59.5307, 418.145 L 59.352, 417.43 z "/>
<path style="fill:rgb(0, 255, 0);fill-opacity:0;fill-rule:evenodd;stroke:rgb(255, 0, 173);stroke-width:1;" d="M 261.542, 180.737 L 262.615, 179.307 L 277.81, 158.391 L 288, 162.682 L 271.732, 184.849 L 261.542, 180.737 z "/>
<path style="fill:rgb(0, 0, 255);fill-opacity:0;fill-rule:evenodd;stroke:rgb(255, 0, 173);stroke-width:1;" d="M 673.966, 137.475 L 691.844, 112.983 L 701.14, 116.916 L 700.782, 117.274 L 683.084, 141.408 L 673.966, 137.475 z "/>
<path style="fill:rgb(255, 255, 0);fill-opacity:0;fill-rule:evenodd;stroke:rgb(255, 0, 173);stroke-width:1;" d="M 85.095, 115.486 L 89.3855, 109.587 L 107.263, 85.095 L 114.056, 87.9553 L 101.721, 104.76 L 99.933, 107.263 L 91.8883, 118.346 L 85.095, 115.486 z "/>
<path style="fill:rgb(255, 0, 0);fill-opacity:0;fill-rule:evenodd;stroke:rgb(255, 0, 173);stroke-width:1;" d="M 211.128, 621.944 L 214.525, 617.296 L 224.358, 604.067 L 235.62, 609.073 L 222.57, 626.771 L 211.128, 621.944 z "/>
<path style="fill:rgb(0, 255, 0);fill-opacity:0;fill-rule:evenodd;stroke:rgb(255, 0, 173);stroke-width:1;" d="M 981.095, 741.721 L 995.575, 721.698 L 1005.77, 725.989 L 990.927, 745.832 L 981.095, 741.721 z "/>
<path style="fill:rgb(0, 0, 255);fill-opacity:0;fill-rule:evenodd;stroke:rgb(255, 0, 173);stroke-width:1;" d="M 353.966, 682.19 L 366.838, 664.67 L 378.101, 669.497 L 377.207, 670.749 L 365.229, 687.017 L 353.966, 682.19 z "/>
<path style="fill:rgb(255, 255, 0);fill-opacity:0;fill-rule:evenodd;stroke:rgb(255, 0, 173);stroke-width:1;" d="M 342.704, 677.363 L 355.575, 660.022 L 366.838, 664.67 L 353.966, 682.19 L 342.704, 677.363 z "/>
<path style="fill:rgb(255, 0, 0);fill-opacity:0;fill-rule:evenodd;stroke:rgb(255, 0, 173);stroke-width:1;" d="M 332.335, 673.073 L 345.207, 655.553 L 355.575, 660.022 L 342.704, 677.363 L 332.335, 673.073 z "/>
<path style="fill:rgb(0, 255, 0);fill-opacity:0;fill-rule:evenodd;stroke:rgb(255, 0, 173);stroke-width:1;" d="M 474.279, 675.218 L 487.866, 656.804 L 497.162, 660.737 L 493.587, 665.743 L 483.575, 679.151 L 474.279, 675.218 z "/>
<path style="fill:rgb(0, 0, 255);fill-opacity:0;fill-rule:evenodd;stroke:rgb(255, 0, 173);stroke-width:1;" d="M 82.5922, 106.547 L 86.7039, 100.827 L 100.291, 82.2346 L 107.263, 85.095 L 89.3855, 109.587 L 82.5922, 106.547 z "/>
<path style="fill:rgb(255, 255, 0);fill-opacity:0;fill-rule:evenodd;stroke:rgb(255, 0, 173);stroke-width:1;" d="M 438.346, 659.844 L 451.397, 642.324 L 460.693, 646.257 L 447.642, 663.777 L 438.346, 659.844 z "/>
<path style="fill:rgb(255, 0, 0);fill-opacity:0;fill-rule:evenodd;stroke:rgb(255, 0, 173);stroke-width:1;" d="M 311.24, 94.9274 L 318.927, 84.3799 L 333.944, 90.6369 L 326.257, 101.184 L 311.24, 94.9274 z "/>
<path style="fill:rgb(0, 255, 0);fill-opacity:0;fill-rule:evenodd;stroke:rgb(255, 0, 173);stroke-width:1;" d="M 297.475, 89.2067 L 298.011, 88.6704 L 304.447, 79.7318 L 305.341, 78.6592 L 318.927, 84.3799 L 311.24, 94.9274 L 297.475, 89.2067 z "/>
<path style="fill:rgb(0, 0, 255);fill-opacity:0;fill-rule:evenodd;stroke:rgb(255, 0, 173);stroke-width:1;" d="M 431.732, 654.838 L 439.598, 644.291 L 443.531, 638.927 L 451.397, 642.324 L 438.346, 659.844 L 432.268, 657.341 L 431.732, 654.838 z "/>
<path style="fill:rgb(255, 255, 0);fill-opacity:0;fill-rule:evenodd;stroke:rgb(255, 0, 173);stroke-width:1;" d="M 990.927, 745.832 L 1005.77, 725.989 L 1009.34, 727.419 L 1005.59, 732.603 L 1008.8, 733.855 L 997.899, 748.693 L 990.927, 745.832 z "/>
<path style="fill:rgb(255, 0, 0);fill-opacity:0;fill-rule:evenodd;stroke:rgb(255, 0, 173);stroke-width:1;" d="M 421.184, 652.514 L 430.302, 640.179 L 439.598, 644.291 L 431.732, 654.838 L 430.48, 656.447 L 421.184, 652.514 z "/>
<path style="fill:rgb(0, 255, 0);fill-opacity:0;fill-rule:evenodd;stroke:rgb(255, 0, 173);stroke-width:1;" d="M 240.447, 187.173 L 243.486, 183.061 L 246.704, 178.413 L 258.682, 183.419 L 252.425, 192.179 L 240.447, 187.173 z "/>
<path style="fill:rgb(0, 0, 255);fill-opacity:0;fill-rule:evenodd;stroke:rgb(255, 0, 173);stroke-width:1;" d="M 0, 269.408 L 3.93296, 264.045 L 31.8212, 225.43 L 116.737, 261.006 L 86.8827, 302.302 L 81.8771, 309.095 L 87.2402, 311.419 L 85.8101, 313.385 L 77.7654, 324.469 L 69.7207, 335.553 L 60.067, 348.961 L 58.4581, 350.927 L 43.9777, 344.849 L 44.514, 344.313 L 15.1955, 331.978 L 14.6592, 332.514 L 0.715084, 326.793 L 2.14525, 324.648 L 21.095, 298.547 L 32.3575, 282.994 L 0, 269.408 z "/>
<path style="fill:rgb(255, 255, 0);fill-opacity:0;fill-rule:evenodd;stroke:rgb(255, 0, 173);stroke-width:1;" d="M 18.9497, 103.687 L 22.7039, 98.5028 L 21.9888, 98.324 L 42.905, 69.7207 L 37.3631, 67.3966 L 42.905, 59.8883 L 43.9777, 58.4581 L 70.9721, 69.8994 L 52.2011, 95.6425 L 43.6201, 107.441 L 42.5475, 106.905 L 38.7933, 112.089 L 18.9497, 103.687 z "/>
<path style="fill:rgb(255, 0, 0);fill-opacity:0;fill-rule:evenodd;stroke:rgb(255, 0, 173);stroke-width:1;" d="M 22.5251, 164.291 L 50.2346, 126.391 L 64.3575, 132.469 L 47.0168, 156.246 L 43.7989, 154.816 L 36.2905, 165.006 L 39.5084, 166.436 L 36.648, 170.19 L 22.5251, 164.291 z "/>
<path style="fill:rgb(0, 255, 0);fill-opacity:0;fill-rule:evenodd;stroke:rgb(255, 0, 173);stroke-width:1;" d="M 33.7877, 755.128 L 40.581, 745.654 L 79.1955, 761.743 L 79.9106, 762.101 L 73.1173, 771.575 L 62.9274, 767.285 L 34.5028, 755.486 L 33.7877, 755.128 z "/>
<path style="fill:rgb(0, 0, 255);fill-opacity:0;fill-rule:evenodd;stroke:rgb(255, 0, 173);stroke-width:1;" d="M 18.4134, 775.508 L 26.6369, 764.246 L 27.7095, 764.782 L 53.2737, 775.508 L 52.3799, 776.939 L 55.9553, 778.547 L 49.6983, 787.307 L 48.8045, 786.95 L 48.0894, 788.022 L 18.4134, 775.508 z "/>
<path style="fill:rgb(255, 255, 0);fill-opacity:0;fill-rule:evenodd;stroke:rgb(255, 0, 173);stroke-width:1;" d="M 22.8827, 482.324 L 31.2849, 470.346 L 39.6872, 458.726 L 40.9385, 456.939 L 53.2737, 462.123 L 35.5754, 486.793 L 35.2179, 487.508 L 22.8827, 482.324 z "/>
<path style="fill:rgb(255, 0, 0);fill-opacity:0;fill-rule:evenodd;stroke:rgb(255, 0, 173);stroke-width:1;" d="M 33.2514, 593.877 L 39.6872, 585.117 L 73.4749, 599.419 L 67.0391, 608.179 L 33.2514, 593.877 z "/>
<path style="fill:rgb(0, 255, 0);fill-opacity:0;fill-rule:evenodd;stroke:rgb(255, 0, 173);stroke-width:1;" d="M 26.8156, 602.458 L 33.2514, 593.877 L 67.0391, 608.179 L 60.6034, 616.939 L 27.7095, 602.816 L 26.8156, 602.458 z "/>
<path style="fill:rgb(0, 0, 255);fill-opacity:0;fill-rule:evenodd;stroke:rgb(255, 0, 173);stroke-width:1;" d="M 21.6313, 610.86 L 27.7095, 602.816 L 60.6034, 616.939 L 54.8827, 624.804 L 21.6313, 610.86 z "/>
<path style="fill:rgb(255, 255, 0);fill-opacity:0;fill-rule:evenodd;stroke:rgb(255, 0, 173);stroke-width:1;" d="M 27.7095, 764.782 L 34.5028, 755.486 L 62.9274, 767.285 L 56.1341, 776.76 L 53.2737, 775.508 L 27.7095, 764.782 z "/>
<path style="fill:rgb(255, 0, 0);fill-opacity:0;fill-rule:evenodd;stroke:rgb(255, 0, 173);stroke-width:1;" d="M 542.034, 57.5642 L 584.223, 0 L 685.587, 42.905 L 657.162, 81.8771 L 592.447, 54.5251 L 589.765, 58.1006 L 578.86, 73.1173 L 542.034, 57.5642 z "/>
<path style="fill:rgb(0, 255, 0);fill-opacity:0;fill-rule:evenodd;stroke:rgb(255, 0, 173);stroke-width:1;" d="M 878.838, 87.419 L 896.715, 62.7486 L 900.648, 64.3575 L 914.235, 45.4078 L 910.48, 43.9777 L 933.184, 12.6927 L 974.838, 30.0335 L 954.637, 57.9218 L 952.492, 60.9609 L 944.983, 57.9218 L 930.86, 77.5866 L 938.369, 80.6257 L 920.67, 104.939 L 878.838, 87.419 z "/>
<path style="fill:rgb(0, 0, 255);fill-opacity:0;fill-rule:evenodd;stroke:rgb(255, 0, 173);stroke-width:1;" d="M 296.76, 65.2514 L 305.698, 53.095 L 317.497, 58.1006 L 323.933, 49.162 L 324.827, 49.5196 L 327.508, 46.1229 L 314.637, 40.7598 L 324.112, 27.5307 L 366.659, 45.5866 L 357.542, 58.1006 L 344.134, 52.3799 L 336.089, 63.2849 L 337.698, 64 L 335.553, 66.8603 L 347.531, 71.8659 L 339.307, 83.1285 L 296.76, 65.2514 z "/>
<path style="fill:rgb(255, 255, 0);fill-opacity:0;fill-rule:evenodd;stroke:rgb(255, 0, 173);stroke-width:1;" d="M 966.793, 71.5084 L 973.229, 62.7486 L 974.123, 63.1061 L 979.486, 55.419 L 983.419, 54.3464 L 984.67, 52.5587 L 980.38, 50.7709 L 992.179, 34.5028 L 993.609, 32.5363 L 1023.82, 45.2291 L 1022.93, 46.6592 L 1010.59, 63.6425 L 1005.05, 61.3184 L 1003.8, 63.1061 L 1004.69, 71.6872 L 995.933, 83.8436 L 966.793, 71.5084 z "/>
<path style="fill:rgb(255, 0, 0);fill-opacity:0;fill-rule:evenodd;stroke:rgb(255, 0, 173);stroke-width:1;" d="M 820.916, 65.6089 L 846.123, 30.5698 L 847.732, 28.2458 L 875.084, 39.6872 L 848.089, 76.8715 L 820.916, 65.6089 z "/>
<path style="fill:rgb(0, 255, 0);fill-opacity:0;fill-rule:evenodd;stroke:rgb(255, 0, 173);stroke-width:1;" d="M 99.2179, 47.7318 L 129.073, 6.61453 L 151.24, 15.9106 L 140.335, 31.1061 L 124.067, 53.4525 L 121.385, 57.0279 L 99.2179, 47.7318 z "/>
<path style="fill:rgb(0, 0, 255);fill-opacity:0;fill-rule:evenodd;stroke:rgb(255, 0, 173);stroke-width:1;" d="M 428.335, 36.8268 L 442.458, 17.5196 L 484.469, 35.0391 L 470.346, 54.5251 L 428.335, 36.8268 z "/>
<path style="fill:rgb(255, 255, 0);fill-opacity:0;fill-rule:evenodd;stroke:rgb(255, 0, 173);stroke-width:1;" d="M 805.899, 59.352 L 831.464, 24.1341 L 846.123, 30.5698 L 820.916, 65.6089 L 805.899, 59.352 z "/>
<path style="fill:rgb(255, 0, 0);fill-opacity:0;fill-rule:evenodd;stroke:rgb(255, 0, 173);stroke-width:1;" d="M 954.637, 57.9218 L 974.838, 30.0335 L 976.447, 27.8883 L 992.179, 34.5028 L 980.38, 50.7709 L 970.547, 64.5363 L 954.637, 57.9218 z "/>
<path style="fill:rgb(0, 255, 0);fill-opacity:0;fill-rule:evenodd;stroke:rgb(255, 0, 173);stroke-width:1;" d="M 792.492, 53.6313 L 817.877, 18.5922 L 831.464, 24.1341 L 805.899, 59.352 L 792.492, 53.6313 z "/>
<path style="fill:rgb(0, 0, 255);fill-opacity:0;fill-rule:evenodd;stroke:rgb(255, 0, 173);stroke-width:1;" d="M 286.391, 54.3464 L 288.536, 51.1285 L 299.441, 36.2905 L 304.268, 29.4972 L 309.989, 21.6313 L 324.112, 27.5307 L 314.637, 40.7598 L 311.955, 44.514 L 309.453, 43.4413 L 299.978, 56.4916 L 295.151, 54.5251 L 293.184, 57.2067 L 286.391, 54.3464 z "/>
<path style="fill:rgb(255, 255, 0);fill-opacity:0;fill-rule:evenodd;stroke:rgb(255, 0, 173);stroke-width:1;" d="M 124.067, 53.4525 L 140.335, 31.1061 L 151.955, 35.933 L 135.687, 58.2793 L 124.067, 53.4525 z "/>
</svg>