<?xml version="1.0" encoding="iso-8859-1" standalone="no"?>
<!DOCTYPE svg PUBLIC "-//W3C//DTD SVG 1.0//EN" "http://www.w3.org/TR/2001/REC-SVG-20010904/DTD/svg10.dtd">
<svg xmlns="http://www.w3.org/2000/svg" width="1036" height="800">
<path style="fill:rgb(255, 0, 0);fill-opacity:0;fill-rule:evenodd;stroke:rgb(0, 223, 255);stroke-width:1;" d="M 857.655, 191.898 L 861.748, 191.898 L 866.013, 191.727 L 880.171, 191.215 L 879.829, 186.951 L 881.876, 186.951 L 881.365, 179.446 L 881.194, 176.375 L 903.539, 175.522 L 903.71, 178.763 L 904.222, 186.269 L 905.928, 186.098 L 906.269, 190.021 L 926.908, 189.339 L 931.173, 189.168 L 935.437, 188.998 L 936.631, 211.002 L 932.537, 211.173 L 928.273, 211.343 L 914.797, 211.684 L 916.162, 236.247 L 926.397, 235.906 L 930.49, 235.736 L 930.832, 240.682 L 931.684, 254.158 L 931.855, 259.104 L 927.761, 259.275 L 917.527, 259.616 L 918.891, 284.009 L 932.878, 283.497 L 937.143, 283.326 L 941.407, 283.156 L 942.601, 304.989 L 938.507, 305.16 L 934.243, 305.33 L 913.433, 306.013 L 913.603, 309.765 L 911.557, 309.936 L 911.727, 314.542 L 911.898, 317.783 L 912.239, 320.853 L 889.552, 321.706 L 889.382, 318.465 L 889.211, 315.224 L 889.041, 310.618 L 887.335, 310.789 L 886.994, 306.866 L 873.006, 307.207 L 868.742, 307.377 L 864.478, 307.548 L 863.284, 285.714 L 867.377, 285.544 L 871.642, 285.373 L 890.405, 284.861 L 889.041, 260.469 L 867.889, 261.151 L 863.795, 261.322 L 863.454, 256.375 L 862.601, 242.9 L 862.431, 237.953 L 866.525, 237.783 L 887.505, 237.1 L 886.141, 212.878 L 867.207, 213.561 L 862.942, 213.561 L 858.849, 213.731 L 857.655, 191.898 z "/>
<path style="fill:rgb(0, 255, 0);fill-opacity:0;fill-rule:evenodd;stroke:rgb(0, 223, 255);stroke-width:1;" d="M 684.861, 145.16 L 688.955, 144.989 L 693.22, 144.989 L 714.712, 144.136 L 714.542, 140.384 L 715.906, 140.384 L 715.394, 132.708 L 715.224, 129.467 L 737.74, 128.785 L 737.91, 131.855 L 738.422, 139.19 L 739.957, 139.019 L 740.128, 143.454 L 754.797, 142.942 L 758.891, 142.772 L 763.156, 142.601 L 764.35, 164.435 L 760.256, 164.606 L 755.991, 164.776 L 737.058, 165.288 L 738.422, 190.021 L 759.574, 189.339 L 763.497, 189.168 L 763.838, 194.115 L 764.52, 207.079 L 764.861, 212.026 L 760.597, 212.196 L 739.616, 212.878 L 740.981, 237.441 L 759.744, 236.759 L 763.838, 236.759 L 768.102, 236.588 L 769.296, 258.422 L 765.203, 258.593 L 760.938, 258.763 L 747.292, 259.275 L 747.463, 263.028 L 745.586, 263.028 L 745.928, 267.463 L 746.098, 270.704 L 746.269, 273.945 L 723.753, 274.627 L 723.582, 271.557 L 723.412, 268.316 L 723.07, 263.71 L 721.365, 263.71 L 721.194, 259.957 L 700.384, 260.64 L 696.29, 260.81 L 692.026, 260.81 L 690.832, 238.977 L 694.925, 238.806 L 699.19, 238.635 L 712.324, 238.294 L 710.959, 213.731 L 701.066, 214.072 L 696.972, 214.243 L 696.631, 209.126 L 695.949, 196.162 L 695.608, 191.215 L 699.872, 191.045 L 710.107, 190.704 L 708.742, 166.311 L 694.414, 166.823 L 690.149, 166.994 L 686.055, 166.994 L 684.861, 145.16 z "/>
<path style="fill:rgb(0, 0, 255);fill-opacity:0;fill-rule:evenodd;stroke:rgb(0, 223, 255);stroke-width:1;" d="M 295.778, 92.452 L 313.689, 91.258 L 316.418, 116.503 L 325.629, 115.991 L 324.947, 110.021 L 337.74, 109.168 L 337.399, 104.904 L 336.034, 104.904 L 335.693, 101.493 L 336.546, 101.493 L 336.034, 96.3753 L 334.67, 96.3753 L 334.328, 92.6226 L 335.181, 92.6226 L 334.67, 87.8465 L 389.083, 82.8998 L 389.424, 86.6525 L 390.789, 86.4819 L 391.301, 90.4051 L 389.936, 90.5757 L 390.448, 95.1812 L 391.812, 95.1812 L 392.324, 99.7868 L 390.959, 99.9574 L 391.13, 101.663 L 405.8, 100.81 L 406.482, 106.439 L 415.181, 105.928 L 411.77, 73.6887 L 446.738, 71.6418 L 448.102, 84.435 L 447.249, 84.435 L 448.102, 92.452 L 449.467, 106.098 L 450.32, 106.098 L 451.684, 118.38 L 300.384, 134.925 L 295.778, 92.452 z "/>
<path style="fill:rgb(255, 255, 0);fill-opacity:0;fill-rule:evenodd;stroke:rgb(0, 223, 255);stroke-width:1;" d="M 862.601, 242.9 L 866.866, 242.729 L 866.525, 237.783 L 887.505, 237.1 L 886.141, 212.878 L 867.207, 213.561 L 866.013, 191.727 L 880.171, 191.215 L 879.829, 186.951 L 881.876, 186.951 L 881.365, 179.446 L 903.71, 178.763 L 904.222, 186.269 L 905.928, 186.098 L 906.269, 190.021 L 926.908, 189.339 L 928.273, 211.343 L 914.797, 211.684 L 907.292, 212.026 L 907.633, 215.778 L 904.904, 215.778 L 905.928, 232.836 L 908.657, 232.665 L 908.827, 236.418 L 916.162, 236.247 L 926.397, 235.906 L 926.738, 240.853 L 930.832, 240.682 L 931.684, 254.158 L 927.591, 254.328 L 927.761, 259.275 L 917.527, 259.616 L 910.021, 259.787 L 910.362, 263.369 L 907.633, 263.539 L 908.486, 280.597 L 911.386, 280.426 L 911.557, 284.179 L 918.891, 284.009 L 932.878, 283.497 L 934.243, 305.33 L 913.433, 306.013 L 913.603, 309.765 L 911.557, 309.936 L 911.727, 314.542 L 889.211, 315.224 L 889.041, 310.618 L 887.335, 310.789 L 886.994, 306.866 L 873.006, 307.207 L 871.642, 285.373 L 890.405, 284.861 L 889.041, 260.469 L 867.889, 261.151 L 867.719, 256.205 L 863.454, 256.375 L 862.601, 242.9 z "/>
<path style="fill:rgb(255, 0, 0);fill-opacity:0;fill-rule:evenodd;stroke:rgb(0, 223, 255);stroke-width:1;" d="M 693.22, 144.989 L 714.712, 144.136 L 714.542, 140.384 L 715.906, 140.384 L 715.394, 132.708 L 737.91, 131.855 L 738.422, 139.19 L 739.957, 139.019 L 740.128, 143.454 L 754.797, 142.942 L 755.991, 164.776 L 737.058, 165.288 L 738.422, 190.021 L 759.574, 189.339 L 759.744, 194.286 L 763.838, 194.115 L 764.52, 207.079 L 760.426, 207.249 L 760.597, 212.196 L 739.616, 212.878 L 740.981, 237.441 L 759.744, 236.759 L 760.938, 258.763 L 747.292, 259.275 L 747.463, 263.028 L 745.586, 263.028 L 745.928, 267.463 L 723.412, 268.316 L 723.07, 263.71 L 721.365, 263.71 L 721.194, 259.957 L 700.384, 260.64 L 699.19, 238.635 L 712.324, 238.294 L 719.659, 237.953 L 719.488, 234.371 L 722.388, 234.371 L 721.365, 217.313 L 718.806, 217.484 L 718.465, 213.561 L 710.959, 213.731 L 701.066, 214.072 L 700.725, 209.126 L 696.631, 209.126 L 695.949, 196.162 L 700.043, 196.162 L 699.872, 191.045 L 710.107, 190.704 L 717.271, 190.533 L 717.1, 186.951 L 720, 186.78 L 718.977, 169.723 L 716.418, 169.893 L 716.247, 166.141 L 708.742, 166.311 L 694.414, 166.823 L 693.22, 144.989 z "/>
<path style="fill:rgb(0, 255, 0);fill-opacity:0;fill-rule:evenodd;stroke:rgb(0, 223, 255);stroke-width:1;" d="M 910.021, 537.655 L 910.362, 529.979 L 912.409, 522.473 L 915.821, 515.309 L 920.597, 508.486 L 926.567, 502.345 L 933.902, 497.058 L 941.919, 492.623 L 950.959, 489.041 L 960.512, 486.482 L 970.405, 485.288 L 980.469, 484.947 L 984.733, 485.458 L 993.262, 515.48 L 985.586, 517.356 L 976.546, 520.938 L 968.358, 525.373 L 961.194, 530.832 L 955.224, 536.972 L 950.448, 543.625 L 947.889, 548.742 L 911.045, 545.16 L 910.021, 537.655 z "/>
<path style="fill:rgb(0, 0, 255);fill-opacity:0;fill-rule:evenodd;stroke:rgb(0, 223, 255);stroke-width:1;" d="M 337.569, 187.804 L 357.868, 163.412 L 374.925, 171.599 L 364.009, 184.733 L 378.678, 191.898 L 364.35, 208.955 L 380.213, 216.631 L 369.296, 229.765 L 384.307, 237.1 L 370.832, 253.305 L 386.866, 260.981 L 376.29, 273.603 L 391.301, 280.938 L 371.855, 303.966 L 354.797, 295.778 L 364.35, 284.35 L 349.339, 277.186 L 363.497, 260.299 L 347.292, 252.452 L 357.527, 240.341 L 342.516, 233.177 L 357.697, 214.925 L 342.004, 207.42 L 352.239, 194.968 L 337.569, 187.804 z "/>
<path style="fill:rgb(255, 255, 0);fill-opacity:0;fill-rule:evenodd;stroke:rgb(0, 223, 255);stroke-width:1;" d="M 360.426, 364.52 L 372.708, 355.821 L 360.768, 346.098 L 375.437, 335.693 L 400, 355.65 L 387.207, 364.691 L 400.682, 375.608 L 386.525, 385.842 L 403.582, 399.659 L 390.789, 408.87 L 404.606, 420.128 L 390.959, 429.851 L 409.211, 444.691 L 396.418, 453.731 L 410.235, 464.989 L 399.488, 472.665 L 395.565, 475.394 L 369.638, 454.243 L 382.431, 445.032 L 369.467, 434.456 L 382.942, 424.904 L 363.838, 409.211 L 376.802, 400 L 364.009, 389.595 L 378.337, 379.36 L 360.426, 364.52 z "/>
<path style="fill:rgb(255, 0, 0);fill-opacity:0;fill-rule:evenodd;stroke:rgb(0, 223, 255);stroke-width:1;" d="M 429.168, 518.038 L 458.849, 515.821 L 456.29, 495.352 L 488.699, 492.964 L 494.328, 538.507 L 496.546, 557.612 L 464.136, 559.829 L 461.578, 539.531 L 432.068, 541.578 L 429.168, 518.038 z "/>
<path style="fill:rgb(0, 255, 0);fill-opacity:0;fill-rule:evenodd;stroke:rgb(0, 223, 255);stroke-width:1;" d="M 432.239, 398.635 L 452.367, 375.608 L 469.254, 384.307 L 459.36, 395.565 L 474.03, 403.07 L 459.19, 419.957 L 474.712, 427.804 L 464.136, 439.744 L 478.806, 447.249 L 476.418, 449.808 L 457.655, 471.13 L 440.938, 462.601 L 452.196, 449.808 L 437.356, 442.303 L 451.343, 426.439 L 435.821, 418.593 L 446.908, 406.141 L 432.239, 398.635 z "/>
<path style="fill:rgb(0, 0, 255);fill-opacity:0;fill-rule:evenodd;stroke:rgb(0, 223, 255);stroke-width:1;" d="M 406.141, 166.994 L 420.64, 156.247 L 447.079, 177.058 L 434.456, 186.439 L 447.591, 196.674 L 434.115, 206.567 L 452.537, 221.066 L 439.744, 230.448 L 452.196, 240.171 L 440.085, 249.211 L 437.868, 250.746 L 412.793, 231.13 L 425.416, 221.748 L 411.77, 211.002 L 425.075, 201.109 L 407.505, 187.292 L 420.128, 177.91 L 406.141, 166.994 z "/>
<path style="fill:rgb(255, 255, 0);fill-opacity:0;fill-rule:evenodd;stroke:rgb(0, 223, 255);stroke-width:1;" d="M 554.883, 142.942 L 575.522, 141.407 L 577.399, 157.1 L 592.751, 156.077 L 599.062, 207.761 L 583.539, 208.785 L 585.416, 224.648 L 564.776, 226.183 L 561.194, 195.821 L 579.104, 194.627 L 576.375, 171.599 L 558.465, 172.793 L 554.883, 142.942 z "/>
<path style="fill:rgb(255, 0, 0);fill-opacity:0;fill-rule:evenodd;stroke:rgb(0, 223, 255);stroke-width:1;" d="M 568.699, 261.834 L 589.51, 260.469 L 591.386, 276.503 L 606.397, 275.48 L 612.537, 326.823 L 597.356, 327.846 L 599.232, 343.71 L 578.422, 345.245 L 574.84, 315.053 L 592.921, 313.859 L 590.192, 290.832 L 572.111, 292.026 L 568.699, 261.834 z "/>
<path style="fill:rgb(0, 255, 0);fill-opacity:0;fill-rule:evenodd;stroke:rgb(0, 223, 255);stroke-width:1;" d="M 502.175, 282.303 L 517.527, 281.279 L 515.65, 265.416 L 536.119, 264.051 L 539.701, 293.902 L 521.962, 295.096 L 524.52, 318.465 L 542.431, 317.271 L 545.842, 347.292 L 525.373, 348.657 L 523.497, 332.964 L 508.145, 333.987 L 502.175, 282.303 z "/>
<path style="fill:rgb(0, 0, 255);fill-opacity:0;fill-rule:evenodd;stroke:rgb(0, 223, 255);stroke-width:1;" d="M 488.699, 162.9 L 503.881, 161.876 L 502.175, 146.866 L 522.814, 145.501 L 526.226, 174.499 L 508.145, 175.864 L 510.874, 198.891 L 528.955, 197.697 L 532.537, 227.889 L 511.898, 229.254 L 510.021, 213.39 L 494.67, 214.414 L 488.699, 162.9 z "/>
<path style="fill:rgb(255, 255, 0);fill-opacity:0;fill-rule:evenodd;stroke:rgb(0, 223, 255);stroke-width:1;" d="M 283.838, 303.795 L 298.849, 302.772 L 296.972, 286.567 L 317.612, 285.203 L 321.194, 315.224 L 303.454, 316.418 L 306.183, 339.787 L 323.923, 338.422 L 327.676, 368.614 L 307.377, 369.979 L 305.501, 353.945 L 289.979, 355.139 L 283.838, 303.795 z "/>
<path style="fill:rgb(255, 0, 0);fill-opacity:0;fill-rule:evenodd;stroke:rgb(0, 223, 255);stroke-width:1;" d="M 422.004, 272.751 L 442.132, 271.386 L 444.009, 287.761 L 459.701, 286.567 L 465.672, 337.74 L 450.149, 338.763 L 452.026, 354.627 L 431.898, 355.991 L 428.486, 326.823 L 446.397, 325.629 L 445.203, 315.736 L 441.45, 315.906 L 440.426, 315.053 L 440.085, 314.03 L 440.256, 312.836 L 440.938, 311.812 L 444.691, 311.471 L 443.497, 301.578 L 425.586, 302.942 L 422.004, 272.751 z "/>
<path style="fill:rgb(0, 255, 0);fill-opacity:0;fill-rule:evenodd;stroke:rgb(0, 223, 255);stroke-width:1;" d="M 422.004, 272.751 L 442.132, 271.386 L 444.009, 287.761 L 459.701, 286.567 L 465.672, 337.74 L 450.149, 338.763 L 452.026, 354.627 L 431.898, 355.991 L 428.486, 326.823 L 446.397, 325.629 L 445.203, 315.736 L 444.691, 311.471 L 443.497, 301.578 L 425.586, 302.942 L 422.004, 272.751 z "/>
<path style="fill:rgb(0, 0, 255);fill-opacity:0;fill-rule:evenodd;stroke:rgb(0, 223, 255);stroke-width:1;" d="M 297.655, 414.499 L 312.836, 413.475 L 310.959, 397.271 L 331.087, 395.736 L 334.67, 425.586 L 317.1, 426.951 L 317.953, 434.286 L 319.829, 450.49 L 337.569, 449.126 L 341.151, 479.147 L 321.023, 480.512 L 319.147, 464.478 L 303.966, 465.672 L 297.655, 414.499 z "/>
<path style="fill:rgb(255, 255, 0);fill-opacity:0;fill-rule:evenodd;stroke:rgb(0, 223, 255);stroke-width:1;" d="M 343.539, 523.667 L 358.55, 522.644 L 359.062, 526.055 L 376.119, 524.861 L 375.608, 521.279 L 393.859, 519.915 L 398.294, 555.224 L 348.145, 558.977 L 343.539, 523.667 z "/>
<path style="fill:rgb(255, 0, 0);fill-opacity:0;fill-rule:evenodd;stroke:rgb(0, 223, 255);stroke-width:1;" d="M 382.26, 682.132 L 409.723, 679.574 L 412.964, 698.337 L 392.495, 700.213 L 396.588, 725.288 L 389.765, 725.97 L 383.625, 689.296 L 382.26, 682.132 z "/>
<path style="fill:rgb(0, 255, 0);fill-opacity:0;fill-rule:evenodd;stroke:rgb(0, 223, 255);stroke-width:1;" d="M 971.087, 553.859 L 971.94, 553.177 L 973.987, 554.712 L 976.375, 552.836 L 974.499, 551.471 L 975.181, 549.936 L 976.887, 547.207 L 978.081, 546.013 L 980.469, 543.625 L 981.834, 542.431 L 983.369, 541.407 L 986.61, 539.701 L 988.316, 538.849 L 992.068, 537.655 L 994.115, 539.19 L 997.527, 536.461 L 995.65, 535.096 L 996.503, 534.414 L 1005.2, 540.896 L 1007.25, 539.36 L 1011, 542.26 L 1008.78, 543.966 L 1011.51, 546.013 L 1004.86, 551.13 L 1005.54, 551.642 L 993.603, 560.853 L 993.092, 560.341 L 986.61, 565.458 L 971.087, 553.859 z "/>
<path style="fill:rgb(0, 0, 255);fill-opacity:0;fill-rule:evenodd;stroke:rgb(0, 223, 255);stroke-width:1;" d="M 627.719, 439.744 L 640.682, 438.891 L 640.682, 438.209 L 656.546, 437.186 L 656.716, 437.868 L 669.851, 437.015 L 670.874, 446.738 L 657.74, 447.591 L 657.91, 448.785 L 641.876, 449.808 L 641.876, 448.614 L 628.913, 449.467 L 627.719, 439.744 z "/>
<path style="fill:rgb(255, 255, 0);fill-opacity:0;fill-rule:evenodd;stroke:rgb(0, 223, 255);stroke-width:1;" d="M 627.719, 439.744 L 640.682, 438.891 L 656.716, 437.868 L 669.851, 437.015 L 670.874, 446.738 L 657.74, 447.591 L 641.876, 448.614 L 628.913, 449.467 L 627.719, 439.744 z "/>
<path style="fill:rgb(255, 0, 0);fill-opacity:0;fill-rule:evenodd;stroke:rgb(0, 223, 255);stroke-width:1;" d="M 710.959, 213.731 L 718.465, 213.561 L 718.806, 217.484 L 721.365, 217.313 L 722.388, 234.371 L 719.488, 234.371 L 719.659, 237.953 L 712.324, 238.294 L 710.959, 213.731 z "/>
<path style="fill:rgb(0, 255, 0);fill-opacity:0;fill-rule:evenodd;stroke:rgb(0, 223, 255);stroke-width:1;" d="M 708.742, 166.311 L 716.247, 166.141 L 716.418, 169.893 L 718.977, 169.723 L 720, 186.78 L 717.1, 186.951 L 717.271, 190.533 L 710.107, 190.704 L 708.742, 166.311 z "/>
<path style="fill:rgb(0, 0, 255);fill-opacity:0;fill-rule:evenodd;stroke:rgb(0, 223, 255);stroke-width:1;" d="M 992.921, 85.7996 L 995.48, 85.4584 L 994.456, 81.8763 L 1001.62, 80.5117 L 1009.13, 104.222 L 1001.96, 105.586 L 1000.77, 102.004 L 998.209, 102.345 L 992.921, 85.7996 z "/>
<path style="fill:rgb(255, 255, 0);fill-opacity:0;fill-rule:evenodd;stroke:rgb(0, 223, 255);stroke-width:1;" d="M 904.904, 215.778 L 907.633, 215.778 L 907.292, 212.026 L 914.797, 211.684 L 916.162, 236.247 L 908.827, 236.418 L 908.657, 232.665 L 905.928, 232.836 L 904.904, 215.778 z "/>
<path style="fill:rgb(255, 0, 0);fill-opacity:0;fill-rule:evenodd;stroke:rgb(0, 223, 255);stroke-width:1;" d="M 907.633, 263.539 L 910.362, 263.369 L 910.021, 259.787 L 917.527, 259.616 L 918.891, 284.009 L 911.557, 284.179 L 911.386, 280.426 L 908.486, 280.597 L 907.633, 263.539 z "/>
<path style="fill:rgb(0, 255, 0);fill-opacity:0;fill-rule:evenodd;stroke:rgb(0, 223, 255);stroke-width:1;" d="M 359.744, 534.072 L 376.972, 532.878 L 378.337, 544.989 L 360.938, 546.013 L 359.744, 534.072 z "/>
<path style="fill:rgb(0, 0, 255);fill-opacity:0;fill-rule:evenodd;stroke:rgb(0, 223, 255);stroke-width:1;" d="M 640.682, 438.209 L 656.546, 437.186 L 656.716, 437.868 L 657.74, 447.591 L 657.91, 448.785 L 641.876, 449.808 L 641.876, 448.614 L 640.682, 438.891 L 640.682, 438.209 z "/>
<path style="fill:rgb(255, 255, 0);fill-opacity:0;fill-rule:evenodd;stroke:rgb(0, 223, 255);stroke-width:1;" d="M 891.087, 243.412 L 906.439, 242.9 L 907.122, 254.499 L 891.599, 255.011 L 891.087, 243.412 z "/>
<path style="fill:rgb(255, 0, 0);fill-opacity:0;fill-rule:evenodd;stroke:rgb(0, 223, 255);stroke-width:1;" d="M 718.977, 148.742 L 734.499, 148.23 L 735.011, 159.829 L 719.659, 160.341 L 718.977, 148.742 z "/>
<path style="fill:rgb(0, 255, 0);fill-opacity:0;fill-rule:evenodd;stroke:rgb(0, 223, 255);stroke-width:1;" d="M 889.041, 196.333 L 904.392, 195.821 L 905.075, 207.42 L 889.723, 207.932 L 889.041, 196.333 z "/>
<path style="fill:rgb(0, 0, 255);fill-opacity:0;fill-rule:evenodd;stroke:rgb(0, 223, 255);stroke-width:1;" d="M 891.77, 290.32 L 907.292, 289.808 L 907.974, 301.237 L 892.452, 301.748 L 891.77, 290.32 z "/>
<path style="fill:rgb(255, 255, 0);fill-opacity:0;fill-rule:evenodd;stroke:rgb(0, 223, 255);stroke-width:1;" d="M 722.729, 242.559 L 738.252, 242.217 L 738.934, 253.646 L 723.412, 254.158 L 722.729, 242.559 z "/>
<path style="fill:rgb(255, 0, 0);fill-opacity:0;fill-rule:evenodd;stroke:rgb(0, 223, 255);stroke-width:1;" d="M 977.569, 551.983 L 993.262, 540.213 L 999.744, 545.16 L 984.051, 556.93 L 977.569, 551.983 z "/>
<path style="fill:rgb(0, 255, 0);fill-opacity:0;fill-rule:evenodd;stroke:rgb(0, 223, 255);stroke-width:1;" d="M 720.682, 194.627 L 733.475, 194.286 L 733.987, 205.714 L 721.194, 206.055 L 720.682, 194.627 z "/>
<path style="fill:rgb(0, 0, 255);fill-opacity:0;fill-rule:evenodd;stroke:rgb(0, 223, 255);stroke-width:1;" d="M 1025.84, 101.151 L 1029.94, 100.469 L 1036.76, 121.791 L 1032.67, 122.644 L 1025.84, 101.151 z "/>
<path style="fill:rgb(255, 255, 0);fill-opacity:0;fill-rule:evenodd;stroke:rgb(0, 223, 255);stroke-width:1;" d="M 958.294, 113.262 L 962.388, 112.58 L 969.211, 133.902 L 965.117, 134.755 L 958.294, 113.262 z "/>
<path style="fill:rgb(255, 0, 0);fill-opacity:0;fill-rule:evenodd;stroke:rgb(0, 223, 255);stroke-width:1;" d="M 867.377, 285.544 L 871.642, 285.373 L 873.006, 307.207 L 868.742, 307.377 L 867.377, 285.544 z "/>
<path style="fill:rgb(0, 255, 0);fill-opacity:0;fill-rule:evenodd;stroke:rgb(0, 223, 255);stroke-width:1;" d="M 926.908, 189.339 L 931.173, 189.168 L 932.537, 211.173 L 928.273, 211.343 L 926.908, 189.339 z "/>
<path style="fill:rgb(0, 0, 255);fill-opacity:0;fill-rule:evenodd;stroke:rgb(0, 223, 255);stroke-width:1;" d="M 694.925, 238.806 L 699.19, 238.635 L 700.384, 260.64 L 696.29, 260.81 L 694.925, 238.806 z "/>
<path style="fill:rgb(255, 255, 0);fill-opacity:0;fill-rule:evenodd;stroke:rgb(0, 223, 255);stroke-width:1;" d="M 931.173, 189.168 L 935.437, 188.998 L 936.631, 211.002 L 932.537, 211.173 L 931.173, 189.168 z "/>
<path style="fill:rgb(255, 0, 0);fill-opacity:0;fill-rule:evenodd;stroke:rgb(0, 223, 255);stroke-width:1;" d="M 1021.75, 102.004 L 1025.84, 101.151 L 1032.67, 122.644 L 1028.57, 123.326 L 1021.75, 102.004 z "/>
<path style="fill:rgb(0, 255, 0);fill-opacity:0;fill-rule:evenodd;stroke:rgb(0, 223, 255);stroke-width:1;" d="M 763.838, 236.759 L 768.102, 236.588 L 769.296, 258.422 L 765.203, 258.593 L 763.838, 236.759 z "/>
<path style="fill:rgb(0, 0, 255);fill-opacity:0;fill-rule:evenodd;stroke:rgb(0, 223, 255);stroke-width:1;" d="M 954.2, 114.115 L 958.294, 113.262 L 965.117, 134.755 L 961.023, 135.437 L 954.2, 114.115 z "/>
<path style="fill:rgb(255, 255, 0);fill-opacity:0;fill-rule:evenodd;stroke:rgb(0, 223, 255);stroke-width:1;" d="M 759.744, 236.759 L 763.838, 236.759 L 765.203, 258.593 L 760.938, 258.763 L 759.744, 236.759 z "/>
<path style="fill:rgb(255, 0, 0);fill-opacity:0;fill-rule:evenodd;stroke:rgb(0, 223, 255);stroke-width:1;" d="M 688.955, 144.989 L 693.22, 144.989 L 694.414, 166.823 L 690.149, 166.994 L 688.955, 144.989 z "/>
<path style="fill:rgb(0, 255, 0);fill-opacity:0;fill-rule:evenodd;stroke:rgb(0, 223, 255);stroke-width:1;" d="M 861.748, 191.898 L 866.013, 191.727 L 867.207, 213.561 L 862.942, 213.561 L 861.748, 191.898 z "/>
<path style="fill:rgb(0, 0, 255);fill-opacity:0;fill-rule:evenodd;stroke:rgb(0, 223, 255);stroke-width:1;" d="M 754.797, 142.942 L 758.891, 142.772 L 760.256, 164.606 L 755.991, 164.776 L 754.797, 142.942 z "/>
<path style="fill:rgb(255, 255, 0);fill-opacity:0;fill-rule:evenodd;stroke:rgb(0, 223, 255);stroke-width:1;" d="M 932.878, 283.497 L 937.143, 283.326 L 938.507, 305.16 L 934.243, 305.33 L 932.878, 283.497 z "/>
<path style="fill:rgb(255, 0, 0);fill-opacity:0;fill-rule:evenodd;stroke:rgb(0, 223, 255);stroke-width:1;" d="M 937.143, 283.326 L 941.407, 283.156 L 942.601, 304.989 L 938.507, 305.16 L 937.143, 283.326 z "/>
<path style="fill:rgb(0, 255, 0);fill-opacity:0;fill-rule:evenodd;stroke:rgb(0, 223, 255);stroke-width:1;" d="M 690.832, 238.977 L 694.925, 238.806 L 696.29, 260.81 L 692.026, 260.81 L 690.832, 238.977 z "/>
<path style="fill:rgb(0, 0, 255);fill-opacity:0;fill-rule:evenodd;stroke:rgb(0, 223, 255);stroke-width:1;" d="M 684.861, 145.16 L 688.955, 144.989 L 690.149, 166.994 L 686.055, 166.994 L 684.861, 145.16 z "/>
<path style="fill:rgb(255, 255, 0);fill-opacity:0;fill-rule:evenodd;stroke:rgb(0, 223, 255);stroke-width:1;" d="M 863.284, 285.714 L 867.377, 285.544 L 868.742, 307.377 L 864.478, 307.548 L 863.284, 285.714 z "/>
<path style="fill:rgb(255, 0, 0);fill-opacity:0;fill-rule:evenodd;stroke:rgb(0, 223, 255);stroke-width:1;" d="M 758.891, 142.772 L 763.156, 142.601 L 764.35, 164.435 L 760.256, 164.606 L 758.891, 142.772 z "/>
<path style="fill:rgb(0, 255, 0);fill-opacity:0;fill-rule:evenodd;stroke:rgb(0, 223, 255);stroke-width:1;" d="M 857.655, 191.898 L 861.748, 191.898 L 862.942, 213.561 L 858.849, 213.731 L 857.655, 191.898 z "/>
<path style="fill:rgb(0, 0, 255);fill-opacity:0;fill-rule:evenodd;stroke:rgb(0, 223, 255);stroke-width:1;" d="M 715.224, 129.467 L 737.74, 128.785 L 737.91, 131.855 L 715.394, 132.708 L 715.224, 129.467 z "/>
<path style="fill:rgb(255, 255, 0);fill-opacity:0;fill-rule:evenodd;stroke:rgb(0, 223, 255);stroke-width:1;" d="M 723.412, 268.316 L 745.928, 267.463 L 746.098, 270.704 L 723.582, 271.557 L 723.412, 268.316 z "/>
<path style="fill:rgb(255, 0, 0);fill-opacity:0;fill-rule:evenodd;stroke:rgb(0, 223, 255);stroke-width:1;" d="M 889.211, 315.224 L 911.727, 314.542 L 911.898, 317.783 L 889.382, 318.465 L 889.211, 315.224 z "/>
<path style="fill:rgb(0, 255, 0);fill-opacity:0;fill-rule:evenodd;stroke:rgb(0, 223, 255);stroke-width:1;" d="M 881.194, 176.375 L 903.539, 175.522 L 903.71, 178.763 L 881.365, 179.446 L 881.194, 176.375 z "/>
<path style="fill:rgb(0, 0, 255);fill-opacity:0;fill-rule:evenodd;stroke:rgb(0, 223, 255);stroke-width:1;" d="M 889.382, 318.465 L 911.898, 317.783 L 912.239, 320.853 L 889.552, 321.706 L 889.382, 318.465 z "/>
<path style="fill:rgb(255, 255, 0);fill-opacity:0;fill-rule:evenodd;stroke:rgb(0, 223, 255);stroke-width:1;" d="M 987.292, 139.36 L 1008.78, 135.437 L 1009.81, 138.507 L 988.316, 142.431 L 987.292, 139.36 z "/>
<path style="fill:rgb(255, 0, 0);fill-opacity:0;fill-rule:evenodd;stroke:rgb(0, 223, 255);stroke-width:1;" d="M 723.582, 271.557 L 746.098, 270.704 L 746.269, 273.945 L 723.753, 274.627 L 723.582, 271.557 z "/>
<path style="fill:rgb(0, 255, 0);fill-opacity:0;fill-rule:evenodd;stroke:rgb(0, 223, 255);stroke-width:1;" d="M 781.237, 80 L 802.729, 76.0768 L 803.753, 79.1471 L 782.26, 83.0704 L 781.237, 80 z "/>
<path style="fill:rgb(0, 0, 255);fill-opacity:0;fill-rule:evenodd;stroke:rgb(0, 223, 255);stroke-width:1;" d="M 988.316, 142.431 L 1009.81, 138.507 L 1010.83, 141.748 L 989.339, 145.672 L 988.316, 142.431 z "/>
<path style="fill:rgb(255, 255, 0);fill-opacity:0;fill-rule:evenodd;stroke:rgb(0, 223, 255);stroke-width:1;" d="M 780.213, 76.9296 L 801.706, 73.0064 L 802.729, 76.0768 L 781.237, 80 L 780.213, 76.9296 z "/>
<path style="fill:rgb(255, 0, 0);fill-opacity:0;fill-rule:evenodd;stroke:rgb(0, 223, 255);stroke-width:1;" d="M 540.725, 688.955 L 541.066, 681.962 L 550.789, 682.132 L 550.618, 689.126 L 540.725, 688.955 z "/>
<path style="fill:rgb(0, 255, 0);fill-opacity:0;fill-rule:evenodd;stroke:rgb(0, 223, 255);stroke-width:1;" d="M 591.727, 283.326 L 599.915, 282.814 L 600.597, 289.638 L 592.409, 290.149 L 591.727, 283.326 z "/>
<path style="fill:rgb(0, 0, 255);fill-opacity:0;fill-rule:evenodd;stroke:rgb(0, 223, 255);stroke-width:1;" d="M 499.616, 200.085 L 507.804, 199.574 L 508.657, 206.226 L 500.469, 206.908 L 499.616, 200.085 z "/>
<path style="fill:rgb(255, 255, 0);fill-opacity:0;fill-rule:evenodd;stroke:rgb(0, 223, 255);stroke-width:1;" d="M 445.544, 295.096 L 453.731, 294.584 L 454.584, 301.237 L 446.397, 301.919 L 445.544, 295.096 z "/>
<path style="fill:rgb(255, 0, 0);fill-opacity:0;fill-rule:evenodd;stroke:rgb(0, 223, 255);stroke-width:1;" d="M 445.373, 396.418 L 450.32, 391.471 L 457.484, 395.565 L 452.537, 400.512 L 445.373, 396.418 z "/>
<path style="fill:rgb(0, 255, 0);fill-opacity:0;fill-rule:evenodd;stroke:rgb(0, 223, 255);stroke-width:1;" d="M 582.857, 194.456 L 591.045, 193.945 L 591.727, 200.768 L 583.539, 201.279 L 582.857, 194.456 z "/>
<path style="fill:rgb(0, 0, 255);fill-opacity:0;fill-rule:evenodd;stroke:rgb(0, 223, 255);stroke-width:1;" d="M 294.243, 340.469 L 302.431, 339.787 L 303.284, 346.61 L 295.096, 347.292 L 294.243, 340.469 z "/>
<path style="fill:rgb(255, 255, 0);fill-opacity:0;fill-rule:evenodd;stroke:rgb(0, 223, 255);stroke-width:1;" d="M 289.979, 310.107 L 298.166, 309.595 L 298.849, 316.418 L 290.661, 316.93 L 289.979, 310.107 z "/>
<path style="fill:rgb(255, 0, 0);fill-opacity:0;fill-rule:evenodd;stroke:rgb(0, 223, 255);stroke-width:1;" d="M 595.991, 313.689 L 604.179, 313.177 L 604.861, 320 L 596.674, 320.512 L 595.991, 313.689 z "/>
<path style="fill:rgb(0, 255, 0);fill-opacity:0;fill-rule:evenodd;stroke:rgb(0, 223, 255);stroke-width:1;" d="M 495.352, 169.723 L 503.539, 169.211 L 504.222, 176.034 L 496.205, 176.546 L 495.352, 169.723 z "/>
<path style="fill:rgb(0, 0, 255);fill-opacity:0;fill-rule:evenodd;stroke:rgb(0, 223, 255);stroke-width:1;" d="M 449.808, 441.109 L 454.755, 435.991 L 461.919, 440.085 L 457.143, 445.032 L 449.808, 441.109 z "/>
<path style="fill:rgb(255, 255, 0);fill-opacity:0;fill-rule:evenodd;stroke:rgb(0, 223, 255);stroke-width:1;" d="M 513.774, 319.488 L 521.962, 318.977 L 522.644, 325.8 L 514.456, 326.311 L 513.774, 319.488 z "/>
<path style="fill:rgb(255, 0, 0);fill-opacity:0;fill-rule:evenodd;stroke:rgb(0, 223, 255);stroke-width:1;" d="M 308.571, 451.343 L 316.759, 450.832 L 317.612, 457.655 L 309.424, 458.166 L 308.571, 451.343 z "/>
<path style="fill:rgb(0, 255, 0);fill-opacity:0;fill-rule:evenodd;stroke:rgb(0, 223, 255);stroke-width:1;" d="M 509.339, 289.126 L 517.527, 288.614 L 518.38, 295.437 L 510.192, 295.949 L 509.339, 289.126 z "/>
<path style="fill:rgb(0, 0, 255);fill-opacity:0;fill-rule:evenodd;stroke:rgb(0, 223, 255);stroke-width:1;" d="M 304.307, 421.151 L 312.495, 420.469 L 313.177, 427.292 L 304.989, 427.804 L 304.307, 421.151 z "/>
<path style="fill:rgb(255, 255, 0);fill-opacity:0;fill-rule:evenodd;stroke:rgb(0, 223, 255);stroke-width:1;" d="M 578.593, 164.094 L 586.61, 163.582 L 587.463, 170.405 L 579.275, 170.917 L 578.593, 164.094 z "/>
<path style="fill:rgb(255, 0, 0);fill-opacity:0;fill-rule:evenodd;stroke:rgb(0, 223, 255);stroke-width:1;" d="M 449.979, 325.458 L 458.166, 324.776 L 458.849, 331.599 L 450.661, 332.111 L 449.979, 325.458 z "/>
<path style="fill:rgb(0, 255, 0);fill-opacity:0;fill-rule:evenodd;stroke:rgb(0, 223, 255);stroke-width:1;" d="M 420.469, 185.757 L 426.269, 181.493 L 432.409, 186.269 L 426.61, 190.533 L 420.469, 185.757 z "/>
<path style="fill:rgb(0, 0, 255);fill-opacity:0;fill-rule:evenodd;stroke:rgb(0, 223, 255);stroke-width:1;" d="M 425.075, 229.765 L 430.874, 225.501 L 437.015, 230.277 L 431.215, 234.542 L 425.075, 229.765 z "/>
<path style="fill:rgb(255, 255, 0);fill-opacity:0;fill-rule:evenodd;stroke:rgb(0, 223, 255);stroke-width:1;" d="M 379.531, 399.829 L 385.501, 395.736 L 391.471, 400.512 L 385.672, 404.776 L 379.531, 399.829 z "/>
<path style="fill:rgb(255, 0, 0);fill-opacity:0;fill-rule:evenodd;stroke:rgb(0, 223, 255);stroke-width:1;" d="M 375.778, 355.821 L 381.578, 351.557 L 387.719, 356.503 L 381.748, 360.597 L 375.778, 355.821 z "/>
<path style="fill:rgb(0, 255, 0);fill-opacity:0;fill-rule:evenodd;stroke:rgb(0, 223, 255);stroke-width:1;" d="M 385.33, 445.032 L 391.13, 440.768 L 397.271, 445.714 L 391.301, 449.808 L 385.33, 445.032 z "/>
<path style="fill:rgb(0, 0, 255);fill-opacity:0;fill-rule:evenodd;stroke:rgb(0, 223, 255);stroke-width:1;" d="M 367.42, 284.179 L 371.684, 279.062 L 378.849, 282.644 L 374.755, 287.591 L 367.42, 284.179 z "/>
<path style="fill:rgb(255, 255, 0);fill-opacity:0;fill-rule:evenodd;stroke:rgb(0, 223, 255);stroke-width:1;" d="M 360.426, 240 L 364.52, 235.053 L 371.855, 238.465 L 367.591, 243.582 L 360.426, 240 z "/>
<path style="fill:rgb(255, 0, 0);fill-opacity:0;fill-rule:evenodd;stroke:rgb(0, 223, 255);stroke-width:1;" d="M 355.309, 194.968 L 359.403, 190.021 L 366.738, 193.433 L 362.473, 198.55 L 355.309, 194.968 z "/>
<path style="fill:rgb(0, 255, 0);fill-opacity:0;fill-rule:evenodd;stroke:rgb(0, 223, 255);stroke-width:1;" d="M 270.021, 193.092 L 285.203, 191.898 L 283.156, 176.034 L 303.795, 174.499 L 307.548, 204.52 L 289.296, 205.885 L 292.196, 229.083 L 310.277, 227.719 L 314.03, 257.74 L 293.902, 259.275 L 291.855, 243.241 L 276.333, 244.435 L 270.021, 193.092 z "/>
<path style="fill:rgb(0, 0, 255);fill-opacity:0;fill-rule:evenodd;stroke:rgb(0, 223, 255);stroke-width:1;" d="M 280.768, 229.936 L 288.955, 229.424 L 289.638, 236.077 L 281.45, 236.759 L 280.768, 229.936 z "/>
<path style="fill:rgb(255, 255, 0);fill-opacity:0;fill-rule:evenodd;stroke:rgb(0, 223, 255);stroke-width:1;" d="M 475.906, 51.1727 L 480.682, 42.8145 L 643.07, 94.6695 L 642.047, 98.7633 L 526.226, 111.557 L 487.846, 115.821 L 487.505, 114.797 L 483.412, 115.309 L 475.906, 51.1727 z "/>
<path style="fill:rgb(255, 0, 0);fill-opacity:0;fill-rule:evenodd;stroke:rgb(0, 223, 255);stroke-width:1;" d="M 0, 725.8 L 383.625, 689.296 L 382.26, 682.132 L 409.723, 679.574 L 412.964, 698.337 L 392.495, 700.213 L 396.588, 725.288 L 389.765, 725.97 L 395.906, 763.497 L 12.2814, 800 L 0, 725.8 z "/>
<path style="fill:rgb(0, 255, 0);fill-opacity:0;fill-rule:evenodd;stroke:rgb(0, 223, 255);stroke-width:1;" d="M 0, 725.8 L 383.625, 689.296 L 389.765, 725.97 L 395.906, 763.497 L 12.2814, 800 L 0, 725.8 z "/>
<path style="fill:rgb(0, 0, 255);fill-opacity:0;fill-rule:evenodd;stroke:rgb(0, 223, 255);stroke-width:1;" d="M 0, 725.8 L 383.625, 689.296 L 389.765, 725.97 L 395.906, 763.497 L 12.2814, 800 L 0, 725.8 z "/>
<path style="fill:rgb(255, 255, 0);fill-opacity:0;fill-rule:evenodd;stroke:rgb(0, 223, 255);stroke-width:1;" d="M 926.226, 22.3454 L 930.32, 21.6631 L 934.414, 20.9808 L 948.571, 18.4222 L 947.377, 14.4989 L 948.742, 14.3284 L 946.525, 7.16418 L 945.501, 4.09382 L 967.505, 0 L 968.529, 3.07036 L 970.917, 10.2345 L 972.623, 9.89339 L 973.987, 14.1578 L 993.774, 10.4051 L 997.868, 9.72281 L 1001.96, 9.04051 L 1008.61, 30.3625 L 1004.52, 31.0448 L 1000.43, 31.7271 L 987.122, 34.2857 L 994.797, 57.9957 L 1004.52, 56.29 L 1008.44, 55.4371 L 1009.98, 60.3838 L 1014.07, 73.177 L 1015.61, 77.9531 L 1011.51, 78.6354 L 1001.62, 80.5117 L 1009.13, 104.222 L 1021.75, 102.004 L 1025.84, 101.151 L 1029.94, 100.469 L 1036.76, 121.791 L 1032.67, 122.644 L 1028.57, 123.326 L 1008.27, 127.079 L 1009.3, 130.49 L 1007.42, 130.832 L 1008.78, 135.437 L 1009.81, 138.507 L 1010.83, 141.748 L 989.339, 145.672 L 988.316, 142.431 L 987.292, 139.36 L 985.928, 134.755 L 984.222, 135.096 L 983.028, 131.514 L 969.211, 133.902 L 965.117, 134.755 L 961.023, 135.437 L 954.2, 114.115 L 958.294, 113.262 L 962.388, 112.58 L 981.493, 108.998 L 973.987, 85.4584 L 952.836, 89.2111 L 948.913, 90.064 L 947.377, 85.1173 L 943.113, 72.1535 L 941.578, 67.2068 L 945.501, 66.5245 L 966.823, 62.6013 L 959.318, 39.0618 L 941.237, 42.3028 L 937.143, 42.9851 L 933.049, 43.838 L 926.226, 22.3454 z "/>
<path style="fill:rgb(255, 0, 0);fill-opacity:0;fill-rule:evenodd;stroke:rgb(0, 223, 255);stroke-width:1;" d="M 934.414, 20.9808 L 948.571, 18.4222 L 947.377, 14.4989 L 948.742, 14.3284 L 946.525, 7.16418 L 968.529, 3.07036 L 970.917, 10.2345 L 972.623, 9.89339 L 973.987, 14.1578 L 993.774, 10.4051 L 1000.43, 31.7271 L 987.122, 34.2857 L 979.957, 35.4797 L 981.151, 39.0618 L 978.422, 39.5736 L 983.71, 56.1194 L 986.269, 55.6077 L 987.463, 59.3603 L 994.797, 57.9957 L 1004.52, 56.29 L 1006.06, 61.0661 L 1009.98, 60.3838 L 1014.07, 73.177 L 1009.98, 73.8593 L 1011.51, 78.6354 L 1001.62, 80.5117 L 994.456, 81.8763 L 995.48, 85.4584 L 992.921, 85.7996 L 998.209, 102.345 L 1000.77, 102.004 L 1001.96, 105.586 L 1009.13, 104.222 L 1021.75, 102.004 L 1028.57, 123.326 L 1008.27, 127.079 L 1009.3, 130.49 L 1007.42, 130.832 L 1008.78, 135.437 L 987.292, 139.36 L 985.928, 134.755 L 984.222, 135.096 L 983.028, 131.514 L 969.211, 133.902 L 962.388, 112.58 L 981.493, 108.998 L 973.987, 85.4584 L 952.836, 89.2111 L 951.301, 84.435 L 947.377, 85.1173 L 943.113, 72.1535 L 947.207, 71.3006 L 945.501, 66.5245 L 966.823, 62.6013 L 959.318, 39.0618 L 941.237, 42.3028 L 934.414, 20.9808 z "/>
<path style="fill:rgb(0, 255, 0);fill-opacity:0;fill-rule:evenodd;stroke:rgb(0, 223, 255);stroke-width:1;" d="M 978.422, 39.5736 L 981.151, 39.0618 L 979.957, 35.4797 L 987.122, 34.2857 L 994.797, 57.9957 L 987.463, 59.3603 L 986.269, 55.6077 L 983.71, 56.1194 L 978.422, 39.5736 z "/>
<path style="fill:rgb(0, 0, 255);fill-opacity:0;fill-rule:evenodd;stroke:rgb(0, 223, 255);stroke-width:1;" d="M 970.405, 68.0597 L 985.416, 64.9893 L 989.168, 76.2473 L 974.158, 79.1471 L 970.405, 68.0597 z "/>
<path style="fill:rgb(255, 255, 0);fill-opacity:0;fill-rule:evenodd;stroke:rgb(0, 223, 255);stroke-width:1;" d="M 955.394, 22.3454 L 970.405, 19.2751 L 974.158, 30.533 L 959.147, 33.4328 L 955.394, 22.3454 z "/>
</svg>