<?xml version="1.0" encoding="iso-8859-1" standalone="no"?>
<!DOCTYPE svg PUBLIC "-//W3C//DTD SVG 1.0//EN" "http://www.w3.org/TR/2001/REC-SVG-20010904/DTD/svg10.dtd">
<svg xmlns="http://www.w3.org/2000/svg" width="644" height="800">
<path style="fill:rgb(255, 0, 0);fill-opacity:0;fill-rule:evenodd;stroke:rgb(255, 120, 0);stroke-width:1;" d="M 233.763, 451.452 L 248.264, 431.71 L 243.022, 429.613 L 249.137, 421.227 L 242.498, 418.432 L 307.84, 329.33 L 316.052, 332.824 L 324.438, 321.293 L 406.901, 356.06 L 413.016, 347.499 L 630.88, 439.397 L 644.508, 606.595 L 552.61, 567.81 L 542.477, 581.612 L 233.763, 451.452 z "/>
<path style="fill:rgb(0, 255, 0);fill-opacity:0;fill-rule:evenodd;stroke:rgb(255, 120, 0);stroke-width:1;" d="M 433.108, 699.716 L 503.865, 603.101 L 513.649, 607.294 L 519.065, 599.782 L 564.315, 618.825 L 558.899, 626.338 L 568.508, 630.356 L 497.925, 727.146 L 488.316, 722.953 L 483.075, 730.29 L 437.825, 711.247 L 443.066, 703.909 L 433.108, 699.716 z "/>
<path style="fill:rgb(0, 0, 255);fill-opacity:0;fill-rule:evenodd;stroke:rgb(255, 120, 0);stroke-width:1;" d="M 219.262, 514.523 L 236.908, 490.413 L 373.357, 547.893 L 355.711, 572.003 L 219.262, 514.523 z "/>
<path style="fill:rgb(255, 255, 0);fill-opacity:0;fill-rule:evenodd;stroke:rgb(255, 120, 0);stroke-width:1;" d="M 98.3621, 623.542 L 173.837, 519.939 L 205.46, 533.217 L 129.81, 636.82 L 98.3621, 623.542 z "/>
<path style="fill:rgb(255, 0, 0);fill-opacity:0;fill-rule:evenodd;stroke:rgb(255, 120, 0);stroke-width:1;" d="M 380.869, 742.695 L 398.166, 718.934 L 491.112, 757.895 L 534.615, 776.239 L 517.318, 800 L 380.869, 742.695 z "/>
<path style="fill:rgb(0, 255, 0);fill-opacity:0;fill-rule:evenodd;stroke:rgb(255, 120, 0);stroke-width:1;" d="M 378.773, 687.486 L 454.248, 583.883 L 485.346, 596.986 L 409.696, 700.59 L 378.773, 687.486 z "/>
<path style="fill:rgb(0, 0, 255);fill-opacity:0;fill-rule:evenodd;stroke:rgb(255, 120, 0);stroke-width:1;" d="M 94.5185, 359.729 L 102.206, 349.072 L 99.2356, 347.849 L 106.748, 337.366 L 109.718, 338.589 L 117.406, 328.107 L 139.594, 337.541 L 131.907, 348.024 L 122.647, 344.18 L 115.134, 354.488 L 142.913, 366.193 L 157.065, 346.801 L 156.017, 346.276 L 172.789, 323.389 L 173.837, 323.914 L 188.338, 304.171 L 160.559, 292.466 L 152.872, 302.948 L 162.131, 306.792 L 154.444, 317.275 L 132.081, 308.015 L 139.769, 297.532 L 136.973, 296.309 L 144.66, 285.652 L 147.63, 287.05 L 155.318, 276.392 L 210.701, 299.803 L 149.902, 383.14 L 94.5185, 359.729 z "/>
<path style="fill:rgb(255, 255, 0);fill-opacity:0;fill-rule:evenodd;stroke:rgb(255, 120, 0);stroke-width:1;" d="M 240.052, 122.297 L 248.264, 111.291 L 279.886, 124.569 L 271.85, 135.401 L 285.827, 141.341 L 286.351, 140.642 L 290.544, 139.594 L 291.243, 139.769 L 314.829, 107.622 L 298.58, 100.808 L 306.617, 89.976 L 319.196, 95.392 L 319.895, 94.5185 L 324.088, 93.6449 L 324.787, 93.9943 L 334.221, 80.891 L 333.523, 80.5416 L 332.474, 77.3968 L 332.824, 76.8727 L 320.245, 71.4566 L 328.631, 60.2752 L 359.38, 73.2038 L 323.564, 122.123 L 337.192, 127.888 L 336.493, 128.936 L 329.155, 138.895 L 315.527, 133.13 L 303.822, 148.853 L 317.624, 154.794 L 309.587, 165.626 L 243.896, 137.847 L 251.758, 127.189 L 240.052, 122.297 z "/>
<path style="fill:rgb(255, 0, 0);fill-opacity:0;fill-rule:evenodd;stroke:rgb(255, 120, 0);stroke-width:1;" d="M 431.011, 216.991 L 439.223, 205.809 L 482.201, 224.154 L 490.063, 213.147 L 526.403, 228.522 L 534.265, 217.864 L 548.766, 224.154 L 540.904, 234.636 L 577.069, 250.011 L 569.207, 261.018 L 581.088, 266.084 L 572.876, 277.091 L 541.778, 263.813 L 549.814, 252.981 L 502.468, 232.889 L 494.431, 243.896 L 431.011, 216.991 z "/>
<path style="fill:rgb(0, 255, 0);fill-opacity:0;fill-rule:evenodd;stroke:rgb(255, 120, 0);stroke-width:1;" d="M 392.4, 200.568 L 400.262, 189.91 L 414.239, 195.851 L 426.119, 179.603 L 412.492, 173.837 L 420.354, 162.83 L 434.156, 168.596 L 467.526, 123.171 L 487.967, 131.907 L 479.93, 142.739 L 473.466, 139.943 L 463.682, 153.396 L 465.08, 153.047 L 466.128, 157.065 L 479.057, 162.656 L 475.562, 167.373 L 478.882, 168.77 L 477.309, 171.042 L 473.815, 169.644 L 471.02, 173.662 L 454.073, 166.499 L 429.788, 199.52 L 431.885, 199.17 L 432.584, 203.014 L 439.223, 205.809 L 431.011, 216.991 L 392.4, 200.568 z "/>
<path style="fill:rgb(0, 0, 255);fill-opacity:0;fill-rule:evenodd;stroke:rgb(255, 120, 0);stroke-width:1;" d="M 479.93, 142.739 L 487.967, 131.907 L 526.228, 148.155 L 526.927, 146.932 L 531.819, 146.058 L 545.796, 127.189 L 544.398, 122.996 L 544.922, 122.123 L 507.185, 106.224 L 515.222, 95.392 L 570.605, 118.978 L 557.152, 137.148 L 570.78, 143.088 L 562.743, 153.745 L 549.116, 147.98 L 535.663, 166.325 L 479.93, 142.739 z "/>
<path style="fill:rgb(255, 255, 0);fill-opacity:0;fill-rule:evenodd;stroke:rgb(255, 120, 0);stroke-width:1;" d="M 578.467, 679.1 L 602.577, 645.381 L 612.71, 655.34 L 617.078, 660.406 L 621.62, 666.696 L 624.416, 673.509 L 627.036, 678.926 L 627.211, 681.896 L 628.784, 689.059 L 628.434, 696.397 L 628.434, 699.541 L 578.467, 679.1 z "/>
<path style="fill:rgb(255, 0, 0);fill-opacity:0;fill-rule:evenodd;stroke:rgb(255, 120, 0);stroke-width:1;" d="M 546.32, 583.359 L 555.056, 571.304 L 575.672, 580.039 L 575.846, 579.69 L 581.437, 581.961 L 581.088, 582.485 L 612.535, 595.763 L 608.867, 600.83 L 597.51, 595.938 L 592.618, 602.752 L 546.32, 583.359 z "/>
<path style="fill:rgb(0, 255, 0);fill-opacity:0;fill-rule:evenodd;stroke:rgb(255, 120, 0);stroke-width:1;" d="M 72.3302, 397.292 L 79.668, 387.333 L 130.858, 408.998 L 123.52, 418.956 L 113.562, 414.763 L 112.688, 412.667 L 101.507, 407.775 L 99.5851, 406.377 L 93.2955, 403.756 L 91.199, 403.582 L 83.8611, 400.437 L 81.4152, 401.136 L 72.3302, 397.292 z "/>
<path style="fill:rgb(0, 0, 255);fill-opacity:0;fill-rule:evenodd;stroke:rgb(255, 120, 0);stroke-width:1;" d="M 62.0223, 419.48 L 68.4866, 410.919 L 82.6381, 416.86 L 84.0358, 417.908 L 89.8013, 420.354 L 92.5966, 419.655 L 96.615, 421.227 L 97.3138, 423.673 L 102.73, 426.119 L 106.049, 425.246 L 116.008, 429.439 L 107.971, 440.271 L 98.0127, 436.078 L 97.3138, 433.457 L 91.8978, 431.186 L 88.753, 432.059 L 84.7347, 430.487 L 83.8611, 427.866 L 80.0175, 426.294 L 79.4933, 426.818 L 62.0223, 419.48 z "/>
<path style="fill:rgb(255, 255, 0);fill-opacity:0;fill-rule:evenodd;stroke:rgb(255, 120, 0);stroke-width:1;" d="M 70.059, 408.648 L 75.9991, 400.611 L 97.6632, 409.696 L 100.284, 409.172 L 104.302, 410.919 L 105.176, 413.016 L 110.592, 415.287 L 113.562, 414.763 L 123.52, 418.956 L 116.008, 429.439 L 106.049, 425.246 L 105.176, 422.8 L 99.7598, 420.354 L 96.615, 421.227 L 92.5966, 419.655 L 91.7231, 417.733 L 70.059, 408.648 z "/>
<path style="fill:rgb(255, 0, 0);fill-opacity:0;fill-rule:evenodd;stroke:rgb(255, 120, 0);stroke-width:1;" d="M 54.8591, 429.439 L 60.6246, 421.577 L 81.7646, 430.662 L 84.7347, 430.487 L 88.753, 432.059 L 89.4518, 434.505 L 94.8679, 436.777 L 98.0127, 436.078 L 107.971, 440.271 L 100.459, 450.404 L 90.5001, 446.211 L 89.6266, 444.114 L 84.0358, 441.843 L 81.2404, 442.367 L 77.2221, 440.62 L 76.1738, 438.349 L 54.8591, 429.439 z "/>
<path style="fill:rgb(0, 255, 0);fill-opacity:0;fill-rule:evenodd;stroke:rgb(255, 120, 0);stroke-width:1;" d="M 216.466, 444.114 L 230.793, 424.372 L 243.022, 429.613 L 248.264, 431.71 L 233.763, 451.452 L 216.466, 444.114 z "/>
<path style="fill:rgb(0, 0, 255);fill-opacity:0;fill-rule:evenodd;stroke:rgb(255, 120, 0);stroke-width:1;" d="M 327.932, 723.651 L 335.444, 713.344 L 364.446, 725.399 L 357.109, 735.706 L 349.247, 732.562 L 327.932, 723.651 z "/>
<path style="fill:rgb(255, 255, 0);fill-opacity:0;fill-rule:evenodd;stroke:rgb(255, 120, 0);stroke-width:1;" d="M 532.169, 686.788 L 535.663, 682.07 L 568.858, 695.523 L 565.364, 700.415 L 532.169, 686.788 z "/>
<path style="fill:rgb(255, 0, 0);fill-opacity:0;fill-rule:evenodd;stroke:rgb(255, 120, 0);stroke-width:1;" d="M 595.064, 331.95 L 602.577, 321.468 L 616.903, 327.408 L 612.535, 333.348 L 609.391, 337.89 L 595.064, 331.95 z "/>
<path style="fill:rgb(0, 255, 0);fill-opacity:0;fill-rule:evenodd;stroke:rgb(255, 120, 0);stroke-width:1;" d="M 609.915, 641.537 L 614.981, 638.218 L 633.85, 654.466 L 628.784, 657.786 L 609.915, 641.537 z "/>
<path style="fill:rgb(0, 0, 255);fill-opacity:0;fill-rule:evenodd;stroke:rgb(255, 120, 0);stroke-width:1;" d="M 341.21, 743.568 L 349.247, 732.562 L 357.109, 735.706 L 359.38, 736.755 L 351.343, 747.762 L 341.21, 743.568 z "/>
<path style="fill:rgb(255, 255, 0);fill-opacity:0;fill-rule:evenodd;stroke:rgb(255, 120, 0);stroke-width:1;" d="M 584.232, 616.03 L 587.901, 611.313 L 605.372, 619.699 L 601.703, 623.892 L 584.232, 616.03 z "/>
<path style="fill:rgb(255, 0, 0);fill-opacity:0;fill-rule:evenodd;stroke:rgb(255, 120, 0);stroke-width:1;" d="M 617.078, 607.993 L 624.066, 603.8 L 633.85, 612.885 L 626.862, 617.253 L 617.078, 607.993 z "/>
<path style="fill:rgb(0, 255, 0);fill-opacity:0;fill-rule:evenodd;stroke:rgb(255, 120, 0);stroke-width:1;" d="M 0, 252.107 L 7.51256, 241.8 L 4.19306, 240.577 L 11.8803, 229.919 L 15.1998, 231.317 L 22.8871, 220.485 L 137.847, 269.054 L 129.985, 279.886 L 133.13, 281.109 L 125.442, 291.592 L 122.297, 290.194 L 114.785, 300.677 L 93.1208, 291.592 L 100.808, 281.109 L 109.544, 284.778 L 117.056, 274.296 L 109.893, 271.326 L 109.019, 270.976 L 108.67, 271.326 L 88.2289, 262.765 L 88.5783, 262.241 L 78.7945, 258.222 L 71.4566, 268.181 L 81.4152, 272.374 L 71.1072, 286.525 L 60.1005, 281.983 L 62.0223, 279.188 L 51.7143, 274.82 L 49.6178, 277.615 L 38.6111, 272.898 L 48.919, 258.572 L 59.0522, 262.94 L 66.39, 252.981 L 56.4315, 248.788 L 56.0821, 249.137 L 36.1651, 240.751 L 36.5145, 240.227 L 27.9537, 236.733 L 20.6159, 246.691 L 29.3514, 250.36 L 21.3147, 261.192 L 0, 252.107 z "/>
<path style="fill:rgb(0, 0, 255);fill-opacity:0;fill-rule:evenodd;stroke:rgb(255, 120, 0);stroke-width:1;" d="M 43.5029, 678.751 L 55.558, 662.328 L 105.001, 683.119 L 95.2173, 696.571 L 62.5464, 682.769 L 60.2752, 685.914 L 43.5029, 678.751 z "/>
<path style="fill:rgb(255, 255, 0);fill-opacity:0;fill-rule:evenodd;stroke:rgb(255, 120, 0);stroke-width:1;" d="M 31.6226, 695.174 L 43.5029, 678.751 L 60.2752, 685.914 L 64.4682, 687.661 L 62.5464, 690.107 L 89.2771, 701.463 L 81.2404, 712.645 L 54.335, 701.288 L 52.4132, 703.909 L 31.6226, 695.174 z "/>
<path style="fill:rgb(255, 0, 0);fill-opacity:0;fill-rule:evenodd;stroke:rgb(255, 120, 0);stroke-width:1;" d="M 42.4547, 444.464 L 51.0155, 432.933 L 84.5599, 447.259 L 84.0358, 447.958 L 88.0542, 449.705 L 90.5001, 446.211 L 100.459, 450.404 L 87.8794, 467.875 L 76.8727, 463.158 L 79.4933, 459.664 L 75.475, 457.917 L 75.3003, 458.266 L 42.4547, 444.464 z "/>
<path style="fill:rgb(0, 255, 0);fill-opacity:0;fill-rule:evenodd;stroke:rgb(255, 120, 0);stroke-width:1;" d="M 38.4363, 416.685 L 50.3167, 400.437 L 49.4431, 398.34 L 51.7143, 395.195 L 54.6844, 394.671 L 57.8292, 390.129 L 56.9557, 388.032 L 62.7211, 380.17 L 76.5233, 385.936 L 70.7578, 393.972 L 68.3119, 394.671 L 64.9924, 399.039 L 65.6912, 401.136 L 63.42, 404.28 L 60.7993, 404.805 L 48.919, 421.053 L 38.4363, 416.685 z "/>
<path style="fill:rgb(0, 0, 255);fill-opacity:0;fill-rule:evenodd;stroke:rgb(255, 120, 0);stroke-width:1;" d="M 154.968, 100.284 L 163.005, 89.4518 L 176.458, 95.2173 L 188.163, 79.3186 L 174.536, 73.7279 L 182.573, 62.7211 L 196.2, 68.3119 L 215.942, 41.2317 L 189.736, 30.2249 L 187.639, 33.195 L 173.313, 27.0801 L 175.584, 24.1101 L 162.131, 18.5193 L 175.759, 0 L 254.728, 33.5444 L 246.866, 44.2018 L 236.034, 39.6593 L 226.6, 52.5879 L 227.648, 53.112 L 228.871, 56.4315 L 228.522, 57.1304 L 241.101, 62.3717 L 232.889, 73.5532 L 216.292, 66.39 L 192.881, 98.3621 L 193.929, 98.8862 L 195.152, 102.38 L 194.802, 102.905 L 208.779, 108.67 L 216.641, 97.838 L 248.264, 111.291 L 240.052, 122.297 L 228.696, 117.406 L 220.834, 128.063 L 154.968, 100.284 z "/>
<path style="fill:rgb(255, 255, 0);fill-opacity:0;fill-rule:evenodd;stroke:rgb(255, 120, 0);stroke-width:1;" d="M 486.569, 97.4885 L 519.24, 52.7626 L 504.739, 46.6477 L 512.95, 35.641 L 523.258, 40.0087 L 527.626, 38.6111 L 529.024, 39.1352 L 537.235, 27.779 L 534.789, 24.6342 L 535.663, 23.4112 L 525.18, 19.0435 L 533.042, 8.03669 L 561.52, 20.0917 L 508.233, 92.4219 L 515.222, 95.392 L 507.185, 106.224 L 486.569, 97.4885 z "/>
</svg>