<?xml version="1.0" encoding="iso-8859-1" standalone="no"?>
<!DOCTYPE svg PUBLIC "-//W3C//DTD SVG 1.0//EN" "http://www.w3.org/TR/2001/REC-SVG-20010904/DTD/svg10.dtd">
<svg xmlns="http://www.w3.org/2000/svg" width="1056" height="800">
<path style="fill:rgb(255, 0, 0);fill-opacity:0;fill-rule:evenodd;stroke:rgb(255, 25, 0);stroke-width:1;" d="M 296.535, 710.932 L 346.792, 642.79 L 488.084, 702.884 L 487.548, 703.599 L 493.45, 706.103 L 468.768, 739.37 L 444.266, 772.636 L 439.079, 770.49 L 438.364, 771.384 L 296.535, 710.932 z "/>
<path style="fill:rgb(0, 255, 0);fill-opacity:0;fill-rule:evenodd;stroke:rgb(255, 25, 0);stroke-width:1;" d="M 799.285, 211.223 L 800, 210.507 L 805.366, 203.175 L 826.828, 173.485 L 833.266, 164.543 L 854.907, 134.496 L 860.452, 126.805 L 889.783, 139.146 L 975.989, 175.274 L 914.643, 259.513 L 828.795, 223.564 L 799.285, 211.223 z "/>
<path style="fill:rgb(0, 0, 255);fill-opacity:0;fill-rule:evenodd;stroke:rgb(255, 25, 0);stroke-width:1;" d="M 243.953, 266.667 L 306.014, 180.818 L 419.942, 228.571 L 410.82, 241.449 L 395.797, 262.195 L 387.212, 273.821 L 385.245, 276.682 L 372.546, 271.317 L 382.025, 258.261 L 351.621, 245.562 L 339.459, 262.195 L 361.636, 271.496 L 337.492, 304.941 L 336.955, 305.656 L 243.953, 266.667 z "/>
<path style="fill:rgb(255, 255, 0);fill-opacity:0;fill-rule:evenodd;stroke:rgb(255, 25, 0);stroke-width:1;" d="M 105.88, 641.359 L 113.57, 630.986 L 138.967, 596.647 L 140.934, 597.541 L 149.877, 585.558 L 137.357, 580.371 L 146.479, 567.852 L 166.331, 576.436 L 179.209, 559.267 L 207.288, 571.25 L 206.93, 571.786 L 249.139, 589.85 L 233.043, 611.67 L 217.483, 632.596 L 212.296, 639.75 L 184.753, 627.945 L 176.526, 638.855 L 184.753, 642.432 L 174.737, 655.846 L 166.331, 652.269 L 157.925, 663.716 L 105.88, 641.359 z "/>
<path style="fill:rgb(255, 0, 0);fill-opacity:0;fill-rule:evenodd;stroke:rgb(255, 25, 0);stroke-width:1;" d="M 718.623, 754.572 L 746.881, 715.94 L 749.206, 712.9 L 765.661, 719.875 L 777.644, 703.421 L 796.602, 677.487 L 824.324, 689.291 L 855.265, 702.347 L 853.476, 704.851 L 835.234, 729.712 L 793.561, 786.407 L 718.623, 754.572 z "/>
<path style="fill:rgb(0, 255, 0);fill-opacity:0;fill-rule:evenodd;stroke:rgb(255, 25, 0);stroke-width:1;" d="M 831.478, 202.101 L 868.142, 151.487 L 877.8, 155.421 L 884.06, 146.837 L 958.82, 177.957 L 909.278, 246.457 L 834.697, 215.515 L 841.315, 206.215 L 831.478, 202.101 z "/>
<path style="fill:rgb(0, 0, 255);fill-opacity:0;fill-rule:evenodd;stroke:rgb(255, 25, 0);stroke-width:1;" d="M 949.162, 129.488 L 979.387, 88.3523 L 991.013, 72.6135 L 1011.22, 45.2493 L 1056.83, 64.5652 L 1040.73, 86.385 L 1033.76, 95.8641 L 1017.66, 117.684 L 1010.87, 127.163 L 994.769, 148.804 L 949.162, 129.488 z "/>
<path style="fill:rgb(255, 255, 0);fill-opacity:0;fill-rule:evenodd;stroke:rgb(255, 25, 0);stroke-width:1;" d="M 114.465, 445.696 L 145.585, 403.666 L 236.083, 442.477 L 231.97, 448.021 L 229.466, 451.42 L 215.158, 470.736 L 211.759, 475.386 L 201.207, 470.914 L 194.411, 480.036 L 185.111, 476.101 L 114.465, 445.696 z "/>
<path style="fill:rgb(255, 0, 0);fill-opacity:0;fill-rule:evenodd;stroke:rgb(255, 25, 0);stroke-width:1;" d="M 52.9399, 275.43 L 56.5169, 270.601 L 84.0599, 232.685 L 169.372, 268.455 L 138.252, 311.201 L 111.961, 300.112 L 71.5404, 283.121 L 52.9399, 275.43 z "/>
<path style="fill:rgb(0, 255, 0);fill-opacity:0;fill-rule:evenodd;stroke:rgb(255, 25, 0);stroke-width:1;" d="M 928.057, 389.18 L 967.941, 334.988 L 971.876, 329.98 L 977.599, 328.728 L 1049.14, 359.311 L 1043.06, 367.717 L 1030.36, 384.887 L 1023.03, 394.724 L 1013.37, 390.431 L 1001.56, 385.603 L 988.867, 380.058 L 980.282, 391.683 L 969.193, 386.318 L 957.389, 402.236 L 928.057, 389.18 z "/>
<path style="fill:rgb(0, 0, 255);fill-opacity:0;fill-rule:evenodd;stroke:rgb(255, 25, 0);stroke-width:1;" d="M 110.53, 785.692 L 171.16, 702.705 L 171.876, 701.811 L 222.312, 723.094 L 190.655, 766.376 L 174.022, 759.401 L 144.333, 800 L 110.53, 785.692 z "/>
<path style="fill:rgb(255, 255, 0);fill-opacity:0;fill-rule:evenodd;stroke:rgb(255, 25, 0);stroke-width:1;" d="M 497.742, 228.035 L 517.594, 200.85 L 529.577, 206.036 L 543.17, 187.615 L 556.047, 170.087 L 605.947, 191.192 L 559.803, 254.326 L 497.742, 228.035 z "/>
<path style="fill:rgb(255, 0, 0);fill-opacity:0;fill-rule:evenodd;stroke:rgb(255, 25, 0);stroke-width:1;" d="M 46.1435, 758.507 L 62.7767, 735.614 L 70.8249, 739.012 L 91.9294, 710.217 L 83.8811, 706.819 L 105.88, 676.593 L 152.918, 696.624 L 131.277, 726.313 L 122.513, 722.558 L 107.132, 743.662 L 115.895, 747.418 L 93.1813, 778.359 L 46.1435, 758.507 z "/>
<path style="fill:rgb(0, 255, 0);fill-opacity:0;fill-rule:evenodd;stroke:rgb(255, 25, 0);stroke-width:1;" d="M 363.783, 605.41 L 393.83, 563.38 L 438.185, 581.802 L 464.297, 592.533 L 457.858, 601.654 L 471.987, 607.556 L 448.558, 640.465 L 363.783, 605.41 z "/>
<path style="fill:rgb(0, 0, 255);fill-opacity:0;fill-rule:evenodd;stroke:rgb(255, 25, 0);stroke-width:1;" d="M 949.162, 129.488 L 979.387, 88.3523 L 991.013, 72.6135 L 1011.22, 45.2493 L 1056.83, 64.5652 L 1040.73, 86.385 L 1015.69, 75.8328 L 1008.9, 85.3119 L 1033.76, 95.8641 L 1017.66, 117.684 L 992.801, 107.132 L 985.826, 116.611 L 1010.87, 127.163 L 994.769, 148.804 L 949.162, 129.488 z "/>
<path style="fill:rgb(255, 255, 0);fill-opacity:0;fill-rule:evenodd;stroke:rgb(255, 25, 0);stroke-width:1;" d="M 561.949, 618.824 L 584.485, 587.525 L 663.179, 620.791 L 630.628, 665.683 L 595.752, 651.017 L 593.785, 650.123 L 595.752, 647.44 L 568.388, 636.173 L 576.615, 624.726 L 561.949, 618.824 z "/>
<path style="fill:rgb(255, 0, 0);fill-opacity:0;fill-rule:evenodd;stroke:rgb(255, 25, 0);stroke-width:1;" d="M 499.888, 518.489 L 512.587, 500.961 L 526, 506.506 L 526.537, 500.961 L 556.226, 460.004 L 558.909, 461.256 L 561.771, 457.322 L 548.536, 451.777 L 561.949, 432.998 L 563.023, 431.925 L 608.63, 451.062 L 607.02, 453.387 L 604.516, 456.785 L 601.476, 455.533 L 585.379, 477.711 L 560.34, 512.05 L 543.528, 535.122 L 542.455, 536.553 L 499.888, 518.489 z "/>
<path style="fill:rgb(0, 255, 0);fill-opacity:0;fill-rule:evenodd;stroke:rgb(255, 25, 0);stroke-width:1;" d="M 410.463, 191.013 L 427.096, 168.299 L 431.388, 162.397 L 436.575, 164.543 L 441.762, 157.568 L 456.07, 138.073 L 451.241, 136.106 L 454.818, 131.277 L 463.581, 119.294 L 473.418, 106.059 L 509.725, 121.44 L 480.751, 160.966 L 474.491, 169.729 L 447.306, 206.573 L 410.463, 191.013 z "/>
<path style="fill:rgb(0, 0, 255);fill-opacity:0;fill-rule:evenodd;stroke:rgb(255, 25, 0);stroke-width:1;" d="M 467.337, 463.045 L 506.148, 409.569 L 561.949, 432.998 L 548.536, 451.777 L 541.739, 460.899 L 536.91, 458.931 L 518.31, 484.507 L 511.692, 481.645 L 467.337, 463.045 z "/>
<path style="fill:rgb(255, 255, 0);fill-opacity:0;fill-rule:evenodd;stroke:rgb(255, 25, 0);stroke-width:1;" d="M 607.914, 274.715 L 638.319, 232.864 L 680.528, 250.57 L 677.308, 255.041 L 705.388, 267.024 L 678.381, 304.225 L 607.914, 274.715 z "/>
<path style="fill:rgb(255, 0, 0);fill-opacity:0;fill-rule:evenodd;stroke:rgb(255, 25, 0);stroke-width:1;" d="M 38.0952, 550.503 L 65.2806, 513.839 L 135.032, 543.707 L 123.228, 559.624 L 104.27, 585.2 L 98.368, 582.696 L 100.693, 579.656 L 98.7257, 578.94 L 99.9776, 577.152 L 88.71, 572.144 L 38.0952, 550.503 z "/>
<path style="fill:rgb(0, 255, 0);fill-opacity:0;fill-rule:evenodd;stroke:rgb(255, 25, 0);stroke-width:1;" d="M 157.925, 663.716 L 166.331, 652.269 L 174.737, 655.846 L 184.753, 642.432 L 176.526, 638.855 L 184.753, 627.945 L 212.296, 639.75 L 217.483, 632.596 L 271.317, 655.667 L 247.887, 687.145 L 194.232, 664.252 L 186.363, 674.804 L 185.826, 675.52 L 157.925, 663.716 z "/>
<path style="fill:rgb(0, 0, 255);fill-opacity:0;fill-rule:evenodd;stroke:rgb(255, 25, 0);stroke-width:1;" d="M 835.949, 81.556 L 863.85, 43.8185 L 929.309, 71.7192 L 901.587, 109.457 L 835.949, 81.556 z "/>
<path style="fill:rgb(255, 255, 0);fill-opacity:0;fill-rule:evenodd;stroke:rgb(255, 25, 0);stroke-width:1;" d="M 668.723, 382.92 L 695.551, 345.898 L 761.189, 373.441 L 734.362, 410.463 L 668.723, 382.92 z "/>
<path style="fill:rgb(255, 0, 0);fill-opacity:0;fill-rule:evenodd;stroke:rgb(255, 25, 0);stroke-width:1;" d="M 258.797, 379.879 L 268.813, 366.287 L 272.39, 367.717 L 282.942, 372.189 L 294.746, 377.018 L 335.524, 394.366 L 354.84, 402.414 L 353.23, 404.561 L 355.913, 405.634 L 360.385, 407.422 L 346.255, 427.275 L 334.63, 422.446 L 324.614, 436.217 L 321.932, 439.615 L 310.664, 434.965 L 309.054, 437.112 L 307.624, 437.469 L 306.908, 437.648 L 305.298, 437.469 L 304.047, 436.933 L 302.973, 436.038 L 302.795, 435.502 L 302.437, 434.786 L 302.616, 433.713 L 302.795, 433.177 L 303.51, 432.104 L 297.608, 429.779 L 301.364, 424.592 L 305.12, 426.023 L 308.339, 421.73 L 303.689, 419.584 L 301.364, 416.007 L 291.169, 416.544 L 287.592, 410.284 L 289.023, 408.317 L 294.21, 407.243 L 294.925, 407.601 L 298.681, 402.593 L 274.715, 392.399 L 275.252, 391.683 L 265.594, 387.57 L 266.488, 386.318 L 261.838, 384.351 L 262.374, 383.635 L 260.407, 380.595 L 258.797, 379.879 z "/>
<path style="fill:rgb(0, 255, 0);fill-opacity:0;fill-rule:evenodd;stroke:rgb(255, 25, 0);stroke-width:1;" d="M 348.402, 454.818 L 353.23, 448.2 L 363.246, 434.25 L 378.985, 412.609 L 429.421, 433.892 L 432.64, 435.144 L 401.878, 477.353 L 348.402, 454.818 z "/>
<path style="fill:rgb(0, 0, 255);fill-opacity:0;fill-rule:evenodd;stroke:rgb(255, 25, 0);stroke-width:1;" d="M 322.468, 158.283 L 341.605, 131.992 L 427.096, 168.299 L 410.463, 191.013 L 407.959, 194.59 L 322.468, 158.283 z "/>
<path style="fill:rgb(255, 255, 0);fill-opacity:0;fill-rule:evenodd;stroke:rgb(255, 25, 0);stroke-width:1;" d="M 667.471, 517.952 L 676.951, 504.896 L 689.291, 488.084 L 690.186, 486.832 L 747.418, 510.977 L 718.623, 550.503 L 684.283, 536.016 L 673.731, 531.545 L 667.471, 517.952 z "/>
<path style="fill:rgb(255, 0, 0);fill-opacity:0;fill-rule:evenodd;stroke:rgb(255, 25, 0);stroke-width:1;" d="M 393.83, 563.38 L 424.055, 521.171 L 480.393, 544.422 L 461.078, 571.607 L 449.095, 566.6 L 438.185, 581.802 L 393.83, 563.38 z "/>
<path style="fill:rgb(0, 255, 0);fill-opacity:0;fill-rule:evenodd;stroke:rgb(255, 25, 0);stroke-width:1;" d="M 828.795, 223.564 L 834.697, 215.515 L 909.278, 246.457 L 958.82, 177.957 L 884.06, 146.837 L 889.783, 139.146 L 975.989, 175.274 L 914.643, 259.513 L 828.795, 223.564 z "/>
<path style="fill:rgb(0, 0, 255);fill-opacity:0;fill-rule:evenodd;stroke:rgb(255, 25, 0);stroke-width:1;" d="M 867.427, 216.588 L 874.939, 206.036 L 893.897, 180.282 L 904.628, 165.437 L 946.121, 182.786 L 908.92, 233.758 L 867.427, 216.588 z "/>
<path style="fill:rgb(255, 255, 0);fill-opacity:0;fill-rule:evenodd;stroke:rgb(255, 25, 0);stroke-width:1;" d="M 895.685, 685.178 L 922.871, 647.798 L 933.423, 652.09 L 922.513, 667.114 L 929.846, 670.154 L 940.756, 655.131 L 951.308, 659.781 L 954.527, 655.31 L 1010.51, 678.739 L 995.305, 699.665 L 994.232, 699.128 L 964.722, 686.787 L 939.146, 676.056 L 931.098, 686.966 L 927.878, 691.438 L 923.944, 696.982 L 895.685, 685.178 z "/>
<path style="fill:rgb(255, 0, 0);fill-opacity:0;fill-rule:evenodd;stroke:rgb(255, 25, 0);stroke-width:1;" d="M 835.055, 304.404 L 841.136, 295.998 L 847.932, 286.519 L 859.736, 270.423 L 908.384, 290.812 L 873.687, 338.565 L 840.42, 324.614 L 850.436, 310.843 L 835.055, 304.404 z "/>
<path style="fill:rgb(0, 255, 0);fill-opacity:0;fill-rule:evenodd;stroke:rgb(255, 25, 0);stroke-width:1;" d="M 689.47, 164.006 L 719.159, 123.049 L 766.913, 143.081 L 755.108, 159.356 L 760.474, 161.681 L 742.589, 186.363 L 689.47, 164.006 z "/>
<path style="fill:rgb(0, 0, 255);fill-opacity:0;fill-rule:evenodd;stroke:rgb(255, 25, 0);stroke-width:1;" d="M 525.106, 383.993 L 552.828, 345.719 L 577.867, 356.092 L 575.721, 359.133 L 587.346, 363.962 L 580.192, 373.977 L 576.615, 374.693 L 571.071, 372.368 L 566.242, 378.806 L 570.177, 380.416 L 572.681, 379.343 L 587.346, 385.424 L 602.191, 365.035 L 615.247, 370.579 L 604.337, 385.603 L 586.989, 409.747 L 525.106, 383.993 z "/>
<path style="fill:rgb(255, 255, 0);fill-opacity:0;fill-rule:evenodd;stroke:rgb(255, 25, 0);stroke-width:1;" d="M 111.245, 148.983 L 138.073, 111.603 L 193.159, 134.496 L 184.038, 147.015 L 178.135, 155.243 L 170.266, 166.152 L 166.152, 172.055 L 111.245, 148.983 z "/>
<path style="fill:rgb(255, 0, 0);fill-opacity:0;fill-rule:evenodd;stroke:rgb(255, 25, 0);stroke-width:1;" d="M 789.09, 351.442 L 812.52, 319.07 L 836.843, 329.264 L 840.42, 324.614 L 873.687, 338.565 L 846.68, 375.587 L 789.09, 351.442 z "/>
<path style="fill:rgb(0, 255, 0);fill-opacity:0;fill-rule:evenodd;stroke:rgb(255, 25, 0);stroke-width:1;" d="M 653.879, 211.402 L 668.902, 190.655 L 745.272, 222.848 L 744.735, 223.564 L 716.477, 262.374 L 694.299, 253.074 L 700.022, 245.205 L 708.071, 234.116 L 653.879, 211.402 z "/>
<path style="fill:rgb(0, 0, 255);fill-opacity:0;fill-rule:evenodd;stroke:rgb(255, 25, 0);stroke-width:1;" d="M 639.213, 577.152 L 659.066, 549.966 L 664.789, 552.292 L 675.52, 537.626 L 681.243, 540.13 L 684.283, 536.016 L 718.623, 550.503 L 684.999, 596.468 L 639.213, 577.152 z "/>
<path style="fill:rgb(255, 255, 0);fill-opacity:0;fill-rule:evenodd;stroke:rgb(255, 25, 0);stroke-width:1;" d="M 703.063, 671.764 L 722.021, 645.831 L 796.602, 677.487 L 777.644, 703.421 L 703.063, 671.764 z "/>
<path style="fill:rgb(255, 0, 0);fill-opacity:0;fill-rule:evenodd;stroke:rgb(255, 25, 0);stroke-width:1;" d="M 730.427, 416.007 L 734.362, 410.463 L 761.189, 373.441 L 825.933, 400.447 L 806.439, 427.632 L 785.155, 418.69 L 789.805, 412.072 L 766.376, 402.236 L 755.466, 417.259 L 750.279, 424.413 L 734.898, 417.975 L 730.427, 416.007 z "/>
<path style="fill:rgb(0, 255, 0);fill-opacity:0;fill-rule:evenodd;stroke:rgb(255, 25, 0);stroke-width:1;" d="M 353.052, 116.79 L 369.148, 94.9698 L 378.985, 99.0834 L 433.713, 122.334 L 454.818, 131.277 L 451.241, 136.106 L 438.721, 153.096 L 417.617, 144.154 L 362.888, 120.903 L 353.052, 116.79 z "/>
<path style="fill:rgb(0, 0, 255);fill-opacity:0;fill-rule:evenodd;stroke:rgb(255, 25, 0);stroke-width:1;" d="M 239.124, 553.186 L 250.928, 537.447 L 256.114, 539.772 L 295.462, 486.653 L 289.381, 483.97 L 293.673, 478.068 L 295.819, 475.207 L 301.543, 467.516 L 329.98, 479.857 L 320.858, 492.019 L 316.745, 490.23 L 274.357, 547.284 L 279.007, 549.251 L 267.382, 565.169 L 239.124, 553.186 z "/>
<path style="fill:rgb(255, 255, 0);fill-opacity:0;fill-rule:evenodd;stroke:rgb(255, 25, 0);stroke-width:1;" d="M 928.057, 389.18 L 967.941, 334.988 L 1013.37, 354.84 L 1003.17, 368.612 L 987.615, 361.815 L 969.193, 386.318 L 957.389, 402.236 L 928.057, 389.18 z "/>
<path style="fill:rgb(255, 0, 0);fill-opacity:0;fill-rule:evenodd;stroke:rgb(255, 25, 0);stroke-width:1;" d="M 561.949, 333.02 L 585.915, 299.933 L 637.603, 321.574 L 624.547, 339.459 L 637.603, 345.003 L 632.774, 351.442 L 625.442, 348.402 L 621.328, 354.125 L 615.426, 351.621 L 613.28, 354.482 L 607.556, 352.157 L 561.949, 333.02 z "/>
<path style="fill:rgb(0, 255, 0);fill-opacity:0;fill-rule:evenodd;stroke:rgb(255, 25, 0);stroke-width:1;" d="M 215.158, 470.736 L 229.466, 451.42 L 231.97, 448.021 L 238.945, 450.883 L 288.665, 472.166 L 295.819, 475.207 L 293.673, 478.068 L 289.381, 483.97 L 278.829, 498.1 L 272.032, 495.059 L 268.097, 500.246 L 266.13, 500.782 L 250.391, 493.986 L 248.424, 496.669 L 233.937, 490.409 L 235.725, 488.084 L 220.523, 481.467 L 219.629, 479.678 L 223.742, 474.313 L 215.158, 470.736 z "/>
<path style="fill:rgb(0, 0, 255);fill-opacity:0;fill-rule:evenodd;stroke:rgb(255, 25, 0);stroke-width:1;" d="M 44.7127, 320.143 L 66.8902, 289.56 L 107.311, 306.55 L 125.911, 314.42 L 118.757, 324.257 L 110.709, 335.167 L 103.555, 344.825 L 44.7127, 320.143 z "/>
<path style="fill:rgb(255, 255, 0);fill-opacity:0;fill-rule:evenodd;stroke:rgb(255, 25, 0);stroke-width:1;" d="M 786.05, 144.69 L 794.098, 133.602 L 813.414, 106.953 L 860.452, 126.805 L 854.907, 134.496 L 833.266, 164.543 L 786.05, 144.69 z "/>
<path style="fill:rgb(255, 0, 0);fill-opacity:0;fill-rule:evenodd;stroke:rgb(255, 25, 0);stroke-width:1;" d="M 215.158, 470.736 L 229.466, 451.42 L 236.262, 454.281 L 238.945, 450.883 L 288.665, 472.166 L 286.698, 475.028 L 293.673, 478.068 L 289.381, 483.97 L 278.829, 498.1 L 272.032, 495.059 L 268.097, 500.246 L 266.13, 500.782 L 250.391, 493.986 L 248.424, 496.669 L 233.937, 490.409 L 235.725, 488.084 L 220.523, 481.467 L 219.629, 479.678 L 223.742, 474.313 L 215.158, 470.736 z "/>
<path style="fill:rgb(0, 255, 0);fill-opacity:0;fill-rule:evenodd;stroke:rgb(255, 25, 0);stroke-width:1;" d="M 294.746, 377.018 L 324.972, 335.345 L 325.687, 334.63 L 366.465, 351.8 L 335.524, 394.366 L 294.746, 377.018 z "/>
<path style="fill:rgb(0, 0, 255);fill-opacity:0;fill-rule:evenodd;stroke:rgb(255, 25, 0);stroke-width:1;" d="M 619.897, 59.3785 L 628.84, 47.0378 L 646.725, 43.2819 L 662.643, 50.4359 L 664.431, 55.2649 L 673.552, 80.304 L 675.699, 86.0273 L 666.756, 98.1891 L 649.05, 101.945 L 632.953, 95.1487 L 630.807, 89.2466 L 621.686, 64.2075 L 619.897, 59.3785 z "/>
<path style="fill:rgb(255, 255, 0);fill-opacity:0;fill-rule:evenodd;stroke:rgb(255, 25, 0);stroke-width:1;" d="M 387.033, 401.699 L 390.968, 396.155 L 409.926, 370.221 L 410.642, 369.327 L 464.118, 391.862 L 463.76, 392.399 L 440.51, 424.234 L 437.469, 422.982 L 387.033, 401.699 z "/>
<path style="fill:rgb(255, 0, 0);fill-opacity:0;fill-rule:evenodd;stroke:rgb(255, 25, 0);stroke-width:1;" d="M 443.729, 495.417 L 467.337, 463.045 L 511.692, 481.645 L 504.717, 491.303 L 516.164, 496.132 L 512.587, 500.961 L 499.888, 518.489 L 499.531, 518.846 L 443.729, 495.417 z "/>
<path style="fill:rgb(0, 255, 0);fill-opacity:0;fill-rule:evenodd;stroke:rgb(255, 25, 0);stroke-width:1;" d="M 691.438, 309.77 L 717.013, 274.357 L 764.766, 294.389 L 739.012, 329.801 L 691.438, 309.77 z "/>
<path style="fill:rgb(0, 0, 255);fill-opacity:0;fill-rule:evenodd;stroke:rgb(255, 25, 0);stroke-width:1;" d="M 752.247, 279.723 L 754.572, 276.325 L 781.757, 238.945 L 782.473, 238.051 L 821.999, 254.505 L 793.383, 294.031 L 791.594, 296.356 L 752.247, 279.723 z "/>
<path style="fill:rgb(255, 255, 0);fill-opacity:0;fill-rule:evenodd;stroke:rgb(255, 25, 0);stroke-width:1;" d="M 835.234, 729.712 L 853.476, 704.851 L 913.57, 730.427 L 894.97, 755.645 L 891.035, 760.474 L 884.239, 769.595 L 874.223, 765.303 L 884.775, 750.816 L 835.234, 729.712 z "/>
<path style="fill:rgb(255, 0, 0);fill-opacity:0;fill-rule:evenodd;stroke:rgb(255, 25, 0);stroke-width:1;" d="M 119.83, 59.915 L 138.431, 34.8759 L 202.817, 62.419 L 184.216, 87.4581 L 119.83, 59.915 z "/>
<path style="fill:rgb(0, 255, 0);fill-opacity:0;fill-rule:evenodd;stroke:rgb(255, 25, 0);stroke-width:1;" d="M 310.127, 513.302 L 320.322, 499.531 L 318.355, 495.417 L 320.858, 492.019 L 329.98, 479.857 L 379.164, 500.961 L 380.416, 505.433 L 358.954, 534.228 L 310.127, 513.302 z "/>
<path style="fill:rgb(0, 0, 255);fill-opacity:0;fill-rule:evenodd;stroke:rgb(255, 25, 0);stroke-width:1;" d="M 492.913, 779.253 L 509.546, 756.718 L 520.098, 742.231 L 563.023, 760.474 L 536.553, 797.854 L 492.913, 779.253 z "/>
<path style="fill:rgb(255, 255, 0);fill-opacity:0;fill-rule:evenodd;stroke:rgb(255, 25, 0);stroke-width:1;" d="M 436.575, 333.199 L 457.322, 304.583 L 481.467, 314.599 L 483.255, 312.095 L 512.587, 324.257 L 490.051, 355.556 L 436.575, 333.199 z "/>
<path style="fill:rgb(255, 0, 0);fill-opacity:0;fill-rule:evenodd;stroke:rgb(255, 25, 0);stroke-width:1;" d="M 819.495, 511.156 L 843.64, 477.711 L 875.296, 490.946 L 869.931, 498.1 L 889.425, 506.327 L 876.906, 523.675 L 870.467, 532.618 L 819.495, 511.156 z "/>
<path style="fill:rgb(0, 255, 0);fill-opacity:0;fill-rule:evenodd;stroke:rgb(255, 25, 0);stroke-width:1;" d="M 560.519, 687.86 L 572.323, 671.406 L 578.94, 674.268 L 595.752, 651.017 L 630.628, 665.683 L 632.417, 666.398 L 603.622, 705.924 L 560.519, 687.86 z "/>
<path style="fill:rgb(0, 0, 255);fill-opacity:0;fill-rule:evenodd;stroke:rgb(255, 25, 0);stroke-width:1;" d="M 805.366, 203.175 L 826.828, 173.485 L 833.266, 164.543 L 854.907, 134.496 L 884.06, 146.837 L 877.8, 155.421 L 868.142, 151.487 L 831.478, 202.101 L 841.315, 206.215 L 834.697, 215.515 L 805.366, 203.175 z "/>
<path style="fill:rgb(255, 255, 0);fill-opacity:0;fill-rule:evenodd;stroke:rgb(255, 25, 0);stroke-width:1;" d="M 716.119, 464.833 L 735.256, 438.185 L 740.443, 440.331 L 743.841, 435.681 L 787.302, 453.924 L 764.766, 485.222 L 716.119, 464.833 z "/>
<path style="fill:rgb(255, 0, 0);fill-opacity:0;fill-rule:evenodd;stroke:rgb(255, 25, 0);stroke-width:1;" d="M 267.382, 565.169 L 279.007, 549.251 L 281.869, 545.495 L 298.323, 552.649 L 307.266, 540.666 L 342.857, 556.047 L 343.394, 556.226 L 319.964, 587.883 L 267.382, 565.169 z "/>
<path style="fill:rgb(0, 255, 0);fill-opacity:0;fill-rule:evenodd;stroke:rgb(255, 25, 0);stroke-width:1;" d="M 621.149, 508.115 L 648.334, 470.736 L 689.291, 488.084 L 676.951, 504.896 L 669.797, 501.856 L 667.114, 505.611 L 671.764, 507.758 L 659.781, 524.212 L 621.149, 508.115 z "/>
<path style="fill:rgb(0, 0, 255);fill-opacity:0;fill-rule:evenodd;stroke:rgb(255, 25, 0);stroke-width:1;" d="M 99.4411, 466.085 L 114.465, 445.696 L 185.111, 476.101 L 182.607, 479.499 L 170.087, 496.311 L 99.4411, 466.085 z "/>
<path style="fill:rgb(255, 255, 0);fill-opacity:0;fill-rule:evenodd;stroke:rgb(255, 25, 0);stroke-width:1;" d="M 493.807, 166.51 L 522.781, 126.984 L 559.088, 142.365 L 557.657, 144.512 L 530.114, 181.891 L 530.114, 182.07 L 493.807, 166.51 z "/>
<path style="fill:rgb(255, 0, 0);fill-opacity:0;fill-rule:evenodd;stroke:rgb(255, 25, 0);stroke-width:1;" d="M 93.1813, 778.359 L 115.895, 747.418 L 131.277, 726.313 L 152.918, 696.624 L 153.812, 695.372 L 171.16, 702.705 L 110.53, 785.692 L 93.1813, 778.359 z "/>
<path style="fill:rgb(0, 255, 0);fill-opacity:0;fill-rule:evenodd;stroke:rgb(255, 25, 0);stroke-width:1;" d="M 793.383, 294.031 L 821.999, 254.505 L 859.736, 270.423 L 847.932, 286.519 L 842.209, 284.194 L 835.412, 293.494 L 841.136, 295.998 L 835.055, 304.404 L 831.12, 309.949 L 793.383, 294.031 z "/>
<path style="fill:rgb(0, 0, 255);fill-opacity:0;fill-rule:evenodd;stroke:rgb(255, 25, 0);stroke-width:1;" d="M 688.755, 691.259 L 703.063, 671.764 L 777.644, 703.421 L 765.661, 719.875 L 749.206, 712.9 L 746.881, 715.94 L 728.102, 707.892 L 694.299, 693.584 L 688.755, 691.259 z "/>
<path style="fill:rgb(255, 255, 0);fill-opacity:0;fill-rule:evenodd;stroke:rgb(255, 25, 0);stroke-width:1;" d="M 385.96, 325.33 L 408.674, 293.852 L 414.755, 285.446 L 417.975, 281.154 L 420.478, 282.227 L 432.998, 287.413 L 438.9, 279.365 L 439.079, 279.007 L 452.493, 284.731 L 444.981, 295.104 L 414.397, 337.313 L 385.96, 325.33 z "/>
<path style="fill:rgb(255, 0, 0);fill-opacity:0;fill-rule:evenodd;stroke:rgb(255, 25, 0);stroke-width:1;" d="M 580.192, 550.503 L 600.045, 523.497 L 648.513, 543.886 L 627.767, 572.323 L 580.192, 550.503 z "/>
<path style="fill:rgb(0, 255, 0);fill-opacity:0;fill-rule:evenodd;stroke:rgb(255, 25, 0);stroke-width:1;" d="M 108.384, 583.59 L 117.326, 571.607 L 120.188, 572.859 L 128.415, 561.771 L 123.228, 559.624 L 135.032, 543.707 L 137, 541.203 L 179.209, 559.267 L 166.331, 576.436 L 146.479, 567.852 L 137.357, 580.371 L 149.877, 585.558 L 140.934, 597.541 L 138.967, 596.647 L 108.384, 583.59 z "/>
<path style="fill:rgb(0, 0, 255);fill-opacity:0;fill-rule:evenodd;stroke:rgb(255, 25, 0);stroke-width:1;" d="M 198.167, 103.376 L 225.71, 66.1748 L 239.124, 71.8981 L 235.368, 76.9059 L 228.035, 86.9215 L 221.417, 95.6852 L 277.398, 119.651 L 279.902, 120.724 L 270.065, 134.138 L 198.167, 103.376 z "/>
<path style="fill:rgb(255, 255, 0);fill-opacity:0;fill-rule:evenodd;stroke:rgb(255, 25, 0);stroke-width:1;" d="M 407.065, 46.8589 L 419.226, 30.2258 L 465.728, 49.5417 L 495.238, 61.8824 L 483.255, 78.5155 L 407.065, 46.8589 z "/>
<path style="fill:rgb(255, 0, 0);fill-opacity:0;fill-rule:evenodd;stroke:rgb(255, 25, 0);stroke-width:1;" d="M 233.043, 611.67 L 249.139, 589.85 L 304.225, 613.459 L 288.129, 635.278 L 233.043, 611.67 z "/>
<path style="fill:rgb(0, 255, 0);fill-opacity:0;fill-rule:evenodd;stroke:rgb(255, 25, 0);stroke-width:1;" d="M 117.684, 213.011 L 130.025, 195.842 L 201.386, 225.531 L 189.045, 242.701 L 117.684, 213.011 z "/>
<path style="fill:rgb(0, 0, 255);fill-opacity:0;fill-rule:evenodd;stroke:rgb(255, 25, 0);stroke-width:1;" d="M 524.57, 608.272 L 549.788, 573.217 L 584.485, 587.525 L 561.949, 618.824 L 559.267, 622.759 L 524.57, 608.272 z "/>
<path style="fill:rgb(255, 255, 0);fill-opacity:0;fill-rule:evenodd;stroke:rgb(255, 25, 0);stroke-width:1;" d="M 362.888, 120.903 L 378.985, 99.0834 L 433.713, 122.334 L 417.617, 144.154 L 362.888, 120.903 z "/>
<path style="fill:rgb(255, 0, 0);fill-opacity:0;fill-rule:evenodd;stroke:rgb(255, 25, 0);stroke-width:1;" d="M 163.47, 377.018 L 178.493, 356.45 L 235.904, 380.595 L 235.547, 381.131 L 220.881, 401.163 L 163.47, 377.018 z "/>
<path style="fill:rgb(0, 255, 0);fill-opacity:0;fill-rule:evenodd;stroke:rgb(255, 25, 0);stroke-width:1;" d="M 843.64, 477.711 L 859.2, 456.249 L 894.97, 471.093 L 913.57, 478.963 L 902.303, 494.344 L 904.628, 495.417 L 900.335, 501.319 L 894.612, 498.994 L 875.296, 490.946 L 843.64, 477.711 z "/>
<path style="fill:rgb(0, 0, 255);fill-opacity:0;fill-rule:evenodd;stroke:rgb(255, 25, 0);stroke-width:1;" d="M 743.483, 620.97 L 764.051, 592.712 L 770.668, 595.395 L 805.187, 610.06 L 792.131, 627.945 L 784.619, 638.319 L 743.483, 620.97 z "/>
<path style="fill:rgb(255, 255, 0);fill-opacity:0;fill-rule:evenodd;stroke:rgb(255, 25, 0);stroke-width:1;" d="M 217.483, 632.596 L 233.043, 611.67 L 288.129, 635.278 L 272.569, 656.204 L 271.317, 655.667 L 217.483, 632.596 z "/>
<path style="fill:rgb(255, 0, 0);fill-opacity:0;fill-rule:evenodd;stroke:rgb(255, 25, 0);stroke-width:1;" d="M 377.912, 82.9868 L 387.57, 69.7518 L 473.418, 106.059 L 463.581, 119.294 L 377.912, 82.9868 z "/>
<path style="fill:rgb(0, 255, 0);fill-opacity:0;fill-rule:evenodd;stroke:rgb(255, 25, 0);stroke-width:1;" d="M 921.44, 117.863 L 951.844, 76.5482 L 970.445, 84.5965 L 979.387, 88.3523 L 949.162, 129.488 L 921.44, 117.863 z "/>
<path style="fill:rgb(0, 0, 255);fill-opacity:0;fill-rule:evenodd;stroke:rgb(255, 25, 0);stroke-width:1;" d="M 387.212, 273.821 L 395.797, 262.195 L 406.17, 266.488 L 421.194, 245.741 L 410.82, 241.449 L 419.942, 228.571 L 449.989, 241.091 L 449.273, 242.343 L 426.381, 274 L 420.478, 282.227 L 417.975, 281.154 L 414.755, 285.446 L 387.212, 273.821 z "/>
<path style="fill:rgb(255, 255, 0);fill-opacity:0;fill-rule:evenodd;stroke:rgb(255, 25, 0);stroke-width:1;" d="M 324.614, 436.217 L 334.63, 422.446 L 346.255, 427.275 L 360.385, 407.422 L 355.913, 405.634 L 357.344, 403.488 L 369.327, 387.033 L 390.968, 396.155 L 381.847, 408.853 L 363.246, 434.25 L 353.23, 448.2 L 324.614, 436.217 z "/>
<path style="fill:rgb(255, 0, 0);fill-opacity:0;fill-rule:evenodd;stroke:rgb(255, 25, 0);stroke-width:1;" d="M 341.605, 131.992 L 351.263, 119.651 L 441.762, 157.568 L 436.575, 164.543 L 431.388, 162.397 L 427.096, 168.299 L 341.605, 131.992 z "/>
<path style="fill:rgb(0, 255, 0);fill-opacity:0;fill-rule:evenodd;stroke:rgb(255, 25, 0);stroke-width:1;" d="M 900.693, 399.374 L 913.034, 382.741 L 928.057, 389.18 L 957.389, 402.236 L 969.193, 386.318 L 980.282, 391.683 L 977.778, 395.082 L 957.925, 421.909 L 956.852, 423.34 L 900.693, 399.374 z "/>
<path style="fill:rgb(0, 0, 255);fill-opacity:0;fill-rule:evenodd;stroke:rgb(255, 25, 0);stroke-width:1;" d="M 556.047, 170.087 L 570.713, 150.056 L 572.323, 147.91 L 622.222, 169.193 L 605.947, 191.192 L 556.047, 170.087 z "/>
<path style="fill:rgb(255, 255, 0);fill-opacity:0;fill-rule:evenodd;stroke:rgb(255, 25, 0);stroke-width:1;" d="M 670.512, 725.956 L 694.299, 693.584 L 728.102, 707.892 L 704.315, 740.264 L 670.512, 725.956 z "/>
<path style="fill:rgb(255, 0, 0);fill-opacity:0;fill-rule:evenodd;stroke:rgb(255, 25, 0);stroke-width:1;" d="M 621.686, 64.2075 L 629.913, 62.5978 L 629.019, 60.2727 L 634.742, 52.5822 L 645.473, 50.2571 L 655.488, 54.7284 L 656.204, 57.0534 L 664.431, 55.2649 L 673.552, 80.304 L 665.504, 82.0926 L 666.577, 85.4907 L 664.968, 85.8484 L 642.79, 90.4985 L 640.286, 91.0351 L 639.034, 87.6369 L 630.807, 89.2466 L 621.686, 64.2075 z "/>
<path style="fill:rgb(0, 255, 0);fill-opacity:0;fill-rule:evenodd;stroke:rgb(255, 25, 0);stroke-width:1;" d="M 292.063, 534.228 L 300.469, 522.96 L 302.258, 523.854 L 310.127, 513.302 L 358.954, 534.228 L 342.857, 556.047 L 307.266, 540.666 L 292.063, 534.228 z "/>
<path style="fill:rgb(0, 0, 255);fill-opacity:0;fill-rule:evenodd;stroke:rgb(255, 25, 0);stroke-width:1;" d="M 470.736, 584.485 L 474.849, 578.761 L 495.238, 550.503 L 523.675, 562.307 L 499.173, 596.647 L 494.88, 594.679 L 489.157, 602.549 L 473.597, 595.931 L 479.32, 588.062 L 470.736, 584.485 z "/>
<path style="fill:rgb(255, 255, 0);fill-opacity:0;fill-rule:evenodd;stroke:rgb(255, 25, 0);stroke-width:1;" d="M 742.589, 435.144 L 750.279, 424.413 L 755.466, 417.259 L 766.734, 422.088 L 772.815, 413.503 L 785.155, 418.69 L 806.439, 427.632 L 787.302, 453.924 L 743.841, 435.681 L 742.589, 435.144 z "/>
<path style="fill:rgb(255, 0, 0);fill-opacity:0;fill-rule:evenodd;stroke:rgb(255, 25, 0);stroke-width:1;" d="M 547.463, 105.343 L 573.217, 69.3941 L 575.184, 66.7114 L 588.956, 72.4346 L 602.906, 78.1578 L 589.85, 96.4006 L 575.184, 116.79 L 547.463, 105.343 z "/>
<path style="fill:rgb(0, 255, 0);fill-opacity:0;fill-rule:evenodd;stroke:rgb(255, 25, 0);stroke-width:1;" d="M 623.832, 425.844 L 624.19, 425.307 L 634.026, 411.536 L 639.928, 414.04 L 655.131, 393.114 L 680.349, 403.666 L 665.146, 424.592 L 670.512, 426.917 L 660.139, 441.046 L 623.832, 425.844 z "/>
<path style="fill:rgb(0, 0, 255);fill-opacity:0;fill-rule:evenodd;stroke:rgb(255, 25, 0);stroke-width:1;" d="M 867.784, 673.374 L 868.679, 672.122 L 886.922, 647.082 L 894.97, 635.994 L 922.871, 647.798 L 895.685, 685.178 L 867.784, 673.374 z "/>
<path style="fill:rgb(255, 255, 0);fill-opacity:0;fill-rule:evenodd;stroke:rgb(255, 25, 0);stroke-width:1;" d="M 589.85, 122.871 L 604.874, 102.124 L 655.131, 122.871 L 646.546, 134.854 L 640.107, 143.796 L 589.85, 122.871 z "/>
<path style="fill:rgb(255, 0, 0);fill-opacity:0;fill-rule:evenodd;stroke:rgb(255, 25, 0);stroke-width:1;" d="M 154.706, 517.058 L 162.039, 507.042 L 170.087, 496.311 L 182.607, 479.499 L 209.792, 491.303 L 181.891, 528.862 L 154.706, 517.058 z "/>
<path style="fill:rgb(0, 255, 0);fill-opacity:0;fill-rule:evenodd;stroke:rgb(255, 25, 0);stroke-width:1;" d="M 719.159, 123.049 L 734.362, 101.945 L 781.757, 121.976 L 778.359, 126.626 L 781.578, 128.057 L 773.709, 138.788 L 770.847, 137.536 L 766.913, 143.081 L 719.159, 123.049 z "/>
<path style="fill:rgb(0, 0, 255);fill-opacity:0;fill-rule:evenodd;stroke:rgb(255, 25, 0);stroke-width:1;" d="M 369.148, 94.9698 L 377.912, 82.9868 L 463.581, 119.294 L 454.818, 131.277 L 433.713, 122.334 L 378.985, 99.0834 L 369.148, 94.9698 z "/>
<path style="fill:rgb(255, 255, 0);fill-opacity:0;fill-rule:evenodd;stroke:rgb(255, 25, 0);stroke-width:1;" d="M 757.255, 192.444 L 784.082, 155.421 L 811.446, 167.047 L 784.44, 203.89 L 757.255, 192.444 z "/>
<path style="fill:rgb(255, 0, 0);fill-opacity:0;fill-rule:evenodd;stroke:rgb(255, 25, 0);stroke-width:1;" d="M 64.0286, 185.826 L 88.8889, 151.308 L 107.668, 159.177 L 110.709, 155.064 L 120.009, 158.82 L 116.968, 162.933 L 92.1082, 197.451 L 64.0286, 185.826 z "/>
<path style="fill:rgb(0, 255, 0);fill-opacity:0;fill-rule:evenodd;stroke:rgb(255, 25, 0);stroke-width:1;" d="M 35.4125, 178.135 L 62.5978, 140.398 L 88.8889, 151.308 L 64.0286, 185.826 L 61.8824, 189.045 L 35.4125, 178.135 z "/>
<path style="fill:rgb(0, 0, 255);fill-opacity:0;fill-rule:evenodd;stroke:rgb(255, 25, 0);stroke-width:1;" d="M 614.353, 362.352 L 619.897, 354.482 L 620.791, 354.84 L 621.328, 354.125 L 625.442, 348.402 L 632.774, 351.442 L 637.603, 345.003 L 643.148, 337.134 L 635.815, 334.093 L 643.148, 323.899 L 670.691, 335.524 L 657.456, 353.946 L 642.79, 374.156 L 614.353, 362.352 z "/>
<path style="fill:rgb(255, 255, 0);fill-opacity:0;fill-rule:evenodd;stroke:rgb(255, 25, 0);stroke-width:1;" d="M 73.5077, 627.409 L 81.1983, 617.036 L 87.2792, 619.539 L 108.92, 590.387 L 129.488, 599.329 L 107.847, 628.482 L 113.57, 630.986 L 105.88, 641.359 L 73.5077, 627.409 z "/>
<path style="fill:rgb(255, 0, 0);fill-opacity:0;fill-rule:evenodd;stroke:rgb(255, 25, 0);stroke-width:1;" d="M 751.353, 334.809 L 778.538, 297.429 L 803.756, 307.981 L 787.838, 329.98 L 776.571, 345.54 L 751.353, 334.809 z "/>
<path style="fill:rgb(0, 255, 0);fill-opacity:0;fill-rule:evenodd;stroke:rgb(255, 25, 0);stroke-width:1;" d="M 463.045, 646.904 L 489.515, 610.239 L 515.269, 621.149 L 488.621, 657.635 L 463.045, 646.904 z "/>
<path style="fill:rgb(0, 0, 255);fill-opacity:0;fill-rule:evenodd;stroke:rgb(255, 25, 0);stroke-width:1;" d="M 982.428, 637.425 L 984.216, 634.742 L 997.273, 616.857 L 1040.38, 634.921 L 1024.64, 656.562 L 984.216, 639.75 L 984.932, 638.498 L 982.428, 637.425 z "/>
<path style="fill:rgb(255, 255, 0);fill-opacity:0;fill-rule:evenodd;stroke:rgb(255, 25, 0);stroke-width:1;" d="M 335.524, 394.366 L 366.465, 351.8 L 388.285, 361.1 L 369.327, 387.033 L 357.344, 403.488 L 354.84, 402.414 L 335.524, 394.366 z "/>
<path style="fill:rgb(255, 0, 0);fill-opacity:0;fill-rule:evenodd;stroke:rgb(255, 25, 0);stroke-width:1;" d="M 490.409, 81.556 L 515.091, 47.2166 L 529.22, 53.1187 L 525.822, 57.9477 L 540.309, 64.0286 L 536.91, 68.6787 L 527.789, 81.3772 L 519.025, 93.539 L 490.409, 81.556 z "/>
<path style="fill:rgb(0, 255, 0);fill-opacity:0;fill-rule:evenodd;stroke:rgb(255, 25, 0);stroke-width:1;" d="M 851.33, 609.882 L 860.809, 597.183 L 879.767, 570.892 L 880.841, 569.461 L 903.018, 578.761 L 902.482, 579.477 L 882.987, 606.483 L 873.15, 619.897 L 851.33, 609.882 z "/>
<path style="fill:rgb(0, 0, 255);fill-opacity:0;fill-rule:evenodd;stroke:rgb(255, 25, 0);stroke-width:1;" d="M 682.853, 450.883 L 703.778, 422.088 L 713.257, 408.853 L 730.427, 416.007 L 734.898, 417.975 L 723.631, 433.356 L 704.494, 460.004 L 682.853, 450.883 z "/>
<path style="fill:rgb(255, 255, 0);fill-opacity:0;fill-rule:evenodd;stroke:rgb(255, 25, 0);stroke-width:1;" d="M 519.025, 93.539 L 527.789, 81.3772 L 537.089, 85.3119 L 546.211, 72.4346 L 536.91, 68.6787 L 540.309, 64.0286 L 544.959, 57.59 L 573.217, 69.3941 L 547.463, 105.343 L 519.025, 93.539 z "/>
<path style="fill:rgb(255, 0, 0);fill-opacity:0;fill-rule:evenodd;stroke:rgb(255, 25, 0);stroke-width:1;" d="M 523.139, 672.122 L 533.87, 657.456 L 540.13, 648.692 L 550.324, 634.742 L 574.111, 644.757 L 546.926, 682.137 L 523.139, 672.122 z "/>
<path style="fill:rgb(0, 255, 0);fill-opacity:0;fill-rule:evenodd;stroke:rgb(255, 25, 0);stroke-width:1;" d="M 647.261, 376.66 L 662.285, 355.913 L 657.456, 353.946 L 670.691, 335.524 L 695.551, 345.898 L 668.723, 382.92 L 667.114, 385.066 L 647.261, 376.66 z "/>
<path style="fill:rgb(0, 0, 255);fill-opacity:0;fill-rule:evenodd;stroke:rgb(255, 25, 0);stroke-width:1;" d="M 130.025, 195.842 L 137.894, 185.111 L 181.712, 203.353 L 184.216, 199.955 L 211.759, 211.402 L 201.386, 225.531 L 130.025, 195.842 z "/>
<path style="fill:rgb(255, 255, 0);fill-opacity:0;fill-rule:evenodd;stroke:rgb(255, 25, 0);stroke-width:1;" d="M 901.587, 109.457 L 929.309, 71.7192 L 931.992, 68.1422 L 951.844, 76.5482 L 921.44, 117.863 L 901.587, 109.457 z "/>
<path style="fill:rgb(255, 0, 0);fill-opacity:0;fill-rule:evenodd;stroke:rgb(255, 25, 0);stroke-width:1;" d="M 811.446, 649.408 L 818.958, 639.213 L 829.689, 624.19 L 836.128, 615.426 L 838.274, 612.564 L 859.915, 621.686 L 833.266, 658.708 L 811.446, 649.408 z "/>
<path style="fill:rgb(0, 255, 0);fill-opacity:0;fill-rule:evenodd;stroke:rgb(255, 25, 0);stroke-width:1;" d="M 585.737, 499.352 L 586.81, 497.742 L 616.32, 457.322 L 617.036, 456.427 L 635.457, 464.118 L 634.742, 465.012 L 604.158, 507.221 L 598.077, 504.538 L 585.737, 499.352 z "/>
<path style="fill:rgb(0, 0, 255);fill-opacity:0;fill-rule:evenodd;stroke:rgb(255, 25, 0);stroke-width:1;" d="M 91.3928, 476.816 L 99.4411, 466.085 L 170.087, 496.311 L 162.039, 507.042 L 91.3928, 476.816 z "/>
<path style="fill:rgb(255, 255, 0);fill-opacity:0;fill-rule:evenodd;stroke:rgb(255, 25, 0);stroke-width:1;" d="M 500.425, 662.643 L 511.156, 647.977 L 518.489, 651.017 L 524.927, 642.254 L 517.416, 639.213 L 528.326, 624.19 L 551.04, 633.848 L 550.324, 634.742 L 540.13, 648.692 L 534.764, 646.367 L 528.504, 655.131 L 533.87, 657.456 L 523.139, 672.122 L 500.425, 662.643 z "/>
<path style="fill:rgb(255, 0, 0);fill-opacity:0;fill-rule:evenodd;stroke:rgb(255, 25, 0);stroke-width:1;" d="M 876.906, 523.675 L 889.425, 506.327 L 894.612, 498.994 L 900.335, 501.319 L 900.156, 504.359 L 926.448, 515.269 L 910.351, 537.626 L 876.906, 523.675 z "/>
<path style="fill:rgb(0, 255, 0);fill-opacity:0;fill-rule:evenodd;stroke:rgb(255, 25, 0);stroke-width:1;" d="M 142.186, 178.851 L 144.512, 175.81 L 146.837, 172.591 L 151.129, 172.233 L 168.478, 179.387 L 219.45, 200.671 L 211.759, 211.402 L 184.216, 199.955 L 143.438, 182.964 L 142.186, 178.851 z "/>
<path style="fill:rgb(0, 0, 255);fill-opacity:0;fill-rule:evenodd;stroke:rgb(255, 25, 0);stroke-width:1;" d="M 859.2, 456.249 L 874.223, 435.323 L 909.993, 450.168 L 894.97, 471.093 L 859.2, 456.249 z "/>
<path style="fill:rgb(255, 255, 0);fill-opacity:0;fill-rule:evenodd;stroke:rgb(255, 25, 0);stroke-width:1;" d="M 732.573, 267.203 L 740.622, 255.936 L 746.345, 258.44 L 756.897, 243.774 L 751.174, 241.449 L 759.58, 229.823 L 759.759, 229.645 L 781.757, 238.945 L 754.572, 276.325 L 732.573, 267.203 z "/>
<path style="fill:rgb(255, 0, 0);fill-opacity:0;fill-rule:evenodd;stroke:rgb(255, 25, 0);stroke-width:1;" d="M 228.75, 471.63 L 236.62, 461.256 L 243.595, 464.297 L 247.351, 459.289 L 275.967, 471.63 L 272.211, 476.638 L 279.186, 479.678 L 271.496, 489.873 L 264.342, 486.832 L 260.765, 491.84 L 232.148, 479.499 L 235.904, 474.67 L 228.75, 471.63 z "/>
<path style="fill:rgb(0, 255, 0);fill-opacity:0;fill-rule:evenodd;stroke:rgb(255, 25, 0);stroke-width:1;" d="M 83.8811, 486.832 L 91.3928, 476.816 L 162.039, 507.042 L 154.706, 517.058 L 83.8811, 486.832 z "/>
<path style="fill:rgb(0, 0, 255);fill-opacity:0;fill-rule:evenodd;stroke:rgb(255, 25, 0);stroke-width:1;" d="M 184.038, 147.015 L 193.159, 134.496 L 249.855, 158.283 L 240.912, 170.803 L 184.038, 147.015 z "/>
<path style="fill:rgb(255, 255, 0);fill-opacity:0;fill-rule:evenodd;stroke:rgb(255, 25, 0);stroke-width:1;" d="M 178.493, 356.45 L 187.257, 344.467 L 244.489, 368.612 L 235.904, 380.595 L 178.493, 356.45 z "/>
<path style="fill:rgb(255, 0, 0);fill-opacity:0;fill-rule:evenodd;stroke:rgb(255, 25, 0);stroke-width:1;" d="M 586.989, 409.747 L 604.337, 385.603 L 609.166, 387.749 L 614.532, 380.416 L 623.653, 380.595 L 631.88, 385.603 L 626.157, 393.472 L 623.295, 394.008 L 622.401, 395.439 L 625.263, 396.512 L 625.442, 397.586 L 609.703, 419.226 L 586.989, 409.747 z "/>
<path style="fill:rgb(0, 255, 0);fill-opacity:0;fill-rule:evenodd;stroke:rgb(255, 25, 0);stroke-width:1;" d="M 480.215, 272.211 L 489.336, 259.513 L 489.694, 258.976 L 542.097, 280.975 L 532.618, 294.031 L 480.215, 272.211 z "/>
<path style="fill:rgb(0, 0, 255);fill-opacity:0;fill-rule:evenodd;stroke:rgb(255, 25, 0);stroke-width:1;" d="M 784.619, 638.319 L 792.131, 627.945 L 796.602, 629.913 L 807.512, 614.532 L 815.739, 617.93 L 821.82, 609.524 L 836.128, 615.426 L 829.689, 624.19 L 826.291, 622.759 L 815.381, 637.782 L 818.958, 639.213 L 811.446, 649.408 L 784.619, 638.319 z "/>
<path style="fill:rgb(255, 255, 0);fill-opacity:0;fill-rule:evenodd;stroke:rgb(255, 25, 0);stroke-width:1;" d="M 23.6083, 367.717 L 29.8681, 359.311 L 32.5509, 355.734 L 89.0677, 379.879 L 80.304, 391.862 L 23.6083, 367.717 z "/>
<path style="fill:rgb(255, 0, 0);fill-opacity:0;fill-rule:evenodd;stroke:rgb(255, 25, 0);stroke-width:1;" d="M 471.272, 284.552 L 473.955, 280.796 L 476.101, 277.755 L 478.605, 274.536 L 480.215, 272.211 L 532.618, 294.031 L 534.049, 294.746 L 525.106, 307.087 L 472.703, 285.267 L 471.272, 284.552 z "/>
<path style="fill:rgb(0, 255, 0);fill-opacity:0;fill-rule:evenodd;stroke:rgb(255, 25, 0);stroke-width:1;" d="M 235.368, 76.9059 L 239.124, 71.8981 L 243.774, 65.6383 L 299.933, 89.6043 L 291.527, 100.872 L 235.368, 76.9059 z "/>
<path style="fill:rgb(0, 0, 255);fill-opacity:0;fill-rule:evenodd;stroke:rgb(255, 25, 0);stroke-width:1;" d="M 258.976, 45.0704 L 267.203, 33.8028 L 323.362, 57.9477 L 314.956, 69.0364 L 258.976, 45.0704 z "/>
<path style="fill:rgb(255, 255, 0);fill-opacity:0;fill-rule:evenodd;stroke:rgb(255, 25, 0);stroke-width:1;" d="M 414.397, 337.313 L 444.981, 295.104 L 459.647, 301.364 L 457.322, 304.583 L 436.575, 333.199 L 429.242, 343.394 L 414.397, 337.313 z "/>
<path style="fill:rgb(255, 0, 0);fill-opacity:0;fill-rule:evenodd;stroke:rgb(255, 25, 0);stroke-width:1;" d="M 170.266, 166.152 L 178.135, 155.243 L 235.01, 178.851 L 227.141, 189.761 L 176.168, 168.656 L 170.266, 166.152 z "/>
<path style="fill:rgb(0, 255, 0);fill-opacity:0;fill-rule:evenodd;stroke:rgb(255, 25, 0);stroke-width:1;" d="M 967.941, 334.988 L 971.876, 329.98 L 977.599, 328.728 L 1049.14, 359.311 L 1043.06, 367.717 L 1013.37, 354.84 L 967.941, 334.988 z "/>
<path style="fill:rgb(0, 0, 255);fill-opacity:0;fill-rule:evenodd;stroke:rgb(255, 25, 0);stroke-width:1;" d="M 187.257, 344.467 L 194.947, 333.736 L 252.359, 357.881 L 251.464, 358.954 L 244.489, 368.612 L 187.257, 344.467 z "/>
<path style="fill:rgb(255, 255, 0);fill-opacity:0;fill-rule:evenodd;stroke:rgb(255, 25, 0);stroke-width:1;" d="M 218.198, 303.51 L 224.994, 294.21 L 225.889, 293.673 L 226.962, 293.315 L 228.75, 293.673 L 282.584, 316.387 L 281.511, 317.818 L 274.715, 327.118 L 218.198, 303.51 z "/>
<path style="fill:rgb(255, 0, 0);fill-opacity:0;fill-rule:evenodd;stroke:rgb(255, 25, 0);stroke-width:1;" d="M 954.527, 655.31 L 962.575, 644.4 L 1018.38, 667.829 L 1010.51, 678.739 L 954.527, 655.31 z "/>
<path style="fill:rgb(0, 255, 0);fill-opacity:0;fill-rule:evenodd;stroke:rgb(255, 25, 0);stroke-width:1;" d="M 742.589, 186.363 L 760.474, 161.681 L 772.457, 145.227 L 787.123, 151.308 L 784.082, 155.421 L 757.255, 192.444 L 742.589, 186.363 z "/>
<path style="fill:rgb(0, 0, 255);fill-opacity:0;fill-rule:evenodd;stroke:rgb(255, 25, 0);stroke-width:1;" d="M 645.831, 222.49 L 653.879, 211.402 L 708.071, 234.116 L 700.022, 245.205 L 645.831, 222.49 z "/>
<path style="fill:rgb(255, 255, 0);fill-opacity:0;fill-rule:evenodd;stroke:rgb(255, 25, 0);stroke-width:1;" d="M 209.256, 313.347 L 216.767, 302.795 L 218.198, 303.51 L 274.715, 327.118 L 267.203, 337.67 L 209.256, 313.347 z "/>
<path style="fill:rgb(255, 0, 0);fill-opacity:0;fill-rule:evenodd;stroke:rgb(255, 25, 0);stroke-width:1;" d="M 734.362, 101.945 L 742.589, 90.8562 L 795.529, 113.034 L 787.48, 124.301 L 781.757, 121.976 L 734.362, 101.945 z "/>
<path style="fill:rgb(0, 255, 0);fill-opacity:0;fill-rule:evenodd;stroke:rgb(255, 25, 0);stroke-width:1;" d="M 962.575, 644.4 L 970.087, 633.848 L 984.216, 639.75 L 1024.64, 656.562 L 1026.07, 657.277 L 1018.38, 667.829 L 962.575, 644.4 z "/>
<path style="fill:rgb(0, 0, 255);fill-opacity:0;fill-rule:evenodd;stroke:rgb(255, 25, 0);stroke-width:1;" d="M 96.2218, 142.902 L 124.48, 103.376 L 139.504, 109.636 L 138.073, 111.603 L 111.245, 148.983 L 96.2218, 142.902 z "/>
<path style="fill:rgb(255, 255, 0);fill-opacity:0;fill-rule:evenodd;stroke:rgb(255, 25, 0);stroke-width:1;" d="M 251.285, 55.4438 L 258.976, 45.0704 L 314.956, 69.0364 L 307.266, 79.4098 L 251.285, 55.4438 z "/>
<path style="fill:rgb(255, 0, 0);fill-opacity:0;fill-rule:evenodd;stroke:rgb(255, 25, 0);stroke-width:1;" d="M 194.947, 333.736 L 202.459, 323.541 L 259.691, 347.686 L 252.359, 357.881 L 194.947, 333.736 z "/>
<path style="fill:rgb(0, 255, 0);fill-opacity:0;fill-rule:evenodd;stroke:rgb(255, 25, 0);stroke-width:1;" d="M 201.923, 323.362 L 209.256, 313.347 L 267.203, 337.67 L 259.691, 347.686 L 202.459, 323.541 L 201.923, 323.362 z "/>
<path style="fill:rgb(0, 0, 255);fill-opacity:0;fill-rule:evenodd;stroke:rgb(255, 25, 0);stroke-width:1;" d="M 716.477, 262.374 L 744.735, 223.564 L 759.759, 229.645 L 759.58, 229.823 L 751.174, 241.449 L 740.622, 255.936 L 732.573, 267.203 L 731.5, 268.634 L 716.477, 262.374 z "/>
<path style="fill:rgb(255, 255, 0);fill-opacity:0;fill-rule:evenodd;stroke:rgb(255, 25, 0);stroke-width:1;" d="M 183.859, 97.2949 L 189.582, 89.6043 L 213.906, 56.8746 L 228.035, 62.9555 L 225.71, 66.1748 L 198.167, 103.376 L 183.859, 97.2949 z "/>
<path style="fill:rgb(255, 0, 0);fill-opacity:0;fill-rule:evenodd;stroke:rgb(255, 25, 0);stroke-width:1;" d="M 494.88, 602.37 L 499.173, 596.647 L 523.675, 562.307 L 538.162, 568.388 L 509.546, 608.451 L 494.88, 602.37 z "/>
<path style="fill:rgb(0, 255, 0);fill-opacity:0;fill-rule:evenodd;stroke:rgb(255, 25, 0);stroke-width:1;" d="M 186.363, 674.804 L 194.232, 664.252 L 247.887, 687.145 L 240.018, 697.876 L 186.363, 674.804 z "/>
<path style="fill:rgb(0, 0, 255);fill-opacity:0;fill-rule:evenodd;stroke:rgb(255, 25, 0);stroke-width:1;" d="M 448.379, 640.644 L 448.558, 640.465 L 476.816, 601.476 L 491.482, 607.556 L 489.515, 610.239 L 463.045, 646.904 L 448.379, 640.644 z "/>
<path style="fill:rgb(255, 255, 0);fill-opacity:0;fill-rule:evenodd;stroke:rgb(255, 25, 0);stroke-width:1;" d="M 243.774, 65.6383 L 246.635, 61.8824 L 251.285, 55.4438 L 307.266, 79.4098 L 299.933, 89.6043 L 243.774, 65.6383 z "/>
<path style="fill:rgb(255, 0, 0);fill-opacity:0;fill-rule:evenodd;stroke:rgb(255, 25, 0);stroke-width:1;" d="M 604.158, 507.221 L 634.742, 465.012 L 648.334, 470.736 L 621.149, 508.115 L 617.751, 512.944 L 610.06, 509.546 L 604.158, 507.221 z "/>
<path style="fill:rgb(0, 255, 0);fill-opacity:0;fill-rule:evenodd;stroke:rgb(255, 25, 0);stroke-width:1;" d="M 784.44, 203.89 L 811.446, 167.047 L 826.828, 173.485 L 805.366, 203.175 L 800, 210.507 L 784.44, 203.89 z "/>
<path style="fill:rgb(0, 0, 255);fill-opacity:0;fill-rule:evenodd;stroke:rgb(255, 25, 0);stroke-width:1;" d="M 545.316, 684.283 L 546.926, 682.137 L 574.111, 644.757 L 575.542, 642.611 L 589.135, 648.334 L 572.323, 671.406 L 560.519, 687.86 L 558.909, 690.007 L 545.316, 684.283 z "/>
<path style="fill:rgb(255, 255, 0);fill-opacity:0;fill-rule:evenodd;stroke:rgb(255, 25, 0);stroke-width:1;" d="M 369.327, 387.033 L 388.285, 361.1 L 409.926, 370.221 L 390.968, 396.155 L 369.327, 387.033 z "/>
<path style="fill:rgb(255, 0, 0);fill-opacity:0;fill-rule:evenodd;stroke:rgb(255, 25, 0);stroke-width:1;" d="M 228.035, 86.9215 L 235.368, 76.9059 L 291.527, 100.872 L 284.015, 110.888 L 228.035, 86.9215 z "/>
<path style="fill:rgb(0, 255, 0);fill-opacity:0;fill-rule:evenodd;stroke:rgb(255, 25, 0);stroke-width:1;" d="M 378.985, 412.609 L 387.033, 401.699 L 437.469, 422.982 L 429.421, 433.892 L 378.985, 412.609 z "/>
<path style="fill:rgb(0, 0, 255);fill-opacity:0;fill-rule:evenodd;stroke:rgb(255, 25, 0);stroke-width:1;" d="M 742.589, 90.8562 L 750.101, 80.304 L 803.219, 102.66 L 795.529, 113.034 L 742.589, 90.8562 z "/>
<path style="fill:rgb(255, 255, 0);fill-opacity:0;fill-rule:evenodd;stroke:rgb(255, 25, 0);stroke-width:1;" d="M 760.832, 591.46 L 770.668, 577.867 L 780.505, 581.981 L 781.757, 585.021 L 818.779, 600.402 L 811.268, 610.776 L 774.067, 595.216 L 770.668, 595.395 L 764.051, 592.712 L 760.832, 591.46 z "/>
<path style="fill:rgb(255, 0, 0);fill-opacity:0;fill-rule:evenodd;stroke:rgb(255, 25, 0);stroke-width:1;" d="M 168.478, 179.387 L 176.168, 168.656 L 227.141, 189.761 L 219.45, 200.671 L 168.478, 179.387 z "/>
<path style="fill:rgb(0, 255, 0);fill-opacity:0;fill-rule:evenodd;stroke:rgb(255, 25, 0);stroke-width:1;" d="M 429.242, 343.394 L 436.575, 333.199 L 490.051, 355.556 L 482.54, 365.75 L 429.242, 343.394 z "/>
<path style="fill:rgb(0, 0, 255);fill-opacity:0;fill-rule:evenodd;stroke:rgb(255, 25, 0);stroke-width:1;" d="M 89.4254, 201.207 L 92.1082, 197.451 L 116.968, 162.933 L 131.098, 168.835 L 130.382, 170.087 L 103.734, 207.109 L 89.4254, 201.207 z "/>
<path style="fill:rgb(255, 255, 0);fill-opacity:0;fill-rule:evenodd;stroke:rgb(255, 25, 0);stroke-width:1;" d="M 899.62, 467.516 L 919.294, 440.331 L 938.967, 448.558 L 919.294, 475.922 L 899.62, 467.516 z "/>
<path style="fill:rgb(255, 0, 0);fill-opacity:0;fill-rule:evenodd;stroke:rgb(255, 25, 0);stroke-width:1;" d="M 59.0208, 622.58 L 68.4999, 609.703 L 74.5808, 601.297 L 87.4581, 584.127 L 101.23, 590.029 L 81.1983, 617.036 L 73.5077, 627.409 L 72.7923, 628.482 L 59.0208, 622.58 z "/>
<path style="fill:rgb(0, 255, 0);fill-opacity:0;fill-rule:evenodd;stroke:rgb(255, 25, 0);stroke-width:1;" d="M 638.319, 232.864 L 645.831, 222.49 L 700.022, 245.205 L 694.299, 253.074 L 682.316, 248.066 L 680.528, 250.57 L 638.319, 232.864 z "/>
<path style="fill:rgb(0, 0, 255);fill-opacity:0;fill-rule:evenodd;stroke:rgb(255, 25, 0);stroke-width:1;" d="M 1000.13, 372.368 L 1003.17, 368.612 L 1013.37, 354.84 L 1043.06, 367.717 L 1030.36, 384.887 L 1000.13, 372.368 z "/>
<path style="fill:rgb(255, 255, 0);fill-opacity:0;fill-rule:evenodd;stroke:rgb(255, 25, 0);stroke-width:1;" d="M 678.381, 304.225 L 705.388, 267.024 L 707.534, 264.163 L 720.59, 269.528 L 717.013, 274.357 L 691.438, 309.77 L 678.381, 304.225 z "/>
<path style="fill:rgb(255, 0, 0);fill-opacity:0;fill-rule:evenodd;stroke:rgb(255, 25, 0);stroke-width:1;" d="M 103.734, 207.109 L 130.382, 170.087 L 144.512, 175.81 L 142.186, 178.851 L 137.894, 185.111 L 130.025, 195.842 L 117.684, 213.011 L 103.734, 207.109 z "/>
<path style="fill:rgb(0, 255, 0);fill-opacity:0;fill-rule:evenodd;stroke:rgb(255, 25, 0);stroke-width:1;" d="M 609.703, 419.226 L 625.442, 397.586 L 628.482, 398.837 L 640.823, 381.847 L 643.863, 381.847 L 647.082, 382.562 L 649.944, 383.814 L 652.09, 386.497 L 634.026, 411.536 L 624.19, 425.307 L 609.703, 419.226 z "/>
<path style="fill:rgb(0, 0, 255);fill-opacity:0;fill-rule:evenodd;stroke:rgb(255, 25, 0);stroke-width:1;" d="M 480.751, 160.966 L 509.725, 121.44 L 522.781, 126.984 L 493.807, 166.51 L 480.751, 160.966 z "/>
<path style="fill:rgb(255, 255, 0);fill-opacity:0;fill-rule:evenodd;stroke:rgb(255, 25, 0);stroke-width:1;" d="M 946.121, 630.628 L 947.731, 628.482 L 964.543, 605.231 L 984.216, 613.459 L 972.412, 629.734 L 965.795, 638.855 L 946.121, 630.628 z "/>
<path style="fill:rgb(255, 0, 0);fill-opacity:0;fill-rule:evenodd;stroke:rgb(255, 25, 0);stroke-width:1;" d="M 530.114, 181.891 L 557.657, 144.512 L 570.713, 150.056 L 556.047, 170.087 L 543.17, 187.615 L 530.114, 181.891 z "/>
<path style="fill:rgb(0, 255, 0);fill-opacity:0;fill-rule:evenodd;stroke:rgb(255, 25, 0);stroke-width:1;" d="M 568.209, 545.495 L 585.021, 522.423 L 598.077, 504.538 L 604.158, 507.221 L 610.06, 509.546 L 600.045, 523.497 L 580.192, 550.503 L 568.209, 545.495 z "/>
<path style="fill:rgb(0, 0, 255);fill-opacity:0;fill-rule:evenodd;stroke:rgb(255, 25, 0);stroke-width:1;" d="M 970.803, 427.454 L 990.476, 400.626 L 1001.56, 385.603 L 1013.37, 390.431 L 982.428, 432.461 L 970.803, 427.454 z "/>
<path style="fill:rgb(255, 255, 0);fill-opacity:0;fill-rule:evenodd;stroke:rgb(255, 25, 0);stroke-width:1;" d="M 507.579, 611.312 L 509.546, 608.451 L 538.162, 568.388 L 549.788, 573.217 L 524.57, 608.272 L 519.025, 615.962 L 507.579, 611.312 z "/>
<path style="fill:rgb(255, 0, 0);fill-opacity:0;fill-rule:evenodd;stroke:rgb(255, 25, 0);stroke-width:1;" d="M 282.942, 372.189 L 313.347, 330.516 L 324.972, 335.345 L 294.746, 377.018 L 282.942, 372.189 z "/>
<path style="fill:rgb(0, 255, 0);fill-opacity:0;fill-rule:evenodd;stroke:rgb(255, 25, 0);stroke-width:1;" d="M 337.492, 304.941 L 361.636, 271.496 L 375.945, 277.577 L 351.979, 311.201 L 337.492, 304.941 z "/>
<path style="fill:rgb(0, 0, 255);fill-opacity:0;fill-rule:evenodd;stroke:rgb(255, 25, 0);stroke-width:1;" d="M 488.621, 657.635 L 515.269, 621.149 L 518.31, 616.857 L 530.114, 621.686 L 528.326, 624.19 L 517.416, 639.213 L 511.156, 647.977 L 500.425, 662.643 L 488.621, 657.635 z "/>
<path style="fill:rgb(255, 255, 0);fill-opacity:0;fill-rule:evenodd;stroke:rgb(255, 25, 0);stroke-width:1;" d="M 770.311, 577.688 L 776.571, 569.104 L 777.286, 569.461 L 806.081, 581.623 L 822.178, 588.419 L 830.226, 591.639 L 823.787, 600.581 L 784.082, 583.948 L 781.221, 582.338 L 780.505, 581.981 L 770.668, 577.867 L 770.311, 577.688 z "/>
<path style="fill:rgb(255, 0, 0);fill-opacity:0;fill-rule:evenodd;stroke:rgb(255, 25, 0);stroke-width:1;" d="M 856.875, 198.524 L 876.012, 172.591 L 893.897, 180.282 L 874.939, 206.036 L 856.875, 198.524 z "/>
<path style="fill:rgb(0, 255, 0);fill-opacity:0;fill-rule:evenodd;stroke:rgb(255, 25, 0);stroke-width:1;" d="M 554.795, 343.036 L 561.949, 333.02 L 607.556, 352.157 L 605.053, 355.556 L 607.199, 356.45 L 602.37, 363.067 L 554.795, 343.036 z "/>
<path style="fill:rgb(0, 0, 255);fill-opacity:0;fill-rule:evenodd;stroke:rgb(255, 25, 0);stroke-width:1;" d="M 139.683, 61.5247 L 150.235, 47.0378 L 182.428, 60.4516 L 171.876, 74.9385 L 139.683, 61.5247 z "/>
<path style="fill:rgb(255, 255, 0);fill-opacity:0;fill-rule:evenodd;stroke:rgb(255, 25, 0);stroke-width:1;" d="M 178.135, 155.243 L 184.038, 147.015 L 240.912, 170.803 L 235.01, 178.851 L 178.135, 155.243 z "/>
<path style="fill:rgb(255, 0, 0);fill-opacity:0;fill-rule:evenodd;stroke:rgb(255, 25, 0);stroke-width:1;" d="M 739.012, 329.801 L 764.766, 294.389 L 766.197, 292.242 L 778.538, 297.429 L 751.353, 334.809 L 739.012, 329.801 z "/>
<path style="fill:rgb(0, 255, 0);fill-opacity:0;fill-rule:evenodd;stroke:rgb(255, 25, 0);stroke-width:1;" d="M 261.122, 363.067 L 291.169, 321.753 L 302.437, 326.582 L 272.39, 367.717 L 268.813, 366.287 L 261.122, 363.067 z "/>
<path style="fill:rgb(0, 0, 255);fill-opacity:0;fill-rule:evenodd;stroke:rgb(255, 25, 0);stroke-width:1;" d="M 466.443, 294.031 L 472.703, 285.267 L 525.106, 307.087 L 518.668, 315.851 L 466.443, 294.031 z "/>
<path style="fill:rgb(255, 255, 0);fill-opacity:0;fill-rule:evenodd;stroke:rgb(255, 25, 0);stroke-width:1;" d="M 833.266, 658.708 L 859.915, 621.686 L 860.452, 621.149 L 872.435, 626.157 L 870.288, 629.197 L 846.144, 662.464 L 845.249, 663.716 L 833.266, 658.708 z "/>
<path style="fill:rgb(255, 0, 0);fill-opacity:0;fill-rule:evenodd;stroke:rgb(255, 25, 0);stroke-width:1;" d="M 911.603, 486.474 L 919.294, 475.922 L 938.967, 448.558 L 952.381, 454.102 L 951.308, 455.354 L 935.211, 477.711 L 931.277, 483.255 L 929.13, 482.54 L 928.415, 483.613 L 923.228, 481.467 L 917.684, 489.157 L 911.603, 486.474 z "/>
<path style="fill:rgb(0, 255, 0);fill-opacity:0;fill-rule:evenodd;stroke:rgb(255, 25, 0);stroke-width:1;" d="M 272.39, 367.717 L 302.437, 326.582 L 302.795, 326.045 L 313.347, 330.516 L 282.942, 372.189 L 272.39, 367.717 z "/>
<path style="fill:rgb(0, 0, 255);fill-opacity:0;fill-rule:evenodd;stroke:rgb(255, 25, 0);stroke-width:1;" d="M 627.767, 572.323 L 648.513, 543.886 L 655.131, 534.764 L 666.577, 539.593 L 659.066, 549.966 L 639.213, 577.152 L 627.767, 572.323 z "/>
<path style="fill:rgb(255, 255, 0);fill-opacity:0;fill-rule:evenodd;stroke:rgb(255, 25, 0);stroke-width:1;" d="M 578.404, 494.165 L 589.314, 479.32 L 585.379, 477.711 L 601.476, 455.533 L 604.516, 456.785 L 607.02, 453.387 L 616.32, 457.322 L 586.81, 497.742 L 578.404, 494.165 z "/>
<path style="fill:rgb(255, 0, 0);fill-opacity:0;fill-rule:evenodd;stroke:rgb(255, 25, 0);stroke-width:1;" d="M 461.614, 300.648 L 466.443, 294.031 L 518.668, 315.851 L 512.587, 324.257 L 483.255, 312.095 L 465.191, 304.583 L 466.443, 302.795 L 461.614, 300.648 z "/>
<path style="fill:rgb(0, 255, 0);fill-opacity:0;fill-rule:evenodd;stroke:rgb(255, 25, 0);stroke-width:1;" d="M 659.96, 441.404 L 660.139, 441.046 L 670.512, 426.917 L 687.503, 403.488 L 698.77, 408.138 L 692.153, 417.259 L 671.227, 446.054 L 659.96, 441.404 z "/>
<path style="fill:rgb(0, 0, 255);fill-opacity:0;fill-rule:evenodd;stroke:rgb(255, 25, 0);stroke-width:1;" d="M 953.991, 510.619 L 957.21, 505.969 L 984.038, 468.947 L 994.232, 473.239 L 970.803, 505.611 L 964.185, 514.733 L 953.991, 510.619 z "/>
<path style="fill:rgb(255, 255, 0);fill-opacity:0;fill-rule:evenodd;stroke:rgb(255, 25, 0);stroke-width:1;" d="M 361.994, 315.314 L 386.854, 280.975 L 399.195, 286.161 L 397.049, 289.023 L 374.335, 320.501 L 361.994, 315.314 z "/>
<path style="fill:rgb(255, 0, 0);fill-opacity:0;fill-rule:evenodd;stroke:rgb(255, 25, 0);stroke-width:1;" d="M 472.345, 217.125 L 499.352, 180.461 L 510.619, 185.29 L 503.465, 194.947 L 483.613, 221.954 L 472.345, 217.125 z "/>
<path style="fill:rgb(0, 255, 0);fill-opacity:0;fill-rule:evenodd;stroke:rgb(255, 25, 0);stroke-width:1;" d="M 460.183, 572.681 L 461.078, 571.607 L 480.393, 544.422 L 495.238, 550.503 L 474.849, 578.761 L 460.183, 572.681 z "/>
<path style="fill:rgb(0, 0, 255);fill-opacity:0;fill-rule:evenodd;stroke:rgb(255, 25, 0);stroke-width:1;" d="M 451.777, 287.235 L 460.541, 275.252 L 463.045, 276.325 L 469.662, 267.024 L 467.159, 266.13 L 475.922, 253.968 L 489.336, 259.513 L 480.215, 272.211 L 477.711, 271.138 L 476.101, 273.463 L 478.605, 274.536 L 476.101, 277.755 L 473.597, 276.682 L 471.451, 279.902 L 473.955, 280.796 L 471.272, 284.552 L 465.191, 292.958 L 451.777, 287.235 z "/>
<path style="fill:rgb(255, 255, 0);fill-opacity:0;fill-rule:evenodd;stroke:rgb(255, 25, 0);stroke-width:1;" d="M 983.143, 510.619 L 1006.39, 478.426 L 1019.09, 483.613 L 1003.53, 505.075 L 995.663, 515.985 L 983.143, 510.619 z "/>
<path style="fill:rgb(255, 0, 0);fill-opacity:0;fill-rule:evenodd;stroke:rgb(255, 25, 0);stroke-width:1;" d="M 346.255, 427.275 L 360.385, 407.422 L 364.677, 401.699 L 372.904, 405.097 L 372.368, 405.634 L 380.595, 409.032 L 363.067, 433.356 L 354.482, 429.779 L 353.946, 430.494 L 346.255, 427.275 z "/>
<path style="fill:rgb(0, 255, 0);fill-opacity:0;fill-rule:evenodd;stroke:rgb(255, 25, 0);stroke-width:1;" d="M 927.163, 553.722 L 927.878, 552.828 L 947.194, 526 L 956.495, 513.302 L 966.51, 517.416 L 957.389, 530.293 L 938.252, 556.584 L 937.179, 558.015 L 927.163, 553.722 z "/>
<path style="fill:rgb(0, 0, 255);fill-opacity:0;fill-rule:evenodd;stroke:rgb(255, 25, 0);stroke-width:1;" d="M 946.3, 501.319 L 956.852, 486.832 L 973.128, 464.476 L 984.038, 468.947 L 957.21, 505.969 L 946.3, 501.319 z "/>
<path style="fill:rgb(255, 255, 0);fill-opacity:0;fill-rule:evenodd;stroke:rgb(255, 25, 0);stroke-width:1;" d="M 426.381, 274 L 449.273, 242.343 L 461.793, 247.53 L 449.631, 264.52 L 439.079, 279.007 L 438.9, 279.365 L 426.381, 274 z "/>
<path style="fill:rgb(255, 0, 0);fill-opacity:0;fill-rule:evenodd;stroke:rgb(255, 25, 0);stroke-width:1;" d="M 251.464, 358.954 L 252.359, 357.881 L 259.691, 347.686 L 267.203, 337.67 L 274.715, 327.118 L 281.511, 317.818 L 291.169, 321.753 L 261.122, 363.067 L 251.464, 358.954 z "/>
<path style="fill:rgb(0, 255, 0);fill-opacity:0;fill-rule:evenodd;stroke:rgb(255, 25, 0);stroke-width:1;" d="M 324.614, 436.217 L 334.63, 422.446 L 346.255, 427.275 L 353.946, 430.494 L 363.246, 434.25 L 353.23, 448.2 L 324.614, 436.217 z "/>
<path style="fill:rgb(0, 0, 255);fill-opacity:0;fill-rule:evenodd;stroke:rgb(255, 25, 0);stroke-width:1;" d="M 970.803, 505.611 L 994.232, 473.239 L 1006.39, 478.426 L 983.143, 510.619 L 970.803, 505.611 z "/>
<path style="fill:rgb(255, 255, 0);fill-opacity:0;fill-rule:evenodd;stroke:rgb(255, 25, 0);stroke-width:1;" d="M 235.547, 381.131 L 235.904, 380.595 L 244.489, 368.612 L 251.464, 358.954 L 261.122, 363.067 L 268.813, 366.287 L 258.797, 379.879 L 260.407, 380.595 L 262.374, 383.635 L 261.838, 384.351 L 260.407, 386.318 L 257.188, 386.676 L 255.399, 385.781 L 254.684, 386.676 L 253.253, 386.676 L 252.001, 386.139 L 251.643, 385.424 L 252.18, 384.708 L 249.676, 383.635 L 247.887, 386.318 L 235.547, 381.131 z "/>
<path style="fill:rgb(255, 0, 0);fill-opacity:0;fill-rule:evenodd;stroke:rgb(255, 25, 0);stroke-width:1;" d="M 483.613, 221.954 L 503.465, 194.947 L 517.594, 200.85 L 497.742, 228.035 L 483.613, 221.954 z "/>
<path style="fill:rgb(0, 255, 0);fill-opacity:0;fill-rule:evenodd;stroke:rgb(255, 25, 0);stroke-width:1;" d="M 874.223, 435.323 L 882.093, 424.592 L 917.863, 439.437 L 909.993, 450.168 L 874.223, 435.323 z "/>
<path style="fill:rgb(0, 0, 255);fill-opacity:0;fill-rule:evenodd;stroke:rgb(255, 25, 0);stroke-width:1;" d="M 822.178, 588.419 L 828.08, 580.371 L 844.892, 557.121 L 845.249, 556.584 L 856.875, 561.413 L 837.916, 587.525 L 833.803, 593.248 L 830.226, 591.639 L 822.178, 588.419 z "/>
<path style="fill:rgb(255, 255, 0);fill-opacity:0;fill-rule:evenodd;stroke:rgb(255, 25, 0);stroke-width:1;" d="M 846.144, 662.464 L 870.288, 629.197 L 881.198, 633.848 L 875.117, 642.254 L 857.053, 667.114 L 846.144, 662.464 z "/>
<path style="fill:rgb(255, 0, 0);fill-opacity:0;fill-rule:evenodd;stroke:rgb(255, 25, 0);stroke-width:1;" d="M 374.335, 320.501 L 397.049, 289.023 L 408.674, 293.852 L 385.96, 325.33 L 374.335, 320.501 z "/>
<path style="fill:rgb(0, 255, 0);fill-opacity:0;fill-rule:evenodd;stroke:rgb(255, 25, 0);stroke-width:1;" d="M 914.465, 736.15 L 920.545, 727.923 L 963.649, 746.345 L 957.746, 754.393 L 957.031, 754.035 L 918.399, 737.76 L 914.465, 736.15 z "/>
<path style="fill:rgb(0, 0, 255);fill-opacity:0;fill-rule:evenodd;stroke:rgb(255, 25, 0);stroke-width:1;" d="M 978.314, 67.2479 L 979.387, 65.6383 L 998.524, 39.8837 L 1011.22, 45.2493 L 991.013, 72.6135 L 982.07, 68.8576 L 978.314, 67.2479 z "/>
<path style="fill:rgb(255, 255, 0);fill-opacity:0;fill-rule:evenodd;stroke:rgb(255, 25, 0);stroke-width:1;" d="M 957.925, 421.909 L 977.778, 395.082 L 990.476, 400.626 L 970.803, 427.454 L 957.925, 421.909 z "/>
<path style="fill:rgb(255, 0, 0);fill-opacity:0;fill-rule:evenodd;stroke:rgb(255, 25, 0);stroke-width:1;" d="M 905.88, 543.707 L 910.351, 537.626 L 926.448, 515.269 L 930.919, 509.188 L 938.073, 512.05 L 932.529, 519.92 L 935.927, 521.35 L 916.611, 548.178 L 905.88, 543.707 z "/>
<path style="fill:rgb(0, 255, 0);fill-opacity:0;fill-rule:evenodd;stroke:rgb(255, 25, 0);stroke-width:1;" d="M 671.227, 446.054 L 692.153, 417.259 L 703.778, 422.088 L 682.853, 450.883 L 671.227, 446.054 z "/>
<path style="fill:rgb(0, 0, 255);fill-opacity:0;fill-rule:evenodd;stroke:rgb(255, 25, 0);stroke-width:1;" d="M 988.867, 380.058 L 995.663, 370.579 L 1000.13, 372.368 L 1030.36, 384.887 L 1023.03, 394.724 L 1013.37, 390.431 L 1001.56, 385.603 L 988.867, 380.058 z "/>
<path style="fill:rgb(255, 255, 0);fill-opacity:0;fill-rule:evenodd;stroke:rgb(255, 25, 0);stroke-width:1;" d="M 956.852, 697.697 L 964.722, 686.787 L 994.232, 699.128 L 986.363, 710.038 L 956.852, 697.697 z "/>
<path style="fill:rgb(255, 0, 0);fill-opacity:0;fill-rule:evenodd;stroke:rgb(255, 25, 0);stroke-width:1;" d="M 634.026, 54.9072 L 648.334, 52.0456 L 658.171, 79.0521 L 643.863, 81.9137 L 634.026, 54.9072 z "/>
<path style="fill:rgb(0, 255, 0);fill-opacity:0;fill-rule:evenodd;stroke:rgb(255, 25, 0);stroke-width:1;" d="M 848.647, 591.996 L 867.606, 565.884 L 879.767, 570.892 L 860.809, 597.183 L 848.647, 591.996 z "/>
<path style="fill:rgb(0, 0, 255);fill-opacity:0;fill-rule:evenodd;stroke:rgb(255, 25, 0);stroke-width:1;" d="M 704.494, 460.004 L 723.631, 433.356 L 735.256, 438.185 L 716.119, 464.833 L 704.494, 460.004 z "/>
<path style="fill:rgb(255, 255, 0);fill-opacity:0;fill-rule:evenodd;stroke:rgb(255, 25, 0);stroke-width:1;" d="M 543.528, 535.122 L 560.34, 512.05 L 573.575, 517.594 L 556.763, 540.666 L 543.528, 535.122 z "/>
<path style="fill:rgb(255, 0, 0);fill-opacity:0;fill-rule:evenodd;stroke:rgb(255, 25, 0);stroke-width:1;" d="M 949.34, 561.234 L 968.299, 534.764 L 970.266, 532.081 L 976.347, 534.585 L 975.81, 535.301 L 980.461, 537.089 L 975.632, 543.886 L 959.893, 565.526 L 949.34, 561.234 z "/>
<path style="fill:rgb(0, 255, 0);fill-opacity:0;fill-rule:evenodd;stroke:rgb(255, 25, 0);stroke-width:1;" d="M 882.987, 606.483 L 902.482, 579.477 L 913.749, 584.127 L 897.116, 607.199 L 894.254, 611.133 L 882.987, 606.483 z "/>
<path style="fill:rgb(0, 0, 255);fill-opacity:0;fill-rule:evenodd;stroke:rgb(255, 25, 0);stroke-width:1;" d="M 916.611, 548.178 L 935.927, 521.35 L 947.194, 526 L 927.878, 552.828 L 916.611, 548.178 z "/>
<path style="fill:rgb(255, 255, 0);fill-opacity:0;fill-rule:evenodd;stroke:rgb(255, 25, 0);stroke-width:1;" d="M 355.913, 405.634 L 357.344, 403.488 L 369.327, 387.033 L 390.968, 396.155 L 387.033, 401.699 L 381.847, 408.853 L 372.904, 405.097 L 364.677, 401.699 L 360.385, 407.422 L 355.913, 405.634 z "/>
<path style="fill:rgb(255, 0, 0);fill-opacity:0;fill-rule:evenodd;stroke:rgb(255, 25, 0);stroke-width:1;" d="M 969.193, 386.318 L 987.615, 361.815 L 1003.17, 368.612 L 1000.13, 372.368 L 995.663, 370.579 L 988.867, 380.058 L 980.282, 391.683 L 969.193, 386.318 z "/>
<path style="fill:rgb(0, 255, 0);fill-opacity:0;fill-rule:evenodd;stroke:rgb(255, 25, 0);stroke-width:1;" d="M 891.035, 760.474 L 894.97, 755.645 L 911.245, 762.62 L 941.292, 775.319 L 936.106, 782.473 L 934.675, 781.936 L 906.059, 769.774 L 907.668, 767.449 L 891.035, 760.474 z "/>
<path style="fill:rgb(0, 0, 255);fill-opacity:0;fill-rule:evenodd;stroke:rgb(255, 25, 0);stroke-width:1;" d="M 968.12, 60.8093 L 987.078, 35.0548 L 998.524, 39.8837 L 979.387, 65.6383 L 968.12, 60.8093 z "/>
<path style="fill:rgb(255, 255, 0);fill-opacity:0;fill-rule:evenodd;stroke:rgb(255, 25, 0);stroke-width:1;" d="M 857.053, 667.114 L 875.117, 642.254 L 886.922, 647.082 L 868.679, 672.122 L 857.053, 667.114 z "/>
<path style="fill:rgb(255, 0, 0);fill-opacity:0;fill-rule:evenodd;stroke:rgb(255, 25, 0);stroke-width:1;" d="M 938.252, 556.584 L 957.389, 530.293 L 968.299, 534.764 L 949.34, 561.234 L 938.252, 556.584 z "/>
<path style="fill:rgb(0, 255, 0);fill-opacity:0;fill-rule:evenodd;stroke:rgb(255, 25, 0);stroke-width:1;" d="M 837.916, 587.525 L 856.875, 561.413 L 867.606, 565.884 L 848.647, 591.996 L 837.916, 587.525 z "/>
<path style="fill:rgb(0, 0, 255);fill-opacity:0;fill-rule:evenodd;stroke:rgb(255, 25, 0);stroke-width:1;" d="M 980.103, 96.9372 L 990.297, 83.1657 L 1007.65, 90.4985 L 1005.32, 93.539 L 1010.33, 95.5064 L 1004.61, 103.376 L 999.776, 101.23 L 997.451, 104.449 L 980.103, 96.9372 z "/>
<path style="fill:rgb(255, 255, 0);fill-opacity:0;fill-rule:evenodd;stroke:rgb(255, 25, 0);stroke-width:1;" d="M 783.903, 129.13 L 787.48, 124.301 L 795.529, 113.034 L 803.219, 102.66 L 813.414, 106.953 L 794.098, 133.602 L 783.903, 129.13 z "/>
<path style="fill:rgb(255, 0, 0);fill-opacity:0;fill-rule:evenodd;stroke:rgb(255, 25, 0);stroke-width:1;" d="M 957.746, 56.5169 L 975.274, 32.5509 L 976.705, 30.5835 L 987.078, 35.0548 L 968.12, 60.8093 L 957.746, 56.5169 z "/>
<path style="fill:rgb(0, 255, 0);fill-opacity:0;fill-rule:evenodd;stroke:rgb(255, 25, 0);stroke-width:1;" d="M 556.763, 540.666 L 573.575, 517.594 L 585.021, 522.423 L 568.209, 545.495 L 556.763, 540.666 z "/>
<path style="fill:rgb(0, 0, 255);fill-opacity:0;fill-rule:evenodd;stroke:rgb(255, 25, 0);stroke-width:1;" d="M 66.8902, 289.56 L 71.5404, 283.121 L 111.961, 300.112 L 107.311, 306.55 L 66.8902, 289.56 z "/>
<path style="fill:rgb(255, 255, 0);fill-opacity:0;fill-rule:evenodd;stroke:rgb(255, 25, 0);stroke-width:1;" d="M 913.57, 744.556 L 918.399, 737.76 L 957.031, 754.035 L 952.023, 760.832 L 921.976, 747.954 L 913.57, 744.556 z "/>
<path style="fill:rgb(255, 0, 0);fill-opacity:0;fill-rule:evenodd;stroke:rgb(255, 25, 0);stroke-width:1;" d="M 816.991, 575.542 L 833.803, 552.47 L 844.892, 557.121 L 828.08, 580.371 L 816.991, 575.542 z "/>
<path style="fill:rgb(0, 255, 0);fill-opacity:0;fill-rule:evenodd;stroke:rgb(255, 25, 0);stroke-width:1;" d="M 897.116, 607.199 L 913.749, 584.127 L 914.822, 582.875 L 925.196, 587.346 L 924.838, 587.883 L 910.888, 607.02 L 907.489, 611.491 L 897.116, 607.199 z "/>
<path style="fill:rgb(0, 0, 255);fill-opacity:0;fill-rule:evenodd;stroke:rgb(255, 25, 0);stroke-width:1;" d="M 777.286, 569.461 L 783.546, 560.698 L 812.341, 572.859 L 806.081, 581.623 L 777.286, 569.461 z "/>
<path style="fill:rgb(255, 255, 0);fill-opacity:0;fill-rule:evenodd;stroke:rgb(255, 25, 0);stroke-width:1;" d="M 937.179, 624.011 L 940.577, 619.539 L 954.527, 600.224 L 965.079, 604.695 L 964.543, 605.231 L 947.731, 628.482 L 937.179, 624.011 z "/>
<path style="fill:rgb(255, 0, 0);fill-opacity:0;fill-rule:evenodd;stroke:rgb(255, 25, 0);stroke-width:1;" d="M 783.546, 560.698 L 789.805, 552.113 L 818.6, 564.275 L 812.341, 572.859 L 783.546, 560.698 z "/>
<path style="fill:rgb(0, 255, 0);fill-opacity:0;fill-rule:evenodd;stroke:rgb(255, 25, 0);stroke-width:1;" d="M 945.942, 482.182 L 962.039, 459.826 L 973.128, 464.476 L 956.852, 486.832 L 945.942, 482.182 z "/>
<path style="fill:rgb(0, 0, 255);fill-opacity:0;fill-rule:evenodd;stroke:rgb(255, 25, 0);stroke-width:1;" d="M 789.805, 552.113 L 796.065, 543.707 L 824.86, 555.69 L 818.6, 564.275 L 789.805, 552.113 z "/>
<path style="fill:rgb(255, 255, 0);fill-opacity:0;fill-rule:evenodd;stroke:rgb(255, 25, 0);stroke-width:1;" d="M 238.229, 475.743 L 246.099, 465.37 L 248.603, 466.443 L 267.024, 474.313 L 269.349, 475.386 L 261.659, 485.759 L 259.155, 484.686 L 240.733, 476.816 L 238.229, 475.743 z "/>
<path style="fill:rgb(255, 0, 0);fill-opacity:0;fill-rule:evenodd;stroke:rgb(255, 25, 0);stroke-width:1;" d="M 970.803, 570.177 L 986.541, 548.536 L 997.988, 553.186 L 982.249, 574.827 L 970.803, 570.177 z "/>
<path style="fill:rgb(0, 255, 0);fill-opacity:0;fill-rule:evenodd;stroke:rgb(255, 25, 0);stroke-width:1;" d="M 796.065, 543.707 L 802.146, 535.301 L 830.941, 547.284 L 824.86, 555.69 L 796.065, 543.707 z "/>
<path style="fill:rgb(0, 0, 255);fill-opacity:0;fill-rule:evenodd;stroke:rgb(255, 25, 0);stroke-width:1;" d="M 449.631, 264.52 L 461.793, 247.53 L 476.101, 253.611 L 475.922, 253.968 L 467.159, 266.13 L 463.939, 270.423 L 449.631, 264.52 z "/>
<path style="fill:rgb(255, 255, 0);fill-opacity:0;fill-rule:evenodd;stroke:rgb(255, 25, 0);stroke-width:1;" d="M 799.285, 211.223 L 800, 210.507 L 805.366, 203.175 L 834.697, 215.515 L 828.795, 223.564 L 799.285, 211.223 z "/>
<path style="fill:rgb(255, 0, 0);fill-opacity:0;fill-rule:evenodd;stroke:rgb(255, 25, 0);stroke-width:1;" d="M 959.893, 565.526 L 975.632, 543.886 L 986.541, 548.536 L 970.803, 570.177 L 959.893, 565.526 z "/>
<path style="fill:rgb(0, 255, 0);fill-opacity:0;fill-rule:evenodd;stroke:rgb(255, 25, 0);stroke-width:1;" d="M 935.211, 477.711 L 951.308, 455.354 L 962.039, 459.826 L 945.942, 482.182 L 935.211, 477.711 z "/>
<path style="fill:rgb(0, 0, 255);fill-opacity:0;fill-rule:evenodd;stroke:rgb(255, 25, 0);stroke-width:1;" d="M 854.907, 134.496 L 860.452, 126.805 L 889.783, 139.146 L 884.06, 146.837 L 854.907, 134.496 z "/>
<path style="fill:rgb(255, 255, 0);fill-opacity:0;fill-rule:evenodd;stroke:rgb(255, 25, 0);stroke-width:1;" d="M 911.245, 762.62 L 916.611, 755.287 L 946.837, 767.986 L 941.292, 775.319 L 911.245, 762.62 z "/>
<path style="fill:rgb(255, 0, 0);fill-opacity:0;fill-rule:evenodd;stroke:rgb(255, 25, 0);stroke-width:1;" d="M 916.611, 755.287 L 921.976, 747.954 L 952.023, 760.832 L 946.837, 767.986 L 916.611, 755.287 z "/>
<path style="fill:rgb(0, 255, 0);fill-opacity:0;fill-rule:evenodd;stroke:rgb(255, 25, 0);stroke-width:1;" d="M 353.052, 116.79 L 369.148, 94.9698 L 378.985, 99.0834 L 362.888, 120.903 L 353.052, 116.79 z "/>
<path style="fill:rgb(0, 0, 255);fill-opacity:0;fill-rule:evenodd;stroke:rgb(255, 25, 0);stroke-width:1;" d="M 972.412, 629.734 L 984.216, 613.459 L 985.468, 611.849 L 997.273, 616.857 L 984.216, 634.742 L 972.412, 629.734 z "/>
<path style="fill:rgb(255, 255, 0);fill-opacity:0;fill-rule:evenodd;stroke:rgb(255, 25, 0);stroke-width:1;" d="M 920.367, 611.133 L 934.317, 591.818 L 945.227, 596.289 L 931.098, 615.605 L 920.367, 611.133 z "/>
<path style="fill:rgb(255, 0, 0);fill-opacity:0;fill-rule:evenodd;stroke:rgb(255, 25, 0);stroke-width:1;" d="M 240.733, 476.816 L 248.603, 466.443 L 267.024, 474.313 L 259.155, 484.686 L 240.733, 476.816 z "/>
<path style="fill:rgb(0, 255, 0);fill-opacity:0;fill-rule:evenodd;stroke:rgb(255, 25, 0);stroke-width:1;" d="M 910.888, 607.02 L 924.838, 587.883 L 934.317, 591.818 L 920.367, 611.133 L 910.888, 607.02 z "/>
<path style="fill:rgb(0, 0, 255);fill-opacity:0;fill-rule:evenodd;stroke:rgb(255, 25, 0);stroke-width:1;" d="M 931.098, 615.605 L 945.227, 596.289 L 954.527, 600.224 L 940.577, 619.539 L 931.098, 615.605 z "/>
<path style="fill:rgb(255, 255, 0);fill-opacity:0;fill-rule:evenodd;stroke:rgb(255, 25, 0);stroke-width:1;" d="M 101.766, 331.411 L 109.636, 320.501 L 118.757, 324.257 L 123.944, 326.403 L 115.895, 337.313 L 110.709, 335.167 L 101.766, 331.411 z "/>
<path style="fill:rgb(255, 0, 0);fill-opacity:0;fill-rule:evenodd;stroke:rgb(255, 25, 0);stroke-width:1;" d="M 639.928, 82.808 L 643.863, 81.9137 L 658.171, 79.0521 L 662.106, 78.1578 L 664.968, 85.8484 L 642.79, 90.4985 L 639.928, 82.808 z "/>
<path style="fill:rgb(0, 255, 0);fill-opacity:0;fill-rule:evenodd;stroke:rgb(255, 25, 0);stroke-width:1;" d="M 970.445, 84.5965 L 982.07, 68.8576 L 991.013, 72.6135 L 979.387, 88.3523 L 970.445, 84.5965 z "/>
<path style="fill:rgb(0, 0, 255);fill-opacity:0;fill-rule:evenodd;stroke:rgb(255, 25, 0);stroke-width:1;" d="M 102.66, 331.232 L 109.993, 321.216 L 118.399, 324.614 L 123.049, 326.582 L 115.717, 336.597 L 111.066, 334.63 L 102.66, 331.232 z "/>
<path style="fill:rgb(255, 255, 0);fill-opacity:0;fill-rule:evenodd;stroke:rgb(255, 25, 0);stroke-width:1;" d="M 105.164, 328.549 L 108.384, 324.257 L 113.391, 323.005 L 119.115, 325.509 L 120.724, 329.264 L 117.505, 333.736 L 112.318, 334.809 L 106.595, 332.484 L 105.164, 328.549 z "/>
<path style="fill:rgb(255, 0, 0);fill-opacity:0;fill-rule:evenodd;stroke:rgb(255, 25, 0);stroke-width:1;" d="M 776.571, 345.54 L 787.838, 329.98 L 792.667, 332.126 L 781.4, 347.507 L 776.571, 345.54 z "/>
<path style="fill:rgb(0, 255, 0);fill-opacity:0;fill-rule:evenodd;stroke:rgb(255, 25, 0);stroke-width:1;" d="M 106.237, 328.728 L 109.099, 324.793 L 113.213, 323.899 L 118.399, 326.045 L 119.472, 329.264 L 116.79, 333.02 L 112.497, 333.915 L 107.489, 331.947 L 106.237, 328.728 z "/>
<path style="fill:rgb(0, 0, 255);fill-opacity:0;fill-rule:evenodd;stroke:rgb(255, 25, 0);stroke-width:1;" d="M 923.944, 696.982 L 927.878, 691.438 L 937.894, 696.088 L 934.138, 701.274 L 923.944, 696.982 z "/>
<path style="fill:rgb(255, 255, 0);fill-opacity:0;fill-rule:evenodd;stroke:rgb(255, 25, 0);stroke-width:1;" d="M 927.878, 691.438 L 931.098, 686.966 L 941.471, 691.259 L 937.894, 696.088 L 927.878, 691.438 z "/>
<path style="fill:rgb(255, 0, 0);fill-opacity:0;fill-rule:evenodd;stroke:rgb(255, 25, 0);stroke-width:1;" d="M 12.8773, 744.377 L 29.6892, 721.484 L 35.7702, 723.988 L 51.3302, 702.705 L 45.2493, 700.201 L 72.7923, 662.643 L 105.88, 676.593 L 83.8811, 706.819 L 75.6539, 703.242 L 60.0939, 724.525 L 68.321, 727.923 L 62.7767, 735.614 L 46.1435, 758.507 L 12.8773, 744.377 z "/>
<path style="fill:rgb(0, 255, 0);fill-opacity:0;fill-rule:evenodd;stroke:rgb(255, 25, 0);stroke-width:1;" d="M 0.894254, 247.172 L 28.4373, 209.256 L 84.0599, 232.685 L 56.5169, 270.601 L 0.894254, 247.172 z "/>
<path style="fill:rgb(0, 0, 255);fill-opacity:0;fill-rule:evenodd;stroke:rgb(255, 25, 0);stroke-width:1;" d="M 1.96736, 397.228 L 16.9908, 376.66 L 73.6866, 400.805 L 58.4842, 421.373 L 7.86944, 399.732 L 1.96736, 397.228 z "/>
<path style="fill:rgb(255, 255, 0);fill-opacity:0;fill-rule:evenodd;stroke:rgb(255, 25, 0);stroke-width:1;" d="M 21.641, 572.681 L 38.0952, 550.503 L 88.71, 572.144 L 72.2558, 594.321 L 70.6461, 593.606 L 21.641, 572.681 z "/>
<path style="fill:rgb(255, 0, 0);fill-opacity:0;fill-rule:evenodd;stroke:rgb(255, 25, 0);stroke-width:1;" d="M 2.68276, 598.435 L 12.1619, 585.558 L 68.4999, 609.703 L 59.0208, 622.58 L 2.68276, 598.435 z "/>
<path style="fill:rgb(0, 255, 0);fill-opacity:0;fill-rule:evenodd;stroke:rgb(255, 25, 0);stroke-width:1;" d="M 12.1619, 585.558 L 21.641, 572.681 L 70.6461, 593.606 L 67.2479, 598.256 L 74.5808, 601.297 L 68.4999, 609.703 L 12.1619, 585.558 z "/>
<path style="fill:rgb(0, 0, 255);fill-opacity:0;fill-rule:evenodd;stroke:rgb(255, 25, 0);stroke-width:1;" d="M 0, 410.463 L 7.86944, 399.732 L 58.4842, 421.373 L 50.9725, 431.925 L 50.4359, 431.567 L 5.54438, 412.788 L 0, 410.463 z "/>
<path style="fill:rgb(255, 255, 0);fill-opacity:0;fill-rule:evenodd;stroke:rgb(255, 25, 0);stroke-width:1;" d="M 16.9908, 376.66 L 23.6083, 367.717 L 80.304, 391.862 L 73.6866, 400.805 L 16.9908, 376.66 z "/>
<path style="fill:rgb(255, 0, 0);fill-opacity:0;fill-rule:evenodd;stroke:rgb(255, 25, 0);stroke-width:1;" d="M 767.091, 54.1918 L 790.879, 21.8198 L 845.249, 44.8916 L 822.535, 75.6539 L 821.283, 77.2636 L 767.091, 54.1918 z "/>
<path style="fill:rgb(0, 255, 0);fill-opacity:0;fill-rule:evenodd;stroke:rgb(255, 25, 0);stroke-width:1;" d="M 187.078, 42.03 L 189.94, 38.0952 L 217.483, 0.715404 L 218.198, 0 L 245.92, 11.8042 L 218.019, 49.5417 L 212.833, 47.3955 L 209.613, 51.6879 L 187.078, 42.03 z "/>
<path style="fill:rgb(0, 0, 255);fill-opacity:0;fill-rule:evenodd;stroke:rgb(255, 25, 0);stroke-width:1;" d="M 218.019, 49.5417 L 245.92, 11.8042 L 274.536, 23.966 L 274.178, 24.5026 L 267.203, 33.8028 L 258.976, 45.0704 L 251.285, 55.4438 L 246.635, 61.8824 L 218.019, 49.5417 z "/>
<path style="fill:rgb(255, 255, 0);fill-opacity:0;fill-rule:evenodd;stroke:rgb(255, 25, 0);stroke-width:1;" d="M 894.791, 30.7624 L 914.107, 4.47127 L 954.706, 21.641 L 953.633, 23.2506 L 935.927, 47.2166 L 935.39, 48.1109 L 894.791, 30.7624 z "/>
<path style="fill:rgb(255, 0, 0);fill-opacity:0;fill-rule:evenodd;stroke:rgb(255, 25, 0);stroke-width:1;" d="M 552.828, 46.5012 L 579.656, 8.94254 L 608.272, 20.9256 L 584.485, 53.8341 L 581.265, 58.3054 L 552.828, 46.5012 z "/>
<path style="fill:rgb(0, 255, 0);fill-opacity:0;fill-rule:evenodd;stroke:rgb(255, 25, 0);stroke-width:1;" d="M 71.0038, 48.4686 L 80.8406, 35.2336 L 84.9542, 37.0221 L 87.4581, 33.8028 L 91.214, 35.4125 L 96.0429, 28.795 L 92.8236, 27.3642 L 95.5064, 23.7872 L 90.8562, 21.8198 L 94.0756, 17.1697 L 100.335, 8.76369 L 128.951, 21.1044 L 119.294, 34.1605 L 115.359, 32.372 L 112.497, 36.3067 L 108.92, 34.6971 L 104.091, 41.3146 L 101.408, 40.0626 L 99.0834, 43.2819 L 109.278, 47.7532 L 105.164, 53.6553 L 99.6199, 60.8093 L 71.0038, 48.4686 z "/>
<path style="fill:rgb(0, 0, 255);fill-opacity:0;fill-rule:evenodd;stroke:rgb(255, 25, 0);stroke-width:1;" d="M 267.203, 33.8028 L 274.178, 24.5026 L 330.159, 48.6474 L 323.362, 57.9477 L 267.203, 33.8028 z "/>
<path style="fill:rgb(255, 255, 0);fill-opacity:0;fill-rule:evenodd;stroke:rgb(255, 25, 0);stroke-width:1;" d="M 584.485, 53.8341 L 608.272, 20.9256 L 622.222, 26.6488 L 598.435, 59.7362 L 584.485, 53.8341 z "/>
<path style="fill:rgb(255, 0, 0);fill-opacity:0;fill-rule:evenodd;stroke:rgb(255, 25, 0);stroke-width:1;" d="M 56.6957, 42.3877 L 79.9463, 11.0888 L 94.0756, 17.1697 L 90.8562, 21.8198 L 80.8406, 35.2336 L 71.0038, 48.4686 L 56.6957, 42.3877 z "/>
<path style="fill:rgb(0, 255, 0);fill-opacity:0;fill-rule:evenodd;stroke:rgb(255, 25, 0);stroke-width:1;" d="M 938.431, 63.4921 L 964.543, 28.0796 L 975.274, 32.5509 L 957.746, 56.5169 L 949.162, 67.9633 L 938.431, 63.4921 z "/>
<path style="fill:rgb(0, 0, 255);fill-opacity:0;fill-rule:evenodd;stroke:rgb(255, 25, 0);stroke-width:1;" d="M 929.13, 59.3785 L 937.536, 47.932 L 935.927, 47.2166 L 953.633, 23.2506 L 964.543, 28.0796 L 938.431, 63.4921 L 929.13, 59.3785 z "/>
<path style="fill:rgb(255, 255, 0);fill-opacity:0;fill-rule:evenodd;stroke:rgb(255, 25, 0);stroke-width:1;" d="M 105.164, 53.6553 L 109.278, 47.7532 L 119.294, 34.1605 L 128.951, 21.1044 L 131.098, 18.2428 L 173.307, 36.1279 L 182.964, 40.2414 L 187.078, 42.03 L 209.613, 51.6879 L 215.873, 54.3707 L 213.906, 56.8746 L 189.582, 89.6043 L 184.216, 87.4581 L 119.83, 59.915 L 105.164, 53.6553 z "/>
<path style="fill:rgb(255, 0, 0);fill-opacity:0;fill-rule:evenodd;stroke:rgb(255, 25, 0);stroke-width:1;" d="M 928.057, 389.18 L 967.941, 334.988 L 1013.37, 354.84 L 1003.17, 368.612 L 987.615, 361.815 L 969.193, 386.318 L 957.389, 402.236 L 928.057, 389.18 z "/>
<path style="fill:rgb(0, 255, 0);fill-opacity:0;fill-rule:evenodd;stroke:rgb(255, 25, 0);stroke-width:1;" d="M 967.941, 334.988 L 971.876, 329.98 L 977.599, 328.728 L 1049.14, 359.311 L 1043.06, 367.717 L 1013.37, 354.84 L 967.941, 334.988 z "/>
<path style="fill:rgb(0, 0, 255);fill-opacity:0;fill-rule:evenodd;stroke:rgb(255, 25, 0);stroke-width:1;" d="M 1000.13, 372.368 L 1003.17, 368.612 L 1013.37, 354.84 L 1043.06, 367.717 L 1030.36, 384.887 L 1000.13, 372.368 z "/>
<path style="fill:rgb(255, 255, 0);fill-opacity:0;fill-rule:evenodd;stroke:rgb(255, 25, 0);stroke-width:1;" d="M 988.867, 380.058 L 995.663, 370.579 L 1000.13, 372.368 L 1030.36, 384.887 L 1023.03, 394.724 L 1013.37, 390.431 L 1001.56, 385.603 L 988.867, 380.058 z "/>
<path style="fill:rgb(255, 0, 0);fill-opacity:0;fill-rule:evenodd;stroke:rgb(255, 25, 0);stroke-width:1;" d="M 949.162, 129.488 L 979.387, 88.3523 L 991.013, 72.6135 L 1011.22, 45.2493 L 1056.83, 64.5652 L 1040.73, 86.385 L 1015.69, 75.8328 L 1008.9, 85.3119 L 1033.76, 95.8641 L 1017.66, 117.684 L 992.801, 107.132 L 985.826, 116.611 L 1010.87, 127.163 L 994.769, 148.804 L 949.162, 129.488 z "/>
<path style="fill:rgb(0, 255, 0);fill-opacity:0;fill-rule:evenodd;stroke:rgb(255, 25, 0);stroke-width:1;" d="M 980.103, 96.9372 L 990.297, 83.1657 L 1007.65, 90.4985 L 1005.32, 93.539 L 1010.33, 95.5064 L 1004.61, 103.376 L 999.776, 101.23 L 997.451, 104.449 L 980.103, 96.9372 z "/>
<path style="fill:rgb(0, 0, 255);fill-opacity:0;fill-rule:evenodd;stroke:rgb(255, 25, 0);stroke-width:1;" d="M 588.956, 72.4346 L 598.435, 59.7362 L 622.222, 26.6488 L 700.917, 57.7688 L 655.131, 122.871 L 604.874, 102.124 L 589.85, 96.4006 L 602.906, 78.1578 L 588.956, 72.4346 z "/>
<path style="fill:rgb(255, 255, 0);fill-opacity:0;fill-rule:evenodd;stroke:rgb(255, 25, 0);stroke-width:1;" d="M 22.7141, 317.103 L 51.1514, 277.755 L 52.9399, 275.43 L 71.5404, 283.121 L 111.961, 300.112 L 107.311, 306.55 L 125.911, 314.42 L 118.757, 324.257 L 123.944, 326.403 L 115.895, 337.313 L 110.709, 335.167 L 103.555, 344.825 L 44.7127, 320.143 L 41.3146, 324.793 L 22.7141, 317.103 z "/>
<path style="fill:rgb(255, 0, 0);fill-opacity:0;fill-rule:evenodd;stroke:rgb(255, 25, 0);stroke-width:1;" d="M 22.7141, 317.103 L 51.1514, 277.755 L 52.9399, 275.43 L 71.5404, 283.121 L 66.8902, 289.56 L 44.7127, 320.143 L 41.3146, 324.793 L 22.7141, 317.103 z "/>
</svg>