<?xml version="1.0" encoding="iso-8859-1" standalone="no"?>
<!DOCTYPE svg PUBLIC "-//W3C//DTD SVG 1.0//EN" "http://www.w3.org/TR/2001/REC-SVG-20010904/DTD/svg10.dtd">
<svg xmlns="http://www.w3.org/2000/svg" width="1150" height="800">
<path style="fill:rgb(255, 0, 0);fill-opacity:0;fill-rule:evenodd;stroke:rgb(0, 72, 255);stroke-width:1;" d="M 752.755, 318.554 L 849.185, 187.924 L 851.829, 188.982 L 860.467, 192.86 L 863.64, 191.979 L 866.814, 191.45 L 868.4, 191.274 L 869.987, 191.274 L 873.336, 191.626 L 876.333, 192.508 L 877.92, 192.86 L 880.74, 194.271 L 881.974, 194.976 L 884.266, 196.739 L 885.148, 197.796 L 886.911, 199.912 L 887.439, 201.146 L 887.968, 202.204 L 888.497, 204.672 L 910.357, 214.015 L 904.187, 221.948 L 898.017, 239.929 L 902.6, 241.34 L 910.71, 281.534 L 940.15, 277.832 L 940.326, 270.251 L 938.211, 260.379 L 962.539, 252.27 L 993.565, 248.391 L 997.62, 267.959 L 1038.52, 263.023 L 1040.11, 270.78 L 1052.62, 269.193 L 1105.33, 291.758 L 1118.38, 357.691 L 1058.09, 364.566 L 1060.56, 376.554 L 1069.9, 376.554 L 1069.72, 383.958 L 1062.49, 383.429 L 1041.16, 385.897 L 1038.52, 372.323 L 1034.46, 372.851 L 1035.52, 378.669 L 1018.25, 380.608 L 1022.48, 402.644 L 1017.19, 403.173 L 1012.78, 381.313 L 994.976, 383.429 L 993.742, 377.611 L 987.395, 378.316 L 990.392, 392.948 L 991.979, 396.298 L 994.976, 402.997 L 997.268, 409.872 L 999.207, 416.924 L 999.912, 420.45 L 1000.97, 427.501 L 1001.67, 434.553 L 1001.85, 439.841 L 1005.2, 439.489 L 1036.93, 456.941 L 1037.64, 460.643 L 1046.63, 459.586 L 1046.28, 457.118 L 1062.67, 455.355 L 1130.37, 362.803 L 1150.82, 371.265 L 1128.25, 402.644 L 1127.37, 402.292 L 1082.42, 464.698 L 1075.54, 461.877 L 1071.49, 467.871 L 1048.92, 470.339 L 1054.91, 500.309 L 1029.88, 503.129 L 1021.95, 462.583 L 1032, 461.525 L 1031.47, 459.057 L 1004.32, 444.072 L 1000.62, 444.601 L 1003.44, 458.881 L 978.052, 461.701 L 973.997, 441.252 L 963.244, 442.486 L 966.417, 458.175 L 947.025, 460.291 L 945.615, 453.416 L 941.208, 453.768 L 939.445, 444.777 L 943.852, 444.249 L 936.271, 406.17 L 922.345, 410.225 L 915.117, 406.346 L 904.539, 417.453 L 891.847, 410.401 L 902.6, 399.295 L 895.372, 395.24 L 893.081, 383.429 L 821.507, 391.714 L 817.629, 372.146 L 840.194, 369.502 L 835.61, 347.995 L 819.568, 348.7 L 820.273, 352.226 L 813.574, 353.107 L 811.811, 343.587 L 752.755, 318.554 z "/>
<path style="fill:rgb(0, 255, 0);fill-opacity:0;fill-rule:evenodd;stroke:rgb(0, 72, 255);stroke-width:1;" d="M 210.665, 543.852 L 231.644, 515.117 L 401.587, 587.043 L 380.608, 615.778 L 349.581, 602.556 L 342.706, 611.9 L 341.648, 613.31 L 372.146, 626.179 L 368.973, 630.586 L 369.678, 630.762 L 348.171, 660.203 L 221.243, 606.435 L 223.182, 603.967 L 218.07, 601.675 L 240.458, 571.177 L 226.532, 565.183 L 234.641, 553.9 L 210.665, 543.852 z "/>
<path style="fill:rgb(0, 0, 255);fill-opacity:0;fill-rule:evenodd;stroke:rgb(0, 72, 255);stroke-width:1;" d="M 323.667, 191.979 L 344.293, 163.42 L 337.594, 160.599 L 346.408, 148.083 L 357.338, 145.615 L 359.63, 142.618 L 382.019, 152.138 L 395.945, 132.746 L 439.489, 150.903 L 419.392, 178.757 L 409.696, 192.508 L 465.403, 215.602 L 453.944, 231.468 L 371.97, 197.444 L 359.806, 214.368 L 350.815, 210.489 L 330.19, 202.204 L 326.84, 193.213 L 323.667, 191.979 z "/>
<path style="fill:rgb(255, 255, 0);fill-opacity:0;fill-rule:evenodd;stroke:rgb(0, 72, 255);stroke-width:1;" d="M 620.185, 179.991 L 643.103, 148.435 L 710.445, 176.818 L 764.037, 199.383 L 760.688, 203.79 L 762.45, 204.672 L 759.101, 209.079 L 757.338, 208.374 L 755.046, 211.547 L 756.809, 212.252 L 754.694, 215.073 L 753.107, 214.368 L 750.639, 217.541 L 752.402, 218.246 L 749.052, 222.829 L 747.466, 222.124 L 745.174, 225.121 L 746.761, 225.65 L 744.645, 228.647 L 743.059, 227.942 L 740.943, 230.939 L 742.353, 231.644 L 739.004, 236.227 L 736.536, 235.17 L 734.773, 237.638 L 736.007, 237.99 L 734.068, 240.635 L 654.385, 206.963 L 656.324, 204.495 L 657.206, 204.848 L 658.969, 202.38 L 656.677, 201.322 L 660.026, 196.739 L 620.185, 179.991 z "/>
<path style="fill:rgb(255, 0, 0);fill-opacity:0;fill-rule:evenodd;stroke:rgb(0, 72, 255);stroke-width:1;" d="M 158.66, 385.721 L 185.28, 349.581 L 292.464, 395.064 L 268.312, 428.03 L 262.318, 436.316 L 209.608, 414.103 L 213.31, 408.814 L 180.696, 395.064 L 158.66, 385.721 z "/>
<path style="fill:rgb(0, 255, 0);fill-opacity:0;fill-rule:evenodd;stroke:rgb(0, 72, 255);stroke-width:1;" d="M 447.774, 372.499 L 475.628, 334.244 L 477.567, 331.6 L 570.472, 370.736 L 540.679, 411.635 L 447.774, 372.499 z "/>
<path style="fill:rgb(0, 0, 255);fill-opacity:0;fill-rule:evenodd;stroke:rgb(0, 72, 255);stroke-width:1;" d="M 204.319, 324.901 L 234.465, 283.473 L 288.762, 306.214 L 279.066, 319.612 L 283.473, 318.554 L 336.007, 340.591 L 316.439, 367.387 L 261.084, 344.116 L 259.674, 345.879 L 257.206, 344.822 L 255.972, 346.584 L 204.319, 324.901 z "/>
<path style="fill:rgb(255, 255, 0);fill-opacity:0;fill-rule:evenodd;stroke:rgb(0, 72, 255);stroke-width:1;" d="M 359.63, 335.302 L 375.496, 313.618 L 387.307, 297.223 L 399.824, 302.336 L 401.763, 299.691 L 420.802, 307.625 L 418.863, 310.269 L 444.072, 321.022 L 446.011, 318.202 L 457.118, 322.962 L 464.874, 326.135 L 462.935, 328.955 L 475.628, 334.244 L 447.774, 372.499 L 359.63, 335.302 z "/>
<path style="fill:rgb(255, 0, 0);fill-opacity:0;fill-rule:evenodd;stroke:rgb(0, 72, 255);stroke-width:1;" d="M 565.359, 253.327 L 566.946, 251.212 L 565.535, 250.683 L 591.274, 214.896 L 677.832, 251.036 L 659.85, 275.892 L 642.574, 268.665 L 633.759, 280.829 L 568.885, 253.856 L 568.356, 254.561 L 565.359, 253.327 z "/>
<path style="fill:rgb(0, 255, 0);fill-opacity:0;fill-rule:evenodd;stroke:rgb(0, 72, 255);stroke-width:1;" d="M 313.971, 370.912 L 316.439, 367.387 L 336.007, 340.591 L 344.116, 329.308 L 369.502, 339.885 L 361.922, 350.286 L 365.8, 351.873 L 364.918, 352.755 L 420.097, 376.025 L 398.061, 406.346 L 313.971, 370.912 z "/>
<path style="fill:rgb(0, 0, 255);fill-opacity:0;fill-rule:evenodd;stroke:rgb(0, 72, 255);stroke-width:1;" d="M 357.514, 217.541 L 359.806, 214.368 L 371.97, 197.444 L 453.944, 231.468 L 485.5, 244.689 L 488.85, 240.106 L 512.825, 250.154 L 498.898, 269.546 L 483.737, 263.2 L 482.856, 264.081 L 475.275, 261.084 L 472.102, 265.315 L 456.765, 258.792 L 455.355, 260.555 L 439.136, 253.856 L 440.37, 252.093 L 420.978, 243.984 L 419.744, 245.747 L 402.821, 238.695 L 404.055, 236.933 L 389.599, 230.939 L 388.365, 232.702 L 371.441, 225.826 L 372.675, 223.887 L 357.514, 217.541 z "/>
<path style="fill:rgb(255, 255, 0);fill-opacity:0;fill-rule:evenodd;stroke:rgb(0, 72, 255);stroke-width:1;" d="M 317.673, 441.781 L 337.77, 414.279 L 423.623, 450.595 L 408.638, 470.868 L 393.477, 491.847 L 378.493, 485.5 L 374.086, 483.737 L 384.134, 469.987 L 317.673, 441.781 z "/>
<path style="fill:rgb(255, 0, 0);fill-opacity:0;fill-rule:evenodd;stroke:rgb(0, 72, 255);stroke-width:1;" d="M 354.165, 665.491 L 398.59, 604.848 L 443.543, 623.887 L 453.592, 628.118 L 425.738, 666.197 L 393.301, 652.446 L 383.253, 666.197 L 376.73, 675.011 L 354.165, 665.491 z "/>
<path style="fill:rgb(0, 255, 0);fill-opacity:0;fill-rule:evenodd;stroke:rgb(0, 72, 255);stroke-width:1;" d="M 510.181, 69.1053 L 513.706, 64.3455 L 511.238, 63.2878 L 516.703, 55.8836 L 521.816, 57.9991 L 528.162, 49.1847 L 538.916, 53.5919 L 537.682, 55.1785 L 553.019, 61.7012 L 554.077, 60.1146 L 575.408, 69.1053 L 574.35, 70.5156 L 589.158, 76.6858 L 590.216, 75.2755 L 612.076, 84.4425 L 611.018, 86.0291 L 618.951, 89.3786 L 615.425, 94.1384 L 618.422, 95.3724 L 619.833, 93.4332 L 624.592, 95.3724 L 608.726, 117.409 L 590.04, 142.97 L 584.751, 140.679 L 588.982, 134.861 L 575.584, 129.22 L 593.742, 104.187 L 510.181, 69.1053 z "/>
<path style="fill:rgb(0, 0, 255);fill-opacity:0;fill-rule:evenodd;stroke:rgb(0, 72, 255);stroke-width:1;" d="M 123.931, 433.319 L 158.66, 385.721 L 180.696, 395.064 L 176.818, 400.176 L 181.049, 401.939 L 182.636, 401.41 L 198.854, 408.286 L 199.383, 410.225 L 212.605, 415.69 L 200.793, 431.732 L 166.064, 417.1 L 161.128, 423.799 L 169.943, 427.501 L 168.709, 429.264 L 200.441, 442.838 L 187.748, 460.291 L 123.931, 433.319 z "/>
<path style="fill:rgb(255, 255, 0);fill-opacity:0;fill-rule:evenodd;stroke:rgb(0, 72, 255);stroke-width:1;" d="M 540.326, 411.988 L 540.679, 411.635 L 570.472, 370.736 L 625.65, 393.83 L 595.681, 435.258 L 540.326, 411.988 z "/>
<path style="fill:rgb(255, 0, 0);fill-opacity:0;fill-rule:evenodd;stroke:rgb(0, 72, 255);stroke-width:1;" d="M 549.669, 631.291 L 582.107, 615.073 L 579.815, 612.252 L 588.1, 608.197 L 586.69, 606.435 L 602.204, 598.678 L 604.143, 600.793 L 611.723, 596.915 L 614.368, 600.088 L 646.981, 583.87 L 662.671, 602.204 L 629.705, 618.775 L 631.82, 621.243 L 623.887, 625.121 L 626.179, 627.589 L 611.018, 635.17 L 608.726, 632.702 L 600.793, 636.58 L 597.973, 633.23 L 565.359, 649.625 L 549.669, 631.291 z "/>
<path style="fill:rgb(0, 255, 0);fill-opacity:0;fill-rule:evenodd;stroke:rgb(0, 72, 255);stroke-width:1;" d="M 688.056, 573.292 L 712.032, 561.657 L 733.01, 586.866 L 736.712, 584.927 L 741.825, 591.097 L 744.998, 589.511 L 754.694, 601.146 L 751.52, 602.732 L 756.809, 608.903 L 752.931, 610.665 L 773.733, 635.875 L 749.758, 647.334 L 728.955, 622.301 L 724.901, 624.24 L 719.788, 618.07 L 716.439, 619.656 L 706.743, 608.021 L 710.445, 606.258 L 705.156, 599.912 L 708.682, 598.149 L 688.056, 573.292 z "/>
<path style="fill:rgb(0, 0, 255);fill-opacity:0;fill-rule:evenodd;stroke:rgb(0, 72, 255);stroke-width:1;" d="M 789.952, 503.834 L 813.927, 492.375 L 834.905, 517.409 L 838.784, 515.469 L 843.896, 521.639 L 847.069, 520.053 L 856.765, 531.688 L 853.592, 533.275 L 858.704, 539.445 L 854.826, 541.208 L 875.804, 566.417 L 851.829, 577.876 L 830.851, 552.843 L 826.972, 554.782 L 821.684, 548.612 L 818.51, 550.198 L 808.814, 538.563 L 812.517, 536.8 L 807.228, 530.454 L 810.754, 528.691 L 789.952, 503.834 z "/>
<path style="fill:rgb(255, 255, 0);fill-opacity:0;fill-rule:evenodd;stroke:rgb(0, 72, 255);stroke-width:1;" d="M 908.594, 554.077 L 932.569, 542.442 L 953.548, 567.475 L 957.426, 565.712 L 962.539, 571.706 L 965.712, 570.295 L 975.408, 581.93 L 972.234, 583.341 L 977.347, 589.511 L 973.468, 591.45 L 994.447, 616.483 L 970.472, 628.118 L 949.493, 602.909 L 945.615, 604.848 L 940.326, 598.678 L 937.153, 600.264 L 927.457, 588.629 L 931.159, 586.866 L 925.87, 580.52 L 929.396, 578.757 L 908.594, 554.077 z "/>
<path style="fill:rgb(255, 0, 0);fill-opacity:0;fill-rule:evenodd;stroke:rgb(0, 72, 255);stroke-width:1;" d="M 846.54, 639.929 L 870.339, 628.294 L 891.141, 653.327 L 895.02, 651.388 L 900.309, 657.735 L 903.658, 655.972 L 913.178, 667.607 L 909.828, 669.193 L 915.293, 675.716 L 911.238, 677.655 L 932.041, 702.512 L 908.065, 714.147 L 887.263, 689.114 L 883.561, 691.053 L 878.096, 684.354 L 875.275, 685.765 L 865.58, 674.306 L 868.576, 672.896 L 863.288, 666.549 L 867.166, 664.786 L 846.54, 639.929 z "/>
<path style="fill:rgb(0, 255, 0);fill-opacity:0;fill-rule:evenodd;stroke:rgb(0, 72, 255);stroke-width:1;" d="M 234.641, 281.886 L 264.61, 241.869 L 304.275, 258.969 L 304.98, 257.911 L 307.272, 254.738 L 316.968, 258.969 L 309.564, 268.841 L 313.795, 270.604 L 288.056, 304.98 L 234.641, 281.886 z "/>
<path style="fill:rgb(0, 0, 255);fill-opacity:0;fill-rule:evenodd;stroke:rgb(0, 72, 255);stroke-width:1;" d="M 632.525, 725.43 L 656.148, 714.147 L 676.95, 739.18 L 681.005, 737.417 L 686.294, 743.764 L 689.467, 742.177 L 699.163, 753.989 L 695.989, 755.575 L 700.926, 761.569 L 697.047, 763.508 L 717.849, 788.717 L 694.227, 800 L 673.424, 774.791 L 669.193, 776.906 L 664.081, 770.736 L 661.084, 772.323 L 651.212, 760.511 L 654.385, 758.925 L 649.273, 752.755 L 653.504, 750.815 L 632.525, 725.43 z "/>
<path style="fill:rgb(255, 255, 0);fill-opacity:0;fill-rule:evenodd;stroke:rgb(0, 72, 255);stroke-width:1;" d="M 516.703, 677.126 L 540.679, 665.668 L 561.305, 690.701 L 565.535, 688.762 L 570.648, 694.755 L 573.821, 693.345 L 583.517, 704.98 L 580.167, 706.567 L 585.456, 712.737 L 581.225, 714.852 L 602.027, 739.885 L 578.052, 751.344 L 557.426, 726.135 L 553.724, 727.898 L 548.435, 721.728 L 545.439, 723.138 L 535.919, 711.327 L 538.74, 710.093 L 533.803, 703.922 L 537.506, 702.16 L 516.703, 677.126 z "/>
<path style="fill:rgb(255, 0, 0);fill-opacity:0;fill-rule:evenodd;stroke:rgb(0, 72, 255);stroke-width:1;" d="M 714.852, 709.564 L 747.466, 693.698 L 744.822, 690.701 L 753.107, 686.646 L 751.52, 684.707 L 766.858, 677.303 L 768.621, 679.242 L 776.906, 675.187 L 779.727, 678.537 L 812.164, 662.671 L 827.325, 680.652 L 794.711, 696.695 L 797.003, 699.515 L 788.717, 703.57 L 790.657, 705.862 L 775.496, 713.266 L 773.204, 710.621 L 765.095, 714.676 L 762.627, 711.679 L 730.19, 727.545 L 714.852, 709.564 z "/>
<path style="fill:rgb(0, 255, 0);fill-opacity:0;fill-rule:evenodd;stroke:rgb(0, 72, 255);stroke-width:1;" d="M 642.926, 504.892 L 676.598, 490.789 L 674.306, 487.439 L 682.944, 483.914 L 681.181, 481.446 L 689.114, 478.096 L 697.223, 474.747 L 698.81, 477.215 L 707.096, 473.689 L 709.387, 477.038 L 743.764, 462.759 L 757.162, 481.446 L 722.962, 495.725 L 725.077, 498.898 L 716.968, 502.248 L 718.731, 504.716 L 702.688, 511.415 L 700.926, 508.947 L 692.287, 512.472 L 689.996, 509.476 L 656.324, 523.402 L 642.926, 504.892 z "/>
<path style="fill:rgb(0, 0, 255);fill-opacity:0;fill-rule:evenodd;stroke:rgb(0, 72, 255);stroke-width:1;" d="M 710.445, 176.818 L 733.892, 144.91 L 747.995, 150.903 L 755.046, 141.384 L 795.593, 158.308 L 765.271, 199.912 L 764.037, 199.383 L 710.445, 176.818 z "/>
<path style="fill:rgb(255, 255, 0);fill-opacity:0;fill-rule:evenodd;stroke:rgb(0, 72, 255);stroke-width:1;" d="M 323.667, 191.979 L 335.654, 176.818 L 344.293, 163.42 L 337.594, 160.599 L 346.408, 148.083 L 357.338, 145.615 L 359.63, 142.618 L 382.019, 152.138 L 385.544, 161.128 L 389.246, 162.715 L 368.797, 191.45 L 373.028, 193.213 L 363.861, 205.906 L 352.578, 208.197 L 350.815, 210.489 L 330.19, 202.204 L 326.84, 193.213 L 323.667, 191.979 z "/>
<path style="fill:rgb(255, 0, 0);fill-opacity:0;fill-rule:evenodd;stroke:rgb(0, 72, 255);stroke-width:1;" d="M 712.208, 373.557 L 742.353, 332.481 L 787.483, 351.52 L 756.809, 393.477 L 722.609, 379.022 L 723.314, 378.316 L 712.208, 373.557 z "/>
<path style="fill:rgb(0, 255, 0);fill-opacity:0;fill-rule:evenodd;stroke:rgb(0, 72, 255);stroke-width:1;" d="M 346.232, 527.633 L 354.341, 516.527 L 365.624, 501.014 L 373.557, 490.436 L 374.086, 489.555 L 375.143, 490.084 L 378.493, 485.5 L 393.477, 491.847 L 417.981, 502.248 L 414.808, 506.831 L 415.337, 507.007 L 406.346, 519.348 L 387.483, 545.086 L 346.232, 527.633 z "/>
<path style="fill:rgb(0, 0, 255);fill-opacity:0;fill-rule:evenodd;stroke:rgb(0, 72, 255);stroke-width:1;" d="M 425.914, 418.158 L 456.06, 376.906 L 487.439, 390.128 L 486.558, 391.009 L 496.078, 395.064 L 493.962, 397.885 L 494.667, 398.237 L 482.68, 414.632 L 467.519, 435.61 L 425.914, 418.158 z "/>
<path style="fill:rgb(255, 255, 0);fill-opacity:0;fill-rule:evenodd;stroke:rgb(0, 72, 255);stroke-width:1;" d="M 611.723, 311.679 L 618.951, 301.631 L 621.772, 297.576 L 628.823, 300.573 L 641.34, 283.12 L 645.218, 284.707 L 656.324, 282.063 L 678.537, 291.406 L 676.598, 294.403 L 679.418, 303.041 L 669.546, 316.792 L 663.376, 314.147 L 650.507, 331.952 L 646.805, 330.366 L 635.346, 332.658 L 613.134, 323.491 L 615.249, 320.67 L 615.249, 320.494 L 611.723, 311.679 z "/>
<path style="fill:rgb(255, 0, 0);fill-opacity:0;fill-rule:evenodd;stroke:rgb(0, 72, 255);stroke-width:1;" d="M 546.32, 146.496 L 558.66, 129.396 L 562.715, 131.159 L 574.35, 128.691 L 575.584, 129.22 L 588.982, 134.861 L 584.751, 140.679 L 590.04, 142.97 L 611.018, 151.785 L 609.079, 154.429 L 612.428, 163.596 L 602.027, 178.052 L 598.149, 176.465 L 586.866, 178.933 L 570.295, 171.882 L 572.587, 168.709 L 547.73, 158.308 L 549.846, 155.487 L 546.32, 146.496 z "/>
<path style="fill:rgb(0, 255, 0);fill-opacity:0;fill-rule:evenodd;stroke:rgb(0, 72, 255);stroke-width:1;" d="M 419.392, 178.757 L 439.489, 150.903 L 494.138, 173.645 L 474.041, 201.498 L 419.392, 178.757 z "/>
<path style="fill:rgb(0, 0, 255);fill-opacity:0;fill-rule:evenodd;stroke:rgb(0, 72, 255);stroke-width:1;" d="M 222.301, 471.926 L 228.647, 463.288 L 239.577, 448.48 L 242.221, 444.954 L 297.752, 468.4 L 278.008, 495.549 L 222.301, 471.926 z "/>
<path style="fill:rgb(255, 255, 0);fill-opacity:0;fill-rule:evenodd;stroke:rgb(0, 72, 255);stroke-width:1;" d="M 645.923, 141.031 L 646.1, 140.679 L 650.507, 134.509 L 671.485, 105.773 L 712.737, 123.05 L 687.175, 158.308 L 645.923, 141.031 z "/>
<path style="fill:rgb(255, 0, 0);fill-opacity:0;fill-rule:evenodd;stroke:rgb(0, 72, 255);stroke-width:1;" d="M 288.938, 305.862 L 318.907, 264.786 L 358.396, 281.357 L 349.229, 293.874 L 344.293, 291.758 L 325.959, 316.615 L 300.573, 306.038 L 297.929, 309.74 L 288.938, 305.862 z "/>
<path style="fill:rgb(0, 255, 0);fill-opacity:0;fill-rule:evenodd;stroke:rgb(0, 72, 255);stroke-width:1;" d="M 489.907, 714.147 L 516.703, 677.126 L 537.506, 702.16 L 533.803, 703.922 L 538.74, 710.093 L 535.919, 711.327 L 545.439, 723.138 L 554.429, 733.892 L 550.375, 739.533 L 489.907, 714.147 z "/>
<path style="fill:rgb(0, 0, 255);fill-opacity:0;fill-rule:evenodd;stroke:rgb(0, 72, 255);stroke-width:1;" d="M 523.579, 267.254 L 534.509, 252.093 L 538.74, 253.68 L 549.317, 239.048 L 553.372, 240.635 L 576.818, 208.374 L 591.626, 214.544 L 591.274, 214.896 L 565.535, 250.683 L 549.669, 272.543 L 539.268, 286.999 L 523.579, 280.476 L 526.752, 276.069 L 523.579, 267.254 z "/>
<path style="fill:rgb(255, 255, 0);fill-opacity:0;fill-rule:evenodd;stroke:rgb(0, 72, 255);stroke-width:1;" d="M 536.448, 290.877 L 539.268, 286.999 L 549.669, 272.543 L 618.951, 301.631 L 611.723, 311.679 L 615.249, 320.494 L 615.249, 320.67 L 607.492, 317.497 L 605.553, 320.141 L 589.335, 313.266 L 590.392, 311.855 L 575.76, 305.862 L 574.703, 307.272 L 558.131, 300.397 L 559.189, 298.634 L 552.314, 295.813 L 551.256, 297.223 L 536.448, 290.877 z "/>
<path style="fill:rgb(255, 0, 0);fill-opacity:0;fill-rule:evenodd;stroke:rgb(0, 72, 255);stroke-width:1;" d="M 755.928, 108.065 L 765.095, 95.3724 L 771.441, 98.0167 L 777.435, 89.9074 L 829.617, 111.767 L 814.456, 132.746 L 755.928, 108.065 z "/>
<path style="fill:rgb(0, 255, 0);fill-opacity:0;fill-rule:evenodd;stroke:rgb(0, 72, 255);stroke-width:1;" d="M 328.25, 322.785 L 349.229, 293.874 L 358.396, 281.357 L 389.423, 294.403 L 387.307, 297.223 L 375.496, 313.618 L 371.617, 312.032 L 358.396, 330.19 L 341.296, 322.962 L 338.299, 327.016 L 328.25, 322.785 z "/>
<path style="fill:rgb(0, 0, 255);fill-opacity:0;fill-rule:evenodd;stroke:rgb(0, 72, 255);stroke-width:1;" d="M 675.187, 458.881 L 689.467, 439.489 L 743.764, 462.759 L 709.387, 477.038 L 707.096, 473.689 L 698.81, 477.215 L 697.223, 474.747 L 689.114, 478.096 L 675.187, 458.881 z "/>
<path style="fill:rgb(255, 255, 0);fill-opacity:0;fill-rule:evenodd;stroke:rgb(0, 72, 255);stroke-width:1;" d="M 403.173, 408.462 L 422.918, 381.313 L 418.51, 379.374 L 428.735, 365.271 L 456.06, 376.906 L 425.914, 418.158 L 403.173, 408.462 z "/>
<path style="fill:rgb(255, 0, 0);fill-opacity:0;fill-rule:evenodd;stroke:rgb(0, 72, 255);stroke-width:1;" d="M 289.467, 714.852 L 296.695, 704.98 L 303.394, 707.801 L 306.39, 707.801 L 314.147, 697.047 L 312.737, 694.755 L 306.038, 691.935 L 313.442, 681.886 L 346.584, 695.813 L 340.767, 703.746 L 333.01, 714.5 L 324.019, 710.798 L 321.551, 714.147 L 322.962, 716.086 L 329.837, 718.907 L 325.077, 725.43 L 322.609, 728.955 L 289.467, 714.852 z "/>
<path style="fill:rgb(0, 255, 0);fill-opacity:0;fill-rule:evenodd;stroke:rgb(0, 72, 255);stroke-width:1;" d="M 285.059, 445.659 L 292.816, 435.082 L 315.029, 404.584 L 337.77, 414.279 L 317.673, 441.781 L 307.625, 455.355 L 285.059, 445.659 z "/>
<path style="fill:rgb(0, 0, 255);fill-opacity:0;fill-rule:evenodd;stroke:rgb(0, 72, 255);stroke-width:1;" d="M 517.056, 412.517 L 522.697, 404.584 L 540.326, 411.988 L 595.681, 435.258 L 588.1, 445.659 L 559.365, 433.495 L 551.961, 443.72 L 538.74, 438.255 L 535.566, 436.844 L 542.97, 426.62 L 532.041, 421.86 L 533.803, 419.568 L 517.056, 412.517 z "/>
<path style="fill:rgb(255, 255, 0);fill-opacity:0;fill-rule:evenodd;stroke:rgb(0, 72, 255);stroke-width:1;" d="M 192.331, 463.64 L 200.97, 451.829 L 206.082, 453.944 L 208.726, 454.121 L 218.599, 440.723 L 217.012, 438.96 L 212.076, 436.844 L 220.009, 425.914 L 247.51, 437.55 L 242.221, 444.954 L 239.577, 448.48 L 234.112, 446.188 L 232.173, 446.364 L 222.301, 459.762 L 223.358, 460.996 L 228.647, 463.288 L 222.301, 471.926 L 219.833, 475.275 L 192.331, 463.64 z "/>
<path style="fill:rgb(255, 0, 0);fill-opacity:0;fill-rule:evenodd;stroke:rgb(0, 72, 255);stroke-width:1;" d="M 317.849, 515.646 L 325.959, 504.716 L 330.542, 506.655 L 330.718, 508.065 L 333.539, 507.713 L 344.822, 492.199 L 337.417, 489.026 L 341.119, 483.914 L 345.174, 478.449 L 373.557, 490.436 L 365.624, 501.014 L 358.396, 498.017 L 347.113, 513.354 L 354.341, 516.527 L 346.232, 527.633 L 317.849, 515.646 z "/>
<path style="fill:rgb(0, 255, 0);fill-opacity:0;fill-rule:evenodd;stroke:rgb(0, 72, 255);stroke-width:1;" d="M 195.857, 689.114 L 227.237, 645.747 L 246.1, 653.68 L 214.72, 697.047 L 211.723, 695.813 L 203.614, 692.464 L 195.857, 689.114 z "/>
<path style="fill:rgb(0, 0, 255);fill-opacity:0;fill-rule:evenodd;stroke:rgb(0, 72, 255);stroke-width:1;" d="M 400.705, 601.851 L 410.93, 587.924 L 465.932, 611.371 L 453.592, 628.118 L 443.543, 623.887 L 446.011, 620.538 L 444.601, 619.304 L 439.489, 617.188 L 438.96, 617.893 L 400.705, 601.851 z "/>
<path style="fill:rgb(255, 255, 0);fill-opacity:0;fill-rule:evenodd;stroke:rgb(0, 72, 255);stroke-width:1;" d="M 268.312, 428.03 L 292.464, 395.064 L 315.029, 404.584 L 292.816, 435.082 L 292.111, 434.729 L 290.172, 437.373 L 268.312, 428.03 z "/>
<path style="fill:rgb(255, 0, 0);fill-opacity:0;fill-rule:evenodd;stroke:rgb(0, 72, 255);stroke-width:1;" d="M 152.666, 215.249 L 164.478, 198.854 L 208.903, 217.541 L 197.091, 233.936 L 152.666, 215.249 z "/>
<path style="fill:rgb(0, 255, 0);fill-opacity:0;fill-rule:evenodd;stroke:rgb(0, 72, 255);stroke-width:1;" d="M 466.285, 509.123 L 471.045, 502.777 L 469.987, 502.424 L 472.807, 498.722 L 473.689, 498.546 L 531.512, 523.05 L 523.931, 533.627 L 493.61, 520.758 L 467.695, 509.828 L 466.285, 509.123 z "/>
<path style="fill:rgb(0, 0, 255);fill-opacity:0;fill-rule:evenodd;stroke:rgb(0, 72, 255);stroke-width:1;" d="M 446.011, 541.736 L 453.768, 530.983 L 459.233, 533.275 L 508.77, 554.253 L 500.837, 565.007 L 457.47, 546.673 L 446.011, 541.736 z "/>
<path style="fill:rgb(255, 255, 0);fill-opacity:0;fill-rule:evenodd;stroke:rgb(0, 72, 255);stroke-width:1;" d="M 473.689, 498.546 L 475.804, 498.369 L 479.506, 493.257 L 478.272, 492.904 L 481.446, 488.497 L 539.092, 512.825 L 531.512, 523.05 L 473.689, 498.546 z "/>
<path style="fill:rgb(255, 0, 0);fill-opacity:0;fill-rule:evenodd;stroke:rgb(0, 72, 255);stroke-width:1;" d="M 94.1384, 767.915 L 110.004, 746.056 L 111.944, 746.761 L 113.001, 745.35 L 111.944, 743.411 L 108.065, 741.825 L 114.412, 733.01 L 137.682, 742.706 L 131.335, 751.697 L 127.457, 750.11 L 124.813, 750.463 L 123.931, 751.873 L 125.694, 752.578 L 109.828, 774.614 L 94.1384, 767.915 z "/>
<path style="fill:rgb(0, 255, 0);fill-opacity:0;fill-rule:evenodd;stroke:rgb(0, 72, 255);stroke-width:1;" d="M 70.8682, 758.219 L 86.558, 736.183 L 88.6734, 737.065 L 89.7312, 735.654 L 89.026, 733.715 L 85.1476, 732.129 L 89.7312, 725.782 L 91.4941, 723.314 L 114.412, 733.01 L 108.065, 741.825 L 103.834, 739.885 L 101.366, 740.591 L 100.309, 742.001 L 102.6, 742.882 L 86.7342, 764.742 L 70.8682, 758.219 z "/>
<path style="fill:rgb(0, 0, 255);fill-opacity:0;fill-rule:evenodd;stroke:rgb(0, 72, 255);stroke-width:1;" d="M 481.446, 488.497 L 483.737, 487.616 L 490.26, 478.801 L 546.496, 502.6 L 539.092, 512.825 L 481.446, 488.497 z "/>
<path style="fill:rgb(255, 255, 0);fill-opacity:0;fill-rule:evenodd;stroke:rgb(0, 72, 255);stroke-width:1;" d="M 613.486, 135.743 L 626.179, 118.466 L 643.808, 94.1384 L 657.03, 99.7796 L 636.227, 128.515 L 631.644, 134.861 L 626.884, 141.384 L 613.486, 135.743 z "/>
<path style="fill:rgb(255, 0, 0);fill-opacity:0;fill-rule:evenodd;stroke:rgb(0, 72, 255);stroke-width:1;" d="M 180.344, 724.372 L 195.681, 703.217 L 203.614, 692.464 L 211.723, 695.813 L 203.614, 707.096 L 217.717, 712.913 L 202.732, 733.715 L 180.344, 724.372 z "/>
<path style="fill:rgb(0, 255, 0);fill-opacity:0;fill-rule:evenodd;stroke:rgb(0, 72, 255);stroke-width:1;" d="M 455.178, 526.928 L 459.938, 520.229 L 485.853, 531.159 L 516.175, 544.028 L 508.77, 554.253 L 459.233, 533.275 L 461.877, 529.749 L 455.178, 526.928 z "/>
<path style="fill:rgb(0, 0, 255);fill-opacity:0;fill-rule:evenodd;stroke:rgb(0, 72, 255);stroke-width:1;" d="M 121.992, 235.522 L 134.685, 218.07 L 152.314, 193.742 L 164.478, 198.854 L 152.666, 215.249 L 145.967, 224.416 L 139.974, 232.878 L 134.156, 240.635 L 121.992, 235.522 z "/>
<path style="fill:rgb(255, 255, 0);fill-opacity:0;fill-rule:evenodd;stroke:rgb(0, 72, 255);stroke-width:1;" d="M 87.6157, 221.067 L 117.761, 179.286 L 129.572, 184.222 L 99.2508, 226.003 L 96.959, 224.945 L 87.6157, 221.067 z "/>
<path style="fill:rgb(255, 0, 0);fill-opacity:0;fill-rule:evenodd;stroke:rgb(0, 72, 255);stroke-width:1;" d="M 75.8043, 216.13 L 84.7951, 203.614 L 106.126, 174.35 L 117.761, 179.286 L 87.6157, 221.067 L 75.8043, 216.13 z "/>
<path style="fill:rgb(0, 255, 0);fill-opacity:0;fill-rule:evenodd;stroke:rgb(0, 72, 255);stroke-width:1;" d="M 214.72, 697.047 L 246.1, 653.68 L 257.206, 658.264 L 242.574, 678.537 L 225.826, 701.631 L 214.72, 697.047 z "/>
<path style="fill:rgb(0, 0, 255);fill-opacity:0;fill-rule:evenodd;stroke:rgb(0, 72, 255);stroke-width:1;" d="M 449.89, 557.074 L 457.47, 546.673 L 500.837, 565.007 L 493.257, 575.408 L 464.698, 563.42 L 449.89, 557.074 z "/>
<path style="fill:rgb(255, 255, 0);fill-opacity:0;fill-rule:evenodd;stroke:rgb(0, 72, 255);stroke-width:1;" d="M 325.077, 725.43 L 329.837, 718.907 L 332.658, 715.029 L 333.363, 715.381 L 376.73, 733.539 L 369.326, 743.94 L 325.077, 725.43 z "/>
<path style="fill:rgb(255, 0, 0);fill-opacity:0;fill-rule:evenodd;stroke:rgb(0, 72, 255);stroke-width:1;" d="M 192.508, 91.4941 L 194.447, 88.8497 L 200.264, 80.7404 L 202.38, 80.5641 L 205.553, 76.1569 L 204.143, 74.7466 L 205.377, 73.16 L 207.669, 73.16 L 210.665, 69.1053 L 209.784, 67.8713 L 217.717, 56.9414 L 218.422, 55.8836 L 232.525, 61.8775 L 231.644, 63.1115 L 226.884, 69.6342 L 225.121, 68.7528 L 218.599, 77.7435 L 212.781, 85.6765 L 213.486, 87.9683 L 208.726, 94.491 L 206.611, 97.3116 L 192.508, 91.4941 z "/>
<path style="fill:rgb(0, 255, 0);fill-opacity:0;fill-rule:evenodd;stroke:rgb(0, 72, 255);stroke-width:1;" d="M 383.253, 666.197 L 393.301, 652.446 L 425.738, 666.197 L 415.69, 679.947 L 383.253, 666.197 z "/>
<path style="fill:rgb(0, 0, 255);fill-opacity:0;fill-rule:evenodd;stroke:rgb(0, 72, 255);stroke-width:1;" d="M 311.15, 744.645 L 318.026, 735.126 L 318.554, 734.597 L 362.627, 753.107 L 355.399, 763.156 L 311.15, 744.645 z "/>
<path style="fill:rgb(255, 255, 0);fill-opacity:0;fill-rule:evenodd;stroke:rgb(0, 72, 255);stroke-width:1;" d="M 208.726, 94.491 L 213.486, 87.9683 L 226.884, 69.6342 L 231.644, 63.1115 L 245.571, 68.929 L 232.173, 87.6157 L 222.829, 100.309 L 208.726, 94.491 z "/>
<path style="fill:rgb(255, 0, 0);fill-opacity:0;fill-rule:evenodd;stroke:rgb(0, 72, 255);stroke-width:1;" d="M 304.099, 754.341 L 309.74, 746.584 L 311.15, 744.645 L 355.399, 763.156 L 348.171, 772.851 L 304.099, 754.341 z "/>
<path style="fill:rgb(0, 255, 0);fill-opacity:0;fill-rule:evenodd;stroke:rgb(0, 72, 255);stroke-width:1;" d="M 437.902, 503.305 L 446.011, 492.199 L 446.717, 492.552 L 449.361, 488.673 L 448.303, 486.734 L 452.358, 481.269 L 454.297, 482.151 L 457.294, 478.096 L 455.884, 476.333 L 462.759, 467.166 L 476.333, 472.984 L 469.987, 481.622 L 467.342, 482.327 L 464.169, 486.911 L 465.756, 487.439 L 462.054, 492.552 L 459.233, 492.904 L 456.413, 496.606 L 457.47, 496.959 L 449.361, 508.065 L 437.902, 503.305 z "/>
<path style="fill:rgb(0, 0, 255);fill-opacity:0;fill-rule:evenodd;stroke:rgb(0, 72, 255);stroke-width:1;" d="M 452.005, 509.299 L 460.115, 498.193 L 460.82, 498.369 L 463.464, 494.667 L 462.054, 492.552 L 465.756, 487.439 L 467.871, 488.321 L 471.045, 483.914 L 469.987, 481.622 L 476.333, 472.984 L 490.26, 478.801 L 483.737, 487.616 L 481.446, 488.497 L 478.272, 492.904 L 479.506, 493.257 L 475.804, 498.369 L 473.689, 498.546 L 472.807, 498.722 L 469.987, 502.424 L 471.045, 502.777 L 466.285, 509.123 L 462.935, 513.883 L 452.005, 509.299 z "/>
<path style="fill:rgb(255, 255, 0);fill-opacity:0;fill-rule:evenodd;stroke:rgb(0, 72, 255);stroke-width:1;" d="M 333.363, 715.381 L 340.414, 705.685 L 341.472, 706.214 L 354.87, 711.855 L 358.572, 713.442 L 383.781, 724.019 L 376.73, 733.539 L 333.363, 715.381 z "/>
<path style="fill:rgb(255, 0, 0);fill-opacity:0;fill-rule:evenodd;stroke:rgb(0, 72, 255);stroke-width:1;" d="M 636.227, 128.515 L 657.03, 99.7796 L 671.485, 105.773 L 650.507, 134.509 L 636.227, 128.515 z "/>
<path style="fill:rgb(0, 255, 0);fill-opacity:0;fill-rule:evenodd;stroke:rgb(0, 72, 255);stroke-width:1;" d="M 276.069, 498.017 L 278.008, 495.549 L 297.752, 468.4 L 311.679, 474.218 L 289.996, 503.834 L 276.069, 498.017 z "/>
<path style="fill:rgb(0, 0, 255);fill-opacity:0;fill-rule:evenodd;stroke:rgb(0, 72, 255);stroke-width:1;" d="M 289.996, 503.834 L 311.679, 474.218 L 325.43, 480.212 L 319.612, 488.145 L 303.746, 509.652 L 289.996, 503.834 z "/>
<path style="fill:rgb(255, 255, 0);fill-opacity:0;fill-rule:evenodd;stroke:rgb(0, 72, 255);stroke-width:1;" d="M 145.967, 224.416 L 152.666, 215.249 L 197.091, 233.936 L 190.392, 243.103 L 145.967, 224.416 z "/>
<path style="fill:rgb(255, 0, 0);fill-opacity:0;fill-rule:evenodd;stroke:rgb(0, 72, 255);stroke-width:1;" d="M 318.554, 734.597 L 322.609, 728.955 L 325.077, 725.43 L 369.326, 743.94 L 362.627, 753.107 L 318.554, 734.597 z "/>
<path style="fill:rgb(0, 255, 0);fill-opacity:0;fill-rule:evenodd;stroke:rgb(0, 72, 255);stroke-width:1;" d="M 181.754, 81.9744 L 204.143, 51.3001 L 217.717, 56.9414 L 209.784, 67.8713 L 207.316, 66.8136 L 200.97, 75.4517 L 202.732, 76.1569 L 199.559, 80.3878 L 200.264, 80.7404 L 194.447, 88.8497 L 182.636, 83.7373 L 183.517, 82.6796 L 181.754, 81.9744 z "/>
<path style="fill:rgb(0, 0, 255);fill-opacity:0;fill-rule:evenodd;stroke:rgb(0, 72, 255);stroke-width:1;" d="M 608.726, 117.409 L 624.592, 95.3724 L 629.705, 88.3208 L 643.808, 94.1384 L 626.179, 118.466 L 621.772, 116.527 L 618.246, 121.463 L 608.726, 117.409 z "/>
<path style="fill:rgb(255, 255, 0);fill-opacity:0;fill-rule:evenodd;stroke:rgb(0, 72, 255);stroke-width:1;" d="M 387.483, 545.086 L 406.346, 519.348 L 420.626, 525.342 L 401.763, 551.256 L 387.483, 545.086 z "/>
<path style="fill:rgb(255, 0, 0);fill-opacity:0;fill-rule:evenodd;stroke:rgb(0, 72, 255);stroke-width:1;" d="M 139.974, 232.878 L 145.967, 224.416 L 190.392, 243.103 L 184.398, 251.388 L 139.974, 232.878 z "/>
<path style="fill:rgb(0, 255, 0);fill-opacity:0;fill-rule:evenodd;stroke:rgb(0, 72, 255);stroke-width:1;" d="M 560.776, 147.73 L 567.298, 139.621 L 579.11, 144.381 L 577.347, 146.849 L 593.742, 153.195 L 595.681, 159.542 L 588.806, 168.532 L 579.11, 164.301 L 581.225, 161.128 L 563.244, 153.195 L 560.776, 147.73 z "/>
<path style="fill:rgb(0, 0, 255);fill-opacity:0;fill-rule:evenodd;stroke:rgb(0, 72, 255);stroke-width:1;" d="M 624.063, 315.381 L 629.881, 307.977 L 633.936, 309.74 L 645.218, 296.518 L 652.446, 294.755 L 663.023, 300.044 L 656.148, 308.859 L 652.975, 307.448 L 644.16, 319.612 L 635.699, 320.846 L 624.063, 315.381 z "/>
<path style="fill:rgb(255, 255, 0);fill-opacity:0;fill-rule:evenodd;stroke:rgb(0, 72, 255);stroke-width:1;" d="M 342.53, 185.104 L 352.226, 173.116 L 349.052, 171.706 L 355.751, 162.891 L 367.034, 167.298 L 368.621, 172.94 L 358.925, 186.866 L 362.979, 188.629 L 357.338, 196.033 L 345.35, 191.274 L 342.53, 185.104 z "/>
<path style="fill:rgb(255, 0, 0);fill-opacity:0;fill-rule:evenodd;stroke:rgb(0, 72, 255);stroke-width:1;" d="M 401.763, 551.256 L 420.626, 525.342 L 434.024, 530.983 L 431.027, 535.39 L 415.161, 556.897 L 401.763, 551.256 z "/>
<path style="fill:rgb(0, 255, 0);fill-opacity:0;fill-rule:evenodd;stroke:rgb(0, 72, 255);stroke-width:1;" d="M 134.156, 240.635 L 139.974, 232.878 L 184.398, 251.388 L 178.581, 259.321 L 177.699, 258.969 L 155.487, 249.625 L 137.506, 242.045 L 134.156, 240.635 z "/>
<path style="fill:rgb(0, 0, 255);fill-opacity:0;fill-rule:evenodd;stroke:rgb(0, 72, 255);stroke-width:1;" d="M 269.017, 701.631 L 272.367, 697.047 L 290.348, 672.19 L 301.983, 677.126 L 287.175, 697.576 L 280.476, 706.567 L 269.017, 701.631 z "/>
<path style="fill:rgb(255, 255, 0);fill-opacity:0;fill-rule:evenodd;stroke:rgb(0, 72, 255);stroke-width:1;" d="M 485.853, 531.159 L 489.731, 525.87 L 493.61, 520.758 L 523.931, 533.627 L 516.175, 544.028 L 485.853, 531.159 z "/>
<path style="fill:rgb(255, 0, 0);fill-opacity:0;fill-rule:evenodd;stroke:rgb(0, 72, 255);stroke-width:1;" d="M 456.589, 574.35 L 464.698, 563.42 L 493.257, 575.408 L 485.148, 586.514 L 456.589, 574.35 z "/>
<path style="fill:rgb(0, 255, 0);fill-opacity:0;fill-rule:evenodd;stroke:rgb(0, 72, 255);stroke-width:1;" d="M 551.432, 444.425 L 551.961, 443.72 L 559.365, 433.495 L 588.1, 445.659 L 580.167, 456.589 L 551.432, 444.425 z "/>
<path style="fill:rgb(0, 0, 255);fill-opacity:0;fill-rule:evenodd;stroke:rgb(0, 72, 255);stroke-width:1;" d="M 431.732, 486.029 L 434.729, 481.974 L 449.537, 461.525 L 462.759, 467.166 L 455.884, 476.333 L 453.592, 476.509 L 450.595, 480.564 L 452.358, 481.269 L 448.303, 486.734 L 444.777, 491.494 L 431.732, 486.029 z "/>
<path style="fill:rgb(255, 255, 0);fill-opacity:0;fill-rule:evenodd;stroke:rgb(0, 72, 255);stroke-width:1;" d="M 408.638, 470.868 L 423.623, 450.595 L 438.607, 456.941 L 423.799, 477.391 L 408.638, 470.868 z "/>
<path style="fill:rgb(255, 0, 0);fill-opacity:0;fill-rule:evenodd;stroke:rgb(0, 72, 255);stroke-width:1;" d="M 303.746, 509.652 L 319.612, 488.145 L 333.715, 493.962 L 325.959, 504.716 L 317.849, 515.646 L 303.746, 509.652 z "/>
<path style="fill:rgb(0, 255, 0);fill-opacity:0;fill-rule:evenodd;stroke:rgb(0, 72, 255);stroke-width:1;" d="M 415.161, 556.897 L 431.027, 535.39 L 444.777, 541.208 L 429.088, 562.715 L 415.161, 556.897 z "/>
<path style="fill:rgb(0, 0, 255);fill-opacity:0;fill-rule:evenodd;stroke:rgb(0, 72, 255);stroke-width:1;" d="M 509.299, 453.063 L 524.46, 432.085 L 535.566, 436.844 L 538.74, 438.255 L 523.579, 459.233 L 509.299, 453.063 z "/>
<path style="fill:rgb(255, 255, 0);fill-opacity:0;fill-rule:evenodd;stroke:rgb(0, 72, 255);stroke-width:1;" d="M 495.196, 447.245 L 510.357, 426.267 L 524.46, 432.085 L 509.299, 453.063 L 495.196, 447.245 z "/>
<path style="fill:rgb(255, 0, 0);fill-opacity:0;fill-rule:evenodd;stroke:rgb(0, 72, 255);stroke-width:1;" d="M 264.081, 90.7889 L 271.838, 80.0353 L 299.339, 91.6703 L 291.582, 102.248 L 264.081, 90.7889 z "/>
<path style="fill:rgb(0, 255, 0);fill-opacity:0;fill-rule:evenodd;stroke:rgb(0, 72, 255);stroke-width:1;" d="M 467.519, 435.61 L 482.68, 414.632 L 496.783, 420.45 L 481.446, 441.428 L 467.519, 435.61 z "/>
<path style="fill:rgb(0, 0, 255);fill-opacity:0;fill-rule:evenodd;stroke:rgb(0, 72, 255);stroke-width:1;" d="M 544.028, 454.65 L 551.432, 444.425 L 580.167, 456.589 L 572.763, 466.814 L 544.028, 454.65 z "/>
<path style="fill:rgb(255, 255, 0);fill-opacity:0;fill-rule:evenodd;stroke:rgb(0, 72, 255);stroke-width:1;" d="M 249.097, 111.415 L 256.677, 100.837 L 284.178, 112.472 L 276.598, 122.874 L 249.097, 111.415 z "/>
<path style="fill:rgb(255, 0, 0);fill-opacity:0;fill-rule:evenodd;stroke:rgb(0, 72, 255);stroke-width:1;" d="M 536.8, 464.698 L 544.028, 454.65 L 572.763, 466.814 L 565.359, 476.862 L 536.8, 464.698 z "/>
<path style="fill:rgb(0, 255, 0);fill-opacity:0;fill-rule:evenodd;stroke:rgb(0, 72, 255);stroke-width:1;" d="M 376.73, 675.011 L 383.253, 666.197 L 415.69, 679.947 L 409.167, 688.762 L 376.73, 675.011 z "/>
<path style="fill:rgb(0, 0, 255);fill-opacity:0;fill-rule:evenodd;stroke:rgb(0, 72, 255);stroke-width:1;" d="M 481.446, 441.428 L 496.783, 420.45 L 510.357, 426.267 L 495.196, 447.245 L 481.446, 441.428 z "/>
<path style="fill:rgb(255, 255, 0);fill-opacity:0;fill-rule:evenodd;stroke:rgb(0, 72, 255);stroke-width:1;" d="M 232.173, 87.6157 L 245.571, 68.929 L 260.908, 75.4517 L 247.334, 93.9621 L 232.173, 87.6157 z "/>
<path style="fill:rgb(255, 0, 0);fill-opacity:0;fill-rule:evenodd;stroke:rgb(0, 72, 255);stroke-width:1;" d="M 256.677, 100.837 L 264.081, 90.7889 L 291.582, 102.248 L 284.178, 112.472 L 256.677, 100.837 z "/>
<path style="fill:rgb(0, 255, 0);fill-opacity:0;fill-rule:evenodd;stroke:rgb(0, 72, 255);stroke-width:1;" d="M 429.088, 562.715 L 444.777, 541.208 L 446.011, 541.736 L 457.47, 546.673 L 449.89, 557.074 L 441.781, 568.18 L 429.088, 562.715 z "/>
<path style="fill:rgb(0, 0, 255);fill-opacity:0;fill-rule:evenodd;stroke:rgb(0, 72, 255);stroke-width:1;" d="M 123.579, 213.486 L 141.208, 188.982 L 152.314, 193.742 L 134.685, 218.07 L 123.579, 213.486 z "/>
<path style="fill:rgb(255, 255, 0);fill-opacity:0;fill-rule:evenodd;stroke:rgb(0, 72, 255);stroke-width:1;" d="M 236.051, 748.347 L 251.388, 727.193 L 256.677, 729.308 L 261.437, 722.785 L 267.078, 725.253 L 262.318, 731.776 L 246.981, 752.931 L 236.051, 748.347 z "/>
<path style="fill:rgb(255, 0, 0);fill-opacity:0;fill-rule:evenodd;stroke:rgb(0, 72, 255);stroke-width:1;" d="M 261.789, 692.64 L 265.139, 688.056 L 280.123, 667.254 L 290.701, 671.838 L 290.348, 672.19 L 272.367, 697.047 L 261.789, 692.64 z "/>
<path style="fill:rgb(0, 255, 0);fill-opacity:0;fill-rule:evenodd;stroke:rgb(0, 72, 255);stroke-width:1;" d="M 168.356, 719.26 L 183.693, 698.105 L 195.681, 703.217 L 180.344, 724.372 L 168.356, 719.26 z "/>
<path style="fill:rgb(0, 0, 255);fill-opacity:0;fill-rule:evenodd;stroke:rgb(0, 72, 255);stroke-width:1;" d="M 202.204, 734.244 L 202.732, 733.715 L 217.717, 712.913 L 229.176, 717.849 L 213.662, 739.004 L 202.204, 734.244 z "/>
<path style="fill:rgb(255, 255, 0);fill-opacity:0;fill-rule:evenodd;stroke:rgb(0, 72, 255);stroke-width:1;" d="M 246.981, 752.931 L 262.318, 731.776 L 273.777, 736.536 L 258.264, 757.691 L 246.981, 752.931 z "/>
<path style="fill:rgb(255, 0, 0);fill-opacity:0;fill-rule:evenodd;stroke:rgb(0, 72, 255);stroke-width:1;" d="M 358.572, 713.442 L 365.447, 703.922 L 390.657, 714.5 L 383.781, 724.019 L 358.572, 713.442 z "/>
<path style="fill:rgb(0, 255, 0);fill-opacity:0;fill-rule:evenodd;stroke:rgb(0, 72, 255);stroke-width:1;" d="M 224.769, 743.764 L 240.282, 722.433 L 251.388, 727.193 L 236.051, 748.347 L 224.769, 743.764 z "/>
<path style="fill:rgb(0, 0, 255);fill-opacity:0;fill-rule:evenodd;stroke:rgb(0, 72, 255);stroke-width:1;" d="M 213.662, 739.004 L 229.176, 717.849 L 240.282, 722.433 L 224.769, 743.764 L 213.662, 739.004 z "/>
<path style="fill:rgb(255, 255, 0);fill-opacity:0;fill-rule:evenodd;stroke:rgb(0, 72, 255);stroke-width:1;" d="M 242.574, 678.537 L 257.206, 658.264 L 257.558, 657.911 L 269.017, 662.671 L 254.033, 683.297 L 242.574, 678.537 z "/>
<path style="fill:rgb(255, 0, 0);fill-opacity:0;fill-rule:evenodd;stroke:rgb(0, 72, 255);stroke-width:1;" d="M 287.175, 697.576 L 301.983, 677.126 L 313.442, 681.886 L 306.038, 691.935 L 298.634, 702.336 L 287.175, 697.576 z "/>
<path style="fill:rgb(0, 255, 0);fill-opacity:0;fill-rule:evenodd;stroke:rgb(0, 72, 255);stroke-width:1;" d="M 254.033, 683.297 L 269.017, 662.671 L 280.123, 667.254 L 265.139, 688.056 L 254.033, 683.297 z "/>
<path style="fill:rgb(0, 0, 255);fill-opacity:0;fill-rule:evenodd;stroke:rgb(0, 72, 255);stroke-width:1;" d="M 423.799, 477.391 L 438.607, 456.941 L 449.537, 461.525 L 434.729, 481.974 L 423.799, 477.391 z "/>
<path style="fill:rgb(255, 255, 0);fill-opacity:0;fill-rule:evenodd;stroke:rgb(0, 72, 255);stroke-width:1;" d="M 713.618, 600.97 L 727.721, 594.623 L 737.594, 607.316 L 723.491, 613.662 L 713.618, 600.97 z "/>
<path style="fill:rgb(255, 0, 0);fill-opacity:0;fill-rule:evenodd;stroke:rgb(0, 72, 255);stroke-width:1;" d="M 817.981, 530.63 L 832.085, 524.108 L 842.133, 536.8 L 828.03, 543.147 L 817.981, 530.63 z "/>
<path style="fill:rgb(0, 255, 0);fill-opacity:0;fill-rule:evenodd;stroke:rgb(0, 72, 255);stroke-width:1;" d="M 547.201, 705.509 L 561.305, 699.163 L 571.353, 711.855 L 557.25, 718.202 L 547.201, 705.509 z "/>
<path style="fill:rgb(0, 0, 255);fill-opacity:0;fill-rule:evenodd;stroke:rgb(0, 72, 255);stroke-width:1;" d="M 664.434, 755.399 L 678.361, 748.876 L 688.409, 761.569 L 674.482, 767.915 L 664.434, 755.399 z "/>
<path style="fill:rgb(255, 255, 0);fill-opacity:0;fill-rule:evenodd;stroke:rgb(0, 72, 255);stroke-width:1;" d="M 939.621, 582.459 L 953.724, 576.113 L 963.596, 588.806 L 949.493, 595.152 L 939.621, 582.459 z "/>
<path style="fill:rgb(255, 0, 0);fill-opacity:0;fill-rule:evenodd;stroke:rgb(0, 72, 255);stroke-width:1;" d="M 593.742, 615.249 L 610.313, 607.669 L 618.775, 618.422 L 602.204, 626.003 L 593.742, 615.249 z "/>
<path style="fill:rgb(0, 255, 0);fill-opacity:0;fill-rule:evenodd;stroke:rgb(0, 72, 255);stroke-width:1;" d="M 685.236, 491.494 L 702.512, 484.795 L 709.916, 495.901 L 692.64, 502.6 L 685.236, 491.494 z "/>
<path style="fill:rgb(0, 0, 255);fill-opacity:0;fill-rule:evenodd;stroke:rgb(0, 72, 255);stroke-width:1;" d="M 758.572, 692.993 L 774.967, 685.059 L 783.781, 695.461 L 767.563, 703.394 L 758.572, 692.993 z "/>
<path style="fill:rgb(255, 255, 0);fill-opacity:0;fill-rule:evenodd;stroke:rgb(0, 72, 255);stroke-width:1;" d="M 877.391, 667.959 L 891.494, 661.613 L 901.543, 674.13 L 887.439, 680.652 L 877.391, 667.959 z "/>
<path style="fill:rgb(255, 0, 0);fill-opacity:0;fill-rule:evenodd;stroke:rgb(0, 72, 255);stroke-width:1;" d="M 623.006, 146.673 L 626.884, 141.384 L 631.644, 134.861 L 646.1, 140.679 L 645.923, 141.031 L 637.461, 152.666 L 623.006, 146.673 z "/>
<path style="fill:rgb(0, 255, 0);fill-opacity:0;fill-rule:evenodd;stroke:rgb(0, 72, 255);stroke-width:1;" d="M 441.781, 568.18 L 449.89, 557.074 L 464.698, 563.42 L 456.589, 574.35 L 441.781, 568.18 z "/>
<path style="fill:rgb(0, 0, 255);fill-opacity:0;fill-rule:evenodd;stroke:rgb(0, 72, 255);stroke-width:1;" d="M 700.749, 165.888 L 709.564, 154.077 L 722.609, 159.718 L 713.795, 171.529 L 700.749, 165.888 z "/>
<path style="fill:rgb(255, 255, 0);fill-opacity:0;fill-rule:evenodd;stroke:rgb(0, 72, 255);stroke-width:1;" d="M 326.84, 477.743 L 334.773, 466.99 L 349.052, 473.16 L 345.174, 478.449 L 341.119, 483.914 L 326.84, 477.743 z "/>
<path style="fill:rgb(255, 0, 0);fill-opacity:0;fill-rule:evenodd;stroke:rgb(0, 72, 255);stroke-width:1;" d="M 340.767, 703.746 L 346.584, 695.813 L 361.745, 702.16 L 354.87, 711.855 L 341.472, 706.214 L 340.767, 703.746 z "/>
<path style="fill:rgb(0, 255, 0);fill-opacity:0;fill-rule:evenodd;stroke:rgb(0, 72, 255);stroke-width:1;" d="M 459.938, 520.229 L 463.993, 514.941 L 489.731, 525.87 L 485.853, 531.159 L 459.938, 520.229 z "/>
<path style="fill:rgb(0, 0, 255);fill-opacity:0;fill-rule:evenodd;stroke:rgb(0, 72, 255);stroke-width:1;" d="M 463.993, 514.941 L 467.695, 509.828 L 493.61, 520.758 L 489.731, 525.87 L 463.993, 514.941 z "/>
<path style="fill:rgb(255, 255, 0);fill-opacity:0;fill-rule:evenodd;stroke:rgb(0, 72, 255);stroke-width:1;" d="M 298.81, 741.825 L 306.919, 730.542 L 318.026, 735.126 L 311.15, 744.645 L 309.74, 746.584 L 298.81, 741.825 z "/>
<path style="fill:rgb(255, 0, 0);fill-opacity:0;fill-rule:evenodd;stroke:rgb(0, 72, 255);stroke-width:1;" d="M 52.0053, 41.6042 L 82.327, 0 L 123.226, 17.2763 L 95.5487, 55.1785 L 92.9044, 58.8806 L 52.0053, 41.6042 z "/>
<path style="fill:rgb(0, 255, 0);fill-opacity:0;fill-rule:evenodd;stroke:rgb(0, 72, 255);stroke-width:1;" d="M 56.9414, 675.364 L 85.1476, 636.58 L 86.558, 637.109 L 89.026, 633.759 L 101.19, 616.836 L 107.007, 619.304 L 120.758, 600.617 L 135.214, 606.611 L 134.332, 608.021 L 202.909, 636.933 L 203.967, 635.522 L 218.951, 641.692 L 211.194, 652.27 L 215.778, 654.033 L 183.693, 698.105 L 168.356, 719.26 L 166.77, 721.551 L 56.9414, 675.364 z M 92.7281, 658.264 L 176.642, 693.521 L 183.87, 683.473 L 186.69, 684.707 L 197.973, 669.017 L 102.953, 629.176 L 98.7219, 634.993 L 107.184, 638.519 L 92.7281, 658.264 z "/>
<path style="fill:rgb(0, 0, 255);fill-opacity:0;fill-rule:evenodd;stroke:rgb(0, 72, 255);stroke-width:1;" d="M 0, 239.224 L 15.5134, 217.893 L 20.6258, 220.009 L 35.7867, 199.383 L 57.1177, 208.374 L 47.5981, 221.419 L 44.0723, 219.833 L 42.1331, 222.477 L 67.3424, 233.054 L 69.2816, 230.41 L 65.5796, 228.823 L 75.0992, 215.778 L 75.8043, 216.13 L 87.6157, 221.067 L 96.959, 224.945 L 87.4394, 238.167 L 84.2662, 236.756 L 82.327, 239.401 L 107.536, 249.978 L 109.652, 247.334 L 105.597, 245.571 L 115.117, 232.525 L 121.992, 235.522 L 134.156, 240.635 L 137.506, 242.045 L 127.986, 255.267 L 124.636, 253.856 L 122.697, 256.501 L 147.378, 266.902 L 149.317, 264.257 L 145.967, 262.847 L 155.487, 249.625 L 177.699, 258.969 L 147.025, 300.926 L 99.2508, 280.829 L 106.302, 271.309 L 94.491, 266.373 L 87.6157, 275.892 L 63.8167, 266.02 L 64.8744, 264.61 L 59.9383, 262.494 L 66.2847, 253.68 L 54.6496, 248.744 L 49.5372, 255.796 L 44.0723, 253.504 L 42.3094, 255.796 L 41.2517, 255.267 L 40.5465, 256.148 L 0, 239.224 z "/>
<path style="fill:rgb(255, 255, 0);fill-opacity:0;fill-rule:evenodd;stroke:rgb(0, 72, 255);stroke-width:1;" d="M 53.4156, 618.775 L 79.3301, 582.988 L 114.941, 597.973 L 101.19, 616.836 L 89.026, 633.759 L 53.4156, 618.775 z "/>
<path style="fill:rgb(255, 0, 0);fill-opacity:0;fill-rule:evenodd;stroke:rgb(0, 72, 255);stroke-width:1;" d="M 62.7589, 191.803 L 64.1692, 189.687 L 82.6796, 164.478 L 106.126, 174.35 L 84.7951, 203.614 L 78.6249, 201.146 L 85.5002, 191.626 L 88.1446, 190.216 L 75.9806, 185.104 L 69.2816, 194.623 L 62.7589, 191.803 z "/>
<path style="fill:rgb(0, 255, 0);fill-opacity:0;fill-rule:evenodd;stroke:rgb(0, 72, 255);stroke-width:1;" d="M 62.5826, 100.661 L 69.2816, 91.3178 L 71.0445, 90.7889 L 76.1569, 83.9136 L 81.9744, 86.3817 L 84.2662, 83.2085 L 78.4487, 80.7404 L 83.9136, 73.16 L 83.561, 71.7497 L 89.7312, 63.2878 L 103.482, 69.1053 L 77.3909, 105.068 L 76.3332, 106.479 L 62.5826, 100.661 z "/>
<path style="fill:rgb(0, 0, 255);fill-opacity:0;fill-rule:evenodd;stroke:rgb(0, 72, 255);stroke-width:1;" d="M 77.3909, 105.068 L 103.482, 69.1053 L 109.476, 60.996 L 137.153, 23.0939 L 204.143, 51.3001 L 181.754, 81.9744 L 160.071, 112.472 L 163.42, 113.883 L 200.264, 129.396 L 204.848, 123.05 L 200.793, 121.463 L 200.088, 117.585 L 206.082, 109.123 L 208.021, 110.004 L 209.079, 108.418 L 211.547, 109.476 L 209.608, 112.296 L 210.665, 112.825 L 212.781, 110.004 L 214.72, 110.71 L 213.31, 112.825 L 214.72, 113.354 L 217.364, 109.828 L 263.552, 129.22 L 260.203, 133.98 L 262.671, 134.861 L 234.641, 173.116 L 143.323, 134.685 L 144.381, 133.451 L 77.3909, 105.068 z "/>
<path style="fill:rgb(255, 255, 0);fill-opacity:0;fill-rule:evenodd;stroke:rgb(0, 72, 255);stroke-width:1;" d="M 379.727, 81.6219 L 389.775, 67.8713 L 393.83, 69.6342 L 423.094, 29.6166 L 419.039, 27.8537 L 429.617, 13.5743 L 433.319, 15.1609 L 436.316, 11.1062 L 450.948, 17.2763 L 453.239, 14.1031 L 490.26, 29.7929 L 485.148, 36.6681 L 496.783, 41.4279 L 478.096, 66.9899 L 459.762, 59.2331 L 446.893, 76.8621 L 476.686, 89.3786 L 457.47, 115.646 L 434.553, 105.95 L 429.969, 112.472 L 392.948, 96.7827 L 395.24, 93.7858 L 380.784, 87.6157 L 383.958, 83.3848 L 379.727, 81.6219 z "/>
<path style="fill:rgb(255, 0, 0);fill-opacity:0;fill-rule:evenodd;stroke:rgb(0, 72, 255);stroke-width:1;" d="M 269.899, 45.6589 L 292.464, 14.632 L 286.47, 12.1639 L 294.05, 1.93918 L 314.676, 10.5773 L 348.171, 24.8568 L 318.026, 66.1084 L 269.899, 45.6589 z "/>
<path style="fill:rgb(0, 255, 0);fill-opacity:0;fill-rule:evenodd;stroke:rgb(0, 72, 255);stroke-width:1;" d="M 728.603, 27.6774 L 743.235, 7.75672 L 754.87, 12.6928 L 755.751, 11.6351 L 756.809, 12.1639 L 757.338, 11.4588 L 768.444, 16.2186 L 770.031, 15.5134 L 774.967, 17.6289 L 776.025, 19.2155 L 786.602, 23.6227 L 785.897, 24.5042 L 787.131, 25.0331 L 786.249, 26.4434 L 797.356, 31.2032 L 797.708, 31.3795 L 783.605, 50.7713 L 771.97, 45.8352 L 770.207, 48.3032 L 769.149, 47.7743 L 768.444, 48.8321 L 757.867, 44.2486 L 759.982, 41.2517 L 758.572, 40.5465 L 756.985, 42.662 L 752.049, 40.5465 L 754.341, 37.5496 L 752.226, 36.6681 L 749.229, 40.7228 L 739.357, 36.4918 L 740.062, 35.6104 L 738.299, 34.9052 L 740.062, 32.6135 L 728.603, 27.6774 z "/>
<path style="fill:rgb(0, 0, 255);fill-opacity:0;fill-rule:evenodd;stroke:rgb(0, 72, 255);stroke-width:1;" d="M 95.5487, 55.1785 L 123.226, 17.2763 L 137.153, 23.0939 L 109.476, 60.996 L 95.5487, 55.1785 z "/>
<path style="fill:rgb(255, 255, 0);fill-opacity:0;fill-rule:evenodd;stroke:rgb(0, 72, 255);stroke-width:1;" d="M 620.89, 50.9476 L 627.06, 42.1331 L 634.288, 32.0846 L 637.638, 33.3186 L 639.048, 31.3795 L 635.699, 29.9691 L 640.282, 23.6227 L 644.689, 17.4526 L 648.92, 19.2155 L 650.507, 17.1 L 656.501, 19.5681 L 654.914, 21.8599 L 658.264, 23.2702 L 649.273, 35.7867 L 645.218, 34.2001 L 643.984, 35.7867 L 648.215, 37.5496 L 634.465, 56.5888 L 620.89, 50.9476 z "/>
<path style="fill:rgb(255, 0, 0);fill-opacity:0;fill-rule:evenodd;stroke:rgb(0, 72, 255);stroke-width:1;" d="M 606.611, 45.13 L 612.781, 36.4918 L 613.839, 37.0207 L 621.595, 26.0908 L 623.535, 26.9722 L 626.532, 22.7413 L 624.24, 21.8599 L 633.759, 8.63817 L 647.157, 14.1031 L 644.689, 17.4526 L 640.282, 23.6227 L 638.167, 22.7413 L 634.993, 27.3248 L 633.23, 26.6197 L 630.057, 30.8506 L 631.82, 31.5558 L 624.945, 41.4279 L 627.06, 42.1331 L 620.89, 50.9476 L 606.611, 45.13 z "/>
<path style="fill:rgb(0, 255, 0);fill-opacity:0;fill-rule:evenodd;stroke:rgb(0, 72, 255);stroke-width:1;" d="M 664.434, 755.399 L 678.361, 748.876 L 688.409, 761.569 L 674.482, 767.915 L 664.434, 755.399 z "/>
</svg>