<?xml version="1.0" encoding="iso-8859-1" standalone="no"?>
<!DOCTYPE svg PUBLIC "-//W3C//DTD SVG 1.0//EN" "http://www.w3.org/TR/2001/REC-SVG-20010904/DTD/svg10.dtd">
<svg xmlns="http://www.w3.org/2000/svg" width="1124" height="800">
<path style="fill:rgb(255, 0, 0);fill-opacity:0;fill-rule:evenodd;stroke:rgb(255, 132, 0);stroke-width:1;" d="M 290.056, 35.5307 L 372.737, 21.2291 L 378.994, 42.2346 L 380.559, 47.1508 L 393.966, 44.6927 L 400.894, 67.2626 L 386.592, 69.7207 L 388.603, 76.648 L 361.117, 81.3408 L 361.564, 83.1285 L 365.14, 82.4581 L 374.972, 115.084 L 380.112, 114.19 L 387.486, 138.324 L 342.57, 146.145 L 344.134, 151.508 L 322.682, 155.307 L 298.101, 73.5196 L 301.229, 73.0726 L 290.056, 35.5307 z M 320.67, 71.7318 L 325.587, 89.162 L 343.464, 86.257 L 338.771, 68.8268 L 320.67, 71.7318 z "/>
<path style="fill:rgb(0, 255, 0);fill-opacity:0;fill-rule:evenodd;stroke:rgb(255, 132, 0);stroke-width:1;" d="M 892.737, 569.609 L 895.419, 565.81 L 921.788, 530.279 L 926.48, 532.291 L 932.067, 524.693 L 990.615, 549.721 L 1032.63, 567.598 L 1021.68, 582.57 L 994.19, 619.888 L 950.615, 601.341 L 954.19, 596.648 L 931.844, 587.039 L 932.737, 586.145 L 924.469, 582.57 L 920.223, 588.38 L 893.408, 576.983 L 897.43, 571.62 L 892.737, 569.609 z "/>
<path style="fill:rgb(0, 0, 255);fill-opacity:0;fill-rule:evenodd;stroke:rgb(255, 132, 0);stroke-width:1;" d="M 991.732, 433.52 L 1031.28, 378.994 L 1070.84, 395.531 L 1052.74, 420.335 L 1071.28, 428.156 L 1089.39, 403.352 L 1122.91, 417.43 L 1106.82, 439.777 L 1113.3, 442.682 L 1089.83, 474.86 L 991.732, 433.52 z "/>
<path style="fill:rgb(255, 255, 0);fill-opacity:0;fill-rule:evenodd;stroke:rgb(255, 132, 0);stroke-width:1;" d="M 785.922, 716.872 L 809.609, 684.246 L 845.14, 699.218 L 860.335, 705.475 L 853.408, 715.084 L 878.659, 725.81 L 885.81, 715.978 L 897.43, 720.894 L 913.073, 699.441 L 931.844, 707.263 L 911.508, 735.196 L 918.436, 738.101 L 899.218, 764.693 L 785.922, 716.872 z "/>
<path style="fill:rgb(255, 0, 0);fill-opacity:0;fill-rule:evenodd;stroke:rgb(255, 132, 0);stroke-width:1;" d="M 835.531, 648.715 L 865.475, 607.598 L 948.827, 642.682 L 929.609, 669.05 L 922.682, 666.145 L 911.955, 680.67 L 888.045, 670.615 L 900.335, 653.631 L 877.318, 644.022 L 864.804, 661.006 L 835.531, 648.715 z "/>
<path style="fill:rgb(0, 255, 0);fill-opacity:0;fill-rule:evenodd;stroke:rgb(255, 132, 0);stroke-width:1;" d="M 1025.03, 630.615 L 1050.5, 596.201 L 1035.08, 589.721 L 1044.47, 577.207 L 1049.16, 570.95 L 1073.07, 581.229 L 1067.26, 589.274 L 1062.57, 587.263 L 1055.42, 596.872 L 1073.74, 604.693 L 1084.47, 590.168 L 1109.5, 600.894 L 1096.31, 618.994 L 1083.8, 621.899 L 1098.1, 628.156 L 1079.11, 653.631 L 1025.03, 630.615 z "/>
<path style="fill:rgb(0, 0, 255);fill-opacity:0;fill-rule:evenodd;stroke:rgb(255, 132, 0);stroke-width:1;" d="M 925.14, 775.642 L 927.374, 772.737 L 964.916, 721.341 L 1007.82, 739.441 L 1002.91, 745.922 L 968.045, 793.743 L 925.14, 775.642 z "/>
<path style="fill:rgb(255, 255, 0);fill-opacity:0;fill-rule:evenodd;stroke:rgb(255, 132, 0);stroke-width:1;" d="M 809.609, 684.246 L 835.531, 648.715 L 864.804, 661.006 L 871.285, 663.911 L 865.698, 671.732 L 870.168, 673.52 L 871.732, 671.508 L 913.073, 688.939 L 907.486, 696.76 L 898.547, 692.961 L 886.704, 709.05 L 854.525, 695.642 L 856.313, 692.961 L 851.173, 690.726 L 845.14, 699.218 L 809.609, 684.246 z "/>
<path style="fill:rgb(255, 0, 0);fill-opacity:0;fill-rule:evenodd;stroke:rgb(255, 132, 0);stroke-width:1;" d="M 945.475, 498.101 L 969.385, 465.698 L 1048.04, 499.441 L 1029.05, 524.916 L 1014.3, 518.659 L 1013.63, 519.33 L 972.737, 501.899 L 971.62, 503.464 L 966.257, 501.006 L 962.905, 505.475 L 945.475, 498.101 z "/>
<path style="fill:rgb(0, 255, 0);fill-opacity:0;fill-rule:evenodd;stroke:rgb(255, 132, 0);stroke-width:1;" d="M 1031.28, 378.994 L 1049.16, 354.637 L 1095.87, 374.302 L 1124.25, 386.145 L 1109.5, 406.48 L 1075.75, 392.179 L 1072.63, 396.425 L 1070.84, 395.531 L 1031.28, 378.994 z "/>
<path style="fill:rgb(0, 0, 255);fill-opacity:0;fill-rule:evenodd;stroke:rgb(255, 132, 0);stroke-width:1;" d="M 906.592, 767.821 L 946.369, 713.52 L 964.916, 721.341 L 927.374, 772.737 L 925.14, 775.642 L 906.592, 767.821 z "/>
<path style="fill:rgb(255, 255, 0);fill-opacity:0;fill-rule:evenodd;stroke:rgb(255, 132, 0);stroke-width:1;" d="M 0, 639.33 L 5.36313, 625.475 L 24.8045, 629.721 L 25.4749, 627.486 L 58.5475, 634.637 L 57.6536, 636.872 L 76.648, 640.894 L 71.5084, 654.972 L 0, 639.33 z "/>
<path style="fill:rgb(255, 0, 0);fill-opacity:0;fill-rule:evenodd;stroke:rgb(255, 132, 0);stroke-width:1;" d="M 818.101, 410.726 L 825.698, 399.777 L 823.687, 398.883 L 840.223, 375.419 L 843.128, 376.536 L 851.173, 364.916 L 867.263, 371.62 L 858.994, 383.017 L 861.453, 384.134 L 844.693, 407.598 L 842.235, 406.48 L 834.413, 417.43 L 818.101, 410.726 z "/>
<path style="fill:rgb(0, 255, 0);fill-opacity:0;fill-rule:evenodd;stroke:rgb(255, 132, 0);stroke-width:1;" d="M 1026.82, 561.564 L 1037.54, 547.039 L 1026.82, 542.57 L 1054.75, 504.804 L 1072.85, 512.626 L 1038.21, 559.33 L 1034.41, 564.916 L 1026.82, 561.564 z "/>
<path style="fill:rgb(0, 0, 255);fill-opacity:0;fill-rule:evenodd;stroke:rgb(255, 132, 0);stroke-width:1;" d="M 1018.99, 743.464 L 1026.15, 733.631 L 1058.77, 689.162 L 1075.75, 696.313 L 1049.39, 732.514 L 1041.56, 729.162 L 1028.16, 747.263 L 1018.99, 743.464 z "/>
<path style="fill:rgb(255, 255, 0);fill-opacity:0;fill-rule:evenodd;stroke:rgb(255, 132, 0);stroke-width:1;" d="M 1036.2, 750.391 L 1049.39, 732.514 L 1075.75, 696.313 L 1091.4, 702.793 L 1060.34, 745.698 L 1057.88, 748.827 L 1049.16, 745.028 L 1043.13, 753.296 L 1036.2, 750.391 z "/>
<path style="fill:rgb(255, 0, 0);fill-opacity:0;fill-rule:evenodd;stroke:rgb(255, 132, 0);stroke-width:1;" d="M 988.603, 727.151 L 1026.37, 675.307 L 1042.46, 682.235 L 1017.43, 716.648 L 1011.84, 714.19 L 1008.04, 719.106 L 1009.16, 720.67 L 1000.89, 732.291 L 988.603, 727.151 z "/>
<path style="fill:rgb(0, 255, 0);fill-opacity:0;fill-rule:evenodd;stroke:rgb(255, 132, 0);stroke-width:1;" d="M 948.827, 709.944 L 961.117, 693.184 L 954.413, 690.279 L 976.983, 659.218 L 979.665, 655.642 L 995.531, 662.346 L 964.246, 705.475 L 958.212, 713.966 L 948.827, 709.944 z "/>
<path style="fill:rgb(0, 0, 255);fill-opacity:0;fill-rule:evenodd;stroke:rgb(255, 132, 0);stroke-width:1;" d="M 934.972, 512.402 L 945.475, 498.101 L 962.905, 505.475 L 964.693, 506.145 L 962.458, 509.274 L 998.659, 524.916 L 999.106, 529.609 L 995.978, 533.855 L 990.615, 536.089 L 934.972, 512.402 z "/>
<path style="fill:rgb(255, 255, 0);fill-opacity:0;fill-rule:evenodd;stroke:rgb(255, 132, 0);stroke-width:1;" d="M 978.101, 726.257 L 986.369, 714.86 L 989.497, 713.743 L 990.168, 713.966 L 995.084, 707.263 L 985.922, 703.464 L 1010.95, 669.05 L 1026.37, 675.307 L 988.603, 727.151 L 986.592, 729.832 L 978.101, 726.257 z "/>
<path style="fill:rgb(255, 0, 0);fill-opacity:0;fill-rule:evenodd;stroke:rgb(255, 132, 0);stroke-width:1;" d="M 968.045, 793.743 L 1002.91, 745.922 L 1012.74, 749.944 L 1009.16, 754.637 L 1011.17, 757.095 L 1007.6, 761.788 L 1004.47, 761.564 L 1009.61, 763.799 L 983.017, 800 L 968.045, 793.743 z "/>
<path style="fill:rgb(0, 255, 0);fill-opacity:0;fill-rule:evenodd;stroke:rgb(255, 132, 0);stroke-width:1;" d="M 964.246, 705.475 L 995.531, 662.346 L 1010.95, 669.05 L 985.922, 703.464 L 979.665, 711.955 L 964.246, 705.475 z "/>
<path style="fill:rgb(0, 0, 255);fill-opacity:0;fill-rule:evenodd;stroke:rgb(255, 132, 0);stroke-width:1;" d="M 993.073, 621.006 L 994.19, 619.888 L 1021.68, 582.57 L 1028.16, 585.251 L 1036.65, 573.855 L 1044.47, 577.207 L 1035.08, 589.721 L 1007.6, 627.263 L 993.073, 621.006 z "/>
<path style="fill:rgb(255, 255, 0);fill-opacity:0;fill-rule:evenodd;stroke:rgb(255, 132, 0);stroke-width:1;" d="M 927.374, 522.682 L 934.972, 512.402 L 990.615, 536.089 L 987.039, 540.782 L 994.86, 543.911 L 990.615, 549.721 L 932.067, 524.693 L 927.374, 522.682 z "/>
<path style="fill:rgb(255, 0, 0);fill-opacity:0;fill-rule:evenodd;stroke:rgb(255, 132, 0);stroke-width:1;" d="M 1017.43, 716.648 L 1042.46, 682.235 L 1058.77, 689.162 L 1026.15, 733.631 L 1020.78, 731.397 L 1028.38, 721.117 L 1017.43, 716.648 z "/>
<path style="fill:rgb(0, 255, 0);fill-opacity:0;fill-rule:evenodd;stroke:rgb(255, 132, 0);stroke-width:1;" d="M 935.196, 688.268 L 961.117, 652.514 L 976.983, 659.218 L 954.413, 690.279 L 951.061, 694.972 L 935.196, 688.268 z "/>
<path style="fill:rgb(0, 0, 255);fill-opacity:0;fill-rule:evenodd;stroke:rgb(255, 132, 0);stroke-width:1;" d="M 1038.21, 559.33 L 1072.85, 512.626 L 1087.6, 518.883 L 1066.15, 547.933 L 1057.65, 544.358 L 1055.64, 547.039 L 1056.09, 549.497 L 1046.26, 562.682 L 1038.21, 559.33 z "/>
<path style="fill:rgb(255, 255, 0);fill-opacity:0;fill-rule:evenodd;stroke:rgb(255, 132, 0);stroke-width:1;" d="M 1053.85, 566.034 L 1067.04, 548.38 L 1066.15, 547.933 L 1087.6, 518.883 L 1103.24, 525.587 L 1081.79, 554.637 L 1072.85, 550.838 L 1059.66, 568.492 L 1053.85, 566.034 z "/>
<path style="fill:rgb(255, 0, 0);fill-opacity:0;fill-rule:evenodd;stroke:rgb(255, 132, 0);stroke-width:1;" d="M 1060.34, 745.698 L 1091.4, 702.793 L 1105.47, 708.827 L 1080.67, 742.793 L 1074.64, 740.112 L 1071.28, 744.804 L 1067.93, 743.24 L 1064.8, 747.709 L 1060.34, 745.698 z "/>
<path style="fill:rgb(0, 255, 0);fill-opacity:0;fill-rule:evenodd;stroke:rgb(255, 132, 0);stroke-width:1;" d="M 463.017, 4.24581 L 479.777, 3.79888 L 479.777, 0.670391 L 513.52, 0 L 513.743, 7.3743 L 463.24, 8.71508 L 463.017, 4.24581 z "/>
</svg>