<?xml version="1.0" encoding="iso-8859-1" standalone="no"?>
<!DOCTYPE svg PUBLIC "-//W3C//DTD SVG 1.0//EN" "http://www.w3.org/TR/2001/REC-SVG-20010904/DTD/svg10.dtd">
<svg xmlns="http://www.w3.org/2000/svg" width="1057" height="800">
<path style="fill:rgb(255, 0, 0);fill-opacity:0;fill-rule:evenodd;stroke:rgb(255, 188, 0);stroke-width:1;" d="M 156.646, 434.255 L 164.496, 423.55 L 167.351, 424.799 L 213.559, 361.463 L 210.883, 360.393 L 218.733, 349.509 L 257.806, 365.923 L 249.955, 376.806 L 247.279, 375.736 L 244.246, 379.839 L 286.708, 397.681 L 289.741, 393.577 L 286.887, 392.328 L 294.737, 381.624 L 333.988, 398.037 L 325.959, 409.099 L 322.926, 407.85 L 286.708, 457.449 L 276.717, 471.186 L 279.75, 472.435 L 272.079, 482.962 L 232.828, 466.369 L 240.678, 455.665 L 243.354, 456.735 L 263.872, 428.546 L 221.053, 410.526 L 200.357, 438.715 L 203.568, 440.143 L 195.897, 450.669 L 156.646, 434.255 z "/>
<path style="fill:rgb(0, 255, 0);fill-opacity:0;fill-rule:evenodd;stroke:rgb(255, 188, 0);stroke-width:1;" d="M 165.923, 140.589 L 222.48, 62.8011 L 288.314, 90.455 L 286.351, 92.9527 L 300.624, 99.0187 L 247.814, 171.632 L 232.828, 165.21 L 230.865, 167.886 L 165.923, 140.589 z "/>
<path style="fill:rgb(0, 0, 255);fill-opacity:0;fill-rule:evenodd;stroke:rgb(255, 188, 0);stroke-width:1;" d="M 752.899, 245.674 L 760.749, 234.79 L 770.027, 238.715 L 815.7, 175.914 L 807.136, 172.346 L 815.522, 160.749 L 864.764, 181.624 L 856.2, 193.22 L 848.171, 189.831 L 825.513, 220.696 L 818.02, 217.484 L 813.738, 223.194 L 816.771, 224.442 L 814.987, 226.762 L 812.132, 225.513 L 800, 241.927 L 844.425, 260.66 L 861.552, 237.288 L 895.272, 251.383 L 878.145, 274.933 L 922.569, 293.488 L 908.653, 312.578 L 785.727, 260.839 L 786.441, 259.946 L 752.899, 245.674 z "/>
<path style="fill:rgb(255, 255, 0);fill-opacity:0;fill-rule:evenodd;stroke:rgb(255, 188, 0);stroke-width:1;" d="M 327.386, 743.622 L 358.608, 700.981 L 487.6, 755.754 L 485.995, 758.073 L 472.079, 776.985 L 456.378, 798.216 L 414.451, 780.553 L 358.608, 756.824 L 327.386, 743.622 z "/>
<path style="fill:rgb(255, 0, 0);fill-opacity:0;fill-rule:evenodd;stroke:rgb(255, 188, 0);stroke-width:1;" d="M 403.925, 189.117 L 411.24, 178.947 L 419.09, 167.886 L 426.762, 157.003 L 434.434, 146.298 L 434.434, 146.298 L 542.908, 190.901 L 510.259, 234.79 L 403.925, 189.117 z "/>
<path style="fill:rgb(0, 255, 0);fill-opacity:0;fill-rule:evenodd;stroke:rgb(255, 188, 0);stroke-width:1;" d="M 476.004, 705.263 L 492.596, 682.426 L 492.774, 682.426 L 590.901, 723.818 L 613.024, 693.31 L 643.354, 705.977 L 612.132, 748.974 L 579.661, 735.415 L 572.346, 745.584 L 476.004, 705.263 z "/>
<path style="fill:rgb(0, 0, 255);fill-opacity:0;fill-rule:evenodd;stroke:rgb(255, 188, 0);stroke-width:1;" d="M 899.911, 545.584 L 912.4, 528.457 L 926.137, 534.166 L 944.514, 508.653 L 1005.35, 533.988 L 996.967, 545.763 L 1006.6, 549.866 L 984.3, 580.731 L 927.208, 557.003 L 913.827, 551.293 L 899.911, 545.584 z "/>
<path style="fill:rgb(255, 255, 0);fill-opacity:0;fill-rule:evenodd;stroke:rgb(255, 188, 0);stroke-width:1;" d="M 647.101, 306.334 L 685.638, 253.524 L 696.878, 258.162 L 697.413, 257.627 L 755.754, 282.248 L 755.397, 282.783 L 763.069, 285.995 L 745.941, 309.367 L 705.977, 292.596 L 707.226, 290.812 L 698.84, 287.244 L 695.629, 291.704 L 697.77, 292.596 L 675.647, 322.926 L 653.345, 313.649 L 656.021, 310.08 L 647.101, 306.334 z "/>
<path style="fill:rgb(255, 0, 0);fill-opacity:0;fill-rule:evenodd;stroke:rgb(255, 188, 0);stroke-width:1;" d="M 649.42, 203.568 L 712.756, 115.433 L 744.514, 128.992 L 741.481, 133.274 L 680.642, 216.236 L 649.42, 203.568 z "/>
<path style="fill:rgb(0, 255, 0);fill-opacity:0;fill-rule:evenodd;stroke:rgb(255, 188, 0);stroke-width:1;" d="M 242.997, 178.234 L 247.814, 171.632 L 300.624, 99.0187 L 305.085, 92.7743 L 335.95, 105.798 L 273.863, 191.079 L 242.997, 178.234 z "/>
<path style="fill:rgb(0, 0, 255);fill-opacity:0;fill-rule:evenodd;stroke:rgb(255, 188, 0);stroke-width:1;" d="M 94.0232, 187.868 L 109.902, 165.923 L 120.963, 170.562 L 126.316, 163.069 L 140.589, 168.956 L 198.216, 193.042 L 189.652, 204.817 L 187.154, 203.747 L 185.37, 206.066 L 188.046, 207.136 L 181.624, 216.236 L 178.769, 216.771 L 170.384, 228.368 L 160.571, 224.264 L 165.745, 217.128 L 161.463, 215.165 L 156.111, 222.48 L 145.941, 218.198 L 152.364, 209.277 L 151.293, 208.029 L 148.617, 208.385 L 145.584, 212.667 L 143.265, 213.024 L 141.124, 216.057 L 132.382, 212.489 L 134.701, 209.456 L 133.988, 207.672 L 137.021, 203.568 L 136.485, 201.784 L 133.988, 202.319 L 130.955, 206.244 L 128.457, 206.78 L 126.137, 209.991 L 117.93, 206.601 L 120.25, 203.39 L 119.179, 201.427 L 122.034, 197.324 L 121.499, 195.54 L 119.179, 196.075 L 116.146, 200.178 L 113.649, 200.714 L 111.329, 203.925 L 103.122, 200.535 L 105.442, 197.324 L 104.371, 195.361 L 107.404, 191.258 L 107.047, 189.831 L 108.475, 187.868 L 103.479, 185.727 L 99.9108, 190.366 L 94.0232, 187.868 z M 154.683, 199.822 L 156.824, 200.535 L 160.571, 195.361 L 163.426, 196.61 L 165.21, 194.291 L 162.177, 193.042 L 163.069, 191.793 L 160.393, 191.793 L 154.683, 199.822 z M 140.232, 193.399 L 143.622, 194.826 L 148.974, 187.333 L 147.904, 185.549 L 145.584, 185.905 L 140.232, 193.399 z M 125.424, 187.154 L 128.814, 188.582 L 134.166, 181.088 L 133.095, 179.304 L 130.776, 179.661 L 125.424, 187.154 z M 171.632, 200 L 177.52, 202.498 L 179.126, 200.178 L 173.238, 197.681 L 171.632, 200 z "/>
<path style="fill:rgb(255, 255, 0);fill-opacity:0;fill-rule:evenodd;stroke:rgb(255, 188, 0);stroke-width:1;" d="M 103.479, 551.293 L 124.532, 522.212 L 118.822, 519.893 L 122.391, 515.076 L 131.49, 502.587 L 137.021, 504.906 L 158.073, 476.004 L 162.89, 477.966 L 163.426, 477.252 L 175.558, 482.248 L 175.022, 482.962 L 179.661, 484.924 L 158.608, 514.005 L 171.097, 519.179 L 172.346, 522.926 L 172.881, 526.494 L 172.881, 528.457 L 172.881, 530.241 L 172.346, 533.809 L 171.097, 537.556 L 169.492, 540.946 L 167.351, 544.335 L 164.674, 547.368 L 163.069, 548.974 L 161.463, 550.401 L 157.895, 552.899 L 154.148, 555.219 L 150.758, 556.824 L 148.082, 557.895 L 145.227, 558.43 L 142.194, 553.078 L 132.56, 548.974 L 124.532, 560.214 L 119.358, 557.895 L 118.822, 558.608 L 107.761, 554.148 L 108.296, 553.256 L 103.479, 551.293 z "/>
<path style="fill:rgb(255, 0, 0);fill-opacity:0;fill-rule:evenodd;stroke:rgb(255, 188, 0);stroke-width:1;" d="M 830.152, 105.798 L 838.537, 94.38 L 856.378, 101.873 L 866.369, 88.1356 L 904.014, 103.836 L 902.23, 106.334 L 923.64, 115.433 L 935.058, 99.7324 L 952.721, 107.047 L 938.626, 126.316 L 942.908, 128.1 L 941.302, 130.419 L 966.28, 140.946 L 956.646, 154.505 L 933.988, 144.871 L 922.748, 160.393 L 903.836, 152.542 L 912.4, 140.767 L 916.86, 142.73 L 924.532, 132.203 L 900.446, 122.034 L 902.944, 118.822 L 879.393, 109.01 L 869.759, 122.391 L 830.152, 105.798 z "/>
<path style="fill:rgb(0, 255, 0);fill-opacity:0;fill-rule:evenodd;stroke:rgb(255, 188, 0);stroke-width:1;" d="M 127.565, 276.182 L 141.302, 257.449 L 161.463, 266.012 L 162.355, 267.797 L 165.21, 269.045 L 170.384, 262.087 L 147.368, 252.275 L 160.571, 234.255 L 167.351, 237.11 L 180.018, 242.462 L 176.093, 247.636 L 201.606, 258.519 L 205.531, 253.167 L 220.874, 259.768 L 222.837, 260.482 L 209.099, 279.215 L 188.938, 270.83 L 189.652, 269.938 L 183.764, 267.44 L 178.055, 275.112 L 183.943, 277.609 L 184.657, 276.717 L 204.817, 285.103 L 191.615, 303.122 L 127.565, 276.182 z "/>
<path style="fill:rgb(0, 0, 255);fill-opacity:0;fill-rule:evenodd;stroke:rgb(255, 188, 0);stroke-width:1;" d="M 688.492, 365.566 L 712.935, 332.025 L 777.52, 359.322 L 772.703, 365.923 L 770.205, 368.778 L 758.787, 384.657 L 752.899, 392.685 L 688.492, 365.566 z "/>
<path style="fill:rgb(255, 255, 0);fill-opacity:0;fill-rule:evenodd;stroke:rgb(255, 188, 0);stroke-width:1;" d="M 933.095, 469.045 L 939.161, 460.66 L 945.763, 451.561 L 951.65, 443.533 L 957.895, 434.969 L 960.749, 431.044 L 1017.13, 454.594 L 1011.78, 461.909 L 989.474, 492.596 L 933.095, 469.045 z "/>
<path style="fill:rgb(255, 0, 0);fill-opacity:0;fill-rule:evenodd;stroke:rgb(255, 188, 0);stroke-width:1;" d="M 499.376, 551.293 L 515.611, 529.706 L 519.179, 531.311 L 525.959, 522.034 L 522.391, 520.607 L 538.805, 498.662 L 560.928, 508.118 L 545.941, 528.457 L 560.036, 534.344 L 562.355, 531.311 L 582.516, 539.875 L 574.309, 551.115 L 579.304, 553.434 L 576.806, 556.646 L 571.811, 554.505 L 559.5, 570.919 L 539.518, 562.355 L 552.007, 545.584 L 537.734, 539.34 L 521.677, 560.928 L 499.376, 551.293 z "/>
<path style="fill:rgb(0, 255, 0);fill-opacity:0;fill-rule:evenodd;stroke:rgb(255, 188, 0);stroke-width:1;" d="M 915.789, 599.822 L 927.921, 582.872 L 945.406, 590.009 L 946.833, 587.868 L 961.463, 594.112 L 960.393, 595.54 L 980.731, 603.925 L 981.802, 602.498 L 996.253, 608.564 L 994.469, 610.883 L 1011.6, 618.02 L 999.465, 634.79 L 995.004, 632.828 L 991.079, 638.18 L 980.375, 633.72 L 979.304, 635.326 L 963.961, 628.903 L 965.031, 627.119 L 942.551, 617.663 L 941.302, 619.447 L 925.959, 613.024 L 927.208, 611.418 L 915.968, 606.78 L 919.715, 601.427 L 915.789, 599.822 z "/>
<path style="fill:rgb(0, 0, 255);fill-opacity:0;fill-rule:evenodd;stroke:rgb(255, 188, 0);stroke-width:1;" d="M 256.378, 609.813 L 274.219, 584.835 L 268.867, 582.516 L 280.999, 565.745 L 286.351, 567.886 L 307.226, 538.805 L 312.578, 541.124 L 313.113, 540.232 L 324.532, 545.049 L 323.996, 545.763 L 335.236, 550.401 L 332.382, 554.326 L 326.137, 551.829 L 308.118, 576.806 L 313.113, 578.947 L 300.803, 596.075 L 295.807, 594.112 L 277.966, 618.912 L 256.378, 609.813 z "/>
<path style="fill:rgb(255, 255, 0);fill-opacity:0;fill-rule:evenodd;stroke:rgb(255, 188, 0);stroke-width:1;" d="M 107.404, 108.475 L 121.499, 88.6708 L 140.946, 84.9242 L 165.923, 95.0937 L 171.989, 110.616 L 158.252, 129.706 L 138.269, 133.988 L 112.4, 123.461 L 107.404, 108.475 z "/>
<path style="fill:rgb(255, 0, 0);fill-opacity:0;fill-rule:evenodd;stroke:rgb(255, 188, 0);stroke-width:1;" d="M 813.916, 359.857 L 833.363, 333.452 L 829.795, 331.847 L 840.321, 317.395 L 899.732, 342.551 L 899.732, 342.73 L 887.244, 359.679 L 864.764, 350.223 L 866.905, 347.368 L 863.515, 345.941 L 844.068, 372.703 L 813.916, 359.857 z "/>
<path style="fill:rgb(0, 255, 0);fill-opacity:0;fill-rule:evenodd;stroke:rgb(255, 188, 0);stroke-width:1;" d="M 718.822, 488.492 L 732.025, 470.116 L 752.007, 478.501 L 749.153, 482.426 L 763.426, 488.314 L 778.769, 467.083 L 801.427, 476.36 L 785.549, 498.662 L 781.98, 497.235 L 775.558, 506.334 L 778.947, 507.761 L 763.069, 530.062 L 739.697, 520.428 L 754.505, 499.554 L 740.946, 493.845 L 738.805, 496.699 L 718.822, 488.492 z "/>
<path style="fill:rgb(0, 0, 255);fill-opacity:0;fill-rule:evenodd;stroke:rgb(255, 188, 0);stroke-width:1;" d="M 644.781, 589.652 L 658.341, 571.454 L 678.323, 580.018 L 675.112, 584.121 L 689.206, 590.009 L 705.263, 568.421 L 727.743, 578.055 L 726.673, 579.483 L 711.151, 600.357 L 708.118, 599.108 L 707.404, 600 L 701.517, 607.85 L 704.728, 609.277 L 688.492, 631.044 L 666.191, 621.588 L 680.999, 601.427 L 666.905, 595.361 L 664.764, 598.216 L 644.781, 589.652 z "/>
<path style="fill:rgb(255, 255, 0);fill-opacity:0;fill-rule:evenodd;stroke:rgb(255, 188, 0);stroke-width:1;" d="M 573.952, 450.491 L 590.366, 428.011 L 593.399, 429.26 L 600, 420.161 L 596.967, 418.912 L 612.846, 397.145 L 635.326, 406.601 L 620.517, 426.762 L 634.434, 432.649 L 636.574, 429.616 L 656.557, 438.002 L 643.176, 456.557 L 623.194, 447.993 L 626.048, 444.068 L 611.954, 438.18 L 596.075, 459.768 L 573.952, 450.491 z "/>
<path style="fill:rgb(255, 0, 0);fill-opacity:0;fill-rule:evenodd;stroke:rgb(255, 188, 0);stroke-width:1;" d="M 415.522, 390.901 L 433.898, 365.745 L 428.724, 363.604 L 441.035, 346.655 L 446.209, 348.796 L 464.407, 323.818 L 469.402, 325.959 L 470.294, 324.71 L 482.07, 329.706 L 481.178, 330.955 L 485.995, 332.917 L 467.618, 357.895 L 472.971, 360.214 L 460.482, 376.985 L 455.308, 374.844 L 436.931, 400 L 432.114, 397.859 L 431.401, 398.93 L 420.339, 394.291 L 419.982, 394.112 L 420.874, 393.042 L 415.522, 390.901 z "/>
<path style="fill:rgb(0, 255, 0);fill-opacity:0;fill-rule:evenodd;stroke:rgb(255, 188, 0);stroke-width:1;" d="M 266.548, 327.565 L 284.567, 302.765 L 279.393, 300.624 L 291.704, 283.497 L 297.235, 285.816 L 314.897, 261.374 L 319.893, 263.515 L 320.607, 262.623 L 332.203, 267.44 L 331.49, 268.332 L 336.307, 270.473 L 318.644, 294.737 L 323.996, 297.056 L 311.508, 314.005 L 306.334, 311.864 L 288.136, 336.664 L 282.962, 334.523 L 282.605, 335.058 L 271.008, 330.062 L 271.365, 329.527 L 266.548, 327.565 z "/>
<path style="fill:rgb(0, 0, 255);fill-opacity:0;fill-rule:evenodd;stroke:rgb(255, 188, 0);stroke-width:1;" d="M 372.525, 232.828 L 386.976, 212.667 L 466.726, 245.852 L 452.096, 266.012 L 372.525, 232.828 z "/>
<path style="fill:rgb(255, 255, 0);fill-opacity:0;fill-rule:evenodd;stroke:rgb(255, 188, 0);stroke-width:1;" d="M 295.629, 786.798 L 327.386, 743.622 L 358.608, 756.824 L 326.851, 800 L 295.629, 786.798 z "/>
<path style="fill:rgb(255, 0, 0);fill-opacity:0;fill-rule:evenodd;stroke:rgb(255, 188, 0);stroke-width:1;" d="M 669.938, 432.293 L 684.211, 413.024 L 745.584, 438.894 L 731.311, 458.341 L 724.353, 455.308 L 669.938, 432.293 z "/>
<path style="fill:rgb(0, 255, 0);fill-opacity:0;fill-rule:evenodd;stroke:rgb(255, 188, 0);stroke-width:1;" d="M 925.602, 409.634 L 956.824, 366.28 L 984.478, 377.698 L 960.749, 410.705 L 956.111, 416.949 L 948.796, 413.916 L 945.763, 418.02 L 925.602, 409.634 z "/>
<path style="fill:rgb(0, 0, 255);fill-opacity:0;fill-rule:evenodd;stroke:rgb(255, 188, 0);stroke-width:1;" d="M 978.234, 341.481 L 982.159, 336.128 L 979.661, 335.058 L 988.76, 322.569 L 991.971, 323.996 L 995.897, 318.644 L 996.967, 319.001 L 1001.43, 313.113 L 1016.59, 319.536 L 1037.47, 328.278 L 1016.24, 357.36 L 978.234, 341.481 z "/>
<path style="fill:rgb(255, 255, 0);fill-opacity:0;fill-rule:evenodd;stroke:rgb(255, 188, 0);stroke-width:1;" d="M 1006.07, 576.628 L 1029.44, 544.157 L 1057.63, 555.754 L 1044.96, 573.238 L 1029.62, 594.648 L 1020.7, 590.901 L 1017.48, 595.361 L 1012.49, 593.22 L 1020.34, 582.516 L 1006.07, 576.628 z "/>
<path style="fill:rgb(255, 0, 0);fill-opacity:0;fill-rule:evenodd;stroke:rgb(255, 188, 0);stroke-width:1;" d="M 751.293, 319.536 L 772.168, 290.812 L 807.136, 305.62 L 786.262, 334.166 L 751.293, 319.536 z "/>
<path style="fill:rgb(0, 255, 0);fill-opacity:0;fill-rule:evenodd;stroke:rgb(255, 188, 0);stroke-width:1;" d="M 93.6664, 261.731 L 99.7324, 253.524 L 102.944, 254.951 L 105.62, 252.453 L 124.71, 226.227 L 148.796, 236.396 L 140.232, 248.35 L 132.917, 245.138 L 122.391, 259.411 L 129.706, 262.444 L 121.677, 273.506 L 93.6664, 261.731 z "/>
<path style="fill:rgb(0, 0, 255);fill-opacity:0;fill-rule:evenodd;stroke:rgb(255, 188, 0);stroke-width:1;" d="M 920.428, 260.66 L 945.941, 225.691 L 956.467, 230.33 L 961.285, 223.729 L 980.91, 232.114 L 964.139, 255.129 L 944.514, 246.744 L 930.955, 265.299 L 920.428, 260.66 z "/>
<path style="fill:rgb(255, 255, 0);fill-opacity:0;fill-rule:evenodd;stroke:rgb(255, 188, 0);stroke-width:1;" d="M 904.014, 229.795 L 920.785, 206.78 L 939.875, 214.808 L 935.236, 221.231 L 945.941, 225.691 L 920.428, 260.66 L 909.723, 256.2 L 923.104, 237.823 L 904.014, 229.795 z "/>
<path style="fill:rgb(255, 0, 0);fill-opacity:0;fill-rule:evenodd;stroke:rgb(255, 188, 0);stroke-width:1;" d="M 524.888, 233.363 L 533.274, 221.945 L 537.021, 223.55 L 537.021, 225.156 L 538.983, 224.978 L 540.232, 225.513 L 550.937, 210.883 L 550.58, 209.456 L 549.153, 208.921 L 547.19, 209.277 L 545.763, 208.742 L 543.443, 208.207 L 551.65, 197.145 L 552.364, 196.075 L 578.947, 207.493 L 578.055, 208.742 L 571.811, 217.306 L 568.064, 215.7 L 565.031, 215.879 L 563.961, 217.306 L 565.031, 217.841 L 565.388, 218.733 L 559.144, 227.297 L 559.679, 227.475 L 547.904, 243.176 L 524.888, 233.363 z "/>
<path style="fill:rgb(0, 255, 0);fill-opacity:0;fill-rule:evenodd;stroke:rgb(255, 188, 0);stroke-width:1;" d="M 909.01, 753.791 L 917.574, 742.194 L 923.818, 744.871 L 936.307, 750.045 L 962.177, 760.749 L 974.665, 766.102 L 966.102, 777.698 L 909.01, 753.791 z "/>
<path style="fill:rgb(0, 0, 255);fill-opacity:0;fill-rule:evenodd;stroke:rgb(255, 188, 0);stroke-width:1;" d="M 950.58, 273.684 L 964.139, 255.129 L 980.91, 232.114 L 982.694, 229.795 L 997.324, 236.039 L 965.21, 279.929 L 950.58, 273.684 z "/>
<path style="fill:rgb(255, 255, 0);fill-opacity:0;fill-rule:evenodd;stroke:rgb(255, 188, 0);stroke-width:1;" d="M 864.764, 225.156 L 889.384, 191.436 L 911.508, 200.714 L 911.329, 201.07 L 899.554, 217.128 L 893.131, 214.63 L 880.642, 231.936 L 864.764, 225.156 z "/>
<path style="fill:rgb(255, 0, 0);fill-opacity:0;fill-rule:evenodd;stroke:rgb(255, 188, 0);stroke-width:1;" d="M 885.638, 539.697 L 898.305, 522.212 L 916.503, 497.056 L 930.776, 502.944 L 912.4, 528.457 L 899.911, 545.584 L 885.638, 539.697 z "/>
<path style="fill:rgb(0, 255, 0);fill-opacity:0;fill-rule:evenodd;stroke:rgb(255, 188, 0);stroke-width:1;" d="M 836.931, 428.903 L 843.889, 419.269 L 856.378, 402.498 L 863.158, 393.042 L 868.153, 386.084 L 882.248, 391.971 L 851.026, 434.969 L 836.931, 428.903 z "/>
<path style="fill:rgb(0, 0, 255);fill-opacity:0;fill-rule:evenodd;stroke:rgb(255, 188, 0);stroke-width:1;" d="M 127.565, 366.637 L 150.223, 335.593 L 157.538, 325.781 L 171.989, 332.025 L 142.016, 372.703 L 128.457, 366.994 L 127.565, 366.637 z "/>
<path style="fill:rgb(255, 255, 0);fill-opacity:0;fill-rule:evenodd;stroke:rgb(255, 188, 0);stroke-width:1;" d="M 810.526, 565.566 L 841.035, 523.461 L 855.308, 529.527 L 847.993, 539.518 L 844.781, 540.589 L 847.279, 541.659 L 846.03, 543.443 L 843.533, 542.373 L 841.035, 545.941 L 842.997, 546.655 L 824.978, 571.632 L 810.526, 565.566 z "/>
<path style="fill:rgb(255, 0, 0);fill-opacity:0;fill-rule:evenodd;stroke:rgb(255, 188, 0);stroke-width:1;" d="M 358.073, 157.003 L 365.923, 145.941 L 403.033, 161.285 L 419.09, 167.886 L 411.24, 178.947 L 358.073, 157.003 z "/>
<path style="fill:rgb(0, 255, 0);fill-opacity:0;fill-rule:evenodd;stroke:rgb(255, 188, 0);stroke-width:1;" d="M 882.426, 594.826 L 913.827, 551.293 L 927.208, 557.003 L 895.807, 600.535 L 882.426, 594.826 z "/>
<path style="fill:rgb(0, 0, 255);fill-opacity:0;fill-rule:evenodd;stroke:rgb(255, 188, 0);stroke-width:1;" d="M 994.112, 642.284 L 999.465, 634.79 L 1011.6, 618.02 L 1013.38, 615.7 L 1014.27, 616.057 L 1039.07, 626.405 L 1034.61, 632.471 L 1032.11, 631.401 L 1030.33, 634.077 L 1026.76, 632.471 L 1013.92, 650.491 L 994.112, 642.284 z "/>
<path style="fill:rgb(255, 255, 0);fill-opacity:0;fill-rule:evenodd;stroke:rgb(255, 188, 0);stroke-width:1;" d="M 844.781, 519.893 L 874.755, 478.501 L 888.671, 484.211 L 887.957, 485.103 L 871.365, 508.296 L 868.689, 507.226 L 866.548, 511.508 L 868.332, 512.221 L 867.083, 514.005 L 865.477, 513.292 L 865.656, 516.146 L 858.698, 525.602 L 844.781, 519.893 z "/>
<path style="fill:rgb(255, 0, 0);fill-opacity:0;fill-rule:evenodd;stroke:rgb(255, 188, 0);stroke-width:1;" d="M 373.773, 135.236 L 381.267, 124.532 L 434.434, 146.298 L 434.434, 146.298 L 426.762, 157.003 L 410.705, 150.401 L 373.773, 135.236 z "/>
<path style="fill:rgb(0, 255, 0);fill-opacity:0;fill-rule:evenodd;stroke:rgb(255, 188, 0);stroke-width:1;" d="M 81.7128, 337.556 L 98.6619, 314.541 L 97.7698, 312.935 L 106.334, 301.16 L 124.175, 308.653 L 115.433, 320.428 L 112.935, 320.607 L 95.9857, 343.8 L 81.7128, 337.556 z "/>
<path style="fill:rgb(0, 0, 255);fill-opacity:0;fill-rule:evenodd;stroke:rgb(255, 188, 0);stroke-width:1;" d="M 52.81, 244.425 L 59.9465, 234.79 L 63.5147, 236.218 L 66.1909, 235.504 L 66.1909, 232.649 L 83.6753, 208.921 L 96.6994, 214.273 L 79.215, 238.18 L 76.7172, 239.964 L 77.2525, 241.927 L 80.107, 243.176 L 72.9706, 252.988 L 52.81, 244.425 z "/>
<path style="fill:rgb(255, 255, 0);fill-opacity:0;fill-rule:evenodd;stroke:rgb(255, 188, 0);stroke-width:1;" d="M 72.9706, 252.988 L 80.107, 243.176 L 83.6753, 244.603 L 86.3515, 244.068 L 86.7083, 241.392 L 104.193, 217.484 L 116.86, 222.837 L 99.0187, 247.279 L 96.521, 248.35 L 97.413, 250.491 L 100.803, 252.096 L 99.7324, 253.524 L 93.6664, 261.731 L 72.9706, 252.988 z "/>
<path style="fill:rgb(255, 0, 0);fill-opacity:0;fill-rule:evenodd;stroke:rgb(255, 188, 0);stroke-width:1;" d="M 117.038, 352.721 L 133.988, 329.706 L 132.382, 328.278 L 141.302, 315.968 L 159.144, 323.64 L 157.538, 325.781 L 150.223, 335.593 L 147.904, 335.593 L 130.955, 358.608 L 117.038, 352.721 z "/>
<path style="fill:rgb(0, 255, 0);fill-opacity:0;fill-rule:evenodd;stroke:rgb(255, 188, 0);stroke-width:1;" d="M 64.2284, 330.241 L 81.1775, 307.226 L 80.4639, 305.62 L 89.2061, 293.845 L 106.334, 301.16 L 97.7698, 312.935 L 95.2721, 313.113 L 78.3229, 336.307 L 64.2284, 330.241 z "/>
<path style="fill:rgb(0, 0, 255);fill-opacity:0;fill-rule:evenodd;stroke:rgb(255, 188, 0);stroke-width:1;" d="M 99.9108, 345.406 L 116.86, 322.212 L 115.433, 320.428 L 124.175, 308.653 L 141.302, 315.968 L 132.382, 328.278 L 130.241, 328.1 L 113.47, 351.115 L 99.9108, 345.406 z "/>
<path style="fill:rgb(255, 255, 0);fill-opacity:0;fill-rule:evenodd;stroke:rgb(255, 188, 0);stroke-width:1;" d="M 932.739, 732.203 L 939.161, 723.461 L 990.009, 744.871 L 982.337, 755.397 L 969.313, 750.045 L 945.584, 740.054 L 947.012, 738.091 L 932.739, 732.203 z "/>
<path style="fill:rgb(255, 0, 0);fill-opacity:0;fill-rule:evenodd;stroke:rgb(255, 188, 0);stroke-width:1;" d="M 995.54, 310.616 L 1005.53, 296.878 L 1006.42, 297.056 L 1019.27, 302.587 L 1016.95, 305.62 L 1053.52, 320.963 L 1047.46, 329.349 L 1018.38, 317.038 L 1016.59, 319.536 L 1001.43, 313.113 L 995.54, 310.616 z "/>
<path style="fill:rgb(0, 255, 0);fill-opacity:0;fill-rule:evenodd;stroke:rgb(255, 188, 0);stroke-width:1;" d="M 939.161, 723.461 L 944.871, 715.611 L 958.965, 721.499 L 960.928, 718.644 L 997.859, 733.988 L 990.009, 744.871 L 939.161, 723.461 z "/>
<path style="fill:rgb(0, 0, 255);fill-opacity:0;fill-rule:evenodd;stroke:rgb(255, 188, 0);stroke-width:1;" d="M 64.2284, 396.075 L 71.9001, 385.192 L 79.3934, 388.403 L 78.6798, 389.474 L 88.314, 393.399 L 89.0277, 392.507 L 98.8403, 396.432 L 96.8778, 399.108 L 99.7324, 400.178 L 101.695, 397.681 L 118.644, 404.639 L 111.864, 414.273 L 108.653, 414.273 L 64.2284, 396.075 z "/>
<path style="fill:rgb(255, 255, 0);fill-opacity:0;fill-rule:evenodd;stroke:rgb(255, 188, 0);stroke-width:1;" d="M 808.742, 417.128 L 815.879, 407.315 L 817.841, 407.136 L 828.724, 392.328 L 827.832, 390.723 L 834.79, 381.267 L 849.242, 387.333 L 842.462, 396.61 L 839.786, 396.967 L 828.903, 411.775 L 830.152, 413.559 L 823.194, 423.194 L 808.742, 417.128 z "/>
<path style="fill:rgb(255, 0, 0);fill-opacity:0;fill-rule:evenodd;stroke:rgb(255, 188, 0);stroke-width:1;" d="M 923.818, 744.871 L 931.49, 734.166 L 944.157, 739.34 L 943.622, 740.054 L 945.406, 740.767 L 945.049, 741.481 L 950.58, 743.8 L 949.866, 744.871 L 955.397, 747.19 L 956.111, 746.12 L 966.815, 750.758 L 967.351, 749.866 L 968.956, 750.58 L 969.313, 750.045 L 982.337, 755.397 L 974.665, 766.102 L 962.177, 760.749 L 962.533, 760.393 L 960.393, 759.5 L 961.106, 758.608 L 950.401, 753.97 L 951.293, 752.721 L 945.763, 750.401 L 944.871, 751.65 L 939.161, 749.331 L 938.448, 750.401 L 936.664, 749.509 L 936.307, 750.045 L 923.818, 744.871 z "/>
<path style="fill:rgb(0, 255, 0);fill-opacity:0;fill-rule:evenodd;stroke:rgb(255, 188, 0);stroke-width:1;" d="M 167.351, 237.11 L 173.595, 228.546 L 216.949, 246.744 L 227.119, 251.026 L 220.874, 259.768 L 205.531, 253.167 L 180.018, 242.462 L 167.351, 237.11 z "/>
<path style="fill:rgb(0, 0, 255);fill-opacity:0;fill-rule:evenodd;stroke:rgb(255, 188, 0);stroke-width:1;" d="M 752.899, 392.685 L 758.787, 384.657 L 761.106, 383.943 L 773.238, 367.351 L 772.703, 365.923 L 777.52, 359.322 L 778.769, 357.538 L 793.22, 363.604 L 787.333, 371.811 L 785.013, 372.346 L 776.806, 383.586 L 772.703, 389.295 L 772.881, 390.544 L 766.994, 398.573 L 752.899, 392.685 z "/>
<path style="fill:rgb(255, 255, 0);fill-opacity:0;fill-rule:evenodd;stroke:rgb(255, 188, 0);stroke-width:1;" d="M 866.548, 666.548 L 874.398, 655.843 L 876.539, 655.129 L 883.497, 645.495 L 883.318, 643.533 L 891.169, 632.649 L 891.882, 631.579 L 905.798, 637.467 L 905.263, 638.18 L 896.878, 649.599 L 894.38, 650.312 L 887.422, 659.946 L 888.314, 661.552 L 880.464, 672.257 L 866.548, 666.548 z "/>
<path style="fill:rgb(255, 0, 0);fill-opacity:0;fill-rule:evenodd;stroke:rgb(255, 188, 0);stroke-width:1;" d="M 852.453, 660.482 L 860.125, 649.777 L 862.444, 649.063 L 869.581, 639.251 L 869.045, 637.467 L 876.896, 626.762 L 891.169, 632.649 L 883.318, 643.533 L 880.999, 644.246 L 874.041, 653.88 L 874.398, 655.843 L 866.548, 666.548 L 852.453, 660.482 z "/>
<path style="fill:rgb(0, 255, 0);fill-opacity:0;fill-rule:evenodd;stroke:rgb(255, 188, 0);stroke-width:1;" d="M 823.194, 423.194 L 830.152, 413.559 L 832.114, 413.202 L 842.997, 398.394 L 842.462, 396.61 L 849.242, 387.333 L 863.158, 393.042 L 856.378, 402.498 L 854.059, 403.033 L 843.176, 417.841 L 843.889, 419.269 L 836.931, 428.903 L 823.194, 423.194 z "/>
<path style="fill:rgb(0, 0, 255);fill-opacity:0;fill-rule:evenodd;stroke:rgb(255, 188, 0);stroke-width:1;" d="M 795.183, 411.418 L 796.075, 409.991 L 802.319, 401.606 L 803.925, 401.427 L 814.987, 386.441 L 814.808, 384.478 L 821.231, 375.558 L 834.79, 381.267 L 827.832, 390.723 L 825.513, 390.901 L 814.63, 405.888 L 815.879, 407.315 L 808.742, 417.128 L 795.183, 411.418 z "/>
<path style="fill:rgb(255, 255, 0);fill-opacity:0;fill-rule:evenodd;stroke:rgb(255, 188, 0);stroke-width:1;" d="M 838.537, 654.773 L 845.852, 644.425 L 848.528, 643.533 L 855.486, 633.898 L 855.308, 631.579 L 863.158, 620.874 L 876.896, 626.762 L 869.045, 637.467 L 866.905, 638.18 L 859.768, 647.814 L 860.125, 649.777 L 852.453, 660.482 L 838.537, 654.773 z "/>
<path style="fill:rgb(255, 0, 0);fill-opacity:0;fill-rule:evenodd;stroke:rgb(255, 188, 0);stroke-width:1;" d="M 668.51, 434.255 L 669.938, 432.293 L 724.353, 455.308 L 717.93, 464.05 L 671.008, 444.246 L 676.004, 437.288 L 668.51, 434.255 z "/>
<path style="fill:rgb(0, 255, 0);fill-opacity:0;fill-rule:evenodd;stroke:rgb(255, 188, 0);stroke-width:1;" d="M 52.6316, 322.034 L 58.876, 313.47 L 57.6271, 311.151 L 74.7547, 287.779 L 89.2061, 293.845 L 80.4639, 305.62 L 76.7172, 304.014 L 74.9331, 306.512 L 78.3229, 307.939 L 71.7217, 317.038 L 68.8671, 317.574 L 62.4442, 326.316 L 52.6316, 322.034 z "/>
<path style="fill:rgb(0, 0, 255);fill-opacity:0;fill-rule:evenodd;stroke:rgb(255, 188, 0);stroke-width:1;" d="M 991.971, 577.163 L 1013.2, 547.904 L 1009.28, 546.12 L 1014.99, 538.091 L 1029.44, 544.157 L 1006.07, 576.628 L 1002.32, 581.624 L 991.971, 577.163 z "/>
<path style="fill:rgb(255, 255, 0);fill-opacity:0;fill-rule:evenodd;stroke:rgb(255, 188, 0);stroke-width:1;" d="M 365.923, 145.941 L 373.773, 135.236 L 410.705, 150.401 L 403.033, 161.285 L 365.923, 145.941 z "/>
<path style="fill:rgb(255, 0, 0);fill-opacity:0;fill-rule:evenodd;stroke:rgb(255, 188, 0);stroke-width:1;" d="M 898.483, 749.331 L 925.602, 712.043 L 936.128, 716.503 L 917.574, 742.194 L 909.01, 753.791 L 898.483, 749.331 z "/>
<path style="fill:rgb(0, 255, 0);fill-opacity:0;fill-rule:evenodd;stroke:rgb(255, 188, 0);stroke-width:1;" d="M 96.3426, 363.961 L 100.446, 358.43 L 103.836, 359.857 L 105.62, 357.36 L 119.536, 363.247 L 120.25, 365.21 L 125.781, 367.529 L 128.457, 366.994 L 142.016, 372.703 L 134.166, 383.586 L 120.071, 377.698 L 119.179, 375.558 L 113.649, 373.238 L 111.508, 373.773 L 97.7698, 367.886 L 99.7324, 365.388 L 96.3426, 363.961 z "/>
<path style="fill:rgb(0, 0, 255);fill-opacity:0;fill-rule:evenodd;stroke:rgb(255, 188, 0);stroke-width:1;" d="M 937.021, 696.164 L 945.049, 685.281 L 961.998, 661.909 L 973.238, 666.726 L 957.538, 688.314 L 948.439, 700.981 L 937.021, 696.164 z "/>
<path style="fill:rgb(255, 255, 0);fill-opacity:0;fill-rule:evenodd;stroke:rgb(255, 188, 0);stroke-width:1;" d="M 88.4924, 374.665 L 92.4175, 369.135 L 95.8073, 370.562 L 97.7698, 367.886 L 111.508, 373.773 L 111.864, 375.736 L 117.395, 378.055 L 120.071, 377.698 L 134.166, 383.586 L 126.494, 393.934 L 112.578, 388.046 L 112.043, 386.262 L 105.977, 383.764 L 103.657, 384.478 L 89.9197, 378.769 L 91.7038, 376.093 L 88.4924, 374.665 z "/>
<path style="fill:rgb(255, 0, 0);fill-opacity:0;fill-rule:evenodd;stroke:rgb(255, 188, 0);stroke-width:1;" d="M 766.994, 398.573 L 772.881, 390.544 L 772.703, 389.295 L 776.806, 383.586 L 778.234, 384.121 L 787.333, 371.811 L 793.22, 363.604 L 798.037, 357.003 L 806.958, 360.749 L 793.042, 379.839 L 776.985, 401.963 L 776.45, 402.498 L 766.994, 398.573 z "/>
<path style="fill:rgb(0, 255, 0);fill-opacity:0;fill-rule:evenodd;stroke:rgb(255, 188, 0);stroke-width:1;" d="M 1006.42, 297.056 L 1014.63, 285.816 L 1048.17, 299.911 L 1039.96, 311.329 L 1019.27, 302.587 L 1006.42, 297.056 z "/>
<path style="fill:rgb(0, 0, 255);fill-opacity:0;fill-rule:evenodd;stroke:rgb(255, 188, 0);stroke-width:1;" d="M 839.786, 576.271 L 860.125, 548.796 L 873.684, 554.505 L 853.524, 582.159 L 839.786, 576.271 z "/>
<path style="fill:rgb(255, 255, 0);fill-opacity:0;fill-rule:evenodd;stroke:rgb(255, 188, 0);stroke-width:1;" d="M 883.497, 515.968 L 901.695, 490.812 L 916.503, 497.056 L 898.305, 522.212 L 883.497, 515.968 z "/>
<path style="fill:rgb(255, 0, 0);fill-opacity:0;fill-rule:evenodd;stroke:rgb(255, 188, 0);stroke-width:1;" d="M 342.551, 178.591 L 350.223, 167.886 L 378.591, 179.839 L 377.342, 181.445 L 379.126, 182.159 L 379.661, 181.445 L 385.37, 183.943 L 378.769, 193.042 L 373.06, 190.544 L 373.952, 189.474 L 372.168, 188.76 L 370.919, 190.366 L 342.551, 178.591 z "/>
<path style="fill:rgb(0, 255, 0);fill-opacity:0;fill-rule:evenodd;stroke:rgb(255, 188, 0);stroke-width:1;" d="M 361.106, 228.011 L 384.121, 196.253 L 395.54, 200.892 L 386.976, 212.667 L 372.525, 232.828 L 361.106, 228.011 z "/>
<path style="fill:rgb(0, 0, 255);fill-opacity:0;fill-rule:evenodd;stroke:rgb(255, 188, 0);stroke-width:1;" d="M 785.37, 599.465 L 791.971, 590.187 L 831.222, 606.78 L 824.621, 615.879 L 817.484, 612.846 L 785.37, 599.465 z "/>
<path style="fill:rgb(255, 255, 0);fill-opacity:0;fill-rule:evenodd;stroke:rgb(255, 188, 0);stroke-width:1;" d="M 899.732, 444.068 L 906.155, 434.969 L 945.763, 451.561 L 939.161, 460.66 L 899.732, 444.068 z "/>
<path style="fill:rgb(255, 0, 0);fill-opacity:0;fill-rule:evenodd;stroke:rgb(255, 188, 0);stroke-width:1;" d="M 955.04, 716.146 L 960.749, 708.296 L 975.022, 714.362 L 975.736, 713.47 L 1004.1, 725.424 L 997.859, 733.988 L 960.928, 718.644 L 955.04, 716.146 z "/>
<path style="fill:rgb(0, 255, 0);fill-opacity:0;fill-rule:evenodd;stroke:rgb(255, 188, 0);stroke-width:1;" d="M 912.4, 528.457 L 930.776, 502.944 L 944.514, 508.653 L 926.137, 534.166 L 912.4, 528.457 z "/>
<path style="fill:rgb(0, 0, 255);fill-opacity:0;fill-rule:evenodd;stroke:rgb(255, 188, 0);stroke-width:1;" d="M 918.287, 418.376 L 924.71, 409.456 L 964.318, 426.048 L 960.749, 431.044 L 957.895, 434.969 L 918.287, 418.376 z "/>
<path style="fill:rgb(255, 255, 0);fill-opacity:0;fill-rule:evenodd;stroke:rgb(255, 188, 0);stroke-width:1;" d="M 189.474, 224.621 L 194.648, 217.663 L 226.405, 231.044 L 229.26, 230.687 L 241.748, 235.861 L 235.682, 244.246 L 189.474, 224.621 z "/>
<path style="fill:rgb(255, 0, 0);fill-opacity:0;fill-rule:evenodd;stroke:rgb(255, 188, 0);stroke-width:1;" d="M 930.241, 679.215 L 947.19, 655.843 L 961.998, 661.909 L 945.049, 685.281 L 930.241, 679.215 z "/>
<path style="fill:rgb(0, 255, 0);fill-opacity:0;fill-rule:evenodd;stroke:rgb(255, 188, 0);stroke-width:1;" d="M 869.938, 510.259 L 871.365, 508.296 L 887.957, 485.103 L 901.695, 490.812 L 883.497, 515.968 L 869.938, 510.259 z "/>
<path style="fill:rgb(0, 0, 255);fill-opacity:0;fill-rule:evenodd;stroke:rgb(255, 188, 0);stroke-width:1;" d="M 912.043, 426.94 L 918.287, 418.376 L 957.895, 434.969 L 951.65, 443.533 L 912.043, 426.94 z "/>
<path style="fill:rgb(255, 255, 0);fill-opacity:0;fill-rule:evenodd;stroke:rgb(255, 188, 0);stroke-width:1;" d="M 522.569, 296.164 L 538.983, 273.506 L 546.833, 262.444 L 556.824, 266.726 L 532.739, 300.446 L 522.569, 296.164 z "/>
<path style="fill:rgb(255, 0, 0);fill-opacity:0;fill-rule:evenodd;stroke:rgb(255, 188, 0);stroke-width:1;" d="M 893.488, 452.453 L 899.732, 444.068 L 939.161, 460.66 L 933.095, 469.045 L 893.488, 452.453 z "/>
<path style="fill:rgb(0, 255, 0);fill-opacity:0;fill-rule:evenodd;stroke:rgb(255, 188, 0);stroke-width:1;" d="M 184.478, 231.401 L 189.474, 224.621 L 235.682, 244.246 L 229.795, 252.096 L 227.119, 251.026 L 216.949, 246.744 L 216.057, 244.781 L 184.478, 231.401 z "/>
<path style="fill:rgb(0, 0, 255);fill-opacity:0;fill-rule:evenodd;stroke:rgb(255, 188, 0);stroke-width:1;" d="M 906.155, 434.969 L 912.043, 426.94 L 951.65, 443.533 L 945.763, 451.561 L 906.155, 434.969 z "/>
<path style="fill:rgb(255, 255, 0);fill-opacity:0;fill-rule:evenodd;stroke:rgb(255, 188, 0);stroke-width:1;" d="M 767.529, 626.227 L 774.309, 616.949 L 805.174, 629.795 L 798.394, 639.072 L 767.529, 626.227 z "/>
<path style="fill:rgb(255, 0, 0);fill-opacity:0;fill-rule:evenodd;stroke:rgb(255, 188, 0);stroke-width:1;" d="M 966.102, 697.235 L 968.956, 693.131 L 984.657, 671.543 L 995.54, 676.004 L 976.985, 701.695 L 966.102, 697.235 z "/>
<path style="fill:rgb(0, 255, 0);fill-opacity:0;fill-rule:evenodd;stroke:rgb(255, 188, 0);stroke-width:1;" d="M 729.349, 677.252 L 734.88, 669.759 L 764.674, 682.248 L 771.632, 685.103 L 768.064, 689.92 L 766.102, 692.774 L 729.349, 677.252 z "/>
<path style="fill:rgb(0, 0, 255);fill-opacity:0;fill-rule:evenodd;stroke:rgb(255, 188, 0);stroke-width:1;" d="M 774.309, 616.949 L 780.731, 608.029 L 811.597, 621.053 L 805.174, 629.795 L 774.309, 616.949 z "/>
<path style="fill:rgb(255, 255, 0);fill-opacity:0;fill-rule:evenodd;stroke:rgb(255, 188, 0);stroke-width:1;" d="M 994.291, 687.957 L 1001.25, 678.323 L 1029.62, 690.098 L 1022.66, 699.732 L 994.291, 687.957 z "/>
<path style="fill:rgb(255, 0, 0);fill-opacity:0;fill-rule:evenodd;stroke:rgb(255, 188, 0);stroke-width:1;" d="M 510.794, 291.347 L 527.208, 268.51 L 538.983, 273.506 L 522.569, 296.164 L 510.794, 291.347 z "/>
<path style="fill:rgb(0, 255, 0);fill-opacity:0;fill-rule:evenodd;stroke:rgb(255, 188, 0);stroke-width:1;" d="M 835.147, 639.251 L 852.453, 615.522 L 863.515, 620.339 L 863.158, 620.874 L 855.308, 631.579 L 846.387, 643.889 L 835.147, 639.251 z "/>
<path style="fill:rgb(0, 0, 255);fill-opacity:0;fill-rule:evenodd;stroke:rgb(255, 188, 0);stroke-width:1;" d="M 779.483, 607.493 L 785.37, 599.465 L 817.484, 612.846 L 811.597, 621.053 L 780.731, 608.029 L 779.483, 607.493 z "/>
<path style="fill:rgb(255, 255, 0);fill-opacity:0;fill-rule:evenodd;stroke:rgb(255, 188, 0);stroke-width:1;" d="M 804.103, 777.698 L 823.55, 751.293 L 833.185, 755.397 L 813.738, 781.802 L 804.103, 777.698 z "/>
<path style="fill:rgb(255, 0, 0);fill-opacity:0;fill-rule:evenodd;stroke:rgb(255, 188, 0);stroke-width:1;" d="M 976.271, 408.207 L 993.399, 384.657 L 1004.28, 389.117 L 987.154, 412.667 L 976.271, 408.207 z "/>
<path style="fill:rgb(0, 255, 0);fill-opacity:0;fill-rule:evenodd;stroke:rgb(255, 188, 0);stroke-width:1;" d="M 499.554, 286.708 L 515.968, 263.872 L 527.208, 268.51 L 510.794, 291.347 L 499.554, 286.708 z "/>
<path style="fill:rgb(0, 0, 255);fill-opacity:0;fill-rule:evenodd;stroke:rgb(255, 188, 0);stroke-width:1;" d="M 814.095, 630.33 L 824.621, 615.879 L 831.222, 606.78 L 842.105, 611.24 L 824.799, 634.969 L 814.095, 630.33 z "/>
<path style="fill:rgb(255, 255, 0);fill-opacity:0;fill-rule:evenodd;stroke:rgb(255, 188, 0);stroke-width:1;" d="M 794.469, 773.595 L 813.916, 747.19 L 823.55, 751.293 L 804.103, 777.698 L 794.469, 773.595 z "/>
<path style="fill:rgb(255, 0, 0);fill-opacity:0;fill-rule:evenodd;stroke:rgb(255, 188, 0);stroke-width:1;" d="M 997.681, 417.128 L 1014.81, 393.577 L 1025.51, 398.037 L 1010.35, 418.733 L 1008.21, 421.588 L 997.681, 417.128 z "/>
<path style="fill:rgb(0, 255, 0);fill-opacity:0;fill-rule:evenodd;stroke:rgb(255, 188, 0);stroke-width:1;" d="M 813.738, 781.802 L 833.185, 755.397 L 842.64, 759.322 L 823.194, 785.727 L 813.738, 781.802 z "/>
<path style="fill:rgb(0, 0, 255);fill-opacity:0;fill-rule:evenodd;stroke:rgb(255, 188, 0);stroke-width:1;" d="M 987.154, 412.667 L 1004.28, 389.117 L 1014.81, 393.577 L 997.681, 417.128 L 987.154, 412.667 z "/>
<path style="fill:rgb(255, 255, 0);fill-opacity:0;fill-rule:evenodd;stroke:rgb(255, 188, 0);stroke-width:1;" d="M 919.715, 674.755 L 936.664, 651.383 L 947.19, 655.843 L 930.241, 679.215 L 919.715, 674.755 z "/>
<path style="fill:rgb(255, 0, 0);fill-opacity:0;fill-rule:evenodd;stroke:rgb(255, 188, 0);stroke-width:1;" d="M 888.314, 661.552 L 896.878, 649.599 L 905.263, 638.18 L 915.789, 642.64 L 898.84, 666.012 L 888.314, 661.552 z "/>
<path style="fill:rgb(0, 255, 0);fill-opacity:0;fill-rule:evenodd;stroke:rgb(255, 188, 0);stroke-width:1;" d="M 957.538, 688.314 L 973.238, 666.726 L 984.657, 671.543 L 968.956, 693.131 L 957.538, 688.314 z "/>
<path style="fill:rgb(0, 0, 255);fill-opacity:0;fill-rule:evenodd;stroke:rgb(255, 188, 0);stroke-width:1;" d="M 415.165, 79.0366 L 419.625, 72.7921 L 458.876, 89.2061 L 454.416, 95.4505 L 415.165, 79.0366 z "/>
<path style="fill:rgb(255, 255, 0);fill-opacity:0;fill-rule:evenodd;stroke:rgb(255, 188, 0);stroke-width:1;" d="M 898.84, 666.012 L 915.789, 642.64 L 926.316, 646.922 L 909.367, 670.473 L 898.84, 666.012 z "/>
<path style="fill:rgb(255, 0, 0);fill-opacity:0;fill-rule:evenodd;stroke:rgb(255, 188, 0);stroke-width:1;" d="M 824.799, 634.969 L 842.105, 611.24 L 852.453, 615.522 L 835.147, 639.251 L 824.799, 634.969 z "/>
<path style="fill:rgb(0, 255, 0);fill-opacity:0;fill-rule:evenodd;stroke:rgb(255, 188, 0);stroke-width:1;" d="M 975.736, 713.47 L 981.98, 704.906 L 1010.35, 716.86 L 1004.1, 725.424 L 975.736, 713.47 z "/>
<path style="fill:rgb(0, 0, 255);fill-opacity:0;fill-rule:evenodd;stroke:rgb(255, 188, 0);stroke-width:1;" d="M 909.367, 670.473 L 926.316, 646.922 L 936.664, 651.383 L 919.715, 674.755 L 909.367, 670.473 z "/>
<path style="fill:rgb(255, 255, 0);fill-opacity:0;fill-rule:evenodd;stroke:rgb(255, 188, 0);stroke-width:1;" d="M 981.98, 704.906 L 988.225, 696.343 L 1016.59, 708.296 L 1010.35, 716.86 L 981.98, 704.906 z "/>
<path style="fill:rgb(255, 0, 0);fill-opacity:0;fill-rule:evenodd;stroke:rgb(255, 188, 0);stroke-width:1;" d="M 777.52, 694.023 L 795.718, 668.867 L 805.352, 672.971 L 787.154, 697.948 L 777.52, 694.023 z "/>
<path style="fill:rgb(0, 255, 0);fill-opacity:0;fill-rule:evenodd;stroke:rgb(255, 188, 0);stroke-width:1;" d="M 761.82, 634.077 L 767.529, 626.227 L 798.394, 639.072 L 792.685, 646.922 L 790.723, 646.209 L 761.82, 634.077 z "/>
<path style="fill:rgb(0, 0, 255);fill-opacity:0;fill-rule:evenodd;stroke:rgb(255, 188, 0);stroke-width:1;" d="M 988.225, 696.343 L 994.291, 687.957 L 1022.66, 699.732 L 1016.59, 708.296 L 988.225, 696.343 z "/>
<path style="fill:rgb(255, 255, 0);fill-opacity:0;fill-rule:evenodd;stroke:rgb(255, 188, 0);stroke-width:1;" d="M 768.064, 689.92 L 771.632, 685.103 L 786.262, 664.942 L 795.718, 668.867 L 777.52, 694.023 L 768.064, 689.92 z "/>
<path style="fill:rgb(255, 0, 0);fill-opacity:0;fill-rule:evenodd;stroke:rgb(255, 188, 0);stroke-width:1;" d="M 744.157, 655.129 L 749.331, 647.814 L 780.196, 660.839 L 774.844, 668.153 L 744.157, 655.129 z "/>
<path style="fill:rgb(0, 255, 0);fill-opacity:0;fill-rule:evenodd;stroke:rgb(255, 188, 0);stroke-width:1;" d="M 668.332, 760.036 L 673.863, 752.721 L 703.836, 765.388 L 698.483, 772.703 L 668.332, 760.036 z "/>
<path style="fill:rgb(0, 0, 255);fill-opacity:0;fill-rule:evenodd;stroke:rgb(255, 188, 0);stroke-width:1;" d="M 694.915, 723.818 L 700.089, 716.682 L 730.955, 729.706 L 725.781, 736.842 L 694.915, 723.818 z "/>
<path style="fill:rgb(255, 255, 0);fill-opacity:0;fill-rule:evenodd;stroke:rgb(255, 188, 0);stroke-width:1;" d="M 689.741, 730.955 L 694.915, 723.818 L 725.781, 736.842 L 720.428, 743.979 L 689.741, 730.955 z "/>
<path style="fill:rgb(255, 0, 0);fill-opacity:0;fill-rule:evenodd;stroke:rgb(255, 188, 0);stroke-width:1;" d="M 662.979, 767.351 L 668.332, 760.036 L 698.483, 772.703 L 693.131, 780.018 L 662.979, 767.351 z "/>
<path style="fill:rgb(0, 255, 0);fill-opacity:0;fill-rule:evenodd;stroke:rgb(255, 188, 0);stroke-width:1;" d="M 749.331, 647.814 L 754.505, 640.678 L 756.467, 641.392 L 785.37, 653.702 L 780.196, 660.839 L 749.331, 647.814 z "/>
<path style="fill:rgb(0, 0, 255);fill-opacity:0;fill-rule:evenodd;stroke:rgb(255, 188, 0);stroke-width:1;" d="M 786.262, 405.888 L 802.319, 383.764 L 812.31, 387.868 L 802.319, 401.606 L 796.075, 409.991 L 786.262, 405.888 z "/>
<path style="fill:rgb(255, 255, 0);fill-opacity:0;fill-rule:evenodd;stroke:rgb(255, 188, 0);stroke-width:1;" d="M 738.983, 662.266 L 744.157, 655.129 L 774.844, 668.153 L 769.67, 675.112 L 738.983, 662.266 z "/>
<path style="fill:rgb(255, 0, 0);fill-opacity:0;fill-rule:evenodd;stroke:rgb(255, 188, 0);stroke-width:1;" d="M 733.809, 669.224 L 738.983, 662.266 L 769.67, 675.112 L 764.674, 682.248 L 734.88, 669.759 L 733.809, 669.224 z "/>
<path style="fill:rgb(0, 255, 0);fill-opacity:0;fill-rule:evenodd;stroke:rgb(255, 188, 0);stroke-width:1;" d="M 673.863, 752.721 L 679.037, 745.584 L 709.188, 758.252 L 703.836, 765.388 L 673.863, 752.721 z "/>
<path style="fill:rgb(0, 0, 255);fill-opacity:0;fill-rule:evenodd;stroke:rgb(255, 188, 0);stroke-width:1;" d="M 756.467, 641.392 L 761.82, 634.077 L 790.723, 646.209 L 785.37, 653.702 L 756.467, 641.392 z "/>
<path style="fill:rgb(255, 255, 0);fill-opacity:0;fill-rule:evenodd;stroke:rgb(255, 188, 0);stroke-width:1;" d="M 1010.35, 418.733 L 1025.51, 398.037 L 1035.68, 402.319 L 1020.52, 423.194 L 1010.35, 418.733 z "/>
<path style="fill:rgb(255, 0, 0);fill-opacity:0;fill-rule:evenodd;stroke:rgb(255, 188, 0);stroke-width:1;" d="M 776.985, 401.963 L 793.042, 379.839 L 802.319, 383.764 L 786.262, 405.888 L 776.985, 401.963 z "/>
<path style="fill:rgb(0, 255, 0);fill-opacity:0;fill-rule:evenodd;stroke:rgb(255, 188, 0);stroke-width:1;" d="M 481.356, 780.91 L 495.272, 761.998 L 505.263, 766.28 L 500.446, 773.06 L 491.347, 785.192 L 481.356, 780.91 z "/>
<path style="fill:rgb(0, 0, 255);fill-opacity:0;fill-rule:evenodd;stroke:rgb(255, 188, 0);stroke-width:1;" d="M 334.344, 569.848 L 345.049, 555.397 L 348.082, 556.289 L 349.688, 556.646 L 353.256, 557.003 L 356.646, 556.824 L 360.036, 556.289 L 346.476, 574.844 L 334.344, 569.848 z "/>
<path style="fill:rgb(255, 255, 0);fill-opacity:0;fill-rule:evenodd;stroke:rgb(255, 188, 0);stroke-width:1;" d="M 472.079, 776.985 L 485.995, 758.073 L 495.272, 761.998 L 481.356, 780.91 L 472.079, 776.985 z "/>
<path style="fill:rgb(255, 0, 0);fill-opacity:0;fill-rule:evenodd;stroke:rgb(255, 188, 0);stroke-width:1;" d="M 528.992, 211.418 L 542.373, 193.22 L 551.65, 197.145 L 543.443, 208.207 L 538.091, 215.343 L 528.992, 211.418 z "/>
<path style="fill:rgb(0, 255, 0);fill-opacity:0;fill-rule:evenodd;stroke:rgb(255, 188, 0);stroke-width:1;" d="M 564.318, 227.297 L 571.811, 217.306 L 578.055, 208.742 L 586.976, 212.667 L 573.238, 231.222 L 564.318, 227.297 z "/>
<path style="fill:rgb(0, 0, 255);fill-opacity:0;fill-rule:evenodd;stroke:rgb(255, 188, 0);stroke-width:1;" d="M 867.975, 692.239 L 871.186, 687.244 L 898.84, 697.235 L 904.014, 699.197 L 900.981, 704.193 L 867.975, 692.239 z "/>
<path style="fill:rgb(255, 255, 0);fill-opacity:0;fill-rule:evenodd;stroke:rgb(255, 188, 0);stroke-width:1;" d="M 651.383, 641.035 L 658.698, 630.687 L 672.614, 636.574 L 665.12, 646.744 L 651.383, 641.035 z "/>
<path style="fill:rgb(255, 0, 0);fill-opacity:0;fill-rule:evenodd;stroke:rgb(255, 188, 0);stroke-width:1;" d="M 446.744, 78.5013 L 456.2, 65.2988 L 466.369, 69.5807 L 456.913, 82.7832 L 446.744, 78.5013 z "/>
<path style="fill:rgb(0, 255, 0);fill-opacity:0;fill-rule:evenodd;stroke:rgb(255, 188, 0);stroke-width:1;" d="M 996.967, 545.763 L 1005.35, 533.988 L 1014.99, 538.091 L 1009.28, 546.12 L 1006.6, 549.866 L 996.967, 545.763 z "/>
<path style="fill:rgb(0, 0, 255);fill-opacity:0;fill-rule:evenodd;stroke:rgb(255, 188, 0);stroke-width:1;" d="M 1013.92, 650.491 L 1026.76, 632.471 L 1030.33, 634.077 L 1032.11, 631.401 L 1034.61, 632.471 L 1032.83, 634.969 L 1026.4, 643.889 L 1019.8, 652.988 L 1013.92, 650.491 z "/>
<path style="fill:rgb(255, 255, 0);fill-opacity:0;fill-rule:evenodd;stroke:rgb(255, 188, 0);stroke-width:1;" d="M 0, 657.27 L 21.4095, 628.011 L 16.7707, 625.87 L 31.0437, 606.244 L 35.504, 608.029 L 55.1293, 581.267 L 59.9465, 583.229 L 61.7306, 581.088 L 196.432, 637.823 L 236.218, 654.594 L 234.612, 656.913 L 239.429, 659.054 L 219.982, 685.816 L 162.355, 661.731 L 126.673, 710.616 L 0, 657.27 z M 23.7288, 629.438 L 67.7966, 647.458 L 81.8912, 627.654 L 38.0018, 609.634 L 23.7288, 629.438 z "/>
<path style="fill:rgb(255, 0, 0);fill-opacity:0;fill-rule:evenodd;stroke:rgb(255, 188, 0);stroke-width:1;" d="M 43.1757, 387.511 L 52.0963, 375.736 L 53.8805, 375.201 L 71.1864, 352.186 L 85.6378, 358.608 L 68.6887, 381.267 L 69.4023, 383.229 L 60.4817, 395.004 L 43.1757, 387.511 z "/>
<path style="fill:rgb(0, 255, 0);fill-opacity:0;fill-rule:evenodd;stroke:rgb(255, 188, 0);stroke-width:1;" d="M 38.3586, 315.968 L 44.7814, 307.404 L 43.711, 305.263 L 50.4906, 296.164 L 53.8805, 297.591 L 55.3078, 295.45 L 51.9179, 294.023 L 61.0169, 281.891 L 74.7547, 287.779 L 57.6271, 311.151 L 54.5941, 311.508 L 48.1713, 320.25 L 38.3586, 315.968 z "/>
<path style="fill:rgb(0, 0, 255);fill-opacity:0;fill-rule:evenodd;stroke:rgb(255, 188, 0);stroke-width:1;" d="M 735.415, 88.1356 L 798.751, 0 L 830.508, 13.3809 L 766.637, 100.624 L 735.415, 88.1356 z "/>
<path style="fill:rgb(255, 255, 0);fill-opacity:0;fill-rule:evenodd;stroke:rgb(255, 188, 0);stroke-width:1;" d="M 79.5718, 34.9688 L 93.6664, 14.9866 L 113.113, 11.4184 L 138.091, 21.5879 L 142.016, 31.9358 L 144.157, 36.9313 L 130.419, 56.1998 L 110.437, 60.4817 L 84.5674, 49.777 L 79.5718, 34.9688 z "/>
</svg>