<?xml version="1.0" encoding="iso-8859-1" standalone="no"?>
<!DOCTYPE svg PUBLIC "-//W3C//DTD SVG 1.0//EN" "http://www.w3.org/TR/2001/REC-SVG-20010904/DTD/svg10.dtd">
<svg xmlns="http://www.w3.org/2000/svg" width="1028" height="800">
<path style="fill:rgb(255, 0, 0);fill-opacity:0;fill-rule:evenodd;stroke:rgb(255, 90, 0);stroke-width:1;" d="M 151.523, 265.077 L 169.36, 258.366 L 178.013, 252.185 L 176.424, 249.89 L 205.563, 239.117 L 262.428, 218.102 L 276.026, 239.294 L 277.439, 238.764 L 291.567, 260.662 L 290.155, 261.192 L 236.468, 281.148 L 204.327, 292.98 L 202.384, 289.978 L 190.552, 291.391 L 172.539, 297.925 L 151.523, 265.077 z "/>
<path style="fill:rgb(0, 255, 0);fill-opacity:0;fill-rule:evenodd;stroke:rgb(255, 90, 0);stroke-width:1;" d="M 844.327, 149.934 L 847.859, 148.698 L 847.152, 147.461 L 867.638, 140.044 L 869.404, 142.87 L 906.667, 129.095 L 904.724, 126.269 L 925.21, 118.675 L 925.916, 119.912 L 929.625, 118.499 L 963.179, 171.126 L 957.174, 173.422 L 958.587, 175.541 L 934.393, 184.547 L 932.98, 182.428 L 926.976, 184.547 L 928.389, 186.667 L 915.143, 191.611 L 913.731, 189.492 L 907.726, 191.611 L 909.139, 193.907 L 885.651, 202.384 L 884.415, 200.265 L 877.881, 202.561 L 844.327, 149.934 z "/>
<path style="fill:rgb(0, 0, 255);fill-opacity:0;fill-rule:evenodd;stroke:rgb(255, 90, 0);stroke-width:1;" d="M 346.313, 115.497 L 397.351, 96.6004 L 398.764, 98.7196 L 422.252, 90.0662 L 453.51, 138.985 L 459.161, 137.042 L 465.695, 147.285 L 431.965, 159.823 L 416.247, 135.099 L 423.311, 132.627 L 414.481, 118.675 L 418.013, 117.263 L 412.539, 108.786 L 372.804, 123.444 L 378.278, 131.921 L 381.28, 130.861 L 390.464, 144.989 L 397.528, 142.34 L 413.068, 166.711 L 379.868, 179.073 L 373.51, 169.007 L 379.338, 166.887 L 346.313, 115.497 z "/>
<path style="fill:rgb(255, 255, 0);fill-opacity:0;fill-rule:evenodd;stroke:rgb(255, 90, 0);stroke-width:1;" d="M 176.424, 303.929 L 193.907, 297.395 L 195.497, 300.044 L 227.461, 288.212 L 238.94, 306.049 L 218.102, 313.642 L 222.517, 320.53 L 243.179, 312.936 L 251.479, 325.651 L 239.294, 330.243 L 243.709, 337.13 L 255.894, 332.539 L 263.841, 345.077 L 243.355, 352.671 L 247.594, 359.382 L 268.256, 351.788 L 279.029, 368.742 L 251.126, 379.161 L 251.832, 380.397 L 248.124, 381.634 L 249.536, 383.576 L 231.7, 390.287 L 220.221, 372.45 L 236.998, 366.269 L 232.23, 358.852 L 215.629, 365.033 L 207.152, 351.788 L 223.576, 345.784 L 217.748, 336.424 L 201.148, 342.428 L 192.141, 328.653 L 209.095, 322.472 L 204.68, 315.585 L 187.726, 321.766 L 176.424, 303.929 z "/>
<path style="fill:rgb(255, 0, 0);fill-opacity:0;fill-rule:evenodd;stroke:rgb(255, 90, 0);stroke-width:1;" d="M 345.784, 235.585 L 402.826, 214.57 L 410.949, 227.108 L 412.539, 229.581 L 390.993, 237.528 L 396.645, 246.358 L 398.234, 245.828 L 399.47, 247.77 L 398.411, 248.124 L 398.764, 248.83 L 398.411, 249.007 L 412.009, 270.375 L 432.848, 262.605 L 441.678, 276.556 L 412.185, 287.506 L 415.894, 293.333 L 389.051, 303.223 L 345.784, 235.585 z "/>
<path style="fill:rgb(0, 255, 0);fill-opacity:0;fill-rule:evenodd;stroke:rgb(255, 90, 0);stroke-width:1;" d="M 475.408, 438.499 L 514.084, 417.837 L 523.797, 433.201 L 515.85, 436.026 L 528.212, 455.629 L 529.448, 455.276 L 532.627, 460.221 L 534.923, 459.514 L 545.519, 476.468 L 547.461, 475.762 L 559.294, 494.481 L 557.528, 495.011 L 566.004, 508.609 L 564.062, 509.316 L 567.241, 514.084 L 566.004, 514.614 L 578.543, 534.393 L 576.424, 535.276 L 580.132, 540.927 L 564.592, 546.402 L 561.06, 540.751 L 558.94, 541.457 L 546.578, 521.854 L 545.166, 522.384 L 541.987, 517.439 L 540.044, 518.146 L 531.391, 504.547 L 529.448, 505.254 L 517.616, 486.534 L 519.558, 485.828 L 508.786, 468.874 L 510.375, 468.168 L 507.373, 463.576 L 509.139, 462.87 L 496.6, 443.267 L 481.766, 448.565 L 475.408, 438.499 z "/>
<path style="fill:rgb(0, 0, 255);fill-opacity:0;fill-rule:evenodd;stroke:rgb(255, 90, 0);stroke-width:1;" d="M 73.6424, 430.728 L 84.9448, 426.49 L 87.064, 425.784 L 90.7726, 431.611 L 94.6578, 430.199 L 93.0684, 427.55 L 130.155, 413.775 L 138.808, 427.373 L 126.799, 431.788 L 125.916, 430.199 L 121.325, 431.965 L 128.389, 442.914 L 133.333, 441.148 L 131.038, 437.616 L 142.693, 433.377 L 151.523, 447.329 L 153.289, 446.799 L 167.064, 468.168 L 111.082, 488.83 L 89.3598, 454.923 L 101.369, 450.508 L 103.135, 453.333 L 114.26, 449.095 L 108.256, 440.088 L 85.1214, 448.565 L 73.6424, 430.728 z "/>
<path style="fill:rgb(255, 255, 0);fill-opacity:0;fill-rule:evenodd;stroke:rgb(255, 90, 0);stroke-width:1;" d="M 878.587, 496.6 L 881.236, 496.424 L 879.294, 477.528 L 881.766, 477.528 L 881.236, 472.23 L 883.179, 472.053 L 880.883, 450.331 L 883.002, 450.155 L 882.296, 443.797 L 900.662, 442.737 L 901.369, 449.625 L 903.135, 449.625 L 905.43, 471.523 L 906.49, 471.347 L 907.02, 476.645 L 909.492, 476.468 L 911.435, 495.188 L 913.024, 495.188 L 915.143, 516.026 L 913.201, 516.203 L 914.614, 531.038 L 912.671, 531.214 L 913.201, 536.689 L 911.258, 536.865 L 913.554, 558.94 L 910.905, 558.94 L 911.435, 565.298 L 893.951, 566.358 L 893.245, 559.823 L 890.596, 560 L 888.3, 537.925 L 887.064, 537.925 L 886.534, 532.804 L 884.592, 532.804 L 883.002, 517.792 L 880.883, 517.969 L 880.883, 517.792 L 878.587, 496.6 z "/>
<path style="fill:rgb(255, 0, 0);fill-opacity:0;fill-rule:evenodd;stroke:rgb(255, 90, 0);stroke-width:1;" d="M 638.411, 127.506 L 689.272, 108.609 L 699.868, 125.386 L 676.733, 134.04 L 679.558, 138.455 L 681.325, 141.104 L 704.459, 132.45 L 715.408, 149.581 L 692.804, 157.881 L 697.395, 165.298 L 720.177, 156.821 L 731.126, 173.951 L 717.351, 178.896 L 713.642, 176.954 L 679.558, 189.492 L 672.318, 178.19 L 686.446, 173.068 L 682.914, 167.594 L 668.609, 172.715 L 661.545, 161.589 L 675.673, 156.468 L 671.965, 150.464 L 657.66, 155.762 L 651.479, 146.049 L 650.066, 146.578 L 649.007, 144.989 L 663.488, 139.514 L 659.956, 134.04 L 645.828, 139.161 L 638.411, 127.506 z "/>
<path style="fill:rgb(0, 255, 0);fill-opacity:0;fill-rule:evenodd;stroke:rgb(255, 90, 0);stroke-width:1;" d="M 766.799, 565.121 L 783.223, 561.413 L 785.695, 567.77 L 787.815, 567.241 L 795.938, 588.256 L 797.351, 588.079 L 799.294, 593.024 L 801.589, 592.494 L 808.653, 610.684 L 810.773, 610.155 L 818.543, 630.11 L 816.071, 630.64 L 821.545, 645.121 L 819.426, 645.651 L 821.369, 650.596 L 819.956, 650.949 L 828.079, 672.141 L 825.784, 672.671 L 827.903, 678.675 L 811.479, 682.384 L 809.183, 676.556 L 806.887, 677.086 L 798.587, 655.541 L 797.174, 655.894 L 795.232, 650.596 L 793.289, 651.126 L 787.815, 636.821 L 785.519, 637.351 L 777.925, 617.395 L 780.044, 616.865 L 773.157, 598.852 L 775.453, 598.322 L 773.333, 593.024 L 775.099, 592.671 L 766.799, 571.479 L 769.095, 570.949 L 766.799, 565.121 z "/>
<path style="fill:rgb(0, 0, 255);fill-opacity:0;fill-rule:evenodd;stroke:rgb(255, 90, 0);stroke-width:1;" d="M 725.828, 360.442 L 733.245, 348.786 L 740.839, 351.611 L 741.898, 350.022 L 768.212, 359.735 L 768.742, 358.852 L 774.746, 361.148 L 775.806, 359.735 L 798.057, 367.859 L 799.117, 366.446 L 823.488, 375.453 L 822.428, 377.395 L 840.442, 384.106 L 839.558, 385.519 L 845.916, 387.815 L 845.033, 389.051 L 870.64, 398.587 L 869.581, 400.177 L 877.351, 403.179 L 869.757, 414.834 L 861.987, 412.009 L 861.104, 413.422 L 835.143, 403.885 L 834.437, 404.945 L 828.079, 402.472 L 827.02, 403.885 L 809.183, 397.351 L 808.3, 398.764 L 783.576, 389.581 L 784.636, 387.815 L 762.561, 379.691 L 763.62, 377.925 L 757.439, 375.629 L 758.146, 374.57 L 732.009, 365.033 L 733.245, 363.091 L 725.828, 360.442 z "/>
<path style="fill:rgb(255, 255, 0);fill-opacity:0;fill-rule:evenodd;stroke:rgb(255, 90, 0);stroke-width:1;" d="M 610.684, 398.411 L 623.223, 389.227 L 628.874, 393.642 L 630.287, 392.583 L 650.596, 408.477 L 651.302, 407.947 L 656.071, 411.832 L 657.837, 410.596 L 674.967, 424.194 L 676.733, 422.781 L 695.982, 437.969 L 694.216, 439.382 L 707.815, 450.155 L 706.225, 451.214 L 711.17, 455.099 L 709.934, 455.982 L 730.066, 471.7 L 728.3, 472.936 L 733.951, 477.528 L 721.413, 486.711 L 715.762, 482.119 L 714.172, 483.355 L 693.863, 467.285 L 692.98, 467.991 L 688.212, 464.283 L 686.623, 465.519 L 672.671, 454.57 L 671.082, 455.629 L 652.362, 440.971 L 654.305, 439.558 L 636.998, 425.96 L 638.587, 424.724 L 633.642, 420.662 L 634.702, 420.132 L 614.746, 404.415 L 616.689, 403.179 L 610.684, 398.411 z "/>
<path style="fill:rgb(255, 0, 0);fill-opacity:0;fill-rule:evenodd;stroke:rgb(255, 90, 0);stroke-width:1;" d="M 921.148, 313.113 L 935.453, 305.342 L 937.219, 307.461 L 940.221, 310.64 L 942.163, 309.581 L 958.764, 327.77 L 960.177, 327.064 L 964.238, 331.479 L 966.358, 330.419 L 980.486, 345.784 L 982.428, 344.724 L 997.969, 361.501 L 996.026, 362.561 L 1007.51, 374.923 L 1006.09, 375.806 L 1010.15, 380.221 L 1008.74, 380.927 L 1025.34, 398.94 L 1023.75, 399.823 L 1028.34, 404.945 L 1014.22, 412.362 L 1009.45, 407.241 L 1007.51, 408.3 L 990.905, 390.287 L 989.492, 391.17 L 985.43, 386.755 L 983.488, 387.815 L 972.009, 375.453 L 970.243, 376.512 L 954.525, 359.382 L 956.468, 358.499 L 942.163, 343.135 L 943.753, 342.252 L 939.868, 337.837 L 941.104, 337.13 L 924.68, 319.294 L 926.093, 318.411 L 921.148, 313.113 z "/>
<path style="fill:rgb(0, 255, 0);fill-opacity:0;fill-rule:evenodd;stroke:rgb(255, 90, 0);stroke-width:1;" d="M 657.483, 691.038 L 672.671, 685.386 L 676.38, 691.214 L 678.322, 690.331 L 691.038, 710.11 L 692.627, 709.581 L 695.629, 714.172 L 697.572, 713.466 L 708.344, 730.243 L 710.64, 729.36 L 722.826, 748.256 L 720.706, 749.139 L 729.183, 762.561 L 727.064, 763.267 L 730.243, 768.035 L 728.83, 768.565 L 741.545, 788.168 L 739.603, 788.874 L 743.135, 794.349 L 727.77, 800 L 724.592, 795.055 L 721.943, 796.115 L 709.051, 775.806 L 707.815, 776.336 L 704.812, 771.567 L 702.693, 772.274 L 694.04, 758.852 L 692.274, 759.558 L 680.265, 740.662 L 682.384, 739.956 L 671.435, 722.826 L 673.377, 722.119 L 670.375, 717.528 L 671.788, 716.998 L 659.073, 697.219 L 661.015, 696.512 L 657.483, 691.038 z "/>
<path style="fill:rgb(0, 0, 255);fill-opacity:0;fill-rule:evenodd;stroke:rgb(255, 90, 0);stroke-width:1;" d="M 35.6733, 247.947 L 37.7925, 247.241 L 37.0861, 246.358 L 50.5077, 241.413 L 55.2759, 249.007 L 71.5232, 243.002 L 66.755, 235.585 L 84.415, 229.051 L 96.9536, 248.653 L 82.2958, 253.951 L 86.7108, 261.015 L 101.369, 255.541 L 110.022, 268.962 L 95.5408, 274.437 L 99.9558, 281.148 L 114.437, 275.673 L 126.446, 294.57 L 113.201, 299.514 L 109.316, 300.927 L 104.724, 293.687 L 96.4238, 296.689 L 96.777, 297.219 L 88.3002, 300.397 L 92.362, 306.932 L 76.8212, 312.759 L 64.6358, 293.863 L 87.7704, 285.21 L 83.0022, 277.969 L 79.117, 279.382 L 79.6468, 280.265 L 60.9272, 287.329 L 51.9205, 273.201 L 69.5806, 266.667 L 69.9338, 267.196 L 74.8786, 265.43 L 70.287, 258.366 L 47.8587, 266.843 L 35.6733, 247.947 z "/>
<path style="fill:rgb(255, 255, 0);fill-opacity:0;fill-rule:evenodd;stroke:rgb(255, 90, 0);stroke-width:1;" d="M 177.66, 195.497 L 234.525, 174.481 L 262.428, 218.102 L 205.563, 239.117 L 177.66, 195.497 z "/>
<path style="fill:rgb(255, 0, 0);fill-opacity:0;fill-rule:evenodd;stroke:rgb(255, 90, 0);stroke-width:1;" d="M 236.645, 65.5188 L 293.863, 44.5033 L 308.521, 67.638 L 315.762, 78.9404 L 320.53, 86.181 L 321.236, 87.2406 L 264.018, 108.433 L 236.645, 65.5188 z "/>
<path style="fill:rgb(0, 255, 0);fill-opacity:0;fill-rule:evenodd;stroke:rgb(255, 90, 0);stroke-width:1;" d="M 148.698, 426.843 L 151.347, 425.784 L 148.698, 421.722 L 158.94, 418.013 L 161.766, 422.252 L 163.179, 421.722 L 165.828, 425.784 L 173.068, 423.135 L 164.945, 410.596 L 157.704, 413.245 L 149.757, 400.706 L 157.881, 397.704 L 157.351, 396.821 L 185.607, 386.402 L 195.143, 401.413 L 180.486, 406.887 L 184.724, 413.598 L 199.558, 408.124 L 209.095, 423.135 L 193.907, 428.609 L 198.322, 435.32 L 213.51, 429.669 L 224.459, 446.799 L 173.598, 465.695 L 159.823, 444.327 L 148.698, 426.843 z M 171.832, 435.497 L 179.603, 447.682 L 186.49, 445.21 L 178.72, 433.024 L 171.832, 435.497 z "/>
<path style="fill:rgb(0, 0, 255);fill-opacity:0;fill-rule:evenodd;stroke:rgb(255, 90, 0);stroke-width:1;" d="M 155.408, 160.706 L 183.488, 150.287 L 177.837, 141.634 L 187.726, 137.925 L 185.254, 134.04 L 182.252, 133.333 L 181.722, 132.45 L 190.728, 129.095 L 194.26, 134.746 L 206.269, 130.331 L 234.525, 174.481 L 177.66, 195.497 L 155.408, 160.706 z "/>
<path style="fill:rgb(255, 255, 0);fill-opacity:0;fill-rule:evenodd;stroke:rgb(255, 90, 0);stroke-width:1;" d="M 461.457, 298.102 L 481.943, 290.508 L 492.892, 307.461 L 500.309, 304.636 L 489.36, 287.682 L 510.375, 279.912 L 531.214, 312.583 L 535.453, 310.993 L 543.753, 323.885 L 518.499, 333.245 L 508.079, 316.998 L 500.662, 319.823 L 511.082, 336.071 L 486.358, 345.077 L 479.47, 334.305 L 478.057, 332.185 L 482.296, 330.596 L 461.457, 298.102 z "/>
<path style="fill:rgb(255, 0, 0);fill-opacity:0;fill-rule:evenodd;stroke:rgb(255, 90, 0);stroke-width:1;" d="M 518.852, 276.733 L 539.338, 269.316 L 550.11, 286.269 L 558.057, 283.444 L 547.108, 266.313 L 567.594, 258.72 L 588.433, 291.214 L 592.848, 289.625 L 601.148, 302.693 L 576.071, 312.053 L 565.475, 295.453 L 558.411, 298.102 L 569.007, 314.525 L 543.753, 323.885 L 535.453, 310.993 L 539.691, 309.404 L 518.852, 276.733 z "/>
<path style="fill:rgb(0, 255, 0);fill-opacity:0;fill-rule:evenodd;stroke:rgb(255, 90, 0);stroke-width:1;" d="M 577.483, 255.188 L 596.909, 247.947 L 607.682, 264.901 L 615.276, 262.075 L 604.503, 245.121 L 623.576, 238.057 L 629.581, 244.768 L 645.828, 270.199 L 650.419, 268.433 L 658.72, 281.325 L 633.289, 290.861 L 622.693, 274.26 L 615.453, 276.909 L 626.049, 293.51 L 601.148, 302.693 L 592.848, 289.625 L 596.909, 288.035 L 580.309, 262.075 L 577.483, 255.188 z "/>
<path style="fill:rgb(0, 0, 255);fill-opacity:0;fill-rule:evenodd;stroke:rgb(255, 90, 0);stroke-width:1;" d="M 635.055, 233.819 L 654.305, 226.755 L 665.254, 243.709 L 672.671, 241.06 L 661.898, 223.929 L 681.148, 216.865 L 686.976, 223.576 L 703.4, 249.007 L 707.815, 247.417 L 715.938, 260.309 L 690.861, 269.492 L 680.442, 253.068 L 673.201, 255.717 L 683.62, 272.141 L 658.72, 281.325 L 650.419, 268.433 L 654.305, 267.02 L 638.234, 241.589 L 635.055, 233.819 z "/>
<path style="fill:rgb(255, 255, 0);fill-opacity:0;fill-rule:evenodd;stroke:rgb(255, 90, 0);stroke-width:1;" d="M 575.011, 150.993 L 600.088, 141.634 L 612.627, 161.06 L 619.338, 158.587 L 606.799, 139.161 L 631.7, 129.978 L 639.823, 142.693 L 635.938, 144.106 L 656.954, 176.954 L 636.291, 184.547 L 625.519, 167.594 L 618.102, 170.419 L 628.874, 187.196 L 608.389, 194.79 L 587.55, 162.296 L 583.311, 163.885 L 575.011, 150.993 z "/>
<path style="fill:rgb(255, 0, 0);fill-opacity:0;fill-rule:evenodd;stroke:rgb(255, 90, 0);stroke-width:1;" d="M 460.044, 193.377 L 485.121, 184.194 L 497.837, 203.974 L 505.077, 201.325 L 492.362, 181.545 L 517.439, 172.185 L 525.563, 184.901 L 521.325, 186.49 L 537.748, 211.921 L 540.927, 219.691 L 521.325, 226.932 L 510.375, 209.978 L 503.311, 212.627 L 514.26, 229.581 L 494.658, 236.821 L 488.83, 229.934 L 472.583, 204.68 L 468.344, 206.269 L 460.044, 193.377 z "/>
<path style="fill:rgb(0, 255, 0);fill-opacity:0;fill-rule:evenodd;stroke:rgb(255, 90, 0);stroke-width:1;" d="M 517.439, 172.185 L 542.34, 163.002 L 555.055, 182.781 L 562.826, 179.779 L 550.11, 160.177 L 575.011, 150.993 L 583.311, 163.885 L 579.073, 165.475 L 599.912, 197.969 L 579.249, 205.563 L 568.477, 188.609 L 560.706, 191.435 L 571.656, 208.389 L 550.993, 215.982 L 529.978, 183.311 L 525.563, 184.901 L 517.439, 172.185 z "/>
<path style="fill:rgb(0, 0, 255);fill-opacity:0;fill-rule:evenodd;stroke:rgb(255, 90, 0);stroke-width:1;" d="M 402.826, 214.57 L 427.726, 205.386 L 440.265, 225.166 L 447.859, 222.34 L 435.143, 202.561 L 460.044, 193.377 L 468.344, 206.269 L 463.929, 207.859 L 480.177, 233.289 L 483.355, 241.06 L 464.106, 248.124 L 453.333, 231.17 L 445.563, 234.172 L 456.336, 250.949 L 437.086, 258.19 L 431.611, 251.126 L 415.188, 225.519 L 410.949, 227.108 L 402.826, 214.57 z "/>
<path style="fill:rgb(255, 255, 0);fill-opacity:0;fill-rule:evenodd;stroke:rgb(255, 90, 0);stroke-width:1;" d="M 233.113, 392.406 L 259.779, 382.517 L 270.552, 399.294 L 300.927, 387.991 L 303.223, 391.347 L 316.821, 412.892 L 259.603, 433.907 L 233.113, 392.406 z "/>
<path style="fill:rgb(255, 0, 0);fill-opacity:0;fill-rule:evenodd;stroke:rgb(255, 90, 0);stroke-width:1;" d="M 683.267, 195.32 L 719.294, 181.898 L 717.351, 178.896 L 731.126, 173.951 L 743.841, 193.731 L 722.119, 201.678 L 727.241, 209.978 L 748.962, 201.854 L 761.501, 221.457 L 747.55, 226.755 L 746.137, 224.459 L 710.287, 237.528 L 699.514, 220.751 L 714.702, 215.276 L 708.698, 205.916 L 693.687, 211.567 L 683.267, 195.32 z "/>
<path style="fill:rgb(0, 255, 0);fill-opacity:0;fill-rule:evenodd;stroke:rgb(255, 90, 0);stroke-width:1;" d="M 144.106, 531.391 L 168.3, 522.561 L 176.424, 535.453 L 186.313, 531.921 L 178.013, 519.029 L 202.384, 510.199 L 208.389, 519.735 L 203.974, 521.325 L 206.799, 526.093 L 206.623, 526.269 L 222.693, 551.876 L 202.384, 559.117 L 190.905, 540.751 L 182.958, 543.576 L 194.614, 562.119 L 174.658, 569.36 L 157.704, 542.517 L 154.172, 539.691 L 150.287, 541.104 L 144.106, 531.391 z "/>
<path style="fill:rgb(0, 0, 255);fill-opacity:0;fill-rule:evenodd;stroke:rgb(255, 90, 0);stroke-width:1;" d="M 406.711, 330.773 L 442.031, 317.528 L 457.925, 342.428 L 479.47, 334.305 L 486.358, 345.077 L 489.007, 349.139 L 431.965, 370.155 L 406.711, 330.773 z "/>
<path style="fill:rgb(255, 255, 0);fill-opacity:0;fill-rule:evenodd;stroke:rgb(255, 90, 0);stroke-width:1;" d="M 92.5386, 173.068 L 104.547, 168.477 L 106.313, 171.126 L 122.561, 165.121 L 143.753, 157.174 L 153.996, 173.245 L 144.106, 176.954 L 147.815, 182.781 L 157.704, 179.073 L 167.947, 194.79 L 130.684, 208.565 L 132.627, 211.744 L 120.265, 216.159 L 109.316, 199.382 L 120.618, 195.143 L 121.501, 193.377 L 128.742, 190.728 L 130.861, 190.905 L 135.276, 189.139 L 129.448, 180.132 L 125.033, 181.722 L 123.974, 183.135 L 117.086, 185.607 L 113.554, 185.254 L 102.958, 189.139 L 92.5386, 173.068 z "/>
<path style="fill:rgb(255, 0, 0);fill-opacity:0;fill-rule:evenodd;stroke:rgb(255, 90, 0);stroke-width:1;" d="M 120.265, 216.159 L 132.627, 211.744 L 134.393, 214.57 L 171.479, 200.795 L 181.722, 216.689 L 171.832, 220.221 L 175.717, 226.402 L 185.43, 222.87 L 195.32, 238.234 L 158.234, 251.832 L 160.177, 255.011 L 147.991, 259.603 L 137.572, 243.179 L 148.168, 239.294 L 149.227, 236.821 L 156.645, 233.996 L 158.94, 234.525 L 163.179, 232.936 L 157.528, 223.753 L 152.936, 225.519 L 151.876, 227.285 L 144.283, 230.11 L 141.457, 228.874 L 130.861, 232.759 L 120.265, 216.159 z "/>
<path style="fill:rgb(0, 255, 0);fill-opacity:0;fill-rule:evenodd;stroke:rgb(255, 90, 0);stroke-width:1;" d="M 302.34, 535.982 L 341.192, 483.885 L 367.859, 494.658 L 344.018, 525.21 L 348.433, 526.976 L 341.722, 550.817 L 302.34, 535.982 z "/>
<path style="fill:rgb(0, 0, 255);fill-opacity:0;fill-rule:evenodd;stroke:rgb(255, 90, 0);stroke-width:1;" d="M 85.1214, 313.996 L 115.32, 302.693 L 113.201, 299.514 L 126.446, 294.57 L 140.044, 315.762 L 117.616, 324.062 L 122.208, 331.302 L 144.812, 323.002 L 154.879, 338.543 L 140.397, 343.841 L 138.278, 340.486 L 108.433, 351.611 L 98.0132, 335.541 L 108.433, 331.656 L 104.547, 325.651 L 95.011, 329.183 L 85.1214, 313.996 z "/>
<path style="fill:rgb(255, 255, 0);fill-opacity:0;fill-rule:evenodd;stroke:rgb(255, 90, 0);stroke-width:1;" d="M 112.494, 357.439 L 141.987, 346.49 L 140.397, 343.841 L 154.879, 338.543 L 164.415, 353.554 L 141.81, 362.031 L 146.755, 369.625 L 169.36, 361.325 L 182.428, 381.457 L 168.83, 386.578 L 166.887, 383.753 L 136.512, 395.055 L 126.799, 379.868 L 136.336, 376.336 L 132.274, 369.978 L 122.914, 373.51 L 112.494, 357.439 z "/>
<path style="fill:rgb(255, 0, 0);fill-opacity:0;fill-rule:evenodd;stroke:rgb(255, 90, 0);stroke-width:1;" d="M 836.733, 54.2163 L 878.764, 38.8521 L 885.121, 48.7417 L 888.653, 54.3929 L 881.589, 57.0419 L 880.177, 54.7461 L 875.055, 56.5121 L 880.177, 64.4592 L 882.649, 63.5762 L 889.183, 73.819 L 892.362, 72.5828 L 891.832, 70.1104 L 897.483, 67.9912 L 907.02, 82.8256 L 864.989, 98.3664 L 856.159, 84.5916 L 862.163, 82.4724 L 863.753, 84.9448 L 868.344, 83.1788 L 859.691, 69.7572 L 860.927, 69.404 L 856.865, 63.0464 L 851.038, 65.1656 L 851.744, 66.0486 L 845.74, 68.3444 L 845.033, 67.2848 L 836.733, 54.2163 z "/>
<path style="fill:rgb(0, 255, 0);fill-opacity:0;fill-rule:evenodd;stroke:rgb(255, 90, 0);stroke-width:1;" d="M 116.203, 680.442 L 169.183, 652.185 L 190.199, 674.967 L 154.879, 693.863 L 137.219, 703.223 L 116.203, 680.442 z "/>
<path style="fill:rgb(0, 0, 255);fill-opacity:0;fill-rule:evenodd;stroke:rgb(255, 90, 0);stroke-width:1;" d="M 230.993, 499.779 L 306.402, 472.406 L 309.404, 473.996 L 266.137, 532.627 L 256.777, 528.742 L 248.653, 515.85 L 267.903, 508.962 L 264.371, 503.311 L 261.545, 504.371 L 260.839, 503.311 L 238.234, 511.611 L 237.174, 509.845 L 230.993, 499.779 z "/>
<path style="fill:rgb(255, 255, 0);fill-opacity:0;fill-rule:evenodd;stroke:rgb(255, 90, 0);stroke-width:1;" d="M 64.4592, 129.095 L 92.8918, 118.675 L 99.7792, 129.272 L 110.199, 145.872 L 117.086, 156.468 L 122.561, 165.121 L 106.313, 171.126 L 104.547, 168.477 L 92.5386, 173.068 L 64.4592, 129.095 z "/>
<path style="fill:rgb(255, 0, 0);fill-opacity:0;fill-rule:evenodd;stroke:rgb(255, 90, 0);stroke-width:1;" d="M 389.051, 303.223 L 415.894, 293.333 L 419.073, 298.631 L 448.742, 287.682 L 457.748, 301.457 L 436.733, 309.227 L 442.031, 317.528 L 406.711, 330.773 L 389.051, 303.223 z "/>
<path style="fill:rgb(0, 255, 0);fill-opacity:0;fill-rule:evenodd;stroke:rgb(255, 90, 0);stroke-width:1;" d="M 303.223, 391.347 L 360.088, 370.331 L 373.687, 391.7 L 316.821, 412.892 L 303.223, 391.347 z "/>
<path style="fill:rgb(0, 0, 255);fill-opacity:0;fill-rule:evenodd;stroke:rgb(255, 90, 0);stroke-width:1;" d="M 289.095, 369.448 L 296.336, 366.799 L 298.808, 365.916 L 308.168, 380.397 L 311.876, 379.161 L 302.517, 364.503 L 345.96, 348.433 L 360.088, 370.331 L 303.223, 391.347 L 300.927, 387.991 L 289.095, 369.448 z "/>
<path style="fill:rgb(255, 255, 0);fill-opacity:0;fill-rule:evenodd;stroke:rgb(255, 90, 0);stroke-width:1;" d="M 705.872, 244.415 L 762.737, 223.223 L 775.453, 243.355 L 718.587, 264.371 L 715.938, 260.309 L 707.815, 247.417 L 705.872, 244.415 z "/>
<path style="fill:rgb(255, 0, 0);fill-opacity:0;fill-rule:evenodd;stroke:rgb(255, 90, 0);stroke-width:1;" d="M 467.285, 86.3576 L 488.124, 78.5872 L 509.492, 112.141 L 507.373, 113.024 L 508.962, 115.32 L 511.258, 115.497 L 515.497, 114.084 L 523.091, 126.093 L 494.481, 136.689 L 486.711, 124.68 L 490.949, 123.091 L 491.479, 121.501 L 489.536, 118.675 L 488.124, 119.029 L 467.285, 86.3576 z "/>
<path style="fill:rgb(0, 255, 0);fill-opacity:0;fill-rule:evenodd;stroke:rgb(255, 90, 0);stroke-width:1;" d="M 495.894, 75.7616 L 516.733, 67.9912 L 538.278, 101.545 L 536.159, 102.252 L 537.572, 104.724 L 540.044, 104.901 L 544.106, 103.488 L 551.876, 115.497 L 523.091, 126.093 L 515.497, 114.084 L 519.558, 112.494 L 520.088, 110.905 L 518.146, 108.079 L 516.909, 108.433 L 495.894, 75.7616 z "/>
<path style="fill:rgb(0, 0, 255);fill-opacity:0;fill-rule:evenodd;stroke:rgb(255, 90, 0);stroke-width:1;" d="M 438.499, 96.9536 L 459.338, 89.1832 L 480.706, 122.737 L 478.587, 123.62 L 480.177, 125.916 L 482.649, 126.093 L 486.711, 124.68 L 494.481, 136.689 L 465.695, 147.285 L 459.161, 137.042 L 457.925, 135.276 L 462.163, 133.687 L 462.693, 132.097 L 460.751, 129.272 L 459.514, 129.625 L 438.499, 96.9536 z "/>
<path style="fill:rgb(255, 255, 0);fill-opacity:0;fill-rule:evenodd;stroke:rgb(255, 90, 0);stroke-width:1;" d="M 524.68, 65.1656 L 545.342, 57.3951 L 566.711, 90.7726 L 564.415, 91.6556 L 565.651, 93.7748 L 568.3, 94.8344 L 572.892, 93.0684 L 580.662, 104.901 L 551.876, 115.497 L 544.106, 103.488 L 548.521, 101.722 L 549.051, 99.7792 L 547.638, 97.3068 L 545.872, 98.0132 L 524.68, 65.1656 z "/>
<path style="fill:rgb(255, 0, 0);fill-opacity:0;fill-rule:evenodd;stroke:rgb(255, 90, 0);stroke-width:1;" d="M 553.466, 54.3929 L 573.951, 46.9757 L 595.32, 80.3532 L 593.024, 81.2362 L 594.614, 83.7086 L 597.263, 83.8852 L 601.678, 82.2958 L 609.448, 94.3046 L 580.662, 104.901 L 572.892, 93.0684 L 577.66, 91.3024 L 577.483, 89.5364 L 576.071, 87.064 L 574.658, 87.5938 L 553.466, 54.3929 z "/>
<path style="fill:rgb(0, 255, 0);fill-opacity:0;fill-rule:evenodd;stroke:rgb(255, 90, 0);stroke-width:1;" d="M 601.678, 70.9934 L 603.091, 70.4636 L 601.854, 68.6976 L 615.806, 63.5762 L 614.216, 61.1038 L 627.991, 55.9823 L 629.757, 58.6313 L 651.832, 50.5077 L 666.49, 73.2892 L 645.651, 81.0596 L 638.764, 70.4636 L 639.294, 69.2274 L 637.704, 66.755 L 627.108, 70.6402 L 628.521, 72.936 L 628.874, 73.1126 L 629.934, 73.2892 L 636.998, 84.2384 L 615.276, 92.1854 L 601.678, 70.9934 z "/>
<path style="fill:rgb(0, 0, 255);fill-opacity:0;fill-rule:evenodd;stroke:rgb(255, 90, 0);stroke-width:1;" d="M 127.506, 105.784 L 178.543, 87.064 L 192.494, 108.786 L 180.309, 113.201 L 176.6, 114.614 L 173.422, 109.669 L 174.305, 109.492 L 173.422, 108.079 L 164.238, 111.611 L 166.358, 114.967 L 139.691, 124.857 L 127.506, 105.784 z "/>
<path style="fill:rgb(255, 255, 0);fill-opacity:0;fill-rule:evenodd;stroke:rgb(255, 90, 0);stroke-width:1;" d="M 202.384, 510.199 L 230.993, 499.779 L 237.174, 509.845 L 230.64, 512.141 L 231.347, 513.024 L 228.874, 513.907 L 230.64, 516.909 L 231.876, 516.38 L 240.177, 529.801 L 243.179, 531.391 L 249.36, 529.095 L 253.245, 535.453 L 237.174, 556.998 L 215.629, 522.914 L 217.395, 522.384 L 214.923, 518.499 L 209.095, 520.618 L 208.389, 519.735 L 202.384, 510.199 z "/>
<path style="fill:rgb(255, 0, 0);fill-opacity:0;fill-rule:evenodd;stroke:rgb(255, 90, 0);stroke-width:1;" d="M 119.735, 540.221 L 144.106, 531.391 L 150.287, 541.104 L 151.876, 543.576 L 148.168, 544.812 L 165.651, 572.539 L 145.166, 579.956 L 138.985, 570.243 L 134.746, 571.832 L 128.389, 561.589 L 135.806, 558.94 L 130.684, 550.817 L 127.152, 552.053 L 119.735, 540.221 z "/>
<path style="fill:rgb(0, 255, 0);fill-opacity:0;fill-rule:evenodd;stroke:rgb(255, 90, 0);stroke-width:1;" d="M 87.064, 552.23 L 111.435, 543.223 L 119.029, 555.408 L 115.32, 556.645 L 120.442, 564.592 L 128.389, 561.589 L 134.746, 571.832 L 130.684, 573.245 L 136.865, 583.135 L 116.203, 590.552 L 98.8962, 563.179 L 94.8344, 564.592 L 87.064, 552.23 z "/>
<path style="fill:rgb(0, 0, 255);fill-opacity:0;fill-rule:evenodd;stroke:rgb(255, 90, 0);stroke-width:1;" d="M 92.8918, 118.675 L 121.148, 108.079 L 128.035, 118.675 L 122.914, 120.618 L 121.501, 122.384 L 130.861, 137.219 L 133.333, 137.925 L 138.808, 135.806 L 145.519, 146.049 L 117.086, 156.468 L 110.199, 145.872 L 116.203, 143.576 L 117.263, 141.987 L 107.726, 126.976 L 105.96, 126.976 L 99.7792, 129.272 L 92.8918, 118.675 z "/>
<path style="fill:rgb(255, 255, 0);fill-opacity:0;fill-rule:evenodd;stroke:rgb(255, 90, 0);stroke-width:1;" d="M 145.519, 130.331 L 182.605, 116.556 L 180.309, 113.201 L 192.494, 108.786 L 206.269, 130.331 L 194.26, 134.746 L 190.728, 129.095 L 181.722, 132.45 L 168.653, 137.219 L 172.009, 142.517 L 156.998, 148.168 L 145.519, 130.331 z "/>
<path style="fill:rgb(255, 0, 0);fill-opacity:0;fill-rule:evenodd;stroke:rgb(255, 90, 0);stroke-width:1;" d="M 818.19, 61.1038 L 836.733, 54.2163 L 845.033, 67.2848 L 840.088, 69.2274 L 859.868, 100.309 L 846.623, 105.077 L 840.618, 95.7174 L 836.556, 97.1302 L 830.728, 87.947 L 834.437, 86.5342 L 818.19, 61.1038 z "/>
<path style="fill:rgb(0, 255, 0);fill-opacity:0;fill-rule:evenodd;stroke:rgb(255, 90, 0);stroke-width:1;" d="M 793.466, 70.287 L 811.126, 63.7528 L 827.373, 89.1832 L 830.728, 87.947 L 836.556, 97.1302 L 833.024, 98.543 L 839.029, 107.903 L 825.254, 113.024 L 805.475, 81.9426 L 801.766, 83.3554 L 793.466, 70.287 z "/>
<path style="fill:rgb(0, 0, 255);fill-opacity:0;fill-rule:evenodd;stroke:rgb(255, 90, 0);stroke-width:1;" d="M 747.903, 108.786 L 777.395, 98.0132 L 775.629, 95.1876 L 784.459, 92.0088 L 787.285, 90.9492 L 789.051, 93.7748 L 797.174, 90.7726 L 804.945, 102.781 L 768.565, 116.203 L 770.331, 118.852 L 757.439, 123.62 L 747.903, 108.786 z "/>
<path style="fill:rgb(255, 255, 0);fill-opacity:0;fill-rule:evenodd;stroke:rgb(255, 90, 0);stroke-width:1;" d="M 770.155, 143.576 L 799.47, 132.804 L 797.881, 130.508 L 809.713, 126.093 L 811.302, 128.565 L 819.603, 125.563 L 827.373, 137.572 L 790.287, 151.17 L 792.053, 153.819 L 779.691, 158.411 L 770.155, 143.576 z "/>
<path style="fill:rgb(255, 0, 0);fill-opacity:0;fill-rule:evenodd;stroke:rgb(255, 90, 0);stroke-width:1;" d="M 779.691, 158.411 L 792.053, 153.819 L 793.819, 156.821 L 830.728, 143.223 L 838.322, 154.879 L 830.199, 157.881 L 832.141, 160.883 L 820.309, 165.298 L 818.366, 162.296 L 789.051, 173.068 L 779.691, 158.411 z "/>
<path style="fill:rgb(0, 255, 0);fill-opacity:0;fill-rule:evenodd;stroke:rgb(255, 90, 0);stroke-width:1;" d="M 757.439, 123.62 L 770.331, 118.852 L 772.097, 121.678 L 808.477, 108.433 L 815.894, 120.088 L 807.77, 123.091 L 809.713, 126.093 L 797.881, 130.508 L 796.115, 127.682 L 766.799, 138.278 L 757.439, 123.62 z "/>
<path style="fill:rgb(0, 0, 255);fill-opacity:0;fill-rule:evenodd;stroke:rgb(255, 90, 0);stroke-width:1;" d="M 792.583, 178.72 L 822.075, 167.947 L 820.309, 165.298 L 832.141, 160.883 L 833.731, 163.532 L 841.854, 160.706 L 849.448, 172.362 L 813.068, 185.784 L 814.834, 188.609 L 801.943, 193.377 L 792.583, 178.72 z "/>
<path style="fill:rgb(255, 255, 0);fill-opacity:0;fill-rule:evenodd;stroke:rgb(255, 90, 0);stroke-width:1;" d="M 801.943, 193.377 L 814.834, 188.609 L 816.777, 191.435 L 853.157, 178.19 L 860.574, 189.845 L 852.627, 192.848 L 854.216, 195.497 L 842.914, 199.735 L 841.148, 197.086 L 811.302, 208.035 L 801.943, 193.377 z "/>
<path style="fill:rgb(255, 0, 0);fill-opacity:0;fill-rule:evenodd;stroke:rgb(255, 90, 0);stroke-width:1;" d="M 736.777, 91.1258 L 786.932, 72.5828 L 794.525, 84.415 L 785.342, 87.7704 L 787.285, 90.9492 L 784.459, 92.0088 L 775.629, 95.1876 L 773.687, 92.362 L 744.371, 103.135 L 736.777, 91.1258 z "/>
<path style="fill:rgb(0, 255, 0);fill-opacity:0;fill-rule:evenodd;stroke:rgb(255, 90, 0);stroke-width:1;" d="M 815.364, 214.216 L 845.21, 203.267 L 842.914, 199.735 L 854.216, 195.497 L 856.336, 198.675 L 865.695, 195.32 L 873.113, 207.152 L 822.605, 225.695 L 815.364, 214.216 z "/>
<path style="fill:rgb(0, 0, 255);fill-opacity:0;fill-rule:evenodd;stroke:rgb(255, 90, 0);stroke-width:1;" d="M 58.8079, 407.417 L 70.287, 403.179 L 72.7594, 407.064 L 76.1148, 407.947 L 86.181, 404.238 L 88.4768, 402.296 L 84.9448, 396.821 L 95.3642, 393.113 L 98.543, 397.881 L 101.545, 398.057 L 108.433, 395.408 L 107.02, 393.113 L 115.32, 390.11 L 121.148, 399.117 L 66.4018, 419.426 L 58.8079, 407.417 z "/>
<path style="fill:rgb(255, 255, 0);fill-opacity:0;fill-rule:evenodd;stroke:rgb(255, 90, 0);stroke-width:1;" d="M 35.6733, 371.744 L 90.2428, 351.611 L 96.0706, 360.618 L 85.6512, 364.503 L 83.8852, 361.854 L 79.2936, 363.62 L 78.234, 365.563 L 81.0596, 369.801 L 69.404, 374.216 L 68.6976, 374.393 L 66.0486, 370.331 L 61.9868, 369.448 L 50.1545, 373.863 L 54.0397, 380.044 L 43.6203, 383.929 L 35.6733, 371.744 z "/>
<path style="fill:rgb(255, 0, 0);fill-opacity:0;fill-rule:evenodd;stroke:rgb(255, 90, 0);stroke-width:1;" d="M 20.6623, 348.256 L 75.0552, 328.124 L 80.883, 337.13 L 71.3466, 340.839 L 69.404, 337.837 L 64.8124, 339.603 L 62.8698, 341.722 L 65.872, 346.49 L 53.5099, 351.082 L 50.8609, 347.02 L 47.5055, 345.784 L 35.3201, 350.375 L 38.8521, 356.026 L 28.0795, 359.912 L 20.6623, 348.256 z "/>
<path style="fill:rgb(0, 255, 0);fill-opacity:0;fill-rule:evenodd;stroke:rgb(255, 90, 0);stroke-width:1;" d="M 43.6203, 383.929 L 54.0397, 380.044 L 55.2759, 379.691 L 57.7483, 383.576 L 61.1038, 384.283 L 71.8764, 380.221 L 72.5828, 379.161 L 69.404, 374.216 L 81.0596, 369.801 L 83.7086, 374.04 L 86.8874, 374.393 L 93.9514, 371.921 L 92.1854, 369.095 L 100.132, 366.269 L 105.784, 375.276 L 51.0375, 395.585 L 43.6203, 383.929 z "/>
<path style="fill:rgb(0, 0, 255);fill-opacity:0;fill-rule:evenodd;stroke:rgb(255, 90, 0);stroke-width:1;" d="M 51.0375, 395.585 L 105.784, 375.276 L 111.788, 384.283 L 103.311, 387.461 L 101.369, 384.283 L 93.9514, 386.932 L 93.0684, 389.227 L 95.3642, 393.113 L 84.9448, 396.821 L 82.1192, 392.406 L 78.234, 392.759 L 68.521, 396.468 L 67.638, 398.94 L 70.287, 403.179 L 58.8079, 407.417 L 51.0375, 395.585 z "/>
<path style="fill:rgb(255, 255, 0);fill-opacity:0;fill-rule:evenodd;stroke:rgb(255, 90, 0);stroke-width:1;" d="M 28.0795, 359.912 L 38.8521, 356.026 L 43.0905, 362.561 L 55.6291, 357.969 L 55.9823, 354.967 L 53.5099, 351.082 L 65.872, 346.49 L 68.6976, 350.728 L 71.3466, 350.905 L 75.7616, 349.316 L 74.1722, 346.667 L 84.5916, 342.781 L 90.2428, 351.611 L 35.6733, 371.744 L 28.0795, 359.912 z "/>
<path style="fill:rgb(255, 0, 0);fill-opacity:0;fill-rule:evenodd;stroke:rgb(255, 90, 0);stroke-width:1;" d="M 66.4018, 419.426 L 121.148, 399.117 L 126.623, 407.594 L 117.969, 410.773 L 116.556, 408.3 L 109.845, 410.773 L 108.256, 412.539 L 110.728, 416.6 L 99.7792, 420.662 L 96.9536, 416.247 L 93.9514, 416.071 L 83.7086, 419.779 L 82.4724, 422.781 L 84.9448, 426.49 L 73.6424, 430.728 L 66.4018, 419.426 z "/>
<path style="fill:rgb(0, 255, 0);fill-opacity:0;fill-rule:evenodd;stroke:rgb(255, 90, 0);stroke-width:1;" d="M 280.265, 345.254 L 331.832, 326.358 L 337.307, 334.834 L 285.74, 353.907 L 280.265, 345.254 z "/>
<path style="fill:rgb(0, 0, 255);fill-opacity:0;fill-rule:evenodd;stroke:rgb(255, 90, 0);stroke-width:1;" d="M 909.492, 719.117 L 927.506, 694.57 L 935.099, 697.925 L 943.929, 701.634 L 926.093, 726.004 L 909.492, 719.117 z "/>
<path style="fill:rgb(255, 255, 0);fill-opacity:0;fill-rule:evenodd;stroke:rgb(255, 90, 0);stroke-width:1;" d="M 236.468, 281.148 L 290.155, 261.192 L 294.923, 268.786 L 250.949, 285.033 L 250.066, 283.797 L 240.53, 287.329 L 236.468, 281.148 z "/>
<path style="fill:rgb(255, 0, 0);fill-opacity:0;fill-rule:evenodd;stroke:rgb(255, 90, 0);stroke-width:1;" d="M 271.611, 331.656 L 323.179, 312.759 L 327.947, 320.177 L 276.38, 339.249 L 271.611, 331.656 z "/>
<path style="fill:rgb(0, 255, 0);fill-opacity:0;fill-rule:evenodd;stroke:rgb(255, 90, 0);stroke-width:1;" d="M 291.567, 359.382 L 341.192, 341.015 L 345.96, 348.433 L 302.517, 364.503 L 298.808, 365.916 L 296.336, 366.799 L 291.567, 359.382 z "/>
<path style="fill:rgb(0, 0, 255);fill-opacity:0;fill-rule:evenodd;stroke:rgb(255, 90, 0);stroke-width:1;" d="M 243.885, 287.682 L 250.949, 285.033 L 294.923, 268.786 L 299.338, 275.673 L 252.892, 292.804 L 248.3, 294.57 L 243.885, 287.682 z "/>
<path style="fill:rgb(255, 255, 0);fill-opacity:0;fill-rule:evenodd;stroke:rgb(255, 90, 0);stroke-width:1;" d="M 285.74, 353.907 L 337.307, 334.834 L 341.192, 341.015 L 291.567, 359.382 L 289.801, 360.088 L 285.74, 353.907 z "/>
<path style="fill:rgb(255, 0, 0);fill-opacity:0;fill-rule:evenodd;stroke:rgb(255, 90, 0);stroke-width:1;" d="M 276.38, 339.249 L 327.947, 320.177 L 331.832, 326.358 L 280.265, 345.254 L 276.38, 339.249 z "/>
<path style="fill:rgb(0, 255, 0);fill-opacity:0;fill-rule:evenodd;stroke:rgb(255, 90, 0);stroke-width:1;" d="M 252.892, 292.804 L 299.338, 275.673 L 303.576, 282.208 L 269.492, 294.746 L 257.13, 299.338 L 252.892, 292.804 z "/>
<path style="fill:rgb(0, 0, 255);fill-opacity:0;fill-rule:evenodd;stroke:rgb(255, 90, 0);stroke-width:1;" d="M 267.903, 326.004 L 319.47, 306.932 L 323.179, 312.759 L 271.611, 331.656 L 267.903, 326.004 z "/>
<path style="fill:rgb(255, 255, 0);fill-opacity:0;fill-rule:evenodd;stroke:rgb(255, 90, 0);stroke-width:1;" d="M 180.132, 699.691 L 202.914, 668.433 L 210.861, 671.788 L 193.377, 695.806 L 188.079, 703.046 L 180.132, 699.691 z "/>
<path style="fill:rgb(255, 0, 0);fill-opacity:0;fill-rule:evenodd;stroke:rgb(255, 90, 0);stroke-width:1;" d="M 124.68, 611.038 L 137.219, 606.446 L 150.464, 627.461 L 138.102, 632.053 L 124.68, 611.038 z "/>
<path style="fill:rgb(0, 255, 0);fill-opacity:0;fill-rule:evenodd;stroke:rgb(255, 90, 0);stroke-width:1;" d="M 137.219, 606.446 L 149.404, 602.031 L 162.649, 623.046 L 150.464, 627.461 L 137.219, 606.446 z "/>
<path style="fill:rgb(0, 0, 255);fill-opacity:0;fill-rule:evenodd;stroke:rgb(255, 90, 0);stroke-width:1;" d="M 269.492, 294.746 L 303.576, 282.208 L 308.168, 289.448 L 274.26, 301.987 L 269.492, 294.746 z "/>
<path style="fill:rgb(255, 255, 0);fill-opacity:0;fill-rule:evenodd;stroke:rgb(255, 90, 0);stroke-width:1;" d="M 274.26, 301.987 L 308.168, 289.448 L 312.759, 296.336 L 278.675, 308.874 L 274.26, 301.987 z "/>
<path style="fill:rgb(255, 0, 0);fill-opacity:0;fill-rule:evenodd;stroke:rgb(255, 90, 0);stroke-width:1;" d="M 278.675, 308.874 L 312.759, 296.336 L 316.821, 303.046 L 282.914, 315.585 L 278.675, 308.874 z "/>
<path style="fill:rgb(0, 255, 0);fill-opacity:0;fill-rule:evenodd;stroke:rgb(255, 90, 0);stroke-width:1;" d="M 80.7064, 554.525 L 87.064, 552.23 L 94.8344, 564.592 L 103.135, 577.837 L 96.9536, 580.132 L 80.7064, 554.525 z "/>
<path style="fill:rgb(0, 0, 255);fill-opacity:0;fill-rule:evenodd;stroke:rgb(255, 90, 0);stroke-width:1;" d="M 155.232, 705.695 L 161.589, 697.572 L 179.249, 705.872 L 172.892, 713.819 L 155.232, 705.695 z "/>
<path style="fill:rgb(255, 255, 0);fill-opacity:0;fill-rule:evenodd;stroke:rgb(255, 90, 0);stroke-width:1;" d="M 208.742, 632.759 L 232.759, 620.221 L 235.055, 622.693 L 227.991, 631.347 L 223.046, 633.996 L 214.04, 638.587 L 208.742, 632.759 z "/>
<path style="fill:rgb(255, 0, 0);fill-opacity:0;fill-rule:evenodd;stroke:rgb(255, 90, 0);stroke-width:1;" d="M 153.289, 446.799 L 159.823, 444.327 L 173.598, 465.695 L 167.064, 468.168 L 153.289, 446.799 z "/>
<path style="fill:rgb(0, 255, 0);fill-opacity:0;fill-rule:evenodd;stroke:rgb(255, 90, 0);stroke-width:1;" d="M 5.12141, 581.898 L 80.7064, 554.525 L 96.9536, 580.132 L 80.7064, 585.96 L 78.9404, 589.316 L 81.5894, 593.554 L 99.6026, 587.02 L 112.848, 608.212 L 95.3642, 614.57 L 97.66, 618.278 L 102.605, 619.691 L 118.322, 614.04 L 134.746, 640.177 L 105.077, 655.541 L 96.777, 642.472 L 88.1236, 645.651 L 87.064, 647.947 L 95.1876, 660.662 L 64.989, 676.38 L 39.2053, 635.408 L 61.9868, 627.108 L 65.5188, 632.583 L 64.4592, 632.936 L 68.6976, 639.647 L 89.8896, 631.876 L 86.8874, 627.108 L 85.8278, 627.461 L 68.3444, 599.735 L 69.2274, 599.558 L 65.6954, 593.907 L 43.9735, 601.678 L 48.7417, 609.095 L 50.5077, 608.565 L 53.8631, 613.863 L 30.7285, 622.34 L 5.12141, 581.898 z "/>
<path style="fill:rgb(0, 0, 255);fill-opacity:0;fill-rule:evenodd;stroke:rgb(255, 90, 0);stroke-width:1;" d="M 11.6556, 40.7947 L 122.208, 0 L 150.11, 43.4437 L 36.2031, 85.4746 L 26.6667, 70.287 L 29.8455, 69.2274 L 11.6556, 40.7947 z "/>
<path style="fill:rgb(255, 255, 0);fill-opacity:0;fill-rule:evenodd;stroke:rgb(255, 90, 0);stroke-width:1;" d="M 1.9426, 773.687 L 40.2649, 727.064 L 52.9801, 733.068 L 77.351, 703.4 L 104.901, 716.291 L 92.5386, 731.302 L 76.6446, 750.552 L 66.5784, 745.784 L 64.8124, 747.903 L 61.9868, 746.49 L 28.9625, 786.578 L 1.9426, 773.687 z "/>
<path style="fill:rgb(255, 0, 0);fill-opacity:0;fill-rule:evenodd;stroke:rgb(255, 90, 0);stroke-width:1;" d="M 14.4812, 461.104 L 42.5607, 450.861 L 75.2318, 501.898 L 46.9757, 512.318 L 39.2053, 500.309 L 32.6711, 490.066 L 39.7351, 487.417 L 30.3753, 472.759 L 34.0839, 471.347 L 31.9647, 467.991 L 21.3687, 471.876 L 14.4812, 461.104 z "/>
<path style="fill:rgb(0, 255, 0);fill-opacity:0;fill-rule:evenodd;stroke:rgb(255, 90, 0);stroke-width:1;" d="M 17.1302, 215.276 L 33.3775, 209.272 L 38.3223, 217.042 L 50.6843, 212.627 L 45.5629, 204.68 L 64.2826, 197.792 L 84.415, 229.051 L 66.755, 235.585 L 62.34, 228.874 L 60.574, 229.404 L 59.6909, 227.991 L 53.8631, 230.11 L 52.0971, 227.285 L 47.3289, 229.051 L 54.3929, 240 L 50.5077, 241.413 L 37.0861, 246.358 L 17.1302, 215.276 z "/>
<path style="fill:rgb(0, 0, 255);fill-opacity:0;fill-rule:evenodd;stroke:rgb(255, 90, 0);stroke-width:1;" d="M 0, 476.821 L 15.3642, 471.17 L 35.1435, 501.898 L 39.2053, 500.309 L 46.9757, 512.318 L 23.8411, 520.971 L 16.4238, 509.139 L 19.9558, 507.903 L 0, 476.821 z "/>
<path style="fill:rgb(255, 255, 0);fill-opacity:0;fill-rule:evenodd;stroke:rgb(255, 90, 0);stroke-width:1;" d="M 13.0684, 336.424 L 23.3113, 332.539 L 27.3731, 338.72 L 39.9117, 334.128 L 41.5011, 331.302 L 39.2053, 327.594 L 50.3311, 323.355 L 52.9801, 327.417 L 56.1589, 327.594 L 60.7506, 325.828 L 59.1611, 323.179 L 69.5806, 319.47 L 75.0552, 328.124 L 20.6623, 348.256 L 13.0684, 336.424 z "/>
<path style="fill:rgb(255, 0, 0);fill-opacity:0;fill-rule:evenodd;stroke:rgb(255, 90, 0);stroke-width:1;" d="M 293.863, 44.5033 L 327.947, 31.9647 L 336.954, 46.0927 L 330.243, 48.3885 L 336.247, 57.7483 L 366.623, 46.4459 L 360.795, 37.2627 L 353.907, 39.9117 L 344.901, 25.6071 L 379.338, 12.8918 L 387.108, 25.2539 L 394.172, 36.2031 L 385.872, 39.2053 L 393.113, 50.5077 L 401.236, 47.5055 L 405.828, 54.5695 L 401.589, 56.1589 L 413.245, 74.3488 L 379.161, 86.8874 L 373.157, 77.5276 L 379.338, 75.2318 L 377.395, 72.2296 L 379.691, 71.5232 L 378.278, 69.404 L 380.927, 68.521 L 376.865, 61.9868 L 361.325, 67.638 L 360.618, 66.4018 L 358.322, 67.2848 L 359.205, 68.521 L 345.784, 73.4658 L 350.022, 80 L 352.318, 79.117 L 353.554, 81.0596 L 355.85, 80.1766 L 357.792, 83.1788 L 364.327, 80.883 L 370.155, 90.0662 L 336.954, 102.252 L 325.475, 84.415 L 320.53, 86.181 L 315.762, 78.9404 L 323.532, 75.9382 L 316.468, 64.6358 L 308.521, 67.638 L 293.863, 44.5033 z "/>
<path style="fill:rgb(0, 255, 0);fill-opacity:0;fill-rule:evenodd;stroke:rgb(255, 90, 0);stroke-width:1;" d="M 878.764, 38.8521 L 898.543, 31.6115 L 906.313, 43.6203 L 910.022, 42.3841 L 915.85, 51.3907 L 916.556, 52.4503 L 912.494, 53.8631 L 923.974, 71.6998 L 908.609, 77.351 L 889.36, 47.1523 L 885.121, 48.7417 L 878.764, 38.8521 z "/>
<path style="fill:rgb(0, 0, 255);fill-opacity:0;fill-rule:evenodd;stroke:rgb(255, 90, 0);stroke-width:1;" d="M 906.137, 28.7859 L 921.854, 22.9581 L 929.801, 35.4967 L 933.51, 34.0839 L 940.927, 45.9161 L 936.865, 47.3289 L 946.932, 63.223 L 931.744, 68.6976 L 919.735, 49.9779 L 915.85, 51.3907 L 910.022, 42.3841 L 913.907, 40.9713 L 906.137, 28.7859 z "/>
<path style="fill:rgb(255, 255, 0);fill-opacity:0;fill-rule:evenodd;stroke:rgb(255, 90, 0);stroke-width:1;" d="M 590.728, 51.2141 L 624.989, 38.4989 L 623.4, 35.8499 L 624.812, 35.3201 L 638.94, 30.1987 L 648.124, 44.6799 L 626.049, 52.8035 L 627.991, 55.9823 L 614.216, 61.1038 L 612.274, 57.9249 L 598.322, 63.0464 L 590.728, 51.2141 z "/>
</svg>