<?xml version="1.0" encoding="iso-8859-1" standalone="no"?>
<!DOCTYPE svg PUBLIC "-//W3C//DTD SVG 1.0//EN" "http://www.w3.org/TR/2001/REC-SVG-20010904/DTD/svg10.dtd">
<svg xmlns="http://www.w3.org/2000/svg" width="1075" height="800">
<path style="fill:rgb(255, 0, 0);fill-opacity:0;fill-rule:evenodd;stroke:rgb(0, 92, 255);stroke-width:1;" d="M 472.191, 700.295 L 522.679, 630.919 L 641.635, 681.044 L 629.285, 698.116 L 590.965, 750.42 L 472.191, 700.295 z "/>
<path style="fill:rgb(0, 255, 0);fill-opacity:0;fill-rule:evenodd;stroke:rgb(0, 92, 255);stroke-width:1;" d="M 129.852, 574.075 L 152.736, 542.656 L 158.547, 545.017 L 188.876, 503.246 L 197.957, 491.078 L 274.234, 523.042 L 212.123, 608.581 L 129.852, 574.075 z "/>
<path style="fill:rgb(0, 0, 255);fill-opacity:0;fill-rule:evenodd;stroke:rgb(0, 92, 255);stroke-width:1;" d="M 517.775, 510.511 L 521.771, 504.881 L 523.224, 505.426 L 528.49, 498.161 L 526.856, 497.435 L 531.033, 491.805 L 534.665, 493.258 L 535.936, 491.442 L 545.562, 495.437 L 546.47, 494.166 L 559.909, 499.796 L 559.001, 501.249 L 562.997, 503.065 L 564.813, 500.522 L 578.252, 506.152 L 576.436, 508.695 L 580.431, 510.329 L 581.521, 508.876 L 595.323, 514.688 L 594.234, 516.141 L 598.048, 517.775 L 599.682, 515.414 L 613.121, 521.044 L 611.487, 523.224 L 615.119, 524.858 L 616.209, 523.405 L 629.467, 529.035 L 628.377, 530.488 L 632.554, 532.123 L 634.37, 529.762 L 648.173, 535.573 L 646.356, 537.934 L 649.989, 539.569 L 650.897, 538.116 L 673.417, 547.56 L 676.322, 543.383 L 712.645, 558.82 L 682.679, 599.864 L 602.406, 566.084 L 611.124, 553.916 L 594.96, 547.196 L 592.963, 549.739 L 578.797, 543.746 L 580.613, 541.203 L 562.997, 533.757 L 563.905, 532.304 L 560.272, 530.851 L 558.638, 533.031 L 545.017, 527.401 L 546.833, 525.04 L 543.564, 523.768 L 542.656, 525.04 L 527.582, 518.683 L 528.49, 517.412 L 519.773, 513.78 L 521.044, 511.782 L 517.775, 510.511 z "/>
<path style="fill:rgb(255, 255, 0);fill-opacity:0;fill-rule:evenodd;stroke:rgb(0, 92, 255);stroke-width:1;" d="M 71.3734, 508.513 L 112.054, 452.395 L 193.417, 486.356 L 182.883, 500.885 L 188.876, 503.246 L 158.547, 545.017 L 152.736, 542.656 L 78.2747, 511.419 L 71.3734, 508.513 z "/>
<path style="fill:rgb(255, 0, 0);fill-opacity:0;fill-rule:evenodd;stroke:rgb(0, 92, 255);stroke-width:1;" d="M 635.278, 718.275 L 642.543, 708.286 L 638.365, 706.47 L 643.995, 698.842 L 642.361, 698.116 L 655.074, 680.499 L 670.692, 687.037 L 669.058, 689.217 L 697.208, 701.203 L 698.842, 699.024 L 743.337, 717.73 L 733.167, 731.532 L 741.158, 734.983 L 734.62, 743.882 L 746.606, 748.967 L 763.133, 726.447 L 799.637, 741.884 L 768.218, 785.108 L 748.604, 776.754 L 741.158, 773.485 L 744.427, 768.944 L 736.981, 765.857 L 740.068, 761.498 L 692.123, 741.158 L 699.024, 731.532 L 702.656, 733.167 L 705.562, 728.99 L 685.585, 720.636 L 682.316, 725.176 L 687.401, 727.355 L 680.136, 737.162 L 635.278, 718.275 z "/>
<path style="fill:rgb(0, 255, 0);fill-opacity:0;fill-rule:evenodd;stroke:rgb(0, 92, 255);stroke-width:1;" d="M 213.575, 437.503 L 251.714, 385.017 L 307.832, 408.445 L 304.381, 413.167 L 337.435, 426.969 L 303.837, 473.462 L 302.747, 474.733 L 213.575, 437.503 z "/>
<path style="fill:rgb(0, 0, 255);fill-opacity:0;fill-rule:evenodd;stroke:rgb(0, 92, 255);stroke-width:1;" d="M 923.496, 461.657 L 939.659, 439.319 L 979.432, 456.027 L 986.515, 446.22 L 952.191, 431.873 L 960.182, 420.976 L 962.361, 421.884 L 972.35, 408.263 L 1004.31, 421.703 L 1012.49, 410.624 L 1006.49, 408.082 L 1004.86, 410.261 L 973.258, 397.003 L 989.058, 375.21 L 1049.35, 400.454 L 985.97, 487.809 L 923.496, 461.657 z "/>
<path style="fill:rgb(255, 255, 0);fill-opacity:0;fill-rule:evenodd;stroke:rgb(0, 92, 255);stroke-width:1;" d="M 470.556, 114.234 L 485.993, 93.3485 L 522.316, 108.785 L 521.589, 109.875 L 531.941, 114.234 L 555.187, 82.9966 L 536.663, 74.8241 L 538.479, 72.4631 L 551.555, 54.8468 L 559.001, 45.0397 L 578.797, 53.5755 L 578.978, 53.2123 L 608.036, 65.7435 L 601.498, 74.4608 L 602.77, 75.0057 L 545.38, 152.554 L 515.414, 139.841 L 519.047, 134.938 L 470.556, 114.234 z "/>
<path style="fill:rgb(255, 0, 0);fill-opacity:0;fill-rule:evenodd;stroke:rgb(0, 92, 255);stroke-width:1;" d="M 219.205, 733.167 L 265.698, 669.24 L 337.253, 699.569 L 315.46, 729.535 L 316.368, 729.898 L 306.561, 743.519 L 285.857, 734.983 L 271.146, 755.142 L 219.205, 733.167 z "/>
<path style="fill:rgb(0, 255, 0);fill-opacity:0;fill-rule:evenodd;stroke:rgb(0, 92, 255);stroke-width:1;" d="M 407.9, 240.817 L 431.873, 208.127 L 436.958, 210.306 L 439.319, 207.219 L 442.77, 208.672 L 450.397, 198.138 L 446.947, 196.686 L 470.556, 164.722 L 484.904, 170.897 L 487.809, 166.901 L 522.316, 181.43 L 498.161, 214.302 L 489.625, 210.67 L 477.457, 227.56 L 485.993, 231.192 L 462.202, 263.7 L 407.9, 240.817 z "/>
<path style="fill:rgb(0, 0, 255);fill-opacity:0;fill-rule:evenodd;stroke:rgb(0, 92, 255);stroke-width:1;" d="M 341.793, 361.771 L 368.127, 325.63 L 357.775, 321.271 L 391.01, 275.505 L 438.593, 295.482 L 405.176, 341.249 L 379.024, 377.389 L 341.793, 361.771 z "/>
<path style="fill:rgb(255, 255, 0);fill-opacity:0;fill-rule:evenodd;stroke:rgb(0, 92, 255);stroke-width:1;" d="M 286.583, 636.549 L 301.839, 615.301 L 297.299, 613.485 L 307.469, 599.501 L 312.009, 601.317 L 346.515, 554.098 L 373.031, 565.358 L 370.306, 569.171 L 385.562, 575.528 L 330.715, 650.897 L 315.46, 644.359 L 313.099, 647.809 L 286.583, 636.549 z "/>
<path style="fill:rgb(255, 0, 0);fill-opacity:0;fill-rule:evenodd;stroke:rgb(0, 92, 255);stroke-width:1;" d="M 809.444, 562.815 L 825.062, 541.385 L 829.603, 543.201 L 845.766, 521.226 L 863.201, 528.672 L 867.015, 530.306 L 854.302, 547.741 L 880.999, 558.82 L 887.537, 549.921 L 881.544, 547.378 L 892.622, 532.123 L 923.314, 545.199 L 926.947, 540.295 L 942.565, 546.833 L 925.857, 569.716 L 905.335, 560.999 L 898.252, 570.806 L 918.774, 579.523 L 902.247, 602.043 L 878.82, 592.236 L 890.443, 576.254 L 878.275, 571.169 L 866.652, 586.969 L 844.858, 577.889 L 856.481, 561.907 L 843.95, 556.64 L 832.327, 572.622 L 809.444, 562.815 z "/>
<path style="fill:rgb(0, 255, 0);fill-opacity:0;fill-rule:evenodd;stroke:rgb(0, 92, 255);stroke-width:1;" d="M 455.119, 408.99 L 514.688, 327.628 L 555.006, 344.699 L 553.553, 346.697 L 495.437, 426.061 L 455.119, 408.99 z "/>
<path style="fill:rgb(0, 0, 255);fill-opacity:0;fill-rule:evenodd;stroke:rgb(0, 92, 255);stroke-width:1;" d="M 558.093, 456.754 L 566.084, 445.857 L 589.512, 413.893 L 604.404, 420.068 L 605.131, 418.978 L 610.397, 421.339 L 633.462, 389.557 L 620.568, 384.109 L 624.381, 378.842 L 660.885, 394.098 L 655.8, 401.18 L 628.922, 438.048 L 622.384, 447.128 L 636.368, 452.94 L 634.007, 456.209 L 625.289, 468.195 L 615.846, 481.09 L 558.093, 456.754 z "/>
<path style="fill:rgb(255, 255, 0);fill-opacity:0;fill-rule:evenodd;stroke:rgb(0, 92, 255);stroke-width:1;" d="M 719.546, 673.235 L 726.447, 663.973 L 728.263, 661.43 L 730.079, 662.157 L 743.519, 643.632 L 741.703, 642.906 L 751.51, 629.467 L 736.799, 623.292 L 759.319, 592.418 L 768.581, 579.705 L 811.623, 597.684 L 747.877, 685.04 L 719.546, 673.235 z "/>
<path style="fill:rgb(255, 0, 0);fill-opacity:0;fill-rule:evenodd;stroke:rgb(0, 92, 255);stroke-width:1;" d="M 845.585, 514.325 L 855.755, 500.522 L 860.477, 502.52 L 863.201, 498.706 L 853.212, 494.529 L 869.012, 472.736 L 935.119, 500.704 L 934.756, 501.43 L 945.471, 505.97 L 948.195, 507.06 L 948.558, 506.334 L 966.356, 513.78 L 965.63, 514.869 L 967.628, 515.778 L 944.381, 547.56 L 942.565, 546.833 L 926.947, 540.295 L 911.691, 533.757 L 921.498, 520.499 L 891.169, 507.605 L 880.091, 522.86 L 884.086, 524.677 L 876.822, 534.302 L 867.015, 530.306 L 863.201, 528.672 L 867.015, 523.405 L 845.585, 514.325 z "/>
<path style="fill:rgb(0, 255, 0);fill-opacity:0;fill-rule:evenodd;stroke:rgb(0, 92, 255);stroke-width:1;" d="M 571.896, 254.62 L 586.606, 234.461 L 592.418, 237.003 L 595.323, 233.008 L 602.951, 236.277 L 626.016, 245.902 L 702.293, 277.866 L 700.477, 280.409 L 704.654, 282.225 L 690.125, 302.384 L 683.95, 299.659 L 681.044, 303.655 L 674.688, 301.112 L 669.058, 298.751 L 574.801, 258.978 L 576.436, 256.617 L 571.896, 254.62 z "/>
<path style="fill:rgb(0, 0, 255);fill-opacity:0;fill-rule:evenodd;stroke:rgb(0, 92, 255);stroke-width:1;" d="M 658.524, 499.069 L 667.968, 486.175 L 676.867, 474.007 L 677.594, 473.099 L 779.115, 515.778 L 760.227, 541.93 L 658.524, 499.069 z "/>
<path style="fill:rgb(255, 255, 0);fill-opacity:0;fill-rule:evenodd;stroke:rgb(0, 92, 255);stroke-width:1;" d="M 242.997, 323.451 L 244.086, 321.998 L 252.622, 310.193 L 263.882, 314.915 L 268.059, 309.285 L 261.884, 306.742 L 270.602, 294.756 L 301.294, 307.65 L 289.308, 324.359 L 303.655, 330.352 L 307.106, 325.812 L 302.02, 323.632 L 310.738, 311.646 L 329.444, 319.455 L 331.986, 316.005 L 339.251, 319.092 L 340.341, 317.457 L 355.233, 323.814 L 347.605, 334.347 L 338.524, 330.533 L 336.163, 333.802 L 333.258, 332.531 L 327.628, 340.341 L 330.533, 341.612 L 329.262, 343.246 L 338.343, 347.06 L 329.262, 359.591 L 242.997, 323.451 z "/>
<path style="fill:rgb(255, 0, 0);fill-opacity:0;fill-rule:evenodd;stroke:rgb(0, 92, 255);stroke-width:1;" d="M 100.613, 710.284 L 110.602, 696.663 L 105.516, 694.665 L 106.425, 693.575 L 106.061, 692.123 L 107.696, 689.762 L 109.694, 689.035 L 117.866, 677.957 L 126.22, 666.515 L 125.857, 665.062 L 127.673, 662.52 L 129.489, 662.157 L 130.76, 660.522 L 138.025, 663.791 L 147.469, 650.897 L 157.821, 655.255 L 175.074, 662.701 L 179.977, 664.699 L 173.984, 672.872 L 174.711, 674.143 L 173.076, 676.504 L 171.26, 676.686 L 169.807, 678.683 L 170.533, 679.773 L 168.899, 682.134 L 166.72, 682.86 L 148.74, 707.196 L 149.467, 708.649 L 147.65, 711.01 L 145.653, 711.192 L 144.381, 713.008 L 145.289, 714.279 L 143.655, 716.459 L 141.294, 717.185 L 135.482, 725.176 L 100.613, 710.284 z "/>
<path style="fill:rgb(0, 255, 0);fill-opacity:0;fill-rule:evenodd;stroke:rgb(0, 92, 255);stroke-width:1;" d="M 701.022, 161.453 L 716.095, 140.749 L 724.631, 144.381 L 731.532, 134.756 L 739.523, 123.859 L 787.287, 144.018 L 780.568, 153.28 L 770.216, 167.446 L 763.859, 176.163 L 757.503, 185.244 L 701.022, 161.453 z "/>
<path style="fill:rgb(0, 0, 255);fill-opacity:0;fill-rule:evenodd;stroke:rgb(0, 92, 255);stroke-width:1;" d="M 588.059, 316.913 L 606.947, 290.942 L 645.448, 307.106 L 658.161, 312.372 L 669.058, 298.751 L 674.688, 301.112 L 664.336, 314.915 L 686.311, 324.177 L 667.605, 350.148 L 588.059, 316.913 z "/>
<path style="fill:rgb(255, 255, 0);fill-opacity:0;fill-rule:evenodd;stroke:rgb(0, 92, 255);stroke-width:1;" d="M 386.652, 507.06 L 423.337, 456.572 L 464.926, 474.007 L 433.507, 517.412 L 428.422, 524.495 L 386.652, 507.06 z "/>
<path style="fill:rgb(255, 0, 0);fill-opacity:0;fill-rule:evenodd;stroke:rgb(0, 92, 255);stroke-width:1;" d="M 649.989, 644.722 L 650.17, 644.54 L 660.522, 630.375 L 682.679, 599.864 L 712.645, 558.82 L 714.098, 556.822 L 740.25, 567.9 L 734.075, 576.436 L 732.622, 575.891 L 729.716, 580.068 L 716.822, 597.503 L 714.461, 596.413 L 696.3, 621.294 L 699.024, 622.565 L 690.851, 633.644 L 687.582, 634.733 L 686.311, 636.549 L 687.219, 638.729 L 682.316, 645.448 L 678.502, 643.814 L 671.237, 653.621 L 649.989, 644.722 z "/>
<path style="fill:rgb(0, 255, 0);fill-opacity:0;fill-rule:evenodd;stroke:rgb(0, 92, 255);stroke-width:1;" d="M 919.319, 139.296 L 919.864, 138.57 L 928.581, 126.402 L 930.216, 124.222 L 935.664, 126.583 L 950.011, 106.788 L 974.892, 117.321 L 960.545, 136.935 L 972.531, 141.839 L 986.879, 122.225 L 1011.76, 132.758 L 997.412, 152.372 L 1003.22, 154.733 L 992.327, 169.989 L 919.319, 139.296 z "/>
<path style="fill:rgb(0, 0, 255);fill-opacity:0;fill-rule:evenodd;stroke:rgb(0, 92, 255);stroke-width:1;" d="M 584.972, 762.77 L 602.043, 739.523 L 615.846, 745.335 L 618.025, 742.429 L 636.549, 750.238 L 635.278, 752.054 L 646.901, 756.958 L 648.354, 755.142 L 666.515, 762.77 L 664.518, 765.675 L 686.311, 774.938 L 669.24, 798.365 L 654.892, 792.372 L 655.437, 791.646 L 634.188, 782.565 L 633.644, 783.292 L 620.386, 777.662 L 620.931, 776.935 L 599.864, 768.036 L 599.319, 768.763 L 584.972, 762.77 z "/>
<path style="fill:rgb(255, 255, 0);fill-opacity:0;fill-rule:evenodd;stroke:rgb(0, 92, 255);stroke-width:1;" d="M 638.729, 425.88 L 646.538, 415.165 L 648.173, 415.891 L 658.161, 402.089 L 655.8, 401.18 L 660.885, 394.098 L 665.062, 388.468 L 666.152, 388.286 L 668.15, 388.286 L 669.24, 388.286 L 671.056, 388.831 L 671.964, 389.376 L 673.417, 390.465 L 673.961, 391.01 L 674.869, 392.463 L 683.405, 396.095 L 685.766, 395.914 L 686.856, 396.095 L 687.946, 396.277 L 689.943, 397.003 L 691.759, 398.093 L 693.031, 399.546 L 693.394, 400.272 L 695.573, 399.909 L 696.481, 400.091 L 697.571, 400.091 L 699.569, 400.817 L 701.203, 401.725 L 701.93, 402.27 L 702.838, 403.723 L 703.201, 404.449 L 711.737, 408.082 L 713.008, 407.9 L 715.369, 407.9 L 717.548, 408.627 L 718.638, 408.99 L 720.454, 410.261 L 721.907, 411.714 L 722.27, 412.44 L 721.725, 413.348 L 713.008, 425.335 L 710.102, 424.245 L 700.477, 437.503 L 701.748, 438.048 L 693.757, 448.944 L 687.946, 446.583 L 685.403, 447.491 L 674.143, 442.77 L 673.598, 440.409 L 667.605, 437.866 L 675.414, 427.333 L 676.686, 427.877 L 686.674, 414.075 L 681.226, 411.896 L 671.237, 425.516 L 672.69, 426.243 L 665.062, 436.958 L 659.069, 434.415 L 656.345, 435.142 L 645.812, 430.783 L 644.54, 428.422 L 638.729, 425.88 z "/>
<path style="fill:rgb(255, 0, 0);fill-opacity:0;fill-rule:evenodd;stroke:rgb(0, 92, 255);stroke-width:1;" d="M 581.521, 615.482 L 582.611, 613.848 L 591.51, 601.68 L 600.045, 605.131 L 607.673, 594.779 L 603.678, 593.144 L 611.487, 582.429 L 635.278, 592.599 L 626.198, 604.949 L 637.639, 609.852 L 646.72, 597.321 L 671.056, 607.491 L 663.428, 617.843 L 659.432, 616.209 L 651.805, 626.561 L 660.522, 630.375 L 650.17, 644.54 L 581.521, 615.482 z "/>
<path style="fill:rgb(0, 255, 0);fill-opacity:0;fill-rule:evenodd;stroke:rgb(0, 92, 255);stroke-width:1;" d="M 799.637, 635.641 L 807.991, 624.2 L 802.179, 621.839 L 817.072, 601.317 L 816.163, 600.953 L 817.253, 599.501 L 884.449, 627.832 L 860.114, 661.067 L 841.589, 653.258 L 835.959, 650.897 L 844.132, 639.637 L 828.15, 632.917 L 824.154, 633.644 L 817.253, 643.087 L 811.078, 640.363 L 799.637, 635.641 z "/>
<path style="fill:rgb(0, 0, 255);fill-opacity:0;fill-rule:evenodd;stroke:rgb(0, 92, 255);stroke-width:1;" d="M 753.871, 687.764 L 769.489, 666.334 L 775.664, 669.058 L 783.655, 658.161 L 800.908, 665.426 L 793.099, 676.322 L 802.906, 680.499 L 805.63, 676.867 L 815.074, 680.863 L 820.885, 673.053 L 825.607, 675.051 L 843.224, 682.497 L 819.251, 715.369 L 753.871, 687.764 z "/>
<path style="fill:rgb(255, 255, 0);fill-opacity:0;fill-rule:evenodd;stroke:rgb(0, 92, 255);stroke-width:1;" d="M 645.993, 146.561 L 652.713, 137.117 L 661.249, 140.749 L 684.495, 108.604 L 703.746, 116.776 L 700.295, 121.68 L 731.532, 134.756 L 724.631, 144.381 L 716.095, 140.749 L 701.022, 161.453 L 693.212, 172.168 L 673.598, 163.995 L 676.867, 159.455 L 645.993, 146.561 z "/>
<path style="fill:rgb(255, 0, 0);fill-opacity:0;fill-rule:evenodd;stroke:rgb(0, 92, 255);stroke-width:1;" d="M 290.397, 282.77 L 300.386, 268.785 L 310.193, 272.963 L 318.002, 262.066 L 308.74, 258.252 L 320.363, 241.907 L 336.89, 248.627 L 335.255, 250.988 L 342.883, 254.075 L 341.612, 255.891 L 347.242, 258.252 L 348.513, 256.436 L 354.869, 258.978 L 356.504, 256.617 L 373.757, 263.7 L 361.407, 280.953 L 351.6, 276.776 L 343.973, 287.491 L 353.417, 291.487 L 346.334, 301.294 L 335.982, 297.117 L 333.076, 301.294 L 325.448, 298.207 L 326.901, 296.209 L 313.28, 290.579 L 312.372, 291.85 L 290.397, 282.77 z "/>
<path style="fill:rgb(0, 255, 0);fill-opacity:0;fill-rule:evenodd;stroke:rgb(0, 92, 255);stroke-width:1;" d="M 759.319, 543.201 L 760.227, 541.93 L 779.115, 515.778 L 789.648, 501.43 L 832.327, 519.41 L 801.998, 561.18 L 759.319, 543.201 z "/>
<path style="fill:rgb(0, 0, 255);fill-opacity:0;fill-rule:evenodd;stroke:rgb(0, 92, 255);stroke-width:1;" d="M 325.085, 208.49 L 325.812, 207.401 L 334.529, 195.414 L 352.69, 203.042 L 359.955, 193.053 L 341.975, 185.426 L 343.791, 182.883 L 351.237, 172.713 L 409.535, 197.23 L 400.091, 209.943 L 385.925, 203.95 L 378.479, 213.939 L 392.826, 219.932 L 383.383, 233.008 L 325.085, 208.49 z "/>
<path style="fill:rgb(255, 255, 0);fill-opacity:0;fill-rule:evenodd;stroke:rgb(0, 92, 255);stroke-width:1;" d="M 996.322, 274.052 L 1005.58, 261.158 L 1012.49, 263.882 L 1016.66, 258.252 L 1003.77, 252.804 L 1014.48, 238.093 L 1014.85, 237.548 L 1075.14, 262.974 L 1072.05, 267.151 L 1064.43, 277.866 L 1050.62, 272.054 L 1046.08, 278.229 L 1053.35, 281.317 L 1044.09, 294.03 L 996.322, 274.052 z "/>
<path style="fill:rgb(255, 0, 0);fill-opacity:0;fill-rule:evenodd;stroke:rgb(0, 92, 255);stroke-width:1;" d="M 95.5278, 628.922 L 114.96, 602.588 L 177.072, 629.103 L 157.821, 655.255 L 147.469, 650.897 L 95.5278, 628.922 z "/>
<path style="fill:rgb(0, 255, 0);fill-opacity:0;fill-rule:evenodd;stroke:rgb(0, 92, 255);stroke-width:1;" d="M 567.355, 386.288 L 570.443, 381.93 L 568.808, 381.385 L 580.431, 365.403 L 582.066, 366.129 L 585.153, 361.771 L 619.478, 376.3 L 615.301, 381.93 L 620.568, 384.109 L 633.462, 389.557 L 610.397, 421.339 L 605.131, 418.978 L 604.404, 420.068 L 589.512, 413.893 L 583.337, 411.169 L 584.064, 410.079 L 578.434, 407.537 L 587.696, 394.824 L 567.355, 386.288 z "/>
<path style="fill:rgb(0, 0, 255);fill-opacity:0;fill-rule:evenodd;stroke:rgb(0, 92, 255);stroke-width:1;" d="M 199.773, 225.562 L 212.304, 209.762 L 227.378, 216.663 L 243.723, 224.109 L 247.174, 219.75 L 269.512, 229.921 L 266.061, 234.461 L 298.751, 249.353 L 286.039, 265.516 L 252.985, 250.261 L 249.898, 254.257 L 227.56, 244.268 L 231.01, 239.909 L 199.773, 225.562 z "/>
<path style="fill:rgb(255, 255, 0);fill-opacity:0;fill-rule:evenodd;stroke:rgb(0, 92, 255);stroke-width:1;" d="M 763.859, 176.163 L 770.216, 167.446 L 778.025, 170.715 L 781.476, 168.899 L 786.742, 171.078 L 790.193, 166.356 L 784.926, 164.177 L 790.011, 157.094 L 780.568, 153.28 L 787.287, 144.018 L 788.74, 142.02 L 846.129, 166.175 L 838.502, 176.708 L 828.331, 172.531 L 822.883, 179.977 L 816.89, 177.616 L 813.439, 182.338 L 819.432, 184.881 L 819.432, 187.968 L 826.515, 191.056 L 820.159, 199.773 L 763.859, 176.163 z "/>
<path style="fill:rgb(255, 0, 0);fill-opacity:0;fill-rule:evenodd;stroke:rgb(0, 92, 255);stroke-width:1;" d="M 670.692, 654.529 L 671.237, 653.621 L 678.502, 643.814 L 682.316, 645.448 L 687.219, 638.729 L 686.311, 636.549 L 687.582, 634.733 L 690.851, 633.644 L 699.024, 622.565 L 697.571, 620.568 L 700.114, 617.117 L 701.93, 616.935 L 703.019, 615.482 L 722.633, 623.655 L 718.456, 629.648 L 715.187, 628.195 L 712.645, 631.827 L 721.362, 635.46 L 724.086, 632.009 L 720.817, 630.556 L 725.176, 624.745 L 743.7, 632.554 L 743.7, 635.096 L 741.339, 638.365 L 738.797, 639.274 L 730.443, 650.533 L 731.351, 652.531 L 729.535, 655.074 L 726.629, 655.8 L 722.089, 662.157 L 726.447, 663.973 L 719.546, 673.235 L 718.456, 674.688 L 716.459, 675.051 L 714.461, 674.869 L 713.553, 674.688 L 711.737, 673.961 L 709.921, 672.327 L 709.194, 670.692 L 705.743, 669.24 L 704.654, 669.603 L 703.019, 669.784 L 702.111, 669.784 L 700.295, 669.24 L 699.387, 668.876 L 698.297, 667.787 L 697.389, 666.515 L 697.753, 665.97 L 695.755, 665.244 L 696.663, 663.973 L 698.661, 664.699 L 713.553, 644.359 L 707.741, 641.998 L 693.212, 661.975 L 694.484, 662.52 L 693.394, 664.154 L 692.304, 663.61 L 690.306, 663.973 L 688.127, 663.973 L 685.766, 663.246 L 683.95, 661.975 L 683.042, 661.067 L 682.497, 659.796 L 678.865, 658.343 L 676.504, 658.706 L 674.688, 658.524 L 673.961, 658.343 L 672.327, 657.435 L 671.056, 655.8 L 670.692, 654.529 z "/>
<path style="fill:rgb(0, 255, 0);fill-opacity:0;fill-rule:evenodd;stroke:rgb(0, 92, 255);stroke-width:1;" d="M 677.594, 209.762 L 687.401, 196.141 L 702.474, 202.316 L 709.921, 191.964 L 703.927, 189.421 L 706.833, 185.426 L 697.571, 181.793 L 704.109, 172.531 L 757.684, 194.506 L 751.146, 203.768 L 741.703, 199.773 L 738.797, 203.768 L 733.348, 201.589 L 725.721, 212.486 L 740.431, 218.479 L 739.886, 219.205 L 730.988, 231.737 L 677.594, 209.762 z "/>
<path style="fill:rgb(0, 0, 255);fill-opacity:0;fill-rule:evenodd;stroke:rgb(0, 92, 255);stroke-width:1;" d="M 787.65, 83.1782 L 798.002, 69.0125 L 809.081, 73.7344 L 815.437, 65.017 L 804.177, 60.2951 L 813.802, 46.8558 L 861.93, 67.0148 L 860.84, 68.6493 L 855.573, 75.7321 L 852.304, 80.454 L 840.318, 75.3689 L 833.961, 84.0863 L 845.948, 88.9898 L 844.858, 90.4427 L 835.596, 103.337 L 787.65, 83.1782 z "/>
<path style="fill:rgb(255, 255, 0);fill-opacity:0;fill-rule:evenodd;stroke:rgb(0, 92, 255);stroke-width:1;" d="M 181.067, 378.842 L 189.24, 367.764 L 193.78, 369.762 L 201.044, 359.591 L 191.419, 355.414 L 201.952, 341.067 L 251.896, 361.952 L 243.178, 373.939 L 234.279, 370.306 L 233.553, 371.033 L 229.376, 369.217 L 221.385, 380.295 L 225.562, 382.111 L 224.654, 383.201 L 233.734, 387.015 L 225.743, 397.73 L 181.067, 378.842 z "/>
<path style="fill:rgb(255, 0, 0);fill-opacity:0;fill-rule:evenodd;stroke:rgb(0, 92, 255);stroke-width:1;" d="M 615.846, 481.09 L 625.289, 468.195 L 636.549, 472.917 L 645.267, 460.931 L 634.007, 456.209 L 636.368, 452.94 L 622.384, 447.128 L 628.922, 438.048 L 685.585, 462.02 L 677.594, 473.099 L 676.867, 474.007 L 665.607, 469.285 L 656.708, 481.453 L 667.968, 486.175 L 658.524, 499.069 L 615.846, 481.09 z "/>
<path style="fill:rgb(0, 255, 0);fill-opacity:0;fill-rule:evenodd;stroke:rgb(0, 92, 255);stroke-width:1;" d="M 730.988, 231.737 L 739.886, 219.205 L 745.335, 221.566 L 747.877, 217.934 L 747.151, 217.753 L 762.043, 196.686 L 778.57, 203.405 L 772.758, 211.759 L 774.211, 212.849 L 780.023, 215.21 L 782.02, 215.573 L 787.832, 207.219 L 804.54, 214.12 L 789.285, 235.369 L 787.65, 234.824 L 784.745, 238.82 L 790.556, 241.362 L 783.292, 251.714 L 779.659, 250.261 L 779.115, 250.806 L 782.747, 252.44 L 782.384, 252.804 L 761.498, 244.086 L 771.124, 230.647 L 761.498, 226.652 L 751.873, 240.272 L 730.988, 231.737 z "/>
<path style="fill:rgb(0, 0, 255);fill-opacity:0;fill-rule:evenodd;stroke:rgb(0, 92, 255);stroke-width:1;" d="M 126.583, 355.959 L 132.577, 347.968 L 139.841, 351.056 L 146.379, 342.338 L 148.195, 343.065 L 150.919, 339.069 L 147.832, 337.798 L 150.011, 334.892 L 143.837, 332.35 L 152.736, 320.182 L 201.952, 341.067 L 191.419, 355.414 L 175.619, 348.876 L 169.625, 357.23 L 179.432, 361.407 L 169.989, 374.302 L 126.583, 355.959 z "/>
<path style="fill:rgb(255, 255, 0);fill-opacity:0;fill-rule:evenodd;stroke:rgb(0, 92, 255);stroke-width:1;" d="M 52.4858, 687.219 L 73.3712, 659.069 L 117.866, 677.957 L 109.694, 689.035 L 107.696, 689.762 L 106.061, 692.123 L 106.425, 693.575 L 105.516, 694.665 L 110.602, 696.663 L 100.613, 710.284 L 95.5278, 708.104 L 96.7991, 706.107 L 52.4858, 687.219 z "/>
<path style="fill:rgb(255, 0, 0);fill-opacity:0;fill-rule:evenodd;stroke:rgb(0, 92, 255);stroke-width:1;" d="M 835.596, 103.337 L 844.858, 90.4427 L 855.573, 94.983 L 856.481, 93.5301 L 857.934, 94.0749 L 860.114, 90.8059 L 857.571, 89.7162 L 864.835, 79.7276 L 855.573, 75.7321 L 860.84, 68.6493 L 901.521, 85.7208 L 888.808, 103.337 L 887.537, 102.792 L 884.086, 107.696 L 890.443, 110.42 L 881.725, 122.588 L 835.596, 103.337 z "/>
<path style="fill:rgb(0, 255, 0);fill-opacity:0;fill-rule:evenodd;stroke:rgb(0, 92, 255);stroke-width:1;" d="M 780.931, 654.711 L 796.005, 634.007 L 799.637, 635.641 L 811.078, 640.363 L 808.536, 643.814 L 839.047, 656.527 L 841.589, 653.258 L 860.114, 661.067 L 844.313, 682.86 L 843.224, 682.497 L 825.607, 675.051 L 827.968, 671.782 L 800.545, 660.159 L 798.91, 662.157 L 780.931, 654.711 z "/>
<path style="fill:rgb(0, 0, 255);fill-opacity:0;fill-rule:evenodd;stroke:rgb(0, 92, 255);stroke-width:1;" d="M 193.598, 87.3553 L 201.226, 77.0034 L 212.849, 81.9069 L 222.474, 68.6493 L 210.851, 63.7457 L 217.389, 54.8468 L 220.295, 50.8513 L 260.795, 67.9228 L 257.707, 72.0999 L 251.351, 80.8173 L 238.638, 75.5505 L 230.284, 86.8104 L 232.1, 90.0795 L 241.544, 94.0749 L 238.275, 98.6152 L 234.098, 104.427 L 193.598, 87.3553 z "/>
<path style="fill:rgb(255, 255, 0);fill-opacity:0;fill-rule:evenodd;stroke:rgb(0, 92, 255);stroke-width:1;" d="M 510.874, 436.958 L 520.863, 423.156 L 528.854, 426.425 L 537.026, 415.346 L 529.217, 412.077 L 533.939, 405.539 L 531.759, 404.631 L 536.663, 398.093 L 556.277, 406.447 L 545.743, 420.976 L 544.835, 420.613 L 544.109, 421.703 L 551.373, 424.79 L 552.826, 422.792 L 561.362, 426.243 L 560.999, 426.788 L 571.532, 431.146 L 561.907, 444.222 L 566.084, 445.857 L 558.093, 456.754 L 539.569, 448.944 L 547.378, 438.048 L 539.387, 434.779 L 531.578, 445.675 L 510.874, 436.958 z "/>
<path style="fill:rgb(255, 0, 0);fill-opacity:0;fill-rule:evenodd;stroke:rgb(0, 92, 255);stroke-width:1;" d="M 361.226, 161.816 L 389.557, 122.77 L 418.615, 134.938 L 410.988, 145.289 L 399.001, 161.635 L 391.555, 171.986 L 390.102, 173.984 L 361.226, 161.816 z "/>
<path style="fill:rgb(0, 255, 0);fill-opacity:0;fill-rule:evenodd;stroke:rgb(0, 92, 255);stroke-width:1;" d="M 881.725, 122.588 L 890.443, 110.42 L 900.25, 114.415 L 912.418, 97.7072 L 904.427, 94.2565 L 910.238, 86.2656 L 946.016, 101.339 L 937.117, 113.507 L 927.491, 109.512 L 918.411, 122.043 L 928.581, 126.402 L 919.864, 138.57 L 881.725, 122.588 z "/>
<path style="fill:rgb(0, 0, 255);fill-opacity:0;fill-rule:evenodd;stroke:rgb(0, 92, 255);stroke-width:1;" d="M 715.914, 607.855 L 719.728, 602.588 L 718.82, 599.864 L 721.18, 596.413 L 724.813, 595.505 L 734.62, 582.066 L 729.716, 580.068 L 732.622, 575.891 L 734.075, 576.436 L 740.25, 567.9 L 741.521, 566.266 L 769.671, 578.07 L 768.581, 579.705 L 759.319, 592.418 L 755.505, 590.965 L 745.698, 604.404 L 746.243, 607.31 L 743.7, 610.76 L 740.795, 611.85 L 737.162, 616.754 L 715.914, 607.855 z "/>
<path style="fill:rgb(255, 255, 0);fill-opacity:0;fill-rule:evenodd;stroke:rgb(0, 92, 255);stroke-width:1;" d="M 714.098, 307.106 L 723.178, 294.756 L 731.714, 298.207 L 740.795, 286.039 L 732.077, 282.406 L 741.158, 270.057 L 772.94, 283.496 L 771.669, 285.131 L 765.857, 293.121 L 760.772, 290.942 L 740.795, 318.184 L 714.098, 307.106 z "/>
<path style="fill:rgb(255, 0, 0);fill-opacity:0;fill-rule:evenodd;stroke:rgb(0, 92, 255);stroke-width:1;" d="M 610.76, 180.704 L 617.662, 171.442 L 627.832, 175.8 L 638.729, 161.271 L 672.327, 175.619 L 656.89, 196.322 L 651.078, 193.961 L 648.899, 197.049 L 610.76, 180.704 z "/>
<path style="fill:rgb(0, 255, 0);fill-opacity:0;fill-rule:evenodd;stroke:rgb(0, 92, 255);stroke-width:1;" d="M 503.428, 70.4654 L 511.237, 59.9319 L 518.32, 63.0193 L 529.035, 48.672 L 531.033, 45.9478 L 523.95, 42.8604 L 531.578, 32.6901 L 532.304, 31.6005 L 559.909, 43.5868 L 559.001, 45.0397 L 551.555, 54.8468 L 544.109, 51.5778 L 534.847, 63.9274 L 535.936, 65.3802 L 533.575, 68.6493 L 534.484, 70.8286 L 538.479, 72.4631 L 536.663, 74.8241 L 531.033, 82.4518 L 503.428, 70.4654 z "/>
<path style="fill:rgb(0, 0, 255);fill-opacity:0;fill-rule:evenodd;stroke:rgb(0, 92, 255);stroke-width:1;" d="M 822.883, 205.221 L 840.681, 180.704 L 836.867, 179.069 L 838.502, 176.708 L 846.129, 166.175 L 873.916, 177.798 L 864.654, 190.692 L 859.932, 188.695 L 841.952, 213.212 L 822.883, 205.221 z "/>
<path style="fill:rgb(255, 255, 0);fill-opacity:0;fill-rule:evenodd;stroke:rgb(0, 92, 255);stroke-width:1;" d="M 391.555, 171.986 L 399.001, 161.635 L 402.089, 162.906 L 402.27, 164.722 L 405.358, 165.993 L 413.167, 155.278 L 414.075, 153.462 L 418.07, 148.195 L 410.988, 145.289 L 418.615, 134.938 L 446.947, 146.924 L 445.494, 149.103 L 439.501, 157.276 L 432.236, 154.188 L 428.241, 159.455 L 426.606, 160.908 L 419.705, 170.352 L 427.514, 173.621 L 420.068, 183.973 L 391.555, 171.986 z "/>
<path style="fill:rgb(255, 0, 0);fill-opacity:0;fill-rule:evenodd;stroke:rgb(0, 92, 255);stroke-width:1;" d="M 1011.94, 349.966 L 1013.58, 347.968 L 1022.84, 334.711 L 1028.83, 337.072 L 1043.9, 315.823 L 1060.61, 322.724 L 1045.72, 343.973 L 1052.26, 346.697 L 1041.18, 361.952 L 1011.94, 349.966 z "/>
<path style="fill:rgb(0, 255, 0);fill-opacity:0;fill-rule:evenodd;stroke:rgb(0, 92, 255);stroke-width:1;" d="M 341.067, 152.554 L 347.605, 143.473 L 366.311, 117.866 L 369.035, 114.234 L 387.015, 121.68 L 367.037, 149.103 L 364.132, 147.832 L 355.959, 158.729 L 341.067, 152.554 z "/>
<path style="fill:rgb(0, 0, 255);fill-opacity:0;fill-rule:evenodd;stroke:rgb(0, 92, 255);stroke-width:1;" d="M 851.215, 217.208 L 869.012, 192.509 L 864.654, 190.692 L 873.916, 177.798 L 896.799, 187.423 L 896.073, 188.331 L 887.355, 200.318 L 882.997, 198.32 L 865.199, 223.019 L 851.215, 217.208 z "/>
<path style="fill:rgb(255, 255, 0);fill-opacity:0;fill-rule:evenodd;stroke:rgb(0, 92, 255);stroke-width:1;" d="M 764.404, 314.733 L 782.02, 290.579 L 803.995, 299.841 L 786.379, 323.995 L 764.404, 314.733 z "/>
<path style="fill:rgb(255, 0, 0);fill-opacity:0;fill-rule:evenodd;stroke:rgb(0, 92, 255);stroke-width:1;" d="M 599.864, 226.652 L 608.763, 214.484 L 639.455, 227.378 L 626.016, 245.902 L 602.951, 236.277 L 607.491, 229.921 L 599.864, 226.652 z "/>
<path style="fill:rgb(0, 255, 0);fill-opacity:0;fill-rule:evenodd;stroke:rgb(0, 92, 255);stroke-width:1;" d="M 830.511, 419.523 L 848.127, 395.551 L 850.306, 396.459 L 854.302, 391.01 L 865.199, 395.551 L 861.203, 401.18 L 865.925, 402.997 L 848.309, 427.151 L 830.511, 419.523 z "/>
<path style="fill:rgb(0, 0, 255);fill-opacity:0;fill-rule:evenodd;stroke:rgb(0, 92, 255);stroke-width:1;" d="M 157.821, 655.255 L 177.072, 629.103 L 194.506, 636.368 L 175.074, 662.701 L 157.821, 655.255 z "/>
<path style="fill:rgb(255, 255, 0);fill-opacity:0;fill-rule:evenodd;stroke:rgb(0, 92, 255);stroke-width:1;" d="M 440.045, 104.608 L 468.922, 65.1986 L 478.547, 69.3757 L 465.471, 86.9921 L 449.489, 108.604 L 440.045, 104.608 z "/>
<path style="fill:rgb(255, 0, 0);fill-opacity:0;fill-rule:evenodd;stroke:rgb(0, 92, 255);stroke-width:1;" d="M 315.46, 729.535 L 337.253, 699.569 L 338.343, 698.116 L 351.056, 703.564 L 332.894, 728.082 L 327.083, 725.721 L 322.179, 732.44 L 316.368, 729.898 L 315.46, 729.535 z "/>
<path style="fill:rgb(0, 255, 0);fill-opacity:0;fill-rule:evenodd;stroke:rgb(0, 92, 255);stroke-width:1;" d="M 311.283, 143.292 L 319.092, 132.577 L 338.343, 106.061 L 347.968, 110.057 L 324.359, 142.384 L 320.726, 147.287 L 311.283, 143.292 z "/>
<path style="fill:rgb(0, 0, 255);fill-opacity:0;fill-rule:evenodd;stroke:rgb(0, 92, 255);stroke-width:1;" d="M 995.414, 167.446 L 1022.84, 130.579 L 1028.83, 133.303 L 1020.11, 144.926 L 1025.2, 147.106 L 1006.67, 172.168 L 995.414, 167.446 z "/>
<path style="fill:rgb(255, 255, 0);fill-opacity:0;fill-rule:evenodd;stroke:rgb(0, 92, 255);stroke-width:1;" d="M 979.069, 265.88 L 1002.86, 233.19 L 1014.48, 238.093 L 1003.77, 252.804 L 995.778, 263.7 L 991.237, 261.703 L 986.152, 268.785 L 979.069, 265.88 z "/>
<path style="fill:rgb(255, 0, 0);fill-opacity:0;fill-rule:evenodd;stroke:rgb(0, 92, 255);stroke-width:1;" d="M 411.714, 778.933 L 417.707, 770.579 L 438.956, 741.339 L 449.671, 745.88 L 432.418, 769.489 L 427.696, 767.491 L 424.064, 772.577 L 425.516, 773.303 L 419.16, 782.02 L 411.714, 778.933 z "/>
<path style="fill:rgb(0, 255, 0);fill-opacity:0;fill-rule:evenodd;stroke:rgb(0, 92, 255);stroke-width:1;" d="M 956.005, 256.073 L 979.614, 223.383 L 991.419, 228.286 L 972.713, 254.075 L 967.628, 251.896 L 962.543, 258.797 L 956.005, 256.073 z "/>
<path style="fill:rgb(0, 0, 255);fill-opacity:0;fill-rule:evenodd;stroke:rgb(0, 92, 255);stroke-width:1;" d="M 431.146, 100.795 L 460.386, 61.5664 L 468.922, 65.1986 L 440.045, 104.608 L 431.146, 100.795 z "/>
<path style="fill:rgb(255, 255, 0);fill-opacity:0;fill-rule:evenodd;stroke:rgb(0, 92, 255);stroke-width:1;" d="M 933.121, 246.266 L 956.731, 213.757 L 968.173, 218.661 L 949.648, 244.268 L 945.108, 242.452 L 940.023, 249.171 L 933.121, 246.266 z "/>
<path style="fill:rgb(255, 0, 0);fill-opacity:0;fill-rule:evenodd;stroke:rgb(0, 92, 255);stroke-width:1;" d="M 948.922, 253.167 L 954.007, 246.084 L 949.648, 244.268 L 968.173, 218.661 L 979.614, 223.383 L 956.005, 256.073 L 948.922, 253.167 z "/>
<path style="fill:rgb(0, 255, 0);fill-opacity:0;fill-rule:evenodd;stroke:rgb(0, 92, 255);stroke-width:1;" d="M 972.35, 262.974 L 977.435, 256.073 L 972.713, 254.075 L 991.419, 228.286 L 1002.86, 233.19 L 979.069, 265.88 L 972.35, 262.974 z "/>
<path style="fill:rgb(0, 0, 255);fill-opacity:0;fill-rule:evenodd;stroke:rgb(0, 92, 255);stroke-width:1;" d="M 1017.57, 176.89 L 1040.82, 145.471 L 1046.81, 148.014 L 1042.09, 154.37 L 1047.9, 156.913 L 1040.82, 166.538 L 1029.38, 181.975 L 1017.57, 176.89 z "/>
<path style="fill:rgb(255, 255, 0);fill-opacity:0;fill-rule:evenodd;stroke:rgb(0, 92, 255);stroke-width:1;" d="M 998.865, 341.975 L 1015.21, 318.729 L 1029.92, 324.722 L 1022.84, 334.711 L 1013.58, 347.968 L 998.865, 341.975 z "/>
<path style="fill:rgb(255, 0, 0);fill-opacity:0;fill-rule:evenodd;stroke:rgb(0, 92, 255);stroke-width:1;" d="M 400.272, 756.232 L 418.07, 731.714 L 429.875, 736.799 L 412.077, 760.953 L 406.992, 768.218 L 400.454, 765.494 L 405.539, 758.593 L 400.272, 756.232 z "/>
<path style="fill:rgb(0, 255, 0);fill-opacity:0;fill-rule:evenodd;stroke:rgb(0, 92, 255);stroke-width:1;" d="M 674.506, 354.506 L 698.661, 321.453 L 704.291, 323.814 L 698.116, 332.35 L 703.927, 334.711 L 685.948, 359.41 L 674.506, 354.506 z "/>
<path style="fill:rgb(0, 0, 255);fill-opacity:0;fill-rule:evenodd;stroke:rgb(0, 92, 255);stroke-width:1;" d="M 926.765, 243.541 L 931.669, 236.822 L 926.947, 234.824 L 945.653, 209.217 L 956.731, 213.757 L 933.121, 246.266 L 926.765, 243.541 z "/>
<path style="fill:rgb(255, 255, 0);fill-opacity:0;fill-rule:evenodd;stroke:rgb(0, 92, 255);stroke-width:1;" d="M 987.605, 337.253 L 1010.67, 304.926 L 1016.66, 307.469 L 1011.76, 314.552 L 1016.84, 316.549 L 1015.21, 318.729 L 998.865, 341.975 L 987.605, 337.253 z "/>
<path style="fill:rgb(255, 0, 0);fill-opacity:0;fill-rule:evenodd;stroke:rgb(0, 92, 255);stroke-width:1;" d="M 866.288, 363.587 L 887.174, 334.711 L 898.434, 339.432 L 877.548, 368.309 L 866.288, 363.587 z "/>
<path style="fill:rgb(0, 255, 0);fill-opacity:0;fill-rule:evenodd;stroke:rgb(0, 92, 255);stroke-width:1;" d="M 377.934, 746.788 L 395.732, 722.27 L 407.174, 727.174 L 384.291, 758.593 L 378.297, 756.05 L 383.201, 749.149 L 377.934, 746.788 z "/>
<path style="fill:rgb(0, 0, 255);fill-opacity:0;fill-rule:evenodd;stroke:rgb(0, 92, 255);stroke-width:1;" d="M 332.894, 728.082 L 351.056, 703.564 L 362.497, 708.286 L 339.977, 739.16 L 333.802, 736.436 L 338.161, 730.443 L 332.894, 728.082 z "/>
<path style="fill:rgb(255, 255, 0);fill-opacity:0;fill-rule:evenodd;stroke:rgb(0, 92, 255);stroke-width:1;" d="M 361.589, 748.967 L 384.472, 717.548 L 395.732, 722.27 L 377.934, 746.788 L 372.486, 744.608 L 367.401, 751.51 L 361.589, 748.967 z "/>
<path style="fill:rgb(255, 0, 0);fill-opacity:0;fill-rule:evenodd;stroke:rgb(0, 92, 255);stroke-width:1;" d="M 339.977, 739.16 L 362.497, 708.286 L 373.757, 713.008 L 355.596, 737.707 L 350.692, 735.709 L 346.152, 741.703 L 339.977, 739.16 z "/>
<path style="fill:rgb(0, 255, 0);fill-opacity:0;fill-rule:evenodd;stroke:rgb(0, 92, 255);stroke-width:1;" d="M 1006.67, 172.168 L 1025.2, 147.106 L 1029.74, 149.103 L 1034.46, 142.747 L 1040.82, 145.471 L 1017.57, 176.89 L 1006.67, 172.168 z "/>
<path style="fill:rgb(0, 0, 255);fill-opacity:0;fill-rule:evenodd;stroke:rgb(0, 92, 255);stroke-width:1;" d="M 720.091, 373.757 L 742.247, 343.61 L 747.333, 345.789 L 743.337, 351.419 L 749.694, 354.143 L 731.714, 378.842 L 720.091, 373.757 z "/>
<path style="fill:rgb(255, 255, 0);fill-opacity:0;fill-rule:evenodd;stroke:rgb(0, 92, 255);stroke-width:1;" d="M 124.041, 418.797 L 146.742, 387.923 L 152.554, 390.284 L 146.016, 399.001 L 152.372, 401.725 L 136.027, 423.882 L 124.041, 418.797 z "/>
<path style="fill:rgb(255, 0, 0);fill-opacity:0;fill-rule:evenodd;stroke:rgb(0, 92, 255);stroke-width:1;" d="M 685.948, 359.41 L 703.927, 334.711 L 710.647, 337.435 L 715.006, 331.442 L 719.909, 333.621 L 697.389, 364.313 L 685.948, 359.41 z "/>
<path style="fill:rgb(0, 255, 0);fill-opacity:0;fill-rule:evenodd;stroke:rgb(0, 92, 255);stroke-width:1;" d="M 886.81, 443.314 L 904.245, 419.342 L 909.512, 412.077 L 916.595, 415.165 L 911.328, 422.247 L 915.323, 423.882 L 897.707, 448.036 L 886.81, 443.314 z "/>
<path style="fill:rgb(0, 0, 255);fill-opacity:0;fill-rule:evenodd;stroke:rgb(0, 92, 255);stroke-width:1;" d="M 855.392, 359.047 L 859.75, 353.235 L 876.459, 330.17 L 887.174, 334.711 L 866.288, 363.587 L 855.392, 359.047 z "/>
<path style="fill:rgb(255, 255, 0);fill-opacity:0;fill-rule:evenodd;stroke:rgb(0, 92, 255);stroke-width:1;" d="M 731.714, 378.842 L 749.694, 354.143 L 756.232, 356.867 L 760.227, 351.419 L 765.131, 353.417 L 762.77, 356.686 L 743.7, 382.838 L 743.156, 383.564 L 731.714, 378.842 z "/>
<path style="fill:rgb(255, 0, 0);fill-opacity:0;fill-rule:evenodd;stroke:rgb(0, 92, 255);stroke-width:1;" d="M 708.831, 369.035 L 726.81, 344.336 L 732.985, 347.06 L 736.981, 341.43 L 742.247, 343.61 L 720.091, 373.757 L 708.831, 369.035 z "/>
<path style="fill:rgb(0, 255, 0);fill-opacity:0;fill-rule:evenodd;stroke:rgb(0, 92, 255);stroke-width:1;" d="M 697.389, 364.313 L 719.909, 333.621 L 724.449, 335.437 L 720.091, 341.612 L 726.81, 344.336 L 708.831, 369.035 L 697.389, 364.313 z "/>
<path style="fill:rgb(0, 0, 255);fill-opacity:0;fill-rule:evenodd;stroke:rgb(0, 92, 255);stroke-width:1;" d="M 384.291, 758.593 L 407.174, 727.174 L 418.07, 731.714 L 400.272, 756.232 L 395.187, 754.052 L 390.102, 760.953 L 384.291, 758.593 z "/>
<path style="fill:rgb(255, 255, 0);fill-opacity:0;fill-rule:evenodd;stroke:rgb(0, 92, 255);stroke-width:1;" d="M 977.072, 332.894 L 995.051, 307.65 L 999.955, 309.648 L 1004.86, 302.565 L 1010.67, 304.926 L 987.605, 337.253 L 977.072, 332.894 z "/>
<path style="fill:rgb(255, 0, 0);fill-opacity:0;fill-rule:evenodd;stroke:rgb(0, 92, 255);stroke-width:1;" d="M 768.036, 471.827 L 789.83, 442.225 L 801.09, 446.947 L 783.292, 471.283 L 777.662, 468.922 L 773.666, 474.188 L 768.036, 471.827 z "/>
<path style="fill:rgb(0, 255, 0);fill-opacity:0;fill-rule:evenodd;stroke:rgb(0, 92, 255);stroke-width:1;" d="M 912.963, 304.2 L 928.944, 281.68 L 933.121, 275.868 L 940.023, 278.593 L 935.846, 284.586 L 940.749, 286.583 L 924.767, 309.103 L 912.963, 304.2 z "/>
<path style="fill:rgb(0, 0, 255);fill-opacity:0;fill-rule:evenodd;stroke:rgb(0, 92, 255);stroke-width:1;" d="M 100.976, 261.703 L 120.953, 234.279 L 122.77, 231.737 L 128.763, 234.279 L 123.496, 241.544 L 128.944, 243.723 L 112.418, 266.606 L 100.976, 261.703 z "/>
<path style="fill:rgb(255, 255, 0);fill-opacity:0;fill-rule:evenodd;stroke:rgb(0, 92, 255);stroke-width:1;" d="M 783.292, 251.714 L 790.556, 241.362 L 802.724, 224.291 L 813.802, 228.831 L 794.37, 256.254 L 792.191, 255.891 L 785.834, 253.348 L 783.292, 251.714 z "/>
<path style="fill:rgb(255, 0, 0);fill-opacity:0;fill-rule:evenodd;stroke:rgb(0, 92, 255);stroke-width:1;" d="M 324.359, 142.384 L 347.968, 110.057 L 357.23, 114.052 L 338.706, 139.659 L 333.802, 146.379 L 324.359, 142.384 z "/>
<path style="fill:rgb(0, 255, 0);fill-opacity:0;fill-rule:evenodd;stroke:rgb(0, 92, 255);stroke-width:1;" d="M 355.596, 737.707 L 373.757, 713.008 L 384.472, 717.548 L 361.589, 748.967 L 355.959, 746.606 L 360.863, 740.068 L 355.596, 737.707 z "/>
<path style="fill:rgb(0, 0, 255);fill-opacity:0;fill-rule:evenodd;stroke:rgb(0, 92, 255);stroke-width:1;" d="M 273.689, 782.565 L 291.124, 758.593 L 297.299, 761.317 L 301.839, 755.142 L 306.924, 757.14 L 284.949, 787.287 L 273.689, 782.565 z "/>
<path style="fill:rgb(255, 255, 0);fill-opacity:0;fill-rule:evenodd;stroke:rgb(0, 92, 255);stroke-width:1;" d="M 741.703, 453.666 L 759.501, 429.33 L 770.397, 434.052 L 752.599, 458.207 L 748.241, 464.2 L 742.792, 461.839 L 747.151, 456.027 L 741.703, 453.666 z "/>
<path style="fill:rgb(255, 0, 0);fill-opacity:0;fill-rule:evenodd;stroke:rgb(0, 92, 255);stroke-width:1;" d="M 227.015, 163.269 L 227.378, 162.543 L 243.905, 139.841 L 249.898, 142.384 L 253.167, 137.662 L 258.978, 140.204 L 238.638, 168.173 L 227.015, 163.269 z "/>
<path style="fill:rgb(0, 255, 0);fill-opacity:0;fill-rule:evenodd;stroke:rgb(0, 92, 255);stroke-width:1;" d="M 179.069, 442.043 L 196.322, 418.797 L 201.952, 421.158 L 205.948, 415.528 L 211.578, 417.889 L 201.044, 432.418 L 190.511, 446.947 L 179.069, 442.043 z "/>
<path style="fill:rgb(0, 0, 255);fill-opacity:0;fill-rule:evenodd;stroke:rgb(0, 92, 255);stroke-width:1;" d="M 438.956, 779.296 L 460.204, 750.42 L 471.283, 755.142 L 454.03, 778.751 L 448.4, 776.209 L 444.404, 781.657 L 438.956, 779.296 z "/>
<path style="fill:rgb(255, 255, 0);fill-opacity:0;fill-rule:evenodd;stroke:rgb(0, 92, 255);stroke-width:1;" d="M 891.532, 366.493 L 908.241, 343.61 L 919.501, 348.331 L 918.411, 349.784 L 901.884, 372.486 L 898.615, 377.026 L 892.44, 374.484 L 896.799, 368.672 L 891.532, 366.493 z "/>
<path style="fill:rgb(255, 0, 0);fill-opacity:0;fill-rule:evenodd;stroke:rgb(0, 92, 255);stroke-width:1;" d="M 930.397, 391.192 L 950.738, 363.405 L 951.827, 361.771 L 962.906, 366.493 L 945.289, 390.647 L 939.115, 388.104 L 935.301, 393.371 L 930.397, 391.192 z "/>
<path style="fill:rgb(0, 255, 0);fill-opacity:0;fill-rule:evenodd;stroke:rgb(0, 92, 255);stroke-width:1;" d="M 804.359, 408.445 L 824.154, 381.385 L 835.051, 385.925 L 832.69, 389.012 L 815.255, 412.985 L 804.359, 408.445 z "/>
<path style="fill:rgb(0, 0, 255);fill-opacity:0;fill-rule:evenodd;stroke:rgb(0, 92, 255);stroke-width:1;" d="M 877.367, 214.12 L 887.355, 200.318 L 896.073, 188.331 L 906.243, 192.69 L 883.36, 224.109 L 878.093, 221.748 L 882.27, 216.118 L 877.367, 214.12 z "/>
<path style="fill:rgb(255, 255, 0);fill-opacity:0;fill-rule:evenodd;stroke:rgb(0, 92, 255);stroke-width:1;" d="M 897.707, 448.036 L 915.323, 423.882 L 918.411, 425.335 L 923.678, 418.07 L 930.579, 420.976 L 907.696, 452.213 L 897.707, 448.036 z "/>
<path style="fill:rgb(255, 0, 0);fill-opacity:0;fill-rule:evenodd;stroke:rgb(0, 92, 255);stroke-width:1;" d="M 907.696, 452.213 L 930.579, 420.976 L 936.754, 423.7 L 931.487, 430.783 L 935.482, 432.599 L 918.048, 456.572 L 907.696, 452.213 z "/>
<path style="fill:rgb(0, 255, 0);fill-opacity:0;fill-rule:evenodd;stroke:rgb(0, 92, 255);stroke-width:1;" d="M 135.301, 276.232 L 156.005, 247.9 L 160.545, 249.716 L 156.731, 254.801 L 163.632, 257.707 L 146.742, 280.953 L 135.301, 276.232 z "/>
<path style="fill:rgb(0, 0, 255);fill-opacity:0;fill-rule:evenodd;stroke:rgb(0, 92, 255);stroke-width:1;" d="M 284.949, 787.287 L 306.924, 757.14 L 312.554, 759.682 L 308.195, 765.857 L 313.099, 767.855 L 296.209, 791.101 L 293.303, 790.738 L 284.949, 787.287 z "/>
<path style="fill:rgb(255, 255, 0);fill-opacity:0;fill-rule:evenodd;stroke:rgb(0, 92, 255);stroke-width:1;" d="M 238.638, 168.173 L 258.978, 140.204 L 262.792, 141.839 L 259.523, 146.379 L 267.151, 149.648 L 266.606, 150.375 L 250.079, 173.076 L 238.638, 168.173 z "/>
<path style="fill:rgb(255, 0, 0);fill-opacity:0;fill-rule:evenodd;stroke:rgb(0, 92, 255);stroke-width:1;" d="M 803.814, 260.25 L 820.341, 237.003 L 825.062, 230.465 L 830.511, 232.645 L 825.789, 239.364 L 831.056, 241.544 L 814.711, 264.608 L 812.713, 263.7 L 809.989, 263.337 L 807.083, 262.247 L 803.814, 260.25 z "/>
<path style="fill:rgb(0, 255, 0);fill-opacity:0;fill-rule:evenodd;stroke:rgb(0, 92, 255);stroke-width:1;" d="M 146.742, 280.953 L 163.632, 257.707 L 169.444, 260.25 L 173.258, 254.983 L 178.524, 257.344 L 174.711, 262.429 L 157.821, 285.675 L 146.742, 280.953 z "/>
<path style="fill:rgb(0, 0, 255);fill-opacity:0;fill-rule:evenodd;stroke:rgb(0, 92, 255);stroke-width:1;" d="M 883.36, 224.109 L 906.243, 192.69 L 916.05, 196.867 L 897.526, 222.474 L 893.53, 220.84 L 889.171, 226.47 L 883.36, 224.109 z "/>
<path style="fill:rgb(255, 255, 0);fill-opacity:0;fill-rule:evenodd;stroke:rgb(0, 92, 255);stroke-width:1;" d="M 814.711, 264.608 L 831.056, 241.544 L 834.869, 236.277 L 845.04, 240.272 L 824.699, 268.785 L 823.791, 268.241 L 820.704, 267.877 L 817.798, 266.606 L 815.8, 265.153 L 814.711, 264.608 z "/>
<path style="fill:rgb(255, 0, 0);fill-opacity:0;fill-rule:evenodd;stroke:rgb(0, 92, 255);stroke-width:1;" d="M 783.655, 327.991 L 786.379, 323.995 L 803.995, 299.841 L 804.722, 298.933 L 808.717, 299.841 L 812.531, 301.476 L 815.255, 303.292 L 797.821, 327.264 L 793.099, 325.267 L 789.285, 330.352 L 783.655, 327.991 z "/>
<path style="fill:rgb(0, 255, 0);fill-opacity:0;fill-rule:evenodd;stroke:rgb(0, 92, 255);stroke-width:1;" d="M 804.177, 336.708 L 807.991, 331.442 L 825.426, 307.65 L 828.695, 308.195 L 833.053, 310.011 L 835.959, 312.191 L 835.414, 312.917 L 818.706, 335.982 L 813.076, 333.621 L 809.262, 338.706 L 804.177, 336.708 z "/>
<path style="fill:rgb(0, 0, 255);fill-opacity:0;fill-rule:evenodd;stroke:rgb(0, 92, 255);stroke-width:1;" d="M 902.974, 232.281 L 925.857, 200.863 L 935.846, 205.04 L 917.321, 230.829 L 912.236, 228.649 L 908.059, 234.461 L 902.974, 232.281 z "/>
<path style="fill:rgb(255, 255, 0);fill-opacity:0;fill-rule:evenodd;stroke:rgb(0, 92, 255);stroke-width:1;" d="M 924.767, 309.103 L 940.749, 286.583 L 944.926, 280.772 L 953.462, 284.222 L 949.285, 290.034 L 951.464, 290.942 L 935.482, 313.462 L 924.767, 309.103 z "/>
<path style="fill:rgb(255, 0, 0);fill-opacity:0;fill-rule:evenodd;stroke:rgb(0, 92, 255);stroke-width:1;" d="M 923.133, 381.385 L 939.659, 358.683 L 950.738, 363.405 L 930.397, 391.192 L 924.222, 388.649 L 927.855, 383.383 L 923.133, 381.385 z "/>
<path style="fill:rgb(0, 255, 0);fill-opacity:0;fill-rule:evenodd;stroke:rgb(0, 92, 255);stroke-width:1;" d="M 88.4449, 177.798 L 105.516, 154.188 L 116.05, 158.547 L 98.9784, 182.157 L 94.6198, 188.15 L 88.8082, 185.789 L 93.1669, 179.796 L 88.4449, 177.798 z "/>
<path style="fill:rgb(0, 0, 255);fill-opacity:0;fill-rule:evenodd;stroke:rgb(0, 92, 255);stroke-width:1;" d="M 124.041, 271.51 L 140.568, 248.627 L 147.106, 251.351 L 151.101, 245.902 L 156.005, 247.9 L 135.301, 276.232 L 124.041, 271.51 z "/>
<path style="fill:rgb(255, 255, 0);fill-opacity:0;fill-rule:evenodd;stroke:rgb(0, 92, 255);stroke-width:1;" d="M 798.365, 484.904 L 820.159, 454.938 L 830.511, 459.296 L 812.713, 483.814 L 807.628, 481.635 L 803.632, 487.083 L 798.365, 484.904 z "/>
<path style="fill:rgb(255, 0, 0);fill-opacity:0;fill-rule:evenodd;stroke:rgb(0, 92, 255);stroke-width:1;" d="M 717.003, 450.942 L 738.978, 420.795 L 749.33, 424.972 L 731.532, 449.308 L 727.174, 447.491 L 722.815, 453.485 L 717.003, 450.942 z "/>
<path style="fill:rgb(0, 255, 0);fill-opacity:0;fill-rule:evenodd;stroke:rgb(0, 92, 255);stroke-width:1;" d="M 897.526, 222.474 L 916.05, 196.867 L 925.857, 200.863 L 902.974, 232.281 L 897.707, 230.102 L 901.884, 224.291 L 897.526, 222.474 z "/>
<path style="fill:rgb(0, 0, 255);fill-opacity:0;fill-rule:evenodd;stroke:rgb(0, 92, 255);stroke-width:1;" d="M 916.958, 238.275 L 921.135, 232.463 L 917.321, 230.829 L 935.846, 205.04 L 945.653, 209.217 L 926.947, 234.824 L 922.77, 240.636 L 916.958, 238.275 z "/>
<path style="fill:rgb(255, 255, 0);fill-opacity:0;fill-rule:evenodd;stroke:rgb(0, 92, 255);stroke-width:1;" d="M 758.593, 467.832 L 762.588, 462.565 L 780.386, 438.229 L 789.83, 442.225 L 768.036, 471.827 L 758.593, 467.832 z "/>
<path style="fill:rgb(255, 0, 0);fill-opacity:0;fill-rule:evenodd;stroke:rgb(0, 92, 255);stroke-width:1;" d="M 901.884, 372.486 L 918.411, 349.784 L 929.489, 354.325 L 912.963, 377.026 L 909.149, 382.293 L 903.337, 379.932 L 907.151, 374.665 L 901.884, 372.486 z "/>
<path style="fill:rgb(0, 255, 0);fill-opacity:0;fill-rule:evenodd;stroke:rgb(0, 92, 255);stroke-width:1;" d="M 81.3621, 253.53 L 98.252, 230.284 L 102.611, 224.472 L 112.054, 228.468 L 110.965, 230.102 L 90.9875, 257.526 L 81.3621, 253.53 z "/>
<path style="fill:rgb(0, 0, 255);fill-opacity:0;fill-rule:evenodd;stroke:rgb(0, 92, 255);stroke-width:1;" d="M 458.57, 112.418 L 478.729, 85.1759 L 488.899, 89.5346 L 485.993, 93.3485 L 470.556, 114.234 L 468.74, 116.776 L 458.57, 112.418 z "/>
<path style="fill:rgb(255, 255, 0);fill-opacity:0;fill-rule:evenodd;stroke:rgb(0, 92, 255);stroke-width:1;" d="M 432.418, 769.489 L 449.671, 745.88 L 460.204, 750.42 L 438.956, 779.296 L 433.326, 776.935 L 437.14, 771.669 L 432.418, 769.489 z "/>
<path style="fill:rgb(255, 0, 0);fill-opacity:0;fill-rule:evenodd;stroke:rgb(0, 92, 255);stroke-width:1;" d="M 297.117, 192.872 L 313.644, 170.17 L 321.998, 158.91 L 326.538, 160.908 L 321.635, 167.628 L 326.175, 169.444 L 322.724, 173.984 L 306.379, 196.686 L 297.117, 192.872 z "/>
<path style="fill:rgb(0, 255, 0);fill-opacity:0;fill-rule:evenodd;stroke:rgb(0, 92, 255);stroke-width:1;" d="M 731.532, 449.308 L 749.33, 424.972 L 759.501, 429.33 L 741.703, 453.666 L 737.344, 459.659 L 732.259, 457.48 L 736.617, 451.487 L 731.532, 449.308 z "/>
<path style="fill:rgb(0, 0, 255);fill-opacity:0;fill-rule:evenodd;stroke:rgb(0, 92, 255);stroke-width:1;" d="M 893.53, 296.209 L 913.689, 267.877 L 923.496, 271.873 L 903.337, 300.386 L 893.53, 296.209 z "/>
<path style="fill:rgb(255, 255, 0);fill-opacity:0;fill-rule:evenodd;stroke:rgb(0, 92, 255);stroke-width:1;" d="M 832.327, 492.35 L 850.306, 467.65 L 861.566, 472.554 L 843.587, 497.072 L 832.327, 492.35 z "/>
<path style="fill:rgb(255, 0, 0);fill-opacity:0;fill-rule:evenodd;stroke:rgb(0, 92, 255);stroke-width:1;" d="M 222.656, 312.917 L 239.728, 289.489 L 246.266, 292.395 L 249.353, 288.036 L 253.893, 290.034 L 233.553, 317.639 L 222.656, 312.917 z "/>
<path style="fill:rgb(0, 255, 0);fill-opacity:0;fill-rule:evenodd;stroke:rgb(0, 92, 255);stroke-width:1;" d="M 459.478, 788.014 L 480.726, 758.956 L 491.078, 763.314 L 473.825, 786.924 L 469.285, 785.108 L 465.471, 790.556 L 459.478, 788.014 z "/>
<path style="fill:rgb(0, 0, 255);fill-opacity:0;fill-rule:evenodd;stroke:rgb(0, 92, 255);stroke-width:1;" d="M 753.507, 310.193 L 765.857, 293.121 L 771.669, 285.131 L 782.747, 289.671 L 782.02, 290.579 L 764.404, 314.733 L 753.507, 310.193 z "/>
<path style="fill:rgb(255, 255, 0);fill-opacity:0;fill-rule:evenodd;stroke:rgb(0, 92, 255);stroke-width:1;" d="M 559.001, 603.859 L 568.627, 590.783 L 575.528, 581.339 L 587.696, 586.425 L 571.169, 609.126 L 559.001, 603.859 z "/>
<path style="fill:rgb(255, 0, 0);fill-opacity:0;fill-rule:evenodd;stroke:rgb(0, 92, 255);stroke-width:1;" d="M 90.9875, 257.526 L 110.965, 230.102 L 120.953, 234.279 L 100.976, 261.703 L 90.9875, 257.526 z "/>
<path style="fill:rgb(0, 255, 0);fill-opacity:0;fill-rule:evenodd;stroke:rgb(0, 92, 255);stroke-width:1;" d="M 783.292, 399.546 L 803.087, 372.486 L 813.258, 376.663 L 809.444, 381.93 L 793.28, 403.905 L 783.292, 399.546 z "/>
<path style="fill:rgb(0, 0, 255);fill-opacity:0;fill-rule:evenodd;stroke:rgb(0, 92, 255);stroke-width:1;" d="M 308.74, 128.218 L 327.991, 101.703 L 338.343, 106.061 L 319.092, 132.577 L 308.74, 128.218 z "/>
<path style="fill:rgb(255, 255, 0);fill-opacity:0;fill-rule:evenodd;stroke:rgb(0, 92, 255);stroke-width:1;" d="M 157.821, 285.675 L 174.711, 262.429 L 181.067, 265.153 L 184.336, 260.613 L 188.876, 262.611 L 168.717, 290.216 L 157.821, 285.675 z "/>
<path style="fill:rgb(255, 0, 0);fill-opacity:0;fill-rule:evenodd;stroke:rgb(0, 92, 255);stroke-width:1;" d="M 148.74, 203.042 L 165.812, 179.432 L 176.163, 183.791 L 174.529, 185.97 L 157.276, 209.943 L 154.733, 213.394 L 149.648, 211.215 L 154.007, 205.403 L 148.74, 203.042 z "/>
<path style="fill:rgb(0, 255, 0);fill-opacity:0;fill-rule:evenodd;stroke:rgb(0, 92, 255);stroke-width:1;" d="M 296.209, 791.101 L 313.099, 767.855 L 319.092, 770.397 L 322.906, 765.131 L 327.628, 767.128 L 306.924, 795.46 L 296.209, 791.101 z "/>
<path style="fill:rgb(0, 0, 255);fill-opacity:0;fill-rule:evenodd;stroke:rgb(0, 92, 255);stroke-width:1;" d="M 306.924, 795.46 L 327.628, 767.128 L 332.894, 769.308 L 329.262, 774.393 L 334.347, 776.572 L 317.457, 800 L 306.924, 795.46 z "/>
<path style="fill:rgb(255, 255, 0);fill-opacity:0;fill-rule:evenodd;stroke:rgb(0, 92, 255);stroke-width:1;" d="M 473.825, 786.924 L 491.078, 763.314 L 501.43, 767.673 L 480.363, 796.549 L 475.096, 794.188 L 478.91, 789.103 L 473.825, 786.924 z "/>
<path style="fill:rgb(255, 0, 0);fill-opacity:0;fill-rule:evenodd;stroke:rgb(0, 92, 255);stroke-width:1;" d="M 867.56, 435.323 L 885.176, 411.169 L 889.716, 413.167 L 893.712, 407.719 L 899.342, 410.079 L 877.73, 439.501 L 867.56, 435.323 z "/>
<path style="fill:rgb(0, 255, 0);fill-opacity:0;fill-rule:evenodd;stroke:rgb(0, 92, 255);stroke-width:1;" d="M 205.04, 154.007 L 226.107, 125.131 L 232.826, 127.855 L 228.104, 134.393 L 231.737, 135.846 L 215.21, 158.365 L 205.04, 154.007 z "/>
<path style="fill:rgb(0, 0, 255);fill-opacity:0;fill-rule:evenodd;stroke:rgb(0, 92, 255);stroke-width:1;" d="M 883.178, 292.032 L 901.521, 266.243 L 907.514, 268.785 L 909.33, 266.061 L 913.689, 267.877 L 893.53, 296.209 L 883.178, 292.032 z "/>
<path style="fill:rgb(255, 255, 0);fill-opacity:0;fill-rule:evenodd;stroke:rgb(0, 92, 255);stroke-width:1;" d="M 270.057, 110.42 L 272.599, 106.969 L 288.581, 85.1759 L 299.296, 89.7162 L 283.314, 111.51 L 280.772, 114.96 L 270.057, 110.42 z "/>
<path style="fill:rgb(255, 0, 0);fill-opacity:0;fill-rule:evenodd;stroke:rgb(0, 92, 255);stroke-width:1;" d="M 316.186, 200.863 L 332.713, 178.161 L 333.258, 178.343 L 334.529, 176.527 L 339.977, 178.706 L 338.706, 180.704 L 343.791, 182.883 L 341.975, 185.426 L 334.529, 195.414 L 325.812, 207.401 L 321.09, 205.403 L 320.182, 202.497 L 316.186, 200.863 z "/>
<path style="fill:rgb(0, 255, 0);fill-opacity:0;fill-rule:evenodd;stroke:rgb(0, 92, 255);stroke-width:1;" d="M 955.46, 323.995 L 956.731, 322.179 L 972.713, 299.659 L 973.439, 298.751 L 984.336, 303.292 L 966.356, 328.536 L 955.46, 323.995 z "/>
<path style="fill:rgb(0, 0, 255);fill-opacity:0;fill-rule:evenodd;stroke:rgb(0, 92, 255);stroke-width:1;" d="M 168.717, 290.216 L 188.876, 262.611 L 193.053, 264.245 L 189.784, 268.785 L 196.504, 271.691 L 179.614, 294.938 L 168.717, 290.216 z "/>
<path style="fill:rgb(255, 255, 0);fill-opacity:0;fill-rule:evenodd;stroke:rgb(0, 92, 255);stroke-width:1;" d="M 834.869, 350.329 L 838.32, 345.607 L 855.755, 321.453 L 866.107, 325.812 L 848.672, 349.966 L 843.224, 347.605 L 839.773, 352.327 L 834.869, 350.329 z "/>
<path style="fill:rgb(255, 0, 0);fill-opacity:0;fill-rule:evenodd;stroke:rgb(0, 92, 255);stroke-width:1;" d="M 179.614, 294.938 L 196.504, 271.691 L 203.224, 274.415 L 206.311, 270.057 L 210.67, 271.873 L 190.511, 299.478 L 179.614, 294.938 z "/>
<path style="fill:rgb(0, 255, 0);fill-opacity:0;fill-rule:evenodd;stroke:rgb(0, 92, 255);stroke-width:1;" d="M 946.198, 317.821 L 966.356, 289.489 L 972.168, 291.85 L 967.991, 297.662 L 972.713, 299.659 L 956.731, 322.179 L 946.198, 317.821 z "/>
<path style="fill:rgb(0, 0, 255);fill-opacity:0;fill-rule:evenodd;stroke:rgb(0, 92, 255);stroke-width:1;" d="M 752.054, 386.288 L 768.036, 364.495 L 774.03, 367.037 L 777.843, 361.771 L 782.928, 363.95 L 763.133, 391.01 L 752.054, 386.288 z "/>
<path style="fill:rgb(255, 255, 0);fill-opacity:0;fill-rule:evenodd;stroke:rgb(0, 92, 255);stroke-width:1;" d="M 201.226, 304.018 L 218.116, 280.772 L 224.472, 283.496 L 227.741, 278.956 L 232.1, 280.953 L 211.941, 308.558 L 201.226, 304.018 z "/>
<path style="fill:rgb(255, 0, 0);fill-opacity:0;fill-rule:evenodd;stroke:rgb(0, 92, 255);stroke-width:1;" d="M 238.275, 98.6152 L 241.544, 94.0749 L 251.351, 80.8173 L 257.707, 72.0999 L 267.877, 76.4586 L 251.896, 98.252 L 248.445, 102.974 L 238.275, 98.6152 z "/>
<path style="fill:rgb(0, 255, 0);fill-opacity:0;fill-rule:evenodd;stroke:rgb(0, 92, 255);stroke-width:1;" d="M 848.309, 427.151 L 865.925, 402.997 L 869.739, 404.813 L 873.734, 399.183 L 879.728, 401.725 L 858.116, 431.146 L 848.309, 427.151 z "/>
<path style="fill:rgb(0, 0, 255);fill-opacity:0;fill-rule:evenodd;stroke:rgb(0, 92, 255);stroke-width:1;" d="M 824.699, 345.97 L 828.876, 340.159 L 845.585, 317.276 L 855.755, 321.453 L 838.32, 345.607 L 833.235, 343.428 L 829.784, 348.331 L 824.699, 345.97 z "/>
<path style="fill:rgb(255, 255, 0);fill-opacity:0;fill-rule:evenodd;stroke:rgb(0, 92, 255);stroke-width:1;" d="M 793.28, 403.905 L 809.444, 381.93 L 815.074, 384.291 L 818.888, 379.205 L 824.154, 381.385 L 804.359, 408.445 L 793.28, 403.905 z "/>
<path style="fill:rgb(255, 0, 0);fill-opacity:0;fill-rule:evenodd;stroke:rgb(0, 92, 255);stroke-width:1;" d="M 794.188, 332.35 L 797.821, 327.264 L 815.255, 303.292 L 818.888, 304.2 L 822.883, 305.834 L 825.426, 307.65 L 807.991, 331.442 L 802.543, 329.081 L 798.729, 334.347 L 794.188, 332.35 z "/>
<path style="fill:rgb(0, 255, 0);fill-opacity:0;fill-rule:evenodd;stroke:rgb(0, 92, 255);stroke-width:1;" d="M 215.21, 158.365 L 231.737, 135.846 L 232.281, 134.938 L 243.905, 139.841 L 227.378, 162.543 L 223.383, 160.908 L 221.022, 160.726 L 215.21, 158.365 z "/>
<path style="fill:rgb(0, 0, 255);fill-opacity:0;fill-rule:evenodd;stroke:rgb(0, 92, 255);stroke-width:1;" d="M 818.161, 494.166 L 822.701, 487.991 L 840.499, 463.655 L 850.306, 467.65 L 832.327, 492.35 L 827.06, 490.17 L 822.701, 495.982 L 818.161, 494.166 z "/>
<path style="fill:rgb(255, 255, 0);fill-opacity:0;fill-rule:evenodd;stroke:rgb(0, 92, 255);stroke-width:1;" d="M 147.65, 428.785 L 163.814, 406.629 L 164.722, 405.358 L 171.805, 408.445 L 175.8, 402.997 L 179.251, 404.449 L 175.437, 409.898 L 158.184, 433.326 L 147.65, 428.785 z "/>
<path style="fill:rgb(255, 0, 0);fill-opacity:0;fill-rule:evenodd;stroke:rgb(0, 92, 255);stroke-width:1;" d="M 190.511, 299.478 L 210.67, 271.873 L 214.665, 273.507 L 211.396, 278.048 L 218.116, 280.772 L 201.226, 304.018 L 190.511, 299.478 z "/>
<path style="fill:rgb(0, 255, 0);fill-opacity:0;fill-rule:evenodd;stroke:rgb(0, 92, 255);stroke-width:1;" d="M 211.941, 308.558 L 232.1, 280.953 L 236.459, 282.588 L 233.371, 286.947 L 239.728, 289.489 L 222.656, 312.917 L 211.941, 308.558 z "/>
<path style="fill:rgb(0, 0, 255);fill-opacity:0;fill-rule:evenodd;stroke:rgb(0, 92, 255);stroke-width:1;" d="M 128.581, 194.143 L 145.471, 170.897 L 155.641, 175.074 L 138.57, 198.865 L 134.03, 205.04 L 129.671, 203.224 L 134.393, 196.504 L 128.581, 194.143 z "/>
<path style="fill:rgb(255, 255, 0);fill-opacity:0;fill-rule:evenodd;stroke:rgb(0, 92, 255);stroke-width:1;" d="M 966.356, 328.536 L 984.336, 303.292 L 995.051, 307.65 L 977.072, 332.894 L 966.356, 328.536 z "/>
<path style="fill:rgb(255, 0, 0);fill-opacity:0;fill-rule:evenodd;stroke:rgb(0, 92, 255);stroke-width:1;" d="M 444.767, 555.187 L 460.749, 533.031 L 472.917, 538.116 L 456.754, 560.272 L 444.767, 555.187 z "/>
<path style="fill:rgb(0, 255, 0);fill-opacity:0;fill-rule:evenodd;stroke:rgb(0, 92, 255);stroke-width:1;" d="M 112.418, 266.606 L 128.944, 243.723 L 140.568, 248.627 L 124.041, 271.51 L 112.418, 266.606 z "/>
<path style="fill:rgb(0, 0, 255);fill-opacity:0;fill-rule:evenodd;stroke:rgb(0, 92, 255);stroke-width:1;" d="M 935.482, 313.462 L 951.464, 290.942 L 958.365, 293.848 L 958.729, 291.669 L 961.635, 287.673 L 966.356, 289.489 L 946.198, 317.821 L 935.482, 313.462 z "/>
<path style="fill:rgb(255, 255, 0);fill-opacity:0;fill-rule:evenodd;stroke:rgb(0, 92, 255);stroke-width:1;" d="M 412.077, 760.953 L 429.875, 736.799 L 432.418, 736.073 L 435.142, 737.162 L 435.323, 739.886 L 438.956, 741.339 L 417.707, 770.579 L 412.804, 768.4 L 416.799, 762.951 L 412.077, 760.953 z "/>
<path style="fill:rgb(255, 0, 0);fill-opacity:0;fill-rule:evenodd;stroke:rgb(0, 92, 255);stroke-width:1;" d="M 449.489, 108.604 L 465.471, 86.9921 L 468.558, 88.2633 L 476.913, 77.0034 L 482.906, 79.546 L 478.729, 85.1759 L 458.57, 112.418 L 449.489, 108.604 z "/>
<path style="fill:rgb(0, 255, 0);fill-opacity:0;fill-rule:evenodd;stroke:rgb(0, 92, 255);stroke-width:1;" d="M 845.766, 353.78 L 848.672, 349.966 L 866.107, 325.812 L 876.459, 330.17 L 859.75, 353.235 L 854.484, 350.874 L 850.851, 355.959 L 845.766, 353.78 z "/>
<path style="fill:rgb(0, 0, 255);fill-opacity:0;fill-rule:evenodd;stroke:rgb(0, 92, 255);stroke-width:1;" d="M 233.553, 317.639 L 253.893, 290.034 L 257.889, 291.669 L 254.62, 296.209 L 260.976, 298.751 L 252.622, 310.193 L 244.086, 321.998 L 233.553, 317.639 z "/>
<path style="fill:rgb(255, 255, 0);fill-opacity:0;fill-rule:evenodd;stroke:rgb(0, 92, 255);stroke-width:1;" d="M 571.169, 609.126 L 587.696, 586.425 L 599.137, 591.328 L 591.51, 601.68 L 582.611, 613.848 L 571.169, 609.126 z "/>
<path style="fill:rgb(255, 0, 0);fill-opacity:0;fill-rule:evenodd;stroke:rgb(0, 92, 255);stroke-width:1;" d="M 873.19, 287.855 L 889.171, 265.335 L 890.988, 262.792 L 897.344, 265.516 L 899.16, 262.792 L 902.974, 264.245 L 901.521, 266.243 L 883.178, 292.032 L 873.19, 287.855 z "/>
<path style="fill:rgb(0, 255, 0);fill-opacity:0;fill-rule:evenodd;stroke:rgb(0, 92, 255);stroke-width:1;" d="M 792.917, 475.278 L 810.715, 450.942 L 820.159, 454.938 L 798.365, 484.904 L 793.28, 482.724 L 797.276, 477.276 L 792.917, 475.278 z "/>
<path style="fill:rgb(0, 0, 255);fill-opacity:0;fill-rule:evenodd;stroke:rgb(0, 92, 255);stroke-width:1;" d="M 108.422, 186.152 L 125.494, 162.543 L 135.119, 166.538 L 118.411, 189.784 L 113.689, 196.141 L 108.785, 193.961 L 110.238, 192.145 L 109.694, 191.964 L 112.418, 187.968 L 108.422, 186.152 z "/>
<path style="fill:rgb(255, 255, 0);fill-opacity:0;fill-rule:evenodd;stroke:rgb(0, 92, 255);stroke-width:1;" d="M 814.892, 341.067 L 818.706, 335.982 L 835.414, 312.917 L 845.585, 317.276 L 828.876, 340.159 L 823.61, 337.98 L 819.796, 343.246 L 814.892, 341.067 z "/>
<path style="fill:rgb(255, 0, 0);fill-opacity:0;fill-rule:evenodd;stroke:rgb(0, 92, 255);stroke-width:1;" d="M 858.116, 431.146 L 879.728, 401.725 L 885.176, 404.086 L 881.18, 409.535 L 885.176, 411.169 L 867.56, 435.323 L 858.116, 431.146 z "/>
<path style="fill:rgb(0, 255, 0);fill-opacity:0;fill-rule:evenodd;stroke:rgb(0, 92, 255);stroke-width:1;" d="M 157.276, 209.943 L 174.529, 185.97 L 185.426, 190.329 L 167.991, 214.302 L 157.276, 209.943 z "/>
<path style="fill:rgb(0, 0, 255);fill-opacity:0;fill-rule:evenodd;stroke:rgb(0, 92, 255);stroke-width:1;" d="M 136.027, 423.882 L 152.372, 401.725 L 163.814, 406.629 L 147.65, 428.785 L 136.027, 423.882 z "/>
<path style="fill:rgb(255, 255, 0);fill-opacity:0;fill-rule:evenodd;stroke:rgb(0, 92, 255);stroke-width:1;" d="M 456.754, 560.272 L 472.917, 538.116 L 484.359, 543.019 L 468.377, 565.176 L 456.754, 560.272 z "/>
<path style="fill:rgb(255, 0, 0);fill-opacity:0;fill-rule:evenodd;stroke:rgb(0, 92, 255);stroke-width:1;" d="M 479.455, 569.898 L 495.619, 547.741 L 507.423, 552.645 L 500.341, 562.27 L 499.977, 562.089 L 490.897, 574.62 L 479.455, 569.898 z "/>
<path style="fill:rgb(0, 255, 0);fill-opacity:0;fill-rule:evenodd;stroke:rgb(0, 92, 255);stroke-width:1;" d="M 711.918, 441.135 L 729.716, 416.799 L 738.978, 420.795 L 717.003, 450.942 L 712.463, 449.126 L 716.822, 443.133 L 711.918, 441.135 z "/>
<path style="fill:rgb(0, 0, 255);fill-opacity:0;fill-rule:evenodd;stroke:rgb(0, 92, 255);stroke-width:1;" d="M 401.907, 88.2633 L 417.889, 66.6515 L 420.795, 62.6561 L 430.42, 66.8331 L 427.333, 70.8286 L 411.351, 92.2588 L 410.443, 93.1669 L 409.353, 93.5301 L 407.9, 93.5301 L 406.629, 92.9852 L 405.721, 92.2588 L 405.358, 91.3507 L 405.358, 90.8059 L 405.539, 89.8978 L 401.907, 88.2633 z "/>
<path style="fill:rgb(255, 255, 0);fill-opacity:0;fill-rule:evenodd;stroke:rgb(0, 92, 255);stroke-width:1;" d="M 824.699, 268.785 L 845.04, 240.272 L 845.948, 239.001 L 851.396, 241.18 L 846.493, 247.9 L 850.488, 249.535 L 834.506, 272.054 L 834.143, 272.599 L 830.692, 271.873 L 827.605, 270.602 L 826.334, 269.33 L 824.699, 268.785 z "/>
<path style="fill:rgb(255, 0, 0);fill-opacity:0;fill-rule:evenodd;stroke:rgb(0, 92, 255);stroke-width:1;" d="M 433.326, 550.284 L 449.489, 528.309 L 460.749, 533.031 L 444.767, 555.187 L 433.326, 550.284 z "/>
<path style="fill:rgb(0, 255, 0);fill-opacity:0;fill-rule:evenodd;stroke:rgb(0, 92, 255);stroke-width:1;" d="M 794.37, 256.254 L 813.802, 228.831 L 815.437, 226.47 L 820.159, 228.286 L 815.437, 235.006 L 820.341, 237.003 L 803.814, 260.25 L 800.182, 259.16 L 796.913, 257.889 L 794.37, 256.254 z "/>
<path style="fill:rgb(0, 0, 255);fill-opacity:0;fill-rule:evenodd;stroke:rgb(0, 92, 255);stroke-width:1;" d="M 945.289, 397.548 L 948.922, 392.281 L 945.289, 390.647 L 962.906, 366.493 L 971.986, 370.306 L 950.556, 399.728 L 945.289, 397.548 z "/>
<path style="fill:rgb(255, 255, 0);fill-opacity:0;fill-rule:evenodd;stroke:rgb(0, 92, 255);stroke-width:1;" d="M 877.73, 439.501 L 899.342, 410.079 L 904.972, 412.44 L 900.795, 417.889 L 904.245, 419.342 L 886.81, 443.314 L 877.73, 439.501 z "/>
<path style="fill:rgb(255, 0, 0);fill-opacity:0;fill-rule:evenodd;stroke:rgb(0, 92, 255);stroke-width:1;" d="M 454.03, 778.751 L 471.283, 755.142 L 480.726, 758.956 L 459.478, 788.014 L 454.574, 785.834 L 458.388, 780.568 L 454.03, 778.751 z "/>
<path style="fill:rgb(0, 255, 0);fill-opacity:0;fill-rule:evenodd;stroke:rgb(0, 92, 255);stroke-width:1;" d="M 299.296, 124.222 L 302.565, 119.682 L 318.547, 97.7072 L 327.991, 101.703 L 308.74, 128.218 L 299.296, 124.222 z "/>
<path style="fill:rgb(0, 0, 255);fill-opacity:0;fill-rule:evenodd;stroke:rgb(0, 92, 255);stroke-width:1;" d="M 69.1941, 169.807 L 70.2838, 167.991 L 86.2656, 146.198 L 95.7094, 150.011 L 78.6379, 173.621 L 74.4608, 179.432 L 69.9205, 177.616 L 74.0976, 171.805 L 69.1941, 169.807 z "/>
<path style="fill:rgb(255, 255, 0);fill-opacity:0;fill-rule:evenodd;stroke:rgb(0, 92, 255);stroke-width:1;" d="M 278.411, 184.881 L 294.938, 162.179 L 298.207, 157.639 L 307.287, 161.453 L 304.018, 166.175 L 287.491, 188.695 L 278.411, 184.881 z "/>
<path style="fill:rgb(255, 0, 0);fill-opacity:0;fill-rule:evenodd;stroke:rgb(0, 92, 255);stroke-width:1;" d="M 773.303, 395.369 L 789.285, 373.394 L 794.188, 375.573 L 798.002, 370.306 L 803.087, 372.486 L 783.292, 399.546 L 773.303, 395.369 z "/>
<path style="fill:rgb(0, 255, 0);fill-opacity:0;fill-rule:evenodd;stroke:rgb(0, 92, 255);stroke-width:1;" d="M 877.548, 368.309 L 898.434, 339.432 L 908.241, 343.61 L 891.532, 366.493 L 885.721, 364.132 L 881.362, 369.943 L 877.548, 368.309 z "/>
<path style="fill:rgb(0, 0, 255);fill-opacity:0;fill-rule:evenodd;stroke:rgb(0, 92, 255);stroke-width:1;" d="M 903.337, 300.386 L 923.496, 271.873 L 929.489, 274.415 L 925.312, 280.227 L 928.944, 281.68 L 912.963, 304.2 L 903.337, 300.386 z "/>
<path style="fill:rgb(255, 255, 0);fill-opacity:0;fill-rule:evenodd;stroke:rgb(0, 92, 255);stroke-width:1;" d="M 468.377, 565.176 L 484.359, 543.019 L 495.619, 547.741 L 479.455, 569.898 L 468.377, 565.176 z "/>
<path style="fill:rgb(255, 0, 0);fill-opacity:0;fill-rule:evenodd;stroke:rgb(0, 92, 255);stroke-width:1;" d="M 168.536, 437.684 L 185.789, 414.257 L 196.322, 418.797 L 179.069, 442.043 L 168.536, 437.684 z "/>
<path style="fill:rgb(0, 255, 0);fill-opacity:0;fill-rule:evenodd;stroke:rgb(0, 92, 255);stroke-width:1;" d="M 158.184, 433.326 L 175.437, 409.898 L 185.789, 414.257 L 168.536, 437.684 L 158.184, 433.326 z "/>
<path style="fill:rgb(0, 0, 255);fill-opacity:0;fill-rule:evenodd;stroke:rgb(0, 92, 255);stroke-width:1;" d="M 763.133, 391.01 L 782.928, 363.95 L 787.106, 365.585 L 783.292, 370.851 L 789.285, 373.394 L 773.303, 395.369 L 763.133, 391.01 z "/>
<path style="fill:rgb(255, 255, 0);fill-opacity:0;fill-rule:evenodd;stroke:rgb(0, 92, 255);stroke-width:1;" d="M 812.713, 483.814 L 830.511, 459.296 L 840.499, 463.655 L 822.701, 487.991 L 812.713, 483.814 z "/>
<path style="fill:rgb(255, 0, 0);fill-opacity:0;fill-rule:evenodd;stroke:rgb(0, 92, 255);stroke-width:1;" d="M 752.599, 458.207 L 770.397, 434.052 L 780.386, 438.229 L 762.588, 462.565 L 752.599, 458.207 z "/>
<path style="fill:rgb(0, 255, 0);fill-opacity:0;fill-rule:evenodd;stroke:rgb(0, 92, 255);stroke-width:1;" d="M 195.414, 150.011 L 211.759, 127.491 L 217.208, 129.852 L 221.93, 123.314 L 226.107, 125.131 L 205.04, 154.007 L 195.414, 150.011 z "/>
<path style="fill:rgb(0, 0, 255);fill-opacity:0;fill-rule:evenodd;stroke:rgb(0, 92, 255);stroke-width:1;" d="M 364.132, 72.0999 L 380.114, 50.4881 L 386.288, 41.9523 L 391.01, 44.1317 L 384.654, 52.4858 L 389.194, 54.4835 L 373.394, 76.0953 L 364.132, 72.0999 z "/>
<path style="fill:rgb(255, 255, 0);fill-opacity:0;fill-rule:evenodd;stroke:rgb(0, 92, 255);stroke-width:1;" d="M 138.57, 198.865 L 155.641, 175.074 L 165.812, 179.432 L 148.74, 203.042 L 138.57, 198.865 z "/>
<path style="fill:rgb(255, 0, 0);fill-opacity:0;fill-rule:evenodd;stroke:rgb(0, 92, 255);stroke-width:1;" d="M 383.019, 80.2724 L 401.907, 54.6652 L 406.447, 56.6629 L 403.541, 60.6583 L 408.627, 62.8377 L 392.645, 84.2679 L 391.737, 85.5392 L 384.835, 82.6334 L 385.743, 81.3621 L 383.019, 80.2724 z "/>
<path style="fill:rgb(0, 255, 0);fill-opacity:0;fill-rule:evenodd;stroke:rgb(0, 92, 255);stroke-width:1;" d="M 118.411, 189.784 L 135.119, 166.538 L 145.471, 170.897 L 128.581, 194.143 L 118.411, 189.784 z "/>
<path style="fill:rgb(0, 0, 255);fill-opacity:0;fill-rule:evenodd;stroke:rgb(0, 92, 255);stroke-width:1;" d="M 822.157, 416.073 L 844.495, 385.38 L 849.762, 387.56 L 846.129, 392.463 L 848.127, 395.551 L 830.511, 419.523 L 822.157, 416.073 z "/>
<path style="fill:rgb(255, 255, 0);fill-opacity:0;fill-rule:evenodd;stroke:rgb(0, 92, 255);stroke-width:1;" d="M 783.292, 471.283 L 801.09, 446.947 L 810.715, 450.942 L 792.917, 475.278 L 783.292, 471.283 z "/>
<path style="fill:rgb(255, 0, 0);fill-opacity:0;fill-rule:evenodd;stroke:rgb(0, 92, 255);stroke-width:1;" d="M 167.991, 214.302 L 185.426, 190.329 L 195.051, 194.506 L 177.798, 218.479 L 167.991, 214.302 z "/>
<path style="fill:rgb(0, 255, 0);fill-opacity:0;fill-rule:evenodd;stroke:rgb(0, 92, 255);stroke-width:1;" d="M 950.556, 399.728 L 971.986, 370.306 L 980.885, 373.939 L 963.269, 398.275 L 958.547, 396.277 L 954.733, 401.544 L 950.556, 399.728 z "/>
<path style="fill:rgb(0, 0, 255);fill-opacity:0;fill-rule:evenodd;stroke:rgb(0, 92, 255);stroke-width:1;" d="M 325.812, 55.7548 L 341.793, 34.3246 L 352.509, 38.8649 L 336.527, 60.2951 L 325.812, 55.7548 z "/>
<path style="fill:rgb(255, 255, 0);fill-opacity:0;fill-rule:evenodd;stroke:rgb(0, 92, 255);stroke-width:1;" d="M 912.963, 377.026 L 929.489, 354.325 L 939.659, 358.683 L 923.133, 381.385 L 912.963, 377.026 z "/>
<path style="fill:rgb(255, 0, 0);fill-opacity:0;fill-rule:evenodd;stroke:rgb(0, 92, 255);stroke-width:1;" d="M 262.066, 102.611 L 278.048, 80.6356 L 288.581, 85.1759 L 272.599, 106.969 L 262.066, 102.611 z "/>
<path style="fill:rgb(0, 255, 0);fill-opacity:0;fill-rule:evenodd;stroke:rgb(0, 92, 255);stroke-width:1;" d="M 78.6379, 173.621 L 95.7094, 150.011 L 105.516, 154.188 L 88.4449, 177.798 L 78.6379, 173.621 z "/>
<path style="fill:rgb(0, 0, 255);fill-opacity:0;fill-rule:evenodd;stroke:rgb(0, 92, 255);stroke-width:1;" d="M 338.706, 139.659 L 357.23, 114.052 L 366.311, 117.866 L 347.605, 143.473 L 338.706, 139.659 z "/>
<path style="fill:rgb(255, 255, 0);fill-opacity:0;fill-rule:evenodd;stroke:rgb(0, 92, 255);stroke-width:1;" d="M 292.213, 115.323 L 308.014, 93.3485 L 318.547, 97.7072 L 302.565, 119.682 L 292.213, 115.323 z "/>
<path style="fill:rgb(255, 0, 0);fill-opacity:0;fill-rule:evenodd;stroke:rgb(0, 92, 255);stroke-width:1;" d="M 190.874, 72.6447 L 191.419, 72.0999 L 200.681, 59.3871 L 207.037, 50.6697 L 217.389, 54.8468 L 210.851, 63.7457 L 201.226, 77.0034 L 190.874, 72.6447 z "/>
<path style="fill:rgb(0, 255, 0);fill-opacity:0;fill-rule:evenodd;stroke:rgb(0, 92, 255);stroke-width:1;" d="M 862.838, 283.678 L 879.001, 261.158 L 889.171, 265.335 L 873.19, 287.855 L 862.838, 283.678 z "/>
<path style="fill:rgb(0, 0, 255);fill-opacity:0;fill-rule:evenodd;stroke:rgb(0, 92, 255);stroke-width:1;" d="M 306.379, 196.686 L 322.724, 173.984 L 332.713, 178.161 L 316.186, 200.863 L 306.379, 196.686 z "/>
<path style="fill:rgb(255, 255, 0);fill-opacity:0;fill-rule:evenodd;stroke:rgb(0, 92, 255);stroke-width:1;" d="M 373.394, 76.0953 L 389.194, 54.4835 L 394.824, 56.8445 L 397.911, 52.849 L 401.907, 54.6652 L 383.019, 80.2724 L 373.394, 76.0953 z "/>
<path style="fill:rgb(255, 0, 0);fill-opacity:0;fill-rule:evenodd;stroke:rgb(0, 92, 255);stroke-width:1;" d="M 71.7367, 249.535 L 88.6266, 226.288 L 98.252, 230.284 L 81.3621, 253.53 L 71.7367, 249.535 z "/>
<path style="fill:rgb(0, 255, 0);fill-opacity:0;fill-rule:evenodd;stroke:rgb(0, 92, 255);stroke-width:1;" d="M 251.896, 98.252 L 267.877, 76.4586 L 278.048, 80.6356 L 262.066, 102.611 L 251.896, 98.252 z "/>
<path style="fill:rgb(0, 0, 255);fill-opacity:0;fill-rule:evenodd;stroke:rgb(0, 92, 255);stroke-width:1;" d="M 98.9784, 182.157 L 116.05, 158.547 L 125.494, 162.543 L 108.422, 186.152 L 98.9784, 182.157 z "/>
<path style="fill:rgb(255, 255, 0);fill-opacity:0;fill-rule:evenodd;stroke:rgb(0, 92, 255);stroke-width:1;" d="M 834.506, 272.054 L 850.488, 249.535 L 860.477, 253.53 L 844.495, 276.05 L 834.506, 272.054 z "/>
<path style="fill:rgb(255, 0, 0);fill-opacity:0;fill-rule:evenodd;stroke:rgb(0, 92, 255);stroke-width:1;" d="M 250.079, 173.076 L 266.606, 150.375 L 276.413, 154.552 L 259.886, 177.072 L 250.079, 173.076 z "/>
<path style="fill:rgb(0, 255, 0);fill-opacity:0;fill-rule:evenodd;stroke:rgb(0, 92, 255);stroke-width:1;" d="M 287.491, 188.695 L 304.018, 166.175 L 313.644, 170.17 L 297.117, 192.872 L 287.491, 188.695 z "/>
<path style="fill:rgb(0, 0, 255);fill-opacity:0;fill-rule:evenodd;stroke:rgb(0, 92, 255);stroke-width:1;" d="M 259.886, 177.072 L 276.413, 154.552 L 286.039, 158.547 L 269.512, 181.067 L 259.886, 177.072 z "/>
<path style="fill:rgb(255, 255, 0);fill-opacity:0;fill-rule:evenodd;stroke:rgb(0, 92, 255);stroke-width:1;" d="M 336.527, 60.2951 L 352.509, 38.8649 L 362.316, 43.042 L 346.334, 64.6538 L 336.527, 60.2951 z "/>
<path style="fill:rgb(255, 0, 0);fill-opacity:0;fill-rule:evenodd;stroke:rgb(0, 92, 255);stroke-width:1;" d="M 185.97, 146.016 L 202.316, 123.496 L 211.759, 127.491 L 195.414, 150.011 L 185.97, 146.016 z "/>
<path style="fill:rgb(0, 255, 0);fill-opacity:0;fill-rule:evenodd;stroke:rgb(0, 92, 255);stroke-width:1;" d="M 411.351, 92.2588 L 427.333, 70.8286 L 436.958, 74.8241 L 420.976, 96.4359 L 411.351, 92.2588 z "/>
<path style="fill:rgb(0, 0, 255);fill-opacity:0;fill-rule:evenodd;stroke:rgb(0, 92, 255);stroke-width:1;" d="M 853.575, 279.864 L 869.557, 257.344 L 879.001, 261.158 L 862.838, 283.678 L 853.575, 279.864 z "/>
<path style="fill:rgb(255, 255, 0);fill-opacity:0;fill-rule:evenodd;stroke:rgb(0, 92, 255);stroke-width:1;" d="M 63.2009, 245.902 L 80.8173, 221.566 L 89.353, 225.199 L 88.6266, 226.288 L 71.7367, 249.535 L 63.2009, 245.902 z "/>
<path style="fill:rgb(255, 0, 0);fill-opacity:0;fill-rule:evenodd;stroke:rgb(0, 92, 255);stroke-width:1;" d="M 844.495, 276.05 L 860.477, 253.53 L 869.557, 257.344 L 853.575, 279.864 L 844.495, 276.05 z "/>
<path style="fill:rgb(0, 255, 0);fill-opacity:0;fill-rule:evenodd;stroke:rgb(0, 92, 255);stroke-width:1;" d="M 269.512, 181.067 L 286.039, 158.547 L 294.938, 162.179 L 278.411, 184.881 L 269.512, 181.067 z "/>
<path style="fill:rgb(0, 0, 255);fill-opacity:0;fill-rule:evenodd;stroke:rgb(0, 92, 255);stroke-width:1;" d="M 392.645, 84.2679 L 408.627, 62.8377 L 417.889, 66.6515 L 401.907, 88.2633 L 392.645, 84.2679 z "/>
<path style="fill:rgb(255, 255, 0);fill-opacity:0;fill-rule:evenodd;stroke:rgb(0, 92, 255);stroke-width:1;" d="M 743.7, 382.838 L 762.77, 356.686 L 767.128, 358.502 L 764.041, 362.86 L 768.036, 364.495 L 752.054, 386.288 L 743.7, 382.838 z "/>
<path style="fill:rgb(255, 0, 0);fill-opacity:0;fill-rule:evenodd;stroke:rgb(0, 92, 255);stroke-width:1;" d="M 815.255, 412.985 L 832.69, 389.012 L 836.867, 388.468 L 840.318, 383.746 L 844.495, 385.38 L 822.157, 416.073 L 815.255, 412.985 z "/>
<path style="fill:rgb(0, 255, 0);fill-opacity:0;fill-rule:evenodd;stroke:rgb(0, 92, 255);stroke-width:1;" d="M 355.051, 68.286 L 371.033, 46.6742 L 380.114, 50.4881 L 364.132, 72.0999 L 355.051, 68.286 z "/>
<path style="fill:rgb(0, 0, 255);fill-opacity:0;fill-rule:evenodd;stroke:rgb(0, 92, 255);stroke-width:1;" d="M 703.927, 437.684 L 713.008, 425.335 L 721.725, 413.348 L 729.716, 416.799 L 711.918, 441.135 L 703.927, 437.684 z "/>
<path style="fill:rgb(255, 255, 0);fill-opacity:0;fill-rule:evenodd;stroke:rgb(0, 92, 255);stroke-width:1;" d="M 420.976, 96.4359 L 436.958, 74.8241 L 445.857, 78.6379 L 434.96, 93.3485 L 430.057, 100.25 L 420.976, 96.4359 z "/>
<path style="fill:rgb(255, 0, 0);fill-opacity:0;fill-rule:evenodd;stroke:rgb(0, 92, 255);stroke-width:1;" d="M 283.314, 111.51 L 299.296, 89.7162 L 308.014, 93.3485 L 292.213, 115.323 L 283.314, 111.51 z "/>
<path style="fill:rgb(0, 255, 0);fill-opacity:0;fill-rule:evenodd;stroke:rgb(0, 92, 255);stroke-width:1;" d="M 346.334, 64.6538 L 362.316, 43.042 L 371.033, 46.6742 L 355.051, 68.286 L 346.334, 64.6538 z "/>
<path style="fill:rgb(0, 0, 255);fill-opacity:0;fill-rule:evenodd;stroke:rgb(0, 92, 255);stroke-width:1;" d="M 433.689, 608.4 L 440.227, 599.137 L 452.032, 604.222 L 445.494, 613.303 L 433.689, 608.4 z "/>
<path style="fill:rgb(255, 255, 0);fill-opacity:0;fill-rule:evenodd;stroke:rgb(0, 92, 255);stroke-width:1;" d="M 58.479, 649.081 L 63.0193, 642.906 L 71.0102, 646.356 L 66.4699, 652.531 L 58.479, 649.081 z "/>
<path style="fill:rgb(255, 0, 0);fill-opacity:0;fill-rule:evenodd;stroke:rgb(0, 92, 255);stroke-width:1;" d="M 0, 519.591 L 1.63451, 517.412 L 15.2554, 498.524 L 57.5709, 516.322 L 62.1112, 509.966 L 69.3757, 513.053 L 70.8286, 511.056 L 76.6402, 513.598 L 78.2747, 511.419 L 152.736, 542.656 L 129.852, 574.075 L 66.6515, 547.378 L 67.378, 546.288 L 56.118, 541.385 L 55.21, 542.656 L 0, 519.591 z "/>
<path style="fill:rgb(0, 255, 0);fill-opacity:0;fill-rule:evenodd;stroke:rgb(0, 92, 255);stroke-width:1;" d="M 24.336, 73.7344 L 79.0011, 0 L 128.581, 21.2486 L 110.602, 45.5846 L 96.4359, 64.6538 L 84.6311, 59.5687 L 72.2815, 76.277 L 84.2679, 81.5437 L 74.2792, 95.1646 L 24.336, 73.7344 z "/>
<path style="fill:rgb(0, 0, 255);fill-opacity:0;fill-rule:evenodd;stroke:rgb(0, 92, 255);stroke-width:1;" d="M 23.4279, 232.281 L 42.1339, 206.674 L 45.2213, 207.946 L 54.3019, 195.414 L 76.277, 204.677 L 79.546, 200.136 L 92.622, 205.585 L 80.8173, 221.566 L 63.2009, 245.902 L 54.1203, 242.089 L 52.4858, 244.449 L 23.4279, 232.281 z "/>
<path style="fill:rgb(255, 255, 0);fill-opacity:0;fill-rule:evenodd;stroke:rgb(0, 92, 255);stroke-width:1;" d="M 846.311, 33.0533 L 864.109, 8.71737 L 884.449, 17.2531 L 1070.6, 95.5278 L 1052.8, 119.864 L 972.168, 85.9024 L 973.984, 83.5414 L 954.915, 75.3689 L 952.372, 78.8195 L 948.922, 77.3666 L 951.464, 73.916 L 928.944, 64.4722 L 927.128, 67.0148 L 846.311, 33.0533 z "/>
<path style="fill:rgb(255, 0, 0);fill-opacity:0;fill-rule:evenodd;stroke:rgb(0, 92, 255);stroke-width:1;" d="M 134.938, 62.6561 L 142.928, 51.7594 L 156.549, 57.3893 L 165.812, 44.8581 L 152.191, 39.0465 L 161.635, 26.1521 L 209.943, 46.4926 L 207.037, 50.6697 L 200.681, 59.3871 L 186.152, 53.3939 L 176.89, 65.9251 L 191.419, 72.0999 L 190.874, 72.6447 L 183.428, 82.9966 L 134.938, 62.6561 z "/>
<path style="fill:rgb(0, 255, 0);fill-opacity:0;fill-rule:evenodd;stroke:rgb(0, 92, 255);stroke-width:1;" d="M 448.763, 42.6788 L 455.664, 33.4166 L 462.02, 36.1407 L 466.016, 35.2327 L 475.278, 22.7015 L 465.471, 18.5244 L 472.736, 8.89898 L 473.462, 7.80931 L 516.686, 26.3337 L 508.695, 37.0488 L 498.524, 32.5085 L 487.991, 46.6742 L 498.161, 51.0329 L 490.897, 60.84 L 448.763, 42.6788 z "/>
<path style="fill:rgb(0, 0, 255);fill-opacity:0;fill-rule:evenodd;stroke:rgb(0, 92, 255);stroke-width:1;" d="M 490.533, 64.8354 L 499.614, 52.849 L 498.706, 50.4881 L 505.607, 41.0443 L 508.695, 42.3156 L 510.874, 39.4098 L 507.787, 38.1385 L 508.695, 37.0488 L 516.686, 26.3337 L 531.578, 32.6901 L 523.95, 42.8604 L 522.679, 44.4949 L 519.228, 43.042 L 517.049, 45.9478 L 520.499, 47.4007 L 513.598, 56.8445 L 510.148, 57.3893 L 501.067, 69.5573 L 490.533, 64.8354 z "/>
<path style="fill:rgb(255, 255, 0);fill-opacity:0;fill-rule:evenodd;stroke:rgb(0, 92, 255);stroke-width:1;" d="M 297.299, 43.9501 L 312.554, 22.3383 L 327.628, 28.5131 L 312.372, 50.1249 L 297.299, 43.9501 z "/>
<path style="fill:rgb(255, 0, 0);fill-opacity:0;fill-rule:evenodd;stroke:rgb(0, 92, 255);stroke-width:1;" d="M 314.37, 51.0329 L 330.352, 29.4211 L 341.793, 34.3246 L 325.812, 55.7548 L 314.37, 51.0329 z "/>
</svg>