<?xml version="1.0" encoding="iso-8859-1" standalone="no"?>
<!DOCTYPE svg PUBLIC "-//W3C//DTD SVG 1.0//EN" "http://www.w3.org/TR/2001/REC-SVG-20010904/DTD/svg10.dtd">
<svg xmlns="http://www.w3.org/2000/svg" width="1195" height="800">
<path style="fill:rgb(255, 0, 0);fill-opacity:0;fill-rule:evenodd;stroke:rgb(254, 255, 0);stroke-width:1;" d="M 805.386, 526.473 L 824.429, 500.12 L 825.006, 499.351 L 939.264, 342.582 L 939.841, 341.813 L 959.269, 315.076 L 987.545, 327.002 L 988.507, 327.386 L 1022.94, 341.813 L 1026.02, 337.966 L 1056.98, 350.854 L 1054.29, 354.893 L 1119.5, 382.4 L 1120.46, 382.784 L 1117.96, 386.247 L 1138.74, 394.903 L 1121.81, 417.985 L 1105.84, 439.913 L 1092.76, 434.335 L 1002.55, 557.826 L 993.123, 570.714 L 984.66, 567.252 L 983.506, 568.983 L 965.424, 593.604 L 964.463, 593.22 L 833.47, 538.206 L 832.508, 538.014 L 805.386, 526.473 z "/>
<path style="fill:rgb(0, 255, 0);fill-opacity:0;fill-rule:evenodd;stroke:rgb(254, 255, 0);stroke-width:1;" d="M 840.394, 506.853 L 841.164, 506.083 L 956.191, 349.699 L 956.768, 348.93 L 958.5, 349.699 L 952.729, 357.201 L 963.501, 361.818 L 969.271, 354.124 L 968.117, 353.739 L 969.656, 351.623 L 970.618, 352.008 L 1101.61, 407.021 L 1102.57, 407.406 L 1100.84, 409.137 L 1097.96, 407.983 L 1088.34, 421.063 L 1099.11, 425.487 L 1092.76, 434.335 L 1002.55, 557.826 L 991.969, 553.402 L 982.544, 566.29 L 984.66, 567.252 L 983.506, 568.983 L 982.544, 568.598 L 851.551, 513.777 L 850.589, 513.2 L 851.936, 511.661 L 852.705, 512.046 L 858.668, 503.967 L 847.896, 499.351 L 841.933, 507.43 L 840.394, 506.853 z "/>
<path style="fill:rgb(0, 0, 255);fill-opacity:0;fill-rule:evenodd;stroke:rgb(254, 255, 0);stroke-width:1;" d="M 981.39, 289.108 L 1046.6, 199.663 L 1069.49, 209.089 L 1117, 229.094 L 1136.81, 237.365 L 1132, 243.712 L 1127.39, 250.06 L 1125.08, 253.33 L 1083.34, 310.652 L 1081.41, 313.152 L 1076.8, 319.5 L 1071.6, 326.809 L 1037.75, 312.575 L 1004.66, 298.726 L 981.39, 289.108 z "/>
<path style="fill:rgb(255, 255, 0);fill-opacity:0;fill-rule:evenodd;stroke:rgb(254, 255, 0);stroke-width:1;" d="M 451.455, 415.292 L 471.075, 388.747 L 486.848, 393.364 L 503.39, 398.75 L 747.295, 498.966 L 732.099, 519.74 L 703.054, 514.739 L 687.858, 511.661 L 677.471, 508.969 L 662.275, 504.544 L 451.455, 415.292 z "/>
<path style="fill:rgb(255, 0, 0);fill-opacity:0;fill-rule:evenodd;stroke:rgb(254, 255, 0);stroke-width:1;" d="M 128.492, 478.192 L 153.691, 443.761 L 196.586, 461.649 L 227.555, 474.73 L 336.042, 520.125 L 303.535, 564.559 L 277.567, 553.787 L 276.605, 555.133 L 236.595, 538.399 L 195.432, 521.279 L 180.236, 514.931 L 188.699, 503.39 L 145.227, 485.309 L 128.492, 478.192 z "/>
<path style="fill:rgb(0, 255, 0);fill-opacity:0;fill-rule:evenodd;stroke:rgb(254, 255, 0);stroke-width:1;" d="M 988.122, 692.667 L 1004.09, 670.546 L 1016.98, 652.465 L 1089.88, 682.664 L 1090.65, 681.51 L 1089.3, 680.933 L 1091.99, 677.086 L 1103.53, 681.895 L 1099.3, 687.473 L 1195.48, 727.483 L 1171.05, 761.337 L 1161.63, 774.417 L 1155.09, 765.569 L 1158.16, 761.337 L 1145.28, 744.602 L 1048.52, 704.4 L 1045.25, 709.017 L 1038.33, 706.131 L 1036.79, 708.055 L 1030.25, 705.362 L 1027.55, 709.017 L 988.122, 692.667 z "/>
<path style="fill:rgb(0, 0, 255);fill-opacity:0;fill-rule:evenodd;stroke:rgb(254, 255, 0);stroke-width:1;" d="M 821.736, 43.472 L 853.282, 0 L 989.853, 56.9368 L 958.5, 100.601 L 821.736, 43.472 z "/>
<path style="fill:rgb(255, 255, 0);fill-opacity:0;fill-rule:evenodd;stroke:rgb(254, 255, 0);stroke-width:1;" d="M 508.776, 615.725 L 522.049, 597.067 L 617.071, 636.884 L 637.653, 645.54 L 621.111, 669.199 L 604.953, 692.282 L 579.947, 727.867 L 538.206, 710.363 L 556.672, 685.165 L 571.868, 664.775 L 536.09, 649.387 L 524.357, 644.386 L 512.046, 639 L 508.776, 615.725 z "/>
<path style="fill:rgb(255, 0, 0);fill-opacity:0;fill-rule:evenodd;stroke:rgb(254, 255, 0);stroke-width:1;" d="M 1011.78, 280.837 L 1053.33, 223.515 L 1125.08, 253.33 L 1083.34, 310.652 L 1011.78, 280.837 z "/>
<path style="fill:rgb(0, 255, 0);fill-opacity:0;fill-rule:evenodd;stroke:rgb(254, 255, 0);stroke-width:1;" d="M 243.712, 600.337 L 276.605, 555.133 L 277.567, 553.787 L 303.535, 564.559 L 318.73, 570.714 L 333.926, 577.254 L 364.126, 589.95 L 361.818, 593.22 L 330.079, 636.692 L 243.712, 600.337 z "/>
<path style="fill:rgb(0, 0, 255);fill-opacity:0;fill-rule:evenodd;stroke:rgb(254, 255, 0);stroke-width:1;" d="M 145.227, 485.309 L 155.999, 470.498 L 182.159, 481.462 L 174.465, 491.849 L 188.699, 497.812 L 195.432, 500.505 L 274.681, 534.552 L 281.414, 537.437 L 296.417, 543.785 L 314.883, 518.971 L 299.88, 512.623 L 293.147, 509.738 L 263.14, 497.043 L 243.712, 488.579 L 223.708, 479.923 L 227.555, 474.73 L 336.042, 520.125 L 303.535, 564.559 L 277.567, 553.787 L 276.605, 555.133 L 236.595, 538.399 L 195.432, 521.279 L 180.236, 514.931 L 188.699, 503.39 L 145.227, 485.309 z "/>
<path style="fill:rgb(255, 255, 0);fill-opacity:0;fill-rule:evenodd;stroke:rgb(254, 255, 0);stroke-width:1;" d="M 836.355, 641.116 L 854.436, 616.494 L 877.519, 626.304 L 896.177, 600.914 L 953.691, 625.343 L 920.991, 669.776 L 914.835, 667.276 L 912.527, 670.546 L 910.026, 669.392 L 908.488, 671.7 L 886.367, 662.275 L 888.29, 659.582 L 858.668, 647.079 L 857.514, 648.617 L 836.355, 641.116 z "/>
<path style="fill:rgb(255, 0, 0);fill-opacity:0;fill-rule:evenodd;stroke:rgb(254, 255, 0);stroke-width:1;" d="M 970.618, 352.008 L 988.507, 327.386 L 1022.94, 341.813 L 1054.29, 354.893 L 1119.5, 382.4 L 1101.61, 407.021 L 970.618, 352.008 z "/>
<path style="fill:rgb(0, 255, 0);fill-opacity:0;fill-rule:evenodd;stroke:rgb(254, 255, 0);stroke-width:1;" d="M 833.47, 538.206 L 851.551, 513.777 L 982.544, 568.598 L 964.463, 593.22 L 833.47, 538.206 z "/>
<path style="fill:rgb(0, 0, 255);fill-opacity:0;fill-rule:evenodd;stroke:rgb(254, 255, 0);stroke-width:1;" d="M 775.956, 292.378 L 792.306, 269.873 L 803.462, 274.489 L 798.076, 281.991 L 879.827, 316.615 L 856.167, 348.93 L 851.743, 347.199 L 850.589, 348.738 L 833.662, 341.621 L 830.969, 345.275 L 826.93, 344.891 L 823.082, 343.929 L 819.428, 342.39 L 816.158, 340.659 L 814.619, 339.505 L 811.926, 337.196 L 814.811, 333.157 L 779.418, 314.499 L 787.112, 304.112 L 783.842, 302.765 L 787.689, 297.379 L 775.956, 292.378 z "/>
<path style="fill:rgb(255, 255, 0);fill-opacity:0;fill-rule:evenodd;stroke:rgb(254, 255, 0);stroke-width:1;" d="M 734.407, 185.622 L 763.453, 145.612 L 768.262, 139.072 L 815.965, 160.038 L 812.503, 164.847 L 825.006, 170.041 L 795.191, 211.205 L 734.407, 185.622 z "/>
<path style="fill:rgb(255, 0, 0);fill-opacity:0;fill-rule:evenodd;stroke:rgb(254, 255, 0);stroke-width:1;" d="M 768.262, 139.072 L 778.841, 124.453 L 801.346, 93.484 L 861.938, 119.067 L 831.546, 161 L 819.043, 155.807 L 815.965, 160.038 L 768.262, 139.072 z "/>
<path style="fill:rgb(0, 255, 0);fill-opacity:0;fill-rule:evenodd;stroke:rgb(254, 255, 0);stroke-width:1;" d="M 825.006, 499.351 L 939.264, 342.582 L 956.191, 349.699 L 841.164, 506.083 L 825.006, 499.351 z "/>
<path style="fill:rgb(0, 0, 255);fill-opacity:0;fill-rule:evenodd;stroke:rgb(254, 255, 0);stroke-width:1;" d="M 195.432, 500.505 L 213.705, 475.691 L 223.708, 479.923 L 243.712, 488.579 L 263.14, 497.043 L 293.147, 509.738 L 274.681, 534.552 L 195.432, 500.505 z "/>
<path style="fill:rgb(255, 255, 0);fill-opacity:0;fill-rule:evenodd;stroke:rgb(254, 255, 0);stroke-width:1;" d="M 795.191, 211.205 L 825.006, 170.041 L 873.094, 190.43 L 843.472, 231.402 L 795.191, 211.205 z "/>
<path style="fill:rgb(255, 0, 0);fill-opacity:0;fill-rule:evenodd;stroke:rgb(254, 255, 0);stroke-width:1;" d="M 162.731, 566.29 L 195.432, 521.279 L 236.595, 538.399 L 203.895, 583.602 L 162.731, 566.29 z "/>
<path style="fill:rgb(0, 255, 0);fill-opacity:0;fill-rule:evenodd;stroke:rgb(254, 255, 0);stroke-width:1;" d="M 829.815, 163.308 L 831.546, 161 L 861.938, 119.067 L 897.908, 134.071 L 877.711, 161.77 L 890.214, 166.963 L 876.942, 185.044 L 850.012, 173.696 L 850.974, 172.349 L 829.815, 163.308 z "/>
<path style="fill:rgb(0, 0, 255);fill-opacity:0;fill-rule:evenodd;stroke:rgb(254, 255, 0);stroke-width:1;" d="M 203.895, 583.602 L 236.595, 538.399 L 276.605, 555.133 L 243.712, 600.337 L 203.895, 583.602 z "/>
<path style="fill:rgb(255, 255, 0);fill-opacity:0;fill-rule:evenodd;stroke:rgb(254, 255, 0);stroke-width:1;" d="M 536.09, 649.387 L 557.634, 620.534 L 612.07, 644.001 L 618.61, 646.694 L 615.34, 650.926 L 597.067, 675.547 L 571.868, 664.775 L 536.09, 649.387 z "/>
<path style="fill:rgb(255, 0, 0);fill-opacity:0;fill-rule:evenodd;stroke:rgb(254, 255, 0);stroke-width:1;" d="M 995.432, 285.646 L 1001.59, 277.182 L 1043.71, 219.091 L 1049.87, 210.628 L 1064.29, 216.783 L 1097.76, 230.632 L 1093.72, 236.018 L 1127.39, 250.06 L 1125.08, 253.33 L 1053.33, 223.515 L 1011.78, 280.837 L 1083.34, 310.652 L 1081.41, 313.152 L 1047.37, 299.11 L 1042.94, 305.458 L 1009.86, 291.609 L 995.432, 285.646 z "/>
<path style="fill:rgb(0, 255, 0);fill-opacity:0;fill-rule:evenodd;stroke:rgb(254, 255, 0);stroke-width:1;" d="M 361.433, 103.294 L 368.742, 93.2917 L 525.703, 159.461 L 518.779, 168.887 L 518.201, 169.656 L 361.433, 103.294 z "/>
<path style="fill:rgb(0, 0, 255);fill-opacity:0;fill-rule:evenodd;stroke:rgb(254, 255, 0);stroke-width:1;" d="M 843.472, 231.402 L 873.094, 190.43 L 876.365, 185.814 L 906.949, 198.702 L 881.943, 233.325 L 873.864, 244.289 L 843.472, 231.402 z "/>
<path style="fill:rgb(255, 255, 0);fill-opacity:0;fill-rule:evenodd;stroke:rgb(254, 255, 0);stroke-width:1;" d="M 139.841, 653.234 L 172.926, 607.838 L 203.126, 620.534 L 171.964, 663.621 L 170.041, 665.929 L 139.841, 653.234 z "/>
<path style="fill:rgb(255, 0, 0);fill-opacity:0;fill-rule:evenodd;stroke:rgb(254, 255, 0);stroke-width:1;" d="M 333.926, 577.254 L 366.05, 533.205 L 396.249, 545.9 L 364.126, 589.95 L 333.926, 577.254 z "/>
<path style="fill:rgb(0, 255, 0);fill-opacity:0;fill-rule:evenodd;stroke:rgb(254, 255, 0);stroke-width:1;" d="M 508.776, 615.725 L 522.049, 597.067 L 617.071, 636.884 L 612.07, 644.001 L 557.634, 620.534 L 545.9, 615.533 L 524.357, 644.386 L 512.046, 639 L 508.776, 615.725 z "/>
<path style="fill:rgb(0, 0, 255);fill-opacity:0;fill-rule:evenodd;stroke:rgb(254, 255, 0);stroke-width:1;" d="M 388.747, 596.297 L 416.062, 559.75 L 450.108, 574.561 L 422.794, 611.108 L 416.639, 608.415 L 388.747, 596.297 z "/>
<path style="fill:rgb(255, 255, 0);fill-opacity:0;fill-rule:evenodd;stroke:rgb(254, 255, 0);stroke-width:1;" d="M 421.255, 675.162 L 452.224, 632.652 L 481.847, 645.155 L 450.878, 687.665 L 421.255, 675.162 z "/>
<path style="fill:rgb(255, 0, 0);fill-opacity:0;fill-rule:evenodd;stroke:rgb(254, 255, 0);stroke-width:1;" d="M 374.513, 655.542 L 405.097, 615.533 L 435.682, 628.42 L 406.059, 668.815 L 374.513, 655.542 z "/>
<path style="fill:rgb(0, 255, 0);fill-opacity:0;fill-rule:evenodd;stroke:rgb(254, 255, 0);stroke-width:1;" d="M 402.404, 755.951 L 410.483, 744.602 L 412.984, 745.564 L 416.639, 740.563 L 414.138, 739.409 L 431.258, 715.749 L 461.842, 728.637 L 461.457, 728.829 L 444.722, 752.104 L 441.452, 750.757 L 437.028, 756.913 L 440.491, 758.259 L 433.181, 768.262 L 418.947, 762.106 L 426.449, 751.912 L 428.565, 752.681 L 432.604, 747.103 L 426.641, 744.602 L 422.409, 750.565 L 424.14, 751.142 L 416.254, 761.722 L 402.404, 755.951 z "/>
<path style="fill:rgb(0, 0, 255);fill-opacity:0;fill-rule:evenodd;stroke:rgb(254, 255, 0);stroke-width:1;" d="M 706.516, 173.888 L 735.369, 133.878 L 763.453, 145.612 L 734.407, 185.622 L 706.516, 173.888 z "/>
<path style="fill:rgb(255, 255, 0);fill-opacity:0;fill-rule:evenodd;stroke:rgb(254, 255, 0);stroke-width:1;" d="M 538.206, 710.363 L 556.672, 685.165 L 591.488, 700.168 L 599.182, 689.974 L 604.953, 692.282 L 579.947, 727.867 L 538.206, 710.363 z "/>
<path style="fill:rgb(255, 0, 0);fill-opacity:0;fill-rule:evenodd;stroke:rgb(254, 255, 0);stroke-width:1;" d="M 128.492, 478.192 L 153.691, 443.761 L 196.586, 461.649 L 192.739, 466.843 L 182.159, 481.462 L 155.999, 470.498 L 145.227, 485.309 L 128.492, 478.192 z "/>
<path style="fill:rgb(0, 255, 0);fill-opacity:0;fill-rule:evenodd;stroke:rgb(254, 255, 0);stroke-width:1;" d="M 556.672, 685.165 L 571.868, 664.775 L 597.067, 675.547 L 615.34, 650.926 L 625.15, 655.157 L 616.11, 667.276 L 599.182, 689.974 L 591.488, 700.168 L 556.672, 685.165 z "/>
<path style="fill:rgb(0, 0, 255);fill-opacity:0;fill-rule:evenodd;stroke:rgb(254, 255, 0);stroke-width:1;" d="M 902.332, 227.939 L 922.914, 199.856 L 948.882, 211.012 L 936.379, 228.132 L 930.801, 230.632 L 924.453, 239.288 L 919.644, 240.058 L 903.102, 232.941 L 902.332, 227.939 z "/>
<path style="fill:rgb(255, 255, 0);fill-opacity:0;fill-rule:evenodd;stroke:rgb(254, 255, 0);stroke-width:1;" d="M 1092.76, 434.335 L 1099.11, 425.487 L 1108.73, 412.407 L 1100.84, 409.137 L 1102.57, 407.406 L 1117.96, 386.247 L 1138.74, 394.903 L 1121.81, 417.985 L 1105.84, 439.913 L 1092.76, 434.335 z "/>
<path style="fill:rgb(255, 0, 0);fill-opacity:0;fill-rule:evenodd;stroke:rgb(254, 255, 0);stroke-width:1;" d="M 939.841, 341.813 L 959.269, 315.076 L 987.545, 327.002 L 969.656, 351.623 L 968.117, 353.739 L 958.5, 349.699 L 956.768, 348.93 L 939.841, 341.813 z "/>
<path style="fill:rgb(0, 255, 0);fill-opacity:0;fill-rule:evenodd;stroke:rgb(254, 255, 0);stroke-width:1;" d="M 184.66, 672.085 L 186.391, 669.776 L 217.552, 626.497 L 233.518, 633.229 L 211.589, 663.429 L 211.974, 663.429 L 200.818, 678.817 L 184.66, 672.085 z "/>
<path style="fill:rgb(0, 0, 255);fill-opacity:0;fill-rule:evenodd;stroke:rgb(254, 255, 0);stroke-width:1;" d="M 805.386, 526.473 L 824.429, 500.12 L 840.394, 506.853 L 841.933, 507.43 L 851.936, 511.661 L 850.589, 513.2 L 832.508, 538.014 L 805.386, 526.473 z "/>
<path style="fill:rgb(255, 255, 0);fill-opacity:0;fill-rule:evenodd;stroke:rgb(254, 255, 0);stroke-width:1;" d="M 657.658, 88.8675 L 659.005, 83.674 L 662.082, 78.8651 L 666.506, 75.018 L 669.969, 72.7098 L 672.662, 72.5174 L 679.009, 72.9021 L 688.435, 74.8257 L 693.436, 76.7492 L 693.628, 81.3657 L 693.051, 86.3669 L 691.897, 90.4063 L 690.166, 94.2534 L 688.242, 97.5234 L 686.511, 99.8317 L 683.434, 103.294 L 680.548, 105.987 L 672.854, 105.602 L 667.276, 102.717 L 659.389, 97.5234 L 657.658, 94.6381 L 657.658, 88.8675 z "/>
<path style="fill:rgb(255, 0, 0);fill-opacity:0;fill-rule:evenodd;stroke:rgb(254, 255, 0);stroke-width:1;" d="M 215.629, 685.165 L 226.785, 669.776 L 248.714, 639.577 L 264.102, 646.117 L 231.017, 691.897 L 219.668, 686.896 L 215.629, 685.165 z "/>
<path style="fill:rgb(0, 255, 0);fill-opacity:0;fill-rule:evenodd;stroke:rgb(254, 255, 0);stroke-width:1;" d="M 344.891, 643.039 L 376.629, 599.567 L 377.398, 598.605 L 393.171, 605.338 L 390.286, 609.185 L 360.664, 649.772 L 344.891, 643.039 z "/>
<path style="fill:rgb(0, 0, 255);fill-opacity:0;fill-rule:evenodd;stroke:rgb(254, 255, 0);stroke-width:1;" d="M 406.059, 668.815 L 435.682, 628.42 L 439.336, 623.227 L 454.532, 629.574 L 452.224, 632.652 L 421.255, 675.162 L 406.059, 668.815 z "/>
<path style="fill:rgb(255, 255, 0);fill-opacity:0;fill-rule:evenodd;stroke:rgb(254, 255, 0);stroke-width:1;" d="M 1017.17, 21.1589 L 1025.25, 10.0024 L 1085.45, 35.0084 L 1077.37, 46.1649 L 1046.79, 33.4696 L 1017.17, 21.1589 z "/>
<path style="fill:rgb(255, 0, 0);fill-opacity:0;fill-rule:evenodd;stroke:rgb(254, 255, 0);stroke-width:1;" d="M 303.535, 564.559 L 336.042, 520.125 L 350.854, 526.665 L 318.73, 570.714 L 303.535, 564.559 z "/>
<path style="fill:rgb(0, 255, 0);fill-opacity:0;fill-rule:evenodd;stroke:rgb(254, 255, 0);stroke-width:1;" d="M 125.415, 647.079 L 158.307, 601.683 L 172.926, 607.838 L 139.841, 653.234 L 125.415, 647.079 z "/>
<path style="fill:rgb(0, 0, 255);fill-opacity:0;fill-rule:evenodd;stroke:rgb(254, 255, 0);stroke-width:1;" d="M 330.079, 636.692 L 361.818, 593.22 L 376.629, 599.567 L 344.891, 643.039 L 330.079, 636.692 z "/>
<path style="fill:rgb(255, 255, 0);fill-opacity:0;fill-rule:evenodd;stroke:rgb(254, 255, 0);stroke-width:1;" d="M 171.964, 663.621 L 203.126, 620.534 L 217.552, 626.497 L 186.391, 669.776 L 171.964, 663.621 z "/>
<path style="fill:rgb(255, 0, 0);fill-opacity:0;fill-rule:evenodd;stroke:rgb(254, 255, 0);stroke-width:1;" d="M 735.369, 133.878 L 750.757, 112.719 L 778.841, 124.453 L 768.262, 139.072 L 763.453, 145.612 L 735.369, 133.878 z "/>
<path style="fill:rgb(0, 255, 0);fill-opacity:0;fill-rule:evenodd;stroke:rgb(254, 255, 0);stroke-width:1;" d="M 360.664, 649.772 L 390.286, 609.185 L 405.097, 615.533 L 374.513, 655.542 L 360.664, 649.772 z "/>
<path style="fill:rgb(0, 0, 255);fill-opacity:0;fill-rule:evenodd;stroke:rgb(254, 255, 0);stroke-width:1;" d="M 1064.29, 216.783 L 1069.49, 209.089 L 1117, 229.094 L 1112.38, 235.634 L 1132, 243.712 L 1127.39, 250.06 L 1093.72, 236.018 L 1097.76, 230.632 L 1064.29, 216.783 z "/>
<path style="fill:rgb(255, 255, 0);fill-opacity:0;fill-rule:evenodd;stroke:rgb(254, 255, 0);stroke-width:1;" d="M 1120.65, 94.6381 L 1128.93, 83.4816 L 1143.16, 89.4446 L 1143.93, 91.5605 L 1164.51, 100.024 L 1167.97, 99.8317 L 1182.21, 105.795 L 1181.25, 107.141 L 1180.09, 106.756 L 1172.97, 116.566 L 1162.78, 112.335 L 1159.51, 109.642 L 1137.39, 99.6393 L 1134.7, 100.601 L 1120.65, 94.6381 z "/>
<path style="fill:rgb(255, 0, 0);fill-opacity:0;fill-rule:evenodd;stroke:rgb(254, 255, 0);stroke-width:1;" d="M 992.739, 273.527 L 1035.06, 215.629 L 1043.71, 219.091 L 1001.59, 277.182 L 992.739, 273.527 z "/>
<path style="fill:rgb(0, 255, 0);fill-opacity:0;fill-rule:evenodd;stroke:rgb(254, 255, 0);stroke-width:1;" d="M 873.864, 244.289 L 881.943, 233.325 L 927.531, 252.368 L 919.644, 263.333 L 873.864, 244.289 z "/>
<path style="fill:rgb(0, 0, 255);fill-opacity:0;fill-rule:evenodd;stroke:rgb(254, 255, 0);stroke-width:1;" d="M 1112.77, 105.795 L 1120.65, 94.6381 L 1134.7, 100.601 L 1135.27, 102.332 L 1145.08, 106.756 L 1144.31, 107.718 L 1150.66, 110.604 L 1151.82, 109.065 L 1157.78, 111.758 L 1162.78, 112.335 L 1172.97, 116.566 L 1164.9, 127.723 L 1152.97, 122.722 L 1152.39, 120.991 L 1146.81, 118.49 L 1147.97, 116.759 L 1139.7, 113.296 L 1138.35, 115.412 L 1128.93, 111.565 L 1125.66, 111.181 L 1112.77, 105.795 z "/>
<path style="fill:rgb(255, 255, 0);fill-opacity:0;fill-rule:evenodd;stroke:rgb(254, 255, 0);stroke-width:1;" d="M 211.589, 663.429 L 233.518, 633.229 L 248.714, 639.577 L 226.785, 669.776 L 211.974, 663.429 L 211.589, 663.429 z "/>
<path style="fill:rgb(255, 0, 0);fill-opacity:0;fill-rule:evenodd;stroke:rgb(254, 255, 0);stroke-width:1;" d="M 530.32, 721.135 L 538.206, 710.363 L 579.947, 727.867 L 572.061, 738.639 L 530.32, 721.135 z "/>
<path style="fill:rgb(0, 255, 0);fill-opacity:0;fill-rule:evenodd;stroke:rgb(254, 255, 0);stroke-width:1;" d="M 281.414, 537.437 L 299.88, 512.623 L 314.883, 518.971 L 296.417, 543.785 L 281.414, 537.437 z "/>
<path style="fill:rgb(0, 0, 255);fill-opacity:0;fill-rule:evenodd;stroke:rgb(254, 255, 0);stroke-width:1;" d="M 1038.13, 45.3955 L 1046.79, 33.4696 L 1077.37, 46.1649 L 1068.72, 58.0909 L 1038.13, 45.3955 z "/>
<path style="fill:rgb(255, 255, 0);fill-opacity:0;fill-rule:evenodd;stroke:rgb(254, 255, 0);stroke-width:1;" d="M 799.808, 257.37 L 803.847, 251.599 L 854.821, 272.758 L 854.629, 272.95 L 850.397, 278.913 L 849.435, 278.528 L 848.858, 279.298 L 845.011, 277.759 L 844.626, 278.336 L 829.045, 271.796 L 829.623, 271.027 L 801.154, 259.293 L 801.924, 258.139 L 799.808, 257.37 z "/>
<path style="fill:rgb(255, 0, 0);fill-opacity:0;fill-rule:evenodd;stroke:rgb(254, 255, 0);stroke-width:1;" d="M 174.465, 491.849 L 182.159, 481.462 L 192.739, 466.843 L 206.973, 472.806 L 188.699, 497.812 L 174.465, 491.849 z "/>
<path style="fill:rgb(0, 255, 0);fill-opacity:0;fill-rule:evenodd;stroke:rgb(254, 255, 0);stroke-width:1;" d="M 1008.7, 33.0849 L 1017.17, 21.1589 L 1046.79, 33.4696 L 1038.13, 45.3955 L 1008.7, 33.0849 z "/>
<path style="fill:rgb(0, 0, 255);fill-opacity:0;fill-rule:evenodd;stroke:rgb(254, 255, 0);stroke-width:1;" d="M 524.357, 644.386 L 545.9, 615.533 L 557.634, 620.534 L 536.09, 649.387 L 524.357, 644.386 z "/>
<path style="fill:rgb(255, 255, 0);fill-opacity:0;fill-rule:evenodd;stroke:rgb(254, 255, 0);stroke-width:1;" d="M 230.632, 505.891 L 243.712, 488.579 L 263.14, 497.043 L 250.252, 514.354 L 230.632, 505.891 z "/>
<path style="fill:rgb(255, 0, 0);fill-opacity:0;fill-rule:evenodd;stroke:rgb(254, 255, 0);stroke-width:1;" d="M 1042.75, 266.41 L 1054.68, 249.868 L 1070.83, 256.6 L 1058.91, 273.143 L 1042.75, 266.41 z "/>
<path style="fill:rgb(0, 255, 0);fill-opacity:0;fill-rule:evenodd;stroke:rgb(254, 255, 0);stroke-width:1;" d="M 612.07, 644.001 L 617.071, 636.884 L 637.653, 645.54 L 621.111, 669.199 L 616.11, 667.276 L 625.15, 655.157 L 615.34, 650.926 L 618.61, 646.694 L 612.07, 644.001 z "/>
<path style="fill:rgb(0, 0, 255);fill-opacity:0;fill-rule:evenodd;stroke:rgb(254, 255, 0);stroke-width:1;" d="M 1035.06, 215.629 L 1046.6, 199.663 L 1069.49, 209.089 L 1064.29, 216.783 L 1049.87, 210.628 L 1043.71, 219.091 L 1035.06, 215.629 z "/>
<path style="fill:rgb(255, 255, 0);fill-opacity:0;fill-rule:evenodd;stroke:rgb(254, 255, 0);stroke-width:1;" d="M 1037.75, 312.575 L 1042.94, 305.458 L 1076.8, 319.5 L 1071.6, 326.809 L 1037.75, 312.575 z "/>
<path style="fill:rgb(255, 0, 0);fill-opacity:0;fill-rule:evenodd;stroke:rgb(254, 255, 0);stroke-width:1;" d="M 981.39, 289.108 L 992.739, 273.527 L 1001.59, 277.182 L 995.432, 285.646 L 1009.86, 291.609 L 1004.66, 298.726 L 981.39, 289.108 z "/>
<path style="fill:rgb(0, 255, 0);fill-opacity:0;fill-rule:evenodd;stroke:rgb(254, 255, 0);stroke-width:1;" d="M 1004.66, 298.726 L 1009.86, 291.609 L 1042.94, 305.458 L 1037.75, 312.575 L 1004.66, 298.726 z "/>
<path style="fill:rgb(0, 0, 255);fill-opacity:0;fill-rule:evenodd;stroke:rgb(254, 255, 0);stroke-width:1;" d="M 991.777, 665.545 L 1004.86, 647.271 L 1016.98, 652.465 L 1004.09, 670.546 L 991.777, 665.545 z "/>
<path style="fill:rgb(255, 255, 0);fill-opacity:0;fill-rule:evenodd;stroke:rgb(254, 255, 0);stroke-width:1;" d="M 1042.94, 305.458 L 1047.37, 299.11 L 1081.41, 313.152 L 1076.8, 319.5 L 1042.94, 305.458 z "/>
<path style="fill:rgb(255, 0, 0);fill-opacity:0;fill-rule:evenodd;stroke:rgb(254, 255, 0);stroke-width:1;" d="M 274.681, 534.552 L 293.147, 509.738 L 299.88, 512.623 L 281.414, 537.437 L 274.681, 534.552 z "/>
<path style="fill:rgb(0, 255, 0);fill-opacity:0;fill-rule:evenodd;stroke:rgb(254, 255, 0);stroke-width:1;" d="M 188.699, 497.812 L 206.973, 472.806 L 213.705, 475.691 L 195.432, 500.505 L 188.699, 497.812 z "/>
<path style="fill:rgb(0, 0, 255);fill-opacity:0;fill-rule:evenodd;stroke:rgb(254, 255, 0);stroke-width:1;" d="M 192.739, 466.843 L 196.586, 461.649 L 227.555, 474.73 L 223.708, 479.923 L 206.973, 472.806 L 192.739, 466.843 z "/>
<path style="fill:rgb(255, 255, 0);fill-opacity:0;fill-rule:evenodd;stroke:rgb(254, 255, 0);stroke-width:1;" d="M 1088.34, 421.063 L 1097.96, 407.983 L 1100.84, 409.137 L 1108.73, 412.407 L 1099.11, 425.487 L 1090.45, 422.025 L 1088.34, 421.063 z "/>
<path style="fill:rgb(255, 0, 0);fill-opacity:0;fill-rule:evenodd;stroke:rgb(254, 255, 0);stroke-width:1;" d="M 982.544, 566.29 L 991.969, 553.402 L 1002.55, 557.826 L 993.123, 570.714 L 984.66, 567.252 L 982.544, 566.29 z "/>
<path style="fill:rgb(0, 255, 0);fill-opacity:0;fill-rule:evenodd;stroke:rgb(254, 255, 0);stroke-width:1;" d="M 1112.38, 235.634 L 1117, 229.094 L 1136.81, 237.365 L 1132, 243.712 L 1112.38, 235.634 z "/>
<path style="fill:rgb(0, 0, 255);fill-opacity:0;fill-rule:evenodd;stroke:rgb(254, 255, 0);stroke-width:1;" d="M 1022.94, 341.813 L 1026.02, 337.966 L 1056.98, 350.854 L 1054.29, 354.893 L 1022.94, 341.813 z "/>
<path style="fill:rgb(255, 255, 0);fill-opacity:0;fill-rule:evenodd;stroke:rgb(254, 255, 0);stroke-width:1;" d="M 599.182, 689.974 L 616.11, 667.276 L 621.111, 669.199 L 604.953, 692.282 L 599.182, 689.974 z "/>
<path style="fill:rgb(255, 0, 0);fill-opacity:0;fill-rule:evenodd;stroke:rgb(254, 255, 0);stroke-width:1;" d="M 841.933, 507.43 L 847.896, 499.351 L 858.668, 503.967 L 852.705, 512.046 L 851.936, 511.661 L 841.933, 507.43 z "/>
<path style="fill:rgb(0, 255, 0);fill-opacity:0;fill-rule:evenodd;stroke:rgb(254, 255, 0);stroke-width:1;" d="M 952.729, 357.201 L 958.5, 349.699 L 968.117, 353.739 L 969.271, 354.124 L 963.501, 361.818 L 952.729, 357.201 z "/>
<path style="fill:rgb(0, 0, 255);fill-opacity:0;fill-rule:evenodd;stroke:rgb(254, 255, 0);stroke-width:1;" d="M 789.228, 733.253 L 797.307, 721.904 L 802.885, 724.213 L 794.614, 735.561 L 789.228, 733.253 z "/>
<path style="fill:rgb(255, 255, 0);fill-opacity:0;fill-rule:evenodd;stroke:rgb(254, 255, 0);stroke-width:1;" d="M 104.448, 511.084 L 128.492, 478.192 L 145.227, 485.309 L 188.699, 503.39 L 180.236, 514.931 L 195.432, 521.279 L 162.731, 566.29 L 120.991, 548.593 L 138.11, 525.319 L 104.448, 511.084 z "/>
<path style="fill:rgb(255, 0, 0);fill-opacity:0;fill-rule:evenodd;stroke:rgb(254, 255, 0);stroke-width:1;" d="M 79.6345, 762.876 L 81.1734, 760.375 L 101.755, 733.061 L 176.773, 765.376 L 175.042, 767.685 L 155.614, 793.845 L 140.803, 787.689 L 139.457, 789.421 L 95.0228, 770.185 L 95.4075, 769.608 L 79.6345, 762.876 z "/>
<path style="fill:rgb(0, 255, 0);fill-opacity:0;fill-rule:evenodd;stroke:rgb(254, 255, 0);stroke-width:1;" d="M 0, 652.657 L 66.7468, 562.058 L 127.146, 587.449 L 93.2917, 633.614 L 109.257, 640.346 L 125.415, 647.079 L 139.841, 653.234 L 170.041, 665.929 L 184.66, 672.085 L 200.818, 678.817 L 215.629, 685.165 L 219.668, 686.896 L 210.628, 699.014 L 269.873, 724.02 L 268.526, 725.751 L 372.205, 769.608 L 349.699, 800 L 0, 652.657 z "/>
<path style="fill:rgb(0, 0, 255);fill-opacity:0;fill-rule:evenodd;stroke:rgb(254, 255, 0);stroke-width:1;" d="M 15.5807, 639.384 L 48.8579, 593.797 L 90.0216, 611.108 L 56.5521, 656.696 L 15.5807, 639.384 z "/>
<path style="fill:rgb(255, 255, 0);fill-opacity:0;fill-rule:evenodd;stroke:rgb(254, 255, 0);stroke-width:1;" d="M 93.2917, 633.614 L 127.146, 587.449 L 143.111, 594.181 L 142.342, 595.143 L 109.257, 640.346 L 93.2917, 633.614 z "/>
<path style="fill:rgb(255, 0, 0);fill-opacity:0;fill-rule:evenodd;stroke:rgb(254, 255, 0);stroke-width:1;" d="M 109.257, 640.346 L 142.342, 595.143 L 158.307, 601.683 L 125.415, 647.079 L 109.257, 640.346 z "/>
</svg>