<?xml version="1.0" encoding="iso-8859-1" standalone="no"?>
<!DOCTYPE svg PUBLIC "-//W3C//DTD SVG 1.0//EN" "http://www.w3.org/TR/2001/REC-SVG-20010904/DTD/svg10.dtd">
<svg xmlns="http://www.w3.org/2000/svg" width="1056" height="800">
<path style="fill:rgb(255, 0, 0);fill-opacity:0;fill-rule:evenodd;stroke:rgb(255, 0, 108);stroke-width:1;" d="M 118.264, 163.208 L 154.571, 113.505 L 164.794, 117.911 L 172.902, 106.808 L 188.764, 113.505 L 186.297, 117.03 L 199.163, 122.67 L 207.975, 110.861 L 210.972, 112.095 L 228.949, 87.5964 L 225.777, 86.3626 L 234.413, 74.5539 L 221.018, 68.9139 L 218.55, 72.2626 L 202.688, 65.5651 L 213.792, 50.5838 L 229.654, 57.2813 L 229.302, 57.8101 L 233.532, 59.7488 L 246.045, 42.8288 L 264.023, 50.4076 L 249.923, 69.4426 L 252.743, 70.5001 L 250.628, 73.6726 L 276.713, 84.6001 L 277.947, 82.8376 L 285.173, 86.0101 L 285.878, 84.9526 L 325.534, 97.2902 L 272.13, 170.258 L 240.934, 157.215 L 243.754, 153.161 L 234.942, 149.46 L 233.179, 144.173 L 207.094, 133.069 L 204.45, 136.77 L 201.63, 135.536 L 187.707, 154.571 L 174.84, 149.108 L 161.093, 168.143 L 157.391, 166.557 L 149.989, 176.603 L 118.264, 163.208 z "/>
<path style="fill:rgb(0, 255, 0);fill-opacity:0;fill-rule:evenodd;stroke:rgb(255, 0, 108);stroke-width:1;" d="M 181.714, 708.35 L 211.853, 667.107 L 276.537, 694.25 L 267.195, 706.94 L 287.112, 715.4 L 288.345, 713.637 L 378.233, 751.531 L 375.942, 754.88 L 423.706, 775.149 L 405.552, 800 L 350.562, 776.735 L 348.799, 779.026 L 181.714, 708.35 z "/>
<path style="fill:rgb(0, 0, 255);fill-opacity:0;fill-rule:evenodd;stroke:rgb(255, 0, 108);stroke-width:1;" d="M 834.016, 403.261 L 852.875, 377.528 L 868.914, 384.402 L 874.554, 376.647 L 898.348, 386.869 L 892.884, 394.448 L 912.624, 402.908 L 918.616, 394.624 L 932.364, 400.441 L 937.299, 393.567 L 1004.63, 421.943 L 1004.45, 422.119 L 999.692, 428.817 L 1009.91, 433.223 L 1000.4, 446.442 L 998.634, 445.737 L 983.477, 466.534 L 965.852, 459.132 L 966.204, 458.427 L 946.993, 450.319 L 945.583, 452.258 L 934.655, 447.499 L 931.13, 446.089 L 932.364, 444.151 L 913.329, 436.043 L 912.8, 436.572 L 834.016, 403.261 z "/>
<path style="fill:rgb(255, 255, 0);fill-opacity:0;fill-rule:evenodd;stroke:rgb(255, 0, 108);stroke-width:1;" d="M 88.1251, 208.857 L 96.4089, 197.577 L 113.858, 204.979 L 124.08, 191.232 L 130.425, 194.052 L 161.093, 207.094 L 159.33, 209.385 L 181.185, 218.727 L 192.465, 203.393 L 210.267, 210.972 L 196.343, 229.654 L 201.102, 231.593 L 199.163, 234.06 L 224.19, 244.812 L 214.497, 258.03 L 191.937, 248.337 L 180.657, 263.494 L 161.974, 255.563 L 167.262, 248.337 L 171.668, 250.275 L 172.549, 249.042 L 137.299, 233.884 L 127.605, 247.103 L 114.563, 241.463 L 126.548, 225.248 L 88.1251, 208.857 z "/>
<path style="fill:rgb(255, 0, 0);fill-opacity:0;fill-rule:evenodd;stroke:rgb(255, 0, 108);stroke-width:1;" d="M 924.785, 288.874 L 951.399, 252.214 L 979.775, 264.023 L 998.105, 238.643 L 1023.31, 249.218 L 1001.28, 279.709 L 999.163, 278.828 L 970.434, 318.484 L 945.054, 307.909 L 950.87, 299.802 L 924.785, 288.874 z "/>
<path style="fill:rgb(0, 255, 0);fill-opacity:0;fill-rule:evenodd;stroke:rgb(255, 0, 108);stroke-width:1;" d="M 271.249, 285.173 L 299.273, 244.283 L 296.453, 243.225 L 304.208, 231.593 L 290.46, 226.129 L 288.522, 229.125 L 273.188, 223.133 L 283.058, 208.68 L 303.15, 216.435 L 314.959, 199.163 L 332.584, 206.037 L 319.542, 225.248 L 322.714, 226.482 L 320.423, 229.83 L 347.037, 240.405 L 338.224, 253.095 L 317.779, 245.164 L 297.51, 274.598 L 316.017, 282 L 295.572, 311.787 L 280.59, 305.794 L 289.755, 292.399 L 271.249, 285.173 z "/>
<path style="fill:rgb(0, 0, 255);fill-opacity:0;fill-rule:evenodd;stroke:rgb(255, 0, 108);stroke-width:1;" d="M 843.005, 693.545 L 848.821, 685.79 L 855.519, 688.61 L 866.975, 672.747 L 860.101, 669.927 L 867.328, 660.057 L 930.601, 686.847 L 902.401, 725.446 L 846.001, 701.476 L 849.879, 696.365 L 843.005, 693.545 z "/>
<path style="fill:rgb(255, 255, 0);fill-opacity:0;fill-rule:evenodd;stroke:rgb(255, 0, 108);stroke-width:1;" d="M 494.382, 396.034 L 512.36, 371.536 L 530.69, 379.291 L 588.323, 403.613 L 590.967, 399.912 L 599.603, 403.613 L 598.017, 405.904 L 600.132, 406.786 L 599.075, 408.196 L 599.78, 408.548 L 581.978, 432.871 L 494.382, 396.034 z "/>
<path style="fill:rgb(255, 0, 0);fill-opacity:0;fill-rule:evenodd;stroke:rgb(255, 0, 108);stroke-width:1;" d="M 937.299, 738.312 L 947.874, 723.86 L 949.813, 724.917 L 954.748, 718.044 L 959.506, 719.982 L 969.377, 724.212 L 970.082, 723.507 L 988.588, 731.262 L 987.707, 732.496 L 991.937, 734.259 L 990.174, 736.55 L 1024.19, 751.002 L 1033.71, 737.784 L 1056.09, 747.125 L 1049.57, 756.114 L 1048.16, 755.409 L 1036.88, 770.919 L 1038.29, 771.447 L 1033, 778.674 L 1020.67, 773.562 L 1021.55, 772.152 L 1007.98, 766.512 L 1006.92, 767.746 L 994.228, 762.282 L 995.109, 761.049 L 977.484, 753.646 L 976.603, 754.88 L 964.97, 749.945 L 965.675, 748.887 L 948.05, 741.485 L 947.169, 742.542 L 937.299, 738.312 z "/>
<path style="fill:rgb(0, 255, 0);fill-opacity:0;fill-rule:evenodd;stroke:rgb(255, 0, 108);stroke-width:1;" d="M 551.663, 92.1789 L 575.633, 59.5726 L 604.891, 72.0864 L 580.745, 104.869 L 605.772, 115.62 L 581.802, 148.05 L 552.897, 135.713 L 577.043, 102.93 L 551.663, 92.1789 z "/>
<path style="fill:rgb(0, 0, 255);fill-opacity:0;fill-rule:evenodd;stroke:rgb(255, 0, 108);stroke-width:1;" d="M 373.298, 336.109 L 397.268, 303.855 L 422.296, 314.43 L 446.266, 282 L 475.347, 294.338 L 451.377, 326.944 L 426.349, 316.193 L 402.556, 348.623 L 373.298, 336.109 z "/>
<path style="fill:rgb(255, 255, 0);fill-opacity:0;fill-rule:evenodd;stroke:rgb(255, 0, 108);stroke-width:1;" d="M 696.717, 336.109 L 720.159, 304.208 L 745.01, 314.783 L 769.332, 282 L 798.59, 294.514 L 774.972, 326.416 L 749.769, 315.664 L 725.622, 348.447 L 696.717, 336.109 z "/>
<path style="fill:rgb(255, 0, 0);fill-opacity:0;fill-rule:evenodd;stroke:rgb(255, 0, 108);stroke-width:1;" d="M 243.754, 535.448 L 274.598, 492.796 L 318.66, 511.126 L 287.64, 553.955 L 243.754, 535.448 z "/>
<path style="fill:rgb(0, 255, 0);fill-opacity:0;fill-rule:evenodd;stroke:rgb(255, 0, 108);stroke-width:1;" d="M 179.599, 345.627 L 187.883, 334.171 L 190.35, 333.818 L 193.347, 329.588 L 192.465, 327.826 L 200.749, 316.369 L 252.39, 338.048 L 244.988, 348.271 L 236.704, 359.727 L 228.949, 370.302 L 221.37, 380.701 L 220.665, 380.348 L 194.757, 369.597 L 205.86, 354.087 L 195.462, 349.681 L 194.052, 351.619 L 179.599, 345.627 z "/>
<path style="fill:rgb(0, 0, 255);fill-opacity:0;fill-rule:evenodd;stroke:rgb(255, 0, 108);stroke-width:1;" d="M 517.118, 222.075 L 538.973, 191.937 L 564.706, 202.688 L 544.966, 230.007 L 570.875, 240.934 L 558.89, 257.325 L 548.843, 270.897 L 522.935, 260.145 L 542.851, 232.827 L 517.118, 222.075 z "/>
<path style="fill:rgb(255, 255, 0);fill-opacity:0;fill-rule:evenodd;stroke:rgb(255, 0, 108);stroke-width:1;" d="M 640.494, 134.303 L 662.172, 103.811 L 687.905, 114.386 L 668.341, 142.058 L 693.897, 152.456 L 672.219, 182.948 L 646.31, 172.373 L 665.874, 144.878 L 640.494, 134.303 z "/>
<path style="fill:rgb(255, 0, 0);fill-opacity:0;fill-rule:evenodd;stroke:rgb(255, 0, 108);stroke-width:1;" d="M 790.835, 471.646 L 813.043, 441.683 L 838.423, 452.434 L 818.506, 479.224 L 844.591, 490.328 L 822.384, 520.467 L 796.827, 509.54 L 816.744, 482.573 L 790.835, 471.646 z "/>
<path style="fill:rgb(0, 255, 0);fill-opacity:0;fill-rule:evenodd;stroke:rgb(255, 0, 108);stroke-width:1;" d="M 825.909, 212.382 L 847.588, 181.89 L 873.32, 192.642 L 853.756, 219.96 L 879.136, 230.535 L 857.986, 260.145 L 832.43, 249.747 L 851.465, 222.957 L 825.909, 212.382 z "/>
<path style="fill:rgb(0, 0, 255);fill-opacity:0;fill-rule:evenodd;stroke:rgb(255, 0, 108);stroke-width:1;" d="M 653.184, 448.733 L 675.391, 418.771 L 700.419, 429.698 L 720.511, 402.732 L 745.891, 413.483 L 723.86, 443.093 L 698.304, 432.166 L 678.035, 459.308 L 653.184, 448.733 z "/>
<path style="fill:rgb(255, 255, 0);fill-opacity:0;fill-rule:evenodd;stroke:rgb(255, 0, 108);stroke-width:1;" d="M 537.916, 381.934 L 550.077, 365.191 L 563.12, 347.213 L 558.713, 345.274 L 569.817, 330.293 L 574.576, 332.232 L 576.162, 330.117 L 601.19, 340.516 L 599.78, 342.454 L 609.65, 346.684 L 603.481, 355.321 L 593.435, 351.091 L 575.281, 376.118 L 578.277, 377.352 L 575.281, 381.582 L 572.285, 380.172 L 565.411, 389.689 L 566.997, 390.394 L 564.882, 393.214 L 537.916, 381.934 z "/>
<path style="fill:rgb(255, 0, 0);fill-opacity:0;fill-rule:evenodd;stroke:rgb(255, 0, 108);stroke-width:1;" d="M 733.554, 172.902 L 755.232, 143.115 L 779.731, 153.338 L 760.167, 180.304 L 786.252, 191.232 L 764.574, 221.018 L 739.546, 210.619 L 759.286, 183.653 L 733.554, 172.902 z "/>
<path style="fill:rgb(0, 255, 0);fill-opacity:0;fill-rule:evenodd;stroke:rgb(255, 0, 108);stroke-width:1;" d="M 889.183, 513.065 L 911.038, 483.278 L 935.536, 493.677 L 915.62, 520.643 L 941.881, 531.923 L 934.655, 541.617 L 920.203, 561.181 L 895.528, 550.606 L 915.091, 524.168 L 889.183, 513.065 z "/>
<path style="fill:rgb(0, 0, 255);fill-opacity:0;fill-rule:evenodd;stroke:rgb(255, 0, 108);stroke-width:1;" d="M 338.224, 132.893 L 348.799, 119.321 L 363.957, 126.195 L 361.489, 129.368 L 374.356, 135.184 L 383.697, 123.375 L 386.869, 124.785 L 396.387, 112.624 L 410.839, 119.145 L 397.621, 136.241 L 417.361, 145.054 L 407.491, 157.744 L 381.582, 145.935 L 379.114, 148.931 L 376.118, 147.698 L 361.666, 166.38 L 344.569, 158.625 L 357.788, 141.705 L 338.224, 132.893 z "/>
<path style="fill:rgb(255, 255, 0);fill-opacity:0;fill-rule:evenodd;stroke:rgb(255, 0, 108);stroke-width:1;" d="M 120.203, 673.1 L 145.054, 639.083 L 191.937, 658.824 L 195.814, 660.41 L 184.005, 676.625 L 173.783, 672.219 L 177.308, 667.284 L 169.377, 663.935 L 152.633, 686.671 L 120.203, 673.1 z "/>
<path style="fill:rgb(255, 0, 0);fill-opacity:0;fill-rule:evenodd;stroke:rgb(255, 0, 108);stroke-width:1;" d="M 194.933, 570.522 L 210.443, 549.02 L 272.483, 574.928 L 256.797, 596.431 L 194.933, 570.522 z "/>
<path style="fill:rgb(0, 255, 0);fill-opacity:0;fill-rule:evenodd;stroke:rgb(255, 0, 108);stroke-width:1;" d="M 494.382, 629.213 L 511.831, 605.067 L 518.705, 595.726 L 551.84, 609.473 L 527.517, 643.137 L 513.417, 637.145 L 511.126, 640.317 L 523.816, 645.781 L 519.586, 651.774 L 509.716, 647.544 L 500.022, 643.49 L 494.911, 641.375 L 501.608, 632.21 L 494.382, 629.213 z "/>
<path style="fill:rgb(0, 0, 255);fill-opacity:0;fill-rule:evenodd;stroke:rgb(255, 0, 108);stroke-width:1;" d="M 677.682, 717.867 L 700.771, 686.319 L 708.526, 675.567 L 735.845, 687.2 L 705.177, 729.5 L 677.682, 717.867 z "/>
<path style="fill:rgb(255, 255, 0);fill-opacity:0;fill-rule:evenodd;stroke:rgb(255, 0, 108);stroke-width:1;" d="M 810.046, 684.909 L 810.575, 684.204 L 831.725, 655.122 L 840.89, 642.785 L 868.209, 654.241 L 850.936, 677.859 L 837.541, 696.365 L 810.046, 684.909 z "/>
<path style="fill:rgb(255, 0, 0);fill-opacity:0;fill-rule:evenodd;stroke:rgb(255, 0, 108);stroke-width:1;" d="M 299.273, 427.936 L 314.783, 406.786 L 361.842, 426.526 L 366.424, 428.464 L 358.493, 439.392 L 361.842, 440.802 L 354.263, 451.201 L 346.508, 447.852 L 334.876, 442.917 L 325.887, 439.216 L 318.66, 436.043 L 311.082, 432.871 L 299.273, 427.936 z "/>
<path style="fill:rgb(0, 255, 0);fill-opacity:0;fill-rule:evenodd;stroke:rgb(255, 0, 108);stroke-width:1;" d="M 903.635, 117.206 L 918.793, 96.0564 L 921.084, 97.1139 L 932.188, 101.696 L 941.881, 105.75 L 970.082, 117.559 L 954.924, 138.533 L 914.915, 121.965 L 903.635, 117.206 z "/>
<path style="fill:rgb(0, 0, 255);fill-opacity:0;fill-rule:evenodd;stroke:rgb(255, 0, 108);stroke-width:1;" d="M 363.252, 433.752 L 370.654, 423.529 L 378.233, 426.702 L 389.866, 410.663 L 388.632, 408.548 L 383.344, 406.257 L 390.923, 395.858 L 424.411, 409.958 L 417.537, 419.299 L 416.656, 420.533 L 411.016, 418.242 L 407.843, 418.771 L 397.092, 433.399 L 398.502, 435.514 L 403.966, 437.806 L 396.739, 447.852 L 363.252, 433.752 z "/>
<path style="fill:rgb(255, 255, 0);fill-opacity:0;fill-rule:evenodd;stroke:rgb(255, 0, 108);stroke-width:1;" d="M 434.104, 612.646 L 463.362, 572.461 L 484.512, 581.273 L 455.254, 621.458 L 434.104, 612.646 z "/>
<path style="fill:rgb(255, 0, 0);fill-opacity:0;fill-rule:evenodd;stroke:rgb(255, 0, 108);stroke-width:1;" d="M 502.313, 492.443 L 509.54, 482.397 L 510.245, 481.516 L 517.823, 484.688 L 528.927, 469.354 L 521.348, 466.182 L 523.111, 463.891 L 529.28, 455.431 L 557.48, 467.239 L 551.135, 475.876 L 549.372, 478.343 L 542.498, 475.347 L 538.268, 481.34 L 531.571, 490.505 L 538.268, 493.325 L 537.916, 493.853 L 530.337, 504.252 L 502.313, 492.443 z "/>
<path style="fill:rgb(0, 255, 0);fill-opacity:0;fill-rule:evenodd;stroke:rgb(255, 0, 108);stroke-width:1;" d="M 54.8138, 567.35 L 67.3276, 550.077 L 120.203, 572.285 L 107.865, 589.381 L 79.4889, 577.572 L 85.4814, 569.465 L 83.5426, 568.583 L 82.6614, 569.641 L 80.0176, 568.583 L 80.7226, 567.526 L 71.9101, 563.825 L 66.0939, 571.932 L 54.8138, 567.35 z "/>
<path style="fill:rgb(0, 0, 255);fill-opacity:0;fill-rule:evenodd;stroke:rgb(255, 0, 108);stroke-width:1;" d="M 866.799, 633.267 L 886.715, 605.948 L 913.681, 617.228 L 893.765, 644.547 L 866.799, 633.267 z "/>
<path style="fill:rgb(255, 255, 0);fill-opacity:0;fill-rule:evenodd;stroke:rgb(255, 0, 108);stroke-width:1;" d="M 449.791, 529.985 L 469.354, 503.195 L 496.673, 514.827 L 495.263, 516.59 L 477.109, 541.617 L 449.791, 529.985 z "/>
<path style="fill:rgb(255, 0, 0);fill-opacity:0;fill-rule:evenodd;stroke:rgb(255, 0, 108);stroke-width:1;" d="M 784.666, 611.236 L 790.13, 603.833 L 793.479, 599.251 L 800.881, 602.423 L 810.223, 589.733 L 802.82, 586.561 L 811.633, 574.223 L 835.426, 584.27 L 828.2, 594.316 L 826.614, 596.431 L 821.855, 594.492 L 819.035, 593.963 L 810.223, 605.948 L 813.395, 608.063 L 816.92, 609.65 L 808.46, 621.282 L 784.666, 611.236 z "/>
<path style="fill:rgb(0, 255, 0);fill-opacity:0;fill-rule:evenodd;stroke:rgb(255, 0, 108);stroke-width:1;" d="M 191.937, 658.824 L 198.458, 650.011 L 204.274, 641.904 L 210.619, 633.267 L 216.964, 624.631 L 223.133, 615.995 L 239.348, 622.868 L 239.172, 623.045 L 208.152, 665.521 L 205.86, 664.64 L 195.814, 660.41 L 191.937, 658.824 z "/>
<path style="fill:rgb(0, 0, 255);fill-opacity:0;fill-rule:evenodd;stroke:rgb(255, 0, 108);stroke-width:1;" d="M 889.006, 75.7876 L 897.466, 64.1551 L 904.34, 66.9751 L 914.034, 53.5801 L 906.631, 50.5838 L 908.394, 48.1163 L 915.268, 38.7751 L 939.238, 48.8213 L 930.778, 60.6301 L 923.551, 57.6338 L 914.034, 71.0289 L 921.084, 74.0251 L 912.624, 85.6576 L 889.006, 75.7876 z "/>
<path style="fill:rgb(255, 255, 0);fill-opacity:0;fill-rule:evenodd;stroke:rgb(255, 0, 108);stroke-width:1;" d="M 519.762, 374.356 L 526.46, 365.191 L 524.168, 364.133 L 554.307, 322.538 L 570.346, 329.412 L 569.817, 330.293 L 558.713, 345.274 L 547.081, 340.339 L 540.031, 350.033 L 543.908, 351.619 L 537.74, 360.079 L 550.077, 365.191 L 537.916, 381.934 L 519.762, 374.356 z "/>
<path style="fill:rgb(255, 0, 0);fill-opacity:0;fill-rule:evenodd;stroke:rgb(255, 0, 108);stroke-width:1;" d="M 767.57, 594.14 L 773.739, 585.856 L 789.072, 564.706 L 811.633, 574.223 L 802.82, 586.561 L 793.479, 599.251 L 790.13, 603.833 L 767.57, 594.14 z "/>
<path style="fill:rgb(0, 255, 0);fill-opacity:0;fill-rule:evenodd;stroke:rgb(255, 0, 108);stroke-width:1;" d="M 218.022, 538.621 L 225.777, 528.046 L 243.754, 535.448 L 287.64, 553.955 L 279.885, 564.53 L 218.022, 538.621 z "/>
<path style="fill:rgb(0, 0, 255);fill-opacity:0;fill-rule:evenodd;stroke:rgb(255, 0, 108);stroke-width:1;" d="M 210.443, 549.02 L 218.022, 538.621 L 279.885, 564.53 L 272.483, 574.928 L 210.443, 549.02 z "/>
<path style="fill:rgb(255, 255, 0);fill-opacity:0;fill-rule:evenodd;stroke:rgb(255, 0, 108);stroke-width:1;" d="M 772.681, 669.046 L 778.497, 661.115 L 784.137, 663.406 L 786.076, 662.701 L 785.9, 660.939 L 788.015, 657.942 L 786.252, 657.237 L 803.349, 633.972 L 819.211, 640.67 L 801.058, 665.521 L 804.23, 666.755 L 797.356, 676.096 L 795.594, 678.74 L 772.681, 669.046 z "/>
<path style="fill:rgb(255, 0, 0);fill-opacity:0;fill-rule:evenodd;stroke:rgb(255, 0, 108);stroke-width:1;" d="M 832.254, 114.563 L 838.07, 106.455 L 842.653, 108.394 L 844.944, 108.218 L 846.354, 106.279 L 844.063, 105.398 L 862.745, 79.6651 L 878.608, 86.1864 L 859.925, 111.919 L 857.634, 111.038 L 856.4, 112.976 L 857.281, 114.563 L 861.688, 116.325 L 855.871, 124.433 L 832.254, 114.563 z "/>
<path style="fill:rgb(0, 255, 0);fill-opacity:0;fill-rule:evenodd;stroke:rgb(255, 0, 108);stroke-width:1;" d="M 58.3388, 311.963 L 89.5351, 269.134 L 104.164, 275.479 L 72.9676, 318.132 L 58.3388, 311.963 z "/>
<path style="fill:rgb(0, 0, 255);fill-opacity:0;fill-rule:evenodd;stroke:rgb(255, 0, 108);stroke-width:1;" d="M 812.338, 622.868 L 829.786, 598.898 L 831.549, 599.603 L 832.43, 596.078 L 828.2, 594.316 L 835.426, 584.27 L 858.163, 593.787 L 851.113, 603.481 L 847.764, 602.071 L 846.178, 602.952 L 826.966, 629.213 L 812.338, 622.868 z "/>
<path style="fill:rgb(255, 255, 0);fill-opacity:0;fill-rule:evenodd;stroke:rgb(255, 0, 108);stroke-width:1;" d="M 106.631, 492.267 L 114.739, 481.163 L 142.41, 492.62 L 170.61, 504.252 L 162.679, 515.356 L 128.663, 501.256 L 106.631, 492.267 z "/>
<path style="fill:rgb(255, 0, 0);fill-opacity:0;fill-rule:evenodd;stroke:rgb(255, 0, 108);stroke-width:1;" d="M 76.8451, 373.827 L 106.279, 333.642 L 121.613, 340.163 L 92.1789, 380.348 L 76.8451, 373.827 z "/>
<path style="fill:rgb(0, 255, 0);fill-opacity:0;fill-rule:evenodd;stroke:rgb(255, 0, 108);stroke-width:1;" d="M 473.232, 624.631 L 490.505, 600.661 L 491.915, 601.366 L 492.443, 597.665 L 489.095, 596.255 L 496.321, 586.208 L 518.705, 595.726 L 511.831, 605.067 L 507.777, 603.481 L 506.015, 604.891 L 502.49, 609.65 L 503.018, 609.826 L 487.861, 630.8 L 473.232, 624.631 z "/>
<path style="fill:rgb(0, 0, 255);fill-opacity:0;fill-rule:evenodd;stroke:rgb(255, 0, 108);stroke-width:1;" d="M 712.932, 643.842 L 720.511, 633.443 L 743.6, 601.718 L 758.052, 607.711 L 743.952, 627.098 L 727.385, 650.011 L 712.932, 643.842 z "/>
<path style="fill:rgb(255, 255, 0);fill-opacity:0;fill-rule:evenodd;stroke:rgb(255, 0, 108);stroke-width:1;" d="M 501.785, 658.471 L 509.716, 647.544 L 519.586, 651.774 L 537.387, 659.176 L 565.235, 670.809 L 557.127, 681.736 L 524.168, 667.812 L 501.785, 658.471 z "/>
<path style="fill:rgb(255, 0, 0);fill-opacity:0;fill-rule:evenodd;stroke:rgb(255, 0, 108);stroke-width:1;" d="M 882.661, 659.705 L 893.765, 644.547 L 913.681, 617.228 L 927.958, 623.221 L 896.938, 665.697 L 882.661, 659.705 z "/>
<path style="fill:rgb(0, 255, 0);fill-opacity:0;fill-rule:evenodd;stroke:rgb(255, 0, 108);stroke-width:1;" d="M 582.331, 547.61 L 590.262, 536.858 L 623.573, 550.782 L 639.788, 557.656 L 638.555, 559.418 L 642.785, 561.181 L 644.019, 559.418 L 646.134, 560.3 L 638.202, 571.227 L 610.355, 559.595 L 582.331, 547.61 z "/>
<path style="fill:rgb(0, 0, 255);fill-opacity:0;fill-rule:evenodd;stroke:rgb(255, 0, 108);stroke-width:1;" d="M 644.371, 662.525 L 652.126, 651.774 L 708.526, 675.567 L 700.771, 686.319 L 691.782, 682.617 L 679.269, 677.33 L 657.59, 668.165 L 644.371, 662.525 z "/>
<path style="fill:rgb(255, 255, 0);fill-opacity:0;fill-rule:evenodd;stroke:rgb(255, 0, 108);stroke-width:1;" d="M 72.9676, 318.132 L 104.164, 275.479 L 118.264, 281.295 L 111.39, 290.813 L 106.808, 296.982 L 103.459, 301.564 L 87.0676, 324.124 L 72.9676, 318.132 z "/>
<path style="fill:rgb(255, 0, 0);fill-opacity:0;fill-rule:evenodd;stroke:rgb(255, 0, 108);stroke-width:1;" d="M 119.498, 332.584 L 140.648, 303.679 L 140.295, 301.388 L 146.464, 293.104 L 164.089, 300.683 L 158.096, 308.967 L 155.1, 309.848 L 133.95, 338.753 L 119.498, 332.584 z "/>
<path style="fill:rgb(0, 255, 0);fill-opacity:0;fill-rule:evenodd;stroke:rgb(255, 0, 108);stroke-width:1;" d="M 705.177, 729.5 L 735.845, 687.2 L 749.416, 693.016 L 719.454, 735.492 L 705.177, 729.5 z "/>
<path style="fill:rgb(0, 0, 255);fill-opacity:0;fill-rule:evenodd;stroke:rgb(255, 0, 108);stroke-width:1;" d="M 275.479, 460.189 L 283.234, 449.614 L 294.514, 454.373 L 301.917, 457.546 L 308.79, 460.366 L 318.484, 464.596 L 330.646, 469.531 L 338.048, 472.703 L 330.293, 483.278 L 275.479, 460.189 z "/>
<path style="fill:rgb(255, 255, 0);fill-opacity:0;fill-rule:evenodd;stroke:rgb(255, 0, 108);stroke-width:1;" d="M 103.811, 325.006 L 117.03, 307.028 L 121.084, 301.388 L 124.609, 296.453 L 131.659, 286.935 L 146.464, 293.104 L 140.295, 301.388 L 118.44, 331.351 L 115.268, 329.941 L 110.685, 331.174 L 107.336, 329.764 L 106.808, 326.416 L 103.811, 325.006 z "/>
<path style="fill:rgb(255, 0, 0);fill-opacity:0;fill-rule:evenodd;stroke:rgb(255, 0, 108);stroke-width:1;" d="M 855.871, 124.433 L 861.688, 116.325 L 862.393, 115.268 L 867.151, 117.206 L 869.443, 116.501 L 870.676, 114.915 L 868.561, 114.034 L 886.363, 89.5351 L 900.463, 95.3514 L 882.838, 119.674 L 880.37, 121.084 L 880.018, 123.199 L 884.248, 124.256 L 877.55, 133.598 L 855.871, 124.433 z "/>
<path style="fill:rgb(0, 255, 0);fill-opacity:0;fill-rule:evenodd;stroke:rgb(255, 0, 108);stroke-width:1;" d="M 448.733, 677.154 L 458.074, 664.287 L 465.124, 667.284 L 473.232, 656.356 L 466.006, 653.36 L 475.699, 640.141 L 492.796, 647.367 L 479.224, 666.05 L 477.462, 665.345 L 472.174, 672.747 L 472.351, 675.215 L 475.876, 676.801 L 469.354, 685.79 L 448.733, 677.154 z "/>
<path style="fill:rgb(0, 0, 255);fill-opacity:0;fill-rule:evenodd;stroke:rgb(255, 0, 108);stroke-width:1;" d="M 810.928, 105.75 L 812.514, 103.635 L 817.625, 96.4089 L 821.503, 97.9952 L 823.618, 97.1139 L 825.028, 94.9989 L 823.794, 94.4701 L 841.066, 70.5001 L 854.99, 76.4926 L 837.365, 100.991 L 835.25, 99.9339 L 834.016, 101.696 L 834.545, 103.459 L 838.951, 105.221 L 838.07, 106.455 L 832.254, 114.563 L 810.928, 105.75 z "/>
<path style="fill:rgb(255, 255, 0);fill-opacity:0;fill-rule:evenodd;stroke:rgb(255, 0, 108);stroke-width:1;" d="M 287.64, 553.955 L 318.66, 511.126 L 331.703, 516.59 L 313.197, 541.97 L 300.683, 559.418 L 287.64, 553.955 z "/>
<path style="fill:rgb(255, 0, 0);fill-opacity:0;fill-rule:evenodd;stroke:rgb(255, 0, 108);stroke-width:1;" d="M 974.135, 691.43 L 994.58, 663.759 L 990.879, 662.172 L 997.753, 652.655 L 1018.2, 661.291 L 1011.32, 670.809 L 1007.45, 669.046 L 987.002, 696.894 L 974.135, 691.43 z "/>
<path style="fill:rgb(0, 255, 0);fill-opacity:0;fill-rule:evenodd;stroke:rgb(255, 0, 108);stroke-width:1;" d="M 256.797, 596.431 L 272.483, 574.928 L 279.885, 564.53 L 287.64, 553.955 L 300.683, 559.418 L 288.169, 576.515 L 269.839, 601.718 L 256.797, 596.431 z "/>
<path style="fill:rgb(0, 0, 255);fill-opacity:0;fill-rule:evenodd;stroke:rgb(255, 0, 108);stroke-width:1;" d="M 908.218, 91.6501 L 912.624, 85.6576 L 921.084, 74.0251 L 930.778, 60.6301 L 939.238, 48.8213 L 952.104, 54.1088 L 931.13, 82.8376 L 921.084, 97.1139 L 918.793, 96.0564 L 908.218, 91.6501 z "/>
<path style="fill:rgb(255, 255, 0);fill-opacity:0;fill-rule:evenodd;stroke:rgb(255, 0, 108);stroke-width:1;" d="M 589.733, 384.578 L 616.7, 347.566 L 632.033, 354.087 L 631.857, 354.263 L 614.408, 378.233 L 609.297, 376.118 L 600.132, 388.984 L 589.733, 384.578 z "/>
<path style="fill:rgb(255, 0, 0);fill-opacity:0;fill-rule:evenodd;stroke:rgb(255, 0, 108);stroke-width:1;" d="M 109.628, 387.751 L 118.793, 375.413 L 120.379, 376.118 L 123.023, 372.417 L 121.436, 371.712 L 129.896, 359.903 L 132.893, 361.137 L 136.065, 356.731 L 147.169, 361.313 L 143.644, 366.248 L 146.464, 367.306 L 138.18, 378.762 L 136.418, 378.057 L 133.774, 381.758 L 135.536, 382.463 L 126.371, 394.801 L 109.628, 387.751 z "/>
<path style="fill:rgb(0, 255, 0);fill-opacity:0;fill-rule:evenodd;stroke:rgb(255, 0, 108);stroke-width:1;" d="M 613.527, 704.649 L 620.753, 694.779 L 633.62, 700.066 L 634.148, 700.066 L 655.122, 708.879 L 655.299, 709.231 L 668.341, 714.695 L 670.456, 715.752 L 663.23, 725.622 L 613.527, 704.649 z "/>
<path style="fill:rgb(0, 0, 255);fill-opacity:0;fill-rule:evenodd;stroke:rgb(255, 0, 108);stroke-width:1;" d="M 330.469, 385.283 L 338.224, 374.708 L 385.283, 394.448 L 377.528, 405.023 L 330.469, 385.283 z "/>
<path style="fill:rgb(255, 255, 0);fill-opacity:0;fill-rule:evenodd;stroke:rgb(255, 0, 108);stroke-width:1;" d="M 931.13, 82.8376 L 952.104, 54.1088 L 972.902, 62.7451 L 966.38, 71.5576 L 960.212, 80.1939 L 959.859, 80.7226 L 950.341, 76.6689 L 942.41, 87.5964 L 931.13, 82.8376 z "/>
<path style="fill:rgb(255, 0, 0);fill-opacity:0;fill-rule:evenodd;stroke:rgb(255, 0, 108);stroke-width:1;" d="M 589.91, 736.902 L 597.665, 726.151 L 611.06, 731.791 L 611.412, 733.377 L 630.271, 741.485 L 632.386, 740.956 L 645.252, 746.42 L 637.321, 757.171 L 589.91, 736.902 z "/>
<path style="fill:rgb(0, 255, 0);fill-opacity:0;fill-rule:evenodd;stroke:rgb(255, 0, 108);stroke-width:1;" d="M 454.549, 622.516 L 455.254, 621.458 L 484.512, 581.273 L 496.321, 586.208 L 489.095, 596.255 L 466.358, 627.451 L 454.549, 622.516 z "/>
<path style="fill:rgb(0, 0, 255);fill-opacity:0;fill-rule:evenodd;stroke:rgb(255, 0, 108);stroke-width:1;" d="M 93.5889, 381.053 L 102.754, 368.363 L 103.988, 368.892 L 106.455, 365.367 L 105.221, 364.838 L 113.505, 353.558 L 116.325, 354.616 L 119.674, 349.857 L 130.601, 354.439 L 127.429, 359.022 L 129.896, 359.903 L 121.436, 371.712 L 119.85, 371.007 L 117.206, 374.708 L 118.793, 375.413 L 109.628, 387.751 L 93.5889, 381.053 z "/>
<path style="fill:rgb(255, 255, 0);fill-opacity:0;fill-rule:evenodd;stroke:rgb(255, 0, 108);stroke-width:1;" d="M 888.478, 138.18 L 894.646, 129.72 L 905.926, 134.479 L 945.935, 151.046 L 938.709, 160.917 L 901.344, 145.406 L 902.401, 143.82 L 888.478, 138.18 z "/>
<path style="fill:rgb(255, 0, 0);fill-opacity:0;fill-rule:evenodd;stroke:rgb(255, 0, 108);stroke-width:1;" d="M 322.538, 396.034 L 330.469, 385.283 L 377.528, 405.023 L 371.712, 413.131 L 361.842, 408.901 L 359.903, 411.721 L 322.538, 396.034 z "/>
<path style="fill:rgb(0, 255, 0);fill-opacity:0;fill-rule:evenodd;stroke:rgb(255, 0, 108);stroke-width:1;" d="M 573.518, 586.032 L 581.802, 574.576 L 623.573, 592.201 L 615.29, 603.657 L 573.518, 586.032 z "/>
<path style="fill:rgb(0, 0, 255);fill-opacity:0;fill-rule:evenodd;stroke:rgb(255, 0, 108);stroke-width:1;" d="M 314.783, 406.786 L 322.538, 396.034 L 359.903, 411.721 L 358.141, 414.012 L 368.011, 418.242 L 361.842, 426.526 L 314.783, 406.786 z "/>
<path style="fill:rgb(255, 255, 0);fill-opacity:0;fill-rule:evenodd;stroke:rgb(255, 0, 108);stroke-width:1;" d="M 420.181, 520.643 L 426.349, 512.007 L 428.993, 511.478 L 442.388, 493.148 L 441.331, 491.386 L 448.028, 482.221 L 462.128, 488.213 L 455.431, 497.378 L 453.139, 497.731 L 439.744, 516.061 L 440.449, 517.823 L 434.281, 526.283 L 434.104, 526.46 L 420.181, 520.643 z "/>
<path style="fill:rgb(255, 0, 0);fill-opacity:0;fill-rule:evenodd;stroke:rgb(255, 0, 108);stroke-width:1;" d="M 597.665, 726.151 L 605.596, 715.4 L 618.991, 721.04 L 618.286, 722.097 L 638.202, 730.557 L 640.846, 730.381 L 653.184, 735.492 L 645.252, 746.42 L 632.386, 740.956 L 631.857, 739.37 L 612.998, 731.262 L 611.06, 731.791 L 597.665, 726.151 z "/>
<path style="fill:rgb(0, 255, 0);fill-opacity:0;fill-rule:evenodd;stroke:rgb(255, 0, 108);stroke-width:1;" d="M 620.753, 694.779 L 628.685, 683.851 L 642.785, 689.844 L 642.961, 691.254 L 660.939, 698.832 L 663.23, 698.304 L 676.272, 703.944 L 668.341, 714.695 L 655.299, 709.231 L 655.122, 708.879 L 654.77, 707.292 L 636.792, 699.714 L 634.148, 700.066 L 633.62, 700.066 L 620.753, 694.779 z "/>
<path style="fill:rgb(0, 0, 255);fill-opacity:0;fill-rule:evenodd;stroke:rgb(255, 0, 108);stroke-width:1;" d="M 628.685, 683.851 L 636.616, 673.1 L 650.716, 679.092 L 650.716, 680.679 L 669.046, 688.434 L 670.809, 687.905 L 683.851, 693.545 L 676.272, 703.944 L 663.23, 698.304 L 662.701, 696.541 L 644.724, 688.962 L 642.785, 689.844 L 628.685, 683.851 z "/>
<path style="fill:rgb(255, 255, 0);fill-opacity:0;fill-rule:evenodd;stroke:rgb(255, 0, 108);stroke-width:1;" d="M 877.55, 133.598 L 884.248, 124.256 L 908.041, 91.6501 L 908.218, 91.6501 L 918.793, 96.0564 L 903.635, 117.206 L 894.646, 129.72 L 888.478, 138.18 L 877.55, 133.598 z "/>
<path style="fill:rgb(255, 0, 0);fill-opacity:0;fill-rule:evenodd;stroke:rgb(255, 0, 108);stroke-width:1;" d="M 636.616, 673.1 L 644.371, 662.525 L 657.59, 668.165 L 657.414, 670.104 L 676.625, 678.387 L 679.269, 677.33 L 691.782, 682.617 L 683.851, 693.545 L 670.809, 687.905 L 670.632, 686.142 L 652.302, 678.387 L 650.716, 679.092 L 636.616, 673.1 z "/>
<path style="fill:rgb(0, 255, 0);fill-opacity:0;fill-rule:evenodd;stroke:rgb(255, 0, 108);stroke-width:1;" d="M 406.786, 514.827 L 412.954, 506.367 L 415.246, 505.838 L 428.817, 487.156 L 427.936, 485.746 L 434.633, 476.581 L 448.028, 482.221 L 441.331, 491.386 L 439.216, 491.562 L 425.644, 510.245 L 426.349, 512.007 L 420.181, 520.643 L 406.786, 514.827 z "/>
<path style="fill:rgb(0, 0, 255);fill-opacity:0;fill-rule:evenodd;stroke:rgb(255, 0, 108);stroke-width:1;" d="M 291.165, 438.687 L 299.097, 427.759 L 299.273, 427.936 L 311.082, 432.871 L 311.434, 434.809 L 316.017, 436.924 L 318.66, 436.043 L 325.887, 439.216 L 324.124, 441.683 L 333.113, 445.561 L 334.876, 442.917 L 346.508, 447.852 L 338.577, 458.603 L 326.768, 453.668 L 328.354, 451.377 L 319.542, 447.676 L 318.132, 449.438 L 317.603, 449.262 L 317.25, 449.614 L 311.258, 447.147 L 310.377, 445.208 L 305.618, 443.269 L 302.622, 443.446 L 291.165, 438.687 z "/>
<path style="fill:rgb(255, 255, 0);fill-opacity:0;fill-rule:evenodd;stroke:rgb(255, 0, 108);stroke-width:1;" d="M 725.094, 552.016 L 733.025, 541.088 L 774.62, 558.537 L 766.689, 569.465 L 725.094, 552.016 z "/>
<path style="fill:rgb(255, 0, 0);fill-opacity:0;fill-rule:evenodd;stroke:rgb(255, 0, 108);stroke-width:1;" d="M 59.9251, 365.896 L 79.6651, 338.929 L 96.4089, 345.979 L 76.8451, 372.946 L 59.9251, 365.896 z "/>
<path style="fill:rgb(0, 255, 0);fill-opacity:0;fill-rule:evenodd;stroke:rgb(255, 0, 108);stroke-width:1;" d="M 43.1813, 358.846 L 62.9213, 331.879 L 79.6651, 338.929 L 59.9251, 365.896 L 43.1813, 358.846 z "/>
<path style="fill:rgb(0, 0, 255);fill-opacity:0;fill-rule:evenodd;stroke:rgb(255, 0, 108);stroke-width:1;" d="M 546.376, 621.458 L 554.307, 610.355 L 596.255, 627.98 L 588.5, 638.907 L 560.652, 627.275 L 561.181, 626.393 L 556.422, 624.455 L 555.717, 625.336 L 546.376, 621.458 z "/>
<path style="fill:rgb(255, 255, 0);fill-opacity:0;fill-rule:evenodd;stroke:rgb(255, 0, 108);stroke-width:1;" d="M 283.234, 449.614 L 291.165, 438.687 L 302.622, 443.446 L 303.15, 445.737 L 308.614, 448.204 L 309.848, 446.618 L 311.258, 447.147 L 317.25, 449.614 L 315.135, 452.434 L 324.653, 456.488 L 326.768, 453.668 L 338.577, 458.603 L 330.646, 469.531 L 318.484, 464.596 L 320.423, 462.128 L 310.553, 457.898 L 308.79, 460.366 L 301.917, 457.546 L 302.974, 456.136 L 296.982, 453.668 L 294.514, 454.373 L 283.234, 449.614 z "/>
<path style="fill:rgb(255, 0, 0);fill-opacity:0;fill-rule:evenodd;stroke:rgb(255, 0, 108);stroke-width:1;" d="M 928.486, 672.042 L 955.629, 635.03 L 969.2, 640.67 L 961.974, 650.716 L 954.924, 660.234 L 951.399, 658.824 L 938.533, 676.272 L 928.486, 672.042 z "/>
<path style="fill:rgb(0, 255, 0);fill-opacity:0;fill-rule:evenodd;stroke:rgb(255, 0, 108);stroke-width:1;" d="M 670.985, 626.217 L 678.387, 615.818 L 705.706, 627.275 L 720.511, 633.443 L 712.932, 643.842 L 670.985, 626.217 z "/>
<path style="fill:rgb(0, 0, 255);fill-opacity:0;fill-rule:evenodd;stroke:rgb(255, 0, 108);stroke-width:1;" d="M 581.802, 574.576 L 589.381, 564.177 L 602.776, 569.817 L 631.152, 581.802 L 623.573, 592.201 L 581.802, 574.576 z "/>
<path style="fill:rgb(255, 255, 0);fill-opacity:0;fill-rule:evenodd;stroke:rgb(255, 0, 108);stroke-width:1;" d="M 658.824, 766.865 L 665.169, 758.405 L 667.636, 757.171 L 670.28, 753.822 L 669.046, 752.412 L 673.1, 746.949 L 676.801, 748.359 L 680.15, 743.952 L 678.211, 743.071 L 686.142, 732.496 L 697.951, 737.784 L 690.02, 748.359 L 687.376, 747.301 L 684.027, 751.531 L 687.552, 753.117 L 683.499, 758.581 L 681.384, 758.405 L 678.387, 762.106 L 679.092, 764.397 L 672.571, 772.857 L 658.824, 766.865 z "/>
<path style="fill:rgb(255, 0, 0);fill-opacity:0;fill-rule:evenodd;stroke:rgb(255, 0, 108);stroke-width:1;" d="M 164.97, 702.71 L 184.005, 676.625 L 195.814, 660.41 L 205.86, 664.64 L 175.017, 706.94 L 164.97, 702.71 z "/>
<path style="fill:rgb(0, 255, 0);fill-opacity:0;fill-rule:evenodd;stroke:rgb(255, 0, 108);stroke-width:1;" d="M 180.833, 420.004 L 182.419, 417.889 L 188.764, 409.253 L 197.224, 412.778 L 227.715, 425.644 L 219.784, 436.396 L 180.833, 420.004 z "/>
<path style="fill:rgb(0, 0, 255);fill-opacity:0;fill-rule:evenodd;stroke:rgb(255, 0, 108);stroke-width:1;" d="M 672.571, 772.857 L 679.092, 764.397 L 681.384, 763.516 L 684.027, 759.991 L 683.499, 758.581 L 687.552, 753.117 L 690.372, 754.175 L 694.779, 748.359 L 693.016, 747.654 L 699.89, 738.489 L 712.051, 743.776 L 703.767, 754.704 L 701.3, 753.47 L 698.127, 757.7 L 700.771, 758.757 L 696.541, 764.397 L 695.131, 764.221 L 692.311, 767.746 L 692.487, 769.685 L 685.79, 778.674 L 672.571, 772.857 z "/>
<path style="fill:rgb(255, 255, 0);fill-opacity:0;fill-rule:evenodd;stroke:rgb(255, 0, 108);stroke-width:1;" d="M 640.846, 545.671 L 646.839, 537.387 L 649.13, 537.035 L 651.245, 534.215 L 649.659, 533.51 L 655.122, 525.931 L 656.709, 526.636 L 658.824, 523.816 L 658.119, 521.877 L 665.169, 512.36 L 678.035, 517.647 L 653.536, 551.135 L 640.846, 545.671 z "/>
<path style="fill:rgb(255, 0, 0);fill-opacity:0;fill-rule:evenodd;stroke:rgb(255, 0, 108);stroke-width:1;" d="M 92.5314, 317.603 L 99.9339, 307.38 L 102.225, 308.438 L 106.279, 302.622 L 103.459, 301.564 L 106.808, 296.982 L 108.218, 296.982 L 111.919, 291.87 L 111.39, 290.813 L 118.264, 281.295 L 131.659, 286.935 L 124.609, 296.453 L 122.67, 297.158 L 119.85, 301.035 L 121.084, 301.388 L 117.03, 307.028 L 114.21, 305.794 L 111.919, 309.143 L 110.509, 308.614 L 109.275, 310.377 L 111.743, 311.434 L 103.811, 322.362 L 92.5314, 317.603 z "/>
<path style="fill:rgb(0, 255, 0);fill-opacity:0;fill-rule:evenodd;stroke:rgb(255, 0, 108);stroke-width:1;" d="M 145.054, 639.083 L 151.399, 630.271 L 198.458, 650.011 L 191.937, 658.824 L 145.054, 639.083 z "/>
<path style="fill:rgb(0, 0, 255);fill-opacity:0;fill-rule:evenodd;stroke:rgb(255, 0, 108);stroke-width:1;" d="M 645.429, 761.049 L 651.774, 752.412 L 654.241, 751.707 L 656.532, 748.359 L 655.827, 747.125 L 660.234, 741.309 L 663.054, 742.542 L 667.107, 737.431 L 664.816, 736.374 L 672.219, 726.504 L 684.027, 731.615 L 675.567, 742.719 L 673.276, 741.661 L 670.28, 745.715 L 673.1, 746.949 L 669.046, 752.412 L 667.107, 752.412 L 664.64, 755.761 L 665.169, 758.405 L 658.824, 766.865 L 645.429, 761.049 z "/>
<path style="fill:rgb(255, 255, 0);fill-opacity:0;fill-rule:evenodd;stroke:rgb(255, 0, 108);stroke-width:1;" d="M 157.215, 622.163 L 163.56, 613.351 L 193.875, 626.217 L 210.619, 633.267 L 204.274, 641.904 L 157.215, 622.163 z "/>
<path style="fill:rgb(255, 0, 0);fill-opacity:0;fill-rule:evenodd;stroke:rgb(255, 0, 108);stroke-width:1;" d="M 102.225, 532.1 L 110.156, 521.172 L 113.329, 522.406 L 147.345, 536.506 L 139.414, 547.61 L 102.225, 532.1 z "/>
<path style="fill:rgb(0, 255, 0);fill-opacity:0;fill-rule:evenodd;stroke:rgb(255, 0, 108);stroke-width:1;" d="M 469.354, 685.79 L 475.876, 676.801 L 500.022, 643.49 L 509.716, 647.544 L 501.785, 658.471 L 497.202, 664.64 L 479.048, 689.844 L 469.354, 685.79 z "/>
<path style="fill:rgb(0, 0, 255);fill-opacity:0;fill-rule:evenodd;stroke:rgb(255, 0, 108);stroke-width:1;" d="M 168.143, 411.897 L 187.707, 384.931 L 191.232, 386.517 L 192.994, 384.049 L 200.22, 387.222 L 198.458, 389.513 L 201.983, 390.923 L 188.764, 409.253 L 182.419, 417.889 L 168.143, 411.897 z "/>
<path style="fill:rgb(255, 255, 0);fill-opacity:0;fill-rule:evenodd;stroke:rgb(255, 0, 108);stroke-width:1;" d="M 169.905, 604.891 L 176.074, 596.255 L 223.133, 615.995 L 216.964, 624.631 L 200.044, 617.581 L 169.905, 604.891 z "/>
<path style="fill:rgb(255, 0, 0);fill-opacity:0;fill-rule:evenodd;stroke:rgb(255, 0, 108);stroke-width:1;" d="M 474.994, 544.437 L 477.109, 541.617 L 495.263, 516.59 L 509.716, 522.582 L 489.271, 550.606 L 474.994, 544.437 z "/>
<path style="fill:rgb(0, 255, 0);fill-opacity:0;fill-rule:evenodd;stroke:rgb(255, 0, 108);stroke-width:1;" d="M 797.356, 676.096 L 804.23, 666.755 L 817.273, 649.835 L 822.913, 652.302 L 823.441, 651.597 L 831.725, 655.122 L 810.575, 684.204 L 803.349, 681.207 L 804.935, 679.269 L 797.356, 676.096 z "/>
<path style="fill:rgb(0, 0, 255);fill-opacity:0;fill-rule:evenodd;stroke:rgb(255, 0, 108);stroke-width:1;" d="M 494.735, 696.894 L 500.551, 688.962 L 510.597, 689.844 L 541.441, 702.71 L 541.793, 702.886 L 534.215, 713.285 L 494.735, 696.894 z "/>
<path style="fill:rgb(255, 255, 0);fill-opacity:0;fill-rule:evenodd;stroke:rgb(255, 0, 108);stroke-width:1;" d="M 126.371, 394.801 L 135.536, 382.463 L 138.18, 378.762 L 146.464, 367.306 L 149.813, 368.716 L 151.399, 366.777 L 158.449, 369.773 L 156.863, 371.712 L 160.212, 373.122 L 140.295, 400.617 L 126.371, 394.801 z "/>
<path style="fill:rgb(255, 0, 0);fill-opacity:0;fill-rule:evenodd;stroke:rgb(255, 0, 108);stroke-width:1;" d="M 544.966, 574.047 L 565.235, 546.2 L 579.335, 552.016 L 575.105, 558.185 L 559.066, 580.04 L 544.966, 574.047 z "/>
<path style="fill:rgb(0, 255, 0);fill-opacity:0;fill-rule:evenodd;stroke:rgb(255, 0, 108);stroke-width:1;" d="M 41.7713, 595.197 L 47.7638, 586.913 L 53.4038, 589.381 L 95.1751, 606.83 L 89.1826, 615.113 L 41.7713, 595.197 z "/>
<path style="fill:rgb(0, 0, 255);fill-opacity:0;fill-rule:evenodd;stroke:rgb(255, 0, 108);stroke-width:1;" d="M 297.51, 613.351 L 316.017, 587.971 L 320.423, 589.91 L 323.948, 585.151 L 329.941, 587.618 L 326.416, 592.377 L 330.293, 593.963 L 311.963, 619.343 L 297.51, 613.351 z "/>
<path style="fill:rgb(255, 255, 0);fill-opacity:0;fill-rule:evenodd;stroke:rgb(255, 0, 108);stroke-width:1;" d="M 516.942, 562.238 L 537.387, 534.391 L 551.311, 540.207 L 531.042, 568.055 L 516.942, 562.238 z "/>
<path style="fill:rgb(255, 0, 0);fill-opacity:0;fill-rule:evenodd;stroke:rgb(255, 0, 108);stroke-width:1;" d="M 531.042, 568.055 L 551.311, 540.207 L 565.235, 546.2 L 544.966, 574.047 L 531.042, 568.055 z "/>
<path style="fill:rgb(0, 255, 0);fill-opacity:0;fill-rule:evenodd;stroke:rgb(255, 0, 108);stroke-width:1;" d="M 503.018, 556.422 L 523.287, 528.398 L 537.387, 534.391 L 516.942, 562.238 L 503.018, 556.422 z "/>
<path style="fill:rgb(0, 0, 255);fill-opacity:0;fill-rule:evenodd;stroke:rgb(255, 0, 108);stroke-width:1;" d="M 166.204, 339.987 L 175.017, 327.826 L 177.132, 327.649 L 179.952, 323.772 L 179.07, 322.538 L 187.354, 310.905 L 200.749, 316.369 L 192.465, 327.826 L 190.527, 328.002 L 187.53, 332.232 L 188.412, 333.466 L 187.883, 334.171 L 179.599, 345.627 L 176.25, 344.217 L 174.664, 346.332 L 167.967, 343.512 L 169.553, 341.397 L 166.204, 339.987 z "/>
<path style="fill:rgb(255, 255, 0);fill-opacity:0;fill-rule:evenodd;stroke:rgb(255, 0, 108);stroke-width:1;" d="M 629.213, 543.027 L 640.67, 527.341 L 653.007, 510.421 L 654.77, 507.953 L 665.169, 512.36 L 658.119, 521.877 L 655.122, 525.931 L 649.659, 533.51 L 646.839, 537.387 L 640.846, 545.671 L 653.536, 551.135 L 652.302, 552.897 L 629.213, 543.027 z "/>
<path style="fill:rgb(255, 0, 0);fill-opacity:0;fill-rule:evenodd;stroke:rgb(255, 0, 108);stroke-width:1;" d="M 434.281, 526.283 L 440.449, 517.823 L 454.373, 498.612 L 457.369, 499.846 L 458.603, 498.26 L 465.124, 500.903 L 464.243, 502.137 L 468.297, 503.9 L 447.676, 531.923 L 434.281, 526.283 z "/>
<path style="fill:rgb(0, 255, 0);fill-opacity:0;fill-rule:evenodd;stroke:rgb(255, 0, 108);stroke-width:1;" d="M 489.271, 550.606 L 509.716, 522.582 L 523.287, 528.398 L 503.018, 556.422 L 489.271, 550.606 z "/>
<path style="fill:rgb(0, 0, 255);fill-opacity:0;fill-rule:evenodd;stroke:rgb(255, 0, 108);stroke-width:1;" d="M 269.839, 601.718 L 288.169, 576.515 L 291.87, 577.925 L 295.395, 573.166 L 302.093, 575.986 L 298.568, 580.745 L 302.093, 582.155 L 283.587, 607.535 L 269.839, 601.718 z "/>
<path style="fill:rgb(255, 255, 0);fill-opacity:0;fill-rule:evenodd;stroke:rgb(255, 0, 108);stroke-width:1;" d="M 283.587, 607.535 L 302.093, 582.155 L 306.323, 584.093 L 309.848, 579.158 L 315.664, 581.626 L 312.139, 586.385 L 316.017, 587.971 L 297.51, 613.351 L 283.587, 607.535 z "/>
<path style="fill:rgb(255, 0, 0);fill-opacity:0;fill-rule:evenodd;stroke:rgb(255, 0, 108);stroke-width:1;" d="M 151.399, 630.271 L 157.215, 622.163 L 204.274, 641.904 L 198.458, 650.011 L 151.399, 630.271 z "/>
<path style="fill:rgb(0, 255, 0);fill-opacity:0;fill-rule:evenodd;stroke:rgb(255, 0, 108);stroke-width:1;" d="M 53.4038, 589.381 L 59.9251, 580.392 L 101.696, 597.665 L 95.1751, 606.83 L 53.4038, 589.381 z "/>
<path style="fill:rgb(0, 0, 255);fill-opacity:0;fill-rule:evenodd;stroke:rgb(255, 0, 108);stroke-width:1;" d="M 311.963, 619.343 L 330.293, 593.963 L 333.994, 595.55 L 337.519, 590.791 L 343.688, 593.435 L 340.163, 598.193 L 344.041, 599.78 L 342.102, 602.247 L 328.531, 620.93 L 325.534, 625.16 L 311.963, 619.343 z "/>
<path style="fill:rgb(255, 255, 0);fill-opacity:0;fill-rule:evenodd;stroke:rgb(255, 0, 108);stroke-width:1;" d="M 112.095, 681.031 L 118.44, 672.395 L 120.203, 673.1 L 152.633, 686.671 L 160.74, 690.02 L 154.395, 698.832 L 112.095, 681.031 z "/>
<path style="fill:rgb(255, 0, 0);fill-opacity:0;fill-rule:evenodd;stroke:rgb(255, 0, 108);stroke-width:1;" d="M 327.121, 547.786 L 345.451, 522.406 L 359.903, 528.398 L 341.397, 553.778 L 327.121, 547.786 z "/>
<path style="fill:rgb(0, 255, 0);fill-opacity:0;fill-rule:evenodd;stroke:rgb(255, 0, 108);stroke-width:1;" d="M 113.329, 522.406 L 121.084, 511.655 L 155.1, 525.755 L 147.345, 536.506 L 113.329, 522.406 z "/>
<path style="fill:rgb(0, 0, 255);fill-opacity:0;fill-rule:evenodd;stroke:rgb(255, 0, 108);stroke-width:1;" d="M 368.892, 565.235 L 387.398, 539.855 L 401.498, 545.847 L 383.168, 571.227 L 368.892, 565.235 z "/>
<path style="fill:rgb(255, 255, 0);fill-opacity:0;fill-rule:evenodd;stroke:rgb(255, 0, 108);stroke-width:1;" d="M 211.5, 388.103 L 215.73, 382.287 L 218.55, 383.344 L 220.665, 380.348 L 221.37, 380.701 L 251.157, 393.214 L 243.049, 404.494 L 212.558, 391.628 L 214.144, 389.337 L 211.5, 388.103 z "/>
<path style="fill:rgb(255, 0, 0);fill-opacity:0;fill-rule:evenodd;stroke:rgb(255, 0, 108);stroke-width:1;" d="M 508.835, 689.139 L 516.413, 678.387 L 516.59, 678.211 L 549.196, 691.959 L 549.196, 692.135 L 541.441, 702.71 L 510.597, 689.844 L 508.835, 689.139 z "/>
<path style="fill:rgb(0, 255, 0);fill-opacity:0;fill-rule:evenodd;stroke:rgb(255, 0, 108);stroke-width:1;" d="M 354.968, 559.418 L 373.298, 534.038 L 387.398, 539.855 L 368.892, 565.235 L 354.968, 559.418 z "/>
<path style="fill:rgb(0, 0, 255);fill-opacity:0;fill-rule:evenodd;stroke:rgb(255, 0, 108);stroke-width:1;" d="M 479.048, 689.844 L 497.202, 664.64 L 511.302, 670.456 L 492.972, 695.66 L 479.048, 689.844 z "/>
<path style="fill:rgb(255, 255, 0);fill-opacity:0;fill-rule:evenodd;stroke:rgb(255, 0, 108);stroke-width:1;" d="M 121.084, 511.655 L 128.663, 501.256 L 162.679, 515.356 L 155.1, 525.755 L 121.084, 511.655 z "/>
<path style="fill:rgb(255, 0, 0);fill-opacity:0;fill-rule:evenodd;stroke:rgb(255, 0, 108);stroke-width:1;" d="M 313.197, 541.97 L 331.703, 516.59 L 345.451, 522.406 L 327.121, 547.786 L 313.197, 541.97 z "/>
<path style="fill:rgb(0, 255, 0);fill-opacity:0;fill-rule:evenodd;stroke:rgb(255, 0, 108);stroke-width:1;" d="M 59.9251, 580.392 L 66.0939, 571.932 L 79.4889, 577.572 L 107.865, 589.381 L 101.696, 597.665 L 59.9251, 580.392 z "/>
<path style="fill:rgb(0, 0, 255);fill-opacity:0;fill-rule:evenodd;stroke:rgb(255, 0, 108);stroke-width:1;" d="M 196.343, 409.077 L 200.573, 403.261 L 203.217, 404.318 L 204.979, 401.851 L 235.647, 414.717 L 227.715, 425.644 L 197.224, 412.778 L 198.987, 410.311 L 196.343, 409.077 z "/>
<path style="fill:rgb(255, 255, 0);fill-opacity:0;fill-rule:evenodd;stroke:rgb(255, 0, 108);stroke-width:1;" d="M 727.385, 650.011 L 743.952, 627.098 L 759.286, 633.62 L 742.542, 656.356 L 727.385, 650.011 z "/>
<path style="fill:rgb(255, 0, 0);fill-opacity:0;fill-rule:evenodd;stroke:rgb(255, 0, 108);stroke-width:1;" d="M 742.542, 656.356 L 759.286, 633.62 L 774.267, 639.965 L 757.7, 662.701 L 742.542, 656.356 z "/>
<path style="fill:rgb(0, 255, 0);fill-opacity:0;fill-rule:evenodd;stroke:rgb(255, 0, 108);stroke-width:1;" d="M 341.397, 553.778 L 359.903, 528.398 L 373.298, 534.038 L 354.968, 559.418 L 341.397, 553.778 z "/>
<path style="fill:rgb(0, 0, 255);fill-opacity:0;fill-rule:evenodd;stroke:rgb(255, 0, 108);stroke-width:1;" d="M 516.413, 678.387 L 524.168, 667.812 L 557.127, 681.736 L 549.725, 692.311 L 549.196, 692.135 L 549.196, 691.959 L 516.59, 678.211 L 516.413, 678.387 z "/>
<path style="fill:rgb(255, 255, 0);fill-opacity:0;fill-rule:evenodd;stroke:rgb(255, 0, 108);stroke-width:1;" d="M 757.7, 662.701 L 774.267, 639.965 L 789.249, 646.31 L 778.497, 661.115 L 772.681, 669.046 L 757.7, 662.701 z "/>
<path style="fill:rgb(255, 0, 0);fill-opacity:0;fill-rule:evenodd;stroke:rgb(255, 0, 108);stroke-width:1;" d="M 469.531, 730.557 L 475.876, 722.097 L 515.708, 739.017 L 509.363, 747.477 L 480.458, 735.14 L 469.531, 730.557 z "/>
<path style="fill:rgb(0, 255, 0);fill-opacity:0;fill-rule:evenodd;stroke:rgb(255, 0, 108);stroke-width:1;" d="M 236.704, 359.727 L 244.988, 348.271 L 274.774, 360.784 L 266.49, 372.241 L 236.704, 359.727 z "/>
<path style="fill:rgb(0, 0, 255);fill-opacity:0;fill-rule:evenodd;stroke:rgb(255, 0, 108);stroke-width:1;" d="M 471.998, 746.596 L 480.458, 735.14 L 509.363, 747.477 L 501.08, 758.934 L 471.998, 746.596 z "/>
<path style="fill:rgb(255, 255, 0);fill-opacity:0;fill-rule:evenodd;stroke:rgb(255, 0, 108);stroke-width:1;" d="M 463.538, 758.052 L 471.998, 746.596 L 501.08, 758.934 L 492.62, 770.39 L 463.538, 758.052 z "/>
<path style="fill:rgb(255, 0, 0);fill-opacity:0;fill-rule:evenodd;stroke:rgb(255, 0, 108);stroke-width:1;" d="M 203.922, 398.678 L 208.152, 392.686 L 210.795, 393.919 L 212.558, 391.628 L 243.049, 404.494 L 235.647, 414.717 L 204.979, 401.851 L 206.565, 399.736 L 203.922, 398.678 z "/>
<path style="fill:rgb(0, 255, 0);fill-opacity:0;fill-rule:evenodd;stroke:rgb(255, 0, 108);stroke-width:1;" d="M 164.97, 461.247 L 173.254, 449.791 L 201.454, 461.423 L 192.994, 473.056 L 164.97, 461.247 z "/>
<path style="fill:rgb(0, 0, 255);fill-opacity:0;fill-rule:evenodd;stroke:rgb(255, 0, 108);stroke-width:1;" d="M 228.949, 370.302 L 236.704, 359.727 L 266.49, 372.241 L 258.735, 382.816 L 228.949, 370.302 z "/>
<path style="fill:rgb(255, 255, 0);fill-opacity:0;fill-rule:evenodd;stroke:rgb(255, 0, 108);stroke-width:1;" d="M 559.066, 580.04 L 575.105, 558.185 L 589.381, 564.177 L 581.802, 574.576 L 573.518, 586.032 L 559.066, 580.04 z "/>
<path style="fill:rgb(255, 0, 0);fill-opacity:0;fill-rule:evenodd;stroke:rgb(255, 0, 108);stroke-width:1;" d="M 789.249, 93.9414 L 803.173, 74.7301 L 810.399, 64.5076 L 815.863, 66.7989 L 811.633, 72.7914 L 817.978, 75.6114 L 801.234, 98.8764 L 789.249, 93.9414 z "/>
<path style="fill:rgb(0, 255, 0);fill-opacity:0;fill-rule:evenodd;stroke:rgb(255, 0, 108);stroke-width:1;" d="M 221.37, 380.701 L 228.949, 370.302 L 258.735, 382.816 L 251.157, 393.214 L 221.37, 380.701 z "/>
<path style="fill:rgb(0, 0, 255);fill-opacity:0;fill-rule:evenodd;stroke:rgb(255, 0, 108);stroke-width:1;" d="M 150.341, 481.516 L 158.273, 470.588 L 186.473, 482.221 L 178.542, 493.325 L 150.341, 481.516 z "/>
<path style="fill:rgb(255, 255, 0);fill-opacity:0;fill-rule:evenodd;stroke:rgb(255, 0, 108);stroke-width:1;" d="M 444.327, 737.607 L 460.189, 716.105 L 474.466, 722.097 L 463.714, 736.726 L 458.427, 743.776 L 444.327, 737.607 z "/>
<path style="fill:rgb(255, 0, 0);fill-opacity:0;fill-rule:evenodd;stroke:rgb(255, 0, 108);stroke-width:1;" d="M 142.41, 492.62 L 150.341, 481.516 L 178.542, 493.325 L 170.61, 504.252 L 142.41, 492.62 z "/>
<path style="fill:rgb(0, 255, 0);fill-opacity:0;fill-rule:evenodd;stroke:rgb(255, 0, 108);stroke-width:1;" d="M 701.652, 584.093 L 709.936, 572.813 L 737.079, 584.27 L 728.971, 595.55 L 701.652, 584.093 z "/>
<path style="fill:rgb(0, 0, 255);fill-opacity:0;fill-rule:evenodd;stroke:rgb(255, 0, 108);stroke-width:1;" d="M 759.286, 579.687 L 766.689, 569.465 L 774.62, 558.537 L 789.072, 564.706 L 773.739, 585.856 L 759.286, 579.687 z "/>
<path style="fill:rgb(255, 255, 0);fill-opacity:0;fill-rule:evenodd;stroke:rgb(255, 0, 108);stroke-width:1;" d="M 244.988, 348.271 L 252.39, 338.048 L 282.177, 350.562 L 274.774, 360.784 L 244.988, 348.271 z "/>
<path style="fill:rgb(255, 0, 0);fill-opacity:0;fill-rule:evenodd;stroke:rgb(255, 0, 108);stroke-width:1;" d="M 126.019, 465.829 L 129.896, 460.366 L 144.701, 439.921 L 145.759, 438.334 L 156.863, 442.917 L 148.403, 454.549 L 137.123, 470.412 L 126.019, 465.829 z "/>
<path style="fill:rgb(0, 255, 0);fill-opacity:0;fill-rule:evenodd;stroke:rgb(255, 0, 108);stroke-width:1;" d="M 552.897, 638.026 L 560.652, 627.275 L 588.5, 638.907 L 580.568, 649.659 L 552.897, 638.026 z "/>
<path style="fill:rgb(0, 0, 255);fill-opacity:0;fill-rule:evenodd;stroke:rgb(255, 0, 108);stroke-width:1;" d="M 686.142, 605.243 L 694.074, 594.492 L 721.392, 605.948 L 713.461, 616.7 L 686.142, 605.243 z "/>
<path style="fill:rgb(255, 255, 0);fill-opacity:0;fill-rule:evenodd;stroke:rgb(255, 0, 108);stroke-width:1;" d="M 83.0139, 524.345 L 96.4089, 505.662 L 107.865, 510.421 L 102.401, 518 L 110.156, 521.172 L 102.225, 532.1 L 83.0139, 524.345 z "/>
<path style="fill:rgb(255, 0, 0);fill-opacity:0;fill-rule:evenodd;stroke:rgb(255, 0, 108);stroke-width:1;" d="M 537.387, 659.176 L 545.142, 648.601 L 572.99, 660.234 L 565.235, 670.809 L 537.387, 659.176 z "/>
<path style="fill:rgb(0, 255, 0);fill-opacity:0;fill-rule:evenodd;stroke:rgb(255, 0, 108);stroke-width:1;" d="M 602.776, 569.817 L 610.355, 559.595 L 638.202, 571.227 L 638.731, 571.403 L 631.152, 581.802 L 602.776, 569.817 z "/>
<path style="fill:rgb(0, 0, 255);fill-opacity:0;fill-rule:evenodd;stroke:rgb(255, 0, 108);stroke-width:1;" d="M 545.142, 648.601 L 552.897, 638.026 L 580.568, 649.659 L 572.99, 660.234 L 545.142, 648.601 z "/>
<path style="fill:rgb(255, 255, 0);fill-opacity:0;fill-rule:evenodd;stroke:rgb(255, 0, 108);stroke-width:1;" d="M 678.387, 615.818 L 686.142, 605.243 L 713.461, 616.7 L 705.706, 627.275 L 678.387, 615.818 z "/>
<path style="fill:rgb(255, 0, 0);fill-opacity:0;fill-rule:evenodd;stroke:rgb(255, 0, 108);stroke-width:1;" d="M 801.234, 98.8764 L 817.978, 75.6114 L 819.388, 73.6726 L 830.668, 78.2551 L 817.625, 96.4089 L 812.514, 103.635 L 801.234, 98.8764 z "/>
<path style="fill:rgb(0, 255, 0);fill-opacity:0;fill-rule:evenodd;stroke:rgb(255, 0, 108);stroke-width:1;" d="M 694.074, 594.492 L 701.652, 584.093 L 728.971, 595.55 L 721.392, 605.948 L 694.074, 594.492 z "/>
<path style="fill:rgb(0, 0, 255);fill-opacity:0;fill-rule:evenodd;stroke:rgb(255, 0, 108);stroke-width:1;" d="M 41.7713, 260.145 L 48.1163, 251.685 L 81.0751, 265.609 L 74.9064, 274.245 L 41.7713, 260.145 z "/>
<path style="fill:rgb(255, 255, 0);fill-opacity:0;fill-rule:evenodd;stroke:rgb(255, 0, 108);stroke-width:1;" d="M 709.936, 572.813 L 717.339, 562.591 L 744.481, 574.223 L 737.079, 584.27 L 709.936, 572.813 z "/>
<path style="fill:rgb(255, 0, 0);fill-opacity:0;fill-rule:evenodd;stroke:rgb(255, 0, 108);stroke-width:1;" d="M 715.224, 63.0976 L 729.147, 43.7101 L 734.611, 36.1313 L 744.657, 40.3613 L 739.194, 47.9401 L 725.27, 67.1514 L 715.224, 63.0976 z "/>
<path style="fill:rgb(0, 255, 0);fill-opacity:0;fill-rule:evenodd;stroke:rgb(255, 0, 108);stroke-width:1;" d="M 163.56, 613.351 L 169.905, 604.891 L 200.044, 617.581 L 193.875, 626.217 L 163.56, 613.351 z "/>
<path style="fill:rgb(0, 0, 255);fill-opacity:0;fill-rule:evenodd;stroke:rgb(255, 0, 108);stroke-width:1;" d="M 158.273, 470.588 L 164.97, 461.247 L 192.994, 473.056 L 186.473, 482.221 L 158.273, 470.588 z "/>
<path style="fill:rgb(255, 255, 0);fill-opacity:0;fill-rule:evenodd;stroke:rgb(255, 0, 108);stroke-width:1;" d="M 966.38, 71.5576 L 972.902, 62.7451 L 1001.28, 74.5539 L 994.757, 83.5426 L 966.38, 71.5576 z "/>
<path style="fill:rgb(255, 0, 0);fill-opacity:0;fill-rule:evenodd;stroke:rgb(255, 0, 108);stroke-width:1;" d="M 954.043, 88.8301 L 959.859, 80.7226 L 960.212, 80.1939 L 988.588, 92.0026 L 982.243, 100.815 L 954.043, 88.8301 z "/>
<path style="fill:rgb(0, 255, 0);fill-opacity:0;fill-rule:evenodd;stroke:rgb(255, 0, 108);stroke-width:1;" d="M 960.212, 80.1939 L 966.38, 71.5576 L 994.757, 83.5426 L 988.588, 92.0026 L 960.212, 80.1939 z "/>
<path style="fill:rgb(0, 0, 255);fill-opacity:0;fill-rule:evenodd;stroke:rgb(255, 0, 108);stroke-width:1;" d="M 42.8288, 628.332 L 44.5913, 625.865 L 48.9976, 619.872 L 77.1976, 631.681 L 71.2051, 640.141 L 42.8288, 628.332 z "/>
<path style="fill:rgb(255, 255, 0);fill-opacity:0;fill-rule:evenodd;stroke:rgb(255, 0, 108);stroke-width:1;" d="M 387.574, 495.616 L 400.793, 477.462 L 414.012, 482.926 L 400.617, 501.08 L 387.574, 495.616 z "/>
<path style="fill:rgb(255, 0, 0);fill-opacity:0;fill-rule:evenodd;stroke:rgb(255, 0, 108);stroke-width:1;" d="M 947.874, 97.2902 L 954.043, 88.8301 L 982.243, 100.815 L 976.25, 109.099 L 947.874, 97.2902 z "/>
<path style="fill:rgb(0, 255, 0);fill-opacity:0;fill-rule:evenodd;stroke:rgb(255, 0, 108);stroke-width:1;" d="M 426.526, 661.996 L 440.097, 643.314 L 452.787, 648.601 L 439.216, 667.46 L 426.526, 661.996 z "/>
<path style="fill:rgb(0, 0, 255);fill-opacity:0;fill-rule:evenodd;stroke:rgb(255, 0, 108);stroke-width:1;" d="M 550.606, 499.317 L 563.648, 481.163 L 576.867, 486.803 L 563.648, 504.781 L 550.606, 499.317 z "/>
<path style="fill:rgb(255, 255, 0);fill-opacity:0;fill-rule:evenodd;stroke:rgb(255, 0, 108);stroke-width:1;" d="M 337.872, 474.642 L 351.091, 456.488 L 364.133, 461.952 L 350.914, 480.106 L 337.872, 474.642 z "/>
<path style="fill:rgb(255, 0, 0);fill-opacity:0;fill-rule:evenodd;stroke:rgb(255, 0, 108);stroke-width:1;" d="M 328.531, 620.93 L 342.102, 602.247 L 354.792, 607.535 L 341.221, 626.217 L 328.531, 620.93 z "/>
<path style="fill:rgb(0, 255, 0);fill-opacity:0;fill-rule:evenodd;stroke:rgb(255, 0, 108);stroke-width:1;" d="M 941.881, 105.75 L 947.874, 97.2902 L 976.25, 109.099 L 970.082, 117.559 L 941.881, 105.75 z "/>
<path style="fill:rgb(0, 0, 255);fill-opacity:0;fill-rule:evenodd;stroke:rgb(255, 0, 108);stroke-width:1;" d="M 377.704, 641.551 L 391.276, 622.868 L 403.789, 628.156 L 390.218, 646.839 L 377.704, 641.551 z "/>
<path style="fill:rgb(255, 255, 0);fill-opacity:0;fill-rule:evenodd;stroke:rgb(255, 0, 108);stroke-width:1;" d="M 402.027, 651.774 L 415.598, 633.091 L 428.112, 638.378 L 414.541, 657.061 L 402.027, 651.774 z "/>
<path style="fill:rgb(255, 0, 0);fill-opacity:0;fill-rule:evenodd;stroke:rgb(255, 0, 108);stroke-width:1;" d="M 423.706, 731.086 L 437.277, 712.58 L 449.791, 717.867 L 436.396, 736.374 L 423.706, 731.086 z "/>
<path style="fill:rgb(0, 255, 0);fill-opacity:0;fill-rule:evenodd;stroke:rgb(255, 0, 108);stroke-width:1;" d="M 994.228, 328.354 L 1006.92, 310.553 L 1020.14, 316.193 L 1007.45, 333.818 L 994.228, 328.354 z "/>
<path style="fill:rgb(0, 0, 255);fill-opacity:0;fill-rule:evenodd;stroke:rgb(255, 0, 108);stroke-width:1;" d="M 589.028, 515.532 L 602.247, 497.555 L 615.113, 502.842 L 607.535, 513.241 L 601.895, 520.996 L 589.028, 515.532 z "/>
<path style="fill:rgb(255, 255, 0);fill-opacity:0;fill-rule:evenodd;stroke:rgb(255, 0, 108);stroke-width:1;" d="M 563.648, 504.781 L 576.867, 486.803 L 589.733, 492.091 L 576.515, 510.245 L 563.648, 504.781 z "/>
<path style="fill:rgb(255, 0, 0);fill-opacity:0;fill-rule:evenodd;stroke:rgb(255, 0, 108);stroke-width:1;" d="M 353.558, 631.505 L 367.129, 612.646 L 379.291, 617.757 L 365.719, 636.616 L 353.558, 631.505 z "/>
<path style="fill:rgb(0, 255, 0);fill-opacity:0;fill-rule:evenodd;stroke:rgb(255, 0, 108);stroke-width:1;" d="M 341.221, 626.217 L 354.792, 607.535 L 367.129, 612.646 L 353.558, 631.505 L 341.221, 626.217 z "/>
<path style="fill:rgb(0, 0, 255);fill-opacity:0;fill-rule:evenodd;stroke:rgb(255, 0, 108);stroke-width:1;" d="M 537.916, 493.853 L 538.268, 493.325 L 549.372, 478.343 L 551.135, 475.876 L 563.648, 481.163 L 550.606, 499.317 L 537.916, 493.853 z "/>
<path style="fill:rgb(255, 255, 0);fill-opacity:0;fill-rule:evenodd;stroke:rgb(255, 0, 108);stroke-width:1;" d="M 576.515, 510.245 L 589.733, 492.091 L 602.247, 497.555 L 589.028, 515.532 L 576.515, 510.245 z "/>
<path style="fill:rgb(255, 0, 0);fill-opacity:0;fill-rule:evenodd;stroke:rgb(255, 0, 108);stroke-width:1;" d="M 399.383, 720.864 L 412.954, 702.357 L 425.116, 707.469 L 411.721, 725.975 L 399.383, 720.864 z "/>
<path style="fill:rgb(0, 255, 0);fill-opacity:0;fill-rule:evenodd;stroke:rgb(255, 0, 108);stroke-width:1;" d="M 414.541, 657.061 L 428.112, 638.378 L 440.097, 643.314 L 426.526, 661.996 L 414.541, 657.061 z "/>
<path style="fill:rgb(0, 0, 255);fill-opacity:0;fill-rule:evenodd;stroke:rgb(255, 0, 108);stroke-width:1;" d="M 411.721, 725.975 L 425.116, 707.469 L 437.277, 712.58 L 423.706, 731.086 L 411.721, 725.975 z "/>
<path style="fill:rgb(255, 255, 0);fill-opacity:0;fill-rule:evenodd;stroke:rgb(255, 0, 108);stroke-width:1;" d="M 363.076, 485.393 L 376.294, 467.063 L 388.632, 472.351 L 375.413, 490.505 L 363.076, 485.393 z "/>
<path style="fill:rgb(255, 0, 0);fill-opacity:0;fill-rule:evenodd;stroke:rgb(255, 0, 108);stroke-width:1;" d="M 365.719, 636.616 L 379.291, 617.757 L 391.276, 622.868 L 377.704, 641.551 L 365.719, 636.616 z "/>
<path style="fill:rgb(0, 255, 0);fill-opacity:0;fill-rule:evenodd;stroke:rgb(255, 0, 108);stroke-width:1;" d="M 403.966, 437.806 L 416.656, 420.533 L 417.537, 419.299 L 429.522, 424.411 L 416.127, 442.917 L 403.966, 437.806 z "/>
<path style="fill:rgb(0, 0, 255);fill-opacity:0;fill-rule:evenodd;stroke:rgb(255, 0, 108);stroke-width:1;" d="M 387.398, 715.752 L 400.969, 697.246 L 412.954, 702.357 L 399.383, 720.864 L 387.398, 715.752 z "/>
<path style="fill:rgb(255, 255, 0);fill-opacity:0;fill-rule:evenodd;stroke:rgb(255, 0, 108);stroke-width:1;" d="M 416.127, 442.917 L 429.522, 424.411 L 441.507, 429.522 L 427.936, 448.028 L 416.127, 442.917 z "/>
<path style="fill:rgb(255, 0, 0);fill-opacity:0;fill-rule:evenodd;stroke:rgb(255, 0, 108);stroke-width:1;" d="M 350.914, 480.106 L 364.133, 461.952 L 376.294, 467.063 L 363.076, 485.393 L 350.914, 480.106 z "/>
<path style="fill:rgb(0, 255, 0);fill-opacity:0;fill-rule:evenodd;stroke:rgb(255, 0, 108);stroke-width:1;" d="M 439.216, 667.46 L 452.787, 648.601 L 464.596, 653.536 L 451.024, 672.395 L 439.216, 667.46 z "/>
<path style="fill:rgb(0, 0, 255);fill-opacity:0;fill-rule:evenodd;stroke:rgb(255, 0, 108);stroke-width:1;" d="M 439.392, 452.787 L 452.963, 434.281 L 464.948, 439.216 L 451.377, 457.898 L 439.392, 452.787 z "/>
<path style="fill:rgb(255, 255, 0);fill-opacity:0;fill-rule:evenodd;stroke:rgb(255, 0, 108);stroke-width:1;" d="M 390.218, 646.839 L 403.789, 628.156 L 415.598, 633.091 L 402.027, 651.774 L 390.218, 646.839 z "/>
<path style="fill:rgb(255, 0, 0);fill-opacity:0;fill-rule:evenodd;stroke:rgb(255, 0, 108);stroke-width:1;" d="M 375.413, 490.505 L 388.632, 472.351 L 400.793, 477.462 L 387.574, 495.616 L 375.413, 490.505 z "/>
<path style="fill:rgb(0, 255, 0);fill-opacity:0;fill-rule:evenodd;stroke:rgb(255, 0, 108);stroke-width:1;" d="M 451.377, 457.898 L 464.948, 439.216 L 476.581, 444.327 L 463.186, 462.833 L 451.377, 457.898 z "/>
<path style="fill:rgb(0, 0, 255);fill-opacity:0;fill-rule:evenodd;stroke:rgb(255, 0, 108);stroke-width:1;" d="M 486.275, 472.527 L 499.846, 454.021 L 511.478, 458.956 L 498.083, 477.462 L 486.275, 472.527 z "/>
<path style="fill:rgb(255, 255, 0);fill-opacity:0;fill-rule:evenodd;stroke:rgb(255, 0, 108);stroke-width:1;" d="M 463.186, 462.833 L 476.581, 444.327 L 488.213, 449.086 L 474.818, 467.768 L 463.186, 462.833 z "/>
<path style="fill:rgb(255, 0, 0);fill-opacity:0;fill-rule:evenodd;stroke:rgb(255, 0, 108);stroke-width:1;" d="M 498.083, 477.462 L 511.478, 458.956 L 523.111, 463.891 L 521.348, 466.182 L 510.245, 481.516 L 509.54, 482.397 L 498.083, 477.462 z "/>
<path style="fill:rgb(0, 255, 0);fill-opacity:0;fill-rule:evenodd;stroke:rgb(255, 0, 108);stroke-width:1;" d="M 40.7138, 423.353 L 55.6951, 402.732 L 66.0939, 407.138 L 51.2888, 427.583 L 40.7138, 423.353 z "/>
<path style="fill:rgb(0, 0, 255);fill-opacity:0;fill-rule:evenodd;stroke:rgb(255, 0, 108);stroke-width:1;" d="M 474.818, 467.768 L 488.213, 449.086 L 499.846, 454.021 L 486.275, 472.527 L 474.818, 467.768 z "/>
<path style="fill:rgb(255, 255, 0);fill-opacity:0;fill-rule:evenodd;stroke:rgb(255, 0, 108);stroke-width:1;" d="M 427.936, 448.028 L 441.507, 429.522 L 452.963, 434.281 L 439.392, 452.787 L 427.936, 448.028 z "/>
<path style="fill:rgb(255, 0, 0);fill-opacity:0;fill-rule:evenodd;stroke:rgb(255, 0, 108);stroke-width:1;" d="M 60.9826, 431.813 L 75.9639, 411.192 L 86.3626, 415.598 L 71.3814, 436.043 L 60.9826, 431.813 z "/>
<path style="fill:rgb(0, 255, 0);fill-opacity:0;fill-rule:evenodd;stroke:rgb(255, 0, 108);stroke-width:1;" d="M 100.11, 448.028 L 114.915, 427.583 L 125.314, 431.813 L 110.509, 452.434 L 100.11, 448.028 z "/>
<path style="fill:rgb(0, 0, 255);fill-opacity:0;fill-rule:evenodd;stroke:rgb(255, 0, 108);stroke-width:1;" d="M 119.674, 456.312 L 134.479, 435.691 L 144.701, 439.921 L 129.896, 460.366 L 119.674, 456.312 z "/>
<path style="fill:rgb(255, 255, 0);fill-opacity:0;fill-rule:evenodd;stroke:rgb(255, 0, 108);stroke-width:1;" d="M 400.617, 501.08 L 414.012, 482.926 L 425.292, 487.861 L 412.073, 506.015 L 400.617, 501.08 z "/>
<path style="fill:rgb(255, 0, 0);fill-opacity:0;fill-rule:evenodd;stroke:rgb(255, 0, 108);stroke-width:1;" d="M 51.2888, 427.583 L 66.0939, 407.138 L 75.9639, 411.192 L 60.9826, 431.813 L 51.2888, 427.583 z "/>
<path style="fill:rgb(0, 255, 0);fill-opacity:0;fill-rule:evenodd;stroke:rgb(255, 0, 108);stroke-width:1;" d="M 704.649, 58.6913 L 718.572, 39.4801 L 729.147, 43.7101 L 715.224, 63.0976 L 704.649, 58.6913 z "/>
<path style="fill:rgb(0, 0, 255);fill-opacity:0;fill-rule:evenodd;stroke:rgb(255, 0, 108);stroke-width:1;" d="M 590.262, 536.858 L 594.14, 531.571 L 596.783, 532.628 L 616.7, 541.088 L 618.462, 538.621 L 629.213, 543.027 L 623.573, 550.782 L 590.262, 536.858 z "/>
<path style="fill:rgb(255, 255, 0);fill-opacity:0;fill-rule:evenodd;stroke:rgb(255, 0, 108);stroke-width:1;" d="M 607.535, 513.241 L 615.113, 502.842 L 619.872, 496.497 L 631.505, 501.432 L 619.167, 518.176 L 607.535, 513.241 z "/>
<path style="fill:rgb(255, 0, 0);fill-opacity:0;fill-rule:evenodd;stroke:rgb(255, 0, 108);stroke-width:1;" d="M 694.602, 54.4613 L 708.526, 35.2501 L 718.572, 39.4801 L 704.649, 58.6913 L 694.602, 54.4613 z "/>
<path style="fill:rgb(0, 255, 0);fill-opacity:0;fill-rule:evenodd;stroke:rgb(255, 0, 108);stroke-width:1;" d="M 148.403, 454.549 L 156.863, 442.917 L 173.254, 449.791 L 164.97, 461.247 L 148.403, 454.549 z "/>
<path style="fill:rgb(0, 0, 255);fill-opacity:0;fill-rule:evenodd;stroke:rgb(255, 0, 108);stroke-width:1;" d="M 71.3814, 436.043 L 86.3626, 415.598 L 95.5276, 419.476 L 80.5464, 439.921 L 71.3814, 436.043 z "/>
<path style="fill:rgb(255, 255, 0);fill-opacity:0;fill-rule:evenodd;stroke:rgb(255, 0, 108);stroke-width:1;" d="M 110.509, 452.434 L 125.314, 431.813 L 134.479, 435.691 L 119.674, 456.312 L 110.509, 452.434 z "/>
<path style="fill:rgb(255, 0, 0);fill-opacity:0;fill-rule:evenodd;stroke:rgb(255, 0, 108);stroke-width:1;" d="M 752.412, 78.6076 L 766.336, 59.3963 L 775.854, 63.2738 L 762.106, 82.4851 L 752.412, 78.6076 z "/>
<path style="fill:rgb(0, 255, 0);fill-opacity:0;fill-rule:evenodd;stroke:rgb(255, 0, 108);stroke-width:1;" d="M 619.167, 518.176 L 631.505, 501.432 L 642.256, 506.015 L 630.095, 522.758 L 619.167, 518.176 z "/>
<path style="fill:rgb(0, 0, 255);fill-opacity:0;fill-rule:evenodd;stroke:rgb(255, 0, 108);stroke-width:1;" d="M 630.095, 522.758 L 642.256, 506.015 L 653.007, 510.421 L 640.67, 527.341 L 630.095, 522.758 z "/>
<path style="fill:rgb(255, 255, 0);fill-opacity:0;fill-rule:evenodd;stroke:rgb(255, 0, 108);stroke-width:1;" d="M 623.573, 550.782 L 629.213, 543.027 L 652.302, 552.897 L 646.662, 560.652 L 646.134, 560.3 L 644.019, 559.418 L 639.788, 557.656 L 623.573, 550.782 z "/>
<path style="fill:rgb(255, 0, 0);fill-opacity:0;fill-rule:evenodd;stroke:rgb(255, 0, 108);stroke-width:1;" d="M 952.28, 689.315 L 961.974, 676.272 L 975.545, 682.265 L 965.675, 695.131 L 952.28, 689.315 z "/>
<path style="fill:rgb(0, 255, 0);fill-opacity:0;fill-rule:evenodd;stroke:rgb(255, 0, 108);stroke-width:1;" d="M 734.435, 71.0289 L 748.359, 51.8176 L 757.347, 55.5188 L 743.6, 74.9064 L 734.435, 71.0289 z "/>
<path style="fill:rgb(0, 0, 255);fill-opacity:0;fill-rule:evenodd;stroke:rgb(255, 0, 108);stroke-width:1;" d="M 762.106, 82.4851 L 775.854, 63.2738 L 785.019, 67.1514 L 771.095, 86.3626 L 762.106, 82.4851 z "/>
<path style="fill:rgb(255, 255, 0);fill-opacity:0;fill-rule:evenodd;stroke:rgb(255, 0, 108);stroke-width:1;" d="M 725.27, 67.1514 L 739.194, 47.9401 L 748.359, 51.8176 L 734.435, 71.0289 L 725.27, 67.1514 z "/>
<path style="fill:rgb(255, 0, 0);fill-opacity:0;fill-rule:evenodd;stroke:rgb(255, 0, 108);stroke-width:1;" d="M 780.084, 90.0639 L 794.007, 70.8526 L 803.173, 74.7301 L 789.249, 93.9414 L 780.084, 90.0639 z "/>
<path style="fill:rgb(0, 255, 0);fill-opacity:0;fill-rule:evenodd;stroke:rgb(255, 0, 108);stroke-width:1;" d="M 771.095, 86.3626 L 785.019, 67.1514 L 794.007, 70.8526 L 780.084, 90.0639 L 771.095, 86.3626 z "/>
<path style="fill:rgb(0, 0, 255);fill-opacity:0;fill-rule:evenodd;stroke:rgb(255, 0, 108);stroke-width:1;" d="M 743.6, 74.9064 L 757.347, 55.5188 L 766.336, 59.3963 L 752.412, 78.6076 L 743.6, 74.9064 z "/>
<path style="fill:rgb(255, 255, 0);fill-opacity:0;fill-rule:evenodd;stroke:rgb(255, 0, 108);stroke-width:1;" d="M 618.462, 538.621 L 630.095, 522.758 L 640.67, 527.341 L 629.213, 543.027 L 618.462, 538.621 z "/>
<path style="fill:rgb(255, 0, 0);fill-opacity:0;fill-rule:evenodd;stroke:rgb(255, 0, 108);stroke-width:1;" d="M 921.084, 97.1139 L 931.13, 82.8376 L 942.41, 87.5964 L 932.188, 101.696 L 921.084, 97.1139 z "/>
<path style="fill:rgb(0, 255, 0);fill-opacity:0;fill-rule:evenodd;stroke:rgb(255, 0, 108);stroke-width:1;" d="M 894.646, 129.72 L 903.635, 117.206 L 914.915, 121.965 L 905.926, 134.479 L 894.646, 129.72 z "/>
<path style="fill:rgb(0, 0, 255);fill-opacity:0;fill-rule:evenodd;stroke:rgb(255, 0, 108);stroke-width:1;" d="M 961.974, 650.716 L 969.2, 640.67 L 983.653, 646.839 L 978.365, 654.065 L 972.549, 655.122 L 961.974, 650.716 z "/>
<path style="fill:rgb(255, 255, 0);fill-opacity:0;fill-rule:evenodd;stroke:rgb(255, 0, 108);stroke-width:1;" d="M 25.5563, 137.299 L 49.8788, 100.815 L 47.4113, 99.7577 L 59.3963, 81.6039 L 55.5188, 80.1939 L 56.0476, 79.3126 L 46.3538, 75.4351 L 44.4151, 78.2551 L 28.905, 72.2626 L 38.4226, 57.9863 L 61.8638, 66.9751 L 70.1476, 54.4613 L 84.9526, 60.1013 L 75.0826, 74.7301 L 78.4314, 75.9639 L 75.9639, 79.4889 L 102.93, 89.8876 L 94.4701, 102.578 L 73.3201, 94.2939 L 51.6413, 126.9 L 69.6189, 133.774 L 49.7026, 163.737 L 34.8976, 158.096 L 43.8863, 144.525 L 25.5563, 137.299 z "/>
<path style="fill:rgb(255, 0, 0);fill-opacity:0;fill-rule:evenodd;stroke:rgb(255, 0, 108);stroke-width:1;" d="M 0, 487.685 L 22.0313, 457.369 L 51.2888, 469.531 L 53.2276, 467.063 L 91.4739, 483.102 L 89.7114, 485.393 L 94.8226, 487.508 L 72.6151, 518.176 L 0, 487.685 z "/>
<path style="fill:rgb(0, 255, 0);fill-opacity:0;fill-rule:evenodd;stroke:rgb(255, 0, 108);stroke-width:1;" d="M 26.4375, 354.087 L 47.4113, 325.358 L 62.9213, 331.879 L 43.1813, 358.846 L 41.7713, 360.608 L 26.4375, 354.087 z "/>
<path style="fill:rgb(0, 0, 255);fill-opacity:0;fill-rule:evenodd;stroke:rgb(255, 0, 108);stroke-width:1;" d="M 24.4988, 609.65 L 30.4913, 601.366 L 35.7788, 603.657 L 83.1901, 623.397 L 77.1976, 631.681 L 48.9976, 619.872 L 24.4988, 609.65 z "/>
<path style="fill:rgb(255, 255, 0);fill-opacity:0;fill-rule:evenodd;stroke:rgb(255, 0, 108);stroke-width:1;" d="M 35.7788, 603.657 L 41.7713, 595.197 L 89.1826, 615.113 L 83.1901, 623.397 L 35.7788, 603.657 z "/>
<path style="fill:rgb(255, 0, 0);fill-opacity:0;fill-rule:evenodd;stroke:rgb(255, 0, 108);stroke-width:1;" d="M 24.8513, 283.41 L 33.4876, 271.778 L 66.4464, 285.702 L 57.9863, 297.334 L 24.8513, 283.41 z "/>
<path style="fill:rgb(0, 255, 0);fill-opacity:0;fill-rule:evenodd;stroke:rgb(255, 0, 108);stroke-width:1;" d="M 33.4876, 271.778 L 41.7713, 260.145 L 74.9064, 274.245 L 66.4464, 285.702 L 33.4876, 271.778 z "/>
<path style="fill:rgb(0, 0, 255);fill-opacity:0;fill-rule:evenodd;stroke:rgb(255, 0, 108);stroke-width:1;" d="M 29.9625, 646.134 L 36.4838, 637.145 L 64.8601, 648.954 L 58.3388, 657.942 L 29.9625, 646.134 z "/>
<path style="fill:rgb(255, 255, 0);fill-opacity:0;fill-rule:evenodd;stroke:rgb(255, 0, 108);stroke-width:1;" d="M 36.4838, 637.145 L 42.8288, 628.332 L 71.2051, 640.141 L 64.8601, 648.954 L 36.4838, 637.145 z "/>
<path style="fill:rgb(255, 0, 0);fill-opacity:0;fill-rule:evenodd;stroke:rgb(255, 0, 108);stroke-width:1;" d="M 30.6675, 419.123 L 45.6488, 398.502 L 55.6951, 402.732 L 40.7138, 423.353 L 30.6675, 419.123 z "/>
<path style="fill:rgb(0, 255, 0);fill-opacity:0;fill-rule:evenodd;stroke:rgb(255, 0, 108);stroke-width:1;" d="M 381.229, 78.2551 L 422.648, 21.6788 L 408.901, 15.8625 L 418.066, 3.34876 L 431.813, 9.16501 L 438.511, 0 L 507.248, 29.0813 L 449.967, 107.336 L 381.229, 78.2551 z M 421.062, 62.3926 L 446.618, 73.3201 L 467.239, 45.2963 L 441.683, 34.3688 L 421.062, 62.3926 z "/>
<path style="fill:rgb(0, 0, 255);fill-opacity:0;fill-rule:evenodd;stroke:rgb(255, 0, 108);stroke-width:1;" d="M 866.27, 66.4464 L 876.493, 52.1701 L 881.604, 54.2851 L 885.305, 53.4038 L 891.826, 44.4151 L 884.424, 41.4188 L 893.06, 29.4338 L 915.268, 38.7751 L 908.394, 48.1163 L 903.635, 46.1776 L 902.401, 48.1163 L 902.578, 49.8788 L 884.953, 74.2014 L 866.27, 66.4464 z "/>
<path style="fill:rgb(255, 255, 0);fill-opacity:0;fill-rule:evenodd;stroke:rgb(255, 0, 108);stroke-width:1;" d="M 848.293, 58.8676 L 865.918, 34.3688 L 867.68, 34.0163 L 869.443, 31.3725 L 864.508, 29.2575 L 871.029, 20.2688 L 893.06, 29.4338 L 884.424, 41.4188 L 877.55, 38.5988 L 871.029, 47.5876 L 870.853, 49.8788 L 876.493, 52.1701 L 866.27, 66.4464 L 848.293, 58.8676 z "/>
<path style="fill:rgb(255, 0, 0);fill-opacity:0;fill-rule:evenodd;stroke:rgb(255, 0, 108);stroke-width:1;" d="M 684.909, 50.4076 L 698.832, 31.1963 L 706.587, 20.6213 L 716.105, 24.4988 L 708.526, 35.2501 L 694.602, 54.4613 L 684.909, 50.4076 z "/>
<path style="fill:rgb(0, 255, 0);fill-opacity:0;fill-rule:evenodd;stroke:rgb(255, 0, 108);stroke-width:1;" d="M 674.686, 46.0013 L 688.61, 26.79 L 691.959, 22.2075 L 696.894, 24.3225 L 693.545, 28.905 L 698.832, 31.1963 L 684.909, 50.4076 L 674.686, 46.0013 z "/>
</svg>