<?xml version="1.0" encoding="iso-8859-1" standalone="no"?>
<!DOCTYPE svg PUBLIC "-//W3C//DTD SVG 1.0//EN" "http://www.w3.org/TR/2001/REC-SVG-20010904/DTD/svg10.dtd">
<svg xmlns="http://www.w3.org/2000/svg" width="1077" height="800">
<path style="fill:rgb(255, 0, 0);fill-opacity:0;fill-rule:evenodd;stroke:rgb(0, 15, 255);stroke-width:1;" d="M 38.104, 189.047 L 84.3074, 125.909 L 151.496, 154.257 L 207.087, 177.819 L 202.485, 184.261 L 228.992, 195.49 L 233.594, 194.57 L 254.579, 251.081 L 252.186, 251.634 L 253.843, 256.236 L 243.718, 270.225 L 218.684, 259.549 L 197.699, 203.221 L 196.042, 202.117 L 190.888, 200.092 L 188.863, 202.853 L 98.8495, 164.749 L 70.8698, 202.853 L 38.104, 189.047 z "/>
<path style="fill:rgb(0, 255, 0);fill-opacity:0;fill-rule:evenodd;stroke:rgb(0, 15, 255);stroke-width:1;" d="M 193.833, 97.3769 L 211.873, 73.2628 L 265.808, 96.4565 L 264.151, 98.6654 L 272.25, 101.979 L 345.513, 86.7004 L 364.473, 61.2977 L 396.503, 75.1035 L 368.523, 112.655 L 361.896, 109.894 L 354.165, 111.551 L 356.006, 113.76 L 282.006, 129.959 L 280.166, 126.277 L 252.002, 114.312 L 247.216, 120.387 L 193.833, 97.3769 z "/>
<path style="fill:rgb(0, 0, 255);fill-opacity:0;fill-rule:evenodd;stroke:rgb(0, 15, 255);stroke-width:1;" d="M 804.234, 300.046 L 806.075, 297.653 L 808.099, 298.573 L 812.149, 292.867 L 810.492, 292.131 L 809.02, 289.185 L 812.885, 284.031 L 817.487, 282.559 L 814.358, 281.27 L 819.88, 273.723 L 824.85, 275.932 L 836.815, 259.181 L 909.158, 289.554 L 876.392, 334.468 L 859.641, 327.474 L 857.8, 323.056 L 822.642, 308.329 L 819.696, 307.593 L 815.278, 305.752 L 813.069, 303.728 L 804.234, 300.046 z M 857.616, 304.832 L 874.183, 311.827 L 882.835, 300.046 L 866.452, 293.051 L 857.616, 304.832 z "/>
<path style="fill:rgb(255, 255, 0);fill-opacity:0;fill-rule:evenodd;stroke:rgb(0, 15, 255);stroke-width:1;" d="M 961.252, 369.627 L 976.162, 349.379 L 980.764, 351.22 L 980.028, 352.324 L 1002.12, 361.712 L 1001.56, 362.448 L 1004.88, 363.921 L 1010.22, 356.558 L 1006.9, 355.085 L 1006.35, 355.821 L 982.052, 345.329 L 996.41, 326.001 L 1053.47, 350.483 L 1040.4, 368.339 L 1024.76, 361.528 L 1019.79, 368.155 L 1033.96, 374.229 L 1021.45, 391.164 L 984.077, 375.15 L 981.684, 378.279 L 963.461, 370.548 L 961.252, 369.627 z "/>
<path style="fill:rgb(255, 0, 0);fill-opacity:0;fill-rule:evenodd;stroke:rgb(0, 15, 255);stroke-width:1;" d="M 577.635, 248.688 L 586.286, 236.908 L 590.888, 238.932 L 609.848, 212.793 L 674.091, 239.853 L 655.131, 265.992 L 658.629, 267.464 L 650.161, 279.245 L 630.097, 270.778 L 647.032, 247.584 L 638.38, 244.087 L 621.445, 267.096 L 605.983, 260.653 L 622.918, 237.46 L 614.45, 233.962 L 597.699, 257.156 L 577.635, 248.688 z "/>
<path style="fill:rgb(0, 255, 0);fill-opacity:0;fill-rule:evenodd;stroke:rgb(0, 15, 255);stroke-width:1;" d="M 149.471, 323.608 L 155.177, 315.877 L 154.625, 312.747 L 167.142, 295.812 L 164.565, 294.708 L 166.038, 292.499 L 173.585, 282.191 L 231.569, 306.857 L 218.132, 325.265 L 207.823, 320.847 L 207.455, 321.583 L 206.167, 321.951 L 202.117, 320.11 L 202.669, 319.19 L 201.012, 316.981 L 179.659, 307.961 L 175.242, 313.852 L 214.266, 330.419 L 200.828, 348.642 L 190.152, 344.225 L 191.072, 342.936 L 157.202, 328.578 L 155.545, 326.185 L 149.471, 323.608 z "/>
<path style="fill:rgb(0, 0, 255);fill-opacity:0;fill-rule:evenodd;stroke:rgb(0, 15, 255);stroke-width:1;" d="M 708.514, 303.728 L 716.981, 291.947 L 717.717, 291.026 L 721.583, 292.683 L 739.807, 267.648 L 790.244, 288.817 L 772.02, 313.852 L 775.702, 315.324 L 766.314, 328.026 L 741.832, 317.717 L 751.22, 305.016 L 752.692, 305.752 L 765.578, 288.081 L 755.637, 283.847 L 752.508, 286.424 L 741.832, 301.15 L 742.936, 301.519 L 733.548, 314.22 L 708.514, 303.728 z "/>
<path style="fill:rgb(255, 255, 0);fill-opacity:0;fill-rule:evenodd;stroke:rgb(0, 15, 255);stroke-width:1;" d="M 98.8495, 300.966 L 117.257, 275.748 L 119.098, 276.484 L 120.755, 274.275 L 118.546, 272.25 L 115.416, 270.962 L 122.78, 260.838 L 173.585, 282.191 L 166.038, 292.499 L 161.804, 290.658 L 159.043, 290.474 L 157.386, 292.683 L 159.779, 293.787 L 141.371, 318.822 L 123.148, 311.275 L 141.555, 286.056 L 133.088, 282.375 L 114.496, 307.593 L 98.8495, 300.966 z "/>
<path style="fill:rgb(255, 0, 0);fill-opacity:0;fill-rule:evenodd;stroke:rgb(0, 15, 255);stroke-width:1;" d="M 918.546, 178.555 L 938.794, 150.943 L 993.465, 173.953 L 971.192, 204.326 L 958.675, 198.988 L 954.993, 197.515 L 957.018, 194.754 L 918.546, 178.555 z M 939.162, 176.898 L 944.317, 178.923 L 944.869, 178.371 L 946.526, 178.923 L 948.366, 176.53 L 951.312, 177.635 L 954.441, 173.217 L 944.869, 169.167 L 939.162, 176.898 z M 953.336, 184.998 L 961.804, 188.495 L 968.983, 178.739 L 960.515, 175.242 L 953.336, 184.998 z "/>
<path style="fill:rgb(0, 255, 0);fill-opacity:0;fill-rule:evenodd;stroke:rgb(0, 15, 255);stroke-width:1;" d="M 808.283, 147.63 L 816.751, 136.033 L 816.015, 133.272 L 817.487, 130.879 L 820.985, 130.143 L 827.428, 121.307 L 829.268, 122.227 L 831.109, 119.834 L 826.139, 117.809 L 832.214, 109.526 L 834.238, 106.949 L 876.76, 124.988 L 875.288, 127.197 L 868.845, 135.849 L 863.691, 133.64 L 861.85, 136.033 L 863.691, 136.769 L 857.248, 145.421 L 857.984, 147.814 L 856.328, 150.207 L 852.83, 151.312 L 844.363, 162.908 L 808.283, 147.63 z M 826.323, 141.74 L 831.477, 143.948 L 835.527, 143.028 L 845.835, 128.67 L 846.203, 126.093 L 839.577, 123.332 L 826.323, 141.74 z "/>
<path style="fill:rgb(0, 0, 255);fill-opacity:0;fill-rule:evenodd;stroke:rgb(0, 15, 255);stroke-width:1;" d="M 940.451, 401.841 L 963.461, 370.548 L 981.684, 378.279 L 982.789, 378.831 L 980.396, 381.96 L 1011.32, 395.214 L 1006.72, 401.473 L 1008.38, 402.209 L 992.361, 423.93 L 940.451, 401.841 z M 966.222, 400.184 L 980.396, 406.259 L 983.157, 404.97 L 989.047, 397.055 L 988.127, 394.294 L 977.266, 389.508 L 974.137, 389.324 L 966.222, 400.184 z "/>
<path style="fill:rgb(255, 255, 0);fill-opacity:0;fill-rule:evenodd;stroke:rgb(0, 15, 255);stroke-width:1;" d="M 802.025, 343.12 L 817.487, 321.767 L 821.169, 323.24 L 827.796, 314.036 L 859.641, 327.474 L 876.392, 334.468 L 869.765, 343.672 L 838.104, 330.419 L 832.766, 337.966 L 864.243, 351.22 L 854.303, 365.025 L 802.025, 343.12 z "/>
<path style="fill:rgb(255, 0, 0);fill-opacity:0;fill-rule:evenodd;stroke:rgb(0, 15, 255);stroke-width:1;" d="M 110.999, 372.757 L 127.566, 350.115 L 131.615, 349.379 L 143.396, 354.349 L 135.297, 365.393 L 139.899, 367.418 L 148.182, 356.006 L 165.854, 363.553 L 167.694, 361.16 L 169.719, 361.896 L 186.102, 368.891 L 177.635, 380.304 L 165.854, 375.334 L 163.277, 378.831 L 175.058, 383.801 L 166.038, 396.134 L 128.118, 380.12 L 127.382, 381.04 L 125.173, 380.856 L 120.387, 378.831 L 117.994, 377.174 L 118.73, 376.07 L 110.999, 372.757 z M 147.446, 372.204 L 150.943, 373.677 L 153.52, 372.941 L 156.466, 368.891 L 151.312, 366.866 L 147.446, 372.204 z "/>
<path style="fill:rgb(0, 255, 0);fill-opacity:0;fill-rule:evenodd;stroke:rgb(0, 15, 255);stroke-width:1;" d="M 650.161, 279.245 L 658.629, 267.464 L 662.862, 269.121 L 672.618, 255.683 L 723.056, 277.036 L 713.3, 290.474 L 716.981, 291.947 L 708.514, 303.728 L 683.111, 293.051 L 690.474, 283.111 L 692.499, 284.031 L 694.34, 281.454 L 693.603, 279.798 L 684.952, 276.116 L 682.743, 277.036 L 681.086, 279.061 L 682.927, 279.798 L 675.564, 289.922 L 650.161, 279.245 z "/>
<path style="fill:rgb(0, 0, 255);fill-opacity:0;fill-rule:evenodd;stroke:rgb(0, 15, 255);stroke-width:1;" d="M 1001.56, 424.298 L 1017.21, 403.313 L 1070.23, 425.955 L 1054.76, 446.94 L 1001.56, 424.298 z "/>
<path style="fill:rgb(255, 255, 0);fill-opacity:0;fill-rule:evenodd;stroke:rgb(0, 15, 255);stroke-width:1;" d="M 841.601, 226.047 L 843.074, 224.022 L 849.701, 215.002 L 856.88, 217.948 L 861.298, 211.873 L 856.512, 209.848 L 868.109, 194.202 L 865.716, 193.097 L 870.133, 187.023 L 898.481, 199.172 L 894.064, 205.246 L 891.855, 204.142 L 880.258, 219.972 L 875.472, 217.948 L 872.711, 221.813 L 871.054, 224.022 L 878.233, 226.967 L 869.949, 238.012 L 841.601, 226.047 z "/>
<path style="fill:rgb(255, 0, 0);fill-opacity:0;fill-rule:evenodd;stroke:rgb(0, 15, 255);stroke-width:1;" d="M 50.2531, 346.249 L 57.248, 336.677 L 62.2181, 338.702 L 69.029, 329.498 L 66.636, 328.578 L 70.6857, 322.872 L 73.0787, 323.976 L 76.0239, 319.926 L 77.3125, 320.479 L 78.9692, 318.454 L 74.9195, 316.797 L 81.7303, 307.593 L 106.581, 318.086 L 99.954, 327.289 L 96.0884, 325.633 L 94.6157, 327.658 L 96.2724, 328.394 L 82.4666, 347.17 L 86.3323, 348.827 L 79.3373, 358.583 L 50.2531, 346.249 z "/>
<path style="fill:rgb(0, 255, 0);fill-opacity:0;fill-rule:evenodd;stroke:rgb(0, 15, 255);stroke-width:1;" d="M 79.3373, 358.583 L 86.3323, 348.827 L 90.7501, 350.667 L 104.74, 331.523 L 106.213, 332.075 L 107.501, 330.419 L 103.636, 328.946 L 110.446, 319.742 L 134.745, 330.051 L 128.118, 339.254 L 124.436, 337.598 L 123.148, 339.439 L 124.988, 340.175 L 121.675, 344.777 L 123.332, 345.513 L 119.466, 350.851 L 117.809, 350.115 L 110.999, 359.319 L 115.232, 361.16 L 108.053, 370.732 L 79.3373, 358.583 z "/>
<path style="fill:rgb(0, 0, 255);fill-opacity:0;fill-rule:evenodd;stroke:rgb(0, 15, 255);stroke-width:1;" d="M 925.909, 110.446 L 928.118, 107.317 L 944.501, 84.8596 L 953.336, 72.8946 L 956.098, 72.3424 L 960.147, 73.9991 L 960.515, 75.8399 L 971.376, 80.4418 L 974.137, 81.5462 L 976.898, 80.994 L 980.948, 82.6507 L 982.052, 84.8596 L 954.809, 122.595 L 925.909, 110.446 z M 944.869, 100.506 L 955.177, 104.924 L 966.958, 88.7253 L 956.65, 84.3074 L 944.869, 100.506 z "/>
<path style="fill:rgb(255, 255, 0);fill-opacity:0;fill-rule:evenodd;stroke:rgb(0, 15, 255);stroke-width:1;" d="M 972.665, 111.183 L 984.077, 95.5361 L 991.809, 98.6654 L 994.017, 98.4814 L 1018.32, 108.606 L 1019.79, 106.581 L 1021.63, 107.317 L 1036.91, 113.76 L 1020.71, 136.217 L 1005.43, 129.775 L 1003.41, 128.854 L 1005.25, 126.461 L 980.948, 116.337 L 980.396, 114.496 L 972.665, 111.183 z M 1001.56, 116.337 L 1010.03, 120.018 L 1013.71, 115.048 L 1005.25, 111.367 L 1001.56, 116.337 z "/>
<path style="fill:rgb(255, 0, 0);fill-opacity:0;fill-rule:evenodd;stroke:rgb(0, 15, 255);stroke-width:1;" d="M 80.994, 414.358 L 92.2227, 398.896 L 144.869, 420.985 L 145.789, 421.537 L 146.157, 422.457 L 145.973, 423.378 L 133.824, 440.129 L 117.257, 432.95 L 120.387, 428.716 L 114.312, 426.139 L 112.839, 428.164 L 109.342, 426.691 L 108.422, 427.98 L 104.004, 425.955 L 105.108, 424.482 L 80.994, 414.358 z "/>
<path style="fill:rgb(0, 255, 0);fill-opacity:0;fill-rule:evenodd;stroke:rgb(0, 15, 255);stroke-width:1;" d="M 27.2434, 487.805 L 38.4722, 472.342 L 70.8698, 485.964 L 69.7653, 487.621 L 75.6558, 490.198 L 78.7851, 485.964 L 95.352, 492.959 L 83.0189, 509.71 L 82.6507, 510.078 L 81.3622, 510.262 L 80.2577, 510.262 L 79.1532, 509.71 L 27.2434, 487.805 z "/>
<path style="fill:rgb(0, 0, 255);fill-opacity:0;fill-rule:evenodd;stroke:rgb(0, 15, 255);stroke-width:1;" d="M 725.081, 176.714 L 732.812, 166.222 L 740.359, 169.535 L 752.508, 152.968 L 744.961, 149.655 L 753.06, 138.61 L 777.911, 149.103 L 758.03, 175.978 L 762.448, 178.003 L 762.08, 178.555 L 754.349, 189.047 L 725.081, 176.714 z "/>
<path style="fill:rgb(255, 255, 0);fill-opacity:0;fill-rule:evenodd;stroke:rgb(0, 15, 255);stroke-width:1;" d="M 989.6, 89.6457 L 1000.83, 74.1832 L 1035.25, 88.5412 L 1037.83, 85.0437 L 1039.12, 85.596 L 1053.29, 91.4864 L 1036.91, 113.76 L 1021.63, 107.317 L 1024.02, 104.004 L 989.6, 89.6457 z "/>
<path style="fill:rgb(255, 0, 0);fill-opacity:0;fill-rule:evenodd;stroke:rgb(0, 15, 255);stroke-width:1;" d="M 696.364, 164.565 L 704.648, 153.152 L 708.514, 154.809 L 728.21, 128.118 L 753.06, 138.61 L 744.961, 149.655 L 736.677, 146.157 L 724.528, 162.724 L 732.812, 166.222 L 725.081, 176.714 L 696.364, 164.565 z "/>
<path style="fill:rgb(0, 255, 0);fill-opacity:0;fill-rule:evenodd;stroke:rgb(0, 15, 255);stroke-width:1;" d="M 638.012, 140.267 L 645.927, 129.406 L 650.713, 131.431 L 653.843, 131.615 L 655.499, 129.406 L 653.106, 126.461 L 669.857, 103.636 L 690.474, 112.287 L 687.713, 116.153 L 673.723, 135.113 L 669.489, 135.297 L 668.017, 137.506 L 670.778, 139.899 L 674.643, 141.74 L 666.912, 152.416 L 638.012, 140.267 z "/>
<path style="fill:rgb(0, 0, 255);fill-opacity:0;fill-rule:evenodd;stroke:rgb(0, 15, 255);stroke-width:1;" d="M 677.589, 242.614 L 685.688, 231.385 L 691.21, 233.778 L 693.235, 233.778 L 705.384, 217.211 L 698.205, 214.266 L 705.568, 203.958 L 734.468, 216.291 L 727.105, 226.415 L 719.374, 223.102 L 706.857, 240.405 L 714.588, 243.534 L 706.489, 254.763 L 677.589, 242.614 z "/>
<path style="fill:rgb(255, 255, 0);fill-opacity:0;fill-rule:evenodd;stroke:rgb(0, 15, 255);stroke-width:1;" d="M 706.489, 254.763 L 714.588, 243.534 L 722.503, 246.848 L 735.021, 229.728 L 727.105, 226.415 L 734.468, 216.291 L 763.553, 228.44 L 757.478, 236.908 L 756.19, 238.564 L 748.642, 235.435 L 736.493, 252.002 L 738.15, 253.474 L 743.672, 255.867 L 735.389, 266.912 L 706.489, 254.763 z "/>
<path style="fill:rgb(255, 0, 0);fill-opacity:0;fill-rule:evenodd;stroke:rgb(0, 15, 255);stroke-width:1;" d="M 31.8454, 423.746 L 38.8403, 413.99 L 46.0193, 416.935 L 54.3028, 405.522 L 54.855, 404.05 L 58.5366, 398.896 L 57.064, 397.791 L 52.278, 395.766 L 60.0092, 385.09 L 88.9093, 397.423 L 81.1781, 407.915 L 76.0239, 405.706 L 73.6309, 405.338 L 69.9494, 410.492 L 68.2927, 411.229 L 59.8251, 422.826 L 67.7405, 426.139 L 60.7455, 435.895 L 31.8454, 423.746 z "/>
<path style="fill:rgb(0, 255, 0);fill-opacity:0;fill-rule:evenodd;stroke:rgb(0, 15, 255);stroke-width:1;" d="M 754.349, 189.047 L 762.08, 178.555 L 769.075, 181.684 L 782.513, 163.461 L 775.15, 160.515 L 782.145, 150.943 L 811.413, 163.277 L 804.418, 172.849 L 796.503, 169.535 L 783.249, 187.575 L 791.164, 190.888 L 783.433, 201.381 L 754.349, 189.047 z "/>
<path style="fill:rgb(0, 0, 255);fill-opacity:0;fill-rule:evenodd;stroke:rgb(0, 15, 255);stroke-width:1;" d="M 475.84, 205.983 L 482.098, 197.515 L 486.148, 199.356 L 507.317, 170.272 L 531.799, 180.58 L 523.7, 191.809 L 516.153, 188.495 L 505.292, 203.59 L 512.839, 206.719 L 504.556, 217.948 L 475.84, 205.983 z "/>
<path style="fill:rgb(255, 255, 0);fill-opacity:0;fill-rule:evenodd;stroke:rgb(0, 15, 255);stroke-width:1;" d="M 783.433, 201.381 L 791.164, 190.888 L 798.527, 194.017 L 804.234, 186.286 L 811.781, 175.978 L 804.418, 172.849 L 811.413, 163.277 L 839.945, 175.242 L 832.95, 184.814 L 825.035, 181.5 L 811.781, 199.724 L 819.512, 203.037 L 813.254, 211.505 L 811.965, 213.53 L 783.433, 201.381 z "/>
<path style="fill:rgb(255, 0, 0);fill-opacity:0;fill-rule:evenodd;stroke:rgb(0, 15, 255);stroke-width:1;" d="M 541.371, 233.41 L 559.779, 208.191 L 568.983, 212.057 L 562.356, 221.077 L 561.252, 220.525 L 559.043, 223.654 L 568.983, 227.888 L 571.192, 224.758 L 570.272, 224.39 L 576.714, 215.37 L 592.177, 221.813 L 585.55, 230.833 L 583.709, 230.097 L 581.132, 233.594 L 587.023, 235.987 L 586.286, 236.908 L 577.635, 248.688 L 541.371, 233.41 z "/>
<path style="fill:rgb(0, 255, 0);fill-opacity:0;fill-rule:evenodd;stroke:rgb(0, 15, 255);stroke-width:1;" d="M 136.033, 347.538 L 139.715, 342.568 L 145.421, 345.145 L 147.446, 342.384 L 149.655, 341.832 L 149.471, 339.807 L 151.127, 337.414 L 145.237, 334.837 L 148.919, 329.867 L 165.117, 336.677 L 163.461, 338.886 L 181.132, 346.249 L 182.789, 344.225 L 198.988, 351.22 L 186.102, 368.891 L 169.719, 361.896 L 171.56, 359.503 L 153.889, 351.956 L 152.232, 354.349 L 136.033, 347.538 z "/>
<path style="fill:rgb(0, 0, 255);fill-opacity:0;fill-rule:evenodd;stroke:rgb(0, 15, 255);stroke-width:1;" d="M 504.556, 217.948 L 512.839, 206.719 L 513.76, 205.43 L 519.282, 207.639 L 522.043, 203.774 L 520.939, 203.405 L 527.382, 194.57 L 542.476, 200.828 L 535.481, 210.216 L 534.561, 209.848 L 532.536, 212.609 L 542.292, 216.843 L 551.127, 204.51 L 559.779, 208.191 L 541.371, 233.41 L 504.556, 217.948 z "/>
<path style="fill:rgb(255, 255, 0);fill-opacity:0;fill-rule:evenodd;stroke:rgb(0, 15, 255);stroke-width:1;" d="M 873.815, 239.669 L 881.73, 228.808 L 884.676, 230.097 L 887.437, 226.231 L 897.009, 230.281 L 898.481, 232.674 L 923.516, 243.35 L 927.566, 242.614 L 939.347, 247.584 L 928.302, 262.678 L 873.815, 239.669 z "/>
<path style="fill:rgb(255, 0, 0);fill-opacity:0;fill-rule:evenodd;stroke:rgb(0, 15, 255);stroke-width:1;" d="M 617.763, 200.46 L 624.758, 190.888 L 631.201, 193.649 L 635.435, 188.127 L 625.127, 183.709 L 626.047, 182.421 L 632.49, 173.401 L 669.121, 188.679 L 661.206, 199.54 L 650.161, 194.938 L 646.48, 200.092 L 653.106, 202.853 L 646.111, 212.425 L 617.763, 200.46 z "/>
<path style="fill:rgb(0, 255, 0);fill-opacity:0;fill-rule:evenodd;stroke:rgb(0, 15, 255);stroke-width:1;" d="M 654.395, 215.739 L 661.206, 206.351 L 667.832, 209.112 L 671.514, 203.958 L 661.206, 199.54 L 669.121, 188.679 L 705.568, 203.958 L 698.205, 214.266 L 697.653, 215.002 L 686.608, 210.216 L 682.927, 215.37 L 689.554, 218.132 L 682.743, 227.52 L 654.395, 215.739 z "/>
<path style="fill:rgb(0, 0, 255);fill-opacity:0;fill-rule:evenodd;stroke:rgb(0, 15, 255);stroke-width:1;" d="M 535.665, 182.789 L 554.625, 156.834 L 556.098, 155.361 L 556.282, 153.152 L 554.441, 152.416 L 553.336, 151.127 L 559.411, 142.66 L 583.709, 152.968 L 577.266, 161.988 L 573.769, 160.515 L 571.376, 161.804 L 571.376, 163.829 L 552.416, 189.784 L 535.665, 182.789 z "/>
<path style="fill:rgb(255, 255, 0);fill-opacity:0;fill-rule:evenodd;stroke:rgb(0, 15, 255);stroke-width:1;" d="M 559.963, 192.913 L 578.739, 166.958 L 580.58, 165.486 L 580.948, 163.461 L 577.266, 161.988 L 583.709, 152.968 L 608.007, 163.092 L 601.565, 172.112 L 597.883, 170.64 L 595.858, 171.744 L 595.306, 174.137 L 576.53, 199.908 L 559.963, 192.913 z "/>
<path style="fill:rgb(255, 0, 0);fill-opacity:0;fill-rule:evenodd;stroke:rgb(0, 15, 255);stroke-width:1;" d="M 74.5513, 290.658 L 92.2227, 266.36 L 94.2476, 267.28 L 96.4565, 264.151 L 94.7998, 262.31 L 91.3023, 260.838 L 98.8495, 250.713 L 122.78, 260.838 L 115.416, 270.962 L 111.367, 269.305 L 108.606, 269.305 L 106.949, 271.514 L 109.342, 272.618 L 90.9342, 297.653 L 74.5513, 290.658 z "/>
<path style="fill:rgb(0, 255, 0);fill-opacity:0;fill-rule:evenodd;stroke:rgb(0, 15, 255);stroke-width:1;" d="M 481.546, 135.849 L 495.904, 115.969 L 531.063, 130.695 L 524.988, 139.162 L 516.521, 150.575 L 481.546, 135.849 z "/>
<path style="fill:rgb(0, 0, 255);fill-opacity:0;fill-rule:evenodd;stroke:rgb(0, 15, 255);stroke-width:1;" d="M 584.814, 203.405 L 604.878, 175.61 L 605.062, 173.585 L 601.565, 172.112 L 608.007, 163.092 L 632.49, 173.401 L 626.047, 182.421 L 622.181, 180.764 L 620.341, 182.052 L 619.42, 184.814 L 600.828, 210.216 L 584.814, 203.405 z "/>
<path style="fill:rgb(255, 255, 0);fill-opacity:0;fill-rule:evenodd;stroke:rgb(0, 15, 255);stroke-width:1;" d="M 50.2531, 280.35 L 68.4768, 255.499 L 70.3175, 256.236 L 71.9742, 253.843 L 70.6857, 252.002 L 67.1882, 250.529 L 74.7354, 240.405 L 98.8495, 250.713 L 91.3023, 260.838 L 87.2526, 258.997 L 84.4915, 259.181 L 82.8348, 261.574 L 84.6756, 262.31 L 66.4519, 287.345 L 50.2531, 280.35 z "/>
<path style="fill:rgb(255, 0, 0);fill-opacity:0;fill-rule:evenodd;stroke:rgb(0, 15, 255);stroke-width:1;" d="M 691.578, 96.4565 L 709.25, 72.3424 L 710.723, 71.422 L 708.145, 68.4768 L 714.772, 59.641 L 716.797, 56.8799 L 736.493, 65.3474 L 728.026, 76.9443 L 724.16, 76.9443 L 724.344, 78.601 L 706.489, 102.899 L 691.578, 96.4565 z "/>
<path style="fill:rgb(0, 255, 0);fill-opacity:0;fill-rule:evenodd;stroke:rgb(0, 15, 255);stroke-width:1;" d="M 730.235, 113.392 L 749.195, 87.6208 L 747.538, 85.0437 L 756.006, 73.6309 L 775.334, 81.7303 L 773.309, 84.4915 L 767.05, 93.3272 L 762.816, 93.3272 L 763.185, 94.7998 L 744.961, 119.65 L 730.235, 113.392 z "/>
<path style="fill:rgb(0, 0, 255);fill-opacity:0;fill-rule:evenodd;stroke:rgb(0, 15, 255);stroke-width:1;" d="M 710.907, 105.292 L 729.867, 79.3373 L 728.026, 76.9443 L 736.493, 65.3474 L 756.006, 73.6309 L 747.538, 85.0437 L 743.304, 85.0437 L 743.488, 86.7004 L 725.449, 111.367 L 710.907, 105.292 z "/>
<path style="fill:rgb(255, 255, 0);fill-opacity:0;fill-rule:evenodd;stroke:rgb(0, 15, 255);stroke-width:1;" d="M 900.69, 207.639 L 902.715, 204.694 L 905.476, 203.59 L 908.974, 198.803 L 945.973, 214.45 L 948.919, 213.346 L 960.884, 218.316 L 950.207, 233.042 L 938.058, 228.072 L 937.874, 225.495 L 900.874, 209.848 L 900.69, 207.639 z "/>
<path style="fill:rgb(255, 0, 0);fill-opacity:0;fill-rule:evenodd;stroke:rgb(0, 15, 255);stroke-width:1;" d="M 890.382, 224.758 L 893.511, 220.525 L 893.511, 218.132 L 895.904, 215.002 L 897.009, 214.634 L 897.929, 213.346 L 935.297, 229.36 L 938.058, 228.072 L 950.207, 233.042 L 939.347, 247.584 L 927.566, 242.614 L 927.197, 240.405 L 890.382, 224.758 z "/>
<path style="fill:rgb(0, 255, 0);fill-opacity:0;fill-rule:evenodd;stroke:rgb(0, 15, 255);stroke-width:1;" d="M 515.969, 157.57 L 528.486, 140.635 L 524.988, 139.162 L 531.063, 130.695 L 559.411, 142.66 L 553.336, 151.127 L 549.471, 149.471 L 536.954, 166.406 L 515.969, 157.57 z "/>
<path style="fill:rgb(0, 0, 255);fill-opacity:0;fill-rule:evenodd;stroke:rgb(0, 15, 255);stroke-width:1;" d="M 748.827, 255.867 L 759.135, 241.878 L 761.528, 242.982 L 763.921, 239.669 L 757.478, 236.908 L 763.553, 228.44 L 793.005, 240.773 L 786.746, 249.609 L 778.463, 246.295 L 770.179, 257.708 L 778.279, 261.206 L 774.413, 266.544 L 748.827, 255.867 z "/>
<path style="fill:rgb(255, 255, 0);fill-opacity:0;fill-rule:evenodd;stroke:rgb(0, 15, 255);stroke-width:1;" d="M 774.413, 266.544 L 778.279, 261.206 L 785.642, 264.335 L 794.11, 252.738 L 786.746, 249.609 L 793.005, 240.773 L 821.169, 252.738 L 815.094, 261.206 L 809.572, 258.813 L 807.363, 262.126 L 809.572, 263.046 L 799.264, 277.036 L 774.413, 266.544 z "/>
<path style="fill:rgb(255, 0, 0);fill-opacity:0;fill-rule:evenodd;stroke:rgb(0, 15, 255);stroke-width:1;" d="M 913.208, 196.042 L 920.939, 185.55 L 940.083, 193.649 L 942.66, 193.097 L 945.421, 194.202 L 945.973, 196.042 L 955.361, 200.092 L 958.675, 198.988 L 971.192, 204.326 L 960.884, 218.316 L 948.919, 213.346 L 948.366, 213.162 L 947.63, 210.584 L 938.242, 206.535 L 935.849, 207.455 L 932.904, 206.167 L 932.352, 204.142 L 913.208, 196.042 z "/>
<path style="fill:rgb(0, 255, 0);fill-opacity:0;fill-rule:evenodd;stroke:rgb(0, 15, 255);stroke-width:1;" d="M 958.122, 123.884 L 965.117, 114.496 L 968.063, 113.576 L 981.132, 119.282 L 979.291, 121.675 L 980.764, 122.227 L 983.157, 121.859 L 989.047, 124.252 L 991.624, 123.516 L 995.122, 124.988 L 995.858, 127.013 L 1001.75, 129.406 L 1002.3, 131.247 L 1003.96, 131.799 L 1005.43, 129.775 L 1020.71, 136.217 L 1012.98, 146.894 L 958.122, 123.884 z "/>
<path style="fill:rgb(0, 0, 255);fill-opacity:0;fill-rule:evenodd;stroke:rgb(0, 15, 255);stroke-width:1;" d="M 66.636, 439.208 L 72.3424, 431.293 L 97.561, 441.97 L 99.5858, 439.208 L 118.914, 447.308 L 117.257, 449.701 L 124.62, 452.83 L 118.546, 461.114 L 68.8449, 440.129 L 66.636, 439.208 z "/>
<path style="fill:rgb(255, 255, 0);fill-opacity:0;fill-rule:evenodd;stroke:rgb(0, 15, 255);stroke-width:1;" d="M 43.0741, 470.686 L 48.7805, 462.77 L 73.9991, 473.447 L 75.6558, 471.054 L 94.6157, 478.969 L 92.5909, 481.73 L 100.874, 485.228 L 95.352, 492.959 L 78.7851, 485.964 L 71.2379, 482.835 L 73.6309, 479.521 L 70.5016, 478.233 L 68.1086, 481.362 L 43.0741, 470.686 z "/>
<path style="fill:rgb(255, 0, 0);fill-opacity:0;fill-rule:evenodd;stroke:rgb(0, 15, 255);stroke-width:1;" d="M 76.3921, 425.771 L 81.9144, 418.224 L 106.581, 428.532 L 104.004, 431.845 L 107.685, 433.502 L 110.262, 430.005 L 117.257, 432.95 L 133.824, 440.129 L 127.382, 448.78 L 120.018, 445.835 L 118.914, 447.308 L 99.5858, 439.208 L 101.611, 436.447 L 76.3921, 425.771 z "/>
<path style="fill:rgb(0, 255, 0);fill-opacity:0;fill-rule:evenodd;stroke:rgb(0, 15, 255);stroke-width:1;" d="M 52.6461, 457.432 L 58.3525, 449.885 L 60.9296, 450.989 L 74.5513, 456.696 L 83.387, 460.377 L 80.994, 463.875 L 84.4915, 465.347 L 86.8845, 461.85 L 97.0087, 466.084 L 110.63, 471.974 L 105.108, 479.521 L 96.8247, 476.024 L 94.6157, 478.969 L 75.6558, 471.054 L 77.8647, 468.109 L 52.6461, 457.432 z "/>
<path style="fill:rgb(0, 0, 255);fill-opacity:0;fill-rule:evenodd;stroke:rgb(0, 15, 255);stroke-width:1;" d="M 35.711, 340.175 L 43.8104, 328.946 L 45.4671, 329.682 L 44.9149, 330.419 L 50.4372, 332.628 L 53.1983, 328.946 L 57.064, 325.817 L 60.1933, 321.583 L 60.7455, 318.638 L 63.8748, 314.22 L 56.8799, 311.275 L 63.8748, 301.703 L 78.4169, 307.961 L 57.248, 336.677 L 50.2531, 346.249 L 35.711, 340.175 z "/>
<path style="fill:rgb(255, 255, 0);fill-opacity:0;fill-rule:evenodd;stroke:rgb(0, 15, 255);stroke-width:1;" d="M 64.9793, 445.467 L 68.8449, 440.129 L 118.546, 461.114 L 110.63, 471.974 L 97.0087, 466.084 L 99.5858, 462.402 L 85.596, 456.512 L 86.1482, 455.775 L 83.5711, 454.671 L 83.0189, 455.407 L 77.1284, 453.014 L 78.601, 451.173 L 64.9793, 445.467 z "/>
<path style="fill:rgb(255, 0, 0);fill-opacity:0;fill-rule:evenodd;stroke:rgb(0, 15, 255);stroke-width:1;" d="M 687.713, 555.729 L 687.713, 538.978 L 709.802, 538.978 L 709.802, 555.729 L 687.713, 555.729 z "/>
<path style="fill:rgb(0, 255, 0);fill-opacity:0;fill-rule:evenodd;stroke:rgb(0, 15, 255);stroke-width:1;" d="M 803.866, 129.038 L 821.537, 104.924 L 832.214, 109.526 L 826.139, 117.809 L 814.542, 133.64 L 803.866, 129.038 z "/>
<path style="fill:rgb(0, 0, 255);fill-opacity:0;fill-rule:evenodd;stroke:rgb(0, 15, 255);stroke-width:1;" d="M 813.254, 211.505 L 819.512, 203.037 L 831.477, 186.654 L 841.786, 191.072 L 823.562, 215.739 L 813.254, 211.505 z "/>
<path style="fill:rgb(255, 255, 0);fill-opacity:0;fill-rule:evenodd;stroke:rgb(0, 15, 255);stroke-width:1;" d="M 833.134, 219.788 L 851.173, 195.122 L 861.298, 199.356 L 849.701, 215.002 L 843.074, 224.022 L 833.134, 219.788 z "/>
<path style="fill:rgb(255, 0, 0);fill-opacity:0;fill-rule:evenodd;stroke:rgb(0, 15, 255);stroke-width:1;" d="M 906.765, 170.824 L 923.884, 147.63 L 927.382, 149.103 L 929.406, 146.526 L 935.665, 149.287 L 916.705, 175.058 L 906.765, 170.824 z "/>
<path style="fill:rgb(0, 255, 0);fill-opacity:0;fill-rule:evenodd;stroke:rgb(0, 15, 255);stroke-width:1;" d="M 755.637, 108.79 L 767.05, 93.3272 L 773.309, 84.4915 L 783.433, 88.9093 L 765.762, 113.023 L 755.637, 108.79 z "/>
<path style="fill:rgb(0, 0, 255);fill-opacity:0;fill-rule:evenodd;stroke:rgb(0, 15, 255);stroke-width:1;" d="M 886.148, 89.6457 L 902.531, 67.3723 L 913.208, 71.7902 L 897.009, 94.2476 L 886.148, 89.6457 z "/>
<path style="fill:rgb(255, 255, 0);fill-opacity:0;fill-rule:evenodd;stroke:rgb(0, 15, 255);stroke-width:1;" d="M 784.538, 120.939 L 802.209, 96.8247 L 812.149, 101.058 L 794.478, 125.173 L 784.538, 120.939 z "/>
<path style="fill:rgb(255, 0, 0);fill-opacity:0;fill-rule:evenodd;stroke:rgb(0, 15, 255);stroke-width:1;" d="M 876.576, 159.779 L 894.616, 135.297 L 904.372, 139.531 L 887.437, 162.724 L 886.516, 164.013 L 876.576, 159.779 z "/>
<path style="fill:rgb(0, 255, 0);fill-opacity:0;fill-rule:evenodd;stroke:rgb(0, 15, 255);stroke-width:1;" d="M 857.248, 151.68 L 868.845, 135.849 L 875.288, 127.197 L 885.044, 131.247 L 867.004, 155.729 L 857.248, 151.68 z "/>
<path style="fill:rgb(0, 0, 255);fill-opacity:0;fill-rule:evenodd;stroke:rgb(0, 15, 255);stroke-width:1;" d="M 897.009, 94.2476 L 913.208, 71.7902 L 923.884, 76.208 L 907.685, 98.6654 L 897.009, 94.2476 z "/>
<path style="fill:rgb(255, 255, 0);fill-opacity:0;fill-rule:evenodd;stroke:rgb(0, 15, 255);stroke-width:1;" d="M 823.562, 215.739 L 841.786, 191.072 L 851.173, 195.122 L 833.134, 219.788 L 823.562, 215.739 z "/>
<path style="fill:rgb(255, 0, 0);fill-opacity:0;fill-rule:evenodd;stroke:rgb(0, 15, 255);stroke-width:1;" d="M 867.004, 155.729 L 885.044, 131.247 L 894.616, 135.297 L 876.576, 159.779 L 867.004, 155.729 z "/>
<path style="fill:rgb(0, 255, 0);fill-opacity:0;fill-rule:evenodd;stroke:rgb(0, 15, 255);stroke-width:1;" d="M 917.625, 102.899 L 933.824, 80.4418 L 944.501, 84.8596 L 928.118, 107.317 L 917.625, 102.899 z "/>
<path style="fill:rgb(0, 0, 255);fill-opacity:0;fill-rule:evenodd;stroke:rgb(0, 15, 255);stroke-width:1;" d="M 774.965, 116.889 L 792.637, 92.775 L 802.209, 96.8247 L 784.538, 120.939 L 774.965, 116.889 z "/>
<path style="fill:rgb(255, 255, 0);fill-opacity:0;fill-rule:evenodd;stroke:rgb(0, 15, 255);stroke-width:1;" d="M 887.437, 162.724 L 904.372, 139.531 L 914.312, 143.58 L 897.193, 166.774 L 887.437, 162.724 z "/>
<path style="fill:rgb(255, 0, 0);fill-opacity:0;fill-rule:evenodd;stroke:rgb(0, 15, 255);stroke-width:1;" d="M 876.024, 85.4119 L 892.407, 63.1385 L 902.531, 67.3723 L 886.148, 89.6457 L 876.024, 85.4119 z "/>
<path style="fill:rgb(0, 255, 0);fill-opacity:0;fill-rule:evenodd;stroke:rgb(0, 15, 255);stroke-width:1;" d="M 794.478, 125.173 L 812.149, 101.058 L 821.537, 104.924 L 803.866, 129.038 L 794.478, 125.173 z "/>
<path style="fill:rgb(0, 0, 255);fill-opacity:0;fill-rule:evenodd;stroke:rgb(0, 15, 255);stroke-width:1;" d="M 897.193, 166.774 L 914.312, 143.58 L 923.884, 147.63 L 906.765, 170.824 L 897.193, 166.774 z "/>
<path style="fill:rgb(255, 255, 0);fill-opacity:0;fill-rule:evenodd;stroke:rgb(0, 15, 255);stroke-width:1;" d="M 907.685, 98.6654 L 923.884, 76.208 L 933.824, 80.4418 L 917.625, 102.899 L 907.685, 98.6654 z "/>
<path style="fill:rgb(255, 0, 0);fill-opacity:0;fill-rule:evenodd;stroke:rgb(0, 15, 255);stroke-width:1;" d="M 765.762, 113.023 L 783.433, 88.9093 L 792.637, 92.775 L 774.965, 116.889 L 765.762, 113.023 z "/>
<path style="fill:rgb(0, 255, 0);fill-opacity:0;fill-rule:evenodd;stroke:rgb(0, 15, 255);stroke-width:1;" d="M 179.107, 790.06 L 192.361, 787.115 L 196.226, 797.055 L 182.973, 800 L 179.107, 790.06 z "/>
<path style="fill:rgb(0, 0, 255);fill-opacity:0;fill-rule:evenodd;stroke:rgb(0, 15, 255);stroke-width:1;" d="M 60.9296, 450.989 L 64.9793, 445.467 L 78.601, 451.173 L 77.1284, 453.014 L 74.5513, 456.696 L 60.9296, 450.989 z "/>
<path style="fill:rgb(255, 255, 0);fill-opacity:0;fill-rule:evenodd;stroke:rgb(0, 15, 255);stroke-width:1;" d="M 0, 237.828 L 16.1988, 215.739 L 68.4768, 237.828 L 52.278, 259.917 L 50.4372, 259.181 L 39.5766, 254.579 L 36.6314, 253.474 L 40.6811, 247.952 L 40.6811, 245.927 L 34.4225, 243.166 L 33.318, 244.639 L 24.2982, 240.957 L 26.3231, 238.196 L 24.1141, 237.276 L 20.9848, 235.987 L 14.9103, 244.271 L 12.7013, 243.166 L 0, 237.828 z "/>
<path style="fill:rgb(255, 0, 0);fill-opacity:0;fill-rule:evenodd;stroke:rgb(0, 15, 255);stroke-width:1;" d="M 6.99494, 328.026 L 15.0943, 316.981 L 20.6167, 319.19 L 22.8256, 319.006 L 33.5021, 304.464 L 32.0295, 302.991 L 26.8753, 300.782 L 35.1588, 289.554 L 63.8748, 301.703 L 56.8799, 311.275 L 55.5913, 313.3 L 49.5168, 310.723 L 47.1238, 310.907 L 43.2582, 316.245 L 36.8155, 324.896 L 38.6562, 326.921 L 43.8104, 328.946 L 35.711, 340.175 L 6.99494, 328.026 z "/>
<path style="fill:rgb(0, 255, 0);fill-opacity:0;fill-rule:evenodd;stroke:rgb(0, 15, 255);stroke-width:1;" d="M 2.94524, 411.597 L 9.94017, 401.841 L 16.9351, 404.786 L 25.4027, 393.189 L 25.7708, 391.901 L 29.6364, 386.746 L 28.1638, 385.642 L 23.1937, 383.617 L 30.925, 372.941 L 60.0092, 385.09 L 52.278, 395.766 L 47.1238, 393.557 L 44.7308, 393.189 L 41.0492, 398.159 L 39.2085, 399.08 L 30.925, 410.676 L 38.8403, 413.99 L 31.8454, 423.746 L 2.94524, 411.597 z "/>
<path style="fill:rgb(0, 0, 255);fill-opacity:0;fill-rule:evenodd;stroke:rgb(0, 15, 255);stroke-width:1;" d="M 9.7561, 480.442 L 25.0345, 459.457 L 26.6912, 460.009 L 31.2931, 453.751 L 30.7409, 451.726 L 32.9498, 448.412 L 35.5269, 447.86 L 39.3925, 442.522 L 50.069, 447.124 L 46.2034, 452.462 L 46.9397, 454.303 L 44.5467, 457.616 L 42.1537, 458.168 L 37.5518, 464.611 L 39.2085, 465.347 L 35.8951, 469.949 L 33.1339, 468.845 L 28.9001, 474.735 L 32.0295, 476.024 L 24.2982, 486.516 L 9.7561, 480.442 z "/>
<path style="fill:rgb(255, 255, 0);fill-opacity:0;fill-rule:evenodd;stroke:rgb(0, 15, 255);stroke-width:1;" d="M 499.402, 71.7902 L 508.053, 60.0092 L 504.004, 58.3525 L 546.71, 0 L 577.266, 13.0695 L 542.844, 59.8251 L 613.162, 89.6457 L 602.853, 103.636 L 596.226, 112.839 L 499.402, 71.7902 z "/>
<path style="fill:rgb(255, 0, 0);fill-opacity:0;fill-rule:evenodd;stroke:rgb(0, 15, 255);stroke-width:1;" d="M 610.769, 47.3079 L 628.624, 23.1937 L 714.772, 59.641 L 708.145, 68.4768 L 697.101, 83.7552 L 610.769, 47.3079 z "/>
<path style="fill:rgb(0, 255, 0);fill-opacity:0;fill-rule:evenodd;stroke:rgb(0, 15, 255);stroke-width:1;" d="M 1001.01, 63.8748 L 1018.32, 39.9448 L 1016.11, 39.0244 L 1019.97, 33.5021 L 1077.77, 57.8003 L 1053.29, 91.4864 L 1039.12, 85.596 L 1038.93, 83.0189 L 1016.11, 73.4468 L 1024.02, 62.5863 L 1034.7, 67.0041 L 1031.57, 71.422 L 1039.48, 74.7354 L 1044.09, 68.4768 L 1047.22, 69.7653 L 1049.24, 67.0041 L 1023.47, 56.3277 L 1021.63, 58.9047 L 1022.18, 60.3774 L 1016.84, 67.7405 L 1012.79, 68.8449 L 1001.01, 63.8748 z "/>
</svg>