<?xml version="1.0" encoding="iso-8859-1" standalone="no"?>
<!DOCTYPE svg PUBLIC "-//W3C//DTD SVG 1.0//EN" "http://www.w3.org/TR/2001/REC-SVG-20010904/DTD/svg10.dtd">
<svg xmlns="http://www.w3.org/2000/svg" width="731" height="800">
<path style="fill:rgb(255, 0, 0);fill-opacity:0;fill-rule:evenodd;stroke:rgb(114, 0, 255);stroke-width:1;" d="M 65.1695, 725.357 L 77.746, 708.044 L 100.939, 717.844 L 102.246, 715.884 L 135.239, 729.931 L 136.219, 728.624 L 136.872, 728.951 L 143.079, 720.621 L 139.322, 718.661 L 137.362, 717.027 L 134.912, 714.087 L 133.932, 711.964 L 119.722, 706.084 L 132.299, 688.934 L 145.855, 694.814 L 149.939, 693.998 L 154.349, 694.161 L 157.289, 694.488 L 161.372, 695.958 L 168.069, 686.648 L 100.776, 658.065 L 150.755, 589.955 L 218.375, 618.538 L 224.091, 610.698 L 198.122, 599.592 L 214.782, 576.725 L 255.615, 594.038 L 244.835, 608.902 L 250.551, 611.352 L 251.368, 611.678 L 253.328, 609.065 L 251.205, 608.085 L 259.371, 597.142 L 261.331, 598.122 L 263.618, 595.018 L 306.411, 613.312 L 291.221, 634.381 L 318.171, 645.651 L 345.61, 639.608 L 346.917, 642.711 L 357.534, 640.425 L 359.494, 645.488 L 364.557, 644.345 L 367.334, 651.205 L 370.11, 650.551 L 362.107, 661.658 L 366.19, 663.291 L 312.617, 736.301 L 310.004, 735.321 L 303.797, 743.65 L 301.184, 742.507 L 298.734, 745.937 L 285.668, 740.384 L 288.444, 736.464 L 251.695, 720.947 L 251.041, 721.764 L 230.788, 713.107 L 199.755, 755.737 L 200.898, 756.064 L 199.918, 757.534 L 232.095, 771.09 L 230.298, 773.377 L 253.818, 783.34 L 241.731, 800 L 65.1695, 725.357 z M 215.598, 647.938 L 245.488, 661.168 L 247.938, 662.148 L 254.308, 653.818 L 253.165, 653.328 L 254.145, 652.185 L 253.001, 651.695 L 251.368, 653.818 L 248.755, 652.675 L 248.101, 653.491 L 220.661, 641.405 L 215.598, 647.938 z M 171.499, 709.514 L 172.805, 710.167 L 203.512, 723.234 L 209.065, 715.721 L 177.052, 702.001 L 171.499, 709.514 z M 152.225, 736.137 L 184.238, 749.694 L 189.792, 742.18 L 157.779, 728.461 L 152.225, 736.137 z "/>
<path style="fill:rgb(0, 255, 0);fill-opacity:0;fill-rule:evenodd;stroke:rgb(114, 0, 255);stroke-width:1;" d="M 374.847, 290.894 L 401.307, 254.145 L 410.453, 241.731 L 422.703, 224.581 L 460.923, 240.588 L 446.55, 260.514 L 474.153, 271.948 L 528.706, 196.488 L 534.259, 198.775 L 540.955, 189.465 L 471.049, 160.229 L 403.43, 131.972 L 398.04, 129.686 L 429.073, 86.7293 L 500.612, 116.456 L 521.029, 125.112 L 511.719, 138.016 L 595.672, 172.969 L 547.815, 239.281 L 555.819, 242.711 L 559.249, 237.975 L 607.758, 258.228 L 578.522, 298.734 L 557.125, 328.134 L 547.979, 328.951 L 545.855, 341.69 L 491.466, 318.987 L 465.006, 355.9 L 574.112, 401.47 L 563.005, 416.66 L 438.056, 364.557 L 426.296, 380.727 L 400.98, 370.274 L 415.68, 350.02 L 428.093, 332.707 L 422.866, 330.421 L 426.296, 325.847 L 433.156, 328.787 L 468.926, 279.298 L 441.323, 267.701 L 413.067, 306.901 L 374.847, 290.894 z "/>
<path style="fill:rgb(0, 0, 255);fill-opacity:0;fill-rule:evenodd;stroke:rgb(114, 0, 255);stroke-width:1;" d="M 190.608, 427.766 L 201.388, 412.74 L 245.651, 431.36 L 251.695, 422.703 L 250.388, 422.213 L 261.494, 407.023 L 262.964, 407.677 L 269.008, 399.183 L 224.908, 380.727 L 236.178, 365.374 L 250.551, 371.417 L 279.951, 383.667 L 281.421, 381.707 L 304.287, 391.18 L 284.851, 417.967 L 309.677, 428.42 L 321.111, 412.577 L 328.461, 415.843 L 329.767, 414.047 L 337.444, 417.15 L 336.137, 418.947 L 343.16, 421.886 L 331.891, 437.403 L 356.064, 447.366 L 375.01, 421.07 L 397.713, 430.543 L 395.917, 432.993 L 440.996, 451.776 L 431.033, 465.496 L 404.41, 500.286 L 394.773, 513.679 L 350.51, 495.059 L 349.04, 497.183 L 326.991, 488.036 L 345.774, 462.066 L 325.684, 453.573 L 318.824, 463.046 L 313.924, 460.923 L 305.757, 472.193 L 301.674, 471.539 L 299.714, 471.049 L 295.794, 469.906 L 292.201, 468.436 L 288.771, 466.476 L 285.668, 464.353 L 284.361, 463.209 L 292.691, 451.776 L 287.954, 449.816 L 294.488, 440.67 L 274.234, 432.013 L 255.451, 457.983 L 233.238, 448.673 L 234.871, 446.223 L 190.608, 427.766 z M 377.297, 463.373 L 391.507, 469.089 L 394.61, 464.353 L 380.563, 458.636 L 377.297, 463.373 z M 371.09, 472.519 L 385.137, 478.073 L 388.403, 473.336 L 374.194, 467.783 L 371.09, 472.519 z "/>
<path style="fill:rgb(255, 255, 0);fill-opacity:0;fill-rule:evenodd;stroke:rgb(114, 0, 255);stroke-width:1;" d="M 316.701, 247.285 L 403.43, 131.972 L 471.049, 160.229 L 469.253, 162.679 L 471.703, 163.822 L 463.536, 175.092 L 465.333, 175.909 L 465.823, 176.399 L 466.803, 177.542 L 467.456, 179.502 L 467.293, 180.972 L 458.146, 199.918 L 457.493, 201.225 L 456.513, 202.532 L 455.206, 203.512 L 454.39, 203.838 L 452.593, 204.328 L 450.633, 204.328 L 425.153, 200.408 L 423.52, 199.755 L 422.05, 198.612 L 421.396, 198.122 L 420.58, 196.652 L 420.253, 195.345 L 420.416, 194.528 L 410.453, 191.425 L 382.523, 229.971 L 410.453, 241.731 L 401.307, 254.145 L 373.54, 242.548 L 357.697, 264.598 L 350.837, 261.658 L 332.871, 254.145 L 316.701, 247.285 z "/>
<path style="fill:rgb(255, 0, 0);fill-opacity:0;fill-rule:evenodd;stroke:rgb(114, 0, 255);stroke-width:1;" d="M 350.347, 355.737 L 368.804, 330.421 L 410.453, 347.734 L 415.68, 350.02 L 400.817, 370.6 L 401.633, 371.09 L 400.98, 370.274 L 426.296, 380.727 L 438.056, 364.557 L 563.005, 416.66 L 579.012, 423.356 L 556.309, 455.043 L 414.537, 395.917 L 414.537, 395.753 L 360.964, 373.54 L 368.314, 363.414 L 350.347, 355.737 z "/>
<path style="fill:rgb(0, 255, 0);fill-opacity:0;fill-rule:evenodd;stroke:rgb(114, 0, 255);stroke-width:1;" d="M 202.042, 521.682 L 230.461, 482.156 L 376.97, 542.915 L 348.55, 582.605 L 202.042, 521.682 z "/>
<path style="fill:rgb(0, 0, 255);fill-opacity:0;fill-rule:evenodd;stroke:rgb(114, 0, 255);stroke-width:1;" d="M 281.584, 293.998 L 304.941, 261.821 L 319.314, 267.864 L 322.254, 263.781 L 325.031, 264.924 L 332.871, 254.145 L 350.837, 261.658 L 342.997, 272.438 L 370.927, 284.361 L 368.15, 288.118 L 374.847, 290.894 L 413.067, 306.901 L 433.646, 315.557 L 426.296, 325.847 L 422.866, 330.421 L 410.453, 347.734 L 368.804, 330.421 L 360.637, 326.991 L 281.584, 293.998 z "/>
<path style="fill:rgb(255, 255, 0);fill-opacity:0;fill-rule:evenodd;stroke:rgb(114, 0, 255);stroke-width:1;" d="M 55.5329, 380.727 L 90.9759, 345.12 L 87.5459, 343.814 L 93.5892, 335.157 L 119.396, 345.937 L 124.296, 339.241 L 111.882, 334.014 L 118.089, 325.521 L 115.149, 324.214 L 125.602, 309.841 L 159.085, 323.887 L 158.105, 325.357 L 163.985, 327.807 L 165.129, 326.174 L 179.175, 332.054 L 122.989, 409.147 L 55.5329, 380.727 z "/>
<path style="fill:rgb(255, 0, 0);fill-opacity:0;fill-rule:evenodd;stroke:rgb(114, 0, 255);stroke-width:1;" d="M 407.677, 620.988 L 442.303, 573.949 L 486.076, 592.568 L 488.853, 588.812 L 523.642, 603.675 L 520.212, 608.248 L 528.052, 611.678 L 517.599, 625.888 L 521.029, 627.358 L 497.509, 659.208 L 452.92, 640.425 L 457.33, 634.381 L 446.06, 629.645 L 441.65, 635.525 L 407.677, 620.988 z "/>
<path style="fill:rgb(0, 255, 0);fill-opacity:0;fill-rule:evenodd;stroke:rgb(114, 0, 255);stroke-width:1;" d="M 672.438, 517.762 L 690.731, 429.89 L 707.554, 431.85 L 707.881, 430.543 L 713.761, 431.196 L 715.067, 424.5 L 731.891, 426.46 L 722.417, 471.213 L 727.317, 471.866 L 724.377, 485.913 L 719.477, 485.259 L 709.841, 531.809 L 709.187, 532.789 L 708.044, 533.606 L 706.737, 534.259 L 705.104, 534.259 L 687.628, 532.299 L 687.954, 530.829 L 691.711, 531.319 L 693.344, 523.479 L 679.624, 521.682 L 677.501, 518.416 L 672.438, 517.762 z "/>
<path style="fill:rgb(0, 0, 255);fill-opacity:0;fill-rule:evenodd;stroke:rgb(114, 0, 255);stroke-width:1;" d="M 541.119, 371.09 L 545.855, 341.69 L 547.979, 328.951 L 557.125, 328.134 L 578.522, 298.734 L 585.382, 301.674 L 588.975, 296.774 L 585.708, 295.468 L 591.752, 287.138 L 603.022, 291.874 L 585.382, 390.527 L 541.119, 371.09 z "/>
<path style="fill:rgb(255, 255, 0);fill-opacity:0;fill-rule:evenodd;stroke:rgb(114, 0, 255);stroke-width:1;" d="M 254.961, 327.644 L 260.514, 319.967 L 257.411, 318.661 L 272.764, 297.428 L 351, 330.257 L 353.94, 326.337 L 360.637, 326.991 L 368.804, 330.421 L 350.347, 355.737 L 343.65, 364.884 L 254.961, 327.644 z "/>
<path style="fill:rgb(255, 0, 0);fill-opacity:0;fill-rule:evenodd;stroke:rgb(114, 0, 255);stroke-width:1;" d="M 235.525, 183.585 L 299.714, 95.5492 L 329.277, 108.126 L 265.251, 195.998 L 235.525, 183.585 z "/>
<path style="fill:rgb(0, 255, 0);fill-opacity:0;fill-rule:evenodd;stroke:rgb(114, 0, 255);stroke-width:1;" d="M 120.539, 514.659 L 140.629, 487.056 L 204.982, 514.169 L 195.835, 526.909 L 206.615, 531.482 L 207.105, 530.666 L 216.252, 534.586 L 205.472, 549.449 L 197.468, 546.019 L 197.958, 545.365 L 185.382, 539.976 L 184.238, 541.609 L 120.539, 514.659 z "/>
<path style="fill:rgb(0, 0, 255);fill-opacity:0;fill-rule:evenodd;stroke:rgb(114, 0, 255);stroke-width:1;" d="M 140.629, 487.056 L 161.699, 458.146 L 226.051, 485.423 L 204.982, 514.169 L 140.629, 487.056 z "/>
<path style="fill:rgb(255, 255, 0);fill-opacity:0;fill-rule:evenodd;stroke:rgb(114, 0, 255);stroke-width:1;" d="M 453.736, 521.519 L 483.953, 473.826 L 515.966, 485.423 L 515.149, 486.729 L 514.169, 488.199 L 519.722, 490.323 L 513.679, 499.959 L 507.962, 497.836 L 485.749, 533.116 L 453.736, 521.519 z "/>
<path style="fill:rgb(255, 0, 0);fill-opacity:0;fill-rule:evenodd;stroke:rgb(114, 0, 255);stroke-width:1;" d="M 55.5329, 172.479 L 66.3128, 158.269 L 112.209, 177.869 L 101.592, 192.078 L 55.5329, 172.479 z "/>
<path style="fill:rgb(0, 255, 0);fill-opacity:0;fill-rule:evenodd;stroke:rgb(114, 0, 255);stroke-width:1;" d="M 154.839, 214.455 L 165.455, 200.245 L 211.352, 219.845 L 200.735, 234.055 L 154.839, 214.455 z "/>
<path style="fill:rgb(0, 0, 255);fill-opacity:0;fill-rule:evenodd;stroke:rgb(114, 0, 255);stroke-width:1;" d="M 471.376, 101.919 L 479.053, 70.8861 L 500.776, 73.9894 L 499.796, 77.5827 L 493.263, 105.022 L 471.376, 101.919 z "/>
<path style="fill:rgb(255, 255, 0);fill-opacity:0;fill-rule:evenodd;stroke:rgb(114, 0, 255);stroke-width:1;" d="M 367.334, 590.608 L 379.584, 573.785 L 407.35, 585.382 L 395.1, 602.368 L 367.334, 590.608 z "/>
<path style="fill:rgb(255, 0, 0);fill-opacity:0;fill-rule:evenodd;stroke:rgb(114, 0, 255);stroke-width:1;" d="M 55.0429, 325.357 L 77.256, 294.978 L 79.0527, 292.691 L 90.3226, 297.591 L 66.3128, 330.094 L 55.0429, 325.357 z "/>
<path style="fill:rgb(0, 255, 0);fill-opacity:0;fill-rule:evenodd;stroke:rgb(114, 0, 255);stroke-width:1;" d="M 43.1196, 320.294 L 51.1229, 309.514 L 65.4961, 289.914 L 77.256, 294.978 L 55.0429, 325.357 L 43.1196, 320.294 z "/>
<path style="fill:rgb(0, 0, 255);fill-opacity:0;fill-rule:evenodd;stroke:rgb(114, 0, 255);stroke-width:1;" d="M 153.532, 582.605 L 165.129, 567.089 L 185.218, 575.745 L 178.849, 584.238 L 183.585, 586.198 L 179.012, 592.405 L 174.275, 590.282 L 173.622, 591.262 L 153.532, 582.605 z "/>
<path style="fill:rgb(255, 255, 0);fill-opacity:0;fill-rule:evenodd;stroke:rgb(114, 0, 255);stroke-width:1;" d="M 39.5263, 304.451 L 40.1797, 303.634 L 53.8996, 285.014 L 65.4961, 289.914 L 51.1229, 309.514 L 39.5263, 304.451 z "/>
<path style="fill:rgb(255, 0, 0);fill-opacity:0;fill-rule:evenodd;stroke:rgb(114, 0, 255);stroke-width:1;" d="M 261.004, 150.429 L 268.191, 140.629 L 289.914, 149.775 L 282.891, 159.575 L 261.004, 150.429 z "/>
<path style="fill:rgb(0, 255, 0);fill-opacity:0;fill-rule:evenodd;stroke:rgb(114, 0, 255);stroke-width:1;" d="M 429.726, 512.372 L 436.26, 502.736 L 458.31, 511.392 L 451.613, 521.029 L 429.726, 512.372 z "/>
<path style="fill:rgb(0, 0, 255);fill-opacity:0;fill-rule:evenodd;stroke:rgb(114, 0, 255);stroke-width:1;" d="M 9.30992, 660.514 L 32.1764, 629.155 L 36.2597, 630.788 L 109.432, 530.666 L 170.845, 556.635 L 147.489, 588.485 L 150.755, 589.955 L 100.776, 658.065 L 9.30992, 660.514 z "/>
<path style="fill:rgb(255, 255, 0);fill-opacity:0;fill-rule:evenodd;stroke:rgb(114, 0, 255);stroke-width:1;" d="M 0, 486.239 L 43.4463, 426.95 L 73.3361, 439.69 L 81.3393, 428.583 L 83.9526, 429.726 L 85.4226, 427.93 L 103.716, 435.606 L 49.9796, 509.269 L 49.1629, 510.249 L 31.0331, 502.736 L 34.1364, 498.489 L 24.3365, 494.406 L 23.0298, 491.629 L 19.5998, 496.693 L 5.55329, 490.813 L 6.85994, 489.016 L 0, 486.239 z "/>
<path style="fill:rgb(255, 0, 0);fill-opacity:0;fill-rule:evenodd;stroke:rgb(114, 0, 255);stroke-width:1;" d="M 29.3998, 299.061 L 43.1196, 280.441 L 53.8996, 285.014 L 40.1797, 303.634 L 29.3998, 299.061 z "/>
<path style="fill:rgb(0, 255, 0);fill-opacity:0;fill-rule:evenodd;stroke:rgb(114, 0, 255);stroke-width:1;" d="M 500.612, 116.456 L 543.079, 57.4929 L 553.205, 43.6096 L 584.728, 0 L 610.862, 10.9432 L 593.712, 34.6264 L 608.575, 40.6697 L 630.298, 49.8163 L 623.275, 59.4528 L 628.665, 61.7395 L 610.535, 86.8926 L 568.069, 69.0894 L 537.362, 111.556 L 544.222, 114.496 L 563.822, 87.3826 L 600.082, 102.572 L 593.712, 111.392 L 629.318, 126.256 L 627.848, 128.379 L 634.871, 131.156 L 629.155, 139.159 L 622.131, 136.382 L 595.672, 172.969 L 511.719, 138.016 L 521.029, 125.112 L 500.612, 116.456 z "/>
<path style="fill:rgb(0, 0, 255);fill-opacity:0;fill-rule:evenodd;stroke:rgb(114, 0, 255);stroke-width:1;" d="M 471.376, 33.3197 L 486.076, 12.9032 L 551.245, 40.0163 L 549.775, 42.1396 L 553.205, 43.6096 L 543.079, 57.4929 L 539.486, 56.0229 L 536.219, 60.4328 L 471.376, 33.3197 z "/>
<path style="fill:rgb(255, 255, 0);fill-opacity:0;fill-rule:evenodd;stroke:rgb(114, 0, 255);stroke-width:1;" d="M 27.6031, 168.069 L 47.0396, 141.609 L 48.1829, 142.099 L 48.8363, 141.282 L 241.405, 222.621 L 240.751, 223.438 L 241.895, 223.765 L 222.621, 250.225 L 221.478, 249.735 L 220.825, 250.715 L 27.9298, 169.212 L 28.4198, 168.395 L 27.6031, 168.069 z "/>
</svg>