<?xml version="1.0" encoding="iso-8859-1" standalone="no"?>
<!DOCTYPE svg PUBLIC "-//W3C//DTD SVG 1.0//EN" "http://www.w3.org/TR/2001/REC-SVG-20010904/DTD/svg10.dtd">
<svg xmlns="http://www.w3.org/2000/svg" width="1061" height="800">
<path style="fill:rgb(255, 0, 0);fill-opacity:0;fill-rule:evenodd;stroke:rgb(255, 0, 78);stroke-width:1;" d="M 354.056, 524.508 L 402.509, 458.577 L 433.312, 471.555 L 430.543, 475.362 L 439.888, 479.342 L 438.157, 481.765 L 434.696, 480.381 L 429.332, 487.822 L 472.421, 506.165 L 479.862, 496.128 L 507.549, 507.895 L 500.281, 517.759 L 543.024, 535.929 L 550.465, 525.892 L 581.787, 539.217 L 574.346, 549.254 L 616.569, 567.078 L 624.01, 557.041 L 652.217, 569.154 L 644.776, 579.191 L 687.692, 597.361 L 695.133, 587.324 L 700.498, 589.574 L 703.266, 585.767 L 734.934, 599.265 L 686.135, 665.715 L 638.027, 645.295 L 662.773, 611.551 L 630.932, 598.053 L 619.511, 613.628 L 591.304, 601.514 L 602.726, 585.94 L 558.598, 567.251 L 547.177, 582.998 L 519.663, 571.231 L 530.911, 555.83 L 485.918, 536.621 L 474.151, 552.542 L 447.675, 541.12 L 459.269, 525.373 L 432.966, 514.298 L 408.393, 547.696 L 354.056, 524.508 z "/>
<path style="fill:rgb(0, 255, 0);fill-opacity:0;fill-rule:evenodd;stroke:rgb(255, 0, 78);stroke-width:1;" d="M 729.57, 236.556 L 735.453, 228.423 L 746.874, 233.268 L 771.447, 199.351 L 760.026, 194.679 L 765.91, 186.546 L 809.172, 204.716 L 819.381, 191.218 L 929.613, 238.633 L 981.7, 260.61 L 926.325, 336.751 L 916.115, 332.425 L 915.25, 333.636 L 873.372, 315.985 L 891.196, 291.586 L 887.389, 289.855 L 888.254, 288.644 L 853.645, 274.281 L 852.78, 275.492 L 847.761, 273.416 L 840.493, 283.279 L 815.574, 272.896 L 822.842, 262.86 L 819.035, 261.302 L 819.9, 260.091 L 784.945, 245.382 L 783.734, 246.939 L 779.58, 245.209 L 772.658, 254.553 L 729.57, 236.556 z "/>
<path style="fill:rgb(0, 0, 255);fill-opacity:0;fill-rule:evenodd;stroke:rgb(255, 0, 78);stroke-width:1;" d="M 875.276, 602.899 L 878.218, 598.918 L 889.12, 583.863 L 935.669, 519.836 L 1058.71, 571.577 L 1058.19, 572.269 L 1034.83, 604.456 L 1015.62, 630.932 L 998.313, 654.64 L 875.276, 602.899 z M 991.737, 581.96 L 999.87, 585.421 L 1031.19, 598.572 L 1039.15, 587.67 L 999.697, 571.058 L 991.737, 581.96 z "/>
<path style="fill:rgb(255, 255, 0);fill-opacity:0;fill-rule:evenodd;stroke:rgb(255, 0, 78);stroke-width:1;" d="M 277.742, 627.817 L 333.982, 551.33 L 336.751, 552.542 L 338.308, 554.445 L 340.385, 556.522 L 343.154, 558.252 L 344.711, 559.117 L 347.999, 560.329 L 351.46, 561.194 L 355.094, 561.713 L 358.728, 561.886 L 361.324, 562.925 L 357.69, 567.77 L 397.318, 584.555 L 376.033, 613.281 L 434.869, 638.2 L 433.831, 639.585 L 434.523, 639.931 L 422.583, 656.197 L 416.007, 665.196 L 403.374, 682.501 L 400.952, 685.961 L 341.25, 660.35 L 356.305, 640.104 L 364.266, 629.375 L 325.849, 613.108 L 324.811, 612.762 L 305.429, 639.239 L 302.834, 638.2 L 300.93, 635.778 L 298.334, 633.874 L 295.566, 632.144 L 292.278, 630.586 L 290.547, 630.067 L 287.086, 629.375 L 283.798, 629.029 L 280.684, 629.202 L 277.742, 627.817 z "/>
<path style="fill:rgb(255, 0, 0);fill-opacity:0;fill-rule:evenodd;stroke:rgb(255, 0, 78);stroke-width:1;" d="M 101.233, 134.804 L 115.769, 115.423 L 147.437, 72.507 L 162.146, 52.4335 L 187.757, 63.3355 L 197.967, 67.6617 L 213.195, 74.0645 L 202.812, 88.2544 L 208.696, 110.231 L 218.04, 114.212 L 223.059, 107.636 L 230.5, 110.924 L 226.347, 116.461 L 220.809, 123.21 L 214.406, 120.614 L 208.177, 129.267 L 215.271, 132.382 L 186.199, 171.317 L 119.057, 142.591 L 101.233, 134.804 z "/>
<path style="fill:rgb(0, 255, 0);fill-opacity:0;fill-rule:evenodd;stroke:rgb(255, 0, 78);stroke-width:1;" d="M 106.944, 368.419 L 107.982, 367.034 L 107.117, 365.304 L 114.385, 355.44 L 110.578, 353.883 L 125.114, 333.982 L 128.921, 335.54 L 134.977, 327.233 L 145.706, 331.733 L 146.918, 330.175 L 211.984, 357.517 L 203.677, 368.765 L 243.997, 385.724 L 232.922, 400.952 L 223.751, 413.411 L 209.215, 407.181 L 203.677, 414.623 L 199.697, 412.892 L 198.486, 414.796 L 183.95, 408.566 L 181.354, 412.027 L 157.127, 401.817 L 127.017, 389.011 L 133.766, 379.84 L 106.944, 368.419 z "/>
<path style="fill:rgb(0, 0, 255);fill-opacity:0;fill-rule:evenodd;stroke:rgb(255, 0, 78);stroke-width:1;" d="M 591.823, 199.87 L 652.217, 116.807 L 679.386, 128.228 L 720.052, 145.36 L 720.744, 144.322 L 727.32, 147.264 L 726.801, 148.129 L 759.334, 161.8 L 759.853, 161.108 L 766.429, 163.876 L 744.798, 193.814 L 738.568, 191.218 L 736.665, 193.814 L 729.916, 191.045 L 731.992, 188.276 L 711.746, 179.797 L 709.842, 182.392 L 703.439, 179.797 L 705.343, 177.201 L 698.075, 174.259 L 687.519, 188.622 L 682.674, 186.719 L 683.366, 185.853 L 669.868, 180.143 L 669.176, 181.008 L 638.719, 168.202 L 610.167, 207.657 L 591.823, 199.87 z "/>
<path style="fill:rgb(255, 255, 0);fill-opacity:0;fill-rule:evenodd;stroke:rgb(255, 0, 78);stroke-width:1;" d="M 553.926, 750.508 L 558.425, 744.279 L 582.652, 711.053 L 587.843, 703.958 L 594.073, 706.727 L 620.549, 670.56 L 667.618, 690.461 L 607.225, 773.005 L 553.926, 750.508 z "/>
<path style="fill:rgb(255, 0, 0);fill-opacity:0;fill-rule:evenodd;stroke:rgb(255, 0, 78);stroke-width:1;" d="M 742.894, 688.73 L 793.597, 618.646 L 800.692, 621.588 L 804.499, 616.396 L 850.53, 635.778 L 826.13, 670.214 L 796.193, 710.88 L 742.894, 688.73 z "/>
<path style="fill:rgb(0, 255, 0);fill-opacity:0;fill-rule:evenodd;stroke:rgb(255, 0, 78);stroke-width:1;" d="M 433.485, 416.699 L 494.225, 333.463 L 529.699, 348.518 L 527.623, 351.287 L 538.871, 355.959 L 529.007, 369.457 L 526.931, 368.592 L 525.719, 370.149 L 526.238, 370.495 L 523.816, 373.61 L 532.295, 377.244 L 522.085, 391.434 L 513.087, 387.627 L 509.799, 392.126 L 505.992, 390.396 L 494.571, 410.815 L 496.82, 411.681 L 498.205, 414.449 L 501.666, 416.007 L 499.243, 419.295 L 501.319, 420.16 L 491.11, 434.177 L 484.015, 431.235 L 482.111, 434.004 L 462.903, 425.871 L 461.172, 428.293 L 433.485, 416.699 z "/>
<path style="fill:rgb(0, 0, 255);fill-opacity:0;fill-rule:evenodd;stroke:rgb(255, 0, 78);stroke-width:1;" d="M 365.65, 758.295 L 395.414, 717.283 L 490.591, 757.257 L 464.633, 793.078 L 460.826, 798.27 L 365.65, 758.295 z "/>
<path style="fill:rgb(255, 255, 0);fill-opacity:0;fill-rule:evenodd;stroke:rgb(255, 0, 78);stroke-width:1;" d="M 473.805, 708.458 L 490.764, 685.096 L 497.859, 675.579 L 525.2, 687.173 L 530.565, 679.732 L 529.007, 679.213 L 545.101, 657.236 L 577.287, 670.733 L 561.54, 692.364 L 559.637, 691.499 L 554.099, 698.94 L 560.675, 701.882 L 582.652, 711.053 L 558.425, 744.279 L 473.805, 708.458 z "/>
<path style="fill:rgb(255, 0, 0);fill-opacity:0;fill-rule:evenodd;stroke:rgb(255, 0, 78);stroke-width:1;" d="M 820.593, 580.056 L 881.332, 496.647 L 925.114, 514.99 L 914.385, 529.699 L 912.827, 529.007 L 908.847, 534.372 L 904.521, 532.468 L 872.334, 576.768 L 889.12, 583.863 L 878.218, 598.918 L 866.97, 594.073 L 864.028, 598.226 L 820.593, 580.056 z "/>
<path style="fill:rgb(0, 255, 0);fill-opacity:0;fill-rule:evenodd;stroke:rgb(255, 0, 78);stroke-width:1;" d="M 542.159, 266.667 L 572.269, 225.308 L 681.289, 271.166 L 666.234, 291.586 L 660.523, 289.163 L 645.295, 310.102 L 622.107, 300.411 L 633.701, 284.491 L 637.162, 285.875 L 639.239, 283.106 L 618.127, 274.108 L 614.666, 278.953 L 597.361, 271.685 L 600.995, 266.84 L 577.287, 256.976 L 575.211, 259.745 L 578.499, 261.129 L 566.905, 277.05 L 542.159, 266.667 z "/>
<path style="fill:rgb(0, 0, 255);fill-opacity:0;fill-rule:evenodd;stroke:rgb(255, 0, 78);stroke-width:1;" d="M 898.464, 472.074 L 959.723, 387.627 L 995.371, 402.682 L 987.93, 412.719 L 981.354, 421.891 L 961.627, 449.059 L 972.01, 453.385 L 951.244, 481.765 L 941.034, 477.439 L 934.112, 486.957 L 898.464, 472.074 z "/>
<path style="fill:rgb(255, 255, 0);fill-opacity:0;fill-rule:evenodd;stroke:rgb(255, 0, 78);stroke-width:1;" d="M 338.655, 373.437 L 353.018, 353.883 L 356.998, 355.613 L 363.4, 346.788 L 359.42, 345.057 L 374.995, 323.945 L 378.975, 325.676 L 385.377, 316.851 L 381.397, 315.12 L 395.933, 295.393 L 403.547, 298.507 L 405.278, 296.085 L 437.984, 309.929 L 377.244, 392.819 L 344.365, 378.975 L 346.096, 376.725 L 338.655, 373.437 z "/>
<path style="fill:rgb(255, 0, 0);fill-opacity:0;fill-rule:evenodd;stroke:rgb(255, 0, 78);stroke-width:1;" d="M 780.965, 416.007 L 808.133, 379.148 L 812.632, 381.051 L 829.072, 358.728 L 829.937, 359.074 L 845.165, 365.477 L 848.799, 360.632 L 888.081, 377.244 L 848.799, 430.889 L 809.518, 414.103 L 801.557, 424.832 L 780.965, 416.007 z "/>
<path style="fill:rgb(0, 255, 0);fill-opacity:0;fill-rule:evenodd;stroke:rgb(255, 0, 78);stroke-width:1;" d="M 921.133, 193.294 L 936.016, 172.702 L 941.899, 175.124 L 942.937, 173.913 L 944.495, 174.432 L 947.264, 170.452 L 948.475, 170.798 L 949.513, 169.241 L 973.048, 179.104 L 972.01, 180.489 L 974.432, 181.527 L 981.527, 179.624 L 986.546, 179.624 L 992.256, 180.835 L 996.928, 182.738 L 1014.58, 158.512 L 1009.04, 156.089 L 1010.6, 154.013 L 1005.06, 151.763 L 1019.94, 130.997 L 1061.99, 148.648 L 1022.02, 203.677 L 1001.43, 195.025 L 1002.81, 193.121 L 986.546, 186.372 L 981.873, 186.546 L 975.817, 193.467 L 967.51, 203.331 L 959.204, 213.195 L 932.382, 201.947 L 934.112, 199.524 L 926.844, 196.409 L 927.363, 195.89 L 921.133, 193.294 z "/>
<path style="fill:rgb(0, 0, 255);fill-opacity:0;fill-rule:evenodd;stroke:rgb(255, 0, 78);stroke-width:1;" d="M 304.045, 743.586 L 310.448, 734.761 L 305.083, 732.684 L 318.408, 714.341 L 313.043, 712.092 L 329.483, 689.596 L 395.414, 717.283 L 365.65, 758.295 L 362.016, 763.314 L 348.691, 757.776 L 346.269, 761.064 L 336.578, 757.084 L 335.194, 758.988 L 314.947, 750.508 L 313.217, 752.412 L 311.14, 753.104 L 309.409, 752.412 L 308.198, 750.681 L 309.583, 748.951 L 312.005, 748.778 L 314.601, 749.816 L 315.639, 748.432 L 304.045, 743.586 z "/>
<path style="fill:rgb(255, 255, 0);fill-opacity:0;fill-rule:evenodd;stroke:rgb(255, 0, 78);stroke-width:1;" d="M 313.043, 185.334 L 323.08, 171.49 L 327.406, 173.394 L 342.289, 153.32 L 396.626, 176.509 L 380.532, 198.313 L 394.722, 204.369 L 367.727, 240.883 L 363.746, 246.42 L 336.405, 234.826 L 344.365, 224.097 L 338.482, 221.674 L 346.096, 211.464 L 343.5, 210.426 L 350.249, 201.082 L 313.043, 185.334 z "/>
<path style="fill:rgb(255, 0, 0);fill-opacity:0;fill-rule:evenodd;stroke:rgb(255, 0, 78);stroke-width:1;" d="M 272.204, 294.008 L 287.432, 273.416 L 302.661, 252.65 L 319.792, 260.091 L 321.004, 263.206 L 318.581, 266.667 L 361.151, 284.837 L 363.746, 281.376 L 367.554, 280.337 L 384.339, 287.432 L 376.552, 298.161 L 373.264, 296.777 L 366.861, 305.429 L 370.149, 306.814 L 362.189, 317.37 L 349.73, 312.178 L 341.25, 323.426 L 272.204, 294.008 z "/>
<path style="fill:rgb(0, 255, 0);fill-opacity:0;fill-rule:evenodd;stroke:rgb(255, 0, 78);stroke-width:1;" d="M 171.836, 577.98 L 181.873, 564.309 L 187.411, 556.695 L 205.927, 564.309 L 208.177, 561.194 L 213.887, 553.58 L 195.198, 545.966 L 203.85, 534.372 L 207.657, 529.007 L 219.252, 513.087 L 250.919, 526.238 L 256.976, 524.508 L 265.282, 527.969 L 266.667, 532.987 L 262.167, 539.217 L 257.322, 540.774 L 253.688, 545.793 L 254.553, 549.6 L 249.535, 556.349 L 245.036, 557.733 L 235.172, 571.058 L 236.21, 574.519 L 231.538, 580.921 L 226.693, 582.652 L 223.059, 587.67 L 223.578, 591.65 L 218.905, 598.226 L 212.849, 599.784 L 204.716, 595.804 L 202.985, 590.958 L 171.836, 577.98 z "/>
<path style="fill:rgb(0, 0, 255);fill-opacity:0;fill-rule:evenodd;stroke:rgb(255, 0, 78);stroke-width:1;" d="M 98.6372, 678.693 L 109.02, 664.677 L 125.114, 643.219 L 127.709, 639.758 L 141.899, 645.987 L 143.803, 643.392 L 147.437, 642.873 L 159.55, 648.064 L 176.855, 624.876 L 201.601, 635.432 L 151.936, 701.882 L 151.763, 701.709 L 98.6372, 678.693 z "/>
<path style="fill:rgb(255, 255, 0);fill-opacity:0;fill-rule:evenodd;stroke:rgb(255, 0, 78);stroke-width:1;" d="M 182.219, 250.573 L 209.734, 213.022 L 302.315, 252.477 L 302.661, 252.477 L 302.661, 252.65 L 287.432, 273.416 L 277.396, 269.262 L 267.186, 283.106 L 240.19, 271.685 L 249.881, 258.36 L 240.883, 254.553 L 239.671, 256.111 L 236.556, 254.726 L 238.114, 252.65 L 221.847, 245.728 L 209.734, 262.34 L 182.219, 250.573 z "/>
<path style="fill:rgb(255, 0, 0);fill-opacity:0;fill-rule:evenodd;stroke:rgb(255, 0, 78);stroke-width:1;" d="M 197.274, 739.779 L 218.559, 710.361 L 221.847, 711.746 L 229.807, 701.017 L 254.207, 711.226 L 282.76, 723.167 L 296.95, 729.223 L 276.357, 757.603 L 269.608, 754.661 L 261.302, 766.083 L 221.847, 749.47 L 221.328, 750.162 L 218.905, 750.854 L 197.967, 742.029 L 197.274, 739.779 z "/>
<path style="fill:rgb(0, 255, 0);fill-opacity:0;fill-rule:evenodd;stroke:rgb(255, 0, 78);stroke-width:1;" d="M 802.423, 144.495 L 809.691, 134.631 L 814.017, 128.748 L 820.247, 131.343 L 821.458, 129.786 L 822.669, 130.305 L 830.629, 119.23 L 919.749, 156.781 L 911.789, 167.683 L 913, 168.202 L 911.789, 169.933 L 917.673, 172.356 L 906.251, 188.103 L 890.158, 181.354 L 889.293, 179.451 L 878.91, 175.124 L 877.006, 175.817 L 860.221, 168.722 L 859.009, 166.818 L 850.703, 163.184 L 848.453, 163.876 L 831.668, 156.781 L 830.456, 154.705 L 820.42, 150.552 L 818.516, 151.244 L 802.423, 144.495 z "/>
<path style="fill:rgb(0, 0, 255);fill-opacity:0;fill-rule:evenodd;stroke:rgb(255, 0, 78);stroke-width:1;" d="M 119.057, 142.591 L 148.129, 103.656 L 208.177, 129.267 L 215.271, 132.382 L 201.082, 151.244 L 186.199, 171.317 L 167.683, 163.357 L 119.057, 142.591 z "/>
<path style="fill:rgb(255, 255, 0);fill-opacity:0;fill-rule:evenodd;stroke:rgb(255, 0, 78);stroke-width:1;" d="M 260.264, 144.668 L 262.86, 141.207 L 268.051, 134.285 L 289.163, 105.905 L 356.305, 134.458 L 342.289, 153.32 L 327.406, 173.394 L 323.08, 171.49 L 319.792, 170.106 L 308.89, 165.434 L 260.264, 144.668 z "/>
<path style="fill:rgb(255, 0, 0);fill-opacity:0;fill-rule:evenodd;stroke:rgb(255, 0, 78);stroke-width:1;" d="M 799.481, 707.073 L 816.266, 684.404 L 823.708, 687.692 L 826.13, 684.404 L 899.502, 715.553 L 906.597, 706.035 L 914.385, 709.323 L 907.117, 719.187 L 904.694, 718.148 L 901.752, 722.302 L 909.539, 725.589 L 893.965, 746.874 L 887.043, 744.106 L 887.389, 743.413 L 878.564, 739.779 L 877.872, 740.645 L 853.126, 730.089 L 851.568, 727.493 L 842.743, 723.686 L 840.147, 724.551 L 815.055, 713.822 L 815.747, 712.957 L 807.095, 709.323 L 806.576, 710.015 L 799.481, 707.073 z "/>
<path style="fill:rgb(0, 255, 0);fill-opacity:0;fill-rule:evenodd;stroke:rgb(255, 0, 78);stroke-width:1;" d="M 425.698, 231.538 L 455.808, 189.487 L 509.799, 211.984 L 479.689, 253.861 L 449.405, 241.229 L 425.698, 231.538 z "/>
<path style="fill:rgb(0, 0, 255);fill-opacity:0;fill-rule:evenodd;stroke:rgb(255, 0, 78);stroke-width:1;" d="M 254.38, 482.803 L 256.803, 479.342 L 270.301, 460.999 L 290.201, 433.658 L 301.795, 438.676 L 334.328, 452.347 L 298.507, 501.319 L 254.38, 482.803 z "/>
<path style="fill:rgb(255, 255, 0);fill-opacity:0;fill-rule:evenodd;stroke:rgb(255, 0, 78);stroke-width:1;" d="M 809.518, 414.103 L 845.165, 365.477 L 848.799, 360.632 L 888.081, 377.244 L 848.799, 430.889 L 809.518, 414.103 z "/>
<path style="fill:rgb(255, 0, 0);fill-opacity:0;fill-rule:evenodd;stroke:rgb(255, 0, 78);stroke-width:1;" d="M 608.263, 348.172 L 636.47, 309.583 L 690.461, 332.252 L 662.254, 370.841 L 608.263, 348.172 z "/>
<path style="fill:rgb(0, 255, 0);fill-opacity:0;fill-rule:evenodd;stroke:rgb(255, 0, 78);stroke-width:1;" d="M 277.742, 627.817 L 333.982, 551.33 L 336.751, 552.542 L 338.308, 554.445 L 340.385, 556.522 L 343.154, 558.252 L 344.711, 559.117 L 347.999, 560.329 L 351.46, 561.194 L 355.094, 561.713 L 358.728, 561.886 L 361.324, 562.925 L 357.69, 567.77 L 357.171, 568.635 L 354.229, 572.615 L 354.921, 573.653 L 345.75, 586.113 L 344.019, 586.459 L 338.482, 594.073 L 339.001, 595.457 L 329.829, 607.744 L 328.272, 607.917 L 325.33, 611.724 L 325.849, 613.108 L 324.811, 612.762 L 305.429, 639.239 L 302.834, 638.2 L 300.93, 635.778 L 298.334, 633.874 L 295.566, 632.144 L 292.278, 630.586 L 290.547, 630.067 L 287.086, 629.375 L 283.798, 629.029 L 280.684, 629.202 L 277.742, 627.817 z "/>
<path style="fill:rgb(0, 0, 255);fill-opacity:0;fill-rule:evenodd;stroke:rgb(255, 0, 78);stroke-width:1;" d="M 733.723, 513.087 L 734.069, 510.837 L 758.469, 477.266 L 759.507, 476.574 L 761.756, 475.362 L 764.352, 474.324 L 767.121, 473.805 L 770.063, 473.632 L 771.447, 473.632 L 774.216, 473.978 L 794.982, 482.63 L 796.02, 483.323 L 797.923, 484.707 L 798.789, 485.399 L 800.173, 487.13 L 800.865, 489.033 L 801.211, 490.071 L 801.384, 491.975 L 801.211, 493.013 L 800.519, 494.917 L 776.292, 528.488 L 774.216, 529.872 L 771.966, 531.084 L 769.371, 531.949 L 766.602, 532.122 L 763.833, 532.122 L 762.449, 531.949 L 759.853, 531.257 L 739.087, 522.431 L 737.011, 520.701 L 735.453, 518.797 L 734.415, 516.548 L 734.069, 515.509 L 733.723, 513.087 z "/>
<path style="fill:rgb(255, 255, 0);fill-opacity:0;fill-rule:evenodd;stroke:rgb(255, 0, 78);stroke-width:1;" d="M 266.494, 771.101 L 276.357, 757.603 L 296.95, 729.223 L 305.083, 732.684 L 310.448, 734.761 L 304.045, 743.586 L 294.354, 756.738 L 336.578, 774.389 L 346.269, 761.064 L 348.691, 757.776 L 362.016, 763.314 L 356.478, 770.755 L 337.097, 797.577 L 335.367, 800 L 266.494, 771.101 z "/>
<path style="fill:rgb(255, 0, 0);fill-opacity:0;fill-rule:evenodd;stroke:rgb(255, 0, 78);stroke-width:1;" d="M 403.374, 682.501 L 416.007, 665.196 L 422.583, 656.197 L 490.764, 685.096 L 473.805, 708.458 L 471.728, 711.4 L 403.374, 682.501 z "/>
<path style="fill:rgb(0, 255, 0);fill-opacity:0;fill-rule:evenodd;stroke:rgb(255, 0, 78);stroke-width:1;" d="M 739.433, 120.787 L 748.259, 108.674 L 758.122, 112.827 L 762.103, 107.463 L 761.064, 107.117 L 766.083, 100.195 L 757.257, 96.5607 L 763.833, 87.3891 L 786.502, 97.0798 L 783.56, 101.06 L 785.81, 101.925 L 799.827, 107.982 L 802.769, 103.829 L 825.265, 113.346 L 818.516, 122.345 L 810.21, 118.884 L 805.191, 125.633 L 803.98, 125.114 L 800.173, 130.478 L 809.691, 134.631 L 802.423, 144.495 L 800.865, 146.745 L 739.433, 120.787 z "/>
<path style="fill:rgb(0, 0, 255);fill-opacity:0;fill-rule:evenodd;stroke:rgb(255, 0, 78);stroke-width:1;" d="M 325.33, 611.724 L 328.272, 607.917 L 329.829, 607.744 L 339.001, 595.457 L 338.482, 594.073 L 344.019, 586.459 L 345.75, 586.113 L 354.921, 573.653 L 354.229, 572.615 L 357.171, 568.635 L 357.69, 567.77 L 358.901, 568.289 L 364.093, 570.539 L 372.572, 574 L 382.609, 578.326 L 390.915, 581.787 L 396.106, 584.036 L 397.318, 584.555 L 393.684, 589.228 L 383.474, 603.072 L 377.936, 610.686 L 376.033, 613.281 L 374.822, 612.762 L 367.034, 623.491 L 367.727, 624.53 L 364.785, 628.51 L 364.266, 629.375 L 363.054, 628.856 L 357.863, 626.606 L 349.384, 623.145 L 339.347, 618.819 L 331.04, 615.358 L 325.849, 613.108 L 325.33, 611.724 z "/>
<path style="fill:rgb(255, 255, 0);fill-opacity:0;fill-rule:evenodd;stroke:rgb(255, 0, 78);stroke-width:1;" d="M 325.33, 611.724 L 328.272, 607.917 L 329.829, 607.744 L 339.001, 595.457 L 338.482, 594.073 L 344.019, 586.459 L 345.75, 586.113 L 354.921, 573.653 L 354.229, 572.615 L 357.171, 568.635 L 358.901, 568.289 L 364.093, 570.539 L 364.266, 571.75 L 370.668, 574.519 L 372.572, 574 L 382.609, 578.326 L 383.128, 579.71 L 389.531, 582.479 L 390.915, 581.787 L 396.106, 584.036 L 396.626, 585.421 L 393.684, 589.228 L 392.126, 589.401 L 382.955, 601.86 L 383.474, 603.072 L 377.936, 610.686 L 376.206, 611.032 L 374.822, 612.762 L 367.034, 623.491 L 367.727, 624.53 L 364.785, 628.51 L 363.054, 628.856 L 357.863, 626.606 L 357.69, 625.568 L 351.287, 622.626 L 349.384, 623.145 L 339.347, 618.819 L 339.001, 617.608 L 332.425, 614.839 L 331.04, 615.358 L 325.849, 613.108 L 325.33, 611.724 z "/>
<path style="fill:rgb(255, 0, 0);fill-opacity:0;fill-rule:evenodd;stroke:rgb(255, 0, 78);stroke-width:1;" d="M 576.941, 405.624 L 589.92, 387.8 L 595.804, 379.84 L 660.523, 407.008 L 641.834, 432.793 L 576.941, 405.624 z "/>
<path style="fill:rgb(0, 255, 0);fill-opacity:0;fill-rule:evenodd;stroke:rgb(255, 0, 78);stroke-width:1;" d="M 134.804, 432.273 L 143.63, 420.16 L 157.127, 401.817 L 181.354, 412.027 L 214.752, 426.217 L 210.253, 432.273 L 194.852, 453.212 L 192.602, 456.5 L 185.161, 453.385 L 186.546, 451.309 L 143.803, 433.312 L 142.245, 435.388 L 134.804, 432.273 z "/>
<path style="fill:rgb(0, 0, 255);fill-opacity:0;fill-rule:evenodd;stroke:rgb(255, 0, 78);stroke-width:1;" d="M 380.532, 198.313 L 396.626, 176.509 L 410.815, 157.3 L 413.065, 158.166 L 450.963, 174.432 L 420.679, 215.445 L 394.722, 204.369 L 380.532, 198.313 z "/>
<path style="fill:rgb(255, 255, 0);fill-opacity:0;fill-rule:evenodd;stroke:rgb(255, 0, 78);stroke-width:1;" d="M 356.305, 640.104 L 364.266, 629.375 L 364.785, 628.51 L 367.727, 624.53 L 367.034, 623.491 L 374.822, 612.762 L 376.033, 613.281 L 434.869, 638.2 L 433.831, 639.585 L 434.523, 639.931 L 422.583, 656.197 L 416.007, 665.196 L 356.305, 640.104 z "/>
<path style="fill:rgb(255, 0, 0);fill-opacity:0;fill-rule:evenodd;stroke:rgb(255, 0, 78);stroke-width:1;" d="M 366.861, 247.804 L 371.014, 242.267 L 367.727, 240.883 L 394.722, 204.369 L 420.679, 215.445 L 432.446, 220.463 L 401.471, 262.514 L 366.861, 247.804 z "/>
<path style="fill:rgb(0, 255, 0);fill-opacity:0;fill-rule:evenodd;stroke:rgb(255, 0, 78);stroke-width:1;" d="M 926.152, 137.054 L 935.323, 124.421 L 943.457, 127.882 L 946.918, 123.037 L 946.052, 122.691 L 948.129, 119.576 L 949.859, 116.288 L 943.284, 113.519 L 950.898, 102.963 L 951.763, 101.579 L 974.432, 111.097 L 967.337, 120.787 L 966.299, 123.556 L 974.086, 126.844 L 982.912, 114.731 L 1006.1, 124.421 L 998.14, 135.323 L 991.045, 132.382 L 985.68, 139.823 L 984.469, 139.303 L 981.181, 143.803 L 989.487, 147.264 L 980.316, 159.723 L 957.127, 150.032 L 965.607, 138.438 L 957.82, 135.15 L 949.34, 146.918 L 926.152, 137.054 z "/>
<path style="fill:rgb(0, 0, 255);fill-opacity:0;fill-rule:evenodd;stroke:rgb(255, 0, 78);stroke-width:1;" d="M 566.905, 330.867 L 574, 320.831 L 575.384, 319.1 L 578.845, 320.658 L 591.304, 303.526 L 587.843, 301.968 L 594.938, 292.105 L 636.47, 309.583 L 608.263, 348.172 L 566.905, 330.867 z "/>
<path style="fill:rgb(255, 255, 0);fill-opacity:0;fill-rule:evenodd;stroke:rgb(255, 0, 78);stroke-width:1;" d="M 254.207, 711.226 L 265.109, 696.171 L 262.167, 695.133 L 273.242, 679.732 L 286.567, 685.269 L 289.855, 680.943 L 309.583, 689.076 L 307.679, 691.845 L 320.311, 697.21 L 304.91, 718.148 L 296.95, 729.223 L 282.76, 723.167 L 254.207, 711.226 z "/>
<path style="fill:rgb(255, 0, 0);fill-opacity:0;fill-rule:evenodd;stroke:rgb(255, 0, 78);stroke-width:1;" d="M 241.921, 336.232 L 252.304, 322.042 L 264.59, 327.06 L 273.762, 314.255 L 261.475, 309.063 L 267.705, 300.411 L 317.024, 321.004 L 310.621, 329.829 L 298.161, 324.638 L 288.644, 337.616 L 299.027, 341.942 L 300.411, 340.039 L 302.661, 340.904 L 301.449, 342.635 L 291.066, 356.825 L 241.921, 336.232 z "/>
<path style="fill:rgb(0, 255, 0);fill-opacity:0;fill-rule:evenodd;stroke:rgb(255, 0, 78);stroke-width:1;" d="M 149.167, 297.469 L 176.682, 259.572 L 202.812, 270.474 L 203.504, 270.82 L 191.218, 287.952 L 209.042, 295.393 L 193.987, 316.158 L 149.167, 297.469 z "/>
<path style="fill:rgb(0, 0, 255);fill-opacity:0;fill-rule:evenodd;stroke:rgb(255, 0, 78);stroke-width:1;" d="M 193.987, 316.158 L 209.042, 295.393 L 220.29, 300.065 L 230.154, 286.394 L 257.149, 297.642 L 247.285, 311.313 L 256.284, 315.12 L 256.976, 315.466 L 252.304, 322.042 L 241.921, 336.232 L 193.987, 316.158 z "/>
<path style="fill:rgb(255, 255, 0);fill-opacity:0;fill-rule:evenodd;stroke:rgb(255, 0, 78);stroke-width:1;" d="M 403.201, 262.687 L 413.065, 249.189 L 421.717, 252.65 L 424.313, 249.189 L 435.388, 253.861 L 441.964, 244.69 L 445.944, 246.247 L 449.405, 241.229 L 479.689, 253.861 L 457.192, 285.183 L 403.201, 262.687 z "/>
<path style="fill:rgb(255, 0, 0);fill-opacity:0;fill-rule:evenodd;stroke:rgb(255, 0, 78);stroke-width:1;" d="M 660.87, 226.347 L 680.424, 199.524 L 687, 202.293 L 688.903, 199.87 L 695.479, 202.639 L 693.576, 205.062 L 713.822, 213.541 L 715.553, 211.118 L 721.955, 213.714 L 720.225, 216.137 L 725.762, 218.559 L 726.628, 218.905 L 707.073, 245.728 L 705.516, 245.036 L 704.305, 246.766 L 692.883, 241.921 L 694.095, 240.363 L 674.021, 231.711 L 672.637, 233.615 L 661.389, 228.942 L 662.773, 227.212 L 660.87, 226.347 z "/>
<path style="fill:rgb(0, 255, 0);fill-opacity:0;fill-rule:evenodd;stroke:rgb(255, 0, 78);stroke-width:1;" d="M 254.207, 711.226 L 265.109, 696.171 L 262.167, 695.133 L 273.242, 679.732 L 286.567, 685.269 L 289.855, 680.943 L 309.583, 689.076 L 307.679, 691.845 L 320.311, 697.21 L 304.91, 718.148 L 290.72, 712.438 L 282.76, 723.167 L 254.207, 711.226 z "/>
<path style="fill:rgb(0, 0, 255);fill-opacity:0;fill-rule:evenodd;stroke:rgb(255, 0, 78);stroke-width:1;" d="M 686.135, 764.871 L 709.842, 732.857 L 741.51, 746.528 L 744.279, 752.412 L 744.452, 753.969 L 744.452, 755.527 L 743.933, 758.469 L 743.413, 760.026 L 742.202, 762.968 L 741.51, 764.352 L 739.433, 767.121 L 737.011, 769.544 L 734.069, 771.793 L 732.511, 772.658 L 730.954, 773.697 L 727.493, 775.081 L 720.398, 776.812 L 719.014, 776.119 L 717.629, 778.196 L 711.919, 775.773 L 686.135, 764.871 z "/>
<path style="fill:rgb(255, 255, 0);fill-opacity:0;fill-rule:evenodd;stroke:rgb(255, 0, 78);stroke-width:1;" d="M 341.25, 660.35 L 356.305, 640.104 L 416.007, 665.196 L 403.374, 682.501 L 400.952, 685.961 L 341.25, 660.35 z "/>
<path style="fill:rgb(255, 0, 0);fill-opacity:0;fill-rule:evenodd;stroke:rgb(255, 0, 78);stroke-width:1;" d="M 757.776, 764.871 L 773.87, 742.202 L 780.619, 744.971 L 782.695, 742.029 L 813.671, 754.835 L 811.248, 758.122 L 818.17, 760.891 L 802.596, 782.868 L 795.674, 779.926 L 792.559, 784.426 L 761.583, 771.62 L 764.525, 767.64 L 757.776, 764.871 z "/>
<path style="fill:rgb(0, 255, 0);fill-opacity:0;fill-rule:evenodd;stroke:rgb(255, 0, 78);stroke-width:1;" d="M 877.872, 124.248 L 887.735, 110.578 L 906.251, 85.1395 L 936.362, 97.772 L 924.248, 114.385 L 922.172, 117.326 L 912.135, 131.17 L 907.982, 137.054 L 877.872, 124.248 z "/>
<path style="fill:rgb(0, 0, 255);fill-opacity:0;fill-rule:evenodd;stroke:rgb(255, 0, 78);stroke-width:1;" d="M 688.903, 382.955 L 689.422, 382.263 L 718.841, 341.769 L 739.606, 350.595 L 738.741, 351.806 L 746.528, 355.094 L 742.721, 360.286 L 717.456, 395.068 L 688.903, 382.955 z "/>
<path style="fill:rgb(255, 255, 0);fill-opacity:0;fill-rule:evenodd;stroke:rgb(255, 0, 78);stroke-width:1;" d="M 662.254, 370.841 L 690.461, 332.252 L 692.191, 329.829 L 719.36, 341.077 L 718.841, 341.769 L 689.422, 382.263 L 662.254, 370.841 z "/>
<path style="fill:rgb(255, 0, 0);fill-opacity:0;fill-rule:evenodd;stroke:rgb(255, 0, 78);stroke-width:1;" d="M 294.873, 216.829 L 301.103, 208.35 L 297.123, 206.792 L 298.681, 204.716 L 313.043, 185.334 L 350.249, 201.082 L 343.5, 210.426 L 346.096, 211.464 L 338.482, 221.674 L 335.021, 220.117 L 333.29, 222.366 L 330.348, 221.155 L 324.292, 229.461 L 294.873, 216.829 z "/>
<path style="fill:rgb(0, 255, 0);fill-opacity:0;fill-rule:evenodd;stroke:rgb(255, 0, 78);stroke-width:1;" d="M 259.745, 201.601 L 269.089, 188.795 L 270.647, 186.719 L 274.8, 188.622 L 291.586, 165.78 L 304.737, 171.317 L 308.89, 165.434 L 319.792, 170.106 L 295.566, 203.504 L 298.681, 204.716 L 297.123, 206.792 L 291.066, 214.925 L 259.745, 201.601 z "/>
<path style="fill:rgb(0, 0, 255);fill-opacity:0;fill-rule:evenodd;stroke:rgb(255, 0, 78);stroke-width:1;" d="M 229.461, 188.622 L 256.976, 151.244 L 281.895, 161.8 L 280.164, 164.049 L 282.587, 165.088 L 281.203, 166.818 L 284.664, 168.202 L 278.607, 176.509 L 272.031, 173.567 L 269.262, 174.086 L 264.244, 180.835 L 262.687, 181.7 L 261.302, 183.777 L 261.648, 185.68 L 269.089, 188.795 L 259.745, 201.601 L 229.461, 188.622 z "/>
<path style="fill:rgb(255, 255, 0);fill-opacity:0;fill-rule:evenodd;stroke:rgb(255, 0, 78);stroke-width:1;" d="M 79.9481, 405.624 L 90.677, 390.742 L 88.7735, 389.877 L 94.138, 382.609 L 96.0415, 383.474 L 106.944, 368.419 L 133.766, 379.84 L 127.017, 389.011 L 114.731, 405.797 L 106.77, 416.872 L 79.9481, 405.624 z "/>
<path style="fill:rgb(255, 0, 0);fill-opacity:0;fill-rule:evenodd;stroke:rgb(255, 0, 78);stroke-width:1;" d="M 291.066, 356.825 L 301.449, 342.635 L 306.814, 344.884 L 311.313, 343.5 L 317.543, 335.021 L 317.716, 332.771 L 310.621, 329.829 L 317.024, 321.004 L 350.076, 334.848 L 342.635, 345.23 L 333.982, 341.596 L 325.849, 352.844 L 334.501, 356.478 L 324.119, 370.668 L 291.066, 356.825 z "/>
<path style="fill:rgb(0, 255, 0);fill-opacity:0;fill-rule:evenodd;stroke:rgb(255, 0, 78);stroke-width:1;" d="M 171.836, 577.98 L 181.873, 564.309 L 187.411, 556.695 L 205.927, 564.309 L 208.177, 561.194 L 218.559, 565.52 L 228.25, 569.673 L 210.599, 594.073 L 202.985, 590.958 L 171.836, 577.98 z "/>
<path style="fill:rgb(0, 0, 255);fill-opacity:0;fill-rule:evenodd;stroke:rgb(255, 0, 78);stroke-width:1;" d="M 203.85, 534.372 L 207.657, 529.007 L 219.252, 513.087 L 250.919, 526.238 L 257.841, 529.18 L 240.017, 553.58 L 230.154, 549.6 L 219.944, 545.274 L 222.193, 541.986 L 203.85, 534.372 z "/>
<path style="fill:rgb(255, 255, 0);fill-opacity:0;fill-rule:evenodd;stroke:rgb(255, 0, 78);stroke-width:1;" d="M 202.985, 590.958 L 210.599, 594.073 L 228.25, 569.673 L 218.559, 565.52 L 230.154, 549.6 L 240.017, 553.58 L 257.841, 529.18 L 250.919, 526.238 L 256.976, 524.508 L 265.282, 527.969 L 266.667, 532.987 L 262.167, 539.217 L 257.322, 540.774 L 253.688, 545.793 L 254.553, 549.6 L 249.535, 556.349 L 245.036, 557.733 L 235.172, 571.058 L 236.21, 574.519 L 231.538, 580.921 L 226.693, 582.652 L 223.059, 587.67 L 223.578, 591.65 L 218.905, 598.226 L 212.849, 599.784 L 204.716, 595.804 L 202.985, 590.958 z "/>
<path style="fill:rgb(255, 0, 0);fill-opacity:0;fill-rule:evenodd;stroke:rgb(255, 0, 78);stroke-width:1;" d="M 724.205, 114.385 L 757.776, 68.1808 L 773.005, 74.7567 L 763.833, 87.3891 L 757.257, 96.5607 L 748.259, 108.674 L 739.433, 120.787 L 724.205, 114.385 z "/>
<path style="fill:rgb(0, 255, 0);fill-opacity:0;fill-rule:evenodd;stroke:rgb(255, 0, 78);stroke-width:1;" d="M 550.119, 404.24 L 566.385, 381.743 L 568.289, 382.609 L 570.366, 379.667 L 565.001, 377.417 L 572.788, 366.688 L 597.707, 377.071 L 595.804, 379.84 L 589.92, 387.8 L 585.94, 386.243 L 567.597, 411.681 L 550.119, 404.24 z "/>
<path style="fill:rgb(0, 0, 255);fill-opacity:0;fill-rule:evenodd;stroke:rgb(255, 0, 78);stroke-width:1;" d="M 487.476, 439.541 L 495.782, 428.12 L 501.839, 430.543 L 503.569, 428.12 L 501.319, 427.255 L 517.413, 405.105 L 534.545, 412.373 L 518.105, 434.869 L 516.202, 434.177 L 514.125, 436.946 L 519.49, 439.195 L 511.875, 449.751 L 487.476, 439.541 z "/>
<path style="fill:rgb(255, 255, 0);fill-opacity:0;fill-rule:evenodd;stroke:rgb(255, 0, 78);stroke-width:1;" d="M 525.546, 394.03 L 541.813, 371.534 L 544.235, 372.399 L 546.312, 369.63 L 540.774, 367.207 L 548.562, 356.478 L 572.788, 366.688 L 565.001, 377.417 L 558.944, 374.995 L 556.868, 377.763 L 559.117, 378.802 L 542.851, 401.298 L 525.546, 394.03 z "/>
<path style="fill:rgb(255, 0, 0);fill-opacity:0;fill-rule:evenodd;stroke:rgb(255, 0, 78);stroke-width:1;" d="M 709.842, 732.857 L 724.205, 713.649 L 758.988, 728.531 L 744.625, 747.913 L 741.51, 746.528 L 709.842, 732.857 z "/>
<path style="fill:rgb(0, 255, 0);fill-opacity:0;fill-rule:evenodd;stroke:rgb(255, 0, 78);stroke-width:1;" d="M 511.875, 449.751 L 519.49, 439.195 L 525.027, 441.445 L 526.931, 438.676 L 525.892, 438.157 L 542.332, 415.488 L 558.944, 422.583 L 542.851, 444.56 L 540.774, 443.695 L 538.871, 446.29 L 544.754, 448.713 L 543.37, 450.616 L 536.275, 460.134 L 511.875, 449.751 z "/>
<path style="fill:rgb(0, 0, 255);fill-opacity:0;fill-rule:evenodd;stroke:rgb(255, 0, 78);stroke-width:1;" d="M 38.5897, 305.256 L 51.0491, 288.471 L 89.2927, 304.737 L 76.8332, 321.523 L 38.5897, 305.256 z "/>
<path style="fill:rgb(255, 255, 0);fill-opacity:0;fill-rule:evenodd;stroke:rgb(255, 0, 78);stroke-width:1;" d="M 908.328, 704.478 L 921.653, 685.961 L 928.575, 676.444 L 930.305, 673.848 L 936.362, 665.542 L 938.438, 662.773 L 952.282, 668.484 L 945.533, 678.001 L 936.881, 689.769 L 939.477, 690.98 L 933.939, 698.767 L 924.767, 711.4 L 908.328, 704.478 z "/>
<path style="fill:rgb(255, 0, 0);fill-opacity:0;fill-rule:evenodd;stroke:rgb(255, 0, 78);stroke-width:1;" d="M 647.199, 156.781 L 650.314, 152.455 L 647.718, 151.417 L 651.525, 146.052 L 654.121, 147.091 L 657.409, 142.591 L 660.177, 143.63 L 664.504, 145.36 L 690.288, 156.089 L 694.787, 157.993 L 697.383, 159.031 L 694.268, 163.53 L 696.864, 164.568 L 693.056, 169.76 L 690.461, 168.722 L 687, 173.394 L 684.404, 172.183 L 680.078, 170.452 L 654.294, 159.723 L 649.795, 157.993 L 647.199, 156.781 z "/>
<path style="fill:rgb(0, 255, 0);fill-opacity:0;fill-rule:evenodd;stroke:rgb(255, 0, 78);stroke-width:1;" d="M 645.814, 506.165 L 652.909, 496.474 L 657.409, 498.378 L 658.793, 496.474 L 657.928, 496.128 L 675.752, 471.555 L 690.288, 477.785 L 672.464, 502.358 L 671.252, 501.839 L 669.868, 503.742 L 674.54, 505.819 L 667.618, 515.336 L 645.814, 506.165 z "/>
<path style="fill:rgb(0, 0, 255);fill-opacity:0;fill-rule:evenodd;stroke:rgb(255, 0, 78);stroke-width:1;" d="M 558.252, 469.306 L 565.174, 459.788 L 570.019, 461.865 L 571.404, 459.788 L 570.539, 459.442 L 588.363, 434.869 L 602.726, 440.926 L 584.729, 465.672 L 583.863, 465.326 L 582.479, 467.056 L 587.324, 469.133 L 580.402, 478.65 L 558.252, 469.306 z "/>
<path style="fill:rgb(255, 255, 0);fill-opacity:0;fill-rule:evenodd;stroke:rgb(255, 0, 78);stroke-width:1;" d="M 689.596, 524.681 L 696.69, 514.99 L 701.19, 516.894 L 702.401, 515.163 L 701.709, 514.817 L 719.533, 490.071 L 733.896, 496.128 L 716.245, 520.701 L 715.207, 520.182 L 713.822, 522.258 L 718.148, 524.162 L 711.226, 533.679 L 689.596, 524.681 z "/>
<path style="fill:rgb(255, 0, 0);fill-opacity:0;fill-rule:evenodd;stroke:rgb(255, 0, 78);stroke-width:1;" d="M 602.206, 487.822 L 609.128, 478.304 L 613.801, 480.208 L 615.185, 478.131 L 614.32, 477.785 L 632.144, 453.385 L 646.507, 459.442 L 628.683, 483.842 L 627.817, 483.496 L 626.26, 485.572 L 630.932, 487.476 L 624.01, 496.993 L 602.206, 487.822 z "/>
<path style="fill:rgb(0, 255, 0);fill-opacity:0;fill-rule:evenodd;stroke:rgb(255, 0, 78);stroke-width:1;" d="M 667.618, 515.336 L 674.54, 505.819 L 679.213, 507.722 L 680.424, 505.992 L 679.905, 505.646 L 697.902, 480.9 L 711.919, 486.957 L 694.095, 511.529 L 693.056, 511.183 L 691.845, 512.914 L 696.69, 514.99 L 689.596, 524.681 L 667.618, 515.336 z "/>
<path style="fill:rgb(0, 0, 255);fill-opacity:0;fill-rule:evenodd;stroke:rgb(255, 0, 78);stroke-width:1;" d="M 624.01, 496.993 L 630.932, 487.476 L 635.778, 489.379 L 637.335, 487.303 L 636.297, 486.783 L 653.948, 462.557 L 668.138, 468.44 L 650.314, 493.013 L 649.448, 492.667 L 648.237, 494.398 L 652.909, 496.474 L 645.814, 506.165 L 624.01, 496.993 z "/>
<path style="fill:rgb(255, 255, 0);fill-opacity:0;fill-rule:evenodd;stroke:rgb(255, 0, 78);stroke-width:1;" d="M 536.275, 460.134 L 543.37, 450.616 L 548.388, 452.693 L 549.773, 450.616 L 548.908, 450.27 L 566.732, 425.871 L 580.748, 431.754 L 561.367, 458.231 L 565.174, 459.788 L 558.252, 469.306 L 536.275, 460.134 z "/>
<path style="fill:rgb(255, 0, 0);fill-opacity:0;fill-rule:evenodd;stroke:rgb(255, 0, 78);stroke-width:1;" d="M 932.728, 707.766 L 938.092, 700.498 L 933.939, 698.767 L 939.477, 690.98 L 940.342, 689.769 L 945.014, 691.672 L 952.628, 680.943 L 945.533, 678.001 L 952.282, 668.484 L 974.951, 678.001 L 968.202, 687.519 L 964.568, 685.961 L 945.014, 712.957 L 932.728, 707.766 z "/>
<path style="fill:rgb(0, 255, 0);fill-opacity:0;fill-rule:evenodd;stroke:rgb(255, 0, 78);stroke-width:1;" d="M 732.338, 401.298 L 757.603, 366.515 L 759.507, 363.92 L 774.908, 370.495 L 747.74, 407.701 L 732.338, 401.298 z "/>
<path style="fill:rgb(0, 0, 255);fill-opacity:0;fill-rule:evenodd;stroke:rgb(255, 0, 78);stroke-width:1;" d="M 580.402, 478.65 L 587.324, 469.133 L 591.997, 471.036 L 593.381, 469.133 L 592.516, 468.787 L 610.513, 444.214 L 624.356, 450.097 L 606.706, 474.497 L 605.84, 474.151 L 604.283, 476.228 L 609.128, 478.304 L 602.206, 487.822 L 580.402, 478.65 z "/>
<path style="fill:rgb(255, 255, 0);fill-opacity:0;fill-rule:evenodd;stroke:rgb(255, 0, 78);stroke-width:1;" d="M 747.74, 407.701 L 774.908, 370.495 L 790.309, 376.898 L 778.715, 392.645 L 763.141, 414.276 L 747.74, 407.701 z "/>
<path style="fill:rgb(255, 0, 0);fill-opacity:0;fill-rule:evenodd;stroke:rgb(255, 0, 78);stroke-width:1;" d="M 54.337, 681.116 L 55.7214, 679.386 L 71.2957, 658.62 L 74.5836, 654.294 L 95.0032, 663.119 L 75.968, 688.557 L 74.7567, 689.942 L 54.337, 681.116 z "/>
<path style="fill:rgb(0, 255, 0);fill-opacity:0;fill-rule:evenodd;stroke:rgb(255, 0, 78);stroke-width:1;" d="M 455.808, 189.487 L 463.422, 179.104 L 514.298, 200.216 L 515.163, 204.543 L 509.799, 211.984 L 455.808, 189.487 z "/>
<path style="fill:rgb(0, 0, 255);fill-opacity:0;fill-rule:evenodd;stroke:rgb(255, 0, 78);stroke-width:1;" d="M 141.034, 503.569 L 159.55, 478.304 L 181.008, 487.476 L 165.434, 508.761 L 162.492, 512.741 L 141.034, 503.569 z "/>
<path style="fill:rgb(255, 255, 0);fill-opacity:0;fill-rule:evenodd;stroke:rgb(255, 0, 78);stroke-width:1;" d="M 512.395, 307.852 L 519.49, 297.988 L 565.174, 317.197 L 574, 320.831 L 566.905, 330.867 L 512.395, 307.852 z "/>
<path style="fill:rgb(255, 0, 0);fill-opacity:0;fill-rule:evenodd;stroke:rgb(255, 0, 78);stroke-width:1;" d="M 104.694, 419.468 L 106.77, 416.872 L 114.731, 405.797 L 120.441, 408.047 L 125.287, 401.471 L 141.899, 408.566 L 137.4, 414.796 L 141.034, 416.353 L 139.477, 418.43 L 143.63, 420.16 L 134.804, 432.273 L 104.694, 419.468 z "/>
<path style="fill:rgb(0, 255, 0);fill-opacity:0;fill-rule:evenodd;stroke:rgb(255, 0, 78);stroke-width:1;" d="M 717.456, 395.068 L 742.721, 360.286 L 757.603, 366.515 L 732.338, 401.298 L 717.456, 395.068 z "/>
<path style="fill:rgb(0, 0, 255);fill-opacity:0;fill-rule:evenodd;stroke:rgb(255, 0, 78);stroke-width:1;" d="M 649.795, 157.993 L 660.177, 143.63 L 664.504, 145.36 L 690.288, 156.089 L 694.787, 157.993 L 684.404, 172.183 L 680.078, 170.452 L 654.294, 159.723 L 649.795, 157.993 z "/>
<path style="fill:rgb(255, 255, 0);fill-opacity:0;fill-rule:evenodd;stroke:rgb(255, 0, 78);stroke-width:1;" d="M 868.354, 111.27 L 871.469, 106.944 L 874.411, 105.04 L 872.334, 104.175 L 890.85, 78.5637 L 906.251, 85.1395 L 887.735, 110.578 L 886.351, 110.058 L 881.332, 116.807 L 868.354, 111.27 z "/>
<path style="fill:rgb(255, 0, 0);fill-opacity:0;fill-rule:evenodd;stroke:rgb(255, 0, 78);stroke-width:1;" d="M 527.104, 287.605 L 534.718, 277.05 L 580.402, 296.085 L 572.615, 306.814 L 527.104, 287.605 z "/>
<path style="fill:rgb(0, 255, 0);fill-opacity:0;fill-rule:evenodd;stroke:rgb(255, 0, 78);stroke-width:1;" d="M 821.977, 91.8884 L 825.092, 87.5622 L 828.034, 86.1778 L 825.957, 85.1395 L 836.859, 70.4305 L 844.819, 59.3554 L 860.048, 65.7582 L 841.531, 91.1962 L 841.185, 91.5423 L 839.282, 90.8501 L 838.936, 93.2728 L 835.821, 97.599 L 821.977, 91.8884 z "/>
<path style="fill:rgb(0, 0, 255);fill-opacity:0;fill-rule:evenodd;stroke:rgb(255, 0, 78);stroke-width:1;" d="M 519.49, 297.988 L 527.104, 287.605 L 572.615, 306.814 L 565.174, 317.197 L 519.49, 297.988 z "/>
<path style="fill:rgb(255, 255, 0);fill-opacity:0;fill-rule:evenodd;stroke:rgb(255, 0, 78);stroke-width:1;" d="M 203.677, 368.765 L 211.984, 357.517 L 239.671, 369.284 L 240.709, 367.9 L 253.169, 373.091 L 250.746, 376.552 L 243.997, 385.724 L 203.677, 368.765 z "/>
<path style="fill:rgb(255, 0, 0);fill-opacity:0;fill-rule:evenodd;stroke:rgb(255, 0, 78);stroke-width:1;" d="M 534.718, 277.05 L 542.159, 266.667 L 566.905, 277.05 L 587.843, 285.875 L 580.402, 296.085 L 534.718, 277.05 z "/>
<path style="fill:rgb(0, 255, 0);fill-opacity:0;fill-rule:evenodd;stroke:rgb(255, 0, 78);stroke-width:1;" d="M 952.282, 715.899 L 971.836, 689.076 L 968.202, 687.519 L 974.951, 678.001 L 992.948, 685.615 L 985.334, 696.171 L 981.873, 694.614 L 963.184, 720.571 L 952.282, 715.899 z "/>
<path style="fill:rgb(0, 0, 255);fill-opacity:0;fill-rule:evenodd;stroke:rgb(255, 0, 78);stroke-width:1;" d="M 906.251, 188.103 L 917.673, 172.356 L 929.959, 155.57 L 944.149, 161.454 L 936.016, 172.702 L 921.133, 193.294 L 920.441, 194.16 L 906.251, 188.103 z "/>
<path style="fill:rgb(255, 255, 0);fill-opacity:0;fill-rule:evenodd;stroke:rgb(255, 0, 78);stroke-width:1;" d="M 110.578, 637.681 L 110.924, 637.162 L 133.42, 607.052 L 147.61, 613.108 L 127.709, 639.758 L 125.114, 643.219 L 121.826, 641.834 L 120.441, 643.738 L 117.846, 644.43 L 113.346, 642.526 L 110.578, 637.681 z "/>
<path style="fill:rgb(255, 0, 0);fill-opacity:0;fill-rule:evenodd;stroke:rgb(255, 0, 78);stroke-width:1;" d="M 912.135, 131.17 L 922.172, 117.326 L 925.114, 118.538 L 927.19, 115.596 L 924.248, 114.385 L 936.362, 97.772 L 936.881, 97.0798 L 950.898, 102.963 L 943.284, 113.519 L 938.265, 120.268 L 935.323, 119.057 L 934.285, 120.268 L 933.247, 121.826 L 936.189, 123.21 L 935.323, 124.421 L 926.152, 137.054 L 912.135, 131.17 z "/>
<path style="fill:rgb(0, 255, 0);fill-opacity:0;fill-rule:evenodd;stroke:rgb(255, 0, 78);stroke-width:1;" d="M 959.204, 213.195 L 967.51, 203.331 L 1010.6, 221.501 L 1003.16, 231.711 L 959.204, 213.195 z "/>
<path style="fill:rgb(0, 0, 255);fill-opacity:0;fill-rule:evenodd;stroke:rgb(255, 0, 78);stroke-width:1;" d="M 967.51, 203.331 L 975.817, 193.467 L 1018.04, 211.291 L 1010.6, 221.501 L 967.51, 203.331 z "/>
<path style="fill:rgb(255, 255, 0);fill-opacity:0;fill-rule:evenodd;stroke:rgb(255, 0, 78);stroke-width:1;" d="M 96.9068, 631.105 L 97.4259, 630.413 L 119.403, 600.822 L 133.42, 607.052 L 110.924, 637.162 L 96.9068, 631.105 z "/>
<path style="fill:rgb(255, 0, 0);fill-opacity:0;fill-rule:evenodd;stroke:rgb(255, 0, 78);stroke-width:1;" d="M 64.7199, 490.071 L 69.7383, 483.323 L 74.7567, 476.401 L 79.602, 469.825 L 94.3111, 449.751 L 104.867, 454.25 L 88.9466, 475.881 L 75.2758, 494.571 L 64.7199, 490.071 z "/>
<path style="fill:rgb(0, 255, 0);fill-opacity:0;fill-rule:evenodd;stroke:rgb(255, 0, 78);stroke-width:1;" d="M 763.141, 414.276 L 778.715, 392.645 L 782.349, 392.299 L 791.175, 380.013 L 800.865, 384.166 L 792.04, 396.279 L 792.213, 398.356 L 776.639, 419.814 L 763.141, 414.276 z "/>
<path style="fill:rgb(0, 0, 255);fill-opacity:0;fill-rule:evenodd;stroke:rgb(255, 0, 78);stroke-width:1;" d="M 56.9327, 538.698 L 78.5637, 509.107 L 84.1012, 501.666 L 95.3493, 506.338 L 88.7735, 515.336 L 68.1808, 543.543 L 56.9327, 538.698 z "/>
<path style="fill:rgb(255, 255, 0);fill-opacity:0;fill-rule:evenodd;stroke:rgb(255, 0, 78);stroke-width:1;" d="M 870.084, 664.504 L 884.793, 643.911 L 905.559, 652.563 L 890.677, 673.156 L 870.084, 664.504 z "/>
<path style="fill:rgb(255, 0, 0);fill-opacity:0;fill-rule:evenodd;stroke:rgb(255, 0, 78);stroke-width:1;" d="M 856.933, 97.599 L 875.449, 72.1609 L 890.85, 78.5637 L 872.334, 104.175 L 867.489, 102.098 L 864.72, 105.732 L 857.106, 102.444 L 859.701, 98.8103 L 856.933, 97.599 z "/>
<path style="fill:rgb(0, 255, 0);fill-opacity:0;fill-rule:evenodd;stroke:rgb(255, 0, 78);stroke-width:1;" d="M 849.492, 655.851 L 864.201, 635.432 L 884.793, 643.911 L 870.084, 664.504 L 849.492, 655.851 z "/>
<path style="fill:rgb(0, 0, 255);fill-opacity:0;fill-rule:evenodd;stroke:rgb(255, 0, 78);stroke-width:1;" d="M 906.597, 751.027 L 930.824, 717.629 L 932.382, 715.553 L 943.803, 720.398 L 942.937, 721.609 L 918.192, 755.873 L 906.597, 751.027 z "/>
<path style="fill:rgb(255, 255, 0);fill-opacity:0;fill-rule:evenodd;stroke:rgb(255, 0, 78);stroke-width:1;" d="M 841.531, 91.1962 L 860.048, 65.7582 L 875.449, 72.1609 L 856.933, 97.599 L 841.531, 91.1962 z "/>
<path style="fill:rgb(255, 0, 0);fill-opacity:0;fill-rule:evenodd;stroke:rgb(255, 0, 78);stroke-width:1;" d="M 895.349, 746.355 L 919.403, 712.957 L 930.824, 717.629 L 906.597, 751.027 L 895.349, 746.355 z "/>
<path style="fill:rgb(0, 255, 0);fill-opacity:0;fill-rule:evenodd;stroke:rgb(255, 0, 78);stroke-width:1;" d="M 60.0476, 620.376 L 64.7199, 614.147 L 83.236, 589.228 L 95.0032, 594.419 L 75.1027, 620.896 L 71.8148, 625.395 L 60.0476, 620.376 z "/>
<path style="fill:rgb(0, 0, 255);fill-opacity:0;fill-rule:evenodd;stroke:rgb(255, 0, 78);stroke-width:1;" d="M 974.778, 710.707 L 985.334, 696.171 L 992.948, 685.615 L 1007.31, 691.672 L 995.89, 707.419 L 989.141, 716.764 L 974.778, 710.707 z "/>
<path style="fill:rgb(255, 255, 0);fill-opacity:0;fill-rule:evenodd;stroke:rgb(255, 0, 78);stroke-width:1;" d="M 918.192, 755.873 L 942.937, 721.609 L 953.32, 725.936 L 941.207, 742.721 L 928.575, 760.199 L 918.192, 755.873 z "/>
<path style="fill:rgb(255, 0, 0);fill-opacity:0;fill-rule:evenodd;stroke:rgb(255, 0, 78);stroke-width:1;" d="M 75.968, 688.557 L 95.0032, 663.119 L 97.4259, 659.658 L 109.02, 664.677 L 98.6372, 678.693 L 87.5622, 693.576 L 75.968, 688.557 z "/>
<path style="fill:rgb(0, 255, 0);fill-opacity:0;fill-rule:evenodd;stroke:rgb(255, 0, 78);stroke-width:1;" d="M 118.538, 494.917 L 122.345, 490.071 L 138.092, 468.267 L 139.477, 466.364 L 151.071, 471.382 L 148.994, 473.978 L 130.132, 499.935 L 118.538, 494.917 z "/>
<path style="fill:rgb(0, 0, 255);fill-opacity:0;fill-rule:evenodd;stroke:rgb(255, 0, 78);stroke-width:1;" d="M 654.121, 157.993 L 662.427, 146.398 L 690.461, 157.993 L 682.154, 169.587 L 654.121, 157.993 z "/>
<path style="fill:rgb(255, 255, 0);fill-opacity:0;fill-rule:evenodd;stroke:rgb(255, 0, 78);stroke-width:1;" d="M 86.697, 625.914 L 106.597, 599.265 L 107.117, 598.572 L 111.616, 600.476 L 115.596, 598.918 L 119.576, 600.649 L 119.403, 600.822 L 97.4259, 630.413 L 93.4458, 630.759 L 88.4274, 628.683 L 86.697, 625.914 z "/>
<path style="fill:rgb(255, 0, 0);fill-opacity:0;fill-rule:evenodd;stroke:rgb(255, 0, 78);stroke-width:1;" d="M 68.1808, 543.543 L 88.7735, 515.336 L 99.8486, 520.009 L 79.2559, 548.215 L 68.1808, 543.543 z "/>
<path style="fill:rgb(0, 255, 0);fill-opacity:0;fill-rule:evenodd;stroke:rgb(255, 0, 78);stroke-width:1;" d="M 75.1027, 620.896 L 95.0032, 594.419 L 106.597, 599.265 L 86.697, 625.914 L 75.1027, 620.896 z "/>
<path style="fill:rgb(0, 0, 255);fill-opacity:0;fill-rule:evenodd;stroke:rgb(255, 0, 78);stroke-width:1;" d="M 79.2559, 548.215 L 99.8486, 520.009 L 110.578, 524.508 L 106.251, 530.565 L 89.9849, 552.715 L 79.2559, 548.215 z "/>
<path style="fill:rgb(255, 255, 0);fill-opacity:0;fill-rule:evenodd;stroke:rgb(255, 0, 78);stroke-width:1;" d="M 318.408, 411.681 L 324.638, 403.028 L 359.593, 417.737 L 353.364, 426.39 L 326.887, 415.315 L 318.408, 411.681 z "/>
<path style="fill:rgb(255, 0, 0);fill-opacity:0;fill-rule:evenodd;stroke:rgb(255, 0, 78);stroke-width:1;" d="M 301.795, 438.676 L 308.544, 429.505 L 341.077, 443.175 L 334.328, 452.347 L 301.795, 438.676 z "/>
<path style="fill:rgb(0, 255, 0);fill-opacity:0;fill-rule:evenodd;stroke:rgb(255, 0, 78);stroke-width:1;" d="M 220.809, 123.21 L 226.347, 116.461 L 246.766, 125.287 L 268.051, 134.285 L 262.86, 141.207 L 241.748, 132.209 L 220.809, 123.21 z "/>
<path style="fill:rgb(0, 0, 255);fill-opacity:0;fill-rule:evenodd;stroke:rgb(255, 0, 78);stroke-width:1;" d="M 47.069, 534.545 L 68.7, 504.953 L 78.5637, 509.107 L 56.9327, 538.698 L 47.069, 534.545 z "/>
<path style="fill:rgb(255, 255, 0);fill-opacity:0;fill-rule:evenodd;stroke:rgb(255, 0, 78);stroke-width:1;" d="M 211.984, 536.448 L 220.982, 524.162 L 244.17, 533.852 L 235.172, 546.139 L 233.268, 545.447 L 222.886, 541.12 L 211.984, 536.448 z "/>
<path style="fill:rgb(255, 0, 0);fill-opacity:0;fill-rule:evenodd;stroke:rgb(255, 0, 78);stroke-width:1;" d="M 641.834, 432.793 L 660.523, 407.008 L 661.735, 405.451 L 672.118, 409.95 L 652.217, 437.292 L 641.834, 432.793 z "/>
<path style="fill:rgb(0, 255, 0);fill-opacity:0;fill-rule:evenodd;stroke:rgb(255, 0, 78);stroke-width:1;" d="M 185.334, 573.134 L 194.333, 560.848 L 205.235, 565.347 L 215.618, 569.673 L 217.521, 570.539 L 208.523, 582.825 L 185.334, 573.134 z "/>
<path style="fill:rgb(0, 0, 255);fill-opacity:0;fill-rule:evenodd;stroke:rgb(255, 0, 78);stroke-width:1;" d="M 129.094, 501.146 L 130.132, 499.935 L 148.994, 473.978 L 159.55, 478.304 L 141.034, 503.569 L 139.65, 505.473 L 129.094, 501.146 z "/>
<path style="fill:rgb(255, 255, 0);fill-opacity:0;fill-rule:evenodd;stroke:rgb(255, 0, 78);stroke-width:1;" d="M 53.4718, 609.301 L 56.5866, 605.321 L 72.1609, 584.382 L 83.236, 589.228 L 64.7199, 614.147 L 53.4718, 609.301 z "/>
<path style="fill:rgb(255, 0, 0);fill-opacity:0;fill-rule:evenodd;stroke:rgb(255, 0, 78);stroke-width:1;" d="M 740.991, 474.67 L 761.064, 447.156 L 771.101, 451.482 L 751.201, 478.823 L 740.991, 474.67 z "/>
<path style="fill:rgb(0, 255, 0);fill-opacity:0;fill-rule:evenodd;stroke:rgb(255, 0, 78);stroke-width:1;" d="M 671.945, 445.598 L 691.845, 418.083 L 701.882, 422.41 L 681.981, 449.751 L 671.945, 445.598 z "/>
<path style="fill:rgb(0, 0, 255);fill-opacity:0;fill-rule:evenodd;stroke:rgb(255, 0, 78);stroke-width:1;" d="M 652.217, 437.292 L 672.118, 409.95 L 682.154, 414.103 L 662.254, 441.445 L 652.217, 437.292 z "/>
<path style="fill:rgb(255, 255, 0);fill-opacity:0;fill-rule:evenodd;stroke:rgb(255, 0, 78);stroke-width:1;" d="M 711.4, 462.038 L 731.3, 434.696 L 741.164, 438.849 L 721.263, 466.364 L 711.4, 462.038 z "/>
<path style="fill:rgb(255, 0, 0);fill-opacity:0;fill-rule:evenodd;stroke:rgb(255, 0, 78);stroke-width:1;" d="M 675.752, 307.333 L 681.116, 300.065 L 695.479, 279.991 L 705.516, 284.144 L 685.788, 311.486 L 675.752, 307.333 z "/>
<path style="fill:rgb(0, 255, 0);fill-opacity:0;fill-rule:evenodd;stroke:rgb(255, 0, 78);stroke-width:1;" d="M 745.49, 335.886 L 750.335, 329.31 L 765.044, 308.89 L 775.081, 313.043 L 758.642, 335.886 L 755.7, 340.212 L 745.49, 335.886 z "/>
<path style="fill:rgb(0, 0, 255);fill-opacity:0;fill-rule:evenodd;stroke:rgb(255, 0, 78);stroke-width:1;" d="M 721.263, 466.364 L 741.164, 438.849 L 751.201, 443.002 L 731.3, 470.517 L 721.263, 466.364 z "/>
<path style="fill:rgb(255, 255, 0);fill-opacity:0;fill-rule:evenodd;stroke:rgb(255, 0, 78);stroke-width:1;" d="M 681.981, 449.751 L 701.882, 422.41 L 711.746, 426.563 L 691.845, 453.904 L 681.981, 449.751 z "/>
<path style="fill:rgb(255, 0, 0);fill-opacity:0;fill-rule:evenodd;stroke:rgb(255, 0, 78);stroke-width:1;" d="M 715.553, 323.945 L 720.744, 316.677 L 735.28, 296.431 L 745.317, 300.584 L 730.435, 321.004 L 725.416, 328.099 L 715.553, 323.945 z "/>
<path style="fill:rgb(0, 255, 0);fill-opacity:0;fill-rule:evenodd;stroke:rgb(255, 0, 78);stroke-width:1;" d="M 731.3, 470.517 L 751.201, 443.002 L 761.064, 447.156 L 740.991, 474.67 L 731.3, 470.517 z "/>
<path style="fill:rgb(0, 0, 255);fill-opacity:0;fill-rule:evenodd;stroke:rgb(255, 0, 78);stroke-width:1;" d="M 691.845, 453.904 L 711.746, 426.563 L 721.609, 430.716 L 701.709, 458.058 L 691.845, 453.904 z "/>
<path style="fill:rgb(255, 255, 0);fill-opacity:0;fill-rule:evenodd;stroke:rgb(255, 0, 78);stroke-width:1;" d="M 308.544, 429.505 L 314.428, 421.198 L 320.658, 423.794 L 347.134, 435.042 L 341.077, 443.175 L 308.544, 429.505 z "/>
<path style="fill:rgb(255, 0, 0);fill-opacity:0;fill-rule:evenodd;stroke:rgb(255, 0, 78);stroke-width:1;" d="M 662.254, 441.445 L 682.154, 414.103 L 691.845, 418.083 L 671.945, 445.598 L 662.254, 441.445 z "/>
<path style="fill:rgb(0, 255, 0);fill-opacity:0;fill-rule:evenodd;stroke:rgb(255, 0, 78);stroke-width:1;" d="M 701.709, 458.058 L 721.609, 430.716 L 731.3, 434.696 L 711.4, 462.038 L 701.709, 458.058 z "/>
<path style="fill:rgb(0, 0, 255);fill-opacity:0;fill-rule:evenodd;stroke:rgb(255, 0, 78);stroke-width:1;" d="M 754.835, 507.549 L 754.835, 506.511 L 755.181, 505.127 L 764.006, 493.013 L 764.698, 492.148 L 766.083, 491.629 L 767.467, 491.456 L 769.024, 491.629 L 778.715, 495.955 L 779.753, 497.166 L 779.926, 498.032 L 779.926, 498.897 L 779.407, 499.935 L 770.409, 512.048 L 769.544, 512.741 L 768.159, 513.26 L 766.948, 513.26 L 765.563, 513.087 L 756.392, 509.453 L 755.354, 508.587 L 754.835, 507.549 z "/>
<path style="fill:rgb(255, 255, 0);fill-opacity:0;fill-rule:evenodd;stroke:rgb(255, 0, 78);stroke-width:1;" d="M 685.788, 311.486 L 705.516, 284.144 L 715.034, 288.125 L 700.498, 308.198 L 695.306, 315.466 L 685.788, 311.486 z "/>
<path style="fill:rgb(255, 0, 0);fill-opacity:0;fill-rule:evenodd;stroke:rgb(255, 0, 78);stroke-width:1;" d="M 663.638, 306.295 L 685.615, 275.838 L 695.479, 279.991 L 681.116, 300.065 L 676.963, 298.334 L 669.522, 308.717 L 663.638, 306.295 z "/>
<path style="fill:rgb(0, 255, 0);fill-opacity:0;fill-rule:evenodd;stroke:rgb(255, 0, 78);stroke-width:1;" d="M 939.477, 764.698 L 951.936, 747.393 L 960.069, 736.145 L 966.818, 738.914 L 958.685, 750.162 L 962.492, 751.72 L 949.859, 769.024 L 939.477, 764.698 z "/>
<path style="fill:rgb(0, 0, 255);fill-opacity:0;fill-rule:evenodd;stroke:rgb(255, 0, 78);stroke-width:1;" d="M 110.924, 485.226 L 126.844, 463.422 L 130.305, 462.73 L 133.593, 464.114 L 134.285, 466.537 L 138.092, 468.267 L 122.345, 490.071 L 110.924, 485.226 z "/>
<path style="fill:rgb(255, 255, 0);fill-opacity:0;fill-rule:evenodd;stroke:rgb(255, 0, 78);stroke-width:1;" d="M 757.776, 68.1808 L 769.717, 51.7413 L 785.118, 58.1441 L 778.369, 67.4886 L 773.005, 74.7567 L 757.776, 68.1808 z "/>
<path style="fill:rgb(255, 0, 0);fill-opacity:0;fill-rule:evenodd;stroke:rgb(255, 0, 78);stroke-width:1;" d="M 232.922, 400.952 L 243.997, 385.724 L 250.746, 376.552 L 261.129, 381.051 L 243.305, 405.278 L 232.922, 400.952 z "/>
<path style="fill:rgb(0, 255, 0);fill-opacity:0;fill-rule:evenodd;stroke:rgb(255, 0, 78);stroke-width:1;" d="M 273.242, 707.939 L 286.567, 689.596 L 300.411, 695.479 L 287.259, 713.649 L 273.242, 707.939 z "/>
<path style="fill:rgb(0, 0, 255);fill-opacity:0;fill-rule:evenodd;stroke:rgb(255, 0, 78);stroke-width:1;" d="M 205.235, 565.347 L 205.927, 564.309 L 208.177, 561.194 L 213.887, 553.58 L 219.944, 545.274 L 222.193, 541.986 L 222.886, 541.12 L 233.268, 545.447 L 230.154, 549.6 L 218.559, 565.52 L 215.618, 569.673 L 205.235, 565.347 z "/>
<path style="fill:rgb(255, 255, 0);fill-opacity:0;fill-rule:evenodd;stroke:rgb(255, 0, 78);stroke-width:1;" d="M 88.9466, 475.881 L 104.867, 454.25 L 116.115, 458.923 L 100.195, 480.727 L 88.9466, 475.881 z "/>
<path style="fill:rgb(255, 0, 0);fill-opacity:0;fill-rule:evenodd;stroke:rgb(255, 0, 78);stroke-width:1;" d="M 100.195, 480.727 L 116.115, 458.923 L 119.749, 458.404 L 122.691, 459.615 L 123.21, 461.865 L 126.844, 463.422 L 110.924, 485.226 L 100.195, 480.727 z "/>
<path style="fill:rgb(0, 255, 0);fill-opacity:0;fill-rule:evenodd;stroke:rgb(255, 0, 78);stroke-width:1;" d="M 170.106, 518.278 L 174.259, 512.395 L 189.833, 491.283 L 198.659, 494.917 L 178.931, 522.085 L 170.106, 518.278 z "/>
<path style="fill:rgb(0, 0, 255);fill-opacity:0;fill-rule:evenodd;stroke:rgb(255, 0, 78);stroke-width:1;" d="M 99.1564, 556.695 L 118.884, 529.526 L 127.709, 533.16 L 124.594, 537.486 L 107.809, 560.329 L 99.1564, 556.695 z "/>
<path style="fill:rgb(255, 255, 0);fill-opacity:0;fill-rule:evenodd;stroke:rgb(255, 0, 78);stroke-width:1;" d="M 178.931, 522.085 L 198.659, 494.917 L 207.484, 498.724 L 191.91, 519.836 L 187.584, 525.719 L 178.931, 522.085 z "/>
<path style="fill:rgb(255, 0, 0);fill-opacity:0;fill-rule:evenodd;stroke:rgb(255, 0, 78);stroke-width:1;" d="M 243.305, 405.278 L 261.129, 381.051 L 270.82, 385.031 L 255.246, 406.316 L 252.996, 409.431 L 243.305, 405.278 z "/>
<path style="fill:rgb(0, 255, 0);fill-opacity:0;fill-rule:evenodd;stroke:rgb(255, 0, 78);stroke-width:1;" d="M 44.8194, 674.713 L 60.3937, 653.775 L 71.2957, 658.62 L 55.7214, 679.386 L 44.8194, 674.713 z "/>
<path style="fill:rgb(0, 0, 255);fill-opacity:0;fill-rule:evenodd;stroke:rgb(255, 0, 78);stroke-width:1;" d="M 45.6846, 600.649 L 61.2589, 579.71 L 72.1609, 584.382 L 56.5866, 605.321 L 45.6846, 600.649 z "/>
<path style="fill:rgb(255, 255, 0);fill-opacity:0;fill-rule:evenodd;stroke:rgb(255, 0, 78);stroke-width:1;" d="M 320.658, 423.794 L 326.887, 415.315 L 353.364, 426.39 L 347.134, 435.042 L 320.658, 423.794 z "/>
<path style="fill:rgb(255, 0, 0);fill-opacity:0;fill-rule:evenodd;stroke:rgb(255, 0, 78);stroke-width:1;" d="M 89.9849, 552.715 L 106.251, 530.565 L 112.654, 533.333 L 119.057, 524.508 L 121.826, 525.719 L 118.884, 529.526 L 99.1564, 556.695 L 89.9849, 552.715 z "/>
<path style="fill:rgb(0, 255, 0);fill-opacity:0;fill-rule:evenodd;stroke:rgb(255, 0, 78);stroke-width:1;" d="M 255.246, 406.316 L 270.82, 385.031 L 281.549, 389.704 L 267.186, 409.258 L 263.033, 407.528 L 261.821, 409.085 L 255.246, 406.316 z "/>
<path style="fill:rgb(0, 0, 255);fill-opacity:0;fill-rule:evenodd;stroke:rgb(255, 0, 78);stroke-width:1;" d="M 758.642, 335.886 L 775.081, 313.043 L 784.599, 317.024 L 784.08, 317.716 L 769.544, 337.789 L 768.159, 339.866 L 758.642, 335.886 z "/>
<path style="fill:rgb(255, 255, 0);fill-opacity:0;fill-rule:evenodd;stroke:rgb(255, 0, 78);stroke-width:1;" d="M 656.889, 157.3 L 663.292, 148.475 L 687.692, 158.512 L 681.289, 167.337 L 656.889, 157.3 z "/>
<path style="fill:rgb(255, 0, 0);fill-opacity:0;fill-rule:evenodd;stroke:rgb(255, 0, 78);stroke-width:1;" d="M 194.852, 453.212 L 210.253, 432.273 L 220.463, 436.6 L 218.559, 439.195 L 205.235, 457.538 L 194.852, 453.212 z "/>
<path style="fill:rgb(0, 255, 0);fill-opacity:0;fill-rule:evenodd;stroke:rgb(255, 0, 78);stroke-width:1;" d="M 195.198, 545.966 L 203.85, 534.372 L 222.193, 541.986 L 219.944, 545.274 L 213.887, 553.58 L 195.198, 545.966 z "/>
<path style="fill:rgb(0, 0, 255);fill-opacity:0;fill-rule:evenodd;stroke:rgb(255, 0, 78);stroke-width:1;" d="M 107.809, 560.329 L 124.594, 537.486 L 133.766, 541.294 L 116.98, 564.309 L 107.809, 560.329 z "/>
<path style="fill:rgb(255, 255, 0);fill-opacity:0;fill-rule:evenodd;stroke:rgb(255, 0, 78);stroke-width:1;" d="M 949.859, 769.024 L 962.492, 751.72 L 965.088, 748.086 L 975.124, 752.239 L 963.703, 767.986 L 959.896, 773.351 L 949.859, 769.024 z "/>
<path style="fill:rgb(255, 0, 0);fill-opacity:0;fill-rule:evenodd;stroke:rgb(255, 0, 78);stroke-width:1;" d="M 900.887, 677.482 L 915.769, 656.889 L 926.152, 661.216 L 911.27, 681.635 L 900.887, 677.482 z "/>
<path style="fill:rgb(0, 255, 0);fill-opacity:0;fill-rule:evenodd;stroke:rgb(255, 0, 78);stroke-width:1;" d="M 890.677, 673.156 L 905.559, 652.563 L 915.769, 656.889 L 900.887, 677.482 L 890.677, 673.156 z "/>
<path style="fill:rgb(0, 0, 255);fill-opacity:0;fill-rule:evenodd;stroke:rgb(255, 0, 78);stroke-width:1;" d="M 700.498, 308.198 L 715.034, 288.125 L 725.243, 292.278 L 710.88, 312.524 L 700.498, 308.198 z "/>
<path style="fill:rgb(255, 255, 0);fill-opacity:0;fill-rule:evenodd;stroke:rgb(255, 0, 78);stroke-width:1;" d="M 266.494, 410.469 L 267.186, 409.258 L 281.549, 389.704 L 291.413, 393.857 L 277.569, 412.546 L 276.184, 414.623 L 266.494, 410.469 z "/>
<path style="fill:rgb(255, 0, 0);fill-opacity:0;fill-rule:evenodd;stroke:rgb(255, 0, 78);stroke-width:1;" d="M 730.435, 321.004 L 745.317, 300.584 L 755.181, 304.737 L 740.472, 325.157 L 730.435, 321.004 z "/>
<path style="fill:rgb(0, 255, 0);fill-opacity:0;fill-rule:evenodd;stroke:rgb(255, 0, 78);stroke-width:1;" d="M 839.455, 651.698 L 854.337, 631.278 L 864.201, 635.432 L 849.492, 655.851 L 839.455, 651.698 z "/>
<path style="fill:rgb(0, 0, 255);fill-opacity:0;fill-rule:evenodd;stroke:rgb(255, 0, 78);stroke-width:1;" d="M 804.845, 357.517 L 807.614, 353.537 L 821.977, 333.636 L 830.456, 337.097 L 816.093, 356.998 L 813.325, 360.978 L 804.845, 357.517 z "/>
<path style="fill:rgb(255, 255, 0);fill-opacity:0;fill-rule:evenodd;stroke:rgb(255, 0, 78);stroke-width:1;" d="M 245.901, 474.67 L 259.226, 456.5 L 270.301, 460.999 L 256.803, 479.342 L 245.901, 474.67 z "/>
<path style="fill:rgb(255, 0, 0);fill-opacity:0;fill-rule:evenodd;stroke:rgb(255, 0, 78);stroke-width:1;" d="M 769.544, 337.789 L 784.08, 317.716 L 794.116, 321.869 L 779.753, 341.942 L 769.544, 337.789 z "/>
<path style="fill:rgb(0, 255, 0);fill-opacity:0;fill-rule:evenodd;stroke:rgb(255, 0, 78);stroke-width:1;" d="M 198.832, 525.373 L 200.216, 523.47 L 215.791, 502.185 L 224.443, 505.819 L 219.252, 513.087 L 207.657, 529.007 L 198.832, 525.373 z "/>
<path style="fill:rgb(0, 0, 255);fill-opacity:0;fill-rule:evenodd;stroke:rgb(255, 0, 78);stroke-width:1;" d="M 710.88, 312.524 L 725.243, 292.278 L 735.28, 296.431 L 720.744, 316.677 L 710.88, 312.524 z "/>
<path style="fill:rgb(255, 255, 0);fill-opacity:0;fill-rule:evenodd;stroke:rgb(255, 0, 78);stroke-width:1;" d="M 740.472, 325.157 L 755.181, 304.737 L 765.044, 308.89 L 750.335, 329.31 L 740.472, 325.157 z "/>
<path style="fill:rgb(255, 0, 0);fill-opacity:0;fill-rule:evenodd;stroke:rgb(255, 0, 78);stroke-width:1;" d="M 116.98, 564.309 L 133.766, 541.294 L 142.418, 545.101 L 125.633, 567.943 L 116.98, 564.309 z "/>
<path style="fill:rgb(0, 255, 0);fill-opacity:0;fill-rule:evenodd;stroke:rgb(255, 0, 78);stroke-width:1;" d="M 277.569, 412.546 L 291.413, 393.857 L 301.449, 398.01 L 287.952, 416.353 L 287.605, 416.872 L 285.356, 416.872 L 283.279, 416.526 L 281.203, 415.834 L 279.472, 414.623 L 278.088, 413.411 L 277.569, 412.546 z "/>
<path style="fill:rgb(0, 0, 255);fill-opacity:0;fill-rule:evenodd;stroke:rgb(255, 0, 78);stroke-width:1;" d="M 911.27, 681.635 L 926.152, 661.216 L 936.362, 665.542 L 930.305, 673.848 L 924.075, 671.252 L 922.172, 673.848 L 928.575, 676.444 L 921.653, 685.961 L 911.27, 681.635 z "/>
<path style="fill:rgb(255, 255, 0);fill-opacity:0;fill-rule:evenodd;stroke:rgb(255, 0, 78);stroke-width:1;" d="M 235.345, 470.344 L 248.67, 452.001 L 259.226, 456.5 L 245.901, 474.67 L 235.345, 470.344 z "/>
<path style="fill:rgb(255, 0, 0);fill-opacity:0;fill-rule:evenodd;stroke:rgb(255, 0, 78);stroke-width:1;" d="M 816.093, 356.998 L 830.456, 337.097 L 840.147, 341.077 L 825.784, 361.151 L 816.093, 356.998 z "/>
<path style="fill:rgb(0, 255, 0);fill-opacity:0;fill-rule:evenodd;stroke:rgb(255, 0, 78);stroke-width:1;" d="M 205.235, 457.538 L 218.559, 439.195 L 228.769, 443.522 L 215.445, 461.865 L 205.235, 457.538 z "/>
<path style="fill:rgb(0, 0, 255);fill-opacity:0;fill-rule:evenodd;stroke:rgb(255, 0, 78);stroke-width:1;" d="M 287.952, 416.353 L 301.449, 398.01 L 311.659, 402.336 L 298.334, 420.679 L 287.952, 416.353 z "/>
<path style="fill:rgb(255, 255, 0);fill-opacity:0;fill-rule:evenodd;stroke:rgb(255, 0, 78);stroke-width:1;" d="M 798.096, 349.73 L 812.632, 329.656 L 821.977, 333.636 L 807.614, 353.537 L 798.096, 349.73 z "/>
<path style="fill:rgb(255, 0, 0);fill-opacity:0;fill-rule:evenodd;stroke:rgb(255, 0, 78);stroke-width:1;" d="M 165.434, 508.761 L 181.008, 487.476 L 189.833, 491.283 L 174.259, 512.395 L 165.434, 508.761 z "/>
<path style="fill:rgb(0, 255, 0);fill-opacity:0;fill-rule:evenodd;stroke:rgb(255, 0, 78);stroke-width:1;" d="M 928.575, 760.199 L 941.207, 742.721 L 951.936, 747.393 L 939.477, 764.698 L 928.575, 760.199 z "/>
<path style="fill:rgb(0, 0, 255);fill-opacity:0;fill-rule:evenodd;stroke:rgb(255, 0, 78);stroke-width:1;" d="M 125.633, 567.943 L 142.418, 545.101 L 150.552, 548.388 L 149.167, 550.292 L 133.766, 571.404 L 125.633, 567.943 z "/>
<path style="fill:rgb(255, 255, 0);fill-opacity:0;fill-rule:evenodd;stroke:rgb(255, 0, 78);stroke-width:1;" d="M 788.925, 345.923 L 803.288, 325.849 L 812.632, 329.656 L 798.096, 349.73 L 788.925, 345.923 z "/>
<path style="fill:rgb(255, 0, 0);fill-opacity:0;fill-rule:evenodd;stroke:rgb(255, 0, 78);stroke-width:1;" d="M 215.445, 461.865 L 228.769, 443.522 L 238.979, 447.848 L 225.481, 466.191 L 215.445, 461.865 z "/>
<path style="fill:rgb(0, 255, 0);fill-opacity:0;fill-rule:evenodd;stroke:rgb(255, 0, 78);stroke-width:1;" d="M 779.753, 341.942 L 794.116, 321.869 L 803.288, 325.849 L 788.925, 345.923 L 779.753, 341.942 z "/>
<path style="fill:rgb(0, 0, 255);fill-opacity:0;fill-rule:evenodd;stroke:rgb(255, 0, 78);stroke-width:1;" d="M 225.481, 466.191 L 238.979, 447.848 L 248.67, 452.001 L 235.345, 470.344 L 225.481, 466.191 z "/>
<path style="fill:rgb(255, 255, 0);fill-opacity:0;fill-rule:evenodd;stroke:rgb(255, 0, 78);stroke-width:1;" d="M 191.91, 519.836 L 207.484, 498.724 L 215.791, 502.185 L 200.216, 523.47 L 191.91, 519.836 z "/>
<path style="fill:rgb(255, 0, 0);fill-opacity:0;fill-rule:evenodd;stroke:rgb(255, 0, 78);stroke-width:1;" d="M 133.766, 571.404 L 149.167, 550.292 L 157.474, 553.926 L 142.072, 574.865 L 133.766, 571.404 z "/>
<path style="fill:rgb(0, 255, 0);fill-opacity:0;fill-rule:evenodd;stroke:rgb(255, 0, 78);stroke-width:1;" d="M 150.205, 578.326 L 165.607, 557.387 L 173.74, 560.848 L 158.339, 581.787 L 150.205, 578.326 z "/>
<path style="fill:rgb(0, 0, 255);fill-opacity:0;fill-rule:evenodd;stroke:rgb(255, 0, 78);stroke-width:1;" d="M 158.339, 581.787 L 173.74, 560.848 L 181.873, 564.309 L 171.836, 577.98 L 166.472, 585.248 L 158.339, 581.787 z "/>
<path style="fill:rgb(255, 255, 0);fill-opacity:0;fill-rule:evenodd;stroke:rgb(255, 0, 78);stroke-width:1;" d="M 142.072, 574.865 L 157.474, 553.926 L 165.607, 557.387 L 150.205, 578.326 L 142.072, 574.865 z "/>
<path style="fill:rgb(255, 0, 0);fill-opacity:0;fill-rule:evenodd;stroke:rgb(255, 0, 78);stroke-width:1;" d="M 282.76, 723.167 L 290.72, 712.438 L 304.91, 718.148 L 296.95, 729.223 L 282.76, 723.167 z "/>
<path style="fill:rgb(0, 255, 0);fill-opacity:0;fill-rule:evenodd;stroke:rgb(255, 0, 78);stroke-width:1;" d="M 652.044, 162.838 L 654.294, 159.723 L 680.078, 170.452 L 678.001, 173.394 L 673.675, 171.663 L 656.37, 164.568 L 652.044, 162.838 z "/>
<path style="fill:rgb(0, 0, 255);fill-opacity:0;fill-rule:evenodd;stroke:rgb(255, 0, 78);stroke-width:1;" d="M 664.504, 145.36 L 666.753, 142.591 L 670.906, 144.322 L 688.211, 151.417 L 692.537, 153.147 L 690.288, 156.089 L 664.504, 145.36 z "/>
<path style="fill:rgb(255, 255, 0);fill-opacity:0;fill-rule:evenodd;stroke:rgb(255, 0, 78);stroke-width:1;" d="M 653.948, 168.029 L 656.37, 164.568 L 673.675, 171.663 L 671.252, 175.124 L 653.948, 168.029 z "/>
<path style="fill:rgb(255, 0, 0);fill-opacity:0;fill-rule:evenodd;stroke:rgb(255, 0, 78);stroke-width:1;" d="M 670.906, 144.322 L 673.329, 140.688 L 690.807, 147.783 L 688.211, 151.417 L 670.906, 144.322 z "/>
<path style="fill:rgb(0, 255, 0);fill-opacity:0;fill-rule:evenodd;stroke:rgb(255, 0, 78);stroke-width:1;" d="M 642.353, 163.53 L 647.199, 156.781 L 649.795, 157.993 L 647.545, 161.108 L 650.833, 162.492 L 648.41, 165.78 L 653.948, 168.029 L 652.909, 169.414 L 646.161, 166.645 L 647.026, 165.434 L 642.353, 163.53 z "/>
<path style="fill:rgb(0, 0, 255);fill-opacity:0;fill-rule:evenodd;stroke:rgb(255, 0, 78);stroke-width:1;" d="M 690.807, 147.783 L 691.672, 146.398 L 698.421, 149.167 L 697.556, 150.552 L 702.228, 152.282 L 697.383, 159.031 L 694.787, 157.993 L 697.037, 154.705 L 693.922, 153.493 L 696.344, 150.032 L 690.807, 147.783 z "/>
<path style="fill:rgb(255, 255, 0);fill-opacity:0;fill-rule:evenodd;stroke:rgb(255, 0, 78);stroke-width:1;" d="M 657.409, 142.591 L 662.254, 136.016 L 666.926, 137.919 L 667.965, 136.708 L 674.367, 139.303 L 673.329, 140.688 L 667.965, 138.438 L 665.542, 141.899 L 662.427, 140.515 L 660.177, 143.63 L 657.409, 142.591 z "/>
<path style="fill:rgb(255, 0, 0);fill-opacity:0;fill-rule:evenodd;stroke:rgb(255, 0, 78);stroke-width:1;" d="M 670.214, 176.509 L 671.252, 175.124 L 676.617, 177.374 L 679.04, 174.086 L 682.154, 175.47 L 684.404, 172.183 L 687, 173.394 L 682.327, 179.97 L 677.655, 178.066 L 676.79, 179.278 L 670.214, 176.509 z "/>
<path style="fill:rgb(0, 255, 0);fill-opacity:0;fill-rule:evenodd;stroke:rgb(255, 0, 78);stroke-width:1;" d="M 638.892, 163.703 L 644.43, 155.743 L 647.199, 156.781 L 642.353, 163.53 L 647.026, 165.434 L 646.161, 166.645 L 652.909, 169.414 L 651.871, 170.798 L 644.084, 167.51 L 644.949, 166.126 L 638.892, 163.703 z "/>
<path style="fill:rgb(0, 0, 255);fill-opacity:0;fill-rule:evenodd;stroke:rgb(255, 0, 78);stroke-width:1;" d="M 691.672, 146.398 L 692.71, 145.014 L 700.671, 148.302 L 699.632, 149.686 L 705.862, 152.109 L 699.978, 160.069 L 697.383, 159.031 L 702.228, 152.282 L 697.556, 150.552 L 698.421, 149.167 L 691.672, 146.398 z "/>
<path style="fill:rgb(255, 255, 0);fill-opacity:0;fill-rule:evenodd;stroke:rgb(255, 0, 78);stroke-width:1;" d="M 669.176, 177.893 L 670.214, 176.509 L 676.79, 179.278 L 677.655, 178.066 L 682.327, 179.97 L 687, 173.394 L 689.769, 174.432 L 684.058, 182.392 L 677.828, 179.797 L 676.963, 181.181 L 669.176, 177.893 z "/>
<path style="fill:rgb(255, 0, 0);fill-opacity:0;fill-rule:evenodd;stroke:rgb(255, 0, 78);stroke-width:1;" d="M 654.813, 141.38 L 660.523, 133.593 L 666.753, 136.189 L 667.618, 134.804 L 675.406, 137.919 L 674.367, 139.303 L 667.965, 136.708 L 666.926, 137.919 L 662.254, 136.016 L 657.409, 142.591 L 654.813, 141.38 z "/>
<path style="fill:rgb(0, 255, 0);fill-opacity:0;fill-rule:evenodd;stroke:rgb(255, 0, 78);stroke-width:1;" d="M 0, 746.009 L 10.3829, 731.992 L 28.7259, 707.073 L 53.9909, 717.802 L 55.3753, 716.072 L 120.441, 743.933 L 91.8884, 782.695 L 62.1242, 769.89 L 22.6693, 753.104 L 21.1118, 755.008 L 0, 746.009 z "/>
<path style="fill:rgb(0, 0, 255);fill-opacity:0;fill-rule:evenodd;stroke:rgb(255, 0, 78);stroke-width:1;" d="M 34.0904, 106.944 L 48.7995, 87.043 L 53.8179, 89.1196 L 63.5085, 75.968 L 81.6786, 83.7551 L 74.2375, 93.7919 L 95.0032, 102.79 L 102.444, 92.5806 L 119.922, 100.022 L 110.404, 113 L 115.769, 115.423 L 101.233, 134.804 L 83.9282, 128.055 L 85.4856, 125.979 L 53.2987, 112.308 L 51.7413, 114.385 L 34.0904, 106.944 z "/>
<path style="fill:rgb(255, 255, 0);fill-opacity:0;fill-rule:evenodd;stroke:rgb(255, 0, 78);stroke-width:1;" d="M 34.6096, 450.79 L 50.703, 428.812 L 95.6954, 447.848 L 94.3111, 449.751 L 79.602, 469.825 L 36.6861, 451.655 L 34.6096, 450.79 z "/>
<path style="fill:rgb(255, 0, 0);fill-opacity:0;fill-rule:evenodd;stroke:rgb(255, 0, 78);stroke-width:1;" d="M 35.6478, 529.872 L 39.6279, 524.508 L 44.1272, 518.105 L 49.3186, 511.01 L 54.6831, 503.742 L 59.7015, 496.993 L 62.9894, 492.494 L 74.2375, 497.339 L 68.7, 504.953 L 47.069, 534.545 L 35.6478, 529.872 z "/>
<path style="fill:rgb(0, 255, 0);fill-opacity:0;fill-rule:evenodd;stroke:rgb(255, 0, 78);stroke-width:1;" d="M 26.4763, 321.869 L 32.706, 313.217 L 71.6418, 329.829 L 65.239, 338.308 L 26.4763, 321.869 z "/>
<path style="fill:rgb(0, 0, 255);fill-opacity:0;fill-rule:evenodd;stroke:rgb(255, 0, 78);stroke-width:1;" d="M 32.706, 313.217 L 38.5897, 305.256 L 76.8332, 321.523 L 77.3524, 321.869 L 71.6418, 329.829 L 32.706, 313.217 z "/>
<path style="fill:rgb(255, 255, 0);fill-opacity:0;fill-rule:evenodd;stroke:rgb(255, 0, 78);stroke-width:1;" d="M 16.7856, 478.823 L 21.9771, 471.901 L 64.7199, 490.071 L 62.9894, 492.494 L 59.7015, 496.993 L 16.7856, 478.823 z "/>
<path style="fill:rgb(255, 0, 0);fill-opacity:0;fill-rule:evenodd;stroke:rgb(255, 0, 78);stroke-width:1;" d="M 26.9955, 465.152 L 32.0138, 458.231 L 74.7567, 476.401 L 69.7383, 483.323 L 26.9955, 465.152 z "/>
<path style="fill:rgb(0, 255, 0);fill-opacity:0;fill-rule:evenodd;stroke:rgb(255, 0, 78);stroke-width:1;" d="M 30.9756, 600.303 L 50.0108, 574.865 L 61.2589, 579.71 L 45.6846, 600.649 L 42.3967, 605.148 L 30.9756, 600.303 z "/>
<path style="fill:rgb(0, 0, 255);fill-opacity:0;fill-rule:evenodd;stroke:rgb(255, 0, 78);stroke-width:1;" d="M 21.9771, 471.901 L 26.9955, 465.152 L 69.7383, 483.323 L 64.7199, 490.071 L 21.9771, 471.901 z "/>
<path style="fill:rgb(255, 255, 0);fill-opacity:0;fill-rule:evenodd;stroke:rgb(255, 0, 78);stroke-width:1;" d="M 32.0138, 458.231 L 36.6861, 451.655 L 79.602, 469.825 L 74.7567, 476.401 L 32.0138, 458.231 z "/>
<path style="fill:rgb(255, 0, 0);fill-opacity:0;fill-rule:evenodd;stroke:rgb(255, 0, 78);stroke-width:1;" d="M 34.2635, 670.387 L 50.0108, 649.275 L 60.3937, 653.775 L 44.8194, 674.713 L 44.6463, 674.886 L 34.2635, 670.387 z "/>
<path style="fill:rgb(0, 255, 0);fill-opacity:0;fill-rule:evenodd;stroke:rgb(255, 0, 78);stroke-width:1;" d="M 309.409, 81.5055 L 367.554, 0 L 421.198, 21.9771 L 401.298, 49.8378 L 444.733, 67.6617 L 446.117, 65.7582 L 450.097, 67.4886 L 456.673, 58.3171 L 486.957, 70.9496 L 480.035, 80.6403 L 484.88, 82.7169 L 483.496, 84.6204 L 526.758, 102.444 L 545.793, 75.6219 L 591.997, 94.6571 L 534.199, 175.47 L 487.822, 156.435 L 509.28, 126.498 L 465.326, 108.328 L 464.46, 109.712 L 459.961, 107.809 L 453.385, 117.153 L 423.275, 104.694 L 430.197, 95.1763 L 425.871, 93.4458 L 426.909, 92.0614 L 383.474, 74.0645 L 362.535, 103.483 L 309.409, 81.5055 z "/>
<path style="fill:rgb(0, 0, 255);fill-opacity:0;fill-rule:evenodd;stroke:rgb(255, 0, 78);stroke-width:1;" d="M 669.868, 91.5423 L 730.608, 8.30629 L 784.772, 31.1486 L 769.717, 51.7413 L 757.776, 68.1808 L 724.205, 114.385 L 669.868, 91.5423 z "/>
<path style="fill:rgb(255, 255, 0);fill-opacity:0;fill-rule:evenodd;stroke:rgb(255, 0, 78);stroke-width:1;" d="M 922.864, 48.6264 L 945.706, 17.3048 L 1005.06, 42.2237 L 999.351, 50.1839 L 982.738, 73.0262 L 965.78, 65.9312 L 964.568, 67.4886 L 955.397, 63.5085 L 951.417, 69.0461 L 928.921, 59.5284 L 933.42, 53.1257 L 922.864, 48.6264 z "/>
<path style="fill:rgb(255, 0, 0);fill-opacity:0;fill-rule:evenodd;stroke:rgb(255, 0, 78);stroke-width:1;" d="M 75.7949, 59.0093 L 85.1395, 46.3768 L 80.1211, 44.1272 L 95.0032, 24.2267 L 112.481, 31.6677 L 111.616, 32.706 L 143.63, 46.3768 L 144.668, 44.9924 L 162.146, 52.4335 L 147.437, 72.507 L 141.726, 70.0844 L 132.382, 82.5438 L 114.904, 75.1027 L 122.345, 65.066 L 101.406, 56.2405 L 93.7919, 66.7965 L 75.7949, 59.0093 z "/>
<path style="fill:rgb(0, 255, 0);fill-opacity:0;fill-rule:evenodd;stroke:rgb(255, 0, 78);stroke-width:1;" d="M 797.404, 81.1594 L 797.75, 79.2559 L 811.94, 59.8745 L 806.23, 57.4519 L 814.19, 46.3768 L 815.92, 44.1272 L 846.031, 56.9327 L 844.3, 59.1823 L 844.819, 59.3554 L 836.859, 70.4305 L 830.976, 67.8347 L 816.786, 87.3891 L 814.882, 88.4274 L 797.404, 81.1594 z "/>
<path style="fill:rgb(0, 0, 255);fill-opacity:0;fill-rule:evenodd;stroke:rgb(255, 0, 78);stroke-width:1;" d="M 778.369, 67.4886 L 785.118, 58.1441 L 798.443, 39.801 L 814.19, 46.3768 L 806.23, 57.4519 L 794.116, 74.0645 L 778.369, 67.4886 z "/>
<path style="fill:rgb(255, 255, 0);fill-opacity:0;fill-rule:evenodd;stroke:rgb(255, 0, 78);stroke-width:1;" d="M 187.757, 63.3355 L 197.448, 50.3569 L 207.138, 37.0322 L 217.348, 41.1854 L 207.484, 54.5101 L 202.293, 61.7781 L 197.967, 67.6617 L 187.757, 63.3355 z "/>
</svg>