<?xml version="1.0" encoding="iso-8859-1" standalone="no"?>
<!DOCTYPE svg PUBLIC "-//W3C//DTD SVG 1.0//EN" "http://www.w3.org/TR/2001/REC-SVG-20010904/DTD/svg10.dtd">
<svg xmlns="http://www.w3.org/2000/svg" width="1122" height="800">
<path style="fill:rgb(255, 0, 0);fill-opacity:0;fill-rule:evenodd;stroke:rgb(223, 255, 0);stroke-width:1;" d="M 123.708, 490.458 L 146.846, 458.574 L 297.335, 521.43 L 276.201, 550.581 L 282.214, 554.042 L 276.019, 562.605 L 268.914, 560.601 L 255.249, 579.549 L 324.664, 608.517 L 303.712, 637.668 L 133.91, 566.614 L 168.527, 518.697 L 180.733, 523.799 L 186.017, 516.511 L 123.708, 490.458 z "/>
<path style="fill:rgb(0, 255, 0);fill-opacity:0;fill-rule:evenodd;stroke:rgb(223, 255, 0);stroke-width:1;" d="M 900.205, 589.387 L 904.942, 582.829 L 957.777, 509.041 L 959.599, 506.491 L 997.677, 522.159 L 977.636, 550.034 L 1069.1, 587.748 L 1089.14, 559.69 L 1122.3, 573.172 L 1062.9, 656.251 L 1026.65, 641.312 L 1046.32, 613.983 L 1022.64, 604.145 L 1001.87, 633.113 L 960.692, 616.169 L 966.522, 608.335 L 968.162, 609.064 L 983.284, 588.112 L 957.413, 577.363 L 937.736, 604.874 L 900.205, 589.387 z "/>
<path style="fill:rgb(0, 0, 255);fill-opacity:0;fill-rule:evenodd;stroke:rgb(223, 255, 0);stroke-width:1;" d="M 836.074, 555.864 L 845.183, 552.585 L 841.54, 544.751 L 852.107, 542.2 L 849.192, 534.001 L 859.03, 533.273 L 858.119, 522.341 L 864.496, 522.706 L 866.135, 510.317 L 869.05, 511.41 L 891.642, 480.437 L 933.182, 498.11 L 932.817, 498.474 L 957.777, 509.041 L 904.942, 582.829 L 849.009, 559.326 L 844.819, 561.33 L 841.54, 560.055 L 838.989, 558.597 L 836.074, 555.864 z "/>
<path style="fill:rgb(255, 255, 0);fill-opacity:0;fill-rule:evenodd;stroke:rgb(223, 255, 0);stroke-width:1;" d="M 373.309, 604.874 L 401.731, 565.52 L 439.991, 581.553 L 434.525, 589.023 L 438.716, 590.663 L 484.81, 609.975 L 490.093, 602.87 L 528.9, 619.084 L 518.515, 633.66 L 525.074, 636.393 L 506.308, 662.264 L 449.1, 638.397 L 450.558, 636.393 L 411.751, 620.178 L 410.658, 621.817 L 373.856, 606.513 L 374.767, 605.42 L 373.309, 604.874 z "/>
<path style="fill:rgb(255, 0, 0);fill-opacity:0;fill-rule:evenodd;stroke:rgb(223, 255, 0);stroke-width:1;" d="M 548.759, 683.944 L 556.229, 673.742 L 551.856, 671.92 L 561.512, 658.802 L 590.298, 670.827 L 592.12, 668.458 L 590.845, 667.912 L 598.497, 657.345 L 638.032, 673.924 L 648.417, 669.187 L 661.899, 674.835 L 597.768, 762.833 L 577.545, 754.27 L 569.893, 750.991 L 611.797, 693.418 L 596.128, 686.859 L 594.671, 688.864 L 596.128, 689.41 L 588.112, 700.342 L 548.759, 683.944 z "/>
<path style="fill:rgb(0, 255, 0);fill-opacity:0;fill-rule:evenodd;stroke:rgb(223, 255, 0);stroke-width:1;" d="M 854.475, 629.287 L 867.046, 611.979 L 1002.05, 668.823 L 989.478, 686.131 L 985.47, 684.491 L 961.239, 674.288 L 951.218, 687.77 L 965.065, 693.783 L 949.032, 715.828 L 906.764, 698.155 L 922.979, 675.928 L 938.101, 682.305 L 947.939, 668.64 L 854.475, 629.287 z "/>
<path style="fill:rgb(0, 0, 255);fill-opacity:0;fill-rule:evenodd;stroke:rgb(223, 255, 0);stroke-width:1;" d="M 767.57, 165.065 L 798.907, 122.614 L 805.648, 125.347 L 813.118, 115.145 L 806.377, 112.412 L 837.349, 70.1435 L 852.107, 76.5202 L 849.556, 79.9818 L 868.139, 87.816 L 847.916, 115.327 L 824.231, 147.575 L 803.462, 175.814 L 784.878, 167.798 L 782.327, 171.442 L 767.57, 165.065 z "/>
<path style="fill:rgb(255, 255, 0);fill-opacity:0;fill-rule:evenodd;stroke:rgb(223, 255, 0);stroke-width:1;" d="M 726.941, 456.935 L 735.14, 445.639 L 760.829, 456.388 L 765.566, 456.752 L 765.748, 456.57 L 764.655, 456.024 L 765.566, 454.748 L 737.326, 442.724 L 752.813, 427.055 L 750.08, 425.962 L 758.643, 417.035 L 759.554, 416.124 L 773.947, 422.136 L 760.282, 440.902 L 763.562, 442.177 L 777.226, 423.594 L 792.895, 430.153 L 779.23, 448.736 L 782.692, 450.194 L 796.356, 431.61 L 811.114, 437.805 L 797.449, 456.752 L 800.729, 458.21 L 814.575, 439.262 L 830.244, 445.821 L 810.385, 473.15 L 802.186, 469.87 L 798.725, 470.599 L 796.538, 469.688 L 794.534, 466.591 L 776.315, 458.939 L 774.675, 459.485 L 774.858, 461.672 L 791.437, 468.595 L 791.801, 470.417 L 807.47, 476.976 L 797.996, 489.911 L 783.238, 483.717 L 781.781, 483.17 L 783.603, 480.802 L 763.197, 472.239 L 766.841, 467.32 L 761.922, 465.315 L 758.46, 470.235 L 726.941, 456.935 z "/>
<path style="fill:rgb(255, 0, 0);fill-opacity:0;fill-rule:evenodd;stroke:rgb(223, 255, 0);stroke-width:1;" d="M 522.888, 282.214 L 529.264, 273.286 L 536.188, 276.201 L 561.512, 241.221 L 559.326, 240.31 L 585.379, 204.6 L 617.809, 218.265 L 610.522, 228.285 L 610.522, 230.107 L 609.975, 231.929 L 609.428, 232.84 L 607.971, 234.297 L 607.06, 235.026 L 604.874, 235.937 L 604.874, 237.03 L 604.327, 239.034 L 603.234, 240.856 L 602.505, 241.767 L 600.683, 243.407 L 598.497, 244.682 L 591.756, 253.974 L 593.578, 254.703 L 561.694, 298.429 L 522.888, 282.214 z "/>
<path style="fill:rgb(0, 255, 0);fill-opacity:0;fill-rule:evenodd;stroke:rgb(223, 255, 0);stroke-width:1;" d="M 647.688, 625.461 L 702.346, 550.763 L 734.958, 564.427 L 680.301, 639.125 L 647.688, 625.461 z "/>
<path style="fill:rgb(0, 0, 255);fill-opacity:0;fill-rule:evenodd;stroke:rgb(223, 255, 0);stroke-width:1;" d="M 622.364, 116.967 L 625.643, 112.412 L 632.749, 115.327 L 637.486, 108.768 L 630.198, 105.853 L 634.571, 100.023 L 652.972, 74.6982 L 653.883, 73.2407 L 710.362, 96.9255 L 678.661, 140.651 L 633.113, 121.521 L 622.364, 116.967 z "/>
<path style="fill:rgb(255, 255, 0);fill-opacity:0;fill-rule:evenodd;stroke:rgb(223, 255, 0);stroke-width:1;" d="M 189.478, 141.562 L 197.677, 130.449 L 209.702, 114.051 L 217.536, 103.667 L 221.726, 97.8365 L 232.293, 102.391 L 228.467, 107.675 L 252.152, 117.695 L 264.359, 122.797 L 268.185, 117.513 L 279.116, 122.068 L 269.825, 134.821 L 271.1, 135.368 L 259.075, 151.765 L 254.703, 157.959 L 253.245, 157.231 L 247.051, 165.976 L 189.478, 141.562 z "/>
<path style="fill:rgb(255, 0, 0);fill-opacity:0;fill-rule:evenodd;stroke:rgb(223, 255, 0);stroke-width:1;" d="M 186.381, 738.602 L 198.588, 721.84 L 202.961, 723.662 L 211.706, 711.455 L 208.244, 709.998 L 212.07, 704.532 L 215.714, 706.172 L 221.18, 698.52 L 274.926, 721.111 L 244.318, 763.015 L 186.381, 738.602 z "/>
<path style="fill:rgb(0, 255, 0);fill-opacity:0;fill-rule:evenodd;stroke:rgb(223, 255, 0);stroke-width:1;" d="M 745.889, 660.806 L 768.663, 627.83 L 771.943, 628.923 L 792.53, 637.486 L 813.482, 646.777 L 833.887, 655.887 L 802.186, 699.248 L 786.882, 692.872 L 794.899, 681.94 L 783.421, 677.021 L 755.91, 665.179 L 747.529, 661.717 L 745.889, 660.806 z "/>
<path style="fill:rgb(0, 0, 255);fill-opacity:0;fill-rule:evenodd;stroke:rgb(223, 255, 0);stroke-width:1;" d="M 940.834, 742.974 L 964.518, 710.362 L 970.348, 713.095 L 977.09, 703.257 L 1018.81, 720.929 L 1014.99, 726.031 L 1016.44, 726.759 L 992.94, 758.643 L 991.3, 757.914 L 987.474, 763.015 L 975.814, 757.914 L 969.073, 755.181 L 953.587, 748.44 L 940.834, 742.974 z "/>
<path style="fill:rgb(255, 255, 0);fill-opacity:0;fill-rule:evenodd;stroke:rgb(223, 255, 0);stroke-width:1;" d="M 199.135, 387.156 L 231.2, 343.248 L 275.837, 362.195 L 245.593, 403.553 L 214.803, 390.435 L 212.981, 392.986 L 199.135, 387.156 z M 229.014, 376.953 L 242.314, 382.601 L 251.241, 370.394 L 237.941, 364.746 L 229.014, 376.953 z "/>
<path style="fill:rgb(255, 0, 0);fill-opacity:0;fill-rule:evenodd;stroke:rgb(223, 255, 0);stroke-width:1;" d="M 73.9695, 331.952 L 96.0146, 301.89 L 93.0995, 300.615 L 101.662, 289.137 L 139.923, 305.352 L 140.651, 305.352 L 141.927, 305.716 L 142.838, 306.445 L 143.566, 307.538 L 143.566, 308.085 L 143.384, 308.996 L 143.02, 309.542 L 141.927, 310.271 L 113.505, 348.713 L 73.9695, 331.952 z M 104.942, 317.559 L 110.954, 320.109 L 116.784, 312.457 L 118.606, 311.364 L 111.865, 308.267 L 104.942, 317.559 z M 93.4639, 331.77 L 101.298, 335.049 L 105.488, 329.583 L 97.8365, 326.304 L 93.4639, 331.77 z "/>
<path style="fill:rgb(0, 255, 0);fill-opacity:0;fill-rule:evenodd;stroke:rgb(223, 255, 0);stroke-width:1;" d="M 824.231, 147.575 L 847.916, 115.327 L 893.1, 130.813 L 887.634, 143.02 L 878.706, 155.773 L 866.682, 168.162 L 824.231, 147.575 z "/>
<path style="fill:rgb(0, 0, 255);fill-opacity:0;fill-rule:evenodd;stroke:rgb(223, 255, 0);stroke-width:1;" d="M 972.899, 701.617 L 985.47, 684.491 L 989.478, 686.131 L 1002.05, 668.823 L 1044.68, 686.859 L 1018.81, 720.929 L 977.09, 703.257 L 972.899, 701.617 z "/>
<path style="fill:rgb(255, 255, 0);fill-opacity:0;fill-rule:evenodd;stroke:rgb(223, 255, 0);stroke-width:1;" d="M 244.5, 99.8406 L 262.355, 75.427 L 258.711, 73.9695 L 267.456, 62.1271 L 269.096, 59.7586 L 313.004, 78.5243 L 284.036, 117.877 L 254.703, 105.488 L 255.432, 104.395 L 244.5, 99.8406 z M 263.812, 92.1886 L 278.388, 98.3831 L 285.675, 88.7269 L 285.311, 87.2694 L 273.651, 82.3503 L 270.553, 83.079 L 263.812, 92.1886 z "/>
<path style="fill:rgb(255, 0, 0);fill-opacity:0;fill-rule:evenodd;stroke:rgb(223, 255, 0);stroke-width:1;" d="M 251.606, 316.101 L 251.97, 315.008 L 252.699, 314.279 L 274.744, 284.036 L 275.837, 284.4 L 299.522, 294.42 L 297.882, 296.789 L 302.437, 298.793 L 291.141, 314.279 L 294.056, 315.555 L 305.352, 300.068 L 318.105, 305.352 L 295.696, 336.324 L 255.067, 319.016 L 253.61, 318.834 L 252.517, 318.105 L 251.788, 317.194 L 251.606, 316.101 z "/>
<path style="fill:rgb(0, 255, 0);fill-opacity:0;fill-rule:evenodd;stroke:rgb(223, 255, 0);stroke-width:1;" d="M 369.301, 451.105 L 378.228, 439.08 L 377.135, 436.165 L 383.876, 427.238 L 387.156, 428.513 L 389.342, 425.416 L 386.062, 424.14 L 393.168, 414.484 L 394.443, 412.662 L 437.622, 430.881 L 427.055, 445.092 L 425.233, 444.363 L 424.505, 445.274 L 425.233, 447.643 L 410.476, 467.684 L 409.201, 469.688 L 401.002, 466.044 L 406.286, 458.757 L 406.468, 457.117 L 419.586, 439.262 L 417.581, 437.44 L 414.666, 436.165 L 412.48, 439.262 L 415.395, 440.355 L 408.472, 449.829 L 405.192, 450.376 L 396.265, 462.583 L 385.151, 458.028 L 394.079, 445.821 L 393.168, 443.088 L 389.706, 443.817 L 380.779, 456.024 L 369.301, 451.105 z M 396.994, 433.068 L 399.727, 434.161 L 402.277, 435.254 L 404.646, 432.157 L 399.362, 429.788 L 396.994, 433.068 z "/>
<path style="fill:rgb(0, 0, 255);fill-opacity:0;fill-rule:evenodd;stroke:rgb(223, 255, 0);stroke-width:1;" d="M 554.225, 442.906 L 579.185, 407.925 L 582.829, 409.565 L 586.108, 404.828 L 590.298, 406.65 L 591.938, 404.464 L 601.776, 408.472 L 600.319, 410.658 L 608.335, 413.938 L 604.874, 418.675 L 612.161, 421.59 L 587.019, 456.57 L 554.225, 442.906 z "/>
<path style="fill:rgb(255, 255, 0);fill-opacity:0;fill-rule:evenodd;stroke:rgb(223, 255, 0);stroke-width:1;" d="M 174.903, 420.314 L 199.135, 387.156 L 212.981, 392.986 L 220.087, 395.901 L 212.252, 406.468 L 216.625, 408.472 L 215.532, 410.112 L 220.451, 408.472 L 223.184, 404.646 L 224.641, 404.281 L 227.921, 399.727 L 239.945, 404.828 L 215.896, 437.622 L 203.689, 432.521 L 206.604, 428.695 L 206.604, 427.055 L 208.973, 423.776 L 202.778, 421.225 L 196.584, 429.606 L 174.903, 420.314 z "/>
<path style="fill:rgb(255, 0, 0);fill-opacity:0;fill-rule:evenodd;stroke:rgb(223, 255, 0);stroke-width:1;" d="M 787.611, 607.06 L 804.373, 583.739 L 840.446, 598.497 L 839.718, 599.408 L 851.378, 604.327 L 851.013, 604.691 L 838.624, 622 L 824.596, 616.352 L 821.316, 620.906 L 808.199, 615.623 L 787.611, 607.06 z "/>
<path style="fill:rgb(0, 255, 0);fill-opacity:0;fill-rule:evenodd;stroke:rgb(223, 255, 0);stroke-width:1;" d="M 448.736, 550.945 L 478.433, 510.499 L 503.575, 521.066 L 486.814, 544.022 L 473.878, 561.512 L 448.736, 550.945 z "/>
<path style="fill:rgb(0, 0, 255);fill-opacity:0;fill-rule:evenodd;stroke:rgb(223, 255, 0);stroke-width:1;" d="M 771.943, 628.923 L 787.611, 607.06 L 808.199, 615.623 L 804.19, 621.271 L 817.855, 626.737 L 820.405, 627.101 L 825.142, 628.923 L 827.693, 627.647 L 830.061, 624.55 L 843.179, 630.016 L 826.964, 652.425 L 813.482, 646.777 L 817.308, 641.494 L 811.296, 638.943 L 809.656, 637.304 L 796.538, 631.838 L 792.53, 637.486 L 771.943, 628.923 z "/>
<path style="fill:rgb(255, 255, 0);fill-opacity:0;fill-rule:evenodd;stroke:rgb(223, 255, 0);stroke-width:1;" d="M 831.519, 712.002 L 837.896, 703.074 L 842.633, 704.896 L 863.402, 675.564 L 887.998, 685.584 L 879.253, 697.791 L 871.965, 694.694 L 862.127, 708.722 L 868.868, 711.637 L 860.305, 723.662 L 831.519, 712.002 z "/>
<path style="fill:rgb(255, 0, 0);fill-opacity:0;fill-rule:evenodd;stroke:rgb(223, 255, 0);stroke-width:1;" d="M 537.827, 372.034 L 542.018, 366.204 L 563.881, 336.506 L 565.52, 334.32 L 593.942, 346.163 L 592.485, 348.167 L 572.808, 375.131 L 566.249, 384.058 L 556.411, 379.868 L 574.448, 355.09 L 565.885, 351.446 L 547.848, 376.224 L 537.827, 372.034 z "/>
<path style="fill:rgb(0, 255, 0);fill-opacity:0;fill-rule:evenodd;stroke:rgb(223, 255, 0);stroke-width:1;" d="M 589.205, 459.668 L 597.039, 448.918 L 604.691, 452.015 L 606.878, 448.918 L 603.416, 447.461 L 623.457, 419.768 L 643.862, 434.89 L 636.393, 445.457 L 628.741, 442.177 L 618.174, 456.935 L 619.631, 458.392 L 625.279, 460.761 L 617.445, 471.51 L 589.205, 459.668 z "/>
<path style="fill:rgb(0, 0, 255);fill-opacity:0;fill-rule:evenodd;stroke:rgb(223, 255, 0);stroke-width:1;" d="M 161.421, 129.538 L 162.332, 128.262 L 170.166, 117.695 L 174.357, 119.517 L 193.487, 93.4639 L 217.536, 103.667 L 209.702, 114.051 L 202.414, 110.954 L 190.754, 126.805 L 193.487, 128.627 L 197.677, 130.449 L 189.478, 141.562 L 161.421, 129.538 z "/>
<path style="fill:rgb(255, 255, 0);fill-opacity:0;fill-rule:evenodd;stroke:rgb(223, 255, 0);stroke-width:1;" d="M 617.445, 471.51 L 625.279, 460.761 L 632.931, 463.858 L 642.041, 451.105 L 640.036, 449.465 L 635.117, 447.279 L 636.393, 445.457 L 643.862, 434.89 L 668.276, 452.744 L 661.717, 461.854 L 656.251, 459.668 L 653.701, 459.121 L 646.049, 469.688 L 647.871, 471.328 L 653.336, 473.514 L 646.231, 483.352 L 617.445, 471.51 z "/>
<path style="fill:rgb(255, 0, 0);fill-opacity:0;fill-rule:evenodd;stroke:rgb(223, 255, 0);stroke-width:1;" d="M 585.744, 541.836 L 591.574, 533.819 L 590.298, 532.179 L 593.396, 527.989 L 595.946, 527.989 L 597.039, 526.714 L 594.671, 525.803 L 597.039, 522.341 L 599.408, 522.523 L 604.509, 515.418 L 603.598, 513.414 L 609.246, 505.58 L 610.886, 503.575 L 631.291, 512.138 L 623.821, 522.341 L 621.271, 522.706 L 616.169, 529.629 L 616.534, 531.269 L 614.53, 533.819 L 612.526, 532.908 L 611.25, 534.548 L 612.526, 536.552 L 609.793, 540.378 L 607.424, 540.56 L 601.594, 548.577 L 585.744, 541.836 z "/>
<path style="fill:rgb(0, 255, 0);fill-opacity:0;fill-rule:evenodd;stroke:rgb(223, 255, 0);stroke-width:1;" d="M 734.047, 521.066 L 745.707, 505.215 L 751.902, 507.766 L 752.995, 506.126 L 749.351, 503.029 L 750.991, 500.478 L 751.173, 500.478 L 762.104, 505.215 L 766.295, 506.855 L 781.052, 513.049 L 765.566, 534.366 L 734.047, 521.066 z "/>
<path style="fill:rgb(0, 0, 255);fill-opacity:0;fill-rule:evenodd;stroke:rgb(223, 255, 0);stroke-width:1;" d="M 423.229, 474.972 L 429.059, 466.955 L 427.966, 464.951 L 439.991, 448.554 L 443.27, 450.011 L 445.457, 447.096 L 440.902, 445.092 L 448.189, 435.254 L 466.773, 443.088 L 459.485, 453.109 L 454.566, 450.922 L 452.562, 453.837 L 455.659, 455.113 L 443.635, 471.51 L 440.902, 472.421 L 435.254, 480.073 L 423.229, 474.972 z "/>
<path style="fill:rgb(255, 255, 0);fill-opacity:0;fill-rule:evenodd;stroke:rgb(223, 255, 0);stroke-width:1;" d="M 559.326, 203.143 L 568.8, 190.207 L 570.986, 187.11 L 628.558, 211.159 L 622.182, 220.087 L 617.809, 218.265 L 585.379, 204.6 L 569.893, 198.041 L 564.609, 205.329 L 559.326, 203.143 z "/>
<path style="fill:rgb(255, 0, 0);fill-opacity:0;fill-rule:evenodd;stroke:rgb(223, 255, 0);stroke-width:1;" d="M 884.901, 100.752 L 901.298, 76.8845 L 924.801, 86.1763 L 908.221, 110.043 L 884.901, 100.752 z "/>
<path style="fill:rgb(0, 255, 0);fill-opacity:0;fill-rule:evenodd;stroke:rgb(223, 255, 0);stroke-width:1;" d="M 629.287, 562.059 L 635.664, 553.496 L 633.842, 550.581 L 635.664, 548.03 L 638.397, 546.755 L 646.777, 535.277 L 648.417, 535.823 L 650.239, 533.455 L 646.777, 531.815 L 654.065, 521.795 L 671.191, 528.9 L 663.903, 538.921 L 660.806, 537.645 L 658.802, 540.196 L 660.806, 541.107 L 652.243, 552.585 L 652.061, 554.407 L 650.057, 557.322 L 646.231, 558.051 L 639.854, 566.614 L 629.287, 562.059 z "/>
<path style="fill:rgb(0, 0, 255);fill-opacity:0;fill-rule:evenodd;stroke:rgb(223, 255, 0);stroke-width:1;" d="M 442.542, 483.717 L 444.728, 480.802 L 442.906, 480.073 L 444.363, 478.251 L 444.91, 478.433 L 448.007, 474.425 L 446.368, 472.056 L 448.372, 469.324 L 450.922, 467.32 L 459.303, 456.024 L 460.943, 456.752 L 462.765, 454.384 L 459.485, 453.109 L 466.773, 443.088 L 483.717, 450.376 L 476.611, 460.214 L 472.967, 458.757 L 470.963, 461.307 L 473.15, 462.218 L 464.404, 474.061 L 464.404, 475.7 L 462.583, 478.251 L 458.939, 478.98 L 455.477, 483.717 L 456.388, 484.081 L 455.477, 485.356 L 453.291, 484.445 L 451.105, 487.361 L 442.542, 483.717 z "/>
<path style="fill:rgb(255, 255, 0);fill-opacity:0;fill-rule:evenodd;stroke:rgb(223, 255, 0);stroke-width:1;" d="M 646.595, 569.529 L 653.336, 560.601 L 651.514, 558.597 L 653.519, 555.864 L 655.523, 554.042 L 663.903, 542.747 L 665.725, 543.657 L 667.912, 540.56 L 663.903, 538.921 L 671.191, 528.9 L 688.317, 536.188 L 681.212, 546.026 L 677.932, 544.751 L 675.746, 547.666 L 677.75, 548.577 L 669.369, 560.055 L 669.187, 561.877 L 667.183, 564.792 L 663.357, 565.156 L 656.98, 573.901 L 646.595, 569.529 z "/>
<path style="fill:rgb(255, 0, 0);fill-opacity:0;fill-rule:evenodd;stroke:rgb(223, 255, 0);stroke-width:1;" d="M 166.887, 431.246 L 174.903, 420.314 L 196.584, 429.606 L 203.689, 432.521 L 215.896, 437.622 L 223.366, 440.902 L 215.35, 451.833 L 166.887, 431.246 z "/>
<path style="fill:rgb(0, 255, 0);fill-opacity:0;fill-rule:evenodd;stroke:rgb(223, 255, 0);stroke-width:1;" d="M 300.068, 487.725 L 307.903, 477.158 L 310.818, 478.251 L 314.644, 472.967 L 311.729, 471.874 L 315.008, 467.32 L 316.648, 467.866 L 321.385, 461.489 L 320.656, 459.121 L 322.296, 456.935 L 326.304, 456.388 L 329.765, 451.651 L 340.879, 456.388 L 337.417, 461.125 L 338.693, 463.129 L 336.689, 466.044 L 334.32, 466.773 L 329.583, 473.15 L 331.041, 473.878 L 327.761, 478.251 L 325.028, 477.158 L 321.02, 482.624 L 323.389, 483.717 L 315.555, 494.284 L 300.068, 487.725 z "/>
<path style="fill:rgb(0, 0, 255);fill-opacity:0;fill-rule:evenodd;stroke:rgb(223, 255, 0);stroke-width:1;" d="M 733.136, 490.093 L 738.966, 482.259 L 744.796, 484.81 L 746.8, 485.174 L 756.456, 489.182 L 759.918, 488.818 L 771.396, 493.555 L 769.574, 495.741 L 773.4, 497.381 L 775.04, 495.013 L 789.797, 501.389 L 781.052, 513.049 L 766.295, 506.855 L 768.117, 504.304 L 764.108, 502.665 L 762.104, 505.215 L 751.173, 500.478 L 750.991, 500.478 L 750.808, 497.563 L 733.136, 490.093 z "/>
<path style="fill:rgb(255, 255, 0);fill-opacity:0;fill-rule:evenodd;stroke:rgb(223, 255, 0);stroke-width:1;" d="M 739.33, 672.831 L 747.529, 661.717 L 755.91, 665.179 L 756.639, 667.365 L 780.323, 677.386 L 783.421, 677.021 L 794.899, 681.94 L 786.882, 692.872 L 739.33, 672.831 z "/>
<path style="fill:rgb(255, 0, 0);fill-opacity:0;fill-rule:evenodd;stroke:rgb(223, 255, 0);stroke-width:1;" d="M 741.335, 478.98 L 747.165, 470.963 L 752.813, 473.514 L 755.363, 473.696 L 765.019, 477.704 L 767.934, 477.158 L 779.595, 482.077 L 777.955, 484.445 L 781.599, 486.085 L 783.238, 483.717 L 797.996, 489.911 L 789.797, 501.389 L 775.04, 495.013 L 776.497, 493.008 L 772.854, 491.551 L 771.396, 493.555 L 759.918, 488.818 L 758.643, 486.085 L 741.335, 478.98 z "/>
<path style="fill:rgb(0, 255, 0);fill-opacity:0;fill-rule:evenodd;stroke:rgb(223, 255, 0);stroke-width:1;" d="M 284.582, 481.166 L 292.416, 470.599 L 295.331, 471.874 L 299.157, 466.591 L 296.425, 465.498 L 299.886, 460.578 L 301.89, 461.489 L 306.263, 455.477 L 306.081, 453.291 L 308.085, 450.376 L 310.635, 450.011 L 314.279, 445.092 L 324.846, 449.465 L 321.385, 454.384 L 322.296, 456.935 L 320.656, 459.121 L 317.923, 460.032 L 313.186, 466.409 L 315.008, 467.32 L 311.729, 471.874 L 308.813, 470.599 L 304.987, 475.882 L 307.903, 477.158 L 300.068, 487.725 L 284.582, 481.166 z "/>
<path style="fill:rgb(0, 0, 255);fill-opacity:0;fill-rule:evenodd;stroke:rgb(223, 255, 0);stroke-width:1;" d="M 118.606, 261.262 L 126.258, 250.695 L 129.355, 252.152 L 170.348, 269.46 L 167.616, 273.286 L 169.437, 275.473 L 166.887, 278.752 L 163.061, 279.299 L 162.696, 280.027 L 118.606, 261.262 z "/>
<path style="fill:rgb(255, 255, 0);fill-opacity:0;fill-rule:evenodd;stroke:rgb(223, 255, 0);stroke-width:1;" d="M 627.465, 129.355 L 633.113, 121.521 L 678.661, 140.651 L 670.645, 151.583 L 639.125, 138.465 L 640.401, 136.825 L 628.376, 131.906 L 629.652, 130.266 L 627.465, 129.355 z "/>
<path style="fill:rgb(255, 0, 0);fill-opacity:0;fill-rule:evenodd;stroke:rgb(223, 255, 0);stroke-width:1;" d="M 431.61, 542.382 L 439.444, 531.633 L 442.724, 533.09 L 444.91, 529.993 L 441.813, 528.718 L 442.359, 528.171 L 445.821, 523.252 L 448.736, 524.527 L 450.922, 521.612 L 450.011, 518.697 L 451.833, 516.147 L 455.295, 515.054 L 457.663, 511.956 L 459.485, 510.681 L 462.765, 506.126 L 471.692, 509.952 L 468.23, 514.871 L 467.684, 516.329 L 465.498, 519.244 L 466.591, 521.795 L 464.404, 524.892 L 460.943, 525.621 L 458.574, 528.9 L 460.214, 529.629 L 456.57, 534.366 L 453.837, 533.273 L 451.105, 536.916 L 453.837, 538.192 L 446.185, 548.577 L 431.61, 542.382 z "/>
<path style="fill:rgb(0, 255, 0);fill-opacity:0;fill-rule:evenodd;stroke:rgb(223, 255, 0);stroke-width:1;" d="M 503.758, 572.808 L 509.223, 565.338 L 511.228, 562.423 L 513.96, 563.516 L 517.422, 558.779 L 515.236, 557.868 L 518.151, 553.86 L 521.43, 549.488 L 523.616, 548.941 L 532.179, 537.281 L 542.929, 541.836 L 534.73, 552.949 L 535.095, 556.229 L 529.447, 563.881 L 527.078, 562.788 L 523.434, 567.889 L 525.985, 568.8 L 518.333, 579.003 L 503.758, 572.808 z "/>
<path style="fill:rgb(0, 0, 255);fill-opacity:0;fill-rule:evenodd;stroke:rgb(223, 255, 0);stroke-width:1;" d="M 935.732, 754.999 L 942.473, 745.889 L 950.854, 749.533 L 953.587, 748.44 L 969.073, 755.181 L 967.616, 757.003 L 973.081, 759.371 L 975.814, 757.914 L 987.474, 763.015 L 988.75, 763.562 L 981.644, 773.036 L 981.098, 773.4 L 980.005, 773.582 L 978.911, 773.4 L 935.732, 754.999 z "/>
<path style="fill:rgb(255, 255, 0);fill-opacity:0;fill-rule:evenodd;stroke:rgb(223, 255, 0);stroke-width:1;" d="M 489.182, 566.796 L 495.013, 558.962 L 498.11, 558.597 L 501.389, 554.225 L 499.932, 552.22 L 501.936, 549.305 L 505.033, 549.305 L 519.426, 529.447 L 530.175, 534.001 L 516.147, 553.131 L 518.151, 553.86 L 515.236, 557.868 L 514.689, 558.597 L 512.321, 557.686 L 508.312, 563.152 L 509.223, 565.338 L 503.758, 572.808 L 489.182, 566.796 z "/>
<path style="fill:rgb(255, 0, 0);fill-opacity:0;fill-rule:evenodd;stroke:rgb(223, 255, 0);stroke-width:1;" d="M 475.518, 560.966 L 480.802, 553.678 L 484.081, 552.585 L 487.178, 548.394 L 486.267, 546.39 L 488.271, 543.657 L 490.822, 543.293 L 505.397, 523.434 L 515.6, 527.807 L 501.207, 547.666 L 501.936, 549.305 L 499.932, 552.22 L 497.563, 552.767 L 494.466, 556.957 L 495.013, 558.962 L 489.182, 566.796 L 475.518, 560.966 z "/>
<path style="fill:rgb(0, 255, 0);fill-opacity:0;fill-rule:evenodd;stroke:rgb(223, 255, 0);stroke-width:1;" d="M 417.946, 536.734 L 426.873, 524.527 L 429.606, 525.621 L 431.246, 523.434 L 428.513, 522.341 L 435.801, 512.503 L 439.262, 512.503 L 447.825, 500.66 L 456.752, 504.486 L 447.643, 517.058 L 449.283, 518.515 L 445.821, 523.252 L 442.359, 528.171 L 439.262, 526.714 L 437.44, 529.447 L 440.173, 530.54 L 439.444, 531.633 L 431.61, 542.382 L 417.946, 536.734 z "/>
<path style="fill:rgb(0, 0, 255);fill-opacity:0;fill-rule:evenodd;stroke:rgb(223, 255, 0);stroke-width:1;" d="M 631.109, 409.018 L 636.393, 401.913 L 644.773, 390.253 L 648.053, 391.71 L 650.604, 388.249 L 647.324, 386.973 L 656.069, 374.949 L 656.798, 374.038 L 670.645, 379.868 L 662.446, 391.164 L 659.531, 389.888 L 658.256, 391.71 L 659.349, 392.075 L 643.134, 414.12 L 631.109, 409.018 z "/>
<path style="fill:rgb(255, 255, 0);fill-opacity:0;fill-rule:evenodd;stroke:rgb(223, 255, 0);stroke-width:1;" d="M 333.409, 202.778 L 340.15, 193.487 L 377.499, 209.155 L 386.062, 212.617 L 379.321, 221.908 L 333.409, 202.778 z "/>
<path style="fill:rgb(255, 0, 0);fill-opacity:0;fill-rule:evenodd;stroke:rgb(223, 255, 0);stroke-width:1;" d="M 812.936, 197.859 L 825.507, 180.369 L 849.009, 190.025 L 836.438, 207.515 L 812.936, 197.859 z "/>
<path style="fill:rgb(0, 255, 0);fill-opacity:0;fill-rule:evenodd;stroke:rgb(223, 255, 0);stroke-width:1;" d="M 582.464, 88.3626 L 588.294, 80.5284 L 583.739, 78.7064 L 601.594, 53.9285 L 602.141, 53.3819 L 604.691, 52.1066 L 611.432, 55.0216 L 611.432, 57.3901 L 614.894, 58.8476 L 614.53, 59.212 L 596.493, 83.99 L 590.845, 91.8242 L 582.464, 88.3626 z "/>
<path style="fill:rgb(0, 0, 255);fill-opacity:0;fill-rule:evenodd;stroke:rgb(223, 255, 0);stroke-width:1;" d="M 612.708, 171.259 L 618.72, 163.061 L 620.724, 163.79 L 623.275, 160.328 L 654.794, 173.628 L 646.231, 185.288 L 612.708, 171.259 z "/>
<path style="fill:rgb(255, 255, 0);fill-opacity:0;fill-rule:evenodd;stroke:rgb(223, 255, 0);stroke-width:1;" d="M 390.799, 123.708 L 397.54, 114.598 L 423.958, 125.529 L 422.501, 127.716 L 442.359, 135.914 L 437.258, 143.202 L 433.432, 141.562 L 390.799, 123.708 z "/>
<path style="fill:rgb(255, 0, 0);fill-opacity:0;fill-rule:evenodd;stroke:rgb(223, 255, 0);stroke-width:1;" d="M 272.922, 476.247 L 273.651, 474.972 L 281.12, 465.133 L 283.125, 464.587 L 297.882, 444.363 L 296.789, 443.817 L 300.068, 439.262 L 301.89, 439.991 L 303.166, 438.169 L 311.182, 441.631 L 291.87, 468.23 L 292.781, 470.052 L 292.416, 470.599 L 284.582, 481.166 L 272.922, 476.247 z "/>
<path style="fill:rgb(0, 255, 0);fill-opacity:0;fill-rule:evenodd;stroke:rgb(223, 255, 0);stroke-width:1;" d="M 181.28, 185.652 L 186.563, 178.547 L 190.754, 180.187 L 192.576, 177.636 L 221.726, 190.025 L 222.273, 189.296 L 228.103, 191.847 L 228.103, 195.491 L 222.455, 196.948 L 218.993, 201.685 L 187.839, 188.568 L 181.28, 185.652 z "/>
<path style="fill:rgb(0, 0, 255);fill-opacity:0;fill-rule:evenodd;stroke:rgb(223, 255, 0);stroke-width:1;" d="M 620.36, 94.0105 L 638.761, 68.8681 L 642.223, 70.1435 L 646.049, 69.2325 L 651.879, 71.7832 L 652.972, 74.6982 L 634.571, 100.023 L 620.36, 94.0105 z "/>
<path style="fill:rgb(255, 255, 0);fill-opacity:0;fill-rule:evenodd;stroke:rgb(223, 255, 0);stroke-width:1;" d="M 614.348, 555.682 L 642.587, 517.058 L 654.065, 521.795 L 646.777, 531.815 L 646.049, 532.908 L 642.769, 532.726 L 634.024, 544.568 L 634.024, 546.937 L 632.02, 549.488 L 628.741, 550.399 L 622.546, 558.962 L 614.348, 555.682 z "/>
<path style="fill:rgb(255, 0, 0);fill-opacity:0;fill-rule:evenodd;stroke:rgb(223, 255, 0);stroke-width:1;" d="M 606.696, 552.403 L 612.89, 544.022 L 611.979, 540.925 L 613.801, 538.374 L 616.352, 537.099 L 625.097, 525.074 L 623.275, 523.252 L 623.821, 522.341 L 631.291, 512.138 L 642.587, 517.058 L 614.348, 555.682 L 606.696, 552.403 z "/>
<path style="fill:rgb(0, 255, 0);fill-opacity:0;fill-rule:evenodd;stroke:rgb(223, 255, 0);stroke-width:1;" d="M 458.939, 490.64 L 465.498, 481.713 L 465.315, 480.255 L 477.887, 463.129 L 475.882, 461.125 L 476.611, 460.214 L 483.717, 450.376 L 495.377, 455.295 L 493.191, 458.028 L 485.539, 468.595 L 482.988, 467.684 L 482.077, 468.595 L 483.352, 471.51 L 477.704, 479.344 L 466.955, 493.919 L 458.939, 490.64 z "/>
<path style="fill:rgb(0, 0, 255);fill-opacity:0;fill-rule:evenodd;stroke:rgb(223, 255, 0);stroke-width:1;" d="M 384.787, 132.088 L 390.799, 123.708 L 433.432, 141.562 L 427.42, 149.943 L 411.205, 143.202 L 384.787, 132.088 z "/>
<path style="fill:rgb(255, 255, 0);fill-opacity:0;fill-rule:evenodd;stroke:rgb(223, 255, 0);stroke-width:1;" d="M 417.581, 85.8119 L 418.128, 84.5366 L 418.492, 83.8078 L 419.586, 82.8968 L 421.043, 82.1681 L 422.865, 81.8037 L 425.233, 78.7064 L 426.327, 79.0708 L 464.222, 94.9214 L 460.943, 99.6584 L 453.291, 96.379 L 449.283, 101.662 L 419.768, 89.4557 L 418.675, 88.3626 L 417.946, 87.0872 L 417.581, 85.8119 z "/>
<path style="fill:rgb(255, 0, 0);fill-opacity:0;fill-rule:evenodd;stroke:rgb(223, 255, 0);stroke-width:1;" d="M 631.109, 149.579 L 631.838, 148.486 L 631.291, 146.117 L 633.478, 143.202 L 636.21, 142.473 L 639.125, 138.465 L 670.645, 151.583 L 662.628, 162.696 L 631.109, 149.579 z "/>
<path style="fill:rgb(0, 255, 0);fill-opacity:0;fill-rule:evenodd;stroke:rgb(223, 255, 0);stroke-width:1;" d="M 129.355, 252.152 L 135.55, 243.407 L 147.21, 248.326 L 176.725, 260.897 L 170.348, 269.46 L 129.355, 252.152 z "/>
<path style="fill:rgb(0, 0, 255);fill-opacity:0;fill-rule:evenodd;stroke:rgb(223, 255, 0);stroke-width:1;" d="M 623.275, 160.328 L 624.004, 159.235 L 623.275, 157.231 L 625.643, 153.951 L 628.376, 153.223 L 631.109, 149.579 L 662.628, 162.696 L 654.794, 173.628 L 623.275, 160.328 z "/>
<path style="fill:rgb(255, 255, 0);fill-opacity:0;fill-rule:evenodd;stroke:rgb(223, 255, 0);stroke-width:1;" d="M 150.49, 123.343 L 173.81, 91.4598 L 180.551, 94.1927 L 175.996, 100.387 L 181.28, 102.573 L 170.166, 117.695 L 162.332, 128.262 L 150.49, 123.343 z "/>
<path style="fill:rgb(255, 0, 0);fill-opacity:0;fill-rule:evenodd;stroke:rgb(223, 255, 0);stroke-width:1;" d="M 93.0995, 98.9296 L 111.865, 73.2407 L 117.877, 75.7914 L 122.432, 69.5969 L 128.262, 72.1476 L 105.124, 103.667 L 101.116, 102.027 L 99.8406, 102.209 L 97.6543, 102.027 L 95.8324, 101.298 L 94.9214, 100.934 L 93.4639, 99.6584 L 93.0995, 98.9296 z "/>
<path style="fill:rgb(0, 255, 0);fill-opacity:0;fill-rule:evenodd;stroke:rgb(223, 255, 0);stroke-width:1;" d="M 104.942, 104.031 L 105.124, 103.667 L 128.262, 72.1476 L 134.457, 74.6982 L 129.902, 80.8927 L 135.55, 83.2612 L 116.784, 108.95 L 104.942, 104.031 z "/>
<path style="fill:rgb(0, 0, 255);fill-opacity:0;fill-rule:evenodd;stroke:rgb(223, 255, 0);stroke-width:1;" d="M 410.476, 467.684 L 425.233, 447.643 L 427.055, 445.092 L 437.622, 430.881 L 448.189, 435.254 L 440.902, 445.092 L 440.173, 446.185 L 436.529, 444.546 L 434.89, 446.732 L 438.533, 448.372 L 431.064, 458.757 L 427.966, 457.481 L 418.128, 470.963 L 410.476, 467.684 z "/>
<path style="fill:rgb(255, 255, 0);fill-opacity:0;fill-rule:evenodd;stroke:rgb(223, 255, 0);stroke-width:1;" d="M 237.395, 81.6215 L 255.432, 57.0257 L 256.343, 57.3901 L 257.618, 55.5682 L 262.719, 57.7545 L 263.448, 60.4874 L 267.456, 62.1271 L 258.711, 73.9695 L 245.047, 92.7351 L 239.763, 90.5488 L 244.136, 84.5366 L 237.395, 81.6215 z "/>
<path style="fill:rgb(255, 0, 0);fill-opacity:0;fill-rule:evenodd;stroke:rgb(223, 255, 0);stroke-width:1;" d="M 139.012, 118.424 L 157.777, 92.7351 L 162.514, 94.7392 L 167.069, 88.5448 L 173.81, 91.4598 L 150.49, 123.343 L 139.012, 118.424 z "/>
<path style="fill:rgb(0, 255, 0);fill-opacity:0;fill-rule:evenodd;stroke:rgb(223, 255, 0);stroke-width:1;" d="M 510.499, 208.244 L 516.693, 199.499 L 534.184, 175.632 L 545.662, 180.551 L 528.353, 204.418 L 526.714, 205.329 L 524.71, 205.693 L 522.888, 205.511 L 521.795, 205.329 L 520.155, 204.6 L 515.782, 210.43 L 510.499, 208.244 z "/>
<path style="fill:rgb(0, 0, 255);fill-opacity:0;fill-rule:evenodd;stroke:rgb(223, 255, 0);stroke-width:1;" d="M 439.08, 61.7627 L 445.274, 53.0175 L 482.077, 68.5038 L 478.251, 73.6051 L 480.437, 74.5161 L 481.895, 76.8845 L 480.437, 79.0708 L 476.793, 77.6133 L 439.08, 61.7627 z "/>
<path style="fill:rgb(255, 255, 0);fill-opacity:0;fill-rule:evenodd;stroke:rgb(223, 255, 0);stroke-width:1;" d="M 534.366, 355.272 L 551.674, 331.405 L 554.771, 331.952 L 557.868, 332.68 L 560.419, 333.956 L 561.694, 334.867 L 563.881, 336.506 L 542.018, 366.204 L 535.823, 363.653 L 540.196, 357.641 L 534.366, 355.272 z "/>
<path style="fill:rgb(255, 0, 0);fill-opacity:0;fill-rule:evenodd;stroke:rgb(223, 255, 0);stroke-width:1;" d="M 157.231, 216.261 L 161.421, 210.43 L 169.62, 213.892 L 200.41, 227.01 L 201.321, 227.374 L 199.135, 230.289 L 200.228, 232.111 L 197.313, 235.937 L 194.762, 236.302 L 167.069, 224.641 L 169.437, 221.362 L 157.231, 216.261 z "/>
<path style="fill:rgb(0, 255, 0);fill-opacity:0;fill-rule:evenodd;stroke:rgb(223, 255, 0);stroke-width:1;" d="M 580.278, 153.951 L 598.315, 129.173 L 603.78, 121.521 L 608.153, 123.343 L 602.87, 130.631 L 609.975, 133.728 L 591.938, 158.688 L 590.481, 158.142 L 589.205, 159.964 L 584.286, 157.959 L 584.468, 155.591 L 580.278, 153.951 z "/>
<path style="fill:rgb(0, 0, 255);fill-opacity:0;fill-rule:evenodd;stroke:rgb(223, 255, 0);stroke-width:1;" d="M 127.716, 113.687 L 151.036, 81.8037 L 157.413, 84.5366 L 152.858, 90.5488 L 157.777, 92.7351 L 139.012, 118.424 L 127.716, 113.687 z "/>
<path style="fill:rgb(255, 255, 0);fill-opacity:0;fill-rule:evenodd;stroke:rgb(223, 255, 0);stroke-width:1;" d="M 527.989, 215.714 L 534.366, 206.969 L 528.353, 204.418 L 545.662, 180.551 L 557.322, 185.47 L 533.637, 218.082 L 527.989, 215.714 z "/>
<path style="fill:rgb(255, 0, 0);fill-opacity:0;fill-rule:evenodd;stroke:rgb(223, 255, 0);stroke-width:1;" d="M 70.3257, 89.2735 L 93.6461, 57.5723 L 98.5652, 59.5764 L 94.1927, 65.7709 L 100.569, 68.5038 L 81.6215, 94.0105 L 79.7996, 93.2817 L 77.0667, 92.9173 L 75.9736, 92.3708 L 73.6051, 91.4598 L 71.7832, 89.8201 L 70.3257, 89.2735 z "/>
<path style="fill:rgb(0, 255, 0);fill-opacity:0;fill-rule:evenodd;stroke:rgb(223, 255, 0);stroke-width:1;" d="M 147.939, 226.828 L 153.769, 218.993 L 167.069, 224.641 L 194.762, 236.302 L 188.932, 244.136 L 159.417, 231.747 L 147.939, 226.828 z "/>
<path style="fill:rgb(0, 0, 255);fill-opacity:0;fill-rule:evenodd;stroke:rgb(223, 255, 0);stroke-width:1;" d="M 355.819, 281.12 L 373.856, 256.343 L 374.22, 255.978 L 375.495, 256.16 L 379.868, 257.982 L 381.143, 259.44 L 385.334, 261.262 L 367.297, 285.857 L 362.378, 292.598 L 356.73, 290.412 L 361.831, 283.489 L 355.819, 281.12 z "/>
<path style="fill:rgb(255, 255, 0);fill-opacity:0;fill-rule:evenodd;stroke:rgb(223, 255, 0);stroke-width:1;" d="M 116.784, 108.95 L 135.55, 83.2612 L 139.923, 85.0831 L 144.477, 79.0708 L 151.036, 81.8037 L 127.716, 113.687 L 116.784, 108.95 z "/>
<path style="fill:rgb(255, 0, 0);fill-opacity:0;fill-rule:evenodd;stroke:rgb(223, 255, 0);stroke-width:1;" d="M 390.253, 295.514 L 408.29, 270.918 L 410.112, 270.736 L 413.755, 272.193 L 415.577, 274.015 L 419.768, 275.837 L 396.812, 307.174 L 391.893, 304.987 L 396.629, 298.246 L 390.253, 295.514 z "/>
<path style="fill:rgb(0, 255, 0);fill-opacity:0;fill-rule:evenodd;stroke:rgb(223, 255, 0);stroke-width:1;" d="M 488.636, 115.509 L 506.673, 90.731 L 512.503, 93.0995 L 516.693, 87.2694 L 522.523, 89.8201 L 518.333, 95.6502 L 500.296, 120.428 L 488.636, 115.509 z "/>
<path style="fill:rgb(0, 0, 255);fill-opacity:0;fill-rule:evenodd;stroke:rgb(223, 255, 0);stroke-width:1;" d="M 482.624, 260.715 L 499.567, 237.395 L 506.855, 240.492 L 511.228, 234.662 L 516.329, 236.848 L 512.321, 242.314 L 495.013, 265.999 L 482.624, 260.715 z "/>
<path style="fill:rgb(255, 255, 0);fill-opacity:0;fill-rule:evenodd;stroke:rgb(223, 255, 0);stroke-width:1;" d="M 533.637, 218.082 L 557.322, 185.47 L 568.8, 190.207 L 559.326, 203.143 L 551.309, 214.074 L 545.479, 211.524 L 539.103, 220.269 L 533.637, 218.082 z "/>
<path style="fill:rgb(255, 0, 0);fill-opacity:0;fill-rule:evenodd;stroke:rgb(223, 255, 0);stroke-width:1;" d="M 80.5284, 172.899 L 102.573, 142.838 L 114.051, 147.757 L 96.1968, 172.17 L 90.1845, 169.62 L 85.9941, 175.268 L 80.5284, 172.899 z "/>
<path style="fill:rgb(0, 255, 0);fill-opacity:0;fill-rule:evenodd;stroke:rgb(223, 255, 0);stroke-width:1;" d="M 476.429, 110.408 L 494.466, 85.6297 L 506.673, 90.731 L 488.636, 115.509 L 484.263, 113.687 L 481.53, 115.327 L 476.429, 113.141 L 476.429, 110.408 z "/>
<path style="fill:rgb(0, 0, 255);fill-opacity:0;fill-rule:evenodd;stroke:rgb(223, 255, 0);stroke-width:1;" d="M 439.991, 242.86 L 457.663, 218.447 L 464.769, 221.362 L 467.866, 217.171 L 472.785, 219.358 L 452.015, 247.962 L 439.991, 242.86 z "/>
<path style="fill:rgb(255, 255, 0);fill-opacity:0;fill-rule:evenodd;stroke:rgb(223, 255, 0);stroke-width:1;" d="M 500.478, 201.139 L 522.523, 170.895 L 534.184, 175.632 L 516.693, 199.499 L 510.681, 196.948 L 506.126, 203.325 L 500.478, 201.139 z "/>
<path style="fill:rgb(255, 0, 0);fill-opacity:0;fill-rule:evenodd;stroke:rgb(223, 255, 0);stroke-width:1;" d="M 548.03, 63.7668 L 550.216, 60.6696 L 568.071, 36.0738 L 577.181, 39.8998 L 575.359, 42.2683 L 577.909, 43.3614 L 559.508, 68.5038 L 548.03, 63.7668 z "/>
<path style="fill:rgb(0, 255, 0);fill-opacity:0;fill-rule:evenodd;stroke:rgb(223, 255, 0);stroke-width:1;" d="M 505.944, 270.553 L 527.26, 241.038 L 532.726, 243.407 L 528.536, 249.237 L 534.912, 251.788 L 517.786, 275.473 L 505.944, 270.553 z "/>
<path style="fill:rgb(0, 0, 255);fill-opacity:0;fill-rule:evenodd;stroke:rgb(223, 255, 0);stroke-width:1;" d="M 500.114, 341.061 L 517.058, 317.741 L 519.608, 317.741 L 520.701, 317.923 L 521.977, 318.287 L 524.345, 319.016 L 526.167, 320.292 L 527.078, 321.02 L 528.536, 322.66 L 511.592, 345.798 L 507.037, 351.993 L 501.389, 349.624 L 505.944, 343.43 L 500.114, 341.061 z "/>
<path style="fill:rgb(255, 255, 0);fill-opacity:0;fill-rule:evenodd;stroke:rgb(223, 255, 0);stroke-width:1;" d="M 511.592, 345.798 L 528.536, 322.66 L 531.086, 322.66 L 532.362, 322.842 L 534.73, 323.389 L 535.823, 323.935 L 537.827, 325.211 L 539.285, 326.668 L 540.014, 327.397 L 523.07, 350.717 L 518.515, 356.912 L 513.232, 354.543 L 517.604, 348.349 L 511.592, 345.798 z "/>
<path style="fill:rgb(255, 0, 0);fill-opacity:0;fill-rule:evenodd;stroke:rgb(223, 255, 0);stroke-width:1;" d="M 371.123, 150.854 L 378.41, 140.834 L 416.306, 156.684 L 411.751, 162.696 L 400.455, 157.959 L 398.451, 160.692 L 376.771, 151.583 L 375.86, 152.858 L 371.123, 150.854 z "/>
<path style="fill:rgb(0, 255, 0);fill-opacity:0;fill-rule:evenodd;stroke:rgb(223, 255, 0);stroke-width:1;" d="M 201.139, 66.3175 L 219.176, 41.7217 L 231.747, 47.0052 L 213.71, 71.601 L 201.139, 66.3175 z "/>
<path style="fill:rgb(0, 0, 255);fill-opacity:0;fill-rule:evenodd;stroke:rgb(223, 255, 0);stroke-width:1;" d="M 96.1968, 172.17 L 114.051, 147.757 L 125.529, 152.676 L 105.124, 180.369 L 103.667, 182.373 L 98.3831, 180.005 L 102.209, 174.721 L 96.1968, 172.17 z "/>
<path style="fill:rgb(255, 255, 0);fill-opacity:0;fill-rule:evenodd;stroke:rgb(223, 255, 0);stroke-width:1;" d="M 523.07, 350.717 L 540.014, 327.397 L 540.56, 326.668 L 543.111, 326.85 L 544.386, 327.215 L 546.937, 327.944 L 549.123, 329.037 L 550.945, 330.494 L 551.674, 331.405 L 534.366, 355.272 L 529.811, 361.467 L 524.527, 359.28 L 528.9, 353.086 L 523.07, 350.717 z "/>
<path style="fill:rgb(255, 0, 0);fill-opacity:0;fill-rule:evenodd;stroke:rgb(223, 255, 0);stroke-width:1;" d="M 73.4229, 162.514 L 91.2776, 138.101 L 102.573, 142.838 L 80.5284, 172.899 L 74.3339, 170.348 L 78.5243, 164.701 L 73.4229, 162.514 z "/>
<path style="fill:rgb(0, 255, 0);fill-opacity:0;fill-rule:evenodd;stroke:rgb(223, 255, 0);stroke-width:1;" d="M 559.508, 68.5038 L 577.909, 43.3614 L 590.116, 48.4628 L 589.752, 49.0093 L 571.715, 73.6051 L 559.508, 68.5038 z "/>
<path style="fill:rgb(0, 0, 255);fill-opacity:0;fill-rule:evenodd;stroke:rgb(223, 255, 0);stroke-width:1;" d="M 596.493, 83.99 L 614.53, 59.212 L 626.919, 64.3134 L 608.882, 89.2735 L 596.493, 83.99 z "/>
<path style="fill:rgb(255, 255, 0);fill-opacity:0;fill-rule:evenodd;stroke:rgb(223, 255, 0);stroke-width:1;" d="M 466.773, 185.106 L 488.454, 155.409 L 499.932, 160.146 L 482.259, 184.377 L 475.518, 181.644 L 471.692, 187.11 L 466.773, 185.106 z "/>
<path style="fill:rgb(255, 0, 0);fill-opacity:0;fill-rule:evenodd;stroke:rgb(223, 255, 0);stroke-width:1;" d="M 424.687, 167.251 L 430.881, 158.688 L 427.055, 157.049 L 437.258, 143.202 L 442.359, 135.914 L 453.837, 140.834 L 432.339, 170.348 L 424.687, 167.251 z "/>
<path style="fill:rgb(0, 255, 0);fill-opacity:0;fill-rule:evenodd;stroke:rgb(223, 255, 0);stroke-width:1;" d="M 571.715, 73.6051 L 589.752, 49.0093 L 592.485, 48.8271 L 600.683, 52.2888 L 600.683, 53.5641 L 601.594, 53.9285 L 583.739, 78.7064 L 571.715, 73.6051 z "/>
<path style="fill:rgb(0, 0, 255);fill-opacity:0;fill-rule:evenodd;stroke:rgb(223, 255, 0);stroke-width:1;" d="M 432.339, 170.348 L 453.837, 140.834 L 465.315, 145.57 L 447.825, 169.802 L 440.902, 166.887 L 436.894, 172.353 L 432.339, 170.348 z "/>
<path style="fill:rgb(255, 255, 0);fill-opacity:0;fill-rule:evenodd;stroke:rgb(223, 255, 0);stroke-width:1;" d="M 591.938, 158.688 L 609.975, 133.728 L 612.161, 130.813 L 617.263, 132.999 L 613.437, 138.283 L 620.542, 141.198 L 603.963, 163.79 L 591.938, 158.688 z "/>
<path style="fill:rgb(255, 0, 0);fill-opacity:0;fill-rule:evenodd;stroke:rgb(223, 255, 0);stroke-width:1;" d="M 445.274, 53.0175 L 451.287, 44.8189 L 488.818, 60.6696 L 486.45, 63.7668 L 485.539, 63.4024 L 482.077, 68.5038 L 445.274, 53.0175 z "/>
<path style="fill:rgb(0, 255, 0);fill-opacity:0;fill-rule:evenodd;stroke:rgb(223, 255, 0);stroke-width:1;" d="M 489, 336.324 L 505.944, 313.186 L 508.677, 313.55 L 511.41, 314.279 L 513.96, 315.372 L 516.147, 317.012 L 517.058, 317.741 L 500.114, 341.061 L 495.559, 347.256 L 489.547, 344.705 L 494.102, 338.511 L 489, 336.324 z "/>
<path style="fill:rgb(0, 0, 255);fill-opacity:0;fill-rule:evenodd;stroke:rgb(223, 255, 0);stroke-width:1;" d="M 396.812, 307.174 L 419.768, 275.837 L 421.59, 275.837 L 422.683, 275.837 L 424.322, 276.566 L 425.78, 277.477 L 426.873, 278.752 L 430.335, 280.21 L 429.606, 280.938 L 412.298, 304.805 L 407.197, 302.801 L 402.277, 309.36 L 396.812, 307.174 z "/>
<path style="fill:rgb(255, 255, 0);fill-opacity:0;fill-rule:evenodd;stroke:rgb(223, 255, 0);stroke-width:1;" d="M 359.28, 167.251 L 366.568, 157.049 L 371.305, 159.053 L 370.212, 160.51 L 403.371, 174.357 L 399.18, 180.187 L 387.884, 175.45 L 385.698, 178.183 L 359.28, 167.251 z "/>
<path style="fill:rgb(255, 0, 0);fill-opacity:0;fill-rule:evenodd;stroke:rgb(223, 255, 0);stroke-width:1;" d="M 352.904, 175.996 L 359.28, 167.251 L 385.698, 178.183 L 383.512, 181.28 L 394.808, 186.017 L 390.617, 191.847 L 352.904, 175.996 z "/>
<path style="fill:rgb(0, 255, 0);fill-opacity:0;fill-rule:evenodd;stroke:rgb(223, 255, 0);stroke-width:1;" d="M 514.507, 503.211 L 519.062, 496.834 L 534.73, 475.7 L 545.479, 480.255 L 529.811, 501.389 L 525.256, 507.766 L 514.507, 503.211 z "/>
<path style="fill:rgb(0, 0, 255);fill-opacity:0;fill-rule:evenodd;stroke:rgb(223, 255, 0);stroke-width:1;" d="M 494.102, 190.025 L 494.466, 189.661 L 511.592, 166.158 L 522.523, 170.895 L 500.478, 201.139 L 494.83, 198.588 L 499.567, 192.394 L 494.102, 190.025 z "/>
<path style="fill:rgb(255, 255, 0);fill-opacity:0;fill-rule:evenodd;stroke:rgb(223, 255, 0);stroke-width:1;" d="M 412.298, 304.805 L 429.606, 280.938 L 432.703, 281.485 L 435.436, 282.214 L 436.894, 282.76 L 439.262, 284.218 L 441.266, 285.857 L 435.072, 294.42 L 430.517, 292.598 L 426.509, 298.246 L 430.881, 300.068 L 419.039, 316.465 L 413.209, 313.915 L 418.128, 307.356 L 412.298, 304.805 z "/>
<path style="fill:rgb(255, 0, 0);fill-opacity:0;fill-rule:evenodd;stroke:rgb(223, 255, 0);stroke-width:1;" d="M 426.327, 79.0708 L 432.885, 70.1435 L 463.129, 82.8968 L 459.303, 87.9982 L 466.955, 91.2776 L 464.222, 94.9214 L 426.327, 79.0708 z "/>
<path style="fill:rgb(0, 255, 0);fill-opacity:0;fill-rule:evenodd;stroke:rgb(223, 255, 0);stroke-width:1;" d="M 482.259, 184.377 L 499.932, 160.146 L 512.138, 165.247 L 511.592, 166.158 L 494.466, 189.661 L 482.259, 184.377 z "/>
<path style="fill:rgb(0, 0, 255);fill-opacity:0;fill-rule:evenodd;stroke:rgb(223, 255, 0);stroke-width:1;" d="M 433.979, 313.915 L 451.287, 290.048 L 462.218, 294.785 L 440.72, 324.118 L 440.355, 324.846 L 434.707, 322.478 L 439.262, 316.283 L 433.979, 313.915 z "/>
<path style="fill:rgb(255, 255, 0);fill-opacity:0;fill-rule:evenodd;stroke:rgb(223, 255, 0);stroke-width:1;" d="M 250.877, 465.315 L 269.46, 439.991 L 280.938, 444.91 L 262.355, 470.235 L 250.877, 465.315 z "/>
<path style="fill:rgb(255, 0, 0);fill-opacity:0;fill-rule:evenodd;stroke:rgb(223, 255, 0);stroke-width:1;" d="M 169.255, 731.314 L 182.009, 714.006 L 198.952, 721.111 L 198.588, 721.84 L 186.381, 738.602 L 169.255, 731.314 z "/>
<path style="fill:rgb(0, 255, 0);fill-opacity:0;fill-rule:evenodd;stroke:rgb(223, 255, 0);stroke-width:1;" d="M 340.15, 193.487 L 346.527, 184.742 L 372.945, 195.673 L 370.758, 198.588 L 381.872, 203.143 L 377.499, 209.155 L 340.15, 193.487 z "/>
<path style="fill:rgb(0, 0, 255);fill-opacity:0;fill-rule:evenodd;stroke:rgb(223, 255, 0);stroke-width:1;" d="M 473.514, 337.964 L 495.013, 308.449 L 497.381, 308.631 L 498.656, 308.813 L 499.749, 308.996 L 501.936, 309.724 L 504.669, 311.546 L 505.944, 313.186 L 489, 336.324 L 483.717, 334.138 L 479.162, 340.332 L 473.514, 337.964 z "/>
<path style="fill:rgb(255, 255, 0);fill-opacity:0;fill-rule:evenodd;stroke:rgb(223, 255, 0);stroke-width:1;" d="M 378.41, 140.834 L 384.787, 132.088 L 411.205, 143.202 L 409.018, 146.117 L 420.496, 150.854 L 416.306, 156.684 L 378.41, 140.834 z "/>
<path style="fill:rgb(255, 0, 0);fill-opacity:0;fill-rule:evenodd;stroke:rgb(223, 255, 0);stroke-width:1;" d="M 608.882, 89.2735 L 626.919, 64.3134 L 627.283, 63.949 L 629.105, 64.1312 L 636.939, 67.4106 L 638.761, 68.8681 L 620.36, 94.0105 L 608.882, 89.2735 z "/>
<path style="fill:rgb(0, 255, 0);fill-opacity:0;fill-rule:evenodd;stroke:rgb(223, 255, 0);stroke-width:1;" d="M 225.552, 76.7023 L 243.589, 51.9244 L 255.432, 57.0257 L 237.395, 81.6215 L 225.552, 76.7023 z "/>
<path style="fill:rgb(0, 0, 255);fill-opacity:0;fill-rule:evenodd;stroke:rgb(223, 255, 0);stroke-width:1;" d="M 216.078, 452.015 L 235.391, 425.598 L 246.504, 430.335 L 227.921, 455.659 L 227.01, 456.752 L 216.078, 452.015 z "/>
<path style="fill:rgb(255, 255, 0);fill-opacity:0;fill-rule:evenodd;stroke:rgb(223, 255, 0);stroke-width:1;" d="M 459.668, 174.721 L 477.158, 150.672 L 488.454, 155.409 L 466.773, 185.106 L 462.765, 183.284 L 466.773, 177.818 L 459.668, 174.721 z "/>
<path style="fill:rgb(255, 0, 0);fill-opacity:0;fill-rule:evenodd;stroke:rgb(223, 255, 0);stroke-width:1;" d="M 664.814, 409.201 L 682.669, 384.969 L 693.418, 389.524 L 671.92, 419.039 L 666.272, 416.67 L 670.098, 411.387 L 664.814, 409.201 z "/>
<path style="fill:rgb(0, 255, 0);fill-opacity:0;fill-rule:evenodd;stroke:rgb(223, 255, 0);stroke-width:1;" d="M 81.6215, 94.0105 L 100.569, 68.5038 L 111.865, 73.2407 L 93.0995, 98.9296 L 81.6215, 94.0105 z "/>
<path style="fill:rgb(0, 0, 255);fill-opacity:0;fill-rule:evenodd;stroke:rgb(223, 255, 0);stroke-width:1;" d="M 169.073, 202.596 L 171.442, 199.499 L 174.721, 200.957 L 178.547, 195.673 L 181.644, 196.948 L 212.799, 210.248 L 206.787, 218.447 L 170.166, 202.961 L 169.073, 202.596 z "/>
<path style="fill:rgb(255, 255, 0);fill-opacity:0;fill-rule:evenodd;stroke:rgb(223, 255, 0);stroke-width:1;" d="M 466.955, 327.397 L 483.899, 303.894 L 495.013, 308.449 L 473.514, 337.964 L 468.048, 335.596 L 472.421, 329.583 L 466.955, 327.397 z "/>
<path style="fill:rgb(255, 0, 0);fill-opacity:0;fill-rule:evenodd;stroke:rgb(223, 255, 0);stroke-width:1;" d="M 534.001, 134.457 L 551.856, 109.679 L 563.698, 114.598 L 545.844, 139.376 L 534.001, 134.457 z "/>
<path style="fill:rgb(0, 255, 0);fill-opacity:0;fill-rule:evenodd;stroke:rgb(223, 255, 0);stroke-width:1;" d="M 227.921, 455.659 L 246.504, 430.335 L 257.982, 435.072 L 239.399, 460.578 L 227.921, 455.659 z "/>
<path style="fill:rgb(0, 0, 255);fill-opacity:0;fill-rule:evenodd;stroke:rgb(223, 255, 0);stroke-width:1;" d="M 213.71, 71.601 L 231.747, 47.0052 L 243.589, 51.9244 L 225.552, 76.7023 L 213.71, 71.601 z "/>
<path style="fill:rgb(255, 255, 0);fill-opacity:0;fill-rule:evenodd;stroke:rgb(223, 255, 0);stroke-width:1;" d="M 366.568, 157.049 L 371.123, 150.854 L 375.86, 152.858 L 376.771, 151.583 L 398.451, 160.692 L 396.447, 163.607 L 407.743, 168.344 L 403.371, 174.357 L 370.212, 160.51 L 371.305, 159.053 L 366.568, 157.049 z "/>
<path style="fill:rgb(255, 0, 0);fill-opacity:0;fill-rule:evenodd;stroke:rgb(223, 255, 0);stroke-width:1;" d="M 556.775, 144.113 L 574.812, 119.335 L 586.655, 124.254 L 568.618, 149.032 L 556.775, 144.113 z "/>
<path style="fill:rgb(0, 255, 0);fill-opacity:0;fill-rule:evenodd;stroke:rgb(223, 255, 0);stroke-width:1;" d="M 239.399, 460.578 L 257.982, 435.072 L 269.46, 439.991 L 250.877, 465.315 L 239.399, 460.578 z "/>
<path style="fill:rgb(0, 0, 255);fill-opacity:0;fill-rule:evenodd;stroke:rgb(223, 255, 0);stroke-width:1;" d="M 292.963, 260.897 L 298.975, 252.699 L 330.859, 266.181 L 327.397, 270.736 L 335.778, 274.197 L 333.227, 277.841 L 292.963, 260.897 z "/>
<path style="fill:rgb(255, 255, 0);fill-opacity:0;fill-rule:evenodd;stroke:rgb(223, 255, 0);stroke-width:1;" d="M 572.808, 375.131 L 592.485, 348.167 L 603.234, 352.721 L 583.557, 379.686 L 572.808, 375.131 z "/>
<path style="fill:rgb(255, 0, 0);fill-opacity:0;fill-rule:evenodd;stroke:rgb(223, 255, 0);stroke-width:1;" d="M 625.461, 397.358 L 645.138, 370.394 L 656.069, 374.949 L 647.324, 386.973 L 644.773, 390.253 L 636.393, 401.913 L 625.461, 397.358 z "/>
<path style="fill:rgb(0, 255, 0);fill-opacity:0;fill-rule:evenodd;stroke:rgb(223, 255, 0);stroke-width:1;" d="M 456.024, 322.66 L 473.15, 299.34 L 483.899, 303.894 L 466.955, 327.397 L 462.583, 333.227 L 456.752, 330.859 L 461.125, 324.846 L 456.024, 322.66 z "/>
<path style="fill:rgb(0, 0, 255);fill-opacity:0;fill-rule:evenodd;stroke:rgb(223, 255, 0);stroke-width:1;" d="M 568.618, 149.032 L 586.655, 124.254 L 598.315, 129.173 L 580.278, 153.951 L 568.618, 149.032 z "/>
<path style="fill:rgb(255, 255, 0);fill-opacity:0;fill-rule:evenodd;stroke:rgb(223, 255, 0);stroke-width:1;" d="M 344.341, 276.201 L 351.993, 265.634 L 362.56, 251.241 L 364.382, 251.423 L 369.119, 253.427 L 370.576, 254.885 L 373.856, 256.343 L 355.819, 281.12 L 344.341, 276.201 z "/>
<path style="fill:rgb(255, 0, 0);fill-opacity:0;fill-rule:evenodd;stroke:rgb(223, 255, 0);stroke-width:1;" d="M 652.972, 404.281 L 662.446, 391.164 L 670.645, 379.868 L 682.669, 384.969 L 664.814, 409.201 L 652.972, 404.281 z "/>
<path style="fill:rgb(0, 255, 0);fill-opacity:0;fill-rule:evenodd;stroke:rgb(223, 255, 0);stroke-width:1;" d="M 378.775, 290.777 L 396.629, 265.999 L 398.634, 265.816 L 402.642, 267.456 L 404.099, 269.278 L 408.29, 270.918 L 390.253, 295.514 L 378.775, 290.777 z "/>
<path style="fill:rgb(0, 0, 255);fill-opacity:0;fill-rule:evenodd;stroke:rgb(223, 255, 0);stroke-width:1;" d="M 262.355, 470.235 L 280.938, 444.91 L 292.416, 449.647 L 281.12, 465.133 L 273.651, 474.972 L 262.355, 470.235 z "/>
<path style="fill:rgb(255, 255, 0);fill-opacity:0;fill-rule:evenodd;stroke:rgb(223, 255, 0);stroke-width:1;" d="M 583.557, 379.686 L 603.234, 352.721 L 613.983, 357.276 L 594.307, 384.24 L 583.557, 379.686 z "/>
<path style="fill:rgb(255, 0, 0);fill-opacity:0;fill-rule:evenodd;stroke:rgb(223, 255, 0);stroke-width:1;" d="M 405.192, 228.285 L 422.865, 203.872 L 434.707, 208.791 L 416.853, 233.204 L 405.192, 228.285 z "/>
<path style="fill:rgb(0, 255, 0);fill-opacity:0;fill-rule:evenodd;stroke:rgb(223, 255, 0);stroke-width:1;" d="M 440.72, 324.118 L 462.218, 294.785 L 473.15, 299.34 L 456.024, 322.66 L 450.74, 320.656 L 446.55, 326.486 L 440.72, 324.118 z "/>
<path style="fill:rgb(0, 0, 255);fill-opacity:0;fill-rule:evenodd;stroke:rgb(223, 255, 0);stroke-width:1;" d="M 447.825, 169.802 L 465.315, 145.57 L 477.158, 150.672 L 459.668, 174.721 L 447.825, 169.802 z "/>
<path style="fill:rgb(255, 255, 0);fill-opacity:0;fill-rule:evenodd;stroke:rgb(223, 255, 0);stroke-width:1;" d="M 167.069, 207.151 L 170.166, 202.961 L 206.787, 218.447 L 200.41, 227.01 L 169.62, 213.892 L 172.717, 209.519 L 167.069, 207.151 z "/>
<path style="fill:rgb(255, 0, 0);fill-opacity:0;fill-rule:evenodd;stroke:rgb(223, 255, 0);stroke-width:1;" d="M 287.133, 268.731 L 292.963, 260.897 L 333.227, 277.841 L 330.13, 281.849 L 321.931, 278.388 L 319.198, 282.214 L 287.133, 268.731 z "/>
<path style="fill:rgb(0, 255, 0);fill-opacity:0;fill-rule:evenodd;stroke:rgb(223, 255, 0);stroke-width:1;" d="M 500.296, 120.428 L 518.333, 95.6502 L 529.811, 100.387 L 511.956, 125.165 L 500.296, 120.428 z "/>
<path style="fill:rgb(0, 0, 255);fill-opacity:0;fill-rule:evenodd;stroke:rgb(223, 255, 0);stroke-width:1;" d="M 367.297, 285.857 L 385.334, 261.262 L 386.973, 260.897 L 391.164, 262.719 L 392.621, 264.359 L 396.629, 265.999 L 378.775, 290.777 L 367.297, 285.857 z "/>
<path style="fill:rgb(255, 255, 0);fill-opacity:0;fill-rule:evenodd;stroke:rgb(223, 255, 0);stroke-width:1;" d="M 432.885, 70.1435 L 439.08, 61.7627 L 476.793, 77.6133 L 473.696, 81.8037 L 466.226, 78.5243 L 463.129, 82.8968 L 432.885, 70.1435 z "/>
<path style="fill:rgb(255, 0, 0);fill-opacity:0;fill-rule:evenodd;stroke:rgb(223, 255, 0);stroke-width:1;" d="M 615.076, 392.986 L 634.571, 366.021 L 645.138, 370.394 L 625.461, 397.358 L 615.076, 392.986 z "/>
<path style="fill:rgb(0, 255, 0);fill-opacity:0;fill-rule:evenodd;stroke:rgb(223, 255, 0);stroke-width:1;" d="M 428.331, 238.123 L 446.185, 213.528 L 457.663, 218.447 L 439.991, 242.86 L 428.331, 238.123 z "/>
<path style="fill:rgb(0, 0, 255);fill-opacity:0;fill-rule:evenodd;stroke:rgb(223, 255, 0);stroke-width:1;" d="M 686.131, 418.128 L 703.803, 393.897 L 714.188, 398.269 L 692.69, 427.784 L 686.859, 425.416 L 690.685, 420.132 L 686.131, 418.128 z "/>
<path style="fill:rgb(255, 255, 0);fill-opacity:0;fill-rule:evenodd;stroke:rgb(223, 255, 0);stroke-width:1;" d="M 495.013, 265.999 L 512.321, 242.314 L 518.697, 245.047 L 522.888, 239.217 L 527.26, 241.038 L 505.944, 270.553 L 495.013, 265.999 z "/>
<path style="fill:rgb(255, 0, 0);fill-opacity:0;fill-rule:evenodd;stroke:rgb(223, 255, 0);stroke-width:1;" d="M 594.307, 384.24 L 613.983, 357.276 L 624.368, 361.649 L 604.691, 388.613 L 594.307, 384.24 z "/>
<path style="fill:rgb(0, 255, 0);fill-opacity:0;fill-rule:evenodd;stroke:rgb(223, 255, 0);stroke-width:1;" d="M 393.714, 223.548 L 408.29, 203.325 L 411.387, 199.135 L 422.865, 203.872 L 405.192, 228.285 L 393.714, 223.548 z "/>
<path style="fill:rgb(0, 0, 255);fill-opacity:0;fill-rule:evenodd;stroke:rgb(223, 255, 0);stroke-width:1;" d="M 419.039, 316.465 L 430.881, 300.068 L 435.072, 294.42 L 441.266, 285.857 L 444.91, 286.222 L 447.096, 286.951 L 450.011, 288.59 L 451.287, 290.048 L 433.979, 313.915 L 429.059, 311.911 L 424.14, 318.652 L 419.039, 316.465 z "/>
<path style="fill:rgb(255, 255, 0);fill-opacity:0;fill-rule:evenodd;stroke:rgb(223, 255, 0);stroke-width:1;" d="M 671.92, 419.039 L 693.418, 389.524 L 703.803, 393.897 L 686.131, 418.128 L 681.029, 416.124 L 677.386, 421.225 L 671.92, 419.039 z "/>
<path style="fill:rgb(255, 0, 0);fill-opacity:0;fill-rule:evenodd;stroke:rgb(223, 255, 0);stroke-width:1;" d="M 416.853, 233.204 L 434.707, 208.791 L 446.185, 213.528 L 428.331, 238.123 L 416.853, 233.204 z "/>
<path style="fill:rgb(0, 255, 0);fill-opacity:0;fill-rule:evenodd;stroke:rgb(223, 255, 0);stroke-width:1;" d="M 604.691, 388.613 L 624.368, 361.649 L 634.571, 366.021 L 615.076, 392.986 L 604.691, 388.613 z "/>
<path style="fill:rgb(0, 0, 255);fill-opacity:0;fill-rule:evenodd;stroke:rgb(223, 255, 0);stroke-width:1;" d="M 300.251, 336.324 L 318.47, 311.364 L 323.024, 313.368 L 327.944, 306.627 L 333.409, 308.996 L 312.457, 337.782 L 308.267, 336.142 L 306.263, 338.875 L 300.251, 336.324 z "/>
<path style="fill:rgb(255, 255, 0);fill-opacity:0;fill-rule:evenodd;stroke:rgb(223, 255, 0);stroke-width:1;" d="M 343.612, 350.9 L 359.645, 328.854 L 364.199, 330.676 L 369.119, 323.935 L 375.131, 326.486 L 354.179, 355.454 L 343.612, 350.9 z "/>
<path style="fill:rgb(255, 0, 0);fill-opacity:0;fill-rule:evenodd;stroke:rgb(223, 255, 0);stroke-width:1;" d="M 522.888, 129.72 L 540.742, 104.942 L 551.856, 109.679 L 534.001, 134.457 L 522.888, 129.72 z "/>
<path style="fill:rgb(0, 255, 0);fill-opacity:0;fill-rule:evenodd;stroke:rgb(223, 255, 0);stroke-width:1;" d="M 395.172, 372.762 L 416.306, 343.794 L 421.772, 346.163 L 416.853, 352.904 L 422.136, 355.09 L 405.921, 377.135 L 395.172, 372.762 z "/>
<path style="fill:rgb(0, 0, 255);fill-opacity:0;fill-rule:evenodd;stroke:rgb(223, 255, 0);stroke-width:1;" d="M 545.844, 139.376 L 563.698, 114.598 L 574.812, 119.335 L 556.775, 144.113 L 545.844, 139.376 z "/>
<path style="fill:rgb(255, 255, 0);fill-opacity:0;fill-rule:evenodd;stroke:rgb(223, 255, 0);stroke-width:1;" d="M 692.69, 427.784 L 714.188, 398.269 L 724.209, 402.46 L 706.536, 426.691 L 701.981, 424.869 L 698.155, 429.97 L 692.69, 427.784 z "/>
<path style="fill:rgb(255, 0, 0);fill-opacity:0;fill-rule:evenodd;stroke:rgb(223, 255, 0);stroke-width:1;" d="M 727.852, 435.254 L 745.343, 411.387 L 758.643, 417.035 L 750.08, 425.962 L 737.326, 439.262 L 727.852, 435.254 z "/>
<path style="fill:rgb(0, 255, 0);fill-opacity:0;fill-rule:evenodd;stroke:rgb(223, 255, 0);stroke-width:1;" d="M 190.207, 61.5805 L 208.244, 36.9847 L 219.176, 41.7217 L 201.139, 66.3175 L 190.207, 61.5805 z "/>
<path style="fill:rgb(0, 0, 255);fill-opacity:0;fill-rule:evenodd;stroke:rgb(223, 255, 0);stroke-width:1;" d="M 364.199, 359.645 L 380.232, 337.417 L 385.151, 339.422 L 390.071, 332.863 L 395.719, 335.231 L 374.584, 364.017 L 364.199, 359.645 z "/>
<path style="fill:rgb(255, 255, 0);fill-opacity:0;fill-rule:evenodd;stroke:rgb(223, 255, 0);stroke-width:1;" d="M 511.956, 125.165 L 529.811, 100.387 L 540.742, 104.942 L 522.888, 129.72 L 511.956, 125.165 z "/>
<path style="fill:rgb(255, 0, 0);fill-opacity:0;fill-rule:evenodd;stroke:rgb(223, 255, 0);stroke-width:1;" d="M 312.457, 337.782 L 333.409, 308.996 L 339.057, 311.364 L 334.138, 318.105 L 339.057, 320.109 L 322.842, 342.154 L 312.457, 337.782 z "/>
<path style="fill:rgb(0, 255, 0);fill-opacity:0;fill-rule:evenodd;stroke:rgb(223, 255, 0);stroke-width:1;" d="M 361.649, 511.592 L 377.864, 489.365 L 390.071, 494.466 L 373.856, 516.693 L 361.649, 511.592 z "/>
<path style="fill:rgb(0, 0, 255);fill-opacity:0;fill-rule:evenodd;stroke:rgb(223, 255, 0);stroke-width:1;" d="M 322.842, 342.154 L 339.057, 320.109 L 343.612, 322.113 L 348.531, 315.372 L 354.361, 317.741 L 333.227, 346.527 L 322.842, 342.154 z "/>
<path style="fill:rgb(255, 255, 0);fill-opacity:0;fill-rule:evenodd;stroke:rgb(223, 255, 0);stroke-width:1;" d="M 146.481, 197.859 L 166.887, 170.166 L 177.454, 174.721 L 161.057, 197.13 L 155.773, 194.762 L 151.765, 200.228 L 146.481, 197.859 z "/>
<path style="fill:rgb(255, 0, 0);fill-opacity:0;fill-rule:evenodd;stroke:rgb(223, 255, 0);stroke-width:1;" d="M 405.921, 377.135 L 422.136, 355.09 L 426.509, 356.912 L 431.428, 350.353 L 437.258, 352.721 L 416.306, 381.508 L 405.921, 377.135 z "/>
<path style="fill:rgb(0, 255, 0);fill-opacity:0;fill-rule:evenodd;stroke:rgb(223, 255, 0);stroke-width:1;" d="M 119.153, 179.276 L 135.732, 156.866 L 146.299, 161.421 L 125.894, 189.296 L 120.975, 187.11 L 124.801, 181.826 L 119.153, 179.276 z "/>
<path style="fill:rgb(0, 0, 255);fill-opacity:0;fill-rule:evenodd;stroke:rgb(223, 255, 0);stroke-width:1;" d="M 181.644, 196.948 L 187.839, 188.568 L 218.993, 201.685 L 212.799, 210.248 L 181.644, 196.948 z "/>
<path style="fill:rgb(255, 255, 0);fill-opacity:0;fill-rule:evenodd;stroke:rgb(223, 255, 0);stroke-width:1;" d="M 374.584, 364.017 L 395.719, 335.231 L 401.002, 337.417 L 396.265, 344.159 L 401.184, 346.345 L 384.969, 368.39 L 374.584, 364.017 z "/>
<path style="fill:rgb(255, 0, 0);fill-opacity:0;fill-rule:evenodd;stroke:rgb(223, 255, 0);stroke-width:1;" d="M 78.7064, 242.496 L 96.9255, 217.718 L 100.934, 212.252 L 105.853, 214.256 L 102.027, 219.54 L 106.582, 221.362 L 88.7269, 245.775 L 88.1804, 246.504 L 78.7064, 242.496 z "/>
<path style="fill:rgb(0, 255, 0);fill-opacity:0;fill-rule:evenodd;stroke:rgb(223, 255, 0);stroke-width:1;" d="M 333.227, 346.527 L 354.361, 317.741 L 359.827, 320.109 L 354.908, 326.85 L 359.645, 328.854 L 343.612, 350.9 L 333.227, 346.527 z "/>
<path style="fill:rgb(0, 0, 255);fill-opacity:0;fill-rule:evenodd;stroke:rgb(223, 255, 0);stroke-width:1;" d="M 416.306, 381.508 L 437.258, 352.721 L 442.724, 355.09 L 437.805, 361.649 L 442.724, 363.653 L 426.509, 385.88 L 416.306, 381.508 z "/>
<path style="fill:rgb(255, 255, 0);fill-opacity:0;fill-rule:evenodd;stroke:rgb(223, 255, 0);stroke-width:1;" d="M 384.969, 368.39 L 401.184, 346.345 L 406.103, 348.349 L 411.023, 341.608 L 416.306, 343.794 L 395.172, 372.762 L 384.969, 368.39 z "/>
<path style="fill:rgb(255, 0, 0);fill-opacity:0;fill-rule:evenodd;stroke:rgb(223, 255, 0);stroke-width:1;" d="M 98.2009, 249.784 L 116.602, 224.824 L 121.703, 227.01 L 124.983, 222.455 L 129.538, 224.277 L 124.436, 231.382 L 107.857, 253.974 L 98.2009, 249.784 z "/>
<path style="fill:rgb(0, 255, 0);fill-opacity:0;fill-rule:evenodd;stroke:rgb(223, 255, 0);stroke-width:1;" d="M 309.907, 237.759 L 315.737, 229.743 L 347.62, 243.225 L 341.79, 251.241 L 309.907, 237.759 z "/>
<path style="fill:rgb(0, 0, 255);fill-opacity:0;fill-rule:evenodd;stroke:rgb(223, 255, 0);stroke-width:1;" d="M 88.7269, 245.775 L 106.582, 221.362 L 110.408, 216.261 L 114.598, 217.9 L 111.319, 222.637 L 116.602, 224.824 L 98.2009, 249.784 L 88.7269, 245.775 z "/>
<path style="fill:rgb(255, 255, 0);fill-opacity:0;fill-rule:evenodd;stroke:rgb(223, 255, 0);stroke-width:1;" d="M 426.509, 385.88 L 442.724, 363.653 L 446.914, 365.657 L 451.833, 358.916 L 457.481, 361.284 L 436.529, 390.071 L 426.509, 385.88 z "/>
<path style="fill:rgb(255, 0, 0);fill-opacity:0;fill-rule:evenodd;stroke:rgb(223, 255, 0);stroke-width:1;" d="M 125.894, 189.296 L 146.299, 161.421 L 156.684, 165.794 L 140.105, 188.203 L 134.457, 185.835 L 130.449, 191.118 L 125.894, 189.296 z "/>
<path style="fill:rgb(0, 255, 0);fill-opacity:0;fill-rule:evenodd;stroke:rgb(223, 255, 0);stroke-width:1;" d="M 706.536, 426.691 L 724.209, 402.46 L 734.776, 407.014 L 717.103, 431.246 L 706.536, 426.691 z "/>
<path style="fill:rgb(0, 0, 255);fill-opacity:0;fill-rule:evenodd;stroke:rgb(223, 255, 0);stroke-width:1;" d="M 354.179, 355.454 L 375.131, 326.486 L 380.779, 328.854 L 375.86, 335.596 L 380.232, 337.417 L 364.199, 359.645 L 354.179, 355.454 z "/>
<path style="fill:rgb(255, 255, 0);fill-opacity:0;fill-rule:evenodd;stroke:rgb(223, 255, 0);stroke-width:1;" d="M 105.124, 180.369 L 125.529, 152.676 L 135.732, 156.866 L 119.153, 179.276 L 114.416, 177.272 L 110.408, 182.737 L 105.124, 180.369 z "/>
<path style="fill:rgb(255, 0, 0);fill-opacity:0;fill-rule:evenodd;stroke:rgb(223, 255, 0);stroke-width:1;" d="M 717.103, 431.246 L 734.776, 407.014 L 745.343, 411.387 L 727.852, 435.254 L 727.488, 435.618 L 717.103, 431.246 z "/>
<path style="fill:rgb(0, 255, 0);fill-opacity:0;fill-rule:evenodd;stroke:rgb(223, 255, 0);stroke-width:1;" d="M 275.837, 284.4 L 281.667, 276.384 L 313.55, 289.866 L 307.72, 297.882 L 299.522, 294.42 L 275.837, 284.4 z "/>
<path style="fill:rgb(0, 0, 255);fill-opacity:0;fill-rule:evenodd;stroke:rgb(223, 255, 0);stroke-width:1;" d="M 140.105, 188.203 L 156.684, 165.794 L 166.887, 170.166 L 146.481, 197.859 L 141.744, 196.037 L 145.753, 190.572 L 140.105, 188.203 z "/>
<path style="fill:rgb(255, 255, 0);fill-opacity:0;fill-rule:evenodd;stroke:rgb(223, 255, 0);stroke-width:1;" d="M 337.417, 501.571 L 353.815, 479.162 L 366.021, 484.445 L 351.993, 503.758 L 344.341, 500.478 L 343.43, 501.754 L 340.332, 502.665 L 337.417, 501.571 z "/>
<path style="fill:rgb(255, 0, 0);fill-opacity:0;fill-rule:evenodd;stroke:rgb(223, 255, 0);stroke-width:1;" d="M 452.015, 247.962 L 472.785, 219.358 L 476.976, 220.997 L 473.15, 226.281 L 478.798, 228.65 L 461.672, 251.97 L 452.015, 247.962 z "/>
<path style="fill:rgb(0, 255, 0);fill-opacity:0;fill-rule:evenodd;stroke:rgb(223, 255, 0);stroke-width:1;" d="M 387.884, 518.697 L 401.913, 499.385 L 414.302, 504.669 L 397.905, 526.896 L 395.354, 525.803 L 394.261, 523.616 L 395.536, 521.977 L 387.884, 518.697 z "/>
<path style="fill:rgb(0, 0, 255);fill-opacity:0;fill-rule:evenodd;stroke:rgb(223, 255, 0);stroke-width:1;" d="M 436.529, 390.071 L 457.481, 361.284 L 462.583, 363.471 L 457.663, 370.03 L 462.4, 372.034 L 446.185, 394.079 L 436.529, 390.071 z "/>
<path style="fill:rgb(255, 255, 0);fill-opacity:0;fill-rule:evenodd;stroke:rgb(223, 255, 0);stroke-width:1;" d="M 153.405, 240.128 L 159.417, 231.747 L 188.932, 244.136 L 182.737, 252.517 L 153.405, 240.128 z "/>
<path style="fill:rgb(255, 0, 0);fill-opacity:0;fill-rule:evenodd;stroke:rgb(223, 255, 0);stroke-width:1;" d="M 147.21, 248.326 L 153.405, 240.128 L 182.737, 252.517 L 176.725, 260.897 L 147.21, 248.326 z "/>
<path style="fill:rgb(0, 255, 0);fill-opacity:0;fill-rule:evenodd;stroke:rgb(223, 255, 0);stroke-width:1;" d="M 327.579, 493.737 L 341.79, 474.061 L 353.815, 479.162 L 337.417, 501.571 L 334.32, 500.296 L 333.774, 498.292 L 334.867, 496.652 L 327.579, 493.737 z "/>
<path style="fill:rgb(0, 0, 255);fill-opacity:0;fill-rule:evenodd;stroke:rgb(223, 255, 0);stroke-width:1;" d="M 472.239, 256.343 L 489.182, 233.022 L 499.567, 237.395 L 482.624, 260.715 L 472.239, 256.343 z "/>
<path style="fill:rgb(255, 255, 0);fill-opacity:0;fill-rule:evenodd;stroke:rgb(223, 255, 0);stroke-width:1;" d="M 304.259, 245.411 L 309.907, 237.759 L 341.79, 251.241 L 338.328, 255.978 L 336.142, 258.893 L 304.259, 245.411 z "/>
<path style="fill:rgb(255, 0, 0);fill-opacity:0;fill-rule:evenodd;stroke:rgb(223, 255, 0);stroke-width:1;" d="M 281.667, 276.384 L 287.133, 268.731 L 319.198, 282.214 L 313.55, 289.866 L 281.667, 276.384 z "/>
<path style="fill:rgb(0, 255, 0);fill-opacity:0;fill-rule:evenodd;stroke:rgb(223, 255, 0);stroke-width:1;" d="M 461.672, 251.97 L 478.798, 228.65 L 489.182, 233.022 L 472.239, 256.343 L 461.672, 251.97 z "/>
<path style="fill:rgb(0, 0, 255);fill-opacity:0;fill-rule:evenodd;stroke:rgb(223, 255, 0);stroke-width:1;" d="M 714.552, 720.929 L 721.294, 711.455 L 747.165, 722.387 L 740.241, 731.678 L 714.552, 720.929 z "/>
<path style="fill:rgb(255, 255, 0);fill-opacity:0;fill-rule:evenodd;stroke:rgb(223, 255, 0);stroke-width:1;" d="M 707.629, 730.403 L 714.552, 720.929 L 740.241, 731.678 L 733.318, 741.152 L 707.629, 730.403 z "/>
<path style="fill:rgb(255, 0, 0);fill-opacity:0;fill-rule:evenodd;stroke:rgb(223, 255, 0);stroke-width:1;" d="M 373.856, 516.693 L 390.071, 494.466 L 401.913, 499.385 L 387.884, 518.697 L 380.597, 515.6 L 379.321, 517.24 L 376.953, 517.969 L 373.856, 516.693 z "/>
<path style="fill:rgb(0, 255, 0);fill-opacity:0;fill-rule:evenodd;stroke:rgb(223, 255, 0);stroke-width:1;" d="M 351.993, 503.758 L 366.021, 484.445 L 377.864, 489.365 L 361.649, 511.592 L 358.916, 510.317 L 358.005, 508.495 L 359.28, 506.673 L 351.993, 503.758 z "/>
<path style="fill:rgb(0, 0, 255);fill-opacity:0;fill-rule:evenodd;stroke:rgb(223, 255, 0);stroke-width:1;" d="M 318.47, 413.573 L 335.596, 390.071 L 345.798, 394.443 L 328.672, 417.946 L 318.47, 413.573 z "/>
<path style="fill:rgb(255, 255, 0);fill-opacity:0;fill-rule:evenodd;stroke:rgb(223, 255, 0);stroke-width:1;" d="M 856.115, 789.797 L 870.69, 769.939 L 882.715, 775.04 L 868.139, 794.899 L 856.115, 789.797 z "/>
<path style="fill:rgb(255, 0, 0);fill-opacity:0;fill-rule:evenodd;stroke:rgb(223, 255, 0);stroke-width:1;" d="M 810.385, 770.667 L 824.96, 750.808 L 836.985, 755.91 L 822.409, 775.586 L 810.385, 770.667 z "/>
<path style="fill:rgb(0, 255, 0);fill-opacity:0;fill-rule:evenodd;stroke:rgb(223, 255, 0);stroke-width:1;" d="M 833.341, 780.141 L 847.734, 760.465 L 859.759, 765.384 L 845.366, 785.243 L 833.341, 780.141 z "/>
<path style="fill:rgb(0, 0, 255);fill-opacity:0;fill-rule:evenodd;stroke:rgb(223, 255, 0);stroke-width:1;" d="M 764.655, 751.355 L 779.23, 731.496 L 791.255, 736.598 L 776.68, 756.456 L 764.655, 751.355 z "/>
<path style="fill:rgb(255, 255, 0);fill-opacity:0;fill-rule:evenodd;stroke:rgb(223, 255, 0);stroke-width:1;" d="M 868.139, 794.899 L 882.715, 775.04 L 894.739, 780.141 L 880.164, 800 L 868.139, 794.899 z "/>
<path style="fill:rgb(255, 0, 0);fill-opacity:0;fill-rule:evenodd;stroke:rgb(223, 255, 0);stroke-width:1;" d="M 787.611, 761.011 L 802.004, 741.152 L 814.029, 746.254 L 799.636, 766.113 L 787.611, 761.011 z "/>
<path style="fill:rgb(0, 255, 0);fill-opacity:0;fill-rule:evenodd;stroke:rgb(223, 255, 0);stroke-width:1;" d="M 261.444, 389.524 L 278.752, 366.021 L 288.772, 370.394 L 271.647, 393.714 L 261.444, 389.524 z "/>
<path style="fill:rgb(0, 0, 255);fill-opacity:0;fill-rule:evenodd;stroke:rgb(223, 255, 0);stroke-width:1;" d="M 689.592, 754.999 L 696.333, 745.889 L 722.022, 756.639 L 715.281, 765.93 L 689.592, 754.999 z "/>
<path style="fill:rgb(255, 255, 0);fill-opacity:0;fill-rule:evenodd;stroke:rgb(223, 255, 0);stroke-width:1;" d="M 299.522, 405.557 L 316.648, 382.054 L 326.668, 386.427 L 309.542, 409.747 L 299.522, 405.557 z "/>
<path style="fill:rgb(255, 0, 0);fill-opacity:0;fill-rule:evenodd;stroke:rgb(223, 255, 0);stroke-width:1;" d="M 397.905, 526.896 L 414.302, 504.669 L 425.78, 509.406 L 411.751, 528.718 L 404.828, 525.803 L 403.553, 527.442 L 401.002, 528.171 L 397.905, 526.896 z "/>
<path style="fill:rgb(0, 255, 0);fill-opacity:0;fill-rule:evenodd;stroke:rgb(223, 255, 0);stroke-width:1;" d="M 721.294, 711.455 L 728.035, 702.346 L 753.724, 713.277 L 747.165, 722.387 L 721.294, 711.455 z "/>
<path style="fill:rgb(0, 0, 255);fill-opacity:0;fill-rule:evenodd;stroke:rgb(223, 255, 0);stroke-width:1;" d="M 473.696, 407.561 L 490.822, 384.058 L 500.66, 388.249 L 483.535, 411.751 L 473.696, 407.561 z "/>
<path style="fill:rgb(255, 255, 0);fill-opacity:0;fill-rule:evenodd;stroke:rgb(223, 255, 0);stroke-width:1;" d="M 511.956, 423.776 L 529.082, 400.091 L 538.921, 404.281 L 521.795, 427.966 L 511.956, 423.776 z "/>
<path style="fill:rgb(255, 0, 0);fill-opacity:0;fill-rule:evenodd;stroke:rgb(223, 255, 0);stroke-width:1;" d="M 328.672, 417.946 L 345.798, 394.443 L 355.637, 398.634 L 338.511, 421.954 L 328.672, 417.946 z "/>
<path style="fill:rgb(0, 255, 0);fill-opacity:0;fill-rule:evenodd;stroke:rgb(223, 255, 0);stroke-width:1;" d="M 683.033, 764.108 L 689.592, 754.999 L 715.281, 765.93 L 708.722, 774.858 L 683.033, 764.108 z "/>
<path style="fill:rgb(0, 0, 255);fill-opacity:0;fill-rule:evenodd;stroke:rgb(223, 255, 0);stroke-width:1;" d="M 338.328, 255.978 L 341.79, 251.241 L 347.62, 243.225 L 363.653, 249.966 L 362.56, 251.241 L 351.993, 265.634 L 342.701, 261.808 L 344.887, 258.711 L 338.328, 255.978 z "/>
<path style="fill:rgb(255, 255, 0);fill-opacity:0;fill-rule:evenodd;stroke:rgb(223, 255, 0);stroke-width:1;" d="M 521.795, 427.966 L 538.921, 404.281 L 548.759, 408.472 L 531.633, 431.974 L 527.442, 430.335 L 521.795, 427.966 z "/>
<path style="fill:rgb(255, 0, 0);fill-opacity:0;fill-rule:evenodd;stroke:rgb(223, 255, 0);stroke-width:1;" d="M 477.704, 479.344 L 483.352, 471.51 L 485.539, 468.595 L 493.191, 458.028 L 504.122, 462.765 L 488.454, 483.899 L 477.704, 479.344 z "/>
<path style="fill:rgb(0, 255, 0);fill-opacity:0;fill-rule:evenodd;stroke:rgb(223, 255, 0);stroke-width:1;" d="M 483.535, 411.751 L 500.66, 388.249 L 510.499, 392.439 L 493.373, 415.942 L 483.535, 411.751 z "/>
<path style="fill:rgb(0, 0, 255);fill-opacity:0;fill-rule:evenodd;stroke:rgb(223, 255, 0);stroke-width:1;" d="M 298.975, 252.699 L 304.259, 245.411 L 336.142, 258.893 L 330.859, 266.181 L 298.975, 252.699 z "/>
<path style="fill:rgb(255, 255, 0);fill-opacity:0;fill-rule:evenodd;stroke:rgb(223, 255, 0);stroke-width:1;" d="M 531.633, 431.974 L 548.759, 408.472 L 558.597, 412.662 L 541.289, 436.165 L 531.633, 431.974 z "/>
<path style="fill:rgb(255, 0, 0);fill-opacity:0;fill-rule:evenodd;stroke:rgb(223, 255, 0);stroke-width:1;" d="M 356.547, 429.606 L 373.673, 406.286 L 383.512, 410.294 L 366.386, 433.796 L 356.547, 429.606 z "/>
<path style="fill:rgb(0, 255, 0);fill-opacity:0;fill-rule:evenodd;stroke:rgb(223, 255, 0);stroke-width:1;" d="M 366.386, 433.796 L 383.512, 410.294 L 393.168, 414.484 L 386.062, 424.14 L 383.876, 427.238 L 377.135, 436.165 L 376.042, 437.805 L 366.386, 433.796 z "/>
<path style="fill:rgb(0, 0, 255);fill-opacity:0;fill-rule:evenodd;stroke:rgb(223, 255, 0);stroke-width:1;" d="M 382.419, 218.811 L 396.994, 198.588 L 408.29, 203.325 L 393.714, 223.548 L 382.419, 218.811 z "/>
<path style="fill:rgb(255, 255, 0);fill-opacity:0;fill-rule:evenodd;stroke:rgb(223, 255, 0);stroke-width:1;" d="M 289.866, 401.549 L 306.992, 378.046 L 316.648, 382.054 L 299.522, 405.557 L 289.866, 401.549 z "/>
<path style="fill:rgb(255, 0, 0);fill-opacity:0;fill-rule:evenodd;stroke:rgb(223, 255, 0);stroke-width:1;" d="M 670.28, 781.417 L 676.657, 772.671 L 702.528, 783.421 L 696.151, 792.166 L 670.28, 781.417 z "/>
<path style="fill:rgb(0, 255, 0);fill-opacity:0;fill-rule:evenodd;stroke:rgb(223, 255, 0);stroke-width:1;" d="M 498.474, 488.271 L 513.96, 466.955 L 524.527, 471.328 L 509.041, 492.644 L 498.474, 488.271 z "/>
<path style="fill:rgb(0, 0, 255);fill-opacity:0;fill-rule:evenodd;stroke:rgb(223, 255, 0);stroke-width:1;" d="M 454.566, 399.545 L 471.692, 376.042 L 481.348, 380.05 L 464.04, 403.553 L 454.566, 399.545 z "/>
<path style="fill:rgb(255, 255, 0);fill-opacity:0;fill-rule:evenodd;stroke:rgb(223, 255, 0);stroke-width:1;" d="M 464.04, 403.553 L 481.348, 380.05 L 490.822, 384.058 L 473.696, 407.561 L 464.04, 403.553 z "/>
<path style="fill:rgb(255, 0, 0);fill-opacity:0;fill-rule:evenodd;stroke:rgb(223, 255, 0);stroke-width:1;" d="M 541.289, 436.165 L 558.597, 412.662 L 567.889, 416.488 L 550.763, 439.991 L 541.289, 436.165 z "/>
<path style="fill:rgb(0, 255, 0);fill-opacity:0;fill-rule:evenodd;stroke:rgb(223, 255, 0);stroke-width:1;" d="M 445.274, 395.536 L 446.185, 394.079 L 462.4, 372.034 L 471.692, 376.042 L 454.566, 399.545 L 445.274, 395.536 z "/>
<path style="fill:rgb(0, 0, 255);fill-opacity:0;fill-rule:evenodd;stroke:rgb(223, 255, 0);stroke-width:1;" d="M 676.657, 772.671 L 683.033, 764.108 L 708.722, 774.858 L 702.528, 783.421 L 676.657, 772.671 z "/>
<path style="fill:rgb(255, 255, 0);fill-opacity:0;fill-rule:evenodd;stroke:rgb(223, 255, 0);stroke-width:1;" d="M 502.482, 419.768 L 519.79, 396.265 L 529.082, 400.091 L 511.956, 423.776 L 502.482, 419.768 z "/>
<path style="fill:rgb(255, 0, 0);fill-opacity:0;fill-rule:evenodd;stroke:rgb(223, 255, 0);stroke-width:1;" d="M 493.373, 415.942 L 510.499, 392.439 L 519.79, 396.265 L 502.482, 419.768 L 493.373, 415.942 z "/>
<path style="fill:rgb(0, 255, 0);fill-opacity:0;fill-rule:evenodd;stroke:rgb(223, 255, 0);stroke-width:1;" d="M 696.333, 745.889 L 702.346, 737.509 L 728.217, 748.258 L 722.022, 756.639 L 696.333, 745.889 z "/>
<path style="fill:rgb(0, 0, 255);fill-opacity:0;fill-rule:evenodd;stroke:rgb(223, 255, 0);stroke-width:1;" d="M 509.041, 492.644 L 524.527, 471.328 L 534.73, 475.7 L 519.062, 496.834 L 509.041, 492.644 z "/>
<path style="fill:rgb(255, 255, 0);fill-opacity:0;fill-rule:evenodd;stroke:rgb(223, 255, 0);stroke-width:1;" d="M 347.438, 425.78 L 364.564, 402.277 L 373.673, 406.286 L 356.547, 429.606 L 347.438, 425.78 z "/>
<path style="fill:rgb(255, 0, 0);fill-opacity:0;fill-rule:evenodd;stroke:rgb(223, 255, 0);stroke-width:1;" d="M 776.68, 756.456 L 791.255, 736.598 L 802.004, 741.152 L 787.611, 761.011 L 776.68, 756.456 z "/>
<path style="fill:rgb(0, 255, 0);fill-opacity:0;fill-rule:evenodd;stroke:rgb(223, 255, 0);stroke-width:1;" d="M 799.636, 766.113 L 814.029, 746.254 L 824.96, 750.808 L 810.385, 770.667 L 799.636, 766.113 z "/>
<path style="fill:rgb(0, 0, 255);fill-opacity:0;fill-rule:evenodd;stroke:rgb(223, 255, 0);stroke-width:1;" d="M 822.409, 775.586 L 836.985, 755.91 L 847.734, 760.465 L 833.341, 780.141 L 822.409, 775.586 z "/>
<path style="fill:rgb(255, 255, 0);fill-opacity:0;fill-rule:evenodd;stroke:rgb(223, 255, 0);stroke-width:1;" d="M 539.649, 505.58 L 555.318, 484.263 L 565.338, 488.636 L 550.399, 509.041 L 549.67, 509.952 L 539.649, 505.58 z "/>
<path style="fill:rgb(255, 0, 0);fill-opacity:0;fill-rule:evenodd;stroke:rgb(223, 255, 0);stroke-width:1;" d="M 845.366, 785.243 L 859.759, 765.384 L 870.69, 769.939 L 856.115, 789.797 L 845.366, 785.243 z "/>
<path style="fill:rgb(0, 255, 0);fill-opacity:0;fill-rule:evenodd;stroke:rgb(223, 255, 0);stroke-width:1;" d="M 271.647, 393.714 L 288.772, 370.394 L 297.882, 374.22 L 280.756, 397.723 L 271.647, 393.714 z "/>
<path style="fill:rgb(0, 0, 255);fill-opacity:0;fill-rule:evenodd;stroke:rgb(223, 255, 0);stroke-width:1;" d="M 280.756, 397.723 L 297.882, 374.22 L 306.992, 378.046 L 289.866, 401.549 L 280.756, 397.723 z "/>
<path style="fill:rgb(255, 255, 0);fill-opacity:0;fill-rule:evenodd;stroke:rgb(223, 255, 0);stroke-width:1;" d="M 488.454, 483.899 L 504.122, 462.765 L 513.96, 466.955 L 498.474, 488.271 L 488.454, 483.899 z "/>
<path style="fill:rgb(255, 0, 0);fill-opacity:0;fill-rule:evenodd;stroke:rgb(223, 255, 0);stroke-width:1;" d="M 309.542, 409.747 L 326.668, 386.427 L 335.596, 390.071 L 318.47, 413.573 L 309.542, 409.747 z "/>
<path style="fill:rgb(0, 255, 0);fill-opacity:0;fill-rule:evenodd;stroke:rgb(223, 255, 0);stroke-width:1;" d="M 338.511, 421.954 L 355.637, 398.634 L 364.564, 402.277 L 347.438, 425.78 L 338.511, 421.954 z "/>
<path style="fill:rgb(0, 0, 255);fill-opacity:0;fill-rule:evenodd;stroke:rgb(223, 255, 0);stroke-width:1;" d="M 529.811, 501.389 L 545.479, 480.255 L 555.318, 484.263 L 539.649, 505.58 L 529.811, 501.389 z "/>
<path style="fill:rgb(255, 255, 0);fill-opacity:0;fill-rule:evenodd;stroke:rgb(223, 255, 0);stroke-width:1;" d="M 550.399, 509.041 L 565.338, 488.636 L 566.249, 487.361 L 575.176, 491.187 L 559.144, 512.867 L 550.399, 509.041 z "/>
<path style="fill:rgb(255, 0, 0);fill-opacity:0;fill-rule:evenodd;stroke:rgb(223, 255, 0);stroke-width:1;" d="M 576.087, 519.973 L 592.12, 498.292 L 600.865, 501.936 L 585.015, 523.616 L 576.087, 519.973 z "/>
<path style="fill:rgb(0, 255, 0);fill-opacity:0;fill-rule:evenodd;stroke:rgb(223, 255, 0);stroke-width:1;" d="M 567.524, 516.329 L 583.557, 494.648 L 592.12, 498.292 L 576.087, 519.973 L 567.524, 516.329 z "/>
<path style="fill:rgb(0, 0, 255);fill-opacity:0;fill-rule:evenodd;stroke:rgb(223, 255, 0);stroke-width:1;" d="M 585.015, 523.616 L 600.865, 501.936 L 609.246, 505.58 L 603.598, 513.414 L 597.039, 522.341 L 594.671, 525.803 L 593.396, 527.26 L 585.015, 523.616 z "/>
<path style="fill:rgb(255, 255, 0);fill-opacity:0;fill-rule:evenodd;stroke:rgb(223, 255, 0);stroke-width:1;" d="M 702.346, 737.509 L 707.629, 730.403 L 733.318, 741.152 L 728.217, 748.258 L 702.346, 737.509 z "/>
<path style="fill:rgb(255, 0, 0);fill-opacity:0;fill-rule:evenodd;stroke:rgb(223, 255, 0);stroke-width:1;" d="M 559.144, 512.867 L 575.176, 491.187 L 583.557, 494.648 L 567.524, 516.329 L 559.144, 512.867 z "/>
<path style="fill:rgb(0, 255, 0);fill-opacity:0;fill-rule:evenodd;stroke:rgb(223, 255, 0);stroke-width:1;" d="M 701.981, 507.584 L 714.188, 491.004 L 722.387, 494.466 L 710.362, 511.045 L 701.981, 507.584 z "/>
<path style="fill:rgb(0, 0, 255);fill-opacity:0;fill-rule:evenodd;stroke:rgb(223, 255, 0);stroke-width:1;" d="M 686.131, 500.843 L 698.155, 484.263 L 706.354, 487.725 L 694.329, 504.304 L 686.131, 500.843 z "/>
<path style="fill:rgb(255, 255, 0);fill-opacity:0;fill-rule:evenodd;stroke:rgb(223, 255, 0);stroke-width:1;" d="M 710.362, 511.045 L 722.387, 494.466 L 730.585, 497.928 L 718.379, 514.507 L 710.362, 511.045 z "/>
<path style="fill:rgb(255, 0, 0);fill-opacity:0;fill-rule:evenodd;stroke:rgb(223, 255, 0);stroke-width:1;" d="M 718.379, 514.507 L 730.585, 497.928 L 738.602, 501.389 L 726.395, 517.969 L 718.379, 514.507 z "/>
<path style="fill:rgb(0, 255, 0);fill-opacity:0;fill-rule:evenodd;stroke:rgb(223, 255, 0);stroke-width:1;" d="M 694.329, 504.304 L 706.354, 487.725 L 714.188, 491.004 L 701.981, 507.584 L 694.329, 504.304 z "/>
<path style="fill:rgb(0, 0, 255);fill-opacity:0;fill-rule:evenodd;stroke:rgb(223, 255, 0);stroke-width:1;" d="M 726.395, 517.969 L 738.602, 501.389 L 746.254, 504.669 L 745.707, 505.215 L 734.047, 521.066 L 726.395, 517.969 z "/>
<path style="fill:rgb(255, 255, 0);fill-opacity:0;fill-rule:evenodd;stroke:rgb(223, 255, 0);stroke-width:1;" d="M 124.436, 231.382 L 129.538, 224.277 L 130.631, 223.002 L 137.372, 225.917 L 131.177, 234.297 L 124.436, 231.382 z "/>
<path style="fill:rgb(255, 0, 0);fill-opacity:0;fill-rule:evenodd;stroke:rgb(223, 255, 0);stroke-width:1;" d="M 0, 660.077 L 20.9519, 631.473 L 26.2355, 633.66 L 69.4147, 574.448 L 250.33, 650.786 L 236.302, 670.098 L 238.852, 671.191 L 236.848, 673.924 L 234.297, 672.831 L 221.362, 690.503 L 223.73, 691.414 L 222.091, 693.783 L 219.722, 692.69 L 198.952, 721.111 L 182.009, 714.006 L 169.255, 731.314 L 0, 660.077 z "/>
<path style="fill:rgb(0, 255, 0);fill-opacity:0;fill-rule:evenodd;stroke:rgb(223, 255, 0);stroke-width:1;" d="M 49.3737, 317.194 L 68.5038, 291.141 L 63.7668, 289.137 L 72.8763, 276.93 L 101.662, 289.137 L 93.0995, 300.615 L 92.5529, 301.526 L 87.816, 299.522 L 68.6859, 325.393 L 49.3737, 317.194 z "/>
<path style="fill:rgb(0, 0, 255);fill-opacity:0;fill-rule:evenodd;stroke:rgb(223, 255, 0);stroke-width:1;" d="M 46.6409, 341.972 L 57.0257, 327.761 L 111.865, 351.082 L 101.298, 365.293 L 89.4557, 360.191 L 46.6409, 341.972 z "/>
<path style="fill:rgb(255, 255, 0);fill-opacity:0;fill-rule:evenodd;stroke:rgb(223, 255, 0);stroke-width:1;" d="M 59.212, 84.5366 L 77.9777, 58.8476 L 82.7146, 60.8517 L 87.0872, 54.8394 L 93.6461, 57.5723 L 70.3257, 89.2735 L 66.6818, 88.5448 L 61.7627, 86.5407 L 59.212, 84.5366 z "/>
<path style="fill:rgb(255, 0, 0);fill-opacity:0;fill-rule:evenodd;stroke:rgb(223, 255, 0);stroke-width:1;" d="M 57.9367, 163.243 L 79.9818, 133.182 L 91.2776, 138.101 L 73.4229, 162.514 L 67.9572, 160.146 L 63.7668, 165.794 L 57.9367, 163.243 z "/>
<path style="fill:rgb(0, 255, 0);fill-opacity:0;fill-rule:evenodd;stroke:rgb(223, 255, 0);stroke-width:1;" d="M 56.6614, 233.204 L 74.8804, 208.426 L 79.7996, 210.43 L 83.8078, 204.965 L 90.1845, 207.515 L 67.775, 237.941 L 56.6614, 233.204 z "/>
<path style="fill:rgb(0, 0, 255);fill-opacity:0;fill-rule:evenodd;stroke:rgb(223, 255, 0);stroke-width:1;" d="M 67.775, 237.941 L 90.1845, 207.515 L 95.8324, 210.066 L 91.8242, 215.532 L 96.9255, 217.718 L 78.7064, 242.496 L 67.775, 237.941 z "/>
<path style="fill:rgb(255, 255, 0);fill-opacity:0;fill-rule:evenodd;stroke:rgb(223, 255, 0);stroke-width:1;" d="M 450.558, 43.5436 L 482.259, 0 L 557.686, 31.7012 L 532.908, 65.7709 L 522.159, 61.3983 L 515.236, 70.69 L 450.558, 43.5436 z "/>
<path style="fill:rgb(255, 0, 0);fill-opacity:0;fill-rule:evenodd;stroke:rgb(223, 255, 0);stroke-width:1;" d="M 677.021, 47.734 L 693.965, 24.4136 L 700.342, 27.1464 L 702.346, 24.0492 L 716.557, 30.0615 L 735.14, 37.8957 L 751.537, 44.8189 L 732.407, 71.0544 L 715.281, 63.949 L 728.581, 45.7299 L 733.683, 47.734 L 734.776, 46.2765 L 725.666, 42.4505 L 711.273, 62.3093 L 696.516, 55.9326 L 712.731, 33.5231 L 708.54, 31.7012 L 692.143, 54.1107 L 677.021, 47.734 z "/>
<path style="fill:rgb(0, 255, 0);fill-opacity:0;fill-rule:evenodd;stroke:rgb(223, 255, 0);stroke-width:1;" d="M 177.454, 56.4792 L 195.673, 31.7012 L 198.952, 30.7903 L 203.507, 32.6122 L 203.872, 35.1628 L 208.244, 36.9847 L 190.207, 61.5805 L 185.835, 67.5928 L 180.551, 65.4065 L 184.742, 59.5764 L 177.454, 56.4792 z "/>
<path style="fill:rgb(0, 0, 255);fill-opacity:0;fill-rule:evenodd;stroke:rgb(223, 255, 0);stroke-width:1;" d="M 141.927, 42.8148 L 142.838, 41.7217 L 160.875, 16.9437 L 172.535, 21.8629 L 149.761, 53.0175 L 142.473, 49.9203 L 146.299, 44.8189 L 141.927, 42.8148 z "/>
<path style="fill:rgb(255, 255, 0);fill-opacity:0;fill-rule:evenodd;stroke:rgb(223, 255, 0);stroke-width:1;" d="M 126.258, 43.3614 L 149.396, 12.0246 L 160.875, 16.9437 L 142.838, 41.7217 L 136.643, 38.9888 L 131.724, 45.7299 L 126.258, 43.3614 z "/>
<path style="fill:rgb(255, 0, 0);fill-opacity:0;fill-rule:evenodd;stroke:rgb(223, 255, 0);stroke-width:1;" d="M 148.85, 54.1107 L 149.761, 53.0175 L 172.535, 21.8629 L 183.831, 26.5999 L 164.701, 52.6532 L 158.688, 50.1025 L 154.133, 56.4792 L 148.85, 54.1107 z "/>
<path style="fill:rgb(0, 255, 0);fill-opacity:0;fill-rule:evenodd;stroke:rgb(223, 255, 0);stroke-width:1;" d="M 532.908, 65.7709 L 557.686, 31.7012 L 568.071, 36.0738 L 550.216, 60.6696 L 545.844, 58.8476 L 538.921, 68.3216 L 532.908, 65.7709 z "/>
<path style="fill:rgb(0, 0, 255);fill-opacity:0;fill-rule:evenodd;stroke:rgb(223, 255, 0);stroke-width:1;" d="M 164.701, 52.6532 L 183.831, 26.5999 L 195.673, 31.7012 L 177.454, 56.4792 L 176.543, 57.5723 L 164.701, 52.6532 z "/>
</svg>