<?xml version="1.0" encoding="iso-8859-1" standalone="no"?>
<!DOCTYPE svg PUBLIC "-//W3C//DTD SVG 1.0//EN" "http://www.w3.org/TR/2001/REC-SVG-20010904/DTD/svg10.dtd">
<svg xmlns="http://www.w3.org/2000/svg" width="1031" height="800">
<path style="fill:rgb(255, 0, 0);fill-opacity:0;fill-rule:evenodd;stroke:rgb(0, 219, 255);stroke-width:1;" d="M 253.971, 696.751 L 264.26, 682.671 L 293.863, 694.946 L 292.96, 696.39 L 303.43, 700.722 L 305.596, 697.653 L 363.718, 722.022 L 360.65, 726.354 L 359.928, 726.173 L 359.025, 727.437 L 364.982, 729.964 L 369.134, 724.188 L 374.91, 726.715 L 373.466, 728.7 L 411.011, 744.585 L 400, 759.747 L 403.61, 761.372 L 391.516, 777.798 L 390.614, 777.437 L 386.643, 782.852 L 383.935, 781.769 L 382.852, 783.213 L 383.755, 783.574 L 381.227, 787.004 L 384.116, 788.267 L 380.866, 792.78 L 339.531, 775.451 L 337.184, 778.7 L 335.018, 777.978 L 321.661, 772.383 L 331.047, 759.386 L 301.083, 746.931 L 300.181, 748.195 L 292.96, 745.126 L 302.347, 732.31 L 285.379, 725.09 L 293.863, 713.538 L 253.971, 696.751 z "/>
<path style="fill:rgb(0, 255, 0);fill-opacity:0;fill-rule:evenodd;stroke:rgb(0, 219, 255);stroke-width:1;" d="M 847.112, 257.04 L 903.971, 179.603 L 937.184, 193.682 L 926.534, 208.303 L 940.433, 214.26 L 932.31, 225.271 L 948.736, 232.13 L 933.394, 253.249 L 922.563, 248.556 L 899.819, 279.422 L 847.112, 257.04 z "/>
<path style="fill:rgb(0, 0, 255);fill-opacity:0;fill-rule:evenodd;stroke:rgb(0, 219, 255);stroke-width:1;" d="M 773.285, 358.484 L 805.235, 314.44 L 867.329, 340.433 L 866.787, 341.155 L 895.668, 353.069 L 890.072, 360.83 L 864.26, 396.57 L 828.52, 381.588 L 818.773, 377.617 L 773.285, 358.484 z "/>
<path style="fill:rgb(255, 255, 0);fill-opacity:0;fill-rule:evenodd;stroke:rgb(0, 219, 255);stroke-width:1;" d="M 813.357, 580.686 L 840.975, 542.599 L 848.917, 545.848 L 886.462, 561.733 L 890.794, 555.776 L 960.469, 585.018 L 937.906, 616.065 L 928.339, 629.422 L 909.928, 621.661 L 929.242, 594.946 L 887.365, 577.437 L 881.047, 586.101 L 884.477, 587.365 L 880.866, 592.058 L 877.617, 590.794 L 868.231, 603.61 L 813.357, 580.686 z "/>
<path style="fill:rgb(255, 0, 0);fill-opacity:0;fill-rule:evenodd;stroke:rgb(0, 219, 255);stroke-width:1;" d="M 838.989, 533.394 L 853.069, 514.079 L 869.314, 491.877 L 870.578, 490.253 L 889.17, 498.195 L 866.245, 529.422 L 870.578, 531.227 L 893.502, 500 L 956.137, 526.534 L 950.181, 534.657 L 946.029, 533.032 L 941.516, 538.809 L 945.848, 540.614 L 924.549, 569.495 L 838.989, 533.394 z "/>
<path style="fill:rgb(0, 255, 0);fill-opacity:0;fill-rule:evenodd;stroke:rgb(0, 219, 255);stroke-width:1;" d="M 254.332, 303.069 L 295.307, 247.473 L 351.264, 271.3 L 307.04, 331.227 L 299.819, 328.159 L 302.888, 323.827 L 280.866, 314.44 L 283.574, 310.83 L 268.773, 304.513 L 266.065, 308.123 L 259.567, 305.235 L 254.332, 303.069 z "/>
<path style="fill:rgb(0, 0, 255);fill-opacity:0;fill-rule:evenodd;stroke:rgb(0, 219, 255);stroke-width:1;" d="M 690.433, 471.119 L 722.383, 427.617 L 790.794, 456.498 L 758.845, 500 L 747.653, 495.307 L 724.188, 485.379 L 704.513, 477.076 L 690.433, 471.119 z "/>
<path style="fill:rgb(255, 255, 0);fill-opacity:0;fill-rule:evenodd;stroke:rgb(0, 219, 255);stroke-width:1;" d="M 366.245, 234.657 L 420.397, 160.469 L 429.964, 164.621 L 432.671, 160.65 L 451.083, 168.412 L 448.375, 172.383 L 457.401, 176.173 L 441.697, 197.653 L 443.321, 198.375 L 435.379, 209.206 L 438.087, 210.289 L 431.408, 219.314 L 428.881, 218.231 L 420.578, 229.603 L 418.953, 228.881 L 403.43, 250.361 L 394.043, 246.39 L 391.155, 250.181 L 373.105, 242.599 L 375.993, 238.809 L 366.245, 234.657 z "/>
<path style="fill:rgb(255, 0, 0);fill-opacity:0;fill-rule:evenodd;stroke:rgb(0, 219, 255);stroke-width:1;" d="M 917.148, 161.552 L 961.552, 100.903 L 994.585, 114.982 L 981.769, 132.491 L 996.029, 138.448 L 987.906, 149.278 L 1004.33, 156.318 L 988.628, 177.437 L 958.123, 164.621 L 950.181, 175.451 L 917.148, 161.552 z "/>
<path style="fill:rgb(0, 255, 0);fill-opacity:0;fill-rule:evenodd;stroke:rgb(0, 219, 255);stroke-width:1;" d="M 288.989, 153.61 L 292.058, 149.458 L 298.195, 141.155 L 303.069, 143.321 L 324.729, 152.527 L 322.022, 156.137 L 330.325, 159.567 L 347.834, 135.56 L 341.336, 132.852 L 346.57, 125.451 L 352.527, 127.978 L 353.249, 127.076 L 358.303, 126.534 L 362.816, 128.52 L 364.621, 131.949 L 367.87, 127.617 L 389.17, 136.643 L 386.101, 140.975 L 390.433, 140.072 L 396.029, 142.599 L 397.112, 146.931 L 402.708, 149.278 L 396.57, 157.762 L 390.433, 155.235 L 374.188, 177.437 L 380.686, 180.144 L 373.827, 189.531 L 354.693, 181.408 L 350.542, 187.184 L 344.224, 189.35 L 334.116, 185.018 L 333.394, 184.657 L 331.769, 179.242 L 335.921, 173.466 L 288.989, 153.61 z "/>
<path style="fill:rgb(0, 0, 255);fill-opacity:0;fill-rule:evenodd;stroke:rgb(0, 219, 255);stroke-width:1;" d="M 889.892, 293.141 L 899.819, 279.422 L 922.563, 248.556 L 933.394, 253.249 L 937.365, 255.235 L 935.018, 258.845 L 970.397, 273.827 L 962.274, 285.018 L 979.061, 292.058 L 963.718, 312.996 L 951.444, 307.762 L 944.946, 316.426 L 889.892, 293.141 z "/>
<path style="fill:rgb(255, 255, 0);fill-opacity:0;fill-rule:evenodd;stroke:rgb(0, 219, 255);stroke-width:1;" d="M 297.653, 482.13 L 305.596, 470.939 L 318.953, 456.859 L 315.704, 454.874 L 318.953, 449.819 L 320.397, 450.361 L 331.227, 440.253 L 380.505, 461.191 L 374.188, 469.856 L 352.708, 499.458 L 349.458, 503.61 L 330.866, 496.029 L 297.653, 482.13 z "/>
<path style="fill:rgb(255, 0, 0);fill-opacity:0;fill-rule:evenodd;stroke:rgb(0, 219, 255);stroke-width:1;" d="M 928.339, 629.422 L 937.906, 616.065 L 959.206, 624.91 L 977.798, 599.278 L 983.574, 601.625 L 986.823, 597.112 L 1013.18, 608.303 L 1009.93, 612.635 L 1016.06, 615.343 L 999.097, 638.809 L 1017.51, 646.39 L 1006.14, 662.094 L 928.339, 629.422 z "/>
<path style="fill:rgb(0, 255, 0);fill-opacity:0;fill-rule:evenodd;stroke:rgb(0, 219, 255);stroke-width:1;" d="M 839.711, 430.505 L 864.26, 396.57 L 890.072, 360.83 L 895.126, 362.996 L 898.014, 358.845 L 906.318, 362.274 L 903.43, 366.426 L 920.758, 373.646 L 917.509, 378.159 L 901.083, 400.903 L 894.946, 409.386 L 872.022, 441.155 L 853.61, 433.394 L 851.986, 435.56 L 839.711, 430.505 z "/>
<path style="fill:rgb(0, 0, 255);fill-opacity:0;fill-rule:evenodd;stroke:rgb(0, 219, 255);stroke-width:1;" d="M 348.556, 530.866 L 366.968, 505.415 L 370.939, 507.22 L 377.617, 498.195 L 386.643, 502.166 L 380.144, 511.011 L 387.545, 514.26 L 394.043, 505.235 L 403.791, 509.386 L 397.292, 518.231 L 405.054, 521.48 L 411.552, 512.635 L 421.119, 516.606 L 414.44, 525.632 L 422.202, 528.881 L 428.881, 519.856 L 438.628, 524.007 L 432.13, 533.032 L 435.74, 534.477 L 430.325, 542.058 L 426.354, 540.433 L 423.466, 544.404 L 427.437, 546.029 L 417.148, 559.928 L 348.556, 530.866 z M 406.137, 537.545 L 409.747, 538.989 L 413.899, 540.614 L 416.968, 536.282 L 409.386, 533.032 L 406.137, 537.545 z M 371.841, 522.563 L 379.603, 525.993 L 382.671, 521.841 L 374.91, 518.412 L 371.841, 522.563 z "/>
<path style="fill:rgb(255, 255, 0);fill-opacity:0;fill-rule:evenodd;stroke:rgb(0, 219, 255);stroke-width:1;" d="M 451.986, 264.982 L 476.895, 233.032 L 521.119, 251.625 L 532.13, 256.318 L 499.819, 300.542 L 485.74, 294.765 L 494.404, 283.032 L 451.986, 264.982 z "/>
<path style="fill:rgb(255, 0, 0);fill-opacity:0;fill-rule:evenodd;stroke:rgb(0, 219, 255);stroke-width:1;" d="M 114.26, 730.505 L 145.848, 687.184 L 165.523, 695.307 L 191.516, 706.318 L 166.968, 739.892 L 159.928, 749.639 L 114.26, 730.505 z "/>
<path style="fill:rgb(0, 255, 0);fill-opacity:0;fill-rule:evenodd;stroke:rgb(0, 219, 255);stroke-width:1;" d="M 393.321, 672.202 L 417.509, 638.809 L 476.895, 663.538 L 452.708, 696.931 L 451.444, 696.39 L 415.704, 681.408 L 416.968, 679.783 L 404.513, 674.549 L 403.249, 676.354 L 393.321, 672.202 z "/>
<path style="fill:rgb(0, 0, 255);fill-opacity:0;fill-rule:evenodd;stroke:rgb(0, 219, 255);stroke-width:1;" d="M 937.004, 424.729 L 941.877, 417.87 L 958.303, 395.307 L 967.148, 383.032 L 1010.65, 401.264 L 1003.25, 411.552 L 997.473, 419.495 L 989.892, 429.783 L 980.325, 442.96 L 937.004, 424.729 z "/>
<path style="fill:rgb(255, 255, 0);fill-opacity:0;fill-rule:evenodd;stroke:rgb(0, 219, 255);stroke-width:1;" d="M 125.09, 269.134 L 141.697, 245.848 L 145.307, 247.292 L 151.444, 238.809 L 147.834, 237.365 L 164.44, 214.079 L 188.267, 224.007 L 173.105, 245.487 L 185.921, 250.722 L 187.365, 248.736 L 209.025, 257.762 L 197.834, 273.466 L 176.173, 264.44 L 177.617, 262.455 L 164.801, 257.22 L 151.083, 276.534 L 154.693, 277.978 L 152.888, 280.505 L 125.09, 269.134 z "/>
<path style="fill:rgb(255, 0, 0);fill-opacity:0;fill-rule:evenodd;stroke:rgb(0, 219, 255);stroke-width:1;" d="M 537.365, 753.971 L 546.029, 718.953 L 553.43, 720.217 L 557.04, 707.762 L 549.639, 706.498 L 561.552, 671.841 L 587.545, 676.173 L 579.242, 711.552 L 572.383, 710.289 L 568.592, 722.744 L 575.451, 724.007 L 563.357, 758.303 L 537.365, 753.971 z "/>
<path style="fill:rgb(0, 255, 0);fill-opacity:0;fill-rule:evenodd;stroke:rgb(0, 219, 255);stroke-width:1;" d="M 640.614, 796.931 L 646.209, 761.913 L 653.43, 762.816 L 656.137, 749.639 L 648.917, 748.917 L 657.762, 714.079 L 683.755, 717.148 L 678.52, 752.347 L 671.3, 751.444 L 668.592, 764.621 L 675.993, 765.343 L 666.606, 800 L 640.614, 796.931 z "/>
<path style="fill:rgb(0, 0, 255);fill-opacity:0;fill-rule:evenodd;stroke:rgb(0, 219, 255);stroke-width:1;" d="M 949.639, 484.116 L 966.606, 460.65 L 978.7, 465.704 L 979.242, 464.801 L 1024.91, 483.935 L 1024.37, 484.838 L 1031.41, 487.726 L 1011.73, 514.982 L 998.375, 509.206 L 1003.25, 502.527 L 993.502, 498.375 L 991.336, 501.444 L 983.213, 499.458 L 975.271, 497.112 L 968.592, 494.585 L 961.913, 491.336 L 955.235, 487.726 L 949.639, 484.116 z "/>
<path style="fill:rgb(255, 255, 0);fill-opacity:0;fill-rule:evenodd;stroke:rgb(0, 219, 255);stroke-width:1;" d="M 642.78, 655.415 L 648.014, 624.007 L 655.235, 624.729 L 657.762, 612.094 L 650.542, 611.191 L 659.928, 575.993 L 686.101, 579.061 L 683.574, 594.585 L 680.505, 614.621 L 672.924, 613.899 L 670.397, 626.534 L 677.978, 627.437 L 668.953, 658.303 L 642.78, 655.415 z "/>
<path style="fill:rgb(255, 0, 0);fill-opacity:0;fill-rule:evenodd;stroke:rgb(0, 219, 255);stroke-width:1;" d="M 752.527, 700.542 L 754.332, 668.773 L 761.372, 669.314 L 762.816, 656.318 L 755.957, 655.776 L 761.733, 620.578 L 788.087, 622.383 L 786.101, 657.942 L 778.7, 657.401 L 777.076, 670.397 L 784.657, 670.939 L 778.7, 702.347 L 752.527, 700.542 z "/>
<path style="fill:rgb(0, 255, 0);fill-opacity:0;fill-rule:evenodd;stroke:rgb(0, 219, 255);stroke-width:1;" d="M 894.946, 409.386 L 901.083, 400.903 L 907.22, 403.43 L 923.646, 380.866 L 917.509, 378.159 L 920.758, 373.646 L 926.354, 366.065 L 967.148, 383.032 L 958.303, 395.307 L 951.264, 392.419 L 934.838, 414.982 L 941.877, 417.87 L 937.004, 424.729 L 935.74, 426.534 L 919.495, 419.856 L 916.245, 424.549 L 895.307, 415.704 L 898.736, 410.83 L 894.946, 409.386 z "/>
<path style="fill:rgb(0, 0, 255);fill-opacity:0;fill-rule:evenodd;stroke:rgb(0, 219, 255);stroke-width:1;" d="M 232.31, 332.671 L 254.332, 303.069 L 259.567, 305.235 L 256.498, 309.567 L 299.819, 328.159 L 307.04, 331.227 L 288.267, 356.679 L 232.31, 332.671 z "/>
<path style="fill:rgb(255, 255, 0);fill-opacity:0;fill-rule:evenodd;stroke:rgb(0, 219, 255);stroke-width:1;" d="M 741.697, 401.805 L 754.152, 384.838 L 789.892, 399.819 L 796.751, 390.253 L 802.527, 382.13 L 812.455, 386.282 L 818.773, 377.617 L 828.52, 381.588 L 805.054, 414.079 L 797.112, 425.09 L 741.697, 401.805 z "/>
<path style="fill:rgb(255, 0, 0);fill-opacity:0;fill-rule:evenodd;stroke:rgb(0, 219, 255);stroke-width:1;" d="M 944.765, 144.224 L 960.289, 123.285 L 981.769, 132.491 L 996.029, 138.448 L 987.906, 149.278 L 1004.33, 156.318 L 988.628, 177.437 L 958.123, 164.621 L 952.166, 162.094 L 960.469, 150.903 L 944.765, 144.224 z "/>
<path style="fill:rgb(0, 255, 0);fill-opacity:0;fill-rule:evenodd;stroke:rgb(0, 219, 255);stroke-width:1;" d="M 889.17, 220.217 L 904.513, 199.097 L 926.534, 208.303 L 940.433, 214.26 L 932.31, 225.271 L 948.736, 232.13 L 933.394, 253.249 L 922.563, 248.556 L 896.751, 237.726 L 904.693, 226.715 L 889.17, 220.217 z "/>
<path style="fill:rgb(0, 0, 255);fill-opacity:0;fill-rule:evenodd;stroke:rgb(0, 219, 255);stroke-width:1;" d="M 919.495, 279.964 L 935.018, 258.845 L 970.397, 273.827 L 962.274, 285.018 L 979.061, 292.058 L 963.718, 312.996 L 951.444, 307.762 L 927.076, 297.473 L 935.199, 286.643 L 919.495, 279.964 z "/>
<path style="fill:rgb(255, 255, 0);fill-opacity:0;fill-rule:evenodd;stroke:rgb(0, 219, 255);stroke-width:1;" d="M 942.78, 551.625 L 950.542, 540.975 L 950.722, 538.448 L 948.195, 537.365 L 950.181, 534.657 L 956.137, 526.534 L 1008.48, 548.556 L 980.325, 587.184 L 965.162, 580.866 L 983.394, 555.957 L 966.065, 548.736 L 959.025, 558.484 L 942.78, 551.625 z "/>
<path style="fill:rgb(255, 0, 0);fill-opacity:0;fill-rule:evenodd;stroke:rgb(0, 219, 255);stroke-width:1;" d="M 263.357, 137.184 L 280.325, 114.079 L 270.397, 109.747 L 278.881, 98.0144 L 288.989, 102.347 L 291.877, 98.3755 L 320.578, 110.65 L 312.996, 120.939 L 298.195, 141.155 L 292.058, 149.458 L 263.357, 137.184 z "/>
<path style="fill:rgb(0, 255, 0);fill-opacity:0;fill-rule:evenodd;stroke:rgb(0, 219, 255);stroke-width:1;" d="M 592.058, 401.625 L 607.942, 379.964 L 664.982, 403.791 L 649.278, 425.451 L 592.058, 401.625 z "/>
<path style="fill:rgb(0, 0, 255);fill-opacity:0;fill-rule:evenodd;stroke:rgb(0, 219, 255);stroke-width:1;" d="M 576.534, 423.285 L 592.058, 401.625 L 649.278, 425.451 L 633.574, 447.112 L 608.123, 436.643 L 576.534, 423.285 z "/>
<path style="fill:rgb(255, 255, 0);fill-opacity:0;fill-rule:evenodd;stroke:rgb(0, 219, 255);stroke-width:1;" d="M 200.903, 163.899 L 214.26, 145.848 L 240.433, 156.859 L 238.267, 159.928 L 251.264, 165.343 L 253.43, 162.274 L 279.061, 173.105 L 265.884, 191.336 L 244.765, 182.31 L 243.863, 183.755 L 221.841, 174.368 L 222.744, 173.105 L 200.903, 163.899 z "/>
<path style="fill:rgb(255, 0, 0);fill-opacity:0;fill-rule:evenodd;stroke:rgb(0, 219, 255);stroke-width:1;" d="M 560.289, 445.848 L 573.827, 427.076 L 605.415, 440.253 L 608.123, 436.643 L 633.574, 447.112 L 617.329, 469.675 L 576.173, 452.347 L 560.289, 445.848 z "/>
<path style="fill:rgb(0, 255, 0);fill-opacity:0;fill-rule:evenodd;stroke:rgb(0, 219, 255);stroke-width:1;" d="M 808.484, 110.289 L 815.884, 100.181 L 819.314, 101.625 L 826.895, 91.3357 L 831.047, 93.1408 L 862.996, 106.679 L 863.718, 105.776 L 878.159, 111.913 L 862.635, 133.213 L 808.484, 110.289 z "/>
<path style="fill:rgb(0, 0, 255);fill-opacity:0;fill-rule:evenodd;stroke:rgb(0, 219, 255);stroke-width:1;" d="M 450.722, 366.065 L 461.011, 351.805 L 478.339, 327.978 L 506.318, 339.711 L 487.184, 366.245 L 478.7, 377.798 L 450.722, 366.065 z "/>
<path style="fill:rgb(255, 255, 0);fill-opacity:0;fill-rule:evenodd;stroke:rgb(0, 219, 255);stroke-width:1;" d="M 478.159, 558.664 L 493.682, 537.365 L 504.874, 542.058 L 550.181, 561.191 L 539.17, 576.534 L 512.094, 565.162 L 507.762, 571.119 L 497.653, 566.787 L 478.159, 558.664 z "/>
<path style="fill:rgb(255, 0, 0);fill-opacity:0;fill-rule:evenodd;stroke:rgb(0, 219, 255);stroke-width:1;" d="M 502.166, 449.278 L 509.747, 438.989 L 515.162, 441.336 L 521.661, 432.31 L 516.245, 429.964 L 523.646, 419.856 L 535.74, 424.91 L 538.809, 420.578 L 526.715, 415.523 L 530.686, 409.928 L 533.755, 405.776 L 561.733, 417.509 L 554.693, 427.256 L 542.238, 422.202 L 539.17, 426.354 L 549.639, 430.686 L 550.181, 429.783 L 552.166, 430.686 L 545.848, 439.531 L 544.224, 441.697 L 537.906, 438.989 L 531.408, 448.014 L 537.726, 450.722 L 530.325, 461.011 L 502.166, 449.278 z "/>
<path style="fill:rgb(0, 255, 0);fill-opacity:0;fill-rule:evenodd;stroke:rgb(0, 219, 255);stroke-width:1;" d="M 131.047, 589.17 L 163.357, 545.668 L 169.675, 548.375 L 185.56, 555.054 L 153.249, 598.736 L 131.047, 589.17 z "/>
<path style="fill:rgb(0, 0, 255);fill-opacity:0;fill-rule:evenodd;stroke:rgb(0, 219, 255);stroke-width:1;" d="M 368.953, 73.6462 L 381.047, 57.2202 L 385.56, 59.2058 L 404.513, 33.574 L 423.646, 41.6968 L 406.679, 64.8014 L 411.011, 66.6065 L 398.014, 84.1155 L 396.931, 85.5596 L 368.953, 73.6462 z "/>
<path style="fill:rgb(255, 255, 0);fill-opacity:0;fill-rule:evenodd;stroke:rgb(0, 219, 255);stroke-width:1;" d="M 81.0469, 567.69 L 88.9892, 557.04 L 96.9314, 560.289 L 106.137, 547.834 L 108.484, 544.585 L 100.722, 541.336 L 112.274, 525.632 L 140.614, 537.726 L 137.184, 542.419 L 129.061, 553.43 L 121.841, 550.361 L 120.036, 552.888 L 110.289, 566.065 L 117.329, 569.134 L 109.386, 579.964 L 81.0469, 567.69 z "/>
<path style="fill:rgb(255, 0, 0);fill-opacity:0;fill-rule:evenodd;stroke:rgb(0, 219, 255);stroke-width:1;" d="M 53.0686, 555.776 L 61.1913, 544.946 L 68.9531, 548.375 L 80.5054, 532.671 L 72.7437, 529.242 L 75.4513, 525.632 L 84.296, 513.718 L 112.274, 525.632 L 100.722, 541.336 L 93.5018, 538.267 L 89.8917, 543.141 L 81.9495, 553.971 L 88.9892, 557.04 L 81.0469, 567.69 L 53.0686, 555.776 z "/>
<path style="fill:rgb(0, 255, 0);fill-opacity:0;fill-rule:evenodd;stroke:rgb(0, 219, 255);stroke-width:1;" d="M 111.372, 432.491 L 118.773, 422.202 L 121.3, 423.285 L 133.394, 406.679 L 130.866, 405.776 L 139.892, 393.682 L 165.343, 404.332 L 156.318, 416.606 L 153.61, 415.343 L 141.336, 431.949 L 144.224, 433.213 L 136.823, 443.321 L 111.372, 432.491 z "/>
<path style="fill:rgb(0, 0, 255);fill-opacity:0;fill-rule:evenodd;stroke:rgb(0, 219, 255);stroke-width:1;" d="M 155.054, 512.455 L 168.051, 494.585 L 206.498, 510.83 L 207.22, 509.928 L 216.065, 513.538 L 201.625, 533.213 L 162.094, 516.426 L 162.635, 515.704 L 155.054, 512.455 z "/>
<path style="fill:rgb(255, 255, 0);fill-opacity:0;fill-rule:evenodd;stroke:rgb(0, 219, 255);stroke-width:1;" d="M 155.054, 450.903 L 172.202, 427.437 L 201.264, 439.711 L 199.639, 441.877 L 206.859, 444.946 L 193.682, 462.996 L 191.336, 466.245 L 155.054, 450.903 z "/>
<path style="fill:rgb(255, 0, 0);fill-opacity:0;fill-rule:evenodd;stroke:rgb(0, 219, 255);stroke-width:1;" d="M 469.314, 518.773 L 476.895, 508.484 L 482.31, 510.83 L 485.379, 510.469 L 495.487, 496.57 L 494.043, 494.765 L 488.448, 492.419 L 493.682, 485.018 L 496.751, 480.866 L 525.271, 492.96 L 516.968, 504.332 L 511.733, 502.166 L 508.303, 501.986 L 498.195, 516.065 L 500, 518.231 L 505.235, 520.397 L 497.653, 530.866 L 469.314, 518.773 z "/>
<path style="fill:rgb(0, 255, 0);fill-opacity:0;fill-rule:evenodd;stroke:rgb(0, 219, 255);stroke-width:1;" d="M 103.43, 513.357 L 110.289, 504.332 L 115.162, 506.318 L 117.69, 506.498 L 120.939, 502.166 L 121.48, 502.347 L 132.31, 487.726 L 131.227, 486.462 L 125.09, 483.755 L 131.227, 475.451 L 160.469, 487.906 L 158.484, 490.614 L 153.61, 497.292 L 148.195, 494.946 L 145.487, 494.765 L 136.823, 506.859 L 137.545, 507.22 L 134.657, 511.191 L 135.379, 512.996 L 140.433, 514.982 L 132.671, 525.812 L 103.43, 513.357 z "/>
<path style="fill:rgb(0, 0, 255);fill-opacity:0;fill-rule:evenodd;stroke:rgb(0, 219, 255);stroke-width:1;" d="M 74.3682, 501.083 L 82.3105, 490.433 L 86.4621, 492.058 L 88.9892, 492.78 L 92.4188, 488.267 L 93.5018, 488.628 L 102.347, 476.715 L 101.444, 475.271 L 95.3069, 472.563 L 102.166, 463.177 L 131.227, 475.451 L 125.09, 483.755 L 117.69, 480.686 L 106.498, 495.848 L 107.22, 496.209 L 103.791, 500.903 L 104.332, 501.805 L 110.289, 504.332 L 103.43, 513.357 L 74.3682, 501.083 z "/>
<path style="fill:rgb(255, 255, 0);fill-opacity:0;fill-rule:evenodd;stroke:rgb(0, 219, 255);stroke-width:1;" d="M 109.386, 579.964 L 117.329, 569.134 L 123.646, 571.841 L 124.729, 570.397 L 124.91, 570.036 L 124.368, 567.87 L 141.697, 544.404 L 137.184, 542.419 L 140.614, 537.726 L 141.697, 536.282 L 150.903, 540.253 L 163.357, 545.668 L 131.047, 589.17 L 109.386, 579.964 z "/>
<path style="fill:rgb(255, 0, 0);fill-opacity:0;fill-rule:evenodd;stroke:rgb(0, 219, 255);stroke-width:1;" d="M 261.191, 637.365 L 270.036, 625.09 L 276.354, 627.617 L 292.058, 605.957 L 313.899, 614.982 L 306.859, 624.729 L 298.556, 636.101 L 293.321, 643.321 L 289.17, 649.097 L 261.191, 637.365 z "/>
<path style="fill:rgb(0, 255, 0);fill-opacity:0;fill-rule:evenodd;stroke:rgb(0, 219, 255);stroke-width:1;" d="M 240.794, 401.986 L 256.859, 379.964 L 299.819, 398.014 L 283.574, 420.036 L 270.578, 414.621 L 269.314, 414.079 L 275.451, 405.596 L 275.451, 403.43 L 262.635, 398.014 L 260.108, 399.278 L 260.65, 400.181 L 255.054, 407.942 L 242.238, 402.708 L 240.794, 401.986 z "/>
<path style="fill:rgb(0, 0, 255);fill-opacity:0;fill-rule:evenodd;stroke:rgb(0, 219, 255);stroke-width:1;" d="M 136.823, 443.321 L 144.224, 433.213 L 156.318, 416.606 L 165.343, 404.332 L 168.231, 400.361 L 186.462, 407.942 L 172.202, 427.437 L 155.054, 450.903 L 136.823, 443.321 z "/>
<path style="fill:rgb(255, 255, 0);fill-opacity:0;fill-rule:evenodd;stroke:rgb(0, 219, 255);stroke-width:1;" d="M 437.184, 511.913 L 446.209, 499.458 L 466.245, 472.202 L 467.148, 470.939 L 485.56, 478.881 L 483.935, 481.047 L 471.3, 498.375 L 455.596, 519.675 L 437.184, 511.913 z "/>
<path style="fill:rgb(255, 0, 0);fill-opacity:0;fill-rule:evenodd;stroke:rgb(0, 219, 255);stroke-width:1;" d="M 541.516, 401.444 L 560.108, 375.812 L 561.011, 376.173 L 561.372, 375.632 L 561.191, 373.285 L 558.303, 372.022 L 564.26, 363.899 L 565.523, 362.094 L 590.975, 372.924 L 583.574, 383.032 L 579.783, 381.588 L 577.076, 382.31 L 573.466, 387.365 L 574.729, 387.906 L 559.386, 409.025 L 541.516, 401.444 z "/>
<path style="fill:rgb(0, 255, 0);fill-opacity:0;fill-rule:evenodd;stroke:rgb(0, 219, 255);stroke-width:1;" d="M 32.852, 696.209 L 48.7365, 674.549 L 50.361, 675.271 L 59.5668, 679.061 L 54.8736, 685.56 L 69.3141, 691.697 L 74.0072, 685.199 L 87.0036, 690.614 L 71.2996, 712.455 L 32.852, 696.209 z "/>
<path style="fill:rgb(0, 0, 255);fill-opacity:0;fill-rule:evenodd;stroke:rgb(0, 219, 255);stroke-width:1;" d="M 322.744, 225.632 L 347.112, 192.058 L 352.347, 194.224 L 354.693, 190.794 L 369.134, 196.931 L 360.289, 209.025 L 361.552, 209.567 L 343.682, 234.296 L 322.744, 225.632 z "/>
<path style="fill:rgb(255, 255, 0);fill-opacity:0;fill-rule:evenodd;stroke:rgb(0, 219, 255);stroke-width:1;" d="M 559.567, 416.245 L 583.574, 383.032 L 590.975, 372.924 L 607.942, 379.964 L 592.058, 401.625 L 576.534, 423.285 L 559.567, 416.245 z "/>
<path style="fill:rgb(255, 0, 0);fill-opacity:0;fill-rule:evenodd;stroke:rgb(0, 219, 255);stroke-width:1;" d="M 226.173, 424.549 L 242.238, 402.708 L 255.054, 407.942 L 255.957, 408.484 L 251.805, 414.26 L 266.065, 420.397 L 269.134, 419.134 L 268.592, 417.329 L 270.578, 414.621 L 283.574, 420.036 L 267.69, 442.058 L 253.249, 435.921 L 255.596, 432.852 L 258.303, 432.671 L 257.942, 430.144 L 243.141, 424.007 L 239.711, 424.91 L 240.794, 426.895 L 238.809, 429.783 L 226.173, 424.549 z "/>
<path style="fill:rgb(0, 255, 0);fill-opacity:0;fill-rule:evenodd;stroke:rgb(0, 219, 255);stroke-width:1;" d="M 136.282, 534.116 L 148.195, 517.87 L 179.242, 531.227 L 177.617, 533.394 L 181.047, 534.838 L 185.018, 529.603 L 199.819, 535.921 L 185.56, 555.054 L 169.675, 548.375 L 171.119, 546.39 L 178.52, 549.458 L 179.242, 548.556 L 172.924, 545.848 L 174.729, 543.321 L 154.874, 534.838 L 150.903, 540.253 L 141.697, 536.282 L 136.282, 534.116 z "/>
<path style="fill:rgb(0, 0, 255);fill-opacity:0;fill-rule:evenodd;stroke:rgb(0, 219, 255);stroke-width:1;" d="M 53.2491, 492.238 L 64.0794, 477.256 L 64.6209, 477.437 L 72.0217, 467.509 L 73.8267, 468.231 L 74.9097, 466.606 L 75.6318, 464.44 L 69.8556, 462.094 L 76.8953, 452.527 L 102.166, 463.177 L 95.3069, 472.563 L 90.4332, 470.578 L 88.4477, 471.661 L 87.0036, 473.827 L 88.8087, 474.729 L 70.5776, 499.458 L 53.2491, 492.238 z "/>
<path style="fill:rgb(255, 255, 0);fill-opacity:0;fill-rule:evenodd;stroke:rgb(0, 219, 255);stroke-width:1;" d="M 797.112, 425.09 L 805.054, 414.079 L 808.845, 415.704 L 809.928, 414.26 L 811.011, 414.801 L 812.274, 412.996 L 811.191, 412.635 L 828.339, 388.809 L 844.043, 395.307 L 831.588, 412.455 L 832.852, 413.177 L 831.949, 414.26 L 830.686, 413.718 L 826.895, 418.953 L 830.866, 420.578 L 820.397, 434.838 L 797.112, 425.09 z "/>
<path style="fill:rgb(255, 0, 0);fill-opacity:0;fill-rule:evenodd;stroke:rgb(0, 219, 255);stroke-width:1;" d="M 761.011, 375.271 L 773.285, 358.484 L 818.773, 377.617 L 812.455, 386.282 L 802.527, 382.13 L 796.751, 390.253 L 761.011, 375.271 z "/>
<path style="fill:rgb(0, 255, 0);fill-opacity:0;fill-rule:evenodd;stroke:rgb(0, 219, 255);stroke-width:1;" d="M 228.159, 574.188 L 260.108, 529.964 L 276.715, 537.004 L 271.3, 544.585 L 268.231, 544.946 L 251.264, 568.592 L 250, 570.217 L 251.083, 572.383 L 246.751, 578.339 L 244.765, 581.227 L 228.159, 574.188 z "/>
<path style="fill:rgb(0, 0, 255);fill-opacity:0;fill-rule:evenodd;stroke:rgb(0, 219, 255);stroke-width:1;" d="M 200.903, 406.318 L 210.65, 392.78 L 215.343, 394.765 L 219.856, 394.404 L 225.451, 386.462 L 223.285, 383.755 L 218.773, 381.769 L 228.159, 368.592 L 251.444, 378.339 L 244.585, 387.545 L 240.614, 385.921 L 238.087, 386.101 L 236.643, 388.087 L 237.726, 388.628 L 237.906, 390.072 L 220.217, 414.44 L 200.903, 406.318 z "/>
<path style="fill:rgb(255, 255, 0);fill-opacity:0;fill-rule:evenodd;stroke:rgb(0, 219, 255);stroke-width:1;" d="M 97.2924, 364.44 L 109.928, 347.112 L 109.928, 346.931 L 98.7365, 342.238 L 114.26, 320.939 L 136.823, 330.325 L 130.144, 339.35 L 108.664, 369.134 L 97.2924, 364.44 z "/>
<path style="fill:rgb(255, 0, 0);fill-opacity:0;fill-rule:evenodd;stroke:rgb(0, 219, 255);stroke-width:1;" d="M 681.588, 483.213 L 690.433, 471.119 L 704.513, 477.076 L 705.776, 479.242 L 720.939, 485.56 L 724.188, 485.379 L 747.653, 495.307 L 738.628, 507.401 L 681.588, 483.213 z "/>
<path style="fill:rgb(0, 255, 0);fill-opacity:0;fill-rule:evenodd;stroke:rgb(0, 219, 255);stroke-width:1;" d="M 181.047, 395.668 L 182.31, 394.043 L 184.477, 394.946 L 199.819, 373.827 L 202.708, 373.827 L 204.152, 371.661 L 202.708, 370.217 L 198.556, 368.412 L 205.235, 359.025 L 228.159, 368.592 L 218.773, 381.769 L 214.621, 380.144 L 210.469, 379.783 L 207.04, 384.657 L 204.513, 388.087 L 206.679, 391.155 L 210.65, 392.78 L 200.903, 406.318 L 181.949, 398.375 L 183.213, 396.751 L 181.047, 395.668 z "/>
<path style="fill:rgb(0, 0, 255);fill-opacity:0;fill-rule:evenodd;stroke:rgb(0, 219, 255);stroke-width:1;" d="M 113.718, 369.495 L 132.13, 343.863 L 134.477, 344.946 L 135.921, 342.96 L 134.296, 341.155 L 130.144, 339.35 L 136.823, 330.325 L 160.108, 340.072 L 150.903, 352.888 L 146.57, 351.083 L 141.516, 351.083 L 135.921, 358.845 L 138.448, 362.274 L 142.78, 364.079 L 133.032, 377.437 L 113.718, 369.495 z "/>
<path style="fill:rgb(255, 255, 0);fill-opacity:0;fill-rule:evenodd;stroke:rgb(0, 219, 255);stroke-width:1;" d="M 155.596, 387.004 L 165.343, 373.646 L 169.856, 375.451 L 174.729, 375.09 L 180.325, 367.329 L 177.437, 364.26 L 173.827, 362.635 L 176.534, 358.845 L 175.632, 358.484 L 182.13, 349.278 L 205.235, 359.025 L 198.556, 368.412 L 194.765, 366.787 L 192.238, 366.606 L 190.794, 368.773 L 192.419, 370.397 L 174.729, 394.946 L 155.596, 387.004 z "/>
<path style="fill:rgb(255, 0, 0);fill-opacity:0;fill-rule:evenodd;stroke:rgb(0, 219, 255);stroke-width:1;" d="M 221.841, 474.91 L 235.018, 457.04 L 237.906, 458.303 L 237.545, 458.845 L 239.35, 459.386 L 241.877, 455.957 L 239.892, 455.054 L 239.711, 455.415 L 236.282, 453.971 L 249.819, 435.379 L 267.148, 442.78 L 238.448, 481.949 L 221.841, 474.91 z "/>
<path style="fill:rgb(0, 255, 0);fill-opacity:0;fill-rule:evenodd;stroke:rgb(0, 219, 255);stroke-width:1;" d="M 227.798, 778.159 L 233.935, 769.856 L 238.989, 772.022 L 241.336, 768.592 L 240.072, 768.051 L 259.206, 741.877 L 274.729, 748.195 L 254.152, 776.534 L 257.942, 777.978 L 250.722, 787.906 L 227.798, 778.159 z "/>
<path style="fill:rgb(0, 0, 255);fill-opacity:0;fill-rule:evenodd;stroke:rgb(0, 219, 255);stroke-width:1;" d="M 181.949, 759.025 L 188.087, 750.722 L 193.321, 752.888 L 195.848, 749.458 L 194.585, 748.917 L 213.718, 722.744 L 229.061, 729.242 L 208.664, 757.401 L 211.913, 758.845 L 204.874, 768.592 L 181.949, 759.025 z "/>
<path style="fill:rgb(255, 255, 0);fill-opacity:0;fill-rule:evenodd;stroke:rgb(0, 219, 255);stroke-width:1;" d="M 204.874, 768.592 L 211.913, 758.845 L 216.065, 760.469 L 236.462, 732.31 L 251.805, 738.628 L 232.671, 764.982 L 231.047, 764.26 L 228.52, 767.69 L 233.935, 769.856 L 227.798, 778.159 L 204.874, 768.592 z "/>
<path style="fill:rgb(255, 0, 0);fill-opacity:0;fill-rule:evenodd;stroke:rgb(0, 219, 255);stroke-width:1;" d="M 133.032, 377.437 L 142.78, 364.079 L 146.931, 365.704 L 151.264, 365.523 L 157.04, 357.22 L 155.054, 354.513 L 150.903, 352.888 L 160.108, 340.072 L 182.13, 349.278 L 175.632, 358.484 L 172.383, 357.22 L 169.495, 357.22 L 168.051, 359.206 L 169.856, 359.928 L 151.444, 385.199 L 133.032, 377.437 z "/>
<path style="fill:rgb(0, 255, 0);fill-opacity:0;fill-rule:evenodd;stroke:rgb(0, 219, 255);stroke-width:1;" d="M 685.379, 278.339 L 693.682, 266.787 L 749.097, 290.072 L 740.794, 301.625 L 739.531, 301.083 L 694.765, 282.31 L 685.379, 278.339 z "/>
<path style="fill:rgb(0, 0, 255);fill-opacity:0;fill-rule:evenodd;stroke:rgb(0, 219, 255);stroke-width:1;" d="M 673.285, 494.404 L 681.588, 483.213 L 738.628, 507.401 L 730.505, 518.592 L 707.04, 508.664 L 705.415, 507.401 L 690.072, 500.722 L 687.365, 500.361 L 673.285, 494.404 z "/>
<path style="fill:rgb(255, 255, 0);fill-opacity:0;fill-rule:evenodd;stroke:rgb(0, 219, 255);stroke-width:1;" d="M 159.928, 749.639 L 166.968, 739.892 L 170.397, 741.336 L 190.794, 713.177 L 206.137, 719.495 L 187.004, 745.848 L 185.018, 744.946 L 182.491, 748.375 L 188.087, 750.722 L 181.949, 759.025 L 159.928, 749.639 z "/>
<path style="fill:rgb(255, 0, 0);fill-opacity:0;fill-rule:evenodd;stroke:rgb(0, 219, 255);stroke-width:1;" d="M 664.621, 506.318 L 673.285, 494.404 L 687.365, 500.361 L 688.267, 503.069 L 703.43, 509.386 L 707.04, 508.664 L 730.505, 518.592 L 721.841, 530.505 L 698.375, 520.578 L 696.931, 518.412 L 681.047, 511.733 L 677.978, 511.913 L 664.621, 506.318 z "/>
<path style="fill:rgb(0, 255, 0);fill-opacity:0;fill-rule:evenodd;stroke:rgb(0, 219, 255);stroke-width:1;" d="M 417.509, 638.809 L 425.271, 628.159 L 438.267, 633.574 L 484.477, 652.888 L 476.895, 663.538 L 417.509, 638.809 z "/>
<path style="fill:rgb(0, 0, 255);fill-opacity:0;fill-rule:evenodd;stroke:rgb(0, 219, 255);stroke-width:1;" d="M 30.6859, 482.671 L 49.0975, 457.581 L 50.361, 457.942 L 51.6245, 456.137 L 51.083, 453.61 L 47.4729, 451.986 L 54.1516, 442.96 L 76.8953, 452.527 L 69.8556, 462.094 L 66.6065, 460.65 L 63.7184, 461.372 L 61.9134, 463.718 L 63.1769, 464.26 L 45.1264, 488.809 L 30.6859, 482.671 z "/>
<path style="fill:rgb(255, 255, 0);fill-opacity:0;fill-rule:evenodd;stroke:rgb(0, 219, 255);stroke-width:1;" d="M 629.242, 355.596 L 637.365, 344.224 L 657.762, 352.708 L 692.78, 367.509 L 684.477, 378.7 L 629.242, 355.596 z "/>
<path style="fill:rgb(255, 0, 0);fill-opacity:0;fill-rule:evenodd;stroke:rgb(0, 219, 255);stroke-width:1;" d="M 903.791, 469.675 L 911.191, 459.386 L 915.343, 453.791 L 918.231, 449.639 L 931.408, 431.408 L 931.949, 431.588 L 935.199, 426.715 L 949.278, 432.491 L 939.531, 446.209 L 918.231, 475.632 L 903.791, 469.675 z "/>
<path style="fill:rgb(0, 255, 0);fill-opacity:0;fill-rule:evenodd;stroke:rgb(0, 219, 255);stroke-width:1;" d="M 38.2671, 343.502 L 53.0686, 322.744 L 64.4404, 327.437 L 79.7834, 305.776 L 92.2383, 310.83 L 89.3502, 314.982 L 76.7148, 332.671 L 73.4657, 337.365 L 61.5523, 332.31 L 53.2491, 343.863 L 64.8014, 348.556 L 61.7329, 353.069 L 38.2671, 343.502 z "/>
<path style="fill:rgb(0, 0, 255);fill-opacity:0;fill-rule:evenodd;stroke:rgb(0, 219, 255);stroke-width:1;" d="M 335.018, 427.256 L 343.321, 415.884 L 397.112, 438.628 L 394.765, 441.877 L 388.809, 450 L 335.018, 427.256 z "/>
<path style="fill:rgb(255, 255, 0);fill-opacity:0;fill-rule:evenodd;stroke:rgb(0, 219, 255);stroke-width:1;" d="M 23.4657, 544.043 L 32.13, 532.13 L 34.1155, 531.588 L 37.1841, 527.617 L 37.0036, 525.632 L 54.6931, 501.444 L 69.1336, 507.401 L 60.4693, 519.134 L 51.6245, 531.408 L 49.0975, 531.769 L 45.8484, 536.462 L 46.5704, 538.267 L 37.9061, 550.181 L 23.4657, 544.043 z "/>
<path style="fill:rgb(255, 0, 0);fill-opacity:0;fill-rule:evenodd;stroke:rgb(0, 219, 255);stroke-width:1;" d="M 326.895, 438.448 L 335.018, 427.256 L 388.809, 450 L 380.505, 461.191 L 331.227, 440.253 L 326.895, 438.448 z "/>
<path style="fill:rgb(0, 255, 0);fill-opacity:0;fill-rule:evenodd;stroke:rgb(0, 219, 255);stroke-width:1;" d="M 279.603, 502.888 L 287.545, 492.058 L 322.563, 506.859 L 341.516, 514.982 L 333.574, 525.632 L 279.603, 502.888 z "/>
<path style="fill:rgb(0, 0, 255);fill-opacity:0;fill-rule:evenodd;stroke:rgb(0, 219, 255);stroke-width:1;" d="M 647.834, 300.181 L 656.137, 288.809 L 677.076, 259.928 L 691.516, 265.884 L 662.274, 306.318 L 647.834, 300.181 z "/>
<path style="fill:rgb(255, 255, 0);fill-opacity:0;fill-rule:evenodd;stroke:rgb(0, 219, 255);stroke-width:1;" d="M 487.726, 443.141 L 506.318, 417.329 L 516.065, 403.791 L 530.686, 409.928 L 526.715, 415.523 L 523.646, 419.856 L 516.245, 429.964 L 509.747, 438.989 L 502.166, 449.278 L 487.726, 443.141 z "/>
<path style="fill:rgb(255, 0, 0);fill-opacity:0;fill-rule:evenodd;stroke:rgb(0, 219, 255);stroke-width:1;" d="M 665.162, 313.177 L 673.285, 301.805 L 723.646, 322.924 L 715.523, 334.116 L 703.069, 329.061 L 681.047, 319.675 L 668.953, 314.621 L 665.162, 313.177 z "/>
<path style="fill:rgb(0, 255, 0);fill-opacity:0;fill-rule:evenodd;stroke:rgb(0, 219, 255);stroke-width:1;" d="M 831.047, 93.1408 L 840.072, 80.8664 L 886.643, 100.542 L 878.159, 111.913 L 863.718, 105.776 L 862.996, 106.679 L 831.047, 93.1408 z "/>
<path style="fill:rgb(0, 0, 255);fill-opacity:0;fill-rule:evenodd;stroke:rgb(0, 219, 255);stroke-width:1;" d="M 196.751, 617.69 L 212.996, 595.307 L 228.339, 601.805 L 226.354, 604.513 L 237.184, 609.025 L 234.838, 612.274 L 229.783, 619.314 L 223.105, 628.52 L 196.751, 617.69 z "/>
<path style="fill:rgb(255, 255, 0);fill-opacity:0;fill-rule:evenodd;stroke:rgb(0, 219, 255);stroke-width:1;" d="M 673.285, 301.805 L 681.047, 290.975 L 686.643, 293.321 L 731.408, 312.094 L 723.646, 322.924 L 673.285, 301.805 z "/>
<path style="fill:rgb(255, 0, 0);fill-opacity:0;fill-rule:evenodd;stroke:rgb(0, 219, 255);stroke-width:1;" d="M 504.874, 542.058 L 509.386, 535.74 L 513.357, 530.325 L 558.845, 549.639 L 550.181, 561.191 L 504.874, 542.058 z "/>
<path style="fill:rgb(0, 255, 0);fill-opacity:0;fill-rule:evenodd;stroke:rgb(0, 219, 255);stroke-width:1;" d="M 238.989, 635.199 L 245.668, 625.993 L 248.375, 625.271 L 251.264, 621.3 L 250.722, 618.953 L 253.069, 615.704 L 256.137, 616.968 L 262.455, 608.123 L 259.386, 606.859 L 267.329, 596.029 L 281.408, 601.805 L 277.437, 607.22 L 277.798, 609.025 L 274.729, 613.357 L 271.48, 611.913 L 264.982, 620.758 L 268.412, 622.202 L 266.065, 625.451 L 263.538, 626.534 L 260.65, 630.505 L 261.011, 632.491 L 254.332, 641.697 L 238.989, 635.199 z "/>
<path style="fill:rgb(0, 0, 255);fill-opacity:0;fill-rule:evenodd;stroke:rgb(0, 219, 255);stroke-width:1;" d="M 223.105, 628.52 L 229.783, 619.314 L 232.852, 618.953 L 235.379, 615.343 L 235.74, 614.801 L 234.838, 612.274 L 237.184, 609.025 L 241.516, 610.83 L 247.834, 601.986 L 243.502, 600.361 L 246.751, 596.029 L 250, 595.126 L 253.61, 590.253 L 267.329, 596.029 L 259.386, 606.859 L 255.776, 605.415 L 255.596, 605.776 L 249.458, 614.26 L 253.069, 615.704 L 250.722, 618.953 L 247.653, 620.036 L 244.765, 623.827 L 245.668, 625.993 L 238.989, 635.199 L 223.105, 628.52 z "/>
<path style="fill:rgb(255, 255, 0);fill-opacity:0;fill-rule:evenodd;stroke:rgb(0, 219, 255);stroke-width:1;" d="M 446.209, 622.383 L 454.332, 611.191 L 500.722, 630.505 L 492.599, 641.697 L 446.209, 622.383 z "/>
<path style="fill:rgb(255, 0, 0);fill-opacity:0;fill-rule:evenodd;stroke:rgb(0, 219, 255);stroke-width:1;" d="M 438.267, 633.574 L 446.209, 622.383 L 492.599, 641.697 L 484.477, 652.888 L 438.267, 633.574 z "/>
<path style="fill:rgb(0, 255, 0);fill-opacity:0;fill-rule:evenodd;stroke:rgb(0, 219, 255);stroke-width:1;" d="M 848.195, 70.2166 L 856.318, 59.2058 L 861.011, 61.1913 L 902.527, 78.7004 L 894.404, 89.7112 L 848.195, 70.2166 z "/>
<path style="fill:rgb(0, 0, 255);fill-opacity:0;fill-rule:evenodd;stroke:rgb(0, 219, 255);stroke-width:1;" d="M 442.96, 277.076 L 451.805, 264.982 L 451.986, 264.982 L 494.404, 283.032 L 485.74, 294.765 L 485.56, 294.946 L 442.96, 277.076 z "/>
<path style="fill:rgb(255, 255, 0);fill-opacity:0;fill-rule:evenodd;stroke:rgb(0, 219, 255);stroke-width:1;" d="M 513.357, 530.325 L 515.704, 527.076 L 521.48, 519.314 L 566.968, 538.448 L 558.845, 549.639 L 513.357, 530.325 z "/>
<path style="fill:rgb(255, 0, 0);fill-opacity:0;fill-rule:evenodd;stroke:rgb(0, 219, 255);stroke-width:1;" d="M 791.697, 506.859 L 811.372, 480.144 L 807.22, 478.52 L 815.523, 466.968 L 834.296, 474.91 L 833.032, 476.534 L 826.534, 485.56 L 823.466, 484.296 L 821.841, 485.199 L 802.527, 511.552 L 791.697, 506.859 z "/>
<path style="fill:rgb(0, 255, 0);fill-opacity:0;fill-rule:evenodd;stroke:rgb(0, 219, 255);stroke-width:1;" d="M 840.072, 80.8664 L 847.834, 70.0361 L 848.195, 70.2166 L 894.404, 89.7112 L 886.643, 100.542 L 840.072, 80.8664 z "/>
<path style="fill:rgb(0, 0, 255);fill-opacity:0;fill-rule:evenodd;stroke:rgb(0, 219, 255);stroke-width:1;" d="M 644.404, 344.946 L 650.542, 336.462 L 662.094, 341.336 L 661.552, 342.238 L 664.44, 343.321 L 665.704, 341.877 L 687.184, 350.903 L 700.542, 356.498 L 692.78, 367.509 L 657.762, 352.708 L 659.386, 350.542 L 656.318, 349.278 L 655.957, 349.819 L 644.404, 344.946 z "/>
<path style="fill:rgb(255, 255, 0);fill-opacity:0;fill-rule:evenodd;stroke:rgb(0, 219, 255);stroke-width:1;" d="M 686.643, 293.321 L 694.765, 282.31 L 739.531, 301.083 L 731.408, 312.094 L 686.643, 293.321 z "/>
<path style="fill:rgb(255, 0, 0);fill-opacity:0;fill-rule:evenodd;stroke:rgb(0, 219, 255);stroke-width:1;" d="M 530.325, 461.011 L 537.726, 450.722 L 544.224, 441.697 L 545.848, 439.531 L 549.097, 440.975 L 549.097, 438.628 L 559.747, 423.646 L 570.939, 428.339 L 560.83, 442.238 L 557.581, 444.585 L 560.289, 445.848 L 544.765, 467.148 L 530.325, 461.011 z "/>
<path style="fill:rgb(0, 255, 0);fill-opacity:0;fill-rule:evenodd;stroke:rgb(0, 219, 255);stroke-width:1;" d="M 223.105, 718.773 L 237.004, 699.639 L 254.513, 675.632 L 265.884, 680.505 L 264.26, 682.671 L 253.971, 696.751 L 234.477, 723.466 L 223.105, 718.773 z "/>
<path style="fill:rgb(0, 0, 255);fill-opacity:0;fill-rule:evenodd;stroke:rgb(0, 219, 255);stroke-width:1;" d="M 529.242, 508.664 L 529.783, 507.942 L 537.184, 497.834 L 582.491, 517.148 L 574.729, 527.798 L 529.242, 508.664 z "/>
<path style="fill:rgb(255, 255, 0);fill-opacity:0;fill-rule:evenodd;stroke:rgb(0, 219, 255);stroke-width:1;" d="M 294.946, 213.177 L 310.108, 192.599 L 314.079, 194.224 L 318.412, 188.087 L 328.7, 192.419 L 333.574, 194.585 L 314.079, 221.3 L 294.946, 213.177 z "/>
<path style="fill:rgb(255, 0, 0);fill-opacity:0;fill-rule:evenodd;stroke:rgb(0, 219, 255);stroke-width:1;" d="M 612.635, 348.556 L 629.061, 325.993 L 632.13, 327.256 L 635.74, 322.202 L 632.852, 320.939 L 640.433, 310.469 L 653.069, 315.884 L 646.751, 324.549 L 643.682, 325.451 L 639.892, 330.505 L 643.141, 331.949 L 626.715, 354.513 L 612.635, 348.556 z "/>
<path style="fill:rgb(0, 255, 0);fill-opacity:0;fill-rule:evenodd;stroke:rgb(0, 219, 255);stroke-width:1;" d="M 653.069, 336.643 L 661.191, 325.271 L 673.285, 330.325 L 674.007, 332.13 L 693.141, 340.253 L 695.487, 339.531 L 708.845, 345.307 L 700.542, 356.498 L 687.184, 350.903 L 686.823, 349.097 L 667.509, 340.975 L 665.162, 341.697 L 653.069, 336.643 z "/>
<path style="fill:rgb(0, 0, 255);fill-opacity:0;fill-rule:evenodd;stroke:rgb(0, 219, 255);stroke-width:1;" d="M 340.975, 605.415 L 351.625, 590.794 L 353.249, 591.516 L 355.957, 587.726 L 354.332, 587.004 L 359.206, 580.325 L 364.079, 573.466 L 379.783, 579.964 L 370.036, 593.502 L 367.87, 592.599 L 365.162, 596.57 L 367.329, 597.292 L 356.679, 612.094 L 340.975, 605.415 z "/>
<path style="fill:rgb(255, 255, 0);fill-opacity:0;fill-rule:evenodd;stroke:rgb(0, 219, 255);stroke-width:1;" d="M 567.69, 464.26 L 576.173, 452.347 L 617.329, 469.675 L 608.845, 481.408 L 567.69, 464.26 z "/>
<path style="fill:rgb(255, 0, 0);fill-opacity:0;fill-rule:evenodd;stroke:rgb(0, 219, 255);stroke-width:1;" d="M 521.48, 519.314 L 529.242, 508.664 L 574.729, 527.798 L 566.968, 538.448 L 521.48, 519.314 z "/>
<path style="fill:rgb(0, 255, 0);fill-opacity:0;fill-rule:evenodd;stroke:rgb(0, 219, 255);stroke-width:1;" d="M 356.679, 612.094 L 367.329, 597.292 L 369.134, 598.195 L 372.022, 594.224 L 370.036, 593.502 L 379.783, 579.964 L 395.307, 586.462 L 385.56, 600 L 383.574, 599.097 L 380.686, 603.069 L 382.852, 603.971 L 372.202, 618.592 L 356.679, 612.094 z "/>
<path style="fill:rgb(0, 0, 255);fill-opacity:0;fill-rule:evenodd;stroke:rgb(0, 219, 255);stroke-width:1;" d="M 294.946, 586.282 L 305.596, 571.48 L 307.401, 572.383 L 310.108, 568.412 L 308.303, 567.69 L 318.051, 554.152 L 333.574, 560.65 L 323.827, 574.188 L 321.841, 573.285 L 319.134, 577.256 L 320.939, 578.159 L 310.469, 592.78 L 294.946, 586.282 z "/>
<path style="fill:rgb(255, 255, 0);fill-opacity:0;fill-rule:evenodd;stroke:rgb(0, 219, 255);stroke-width:1;" d="M 570.397, 330.866 L 579.422, 318.592 L 581.047, 319.134 L 584.116, 314.982 L 582.491, 314.26 L 588.989, 305.235 L 591.336, 304.332 L 599.458, 293.141 L 609.928, 297.473 L 601.805, 308.664 L 602.708, 311.011 L 584.116, 336.643 L 570.397, 330.866 z "/>
<path style="fill:rgb(255, 0, 0);fill-opacity:0;fill-rule:evenodd;stroke:rgb(0, 219, 255);stroke-width:1;" d="M 584.116, 336.643 L 602.708, 311.011 L 605.596, 310.289 L 613.718, 299.097 L 624.007, 303.43 L 615.884, 314.621 L 616.606, 316.968 L 610.108, 325.812 L 607.581, 324.729 L 604.513, 329.061 L 607.04, 330.144 L 598.014, 342.419 L 584.116, 336.643 z "/>
<path style="fill:rgb(0, 255, 0);fill-opacity:0;fill-rule:evenodd;stroke:rgb(0, 219, 255);stroke-width:1;" d="M 693.502, 138.809 L 697.292, 133.574 L 698.556, 134.296 L 700.722, 131.227 L 697.473, 129.964 L 713.899, 107.401 L 730.686, 114.621 L 714.26, 137.004 L 711.011, 135.74 L 709.025, 138.448 L 710.469, 139.17 L 706.679, 144.404 L 693.502, 138.809 z "/>
<path style="fill:rgb(0, 0, 255);fill-opacity:0;fill-rule:evenodd;stroke:rgb(0, 219, 255);stroke-width:1;" d="M 310.469, 592.78 L 320.939, 578.159 L 322.383, 578.881 L 325.451, 574.729 L 323.827, 574.188 L 333.574, 560.65 L 348.917, 567.148 L 344.043, 573.827 L 339.17, 580.505 L 337.365, 579.783 L 334.477, 583.755 L 336.462, 584.477 L 325.812, 599.097 L 310.469, 592.78 z "/>
<path style="fill:rgb(255, 255, 0);fill-opacity:0;fill-rule:evenodd;stroke:rgb(0, 219, 255);stroke-width:1;" d="M 264.801, 573.646 L 269.856, 566.606 L 275.993, 558.123 L 287.906, 541.697 L 303.069, 548.014 L 293.321, 561.372 L 291.155, 560.469 L 288.448, 564.44 L 290.614, 565.343 L 279.964, 579.964 L 264.801, 573.646 z "/>
<path style="fill:rgb(255, 0, 0);fill-opacity:0;fill-rule:evenodd;stroke:rgb(0, 219, 255);stroke-width:1;" d="M 658.484, 514.982 L 664.621, 506.318 L 677.978, 511.913 L 679.242, 514.26 L 684.657, 516.606 L 685.379, 515.704 L 688.448, 516.968 L 687.906, 517.87 L 696.029, 521.3 L 696.931, 520.036 L 698.375, 520.578 L 721.841, 530.505 L 715.523, 538.989 L 658.484, 514.982 z "/>
<path style="fill:rgb(0, 255, 0);fill-opacity:0;fill-rule:evenodd;stroke:rgb(0, 219, 255);stroke-width:1;" d="M 587.545, 165.884 L 609.928, 135.199 L 623.285, 140.794 L 617.329, 148.917 L 620.036, 150 L 603.61, 172.563 L 587.545, 165.884 z "/>
<path style="fill:rgb(0, 0, 255);fill-opacity:0;fill-rule:evenodd;stroke:rgb(0, 219, 255);stroke-width:1;" d="M 725.812, 152.347 L 729.783, 147.112 L 731.047, 147.834 L 733.032, 144.946 L 730.144, 143.863 L 746.57, 121.3 L 763.177, 128.339 L 746.751, 150.722 L 743.141, 149.278 L 741.155, 151.805 L 742.419, 152.527 L 738.628, 157.762 L 725.812, 152.347 z "/>
<path style="fill:rgb(255, 255, 0);fill-opacity:0;fill-rule:evenodd;stroke:rgb(0, 219, 255);stroke-width:1;" d="M 300.542, 661.011 L 308.123, 650.361 L 310.83, 649.278 L 314.079, 644.585 L 314.079, 642.238 L 322.202, 631.047 L 325.812, 632.671 L 327.617, 630.144 L 335.379, 633.213 L 333.574, 635.74 L 337.906, 637.726 L 329.422, 649.278 L 325.993, 650 L 322.744, 654.332 L 324.188, 656.679 L 316.245, 667.509 L 300.542, 661.011 z "/>
<path style="fill:rgb(255, 0, 0);fill-opacity:0;fill-rule:evenodd;stroke:rgb(0, 219, 255);stroke-width:1;" d="M 758.123, 166.065 L 762.094, 160.65 L 763.538, 161.372 L 765.523, 158.664 L 762.274, 157.401 L 778.7, 134.838 L 794.585, 141.516 L 772.202, 172.022 L 758.123, 166.065 z "/>
<path style="fill:rgb(0, 255, 0);fill-opacity:0;fill-rule:evenodd;stroke:rgb(0, 219, 255);stroke-width:1;" d="M 331.769, 674.007 L 339.711, 663.177 L 341.877, 662.094 L 344.946, 657.942 L 344.946, 655.776 L 353.43, 644.224 L 356.859, 645.668 L 358.845, 643.141 L 366.606, 646.39 L 364.801, 648.917 L 368.953, 650.542 L 360.469, 662.274 L 357.401, 663.177 L 354.332, 667.329 L 355.054, 669.675 L 347.292, 680.505 L 331.769, 674.007 z "/>
<path style="fill:rgb(0, 0, 255);fill-opacity:0;fill-rule:evenodd;stroke:rgb(0, 219, 255);stroke-width:1;" d="M 433.394, 568.051 L 456.859, 536.101 L 471.3, 542.238 L 469.314, 545.126 L 448.014, 574.188 L 433.394, 568.051 z "/>
<path style="fill:rgb(255, 255, 0);fill-opacity:0;fill-rule:evenodd;stroke:rgb(0, 219, 255);stroke-width:1;" d="M 316.245, 667.509 L 324.188, 656.679 L 326.715, 655.596 L 329.603, 651.444 L 329.422, 649.278 L 337.906, 637.726 L 341.697, 639.35 L 343.682, 636.823 L 351.264, 639.892 L 349.458, 642.419 L 353.43, 644.224 L 344.946, 655.776 L 342.058, 656.679 L 338.989, 660.65 L 339.711, 663.177 L 331.769, 674.007 L 316.245, 667.509 z "/>
<path style="fill:rgb(255, 0, 0);fill-opacity:0;fill-rule:evenodd;stroke:rgb(0, 219, 255);stroke-width:1;" d="M 716.606, 220.217 L 733.032, 197.653 L 735.74, 198.917 L 741.697, 190.794 L 754.874, 196.39 L 732.491, 226.895 L 716.606, 220.217 z "/>
<path style="fill:rgb(0, 255, 0);fill-opacity:0;fill-rule:evenodd;stroke:rgb(0, 219, 255);stroke-width:1;" d="M 661.191, 325.271 L 668.953, 314.621 L 681.047, 319.675 L 681.769, 321.3 L 701.083, 329.422 L 703.069, 329.061 L 715.523, 334.116 L 716.606, 334.657 L 708.845, 345.307 L 695.487, 339.531 L 694.946, 338.087 L 675.632, 329.964 L 673.285, 330.325 L 661.191, 325.271 z "/>
<path style="fill:rgb(0, 0, 255);fill-opacity:0;fill-rule:evenodd;stroke:rgb(0, 219, 255);stroke-width:1;" d="M 619.675, 179.422 L 636.282, 156.859 L 638.989, 157.942 L 644.946, 150 L 655.596, 154.513 L 649.819, 162.635 L 652.708, 163.899 L 636.282, 186.462 L 619.675, 179.422 z "/>
<path style="fill:rgb(255, 255, 0);fill-opacity:0;fill-rule:evenodd;stroke:rgb(0, 219, 255);stroke-width:1;" d="M 627.978, 110.65 L 650, 80.5054 L 665.884, 87.1841 L 649.278, 109.567 L 646.39, 108.303 L 644.404, 111.011 L 645.848, 111.552 L 642.238, 116.606 L 627.978, 110.65 z "/>
<path style="fill:rgb(255, 0, 0);fill-opacity:0;fill-rule:evenodd;stroke:rgb(0, 219, 255);stroke-width:1;" d="M 868.773, 50.722 L 876.895, 39.7112 L 918.412, 57.2202 L 910.289, 68.231 L 868.773, 50.722 z "/>
<path style="fill:rgb(0, 255, 0);fill-opacity:0;fill-rule:evenodd;stroke:rgb(0, 219, 255);stroke-width:1;" d="M 37.9061, 550.181 L 46.5704, 538.267 L 51.6245, 531.408 L 60.4693, 519.134 L 75.4513, 525.632 L 72.7437, 529.242 L 61.1913, 544.946 L 53.0686, 555.776 L 37.9061, 550.181 z "/>
<path style="fill:rgb(0, 0, 255);fill-opacity:0;fill-rule:evenodd;stroke:rgb(0, 219, 255);stroke-width:1;" d="M 347.292, 680.505 L 355.054, 669.675 L 357.22, 668.592 L 360.289, 664.26 L 360.469, 662.274 L 368.953, 650.542 L 372.383, 651.986 L 373.827, 649.819 L 381.588, 653.069 L 379.964, 655.235 L 384.296, 657.04 L 375.812, 668.773 L 372.563, 669.495 L 369.495, 673.646 L 369.856, 675.812 L 370.578, 675.993 L 362.635, 687.004 L 347.292, 680.505 z "/>
<path style="fill:rgb(255, 255, 0);fill-opacity:0;fill-rule:evenodd;stroke:rgb(0, 219, 255);stroke-width:1;" d="M 700, 213.357 L 716.426, 190.794 L 720.036, 192.238 L 725.812, 184.116 L 735.921, 188.448 L 729.964, 196.39 L 733.032, 197.653 L 716.606, 220.217 L 700, 213.357 z "/>
<path style="fill:rgb(255, 0, 0);fill-opacity:0;fill-rule:evenodd;stroke:rgb(0, 219, 255);stroke-width:1;" d="M 645.668, 118.051 L 649.278, 112.996 L 650.361, 113.538 L 652.166, 110.83 L 649.278, 109.567 L 665.884, 87.1841 L 682.13, 94.0433 L 665.704, 116.426 L 662.635, 115.162 L 660.65, 117.87 L 661.913, 118.412 L 658.303, 123.285 L 645.668, 118.051 z "/>
<path style="fill:rgb(0, 255, 0);fill-opacity:0;fill-rule:evenodd;stroke:rgb(0, 219, 255);stroke-width:1;" d="M 876.895, 39.7112 L 884.838, 28.7004 L 926.354, 46.2094 L 918.412, 57.2202 L 876.895, 39.7112 z "/>
<path style="fill:rgb(0, 0, 255);fill-opacity:0;fill-rule:evenodd;stroke:rgb(0, 219, 255);stroke-width:1;" d="M 652.166, 193.141 L 668.592, 170.578 L 671.48, 171.661 L 677.437, 163.538 L 687.906, 168.051 L 682.13, 176.173 L 685.018, 177.437 L 668.592, 200 L 652.166, 193.141 z "/>
<path style="fill:rgb(255, 255, 0);fill-opacity:0;fill-rule:evenodd;stroke:rgb(0, 219, 255);stroke-width:1;" d="M 709.386, 145.487 L 713.177, 140.253 L 714.982, 140.975 L 716.968, 138.267 L 714.26, 137.004 L 730.686, 114.621 L 746.57, 121.3 L 730.144, 143.863 L 726.895, 142.419 L 724.91, 145.126 L 726.354, 145.668 L 722.383, 150.903 L 709.386, 145.487 z "/>
<path style="fill:rgb(255, 0, 0);fill-opacity:0;fill-rule:evenodd;stroke:rgb(0, 219, 255);stroke-width:1;" d="M 285.199, 654.513 L 289.17, 649.097 L 293.321, 643.321 L 295.668, 642.419 L 298.917, 638.087 L 298.556, 636.101 L 306.859, 624.729 L 311.011, 626.534 L 312.816, 623.827 L 319.675, 626.715 L 317.87, 629.242 L 322.202, 631.047 L 314.079, 642.238 L 311.011, 643.502 L 307.762, 648.014 L 308.123, 650.361 L 300.542, 661.011 L 285.199, 654.513 z "/>
<path style="fill:rgb(0, 255, 0);fill-opacity:0;fill-rule:evenodd;stroke:rgb(0, 219, 255);stroke-width:1;" d="M 677.978, 131.769 L 681.588, 126.715 L 682.491, 127.076 L 684.477, 124.368 L 681.408, 123.105 L 697.834, 100.722 L 713.899, 107.401 L 697.473, 129.964 L 694.946, 128.881 L 692.96, 131.588 L 694.404, 132.13 L 690.794, 137.184 L 677.978, 131.769 z "/>
<path style="fill:rgb(0, 0, 255);fill-opacity:0;fill-rule:evenodd;stroke:rgb(0, 219, 255);stroke-width:1;" d="M 41.1552, 629.061 L 46.0289, 622.383 L 45.1264, 620.217 L 63.3574, 595.126 L 77.9783, 601.444 L 59.9278, 626.173 L 56.4982, 626.715 L 51.6245, 633.394 L 41.1552, 629.061 z "/>
<path style="fill:rgb(255, 255, 0);fill-opacity:0;fill-rule:evenodd;stroke:rgb(0, 219, 255);stroke-width:1;" d="M 603.61, 172.563 L 620.036, 150 L 622.924, 151.264 L 628.881, 143.141 L 639.531, 147.653 L 633.574, 155.776 L 636.282, 156.859 L 619.675, 179.422 L 603.61, 172.563 z "/>
<path style="fill:rgb(255, 0, 0);fill-opacity:0;fill-rule:evenodd;stroke:rgb(0, 219, 255);stroke-width:1;" d="M 661.733, 124.91 L 665.343, 119.856 L 666.426, 120.217 L 668.412, 117.69 L 665.704, 116.426 L 682.13, 94.0433 L 697.834, 100.722 L 681.408, 123.105 L 678.7, 122.022 L 676.715, 124.549 L 678.159, 125.271 L 674.549, 130.325 L 661.733, 124.91 z "/>
<path style="fill:rgb(0, 255, 0);fill-opacity:0;fill-rule:evenodd;stroke:rgb(0, 219, 255);stroke-width:1;" d="M 742.058, 159.206 L 746.029, 153.971 L 747.473, 154.513 L 749.278, 151.805 L 746.751, 150.722 L 763.177, 128.339 L 778.7, 134.838 L 762.274, 157.401 L 759.386, 156.137 L 757.401, 158.664 L 759.025, 159.386 L 755.235, 164.801 L 742.058, 159.206 z "/>
<path style="fill:rgb(0, 0, 255);fill-opacity:0;fill-rule:evenodd;stroke:rgb(0, 219, 255);stroke-width:1;" d="M 636.282, 186.462 L 652.708, 163.899 L 655.235, 164.982 L 661.191, 156.859 L 671.841, 161.372 L 665.884, 169.314 L 668.592, 170.578 L 652.166, 193.141 L 636.282, 186.462 z "/>
<path style="fill:rgb(255, 255, 0);fill-opacity:0;fill-rule:evenodd;stroke:rgb(0, 219, 255);stroke-width:1;" d="M 563.357, 114.621 L 572.202, 102.527 L 601.444, 114.801 L 600, 116.787 L 610.65, 121.3 L 604.693, 129.422 L 594.043, 125.09 L 592.599, 126.895 L 563.357, 114.621 z "/>
<path style="fill:rgb(255, 0, 0);fill-opacity:0;fill-rule:evenodd;stroke:rgb(0, 219, 255);stroke-width:1;" d="M 362.635, 687.004 L 370.578, 675.993 L 372.924, 675.271 L 375.993, 670.939 L 375.812, 668.773 L 384.296, 657.04 L 388.087, 658.664 L 389.531, 656.498 L 396.931, 659.567 L 395.307, 661.733 L 399.097, 663.177 L 390.614, 674.91 L 388.448, 675.993 L 385.199, 680.325 L 385.379, 682.31 L 377.437, 693.141 L 362.635, 687.004 z "/>
<path style="fill:rgb(0, 255, 0);fill-opacity:0;fill-rule:evenodd;stroke:rgb(0, 219, 255);stroke-width:1;" d="M 546.39, 137.906 L 555.235, 125.812 L 584.477, 138.087 L 583.213, 139.892 L 593.863, 144.404 L 587.906, 152.527 L 577.256, 148.014 L 575.632, 150.361 L 546.39, 137.906 z "/>
<path style="fill:rgb(0, 0, 255);fill-opacity:0;fill-rule:evenodd;stroke:rgb(0, 219, 255);stroke-width:1;" d="M 790.433, 161.913 L 797.292, 152.527 L 803.61, 155.235 L 802.708, 156.318 L 805.776, 157.762 L 807.22, 155.776 L 837.545, 168.592 L 828.881, 180.325 L 798.556, 167.509 L 800.361, 165.162 L 797.292, 163.899 L 796.751, 164.621 L 790.433, 161.913 z "/>
<path style="fill:rgb(255, 255, 0);fill-opacity:0;fill-rule:evenodd;stroke:rgb(0, 219, 255);stroke-width:1;" d="M 889.892, 463.899 L 897.473, 453.61 L 899.639, 453.61 L 902.347, 449.639 L 901.444, 448.014 L 904.874, 443.321 L 907.581, 444.585 L 912.094, 438.448 L 909.206, 437.184 L 916.426, 427.437 L 929.061, 432.671 L 922.744, 441.516 L 921.3, 440.975 L 915.704, 448.556 L 918.231, 449.639 L 915.343, 453.791 L 912.996, 454.152 L 910.289, 458.123 L 911.191, 459.386 L 903.791, 469.675 L 889.892, 463.899 z "/>
<path style="fill:rgb(255, 0, 0);fill-opacity:0;fill-rule:evenodd;stroke:rgb(0, 219, 255);stroke-width:1;" d="M 668.592, 200 L 685.018, 177.437 L 687.726, 178.52 L 693.682, 170.578 L 703.971, 174.91 L 698.014, 183.032 L 700.903, 184.116 L 684.296, 206.679 L 668.592, 200 z "/>
<path style="fill:rgb(0, 255, 0);fill-opacity:0;fill-rule:evenodd;stroke:rgb(0, 219, 255);stroke-width:1;" d="M 26.7148, 623.285 L 31.769, 616.426 L 30.6859, 614.26 L 37.1841, 605.235 L 40.7942, 606.859 L 43.3213, 603.43 L 39.5307, 601.986 L 48.917, 589.17 L 63.3574, 595.126 L 45.1264, 620.217 L 42.2383, 620.939 L 37.1841, 627.798 L 26.7148, 623.285 z "/>
<path style="fill:rgb(0, 0, 255);fill-opacity:0;fill-rule:evenodd;stroke:rgb(0, 219, 255);stroke-width:1;" d="M 684.296, 206.679 L 700.903, 184.116 L 703.43, 185.199 L 709.206, 177.076 L 720.036, 181.769 L 714.26, 189.711 L 716.426, 190.794 L 700, 213.357 L 684.296, 206.679 z "/>
<path style="fill:rgb(255, 255, 0);fill-opacity:0;fill-rule:evenodd;stroke:rgb(0, 219, 255);stroke-width:1;" d="M 756.137, 208.845 L 762.996, 199.458 L 769.134, 202.166 L 768.592, 202.888 L 771.841, 204.332 L 773.105, 202.347 L 803.43, 215.162 L 794.765, 226.895 L 764.621, 214.079 L 766.245, 211.913 L 762.996, 210.469 L 762.274, 211.552 L 756.137, 208.845 z "/>
<path style="fill:rgb(255, 0, 0);fill-opacity:0;fill-rule:evenodd;stroke:rgb(0, 219, 255);stroke-width:1;" d="M 764.801, 196.931 L 771.48, 187.906 L 777.617, 190.433 L 777.076, 191.336 L 780.325, 192.599 L 781.769, 190.614 L 812.094, 203.43 L 803.43, 215.162 L 773.105, 202.347 L 774.729, 200.361 L 771.48, 198.917 L 771.119, 199.639 L 764.801, 196.931 z "/>
<path style="fill:rgb(0, 255, 0);fill-opacity:0;fill-rule:evenodd;stroke:rgb(0, 219, 255);stroke-width:1;" d="M 861.011, 61.1913 L 865.704, 54.6931 L 868.773, 50.722 L 910.289, 68.231 L 902.527, 78.7004 L 861.011, 61.1913 z "/>
<path style="fill:rgb(0, 0, 255);fill-opacity:0;fill-rule:evenodd;stroke:rgb(0, 219, 255);stroke-width:1;" d="M 747.653, 220.397 L 754.513, 211.191 L 760.65, 213.718 L 760.108, 214.621 L 763.177, 215.884 L 764.621, 214.079 L 794.765, 226.895 L 786.282, 238.628 L 755.957, 225.812 L 757.581, 223.827 L 754.332, 222.383 L 753.971, 223.105 L 747.653, 220.397 z "/>
<path style="fill:rgb(255, 255, 0);fill-opacity:0;fill-rule:evenodd;stroke:rgb(0, 219, 255);stroke-width:1;" d="M 773.285, 185.379 L 780.144, 175.993 L 786.462, 178.7 L 785.74, 179.603 L 788.809, 180.866 L 790.253, 179.061 L 820.578, 191.697 L 812.094, 203.43 L 781.769, 190.614 L 783.213, 188.628 L 780.144, 187.184 L 779.422, 188.087 L 773.285, 185.379 z "/>
<path style="fill:rgb(255, 0, 0);fill-opacity:0;fill-rule:evenodd;stroke:rgb(0, 219, 255);stroke-width:1;" d="M 932.31, 481.588 L 941.697, 468.592 L 946.209, 470.578 L 950.181, 465.162 L 945.487, 463.177 L 953.61, 452.166 L 957.22, 453.61 L 959.567, 450.361 L 966.787, 453.43 L 964.44, 456.679 L 968.412, 458.303 L 966.606, 460.65 L 949.639, 484.116 L 946.931, 487.726 L 932.31, 481.588 z "/>
<path style="fill:rgb(0, 255, 0);fill-opacity:0;fill-rule:evenodd;stroke:rgb(0, 219, 255);stroke-width:1;" d="M 572.202, 102.527 L 580.686, 90.7942 L 610.108, 103.069 L 608.664, 105.054 L 619.314, 109.567 L 613.357, 117.69 L 602.708, 113.177 L 601.444, 114.801 L 572.202, 102.527 z "/>
<path style="fill:rgb(0, 0, 255);fill-opacity:0;fill-rule:evenodd;stroke:rgb(0, 219, 255);stroke-width:1;" d="M 580.686, 90.7942 L 589.35, 79.0614 L 618.592, 91.3357 L 617.329, 93.1408 L 627.978, 97.6534 L 622.202, 105.596 L 611.552, 101.083 L 610.108, 103.069 L 580.686, 90.7942 z "/>
<path style="fill:rgb(255, 255, 0);fill-opacity:0;fill-rule:evenodd;stroke:rgb(0, 219, 255);stroke-width:1;" d="M 781.769, 173.646 L 788.628, 164.44 L 794.946, 167.148 L 794.404, 167.87 L 797.473, 169.314 L 798.556, 167.509 L 828.881, 180.325 L 820.578, 191.697 L 790.253, 179.061 L 791.877, 176.895 L 788.809, 175.632 L 788.087, 176.354 L 781.769, 173.646 z "/>
<path style="fill:rgb(255, 0, 0);fill-opacity:0;fill-rule:evenodd;stroke:rgb(0, 219, 255);stroke-width:1;" d="M 55.9567, 635.018 L 60.4693, 628.881 L 59.9278, 626.173 L 77.9783, 601.444 L 92.0578, 607.22 L 86.6426, 614.801 L 83.7545, 618.773 L 80.8664, 617.509 L 78.8809, 620.217 L 81.769, 621.48 L 81.2274, 622.022 L 73.4657, 632.671 L 70.5776, 633.213 L 66.065, 639.35 L 55.9567, 635.018 z "/>
<path style="fill:rgb(0, 255, 0);fill-opacity:0;fill-rule:evenodd;stroke:rgb(0, 219, 255);stroke-width:1;" d="M 407.04, 693.502 L 415.704, 681.408 L 451.444, 696.39 L 442.78, 708.303 L 407.04, 693.502 z "/>
<path style="fill:rgb(0, 0, 255);fill-opacity:0;fill-rule:evenodd;stroke:rgb(0, 219, 255);stroke-width:1;" d="M 850.181, 48.1949 L 869.314, 22.0217 L 884.838, 28.7004 L 876.895, 39.7112 L 868.773, 50.722 L 865.704, 54.6931 L 862.274, 53.2491 L 860.65, 55.4152 L 852.527, 51.9856 L 854.152, 49.8195 L 850.181, 48.1949 z "/>
<path style="fill:rgb(255, 255, 0);fill-opacity:0;fill-rule:evenodd;stroke:rgb(0, 219, 255);stroke-width:1;" d="M 589.35, 79.0614 L 597.653, 67.509 L 627.076, 79.7834 L 625.632, 81.769 L 636.282, 86.2816 L 630.505, 94.0433 L 619.856, 89.5307 L 618.592, 91.3357 L 589.35, 79.0614 z "/>
<path style="fill:rgb(255, 0, 0);fill-opacity:0;fill-rule:evenodd;stroke:rgb(0, 219, 255);stroke-width:1;" d="M 539.711, 146.931 L 546.39, 137.906 L 575.632, 150.361 L 592.78, 157.581 L 586.282, 166.606 L 539.711, 146.931 z "/>
<path style="fill:rgb(0, 255, 0);fill-opacity:0;fill-rule:evenodd;stroke:rgb(0, 219, 255);stroke-width:1;" d="M 918.231, 475.632 L 939.531, 446.209 L 943.321, 447.834 L 945.668, 444.585 L 952.888, 447.473 L 950.542, 450.903 L 953.61, 452.166 L 945.487, 463.177 L 942.058, 461.733 L 938.087, 467.148 L 941.697, 468.592 L 932.31, 481.588 L 918.231, 475.632 z "/>
<path style="fill:rgb(0, 0, 255);fill-opacity:0;fill-rule:evenodd;stroke:rgb(0, 219, 255);stroke-width:1;" d="M 989.892, 429.783 L 997.473, 419.495 L 999.819, 418.231 L 1002.89, 413.899 L 1003.25, 411.552 L 1010.65, 401.264 L 1024.91, 407.22 L 1017.51, 417.69 L 1014.26, 418.592 L 1011.19, 422.924 L 1011.73, 425.451 L 1009.75, 428.339 L 1005.23, 434.477 L 1004.33, 435.74 L 999.819, 433.935 L 996.57, 438.267 L 990.253, 435.56 L 993.502, 431.227 L 989.892, 429.783 z "/>
<path style="fill:rgb(255, 255, 0);fill-opacity:0;fill-rule:evenodd;stroke:rgb(0, 219, 255);stroke-width:1;" d="M 597.653, 67.509 L 604.152, 58.4838 L 650.903, 78.1588 L 644.404, 87.1841 L 627.076, 79.7834 L 597.653, 67.509 z "/>
<path style="fill:rgb(255, 0, 0);fill-opacity:0;fill-rule:evenodd;stroke:rgb(0, 219, 255);stroke-width:1;" d="M 431.769, 493.321 L 451.625, 466.065 L 466.245, 472.202 L 446.209, 499.458 L 443.141, 498.195 L 441.516, 500.361 L 433.574, 496.931 L 435.199, 494.765 L 431.769, 493.321 z "/>
<path style="fill:rgb(0, 255, 0);fill-opacity:0;fill-rule:evenodd;stroke:rgb(0, 219, 255);stroke-width:1;" d="M 641.697, 282.852 L 662.635, 253.971 L 677.076, 259.928 L 656.137, 288.809 L 641.697, 282.852 z "/>
<path style="fill:rgb(0, 0, 255);fill-opacity:0;fill-rule:evenodd;stroke:rgb(0, 219, 255);stroke-width:1;" d="M 555.235, 125.812 L 563.357, 114.621 L 592.599, 126.895 L 591.516, 128.52 L 602.166, 133.032 L 596.39, 140.975 L 585.74, 136.462 L 584.477, 138.087 L 555.235, 125.812 z "/>
<path style="fill:rgb(255, 255, 0);fill-opacity:0;fill-rule:evenodd;stroke:rgb(0, 219, 255);stroke-width:1;" d="M 791.155, 148.917 L 797.473, 140.072 L 844.043, 159.747 L 837.545, 168.592 L 807.22, 155.776 L 791.155, 148.917 z "/>
<path style="fill:rgb(255, 0, 0);fill-opacity:0;fill-rule:evenodd;stroke:rgb(0, 219, 255);stroke-width:1;" d="M 483.394, 222.202 L 508.303, 188.989 L 520.578, 194.224 L 520.397, 194.585 L 500.181, 221.48 L 498.195, 220.578 L 496.931, 222.202 L 498.917, 223.105 L 495.487, 227.617 L 483.394, 222.202 z "/>
<path style="fill:rgb(0, 255, 0);fill-opacity:0;fill-rule:evenodd;stroke:rgb(0, 219, 255);stroke-width:1;" d="M 497.653, 530.866 L 505.235, 520.397 L 516.968, 504.332 L 525.271, 492.96 L 537.184, 497.834 L 529.783, 507.942 L 526.895, 508.123 L 514.621, 524.91 L 515.704, 527.076 L 513.357, 530.325 L 509.386, 535.74 L 497.653, 530.866 z "/>
<path style="fill:rgb(0, 0, 255);fill-opacity:0;fill-rule:evenodd;stroke:rgb(0, 219, 255);stroke-width:1;" d="M 514.44, 227.437 L 534.116, 200.181 L 548.736, 206.318 L 529.242, 233.394 L 524.729, 231.588 L 523.105, 233.755 L 516.787, 231.047 L 518.231, 229.061 L 514.44, 227.437 z "/>
<path style="fill:rgb(255, 255, 0);fill-opacity:0;fill-rule:evenodd;stroke:rgb(0, 219, 255);stroke-width:1;" d="M 481.769, 588.448 L 489.892, 577.437 L 526.895, 593.141 L 518.953, 604.152 L 481.769, 588.448 z "/>
<path style="fill:rgb(255, 0, 0);fill-opacity:0;fill-rule:evenodd;stroke:rgb(0, 219, 255);stroke-width:1;" d="M 417.329, 487.365 L 436.643, 460.83 L 437.365, 459.928 L 451.625, 466.065 L 431.769, 493.321 L 428.159, 491.877 L 426.534, 494.043 L 420.397, 491.516 L 422.022, 489.35 L 417.329, 487.365 z "/>
<path style="fill:rgb(0, 255, 0);fill-opacity:0;fill-rule:evenodd;stroke:rgb(0, 219, 255);stroke-width:1;" d="M 374.188, 469.856 L 380.505, 461.191 L 388.809, 450 L 394.765, 441.877 L 408.845, 447.834 L 408.123, 448.736 L 388.809, 475.271 L 385.379, 473.827 L 383.755, 475.993 L 376.534, 472.924 L 377.617, 471.48 L 374.188, 469.856 z "/>
<path style="fill:rgb(0, 0, 255);fill-opacity:0;fill-rule:evenodd;stroke:rgb(0, 219, 255);stroke-width:1;" d="M 287.545, 492.058 L 295.487, 481.227 L 297.653, 482.13 L 330.866, 496.029 L 328.881, 498.736 L 332.13, 500 L 327.617, 506.137 L 324.188, 504.693 L 322.563, 506.859 L 287.545, 492.058 z "/>
<path style="fill:rgb(255, 255, 0);fill-opacity:0;fill-rule:evenodd;stroke:rgb(0, 219, 255);stroke-width:1;" d="M 627.798, 276.895 L 648.736, 248.014 L 662.635, 253.971 L 641.697, 282.852 L 627.798, 276.895 z "/>
<path style="fill:rgb(255, 0, 0);fill-opacity:0;fill-rule:evenodd;stroke:rgb(0, 219, 255);stroke-width:1;" d="M 388.809, 475.271 L 408.123, 448.736 L 422.563, 454.874 L 403.249, 481.408 L 399.819, 479.964 L 398.195, 482.13 L 390.975, 479.061 L 392.599, 476.895 L 388.809, 475.271 z "/>
<path style="fill:rgb(0, 255, 0);fill-opacity:0;fill-rule:evenodd;stroke:rgb(0, 219, 255);stroke-width:1;" d="M 458.845, 431.227 L 479.242, 402.888 L 489.711, 407.22 L 487.906, 409.567 L 491.877, 411.191 L 473.105, 437.184 L 458.845, 431.227 z "/>
<path style="fill:rgb(0, 0, 255);fill-opacity:0;fill-rule:evenodd;stroke:rgb(0, 219, 255);stroke-width:1;" d="M 401.986, 407.401 L 409.747, 396.57 L 411.733, 395.126 L 414.44, 391.336 L 415.162, 388.989 L 422.022, 379.603 L 425.451, 381.047 L 426.895, 378.881 L 433.213, 381.408 L 431.588, 383.574 L 436.282, 385.56 L 435.018, 387.365 L 429.242, 395.307 L 426.354, 395.848 L 423.827, 399.278 L 424.368, 401.986 L 416.065, 413.357 L 401.986, 407.401 z "/>
<path style="fill:rgb(255, 255, 0);fill-opacity:0;fill-rule:evenodd;stroke:rgb(0, 219, 255);stroke-width:1;" d="M 246.751, 578.339 L 251.083, 572.383 L 253.249, 573.105 L 258.664, 565.523 L 272.202, 546.931 L 270.939, 544.946 L 271.3, 544.585 L 276.715, 537.004 L 287.906, 541.697 L 275.993, 558.123 L 273.466, 558.303 L 268.953, 564.44 L 269.856, 566.606 L 264.801, 573.646 L 257.942, 583.032 L 246.751, 578.339 z "/>
<path style="fill:rgb(255, 0, 0);fill-opacity:0;fill-rule:evenodd;stroke:rgb(0, 219, 255);stroke-width:1;" d="M 333.574, 525.632 L 341.516, 514.982 L 349.458, 503.61 L 352.708, 499.458 L 356.137, 500.903 L 357.581, 498.736 L 365.343, 501.986 L 363.718, 504.152 L 366.968, 505.415 L 348.556, 530.866 L 347.834, 531.769 L 333.574, 525.632 z "/>
<path style="fill:rgb(0, 255, 0);fill-opacity:0;fill-rule:evenodd;stroke:rgb(0, 219, 255);stroke-width:1;" d="M 489.892, 577.437 L 497.653, 566.787 L 507.762, 571.119 L 534.657, 582.491 L 526.895, 593.141 L 489.892, 577.437 z "/>
<path style="fill:rgb(0, 0, 255);fill-opacity:0;fill-rule:evenodd;stroke:rgb(0, 219, 255);stroke-width:1;" d="M 403.249, 481.408 L 422.563, 454.874 L 436.643, 460.83 L 417.329, 487.365 L 413.538, 485.74 L 411.913, 487.906 L 405.054, 485.018 L 406.679, 482.852 L 403.249, 481.408 z "/>
<path style="fill:rgb(255, 255, 0);fill-opacity:0;fill-rule:evenodd;stroke:rgb(0, 219, 255);stroke-width:1;" d="M 560.83, 473.827 L 567.69, 464.26 L 608.845, 481.408 L 601.986, 490.975 L 560.83, 473.827 z "/>
<path style="fill:rgb(255, 0, 0);fill-opacity:0;fill-rule:evenodd;stroke:rgb(0, 219, 255);stroke-width:1;" d="M 430.325, 419.314 L 448.917, 393.321 L 452.708, 394.946 L 454.513, 392.599 L 460.65, 395.307 L 459.025, 397.653 L 463.357, 399.458 L 462.816, 400.181 L 444.765, 425.271 L 430.325, 419.314 z "/>
<path style="fill:rgb(0, 255, 0);fill-opacity:0;fill-rule:evenodd;stroke:rgb(0, 219, 255);stroke-width:1;" d="M 361.913, 390.614 L 369.856, 379.603 L 381.949, 384.657 L 383.213, 388.087 L 391.697, 391.697 L 395.307, 390.794 L 407.04, 395.848 L 399.458, 406.318 L 361.913, 390.614 z "/>
<path style="fill:rgb(0, 0, 255);fill-opacity:0;fill-rule:evenodd;stroke:rgb(0, 219, 255);stroke-width:1;" d="M 444.765, 425.271 L 462.816, 400.181 L 467.329, 401.986 L 469.675, 398.917 L 479.242, 402.888 L 458.845, 431.227 L 444.765, 425.271 z "/>
<path style="fill:rgb(255, 255, 0);fill-opacity:0;fill-rule:evenodd;stroke:rgb(0, 219, 255);stroke-width:1;" d="M 416.065, 413.357 L 424.368, 401.986 L 429.242, 395.307 L 435.018, 387.365 L 439.35, 389.17 L 441.155, 386.823 L 447.112, 389.35 L 445.307, 391.877 L 448.917, 393.321 L 430.325, 419.314 L 416.065, 413.357 z "/>
<path style="fill:rgb(255, 0, 0);fill-opacity:0;fill-rule:evenodd;stroke:rgb(0, 219, 255);stroke-width:1;" d="M 473.105, 437.184 L 491.877, 411.191 L 506.318, 417.329 L 487.726, 443.141 L 473.105, 437.184 z "/>
<path style="fill:rgb(0, 255, 0);fill-opacity:0;fill-rule:evenodd;stroke:rgb(0, 219, 255);stroke-width:1;" d="M 396.57, 701.083 L 402.347, 693.141 L 400.722, 692.419 L 401.625, 691.155 L 407.04, 693.502 L 442.78, 708.303 L 436.101, 717.69 L 396.57, 701.083 z "/>
<path style="fill:rgb(0, 0, 255);fill-opacity:0;fill-rule:evenodd;stroke:rgb(0, 219, 255);stroke-width:1;" d="M 285.56, 209.206 L 313.718, 170.578 L 323.285, 174.549 L 310.108, 192.599 L 294.946, 213.177 L 285.56, 209.206 z "/>
<path style="fill:rgb(255, 255, 0);fill-opacity:0;fill-rule:evenodd;stroke:rgb(0, 219, 255);stroke-width:1;" d="M 476.895, 233.032 L 483.032, 224.549 L 497.653, 230.686 L 496.751, 231.949 L 506.318, 236.101 L 507.22, 237.726 L 509.025, 238.448 L 511.011, 235.921 L 527.437, 242.96 L 521.119, 251.625 L 476.895, 233.032 z "/>
<path style="fill:rgb(255, 0, 0);fill-opacity:0;fill-rule:evenodd;stroke:rgb(0, 219, 255);stroke-width:1;" d="M 298.195, 141.155 L 312.996, 120.939 L 339.35, 132.13 L 330.686, 143.863 L 309.386, 134.838 L 303.069, 143.321 L 298.195, 141.155 z "/>
<path style="fill:rgb(0, 255, 0);fill-opacity:0;fill-rule:evenodd;stroke:rgb(0, 219, 255);stroke-width:1;" d="M 214.44, 593.141 L 226.715, 576.173 L 247.653, 584.838 L 240.433, 594.946 L 235.379, 601.805 L 214.44, 593.141 z "/>
<path style="fill:rgb(0, 0, 255);fill-opacity:0;fill-rule:evenodd;stroke:rgb(0, 219, 255);stroke-width:1;" d="M 734.838, 227.978 L 739.17, 222.202 L 754.152, 228.52 L 755.957, 225.812 L 786.282, 238.628 L 780.144, 247.112 L 734.838, 227.978 z "/>
<path style="fill:rgb(255, 255, 0);fill-opacity:0;fill-rule:evenodd;stroke:rgb(0, 219, 255);stroke-width:1;" d="M 754.152, 384.838 L 761.011, 375.271 L 796.751, 390.253 L 789.892, 399.819 L 754.152, 384.838 z "/>
<path style="fill:rgb(255, 0, 0);fill-opacity:0;fill-rule:evenodd;stroke:rgb(0, 219, 255);stroke-width:1;" d="M 544.765, 467.148 L 560.289, 445.848 L 576.173, 452.347 L 567.69, 464.26 L 560.83, 473.827 L 544.765, 467.148 z "/>
<path style="fill:rgb(0, 255, 0);fill-opacity:0;fill-rule:evenodd;stroke:rgb(0, 219, 255);stroke-width:1;" d="M 456.137, 111.733 L 462.274, 103.43 L 474.549, 108.484 L 501.083, 119.856 L 494.946, 128.159 L 456.137, 111.733 z "/>
<path style="fill:rgb(0, 0, 255);fill-opacity:0;fill-rule:evenodd;stroke:rgb(0, 219, 255);stroke-width:1;" d="M 81.2274, 622.022 L 81.769, 621.48 L 83.7545, 618.773 L 86.6426, 614.801 L 129.422, 632.671 L 124.007, 640.072 L 97.1119, 628.7 L 81.2274, 622.022 z "/>
<path style="fill:rgb(255, 255, 0);fill-opacity:0;fill-rule:evenodd;stroke:rgb(0, 219, 255);stroke-width:1;" d="M 521.48, 380.686 L 540.614, 353.971 L 552.166, 358.845 L 534.116, 383.935 L 533.032, 385.379 L 521.48, 380.686 z "/>
<path style="fill:rgb(255, 0, 0);fill-opacity:0;fill-rule:evenodd;stroke:rgb(0, 219, 255);stroke-width:1;" d="M 487.184, 366.245 L 506.318, 339.711 L 517.87, 344.404 L 498.556, 371.119 L 487.184, 366.245 z "/>
<path style="fill:rgb(0, 255, 0);fill-opacity:0;fill-rule:evenodd;stroke:rgb(0, 219, 255);stroke-width:1;" d="M 498.556, 371.119 L 517.87, 344.404 L 529.242, 349.278 L 509.928, 375.812 L 498.556, 371.119 z "/>
<path style="fill:rgb(0, 0, 255);fill-opacity:0;fill-rule:evenodd;stroke:rgb(0, 219, 255);stroke-width:1;" d="M 509.928, 375.812 L 529.242, 349.278 L 540.614, 353.971 L 521.48, 380.686 L 509.928, 375.812 z "/>
<path style="fill:rgb(255, 255, 0);fill-opacity:0;fill-rule:evenodd;stroke:rgb(0, 219, 255);stroke-width:1;" d="M 212.455, 691.697 L 231.227, 665.884 L 242.96, 670.758 L 225.451, 694.765 L 224.188, 696.57 L 212.455, 691.697 z "/>
<path style="fill:rgb(255, 0, 0);fill-opacity:0;fill-rule:evenodd;stroke:rgb(0, 219, 255);stroke-width:1;" d="M 621.841, 33.213 L 627.798, 25.0903 L 658.123, 37.9061 L 664.801, 40.6137 L 658.845, 48.917 L 621.841, 33.213 z "/>
<path style="fill:rgb(0, 255, 0);fill-opacity:0;fill-rule:evenodd;stroke:rgb(0, 219, 255);stroke-width:1;" d="M 534.116, 383.935 L 552.166, 358.845 L 564.26, 363.899 L 558.303, 372.022 L 546.029, 388.989 L 534.116, 383.935 z "/>
<path style="fill:rgb(0, 0, 255);fill-opacity:0;fill-rule:evenodd;stroke:rgb(0, 219, 255);stroke-width:1;" d="M 312.996, 120.939 L 320.578, 110.65 L 345.848, 121.3 L 347.112, 124.91 L 346.57, 125.451 L 341.336, 132.852 L 339.35, 132.13 L 312.996, 120.939 z "/>
<path style="fill:rgb(255, 255, 0);fill-opacity:0;fill-rule:evenodd;stroke:rgb(0, 219, 255);stroke-width:1;" d="M 171.119, 690.433 L 183.755, 672.563 L 200, 679.061 L 191.877, 690.794 L 187.545, 696.931 L 171.119, 690.433 z "/>
<path style="fill:rgb(255, 0, 0);fill-opacity:0;fill-rule:evenodd;stroke:rgb(0, 219, 255);stroke-width:1;" d="M 225.451, 694.765 L 242.96, 670.758 L 254.513, 675.632 L 237.004, 699.639 L 225.451, 694.765 z "/>
<path style="fill:rgb(0, 255, 0);fill-opacity:0;fill-rule:evenodd;stroke:rgb(0, 219, 255);stroke-width:1;" d="M 786.282, 100.903 L 805.957, 74.1877 L 815.884, 78.3394 L 796.209, 105.054 L 786.282, 100.903 z "/>
<path style="fill:rgb(0, 0, 255);fill-opacity:0;fill-rule:evenodd;stroke:rgb(0, 219, 255);stroke-width:1;" d="M 708.664, 68.0505 L 728.339, 41.3357 L 738.267, 45.4874 L 718.592, 72.2022 L 708.664, 68.0505 z "/>
<path style="fill:rgb(255, 255, 0);fill-opacity:0;fill-rule:evenodd;stroke:rgb(0, 219, 255);stroke-width:1;" d="M 50.361, 675.271 L 54.5126, 669.495 L 63.3574, 673.285 L 64.8014, 671.48 L 92.5993, 683.032 L 87.0036, 690.614 L 74.0072, 685.199 L 59.5668, 679.061 L 50.361, 675.271 z "/>
<path style="fill:rgb(255, 0, 0);fill-opacity:0;fill-rule:evenodd;stroke:rgb(0, 219, 255);stroke-width:1;" d="M 407.762, 88.2671 L 422.563, 67.87 L 429.242, 58.8448 L 435.921, 61.5523 L 431.588, 67.509 L 429.964, 66.9675 L 427.798, 69.8556 L 432.671, 71.8412 L 417.509, 92.4188 L 407.762, 88.2671 z "/>
<path style="fill:rgb(0, 255, 0);fill-opacity:0;fill-rule:evenodd;stroke:rgb(0, 219, 255);stroke-width:1;" d="M 77.6173, 637.365 L 81.769, 631.588 L 118.773, 647.292 L 113.538, 654.513 L 85.7401, 642.78 L 86.8231, 641.155 L 77.6173, 637.365 z "/>
<path style="fill:rgb(0, 0, 255);fill-opacity:0;fill-rule:evenodd;stroke:rgb(0, 219, 255);stroke-width:1;" d="M 486.823, 75.6318 L 492.058, 68.4116 L 526.715, 83.213 L 527.617, 83.574 L 522.383, 90.6137 L 496.029, 79.4224 L 486.823, 75.6318 z "/>
<path style="fill:rgb(255, 255, 0);fill-opacity:0;fill-rule:evenodd;stroke:rgb(0, 219, 255);stroke-width:1;" d="M 796.209, 105.054 L 815.884, 78.3394 L 825.271, 82.3105 L 805.596, 109.025 L 796.209, 105.054 z "/>
<path style="fill:rgb(255, 0, 0);fill-opacity:0;fill-rule:evenodd;stroke:rgb(0, 219, 255);stroke-width:1;" d="M 56.8592, 666.245 L 61.1913, 660.469 L 97.8339, 675.812 L 92.5993, 683.032 L 64.8014, 671.48 L 65.8845, 670.036 L 56.8592, 666.245 z "/>
<path style="fill:rgb(0, 255, 0);fill-opacity:0;fill-rule:evenodd;stroke:rgb(0, 219, 255);stroke-width:1;" d="M 690.072, 60.1083 L 709.567, 33.3935 L 718.953, 37.3646 L 699.278, 64.0794 L 690.072, 60.1083 z "/>
<path style="fill:rgb(0, 0, 255);fill-opacity:0;fill-rule:evenodd;stroke:rgb(0, 219, 255);stroke-width:1;" d="M 699.278, 64.0794 L 718.953, 37.3646 L 728.339, 41.3357 L 708.664, 68.0505 L 699.278, 64.0794 z "/>
<path style="fill:rgb(255, 255, 0);fill-opacity:0;fill-rule:evenodd;stroke:rgb(0, 219, 255);stroke-width:1;" d="M 417.509, 92.4188 L 432.671, 71.8412 L 437.906, 64.8014 L 446.931, 68.5921 L 441.516, 75.6318 L 426.534, 96.2094 L 417.509, 92.4188 z "/>
<path style="fill:rgb(255, 0, 0);fill-opacity:0;fill-rule:evenodd;stroke:rgb(0, 219, 255);stroke-width:1;" d="M 492.058, 68.4116 L 497.473, 61.3718 L 506.318, 65.1625 L 531.949, 75.9928 L 526.715, 83.213 L 492.058, 68.4116 z "/>
<path style="fill:rgb(0, 255, 0);fill-opacity:0;fill-rule:evenodd;stroke:rgb(0, 219, 255);stroke-width:1;" d="M 81.769, 631.588 L 85.7401, 626.173 L 95.8484, 630.325 L 97.1119, 628.7 L 124.007, 640.072 L 118.773, 647.292 L 81.769, 631.588 z "/>
<path style="fill:rgb(0, 0, 255);fill-opacity:0;fill-rule:evenodd;stroke:rgb(0, 219, 255);stroke-width:1;" d="M 71.2996, 646.029 L 75.0903, 640.794 L 84.296, 644.585 L 85.7401, 642.78 L 113.538, 654.513 L 108.303, 661.552 L 71.2996, 646.029 z "/>
<path style="fill:rgb(255, 255, 0);fill-opacity:0;fill-rule:evenodd;stroke:rgb(0, 219, 255);stroke-width:1;" d="M 728.7, 76.5343 L 748.195, 49.8195 L 757.401, 53.6101 L 737.726, 80.3249 L 728.7, 76.5343 z "/>
<path style="fill:rgb(255, 0, 0);fill-opacity:0;fill-rule:evenodd;stroke:rgb(0, 219, 255);stroke-width:1;" d="M 504.693, 54.8736 L 510.108, 47.6534 L 517.509, 50.9025 L 543.502, 61.9134 L 538.267, 69.1336 L 511.733, 57.7617 L 504.693, 54.8736 z "/>
<path style="fill:rgb(0, 255, 0);fill-opacity:0;fill-rule:evenodd;stroke:rgb(0, 219, 255);stroke-width:1;" d="M 200.722, 693.682 L 222.022, 664.26 L 225.271, 665.704 L 226.534, 663.899 L 231.227, 665.884 L 212.455, 691.697 L 208.484, 696.931 L 200.722, 693.682 z "/>
<path style="fill:rgb(0, 0, 255);fill-opacity:0;fill-rule:evenodd;stroke:rgb(0, 219, 255);stroke-width:1;" d="M 831.588, 512.094 L 836.823, 504.874 L 851.805, 484.477 L 860.469, 488.267 L 844.224, 510.289 L 840.253, 515.704 L 831.588, 512.094 z "/>
<path style="fill:rgb(255, 255, 0);fill-opacity:0;fill-rule:evenodd;stroke:rgb(0, 219, 255);stroke-width:1;" d="M 421.48, 310.289 L 426.895, 302.708 L 457.762, 315.523 L 455.596, 318.592 L 454.874, 319.675 L 447.292, 316.426 L 444.765, 320.036 L 421.48, 310.289 z "/>
<path style="fill:rgb(255, 0, 0);fill-opacity:0;fill-rule:evenodd;stroke:rgb(0, 219, 255);stroke-width:1;" d="M 436.282, 100.361 L 451.264, 79.7834 L 461.011, 83.935 L 446.029, 104.513 L 436.282, 100.361 z "/>
<path style="fill:rgb(0, 255, 0);fill-opacity:0;fill-rule:evenodd;stroke:rgb(0, 219, 255);stroke-width:1;" d="M 293.321, 561.372 L 303.069, 548.014 L 318.051, 554.152 L 308.303, 567.69 L 293.321, 561.372 z "/>
<path style="fill:rgb(0, 0, 255);fill-opacity:0;fill-rule:evenodd;stroke:rgb(0, 219, 255);stroke-width:1;" d="M 391.336, 351.986 L 396.751, 344.404 L 423.646, 355.776 L 418.231, 363.177 L 391.336, 351.986 z "/>
<path style="fill:rgb(255, 255, 0);fill-opacity:0;fill-rule:evenodd;stroke:rgb(0, 219, 255);stroke-width:1;" d="M 426.534, 96.2094 L 441.516, 75.6318 L 451.264, 79.7834 L 436.282, 100.361 L 426.534, 96.2094 z "/>
<path style="fill:rgb(255, 0, 0);fill-opacity:0;fill-rule:evenodd;stroke:rgb(0, 219, 255);stroke-width:1;" d="M 211.733, 470.578 L 225.812, 451.444 L 225.993, 451.083 L 236.101, 455.235 L 235.018, 457.04 L 221.841, 474.91 L 211.733, 470.578 z "/>
<path style="fill:rgb(0, 255, 0);fill-opacity:0;fill-rule:evenodd;stroke:rgb(0, 219, 255);stroke-width:1;" d="M 474.549, 108.484 L 479.964, 101.083 L 506.498, 112.455 L 501.083, 119.856 L 474.549, 108.484 z "/>
<path style="fill:rgb(0, 0, 255);fill-opacity:0;fill-rule:evenodd;stroke:rgb(0, 219, 255);stroke-width:1;" d="M 398.014, 84.1155 L 411.011, 66.6065 L 412.996, 63.8989 L 422.563, 67.87 L 407.762, 88.2671 L 398.014, 84.1155 z "/>
<path style="fill:rgb(255, 255, 0);fill-opacity:0;fill-rule:evenodd;stroke:rgb(0, 219, 255);stroke-width:1;" d="M 479.964, 101.083 L 485.379, 93.6823 L 511.913, 105.054 L 506.498, 112.455 L 479.964, 101.083 z "/>
<path style="fill:rgb(255, 0, 0);fill-opacity:0;fill-rule:evenodd;stroke:rgb(0, 219, 255);stroke-width:1;" d="M 485.379, 93.6823 L 490.794, 86.2816 L 517.329, 97.6534 L 511.913, 105.054 L 485.379, 93.6823 z "/>
<path style="fill:rgb(0, 255, 0);fill-opacity:0;fill-rule:evenodd;stroke:rgb(0, 219, 255);stroke-width:1;" d="M 844.224, 510.289 L 860.469, 488.267 L 869.314, 491.877 L 853.069, 514.079 L 844.224, 510.289 z "/>
<path style="fill:rgb(0, 0, 255);fill-opacity:0;fill-rule:evenodd;stroke:rgb(0, 219, 255);stroke-width:1;" d="M 506.318, 65.1625 L 511.733, 57.7617 L 538.267, 69.1336 L 532.852, 76.3538 L 531.949, 75.9928 L 506.318, 65.1625 z "/>
<path style="fill:rgb(255, 255, 0);fill-opacity:0;fill-rule:evenodd;stroke:rgb(0, 219, 255);stroke-width:1;" d="M 386.823, 358.303 L 391.336, 351.986 L 418.231, 363.177 L 422.563, 364.982 L 418.051, 371.3 L 386.823, 358.303 z "/>
<path style="fill:rgb(255, 0, 0);fill-opacity:0;fill-rule:evenodd;stroke:rgb(0, 219, 255);stroke-width:1;" d="M 818.051, 496.931 L 826.534, 485.56 L 833.032, 476.534 L 842.599, 480.686 L 827.617, 500.903 L 818.051, 496.931 z "/>
<path style="fill:rgb(0, 255, 0);fill-opacity:0;fill-rule:evenodd;stroke:rgb(0, 219, 255);stroke-width:1;" d="M 492.238, 40.9747 L 501.805, 28.1588 L 507.401, 20.2166 L 516.787, 24.1877 L 501.625, 44.9458 L 492.238, 40.9747 z "/>
<path style="fill:rgb(0, 0, 255);fill-opacity:0;fill-rule:evenodd;stroke:rgb(0, 219, 255);stroke-width:1;" d="M 76.7148, 332.671 L 89.3502, 314.982 L 100.181, 319.314 L 87.7256, 337.004 L 76.7148, 332.671 z "/>
<path style="fill:rgb(255, 255, 0);fill-opacity:0;fill-rule:evenodd;stroke:rgb(0, 219, 255);stroke-width:1;" d="M 517.509, 50.9025 L 522.744, 43.6823 L 548.917, 54.6931 L 543.502, 61.9134 L 517.509, 50.9025 z "/>
<path style="fill:rgb(255, 0, 0);fill-opacity:0;fill-rule:evenodd;stroke:rgb(0, 219, 255);stroke-width:1;" d="M 827.617, 500.903 L 842.599, 480.686 L 851.805, 484.477 L 836.823, 504.874 L 827.617, 500.903 z "/>
<path style="fill:rgb(0, 255, 0);fill-opacity:0;fill-rule:evenodd;stroke:rgb(0, 219, 255);stroke-width:1;" d="M 446.029, 104.513 L 461.011, 83.935 L 470.217, 87.9061 L 455.054, 108.303 L 446.029, 104.513 z "/>
<path style="fill:rgb(0, 0, 255);fill-opacity:0;fill-rule:evenodd;stroke:rgb(0, 219, 255);stroke-width:1;" d="M 416.606, 316.968 L 421.48, 310.289 L 444.765, 320.036 L 443.141, 322.383 L 450.722, 325.451 L 447.473, 329.783 L 440.072, 326.715 L 416.606, 316.968 z "/>
<path style="fill:rgb(255, 255, 0);fill-opacity:0;fill-rule:evenodd;stroke:rgb(0, 219, 255);stroke-width:1;" d="M 193.682, 462.996 L 206.859, 444.946 L 207.762, 443.863 L 217.329, 447.834 L 203.249, 467.148 L 193.682, 462.996 z "/>
<path style="fill:rgb(255, 0, 0);fill-opacity:0;fill-rule:evenodd;stroke:rgb(0, 219, 255);stroke-width:1;" d="M 490.794, 86.2816 L 496.029, 79.4224 L 522.383, 90.6137 L 517.329, 97.6534 L 490.794, 86.2816 z "/>
<path style="fill:rgb(0, 255, 0);fill-opacity:0;fill-rule:evenodd;stroke:rgb(0, 219, 255);stroke-width:1;" d="M 278.52, 198.014 L 291.155, 180.144 L 301.444, 184.477 L 288.628, 202.166 L 278.52, 198.014 z "/>
<path style="fill:rgb(0, 0, 255);fill-opacity:0;fill-rule:evenodd;stroke:rgb(0, 219, 255);stroke-width:1;" d="M 440.072, 340.072 L 447.473, 329.783 L 450.722, 325.451 L 454.874, 319.675 L 455.596, 318.592 L 463.899, 322.022 L 448.195, 343.502 L 440.072, 340.072 z "/>
<path style="fill:rgb(255, 255, 0);fill-opacity:0;fill-rule:evenodd;stroke:rgb(0, 219, 255);stroke-width:1;" d="M 396.751, 344.404 L 401.444, 337.906 L 425.09, 347.834 L 428.339, 349.278 L 423.646, 355.776 L 396.751, 344.404 z "/>
<path style="fill:rgb(255, 0, 0);fill-opacity:0;fill-rule:evenodd;stroke:rgb(0, 219, 255);stroke-width:1;" d="M 963.177, 151.083 L 963.718, 149.458 L 964.621, 148.014 L 966.245, 146.931 L 968.231, 146.029 L 978.159, 144.404 L 980.325, 144.585 L 982.31, 145.126 L 984.116, 146.209 L 985.199, 147.473 L 985.921, 149.097 L 986.101, 150.722 L 985.56, 152.347 L 984.477, 153.791 L 983.032, 154.874 L 981.047, 155.596 L 971.119, 157.401 L 968.953, 157.22 L 966.968, 156.498 L 965.162, 155.596 L 963.899, 154.152 L 963.177, 152.708 L 963.177, 151.083 z "/>
<path style="fill:rgb(0, 255, 0);fill-opacity:0;fill-rule:evenodd;stroke:rgb(0, 219, 255);stroke-width:1;" d="M 936.823, 285.74 L 937.365, 284.116 L 938.448, 282.671 L 940.072, 281.588 L 942.058, 280.866 L 951.805, 279.061 L 953.971, 279.242 L 955.957, 279.783 L 957.762, 280.866 L 959.025, 282.31 L 959.747, 283.755 L 959.928, 285.379 L 959.386, 287.004 L 958.303, 288.448 L 956.679, 289.531 L 954.693, 290.253 L 944.765, 292.058 L 942.599, 291.877 L 940.614, 291.336 L 938.989, 290.253 L 937.726, 288.989 L 937.004, 287.365 L 936.823, 285.74 z "/>
<path style="fill:rgb(0, 0, 255);fill-opacity:0;fill-rule:evenodd;stroke:rgb(0, 219, 255);stroke-width:1;" d="M 906.679, 226.715 L 907.22, 225.09 L 908.303, 223.646 L 909.928, 222.563 L 911.733, 221.661 L 921.661, 220.036 L 923.827, 220.036 L 925.812, 220.758 L 927.617, 221.841 L 928.881, 223.105 L 929.603, 224.729 L 929.603, 226.354 L 929.061, 227.978 L 928.159, 229.242 L 926.534, 230.505 L 924.549, 231.227 L 914.621, 232.852 L 912.455, 232.852 L 910.469, 232.13 L 908.845, 231.227 L 907.581, 229.783 L 906.859, 228.339 L 906.679, 226.715 z "/>
<path style="fill:rgb(255, 255, 0);fill-opacity:0;fill-rule:evenodd;stroke:rgb(0, 219, 255);stroke-width:1;" d="M 411.372, 324.368 L 416.606, 316.968 L 440.072, 326.715 L 434.838, 334.296 L 411.372, 324.368 z "/>
<path style="fill:rgb(255, 0, 0);fill-opacity:0;fill-rule:evenodd;stroke:rgb(0, 219, 255);stroke-width:1;" d="M 453.791, 348.736 L 471.119, 324.91 L 478.339, 327.978 L 461.011, 351.805 L 453.791, 348.736 z "/>
<path style="fill:rgb(0, 255, 0);fill-opacity:0;fill-rule:evenodd;stroke:rgb(0, 219, 255);stroke-width:1;" d="M 446.57, 345.668 L 448.195, 343.502 L 463.899, 322.022 L 471.119, 324.91 L 453.791, 348.736 L 446.57, 345.668 z "/>
<path style="fill:rgb(0, 0, 255);fill-opacity:0;fill-rule:evenodd;stroke:rgb(0, 219, 255);stroke-width:1;" d="M 145.487, 508.303 L 153.61, 497.292 L 158.484, 490.614 L 168.051, 494.585 L 155.054, 512.455 L 145.487, 508.303 z "/>
<path style="fill:rgb(255, 255, 0);fill-opacity:0;fill-rule:evenodd;stroke:rgb(0, 219, 255);stroke-width:1;" d="M 471.3, 498.375 L 483.935, 481.047 L 493.682, 485.018 L 488.448, 492.419 L 481.047, 502.347 L 471.3, 498.375 z "/>
<path style="fill:rgb(255, 0, 0);fill-opacity:0;fill-rule:evenodd;stroke:rgb(0, 219, 255);stroke-width:1;" d="M 427.256, 561.011 L 445.307, 536.823 L 452.166, 539.711 L 450.181, 542.058 L 434.116, 563.899 L 427.256, 561.011 z "/>
<path style="fill:rgb(0, 255, 0);fill-opacity:0;fill-rule:evenodd;stroke:rgb(0, 219, 255);stroke-width:1;" d="M 203.249, 467.148 L 217.329, 447.834 L 225.812, 451.444 L 211.733, 470.578 L 203.249, 467.148 z "/>
<path style="fill:rgb(0, 0, 255);fill-opacity:0;fill-rule:evenodd;stroke:rgb(0, 219, 255);stroke-width:1;" d="M 401.444, 337.906 L 406.498, 331.047 L 429.964, 340.794 L 425.09, 347.834 L 401.444, 337.906 z "/>
<path style="fill:rgb(255, 255, 0);fill-opacity:0;fill-rule:evenodd;stroke:rgb(0, 219, 255);stroke-width:1;" d="M 406.498, 331.047 L 411.372, 324.368 L 434.838, 334.296 L 429.964, 340.794 L 406.498, 331.047 z "/>
<path style="fill:rgb(255, 0, 0);fill-opacity:0;fill-rule:evenodd;stroke:rgb(0, 219, 255);stroke-width:1;" d="M 433.213, 616.968 L 441.336, 605.776 L 454.332, 611.191 L 446.209, 622.383 L 433.213, 616.968 z "/>
<path style="fill:rgb(0, 255, 0);fill-opacity:0;fill-rule:evenodd;stroke:rgb(0, 219, 255);stroke-width:1;" d="M 425.271, 628.159 L 433.213, 616.968 L 446.209, 622.383 L 438.267, 633.574 L 425.271, 628.159 z "/>
<path style="fill:rgb(0, 0, 255);fill-opacity:0;fill-rule:evenodd;stroke:rgb(0, 219, 255);stroke-width:1;" d="M 339.17, 580.505 L 344.043, 573.827 L 359.206, 580.325 L 354.332, 587.004 L 339.17, 580.505 z "/>
<path style="fill:rgb(255, 255, 0);fill-opacity:0;fill-rule:evenodd;stroke:rgb(0, 219, 255);stroke-width:1;" d="M 328.7, 192.419 L 334.116, 185.018 L 344.224, 189.35 L 338.809, 196.751 L 333.574, 194.585 L 328.7, 192.419 z "/>
<path style="fill:rgb(255, 0, 0);fill-opacity:0;fill-rule:evenodd;stroke:rgb(0, 219, 255);stroke-width:1;" d="M 7.94224, 473.105 L 26.3538, 448.014 L 27.4368, 448.556 L 28.8809, 446.57 L 29.9639, 442.78 L 28.5199, 444.585 L 24.7292, 442.96 L 31.769, 433.394 L 54.1516, 442.96 L 47.4729, 451.986 L 43.8628, 450.361 L 41.1552, 451.986 L 39.7112, 453.971 L 40.7942, 454.513 L 22.7437, 479.242 L 7.94224, 473.105 z "/>
<path style="fill:rgb(0, 255, 0);fill-opacity:0;fill-rule:evenodd;stroke:rgb(0, 219, 255);stroke-width:1;" d="M 9.20578, 538.087 L 17.87, 526.173 L 19.8556, 525.451 L 23.1047, 521.119 L 22.9242, 519.495 L 28.1588, 512.274 L 40.6137, 495.307 L 54.6931, 501.444 L 37.0036, 525.632 L 34.657, 525.993 L 31.5884, 530.144 L 32.13, 532.13 L 23.4657, 544.043 L 9.20578, 538.087 z "/>
<path style="fill:rgb(0, 0, 255);fill-opacity:0;fill-rule:evenodd;stroke:rgb(0, 219, 255);stroke-width:1;" d="M 11.1913, 618.231 L 16.787, 610.65 L 16.065, 608.303 L 22.5632, 599.278 L 25.8123, 600.542 L 28.1588, 597.292 L 25.0903, 595.848 L 34.4765, 583.032 L 48.917, 589.17 L 39.5307, 601.986 L 36.6426, 600.722 L 34.1155, 603.971 L 37.1841, 605.235 L 30.6859, 614.26 L 27.9783, 615.343 L 22.3827, 622.924 L 11.1913, 618.231 z "/>
<path style="fill:rgb(255, 255, 0);fill-opacity:0;fill-rule:evenodd;stroke:rgb(0, 219, 255);stroke-width:1;" d="M 0, 682.31 L 18.4116, 657.22 L 21.1191, 656.859 L 25.9928, 650.181 L 36.4621, 654.513 L 31.5884, 661.191 L 32.491, 663.177 L 14.0794, 688.267 L 0, 682.31 z "/>
<path style="fill:rgb(255, 0, 0);fill-opacity:0;fill-rule:evenodd;stroke:rgb(0, 219, 255);stroke-width:1;" d="M 14.0794, 688.267 L 32.491, 663.177 L 35.3791, 662.816 L 40.2527, 656.137 L 50.361, 660.469 L 45.4874, 667.148 L 46.7509, 669.314 L 38.6282, 680.505 L 35.9206, 679.422 L 34.296, 681.588 L 37.0036, 682.671 L 28.5199, 694.404 L 14.0794, 688.267 z "/>
<path style="fill:rgb(0, 255, 0);fill-opacity:0;fill-rule:evenodd;stroke:rgb(0, 219, 255);stroke-width:1;" d="M 298.195, 43.6823 L 330.325, 0 L 386.823, 24.0072 L 354.693, 67.6895 L 298.195, 43.6823 z "/>
<path style="fill:rgb(0, 0, 255);fill-opacity:0;fill-rule:evenodd;stroke:rgb(0, 219, 255);stroke-width:1;" d="M 37.5451, 47.1119 L 38.8087, 46.9314 L 37.7256, 43.8628 L 51.444, 40.7942 L 51.8051, 41.5162 L 62.8159, 38.9892 L 59.5668, 30.5054 L 58.6643, 30.6859 L 54.6931, 20.3971 L 58.6643, 19.4946 L 58.3032, 18.4116 L 71.8412, 15.343 L 72.3827, 16.6065 L 76.1733, 15.704 L 80.1444, 26.1733 L 78.7004, 26.5343 L 81.9495, 34.8375 L 93.3213, 32.3105 L 92.9603, 31.4079 L 109.567, 27.6173 L 115.704, 43.8628 L 99.0975, 47.4729 L 98.7365, 46.5704 L 86.4621, 49.278 L 90.0722, 58.6643 L 91.6968, 58.3032 L 96.5704, 70.7581 L 75.0903, 75.4513 L 70.3971, 62.8159 L 71.8412, 62.4549 L 68.5921, 53.7906 L 57.4007, 56.3177 L 57.7617, 57.2202 L 43.8628, 60.2888 L 42.7798, 57.2202 L 41.5162, 57.5812 L 37.5451, 47.1119 z "/>
<path style="fill:rgb(255, 255, 0);fill-opacity:0;fill-rule:evenodd;stroke:rgb(0, 219, 255);stroke-width:1;" d="M 452.708, 44.5848 L 460.289, 34.296 L 465.704, 36.6426 L 469.134, 31.9495 L 472.744, 30.8664 L 481.047, 19.4946 L 473.827, 16.426 L 478.7, 9.56679 L 480.686, 6.85921 L 508.664, 18.7726 L 507.401, 20.2166 L 501.805, 28.1588 L 494.224, 24.9097 L 492.238, 27.7978 L 484.838, 37.7256 L 486.462, 38.4477 L 483.394, 42.7798 L 489.17, 45.1264 L 480.866, 56.4982 L 469.675, 51.8051 L 472.202, 48.3755 L 465.884, 45.6679 L 463.357, 49.0975 L 452.708, 44.5848 z "/>
<path style="fill:rgb(255, 0, 0);fill-opacity:0;fill-rule:evenodd;stroke:rgb(0, 219, 255);stroke-width:1;" d="M 661.011, 47.8339 L 692.238, 5.05415 L 706.498, 11.1913 L 675.271, 53.7906 L 661.011, 47.8339 z "/>
<path style="fill:rgb(0, 255, 0);fill-opacity:0;fill-rule:evenodd;stroke:rgb(0, 219, 255);stroke-width:1;" d="M 675.271, 53.7906 L 706.498, 11.1913 L 720.217, 16.9675 L 688.989, 59.7473 L 675.271, 53.7906 z "/>
<path style="fill:rgb(0, 0, 255);fill-opacity:0;fill-rule:evenodd;stroke:rgb(0, 219, 255);stroke-width:1;" d="M 838.989, 45.8484 L 858.664, 18.9531 L 863.357, 20.9386 L 866.065, 20.7581 L 869.314, 22.0217 L 850.181, 48.1949 L 848.736, 50.1805 L 838.989, 45.8484 z "/>
<path style="fill:rgb(255, 255, 0);fill-opacity:0;fill-rule:evenodd;stroke:rgb(0, 219, 255);stroke-width:1;" d="M 800.361, 29.2419 L 820.036, 2.52708 L 829.964, 6.85921 L 810.469, 33.574 L 800.361, 29.2419 z "/>
<path style="fill:rgb(255, 0, 0);fill-opacity:0;fill-rule:evenodd;stroke:rgb(0, 219, 255);stroke-width:1;" d="M 819.675, 37.7256 L 839.35, 10.8303 L 849.097, 14.8014 L 829.422, 41.8773 L 819.675, 37.7256 z "/>
<path style="fill:rgb(0, 255, 0);fill-opacity:0;fill-rule:evenodd;stroke:rgb(0, 219, 255);stroke-width:1;" d="M 829.422, 41.8773 L 849.097, 14.8014 L 858.664, 18.9531 L 838.989, 45.8484 L 829.422, 41.8773 z "/>
<path style="fill:rgb(0, 0, 255);fill-opacity:0;fill-rule:evenodd;stroke:rgb(0, 219, 255);stroke-width:1;" d="M 633.032, 17.87 L 638.267, 10.6498 L 668.773, 23.4657 L 663.357, 30.8664 L 633.032, 17.87 z "/>
<path style="fill:rgb(255, 255, 0);fill-opacity:0;fill-rule:evenodd;stroke:rgb(0, 219, 255);stroke-width:1;" d="M 627.798, 25.0903 L 633.032, 17.87 L 663.357, 30.8664 L 658.123, 37.9061 L 627.798, 25.0903 z "/>
</svg>