<?xml version="1.0" encoding="iso-8859-1" standalone="no"?>
<!DOCTYPE svg PUBLIC "-//W3C//DTD SVG 1.0//EN" "http://www.w3.org/TR/2001/REC-SVG-20010904/DTD/svg10.dtd">
<svg xmlns="http://www.w3.org/2000/svg" width="787" height="800">
<path style="fill:rgb(255, 0, 0);fill-opacity:0;fill-rule:evenodd;stroke:rgb(0, 155, 255);stroke-width:1;" d="M 231.691, 755.583 L 272.863, 711.167 L 298.565, 724.891 L 305.926, 715.159 L 304.304, 712.664 L 294.323, 696.694 L 291.953, 696.319 L 289.582, 695.82 L 287.461, 694.947 L 285.465, 693.824 L 283.718, 692.576 L 282.221, 691.079 L 280.973, 689.457 L 280.1, 687.835 L 279.85, 686.962 L 279.476, 685.09 L 279.476, 683.219 L 279.601, 682.346 L 279.85, 681.347 L 280.599, 679.601 L 281.722, 677.979 L 282.346, 677.23 L 283.843, 675.733 L 285.714, 674.485 L 287.711, 673.487 L 291.828, 671.99 L 282.47, 656.394 L 284.716, 655.646 L 283.968, 654.398 L 298.44, 649.407 L 312.789, 673.362 L 316.532, 672.115 L 333.001, 699.439 L 338.366, 702.308 L 369.807, 668.497 L 365.814, 666.5 L 373.051, 658.64 L 362.321, 652.901 L 351.716, 635.059 L 349.345, 634.934 L 348.222, 634.685 L 345.976, 634.061 L 343.855, 633.063 L 341.984, 631.94 L 340.237, 630.692 L 338.989, 629.195 L 337.867, 627.449 L 337.492, 626.7 L 336.993, 624.828 L 336.868, 623.082 L 336.993, 621.21 L 337.243, 620.337 L 337.617, 619.464 L 338.49, 617.717 L 339.738, 616.22 L 340.487, 615.471 L 342.109, 614.099 L 343.107, 613.6 L 345.103, 612.601 L 346.101, 612.227 L 348.846, 611.478 L 339.114, 595.009 L 341.984, 594.011 L 340.861, 592.14 L 355.334, 587.149 L 369.931, 611.853 L 373.924, 610.48 L 390.019, 637.804 L 395.758, 640.923 L 448.16, 584.404 L 419.963, 569.183 L 405.864, 584.404 L 386.276, 573.924 L 404.492, 554.211 L 390.892, 546.85 L 396.756, 540.487 L 410.356, 547.848 L 428.821, 528.01 L 448.659, 538.74 L 434.186, 554.336 L 462.508, 569.432 L 490.081, 539.613 L 473.737, 530.88 L 475.733, 528.634 L 466.001, 512.664 L 463.631, 512.165 L 461.135, 511.416 L 459.014, 510.543 L 457.018, 509.295 L 455.147, 507.923 L 453.649, 506.301 L 452.527, 504.679 L 452.027, 503.681 L 451.404, 501.809 L 451.029, 499.938 L 451.029, 498.939 L 451.279, 496.943 L 451.528, 496.07 L 452.402, 494.198 L 452.901, 493.325 L 454.148, 491.578 L 455.77, 490.081 L 456.644, 489.457 L 457.642, 488.833 L 459.763, 487.711 L 462.258, 486.712 L 453.774, 472.489 L 456.519, 471.491 L 455.396, 469.744 L 469.495, 464.754 L 484.092, 489.208 L 487.96, 487.835 L 504.304, 515.034 L 510.168, 518.278 L 528.384, 498.565 L 525.764, 497.193 L 532.002, 490.455 L 534.623, 491.828 L 542.857, 482.969 L 535.995, 479.226 L 542.732, 476.482 L 544.729, 474.361 L 533.999, 468.746 L 522.77, 450.655 L 520.399, 450.281 L 518.029, 449.532 L 515.908, 448.534 L 513.911, 447.411 L 512.289, 446.039 L 510.917, 444.417 L 510.293, 443.668 L 509.42, 441.921 L 508.796, 440.05 L 508.546, 438.178 L 508.796, 436.307 L 509.046, 435.309 L 509.669, 433.562 L 510.667, 431.815 L 512.165, 430.318 L 512.913, 429.57 L 519.526, 424.828 L 511.416, 410.979 L 513.662, 410.231 L 512.539, 408.235 L 526.638, 403.369 L 540.986, 427.573 L 545.228, 426.076 L 561.572, 453.899 L 562.445, 454.398 L 575.546, 440.175 L 573.924, 439.301 L 602.745, 408.11 L 620.711, 417.717 L 583.78, 457.517 L 576.294, 453.525 L 571.304, 458.89 L 578.041, 462.508 L 616.469, 465.128 L 616.095, 467.998 L 651.653, 470.493 L 650.156, 482.47 L 648.035, 482.346 L 647.785, 483.968 L 625.827, 482.47 L 625.328, 486.089 L 624.704, 487.835 L 623.706, 489.582 L 623.206, 490.455 L 621.709, 491.953 L 619.963, 493.325 L 618.964, 493.824 L 617.966, 494.448 L 615.845, 495.321 L 613.475, 495.945 L 612.227, 496.07 L 609.732, 496.319 L 607.361, 496.319 L 604.866, 495.945 L 602.495, 495.197 L 601.497, 494.822 L 599.376, 493.824 L 597.505, 492.576 L 595.883, 491.079 L 594.635, 489.582 L 571.054, 487.586 L 568.808, 489.956 L 556.207, 483.219 L 554.585, 485.09 L 550.842, 483.094 L 545.103, 489.208 L 554.086, 493.949 L 544.604, 504.055 L 537.243, 512.04 L 528.384, 507.299 L 515.533, 521.148 L 521.273, 524.142 L 560.2, 526.638 L 559.95, 529.881 L 594.51, 532.002 L 593.263, 543.606 L 590.767, 543.481 L 590.518, 545.602 L 568.185, 544.23 L 567.935, 547.224 L 567.686, 548.097 L 566.937, 549.844 L 566.313, 550.717 L 565.066, 552.339 L 563.568, 553.712 L 561.822, 554.959 L 559.701, 555.958 L 558.702, 556.457 L 556.457, 557.08 L 555.209, 557.33 L 553.961, 557.455 L 551.591, 557.58 L 550.343, 557.58 L 547.973, 557.33 L 545.602, 556.706 L 543.481, 555.958 L 541.485, 554.959 L 539.613, 553.587 L 538.116, 552.215 L 536.868, 550.593 L 513.787, 549.22 L 511.79, 551.341 L 495.197, 542.483 L 481.847, 556.956 L 530.256, 582.907 L 516.157, 598.004 L 522.895, 601.622 L 521.772, 602.994 L 524.641, 604.492 L 512.789, 617.218 L 509.919, 615.721 L 508.671, 616.968 L 501.56, 613.225 L 497.068, 617.966 L 500.686, 619.838 L 494.323, 626.7 L 490.83, 624.828 L 487.461, 628.571 L 439.052, 602.62 L 401.123, 643.543 L 407.236, 646.787 L 446.039, 649.532 L 445.664, 652.776 L 480.848, 655.271 L 479.476, 666.625 L 476.482, 666.376 L 476.232, 668.497 L 454.398, 666.999 L 453.774, 667.623 L 453.774, 669.495 L 453.275, 671.241 L 452.901, 672.115 L 452.527, 672.988 L 451.404, 674.61 L 449.906, 676.107 L 448.16, 677.48 L 447.162, 677.979 L 446.163, 678.603 L 444.042, 679.351 L 441.672, 679.975 L 439.301, 680.349 L 438.178, 680.349 L 436.931, 680.349 L 434.435, 680.1 L 432.19, 679.601 L 429.944, 678.852 L 427.948, 677.854 L 426.076, 676.606 L 424.454, 675.234 L 423.206, 673.612 L 399.376, 671.865 L 397.13, 674.236 L 384.903, 667.748 L 382.907, 669.869 L 378.665, 667.623 L 373.425, 673.238 L 382.907, 678.353 L 365.814, 696.694 L 356.457, 691.578 L 343.98, 705.053 L 350.218, 708.297 L 388.896, 710.917 L 388.522, 714.036 L 423.456, 716.407 L 422.084, 728.384 L 419.713, 728.26 L 419.464, 730.131 L 396.631, 728.634 L 396.507, 730.63 L 396.382, 731.628 L 395.758, 733.375 L 394.76, 735.122 L 394.261, 735.995 L 392.764, 737.492 L 391.017, 738.865 L 390.143, 739.488 L 389.021, 739.988 L 386.9, 740.861 L 385.777, 741.235 L 383.406, 741.734 L 380.911, 741.984 L 378.415, 741.984 L 376.045, 741.609 L 373.674, 741.11 L 371.429, 740.237 L 369.432, 739.114 L 367.686, 737.742 L 366.188, 736.369 L 364.941, 734.623 L 343.606, 733.5 L 342.732, 732.626 L 338.49, 732.377 L 332.127, 739.239 L 336.868, 742.109 L 336.494, 745.477 L 355.583, 755.708 L 343.98, 768.309 L 337.367, 764.691 L 331.379, 771.179 L 337.991, 774.797 L 329.133, 784.279 L 322.52, 780.661 L 316.656, 787.024 L 323.269, 790.643 L 314.535, 800 L 293.949, 788.896 L 296.694, 785.901 L 292.202, 783.531 L 286.338, 789.769 L 279.85, 786.276 L 278.353, 787.898 L 258.141, 777.043 L 259.763, 775.421 L 253.525, 772.052 L 259.264, 765.814 L 255.022, 763.568 L 254.648, 763.444 L 251.903, 766.313 L 231.691, 755.583 z "/>
<path style="fill:rgb(0, 255, 0);fill-opacity:0;fill-rule:evenodd;stroke:rgb(0, 155, 255);stroke-width:1;" d="M 583.406, 310.293 L 597.505, 291.329 L 602.371, 293.325 L 626.326, 261.011 L 631.94, 263.381 L 712.165, 297.941 L 696.943, 318.403 L 775.795, 352.215 L 739.613, 400.873 L 600.125, 340.986 L 604.991, 334.373 L 603.493, 333.624 L 599.127, 339.613 L 589.644, 335.496 L 583.406, 310.293 z "/>
<path style="fill:rgb(0, 0, 255);fill-opacity:0;fill-rule:evenodd;stroke:rgb(0, 155, 255);stroke-width:1;" d="M 547.099, 359.825 L 571.803, 333.5 L 722.271, 415.097 L 711.541, 426.45 L 697.567, 441.422 L 547.099, 359.825 z "/>
<path style="fill:rgb(255, 255, 0);fill-opacity:0;fill-rule:evenodd;stroke:rgb(0, 155, 255);stroke-width:1;" d="M 671.865, 187.399 L 690.331, 160.324 L 703.431, 165.066 L 699.189, 171.928 L 747.848, 191.516 L 777.293, 182.034 L 787.149, 199.75 L 741.235, 214.473 L 712.664, 203.493 L 711.416, 205.49 L 674.236, 191.266 L 675.858, 188.896 L 671.865, 187.399 z "/>
<path style="fill:rgb(255, 0, 0);fill-opacity:0;fill-rule:evenodd;stroke:rgb(0, 155, 255);stroke-width:1;" d="M 22.2084, 146.6 L 44.0424, 116.906 L 67.9975, 127.137 L 62.1335, 135.122 L 73.8615, 140.112 L 79.7255, 132.252 L 102.183, 141.859 L 80.3493, 171.304 L 59.0143, 162.196 L 67.748, 150.218 L 61.2601, 147.473 L 59.2639, 150.218 L 50.5303, 146.475 L 43.6681, 155.708 L 43.1691, 155.459 L 22.2084, 146.6 z "/>
<path style="fill:rgb(0, 255, 0);fill-opacity:0;fill-rule:evenodd;stroke:rgb(0, 155, 255);stroke-width:1;" d="M 224.08, 46.5377 L 255.895, 9.48222 L 266.376, 0 L 291.454, 16.0948 L 244.042, 58.8896 L 243.793, 59.1391 L 224.08, 46.5377 z "/>
<path style="fill:rgb(0, 0, 255);fill-opacity:0;fill-rule:evenodd;stroke:rgb(0, 155, 255);stroke-width:1;" d="M 679.351, 279.102 L 688.334, 267.124 L 703.182, 273.487 L 698.44, 279.726 L 694.074, 285.59 L 679.351, 279.102 z "/>
<path style="fill:rgb(255, 255, 0);fill-opacity:0;fill-rule:evenodd;stroke:rgb(0, 155, 255);stroke-width:1;" d="M 28.9457, 188.896 L 32.5639, 183.905 L 36.9308, 185.652 L 61.884, 196.382 L 61.6344, 196.756 L 62.2583, 197.629 L 62.383, 198.378 L 62.2583, 199.251 L 61.6344, 200 L 60.8858, 200.499 L 60.3868, 200.624 L 58.64, 200.749 L 58.2658, 201.372 L 28.9457, 188.896 z "/>
<path style="fill:rgb(255, 0, 0);fill-opacity:0;fill-rule:evenodd;stroke:rgb(0, 155, 255);stroke-width:1;" d="M 36.9308, 185.652 L 40.549, 180.786 L 48.4092, 184.03 L 65.6269, 191.391 L 65.2527, 191.765 L 66.0012, 192.639 L 66.126, 193.512 L 65.8765, 194.261 L 65.3774, 195.009 L 64.6288, 195.508 L 64.1298, 195.758 L 63.6307, 195.883 L 62.2583, 195.883 L 61.884, 196.382 L 36.9308, 185.652 z "/>
<path style="fill:rgb(0, 255, 0);fill-opacity:0;fill-rule:evenodd;stroke:rgb(0, 155, 255);stroke-width:1;" d="M 49.1578, 171.179 L 52.9008, 166.064 L 76.7311, 176.294 L 72.9881, 181.41 L 57.5172, 174.797 L 49.1578, 171.179 z "/>
<path style="fill:rgb(0, 0, 255);fill-opacity:0;fill-rule:evenodd;stroke:rgb(0, 155, 255);stroke-width:1;" d="M 73.1129, 103.556 L 78.8522, 95.6956 L 94.1984, 102.183 L 88.5839, 110.044 L 73.1129, 103.556 z "/>
<path style="fill:rgb(255, 255, 0);fill-opacity:0;fill-rule:evenodd;stroke:rgb(0, 155, 255);stroke-width:1;" d="M 52.9008, 166.064 L 56.519, 161.198 L 59.0143, 162.196 L 80.3493, 171.304 L 76.7311, 176.294 L 52.9008, 166.064 z "/>
<path style="fill:rgb(255, 0, 0);fill-opacity:0;fill-rule:evenodd;stroke:rgb(0, 155, 255);stroke-width:1;" d="M 42.0462, 238.428 L 52.5265, 224.205 L 60.262, 227.449 L 49.7817, 241.672 L 42.0462, 238.428 z "/>
<path style="fill:rgb(0, 255, 0);fill-opacity:0;fill-rule:evenodd;stroke:rgb(0, 155, 255);stroke-width:1;" d="M 18.4654, 151.591 L 22.2084, 146.6 L 43.1691, 155.459 L 39.3013, 160.574 L 33.4373, 158.079 L 18.4654, 151.591 z "/>
<path style="fill:rgb(0, 0, 255);fill-opacity:0;fill-rule:evenodd;stroke:rgb(0, 155, 255);stroke-width:1;" d="M 48.0349, 177.168 L 51.1541, 172.926 L 57.0181, 175.421 L 57.5172, 174.797 L 72.9881, 181.41 L 69.3699, 186.276 L 54.398, 179.913 L 48.0349, 177.168 z "/>
<path style="fill:rgb(255, 255, 0);fill-opacity:0;fill-rule:evenodd;stroke:rgb(0, 155, 255);stroke-width:1;" d="M 21.7093, 229.819 L 32.1896, 215.596 L 39.1765, 218.59 L 28.821, 232.813 L 21.7093, 229.819 z "/>
<path style="fill:rgb(255, 0, 0);fill-opacity:0;fill-rule:evenodd;stroke:rgb(0, 155, 255);stroke-width:1;" d="M 35.184, 235.558 L 45.5396, 221.21 L 52.5265, 224.205 L 42.0462, 238.428 L 35.184, 235.558 z "/>
<path style="fill:rgb(0, 255, 0);fill-opacity:0;fill-rule:evenodd;stroke:rgb(0, 155, 255);stroke-width:1;" d="M 2.24579, 221.585 L 12.7261, 207.361 L 19.4635, 210.231 L 9.10792, 224.454 L 2.24579, 221.585 z "/>
<path style="fill:rgb(0, 0, 255);fill-opacity:0;fill-rule:evenodd;stroke:rgb(0, 155, 255);stroke-width:1;" d="M 15.2215, 227.074 L 25.7018, 212.851 L 32.1896, 215.596 L 21.7093, 229.819 L 15.2215, 227.074 z "/>
<path style="fill:rgb(255, 255, 0);fill-opacity:0;fill-rule:evenodd;stroke:rgb(0, 155, 255);stroke-width:1;" d="M 28.821, 232.813 L 39.1765, 218.59 L 45.5396, 221.21 L 35.184, 235.558 L 28.821, 232.813 z "/>
<path style="fill:rgb(255, 0, 0);fill-opacity:0;fill-rule:evenodd;stroke:rgb(0, 155, 255);stroke-width:1;" d="M 9.10792, 224.454 L 19.4635, 210.231 L 25.7018, 212.851 L 15.2215, 227.074 L 9.10792, 224.454 z "/>
<path style="fill:rgb(0, 255, 0);fill-opacity:0;fill-rule:evenodd;stroke:rgb(0, 155, 255);stroke-width:1;" d="M 48.4092, 184.03 L 49.7817, 182.034 L 52.0274, 183.032 L 54.398, 179.913 L 69.3699, 186.276 L 65.6269, 191.391 L 48.4092, 184.03 z "/>
<path style="fill:rgb(0, 0, 255);fill-opacity:0;fill-rule:evenodd;stroke:rgb(0, 155, 255);stroke-width:1;" d="M 14.4729, 156.956 L 18.4654, 151.591 L 33.4373, 158.079 L 29.4448, 163.444 L 14.4729, 156.956 z "/>
<path style="fill:rgb(255, 255, 0);fill-opacity:0;fill-rule:evenodd;stroke:rgb(0, 155, 255);stroke-width:1;" d="M 650.281, 225.203 L 660.387, 222.333 L 663.256, 228.447 L 653.15, 231.316 L 650.281, 225.203 z "/>
<path style="fill:rgb(255, 0, 0);fill-opacity:0;fill-rule:evenodd;stroke:rgb(0, 155, 255);stroke-width:1;" d="M 512.04, 476.482 L 518.777, 471.74 L 525.016, 476.856 L 518.278, 481.597 L 512.04, 476.482 z "/>
<path style="fill:rgb(0, 255, 0);fill-opacity:0;fill-rule:evenodd;stroke:rgb(0, 155, 255);stroke-width:1;" d="M 0, 176.544 L 12.4766, 159.701 L 31.3163, 167.686 L 29.0705, 170.68 L 39.1765, 175.047 L 32.5639, 183.905 L 28.9457, 188.896 L 0, 176.544 z "/>
</svg>