<?xml version="1.0" encoding="iso-8859-1" standalone="no"?>
<!DOCTYPE svg PUBLIC "-//W3C//DTD SVG 1.0//EN" "http://www.w3.org/TR/2001/REC-SVG-20010904/DTD/svg10.dtd">
<svg xmlns="http://www.w3.org/2000/svg" width="1022" height="800">
<path style="fill:rgb(255, 0, 0);fill-opacity:0;fill-rule:evenodd;stroke:rgb(21, 255, 0);stroke-width:1;" d="M 778.633, 197.518 L 805.889, 160 L 804.879, 159.664 L 840.21, 111.209 L 1011.99, 183.722 L 949.064, 269.863 L 946.877, 268.854 L 946.372, 269.527 L 929.211, 262.292 L 930.389, 260.442 L 890.179, 243.449 L 889.001, 244.963 L 871.335, 237.56 L 871.504, 237.056 L 845.089, 225.952 L 844.585, 226.625 L 826.246, 219.054 L 827.087, 217.876 L 778.633, 197.518 z "/>
<path style="fill:rgb(0, 255, 0);fill-opacity:0;fill-rule:evenodd;stroke:rgb(21, 255, 0);stroke-width:1;" d="M 408.665, 201.388 L 429.863, 102.461 L 430.032, 102.124 L 453.249, 112.05 L 482.355, 124.332 L 538.885, 148.559 L 543.596, 193.312 L 540.568, 257.077 L 540.568, 257.581 L 408.665, 201.388 z "/>
<path style="fill:rgb(0, 0, 255);fill-opacity:0;fill-rule:evenodd;stroke:rgb(21, 255, 0);stroke-width:1;" d="M 740.778, 342.04 L 745.657, 335.647 L 747.34, 333.123 L 760.126, 315.962 L 761.809, 313.27 L 781.661, 286.183 L 787.886, 277.771 L 798.822, 262.965 L 801.514, 259.096 L 807.066, 261.451 L 928.202, 312.261 L 933.586, 314.616 L 930.726, 318.822 L 922.65, 329.422 L 919.79, 333.46 L 912.555, 343.218 L 902.292, 357.182 L 898.254, 355.499 L 897.581, 356.341 L 890.011, 353.144 L 890.683, 352.135 L 889.674, 351.798 L 864.101, 340.862 L 862.082, 341.199 L 850.305, 343.554 L 842.229, 345.573 L 839.369, 349.611 L 825.068, 369.127 L 820.358, 375.689 L 740.778, 342.04 z "/>
<path style="fill:rgb(255, 255, 0);fill-opacity:0;fill-rule:evenodd;stroke:rgb(21, 255, 0);stroke-width:1;" d="M 408.665, 201.388 L 429.863, 102.461 L 430.032, 102.124 L 453.249, 112.05 L 449.38, 134.09 L 443.155, 165.552 L 486.225, 183.722 L 486.898, 207.781 L 523.239, 223.091 L 525.089, 193.144 L 524.08, 162.86 L 490.095, 148.728 L 488.244, 150.915 L 476.299, 145.699 L 482.355, 124.332 L 538.885, 148.559 L 543.596, 193.312 L 540.568, 257.077 L 540.568, 257.581 L 408.665, 201.388 z "/>
<path style="fill:rgb(255, 0, 0);fill-opacity:0;fill-rule:evenodd;stroke:rgb(21, 255, 0);stroke-width:1;" d="M 258.591, 681.22 L 268.181, 667.592 L 264.311, 665.91 L 271.546, 655.478 L 271.041, 655.31 L 287.865, 630.747 L 290.557, 631.924 L 299.642, 618.801 L 303.344, 620.315 L 312.597, 607.024 L 337.161, 616.951 L 327.907, 630.41 L 332.282, 632.261 L 325.384, 642.187 L 327.571, 643.028 L 325.552, 645.889 L 340.189, 651.777 L 341.535, 649.758 L 382.25, 666.078 L 380.063, 669.274 L 394.532, 674.995 L 396.215, 672.471 L 398.738, 673.481 L 405.636, 663.722 L 410.347, 665.573 L 419.6, 652.282 L 443.155, 661.872 L 442.145, 665.91 L 435.079, 676.004 L 439.117, 677.687 L 432.387, 687.445 L 434.742, 688.454 L 415.226, 716.551 L 411.525, 715.037 L 404.627, 725.131 L 399.916, 723.281 L 390.662, 736.404 L 370.305, 728.328 L 372.66, 724.963 L 367.95, 722.944 L 375.184, 712.681 L 371.314, 711.167 L 378.212, 701.073 L 376.362, 700.4 L 378.212, 697.708 L 363.407, 691.819 L 361.725, 694.175 L 320.841, 677.855 L 323.197, 674.49 L 308.896, 668.77 L 307.213, 671.293 L 304.185, 670.116 L 297.455, 679.874 L 292.913, 678.191 L 283.828, 691.314 L 258.591, 681.22 z "/>
<path style="fill:rgb(0, 255, 0);fill-opacity:0;fill-rule:evenodd;stroke:rgb(21, 255, 0);stroke-width:1;" d="M 113.733, 619.642 L 114.406, 618.97 L 131.567, 595.247 L 140.484, 583.302 L 173.628, 597.434 L 193.144, 570.852 L 200.547, 560.589 L 259.432, 585.657 L 205.931, 658.675 L 113.733, 619.642 z "/>
<path style="fill:rgb(0, 0, 255);fill-opacity:0;fill-rule:evenodd;stroke:rgb(21, 255, 0);stroke-width:1;" d="M 587.676, 172.114 L 589.695, 169.253 L 668.433, 202.734 L 655.142, 220.904 L 650.768, 226.961 L 635.626, 247.655 L 641.009, 249.842 L 641.178, 255.731 L 631.42, 269.19 L 616.446, 289.548 L 587.676, 277.434 L 593.396, 242.944 L 594.069, 229.485 L 593.901, 224.774 L 605.51, 208.959 L 591.377, 202.902 L 590.705, 198.864 L 590.368, 195.668 L 590.032, 191.966 L 589.695, 188.77 L 589.19, 185.237 L 588.854, 182.04 L 588.349, 178.507 L 588.013, 175.31 L 587.676, 172.114 z "/>
<path style="fill:rgb(255, 255, 0);fill-opacity:0;fill-rule:evenodd;stroke:rgb(21, 255, 0);stroke-width:1;" d="M 509.611, 657.834 L 513.481, 643.533 L 517.182, 638.318 L 514.658, 637.813 L 518.191, 623.007 L 518.696, 622.334 L 519.033, 622.166 L 519.874, 621.83 L 520.883, 621.998 L 538.549, 629.569 L 549.821, 614.09 L 523.575, 603.155 L 527.613, 585.489 L 530.978, 580.946 L 528.959, 579.937 L 531.314, 569.842 L 531.987, 568.833 L 532.997, 568.496 L 534.511, 568.496 L 610.894, 600.631 L 587.676, 632.766 L 578.086, 628.728 L 579.432, 626.709 L 570.179, 622.839 L 558.233, 639.159 L 567.319, 643.028 L 568.328, 641.682 L 577.581, 645.72 L 572.534, 652.618 L 575.226, 653.796 L 557.56, 678.023 L 537.708, 669.611 L 541.577, 664.227 L 531.483, 660.021 L 527.613, 665.405 L 509.611, 657.834 z "/>
<path style="fill:rgb(255, 0, 0);fill-opacity:0;fill-rule:evenodd;stroke:rgb(21, 255, 0);stroke-width:1;" d="M 823.218, 647.907 L 872.177, 580.946 L 889.506, 588.181 L 895.563, 579.937 L 912.723, 587.171 L 912.387, 587.676 L 936.782, 598.107 L 931.23, 605.678 L 927.024, 603.996 L 914.069, 621.83 L 913.396, 622.839 L 886.141, 611.399 L 883.113, 615.605 L 882.608, 618.801 L 881.43, 622.166 L 880.757, 623.68 L 878.906, 626.709 L 876.719, 629.569 L 874.027, 632.261 L 870.999, 634.616 L 867.634, 636.803 L 864.942, 640.673 L 899.096, 654.974 L 905.152, 657.497 L 908.013, 658.843 L 907.34, 659.853 L 894.217, 677.687 L 889.001, 684.753 L 852.829, 669.611 L 852.156, 670.452 L 834.995, 663.218 L 840.715, 655.142 L 823.218, 647.907 z "/>
<path style="fill:rgb(0, 255, 0);fill-opacity:0;fill-rule:evenodd;stroke:rgb(21, 255, 0);stroke-width:1;" d="M 171.777, 459.306 L 181.535, 446.351 L 179.853, 443.996 L 193.481, 425.152 L 300.484, 470.074 L 292.24, 503.722 L 241.598, 496.993 L 234.7, 495.983 L 237.56, 484.879 L 229.821, 484.374 L 231.84, 475.457 L 229.989, 474.616 L 224.437, 482.355 L 204.753, 474.111 L 209.968, 466.036 L 192.639, 459.642 L 188.097, 466.709 L 171.777, 459.306 z M 250.347, 486.562 L 268.181, 488.917 L 268.013, 481.178 L 257.75, 477.981 L 255.563, 482.187 L 251.693, 481.009 L 250.347, 486.562 z "/>
<path style="fill:rgb(0, 0, 255);fill-opacity:0;fill-rule:evenodd;stroke:rgb(21, 255, 0);stroke-width:1;" d="M 188.433, 390.999 L 189.443, 389.485 L 214.343, 355.499 L 258.927, 374.343 L 248.16, 413.544 L 260.442, 396.046 L 313.27, 405.973 L 305.699, 440.631 L 188.433, 390.999 z "/>
<path style="fill:rgb(255, 255, 0);fill-opacity:0;fill-rule:evenodd;stroke:rgb(21, 255, 0);stroke-width:1;" d="M 887.823, 544.774 L 910.536, 513.649 L 944.522, 527.95 L 931.062, 546.288 L 938.128, 549.317 L 938.801, 548.307 L 941.157, 549.317 L 940.315, 550.158 L 950.41, 554.532 L 971.272, 525.762 L 997.182, 536.698 L 982.208, 557.224 L 1022.42, 574.217 L 1008.96, 592.723 L 942.166, 564.627 L 940.484, 566.982 L 887.823, 544.774 z "/>
<path style="fill:rgb(255, 0, 0);fill-opacity:0;fill-rule:evenodd;stroke:rgb(21, 255, 0);stroke-width:1;" d="M 539.895, 526.267 L 539.895, 524.753 L 540.4, 521.725 L 545.279, 503.218 L 581.115, 508.433 L 587.34, 509.443 L 605.005, 512.135 L 603.323, 518.696 L 641.514, 534.343 L 617.119, 568.833 L 590.032, 557.729 L 588.686, 559.748 L 554.7, 545.952 L 551.335, 544.269 L 548.475, 542.25 L 547.129, 541.241 L 545.952, 540.063 L 543.764, 537.539 L 542.082, 534.848 L 541.409, 533.502 L 540.4, 530.641 L 540.063, 529.127 L 539.895, 526.267 z "/>
<path style="fill:rgb(0, 255, 0);fill-opacity:0;fill-rule:evenodd;stroke:rgb(21, 255, 0);stroke-width:1;" d="M 631.42, 269.19 L 641.178, 255.731 L 667.76, 267.003 L 680.21, 250.011 L 674.995, 247.823 L 671.293, 252.871 L 652.955, 245.131 L 666.246, 227.129 L 660.021, 224.606 L 660.862, 223.26 L 655.142, 220.904 L 668.433, 202.734 L 720.925, 224.942 L 700.904, 252.029 L 681.22, 279.117 L 664.9, 301.325 L 635.626, 289.043 L 637.476, 286.351 L 631.42, 283.828 L 639.664, 272.723 L 631.42, 269.19 z "/>
<path style="fill:rgb(0, 0, 255);fill-opacity:0;fill-rule:evenodd;stroke:rgb(21, 255, 0);stroke-width:1;" d="M 725.973, 576.909 L 732.029, 568.496 L 736.404, 562.44 L 750.536, 542.587 L 763.828, 524.248 L 791.756, 535.857 L 816.32, 545.952 L 799.159, 570.011 L 778.633, 598.612 L 746.162, 585.321 L 725.973, 576.909 z "/>
<path style="fill:rgb(255, 255, 0);fill-opacity:0;fill-rule:evenodd;stroke:rgb(21, 255, 0);stroke-width:1;" d="M 345.741, 471.42 L 352.808, 447.192 L 418.086, 458.128 L 440.294, 461.83 L 491.272, 470.242 L 484.374, 494.637 L 458.128, 490.263 L 421.115, 484.038 L 392.008, 479.159 L 345.741, 471.42 z "/>
<path style="fill:rgb(255, 0, 0);fill-opacity:0;fill-rule:evenodd;stroke:rgb(21, 255, 0);stroke-width:1;" d="M 568.16, 409.842 L 575.394, 377.708 L 602.65, 375.184 L 603.155, 381.577 L 620.988, 389.148 L 627.045, 380.904 L 655.31, 392.85 L 649.253, 401.094 L 659.348, 405.468 L 653.291, 413.88 L 653.46, 414.048 L 635.794, 438.275 L 568.16, 409.842 z "/>
<path style="fill:rgb(0, 255, 0);fill-opacity:0;fill-rule:evenodd;stroke:rgb(21, 255, 0);stroke-width:1;" d="M 787.886, 277.771 L 798.822, 262.965 L 804.206, 265.321 L 925.174, 316.467 L 930.726, 318.822 L 922.65, 329.422 L 919.79, 333.46 L 867.802, 311.42 L 855.857, 327.571 L 850.473, 334.974 L 838.36, 329.758 L 823.722, 323.533 L 836.677, 306.036 L 840.883, 300.147 L 831.462, 296.278 L 787.886, 277.771 z "/>
<path style="fill:rgb(0, 0, 255);fill-opacity:0;fill-rule:evenodd;stroke:rgb(21, 255, 0);stroke-width:1;" d="M 622.671, 514.995 L 638.654, 492.618 L 640.505, 489.926 L 664.227, 495.31 L 659.853, 501.199 L 663.554, 502.881 L 660.189, 507.424 L 663.891, 508.938 L 701.409, 524.248 L 696.698, 530.81 L 689.632, 540.904 L 686.435, 545.279 L 684.585, 547.971 L 667.592, 572.029 L 628.896, 556.046 L 647.739, 529.464 L 644.879, 528.286 L 647.066, 525.089 L 622.671, 514.995 z "/>
<path style="fill:rgb(255, 255, 0);fill-opacity:0;fill-rule:evenodd;stroke:rgb(21, 255, 0);stroke-width:1;" d="M 545.279, 503.218 L 553.523, 470.41 L 560.421, 439.621 L 622.334, 464.858 L 617.624, 471.42 L 611.567, 479.832 L 605.678, 487.907 L 603.659, 487.066 L 587.34, 509.443 L 581.115, 508.433 L 545.279, 503.218 z "/>
<path style="fill:rgb(255, 0, 0);fill-opacity:0;fill-rule:evenodd;stroke:rgb(21, 255, 0);stroke-width:1;" d="M 295.605, 154.953 L 321.851, 120.294 L 328.749, 123.155 L 328.749, 118.78 L 374.679, 125.51 L 362.061, 182.376 L 295.605, 154.953 z "/>
<path style="fill:rgb(0, 255, 0);fill-opacity:0;fill-rule:evenodd;stroke:rgb(21, 255, 0);stroke-width:1;" d="M 376.193, 331.945 L 381.073, 310.747 L 381.914, 310.747 L 449.38, 322.019 L 455.436, 323.197 L 457.624, 314.111 L 472.597, 316.13 L 470.242, 326.225 L 461.325, 364.585 L 458.97, 366.94 L 376.193, 331.945 z "/>
<path style="fill:rgb(0, 0, 255);fill-opacity:0;fill-rule:evenodd;stroke:rgb(21, 255, 0);stroke-width:1;" d="M 470.242, 326.225 L 472.597, 316.13 L 474.448, 308.559 L 482.187, 275.752 L 484.206, 266.667 L 484.543, 265.657 L 536.193, 287.192 L 525.258, 333.796 L 514.322, 332.282 L 512.976, 332.114 L 496.32, 329.758 L 471.251, 326.393 L 470.242, 326.225 z "/>
<path style="fill:rgb(255, 255, 0);fill-opacity:0;fill-rule:evenodd;stroke:rgb(21, 255, 0);stroke-width:1;" d="M 341.367, 562.103 L 342.713, 557.729 L 343.386, 555.205 L 349.443, 556.215 L 351.462, 549.653 L 375.689, 553.859 L 373.502, 561.262 L 398.906, 565.636 L 401.598, 556.383 L 419.264, 559.411 L 421.115, 552.681 L 433.396, 554.7 L 437.603, 540.904 L 424.479, 538.717 L 426.667, 531.146 L 417.413, 529.632 L 418.927, 524.416 L 408.16, 522.566 L 410.852, 513.481 L 405.3, 512.471 L 407.319, 505.405 L 414.553, 506.583 L 441.136, 511.125 L 434.911, 531.483 L 443.659, 532.997 L 441.136, 541.577 L 464.69, 545.615 L 462.166, 554.027 L 470.41, 555.373 L 461.325, 585.657 L 426.498, 579.6 L 430.032, 567.823 L 432.05, 568.16 L 434.911, 559.075 L 421.956, 556.887 L 416.404, 575.058 L 343.218, 562.44 L 341.367, 562.103 z "/>
<path style="fill:rgb(255, 0, 0);fill-opacity:0;fill-rule:evenodd;stroke:rgb(21, 255, 0);stroke-width:1;" d="M 338.002, 539.895 L 341.703, 526.94 L 348.433, 527.95 L 350.452, 520.883 L 381.914, 526.099 L 384.101, 518.696 L 408.16, 522.566 L 418.927, 524.416 L 417.413, 529.632 L 426.667, 531.146 L 424.479, 538.717 L 437.603, 540.904 L 433.396, 554.7 L 421.115, 552.681 L 419.264, 559.411 L 401.598, 556.383 L 398.906, 565.636 L 373.502, 561.262 L 375.689, 553.859 L 351.462, 549.653 L 342.713, 548.307 L 344.9, 541.073 L 338.002, 539.895 z "/>
<path style="fill:rgb(0, 255, 0);fill-opacity:0;fill-rule:evenodd;stroke:rgb(21, 255, 0);stroke-width:1;" d="M 545.279, 503.218 L 560.421, 439.621 L 622.334, 464.858 L 617.624, 471.42 L 611.567, 479.832 L 605.678, 487.907 L 603.659, 487.066 L 596.425, 484.038 L 588.349, 480.673 L 581.115, 508.433 L 545.279, 503.218 z "/>
<path style="fill:rgb(0, 0, 255);fill-opacity:0;fill-rule:evenodd;stroke:rgb(21, 255, 0);stroke-width:1;" d="M 700.904, 252.029 L 720.925, 224.942 L 801.514, 259.096 L 798.822, 262.965 L 787.886, 277.771 L 781.661, 286.183 L 700.904, 252.029 z "/>
<path style="fill:rgb(255, 255, 0);fill-opacity:0;fill-rule:evenodd;stroke:rgb(21, 255, 0);stroke-width:1;" d="M 760.463, 719.075 L 791.588, 677.182 L 843.575, 699.558 L 815.815, 737.077 L 789.401, 725.804 L 786.204, 730.011 L 760.463, 719.075 z "/>
<path style="fill:rgb(255, 0, 0);fill-opacity:0;fill-rule:evenodd;stroke:rgb(21, 255, 0);stroke-width:1;" d="M 198.36, 253.544 L 223.26, 219.054 L 227.129, 213.67 L 271.714, 232.345 L 270.032, 234.7 L 278.275, 238.065 L 273.901, 244.122 L 251.188, 275.584 L 198.36, 253.544 z "/>
<path style="fill:rgb(0, 255, 0);fill-opacity:0;fill-rule:evenodd;stroke:rgb(21, 255, 0);stroke-width:1;" d="M 391.672, 277.771 L 397.392, 253.039 L 452.744, 260.61 L 454.09, 254.721 L 484.206, 266.667 L 482.187, 275.752 L 474.448, 308.559 L 458.97, 306.54 L 461.998, 294.09 L 447.192, 292.072 L 448.707, 285.678 L 441.977, 284.669 L 391.672, 277.771 z "/>
<path style="fill:rgb(0, 0, 255);fill-opacity:0;fill-rule:evenodd;stroke:rgb(21, 255, 0);stroke-width:1;" d="M 746.162, 585.321 L 770.726, 550.999 L 750.536, 542.587 L 763.828, 524.248 L 791.756, 535.857 L 816.32, 545.952 L 799.159, 570.011 L 778.633, 598.612 L 746.162, 585.321 z "/>
<path style="fill:rgb(255, 255, 0);fill-opacity:0;fill-rule:evenodd;stroke:rgb(21, 255, 0);stroke-width:1;" d="M 728.16, 478.318 L 750.705, 447.361 L 772.744, 456.614 L 777.792, 449.716 L 776.446, 449.043 L 779.642, 444.837 L 780.988, 445.342 L 784.858, 439.958 L 762.818, 430.705 L 789.401, 394.364 L 815.478, 405.468 L 785.195, 446.856 L 790.578, 449.211 L 779.811, 464.185 L 765.342, 484.038 L 762.818, 487.571 L 758.612, 490.431 L 743.638, 484.206 L 728.16, 478.318 z "/>
<path style="fill:rgb(255, 0, 0);fill-opacity:0;fill-rule:evenodd;stroke:rgb(21, 255, 0);stroke-width:1;" d="M 760.126, 315.962 L 761.809, 313.27 L 781.661, 286.183 L 787.886, 277.771 L 831.462, 296.278 L 840.883, 300.147 L 836.677, 306.036 L 823.722, 323.533 L 817.497, 332.114 L 814.301, 336.488 L 809.59, 337.329 L 805.216, 335.31 L 772.913, 321.346 L 760.126, 315.962 z "/>
<path style="fill:rgb(0, 255, 0);fill-opacity:0;fill-rule:evenodd;stroke:rgb(21, 255, 0);stroke-width:1;" d="M 655.815, 588.349 L 667.592, 572.029 L 684.585, 547.971 L 732.029, 568.496 L 725.973, 576.909 L 703.764, 608.202 L 655.815, 588.349 z "/>
<path style="fill:rgb(0, 0, 255);fill-opacity:0;fill-rule:evenodd;stroke:rgb(21, 255, 0);stroke-width:1;" d="M 191.293, 523.07 L 215.689, 489.59 L 218.549, 485.384 L 233.523, 491.609 L 231.504, 494.301 L 232.008, 496.488 L 238.065, 497.161 L 236.215, 502.04 L 235.373, 505.91 L 234.196, 512.135 L 229.317, 518.864 L 254.89, 529.632 L 255.058, 529.8 L 284.332, 537.035 L 280.967, 550.999 L 278.78, 559.916 L 191.293, 523.07 z "/>
<path style="fill:rgb(255, 255, 0);fill-opacity:0;fill-rule:evenodd;stroke:rgb(21, 255, 0);stroke-width:1;" d="M 787.886, 277.771 L 798.822, 262.965 L 804.206, 265.321 L 799.664, 271.377 L 850.473, 292.913 L 869.821, 301.157 L 920.631, 322.692 L 925.174, 316.467 L 930.726, 318.822 L 922.65, 329.422 L 919.79, 333.46 L 867.802, 311.42 L 855.857, 327.571 L 850.473, 334.974 L 838.36, 329.758 L 823.722, 323.533 L 836.677, 306.036 L 840.883, 300.147 L 831.462, 296.278 L 787.886, 277.771 z "/>
<path style="fill:rgb(255, 0, 0);fill-opacity:0;fill-rule:evenodd;stroke:rgb(21, 255, 0);stroke-width:1;" d="M 664.9, 301.325 L 681.22, 279.117 L 761.809, 313.27 L 760.126, 315.962 L 747.34, 333.123 L 745.657, 335.647 L 664.9, 301.325 z "/>
<path style="fill:rgb(0, 255, 0);fill-opacity:0;fill-rule:evenodd;stroke:rgb(21, 255, 0);stroke-width:1;" d="M 746.162, 585.321 L 770.726, 550.999 L 750.536, 542.587 L 763.828, 524.248 L 791.756, 535.857 L 787.382, 541.577 L 805.889, 549.317 L 792.934, 567.487 L 799.159, 570.011 L 778.633, 598.612 L 746.162, 585.321 z "/>
<path style="fill:rgb(0, 0, 255);fill-opacity:0;fill-rule:evenodd;stroke:rgb(21, 255, 0);stroke-width:1;" d="M 587.676, 277.434 L 593.396, 242.944 L 594.069, 229.485 L 623.344, 240.757 L 637.645, 221.241 L 650.768, 226.961 L 635.626, 247.655 L 641.009, 249.842 L 641.178, 255.731 L 631.42, 269.19 L 616.446, 289.548 L 587.676, 277.434 z "/>
<path style="fill:rgb(255, 255, 0);fill-opacity:0;fill-rule:evenodd;stroke:rgb(21, 255, 0);stroke-width:1;" d="M 443.155, 165.552 L 449.38, 134.09 L 476.299, 145.699 L 488.244, 150.915 L 512.303, 161.178 L 515.163, 196.341 L 486.225, 183.722 L 443.155, 165.552 z "/>
<path style="fill:rgb(255, 0, 0);fill-opacity:0;fill-rule:evenodd;stroke:rgb(21, 255, 0);stroke-width:1;" d="M 587.676, 172.114 L 589.695, 169.253 L 668.433, 202.734 L 655.142, 220.904 L 650.768, 226.961 L 637.645, 221.241 L 605.51, 208.959 L 591.377, 202.902 L 590.705, 198.864 L 590.368, 195.668 L 590.032, 191.966 L 589.695, 188.77 L 589.19, 185.237 L 588.854, 182.04 L 588.349, 178.507 L 588.013, 175.31 L 587.676, 172.114 z "/>
<path style="fill:rgb(0, 255, 0);fill-opacity:0;fill-rule:evenodd;stroke:rgb(21, 255, 0);stroke-width:1;" d="M 587.676, 172.114 L 589.695, 169.253 L 668.433, 202.734 L 655.142, 220.904 L 650.768, 226.961 L 637.645, 221.241 L 605.51, 208.959 L 591.377, 202.902 L 590.705, 198.864 L 592.555, 196.677 L 590.368, 195.668 L 590.032, 191.966 L 591.714, 189.779 L 589.695, 188.77 L 589.19, 185.237 L 591.041, 183.049 L 588.854, 182.04 L 588.349, 178.507 L 590.2, 176.151 L 588.013, 175.31 L 587.676, 172.114 z "/>
<path style="fill:rgb(0, 0, 255);fill-opacity:0;fill-rule:evenodd;stroke:rgb(21, 255, 0);stroke-width:1;" d="M 563.449, 680.547 L 582.461, 654.637 L 648.244, 682.734 L 629.232, 708.475 L 563.449, 680.547 z "/>
<path style="fill:rgb(255, 255, 0);fill-opacity:0;fill-rule:evenodd;stroke:rgb(21, 255, 0);stroke-width:1;" d="M 364.585, 401.767 L 372.156, 362.397 L 375.184, 360.883 L 438.107, 386.961 L 435.584, 389.317 L 435.079, 390.831 L 448.202, 396.215 L 437.603, 410.179 L 429.022, 406.477 L 430.368, 404.627 L 404.795, 394.532 L 400.757, 408.16 L 364.585, 401.767 z "/>
<path style="fill:rgb(255, 0, 0);fill-opacity:0;fill-rule:evenodd;stroke:rgb(21, 255, 0);stroke-width:1;" d="M 248.496, 354.49 L 250.515, 346.414 L 258.927, 311.924 L 327.403, 340.862 L 323.365, 359.706 L 268.181, 349.947 L 263.807, 349.106 L 261.956, 357.35 L 248.496, 354.49 z "/>
<path style="fill:rgb(0, 255, 0);fill-opacity:0;fill-rule:evenodd;stroke:rgb(21, 255, 0);stroke-width:1;" d="M 703.764, 608.202 L 725.973, 576.909 L 746.162, 585.321 L 778.633, 598.612 L 756.257, 629.905 L 703.764, 608.202 z "/>
<path style="fill:rgb(0, 0, 255);fill-opacity:0;fill-rule:evenodd;stroke:rgb(21, 255, 0);stroke-width:1;" d="M 578.086, 114.238 L 581.956, 109.022 L 597.098, 87.6551 L 604.164, 90.6835 L 629.569, 101.115 L 636.635, 103.975 L 650.599, 109.695 L 646.73, 115.079 L 653.796, 117.939 L 649.926, 123.323 L 656.993, 126.183 L 649.253, 136.782 L 642.355, 133.922 L 638.486, 139.138 L 617.455, 130.557 L 585.152, 117.098 L 578.086, 114.238 z "/>
<path style="fill:rgb(255, 255, 0);fill-opacity:0;fill-rule:evenodd;stroke:rgb(21, 255, 0);stroke-width:1;" d="M 677.855, 148.391 L 685.426, 137.792 L 692.492, 140.652 L 696.362, 135.436 L 703.26, 138.297 L 707.129, 132.913 L 721.094, 138.801 L 728.16, 141.661 L 753.565, 152.261 L 760.463, 155.289 L 745.152, 176.32 L 741.283, 181.703 L 734.217, 178.675 L 701.914, 165.216 L 680.883, 156.467 L 684.753, 151.251 L 677.855, 148.391 z "/>
<path style="fill:rgb(255, 0, 0);fill-opacity:0;fill-rule:evenodd;stroke:rgb(21, 255, 0);stroke-width:1;" d="M 581.956, 109.022 L 597.098, 87.6551 L 604.164, 90.6835 L 629.569, 101.115 L 636.635, 103.975 L 650.599, 109.695 L 646.73, 115.079 L 653.796, 117.939 L 649.926, 123.323 L 656.993, 126.183 L 649.253, 136.782 L 642.355, 133.922 L 638.486, 139.138 L 617.455, 130.557 L 585.152, 117.098 L 588.854, 111.882 L 581.956, 109.022 z "/>
<path style="fill:rgb(0, 255, 0);fill-opacity:0;fill-rule:evenodd;stroke:rgb(21, 255, 0);stroke-width:1;" d="M 677.855, 148.391 L 685.426, 137.792 L 692.492, 140.652 L 696.362, 135.436 L 703.26, 138.297 L 707.129, 132.913 L 721.094, 138.801 L 728.16, 141.661 L 753.565, 152.261 L 760.463, 155.289 L 745.152, 176.32 L 738.086, 173.46 L 734.217, 178.675 L 701.914, 165.216 L 680.883, 156.467 L 684.753, 151.251 L 677.855, 148.391 z "/>
<path style="fill:rgb(0, 0, 255);fill-opacity:0;fill-rule:evenodd;stroke:rgb(21, 255, 0);stroke-width:1;" d="M 470.242, 326.225 L 472.597, 316.13 L 474.448, 308.559 L 482.187, 275.752 L 523.743, 292.576 L 514.322, 332.282 L 512.976, 332.114 L 496.32, 329.758 L 471.251, 326.393 L 470.242, 326.225 z "/>
<path style="fill:rgb(255, 255, 0);fill-opacity:0;fill-rule:evenodd;stroke:rgb(21, 255, 0);stroke-width:1;" d="M 750.705, 337.666 L 752.387, 335.142 L 760.294, 338.507 L 772.913, 321.346 L 805.216, 335.31 L 809.59, 337.329 L 814.301, 336.488 L 817.497, 332.114 L 823.722, 323.533 L 838.36, 329.758 L 833.985, 335.983 L 834.49, 337.666 L 832.639, 340.189 L 830.789, 340.358 L 827.76, 344.564 L 839.369, 349.611 L 825.068, 369.127 L 750.705, 337.666 z "/>
<path style="fill:rgb(255, 0, 0);fill-opacity:0;fill-rule:evenodd;stroke:rgb(21, 255, 0);stroke-width:1;" d="M 717.056, 473.607 L 746.498, 433.228 L 748.013, 431.209 L 733.375, 424.984 L 738.591, 417.75 L 763.491, 383.596 L 789.401, 394.364 L 762.818, 430.705 L 750.705, 447.361 L 728.16, 478.318 L 722.44, 475.794 L 717.056, 473.607 z "/>
<path style="fill:rgb(0, 255, 0);fill-opacity:0;fill-rule:evenodd;stroke:rgb(21, 255, 0);stroke-width:1;" d="M 899.096, 654.974 L 924.164, 627.213 L 914.069, 621.83 L 927.024, 603.996 L 931.23, 605.678 L 936.782, 598.107 L 973.46, 613.417 L 954.111, 639.832 L 942.671, 655.647 L 929.548, 649.926 L 933.417, 644.543 L 920.799, 639.159 L 905.152, 657.497 L 899.096, 654.974 z "/>
<path style="fill:rgb(0, 0, 255);fill-opacity:0;fill-rule:evenodd;stroke:rgb(21, 255, 0);stroke-width:1;" d="M 110.873, 301.157 L 120.126, 288.538 L 115.247, 286.519 L 118.78, 281.64 L 110.873, 278.275 L 126.183, 257.245 L 176.488, 278.612 L 161.514, 299.138 L 149.905, 294.259 L 147.045, 297.96 L 143.512, 296.446 L 136.109, 306.54 L 141.325, 308.728 L 140.147, 310.41 L 136.951, 314.616 L 131.903, 312.429 L 133.249, 310.747 L 110.873, 301.157 z "/>
<path style="fill:rgb(255, 255, 0);fill-opacity:0;fill-rule:evenodd;stroke:rgb(21, 255, 0);stroke-width:1;" d="M 793.607, 193.481 L 818.507, 158.822 L 862.419, 176.993 L 837.518, 211.651 L 793.607, 193.481 z "/>
<path style="fill:rgb(255, 0, 0);fill-opacity:0;fill-rule:evenodd;stroke:rgb(21, 255, 0);stroke-width:1;" d="M 162.692, 240.421 L 163.701, 239.075 L 186.919, 206.772 L 188.265, 205.089 L 187.424, 204.753 L 211.987, 170.768 L 222.923, 155.626 L 244.29, 164.543 L 218.381, 200.379 L 212.66, 198.023 L 203.407, 210.81 L 177.497, 246.646 L 162.692, 240.421 z "/>
<path style="fill:rgb(0, 255, 0);fill-opacity:0;fill-rule:evenodd;stroke:rgb(21, 255, 0);stroke-width:1;" d="M 471.251, 326.393 L 482.86, 276.93 L 522.566, 292.913 L 512.976, 332.114 L 496.32, 329.758 L 471.251, 326.393 z "/>
<path style="fill:rgb(0, 0, 255);fill-opacity:0;fill-rule:evenodd;stroke:rgb(21, 255, 0);stroke-width:1;" d="M 674.658, 455.773 L 704.269, 415.394 L 746.498, 433.228 L 717.056, 473.607 L 674.658, 455.773 z M 703.26, 445.51 L 719.075, 452.072 L 730.515, 435.752 L 714.869, 429.19 L 703.26, 445.51 z "/>
<path style="fill:rgb(255, 255, 0);fill-opacity:0;fill-rule:evenodd;stroke:rgb(21, 255, 0);stroke-width:1;" d="M 733.88, 752.723 L 760.463, 719.075 L 786.204, 730.011 L 802.86, 736.572 L 779.811, 767.865 L 769.884, 764.164 L 767.529, 767.192 L 733.88, 752.723 z "/>
<path style="fill:rgb(255, 0, 0);fill-opacity:0;fill-rule:evenodd;stroke:rgb(21, 255, 0);stroke-width:1;" d="M 468.223, 366.772 L 472.093, 350.452 L 478.486, 351.293 L 480.673, 341.872 L 493.123, 343.722 L 495.142, 334.974 L 496.32, 329.758 L 512.976, 332.114 L 514.322, 332.282 L 525.258, 333.796 L 513.817, 382.587 L 499.012, 380.568 L 499.853, 376.698 L 485.552, 374.848 L 486.393, 371.314 L 472.261, 369.464 L 472.766, 367.445 L 468.223, 366.772 z "/>
<path style="fill:rgb(0, 255, 0);fill-opacity:0;fill-rule:evenodd;stroke:rgb(21, 255, 0);stroke-width:1;" d="M 622.671, 514.995 L 638.654, 492.618 L 659.853, 501.199 L 663.554, 502.881 L 660.189, 507.424 L 663.891, 508.938 L 701.409, 524.248 L 696.698, 530.81 L 689.632, 540.904 L 686.435, 545.279 L 647.739, 529.464 L 644.879, 528.286 L 647.066, 525.089 L 622.671, 514.995 z "/>
<path style="fill:rgb(0, 0, 255);fill-opacity:0;fill-rule:evenodd;stroke:rgb(21, 255, 0);stroke-width:1;" d="M 128.034, 181.872 L 152.766, 153.27 L 169.253, 160.168 L 165.216, 165.216 L 166.562, 168.244 L 174.469, 171.777 L 177.497, 171.272 L 182.208, 165.552 L 197.014, 171.609 L 200.042, 172.955 L 178.17, 203.239 L 173.796, 201.388 L 161.682, 196.341 L 166.225, 189.947 L 152.093, 184.059 L 147.718, 190.116 L 144.858, 188.938 L 128.034, 181.872 z "/>
<path style="fill:rgb(255, 255, 0);fill-opacity:0;fill-rule:evenodd;stroke:rgb(21, 255, 0);stroke-width:1;" d="M 101.283, 212.997 L 128.034, 181.872 L 144.858, 188.938 L 137.96, 197.35 L 144.522, 200.042 L 147.382, 196.004 L 161.346, 201.893 L 155.289, 210.137 L 159.159, 211.819 L 145.026, 231.335 L 101.283, 212.997 z "/>
<path style="fill:rgb(255, 0, 0);fill-opacity:0;fill-rule:evenodd;stroke:rgb(21, 255, 0);stroke-width:1;" d="M 109.359, 488.58 L 133.081, 455.941 L 169.59, 471.251 L 145.868, 504.059 L 109.359, 488.58 z "/>
<path style="fill:rgb(0, 255, 0);fill-opacity:0;fill-rule:evenodd;stroke:rgb(21, 255, 0);stroke-width:1;" d="M 654.637, 386.288 L 657.329, 382.587 L 682.566, 348.433 L 683.239, 347.424 L 712.85, 360.042 L 684.248, 398.906 L 654.637, 386.288 z "/>
<path style="fill:rgb(0, 0, 255);fill-opacity:0;fill-rule:evenodd;stroke:rgb(21, 255, 0);stroke-width:1;" d="M 265.994, 281.809 L 283.828, 257.077 L 288.37, 257.918 L 298.801, 259.769 L 296.278, 263.134 L 302.671, 265.825 L 300.82, 269.359 L 309.232, 271.209 L 312.766, 262.292 L 343.554, 267.676 L 338.507, 289.211 L 297.455, 279.285 L 288.707, 291.23 L 265.994, 281.809 z "/>
<path style="fill:rgb(255, 255, 0);fill-opacity:0;fill-rule:evenodd;stroke:rgb(21, 255, 0);stroke-width:1;" d="M 468.223, 366.772 L 472.093, 350.452 L 478.486, 351.293 L 480.673, 341.872 L 493.123, 343.722 L 495.142, 334.974 L 518.023, 337.834 L 514.322, 353.144 L 517.35, 353.312 L 511.462, 378.381 L 499.853, 376.698 L 485.552, 374.848 L 486.393, 371.314 L 472.261, 369.464 L 472.766, 367.445 L 468.223, 366.772 z "/>
<path style="fill:rgb(255, 0, 0);fill-opacity:0;fill-rule:evenodd;stroke:rgb(21, 255, 0);stroke-width:1;" d="M 785.195, 446.856 L 815.478, 405.468 L 842.566, 416.909 L 832.639, 430.368 L 827.592, 437.434 L 820.189, 447.697 L 812.45, 458.297 L 790.578, 449.211 L 785.195, 446.856 z "/>
<path style="fill:rgb(0, 255, 0);fill-opacity:0;fill-rule:evenodd;stroke:rgb(21, 255, 0);stroke-width:1;" d="M 924.501, 491.945 L 947.213, 460.82 L 985.91, 477.14 L 980.021, 485.384 L 976.151, 483.701 L 959.495, 506.583 L 925.846, 492.45 L 924.501, 491.945 z "/>
<path style="fill:rgb(0, 0, 255);fill-opacity:0;fill-rule:evenodd;stroke:rgb(21, 255, 0);stroke-width:1;" d="M 115.247, 360.21 L 145.531, 318.822 L 152.429, 321.851 L 149.401, 325.889 L 172.282, 335.478 L 171.104, 337.329 L 163.028, 348.265 L 157.981, 346.078 L 154.111, 351.462 L 159.159, 353.649 L 145.195, 372.829 L 115.247, 360.21 z "/>
<path style="fill:rgb(255, 255, 0);fill-opacity:0;fill-rule:evenodd;stroke:rgb(21, 255, 0);stroke-width:1;" d="M 881.262, 388.139 L 888.496, 378.381 L 883.281, 376.193 L 897.581, 356.341 L 938.128, 373.502 L 928.538, 386.625 L 926.015, 385.615 L 914.069, 402.103 L 889.338, 391.504 L 881.262, 388.139 z "/>
<path style="fill:rgb(255, 0, 0);fill-opacity:0;fill-rule:evenodd;stroke:rgb(21, 255, 0);stroke-width:1;" d="M 578.086, 353.817 L 581.788, 319.664 L 610.726, 329.758 L 617.287, 322.019 L 637.14, 330.431 L 629.401, 341.03 L 625.531, 339.348 L 617.455, 353.985 L 614.427, 356.341 L 578.086, 353.817 z "/>
<path style="fill:rgb(0, 255, 0);fill-opacity:0;fill-rule:evenodd;stroke:rgb(21, 255, 0);stroke-width:1;" d="M 152.766, 153.27 L 169.758, 133.417 L 169.926, 133.417 L 222.923, 155.626 L 211.987, 170.768 L 200.883, 166.225 L 197.014, 171.609 L 182.208, 165.552 L 169.253, 160.168 L 152.766, 153.27 z "/>
<path style="fill:rgb(0, 0, 255);fill-opacity:0;fill-rule:evenodd;stroke:rgb(21, 255, 0);stroke-width:1;" d="M 486.225, 183.722 L 515.163, 196.341 L 512.303, 161.178 L 488.244, 150.915 L 490.095, 148.728 L 524.08, 162.86 L 525.089, 193.144 L 523.239, 223.091 L 486.898, 207.781 L 486.225, 183.722 z "/>
<path style="fill:rgb(255, 255, 0);fill-opacity:0;fill-rule:evenodd;stroke:rgb(21, 255, 0);stroke-width:1;" d="M 160, 377.035 L 174.132, 357.518 L 184.732, 362.061 L 187.76, 357.687 L 179.348, 354.154 L 188.601, 341.703 L 200.883, 346.919 L 202.397, 345.068 L 217.371, 351.462 L 214.343, 355.499 L 189.443, 389.485 L 160, 377.035 z "/>
<path style="fill:rgb(255, 0, 0);fill-opacity:0;fill-rule:evenodd;stroke:rgb(21, 255, 0);stroke-width:1;" d="M 209.127, 328.917 L 230.326, 299.979 L 258.927, 311.924 L 250.515, 346.414 L 209.127, 328.917 z "/>
<path style="fill:rgb(0, 255, 0);fill-opacity:0;fill-rule:evenodd;stroke:rgb(21, 255, 0);stroke-width:1;" d="M 628.896, 556.046 L 647.739, 529.464 L 686.435, 545.279 L 684.585, 547.971 L 667.592, 572.029 L 628.896, 556.046 z "/>
<path style="fill:rgb(0, 0, 255);fill-opacity:0;fill-rule:evenodd;stroke:rgb(21, 255, 0);stroke-width:1;" d="M 581.956, 109.022 L 597.098, 87.6551 L 604.164, 90.6835 L 629.569, 101.115 L 636.635, 103.975 L 617.455, 130.557 L 585.152, 117.098 L 588.854, 111.882 L 581.956, 109.022 z "/>
<path style="fill:rgb(255, 255, 0);fill-opacity:0;fill-rule:evenodd;stroke:rgb(21, 255, 0);stroke-width:1;" d="M 701.914, 165.216 L 721.094, 138.801 L 728.16, 141.661 L 753.565, 152.261 L 760.463, 155.289 L 745.152, 176.32 L 738.086, 173.46 L 734.217, 178.675 L 701.914, 165.216 z "/>
<path style="fill:rgb(255, 0, 0);fill-opacity:0;fill-rule:evenodd;stroke:rgb(21, 255, 0);stroke-width:1;" d="M 151.42, 312.766 L 161.514, 299.138 L 176.488, 278.612 L 177.329, 277.434 L 204.416, 288.875 L 178.507, 324.206 L 151.42, 312.766 z "/>
<path style="fill:rgb(0, 255, 0);fill-opacity:0;fill-rule:evenodd;stroke:rgb(21, 255, 0);stroke-width:1;" d="M 434.911, 531.483 L 441.136, 511.125 L 442.313, 506.246 L 453.081, 507.928 L 478.991, 512.135 L 469.569, 546.288 L 464.69, 545.615 L 441.136, 541.577 L 443.659, 532.997 L 434.911, 531.483 z "/>
<path style="fill:rgb(0, 0, 255);fill-opacity:0;fill-rule:evenodd;stroke:rgb(21, 255, 0);stroke-width:1;" d="M 855.857, 327.571 L 867.802, 311.42 L 919.79, 333.46 L 912.555, 343.218 L 902.292, 357.182 L 898.254, 355.499 L 897.581, 356.341 L 890.011, 353.144 L 890.683, 352.135 L 889.674, 351.798 L 895.226, 344.227 L 855.857, 327.571 z "/>
<path style="fill:rgb(255, 255, 0);fill-opacity:0;fill-rule:evenodd;stroke:rgb(21, 255, 0);stroke-width:1;" d="M 279.621, 212.997 L 290.726, 197.687 L 354.49, 224.269 L 352.135, 233.523 L 290.894, 223.26 L 291.062, 217.876 L 279.621, 212.997 z "/>
<path style="fill:rgb(255, 0, 0);fill-opacity:0;fill-rule:evenodd;stroke:rgb(21, 255, 0);stroke-width:1;" d="M 260.442, 396.046 L 267.676, 373.838 L 318.149, 383.26 L 313.27, 405.973 L 260.442, 396.046 z "/>
<path style="fill:rgb(0, 255, 0);fill-opacity:0;fill-rule:evenodd;stroke:rgb(21, 255, 0);stroke-width:1;" d="M 63.7645, 255.226 L 81.2618, 234.364 L 124.837, 255.058 L 116.761, 264.816 L 112.05, 262.629 L 102.461, 274.406 L 63.7645, 255.226 z "/>
<path style="fill:rgb(0, 0, 255);fill-opacity:0;fill-rule:evenodd;stroke:rgb(21, 255, 0);stroke-width:1;" d="M 447.697, 414.048 L 460.652, 396.887 L 505.068, 415.394 L 499.18, 436.593 L 466.036, 431.041 L 469.064, 420.273 L 465.026, 419.6 L 465.699, 416.909 L 447.697, 414.048 z "/>
<path style="fill:rgb(255, 255, 0);fill-opacity:0;fill-rule:evenodd;stroke:rgb(21, 255, 0);stroke-width:1;" d="M 910.536, 513.649 L 925.846, 492.45 L 959.495, 506.583 L 964.038, 508.601 L 963.701, 508.938 L 969.085, 511.293 L 954.111, 531.987 L 944.522, 527.95 L 910.536, 513.649 z "/>
<path style="fill:rgb(255, 0, 0);fill-opacity:0;fill-rule:evenodd;stroke:rgb(21, 255, 0);stroke-width:1;" d="M 383.933, 298.297 L 388.98, 277.434 L 391.672, 277.771 L 441.977, 284.669 L 436.761, 307.213 L 385.447, 298.465 L 383.933, 298.297 z "/>
<path style="fill:rgb(0, 255, 0);fill-opacity:0;fill-rule:evenodd;stroke:rgb(21, 255, 0);stroke-width:1;" d="M 60.7361, 468.055 L 87.9916, 430.536 L 112.05, 440.631 L 108.517, 445.51 L 84.6267, 478.318 L 60.7361, 468.055 z "/>
<path style="fill:rgb(0, 0, 255);fill-opacity:0;fill-rule:evenodd;stroke:rgb(21, 255, 0);stroke-width:1;" d="M 480.841, 761.809 L 483.365, 751.714 L 538.717, 759.453 L 545.279, 760.294 L 548.98, 755.247 L 579.096, 768.034 L 572.366, 777.455 L 553.691, 769.38 L 547.129, 778.465 L 531.819, 771.903 L 533.165, 769.716 L 508.601, 766.183 L 508.77, 765.678 L 480.841, 761.809 z "/>
<path style="fill:rgb(255, 255, 0);fill-opacity:0;fill-rule:evenodd;stroke:rgb(21, 255, 0);stroke-width:1;" d="M 713.354, 553.018 L 714.7, 551.167 L 740.778, 514.826 L 763.828, 524.248 L 750.536, 542.587 L 736.404, 562.44 L 713.354, 553.018 z "/>
<path style="fill:rgb(255, 0, 0);fill-opacity:0;fill-rule:evenodd;stroke:rgb(21, 255, 0);stroke-width:1;" d="M 637.476, 699.727 L 649.253, 683.575 L 690.473, 700.904 L 692.324, 698.381 L 702.923, 702.923 L 689.295, 721.598 L 638.991, 700.231 L 637.476, 699.727 z "/>
<path style="fill:rgb(0, 255, 0);fill-opacity:0;fill-rule:evenodd;stroke:rgb(21, 255, 0);stroke-width:1;" d="M 689.632, 540.904 L 696.698, 530.81 L 698.885, 531.651 L 710.831, 514.826 L 709.317, 514.322 L 716.215, 504.564 L 740.778, 514.826 L 714.7, 551.167 L 689.632, 540.904 z "/>
<path style="fill:rgb(0, 0, 255);fill-opacity:0;fill-rule:evenodd;stroke:rgb(21, 255, 0);stroke-width:1;" d="M 440.294, 461.83 L 444.837, 446.015 L 447.529, 446.351 L 449.211, 440.463 L 497.161, 448.538 L 495.478, 454.259 L 494.132, 454.09 L 490.768, 465.531 L 492.618, 465.868 L 491.272, 470.242 L 440.294, 461.83 z "/>
<path style="fill:rgb(255, 255, 0);fill-opacity:0;fill-rule:evenodd;stroke:rgb(21, 255, 0);stroke-width:1;" d="M 120.799, 443.491 L 148.055, 405.973 L 170.936, 415.563 L 144.353, 452.072 L 143.68, 453.081 L 120.799, 443.491 z "/>
<path style="fill:rgb(255, 0, 0);fill-opacity:0;fill-rule:evenodd;stroke:rgb(21, 255, 0);stroke-width:1;" d="M 144.353, 452.072 L 170.936, 415.563 L 193.481, 425.152 L 179.853, 443.996 L 166.057, 463.007 L 152.766, 457.287 L 153.607, 456.109 L 144.353, 452.072 z "/>
<path style="fill:rgb(0, 255, 0);fill-opacity:0;fill-rule:evenodd;stroke:rgb(21, 255, 0);stroke-width:1;" d="M 407.823, 599.79 L 414.217, 577.581 L 426.498, 579.6 L 461.325, 585.657 L 455.1, 607.697 L 407.823, 599.79 z "/>
<path style="fill:rgb(0, 0, 255);fill-opacity:0;fill-rule:evenodd;stroke:rgb(21, 255, 0);stroke-width:1;" d="M 98.591, 434.238 L 125.846, 396.719 L 148.055, 405.973 L 120.799, 443.491 L 98.591, 434.238 z "/>
<path style="fill:rgb(255, 255, 0);fill-opacity:0;fill-rule:evenodd;stroke:rgb(21, 255, 0);stroke-width:1;" d="M 289.548, 228.307 L 290.894, 223.26 L 352.135, 233.523 L 347.76, 250.852 L 292.24, 241.43 L 295.773, 229.317 L 289.548, 228.307 z "/>
<path style="fill:rgb(255, 0, 0);fill-opacity:0;fill-rule:evenodd;stroke:rgb(21, 255, 0);stroke-width:1;" d="M 780.147, 303.176 L 785.868, 296.109 L 807.403, 291.567 L 817.161, 295.268 L 818.507, 298.97 L 822.376, 309.064 L 823.386, 312.093 L 817.834, 319.495 L 813.123, 320.505 L 800.841, 323.197 L 796.299, 324.038 L 786.372, 320 L 780.147, 303.176 z "/>
<path style="fill:rgb(0, 255, 0);fill-opacity:0;fill-rule:evenodd;stroke:rgb(21, 255, 0);stroke-width:1;" d="M 634.616, 372.997 L 659.853, 338.675 L 682.566, 348.433 L 657.329, 382.587 L 634.616, 372.997 z "/>
<path style="fill:rgb(0, 0, 255);fill-opacity:0;fill-rule:evenodd;stroke:rgb(21, 255, 0);stroke-width:1;" d="M 666.246, 658.17 L 669.443, 653.796 L 677.014, 643.365 L 685.426, 631.924 L 706.456, 640.841 L 706.961, 640.168 L 739.937, 654.132 L 732.366, 664.395 L 690.305, 646.562 L 683.575, 655.815 L 678.191, 663.218 L 666.246, 658.17 z "/>
<path style="fill:rgb(255, 255, 0);fill-opacity:0;fill-rule:evenodd;stroke:rgb(21, 255, 0);stroke-width:1;" d="M 288.37, 257.918 L 290.053, 250.852 L 292.24, 241.43 L 347.76, 250.852 L 343.554, 267.676 L 312.766, 262.292 L 298.801, 259.769 L 288.37, 257.918 z "/>
<path style="fill:rgb(255, 0, 0);fill-opacity:0;fill-rule:evenodd;stroke:rgb(21, 255, 0);stroke-width:1;" d="M 765.342, 484.038 L 779.811, 464.185 L 805.552, 474.953 L 802.692, 478.991 L 812.114, 482.86 L 810.263, 485.384 L 814.132, 486.898 L 808.244, 494.974 L 811.104, 496.32 L 807.234, 501.703 L 765.342, 484.038 z "/>
<path style="fill:rgb(0, 255, 0);fill-opacity:0;fill-rule:evenodd;stroke:rgb(21, 255, 0);stroke-width:1;" d="M 84.6267, 478.318 L 108.517, 445.51 L 133.081, 455.941 L 109.359, 488.58 L 84.6267, 478.318 z M 99.9369, 472.261 L 106.667, 475.121 L 115.247, 463.344 L 108.517, 460.484 L 99.9369, 472.261 z "/>
<path style="fill:rgb(0, 0, 255);fill-opacity:0;fill-rule:evenodd;stroke:rgb(21, 255, 0);stroke-width:1;" d="M 177.497, 246.646 L 203.407, 210.81 L 223.26, 219.054 L 198.36, 253.544 L 197.35, 254.89 L 177.497, 246.646 z "/>
<path style="fill:rgb(255, 255, 0);fill-opacity:0;fill-rule:evenodd;stroke:rgb(21, 255, 0);stroke-width:1;" d="M 488.749, 729.001 L 493.964, 707.298 L 539.558, 713.691 L 535.521, 719.411 L 524.921, 734.048 L 488.749, 729.001 z "/>
<path style="fill:rgb(255, 0, 0);fill-opacity:0;fill-rule:evenodd;stroke:rgb(21, 255, 0);stroke-width:1;" d="M 725.973, 576.909 L 732.029, 568.496 L 736.404, 562.44 L 750.536, 542.587 L 770.726, 550.999 L 746.162, 585.321 L 725.973, 576.909 z "/>
<path style="fill:rgb(0, 255, 0);fill-opacity:0;fill-rule:evenodd;stroke:rgb(21, 255, 0);stroke-width:1;" d="M 477.981, 773.922 L 480.841, 761.809 L 508.77, 765.678 L 508.601, 766.183 L 533.165, 769.716 L 531.819, 771.903 L 517.855, 790.915 L 477.981, 773.922 z "/>
<path style="fill:rgb(0, 0, 255);fill-opacity:0;fill-rule:evenodd;stroke:rgb(21, 255, 0);stroke-width:1;" d="M 381.914, 310.747 L 385.447, 298.465 L 436.761, 307.213 L 452.913, 310.074 L 449.38, 322.019 L 381.914, 310.747 z "/>
<path style="fill:rgb(255, 255, 0);fill-opacity:0;fill-rule:evenodd;stroke:rgb(21, 255, 0);stroke-width:1;" d="M 493.964, 707.298 L 499.18, 685.426 L 549.653, 705.783 L 538.381, 720.589 L 535.521, 719.411 L 539.558, 713.691 L 493.964, 707.298 z "/>
<path style="fill:rgb(255, 0, 0);fill-opacity:0;fill-rule:evenodd;stroke:rgb(21, 255, 0);stroke-width:1;" d="M 615.605, 571.693 L 627.382, 555.373 L 628.896, 556.046 L 667.592, 572.029 L 655.815, 588.349 L 615.605, 571.693 z "/>
<path style="fill:rgb(0, 255, 0);fill-opacity:0;fill-rule:evenodd;stroke:rgb(21, 255, 0);stroke-width:1;" d="M 427.844, 436.93 L 431.041, 425.321 L 466.036, 431.041 L 499.18, 436.593 L 500.526, 436.93 L 497.161, 448.538 L 449.211, 440.463 L 427.844, 436.93 z "/>
<path style="fill:rgb(0, 0, 255);fill-opacity:0;fill-rule:evenodd;stroke:rgb(21, 255, 0);stroke-width:1;" d="M 290.726, 197.687 L 298.297, 187.087 L 357.687, 211.819 L 354.49, 224.269 L 290.726, 197.687 z "/>
<path style="fill:rgb(255, 255, 0);fill-opacity:0;fill-rule:evenodd;stroke:rgb(21, 255, 0);stroke-width:1;" d="M 397.392, 253.039 L 401.935, 234.027 L 405.973, 232.681 L 454.427, 253.039 L 454.09, 254.721 L 452.744, 260.61 L 397.392, 253.039 z "/>
<path style="fill:rgb(255, 0, 0);fill-opacity:0;fill-rule:evenodd;stroke:rgb(21, 255, 0);stroke-width:1;" d="M 593.901, 224.774 L 605.51, 208.959 L 637.645, 221.241 L 623.344, 240.757 L 594.069, 229.485 L 593.901, 224.774 z "/>
<path style="fill:rgb(0, 255, 0);fill-opacity:0;fill-rule:evenodd;stroke:rgb(21, 255, 0);stroke-width:1;" d="M 288.707, 291.23 L 297.455, 279.285 L 338.507, 289.211 L 332.955, 309.737 L 288.707, 291.23 z "/>
<path style="fill:rgb(0, 0, 255);fill-opacity:0;fill-rule:evenodd;stroke:rgb(21, 255, 0);stroke-width:1;" d="M 802.019, 509.443 L 809.59, 499.012 L 817.329, 502.376 L 825.237, 491.609 L 826.246, 491.945 L 849.968, 501.872 L 834.49, 523.239 L 802.019, 509.443 z "/>
<path style="fill:rgb(255, 255, 0);fill-opacity:0;fill-rule:evenodd;stroke:rgb(21, 255, 0);stroke-width:1;" d="M 777.624, 770.894 L 779.811, 767.865 L 802.86, 736.572 L 820.358, 744.143 L 809.422, 758.948 L 795.121, 778.465 L 777.624, 770.894 z "/>
<path style="fill:rgb(255, 0, 0);fill-opacity:0;fill-rule:evenodd;stroke:rgb(21, 255, 0);stroke-width:1;" d="M 353.985, 435.752 L 357.518, 424.479 L 422.461, 435.92 L 424.648, 436.257 L 421.283, 447.361 L 356.509, 436.088 L 353.985, 435.752 z "/>
<path style="fill:rgb(0, 255, 0);fill-opacity:0;fill-rule:evenodd;stroke:rgb(21, 255, 0);stroke-width:1;" d="M 619.642, 354.995 L 629.737, 341.199 L 629.401, 341.03 L 637.14, 330.431 L 656.488, 338.675 L 629.905, 375.184 L 622.671, 372.156 L 623.344, 366.267 L 624.522, 357.014 L 619.642, 354.995 z "/>
<path style="fill:rgb(0, 0, 255);fill-opacity:0;fill-rule:evenodd;stroke:rgb(21, 255, 0);stroke-width:1;" d="M 356.004, 424.311 L 359.369, 413.375 L 360.883, 413.712 L 399.579, 420.442 L 425.825, 424.984 L 422.461, 435.92 L 357.518, 424.479 L 356.004, 424.311 z "/>
<path style="fill:rgb(255, 255, 0);fill-opacity:0;fill-rule:evenodd;stroke:rgb(21, 255, 0);stroke-width:1;" d="M 352.808, 447.192 L 356.509, 436.088 L 421.283, 447.361 L 418.086, 458.128 L 352.808, 447.192 z "/>
<path style="fill:rgb(255, 0, 0);fill-opacity:0;fill-rule:evenodd;stroke:rgb(21, 255, 0);stroke-width:1;" d="M 812.45, 458.297 L 820.189, 447.697 L 849.632, 460.147 L 873.186, 470.074 L 865.279, 480.841 L 827.592, 464.858 L 812.45, 458.297 z "/>
<path style="fill:rgb(0, 255, 0);fill-opacity:0;fill-rule:evenodd;stroke:rgb(21, 255, 0);stroke-width:1;" d="M 902.292, 357.182 L 912.555, 343.218 L 933.922, 352.303 L 952.766, 360.21 L 942.503, 374.175 L 902.292, 357.182 z "/>
<path style="fill:rgb(0, 0, 255);fill-opacity:0;fill-rule:evenodd;stroke:rgb(21, 255, 0);stroke-width:1;" d="M 661.872, 450.389 L 662.545, 449.548 L 683.912, 420.105 L 693.67, 406.814 L 706.456, 412.198 L 704.269, 415.394 L 674.658, 455.773 L 661.872, 450.389 z "/>
<path style="fill:rgb(255, 255, 0);fill-opacity:0;fill-rule:evenodd;stroke:rgb(21, 255, 0);stroke-width:1;" d="M 897.077, 764.501 L 913.06, 742.797 L 914.574, 743.47 L 915.584, 741.956 L 915.415, 740.442 L 911.041, 738.591 L 917.434, 729.842 L 939.979, 739.432 L 933.586, 748.349 L 929.548, 746.498 L 927.529, 746.835 L 926.351, 748.349 L 928.034, 749.19 L 912.05, 770.894 L 897.077, 764.501 z "/>
<path style="fill:rgb(255, 0, 0);fill-opacity:0;fill-rule:evenodd;stroke:rgb(21, 255, 0);stroke-width:1;" d="M 931.567, 779.306 L 947.886, 757.098 L 948.728, 757.603 L 949.232, 754.406 L 946.204, 753.06 L 952.429, 744.816 L 974.805, 754.406 L 968.58, 762.65 L 965.216, 761.136 L 962.019, 762.818 L 963.028, 763.323 L 946.372, 785.699 L 931.567, 779.306 z "/>
<path style="fill:rgb(0, 255, 0);fill-opacity:0;fill-rule:evenodd;stroke:rgb(21, 255, 0);stroke-width:1;" d="M 259.769, 372.324 L 263.638, 360.547 L 264.648, 360.715 L 320.841, 371.314 L 318.149, 383.26 L 267.676, 373.838 L 259.769, 372.324 z "/>
<path style="fill:rgb(0, 0, 255);fill-opacity:0;fill-rule:evenodd;stroke:rgb(21, 255, 0);stroke-width:1;" d="M 740.778, 342.04 L 745.657, 335.647 L 747.34, 333.123 L 752.387, 335.142 L 750.705, 337.666 L 825.068, 369.127 L 820.358, 375.689 L 740.778, 342.04 z "/>
<path style="fill:rgb(255, 255, 0);fill-opacity:0;fill-rule:evenodd;stroke:rgb(21, 255, 0);stroke-width:1;" d="M 712.85, 162.86 L 728.16, 141.661 L 753.565, 152.261 L 738.086, 173.46 L 712.85, 162.86 z "/>
<path style="fill:rgb(255, 0, 0);fill-opacity:0;fill-rule:evenodd;stroke:rgb(21, 255, 0);stroke-width:1;" d="M 588.854, 111.882 L 604.164, 90.6835 L 629.569, 101.115 L 614.259, 122.313 L 588.854, 111.882 z "/>
<path style="fill:rgb(0, 255, 0);fill-opacity:0;fill-rule:evenodd;stroke:rgb(21, 255, 0);stroke-width:1;" d="M 651.441, 681.052 L 658.507, 671.293 L 686.94, 683.239 L 687.277, 682.734 L 711.504, 692.997 L 703.933, 703.26 L 702.923, 702.923 L 692.324, 698.381 L 651.441, 681.052 z "/>
<path style="fill:rgb(0, 0, 255);fill-opacity:0;fill-rule:evenodd;stroke:rgb(21, 255, 0);stroke-width:1;" d="M 385.447, 501.703 L 392.008, 479.159 L 421.115, 484.038 L 414.553, 506.583 L 407.319, 505.405 L 385.447, 501.703 z "/>
<path style="fill:rgb(255, 255, 0);fill-opacity:0;fill-rule:evenodd;stroke:rgb(21, 255, 0);stroke-width:1;" d="M 693.67, 406.814 L 722.944, 366.435 L 735.899, 371.819 L 711.84, 404.963 L 706.456, 412.198 L 693.67, 406.814 z "/>
<path style="fill:rgb(255, 0, 0);fill-opacity:0;fill-rule:evenodd;stroke:rgb(21, 255, 0);stroke-width:1;" d="M 102.124, 354.49 L 112.219, 340.862 L 118.78, 331.777 L 129.548, 317.14 L 136.782, 320.336 L 139.642, 316.467 L 145.531, 318.822 L 115.247, 360.21 L 102.124, 354.49 z "/>
<path style="fill:rgb(0, 255, 0);fill-opacity:0;fill-rule:evenodd;stroke:rgb(21, 255, 0);stroke-width:1;" d="M 449.38, 134.09 L 453.249, 112.05 L 482.355, 124.332 L 476.299, 145.699 L 449.38, 134.09 z "/>
<path style="fill:rgb(0, 0, 255);fill-opacity:0;fill-rule:evenodd;stroke:rgb(21, 255, 0);stroke-width:1;" d="M 721.094, 416.74 L 725.468, 410.683 L 749.527, 377.708 L 763.491, 383.596 L 738.591, 417.75 L 731.188, 414.721 L 727.823, 419.432 L 721.094, 416.74 z "/>
<path style="fill:rgb(255, 255, 0);fill-opacity:0;fill-rule:evenodd;stroke:rgb(21, 255, 0);stroke-width:1;" d="M 936.782, 335.478 L 947.718, 320.505 L 973.796, 331.609 L 958.486, 352.471 L 939.642, 344.564 L 944.017, 338.507 L 936.782, 335.478 z "/>
<path style="fill:rgb(255, 0, 0);fill-opacity:0;fill-rule:evenodd;stroke:rgb(21, 255, 0);stroke-width:1;" d="M 631.756, 709.989 L 638.991, 700.231 L 689.295, 721.598 L 690.137, 721.935 L 683.07, 731.693 L 631.756, 709.989 z "/>
<path style="fill:rgb(0, 255, 0);fill-opacity:0;fill-rule:evenodd;stroke:rgb(21, 255, 0);stroke-width:1;" d="M 264.648, 360.715 L 268.181, 349.947 L 323.365, 359.706 L 320.841, 371.314 L 264.648, 360.715 z "/>
<path style="fill:rgb(0, 0, 255);fill-opacity:0;fill-rule:evenodd;stroke:rgb(21, 255, 0);stroke-width:1;" d="M 191.293, 329.59 L 217.035, 294.259 L 218.381, 292.408 L 231.672, 298.128 L 230.326, 299.979 L 209.127, 328.917 L 204.585, 335.31 L 191.293, 329.59 z "/>
<path style="fill:rgb(255, 255, 0);fill-opacity:0;fill-rule:evenodd;stroke:rgb(21, 255, 0);stroke-width:1;" d="M 176.488, 516.845 L 193.312, 493.628 L 200.883, 483.365 L 215.689, 489.59 L 191.293, 523.07 L 176.488, 516.845 z "/>
<path style="fill:rgb(255, 0, 0);fill-opacity:0;fill-rule:evenodd;stroke:rgb(21, 255, 0);stroke-width:1;" d="M 804.206, 265.321 L 807.066, 261.451 L 928.202, 312.261 L 925.174, 316.467 L 804.206, 265.321 z "/>
<path style="fill:rgb(0, 255, 0);fill-opacity:0;fill-rule:evenodd;stroke:rgb(21, 255, 0);stroke-width:1;" d="M 62.2503, 416.067 L 87.8233, 380.736 L 101.788, 386.625 L 76.0463, 421.956 L 62.2503, 416.067 z "/>
<path style="fill:rgb(0, 0, 255);fill-opacity:0;fill-rule:evenodd;stroke:rgb(21, 255, 0);stroke-width:1;" d="M 840.042, 733.544 L 858.885, 708.139 L 877.729, 716.215 L 858.885, 741.788 L 840.042, 733.544 z "/>
<path style="fill:rgb(255, 255, 0);fill-opacity:0;fill-rule:evenodd;stroke:rgb(21, 255, 0);stroke-width:1;" d="M 259.096, 216.025 L 284.332, 181.199 L 298.297, 187.087 L 290.726, 197.687 L 279.621, 212.997 L 273.228, 221.914 L 259.096, 216.025 z "/>
<path style="fill:rgb(255, 0, 0);fill-opacity:0;fill-rule:evenodd;stroke:rgb(21, 255, 0);stroke-width:1;" d="M 145.195, 372.829 L 159.159, 353.649 L 163.028, 348.265 L 171.104, 337.329 L 184.732, 343.049 L 174.132, 357.518 L 160, 377.035 L 158.822, 378.549 L 145.195, 372.829 z "/>
<path style="fill:rgb(0, 255, 0);fill-opacity:0;fill-rule:evenodd;stroke:rgb(21, 255, 0);stroke-width:1;" d="M 251.188, 275.584 L 273.901, 244.122 L 290.053, 250.852 L 288.37, 257.918 L 283.828, 257.077 L 265.994, 281.809 L 251.188, 275.584 z "/>
<path style="fill:rgb(0, 0, 255);fill-opacity:0;fill-rule:evenodd;stroke:rgb(21, 255, 0);stroke-width:1;" d="M 218.381, 200.379 L 244.29, 164.543 L 257.75, 170.095 L 231.84, 206.099 L 218.381, 200.379 z "/>
<path style="fill:rgb(255, 255, 0);fill-opacity:0;fill-rule:evenodd;stroke:rgb(21, 255, 0);stroke-width:1;" d="M 888.496, 685.762 L 889.001, 684.753 L 894.217, 677.687 L 898.591, 677.014 L 909.359, 662.376 L 907.34, 659.853 L 908.013, 658.843 L 913.565, 651.272 L 929.716, 658.002 L 923.323, 666.583 L 920.463, 667.087 L 914.406, 675.499 L 909.695, 681.725 L 910.705, 683.912 L 904.479, 692.492 L 888.496, 685.762 z "/>
<path style="fill:rgb(255, 0, 0);fill-opacity:0;fill-rule:evenodd;stroke:rgb(21, 255, 0);stroke-width:1;" d="M 245.468, 210.473 L 270.705, 175.478 L 284.332, 181.199 L 259.096, 216.025 L 245.468, 210.473 z "/>
<path style="fill:rgb(0, 255, 0);fill-opacity:0;fill-rule:evenodd;stroke:rgb(21, 255, 0);stroke-width:1;" d="M 483.365, 751.714 L 486.057, 740.442 L 522.061, 745.489 L 530.305, 746.667 L 529.632, 749.527 L 540.736, 751.041 L 538.717, 759.453 L 483.365, 751.714 z "/>
<path style="fill:rgb(0, 0, 255);fill-opacity:0;fill-rule:evenodd;stroke:rgb(21, 255, 0);stroke-width:1;" d="M 231.84, 206.099 L 257.75, 170.095 L 270.705, 175.478 L 245.468, 210.473 L 244.795, 211.483 L 231.84, 206.099 z "/>
<path style="fill:rgb(255, 255, 0);fill-opacity:0;fill-rule:evenodd;stroke:rgb(21, 255, 0);stroke-width:1;" d="M 145.868, 504.059 L 169.59, 471.251 L 180.694, 475.794 L 173.628, 485.384 L 178.339, 487.403 L 161.346, 510.452 L 145.868, 504.059 z "/>
<path style="fill:rgb(255, 0, 0);fill-opacity:0;fill-rule:evenodd;stroke:rgb(21, 255, 0);stroke-width:1;" d="M 877.897, 756.425 L 894.048, 734.721 L 894.721, 734.89 L 894.553, 733.039 L 891.356, 731.693 L 897.918, 722.776 L 898.759, 721.767 L 917.434, 729.842 L 911.041, 738.591 L 910.2, 739.769 L 907.34, 738.423 L 904.984, 738.759 L 905.321, 740.105 L 889.674, 761.304 L 877.897, 756.425 z "/>
<path style="fill:rgb(0, 255, 0);fill-opacity:0;fill-rule:evenodd;stroke:rgb(21, 255, 0);stroke-width:1;" d="M 234.196, 512.135 L 235.373, 505.91 L 239.243, 506.414 L 290.053, 513.312 L 287.192, 524.921 L 256.909, 520.883 L 242.608, 518.864 L 244.458, 514.322 L 234.196, 512.135 z "/>
<path style="fill:rgb(0, 0, 255);fill-opacity:0;fill-rule:evenodd;stroke:rgb(21, 255, 0);stroke-width:1;" d="M 711.84, 404.963 L 735.899, 371.819 L 749.527, 377.708 L 725.468, 410.683 L 711.84, 404.963 z "/>
<path style="fill:rgb(255, 255, 0);fill-opacity:0;fill-rule:evenodd;stroke:rgb(21, 255, 0);stroke-width:1;" d="M 178.507, 324.206 L 204.416, 288.875 L 217.035, 294.259 L 191.293, 329.59 L 178.507, 324.206 z "/>
<path style="fill:rgb(255, 0, 0);fill-opacity:0;fill-rule:evenodd;stroke:rgb(21, 255, 0);stroke-width:1;" d="M 820.358, 375.689 L 825.068, 369.127 L 839.369, 349.611 L 842.229, 345.573 L 850.305, 343.554 L 862.082, 341.199 L 838.696, 373.333 L 832.976, 381.073 L 820.358, 375.689 z "/>
<path style="fill:rgb(0, 255, 0);fill-opacity:0;fill-rule:evenodd;stroke:rgb(21, 255, 0);stroke-width:1;" d="M 161.346, 510.452 L 178.339, 487.403 L 185.573, 477.308 L 195.163, 481.346 L 187.928, 491.441 L 193.312, 493.628 L 176.488, 516.845 L 161.346, 510.452 z "/>
<path style="fill:rgb(0, 0, 255);fill-opacity:0;fill-rule:evenodd;stroke:rgb(21, 255, 0);stroke-width:1;" d="M 785.531, 303.849 L 789.064, 299.474 L 806.898, 295.605 L 812.955, 297.96 L 813.796, 299.979 L 817.497, 310.074 L 818.002, 311.588 L 814.469, 316.299 L 811.777, 316.803 L 799.495, 319.495 L 796.803, 320 L 790.578, 317.476 L 785.531, 303.849 z "/>
<path style="fill:rgb(255, 255, 0);fill-opacity:0;fill-rule:evenodd;stroke:rgb(21, 255, 0);stroke-width:1;" d="M 86.8139, 429.19 L 88.3281, 427.171 L 114.069, 391.84 L 125.846, 396.719 L 98.591, 434.238 L 86.8139, 429.19 z "/>
<path style="fill:rgb(255, 0, 0);fill-opacity:0;fill-rule:evenodd;stroke:rgb(21, 255, 0);stroke-width:1;" d="M 76.0463, 421.956 L 101.788, 386.625 L 114.069, 391.84 L 88.3281, 427.171 L 76.0463, 421.956 z "/>
<path style="fill:rgb(0, 255, 0);fill-opacity:0;fill-rule:evenodd;stroke:rgb(21, 255, 0);stroke-width:1;" d="M 150.41, 233.691 L 173.796, 201.388 L 178.17, 203.239 L 186.919, 206.772 L 163.701, 239.075 L 150.41, 233.691 z "/>
<path style="fill:rgb(0, 0, 255);fill-opacity:0;fill-rule:evenodd;stroke:rgb(21, 255, 0);stroke-width:1;" d="M 622.334, 648.749 L 636.635, 629.064 L 637.476, 629.401 L 639.664, 626.204 L 638.149, 625.195 L 646.225, 614.427 L 660.358, 620.484 L 652.618, 631.083 L 649.926, 631.42 L 647.907, 634.111 L 649.59, 634.953 L 645.72, 640.168 L 643.197, 639.159 L 640.505, 642.86 L 641.682, 643.365 L 634.111, 653.796 L 622.334, 648.749 z "/>
<path style="fill:rgb(255, 255, 0);fill-opacity:0;fill-rule:evenodd;stroke:rgb(21, 255, 0);stroke-width:1;" d="M 211.987, 118.612 L 227.971, 97.0768 L 247.487, 105.825 L 231.504, 127.024 L 211.987, 118.612 z "/>
<path style="fill:rgb(255, 0, 0);fill-opacity:0;fill-rule:evenodd;stroke:rgb(21, 255, 0);stroke-width:1;" d="M 192.471, 110.032 L 208.623, 88.6646 L 227.971, 97.0768 L 211.987, 118.612 L 192.471, 110.032 z "/>
<path style="fill:rgb(0, 255, 0);fill-opacity:0;fill-rule:evenodd;stroke:rgb(21, 255, 0);stroke-width:1;" d="M 636.635, 654.637 L 644.038, 644.374 L 645.384, 645.047 L 648.076, 641.178 L 645.72, 640.168 L 649.59, 634.953 L 651.777, 635.794 L 653.46, 633.27 L 652.618, 631.083 L 660.358, 620.484 L 674.154, 626.204 L 666.751, 636.467 L 664.395, 636.972 L 661.872, 640.168 L 663.554, 640.841 L 659.348, 646.562 L 656.656, 645.384 L 653.964, 649.085 L 655.647, 649.758 L 648.412, 659.685 L 636.635, 654.637 z "/>
<path style="fill:rgb(0, 0, 255);fill-opacity:0;fill-rule:evenodd;stroke:rgb(21, 255, 0);stroke-width:1;" d="M 676.341, 665.741 L 678.191, 663.218 L 683.575, 655.815 L 725.636, 673.649 L 718.402, 683.575 L 678.528, 666.583 L 676.341, 665.741 z "/>
<path style="fill:rgb(255, 255, 0);fill-opacity:0;fill-rule:evenodd;stroke:rgb(21, 255, 0);stroke-width:1;" d="M 927.529, 117.266 L 946.036, 91.3565 L 953.775, 80.5889 L 963.197, 84.4585 L 950.578, 101.956 L 954.448, 103.638 L 941.325, 121.977 L 940.82, 122.65 L 927.529, 117.266 z "/>
<path style="fill:rgb(255, 0, 0);fill-opacity:0;fill-rule:evenodd;stroke:rgb(21, 255, 0);stroke-width:1;" d="M 904.479, 692.492 L 910.705, 683.912 L 921.304, 669.443 L 924.332, 668.77 L 930.894, 659.685 L 940.82, 663.891 L 934.259, 672.976 L 934.427, 674.995 L 933.249, 676.677 L 917.603, 698.044 L 904.479, 692.492 z "/>
<path style="fill:rgb(0, 255, 0);fill-opacity:0;fill-rule:evenodd;stroke:rgb(21, 255, 0);stroke-width:1;" d="M 607.697, 643.533 L 608.202, 643.028 L 614.427, 634.28 L 614.932, 633.775 L 617.455, 634.784 L 621.83, 628.896 L 621.157, 627.213 L 625.699, 620.988 L 625.026, 619.642 L 632.934, 608.875 L 646.225, 614.427 L 638.149, 625.195 L 636.972, 625.868 L 631.924, 632.766 L 629.737, 632.766 L 626.877, 636.635 L 627.718, 638.654 L 620.315, 648.749 L 607.697, 643.533 z "/>
<path style="fill:rgb(0, 0, 255);fill-opacity:0;fill-rule:evenodd;stroke:rgb(21, 255, 0);stroke-width:1;" d="M 575.394, 377.708 L 577.077, 363.07 L 623.344, 366.267 L 622.671, 372.156 L 621.998, 378.044 L 612.913, 374.343 L 602.65, 375.184 L 575.394, 377.708 z "/>
<path style="fill:rgb(255, 255, 0);fill-opacity:0;fill-rule:evenodd;stroke:rgb(21, 255, 0);stroke-width:1;" d="M 89.8423, 115.079 L 98.2545, 103.47 L 99.0957, 102.461 L 131.399, 115.92 L 120.967, 128.034 L 119.285, 127.361 L 98.2545, 118.612 L 89.8423, 115.079 z "/>
<path style="fill:rgb(255, 0, 0);fill-opacity:0;fill-rule:evenodd;stroke:rgb(21, 255, 0);stroke-width:1;" d="M 554.196, 755.247 L 564.122, 742.124 L 581.619, 719.075 L 592.387, 723.785 L 571.188, 751.714 L 564.963, 759.958 L 554.196, 755.247 z "/>
<path style="fill:rgb(0, 255, 0);fill-opacity:0;fill-rule:evenodd;stroke:rgb(21, 255, 0);stroke-width:1;" d="M 649.085, 443.996 L 666.751, 419.6 L 670.452, 414.553 L 683.912, 420.105 L 662.545, 449.548 L 649.085, 443.996 z "/>
<path style="fill:rgb(0, 0, 255);fill-opacity:0;fill-rule:evenodd;stroke:rgb(21, 255, 0);stroke-width:1;" d="M 945.699, 656.32 L 956.803, 641.009 L 954.111, 639.832 L 973.46, 613.417 L 973.628, 613.081 L 984.059, 617.455 L 982.208, 620.147 L 965.552, 642.692 L 953.438, 659.516 L 945.699, 656.32 z "/>
<path style="fill:rgb(255, 255, 0);fill-opacity:0;fill-rule:evenodd;stroke:rgb(21, 255, 0);stroke-width:1;" d="M 594.911, 637.476 L 601.304, 628.728 L 602.818, 629.232 L 606.519, 624.185 L 608.034, 624.858 L 610.894, 620.82 L 609.38, 620.315 L 613.922, 614.259 L 612.408, 613.586 L 619.979, 603.323 L 632.934, 608.875 L 625.026, 619.642 L 623.512, 618.97 L 619.474, 624.353 L 618.465, 623.849 L 615.941, 627.382 L 617.119, 627.886 L 612.913, 633.607 L 614.427, 634.28 L 608.202, 643.028 L 594.911, 637.476 z "/>
<path style="fill:rgb(255, 0, 0);fill-opacity:0;fill-rule:evenodd;stroke:rgb(21, 255, 0);stroke-width:1;" d="M 683.575, 655.815 L 690.305, 646.562 L 732.366, 664.395 L 725.636, 673.649 L 683.575, 655.815 z "/>
<path style="fill:rgb(0, 255, 0);fill-opacity:0;fill-rule:evenodd;stroke:rgb(21, 255, 0);stroke-width:1;" d="M 854.848, 437.939 L 863.764, 425.657 L 895.563, 439.117 L 886.814, 451.23 L 854.848, 437.939 z "/>
<path style="fill:rgb(0, 0, 255);fill-opacity:0;fill-rule:evenodd;stroke:rgb(21, 255, 0);stroke-width:1;" d="M 846.267, 386.625 L 867.298, 357.855 L 880.757, 363.575 L 867.129, 382.25 L 859.727, 392.345 L 846.267, 386.625 z "/>
<path style="fill:rgb(255, 255, 0);fill-opacity:0;fill-rule:evenodd;stroke:rgb(21, 255, 0);stroke-width:1;" d="M 96.9085, 334.301 L 103.47, 325.384 L 100.778, 324.206 L 104.984, 306.877 L 129.548, 317.14 L 118.78, 331.777 L 111.377, 328.749 L 104.816, 337.666 L 96.9085, 334.301 z "/>
<path style="fill:rgb(255, 0, 0);fill-opacity:0;fill-rule:evenodd;stroke:rgb(21, 255, 0);stroke-width:1;" d="M 239.243, 506.414 L 241.598, 496.993 L 292.24, 503.722 L 290.053, 513.312 L 239.243, 506.414 z "/>
<path style="fill:rgb(0, 255, 0);fill-opacity:0;fill-rule:evenodd;stroke:rgb(21, 255, 0);stroke-width:1;" d="M 532.492, 746.667 L 548.812, 725.131 L 560.084, 710.326 L 560.421, 709.821 L 570.347, 714.196 L 552.85, 737.077 L 542.419, 751.041 L 532.492, 746.667 z "/>
<path style="fill:rgb(0, 0, 255);fill-opacity:0;fill-rule:evenodd;stroke:rgb(21, 255, 0);stroke-width:1;" d="M 360.883, 413.712 L 364.585, 401.767 L 400.757, 408.16 L 403.281, 408.665 L 399.579, 420.442 L 360.883, 413.712 z "/>
<path style="fill:rgb(255, 255, 0);fill-opacity:0;fill-rule:evenodd;stroke:rgb(21, 255, 0);stroke-width:1;" d="M 842.229, 345.573 L 850.473, 334.974 L 855.857, 327.571 L 895.226, 344.227 L 889.674, 351.798 L 864.101, 340.862 L 862.082, 341.199 L 850.305, 343.554 L 842.229, 345.573 z "/>
<path style="fill:rgb(255, 0, 0);fill-opacity:0;fill-rule:evenodd;stroke:rgb(21, 255, 0);stroke-width:1;" d="M 795.121, 778.465 L 809.422, 758.948 L 812.618, 757.939 L 820.526, 746.835 L 829.611, 750.536 L 821.535, 761.809 L 822.376, 763.659 L 808.076, 783.68 L 795.121, 778.465 z "/>
<path style="fill:rgb(0, 255, 0);fill-opacity:0;fill-rule:evenodd;stroke:rgb(21, 255, 0);stroke-width:1;" d="M 808.076, 783.68 L 822.376, 763.659 L 825.068, 763.491 L 832.976, 752.219 L 842.229, 756.088 L 834.322, 767.361 L 834.995, 769.211 L 834.658, 769.716 L 821.03, 788.896 L 820.694, 788.728 L 820.526, 788.896 L 808.076, 783.68 z "/>
<path style="fill:rgb(0, 0, 255);fill-opacity:0;fill-rule:evenodd;stroke:rgb(21, 255, 0);stroke-width:1;" d="M 881.43, 402.44 L 889.338, 391.504 L 914.069, 402.103 L 922.145, 405.468 L 914.238, 416.236 L 881.43, 402.44 z "/>
<path style="fill:rgb(255, 255, 0);fill-opacity:0;fill-rule:evenodd;stroke:rgb(21, 255, 0);stroke-width:1;" d="M 649.422, 660.526 L 656.32, 650.936 L 657.666, 651.441 L 660.694, 647.234 L 659.348, 646.562 L 663.554, 640.841 L 666.583, 642.019 L 669.779, 637.645 L 666.751, 636.467 L 674.154, 626.204 L 685.931, 631.251 L 685.426, 631.924 L 677.014, 643.365 L 674.49, 642.355 L 666.751, 652.787 L 669.443, 653.796 L 666.246, 658.17 L 660.862, 665.405 L 649.422, 660.526 z "/>
<path style="fill:rgb(255, 0, 0);fill-opacity:0;fill-rule:evenodd;stroke:rgb(21, 255, 0);stroke-width:1;" d="M 832.976, 381.073 L 838.696, 373.333 L 842.902, 375.016 L 862.755, 347.928 L 871.84, 351.798 L 867.298, 357.855 L 846.267, 386.625 L 832.976, 381.073 z "/>
<path style="fill:rgb(0, 255, 0);fill-opacity:0;fill-rule:evenodd;stroke:rgb(21, 255, 0);stroke-width:1;" d="M 207.95, 743.638 L 218.381, 732.534 L 246.477, 745.152 L 237.224, 756.593 L 207.95, 743.638 z "/>
<path style="fill:rgb(0, 0, 255);fill-opacity:0;fill-rule:evenodd;stroke:rgb(21, 255, 0);stroke-width:1;" d="M 673.312, 673.817 L 678.528, 666.583 L 718.402, 683.575 L 711.504, 692.997 L 687.277, 682.734 L 688.959, 680.547 L 673.312, 673.817 z "/>
<path style="fill:rgb(255, 255, 0);fill-opacity:0;fill-rule:evenodd;stroke:rgb(21, 255, 0);stroke-width:1;" d="M 941.325, 121.977 L 954.448, 103.638 L 960, 95.8991 L 972.955, 101.283 L 971.441, 103.47 L 954.448, 127.361 L 941.325, 121.977 z "/>
<path style="fill:rgb(255, 0, 0);fill-opacity:0;fill-rule:evenodd;stroke:rgb(21, 255, 0);stroke-width:1;" d="M 577.077, 363.07 L 578.086, 353.817 L 614.427, 356.341 L 624.522, 357.014 L 623.344, 366.267 L 577.077, 363.07 z "/>
<path style="fill:rgb(0, 255, 0);fill-opacity:0;fill-rule:evenodd;stroke:rgb(21, 255, 0);stroke-width:1;" d="M 486.057, 740.442 L 488.749, 729.001 L 524.921, 734.048 L 522.061, 745.489 L 486.057, 740.442 z "/>
<path style="fill:rgb(0, 0, 255);fill-opacity:0;fill-rule:evenodd;stroke:rgb(21, 255, 0);stroke-width:1;" d="M 954.448, 127.361 L 971.441, 103.47 L 985.237, 109.19 L 968.076, 133.081 L 954.448, 127.361 z "/>
<path style="fill:rgb(255, 255, 0);fill-opacity:0;fill-rule:evenodd;stroke:rgb(21, 255, 0);stroke-width:1;" d="M 635.794, 438.275 L 653.46, 414.048 L 666.751, 419.6 L 649.085, 443.996 L 635.794, 438.275 z "/>
<path style="fill:rgb(255, 0, 0);fill-opacity:0;fill-rule:evenodd;stroke:rgb(21, 255, 0);stroke-width:1;" d="M 921.304, 764.837 L 933.586, 748.349 L 939.979, 739.432 L 952.429, 744.816 L 946.204, 753.06 L 933.586, 770.053 L 921.304, 764.837 z "/>
<path style="fill:rgb(0, 255, 0);fill-opacity:0;fill-rule:evenodd;stroke:rgb(21, 255, 0);stroke-width:1;" d="M 820.189, 447.697 L 827.592, 437.434 L 838.023, 441.977 L 848.623, 446.351 L 857.035, 449.884 L 849.632, 460.147 L 820.189, 447.697 z "/>
<path style="fill:rgb(0, 0, 255);fill-opacity:0;fill-rule:evenodd;stroke:rgb(21, 255, 0);stroke-width:1;" d="M 495.142, 334.974 L 496.32, 329.758 L 512.976, 332.114 L 514.322, 332.282 L 525.258, 333.796 L 513.817, 382.587 L 499.012, 380.568 L 499.853, 376.698 L 511.462, 378.381 L 517.35, 353.312 L 514.322, 353.144 L 518.023, 337.834 L 495.142, 334.974 z "/>
<path style="fill:rgb(255, 255, 0);fill-opacity:0;fill-rule:evenodd;stroke:rgb(21, 255, 0);stroke-width:1;" d="M 571.188, 751.714 L 592.387, 723.785 L 602.65, 728.328 L 581.451, 756.257 L 571.188, 751.714 z "/>
<path style="fill:rgb(255, 0, 0);fill-opacity:0;fill-rule:evenodd;stroke:rgb(21, 255, 0);stroke-width:1;" d="M 848.623, 446.351 L 854.848, 437.939 L 886.814, 451.23 L 880.589, 459.811 L 857.035, 449.884 L 848.623, 446.351 z "/>
<path style="fill:rgb(0, 255, 0);fill-opacity:0;fill-rule:evenodd;stroke:rgb(21, 255, 0);stroke-width:1;" d="M 581.788, 319.664 L 583.47, 308.055 L 617.287, 322.019 L 610.726, 329.758 L 581.788, 319.664 z "/>
<path style="fill:rgb(0, 0, 255);fill-opacity:0;fill-rule:evenodd;stroke:rgb(21, 255, 0);stroke-width:1;" d="M 485.216, 176.656 L 494.974, 163.701 L 495.983, 163.533 L 496.824, 163.533 L 506.246, 167.234 L 508.433, 168.58 L 509.611, 169.59 L 510.62, 171.104 L 511.125, 172.955 L 511.293, 174.805 L 511.293, 176.32 L 510.957, 177.834 L 506.583, 183.722 L 505.91, 184.227 L 504.9, 184.564 L 504.059, 184.395 L 502.881, 184.227 L 485.384, 177.161 L 485.216, 176.656 z "/>
<path style="fill:rgb(255, 255, 0);fill-opacity:0;fill-rule:evenodd;stroke:rgb(21, 255, 0);stroke-width:1;" d="M 823.891, 471.924 L 825.237, 469.905 L 824.227, 469.569 L 827.592, 464.858 L 865.279, 480.841 L 860.063, 487.907 L 836.341, 477.813 L 829.947, 475.121 L 830.284, 474.616 L 823.891, 471.924 z "/>
<path style="fill:rgb(255, 0, 0);fill-opacity:0;fill-rule:evenodd;stroke:rgb(21, 255, 0);stroke-width:1;" d="M 552.85, 737.077 L 570.347, 714.196 L 581.619, 719.075 L 564.122, 742.124 L 552.85, 737.077 z "/>
<path style="fill:rgb(0, 255, 0);fill-opacity:0;fill-rule:evenodd;stroke:rgb(21, 255, 0);stroke-width:1;" d="M 671.966, 498.17 L 677.687, 490.263 L 686.435, 493.796 L 688.118, 491.441 L 706.793, 499.18 L 699.39, 509.611 L 671.966, 498.17 z "/>
<path style="fill:rgb(0, 0, 255);fill-opacity:0;fill-rule:evenodd;stroke:rgb(21, 255, 0);stroke-width:1;" d="M 858.212, 742.797 L 858.885, 741.788 L 877.729, 716.215 L 878.906, 714.532 L 888.328, 718.57 L 869.989, 743.302 L 866.456, 741.788 L 863.933, 745.152 L 858.212, 742.797 z "/>
<path style="fill:rgb(255, 255, 0);fill-opacity:0;fill-rule:evenodd;stroke:rgb(21, 255, 0);stroke-width:1;" d="M 254.89, 529.632 L 256.909, 520.883 L 287.192, 524.921 L 284.332, 537.035 L 255.058, 529.8 L 254.89, 529.632 z "/>
<path style="fill:rgb(255, 0, 0);fill-opacity:0;fill-rule:evenodd;stroke:rgb(21, 255, 0);stroke-width:1;" d="M 859.222, 393.018 L 859.727, 392.345 L 867.129, 382.25 L 881.262, 388.139 L 889.338, 391.504 L 881.43, 402.44 L 859.222, 393.018 z "/>
<path style="fill:rgb(0, 255, 0);fill-opacity:0;fill-rule:evenodd;stroke:rgb(21, 255, 0);stroke-width:1;" d="M 869.989, 743.302 L 888.328, 718.57 L 897.918, 722.776 L 891.356, 731.693 L 879.748, 747.508 L 869.989, 743.302 z "/>
<path style="fill:rgb(0, 0, 255);fill-opacity:0;fill-rule:evenodd;stroke:rgb(21, 255, 0);stroke-width:1;" d="M 849.632, 460.147 L 857.035, 449.884 L 880.589, 459.811 L 873.186, 470.074 L 849.632, 460.147 z "/>
<path style="fill:rgb(255, 255, 0);fill-opacity:0;fill-rule:evenodd;stroke:rgb(21, 255, 0);stroke-width:1;" d="M 581.115, 508.433 L 588.349, 480.673 L 596.425, 484.038 L 603.659, 487.066 L 587.34, 509.443 L 581.115, 508.433 z "/>
<path style="fill:rgb(255, 0, 0);fill-opacity:0;fill-rule:evenodd;stroke:rgb(21, 255, 0);stroke-width:1;" d="M 838.023, 441.977 L 843.07, 434.742 L 852.997, 421.283 L 863.764, 425.657 L 854.848, 437.939 L 848.623, 446.351 L 838.023, 441.977 z "/>
<path style="fill:rgb(0, 255, 0);fill-opacity:0;fill-rule:evenodd;stroke:rgb(21, 255, 0);stroke-width:1;" d="M 747.34, 333.123 L 760.126, 315.962 L 772.913, 321.346 L 760.294, 338.507 L 752.387, 335.142 L 747.34, 333.123 z "/>
<path style="fill:rgb(0, 0, 255);fill-opacity:0;fill-rule:evenodd;stroke:rgb(21, 255, 0);stroke-width:1;" d="M 136.109, 306.54 L 143.512, 296.446 L 147.045, 297.96 L 149.905, 294.259 L 161.514, 299.138 L 151.42, 312.766 L 150.242, 314.616 L 140.147, 310.41 L 141.325, 308.728 L 136.109, 306.54 z "/>
<path style="fill:rgb(255, 255, 0);fill-opacity:0;fill-rule:evenodd;stroke:rgb(21, 255, 0);stroke-width:1;" d="M 86.8139, 348.097 L 94.7213, 337.497 L 96.9085, 334.301 L 104.816, 337.666 L 112.219, 340.862 L 102.124, 354.49 L 86.8139, 348.097 z "/>
<path style="fill:rgb(255, 0, 0);fill-opacity:0;fill-rule:evenodd;stroke:rgb(21, 255, 0);stroke-width:1;" d="M 922.65, 329.422 L 930.726, 318.822 L 933.586, 314.616 L 947.718, 320.505 L 936.782, 335.478 L 922.65, 329.422 z "/>
<path style="fill:rgb(0, 255, 0);fill-opacity:0;fill-rule:evenodd;stroke:rgb(21, 255, 0);stroke-width:1;" d="M 54.0063, 107.844 L 67.2976, 89.5058 L 76.3828, 93.2072 L 75.878, 94.0484 L 78.7382, 95.2261 L 69.1483, 108.686 L 68.6435, 109.359 L 64.7739, 107.676 L 62.2503, 111.209 L 54.0063, 107.844 z "/>
<path style="fill:rgb(0, 0, 255);fill-opacity:0;fill-rule:evenodd;stroke:rgb(21, 255, 0);stroke-width:1;" d="M 820.694, 486.898 L 824.395, 481.851 L 831.293, 484.879 L 855.016, 494.805 L 849.968, 501.872 L 826.246, 491.945 L 827.76, 489.926 L 820.694, 486.898 z "/>
<path style="fill:rgb(255, 255, 0);fill-opacity:0;fill-rule:evenodd;stroke:rgb(21, 255, 0);stroke-width:1;" d="M 453.081, 507.928 L 455.773, 498.17 L 482.019, 502.545 L 478.991, 512.135 L 453.081, 507.928 z "/>
<path style="fill:rgb(255, 0, 0);fill-opacity:0;fill-rule:evenodd;stroke:rgb(21, 255, 0);stroke-width:1;" d="M 940.147, 708.139 L 956.467, 685.762 L 965.384, 689.464 L 949.064, 711.84 L 940.147, 708.139 z "/>
<path style="fill:rgb(0, 255, 0);fill-opacity:0;fill-rule:evenodd;stroke:rgb(21, 255, 0);stroke-width:1;" d="M 949.064, 711.84 L 965.384, 689.464 L 974.301, 693.333 L 957.981, 715.71 L 949.064, 711.84 z "/>
<path style="fill:rgb(0, 0, 255);fill-opacity:0;fill-rule:evenodd;stroke:rgb(21, 255, 0);stroke-width:1;" d="M 931.23, 704.437 L 947.55, 682.061 L 956.467, 685.762 L 940.147, 708.139 L 931.23, 704.437 z "/>
<path style="fill:rgb(255, 255, 0);fill-opacity:0;fill-rule:evenodd;stroke:rgb(21, 255, 0);stroke-width:1;" d="M 919.958, 114.069 L 938.465, 88.1598 L 946.036, 91.3565 L 927.529, 117.266 L 919.958, 114.069 z "/>
<path style="fill:rgb(255, 0, 0);fill-opacity:0;fill-rule:evenodd;stroke:rgb(21, 255, 0);stroke-width:1;" d="M 958.486, 776.446 L 968.58, 762.65 L 974.805, 754.406 L 983.386, 758.107 L 967.066, 780.147 L 958.486, 776.446 z "/>
<path style="fill:rgb(0, 255, 0);fill-opacity:0;fill-rule:evenodd;stroke:rgb(21, 255, 0);stroke-width:1;" d="M 917.266, 698.549 L 917.603, 698.044 L 933.249, 676.677 L 934.09, 677.014 L 937.287, 672.639 L 943.68, 675.331 L 940.82, 679.201 L 924.501, 701.577 L 917.266, 698.549 z "/>
<path style="fill:rgb(0, 0, 255);fill-opacity:0;fill-rule:evenodd;stroke:rgb(21, 255, 0);stroke-width:1;" d="M 843.575, 298.97 L 847.613, 293.417 L 849.464, 294.09 L 850.473, 292.913 L 869.821, 301.157 L 868.812, 302.334 L 870.999, 303.176 L 866.961, 308.728 L 864.774, 307.886 L 863.764, 309.401 L 844.248, 301.157 L 845.426, 299.642 L 843.575, 298.97 z "/>
<path style="fill:rgb(255, 255, 0);fill-opacity:0;fill-rule:evenodd;stroke:rgb(21, 255, 0);stroke-width:1;" d="M 556.215, 495.31 L 559.243, 483.028 L 577.75, 485.552 L 574.721, 497.834 L 556.215, 495.31 z "/>
<path style="fill:rgb(255, 0, 0);fill-opacity:0;fill-rule:evenodd;stroke:rgb(21, 255, 0);stroke-width:1;" d="M 799.495, 319.495 L 811.777, 316.803 L 813.123, 320.505 L 817.497, 332.114 L 814.301, 336.488 L 809.59, 337.329 L 805.216, 335.31 L 800.841, 323.197 L 799.495, 319.495 z "/>
<path style="fill:rgb(0, 255, 0);fill-opacity:0;fill-rule:evenodd;stroke:rgb(21, 255, 0);stroke-width:1;" d="M 813.796, 299.979 L 818.507, 298.97 L 831.462, 296.278 L 840.883, 300.147 L 836.677, 306.036 L 822.376, 309.064 L 817.497, 310.074 L 813.796, 299.979 z "/>
<path style="fill:rgb(0, 0, 255);fill-opacity:0;fill-rule:evenodd;stroke:rgb(21, 255, 0);stroke-width:1;" d="M 913.565, 111.377 L 932.072, 85.4679 L 935.605, 84.9632 L 938.128, 85.9727 L 938.801, 87.6551 L 938.465, 88.1598 L 919.958, 114.069 L 913.565, 111.377 z "/>
<path style="fill:rgb(255, 255, 0);fill-opacity:0;fill-rule:evenodd;stroke:rgb(21, 255, 0);stroke-width:1;" d="M 827.76, 344.564 L 830.789, 340.358 L 832.639, 340.189 L 834.49, 337.666 L 833.985, 335.983 L 838.36, 329.758 L 850.473, 334.974 L 842.229, 345.573 L 839.369, 349.611 L 827.76, 344.564 z "/>
<path style="fill:rgb(255, 0, 0);fill-opacity:0;fill-rule:evenodd;stroke:rgb(21, 255, 0);stroke-width:1;" d="M 455.773, 498.17 L 458.128, 490.263 L 484.374, 494.637 L 482.019, 502.545 L 455.773, 498.17 z "/>
<path style="fill:rgb(0, 255, 0);fill-opacity:0;fill-rule:evenodd;stroke:rgb(21, 255, 0);stroke-width:1;" d="M 831.293, 484.879 L 836.341, 477.813 L 860.063, 487.907 L 855.016, 494.805 L 831.293, 484.879 z "/>
<path style="fill:rgb(0, 0, 255);fill-opacity:0;fill-rule:evenodd;stroke:rgb(21, 255, 0);stroke-width:1;" d="M 538.381, 720.589 L 549.653, 705.783 L 560.084, 710.326 L 548.812, 725.131 L 538.381, 720.589 z "/>
<path style="fill:rgb(255, 255, 0);fill-opacity:0;fill-rule:evenodd;stroke:rgb(21, 255, 0);stroke-width:1;" d="M 69.1483, 108.686 L 78.7382, 95.2261 L 90.5152, 100.105 L 80.9253, 113.565 L 69.1483, 108.686 z "/>
<path style="fill:rgb(255, 0, 0);fill-opacity:0;fill-rule:evenodd;stroke:rgb(21, 255, 0);stroke-width:1;" d="M 924.501, 701.577 L 940.82, 679.201 L 947.55, 682.061 L 931.23, 704.437 L 924.501, 701.577 z "/>
<path style="fill:rgb(0, 255, 0);fill-opacity:0;fill-rule:evenodd;stroke:rgb(21, 255, 0);stroke-width:1;" d="M 867.298, 357.855 L 871.84, 351.798 L 875.373, 346.919 L 888.833, 352.639 L 880.757, 363.575 L 867.298, 357.855 z "/>
<path style="fill:rgb(0, 0, 255);fill-opacity:0;fill-rule:evenodd;stroke:rgb(21, 255, 0);stroke-width:1;" d="M 933.922, 352.303 L 939.642, 344.564 L 958.486, 352.471 L 952.766, 360.21 L 933.922, 352.303 z "/>
<path style="fill:rgb(255, 255, 0);fill-opacity:0;fill-rule:evenodd;stroke:rgb(21, 255, 0);stroke-width:1;" d="M 491.945, 303.849 L 493.964, 294.427 L 513.312, 296.951 L 511.125, 306.372 L 491.945, 303.849 z "/>
<path style="fill:rgb(255, 0, 0);fill-opacity:0;fill-rule:evenodd;stroke:rgb(21, 255, 0);stroke-width:1;" d="M 832.639, 430.368 L 842.566, 416.909 L 852.997, 421.283 L 843.07, 434.742 L 832.639, 430.368 z "/>
<path style="fill:rgb(0, 255, 0);fill-opacity:0;fill-rule:evenodd;stroke:rgb(21, 255, 0);stroke-width:1;" d="M 795.121, 489.422 L 802.692, 478.991 L 812.114, 482.86 L 810.263, 485.384 L 814.132, 486.898 L 808.244, 494.974 L 795.121, 489.422 z "/>
<path style="fill:rgb(0, 0, 255);fill-opacity:0;fill-rule:evenodd;stroke:rgb(21, 255, 0);stroke-width:1;" d="M 636.803, 509.611 L 641.346, 503.554 L 654.637, 508.938 L 647.739, 518.528 L 637.981, 514.49 L 640.336, 511.125 L 636.803, 509.611 z "/>
<path style="fill:rgb(255, 255, 0);fill-opacity:0;fill-rule:evenodd;stroke:rgb(21, 255, 0);stroke-width:1;" d="M 591.377, 202.902 L 605.51, 208.959 L 593.901, 224.774 L 591.377, 202.902 z "/>
<path style="fill:rgb(255, 0, 0);fill-opacity:0;fill-rule:evenodd;stroke:rgb(21, 255, 0);stroke-width:1;" d="M 80.4206, 114.238 L 80.9253, 113.565 L 90.5152, 100.105 L 98.2545, 103.47 L 89.8423, 115.079 L 88.1598, 117.434 L 80.4206, 114.238 z "/>
<path style="fill:rgb(0, 255, 0);fill-opacity:0;fill-rule:evenodd;stroke:rgb(21, 255, 0);stroke-width:1;" d="M 484.543, 362.566 L 486.562, 353.144 L 500.862, 354.995 L 498.843, 364.248 L 484.543, 362.566 z "/>
<path style="fill:rgb(0, 0, 255);fill-opacity:0;fill-rule:evenodd;stroke:rgb(21, 255, 0);stroke-width:1;" d="M 583.975, 478.991 L 589.863, 470.747 L 600.126, 474.953 L 602.313, 475.962 L 596.425, 484.038 L 588.349, 480.673 L 583.975, 478.991 z "/>
<path style="fill:rgb(255, 255, 0);fill-opacity:0;fill-rule:evenodd;stroke:rgb(21, 255, 0);stroke-width:1;" d="M 610.894, 218.212 L 616.446, 209.8 L 628.896, 214.679 L 623.344, 222.923 L 610.894, 218.212 z "/>
<path style="fill:rgb(255, 0, 0);fill-opacity:0;fill-rule:evenodd;stroke:rgb(21, 255, 0);stroke-width:1;" d="M 685.762, 300.82 L 691.987, 292.408 L 701.914, 296.614 L 698.212, 301.661 L 702.25, 303.344 L 699.727, 306.709 L 685.762, 300.82 z "/>
<path style="fill:rgb(0, 255, 0);fill-opacity:0;fill-rule:evenodd;stroke:rgb(21, 255, 0);stroke-width:1;" d="M 449.716, 164.879 L 456.446, 155.121 L 466.54, 159.159 L 459.811, 168.917 L 449.716, 164.879 z "/>
<path style="fill:rgb(0, 0, 255);fill-opacity:0;fill-rule:evenodd;stroke:rgb(21, 255, 0);stroke-width:1;" d="M 600.126, 474.953 L 606.183, 466.54 L 617.624, 471.42 L 611.567, 479.832 L 602.313, 475.962 L 600.126, 474.953 z "/>
<path style="fill:rgb(255, 255, 0);fill-opacity:0;fill-rule:evenodd;stroke:rgb(21, 255, 0);stroke-width:1;" d="M 638.654, 492.618 L 640.505, 489.926 L 664.227, 495.31 L 659.853, 501.199 L 638.654, 492.618 z "/>
<path style="fill:rgb(255, 0, 0);fill-opacity:0;fill-rule:evenodd;stroke:rgb(21, 255, 0);stroke-width:1;" d="M 469.064, 424.143 L 471.588, 415.563 L 483.197, 417.581 L 480.673, 426.162 L 469.064, 424.143 z "/>
<path style="fill:rgb(0, 255, 0);fill-opacity:0;fill-rule:evenodd;stroke:rgb(21, 255, 0);stroke-width:1;" d="M 641.514, 511.798 L 641.514, 510.62 L 642.019, 509.443 L 643.028, 508.601 L 644.206, 507.928 L 645.72, 507.76 L 647.234, 507.76 L 648.58, 508.097 L 649.758, 508.938 L 650.599, 509.779 L 650.936, 510.957 L 650.936, 511.966 L 650.431, 513.144 L 649.422, 513.985 L 648.244, 514.658 L 646.73, 514.995 L 645.216, 514.826 L 643.87, 514.49 L 642.692, 513.817 L 641.851, 512.808 L 641.514, 511.798 z "/>
<path style="fill:rgb(0, 0, 255);fill-opacity:0;fill-rule:evenodd;stroke:rgb(21, 255, 0);stroke-width:1;" d="M 466.54, 169.758 L 466.709, 168.244 L 467.886, 166.898 L 469.569, 166.057 L 471.756, 166.057 L 473.607, 166.562 L 474.953, 167.739 L 475.626, 169.085 L 475.289, 170.599 L 474.111, 171.945 L 472.429, 172.787 L 470.41, 172.787 L 468.391, 172.282 L 467.045, 171.104 L 466.54, 169.758 z "/>
<path style="fill:rgb(255, 255, 0);fill-opacity:0;fill-rule:evenodd;stroke:rgb(21, 255, 0);stroke-width:1;" d="M 0, 702.755 L 20.1893, 674.995 L 79.9159, 700.231 L 94.3849, 680.21 L 48.1178, 660.694 L 67.9706, 633.27 L 103.807, 648.412 L 178.843, 680.042 L 162.692, 702.25 L 163.365, 704.606 L 161.346, 707.466 L 158.991, 707.298 L 144.353, 727.487 L 145.531, 729.338 L 143.512, 732.029 L 140.988, 732.198 L 124.332, 754.911 L 0, 702.755 z "/>
<path style="fill:rgb(255, 0, 0);fill-opacity:0;fill-rule:evenodd;stroke:rgb(21, 255, 0);stroke-width:1;" d="M 3.70137, 172.618 L 47.2766, 112.05 L 50.6414, 113.565 L 51.9874, 111.714 L 62.755, 116.088 L 64.6057, 113.396 L 97.0768, 120.463 L 98.2545, 118.612 L 119.285, 127.361 L 60.7361, 196.341 L 3.70137, 172.618 z "/>
<path style="fill:rgb(0, 255, 0);fill-opacity:0;fill-rule:evenodd;stroke:rgb(21, 255, 0);stroke-width:1;" d="M 11.6088, 317.14 L 63.7645, 255.226 L 102.461, 274.406 L 110.705, 278.275 L 88.6646, 306.877 L 102.965, 313.438 L 85.2997, 333.46 L 94.7213, 337.497 L 86.8139, 348.097 L 86.3091, 348.938 L 11.6088, 317.14 z "/>
<path style="fill:rgb(0, 0, 255);fill-opacity:0;fill-rule:evenodd;stroke:rgb(21, 255, 0);stroke-width:1;" d="M 37.0137, 530.81 L 51.4826, 510.789 L 45.4259, 508.265 L 52.8286, 498.002 L 86.1409, 512.135 L 84.795, 513.985 L 93.3754, 517.518 L 94.7213, 515.836 L 156.635, 542.082 L 155.289, 543.764 L 166.225, 548.475 L 167.571, 546.625 L 200.547, 560.589 L 193.144, 570.852 L 187.592, 568.496 L 172.955, 588.349 L 139.474, 574.217 L 146.54, 564.29 L 148.559, 565.131 L 150.747, 562.271 L 138.465, 557.056 L 134.932, 561.767 L 83.449, 540.063 L 86.9821, 535.184 L 77.3922, 531.146 L 75.205, 534.006 L 77.5605, 535.016 L 70.326, 544.942 L 37.0137, 530.81 z "/>
<path style="fill:rgb(255, 255, 0);fill-opacity:0;fill-rule:evenodd;stroke:rgb(21, 255, 0);stroke-width:1;" d="M 7.23449, 572.702 L 24.2271, 549.653 L 131.567, 595.247 L 114.406, 618.97 L 108.854, 616.614 L 110.2, 614.763 L 13.6278, 573.712 L 12.7865, 575.058 L 7.23449, 572.702 z "/>
<path style="fill:rgb(255, 0, 0);fill-opacity:0;fill-rule:evenodd;stroke:rgb(21, 255, 0);stroke-width:1;" d="M 37.5184, 458.465 L 63.5962, 422.461 L 64.7739, 422.965 L 65.9516, 421.283 L 87.9916, 430.536 L 60.7361, 468.055 L 37.5184, 458.465 z "/>
<path style="fill:rgb(0, 255, 0);fill-opacity:0;fill-rule:evenodd;stroke:rgb(21, 255, 0);stroke-width:1;" d="M 42.9022, 410.852 L 46.6036, 405.804 L 44.5846, 404.963 L 68.307, 372.492 L 87.8233, 380.736 L 62.2503, 416.067 L 60.5678, 418.254 L 42.9022, 410.852 z "/>
<path style="fill:rgb(0, 0, 255);fill-opacity:0;fill-rule:evenodd;stroke:rgb(21, 255, 0);stroke-width:1;" d="M 39.7056, 105.321 L 42.2292, 101.619 L 54.8475, 84.2902 L 67.2976, 89.5058 L 54.0063, 107.844 L 52.1556, 110.536 L 39.7056, 105.321 z "/>
<path style="fill:rgb(255, 255, 0);fill-opacity:0;fill-rule:evenodd;stroke:rgb(21, 255, 0);stroke-width:1;" d="M 208.623, 88.6646 L 224.101, 67.9706 L 242.776, 76.0463 L 272.723, 36.0042 L 357.35, 72.8496 L 344.059, 90.5152 L 321.851, 120.294 L 295.605, 154.953 L 231.504, 127.024 L 247.487, 105.825 L 227.971, 97.0768 L 208.623, 88.6646 z "/>
<path style="fill:rgb(255, 0, 0);fill-opacity:0;fill-rule:evenodd;stroke:rgb(21, 255, 0);stroke-width:1;" d="M 328.749, 118.78 L 329.926, 112.555 L 336.993, 115.584 L 352.639, 94.2166 L 344.059, 90.5152 L 357.35, 72.8496 L 383.428, 84.2902 L 374.679, 125.51 L 328.749, 118.78 z "/>
<path style="fill:rgb(0, 255, 0);fill-opacity:0;fill-rule:evenodd;stroke:rgb(21, 255, 0);stroke-width:1;" d="M 859.558, 89.0011 L 870.999, 73.0179 L 872.177, 73.3544 L 900.442, 85.1314 L 913.565, 90.5152 L 901.956, 106.667 L 859.558, 89.0011 z "/>
<path style="fill:rgb(0, 0, 255);fill-opacity:0;fill-rule:evenodd;stroke:rgb(21, 255, 0);stroke-width:1;" d="M 901.956, 106.667 L 913.565, 90.5152 L 929.716, 67.8023 L 941.325, 72.5131 L 932.072, 85.4679 L 913.565, 111.377 L 901.956, 106.667 z "/>
<path style="fill:rgb(255, 255, 0);fill-opacity:0;fill-rule:evenodd;stroke:rgb(21, 255, 0);stroke-width:1;" d="M 565.636, 9.42166 L 572.198, 0 L 640, 28.265 L 647.066, 31.2934 L 679.369, 44.7529 L 700.4, 53.5016 L 742.797, 70.9989 L 763.828, 79.7476 L 796.13, 93.2072 L 803.197, 96.0673 L 799.327, 101.451 L 784.017, 122.65 L 760.463, 155.289 L 745.152, 176.32 L 741.283, 181.703 L 734.217, 178.675 L 701.914, 165.216 L 680.883, 156.467 L 638.486, 139.138 L 617.455, 130.557 L 585.152, 117.098 L 578.086, 114.238 L 565.636, 9.42166 z "/>
<path style="fill:rgb(255, 0, 0);fill-opacity:0;fill-rule:evenodd;stroke:rgb(21, 255, 0);stroke-width:1;" d="M 620.82, 54.8475 L 636.299, 33.6488 L 640, 28.265 L 647.066, 31.2934 L 679.369, 44.7529 L 700.4, 53.5016 L 696.53, 58.7171 L 703.596, 61.5773 L 695.857, 72.1767 L 688.791, 69.3165 L 685.089, 74.5321 L 678.023, 71.6719 L 674.154, 77.0557 L 660.189, 71.1672 L 653.123, 68.307 L 627.886, 57.7077 L 620.82, 54.8475 z "/>
<path style="fill:rgb(0, 255, 0);fill-opacity:0;fill-rule:evenodd;stroke:rgb(21, 255, 0);stroke-width:1;" d="M 724.29, 83.9537 L 732.029, 73.3544 L 738.927, 76.3828 L 742.797, 70.9989 L 763.828, 79.7476 L 796.13, 93.2072 L 803.197, 96.0673 L 799.327, 101.451 L 784.017, 122.65 L 776.951, 119.621 L 751.714, 109.19 L 744.648, 106.33 L 730.683, 100.442 L 734.553, 95.2261 L 727.487, 92.1977 L 731.356, 86.9821 L 724.29, 83.9537 z "/>
<path style="fill:rgb(0, 0, 255);fill-opacity:0;fill-rule:evenodd;stroke:rgb(21, 255, 0);stroke-width:1;" d="M 620.82, 54.8475 L 636.299, 33.6488 L 643.197, 36.5089 L 647.066, 31.2934 L 679.369, 44.7529 L 700.4, 53.5016 L 696.53, 58.7171 L 703.596, 61.5773 L 695.857, 72.1767 L 688.791, 69.3165 L 685.089, 74.5321 L 678.023, 71.6719 L 674.154, 77.0557 L 660.189, 71.1672 L 653.123, 68.307 L 627.886, 57.7077 L 620.82, 54.8475 z "/>
<path style="fill:rgb(255, 255, 0);fill-opacity:0;fill-rule:evenodd;stroke:rgb(21, 255, 0);stroke-width:1;" d="M 724.29, 83.9537 L 732.029, 73.3544 L 738.927, 76.3828 L 742.797, 70.9989 L 763.828, 79.7476 L 796.13, 93.2072 L 792.261, 98.591 L 799.327, 101.451 L 784.017, 122.65 L 776.951, 119.621 L 751.714, 109.19 L 744.648, 106.33 L 730.683, 100.442 L 734.553, 95.2261 L 727.487, 92.1977 L 731.356, 86.9821 L 724.29, 83.9537 z "/>
<path style="fill:rgb(255, 0, 0);fill-opacity:0;fill-rule:evenodd;stroke:rgb(21, 255, 0);stroke-width:1;" d="M 620.82, 54.8475 L 636.299, 33.6488 L 643.197, 36.5089 L 647.066, 31.2934 L 679.369, 44.7529 L 660.189, 71.1672 L 653.123, 68.307 L 627.886, 57.7077 L 620.82, 54.8475 z "/>
<path style="fill:rgb(0, 255, 0);fill-opacity:0;fill-rule:evenodd;stroke:rgb(21, 255, 0);stroke-width:1;" d="M 627.886, 57.7077 L 643.197, 36.5089 L 668.601, 47.1083 L 653.123, 68.307 L 627.886, 57.7077 z "/>
<path style="fill:rgb(0, 0, 255);fill-opacity:0;fill-rule:evenodd;stroke:rgb(21, 255, 0);stroke-width:1;" d="M 316.972, 788.223 L 324.374, 777.792 L 350.789, 788.896 L 343.049, 800 L 316.972, 788.223 z "/>
<path style="fill:rgb(255, 255, 0);fill-opacity:0;fill-rule:evenodd;stroke:rgb(21, 255, 0);stroke-width:1;" d="M 316.972, 788.223 L 324.374, 777.792 L 350.789, 788.896 L 343.049, 800 L 316.972, 788.223 z "/>
</svg>