<?xml version="1.0" encoding="iso-8859-1" standalone="no"?>
<!DOCTYPE svg PUBLIC "-//W3C//DTD SVG 1.0//EN" "http://www.w3.org/TR/2001/REC-SVG-20010904/DTD/svg10.dtd">
<svg xmlns="http://www.w3.org/2000/svg" width="1081" height="800">
<path style="fill:rgb(255, 0, 0);fill-opacity:0;fill-rule:evenodd;stroke:rgb(255, 0, 175);stroke-width:1;" d="M 328.707, 533.696 L 360.454, 489.977 L 403.084, 507.937 L 436.644, 461.497 L 509.206, 491.973 L 475.283, 538.776 L 485.986, 543.311 L 488.889, 544.58 L 457.506, 587.755 L 328.707, 533.696 z "/>
<path style="fill:rgb(0, 255, 0);fill-opacity:0;fill-rule:evenodd;stroke:rgb(255, 0, 175);stroke-width:1;" d="M 74.3764, 620.59 L 75.8277, 602.449 L 113.56, 559.456 L 120.454, 516.825 L 111.565, 515.737 L 115.556, 492.88 L 123.175, 481.814 L 134.24, 486.349 L 131.338, 490.159 L 224.943, 530.975 L 224.943, 532.608 L 228.027, 532.789 L 221.497, 604.444 L 207.891, 603.537 L 209.342, 586.304 L 144.58, 583.039 L 142.766, 602.63 L 136.961, 602.449 L 135.51, 619.864 L 117.914, 618.957 L 117.551, 622.585 L 74.3764, 620.59 z "/>
<path style="fill:rgb(0, 0, 255);fill-opacity:0;fill-rule:evenodd;stroke:rgb(255, 0, 175);stroke-width:1;" d="M 339.41, 211.156 L 403.991, 123.175 L 489.252, 159.274 L 460.227, 198.821 L 455.51, 205.351 L 425.397, 246.349 L 424.671, 247.438 L 339.41, 211.156 z "/>
<path style="fill:rgb(255, 255, 0);fill-opacity:0;fill-rule:evenodd;stroke:rgb(255, 0, 175);stroke-width:1;" d="M 966.531, 173.061 L 1024.76, 92.517 L 1081.18, 116.281 L 1023.13, 196.644 L 1017.32, 194.286 L 1001.36, 187.574 L 966.531, 173.061 z "/>
<path style="fill:rgb(255, 0, 0);fill-opacity:0;fill-rule:evenodd;stroke:rgb(255, 0, 175);stroke-width:1;" d="M 794.014, 579.229 L 804.717, 523.537 L 832.472, 535.147 L 841.361, 538.957 L 838.821, 542.404 L 878.367, 559.093 L 882.54, 560.907 L 913.197, 573.787 L 897.234, 595.918 L 898.141, 599.184 L 885.261, 616.599 L 884.717, 617.506 L 794.014, 579.229 z "/>
<path style="fill:rgb(0, 255, 0);fill-opacity:0;fill-rule:evenodd;stroke:rgb(255, 0, 175);stroke-width:1;" d="M 945.125, 799.456 L 946.395, 709.116 L 1009.71, 709.66 L 1008.62, 780.408 L 1008.44, 800 L 945.125, 799.456 z "/>
<path style="fill:rgb(0, 0, 255);fill-opacity:0;fill-rule:evenodd;stroke:rgb(255, 0, 175);stroke-width:1;" d="M 779.683, 675.737 L 790.023, 609.705 L 835.918, 629.297 L 932.608, 670.476 L 931.701, 673.923 L 817.778, 675.374 L 779.683, 675.737 z "/>
<path style="fill:rgb(255, 255, 0);fill-opacity:0;fill-rule:evenodd;stroke:rgb(255, 0, 175);stroke-width:1;" d="M 486.893, 600.091 L 519.184, 555.465 L 529.887, 560 L 533.878, 561.633 L 541.497, 551.111 L 560.544, 559.093 L 561.27, 558.005 L 598.821, 573.787 L 558.005, 629.841 L 486.893, 600.091 z "/>
<path style="fill:rgb(255, 0, 0);fill-opacity:0;fill-rule:evenodd;stroke:rgb(255, 0, 175);stroke-width:1;" d="M 424.671, 247.438 L 425.397, 246.349 L 455.51, 205.351 L 460.771, 207.71 L 465.669, 200.998 L 460.227, 198.821 L 489.252, 159.274 L 490.159, 158.005 L 532.789, 175.964 L 531.701, 177.415 L 498.866, 222.222 L 468.027, 264.127 L 467.12, 265.397 L 464.399, 264.308 L 426.485, 248.163 L 424.671, 247.438 z "/>
<path style="fill:rgb(0, 255, 0);fill-opacity:0;fill-rule:evenodd;stroke:rgb(255, 0, 175);stroke-width:1;" d="M 485.442, 446.984 L 490.159, 440.454 L 510.295, 413.243 L 514.649, 407.256 L 542.404, 419.048 L 552.562, 405.261 L 578.685, 369.524 L 607.528, 381.859 L 573.061, 429.025 L 567.075, 437.188 L 547.12, 464.399 L 542.404, 471.111 L 485.442, 446.984 z "/>
<path style="fill:rgb(0, 0, 255);fill-opacity:0;fill-rule:evenodd;stroke:rgb(255, 0, 175);stroke-width:1;" d="M 966.531, 173.061 L 1024.76, 92.517 L 1081.18, 116.281 L 1023.13, 196.644 L 1017.32, 194.286 L 1019.5, 191.202 L 1066.49, 126.984 L 1050.52, 120.272 L 1048.34, 123.175 L 1003.54, 184.49 L 1001.36, 187.574 L 966.531, 173.061 z "/>
<path style="fill:rgb(255, 255, 0);fill-opacity:0;fill-rule:evenodd;stroke:rgb(255, 0, 175);stroke-width:1;" d="M 668.662, 350.839 L 703.311, 303.673 L 737.778, 318.367 L 757.007, 326.531 L 772.789, 332.88 L 738.141, 379.683 L 668.662, 350.839 z "/>
<path style="fill:rgb(255, 0, 0);fill-opacity:0;fill-rule:evenodd;stroke:rgb(255, 0, 175);stroke-width:1;" d="M 519.184, 221.859 L 548.027, 182.494 L 618.05, 212.245 L 589.206, 251.61 L 519.184, 221.859 z "/>
<path style="fill:rgb(0, 255, 0);fill-opacity:0;fill-rule:evenodd;stroke:rgb(255, 0, 175);stroke-width:1;" d="M 347.937, 482.902 L 380.408, 438.095 L 436.644, 461.497 L 403.084, 507.937 L 360.454, 489.977 L 361.361, 488.707 L 347.937, 482.902 z "/>
<path style="fill:rgb(0, 0, 255);fill-opacity:0;fill-rule:evenodd;stroke:rgb(255, 0, 175);stroke-width:1;" d="M 400.181, 410.884 L 465.488, 321.633 L 493.968, 333.787 L 461.134, 378.776 L 428.662, 423.039 L 400.181, 410.884 z "/>
<path style="fill:rgb(255, 255, 0);fill-opacity:0;fill-rule:evenodd;stroke:rgb(255, 0, 175);stroke-width:1;" d="M 646.168, 622.585 L 654.15, 611.701 L 665.578, 596.1 L 682.086, 573.605 L 723.81, 591.202 L 717.642, 599.728 L 724.717, 602.63 L 720.726, 608.073 L 724.172, 609.524 L 722.902, 611.156 L 723.628, 611.519 L 721.27, 614.603 L 722.902, 615.147 L 721.995, 616.417 L 715.828, 624.218 L 712.381, 626.939 L 709.841, 641.633 L 700.227, 640.726 L 698.05, 643.991 L 680.272, 636.916 L 665.034, 630.567 L 646.168, 622.585 z "/>
<path style="fill:rgb(255, 0, 0);fill-opacity:0;fill-rule:evenodd;stroke:rgb(255, 0, 175);stroke-width:1;" d="M 587.937, 490.34 L 618.594, 448.435 L 619.683, 446.803 L 660.862, 464.218 L 674.649, 470.023 L 642.721, 513.56 L 587.937, 490.34 z "/>
<path style="fill:rgb(0, 255, 0);fill-opacity:0;fill-rule:evenodd;stroke:rgb(255, 0, 175);stroke-width:1;" d="M 571.973, 760.454 L 573.787, 712.2 L 634.739, 711.837 L 633.469, 755.556 L 633.288, 761.361 L 632.925, 769.887 L 620.227, 769.524 L 620.227, 767.528 L 620.045, 761.361 L 606.803, 761.179 L 571.973, 760.454 z "/>
<path style="fill:rgb(0, 0, 255);fill-opacity:0;fill-rule:evenodd;stroke:rgb(255, 0, 175);stroke-width:1;" d="M 592.109, 430.839 L 602.63, 416.327 L 617.506, 396.19 L 623.129, 388.39 L 679.909, 412.336 L 674.104, 420.136 L 664.853, 432.834 L 651.247, 451.519 L 648.889, 454.785 L 614.422, 440.272 L 624.943, 425.76 L 623.492, 425.215 L 619.501, 423.583 L 608.98, 437.914 L 592.109, 430.839 z "/>
<path style="fill:rgb(255, 255, 0);fill-opacity:0;fill-rule:evenodd;stroke:rgb(255, 0, 175);stroke-width:1;" d="M 885.261, 616.599 L 898.141, 599.184 L 906.667, 587.392 L 925.714, 595.374 L 930.068, 589.388 L 952.381, 598.821 L 964.898, 604.082 L 960.544, 610.068 L 978.685, 617.687 L 957.279, 647.075 L 885.261, 616.599 z "/>
<path style="fill:rgb(255, 0, 0);fill-opacity:0;fill-rule:evenodd;stroke:rgb(255, 0, 175);stroke-width:1;" d="M 817.234, 652.698 L 835.918, 629.297 L 932.608, 670.476 L 931.701, 673.923 L 817.778, 675.374 L 817.234, 652.698 z "/>
<path style="fill:rgb(0, 255, 0);fill-opacity:0;fill-rule:evenodd;stroke:rgb(255, 0, 175);stroke-width:1;" d="M 571.973, 760.454 L 573.787, 712.2 L 634.739, 711.837 L 633.469, 755.556 L 633.288, 761.361 L 620.045, 761.361 L 606.803, 761.179 L 571.973, 760.454 z "/>
<path style="fill:rgb(0, 0, 255);fill-opacity:0;fill-rule:evenodd;stroke:rgb(255, 0, 175);stroke-width:1;" d="M 913.923, 582.676 L 949.478, 533.878 L 947.12, 532.789 L 951.655, 526.44 L 993.923, 544.218 L 989.388, 550.567 L 987.937, 550.023 L 955.828, 594.104 L 952.381, 598.821 L 930.068, 589.388 L 913.923, 582.676 z "/>
<path style="fill:rgb(255, 255, 0);fill-opacity:0;fill-rule:evenodd;stroke:rgb(255, 0, 175);stroke-width:1;" d="M 467.12, 265.397 L 468.027, 264.127 L 498.866, 222.222 L 514.104, 228.753 L 546.939, 242.721 L 515.374, 285.896 L 467.12, 265.397 z "/>
<path style="fill:rgb(255, 0, 0);fill-opacity:0;fill-rule:evenodd;stroke:rgb(255, 0, 175);stroke-width:1;" d="M 515.374, 285.896 L 546.939, 242.721 L 583.764, 258.322 L 595.011, 263.039 L 563.265, 306.213 L 515.374, 285.896 z "/>
<path style="fill:rgb(0, 255, 0);fill-opacity:0;fill-rule:evenodd;stroke:rgb(255, 0, 175);stroke-width:1;" d="M 563.265, 306.213 L 595.011, 263.039 L 642.177, 282.993 L 610.612, 326.349 L 563.265, 306.213 z "/>
<path style="fill:rgb(0, 0, 255);fill-opacity:0;fill-rule:evenodd;stroke:rgb(255, 0, 175);stroke-width:1;" d="M 883.084, 440.816 L 915.737, 395.828 L 958.912, 414.15 L 945.669, 432.472 L 926.259, 458.957 L 883.084, 440.816 z "/>
<path style="fill:rgb(255, 255, 0);fill-opacity:0;fill-rule:evenodd;stroke:rgb(255, 0, 175);stroke-width:1;" d="M 193.016, 309.478 L 217.687, 275.374 L 259.048, 292.789 L 274.286, 299.138 L 249.433, 333.243 L 193.016, 309.478 z "/>
<path style="fill:rgb(255, 0, 0);fill-opacity:0;fill-rule:evenodd;stroke:rgb(255, 0, 175);stroke-width:1;" d="M 542.404, 471.111 L 547.12, 464.399 L 567.075, 437.188 L 573.061, 429.025 L 588.481, 435.556 L 618.594, 448.435 L 587.937, 490.34 L 542.404, 471.111 z "/>
<path style="fill:rgb(0, 255, 0);fill-opacity:0;fill-rule:evenodd;stroke:rgb(255, 0, 175);stroke-width:1;" d="M 854.24, 428.662 L 887.438, 383.311 L 892.88, 375.873 L 897.415, 369.161 L 901.406, 363.719 L 930.249, 375.873 L 915.737, 395.828 L 883.084, 440.816 L 854.24, 428.662 z "/>
<path style="fill:rgb(0, 0, 255);fill-opacity:0;fill-rule:evenodd;stroke:rgb(255, 0, 175);stroke-width:1;" d="M 428.662, 423.039 L 461.134, 378.776 L 475.465, 384.762 L 478.005, 385.85 L 488.707, 390.385 L 485.442, 394.921 L 499.592, 400.726 L 470.385, 440.635 L 428.662, 423.039 z "/>
<path style="fill:rgb(255, 255, 0);fill-opacity:0;fill-rule:evenodd;stroke:rgb(255, 0, 175);stroke-width:1;" d="M 503.401, 396.009 L 504.127, 394.921 L 535.873, 351.565 L 578.685, 369.524 L 552.562, 405.261 L 538.05, 398.912 L 531.338, 407.982 L 503.401, 396.009 z "/>
<path style="fill:rgb(255, 0, 0);fill-opacity:0;fill-rule:evenodd;stroke:rgb(255, 0, 175);stroke-width:1;" d="M 510.295, 413.243 L 514.649, 407.256 L 542.404, 419.048 L 552.562, 405.261 L 578.685, 369.524 L 607.528, 381.859 L 573.061, 429.025 L 567.075, 437.188 L 510.295, 413.243 z "/>
<path style="fill:rgb(0, 255, 0);fill-opacity:0;fill-rule:evenodd;stroke:rgb(255, 0, 175);stroke-width:1;" d="M 779.683, 675.737 L 790.023, 609.705 L 835.918, 629.297 L 834.104, 630.204 L 816.327, 652.517 L 816.871, 674.104 L 817.778, 675.374 L 779.683, 675.737 z "/>
<path style="fill:rgb(0, 0, 255);fill-opacity:0;fill-rule:evenodd;stroke:rgb(255, 0, 175);stroke-width:1;" d="M 130.975, 798.186 L 131.338, 757.37 L 143.311, 757.37 L 143.129, 766.077 L 183.946, 766.077 L 183.946, 761.361 L 194.83, 761.361 L 194.467, 798.367 L 130.975, 798.186 z "/>
<path style="fill:rgb(255, 255, 0);fill-opacity:0;fill-rule:evenodd;stroke:rgb(255, 0, 175);stroke-width:1;" d="M 860.59, 50.7937 L 875.646, 29.932 L 901.769, 40.8163 L 899.41, 44.0816 L 938.231, 60.2268 L 940.59, 56.9615 L 967.075, 68.0272 L 952.2, 88.7075 L 925.533, 77.6417 L 927.891, 74.3764 L 889.252, 58.2313 L 886.712, 61.678 L 860.59, 50.7937 z "/>
<path style="fill:rgb(255, 0, 0);fill-opacity:0;fill-rule:evenodd;stroke:rgb(255, 0, 175);stroke-width:1;" d="M 817.778, 109.388 L 832.653, 88.7075 L 858.776, 99.7732 L 856.417, 103.039 L 895.238, 119.365 L 897.596, 116.1 L 923.356, 126.984 L 908.481, 147.483 L 882.721, 136.599 L 885.079, 133.515 L 846.077, 117.188 L 843.719, 120.272 L 817.778, 109.388 z "/>
<path style="fill:rgb(0, 255, 0);fill-opacity:0;fill-rule:evenodd;stroke:rgb(255, 0, 175);stroke-width:1;" d="M 699.32, 539.138 L 749.751, 469.66 L 754.467, 471.655 L 740.862, 556.19 L 740.68, 556.553 L 699.32, 539.138 z "/>
<path style="fill:rgb(0, 0, 255);fill-opacity:0;fill-rule:evenodd;stroke:rgb(255, 0, 175);stroke-width:1;" d="M 290.249, 679.365 L 293.515, 640.363 L 345.397, 640.181 L 345.397, 641.088 L 345.76, 679.184 L 290.249, 679.365 z "/>
<path style="fill:rgb(255, 255, 0);fill-opacity:0;fill-rule:evenodd;stroke:rgb(255, 0, 175);stroke-width:1;" d="M 426.485, 248.163 L 456.961, 206.984 L 494.875, 222.948 L 464.399, 264.308 L 426.485, 248.163 z "/>
<path style="fill:rgb(255, 0, 0);fill-opacity:0;fill-rule:evenodd;stroke:rgb(255, 0, 175);stroke-width:1;" d="M 490.159, 440.454 L 510.295, 413.243 L 567.075, 437.188 L 547.12, 464.399 L 490.159, 440.454 z "/>
<path style="fill:rgb(0, 255, 0);fill-opacity:0;fill-rule:evenodd;stroke:rgb(255, 0, 175);stroke-width:1;" d="M 478.186, 714.014 L 538.957, 713.832 L 538.413, 747.211 L 493.243, 747.392 L 478.367, 747.392 L 478.186, 714.014 z "/>
<path style="fill:rgb(0, 0, 255);fill-opacity:0;fill-rule:evenodd;stroke:rgb(255, 0, 175);stroke-width:1;" d="M 463.129, 198.821 L 492.517, 158.912 L 530.249, 175.057 L 500.862, 215.147 L 463.129, 198.821 z "/>
<path style="fill:rgb(255, 255, 0);fill-opacity:0;fill-rule:evenodd;stroke:rgb(255, 0, 175);stroke-width:1;" d="M 284.263, 750.658 L 287.347, 714.921 L 338.866, 714.739 L 339.229, 750.658 L 310.567, 750.658 L 284.263, 750.658 z "/>
<path style="fill:rgb(255, 0, 0);fill-opacity:0;fill-rule:evenodd;stroke:rgb(255, 0, 175);stroke-width:1;" d="M 703.311, 303.673 L 705.669, 300.408 L 734.15, 261.406 L 768.798, 276.1 L 762.086, 285.17 L 737.778, 318.367 L 703.311, 303.673 z "/>
<path style="fill:rgb(0, 255, 0);fill-opacity:0;fill-rule:evenodd;stroke:rgb(255, 0, 175);stroke-width:1;" d="M 487.438, 541.315 L 519.909, 496.508 L 552.2, 510.113 L 519.728, 554.739 L 504.671, 548.571 L 490.34, 542.404 L 487.438, 541.315 z "/>
<path style="fill:rgb(0, 0, 255);fill-opacity:0;fill-rule:evenodd;stroke:rgb(255, 0, 175);stroke-width:1;" d="M 137.143, 643.81 L 139.138, 620.59 L 216.599, 624.58 L 214.603, 647.256 L 175.057, 645.261 L 161.995, 645.079 L 137.143, 643.81 z "/>
<path style="fill:rgb(255, 255, 0);fill-opacity:0;fill-rule:evenodd;stroke:rgb(255, 0, 175);stroke-width:1;" d="M 610.612, 326.349 L 642.177, 282.993 L 644.354, 280.091 L 673.016, 292.245 L 639.274, 338.503 L 610.612, 326.349 z "/>
<path style="fill:rgb(255, 0, 0);fill-opacity:0;fill-rule:evenodd;stroke:rgb(255, 0, 175);stroke-width:1;" d="M 318.005, 317.46 L 324.172, 309.116 L 344.49, 281.361 L 350.476, 273.197 L 379.138, 285.533 L 346.848, 329.796 L 318.005, 317.46 z "/>
<path style="fill:rgb(0, 255, 0);fill-opacity:0;fill-rule:evenodd;stroke:rgb(255, 0, 175);stroke-width:1;" d="M 560.544, 557.823 L 579.229, 532.063 L 582.676, 533.515 L 588.662, 525.351 L 623.311, 539.864 L 598.821, 573.787 L 561.27, 558.005 L 560.544, 557.823 z "/>
<path style="fill:rgb(0, 0, 255);fill-opacity:0;fill-rule:evenodd;stroke:rgb(255, 0, 175);stroke-width:1;" d="M 644.354, 280.091 L 676.1, 236.735 L 704.762, 249.07 L 687.528, 272.653 L 676.281, 287.891 L 673.016, 292.245 L 644.354, 280.091 z "/>
<path style="fill:rgb(255, 255, 0);fill-opacity:0;fill-rule:evenodd;stroke:rgb(255, 0, 175);stroke-width:1;" d="M 820.317, 414.512 L 830.113, 359.365 L 869.116, 375.692 L 835.918, 421.043 L 820.317, 414.512 z "/>
<path style="fill:rgb(255, 0, 0);fill-opacity:0;fill-rule:evenodd;stroke:rgb(255, 0, 175);stroke-width:1;" d="M 345.941, 630.748 L 360.635, 610.612 L 376.961, 588.118 L 406.349, 600.454 L 379.864, 637.098 L 378.776, 638.549 L 366.803, 639.637 L 345.941, 630.748 z "/>
<path style="fill:rgb(0, 255, 0);fill-opacity:0;fill-rule:evenodd;stroke:rgb(255, 0, 175);stroke-width:1;" d="M 846.621, 336.689 L 862.404, 315.102 L 866.757, 316.735 L 919.546, 339.048 L 917.188, 342.313 L 906.848, 356.463 L 903.764, 360.635 L 850.794, 338.503 L 846.621, 336.689 z "/>
<path style="fill:rgb(0, 0, 255);fill-opacity:0;fill-rule:evenodd;stroke:rgb(255, 0, 175);stroke-width:1;" d="M 475.465, 384.762 L 508.481, 339.773 L 535.873, 351.565 L 504.127, 394.921 L 479.093, 384.218 L 478.005, 385.85 L 475.465, 384.762 z "/>
<path style="fill:rgb(255, 255, 0);fill-opacity:0;fill-rule:evenodd;stroke:rgb(255, 0, 175);stroke-width:1;" d="M 651.247, 451.519 L 664.853, 432.834 L 674.104, 420.136 L 679.909, 412.336 L 708.027, 424.308 L 674.649, 470.023 L 660.862, 464.218 L 665.76, 457.506 L 651.247, 451.519 z "/>
<path style="fill:rgb(255, 0, 0);fill-opacity:0;fill-rule:evenodd;stroke:rgb(255, 0, 175);stroke-width:1;" d="M 808.345, 498.503 L 812.698, 467.846 L 865.306, 490.159 L 847.347, 514.649 L 808.345, 498.503 z "/>
<path style="fill:rgb(0, 255, 0);fill-opacity:0;fill-rule:evenodd;stroke:rgb(255, 0, 175);stroke-width:1;" d="M 678.639, 288.98 L 689.887, 273.56 L 687.528, 272.653 L 704.762, 249.07 L 734.15, 261.406 L 705.669, 300.408 L 689.342, 293.515 L 678.639, 288.98 z "/>
<path style="fill:rgb(0, 0, 255);fill-opacity:0;fill-rule:evenodd;stroke:rgb(255, 0, 175);stroke-width:1;" d="M 1001.36, 187.574 L 1003.54, 184.49 L 1048.34, 123.175 L 1050.52, 120.272 L 1066.49, 126.984 L 1064.31, 129.887 L 1019.5, 191.202 L 1017.32, 194.286 L 1001.36, 187.574 z "/>
<path style="fill:rgb(255, 255, 0);fill-opacity:0;fill-rule:evenodd;stroke:rgb(255, 0, 175);stroke-width:1;" d="M 971.791, 653.061 L 997.914, 617.143 L 1002.09, 611.519 L 1027.66, 622.222 L 997.37, 663.946 L 971.791, 653.061 z "/>
<path style="fill:rgb(255, 0, 0);fill-opacity:0;fill-rule:evenodd;stroke:rgb(255, 0, 175);stroke-width:1;" d="M 379.864, 637.098 L 406.349, 600.454 L 437.007, 613.515 L 414.15, 645.079 L 413.605, 645.624 L 403.447, 641.27 L 398.73, 639.274 L 398.005, 640.363 L 387.302, 640.363 L 379.864, 637.098 z "/>
<path style="fill:rgb(0, 255, 0);fill-opacity:0;fill-rule:evenodd;stroke:rgb(255, 0, 175);stroke-width:1;" d="M 447.347, 714.195 L 478.186, 714.014 L 478.367, 747.392 L 478.549, 756.281 L 447.71, 756.463 L 447.347, 714.195 z "/>
<path style="fill:rgb(0, 0, 255);fill-opacity:0;fill-rule:evenodd;stroke:rgb(255, 0, 175);stroke-width:1;" d="M 1003.54, 184.49 L 1048.34, 123.175 L 1064.31, 129.887 L 1019.5, 191.202 L 1003.54, 184.49 z "/>
<path style="fill:rgb(255, 255, 0);fill-opacity:0;fill-rule:evenodd;stroke:rgb(255, 0, 175);stroke-width:1;" d="M 850.794, 338.503 L 864.399, 320 L 917.188, 342.313 L 906.848, 356.463 L 903.764, 360.635 L 850.794, 338.503 z "/>
<path style="fill:rgb(255, 0, 0);fill-opacity:0;fill-rule:evenodd;stroke:rgb(255, 0, 175);stroke-width:1;" d="M 615.692, 654.15 L 640.363, 620.227 L 646.168, 622.585 L 665.034, 630.567 L 663.22, 633.107 L 667.029, 634.739 L 644.172, 666.122 L 615.692, 654.15 z "/>
<path style="fill:rgb(0, 255, 0);fill-opacity:0;fill-rule:evenodd;stroke:rgb(255, 0, 175);stroke-width:1;" d="M 419.048, 714.376 L 447.347, 714.195 L 447.71, 756.463 L 419.41, 756.463 L 419.048, 714.376 z "/>
<path style="fill:rgb(0, 0, 255);fill-opacity:0;fill-rule:evenodd;stroke:rgb(255, 0, 175);stroke-width:1;" d="M 411.61, 653.787 L 429.569, 653.605 L 478.549, 674.286 L 482.721, 676.1 L 482.721, 676.644 L 482.177, 677.37 L 481.088, 678.277 L 480.363, 678.458 L 411.973, 678.821 L 411.791, 666.667 L 411.61, 653.787 z "/>
<path style="fill:rgb(255, 255, 0);fill-opacity:0;fill-rule:evenodd;stroke:rgb(255, 0, 175);stroke-width:1;" d="M 602.63, 416.327 L 617.506, 396.19 L 674.104, 420.136 L 664.853, 432.834 L 628.934, 417.596 L 623.492, 425.215 L 619.501, 423.583 L 602.63, 416.327 z "/>
<path style="fill:rgb(255, 0, 0);fill-opacity:0;fill-rule:evenodd;stroke:rgb(255, 0, 175);stroke-width:1;" d="M 694.785, 673.379 L 698.05, 643.991 L 700.227, 640.726 L 709.841, 641.633 L 712.381, 626.939 L 715.828, 624.218 L 721.995, 616.417 L 728.163, 616.961 L 719.093, 675.556 L 694.785, 673.379 z "/>
<path style="fill:rgb(0, 255, 0);fill-opacity:0;fill-rule:evenodd;stroke:rgb(255, 0, 175);stroke-width:1;" d="M 414.15, 645.079 L 437.007, 613.515 L 467.846, 626.395 L 454.966, 643.991 L 450.612, 649.977 L 438.639, 645.261 L 433.197, 652.88 L 414.15, 645.079 z "/>
<path style="fill:rgb(0, 0, 255);fill-opacity:0;fill-rule:evenodd;stroke:rgb(255, 0, 175);stroke-width:1;" d="M 948.39, 401.995 L 956.735, 390.385 L 964.898, 393.832 L 976.508, 377.687 L 968.526, 374.422 L 976.689, 362.993 L 1005.71, 375.329 L 997.37, 386.576 L 989.569, 383.311 L 977.778, 399.274 L 985.76, 402.54 L 977.415, 414.15 L 948.39, 401.995 z "/>
<path style="fill:rgb(255, 255, 0);fill-opacity:0;fill-rule:evenodd;stroke:rgb(255, 0, 175);stroke-width:1;" d="M 940.59, 465.125 L 948.39, 454.422 L 950.93, 455.51 L 959.637, 443.537 L 959.819, 441.361 L 963.628, 436.1 L 965.805, 434.83 L 974.331, 423.039 L 971.429, 421.95 L 975.42, 416.689 L 980.317, 418.685 L 982.857, 418.503 L 985.215, 419.592 L 987.211, 421.587 L 989.025, 421.224 L 992.109, 422.494 L 994.286, 424.49 L 981.769, 441.542 L 981.769, 443.719 L 977.959, 448.98 L 975.601, 450.249 L 966.893, 462.222 L 969.796, 463.492 L 961.995, 474.014 L 940.59, 465.125 z "/>
<path style="fill:rgb(255, 0, 0);fill-opacity:0;fill-rule:evenodd;stroke:rgb(255, 0, 175);stroke-width:1;" d="M 920.272, 390.204 L 928.617, 378.594 L 935.873, 381.678 L 947.664, 365.533 L 940.408, 362.449 L 948.571, 351.202 L 976.689, 362.993 L 968.526, 374.422 L 960.544, 370.975 L 948.934, 387.12 L 956.735, 390.385 L 948.39, 401.995 L 920.272, 390.204 z "/>
<path style="fill:rgb(0, 255, 0);fill-opacity:0;fill-rule:evenodd;stroke:rgb(255, 0, 175);stroke-width:1;" d="M 961.995, 474.014 L 969.796, 463.492 L 972.88, 464.762 L 981.587, 452.789 L 981.043, 450.249 L 984.853, 444.989 L 987.755, 444.082 L 1000.27, 427.029 L 1002.63, 426.848 L 1005.53, 428.118 L 1006.8, 429.932 L 1009.71, 429.932 L 1012.06, 430.839 L 1013.51, 432.653 L 1018.41, 434.649 L 1014.6, 440.091 L 1011.52, 438.821 L 1002.99, 450.431 L 1003.36, 452.789 L 999.546, 458.05 L 996.644, 459.138 L 987.937, 471.111 L 991.02, 472.381 L 983.22, 483.084 L 961.995, 474.014 z "/>
<path style="fill:rgb(0, 0, 255);fill-opacity:0;fill-rule:evenodd;stroke:rgb(255, 0, 175);stroke-width:1;" d="M 297.868, 589.932 L 300.771, 556.009 L 347.392, 575.601 L 336.689, 590.113 L 327.982, 590.113 L 297.868, 589.932 z "/>
<path style="fill:rgb(255, 255, 0);fill-opacity:0;fill-rule:evenodd;stroke:rgb(255, 0, 175);stroke-width:1;" d="M 852.063, 535.329 L 859.501, 525.17 L 864.399, 527.166 L 868.209, 526.984 L 879.274, 511.927 L 877.098, 509.751 L 872.2, 507.755 L 880.363, 496.508 L 908.844, 508.481 L 900.68, 519.728 L 895.601, 517.551 L 891.791, 517.188 L 881.088, 532.063 L 882.902, 534.966 L 887.982, 537.143 L 880.544, 547.483 L 852.063, 535.329 z "/>
<path style="fill:rgb(255, 0, 0);fill-opacity:0;fill-rule:evenodd;stroke:rgb(255, 0, 175);stroke-width:1;" d="M 835.918, 421.043 L 869.116, 375.692 L 887.438, 383.311 L 854.24, 428.662 L 835.918, 421.043 z "/>
<path style="fill:rgb(0, 255, 0);fill-opacity:0;fill-rule:evenodd;stroke:rgb(255, 0, 175);stroke-width:1;" d="M 652.336, 343.946 L 689.342, 293.515 L 705.669, 300.408 L 703.311, 303.673 L 668.662, 350.839 L 652.336, 343.946 z "/>
<path style="fill:rgb(0, 0, 255);fill-opacity:0;fill-rule:evenodd;stroke:rgb(255, 0, 175);stroke-width:1;" d="M 378.776, 638.549 L 379.864, 637.098 L 387.302, 640.363 L 398.005, 640.363 L 398.73, 639.274 L 403.447, 641.27 L 403.628, 666.848 L 411.791, 666.667 L 411.973, 678.821 L 379.138, 679.002 L 378.776, 640.907 L 378.776, 638.549 z "/>
<path style="fill:rgb(255, 255, 0);fill-opacity:0;fill-rule:evenodd;stroke:rgb(255, 0, 175);stroke-width:1;" d="M 665.578, 596.1 L 682.086, 573.605 L 723.81, 591.202 L 717.642, 599.728 L 712.018, 607.347 L 699.32, 601.905 L 686.44, 596.281 L 681.361, 602.812 L 665.578, 596.1 z "/>
<path style="fill:rgb(255, 0, 0);fill-opacity:0;fill-rule:evenodd;stroke:rgb(255, 0, 175);stroke-width:1;" d="M 493.243, 747.392 L 538.413, 747.211 L 538.05, 768.98 L 503.039, 768.98 L 493.424, 769.161 L 493.243, 747.392 z "/>
<path style="fill:rgb(0, 255, 0);fill-opacity:0;fill-rule:evenodd;stroke:rgb(255, 0, 175);stroke-width:1;" d="M 573.061, 429.025 L 607.528, 381.859 L 623.129, 388.39 L 617.506, 396.19 L 602.63, 416.327 L 592.109, 430.839 L 588.481, 435.556 L 573.061, 429.025 z "/>
<path style="fill:rgb(0, 0, 255);fill-opacity:0;fill-rule:evenodd;stroke:rgb(255, 0, 175);stroke-width:1;" d="M 241.088, 344.853 L 249.433, 333.243 L 274.286, 299.138 L 279.002, 301.315 L 279.728, 301.497 L 267.937, 355.737 L 241.088, 344.853 z "/>
<path style="fill:rgb(255, 255, 0);fill-opacity:0;fill-rule:evenodd;stroke:rgb(255, 0, 175);stroke-width:1;" d="M 801.995, 63.6735 L 802.902, 62.4036 L 809.977, 52.7891 L 815.601, 44.9887 L 816.508, 43.7188 L 852.789, 58.9569 L 849.161, 64.0363 L 850.249, 64.5805 L 849.887, 65.3061 L 848.798, 64.7619 L 842.812, 72.9252 L 843.9, 73.288 L 843.356, 74.195 L 842.086, 73.8322 L 838.277, 78.9116 L 801.995, 63.6735 z "/>
<path style="fill:rgb(255, 0, 0);fill-opacity:0;fill-rule:evenodd;stroke:rgb(255, 0, 175);stroke-width:1;" d="M 374.24, 341.224 L 406.531, 296.961 L 422.676, 303.855 L 390.567, 348.118 L 374.24, 341.224 z "/>
<path style="fill:rgb(0, 255, 0);fill-opacity:0;fill-rule:evenodd;stroke:rgb(255, 0, 175);stroke-width:1;" d="M 498.866, 222.222 L 531.701, 177.415 L 532.789, 175.964 L 548.027, 182.494 L 519.184, 221.859 L 514.104, 228.753 L 498.866, 222.222 z "/>
<path style="fill:rgb(0, 0, 255);fill-opacity:0;fill-rule:evenodd;stroke:rgb(255, 0, 175);stroke-width:1;" d="M 542.948, 550.93 L 549.478, 541.678 L 544.762, 539.683 L 562.902, 514.467 L 584.671, 523.719 L 559.819, 557.823 L 542.948, 550.93 z "/>
<path style="fill:rgb(255, 255, 0);fill-opacity:0;fill-rule:evenodd;stroke:rgb(255, 0, 175);stroke-width:1;" d="M 804.717, 523.537 L 808.345, 498.503 L 847.347, 514.649 L 835.918, 530.431 L 832.472, 535.147 L 804.717, 523.537 z "/>
<path style="fill:rgb(255, 0, 0);fill-opacity:0;fill-rule:evenodd;stroke:rgb(255, 0, 175);stroke-width:1;" d="M 472.018, 593.741 L 504.671, 548.571 L 519.184, 555.465 L 486.893, 600.091 L 472.018, 593.741 z "/>
<path style="fill:rgb(0, 255, 0);fill-opacity:0;fill-rule:evenodd;stroke:rgb(255, 0, 175);stroke-width:1;" d="M 639.274, 338.503 L 673.016, 292.245 L 676.281, 287.891 L 678.639, 288.98 L 689.342, 293.515 L 652.336, 343.946 L 639.274, 338.503 z "/>
<path style="fill:rgb(0, 0, 255);fill-opacity:0;fill-rule:evenodd;stroke:rgb(255, 0, 175);stroke-width:1;" d="M 639.819, 768.98 L 640.181, 757.007 L 652.154, 757.188 L 654.875, 755.737 L 657.052, 755.737 L 663.039, 755.918 L 664.853, 757.37 L 670.839, 757.551 L 671.02, 756.1 L 681.542, 756.281 L 707.12, 756.644 L 704.943, 770.249 L 677.551, 769.705 L 675.556, 768.798 L 665.034, 768.617 L 663.039, 769.524 L 639.819, 768.98 z "/>
<path style="fill:rgb(255, 255, 0);fill-opacity:0;fill-rule:evenodd;stroke:rgb(255, 0, 175);stroke-width:1;" d="M 184.49, 320.907 L 193.016, 309.478 L 249.433, 333.243 L 241.088, 344.853 L 184.49, 320.907 z "/>
<path style="fill:rgb(255, 0, 0);fill-opacity:0;fill-rule:evenodd;stroke:rgb(255, 0, 175);stroke-width:1;" d="M 185.941, 473.107 L 218.231, 428.662 L 232.925, 434.83 L 230.748, 437.732 L 200.816, 479.274 L 185.941, 473.107 z "/>
<path style="fill:rgb(0, 255, 0);fill-opacity:0;fill-rule:evenodd;stroke:rgb(255, 0, 175);stroke-width:1;" d="M 457.506, 587.755 L 488.889, 544.58 L 490.34, 542.404 L 504.671, 548.571 L 472.018, 593.741 L 457.506, 587.755 z "/>
<path style="fill:rgb(0, 0, 255);fill-opacity:0;fill-rule:evenodd;stroke:rgb(255, 0, 175);stroke-width:1;" d="M 461.134, 378.776 L 493.968, 333.787 L 508.481, 339.773 L 475.465, 384.762 L 461.134, 378.776 z "/>
<path style="fill:rgb(255, 255, 0);fill-opacity:0;fill-rule:evenodd;stroke:rgb(255, 0, 175);stroke-width:1;" d="M 737.778, 318.367 L 762.086, 285.17 L 781.315, 293.515 L 757.007, 326.531 L 737.778, 318.367 z "/>
<path style="fill:rgb(255, 0, 0);fill-opacity:0;fill-rule:evenodd;stroke:rgb(255, 0, 175);stroke-width:1;" d="M 171.61, 466.939 L 203.9, 422.494 L 203.9, 422.494 L 218.231, 428.662 L 185.941, 473.107 L 171.61, 466.939 z "/>
<path style="fill:rgb(0, 255, 0);fill-opacity:0;fill-rule:evenodd;stroke:rgb(255, 0, 175);stroke-width:1;" d="M 346.848, 329.796 L 379.138, 285.533 L 393.288, 291.519 L 360.998, 335.782 L 346.848, 329.796 z "/>
<path style="fill:rgb(0, 0, 255);fill-opacity:0;fill-rule:evenodd;stroke:rgb(255, 0, 175);stroke-width:1;" d="M 952.381, 598.821 L 955.828, 594.104 L 960.363, 596.1 L 974.15, 577.234 L 982.132, 580.499 L 989.751, 570.159 L 978.685, 565.442 L 989.388, 550.567 L 993.923, 544.218 L 1008.44, 550.385 L 993.197, 571.066 L 990.295, 575.238 L 984.49, 583.22 L 968.345, 605.533 L 964.898, 604.082 L 952.381, 598.821 z "/>
<path style="fill:rgb(255, 255, 0);fill-opacity:0;fill-rule:evenodd;stroke:rgb(255, 0, 175);stroke-width:1;" d="M 835.918, 530.431 L 847.347, 514.649 L 865.306, 490.159 L 880.363, 496.508 L 872.2, 507.755 L 859.501, 525.17 L 852.063, 535.329 L 850.975, 536.78 L 835.918, 530.431 z "/>
<path style="fill:rgb(255, 0, 0);fill-opacity:0;fill-rule:evenodd;stroke:rgb(255, 0, 175);stroke-width:1;" d="M 315.283, 528.073 L 347.937, 482.902 L 361.361, 488.707 L 360.454, 489.977 L 328.707, 533.696 L 315.283, 528.073 z "/>
<path style="fill:rgb(0, 255, 0);fill-opacity:0;fill-rule:evenodd;stroke:rgb(255, 0, 175);stroke-width:1;" d="M 470.385, 440.635 L 499.592, 400.726 L 514.649, 407.256 L 510.295, 413.243 L 490.159, 440.454 L 485.442, 446.984 L 470.385, 440.635 z "/>
<path style="fill:rgb(0, 0, 255);fill-opacity:0;fill-rule:evenodd;stroke:rgb(255, 0, 175);stroke-width:1;" d="M 633.469, 755.556 L 634.739, 711.837 L 652.517, 711.837 L 651.247, 749.932 L 651.066, 755.918 L 633.469, 755.556 z "/>
<path style="fill:rgb(255, 255, 0);fill-opacity:0;fill-rule:evenodd;stroke:rgb(255, 0, 175);stroke-width:1;" d="M 983.22, 483.084 L 991.02, 472.381 L 1012.61, 442.812 L 1021.5, 446.621 L 1021.5, 446.621 L 1027.12, 448.98 L 1020.59, 457.868 L 997.914, 489.07 L 983.22, 483.084 z "/>
<path style="fill:rgb(255, 0, 0);fill-opacity:0;fill-rule:evenodd;stroke:rgb(255, 0, 175);stroke-width:1;" d="M 360.998, 335.782 L 393.288, 291.519 L 406.531, 296.961 L 374.24, 341.224 L 360.998, 335.782 z "/>
<path style="fill:rgb(0, 255, 0);fill-opacity:0;fill-rule:evenodd;stroke:rgb(255, 0, 175);stroke-width:1;" d="M 994.467, 595.918 L 999.184, 589.569 L 1023.13, 556.553 L 1037.64, 562.721 L 1012.43, 597.007 L 1008.8, 602.086 L 994.467, 595.918 z "/>
<path style="fill:rgb(0, 0, 255);fill-opacity:0;fill-rule:evenodd;stroke:rgb(255, 0, 175);stroke-width:1;" d="M 294.24, 632.381 L 296.054, 611.882 L 325.624, 611.882 L 325.079, 620.952 L 326.893, 620.952 L 326.893, 622.766 L 345.397, 630.567 L 345.397, 632.018 L 294.24, 632.381 z "/>
<path style="fill:rgb(255, 255, 0);fill-opacity:0;fill-rule:evenodd;stroke:rgb(255, 0, 175);stroke-width:1;" d="M 878.367, 559.093 L 881.088, 555.465 L 880.181, 554.921 L 880.907, 554.014 L 878.912, 549.66 L 880.544, 547.483 L 887.982, 537.143 L 900.68, 519.728 L 908.844, 508.481 L 922.268, 514.104 L 905.397, 537.324 L 902.676, 536.236 L 888.889, 556.19 L 887.075, 556.553 L 886.168, 557.46 L 885.261, 557.098 L 882.54, 560.907 L 878.367, 559.093 z "/>
<path style="fill:rgb(255, 0, 0);fill-opacity:0;fill-rule:evenodd;stroke:rgb(255, 0, 175);stroke-width:1;" d="M 402.721, 714.376 L 419.048, 714.376 L 419.41, 756.463 L 403.084, 756.644 L 402.721, 714.376 z "/>
<path style="fill:rgb(0, 255, 0);fill-opacity:0;fill-rule:evenodd;stroke:rgb(255, 0, 175);stroke-width:1;" d="M 354.649, 714.558 L 370.975, 714.558 L 371.338, 756.644 L 355.011, 756.825 L 354.649, 714.558 z "/>
<path style="fill:rgb(0, 0, 255);fill-opacity:0;fill-rule:evenodd;stroke:rgb(255, 0, 175);stroke-width:1;" d="M 160, 246.893 L 168.707, 197.188 L 192.29, 207.166 L 165.079, 243.81 L 162.177, 247.8 L 160, 246.893 z "/>
<path style="fill:rgb(255, 255, 0);fill-opacity:0;fill-rule:evenodd;stroke:rgb(255, 0, 175);stroke-width:1;" d="M 386.757, 714.558 L 402.721, 714.376 L 403.084, 756.644 L 387.12, 756.644 L 386.757, 714.558 z "/>
<path style="fill:rgb(255, 0, 0);fill-opacity:0;fill-rule:evenodd;stroke:rgb(255, 0, 175);stroke-width:1;" d="M 370.975, 714.558 L 386.757, 714.558 L 387.12, 756.644 L 371.338, 756.644 L 370.975, 714.558 z "/>
<path style="fill:rgb(0, 255, 0);fill-opacity:0;fill-rule:evenodd;stroke:rgb(255, 0, 175);stroke-width:1;" d="M 338.866, 714.739 L 354.649, 714.558 L 355.011, 756.825 L 339.229, 756.825 L 339.229, 750.658 L 338.866, 714.739 z "/>
<path style="fill:rgb(0, 0, 255);fill-opacity:0;fill-rule:evenodd;stroke:rgb(255, 0, 175);stroke-width:1;" d="M 906.848, 356.463 L 917.188, 342.313 L 919.546, 339.048 L 948.571, 351.202 L 940.408, 362.449 L 935.873, 368.617 L 906.848, 356.463 z "/>
<path style="fill:rgb(255, 255, 0);fill-opacity:0;fill-rule:evenodd;stroke:rgb(255, 0, 175);stroke-width:1;" d="M 957.279, 647.075 L 978.685, 617.687 L 980.499, 615.147 L 984.49, 616.78 L 987.392, 612.789 L 997.914, 617.143 L 971.791, 653.061 L 957.279, 647.075 z "/>
<path style="fill:rgb(255, 0, 0);fill-opacity:0;fill-rule:evenodd;stroke:rgb(255, 0, 175);stroke-width:1;" d="M 475.283, 538.776 L 509.206, 491.973 L 519.909, 496.508 L 487.438, 541.315 L 485.986, 543.311 L 475.283, 538.776 z "/>
<path style="fill:rgb(0, 255, 0);fill-opacity:0;fill-rule:evenodd;stroke:rgb(255, 0, 175);stroke-width:1;" d="M 345.397, 641.088 L 362.449, 640.907 L 362.63, 679.002 L 345.76, 679.184 L 345.397, 641.088 z "/>
<path style="fill:rgb(0, 0, 255);fill-opacity:0;fill-rule:evenodd;stroke:rgb(255, 0, 175);stroke-width:1;" d="M 840.454, 345.215 L 846.621, 336.689 L 850.794, 338.503 L 903.764, 360.635 L 901.406, 363.719 L 897.415, 369.161 L 840.454, 345.215 z "/>
<path style="fill:rgb(255, 255, 0);fill-opacity:0;fill-rule:evenodd;stroke:rgb(255, 0, 175);stroke-width:1;" d="M 519.184, 555.465 L 519.728, 554.739 L 552.2, 510.113 L 562.902, 514.467 L 544.762, 539.683 L 537.687, 549.478 L 529.887, 560 L 519.184, 555.465 z "/>
<path style="fill:rgb(255, 0, 0);fill-opacity:0;fill-rule:evenodd;stroke:rgb(255, 0, 175);stroke-width:1;" d="M 362.449, 640.907 L 378.776, 640.907 L 379.138, 679.002 L 362.63, 679.002 L 362.449, 640.907 z "/>
<path style="fill:rgb(0, 255, 0);fill-opacity:0;fill-rule:evenodd;stroke:rgb(255, 0, 175);stroke-width:1;" d="M 651.247, 749.932 L 652.517, 711.837 L 668.662, 711.837 L 668.299, 721.633 L 667.937, 733.061 L 667.574, 744.308 L 667.392, 750.113 L 651.247, 749.932 z "/>
<path style="fill:rgb(0, 0, 255);fill-opacity:0;fill-rule:evenodd;stroke:rgb(255, 0, 175);stroke-width:1;" d="M 984.49, 583.22 L 990.295, 575.238 L 997.007, 578.141 L 1000.09, 573.968 L 993.197, 571.066 L 1008.44, 550.385 L 1023.13, 556.553 L 999.184, 589.569 L 984.49, 583.22 z "/>
<path style="fill:rgb(255, 255, 0);fill-opacity:0;fill-rule:evenodd;stroke:rgb(255, 0, 175);stroke-width:1;" d="M 644.172, 666.122 L 667.029, 634.739 L 681.361, 640.907 L 680.272, 642.358 L 658.503, 672.109 L 644.172, 666.122 z "/>
<path style="fill:rgb(255, 0, 0);fill-opacity:0;fill-rule:evenodd;stroke:rgb(255, 0, 175);stroke-width:1;" d="M 340.499, 602.268 L 357.007, 579.773 L 376.961, 588.118 L 360.635, 610.612 L 340.499, 602.268 z "/>
<path style="fill:rgb(0, 255, 0);fill-opacity:0;fill-rule:evenodd;stroke:rgb(255, 0, 175);stroke-width:1;" d="M 680.272, 636.916 L 688.254, 626.032 L 696.054, 615.692 L 703.492, 618.776 L 715.828, 624.218 L 712.381, 626.939 L 709.841, 641.633 L 700.227, 640.726 L 698.05, 643.991 L 680.272, 636.916 z "/>
<path style="fill:rgb(0, 0, 255);fill-opacity:0;fill-rule:evenodd;stroke:rgb(255, 0, 175);stroke-width:1;" d="M 997.914, 489.07 L 1020.59, 457.868 L 1034.38, 463.673 L 1030.93, 468.209 L 1011.52, 494.875 L 997.914, 489.07 z "/>
<path style="fill:rgb(255, 255, 0);fill-opacity:0;fill-rule:evenodd;stroke:rgb(255, 0, 175);stroke-width:1;" d="M 658.503, 672.109 L 680.272, 642.358 L 694.785, 648.345 L 674.104, 676.825 L 668.299, 676.281 L 658.503, 672.109 z "/>
<path style="fill:rgb(255, 0, 0);fill-opacity:0;fill-rule:evenodd;stroke:rgb(255, 0, 175);stroke-width:1;" d="M 830.113, 359.365 L 835.556, 351.927 L 892.88, 375.873 L 887.438, 383.311 L 869.116, 375.692 L 830.113, 359.365 z "/>
<path style="fill:rgb(0, 255, 0);fill-opacity:0;fill-rule:evenodd;stroke:rgb(255, 0, 175);stroke-width:1;" d="M 326.893, 620.952 L 340.499, 602.268 L 360.635, 610.612 L 345.941, 630.748 L 345.397, 630.567 L 326.893, 622.766 L 326.893, 620.952 z "/>
<path style="fill:rgb(0, 0, 255);fill-opacity:0;fill-rule:evenodd;stroke:rgb(255, 0, 175);stroke-width:1;" d="M 670.113, 618.413 L 681.361, 602.812 L 686.44, 596.281 L 699.32, 601.905 L 696.961, 605.17 L 702.222, 607.347 L 696.054, 615.692 L 688.254, 626.032 L 670.113, 618.413 z "/>
<path style="fill:rgb(255, 255, 0);fill-opacity:0;fill-rule:evenodd;stroke:rgb(255, 0, 175);stroke-width:1;" d="M 926.259, 458.957 L 945.669, 432.472 L 960, 438.458 L 948.39, 454.422 L 940.59, 465.125 L 926.259, 458.957 z "/>
<path style="fill:rgb(255, 0, 0);fill-opacity:0;fill-rule:evenodd;stroke:rgb(255, 0, 175);stroke-width:1;" d="M 485.442, 446.984 L 490.159, 440.454 L 547.12, 464.399 L 542.404, 471.111 L 485.442, 446.984 z "/>
<path style="fill:rgb(0, 255, 0);fill-opacity:0;fill-rule:evenodd;stroke:rgb(255, 0, 175);stroke-width:1;" d="M 835.556, 351.927 L 840.454, 345.215 L 897.415, 369.161 L 892.88, 375.873 L 835.556, 351.927 z "/>
<path style="fill:rgb(0, 0, 255);fill-opacity:0;fill-rule:evenodd;stroke:rgb(255, 0, 175);stroke-width:1;" d="M 646.168, 622.585 L 654.15, 611.701 L 670.113, 618.413 L 688.254, 626.032 L 680.272, 636.916 L 665.034, 630.567 L 646.168, 622.585 z "/>
<path style="fill:rgb(255, 255, 0);fill-opacity:0;fill-rule:evenodd;stroke:rgb(255, 0, 175);stroke-width:1;" d="M 667.574, 744.308 L 667.937, 733.061 L 668.299, 721.633 L 668.662, 711.837 L 682.449, 711.655 L 682.268, 721.814 L 682.086, 733.243 L 681.723, 744.49 L 667.574, 744.308 z "/>
<path style="fill:rgb(255, 0, 0);fill-opacity:0;fill-rule:evenodd;stroke:rgb(255, 0, 175);stroke-width:1;" d="M 663.22, 780.408 L 663.583, 770.794 L 677.551, 771.156 L 677.551, 769.705 L 704.943, 770.249 L 703.129, 781.134 L 663.22, 780.408 z "/>
<path style="fill:rgb(0, 255, 0);fill-opacity:0;fill-rule:evenodd;stroke:rgb(255, 0, 175);stroke-width:1;" d="M 903.039, 540.59 L 905.397, 537.324 L 922.268, 514.104 L 934.422, 519.184 L 915.193, 545.669 L 903.039, 540.59 z "/>
<path style="fill:rgb(0, 0, 255);fill-opacity:0;fill-rule:evenodd;stroke:rgb(255, 0, 175);stroke-width:1;" d="M 293.515, 640.363 L 294.24, 632.381 L 345.397, 632.018 L 345.397, 640.181 L 293.515, 640.363 z "/>
<path style="fill:rgb(255, 255, 0);fill-opacity:0;fill-rule:evenodd;stroke:rgb(255, 0, 175);stroke-width:1;" d="M 571.61, 771.519 L 571.973, 760.454 L 606.803, 761.179 L 606.44, 772.245 L 596.281, 772.063 L 596.281, 774.24 L 591.02, 774.059 L 591.02, 771.882 L 571.61, 771.519 z "/>
<path style="fill:rgb(255, 0, 0);fill-opacity:0;fill-rule:evenodd;stroke:rgb(255, 0, 175);stroke-width:1;" d="M 296.78, 602.268 L 297.868, 589.932 L 327.982, 590.113 L 327.256, 602.268 L 326.349, 602.268 L 296.78, 602.268 z "/>
<path style="fill:rgb(0, 255, 0);fill-opacity:0;fill-rule:evenodd;stroke:rgb(255, 0, 175);stroke-width:1;" d="M 309.66, 762.993 L 309.841, 759.909 L 310.567, 750.658 L 339.229, 750.658 L 339.229, 756.825 L 339.229, 762.993 L 309.66, 762.993 z "/>
<path style="fill:rgb(0, 0, 255);fill-opacity:0;fill-rule:evenodd;stroke:rgb(255, 0, 175);stroke-width:1;" d="M 915.193, 545.669 L 934.422, 519.184 L 946.032, 524.082 L 930.612, 545.125 L 924.263, 542.222 L 920.272, 547.846 L 915.193, 545.669 z "/>
<path style="fill:rgb(255, 255, 0);fill-opacity:0;fill-rule:evenodd;stroke:rgb(255, 0, 175);stroke-width:1;" d="M 682.086, 733.243 L 682.268, 721.814 L 712.744, 722.54 L 710.93, 733.787 L 682.086, 733.243 z "/>
<path style="fill:rgb(255, 0, 0);fill-opacity:0;fill-rule:evenodd;stroke:rgb(255, 0, 175);stroke-width:1;" d="M 682.268, 721.814 L 682.449, 711.655 L 714.558, 711.655 L 712.744, 722.54 L 682.268, 721.814 z "/>
<path style="fill:rgb(0, 255, 0);fill-opacity:0;fill-rule:evenodd;stroke:rgb(255, 0, 175);stroke-width:1;" d="M 654.15, 611.701 L 665.578, 596.1 L 681.361, 602.812 L 670.113, 618.413 L 654.15, 611.701 z "/>
<path style="fill:rgb(0, 0, 255);fill-opacity:0;fill-rule:evenodd;stroke:rgb(255, 0, 175);stroke-width:1;" d="M 681.723, 744.49 L 682.086, 733.243 L 710.93, 733.787 L 709.116, 745.034 L 681.723, 744.49 z "/>
<path style="fill:rgb(255, 255, 0);fill-opacity:0;fill-rule:evenodd;stroke:rgb(255, 0, 175);stroke-width:1;" d="M 1000.45, 405.261 L 1006.62, 396.916 L 1004.63, 396.009 L 1016.42, 379.864 L 1026.76, 384.218 L 1014.97, 400.363 L 1008.8, 408.889 L 1000.45, 405.261 z "/>
<path style="fill:rgb(255, 0, 0);fill-opacity:0;fill-rule:evenodd;stroke:rgb(255, 0, 175);stroke-width:1;" d="M 681.542, 756.281 L 681.723, 744.49 L 709.116, 745.034 L 707.12, 756.644 L 681.542, 756.281 z "/>
<path style="fill:rgb(0, 255, 0);fill-opacity:0;fill-rule:evenodd;stroke:rgb(255, 0, 175);stroke-width:1;" d="M 454.966, 643.991 L 467.846, 626.395 L 480.181, 631.655 L 467.302, 649.252 L 454.966, 643.991 z "/>
<path style="fill:rgb(0, 0, 255);fill-opacity:0;fill-rule:evenodd;stroke:rgb(255, 0, 175);stroke-width:1;" d="M 296.054, 611.882 L 296.78, 602.268 L 326.349, 602.268 L 325.624, 611.882 L 296.054, 611.882 z "/>
<path style="fill:rgb(255, 255, 0);fill-opacity:0;fill-rule:evenodd;stroke:rgb(255, 0, 175);stroke-width:1;" d="M 330.884, 598.095 L 336.689, 590.113 L 347.392, 575.601 L 357.007, 579.773 L 340.499, 602.268 L 330.884, 598.095 z "/>
<path style="fill:rgb(255, 0, 0);fill-opacity:0;fill-rule:evenodd;stroke:rgb(255, 0, 175);stroke-width:1;" d="M 478.549, 674.286 L 489.796, 658.685 L 490.522, 657.778 L 503.583, 663.22 L 503.22, 663.583 L 497.415, 671.565 L 492.698, 678.095 L 488.163, 678.277 L 482.721, 676.1 L 478.549, 674.286 z "/>
<path style="fill:rgb(0, 255, 0);fill-opacity:0;fill-rule:evenodd;stroke:rgb(255, 0, 175);stroke-width:1;" d="M 787.846, 51.7007 L 795.465, 40.9977 L 814.875, 48.9796 L 807.256, 59.6825 L 787.846, 51.7007 z "/>
<path style="fill:rgb(0, 0, 255);fill-opacity:0;fill-rule:evenodd;stroke:rgb(255, 0, 175);stroke-width:1;" d="M 703.492, 618.776 L 712.018, 607.347 L 717.642, 599.728 L 724.717, 602.63 L 720.726, 608.073 L 724.172, 609.524 L 722.902, 611.156 L 723.628, 611.519 L 721.27, 614.603 L 722.902, 615.147 L 721.995, 616.417 L 715.828, 624.218 L 703.492, 618.776 z "/>
<path style="fill:rgb(255, 255, 0);fill-opacity:0;fill-rule:evenodd;stroke:rgb(255, 0, 175);stroke-width:1;" d="M 282.086, 778.776 L 282.812, 768.617 L 309.116, 768.617 L 308.209, 778.776 L 282.086, 778.776 z "/>
<path style="fill:rgb(255, 0, 0);fill-opacity:0;fill-rule:evenodd;stroke:rgb(255, 0, 175);stroke-width:1;" d="M 467.302, 649.252 L 480.181, 631.655 L 491.429, 636.372 L 478.73, 653.968 L 467.302, 649.252 z "/>
<path style="fill:rgb(0, 255, 0);fill-opacity:0;fill-rule:evenodd;stroke:rgb(255, 0, 175);stroke-width:1;" d="M 478.73, 653.968 L 491.429, 636.372 L 502.676, 641.088 L 490.522, 657.778 L 489.796, 658.685 L 478.73, 653.968 z "/>
<path style="fill:rgb(0, 0, 255);fill-opacity:0;fill-rule:evenodd;stroke:rgb(255, 0, 175);stroke-width:1;" d="M 503.22, 663.583 L 503.583, 663.22 L 509.569, 654.875 L 531.882, 664.127 L 525.533, 672.834 L 503.22, 663.583 z "/>
<path style="fill:rgb(255, 255, 0);fill-opacity:0;fill-rule:evenodd;stroke:rgb(255, 0, 175);stroke-width:1;" d="M 283.537, 759.909 L 284.263, 750.658 L 310.567, 750.658 L 309.841, 759.909 L 283.537, 759.909 z "/>
<path style="fill:rgb(255, 0, 0);fill-opacity:0;fill-rule:evenodd;stroke:rgb(255, 0, 175);stroke-width:1;" d="M 509.569, 654.875 L 515.737, 646.531 L 538.05, 655.964 L 531.882, 664.127 L 509.569, 654.875 z "/>
<path style="fill:rgb(0, 255, 0);fill-opacity:0;fill-rule:evenodd;stroke:rgb(255, 0, 175);stroke-width:1;" d="M 282.812, 768.617 L 283.537, 759.909 L 309.841, 759.909 L 309.66, 762.993 L 309.116, 768.617 L 282.812, 768.617 z "/>
<path style="fill:rgb(0, 0, 255);fill-opacity:0;fill-rule:evenodd;stroke:rgb(255, 0, 175);stroke-width:1;" d="M 993.741, 391.474 L 997.37, 386.576 L 1005.71, 375.329 L 1016.42, 379.864 L 1004.63, 396.009 L 993.741, 391.474 z "/>
<path style="fill:rgb(255, 255, 0);fill-opacity:0;fill-rule:evenodd;stroke:rgb(255, 0, 175);stroke-width:1;" d="M 864.399, 320 L 866.757, 316.735 L 919.546, 339.048 L 917.188, 342.313 L 864.399, 320 z "/>
<path style="fill:rgb(255, 0, 0);fill-opacity:0;fill-rule:evenodd;stroke:rgb(255, 0, 175);stroke-width:1;" d="M 497.415, 671.565 L 503.22, 663.583 L 525.533, 672.834 L 522.086, 677.732 L 511.927, 677.732 L 497.415, 671.565 z "/>
<path style="fill:rgb(0, 255, 0);fill-opacity:0;fill-rule:evenodd;stroke:rgb(255, 0, 175);stroke-width:1;" d="M 870.567, 338.685 L 875.283, 331.973 L 898.866, 341.769 L 893.968, 348.481 L 870.567, 338.685 z "/>
<path style="fill:rgb(0, 0, 255);fill-opacity:0;fill-rule:evenodd;stroke:rgb(255, 0, 175);stroke-width:1;" d="M 786.939, 55.6916 L 793.832, 46.0771 L 809.977, 52.7891 L 802.902, 62.4036 L 786.939, 55.6916 z "/>
<path style="fill:rgb(255, 255, 0);fill-opacity:0;fill-rule:evenodd;stroke:rgb(255, 0, 175);stroke-width:1;" d="M 926.803, 550.385 L 930.612, 545.125 L 946.032, 524.082 L 951.655, 526.44 L 947.12, 532.789 L 932.426, 552.925 L 926.803, 550.385 z "/>
<path style="fill:rgb(255, 0, 0);fill-opacity:0;fill-rule:evenodd;stroke:rgb(255, 0, 175);stroke-width:1;" d="M 793.832, 46.0771 L 799.637, 38.0952 L 815.601, 44.9887 L 809.977, 52.7891 L 793.832, 46.0771 z "/>
<path style="fill:rgb(0, 255, 0);fill-opacity:0;fill-rule:evenodd;stroke:rgb(255, 0, 175);stroke-width:1;" d="M 638.005, 33.5601 L 643.447, 25.941 L 649.977, 28.6621 L 652.336, 25.3968 L 659.229, 28.2993 L 651.247, 39.1837 L 638.005, 33.5601 z "/>
<path style="fill:rgb(0, 0, 255);fill-opacity:0;fill-rule:evenodd;stroke:rgb(255, 0, 175);stroke-width:1;" d="M 198.458, 394.558 L 200.091, 392.2 L 206.44, 383.855 L 210.975, 385.85 L 217.324, 388.571 L 209.705, 399.274 L 198.458, 394.558 z "/>
<path style="fill:rgb(255, 255, 0);fill-opacity:0;fill-rule:evenodd;stroke:rgb(255, 0, 175);stroke-width:1;" d="M 404.172, 87.4376 L 410.34, 79.093 L 424.308, 84.898 L 423.039, 86.5306 L 418.141, 93.2426 L 404.172, 87.4376 z "/>
<path style="fill:rgb(255, 0, 0);fill-opacity:0;fill-rule:evenodd;stroke:rgb(255, 0, 175);stroke-width:1;" d="M 978.866, 329.07 L 981.224, 326.168 L 1019.86, 342.676 L 1017.69, 345.76 L 978.866, 329.07 z "/>
<path style="fill:rgb(0, 255, 0);fill-opacity:0;fill-rule:evenodd;stroke:rgb(255, 0, 175);stroke-width:1;" d="M 987.574, 317.098 L 989.569, 314.195 L 1028.21, 330.884 L 1026.03, 333.605 L 987.574, 317.098 z "/>
<path style="fill:rgb(0, 0, 255);fill-opacity:0;fill-rule:evenodd;stroke:rgb(255, 0, 175);stroke-width:1;" d="M 696.054, 615.692 L 702.222, 607.347 L 696.961, 605.17 L 699.32, 601.905 L 712.018, 607.347 L 703.492, 618.776 L 696.054, 615.692 z "/>
<path style="fill:rgb(255, 255, 0);fill-opacity:0;fill-rule:evenodd;stroke:rgb(255, 0, 175);stroke-width:1;" d="M 444.082, 45.5329 L 450.068, 37.9138 L 463.129, 43.9002 L 457.324, 51.3379 L 444.082, 45.5329 z "/>
<path style="fill:rgb(255, 0, 0);fill-opacity:0;fill-rule:evenodd;stroke:rgb(255, 0, 175);stroke-width:1;" d="M 610.431, 769.887 L 613.515, 769.887 L 613.515, 767.71 L 620.227, 767.528 L 620.227, 769.524 L 620.408, 782.766 L 612.608, 782.766 L 612.608, 779.138 L 610.612, 779.138 L 610.431, 769.887 z "/>
<path style="fill:rgb(0, 255, 0);fill-opacity:0;fill-rule:evenodd;stroke:rgb(255, 0, 175);stroke-width:1;" d="M 846.621, 336.689 L 862.404, 315.102 L 866.757, 316.735 L 864.399, 320 L 850.794, 338.503 L 846.621, 336.689 z "/>
<path style="fill:rgb(0, 0, 255);fill-opacity:0;fill-rule:evenodd;stroke:rgb(255, 0, 175);stroke-width:1;" d="M 839.184, 112.109 L 841.542, 108.844 L 844.989, 104.127 L 847.347, 101.043 L 855.147, 104.308 L 846.984, 115.374 L 839.184, 112.109 z "/>
<path style="fill:rgb(255, 255, 0);fill-opacity:0;fill-rule:evenodd;stroke:rgb(255, 0, 175);stroke-width:1;" d="M 882.358, 53.1519 L 884.717, 49.8866 L 888.163, 45.1701 L 890.522, 42.0862 L 898.322, 45.3515 L 890.159, 56.4172 L 882.358, 53.1519 z "/>
<path style="fill:rgb(255, 0, 0);fill-opacity:0;fill-rule:evenodd;stroke:rgb(255, 0, 175);stroke-width:1;" d="M 929.524, 72.9252 L 937.506, 61.8594 L 945.306, 65.1247 L 942.948, 68.39 L 939.501, 73.1066 L 937.324, 76.1905 L 929.524, 72.9252 z "/>
<path style="fill:rgb(0, 255, 0);fill-opacity:0;fill-rule:evenodd;stroke:rgb(255, 0, 175);stroke-width:1;" d="M 886.168, 131.882 L 894.331, 120.816 L 902.132, 124.082 L 899.773, 127.347 L 896.327, 132.063 L 894.15, 135.147 L 886.168, 131.882 z "/>
<path style="fill:rgb(0, 0, 255);fill-opacity:0;fill-rule:evenodd;stroke:rgb(255, 0, 175);stroke-width:1;" d="M 620.045, 761.361 L 633.288, 761.361 L 632.925, 769.887 L 620.227, 769.524 L 620.227, 767.528 L 620.045, 761.361 z "/>
<path style="fill:rgb(255, 255, 0);fill-opacity:0;fill-rule:evenodd;stroke:rgb(255, 0, 175);stroke-width:1;" d="M 973.061, 213.152 L 974.331, 211.156 L 1016.42, 228.753 L 1015.15, 230.567 L 973.061, 213.152 z "/>
<path style="fill:rgb(255, 0, 0);fill-opacity:0;fill-rule:evenodd;stroke:rgb(255, 0, 175);stroke-width:1;" d="M 288.617, 459.32 L 292.426, 441.542 L 297.143, 442.086 L 293.152, 460.045 L 288.617, 459.32 z "/>
<path style="fill:rgb(0, 255, 0);fill-opacity:0;fill-rule:evenodd;stroke:rgb(255, 0, 175);stroke-width:1;" d="M 909.206, 300.045 L 910.295, 298.594 L 952.744, 316.372 L 951.655, 317.823 L 909.206, 300.045 z "/>
<path style="fill:rgb(0, 0, 255);fill-opacity:0;fill-rule:evenodd;stroke:rgb(255, 0, 175);stroke-width:1;" d="M 939.864, 209.524 L 946.939, 199.728 L 960.726, 205.533 L 958.73, 208.073 L 953.288, 205.533 L 946.757, 205.896 L 942.948, 210.612 L 939.864, 209.524 z "/>
<path style="fill:rgb(255, 255, 0);fill-opacity:0;fill-rule:evenodd;stroke:rgb(255, 0, 175);stroke-width:1;" d="M 881.995, 288.798 L 889.252, 279.002 L 892.336, 280.454 L 888.889, 285.351 L 891.791, 289.705 L 897.415, 292.063 L 895.601, 294.422 L 881.995, 288.798 z "/>
<path style="fill:rgb(255, 0, 0);fill-opacity:0;fill-rule:evenodd;stroke:rgb(255, 0, 175);stroke-width:1;" d="M 489.252, 159.274 L 490.159, 158.005 L 492.517, 158.912 L 530.249, 175.057 L 532.789, 175.964 L 531.701, 177.415 L 489.252, 159.274 z "/>
<path style="fill:rgb(0, 255, 0);fill-opacity:0;fill-rule:evenodd;stroke:rgb(255, 0, 175);stroke-width:1;" d="M 965.442, 323.628 L 967.075, 321.27 L 972.698, 323.628 L 979.048, 323.265 L 983.039, 318.367 L 985.76, 319.456 L 981.224, 326.168 L 978.866, 329.07 L 965.442, 323.628 z "/>
<path style="fill:rgb(0, 0, 255);fill-opacity:0;fill-rule:evenodd;stroke:rgb(255, 0, 175);stroke-width:1;" d="M 492.336, 678.639 L 492.698, 678.095 L 497.415, 671.565 L 511.927, 677.732 L 492.336, 678.639 z "/>
<path style="fill:rgb(255, 255, 0);fill-opacity:0;fill-rule:evenodd;stroke:rgb(255, 0, 175);stroke-width:1;" d="M 280.816, 239.456 L 284.444, 234.921 L 291.519, 238.186 L 293.696, 239.274 L 292.608, 245.261 L 287.891, 242.721 L 280.816, 239.456 z "/>
<path style="fill:rgb(255, 0, 0);fill-opacity:0;fill-rule:evenodd;stroke:rgb(255, 0, 175);stroke-width:1;" d="M 424.671, 247.438 L 425.397, 246.349 L 468.027, 264.127 L 467.12, 265.397 L 464.399, 264.308 L 426.485, 248.163 L 424.671, 247.438 z "/>
<path style="fill:rgb(0, 255, 0);fill-opacity:0;fill-rule:evenodd;stroke:rgb(255, 0, 175);stroke-width:1;" d="M 1001.36, 187.574 L 1003.54, 184.49 L 1019.5, 191.202 L 1017.32, 194.286 L 1001.36, 187.574 z "/>
<path style="fill:rgb(0, 0, 255);fill-opacity:0;fill-rule:evenodd;stroke:rgb(255, 0, 175);stroke-width:1;" d="M 0, 797.642 L 7.43764, 716.553 L 247.619, 715.102 L 240.181, 798.549 L 194.467, 798.367 L 194.83, 761.361 L 194.83, 757.551 L 143.311, 757.37 L 131.338, 757.37 L 130.975, 798.186 L 0, 797.642 z M 90.1587, 777.687 L 101.769, 777.868 L 101.95, 777.868 L 102.676, 761.723 L 90.7029, 761.361 L 90.1587, 777.687 z "/>
<path style="fill:rgb(255, 255, 0);fill-opacity:0;fill-rule:evenodd;stroke:rgb(255, 0, 175);stroke-width:1;" d="M 651.247, 39.1837 L 659.229, 28.2993 L 679.728, 0 L 723.447, 18.322 L 694.966, 57.5057 L 657.234, 41.7234 L 651.247, 39.1837 z "/>
<path style="fill:rgb(255, 0, 0);fill-opacity:0;fill-rule:evenodd;stroke:rgb(255, 0, 175);stroke-width:1;" d="M 456.054, 26.6667 L 460.227, 21.0431 L 474.739, 27.2109 L 470.567, 32.8345 L 456.054, 26.6667 z "/>
<path style="fill:rgb(0, 255, 0);fill-opacity:0;fill-rule:evenodd;stroke:rgb(255, 0, 175);stroke-width:1;" d="M 966.531, 173.061 L 1024.76, 92.517 L 1081.18, 116.281 L 1023.13, 196.644 L 1017.32, 194.286 L 1019.5, 191.202 L 1066.49, 126.984 L 1050.52, 120.272 L 1048.34, 123.175 L 1003.54, 184.49 L 1001.36, 187.574 L 966.531, 173.061 z "/>
<path style="fill:rgb(0, 0, 255);fill-opacity:0;fill-rule:evenodd;stroke:rgb(255, 0, 175);stroke-width:1;" d="M 1001.36, 187.574 L 1003.54, 184.49 L 1048.34, 123.175 L 1050.52, 120.272 L 1066.49, 126.984 L 1064.31, 129.887 L 1019.5, 191.202 L 1017.32, 194.286 L 1001.36, 187.574 z "/>
<path style="fill:rgb(255, 255, 0);fill-opacity:0;fill-rule:evenodd;stroke:rgb(255, 0, 175);stroke-width:1;" d="M 1003.54, 184.49 L 1048.34, 123.175 L 1064.31, 129.887 L 1019.5, 191.202 L 1003.54, 184.49 z "/>
<path style="fill:rgb(255, 0, 0);fill-opacity:0;fill-rule:evenodd;stroke:rgb(255, 0, 175);stroke-width:1;" d="M 749.388, 41.542 L 753.379, 36.2812 L 752.472, 35.9184 L 752.834, 35.1927 L 758.821, 27.0295 L 759.184, 26.4853 L 760.091, 26.8481 L 763.9, 21.7687 L 800.363, 37.0068 L 799.637, 38.0952 L 815.601, 44.9887 L 816.508, 43.7188 L 852.789, 58.9569 L 849.161, 64.0363 L 850.249, 64.5805 L 849.887, 65.3061 L 843.9, 73.288 L 843.356, 74.195 L 842.086, 73.8322 L 838.277, 78.9116 L 801.995, 63.6735 L 802.902, 62.4036 L 786.939, 55.6916 L 785.85, 56.9615 L 749.388, 41.542 z "/>
<path style="fill:rgb(0, 255, 0);fill-opacity:0;fill-rule:evenodd;stroke:rgb(255, 0, 175);stroke-width:1;" d="M 749.388, 41.542 L 753.379, 36.2812 L 752.472, 35.9184 L 752.834, 35.1927 L 753.923, 35.737 L 759.728, 27.5737 L 758.821, 27.0295 L 759.184, 26.4853 L 760.091, 26.8481 L 763.9, 21.7687 L 800.363, 37.0068 L 799.637, 38.0952 L 793.832, 46.0771 L 786.939, 55.6916 L 785.85, 56.9615 L 749.388, 41.542 z "/>
</svg>