<?xml version="1.0" encoding="iso-8859-1" standalone="no"?>
<!DOCTYPE svg PUBLIC "-//W3C//DTD SVG 1.0//EN" "http://www.w3.org/TR/2001/REC-SVG-20010904/DTD/svg10.dtd">
<svg xmlns="http://www.w3.org/2000/svg" width="987" height="800">
<path style="fill:rgb(255, 0, 0);fill-opacity:0;fill-rule:evenodd;stroke:rgb(255, 157, 0);stroke-width:1;" d="M 672.607, 766.745 L 731.614, 685.398 L 753.443, 694.436 L 750.714, 698.017 L 757.024, 700.746 L 749.35, 711.32 L 772.543, 721.04 L 780.217, 710.467 L 786.016, 712.854 L 788.574, 709.103 L 811.085, 718.482 L 752.078, 800 L 672.607, 766.745 z "/>
<path style="fill:rgb(0, 255, 0);fill-opacity:0;fill-rule:evenodd;stroke:rgb(255, 157, 0);stroke-width:1;" d="M 595.694, 314.475 L 616.67, 285.824 L 655.724, 231.933 L 709.444, 254.445 L 701.258, 265.7 L 699.552, 268.088 L 693.072, 277.126 L 674.483, 302.537 L 665.444, 314.816 L 658.282, 324.707 L 650.949, 334.769 L 633.383, 327.436 L 631.848, 329.482 L 595.694, 314.475 z "/>
<path style="fill:rgb(0, 0, 255);fill-opacity:0;fill-rule:evenodd;stroke:rgb(255, 157, 0);stroke-width:1;" d="M 724.451, 508.889 L 758.388, 462.162 L 755.83, 460.968 L 764.698, 448.689 L 768.28, 450.224 L 783.969, 428.736 L 809.721, 439.48 L 841.612, 452.782 L 843.829, 458.751 L 839.906, 464.038 L 832.232, 465.743 L 803.581, 453.635 L 802.217, 455.511 L 799.659, 454.317 L 780.217, 481.091 L 781.923, 481.944 L 780.9, 483.479 L 801.023, 491.835 L 792.667, 503.432 L 776.466, 496.611 L 772.373, 502.238 L 794.202, 511.447 L 790.62, 516.393 L 793.69, 517.757 L 786.016, 528.16 L 782.946, 526.967 L 779.365, 531.912 L 724.451, 508.889 z "/>
<path style="fill:rgb(255, 255, 0);fill-opacity:0;fill-rule:evenodd;stroke:rgb(255, 157, 0);stroke-width:1;" d="M 271.84, 710.808 L 316.521, 650.266 L 342.614, 661.522 L 330.676, 677.723 L 326.412, 676.018 L 320.102, 684.545 L 343.807, 694.607 L 350.117, 686.08 L 341.59, 682.328 L 353.528, 666.127 L 391.388, 682.328 L 379.45, 698.529 L 374.334, 696.312 L 341.761, 740.482 L 320.273, 731.273 L 321.978, 729.056 L 319.079, 727.862 L 334.598, 706.544 L 315.668, 698.529 L 310.893, 705.01 L 311.575, 705.18 L 299.126, 722.234 L 271.84, 710.808 z "/>
<path style="fill:rgb(255, 0, 0);fill-opacity:0;fill-rule:evenodd;stroke:rgb(255, 157, 0);stroke-width:1;" d="M 487.742, 409.294 L 510.595, 365.125 L 520.315, 369.218 L 522.191, 369.9 L 522.703, 374.845 L 595.353, 405.372 L 567.896, 443.061 L 487.742, 409.294 z "/>
<path style="fill:rgb(0, 255, 0);fill-opacity:0;fill-rule:evenodd;stroke:rgb(255, 157, 0);stroke-width:1;" d="M 252.228, 449.883 L 280.367, 411.341 L 277.979, 410.318 L 279.514, 408.271 L 312.94, 422.426 L 302.537, 436.751 L 320.102, 444.084 L 330.335, 429.93 L 340.226, 434.023 L 360.861, 442.72 L 331.358, 483.138 L 252.228, 449.883 z "/>
<path style="fill:rgb(0, 0, 255);fill-opacity:0;fill-rule:evenodd;stroke:rgb(255, 157, 0);stroke-width:1;" d="M 392.07, 88.3394 L 417.992, 51.6734 L 445.278, 62.7585 L 442.379, 66.8514 L 456.193, 72.4792 L 473.247, 79.3008 L 476.146, 75.3784 L 501.386, 85.6107 L 494.735, 127.393 L 490.642, 129.78 L 464.549, 119.036 L 473.929, 105.734 L 472.564, 105.223 L 476.999, 98.9128 L 467.619, 94.9904 L 453.635, 114.602 L 429.418, 104.711 L 438.798, 91.5796 L 442.72, 93.285 L 446.301, 88.3394 L 427.03, 80.4946 L 424.302, 84.2464 L 428.054, 85.7813 L 418.504, 99.0834 L 392.07, 88.3394 z "/>
<path style="fill:rgb(255, 255, 0);fill-opacity:0;fill-rule:evenodd;stroke:rgb(255, 157, 0);stroke-width:1;" d="M 69.0684, 318.738 L 84.2464, 297.932 L 79.3008, 295.715 L 91.2385, 279.343 L 89.3626, 278.661 L 91.5796, 275.762 L 108.634, 282.925 L 109.486, 281.731 L 164.741, 304.754 L 134.897, 346.195 L 107.61, 334.769 L 114.773, 324.707 L 117.843, 326.071 L 128.928, 310.552 L 123.982, 308.506 L 122.618, 310.382 L 109.827, 305.095 L 92.7734, 328.629 L 69.0684, 318.738 z "/>
<path style="fill:rgb(255, 0, 0);fill-opacity:0;fill-rule:evenodd;stroke:rgb(255, 157, 0);stroke-width:1;" d="M 42.1232, 82.8821 L 58.1539, 60.712 L 61.5647, 62.0763 L 61.0531, 62.929 L 80.324, 70.9444 L 86.634, 62.2469 L 67.363, 54.2315 L 66.6809, 55.2547 L 63.4406, 53.8904 L 78.7892, 32.573 L 104.541, 43.317 L 101.641, 47.5805 L 119.719, 55.0842 L 116.478, 59.3477 L 127.393, 63.9522 L 117.843, 77.0838 L 105.734, 71.9676 L 99.4244, 80.6651 L 116.819, 87.8278 L 103.858, 105.734 L 104.711, 106.075 L 103.176, 108.292 L 42.1232, 82.8821 z "/>
<path style="fill:rgb(0, 255, 0);fill-opacity:0;fill-rule:evenodd;stroke:rgb(255, 157, 0);stroke-width:1;" d="M 658.282, 139.842 L 664.08, 131.997 L 669.196, 134.214 L 671.413, 131.145 L 666.297, 128.928 L 675.847, 115.796 L 671.584, 114.091 L 672.778, 112.385 L 680.111, 102.494 L 702.452, 111.874 L 686.08, 134.214 L 687.103, 136.773 L 691.196, 138.478 L 694.436, 137.796 L 710.808, 115.455 L 730.249, 123.641 L 714.048, 145.982 L 715.412, 148.028 L 719.847, 149.904 L 722.234, 149.392 L 738.435, 127.052 L 761.117, 136.602 L 752.931, 147.858 L 752.249, 148.54 L 748.668, 147.175 L 731.443, 170.539 L 694.948, 155.191 L 696.653, 152.974 L 688.467, 149.563 L 686.762, 151.78 L 658.282, 139.842 z "/>
<path style="fill:rgb(0, 0, 255);fill-opacity:0;fill-rule:evenodd;stroke:rgb(255, 157, 0);stroke-width:1;" d="M 313.281, 195.95 L 337.327, 162.524 L 352.846, 169.004 L 348.753, 174.803 L 353.699, 176.849 L 352.675, 178.214 L 366.318, 183.841 L 359.838, 192.709 L 372.117, 197.826 L 383.202, 182.307 L 388.318, 184.524 L 394.116, 176.338 L 402.302, 179.748 L 399.062, 184.182 L 409.465, 188.446 L 397.527, 205.329 L 402.473, 207.376 L 388.318, 227.158 L 313.281, 195.95 z "/>
<path style="fill:rgb(255, 255, 0);fill-opacity:0;fill-rule:evenodd;stroke:rgb(255, 157, 0);stroke-width:1;" d="M 300.49, 416.457 L 319.079, 390.876 L 316.009, 389.512 L 326.753, 374.675 L 390.706, 401.62 L 360.861, 442.72 L 340.226, 434.023 L 342.443, 431.123 L 334.598, 427.883 L 343.978, 414.922 L 351.652, 418.162 L 359.156, 407.589 L 337.838, 398.721 L 329.994, 409.294 L 337.327, 412.364 L 328.118, 424.984 L 320.273, 421.573 L 318.397, 423.961 L 300.49, 416.457 z "/>
<path style="fill:rgb(255, 0, 0);fill-opacity:0;fill-rule:evenodd;stroke:rgb(255, 157, 0);stroke-width:1;" d="M 228.864, 511.959 L 233.298, 505.82 L 234.492, 506.331 L 242.848, 494.735 L 241.654, 492.177 L 243.53, 489.448 L 247.111, 488.766 L 251.546, 482.797 L 262.801, 487.572 L 251.887, 502.75 L 257.173, 504.967 L 259.731, 504.285 L 259.22, 501.727 L 261.096, 499.169 L 264.165, 498.145 L 269.793, 490.471 L 312.94, 508.378 L 302.025, 523.556 L 277.467, 513.323 L 274.739, 513.835 L 270.816, 512.3 L 268.429, 515.54 L 272.351, 517.075 L 273.033, 519.292 L 297.591, 529.525 L 284.63, 547.602 L 270.475, 541.633 L 267.576, 542.315 L 263.313, 540.439 L 262.289, 538.222 L 260.243, 538.563 L 230.91, 526.284 L 236.368, 518.781 L 249.67, 524.238 L 251.716, 521.509 L 228.864, 511.959 z "/>
<path style="fill:rgb(0, 255, 0);fill-opacity:0;fill-rule:evenodd;stroke:rgb(255, 157, 0);stroke-width:1;" d="M 644.127, 427.542 L 654.018, 414.069 L 652.142, 413.387 L 665.956, 394.628 L 662.204, 392.923 L 663.569, 391.217 L 672.096, 379.621 L 725.133, 401.961 L 691.025, 448.86 L 667.832, 439.139 L 678.917, 423.79 L 676.018, 422.596 L 675.506, 423.279 L 671.243, 421.403 L 661.522, 434.875 L 644.127, 427.542 z M 675.336, 412.364 L 682.157, 415.093 L 680.622, 417.48 L 687.615, 420.209 L 696.483, 407.418 L 682.669, 401.791 L 675.336, 412.364 z "/>
<path style="fill:rgb(0, 0, 255);fill-opacity:0;fill-rule:evenodd;stroke:rgb(255, 157, 0);stroke-width:1;" d="M 37.6892, 361.032 L 39.0535, 359.156 L 46.7278, 348.582 L 55.7664, 352.505 L 65.3166, 339.373 L 56.278, 335.621 L 58.6655, 332.211 L 62.2469, 327.436 L 97.0369, 342.102 L 95.1609, 344.66 L 99.0834, 346.365 L 104.029, 339.714 L 131.315, 351.14 L 103.688, 388.83 L 76.7427, 377.574 L 87.4867, 362.908 L 89.8742, 363.931 L 91.9207, 361.032 L 78.2776, 355.233 L 65.4871, 372.799 L 37.6892, 361.032 z "/>
<path style="fill:rgb(255, 255, 0);fill-opacity:0;fill-rule:evenodd;stroke:rgb(255, 157, 0);stroke-width:1;" d="M 878.619, 291.281 L 907.099, 252.057 L 915.285, 255.638 L 926.711, 260.243 L 930.463, 261.948 L 936.09, 264.336 L 934.556, 266.553 L 942.912, 270.134 L 942.571, 270.646 L 957.408, 276.956 L 939.672, 301.172 L 930.804, 313.281 L 878.619, 291.281 z "/>
<path style="fill:rgb(255, 0, 0);fill-opacity:0;fill-rule:evenodd;stroke:rgb(255, 157, 0);stroke-width:1;" d="M 334.769, 625.027 L 371.946, 573.694 L 388.83, 580.686 L 393.605, 582.733 L 390.876, 586.485 L 412.705, 595.523 L 400.597, 612.236 L 378.938, 603.198 L 369.388, 616.329 L 373.14, 617.864 L 374.675, 615.476 L 397.186, 624.856 L 382.69, 644.98 L 334.769, 625.027 z "/>
<path style="fill:rgb(0, 255, 0);fill-opacity:0;fill-rule:evenodd;stroke:rgb(255, 157, 0);stroke-width:1;" d="M 556.129, 573.353 L 562.098, 565.167 L 565.508, 566.532 L 577.787, 549.648 L 574.376, 548.284 L 591.601, 524.408 L 595.012, 525.773 L 607.291, 508.548 L 603.88, 507.184 L 610.19, 498.486 L 638.84, 510.424 L 634.236, 516.734 L 627.755, 525.773 L 623.321, 523.897 L 614.965, 535.323 L 618.035, 536.687 L 602.686, 558.005 L 599.616, 556.64 L 591.089, 568.578 L 595.523, 570.454 L 584.779, 585.291 L 556.129, 573.353 z "/>
<path style="fill:rgb(0, 0, 255);fill-opacity:0;fill-rule:evenodd;stroke:rgb(255, 157, 0);stroke-width:1;" d="M 170.028, 216.926 L 180.09, 202.942 L 195.609, 209.422 L 201.577, 201.236 L 181.454, 192.88 L 190.492, 180.26 L 187.934, 179.237 L 191.345, 174.462 L 245.406, 196.973 L 214.027, 240.29 L 191.857, 231.081 L 195.95, 225.282 L 188.105, 222.042 L 186.741, 223.918 L 170.028, 216.926 z "/>
<path style="fill:rgb(255, 255, 0);fill-opacity:0;fill-rule:evenodd;stroke:rgb(255, 157, 0);stroke-width:1;" d="M 364.272, 730.932 L 398.039, 685.056 L 438.627, 702.281 L 420.038, 727.691 L 404.86, 748.156 L 364.272, 730.932 z "/>
<path style="fill:rgb(255, 0, 0);fill-opacity:0;fill-rule:evenodd;stroke:rgb(255, 157, 0);stroke-width:1;" d="M 394.116, 229.546 L 403.496, 216.585 L 406.736, 217.949 L 409.977, 217.779 L 423.62, 198.849 L 443.743, 207.376 L 433.511, 221.531 L 438.798, 223.748 L 436.581, 226.988 L 442.038, 229.375 L 457.557, 207.887 L 476.828, 215.903 L 462.844, 258.026 L 394.116, 229.546 z "/>
<path style="fill:rgb(0, 255, 0);fill-opacity:0;fill-rule:evenodd;stroke:rgb(255, 157, 0);stroke-width:1;" d="M 197.996, 146.834 L 206.523, 135.067 L 211.98, 137.284 L 227.158, 116.308 L 248.817, 125.346 L 239.096, 138.99 L 249.84, 143.424 L 262.289, 126.37 L 284.971, 135.92 L 258.708, 172.245 L 197.996, 146.834 z "/>
<path style="fill:rgb(0, 0, 255);fill-opacity:0;fill-rule:evenodd;stroke:rgb(255, 157, 0);stroke-width:1;" d="M 413.046, 517.757 L 442.55, 476.999 L 455.511, 482.456 L 454.317, 484.161 L 458.58, 485.867 L 458.921, 485.525 L 488.595, 497.975 L 480.921, 508.548 L 472.906, 505.308 L 472.564, 505.82 L 460.456, 500.703 L 458.41, 503.432 L 470.518, 508.548 L 470.347, 508.889 L 478.363, 512.13 L 470.859, 522.533 L 462.844, 519.122 L 462.673, 519.463 L 456.704, 517.075 L 456.875, 516.734 L 437.263, 508.548 L 435.387, 511.277 L 470.177, 525.773 L 468.13, 528.501 L 470.347, 529.354 L 463.526, 538.904 L 413.046, 517.757 z "/>
<path style="fill:rgb(255, 255, 0);fill-opacity:0;fill-rule:evenodd;stroke:rgb(255, 157, 0);stroke-width:1;" d="M 78.6186, 518.098 L 108.975, 475.975 L 124.323, 482.456 L 121.936, 485.696 L 152.974, 498.657 L 139.331, 517.587 L 140.865, 518.098 L 126.37, 538.052 L 78.6186, 518.098 z M 107.44, 508.378 L 108.804, 511.447 L 109.145, 511.106 L 113.238, 512.812 L 113.579, 512.3 L 122.618, 515.881 L 130.122, 505.479 L 118.866, 500.874 L 115.455, 500.874 L 110.68, 507.525 L 107.44, 508.378 z "/>
<path style="fill:rgb(255, 0, 0);fill-opacity:0;fill-rule:evenodd;stroke:rgb(255, 157, 0);stroke-width:1;" d="M 264.677, 261.607 L 295.204, 219.143 L 316.009, 227.841 L 309.699, 236.538 L 319.591, 240.631 L 325.901, 231.933 L 343.807, 239.437 L 329.141, 259.731 L 322.149, 256.832 L 319.42, 260.414 L 321.296, 261.096 L 307.994, 279.514 L 300.149, 276.274 L 304.413, 270.475 L 303.048, 269.793 L 303.56, 268.941 L 287.188, 262.119 L 282.243, 268.941 L 264.677, 261.607 z "/>
<path style="fill:rgb(0, 255, 0);fill-opacity:0;fill-rule:evenodd;stroke:rgb(255, 157, 0);stroke-width:1;" d="M 337.327, 162.524 L 351.993, 142.23 L 364.443, 147.517 L 368.024, 146.834 L 371.605, 141.718 L 370.753, 138.99 L 358.133, 133.703 L 372.799, 113.409 L 415.775, 131.145 L 401.45, 150.927 L 388.318, 145.641 L 384.055, 151.268 L 385.589, 153.656 L 390.706, 155.873 L 386.272, 162.183 L 391.558, 164.229 L 385.76, 172.245 L 383.372, 171.221 L 380.132, 175.656 L 372.117, 172.245 L 372.628, 171.392 L 365.636, 168.493 L 366.66, 167.129 L 359.667, 164.229 L 355.233, 165.594 L 352.846, 169.004 L 337.327, 162.524 z "/>
<path style="fill:rgb(0, 0, 255);fill-opacity:0;fill-rule:evenodd;stroke:rgb(255, 157, 0);stroke-width:1;" d="M 126.711, 258.026 L 128.075, 256.15 L 137.114, 243.701 L 143.424, 246.429 L 148.369, 239.608 L 147.346, 239.267 L 156.385, 226.817 L 173.78, 233.98 L 165.082, 246.088 L 175.485, 250.522 L 187.082, 234.492 L 208.911, 243.701 L 181.965, 281.219 L 126.711, 258.026 z "/>
<path style="fill:rgb(255, 255, 0);fill-opacity:0;fill-rule:evenodd;stroke:rgb(255, 157, 0);stroke-width:1;" d="M 567.043, 231.592 L 577.617, 199.019 L 650.437, 229.716 L 637.988, 246.941 L 632.701, 244.724 L 627.755, 251.546 L 601.663, 240.631 L 606.097, 234.492 L 594.5, 229.716 L 588.361, 238.073 L 589.725, 238.585 L 588.361, 240.631 L 582.221, 238.073 L 567.043, 231.592 z "/>
<path style="fill:rgb(255, 0, 0);fill-opacity:0;fill-rule:evenodd;stroke:rgb(255, 157, 0);stroke-width:1;" d="M 246.941, 103.347 L 258.708, 87.1456 L 258.026, 84.417 L 254.615, 82.8821 L 263.142, 71.2854 L 265.53, 67.8747 L 286.336, 76.5722 L 274.568, 92.7734 L 285.824, 97.5485 L 297.591, 81.1767 L 318.909, 90.0448 L 291.963, 127.393 L 265.359, 116.308 L 269.111, 111.021 L 265.53, 109.486 L 264.677, 110.851 L 246.941, 103.347 z "/>
<path style="fill:rgb(0, 255, 0);fill-opacity:0;fill-rule:evenodd;stroke:rgb(255, 157, 0);stroke-width:1;" d="M 900.448, 587.679 L 919.378, 560.904 L 914.602, 558.857 L 926.199, 542.656 L 930.974, 544.703 L 949.904, 518.269 L 970.71, 526.796 L 951.951, 553.4 L 956.726, 555.276 L 945.129, 571.477 L 940.354, 569.601 L 921.253, 596.376 L 900.448, 587.679 z "/>
<path style="fill:rgb(0, 0, 255);fill-opacity:0;fill-rule:evenodd;stroke:rgb(255, 157, 0);stroke-width:1;" d="M 890.556, 702.622 L 909.827, 675.847 L 905.052, 673.801 L 916.819, 657.6 L 921.424, 659.476 L 940.524, 632.871 L 961.33, 641.569 L 942.23, 668.003 L 947.346, 670.049 L 935.579, 686.421 L 930.463, 684.374 L 911.192, 711.149 L 890.556, 702.622 z "/>
<path style="fill:rgb(255, 255, 0);fill-opacity:0;fill-rule:evenodd;stroke:rgb(255, 157, 0);stroke-width:1;" d="M 234.662, 303.219 L 264.677, 261.607 L 282.243, 268.941 L 283.436, 269.282 L 280.367, 273.545 L 304.242, 283.436 L 293.839, 297.762 L 274.057, 289.576 L 268.77, 296.909 L 276.103, 299.979 L 275.592, 300.661 L 292.816, 307.823 L 282.072, 322.831 L 234.662, 303.219 z "/>
<path style="fill:rgb(255, 0, 0);fill-opacity:0;fill-rule:evenodd;stroke:rgb(255, 157, 0);stroke-width:1;" d="M 666.809, 603.368 L 685.739, 577.105 L 680.622, 574.888 L 692.39, 558.516 L 697.676, 560.733 L 716.777, 534.3 L 737.071, 542.827 L 718.141, 569.26 L 723.087, 571.307 L 711.32, 587.679 L 705.862, 585.462 L 686.932, 611.725 L 666.809, 603.368 z "/>
<path style="fill:rgb(0, 255, 0);fill-opacity:0;fill-rule:evenodd;stroke:rgb(255, 157, 0);stroke-width:1;" d="M 546.92, 293.839 L 557.493, 260.925 L 608.825, 282.584 L 616.67, 285.824 L 595.694, 314.475 L 546.92, 293.839 z "/>
<path style="fill:rgb(0, 0, 255);fill-opacity:0;fill-rule:evenodd;stroke:rgb(255, 157, 0);stroke-width:1;" d="M 779.706, 651.29 L 798.977, 625.027 L 793.861, 622.81 L 806.139, 606.267 L 811.256, 608.484 L 830.527, 582.392 L 849.968, 590.578 L 830.697, 616.67 L 835.984, 619.058 L 823.705, 635.6 L 819.1, 633.554 L 799.659, 659.817 L 779.706, 651.29 z "/>
<path style="fill:rgb(255, 255, 0);fill-opacity:0;fill-rule:evenodd;stroke:rgb(255, 157, 0);stroke-width:1;" d="M 804.946, 100.789 L 810.744, 92.9439 L 811.426, 91.7502 L 819.783, 95.3315 L 829.674, 82.0294 L 821.317, 78.4481 L 828.821, 68.0452 L 882.029, 90.5564 L 874.526, 100.959 L 867.022, 97.8896 L 864.464, 99.2539 L 864.123, 99.936 L 860.883, 98.5717 L 858.495, 101.641 L 860.883, 102.665 L 856.278, 108.975 L 858.666, 109.998 L 857.642, 111.362 L 864.634, 114.432 L 858.154, 123.3 L 804.946, 100.789 z "/>
<path style="fill:rgb(255, 0, 0);fill-opacity:0;fill-rule:evenodd;stroke:rgb(255, 157, 0);stroke-width:1;" d="M 620.422, 184.694 L 621.104, 183.671 L 627.585, 174.803 L 630.996, 176.338 L 649.755, 150.757 L 669.537, 158.943 L 666.638, 163.036 L 665.444, 162.524 L 664.08, 164.4 L 664.251, 166.617 L 670.902, 169.516 L 673.289, 169.004 L 674.995, 166.446 L 673.63, 165.935 L 676.53, 161.842 L 696.142, 170.198 L 677.382, 195.95 L 680.964, 197.314 L 673.801, 207.205 L 620.422, 184.694 z M 648.22, 181.965 L 662.034, 187.764 L 670.561, 176.338 L 656.747, 170.539 L 648.22, 181.965 z "/>
<path style="fill:rgb(0, 255, 0);fill-opacity:0;fill-rule:evenodd;stroke:rgb(255, 157, 0);stroke-width:1;" d="M 751.055, 78.107 L 756.854, 70.2622 L 765.381, 73.8435 L 768.28, 70.0917 L 770.667, 71.1149 L 777.83, 61.2236 L 766.745, 56.6191 L 775.101, 45.3635 L 828.821, 68.0452 L 821.317, 78.4481 L 820.635, 79.4713 L 809.38, 74.6962 L 802.217, 84.2464 L 804.946, 85.4402 L 803.07, 87.8278 L 804.093, 88.851 L 803.411, 89.8742 L 810.744, 92.9439 L 804.946, 100.789 L 751.055, 78.107 z "/>
<path style="fill:rgb(0, 0, 255);fill-opacity:0;fill-rule:evenodd;stroke:rgb(255, 157, 0);stroke-width:1;" d="M 420.55, 46.5572 L 435.387, 26.7747 L 451.588, 33.5962 L 450.224, 35.4722 L 461.309, 40.2473 L 491.665, 53.3788 L 493.2, 51.1618 L 505.479, 56.4485 L 502.238, 81.8589 L 475.975, 70.4327 L 476.999, 68.7274 L 469.154, 65.3166 L 468.813, 62.7585 L 460.627, 59.1771 L 459.092, 61.0531 L 437.945, 51.844 L 436.751, 53.5493 L 420.55, 46.5572 z "/>
<path style="fill:rgb(255, 255, 0);fill-opacity:0;fill-rule:evenodd;stroke:rgb(255, 157, 0);stroke-width:1;" d="M 614.283, 462.673 L 622.81, 451.077 L 626.05, 450.735 L 634.747, 438.968 L 648.049, 444.596 L 648.561, 446.643 L 644.468, 452.27 L 647.538, 453.635 L 649.414, 454.317 L 653.166, 449.371 L 654.189, 449.883 L 654.189, 448.348 L 653.507, 447.325 L 656.918, 442.55 L 665.103, 445.96 L 667.661, 446.301 L 673.289, 448.689 L 675.336, 448.348 L 687.615, 453.464 L 665.274, 484.161 L 614.283, 462.673 z "/>
<path style="fill:rgb(255, 0, 0);fill-opacity:0;fill-rule:evenodd;stroke:rgb(255, 157, 0);stroke-width:1;" d="M 514.688, 489.618 L 522.533, 478.704 L 524.579, 478.192 L 526.284, 475.805 L 520.827, 473.588 L 530.548, 460.115 L 583.586, 482.285 L 574.035, 495.417 L 568.578, 493.029 L 567.214, 495.076 L 568.237, 496.781 L 559.71, 508.548 L 514.688, 489.618 z "/>
<path style="fill:rgb(0, 255, 0);fill-opacity:0;fill-rule:evenodd;stroke:rgb(255, 157, 0);stroke-width:1;" d="M 774.249, 249.499 L 788.744, 229.375 L 790.279, 230.058 L 796.078, 222.042 L 826.775, 235.003 L 828.48, 232.616 L 844.511, 239.437 L 822.341, 269.793 L 774.249, 249.499 z M 798.806, 248.476 L 804.093, 250.522 L 811.256, 240.802 L 805.969, 238.585 L 798.806, 248.476 z "/>
<path style="fill:rgb(0, 0, 255);fill-opacity:0;fill-rule:evenodd;stroke:rgb(255, 157, 0);stroke-width:1;" d="M 418.845, 660.158 L 445.278, 623.833 L 471.882, 635.088 L 481.603, 639.181 L 455.169, 675.506 L 418.845, 660.158 z "/>
<path style="fill:rgb(255, 255, 0);fill-opacity:0;fill-rule:evenodd;stroke:rgb(255, 157, 0);stroke-width:1;" d="M 244.894, 386.442 L 251.887, 376.721 L 257.855, 379.279 L 259.561, 377.745 L 269.452, 364.272 L 262.972, 361.543 L 270.305, 351.652 L 271.158, 350.288 L 309.529, 366.318 L 308.847, 367.171 L 301.855, 376.892 L 295.715, 374.334 L 293.498, 375.528 L 284.63, 387.806 L 291.622, 390.876 L 287.359, 396.674 L 283.095, 402.473 L 273.716, 398.55 L 270.134, 403.496 L 249.329, 394.799 L 252.91, 389.853 L 244.894, 386.442 z "/>
<path style="fill:rgb(255, 0, 0);fill-opacity:0;fill-rule:evenodd;stroke:rgb(255, 157, 0);stroke-width:1;" d="M 364.101, 357.621 L 369.388, 350.288 L 372.628, 351.823 L 387.124, 331.699 L 389.512, 332.552 L 390.535, 331.187 L 397.868, 334.428 L 388.489, 347.559 L 393.264, 349.606 L 405.884, 332.381 L 391.047, 326.242 L 395.822, 319.591 L 428.224, 333.063 L 406.395, 374.504 L 405.713, 374.845 L 364.101, 357.621 z "/>
<path style="fill:rgb(0, 255, 0);fill-opacity:0;fill-rule:evenodd;stroke:rgb(255, 157, 0);stroke-width:1;" d="M 714.389, 224.259 L 721.552, 214.538 L 723.939, 211.128 L 727.35, 210.616 L 730.932, 205.67 L 728.715, 204.818 L 729.908, 203.112 L 732.466, 199.531 L 739.629, 189.81 L 743.21, 188.616 L 746.792, 190.151 L 747.474, 192.88 L 751.567, 194.585 L 747.133, 200.895 L 746.451, 200.554 L 740.311, 208.911 L 745.257, 210.957 L 748.327, 206.523 L 747.986, 206.523 L 755.148, 196.461 L 778, 206.182 L 770.838, 216.073 L 770.156, 215.732 L 761.117, 228.011 L 764.016, 229.205 L 755.148, 241.313 L 714.389, 224.259 z "/>
<path style="fill:rgb(0, 0, 255);fill-opacity:0;fill-rule:evenodd;stroke:rgb(255, 157, 0);stroke-width:1;" d="M 152.121, 127.734 L 152.974, 126.711 L 160.648, 115.967 L 169.516, 119.719 L 172.756, 115.455 L 171.051, 114.773 L 172.586, 112.556 L 178.725, 115.285 L 182.307, 110.339 L 168.834, 104.711 L 172.586, 99.4244 L 176.679, 93.7966 L 217.608, 110.851 L 207.376, 125.005 L 201.748, 122.618 L 195.95, 130.633 L 206.523, 135.067 L 197.996, 146.834 L 152.121, 127.734 z "/>
<path style="fill:rgb(255, 255, 0);fill-opacity:0;fill-rule:evenodd;stroke:rgb(255, 157, 0);stroke-width:1;" d="M 371.946, 573.694 L 393.605, 543.85 L 444.425, 564.997 L 436.41, 576.082 L 433.511, 577.617 L 424.302, 590.407 L 411.511, 584.95 L 420.891, 572.159 L 404.178, 565.338 L 401.109, 569.431 L 411.682, 573.865 L 404.178, 584.097 L 390.535, 578.469 L 388.83, 580.686 L 371.946, 573.694 z "/>
<path style="fill:rgb(255, 0, 0);fill-opacity:0;fill-rule:evenodd;stroke:rgb(255, 157, 0);stroke-width:1;" d="M 649.243, 337.156 L 650.949, 334.769 L 658.282, 324.707 L 667.491, 328.629 L 674.654, 318.738 L 665.444, 314.816 L 674.483, 302.537 L 715.242, 319.761 L 706.374, 332.04 L 697.506, 328.288 L 690.173, 338.179 L 699.041, 341.931 L 690.173, 354.381 L 649.243, 337.156 z "/>
<path style="fill:rgb(0, 255, 0);fill-opacity:0;fill-rule:evenodd;stroke:rgb(255, 157, 0);stroke-width:1;" d="M 569.26, 443.573 L 577.446, 432.488 L 580.516, 433.682 L 598.423, 409.124 L 634.236, 424.302 L 616.5, 448.689 L 619.74, 450.053 L 611.384, 461.479 L 594.159, 454.146 L 608.996, 433.852 L 601.492, 430.612 L 586.655, 450.906 L 569.26, 443.573 z "/>
<path style="fill:rgb(0, 0, 255);fill-opacity:0;fill-rule:evenodd;stroke:rgb(255, 157, 0);stroke-width:1;" d="M 218.461, 576.423 L 226.135, 565.849 L 226.988, 566.191 L 230.569, 561.074 L 232.616, 561.927 L 232.786, 561.586 L 236.026, 561.586 L 240.29, 555.617 L 238.585, 553.571 L 248.135, 540.439 L 251.204, 540.439 L 256.15, 542.486 L 254.104, 545.385 L 279.514, 555.958 L 274.227, 563.462 L 271.328, 563.974 L 270.305, 565.338 L 271.158, 567.725 L 264.507, 576.935 L 261.778, 577.446 L 260.925, 578.299 L 262.289, 580.004 L 254.956, 590.066 L 252.569, 589.043 L 251.716, 590.237 L 218.461, 576.423 z "/>
<path style="fill:rgb(255, 255, 0);fill-opacity:0;fill-rule:evenodd;stroke:rgb(255, 157, 0);stroke-width:1;" d="M 168.493, 616.329 L 183.671, 595.864 L 181.283, 594.841 L 182.648, 592.965 L 232.957, 614.453 L 234.151, 615.135 L 234.662, 615.647 L 235.344, 616.841 L 235.344, 617.352 L 235.344, 617.864 L 235.003, 619.058 L 218.631, 641.057 L 203.283, 634.406 L 204.988, 632.019 L 168.493, 616.329 z M 187.252, 614.624 L 195.268, 618.035 L 197.655, 614.794 L 193.051, 612.748 L 195.097, 610.019 L 191.857, 608.655 L 187.252, 614.624 z "/>
<path style="fill:rgb(255, 0, 0);fill-opacity:0;fill-rule:evenodd;stroke:rgb(255, 157, 0);stroke-width:1;" d="M 738.776, 173.609 L 756.512, 149.222 L 752.931, 147.858 L 761.117, 136.602 L 801.535, 153.656 L 794.372, 163.547 L 791.644, 167.129 L 787.892, 172.245 L 784.822, 176.679 L 782.605, 179.578 L 781.07, 181.795 L 775.101, 179.237 L 773.055, 181.965 L 775.613, 182.989 L 772.202, 187.764 L 758.559, 181.965 L 759.412, 180.772 L 747.815, 175.826 L 746.792, 177.02 L 738.776, 173.609 z M 763.675, 166.617 L 777.489, 172.586 L 785.163, 162.524 L 783.799, 160.819 L 774.078, 156.726 L 771.349, 156.385 L 763.675, 166.617 z "/>
<path style="fill:rgb(0, 255, 0);fill-opacity:0;fill-rule:evenodd;stroke:rgb(255, 157, 0);stroke-width:1;" d="M 323.172, 278.15 L 331.699, 266.553 L 343.637, 271.669 L 351.823, 260.243 L 340.567, 255.638 L 349.435, 243.36 L 389, 259.902 L 380.985, 270.987 L 380.132, 272.01 L 368.877, 267.406 L 360.691, 278.661 L 371.946, 283.436 L 363.59, 295.033 L 323.172, 278.15 z "/>
<path style="fill:rgb(0, 0, 255);fill-opacity:0;fill-rule:evenodd;stroke:rgb(255, 157, 0);stroke-width:1;" d="M 388.659, 647.538 L 415.093, 611.213 L 445.278, 623.833 L 418.845, 660.158 L 388.659, 647.538 z "/>
<path style="fill:rgb(255, 255, 0);fill-opacity:0;fill-rule:evenodd;stroke:rgb(255, 157, 0);stroke-width:1;" d="M 438.116, 174.291 L 456.534, 148.71 L 491.494, 163.377 L 487.742, 186.741 L 484.332, 196.973 L 474.27, 192.88 L 466.425, 189.64 L 468.472, 186.911 L 438.116, 174.291 z M 460.286, 172.074 L 470.177, 175.997 L 473.929, 170.539 L 473.076, 170.198 L 464.038, 166.617 L 460.286, 172.074 z "/>
<path style="fill:rgb(255, 0, 0);fill-opacity:0;fill-rule:evenodd;stroke:rgb(255, 157, 0);stroke-width:1;" d="M 152.803, 642.592 L 167.981, 622.127 L 194.585, 633.554 L 194.074, 634.406 L 198.508, 636.282 L 200.554, 633.213 L 203.283, 634.406 L 218.631, 641.057 L 200.384, 665.786 L 186.57, 659.987 L 188.787, 657.088 L 185.888, 655.894 L 185.717, 656.235 L 170.539, 649.755 L 178.214, 639.352 L 175.144, 638.158 L 167.299, 648.732 L 152.803, 642.592 z M 185.206, 646.003 L 190.492, 648.22 L 193.392, 649.584 L 196.802, 644.98 L 188.616, 641.398 L 185.206, 646.003 z "/>
<path style="fill:rgb(0, 255, 0);fill-opacity:0;fill-rule:evenodd;stroke:rgb(255, 157, 0);stroke-width:1;" d="M 185.888, 562.78 L 196.632, 547.943 L 202.942, 550.501 L 213.515, 535.835 L 209.252, 534.129 L 215.05, 526.114 L 217.949, 527.308 L 217.608, 527.819 L 243.36, 538.563 L 237.902, 546.067 L 233.639, 544.362 L 223.065, 559.028 L 229.375, 561.586 L 226.135, 565.849 L 218.461, 576.423 L 185.888, 562.78 z "/>
<path style="fill:rgb(0, 0, 255);fill-opacity:0;fill-rule:evenodd;stroke:rgb(255, 157, 0);stroke-width:1;" d="M 488.254, 657.088 L 503.773, 635.088 L 528.331, 644.98 L 530.718, 641.569 L 546.579, 647.879 L 525.432, 678.064 L 512.982, 672.948 L 508.889, 671.413 L 510.595, 669.026 L 509.06, 668.344 L 510.595, 665.956 L 507.355, 664.592 L 508.378, 663.227 L 494.564, 657.6 L 493.541, 658.793 L 490.471, 657.6 L 490.13, 657.941 L 488.254, 657.088 z "/>
<path style="fill:rgb(255, 255, 0);fill-opacity:0;fill-rule:evenodd;stroke:rgb(255, 157, 0);stroke-width:1;" d="M 445.278, 623.833 L 448.689, 619.228 L 458.921, 623.662 L 468.983, 609.678 L 487.572, 584.268 L 499.68, 589.384 L 498.828, 599.105 L 498.657, 600.469 L 496.952, 602.174 L 494.223, 624.003 L 485.867, 635.43 L 474.952, 630.825 L 471.882, 635.088 L 445.278, 623.833 z "/>
<path style="fill:rgb(255, 0, 0);fill-opacity:0;fill-rule:evenodd;stroke:rgb(255, 157, 0);stroke-width:1;" d="M 517.246, 352.334 L 533.447, 321.126 L 569.772, 336.474 L 569.26, 337.156 L 549.137, 364.784 L 538.904, 360.52 L 538.393, 361.202 L 517.246, 352.334 z "/>
<path style="fill:rgb(0, 255, 0);fill-opacity:0;fill-rule:evenodd;stroke:rgb(255, 157, 0);stroke-width:1;" d="M 400.938, 167.64 L 406.054, 160.478 L 403.496, 159.454 L 421.573, 134.214 L 453.635, 147.687 L 430.271, 179.919 L 424.984, 177.702 L 430.1, 170.539 L 424.472, 168.152 L 419.356, 175.485 L 414.069, 173.268 L 419.186, 165.935 L 415.775, 164.57 L 410.488, 171.733 L 400.938, 167.64 z "/>
<path style="fill:rgb(0, 0, 255);fill-opacity:0;fill-rule:evenodd;stroke:rgb(255, 157, 0);stroke-width:1;" d="M 918.354, 89.5331 L 926.029, 79.1302 L 934.214, 82.541 L 937.284, 78.107 L 932.339, 75.89 L 940.524, 64.8049 L 940.865, 64.9755 L 941.889, 63.7817 L 938.307, 62.2469 L 945.3, 52.8672 L 971.733, 63.9522 L 942.912, 103.517 L 930.122, 98.0601 L 932.168, 95.3315 L 918.354, 89.5331 z "/>
<path style="fill:rgb(255, 255, 0);fill-opacity:0;fill-rule:evenodd;stroke:rgb(255, 157, 0);stroke-width:1;" d="M 118.866, 191.345 L 125.517, 182.136 L 127.393, 179.748 L 135.579, 183.159 L 143.424, 172.245 L 135.238, 168.834 L 142.059, 159.454 L 143.935, 156.726 L 176.508, 170.369 L 174.291, 173.438 L 169.346, 180.26 L 164.912, 178.384 L 164.229, 179.237 L 162.865, 178.725 L 160.989, 181.454 L 159.113, 180.601 L 150.927, 191.857 L 158.772, 195.097 L 153.997, 201.577 L 151.439, 204.988 L 118.866, 191.345 z "/>
<path style="fill:rgb(255, 0, 0);fill-opacity:0;fill-rule:evenodd;stroke:rgb(255, 157, 0);stroke-width:1;" d="M 581.539, 169.687 L 583.756, 154.85 L 587.849, 156.555 L 594.5, 147.517 L 585.632, 143.765 L 589.384, 120.23 L 596.035, 120.23 L 604.732, 123.812 L 624.003, 131.827 L 616.841, 141.548 L 609.337, 151.951 L 607.461, 154.509 L 594.33, 172.415 L 592.965, 174.462 L 581.539, 169.687 z "/>
<path style="fill:rgb(0, 255, 0);fill-opacity:0;fill-rule:evenodd;stroke:rgb(255, 157, 0);stroke-width:1;" d="M 137.625, 663.569 L 149.051, 648.049 L 178.725, 660.669 L 181.113, 657.6 L 186.57, 659.987 L 200.384, 665.786 L 183.841, 688.126 L 164.57, 679.94 L 167.299, 676.188 L 137.625, 663.569 z "/>
<path style="fill:rgb(0, 0, 255);fill-opacity:0;fill-rule:evenodd;stroke:rgb(255, 157, 0);stroke-width:1;" d="M 879.301, 105.223 L 893.967, 84.9286 L 902.665, 88.6805 L 901.13, 90.7269 L 931.827, 103.688 L 933.362, 101.641 L 942.4, 105.393 L 927.734, 125.687 L 918.866, 121.765 L 920.23, 120.06 L 889.192, 106.928 L 887.828, 108.804 L 879.301, 105.223 z "/>
<path style="fill:rgb(255, 255, 0);fill-opacity:0;fill-rule:evenodd;stroke:rgb(255, 157, 0);stroke-width:1;" d="M 922.959, 230.228 L 936.943, 211.128 L 987.252, 232.275 L 974.973, 249.158 L 937.625, 233.468 L 935.92, 235.685 L 931.145, 233.639 L 922.959, 230.228 z M 961.842, 234.662 L 963.036, 235.174 L 962.183, 236.368 L 964.059, 237.22 L 967.811, 232.275 L 964.57, 230.91 L 961.842, 234.662 z M 941.718, 227.67 L 945.3, 229.205 L 948.881, 224.43 L 945.3, 222.724 L 941.718, 227.67 z "/>
<path style="fill:rgb(255, 0, 0);fill-opacity:0;fill-rule:evenodd;stroke:rgb(255, 157, 0);stroke-width:1;" d="M 198.849, 352.334 L 216.926, 327.436 L 254.274, 343.125 L 239.608, 363.249 L 217.779, 354.21 L 215.221, 357.621 L 217.949, 358.815 L 216.926, 360.009 L 200.213, 353.016 L 198.849, 352.334 z "/>
<path style="fill:rgb(0, 255, 0);fill-opacity:0;fill-rule:evenodd;stroke:rgb(255, 157, 0);stroke-width:1;" d="M 407.077, 318.738 L 428.565, 288.894 L 425.837, 287.7 L 432.829, 278.15 L 452.611, 286.336 L 430.612, 328.459 L 407.077, 318.738 z "/>
<path style="fill:rgb(0, 0, 255);fill-opacity:0;fill-rule:evenodd;stroke:rgb(255, 157, 0);stroke-width:1;" d="M 777.83, 189.469 L 783.628, 181.454 L 782.605, 179.578 L 784.822, 176.679 L 787.721, 175.997 L 789.768, 173.097 L 787.892, 172.245 L 791.644, 167.129 L 794.202, 168.152 L 796.93, 164.57 L 794.372, 163.547 L 801.535, 153.656 L 828.48, 164.912 L 820.806, 175.656 L 818.248, 174.632 L 816.201, 177.361 L 818.759, 178.384 L 812.79, 186.57 L 810.403, 187.423 L 805.457, 194.244 L 803.752, 194.585 L 800.682, 198.849 L 792.326, 195.438 L 795.395, 191.175 L 795.566, 189.981 L 800.512, 183.33 L 799.488, 180.942 L 801.705, 177.873 L 799.318, 176.849 L 797.101, 179.919 L 798.124, 182.307 L 795.907, 185.035 L 793.178, 185.376 L 787.21, 193.562 L 777.83, 189.469 z "/>
<path style="fill:rgb(255, 255, 0);fill-opacity:0;fill-rule:evenodd;stroke:rgb(255, 157, 0);stroke-width:1;" d="M 108.975, 475.975 L 123.47, 455.852 L 138.819, 462.332 L 136.602, 465.572 L 155.532, 473.417 L 157.919, 470.177 L 157.919, 470.177 L 166.787, 473.758 L 169.857, 474.952 L 155.02, 495.417 L 143.253, 490.471 L 145.47, 487.572 L 126.37, 479.557 L 124.323, 482.456 L 108.975, 475.975 z "/>
<path style="fill:rgb(255, 0, 0);fill-opacity:0;fill-rule:evenodd;stroke:rgb(255, 157, 0);stroke-width:1;" d="M 930.804, 313.281 L 939.672, 301.172 L 942.4, 302.196 L 951.78, 289.235 L 951.439, 289.064 L 957.237, 281.049 L 960.136, 280.026 L 963.377, 281.39 L 964.229, 283.948 L 973.438, 287.87 L 977.02, 287.188 L 979.919, 288.382 L 980.942, 290.94 L 973.95, 300.49 L 973.097, 300.149 L 964.741, 311.575 L 967.47, 312.769 L 958.602, 325.048 L 930.804, 313.281 z M 952.462, 304.924 L 956.726, 306.8 L 961.33, 300.49 L 957.067, 298.785 L 952.462, 304.924 z "/>
<path style="fill:rgb(0, 255, 0);fill-opacity:0;fill-rule:evenodd;stroke:rgb(255, 157, 0);stroke-width:1;" d="M 892.091, 76.7427 L 895.331, 72.4792 L 899.936, 66.1693 L 906.758, 69.0684 L 915.114, 57.4718 L 915.626, 57.8128 L 918.525, 53.8904 L 911.192, 50.8207 L 918.013, 41.2705 L 945.3, 52.8672 L 938.307, 62.2469 L 934.726, 60.712 L 915.626, 86.634 L 892.091, 76.7427 z "/>
<path style="fill:rgb(0, 0, 255);fill-opacity:0;fill-rule:evenodd;stroke:rgb(255, 157, 0);stroke-width:1;" d="M 441.697, 597.911 L 443.232, 595.523 L 461.479, 570.625 L 488.936, 582.392 L 487.572, 584.268 L 468.983, 609.678 L 441.697, 597.911 z "/>
<path style="fill:rgb(255, 255, 0);fill-opacity:0;fill-rule:evenodd;stroke:rgb(255, 157, 0);stroke-width:1;" d="M 34.9606, 418.845 L 38.883, 413.558 L 58.495, 421.914 L 60.3709, 419.527 L 54.9137, 417.139 L 56.278, 415.263 L 38.5419, 407.76 L 47.5805, 395.31 L 86.2929, 411.682 L 70.0917, 433.682 L 34.9606, 418.845 z "/>
<path style="fill:rgb(255, 0, 0);fill-opacity:0;fill-rule:evenodd;stroke:rgb(255, 157, 0);stroke-width:1;" d="M 833.767, 349.947 L 856.96, 317.374 L 879.13, 326.583 L 865.317, 345.854 L 855.937, 359.156 L 833.767, 349.947 z "/>
<path style="fill:rgb(0, 255, 0);fill-opacity:0;fill-rule:evenodd;stroke:rgb(255, 157, 0);stroke-width:1;" d="M 562.098, 247.111 L 567.043, 231.592 L 582.221, 238.073 L 582.562, 239.949 L 632.019, 260.755 L 624.515, 271.158 L 574.888, 250.352 L 572.33, 251.375 L 562.098, 247.111 z "/>
<path style="fill:rgb(0, 0, 255);fill-opacity:0;fill-rule:evenodd;stroke:rgb(255, 157, 0);stroke-width:1;" d="M 442.55, 476.999 L 452.782, 462.844 L 466.937, 468.642 L 465.743, 470.177 L 500.874, 484.843 L 501.556, 483.991 L 509.572, 487.401 L 500.874, 499.51 L 462.673, 483.479 L 463.185, 482.797 L 458.239, 480.75 L 456.534, 482.967 L 455.511, 482.456 L 442.55, 476.999 z "/>
<path style="fill:rgb(255, 255, 0);fill-opacity:0;fill-rule:evenodd;stroke:rgb(255, 157, 0);stroke-width:1;" d="M 452.782, 462.844 L 462.844, 449.03 L 476.828, 454.828 L 475.634, 456.534 L 479.898, 458.41 L 480.239, 457.898 L 519.292, 474.27 L 509.572, 487.401 L 501.556, 483.991 L 503.091, 481.774 L 472.223, 468.983 L 472.564, 468.472 L 468.301, 466.766 L 466.937, 468.642 L 452.782, 462.844 z "/>
<path style="fill:rgb(255, 0, 0);fill-opacity:0;fill-rule:evenodd;stroke:rgb(255, 157, 0);stroke-width:1;" d="M 462.844, 449.03 L 472.735, 435.387 L 526.625, 458.069 L 519.122, 468.472 L 517.075, 467.448 L 515.711, 469.324 L 477.851, 453.464 L 476.828, 454.828 L 462.844, 449.03 z "/>
<path style="fill:rgb(0, 255, 0);fill-opacity:0;fill-rule:evenodd;stroke:rgb(255, 157, 0);stroke-width:1;" d="M 821.829, 178.725 L 831.038, 165.935 L 882.37, 187.593 L 872.138, 201.407 L 861.906, 197.143 L 860.2, 196.461 L 862.076, 193.903 L 859.348, 192.709 L 858.495, 194.074 L 821.829, 178.725 z "/>
<path style="fill:rgb(0, 0, 255);fill-opacity:0;fill-rule:evenodd;stroke:rgb(255, 157, 0);stroke-width:1;" d="M 342.614, 348.582 L 343.978, 346.877 L 354.04, 332.893 L 357.28, 334.257 L 365.466, 323.001 L 367.512, 320.102 L 364.272, 318.738 L 368.024, 313.451 L 389.341, 322.319 L 385.589, 327.606 L 382.349, 326.242 L 372.117, 340.567 L 375.357, 341.931 L 369.388, 350.288 L 364.101, 357.621 L 342.614, 348.582 z "/>
<path style="fill:rgb(255, 255, 0);fill-opacity:0;fill-rule:evenodd;stroke:rgb(255, 157, 0);stroke-width:1;" d="M 365.977, 298.273 L 371.605, 290.599 L 370.923, 290.428 L 384.055, 272.351 L 380.985, 270.987 L 389, 259.902 L 411.17, 269.111 L 403.155, 280.196 L 400.256, 279.002 L 386.954, 297.591 L 385.931, 297.08 L 380.644, 304.242 L 365.977, 298.273 z "/>
<path style="fill:rgb(255, 0, 0);fill-opacity:0;fill-rule:evenodd;stroke:rgb(255, 157, 0);stroke-width:1;" d="M 557.493, 260.925 L 562.098, 247.111 L 572.33, 251.375 L 617.693, 270.475 L 608.825, 282.584 L 557.493, 260.925 z "/>
<path style="fill:rgb(0, 255, 0);fill-opacity:0;fill-rule:evenodd;stroke:rgb(255, 157, 0);stroke-width:1;" d="M 387.465, 307.141 L 392.752, 299.979 L 392.24, 299.808 L 405.543, 281.219 L 403.155, 280.196 L 411.17, 269.111 L 432.829, 278.15 L 425.837, 287.7 L 424.813, 289.235 L 421.744, 288.041 L 408.442, 306.459 L 407.93, 306.289 L 402.643, 313.451 L 387.465, 307.141 z "/>
<path style="fill:rgb(0, 0, 255);fill-opacity:0;fill-rule:evenodd;stroke:rgb(255, 157, 0);stroke-width:1;" d="M 589.384, 120.23 L 596.205, 80.4946 L 611.725, 87.1456 L 609.508, 90.2153 L 624.515, 96.5253 L 617.011, 106.928 L 610.36, 104.029 L 609.678, 109.316 L 613.942, 111.192 L 604.732, 123.812 L 596.035, 120.23 L 589.384, 120.23 z "/>
<path style="fill:rgb(255, 255, 0);fill-opacity:0;fill-rule:evenodd;stroke:rgb(255, 157, 0);stroke-width:1;" d="M 122.618, 673.971 L 129.269, 664.933 L 164.57, 679.94 L 183.841, 688.126 L 175.656, 699.211 L 123.641, 676.871 L 122.618, 673.971 z "/>
<path style="fill:rgb(255, 0, 0);fill-opacity:0;fill-rule:evenodd;stroke:rgb(255, 157, 0);stroke-width:1;" d="M 510.595, 365.125 L 517.246, 352.334 L 538.393, 361.202 L 537.881, 361.884 L 574.547, 377.404 L 567.384, 387.124 L 521.339, 367.683 L 520.315, 369.218 L 510.595, 365.125 z "/>
<path style="fill:rgb(0, 255, 0);fill-opacity:0;fill-rule:evenodd;stroke:rgb(255, 157, 0);stroke-width:1;" d="M 714.389, 62.5879 L 722.405, 51.5029 L 725.304, 52.6967 L 725.133, 51.5029 L 736.559, 35.9838 L 739.8, 35.4722 L 738.435, 34.1079 L 743.551, 26.9452 L 757.706, 32.9141 L 752.59, 40.0767 L 750.544, 39.9062 L 751.055, 41.9527 L 738.776, 58.8361 L 740.652, 59.5182 L 732.637, 70.2622 L 714.389, 62.5879 z "/>
<path style="fill:rgb(0, 0, 255);fill-opacity:0;fill-rule:evenodd;stroke:rgb(255, 157, 0);stroke-width:1;" d="M 732.637, 70.2622 L 740.652, 59.5182 L 743.21, 60.712 L 742.699, 59.6888 L 754.637, 43.4875 L 757.877, 42.9759 L 757.024, 41.9527 L 762.311, 34.9606 L 775.954, 40.5884 L 755.83, 68.2157 L 756.854, 70.2622 L 751.055, 78.107 L 732.637, 70.2622 z "/>
<path style="fill:rgb(255, 255, 0);fill-opacity:0;fill-rule:evenodd;stroke:rgb(255, 157, 0);stroke-width:1;" d="M 483.82, 547.261 L 490.812, 537.711 L 493.541, 536.858 L 510.083, 514.176 L 524.92, 520.315 L 508.378, 543.168 L 507.696, 542.827 L 509.23, 544.532 L 501.727, 554.764 L 483.82, 547.261 z "/>
<path style="fill:rgb(255, 0, 0);fill-opacity:0;fill-rule:evenodd;stroke:rgb(255, 157, 0);stroke-width:1;" d="M 692.39, 355.233 L 699.723, 345.172 L 707.397, 348.412 L 720.358, 353.869 L 724.792, 355.745 L 734.172, 359.667 L 737.924, 361.202 L 751.567, 367.001 L 744.234, 377.062 L 692.39, 355.233 z "/>
<path style="fill:rgb(0, 255, 0);fill-opacity:0;fill-rule:evenodd;stroke:rgb(255, 157, 0);stroke-width:1;" d="M 466.425, 540.098 L 473.417, 530.548 L 476.146, 529.695 L 492.688, 506.843 L 507.184, 512.982 L 490.642, 535.664 L 490.812, 537.711 L 483.82, 547.261 L 466.425, 540.098 z "/>
<path style="fill:rgb(0, 0, 255);fill-opacity:0;fill-rule:evenodd;stroke:rgb(255, 157, 0);stroke-width:1;" d="M 431.465, 188.958 L 437.774, 180.09 L 444.596, 182.818 L 444.937, 182.307 L 458.751, 188.105 L 460.627, 187.082 L 464.379, 188.616 L 464.72, 190.663 L 471.712, 193.562 L 474.27, 192.88 L 484.332, 196.973 L 477.681, 211.298 L 454.658, 201.748 L 454.487, 199.531 L 445.96, 195.95 L 448.007, 193.392 L 445.79, 192.368 L 444.425, 194.244 L 431.465, 188.958 z "/>
<path style="fill:rgb(255, 255, 0);fill-opacity:0;fill-rule:evenodd;stroke:rgb(255, 157, 0);stroke-width:1;" d="M 263.995, 721.381 L 271.84, 710.808 L 299.126, 722.234 L 317.374, 730.079 L 309.358, 740.652 L 295.545, 734.854 L 292.987, 735.536 L 280.026, 730.079 L 279.343, 727.862 L 263.995, 721.381 z "/>
<path style="fill:rgb(255, 0, 0);fill-opacity:0;fill-rule:evenodd;stroke:rgb(255, 157, 0);stroke-width:1;" d="M 861.224, 124.494 L 868.557, 114.432 L 879.983, 119.207 L 880.495, 120.912 L 893.114, 126.37 L 895.843, 126.029 L 899.083, 127.222 L 898.231, 128.246 L 906.246, 131.656 L 909.316, 131.656 L 920.06, 136.09 L 912.556, 146.323 L 861.224, 124.494 z "/>
<path style="fill:rgb(0, 255, 0);fill-opacity:0;fill-rule:evenodd;stroke:rgb(255, 157, 0);stroke-width:1;" d="M 622.127, 404.69 L 628.096, 396.504 L 625.368, 395.31 L 631.507, 386.954 L 632.871, 387.465 L 638.67, 379.45 L 637.476, 378.938 L 637.817, 378.427 L 645.15, 368.365 L 660.499, 374.675 L 640.716, 401.791 L 637.988, 400.597 L 631.848, 408.783 L 622.127, 404.69 z "/>
<path style="fill:rgb(0, 0, 255);fill-opacity:0;fill-rule:evenodd;stroke:rgb(255, 157, 0);stroke-width:1;" d="M 460.456, 678.747 L 467.96, 668.173 L 479.045, 672.607 L 479.898, 674.483 L 503.262, 684.033 L 505.137, 684.033 L 517.587, 689.149 L 510.595, 699.041 L 460.456, 678.747 z "/>
<path style="fill:rgb(255, 255, 0);fill-opacity:0;fill-rule:evenodd;stroke:rgb(255, 157, 0);stroke-width:1;" d="M 501.727, 554.764 L 509.23, 544.532 L 511.959, 544.703 L 511.277, 544.362 L 522.362, 528.842 L 523.726, 528.331 L 529.013, 520.998 L 541.121, 526.114 L 535.835, 533.276 L 535.835, 534.47 L 524.579, 549.989 L 523.215, 550.33 L 524.92, 551.183 L 517.416, 561.415 L 501.727, 554.764 z "/>
<path style="fill:rgb(255, 0, 0);fill-opacity:0;fill-rule:evenodd;stroke:rgb(255, 157, 0);stroke-width:1;" d="M 549.137, 364.784 L 569.26, 337.156 L 586.314, 344.319 L 579.493, 353.869 L 566.191, 372.117 L 549.137, 364.784 z "/>
<path style="fill:rgb(0, 255, 0);fill-opacity:0;fill-rule:evenodd;stroke:rgb(255, 157, 0);stroke-width:1;" d="M 517.757, 608.484 L 521.168, 603.539 L 518.951, 602.686 L 522.874, 597.058 L 569.09, 615.988 L 561.757, 626.391 L 527.819, 612.577 L 517.757, 608.484 z "/>
<path style="fill:rgb(0, 0, 255);fill-opacity:0;fill-rule:evenodd;stroke:rgb(255, 157, 0);stroke-width:1;" d="M 517.416, 561.415 L 524.92, 551.183 L 527.649, 552.206 L 527.308, 551.013 L 537.54, 536.858 L 539.757, 534.982 L 544.703, 528.16 L 556.47, 533.106 L 551.524, 539.928 L 550.501, 542.486 L 540.269, 556.47 L 538.904, 556.981 L 540.78, 557.664 L 533.276, 568.067 L 517.416, 561.415 z "/>
<path style="fill:rgb(255, 255, 0);fill-opacity:0;fill-rule:evenodd;stroke:rgb(255, 157, 0);stroke-width:1;" d="M 722.405, 327.777 L 730.079, 317.374 L 743.21, 322.831 L 742.528, 323.854 L 742.699, 324.877 L 745.086, 325.901 L 746.621, 325.56 L 747.303, 324.536 L 774.078, 335.962 L 766.574, 346.365 L 739.629, 334.939 L 740.311, 334.087 L 740.141, 332.722 L 737.753, 331.699 L 736.218, 332.381 L 735.536, 333.234 L 722.405, 327.777 z "/>
<path style="fill:rgb(255, 0, 0);fill-opacity:0;fill-rule:evenodd;stroke:rgb(255, 157, 0);stroke-width:1;" d="M 806.651, 198.849 L 812.79, 190.322 L 840.247, 201.919 L 842.805, 202.942 L 854.914, 208.229 L 864.464, 212.151 L 858.154, 220.678 L 806.651, 198.849 z "/>
<path style="fill:rgb(0, 255, 0);fill-opacity:0;fill-rule:evenodd;stroke:rgb(255, 157, 0);stroke-width:1;" d="M 730.079, 317.374 L 737.412, 307.141 L 750.544, 312.769 L 749.691, 313.963 L 750.032, 314.986 L 752.249, 315.839 L 753.784, 315.668 L 754.637, 314.475 L 781.582, 325.73 L 774.078, 335.962 L 747.303, 324.536 L 747.986, 323.513 L 747.474, 322.49 L 745.257, 321.637 L 743.893, 321.808 L 743.21, 322.831 L 730.079, 317.374 z "/>
<path style="fill:rgb(0, 0, 255);fill-opacity:0;fill-rule:evenodd;stroke:rgb(255, 157, 0);stroke-width:1;" d="M 714.901, 338.179 L 722.405, 327.777 L 735.536, 333.234 L 734.683, 334.428 L 735.025, 335.451 L 737.412, 336.474 L 738.776, 336.133 L 739.629, 334.939 L 766.574, 346.365 L 759.071, 356.768 L 745.598, 350.97 L 747.133, 348.923 L 743.04, 347.218 L 741.676, 349.435 L 732.125, 345.342 L 732.808, 344.319 L 732.637, 342.955 L 730.249, 341.931 L 728.715, 342.614 L 728.032, 343.637 L 714.901, 338.179 z "/>
<path style="fill:rgb(255, 255, 0);fill-opacity:0;fill-rule:evenodd;stroke:rgb(255, 157, 0);stroke-width:1;" d="M 712.513, 302.707 L 719.164, 293.498 L 721.211, 294.351 L 722.575, 292.475 L 718.482, 290.77 L 724.792, 282.243 L 726.498, 281.902 L 729.738, 277.467 L 729.397, 275.762 L 736.559, 265.871 L 750.714, 271.84 L 743.381, 281.56 L 740.823, 282.243 L 737.753, 286.506 L 738.776, 288.041 L 732.466, 296.738 L 728.373, 295.033 L 727.18, 296.738 L 728.885, 297.591 L 722.234, 306.8 L 712.513, 302.707 z "/>
<path style="fill:rgb(255, 0, 0);fill-opacity:0;fill-rule:evenodd;stroke:rgb(255, 157, 0);stroke-width:1;" d="M 707.397, 348.412 L 714.901, 338.179 L 728.032, 343.637 L 727.35, 344.66 L 727.521, 345.854 L 729.908, 346.706 L 731.443, 346.365 L 732.125, 345.342 L 741.676, 349.435 L 745.598, 350.97 L 759.071, 356.768 L 751.567, 367.001 L 737.924, 361.202 L 739.288, 359.326 L 735.536, 357.621 L 734.172, 359.667 L 724.792, 355.745 L 726.156, 353.699 L 721.893, 351.823 L 720.358, 353.869 L 707.397, 348.412 z "/>
<path style="fill:rgb(0, 255, 0);fill-opacity:0;fill-rule:evenodd;stroke:rgb(255, 157, 0);stroke-width:1;" d="M 686.08, 290.428 L 693.754, 279.685 L 694.777, 279.173 L 693.072, 277.126 L 699.552, 268.088 L 702.622, 269.452 L 704.327, 267.065 L 701.258, 265.7 L 709.444, 254.445 L 723.598, 260.414 L 716.265, 270.305 L 715.242, 271.669 L 711.661, 270.134 L 709.955, 272.522 L 713.537, 274.057 L 711.661, 276.615 L 707.056, 283.095 L 703.645, 282.925 L 704.157, 284.119 L 696.312, 294.692 L 686.08, 290.428 z "/>
<path style="fill:rgb(0, 0, 255);fill-opacity:0;fill-rule:evenodd;stroke:rgb(255, 157, 0);stroke-width:1;" d="M 498.657, 621.616 L 500.533, 599.105 L 498.828, 599.105 L 499.68, 589.384 L 499.851, 587.337 L 518.781, 595.182 L 518.098, 603.027 L 515.54, 604.391 L 513.494, 627.585 L 498.657, 621.616 z "/>
<path style="fill:rgb(255, 255, 0);fill-opacity:0;fill-rule:evenodd;stroke:rgb(255, 157, 0);stroke-width:1;" d="M 424.813, 601.151 L 430.953, 592.454 L 430.271, 590.066 L 448.348, 565.167 L 461.479, 570.625 L 443.232, 595.523 L 440.162, 596.376 L 433.852, 604.903 L 424.813, 601.151 z "/>
<path style="fill:rgb(255, 0, 0);fill-opacity:0;fill-rule:evenodd;stroke:rgb(255, 157, 0);stroke-width:1;" d="M 914.944, 241.143 L 922.959, 230.228 L 931.145, 233.639 L 931.827, 235.685 L 940.183, 239.096 L 942.571, 238.414 L 946.323, 240.119 L 947.005, 241.995 L 967.981, 250.863 L 961.671, 259.22 L 940.865, 250.522 L 938.478, 251.034 L 934.556, 249.329 L 934.044, 247.623 L 925.517, 244.042 L 923.3, 244.724 L 914.944, 241.143 z "/>
<path style="fill:rgb(0, 255, 0);fill-opacity:0;fill-rule:evenodd;stroke:rgb(255, 157, 0);stroke-width:1;" d="M 257.003, 731.102 L 263.995, 721.381 L 279.343, 727.862 L 280.026, 730.079 L 292.987, 735.536 L 295.545, 734.854 L 309.358, 740.652 L 302.366, 750.373 L 257.003, 731.102 z "/>
<path style="fill:rgb(0, 0, 255);fill-opacity:0;fill-rule:evenodd;stroke:rgb(255, 157, 0);stroke-width:1;" d="M 907.099, 252.057 L 914.944, 241.143 L 923.3, 244.724 L 923.812, 246.6 L 932.168, 250.181 L 934.556, 249.329 L 938.478, 251.034 L 938.99, 252.91 L 959.966, 261.778 L 953.826, 270.134 L 932.85, 261.266 L 930.463, 261.948 L 926.711, 260.243 L 926.029, 258.538 L 917.672, 254.956 L 915.285, 255.638 L 907.099, 252.057 z "/>
<path style="fill:rgb(255, 255, 0);fill-opacity:0;fill-rule:evenodd;stroke:rgb(255, 157, 0);stroke-width:1;" d="M 819.783, 191.686 L 826.093, 183.159 L 845.875, 191.516 L 847.922, 191.345 L 851.503, 192.88 L 852.356, 194.244 L 859.859, 197.485 L 861.906, 197.143 L 872.138, 201.407 L 864.464, 212.151 L 854.914, 208.229 L 853.72, 206.012 L 846.216, 202.771 L 842.805, 202.942 L 840.247, 201.919 L 839.565, 200.043 L 819.783, 191.686 z "/>
<path style="fill:rgb(255, 0, 0);fill-opacity:0;fill-rule:evenodd;stroke:rgb(255, 157, 0);stroke-width:1;" d="M 700.917, 218.631 L 708.079, 208.74 L 710.467, 208.399 L 716.947, 199.531 L 716.265, 197.314 L 718.994, 193.733 L 721.381, 193.221 L 727.691, 184.524 L 738.435, 189.128 L 732.296, 197.826 L 732.466, 199.531 L 729.908, 203.112 L 727.691, 204.136 L 721.211, 212.833 L 721.552, 214.538 L 714.389, 224.259 L 700.917, 218.631 z "/>
<path style="fill:rgb(0, 255, 0);fill-opacity:0;fill-rule:evenodd;stroke:rgb(255, 157, 0);stroke-width:1;" d="M 698.87, 297.08 L 705.692, 287.87 L 707.568, 288.723 L 708.932, 286.847 L 705.351, 285.312 L 707.056, 283.095 L 711.661, 276.615 L 713.878, 276.615 L 716.947, 272.181 L 716.265, 270.305 L 723.598, 260.414 L 736.559, 265.871 L 729.397, 275.762 L 727.009, 276.444 L 723.939, 280.708 L 724.792, 282.243 L 718.482, 290.77 L 714.73, 289.235 L 713.366, 291.111 L 715.924, 292.134 L 709.103, 301.343 L 698.87, 297.08 z "/>
<path style="fill:rgb(0, 0, 255);fill-opacity:0;fill-rule:evenodd;stroke:rgb(255, 157, 0);stroke-width:1;" d="M 473.247, 668.514 L 478.704, 660.669 L 497.975, 668.344 L 500.703, 668.003 L 503.773, 669.196 L 504.967, 671.243 L 510.595, 673.46 L 512.982, 672.948 L 525.432, 678.064 L 517.587, 689.149 L 505.137, 684.033 L 504.796, 681.987 L 498.998, 679.599 L 496.611, 679.599 L 493.37, 678.235 L 492.347, 676.359 L 473.247, 668.514 z "/>
<path style="fill:rgb(255, 255, 0);fill-opacity:0;fill-rule:evenodd;stroke:rgb(255, 157, 0);stroke-width:1;" d="M 87.6572, 601.833 L 99.4244, 585.632 L 101.3, 586.485 L 105.564, 580.516 L 104.711, 580.175 L 104.2, 578.299 L 114.091, 564.485 L 122.106, 567.896 L 123.982, 568.237 L 125.176, 568.749 L 126.029, 569.772 L 126.199, 570.284 L 126.37, 571.307 L 126.199, 572.33 L 118.695, 582.562 L 115.626, 581.198 L 105.564, 595.012 L 106.758, 596.888 L 104.37, 600.128 L 101.983, 600.298 L 97.719, 606.097 L 87.6572, 601.833 z "/>
<path style="fill:rgb(255, 0, 0);fill-opacity:0;fill-rule:evenodd;stroke:rgb(255, 157, 0);stroke-width:1;" d="M 629.461, 127.563 L 635.6, 119.207 L 634.406, 117.161 L 636.794, 113.75 L 639.522, 113.75 L 641.74, 110.509 L 639.864, 109.657 L 643.274, 104.882 L 646.515, 106.246 L 649.243, 102.494 L 646.003, 101.13 L 653.336, 91.2385 L 666.809, 96.8663 L 659.476, 106.758 L 656.576, 105.564 L 653.848, 109.316 L 656.747, 110.509 L 653.336, 115.455 L 651.801, 114.773 L 649.414, 117.843 L 650.266, 119.548 L 648.391, 122.106 L 645.491, 123.3 L 639.352, 131.827 L 629.461, 127.563 z "/>
<path style="fill:rgb(0, 255, 0);fill-opacity:0;fill-rule:evenodd;stroke:rgb(255, 157, 0);stroke-width:1;" d="M 800.853, 206.864 L 806.651, 198.849 L 858.154, 220.678 L 852.356, 228.523 L 836.325, 221.872 L 833.255, 220.507 L 822.17, 215.903 L 800.853, 206.864 z "/>
<path style="fill:rgb(0, 0, 255);fill-opacity:0;fill-rule:evenodd;stroke:rgb(255, 157, 0);stroke-width:1;" d="M 874.867, 115.455 L 880.665, 107.44 L 900.789, 115.967 L 903.347, 115.626 L 906.587, 116.99 L 907.269, 118.695 L 915.626, 122.106 L 918.866, 121.765 L 927.734, 125.687 L 920.06, 136.09 L 909.316, 131.656 L 909.657, 130.122 L 901.471, 126.711 L 899.083, 127.222 L 895.843, 126.029 L 894.82, 123.982 L 874.867, 115.455 z "/>
<path style="fill:rgb(255, 255, 0);fill-opacity:0;fill-rule:evenodd;stroke:rgb(255, 157, 0);stroke-width:1;" d="M 802.729, 219.655 L 808.356, 212.151 L 819.271, 216.755 L 822.17, 215.903 L 833.255, 220.507 L 831.209, 223.407 L 834.278, 224.6 L 836.325, 221.872 L 852.356, 228.523 L 844.511, 239.437 L 828.48, 232.616 L 830.356, 230.058 L 827.286, 228.693 L 825.41, 231.251 L 814.325, 226.647 L 813.814, 224.259 L 802.729, 219.655 z "/>
<path style="fill:rgb(255, 0, 0);fill-opacity:0;fill-rule:evenodd;stroke:rgb(255, 157, 0);stroke-width:1;" d="M 687.444, 212.833 L 694.607, 203.112 L 696.994, 202.771 L 700.234, 198.337 L 703.475, 193.903 L 702.793, 191.686 L 705.521, 188.105 L 708.079, 187.593 L 714.389, 179.066 L 724.792, 183.33 L 718.482, 192.027 L 718.994, 193.733 L 716.265, 197.314 L 713.878, 198.337 L 707.397, 207.035 L 708.079, 208.74 L 700.917, 218.631 L 687.444, 212.833 z "/>
<path style="fill:rgb(0, 255, 0);fill-opacity:0;fill-rule:evenodd;stroke:rgb(255, 157, 0);stroke-width:1;" d="M 642.763, 133.191 L 648.902, 124.835 L 648.391, 122.106 L 650.266, 119.548 L 653.166, 119.548 L 655.383, 116.308 L 653.336, 115.455 L 656.747, 110.509 L 659.646, 111.703 L 662.375, 107.951 L 659.476, 106.758 L 666.809, 96.8663 L 680.111, 102.494 L 672.778, 112.385 L 669.878, 111.192 L 667.15, 114.944 L 670.22, 116.137 L 666.638, 120.912 L 665.103, 120.401 L 662.716, 123.47 L 663.569, 125.176 L 661.693, 127.734 L 658.793, 128.928 L 652.654, 137.284 L 642.763, 133.191 z "/>
<path style="fill:rgb(0, 0, 255);fill-opacity:0;fill-rule:evenodd;stroke:rgb(255, 157, 0);stroke-width:1;" d="M 673.801, 207.205 L 680.964, 197.314 L 683.863, 197.143 L 690.343, 188.446 L 689.32, 186.058 L 691.878, 182.477 L 694.948, 182.136 L 701.258, 173.438 L 711.32, 177.702 L 705.01, 186.229 L 705.521, 188.105 L 702.793, 191.686 L 700.576, 192.709 L 694.266, 201.577 L 694.607, 203.112 L 687.444, 212.833 L 673.801, 207.205 z "/>
<path style="fill:rgb(255, 255, 0);fill-opacity:0;fill-rule:evenodd;stroke:rgb(255, 157, 0);stroke-width:1;" d="M 596.205, 80.4946 L 598.252, 68.7274 L 639.522, 86.1224 L 632.36, 95.8431 L 611.725, 87.1456 L 596.205, 80.4946 z "/>
<path style="fill:rgb(255, 0, 0);fill-opacity:0;fill-rule:evenodd;stroke:rgb(255, 157, 0);stroke-width:1;" d="M 755.148, 241.313 L 764.016, 229.205 L 775.783, 213.004 L 788.744, 218.461 L 767.939, 246.77 L 755.148, 241.313 z "/>
<path style="fill:rgb(0, 255, 0);fill-opacity:0;fill-rule:evenodd;stroke:rgb(255, 157, 0);stroke-width:1;" d="M 607.632, 178.043 L 617.352, 164.741 L 619.058, 165.594 L 629.29, 151.609 L 633.213, 153.315 L 635.941, 149.563 L 642.933, 152.633 L 635.6, 162.865 L 634.065, 162.183 L 631.848, 165.082 L 633.895, 165.935 L 627.585, 174.803 L 621.104, 183.671 L 607.632, 178.043 z "/>
<path style="fill:rgb(0, 0, 255);fill-opacity:0;fill-rule:evenodd;stroke:rgb(255, 157, 0);stroke-width:1;" d="M 520.486, 623.151 L 522.874, 619.91 L 521.339, 619.228 L 524.067, 615.306 L 525.602, 615.818 L 527.819, 612.577 L 561.757, 626.391 L 554.423, 636.794 L 523.385, 624.344 L 520.486, 623.151 z "/>
<path style="fill:rgb(255, 255, 0);fill-opacity:0;fill-rule:evenodd;stroke:rgb(255, 157, 0);stroke-width:1;" d="M 594.33, 172.415 L 607.461, 154.509 L 608.996, 155.191 L 611.042, 152.633 L 609.337, 151.951 L 616.841, 141.548 L 624.003, 144.617 L 621.275, 148.199 L 625.368, 150.075 L 615.306, 163.888 L 617.352, 164.741 L 607.632, 178.043 L 594.33, 172.415 z "/>
<path style="fill:rgb(255, 0, 0);fill-opacity:0;fill-rule:evenodd;stroke:rgb(255, 157, 0);stroke-width:1;" d="M 158.431, 410.488 L 164.57, 402.132 L 209.593, 421.062 L 205.159, 427.372 L 195.268, 423.108 L 195.779, 422.426 L 191.004, 420.379 L 188.958, 423.279 L 158.431, 410.488 z "/>
<path style="fill:rgb(0, 255, 0);fill-opacity:0;fill-rule:evenodd;stroke:rgb(255, 157, 0);stroke-width:1;" d="M 580.175, 386.613 L 592.113, 370.241 L 593.477, 370.07 L 598.081, 363.931 L 596.888, 361.202 L 604.391, 350.97 L 615.135, 355.575 L 589.554, 390.535 L 580.175, 386.613 z "/>
<path style="fill:rgb(0, 0, 255);fill-opacity:0;fill-rule:evenodd;stroke:rgb(255, 157, 0);stroke-width:1;" d="M 573.012, 368.535 L 582.562, 355.233 L 579.493, 353.869 L 586.314, 344.319 L 586.826, 343.637 L 604.391, 350.97 L 596.888, 361.202 L 594.33, 360.179 L 584.609, 373.311 L 573.012, 368.535 z "/>
<path style="fill:rgb(255, 255, 0);fill-opacity:0;fill-rule:evenodd;stroke:rgb(255, 157, 0);stroke-width:1;" d="M 107.781, 670.22 L 118.525, 655.553 L 120.401, 656.406 L 130.122, 643.274 L 139.842, 647.367 L 130.122, 660.669 L 131.827, 661.352 L 129.269, 664.933 L 122.618, 673.971 L 121.083, 675.847 L 107.781, 670.22 z "/>
<path style="fill:rgb(255, 0, 0);fill-opacity:0;fill-rule:evenodd;stroke:rgb(255, 157, 0);stroke-width:1;" d="M 771.69, 319.761 L 775.272, 314.645 L 793.52, 289.746 L 804.434, 294.351 L 782.605, 324.366 L 771.69, 319.761 z "/>
<path style="fill:rgb(0, 255, 0);fill-opacity:0;fill-rule:evenodd;stroke:rgb(255, 157, 0);stroke-width:1;" d="M 138.307, 48.7742 L 148.028, 35.4722 L 154.85, 25.922 L 167.299, 31.2087 L 145.982, 60.5415 L 139.501, 57.8128 L 144.276, 51.1618 L 138.307, 48.7742 z "/>
<path style="fill:rgb(0, 0, 255);fill-opacity:0;fill-rule:evenodd;stroke:rgb(255, 157, 0);stroke-width:1;" d="M 176.338, 385.931 L 182.477, 377.404 L 211.469, 389.682 L 208.74, 393.434 L 215.05, 396.163 L 215.391, 395.651 L 225.624, 399.915 L 221.872, 405.031 L 176.338, 385.931 z "/>
<path style="fill:rgb(255, 255, 0);fill-opacity:0;fill-rule:evenodd;stroke:rgb(255, 157, 0);stroke-width:1;" d="M 216.073, 434.705 L 241.654, 399.403 L 248.987, 402.302 L 243.019, 410.659 L 241.995, 410.147 L 238.926, 414.24 L 242.848, 415.945 L 226.135, 438.968 L 223.577, 438.798 L 221.36, 438.286 L 220.166, 437.945 L 218.29, 436.922 L 216.585, 435.557 L 216.073, 434.705 z "/>
<path style="fill:rgb(255, 0, 0);fill-opacity:0;fill-rule:evenodd;stroke:rgb(255, 157, 0);stroke-width:1;" d="M 182.477, 377.404 L 188.275, 369.559 L 223.918, 384.566 L 233.98, 388.83 L 229.887, 394.457 L 213.174, 387.295 L 211.469, 389.682 L 182.477, 377.404 z "/>
<path style="fill:rgb(0, 255, 0);fill-opacity:0;fill-rule:evenodd;stroke:rgb(255, 157, 0);stroke-width:1;" d="M 518.61, 636.623 L 522.191, 631.507 L 519.292, 630.313 L 523.385, 624.344 L 554.423, 636.794 L 546.579, 647.879 L 530.718, 641.569 L 518.61, 636.623 z "/>
<path style="fill:rgb(0, 0, 255);fill-opacity:0;fill-rule:evenodd;stroke:rgb(255, 157, 0);stroke-width:1;" d="M 609.678, 398.721 L 635.088, 363.931 L 645.15, 368.365 L 637.817, 378.427 L 634.406, 379.279 L 630.313, 385.078 L 631.507, 386.954 L 625.368, 395.31 L 621.616, 395.822 L 617.011, 401.961 L 609.678, 398.721 z "/>
<path style="fill:rgb(255, 255, 0);fill-opacity:0;fill-rule:evenodd;stroke:rgb(255, 157, 0);stroke-width:1;" d="M 170.369, 394.116 L 176.338, 385.931 L 221.872, 405.031 L 217.949, 410.318 L 207.887, 406.054 L 208.058, 405.543 L 201.748, 402.814 L 199.19, 406.225 L 170.369, 394.116 z "/>
<path style="fill:rgb(255, 0, 0);fill-opacity:0;fill-rule:evenodd;stroke:rgb(255, 157, 0);stroke-width:1;" d="M 639.522, 403.667 L 640.716, 401.791 L 660.499, 374.675 L 672.096, 379.621 L 663.569, 391.217 L 661.181, 390.365 L 656.918, 396.333 L 659.135, 397.186 L 650.949, 408.442 L 639.522, 403.667 z "/>
<path style="fill:rgb(0, 255, 0);fill-opacity:0;fill-rule:evenodd;stroke:rgb(255, 157, 0);stroke-width:1;" d="M 589.554, 390.535 L 615.135, 355.575 L 625.027, 359.838 L 617.693, 370.07 L 614.283, 370.753 L 610.019, 376.551 L 611.384, 378.427 L 605.244, 386.783 L 602.174, 387.295 L 597.399, 393.775 L 589.554, 390.535 z "/>
<path style="fill:rgb(0, 0, 255);fill-opacity:0;fill-rule:evenodd;stroke:rgb(255, 157, 0);stroke-width:1;" d="M 63.4406, 171.051 L 67.8747, 164.912 L 87.9983, 136.943 L 98.7423, 141.377 L 82.3705, 164.059 L 77.2543, 162.012 L 73.673, 167.129 L 75.5489, 167.811 L 70.9444, 174.121 L 63.4406, 171.051 z "/>
<path style="fill:rgb(255, 255, 0);fill-opacity:0;fill-rule:evenodd;stroke:rgb(255, 157, 0);stroke-width:1;" d="M 602.345, 395.822 L 606.949, 389.512 L 605.244, 386.783 L 611.384, 378.427 L 613.942, 378.086 L 618.205, 372.458 L 617.693, 370.07 L 625.027, 359.838 L 635.088, 363.931 L 609.678, 398.721 L 602.345, 395.822 z "/>
<path style="fill:rgb(255, 0, 0);fill-opacity:0;fill-rule:evenodd;stroke:rgb(255, 157, 0);stroke-width:1;" d="M 215.562, 503.091 L 235.174, 475.975 L 245.918, 480.58 L 223.918, 511.106 L 217.779, 508.548 L 220.166, 504.967 L 215.562, 503.091 z "/>
<path style="fill:rgb(0, 255, 0);fill-opacity:0;fill-rule:evenodd;stroke:rgb(255, 157, 0);stroke-width:1;" d="M 202.26, 502.068 L 206.694, 495.928 L 224.43, 471.541 L 235.174, 475.975 L 215.562, 503.091 L 210.957, 501.045 L 208.399, 504.626 L 202.26, 502.068 z "/>
<path style="fill:rgb(0, 0, 255);fill-opacity:0;fill-rule:evenodd;stroke:rgb(255, 157, 0);stroke-width:1;" d="M 235.685, 442.891 L 261.266, 407.589 L 268.258, 410.488 L 259.049, 423.108 L 261.778, 424.131 L 245.236, 446.984 L 243.019, 446.813 L 239.778, 445.96 L 237.902, 444.937 L 235.685, 442.891 z "/>
<path style="fill:rgb(255, 255, 0);fill-opacity:0;fill-rule:evenodd;stroke:rgb(255, 157, 0);stroke-width:1;" d="M 164.57, 402.132 L 170.369, 394.116 L 199.19, 406.225 L 196.802, 409.635 L 203.112, 412.364 L 203.624, 411.682 L 213.515, 415.775 L 209.593, 421.062 L 164.57, 402.132 z "/>
<path style="fill:rgb(255, 0, 0);fill-opacity:0;fill-rule:evenodd;stroke:rgb(255, 157, 0);stroke-width:1;" d="M 206.694, 430.782 L 223.407, 407.76 L 225.794, 408.612 L 234.662, 396.333 L 241.654, 399.403 L 216.073, 434.705 L 213.686, 434.534 L 212.663, 434.364 L 211.639, 434.023 L 209.593, 433.17 L 207.887, 432.147 L 206.694, 430.782 z "/>
<path style="fill:rgb(0, 255, 0);fill-opacity:0;fill-rule:evenodd;stroke:rgb(255, 157, 0);stroke-width:1;" d="M 226.135, 438.968 L 242.848, 415.945 L 246.6, 417.48 L 249.499, 413.387 L 248.305, 412.876 L 254.274, 404.519 L 261.266, 407.589 L 235.685, 442.891 L 233.298, 442.891 L 232.275, 442.72 L 230.058, 442.038 L 229.034, 441.526 L 227.329, 440.333 L 226.135, 438.968 z "/>
<path style="fill:rgb(0, 0, 255);fill-opacity:0;fill-rule:evenodd;stroke:rgb(255, 157, 0);stroke-width:1;" d="M 145.982, 60.5415 L 167.299, 31.2087 L 179.066, 36.1543 L 162.695, 58.8361 L 156.726, 56.4485 L 151.951, 63.0996 L 145.982, 60.5415 z "/>
<path style="fill:rgb(255, 255, 0);fill-opacity:0;fill-rule:evenodd;stroke:rgb(255, 157, 0);stroke-width:1;" d="M 73.673, 233.468 L 89.0215, 212.151 L 94.8199, 204.306 L 100.959, 206.864 L 96.8663, 212.492 L 102.153, 214.709 L 85.0991, 238.243 L 73.673, 233.468 z "/>
<path style="fill:rgb(255, 0, 0);fill-opacity:0;fill-rule:evenodd;stroke:rgb(255, 157, 0);stroke-width:1;" d="M 185.206, 486.89 L 202.771, 462.503 L 213.515, 466.937 L 191.345, 497.804 L 185.376, 495.246 L 189.981, 488.936 L 185.206, 486.89 z "/>
<path style="fill:rgb(0, 255, 0);fill-opacity:0;fill-rule:evenodd;stroke:rgb(255, 157, 0);stroke-width:1;" d="M 191.345, 497.804 L 213.515, 466.937 L 224.43, 471.541 L 206.694, 495.928 L 201.577, 493.711 L 196.973, 500.192 L 191.345, 497.804 z "/>
<path style="fill:rgb(0, 0, 255);fill-opacity:0;fill-rule:evenodd;stroke:rgb(255, 157, 0);stroke-width:1;" d="M 117.672, 251.887 L 138.648, 222.895 L 148.881, 227.329 L 137.114, 243.701 L 128.075, 256.15 L 117.672, 251.887 z "/>
<path style="fill:rgb(255, 255, 0);fill-opacity:0;fill-rule:evenodd;stroke:rgb(255, 157, 0);stroke-width:1;" d="M 101.983, 186.229 L 109.657, 175.485 L 103.858, 173.097 L 120.23, 150.416 L 130.974, 154.85 L 110.509, 183.159 L 106.928, 188.275 L 101.983, 186.229 z "/>
<path style="fill:rgb(255, 0, 0);fill-opacity:0;fill-rule:evenodd;stroke:rgb(255, 157, 0);stroke-width:1;" d="M 106.587, 247.111 L 123.641, 223.577 L 128.757, 225.794 L 132.68, 220.507 L 138.648, 222.895 L 117.672, 251.887 L 106.587, 247.111 z "/>
<path style="fill:rgb(0, 255, 0);fill-opacity:0;fill-rule:evenodd;stroke:rgb(255, 157, 0);stroke-width:1;" d="M 230.74, 96.3547 L 252.228, 66.6809 L 263.142, 71.2854 L 254.615, 82.8821 L 246.6, 93.9672 L 242.166, 92.0912 L 237.22, 99.0834 L 230.74, 96.3547 z "/>
<path style="fill:rgb(0, 0, 255);fill-opacity:0;fill-rule:evenodd;stroke:rgb(255, 157, 0);stroke-width:1;" d="M 153.997, 201.577 L 158.772, 195.097 L 169.346, 180.26 L 174.291, 173.438 L 177.361, 174.632 L 179.237, 172.245 L 186.741, 175.485 L 168.663, 200.554 L 163.206, 198.167 L 159.113, 203.795 L 153.997, 201.577 z "/>
<path style="fill:rgb(255, 255, 0);fill-opacity:0;fill-rule:evenodd;stroke:rgb(255, 157, 0);stroke-width:1;" d="M 133.362, 442.208 L 138.819, 434.705 L 175.826, 450.053 L 175.826, 453.294 L 172.074, 458.41 L 163.206, 454.658 L 133.362, 442.208 z "/>
<path style="fill:rgb(255, 0, 0);fill-opacity:0;fill-rule:evenodd;stroke:rgb(255, 157, 0);stroke-width:1;" d="M 170.198, 488.766 L 177.873, 478.363 L 191.175, 459.945 L 192.368, 458.239 L 202.771, 462.503 L 185.206, 486.89 L 180.431, 484.843 L 175.826, 491.153 L 170.198, 488.766 z "/>
<path style="fill:rgb(0, 255, 0);fill-opacity:0;fill-rule:evenodd;stroke:rgb(255, 157, 0);stroke-width:1;" d="M 85.0991, 238.243 L 102.153, 214.709 L 107.781, 216.926 L 111.703, 211.469 L 116.99, 213.686 L 96.0136, 242.848 L 85.0991, 238.243 z "/>
<path style="fill:rgb(0, 0, 255);fill-opacity:0;fill-rule:evenodd;stroke:rgb(255, 157, 0);stroke-width:1;" d="M 168.322, 70.0917 L 189.64, 40.5884 L 200.554, 45.0224 L 184.012, 67.8747 L 179.407, 65.9987 L 174.462, 72.6498 L 168.322, 70.0917 z "/>
<path style="fill:rgb(255, 255, 0);fill-opacity:0;fill-rule:evenodd;stroke:rgb(255, 157, 0);stroke-width:1;" d="M 183.841, 76.4016 L 188.616, 69.7506 L 184.012, 67.8747 L 200.554, 45.0224 L 211.298, 49.6269 L 189.981, 78.9597 L 183.841, 76.4016 z "/>
<path style="fill:rgb(255, 0, 0);fill-opacity:0;fill-rule:evenodd;stroke:rgb(255, 157, 0);stroke-width:1;" d="M 162.012, 67.363 L 166.787, 60.712 L 162.695, 58.8361 L 179.066, 36.1543 L 189.64, 40.5884 L 168.322, 70.0917 L 162.012, 67.363 z "/>
<path style="fill:rgb(0, 255, 0);fill-opacity:0;fill-rule:evenodd;stroke:rgb(255, 157, 0);stroke-width:1;" d="M 141.718, 121.936 L 157.067, 100.789 L 162.183, 102.835 L 166.446, 96.8663 L 172.586, 99.4244 L 168.834, 104.711 L 160.648, 115.967 L 152.974, 126.711 L 149.051, 125.005 L 146.323, 126.029 L 141.889, 124.153 L 141.718, 121.936 z "/>
<path style="fill:rgb(0, 0, 255);fill-opacity:0;fill-rule:evenodd;stroke:rgb(255, 157, 0);stroke-width:1;" d="M 110.509, 183.159 L 130.974, 154.85 L 142.059, 159.454 L 135.238, 168.834 L 127.393, 179.748 L 125.517, 182.136 L 120.06, 179.919 L 115.967, 185.547 L 110.509, 183.159 z "/>
<path style="fill:rgb(255, 255, 0);fill-opacity:0;fill-rule:evenodd;stroke:rgb(255, 157, 0);stroke-width:1;" d="M 141.548, 542.997 L 158.09, 520.145 L 161.33, 519.463 L 168.152, 509.913 L 175.485, 512.982 L 172.245, 517.416 L 170.198, 516.564 L 166.617, 521.68 L 167.299, 523.897 L 150.757, 546.92 L 141.548, 542.997 z "/>
<path style="fill:rgb(255, 0, 0);fill-opacity:0;fill-rule:evenodd;stroke:rgb(255, 157, 0);stroke-width:1;" d="M 96.0136, 242.848 L 116.99, 213.686 L 122.618, 216.073 L 118.525, 221.531 L 123.641, 223.577 L 106.587, 247.111 L 96.0136, 242.848 z "/>
<path style="fill:rgb(0, 255, 0);fill-opacity:0;fill-rule:evenodd;stroke:rgb(255, 157, 0);stroke-width:1;" d="M 130.633, 117.331 L 145.982, 96.1842 L 151.78, 98.5717 L 156.214, 92.4323 L 161.501, 94.6493 L 157.067, 100.789 L 141.718, 121.936 L 137.114, 120.06 L 134.556, 121.083 L 130.633, 119.548 L 130.633, 117.331 z "/>
<path style="fill:rgb(0, 0, 255);fill-opacity:0;fill-rule:evenodd;stroke:rgb(255, 157, 0);stroke-width:1;" d="M 159.454, 550.501 L 183.5, 517.246 L 189.81, 519.974 L 182.477, 530.036 L 185.376, 531.23 L 169.346, 553.4 L 168.663, 554.423 L 159.454, 550.501 z "/>
<path style="fill:rgb(255, 255, 0);fill-opacity:0;fill-rule:evenodd;stroke:rgb(255, 157, 0);stroke-width:1;" d="M 189.981, 78.9597 L 211.298, 49.6269 L 221.531, 53.8904 L 205.159, 76.7427 L 200.895, 74.8668 L 196.12, 81.5178 L 189.981, 78.9597 z "/>
<path style="fill:rgb(255, 0, 0);fill-opacity:0;fill-rule:evenodd;stroke:rgb(255, 157, 0);stroke-width:1;" d="M 210.275, 87.8278 L 231.763, 58.1539 L 241.825, 62.4174 L 225.453, 85.0991 L 221.531, 83.5643 L 216.585, 90.3858 L 210.275, 87.8278 z "/>
<path style="fill:rgb(0, 255, 0);fill-opacity:0;fill-rule:evenodd;stroke:rgb(255, 157, 0);stroke-width:1;" d="M 753.613, 305.606 L 771.861, 280.708 L 782.776, 285.312 L 764.698, 310.211 L 753.613, 305.606 z "/>
<path style="fill:rgb(0, 0, 255);fill-opacity:0;fill-rule:evenodd;stroke:rgb(255, 157, 0);stroke-width:1;" d="M 89.1921, 173.95 L 109.486, 145.982 L 120.23, 150.416 L 103.858, 173.097 L 98.5717, 170.88 L 94.8199, 176.167 L 89.1921, 173.95 z "/>
<path style="fill:rgb(255, 255, 0);fill-opacity:0;fill-rule:evenodd;stroke:rgb(255, 157, 0);stroke-width:1;" d="M 204.136, 85.2697 L 209.081, 78.2776 L 205.159, 76.7427 L 221.531, 53.8904 L 231.763, 58.1539 L 210.275, 87.8278 L 204.136, 85.2697 z "/>
<path style="fill:rgb(255, 0, 0);fill-opacity:0;fill-rule:evenodd;stroke:rgb(255, 157, 0);stroke-width:1;" d="M 82.3705, 164.059 L 98.7423, 141.377 L 109.486, 145.982 L 89.1921, 173.95 L 84.0759, 171.733 L 87.9983, 166.446 L 82.3705, 164.059 z "/>
<path style="fill:rgb(0, 255, 0);fill-opacity:0;fill-rule:evenodd;stroke:rgb(255, 157, 0);stroke-width:1;" d="M 225.282, 93.9672 L 230.228, 87.1456 L 225.453, 85.0991 L 241.825, 62.4174 L 252.228, 66.6809 L 230.74, 96.3547 L 225.282, 93.9672 z "/>
<path style="fill:rgb(0, 0, 255);fill-opacity:0;fill-rule:evenodd;stroke:rgb(255, 157, 0);stroke-width:1;" d="M 108.804, 110.339 L 108.804, 108.292 L 124.153, 86.9751 L 130.292, 89.5331 L 132.68, 86.2929 L 134.044, 86.9751 L 136.261, 84.0759 L 139.672, 85.4402 L 135.238, 91.5796 L 119.889, 112.897 L 115.967, 111.192 L 113.238, 112.215 L 108.804, 110.339 z "/>
<path style="fill:rgb(255, 255, 0);fill-opacity:0;fill-rule:evenodd;stroke:rgb(255, 157, 0);stroke-width:1;" d="M 41.4411, 219.996 L 56.9601, 198.508 L 62.929, 201.066 L 67.363, 195.097 L 72.4792, 197.314 L 52.6967, 224.6 L 41.4411, 219.996 z "/>
<path style="fill:rgb(255, 0, 0);fill-opacity:0;fill-rule:evenodd;stroke:rgb(255, 157, 0);stroke-width:1;" d="M 119.889, 113.409 L 119.889, 112.897 L 135.238, 91.5796 L 140.865, 93.9672 L 145.47, 87.6572 L 150.586, 89.7037 L 145.982, 96.1842 L 130.633, 117.331 L 126.881, 115.796 L 125.517, 116.478 L 124.153, 116.649 L 122.618, 116.478 L 121.253, 115.967 L 120.742, 115.455 L 120.06, 114.602 L 119.889, 113.409 z "/>
<path style="fill:rgb(0, 255, 0);fill-opacity:0;fill-rule:evenodd;stroke:rgb(255, 157, 0);stroke-width:1;" d="M 178.384, 557.152 L 194.415, 534.982 L 197.314, 536.176 L 204.647, 525.943 L 210.616, 528.501 L 196.632, 547.943 L 185.888, 562.78 L 179.066, 560.051 L 180.431, 558.005 L 178.384, 557.152 z "/>
<path style="fill:rgb(0, 0, 255);fill-opacity:0;fill-rule:evenodd;stroke:rgb(255, 157, 0);stroke-width:1;" d="M 188.275, 369.559 L 194.415, 361.032 L 222.213, 372.799 L 218.973, 377.062 L 226.817, 380.473 L 223.918, 384.566 L 188.275, 369.559 z "/>
<path style="fill:rgb(255, 255, 0);fill-opacity:0;fill-rule:evenodd;stroke:rgb(255, 157, 0);stroke-width:1;" d="M 732.466, 296.738 L 738.776, 288.041 L 743.381, 281.56 L 750.714, 271.84 L 761.288, 276.274 L 743.21, 301.172 L 732.466, 296.738 z "/>
<path style="fill:rgb(255, 0, 0);fill-opacity:0;fill-rule:evenodd;stroke:rgb(255, 157, 0);stroke-width:1;" d="M 764.698, 310.211 L 782.776, 285.312 L 793.52, 289.746 L 775.272, 314.645 L 764.698, 310.211 z "/>
<path style="fill:rgb(0, 255, 0);fill-opacity:0;fill-rule:evenodd;stroke:rgb(255, 157, 0);stroke-width:1;" d="M 131.997, 540.951 L 157.067, 506.331 L 162.865, 508.889 L 155.532, 518.951 L 158.09, 520.145 L 141.548, 542.997 L 140.524, 542.656 L 139.501, 544.191 L 131.997, 540.951 z "/>
<path style="fill:rgb(0, 0, 255);fill-opacity:0;fill-rule:evenodd;stroke:rgb(255, 157, 0);stroke-width:1;" d="M 61.2236, 155.361 L 77.5954, 132.68 L 87.9983, 136.943 L 67.8747, 164.912 L 62.929, 162.865 L 66.6809, 157.578 L 61.2236, 155.361 z "/>
<path style="fill:rgb(255, 255, 0);fill-opacity:0;fill-rule:evenodd;stroke:rgb(255, 157, 0);stroke-width:1;" d="M 51.844, 225.965 L 52.0145, 225.624 L 52.6967, 224.6 L 72.4792, 197.314 L 76.9132, 199.19 L 72.4792, 205.329 L 78.4481, 207.717 L 63.0996, 229.034 L 59.6888, 227.67 L 59.0066, 228.011 L 57.6423, 228.523 L 55.9369, 228.693 L 54.2315, 228.352 L 52.8672, 227.67 L 52.0145, 226.647 L 51.844, 225.965 z "/>
<path style="fill:rgb(255, 0, 0);fill-opacity:0;fill-rule:evenodd;stroke:rgb(255, 157, 0);stroke-width:1;" d="M 743.21, 301.172 L 761.288, 276.274 L 771.861, 280.708 L 753.613, 305.606 L 743.21, 301.172 z "/>
<path style="fill:rgb(0, 255, 0);fill-opacity:0;fill-rule:evenodd;stroke:rgb(255, 157, 0);stroke-width:1;" d="M 194.415, 361.032 L 200.213, 353.016 L 216.926, 360.009 L 235.856, 368.024 L 233.127, 371.946 L 225.112, 368.706 L 222.213, 372.799 L 194.415, 361.032 z "/>
<path style="fill:rgb(0, 0, 255);fill-opacity:0;fill-rule:evenodd;stroke:rgb(255, 157, 0);stroke-width:1;" d="M 150.757, 546.92 L 167.299, 523.897 L 170.71, 525.261 L 178.043, 515.029 L 183.5, 517.246 L 159.454, 550.501 L 150.757, 546.92 z "/>
<path style="fill:rgb(255, 255, 0);fill-opacity:0;fill-rule:evenodd;stroke:rgb(255, 157, 0);stroke-width:1;" d="M 66.5103, 652.483 L 90.2153, 620.593 L 96.5253, 623.321 L 90.7269, 631.166 L 89.0215, 632.189 L 91.9207, 633.383 L 75.0373, 656.235 L 66.5103, 652.483 z "/>
<path style="fill:rgb(255, 0, 0);fill-opacity:0;fill-rule:evenodd;stroke:rgb(255, 157, 0);stroke-width:1;" d="M 75.0373, 656.235 L 91.9207, 633.383 L 95.1609, 634.918 L 95.1609, 633.554 L 101.3, 625.197 L 107.269, 627.755 L 83.5643, 659.817 L 75.0373, 656.235 z "/>
<path style="fill:rgb(0, 255, 0);fill-opacity:0;fill-rule:evenodd;stroke:rgb(255, 157, 0);stroke-width:1;" d="M 287.359, 396.674 L 291.622, 390.876 L 301.855, 376.892 L 308.847, 367.171 L 318.056, 371.094 L 300.49, 395.31 L 295.886, 393.264 L 291.963, 398.55 L 287.359, 396.674 z "/>
<path style="fill:rgb(0, 0, 255);fill-opacity:0;fill-rule:evenodd;stroke:rgb(255, 157, 0);stroke-width:1;" d="M 243.019, 369.218 L 259.22, 347.048 L 270.305, 351.652 L 262.972, 361.543 L 254.104, 373.822 L 243.019, 369.218 z "/>
<path style="fill:rgb(255, 255, 0);fill-opacity:0;fill-rule:evenodd;stroke:rgb(255, 157, 0);stroke-width:1;" d="M 99.4244, 666.638 L 123.129, 634.577 L 128.587, 636.964 L 122.788, 644.98 L 120.06, 646.515 L 122.106, 646.344 L 124.664, 647.367 L 118.525, 655.553 L 107.781, 670.22 L 99.4244, 666.638 z "/>
<path style="fill:rgb(255, 0, 0);fill-opacity:0;fill-rule:evenodd;stroke:rgb(255, 157, 0);stroke-width:1;" d="M 169.346, 553.4 L 185.376, 531.23 L 187.764, 531.23 L 192.027, 525.432 L 197.655, 527.819 L 193.392, 533.618 L 194.415, 534.982 L 178.384, 557.152 L 169.346, 553.4 z "/>
<path style="fill:rgb(0, 255, 0);fill-opacity:0;fill-rule:evenodd;stroke:rgb(255, 157, 0);stroke-width:1;" d="M 624.856, 106.758 L 640.205, 85.6107 L 653.336, 91.2385 L 646.003, 101.13 L 644.98, 102.665 L 641.057, 100.959 L 634.065, 110.68 L 624.856, 106.758 z "/>
<path style="fill:rgb(0, 0, 255);fill-opacity:0;fill-rule:evenodd;stroke:rgb(255, 157, 0);stroke-width:1;" d="M 63.0996, 229.034 L 78.4481, 207.717 L 89.0215, 212.151 L 73.673, 233.468 L 70.2622, 231.933 L 67.1925, 233.298 L 63.0996, 231.592 L 63.0996, 229.034 z "/>
<path style="fill:rgb(255, 255, 0);fill-opacity:0;fill-rule:evenodd;stroke:rgb(255, 157, 0);stroke-width:1;" d="M 123.47, 455.852 L 128.757, 448.689 L 158.602, 461.138 L 156.385, 464.208 L 160.989, 466.084 L 157.919, 470.177 L 157.919, 470.177 L 138.819, 462.332 L 123.47, 455.852 z "/>
<path style="fill:rgb(255, 0, 0);fill-opacity:0;fill-rule:evenodd;stroke:rgb(255, 157, 0);stroke-width:1;" d="M 91.5796, 663.227 L 108.463, 640.375 L 111.703, 641.91 L 111.362, 640.716 L 117.672, 632.189 L 123.129, 634.577 L 99.4244, 666.638 L 91.5796, 663.227 z "/>
<path style="fill:rgb(0, 255, 0);fill-opacity:0;fill-rule:evenodd;stroke:rgb(255, 157, 0);stroke-width:1;" d="M 300.49, 395.31 L 318.056, 371.094 L 326.753, 374.675 L 316.009, 389.512 L 305.265, 404.178 L 300.661, 402.302 L 304.583, 396.845 L 300.49, 395.31 z "/>
<path style="fill:rgb(0, 0, 255);fill-opacity:0;fill-rule:evenodd;stroke:rgb(255, 157, 0);stroke-width:1;" d="M 83.5643, 659.817 L 107.269, 627.755 L 112.385, 629.972 L 106.075, 638.67 L 104.882, 639.011 L 108.463, 640.375 L 91.5796, 663.227 L 83.5643, 659.817 z "/>
<path style="fill:rgb(255, 255, 0);fill-opacity:0;fill-rule:evenodd;stroke:rgb(255, 157, 0);stroke-width:1;" d="M 138.137, 605.415 L 153.656, 583.756 L 154.679, 583.756 L 156.726, 583.927 L 158.772, 584.438 L 161.501, 585.803 L 162.183, 586.485 L 163.206, 587.849 L 147.687, 609.337 L 138.137, 605.415 z "/>
<path style="fill:rgb(255, 0, 0);fill-opacity:0;fill-rule:evenodd;stroke:rgb(255, 157, 0);stroke-width:1;" d="M 110.509, 593.988 L 118.695, 582.562 L 126.199, 572.33 L 129.098, 572.501 L 131.145, 573.012 L 133.703, 574.376 L 135.579, 576.252 L 120.06, 597.911 L 110.509, 593.988 z "/>
<path style="fill:rgb(0, 255, 0);fill-opacity:0;fill-rule:evenodd;stroke:rgb(255, 157, 0);stroke-width:1;" d="M 166.787, 473.758 L 180.09, 455.34 L 191.175, 459.945 L 177.873, 478.363 L 169.857, 474.952 L 166.787, 473.758 z "/>
<path style="fill:rgb(0, 0, 255);fill-opacity:0;fill-rule:evenodd;stroke:rgb(255, 157, 0);stroke-width:1;" d="M 128.928, 601.663 L 144.447, 580.004 L 146.664, 580.004 L 148.881, 580.516 L 149.904, 580.857 L 151.609, 581.88 L 152.462, 582.392 L 153.656, 583.756 L 138.137, 605.415 L 128.928, 601.663 z "/>
<path style="fill:rgb(255, 255, 0);fill-opacity:0;fill-rule:evenodd;stroke:rgb(255, 157, 0);stroke-width:1;" d="M 120.06, 597.911 L 135.579, 576.252 L 137.455, 576.082 L 138.307, 576.082 L 140.183, 576.252 L 141.036, 576.593 L 142.571, 577.446 L 143.253, 578.128 L 143.765, 578.64 L 144.447, 580.004 L 128.928, 601.663 L 120.06, 597.911 z "/>
<path style="fill:rgb(255, 0, 0);fill-opacity:0;fill-rule:evenodd;stroke:rgb(255, 157, 0);stroke-width:1;" d="M 297.762, 327.606 L 312.94, 306.8 L 322.319, 310.723 L 307.141, 331.528 L 297.762, 327.606 z "/>
<path style="fill:rgb(0, 255, 0);fill-opacity:0;fill-rule:evenodd;stroke:rgb(255, 157, 0);stroke-width:1;" d="M 147.687, 609.337 L 163.206, 587.849 L 165.594, 587.849 L 167.811, 588.531 L 168.834, 588.872 L 170.539, 590.066 L 172.074, 591.43 L 156.385, 613.089 L 147.687, 609.337 z "/>
<path style="fill:rgb(0, 0, 255);fill-opacity:0;fill-rule:evenodd;stroke:rgb(255, 157, 0);stroke-width:1;" d="M 334.598, 342.955 L 349.606, 322.149 L 358.985, 325.901 L 354.04, 332.893 L 343.978, 346.877 L 334.598, 342.955 z "/>
<path style="fill:rgb(255, 255, 0);fill-opacity:0;fill-rule:evenodd;stroke:rgb(255, 157, 0);stroke-width:1;" d="M 325.219, 339.032 L 340.226, 318.226 L 349.606, 322.149 L 334.598, 342.955 L 325.219, 339.032 z "/>
<path style="fill:rgb(255, 0, 0);fill-opacity:0;fill-rule:evenodd;stroke:rgb(255, 157, 0);stroke-width:1;" d="M 288.553, 323.854 L 303.731, 303.048 L 312.94, 306.8 L 297.762, 327.606 L 288.553, 323.854 z "/>
<path style="fill:rgb(0, 255, 0);fill-opacity:0;fill-rule:evenodd;stroke:rgb(255, 157, 0);stroke-width:1;" d="M 128.757, 448.689 L 133.362, 442.208 L 163.206, 454.658 L 158.602, 461.138 L 128.757, 448.689 z "/>
<path style="fill:rgb(0, 0, 255);fill-opacity:0;fill-rule:evenodd;stroke:rgb(255, 157, 0);stroke-width:1;" d="M 316.18, 335.28 L 331.187, 314.475 L 340.226, 318.226 L 325.219, 339.032 L 316.18, 335.28 z "/>
<path style="fill:rgb(255, 255, 0);fill-opacity:0;fill-rule:evenodd;stroke:rgb(255, 157, 0);stroke-width:1;" d="M 307.141, 331.528 L 322.319, 310.723 L 331.187, 314.475 L 316.18, 335.28 L 307.141, 331.528 z "/>
<path style="fill:rgb(255, 0, 0);fill-opacity:0;fill-rule:evenodd;stroke:rgb(255, 157, 0);stroke-width:1;" d="M 156.385, 613.089 L 172.074, 591.43 L 175.485, 592.965 L 176.167, 592.454 L 177.361, 592.283 L 178.725, 592.454 L 179.748, 592.795 L 180.942, 593.988 L 164.57, 616.5 L 156.385, 613.089 z "/>
<path style="fill:rgb(0, 255, 0);fill-opacity:0;fill-rule:evenodd;stroke:rgb(255, 157, 0);stroke-width:1;" d="M 829.844, 364.443 L 835.984, 355.575 L 847.069, 360.009 L 840.929, 368.877 L 829.844, 364.443 z "/>
<path style="fill:rgb(0, 0, 255);fill-opacity:0;fill-rule:evenodd;stroke:rgb(255, 157, 0);stroke-width:1;" d="M 254.104, 545.385 L 256.15, 542.486 L 280.878, 552.718 L 281.219, 553.741 L 279.514, 555.958 L 254.104, 545.385 z "/>
<path style="fill:rgb(255, 255, 0);fill-opacity:0;fill-rule:evenodd;stroke:rgb(255, 157, 0);stroke-width:1;" d="M 583.756, 154.85 L 585.632, 143.765 L 594.5, 147.517 L 587.849, 156.555 L 583.756, 154.85 z "/>
<path style="fill:rgb(255, 0, 0);fill-opacity:0;fill-rule:evenodd;stroke:rgb(255, 157, 0);stroke-width:1;" d="M 2.04647, 623.662 L 2.38755, 622.127 L 25.0693, 591.601 L 25.922, 590.748 L 26.9452, 590.578 L 27.4568, 590.578 L 79.3008, 612.748 L 82.8821, 607.973 L 85.2697, 608.825 L 86.4634, 607.291 L 95.1609, 611.042 L 93.9672, 612.577 L 95.502, 613.259 L 90.2153, 620.593 L 66.5103, 652.483 L 2.72863, 625.368 L 2.21701, 624.344 L 2.04647, 623.662 z "/>
<path style="fill:rgb(0, 255, 0);fill-opacity:0;fill-rule:evenodd;stroke:rgb(255, 157, 0);stroke-width:1;" d="M 29.3328, 585.632 L 60.5415, 542.315 L 114.091, 564.485 L 104.2, 578.299 L 101.983, 581.369 L 100.448, 582.051 L 99.4244, 582.051 L 98.5717, 582.051 L 97.2074, 581.369 L 96.6958, 580.857 L 96.3547, 580.175 L 80.1535, 602.686 L 65.4871, 596.547 L 75.5489, 582.392 L 75.2078, 580.345 L 78.7892, 575.4 L 79.9829, 572.501 L 77.7659, 572.501 L 74.8668, 571.307 L 74.5257, 569.942 L 70.6033, 570.454 L 52.6967, 595.353 L 29.3328, 585.632 z "/>
<path style="fill:rgb(0, 0, 255);fill-opacity:0;fill-rule:evenodd;stroke:rgb(255, 157, 0);stroke-width:1;" d="M 30.5265, 686.762 L 40.2473, 673.63 L 157.237, 723.428 L 145.982, 738.776 L 145.811, 738.606 L 147.005, 737.071 L 93.9672, 714.389 L 63.6112, 701.428 L 63.9522, 701.087 L 30.5265, 686.762 z "/>
<path style="fill:rgb(255, 255, 0);fill-opacity:0;fill-rule:evenodd;stroke:rgb(255, 157, 0);stroke-width:1;" d="M 0, 142.741 L 25.5809, 107.44 L 73.8435, 127.563 L 68.3863, 135.067 L 56.6191, 151.609 L 42.2938, 145.641 L 43.6581, 143.594 L 39.5651, 141.889 L 29.8444, 155.361 L 0, 142.741 z "/>
<path style="fill:rgb(255, 0, 0);fill-opacity:0;fill-rule:evenodd;stroke:rgb(255, 157, 0);stroke-width:1;" d="M 25.2398, 300.831 L 33.4257, 289.746 L 25.7514, 286.506 L 45.0224, 259.902 L 85.4402, 276.785 L 65.9987, 303.56 L 55.2547, 299.126 L 47.2394, 310.041 L 25.2398, 300.831 z "/>
<path style="fill:rgb(0, 255, 0);fill-opacity:0;fill-rule:evenodd;stroke:rgb(255, 157, 0);stroke-width:1;" d="M 15.6896, 423.79 L 22.8523, 413.728 L 34.9606, 418.845 L 70.0917, 433.682 L 62.929, 443.573 L 34.9606, 431.806 L 15.6896, 423.79 z "/>
<path style="fill:rgb(0, 0, 255);fill-opacity:0;fill-rule:evenodd;stroke:rgb(255, 157, 0);stroke-width:1;" d="M 28.6506, 354.722 L 39.224, 339.885 L 40.4178, 340.397 L 49.2859, 328.288 L 58.6655, 332.211 L 56.278, 335.621 L 46.7278, 348.582 L 39.0535, 359.156 L 34.79, 357.28 L 32.0614, 358.133 L 28.9917, 356.939 L 28.6506, 354.722 z "/>
<path style="fill:rgb(255, 255, 0);fill-opacity:0;fill-rule:evenodd;stroke:rgb(255, 157, 0);stroke-width:1;" d="M 30.5265, 216.073 L 30.6971, 215.562 L 46.2162, 194.074 L 51.844, 196.461 L 56.9601, 198.508 L 41.4411, 219.996 L 38.0303, 218.631 L 37.007, 219.314 L 35.6427, 219.655 L 34.1079, 219.825 L 32.7436, 219.314 L 31.5498, 218.631 L 30.8676, 217.779 L 30.6971, 217.267 L 30.5265, 216.073 z "/>
<path style="fill:rgb(255, 0, 0);fill-opacity:0;fill-rule:evenodd;stroke:rgb(255, 157, 0);stroke-width:1;" d="M 827.286, 44.1697 L 835.643, 32.7436 L 839.736, 34.4489 L 851.332, 18.2477 L 852.356, 16.2012 L 856.96, 15.3485 L 869.58, 20.6353 L 860.541, 32.9141 L 861.906, 35.8133 L 860.712, 36.4954 L 858.324, 39.9062 L 861.565, 41.2705 L 863.1, 39.224 L 863.952, 36.666 L 867.704, 35.9838 L 876.743, 23.8755 L 891.75, 30.1855 L 882.882, 42.4643 L 884.417, 45.0224 L 883.223, 46.0456 L 880.836, 49.2859 L 883.735, 50.4796 L 886.122, 47.2394 L 886.293, 45.8751 L 890.727, 45.7045 L 899.595, 33.5962 L 911.874, 38.7124 L 913.238, 41.4411 L 899.766, 59.6888 L 903.517, 61.2236 L 899.936, 66.1693 L 895.331, 72.4792 L 891.58, 70.9444 L 887.998, 76.0605 L 873.161, 69.7506 L 881.688, 57.9834 L 874.526, 54.9137 L 865.828, 66.6809 L 849.968, 59.8593 L 857.301, 49.968 L 855.596, 49.2859 L 854.743, 47.2394 L 851.162, 45.534 L 842.805, 56.9601 L 827.798, 50.6502 L 831.209, 45.8751 L 827.286, 44.1697 z "/>
<path style="fill:rgb(0, 255, 0);fill-opacity:0;fill-rule:evenodd;stroke:rgb(255, 157, 0);stroke-width:1;" d="M 297.08, 48.9448 L 307.482, 34.79 L 329.823, 44.1697 L 337.668, 33.5962 L 315.498, 24.046 L 321.467, 15.8602 L 326.071, 9.89128 L 365.636, 26.7747 L 336.645, 65.8282 L 297.08, 48.9448 z "/>
<path style="fill:rgb(0, 0, 255);fill-opacity:0;fill-rule:evenodd;stroke:rgb(255, 157, 0);stroke-width:1;" d="M 83.7348, 27.7979 L 103.858, 0 L 157.408, 22.3407 L 154.85, 25.922 L 148.028, 35.4722 L 144.447, 33.9373 L 140.695, 34.1079 L 137.625, 38.2008 L 138.99, 38.883 L 134.726, 44.6813 L 116.308, 37.007 L 121.936, 29.5033 L 117.331, 27.4568 L 116.478, 28.8211 L 109.827, 26.0925 L 106.928, 30.0149 L 107.781, 30.356 L 103.688, 36.1543 L 83.7348, 27.7979 z "/>
<path style="fill:rgb(255, 255, 0);fill-opacity:0;fill-rule:evenodd;stroke:rgb(255, 157, 0);stroke-width:1;" d="M 436.751, 26.4336 L 451.588, 5.45726 L 506.843, 28.3095 L 507.013, 50.3091 L 504.967, 54.402 L 490.301, 48.4332 L 489.789, 45.8751 L 485.696, 46.5572 L 474.27, 41.9527 L 478.874, 35.3016 L 465.231, 29.6738 L 460.627, 36.1543 L 449.201, 31.5498 L 448.518, 28.8211 L 444.425, 29.6738 L 436.751, 26.4336 z "/>
<path style="fill:rgb(255, 0, 0);fill-opacity:0;fill-rule:evenodd;stroke:rgb(255, 157, 0);stroke-width:1;" d="M 696.994, 55.2547 L 705.18, 44.1697 L 707.909, 45.3635 L 707.227, 43.9991 L 718.653, 28.3095 L 721.893, 27.7979 L 720.699, 26.6041 L 725.815, 19.4415 L 739.629, 25.2398 L 734.342, 32.4025 L 732.466, 32.2319 L 733.49, 34.6195 L 722.064, 50.3091 L 720.87, 50.8207 L 722.405, 51.5029 L 714.389, 62.5879 L 696.994, 55.2547 z "/>
<path style="fill:rgb(0, 255, 0);fill-opacity:0;fill-rule:evenodd;stroke:rgb(255, 157, 0);stroke-width:1;" d="M 288.041, 43.1465 L 306.63, 17.9066 L 310.211, 19.4415 L 314.986, 12.961 L 321.467, 15.8602 L 315.498, 24.046 L 307.482, 34.79 L 297.08, 48.9448 L 289.405, 45.534 L 290.428, 44.1697 L 288.041, 43.1465 z "/>
</svg>