<?xml version="1.0" encoding="iso-8859-1" standalone="no"?>
<!DOCTYPE svg PUBLIC "-//W3C//DTD SVG 1.0//EN" "http://www.w3.org/TR/2001/REC-SVG-20010904/DTD/svg10.dtd">
<svg xmlns="http://www.w3.org/2000/svg" width="1005" height="800">
<path style="fill:rgb(255, 0, 0);fill-opacity:0;fill-rule:evenodd;stroke:rgb(255, 0, 162);stroke-width:1;" d="M 764.84, 395.446 L 808.896, 308.393 L 837.066, 264.337 L 867.567, 269.844 L 873.074, 270.691 L 847.445, 311.146 L 825.841, 352.449 L 801.906, 404.766 L 764.84, 395.446 z "/>
<path style="fill:rgb(0, 255, 0);fill-opacity:0;fill-rule:evenodd;stroke:rgb(255, 0, 162);stroke-width:1;" d="M 726.503, 574.212 L 732.645, 564.046 L 729.256, 563.41 L 735.61, 552.396 L 738.787, 553.455 L 744.506, 543.077 L 749.378, 544.559 L 747.472, 547.524 L 763.781, 553.032 L 779.243, 548.584 L 801.906, 594.546 L 804.66, 593.911 L 805.719, 596.24 L 803.177, 597.088 L 826.052, 643.474 L 788.562, 654.276 L 786.444, 649.616 L 784.326, 650.252 L 751.072, 582.685 L 726.503, 574.212 z "/>
<path style="fill:rgb(0, 0, 255);fill-opacity:0;fill-rule:evenodd;stroke:rgb(255, 0, 162);stroke-width:1;" d="M 726.291, 489.277 L 747.048, 440.349 L 816.733, 456.235 L 795.976, 508.975 L 761.027, 501.138 L 762.51, 497.538 L 741.753, 492.878 L 726.291, 489.277 z M 774.159, 470.003 L 774.795, 470.214 L 785.173, 472.544 L 788.986, 463.013 L 777.972, 460.471 L 774.159, 470.003 z "/>
<path style="fill:rgb(255, 255, 0);fill-opacity:0;fill-rule:evenodd;stroke:rgb(255, 0, 162);stroke-width:1;" d="M 915.647, 707.652 L 962.033, 702.568 L 967.329, 730.95 L 929.415, 734.975 L 921.154, 735.822 L 915.647, 707.652 z "/>
<path style="fill:rgb(255, 0, 0);fill-opacity:0;fill-rule:evenodd;stroke:rgb(255, 0, 162);stroke-width:1;" d="M 556.844, 638.178 L 575.695, 606.407 L 608.737, 617.421 L 589.886, 649.404 L 556.844, 638.178 z "/>
<path style="fill:rgb(0, 255, 0);fill-opacity:0;fill-rule:evenodd;stroke:rgb(255, 0, 162);stroke-width:1;" d="M 936.193, 794.069 L 955.255, 780.725 L 978.554, 747.683 L 989.78, 798.306 L 989.145, 798.729 L 986.815, 800 L 936.193, 794.069 z "/>
<path style="fill:rgb(0, 0, 255);fill-opacity:0;fill-rule:evenodd;stroke:rgb(255, 0, 162);stroke-width:1;" d="M 904.21, 791.104 L 912.47, 751.92 L 936.193, 754.885 L 930.262, 782.632 L 929.415, 786.444 L 926.026, 786.021 L 924.755, 791.528 L 917.765, 790.68 L 917.342, 792.799 L 904.21, 791.104 z "/>
<path style="fill:rgb(255, 255, 0);fill-opacity:0;fill-rule:evenodd;stroke:rgb(255, 0, 162);stroke-width:1;" d="M 583.108, 594.546 L 601.112, 564.469 L 618.268, 570.4 L 600.477, 600.477 L 583.108, 594.546 z "/>
<path style="fill:rgb(255, 0, 0);fill-opacity:0;fill-rule:evenodd;stroke:rgb(255, 0, 162);stroke-width:1;" d="M 948.689, 336.352 L 956.738, 323.219 L 968.176, 327.456 L 966.481, 330.209 L 997.194, 341.223 L 993.381, 347.577 L 989.992, 346.307 L 987.45, 350.331 L 964.999, 342.282 L 966.058, 340.376 L 963.728, 339.529 L 962.669, 341.435 L 953.561, 338.046 L 948.689, 336.352 z "/>
<path style="fill:rgb(0, 255, 0);fill-opacity:0;fill-rule:evenodd;stroke:rgb(255, 0, 162);stroke-width:1;" d="M 867.779, 782.844 L 874.768, 751.072 L 891.289, 753.19 L 884.512, 784.326 L 876.463, 783.267 L 874.557, 784.962 L 870.532, 784.538 L 867.779, 782.844 z "/>
<path style="fill:rgb(0, 0, 255);fill-opacity:0;fill-rule:evenodd;stroke:rgb(255, 0, 162);stroke-width:1;" d="M 956.738, 323.219 L 964.575, 310.511 L 1004.4, 324.914 L 1002.49, 327.879 L 1005.03, 328.727 L 1000.79, 335.716 L 970.082, 324.49 L 968.176, 327.456 L 956.738, 323.219 z "/>
<path style="fill:rgb(255, 255, 0);fill-opacity:0;fill-rule:evenodd;stroke:rgb(255, 0, 162);stroke-width:1;" d="M 884.3, 785.597 L 884.512, 784.326 L 891.289, 753.19 L 907.175, 755.097 L 900.185, 787.292 L 897.22, 788.351 L 892.984, 787.927 L 890.866, 786.444 L 884.3, 785.597 z "/>
<path style="fill:rgb(255, 0, 0);fill-opacity:0;fill-rule:evenodd;stroke:rgb(255, 0, 162);stroke-width:1;" d="M 937.675, 365.158 L 946.148, 351.602 L 982.367, 364.522 L 975.589, 375.536 L 953.349, 367.487 L 951.655, 370.241 L 939.793, 366.005 L 937.675, 365.158 z "/>
<path style="fill:rgb(0, 255, 0);fill-opacity:0;fill-rule:evenodd;stroke:rgb(255, 0, 162);stroke-width:1;" d="M 932.168, 378.29 L 939.793, 366.005 L 951.655, 370.241 L 950.596, 371.724 L 972.836, 379.772 L 966.058, 390.575 L 932.168, 378.29 z "/>
<path style="fill:rgb(0, 0, 255);fill-opacity:0;fill-rule:evenodd;stroke:rgb(255, 0, 162);stroke-width:1;" d="M 946.995, 349.06 L 953.561, 338.046 L 962.669, 341.435 L 964.999, 342.282 L 987.45, 350.331 L 990.839, 351.39 L 987.239, 357.321 L 982.155, 355.626 L 979.19, 360.498 L 946.995, 349.06 z "/>
<path style="fill:rgb(255, 255, 0);fill-opacity:0;fill-rule:evenodd;stroke:rgb(255, 0, 162);stroke-width:1;" d="M 837.066, 264.337 L 845.539, 251.416 L 871.591, 255.441 L 867.567, 269.844 L 837.066, 264.337 z "/>
<path style="fill:rgb(255, 0, 0);fill-opacity:0;fill-rule:evenodd;stroke:rgb(255, 0, 162);stroke-width:1;" d="M 0, 14.6148 L 2.5417, 0 L 27.7469, 2.5417 L 25.6288, 13.9793 L 25.2052, 17.1565 L 0, 14.6148 z "/>
<path style="fill:rgb(0, 255, 0);fill-opacity:0;fill-rule:evenodd;stroke:rgb(255, 0, 162);stroke-width:1;" d="M 939.158, 756.367 L 941.7, 744.083 L 956.95, 745.989 L 956.103, 750.013 L 954.408, 758.062 L 939.158, 756.367 z "/>
<path style="fill:rgb(0, 0, 255);fill-opacity:0;fill-rule:evenodd;stroke:rgb(255, 0, 162);stroke-width:1;" d="M 443.95, 449.881 L 451.152, 432.301 L 458.989, 434.207 L 451.575, 451.787 L 443.95, 449.881 z "/>
</svg>