<?xml version="1.0" encoding="iso-8859-1" standalone="no"?>
<!DOCTYPE svg PUBLIC "-//W3C//DTD SVG 1.0//EN" "http://www.w3.org/TR/2001/REC-SVG-20010904/DTD/svg10.dtd">
<svg xmlns="http://www.w3.org/2000/svg" width="1053" height="800">
<path style="fill:rgb(255, 0, 0);fill-opacity:0;fill-rule:evenodd;stroke:rgb(255, 0, 107);stroke-width:1;" d="M 312.823, 697.961 L 348.165, 649.751 L 405.437, 674.037 L 409.062, 668.962 L 434.073, 634.708 L 576.71, 694.88 L 512.913, 782.42 L 312.823, 697.961 z "/>
<path style="fill:rgb(0, 255, 0);fill-opacity:0;fill-rule:evenodd;stroke:rgb(255, 0, 107);stroke-width:1;" d="M 602.809, 353.783 L 641.595, 313.367 L 643.407, 314.273 L 679.293, 273.856 L 727.685, 293.611 L 721.16, 303.942 L 700.136, 337.29 L 665.156, 322.972 L 653.194, 339.647 L 745.265, 377.526 L 725.872, 404.712 L 602.809, 353.783 z "/>
<path style="fill:rgb(0, 0, 255);fill-opacity:0;fill-rule:evenodd;stroke:rgb(255, 0, 107);stroke-width:1;" d="M 208.79, 482.646 L 227.458, 457.091 L 271.681, 396.375 L 297.78, 407.431 L 328.228, 420.118 L 281.106, 485.002 L 265.519, 506.389 L 208.79, 482.646 z "/>
<path style="fill:rgb(255, 255, 0);fill-opacity:0;fill-rule:evenodd;stroke:rgb(255, 0, 107);stroke-width:1;" d="M 895.696, 772.27 L 927.05, 728.953 L 898.233, 716.991 L 903.851, 709.017 L 905.301, 709.742 L 906.389, 708.292 L 907.657, 705.573 L 910.376, 700.317 L 912.007, 697.599 L 915.632, 692.705 L 919.801, 687.993 L 924.513, 683.462 L 924.332, 680.924 L 929.406, 673.856 L 1014.95, 709.56 L 1010.78, 715.179 L 983.779, 752.696 L 964.93, 744.721 L 954.961, 740.734 L 947.712, 737.653 L 937.744, 751.609 L 944.812, 754.69 L 923.788, 783.87 L 895.696, 772.27 z "/>
<path style="fill:rgb(255, 0, 0);fill-opacity:0;fill-rule:evenodd;stroke:rgb(255, 0, 107);stroke-width:1;" d="M 378.795, 406.706 L 387.313, 394.925 L 410.15, 404.531 L 423.743, 391.119 L 421.568, 389.85 L 424.105, 387.494 L 426.28, 388.582 L 432.805, 382.238 L 430.992, 381.151 L 433.711, 378.795 L 435.705, 379.882 L 440.779, 374.989 L 438.423, 373.539 L 445.854, 366.289 L 448.21, 367.739 L 467.966, 348.527 L 456.91, 343.996 L 455.46, 345.809 L 444.042, 340.915 L 455.279, 325.51 L 477.934, 335.116 L 519.801, 352.696 L 439.692, 432.261 L 378.795, 406.706 z "/>
<path style="fill:rgb(0, 255, 0);fill-opacity:0;fill-rule:evenodd;stroke:rgb(255, 0, 107);stroke-width:1;" d="M 795.106, 730.403 L 857.635, 643.77 L 921.976, 670.594 L 895.152, 707.748 L 858.541, 692.343 L 844.585, 711.735 L 822.655, 741.821 L 795.106, 730.403 z "/>
<path style="fill:rgb(0, 0, 255);fill-opacity:0;fill-rule:evenodd;stroke:rgb(255, 0, 107);stroke-width:1;" d="M 104.395, 525.238 L 119.619, 503.851 L 204.259, 538.831 L 192.478, 555.324 L 170.729, 585.954 L 164.205, 595.016 L 104.395, 525.238 z "/>
<path style="fill:rgb(255, 255, 0);fill-opacity:0;fill-rule:evenodd;stroke:rgb(255, 0, 107);stroke-width:1;" d="M 817.399, 137.562 L 860.897, 78.2963 L 865.972, 80.4712 L 868.328, 77.2089 L 866.697, 76.4839 L 878.478, 60.5347 L 909.47, 73.7653 L 864.522, 135.025 L 863.253, 134.481 L 861.985, 136.294 L 884.64, 145.899 L 868.147, 168.373 L 831.355, 152.787 L 837.336, 144.449 L 833.892, 143 L 832.986, 144.268 L 817.399, 137.562 z "/>
<path style="fill:rgb(255, 0, 0);fill-opacity:0;fill-rule:evenodd;stroke:rgb(255, 0, 107);stroke-width:1;" d="M 883.552, 174.717 L 899.683, 152.605 L 922.338, 162.211 L 923.969, 160.217 L 922.7, 159.674 L 967.83, 98.4141 L 997.916, 111.282 L 986.316, 126.869 L 985.229, 126.325 L 982.51, 129.95 L 987.222, 131.944 L 943.725, 191.21 L 928.863, 184.866 L 929.95, 183.235 L 926.688, 181.785 L 920.344, 190.304 L 883.552, 174.717 z "/>
<path style="fill:rgb(0, 255, 0);fill-opacity:0;fill-rule:evenodd;stroke:rgb(255, 0, 107);stroke-width:1;" d="M 120.707, 766.47 L 121.976, 764.839 L 137.925, 743.271 L 146.081, 732.397 L 172.723, 695.967 L 202.447, 730.222 L 200.091, 731.128 L 201.178, 743.634 L 203.353, 744.721 L 171.636, 788.219 L 120.707, 766.47 z "/>
<path style="fill:rgb(0, 0, 255);fill-opacity:0;fill-rule:evenodd;stroke:rgb(255, 0, 107);stroke-width:1;" d="M 880.109, 615.134 L 896.058, 592.841 L 905.301, 596.647 L 1028.55, 647.395 L 1012.6, 669.687 L 880.109, 615.134 z "/>
<path style="fill:rgb(255, 255, 0);fill-opacity:0;fill-rule:evenodd;stroke:rgb(255, 0, 107);stroke-width:1;" d="M 220.933, 600.816 L 251.926, 558.224 L 315.541, 585.048 L 317.173, 589.216 L 287.268, 630.177 L 271.5, 623.652 L 264.613, 620.752 L 265.7, 619.483 L 220.933, 600.816 z "/>
<path style="fill:rgb(255, 0, 0);fill-opacity:0;fill-rule:evenodd;stroke:rgb(255, 0, 107);stroke-width:1;" d="M 666.244, 675.668 L 697.417, 632.533 L 733.666, 647.576 L 735.659, 648.482 L 730.222, 655.732 L 763.027, 669.506 L 737.109, 705.211 L 666.244, 675.668 z "/>
<path style="fill:rgb(0, 255, 0);fill-opacity:0;fill-rule:evenodd;stroke:rgb(255, 0, 107);stroke-width:1;" d="M 306.298, 463.616 L 320.072, 444.585 L 318.804, 444.042 L 334.028, 422.836 L 349.615, 429.542 L 336.747, 447.304 L 344.903, 450.748 L 357.771, 432.805 L 373.72, 439.511 L 360.671, 457.454 L 364.658, 459.085 L 365.927, 457.091 L 367.92, 456.91 L 369.189, 457.454 L 369.733, 457.091 L 370.639, 456.729 L 371.364, 457.091 L 381.695, 442.773 L 414.318, 456.366 L 383.326, 499.32 L 368.645, 493.339 L 371.545, 489.171 L 366.289, 486.996 L 365.383, 488.265 L 306.298, 463.616 z M 366.108, 469.597 L 380.788, 475.94 L 389.488, 464.522 L 374.807, 458.179 L 366.108, 469.597 z M 325.51, 465.247 L 340.734, 471.772 L 349.071, 460.353 L 334.028, 453.829 L 325.51, 465.247 z "/>
<path style="fill:rgb(0, 0, 255);fill-opacity:0;fill-rule:evenodd;stroke:rgb(255, 0, 107);stroke-width:1;" d="M 164.205, 595.016 L 170.729, 585.954 L 175.079, 587.585 L 196.828, 557.136 L 192.478, 555.324 L 204.259, 538.831 L 246.126, 555.868 L 193.747, 629.452 L 164.205, 595.016 z "/>
<path style="fill:rgb(255, 255, 0);fill-opacity:0;fill-rule:evenodd;stroke:rgb(255, 0, 107);stroke-width:1;" d="M 494.427, 603.172 L 529.044, 555.505 L 541.55, 538.287 L 539.556, 537.381 L 555.686, 515.451 L 586.135, 528.319 L 585.41, 529.225 L 548.074, 580.517 L 522.882, 615.134 L 494.427, 603.172 z "/>
<path style="fill:rgb(255, 0, 0);fill-opacity:0;fill-rule:evenodd;stroke:rgb(255, 0, 107);stroke-width:1;" d="M 83.5523, 134.481 L 102.945, 108.564 L 115.632, 91.3457 L 172.542, 115.813 L 140.643, 158.949 L 83.5523, 134.481 z "/>
<path style="fill:rgb(0, 255, 0);fill-opacity:0;fill-rule:evenodd;stroke:rgb(255, 0, 107);stroke-width:1;" d="M 385.682, 197.553 L 394.382, 185.773 L 394.925, 185.048 L 402.175, 188.129 L 404.894, 187.585 L 407.068, 184.685 L 405.256, 183.96 L 408.881, 179.248 L 409.243, 176.71 L 402.719, 173.811 L 413.231, 159.674 L 444.223, 172.904 L 433.711, 187.041 L 426.461, 183.96 L 419.574, 193.385 L 444.404, 203.897 L 451.291, 194.653 L 444.404, 191.754 L 454.916, 177.435 L 484.821, 190.304 L 456.366, 228.727 L 427.73, 216.402 L 425.736, 214.771 L 385.682, 197.553 z "/>
<path style="fill:rgb(0, 0, 255);fill-opacity:0;fill-rule:evenodd;stroke:rgb(255, 0, 107);stroke-width:1;" d="M 314.454, 167.105 L 342.184, 129.588 L 372.451, 142.637 L 363.208, 154.961 L 360.127, 153.693 L 357.589, 155.868 L 352.877, 162.211 L 371.183, 170.005 L 377.526, 161.305 L 374.445, 159.855 L 384.051, 146.987 L 413.231, 159.674 L 402.719, 173.811 L 395.469, 170.729 L 386.769, 182.51 L 394.382, 185.773 L 385.682, 197.553 L 358.314, 185.954 L 362.483, 180.335 L 350.521, 175.079 L 347.077, 175.986 L 344.178, 179.792 L 314.454, 167.105 z "/>
<path style="fill:rgb(255, 255, 0);fill-opacity:0;fill-rule:evenodd;stroke:rgb(255, 0, 107);stroke-width:1;" d="M 763.57, 378.432 L 774.445, 363.752 L 776.982, 364.839 L 789.488, 347.984 L 772.089, 340.553 L 788.944, 317.535 L 836.611, 337.834 L 796.375, 392.388 L 763.57, 378.432 z "/>
<path style="fill:rgb(255, 0, 0);fill-opacity:0;fill-rule:evenodd;stroke:rgb(255, 0, 107);stroke-width:1;" d="M 948.618, 298.686 L 958.949, 284.549 L 973.448, 290.711 L 972.542, 291.799 L 987.222, 297.961 L 1002.27, 277.481 L 1020.57, 285.093 L 1008.97, 301.223 L 1004.8, 299.411 L 1000.63, 305.392 L 1033.08, 318.985 L 1023.11, 332.759 L 1014.05, 328.953 L 1015.5, 326.96 L 998.641, 319.891 L 991.754, 329.316 L 997.191, 331.491 L 994.11, 335.478 L 988.854, 333.303 L 970.548, 358.314 L 951.699, 350.34 L 975.623, 317.716 L 978.885, 319.166 L 983.054, 313.367 L 948.618, 298.686 z "/>
<path style="fill:rgb(0, 255, 0);fill-opacity:0;fill-rule:evenodd;stroke:rgb(255, 0, 107);stroke-width:1;" d="M 201.541, 637.426 L 208.971, 627.458 L 230.539, 636.339 L 234.889, 630.358 L 214.952, 622.021 L 214.771, 619.121 L 217.309, 615.496 L 220.571, 614.227 L 224.739, 608.609 L 268.781, 627.277 L 271.5, 623.652 L 287.268, 630.177 L 255.369, 674.218 L 220.933, 659.9 L 201.541, 637.426 z M 232.533, 645.763 L 249.751, 653.194 L 258.269, 641.957 L 241.051, 634.345 L 232.533, 645.763 z "/>
<path style="fill:rgb(0, 0, 255);fill-opacity:0;fill-rule:evenodd;stroke:rgb(255, 0, 107);stroke-width:1;" d="M 480.109, 97.3267 L 496.239, 75.3965 L 494.427, 74.6715 L 510.739, 52.7413 L 535.569, 63.4345 L 520.888, 83.1899 L 528.5, 86.4522 L 543.181, 66.6969 L 566.923, 76.8464 L 534.662, 120.526 L 515.088, 112.188 L 528.5, 94.2456 L 523.425, 92.2519 L 521.432, 92.2519 L 519.257, 95.1518 L 513.82, 92.7957 L 515.27, 91.1645 L 511.826, 89.7145 L 499.864, 105.664 L 480.109, 97.3267 z "/>
<path style="fill:rgb(255, 255, 0);fill-opacity:0;fill-rule:evenodd;stroke:rgb(255, 0, 107);stroke-width:1;" d="M 446.398, 139.737 L 462.347, 118.169 L 463.978, 118.894 L 480.109, 97.3267 L 499.864, 105.664 L 488.446, 121.251 L 492.071, 122.882 L 493.521, 120.888 L 498.777, 123.063 L 496.239, 126.507 L 497.508, 128.319 L 501.858, 130.313 L 515.088, 112.188 L 534.662, 120.526 L 502.583, 163.661 L 479.384, 153.693 L 493.883, 134.119 L 485.908, 130.856 L 471.409, 150.43 L 446.398, 139.737 z "/>
<path style="fill:rgb(255, 0, 0);fill-opacity:0;fill-rule:evenodd;stroke:rgb(255, 0, 107);stroke-width:1;" d="M 293.792, 519.438 L 301.767, 508.382 L 305.573, 510.014 L 325.329, 483.009 L 340.915, 489.533 L 332.759, 500.77 L 345.446, 506.026 L 350.34, 499.32 L 345.628, 497.508 L 348.165, 493.883 L 353.058, 492.796 L 380.063, 504.214 L 351.427, 543.725 L 293.792, 519.438 z "/>
<path style="fill:rgb(0, 255, 0);fill-opacity:0;fill-rule:evenodd;stroke:rgb(255, 0, 107);stroke-width:1;" d="M 881.559, 131.4 L 920.526, 78.4776 L 955.686, 93.3394 L 916.72, 146.443 L 881.559, 131.4 z "/>
<path style="fill:rgb(0, 0, 255);fill-opacity:0;fill-rule:evenodd;stroke:rgb(255, 0, 107);stroke-width:1;" d="M 450.204, 509.651 L 470.684, 481.559 L 473.222, 480.834 L 496.602, 490.621 L 495.696, 491.708 L 496.42, 492.071 L 489.533, 501.858 L 486.815, 500.77 L 479.384, 510.92 L 485.184, 513.457 L 500.408, 492.252 L 524.875, 502.583 L 525.419, 504.214 L 516.901, 515.813 L 513.638, 514.363 L 491.164, 545.356 L 482.827, 541.912 L 481.559, 540.643 L 488.265, 531.219 L 488.083, 529.406 L 492.071, 523.969 L 488.99, 524.513 L 480.471, 536.294 L 474.128, 533.575 L 468.509, 527.775 L 475.396, 518.351 L 473.222, 517.444 L 468.509, 523.788 L 460.897, 520.707 L 456.366, 515.995 L 458.541, 513.095 L 450.204, 509.651 z "/>
<path style="fill:rgb(255, 255, 0);fill-opacity:0;fill-rule:evenodd;stroke:rgb(255, 0, 107);stroke-width:1;" d="M 869.234, 407.612 L 879.746, 393.113 L 914.182, 407.793 L 918.351, 401.994 L 914.726, 400.544 L 927.775, 382.601 L 946.624, 390.575 L 929.588, 414.137 L 946.443, 421.205 L 948.074, 419.212 L 957.136, 423.018 L 946.987, 436.973 L 914.545, 423.199 L 910.376, 429.18 L 913.82, 430.63 L 902.401, 446.398 L 884.277, 438.786 L 899.32, 418.305 L 884.459, 412.143 L 883.552, 413.593 L 869.234, 407.612 z "/>
<path style="fill:rgb(255, 0, 0);fill-opacity:0;fill-rule:evenodd;stroke:rgb(255, 0, 107);stroke-width:1;" d="M 950.612, 64.7032 L 974.536, 32.261 L 988.672, 38.242 L 985.048, 43.3167 L 1011.51, 54.3725 L 1021.84, 58.9035 L 1023.11, 57.0911 L 1037.79, 63.2533 L 1018.4, 89.7145 L 1003.72, 83.5523 L 1004.98, 81.7399 L 968.192, 66.1531 L 964.93, 70.6842 L 950.612, 64.7032 z "/>
<path style="fill:rgb(0, 255, 0);fill-opacity:0;fill-rule:evenodd;stroke:rgb(255, 0, 107);stroke-width:1;" d="M 130.856, 245.401 L 146.624, 223.652 L 223.108, 255.732 L 207.159, 277.481 L 176.167, 264.613 L 136.112, 247.576 L 130.856, 245.401 z "/>
<path style="fill:rgb(0, 0, 255);fill-opacity:0;fill-rule:evenodd;stroke:rgb(255, 0, 107);stroke-width:1;" d="M 973.267, 467.241 L 984.141, 452.56 L 1018.4, 466.878 L 1022.2, 461.803 L 1018.94, 460.353 L 1031.63, 442.954 L 1050.11, 450.748 L 1033.26, 473.947 L 1043.95, 478.478 L 1045.76, 475.94 L 1053.74, 479.384 L 1043.59, 493.339 L 1018.4, 482.827 L 1014.05, 488.808 L 1017.85, 490.44 L 1006.43, 506.026 L 988.491, 498.414 L 1003.35, 478.115 L 988.491, 471.953 L 987.585, 473.403 L 973.267, 467.241 z "/>
<path style="fill:rgb(255, 255, 0);fill-opacity:0;fill-rule:evenodd;stroke:rgb(255, 0, 107);stroke-width:1;" d="M 66.3344, 664.794 L 86.0897, 637.608 L 100.408, 643.589 L 99.6828, 644.676 L 101.314, 645.401 L 111.464, 649.57 L 112.188, 648.663 L 116.357, 650.295 L 122.7, 653.013 L 121.794, 654.101 L 133.756, 658.994 L 134.481, 657.907 L 141.912, 661.169 L 147.893, 667.331 L 129.95, 691.98 L 99.1391, 679.112 L 100.77, 676.756 L 76.1214, 666.425 L 74.6715, 668.419 L 66.3344, 664.794 z "/>
<path style="fill:rgb(255, 0, 0);fill-opacity:0;fill-rule:evenodd;stroke:rgb(255, 0, 107);stroke-width:1;" d="M 70.3217, 70.8654 L 80.6525, 56.7286 L 86.8147, 59.266 L 107.476, 31.3548 L 142.637, 46.5791 L 111.645, 88.4459 L 70.3217, 70.8654 z "/>
<path style="fill:rgb(0, 255, 0);fill-opacity:0;fill-rule:evenodd;stroke:rgb(255, 0, 107);stroke-width:1;" d="M 506.208, 312.46 L 515.088, 300.498 L 528.319, 306.117 L 529.769, 303.942 L 532.306, 305.029 L 534.662, 301.948 L 531.944, 300.861 L 532.488, 299.955 L 519.982, 294.699 L 522.157, 291.618 L 524.875, 292.705 L 531.4, 283.824 L 540.1, 287.63 L 543.181, 283.462 L 538.106, 281.287 L 539.375, 279.656 L 535.387, 278.024 L 541.912, 269.144 L 568.917, 280.562 L 571.273, 277.481 L 573.267, 278.387 L 588.129, 284.73 L 577.073, 295.605 L 560.761, 288.718 L 558.586, 291.618 L 555.686, 290.53 L 553.874, 293.068 L 571.817, 300.861 L 560.58, 311.917 L 547.893, 306.479 L 543.362, 312.642 L 554.961, 317.535 L 543.906, 328.591 L 506.208, 312.46 z "/>
<path style="fill:rgb(0, 0, 255);fill-opacity:0;fill-rule:evenodd;stroke:rgb(255, 0, 107);stroke-width:1;" d="M 67.2406, 420.662 L 89.8958, 389.488 L 82.2836, 386.226 L 85.1835, 382.42 L 99.3203, 362.845 L 112.732, 368.464 L 114.545, 365.927 L 127.413, 371.364 L 125.6, 373.901 L 131.038, 376.076 L 91.1645, 430.811 L 67.2406, 420.662 z "/>
<path style="fill:rgb(255, 255, 0);fill-opacity:0;fill-rule:evenodd;stroke:rgb(255, 0, 107);stroke-width:1;" d="M 822.655, 741.821 L 844.585, 711.735 L 871.047, 722.791 L 880.652, 709.742 L 897.145, 716.629 L 865.791, 759.764 L 822.655, 741.821 z "/>
<path style="fill:rgb(255, 0, 0);fill-opacity:0;fill-rule:evenodd;stroke:rgb(255, 0, 107);stroke-width:1;" d="M 408.337, 567.105 L 450.204, 509.651 L 456.366, 515.995 L 460.897, 520.707 L 471.228, 531.219 L 467.966, 535.75 L 436.611, 578.885 L 408.337, 567.105 z "/>
<path style="fill:rgb(0, 255, 0);fill-opacity:0;fill-rule:evenodd;stroke:rgb(255, 0, 107);stroke-width:1;" d="M 773.901, 220.571 L 797.1, 188.491 L 804.712, 177.979 L 811.781, 180.879 L 809.425, 184.323 L 823.743, 190.304 L 826.28, 186.86 L 833.167, 189.76 L 824.286, 201.903 L 833.892, 205.89 L 818.305, 227.458 L 808.518, 223.471 L 802.175, 232.352 L 781.876, 223.833 L 773.901, 220.571 z "/>
<path style="fill:rgb(0, 0, 255);fill-opacity:0;fill-rule:evenodd;stroke:rgb(255, 0, 107);stroke-width:1;" d="M 465.972, 591.391 L 494.246, 552.424 L 500.589, 543.725 L 529.044, 555.505 L 494.427, 603.172 L 465.972, 591.391 z "/>
<path style="fill:rgb(255, 255, 0);fill-opacity:0;fill-rule:evenodd;stroke:rgb(255, 0, 107);stroke-width:1;" d="M 546.624, 262.981 L 556.049, 250.113 L 561.849, 252.651 L 565.292, 248.12 L 559.493, 245.582 L 569.28, 232.533 L 602.628, 246.851 L 604.984, 243.77 L 621.84, 251.019 L 607.703, 265.156 L 583.054, 254.463 L 579.792, 254.282 L 577.073, 253.194 L 573.992, 257.363 L 577.073, 258.632 L 579.067, 260.625 L 602.266, 270.594 L 588.129, 284.73 L 573.267, 278.387 L 575.442, 275.306 L 546.624, 262.981 z "/>
<path style="fill:rgb(255, 0, 0);fill-opacity:0;fill-rule:evenodd;stroke:rgb(255, 0, 107);stroke-width:1;" d="M 865.791, 759.764 L 897.145, 716.629 L 898.233, 716.991 L 927.05, 728.953 L 895.696, 772.27 L 865.791, 759.764 z "/>
<path style="fill:rgb(0, 255, 0);fill-opacity:0;fill-rule:evenodd;stroke:rgb(255, 0, 107);stroke-width:1;" d="M 681.468, 448.935 L 697.417, 427.005 L 754.871, 451.291 L 748.89, 459.447 L 739.103, 473.04 L 725.147, 467.241 L 717.173, 463.978 L 703.761, 458.179 L 681.468, 448.935 z "/>
<path style="fill:rgb(0, 0, 255);fill-opacity:0;fill-rule:evenodd;stroke:rgb(255, 0, 107);stroke-width:1;" d="M 658.632, 787.857 L 690.711, 743.996 L 719.166, 755.958 L 687.087, 800 L 658.632, 787.857 z "/>
<path style="fill:rgb(255, 255, 0);fill-opacity:0;fill-rule:evenodd;stroke:rgb(255, 0, 107);stroke-width:1;" d="M 264.794, 507.295 L 265.519, 506.389 L 281.106, 485.002 L 283.462, 485.908 L 299.048, 464.522 L 306.661, 467.784 L 305.211, 469.778 L 324.241, 477.571 L 301.767, 508.382 L 293.792, 519.438 L 264.794, 507.295 z "/>
<path style="fill:rgb(255, 0, 0);fill-opacity:0;fill-rule:evenodd;stroke:rgb(255, 0, 107);stroke-width:1;" d="M 923.788, 783.87 L 944.812, 754.69 L 954.961, 740.734 L 964.93, 744.721 L 961.667, 749.252 L 980.517, 757.227 L 957.318, 789.307 L 952.605, 796.013 L 923.788, 783.87 z "/>
<path style="fill:rgb(0, 255, 0);fill-opacity:0;fill-rule:evenodd;stroke:rgb(255, 0, 107);stroke-width:1;" d="M 439.873, 73.0403 L 468.147, 34.6171 L 476.846, 38.242 L 464.884, 54.3725 L 471.772, 57.2723 L 483.552, 41.1418 L 504.758, 50.2039 L 496.239, 61.9846 L 492.796, 60.5347 L 473.04, 87.1772 L 455.641, 79.7463 L 462.71, 70.1405 L 464.159, 70.8654 L 466.516, 67.7843 L 459.266, 64.7032 L 456.91, 65.2469 L 448.391, 76.6652 L 439.873, 73.0403 z "/>
<path style="fill:rgb(0, 0, 255);fill-opacity:0;fill-rule:evenodd;stroke:rgb(255, 0, 107);stroke-width:1;" d="M 174.717, 425.555 L 198.097, 393.475 L 232.714, 407.975 L 209.334, 440.054 L 185.954, 430.267 L 174.717, 425.555 z "/>
<path style="fill:rgb(255, 255, 0);fill-opacity:0;fill-rule:evenodd;stroke:rgb(255, 0, 107);stroke-width:1;" d="M 289.443, 201.722 L 292.343, 200.634 L 309.56, 208.065 L 313.91, 202.266 L 290.349, 192.297 L 290.53, 173.086 L 293.43, 172.361 L 317.173, 182.51 L 316.629, 183.416 L 334.572, 191.029 L 315.36, 216.946 L 318.804, 218.396 L 310.285, 229.995 L 289.443, 220.933 L 289.443, 201.722 z "/>
<path style="fill:rgb(255, 0, 0);fill-opacity:0;fill-rule:evenodd;stroke:rgb(255, 0, 107);stroke-width:1;" d="M 366.652, 254.101 L 382.601, 232.533 L 419.755, 248.482 L 422.111, 245.22 L 423.38, 245.763 L 438.786, 252.288 L 431.899, 261.713 L 420.662, 257 L 416.493, 262.619 L 427.549, 267.512 L 420.48, 277.118 L 387.857, 263.163 L 394.925, 253.557 L 387.676, 250.476 L 380.607, 260.082 L 366.652, 254.101 z "/>
<path style="fill:rgb(0, 255, 0);fill-opacity:0;fill-rule:evenodd;stroke:rgb(255, 0, 107);stroke-width:1;" d="M 44.7667, 117.807 L 63.6158, 92.4332 L 63.9783, 91.8894 L 102.945, 108.564 L 83.5523, 134.481 L 44.7667, 117.807 z "/>
<path style="fill:rgb(0, 0, 255);fill-opacity:0;fill-rule:evenodd;stroke:rgb(255, 0, 107);stroke-width:1;" d="M 406.162, 122.519 L 433.892, 85.0023 L 442.229, 88.6271 L 433.53, 100.408 L 439.511, 103.126 L 441.686, 101.676 L 449.298, 91.527 L 465.066, 98.2329 L 444.767, 125.782 L 448.029, 127.05 L 440.598, 137.2 L 421.749, 129.044 L 432.986, 113.82 L 425.736, 110.739 L 414.499, 125.963 L 406.162, 122.519 z "/>
<path style="fill:rgb(255, 255, 0);fill-opacity:0;fill-rule:evenodd;stroke:rgb(255, 0, 107);stroke-width:1;" d="M 337.653, 93.3394 L 345.446, 82.6461 L 355.958, 87.1772 L 357.408, 85.0023 L 355.958, 84.4585 L 358.858, 80.6525 L 359.946, 81.015 L 362.483, 77.5714 L 361.396, 77.0276 L 364.477, 73.0403 L 365.927, 73.5841 L 368.283, 70.3217 L 357.952, 65.9719 L 365.383, 55.6411 L 399.819, 70.3217 L 391.482, 81.5587 L 386.769, 79.3838 L 381.876, 78.4776 L 379.701, 81.5587 L 381.151, 82.1024 L 375.17, 90.2583 L 373.539, 89.5333 L 371.364, 92.6144 L 375.17, 94.7893 L 380.245, 96.9642 L 379.52, 98.0517 L 371.908, 107.839 L 337.653, 93.3394 z "/>
<path style="fill:rgb(255, 0, 0);fill-opacity:0;fill-rule:evenodd;stroke:rgb(255, 0, 107);stroke-width:1;" d="M 756.14, 551.699 L 771.908, 529.588 L 809.062, 544.993 L 817.762, 548.618 L 801.994, 570.729 L 756.14, 551.699 z "/>
<path style="fill:rgb(0, 255, 0);fill-opacity:0;fill-rule:evenodd;stroke:rgb(255, 0, 107);stroke-width:1;" d="M 86.0897, 265.7 L 102.764, 242.682 L 107.839, 235.795 L 111.101, 237.245 L 130.856, 245.401 L 136.112, 247.576 L 106.389, 288.355 L 86.0897, 265.7 z "/>
<path style="fill:rgb(0, 0, 255);fill-opacity:0;fill-rule:evenodd;stroke:rgb(255, 0, 107);stroke-width:1;" d="M 826.461, 271.5 L 829.724, 266.969 L 842.229, 249.57 L 845.854, 251.019 L 887.54, 268.419 L 871.772, 290.349 L 832.08, 273.856 L 826.461, 271.5 z "/>
<path style="fill:rgb(255, 255, 0);fill-opacity:0;fill-rule:evenodd;stroke:rgb(255, 0, 107);stroke-width:1;" d="M 371.908, 107.839 L 379.52, 98.0517 L 383.145, 99.6828 L 403.625, 71.9529 L 418.305, 78.2963 L 410.693, 88.6271 L 410.331, 90.9832 L 416.674, 93.5206 L 425.736, 81.3774 L 433.892, 85.0023 L 406.162, 122.519 L 398.188, 119.076 L 409.606, 103.489 L 402.175, 100.408 L 390.757, 115.813 L 371.908, 107.839 z "/>
<path style="fill:rgb(255, 0, 0);fill-opacity:0;fill-rule:evenodd;stroke:rgb(255, 0, 107);stroke-width:1;" d="M 65.4282, 242.32 L 89.5333, 209.153 L 110.376, 180.517 L 124.694, 186.679 L 122.7, 189.579 L 101.314, 218.94 L 100.77, 219.665 L 75.7589, 253.919 L 65.4282, 242.32 z "/>
<path style="fill:rgb(0, 255, 0);fill-opacity:0;fill-rule:evenodd;stroke:rgb(255, 0, 107);stroke-width:1;" d="M 845.854, 251.019 L 861.622, 229.271 L 903.308, 246.67 L 887.54, 268.419 L 845.854, 251.019 z "/>
<path style="fill:rgb(0, 0, 255);fill-opacity:0;fill-rule:evenodd;stroke:rgb(255, 0, 107);stroke-width:1;" d="M 728.228, 405.981 L 736.203, 395.106 L 744.54, 398.731 L 752.515, 388.038 L 789.85, 403.806 L 773.901, 425.555 L 728.228, 405.981 z "/>
<path style="fill:rgb(255, 255, 0);fill-opacity:0;fill-rule:evenodd;stroke:rgb(255, 0, 107);stroke-width:1;" d="M 559.674, 585.41 L 597.553, 534.3 L 614.227, 541.368 L 583.779, 583.235 L 576.892, 592.66 L 559.674, 585.41 z "/>
<path style="fill:rgb(255, 0, 0);fill-opacity:0;fill-rule:evenodd;stroke:rgb(255, 0, 107);stroke-width:1;" d="M 143.543, 159.674 L 150.249, 150.612 L 155.686, 152.968 L 157.68, 150.249 L 156.955, 148.799 L 175.623, 123.425 L 200.634, 134.119 L 193.022, 144.631 L 184.504, 140.825 L 171.454, 158.224 L 180.154, 162.03 L 179.429, 163.117 L 172.723, 172.179 L 143.543, 159.674 z "/>
<path style="fill:rgb(0, 255, 0);fill-opacity:0;fill-rule:evenodd;stroke:rgb(255, 0, 107);stroke-width:1;" d="M 713.367, 610.421 L 728.953, 588.854 L 767.92, 605.165 L 752.333, 626.733 L 713.367, 610.421 z "/>
<path style="fill:rgb(0, 0, 255);fill-opacity:0;fill-rule:evenodd;stroke:rgb(255, 0, 107);stroke-width:1;" d="M 295.242, 75.034 L 295.424, 50.3851 L 303.398, 50.7476 L 309.56, 53.285 L 315.904, 56.1849 L 311.735, 61.6221 L 326.416, 67.7843 L 325.51, 69.053 L 329.678, 70.8654 L 334.572, 64.1595 L 345.809, 69.053 L 347.984, 69.9592 L 332.397, 90.9832 L 295.242, 75.034 z "/>
<path style="fill:rgb(255, 255, 0);fill-opacity:0;fill-rule:evenodd;stroke:rgb(255, 0, 107);stroke-width:1;" d="M 55.0974, 230.72 L 62.7096, 220.208 L 63.9783, 220.571 L 69.053, 213.865 L 67.7843, 213.321 L 75.3965, 202.809 L 76.8464, 203.353 L 79.7463, 199.547 L 82.1024, 196.285 L 80.4712, 195.741 L 95.8768, 174.536 L 110.376, 180.517 L 89.5333, 209.153 L 65.4282, 242.32 L 55.0974, 230.72 z "/>
<path style="fill:rgb(255, 0, 0);fill-opacity:0;fill-rule:evenodd;stroke:rgb(255, 0, 107);stroke-width:1;" d="M 750.884, 208.428 L 763.933, 190.122 L 768.645, 192.116 L 784.776, 169.642 L 804.712, 177.979 L 797.1, 188.491 L 793.657, 187.041 L 772.089, 217.309 L 750.884, 208.428 z "/>
<path style="fill:rgb(0, 255, 0);fill-opacity:0;fill-rule:evenodd;stroke:rgb(255, 0, 107);stroke-width:1;" d="M 388.401, 226.733 L 397.644, 214.409 L 434.798, 230.358 L 437.336, 226.914 L 452.741, 233.439 L 438.786, 252.288 L 423.38, 245.763 L 425.555, 242.682 L 388.401, 226.733 z "/>
<path style="fill:rgb(0, 0, 255);fill-opacity:0;fill-rule:evenodd;stroke:rgb(255, 0, 107);stroke-width:1;" d="M 335.478, 240.689 L 343.996, 229.089 L 348.346, 231.083 L 367.92, 204.803 L 384.594, 211.871 L 365.02, 238.151 L 368.826, 239.783 L 360.308, 251.382 L 335.478, 240.689 z "/>
<path style="fill:rgb(255, 255, 0);fill-opacity:0;fill-rule:evenodd;stroke:rgb(255, 0, 107);stroke-width:1;" d="M 310.285, 229.995 L 318.804, 218.396 L 323.154, 220.208 L 342.546, 193.928 L 359.039, 200.997 L 339.465, 227.277 L 343.996, 229.089 L 335.478, 240.689 L 310.285, 229.995 z "/>
<path style="fill:rgb(255, 0, 0);fill-opacity:0;fill-rule:evenodd;stroke:rgb(255, 0, 107);stroke-width:1;" d="M 172.723, 172.179 L 179.429, 163.117 L 186.679, 166.38 L 196.466, 152.968 L 197.01, 150.793 L 190.485, 148.074 L 193.022, 144.631 L 200.634, 134.119 L 205.89, 136.475 L 206.434, 150.249 L 205.528, 151.518 L 207.703, 152.424 L 211.328, 151.88 L 212.053, 162.936 L 205.709, 162.574 L 202.266, 167.286 L 203.353, 170.367 L 200.816, 172.723 L 203.715, 173.992 L 206.072, 176.71 L 212.596, 176.348 L 211.69, 188.672 L 172.723, 172.179 z "/>
<path style="fill:rgb(0, 255, 0);fill-opacity:0;fill-rule:evenodd;stroke:rgb(255, 0, 107);stroke-width:1;" d="M 755.052, 656.638 L 763.389, 645.22 L 771.183, 634.527 L 786.769, 612.959 L 800.544, 618.758 L 780.426, 646.307 L 781.876, 647.032 L 781.151, 648.12 L 785.319, 649.932 L 778.07, 660.082 L 772.27, 657.725 L 768.826, 662.438 L 755.052, 656.638 z "/>
<path style="fill:rgb(0, 0, 255);fill-opacity:0;fill-rule:evenodd;stroke:rgb(255, 0, 107);stroke-width:1;" d="M 436.611, 578.885 L 467.966, 535.75 L 482.827, 541.912 L 479.565, 546.443 L 451.473, 585.229 L 436.611, 578.885 z "/>
<path style="fill:rgb(255, 255, 0);fill-opacity:0;fill-rule:evenodd;stroke:rgb(255, 0, 107);stroke-width:1;" d="M 705.573, 621.115 L 713.367, 610.421 L 752.333, 626.733 L 771.183, 634.527 L 763.389, 645.22 L 741.821, 636.339 L 705.573, 621.115 z "/>
<path style="fill:rgb(255, 0, 0);fill-opacity:0;fill-rule:evenodd;stroke:rgb(255, 0, 107);stroke-width:1;" d="M 642.32, 503.308 L 650.113, 492.614 L 672.043, 501.858 L 685.455, 507.476 L 693.43, 510.739 L 707.386, 516.538 L 699.592, 527.232 L 642.32, 503.308 z "/>
<path style="fill:rgb(0, 255, 0);fill-opacity:0;fill-rule:evenodd;stroke:rgb(255, 0, 107);stroke-width:1;" d="M 456.185, 291.074 L 459.628, 286.362 L 459.991, 285.455 L 460.897, 283.643 L 461.622, 282.737 L 463.435, 281.287 L 469.053, 273.856 L 481.196, 279.112 L 482.465, 279.656 L 479.746, 283.099 L 481.196, 283.824 L 480.109, 285.093 L 483.371, 286.543 L 484.821, 284.549 L 505.483, 293.249 L 502.764, 296.874 L 503.851, 297.236 L 495.877, 308.111 L 493.702, 307.929 L 491.708, 307.386 L 489.896, 306.298 L 488.627, 305.029 L 463.797, 294.336 L 461.26, 293.974 L 458.903, 293.068 L 456.91, 291.799 L 456.185, 291.074 z "/>
<path style="fill:rgb(0, 0, 255);fill-opacity:0;fill-rule:evenodd;stroke:rgb(255, 0, 107);stroke-width:1;" d="M 548.074, 580.517 L 585.41, 529.225 L 597.553, 534.3 L 559.674, 585.41 L 559.311, 585.41 L 548.074, 580.517 z "/>
<path style="fill:rgb(255, 255, 0);fill-opacity:0;fill-rule:evenodd;stroke:rgb(255, 0, 107);stroke-width:1;" d="M 534.3, 620.027 L 542.637, 608.428 L 544.268, 609.153 L 547.349, 605.165 L 545.537, 604.44 L 552.605, 594.653 L 554.599, 591.754 L 559.311, 585.41 L 559.674, 585.41 L 576.892, 592.66 L 551.699, 627.277 L 534.3, 620.027 z "/>
<path style="fill:rgb(255, 0, 0);fill-opacity:0;fill-rule:evenodd;stroke:rgb(255, 0, 107);stroke-width:1;" d="M 748.346, 562.574 L 756.14, 551.699 L 801.994, 570.729 L 810.693, 574.173 L 802.9, 585.229 L 748.346, 562.574 z "/>
<path style="fill:rgb(0, 255, 0);fill-opacity:0;fill-rule:evenodd;stroke:rgb(255, 0, 107);stroke-width:1;" d="M 714.635, 241.051 L 730.403, 224.921 L 744.54, 230.72 L 753.783, 234.708 L 762.483, 238.333 L 749.796, 255.732 L 714.635, 241.051 z "/>
<path style="fill:rgb(0, 0, 255);fill-opacity:0;fill-rule:evenodd;stroke:rgb(255, 0, 107);stroke-width:1;" d="M 143.725, 211.146 L 152.968, 198.459 L 199.366, 218.034 L 190.122, 230.72 L 143.725, 211.146 z "/>
<path style="fill:rgb(255, 255, 0);fill-opacity:0;fill-rule:evenodd;stroke:rgb(255, 0, 107);stroke-width:1;" d="M 75.7589, 253.919 L 100.77, 219.665 L 101.314, 218.94 L 107.114, 221.477 L 110.739, 216.584 L 119.076, 220.208 L 107.839, 235.795 L 102.764, 242.682 L 86.0897, 265.7 L 75.7589, 253.919 z "/>
<path style="fill:rgb(255, 0, 0);fill-opacity:0;fill-rule:evenodd;stroke:rgb(255, 0, 107);stroke-width:1;" d="M 451.473, 585.229 L 479.565, 546.443 L 494.246, 552.424 L 465.972, 591.391 L 451.473, 585.229 z "/>
<path style="fill:rgb(0, 255, 0);fill-opacity:0;fill-rule:evenodd;stroke:rgb(255, 0, 107);stroke-width:1;" d="M 107.839, 235.795 L 119.076, 220.208 L 139.193, 192.66 L 152.968, 198.459 L 143.725, 211.146 L 123.425, 238.876 L 113.095, 234.527 L 111.101, 237.245 L 107.839, 235.795 z "/>
<path style="fill:rgb(0, 0, 255);fill-opacity:0;fill-rule:evenodd;stroke:rgb(255, 0, 107);stroke-width:1;" d="M 26.28, 628.364 L 35.5233, 615.677 L 83.5523, 635.614 L 75.7589, 646.488 L 43.1355, 632.895 L 41.8668, 634.889 L 26.28, 628.364 z "/>
<path style="fill:rgb(255, 255, 0);fill-opacity:0;fill-rule:evenodd;stroke:rgb(255, 0, 107);stroke-width:1;" d="M 795.469, 496.783 L 803.081, 486.271 L 817.58, 492.252 L 818.305, 493.702 L 823.924, 496.058 L 826.461, 496.058 L 841.504, 502.22 L 855.097, 507.839 L 847.485, 518.351 L 832.623, 512.188 L 818.849, 506.57 L 817.58, 504.758 L 811.962, 502.401 L 809.968, 502.764 L 795.469, 496.783 z "/>
<path style="fill:rgb(255, 0, 0);fill-opacity:0;fill-rule:evenodd;stroke:rgb(255, 0, 107);stroke-width:1;" d="M 118.532, 707.748 L 129.95, 691.98 L 147.893, 667.331 L 148.074, 667.15 L 157.861, 678.387 L 132.306, 713.548 L 118.532, 707.748 z "/>
<path style="fill:rgb(0, 255, 0);fill-opacity:0;fill-rule:evenodd;stroke:rgb(255, 0, 107);stroke-width:1;" d="M 810.15, 294.155 L 810.874, 293.249 L 818.487, 282.556 L 824.105, 284.912 L 863.797, 301.405 L 855.46, 313.004 L 810.15, 294.155 z "/>
<path style="fill:rgb(0, 0, 255);fill-opacity:0;fill-rule:evenodd;stroke:rgb(255, 0, 107);stroke-width:1;" d="M 480.471, 255.369 L 480.471, 254.826 L 481.015, 253.376 L 481.921, 252.288 L 483.009, 251.563 L 484.277, 251.201 L 485.908, 250.838 L 488.808, 247.213 L 488.627, 245.582 L 488.808, 244.676 L 489.533, 243.226 L 490.802, 241.957 L 492.614, 240.87 L 493.702, 240.689 L 505.845, 245.945 L 503.67, 248.845 L 530.131, 260.082 L 522.157, 270.775 L 495.877, 259.538 L 493.521, 262.619 L 481.196, 257.363 L 480.471, 256.094 L 480.471, 255.369 z "/>
<path style="fill:rgb(255, 255, 0);fill-opacity:0;fill-rule:evenodd;stroke:rgb(255, 0, 107);stroke-width:1;" d="M 493.702, 240.689 L 493.883, 239.601 L 494.971, 237.608 L 496.42, 235.795 L 498.414, 234.345 L 501.314, 230.358 L 501.495, 228.546 L 502.22, 226.914 L 503.489, 225.464 L 504.214, 224.921 L 506.026, 223.833 L 518.351, 229.089 L 516.176, 232.17 L 542.456, 243.407 L 534.481, 254.282 L 508.02, 242.864 L 505.845, 245.945 L 493.702, 240.689 z "/>
<path style="fill:rgb(255, 0, 0);fill-opacity:0;fill-rule:evenodd;stroke:rgb(255, 0, 107);stroke-width:1;" d="M 469.053, 273.856 L 469.234, 272.225 L 470.14, 270.594 L 471.409, 269.325 L 473.222, 268.237 L 476.121, 264.069 L 477.028, 261.894 L 478.296, 259.9 L 480.109, 258.269 L 481.196, 257.363 L 493.521, 262.619 L 491.346, 265.519 L 517.626, 276.937 L 509.47, 287.812 L 483.19, 276.575 L 481.196, 279.112 L 469.053, 273.856 z "/>
<path style="fill:rgb(0, 255, 0);fill-opacity:0;fill-rule:evenodd;stroke:rgb(255, 0, 107);stroke-width:1;" d="M 506.026, 222.927 L 506.389, 221.296 L 507.476, 219.665 L 508.926, 218.396 L 510.739, 217.49 L 513.276, 214.046 L 513.82, 212.053 L 514.907, 210.24 L 517.444, 207.703 L 530.313, 213.14 L 528.681, 215.134 L 555.143, 226.371 L 546.806, 237.608 L 520.526, 226.189 L 518.351, 229.089 L 506.026, 223.833 L 506.026, 222.927 z "/>
<path style="fill:rgb(0, 0, 255);fill-opacity:0;fill-rule:evenodd;stroke:rgb(255, 0, 107);stroke-width:1;" d="M 357.771, 333.484 L 360.489, 329.678 L 360.671, 327.685 L 363.027, 324.422 L 361.939, 322.791 L 368.645, 313.367 L 371.001, 312.642 L 374.626, 307.748 L 374.082, 305.936 L 382.238, 294.88 L 396.738, 301.042 L 388.944, 311.735 L 385.682, 313.367 L 382.42, 317.898 L 383.326, 319.529 L 376.62, 328.772 L 373.72, 328.41 L 366.833, 337.472 L 357.771, 333.484 z "/>
<path style="fill:rgb(255, 255, 0);fill-opacity:0;fill-rule:evenodd;stroke:rgb(255, 0, 107);stroke-width:1;" d="M 854.916, 606.797 L 885.546, 564.205 L 896.964, 568.917 L 882.465, 588.854 L 866.334, 611.509 L 854.916, 606.797 z "/>
<path style="fill:rgb(255, 0, 0);fill-opacity:0;fill-rule:evenodd;stroke:rgb(255, 0, 107);stroke-width:1;" d="M 414.681, 357.589 L 417.943, 353.24 L 418.124, 351.971 L 420.662, 348.346 L 419.212, 346.715 L 425.736, 337.653 L 427.911, 337.109 L 431.717, 332.034 L 431.536, 330.222 L 439.692, 318.985 L 454.01, 324.966 L 445.673, 336.203 L 443.679, 336.928 L 440.236, 341.459 L 440.598, 343.09 L 433.53, 352.877 L 430.811, 352.877 L 428.274, 356.321 L 427.186, 357.046 L 423.924, 361.577 L 414.681, 357.589 z "/>
<path style="fill:rgb(0, 255, 0);fill-opacity:0;fill-rule:evenodd;stroke:rgb(255, 0, 107);stroke-width:1;" d="M 591.572, 495.877 L 599.003, 485.546 L 601.359, 485.002 L 604.259, 480.834 L 603.715, 479.021 L 608.065, 473.04 L 610.965, 469.053 L 616.04, 471.228 L 617.852, 468.509 L 614.409, 467.059 L 620.027, 459.447 L 631.445, 464.341 L 626.008, 471.953 L 622.927, 470.684 L 620.933, 473.222 L 625.827, 475.396 L 618.577, 485.184 L 616.04, 485.727 L 612.959, 489.896 L 613.865, 491.708 L 606.253, 502.039 L 591.572, 495.877 z "/>
<path style="fill:rgb(0, 0, 255);fill-opacity:0;fill-rule:evenodd;stroke:rgb(255, 0, 107);stroke-width:1;" d="M 372.089, 339.465 L 374.626, 335.841 L 375.532, 333.847 L 378.07, 330.403 L 376.62, 328.772 L 383.326, 319.529 L 385.319, 319.348 L 388.763, 314.454 L 388.944, 311.735 L 396.738, 301.042 L 411.418, 307.023 L 403.444, 318.079 L 400.906, 318.441 L 396.919, 323.879 L 397.644, 326.053 L 391.119, 335.116 L 388.219, 334.572 L 385.682, 338.015 L 384.413, 338.922 L 381.332, 343.271 L 372.089, 339.465 z "/>
<path style="fill:rgb(255, 255, 0);fill-opacity:0;fill-rule:evenodd;stroke:rgb(255, 0, 107);stroke-width:1;" d="M 682.374, 462.891 L 688.899, 453.647 L 699.23, 457.997 L 697.236, 460.716 L 700.861, 462.347 L 703.761, 458.179 L 717.173, 463.978 L 717.535, 465.428 L 722.791, 467.603 L 725.147, 467.241 L 739.103, 473.04 L 730.947, 484.096 L 717.173, 478.296 L 716.448, 476.484 L 711.01, 474.309 L 709.198, 475.034 L 695.786, 469.234 L 698.505, 465.609 L 694.699, 464.159 L 692.524, 467.059 L 682.374, 462.891 z "/>
<path style="fill:rgb(255, 0, 0);fill-opacity:0;fill-rule:evenodd;stroke:rgb(255, 0, 107);stroke-width:1;" d="M 329.135, 321.16 L 331.672, 317.716 L 332.578, 315.541 L 335.116, 311.917 L 333.122, 310.467 L 340.19, 301.042 L 342.365, 300.68 L 345.99, 295.605 L 345.265, 293.974 L 353.421, 282.737 L 368.283, 288.899 L 359.946, 300.317 L 357.589, 300.317 L 353.783, 305.573 L 354.508, 307.023 L 347.44, 316.629 L 345.084, 316.085 L 338.378, 324.966 L 329.135, 321.16 z "/>
<path style="fill:rgb(0, 255, 0);fill-opacity:0;fill-rule:evenodd;stroke:rgb(255, 0, 107);stroke-width:1;" d="M 400.544, 351.609 L 403.806, 347.259 L 403.806, 345.99 L 406.525, 342.365 L 405.075, 340.734 L 411.599, 331.672 L 413.774, 331.309 L 417.399, 326.053 L 417.399, 324.241 L 425.555, 313.004 L 439.692, 318.985 L 431.536, 330.222 L 429.361, 330.947 L 425.918, 335.659 L 425.736, 337.653 L 419.212, 346.715 L 416.674, 346.896 L 414.137, 350.34 L 412.868, 351.065 L 409.787, 355.596 L 400.544, 351.609 z "/>
<path style="fill:rgb(0, 0, 255);fill-opacity:0;fill-rule:evenodd;stroke:rgb(255, 0, 107);stroke-width:1;" d="M 314.454, 314.998 L 317.535, 310.829 L 317.898, 309.923 L 320.254, 306.479 L 318.985, 305.029 L 320.435, 303.036 L 339.465, 276.937 L 353.421, 282.737 L 345.265, 293.974 L 343.453, 294.517 L 339.647, 299.592 L 340.19, 301.042 L 333.122, 310.467 L 331.128, 310.285 L 328.41, 313.91 L 326.778, 314.635 L 323.697, 318.804 L 314.454, 314.998 z "/>
<path style="fill:rgb(255, 255, 0);fill-opacity:0;fill-rule:evenodd;stroke:rgb(255, 0, 107);stroke-width:1;" d="M 674.762, 473.222 L 680.924, 464.522 L 691.255, 468.872 L 690.53, 469.778 L 691.799, 470.322 L 690.349, 472.315 L 692.886, 473.222 L 695.786, 469.234 L 709.198, 475.034 L 709.379, 476.665 L 714.635, 478.84 L 717.173, 478.296 L 730.947, 484.096 L 722.972, 495.152 L 709.017, 489.352 L 708.473, 487.358 L 703.217, 485.002 L 701.223, 485.908 L 687.812, 480.29 L 690.349, 476.665 L 686.724, 475.034 L 684.912, 477.571 L 674.762, 473.222 z "/>
<path style="fill:rgb(255, 0, 0);fill-opacity:0;fill-rule:evenodd;stroke:rgb(255, 0, 107);stroke-width:1;" d="M 658.813, 494.971 L 665.338, 486.09 L 675.668, 490.44 L 673.675, 492.977 L 677.3, 494.608 L 680.018, 490.983 L 693.43, 496.602 L 693.792, 498.052 L 699.048, 500.227 L 701.405, 499.864 L 715.36, 505.664 L 707.386, 516.538 L 693.43, 510.739 L 692.705, 508.926 L 687.449, 506.57 L 685.455, 507.476 L 672.043, 501.858 L 674.762, 498.052 L 671.137, 496.602 L 669.144, 499.32 L 658.813, 494.971 z "/>
<path style="fill:rgb(0, 255, 0);fill-opacity:0;fill-rule:evenodd;stroke:rgb(255, 0, 107);stroke-width:1;" d="M 666.787, 484.096 L 673.493, 474.853 L 683.643, 479.203 L 681.468, 482.284 L 685.093, 483.734 L 687.812, 480.29 L 701.223, 485.908 L 701.586, 487.177 L 707.023, 489.352 L 709.017, 489.352 L 722.972, 495.152 L 715.36, 505.664 L 701.405, 499.864 L 700.68, 498.052 L 695.424, 495.877 L 693.43, 496.602 L 680.018, 490.983 L 682.737, 487.177 L 678.931, 485.546 L 676.937, 488.446 L 666.787, 484.096 z "/>
<path style="fill:rgb(0, 0, 255);fill-opacity:0;fill-rule:evenodd;stroke:rgb(255, 0, 107);stroke-width:1;" d="M 343.453, 327.503 L 346.715, 323.154 L 346.715, 322.066 L 349.434, 318.26 L 347.44, 316.629 L 354.508, 307.023 L 357.046, 306.842 L 360.489, 302.13 L 359.946, 300.317 L 368.283, 288.899 L 382.238, 294.88 L 374.082, 305.936 L 371.183, 306.842 L 367.92, 311.373 L 368.645, 313.367 L 361.939, 322.791 L 359.221, 322.247 L 356.683, 325.691 L 355.415, 326.778 L 352.333, 331.309 L 343.453, 327.503 z "/>
<path style="fill:rgb(255, 255, 0);fill-opacity:0;fill-rule:evenodd;stroke:rgb(255, 0, 107);stroke-width:1;" d="M 133.213, 303.398 L 141.006, 292.524 L 152.243, 297.417 L 183.235, 310.285 L 175.442, 321.16 L 133.213, 303.398 z "/>
<path style="fill:rgb(255, 0, 0);fill-opacity:0;fill-rule:evenodd;stroke:rgb(255, 0, 107);stroke-width:1;" d="M 705.754, 249.388 L 714.635, 241.051 L 749.796, 255.732 L 763.027, 261.169 L 756.321, 270.594 L 705.754, 249.388 z "/>
<path style="fill:rgb(0, 255, 0);fill-opacity:0;fill-rule:evenodd;stroke:rgb(255, 0, 107);stroke-width:1;" d="M 787.313, 508.382 L 795.469, 496.783 L 809.968, 502.764 L 818.849, 506.57 L 832.623, 512.188 L 830.267, 515.451 L 833.892, 517.082 L 829.724, 522.7 L 826.099, 521.069 L 824.286, 523.788 L 787.313, 508.382 z "/>
<path style="fill:rgb(0, 0, 255);fill-opacity:0;fill-rule:evenodd;stroke:rgb(255, 0, 107);stroke-width:1;" d="M 606.253, 502.039 L 613.865, 491.708 L 618.577, 485.184 L 625.827, 475.396 L 627.821, 472.497 L 631.083, 473.765 L 633.258, 470.684 L 640.689, 473.765 L 638.514, 476.846 L 641.957, 478.296 L 620.208, 508.02 L 606.253, 502.039 z "/>
<path style="fill:rgb(255, 255, 0);fill-opacity:0;fill-rule:evenodd;stroke:rgb(255, 0, 107);stroke-width:1;" d="M 824.105, 284.912 L 832.08, 273.856 L 871.772, 290.349 L 863.797, 301.405 L 824.105, 284.912 z "/>
<path style="fill:rgb(255, 0, 0);fill-opacity:0;fill-rule:evenodd;stroke:rgb(255, 0, 107);stroke-width:1;" d="M 873.222, 220.027 L 881.377, 208.428 L 919.438, 224.377 L 918.894, 225.102 L 911.101, 235.795 L 896.058, 229.452 L 897.87, 227.096 L 894.427, 225.827 L 892.796, 228.183 L 873.222, 220.027 z "/>
<path style="fill:rgb(0, 255, 0);fill-opacity:0;fill-rule:evenodd;stroke:rgb(255, 0, 107);stroke-width:1;" d="M 81.1962, 349.252 L 87.3584, 340.915 L 95.333, 336.384 L 92.2519, 332.397 L 99.3203, 322.972 L 116.72, 330.403 L 97.6892, 356.321 L 81.1962, 349.252 z "/>
<path style="fill:rgb(0, 0, 255);fill-opacity:0;fill-rule:evenodd;stroke:rgb(255, 0, 107);stroke-width:1;" d="M 219.302, 339.647 L 227.277, 328.772 L 261.169, 343.09 L 260.988, 344.903 L 266.063, 347.077 L 259.175, 356.321 L 219.302, 339.647 z "/>
<path style="fill:rgb(255, 255, 0);fill-opacity:0;fill-rule:evenodd;stroke:rgb(255, 0, 107);stroke-width:1;" d="M 101.314, 218.94 L 122.7, 189.579 L 124.694, 186.679 L 139.193, 192.66 L 119.076, 220.208 L 110.739, 216.584 L 107.114, 221.477 L 101.314, 218.94 z "/>
<path style="fill:rgb(255, 0, 0);fill-opacity:0;fill-rule:evenodd;stroke:rgb(255, 0, 107);stroke-width:1;" d="M 619.483, 431.355 L 640.145, 403.081 L 655.188, 409.243 L 646.126, 421.93 L 643.77, 425.011 L 634.527, 437.698 L 619.483, 431.355 z "/>
<path style="fill:rgb(0, 255, 0);fill-opacity:0;fill-rule:evenodd;stroke:rgb(255, 0, 107);stroke-width:1;" d="M 779.52, 519.076 L 787.313, 508.382 L 824.286, 523.788 L 822.655, 525.963 L 826.28, 527.413 L 822.111, 533.394 L 818.305, 531.944 L 816.493, 534.481 L 779.52, 519.076 z "/>
<path style="fill:rgb(0, 0, 255);fill-opacity:0;fill-rule:evenodd;stroke:rgb(255, 0, 107);stroke-width:1;" d="M 274.762, 263.525 L 282.374, 252.832 L 322.61, 269.869 L 321.16, 271.862 L 315.904, 279.112 L 310.648, 276.937 L 308.654, 277.662 L 274.762, 263.525 z "/>
<path style="fill:rgb(255, 255, 0);fill-opacity:0;fill-rule:evenodd;stroke:rgb(255, 0, 107);stroke-width:1;" d="M 771.908, 529.588 L 779.52, 519.076 L 816.493, 534.481 L 815.043, 536.475 L 818.668, 538.106 L 814.318, 544.268 L 810.693, 542.637 L 809.062, 544.993 L 771.908, 529.588 z "/>
<path style="fill:rgb(255, 0, 0);fill-opacity:0;fill-rule:evenodd;stroke:rgb(255, 0, 107);stroke-width:1;" d="M 697.417, 632.533 L 705.573, 621.115 L 741.821, 636.339 L 733.666, 647.576 L 697.417, 632.533 z "/>
<path style="fill:rgb(0, 255, 0);fill-opacity:0;fill-rule:evenodd;stroke:rgb(255, 0, 107);stroke-width:1;" d="M 752.515, 388.038 L 760.489, 377.164 L 763.57, 378.432 L 796.375, 392.388 L 797.825, 393.113 L 789.85, 403.806 L 752.515, 388.038 z "/>
<path style="fill:rgb(0, 0, 255);fill-opacity:0;fill-rule:evenodd;stroke:rgb(255, 0, 107);stroke-width:1;" d="M 361.939, 399.456 L 369.914, 388.582 L 372.27, 388.763 L 375.895, 383.87 L 373.901, 382.963 L 379.338, 375.714 L 382.42, 374.989 L 385.863, 370.095 L 396.738, 374.626 L 393.113, 379.52 L 393.657, 381.695 L 388.401, 389.126 L 387.313, 388.582 L 383.688, 393.657 L 384.232, 394.563 L 376.257, 405.618 L 361.939, 399.456 z "/>
<path style="fill:rgb(255, 255, 0);fill-opacity:0;fill-rule:evenodd;stroke:rgb(255, 0, 107);stroke-width:1;" d="M 347.621, 393.475 L 355.596, 382.601 L 357.952, 382.782 L 358.677, 381.695 L 361.577, 377.889 L 359.583, 376.982 L 365.02, 369.551 L 368.101, 368.826 L 371.545, 364.114 L 382.238, 368.645 L 378.795, 373.539 L 379.338, 375.714 L 373.901, 382.963 L 372.995, 382.601 L 369.37, 387.494 L 369.914, 388.582 L 361.939, 399.456 L 347.621, 393.475 z "/>
<path style="fill:rgb(255, 0, 0);fill-opacity:0;fill-rule:evenodd;stroke:rgb(255, 0, 107);stroke-width:1;" d="M 318.804, 381.332 L 326.778, 370.458 L 329.135, 370.639 L 332.759, 365.745 L 330.766, 365.02 L 336.203, 357.589 L 339.284, 356.865 L 342.909, 351.971 L 353.602, 356.502 L 350.159, 361.396 L 350.521, 363.57 L 345.265, 371.001 L 344.178, 370.458 L 340.553, 375.532 L 341.097, 376.439 L 333.122, 387.494 L 318.804, 381.332 z "/>
<path style="fill:rgb(0, 255, 0);fill-opacity:0;fill-rule:evenodd;stroke:rgb(255, 0, 107);stroke-width:1;" d="M 333.122, 387.494 L 341.097, 376.439 L 343.634, 376.801 L 347.259, 371.726 L 345.265, 371.001 L 350.521, 363.57 L 353.783, 362.845 L 357.227, 358.133 L 367.92, 362.664 L 364.477, 367.377 L 365.02, 369.551 L 359.583, 376.982 L 358.496, 376.62 L 354.871, 381.513 L 355.596, 382.601 L 347.621, 393.475 L 333.122, 387.494 z "/>
<path style="fill:rgb(0, 0, 255);fill-opacity:0;fill-rule:evenodd;stroke:rgb(255, 0, 107);stroke-width:1;" d="M 304.486, 375.351 L 311.917, 365.02 L 314.998, 364.658 L 318.441, 359.764 L 316.448, 358.858 L 321.885, 351.427 L 324.966, 350.884 L 328.41, 345.99 L 339.284, 350.521 L 335.659, 355.233 L 336.203, 357.589 L 330.766, 365.02 L 329.86, 364.477 L 326.235, 369.37 L 326.778, 370.458 L 318.804, 381.332 L 304.486, 375.351 z "/>
<path style="fill:rgb(255, 255, 0);fill-opacity:0;fill-rule:evenodd;stroke:rgb(255, 0, 107);stroke-width:1;" d="M 803.081, 486.271 L 810.512, 475.94 L 848.935, 491.708 L 841.504, 502.22 L 826.461, 496.058 L 817.58, 492.252 L 803.081, 486.271 z "/>
<path style="fill:rgb(255, 0, 0);fill-opacity:0;fill-rule:evenodd;stroke:rgb(255, 0, 107);stroke-width:1;" d="M 250.838, 296.149 L 258.994, 285.093 L 292.886, 299.411 L 290.893, 302.13 L 294.155, 303.398 L 291.799, 306.661 L 290.168, 308.836 L 286.905, 307.567 L 284.912, 310.467 L 250.838, 296.149 z "/>
<path style="fill:rgb(0, 255, 0);fill-opacity:0;fill-rule:evenodd;stroke:rgb(255, 0, 107);stroke-width:1;" d="M 242.864, 307.204 L 250.838, 296.149 L 284.912, 310.467 L 282.918, 313.185 L 285.999, 314.454 L 282.012, 319.891 L 278.931, 318.623 L 276.756, 321.522 L 242.864, 307.204 z "/>
<path style="fill:rgb(0, 0, 255);fill-opacity:0;fill-rule:evenodd;stroke:rgb(255, 0, 107);stroke-width:1;" d="M 351.79, 644.857 L 376.801, 610.603 L 388.038, 615.315 L 363.027, 649.388 L 351.79, 644.857 z "/>
<path style="fill:rgb(255, 255, 0);fill-opacity:0;fill-rule:evenodd;stroke:rgb(255, 0, 107);stroke-width:1;" d="M 634.527, 437.698 L 643.77, 425.011 L 646.126, 425.918 L 648.301, 422.836 L 646.126, 421.93 L 655.188, 409.243 L 668.962, 415.043 L 648.301, 443.498 L 634.527, 437.698 z "/>
<path style="fill:rgb(255, 0, 0);fill-opacity:0;fill-rule:evenodd;stroke:rgb(255, 0, 107);stroke-width:1;" d="M 290.53, 369.551 L 310.467, 342.184 L 324.422, 347.984 L 321.885, 351.427 L 316.448, 358.858 L 311.917, 365.02 L 304.486, 375.351 L 290.53, 369.551 z "/>
<path style="fill:rgb(0, 255, 0);fill-opacity:0;fill-rule:evenodd;stroke:rgb(255, 0, 107);stroke-width:1;" d="M 759.221, 271.862 L 771.183, 255.369 L 773.901, 256.638 L 775.895, 253.738 L 773.176, 252.651 L 783.87, 237.608 L 795.288, 242.32 L 770.639, 276.575 L 759.221, 271.862 z "/>
<path style="fill:rgb(0, 0, 255);fill-opacity:0;fill-rule:evenodd;stroke:rgb(255, 0, 107);stroke-width:1;" d="M 375.351, 654.644 L 390.575, 633.802 L 390.394, 632.352 L 399.275, 620.027 L 410.874, 624.921 L 385.863, 659.175 L 375.351, 654.644 z "/>
<path style="fill:rgb(255, 255, 0);fill-opacity:0;fill-rule:evenodd;stroke:rgb(255, 0, 107);stroke-width:1;" d="M 258.994, 285.093 L 266.969, 274.037 L 300.861, 288.355 L 292.886, 299.411 L 258.994, 285.093 z "/>
<path style="fill:rgb(255, 0, 0);fill-opacity:0;fill-rule:evenodd;stroke:rgb(255, 0, 107);stroke-width:1;" d="M 522.882, 615.134 L 548.074, 580.517 L 559.311, 585.41 L 554.599, 591.754 L 552.062, 590.666 L 550.068, 593.566 L 552.605, 594.653 L 545.537, 604.44 L 543.362, 603.534 L 540.462, 607.522 L 542.637, 608.428 L 534.3, 620.027 L 522.882, 615.134 z "/>
<path style="fill:rgb(0, 255, 0);fill-opacity:0;fill-rule:evenodd;stroke:rgb(255, 0, 107);stroke-width:1;" d="M 261.894, 357.589 L 281.106, 331.128 L 295.242, 337.109 L 276.212, 363.389 L 261.894, 357.589 z "/>
<path style="fill:rgb(0, 0, 255);fill-opacity:0;fill-rule:evenodd;stroke:rgb(255, 0, 107);stroke-width:1;" d="M 398.913, 664.613 L 414.137, 643.589 L 413.412, 641.957 L 422.293, 629.814 L 434.073, 634.708 L 409.062, 668.962 L 398.913, 664.613 z "/>
<path style="fill:rgb(255, 255, 0);fill-opacity:0;fill-rule:evenodd;stroke:rgb(255, 0, 107);stroke-width:1;" d="M 306.298, 297.055 L 325.329, 270.956 L 339.465, 276.937 L 320.435, 303.036 L 306.298, 297.055 z "/>
<path style="fill:rgb(255, 0, 0);fill-opacity:0;fill-rule:evenodd;stroke:rgb(255, 0, 107);stroke-width:1;" d="M 227.277, 328.772 L 235.07, 317.898 L 268.962, 332.216 L 261.169, 343.09 L 227.277, 328.772 z "/>
<path style="fill:rgb(0, 255, 0);fill-opacity:0;fill-rule:evenodd;stroke:rgb(255, 0, 107);stroke-width:1;" d="M 150.974, 458.179 L 174.717, 425.555 L 185.954, 430.267 L 180.698, 437.517 L 162.03, 462.891 L 150.974, 458.179 z "/>
<path style="fill:rgb(0, 0, 255);fill-opacity:0;fill-rule:evenodd;stroke:rgb(255, 0, 107);stroke-width:1;" d="M 235.07, 317.898 L 242.864, 307.204 L 276.756, 321.522 L 268.962, 332.216 L 235.07, 317.898 z "/>
<path style="fill:rgb(255, 255, 0);fill-opacity:0;fill-rule:evenodd;stroke:rgb(255, 0, 107);stroke-width:1;" d="M 363.027, 649.388 L 388.038, 615.315 L 399.275, 620.027 L 390.394, 632.352 L 388.401, 632.714 L 372.995, 653.738 L 363.027, 649.388 z "/>
<path style="fill:rgb(255, 0, 0);fill-opacity:0;fill-rule:evenodd;stroke:rgb(255, 0, 107);stroke-width:1;" d="M 385.863, 659.175 L 410.874, 624.921 L 422.293, 629.814 L 413.412, 641.957 L 411.056, 642.32 L 395.65, 663.344 L 385.863, 659.175 z "/>
<path style="fill:rgb(0, 255, 0);fill-opacity:0;fill-rule:evenodd;stroke:rgb(255, 0, 107);stroke-width:1;" d="M 160.217, 286.362 L 168.192, 275.487 L 199.184, 288.536 L 191.21, 299.411 L 160.217, 286.362 z "/>
<path style="fill:rgb(0, 0, 255);fill-opacity:0;fill-rule:evenodd;stroke:rgb(255, 0, 107);stroke-width:1;" d="M 152.243, 297.417 L 160.217, 286.362 L 191.21, 299.411 L 183.235, 310.285 L 152.243, 297.417 z "/>
<path style="fill:rgb(255, 255, 0);fill-opacity:0;fill-rule:evenodd;stroke:rgb(255, 0, 107);stroke-width:1;" d="M 168.192, 275.487 L 176.167, 264.613 L 207.159, 277.481 L 199.184, 288.536 L 168.192, 275.487 z "/>
<path style="fill:rgb(255, 0, 0);fill-opacity:0;fill-rule:evenodd;stroke:rgb(255, 0, 107);stroke-width:1;" d="M 196.647, 477.39 L 215.134, 451.835 L 227.458, 457.091 L 208.79, 482.646 L 196.647, 477.39 z "/>
<path style="fill:rgb(0, 255, 0);fill-opacity:0;fill-rule:evenodd;stroke:rgb(255, 0, 107);stroke-width:1;" d="M 730.403, 224.921 L 738.197, 216.765 L 769.37, 229.814 L 774.082, 231.808 L 767.739, 240.507 L 762.483, 238.333 L 753.783, 234.708 L 753.058, 232.895 L 747.44, 230.72 L 744.54, 230.72 L 730.403, 224.921 z "/>
<path style="fill:rgb(0, 0, 255);fill-opacity:0;fill-rule:evenodd;stroke:rgb(255, 0, 107);stroke-width:1;" d="M 799.094, 288.355 L 818.124, 262.075 L 829.724, 266.969 L 826.461, 271.5 L 818.487, 282.556 L 810.874, 293.249 L 799.094, 288.355 z "/>
<path style="fill:rgb(255, 255, 0);fill-opacity:0;fill-rule:evenodd;stroke:rgb(255, 0, 107);stroke-width:1;" d="M 738.197, 216.765 L 746.353, 209.153 L 759.764, 214.59 L 760.489, 216.402 L 765.564, 218.396 L 768.101, 218.215 L 773.901, 220.571 L 781.876, 223.833 L 775.714, 232.533 L 774.082, 231.808 L 769.37, 229.814 L 738.197, 216.765 z "/>
<path style="fill:rgb(255, 0, 0);fill-opacity:0;fill-rule:evenodd;stroke:rgb(255, 0, 107);stroke-width:1;" d="M 54.5537, 389.669 L 65.7907, 374.264 L 85.1835, 382.42 L 82.2836, 386.226 L 73.9465, 397.825 L 54.5537, 389.669 z "/>
<path style="fill:rgb(0, 255, 0);fill-opacity:0;fill-rule:evenodd;stroke:rgb(255, 0, 107);stroke-width:1;" d="M 184.866, 472.497 L 203.534, 446.942 L 215.134, 451.835 L 196.647, 477.39 L 184.866, 472.497 z "/>
<path style="fill:rgb(0, 0, 255);fill-opacity:0;fill-rule:evenodd;stroke:rgb(255, 0, 107);stroke-width:1;" d="M 599.003, 422.836 L 607.884, 410.512 L 619.665, 394.382 L 630.177, 398.731 L 609.515, 427.186 L 599.003, 422.836 z "/>
<path style="fill:rgb(255, 255, 0);fill-opacity:0;fill-rule:evenodd;stroke:rgb(255, 0, 107);stroke-width:1;" d="M 162.03, 462.891 L 180.698, 437.517 L 192.116, 442.229 L 173.629, 467.784 L 162.03, 462.891 z "/>
<path style="fill:rgb(255, 0, 0);fill-opacity:0;fill-rule:evenodd;stroke:rgb(255, 0, 107);stroke-width:1;" d="M 173.629, 467.784 L 192.116, 442.229 L 203.534, 446.942 L 184.866, 472.497 L 173.629, 467.784 z "/>
<path style="fill:rgb(0, 255, 0);fill-opacity:0;fill-rule:evenodd;stroke:rgb(255, 0, 107);stroke-width:1;" d="M 554.78, 399.275 L 561.849, 391.663 L 596.466, 406.162 L 591.754, 412.687 L 590.485, 414.318 L 554.78, 399.275 z "/>
<path style="fill:rgb(0, 0, 255);fill-opacity:0;fill-rule:evenodd;stroke:rgb(255, 0, 107);stroke-width:1;" d="M 609.515, 427.186 L 630.177, 398.731 L 640.145, 403.081 L 619.483, 431.355 L 609.515, 427.186 z "/>
<path style="fill:rgb(255, 255, 0);fill-opacity:0;fill-rule:evenodd;stroke:rgb(255, 0, 107);stroke-width:1;" d="M 515.451, 461.985 L 536.294, 433.348 L 545.537, 437.155 L 540.1, 444.585 L 540.825, 444.948 L 525.238, 466.153 L 515.451, 461.985 z "/>
<path style="fill:rgb(255, 0, 0);fill-opacity:0;fill-rule:evenodd;stroke:rgb(255, 0, 107);stroke-width:1;" d="M 866.334, 611.509 L 882.465, 588.854 L 894.427, 593.747 L 877.571, 616.402 L 866.334, 611.509 z "/>
<path style="fill:rgb(0, 255, 0);fill-opacity:0;fill-rule:evenodd;stroke:rgb(255, 0, 107);stroke-width:1;" d="M 56.3661, 589.397 L 65.9719, 575.623 L 71.2279, 577.617 L 85.3647, 593.022 L 80.6525, 599.003 L 56.3661, 589.397 z "/>
<path style="fill:rgb(0, 0, 255);fill-opacity:0;fill-rule:evenodd;stroke:rgb(255, 0, 107);stroke-width:1;" d="M 888.446, 539.012 L 904.758, 516.357 L 915.451, 520.707 L 899.139, 543.543 L 888.446, 539.012 z "/>
<path style="fill:rgb(255, 255, 0);fill-opacity:0;fill-rule:evenodd;stroke:rgb(255, 0, 107);stroke-width:1;" d="M 581.06, 491.527 L 597.734, 468.691 L 608.065, 473.04 L 603.715, 479.021 L 599.003, 485.546 L 591.572, 495.877 L 581.06, 491.527 z "/>
<path style="fill:rgb(255, 0, 0);fill-opacity:0;fill-rule:evenodd;stroke:rgb(255, 0, 107);stroke-width:1;" d="M 899.139, 543.543 L 915.451, 520.707 L 925.782, 525.057 L 923.607, 527.775 L 909.47, 547.712 L 899.139, 543.543 z "/>
<path style="fill:rgb(0, 255, 0);fill-opacity:0;fill-rule:evenodd;stroke:rgb(255, 0, 107);stroke-width:1;" d="M 868.872, 531.038 L 885.365, 508.201 L 895.152, 512.37 L 878.84, 535.025 L 868.872, 531.038 z "/>
<path style="fill:rgb(0, 0, 255);fill-opacity:0;fill-rule:evenodd;stroke:rgb(255, 0, 107);stroke-width:1;" d="M 85.3647, 749.071 L 101.495, 727.322 L 107.295, 719.348 L 110.739, 720.979 L 104.758, 729.135 L 110.195, 731.309 L 94.2456, 752.877 L 85.3647, 749.071 z "/>
<path style="fill:rgb(255, 255, 0);fill-opacity:0;fill-rule:evenodd;stroke:rgb(255, 0, 107);stroke-width:1;" d="M 112.007, 760.489 L 127.957, 738.922 L 137.925, 743.271 L 121.976, 764.839 L 112.007, 760.489 z "/>
<path style="fill:rgb(255, 0, 0);fill-opacity:0;fill-rule:evenodd;stroke:rgb(255, 0, 107);stroke-width:1;" d="M 878.84, 535.025 L 895.152, 512.37 L 904.758, 516.357 L 888.446, 539.012 L 878.84, 535.025 z "/>
<path style="fill:rgb(0, 255, 0);fill-opacity:0;fill-rule:evenodd;stroke:rgb(255, 0, 107);stroke-width:1;" d="M 30.0861, 725.691 L 46.2166, 703.761 L 55.8224, 707.929 L 39.6919, 729.678 L 30.0861, 725.691 z "/>
<path style="fill:rgb(0, 0, 255);fill-opacity:0;fill-rule:evenodd;stroke:rgb(255, 0, 107);stroke-width:1;" d="M 75.9402, 745.084 L 92.0707, 723.335 L 101.495, 727.322 L 85.3647, 749.071 L 75.9402, 745.084 z "/>
<path style="fill:rgb(255, 255, 0);fill-opacity:0;fill-rule:evenodd;stroke:rgb(255, 0, 107);stroke-width:1;" d="M 39.6919, 729.678 L 55.8224, 707.929 L 65.0657, 711.735 L 48.9352, 733.666 L 39.6919, 729.678 z "/>
<path style="fill:rgb(255, 0, 0);fill-opacity:0;fill-rule:evenodd;stroke:rgb(255, 0, 107);stroke-width:1;" d="M 66.6969, 741.278 L 82.8274, 719.348 L 92.0707, 723.335 L 75.9402, 745.084 L 66.6969, 741.278 z "/>
<path style="fill:rgb(0, 255, 0);fill-opacity:0;fill-rule:evenodd;stroke:rgb(255, 0, 107);stroke-width:1;" d="M 102.764, 756.502 L 118.713, 734.934 L 127.957, 738.922 L 112.007, 760.489 L 102.764, 756.502 z "/>
<path style="fill:rgb(0, 0, 255);fill-opacity:0;fill-rule:evenodd;stroke:rgb(255, 0, 107);stroke-width:1;" d="M 818.124, 262.075 L 830.63, 244.676 L 842.229, 249.57 L 829.724, 266.969 L 818.124, 262.075 z "/>
<path style="fill:rgb(255, 255, 0);fill-opacity:0;fill-rule:evenodd;stroke:rgb(255, 0, 107);stroke-width:1;" d="M 859.991, 527.232 L 876.303, 504.576 L 885.365, 508.201 L 868.872, 531.038 L 859.991, 527.232 z "/>
<path style="fill:rgb(255, 0, 0);fill-opacity:0;fill-rule:evenodd;stroke:rgb(255, 0, 107);stroke-width:1;" d="M 57.816, 737.472 L 73.9465, 715.541 L 82.8274, 719.348 L 66.6969, 741.278 L 57.816, 737.472 z "/>
<path style="fill:rgb(0, 255, 0);fill-opacity:0;fill-rule:evenodd;stroke:rgb(255, 0, 107);stroke-width:1;" d="M 48.9352, 733.666 L 65.0657, 711.735 L 73.9465, 715.541 L 57.816, 737.472 L 48.9352, 733.666 z "/>
<path style="fill:rgb(0, 0, 255);fill-opacity:0;fill-rule:evenodd;stroke:rgb(255, 0, 107);stroke-width:1;" d="M 214.227, 190.485 L 220.208, 182.329 L 241.414, 191.21 L 241.232, 197.372 L 236.158, 199.728 L 214.227, 190.485 z "/>
<path style="fill:rgb(255, 255, 0);fill-opacity:0;fill-rule:evenodd;stroke:rgb(255, 0, 107);stroke-width:1;" d="M 851.654, 523.788 L 867.966, 501.133 L 876.303, 504.576 L 859.991, 527.232 L 851.654, 523.788 z "/>
<path style="fill:rgb(255, 0, 0);fill-opacity:0;fill-rule:evenodd;stroke:rgb(255, 0, 107);stroke-width:1;" d="M 217.671, 164.024 L 219.302, 161.667 L 241.776, 171.273 L 241.595, 181.423 L 219.483, 171.998 L 217.671, 171.273 L 217.671, 164.024 z "/>
<path style="fill:rgb(0, 255, 0);fill-opacity:0;fill-rule:evenodd;stroke:rgb(255, 0, 107);stroke-width:1;" d="M 94.2456, 752.877 L 110.195, 731.309 L 118.713, 734.934 L 102.764, 756.502 L 94.2456, 752.877 z "/>
<path style="fill:rgb(0, 0, 255);fill-opacity:0;fill-rule:evenodd;stroke:rgb(255, 0, 107);stroke-width:1;" d="M 218.034, 150.974 L 218.396, 144.449 L 220.39, 141.731 L 242.139, 151.155 L 241.957, 161.305 L 219.846, 151.88 L 218.034, 150.974 z "/>
<path style="fill:rgb(255, 255, 0);fill-opacity:0;fill-rule:evenodd;stroke:rgb(255, 0, 107);stroke-width:1;" d="M 218.396, 130.856 L 219.121, 124.332 L 221.115, 121.613 L 242.682, 130.856 L 242.501, 141.187 L 220.39, 131.581 L 218.396, 130.856 z "/>
<path style="fill:rgb(255, 0, 0);fill-opacity:0;fill-rule:evenodd;stroke:rgb(255, 0, 107);stroke-width:1;" d="M 217.852, 154.78 L 219.846, 151.88 L 241.957, 161.305 L 241.776, 171.273 L 219.302, 161.667 L 217.852, 160.942 L 217.852, 154.78 z "/>
<path style="fill:rgb(0, 255, 0);fill-opacity:0;fill-rule:evenodd;stroke:rgb(255, 0, 107);stroke-width:1;" d="M 218.396, 141.006 L 218.577, 134.119 L 220.39, 131.581 L 242.501, 141.187 L 242.139, 151.155 L 220.39, 141.731 L 218.396, 141.006 z "/>
<path style="fill:rgb(0, 0, 255);fill-opacity:0;fill-rule:evenodd;stroke:rgb(255, 0, 107);stroke-width:1;" d="M 217.49, 181.06 L 217.49, 174.536 L 219.483, 171.998 L 241.595, 181.423 L 241.414, 191.21 L 220.208, 182.329 L 217.49, 181.06 z "/>
<path style="fill:rgb(255, 255, 0);fill-opacity:0;fill-rule:evenodd;stroke:rgb(255, 0, 107);stroke-width:1;" d="M 599.909, 407.25 L 611.871, 391.119 L 619.665, 394.382 L 607.884, 410.512 L 599.909, 407.25 z "/>
<path style="fill:rgb(255, 0, 0);fill-opacity:0;fill-rule:evenodd;stroke:rgb(255, 0, 107);stroke-width:1;" d="M 896.783, 590.666 L 903.308, 581.785 L 908.382, 583.96 L 914.907, 586.679 L 908.382, 595.56 L 896.783, 590.666 z "/>
<path style="fill:rgb(0, 255, 0);fill-opacity:0;fill-rule:evenodd;stroke:rgb(255, 0, 107);stroke-width:1;" d="M 656.457, 47.4853 L 662.8, 38.4232 L 674.4, 42.9542 L 668.237, 52.0163 L 656.457, 47.4853 z "/>
<path style="fill:rgb(0, 0, 255);fill-opacity:0;fill-rule:evenodd;stroke:rgb(255, 0, 107);stroke-width:1;" d="M 670.231, 453.647 L 678.568, 441.323 L 684.005, 443.498 L 675.668, 455.822 L 670.231, 453.647 z "/>
<path style="fill:rgb(255, 255, 0);fill-opacity:0;fill-rule:evenodd;stroke:rgb(255, 0, 107);stroke-width:1;" d="M 80.6525, 599.003 L 85.3647, 593.022 L 93.8831, 602.266 L 92.6144, 604.078 L 80.6525, 599.003 z "/>
<path style="fill:rgb(255, 0, 0);fill-opacity:0;fill-rule:evenodd;stroke:rgb(255, 0, 107);stroke-width:1;" d="M 12.6869, 28.4549 L 33.8922, 0 L 107.476, 31.3548 L 86.8147, 59.266 L 80.6525, 56.7286 L 57.4536, 46.7603 L 46.5791, 61.6221 L 32.4422, 55.4599 L 42.9542, 41.3231 L 12.6869, 28.4549 z "/>
<path style="fill:rgb(0, 255, 0);fill-opacity:0;fill-rule:evenodd;stroke:rgb(255, 0, 107);stroke-width:1;" d="M 5.43725, 322.972 L 59.0847, 295.786 L 73.4028, 312.098 L 79.565, 314.816 L 59.8097, 324.785 L 23.1989, 343.271 L 5.43725, 322.972 z "/>
<path style="fill:rgb(0, 0, 255);fill-opacity:0;fill-rule:evenodd;stroke:rgb(255, 0, 107);stroke-width:1;" d="M 21.3865, 404.712 L 38.0607, 381.876 L 46.5791, 370.276 L 60.3534, 376.076 L 35.1609, 410.512 L 21.3865, 404.712 z "/>
<path style="fill:rgb(255, 255, 0);fill-opacity:0;fill-rule:evenodd;stroke:rgb(255, 0, 107);stroke-width:1;" d="M 0, 169.098 L 12.8681, 163.842 L 16.6742, 163.842 L 30.6298, 158.224 L 32.0797, 156.049 L 43.498, 150.974 L 60.1722, 158.405 L 46.0353, 164.024 L 42.048, 163.842 L 37.1545, 166.38 L 36.0671, 165.111 L 30.8111, 167.83 L 28.6362, 165.292 L 25.1926, 167.105 L 27.9112, 170.186 L 21.2053, 172.723 L 20.4803, 174.898 L 8.88083, 178.885 L 0, 169.098 z "/>
<path style="fill:rgb(255, 0, 0);fill-opacity:0;fill-rule:evenodd;stroke:rgb(255, 0, 107);stroke-width:1;" d="M 3.44359, 660.263 L 11.4182, 649.026 L 26.0988, 655.188 L 27.1862, 656.819 L 31.7173, 658.813 L 34.6171, 658.632 L 51.2913, 665.519 L 43.3167, 676.756 L 27.3675, 670.05 L 26.28, 667.15 L 22.1115, 665.338 L 18.6679, 666.425 L 3.44359, 660.263 z "/>
<path style="fill:rgb(0, 255, 0);fill-opacity:0;fill-rule:evenodd;stroke:rgb(255, 0, 107);stroke-width:1;" d="M 6.34345, 398.369 L 19.0304, 380.788 L 23.9239, 374.082 L 27.9112, 372.814 L 33.1672, 374.989 L 34.6171, 373.176 L 39.8731, 375.351 L 35.8858, 380.97 L 38.0607, 381.876 L 21.3865, 404.712 L 6.34345, 398.369 z "/>
<path style="fill:rgb(0, 0, 255);fill-opacity:0;fill-rule:evenodd;stroke:rgb(255, 0, 107);stroke-width:1;" d="M 18.8491, 638.695 L 26.28, 628.364 L 41.8668, 634.889 L 42.9542, 636.701 L 46.5791, 638.151 L 49.4789, 637.97 L 66.1531, 644.857 L 58.7222, 655.369 L 42.048, 648.301 L 41.3231, 646.488 L 36.9733, 644.676 L 33.8922, 645.039 L 18.8491, 638.695 z "/>
<path style="fill:rgb(255, 255, 0);fill-opacity:0;fill-rule:evenodd;stroke:rgb(255, 0, 107);stroke-width:1;" d="M 11.4182, 649.026 L 18.8491, 638.695 L 33.8922, 645.039 L 35.3421, 646.851 L 39.6919, 648.663 L 42.048, 648.301 L 58.7222, 655.369 L 51.2913, 665.519 L 34.6171, 658.632 L 33.3484, 656.457 L 28.8174, 654.644 L 26.0988, 655.188 L 11.4182, 649.026 z "/>
<path style="fill:rgb(255, 0, 0);fill-opacity:0;fill-rule:evenodd;stroke:rgb(255, 0, 107);stroke-width:1;" d="M 21.3865, 720.435 L 36.9733, 699.23 L 46.5791, 703.398 L 46.2166, 703.761 L 30.0861, 725.691 L 26.8237, 724.241 L 25.1926, 722.066 L 21.3865, 720.435 z "/>
<path style="fill:rgb(0, 255, 0);fill-opacity:0;fill-rule:evenodd;stroke:rgb(255, 0, 107);stroke-width:1;" d="M 406.887, 58.9035 L 426.643, 32.261 L 423.018, 30.6298 L 431.717, 19.0304 L 452.923, 28.0924 L 440.961, 44.2229 L 447.848, 47.1228 L 459.628, 30.9923 L 468.147, 34.6171 L 439.873, 73.0403 L 431.174, 69.4155 L 439.692, 57.9973 L 439.148, 56.1849 L 431.899, 53.1038 L 429.724, 56.1849 L 431.174, 56.7286 L 424.105, 66.3344 L 406.887, 58.9035 z "/>
<path style="fill:rgb(0, 0, 255);fill-opacity:0;fill-rule:evenodd;stroke:rgb(255, 0, 107);stroke-width:1;" d="M 369.008, 42.773 L 376.62, 32.261 L 386.769, 36.4295 L 388.401, 34.2546 L 386.951, 33.7109 L 390.575, 28.8174 L 391.3, 28.9986 L 391.663, 28.6362 L 393.838, 25.7363 L 393.113, 25.3738 L 396.013, 21.3865 L 397.1, 21.9302 L 398.55, 19.9366 L 388.219, 15.5868 L 396.738, 4.16855 L 431.717, 19.0304 L 423.018, 30.6298 L 417.943, 28.4549 L 413.231, 27.73 L 411.599, 30.0861 L 413.049, 30.6298 L 406.525, 39.5106 L 404.894, 38.9669 L 403.262, 41.3231 L 406.343, 43.6792 L 411.781, 46.0353 L 403.262, 57.4536 L 369.008, 42.773 z "/>
<path style="fill:rgb(255, 255, 0);fill-opacity:0;fill-rule:evenodd;stroke:rgb(255, 0, 107);stroke-width:1;" d="M 295.424, 50.3851 L 296.874, 23.9239 L 306.298, 24.1051 L 309.379, 25.3738 L 314.273, 27.5487 L 311.735, 30.6298 L 359.221, 50.9289 L 345.809, 69.053 L 334.572, 64.1595 L 339.647, 57.2723 L 335.478, 55.4599 L 334.209, 57.2723 L 312.098, 47.8478 L 310.829, 49.6602 L 311.554, 50.5664 L 309.56, 53.285 L 303.398, 50.7476 L 295.424, 50.3851 z "/>
<path style="fill:rgb(255, 0, 0);fill-opacity:0;fill-rule:evenodd;stroke:rgb(255, 0, 107);stroke-width:1;" d="M 206.072, 22.2927 L 208.428, 22.2927 L 216.04, 22.4739 L 216.04, 25.9175 L 217.49, 28.8174 L 225.464, 28.8174 L 225.464, 32.4422 L 231.627, 32.4422 L 231.627, 23.0177 L 234.164, 23.1989 L 245.582, 23.5614 L 244.132, 51.4726 L 243.589, 52.3788 L 242.682, 52.7413 L 241.595, 52.7413 L 208.065, 38.4232 L 206.072, 22.2927 z "/>
</svg>