<?xml version="1.0" encoding="iso-8859-1" standalone="no"?>
<!DOCTYPE svg PUBLIC "-//W3C//DTD SVG 1.0//EN" "http://www.w3.org/TR/2001/REC-SVG-20010904/DTD/svg10.dtd">
<svg xmlns="http://www.w3.org/2000/svg" width="1028" height="800">
<path style="fill:rgb(255, 0, 0);fill-opacity:0;fill-rule:evenodd;stroke:rgb(0, 255, 57);stroke-width:1;" d="M 646.039, 120.606 L 656.221, 106.737 L 658.152, 107.615 L 661.488, 103.226 L 663.77, 104.104 L 668.861, 97.257 L 674.479, 99.5392 L 678.692, 93.9214 L 690.103, 98.6614 L 690.805, 97.6081 L 693.439, 98.6614 L 706.956, 80.2282 L 721.527, 60.0395 L 735.572, 66.0083 L 746.983, 50.5596 L 798.771, 72.5038 L 801.931, 73.7327 L 738.907, 159.93 L 699.056, 143.077 L 704.499, 135.703 L 691.156, 130.086 L 685.89, 137.459 L 646.039, 120.606 z "/>
<path style="fill:rgb(0, 255, 0);fill-opacity:0;fill-rule:evenodd;stroke:rgb(0, 255, 57);stroke-width:1;" d="M 621.461, 422.559 L 683.432, 337.064 L 764.714, 371.121 L 778.582, 376.915 L 771.385, 386.921 L 760.149, 402.37 L 731.885, 390.432 L 732.412, 389.73 L 700.285, 376.388 L 670.266, 417.819 L 676.059, 420.276 L 671.319, 426.596 L 686.768, 433.092 L 677.463, 446.083 L 621.461, 422.559 z "/>
<path style="fill:rgb(0, 0, 255);fill-opacity:0;fill-rule:evenodd;stroke:rgb(0, 255, 57);stroke-width:1;" d="M 504.367, 757.867 L 537.371, 712.75 L 635.155, 753.829 L 601.448, 800 L 565.635, 785.078 L 566.338, 784.025 L 504.367, 757.867 z "/>
<path style="fill:rgb(255, 255, 0);fill-opacity:0;fill-rule:evenodd;stroke:rgb(0, 255, 57);stroke-width:1;" d="M 525.258, 161.685 L 543.867, 136.054 L 551.24, 139.214 L 553.346, 136.406 L 577.924, 146.763 L 573.711, 152.557 L 578.626, 154.488 L 580.206, 152.381 L 582.313, 151.854 L 584.771, 152.908 L 586.702, 150.45 L 615.668, 162.563 L 613.737, 165.196 L 617.073, 166.601 L 617.775, 168.181 L 616.195, 170.287 L 621.11, 172.394 L 625.324, 166.601 L 649.901, 176.959 L 647.795, 179.767 L 654.992, 182.927 L 635.681, 209.26 L 632.346, 214.176 L 625.85, 222.954 L 570.726, 199.781 L 581.26, 185.21 L 525.258, 161.685 z "/>
<path style="fill:rgb(255, 0, 0);fill-opacity:0;fill-rule:evenodd;stroke:rgb(0, 255, 57);stroke-width:1;" d="M 431.161, 779.811 L 484.003, 707.132 L 493.483, 694.141 L 537.371, 712.75 L 504.367, 757.867 L 474.874, 798.244 L 431.161, 779.811 z "/>
<path style="fill:rgb(0, 255, 0);fill-opacity:0;fill-rule:evenodd;stroke:rgb(0, 255, 57);stroke-width:1;" d="M 623.919, 531.051 L 626.377, 527.54 L 624.095, 526.487 L 633.048, 514.198 L 635.681, 510.336 L 638.139, 511.214 L 640.597, 507.702 L 655.87, 514.022 L 654.817, 515.427 L 665.701, 519.991 L 666.93, 518.06 L 669.388, 517.885 L 676.761, 507.702 L 672.372, 505.771 L 680.097, 495.063 L 686.417, 497.696 L 688.172, 495.238 L 710.292, 504.367 L 708.536, 506.825 L 715.032, 509.458 L 707.659, 519.816 L 732.236, 529.998 L 709.063, 562.3 L 706.605, 561.246 L 704.147, 564.758 L 688.348, 558.262 L 689.576, 556.682 L 682.554, 553.698 L 679.219, 558.262 L 676.234, 558.789 L 673.25, 563.002 L 675.181, 563.88 L 667.281, 575.115 L 660.61, 572.306 L 658.855, 574.764 L 636.735, 565.635 L 638.49, 563.178 L 632.17, 560.544 L 640.421, 548.958 L 642.528, 549.835 L 645.337, 545.798 L 644.635, 543.515 L 647.97, 538.776 L 641.299, 536.142 L 640.07, 537.722 L 623.919, 531.051 z "/>
<path style="fill:rgb(0, 0, 255);fill-opacity:0;fill-rule:evenodd;stroke:rgb(0, 255, 57);stroke-width:1;" d="M 94.6237, 435.55 L 118.85, 402.721 L 161.51, 420.979 L 169.234, 410.445 L 244.02, 442.396 L 221.374, 472.943 L 156.77, 445.381 L 154.488, 446.259 L 151.152, 446.434 L 148.694, 445.907 L 147.114, 445.205 L 145.885, 444.327 L 144.481, 442.572 L 143.779, 440.114 L 142.374, 441.87 L 140.092, 440.992 L 132.192, 451.701 L 94.6237, 435.55 z "/>
<path style="fill:rgb(255, 255, 0);fill-opacity:0;fill-rule:evenodd;stroke:rgb(0, 255, 57);stroke-width:1;" d="M 702.216, 597.411 L 712.925, 582.488 L 718.192, 584.595 L 724.161, 576.344 L 723.81, 574.062 L 725.214, 572.306 L 707.307, 564.933 L 709.063, 562.3 L 732.236, 529.998 L 746.632, 535.967 L 758.218, 519.64 L 764.363, 522.273 L 765.767, 520.342 L 773.667, 523.502 L 771.209, 526.838 L 785.605, 532.807 L 788.062, 529.471 L 803.336, 535.791 L 799.824, 540.882 L 796.84, 539.653 L 787.009, 553.346 L 789.993, 554.4 L 786.482, 559.491 L 777.178, 555.804 L 771.736, 563.353 L 776.125, 565.109 L 771.911, 570.902 L 768.751, 569.497 L 762.958, 577.573 L 765.943, 578.802 L 761.905, 584.595 L 757.867, 582.84 L 752.249, 590.564 L 761.027, 594.075 L 757.691, 598.815 L 754.531, 597.411 L 744.349, 611.455 L 747.509, 612.684 L 743.998, 617.775 L 728.374, 611.279 L 730.832, 607.944 L 716.261, 601.799 L 713.803, 605.135 L 706.079, 601.975 L 707.659, 599.693 L 702.216, 597.411 z "/>
<path style="fill:rgb(255, 0, 0);fill-opacity:0;fill-rule:evenodd;stroke:rgb(0, 255, 57);stroke-width:1;" d="M 798.771, 182.401 L 810.182, 166.776 L 808.075, 165.723 L 836.515, 126.926 L 838.446, 127.628 L 845.82, 117.621 L 862.673, 124.819 L 875.488, 130.086 L 892.166, 137.283 L 897.784, 139.566 L 890.235, 149.923 L 864.253, 185.561 L 851.086, 203.643 L 845.293, 201.361 L 844.942, 201.887 L 798.771, 182.401 z "/>
<path style="fill:rgb(0, 255, 0);fill-opacity:0;fill-rule:evenodd;stroke:rgb(0, 255, 57);stroke-width:1;" d="M 198.903, 391.135 L 214.352, 369.717 L 221.374, 359.886 L 228.923, 349.353 L 229.8, 348.124 L 309.151, 381.303 L 299.846, 393.943 L 278.253, 424.139 L 198.903, 391.135 z "/>
<path style="fill:rgb(0, 0, 255);fill-opacity:0;fill-rule:evenodd;stroke:rgb(0, 255, 57);stroke-width:1;" d="M 543.867, 533.684 L 547.904, 528.242 L 550.538, 529.296 L 560.193, 515.953 L 557.384, 514.9 L 561.071, 509.809 L 570.551, 513.671 L 575.642, 506.474 L 571.253, 504.542 L 575.642, 498.398 L 578.275, 499.451 L 584.068, 491.727 L 581.26, 490.498 L 585.473, 484.88 L 589.862, 486.636 L 595.304, 479.087 L 586.175, 475.225 L 590.037, 469.958 L 593.373, 471.363 L 602.853, 458.196 L 599.868, 456.967 L 603.555, 451.876 L 619.179, 458.372 L 616.546, 461.883 L 631.117, 467.852 L 633.575, 464.341 L 640.948, 467.325 L 639.017, 469.783 L 645.512, 472.592 L 634.628, 487.689 L 628.835, 485.407 L 623.568, 492.78 L 624.973, 493.307 L 622.339, 497.169 L 622.69, 499.451 L 621.461, 501.207 L 637.437, 507.878 L 635.681, 510.336 L 633.048, 514.198 L 624.095, 526.487 L 622.339, 528.944 L 604.608, 521.571 L 603.379, 523.327 L 600.571, 523.853 L 594.426, 532.456 L 600.044, 534.738 L 589.335, 549.66 L 582.664, 546.851 L 581.084, 549.133 L 573.711, 545.973 L 576.169, 542.638 L 561.773, 536.669 L 559.315, 540.004 L 543.867, 533.684 z "/>
<path style="fill:rgb(255, 255, 0);fill-opacity:0;fill-rule:evenodd;stroke:rgb(0, 255, 57);stroke-width:1;" d="M 553.873, 613.035 L 574.94, 584.244 L 657.099, 619.179 L 656.221, 620.408 L 636.384, 647.092 L 626.904, 660.434 L 612.684, 654.466 L 583.717, 642.352 L 557.911, 631.819 L 567.566, 618.828 L 553.873, 613.035 z "/>
<path style="fill:rgb(255, 0, 0);fill-opacity:0;fill-rule:evenodd;stroke:rgb(0, 255, 57);stroke-width:1;" d="M 849.506, 205.749 L 851.086, 203.643 L 864.253, 185.561 L 876.19, 190.652 L 882.51, 182.05 L 978.012, 222.251 L 971.516, 231.205 L 983.278, 236.12 L 968.707, 255.958 L 849.506, 205.749 z "/>
<path style="fill:rgb(0, 255, 0);fill-opacity:0;fill-rule:evenodd;stroke:rgb(0, 255, 57);stroke-width:1;" d="M 239.807, 497.345 L 241.562, 494.887 L 246.829, 497.169 L 247.356, 496.467 L 252.973, 498.925 L 254.729, 496.643 L 262.629, 499.978 L 275.971, 482.072 L 257.187, 473.996 L 271.758, 454.334 L 368.312, 495.589 L 361.466, 504.718 L 354.268, 514.549 L 346.895, 511.389 L 346.017, 512.618 L 334.431, 507.702 L 322.142, 524.205 L 283.695, 507.702 L 279.307, 513.496 L 251.042, 501.382 L 250.691, 501.909 L 240.509, 497.696 L 239.807, 497.345 z "/>
<path style="fill:rgb(0, 0, 255);fill-opacity:0;fill-rule:evenodd;stroke:rgb(0, 255, 57);stroke-width:1;" d="M 486.46, 363.748 L 510.16, 330.919 L 525.433, 336.888 L 523.151, 340.575 L 537.722, 347.07 L 552.82, 353.39 L 566.864, 333.904 L 598.991, 347.422 L 575.642, 379.548 L 563.704, 396.05 L 540.004, 386.043 L 486.46, 363.748 z "/>
<path style="fill:rgb(255, 255, 0);fill-opacity:0;fill-rule:evenodd;stroke:rgb(0, 255, 57);stroke-width:1;" d="M 821.066, 737.678 L 849.682, 698.881 L 912.881, 725.741 L 897.257, 747.158 L 898.31, 747.509 L 885.495, 765.065 L 853.193, 751.196 L 821.066, 737.678 z "/>
<path style="fill:rgb(255, 0, 0);fill-opacity:0;fill-rule:evenodd;stroke:rgb(0, 255, 57);stroke-width:1;" d="M 617.424, 234.54 L 625.85, 222.954 L 632.346, 214.176 L 642.704, 218.565 L 649.55, 209.085 L 667.457, 184.332 L 706.254, 200.658 L 706.605, 204.872 L 669.212, 256.309 L 635.857, 242.265 L 617.424, 234.54 z "/>
<path style="fill:rgb(0, 255, 0);fill-opacity:0;fill-rule:evenodd;stroke:rgb(0, 255, 57);stroke-width:1;" d="M 193.987, 305.113 L 201.536, 294.404 L 198.376, 293 L 206.276, 281.94 L 229.625, 291.595 L 227.869, 294.053 L 254.027, 304.937 L 251.92, 307.922 L 255.256, 309.326 L 282.818, 320.737 L 284.924, 317.928 L 303.357, 325.653 L 291.946, 341.453 L 288.26, 339.873 L 284.924, 344.613 L 280.535, 342.857 L 272.46, 354.268 L 227.869, 335.659 L 237.174, 323.02 L 193.987, 305.113 z "/>
<path style="fill:rgb(0, 0, 255);fill-opacity:0;fill-rule:evenodd;stroke:rgb(0, 255, 57);stroke-width:1;" d="M 251.92, 704.323 L 257.889, 696.072 L 272.811, 675.708 L 321.615, 696.423 L 332.148, 682.028 L 352.513, 690.63 L 347.246, 697.828 L 346.719, 697.652 L 320.562, 733.641 L 301.251, 725.565 L 306.342, 718.543 L 280.711, 707.659 L 275.795, 714.33 L 251.92, 704.323 z "/>
<path style="fill:rgb(255, 255, 0);fill-opacity:0;fill-rule:evenodd;stroke:rgb(0, 255, 57);stroke-width:1;" d="M 774.896, 778.407 L 786.131, 762.958 L 808.778, 732.412 L 821.066, 737.678 L 853.193, 751.196 L 819.311, 797.191 L 774.896, 778.407 z "/>
<path style="fill:rgb(255, 0, 0);fill-opacity:0;fill-rule:evenodd;stroke:rgb(0, 255, 57);stroke-width:1;" d="M 338.117, 101.47 L 355.497, 77.5949 L 363.748, 81.106 L 367.259, 76.5416 L 403.423, 91.6392 L 410.621, 94.7992 L 420.803, 80.7549 L 434.672, 86.7237 L 414.132, 114.988 L 410.27, 120.255 L 399.386, 115.69 L 391.837, 126.048 L 390.608, 126.223 L 384.639, 123.766 L 383.937, 122.361 L 384.815, 121.308 L 371.121, 115.515 L 370.244, 116.743 L 369.19, 117.095 L 342.682, 106.035 L 342.506, 105.157 L 343.384, 103.752 L 338.117, 101.47 z "/>
<path style="fill:rgb(0, 255, 0);fill-opacity:0;fill-rule:evenodd;stroke:rgb(0, 255, 57);stroke-width:1;" d="M 99.1881, 592.144 L 104.279, 585.297 L 116.743, 592.495 L 121.132, 586.351 L 127.277, 577.924 L 142.725, 556.858 L 148.694, 548.607 L 163.09, 554.751 L 131.49, 597.937 L 142.374, 602.502 L 212.772, 632.17 L 199.254, 650.603 L 187.316, 643.406 L 176.607, 636.91 L 143.779, 616.722 L 143.077, 617.775 L 99.1881, 592.144 z "/>
<path style="fill:rgb(0, 0, 255);fill-opacity:0;fill-rule:evenodd;stroke:rgb(0, 255, 57);stroke-width:1;" d="M 756.638, 416.59 L 776.476, 389.203 L 771.385, 386.921 L 778.582, 376.915 L 840.026, 402.721 L 820.715, 429.405 L 824.402, 430.81 L 816.502, 441.694 L 756.638, 416.59 z M 783.498, 409.568 L 784.727, 412.552 L 802.633, 420.101 L 806.496, 419.223 L 812.815, 410.445 L 811.762, 407.285 L 793.856, 399.737 L 789.993, 400.614 L 783.498, 409.568 z "/>
<path style="fill:rgb(255, 255, 0);fill-opacity:0;fill-rule:evenodd;stroke:rgb(0, 255, 57);stroke-width:1;" d="M 715.91, 463.638 L 723.458, 453.105 L 728.725, 455.387 L 748.563, 428.176 L 808.251, 453.105 L 800.351, 463.989 L 796.313, 462.234 L 776.827, 489.094 L 715.91, 463.638 z M 748.036, 458.021 L 749.265, 460.829 L 767.171, 468.378 L 771.034, 467.501 L 777.354, 458.723 L 776.476, 455.738 L 758.394, 448.19 L 754.531, 449.067 L 748.036, 458.021 z "/>
<path style="fill:rgb(255, 0, 0);fill-opacity:0;fill-rule:evenodd;stroke:rgb(0, 255, 57);stroke-width:1;" d="M 784.551, 492.429 L 804.038, 465.569 L 800.351, 463.989 L 808.251, 453.105 L 868.466, 478.56 L 851.437, 502.085 L 847.926, 500.68 L 846.522, 502.26 L 850.208, 503.84 L 841.255, 516.129 L 784.551, 492.429 z M 811.762, 484.88 L 812.815, 487.865 L 817.731, 489.796 L 830.722, 495.414 L 834.584, 494.536 L 840.904, 485.758 L 840.026, 482.598 L 822.12, 475.049 L 818.258, 475.927 L 811.762, 484.88 z "/>
<path style="fill:rgb(0, 255, 0);fill-opacity:0;fill-rule:evenodd;stroke:rgb(0, 255, 57);stroke-width:1;" d="M 816.502, 441.694 L 824.402, 430.81 L 828.44, 432.565 L 847.751, 405.881 L 904.104, 429.581 L 876.893, 466.974 L 816.502, 441.694 z M 846.873, 436.252 L 847.926, 439.236 L 866.008, 446.785 L 869.695, 445.907 L 876.19, 437.13 L 875.137, 434.145 L 858.811, 427.299 L 857.231, 426.596 L 853.368, 427.474 L 846.873, 436.252 z "/>
<path style="fill:rgb(0, 0, 255);fill-opacity:0;fill-rule:evenodd;stroke:rgb(0, 255, 57);stroke-width:1;" d="M 479.965, 626.553 L 488.567, 614.966 L 484.88, 613.386 L 507.176, 583.366 L 510.687, 584.771 L 519.289, 573.184 L 524.731, 575.466 L 536.669, 580.557 L 533.509, 584.946 L 550.011, 591.968 L 548.431, 594.075 L 551.767, 595.655 L 540.004, 611.63 L 528.944, 606.89 L 522.976, 614.966 L 534.036, 619.706 L 522.273, 635.681 L 519.289, 634.277 L 517.533, 636.559 L 500.68, 629.361 L 497.345, 633.926 L 492.78, 631.995 L 479.965, 626.553 z "/>
<path style="fill:rgb(255, 255, 0);fill-opacity:0;fill-rule:evenodd;stroke:rgb(0, 255, 57);stroke-width:1;" d="M 766.996, 338.995 L 788.413, 309.677 L 784.376, 308.097 L 790.169, 300.022 L 805.793, 306.693 L 851.964, 326.18 L 846.171, 334.079 L 841.606, 332.148 L 820.189, 361.466 L 798.069, 352.162 L 819.662, 323.02 L 810.709, 319.157 L 789.291, 348.475 L 766.996, 338.995 z "/>
<path style="fill:rgb(255, 0, 0);fill-opacity:0;fill-rule:evenodd;stroke:rgb(0, 255, 57);stroke-width:1;" d="M 318.104, 676.059 L 329.515, 660.61 L 327.233, 659.557 L 335.133, 648.672 L 324.775, 644.284 L 336.888, 627.606 L 383.937, 647.443 L 352.513, 690.63 L 332.148, 682.028 L 318.104, 676.059 z "/>
<path style="fill:rgb(0, 255, 0);fill-opacity:0;fill-rule:evenodd;stroke:rgb(0, 255, 57);stroke-width:1;" d="M 438.359, 281.062 L 445.732, 271.056 L 448.014, 267.896 L 462.409, 273.864 L 464.692, 270.529 L 463.463, 270.178 L 464.692, 268.247 L 465.921, 268.773 L 469.081, 264.56 L 454.685, 258.591 L 464.516, 245.074 L 519.465, 268.071 L 509.809, 281.589 L 495.414, 275.444 L 488.567, 284.749 L 502.962, 290.893 L 493.307, 304.06 L 438.359, 281.062 z "/>
<path style="fill:rgb(0, 0, 255);fill-opacity:0;fill-rule:evenodd;stroke:rgb(0, 255, 57);stroke-width:1;" d="M 919.377, 339.171 L 927.101, 328.637 L 934.826, 331.973 L 939.741, 325.302 L 946.237, 316.348 L 938.512, 313.189 L 946.237, 302.48 L 974.852, 314.417 L 1005.57, 327.408 L 997.674, 338.117 L 989.774, 334.782 L 978.363, 350.406 L 986.263, 353.741 L 978.539, 364.275 L 919.377, 339.171 z M 947.992, 337.239 L 949.221, 337.591 L 949.923, 338.468 L 949.572, 339.697 L 951.679, 338.644 L 961.51, 342.857 L 962.739, 344.437 L 964.143, 344.086 L 966.25, 344.964 L 965.196, 342.857 L 974.501, 330.042 L 976.432, 329.164 L 974.676, 327.935 L 975.379, 327.233 L 972.57, 327.759 L 963.09, 323.722 L 961.861, 321.966 L 960.456, 322.668 L 959.228, 322.142 L 959.579, 323.897 L 950.274, 336.362 L 947.992, 337.239 z "/>
<path style="fill:rgb(255, 255, 0);fill-opacity:0;fill-rule:evenodd;stroke:rgb(0, 255, 57);stroke-width:1;" d="M 883.739, 387.799 L 891.464, 377.266 L 899.188, 380.601 L 909.721, 366.381 L 910.599, 364.977 L 902.875, 361.641 L 910.599, 351.108 L 969.936, 376.037 L 962.036, 386.746 L 954.136, 383.41 L 942.725, 399.034 L 950.625, 402.37 L 942.901, 412.903 L 883.739, 387.799 z M 912.355, 386.043 L 913.583, 386.395 L 914.11, 387.448 L 913.935, 388.677 L 915.866, 387.448 L 925.872, 391.661 L 926.926, 393.241 L 928.506, 392.89 L 930.612, 393.768 L 929.383, 391.661 L 938.688, 378.846 L 940.619, 377.968 L 939.039, 376.739 L 939.566, 376.037 L 936.757, 376.564 L 927.277, 372.526 L 926.223, 370.77 L 924.643, 371.472 L 923.415, 370.946 L 923.766, 372.701 L 914.637, 385.341 L 912.355, 386.043 z "/>
<path style="fill:rgb(255, 0, 0);fill-opacity:0;fill-rule:evenodd;stroke:rgb(0, 255, 57);stroke-width:1;" d="M 942.901, 412.903 L 950.625, 402.37 L 957.999, 405.53 L 969.41, 389.906 L 962.036, 386.746 L 969.936, 376.037 L 1028.57, 400.966 L 1020.67, 411.499 L 1013.12, 408.339 L 1006.8, 416.765 L 1001.71, 423.963 L 1009.26, 427.123 L 1001.54, 437.656 L 942.901, 412.903 z M 971.165, 410.797 L 972.219, 411.148 L 972.921, 412.201 L 972.57, 413.43 L 974.676, 412.201 L 984.683, 416.414 L 985.736, 417.994 L 987.316, 417.643 L 989.247, 418.521 L 988.194, 416.414 L 997.498, 403.599 L 999.429, 402.721 L 997.849, 401.668 L 998.376, 400.79 L 995.567, 401.317 L 986.087, 397.279 L 985.21, 395.874 L 985.034, 395.699 L 983.454, 396.226 L 982.225, 395.699 L 982.576, 397.454 L 973.272, 410.094 L 971.165, 410.797 z "/>
<path style="fill:rgb(0, 255, 0);fill-opacity:0;fill-rule:evenodd;stroke:rgb(0, 255, 57);stroke-width:1;" d="M 825.104, 363.046 L 832.829, 352.337 L 840.202, 355.497 L 849.857, 342.506 L 851.086, 342.155 L 852.491, 340.399 L 844.064, 336.888 L 846.171, 334.079 L 851.964, 326.18 L 885.144, 340.224 L 910.599, 351.108 L 902.875, 361.641 L 895.501, 358.657 L 883.915, 374.106 L 891.464, 377.266 L 883.739, 387.799 L 825.104, 363.046 z M 853.72, 360.764 L 854.422, 363.221 L 855.124, 363.397 L 856.88, 362.695 L 867.588, 367.259 L 868.642, 368.839 L 870.924, 368.488 L 871.626, 367.435 L 870.748, 366.03 L 878.824, 355.146 L 881.282, 354.795 L 882.335, 353.917 L 881.106, 351.459 L 878.648, 351.986 L 868.115, 347.597 L 867.237, 345.666 L 864.077, 346.193 L 863.551, 347.07 L 863.902, 348.65 L 856.002, 359.71 L 854.422, 360.061 L 853.72, 360.764 z "/>
<path style="fill:rgb(0, 0, 255);fill-opacity:0;fill-rule:evenodd;stroke:rgb(0, 255, 57);stroke-width:1;" d="M 860.566, 314.417 L 868.291, 303.709 L 876.366, 307.22 L 877.595, 305.464 L 877.595, 304.411 L 887.25, 291.42 L 879.702, 288.26 L 881.633, 285.627 L 887.601, 277.551 L 946.237, 302.48 L 938.512, 313.189 L 930.963, 310.029 L 921.483, 323.02 L 919.903, 323.371 L 918.675, 325.126 L 927.101, 328.637 L 919.377, 339.171 L 860.566, 314.417 z M 889.533, 311.784 L 890.235, 314.242 L 890.761, 314.417 L 892.517, 313.715 L 903.226, 318.28 L 904.279, 320.035 L 906.561, 319.508 L 907.264, 318.455 L 906.561, 317.226 L 914.637, 306.166 L 916.919, 305.815 L 917.972, 305.113 L 916.743, 302.655 L 914.286, 303.006 L 903.928, 298.618 L 902.875, 296.686 L 899.89, 297.213 L 899.188, 298.091 L 899.715, 299.846 L 899.013, 300.724 L 891.639, 310.731 L 890.059, 311.082 L 889.533, 311.784 z "/>
<path style="fill:rgb(255, 255, 0);fill-opacity:0;fill-rule:evenodd;stroke:rgb(0, 255, 57);stroke-width:1;" d="M 58.4595, 186.79 L 68.9928, 172.394 L 87.2504, 180.294 L 95.3259, 169.41 L 76.8927, 161.685 L 77.5949, 160.632 L 86.1971, 149.045 L 111.652, 159.93 L 110.072, 162.036 L 113.759, 163.441 L 115.339, 161.51 L 140.97, 172.394 L 137.81, 176.432 L 131.666, 185.034 L 113.759, 177.485 L 106.035, 188.018 L 123.941, 195.567 L 113.232, 209.963 L 58.4595, 186.79 z "/>
<path style="fill:rgb(255, 0, 0);fill-opacity:0;fill-rule:evenodd;stroke:rgb(0, 255, 57);stroke-width:1;" d="M 411.674, 709.59 L 422.559, 694.668 L 424.49, 695.37 L 427.825, 690.63 L 426.07, 689.928 L 439.412, 671.494 L 460.829, 680.448 L 452.754, 691.508 L 462.936, 695.896 L 471.012, 684.661 L 493.483, 694.141 L 484.003, 707.132 L 478.912, 705.025 L 461.883, 728.374 L 445.03, 721.176 L 452.403, 710.994 L 443.45, 707.132 L 434.672, 719.245 L 411.674, 709.59 z "/>
<path style="fill:rgb(0, 255, 0);fill-opacity:0;fill-rule:evenodd;stroke:rgb(0, 255, 57);stroke-width:1;" d="M 446.083, 349.353 L 448.892, 345.315 L 467.149, 320.211 L 476.805, 306.693 L 515.953, 323.02 L 510.16, 330.919 L 486.46, 363.748 L 485.056, 365.679 L 446.083, 349.353 z "/>
<path style="fill:rgb(0, 0, 255);fill-opacity:0;fill-rule:evenodd;stroke:rgb(0, 255, 57);stroke-width:1;" d="M 162.914, 341.453 L 190.301, 303.533 L 193.987, 305.113 L 237.174, 323.02 L 227.869, 335.659 L 221.9, 344.086 L 213.825, 340.75 L 212.42, 342.682 L 201.712, 357.604 L 162.914, 341.453 z "/>
<path style="fill:rgb(255, 255, 0);fill-opacity:0;fill-rule:evenodd;stroke:rgb(0, 255, 57);stroke-width:1;" d="M 469.432, 138.161 L 488.216, 112.706 L 500.154, 117.621 L 502.085, 114.812 L 514.9, 120.255 L 516.129, 122.186 L 515.076, 123.59 L 519.991, 125.697 L 521.045, 124.292 L 523.678, 123.941 L 534.562, 128.506 L 532.456, 131.314 L 543.867, 136.054 L 525.258, 161.685 L 469.432, 138.161 z "/>
<path style="fill:rgb(255, 0, 0);fill-opacity:0;fill-rule:evenodd;stroke:rgb(0, 255, 57);stroke-width:1;" d="M 890.235, 149.923 L 897.784, 139.566 L 906.737, 127.452 L 918.148, 132.192 L 919.201, 130.963 L 975.379, 154.663 L 974.325, 156.068 L 975.905, 156.77 L 974.501, 158.701 L 968.707, 166.776 L 963.441, 164.494 L 960.105, 169.059 L 957.472, 167.83 L 952.381, 174.676 L 946.237, 172.043 L 945.534, 173.096 L 938.688, 170.287 L 940.092, 168.356 L 938.161, 167.479 L 939.39, 165.548 L 929.559, 161.51 L 926.75, 165.196 L 890.235, 149.923 z "/>
<path style="fill:rgb(0, 255, 0);fill-opacity:0;fill-rule:evenodd;stroke:rgb(0, 255, 57);stroke-width:1;" d="M 636.384, 647.092 L 656.221, 620.408 L 710.994, 643.757 L 691.332, 670.617 L 636.384, 647.092 z "/>
<path style="fill:rgb(0, 0, 255);fill-opacity:0;fill-rule:evenodd;stroke:rgb(0, 255, 57);stroke-width:1;" d="M 512.969, 667.983 L 519.816, 658.503 L 532.982, 640.772 L 547.027, 646.741 L 557.911, 631.819 L 583.717, 642.352 L 552.82, 684.837 L 512.969, 667.983 z "/>
<path style="fill:rgb(255, 255, 0);fill-opacity:0;fill-rule:evenodd;stroke:rgb(0, 255, 57);stroke-width:1;" d="M 442.396, 493.131 L 459.074, 469.783 L 464.867, 461.883 L 506.298, 479.087 L 483.652, 510.336 L 442.396, 493.131 z "/>
<path style="fill:rgb(255, 0, 0);fill-opacity:0;fill-rule:evenodd;stroke:rgb(0, 255, 57);stroke-width:1;" d="M 302.831, 360.939 L 311.433, 348.826 L 314.066, 347.948 L 317.051, 344.086 L 316.173, 342.33 L 324.248, 331.271 L 366.03, 348.65 L 358.13, 359.71 L 356.024, 360.237 L 353.215, 364.275 L 353.39, 366.206 L 344.613, 378.319 L 341.453, 376.915 L 339.346, 379.899 L 332.499, 377.09 L 334.606, 374.106 L 325.653, 370.419 L 323.546, 373.228 L 318.631, 371.297 L 320.737, 368.312 L 312.486, 364.801 L 310.38, 367.786 L 304.762, 365.504 L 306.869, 362.519 L 302.831, 360.939 z "/>
<path style="fill:rgb(0, 255, 0);fill-opacity:0;fill-rule:evenodd;stroke:rgb(0, 255, 57);stroke-width:1;" d="M 402.721, 326.004 L 420.979, 300.9 L 436.779, 307.571 L 439.939, 303.182 L 453.632, 308.975 L 450.472, 313.189 L 467.149, 320.211 L 448.892, 345.315 L 441.694, 342.33 L 440.816, 343.384 L 434.496, 340.926 L 433.97, 341.628 L 414.308, 333.377 L 414.834, 332.675 L 408.865, 330.217 L 409.743, 328.988 L 402.721, 326.004 z "/>
<path style="fill:rgb(0, 0, 255);fill-opacity:0;fill-rule:evenodd;stroke:rgb(0, 255, 57);stroke-width:1;" d="M 414.132, 114.988 L 434.672, 86.7237 L 483.125, 107.088 L 475.752, 117.27 L 468.905, 114.461 L 455.738, 132.368 L 414.132, 114.988 z "/>
<path style="fill:rgb(255, 255, 0);fill-opacity:0;fill-rule:evenodd;stroke:rgb(0, 255, 57);stroke-width:1;" d="M 386.57, 469.958 L 416.239, 428.703 L 426.948, 413.781 L 446.785, 386.219 L 449.067, 383.059 L 463.287, 389.028 L 462.585, 389.906 L 447.136, 411.499 L 433.268, 430.634 L 400.79, 475.752 L 386.57, 469.958 z "/>
<path style="fill:rgb(255, 0, 0);fill-opacity:0;fill-rule:evenodd;stroke:rgb(0, 255, 57);stroke-width:1;" d="M 552.82, 684.837 L 583.717, 642.352 L 612.684, 654.466 L 601.975, 669.037 L 581.26, 697.125 L 552.82, 684.837 z "/>
<path style="fill:rgb(0, 255, 0);fill-opacity:0;fill-rule:evenodd;stroke:rgb(0, 255, 57);stroke-width:1;" d="M 263.331, 563.353 L 273.162, 550.011 L 277.024, 544.744 L 290.191, 527.013 L 294.755, 520.869 L 323.02, 532.982 L 299.671, 564.582 L 291.771, 575.466 L 263.331, 563.353 z "/>
<path style="fill:rgb(0, 0, 255);fill-opacity:0;fill-rule:evenodd;stroke:rgb(0, 255, 57);stroke-width:1;" d="M 73.0305, 556.155 L 76.1905, 551.767 L 73.7327, 550.713 L 84.6171, 535.791 L 92.517, 524.907 L 133.772, 542.287 L 127.803, 550.538 L 114.988, 568.093 L 112.355, 567.04 L 109.195, 571.429 L 100.768, 567.917 L 103.928, 563.529 L 98.837, 561.422 L 95.5014, 565.811 L 86.8993, 562.124 L 90.0592, 557.735 L 84.9682, 555.453 L 81.8082, 559.842 L 73.0305, 556.155 z "/>
<path style="fill:rgb(255, 255, 0);fill-opacity:0;fill-rule:evenodd;stroke:rgb(0, 255, 57);stroke-width:1;" d="M 376.915, 757.34 L 396.05, 731.007 L 432.916, 746.456 L 435.901, 747.685 L 423.261, 764.889 L 435.374, 769.98 L 428.703, 779.109 L 376.915, 757.34 z "/>
<path style="fill:rgb(255, 0, 0);fill-opacity:0;fill-rule:evenodd;stroke:rgb(0, 255, 57);stroke-width:1;" d="M 344.613, 452.578 L 352.513, 441.694 L 353.566, 440.114 L 356.024, 441.167 L 367.435, 425.368 L 364.977, 424.314 L 374.281, 411.148 L 402.194, 422.734 L 372.35, 463.989 L 344.613, 452.578 z "/>
<path style="fill:rgb(0, 255, 0);fill-opacity:0;fill-rule:evenodd;stroke:rgb(0, 255, 57);stroke-width:1;" d="M 240.86, 234.189 L 255.958, 213.123 L 286.504, 225.938 L 302.655, 232.785 L 296.511, 241.211 L 300.724, 242.967 L 293.526, 252.798 L 289.489, 251.042 L 287.558, 253.676 L 271.407, 246.829 L 240.86, 234.189 z "/>
<path style="fill:rgb(0, 0, 255);fill-opacity:0;fill-rule:evenodd;stroke:rgb(0, 255, 57);stroke-width:1;" d="M 52.1396, 703.796 L 58.6351, 695.194 L 61.2684, 694.492 L 74.9616, 676.41 L 74.786, 673.777 L 80.9304, 665.526 L 108.317, 677.463 L 102.172, 685.539 L 99.1881, 686.943 L 85.4948, 705.201 L 86.0215, 707.132 L 79.526, 715.558 L 52.1396, 703.796 z "/>
<path style="fill:rgb(255, 255, 0);fill-opacity:0;fill-rule:evenodd;stroke:rgb(0, 255, 57);stroke-width:1;" d="M 168.532, 669.037 L 180.118, 653.061 L 193.812, 658.855 L 201.361, 648.497 L 202.765, 649.199 L 205.223, 645.864 L 216.985, 650.779 L 214.878, 653.939 L 229.449, 660.083 L 216.458, 677.639 L 210.138, 686.417 L 168.532, 669.037 z "/>
<path style="fill:rgb(255, 0, 0);fill-opacity:0;fill-rule:evenodd;stroke:rgb(0, 255, 57);stroke-width:1;" d="M 700.812, 310.906 L 716.261, 290.015 L 735.045, 297.915 L 731.534, 302.831 L 730.656, 302.48 L 727.672, 306.693 L 729.954, 307.746 L 731.183, 306.166 L 744.174, 311.609 L 742.945, 313.189 L 745.929, 314.417 L 749.089, 310.204 L 748.212, 309.853 L 751.723, 305.113 L 769.629, 312.662 L 754.356, 333.553 L 700.812, 310.906 z "/>
<path style="fill:rgb(0, 255, 0);fill-opacity:0;fill-rule:evenodd;stroke:rgb(0, 255, 57);stroke-width:1;" d="M 748.387, 246.127 L 763.66, 225.236 L 817.204, 247.882 L 801.756, 268.773 L 783.849, 261.224 L 787.536, 256.309 L 788.238, 256.66 L 791.398, 252.447 L 788.413, 251.218 L 787.185, 252.798 L 774.194, 247.356 L 775.422, 245.776 L 772.965, 244.722 L 769.98, 248.936 L 770.858, 249.287 L 767.171, 254.202 L 748.387, 246.127 z "/>
<path style="fill:rgb(0, 0, 255);fill-opacity:0;fill-rule:evenodd;stroke:rgb(0, 255, 57);stroke-width:1;" d="M 295.106, 222.603 L 306.869, 212.42 L 313.364, 215.229 L 315.295, 217.16 L 318.28, 217.16 L 317.577, 215.932 L 326.355, 203.643 L 328.988, 202.414 L 328.286, 201.009 L 322.668, 198.727 L 333.728, 189.598 L 360.413, 200.834 L 359.886, 201.361 L 352.513, 211.543 L 348.124, 209.787 L 344.788, 209.436 L 334.606, 223.48 L 336.362, 225.938 L 340.926, 227.694 L 333.026, 238.402 L 295.106, 222.603 z "/>
<path style="fill:rgb(255, 255, 0);fill-opacity:0;fill-rule:evenodd;stroke:rgb(0, 255, 57);stroke-width:1;" d="M 716.261, 290.015 L 730.305, 270.704 L 749.265, 278.78 L 749.792, 280.36 L 765.416, 286.855 L 768.4, 286.329 L 769.98, 284.047 L 785.78, 290.718 L 769.629, 312.662 L 751.723, 305.113 L 755.409, 300.197 L 756.111, 300.549 L 759.096, 296.16 L 756.638, 295.106 L 755.409, 296.862 L 751.196, 298.091 L 743.12, 294.755 L 742.243, 291.244 L 743.472, 289.489 L 741.014, 288.435 L 737.854, 292.824 L 738.732, 293.175 L 735.045, 297.915 L 716.261, 290.015 z "/>
<path style="fill:rgb(255, 0, 0);fill-opacity:0;fill-rule:evenodd;stroke:rgb(0, 255, 57);stroke-width:1;" d="M 734.167, 265.438 L 748.387, 246.127 L 767.171, 254.202 L 763.66, 258.942 L 762.783, 258.591 L 759.623, 262.98 L 762.256, 264.033 L 763.485, 262.278 L 767.698, 261.049 L 775.774, 264.384 L 776.651, 267.896 L 775.422, 269.476 L 777.88, 270.529 L 781.04, 266.316 L 780.338, 265.964 L 783.849, 261.224 L 801.756, 268.773 L 785.78, 290.718 L 769.98, 284.047 L 771.56, 281.764 L 770.858, 279.482 L 755.058, 272.987 L 753.127, 273.513 L 734.167, 265.438 z "/>
<path style="fill:rgb(0, 255, 0);fill-opacity:0;fill-rule:evenodd;stroke:rgb(0, 255, 57);stroke-width:1;" d="M 138.863, 511.214 L 158.174, 485.056 L 192.934, 499.978 L 180.118, 517.182 L 174.325, 525.258 L 173.623, 526.136 L 138.863, 511.214 z "/>
<path style="fill:rgb(0, 0, 255);fill-opacity:0;fill-rule:evenodd;stroke:rgb(0, 255, 57);stroke-width:1;" d="M 802.633, 290.366 L 824.051, 261.224 L 819.838, 259.469 L 825.806, 251.393 L 856.353, 264.384 L 850.56, 272.284 L 846.346, 270.529 L 824.929, 299.846 L 802.633, 290.366 z "/>
<path style="fill:rgb(255, 255, 0);fill-opacity:0;fill-rule:evenodd;stroke:rgb(0, 255, 57);stroke-width:1;" d="M 833.706, 303.533 L 855.124, 274.391 L 850.56, 272.284 L 856.353, 264.384 L 887.601, 277.551 L 881.633, 285.627 L 877.068, 283.695 L 855.651, 312.837 L 833.706, 303.533 z "/>
<path style="fill:rgb(255, 0, 0);fill-opacity:0;fill-rule:evenodd;stroke:rgb(0, 255, 57);stroke-width:1;" d="M 400.79, 475.752 L 433.268, 430.634 L 444.327, 435.199 L 429.756, 455.387 L 445.732, 462.058 L 444.503, 463.814 L 427.65, 486.987 L 400.79, 475.752 z "/>
<path style="fill:rgb(0, 255, 0);fill-opacity:0;fill-rule:evenodd;stroke:rgb(0, 255, 57);stroke-width:1;" d="M 131.49, 597.937 L 163.09, 554.751 L 184.683, 563.88 L 178.012, 572.833 L 164.67, 591.266 L 157.823, 600.571 L 157.121, 601.624 L 146.412, 597.059 L 142.374, 602.502 L 131.49, 597.937 z "/>
<path style="fill:rgb(0, 0, 255);fill-opacity:0;fill-rule:evenodd;stroke:rgb(0, 255, 57);stroke-width:1;" d="M 313.715, 439.587 L 321.966, 428.176 L 324.775, 429.405 L 338.468, 410.27 L 365.328, 421.33 L 351.108, 440.992 L 352.513, 441.694 L 344.613, 452.578 L 313.715, 439.587 z "/>
<path style="fill:rgb(255, 255, 0);fill-opacity:0;fill-rule:evenodd;stroke:rgb(0, 255, 57);stroke-width:1;" d="M 843.889, 116.743 L 857.933, 97.257 L 906.386, 117.797 L 892.166, 137.283 L 875.488, 130.086 L 879.877, 124.117 L 878.824, 122.01 L 869.695, 118.148 L 869.168, 118.85 L 867.413, 118.148 L 862.673, 124.819 L 845.82, 117.621 L 843.889, 116.743 z "/>
<path style="fill:rgb(255, 0, 0);fill-opacity:0;fill-rule:evenodd;stroke:rgb(0, 255, 57);stroke-width:1;" d="M 237.7, 552.293 L 244.196, 543.515 L 248.409, 537.722 L 251.569, 538.951 L 254.905, 534.562 L 251.745, 533.158 L 256.836, 526.487 L 259.645, 522.449 L 270.353, 527.013 L 275.269, 520.518 L 290.191, 527.013 L 277.024, 544.744 L 274.391, 543.691 L 270.529, 548.958 L 273.162, 550.011 L 263.331, 563.353 L 237.7, 552.293 z "/>
<path style="fill:rgb(0, 255, 0);fill-opacity:0;fill-rule:evenodd;stroke:rgb(0, 255, 57);stroke-width:1;" d="M 385.692, 558.964 L 401.492, 537.547 L 409.568, 540.882 L 415.361, 543.34 L 413.605, 545.798 L 411.674, 546.5 L 410.27, 548.431 L 426.596, 555.453 L 432.565, 557.911 L 433.97, 555.98 L 433.443, 554.224 L 435.199, 551.942 L 436.954, 552.644 L 449.594, 557.911 L 433.794, 579.504 L 419.399, 573.36 L 420.803, 571.253 L 423.788, 569.849 L 424.841, 568.444 L 403.599, 559.491 L 399.561, 564.933 L 385.692, 558.964 z "/>
<path style="fill:rgb(0, 0, 255);fill-opacity:0;fill-rule:evenodd;stroke:rgb(0, 255, 57);stroke-width:1;" d="M 100.066, 494.711 L 106.912, 485.407 L 112.355, 478.034 L 122.888, 482.423 L 134.123, 467.325 L 142.374, 456.09 L 156.945, 462.234 L 124.995, 505.245 L 100.066, 494.711 z "/>
<path style="fill:rgb(255, 255, 0);fill-opacity:0;fill-rule:evenodd;stroke:rgb(0, 255, 57);stroke-width:1;" d="M 140.619, 191.354 L 145.534, 184.858 L 153.61, 188.194 L 156.419, 184.332 L 193.461, 200.132 L 177.31, 221.9 L 155.892, 212.772 L 148.87, 209.787 L 150.977, 206.803 L 145.008, 204.169 L 149.045, 198.727 L 155.014, 201.361 L 157.121, 198.376 L 140.619, 191.354 z "/>
<path style="fill:rgb(255, 0, 0);fill-opacity:0;fill-rule:evenodd;stroke:rgb(0, 255, 57);stroke-width:1;" d="M 399.912, 402.546 L 404.828, 395.699 L 411.323, 386.57 L 413.079, 384.112 L 419.75, 374.984 L 421.505, 375.686 L 423.085, 373.579 L 447.312, 383.586 L 445.732, 385.692 L 446.785, 386.219 L 426.948, 413.781 L 399.912, 402.546 z "/>
<path style="fill:rgb(0, 255, 0);fill-opacity:0;fill-rule:evenodd;stroke:rgb(0, 255, 57);stroke-width:1;" d="M 186.438, 617.599 L 198.025, 601.624 L 196.621, 601.097 L 208.032, 585.648 L 214.703, 576.52 L 234.54, 584.771 L 217.16, 608.646 L 214.703, 609.348 L 213.649, 610.928 L 214, 613.035 L 204.872, 625.324 L 186.438, 617.599 z "/>
<path style="fill:rgb(0, 0, 255);fill-opacity:0;fill-rule:evenodd;stroke:rgb(0, 255, 57);stroke-width:1;" d="M 562.826, 308.449 L 563.529, 307.395 L 566.864, 303.006 L 567.391, 302.129 L 581.786, 308.273 L 586, 310.029 L 619.53, 323.897 L 607.944, 339.873 L 567.04, 322.844 L 574.062, 313.013 L 562.826, 308.449 z "/>
<path style="fill:rgb(255, 255, 0);fill-opacity:0;fill-rule:evenodd;stroke:rgb(0, 255, 57);stroke-width:1;" d="M 306.869, 144.305 L 307.044, 143.428 L 307.395, 143.077 L 308.097, 142.55 L 322.317, 123.239 L 334.957, 128.506 L 333.377, 130.788 L 355.497, 140.092 L 353.39, 143.077 L 341.453, 159.403 L 309.326, 145.885 L 308.273, 145.71 L 307.395, 145.183 L 306.869, 144.305 z "/>
<path style="fill:rgb(255, 0, 0);fill-opacity:0;fill-rule:evenodd;stroke:rgb(0, 255, 57);stroke-width:1;" d="M 731.358, 760.851 L 741.189, 747.334 L 743.12, 744.7 L 786.131, 762.958 L 774.896, 778.407 L 774.194, 779.109 L 731.358, 760.851 z "/>
<path style="fill:rgb(0, 255, 0);fill-opacity:0;fill-rule:evenodd;stroke:rgb(0, 255, 57);stroke-width:1;" d="M 511.389, 230.854 L 529.647, 205.749 L 557.209, 217.512 L 538.951, 242.44 L 511.389, 230.854 z "/>
<path style="fill:rgb(0, 0, 255);fill-opacity:0;fill-rule:evenodd;stroke:rgb(0, 255, 57);stroke-width:1;" d="M 122.537, 649.55 L 129.032, 640.597 L 132.368, 642.001 L 143.779, 626.553 L 168.532, 641.475 L 163.616, 648.146 L 157.648, 645.688 L 155.365, 650.603 L 163.968, 654.115 L 156.77, 663.946 L 122.537, 649.55 z "/>
<path style="fill:rgb(255, 255, 0);fill-opacity:0;fill-rule:evenodd;stroke:rgb(0, 255, 57);stroke-width:1;" d="M 355.497, 77.5949 L 369.015, 58.9862 L 413.43, 77.7705 L 403.423, 91.6392 L 367.259, 76.5416 L 363.748, 81.106 L 355.497, 77.5949 z "/>
<path style="fill:rgb(255, 0, 0);fill-opacity:0;fill-rule:evenodd;stroke:rgb(0, 255, 57);stroke-width:1;" d="M 651.13, 726.794 L 663.068, 710.643 L 685.012, 719.947 L 702.919, 727.672 L 690.981, 743.823 L 651.13, 726.794 z "/>
<path style="fill:rgb(0, 255, 0);fill-opacity:0;fill-rule:evenodd;stroke:rgb(0, 255, 57);stroke-width:1;" d="M 195.041, 98.837 L 200.307, 91.6392 L 203.467, 87.2504 L 209.26, 89.8837 L 259.469, 110.95 L 251.042, 122.537 L 195.041, 98.837 z "/>
<path style="fill:rgb(0, 0, 255);fill-opacity:0;fill-rule:evenodd;stroke:rgb(0, 255, 57);stroke-width:1;" d="M 209.26, 540.18 L 229.098, 513.145 L 239.982, 498.398 L 240.509, 497.696 L 250.691, 501.909 L 255.256, 503.84 L 249.813, 511.214 L 242.967, 520.518 L 230.327, 537.547 L 223.831, 546.5 L 209.26, 540.18 z "/>
<path style="fill:rgb(255, 255, 0);fill-opacity:0;fill-rule:evenodd;stroke:rgb(0, 255, 57);stroke-width:1;" d="M 137.81, 176.432 L 140.97, 172.394 L 146.061, 165.372 L 159.93, 171.165 L 166.952, 174.15 L 201.536, 188.896 L 193.461, 200.132 L 156.419, 184.332 L 137.81, 176.432 z "/>
<path style="fill:rgb(255, 0, 0);fill-opacity:0;fill-rule:evenodd;stroke:rgb(0, 255, 57);stroke-width:1;" d="M 970.639, 610.577 L 975.027, 604.608 L 976.607, 605.311 L 994.163, 581.26 L 992.934, 580.733 L 997.147, 574.764 L 1002.76, 577.046 L 1003.12, 576.52 L 1010.49, 579.504 L 1010.14, 580.206 L 1015.23, 582.313 L 1011.02, 588.282 L 1009.96, 587.931 L 992.407, 611.982 L 993.461, 612.333 L 989.072, 618.477 L 983.454, 616.019 L 982.927, 616.722 L 975.554, 613.562 L 976.081, 612.859 L 970.639, 610.577 z "/>
<path style="fill:rgb(0, 255, 0);fill-opacity:0;fill-rule:evenodd;stroke:rgb(0, 255, 57);stroke-width:1;" d="M 224.534, 256.66 L 232.96, 245.074 L 263.507, 257.713 L 285.275, 267.018 L 284.398, 268.247 L 276.849, 278.604 L 224.534, 256.66 z "/>
<path style="fill:rgb(0, 0, 255);fill-opacity:0;fill-rule:evenodd;stroke:rgb(0, 255, 57);stroke-width:1;" d="M 218.916, 624.973 L 225.236, 616.37 L 227.694, 615.668 L 239.105, 599.868 L 238.578, 597.937 L 245.6, 588.457 L 263.682, 596.006 L 256.66, 605.662 L 253.851, 606.188 L 242.44, 621.813 L 243.142, 624.095 L 236.998, 632.697 L 218.916, 624.973 z "/>
<path style="fill:rgb(255, 255, 0);fill-opacity:0;fill-rule:evenodd;stroke:rgb(0, 255, 57);stroke-width:1;" d="M 209.26, 89.8837 L 220.671, 74.2594 L 234.365, 82.8615 L 265.613, 102.524 L 259.469, 110.95 L 209.26, 89.8837 z "/>
<path style="fill:rgb(255, 0, 0);fill-opacity:0;fill-rule:evenodd;stroke:rgb(0, 255, 57);stroke-width:1;" d="M 225.938, 491.376 L 228.571, 488.04 L 257.889, 448.365 L 271.758, 454.334 L 257.187, 473.996 L 241.562, 494.887 L 239.807, 497.345 L 225.938, 491.376 z "/>
<path style="fill:rgb(0, 255, 0);fill-opacity:0;fill-rule:evenodd;stroke:rgb(0, 255, 57);stroke-width:1;" d="M 124.995, 505.245 L 156.945, 462.234 L 170.639, 468.203 L 158.174, 485.056 L 138.863, 511.214 L 124.995, 505.245 z "/>
<path style="fill:rgb(0, 0, 255);fill-opacity:0;fill-rule:evenodd;stroke:rgb(0, 255, 57);stroke-width:1;" d="M 958.525, 106.035 L 970.112, 90.0592 L 989.774, 63.375 L 1003.64, 69.1683 L 994.514, 81.6327 L 974.15, 109.37 L 972.394, 111.828 L 958.525, 106.035 z "/>
<path style="fill:rgb(255, 255, 0);fill-opacity:0;fill-rule:evenodd;stroke:rgb(0, 255, 57);stroke-width:1;" d="M 957.999, 188.018 L 978.187, 160.281 L 974.501, 158.701 L 975.905, 156.77 L 981.347, 149.397 L 1002.24, 158.174 L 992.934, 170.814 L 985.736, 167.83 L 977.661, 178.539 L 985.034, 181.698 L 975.203, 195.216 L 957.999, 188.018 z "/>
<path style="fill:rgb(255, 0, 0);fill-opacity:0;fill-rule:evenodd;stroke:rgb(0, 255, 57);stroke-width:1;" d="M 975.203, 195.216 L 985.034, 181.698 L 992.407, 184.683 L 1000.31, 173.799 L 992.934, 170.814 L 1002.24, 158.174 L 1022.78, 166.776 L 1015.93, 176.256 L 1012.6, 174.852 L 992.232, 202.414 L 975.203, 195.216 z "/>
<path style="fill:rgb(0, 255, 0);fill-opacity:0;fill-rule:evenodd;stroke:rgb(0, 255, 57);stroke-width:1;" d="M 372.35, 463.989 L 402.194, 422.734 L 416.239, 428.703 L 386.57, 469.958 L 372.35, 463.989 z "/>
<path style="fill:rgb(0, 0, 255);fill-opacity:0;fill-rule:evenodd;stroke:rgb(0, 255, 57);stroke-width:1;" d="M 187.843, 531.051 L 207.68, 504.191 L 229.098, 513.145 L 209.26, 540.18 L 187.843, 531.051 z "/>
<path style="fill:rgb(255, 255, 0);fill-opacity:0;fill-rule:evenodd;stroke:rgb(0, 255, 57);stroke-width:1;" d="M 333.026, 593.197 L 341.102, 582.313 L 363.748, 551.591 L 377.441, 557.384 L 359.359, 582.137 L 346.895, 598.991 L 333.026, 593.197 z "/>
<path style="fill:rgb(255, 0, 0);fill-opacity:0;fill-rule:evenodd;stroke:rgb(0, 255, 57);stroke-width:1;" d="M 312.311, 584.244 L 320.386, 573.535 L 324.248, 575.115 L 343.735, 548.607 L 356.726, 554.224 L 337.239, 580.733 L 341.102, 582.313 L 333.026, 593.197 L 312.311, 584.244 z "/>
<path style="fill:rgb(0, 255, 0);fill-opacity:0;fill-rule:evenodd;stroke:rgb(0, 255, 57);stroke-width:1;" d="M 291.771, 575.466 L 299.671, 564.582 L 303.533, 566.162 L 323.02, 539.829 L 336.011, 545.271 L 316.348, 571.78 L 320.386, 573.535 L 312.311, 584.244 L 291.771, 575.466 z "/>
<path style="fill:rgb(0, 0, 255);fill-opacity:0;fill-rule:evenodd;stroke:rgb(0, 255, 57);stroke-width:1;" d="M 213.298, 484.003 L 221.374, 472.943 L 244.02, 442.396 L 257.889, 448.365 L 228.571, 488.04 L 221.023, 484.88 L 219.794, 486.636 L 213.298, 484.003 z "/>
<path style="fill:rgb(255, 255, 0);fill-opacity:0;fill-rule:evenodd;stroke:rgb(0, 255, 57);stroke-width:1;" d="M 457.494, 645.337 L 465.043, 634.979 L 483.476, 643.055 L 492.605, 646.917 L 510.687, 654.641 L 519.816, 658.503 L 512.969, 667.983 L 512.267, 668.686 L 457.494, 645.337 z "/>
<path style="fill:rgb(255, 0, 0);fill-opacity:0;fill-rule:evenodd;stroke:rgb(0, 255, 57);stroke-width:1;" d="M 146.061, 165.372 L 153.785, 154.839 L 167.479, 160.808 L 166.25, 162.388 L 173.447, 165.548 L 174.676, 163.792 L 209.26, 178.539 L 201.536, 188.896 L 166.952, 174.15 L 168.181, 172.57 L 160.983, 169.585 L 159.93, 171.165 L 146.061, 165.372 z "/>
<path style="fill:rgb(0, 255, 0);fill-opacity:0;fill-rule:evenodd;stroke:rgb(0, 255, 57);stroke-width:1;" d="M 365.328, 548.08 L 369.366, 542.462 L 376.915, 532.456 L 387.623, 517.709 L 395.523, 507.176 L 409.041, 512.969 L 378.67, 553.873 L 365.328, 548.08 z "/>
<path style="fill:rgb(0, 0, 255);fill-opacity:0;fill-rule:evenodd;stroke:rgb(0, 255, 57);stroke-width:1;" d="M 86.1971, 446.785 L 94.6237, 435.55 L 132.192, 451.701 L 142.374, 456.09 L 134.123, 467.325 L 126.223, 463.814 L 86.1971, 446.785 z "/>
<path style="fill:rgb(255, 255, 0);fill-opacity:0;fill-rule:evenodd;stroke:rgb(0, 255, 57);stroke-width:1;" d="M 319.333, 296.335 L 327.057, 285.451 L 330.217, 281.062 L 333.202, 276.849 L 335.659, 273.513 L 343.559, 262.629 L 350.055, 253.676 L 362.519, 258.942 L 349.879, 276.322 L 331.797, 301.426 L 319.333, 296.335 z "/>
<path style="fill:rgb(255, 0, 0);fill-opacity:0;fill-rule:evenodd;stroke:rgb(0, 255, 57);stroke-width:1;" d="M 375.335, 568.269 L 382.883, 557.911 L 385.692, 558.964 L 399.561, 564.933 L 419.399, 573.36 L 433.794, 579.504 L 426.07, 589.862 L 378.144, 569.497 L 375.335, 568.269 z "/>
<path style="fill:rgb(0, 255, 0);fill-opacity:0;fill-rule:evenodd;stroke:rgb(0, 255, 57);stroke-width:1;" d="M 227.343, 65.1306 L 233.487, 56.704 L 283.695, 77.7705 L 274.918, 89.7081 L 242.265, 72.8549 L 227.343, 65.1306 z "/>
<path style="fill:rgb(0, 0, 255);fill-opacity:0;fill-rule:evenodd;stroke:rgb(0, 255, 57);stroke-width:1;" d="M 121.835, 149.572 L 129.734, 138.863 L 133.948, 133.07 L 149.221, 112.355 L 162.739, 118.148 L 154.488, 129.383 L 150.45, 134.826 L 142.725, 145.183 L 135.352, 155.365 L 121.835, 149.572 z "/>
<path style="fill:rgb(255, 255, 0);fill-opacity:0;fill-rule:evenodd;stroke:rgb(0, 255, 57);stroke-width:1;" d="M 404.652, 524.029 L 412.025, 514.198 L 465.218, 536.844 L 457.845, 546.851 L 445.205, 541.409 L 446.083, 540.531 L 417.819, 528.418 L 415.361, 528.769 L 408.514, 525.785 L 404.652, 524.029 z "/>
<path style="fill:rgb(255, 0, 0);fill-opacity:0;fill-rule:evenodd;stroke:rgb(0, 255, 57);stroke-width:1;" d="M 391.486, 261.751 L 397.806, 253.149 L 401.668, 254.729 L 403.599, 252.096 L 399.737, 250.516 L 416.59, 227.167 L 431.688, 233.311 L 414.834, 256.66 L 411.85, 255.431 L 410.797, 257.011 L 409.919, 258.065 L 412.903, 259.469 L 406.583, 268.071 L 391.486, 261.751 z "/>
<path style="fill:rgb(0, 255, 0);fill-opacity:0;fill-rule:evenodd;stroke:rgb(0, 255, 57);stroke-width:1;" d="M 283.871, 362.344 L 297.74, 343.033 L 300.197, 342.155 L 303.006, 338.293 L 302.48, 336.537 L 310.38, 325.477 L 324.248, 331.271 L 316.173, 342.33 L 314.417, 342.857 L 312.135, 346.017 L 311.609, 346.895 L 311.433, 348.826 L 302.831, 360.939 L 297.564, 368.137 L 283.871, 362.344 z "/>
<path style="fill:rgb(0, 0, 255);fill-opacity:0;fill-rule:evenodd;stroke:rgb(0, 255, 57);stroke-width:1;" d="M 512.618, 570.375 L 520.518, 559.666 L 568.971, 580.206 L 560.895, 590.915 L 548.255, 585.473 L 548.08, 583.366 L 538.776, 579.329 L 538.424, 579.855 L 527.013, 574.94 L 524.731, 575.466 L 519.289, 573.184 L 512.618, 570.375 z "/>
<path style="fill:rgb(255, 255, 0);fill-opacity:0;fill-rule:evenodd;stroke:rgb(0, 255, 57);stroke-width:1;" d="M 493.307, 304.06 L 502.962, 290.893 L 509.809, 281.589 L 519.465, 268.071 L 534.387, 274.215 L 512.618, 304.235 L 502.26, 300.022 L 502.962, 303.006 L 499.978, 306.869 L 493.307, 304.06 z "/>
<path style="fill:rgb(255, 0, 0);fill-opacity:0;fill-rule:evenodd;stroke:rgb(0, 255, 57);stroke-width:1;" d="M 400.263, 536.844 L 408.514, 525.785 L 415.361, 528.769 L 417.819, 529.822 L 419.399, 531.578 L 424.841, 534.036 L 423.261, 536.318 L 428.703, 538.6 L 430.459, 536.318 L 443.625, 541.935 L 445.205, 541.409 L 457.845, 546.851 L 449.594, 557.911 L 436.954, 552.644 L 436.954, 550.889 L 423.788, 545.271 L 425.192, 543.515 L 419.574, 541.058 L 418.17, 542.989 L 412.728, 540.707 L 409.568, 540.882 L 401.492, 537.547 L 400.263, 536.844 z "/>
<path style="fill:rgb(0, 255, 0);fill-opacity:0;fill-rule:evenodd;stroke:rgb(0, 255, 57);stroke-width:1;" d="M 172.921, 606.89 L 179.767, 597.586 L 182.225, 597.411 L 184.507, 594.075 L 186.263, 593.724 L 189.247, 589.686 L 189.598, 589.16 L 189.072, 587.931 L 193.987, 581.084 L 193.11, 579.329 L 199.781, 570.2 L 214.703, 576.52 L 208.032, 585.648 L 205.398, 585.824 L 200.483, 592.671 L 198.376, 592.846 L 194.865, 597.411 L 195.918, 598.815 L 193.461, 602.151 L 194.689, 603.906 L 187.843, 613.21 L 172.921, 606.89 z "/>
<path style="fill:rgb(0, 0, 255);fill-opacity:0;fill-rule:evenodd;stroke:rgb(0, 255, 57);stroke-width:1;" d="M 465.043, 634.979 L 473.294, 623.744 L 479.965, 626.553 L 492.78, 631.995 L 491.2, 634.277 L 499.451, 637.788 L 500.505, 636.032 L 518.587, 643.757 L 510.687, 654.641 L 492.605, 646.917 L 494.185, 644.635 L 485.232, 640.772 L 483.476, 643.055 L 465.043, 634.979 z "/>
<path style="fill:rgb(255, 255, 0);fill-opacity:0;fill-rule:evenodd;stroke:rgb(0, 255, 57);stroke-width:1;" d="M 157.823, 600.571 L 164.67, 591.266 L 167.303, 591.091 L 169.585, 587.755 L 171.341, 587.404 L 174.676, 582.84 L 174.15, 581.611 L 179.065, 574.764 L 178.012, 572.833 L 184.683, 563.88 L 199.781, 570.2 L 193.11, 579.329 L 190.125, 579.504 L 185.21, 586.175 L 183.103, 586.526 L 179.943, 591.091 L 180.645, 592.495 L 178.363, 595.655 L 179.767, 597.586 L 172.921, 606.89 L 157.823, 600.571 z "/>
<path style="fill:rgb(255, 0, 0);fill-opacity:0;fill-rule:evenodd;stroke:rgb(0, 255, 57);stroke-width:1;" d="M 93.3948, 721.703 L 99.8903, 713.101 L 102.348, 712.399 L 116.041, 694.141 L 116.041, 691.683 L 122.01, 683.432 L 135.879, 689.401 L 129.559, 697.652 L 126.75, 698.705 L 113.759, 716.085 L 113.935, 718.543 L 107.088, 727.496 L 93.3948, 721.703 z "/>
<path style="fill:rgb(0, 255, 0);fill-opacity:0;fill-rule:evenodd;stroke:rgb(0, 255, 57);stroke-width:1;" d="M 99.1881, 639.719 L 105.684, 630.766 L 109.37, 632.346 L 111.828, 631.468 L 112.881, 630.064 L 111.652, 629.537 L 122.888, 614.088 L 136.932, 622.515 L 127.101, 636.032 L 125.17, 636.384 L 125.521, 639.017 L 129.032, 640.597 L 122.537, 649.55 L 99.1881, 639.719 z "/>
<path style="fill:rgb(0, 0, 255);fill-opacity:0;fill-rule:evenodd;stroke:rgb(0, 255, 57);stroke-width:1;" d="M 509.458, 308.449 L 512.618, 304.235 L 534.387, 274.215 L 548.08, 280.009 L 523.327, 314.242 L 509.458, 308.449 z "/>
<path style="fill:rgb(255, 255, 0);fill-opacity:0;fill-rule:evenodd;stroke:rgb(0, 255, 57);stroke-width:1;" d="M 86.1971, 781.04 L 93.9214, 770.682 L 96.2036, 770.507 L 106.737, 756.463 L 105.859, 754.707 L 113.057, 745.227 L 127.277, 751.372 L 120.079, 760.851 L 117.797, 761.203 L 112.706, 767.874 L 107.264, 775.247 L 108.141, 776.827 L 100.241, 787.185 L 86.1971, 781.04 z "/>
<path style="fill:rgb(255, 0, 0);fill-opacity:0;fill-rule:evenodd;stroke:rgb(0, 255, 57);stroke-width:1;" d="M 106.21, 580.031 L 112.355, 571.78 L 115.163, 571.077 L 118.675, 566.162 L 120.957, 567.215 L 124.292, 562.651 L 122.01, 561.773 L 128.506, 552.82 L 127.803, 550.538 L 133.772, 542.287 L 148.694, 548.607 L 142.725, 556.858 L 139.39, 557.384 L 132.894, 566.338 L 130.788, 565.46 L 127.452, 569.849 L 129.559, 570.726 L 126.048, 575.642 L 127.277, 577.924 L 121.132, 586.351 L 106.21, 580.031 z "/>
<path style="fill:rgb(0, 255, 0);fill-opacity:0;fill-rule:evenodd;stroke:rgb(0, 255, 57);stroke-width:1;" d="M 72.1527, 775.071 L 79.8771, 764.714 L 82.3349, 764.538 L 83.5637, 762.958 L 92.8681, 750.494 L 91.9903, 748.738 L 99.1881, 739.083 L 113.057, 745.227 L 105.859, 754.707 L 104.104, 755.234 L 97.7836, 763.66 L 93.5703, 769.278 L 93.9214, 770.682 L 86.1971, 781.04 L 72.1527, 775.071 z "/>
<path style="fill:rgb(0, 0, 255);fill-opacity:0;fill-rule:evenodd;stroke:rgb(0, 255, 57);stroke-width:1;" d="M 453.456, 457.143 L 459.776, 448.365 L 465.745, 450.823 L 477.156, 455.563 L 500.505, 465.218 L 512.618, 470.309 L 506.298, 479.087 L 464.867, 461.883 L 453.456, 457.143 z "/>
<path style="fill:rgb(255, 255, 0);fill-opacity:0;fill-rule:evenodd;stroke:rgb(0, 255, 57);stroke-width:1;" d="M 79.526, 715.558 L 86.0215, 707.132 L 89.0059, 706.605 L 102.699, 688.348 L 102.172, 685.539 L 108.317, 677.463 L 122.01, 683.432 L 116.041, 691.683 L 112.881, 692.912 L 99.1881, 710.994 L 99.8903, 713.101 L 93.3948, 721.703 L 79.526, 715.558 z "/>
<path style="fill:rgb(255, 0, 0);fill-opacity:0;fill-rule:evenodd;stroke:rgb(0, 255, 57);stroke-width:1;" d="M 465.745, 450.823 L 473.469, 439.939 L 484.88, 444.679 L 486.285, 446.61 L 505.771, 454.861 L 508.405, 454.51 L 520.342, 459.425 L 512.618, 470.309 L 500.505, 465.218 L 499.627, 463.463 L 480.14, 455.387 L 477.156, 455.563 L 465.745, 450.823 z "/>
<path style="fill:rgb(0, 255, 0);fill-opacity:0;fill-rule:evenodd;stroke:rgb(0, 255, 57);stroke-width:1;" d="M 304.586, 290.191 L 312.135, 279.833 L 313.891, 280.009 L 317.051, 275.62 L 315.471, 275.093 L 318.631, 270.704 L 320.913, 271.758 L 323.195, 268.422 L 320.913, 267.544 L 328.813, 256.485 L 343.559, 262.629 L 335.659, 273.513 L 333.026, 272.46 L 330.568, 275.795 L 333.202, 276.849 L 330.217, 281.062 L 327.584, 280.887 L 325.302, 284.047 L 327.057, 285.451 L 319.333, 296.335 L 304.586, 290.191 z "/>
<path style="fill:rgb(0, 0, 255);fill-opacity:0;fill-rule:evenodd;stroke:rgb(0, 255, 57);stroke-width:1;" d="M 210.138, 686.417 L 216.458, 677.639 L 219.092, 676.761 L 224.709, 669.212 L 227.167, 670.266 L 230.854, 664.999 L 228.396, 663.946 L 231.38, 659.908 L 230.678, 658.328 L 237.525, 648.848 L 251.745, 654.817 L 244.898, 664.297 L 242.791, 664.823 L 239.807, 668.686 L 237.349, 667.808 L 233.662, 672.899 L 235.945, 673.952 L 230.503, 681.501 L 230.678, 683.608 L 224.183, 692.385 L 210.138, 686.417 z "/>
<path style="fill:rgb(255, 255, 0);fill-opacity:0;fill-rule:evenodd;stroke:rgb(0, 255, 57);stroke-width:1;" d="M 100.241, 787.185 L 108.141, 776.827 L 110.072, 776.476 L 114.988, 769.98 L 120.606, 762.431 L 120.079, 760.851 L 127.277, 751.372 L 140.794, 757.165 L 133.597, 766.82 L 131.49, 767.347 L 120.957, 781.391 L 121.659, 782.796 L 113.759, 793.153 L 100.241, 787.185 z "/>
<path style="fill:rgb(255, 0, 0);fill-opacity:0;fill-rule:evenodd;stroke:rgb(0, 255, 57);stroke-width:1;" d="M 177.31, 755.936 L 183.454, 747.86 L 186.438, 747.158 L 189.598, 742.945 L 191.354, 743.647 L 195.743, 737.854 L 193.987, 737.152 L 200.132, 729.076 L 199.605, 726.443 L 205.925, 717.841 L 220.145, 723.985 L 213.649, 732.587 L 213.474, 732.763 L 210.314, 733.465 L 204.169, 741.54 L 203.116, 741.189 L 198.727, 746.807 L 199.781, 747.334 L 196.621, 751.723 L 197.498, 754.005 L 191.354, 762.08 L 177.31, 755.936 z "/>
<path style="fill:rgb(0, 255, 0);fill-opacity:0;fill-rule:evenodd;stroke:rgb(0, 255, 57);stroke-width:1;" d="M 224.183, 692.385 L 230.678, 683.608 L 233.136, 682.554 L 238.754, 675.181 L 240.86, 676.059 L 244.722, 670.792 L 242.616, 669.914 L 245.425, 665.877 L 244.898, 664.297 L 251.745, 654.817 L 265.789, 660.786 L 259.996, 668.51 L 258.942, 670.266 L 256.485, 670.617 L 253.5, 674.654 L 251.218, 673.601 L 247.531, 678.868 L 249.813, 679.745 L 244.196, 687.294 L 244.722, 689.576 L 244.196, 690.279 L 238.402, 698.354 L 224.183, 692.385 z "/>
<path style="fill:rgb(0, 0, 255);fill-opacity:0;fill-rule:evenodd;stroke:rgb(0, 255, 57);stroke-width:1;" d="M 118.85, 402.721 L 126.575, 392.363 L 169.234, 410.445 L 161.51, 420.979 L 118.85, 402.721 z "/>
<path style="fill:rgb(255, 255, 0);fill-opacity:0;fill-rule:evenodd;stroke:rgb(0, 255, 57);stroke-width:1;" d="M 414.132, 257.889 L 414.834, 256.66 L 431.688, 233.311 L 432.916, 231.731 L 448.541, 238.402 L 429.756, 264.209 L 427.299, 267.896 L 414.834, 262.804 L 417.468, 259.293 L 414.132, 257.889 z "/>
<path style="fill:rgb(255, 0, 0);fill-opacity:0;fill-rule:evenodd;stroke:rgb(0, 255, 57);stroke-width:1;" d="M 69.695, 469.432 L 78.4727, 457.494 L 115.866, 473.469 L 112.355, 478.034 L 106.912, 485.407 L 69.695, 469.432 z "/>
<path style="fill:rgb(0, 255, 0);fill-opacity:0;fill-rule:evenodd;stroke:rgb(0, 255, 57);stroke-width:1;" d="M 429.756, 264.209 L 448.541, 238.402 L 464.516, 245.074 L 454.685, 258.591 L 448.014, 267.896 L 445.732, 271.056 L 442.747, 269.827 L 440.114, 273.338 L 430.283, 269.124 L 432.916, 265.613 L 429.756, 264.209 z "/>
<path style="fill:rgb(0, 0, 255);fill-opacity:0;fill-rule:evenodd;stroke:rgb(0, 255, 57);stroke-width:1;" d="M 223.831, 546.5 L 230.327, 537.547 L 232.609, 536.844 L 242.967, 522.976 L 243.494, 522.273 L 242.967, 520.518 L 249.813, 511.214 L 263.682, 517.182 L 259.645, 522.449 L 256.836, 526.487 L 254.553, 527.013 L 243.669, 541.584 L 244.196, 543.515 L 237.7, 552.293 L 223.831, 546.5 z "/>
<path style="fill:rgb(255, 255, 0);fill-opacity:0;fill-rule:evenodd;stroke:rgb(0, 255, 57);stroke-width:1;" d="M 163.616, 749.967 L 169.585, 742.067 L 172.745, 741.189 L 177.836, 734.694 L 179.416, 735.396 L 181.874, 731.885 L 180.294, 731.183 L 186.438, 723.107 L 185.736, 720.474 L 192.232, 711.872 L 205.925, 717.841 L 199.605, 726.443 L 196.269, 727.496 L 190.301, 735.572 L 189.072, 735.045 L 184.683, 740.838 L 185.912, 741.365 L 182.752, 745.578 L 183.454, 747.86 L 177.31, 755.936 L 163.616, 749.967 z "/>
<path style="fill:rgb(255, 0, 0);fill-opacity:0;fill-rule:evenodd;stroke:rgb(0, 255, 57);stroke-width:1;" d="M 355.673, 536.669 L 362.344, 527.716 L 364.626, 527.189 L 365.855, 525.433 L 375.335, 512.618 L 374.984, 510.511 L 381.83, 501.382 L 395.523, 507.176 L 387.623, 517.709 L 386.219, 517.182 L 375.51, 531.753 L 376.915, 532.456 L 369.366, 542.462 L 355.673, 536.669 z "/>
<path style="fill:rgb(0, 255, 0);fill-opacity:0;fill-rule:evenodd;stroke:rgb(0, 255, 57);stroke-width:1;" d="M 290.542, 284.222 L 298.091, 273.864 L 300.197, 273.864 L 302.48, 270.704 L 301.426, 269.124 L 304.586, 264.911 L 306.693, 265.789 L 309.151, 262.453 L 306.869, 261.576 L 314.768, 250.691 L 328.813, 256.485 L 320.913, 267.544 L 318.455, 266.491 L 315.997, 269.651 L 318.631, 270.704 L 315.471, 275.093 L 313.364, 275.269 L 311.082, 278.429 L 312.135, 279.833 L 304.586, 290.191 L 290.542, 284.222 z "/>
<path style="fill:rgb(0, 0, 255);fill-opacity:0;fill-rule:evenodd;stroke:rgb(0, 255, 57);stroke-width:1;" d="M 342.155, 530.876 L 348.826, 521.922 L 350.582, 521.22 L 361.993, 505.771 L 361.466, 504.718 L 368.312, 495.589 L 381.83, 501.382 L 374.984, 510.511 L 373.052, 510.511 L 361.641, 525.96 L 362.344, 527.716 L 355.673, 536.669 L 342.155, 530.876 z "/>
<path style="fill:rgb(255, 255, 0);fill-opacity:0;fill-rule:evenodd;stroke:rgb(0, 255, 57);stroke-width:1;" d="M 155.365, 735.923 L 178.012, 705.552 L 192.232, 711.872 L 185.736, 720.474 L 169.585, 742.067 L 155.365, 735.923 z "/>
<path style="fill:rgb(255, 0, 0);fill-opacity:0;fill-rule:evenodd;stroke:rgb(0, 255, 57);stroke-width:1;" d="M 367.435, 243.142 L 387.799, 215.054 L 388.852, 213.474 L 403.599, 219.618 L 402.546, 221.198 L 385.517, 244.547 L 382.181, 249.287 L 367.435, 243.142 z "/>
<path style="fill:rgb(0, 255, 0);fill-opacity:0;fill-rule:evenodd;stroke:rgb(0, 255, 57);stroke-width:1;" d="M 286.504, 655.168 L 292.649, 646.741 L 296.16, 645.688 L 298.969, 641.826 L 300.9, 642.704 L 304.235, 637.964 L 302.48, 637.086 L 308.449, 628.835 L 307.571, 626.377 L 313.715, 617.775 L 327.759, 623.744 L 321.615, 632.346 L 318.631, 633.224 L 312.662, 641.475 L 311.257, 640.772 L 307.746, 645.512 L 309.151, 646.215 L 306.342, 650.077 L 306.693, 652.71 L 300.724, 660.961 L 286.504, 655.168 z "/>
<path style="fill:rgb(0, 0, 255);fill-opacity:0;fill-rule:evenodd;stroke:rgb(0, 255, 57);stroke-width:1;" d="M 259.293, 643.581 L 265.438, 635.33 L 268.949, 634.277 L 271.758, 630.415 L 273.689, 631.117 L 277.024, 626.377 L 275.269, 625.675 L 281.238, 617.424 L 280.36, 614.79 L 286.504, 606.364 L 300.724, 612.333 L 294.404, 620.759 L 291.595, 621.637 L 285.451, 629.888 L 284.047, 629.361 L 280.535, 634.101 L 282.115, 634.628 L 279.131, 638.49 L 279.482, 641.299 L 273.513, 649.55 L 259.293, 643.581 z "/>
<path style="fill:rgb(255, 255, 0);fill-opacity:0;fill-rule:evenodd;stroke:rgb(0, 255, 57);stroke-width:1;" d="M 362.168, 605.486 L 370.244, 594.602 L 376.212, 597.235 L 410.094, 611.63 L 402.019, 622.515 L 362.168, 605.486 z "/>
<path style="fill:rgb(255, 0, 0);fill-opacity:0;fill-rule:evenodd;stroke:rgb(0, 255, 57);stroke-width:1;" d="M 204.872, 625.324 L 214, 613.035 L 217.16, 608.646 L 234.54, 584.771 L 235.067, 583.893 L 245.6, 588.457 L 238.578, 597.937 L 225.236, 616.37 L 218.916, 624.973 L 215.405, 629.713 L 204.872, 625.324 z "/>
<path style="fill:rgb(0, 255, 0);fill-opacity:0;fill-rule:evenodd;stroke:rgb(0, 255, 57);stroke-width:1;" d="M 482.598, 218.74 L 501.734, 192.583 L 504.718, 193.812 L 508.405, 188.721 L 517.709, 192.583 L 513.847, 197.674 L 516.305, 198.727 L 497.169, 224.885 L 482.598, 218.74 z "/>
<path style="fill:rgb(0, 0, 255);fill-opacity:0;fill-rule:evenodd;stroke:rgb(0, 255, 57);stroke-width:1;" d="M 276.849, 278.604 L 284.398, 268.247 L 286.68, 268.071 L 288.962, 265.087 L 287.909, 263.507 L 290.893, 259.293 L 293.175, 260.171 L 295.458, 256.836 L 293.351, 255.958 L 301.251, 245.074 L 314.768, 250.691 L 306.869, 261.576 L 304.937, 260.698 L 302.48, 264.033 L 304.586, 264.911 L 301.426, 269.124 L 299.144, 269.3 L 296.862, 272.46 L 298.091, 273.864 L 290.542, 284.222 L 276.849, 278.604 z "/>
<path style="fill:rgb(255, 255, 0);fill-opacity:0;fill-rule:evenodd;stroke:rgb(0, 255, 57);stroke-width:1;" d="M 78.4727, 457.494 L 86.1971, 446.785 L 126.223, 463.814 L 118.323, 474.523 L 115.866, 473.469 L 78.4727, 457.494 z "/>
<path style="fill:rgb(255, 0, 0);fill-opacity:0;fill-rule:evenodd;stroke:rgb(0, 255, 57);stroke-width:1;" d="M 238.402, 698.354 L 244.196, 690.279 L 246.654, 689.752 L 252.973, 681.15 L 254.905, 682.028 L 259.645, 675.532 L 257.538, 674.654 L 260.873, 670.266 L 259.996, 668.51 L 265.789, 660.786 L 265.964, 660.434 L 279.658, 666.228 L 273.689, 674.303 L 271.407, 674.654 L 268.071, 679.043 L 265.964, 678.165 L 261.224, 684.661 L 263.331, 685.539 L 257.011, 694.141 L 257.889, 696.072 L 251.92, 704.323 L 238.402, 698.354 z "/>
<path style="fill:rgb(0, 255, 0);fill-opacity:0;fill-rule:evenodd;stroke:rgb(0, 255, 57);stroke-width:1;" d="M 372.35, 172.394 L 387.623, 151.503 L 395.523, 140.794 L 408.865, 146.412 L 404.477, 152.557 L 385.868, 178.187 L 372.35, 172.394 z "/>
<path style="fill:rgb(0, 0, 255);fill-opacity:0;fill-rule:evenodd;stroke:rgb(0, 255, 57);stroke-width:1;" d="M 83.5637, 633.048 L 103.577, 605.837 L 119.026, 612.508 L 105.684, 630.766 L 99.1881, 639.719 L 83.5637, 633.048 z "/>
<path style="fill:rgb(255, 255, 0);fill-opacity:0;fill-rule:evenodd;stroke:rgb(0, 255, 57);stroke-width:1;" d="M 385.166, 400.263 L 391.135, 392.012 L 390.432, 389.73 L 407.11, 366.732 L 421.33, 372.701 L 419.75, 374.984 L 413.079, 384.112 L 410.094, 382.883 L 408.339, 385.341 L 411.323, 386.57 L 404.828, 395.699 L 401.668, 396.401 L 395.699, 404.652 L 385.166, 400.263 z "/>
<path style="fill:rgb(255, 0, 0);fill-opacity:0;fill-rule:evenodd;stroke:rgb(0, 255, 57);stroke-width:1;" d="M 372.175, 577.397 L 378.144, 569.497 L 426.07, 589.862 L 417.994, 600.922 L 405.881, 595.655 L 407.988, 592.671 L 372.175, 577.397 z "/>
<path style="fill:rgb(0, 255, 0);fill-opacity:0;fill-rule:evenodd;stroke:rgb(0, 255, 57);stroke-width:1;" d="M 509.985, 452.403 L 516.831, 442.923 L 514.9, 442.045 L 520.518, 434.496 L 522.976, 434.496 L 525.785, 430.459 L 524.556, 428.703 L 531.753, 418.697 L 545.622, 424.49 L 521.922, 457.494 L 509.985, 452.403 z "/>
<path style="fill:rgb(0, 0, 255);fill-opacity:0;fill-rule:evenodd;stroke:rgb(0, 255, 57);stroke-width:1;" d="M 344.613, 378.319 L 353.39, 366.206 L 355.673, 365.328 L 358.657, 361.29 L 358.13, 359.71 L 366.03, 348.65 L 380.25, 354.619 L 372.35, 365.679 L 369.717, 366.03 L 366.908, 369.892 L 367.61, 372.175 L 358.833, 384.288 L 354.444, 382.357 L 352.337, 385.341 L 345.666, 382.532 L 347.773, 379.548 L 344.613, 378.319 z "/>
<path style="fill:rgb(255, 255, 0);fill-opacity:0;fill-rule:evenodd;stroke:rgb(0, 255, 57);stroke-width:1;" d="M 322.317, 123.239 L 330.042, 112.53 L 343.384, 118.148 L 344.262, 119.728 L 374.808, 132.543 L 368.488, 141.321 L 337.942, 128.506 L 335.659, 128.857 L 334.957, 128.506 L 322.317, 123.239 z "/>
<path style="fill:rgb(255, 0, 0);fill-opacity:0;fill-rule:evenodd;stroke:rgb(0, 255, 57);stroke-width:1;" d="M 246.302, 638.139 L 252.271, 629.713 L 254.905, 628.308 L 257.713, 624.446 L 259.645, 625.324 L 263.156, 620.584 L 261.224, 619.706 L 267.193, 611.455 L 267.193, 609.348 L 273.513, 600.922 L 286.504, 606.364 L 280.36, 614.79 L 277.727, 615.844 L 271.758, 624.095 L 269.651, 623.217 L 266.14, 627.957 L 268.247, 628.835 L 265.438, 632.697 L 265.438, 635.33 L 259.293, 643.581 L 246.302, 638.139 z "/>
<path style="fill:rgb(0, 255, 0);fill-opacity:0;fill-rule:evenodd;stroke:rgb(0, 255, 57);stroke-width:1;" d="M 273.513, 649.55 L 279.482, 641.299 L 282.115, 639.719 L 284.924, 635.857 L 286.855, 636.735 L 290.366, 631.995 L 288.435, 631.117 L 294.404, 622.866 L 294.404, 620.759 L 300.724, 612.333 L 313.715, 617.775 L 307.571, 626.377 L 304.937, 627.43 L 298.969, 635.681 L 296.862, 634.804 L 293.351, 639.544 L 295.458, 640.421 L 292.649, 644.284 L 292.649, 646.741 L 286.504, 655.168 L 273.513, 649.55 z "/>
<path style="fill:rgb(0, 0, 255);fill-opacity:0;fill-rule:evenodd;stroke:rgb(0, 255, 57);stroke-width:1;" d="M 278.253, 424.139 L 299.846, 393.943 L 313.891, 399.912 L 292.298, 429.932 L 278.253, 424.139 z "/>
<path style="fill:rgb(255, 255, 0);fill-opacity:0;fill-rule:evenodd;stroke:rgb(0, 255, 57);stroke-width:1;" d="M 113.935, 718.543 L 129.559, 697.652 L 135.879, 689.401 L 136.406, 688.523 L 150.274, 694.492 L 128.154, 723.985 L 127.628, 724.512 L 113.935, 718.543 z "/>
<path style="fill:rgb(255, 0, 0);fill-opacity:0;fill-rule:evenodd;stroke:rgb(0, 255, 57);stroke-width:1;" d="M 497.169, 224.885 L 516.305, 198.727 L 518.587, 199.781 L 522.449, 194.514 L 531.578, 198.376 L 527.716, 203.467 L 530.349, 204.696 L 529.647, 205.749 L 511.389, 230.854 L 497.169, 224.885 z "/>
<path style="fill:rgb(0, 255, 0);fill-opacity:0;fill-rule:evenodd;stroke:rgb(0, 255, 57);stroke-width:1;" d="M 351.986, 239.456 L 357.077, 232.258 L 373.93, 209.26 L 387.799, 215.054 L 367.435, 243.142 L 365.855, 245.249 L 351.986, 239.456 z "/>
<path style="fill:rgb(0, 0, 255);fill-opacity:0;fill-rule:evenodd;stroke:rgb(0, 255, 57);stroke-width:1;" d="M 141.672, 729.954 L 164.319, 699.759 L 178.012, 705.552 L 155.365, 735.923 L 141.672, 729.954 z "/>
<path style="fill:rgb(255, 255, 0);fill-opacity:0;fill-rule:evenodd;stroke:rgb(0, 255, 57);stroke-width:1;" d="M 128.154, 723.985 L 150.274, 694.492 L 150.801, 693.79 L 164.319, 699.759 L 141.672, 729.954 L 128.154, 723.985 z "/>
<path style="fill:rgb(255, 0, 0);fill-opacity:0;fill-rule:evenodd;stroke:rgb(0, 255, 57);stroke-width:1;" d="M 360.237, 313.364 L 368.488, 301.953 L 370.419, 301.602 L 373.228, 297.74 L 372.877, 295.809 L 381.655, 283.695 L 385.517, 285.451 L 387.975, 282.115 L 393.943, 284.573 L 391.486, 287.909 L 395.523, 289.489 L 392.539, 293.702 L 386.746, 301.602 L 384.288, 302.304 L 381.479, 306.166 L 382.357, 307.746 L 374.106, 319.157 L 360.237, 313.364 z "/>
<path style="fill:rgb(0, 255, 0);fill-opacity:0;fill-rule:evenodd;stroke:rgb(0, 255, 57);stroke-width:1;" d="M 185.736, 140.794 L 192.407, 131.666 L 197.849, 134.123 L 199.078, 132.368 L 232.609, 146.588 L 224.885, 157.296 L 185.736, 140.794 z "/>
<path style="fill:rgb(0, 0, 255);fill-opacity:0;fill-rule:evenodd;stroke:rgb(0, 255, 57);stroke-width:1;" d="M 581.26, 697.125 L 601.975, 669.037 L 616.37, 675.181 L 595.655, 703.27 L 581.26, 697.125 z "/>
<path style="fill:rgb(255, 255, 0);fill-opacity:0;fill-rule:evenodd;stroke:rgb(0, 255, 57);stroke-width:1;" d="M 346.544, 307.746 L 354.795, 296.16 L 356.726, 295.809 L 359.535, 291.946 L 359.184, 290.015 L 364.801, 282.467 L 367.961, 278.078 L 371.824, 279.658 L 373.93, 276.849 L 380.25, 279.482 L 378.144, 282.291 L 381.655, 283.695 L 372.877, 295.809 L 370.77, 296.686 L 367.961, 300.549 L 368.488, 301.953 L 360.237, 313.364 L 346.544, 307.746 z "/>
<path style="fill:rgb(255, 0, 0);fill-opacity:0;fill-rule:evenodd;stroke:rgb(0, 255, 57);stroke-width:1;" d="M 371.648, 394.646 L 377.617, 386.395 L 376.739, 384.112 L 381.128, 377.792 L 383.235, 374.808 L 386.395, 376.212 L 388.326, 373.755 L 384.99, 372.35 L 385.868, 371.297 L 393.241, 361.115 L 407.11, 366.732 L 390.432, 389.73 L 387.623, 390.608 L 381.83, 398.859 L 371.648, 394.646 z "/>
<path style="fill:rgb(0, 255, 0);fill-opacity:0;fill-rule:evenodd;stroke:rgb(0, 255, 57);stroke-width:1;" d="M 331.797, 301.426 L 349.879, 276.322 L 353.39, 277.727 L 356.901, 272.987 L 364.626, 276.147 L 361.115, 280.887 L 364.801, 282.467 L 359.184, 290.015 L 354.795, 296.16 L 346.544, 307.746 L 331.797, 301.426 z "/>
<path style="fill:rgb(0, 0, 255);fill-opacity:0;fill-rule:evenodd;stroke:rgb(0, 255, 57);stroke-width:1;" d="M 142.199, 151.503 L 145.71, 146.588 L 142.725, 145.183 L 150.45, 134.826 L 152.03, 134.299 L 154.488, 130.788 L 154.488, 129.383 L 162.739, 118.148 L 176.432, 123.941 L 169.234, 133.772 L 168.181, 135.177 L 166.601, 135.879 L 164.143, 139.39 L 164.143, 140.794 L 156.594, 151.152 L 153.61, 149.923 L 149.923, 154.839 L 142.199, 151.503 z "/>
<path style="fill:rgb(255, 255, 0);fill-opacity:0;fill-rule:evenodd;stroke:rgb(0, 255, 57);stroke-width:1;" d="M 44.2396, 180.645 L 63.375, 154.488 L 66.1839, 155.716 L 69.1683, 151.679 L 77.2438, 155.014 L 74.2594, 159.052 L 77.5949, 160.632 L 76.8927, 161.685 L 68.9928, 172.394 L 58.4595, 186.79 L 44.2396, 180.645 z "/>
<path style="fill:rgb(255, 0, 0);fill-opacity:0;fill-rule:evenodd;stroke:rgb(0, 255, 57);stroke-width:1;" d="M 358.833, 384.288 L 367.61, 372.175 L 369.892, 371.121 L 372.701, 367.259 L 372.35, 365.679 L 380.25, 354.619 L 393.768, 360.237 L 393.241, 361.115 L 385.868, 371.297 L 383.586, 371.824 L 380.777, 375.686 L 381.128, 377.792 L 376.739, 384.112 L 372.526, 389.906 L 368.664, 388.326 L 366.557, 391.135 L 360.237, 388.677 L 362.344, 385.692 L 358.833, 384.288 z "/>
<path style="fill:rgb(0, 255, 0);fill-opacity:0;fill-rule:evenodd;stroke:rgb(0, 255, 57);stroke-width:1;" d="M 566.864, 254.202 L 574.589, 243.494 L 576.344, 241.211 L 581.786, 233.838 L 588.808, 224.007 L 602.151, 229.625 L 594.953, 239.631 L 593.197, 242.089 L 580.206, 259.82 L 566.864, 254.202 z "/>
<path style="fill:rgb(0, 0, 255);fill-opacity:0;fill-rule:evenodd;stroke:rgb(0, 255, 57);stroke-width:1;" d="M 279.658, 180.47 L 287.031, 170.112 L 326.355, 186.614 L 318.982, 196.796 L 310.204, 193.285 L 279.658, 180.47 z "/>
<path style="fill:rgb(255, 255, 0);fill-opacity:0;fill-rule:evenodd;stroke:rgb(0, 255, 57);stroke-width:1;" d="M 580.206, 259.82 L 593.197, 242.089 L 596.533, 243.494 L 598.288, 241.036 L 594.953, 239.631 L 602.151, 229.625 L 616.37, 235.594 L 612.508, 240.86 L 608.997, 245.6 L 603.906, 243.494 L 602.677, 245.074 L 607.768, 247.356 L 605.135, 250.867 L 603.204, 250.165 L 600.219, 254.202 L 602.151, 255.08 L 594.426, 265.789 L 580.206, 259.82 z "/>
<path style="fill:rgb(255, 0, 0);fill-opacity:0;fill-rule:evenodd;stroke:rgb(0, 255, 57);stroke-width:1;" d="M 607.242, 271.231 L 614.088, 261.751 L 619.179, 264.033 L 620.584, 263.331 L 653.939, 277.375 L 646.39, 287.733 L 607.242, 271.231 z "/>
<path style="fill:rgb(0, 255, 0);fill-opacity:0;fill-rule:evenodd;stroke:rgb(0, 255, 57);stroke-width:1;" d="M 637.086, 720.825 L 657.801, 692.736 L 671.846, 698.881 L 663.068, 710.643 L 651.13, 726.794 L 637.086, 720.825 z "/>
<path style="fill:rgb(0, 0, 255);fill-opacity:0;fill-rule:evenodd;stroke:rgb(0, 255, 57);stroke-width:1;" d="M 232.96, 245.074 L 240.86, 234.189 L 271.407, 246.829 L 269.827, 248.936 L 279.658, 252.973 L 274.742, 259.82 L 264.911, 255.782 L 263.507, 257.713 L 232.96, 245.074 z "/>
<path style="fill:rgb(255, 255, 0);fill-opacity:0;fill-rule:evenodd;stroke:rgb(0, 255, 57);stroke-width:1;" d="M 234.365, 82.8615 L 242.265, 72.8549 L 274.918, 89.7081 L 265.613, 102.524 L 234.365, 82.8615 z "/>
<path style="fill:rgb(255, 0, 0);fill-opacity:0;fill-rule:evenodd;stroke:rgb(0, 255, 57);stroke-width:1;" d="M 235.418, 634.804 L 236.998, 632.697 L 243.142, 624.095 L 256.66, 605.662 L 263.682, 596.006 L 273.864, 600.395 L 273.513, 600.922 L 267.193, 609.348 L 252.271, 629.713 L 246.302, 638.139 L 245.6, 639.017 L 235.418, 634.804 z "/>
<path style="fill:rgb(0, 255, 0);fill-opacity:0;fill-rule:evenodd;stroke:rgb(0, 255, 57);stroke-width:1;" d="M 521.045, 317.402 L 523.327, 314.242 L 548.08, 280.009 L 561.246, 285.451 L 554.049, 295.458 L 550.362, 293.878 L 547.553, 293.878 L 545.798, 296.335 L 548.255, 297.389 L 530.876, 321.44 L 521.045, 317.402 z "/>
<path style="fill:rgb(0, 0, 255);fill-opacity:0;fill-rule:evenodd;stroke:rgb(0, 255, 57);stroke-width:1;" d="M 609.348, 709.063 L 630.064, 680.974 L 644.108, 686.943 L 623.217, 715.032 L 609.348, 709.063 z "/>
<path style="fill:rgb(255, 255, 0);fill-opacity:0;fill-rule:evenodd;stroke:rgb(0, 255, 57);stroke-width:1;" d="M 385.868, 178.187 L 404.477, 152.557 L 407.285, 153.785 L 409.568, 150.625 L 418.345, 154.312 L 415.888, 157.472 L 418.697, 158.525 L 400.088, 184.156 L 385.868, 178.187 z "/>
<path style="fill:rgb(255, 0, 0);fill-opacity:0;fill-rule:evenodd;stroke:rgb(0, 255, 57);stroke-width:1;" d="M 330.042, 112.53 L 338.117, 101.47 L 343.384, 103.752 L 342.506, 105.157 L 342.682, 106.035 L 369.19, 117.095 L 369.892, 117.446 L 368.839, 118.675 L 371.472, 119.728 L 372.526, 118.148 L 378.319, 120.43 L 376.739, 122.537 L 381.128, 124.468 L 378.144, 128.506 L 373.755, 126.575 L 372.526, 128.506 L 366.732, 126.048 L 367.61, 124.819 L 365.153, 123.766 L 363.046, 126.575 L 343.384, 118.148 L 330.042, 112.53 z "/>
<path style="fill:rgb(0, 255, 0);fill-opacity:0;fill-rule:evenodd;stroke:rgb(0, 255, 57);stroke-width:1;" d="M 455.563, 207.505 L 473.996, 182.225 L 474.698, 181.172 L 477.858, 182.401 L 479.965, 179.592 L 488.04, 182.927 L 485.934, 185.912 L 488.567, 187.141 L 469.432, 213.298 L 455.563, 207.505 z "/>
<path style="fill:rgb(0, 0, 255);fill-opacity:0;fill-rule:evenodd;stroke:rgb(0, 255, 57);stroke-width:1;" d="M 452.754, 140.794 L 457.318, 134.65 L 454.861, 133.597 L 455.738, 132.368 L 468.905, 114.461 L 475.752, 117.27 L 483.125, 107.088 L 490.147, 109.897 L 488.216, 112.706 L 469.432, 138.161 L 468.729, 139.214 L 466.272, 138.161 L 461.707, 144.481 L 452.754, 140.794 z "/>
<path style="fill:rgb(255, 255, 0);fill-opacity:0;fill-rule:evenodd;stroke:rgb(0, 255, 57);stroke-width:1;" d="M 109.019, 255.08 L 117.27, 243.494 L 151.328, 257.889 L 143.077, 269.3 L 109.019, 255.08 z "/>
<path style="fill:rgb(255, 0, 0);fill-opacity:0;fill-rule:evenodd;stroke:rgb(0, 255, 57);stroke-width:1;" d="M 623.217, 715.032 L 644.108, 686.943 L 657.801, 692.736 L 637.086, 720.825 L 623.217, 715.032 z "/>
<path style="fill:rgb(0, 255, 0);fill-opacity:0;fill-rule:evenodd;stroke:rgb(0, 255, 57);stroke-width:1;" d="M 595.655, 703.27 L 616.37, 675.181 L 630.064, 680.974 L 609.348, 709.063 L 595.655, 703.27 z "/>
<path style="fill:rgb(0, 0, 255);fill-opacity:0;fill-rule:evenodd;stroke:rgb(0, 255, 57);stroke-width:1;" d="M 552.995, 248.409 L 560.72, 237.876 L 562.3, 238.578 L 563.88, 236.296 L 562.3, 235.594 L 567.917, 228.045 L 570.2, 226.991 L 572.482, 223.831 L 571.604, 223.305 L 572.482, 222.076 L 573.535, 222.427 L 576.169, 218.916 L 587.228, 223.48 L 581.26, 231.556 L 581.786, 233.838 L 576.344, 241.211 L 573.009, 239.982 L 571.253, 242.265 L 574.589, 243.494 L 566.864, 254.202 L 552.995, 248.409 z "/>
<path style="fill:rgb(255, 255, 0);fill-opacity:0;fill-rule:evenodd;stroke:rgb(0, 255, 57);stroke-width:1;" d="M 400.088, 184.156 L 418.697, 158.525 L 421.681, 159.754 L 423.963, 156.594 L 432.214, 160.105 L 429.932, 163.265 L 432.39, 164.319 L 432.214, 164.67 L 413.957, 189.95 L 400.088, 184.156 z "/>
<path style="fill:rgb(255, 0, 0);fill-opacity:0;fill-rule:evenodd;stroke:rgb(0, 255, 57);stroke-width:1;" d="M 174.325, 525.258 L 180.118, 517.182 L 184.156, 518.938 L 186.438, 518.236 L 186.438, 516.305 L 205.398, 490.674 L 214.703, 494.711 L 207.68, 504.191 L 187.843, 531.051 L 174.325, 525.258 z "/>
<path style="fill:rgb(0, 255, 0);fill-opacity:0;fill-rule:evenodd;stroke:rgb(0, 255, 57);stroke-width:1;" d="M 342.155, 225.938 L 352.513, 211.543 L 359.886, 201.361 L 374.984, 207.505 L 373.93, 209.26 L 357.077, 232.258 L 342.155, 225.938 z "/>
<path style="fill:rgb(0, 0, 255);fill-opacity:0;fill-rule:evenodd;stroke:rgb(0, 255, 57);stroke-width:1;" d="M 498.047, 440.992 L 506.825, 428.703 L 509.107, 428.176 L 511.565, 424.841 L 510.862, 423.085 L 518.06, 413.079 L 531.753, 418.697 L 524.556, 428.703 L 522.8, 429.581 L 520.342, 432.916 L 520.518, 434.496 L 514.9, 442.045 L 511.565, 446.61 L 498.047, 440.992 z "/>
<path style="fill:rgb(255, 255, 0);fill-opacity:0;fill-rule:evenodd;stroke:rgb(0, 255, 57);stroke-width:1;" d="M 470.661, 429.581 L 473.996, 425.016 L 479.438, 417.468 L 481.72, 416.765 L 484.178, 413.43 L 483.476, 411.674 L 490.849, 401.668 L 504.542, 407.285 L 497.169, 417.468 L 495.414, 418.17 L 492.956, 421.505 L 493.131, 423.085 L 484.354, 435.374 L 470.661, 429.581 z "/>
<path style="fill:rgb(255, 0, 0);fill-opacity:0;fill-rule:evenodd;stroke:rgb(0, 255, 57);stroke-width:1;" d="M 484.354, 435.374 L 493.131, 423.085 L 495.414, 422.559 L 497.871, 419.048 L 497.169, 417.468 L 504.542, 407.285 L 518.06, 413.079 L 510.862, 423.085 L 509.107, 423.788 L 506.649, 427.123 L 506.825, 428.703 L 498.047, 440.992 L 484.354, 435.374 z "/>
<path style="fill:rgb(0, 255, 0);fill-opacity:0;fill-rule:evenodd;stroke:rgb(0, 255, 57);stroke-width:1;" d="M 469.432, 213.298 L 488.567, 187.141 L 491.376, 188.194 L 493.483, 185.21 L 501.558, 188.721 L 499.451, 191.705 L 501.734, 192.583 L 482.598, 218.74 L 469.432, 213.298 z "/>
<path style="fill:rgb(0, 0, 255);fill-opacity:0;fill-rule:evenodd;stroke:rgb(0, 255, 57);stroke-width:1;" d="M 93.5703, 276.322 L 101.295, 265.613 L 135.352, 279.833 L 127.628, 290.718 L 101.119, 279.658 L 93.5703, 276.322 z "/>
<path style="fill:rgb(255, 255, 0);fill-opacity:0;fill-rule:evenodd;stroke:rgb(0, 255, 57);stroke-width:1;" d="M 704.323, 749.265 L 714.33, 735.923 L 741.189, 747.334 L 731.358, 760.851 L 704.323, 749.265 z "/>
<path style="fill:rgb(255, 0, 0);fill-opacity:0;fill-rule:evenodd;stroke:rgb(0, 255, 57);stroke-width:1;" d="M 376.212, 597.235 L 384.288, 586.526 L 405.881, 595.655 L 417.994, 600.922 L 410.094, 611.63 L 376.212, 597.235 z "/>
<path style="fill:rgb(0, 255, 0);fill-opacity:0;fill-rule:evenodd;stroke:rgb(0, 255, 57);stroke-width:1;" d="M 541.76, 313.189 L 550.011, 301.777 L 551.767, 302.129 L 554.224, 298.618 L 552.82, 297.038 L 554.049, 295.458 L 561.246, 285.451 L 575.115, 291.244 L 574.94, 291.595 L 567.391, 302.129 L 566.864, 303.006 L 564.582, 303.006 L 562.3, 306.166 L 563.529, 307.395 L 562.826, 308.449 L 555.278, 318.806 L 541.76, 313.189 z "/>
<path style="fill:rgb(0, 0, 255);fill-opacity:0;fill-rule:evenodd;stroke:rgb(0, 255, 57);stroke-width:1;" d="M 142.199, 367.435 L 149.221, 357.955 L 178.187, 369.892 L 186.79, 373.579 L 179.767, 383.059 L 142.199, 367.435 z "/>
<path style="fill:rgb(255, 255, 0);fill-opacity:0;fill-rule:evenodd;stroke:rgb(0, 255, 57);stroke-width:1;" d="M 101.295, 265.613 L 109.019, 255.08 L 143.077, 269.3 L 135.352, 279.833 L 101.295, 265.613 z "/>
<path style="fill:rgb(255, 0, 0);fill-opacity:0;fill-rule:evenodd;stroke:rgb(0, 255, 57);stroke-width:1;" d="M 374.106, 319.157 L 382.357, 307.746 L 386.746, 301.602 L 392.539, 293.702 L 406.583, 299.495 L 388.15, 325.126 L 374.106, 319.157 z "/>
<path style="fill:rgb(0, 255, 0);fill-opacity:0;fill-rule:evenodd;stroke:rgb(0, 255, 57);stroke-width:1;" d="M 113.232, 209.963 L 123.941, 195.567 L 126.048, 192.583 L 138.161, 197.674 L 140.97, 202.589 L 138.863, 205.574 L 144.13, 207.856 L 135.703, 219.443 L 113.232, 209.963 z "/>
<path style="fill:rgb(0, 0, 255);fill-opacity:0;fill-rule:evenodd;stroke:rgb(0, 255, 57);stroke-width:1;" d="M 441.519, 201.536 L 459.952, 176.256 L 473.996, 182.225 L 455.563, 207.505 L 441.519, 201.536 z "/>
<path style="fill:rgb(255, 255, 0);fill-opacity:0;fill-rule:evenodd;stroke:rgb(0, 255, 57);stroke-width:1;" d="M 620.584, 263.331 L 628.308, 252.798 L 661.663, 266.842 L 653.939, 277.375 L 620.584, 263.331 z "/>
<path style="fill:rgb(255, 0, 0);fill-opacity:0;fill-rule:evenodd;stroke:rgb(0, 255, 57);stroke-width:1;" d="M 540.004, 386.043 L 551.064, 372.526 L 575.642, 379.548 L 563.704, 396.05 L 540.004, 386.043 z "/>
<path style="fill:rgb(0, 255, 0);fill-opacity:0;fill-rule:evenodd;stroke:rgb(0, 255, 57);stroke-width:1;" d="M 62.6728, 478.736 L 69.695, 469.432 L 106.912, 485.407 L 100.066, 494.711 L 62.6728, 478.736 z "/>
<path style="fill:rgb(0, 0, 255);fill-opacity:0;fill-rule:evenodd;stroke:rgb(0, 255, 57);stroke-width:1;" d="M 153.785, 80.7549 L 171.692, 56.1773 L 174.852, 57.5817 L 176.607, 55.2995 L 183.454, 58.1084 L 181.698, 60.5662 L 185.385, 61.9706 L 174.325, 77.2438 L 167.654, 86.3726 L 153.785, 80.7549 z "/>
<path style="fill:rgb(255, 255, 0);fill-opacity:0;fill-rule:evenodd;stroke:rgb(0, 255, 57);stroke-width:1;" d="M 586, 310.029 L 593.724, 299.495 L 627.079, 313.364 L 619.53, 323.897 L 586, 310.029 z "/>
<path style="fill:rgb(255, 0, 0);fill-opacity:0;fill-rule:evenodd;stroke:rgb(0, 255, 57);stroke-width:1;" d="M 427.65, 195.743 L 446.083, 170.463 L 459.952, 176.256 L 441.519, 201.536 L 427.65, 195.743 z "/>
<path style="fill:rgb(0, 255, 0);fill-opacity:0;fill-rule:evenodd;stroke:rgb(0, 255, 57);stroke-width:1;" d="M 182.401, 384.288 L 195.743, 365.855 L 197.849, 362.87 L 205.047, 365.679 L 214.352, 369.717 L 198.903, 391.135 L 182.401, 384.288 z "/>
<path style="fill:rgb(0, 0, 255);fill-opacity:0;fill-rule:evenodd;stroke:rgb(0, 255, 57);stroke-width:1;" d="M 413.957, 189.95 L 432.214, 164.67 L 446.083, 170.463 L 427.65, 195.743 L 413.957, 189.95 z "/>
<path style="fill:rgb(255, 255, 0);fill-opacity:0;fill-rule:evenodd;stroke:rgb(0, 255, 57);stroke-width:1;" d="M 628.308, 252.798 L 635.857, 242.265 L 669.212, 256.309 L 661.663, 266.842 L 628.308, 252.798 z "/>
<path style="fill:rgb(255, 0, 0);fill-opacity:0;fill-rule:evenodd;stroke:rgb(0, 255, 57);stroke-width:1;" d="M 102.172, 136.757 L 107.79, 129.032 L 115.69, 118.148 L 117.972, 115.163 L 126.926, 102.875 L 137.986, 107.615 L 129.734, 119.026 L 127.628, 119.201 L 124.643, 123.239 L 125.521, 124.468 L 122.712, 128.33 L 118.85, 133.772 L 115.866, 132.543 L 110.424, 140.092 L 102.172, 136.757 z "/>
<path style="fill:rgb(0, 255, 0);fill-opacity:0;fill-rule:evenodd;stroke:rgb(0, 255, 57);stroke-width:1;" d="M 292.298, 429.932 L 313.891, 399.912 L 325.477, 404.652 L 323.546, 407.285 L 303.709, 434.672 L 292.298, 429.932 z "/>
<path style="fill:rgb(0, 0, 255);fill-opacity:0;fill-rule:evenodd;stroke:rgb(0, 255, 57);stroke-width:1;" d="M 388.15, 325.126 L 406.583, 299.495 L 409.217, 295.984 L 420.979, 300.9 L 402.721, 326.004 L 399.912, 330.042 L 388.15, 325.126 z "/>
<path style="fill:rgb(255, 255, 0);fill-opacity:0;fill-rule:evenodd;stroke:rgb(0, 255, 57);stroke-width:1;" d="M 427.65, 486.987 L 444.503, 463.814 L 459.074, 469.783 L 442.396, 493.131 L 427.65, 486.987 z "/>
<path style="fill:rgb(255, 0, 0);fill-opacity:0;fill-rule:evenodd;stroke:rgb(0, 255, 57);stroke-width:1;" d="M 271.582, 191.53 L 279.658, 180.47 L 310.204, 193.285 L 302.129, 204.345 L 271.582, 191.53 z "/>
<path style="fill:rgb(0, 255, 0);fill-opacity:0;fill-rule:evenodd;stroke:rgb(0, 255, 57);stroke-width:1;" d="M 155.541, 349.177 L 161.51, 340.75 L 162.914, 341.453 L 201.712, 357.604 L 197.849, 362.87 L 195.743, 365.855 L 184.507, 361.115 L 155.541, 349.177 z "/>
<path style="fill:rgb(0, 0, 255);fill-opacity:0;fill-rule:evenodd;stroke:rgb(0, 255, 57);stroke-width:1;" d="M 263.682, 202.414 L 271.582, 191.53 L 302.129, 204.345 L 294.229, 215.229 L 263.682, 202.414 z "/>
<path style="fill:rgb(255, 255, 0);fill-opacity:0;fill-rule:evenodd;stroke:rgb(0, 255, 57);stroke-width:1;" d="M 59.1617, 116.392 L 76.0149, 93.3948 L 82.8615, 84.0904 L 93.5703, 88.8304 L 74.4349, 114.988 L 71.0994, 113.583 L 66.535, 119.728 L 59.1617, 116.392 z "/>
<path style="fill:rgb(255, 0, 0);fill-opacity:0;fill-rule:evenodd;stroke:rgb(0, 255, 57);stroke-width:1;" d="M 385.517, 244.547 L 402.546, 221.198 L 416.59, 227.167 L 399.737, 250.516 L 385.517, 244.547 z "/>
<path style="fill:rgb(0, 255, 0);fill-opacity:0;fill-rule:evenodd;stroke:rgb(0, 255, 57);stroke-width:1;" d="M 255.958, 213.123 L 263.682, 202.414 L 294.229, 215.229 L 286.504, 225.938 L 255.958, 213.123 z "/>
<path style="fill:rgb(0, 0, 255);fill-opacity:0;fill-rule:evenodd;stroke:rgb(0, 255, 57);stroke-width:1;" d="M 460.127, 419.223 L 461.356, 417.468 L 476.805, 395.874 L 490.849, 401.668 L 483.476, 411.674 L 479.438, 417.468 L 473.996, 425.016 L 460.127, 419.223 z "/>
<path style="fill:rgb(255, 255, 0);fill-opacity:0;fill-rule:evenodd;stroke:rgb(0, 255, 57);stroke-width:1;" d="M 207.68, 504.191 L 214.703, 494.711 L 218.74, 489.269 L 239.982, 498.398 L 229.098, 513.145 L 207.68, 504.191 z "/>
<path style="fill:rgb(255, 0, 0);fill-opacity:0;fill-rule:evenodd;stroke:rgb(0, 255, 57);stroke-width:1;" d="M 341.453, 159.403 L 353.39, 143.077 L 356.199, 144.305 L 358.833, 140.619 L 370.068, 145.359 L 367.435, 149.045 L 370.244, 150.274 L 358.481, 166.601 L 341.453, 159.403 z "/>
<path style="fill:rgb(0, 255, 0);fill-opacity:0;fill-rule:evenodd;stroke:rgb(0, 255, 57);stroke-width:1;" d="M 156.77, 663.946 L 163.968, 654.115 L 176.607, 636.91 L 187.316, 643.406 L 180.118, 653.061 L 168.532, 669.037 L 156.77, 663.946 z "/>
<path style="fill:rgb(0, 0, 255);fill-opacity:0;fill-rule:evenodd;stroke:rgb(0, 255, 57);stroke-width:1;" d="M 402.194, 722.756 L 408.163, 714.33 L 445.03, 729.778 L 438.885, 738.205 L 402.194, 722.756 z "/>
<path style="fill:rgb(255, 255, 0);fill-opacity:0;fill-rule:evenodd;stroke:rgb(0, 255, 57);stroke-width:1;" d="M 447.136, 411.499 L 462.585, 389.906 L 476.805, 395.874 L 461.356, 417.468 L 447.136, 411.499 z "/>
<path style="fill:rgb(255, 0, 0);fill-opacity:0;fill-rule:evenodd;stroke:rgb(0, 255, 57);stroke-width:1;" d="M 396.05, 731.007 L 402.194, 722.756 L 438.885, 738.205 L 432.916, 746.456 L 396.05, 731.007 z "/>
<path style="fill:rgb(0, 255, 0);fill-opacity:0;fill-rule:evenodd;stroke:rgb(0, 255, 57);stroke-width:1;" d="M 96.2036, 124.117 L 115.339, 97.9592 L 126.926, 102.875 L 117.972, 115.163 L 116.217, 114.286 L 113.935, 117.446 L 115.69, 118.148 L 107.79, 129.032 L 96.2036, 124.117 z "/>
<path style="fill:rgb(0, 0, 255);fill-opacity:0;fill-rule:evenodd;stroke:rgb(0, 255, 57);stroke-width:1;" d="M 358.481, 166.601 L 370.244, 150.274 L 373.755, 145.534 L 387.623, 151.503 L 372.35, 172.394 L 358.481, 166.601 z "/>
<path style="fill:rgb(255, 255, 0);fill-opacity:0;fill-rule:evenodd;stroke:rgb(0, 255, 57);stroke-width:1;" d="M 84.9682, 119.377 L 104.279, 93.2192 L 115.339, 97.9592 L 96.2036, 124.117 L 84.9682, 119.377 z "/>
<path style="fill:rgb(255, 0, 0);fill-opacity:0;fill-rule:evenodd;stroke:rgb(0, 255, 57);stroke-width:1;" d="M 635.681, 209.26 L 654.992, 182.927 L 657.099, 180.118 L 667.457, 184.332 L 649.55, 209.085 L 647.268, 208.032 L 643.757, 212.772 L 635.681, 209.26 z "/>
<path style="fill:rgb(0, 255, 0);fill-opacity:0;fill-rule:evenodd;stroke:rgb(0, 255, 57);stroke-width:1;" d="M 303.357, 435.374 L 303.709, 434.672 L 323.546, 407.285 L 334.079, 411.499 L 321.966, 428.176 L 313.715, 439.587 L 303.357, 435.374 z "/>
<path style="fill:rgb(0, 0, 255);fill-opacity:0;fill-rule:evenodd;stroke:rgb(0, 255, 57);stroke-width:1;" d="M 74.4349, 114.988 L 93.5703, 88.8304 L 104.279, 93.2192 L 84.9682, 119.377 L 74.4349, 114.988 z "/>
<path style="fill:rgb(255, 255, 0);fill-opacity:0;fill-rule:evenodd;stroke:rgb(0, 255, 57);stroke-width:1;" d="M 594.426, 265.789 L 602.151, 255.08 L 605.135, 250.867 L 607.768, 247.356 L 608.997, 245.6 L 612.508, 240.86 L 622.866, 245.074 L 604.608, 270.178 L 594.426, 265.789 z "/>
<path style="fill:rgb(255, 0, 0);fill-opacity:0;fill-rule:evenodd;stroke:rgb(0, 255, 57);stroke-width:1;" d="M 149.221, 357.955 L 155.541, 349.177 L 184.507, 361.115 L 178.187, 369.892 L 149.221, 357.955 z "/>
<path style="fill:rgb(0, 255, 0);fill-opacity:0;fill-rule:evenodd;stroke:rgb(0, 255, 57);stroke-width:1;" d="M 147.29, 224.534 L 155.892, 212.772 L 177.31, 221.9 L 168.707, 233.662 L 147.29, 224.534 z "/>
<path style="fill:rgb(0, 0, 255);fill-opacity:0;fill-rule:evenodd;stroke:rgb(0, 255, 57);stroke-width:1;" d="M 197.849, 362.87 L 201.712, 357.604 L 212.42, 342.682 L 228.923, 349.353 L 221.374, 359.886 L 211.894, 356.024 L 205.047, 365.679 L 197.849, 362.87 z "/>
<path style="fill:rgb(255, 255, 0);fill-opacity:0;fill-rule:evenodd;stroke:rgb(0, 255, 57);stroke-width:1;" d="M 346.895, 598.991 L 359.359, 582.137 L 373.052, 587.931 L 360.588, 604.784 L 346.895, 598.991 z "/>
<path style="fill:rgb(255, 0, 0);fill-opacity:0;fill-rule:evenodd;stroke:rgb(0, 255, 57);stroke-width:1;" d="M 122.712, 128.33 L 125.521, 124.468 L 129.734, 119.026 L 137.986, 107.615 L 149.221, 112.355 L 133.948, 133.07 L 122.712, 128.33 z "/>
<path style="fill:rgb(0, 255, 0);fill-opacity:0;fill-rule:evenodd;stroke:rgb(0, 255, 57);stroke-width:1;" d="M 663.068, 710.643 L 671.846, 698.881 L 674.83, 694.843 L 683.432, 698.53 L 675.181, 709.765 L 682.028, 712.75 L 683.608, 710.643 L 689.928, 713.276 L 685.012, 719.947 L 663.068, 710.643 z "/>
<path style="fill:rgb(0, 0, 255);fill-opacity:0;fill-rule:evenodd;stroke:rgb(0, 255, 57);stroke-width:1;" d="M 169.234, 133.772 L 176.432, 123.941 L 177.134, 123.063 L 193.636, 130.086 L 192.407, 131.666 L 185.736, 140.794 L 169.234, 133.772 z "/>
<path style="fill:rgb(255, 255, 0);fill-opacity:0;fill-rule:evenodd;stroke:rgb(0, 255, 57);stroke-width:1;" d="M 409.217, 295.984 L 418.872, 282.467 L 430.634, 287.382 L 420.979, 300.9 L 409.217, 295.984 z "/>
<path style="fill:rgb(255, 0, 0);fill-opacity:0;fill-rule:evenodd;stroke:rgb(0, 255, 57);stroke-width:1;" d="M 567.391, 302.129 L 574.94, 291.595 L 589.335, 297.74 L 581.786, 308.273 L 567.391, 302.129 z "/>
<path style="fill:rgb(0, 255, 0);fill-opacity:0;fill-rule:evenodd;stroke:rgb(0, 255, 57);stroke-width:1;" d="M 135.703, 219.443 L 144.13, 207.856 L 148.87, 209.787 L 155.892, 212.772 L 147.29, 224.534 L 135.703, 219.443 z "/>
<path style="fill:rgb(0, 0, 255);fill-opacity:0;fill-rule:evenodd;stroke:rgb(0, 255, 57);stroke-width:1;" d="M 110.775, 145.008 L 118.675, 134.123 L 129.734, 138.863 L 121.835, 149.572 L 110.775, 145.008 z "/>
<path style="fill:rgb(255, 255, 0);fill-opacity:0;fill-rule:evenodd;stroke:rgb(0, 255, 57);stroke-width:1;" d="M 403.423, 91.6392 L 413.43, 77.7705 L 420.803, 80.7549 L 410.621, 94.7992 L 403.423, 91.6392 z "/>
<path style="fill:rgb(255, 0, 0);fill-opacity:0;fill-rule:evenodd;stroke:rgb(0, 255, 57);stroke-width:1;" d="M 73.9083, 614.79 L 84.0904, 600.395 L 90.937, 603.028 L 80.5793, 617.599 L 73.9083, 614.79 z "/>
<path style="fill:rgb(0, 255, 0);fill-opacity:0;fill-rule:evenodd;stroke:rgb(0, 255, 57);stroke-width:1;" d="M 12.4643, 304.586 L 32.6531, 276.673 L 58.8106, 287.733 L 56.3529, 291.244 L 71.4505, 297.564 L 80.9304, 284.573 L 93.5703, 289.84 L 101.119, 279.658 L 127.628, 290.718 L 88.8304, 344.262 L 33.7064, 321.088 L 37.9197, 315.295 L 12.4643, 304.586 z "/>
<path style="fill:rgb(0, 0, 255);fill-opacity:0;fill-rule:evenodd;stroke:rgb(0, 255, 57);stroke-width:1;" d="M 0, 241.738 L 8.7777, 229.625 L 16.6776, 232.96 L 25.6309, 220.671 L 17.731, 217.336 L 26.1576, 205.749 L 38.7975, 211.016 L 37.393, 212.772 L 48.2774, 217.336 L 49.5063, 215.58 L 60.9173, 220.32 L 61.4439, 220.847 L 61.795, 221.374 L 62.1461, 222.427 L 61.795, 223.48 L 58.284, 228.396 L 58.9862, 228.571 L 54.5973, 234.716 L 61.9706, 237.876 L 66.3594, 231.731 L 67.0617, 232.083 L 70.7483, 227.343 L 72.5038, 226.289 L 73.9083, 226.114 L 74.6105, 226.289 L 75.3127, 226.465 L 85.846, 230.854 L 84.7926, 232.258 L 94.2725, 236.296 L 95.3259, 234.891 L 109.37, 240.86 L 100.768, 252.798 L 92.8681, 249.462 L 84.0904, 261.576 L 91.8148, 264.911 L 83.2126, 276.849 L 46.6974, 261.4 L 54.9484, 249.989 L 56.5284, 250.691 L 59.1617, 247.18 L 46.1707, 241.738 L 43.713, 245.249 L 45.4685, 245.951 L 37.0419, 257.362 L 0, 241.738 z "/>
<path style="fill:rgb(255, 255, 0);fill-opacity:0;fill-rule:evenodd;stroke:rgb(0, 255, 57);stroke-width:1;" d="M 17.0287, 751.02 L 25.1042, 740.136 L 32.8286, 743.647 L 36.3397, 738.907 L 44.5907, 728.023 L 36.8664, 724.687 L 45.1174, 713.627 L 100.241, 737.678 L 99.1881, 739.083 L 91.9903, 748.738 L 85.1437, 745.754 L 73.9083, 760.676 L 80.7549, 763.66 L 79.8771, 764.714 L 72.1527, 775.071 L 17.0287, 751.02 z M 46.5218, 748.914 L 60.9173, 755.058 L 72.1527, 739.961 L 57.7573, 733.816 L 46.5218, 748.914 z "/>
<path style="fill:rgb(255, 0, 0);fill-opacity:0;fill-rule:evenodd;stroke:rgb(0, 255, 57);stroke-width:1;" d="M 36.6908, 113.408 L 55.6506, 87.6015 L 57.0551, 87.0748 L 57.0551, 85.6704 L 53.3684, 84.0904 L 60.3906, 74.6105 L 82.8615, 84.0904 L 76.0149, 93.3948 L 71.9772, 91.6392 L 70.2216, 92.6926 L 70.3972, 93.9214 L 51.4373, 119.728 L 36.6908, 113.408 z "/>
<path style="fill:rgb(0, 255, 0);fill-opacity:0;fill-rule:evenodd;stroke:rgb(0, 255, 57);stroke-width:1;" d="M 35.6375, 515.251 L 43.713, 504.367 L 92.517, 524.907 L 84.6171, 535.791 L 73.0305, 530.876 L 35.6375, 515.251 z "/>
<path style="fill:rgb(0, 0, 255);fill-opacity:0;fill-rule:evenodd;stroke:rgb(0, 255, 57);stroke-width:1;" d="M 30.8975, 175.027 L 50.0329, 148.87 L 52.3151, 149.748 L 55.2995, 145.71 L 63.7261, 149.397 L 60.7417, 153.434 L 63.375, 154.488 L 44.2396, 180.645 L 30.8975, 175.027 z "/>
<path style="fill:rgb(255, 255, 0);fill-opacity:0;fill-rule:evenodd;stroke:rgb(0, 255, 57);stroke-width:1;" d="M 895.326, 61.9706 L 940.794, 0 L 972.043, 13.1666 L 966.25, 21.242 L 963.968, 24.402 L 977.661, 30.1953 L 967.479, 44.2396 L 962.036, 51.6129 L 989.774, 63.375 L 970.112, 90.0592 L 951.679, 82.1593 L 948.343, 86.7237 L 946.412, 86.0215 L 947.641, 84.266 L 895.326, 61.9706 z "/>
<path style="fill:rgb(255, 0, 0);fill-opacity:0;fill-rule:evenodd;stroke:rgb(0, 255, 57);stroke-width:1;" d="M 524.205, 69.1683 L 541.935, 44.9418 L 547.729, 47.5752 L 550.889, 43.3619 L 553.873, 42.4841 L 570.551, 49.6818 L 568.62, 52.3151 L 580.557, 57.4062 L 582.664, 54.5973 L 625.499, 72.6794 L 623.393, 75.4883 L 635.155, 80.4038 L 637.261, 77.5949 L 654.29, 84.9682 L 654.817, 87.2504 L 651.832, 91.4637 L 657.801, 94.097 L 640.07, 118.148 L 611.806, 106.21 L 614.966, 101.997 L 604.433, 97.4325 L 601.448, 101.646 L 563.002, 85.4948 L 565.986, 81.2815 L 555.278, 76.7171 L 552.118, 80.9304 L 524.205, 69.1683 z "/>
<path style="fill:rgb(0, 255, 0);fill-opacity:0;fill-rule:evenodd;stroke:rgb(0, 255, 57);stroke-width:1;" d="M 174.325, 77.2438 L 185.385, 61.9706 L 191.53, 53.7196 L 177.485, 47.7507 L 185.736, 36.5153 L 198.727, 41.9574 L 204.872, 33.7064 L 224.358, 41.9574 L 218.389, 50.2085 L 233.487, 56.704 L 227.343, 65.1306 L 220.671, 74.2594 L 209.26, 89.8837 L 203.467, 87.2504 L 200.307, 91.6392 L 185.561, 85.4948 L 187.492, 82.8615 L 174.325, 77.2438 z "/>
<path style="fill:rgb(0, 0, 255);fill-opacity:0;fill-rule:evenodd;stroke:rgb(0, 255, 57);stroke-width:1;" d="M 679.921, 67.0617 L 681.677, 64.6039 L 701.514, 37.7441 L 705.025, 32.6531 L 732.938, 44.5907 L 732.587, 44.9418 L 721.527, 60.0395 L 706.956, 80.2282 L 704.85, 79.3504 L 705.903, 77.946 L 679.921, 67.0617 z "/>
<path style="fill:rgb(255, 255, 0);fill-opacity:0;fill-rule:evenodd;stroke:rgb(0, 255, 57);stroke-width:1;" d="M 140.092, 74.786 L 160.808, 46.3463 L 174.676, 52.1396 L 171.692, 56.1773 L 153.785, 80.7549 L 140.092, 74.786 z "/>
<path style="fill:rgb(255, 0, 0);fill-opacity:0;fill-rule:evenodd;stroke:rgb(0, 255, 57);stroke-width:1;" d="M 126.223, 68.9928 L 146.588, 41.0797 L 146.939, 40.553 L 160.808, 46.3463 L 140.092, 74.786 L 126.223, 68.9928 z "/>
<path style="fill:rgb(0, 255, 0);fill-opacity:0;fill-rule:evenodd;stroke:rgb(0, 255, 57);stroke-width:1;" d="M 112.355, 63.1995 L 131.49, 37.2175 L 132.719, 35.2864 L 146.588, 41.0797 L 126.223, 68.9928 L 112.355, 63.1995 z "/>
<path style="fill:rgb(0, 0, 255);fill-opacity:0;fill-rule:evenodd;stroke:rgb(0, 255, 57);stroke-width:1;" d="M 97.7836, 58.1084 L 117.446, 31.2486 L 131.49, 37.2175 L 112.355, 63.1995 L 111.828, 64.0772 L 97.7836, 58.1084 z "/>
</svg>