<?xml version="1.0" encoding="iso-8859-1" standalone="no"?>
<!DOCTYPE svg PUBLIC "-//W3C//DTD SVG 1.0//EN" "http://www.w3.org/TR/2001/REC-SVG-20010904/DTD/svg10.dtd">
<svg xmlns="http://www.w3.org/2000/svg" width="1223" height="800">
<path style="fill:rgb(255, 0, 0);fill-opacity:0;fill-rule:evenodd;stroke:rgb(74, 255, 0);stroke-width:1;" d="M 818.999, 346.415 L 836.707, 322.066 L 880.24, 340.512 L 886.327, 332.211 L 926.355, 348.997 L 925.432, 350.288 L 967.674, 368.181 L 967.12, 368.919 L 980.586, 374.637 L 959.742, 403.228 L 966.013, 405.81 L 937.238, 445.285 L 935.762, 444.547 L 923.957, 460.779 L 863.27, 435.324 L 861.425, 437.722 L 821.766, 420.936 L 862.716, 364.676 L 818.999, 346.415 z M 880.055, 411.16 L 883.745, 412.82 L 897.21, 394.005 L 893.521, 392.345 L 880.055, 411.16 z "/>
<path style="fill:rgb(0, 255, 0);fill-opacity:0;fill-rule:evenodd;stroke:rgb(74, 255, 0);stroke-width:1;" d="M 1003.09, 641.734 L 1015.45, 624.395 L 1046.62, 581.047 L 1058.8, 564.077 L 1160.99, 606.502 L 1155.27, 614.618 L 1144.39, 629.56 L 1144.02, 629.56 L 1105.1, 683.975 L 1003.09, 641.734 z "/>
<path style="fill:rgb(0, 0, 255);fill-opacity:0;fill-rule:evenodd;stroke:rgb(74, 255, 0);stroke-width:1;" d="M 230.943, 499.331 L 303.436, 400.092 L 330.736, 411.344 L 328.891, 413.927 L 330.367, 414.48 L 323.542, 423.519 L 268.573, 498.225 L 307.125, 514.273 L 361.356, 439.567 L 372.977, 423.703 L 402.675, 436.062 L 328.522, 537.699 L 312.29, 531.058 L 309.154, 535.116 L 296.242, 529.767 L 300.853, 523.496 L 262.855, 507.632 L 260.088, 511.69 L 230.943, 499.331 z "/>
<path style="fill:rgb(255, 255, 0);fill-opacity:0;fill-rule:evenodd;stroke:rgb(74, 255, 0);stroke-width:1;" d="M 1101.59, 690.247 L 1166.71, 601.337 L 1223.89, 625.686 L 1158.96, 714.411 L 1101.59, 690.247 z "/>
<path style="fill:rgb(255, 0, 0);fill-opacity:0;fill-rule:evenodd;stroke:rgb(74, 255, 0);stroke-width:1;" d="M 827.116, 517.408 L 842.979, 495.642 L 849.435, 486.604 L 851.095, 484.021 L 859.58, 472.4 L 955.13, 512.059 L 957.528, 520.729 L 929.122, 559.834 L 915.287, 554.116 L 827.116, 517.408 z "/>
<path style="fill:rgb(0, 255, 0);fill-opacity:0;fill-rule:evenodd;stroke:rgb(74, 255, 0);stroke-width:1;" d="M 434.402, 257.69 L 450.081, 236.108 L 473.138, 245.884 L 476.274, 244.962 L 478.303, 242.195 L 477.012, 239.613 L 455.983, 230.759 L 468.896, 213.235 L 490.108, 222.089 L 493.06, 221.536 L 495.642, 218.031 L 494.535, 216.002 L 471.662, 206.41 L 486.419, 186.119 L 548.582, 212.313 L 548.029, 213.235 L 509.846, 289.417 L 434.402, 257.69 z M 499.331, 228.176 L 517.593, 235.739 L 519.622, 233.157 L 516.855, 232.05 L 521.651, 225.594 L 521.651, 223.011 L 507.632, 216.924 L 505.603, 219.691 L 499.331, 228.176 z M 479.963, 254.923 L 501.545, 263.961 L 508.001, 251.602 L 488.448, 243.302 L 479.963, 254.923 z "/>
<path style="fill:rgb(0, 0, 255);fill-opacity:0;fill-rule:evenodd;stroke:rgb(74, 255, 0);stroke-width:1;" d="M 945.354, 623.288 L 961.217, 601.337 L 962.509, 601.706 L 993.313, 558.912 L 992.391, 558.543 L 1008.07, 536.777 L 1062.3, 559.281 L 1058.8, 564.077 L 1046.62, 581.047 L 1024.12, 571.639 L 1008.44, 593.59 L 993.129, 614.987 L 1015.45, 624.395 L 1003.09, 641.734 L 999.954, 645.976 L 945.354, 623.288 z "/>
<path style="fill:rgb(255, 255, 0);fill-opacity:0;fill-rule:evenodd;stroke:rgb(74, 255, 0);stroke-width:1;" d="M 1092.55, 517.962 L 1099.93, 508.001 L 1115.06, 514.457 L 1119.11, 508.923 L 1153.06, 523.311 L 1167.81, 503.205 L 1174.08, 505.972 L 1181.83, 495.642 L 1155.82, 484.575 L 1176.48, 456.168 L 1219.64, 474.429 L 1209.68, 487.71 L 1198.8, 502.836 L 1190.13, 499.147 L 1177.96, 515.564 L 1171.13, 512.797 L 1160.8, 526.631 L 1205.81, 545.815 L 1189.02, 568.504 L 1102.7, 531.796 L 1108.05, 524.602 L 1092.55, 517.962 L 1092.55, 517.962 z "/>
<path style="fill:rgb(255, 0, 0);fill-opacity:0;fill-rule:evenodd;stroke:rgb(74, 255, 0);stroke-width:1;" d="M 1029.1, 506.341 L 1042.38, 488.817 L 1047.73, 491.215 L 1085.17, 439.013 L 1080.56, 437.169 L 1092.37, 421.49 L 1148.07, 444.178 L 1147.34, 445.285 L 1132.21, 465.944 L 1109.15, 456.537 L 1078.9, 498.778 L 1100.3, 507.632 L 1099.93, 508.001 L 1092.55, 517.962 L 1092.55, 517.962 L 1086.83, 525.34 L 1086.65, 525.156 L 1083.88, 529.029 L 1029.1, 506.341 z "/>
<path style="fill:rgb(0, 255, 0);fill-opacity:0;fill-rule:evenodd;stroke:rgb(74, 255, 0);stroke-width:1;" d="M 363.2, 318.561 L 376.297, 300.484 L 384.967, 304.173 L 402.675, 279.64 L 433.848, 292.737 L 488.817, 315.61 L 456.906, 359.696 L 430.528, 348.628 L 448.236, 324.279 L 440.12, 320.775 L 436.431, 325.94 L 428.315, 322.619 L 421.49, 332.211 L 417.616, 330.551 L 411.713, 338.852 L 363.2, 318.561 z "/>
<path style="fill:rgb(0, 0, 255);fill-opacity:0;fill-rule:evenodd;stroke:rgb(74, 255, 0);stroke-width:1;" d="M 510.399, 73.7837 L 523.864, 55.7067 L 520.544, 54.231 L 538.068, 30.6202 L 560.387, 40.2121 L 544.708, 61.7939 L 554.485, 65.852 L 570.164, 44.2702 L 622.735, 66.7743 L 597.464, 116.209 L 580.309, 109.015 L 579.571, 108.647 L 583.26, 103.482 L 578.28, 101.453 L 577.542, 102.375 L 537.514, 85.4047 L 542.126, 79.133 L 541.573, 76.7351 L 534.01, 73.5993 L 531.058, 73.7837 L 526.078, 80.6087 L 510.399, 73.7837 z M 569.057, 81.3466 L 584.552, 87.9871 L 593.037, 85.958 L 589.532, 84.4824 L 596.357, 75.0749 L 591.745, 73.2303 L 591.377, 73.9682 L 576.066, 67.5121 L 572.562, 72.1236 L 575.144, 73.2303 L 569.057, 81.3466 z "/>
<path style="fill:rgb(255, 255, 0);fill-opacity:0;fill-rule:evenodd;stroke:rgb(74, 255, 0);stroke-width:1;" d="M 158.819, 596.726 L 170.994, 579.756 L 172.838, 580.493 L 213.235, 524.049 L 192.391, 515.564 L 204.012, 499.331 L 254.554, 520.36 L 251.971, 524.233 L 252.894, 524.602 L 226.7, 560.203 L 218.769, 571.455 L 217.478, 571.086 L 189.993, 609.454 L 158.819, 596.726 z "/>
<path style="fill:rgb(255, 0, 0);fill-opacity:0;fill-rule:evenodd;stroke:rgb(74, 255, 0);stroke-width:1;" d="M 369.841, 185.566 L 385.704, 163.8 L 387.733, 163.431 L 388.102, 160.849 L 384.044, 159.188 L 393.083, 147.014 L 416.878, 157.159 L 401.015, 178.741 L 410.791, 182.799 L 426.47, 161.217 L 446.392, 169.703 L 430.528, 191.284 L 439.567, 194.973 L 455.43, 173.576 L 479.779, 183.906 L 470.74, 196.08 L 466.129, 194.051 L 464.653, 196.08 L 465.022, 197.371 L 449.158, 218.769 L 420.567, 206.779 L 422.412, 204.196 L 417.431, 202.167 L 415.218, 204.934 L 369.841, 185.566 z "/>
<path style="fill:rgb(0, 255, 0);fill-opacity:0;fill-rule:evenodd;stroke:rgb(74, 255, 0);stroke-width:1;" d="M 226.7, 560.203 L 252.894, 524.602 L 254.554, 525.34 L 252.894, 527.554 L 264.33, 532.35 L 268.757, 534.194 L 273.184, 527.923 L 322.066, 548.398 L 312.29, 561.863 L 311.736, 564.261 L 310.998, 566.106 L 304.542, 572.562 L 296.057, 584.552 L 278.718, 577.358 L 274.475, 583.26 L 265.621, 581.785 L 263.777, 580.862 L 260.825, 578.833 L 257.69, 576.251 L 258.612, 574.96 L 243.671, 568.688 L 236.661, 564.445 L 226.7, 560.203 z "/>
<path style="fill:rgb(0, 0, 255);fill-opacity:0;fill-rule:evenodd;stroke:rgb(74, 255, 0);stroke-width:1;" d="M 859.396, 739.313 L 890.016, 697.81 L 941.849, 719.945 L 932.811, 732.119 L 909.753, 722.343 L 908.093, 724.741 L 935.762, 736.362 L 946.461, 721.789 L 956.606, 726.216 L 935.209, 755.176 L 938.16, 756.468 L 929.122, 768.826 L 906.986, 759.603 L 925.063, 735.07 L 921.19, 733.41 L 914.18, 743.002 L 908.647, 740.604 L 905.695, 741.157 L 906.802, 743.371 L 912.151, 745.585 L 903.113, 757.943 L 859.396, 739.313 z M 881.715, 714.411 L 904.588, 724.187 L 906.802, 721.236 L 883.929, 711.46 L 881.715, 714.411 z M 870.279, 729.352 L 893.521, 739.128 L 895.919, 735.993 L 872.677, 726.032 L 870.279, 729.352 z "/>
<path style="fill:rgb(255, 255, 0);fill-opacity:0;fill-rule:evenodd;stroke:rgb(74, 255, 0);stroke-width:1;" d="M 504.312, 135.578 L 520.36, 113.811 L 521.835, 114.365 L 536.223, 94.8121 L 573.853, 110.676 L 572.193, 113.074 L 576.066, 114.734 L 580.309, 109.015 L 597.464, 116.209 L 572.562, 164.722 L 531.981, 147.383 L 548.582, 124.694 L 546.553, 123.772 L 545.631, 121.559 L 546.368, 120.452 L 542.31, 118.607 L 523.864, 143.878 L 504.312, 135.578 z M 547.106, 133.917 L 562.232, 140.374 L 570.717, 128.753 L 555.591, 122.297 L 547.106, 133.917 z "/>
<path style="fill:rgb(255, 0, 0);fill-opacity:0;fill-rule:evenodd;stroke:rgb(74, 255, 0);stroke-width:1;" d="M 841.872, 581.231 L 851.464, 567.95 L 854.231, 567.212 L 856.998, 563.339 L 873.415, 570.164 L 875.259, 567.581 L 859.027, 560.756 L 858.289, 558.543 L 872.677, 538.806 L 913.811, 556.145 L 915.287, 554.116 L 929.122, 559.834 L 897.026, 604.289 L 841.872, 581.231 z "/>
<path style="fill:rgb(0, 255, 0);fill-opacity:0;fill-rule:evenodd;stroke:rgb(74, 255, 0);stroke-width:1;" d="M 337.745, 65.4831 L 350.288, 48.1439 L 365.414, 54.6 L 368.734, 52.9398 L 372.977, 54.7844 L 375.375, 51.6486 L 371.317, 49.804 L 371.317, 46.6682 L 356.006, 40.2121 L 369.841, 21.2128 L 385.52, 27.8534 L 383.306, 30.9892 L 385.704, 33.2027 L 429.606, 51.6486 L 416.14, 70.0945 L 420.383, 71.9391 L 404.704, 93.5209 L 382.753, 84.2979 L 395.296, 67.1432 L 397.141, 67.881 L 401.015, 62.3472 L 385.151, 55.7067 L 382.015, 59.9493 L 385.335, 61.2405 L 372.054, 79.8709 L 337.745, 65.4831 z "/>
<path style="fill:rgb(0, 0, 255);fill-opacity:0;fill-rule:evenodd;stroke:rgb(74, 255, 0);stroke-width:1;" d="M 297.533, 284.621 L 317.454, 256.952 L 313.581, 255.292 L 320.775, 245.331 L 340.696, 253.447 L 325.202, 275.029 L 334.425, 278.902 L 337.745, 274.291 L 336.823, 273.922 L 348.997, 256.952 L 366.336, 264.146 L 354.346, 280.932 L 352.871, 280.378 L 349.919, 284.621 L 359.511, 288.679 L 374.637, 267.65 L 394.005, 275.767 L 384.782, 288.679 L 380.54, 286.834 L 361.909, 312.659 L 338.667, 302.882 L 339.405, 302.144 L 297.533, 284.621 z "/>
<path style="fill:rgb(255, 255, 0);fill-opacity:0;fill-rule:evenodd;stroke:rgb(74, 255, 0);stroke-width:1;" d="M 279.64, 145.354 L 305.28, 110.122 L 325.386, 118.607 L 313.765, 134.471 L 323.911, 138.898 L 335.531, 122.85 L 355.822, 131.335 L 344.017, 147.383 L 355.084, 151.994 L 366.705, 135.947 L 386.627, 144.432 L 370.763, 166.013 L 366.705, 164.353 L 360.249, 173.392 L 306.571, 150.703 L 308.231, 148.49 L 301.775, 145.723 L 296.611, 152.548 L 279.64, 145.354 z "/>
<path style="fill:rgb(255, 0, 0);fill-opacity:0;fill-rule:evenodd;stroke:rgb(74, 255, 0);stroke-width:1;" d="M 253.447, 181.139 L 279.64, 145.354 L 296.611, 152.548 L 291.63, 159.373 L 299.746, 162.693 L 301.038, 160.849 L 352.871, 182.615 L 346.23, 191.653 L 350.288, 193.498 L 334.24, 215.264 L 314.872, 207.148 L 326.862, 190.731 L 315.794, 186.119 L 303.804, 202.352 L 284.067, 194.051 L 296.057, 177.634 L 284.99, 173.023 L 273, 189.44 L 253.447, 181.139 z "/>
<path style="fill:rgb(0, 255, 0);fill-opacity:0;fill-rule:evenodd;stroke:rgb(74, 255, 0);stroke-width:1;" d="M 726.032, 471.109 L 740.051, 451.556 L 744.109, 453.401 L 743.187, 454.508 L 768.457, 465.022 L 773.069, 458.566 L 747.798, 448.052 L 746.876, 449.527 L 743.371, 448.052 L 757.759, 428.13 L 817.155, 452.663 L 816.048, 454.139 L 807.378, 466.129 L 803.874, 464.653 L 795.204, 476.643 L 779.156, 470.002 L 774.914, 476.089 L 790.961, 482.73 L 782.292, 494.72 L 769.38, 489.555 L 768.457, 486.973 L 730.643, 471.294 L 729.721, 472.585 L 726.032, 471.109 z "/>
<path style="fill:rgb(0, 0, 255);fill-opacity:0;fill-rule:evenodd;stroke:rgb(74, 255, 0);stroke-width:1;" d="M 692.091, 517.962 L 705.557, 499.516 L 708.877, 500.991 L 707.77, 502.467 L 733.041, 513.166 L 738.206, 506.156 L 712.751, 495.458 L 711.828, 496.749 L 708.508, 495.458 L 722.527, 476.458 L 725.663, 477.75 L 724.556, 479.225 L 762.186, 495.089 L 766.244, 494.535 L 778.787, 499.885 L 770.118, 511.69 L 753.885, 504.865 L 749.458, 510.952 L 765.691, 517.962 L 757.021, 529.952 L 760.71, 531.427 L 752.041, 543.233 L 692.091, 517.962 z "/>
<path style="fill:rgb(255, 255, 0);fill-opacity:0;fill-rule:evenodd;stroke:rgb(74, 255, 0);stroke-width:1;" d="M 230.943, 272.631 L 257.69, 235.739 L 253.447, 233.894 L 263.039, 220.613 L 287.572, 230.759 L 270.786, 254 L 269.311, 253.263 L 265.437, 258.612 L 276.689, 263.408 L 279.087, 259.903 L 277.796, 259.35 L 295.688, 234.817 L 320.775, 245.331 L 313.581, 255.292 L 311.183, 258.612 L 304.358, 255.661 L 302.144, 258.796 L 304.542, 259.903 L 288.863, 281.669 L 263.592, 270.971 L 265.437, 268.388 L 259.903, 265.99 L 253.447, 275.029 L 258.796, 277.427 L 255.107, 282.592 L 230.943, 272.631 z "/>
<path style="fill:rgb(255, 0, 0);fill-opacity:0;fill-rule:evenodd;stroke:rgb(74, 255, 0);stroke-width:1;" d="M 524.233, 750.565 L 556.514, 706.11 L 572.746, 712.751 L 573.484, 713.12 L 571.824, 715.333 L 587.134, 721.789 L 591.008, 722.343 L 595.25, 724.187 L 596.541, 725.663 L 605.395, 729.352 L 595.25, 743.187 L 586.396, 739.497 L 583.076, 739.497 L 579.756, 738.206 L 578.28, 736.177 L 561.125, 728.983 L 558.358, 732.857 L 579.202, 741.711 L 568.135, 756.837 L 571.639, 758.312 L 576.435, 751.672 L 590.823, 757.759 L 579.387, 773.622 L 542.864, 758.312 L 548.398, 750.749 L 550.058, 751.487 L 555.776, 743.74 L 550.795, 741.711 L 539.728, 757.021 L 524.233, 750.565 z "/>
<path style="fill:rgb(0, 255, 0);fill-opacity:0;fill-rule:evenodd;stroke:rgb(74, 255, 0);stroke-width:1;" d="M 1020.8, 731.381 L 1037.95, 707.955 L 1058.98, 716.809 L 1119.11, 742.449 L 1101.96, 765.691 L 1020.8, 731.381 z "/>
<path style="fill:rgb(0, 0, 255);fill-opacity:0;fill-rule:evenodd;stroke:rgb(74, 255, 0);stroke-width:1;" d="M 679.179, 750.38 L 707.955, 710.906 L 720.682, 716.255 L 762.001, 733.595 L 733.41, 773.069 L 717.731, 766.428 L 729.168, 750.565 L 725.294, 748.905 L 713.858, 764.953 L 697.994, 758.312 L 710.906, 740.604 L 707.77, 739.128 L 694.858, 756.837 L 679.179, 750.38 z M 728.614, 745.031 L 732.488, 746.507 L 744.293, 729.721 L 740.42, 728.061 L 728.614, 745.031 z M 709.43, 736.73 L 712.751, 738.022 L 724.741, 721.236 L 721.42, 719.945 L 709.43, 736.73 z "/>
<path style="fill:rgb(255, 255, 0);fill-opacity:0;fill-rule:evenodd;stroke:rgb(74, 255, 0);stroke-width:1;" d="M 582.338, 774.914 L 591.008, 763.108 L 593.959, 764.215 L 603.366, 751.118 L 603.182, 749.274 L 604.842, 746.876 L 607.609, 745.769 L 613.143, 737.837 L 628.268, 744.109 L 622.366, 752.409 L 623.104, 754.07 L 621.074, 756.837 L 618.861, 757.759 L 609.454, 770.671 L 614.987, 772.884 L 623.841, 760.526 L 623.472, 757.943 L 625.317, 755.361 L 628.084, 754.07 L 633.433, 746.322 L 649.481, 753.147 L 643.947, 760.895 L 644.132, 762.924 L 642.103, 765.875 L 639.889, 766.613 L 630.297, 779.709 L 636.938, 782.476 L 647.083, 768.457 L 643.21, 766.797 L 652.433, 754.07 L 668.481, 760.895 L 662.024, 769.749 L 658.704, 769.933 L 652.064, 778.972 L 654.462, 780.078 L 650.219, 785.981 L 646.161, 784.136 L 643.947, 787.272 L 648.006, 789.117 L 642.103, 797.233 L 640.627, 799.262 L 582.338, 774.914 z "/>
<path style="fill:rgb(255, 0, 0);fill-opacity:0;fill-rule:evenodd;stroke:rgb(74, 255, 0);stroke-width:1;" d="M 988.702, 113.996 L 1012.31, 81.8999 L 1057.87, 101.453 L 1056.77, 103.113 L 1068.76, 108.278 L 1046.25, 138.529 L 988.702, 113.996 z "/>
<path style="fill:rgb(0, 255, 0);fill-opacity:0;fill-rule:evenodd;stroke:rgb(74, 255, 0);stroke-width:1;" d="M 454.323, 114.918 L 463.177, 102.559 L 467.051, 97.2101 L 478.119, 101.822 L 481.808, 96.8411 L 470.74, 92.0452 L 473.138, 88.9094 L 481.808, 76.7351 L 483.099, 74.8905 L 527, 92.9675 L 514.457, 110.491 L 503.205, 105.88 L 499.516, 111.045 L 510.768, 115.656 L 498.225, 133.18 L 454.323, 114.918 z "/>
<path style="fill:rgb(0, 0, 255);fill-opacity:0;fill-rule:evenodd;stroke:rgb(74, 255, 0);stroke-width:1;" d="M 378.326, 385.704 L 385.889, 375.375 L 386.811, 374.268 L 390.685, 375.928 L 410.237, 348.997 L 425.179, 355.269 L 426.101, 353.977 L 454.323, 365.783 L 425.732, 405.442 L 378.326, 385.704 z M 404.519, 378.326 L 419.276, 384.598 L 427.761, 373.161 L 412.82, 366.89 L 404.519, 378.326 z "/>
<path style="fill:rgb(255, 255, 0);fill-opacity:0;fill-rule:evenodd;stroke:rgb(74, 255, 0);stroke-width:1;" d="M 340.881, 218.031 L 350.288, 205.303 L 354.715, 207.148 L 360.249, 199.585 L 438.275, 232.603 L 432.742, 239.982 L 437.353, 242.011 L 427.946, 254.738 L 413.004, 248.467 L 418.723, 240.904 L 409.131, 236.846 L 403.597, 244.409 L 389.025, 238.321 L 394.743, 230.759 L 385.335, 226.7 L 379.617, 234.448 L 365.045, 228.176 L 370.579, 220.613 L 361.171, 216.555 L 355.638, 224.303 L 340.881, 218.031 z "/>
<path style="fill:rgb(255, 0, 0);fill-opacity:0;fill-rule:evenodd;stroke:rgb(74, 255, 0);stroke-width:1;" d="M 893.521, 693.198 L 902.744, 681.024 L 928.199, 691.907 L 930.228, 689.324 L 904.773, 678.257 L 913.627, 666.267 L 939.267, 677.335 L 941.296, 674.383 L 915.84, 663.316 L 925.063, 651.141 L 964.907, 668.296 L 954.946, 681.577 L 951.994, 680.286 L 930.413, 709.062 L 893.521, 693.198 z "/>
<path style="fill:rgb(0, 255, 0);fill-opacity:0;fill-rule:evenodd;stroke:rgb(74, 255, 0);stroke-width:1;" d="M 167.674, 297.717 L 191.653, 264.33 L 209.361, 271.709 L 207.148, 274.66 L 211.944, 276.504 L 240.904, 288.494 L 235.001, 296.611 L 236.292, 297.164 L 220.429, 319.484 L 167.674, 297.717 z M 194.605, 295.135 L 209.361, 301.038 L 217.662, 289.232 L 202.905, 283.329 L 194.605, 295.135 z "/>
<path style="fill:rgb(0, 0, 255);fill-opacity:0;fill-rule:evenodd;stroke:rgb(74, 255, 0);stroke-width:1;" d="M 933.733, 709.984 L 954.946, 681.577 L 964.907, 668.296 L 999.216, 683.237 L 969.518, 722.712 L 958.082, 717.731 L 956.606, 719.76 L 933.733, 709.984 z "/>
<path style="fill:rgb(255, 255, 0);fill-opacity:0;fill-rule:evenodd;stroke:rgb(74, 255, 0);stroke-width:1;" d="M 738.391, 690.985 L 740.789, 687.849 L 745.585, 681.208 L 749.458, 681.208 L 771.04, 651.326 L 786.903, 657.782 L 765.137, 688.033 L 765.506, 689.878 L 769.749, 691.353 L 771.778, 690.985 L 793.544, 660.549 L 809.592, 667.189 L 788.379, 696.703 L 788.379, 699.839 L 781.739, 709.062 L 738.391, 690.985 z "/>
<path style="fill:rgb(255, 0, 0);fill-opacity:0;fill-rule:evenodd;stroke:rgb(74, 255, 0);stroke-width:1;" d="M 1112.29, 493.06 L 1132.21, 465.944 L 1147.34, 445.285 L 1148.07, 444.178 L 1149.37, 442.518 L 1177.77, 454.692 L 1176.48, 456.168 L 1155.82, 484.575 L 1145.12, 499.147 L 1130.55, 492.875 L 1126.12, 499.147 L 1112.29, 493.06 z "/>
<path style="fill:rgb(0, 255, 0);fill-opacity:0;fill-rule:evenodd;stroke:rgb(74, 255, 0);stroke-width:1;" d="M 410.422, 96.8411 L 419.46, 84.2979 L 430.159, 88.7249 L 432.188, 87.8026 L 439.567, 77.4729 L 439.751, 74.8905 L 429.421, 70.6479 L 437.906, 58.6581 L 481.808, 76.7351 L 473.138, 88.9094 L 462.255, 84.2979 L 460.042, 85.958 L 453.217, 95.3655 L 453.032, 98.3168 L 463.177, 102.559 L 454.323, 114.918 L 410.422, 96.8411 z "/>
<path style="fill:rgb(0, 0, 255);fill-opacity:0;fill-rule:evenodd;stroke:rgb(74, 255, 0);stroke-width:1;" d="M 971.547, 138.344 L 982.061, 123.588 L 987.964, 126.17 L 991.838, 121.005 L 986.119, 118.607 L 988.517, 115.103 L 1009.18, 123.588 L 1039.98, 136.5 L 1020.8, 163.246 L 975.974, 144.616 L 978.557, 141.296 L 971.547, 138.344 z "/>
<path style="fill:rgb(255, 255, 0);fill-opacity:0;fill-rule:evenodd;stroke:rgb(74, 255, 0);stroke-width:1;" d="M 343.094, 370.948 L 350.473, 360.618 L 360.618, 364.861 L 362.278, 362.463 L 361.356, 360.249 L 367.074, 352.317 L 369.841, 353.608 L 371.87, 350.842 L 371.501, 348.075 L 362.463, 344.201 L 362.647, 344.017 L 370.948, 332.396 L 406.548, 347.337 L 397.879, 359.142 L 388.656, 355.269 L 384.967, 356.191 L 382.938, 359.142 L 386.627, 360.618 L 380.724, 368.55 L 378.695, 369.103 L 376.85, 371.685 L 385.889, 375.375 L 378.326, 385.704 L 343.094, 370.948 z "/>
<path style="fill:rgb(255, 0, 0);fill-opacity:0;fill-rule:evenodd;stroke:rgb(74, 255, 0);stroke-width:1;" d="M 284.99, 346.599 L 293.659, 334.794 L 297.533, 336.454 L 309.892, 319.299 L 307.494, 318.377 L 315.61, 307.125 L 341.25, 317.823 L 334.609, 326.862 L 329.998, 325.017 L 328.522, 326.862 L 330.367, 327.6 L 317.823, 344.939 L 323.173, 347.152 L 314.503, 358.958 L 284.99, 346.599 z "/>
<path style="fill:rgb(0, 255, 0);fill-opacity:0;fill-rule:evenodd;stroke:rgb(74, 255, 0);stroke-width:1;" d="M 810.145, 567.581 L 820.106, 553.747 L 822.688, 553.378 L 825.455, 554.485 L 827.3, 551.718 L 826.009, 549.32 L 829.145, 544.893 L 832.465, 544.339 L 836.523, 538.99 L 835.047, 536.961 L 838.368, 531.981 L 841.503, 531.427 L 845.193, 532.903 L 847.591, 532.35 L 851.28, 534.01 L 852.018, 535.854 L 854.6, 535.301 L 865.483, 539.912 L 859.396, 548.398 L 855.891, 546.922 L 851.649, 552.825 L 853.493, 553.562 L 854.047, 555.591 L 851.28, 559.465 L 847.959, 560.018 L 845.746, 562.97 L 847.591, 563.708 L 848.697, 566.29 L 838.921, 579.756 L 825.455, 574.037 L 829.145, 568.872 L 827.116, 567.95 L 823.426, 573.115 L 810.145, 567.581 z "/>
<path style="fill:rgb(0, 0, 255);fill-opacity:0;fill-rule:evenodd;stroke:rgb(74, 255, 0);stroke-width:1;" d="M 781.37, 555.591 L 790.777, 542.495 L 793.728, 541.204 L 796.126, 542.31 L 798.524, 538.99 L 797.602, 538.621 L 797.049, 536.592 L 800, 532.534 L 802.767, 531.981 L 806.641, 526.447 L 805.903, 524.418 L 809.223, 519.806 L 812.359, 519.253 L 815.495, 520.544 L 818.261, 520.175 L 821.951, 521.651 L 822.688, 523.496 L 825.086, 523.127 L 836.154, 527.923 L 830.251, 536.223 L 827.116, 534.748 L 822.873, 540.65 L 824.349, 541.204 L 824.902, 542.864 L 821.951, 546.922 L 819.553, 547.66 L 818.815, 547.475 L 816.417, 550.795 L 819.184, 552.087 L 820.106, 553.747 L 810.145, 567.581 L 796.68, 562.047 L 800.553, 556.698 L 798.34, 555.776 L 794.466, 561.125 L 781.37, 555.591 z "/>
<path style="fill:rgb(255, 255, 0);fill-opacity:0;fill-rule:evenodd;stroke:rgb(74, 255, 0);stroke-width:1;" d="M 314.503, 358.958 L 323.173, 347.152 L 327.969, 349.181 L 330.736, 348.628 L 332.027, 346.968 L 329.629, 346.046 L 332.949, 341.434 L 330.736, 340.512 L 333.134, 337.192 L 335.716, 336.823 L 338.852, 338.114 L 340.143, 336.269 L 339.59, 334.425 L 333.871, 332.211 L 342.356, 320.406 L 370.948, 332.396 L 362.647, 344.017 L 357.482, 341.803 L 355.084, 342.172 L 353.608, 344.386 L 356.006, 345.308 L 349.366, 354.346 L 346.783, 353.24 L 345.492, 354.9 L 346.599, 356.929 L 351.764, 358.958 L 350.473, 360.618 L 343.094, 370.948 L 314.503, 358.958 z "/>
<path style="fill:rgb(255, 0, 0);fill-opacity:0;fill-rule:evenodd;stroke:rgb(74, 255, 0);stroke-width:1;" d="M 256.03, 334.425 L 264.699, 322.619 L 268.942, 324.464 L 281.3, 307.309 L 284.252, 308.6 L 285.912, 306.387 L 280.563, 304.173 L 286.834, 295.504 L 311.552, 305.834 L 303.62, 316.717 L 301.591, 315.794 L 289.232, 332.949 L 293.659, 334.794 L 284.99, 346.599 L 256.03, 334.425 z "/>
<path style="fill:rgb(0, 255, 0);fill-opacity:0;fill-rule:evenodd;stroke:rgb(74, 255, 0);stroke-width:1;" d="M 752.041, 543.233 L 760.71, 531.427 L 761.632, 530.136 L 765.875, 531.981 L 776.943, 516.671 L 774.176, 515.379 L 781.37, 505.418 L 786.534, 507.632 L 789.67, 507.632 L 792.253, 508.739 L 794.097, 510.768 L 797.233, 510.583 L 800.184, 511.875 L 801.845, 513.904 L 806.641, 516.117 L 799.262, 526.078 L 796.495, 524.971 L 785.428, 540.097 L 790.777, 542.495 L 781.37, 555.591 L 752.041, 543.233 z "/>
<path style="fill:rgb(0, 0, 255);fill-opacity:0;fill-rule:evenodd;stroke:rgb(74, 255, 0);stroke-width:1;" d="M 233.525, 628.453 L 252.34, 602.444 L 239.244, 596.91 L 245.884, 587.872 L 258.981, 593.406 L 259.35, 592.852 L 282.038, 602.444 L 256.214, 637.86 L 233.525, 628.453 z "/>
<path style="fill:rgb(255, 255, 0);fill-opacity:0;fill-rule:evenodd;stroke:rgb(74, 255, 0);stroke-width:1;" d="M 226.885, 322.25 L 235.37, 310.814 L 241.642, 313.396 L 245.146, 308.785 L 247.36, 306.94 L 255.476, 295.873 L 252.34, 294.582 L 250.68, 294.95 L 247.729, 293.659 L 255.107, 283.329 L 283.883, 295.504 L 276.32, 306.018 L 268.573, 302.882 L 261.194, 312.843 L 260.457, 314.872 L 257.136, 319.484 L 264.699, 322.619 L 256.03, 334.425 L 226.885, 322.25 z "/>
<path style="fill:rgb(255, 0, 0);fill-opacity:0;fill-rule:evenodd;stroke:rgb(74, 255, 0);stroke-width:1;" d="M 805.718, 651.695 L 813.65, 640.627 L 821.397, 643.763 L 833.572, 626.793 L 825.824, 623.657 L 833.572, 612.958 L 862.901, 624.948 L 856.813, 633.433 L 854.6, 636.569 L 847.406, 633.618 L 845.193, 636.754 L 848.144, 638.045 L 830.805, 662.024 L 805.718, 651.695 z "/>
<path style="fill:rgb(0, 255, 0);fill-opacity:0;fill-rule:evenodd;stroke:rgb(74, 255, 0);stroke-width:1;" d="M 781.001, 641.365 L 800.553, 613.881 L 796.126, 612.036 L 802.951, 602.444 L 804.243, 600.599 L 833.572, 612.958 L 825.824, 623.657 L 818.077, 620.337 L 805.903, 637.307 L 813.65, 640.627 L 805.718, 651.695 L 781.001, 641.365 z "/>
<path style="fill:rgb(0, 0, 255);fill-opacity:0;fill-rule:evenodd;stroke:rgb(74, 255, 0);stroke-width:1;" d="M 864.007, 285.912 L 864.192, 284.621 L 875.259, 269.311 L 890.754, 275.951 L 888.172, 279.456 L 886.88, 278.718 L 885.774, 280.194 L 893.152, 283.329 L 896.657, 278.534 L 907.171, 282.961 L 905.326, 285.543 L 918.238, 291.077 L 920.083, 288.494 L 927.461, 291.63 L 922.481, 298.455 L 925.248, 299.562 L 918.054, 309.338 L 918.607, 309.523 L 918.238, 310.261 L 866.405, 288.494 L 865.668, 288.125 L 864.745, 287.019 L 864.007, 285.912 z "/>
<path style="fill:rgb(255, 255, 0);fill-opacity:0;fill-rule:evenodd;stroke:rgb(74, 255, 0);stroke-width:1;" d="M 915.103, 212.497 L 919.345, 207.148 L 919.53, 205.488 L 920.452, 203.828 L 921.743, 202.536 L 923.588, 201.614 L 927.83, 196.265 L 937.422, 200.507 L 938.529, 200.323 L 939.451, 200.323 L 941.296, 200.692 L 942.956, 201.614 L 943.878, 202.905 L 969.887, 213.604 L 972.285, 214.157 L 974.314, 215.08 L 975.974, 216.555 L 983.537, 219.691 L 972.838, 234.448 L 935.024, 218.584 L 936.131, 217.109 L 932.811, 215.633 L 930.413, 218.953 L 915.103, 212.497 z "/>
<path style="fill:rgb(255, 0, 0);fill-opacity:0;fill-rule:evenodd;stroke:rgb(74, 255, 0);stroke-width:1;" d="M 323.542, 423.519 L 330.367, 414.48 L 328.891, 413.927 L 330.736, 411.344 L 336.823, 403.228 L 375.928, 419.829 L 372.977, 423.703 L 361.356, 439.567 L 323.542, 423.519 z "/>
<path style="fill:rgb(0, 255, 0);fill-opacity:0;fill-rule:evenodd;stroke:rgb(74, 255, 0);stroke-width:1;" d="M 949.781, 170.44 L 949.965, 169.334 L 959.188, 156.237 L 968.411, 160.111 L 972.285, 161.771 L 970.256, 164.722 L 973.945, 166.382 L 975.052, 164.907 L 1012.13, 180.401 L 1004.2, 191.838 L 1003.27, 192.76 L 1002.72, 192.944 L 1001.43, 193.313 L 999.954, 193.129 L 951.81, 173.023 L 950.519, 172.285 L 950.15, 171.732 L 949.781, 170.44 z "/>
<path style="fill:rgb(0, 0, 255);fill-opacity:0;fill-rule:evenodd;stroke:rgb(74, 255, 0);stroke-width:1;" d="M 875.259, 269.311 L 887.618, 252.525 L 895.734, 256.03 L 903.113, 258.981 L 901.637, 261.01 L 936.869, 275.951 L 927.461, 288.679 L 892.414, 273.738 L 890.754, 275.951 L 875.259, 269.311 z "/>
<path style="fill:rgb(255, 255, 0);fill-opacity:0;fill-rule:evenodd;stroke:rgb(74, 255, 0);stroke-width:1;" d="M 894.443, 240.166 L 894.812, 238.506 L 895.365, 237.768 L 896.472, 236.661 L 898.132, 235.739 L 900.161, 232.788 L 900.53, 230.943 L 901.453, 229.283 L 902.19, 228.545 L 904.035, 227.254 L 919.345, 233.157 L 920.452, 235.739 L 946.092, 246.622 L 948.305, 248.651 L 954.761, 251.418 L 947.383, 261.379 L 941.111, 258.796 L 937.976, 258.612 L 911.598, 247.36 L 909.384, 248.467 L 894.997, 242.38 L 894.443, 240.904 L 894.443, 240.166 z "/>
<path style="fill:rgb(255, 0, 0);fill-opacity:0;fill-rule:evenodd;stroke:rgb(74, 255, 0);stroke-width:1;" d="M 580.125, 673.276 L 588.979, 661.102 L 645.054, 684.528 L 636.016, 696.887 L 625.87, 692.829 L 624.948, 690.616 L 613.512, 685.82 L 605.58, 682.499 L 593.959, 677.703 L 591.561, 678.072 L 580.125, 673.276 z "/>
<path style="fill:rgb(0, 255, 0);fill-opacity:0;fill-rule:evenodd;stroke:rgb(74, 255, 0);stroke-width:1;" d="M 904.035, 227.254 L 904.588, 225.409 L 905.511, 223.749 L 906.986, 222.458 L 908.831, 221.351 L 910.86, 218.584 L 911.045, 216.74 L 911.967, 215.08 L 913.258, 213.604 L 915.103, 212.497 L 930.413, 218.953 L 930.966, 221.167 L 956.975, 232.05 L 958.819, 234.263 L 965.276, 236.846 L 958.082, 246.807 L 951.626, 244.04 L 948.49, 243.671 L 922.481, 232.788 L 919.345, 233.157 L 904.035, 227.254 z "/>
<path style="fill:rgb(0, 0, 255);fill-opacity:0;fill-rule:evenodd;stroke:rgb(74, 255, 0);stroke-width:1;" d="M 831.911, 667.558 L 837.814, 659.258 L 841.319, 658.151 L 857.367, 636.016 L 856.813, 633.433 L 862.901, 624.948 L 878.395, 631.404 L 847.775, 674.199 L 831.911, 667.558 z "/>
<path style="fill:rgb(255, 255, 0);fill-opacity:0;fill-rule:evenodd;stroke:rgb(74, 255, 0);stroke-width:1;" d="M 665.529, 556.514 L 674.199, 544.708 L 730.643, 568.504 L 728.614, 571.27 L 727.507, 570.902 L 721.974, 578.28 L 702.237, 569.979 L 701.13, 571.455 L 687.111, 565.552 L 686.373, 563.339 L 680.101, 560.572 L 677.335, 561.494 L 665.529, 556.514 z "/>
<path style="fill:rgb(255, 0, 0);fill-opacity:0;fill-rule:evenodd;stroke:rgb(74, 255, 0);stroke-width:1;" d="M 785.981, 710.537 L 801.66, 688.955 L 813.65, 693.936 L 818.077, 693.936 L 829.513, 698.732 L 812.912, 721.789 L 785.981, 710.537 z "/>
<path style="fill:rgb(0, 255, 0);fill-opacity:0;fill-rule:evenodd;stroke:rgb(74, 255, 0);stroke-width:1;" d="M 608.162, 635.462 L 616.647, 623.841 L 631.035, 629.929 L 629.744, 631.589 L 638.783, 635.462 L 641.549, 634.724 L 643.394, 635.647 L 642.472, 636.938 L 650.404, 640.258 L 655.937, 642.656 L 656.675, 641.734 L 671.432, 647.821 L 663.5, 658.704 L 608.162, 635.462 z "/>
<path style="fill:rgb(0, 0, 255);fill-opacity:0;fill-rule:evenodd;stroke:rgb(74, 255, 0);stroke-width:1;" d="M 959.188, 156.237 L 969.703, 142.034 L 979.11, 146.092 L 979.848, 148.305 L 988.886, 152.179 L 991.653, 151.257 L 994.789, 152.548 L 995.711, 155.13 L 1017.48, 164.169 L 1009.73, 175.052 L 987.964, 165.829 L 984.828, 166.382 L 981.508, 165.091 L 980.955, 162.509 L 971.916, 158.819 L 968.411, 160.111 L 959.188, 156.237 z "/>
<path style="fill:rgb(255, 255, 0);fill-opacity:0;fill-rule:evenodd;stroke:rgb(74, 255, 0);stroke-width:1;" d="M 562.785, 697.441 L 571.455, 685.451 L 586.95, 691.907 L 587.872, 694.305 L 592.483, 696.149 L 595.988, 695.78 L 605.211, 699.654 L 607.424, 700.392 L 608.531, 702.974 L 619.599, 707.586 L 613.512, 716.255 L 602.26, 711.46 L 598.755, 712.382 L 586.581, 707.401 L 586.212, 705.003 L 581.231, 702.974 L 578.095, 703.712 L 562.785, 697.441 z "/>
<path style="fill:rgb(255, 0, 0);fill-opacity:0;fill-rule:evenodd;stroke:rgb(74, 255, 0);stroke-width:1;" d="M 648.928, 579.387 L 657.413, 567.766 L 671.247, 573.668 L 669.403, 576.251 L 674.199, 578.28 L 676.043, 575.697 L 677.703, 576.251 L 690.062, 581.6 L 689.693, 582.154 L 694.305, 584.183 L 706.479, 589.347 L 699.101, 599.677 L 683.606, 593.037 L 684.713, 591.377 L 680.47, 589.532 L 678.81, 591.745 L 669.403, 587.872 L 668.112, 587.318 L 669.956, 584.552 L 664.976, 582.522 L 662.947, 585.105 L 648.928, 579.387 z "/>
<path style="fill:rgb(0, 255, 0);fill-opacity:0;fill-rule:evenodd;stroke:rgb(74, 255, 0);stroke-width:1;" d="M 972.469, 787.457 L 987.411, 767.535 L 989.624, 767.535 L 1001.98, 750.934 L 1013.05, 755.73 L 1001.06, 771.593 L 1002.91, 773.438 L 987.595, 794.097 L 972.469, 787.457 z "/>
<path style="fill:rgb(0, 0, 255);fill-opacity:0;fill-rule:evenodd;stroke:rgb(74, 255, 0);stroke-width:1;" d="M 806.825, 687.48 L 821.028, 667.743 L 830.989, 671.985 L 834.494, 671.985 L 843.348, 675.674 L 843.901, 674.937 L 846.115, 675.859 L 829.513, 698.732 L 818.077, 693.936 L 816.601, 691.538 L 806.825, 687.48 z "/>
<path style="fill:rgb(255, 255, 0);fill-opacity:0;fill-rule:evenodd;stroke:rgb(74, 255, 0);stroke-width:1;" d="M 640.812, 590.639 L 648.928, 579.387 L 662.947, 585.105 L 663.316, 585.289 L 661.656, 587.687 L 667.743, 590.454 L 669.403, 587.872 L 678.81, 591.745 L 681.393, 593.037 L 682.315, 595.25 L 692.829, 599.677 L 693.751, 601.706 L 699.285, 604.104 L 695.043, 609.822 L 689.693, 607.424 L 686.926, 608.162 L 676.228, 603.735 L 673.092, 604.289 L 661.287, 599.308 L 662.762, 597.279 L 656.491, 594.697 L 655.015, 596.726 L 640.812, 590.639 z "/>
<path style="fill:rgb(255, 0, 0);fill-opacity:0;fill-rule:evenodd;stroke:rgb(74, 255, 0);stroke-width:1;" d="M 979.294, 731.381 L 1011.39, 688.402 L 1022.64, 693.383 L 1009.91, 710.353 L 990.546, 736.362 L 979.294, 731.381 z "/>
<path style="fill:rgb(0, 255, 0);fill-opacity:0;fill-rule:evenodd;stroke:rgb(74, 255, 0);stroke-width:1;" d="M 665.16, 741.895 L 673.276, 731.012 L 675.49, 730.09 L 672.539, 728.983 L 676.412, 723.818 L 678.626, 723.449 L 683.606, 716.624 L 683.053, 714.78 L 690.985, 703.712 L 705.372, 709.799 L 697.441, 720.867 L 695.78, 721.42 L 690.431, 728.799 L 690.985, 730.09 L 687.295, 735.255 L 683.975, 733.779 L 684.713, 736.177 L 676.781, 746.876 L 665.16, 741.895 z "/>
<path style="fill:rgb(0, 0, 255);fill-opacity:0;fill-rule:evenodd;stroke:rgb(74, 255, 0);stroke-width:1;" d="M 624.764, 612.774 L 632.695, 601.706 L 647.083, 607.793 L 645.423, 609.822 L 651.695, 612.405 L 653.17, 610.376 L 665.16, 615.356 L 666.267, 617.201 L 676.781, 621.628 L 677.703, 623.657 L 683.237, 626.055 L 678.995, 631.773 L 673.645, 629.56 L 670.878, 630.297 L 660.549, 625.87 L 659.626, 627.346 L 645.239, 621.259 L 646.714, 619.23 L 640.443, 616.647 L 638.783, 618.677 L 624.764, 612.774 z "/>
<path style="fill:rgb(255, 255, 0);fill-opacity:0;fill-rule:evenodd;stroke:rgb(74, 255, 0);stroke-width:1;" d="M 805.903, 499.331 L 808.301, 496.011 L 808.67, 494.166 L 814.757, 485.866 L 813.834, 483.468 L 820.291, 474.614 L 823.426, 475.905 L 825.455, 473.138 L 822.32, 471.847 L 830.62, 460.226 L 845.561, 466.498 L 837.076, 478.303 L 833.941, 477.012 L 832.096, 479.41 L 835.232, 480.701 L 828.591, 489.924 L 825.824, 490.293 L 819.553, 498.962 L 817.524, 499.885 L 815.126, 503.205 L 805.903, 499.331 z "/>
<path style="fill:rgb(255, 0, 0);fill-opacity:0;fill-rule:evenodd;stroke:rgb(74, 255, 0);stroke-width:1;" d="M 632.695, 601.706 L 640.812, 590.639 L 655.015, 596.726 L 653.539, 598.755 L 659.626, 601.337 L 661.287, 599.308 L 673.092, 604.289 L 674.383, 606.318 L 684.713, 610.56 L 685.82, 612.774 L 691.169, 614.987 L 687.111, 620.706 L 681.577, 618.492 L 678.995, 619.23 L 668.296, 614.803 L 665.16, 615.356 L 653.17, 610.376 L 654.646, 608.347 L 648.559, 605.58 L 647.083, 607.793 L 632.695, 601.706 z "/>
<path style="fill:rgb(0, 255, 0);fill-opacity:0;fill-rule:evenodd;stroke:rgb(74, 255, 0);stroke-width:1;" d="M 987.595, 794.097 L 1002.91, 773.438 L 1004.38, 773.253 L 1016.56, 757.021 L 1027.81, 761.817 L 1015.26, 778.418 L 1016.74, 779.709 L 1001.43, 800 L 987.595, 794.097 z "/>
<path style="fill:rgb(0, 0, 255);fill-opacity:0;fill-rule:evenodd;stroke:rgb(74, 255, 0);stroke-width:1;" d="M 791.33, 493.429 L 794.097, 489.739 L 793.728, 488.448 L 800.184, 479.41 L 799.816, 477.565 L 806.272, 468.527 L 809.223, 469.818 L 810.883, 467.604 L 807.378, 466.129 L 816.048, 454.139 L 830.62, 460.226 L 822.32, 471.847 L 820.106, 470.925 L 818.077, 473.691 L 820.291, 474.614 L 813.834, 483.468 L 811.621, 484.206 L 805.165, 493.06 L 803.136, 493.429 L 800.369, 497.302 L 791.33, 493.429 z "/>
<path style="fill:rgb(255, 255, 0);fill-opacity:0;fill-rule:evenodd;stroke:rgb(74, 255, 0);stroke-width:1;" d="M 621.812, 723.818 L 629.929, 712.751 L 632.142, 711.828 L 629.375, 710.537 L 633.249, 705.372 L 634.724, 705.003 L 639.705, 698.178 L 639.151, 696.334 L 647.268, 685.451 L 662.024, 691.538 L 654.093, 702.421 L 651.51, 703.159 L 646.714, 709.799 L 647.452, 711.46 L 643.763, 716.809 L 640.074, 715.333 L 640.627, 717.547 L 632.88, 728.43 L 621.812, 723.818 z "/>
<path style="fill:rgb(255, 0, 0);fill-opacity:0;fill-rule:evenodd;stroke:rgb(74, 255, 0);stroke-width:1;" d="M 958.451, 781.37 L 973.576, 761.079 L 975.605, 760.895 L 987.595, 744.847 L 998.478, 749.458 L 986.304, 765.875 L 987.411, 767.535 L 972.469, 787.457 L 958.451, 781.37 z "/>
<path style="fill:rgb(0, 255, 0);fill-opacity:0;fill-rule:evenodd;stroke:rgb(74, 255, 0);stroke-width:1;" d="M 820.659, 505.603 L 823.057, 502.098 L 822.504, 500.438 L 828.776, 491.584 L 828.591, 489.924 L 835.232, 480.701 L 837.63, 481.808 L 839.474, 479.225 L 837.076, 478.303 L 845.561, 466.498 L 859.58, 472.4 L 851.095, 484.021 L 848.328, 482.914 L 846.668, 485.312 L 849.435, 486.604 L 842.979, 495.642 L 840.397, 496.564 L 834.125, 505.234 L 832.096, 505.972 L 829.698, 509.292 L 820.659, 505.603 z "/>
<path style="fill:rgb(0, 0, 255);fill-opacity:0;fill-rule:evenodd;stroke:rgb(74, 255, 0);stroke-width:1;" d="M 651.51, 735.993 L 659.073, 725.294 L 661.471, 724.187 L 658.151, 722.712 L 661.84, 717.731 L 664.053, 717.362 L 669.034, 710.353 L 668.665, 708.508 L 676.412, 697.625 L 690.985, 703.712 L 683.053, 714.78 L 681.024, 715.149 L 676.043, 722.158 L 676.412, 723.818 L 672.539, 728.983 L 669.587, 727.692 L 669.956, 729.905 L 662.393, 740.42 L 651.51, 735.993 z "/>
<path style="fill:rgb(255, 255, 0);fill-opacity:0;fill-rule:evenodd;stroke:rgb(74, 255, 0);stroke-width:1;" d="M 944.063, 775.098 L 950.703, 766.059 L 952.548, 766.059 L 958.635, 758.128 L 957.897, 756.283 L 961.217, 751.856 L 963.062, 751.487 L 970.809, 740.973 L 982.061, 745.953 L 974.314, 756.099 L 975.236, 759.05 L 973.576, 761.079 L 958.451, 781.37 L 944.063, 775.098 z "/>
<path style="fill:rgb(255, 0, 0);fill-opacity:0;fill-rule:evenodd;stroke:rgb(74, 255, 0);stroke-width:1;" d="M 1072.26, 303.62 L 1082.04, 290.523 L 1114.87, 304.542 L 1105.1, 317.639 L 1072.26, 303.62 z "/>
<path style="fill:rgb(0, 255, 0);fill-opacity:0;fill-rule:evenodd;stroke:rgb(74, 255, 0);stroke-width:1;" d="M 887.618, 252.525 L 894.997, 242.38 L 909.384, 248.467 L 947.199, 264.33 L 940.005, 274.291 L 933.18, 271.34 L 935.209, 268.388 L 925.801, 264.33 L 925.432, 265.068 L 897.579, 253.447 L 895.734, 256.03 L 887.618, 252.525 z "/>
<path style="fill:rgb(0, 0, 255);fill-opacity:0;fill-rule:evenodd;stroke:rgb(74, 255, 0);stroke-width:1;" d="M 831.358, 778.049 L 839.659, 766.797 L 877.104, 782.661 L 868.988, 793.913 L 861.609, 790.777 L 848.144, 785.243 L 845.008, 783.952 L 831.358, 778.049 z "/>
<path style="fill:rgb(255, 255, 0);fill-opacity:0;fill-rule:evenodd;stroke:rgb(74, 255, 0);stroke-width:1;" d="M 657.413, 567.766 L 665.529, 556.514 L 677.335, 561.494 L 682.499, 563.523 L 680.839, 565.921 L 684.16, 567.397 L 685.82, 564.999 L 687.111, 565.552 L 701.13, 571.455 L 697.072, 576.989 L 698.916, 577.911 L 694.305, 584.183 L 689.693, 582.154 L 690.062, 581.6 L 677.703, 576.251 L 679.548, 573.668 L 676.043, 572.193 L 674.199, 574.96 L 671.247, 573.668 L 657.413, 567.766 z "/>
<path style="fill:rgb(255, 0, 0);fill-opacity:0;fill-rule:evenodd;stroke:rgb(74, 255, 0);stroke-width:1;" d="M 1113.03, 392.529 L 1121.14, 381.462 L 1134.06, 386.811 L 1132.76, 388.656 L 1143.28, 393.267 L 1144.75, 391.423 L 1151.03, 394.005 L 1158.4, 397.141 L 1150.1, 408.208 L 1113.03, 392.529 z "/>
<path style="fill:rgb(0, 255, 0);fill-opacity:0;fill-rule:evenodd;stroke:rgb(74, 255, 0);stroke-width:1;" d="M 1079.27, 272.262 L 1085.17, 264.33 L 1097.35, 269.495 L 1098.09, 268.573 L 1130.92, 282.407 L 1124.46, 291.446 L 1091.45, 277.427 L 1079.27, 272.262 z "/>
<path style="fill:rgb(0, 0, 255);fill-opacity:0;fill-rule:evenodd;stroke:rgb(74, 255, 0);stroke-width:1;" d="M 616.647, 623.841 L 624.764, 612.774 L 638.783, 618.677 L 637.307, 620.89 L 643.579, 623.472 L 645.239, 621.259 L 659.626, 627.346 L 659.073, 627.899 L 661.102, 628.822 L 657.228, 634.356 L 655.384, 633.618 L 650.404, 640.258 L 642.472, 636.938 L 643.394, 635.647 L 641.549, 634.724 L 636.754, 632.695 L 638.229, 630.482 L 632.326, 628.084 L 631.035, 629.929 L 616.647, 623.841 z "/>
<path style="fill:rgb(255, 255, 0);fill-opacity:0;fill-rule:evenodd;stroke:rgb(74, 255, 0);stroke-width:1;" d="M 571.455, 685.451 L 580.125, 673.276 L 591.561, 678.072 L 595.988, 679.917 L 596.541, 682.315 L 603.551, 685.266 L 605.58, 682.499 L 613.512, 685.82 L 608.9, 692.276 L 610.191, 692.829 L 605.211, 699.654 L 595.988, 695.78 L 594.881, 693.198 L 590.085, 691.169 L 586.95, 691.907 L 571.455, 685.451 z "/>
<path style="fill:rgb(255, 0, 0);fill-opacity:0;fill-rule:evenodd;stroke:rgb(74, 255, 0);stroke-width:1;" d="M 214.157, 236.477 L 227.438, 218.4 L 248.282, 227.254 L 238.69, 240.166 L 235.001, 245.331 L 214.157, 236.477 z "/>
<path style="fill:rgb(0, 255, 0);fill-opacity:0;fill-rule:evenodd;stroke:rgb(74, 255, 0);stroke-width:1;" d="M 556.514, 706.11 L 562.785, 697.441 L 578.095, 703.712 L 586.581, 707.401 L 598.755, 712.382 L 613.143, 718.469 L 611.483, 720.682 L 612.958, 722.527 L 611.114, 724.925 L 608.162, 724.925 L 574.222, 710.906 L 572.746, 712.751 L 556.514, 706.11 z "/>
<path style="fill:rgb(0, 0, 255);fill-opacity:0;fill-rule:evenodd;stroke:rgb(74, 255, 0);stroke-width:1;" d="M 1022.27, 350.657 L 1025.78, 345.677 L 1037.77, 350.842 L 1070.6, 364.676 L 1064.51, 373.161 L 1023.56, 355.822 L 1026.15, 352.317 L 1022.27, 350.657 z "/>
<path style="fill:rgb(255, 255, 0);fill-opacity:0;fill-rule:evenodd;stroke:rgb(74, 255, 0);stroke-width:1;" d="M 641.918, 719.022 L 643.763, 716.809 L 647.452, 711.46 L 649.112, 711.275 L 654.093, 704.45 L 654.093, 702.421 L 662.024, 691.538 L 676.412, 697.625 L 668.665, 708.508 L 666.267, 709.062 L 661.287, 716.255 L 661.84, 717.731 L 658.151, 722.712 L 653.355, 720.682 L 652.248, 722.158 L 648.743, 720.682 L 648.19, 721.605 L 641.918, 719.022 z "/>
<path style="fill:rgb(255, 0, 0);fill-opacity:0;fill-rule:evenodd;stroke:rgb(74, 255, 0);stroke-width:1;" d="M 1145.68, 348.075 L 1151.95, 339.405 L 1166.89, 345.861 L 1168.18, 347.521 L 1175.37, 350.473 L 1177.96, 350.473 L 1191.61, 356.191 L 1185.34, 364.861 L 1175.37, 360.618 L 1161.91, 354.9 L 1158.59, 353.608 L 1145.68, 348.075 z "/>
<path style="fill:rgb(0, 255, 0);fill-opacity:0;fill-rule:evenodd;stroke:rgb(74, 255, 0);stroke-width:1;" d="M 1121.14, 381.462 L 1129.44, 370.025 L 1142.73, 375.559 L 1140.14, 379.064 L 1143.09, 380.355 L 1145.68, 376.85 L 1159.51, 382.753 L 1157.3, 386.073 L 1160.06, 387.18 L 1156.56, 391.976 L 1153.42, 390.685 L 1151.03, 394.005 L 1144.75, 391.423 L 1137.38, 388.287 L 1139.59, 385.151 L 1136.27, 383.86 L 1134.06, 386.811 L 1121.14, 381.462 z "/>
<path style="fill:rgb(0, 0, 255);fill-opacity:0;fill-rule:evenodd;stroke:rgb(74, 255, 0);stroke-width:1;" d="M 1137.38, 359.327 L 1145.68, 348.075 L 1158.59, 353.608 L 1156.01, 357.113 L 1159.33, 358.404 L 1161.91, 354.9 L 1175.37, 360.618 L 1173.16, 363.754 L 1176.48, 365.045 L 1172.79, 370.025 L 1169.66, 368.734 L 1167.26, 371.87 L 1153.79, 366.152 L 1156.01, 363.2 L 1152.5, 361.725 L 1150.47, 364.676 L 1137.38, 359.327 z "/>
<path style="fill:rgb(255, 255, 0);fill-opacity:0;fill-rule:evenodd;stroke:rgb(74, 255, 0);stroke-width:1;" d="M 1129.44, 370.025 L 1137.38, 359.327 L 1150.47, 364.676 L 1148.44, 367.443 L 1151.76, 368.919 L 1153.79, 366.152 L 1167.26, 371.87 L 1165.04, 374.821 L 1168.18, 376.113 L 1164.68, 380.908 L 1161.72, 379.802 L 1159.51, 382.753 L 1145.68, 376.85 L 1147.71, 374.083 L 1144.75, 372.792 L 1142.73, 375.559 L 1129.44, 370.025 z "/>
<path style="fill:rgb(255, 0, 0);fill-opacity:0;fill-rule:evenodd;stroke:rgb(74, 255, 0);stroke-width:1;" d="M 1064.7, 147.936 L 1067.83, 143.509 L 1067.28, 143.325 L 1087.39, 115.84 L 1096.8, 119.899 L 1077.06, 147.014 L 1075.95, 146.645 L 1072.45, 151.257 L 1064.7, 147.936 z "/>
<path style="fill:rgb(0, 255, 0);fill-opacity:0;fill-rule:evenodd;stroke:rgb(74, 255, 0);stroke-width:1;" d="M 921.19, 310.814 L 943.878, 279.64 L 951.257, 282.592 L 950.15, 284.067 L 951.994, 284.805 L 948.305, 289.786 L 949.043, 290.154 L 932.626, 312.659 L 929.859, 311.367 L 928.199, 313.765 L 921.19, 310.814 z "/>
<path style="fill:rgb(0, 0, 255);fill-opacity:0;fill-rule:evenodd;stroke:rgb(74, 255, 0);stroke-width:1;" d="M 1056.03, 144.247 L 1059.35, 139.82 L 1058.06, 139.451 L 1078.16, 111.967 L 1087.39, 115.84 L 1067.28, 143.325 L 1064.15, 147.752 L 1056.03, 144.247 z "/>
<path style="fill:rgb(255, 255, 0);fill-opacity:0;fill-rule:evenodd;stroke:rgb(74, 255, 0);stroke-width:1;" d="M 1011.21, 345.677 L 1032.42, 316.532 L 1037.4, 318.561 L 1032.6, 325.202 L 1038.14, 327.415 L 1021.72, 350.104 L 1011.21, 345.677 z "/>
<path style="fill:rgb(255, 0, 0);fill-opacity:0;fill-rule:evenodd;stroke:rgb(74, 255, 0);stroke-width:1;" d="M 990.915, 337.192 L 1011.21, 309.154 L 1011.94, 308.047 L 1016.74, 310.076 L 1011.94, 316.532 L 1017.66, 318.93 L 1001.25, 341.434 L 990.915, 337.192 z "/>
<path style="fill:rgb(0, 255, 0);fill-opacity:0;fill-rule:evenodd;stroke:rgb(74, 255, 0);stroke-width:1;" d="M 1071.71, 221.167 L 1091.63, 193.867 L 1101.22, 197.925 L 1081.3, 225.225 L 1071.71, 221.167 z "/>
<path style="fill:rgb(0, 0, 255);fill-opacity:0;fill-rule:evenodd;stroke:rgb(74, 255, 0);stroke-width:1;" d="M 1034.08, 285.359 L 1036.66, 281.854 L 1056.4, 254.923 L 1064.88, 258.612 L 1045.15, 285.543 L 1042.75, 289.048 L 1034.08, 285.359 z "/>
<path style="fill:rgb(255, 255, 0);fill-opacity:0;fill-rule:evenodd;stroke:rgb(74, 255, 0);stroke-width:1;" d="M 1025.04, 201.614 L 1044.78, 174.314 L 1054.37, 178.372 L 1034.63, 205.672 L 1025.04, 201.614 z "/>
<path style="fill:rgb(255, 0, 0);fill-opacity:0;fill-rule:evenodd;stroke:rgb(74, 255, 0);stroke-width:1;" d="M 1105.1, 158.819 L 1124.83, 131.704 L 1134.61, 135.762 L 1114.69, 162.878 L 1105.1, 158.819 z "/>
<path style="fill:rgb(0, 255, 0);fill-opacity:0;fill-rule:evenodd;stroke:rgb(74, 255, 0);stroke-width:1;" d="M 1053.45, 213.419 L 1073.18, 186.119 L 1082.78, 190.178 L 1062.85, 217.478 L 1053.45, 213.419 z "/>
<path style="fill:rgb(0, 0, 255);fill-opacity:0;fill-rule:evenodd;stroke:rgb(74, 255, 0);stroke-width:1;" d="M 1034.63, 205.672 L 1054.37, 178.372 L 1063.96, 182.246 L 1044.04, 209.546 L 1034.63, 205.672 z "/>
<path style="fill:rgb(255, 255, 0);fill-opacity:0;fill-rule:evenodd;stroke:rgb(74, 255, 0);stroke-width:1;" d="M 1077.06, 147.014 L 1096.8, 119.899 L 1106.39, 123.772 L 1086.47, 151.072 L 1077.06, 147.014 z "/>
<path style="fill:rgb(255, 0, 0);fill-opacity:0;fill-rule:evenodd;stroke:rgb(74, 255, 0);stroke-width:1;" d="M 1086.47, 151.072 L 1106.39, 123.772 L 1115.79, 127.83 L 1096.06, 154.946 L 1086.47, 151.072 z "/>
<path style="fill:rgb(0, 255, 0);fill-opacity:0;fill-rule:evenodd;stroke:rgb(74, 255, 0);stroke-width:1;" d="M 1081.3, 225.225 L 1101.22, 197.925 L 1110.63, 201.798 L 1090.71, 229.283 L 1081.3, 225.225 z "/>
<path style="fill:rgb(0, 0, 255);fill-opacity:0;fill-rule:evenodd;stroke:rgb(74, 255, 0);stroke-width:1;" d="M 1001.25, 341.434 L 1017.66, 318.93 L 1023.2, 321.144 L 1027.99, 314.688 L 1032.42, 316.532 L 1011.21, 345.677 L 1001.25, 341.434 z "/>
<path style="fill:rgb(255, 255, 0);fill-opacity:0;fill-rule:evenodd;stroke:rgb(74, 255, 0);stroke-width:1;" d="M 1123.91, 166.751 L 1143.83, 139.636 L 1153.06, 143.509 L 1133.32, 170.809 L 1123.91, 166.751 z "/>
<path style="fill:rgb(255, 0, 0);fill-opacity:0;fill-rule:evenodd;stroke:rgb(74, 255, 0);stroke-width:1;" d="M 1008.99, 270.233 L 1028.73, 243.302 L 1038.14, 247.36 L 1018.4, 274.291 L 1008.99, 270.233 z "/>
<path style="fill:rgb(0, 255, 0);fill-opacity:0;fill-rule:evenodd;stroke:rgb(74, 255, 0);stroke-width:1;" d="M 1018.4, 274.291 L 1038.14, 247.36 L 1047.54, 251.234 L 1027.81, 278.165 L 1018.4, 274.291 z "/>
<path style="fill:rgb(0, 0, 255);fill-opacity:0;fill-rule:evenodd;stroke:rgb(74, 255, 0);stroke-width:1;" d="M 1044.04, 209.546 L 1063.96, 182.246 L 1073.18, 186.119 L 1053.45, 213.419 L 1044.04, 209.546 z "/>
<path style="fill:rgb(255, 255, 0);fill-opacity:0;fill-rule:evenodd;stroke:rgb(74, 255, 0);stroke-width:1;" d="M 1114.69, 162.878 L 1134.61, 135.762 L 1143.83, 139.636 L 1123.91, 166.751 L 1114.69, 162.878 z "/>
<path style="fill:rgb(255, 0, 0);fill-opacity:0;fill-rule:evenodd;stroke:rgb(74, 255, 0);stroke-width:1;" d="M 964.538, 251.602 L 986.304, 221.905 L 992.391, 224.487 L 990.546, 227.254 L 992.944, 228.176 L 973.392, 255.292 L 964.538, 251.602 z "/>
<path style="fill:rgb(0, 255, 0);fill-opacity:0;fill-rule:evenodd;stroke:rgb(74, 255, 0);stroke-width:1;" d="M 1121.88, 233.525 L 1127.42, 225.963 L 1161.17, 240.166 L 1155.82, 247.544 L 1132.95, 237.953 L 1121.88, 233.525 z "/>
<path style="fill:rgb(0, 0, 255);fill-opacity:0;fill-rule:evenodd;stroke:rgb(74, 255, 0);stroke-width:1;" d="M 990.915, 262.67 L 1010.65, 235.739 L 1019.88, 239.613 L 1000.14, 266.544 L 990.915, 262.67 z "/>
<path style="fill:rgb(255, 255, 0);fill-opacity:0;fill-rule:evenodd;stroke:rgb(74, 255, 0);stroke-width:1;" d="M 1006.78, 194.051 L 1026.7, 166.567 L 1035.74, 170.44 L 1016, 197.74 L 1006.78, 194.051 z "/>
<path style="fill:rgb(255, 0, 0);fill-opacity:0;fill-rule:evenodd;stroke:rgb(74, 255, 0);stroke-width:1;" d="M 973.392, 255.292 L 992.944, 228.176 L 1002.17, 232.234 L 982.43, 259.165 L 973.392, 255.292 z "/>
<path style="fill:rgb(0, 255, 0);fill-opacity:0;fill-rule:evenodd;stroke:rgb(74, 255, 0);stroke-width:1;" d="M 1096.06, 154.946 L 1115.79, 127.83 L 1124.83, 131.704 L 1105.1, 158.819 L 1096.06, 154.946 z "/>
<path style="fill:rgb(0, 0, 255);fill-opacity:0;fill-rule:evenodd;stroke:rgb(74, 255, 0);stroke-width:1;" d="M 1016, 197.74 L 1035.74, 170.44 L 1044.78, 174.314 L 1025.04, 201.614 L 1016, 197.74 z "/>
<path style="fill:rgb(255, 255, 0);fill-opacity:0;fill-rule:evenodd;stroke:rgb(74, 255, 0);stroke-width:1;" d="M 981.139, 332.949 L 997.371, 310.629 L 1002.54, 312.843 L 1006.59, 307.125 L 1011.21, 309.154 L 990.915, 337.192 L 981.139, 332.949 z "/>
<path style="fill:rgb(255, 0, 0);fill-opacity:0;fill-rule:evenodd;stroke:rgb(74, 255, 0);stroke-width:1;" d="M 1127.42, 225.963 L 1132.76, 218.769 L 1166.52, 232.972 L 1161.17, 240.166 L 1127.42, 225.963 z "/>
<path style="fill:rgb(0, 255, 0);fill-opacity:0;fill-rule:evenodd;stroke:rgb(74, 255, 0);stroke-width:1;" d="M 1153.42, 190.546 L 1158.59, 183.353 L 1192.34, 197.556 L 1187, 204.75 L 1153.42, 190.546 z "/>
<path style="fill:rgb(0, 0, 255);fill-opacity:0;fill-rule:evenodd;stroke:rgb(74, 255, 0);stroke-width:1;" d="M 1049.2, 135.578 L 1069.31, 108.278 L 1078.16, 111.967 L 1058.06, 139.451 L 1049.2, 135.578 z "/>
<path style="fill:rgb(255, 255, 0);fill-opacity:0;fill-rule:evenodd;stroke:rgb(74, 255, 0);stroke-width:1;" d="M 1136.64, 95.9188 L 1155.82, 69.5412 L 1165.04, 73.4148 L 1145.86, 99.7925 L 1136.64, 95.9188 z "/>
<path style="fill:rgb(255, 0, 0);fill-opacity:0;fill-rule:evenodd;stroke:rgb(74, 255, 0);stroke-width:1;" d="M 1062.85, 217.478 L 1082.78, 190.178 L 1091.63, 193.867 L 1071.71, 221.167 L 1062.85, 217.478 z "/>
<path style="fill:rgb(0, 255, 0);fill-opacity:0;fill-rule:evenodd;stroke:rgb(74, 255, 0);stroke-width:1;" d="M 1148.07, 197.556 L 1153.42, 190.546 L 1187, 204.75 L 1181.83, 211.944 L 1148.07, 197.556 z "/>
<path style="fill:rgb(0, 0, 255);fill-opacity:0;fill-rule:evenodd;stroke:rgb(74, 255, 0);stroke-width:1;" d="M 1133.32, 170.809 L 1153.06, 143.509 L 1161.91, 147.199 L 1142.17, 174.499 L 1133.32, 170.809 z "/>
<path style="fill:rgb(255, 255, 0);fill-opacity:0;fill-rule:evenodd;stroke:rgb(74, 255, 0);stroke-width:1;" d="M 1054, 289.232 L 1073.74, 262.301 L 1082.78, 266.175 L 1063.04, 293.106 L 1054, 289.232 z "/>
<path style="fill:rgb(255, 0, 0);fill-opacity:0;fill-rule:evenodd;stroke:rgb(74, 255, 0);stroke-width:1;" d="M 1137.93, 211.759 L 1143.09, 204.565 L 1176.85, 218.769 L 1171.5, 225.963 L 1137.93, 211.759 z "/>
<path style="fill:rgb(0, 255, 0);fill-opacity:0;fill-rule:evenodd;stroke:rgb(74, 255, 0);stroke-width:1;" d="M 1098.82, 235.186 L 1105.28, 226.516 L 1121.88, 233.525 L 1132.95, 237.953 L 1126.49, 246.807 L 1098.82, 235.186 z "/>
<path style="fill:rgb(0, 0, 255);fill-opacity:0;fill-rule:evenodd;stroke:rgb(74, 255, 0);stroke-width:1;" d="M 1154.72, 103.482 L 1173.9, 77.104 L 1182.94, 80.9776 L 1163.75, 107.355 L 1154.72, 103.482 z "/>
<path style="fill:rgb(255, 255, 0);fill-opacity:0;fill-rule:evenodd;stroke:rgb(74, 255, 0);stroke-width:1;" d="M 1118.56, 88.356 L 1137.93, 61.9783 L 1146.97, 65.852 L 1127.6, 92.2297 L 1118.56, 88.356 z "/>
<path style="fill:rgb(255, 0, 0);fill-opacity:0;fill-rule:evenodd;stroke:rgb(74, 255, 0);stroke-width:1;" d="M 1027.81, 278.165 L 1047.54, 251.234 L 1056.4, 254.923 L 1036.66, 281.854 L 1027.81, 278.165 z "/>
<path style="fill:rgb(0, 255, 0);fill-opacity:0;fill-rule:evenodd;stroke:rgb(74, 255, 0);stroke-width:1;" d="M 1000.14, 266.544 L 1019.88, 239.613 L 1028.73, 243.302 L 1008.99, 270.233 L 1000.14, 266.544 z "/>
<path style="fill:rgb(0, 0, 255);fill-opacity:0;fill-rule:evenodd;stroke:rgb(74, 255, 0);stroke-width:1;" d="M 1045.15, 285.543 L 1064.88, 258.612 L 1073.74, 262.301 L 1054, 289.232 L 1045.15, 285.543 z "/>
<path style="fill:rgb(255, 255, 0);fill-opacity:0;fill-rule:evenodd;stroke:rgb(74, 255, 0);stroke-width:1;" d="M 1090.71, 229.283 L 1110.63, 201.798 L 1119.3, 205.488 L 1099.56, 232.788 L 1090.71, 229.283 z "/>
<path style="fill:rgb(255, 0, 0);fill-opacity:0;fill-rule:evenodd;stroke:rgb(74, 255, 0);stroke-width:1;" d="M 1132.76, 218.769 L 1137.93, 211.759 L 1171.5, 225.963 L 1166.52, 232.972 L 1132.76, 218.769 z "/>
<path style="fill:rgb(0, 255, 0);fill-opacity:0;fill-rule:evenodd;stroke:rgb(74, 255, 0);stroke-width:1;" d="M 1127.6, 92.2297 L 1146.97, 65.852 L 1155.82, 69.5412 L 1136.64, 95.9188 L 1127.6, 92.2297 z "/>
<path style="fill:rgb(0, 0, 255);fill-opacity:0;fill-rule:evenodd;stroke:rgb(74, 255, 0);stroke-width:1;" d="M 724.741, 598.939 L 740.789, 576.435 L 751.487, 580.862 L 735.255, 603.366 L 724.741, 598.939 z "/>
<path style="fill:rgb(255, 255, 0);fill-opacity:0;fill-rule:evenodd;stroke:rgb(74, 255, 0);stroke-width:1;" d="M 1109.71, 84.6668 L 1129.08, 58.2891 L 1137.93, 61.9783 L 1118.56, 88.356 L 1109.71, 84.6668 z "/>
<path style="fill:rgb(255, 0, 0);fill-opacity:0;fill-rule:evenodd;stroke:rgb(74, 255, 0);stroke-width:1;" d="M 1100.85, 80.7932 L 1120.04, 54.4155 L 1129.08, 58.2891 L 1109.71, 84.6668 L 1100.85, 80.7932 z "/>
<path style="fill:rgb(0, 255, 0);fill-opacity:0;fill-rule:evenodd;stroke:rgb(74, 255, 0);stroke-width:1;" d="M 1143.09, 204.565 L 1148.07, 197.556 L 1181.83, 211.944 L 1176.85, 218.769 L 1143.09, 204.565 z "/>
<path style="fill:rgb(0, 0, 255);fill-opacity:0;fill-rule:evenodd;stroke:rgb(74, 255, 0);stroke-width:1;" d="M 1067.1, 310.814 L 1072.26, 303.62 L 1105.1, 317.639 L 1099.93, 324.648 L 1067.1, 310.814 z "/>
<path style="fill:rgb(255, 255, 0);fill-opacity:0;fill-rule:evenodd;stroke:rgb(74, 255, 0);stroke-width:1;" d="M 776.389, 620.521 L 792.622, 598.017 L 802.951, 602.444 L 796.126, 612.036 L 786.903, 624.764 L 776.389, 620.521 z "/>
<path style="fill:rgb(255, 0, 0);fill-opacity:0;fill-rule:evenodd;stroke:rgb(74, 255, 0);stroke-width:1;" d="M 951.81, 320.775 L 968.227, 298.271 L 978.557, 302.513 L 962.14, 325.017 L 951.81, 320.775 z "/>
<path style="fill:rgb(0, 255, 0);fill-opacity:0;fill-rule:evenodd;stroke:rgb(74, 255, 0);stroke-width:1;" d="M 735.255, 603.366 L 751.487, 580.862 L 761.817, 585.289 L 745.769, 607.609 L 735.255, 603.366 z "/>
<path style="fill:rgb(0, 0, 255);fill-opacity:0;fill-rule:evenodd;stroke:rgb(74, 255, 0);stroke-width:1;" d="M 1145.86, 99.7925 L 1165.04, 73.4148 L 1173.9, 77.104 L 1154.72, 103.482 L 1145.86, 99.7925 z "/>
<path style="fill:rgb(255, 255, 0);fill-opacity:0;fill-rule:evenodd;stroke:rgb(74, 255, 0);stroke-width:1;" d="M 1092, 77.104 L 1111.18, 50.7263 L 1120.04, 54.4155 L 1100.85, 80.7932 L 1092, 77.104 z "/>
<path style="fill:rgb(255, 0, 0);fill-opacity:0;fill-rule:evenodd;stroke:rgb(74, 255, 0);stroke-width:1;" d="M 766.059, 616.094 L 782.292, 593.774 L 792.622, 598.017 L 776.389, 620.521 L 766.059, 616.094 z "/>
<path style="fill:rgb(0, 255, 0);fill-opacity:0;fill-rule:evenodd;stroke:rgb(74, 255, 0);stroke-width:1;" d="M 755.73, 611.852 L 771.962, 589.532 L 782.292, 593.774 L 766.059, 616.094 L 755.73, 611.852 z "/>
<path style="fill:rgb(0, 0, 255);fill-opacity:0;fill-rule:evenodd;stroke:rgb(74, 255, 0);stroke-width:1;" d="M 962.14, 325.017 L 978.557, 302.513 L 981.139, 299.193 L 989.993, 302.882 L 987.411, 306.387 L 970.994, 328.891 L 962.14, 325.017 z "/>
<path style="fill:rgb(255, 255, 0);fill-opacity:0;fill-rule:evenodd;stroke:rgb(74, 255, 0);stroke-width:1;" d="M 1037.77, 350.842 L 1042.75, 343.832 L 1075.58, 357.851 L 1070.6, 364.676 L 1037.77, 350.842 z "/>
<path style="fill:rgb(255, 0, 0);fill-opacity:0;fill-rule:evenodd;stroke:rgb(74, 255, 0);stroke-width:1;" d="M 932.626, 312.659 L 949.043, 290.154 L 959.004, 294.397 L 942.587, 316.901 L 932.626, 312.659 z "/>
<path style="fill:rgb(0, 255, 0);fill-opacity:0;fill-rule:evenodd;stroke:rgb(74, 255, 0);stroke-width:1;" d="M 982.43, 259.165 L 1002.17, 232.234 L 1010.65, 235.739 L 990.915, 262.67 L 982.43, 259.165 z "/>
<path style="fill:rgb(0, 0, 255);fill-opacity:0;fill-rule:evenodd;stroke:rgb(74, 255, 0);stroke-width:1;" d="M 745.769, 607.609 L 761.817, 585.289 L 771.962, 589.532 L 755.73, 611.852 L 745.769, 607.609 z "/>
<path style="fill:rgb(255, 255, 0);fill-opacity:0;fill-rule:evenodd;stroke:rgb(74, 255, 0);stroke-width:1;" d="M 970.994, 328.891 L 987.411, 306.387 L 997.371, 310.629 L 981.139, 332.949 L 970.994, 328.891 z "/>
<path style="fill:rgb(255, 0, 0);fill-opacity:0;fill-rule:evenodd;stroke:rgb(74, 255, 0);stroke-width:1;" d="M 1042.75, 343.832 L 1047.73, 337.192 L 1080.56, 351.026 L 1075.58, 357.851 L 1042.75, 343.832 z "/>
<path style="fill:rgb(0, 255, 0);fill-opacity:0;fill-rule:evenodd;stroke:rgb(74, 255, 0);stroke-width:1;" d="M 1047.73, 337.192 L 1052.71, 330.367 L 1085.54, 344.386 L 1080.56, 351.026 L 1047.73, 337.192 z "/>
<path style="fill:rgb(0, 0, 255);fill-opacity:0;fill-rule:evenodd;stroke:rgb(74, 255, 0);stroke-width:1;" d="M 1086.65, 284.252 L 1091.45, 277.427 L 1124.46, 291.446 L 1119.48, 298.086 L 1086.65, 284.252 z "/>
<path style="fill:rgb(255, 255, 0);fill-opacity:0;fill-rule:evenodd;stroke:rgb(74, 255, 0);stroke-width:1;" d="M 1057.51, 323.911 L 1062.49, 317.086 L 1095.32, 331.104 L 1090.34, 337.745 L 1057.51, 323.911 z "/>
<path style="fill:rgb(255, 0, 0);fill-opacity:0;fill-rule:evenodd;stroke:rgb(74, 255, 0);stroke-width:1;" d="M 721.42, 679.917 L 737.284, 657.597 L 747.245, 661.84 L 731.381, 683.975 L 721.42, 679.917 z "/>
<path style="fill:rgb(0, 255, 0);fill-opacity:0;fill-rule:evenodd;stroke:rgb(74, 255, 0);stroke-width:1;" d="M 702.052, 671.801 L 718.1, 649.666 L 727.876, 653.724 L 712.013, 675.859 L 702.052, 671.801 z "/>
<path style="fill:rgb(0, 0, 255);fill-opacity:0;fill-rule:evenodd;stroke:rgb(74, 255, 0);stroke-width:1;" d="M 714.964, 594.881 L 731.012, 572.377 L 740.789, 576.435 L 724.741, 598.939 L 714.964, 594.881 z "/>
<path style="fill:rgb(255, 255, 0);fill-opacity:0;fill-rule:evenodd;stroke:rgb(74, 255, 0);stroke-width:1;" d="M 1052.71, 330.367 L 1057.51, 323.911 L 1090.34, 337.745 L 1085.54, 344.386 L 1052.71, 330.367 z "/>
<path style="fill:rgb(255, 0, 0);fill-opacity:0;fill-rule:evenodd;stroke:rgb(74, 255, 0);stroke-width:1;" d="M 692.46, 667.743 L 708.324, 645.608 L 718.1, 649.666 L 702.052, 671.801 L 692.46, 667.743 z "/>
<path style="fill:rgb(0, 255, 0);fill-opacity:0;fill-rule:evenodd;stroke:rgb(74, 255, 0);stroke-width:1;" d="M 1062.49, 317.086 L 1067.1, 310.814 L 1099.93, 324.648 L 1095.32, 331.104 L 1062.49, 317.086 z "/>
<path style="fill:rgb(0, 0, 255);fill-opacity:0;fill-rule:evenodd;stroke:rgb(74, 255, 0);stroke-width:1;" d="M 1082.04, 290.523 L 1086.65, 284.252 L 1119.48, 298.086 L 1114.87, 304.542 L 1082.04, 290.523 z "/>
<path style="fill:rgb(255, 255, 0);fill-opacity:0;fill-rule:evenodd;stroke:rgb(74, 255, 0);stroke-width:1;" d="M 942.587, 316.901 L 959.004, 294.397 L 968.227, 298.271 L 951.81, 320.775 L 942.587, 316.901 z "/>
<path style="fill:rgb(255, 0, 0);fill-opacity:0;fill-rule:evenodd;stroke:rgb(74, 255, 0);stroke-width:1;" d="M 683.053, 663.869 L 698.916, 641.734 L 708.324, 645.608 L 692.46, 667.743 L 683.053, 663.869 z "/>
<path style="fill:rgb(0, 255, 0);fill-opacity:0;fill-rule:evenodd;stroke:rgb(74, 255, 0);stroke-width:1;" d="M 712.013, 675.859 L 727.876, 653.724 L 737.284, 657.597 L 721.42, 679.917 L 712.013, 675.859 z "/>
<path style="fill:rgb(0, 0, 255);fill-opacity:0;fill-rule:evenodd;stroke:rgb(74, 255, 0);stroke-width:1;" d="M 731.381, 683.975 L 747.245, 661.84 L 756.652, 665.714 L 745.585, 681.208 L 740.789, 687.849 L 731.381, 683.975 z "/>
<path style="fill:rgb(255, 255, 0);fill-opacity:0;fill-rule:evenodd;stroke:rgb(74, 255, 0);stroke-width:1;" d="M 1126.49, 246.807 L 1132.95, 237.953 L 1155.82, 247.544 L 1149.55, 256.214 L 1126.49, 246.807 z "/>
<path style="fill:rgb(255, 0, 0);fill-opacity:0;fill-rule:evenodd;stroke:rgb(74, 255, 0);stroke-width:1;" d="M 763.662, 746.507 L 770.118, 737.837 L 792.622, 747.429 L 786.166, 756.099 L 763.662, 746.507 z "/>
<path style="fill:rgb(0, 255, 0);fill-opacity:0;fill-rule:evenodd;stroke:rgb(74, 255, 0);stroke-width:1;" d="M 740.42, 778.234 L 746.507, 769.933 L 769.011, 779.525 L 762.924, 787.826 L 740.42, 778.234 z "/>
<path style="fill:rgb(0, 0, 255);fill-opacity:0;fill-rule:evenodd;stroke:rgb(74, 255, 0);stroke-width:1;" d="M 752.225, 762.186 L 757.943, 754.254 L 780.447, 763.846 L 774.729, 771.778 L 752.225, 762.186 z "/>
<path style="fill:rgb(255, 255, 0);fill-opacity:0;fill-rule:evenodd;stroke:rgb(74, 255, 0);stroke-width:1;" d="M 746.507, 769.933 L 752.225, 762.186 L 774.729, 771.778 L 769.011, 779.525 L 746.507, 769.933 z "/>
<path style="fill:rgb(255, 0, 0);fill-opacity:0;fill-rule:evenodd;stroke:rgb(74, 255, 0);stroke-width:1;" d="M 757.943, 754.254 L 763.662, 746.507 L 786.166, 756.099 L 780.447, 763.846 L 757.943, 754.254 z "/>
<path style="fill:rgb(0, 255, 0);fill-opacity:0;fill-rule:evenodd;stroke:rgb(74, 255, 0);stroke-width:1;" d="M 536.408, 547.475 L 543.048, 538.621 L 554.485, 543.602 L 547.844, 552.456 L 536.408, 547.475 z "/>
<path style="fill:rgb(0, 0, 255);fill-opacity:0;fill-rule:evenodd;stroke:rgb(74, 255, 0);stroke-width:1;" d="M 0, 529.214 L 71.0168, 431.819 L 195.527, 484.206 L 190.915, 490.477 L 192.391, 491.031 L 193.129, 491.769 L 193.682, 492.506 L 193.867, 493.613 L 193.313, 495.089 L 192.576, 495.827 L 192.022, 496.196 L 190.731, 496.749 L 189.44, 496.933 L 188.148, 496.749 L 186.304, 496.011 L 185.382, 494.904 L 185.013, 493.982 L 185.013, 492.691 L 185.751, 491.584 L 179.294, 488.817 L 114.734, 577.358 L 0, 529.214 z "/>
<path style="fill:rgb(255, 255, 0);fill-opacity:0;fill-rule:evenodd;stroke:rgb(74, 255, 0);stroke-width:1;" d="M 152.179, 702.605 L 171.732, 675.674 L 168.227, 674.199 L 177.265, 661.656 L 224.303, 681.393 L 194.973, 721.789 L 165.276, 709.43 L 166.013, 708.324 L 152.179, 702.605 z M 174.13, 694.12 L 186.857, 699.47 L 190.178, 698.916 L 193.498, 694.489 L 178.372, 688.218 L 174.13, 694.12 z "/>
<path style="fill:rgb(255, 0, 0);fill-opacity:0;fill-rule:evenodd;stroke:rgb(74, 255, 0);stroke-width:1;" d="M 434.033, 38.9209 L 442.333, 27.4844 L 449.896, 30.6202 L 459.488, 17.1547 L 457.828, 15.3101 L 453.217, 13.2811 L 462.808, 0 L 492.506, 12.3588 L 488.633, 17.7081 L 483.283, 25.2709 L 478.303, 23.2419 L 475.721, 23.9797 L 473.876, 26.7466 L 474.983, 28.2223 L 491.769, 35.2317 L 494.351, 35.6006 L 496.011, 33.3871 L 495.642, 30.8047 L 490.846, 28.7757 L 500.438, 15.679 L 530.689, 28.2223 L 520.913, 41.6878 L 516.671, 40.0277 L 512.612, 39.4743 L 502.836, 52.9398 L 510.399, 56.2601 L 502.467, 67.3276 L 472.585, 54.7844 L 478.672, 46.4837 L 478.119, 43.9013 L 472.954, 41.6878 L 470.187, 42.7946 L 463.915, 51.2797 L 434.033, 38.9209 z "/>
<path style="fill:rgb(0, 255, 0);fill-opacity:0;fill-rule:evenodd;stroke:rgb(74, 255, 0);stroke-width:1;" d="M 1032.79, 54.231 L 1032.97, 53.4932 L 1064.33, 10.5142 L 1081.48, 17.7081 L 1078.53, 21.7662 L 1083.15, 21.7662 L 1116.9, 35.9696 L 1107.68, 48.5128 L 1104.54, 49.2506 L 1094.58, 45.0081 L 1092.37, 47.9594 L 1102.51, 52.202 L 1103.44, 54.4155 L 1086.28, 77.8418 L 1033.89, 55.7067 L 1033.16, 55.1533 L 1032.79, 54.231 z M 1056.58, 53.4932 L 1063.59, 56.4445 L 1066.73, 56.629 L 1069.86, 58.1047 L 1072.26, 55.1533 L 1068.57, 53.3087 L 1067.47, 51.6486 L 1060.46, 48.5128 L 1056.58, 53.4932 z M 1081.3, 57.9202 L 1081.48, 60.5027 L 1086.47, 62.7162 L 1090.89, 56.8135 L 1090.34, 54.7844 L 1085.36, 52.5709 L 1081.3, 57.9202 z M 1063.59, 38.3675 L 1084.25, 47.2216 L 1088.49, 41.5033 L 1070.05, 33.7561 L 1066.73, 34.125 L 1063.59, 38.3675 z "/>
<path style="fill:rgb(0, 0, 255);fill-opacity:0;fill-rule:evenodd;stroke:rgb(74, 255, 0);stroke-width:1;" d="M 1152.13, 27.3 L 1171.32, 0.737837 L 1181.09, 4.79594 L 1161.72, 31.3581 L 1152.13, 27.3 z "/>
</svg>