<?xml version="1.0" encoding="iso-8859-1" standalone="no"?>
<!DOCTYPE svg PUBLIC "-//W3C//DTD SVG 1.0//EN" "http://www.w3.org/TR/2001/REC-SVG-20010904/DTD/svg10.dtd">
<svg xmlns="http://www.w3.org/2000/svg" width="1046" height="800">
<path style="fill:rgb(255, 0, 0);fill-opacity:0;fill-rule:evenodd;stroke:rgb(107, 255, 0);stroke-width:1;" d="M 257.718, 265.772 L 323.579, 165.548 L 405.19, 197.047 L 411.454, 210.47 L 356.689, 291.902 L 339.329, 296.555 L 257.718, 265.772 z "/>
<path style="fill:rgb(0, 255, 0);fill-opacity:0;fill-rule:evenodd;stroke:rgb(107, 255, 0);stroke-width:1;" d="M 0, 712.483 L 51.0067, 645.011 L 150.336, 688.322 L 118.837, 730.022 L 99.1499, 755.794 L 0, 712.483 z "/>
<path style="fill:rgb(0, 0, 255);fill-opacity:0;fill-rule:evenodd;stroke:rgb(107, 255, 0);stroke-width:1;" d="M 649.485, 178.971 L 715.168, 79.4631 L 781.924, 105.593 L 717.673, 204.027 L 649.485, 178.971 z "/>
<path style="fill:rgb(255, 255, 0);fill-opacity:0;fill-rule:evenodd;stroke:rgb(107, 255, 0);stroke-width:1;" d="M 863.356, 506.13 L 876.242, 488.412 L 885.011, 492.17 L 889.306, 486.264 L 890.022, 486.622 L 1046.98, 552.662 L 1028.55, 577.897 L 870.872, 511.678 L 872.125, 509.888 L 863.356, 506.13 z "/>
<path style="fill:rgb(255, 0, 0);fill-opacity:0;fill-rule:evenodd;stroke:rgb(107, 255, 0);stroke-width:1;" d="M 621.208, 269.709 L 667.025, 203.848 L 705.682, 219.239 L 659.687, 285.101 L 621.208, 269.709 z "/>
<path style="fill:rgb(0, 255, 0);fill-opacity:0;fill-rule:evenodd;stroke:rgb(107, 255, 0);stroke-width:1;" d="M 764.027, 653.065 L 785.324, 612.617 L 811.991, 623.893 L 811.096, 625.145 L 838.121, 636.6 L 832.752, 643.758 L 833.468, 646.085 L 839.732, 648.77 L 845.28, 641.074 L 847.785, 640.358 L 861.208, 646.085 L 842.774, 671.32 L 846.353, 672.752 L 845.459, 674.004 L 837.942, 684.206 L 816.465, 675.078 L 829.172, 657.718 L 821.298, 654.318 L 808.591, 671.857 L 764.027, 653.065 z M 785.324, 645.011 L 799.821, 651.096 L 800.895, 649.485 L 808.233, 639.642 L 793.736, 633.557 L 785.324, 645.011 z "/>
<path style="fill:rgb(0, 0, 255);fill-opacity:0;fill-rule:evenodd;stroke:rgb(107, 255, 0);stroke-width:1;" d="M 830.962, 532.617 L 850.112, 506.488 L 938.702, 544.072 L 919.553, 570.201 L 830.962, 532.617 z "/>
<path style="fill:rgb(255, 255, 0);fill-opacity:0;fill-rule:evenodd;stroke:rgb(107, 255, 0);stroke-width:1;" d="M 694.049, 769.217 L 724.295, 727.159 L 738.792, 733.065 L 736.465, 736.286 L 778.166, 753.647 L 767.785, 768.143 L 757.226, 763.669 L 754.183, 767.964 L 752.036, 767.069 L 750.425, 769.217 L 763.848, 774.765 L 750.783, 792.841 L 694.049, 769.217 z M 719.105, 762.595 L 732.886, 768.322 L 734.318, 768.859 L 742.55, 757.226 L 727.517, 750.962 L 719.105, 762.595 z "/>
<path style="fill:rgb(255, 0, 0);fill-opacity:0;fill-rule:evenodd;stroke:rgb(107, 255, 0);stroke-width:1;" d="M 865.503, 215.302 L 903.982, 170.38 L 931.007, 183.624 L 895.034, 225.503 L 892.528, 228.546 L 865.503, 215.302 z "/>
<path style="fill:rgb(0, 255, 0);fill-opacity:0;fill-rule:evenodd;stroke:rgb(107, 255, 0);stroke-width:1;" d="M 832.036, 618.881 L 840.626, 607.069 L 835.078, 604.743 L 840.984, 596.51 L 843.848, 597.763 L 856.555, 580.582 L 874.631, 588.277 L 861.924, 605.817 L 869.799, 609.038 L 882.685, 591.678 L 900.94, 599.374 L 893.602, 609.396 L 892.886, 610.112 L 888.77, 608.322 L 869.441, 634.631 L 854.407, 628.367 L 860.671, 619.776 L 854.407, 617.092 L 851.723, 617.629 L 846.532, 624.966 L 832.036, 618.881 z "/>
<path style="fill:rgb(0, 0, 255);fill-opacity:0;fill-rule:evenodd;stroke:rgb(107, 255, 0);stroke-width:1;" d="M 790.515, 602.774 L 811.991, 561.79 L 849.038, 577.36 L 836.331, 594.72 L 840.984, 596.51 L 835.078, 604.743 L 840.626, 607.069 L 832.036, 618.881 L 819.15, 613.333 L 818.255, 614.586 L 790.515, 602.774 z M 810.738, 588.277 L 816.286, 590.604 L 813.244, 594.72 L 827.74, 600.805 L 835.794, 589.888 L 820.224, 583.266 L 817.36, 587.383 L 812.707, 585.414 L 810.738, 588.277 z "/>
<path style="fill:rgb(255, 255, 0);fill-opacity:0;fill-rule:evenodd;stroke:rgb(107, 255, 0);stroke-width:1;" d="M 724.295, 727.159 L 748.814, 681.7 L 783.535, 696.197 L 774.944, 708.009 L 771.544, 706.577 L 751.499, 734.139 L 742.371, 730.38 L 739.866, 733.602 L 738.792, 733.065 L 724.295, 727.159 z "/>
<path style="fill:rgb(255, 0, 0);fill-opacity:0;fill-rule:evenodd;stroke:rgb(107, 255, 0);stroke-width:1;" d="M 295.123, 647.696 L 295.123, 646.264 L 295.66, 643.758 L 296.555, 641.253 L 297.987, 638.747 L 299.955, 636.6 L 301.029, 635.526 L 304.966, 632.841 L 306.398, 632.125 L 309.441, 630.872 L 311.051, 630.336 L 314.273, 629.62 L 317.673, 629.262 L 319.463, 629.262 L 322.864, 629.62 L 326.264, 630.157 L 329.485, 631.23 L 330.917, 631.946 L 332.349, 632.662 L 335.034, 634.273 L 337.36, 636.242 L 338.255, 637.315 L 339.866, 639.642 L 340.94, 642.148 L 341.655, 644.832 L 341.834, 646.085 L 341.655, 648.591 L 340.94, 651.275 L 340.403, 652.528 L 338.971, 654.855 L 337.181, 657.181 L 336.107, 658.076 L 332.349, 660.761 L 330.917, 661.655 L 327.875, 662.908 L 324.653, 663.982 L 322.864, 664.161 L 319.463, 664.519 L 315.884, 664.519 L 312.483, 664.161 L 310.872, 663.803 L 309.083, 663.266 L 306.04, 662.013 L 304.609, 661.298 L 301.924, 659.687 L 300.671, 658.613 L 298.702, 656.465 L 297.092, 654.139 L 295.839, 651.633 L 295.302, 648.949 L 295.123, 647.696 z "/>
<path style="fill:rgb(0, 255, 0);fill-opacity:0;fill-rule:evenodd;stroke:rgb(107, 255, 0);stroke-width:1;" d="M 837.942, 684.206 L 845.459, 674.004 L 851.544, 676.51 L 854.228, 673.11 L 853.512, 672.752 L 862.461, 660.761 L 861.208, 660.224 L 869.441, 648.949 L 894.139, 659.329 L 887.517, 668.635 L 886.622, 669.709 L 879.284, 666.667 L 870.694, 678.479 L 871.767, 679.016 L 868.725, 683.311 L 874.81, 685.817 L 874.094, 686.711 L 866.935, 696.376 L 837.942, 684.206 z "/>
<path style="fill:rgb(0, 0, 255);fill-opacity:0;fill-rule:evenodd;stroke:rgb(107, 255, 0);stroke-width:1;" d="M 901.834, 648.233 L 908.993, 638.568 L 913.826, 640.537 L 916.868, 640.716 L 928.143, 625.503 L 925.996, 623.893 L 921.342, 621.745 L 929.038, 611.186 L 957.673, 623.356 L 949.978, 633.736 L 945.145, 631.588 L 941.745, 631.23 L 930.649, 646.622 L 931.723, 648.233 L 936.913, 650.38 L 929.754, 660.045 L 901.834, 648.233 z "/>
<path style="fill:rgb(255, 255, 0);fill-opacity:0;fill-rule:evenodd;stroke:rgb(107, 255, 0);stroke-width:1;" d="M 874.094, 636.6 L 881.253, 626.935 L 886.085, 628.904 L 888.412, 629.083 L 900.045, 613.333 L 898.434, 611.544 L 893.602, 609.396 L 900.94, 599.374 L 929.038, 611.186 L 921.342, 621.745 L 915.794, 619.418 L 913.289, 619.776 L 902.55, 634.452 L 903.624, 636.242 L 908.993, 638.568 L 901.834, 648.233 L 874.094, 636.6 z "/>
<path style="fill:rgb(255, 0, 0);fill-opacity:0;fill-rule:evenodd;stroke:rgb(107, 255, 0);stroke-width:1;" d="M 778.166, 742.192 L 785.503, 732.17 L 789.441, 733.96 L 790.157, 735.749 L 793.199, 735.928 L 794.81, 733.602 L 794.452, 732.349 L 802.864, 720.895 L 803.579, 721.074 L 805.727, 718.21 L 804.295, 716.421 L 801.969, 716.957 L 798.031, 715.347 L 803.758, 707.472 L 805.727, 704.787 L 833.647, 716.6 L 825.951, 727.159 L 821.298, 725.19 L 820.94, 723.579 L 818.076, 723.4 L 816.465, 725.548 L 817.36, 726.443 L 808.412, 738.434 L 807.338, 738.434 L 805.548, 740.761 L 806.622, 742.013 L 809.664, 742.013 L 813.781, 743.803 L 806.264, 754.004 L 778.166, 742.192 z "/>
<path style="fill:rgb(0, 255, 0);fill-opacity:0;fill-rule:evenodd;stroke:rgb(107, 255, 0);stroke-width:1;" d="M 866.935, 696.376 L 874.094, 686.711 L 880.895, 689.575 L 893.781, 672.215 L 891.633, 670.246 L 887.517, 668.635 L 894.139, 659.329 L 922.058, 671.141 L 915.257, 680.447 L 910.962, 678.479 L 907.919, 677.942 L 895.213, 695.302 L 902.192, 698.166 L 895.034, 708.188 L 866.935, 696.376 z "/>
<path style="fill:rgb(0, 0, 255);fill-opacity:0;fill-rule:evenodd;stroke:rgb(107, 255, 0);stroke-width:1;" d="M 929.038, 722.685 L 950.872, 692.617 L 953.736, 688.859 L 962.506, 692.617 L 957.136, 699.955 L 937.808, 726.443 L 929.038, 722.685 z "/>
<path style="fill:rgb(255, 255, 0);fill-opacity:0;fill-rule:evenodd;stroke:rgb(107, 255, 0);stroke-width:1;" d="M 874.452, 767.248 L 893.065, 741.655 L 904.34, 746.488 L 903.266, 748.098 L 886.264, 771.186 L 885.727, 772.081 L 874.452, 767.248 z "/>
<path style="fill:rgb(255, 0, 0);fill-opacity:0;fill-rule:evenodd;stroke:rgb(107, 255, 0);stroke-width:1;" d="M 928.322, 795.705 L 948.904, 767.248 L 959.105, 771.544 L 958.389, 772.438 L 943.714, 792.662 L 938.345, 800 L 928.322, 795.705 z "/>
<path style="fill:rgb(0, 255, 0);fill-opacity:0;fill-rule:evenodd;stroke:rgb(107, 255, 0);stroke-width:1;" d="M 920.268, 797.494 L 926.89, 788.367 L 922.416, 786.398 L 939.239, 763.311 L 948.904, 767.248 L 928.322, 795.705 L 925.28, 799.642 L 920.268, 797.494 z "/>
<path style="fill:rgb(0, 0, 255);fill-opacity:0;fill-rule:evenodd;stroke:rgb(107, 255, 0);stroke-width:1;" d="M 921.521, 717.673 L 939.776, 692.617 L 942.461, 689.038 L 950.872, 692.617 L 929.038, 722.685 L 922.953, 720 L 923.848, 718.747 L 921.521, 717.673 z "/>
<path style="fill:rgb(255, 255, 0);fill-opacity:0;fill-rule:evenodd;stroke:rgb(107, 255, 0);stroke-width:1;" d="M 909.172, 787.651 L 929.933, 759.374 L 939.239, 763.311 L 922.416, 786.398 L 917.942, 784.609 L 914.183, 789.799 L 909.172, 787.651 z "/>
<path style="fill:rgb(255, 0, 0);fill-opacity:0;fill-rule:evenodd;stroke:rgb(107, 255, 0);stroke-width:1;" d="M 903.982, 785.503 L 907.74, 780.313 L 903.982, 778.702 L 920.984, 755.436 L 929.933, 759.374 L 909.172, 787.651 L 903.982, 785.503 z "/>
<path style="fill:rgb(0, 255, 0);fill-opacity:0;fill-rule:evenodd;stroke:rgb(107, 255, 0);stroke-width:1;" d="M 891.275, 780.134 L 912.036, 751.678 L 920.984, 755.436 L 903.982, 778.702 L 900.224, 777.271 L 896.465, 782.282 L 891.275, 780.134 z "/>
<path style="fill:rgb(0, 0, 255);fill-opacity:0;fill-rule:evenodd;stroke:rgb(107, 255, 0);stroke-width:1;" d="M 886.264, 771.186 L 903.266, 748.098 L 912.036, 751.678 L 891.275, 780.134 L 886.443, 778.166 L 890.201, 772.975 L 886.264, 771.186 z "/>
<path style="fill:rgb(255, 255, 0);fill-opacity:0;fill-rule:evenodd;stroke:rgb(107, 255, 0);stroke-width:1;" d="M 937.808, 726.443 L 957.136, 699.955 L 963.758, 702.64 L 960.179, 707.472 L 957.136, 709.262 L 961.432, 711.051 L 947.293, 730.38 L 937.808, 726.443 z "/>
<path style="fill:rgb(255, 0, 0);fill-opacity:0;fill-rule:evenodd;stroke:rgb(107, 255, 0);stroke-width:1;" d="M 813.96, 743.445 L 825.951, 727.159 L 833.647, 716.6 L 842.058, 720.179 L 827.74, 739.687 L 824.161, 738.255 L 823.803, 741.119 L 820.224, 746.13 L 813.96, 743.445 z "/>
<path style="fill:rgb(0, 255, 0);fill-opacity:0;fill-rule:evenodd;stroke:rgb(107, 255, 0);stroke-width:1;" d="M 861.924, 763.669 L 881.611, 736.823 L 889.843, 740.403 L 888.233, 742.729 L 875.705, 759.911 L 872.125, 758.3 L 872.125, 761.163 L 868.188, 766.532 L 861.924, 763.669 z "/>
<path style="fill:rgb(0, 0, 255);fill-opacity:0;fill-rule:evenodd;stroke:rgb(107, 255, 0);stroke-width:1;" d="M 895.034, 708.188 L 902.192, 698.166 L 910.604, 686.89 L 914.541, 688.501 L 918.3, 683.49 L 922.953, 685.459 L 904.519, 710.515 L 901.834, 709.262 L 900.761, 710.694 L 895.034, 708.188 z "/>
<path style="fill:rgb(255, 255, 0);fill-opacity:0;fill-rule:evenodd;stroke:rgb(107, 255, 0);stroke-width:1;" d="M 846.353, 756.868 L 865.861, 730.201 L 873.915, 733.602 L 859.597, 753.11 L 855.839, 751.499 L 855.839, 754.183 L 852.081, 759.374 L 846.353, 756.868 z "/>
<path style="fill:rgb(255, 0, 0);fill-opacity:0;fill-rule:evenodd;stroke:rgb(107, 255, 0);stroke-width:1;" d="M 824.698, 747.919 L 828.277, 742.908 L 831.32, 741.298 L 827.74, 739.687 L 842.058, 720.179 L 850.112, 723.579 L 830.425, 750.425 L 824.698, 747.919 z "/>
<path style="fill:rgb(0, 255, 0);fill-opacity:0;fill-rule:evenodd;stroke:rgb(107, 255, 0);stroke-width:1;" d="M 830.425, 750.425 L 850.112, 723.579 L 858.166, 726.98 L 843.848, 746.309 L 840.089, 744.698 L 839.911, 747.74 L 836.152, 752.752 L 830.425, 750.425 z "/>
<path style="fill:rgb(0, 0, 255);fill-opacity:0;fill-rule:evenodd;stroke:rgb(107, 255, 0);stroke-width:1;" d="M 912.931, 714.094 L 927.427, 694.228 L 931.365, 695.839 L 935.123, 690.649 L 939.776, 692.617 L 921.521, 717.673 L 912.931, 714.094 z "/>
<path style="fill:rgb(255, 255, 0);fill-opacity:0;fill-rule:evenodd;stroke:rgb(107, 255, 0);stroke-width:1;" d="M 904.519, 710.515 L 922.953, 685.459 L 927.785, 687.427 L 924.027, 692.796 L 927.427, 694.228 L 912.931, 714.094 L 904.519, 710.515 z "/>
<path style="fill:rgb(255, 0, 0);fill-opacity:0;fill-rule:evenodd;stroke:rgb(107, 255, 0);stroke-width:1;" d="M 840.626, 754.541 L 844.027, 749.888 L 847.606, 747.919 L 843.848, 746.309 L 858.166, 726.98 L 865.861, 730.201 L 846.353, 756.868 L 840.626, 754.541 z "/>
<path style="fill:rgb(0, 255, 0);fill-opacity:0;fill-rule:evenodd;stroke:rgb(107, 255, 0);stroke-width:1;" d="M 773.333, 718.926 L 786.935, 700.313 L 795.347, 703.893 L 781.745, 722.506 L 773.333, 718.926 z "/>
<path style="fill:rgb(0, 0, 255);fill-opacity:0;fill-rule:evenodd;stroke:rgb(107, 255, 0);stroke-width:1;" d="M 781.745, 722.506 L 795.347, 703.893 L 803.758, 707.472 L 798.031, 715.347 L 790.157, 726.085 L 781.745, 722.506 z "/>
<path style="fill:rgb(255, 255, 0);fill-opacity:0;fill-rule:evenodd;stroke:rgb(107, 255, 0);stroke-width:1;" d="M 457.45, 74.6309 L 506.667, 0 L 590.246, 31.8568 L 601.7, 36.1521 L 605.459, 37.5839 L 556.242, 112.036 L 457.45, 74.6309 z "/>
</svg>