<?xml version="1.0" encoding="iso-8859-1" standalone="no"?>
<!DOCTYPE svg PUBLIC "-//W3C//DTD SVG 1.0//EN" "http://www.w3.org/TR/2001/REC-SVG-20010904/DTD/svg10.dtd">
<svg xmlns="http://www.w3.org/2000/svg" width="1439" height="800">
<path style="fill:rgb(255, 0, 0);fill-opacity:0;fill-rule:evenodd;stroke:rgb(0, 255, 10);stroke-width:1;" d="M 840.442, 513.744 L 846.761, 437.915 L 862.559, 235.703 L 988.942, 242.022 L 995.893, 154.818 L 1071.72, 157.978 L 1314.38, 169.352 L 1439.49, 175.039 L 1412.32, 513.744 L 1287.2, 508.057 L 1178.52, 503.002 L 1152.61, 502.37 L 1155.77, 458.768 L 980.727, 450.553 L 975.039, 520.063 L 840.442, 513.744 z "/>
<path style="fill:rgb(0, 255, 0);fill-opacity:0;fill-rule:evenodd;stroke:rgb(0, 255, 10);stroke-width:1;" d="M 0, 559.874 L 15.1659, 387.362 L 403.16, 406.951 L 387.994, 579.463 L 0, 559.874 z "/>
<path style="fill:rgb(0, 0, 255);fill-opacity:0;fill-rule:evenodd;stroke:rgb(0, 255, 10);stroke-width:1;" d="M 653.397, 798.736 L 654.028, 654.66 L 1112.16, 655.292 L 1111.53, 800 L 653.397, 798.736 z "/>
<path style="fill:rgb(255, 255, 0);fill-opacity:0;fill-rule:evenodd;stroke:rgb(0, 255, 10);stroke-width:1;" d="M 980.727, 450.553 L 981.359, 443.602 L 997.788, 242.022 L 998.42, 235.071 L 1064.77, 238.231 L 1174.09, 242.654 L 1199.37, 243.918 L 1181.67, 460.032 L 1155.77, 458.768 L 980.727, 450.553 z "/>
<path style="fill:rgb(255, 0, 0);fill-opacity:0;fill-rule:evenodd;stroke:rgb(0, 255, 10);stroke-width:1;" d="M 1287.2, 508.057 L 1312.48, 197.788 L 1314.38, 169.352 L 1439.49, 175.039 L 1412.32, 513.744 L 1287.2, 508.057 z "/>
<path style="fill:rgb(0, 255, 0);fill-opacity:0;fill-rule:evenodd;stroke:rgb(0, 255, 10);stroke-width:1;" d="M 1178.52, 503.002 L 1181.67, 460.032 L 1199.37, 243.918 L 1203.16, 192.733 L 1312.48, 197.788 L 1287.2, 508.057 L 1178.52, 503.002 z "/>
<path style="fill:rgb(0, 0, 255);fill-opacity:0;fill-rule:evenodd;stroke:rgb(0, 255, 10);stroke-width:1;" d="M 846.761, 437.915 L 862.559, 235.703 L 988.942, 242.022 L 997.788, 242.022 L 981.359, 443.602 L 846.761, 437.915 z "/>
<path style="fill:rgb(255, 255, 0);fill-opacity:0;fill-rule:evenodd;stroke:rgb(0, 255, 10);stroke-width:1;" d="M 63.8231, 517.536 L 71.406, 435.387 L 339.336, 449.289 L 332.385, 530.806 L 63.8231, 517.536 z "/>
<path style="fill:rgb(255, 0, 0);fill-opacity:0;fill-rule:evenodd;stroke:rgb(0, 255, 10);stroke-width:1;" d="M 152.291, 0 L 406.319, 9.47867 L 405.687, 59.3997 L 218.641, 79.6209 L 218.641, 61.9273 L 152.291, 0 z "/>
<path style="fill:rgb(0, 255, 0);fill-opacity:0;fill-rule:evenodd;stroke:rgb(0, 255, 10);stroke-width:1;" d="M 1064.77, 238.231 L 1071.72, 157.978 L 1314.38, 169.352 L 1312.48, 197.788 L 1203.16, 192.733 L 1177.88, 191.469 L 1174.09, 242.654 L 1064.77, 238.231 z "/>
<path style="fill:rgb(0, 0, 255);fill-opacity:0;fill-rule:evenodd;stroke:rgb(0, 255, 10);stroke-width:1;" d="M 840.442, 513.744 L 846.761, 437.915 L 981.359, 443.602 L 980.727, 450.553 L 975.039, 520.063 L 840.442, 513.744 z "/>
<path style="fill:rgb(255, 255, 0);fill-opacity:0;fill-rule:evenodd;stroke:rgb(0, 255, 10);stroke-width:1;" d="M 988.942, 242.022 L 995.893, 154.818 L 1071.72, 157.978 L 1064.77, 238.231 L 998.42, 235.071 L 997.788, 242.022 L 988.942, 242.022 z "/>
<path style="fill:rgb(255, 0, 0);fill-opacity:0;fill-rule:evenodd;stroke:rgb(0, 255, 10);stroke-width:1;" d="M 1174.09, 242.654 L 1177.88, 191.469 L 1203.16, 192.733 L 1199.37, 243.918 L 1174.09, 242.654 z "/>
<path style="fill:rgb(0, 255, 0);fill-opacity:0;fill-rule:evenodd;stroke:rgb(0, 255, 10);stroke-width:1;" d="M 1152.61, 502.37 L 1155.77, 458.768 L 1181.67, 460.032 L 1178.52, 503.002 L 1152.61, 502.37 z "/>
</svg>