<?xml version="1.0" encoding="iso-8859-1" standalone="no"?>
<!DOCTYPE svg PUBLIC "-//W3C//DTD SVG 1.0//EN" "http://www.w3.org/TR/2001/REC-SVG-20010904/DTD/svg10.dtd">
<svg xmlns="http://www.w3.org/2000/svg" width="964" height="800">
<path style="fill:rgb(255, 0, 0);fill-opacity:0;fill-rule:evenodd;stroke:rgb(108, 0, 255);stroke-width:1;" d="M 654.846, 424.254 L 692.145, 382.912 L 722.83, 388.792 L 735.508, 390.997 L 958.567, 433.992 L 964.998, 478.089 L 918.695, 523.473 L 917.042, 524.943 L 660.358, 474.782 L 654.846, 424.254 z "/>
<path style="fill:rgb(0, 255, 0);fill-opacity:0;fill-rule:evenodd;stroke:rgb(108, 0, 255);stroke-width:1;" d="M 819.66, 184.658 L 828.296, 162.977 L 865.595, 171.796 L 868.167, 170.694 L 873.496, 172.164 L 874.966, 168.856 L 869.637, 167.57 L 868.535, 165.549 L 830.868, 156.729 L 838.953, 136.702 L 876.068, 145.338 L 878.824, 144.419 L 884.336, 145.705 L 885.622, 142.214 L 880.294, 140.928 L 879.008, 139.09 L 841.525, 130.271 L 851.447, 105.466 L 911.162, 122.37 L 900.873, 146.808 L 899.954, 146.44 L 898.668, 149.012 L 899.77, 150.482 L 907.487, 152.32 L 918.695, 124.391 L 938.723, 130.087 L 931.741, 144.051 L 930.087, 147.542 L 924.943, 146.073 L 923.289, 149.38 L 924.759, 149.931 L 902.526, 194.58 L 885.806, 190.905 L 883.785, 196.233 L 852.182, 189.619 L 851.447, 191.456 L 819.66, 184.658 z M 877.17, 175.103 L 892.788, 178.962 L 897.749, 168.489 L 896.463, 166.651 L 884.336, 163.712 L 881.948, 164.263 L 877.17, 175.103 z "/>
<path style="fill:rgb(0, 0, 255);fill-opacity:0;fill-rule:evenodd;stroke:rgb(108, 0, 255);stroke-width:1;" d="M 592.007, 747.818 L 600.092, 728.709 L 623.978, 733.303 L 627.102, 723.197 L 620.487, 721.911 L 619.384, 725.218 L 602.848, 722.095 L 616.996, 687 L 632.246, 689.94 L 630.776, 694.35 L 636.84, 695.636 L 640.514, 684.612 L 619.568, 680.57 L 626.734, 662.747 L 690.859, 675.425 L 688.47, 682.591 L 684.979, 693.064 L 651.723, 686.633 L 650.253, 690.859 L 655.397, 691.778 L 656.5, 694.534 L 680.202, 699.495 L 675.792, 712.173 L 652.09, 707.579 L 649.334, 709.233 L 643.822, 708.314 L 642.168, 713.091 L 673.588, 719.155 L 667.708, 736.426 L 641.249, 731.098 L 640.514, 733.486 L 635.186, 732.568 L 633.716, 736.977 L 667.524, 743.776 L 661.093, 762.333 L 593.11, 748.921 L 592.007, 747.818 z "/>
<path style="fill:rgb(255, 255, 0);fill-opacity:0;fill-rule:evenodd;stroke:rgb(108, 0, 255);stroke-width:1;" d="M 417.455, 714.929 L 433.441, 676.344 L 465.411, 682.774 L 459.715, 699.127 L 465.227, 700.23 L 466.33, 696.739 L 470.923, 694.718 L 473.863, 686.633 L 492.605, 690.492 L 487.644, 704.639 L 495.177, 705.926 L 495.728, 704.088 L 497.933, 704.456 L 502.159, 691.961 L 521.635, 695.82 L 519.063, 703.353 L 521.268, 706.661 L 519.798, 711.07 L 525.31, 712.173 L 531.006, 695.636 L 555.076, 700.413 L 539.642, 738.999 L 512.081, 733.486 L 517.409, 718.052 L 503.629, 715.113 L 501.975, 719.706 L 507.12, 720.808 L 503.261, 732.017 L 454.571, 722.278 L 458.429, 711.254 L 463.757, 712.356 L 465.227, 707.579 L 451.079, 704.823 L 445.567, 720.625 L 417.455, 714.929 z "/>
<path style="fill:rgb(255, 0, 0);fill-opacity:0;fill-rule:evenodd;stroke:rgb(108, 0, 255);stroke-width:1;" d="M 805.88, 596.417 L 815.434, 568.305 L 831.052, 571.429 L 829.031, 577.308 L 840.423, 579.513 L 840.79, 578.227 L 843.546, 578.778 L 848.14, 564.814 L 829.582, 561.139 L 828.663, 563.712 L 816.169, 561.323 L 824.07, 537.804 L 904.548, 553.606 L 876.803, 614.975 L 859.164, 611.484 L 861.369, 604.869 L 855.305, 603.767 L 854.571, 605.972 L 805.88, 596.417 z M 851.079, 581.902 L 871.107, 585.76 L 876.252, 570.694 L 858.98, 567.386 L 857.694, 571.612 L 854.754, 571.061 L 851.079, 581.902 z "/>
<path style="fill:rgb(0, 255, 0);fill-opacity:0;fill-rule:evenodd;stroke:rgb(108, 0, 255);stroke-width:1;" d="M 437.85, 667.34 L 452.733, 628.571 L 479.743, 634.084 L 474.231, 649.701 L 488.93, 652.641 L 490.583, 648.048 L 485.255, 646.945 L 489.113, 635.737 L 537.437, 645.475 L 533.762, 656.316 L 528.25, 655.214 L 526.596, 659.807 L 541.295, 662.931 L 546.808, 647.497 L 574.185, 653.009 L 558.751, 691.043 L 535.232, 686.449 L 540.744, 670.648 L 534.681, 669.362 L 533.211, 673.22 L 529.352, 675.057 L 526.596, 682.774 L 507.487, 678.916 L 512.448, 664.768 L 503.078, 662.931 L 498.117, 677.262 L 478.824, 673.404 L 481.58, 665.503 L 479.375, 662.563 L 480.661, 658.705 L 474.782, 657.418 L 469.086, 673.588 L 437.85, 667.34 z "/>
<path style="fill:rgb(0, 0, 255);fill-opacity:0;fill-rule:evenodd;stroke:rgb(108, 0, 255);stroke-width:1;" d="M 777.4, 660.542 L 784.382, 639.78 L 786.403, 639.963 L 788.057, 634.819 L 802.205, 637.575 L 799.816, 644.557 L 810.841, 646.762 L 817.455, 627.653 L 809.371, 626.183 L 807.717, 631.328 L 790.629, 627.836 L 798.898, 603.399 L 849.058, 613.321 L 848.14, 615.71 L 855.122, 617.18 L 857.143, 611.116 L 859.164, 611.484 L 876.803, 614.975 L 854.754, 663.849 L 851.998, 675.241 L 777.4, 660.542 z M 821.497, 645.292 L 822.967, 646.762 L 840.239, 649.701 L 842.811, 647.497 L 846.67, 634.084 L 841.893, 633.349 L 841.525, 634.635 L 825.54, 632.981 L 825.172, 634.451 L 824.621, 634.451 L 821.497, 645.292 z "/>
<path style="fill:rgb(255, 255, 0);fill-opacity:0;fill-rule:evenodd;stroke:rgb(108, 0, 255);stroke-width:1;" d="M 151.952, 611.851 L 160.404, 571.061 L 188.884, 576.757 L 182.085, 596.417 L 192.007, 598.254 L 198.806, 578.778 L 222.876, 583.555 L 216.077, 603.215 L 226.183, 605.053 L 232.981, 585.576 L 258.888, 590.721 L 250.436, 614.975 L 248.048, 614.607 L 247.313, 616.812 L 244.006, 616.077 L 242.719, 619.752 L 246.394, 620.487 L 242.903, 630.409 L 206.339, 623.243 L 205.237, 626.55 L 189.068, 623.243 L 191.456, 616.628 L 187.598, 615.893 L 186.679, 618.833 L 151.952, 611.851 z "/>
<path style="fill:rgb(255, 0, 0);fill-opacity:0;fill-rule:evenodd;stroke:rgb(108, 0, 255);stroke-width:1;" d="M 798.346, 237.575 L 806.615, 217.18 L 846.119, 224.897 L 848.14, 218.65 L 809.003, 211.116 L 817.823, 189.251 L 837.299, 193.294 L 835.829, 197.52 L 841.341, 198.622 L 840.79, 200.459 L 847.772, 201.929 L 854.019, 203.215 L 857.878, 202.48 L 861.92, 203.215 L 864.86, 202.113 L 870.74, 203.215 L 871.842, 199.908 L 881.764, 201.929 L 883.418, 196.968 L 893.523, 199.173 L 892.421, 202.297 L 899.587, 203.767 L 895.912, 214.24 L 879.559, 211.116 L 877.354, 217.18 L 884.887, 218.65 L 884.704, 219.201 L 893.523, 221.038 L 890.4, 230.225 L 892.605, 230.593 L 884.336, 254.479 L 862.288, 250.253 L 870.556, 225.632 L 861.92, 223.978 L 853.652, 248.415 L 798.346, 237.575 z "/>
<path style="fill:rgb(0, 255, 0);fill-opacity:0;fill-rule:evenodd;stroke:rgb(108, 0, 255);stroke-width:1;" d="M 749.655, 354.065 L 757.373, 330.914 L 767.111, 332.751 L 768.029, 330.179 L 842.627, 344.511 L 840.423, 351.309 L 868.902, 356.638 L 859.531, 384.933 L 804.961, 374.46 L 806.982, 368.397 L 754.616, 358.475 L 755.719, 355.168 L 749.655, 354.065 z "/>
<path style="fill:rgb(0, 0, 255);fill-opacity:0;fill-rule:evenodd;stroke:rgb(108, 0, 255);stroke-width:1;" d="M 13.0455, 161.507 L 15.9853, 149.931 L 14.3316, 149.564 L 16.5365, 144.051 L 52.7331, 151.217 L 56.4079, 139.825 L 18.3739, 131.925 L 22.5999, 119.063 L 59.7152, 126.045 L 63.5737, 114.469 L 26.4584, 107.304 L 32.8893, 87.8273 L 53.6518, 91.6858 L 51.8144, 97.198 L 54.3868, 97.7492 L 54.0193, 98.4842 L 68.1672, 101.24 L 68.9022, 98.6679 L 73.8631, 99.5866 L 75.1493, 95.9118 L 93.3395, 99.4028 L 90.0322, 109.141 L 82.3151, 107.671 L 80.294, 114.102 L 88.011, 115.572 L 81.9476, 133.762 L 74.0469, 132.292 L 72.0257, 138.539 L 79.559, 140.009 L 67.616, 176.206 L 48.8746, 172.715 L 50.1608, 168.489 L 13.0455, 161.507 z "/>
<path style="fill:rgb(255, 255, 0);fill-opacity:0;fill-rule:evenodd;stroke:rgb(108, 0, 255);stroke-width:1;" d="M 140.56, 661.277 L 149.564, 619.384 L 170.694, 623.61 L 170.326, 624.529 L 182.085, 626.734 L 181.35, 629.123 L 186.679, 630.225 L 189.068, 623.243 L 205.237, 626.55 L 203.767, 631.144 L 219.936, 634.451 L 220.303, 632.981 L 240.698, 637.023 L 237.207, 647.129 L 233.349, 646.394 L 231.879, 650.62 L 236.105, 651.539 L 235.37, 653.376 L 237.207, 653.56 L 228.571, 678.732 L 202.297, 673.404 L 209.095, 653.376 L 199.908, 651.539 L 192.926, 671.566 L 168.489, 666.789 L 175.287, 646.945 L 167.203, 645.292 L 165.733, 646.578 L 159.486, 664.952 L 140.56, 661.277 z "/>
<path style="fill:rgb(255, 0, 0);fill-opacity:0;fill-rule:evenodd;stroke:rgb(108, 0, 255);stroke-width:1;" d="M 352.228, 77.7216 L 357.373, 63.0225 L 369.132, 65.4111 L 372.99, 54.203 L 371.153, 53.6518 L 371.888, 51.6307 L 373.725, 51.9982 L 376.114, 45.5673 L 373.358, 42.4437 L 364.722, 40.6063 L 370.234, 24.2536 L 382.912, 24.9885 L 440.974, 22.5999 L 430.317, 53.2843 L 412.862, 49.7933 L 415.067, 42.9949 L 406.431, 41.3413 L 397.428, 67.2485 L 406.063, 68.9022 L 408.452, 62.1038 L 426.091, 65.5949 L 416.904, 92.237 L 388.976, 86.7249 L 389.343, 85.2549 L 352.228, 77.7216 z "/>
<path style="fill:rgb(0, 255, 0);fill-opacity:0;fill-rule:evenodd;stroke:rgb(108, 0, 255);stroke-width:1;" d="M 546.624, 76.6192 L 557.832, 43.5462 L 552.503, 42.4437 L 558.383, 26.2747 L 590.721, 32.8893 L 605.788, 36.5641 L 633.165, 44.0974 L 613.689, 92.237 L 591.089, 87.4598 L 594.763, 78.0891 L 590.721, 77.1704 L 589.802, 79.3753 L 588.7, 79.9265 L 573.082, 77.1704 L 574.185, 74.5981 L 571.245, 73.8631 L 570.51, 74.0469 L 567.754, 81.0289 L 546.624, 76.6192 z M 578.962, 63.0225 L 589.435, 64.8599 L 595.315, 65.9623 L 598.622, 55.6729 L 597.52, 52.7331 L 583.004, 50.1608 L 578.962, 63.0225 z "/>
<path style="fill:rgb(0, 0, 255);fill-opacity:0;fill-rule:evenodd;stroke:rgb(108, 0, 255);stroke-width:1;" d="M 644.74, 113.918 L 650.804, 99.2191 L 652.09, 99.5866 L 652.825, 97.5655 L 683.142, 104.915 L 683.693, 103.813 L 689.389, 105.099 L 690.492, 102.71 L 691.594, 103.078 L 692.145, 101.791 L 689.573, 101.056 L 690.308, 99.4028 L 655.765, 91.1346 L 656.5, 89.2972 L 654.662, 88.746 L 668.259, 56.0404 L 669.729, 56.4079 L 670.648, 54.203 L 673.588, 54.938 L 673.955, 54.0193 L 694.166, 59.5315 L 693.799, 60.6339 L 696.187, 61.3689 L 689.757, 76.8029 L 687.735, 76.2517 L 686.633, 79.3753 L 699.678, 82.4989 L 701.148, 78.8241 L 698.392, 78.2729 L 704.456, 63.9412 L 706.844, 64.4924 L 707.395, 63.39 L 727.056, 68.9022 L 726.688, 70.0046 L 729.077, 70.5558 L 719.706, 92.7882 L 718.052, 92.4208 L 704.639, 124.575 L 660.542, 115.756 L 659.072, 119.247 L 645.843, 116.123 L 646.578, 114.286 L 644.74, 113.918 z "/>
<path style="fill:rgb(255, 255, 0);fill-opacity:0;fill-rule:evenodd;stroke:rgb(108, 0, 255);stroke-width:1;" d="M 529.352, 612.035 L 538.539, 588.149 L 540.56, 588.7 L 555.26, 554.157 L 591.089, 561.139 L 592.007, 557.464 L 592.191, 557.464 L 611.484, 561.323 L 587.414, 623.427 L 529.352, 612.035 z M 553.238, 599.173 L 573.266, 604.134 L 572.164, 607.074 L 576.757, 608.176 L 578.962, 602.848 L 573.266, 601.378 L 574.001, 599.724 L 570.326, 598.806 L 573.817, 590.537 L 558.383, 587.046 L 553.238, 599.173 z M 560.588, 581.718 L 576.022, 585.393 L 583.004, 568.856 L 577.492, 567.57 L 576.022, 571.245 L 566.1, 568.856 L 560.588, 581.718 z "/>
<path style="fill:rgb(255, 0, 0);fill-opacity:0;fill-rule:evenodd;stroke:rgb(108, 0, 255);stroke-width:1;" d="M 0, 251.539 L 3.85852, 226.183 L 35.0942, 232.43 L 38.9527, 220.854 L 5.69591, 214.424 L 7.71704, 200.827 L 41.7088, 207.074 L 45.3836, 195.131 L 9.55443, 188.7 L 12.4943, 169.224 L 47.7722, 176.022 L 48.8746, 172.715 L 67.616, 176.206 L 68.9022, 176.573 L 42.9949, 255.03 L 31.0519, 254.111 L 33.4405, 248.232 L 16.3528, 244.373 L 13.413, 252.458 L 0, 251.539 z "/>
<path style="fill:rgb(0, 255, 0);fill-opacity:0;fill-rule:evenodd;stroke:rgb(108, 0, 255);stroke-width:1;" d="M 723.748, 122.554 L 732.384, 101.24 L 755.719, 106.569 L 757.005, 103.629 L 761.231, 104.548 L 762.701, 100.873 L 733.67, 94.2582 L 742.122, 73.1282 L 789.159, 86.3574 L 804.042, 90.5834 L 783.831, 140.193 L 771.888, 137.437 L 773.542, 133.395 L 763.803, 131.006 L 763.62, 131.741 L 723.748, 122.554 z "/>
<path style="fill:rgb(0, 0, 255);fill-opacity:0;fill-rule:evenodd;stroke:rgb(108, 0, 255);stroke-width:1;" d="M 680.57, 216.077 L 683.509, 208.911 L 685.347, 209.279 L 692.329, 191.64 L 694.718, 192.191 L 704.272, 168.305 L 741.02, 176.941 L 740.469, 178.411 L 745.797, 179.513 L 747.451, 174.92 L 767.846, 179.697 L 747.818, 229.123 L 680.57, 216.077 z M 707.579, 199.357 L 716.582, 201.378 L 718.236, 203.95 L 732.568, 207.441 L 734.038, 203.767 L 733.119, 203.583 L 736.794, 194.763 L 722.646, 191.456 L 718.787, 194.028 L 714.194, 192.926 L 709.784, 194.028 L 707.579, 199.357 z "/>
<path style="fill:rgb(255, 255, 0);fill-opacity:0;fill-rule:evenodd;stroke:rgb(108, 0, 255);stroke-width:1;" d="M 557.648, 547.542 L 571.429, 513.183 L 569.407, 512.816 L 574.185, 498.3 L 575.103, 498.484 L 578.411, 488.93 L 635.186, 500.138 L 611.484, 561.323 L 592.191, 557.464 L 593.11, 554.525 L 557.648, 547.542 z M 585.209, 519.798 L 601.011, 523.473 L 604.134, 515.572 L 607.441, 515.939 L 608.176, 513.918 L 614.24, 515.388 L 616.445, 510.06 L 611.851, 508.957 L 610.565, 512.265 L 589.802, 507.671 L 585.209, 519.798 z M 577.492, 538.172 L 588.333, 540.193 L 586.863, 544.419 L 592.926, 545.521 L 598.438, 529.169 L 584.29, 526.412 L 581.718, 525.861 L 577.492, 538.172 z "/>
<path style="fill:rgb(255, 0, 0);fill-opacity:0;fill-rule:evenodd;stroke:rgb(108, 0, 255);stroke-width:1;" d="M 764.538, 736.426 L 766.743, 730.363 L 764.906, 729.995 L 768.948, 718.236 L 773.174, 705.926 L 777.768, 692.513 L 843.179, 705.374 L 828.48, 749.104 L 808.268, 745.062 L 791.915, 741.938 L 771.337, 737.896 L 764.538, 736.426 z "/>
<path style="fill:rgb(0, 255, 0);fill-opacity:0;fill-rule:evenodd;stroke:rgb(108, 0, 255);stroke-width:1;" d="M 322.646, 649.701 L 330.914, 625.815 L 328.709, 623.978 L 335.324, 605.42 L 371.337, 612.586 L 370.969, 613.505 L 367.478, 623.61 L 364.906, 623.059 L 362.15, 630.96 L 375.379, 633.716 L 378.503, 624.897 L 376.481, 624.529 L 379.972, 614.24 L 413.597, 620.854 L 398.163, 660.91 L 381.442, 657.602 L 380.156, 661.277 L 359.394, 657.235 L 360.129, 655.397 L 362.15, 655.949 L 365.09, 647.68 L 369.316, 648.599 L 371.153, 643.271 L 350.023, 639.045 L 344.878, 654.111 L 322.646, 649.701 z "/>
<path style="fill:rgb(0, 0, 255);fill-opacity:0;fill-rule:evenodd;stroke:rgb(108, 0, 255);stroke-width:1;" d="M 629.858, 340.652 L 636.84, 320.257 L 668.627, 326.504 L 669.362, 324.299 L 667.892, 321.727 L 663.849, 320.992 L 662.012, 318.236 L 643.087, 314.561 L 650.804, 292.329 L 652.825, 292.696 L 669.729, 296.004 L 667.708, 301.883 L 670.648, 302.435 L 668.627, 308.314 L 673.036, 309.049 L 674.874, 303.537 L 695.269, 307.395 L 697.29, 301.332 L 698.76, 301.7 L 717.134, 305.191 L 707.947, 328.158 L 683.142, 323.197 L 680.937, 331.098 L 682.958, 331.465 L 683.509, 330.179 L 705.374, 334.589 L 697.29, 354.433 L 629.858, 340.652 z "/>
<path style="fill:rgb(255, 255, 0);fill-opacity:0;fill-rule:evenodd;stroke:rgb(108, 0, 255);stroke-width:1;" d="M 362.701, 579.329 L 369.132, 564.079 L 374.093, 564.998 L 382.729, 544.97 L 389.343, 526.412 L 410.473, 530.455 L 405.696, 544.97 L 416.169, 546.991 L 417.088, 544.235 L 415.434, 543.868 L 419.66, 530.822 L 444.465, 535.599 L 425.907, 591.456 L 362.701, 579.329 z M 393.569, 568.121 L 410.289, 571.429 L 415.802, 555.076 L 405.88, 553.055 L 405.328, 554.525 L 403.491, 554.157 L 404.042, 552.687 L 399.081, 551.768 L 393.569, 568.121 z "/>
<path style="fill:rgb(255, 0, 0);fill-opacity:0;fill-rule:evenodd;stroke:rgb(108, 0, 255);stroke-width:1;" d="M 652.825, 292.696 L 660.726, 269.545 L 686.082, 274.69 L 688.47, 272.301 L 693.248, 273.22 L 694.35, 269.729 L 662.931, 263.666 L 670.28, 242.352 L 737.161, 255.397 L 729.077, 275.792 L 709.049, 271.934 L 709.6, 270.648 L 705.558, 269.729 L 704.823, 271.934 L 698.025, 270.648 L 696.739, 274.69 L 703.353, 275.976 L 702.618, 278.365 L 706.661, 279.1 L 707.212, 278.181 L 726.504, 281.856 L 717.134, 305.191 L 698.76, 301.7 L 700.781, 295.452 L 680.57, 291.594 L 682.591, 285.531 L 677.997, 284.612 L 675.976, 290.492 L 673.22, 289.94 L 671.015, 296.187 L 669.729, 296.004 L 652.825, 292.696 z "/>
<path style="fill:rgb(0, 255, 0);fill-opacity:0;fill-rule:evenodd;stroke:rgb(108, 0, 255);stroke-width:1;" d="M 464.125, 598.989 L 470.005, 582.269 L 486.541, 585.576 L 488.93, 578.594 L 472.393, 575.287 L 477.354, 560.772 L 494.626, 564.263 L 497.014, 557.648 L 479.743, 554.157 L 485.439, 537.437 L 505.099, 541.295 L 508.406, 541.847 L 507.304, 545.154 L 510.978, 545.889 L 510.06, 548.277 L 515.204, 549.38 L 515.021, 549.931 L 526.412, 552.136 L 528.801, 545.521 L 538.539, 547.542 L 530.638, 567.938 L 524.208, 566.651 L 522.37, 571.612 L 528.25, 572.715 L 524.024, 585.209 L 508.957, 582.269 L 507.671, 585.576 L 504.18, 584.842 L 503.078, 588.149 L 523.289, 592.191 L 516.307, 609.279 L 464.125, 598.989 z "/>
<path style="fill:rgb(0, 0, 255);fill-opacity:0;fill-rule:evenodd;stroke:rgb(108, 0, 255);stroke-width:1;" d="M 127.147, 721.911 L 133.762, 691.41 L 174.001, 698.944 L 170.51, 709.784 L 179.697, 711.438 L 183.188, 700.781 L 204.685, 704.823 L 201.194, 715.664 L 202.664, 716.031 L 209.83, 717.501 L 213.505, 706.477 L 244.74, 712.356 L 236.656, 736.794 L 234.635, 736.426 L 232.797, 742.122 L 214.607, 738.631 L 216.628, 732.568 L 186.128, 726.688 L 184.107, 732.935 L 169.591, 730.179 L 171.796, 723.565 L 169.775, 720.992 L 154.525, 718.052 L 151.034, 719.89 L 149.012, 726.137 L 127.147, 721.911 z "/>
<path style="fill:rgb(255, 255, 0);fill-opacity:0;fill-rule:evenodd;stroke:rgb(108, 0, 255);stroke-width:1;" d="M 396.325, 769.867 L 405.145, 745.429 L 408.452, 745.062 L 453.101, 754.065 L 527.515, 768.948 L 518.144, 793.202 L 486.909, 786.955 L 487.827, 784.198 L 482.683, 783.096 L 485.255, 775.563 L 480.845, 774.828 L 481.58, 772.807 L 476.803, 771.888 L 473.679, 781.259 L 442.26, 775.011 L 445.384, 766.008 L 441.525, 765.273 L 440.79, 767.294 L 435.829, 766.192 L 433.257, 773.725 L 428.296, 772.623 L 427.01, 776.114 L 396.325, 769.867 z "/>
<path style="fill:rgb(255, 0, 0);fill-opacity:0;fill-rule:evenodd;stroke:rgb(108, 0, 255);stroke-width:1;" d="M 305.742, 693.248 L 312.173, 674.322 L 314.01, 674.69 L 322.646, 649.701 L 344.878, 654.111 L 339.917, 668.627 L 360.496, 672.669 L 362.15, 667.892 L 358.291, 667.157 L 361.047, 659.256 L 358.842, 658.705 L 359.394, 657.235 L 380.156, 661.277 L 379.054, 664.768 L 394.855, 667.892 L 377.951, 708.498 L 349.104, 701.516 L 352.595, 691.226 L 354.984, 691.594 L 357.924, 682.958 L 344.695, 680.202 L 341.571, 689.205 L 343.408, 689.573 L 339.917, 700.046 L 305.742, 693.248 z "/>
<path style="fill:rgb(0, 255, 0);fill-opacity:0;fill-rule:evenodd;stroke:rgb(108, 0, 255);stroke-width:1;" d="M 249.885, 739.55 L 258.337, 715.113 L 287.919, 720.992 L 284.061, 732.2 L 292.88, 733.854 L 296.739, 722.646 L 318.42, 726.872 L 314.378, 738.447 L 323.748, 740.285 L 327.607, 728.709 L 366.376, 736.426 L 356.27, 765.825 L 334.038, 761.415 L 335.875, 755.903 L 332.384, 754.249 L 317.685, 751.309 L 315.48, 757.74 L 298.209, 754.433 L 300.413, 748.369 L 270.28, 742.49 L 268.075, 748.921 L 250.253, 745.429 L 252.09, 739.917 L 249.885, 739.55 z "/>
<path style="fill:rgb(0, 0, 255);fill-opacity:0;fill-rule:evenodd;stroke:rgb(108, 0, 255);stroke-width:1;" d="M 394.855, 513.367 L 411.208, 471.475 L 407.35, 470.74 L 411.943, 456.592 L 467.065, 467.616 L 447.956, 525.126 L 425.723, 520.9 L 431.419, 503.996 L 420.579, 501.975 L 419.66, 504.731 L 421.865, 505.282 L 417.639, 517.777 L 394.855, 513.367 z M 423.519, 488.746 L 433.992, 490.583 L 440.606, 491.87 L 444.649, 479.192 L 427.561, 476.068 L 423.519, 488.746 z "/>
<path style="fill:rgb(255, 255, 0);fill-opacity:0;fill-rule:evenodd;stroke:rgb(108, 0, 255);stroke-width:1;" d="M 667.34, 560.404 L 686.633, 510.795 L 745.797, 522.37 L 739.366, 539.642 L 736.426, 540.744 L 725.218, 570.694 L 695.636, 564.263 L 696.371, 562.425 L 691.961, 561.507 L 691.043, 563.895 L 687.735, 563.344 L 687.184, 564.814 L 667.34, 560.404 z M 699.311, 544.235 L 701.148, 547.175 L 714.561, 550.482 L 719.706, 538.356 L 713.459, 536.886 L 706.844, 535.232 L 702.435, 536.886 L 699.311, 544.235 z "/>
<path style="fill:rgb(255, 0, 0);fill-opacity:0;fill-rule:evenodd;stroke:rgb(108, 0, 255);stroke-width:1;" d="M 768.029, 311.989 L 770.418, 304.823 L 773.358, 305.374 L 775.011, 299.862 L 772.623, 299.311 L 774.828, 292.329 L 805.696, 298.025 L 807.901, 291.043 L 778.686, 285.714 L 780.707, 279.1 L 783.831, 279.651 L 785.485, 274.139 L 783.096, 273.771 L 785.117, 267.34 L 830.684, 276.16 L 850.345, 279.835 L 843.914, 300.046 L 829.949, 297.474 L 830.133, 296.739 L 824.805, 295.82 L 822.416, 303.353 L 828.112, 304.456 L 828.296, 304.088 L 839.504, 306.109 L 833.624, 324.483 L 819.844, 321.911 L 818.925, 325.034 L 804.777, 322.462 L 805.88, 318.787 L 768.029, 311.989 z "/>
<path style="fill:rgb(0, 255, 0);fill-opacity:0;fill-rule:evenodd;stroke:rgb(108, 0, 255);stroke-width:1;" d="M 684.979, 714.378 L 689.022, 702.618 L 696.922, 704.088 L 698.025, 700.781 L 697.474, 700.781 L 698.944, 696.922 L 699.127, 696.922 L 700.413, 693.248 L 698.025, 691.043 L 693.248, 689.94 L 697.657, 676.711 L 732.2, 683.509 L 725.769, 702.435 L 724.483, 702.067 L 722.462, 707.763 L 736.426, 710.519 L 738.264, 704.823 L 736.794, 704.639 L 743.225, 685.714 L 777.768, 692.513 L 773.174, 705.926 L 767.111, 704.639 L 764.538, 705.926 L 760.864, 716.766 L 768.948, 718.236 L 764.906, 729.995 L 684.979, 714.378 z "/>
<path style="fill:rgb(0, 0, 255);fill-opacity:0;fill-rule:evenodd;stroke:rgb(108, 0, 255);stroke-width:1;" d="M 737.896, 571.98 L 750.39, 541.295 L 752.412, 541.663 L 753.698, 537.988 L 747.634, 536.886 L 752.228, 523.656 L 817.088, 536.334 L 815.802, 540.193 L 812.311, 549.747 L 806.063, 548.645 L 804.961, 551.768 L 807.166, 552.32 L 796.141, 583.739 L 779.789, 580.432 L 783.463, 569.591 L 781.81, 567.938 L 769.867, 565.549 L 768.213, 570.142 L 773.725, 571.061 L 771.153, 578.594 L 737.896, 571.98 z M 768.213, 550.115 L 769.499, 553.055 L 768.213, 556.546 L 779.605, 558.751 L 780.707, 555.627 L 782.912, 556.178 L 785.301, 553.606 L 788.608, 543.868 L 771.52, 540.377 L 768.213, 550.115 z "/>
<path style="fill:rgb(255, 255, 0);fill-opacity:0;fill-rule:evenodd;stroke:rgb(108, 0, 255);stroke-width:1;" d="M 557.281, 325.769 L 578.227, 277.814 L 597.152, 281.672 L 596.05, 284.796 L 632.797, 291.961 L 623.978, 312.173 L 625.264, 314.01 L 614.975, 337.529 L 557.281, 325.769 z M 586.679, 313.091 L 602.848, 316.582 L 607.258, 304.088 L 591.089, 300.597 L 586.679, 313.091 z "/>
<path style="fill:rgb(255, 0, 0);fill-opacity:0;fill-rule:evenodd;stroke:rgb(108, 0, 255);stroke-width:1;" d="M 668.075, 763.803 L 673.036, 749.104 L 681.121, 750.574 L 685.347, 737.896 L 677.079, 736.426 L 680.386, 726.872 L 760.68, 742.673 L 757.373, 752.228 L 749.104, 750.574 L 744.695, 763.436 L 752.963, 764.906 L 748.002, 779.421 L 713.275, 772.623 L 716.766, 762.885 L 720.073, 763.62 L 722.278, 757.005 L 723.197, 757.189 L 724.483, 753.147 L 705.558, 749.288 L 704.088, 753.514 L 705.007, 753.698 L 702.802, 760.312 L 705.742, 760.864 L 702.435, 770.418 L 668.075, 763.803 z "/>
<path style="fill:rgb(0, 255, 0);fill-opacity:0;fill-rule:evenodd;stroke:rgb(108, 0, 255);stroke-width:1;" d="M 703.537, 645.843 L 708.498, 632.246 L 715.296, 633.716 L 716.582, 630.041 L 715.664, 629.858 L 726.872, 599.173 L 757.74, 605.604 L 755.351, 612.402 L 749.288, 611.116 L 747.267, 616.445 L 761.047, 619.201 L 763.436, 618.65 L 767.662, 607.074 L 782.545, 610.198 L 771.52, 640.882 L 769.867, 640.514 L 768.581, 644.373 L 774.828, 645.659 L 770.051, 659.072 L 703.537, 645.843 z M 733.119, 638.677 L 750.023, 642.168 L 753.881, 631.511 L 752.044, 628.755 L 750.942, 628.571 L 751.86, 626.183 L 740.101, 623.794 L 738.999, 626.183 L 736.794, 628.02 L 733.119, 638.677 z "/>
<path style="fill:rgb(0, 0, 255);fill-opacity:0;fill-rule:evenodd;stroke:rgb(108, 0, 255);stroke-width:1;" d="M 578.227, 277.814 L 587.23, 257.051 L 625.815, 264.584 L 628.02, 258.153 L 589.802, 250.988 L 598.989, 229.858 L 656.684, 241.249 L 647.129, 263.666 L 644.189, 264.584 L 635.37, 285.714 L 599.541, 278.548 L 598.438, 281.856 L 597.152, 281.672 L 578.227, 277.814 z "/>
<path style="fill:rgb(255, 255, 0);fill-opacity:0;fill-rule:evenodd;stroke:rgb(108, 0, 255);stroke-width:1;" d="M 611.116, 201.011 L 618.65, 182.085 L 650.436, 188.333 L 653.009, 187.414 L 658.337, 188.7 L 659.807, 184.658 L 654.662, 183.923 L 653.009, 182.085 L 621.038, 175.838 L 630.409, 152.687 L 648.966, 156.362 L 646.762, 162.609 L 651.355, 163.528 L 652.274, 160.22 L 686.633, 167.019 L 678.916, 185.76 L 669.178, 183.923 L 667.524, 189.068 L 669.362, 190.721 L 677.997, 192.375 L 669.913, 212.586 L 611.116, 201.011 z "/>
<path style="fill:rgb(255, 0, 0);fill-opacity:0;fill-rule:evenodd;stroke:rgb(108, 0, 255);stroke-width:1;" d="M 406.615, 244.189 L 423.519, 195.498 L 480.845, 207.074 L 472.393, 231.144 L 470.556, 230.776 L 463.206, 252.09 L 427.561, 244.924 L 426.458, 248.232 L 423.886, 247.68 L 406.615, 244.189 z M 426.826, 220.487 L 433.257, 221.773 L 431.603, 226.55 L 452.733, 230.776 L 454.019, 226.918 L 448.691, 225.999 L 451.814, 217.18 L 441.341, 215.158 L 436.013, 214.056 L 434.543, 218.466 L 427.928, 217.18 L 426.826, 220.487 z "/>
<path style="fill:rgb(0, 255, 0);fill-opacity:0;fill-rule:evenodd;stroke:rgb(108, 0, 255);stroke-width:1;" d="M 389.711, 293.064 L 396.141, 274.139 L 420.763, 279.1 L 422.049, 277.814 L 423.151, 277.997 L 424.621, 274.139 L 423.519, 273.955 L 422.967, 272.669 L 406.798, 269.362 L 398.346, 267.892 L 406.615, 244.189 L 423.886, 247.68 L 421.681, 253.927 L 438.401, 257.235 L 440.606, 250.988 L 462.104, 255.214 L 458.062, 266.973 L 442.995, 264.033 L 440.79, 270.831 L 455.673, 273.771 L 451.998, 284.244 L 443.362, 282.407 L 442.995, 283.326 L 439.32, 282.591 L 437.299, 288.47 L 451.998, 291.41 L 447.405, 304.639 L 389.711, 293.064 z "/>
<path style="fill:rgb(0, 0, 255);fill-opacity:0;fill-rule:evenodd;stroke:rgb(108, 0, 255);stroke-width:1;" d="M 325.034, 486.174 L 331.465, 467.249 L 355.719, 472.209 L 358.107, 465.595 L 333.854, 460.634 L 340.101, 442.26 L 405.328, 455.305 L 399.081, 470.188 L 370.602, 464.86 L 369.316, 468.902 L 371.704, 469.453 L 370.785, 472.209 L 395.039, 476.803 L 388.057, 494.809 L 343.041, 486.174 L 341.938, 489.481 L 325.034, 486.174 z "/>
<path style="fill:rgb(255, 255, 0);fill-opacity:0;fill-rule:evenodd;stroke:rgb(108, 0, 255);stroke-width:1;" d="M 754.984, 780.707 L 762.701, 757.924 L 764.906, 756.821 L 771.337, 737.896 L 791.915, 741.938 L 789.711, 748.553 L 794.672, 749.472 L 793.018, 754.065 L 804.41, 756.27 L 808.268, 745.062 L 828.48, 749.104 L 813.597, 792.283 L 790.629, 787.689 L 795.958, 771.888 L 785.668, 769.867 L 780.34, 785.852 L 754.984, 780.707 z "/>
<path style="fill:rgb(255, 0, 0);fill-opacity:0;fill-rule:evenodd;stroke:rgb(108, 0, 255);stroke-width:1;" d="M 297.29, 566.284 L 303.721, 547.726 L 328.525, 552.687 L 330.73, 546.256 L 305.926, 541.295 L 312.356, 522.738 L 329.812, 526.229 L 328.893, 529.169 L 370.234, 537.437 L 364.355, 554.525 L 343.592, 550.299 L 341.387, 557.097 L 361.966, 561.139 L 356.27, 578.043 L 297.29, 566.284 z "/>
<path style="fill:rgb(0, 255, 0);fill-opacity:0;fill-rule:evenodd;stroke:rgb(108, 0, 255);stroke-width:1;" d="M 707.028, 165.181 L 722.646, 126.229 L 743.96, 131.19 L 740.285, 140.56 L 738.264, 140.009 L 736.61, 144.419 L 742.673, 145.889 L 742.857, 145.338 L 748.737, 146.808 L 749.472, 144.603 L 758.291, 146.624 L 762.885, 135.232 L 771.888, 137.437 L 783.831, 140.193 L 767.846, 179.697 L 747.451, 174.92 L 752.044, 163.528 L 739.182, 160.588 L 738.08, 163.528 L 732.568, 162.242 L 731.282, 159.853 L 728.893, 159.302 L 724.851, 169.407 L 707.028, 165.181 z "/>
<path style="fill:rgb(0, 0, 255);fill-opacity:0;fill-rule:evenodd;stroke:rgb(108, 0, 255);stroke-width:1;" d="M 257.051, 628.939 L 265.687, 605.604 L 260.358, 604.502 L 264.952, 592.191 L 290.492, 597.52 L 287, 607.441 L 298.209, 609.646 L 302.251, 598.806 L 327.791, 604.318 L 323.197, 616.628 L 319.89, 616.077 L 311.254, 639.78 L 289.022, 635.186 L 291.41, 628.204 L 289.94, 625.999 L 284.061, 624.897 L 282.223, 626.367 L 279.467, 633.716 L 257.051, 628.939 z "/>
<path style="fill:rgb(255, 255, 0);fill-opacity:0;fill-rule:evenodd;stroke:rgb(108, 0, 255);stroke-width:1;" d="M 236.105, 679.283 L 240.331, 666.973 L 244.006, 667.708 L 252.274, 643.454 L 274.322, 647.864 L 271.934, 654.846 L 273.588, 658.521 L 278.732, 659.623 L 282.223, 657.235 L 284.796, 649.885 L 306.477, 654.111 L 298.025, 678.365 L 302.435, 679.283 L 298.209, 691.594 L 272.485, 686.633 L 276.344, 675.425 L 265.87, 673.404 L 264.952, 676.16 L 264.584, 676.16 L 261.644, 684.428 L 236.105, 679.283 z "/>
<path style="fill:rgb(255, 0, 0);fill-opacity:0;fill-rule:evenodd;stroke:rgb(108, 0, 255);stroke-width:1;" d="M 630.409, 152.687 L 644.924, 116.491 L 668.627, 121.635 L 664.217, 134.681 L 667.157, 135.416 L 665.687, 139.458 L 673.955, 140.928 L 675.425, 136.886 L 680.386, 137.988 L 684.979, 124.391 L 702.435, 127.699 L 687.735, 163.528 L 669.729, 160.037 L 672.485, 152.136 L 653.744, 148.461 L 650.988, 156.729 L 648.966, 156.362 L 630.409, 152.687 z "/>
<path style="fill:rgb(0, 255, 0);fill-opacity:0;fill-rule:evenodd;stroke:rgb(108, 0, 255);stroke-width:1;" d="M 312.356, 522.738 L 325.034, 486.174 L 341.938, 489.481 L 341.02, 492.421 L 382.912, 500.689 L 372.439, 531.19 L 331.098, 522.921 L 329.812, 526.229 L 312.356, 522.738 z M 338.08, 514.653 L 351.309, 517.409 L 356.454, 518.328 L 356.638, 517.409 L 358.291, 517.593 L 361.231, 508.774 L 359.394, 505.834 L 342.306, 502.343 L 338.08, 514.653 z "/>
<path style="fill:rgb(0, 0, 255);fill-opacity:0;fill-rule:evenodd;stroke:rgb(108, 0, 255);stroke-width:1;" d="M 433.441, 165.916 L 448.323, 122.186 L 479.927, 128.434 L 479.375, 129.904 L 483.785, 130.822 L 485.439, 132.292 L 485.255, 133.027 L 480.845, 146.073 L 465.779, 143.133 L 463.941, 148.829 L 466.514, 149.38 L 464.125, 156.178 L 476.619, 158.751 L 476.252, 159.853 L 471.658, 173.45 L 433.441, 165.916 z "/>
<path style="fill:rgb(255, 255, 0);fill-opacity:0;fill-rule:evenodd;stroke:rgb(108, 0, 255);stroke-width:1;" d="M 510.611, 180.983 L 518.512, 157.832 L 528.434, 159.669 L 526.964, 164.079 L 532.66, 165.181 L 535.048, 158.016 L 550.299, 160.955 L 547.726, 168.305 L 549.931, 170.142 L 552.503, 170.694 L 553.422, 168.121 L 563.712, 170.142 L 565.916, 163.895 L 583.372, 167.203 L 572.898, 193.11 L 510.611, 180.983 z "/>
<path style="fill:rgb(255, 0, 0);fill-opacity:0;fill-rule:evenodd;stroke:rgb(108, 0, 255);stroke-width:1;" d="M 485.439, 233.716 L 494.258, 209.095 L 559.669, 222.508 L 549.747, 245.475 L 548.645, 245.292 L 548.277, 246.21 L 531.741, 242.903 L 533.946, 237.023 L 506.385, 231.328 L 504.18, 237.575 L 487.092, 234.084 L 485.439, 233.716 z "/>
<path style="fill:rgb(0, 255, 0);fill-opacity:0;fill-rule:evenodd;stroke:rgb(108, 0, 255);stroke-width:1;" d="M 124.943, 784.566 L 125.126, 779.605 L 125.678, 774.828 L 126.964, 770.051 L 128.617, 765.457 L 129.72, 763.068 L 132.292, 758.659 L 135.232, 754.249 L 138.539, 753.514 L 140.009, 753.147 L 142.949, 751.677 L 144.235, 750.942 L 163.528, 753.698 L 160.22, 767.111 L 165.733, 767.846 L 163.712, 775.746 L 161.69, 783.831 L 153.422, 782.545 L 149.196, 800 L 130.087, 797.244 L 130.822, 794.855 L 126.412, 794.304 L 125.494, 789.343 L 124.943, 784.566 z "/>
<path style="fill:rgb(0, 0, 255);fill-opacity:0;fill-rule:evenodd;stroke:rgb(108, 0, 255);stroke-width:1;" d="M 454.938, 302.618 L 462.471, 281.488 L 469.821, 282.958 L 487.276, 286.449 L 487.276, 286.082 L 510.611, 290.859 L 520.9, 292.88 L 513.183, 314.561 L 454.938, 302.618 z "/>
<path style="fill:rgb(255, 255, 0);fill-opacity:0;fill-rule:evenodd;stroke:rgb(108, 0, 255);stroke-width:1;" d="M 843.362, 323.013 L 847.405, 311.07 L 853.836, 312.356 L 856.592, 312.173 L 862.288, 294.901 L 860.083, 293.983 L 853.652, 292.696 L 857.51, 281.121 L 894.809, 288.287 L 890.951, 300.046 L 883.785, 298.76 L 881.58, 299.311 L 876.068, 316.031 L 877.17, 316.95 L 884.704, 318.236 L 880.661, 330.363 L 843.362, 323.013 z "/>
<path style="fill:rgb(255, 0, 0);fill-opacity:0;fill-rule:evenodd;stroke:rgb(108, 0, 255);stroke-width:1;" d="M 448.14, 116.674 L 455.489, 95.3606 L 474.966, 99.2191 L 474.598, 100.505 L 481.396, 101.975 L 482.866, 97.7492 L 497.933, 100.689 L 496.831, 103.813 L 519.614, 108.406 L 513.367, 126.229 L 500.505, 123.656 L 501.608, 120.717 L 496.279, 119.614 L 494.258, 125.861 L 481.58, 123.289 L 483.969, 116.491 L 467.983, 113.367 L 465.595, 120.165 L 448.14, 116.674 z "/>
<path style="fill:rgb(0, 255, 0);fill-opacity:0;fill-rule:evenodd;stroke:rgb(108, 0, 255);stroke-width:1;" d="M 457.694, 89.2972 L 465.044, 68.1672 L 482.499, 71.6582 L 480.11, 78.4566 L 495.728, 81.5802 L 498.117, 74.5981 L 510.795, 77.1704 L 508.774, 83.0501 L 513.918, 83.9688 L 515.021, 81.0289 L 528.25, 83.785 L 522.003, 101.791 L 499.219, 97.198 L 497.933, 100.689 L 482.866, 97.7492 L 484.52, 92.7882 L 477.722, 91.5021 L 477.17, 93.1557 L 457.694, 89.2972 z "/>
<path style="fill:rgb(0, 0, 255);fill-opacity:0;fill-rule:evenodd;stroke:rgb(108, 0, 255);stroke-width:1;" d="M 478.457, 258.521 L 487.092, 234.084 L 504.18, 237.575 L 502.159, 243.087 L 528.434, 248.415 L 530.455, 242.719 L 531.741, 242.903 L 548.277, 246.21 L 537.804, 270.096 L 521.268, 266.789 L 523.289, 260.726 L 497.749, 255.581 L 495.544, 262.012 L 478.457, 258.521 z "/>
<path style="fill:rgb(255, 255, 0);fill-opacity:0;fill-rule:evenodd;stroke:rgb(108, 0, 255);stroke-width:1;" d="M 541.663, 108.774 L 548.645, 87.8273 L 589.251, 95.7281 L 590.354, 97.198 L 589.802, 98.3004 L 592.007, 98.6679 L 594.212, 97.7492 L 595.498, 93.7069 L 611.667, 97.0142 L 602.113, 120.717 L 587.046, 117.96 L 586.495, 117.777 L 587.046, 116.491 L 588.516, 116.858 L 589.619, 113.183 L 587.598, 111.346 L 563.344, 106.752 L 560.22, 107.671 L 558.751, 111.897 L 547.175, 109.692 L 541.663, 108.774 z "/>
<path style="fill:rgb(255, 0, 0);fill-opacity:0;fill-rule:evenodd;stroke:rgb(108, 0, 255);stroke-width:1;" d="M 534.497, 130.271 L 541.663, 108.774 L 547.175, 109.692 L 558.751, 111.897 L 557.097, 117.042 L 558.751, 118.879 L 583.004, 123.656 L 585.393, 122.738 L 587.046, 117.96 L 602.113, 120.717 L 592.191, 145.154 L 577.492, 142.398 L 579.146, 137.621 L 577.859, 136.518 L 575.103, 135.967 L 574.368, 137.988 L 534.497, 130.271 z "/>
<path style="fill:rgb(0, 255, 0);fill-opacity:0;fill-rule:evenodd;stroke:rgb(108, 0, 255);stroke-width:1;" d="M 469.821, 282.958 L 478.457, 258.521 L 495.544, 262.012 L 493.523, 267.524 L 519.063, 272.853 L 521.268, 266.789 L 537.804, 270.096 L 527.331, 294.166 L 520.9, 292.88 L 510.611, 290.859 L 512.816, 284.796 L 489.481, 280.018 L 487.276, 286.082 L 487.276, 286.449 L 469.821, 282.958 z "/>
<path style="fill:rgb(0, 0, 255);fill-opacity:0;fill-rule:evenodd;stroke:rgb(108, 0, 255);stroke-width:1;" d="M 639.228, 633.165 L 647.864, 610.749 L 665.319, 614.424 L 662.931, 621.038 L 680.018, 624.713 L 686.082, 625.999 L 688.103, 620.671 L 704.639, 624.162 L 696.922, 644.557 L 639.228, 633.165 z "/>
<path style="fill:rgb(255, 255, 0);fill-opacity:0;fill-rule:evenodd;stroke:rgb(108, 0, 255);stroke-width:1;" d="M 522.186, 151.768 L 527.515, 135.783 L 567.754, 143.5 L 567.203, 145.338 L 570.694, 145.889 L 573.266, 144.786 L 574.185, 141.847 L 577.492, 142.398 L 592.191, 145.154 L 583.372, 167.203 L 565.916, 163.895 L 567.019, 160.22 L 564.814, 158.199 L 561.874, 157.648 L 561.323, 159.302 L 522.186, 151.768 z "/>
<path style="fill:rgb(255, 0, 0);fill-opacity:0;fill-rule:evenodd;stroke:rgb(108, 0, 255);stroke-width:1;" d="M 351.677, 107.671 L 358.107, 89.2972 L 386.771, 95.1768 L 397.244, 97.3817 L 398.346, 93.8907 L 415.618, 97.3817 L 408.268, 118.512 L 391.364, 115.021 L 392.467, 112.081 L 382.177, 110.06 L 379.972, 116.491 L 366.008, 113.734 L 366.927, 110.795 L 351.677, 107.671 z "/>
<path style="fill:rgb(0, 255, 0);fill-opacity:0;fill-rule:evenodd;stroke:rgb(108, 0, 255);stroke-width:1;" d="M 657.602, 585.576 L 667.34, 560.404 L 687.184, 564.814 L 709.6, 569.591 L 700.046, 594.763 L 680.018, 590.354 L 657.602, 585.576 z "/>
<path style="fill:rgb(0, 0, 255);fill-opacity:0;fill-rule:evenodd;stroke:rgb(108, 0, 255);stroke-width:1;" d="M 471.658, 173.45 L 476.252, 159.853 L 481.029, 160.772 L 484.52, 160.404 L 488.746, 147.726 L 480.845, 146.073 L 485.255, 133.027 L 517.409, 139.274 L 513.183, 151.585 L 505.466, 149.931 L 500.873, 163.712 L 502.71, 164.998 L 508.406, 166.1 L 503.813, 179.697 L 471.658, 173.45 z "/>
<path style="fill:rgb(255, 255, 0);fill-opacity:0;fill-rule:evenodd;stroke:rgb(108, 0, 255);stroke-width:1;" d="M 648.599, 609.279 L 657.602, 585.576 L 680.018, 590.354 L 678.181, 595.131 L 679.835, 595.498 L 682.591, 595.131 L 710.152, 601.011 L 702.251, 621.589 L 687, 618.282 L 689.205, 612.586 L 687.552, 611.3 L 686.633, 609.463 L 677.262, 607.441 L 676.895, 608.544 L 674.874, 608.911 L 672.669, 608.36 L 670.648, 614.056 L 648.599, 609.279 z "/>
<path style="fill:rgb(255, 0, 0);fill-opacity:0;fill-rule:evenodd;stroke:rgb(108, 0, 255);stroke-width:1;" d="M 494.258, 511.713 L 506.936, 474.782 L 539.09, 481.029 L 534.864, 493.523 L 527.882, 492.053 L 526.412, 492.237 L 523.473, 491.87 L 522.37, 494.626 L 523.473, 494.993 L 522.921, 496.463 L 522.186, 496.279 L 519.614, 503.629 L 530.638, 505.834 L 526.412, 517.96 L 494.258, 511.713 z "/>
<path style="fill:rgb(0, 255, 0);fill-opacity:0;fill-rule:evenodd;stroke:rgb(108, 0, 255);stroke-width:1;" d="M 532.108, 518.144 L 539.825, 495.728 L 534.313, 494.626 L 534.864, 493.523 L 539.09, 481.029 L 571.061, 487.46 L 566.284, 501.24 L 560.22, 499.954 L 558.934, 503.813 L 560.22, 504.18 L 559.669, 505.65 L 558.383, 505.282 L 552.687, 522.186 L 532.108, 518.144 z "/>
<path style="fill:rgb(0, 0, 255);fill-opacity:0;fill-rule:evenodd;stroke:rgb(108, 0, 255);stroke-width:1;" d="M 485.439, 537.437 L 492.605, 516.307 L 512.265, 520.349 L 511.162, 523.656 L 545.338, 530.455 L 540.744, 543.5 L 506.752, 536.886 L 505.099, 541.295 L 485.439, 537.437 z "/>
<path style="fill:rgb(255, 255, 0);fill-opacity:0;fill-rule:evenodd;stroke:rgb(108, 0, 255);stroke-width:1;" d="M 39.8714, 86.1736 L 43.5462, 81.3964 L 41.525, 80.4777 L 53.4681, 64.8599 L 69.0859, 71.842 L 74.9655, 64.3087 L 59.3477, 57.3266 L 66.6973, 47.7722 L 73.8631, 51.0795 L 80.1102, 42.9949 L 72.9444, 39.8714 L 80.294, 30.3169 L 95.9118, 37.299 L 101.791, 29.582 L 86.1736, 22.5999 L 98.1167, 7.16582 L 99.5866, 7.90078 L 103.445, 2.93983 L 122.003, 13.0455 L 116.123, 20.7625 L 124.391, 24.4373 L 125.494, 22.7836 L 139.458, 29.0308 L 123.84, 49.0583 L 107.12, 41.7088 L 104.548, 45.1998 L 108.59, 46.8535 L 108.957, 48.3234 L 106.936, 51.0795 L 148.094, 68.7184 L 148.829, 67.7997 L 146.808, 67.0648 L 154.525, 56.4079 L 172.715, 64.1249 L 174.736, 61.3689 L 181.718, 64.3087 L 186.311, 58.2453 L 167.203, 50.712 L 168.489, 48.6909 L 171.98, 49.977 L 186.128, 30.5007 L 194.396, 33.9917 L 198.989, 27.5609 L 192.007, 24.8048 L 195.682, 19.6601 L 197.703, 20.395 L 212.402, 0 L 216.261, 1.65365 L 230.409, 12.4943 L 241.433, 20.7625 L 228.02, 39.3202 L 214.607, 33.808 L 213.321, 35.4616 L 209.279, 33.9917 L 206.89, 37.299 L 210.749, 38.9527 L 209.463, 40.9738 L 222.692, 46.486 L 211.484, 62.1038 L 208.36, 60.8176 L 204.685, 66.1461 L 207.625, 67.4322 L 192.926, 88.011 L 179.513, 82.4989 L 178.411, 84.1525 L 173.817, 82.3151 L 171.429, 85.6224 L 175.838, 87.4598 L 174.368, 89.4809 L 187.781, 94.9931 L 173.633, 114.653 L 152.32, 110.427 L 158.016, 102.71 L 146.808, 97.9329 L 142.765, 103.629 L 125.494, 100.505 L 122.37, 99.4028 L 134.681, 82.4989 L 137.437, 83.6013 L 143.316, 75.333 L 117.593, 64.1249 L 114.653, 68.1672 L 98.4842, 61.1851 L 96.0955, 64.3087 L 94.2582, 64.3087 L 90.9508, 62.8388 L 88.5622, 65.7786 L 105.099, 73.4956 L 90.0322, 92.972 L 83.785, 92.237 L 66.881, 84.8875 L 61.1851, 92.4208 L 48.8746, 90.2159 L 39.8714, 86.1736 z "/>
<path style="fill:rgb(255, 0, 0);fill-opacity:0;fill-rule:evenodd;stroke:rgb(108, 0, 255);stroke-width:1;" d="M 265.136, 62.1038 L 280.018, 41.525 L 297.474, 45.0161 L 296.739, 47.2209 L 314.01, 50.712 L 318.787, 37.1153 L 301.516, 33.6243 L 300.781, 35.8291 L 286.266, 32.8893 L 300.413, 13.413 L 322.646, 19.1089 L 345.613, 22.7836 L 370.234, 24.2536 L 364.722, 40.6063 L 363.436, 43.7299 L 345.613, 40.2389 L 339.182, 58.429 L 357.556, 62.1038 L 357.373, 63.0225 L 352.228, 77.7216 L 296.371, 66.5136 L 295.82, 68.1672 L 265.136, 62.1038 z "/>
<path style="fill:rgb(0, 255, 0);fill-opacity:0;fill-rule:evenodd;stroke:rgb(108, 0, 255);stroke-width:1;" d="M 467.8, 63.2062 L 483.05, 20.7625 L 487.644, 20.5788 L 495.361, 20.7625 L 512.632, 21.4975 L 521.635, 22.0487 L 543.5, 24.0698 L 554.892, 25.5397 L 558.383, 26.2747 L 552.503, 42.4437 L 547.175, 41.3413 L 546.808, 42.26 L 546.44, 42.26 L 544.786, 46.486 L 547.359, 47.0372 L 537.069, 75.8842 L 497.198, 67.616 L 496.647, 69.2696 L 467.8, 63.2062 z M 499.035, 53.1006 L 515.939, 55.6729 L 521.819, 37.299 L 501.24, 36.0129 L 500.138, 39.8714 L 502.894, 40.2389 L 499.035, 53.1006 z "/>
</svg>