<?xml version="1.0" encoding="iso-8859-1" standalone="no"?>
<!DOCTYPE svg PUBLIC "-//W3C//DTD SVG 1.0//EN" "http://www.w3.org/TR/2001/REC-SVG-20010904/DTD/svg10.dtd">
<svg xmlns="http://www.w3.org/2000/svg" width="1736" height="800">
<path style="fill:rgb(255, 0, 0);fill-opacity:0;fill-rule:evenodd;stroke:rgb(255, 0, 144);stroke-width:1;" d="M 1128.47, 559.271 L 1213.98, 524.417 L 1217.63, 514.286 L 1171.63, 448.835 L 1202.03, 436.474 L 1265.65, 527.254 L 1275.58, 531.915 L 1303.95, 497.264 L 1297.26, 494.225 L 1298.68, 492.401 L 1294.22, 490.375 L 1351.57, 420.061 L 1324.82, 407.497 L 1326.24, 405.876 L 1316.31, 401.013 L 1314.89, 402.837 L 1269.3, 381.358 L 1319.96, 319.352 L 1344.28, 330.902 L 1343.06, 332.523 L 1400.41, 359.676 L 1459.17, 287.741 L 1463.42, 289.767 L 1464.84, 287.943 L 1472.54, 291.591 L 1527.46, 224.519 L 1502.53, 209.524 L 1442.76, 219.858 L 1412.36, 257.143 L 1396.35, 249.645 L 1417.02, 224.316 L 1412.16, 222.087 L 1409.32, 213.374 L 1412.16, 210.132 L 1379.13, 194.529 L 1389.06, 182.371 L 1430.19, 201.824 L 1435.66, 194.934 L 1452.68, 203.04 L 1487.74, 196.96 L 1486.32, 191.895 L 1498.48, 177.102 L 1504.96, 175.887 L 1496.86, 148.936 L 1479.43, 140.628 L 1484.5, 134.549 L 1443.77, 115.096 L 1453.9, 102.938 L 1487.34, 118.744 L 1489.77, 115.907 L 1500.51, 113.475 L 1505.17, 115.704 L 1526.44, 89.767 L 1542.65, 97.4671 L 1534.14, 107.801 L 1511.85, 134.954 L 1525.43, 180.142 L 1612.97, 221.479 L 1672.34, 211.348 L 1687.13, 193.516 L 1703.34, 201.216 L 1698.68, 206.89 L 1702.33, 208.713 L 1705.57, 216.819 L 1702.94, 220.061 L 1736.58, 235.866 L 1726.65, 248.024 L 1686.12, 228.774 L 1680.85, 235.461 L 1664.44, 227.558 L 1628.17, 233.637 L 1629.99, 239.514 L 1618.44, 253.698 L 1611.14, 255.117 L 1619.86, 282.067 L 1636.27, 289.767 L 1631, 296.251 L 1672.54, 315.907 L 1662.61, 327.862 L 1628.57, 311.854 L 1625.73, 315.299 L 1628.77, 324.012 L 1639.31, 328.875 L 1642.15, 337.994 L 1635.87, 346.099 L 1623.71, 348.328 L 1613.17, 343.465 L 1610.33, 334.347 L 1617.43, 325.836 L 1614.99, 317.933 L 1609.73, 315.299 L 1589.26, 340.628 L 1573.86, 333.333 L 1604.66, 295.441 L 1590.27, 250.456 L 1560.28, 239.919 L 1505.37, 307.194 L 1514.08, 311.246 L 1512.66, 313.07 L 1517.53, 315.299 L 1495.44, 342.452 L 1522.19, 355.015 L 1507.8, 372.847 L 1492.6, 365.755 L 1481.66, 379.129 L 1494.83, 385.41 L 1485.31, 397.163 L 1501.11, 404.661 L 1499.7, 406.282 L 1563.73, 436.474 L 1515.7, 495.238 L 1451.87, 465.046 L 1450.46, 466.667 L 1410.13, 447.619 L 1390.07, 472.543 L 1416.62, 485.106 L 1401.82, 503.343 L 1375.08, 490.78 L 1352.79, 518.136 L 1347.52, 515.704 L 1346.1, 517.325 L 1340.02, 514.286 L 1312.87, 547.518 L 1314.08, 548.126 L 1313.48, 548.936 L 1322.39, 553.191 L 1456.33, 556.636 L 1455.12, 582.776 L 1358.87, 580.344 L 1348.73, 587.639 L 1345.49, 661.601 L 1310.44, 660.588 L 1314.29, 570.618 L 1300.51, 564.134 L 1293.82, 572.239 L 1288.15, 569.402 L 1286.52, 571.429 L 1277.61, 567.376 L 1269.5, 577.305 L 1281.66, 582.979 L 1257.35, 612.969 L 1275.79, 621.682 L 1257.75, 643.769 L 1187.84, 610.942 L 1207.7, 586.626 L 1225.13, 594.934 L 1247.82, 566.971 L 1260.99, 573.252 L 1269.3, 563.323 L 1260.79, 559.271 L 1262.41, 557.244 L 1256.33, 554.407 L 1262.82, 546.302 L 1249.24, 539.818 L 1144.68, 582.371 L 1128.47, 559.271 z "/>
<path style="fill:rgb(0, 255, 0);fill-opacity:0;fill-rule:evenodd;stroke:rgb(255, 0, 144);stroke-width:1;" d="M 916.515, 567.984 L 941.439, 540.02 L 1075.58, 609.119 L 1069.5, 615.805 L 1075.38, 618.845 L 1075.99, 618.034 L 1114.29, 637.893 L 1137.99, 634.448 L 1158.05, 644.985 L 1162.51, 663.019 L 1161.5, 664.235 L 1168.59, 667.882 L 1156.84, 681.054 L 1149.75, 677.204 L 1148.73, 678.217 L 1124.82, 681.662 L 1098.89, 710.841 L 1097.87, 710.436 L 1094.22, 714.488 L 1102.94, 718.946 L 1034.45, 795.947 L 928.267, 741.236 L 953.191, 713.475 L 1022.29, 748.936 L 1066.06, 699.899 L 1074.97, 704.559 L 1078.62, 700.507 L 1077.2, 699.899 L 1104.36, 669.504 L 1100.51, 654.103 L 1061.6, 634.245 L 1062.41, 633.232 L 1056.74, 630.395 L 1050.66, 637.082 L 916.515, 567.984 z "/>
<path style="fill:rgb(0, 0, 255);fill-opacity:0;fill-rule:evenodd;stroke:rgb(255, 0, 144);stroke-width:1;" d="M 194.124, 109.828 L 204.458, 95.6434 L 227.964, 63.4245 L 229.787, 60.9929 L 261.803, 74.5694 L 249.24, 91.7933 L 257.345, 95.2381 L 261.196, 89.9696 L 265.046, 91.7933 L 273.961, 79.6353 L 304.965, 92.8065 L 294.63, 106.788 L 306.991, 112.057 L 317.325, 98.075 L 333.536, 104.965 L 332.118, 106.991 L 348.126, 113.678 L 349.544, 111.854 L 372.036, 121.378 L 359.068, 139.007 L 355.826, 137.791 L 351.57, 143.465 L 354.813, 144.883 L 341.033, 163.526 L 319.757, 154.61 L 314.894, 161.094 L 194.124, 109.828 z "/>
<path style="fill:rgb(255, 255, 0);fill-opacity:0;fill-rule:evenodd;stroke:rgb(255, 0, 144);stroke-width:1;" d="M 496.859, 70.5167 L 518.136, 40.9321 L 515.907, 39.9189 L 530.496, 19.8582 L 567.173, 35.0557 L 565.552, 37.2847 L 570.415, 39.311 L 569.2, 40.9321 L 584.802, 47.4164 L 586.018, 45.7953 L 590.679, 47.8217 L 592.3, 45.5927 L 616.008, 55.3191 L 614.387, 57.7508 L 651.469, 73.151 L 592.3, 110.233 L 587.437, 108.207 L 496.859, 70.5167 z "/>
<path style="fill:rgb(255, 0, 0);fill-opacity:0;fill-rule:evenodd;stroke:rgb(255, 0, 144);stroke-width:1;" d="M 142.655, 230.598 L 151.368, 218.642 L 148.328, 217.427 L 156.636, 206.079 L 164.742, 209.524 L 165.957, 207.497 L 181.966, 214.387 L 180.75, 216.211 L 198.379, 223.708 L 200.405, 221.074 L 212.766, 226.342 L 215.198, 222.898 L 278.825, 249.645 L 264.64, 269.301 L 261.196, 267.882 L 253.698, 278.217 L 257.143, 279.635 L 242.756, 299.088 L 242.351, 298.886 L 210.132, 285.309 L 216.616, 276.393 L 212.158, 274.569 L 213.576, 272.746 L 206.282, 269.706 L 208.713, 266.464 L 177.508, 253.293 L 178.926, 251.266 L 172.239, 248.43 L 170.821, 250.456 L 143.668, 239.108 L 148.328, 232.827 L 142.655, 230.598 z "/>
<path style="fill:rgb(0, 255, 0);fill-opacity:0;fill-rule:evenodd;stroke:rgb(255, 0, 144);stroke-width:1;" d="M 461.196, 119.959 L 464.032, 116.312 L 461.601, 115.299 L 489.97, 75.7852 L 492.199, 76.7984 L 496.859, 70.5167 L 587.437, 108.207 L 579.129, 120.162 L 538.804, 148.126 L 535.36, 146.707 L 532.725, 150.355 L 511.044, 141.236 L 512.462, 139.21 L 503.546, 135.562 L 502.128, 137.589 L 488.754, 131.915 L 490.172, 130.091 L 480.851, 126.241 L 479.635, 127.862 L 461.196, 119.959 z "/>
<path style="fill:rgb(0, 0, 255);fill-opacity:0;fill-rule:evenodd;stroke:rgb(255, 0, 144);stroke-width:1;" d="M 113.678, 308.207 L 120.365, 298.886 L 121.783, 299.493 L 150.355, 260.385 L 163.728, 266.059 L 157.042, 275.177 L 189.666, 288.956 L 196.555, 279.635 L 210.132, 285.309 L 242.351, 298.886 L 206.89, 347.518 L 113.678, 308.207 z "/>
<path style="fill:rgb(255, 255, 0);fill-opacity:0;fill-rule:evenodd;stroke:rgb(255, 0, 144);stroke-width:1;" d="M 110.03, 139.818 L 112.057, 136.981 L 135.562, 104.965 L 231.206, 145.694 L 205.674, 180.547 L 110.03, 139.818 z "/>
<path style="fill:rgb(255, 0, 0);fill-opacity:0;fill-rule:evenodd;stroke:rgb(255, 0, 144);stroke-width:1;" d="M 211.348, 182.979 L 231.611, 155.42 L 280.648, 176.292 L 285.309, 170.01 L 289.159, 164.539 L 286.525, 163.526 L 288.956, 160.081 L 291.793, 161.297 L 292.199, 160.486 L 331.104, 177.102 L 299.493, 220.263 L 211.348, 182.979 z "/>
<path style="fill:rgb(0, 255, 0);fill-opacity:0;fill-rule:evenodd;stroke:rgb(255, 0, 144);stroke-width:1;" d="M 99.2908, 496.859 L 107.396, 486.12 L 112.057, 488.146 L 137.589, 453.09 L 147.112, 457.143 L 185.41, 473.354 L 187.842, 469.706 L 189.868, 470.517 L 203.04, 476.19 L 160.284, 522.796 L 99.2908, 496.859 z "/>
<path style="fill:rgb(0, 0, 255);fill-opacity:0;fill-rule:evenodd;stroke:rgb(255, 0, 144);stroke-width:1;" d="M 124.823, 61.8034 L 148.531, 29.5846 L 227.964, 63.4245 L 204.458, 95.6434 L 124.823, 61.8034 z "/>
<path style="fill:rgb(255, 255, 0);fill-opacity:0;fill-rule:evenodd;stroke:rgb(255, 0, 144);stroke-width:1;" d="M 270.517, 376.089 L 342.857, 277.001 L 374.063, 290.172 L 369.402, 296.251 L 366.768, 300.101 L 365.35, 299.493 L 359.473, 307.599 L 358.055, 306.991 L 348.734, 319.554 L 346.91, 318.946 L 339.818, 328.673 L 337.589, 327.66 L 327.66, 341.439 L 326.039, 340.628 L 318.744, 350.76 L 317.123, 349.949 L 305.978, 365.35 L 303.141, 364.134 L 288.754, 383.789 L 270.517, 376.089 z "/>
<path style="fill:rgb(255, 0, 0);fill-opacity:0;fill-rule:evenodd;stroke:rgb(255, 0, 144);stroke-width:1;" d="M 146.707, 448.024 L 161.297, 427.964 L 162.513, 428.369 L 164.944, 424.924 L 162.31, 423.911 L 178.723, 401.418 L 245.795, 429.787 L 235.258, 441.135 L 222.898, 435.866 L 217.629, 443.161 L 228.977, 448.024 L 220.466, 457.345 L 210.334, 453.09 L 204.863, 460.588 L 213.779, 464.438 L 203.04, 476.19 L 189.868, 470.517 L 192.908, 466.464 L 187.234, 464.032 L 186.626, 464.843 L 146.707, 448.024 z M 172.239, 441.135 L 173.455, 443.769 L 175.684, 443.364 L 189.058, 448.835 L 190.071, 451.266 L 193.313, 450.253 L 192.3, 448.024 L 204.458, 431.408 L 207.092, 431.003 L 206.282, 428.166 L 203.85, 428.571 L 190.679, 422.898 L 189.666, 420.669 L 185.613, 421.682 L 186.626, 423.911 L 174.468, 440.527 L 172.239, 441.135 z "/>
<path style="fill:rgb(0, 255, 0);fill-opacity:0;fill-rule:evenodd;stroke:rgb(255, 0, 144);stroke-width:1;" d="M 72.7457, 412.158 L 81.6616, 400 L 90.1722, 403.647 L 93.4144, 399.189 L 103.343, 385.613 L 94.8328, 382.168 L 103.951, 369.605 L 171.631, 398.379 L 162.513, 410.74 L 153.597, 406.89 L 140.426, 424.924 L 149.341, 428.774 L 140.426, 440.729 L 72.7457, 412.158 z M 105.775, 409.726 L 107.194, 409.929 L 107.801, 411.145 L 107.396, 412.563 L 109.828, 411.348 L 121.378, 416.008 L 122.594, 418.034 L 124.417, 417.629 L 126.646, 418.642 L 125.431, 416.211 L 136.17, 401.418 L 138.399, 400.405 L 136.575, 398.987 L 137.183, 397.974 L 133.941, 398.582 L 122.999, 393.921 L 121.783, 392.097 L 119.959, 392.908 L 118.541, 392.3 L 118.946, 394.326 L 108.207, 408.713 L 105.775, 409.726 z "/>
<path style="fill:rgb(0, 0, 255);fill-opacity:0;fill-rule:evenodd;stroke:rgb(255, 0, 144);stroke-width:1;" d="M 315.502, 58.5613 L 324.215, 46.4032 L 328.267, 41.1348 L 335.765, 31.003 L 342.047, 22.2898 L 358.055, 29.1793 L 349.544, 40.7295 L 369.402, 49.0375 L 388.045, 56.9402 L 387.031, 58.3587 L 394.934, 61.6008 L 395.947, 60.385 L 411.55, 67.0719 L 393.516, 91.5907 L 315.502, 58.5613 z "/>
<path style="fill:rgb(255, 255, 0);fill-opacity:0;fill-rule:evenodd;stroke:rgb(255, 0, 144);stroke-width:1;" d="M 404.458, 192.908 L 422.29, 168.186 L 425.127, 169.402 L 429.585, 163.121 L 426.95, 161.905 L 436.677, 148.531 L 486.12, 169.402 L 447.822, 211.145 L 404.458, 192.908 z "/>
<path style="fill:rgb(255, 0, 0);fill-opacity:0;fill-rule:evenodd;stroke:rgb(255, 0, 144);stroke-width:1;" d="M 364.539, 247.416 L 396.96, 203.04 L 439.108, 220.871 L 401.013, 262.614 L 400.811, 262.614 L 364.539, 247.416 z "/>
<path style="fill:rgb(0, 255, 0);fill-opacity:0;fill-rule:evenodd;stroke:rgb(255, 0, 144);stroke-width:1;" d="M 809.321, 788.652 L 817.832, 779.129 L 823.506, 772.644 L 811.955, 766.768 L 817.427, 760.689 L 816.008, 759.878 L 829.787, 744.478 L 838.298, 748.734 L 839.311, 747.72 L 850.253, 753.191 L 846.809, 757.244 L 858.156, 763.121 L 851.064, 770.821 L 855.319, 773.05 L 831.206, 800 L 809.321, 788.652 z "/>
<path style="fill:rgb(0, 0, 255);fill-opacity:0;fill-rule:evenodd;stroke:rgb(255, 0, 144);stroke-width:1;" d="M 96.2513, 215.805 L 120.365, 182.776 L 152.178, 196.15 L 128.267, 229.179 L 96.2513, 215.805 z "/>
<path style="fill:rgb(255, 255, 0);fill-opacity:0;fill-rule:evenodd;stroke:rgb(255, 0, 144);stroke-width:1;" d="M 369.402, 49.0375 L 387.639, 24.1135 L 406.282, 32.2188 L 406.687, 34.4478 L 411.55, 36.6768 L 414.184, 35.461 L 429.787, 42.1479 L 411.55, 67.0719 L 395.947, 60.385 L 395.542, 58.3587 L 390.679, 56.3323 L 388.045, 56.9402 L 369.402, 49.0375 z "/>
<path style="fill:rgb(255, 0, 0);fill-opacity:0;fill-rule:evenodd;stroke:rgb(255, 0, 144);stroke-width:1;" d="M 105.167, 62.0061 L 112.462, 52.077 L 113.88, 52.6849 L 119.554, 44.9848 L 116.92, 43.769 L 121.581, 37.4873 L 124.417, 37.2847 L 127.66, 32.8267 L 126.444, 30.8004 L 134.144, 20.2634 L 150.355, 27.153 L 148.531, 29.5846 L 124.823, 61.8034 L 120.162, 68.4904 L 105.167, 62.0061 z "/>
<path style="fill:rgb(0, 255, 0);fill-opacity:0;fill-rule:evenodd;stroke:rgb(255, 0, 144);stroke-width:1;" d="M 0, 89.3617 L 23.5056, 57.3455 L 135.562, 104.965 L 112.057, 136.981 L 0, 89.3617 z "/>
<path style="fill:rgb(0, 0, 255);fill-opacity:0;fill-rule:evenodd;stroke:rgb(255, 0, 144);stroke-width:1;" d="M 23.3029, 264.843 L 44.7822, 235.258 L 76.5957, 248.632 L 78.2168, 252.077 L 73.5562, 258.561 L 91.7933, 266.261 L 96.4539, 259.777 L 100.304, 258.561 L 132.523, 272.138 L 110.841, 301.925 L 77.4063, 287.741 L 75.9878, 285.309 L 72.5431, 285.714 L 61.1955, 280.851 L 60.1824, 278.825 L 56.535, 279.027 L 23.3029, 264.843 z "/>
<path style="fill:rgb(255, 255, 0);fill-opacity:0;fill-rule:evenodd;stroke:rgb(255, 0, 144);stroke-width:1;" d="M 31.6109, 468.288 L 40.5268, 456.13 L 49.0375, 459.777 L 62.2087, 441.743 L 53.6981, 438.095 L 62.8166, 425.937 L 130.496, 454.509 L 121.378, 466.869 L 112.665, 463.019 L 99.4934, 481.054 L 108.207, 484.701 L 107.396, 486.12 L 99.2908, 496.859 L 31.6109, 468.288 z M 64.4377, 466.464 L 65.6535, 466.869 L 66.464, 467.882 L 66.0588, 469.301 L 68.4904, 468.085 L 79.8379, 472.948 L 81.2563, 474.772 L 83.08, 474.367 L 85.309, 475.38 L 84.0932, 472.948 L 94.8328, 458.156 L 97.0618, 457.143 L 95.0355, 455.724 L 95.846, 454.914 L 92.6039, 455.522 L 81.6616, 450.861 L 80.2432, 448.835 L 78.6221, 449.645 L 77.2036, 449.037 L 77.6089, 451.064 L 66.8693, 465.653 L 64.4377, 466.464 z "/>
<path style="fill:rgb(255, 0, 0);fill-opacity:0;fill-rule:evenodd;stroke:rgb(255, 0, 144);stroke-width:1;" d="M 5.06586, 383.587 L 13.9818, 371.429 L 22.4924, 375.076 L 35.6636, 357.042 L 27.153, 353.394 L 36.2715, 341.033 L 87.7406, 362.918 L 103.951, 369.605 L 94.8328, 382.168 L 85.9169, 378.318 L 72.7457, 396.353 L 81.6616, 400 L 72.7457, 412.158 L 5.06586, 383.587 z M 37.69, 381.155 L 39.1084, 381.358 L 39.9189, 382.573 L 39.5137, 383.992 L 41.9453, 382.573 L 53.2928, 387.437 L 54.7112, 389.26 L 56.535, 388.855 L 58.7639, 389.868 L 57.5481, 387.437 L 68.2877, 372.847 L 70.5167, 371.631 L 68.4904, 370.415 L 69.3009, 369.402 L 66.0588, 370.01 L 55.1165, 365.35 L 53.9007, 363.526 L 52.077, 364.336 L 50.6586, 363.728 L 51.0638, 365.552 L 40.3242, 380.142 L 37.69, 381.155 z "/>
<path style="fill:rgb(0, 255, 0);fill-opacity:0;fill-rule:evenodd;stroke:rgb(255, 0, 144);stroke-width:1;" d="M 30.8004, 190.476 L 48.227, 166.565 L 56.1297, 155.623 L 120.365, 182.776 L 96.2513, 215.805 L 95.0355, 217.427 L 30.8004, 190.476 z "/>
<path style="fill:rgb(0, 0, 255);fill-opacity:0;fill-rule:evenodd;stroke:rgb(255, 0, 144);stroke-width:1;" d="M 56.1297, 41.1348 L 67.8825, 25.1266 L 70.922, 26.5451 L 72.1378, 24.7214 L 69.0983, 23.5056 L 73.5562, 17.4265 L 76.1905, 16.8186 L 79.4326, 12.5633 L 78.6221, 10.537 L 84.2958, 2.83688 L 86.3222, 0 L 102.33, 6.68693 L 94.6302, 17.2239 L 92.6039, 18.0344 L 89.3617, 22.4924 L 89.5643, 23.9108 L 85.1064, 30.1925 L 82.0669, 28.9767 L 76.3931, 36.6768 L 78.0142, 37.4873 L 70.7194, 47.4164 L 56.1297, 41.1348 z "/>
<path style="fill:rgb(255, 255, 0);fill-opacity:0;fill-rule:evenodd;stroke:rgb(255, 0, 144);stroke-width:1;" d="M 73.3536, 48.4296 L 80.6484, 38.5005 L 82.4721, 39.1084 L 87.9433, 31.6109 L 85.1064, 30.1925 L 89.5643, 23.9108 L 91.5907, 23.3029 L 94.8328, 19.0476 L 94.6302, 17.2239 L 102.33, 6.68693 L 118.136, 13.5765 L 110.436, 24.1135 L 107.801, 24.5187 L 104.559, 28.9767 L 105.37, 30.8004 L 100.912, 37.0821 L 97.8723, 35.6636 L 93.4144, 41.7427 L 96.6565, 42.9585 L 87.9433, 54.7112 L 73.3536, 48.4296 z "/>
<path style="fill:rgb(255, 0, 0);fill-opacity:0;fill-rule:evenodd;stroke:rgb(255, 0, 144);stroke-width:1;" d="M 87.9433, 54.7112 L 96.6565, 42.9585 L 99.696, 44.3769 L 104.154, 38.2979 L 100.912, 37.0821 L 105.37, 30.8004 L 108.004, 30.3951 L 111.449, 25.9372 L 110.436, 24.1135 L 118.136, 13.5765 L 134.144, 20.2634 L 126.444, 30.8004 L 124.417, 31.6109 L 121.175, 35.8663 L 121.581, 37.4873 L 116.92, 43.769 L 113.88, 42.5532 L 108.207, 50.2533 L 110.03, 50.8612 L 102.533, 60.9929 L 87.9433, 54.7112 z "/>
<path style="fill:rgb(0, 255, 0);fill-opacity:0;fill-rule:evenodd;stroke:rgb(255, 0, 144);stroke-width:1;" d="M 299.088, 51.6717 L 308.004, 39.5137 L 310.436, 39.1084 L 312.867, 35.8663 L 311.854, 34.2452 L 319.352, 23.9108 L 321.986, 24.1135 L 327.66, 16.2107 L 339.818, 21.4792 L 333.941, 29.1793 L 335.765, 31.003 L 328.267, 41.1348 L 325.836, 41.3374 L 323.404, 44.5795 L 324.215, 46.4032 L 315.502, 58.5613 L 299.088, 51.6717 z "/>
<path style="fill:rgb(0, 0, 255);fill-opacity:0;fill-rule:evenodd;stroke:rgb(255, 0, 144);stroke-width:1;" d="M 267.477, 38.0952 L 276.19, 26.1398 L 278.419, 25.5319 L 280.851, 22.2898 L 280.041, 20.6687 L 287.538, 10.537 L 290.375, 10.7396 L 296.049, 2.83688 L 307.396, 7.7001 L 301.722, 15.4002 L 303.546, 17.2239 L 296.049, 27.5583 L 293.617, 27.7609 L 291.388, 31.003 L 292.199, 32.8267 L 283.283, 44.7822 L 267.477, 38.0952 z "/>
<path style="fill:rgb(255, 255, 0);fill-opacity:0;fill-rule:evenodd;stroke:rgb(255, 0, 144);stroke-width:1;" d="M 283.283, 44.7822 L 292.199, 32.8267 L 294.225, 32.2188 L 296.657, 28.9767 L 296.049, 27.5583 L 303.546, 17.2239 L 306.18, 17.4265 L 311.854, 9.52381 L 323.202, 14.387 L 317.528, 22.2898 L 319.352, 23.9108 L 311.854, 34.2452 L 309.625, 34.4478 L 307.194, 37.69 L 308.004, 39.5137 L 299.088, 51.6717 L 283.283, 44.7822 z "/>
<path style="fill:rgb(255, 0, 0);fill-opacity:0;fill-rule:evenodd;stroke:rgb(255, 0, 144);stroke-width:1;" d="M 387.639, 24.1135 L 396.758, 11.7528 L 416.413, 20.0608 L 415.603, 21.4792 L 420.871, 23.7082 L 421.884, 22.2898 L 439.108, 29.5846 L 429.787, 42.1479 L 414.184, 35.461 L 412.766, 34.8531 L 413.576, 33.6373 L 408.308, 31.4083 L 407.295, 32.6241 L 406.282, 32.2188 L 387.639, 24.1135 z "/>
</svg>