<?xml version="1.0" encoding="iso-8859-1" standalone="no"?>
<!DOCTYPE svg PUBLIC "-//W3C//DTD SVG 1.0//EN" "http://www.w3.org/TR/2001/REC-SVG-20010904/DTD/svg10.dtd">
<svg xmlns="http://www.w3.org/2000/svg" width="1077" height="800">
<path style="fill:rgb(255, 0, 0);fill-opacity:0;fill-rule:evenodd;stroke:rgb(166, 0, 255);stroke-width:1;" d="M 362.582, 280.262 L 392.329, 239.289 L 421.515, 251.637 L 431.618, 237.792 L 416.838, 231.431 L 424.135, 221.328 L 435.36, 205.987 L 443.592, 194.761 L 531.338, 231.618 L 464.92, 323.106 L 362.582, 280.262 z M 458.185, 237.605 L 472.03, 243.405 L 477.83, 235.547 L 463.985, 229.747 L 458.185, 237.605 z "/>
<path style="fill:rgb(0, 255, 0);fill-opacity:0;fill-rule:evenodd;stroke:rgb(166, 0, 255);stroke-width:1;" d="M 204.116, 523.854 L 223.199, 497.474 L 230.496, 500.468 L 239.476, 488.494 L 270.72, 501.59 L 260.804, 515.061 L 277.643, 522.17 L 307.39, 481.384 L 289.242, 473.714 L 279.514, 486.81 L 254.818, 476.52 L 263.798, 464.359 L 257.437, 461.74 L 276.52, 435.547 L 357.905, 469.785 L 356.595, 471.656 L 291.862, 560.711 L 204.116, 523.854 z "/>
<path style="fill:rgb(0, 0, 255);fill-opacity:0;fill-rule:evenodd;stroke:rgb(166, 0, 255);stroke-width:1;" d="M 151.543, 657.998 L 167.072, 636.857 L 189.71, 646.586 L 194.574, 639.663 L 192.703, 636.109 L 179.233, 630.496 L 188.213, 618.148 L 201.123, 623.573 L 205.8, 623.012 L 208.98, 618.709 L 206.735, 615.341 L 194.2, 609.916 L 203.368, 597.381 L 217.212, 603.181 L 221.703, 602.245 L 226.193, 596.071 L 203.742, 586.717 L 219.457, 565.201 L 273.152, 587.839 L 205.239, 680.636 L 151.543, 657.998 z "/>
<path style="fill:rgb(255, 255, 0);fill-opacity:0;fill-rule:evenodd;stroke:rgb(166, 0, 255);stroke-width:1;" d="M 327.596, 353.601 L 352.666, 318.99 L 427.689, 350.421 L 431.805, 344.808 L 445.276, 350.421 L 411.6, 396.632 L 388.587, 386.904 L 376.988, 382.039 L 377.923, 380.917 L 373.246, 378.859 L 374.743, 376.801 L 356.034, 368.943 L 353.601, 372.123 L 341.815, 367.259 L 346.118, 361.459 L 327.596, 353.601 z "/>
<path style="fill:rgb(255, 0, 0);fill-opacity:0;fill-rule:evenodd;stroke:rgb(166, 0, 255);stroke-width:1;" d="M 328.344, 194.387 L 355.098, 157.53 L 443.592, 194.761 L 435.36, 205.987 L 425.257, 201.871 L 414.032, 217.025 L 424.135, 221.328 L 416.838, 231.431 L 328.344, 194.387 z M 356.969, 192.703 L 376.801, 201.123 L 388.026, 185.781 L 367.446, 176.988 L 357.53, 190.645 L 358.279, 191.02 L 356.969, 192.703 z "/>
<path style="fill:rgb(0, 255, 0);fill-opacity:0;fill-rule:evenodd;stroke:rgb(166, 0, 255);stroke-width:1;" d="M 310.945, 413.471 L 327.222, 391.394 L 333.583, 394.013 L 347.24, 374.93 L 360.524, 380.543 L 354.724, 388.587 L 355.659, 391.581 L 367.446, 396.445 L 374.743, 386.529 L 382.975, 389.897 L 387.091, 389.149 L 388.587, 386.904 L 411.6, 396.632 L 378.672, 441.908 L 340.318, 425.819 L 350.047, 412.535 L 338.634, 407.671 L 328.906, 421.141 L 310.945, 413.471 z "/>
<path style="fill:rgb(0, 0, 255);fill-opacity:0;fill-rule:evenodd;stroke:rgb(166, 0, 255);stroke-width:1;" d="M 186.155, 135.828 L 203.742, 111.693 L 197.755, 109.074 L 200.935, 104.771 L 207.671, 95.6034 L 284.191, 127.783 L 255.192, 164.827 L 233.115, 155.659 L 244.715, 139.757 L 245.089, 136.763 L 242.657, 135.641 L 247.147, 129.654 L 238.541, 126.099 L 220.954, 150.234 L 186.155, 135.828 z "/>
<path style="fill:rgb(255, 255, 0);fill-opacity:0;fill-rule:evenodd;stroke:rgb(166, 0, 255);stroke-width:1;" d="M 58.3723, 87.1843 L 69.0365, 72.5912 L 91.6745, 82.1328 L 100.655, 69.7848 L 78.0168, 60.2432 L 81.0103, 56.1272 L 88.681, 45.6501 L 148.176, 70.7203 L 141.628, 79.7007 L 137.512, 85.5005 L 115.996, 76.333 L 106.829, 89.0552 L 128.157, 98.0355 L 121.422, 107.203 L 117.68, 112.254 L 58.3723, 87.1843 z "/>
<path style="fill:rgb(255, 0, 0);fill-opacity:0;fill-rule:evenodd;stroke:rgb(166, 0, 255);stroke-width:1;" d="M 121.422, 107.203 L 128.157, 98.0355 L 130.776, 94.4808 L 140.131, 98.4097 L 149.111, 85.8746 L 147.802, 82.3199 L 141.628, 79.7007 L 148.176, 70.7203 L 207.671, 95.6034 L 200.935, 104.771 L 193.078, 101.59 L 189.149, 102.339 L 179.981, 115.248 L 189.336, 119.177 L 179.981, 131.899 L 121.422, 107.203 z "/>
<path style="fill:rgb(0, 255, 0);fill-opacity:0;fill-rule:evenodd;stroke:rgb(166, 0, 255);stroke-width:1;" d="M 118.99, 571.562 L 134.331, 550.421 L 128.157, 547.802 L 136.763, 536.015 L 139.57, 532.273 L 162.021, 541.628 L 160.524, 543.686 L 174.181, 549.486 L 175.491, 547.428 L 198.316, 556.969 L 195.884, 560.15 L 186.904, 572.498 L 180.73, 570.065 L 165.388, 591.02 L 118.99, 571.562 z "/>
<path style="fill:rgb(0, 0, 255);fill-opacity:0;fill-rule:evenodd;stroke:rgb(166, 0, 255);stroke-width:1;" d="M 200.374, 366.885 L 202.619, 363.704 L 209.729, 354.163 L 221.515, 359.214 L 224.509, 356.969 L 228.999, 350.608 L 227.128, 349.86 L 232.741, 342.189 L 221.703, 337.512 L 228.251, 328.718 L 280.823, 350.795 L 274.275, 359.775 L 263.424, 355.285 L 257.811, 362.956 L 255.566, 362.021 L 251.263, 368.007 L 250.327, 371.375 L 262.301, 376.427 L 255.379, 385.968 L 252.947, 389.149 L 200.374, 366.885 z "/>
<path style="fill:rgb(255, 255, 0);fill-opacity:0;fill-rule:evenodd;stroke:rgb(166, 0, 255);stroke-width:1;" d="M 259.869, 169.504 L 266.978, 159.775 L 275.023, 163.33 L 289.242, 143.686 L 281.197, 140.318 L 288.868, 129.841 L 325.725, 145.182 L 317.867, 155.847 L 309.448, 152.292 L 304.21, 159.401 L 301.964, 158.466 L 300.281, 161.085 L 302.339, 162.021 L 296.165, 170.814 L 303.648, 173.994 L 298.223, 181.665 L 295.978, 184.659 L 259.869, 169.504 z "/>
<path style="fill:rgb(255, 0, 0);fill-opacity:0;fill-rule:evenodd;stroke:rgb(166, 0, 255);stroke-width:1;" d="M 298.223, 181.665 L 303.648, 173.994 L 304.958, 172.311 L 315.622, 176.988 L 326.286, 162.021 L 316.37, 157.905 L 317.867, 155.847 L 325.725, 145.182 L 355.098, 157.53 L 328.344, 194.387 L 298.223, 181.665 z "/>
<path style="fill:rgb(0, 255, 0);fill-opacity:0;fill-rule:evenodd;stroke:rgb(166, 0, 255);stroke-width:1;" d="M 226.754, 219.083 L 245.463, 193.452 L 251.076, 195.884 L 251.637, 192.891 L 256.127, 186.717 L 260.804, 184.097 L 268.475, 187.278 L 267.727, 191.581 L 264.172, 196.632 L 266.978, 197.942 L 265.482, 200 L 245.837, 227.128 L 226.754, 219.083 z "/>
<path style="fill:rgb(0, 0, 255);fill-opacity:0;fill-rule:evenodd;stroke:rgb(166, 0, 255);stroke-width:1;" d="M 73.3396, 463.798 L 101.964, 424.509 L 116.558, 430.683 L 87.9326, 470.159 L 73.3396, 463.798 z "/>
<path style="fill:rgb(255, 255, 0);fill-opacity:0;fill-rule:evenodd;stroke:rgb(166, 0, 255);stroke-width:1;" d="M 171.562, 606.174 L 181.665, 592.329 L 174.556, 589.336 L 186.904, 572.498 L 195.884, 560.15 L 203.929, 563.517 L 206.174, 560.337 L 213.096, 563.33 L 179.233, 609.355 L 172.872, 606.735 L 171.562, 606.174 z "/>
<path style="fill:rgb(255, 0, 0);fill-opacity:0;fill-rule:evenodd;stroke:rgb(166, 0, 255);stroke-width:1;" d="M 315.996, 342.937 L 340.692, 309.074 L 355.472, 315.248 L 352.666, 318.99 L 327.596, 353.601 L 326.286, 355.285 L 318.241, 351.918 L 322.732, 345.744 L 315.996, 342.937 z "/>
<path style="fill:rgb(0, 255, 0);fill-opacity:0;fill-rule:evenodd;stroke:rgb(166, 0, 255);stroke-width:1;" d="M 297.661, 342.189 L 298.41, 341.066 L 326.099, 302.9 L 340.692, 309.074 L 315.996, 342.937 L 309.261, 340.131 L 305.519, 345.557 L 297.661, 342.189 z "/>
<path style="fill:rgb(0, 0, 255);fill-opacity:0;fill-rule:evenodd;stroke:rgb(166, 0, 255);stroke-width:1;" d="M 113.19, 481.946 L 113.938, 481.01 L 141.441, 443.218 L 150.234, 446.773 L 147.428, 450.702 L 147.802, 453.134 L 142.563, 460.243 L 147.24, 462.114 L 128.906, 487.371 L 127.783, 486.81 L 126.848, 488.12 L 124.415, 489.242 L 118.428, 486.623 L 118.241, 484.191 L 113.19, 481.946 z "/>
<path style="fill:rgb(255, 255, 0);fill-opacity:0;fill-rule:evenodd;stroke:rgb(166, 0, 255);stroke-width:1;" d="M 54.8176, 549.298 L 61.3658, 540.318 L 56.8756, 538.447 L 77.0814, 510.945 L 92.2357, 517.306 L 65.4818, 553.976 L 54.8176, 549.298 z "/>
<path style="fill:rgb(255, 0, 0);fill-opacity:0;fill-rule:evenodd;stroke:rgb(166, 0, 255);stroke-width:1;" d="M 58.5594, 457.624 L 77.8297, 431.244 L 82.8812, 433.302 L 92.2357, 420.393 L 101.964, 424.509 L 73.3396, 463.798 L 58.5594, 457.624 z "/>
<path style="fill:rgb(0, 255, 0);fill-opacity:0;fill-rule:evenodd;stroke:rgb(166, 0, 255);stroke-width:1;" d="M 289.055, 326.66 L 310.945, 296.539 L 326.099, 302.9 L 298.41, 341.066 L 292.797, 338.821 L 292.236, 336.95 L 297.287, 330.028 L 289.055, 326.66 z "/>
<path style="fill:rgb(0, 0, 255);fill-opacity:0;fill-rule:evenodd;stroke:rgb(166, 0, 255);stroke-width:1;" d="M 181.665, 288.307 L 188.026, 279.701 L 206.548, 254.256 L 221.515, 260.617 L 200.561, 289.429 L 196.819, 294.668 L 181.665, 288.307 z "/>
<path style="fill:rgb(255, 255, 0);fill-opacity:0;fill-rule:evenodd;stroke:rgb(166, 0, 255);stroke-width:1;" d="M 224.135, 309.635 L 251.824, 271.656 L 266.791, 278.017 L 245.089, 307.764 L 238.915, 305.145 L 236.296, 306.642 L 231.805, 313.003 L 224.135, 309.635 z "/>
<path style="fill:rgb(255, 0, 0);fill-opacity:0;fill-rule:evenodd;stroke:rgb(166, 0, 255);stroke-width:1;" d="M 255.379, 385.968 L 262.301, 376.427 L 274.275, 359.775 L 280.823, 350.795 L 284.191, 346.118 L 295.042, 350.795 L 287.371, 361.272 L 284.565, 362.956 L 288.681, 364.827 L 269.224, 391.581 L 255.379, 385.968 z "/>
<path style="fill:rgb(0, 255, 0);fill-opacity:0;fill-rule:evenodd;stroke:rgb(166, 0, 255);stroke-width:1;" d="M 84.3779, 562.956 L 92.0486, 552.292 L 86.8101, 550.047 L 106.455, 523.293 L 121.422, 529.654 L 101.964, 556.408 L 94.1066, 567.072 L 84.3779, 562.956 z "/>
<path style="fill:rgb(0, 0, 255);fill-opacity:0;fill-rule:evenodd;stroke:rgb(166, 0, 255);stroke-width:1;" d="M 253.321, 322.17 L 281.197, 284.004 L 296.165, 290.365 L 274.275, 320.486 L 265.856, 316.932 L 259.869, 324.977 L 253.321, 322.17 z "/>
<path style="fill:rgb(255, 255, 0);fill-opacity:0;fill-rule:evenodd;stroke:rgb(166, 0, 255);stroke-width:1;" d="M 150.608, 341.815 L 179.607, 301.777 L 189.897, 306.08 L 180.355, 319.177 L 183.91, 320.674 L 164.266, 347.615 L 150.608, 341.815 z "/>
<path style="fill:rgb(255, 0, 0);fill-opacity:0;fill-rule:evenodd;stroke:rgb(166, 0, 255);stroke-width:1;" d="M 189.523, 358.279 L 209.167, 331.151 L 212.348, 332.46 L 220.954, 320.674 L 222.264, 321.235 L 224.696, 318.054 L 233.302, 321.609 L 228.251, 328.718 L 221.703, 337.512 L 209.729, 354.163 L 202.619, 363.704 L 189.523, 358.279 z "/>
<path style="fill:rgb(0, 255, 0);fill-opacity:0;fill-rule:evenodd;stroke:rgb(166, 0, 255);stroke-width:1;" d="M 281.946, 397.007 L 307.016, 362.582 L 310.945, 357.156 L 321.048, 361.272 L 311.506, 374.369 L 315.248, 375.865 L 295.603, 402.806 L 281.946, 397.007 z "/>
<path style="fill:rgb(0, 0, 255);fill-opacity:0;fill-rule:evenodd;stroke:rgb(166, 0, 255);stroke-width:1;" d="M 273.714, 330.402 L 273.901, 328.157 L 276.146, 324.977 L 278.204, 323.854 L 279.326, 322.544 L 274.275, 320.486 L 296.165, 290.365 L 310.945, 296.539 L 289.055, 326.66 L 287.371, 325.912 L 283.63, 327.222 L 280.823, 330.964 L 278.578, 332.46 L 273.714, 330.402 z "/>
<path style="fill:rgb(255, 255, 0);fill-opacity:0;fill-rule:evenodd;stroke:rgb(166, 0, 255);stroke-width:1;" d="M 194.761, 297.474 L 196.819, 294.668 L 200.561, 289.429 L 221.515, 260.617 L 222.451, 259.308 L 237.044, 265.482 L 215.529, 295.042 L 208.232, 292.049 L 201.871, 300.468 L 194.761, 297.474 z "/>
<path style="fill:rgb(255, 0, 0);fill-opacity:0;fill-rule:evenodd;stroke:rgb(166, 0, 255);stroke-width:1;" d="M 215.529, 295.042 L 237.044, 265.482 L 251.824, 271.656 L 224.135, 309.635 L 217.212, 306.829 L 223.199, 298.41 L 215.529, 295.042 z "/>
<path style="fill:rgb(0, 255, 0);fill-opacity:0;fill-rule:evenodd;stroke:rgb(166, 0, 255);stroke-width:1;" d="M 226.754, 469.598 L 255.005, 430.87 L 257.437, 427.502 L 270.533, 433.115 L 249.392, 461.927 L 244.715, 459.869 L 234.986, 473.152 L 226.754, 469.598 z "/>
<path style="fill:rgb(0, 0, 255);fill-opacity:0;fill-rule:evenodd;stroke:rgb(166, 0, 255);stroke-width:1;" d="M 245.089, 307.764 L 266.791, 278.017 L 281.197, 284.004 L 253.321, 322.17 L 246.399, 319.177 L 252.385, 310.945 L 245.089, 307.764 z "/>
<path style="fill:rgb(255, 255, 0);fill-opacity:0;fill-rule:evenodd;stroke:rgb(166, 0, 255);stroke-width:1;" d="M 65.4818, 553.976 L 92.2357, 517.306 L 106.455, 523.293 L 86.8101, 550.047 L 82.6941, 548.363 L 75.5847, 558.092 L 65.4818, 553.976 z "/>
<path style="fill:rgb(255, 0, 0);fill-opacity:0;fill-rule:evenodd;stroke:rgb(166, 0, 255);stroke-width:1;" d="M 137.512, 336.389 L 157.156, 309.448 L 161.272, 311.319 L 161.833, 308.7 L 169.878, 297.661 L 179.607, 301.777 L 150.608, 341.815 L 137.512, 336.389 z "/>
<path style="fill:rgb(0, 255, 0);fill-opacity:0;fill-rule:evenodd;stroke:rgb(166, 0, 255);stroke-width:1;" d="M 115.622, 421.515 L 119.177, 416.838 L 143.124, 383.723 L 148.363, 385.968 L 149.111, 385.033 L 152.479, 383.91 L 156.221, 385.594 L 157.156, 388.213 L 156.408, 389.336 L 136.202, 416.838 L 131.338, 414.78 L 129.654, 417.025 L 130.402, 420.019 L 128.531, 422.638 L 124.977, 423.573 L 123.854, 425.07 L 115.622, 421.515 z "/>
<path style="fill:rgb(0, 0, 255);fill-opacity:0;fill-rule:evenodd;stroke:rgb(166, 0, 255);stroke-width:1;" d="M 87.9326, 470.159 L 116.558, 430.683 L 117.867, 428.999 L 126.66, 432.554 L 116.37, 446.586 L 118.428, 447.521 L 119.364, 450.514 L 101.216, 475.585 L 87.9326, 470.159 z "/>
<path style="fill:rgb(255, 255, 0);fill-opacity:0;fill-rule:evenodd;stroke:rgb(166, 0, 255);stroke-width:1;" d="M 133.396, 274.462 L 137.512, 268.662 L 137.699, 266.043 L 139.57, 263.237 L 142.376, 261.927 L 143.312, 260.804 L 138.26, 258.746 L 156.782, 233.302 L 170.253, 239.102 L 142.002, 278.017 L 133.396, 274.462 z "/>
<path style="fill:rgb(255, 0, 0);fill-opacity:0;fill-rule:evenodd;stroke:rgb(166, 0, 255);stroke-width:1;" d="M 100.281, 320.674 L 128.906, 281.572 L 137.138, 284.939 L 134.892, 288.12 L 134.518, 291.113 L 129.467, 297.848 L 133.022, 299.345 L 113.377, 326.286 L 100.281, 320.674 z "/>
<path style="fill:rgb(0, 255, 0);fill-opacity:0;fill-rule:evenodd;stroke:rgb(166, 0, 255);stroke-width:1;" d="M 245.837, 227.128 L 265.482, 200 L 272.778, 203.181 L 278.578, 195.323 L 286.062, 198.503 L 260.804, 233.302 L 245.837, 227.128 z "/>
<path style="fill:rgb(0, 0, 255);fill-opacity:0;fill-rule:evenodd;stroke:rgb(166, 0, 255);stroke-width:1;" d="M 216.09, 469.036 L 227.877, 452.947 L 223.573, 451.076 L 242.283, 425.444 L 255.005, 430.87 L 226.754, 469.598 L 224.509, 472.591 L 216.09, 469.036 z "/>
<path style="fill:rgb(255, 255, 0);fill-opacity:0;fill-rule:evenodd;stroke:rgb(166, 0, 255);stroke-width:1;" d="M 50.7016, 299.906 L 79.3265, 260.43 L 87.7456, 263.798 L 84.7521, 267.914 L 84.565, 270.907 L 79.8877, 277.081 L 83.0683, 278.391 L 63.6109, 305.332 L 50.7016, 299.906 z "/>
<path style="fill:rgb(255, 0, 0);fill-opacity:0;fill-rule:evenodd;stroke:rgb(166, 0, 255);stroke-width:1;" d="M 135.267, 648.082 L 156.595, 619.083 L 162.021, 621.328 L 172.872, 606.735 L 179.233, 609.355 L 145.744, 655.379 L 142.189, 653.882 L 140.879, 651.637 L 141.628, 650.889 L 135.267, 648.082 z "/>
<path style="fill:rgb(0, 255, 0);fill-opacity:0;fill-rule:evenodd;stroke:rgb(166, 0, 255);stroke-width:1;" d="M 87.3714, 315.248 L 107.016, 288.307 L 110.758, 289.804 L 115.435, 283.255 L 117.68, 281.946 L 120.674, 278.017 L 128.906, 281.572 L 100.281, 320.674 L 87.3714, 315.248 z "/>
<path style="fill:rgb(0, 0, 255);fill-opacity:0;fill-rule:evenodd;stroke:rgb(166, 0, 255);stroke-width:1;" d="M 289.991, 245.65 L 315.248, 210.851 L 320.861, 213.096 L 315.248, 220.767 L 324.977, 224.883 L 305.145, 252.011 L 289.991, 245.65 z "/>
<path style="fill:rgb(255, 255, 0);fill-opacity:0;fill-rule:evenodd;stroke:rgb(166, 0, 255);stroke-width:1;" d="M 128.906, 177.923 L 156.782, 139.57 L 164.827, 142.937 L 155.472, 156.034 L 161.085, 158.466 L 160.15, 159.775 L 142.75, 183.723 L 128.906, 177.923 z "/>
<path style="fill:rgb(255, 0, 0);fill-opacity:0;fill-rule:evenodd;stroke:rgb(166, 0, 255);stroke-width:1;" d="M 101.964, 556.408 L 121.422, 529.654 L 136.763, 536.015 L 128.157, 547.802 L 112.254, 569.691 L 106.642, 567.259 L 111.693, 560.524 L 101.964, 556.408 z "/>
<path style="fill:rgb(0, 255, 0);fill-opacity:0;fill-rule:evenodd;stroke:rgb(166, 0, 255);stroke-width:1;" d="M 275.585, 239.476 L 295.229, 212.535 L 302.713, 215.716 L 308.513, 207.858 L 315.248, 210.851 L 289.991, 245.65 L 275.585, 239.476 z "/>
<path style="fill:rgb(0, 0, 255);fill-opacity:0;fill-rule:evenodd;stroke:rgb(166, 0, 255);stroke-width:1;" d="M 260.804, 233.302 L 286.062, 198.503 L 291.862, 200.935 L 286.249, 208.793 L 295.229, 212.535 L 275.585, 239.476 L 260.804, 233.302 z "/>
<path style="fill:rgb(255, 255, 0);fill-opacity:0;fill-rule:evenodd;stroke:rgb(166, 0, 255);stroke-width:1;" d="M 142.002, 278.017 L 170.253, 239.102 L 183.162, 244.341 L 164.64, 269.785 L 160.15, 267.727 L 158.84, 269.411 L 158.84, 271.843 L 157.343, 274.275 L 154.537, 275.398 L 150.234, 281.572 L 142.002, 278.017 z "/>
<path style="fill:rgb(255, 0, 0);fill-opacity:0;fill-rule:evenodd;stroke:rgb(166, 0, 255);stroke-width:1;" d="M 115.809, 172.498 L 134.144, 147.053 L 139.196, 149.111 L 148.737, 136.202 L 156.782, 139.57 L 128.906, 177.923 L 115.809, 172.498 z "/>
<path style="fill:rgb(0, 255, 0);fill-opacity:0;fill-rule:evenodd;stroke:rgb(166, 0, 255);stroke-width:1;" d="M 78.5781, 156.782 L 106.829, 118.054 L 115.061, 121.609 L 105.332, 134.892 L 110.009, 136.95 L 91.4874, 162.208 L 78.5781, 156.782 z "/>
<path style="fill:rgb(0, 0, 255);fill-opacity:0;fill-rule:evenodd;stroke:rgb(166, 0, 255);stroke-width:1;" d="M 113.377, 326.286 L 133.022, 299.345 L 136.763, 300.842 L 145.557, 289.055 L 154.163, 292.61 L 150.234, 298.036 L 125.912, 331.525 L 113.377, 326.286 z "/>
<path style="fill:rgb(255, 255, 0);fill-opacity:0;fill-rule:evenodd;stroke:rgb(166, 0, 255);stroke-width:1;" d="M 101.216, 475.585 L 119.364, 450.514 L 122.17, 451.637 L 127.409, 444.528 L 130.215, 443.592 L 133.022, 439.663 L 141.441, 443.218 L 113.938, 481.01 L 101.216, 475.585 z "/>
<path style="fill:rgb(255, 0, 0);fill-opacity:0;fill-rule:evenodd;stroke:rgb(166, 0, 255);stroke-width:1;" d="M 212.722, 213.096 L 229.373, 190.271 L 238.167, 178.11 L 245.65, 181.291 L 239.85, 189.149 L 243.966, 190.833 L 245.463, 193.452 L 226.754, 219.083 L 212.722, 213.096 z "/>
<path style="fill:rgb(0, 255, 0);fill-opacity:0;fill-rule:evenodd;stroke:rgb(166, 0, 255);stroke-width:1;" d="M 88.8681, 628.625 L 89.4294, 627.502 L 112.067, 596.819 L 116.745, 598.69 L 122.544, 590.833 L 129.841, 593.826 L 127.97, 596.258 L 100.655, 633.676 L 88.8681, 628.625 z "/>
<path style="fill:rgb(0, 0, 255);fill-opacity:0;fill-rule:evenodd;stroke:rgb(166, 0, 255);stroke-width:1;" d="M 66.2301, 151.731 L 84.9392, 126.099 L 89.0552, 127.783 L 98.5968, 114.687 L 106.829, 118.054 L 78.5781, 156.782 L 66.2301, 151.731 z "/>
<path style="fill:rgb(255, 255, 0);fill-opacity:0;fill-rule:evenodd;stroke:rgb(166, 0, 255);stroke-width:1;" d="M 164.079, 446.211 L 169.878, 438.167 L 193.826, 405.051 L 205.426, 409.916 L 186.529, 435.921 L 185.22, 437.792 L 180.355, 435.734 L 170.814, 449.018 L 164.079, 446.211 z "/>
<path style="fill:rgb(255, 0, 0);fill-opacity:0;fill-rule:evenodd;stroke:rgb(166, 0, 255);stroke-width:1;" d="M 84.9392, 251.45 L 94.4808, 238.541 L 90.739, 237.044 L 108.326, 212.909 L 120.674, 218.148 L 103.087, 242.283 L 93.7325, 255.192 L 84.9392, 251.45 z "/>
<path style="fill:rgb(0, 255, 0);fill-opacity:0;fill-rule:evenodd;stroke:rgb(166, 0, 255);stroke-width:1;" d="M 56.3143, 396.819 L 64.5463, 385.594 L 84.0037, 358.84 L 95.7905, 363.891 L 76.5201, 390.458 L 72.5912, 388.775 L 64.3592, 400.187 L 56.3143, 396.819 z "/>
<path style="fill:rgb(0, 0, 255);fill-opacity:0;fill-rule:evenodd;stroke:rgb(166, 0, 255);stroke-width:1;" d="M 96.913, 256.688 L 99.3452, 253.321 L 101.59, 252.76 L 101.777, 250.327 L 104.397, 246.773 L 107.577, 244.341 L 103.087, 242.283 L 120.674, 218.148 L 132.834, 223.199 L 114.312, 248.831 L 105.893, 260.43 L 96.913, 256.688 z "/>
<path style="fill:rgb(255, 255, 0);fill-opacity:0;fill-rule:evenodd;stroke:rgb(166, 0, 255);stroke-width:1;" d="M 62.4883, 616.277 L 85.5005, 584.846 L 94.6679, 588.775 L 89.0552, 596.445 L 93.7325, 598.503 L 76.5201, 622.077 L 62.4883, 616.277 z "/>
<path style="fill:rgb(255, 0, 0);fill-opacity:0;fill-rule:evenodd;stroke:rgb(166, 0, 255);stroke-width:1;" d="M 60.4303, 241.347 L 68.101, 230.683 L 71.4687, 229.186 L 66.6043, 227.128 L 84.1908, 202.806 L 96.1646, 207.858 L 69.2236, 244.902 L 60.4303, 241.347 z "/>
<path style="fill:rgb(0, 255, 0);fill-opacity:0;fill-rule:evenodd;stroke:rgb(166, 0, 255);stroke-width:1;" d="M 269.224, 391.581 L 288.681, 364.827 L 294.294, 367.072 L 299.719, 359.588 L 307.016, 362.582 L 281.946, 397.007 L 269.224, 391.581 z "/>
<path style="fill:rgb(0, 0, 255);fill-opacity:0;fill-rule:evenodd;stroke:rgb(166, 0, 255);stroke-width:1;" d="M 176.614, 352.853 L 201.497, 318.616 L 208.606, 321.796 L 203.555, 328.718 L 209.167, 331.151 L 189.523, 358.279 L 176.614, 352.853 z "/>
<path style="fill:rgb(255, 255, 0);fill-opacity:0;fill-rule:evenodd;stroke:rgb(166, 0, 255);stroke-width:1;" d="M 161.272, 426.941 L 181.104, 399.813 L 185.781, 401.684 L 186.155, 401.123 L 189.897, 399.626 L 193.639, 401.123 L 194.387, 404.49 L 193.826, 405.051 L 169.878, 438.167 L 164.64, 436.109 L 168.943, 430.309 L 161.272, 426.941 z "/>
<path style="fill:rgb(255, 0, 0);fill-opacity:0;fill-rule:evenodd;stroke:rgb(166, 0, 255);stroke-width:1;" d="M 112.067, 638.354 L 133.583, 608.98 L 138.447, 611.038 L 144.247, 603.181 L 150.982, 606.174 L 123.854, 643.405 L 112.067, 638.354 z "/>
<path style="fill:rgb(0, 255, 0);fill-opacity:0;fill-rule:evenodd;stroke:rgb(166, 0, 255);stroke-width:1;" d="M 69.2236, 244.902 L 96.1646, 207.858 L 108.326, 212.909 L 90.739, 237.044 L 84.1908, 236.857 L 81.3845, 240.786 L 81.7587, 243.218 L 78.9523, 247.147 L 76.5201, 248.082 L 69.2236, 244.902 z "/>
<path style="fill:rgb(0, 0, 255);fill-opacity:0;fill-rule:evenodd;stroke:rgb(166, 0, 255);stroke-width:1;" d="M 123.854, 643.405 L 150.982, 606.174 L 157.905, 608.98 L 152.105, 617.212 L 156.595, 619.083 L 135.267, 648.082 L 123.854, 643.405 z "/>
<path style="fill:rgb(255, 255, 0);fill-opacity:0;fill-rule:evenodd;stroke:rgb(166, 0, 255);stroke-width:1;" d="M 152.105, 497.1 L 174.743, 466.043 L 176.427, 463.798 L 182.601, 466.417 L 176.239, 475.023 L 183.723, 478.204 L 165.762, 502.713 L 152.105, 497.1 z "/>
<path style="fill:rgb(255, 0, 0);fill-opacity:0;fill-rule:evenodd;stroke:rgb(166, 0, 255);stroke-width:1;" d="M 205.613, 452.011 L 228.999, 419.832 L 242.283, 425.444 L 223.573, 451.076 L 223.199, 451.45 L 217.587, 449.018 L 213.096, 455.192 L 205.613, 452.011 z "/>
<path style="fill:rgb(0, 255, 0);fill-opacity:0;fill-rule:evenodd;stroke:rgb(166, 0, 255);stroke-width:1;" d="M 200.374, 208.045 L 225.631, 173.059 L 233.115, 176.239 L 230.683, 179.607 L 231.057, 182.975 L 228.812, 186.155 L 225.07, 188.587 L 229.373, 190.271 L 212.722, 213.096 L 200.374, 208.045 z "/>
<path style="fill:rgb(0, 0, 255);fill-opacity:0;fill-rule:evenodd;stroke:rgb(166, 0, 255);stroke-width:1;" d="M 100.655, 633.676 L 127.97, 596.258 L 134.144, 598.877 L 128.344, 606.735 L 133.583, 608.98 L 112.067, 638.354 L 100.655, 633.676 z "/>
<path style="fill:rgb(255, 255, 0);fill-opacity:0;fill-rule:evenodd;stroke:rgb(166, 0, 255);stroke-width:1;" d="M 295.603, 402.806 L 315.248, 375.865 L 320.112, 377.923 L 325.351, 370.627 L 332.834, 373.807 L 307.951, 408.045 L 295.603, 402.806 z "/>
<path style="fill:rgb(255, 0, 0);fill-opacity:0;fill-rule:evenodd;stroke:rgb(166, 0, 255);stroke-width:1;" d="M 164.266, 347.615 L 183.91, 320.674 L 189.336, 322.919 L 194.574, 315.809 L 201.497, 318.616 L 176.614, 352.853 L 164.266, 347.615 z "/>
<path style="fill:rgb(0, 255, 0);fill-opacity:0;fill-rule:evenodd;stroke:rgb(166, 0, 255);stroke-width:1;" d="M 49.2049, 610.664 L 66.9785, 586.342 L 72.217, 585.407 L 76.8943, 587.465 L 80.2619, 582.601 L 85.5005, 584.846 L 62.4883, 616.277 L 49.2049, 610.664 z "/>
<path style="fill:rgb(0, 0, 255);fill-opacity:0;fill-rule:evenodd;stroke:rgb(166, 0, 255);stroke-width:1;" d="M 182.413, 446.024 L 187.839, 438.354 L 186.529, 435.921 L 205.426, 409.916 L 217.399, 414.967 L 198.69, 440.973 L 194.2, 440.973 L 188.775, 448.644 L 182.413, 446.024 z "/>
<path style="fill:rgb(255, 255, 0);fill-opacity:0;fill-rule:evenodd;stroke:rgb(166, 0, 255);stroke-width:1;" d="M 195.697, 453.508 L 203.368, 442.844 L 198.69, 440.973 L 217.399, 414.967 L 228.999, 419.832 L 205.613, 452.011 L 202.432, 456.314 L 195.697, 453.508 z "/>
<path style="fill:rgb(255, 0, 0);fill-opacity:0;fill-rule:evenodd;stroke:rgb(166, 0, 255);stroke-width:1;" d="M 46.5856, 452.572 L 65.8559, 426.38 L 69.9719, 428.064 L 75.3976, 420.767 L 83.0683, 423.948 L 77.8297, 431.244 L 58.5594, 457.624 L 46.5856, 452.572 z "/>
<path style="fill:rgb(0, 255, 0);fill-opacity:0;fill-rule:evenodd;stroke:rgb(166, 0, 255);stroke-width:1;" d="M 144.434, 427.689 L 168.569, 394.387 L 181.104, 399.813 L 161.272, 426.941 L 153.414, 423.761 L 149.111, 429.747 L 144.434, 427.689 z "/>
<path style="fill:rgb(0, 0, 255);fill-opacity:0;fill-rule:evenodd;stroke:rgb(166, 0, 255);stroke-width:1;" d="M 154.163, 188.587 L 179.607, 153.601 L 185.594, 156.034 L 180.355, 163.33 L 185.968, 165.762 L 182.788, 170.253 L 165.762, 193.452 L 154.163, 188.587 z "/>
<path style="fill:rgb(255, 255, 0);fill-opacity:0;fill-rule:evenodd;stroke:rgb(166, 0, 255);stroke-width:1;" d="M 136.202, 416.838 L 156.408, 389.336 L 168.569, 394.387 L 144.434, 427.689 L 139.008, 425.444 L 143.124, 419.832 L 136.202, 416.838 z "/>
<path style="fill:rgb(255, 0, 0);fill-opacity:0;fill-rule:evenodd;stroke:rgb(166, 0, 255);stroke-width:1;" d="M 41.7212, 141.441 L 66.9785, 106.642 L 74.6492, 109.822 L 65.8559, 121.609 L 70.5332, 123.667 L 53.8821, 146.492 L 41.7212, 141.441 z "/>
<path style="fill:rgb(0, 255, 0);fill-opacity:0;fill-rule:evenodd;stroke:rgb(166, 0, 255);stroke-width:1;" d="M 53.8821, 146.492 L 70.5332, 123.667 L 72.4041, 120.861 L 77.2685, 120.861 L 82.1328, 114.125 L 87.1843, 116.37 L 82.3199, 122.919 L 84.9392, 126.099 L 66.2301, 151.731 L 53.8821, 146.492 z "/>
<path style="fill:rgb(0, 0, 255);fill-opacity:0;fill-rule:evenodd;stroke:rgb(166, 0, 255);stroke-width:1;" d="M 114.312, 248.831 L 132.834, 223.199 L 145.182, 228.438 L 121.609, 260.992 L 114.687, 257.998 L 119.738, 251.263 L 114.312, 248.831 z "/>
<path style="fill:rgb(255, 255, 0);fill-opacity:0;fill-rule:evenodd;stroke:rgb(166, 0, 255);stroke-width:1;" d="M 76.5201, 622.077 L 93.7325, 598.503 L 98.5968, 597.007 L 103.461, 599.065 L 106.642, 594.574 L 112.067, 596.819 L 89.4294, 627.502 L 76.5201, 622.077 z "/>
<path style="fill:rgb(255, 0, 0);fill-opacity:0;fill-rule:evenodd;stroke:rgb(166, 0, 255);stroke-width:1;" d="M 63.6109, 305.332 L 83.0683, 278.391 L 89.4294, 281.197 L 94.1066, 274.649 L 99.9065, 277.081 L 75.7717, 310.384 L 63.6109, 305.332 z "/>
<path style="fill:rgb(0, 255, 0);fill-opacity:0;fill-rule:evenodd;stroke:rgb(166, 0, 255);stroke-width:1;" d="M 103.461, 167.259 L 127.222, 134.518 L 133.396, 137.138 L 127.97, 144.621 L 134.144, 147.053 L 115.809, 172.498 L 103.461, 167.259 z "/>
<path style="fill:rgb(0, 0, 255);fill-opacity:0;fill-rule:evenodd;stroke:rgb(166, 0, 255);stroke-width:1;" d="M 188.213, 202.993 L 205.051, 179.794 L 210.103, 182.039 L 218.709, 170.065 L 225.631, 173.059 L 200.374, 208.045 L 188.213, 202.993 z "/>
<path style="fill:rgb(255, 255, 0);fill-opacity:0;fill-rule:evenodd;stroke:rgb(166, 0, 255);stroke-width:1;" d="M 176.801, 507.39 L 199.439, 476.333 L 201.31, 473.714 L 207.297, 476.333 L 202.619, 482.881 L 208.232, 485.126 L 188.4, 512.254 L 176.801, 507.39 z "/>
<path style="fill:rgb(255, 0, 0);fill-opacity:0;fill-rule:evenodd;stroke:rgb(166, 0, 255);stroke-width:1;" d="M 125.912, 331.525 L 150.234, 298.036 L 156.782, 300.842 L 152.105, 307.39 L 157.156, 309.448 L 137.512, 336.389 L 125.912, 331.525 z "/>
<path style="fill:rgb(0, 255, 0);fill-opacity:0;fill-rule:evenodd;stroke:rgb(166, 0, 255);stroke-width:1;" d="M 95.6034, 406.922 L 100.281, 400.561 L 119.738, 373.994 L 131.525, 378.859 L 111.88, 405.8 L 106.455, 403.555 L 101.964, 409.729 L 95.6034, 406.922 z "/>
<path style="fill:rgb(0, 0, 255);fill-opacity:0;fill-rule:evenodd;stroke:rgb(166, 0, 255);stroke-width:1;" d="M 164.64, 279.326 L 170.065, 271.843 L 164.64, 269.785 L 183.162, 244.341 L 195.136, 249.392 L 171.375, 282.133 L 164.64, 279.326 z "/>
<path style="fill:rgb(255, 255, 0);fill-opacity:0;fill-rule:evenodd;stroke:rgb(166, 0, 255);stroke-width:1;" d="M 142.75, 183.723 L 160.15, 159.775 L 164.453, 161.459 L 172.498, 150.421 L 179.607, 153.601 L 154.163, 188.587 L 142.75, 183.723 z "/>
<path style="fill:rgb(255, 0, 0);fill-opacity:0;fill-rule:evenodd;stroke:rgb(166, 0, 255);stroke-width:1;" d="M 75.7717, 310.384 L 99.9065, 277.081 L 105.519, 279.514 L 100.842, 285.688 L 107.016, 288.307 L 87.3714, 315.248 L 75.7717, 310.384 z "/>
<path style="fill:rgb(0, 255, 0);fill-opacity:0;fill-rule:evenodd;stroke:rgb(166, 0, 255);stroke-width:1;" d="M 111.88, 405.8 L 131.525, 378.859 L 143.124, 383.723 L 119.177, 416.838 L 113.377, 414.406 L 117.867, 408.232 L 111.88, 405.8 z "/>
<path style="fill:rgb(0, 0, 255);fill-opacity:0;fill-rule:evenodd;stroke:rgb(166, 0, 255);stroke-width:1;" d="M 169.878, 284.378 L 171.375, 282.133 L 195.136, 249.392 L 206.548, 254.256 L 188.026, 279.701 L 182.975, 277.643 L 176.052, 286.997 L 169.878, 284.378 z "/>
<path style="fill:rgb(255, 255, 0);fill-opacity:0;fill-rule:evenodd;stroke:rgb(166, 0, 255);stroke-width:1;" d="M 128.906, 487.371 L 147.24, 462.114 L 153.414, 453.695 L 159.588, 456.314 L 153.04, 465.108 L 158.84, 467.54 L 140.879, 492.236 L 128.906, 487.371 z "/>
<path style="fill:rgb(255, 0, 0);fill-opacity:0;fill-rule:evenodd;stroke:rgb(166, 0, 255);stroke-width:1;" d="M 76.5201, 390.458 L 95.7905, 363.891 L 107.951, 368.943 L 84.9392, 400.561 L 79.3265, 398.316 L 83.0683, 393.078 L 76.5201, 390.458 z "/>
<path style="fill:rgb(0, 255, 0);fill-opacity:0;fill-rule:evenodd;stroke:rgb(166, 0, 255);stroke-width:1;" d="M 91.4874, 162.208 L 110.009, 136.95 L 115.996, 139.383 L 121.422, 131.899 L 127.222, 134.518 L 103.461, 167.259 L 91.4874, 162.208 z "/>
<path style="fill:rgb(0, 0, 255);fill-opacity:0;fill-rule:evenodd;stroke:rgb(166, 0, 255);stroke-width:1;" d="M 50.7016, 228.999 L 73.1525, 198.129 L 84.1908, 202.806 L 66.6043, 227.128 L 61.927, 233.676 L 50.7016, 228.999 z "/>
<path style="fill:rgb(255, 255, 0);fill-opacity:0;fill-rule:evenodd;stroke:rgb(166, 0, 255);stroke-width:1;" d="M 40.5987, 222.638 L 44.1534, 217.587 L 61.7399, 193.452 L 73.1525, 198.129 L 50.7016, 228.999 L 45.0889, 226.754 L 46.2114, 225.07 L 40.5987, 222.638 z "/>
<path style="fill:rgb(255, 0, 0);fill-opacity:0;fill-rule:evenodd;stroke:rgb(166, 0, 255);stroke-width:1;" d="M 84.9392, 400.561 L 107.951, 368.943 L 119.738, 373.994 L 100.281, 400.561 L 93.7325, 397.755 L 90.1777, 402.806 L 84.9392, 400.561 z "/>
<path style="fill:rgb(0, 255, 0);fill-opacity:0;fill-rule:evenodd;stroke:rgb(166, 0, 255);stroke-width:1;" d="M 121.609, 260.992 L 145.182, 228.438 L 156.782, 233.302 L 138.26, 258.746 L 133.209, 256.501 L 127.97, 263.611 L 121.609, 260.992 z "/>
<path style="fill:rgb(0, 0, 255);fill-opacity:0;fill-rule:evenodd;stroke:rgb(166, 0, 255);stroke-width:1;" d="M 52.5725, 380.543 L 72.0299, 353.789 L 84.0037, 358.84 L 64.5463, 385.594 L 56.6885, 382.226 L 52.5725, 380.543 z "/>
<path style="fill:rgb(255, 255, 0);fill-opacity:0;fill-rule:evenodd;stroke:rgb(166, 0, 255);stroke-width:1;" d="M 140.879, 492.236 L 158.84, 467.54 L 165.014, 470.159 L 169.691, 463.798 L 174.743, 466.043 L 152.105, 497.1 L 140.879, 492.236 z "/>
<path style="fill:rgb(255, 0, 0);fill-opacity:0;fill-rule:evenodd;stroke:rgb(166, 0, 255);stroke-width:1;" d="M 176.427, 197.942 L 197.381, 169.13 L 202.806, 171.375 L 198.69, 177.175 L 205.051, 179.794 L 188.213, 202.993 L 176.427, 197.942 z "/>
<path style="fill:rgb(0, 255, 0);fill-opacity:0;fill-rule:evenodd;stroke:rgb(166, 0, 255);stroke-width:1;" d="M 165.762, 502.713 L 183.723, 478.204 L 189.523, 480.636 L 194.2, 474.275 L 199.439, 476.333 L 176.801, 507.39 L 165.762, 502.713 z "/>
<path style="fill:rgb(0, 0, 255);fill-opacity:0;fill-rule:evenodd;stroke:rgb(166, 0, 255);stroke-width:1;" d="M 165.762, 193.452 L 182.788, 170.253 L 187.465, 172.123 L 191.581, 166.698 L 197.381, 169.13 L 176.427, 197.942 L 165.762, 193.452 z "/>
<path style="fill:rgb(255, 255, 0);fill-opacity:0;fill-rule:evenodd;stroke:rgb(166, 0, 255);stroke-width:1;" d="M 48.4565, 393.452 L 56.6885, 382.226 L 64.5463, 385.594 L 56.3143, 396.819 L 48.4565, 393.452 z "/>
<path style="fill:rgb(255, 0, 0);fill-opacity:0;fill-rule:evenodd;stroke:rgb(166, 0, 255);stroke-width:1;" d="M 692.236, 567.072 L 696.913, 560.337 L 703.835, 562.956 L 699.158, 569.878 L 692.236, 567.072 z "/>
<path style="fill:rgb(0, 255, 0);fill-opacity:0;fill-rule:evenodd;stroke:rgb(166, 0, 255);stroke-width:1;" d="M 0, 749.673 L 17.7736, 725.351 L 22.0767, 727.222 L 54.4434, 682.694 L 49.9532, 680.823 L 68.101, 656.501 L 187.091, 707.203 L 144.434, 765.201 L 142.376, 764.266 L 133.209, 776.801 L 135.267, 777.736 L 118.803, 800 L 0, 749.673 z M 52.9467, 741.066 L 101.216, 761.459 L 109.261, 750.608 L 96.1646, 745.182 L 113.377, 720.861 L 127.035, 726.66 L 133.957, 717.119 L 87.1843, 697.287 L 82.507, 698.971 L 80.2619, 706.642 L 89.2423, 710.196 L 70.9074, 735.641 L 60.2432, 730.964 L 52.9467, 741.066 z "/>
<path style="fill:rgb(0, 0, 255);fill-opacity:0;fill-rule:evenodd;stroke:rgb(166, 0, 255);stroke-width:1;" d="M 26.754, 76.8943 L 58.5594, 33.1151 L 88.681, 45.6501 L 81.0103, 56.1272 L 75.5847, 53.8821 L 59.6819, 75.5847 L 62.6754, 76.8943 L 54.2563, 88.4939 L 26.754, 76.8943 z "/>
<path style="fill:rgb(255, 255, 0);fill-opacity:0;fill-rule:evenodd;stroke:rgb(166, 0, 255);stroke-width:1;" d="M 35.3601, 542.189 L 62.6754, 504.771 L 77.0814, 510.945 L 56.8756, 538.447 L 52.9467, 536.763 L 45.8372, 546.679 L 35.3601, 542.189 z "/>
<path style="fill:rgb(255, 0, 0);fill-opacity:0;fill-rule:evenodd;stroke:rgb(166, 0, 255);stroke-width:1;" d="M 31.2442, 388.4 L 37.2311, 380.355 L 60.0561, 348.924 L 72.0299, 353.789 L 52.5725, 380.543 L 43.218, 393.452 L 31.2442, 388.4 z "/>
<path style="fill:rgb(0, 255, 0);fill-opacity:0;fill-rule:evenodd;stroke:rgb(166, 0, 255);stroke-width:1;" d="M 38.1665, 294.668 L 57.811, 267.727 L 61.1787, 269.036 L 65.8559, 262.675 L 68.4752, 261.179 L 71.4687, 257.063 L 79.3265, 260.43 L 50.7016, 299.906 L 38.1665, 294.668 z "/>
<path style="fill:rgb(0, 0, 255);fill-opacity:0;fill-rule:evenodd;stroke:rgb(166, 0, 255);stroke-width:1;" d="M 35.9214, 605.051 L 59.1207, 573.433 L 67.9139, 577.175 L 62.4883, 584.471 L 66.9785, 586.342 L 49.2049, 610.664 L 35.9214, 605.051 z "/>
<path style="fill:rgb(255, 255, 0);fill-opacity:0;fill-rule:evenodd;stroke:rgb(166, 0, 255);stroke-width:1;" d="M 26.3798, 289.616 L 51.0758, 255.753 L 57.6239, 258.559 L 52.5725, 265.482 L 57.811, 267.727 L 38.1665, 294.668 L 26.3798, 289.616 z "/>
<path style="fill:rgb(255, 0, 0);fill-opacity:0;fill-rule:evenodd;stroke:rgb(166, 0, 255);stroke-width:1;" d="M 29.9345, 136.389 L 46.3985, 113.564 L 50.8887, 115.435 L 59.4949, 103.461 L 66.9785, 106.642 L 41.7212, 141.441 L 29.9345, 136.389 z "/>
<path style="fill:rgb(0, 255, 0);fill-opacity:0;fill-rule:evenodd;stroke:rgb(166, 0, 255);stroke-width:1;" d="M 34.7989, 447.708 L 59.3078, 414.032 L 65.2947, 416.651 L 60.0561, 423.948 L 65.8559, 426.38 L 46.5856, 452.572 L 34.7989, 447.708 z "/>
<path style="fill:rgb(0, 0, 255);fill-opacity:0;fill-rule:evenodd;stroke:rgb(166, 0, 255);stroke-width:1;" d="M 27.8765, 219.457 L 50.3274, 188.587 L 61.7399, 193.452 L 44.1534, 217.587 L 38.3536, 215.154 L 33.4892, 221.703 L 27.8765, 219.457 z "/>
<path style="fill:rgb(255, 255, 0);fill-opacity:0;fill-rule:evenodd;stroke:rgb(166, 0, 255);stroke-width:1;" d="M 972.872, 4.30309 L 1057.81, 0.748363 L 1070.53, 8.60617 L 1069.97, 0.187091 L 1073.34, 0 L 1073.71, 3.92891 L 1074.28, 12.1609 L 1067.73, 12.348 L 1064.17, 16.2769 L 1064.55, 20.9542 L 1060.99, 21.1413 L 1060.8, 17.9607 L 1061.74, 16.0898 L 1054.44, 11.4125 L 1025.07, 12.7222 L 1025.44, 16.0898 L 1007.3, 16.8382 L 1007.11, 14.0318 L 1004.49, 14.2189 L 1007.86, 62.3012 L 1011.79, 64.5463 L 1043.78, 63.2367 L 1063.8, 46.2114 L 1063.42, 44.9018 L 1063.42, 43.4051 L 1062.49, 43.4051 L 1062.3, 40.7858 L 1065.86, 40.5987 L 1066.04, 43.218 L 1065.67, 43.218 L 1066.23, 44.9018 L 1067.54, 46.3985 L 1069.41, 47.7081 L 1072.4, 48.2694 L 1072.4, 47.7081 L 1077.08, 47.521 L 1077.27, 51.8241 L 1074.09, 52.0112 L 1048.64, 73.5267 L 984.659, 76.1459 L 983.162, 55.0047 L 976.614, 55.1918 L 972.872, 4.30309 z "/>
</svg>