<?xml version="1.0" encoding="iso-8859-1" standalone="no"?>
<!DOCTYPE svg PUBLIC "-//W3C//DTD SVG 1.0//EN" "http://www.w3.org/TR/2001/REC-SVG-20010904/DTD/svg10.dtd">
<svg xmlns="http://www.w3.org/2000/svg" width="968" height="800">
<path style="fill:rgb(255, 0, 0);fill-opacity:0;fill-rule:evenodd;stroke:rgb(0, 255, 92);stroke-width:1;" d="M 868.712, 239.877 L 916.564, 208.589 L 968.098, 253.988 L 920.859, 285.276 L 868.712, 239.877 z "/>
<path style="fill:rgb(0, 255, 0);fill-opacity:0;fill-rule:evenodd;stroke:rgb(0, 255, 92);stroke-width:1;" d="M 712.27, 31.2883 L 760.736, 0 L 793.252, 29.4479 L 744.785, 60.7362 L 712.27, 31.2883 z "/>
<path style="fill:rgb(0, 0, 255);fill-opacity:0;fill-rule:evenodd;stroke:rgb(0, 255, 92);stroke-width:1;" d="M 620.245, 63.8037 L 621.472, 59.5092 L 624.54, 55.8282 L 629.448, 53.9877 L 634.356, 53.3742 L 639.877, 53.9877 L 642.331, 55.2147 L 661.35, 73.0061 L 641.104, 85.8896 L 622.086, 68.0982 L 620.245, 63.8037 z "/>
<path style="fill:rgb(255, 255, 0);fill-opacity:0;fill-rule:evenodd;stroke:rgb(0, 255, 92);stroke-width:1;" d="M 0, 311.043 L 95.092, 250.307 L 640.491, 737.423 L 543.558, 800 L 393.252, 665.644 L 419.018, 650.92 L 458.896, 624.54 L 307.975, 492.638 L 268.098, 518.405 L 246.626, 531.288 L 0, 311.043 z "/>
</svg>