<?xml version="1.0" encoding="iso-8859-1" standalone="no"?>
<!DOCTYPE svg PUBLIC "-//W3C//DTD SVG 1.0//EN" "http://www.w3.org/TR/2001/REC-SVG-20010904/DTD/svg10.dtd">
<svg xmlns="http://www.w3.org/2000/svg" width="1071" height="800">
<path style="fill:rgb(255, 0, 0);fill-opacity:0;fill-rule:evenodd;stroke:rgb(226, 255, 0);stroke-width:1;" d="M 531.352, 354.433 L 549.183, 329.866 L 600.495, 351.461 L 615.156, 330.263 L 632.59, 303.517 L 649.232, 273.006 L 663.299, 244.874 L 680.139, 207.033 L 737.989, 229.421 L 748.489, 233.977 L 783.754, 249.43 L 822.585, 266.072 L 770.679, 312.432 L 745.121, 339.178 L 727.687, 358.593 L 709.46, 382.368 L 713.819, 384.349 L 746.31, 397.821 L 758.395, 380.783 L 773.65, 359.584 L 870.926, 400 L 874.492, 395.047 L 901.833, 405.944 L 880.832, 431.699 L 725.904, 622.684 L 622.288, 578.504 L 593.363, 617.93 L 584.646, 631.6 L 583.457, 633.185 L 539.673, 614.562 L 540.664, 613.175 L 640.515, 475.483 L 641.308, 474.294 L 680.535, 490.144 L 716.989, 438.237 L 680.139, 422.982 L 669.44, 439.227 L 567.806, 396.632 L 583.061, 377.018 L 531.352, 354.433 z "/>
<path style="fill:rgb(0, 255, 0);fill-opacity:0;fill-rule:evenodd;stroke:rgb(226, 255, 0);stroke-width:1;" d="M 567.806, 396.632 L 583.061, 377.018 L 600.495, 351.461 L 615.156, 330.263 L 632.59, 303.517 L 649.232, 273.006 L 663.299, 244.874 L 680.139, 207.033 L 737.989, 229.421 L 748.489, 233.977 L 783.754, 249.43 L 822.585, 266.072 L 770.679, 312.432 L 745.121, 339.178 L 727.687, 358.593 L 709.46, 382.368 L 680.139, 422.982 L 669.44, 439.227 L 567.806, 396.632 z "/>
<path style="fill:rgb(0, 0, 255);fill-opacity:0;fill-rule:evenodd;stroke:rgb(226, 255, 0);stroke-width:1;" d="M 627.836, 570.778 L 636.355, 559.287 L 684.497, 493.314 L 685.488, 492.125 L 684.101, 491.53 L 680.535, 490.144 L 716.989, 438.237 L 746.31, 397.821 L 758.395, 380.783 L 873.304, 428.529 L 725.706, 609.609 L 627.836, 570.778 z "/>
<path style="fill:rgb(255, 255, 0);fill-opacity:0;fill-rule:evenodd;stroke:rgb(226, 255, 0);stroke-width:1;" d="M 636.355, 559.287 L 684.497, 493.314 L 685.488, 492.125 L 684.101, 491.53 L 746.112, 405.944 L 754.037, 409.51 L 763.943, 397.623 L 836.057, 426.35 L 713.621, 592.372 L 636.355, 559.287 z "/>
<path style="fill:rgb(255, 0, 0);fill-opacity:0;fill-rule:evenodd;stroke:rgb(226, 255, 0);stroke-width:1;" d="M 486.776, 607.429 L 495.295, 596.533 L 539.673, 614.562 L 583.457, 633.185 L 584.646, 631.6 L 593.363, 617.93 L 689.45, 657.949 L 651.61, 704.705 L 503.616, 642.1 L 519.069, 621.1 L 486.776, 607.429 z "/>
<path style="fill:rgb(0, 255, 0);fill-opacity:0;fill-rule:evenodd;stroke:rgb(226, 255, 0);stroke-width:1;" d="M 539.673, 614.562 L 540.664, 613.175 L 640.515, 475.483 L 641.308, 474.294 L 680.535, 490.144 L 684.101, 491.53 L 685.488, 492.125 L 684.497, 493.314 L 636.355, 559.287 L 627.836, 570.778 L 622.288, 578.504 L 593.363, 617.93 L 584.646, 631.6 L 583.457, 633.185 L 539.673, 614.562 z "/>
<path style="fill:rgb(0, 0, 255);fill-opacity:0;fill-rule:evenodd;stroke:rgb(226, 255, 0);stroke-width:1;" d="M 540.664, 613.175 L 640.515, 475.483 L 684.497, 493.314 L 636.355, 559.287 L 627.836, 570.778 L 622.288, 578.504 L 593.363, 617.93 L 584.646, 631.6 L 540.664, 613.175 z "/>
<path style="fill:rgb(255, 255, 0);fill-opacity:0;fill-rule:evenodd;stroke:rgb(226, 255, 0);stroke-width:1;" d="M 319.168, 243.487 L 355.423, 195.146 L 389.698, 209.014 L 391.283, 209.609 L 466.568, 240.515 L 462.803, 247.251 L 458.247, 253.393 L 453.294, 260.525 L 438.039, 281.922 L 432.095, 290.441 L 421.793, 286.28 L 319.168, 243.487 z "/>
<path style="fill:rgb(255, 0, 0);fill-opacity:0;fill-rule:evenodd;stroke:rgb(226, 255, 0);stroke-width:1;" d="M 202.873, 242.1 L 210.005, 232.392 L 309.262, 274.195 L 350.272, 291.63 L 333.036, 315.206 L 315.998, 338.782 L 206.637, 293.016 L 234.175, 255.374 L 202.873, 242.1 z "/>
<path style="fill:rgb(0, 255, 0);fill-opacity:0;fill-rule:evenodd;stroke:rgb(226, 255, 0);stroke-width:1;" d="M 337.197, 571.57 L 364.933, 533.73 L 499.257, 590.589 L 495.295, 596.533 L 486.776, 607.429 L 471.521, 628.43 L 337.197, 571.57 z "/>
<path style="fill:rgb(0, 0, 255);fill-opacity:0;fill-rule:evenodd;stroke:rgb(226, 255, 0);stroke-width:1;" d="M 244.279, 209.609 L 302.13, 128.975 L 307.281, 121.842 L 366.122, 146.211 L 361.169, 153.343 L 323.725, 204.061 L 262.704, 217.335 L 244.279, 209.609 z "/>
<path style="fill:rgb(255, 255, 0);fill-opacity:0;fill-rule:evenodd;stroke:rgb(226, 255, 0);stroke-width:1;" d="M 319.168, 243.487 L 355.423, 195.146 L 389.698, 209.014 L 391.283, 209.609 L 394.453, 219.515 L 397.424, 228.628 L 400.594, 238.534 L 453.294, 260.525 L 438.039, 281.922 L 421.793, 286.28 L 319.168, 243.487 z "/>
<path style="fill:rgb(255, 0, 0);fill-opacity:0;fill-rule:evenodd;stroke:rgb(226, 255, 0);stroke-width:1;" d="M 158.692, 335.215 L 167.608, 322.932 L 168.4, 321.743 L 177.117, 325.508 L 187.023, 312.036 L 178.306, 308.271 L 178.9, 307.479 L 188.014, 294.998 L 212.977, 305.498 L 204.061, 317.583 L 210.996, 320.555 L 209.609, 322.536 L 216.147, 325.31 L 226.449, 311.243 L 251.412, 321.743 L 241.109, 335.81 L 254.185, 341.357 L 264.487, 327.291 L 288.856, 337.593 L 278.752, 351.659 L 291.63, 357.207 L 301.932, 343.14 L 310.451, 346.706 L 301.734, 358.791 L 313.422, 363.744 L 305.102, 375.235 L 303.12, 374.443 L 300.743, 377.613 L 307.677, 380.584 L 306.686, 381.773 L 297.771, 394.056 L 272.412, 383.358 L 283.309, 368.499 L 270.629, 363.15 L 259.733, 378.009 L 234.77, 367.311 L 245.666, 352.452 L 232.59, 346.904 L 221.892, 361.763 L 196.731, 351.263 L 207.628, 336.404 L 194.948, 331.055 L 184.052, 345.914 L 158.692, 335.215 z "/>
<path style="fill:rgb(0, 255, 0);fill-opacity:0;fill-rule:evenodd;stroke:rgb(226, 255, 0);stroke-width:1;" d="M 357.603, 755.82 L 360.575, 715.007 L 385.537, 698.366 L 415.651, 699.752 L 438.831, 718.772 L 435.661, 759.188 L 409.906, 776.424 L 379.792, 775.037 L 357.603, 755.82 z "/>
<path style="fill:rgb(0, 0, 255);fill-opacity:0;fill-rule:evenodd;stroke:rgb(226, 255, 0);stroke-width:1;" d="M 72.5111, 225.062 L 101.04, 186.231 L 111.937, 190.788 L 109.163, 194.552 L 185.636, 226.845 L 196.137, 231.402 L 198.91, 227.637 L 210.005, 232.392 L 202.873, 242.1 L 181.674, 271.223 L 72.5111, 225.062 z "/>
<path style="fill:rgb(255, 255, 0);fill-opacity:0;fill-rule:evenodd;stroke:rgb(226, 255, 0);stroke-width:1;" d="M 389.698, 209.014 L 402.576, 190.391 L 410.104, 179.693 L 418.227, 168.004 L 423.18, 161.268 L 500.644, 192.967 L 466.568, 240.515 L 391.283, 209.609 L 389.698, 209.014 z "/>
<path style="fill:rgb(255, 0, 0);fill-opacity:0;fill-rule:evenodd;stroke:rgb(226, 255, 0);stroke-width:1;" d="M 101.238, 148.985 L 123.824, 117.88 L 129.371, 110.352 L 228.034, 152.155 L 199.901, 190.589 L 189.599, 186.231 L 192.372, 182.467 L 130.362, 156.315 L 114.71, 149.579 L 111.937, 153.541 L 101.238, 148.985 z "/>
<path style="fill:rgb(0, 255, 0);fill-opacity:0;fill-rule:evenodd;stroke:rgb(226, 255, 0);stroke-width:1;" d="M 648.242, 324.715 L 649.034, 319.168 L 650.025, 316.592 L 652.204, 312.432 L 655.968, 307.677 L 660.129, 304.111 L 664.091, 301.337 L 666.469, 300.149 L 668.45, 299.158 L 671.223, 298.167 L 675.978, 296.582 L 679.941, 295.79 L 682.714, 295.394 L 685.092, 295.196 L 688.856, 294.998 L 693.214, 295.196 L 698.366, 295.988 L 702.13, 296.781 L 706.092, 297.969 L 708.073, 298.762 L 711.639, 300.347 L 715.404, 302.526 L 717.385, 303.913 L 719.762, 305.894 L 721.347, 307.281 L 723.13, 309.262 L 724.715, 311.441 L 726.3, 314.017 L 727.489, 316.394 L 728.479, 318.772 L 729.074, 320.951 L 729.272, 322.734 L 729.47, 324.517 L 729.272, 329.272 L 728.479, 332.442 L 727.885, 334.423 L 726.102, 338.187 L 724.121, 341.159 L 722.338, 343.14 L 720.357, 345.319 L 717.781, 347.499 L 715.404, 349.282 L 712.828, 350.669 L 710.847, 351.659 L 706.488, 353.64 L 701.337, 355.027 L 697.771, 355.82 L 694.007, 356.414 L 690.441, 356.612 L 686.28, 356.612 L 681.129, 356.018 L 678.356, 355.622 L 675.384, 354.829 L 672.412, 354.037 L 668.252, 352.452 L 665.676, 351.065 L 661.714, 348.687 L 657.751, 345.518 L 655.374, 343.338 L 653.393, 340.961 L 651.808, 338.385 L 650.025, 335.017 L 649.034, 332.244 L 648.242, 328.479 L 648.242, 324.715 z "/>
<path style="fill:rgb(0, 0, 255);fill-opacity:0;fill-rule:evenodd;stroke:rgb(226, 255, 0);stroke-width:1;" d="M 83.4076, 650.619 L 100.842, 626.845 L 119.663, 634.77 L 127.984, 623.477 L 108.965, 615.552 L 126.201, 591.778 L 145.22, 599.703 L 153.145, 588.806 L 134.324, 580.882 L 151.56, 557.306 L 187.618, 572.363 L 179.495, 583.655 L 174.938, 589.599 L 162.259, 606.835 L 145.022, 630.609 L 140.466, 636.949 L 132.937, 647.053 L 119.465, 665.676 L 83.4076, 650.619 z "/>
<path style="fill:rgb(255, 255, 0);fill-opacity:0;fill-rule:evenodd;stroke:rgb(226, 255, 0);stroke-width:1;" d="M 186.627, 509.163 L 202.873, 486.974 L 215.75, 492.521 L 215.354, 493.115 L 220.307, 495.097 L 230.807, 480.832 L 225.458, 478.455 L 224.864, 479.445 L 211.986, 473.898 L 229.817, 449.331 L 248.242, 457.256 L 258.544, 443.19 L 252.798, 440.812 L 252.402, 441.407 L 240.119, 436.057 L 256.563, 413.868 L 291.63, 428.727 L 281.922, 442.001 L 276.374, 449.331 L 265.28, 464.388 L 247.845, 488.162 L 238.336, 501.238 L 232.194, 509.361 L 221.694, 524.022 L 186.627, 509.163 z "/>
<path style="fill:rgb(255, 0, 0);fill-opacity:0;fill-rule:evenodd;stroke:rgb(226, 255, 0);stroke-width:1;" d="M 489.946, 125.211 L 506.191, 103.021 L 493.115, 97.6721 L 497.276, 91.9267 L 511.738, 72.313 L 524.418, 77.6622 L 563.447, 94.106 L 573.353, 98.2665 L 538.683, 145.815 L 528.975, 141.654 L 489.946, 125.211 z "/>
<path style="fill:rgb(0, 255, 0);fill-opacity:0;fill-rule:evenodd;stroke:rgb(226, 255, 0);stroke-width:1;" d="M 78.8509, 301.337 L 87.9643, 288.856 L 97.8702, 293.016 L 108.767, 278.158 L 98.8608, 273.997 L 108.172, 261.119 L 188.014, 294.998 L 178.9, 307.479 L 167.806, 302.922 L 157.9, 316.394 L 157.702, 318.574 L 167.608, 322.932 L 158.692, 335.215 L 78.8509, 301.337 z M 119.663, 299.95 L 120.456, 302.724 L 136.305, 309.262 L 147.202, 294.403 L 129.173, 286.875 L 119.663, 299.95 z "/>
<path style="fill:rgb(0, 0, 255);fill-opacity:0;fill-rule:evenodd;stroke:rgb(226, 255, 0);stroke-width:1;" d="M 262.704, 217.335 L 320.753, 136.503 L 361.169, 153.343 L 323.725, 204.061 L 262.704, 217.335 z "/>
<path style="fill:rgb(255, 255, 0);fill-opacity:0;fill-rule:evenodd;stroke:rgb(226, 255, 0);stroke-width:1;" d="M 409.51, 104.21 L 437.048, 66.5676 L 497.276, 91.9267 L 493.115, 97.6721 L 469.936, 129.569 L 437.841, 115.899 L 409.51, 104.21 z "/>
<path style="fill:rgb(255, 0, 0);fill-opacity:0;fill-rule:evenodd;stroke:rgb(226, 255, 0);stroke-width:1;" d="M 404.557, 212.58 L 413.868, 199.505 L 408.519, 197.325 L 408.717, 192.769 L 410.5, 187.618 L 413.076, 183.457 L 415.849, 180.089 L 419.812, 176.523 L 425.359, 173.353 L 483.011, 196.929 L 465.181, 222.09 L 454.482, 217.732 L 447.945, 214.958 L 444.577, 219.713 L 441.407, 224.269 L 420.604, 215.948 L 418.821, 218.326 L 404.557, 212.58 z "/>
<path style="fill:rgb(0, 255, 0);fill-opacity:0;fill-rule:evenodd;stroke:rgb(226, 255, 0);stroke-width:1;" d="M 489.946, 125.211 L 506.191, 103.021 L 524.418, 77.6622 L 563.447, 94.106 L 560.079, 94.8985 L 527.786, 139.277 L 528.975, 141.654 L 489.946, 125.211 z "/>
<path style="fill:rgb(0, 0, 255);fill-opacity:0;fill-rule:evenodd;stroke:rgb(226, 255, 0);stroke-width:1;" d="M 355.423, 195.146 L 368.499, 176.523 L 375.83, 166.023 L 380.981, 158.692 L 384.151, 154.334 L 388.905, 147.4 L 391.085, 148.39 L 399.604, 151.758 L 401.189, 152.353 L 409.708, 155.919 L 411.095, 156.315 L 421, 160.277 L 423.18, 161.268 L 418.227, 168.004 L 410.104, 179.693 L 402.576, 190.391 L 389.698, 209.014 L 355.423, 195.146 z "/>
<path style="fill:rgb(255, 255, 0);fill-opacity:0;fill-rule:evenodd;stroke:rgb(226, 255, 0);stroke-width:1;" d="M 680.139, 422.982 L 709.46, 382.368 L 713.819, 384.349 L 746.31, 397.821 L 716.989, 438.237 L 680.139, 422.982 z "/>
<path style="fill:rgb(255, 0, 0);fill-opacity:0;fill-rule:evenodd;stroke:rgb(226, 255, 0);stroke-width:1;" d="M 244.279, 209.609 L 302.13, 128.975 L 320.753, 136.503 L 262.704, 217.335 L 244.279, 209.609 z "/>
<path style="fill:rgb(0, 255, 0);fill-opacity:0;fill-rule:evenodd;stroke:rgb(226, 255, 0);stroke-width:1;" d="M 333.036, 315.206 L 350.272, 291.63 L 413.076, 318.177 L 395.84, 341.753 L 349.876, 322.338 L 333.036, 315.206 z "/>
<path style="fill:rgb(0, 0, 255);fill-opacity:0;fill-rule:evenodd;stroke:rgb(226, 255, 0);stroke-width:1;" d="M 463.596, 138.286 L 469.936, 129.569 L 493.115, 97.6721 L 506.191, 103.021 L 489.946, 125.211 L 528.975, 141.654 L 538.683, 145.815 L 526.597, 162.259 L 521.248, 163.645 L 473.304, 143.635 L 474.096, 142.645 L 463.596, 138.286 z "/>
<path style="fill:rgb(255, 255, 0);fill-opacity:0;fill-rule:evenodd;stroke:rgb(226, 255, 0);stroke-width:1;" d="M 63.9921, 384.943 L 73.1055, 372.263 L 84.2001, 377.018 L 93.9079, 363.744 L 91.7286, 362.754 L 92.7192, 361.565 L 83.8039, 357.801 L 86.5775, 353.839 L 92.9173, 345.121 L 134.72, 362.754 L 133.73, 364.339 L 126.003, 375.037 L 116.493, 371.075 L 115.305, 372.66 L 113.918, 372.065 L 104.012, 385.736 L 114.908, 390.292 L 105.993, 402.576 L 63.9921, 384.943 z "/>
<path style="fill:rgb(255, 0, 0);fill-opacity:0;fill-rule:evenodd;stroke:rgb(226, 255, 0);stroke-width:1;" d="M 316.592, 339.772 L 325.706, 327.291 L 341.357, 333.829 L 349.876, 322.338 L 395.84, 341.753 L 378.207, 365.924 L 324.121, 342.942 L 316.592, 339.772 z "/>
<path style="fill:rgb(0, 255, 0);fill-opacity:0;fill-rule:evenodd;stroke:rgb(226, 255, 0);stroke-width:1;" d="M 199.901, 190.589 L 228.034, 152.155 L 258.544, 164.834 L 230.411, 203.467 L 199.901, 190.589 z "/>
<path style="fill:rgb(0, 0, 255);fill-opacity:0;fill-rule:evenodd;stroke:rgb(226, 255, 0);stroke-width:1;" d="M 711.441, 210.401 L 717.979, 201.288 L 725.111, 191.184 L 777.811, 212.977 L 763.943, 232.194 L 753.442, 227.836 L 748.489, 233.977 L 737.989, 229.421 L 742.546, 223.279 L 711.441, 210.401 z "/>
<path style="fill:rgb(255, 255, 0);fill-opacity:0;fill-rule:evenodd;stroke:rgb(226, 255, 0);stroke-width:1;" d="M 315.404, 385.537 L 333.036, 361.367 L 370.084, 377.018 L 352.452, 401.189 L 315.404, 385.537 z "/>
<path style="fill:rgb(255, 0, 0);fill-opacity:0;fill-rule:evenodd;stroke:rgb(226, 255, 0);stroke-width:1;" d="M 471.521, 628.43 L 486.776, 607.429 L 519.069, 621.1 L 503.616, 642.1 L 471.521, 628.43 z "/>
<path style="fill:rgb(0, 255, 0);fill-opacity:0;fill-rule:evenodd;stroke:rgb(226, 255, 0);stroke-width:1;" d="M 355.423, 195.146 L 368.499, 176.523 L 402.576, 190.391 L 389.698, 209.014 L 355.423, 195.146 z "/>
<path style="fill:rgb(0, 0, 255);fill-opacity:0;fill-rule:evenodd;stroke:rgb(226, 255, 0);stroke-width:1;" d="M 426.944, 205.25 L 427.737, 202.08 L 428.925, 199.901 L 430.312, 198.118 L 431.897, 196.533 L 433.284, 195.542 L 435.265, 194.552 L 437.444, 193.561 L 440.02, 192.769 L 443.388, 192.372 L 445.567, 192.174 L 448.143, 192.372 L 452.501, 193.363 L 455.077, 194.552 L 457.256, 195.74 L 459.633, 197.722 L 460.624, 198.91 L 462.209, 201.486 L 463.2, 204.26 L 463.2, 207.628 L 462.407, 210.005 L 461.417, 212.184 L 460.426, 213.373 L 458.841, 214.958 L 456.067, 216.939 L 454.482, 217.732 L 452.699, 218.524 L 450.52, 219.118 L 447.945, 219.515 L 444.577, 219.713 L 442.793, 219.713 L 440.614, 219.316 L 437.642, 218.524 L 435.859, 217.732 L 434.274, 216.939 L 431.699, 215.156 L 430.51, 214.165 L 429.321, 212.779 L 427.935, 210.203 L 427.142, 207.826 L 426.944, 205.25 z "/>
<path style="fill:rgb(255, 255, 0);fill-opacity:0;fill-rule:evenodd;stroke:rgb(226, 255, 0);stroke-width:1;" d="M 71.1243, 136.305 L 72.1149, 134.918 L 74.2942, 132.145 L 76.2754, 129.371 L 78.4547, 126.399 L 102.625, 93.1154 L 103.418, 91.9267 L 116.493, 97.474 L 106.984, 110.748 L 84.2001, 141.852 L 71.1243, 136.305 z "/>
<path style="fill:rgb(255, 0, 0);fill-opacity:0;fill-rule:evenodd;stroke:rgb(226, 255, 0);stroke-width:1;" d="M 297.771, 394.056 L 306.686, 381.773 L 315.404, 385.537 L 352.452, 401.189 L 343.536, 413.274 L 297.771, 394.056 z "/>
<path style="fill:rgb(0, 255, 0);fill-opacity:0;fill-rule:evenodd;stroke:rgb(226, 255, 0);stroke-width:1;" d="M 84.2001, 141.852 L 106.984, 110.748 L 123.824, 117.88 L 101.238, 148.985 L 84.2001, 141.852 z "/>
<path style="fill:rgb(0, 0, 255);fill-opacity:0;fill-rule:evenodd;stroke:rgb(226, 255, 0);stroke-width:1;" d="M 320.753, 347.697 L 324.121, 342.942 L 378.207, 365.924 L 370.084, 377.018 L 333.036, 361.367 L 331.649, 360.773 L 334.225, 357.207 L 325.31, 353.442 L 327.489, 350.471 L 320.753, 347.697 z "/>
<path style="fill:rgb(255, 255, 0);fill-opacity:0;fill-rule:evenodd;stroke:rgb(226, 255, 0);stroke-width:1;" d="M 391.283, 209.609 L 466.568, 240.515 L 462.803, 247.251 L 394.453, 219.515 L 391.283, 209.609 z "/>
<path style="fill:rgb(255, 0, 0);fill-opacity:0;fill-rule:evenodd;stroke:rgb(226, 255, 0);stroke-width:1;" d="M 108.965, 615.552 L 126.201, 591.778 L 145.22, 599.703 L 127.984, 623.477 L 108.965, 615.552 z "/>
<path style="fill:rgb(0, 255, 0);fill-opacity:0;fill-rule:evenodd;stroke:rgb(226, 255, 0);stroke-width:1;" d="M 211.986, 473.898 L 229.817, 449.331 L 248.242, 457.256 L 230.807, 480.832 L 225.458, 478.455 L 224.864, 479.445 L 211.986, 473.898 z "/>
<path style="fill:rgb(0, 0, 255);fill-opacity:0;fill-rule:evenodd;stroke:rgb(226, 255, 0);stroke-width:1;" d="M 302.13, 128.975 L 307.281, 121.842 L 366.122, 146.211 L 361.169, 153.343 L 320.753, 136.503 L 302.13, 128.975 z "/>
<path style="fill:rgb(255, 255, 0);fill-opacity:0;fill-rule:evenodd;stroke:rgb(226, 255, 0);stroke-width:1;" d="M 127.984, 623.477 L 145.22, 599.703 L 146.607, 600.297 L 152.551, 602.675 L 160.475, 606.043 L 162.259, 606.835 L 145.022, 630.609 L 143.239, 629.817 L 134.918, 626.449 L 129.371, 624.071 L 127.984, 623.477 z "/>
<path style="fill:rgb(255, 0, 0);fill-opacity:0;fill-rule:evenodd;stroke:rgb(226, 255, 0);stroke-width:1;" d="M 230.807, 480.832 L 248.242, 457.256 L 249.629, 457.85 L 254.978, 460.03 L 263.497, 463.596 L 265.28, 464.388 L 247.845, 488.162 L 246.062, 487.37 L 237.543, 483.606 L 232.194, 481.426 L 230.807, 480.832 z "/>
<path style="fill:rgb(0, 255, 0);fill-opacity:0;fill-rule:evenodd;stroke:rgb(226, 255, 0);stroke-width:1;" d="M 394.453, 219.515 L 462.803, 247.251 L 458.247, 253.393 L 397.424, 228.628 L 394.453, 219.515 z "/>
<path style="fill:rgb(0, 0, 255);fill-opacity:0;fill-rule:evenodd;stroke:rgb(226, 255, 0);stroke-width:1;" d="M 59.2372, 74.8886 L 65.7751, 65.7751 L 109.163, 84.2001 L 103.418, 91.9267 L 102.625, 93.1154 L 71.3224, 79.8415 L 67.162, 78.2566 L 63.1996, 76.4735 L 59.2372, 74.8886 z "/>
<path style="fill:rgb(255, 255, 0);fill-opacity:0;fill-rule:evenodd;stroke:rgb(226, 255, 0);stroke-width:1;" d="M 397.424, 228.628 L 458.247, 253.393 L 453.294, 260.525 L 400.594, 238.534 L 397.424, 228.628 z "/>
<path style="fill:rgb(255, 0, 0);fill-opacity:0;fill-rule:evenodd;stroke:rgb(226, 255, 0);stroke-width:1;" d="M 528.975, 141.654 L 563.447, 94.106 L 573.353, 98.2665 L 570.183, 98.8608 L 538.286, 142.843 L 538.683, 145.815 L 528.975, 141.654 z "/>
<path style="fill:rgb(0, 255, 0);fill-opacity:0;fill-rule:evenodd;stroke:rgb(226, 255, 0);stroke-width:1;" d="M 368.499, 176.523 L 375.83, 166.023 L 410.104, 179.693 L 402.576, 190.391 L 368.499, 176.523 z "/>
<path style="fill:rgb(0, 0, 255);fill-opacity:0;fill-rule:evenodd;stroke:rgb(226, 255, 0);stroke-width:1;" d="M 129.371, 624.071 L 146.607, 600.297 L 152.551, 602.675 L 160.475, 606.043 L 143.239, 629.817 L 134.918, 626.449 L 129.371, 624.071 z "/>
<path style="fill:rgb(255, 255, 0);fill-opacity:0;fill-rule:evenodd;stroke:rgb(226, 255, 0);stroke-width:1;" d="M 232.194, 481.426 L 249.629, 457.85 L 254.978, 460.03 L 263.497, 463.596 L 246.062, 487.37 L 237.543, 483.606 L 232.194, 481.426 z "/>
<path style="fill:rgb(255, 0, 0);fill-opacity:0;fill-rule:evenodd;stroke:rgb(226, 255, 0);stroke-width:1;" d="M 493.115, 97.6721 L 497.276, 91.9267 L 511.738, 72.313 L 524.418, 77.6622 L 506.191, 103.021 L 493.115, 97.6721 z "/>
<path style="fill:rgb(0, 255, 0);fill-opacity:0;fill-rule:evenodd;stroke:rgb(226, 255, 0);stroke-width:1;" d="M 375.83, 166.023 L 380.981, 158.692 L 384.151, 154.334 L 386.132, 155.126 L 382.764, 159.485 L 401.783, 167.211 L 404.953, 162.655 L 406.142, 163.051 L 416.048, 167.211 L 418.227, 168.004 L 410.104, 179.693 L 375.83, 166.023 z "/>
<path style="fill:rgb(0, 0, 255);fill-opacity:0;fill-rule:evenodd;stroke:rgb(226, 255, 0);stroke-width:1;" d="M 136.899, 397.623 L 154.73, 373.056 L 165.428, 377.613 L 147.598, 402.179 L 136.899, 397.623 z "/>
<path style="fill:rgb(255, 255, 0);fill-opacity:0;fill-rule:evenodd;stroke:rgb(226, 255, 0);stroke-width:1;" d="M 115.899, 388.905 L 126.003, 375.037 L 133.73, 364.339 L 144.428, 368.697 L 126.597, 393.264 L 119.663, 390.292 L 115.899, 388.905 z "/>
<path style="fill:rgb(255, 0, 0);fill-opacity:0;fill-rule:evenodd;stroke:rgb(226, 255, 0);stroke-width:1;" d="M 473.898, 79.8415 L 483.011, 67.7563 L 504.21, 76.8697 L 494.898, 88.9549 L 473.898, 79.8415 z "/>
<path style="fill:rgb(0, 255, 0);fill-opacity:0;fill-rule:evenodd;stroke:rgb(226, 255, 0);stroke-width:1;" d="M 126.597, 393.264 L 144.428, 368.697 L 154.73, 373.056 L 136.899, 397.623 L 126.597, 393.264 z "/>
<path style="fill:rgb(0, 0, 255);fill-opacity:0;fill-rule:evenodd;stroke:rgb(226, 255, 0);stroke-width:1;" d="M 481.426, 722.14 L 488.757, 712.432 L 506.786, 720.158 L 500.644, 728.479 L 499.653, 729.866 L 481.426, 722.14 z "/>
<path style="fill:rgb(255, 255, 0);fill-opacity:0;fill-rule:evenodd;stroke:rgb(226, 255, 0);stroke-width:1;" d="M 254.978, 460.03 L 266.072, 444.973 L 276.374, 449.331 L 265.28, 464.388 L 263.497, 463.596 L 254.978, 460.03 z "/>
<path style="fill:rgb(255, 0, 0);fill-opacity:0;fill-rule:evenodd;stroke:rgb(226, 255, 0);stroke-width:1;" d="M 227.836, 496.88 L 237.543, 483.606 L 246.062, 487.37 L 247.845, 488.162 L 238.336, 501.238 L 227.836, 496.88 z "/>
<path style="fill:rgb(0, 255, 0);fill-opacity:0;fill-rule:evenodd;stroke:rgb(226, 255, 0);stroke-width:1;" d="M 55.473, 124.22 L 57.6523, 121.446 L 59.8316, 118.474 L 65.577, 121.05 L 76.8697, 125.805 L 78.4547, 126.399 L 76.2754, 129.371 L 74.2942, 132.145 L 72.7093, 131.55 L 61.4165, 126.795 L 55.473, 124.22 z "/>
<path style="fill:rgb(0, 0, 255);fill-opacity:0;fill-rule:evenodd;stroke:rgb(226, 255, 0);stroke-width:1;" d="M 527.786, 139.277 L 560.079, 94.8985 L 563.447, 94.106 L 528.975, 141.654 L 527.786, 139.277 z "/>
<path style="fill:rgb(255, 255, 0);fill-opacity:0;fill-rule:evenodd;stroke:rgb(226, 255, 0);stroke-width:1;" d="M 123.031, 642.893 L 130.362, 632.789 L 140.466, 636.949 L 132.937, 647.053 L 123.031, 642.893 z "/>
<path style="fill:rgb(255, 0, 0);fill-opacity:0;fill-rule:evenodd;stroke:rgb(226, 255, 0);stroke-width:1;" d="M 59.4354, 129.569 L 61.4165, 126.795 L 63.3977, 124.022 L 65.577, 121.05 L 76.8697, 125.805 L 74.6904, 128.777 L 72.7093, 131.55 L 70.7281, 134.324 L 59.4354, 129.569 z "/>
<path style="fill:rgb(0, 255, 0);fill-opacity:0;fill-rule:evenodd;stroke:rgb(226, 255, 0);stroke-width:1;" d="M 538.286, 142.843 L 570.183, 98.8608 L 573.353, 98.2665 L 538.683, 145.815 L 538.286, 142.843 z "/>
<path style="fill:rgb(0, 0, 255);fill-opacity:0;fill-rule:evenodd;stroke:rgb(226, 255, 0);stroke-width:1;" d="M 158.692, 594.156 L 164.834, 585.438 L 174.938, 589.599 L 168.598, 598.316 L 158.692, 594.156 z "/>
<path style="fill:rgb(255, 255, 0);fill-opacity:0;fill-rule:evenodd;stroke:rgb(226, 255, 0);stroke-width:1;" d="M 221.694, 505.002 L 227.836, 496.88 L 238.336, 501.238 L 232.194, 509.361 L 221.694, 505.002 z "/>
<path style="fill:rgb(255, 0, 0);fill-opacity:0;fill-rule:evenodd;stroke:rgb(226, 255, 0);stroke-width:1;" d="M 152.551, 602.675 L 158.692, 594.156 L 168.598, 598.316 L 162.259, 606.835 L 160.475, 606.043 L 152.551, 602.675 z "/>
<path style="fill:rgb(0, 255, 0);fill-opacity:0;fill-rule:evenodd;stroke:rgb(226, 255, 0);stroke-width:1;" d="M 382.764, 159.485 L 386.132, 155.126 L 394.849, 158.692 L 396.038, 159.089 L 404.953, 162.655 L 401.783, 167.211 L 382.764, 159.485 z "/>
<path style="fill:rgb(0, 0, 255);fill-opacity:0;fill-rule:evenodd;stroke:rgb(226, 255, 0);stroke-width:1;" d="M 266.072, 444.973 L 271.62, 437.642 L 281.922, 442.001 L 276.374, 449.331 L 266.072, 444.973 z "/>
<path style="fill:rgb(255, 255, 0);fill-opacity:0;fill-rule:evenodd;stroke:rgb(226, 255, 0);stroke-width:1;" d="M 51.9069, 119.069 L 54.0862, 116.097 L 59.8316, 118.474 L 65.577, 121.05 L 76.8697, 125.805 L 78.4547, 126.399 L 76.2754, 129.371 L 74.6904, 128.777 L 63.3977, 124.022 L 57.6523, 121.446 L 51.9069, 119.069 z "/>
<path style="fill:rgb(255, 0, 0);fill-opacity:0;fill-rule:evenodd;stroke:rgb(226, 255, 0);stroke-width:1;" d="M 406.142, 163.051 L 411.095, 156.315 L 421, 160.277 L 416.048, 167.211 L 406.142, 163.051 z "/>
<path style="fill:rgb(0, 255, 0);fill-opacity:0;fill-rule:evenodd;stroke:rgb(226, 255, 0);stroke-width:1;" d="M 130.362, 632.789 L 134.918, 626.449 L 143.239, 629.817 L 145.022, 630.609 L 140.466, 636.949 L 130.362, 632.789 z "/>
<path style="fill:rgb(0, 0, 255);fill-opacity:0;fill-rule:evenodd;stroke:rgb(226, 255, 0);stroke-width:1;" d="M 539.673, 614.562 L 540.664, 613.175 L 584.646, 631.6 L 583.457, 633.185 L 539.673, 614.562 z "/>
<path style="fill:rgb(255, 255, 0);fill-opacity:0;fill-rule:evenodd;stroke:rgb(226, 255, 0);stroke-width:1;" d="M 164.834, 585.438 L 169.391, 579.495 L 179.495, 583.655 L 174.938, 589.599 L 164.834, 585.438 z "/>
<path style="fill:rgb(255, 0, 0);fill-opacity:0;fill-rule:evenodd;stroke:rgb(226, 255, 0);stroke-width:1;" d="M 396.038, 159.089 L 401.189, 152.353 L 409.708, 155.919 L 404.953, 162.655 L 396.038, 159.089 z "/>
<path style="fill:rgb(0, 255, 0);fill-opacity:0;fill-rule:evenodd;stroke:rgb(226, 255, 0);stroke-width:1;" d="M 386.132, 155.126 L 391.085, 148.39 L 399.604, 151.758 L 394.849, 158.692 L 386.132, 155.126 z "/>
<path style="fill:rgb(0, 0, 255);fill-opacity:0;fill-rule:evenodd;stroke:rgb(226, 255, 0);stroke-width:1;" d="M 640.515, 475.483 L 641.308, 474.294 L 680.535, 490.144 L 684.101, 491.53 L 685.488, 492.125 L 684.497, 493.314 L 640.515, 475.483 z "/>
<path style="fill:rgb(255, 255, 0);fill-opacity:0;fill-rule:evenodd;stroke:rgb(226, 255, 0);stroke-width:1;" d="M 0, 775.433 L 68.1526, 682.516 L 111.342, 700.743 L 126.399, 707.083 L 58.2467, 800 L 0, 775.433 z "/>
<path style="fill:rgb(255, 0, 0);fill-opacity:0;fill-rule:evenodd;stroke:rgb(226, 255, 0);stroke-width:1;" d="M 34.2744, 220.307 L 39.6236, 213.175 L 45.1709, 205.448 L 51.5106, 196.929 L 40.6142, 192.372 L 43.3878, 188.608 L 48.3408, 181.872 L 51.5106, 177.514 L 54.8787, 172.759 L 58.2467, 168.202 L 101.04, 186.231 L 72.5111, 225.062 L 66.1714, 233.779 L 34.2744, 220.307 z "/>
<path style="fill:rgb(0, 255, 0);fill-opacity:0;fill-rule:evenodd;stroke:rgb(226, 255, 0);stroke-width:1;" d="M 46.5577, 287.865 L 68.945, 256.959 L 75.8791, 247.647 L 108.172, 261.119 L 98.8608, 273.997 L 87.9643, 288.856 L 78.8509, 301.337 L 50.9163, 289.648 L 46.5577, 287.865 z "/>
<path style="fill:rgb(0, 0, 255);fill-opacity:0;fill-rule:evenodd;stroke:rgb(226, 255, 0);stroke-width:1;" d="M 46.9539, 105.993 L 50.3219, 101.436 L 53.2937, 97.474 L 66.5676, 79.2472 L 67.162, 78.2566 L 71.3224, 79.8415 L 70.53, 80.8321 L 57.2561, 99.0589 L 54.2843, 103.021 L 50.9163, 107.776 L 46.9539, 105.993 z "/>
<path style="fill:rgb(255, 255, 0);fill-opacity:0;fill-rule:evenodd;stroke:rgb(226, 255, 0);stroke-width:1;" d="M 45.1709, 94.106 L 58.4448, 75.8791 L 59.2372, 74.8886 L 63.1996, 76.4735 L 62.4071, 77.4641 L 49.3314, 95.6909 L 45.1709, 94.106 z "/>
<path style="fill:rgb(255, 0, 0);fill-opacity:0;fill-rule:evenodd;stroke:rgb(226, 255, 0);stroke-width:1;" d="M 794.255, 154.928 L 861.615, 62.8034 L 863.596, 60.426 L 908.767, 0 L 1067.66, 65.9733 L 1049.83, 89.9455 L 1071.82, 99.4552 L 1057.16, 119.069 L 1035.17, 109.559 L 1023.28, 125.409 L 1038.73, 132.145 L 1034.77, 137.494 L 1019.32, 130.758 L 971.174, 195.344 L 966.617, 193.363 L 958.891, 203.665 L 937.692, 194.552 L 943.635, 186.627 L 892.719, 164.636 L 868.351, 196.929 L 846.954, 187.816 L 852.303, 180.684 L 841.605, 176.127 L 830.906, 190.391 L 814.264, 183.457 L 819.217, 176.721 L 799.406, 168.4 L 805.745, 159.683 L 794.255, 154.928 z "/>
<path style="fill:rgb(0, 255, 0);fill-opacity:0;fill-rule:evenodd;stroke:rgb(226, 255, 0);stroke-width:1;" d="M 122.635, 89.153 L 153.739, 46.5577 L 299.752, 108.172 L 297.375, 111.342 L 268.846, 150.768 L 122.635, 89.153 z "/>
<path style="fill:rgb(0, 0, 255);fill-opacity:0;fill-rule:evenodd;stroke:rgb(226, 255, 0);stroke-width:1;" d="M 344.725, 76.6716 L 372.065, 39.0292 L 435.859, 65.9733 L 408.321, 103.616 L 344.725, 76.6716 z "/>
<path style="fill:rgb(255, 255, 0);fill-opacity:0;fill-rule:evenodd;stroke:rgb(226, 255, 0);stroke-width:1;" d="M 511.738, 72.313 L 532.343, 43.9822 L 593.957, 69.9356 L 573.353, 98.2665 L 563.447, 94.106 L 524.418, 77.6622 L 511.738, 72.313 z "/>
<path style="fill:rgb(255, 0, 0);fill-opacity:0;fill-rule:evenodd;stroke:rgb(226, 255, 0);stroke-width:1;" d="M 520.456, 68.5488 L 534.324, 49.7276 L 585.042, 71.1243 L 571.174, 89.9455 L 520.456, 68.5488 z "/>
<path style="fill:rgb(0, 255, 0);fill-opacity:0;fill-rule:evenodd;stroke:rgb(226, 255, 0);stroke-width:1;" d="M 103.418, 91.9267 L 109.163, 84.2001 L 115.106, 75.8791 L 121.842, 66.7657 L 128.579, 57.4542 L 134.126, 49.9257 L 140.664, 41.0104 L 153.739, 46.5577 L 122.635, 89.153 L 116.493, 97.474 L 103.418, 91.9267 z "/>
<path style="fill:rgb(0, 0, 255);fill-opacity:0;fill-rule:evenodd;stroke:rgb(226, 255, 0);stroke-width:1;" d="M 71.7187, 57.6523 L 78.4547, 48.5389 L 121.842, 66.7657 L 115.106, 75.8791 L 71.7187, 57.6523 z "/>
<path style="fill:rgb(255, 255, 0);fill-opacity:0;fill-rule:evenodd;stroke:rgb(226, 255, 0);stroke-width:1;" d="M 65.7751, 65.7751 L 71.7187, 57.6523 L 115.106, 75.8791 L 109.163, 84.2001 L 65.7751, 65.7751 z "/>
<path style="fill:rgb(255, 0, 0);fill-opacity:0;fill-rule:evenodd;stroke:rgb(226, 255, 0);stroke-width:1;" d="M 45.1709, 94.106 L 58.4448, 75.8791 L 59.2372, 74.8886 L 63.1996, 76.4735 L 67.162, 78.2566 L 71.3224, 79.8415 L 102.625, 93.1154 L 78.4547, 126.399 L 76.2754, 129.371 L 74.2942, 132.145 L 72.1149, 134.918 L 70.7281, 134.324 L 59.4354, 129.569 L 61.4165, 126.795 L 55.473, 124.22 L 57.6523, 121.446 L 51.9069, 119.069 L 54.0862, 116.097 L 46.9539, 113.125 L 50.9163, 107.776 L 46.9539, 105.993 L 50.3219, 101.436 L 46.3596, 99.6533 L 49.3314, 95.6909 L 45.1709, 94.106 z "/>
<path style="fill:rgb(0, 255, 0);fill-opacity:0;fill-rule:evenodd;stroke:rgb(226, 255, 0);stroke-width:1;" d="M 46.9539, 113.125 L 50.9163, 107.776 L 54.2843, 103.021 L 57.2561, 99.0589 L 70.53, 80.8321 L 66.5676, 79.2472 L 62.4071, 77.4641 L 58.4448, 75.8791 L 59.2372, 74.8886 L 63.1996, 76.4735 L 67.162, 78.2566 L 71.3224, 79.8415 L 102.625, 93.1154 L 78.4547, 126.399 L 76.2754, 129.371 L 74.2942, 132.145 L 72.1149, 134.918 L 70.7281, 134.324 L 72.7093, 131.55 L 74.6904, 128.777 L 76.8697, 125.805 L 65.577, 121.05 L 59.8316, 118.474 L 54.0862, 116.097 L 46.9539, 113.125 z "/>
<path style="fill:rgb(0, 0, 255);fill-opacity:0;fill-rule:evenodd;stroke:rgb(226, 255, 0);stroke-width:1;" d="M 46.9539, 113.125 L 50.9163, 107.776 L 54.2843, 103.021 L 57.2561, 99.0589 L 70.53, 80.8321 L 71.3224, 79.8415 L 102.625, 93.1154 L 78.4547, 126.399 L 76.8697, 125.805 L 65.577, 121.05 L 46.9539, 113.125 z "/>
<path style="fill:rgb(255, 255, 0);fill-opacity:0;fill-rule:evenodd;stroke:rgb(226, 255, 0);stroke-width:1;" d="M 45.1709, 94.106 L 58.4448, 75.8791 L 62.4071, 77.4641 L 66.5676, 79.2472 L 70.53, 80.8321 L 57.2561, 99.0589 L 53.2937, 97.474 L 49.3314, 95.6909 L 45.1709, 94.106 z "/>
<path style="fill:rgb(255, 0, 0);fill-opacity:0;fill-rule:evenodd;stroke:rgb(226, 255, 0);stroke-width:1;" d="M 46.3596, 99.6533 L 49.3314, 95.6909 L 62.4071, 77.4641 L 63.1996, 76.4735 L 67.162, 78.2566 L 71.3224, 79.8415 L 70.53, 80.8321 L 57.2561, 99.0589 L 54.2843, 103.021 L 50.3219, 101.436 L 46.3596, 99.6533 z "/>
</svg>