<?xml version="1.0" encoding="iso-8859-1" standalone="no"?>
<!DOCTYPE svg PUBLIC "-//W3C//DTD SVG 1.0//EN" "http://www.w3.org/TR/2001/REC-SVG-20010904/DTD/svg10.dtd">
<svg xmlns="http://www.w3.org/2000/svg" width="3794" height="800">
<path style="fill:rgb(255, 0, 0);fill-opacity:0;fill-rule:evenodd;stroke:rgb(255, 34, 0);stroke-width:1;" d="M 3085.24, 534.872 L 3112.94, 496.62 L 3279.14, 544.106 L 3794.23, 692.498 L 3716.41, 800 L 3085.24, 534.872 z "/>
<path style="fill:rgb(0, 255, 0);fill-opacity:0;fill-rule:evenodd;stroke:rgb(255, 34, 0);stroke-width:1;" d="M 215.004, 327.123 L 270.404, 251.278 L 375.268, 295.466 L 385.161, 293.487 L 426.051, 310.635 L 448.475, 278.978 L 316.57, 223.578 L 351.525, 176.092 L 428.03, 208.409 L 457.049, 168.838 L 554.658, 209.728 L 565.21, 194.559 L 619.291, 217.642 L 635.12, 224.237 L 479.472, 437.923 L 215.004, 327.123 z "/>
<path style="fill:rgb(0, 0, 255);fill-opacity:0;fill-rule:evenodd;stroke:rgb(255, 34, 0);stroke-width:1;" d="M 469.58, 154.328 L 496.62, 117.395 L 503.875, 120.692 L 645.672, 180.709 L 619.291, 217.642 L 565.21, 194.559 L 469.58, 154.328 z "/>
<path style="fill:rgb(255, 255, 0);fill-opacity:0;fill-rule:evenodd;stroke:rgb(255, 34, 0);stroke-width:1;" d="M 503.875, 120.692 L 526.298, 89.695 L 552.679, 101.566 L 668.096, 149.711 L 645.672, 180.709 L 503.875, 120.692 z "/>
<path style="fill:rgb(255, 0, 0);fill-opacity:0;fill-rule:evenodd;stroke:rgb(255, 34, 0);stroke-width:1;" d="M 157.626, 293.487 L 222.259, 204.452 L 261.171, 220.94 L 195.878, 309.975 L 157.626, 293.487 z "/>
<path style="fill:rgb(0, 255, 0);fill-opacity:0;fill-rule:evenodd;stroke:rgb(255, 34, 0);stroke-width:1;" d="M 119.373, 277.659 L 184.007, 188.623 L 222.259, 204.452 L 157.626, 293.487 L 119.373, 277.659 z "/>
<path style="fill:rgb(0, 0, 255);fill-opacity:0;fill-rule:evenodd;stroke:rgb(255, 34, 0);stroke-width:1;" d="M 0, 574.444 L 60.676, 491.344 L 41.5499, 483.43 L 98.2688, 405.606 L 405.606, 534.872 L 290.19, 693.157 L 197.197, 654.246 L 226.216, 614.674 L 197.857, 602.803 L 244.023, 538.829 L 191.921, 516.406 L 167.519, 550.041 L 151.031, 542.786 L 114.097, 593.57 L 105.523, 590.272 L 92.3331, 608.079 L 85.0783, 604.782 L 83.7593, 606.101 L 81.7807, 608.739 L 60.0165, 599.505 L 0, 574.444 z "/>
<path style="fill:rgb(255, 255, 0);fill-opacity:0;fill-rule:evenodd;stroke:rgb(255, 34, 0);stroke-width:1;" d="M 74.526, 267.766 L 100.247, 231.492 L 108.162, 234.79 L 185.326, 127.947 L 218.302, 141.797 L 184.007, 188.623 L 119.373, 277.659 L 114.097, 284.254 L 74.526, 267.766 z "/>
<path style="fill:rgb(255, 0, 0);fill-opacity:0;fill-rule:evenodd;stroke:rgb(255, 34, 0);stroke-width:1;" d="M 516.406, 68.5903 L 535.532, 41.5499 L 697.774, 109.481 L 668.096, 149.711 L 552.679, 101.566 L 562.572, 88.3759 L 516.406, 68.5903 z "/>
<path style="fill:rgb(0, 255, 0);fill-opacity:0;fill-rule:evenodd;stroke:rgb(255, 34, 0);stroke-width:1;" d="M 377.246, 123.99 L 455.07, 17.8071 L 498.599, 35.6142 L 481.451, 60.0165 L 433.965, 124.65 L 413.52, 116.735 L 400.989, 133.883 L 377.246, 123.99 z "/>
<path style="fill:rgb(0, 0, 255);fill-opacity:0;fill-rule:evenodd;stroke:rgb(255, 34, 0);stroke-width:1;" d="M 348.228, 89.0354 L 413.52, 0 L 455.07, 17.8071 L 377.246, 123.99 L 354.163, 114.757 L 366.694, 96.9497 L 348.228, 89.0354 z "/>
</svg>