<?xml version="1.0" encoding="iso-8859-1" standalone="no"?>
<!DOCTYPE svg PUBLIC "-//W3C//DTD SVG 1.0//EN" "http://www.w3.org/TR/2001/REC-SVG-20010904/DTD/svg10.dtd">
<svg xmlns="http://www.w3.org/2000/svg" width="586" height="800">
<path style="fill:rgb(255, 0, 0);fill-opacity:0;fill-rule:evenodd;stroke:rgb(0, 46, 255);stroke-width:1;" d="M 140.049, 743.243 L 174.447, 695.332 L 185.258, 700 L 193.12, 689.189 L 306.88, 736.609 L 299.017, 747.42 L 310.565, 752.088 L 276.167, 800 L 140.049, 743.243 z "/>
<path style="fill:rgb(0, 255, 0);fill-opacity:0;fill-rule:evenodd;stroke:rgb(0, 46, 255);stroke-width:1;" d="M 235.381, 195.823 L 250.369, 175.43 L 260.934, 161.916 L 278.133, 142.506 L 296.314, 123.587 L 383.292, 161.179 L 366.339, 183.784 L 372.482, 186.486 L 370.025, 189.681 L 380.098, 194.103 L 399.509, 168.059 L 435.627, 183.784 L 413.759, 213.022 L 406.634, 210.074 L 384.029, 240.295 L 360.688, 229.975 L 358.722, 229.238 L 365.848, 219.656 L 341.032, 208.845 L 333.907, 218.428 L 322.359, 213.514 L 298.28, 203.194 L 307.862, 190.172 L 317.445, 194.349 L 335.627, 170.27 L 331.695, 167.322 L 314.988, 160.197 L 308.354, 161.425 L 271.007, 211.302 L 262.899, 207.862 L 235.381, 195.823 z "/>
<path style="fill:rgb(0, 0, 255);fill-opacity:0;fill-rule:evenodd;stroke:rgb(0, 46, 255);stroke-width:1;" d="M 439.066, 542.015 L 475.43, 492.629 L 476.167, 491.646 L 487.961, 496.56 L 503.931, 474.693 L 491.646, 469.533 L 505.405, 450.614 L 544.717, 467.322 L 549.14, 461.179 L 586.978, 477.396 L 515.725, 574.447 L 477.887, 558.477 L 499.509, 529.238 L 484.029, 522.604 L 462.654, 551.843 L 439.066, 542.015 z "/>
<path style="fill:rgb(255, 255, 0);fill-opacity:0;fill-rule:evenodd;stroke:rgb(0, 46, 255);stroke-width:1;" d="M 207.862, 241.523 L 218.428, 223.096 L 223.833, 214.005 L 235.381, 195.823 L 262.899, 207.862 L 254.545, 218.673 L 255.037, 222.113 L 263.145, 225.799 L 268.305, 225.553 L 279.853, 230.467 L 281.327, 228.501 L 285.012, 227.764 L 287.469, 228.747 L 293.12, 221.13 L 311.057, 228.747 L 322.359, 213.514 L 333.907, 218.428 L 336.855, 219.656 L 326.044, 234.152 L 340.786, 240.541 L 342.26, 241.278 L 345.7, 236.609 L 353.317, 239.803 L 360.688, 229.975 L 384.029, 240.295 L 385.504, 240.786 L 368.55, 263.636 L 363.145, 261.425 L 357.74, 268.55 L 370.025, 273.71 L 348.649, 302.457 L 301.474, 282.064 L 310.074, 270.516 L 313.759, 269.287 L 321.867, 258.477 L 301.474, 249.877 L 293.612, 260.197 L 296.314, 261.425 L 285.995, 275.43 L 207.862, 241.523 z "/>
<path style="fill:rgb(255, 0, 0);fill-opacity:0;fill-rule:evenodd;stroke:rgb(0, 46, 255);stroke-width:1;" d="M 80.0983, 593.12 L 89.6806, 565.356 L 136.609, 585.258 L 136.118, 585.995 L 141.523, 588.452 L 143.243, 585.995 L 151.597, 589.435 L 155.037, 584.521 L 146.929, 581.081 L 148.649, 578.87 L 143.243, 576.658 L 142.506, 577.641 L 92.629, 556.757 L 103.44, 525.799 L 126.781, 535.381 L 130.221, 536.855 L 126.044, 542.506 L 174.201, 562.899 L 170.516, 568.059 L 171.744, 569.287 L 174.201, 570.516 L 176.413, 570.516 L 180.098, 565.356 L 218.673, 581.572 L 200, 607.125 L 202.211, 608.108 L 181.818, 635.872 L 153.071, 623.833 L 184.029, 581.572 L 178.624, 579.361 L 174.693, 585.012 L 169.287, 582.801 L 152.58, 605.897 L 145.7, 602.948 L 143.243, 606.634 L 143.98, 608.108 L 148.894, 610.319 L 142.26, 619.165 L 80.0983, 593.12 z "/>
<path style="fill:rgb(0, 255, 0);fill-opacity:0;fill-rule:evenodd;stroke:rgb(0, 46, 255);stroke-width:1;" d="M 37.3464, 700 L 45.4545, 683.784 L 53.5627, 666.093 L 61.1794, 648.403 L 64.6192, 639.312 L 72.2359, 637.346 L 122.604, 658.231 L 108.354, 677.887 L 124.079, 684.521 L 138.329, 664.865 L 174.693, 680.098 L 154.054, 708.845 L 146.683, 705.651 L 129.484, 729.484 L 99.2629, 716.953 L 107.125, 706.143 L 81.8182, 695.332 L 69.0418, 713.268 L 37.3464, 700 z "/>
<path style="fill:rgb(0, 0, 255);fill-opacity:0;fill-rule:evenodd;stroke:rgb(0, 46, 255);stroke-width:1;" d="M 357.985, 303.931 L 386.732, 265.356 L 402.948, 272.482 L 443.489, 289.926 L 457.248, 271.499 L 497.297, 288.698 L 465.848, 330.713 L 454.545, 345.7 L 357.985, 303.931 z "/>
<path style="fill:rgb(255, 255, 0);fill-opacity:0;fill-rule:evenodd;stroke:rgb(0, 46, 255);stroke-width:1;" d="M 0, 760.442 L 11.3022, 743.98 L 21.8673, 727.027 L 26.7813, 718.428 L 37.3464, 700 L 69.0418, 713.268 L 55.774, 731.45 L 81.3268, 742.015 L 89.1892, 730.958 L 119.41, 743.489 L 101.72, 767.813 L 108.354, 770.516 L 88.6978, 797.543 L 0, 760.442 z "/>
<path style="fill:rgb(255, 0, 0);fill-opacity:0;fill-rule:evenodd;stroke:rgb(0, 46, 255);stroke-width:1;" d="M 375.921, 632.924 L 390.172, 613.268 L 402.457, 618.428 L 405.897, 613.514 L 399.263, 610.811 L 420.639, 581.572 L 489.681, 610.565 L 446.683, 669.779 L 421.867, 659.214 L 427.764, 651.106 L 421.13, 648.403 L 419.165, 651.351 L 375.921, 632.924 z "/>
<path style="fill:rgb(0, 255, 0);fill-opacity:0;fill-rule:evenodd;stroke:rgb(0, 46, 255);stroke-width:1;" d="M 329.73, 88.6978 L 330.221, 86.9779 L 331.45, 85.258 L 332.432, 84.5209 L 334.398, 83.5381 L 336.855, 83.0467 L 387.961, 40.0491 L 410.811, 49.3857 L 407.862, 53.317 L 446.929, 69.5332 L 407.371, 125.061 L 340.049, 97.2973 L 340.295, 95.3317 L 337.838, 95.5774 L 336.609, 95.3317 L 334.152, 94.8403 L 333.17, 94.3489 L 331.45, 93.1204 L 330.713, 92.3833 L 329.73, 90.6634 L 329.73, 88.6978 z M 370.27, 84.0295 L 395.577, 94.8403 L 396.806, 95.3317 L 406.143, 82.5553 L 379.607, 71.2531 L 370.27, 84.0295 z "/>
<path style="fill:rgb(0, 0, 255);fill-opacity:0;fill-rule:evenodd;stroke:rgb(0, 46, 255);stroke-width:1;" d="M 329.484, 698.526 L 370.516, 642.015 L 399.263, 654.054 L 392.138, 664.128 L 395.577, 665.602 L 402.948, 655.528 L 417.69, 661.916 L 420.147, 658.477 L 421.867, 659.214 L 446.683, 669.779 L 434.644, 685.995 L 405.651, 673.956 L 401.72, 674.693 L 400, 676.904 L 406.88, 679.853 L 408.354, 682.064 L 430.713, 691.4 L 418.919, 707.862 L 384.521, 693.366 L 380.59, 698.771 L 414.988, 713.268 L 402.948, 729.484 L 362.899, 712.776 L 385.012, 682.31 L 378.624, 679.853 L 356.511, 710.074 L 329.484, 698.526 z "/>
<path style="fill:rgb(255, 255, 0);fill-opacity:0;fill-rule:evenodd;stroke:rgb(0, 46, 255);stroke-width:1;" d="M 103.44, 525.799 L 123.833, 463.882 L 135.872, 459.951 L 210.074, 491.155 L 193.366, 514.005 L 159.705, 500 L 151.106, 511.548 L 176.413, 522.359 L 162.162, 542.015 L 131.45, 529.238 L 126.781, 535.381 L 103.44, 525.799 z "/>
<path style="fill:rgb(255, 0, 0);fill-opacity:0;fill-rule:evenodd;stroke:rgb(0, 46, 255);stroke-width:1;" d="M 142.752, 415.971 L 165.111, 353.563 L 176.904, 358.722 L 179.115, 356.02 L 191.155, 360.934 L 188.452, 364.865 L 189.189, 367.322 L 229.73, 384.521 L 211.794, 409.091 L 218.673, 411.794 L 198.28, 439.803 L 142.752, 415.971 z "/>
<path style="fill:rgb(0, 255, 0);fill-opacity:0;fill-rule:evenodd;stroke:rgb(0, 46, 255);stroke-width:1;" d="M 402.948, 272.482 L 461.179, 194.84 L 501.474, 212.285 L 490.172, 227.273 L 457.248, 271.499 L 443.489, 289.926 L 402.948, 272.482 z "/>
<path style="fill:rgb(0, 0, 255);fill-opacity:0;fill-rule:evenodd;stroke:rgb(0, 46, 255);stroke-width:1;" d="M 173.956, 555.037 L 193.857, 527.764 L 203.686, 531.941 L 206.88, 527.518 L 212.285, 529.73 L 220.885, 517.936 L 205.405, 511.548 L 216.953, 495.823 L 276.413, 520.639 L 264.865, 536.364 L 249.14, 529.73 L 240.541, 541.278 L 246.192, 543.735 L 242.506, 548.649 L 252.826, 553.071 L 242.506, 567.322 L 232.678, 579.853 L 173.956, 555.037 z "/>
<path style="fill:rgb(255, 255, 0);fill-opacity:0;fill-rule:evenodd;stroke:rgb(0, 46, 255);stroke-width:1;" d="M 454.545, 345.7 L 465.848, 330.713 L 471.744, 333.415 L 497.297, 299.263 L 561.671, 327.027 L 536.364, 360.934 L 542.998, 363.636 L 533.415, 376.658 L 531.45, 378.87 L 454.545, 345.7 z M 496.56, 338.329 L 499.754, 342.506 L 504.668, 344.717 L 512.285, 347.912 L 518.428, 347.666 L 528.993, 333.415 L 506.88, 324.079 L 496.56, 338.329 z "/>
<path style="fill:rgb(255, 0, 0);fill-opacity:0;fill-rule:evenodd;stroke:rgb(0, 46, 255);stroke-width:1;" d="M 190.418, 639.558 L 203.44, 621.622 L 217.936, 627.518 L 217.936, 629.975 L 222.113, 631.695 L 228.993, 622.359 L 238.575, 626.536 L 241.523, 622.604 L 235.381, 620.147 L 238.575, 615.725 L 214.742, 605.897 L 227.518, 588.206 L 256.757, 600.491 L 255.283, 602.457 L 264.619, 606.388 L 266.093, 604.423 L 296.069, 616.953 L 283.292, 634.644 L 256.757, 623.587 L 253.563, 627.764 L 248.894, 625.799 L 245.946, 629.73 L 256.265, 633.907 L 249.631, 642.752 L 253.808, 644.717 L 256.511, 643.735 L 271.744, 650.123 L 258.722, 668.305 L 190.418, 639.558 z "/>
<path style="fill:rgb(0, 255, 0);fill-opacity:0;fill-rule:evenodd;stroke:rgb(0, 46, 255);stroke-width:1;" d="M 258.722, 668.305 L 271.744, 650.123 L 286.241, 656.265 L 286.978, 658.968 L 290.172, 660.442 L 296.56, 651.351 L 307.125, 655.774 L 309.828, 651.843 L 303.194, 648.894 L 306.388, 644.472 L 283.292, 634.644 L 296.069, 616.953 L 363.145, 645.209 L 350.369, 662.899 L 324.816, 652.088 L 321.867, 656.02 L 316.953, 654.054 L 313.759, 658.477 L 324.079, 662.899 L 317.445, 671.744 L 321.376, 673.464 L 324.324, 672.482 L 338.821, 678.624 L 325.799, 696.314 L 258.722, 668.305 z "/>
<path style="fill:rgb(0, 0, 255);fill-opacity:0;fill-rule:evenodd;stroke:rgb(0, 46, 255);stroke-width:1;" d="M 312.039, 401.72 L 323.833, 385.504 L 342.015, 393.366 L 347.42, 386.241 L 343.98, 384.767 L 353.317, 371.99 L 349.386, 370.27 L 348.894, 371.007 L 338.084, 366.339 L 349.877, 350.369 L 407.862, 374.939 L 396.069, 390.909 L 385.749, 386.486 L 386.241, 385.995 L 382.31, 384.275 L 372.973, 396.806 L 369.042, 395.332 L 364.128, 401.966 L 382.31, 409.828 L 370.025, 426.29 L 312.039, 401.72 z "/>
<path style="fill:rgb(255, 255, 0);fill-opacity:0;fill-rule:evenodd;stroke:rgb(0, 46, 255);stroke-width:1;" d="M 175.921, 311.057 L 186.241, 285.258 L 191.646, 283.292 L 283.784, 322.359 L 266.83, 345.455 L 226.536, 328.501 L 225.799, 329.73 L 211.548, 323.587 L 210.811, 324.57 L 203.194, 321.376 L 200.246, 325.799 L 179.607, 316.953 L 175.921, 311.057 z "/>
<path style="fill:rgb(255, 0, 0);fill-opacity:0;fill-rule:evenodd;stroke:rgb(0, 46, 255);stroke-width:1;" d="M 254.791, 377.396 L 266.585, 361.179 L 284.767, 369.042 L 289.926, 361.916 L 286.486, 360.442 L 295.823, 347.912 L 291.4, 345.946 L 291.155, 346.437 L 280.835, 342.015 L 292.629, 326.044 L 349.877, 350.369 L 338.084, 366.339 L 327.764, 362.162 L 328.01, 361.425 L 324.324, 359.951 L 314.988, 372.482 L 311.302, 371.007 L 306.143, 378.133 L 323.833, 385.504 L 312.039, 401.72 L 254.791, 377.396 z "/>
<path style="fill:rgb(0, 255, 0);fill-opacity:0;fill-rule:evenodd;stroke:rgb(0, 46, 255);stroke-width:1;" d="M 380.59, 517.199 L 394.103, 498.771 L 400, 501.229 L 422.85, 470.27 L 448.894, 481.327 L 430.958, 505.405 L 431.45, 507.371 L 425.799, 515.233 L 436.118, 519.41 L 460.688, 486.241 L 475.43, 492.629 L 439.066, 542.015 L 380.59, 517.199 z "/>
<path style="fill:rgb(0, 0, 255);fill-opacity:0;fill-rule:evenodd;stroke:rgb(0, 46, 255);stroke-width:1;" d="M 410.074, 22.3587 L 414.005, 18.1818 L 418.673, 14.2506 L 421.13, 12.5307 L 426.536, 9.09091 L 429.484, 7.61671 L 435.381, 5.15971 L 438.575, 3.9312 L 444.963, 2.2113 L 448.403, 1.4742 L 455.037, 0.4914 L 462.162, 0 L 465.602, 0 L 469.042, 0 L 475.921, 0.737101 L 479.115, 1.2285 L 485.749, 2.7027 L 494.103, 5.65111 L 501.229, 8.84521 L 503.931, 10.3194 L 509.091, 13.7592 L 488.452, 42.7518 L 480.835, 39.5577 L 478.133, 43.2432 L 456.757, 34.398 L 462.654, 26.0442 L 452.58, 22.113 L 442.752, 35.8722 L 442.015, 35.6265 L 425.553, 28.9926 L 410.074, 22.3587 z "/>
<path style="fill:rgb(255, 255, 0);fill-opacity:0;fill-rule:evenodd;stroke:rgb(0, 46, 255);stroke-width:1;" d="M 337.592, 614.742 L 347.666, 600.983 L 351.843, 602.948 L 368.55, 580.098 L 362.162, 577.641 L 373.71, 561.671 L 412.776, 578.133 L 400.983, 594.103 L 394.595, 591.4 L 377.887, 614.496 L 381.327, 615.971 L 371.744, 628.993 L 364.373, 626.044 L 361.671, 626.536 L 357.002, 624.57 L 355.037, 622.113 L 350.614, 621.867 L 346.683, 620.393 L 344.963, 617.936 L 337.592, 614.742 z "/>
<path style="fill:rgb(255, 0, 0);fill-opacity:0;fill-rule:evenodd;stroke:rgb(0, 46, 255);stroke-width:1;" d="M 469.533, 265.356 L 493.12, 234.152 L 493.857, 234.398 L 496.806, 230.221 L 490.172, 227.273 L 501.474, 212.285 L 540.049, 228.993 L 529.484, 243.243 L 528.993, 243.98 L 522.604, 241.278 L 519.41, 245.455 L 520.639, 245.946 L 514.496, 254.3 L 519.902, 256.511 L 513.759, 264.865 L 508.354, 262.408 L 497.052, 277.396 L 469.533, 265.356 z "/>
<path style="fill:rgb(0, 255, 0);fill-opacity:0;fill-rule:evenodd;stroke:rgb(0, 46, 255);stroke-width:1;" d="M 450.369, 143.735 L 451.597, 142.015 L 465.356, 122.604 L 471.99, 125.307 L 492.875, 96.3145 L 519.656, 107.125 L 498.771, 136.364 L 504.177, 138.575 L 501.229, 142.506 L 489.189, 159.705 L 450.369, 143.735 z "/>
<path style="fill:rgb(0, 0, 255);fill-opacity:0;fill-rule:evenodd;stroke:rgb(0, 46, 255);stroke-width:1;" d="M 284.275, 476.167 L 295.577, 460.442 L 301.229, 462.899 L 326.044, 429.238 L 352.826, 440.541 L 328.01, 474.201 L 333.907, 476.904 L 322.604, 492.383 L 284.275, 476.167 z "/>
<path style="fill:rgb(255, 255, 0);fill-opacity:0;fill-rule:evenodd;stroke:rgb(0, 46, 255);stroke-width:1;" d="M 289.681, 594.103 L 315.233, 558.968 L 309.828, 556.757 L 322.113, 540.049 L 333.661, 544.717 L 333.17, 545.455 L 342.26, 549.386 L 342.752, 548.649 L 354.3, 553.563 L 342.015, 570.27 L 337.101, 568.305 L 311.548, 603.194 L 289.681, 594.103 z "/>
<path style="fill:rgb(255, 0, 0);fill-opacity:0;fill-rule:evenodd;stroke:rgb(0, 46, 255);stroke-width:1;" d="M 387.961, 40.0491 L 406.388, 24.57 L 423.587, 31.6953 L 425.553, 28.9926 L 442.015, 35.6265 L 440.049, 38.3292 L 470.762, 50.86 L 471.007, 52.3342 L 470.762, 55.2826 L 470.025, 57.9853 L 468.305, 60.688 L 467.322, 61.9165 L 464.619, 64.1278 L 461.425, 65.8477 L 459.705, 66.3391 L 423.833, 51.5971 L 422.113, 54.0541 L 410.811, 49.3857 L 387.961, 40.0491 z "/>
<path style="fill:rgb(0, 255, 0);fill-opacity:0;fill-rule:evenodd;stroke:rgb(0, 46, 255);stroke-width:1;" d="M 489.189, 159.705 L 501.229, 142.506 L 505.897, 144.472 L 514.742, 132.187 L 510.811, 130.467 L 523.342, 113.022 L 531.45, 116.462 L 538.329, 107.125 L 541.278, 108.354 L 543.489, 105.16 L 551.597, 108.354 L 545.946, 116.462 L 509.337, 167.813 L 489.189, 159.705 z "/>
<path style="fill:rgb(0, 0, 255);fill-opacity:0;fill-rule:evenodd;stroke:rgb(0, 46, 255);stroke-width:1;" d="M 168.55, 331.695 L 179.607, 316.953 L 200.246, 325.799 L 226.781, 336.855 L 220.885, 344.963 L 232.924, 350.123 L 227.764, 357.002 L 171.253, 332.924 L 168.55, 331.695 z "/>
<path style="fill:rgb(255, 255, 0);fill-opacity:0;fill-rule:evenodd;stroke:rgb(0, 46, 255);stroke-width:1;" d="M 432.187, 134.152 L 449.386, 110.074 L 459.459, 96.0688 L 478.87, 103.931 L 465.356, 122.604 L 451.597, 142.015 L 432.187, 134.152 z "/>
<path style="fill:rgb(255, 0, 0);fill-opacity:0;fill-rule:evenodd;stroke:rgb(0, 46, 255);stroke-width:1;" d="M 242.506, 567.322 L 252.826, 553.071 L 264.865, 536.364 L 276.413, 520.639 L 291.892, 527.273 L 257.985, 573.71 L 242.506, 567.322 z "/>
<path style="fill:rgb(0, 255, 0);fill-opacity:0;fill-rule:evenodd;stroke:rgb(0, 46, 255);stroke-width:1;" d="M 161.425, 346.192 L 171.253, 332.924 L 227.764, 357.002 L 222.359, 364.373 L 210.319, 359.214 L 206.143, 365.111 L 161.425, 346.192 z "/>
<path style="fill:rgb(0, 0, 255);fill-opacity:0;fill-rule:evenodd;stroke:rgb(0, 46, 255);stroke-width:1;" d="M 257.985, 573.71 L 291.892, 527.273 L 308.108, 534.152 L 281.572, 570.762 L 273.219, 567.076 L 265.848, 577.15 L 257.985, 573.71 z "/>
<path style="fill:rgb(255, 255, 0);fill-opacity:0;fill-rule:evenodd;stroke:rgb(0, 46, 255);stroke-width:1;" d="M 331.695, 590.172 L 340.541, 578.133 L 345.7, 576.167 L 339.558, 573.71 L 342.015, 570.27 L 354.3, 553.563 L 373.71, 561.671 L 362.162, 577.641 L 348.157, 597.052 L 331.695, 590.172 z "/>
<path style="fill:rgb(255, 0, 0);fill-opacity:0;fill-rule:evenodd;stroke:rgb(0, 46, 255);stroke-width:1;" d="M 268.059, 469.287 L 299.017, 427.273 L 306.634, 430.713 L 300.737, 438.821 L 309.091, 442.26 L 295.577, 460.442 L 284.275, 476.167 L 268.059, 469.287 z "/>
<path style="fill:rgb(0, 255, 0);fill-opacity:0;fill-rule:evenodd;stroke:rgb(0, 46, 255);stroke-width:1;" d="M 252.826, 462.899 L 277.887, 428.993 L 284.521, 431.941 L 290.418, 423.587 L 299.017, 427.273 L 268.059, 469.287 L 252.826, 462.899 z "/>
<path style="fill:rgb(0, 0, 255);fill-opacity:0;fill-rule:evenodd;stroke:rgb(0, 46, 255);stroke-width:1;" d="M 235.627, 455.528 L 260.688, 421.622 L 277.887, 428.993 L 252.826, 462.899 L 235.627, 455.528 z "/>
<path style="fill:rgb(255, 255, 0);fill-opacity:0;fill-rule:evenodd;stroke:rgb(0, 46, 255);stroke-width:1;" d="M 206.388, 443.243 L 231.45, 409.337 L 237.838, 412.039 L 242.998, 404.914 L 246.683, 404.423 L 252.334, 406.88 L 221.13, 449.386 L 206.388, 443.243 z "/>
<path style="fill:rgb(255, 0, 0);fill-opacity:0;fill-rule:evenodd;stroke:rgb(0, 46, 255);stroke-width:1;" d="M 221.13, 449.386 L 252.334, 406.88 L 258.477, 409.582 L 259.951, 412.285 L 255.037, 419.41 L 260.688, 421.622 L 235.627, 455.528 L 221.13, 449.386 z "/>
<path style="fill:rgb(0, 255, 0);fill-opacity:0;fill-rule:evenodd;stroke:rgb(0, 46, 255);stroke-width:1;" d="M 278.378, 574.939 L 281.572, 570.762 L 308.108, 534.152 L 322.113, 540.049 L 309.828, 556.757 L 292.383, 580.835 L 278.378, 574.939 z "/>
<path style="fill:rgb(0, 0, 255);fill-opacity:0;fill-rule:evenodd;stroke:rgb(0, 46, 255);stroke-width:1;" d="M 464.865, 455.283 L 472.973, 444.472 L 475.43, 442.998 L 471.007, 441.032 L 492.875, 411.057 L 497.543, 411.302 L 502.457, 413.514 L 504.668, 416.216 L 473.464, 458.722 L 469.042, 458.231 L 464.865, 455.283 z "/>
<path style="fill:rgb(255, 255, 0);fill-opacity:0;fill-rule:evenodd;stroke:rgb(0, 46, 255);stroke-width:1;" d="M 400, 426.044 L 406.634, 416.708 L 409.337, 415.479 L 405.405, 413.759 L 427.518, 383.292 L 431.695, 383.292 L 437.346, 385.749 L 439.066, 388.206 L 407.617, 430.958 L 402.457, 430.467 L 400, 426.044 z "/>
<path style="fill:rgb(255, 0, 0);fill-opacity:0;fill-rule:evenodd;stroke:rgb(0, 46, 255);stroke-width:1;" d="M 412.776, 126.044 L 429.975, 101.966 L 449.386, 110.074 L 432.187, 134.152 L 412.776, 126.044 z "/>
<path style="fill:rgb(0, 255, 0);fill-opacity:0;fill-rule:evenodd;stroke:rgb(0, 46, 255);stroke-width:1;" d="M 421.622, 437.101 L 429.484, 426.044 L 431.941, 425.061 L 427.273, 423.096 L 449.631, 392.875 L 453.317, 392.629 L 458.477, 394.84 L 460.934, 397.543 L 429.484, 440.295 L 424.57, 439.803 L 421.622, 437.101 z "/>
<path style="fill:rgb(0, 0, 255);fill-opacity:0;fill-rule:evenodd;stroke:rgb(0, 46, 255);stroke-width:1;" d="M 407.617, 430.958 L 439.066, 388.206 L 442.998, 388.206 L 448.157, 390.418 L 449.631, 392.875 L 427.273, 423.096 L 423.833, 421.622 L 423.587, 423.833 L 415.725, 434.398 L 410.811, 433.907 L 407.617, 430.958 z "/>
<path style="fill:rgb(255, 255, 0);fill-opacity:0;fill-rule:evenodd;stroke:rgb(0, 46, 255);stroke-width:1;" d="M 429.484, 440.295 L 460.934, 397.543 L 463.882, 397.052 L 469.779, 399.509 L 471.744, 402.211 L 449.386, 432.432 L 445.209, 430.713 L 443.98, 432.187 L 437.101, 443.735 L 432.187, 443.489 L 429.484, 440.295 z "/>
<path style="fill:rgb(255, 0, 0);fill-opacity:0;fill-rule:evenodd;stroke:rgb(0, 46, 255);stroke-width:1;" d="M 450.614, 449.386 L 482.31, 406.634 L 486.241, 406.388 L 490.663, 408.354 L 492.875, 411.057 L 471.007, 441.032 L 467.076, 439.558 L 458.477, 452.58 L 454.054, 451.843 L 450.614, 449.386 z "/>
<path style="fill:rgb(0, 255, 0);fill-opacity:0;fill-rule:evenodd;stroke:rgb(0, 46, 255);stroke-width:1;" d="M 443.243, 446.192 L 451.106, 435.381 L 453.563, 434.152 L 449.386, 432.432 L 471.744, 402.211 L 475.43, 401.966 L 480.59, 404.177 L 482.31, 406.634 L 450.614, 449.386 L 445.7, 448.649 L 443.243, 446.192 z "/>
</svg>