<?xml version="1.0" encoding="iso-8859-1" standalone="no"?>
<!DOCTYPE svg PUBLIC "-//W3C//DTD SVG 1.0//EN" "http://www.w3.org/TR/2001/REC-SVG-20010904/DTD/svg10.dtd">
<svg xmlns="http://www.w3.org/2000/svg" width="683" height="800">
<path style="fill:rgb(255, 0, 0);fill-opacity:0;fill-rule:evenodd;stroke:rgb(0, 255, 167);stroke-width:1;" d="M 492.933, 36.9022 L 494.964, 28.0999 L 543.039, 34.8709 L 543.716, 33.5167 L 545.408, 31.1468 L 548.117, 29.4541 L 549.81, 28.777 L 553.195, 27.7613 L 556.919, 27.7613 L 561.997, 6.77105 L 579.264, 0 L 602.962, 3.04697 L 613.457, 20.6517 L 601.608, 69.0647 L 581.972, 81.2526 L 563.352, 78.5442 L 548.794, 62.6322 L 550.487, 54.8455 L 544.393, 52.4757 L 541.684, 50.4444 L 540.33, 48.0745 L 539.314, 43.3347 L 492.933, 36.9022 z "/>
<path style="fill:rgb(0, 255, 0);fill-opacity:0;fill-rule:evenodd;stroke:rgb(0, 255, 167);stroke-width:1;" d="M 607.364, 439.78 L 623.953, 414.388 L 622.26, 414.05 L 635.125, 394.075 L 627, 391.367 L 639.526, 372.069 L 647.99, 375.116 L 658.485, 359.204 L 683.876, 368.684 L 674.058, 383.242 L 679.137, 385.273 L 653.407, 424.884 L 654.084, 424.884 L 637.495, 450.952 L 607.364, 439.78 z "/>
<path style="fill:rgb(0, 0, 255);fill-opacity:0;fill-rule:evenodd;stroke:rgb(0, 255, 167);stroke-width:1;" d="M 0, 779.348 L 8.80237, 767.837 L 11.1722, 768.853 L 15.5734, 770.546 L 16.5891, 769.192 L 37.5793, 778.333 L 21.6674, 800 L 2.36987, 791.875 L 8.80237, 783.072 L 0, 779.348 z "/>
</svg>