<?xml version="1.0" encoding="iso-8859-1" standalone="no"?>
<!DOCTYPE svg PUBLIC "-//W3C//DTD SVG 1.0//EN" "http://www.w3.org/TR/2001/REC-SVG-20010904/DTD/svg10.dtd">
<svg xmlns="http://www.w3.org/2000/svg" width="1065" height="800">
<path style="fill:rgb(255, 0, 0);fill-opacity:0;fill-rule:evenodd;stroke:rgb(53, 255, 0);stroke-width:1;" d="M 387.753, 542.999 L 394.597, 502.296 L 432.778, 506.078 L 555.606, 517.965 L 599.19, 522.107 L 593.787, 553.985 L 578.838, 643.854 L 574.336, 670.869 L 574.156, 671.049 L 568.213, 672.67 L 387.753, 542.999 z "/>
<path style="fill:rgb(0, 255, 0);fill-opacity:0;fill-rule:evenodd;stroke:rgb(53, 255, 0);stroke-width:1;" d="M 387.753, 542.999 L 394.597, 502.296 L 432.778, 506.078 L 431.157, 515.263 L 429.536, 524.629 L 552.364, 536.515 L 553.985, 527.15 L 584.421, 529.851 L 580.639, 552.724 L 565.691, 642.593 L 578.838, 643.854 L 574.336, 670.869 L 574.156, 671.049 L 568.213, 672.67 L 387.753, 542.999 z "/>
<path style="fill:rgb(0, 0, 255);fill-opacity:0;fill-rule:evenodd;stroke:rgb(53, 255, 0);stroke-width:1;" d="M 409.905, 549.662 L 413.507, 524.809 L 568.753, 539.577 L 554.345, 628.186 L 537.956, 640.973 L 409.905, 549.662 z "/>
<path style="fill:rgb(255, 255, 0);fill-opacity:0;fill-rule:evenodd;stroke:rgb(53, 255, 0);stroke-width:1;" d="M 691.04, 618.46 L 705.448, 533.994 L 715.173, 534.894 L 825.394, 545.7 L 813.688, 569.113 L 795.678, 569.653 L 794.237, 576.497 L 792.256, 583.521 L 790.995, 586.763 L 788.294, 593.606 L 784.872, 600.09 L 778.388, 599.37 L 776.587, 611.076 L 773.886, 626.565 L 691.04, 618.46 z "/>
<path style="fill:rgb(255, 0, 0);fill-opacity:0;fill-rule:evenodd;stroke:rgb(53, 255, 0);stroke-width:1;" d="M 306.529, 701.306 L 323.458, 600.27 L 325.079, 590.545 L 340.387, 601.531 L 426.835, 663.485 L 399.28, 685.457 L 395.137, 709.95 L 306.529, 701.306 z "/>
<path style="fill:rgb(0, 255, 0);fill-opacity:0;fill-rule:evenodd;stroke:rgb(53, 255, 0);stroke-width:1;" d="M 306.529, 701.306 L 323.458, 600.27 L 340.387, 601.531 L 426.835, 663.485 L 399.28, 685.457 L 395.137, 709.95 L 306.529, 701.306 z "/>
<path style="fill:rgb(0, 0, 255);fill-opacity:0;fill-rule:evenodd;stroke:rgb(53, 255, 0);stroke-width:1;" d="M 553.985, 256.281 L 560.648, 217.74 L 559.027, 216.299 L 555.065, 215.939 L 562.629, 171.274 L 658.622, 180.639 L 646.195, 254.12 L 644.214, 265.106 L 553.985, 256.281 z "/>
<path style="fill:rgb(255, 255, 0);fill-opacity:0;fill-rule:evenodd;stroke:rgb(53, 255, 0);stroke-width:1;" d="M 769.203, 348.492 L 776.767, 304.187 L 798.739, 305.808 L 798.559, 307.069 L 878.703, 313.552 L 868.978, 383.431 L 870.959, 383.431 L 868.258, 403.422 L 793.336, 397.299 L 794.057, 391.715 L 796.758, 391.896 L 797.839, 383.791 L 800.36, 365.961 L 801.621, 357.317 L 802.341, 351.733 L 769.203, 348.492 z "/>
<path style="fill:rgb(255, 0, 0);fill-opacity:0;fill-rule:evenodd;stroke:rgb(53, 255, 0);stroke-width:1;" d="M 161.729, 567.852 L 176.677, 481.225 L 211.256, 484.647 L 264.385, 523.728 L 274.291, 542.638 L 268.167, 578.478 L 161.729, 567.852 z "/>
<path style="fill:rgb(0, 255, 0);fill-opacity:0;fill-rule:evenodd;stroke:rgb(53, 255, 0);stroke-width:1;" d="M 809.545, 160.468 L 816.749, 115.263 L 866.096, 119.766 L 868.438, 104.638 L 875.281, 61.0536 L 922.107, 65.376 L 915.263, 109.14 L 902.656, 108.059 L 901.036, 117.965 L 912.922, 119.045 L 904.998, 169.293 L 809.545, 160.468 z "/>
<path style="fill:rgb(0, 0, 255);fill-opacity:0;fill-rule:evenodd;stroke:rgb(53, 255, 0);stroke-width:1;" d="M 366.321, 353.534 L 380.91, 269.968 L 464.475, 278.433 L 464.115, 280.594 L 458.712, 310.851 L 457.271, 320.036 L 454.21, 319.676 L 446.826, 361.639 L 366.321, 353.534 z "/>
<path style="fill:rgb(255, 255, 0);fill-opacity:0;fill-rule:evenodd;stroke:rgb(53, 255, 0);stroke-width:1;" d="M 730.122, 153.264 L 746.511, 49.3471 L 810.266, 55.1103 L 793.877, 159.027 L 730.122, 153.264 z "/>
<path style="fill:rgb(255, 0, 0);fill-opacity:0;fill-rule:evenodd;stroke:rgb(53, 255, 0);stroke-width:1;" d="M 881.405, 597.389 L 897.794, 557.226 L 934.714, 564.07 L 978.838, 572.175 L 1016.48, 579.199 L 965.871, 638.811 L 961.549, 636.83 L 955.786, 633.949 L 953.805, 632.868 L 939.036, 625.664 L 922.828, 617.74 L 888.969, 601.171 L 885.007, 599.19 L 881.405, 597.389 z "/>
<path style="fill:rgb(0, 255, 0);fill-opacity:0;fill-rule:evenodd;stroke:rgb(53, 255, 0);stroke-width:1;" d="M 919.586, 171.634 L 936.155, 66.6367 L 979.379, 70.5988 L 974.336, 101.936 L 970.914, 123.728 L 987.483, 125.349 L 998.649, 126.249 L 995.768, 145.16 L 974.696, 170.914 L 961.369, 175.597 L 919.586, 171.634 z "/>
<path style="fill:rgb(0, 0, 255);fill-opacity:0;fill-rule:evenodd;stroke:rgb(53, 255, 0);stroke-width:1;" d="M 956.326, 397.299 L 1006.03, 266.727 L 1065.11, 294.462 L 971.274, 403.602 L 956.326, 397.299 z "/>
<path style="fill:rgb(255, 255, 0);fill-opacity:0;fill-rule:evenodd;stroke:rgb(53, 255, 0);stroke-width:1;" d="M 885.007, 599.19 L 900.855, 561.189 L 933.633, 567.492 L 934.714, 564.07 L 978.838, 572.175 L 977.758, 575.597 L 1010, 581 L 1000.09, 591.986 L 1002.07, 593.066 L 977.398, 621.882 L 975.597, 620.982 L 961.549, 636.83 L 955.786, 633.949 L 953.805, 632.868 L 939.036, 625.664 L 922.828, 617.74 L 888.969, 601.171 L 885.007, 599.19 z "/>
<path style="fill:rgb(255, 0, 0);fill-opacity:0;fill-rule:evenodd;stroke:rgb(53, 255, 0);stroke-width:1;" d="M 713.733, 456.011 L 716.074, 441.963 L 722.738, 442.503 L 723.278, 439.802 L 748.492, 441.963 L 750.293, 430.797 L 759.478, 431.517 L 761.099, 421.252 L 854.57, 429.896 L 862.674, 433.679 L 856.551, 471.139 L 840.882, 469.698 L 814.768, 467.357 L 767.762, 463.035 L 768.122, 461.054 L 713.733, 456.011 z "/>
<path style="fill:rgb(0, 255, 0);fill-opacity:0;fill-rule:evenodd;stroke:rgb(53, 255, 0);stroke-width:1;" d="M 710.311, 269.068 L 724.719, 185.502 L 780.91, 190.905 L 766.502, 274.651 L 710.311, 269.068 z "/>
<path style="fill:rgb(0, 0, 255);fill-opacity:0;fill-rule:evenodd;stroke:rgb(53, 255, 0);stroke-width:1;" d="M 888.969, 601.171 L 903.377, 564.971 L 932.553, 570.374 L 933.633, 567.492 L 977.758, 575.597 L 976.677, 578.658 L 1001.35, 583.161 L 955.786, 633.949 L 953.805, 632.868 L 939.036, 625.664 L 922.828, 617.74 L 888.969, 601.171 z "/>
<path style="fill:rgb(255, 255, 0);fill-opacity:0;fill-rule:evenodd;stroke:rgb(53, 255, 0);stroke-width:1;" d="M 101.576, 214.678 L 113.462, 148.582 L 161.189, 153.444 L 159.388, 163.89 L 146.24, 162.449 L 143.179, 178.838 L 140.477, 178.478 L 134.714, 210.356 L 167.312, 213.778 L 173.255, 180.639 L 205.133, 184.061 L 195.588, 237.01 L 163.71, 233.588 L 165.871, 221.342 L 140.117, 218.64 L 101.576, 214.678 z "/>
<path style="fill:rgb(255, 0, 0);fill-opacity:0;fill-rule:evenodd;stroke:rgb(53, 255, 0);stroke-width:1;" d="M 174.876, 656.281 L 184.061, 602.251 L 262.224, 609.635 L 253.219, 663.845 L 174.876, 656.281 z "/>
<path style="fill:rgb(0, 255, 0);fill-opacity:0;fill-rule:evenodd;stroke:rgb(53, 255, 0);stroke-width:1;" d="M 81.5849, 325.619 L 93.2913, 260.783 L 148.402, 266.547 L 138.316, 322.197 L 136.515, 333.003 L 118.325, 350.833 L 81.5849, 325.619 z "/>
<path style="fill:rgb(0, 0, 255);fill-opacity:0;fill-rule:evenodd;stroke:rgb(53, 255, 0);stroke-width:1;" d="M 451.508, 551.824 L 453.489, 538.676 L 552.904, 548.762 L 551.103, 560.648 L 543.539, 607.114 L 536.335, 612.517 L 507.879, 592.166 L 477.623, 570.554 L 464.115, 560.828 L 451.508, 551.824 z "/>
<path style="fill:rgb(255, 255, 0);fill-opacity:0;fill-rule:evenodd;stroke:rgb(53, 255, 0);stroke-width:1;" d="M 121.207, 96.5331 L 129.311, 47.0059 L 145.52, 48.6267 L 144.98, 51.3282 L 158.487, 52.5889 L 162.81, 50.2476 L 194.687, 53.3093 L 210.176, 54.7501 L 206.934, 74.2008 L 202.071, 104.097 L 121.207, 96.5331 z "/>
<path style="fill:rgb(255, 0, 0);fill-opacity:0;fill-rule:evenodd;stroke:rgb(53, 255, 0);stroke-width:1;" d="M 807.024, 244.034 L 814.768, 194.687 L 894.552, 201.891 L 886.808, 251.238 L 807.024, 244.034 z "/>
<path style="fill:rgb(0, 255, 0);fill-opacity:0;fill-rule:evenodd;stroke:rgb(53, 255, 0);stroke-width:1;" d="M 520.126, 63.3949 L 525.889, 28.4557 L 625.484, 37.8208 L 619.901, 72.5799 L 612.337, 71.8595 L 611.796, 76.0018 L 534.534, 68.6177 L 533.814, 72.2197 L 530.392, 71.8595 L 530.752, 69.158 L 528.771, 68.9779 L 529.491, 64.2954 L 520.126, 63.3949 z "/>
<path style="fill:rgb(0, 0, 255);fill-opacity:0;fill-rule:evenodd;stroke:rgb(53, 255, 0);stroke-width:1;" d="M 561.729, 138.136 L 567.492, 102.837 L 621.342, 108.059 L 670.509, 112.742 L 664.746, 148.041 L 561.729, 138.136 z "/>
<path style="fill:rgb(255, 255, 0);fill-opacity:0;fill-rule:evenodd;stroke:rgb(53, 255, 0);stroke-width:1;" d="M 615.579, 98.154 L 618.46, 80.8645 L 625.664, 81.5849 L 632.868, 38.5412 L 682.035, 43.2238 L 676.812, 74.561 L 670.509, 112.742 L 621.342, 108.059 L 622.783, 98.8744 L 615.579, 98.154 z "/>
<path style="fill:rgb(255, 0, 0);fill-opacity:0;fill-rule:evenodd;stroke:rgb(53, 255, 0);stroke-width:1;" d="M 650.518, 614.498 L 664.746, 529.851 L 705.448, 533.994 L 691.04, 618.46 L 650.518, 614.498 z "/>
<path style="fill:rgb(0, 255, 0);fill-opacity:0;fill-rule:evenodd;stroke:rgb(53, 255, 0);stroke-width:1;" d="M 548.222, 328.501 L 555.245, 286.718 L 638.631, 295.002 L 632.508, 331.562 L 585.862, 327.06 L 575.597, 325.979 L 574.696, 331.202 L 548.222, 328.501 z "/>
<path style="fill:rgb(0, 0, 255);fill-opacity:0;fill-rule:evenodd;stroke:rgb(53, 255, 0);stroke-width:1;" d="M 727.96, 261.684 L 731.923, 238.811 L 731.923, 191.625 L 773.706, 191.625 L 773.525, 233.769 L 767.942, 265.646 L 727.96, 261.684 z "/>
<path style="fill:rgb(255, 255, 0);fill-opacity:0;fill-rule:evenodd;stroke:rgb(53, 255, 0);stroke-width:1;" d="M 166.772, 782.71 L 168.393, 774.066 L 171.274, 757.136 L 174.516, 737.506 L 177.578, 737.866 L 239.172, 743.989 L 231.427, 789.194 L 170.014, 783.071 L 166.772, 782.71 z "/>
<path style="fill:rgb(255, 0, 0);fill-opacity:0;fill-rule:evenodd;stroke:rgb(53, 255, 0);stroke-width:1;" d="M 128.411, 564.43 L 143.359, 477.983 L 176.677, 481.225 L 161.729, 567.852 L 128.411, 564.43 z "/>
<path style="fill:rgb(0, 255, 0);fill-opacity:0;fill-rule:evenodd;stroke:rgb(53, 255, 0);stroke-width:1;" d="M 801.441, 280.054 L 807.024, 244.034 L 886.808, 251.238 L 881.225, 287.258 L 801.441, 280.054 z "/>
<path style="fill:rgb(0, 0, 255);fill-opacity:0;fill-rule:evenodd;stroke:rgb(53, 255, 0);stroke-width:1;" d="M 291.76, 770.104 L 297.884, 733.183 L 372.445, 740.387 L 366.682, 775.326 L 366.321, 777.308 L 316.254, 772.445 L 291.76, 770.104 z "/>
<path style="fill:rgb(255, 255, 0);fill-opacity:0;fill-rule:evenodd;stroke:rgb(53, 255, 0);stroke-width:1;" d="M 246.376, 363.8 L 253.76, 319.496 L 279.874, 322.017 L 280.955, 315.894 L 312.112, 318.775 L 303.647, 369.383 L 246.376, 363.8 z "/>
<path style="fill:rgb(255, 0, 0);fill-opacity:0;fill-rule:evenodd;stroke:rgb(53, 255, 0);stroke-width:1;" d="M 464.115, 560.828 L 465.376, 552.544 L 487.348, 554.525 L 538.676, 559.388 L 551.103, 560.648 L 543.539, 607.114 L 536.335, 612.517 L 507.879, 592.166 L 477.623, 570.554 L 464.115, 560.828 z "/>
<path style="fill:rgb(0, 255, 0);fill-opacity:0;fill-rule:evenodd;stroke:rgb(53, 255, 0);stroke-width:1;" d="M 169.473, 688.519 L 174.876, 656.281 L 253.219, 663.845 L 247.816, 696.083 L 169.473, 688.519 z "/>
<path style="fill:rgb(0, 0, 255);fill-opacity:0;fill-rule:evenodd;stroke:rgb(53, 255, 0);stroke-width:1;" d="M 705.448, 593.606 L 711.211, 558.307 L 722.197, 559.388 L 764.16, 563.35 L 763.8, 564.971 L 783.791, 566.952 L 778.388, 599.37 L 758.397, 597.389 L 758.217, 598.649 L 716.434, 594.687 L 705.448, 593.606 z "/>
<path style="fill:rgb(255, 255, 0);fill-opacity:0;fill-rule:evenodd;stroke:rgb(53, 255, 0);stroke-width:1;" d="M 820.711, 742.368 L 826.475, 730.122 L 832.778, 733.003 L 866.997, 694.282 L 872.22, 688.339 L 875.822, 684.376 L 896.173, 695.002 L 887.348, 704.908 L 867.177, 729.761 L 881.945, 736.605 L 861.594, 761.819 L 820.711, 742.368 z "/>
<path style="fill:rgb(255, 0, 0);fill-opacity:0;fill-rule:evenodd;stroke:rgb(53, 255, 0);stroke-width:1;" d="M 93.2913, 260.783 L 101.576, 214.678 L 140.117, 218.64 L 136.335, 230.887 L 137.956, 231.067 L 135.795, 243.494 L 152.184, 245.115 L 148.582, 255.38 L 150.383, 255.561 L 150.023, 257.722 L 148.402, 266.547 L 93.2913, 260.783 z "/>
<path style="fill:rgb(0, 255, 0);fill-opacity:0;fill-rule:evenodd;stroke:rgb(53, 255, 0);stroke-width:1;" d="M 395.137, 709.95 L 399.28, 685.457 L 426.835, 663.485 L 461.774, 688.519 L 446.285, 700.765 L 443.944, 714.813 L 395.137, 709.95 z "/>
<path style="fill:rgb(0, 0, 255);fill-opacity:0;fill-rule:evenodd;stroke:rgb(53, 255, 0);stroke-width:1;" d="M 63.0347, 438.001 L 68.0774, 408.104 L 83.3859, 395.498 L 132.013, 429.176 L 129.491, 444.304 L 63.0347, 438.001 z "/>
<path style="fill:rgb(255, 255, 0);fill-opacity:0;fill-rule:evenodd;stroke:rgb(53, 255, 0);stroke-width:1;" d="M 711.211, 558.307 L 715.173, 534.894 L 825.394, 545.7 L 813.688, 569.113 L 795.678, 569.653 L 783.791, 566.952 L 785.952, 555.245 L 723.998, 549.302 L 722.197, 559.388 L 711.211, 558.307 z "/>
<path style="fill:rgb(255, 0, 0);fill-opacity:0;fill-rule:evenodd;stroke:rgb(53, 255, 0);stroke-width:1;" d="M 106.799, 562.269 L 114.363, 518.145 L 115.263, 513.102 L 121.747, 475.642 L 143.359, 477.983 L 128.411, 564.43 L 106.799, 562.269 z "/>
<path style="fill:rgb(0, 255, 0);fill-opacity:0;fill-rule:evenodd;stroke:rgb(53, 255, 0);stroke-width:1;" d="M 459.072, 204.412 L 459.793, 201.171 L 461.054, 192.706 L 466.457, 161.729 L 513.823, 166.412 L 507.519, 203.152 L 479.604, 200.45 L 478.703, 206.394 L 459.072, 204.412 z "/>
<path style="fill:rgb(0, 0, 255);fill-opacity:0;fill-rule:evenodd;stroke:rgb(53, 255, 0);stroke-width:1;" d="M 118.325, 350.833 L 136.515, 333.003 L 141.558, 323.998 L 151.463, 330.662 L 149.482, 333.904 L 152.184, 335.344 L 177.398, 338.046 L 169.293, 384.151 L 166.231, 385.052 L 118.325, 350.833 z "/>
<path style="fill:rgb(255, 255, 0);fill-opacity:0;fill-rule:evenodd;stroke:rgb(53, 255, 0);stroke-width:1;" d="M 567.492, 372.805 L 572.895, 341.648 L 583.161, 342.548 L 629.806, 347.231 L 624.403, 378.388 L 567.492, 372.805 z "/>
<path style="fill:rgb(255, 0, 0);fill-opacity:0;fill-rule:evenodd;stroke:rgb(53, 255, 0);stroke-width:1;" d="M 403.602, 302.747 L 408.465, 275.011 L 464.115, 280.594 L 458.712, 310.851 L 418.37, 306.709 L 418.73, 304.367 L 403.602, 302.747 z "/>
<path style="fill:rgb(0, 255, 0);fill-opacity:0;fill-rule:evenodd;stroke:rgb(53, 255, 0);stroke-width:1;" d="M 820.171, 100.135 L 827.015, 56.7312 L 858.892, 59.6128 L 857.452, 68.0774 L 853.489, 94.1918 L 852.049, 103.017 L 820.171, 100.135 z "/>
<path style="fill:rgb(0, 0, 255);fill-opacity:0;fill-rule:evenodd;stroke:rgb(53, 255, 0);stroke-width:1;" d="M 68.2575, 434.939 L 72.3998, 409.725 L 83.7461, 400.36 L 127.15, 430.617 L 125.529, 440.342 L 68.2575, 434.939 z "/>
<path style="fill:rgb(255, 255, 0);fill-opacity:0;fill-rule:evenodd;stroke:rgb(53, 255, 0);stroke-width:1;" d="M 904.998, 169.833 L 904.998, 169.293 L 915.263, 118.505 L 916.164, 109.14 L 923.368, 64.2954 L 936.335, 65.376 L 936.155, 66.6367 L 929.851, 104.998 L 918.865, 171.094 L 904.998, 169.833 z "/>
<path style="fill:rgb(255, 0, 0);fill-opacity:0;fill-rule:evenodd;stroke:rgb(53, 255, 0);stroke-width:1;" d="M 766.502, 506.258 L 769.563, 487.348 L 771.724, 474.201 L 812.967, 478.163 L 807.744, 510.221 L 766.502, 506.258 z "/>
<path style="fill:rgb(0, 255, 0);fill-opacity:0;fill-rule:evenodd;stroke:rgb(53, 255, 0);stroke-width:1;" d="M 700.946, 619.901 L 705.448, 593.606 L 716.434, 594.687 L 714.633, 604.953 L 776.587, 611.076 L 773.886, 626.925 L 700.946, 619.901 z "/>
<path style="fill:rgb(0, 0, 255);fill-opacity:0;fill-rule:evenodd;stroke:rgb(53, 255, 0);stroke-width:1;" d="M 191.445, 656.641 L 192.346, 650.698 L 195.407, 632.688 L 207.294, 633.769 L 209.455, 620.982 L 231.067, 623.143 L 228.906, 635.93 L 240.072, 637.01 L 237.371, 652.679 L 244.755, 653.399 L 243.314, 661.684 L 226.385, 660.063 L 227.285, 653.94 L 204.232, 651.778 L 203.332, 657.722 L 191.445, 656.641 z "/>
<path style="fill:rgb(255, 255, 0);fill-opacity:0;fill-rule:evenodd;stroke:rgb(53, 255, 0);stroke-width:1;" d="M 52.2287, 741.648 L 52.5889, 738.946 L 54.0297, 731.022 L 57.6317, 709.95 L 96.353, 713.733 L 90.95, 745.43 L 52.2287, 741.648 z "/>
<path style="fill:rgb(255, 0, 0);fill-opacity:0;fill-rule:evenodd;stroke:rgb(53, 255, 0);stroke-width:1;" d="M 538.316, 369.923 L 541.918, 349.032 L 545.52, 328.321 L 548.222, 328.501 L 574.696, 331.202 L 572.895, 341.648 L 567.492, 372.805 L 538.316, 369.923 z "/>
<path style="fill:rgb(0, 255, 0);fill-opacity:0;fill-rule:evenodd;stroke:rgb(53, 255, 0);stroke-width:1;" d="M 391.896, 204.412 L 393.516, 195.407 L 442.143, 200.27 L 448.987, 160.108 L 466.457, 161.729 L 461.054, 192.706 L 459.793, 201.171 L 451.688, 200.27 L 449.887, 210.176 L 426.114, 207.834 L 391.896, 204.412 z "/>
<path style="fill:rgb(0, 0, 255);fill-opacity:0;fill-rule:evenodd;stroke:rgb(53, 255, 0);stroke-width:1;" d="M 565.691, 642.593 L 580.639, 552.724 L 593.787, 553.985 L 578.838, 643.854 L 565.691, 642.593 z "/>
<path style="fill:rgb(255, 255, 0);fill-opacity:0;fill-rule:evenodd;stroke:rgb(53, 255, 0);stroke-width:1;" d="M 240.432, 170.554 L 245.475, 140.477 L 284.737, 144.439 L 280.594, 168.933 L 279.694, 174.336 L 240.432, 170.554 z "/>
<path style="fill:rgb(255, 0, 0);fill-opacity:0;fill-rule:evenodd;stroke:rgb(53, 255, 0);stroke-width:1;" d="M 429.536, 524.629 L 431.157, 515.263 L 553.985, 527.15 L 552.364, 536.515 L 429.536, 524.629 z "/>
<path style="fill:rgb(0, 255, 0);fill-opacity:0;fill-rule:evenodd;stroke:rgb(53, 255, 0);stroke-width:1;" d="M 431.157, 515.263 L 432.778, 506.078 L 555.606, 517.965 L 553.985, 527.15 L 431.157, 515.263 z "/>
<path style="fill:rgb(0, 0, 255);fill-opacity:0;fill-rule:evenodd;stroke:rgb(53, 255, 0);stroke-width:1;" d="M 807.744, 510.221 L 812.967, 478.163 L 814.768, 467.357 L 840.882, 469.698 L 839.622, 477.983 L 834.039, 512.742 L 807.744, 510.221 z "/>
<path style="fill:rgb(255, 255, 0);fill-opacity:0;fill-rule:evenodd;stroke:rgb(53, 255, 0);stroke-width:1;" d="M 140.477, 754.435 L 146.421, 718.415 L 177.398, 721.657 L 175.056, 735.344 L 174.516, 737.506 L 171.274, 757.136 L 163.35, 755.696 L 163.53, 758.217 L 140.477, 754.435 z "/>
<path style="fill:rgb(255, 0, 0);fill-opacity:0;fill-rule:evenodd;stroke:rgb(53, 255, 0);stroke-width:1;" d="M 217.74, 302.026 L 222.783, 271.409 L 261.864, 275.371 L 260.423, 284.016 L 249.437, 282.936 L 247.996, 291.58 L 258.982, 292.661 L 256.641, 305.808 L 251.778, 305.448 L 217.74, 302.026 z "/>
<path style="fill:rgb(0, 255, 0);fill-opacity:0;fill-rule:evenodd;stroke:rgb(53, 255, 0);stroke-width:1;" d="M 934.714, 501.396 L 955.245, 477.803 L 995.407, 497.974 L 988.384, 505.898 L 986.763, 505.178 L 984.241, 508.059 L 980.459, 506.258 L 971.814, 516.164 L 964.611, 512.382 L 962.089, 515.083 L 957.587, 512.742 L 964.25, 504.998 L 964.611, 501.756 L 960.468, 499.595 L 957.226, 499.955 L 949.662, 508.78 L 934.714, 501.396 z "/>
<path style="fill:rgb(0, 0, 255);fill-opacity:0;fill-rule:evenodd;stroke:rgb(53, 255, 0);stroke-width:1;" d="M 175.056, 735.344 L 177.398, 721.657 L 241.873, 728.14 L 239.172, 743.989 L 177.578, 737.866 L 178.118, 735.705 L 175.056, 735.344 z "/>
<path style="fill:rgb(255, 255, 0);fill-opacity:0;fill-rule:evenodd;stroke:rgb(53, 255, 0);stroke-width:1;" d="M 956.146, 780.91 L 977.578, 756.416 L 990.725, 741.468 L 1008.73, 750.653 L 979.199, 784.331 L 974.156, 790.095 L 956.146, 780.91 z "/>
<path style="fill:rgb(255, 0, 0);fill-opacity:0;fill-rule:evenodd;stroke:rgb(53, 255, 0);stroke-width:1;" d="M 113.462, 148.582 L 117.064, 127.69 L 161.549, 132.193 L 159.568, 142.999 L 162.99, 143.359 L 161.189, 153.444 L 113.462, 148.582 z "/>
<path style="fill:rgb(0, 255, 0);fill-opacity:0;fill-rule:evenodd;stroke:rgb(53, 255, 0);stroke-width:1;" d="M 914.003, 526.61 L 932.013, 505.538 L 944.62, 511.842 L 942.458, 514.363 L 940.297, 514.363 L 940.837, 517.425 L 943.899, 518.865 L 945.16, 517.425 L 946.961, 518.325 L 947.861, 517.425 L 991.085, 538.676 L 994.147, 535.074 L 998.829, 537.416 L 994.507, 542.638 L 989.824, 540.297 L 989.104, 541.198 L 914.003, 526.61 z "/>
<path style="fill:rgb(0, 0, 255);fill-opacity:0;fill-rule:evenodd;stroke:rgb(53, 255, 0);stroke-width:1;" d="M 234.669, 201.171 L 238.631, 177.037 L 277.353, 181 L 273.39, 204.953 L 271.589, 204.773 L 234.669, 201.171 z "/>
<path style="fill:rgb(255, 255, 0);fill-opacity:0;fill-rule:evenodd;stroke:rgb(53, 255, 0);stroke-width:1;" d="M 443.944, 714.813 L 446.285, 700.765 L 461.774, 688.519 L 498.334, 714.813 L 495.272, 719.676 L 443.944, 714.813 z "/>
<path style="fill:rgb(255, 0, 0);fill-opacity:0;fill-rule:evenodd;stroke:rgb(53, 255, 0);stroke-width:1;" d="M 826.475, 730.122 L 849.707, 676.812 L 872.22, 688.339 L 866.997, 694.282 L 832.778, 733.003 L 826.475, 730.122 z "/>
<path style="fill:rgb(0, 255, 0);fill-opacity:0;fill-rule:evenodd;stroke:rgb(53, 255, 0);stroke-width:1;" d="M 154.885, 249.077 L 155.966, 242.593 L 158.127, 242.954 L 159.748, 233.228 L 163.71, 233.588 L 195.588, 237.01 L 191.085, 262.224 L 155.245, 258.442 L 157.046, 249.257 L 154.885, 249.077 z "/>
<path style="fill:rgb(0, 0, 255);fill-opacity:0;fill-rule:evenodd;stroke:rgb(53, 255, 0);stroke-width:1;" d="M 979.199, 784.331 L 1008.73, 750.653 L 1027.47, 760.198 L 997.929, 793.877 L 979.199, 784.331 z "/>
<path style="fill:rgb(255, 255, 0);fill-opacity:0;fill-rule:evenodd;stroke:rgb(53, 255, 0);stroke-width:1;" d="M 980.639, 667.987 L 994.327, 651.959 L 1012.7, 660.964 L 1009.82, 664.205 L 1011.98, 665.286 L 1011.08, 666.367 L 1014.5, 667.987 L 1015.4, 666.907 L 1017.2, 667.987 L 1020.08, 664.566 L 1038.99, 673.751 L 1028.19, 686.538 L 1029.63, 687.258 L 1028.73, 688.339 L 1027.29, 687.618 L 1025.48, 689.599 L 1013.6, 683.836 L 1012.52, 681.855 L 1007.29, 679.334 L 1008.73, 677.713 L 1007.11, 676.812 L 1008.19, 675.552 L 1002.97, 672.85 L 1000.27, 676.092 L 994.327, 673.03 L 991.625, 673.39 L 980.639, 667.987 z "/>
<path style="fill:rgb(255, 0, 0);fill-opacity:0;fill-rule:evenodd;stroke:rgb(53, 255, 0);stroke-width:1;" d="M 1015.76, 266.006 L 1020.98, 253.399 L 1023.5, 254.48 L 1026.02, 242.053 L 1028.73, 238.811 L 1026.38, 237.911 L 1040.79, 220.621 L 1060.06, 229.986 L 1027.1, 269.428 L 1019, 265.466 L 1017.74, 266.907 L 1015.76, 266.006 z "/>
<path style="fill:rgb(0, 255, 0);fill-opacity:0;fill-rule:evenodd;stroke:rgb(53, 255, 0);stroke-width:1;" d="M 994.327, 651.959 L 1004.77, 639.532 L 1019.18, 646.556 L 1028.37, 651.058 L 1042.95, 658.262 L 1056.1, 664.746 L 1045.48, 676.992 L 1038.99, 673.751 L 1020.08, 664.566 L 1012.7, 660.964 L 994.327, 651.959 z "/>
<path style="fill:rgb(0, 0, 255);fill-opacity:0;fill-rule:evenodd;stroke:rgb(53, 255, 0);stroke-width:1;" d="M 691.04, 618.46 L 705.448, 533.994 L 715.173, 534.894 L 711.211, 558.307 L 705.448, 593.606 L 700.946, 619.901 L 691.04, 618.46 z "/>
<path style="fill:rgb(255, 255, 0);fill-opacity:0;fill-rule:evenodd;stroke:rgb(53, 255, 0);stroke-width:1;" d="M 333.904, 673.931 L 338.226, 651.598 L 357.497, 653.219 L 356.056, 662.224 L 366.141, 663.485 L 380.009, 673.751 L 375.146, 678.253 L 361.459, 676.632 L 360.018, 684.376 L 344.71, 682.756 L 346.511, 675.011 L 333.904, 673.931 z "/>
<path style="fill:rgb(255, 0, 0);fill-opacity:0;fill-rule:evenodd;stroke:rgb(53, 255, 0);stroke-width:1;" d="M 88.4286, 759.658 L 90.95, 745.43 L 96.353, 713.733 L 113.823, 715.353 L 106.439, 758.937 L 102.837, 762.179 L 88.4286, 759.658 z "/>
<path style="fill:rgb(0, 255, 0);fill-opacity:0;fill-rule:evenodd;stroke:rgb(53, 255, 0);stroke-width:1;" d="M 902.476, 667.987 L 910.041, 659.163 L 917.785, 662.945 L 920.306, 662.584 L 923.008, 659.523 L 921.567, 657.722 L 918.325, 656.641 L 926.069, 647.456 L 936.695, 652.859 L 939.217, 649.977 L 951.283, 655.921 L 948.762, 658.802 L 929.671, 681.315 L 902.476, 667.987 z "/>
<path style="fill:rgb(0, 0, 255);fill-opacity:0;fill-rule:evenodd;stroke:rgb(53, 255, 0);stroke-width:1;" d="M 906.619, 629.986 L 915.443, 619.721 L 950.383, 636.83 L 953.805, 632.868 L 955.786, 633.949 L 961.549, 636.83 L 965.871, 638.811 L 951.283, 655.921 L 939.217, 649.977 L 941.558, 647.096 L 906.619, 629.986 z "/>
<path style="fill:rgb(255, 255, 0);fill-opacity:0;fill-rule:evenodd;stroke:rgb(53, 255, 0);stroke-width:1;" d="M 192.346, 632.328 L 193.426, 627.105 L 195.948, 611.977 L 247.816, 617.019 L 245.115, 632.328 L 244.214, 637.371 L 240.072, 637.01 L 228.906, 635.93 L 231.067, 623.143 L 209.455, 620.982 L 207.294, 633.769 L 195.407, 632.688 L 192.346, 632.328 z "/>
<path style="fill:rgb(255, 0, 0);fill-opacity:0;fill-rule:evenodd;stroke:rgb(53, 255, 0);stroke-width:1;" d="M 280.594, 168.933 L 284.737, 144.439 L 289.599, 144.8 L 289.419, 145.7 L 298.964, 146.781 L 299.325, 145.52 L 307.249, 146.24 L 307.069, 147.501 L 316.434, 148.402 L 312.472, 171.995 L 284.016, 169.293 L 280.594, 168.933 z "/>
<path style="fill:rgb(0, 255, 0);fill-opacity:0;fill-rule:evenodd;stroke:rgb(53, 255, 0);stroke-width:1;" d="M 993.967, 533.093 L 1015.58, 508.24 L 1037.37, 519.045 L 1018.46, 540.657 L 1015.58, 543.899 L 993.967, 533.093 z "/>
<path style="fill:rgb(0, 0, 255);fill-opacity:0;fill-rule:evenodd;stroke:rgb(53, 255, 0);stroke-width:1;" d="M 902.476, 667.987 L 910.041, 659.163 L 917.785, 662.945 L 920.306, 662.584 L 923.008, 659.523 L 921.567, 657.722 L 918.325, 656.641 L 926.069, 647.456 L 936.695, 652.859 L 948.762, 658.802 L 929.671, 681.315 L 902.476, 667.987 z "/>
<path style="fill:rgb(255, 255, 0);fill-opacity:0;fill-rule:evenodd;stroke:rgb(53, 255, 0);stroke-width:1;" d="M 583.161, 342.548 L 585.862, 327.06 L 632.508, 331.562 L 629.806, 347.231 L 583.161, 342.548 z "/>
<path style="fill:rgb(255, 0, 0);fill-opacity:0;fill-rule:evenodd;stroke:rgb(53, 255, 0);stroke-width:1;" d="M 973.075, 522.467 L 982.44, 511.481 L 983.161, 511.842 L 988.384, 505.898 L 995.407, 497.974 L 1015.58, 508.24 L 993.967, 533.093 L 973.075, 522.467 z "/>
<path style="fill:rgb(0, 255, 0);fill-opacity:0;fill-rule:evenodd;stroke:rgb(53, 255, 0);stroke-width:1;" d="M 459.793, 93.1112 L 460.873, 86.2674 L 461.954, 80.5043 L 465.556, 57.9919 L 486.087, 59.973 L 480.324, 95.0923 L 459.793, 93.1112 z "/>
<path style="fill:rgb(0, 0, 255);fill-opacity:0;fill-rule:evenodd;stroke:rgb(53, 255, 0);stroke-width:1;" d="M 274.111, 205.493 L 276.092, 193.066 L 279.514, 193.426 L 333.904, 198.649 L 331.742, 211.076 L 274.111, 205.493 z "/>
<path style="fill:rgb(255, 255, 0);fill-opacity:0;fill-rule:evenodd;stroke:rgb(53, 255, 0);stroke-width:1;" d="M 553.985, 527.15 L 555.606, 517.965 L 599.19, 522.107 L 593.787, 553.985 L 580.639, 552.724 L 584.421, 529.851 L 553.985, 527.15 z "/>
<path style="fill:rgb(255, 0, 0);fill-opacity:0;fill-rule:evenodd;stroke:rgb(53, 255, 0);stroke-width:1;" d="M 278.613, 181 L 279.694, 174.336 L 283.116, 174.696 L 284.016, 169.293 L 312.472, 171.995 L 337.866, 174.516 L 335.885, 186.583 L 281.675, 181.36 L 278.613, 181 z "/>
<path style="fill:rgb(0, 255, 0);fill-opacity:0;fill-rule:evenodd;stroke:rgb(53, 255, 0);stroke-width:1;" d="M 714.633, 604.953 L 716.434, 594.687 L 758.217, 598.649 L 758.397, 597.389 L 778.388, 599.37 L 776.587, 611.076 L 714.633, 604.953 z "/>
<path style="fill:rgb(0, 0, 255);fill-opacity:0;fill-rule:evenodd;stroke:rgb(53, 255, 0);stroke-width:1;" d="M 689.959, 383.251 L 692.301, 366.862 L 710.671, 368.483 L 711.571, 362.359 L 727.96, 363.8 L 724.719, 385.952 L 689.959, 383.251 z "/>
<path style="fill:rgb(255, 255, 0);fill-opacity:0;fill-rule:evenodd;stroke:rgb(53, 255, 0);stroke-width:1;" d="M 852.049, 103.017 L 853.489, 94.1918 L 855.29, 92.9311 L 856.191, 86.8077 L 858.712, 86.9878 L 859.613, 81.0446 L 857.091, 80.8645 L 858.892, 70.2386 L 857.452, 68.0774 L 858.892, 59.6128 L 875.281, 61.0536 L 868.438, 104.638 L 852.049, 103.017 z "/>
<path style="fill:rgb(255, 0, 0);fill-opacity:0;fill-rule:evenodd;stroke:rgb(53, 255, 0);stroke-width:1;" d="M 279.514, 193.426 L 281.675, 181.36 L 335.885, 186.583 L 333.904, 198.649 L 279.514, 193.426 z "/>
<path style="fill:rgb(0, 255, 0);fill-opacity:0;fill-rule:evenodd;stroke:rgb(53, 255, 0);stroke-width:1;" d="M 722.197, 559.388 L 723.998, 549.302 L 785.952, 555.245 L 783.791, 566.952 L 763.8, 564.971 L 764.16, 563.35 L 722.197, 559.388 z "/>
<path style="fill:rgb(0, 0, 255);fill-opacity:0;fill-rule:evenodd;stroke:rgb(53, 255, 0);stroke-width:1;" d="M 106.258, 760.198 L 106.439, 758.937 L 113.823, 715.353 L 128.231, 716.794 L 121.207, 758.217 L 120.666, 761.639 L 106.258, 760.198 z "/>
<path style="fill:rgb(255, 255, 0);fill-opacity:0;fill-rule:evenodd;stroke:rgb(53, 255, 0);stroke-width:1;" d="M 487.888, 363.8 L 494.012, 328.321 L 500.315, 328.861 L 499.054, 335.705 L 497.614, 345.07 L 501.396, 345.43 L 503.197, 334.984 L 514.003, 336.065 L 508.6, 366.862 L 490.23, 365.061 L 490.41, 364.16 L 487.888, 363.8 z "/>
<path style="fill:rgb(255, 0, 0);fill-opacity:0;fill-rule:evenodd;stroke:rgb(53, 255, 0);stroke-width:1;" d="M 988.564, 118.325 L 988.924, 116.164 L 990.365, 106.619 L 993.787, 105.718 L 994.687, 100.315 L 996.308, 100.495 L 997.208, 94.9122 L 994.507, 94.7321 L 995.948, 84.6466 L 994.327, 82.3053 L 995.948, 72.0396 L 1011.8, 73.4804 L 1010.18, 83.9262 L 1008.73, 85.5471 L 1007.11, 95.9928 L 1004.41, 95.8127 L 1003.51, 100.855 L 1006.21, 101.216 L 1005.13, 108.059 L 1006.93, 109.32 L 1005.31, 119.766 L 988.564, 118.325 z "/>
<path style="fill:rgb(0, 255, 0);fill-opacity:0;fill-rule:evenodd;stroke:rgb(53, 255, 0);stroke-width:1;" d="M 218.82, 105.718 L 223.863, 75.8217 L 225.304, 66.4566 L 241.513, 68.0774 L 235.029, 107.339 L 218.82, 105.718 z "/>
<path style="fill:rgb(0, 0, 255);fill-opacity:0;fill-rule:evenodd;stroke:rgb(53, 255, 0);stroke-width:1;" d="M 732.643, 386.673 L 738.406, 346.511 L 746.871, 347.231 L 746.691, 349.212 L 754.255, 349.932 L 754.075, 351.013 L 748.852, 387.933 L 732.643, 386.673 z "/>
<path style="fill:rgb(255, 255, 0);fill-opacity:0;fill-rule:evenodd;stroke:rgb(53, 255, 0);stroke-width:1;" d="M 121.207, 758.217 L 128.231, 716.794 L 143.539, 718.415 L 136.335, 759.658 L 121.207, 758.217 z "/>
<path style="fill:rgb(255, 0, 0);fill-opacity:0;fill-rule:evenodd;stroke:rgb(53, 255, 0);stroke-width:1;" d="M 1004.77, 639.532 L 1014.86, 627.645 L 1053.04, 646.376 L 1042.95, 658.262 L 1028.37, 651.058 L 1029.45, 649.797 L 1020.26, 645.295 L 1019.18, 646.556 L 1004.77, 639.532 z "/>
<path style="fill:rgb(0, 255, 0);fill-opacity:0;fill-rule:evenodd;stroke:rgb(53, 255, 0);stroke-width:1;" d="M 99.0545, 511.481 L 105.358, 474.201 L 121.747, 475.642 L 115.263, 513.102 L 99.0545, 511.481 z "/>
<path style="fill:rgb(0, 0, 255);fill-opacity:0;fill-rule:evenodd;stroke:rgb(53, 255, 0);stroke-width:1;" d="M 312.472, 171.995 L 316.434, 148.402 L 341.828, 150.923 L 337.866, 174.516 L 312.472, 171.995 z "/>
<path style="fill:rgb(255, 255, 0);fill-opacity:0;fill-rule:evenodd;stroke:rgb(53, 255, 0);stroke-width:1;" d="M 875.101, 654.66 L 883.206, 644.935 L 888.429, 647.636 L 890.77, 647.456 L 891.49, 645.115 L 889.509, 644.214 L 895.813, 637.01 L 903.557, 640.792 L 915.083, 646.376 L 910.401, 651.959 L 904.998, 649.437 L 902.116, 652.679 L 902.656, 654.84 L 910.401, 658.622 L 910.041, 659.163 L 902.476, 667.987 L 875.101, 654.66 z "/>
<path style="fill:rgb(255, 0, 0);fill-opacity:0;fill-rule:evenodd;stroke:rgb(53, 255, 0);stroke-width:1;" d="M 190.545, 170.194 L 191.445, 165.511 L 192.166, 160.828 L 194.147, 159.568 L 195.047, 155.065 L 197.389, 155.245 L 197.929, 152.004 L 195.588, 151.824 L 196.308, 147.681 L 195.047, 145.52 L 196.848, 135.254 L 214.498, 137.055 L 208.195, 171.995 L 190.545, 170.194 z "/>
<path style="fill:rgb(0, 255, 0);fill-opacity:0;fill-rule:evenodd;stroke:rgb(53, 255, 0);stroke-width:1;" d="M 996.848, 420.171 L 1006.21, 409.185 L 1044.39, 427.915 L 1035.21, 438.901 L 1024.4, 433.679 L 996.848, 420.171 z "/>
<path style="fill:rgb(0, 0, 255);fill-opacity:0;fill-rule:evenodd;stroke:rgb(53, 255, 0);stroke-width:1;" d="M 466.637, 579.559 L 477.623, 570.554 L 479.244, 569.293 L 509.5, 591.085 L 507.879, 592.166 L 496.893, 601.171 L 466.637, 579.559 z "/>
<path style="fill:rgb(255, 255, 0);fill-opacity:0;fill-rule:evenodd;stroke:rgb(53, 255, 0);stroke-width:1;" d="M 1006.21, 409.185 L 1015.22, 398.559 L 1053.4, 417.29 L 1044.39, 427.915 L 1006.21, 409.185 z "/>
<path style="fill:rgb(255, 0, 0);fill-opacity:0;fill-rule:evenodd;stroke:rgb(53, 255, 0);stroke-width:1;" d="M 72.0396, 647.996 L 77.2625, 621.702 L 98.5142, 624.223 L 93.2913, 650.518 L 72.0396, 647.996 z "/>
<path style="fill:rgb(0, 255, 0);fill-opacity:0;fill-rule:evenodd;stroke:rgb(53, 255, 0);stroke-width:1;" d="M 748.852, 387.933 L 754.075, 351.013 L 769.203, 352.274 L 768.843, 354.615 L 767.402, 364.881 L 765.241, 380.729 L 763.98, 389.194 L 748.852, 387.933 z "/>
<path style="fill:rgb(0, 0, 255);fill-opacity:0;fill-rule:evenodd;stroke:rgb(53, 255, 0);stroke-width:1;" d="M 914.003, 745.43 L 939.036, 715.894 L 953.264, 722.918 L 940.657, 737.686 L 939.397, 737.145 L 926.97, 751.914 L 914.003, 745.43 z "/>
<path style="fill:rgb(255, 255, 0);fill-opacity:0;fill-rule:evenodd;stroke:rgb(53, 255, 0);stroke-width:1;" d="M 158.667, 167.852 L 159.388, 163.89 L 161.189, 153.444 L 162.99, 143.359 L 164.971, 132.553 L 180.459, 134.174 L 174.876, 165.691 L 174.156, 169.473 L 158.667, 167.852 z "/>
<path style="fill:rgb(255, 0, 0);fill-opacity:0;fill-rule:evenodd;stroke:rgb(53, 255, 0);stroke-width:1;" d="M 872.22, 729.041 L 899.775, 696.983 L 911.842, 702.927 L 884.286, 735.164 L 872.22, 729.041 z "/>
<path style="fill:rgb(0, 255, 0);fill-opacity:0;fill-rule:evenodd;stroke:rgb(53, 255, 0);stroke-width:1;" d="M 535.254, 327.24 L 537.596, 313.192 L 542.278, 285.457 L 555.245, 286.718 L 548.222, 328.501 L 545.52, 328.321 L 535.254, 327.24 z "/>
<path style="fill:rgb(0, 0, 255);fill-opacity:0;fill-rule:evenodd;stroke:rgb(53, 255, 0);stroke-width:1;" d="M 174.876, 165.691 L 180.459, 134.174 L 180.639, 133.453 L 196.848, 135.254 L 195.047, 145.52 L 192.166, 160.828 L 191.445, 165.511 L 184.241, 164.791 L 184.061, 166.592 L 174.876, 165.691 z "/>
<path style="fill:rgb(255, 255, 0);fill-opacity:0;fill-rule:evenodd;stroke:rgb(53, 255, 0);stroke-width:1;" d="M 202.071, 104.097 L 206.934, 74.2008 L 223.863, 75.8217 L 218.82, 105.718 L 202.071, 104.097 z "/>
<path style="fill:rgb(255, 0, 0);fill-opacity:0;fill-rule:evenodd;stroke:rgb(53, 255, 0);stroke-width:1;" d="M 967.492, 699.145 L 981.54, 682.215 L 1002.61, 692.481 L 1001.35, 693.922 L 988.384, 709.41 L 967.492, 699.145 z "/>
<path style="fill:rgb(0, 255, 0);fill-opacity:0;fill-rule:evenodd;stroke:rgb(53, 255, 0);stroke-width:1;" d="M 232.508, 214.138 L 234.669, 201.171 L 271.589, 204.773 L 268.708, 218.1 L 232.508, 214.138 z "/>
<path style="fill:rgb(0, 0, 255);fill-opacity:0;fill-rule:evenodd;stroke:rgb(53, 255, 0);stroke-width:1;" d="M 508.6, 366.862 L 514.003, 336.065 L 514.363, 333.724 L 528.951, 335.164 L 526.79, 347.591 L 523.188, 368.303 L 508.6, 366.862 z "/>
<path style="fill:rgb(255, 255, 0);fill-opacity:0;fill-rule:evenodd;stroke:rgb(53, 255, 0);stroke-width:1;" d="M 763.98, 389.194 L 765.241, 380.729 L 768.122, 379.649 L 768.843, 374.786 L 771.184, 374.966 L 771.724, 370.644 L 769.383, 370.464 L 769.923, 365.961 L 767.402, 364.881 L 768.843, 354.615 L 785.952, 356.056 L 784.511, 366.141 L 782.35, 366.862 L 781.63, 371.364 L 779.109, 371.184 L 778.568, 375.867 L 780.369, 375.867 L 779.649, 380.549 L 781.45, 382.35 L 780.369, 390.635 L 763.98, 389.194 z "/>
<path style="fill:rgb(255, 0, 0);fill-opacity:0;fill-rule:evenodd;stroke:rgb(53, 255, 0);stroke-width:1;" d="M 497.253, 317.515 L 503.377, 281.675 L 516.704, 282.936 L 511.842, 310.671 L 510.581, 318.955 L 497.253, 317.515 z "/>
<path style="fill:rgb(0, 255, 0);fill-opacity:0;fill-rule:evenodd;stroke:rgb(53, 255, 0);stroke-width:1;" d="M 780.369, 390.635 L 781.45, 382.35 L 783.611, 380.91 L 784.151, 376.587 L 787.393, 376.767 L 787.933, 372.265 L 785.592, 372.085 L 786.312, 367.402 L 784.511, 366.141 L 785.952, 356.056 L 801.621, 357.317 L 800.36, 365.961 L 798.199, 367.942 L 797.479, 372.985 L 795.137, 372.805 L 794.417, 377.308 L 796.578, 377.488 L 796.038, 381.09 L 797.839, 383.791 L 796.758, 391.896 L 794.057, 391.715 L 780.369, 390.635 z "/>
<path style="fill:rgb(0, 0, 255);fill-opacity:0;fill-rule:evenodd;stroke:rgb(53, 255, 0);stroke-width:1;" d="M 366.682, 775.326 L 372.445, 740.387 L 385.772, 741.828 L 380.369, 774.426 L 380.009, 776.767 L 366.682, 775.326 z "/>
<path style="fill:rgb(255, 255, 0);fill-opacity:0;fill-rule:evenodd;stroke:rgb(53, 255, 0);stroke-width:1;" d="M 264.566, 413.147 L 264.746, 411.706 L 278.613, 412.967 L 278.253, 415.489 L 281.315, 415.849 L 281.855, 413.147 L 296.083, 414.588 L 293.021, 431.878 L 279.694, 430.617 L 280.054, 428.816 L 275.912, 428.456 L 275.732, 430.257 L 270.149, 429.716 L 264.566, 413.147 z "/>
<path style="fill:rgb(255, 0, 0);fill-opacity:0;fill-rule:evenodd;stroke:rgb(53, 255, 0);stroke-width:1;" d="M 520.306, 607.654 L 525.169, 578.118 L 540.657, 579.559 L 535.795, 609.095 L 520.306, 607.654 z "/>
<path style="fill:rgb(0, 255, 0);fill-opacity:0;fill-rule:evenodd;stroke:rgb(53, 255, 0);stroke-width:1;" d="M 215.398, 315.894 L 217.74, 302.026 L 251.778, 305.448 L 250.338, 313.733 L 247.636, 313.372 L 246.736, 318.955 L 215.398, 315.894 z "/>
<path style="fill:rgb(0, 0, 255);fill-opacity:0;fill-rule:evenodd;stroke:rgb(53, 255, 0);stroke-width:1;" d="M 156.686, 179.018 L 158.307, 169.473 L 206.754, 174.696 L 205.133, 184.061 L 173.255, 180.639 L 156.686, 179.018 z "/>
<path style="fill:rgb(255, 255, 0);fill-opacity:0;fill-rule:evenodd;stroke:rgb(53, 255, 0);stroke-width:1;" d="M 396.398, 327.42 L 400.9, 302.386 L 403.602, 302.747 L 418.73, 304.367 L 418.37, 306.709 L 414.408, 329.221 L 396.398, 327.42 z "/>
<path style="fill:rgb(255, 0, 0);fill-opacity:0;fill-rule:evenodd;stroke:rgb(53, 255, 0);stroke-width:1;" d="M 222.963, 426.475 L 239.892, 412.067 L 240.252, 406.303 L 240.612, 399.46 L 250.338, 400.36 L 251.238, 403.062 L 256.821, 417.65 L 244.214, 420.351 L 230.887, 431.878 L 222.963, 426.475 z "/>
<path style="fill:rgb(0, 255, 0);fill-opacity:0;fill-rule:evenodd;stroke:rgb(53, 255, 0);stroke-width:1;" d="M 452.589, 712.112 L 454.75, 697.524 L 458.352, 694.822 L 463.395, 698.424 L 466.096, 696.623 L 490.95, 714.453 L 490.05, 715.894 L 452.589, 712.112 z "/>
<path style="fill:rgb(0, 0, 255);fill-opacity:0;fill-rule:evenodd;stroke:rgb(53, 255, 0);stroke-width:1;" d="M 380.369, 774.426 L 385.772, 741.828 L 398.559, 743.089 L 392.976, 775.687 L 380.369, 774.426 z "/>
<path style="fill:rgb(255, 255, 0);fill-opacity:0;fill-rule:evenodd;stroke:rgb(53, 255, 0);stroke-width:1;" d="M 954.705, 762.539 L 978.658, 735.344 L 990.725, 741.468 L 977.578, 756.416 L 973.796, 754.435 L 973.976, 756.416 L 967.492, 763.62 L 966.412, 763.08 L 963.17, 766.682 L 954.705, 762.539 z "/>
<path style="fill:rgb(255, 0, 0);fill-opacity:0;fill-rule:evenodd;stroke:rgb(53, 255, 0);stroke-width:1;" d="M 982.26, 437.461 L 989.824, 428.636 L 1017.2, 442.143 L 1021.88, 444.304 L 1014.32, 453.129 L 1008.19, 450.068 L 982.26, 437.461 z "/>
<path style="fill:rgb(0, 255, 0);fill-opacity:0;fill-rule:evenodd;stroke:rgb(53, 255, 0);stroke-width:1;" d="M 746.511, 504.638 L 749.392, 487.528 L 749.752, 485.367 L 769.563, 487.348 L 766.502, 506.258 L 746.511, 504.638 z "/>
<path style="fill:rgb(0, 0, 255);fill-opacity:0;fill-rule:evenodd;stroke:rgb(53, 255, 0);stroke-width:1;" d="M 385.592, 242.053 L 387.393, 231.607 L 419.09, 234.849 L 423.413, 235.209 L 421.792, 245.655 L 385.592, 242.053 z "/>
<path style="fill:rgb(255, 255, 0);fill-opacity:0;fill-rule:evenodd;stroke:rgb(53, 255, 0);stroke-width:1;" d="M 511.842, 310.671 L 516.704, 282.936 L 529.671, 284.196 L 524.989, 311.932 L 511.842, 310.671 z "/>
<path style="fill:rgb(255, 0, 0);fill-opacity:0;fill-rule:evenodd;stroke:rgb(53, 255, 0);stroke-width:1;" d="M 524.989, 311.932 L 529.671, 284.196 L 542.278, 285.457 L 537.596, 313.192 L 524.989, 311.932 z "/>
<path style="fill:rgb(0, 255, 0);fill-opacity:0;fill-rule:evenodd;stroke:rgb(53, 255, 0);stroke-width:1;" d="M 1009.1, 719.496 L 1022.24, 704.007 L 1027.1, 698.244 L 1038.27, 703.827 L 1020.26, 724.899 L 1009.1, 719.496 z "/>
<path style="fill:rgb(0, 0, 255);fill-opacity:0;fill-rule:evenodd;stroke:rgb(53, 255, 0);stroke-width:1;" d="M 704.908, 500.495 L 708.87, 477.803 L 723.278, 479.244 L 719.316, 501.936 L 704.908, 500.495 z "/>
<path style="fill:rgb(255, 255, 0);fill-opacity:0;fill-rule:evenodd;stroke:rgb(53, 255, 0);stroke-width:1;" d="M 988.384, 709.41 L 1001.35, 693.922 L 1004.05, 695.182 L 1011.8, 685.997 L 1019.72, 689.779 L 998.829, 714.453 L 988.384, 709.41 z "/>
<path style="fill:rgb(255, 0, 0);fill-opacity:0;fill-rule:evenodd;stroke:rgb(53, 255, 0);stroke-width:1;" d="M 206.934, 74.2008 L 210.176, 54.7501 L 227.105, 56.371 L 225.304, 66.4566 L 223.863, 75.8217 L 206.934, 74.2008 z "/>
<path style="fill:rgb(0, 255, 0);fill-opacity:0;fill-rule:evenodd;stroke:rgb(53, 255, 0);stroke-width:1;" d="M 487.348, 554.525 L 488.429, 548.222 L 539.757, 553.084 L 538.676, 559.388 L 487.348, 554.525 z "/>
<path style="fill:rgb(0, 0, 255);fill-opacity:0;fill-rule:evenodd;stroke:rgb(53, 255, 0);stroke-width:1;" d="M 989.824, 428.636 L 996.848, 420.171 L 1024.4, 433.679 L 1017.2, 442.143 L 989.824, 428.636 z "/>
<path style="fill:rgb(255, 255, 0);fill-opacity:0;fill-rule:evenodd;stroke:rgb(53, 255, 0);stroke-width:1;" d="M 778.388, 599.37 L 783.791, 566.952 L 795.678, 569.653 L 794.237, 576.497 L 792.256, 583.521 L 790.995, 586.763 L 788.294, 593.606 L 784.872, 600.09 L 778.388, 599.37 z "/>
<path style="fill:rgb(255, 0, 0);fill-opacity:0;fill-rule:evenodd;stroke:rgb(53, 255, 0);stroke-width:1;" d="M 1020.26, 724.899 L 1038.27, 703.827 L 1049.08, 709.05 L 1031.25, 730.302 L 1020.26, 724.899 z "/>
<path style="fill:rgb(0, 255, 0);fill-opacity:0;fill-rule:evenodd;stroke:rgb(53, 255, 0);stroke-width:1;" d="M 974.696, 446.466 L 982.26, 437.461 L 1008.19, 450.068 L 1000.63, 459.072 L 974.696, 446.466 z "/>
<path style="fill:rgb(0, 0, 255);fill-opacity:0;fill-rule:evenodd;stroke:rgb(53, 255, 0);stroke-width:1;" d="M 998.829, 714.453 L 1019.72, 689.779 L 1027.47, 693.561 L 1019.72, 702.747 L 1022.24, 704.007 L 1009.1, 719.496 L 998.829, 714.453 z "/>
<path style="fill:rgb(255, 255, 0);fill-opacity:0;fill-rule:evenodd;stroke:rgb(53, 255, 0);stroke-width:1;" d="M 523.188, 368.303 L 526.79, 347.591 L 541.918, 349.032 L 538.316, 369.923 L 523.188, 368.303 z "/>
<path style="fill:rgb(255, 0, 0);fill-opacity:0;fill-rule:evenodd;stroke:rgb(53, 255, 0);stroke-width:1;" d="M 719.316, 501.936 L 723.278, 479.244 L 736.965, 480.684 L 736.065, 486.267 L 733.003, 503.197 L 719.316, 501.936 z "/>
<path style="fill:rgb(0, 255, 0);fill-opacity:0;fill-rule:evenodd;stroke:rgb(53, 255, 0);stroke-width:1;" d="M 230.887, 431.878 L 244.214, 420.351 L 256.821, 417.65 L 251.238, 403.062 L 254.3, 402.521 L 261.684, 421.972 L 258.622, 422.692 L 239.352, 437.281 L 238.991, 437.461 L 230.887, 431.878 z "/>
<path style="fill:rgb(0, 0, 255);fill-opacity:0;fill-rule:evenodd;stroke:rgb(53, 255, 0);stroke-width:1;" d="M 922.828, 617.74 L 929.311, 610.356 L 932.373, 611.796 L 938.676, 604.593 L 951.643, 610.896 L 939.036, 625.664 L 922.828, 617.74 z "/>
<path style="fill:rgb(255, 255, 0);fill-opacity:0;fill-rule:evenodd;stroke:rgb(53, 255, 0);stroke-width:1;" d="M 387.393, 231.607 L 388.834, 222.422 L 389.554, 222.602 L 420.711, 225.664 L 419.09, 234.849 L 387.393, 231.607 z "/>
<path style="fill:rgb(255, 0, 0);fill-opacity:0;fill-rule:evenodd;stroke:rgb(53, 255, 0);stroke-width:1;" d="M 970.914, 123.728 L 974.336, 101.936 L 985.142, 102.837 L 982.981, 115.624 L 988.924, 116.164 L 988.564, 118.325 L 987.483, 125.349 L 970.914, 123.728 z "/>
<path style="fill:rgb(0, 255, 0);fill-opacity:0;fill-rule:evenodd;stroke:rgb(53, 255, 0);stroke-width:1;" d="M 974.156, 675.732 L 980.639, 667.987 L 991.625, 673.39 L 1006.39, 680.594 L 999.91, 688.339 L 983.341, 680.234 L 974.156, 675.732 z "/>
<path style="fill:rgb(0, 0, 255);fill-opacity:0;fill-rule:evenodd;stroke:rgb(53, 255, 0);stroke-width:1;" d="M 263.125, 409.185 L 264.385, 401.801 L 297.524, 405.043 L 296.083, 414.588 L 281.855, 413.147 L 282.215, 410.986 L 263.125, 409.185 z "/>
<path style="fill:rgb(255, 255, 0);fill-opacity:0;fill-rule:evenodd;stroke:rgb(53, 255, 0);stroke-width:1;" d="M 43.9442, 142.098 L 45.7452, 132.373 L 48.2665, 132.733 L 72.2197, 135.254 L 70.5988, 144.98 L 48.8068, 142.638 L 43.9442, 142.098 z "/>
<path style="fill:rgb(255, 0, 0);fill-opacity:0;fill-rule:evenodd;stroke:rgb(53, 255, 0);stroke-width:1;" d="M 214.678, 420.891 L 230.167, 407.564 L 233.949, 402.161 L 240.252, 406.303 L 239.892, 412.067 L 222.963, 426.475 L 214.678, 420.891 z "/>
<path style="fill:rgb(0, 255, 0);fill-opacity:0;fill-rule:evenodd;stroke:rgb(53, 255, 0);stroke-width:1;" d="M 958.307, 694.642 L 974.156, 675.732 L 983.341, 680.234 L 981.54, 682.215 L 967.492, 699.145 L 958.307, 694.642 z "/>
<path style="fill:rgb(0, 0, 255);fill-opacity:0;fill-rule:evenodd;stroke:rgb(53, 255, 0);stroke-width:1;" d="M 733.003, 503.197 L 736.065, 486.267 L 749.392, 487.528 L 746.511, 504.638 L 733.003, 503.197 z "/>
<path style="fill:rgb(255, 255, 0);fill-opacity:0;fill-rule:evenodd;stroke:rgb(53, 255, 0);stroke-width:1;" d="M 750.473, 481.945 L 752.454, 466.096 L 761.459, 466.637 L 765.961, 470.599 L 764.52, 483.026 L 750.473, 481.945 z "/>
<path style="fill:rgb(255, 0, 0);fill-opacity:0;fill-rule:evenodd;stroke:rgb(53, 255, 0);stroke-width:1;" d="M 48.2665, 132.733 L 49.7073, 123.908 L 73.8406, 126.43 L 72.2197, 135.254 L 48.2665, 132.733 z "/>
<path style="fill:rgb(0, 255, 0);fill-opacity:0;fill-rule:evenodd;stroke:rgb(53, 255, 0);stroke-width:1;" d="M 47.186, 152.364 L 48.8068, 142.638 L 70.5988, 144.98 L 68.7978, 154.525 L 47.186, 152.364 z "/>
<path style="fill:rgb(0, 0, 255);fill-opacity:0;fill-rule:evenodd;stroke:rgb(53, 255, 0);stroke-width:1;" d="M 184.602, 649.977 L 188.564, 626.565 L 193.426, 627.105 L 192.346, 632.328 L 195.407, 632.688 L 192.346, 650.698 L 184.602, 649.977 z "/>
<path style="fill:rgb(255, 255, 0);fill-opacity:0;fill-rule:evenodd;stroke:rgb(53, 255, 0);stroke-width:1;" d="M 901.396, 601.171 L 910.581, 590.365 L 921.567, 595.768 L 912.382, 606.574 L 901.396, 601.171 z "/>
<path style="fill:rgb(255, 0, 0);fill-opacity:0;fill-rule:evenodd;stroke:rgb(53, 255, 0);stroke-width:1;" d="M 225.304, 66.4566 L 227.105, 56.371 L 243.134, 57.9919 L 242.593, 60.8735 L 241.513, 68.0774 L 225.304, 66.4566 z "/>
<path style="fill:rgb(0, 255, 0);fill-opacity:0;fill-rule:evenodd;stroke:rgb(53, 255, 0);stroke-width:1;" d="M 428.456, 295.543 L 430.257, 284.737 L 445.205, 286.177 L 443.224, 296.983 L 428.456, 295.543 z "/>
<path style="fill:rgb(0, 0, 255);fill-opacity:0;fill-rule:evenodd;stroke:rgb(53, 255, 0);stroke-width:1;" d="M 237.371, 652.679 L 240.072, 637.01 L 244.214, 637.371 L 245.115, 632.328 L 248.717, 632.688 L 245.655, 649.977 L 246.916, 650.158 L 246.195, 653.579 L 244.755, 653.399 L 237.371, 652.679 z "/>
<path style="fill:rgb(255, 255, 0);fill-opacity:0;fill-rule:evenodd;stroke:rgb(53, 255, 0);stroke-width:1;" d="M 275.552, 439.622 L 276.992, 431.157 L 293.742, 432.778 L 292.481, 441.063 L 275.552, 439.622 z "/>
<path style="fill:rgb(255, 0, 0);fill-opacity:0;fill-rule:evenodd;stroke:rgb(53, 255, 0);stroke-width:1;" d="M 327.06, 35.4795 L 328.14, 29.176 L 344.71, 30.6168 L 343.629, 37.1004 L 327.06, 35.4795 z "/>
<path style="fill:rgb(0, 255, 0);fill-opacity:0;fill-rule:evenodd;stroke:rgb(53, 255, 0);stroke-width:1;" d="M 88.4286, 424.674 L 91.4903, 422.332 L 95.9928, 418.37 L 104.457, 424.133 L 96.7132, 430.437 L 88.4286, 424.674 z "/>
<path style="fill:rgb(0, 0, 255);fill-opacity:0;fill-rule:evenodd;stroke:rgb(53, 255, 0);stroke-width:1;" d="M 83.7461, 416.929 L 90.0495, 411.706 L 106.078, 422.873 L 104.457, 424.133 L 95.9928, 418.37 L 91.4903, 422.332 L 83.7461, 416.929 z "/>
<path style="fill:rgb(255, 255, 0);fill-opacity:0;fill-rule:evenodd;stroke:rgb(53, 255, 0);stroke-width:1;" d="M 430.977, 112.202 L 432.598, 102.476 L 441.423, 103.377 L 439.802, 113.102 L 430.977, 112.202 z "/>
<path style="fill:rgb(255, 0, 0);fill-opacity:0;fill-rule:evenodd;stroke:rgb(53, 255, 0);stroke-width:1;" d="M 454.21, 114.543 L 455.831, 104.998 L 464.656, 105.718 L 463.035, 115.443 L 454.21, 114.543 z "/>
<path style="fill:rgb(0, 255, 0);fill-opacity:0;fill-rule:evenodd;stroke:rgb(53, 255, 0);stroke-width:1;" d="M 442.143, 42.5034 L 443.764, 32.778 L 452.589, 33.6785 L 450.968, 43.2238 L 442.143, 42.5034 z "/>
<path style="fill:rgb(0, 0, 255);fill-opacity:0;fill-rule:evenodd;stroke:rgb(53, 255, 0);stroke-width:1;" d="M 477.623, 116.884 L 479.244, 107.159 L 488.068, 108.059 L 486.448, 117.785 L 477.623, 116.884 z "/>
<path style="fill:rgb(255, 255, 0);fill-opacity:0;fill-rule:evenodd;stroke:rgb(53, 255, 0);stroke-width:1;" d="M 465.376, 44.8447 L 466.997, 35.1193 L 475.822, 36.0198 L 474.201, 45.7452 L 465.376, 44.8447 z "/>
<path style="fill:rgb(255, 0, 0);fill-opacity:0;fill-rule:evenodd;stroke:rgb(53, 255, 0);stroke-width:1;" d="M 488.969, 47.186 L 490.59, 37.4606 L 499.415, 38.3611 L 497.794, 47.9063 L 488.969, 47.186 z "/>
<path style="fill:rgb(0, 255, 0);fill-opacity:0;fill-rule:evenodd;stroke:rgb(53, 255, 0);stroke-width:1;" d="M 323.458, 600.27 L 325.079, 590.545 L 340.387, 601.531 L 323.458, 600.27 z "/>
<path style="fill:rgb(0, 0, 255);fill-opacity:0;fill-rule:evenodd;stroke:rgb(53, 255, 0);stroke-width:1;" d="M 195.588, 657.001 L 197.028, 648.176 L 204.773, 648.897 L 204.232, 651.778 L 203.332, 657.722 L 195.588, 657.001 z "/>
<path style="fill:rgb(255, 255, 0);fill-opacity:0;fill-rule:evenodd;stroke:rgb(53, 255, 0);stroke-width:1;" d="M 401.081, 160.828 L 401.801, 155.606 L 412.247, 156.326 L 411.526, 161.549 L 401.081, 160.828 z "/>
<path style="fill:rgb(255, 0, 0);fill-opacity:0;fill-rule:evenodd;stroke:rgb(53, 255, 0);stroke-width:1;" d="M 460.873, 86.2674 L 461.954, 80.5043 L 470.779, 81.4048 L 469.878, 87.1679 L 460.873, 86.2674 z "/>
<path style="fill:rgb(0, 255, 0);fill-opacity:0;fill-rule:evenodd;stroke:rgb(53, 255, 0);stroke-width:1;" d="M 156.686, 647.456 L 158.127, 639.172 L 164.25, 639.712 L 162.81, 648.176 L 156.686, 647.456 z "/>
<path style="fill:rgb(0, 0, 255);fill-opacity:0;fill-rule:evenodd;stroke:rgb(53, 255, 0);stroke-width:1;" d="M 41.9631, 555.786 L 56.9113, 469.338 L 105.358, 474.201 L 99.0545, 511.481 L 98.154, 516.524 L 114.363, 518.145 L 106.799, 562.269 L 41.9631, 555.786 z "/>
<path style="fill:rgb(255, 255, 0);fill-opacity:0;fill-rule:evenodd;stroke:rgb(53, 255, 0);stroke-width:1;" d="M 0, 791.896 L 8.46466, 742.188 L 48.0864, 751.193 L 46.2855, 761.459 L 70.959, 765.961 L 72.3998, 758.037 L 88.4286, 759.658 L 81.5849, 800 L 0, 791.896 z "/>
<path style="fill:rgb(255, 0, 0);fill-opacity:0;fill-rule:evenodd;stroke:rgb(53, 255, 0);stroke-width:1;" d="M 227.105, 50.968 L 231.607, 24.4935 L 235.209, 1.98109 L 235.57, 0 L 365.781, 12.4268 L 348.312, 118.145 L 235.029, 107.339 L 241.513, 68.0774 L 242.593, 60.8735 L 246.556, 61.2337 L 247.636, 52.9491 L 227.105, 50.968 z "/>
<path style="fill:rgb(0, 255, 0);fill-opacity:0;fill-rule:evenodd;stroke:rgb(53, 255, 0);stroke-width:1;" d="M 227.105, 50.968 L 231.607, 24.4935 L 235.209, 1.98109 L 293.021, 7.38406 L 291.4, 16.7492 L 297.163, 17.2895 L 295.723, 26.8348 L 311.391, 28.4557 L 306.348, 58.3521 L 347.411, 62.3143 L 345.79, 72.0396 L 337.686, 71.1391 L 331.562, 107.699 L 252.139, 99.955 L 258.802, 60.5133 L 280.414, 62.4944 L 284.737, 36.7402 L 301.306, 38.3611 L 301.846, 33.8586 L 287.798, 32.5979 L 289.059, 25.394 L 252.679, 21.9721 L 247.636, 52.9491 L 227.105, 50.968 z "/>
<path style="fill:rgb(0, 0, 255);fill-opacity:0;fill-rule:evenodd;stroke:rgb(53, 255, 0);stroke-width:1;" d="M 129.311, 47.0059 L 133.453, 22.8726 L 198.649, 29.176 L 194.687, 53.3093 L 162.81, 50.2476 L 145.52, 48.6267 L 129.311, 47.0059 z "/>
<path style="fill:rgb(255, 255, 0);fill-opacity:0;fill-rule:evenodd;stroke:rgb(53, 255, 0);stroke-width:1;" d="M 986.763, 37.8208 L 988.384, 26.8348 L 997.569, 27.5552 L 998.109, 23.4129 L 1004.59, 23.9532 L 1002.25, 39.0815 L 986.763, 37.8208 z "/>
<path style="fill:rgb(255, 0, 0);fill-opacity:0;fill-rule:evenodd;stroke:rgb(53, 255, 0);stroke-width:1;" d="M 21.792, 673.03 L 36.9203, 588.023 L 164.971, 601.171 L 158.127, 639.172 L 164.25, 639.712 L 162.81, 648.176 L 156.686, 647.456 L 149.842, 686.357 L 21.792, 673.03 z M 93.2913, 650.518 L 113.462, 652.679 L 118.685, 649.437 L 122.467, 629.806 L 117.785, 626.385 L 98.5142, 624.223 L 93.2913, 650.518 z M 68.6177, 647.636 L 72.0396, 647.996 L 77.2625, 621.702 L 73.6605, 621.342 L 68.6177, 647.636 z "/>
<path style="fill:rgb(0, 255, 0);fill-opacity:0;fill-rule:evenodd;stroke:rgb(53, 255, 0);stroke-width:1;" d="M 21.792, 673.03 L 36.9203, 588.023 L 164.971, 601.171 L 158.127, 639.172 L 164.25, 639.712 L 162.81, 648.176 L 156.686, 647.456 L 149.842, 686.357 L 21.792, 673.03 z M 68.6177, 647.636 L 72.0396, 647.996 L 93.2913, 650.518 L 113.462, 652.679 L 118.685, 649.437 L 122.467, 629.806 L 117.785, 626.385 L 98.5142, 624.223 L 77.2625, 621.702 L 73.6605, 621.342 L 68.6177, 647.636 z "/>
<path style="fill:rgb(0, 0, 255);fill-opacity:0;fill-rule:evenodd;stroke:rgb(53, 255, 0);stroke-width:1;" d="M 406.303, 123.368 L 423.593, 18.5502 L 525.889, 28.4557 L 520.126, 63.3949 L 512.922, 62.6745 L 512.202, 66.8167 L 505.178, 66.2765 L 505.898, 61.9541 L 486.087, 59.973 L 480.324, 95.0923 L 500.495, 97.0734 L 501.036, 94.0117 L 505.898, 94.552 L 505.358, 97.6137 L 514.903, 98.5142 L 509.14, 133.273 L 406.303, 123.368 z "/>
<path style="fill:rgb(255, 255, 0);fill-opacity:0;fill-rule:evenodd;stroke:rgb(53, 255, 0);stroke-width:1;" d="M 406.303, 123.368 L 423.593, 18.5502 L 525.889, 28.4557 L 520.126, 63.3949 L 512.922, 62.6745 L 505.898, 61.9541 L 486.087, 59.973 L 465.556, 57.9919 L 461.954, 80.5043 L 460.873, 86.2674 L 459.793, 93.1112 L 480.324, 95.0923 L 500.495, 97.0734 L 505.358, 97.6137 L 514.903, 98.5142 L 509.14, 133.273 L 406.303, 123.368 z "/>
</svg>