<?xml version="1.0" encoding="iso-8859-1" standalone="no"?>
<!DOCTYPE svg PUBLIC "-//W3C//DTD SVG 1.0//EN" "http://www.w3.org/TR/2001/REC-SVG-20010904/DTD/svg10.dtd">
<svg xmlns="http://www.w3.org/2000/svg" width="469" height="800">
<path style="fill:rgb(255, 0, 0);fill-opacity:0;fill-rule:evenodd;stroke:rgb(123, 255, 0);stroke-width:1;" d="M 55.4604, 492.077 L 65.5246, 440.899 L 70.4497, 414.133 L 74.9465, 390.364 L 158.672, 398.501 L 156.745, 411.135 L 153.319, 430.407 L 152.891, 433.191 L 175.803, 435.332 L 179.229, 415.203 L 181.585, 400.857 L 194.004, 402.141 L 234.904, 405.996 L 231.692, 424.197 L 220.771, 489.722 L 217.773, 507.709 L 176.66, 503.854 L 164.24, 502.57 L 165.953, 492.934 L 174.946, 440.043 L 152.034, 437.687 L 149.465, 452.677 L 135.76, 451.178 L 117.345, 449.251 L 116.274, 455.246 L 98.2869, 453.319 L 94.8608, 473.233 L 115.418, 475.161 L 111.563, 497.43 L 55.4604, 492.077 z "/>
<path style="fill:rgb(0, 255, 0);fill-opacity:0;fill-rule:evenodd;stroke:rgb(123, 255, 0);stroke-width:1;" d="M 0, 772.805 L 11.1349, 713.062 L 77.7302, 720.343 L 88.4368, 721.627 L 91.0064, 707.709 L 96.3597, 678.801 L 96.788, 677.302 L 187.152, 686.938 L 175.803, 759.315 L 110.707, 753.105 L 63.3833, 748.822 L 58.6724, 779.015 L 0, 772.805 z "/>
<path style="fill:rgb(0, 0, 255);fill-opacity:0;fill-rule:evenodd;stroke:rgb(123, 255, 0);stroke-width:1;" d="M 400.857, 143.041 L 404.283, 123.34 L 401.927, 123.126 L 413.062, 61.6702 L 466.809, 67.2377 L 452.248, 148.394 L 425.054, 145.61 L 400.857, 143.041 z "/>
<path style="fill:rgb(255, 255, 0);fill-opacity:0;fill-rule:evenodd;stroke:rgb(123, 255, 0);stroke-width:1;" d="M 250.964, 89.5075 L 266.167, 1.92719 L 266.381, 0 L 304.711, 3.85439 L 286.296, 110.921 L 280.514, 110.278 L 250.964, 89.5075 z "/>
<path style="fill:rgb(255, 0, 0);fill-opacity:0;fill-rule:evenodd;stroke:rgb(123, 255, 0);stroke-width:1;" d="M 32.334, 606.21 L 37.045, 581.156 L 100.428, 588.009 L 120.557, 590.15 L 138.33, 592.077 L 136.188, 603.854 L 131.478, 629.336 L 129.122, 642.398 L 92.0771, 638.544 L 96.788, 613.276 L 32.334, 606.21 z "/>
<path style="fill:rgb(0, 255, 0);fill-opacity:0;fill-rule:evenodd;stroke:rgb(123, 255, 0);stroke-width:1;" d="M 341.97, 64.2398 L 348.394, 28.0514 L 350.964, 13.9186 L 352.034, 7.49465 L 369.593, 9.20771 L 377.73, 10.0642 L 412.848, 13.7045 L 406.852, 46.6809 L 403.854, 63.8116 L 395.075, 62.7409 L 394.004, 69.379 L 350.964, 65.0964 L 341.97, 64.2398 z "/>
<path style="fill:rgb(0, 0, 255);fill-opacity:0;fill-rule:evenodd;stroke:rgb(123, 255, 0);stroke-width:1;" d="M 222.27, 758.03 L 231.692, 689.936 L 294.647, 696.36 L 289.079, 726.981 L 267.452, 724.197 L 260.814, 761.884 L 253.533, 761.242 L 222.27, 758.03 z "/>
<path style="fill:rgb(255, 255, 0);fill-opacity:0;fill-rule:evenodd;stroke:rgb(123, 255, 0);stroke-width:1;" d="M 165.953, 492.934 L 174.946, 440.043 L 175.803, 435.332 L 179.229, 415.203 L 191.649, 416.274 L 197.216, 416.916 L 198.073, 411.991 L 220.557, 413.919 L 219.058, 423.126 L 208.137, 488.437 L 201.713, 488.009 L 200.214, 496.146 L 178.373, 494.004 L 165.953, 492.934 z "/>
<path style="fill:rgb(255, 0, 0);fill-opacity:0;fill-rule:evenodd;stroke:rgb(123, 255, 0);stroke-width:1;" d="M 70.8779, 450.535 L 72.3769, 441.756 L 77.3019, 414.775 L 79.2291, 403.212 L 156.745, 411.135 L 153.319, 430.407 L 139.829, 429.122 L 135.76, 451.178 L 117.345, 449.251 L 116.274, 455.246 L 98.2869, 453.319 L 76.0171, 451.178 L 70.8779, 450.535 z "/>
<path style="fill:rgb(0, 255, 0);fill-opacity:0;fill-rule:evenodd;stroke:rgb(123, 255, 0);stroke-width:1;" d="M 176.66, 287.366 L 181.37, 261.028 L 183.726, 247.966 L 200, 249.679 L 199.572, 252.891 L 204.925, 253.533 L 205.567, 250.107 L 214.989, 251.178 L 215.203, 249.893 L 231.049, 251.606 L 246.039, 253.319 L 262.955, 255.032 L 255.675, 295.717 L 176.66, 287.366 z "/>
<path style="fill:rgb(0, 0, 255);fill-opacity:0;fill-rule:evenodd;stroke:rgb(123, 255, 0);stroke-width:1;" d="M 11.1349, 713.062 L 19.0578, 670.45 L 96.3597, 678.801 L 91.0064, 707.709 L 80.2998, 706.638 L 77.7302, 720.343 L 11.1349, 713.062 z "/>
<path style="fill:rgb(255, 255, 0);fill-opacity:0;fill-rule:evenodd;stroke:rgb(123, 255, 0);stroke-width:1;" d="M 332.976, 113.919 L 341.756, 65.3105 L 402.784, 71.5203 L 400.428, 84.5824 L 395.503, 84.1542 L 391.435, 107.709 L 396.574, 108.137 L 394.433, 120.343 L 332.976, 113.919 z "/>
<path style="fill:rgb(255, 0, 0);fill-opacity:0;fill-rule:evenodd;stroke:rgb(123, 255, 0);stroke-width:1;" d="M 268.308, 483.726 L 273.662, 454.176 L 333.191, 460.171 L 335.76, 460.385 L 330.407, 490.15 L 314.561, 488.437 L 309.422, 517.559 L 278.587, 514.347 L 283.726, 485.225 L 268.308, 483.726 z "/>
<path style="fill:rgb(0, 255, 0);fill-opacity:0;fill-rule:evenodd;stroke:rgb(123, 255, 0);stroke-width:1;" d="M 136.188, 603.854 L 138.33, 592.077 L 143.255, 566.167 L 207.923, 573.019 L 200.857, 610.921 L 136.188, 603.854 z "/>
<path style="fill:rgb(0, 0, 255);fill-opacity:0;fill-rule:evenodd;stroke:rgb(123, 255, 0);stroke-width:1;" d="M 303.426, 264.24 L 308.994, 237.045 L 329.55, 239.4 L 338.758, 232.334 L 381.156, 261.67 L 359.743, 279.872 L 355.46, 283.084 L 345.61, 276.231 L 306.21, 273.448 L 307.066, 264.668 L 303.426, 264.24 z "/>
<path style="fill:rgb(255, 255, 0);fill-opacity:0;fill-rule:evenodd;stroke:rgb(123, 255, 0);stroke-width:1;" d="M 327.623, 144.325 L 329.764, 131.263 L 384.154, 136.617 L 394.004, 143.897 L 404.497, 163.812 L 406.424, 167.452 L 401.285, 171.52 L 396.788, 175.161 L 384.368, 185.011 L 378.158, 180.728 L 371.734, 176.017 L 327.623, 144.325 z "/>
<path style="fill:rgb(255, 0, 0);fill-opacity:0;fill-rule:evenodd;stroke:rgb(123, 255, 0);stroke-width:1;" d="M 293.362, 340.471 L 300.214, 300.857 L 347.537, 305.567 L 358.03, 306.852 L 350.964, 346.467 L 329.55, 344.111 L 309.208, 342.184 L 293.362, 340.471 z "/>
<path style="fill:rgb(0, 255, 0);fill-opacity:0;fill-rule:evenodd;stroke:rgb(123, 255, 0);stroke-width:1;" d="M 397.645, 751.82 L 405.139, 708.351 L 456.103, 713.49 L 451.82, 738.544 L 440.899, 737.473 L 439.186, 746.895 L 450.107, 747.966 L 449.679, 751.178 L 447.537, 763.169 L 444.754, 762.527 L 397.645, 751.82 z "/>
<path style="fill:rgb(0, 0, 255);fill-opacity:0;fill-rule:evenodd;stroke:rgb(123, 255, 0);stroke-width:1;" d="M 238.758, 653.747 L 244.968, 618.201 L 303.426, 623.983 L 307.923, 624.411 L 306.21, 635.546 L 301.927, 660.171 L 238.758, 653.747 z "/>
<path style="fill:rgb(255, 255, 0);fill-opacity:0;fill-rule:evenodd;stroke:rgb(123, 255, 0);stroke-width:1;" d="M 276.017, 439.615 L 281.37, 410.707 L 357.816, 418.63 L 355.675, 430.193 L 353.747, 441.756 L 345.824, 440.899 L 344.754, 446.681 L 335.76, 445.824 L 276.017, 439.615 z "/>
<path style="fill:rgb(255, 0, 0);fill-opacity:0;fill-rule:evenodd;stroke:rgb(123, 255, 0);stroke-width:1;" d="M 350.964, 65.0964 L 357.388, 28.9079 L 359.957, 14.7752 L 368.522, 15.6317 L 376.66, 16.4882 L 402.784, 19.2719 L 395.075, 62.7409 L 394.004, 69.379 L 350.964, 65.0964 z "/>
<path style="fill:rgb(0, 255, 0);fill-opacity:0;fill-rule:evenodd;stroke:rgb(123, 255, 0);stroke-width:1;" d="M 97.6445, 279.229 L 102.355, 252.891 L 166.809, 259.529 L 181.37, 261.028 L 176.66, 287.366 L 97.6445, 279.229 z "/>
<path style="fill:rgb(0, 0, 255);fill-opacity:0;fill-rule:evenodd;stroke:rgb(123, 255, 0);stroke-width:1;" d="M 169.379, 245.182 L 175.589, 210.707 L 237.259, 217.131 L 231.049, 251.606 L 215.203, 249.893 L 215.846, 246.467 L 185.439, 243.255 L 184.797, 246.895 L 169.379, 245.182 z "/>
<path style="fill:rgb(255, 255, 0);fill-opacity:0;fill-rule:evenodd;stroke:rgb(123, 255, 0);stroke-width:1;" d="M 55.4604, 492.077 L 65.5246, 440.899 L 72.3769, 441.756 L 70.8779, 450.535 L 76.0171, 451.178 L 98.2869, 453.319 L 94.8608, 473.233 L 115.418, 475.161 L 111.563, 497.43 L 55.4604, 492.077 z "/>
<path style="fill:rgb(255, 0, 0);fill-opacity:0;fill-rule:evenodd;stroke:rgb(123, 255, 0);stroke-width:1;" d="M 105.782, 783.512 L 107.709, 771.306 L 110.278, 755.032 L 110.707, 753.105 L 175.803, 759.315 L 170.664, 790.364 L 105.996, 782.869 L 105.782, 783.512 z "/>
<path style="fill:rgb(0, 255, 0);fill-opacity:0;fill-rule:evenodd;stroke:rgb(123, 255, 0);stroke-width:1;" d="M 358.672, 339.186 L 364.454, 306.21 L 370.236, 306.852 L 396.788, 309.422 L 422.912, 312.206 L 417.131, 345.182 L 359.957, 339.186 L 358.672, 339.186 z "/>
<path style="fill:rgb(0, 0, 255);fill-opacity:0;fill-rule:evenodd;stroke:rgb(123, 255, 0);stroke-width:1;" d="M 289.079, 726.981 L 294.647, 696.36 L 356.531, 702.784 L 350.964, 733.405 L 296.788, 727.623 L 289.079, 726.981 z "/>
<path style="fill:rgb(255, 255, 0);fill-opacity:0;fill-rule:evenodd;stroke:rgb(123, 255, 0);stroke-width:1;" d="M 41.7559, 555.246 L 46.8951, 528.48 L 113.704, 535.76 L 108.565, 562.527 L 105.353, 562.099 L 41.7559, 555.246 z "/>
<path style="fill:rgb(255, 0, 0);fill-opacity:0;fill-rule:evenodd;stroke:rgb(123, 255, 0);stroke-width:1;" d="M 143.255, 566.167 L 148.18, 539.4 L 212.848, 546.467 L 207.923, 573.019 L 143.255, 566.167 z "/>
<path style="fill:rgb(0, 255, 0);fill-opacity:0;fill-rule:evenodd;stroke:rgb(123, 255, 0);stroke-width:1;" d="M 27.409, 632.762 L 32.334, 606.21 L 96.788, 613.276 L 92.0771, 638.544 L 91.863, 639.615 L 27.409, 632.762 z "/>
<path style="fill:rgb(0, 0, 255);fill-opacity:0;fill-rule:evenodd;stroke:rgb(123, 255, 0);stroke-width:1;" d="M 131.478, 629.336 L 136.188, 603.854 L 200.857, 610.921 L 195.931, 636.403 L 131.478, 629.336 z "/>
<path style="fill:rgb(255, 255, 0);fill-opacity:0;fill-rule:evenodd;stroke:rgb(123, 255, 0);stroke-width:1;" d="M 37.045, 581.156 L 41.7559, 555.246 L 105.353, 562.099 L 100.428, 588.009 L 37.045, 581.156 z "/>
<path style="fill:rgb(255, 0, 0);fill-opacity:0;fill-rule:evenodd;stroke:rgb(123, 255, 0);stroke-width:1;" d="M 290.15, 756.531 L 290.792, 752.463 L 292.505, 752.463 L 296.788, 727.623 L 350.964, 733.405 L 345.824, 762.099 L 290.15, 756.531 z "/>
<path style="fill:rgb(0, 255, 0);fill-opacity:0;fill-rule:evenodd;stroke:rgb(123, 255, 0);stroke-width:1;" d="M 301.927, 660.171 L 306.21, 635.546 L 344.54, 639.4 L 366.809, 641.542 L 362.741, 666.167 L 301.927, 660.171 z "/>
<path style="fill:rgb(0, 0, 255);fill-opacity:0;fill-rule:evenodd;stroke:rgb(123, 255, 0);stroke-width:1;" d="M 303.212, 375.375 L 308.779, 344.111 L 329.122, 346.253 L 329.55, 344.111 L 350.964, 346.467 L 354.818, 346.895 L 351.82, 364.454 L 349.036, 380.086 L 303.212, 375.375 z "/>
<path style="fill:rgb(255, 255, 0);fill-opacity:0;fill-rule:evenodd;stroke:rgb(123, 255, 0);stroke-width:1;" d="M 308.351, 622.912 L 311.991, 601.071 L 312.42, 598.715 L 373.019, 604.711 L 368.737, 629.122 L 346.681, 626.767 L 308.351, 622.912 z "/>
<path style="fill:rgb(255, 0, 0);fill-opacity:0;fill-rule:evenodd;stroke:rgb(123, 255, 0);stroke-width:1;" d="M 384.368, 185.011 L 396.788, 175.161 L 401.285, 171.52 L 419.272, 184.368 L 422.27, 186.296 L 446.681, 188.865 L 441.328, 216.06 L 426.338, 215.203 L 384.368, 185.011 z "/>
<path style="fill:rgb(0, 255, 0);fill-opacity:0;fill-rule:evenodd;stroke:rgb(123, 255, 0);stroke-width:1;" d="M 300.214, 300.857 L 305.139, 273.876 L 344.968, 277.944 L 351.606, 282.227 L 350.749, 286.724 L 347.966, 302.57 L 347.537, 305.567 L 300.214, 300.857 z "/>
<path style="fill:rgb(0, 0, 255);fill-opacity:0;fill-rule:evenodd;stroke:rgb(123, 255, 0);stroke-width:1;" d="M 253.533, 565.096 L 256.103, 549.465 L 334.475, 557.173 L 331.906, 572.805 L 315.846, 571.306 L 253.533, 565.096 z "/>
<path style="fill:rgb(255, 255, 0);fill-opacity:0;fill-rule:evenodd;stroke:rgb(123, 255, 0);stroke-width:1;" d="M 70.8779, 450.535 L 72.3769, 441.756 L 77.3019, 414.775 L 103.854, 417.131 L 100.214, 440.471 L 118.201, 442.184 L 117.345, 449.251 L 116.274, 455.246 L 98.2869, 453.319 L 76.0171, 451.178 L 70.8779, 450.535 z "/>
<path style="fill:rgb(255, 0, 0);fill-opacity:0;fill-rule:evenodd;stroke:rgb(123, 255, 0);stroke-width:1;" d="M 247.323, 796.788 L 253.533, 761.242 L 260.814, 761.884 L 281.37, 764.026 L 285.867, 766.595 L 283.726, 777.944 L 279.872, 800 L 247.323, 796.788 z "/>
<path style="fill:rgb(0, 255, 0);fill-opacity:0;fill-rule:evenodd;stroke:rgb(123, 255, 0);stroke-width:1;" d="M 215.846, 793.362 L 222.27, 758.03 L 253.533, 761.242 L 247.323, 796.788 L 215.846, 793.362 z "/>
<path style="fill:rgb(0, 0, 255);fill-opacity:0;fill-rule:evenodd;stroke:rgb(123, 255, 0);stroke-width:1;" d="M 70.4497, 414.133 L 74.9465, 390.364 L 158.672, 398.501 L 156.745, 411.135 L 79.2291, 403.212 L 77.3019, 414.775 L 70.4497, 414.133 z "/>
<path style="fill:rgb(255, 255, 0);fill-opacity:0;fill-rule:evenodd;stroke:rgb(123, 255, 0);stroke-width:1;" d="M 100.428, 588.009 L 105.353, 562.099 L 108.565, 562.527 L 113.704, 535.76 L 130.407, 537.473 L 120.557, 590.15 L 100.428, 588.009 z "/>
<path style="fill:rgb(255, 0, 0);fill-opacity:0;fill-rule:evenodd;stroke:rgb(123, 255, 0);stroke-width:1;" d="M 349.036, 380.086 L 351.82, 364.454 L 355.46, 364.882 L 412.634, 370.664 L 413.704, 370.878 L 410.921, 386.51 L 349.036, 380.086 z "/>
<path style="fill:rgb(0, 255, 0);fill-opacity:0;fill-rule:evenodd;stroke:rgb(123, 255, 0);stroke-width:1;" d="M 120.557, 590.15 L 130.407, 537.473 L 148.18, 539.4 L 143.255, 566.167 L 138.33, 592.077 L 120.557, 590.15 z "/>
<path style="fill:rgb(0, 0, 255);fill-opacity:0;fill-rule:evenodd;stroke:rgb(123, 255, 0);stroke-width:1;" d="M 250.964, 579.657 L 253.533, 565.096 L 315.846, 571.306 L 313.276, 586.081 L 282.441, 582.869 L 250.964, 579.657 z "/>
<path style="fill:rgb(255, 255, 0);fill-opacity:0;fill-rule:evenodd;stroke:rgb(123, 255, 0);stroke-width:1;" d="M 61.8844, 767.024 L 64.2398, 752.034 L 93.1478, 754.818 L 93.3619, 753.319 L 110.278, 755.032 L 107.709, 771.306 L 96.788, 770.236 L 95.7173, 778.158 L 70.8779, 775.803 L 72.1627, 767.88 L 61.8844, 767.024 z "/>
<path style="fill:rgb(255, 0, 0);fill-opacity:0;fill-rule:evenodd;stroke:rgb(123, 255, 0);stroke-width:1;" d="M 273.662, 454.176 L 276.017, 439.615 L 335.76, 445.824 L 333.191, 460.171 L 273.662, 454.176 z "/>
<path style="fill:rgb(0, 255, 0);fill-opacity:0;fill-rule:evenodd;stroke:rgb(123, 255, 0);stroke-width:1;" d="M 355.46, 364.882 L 358.03, 349.893 L 415.203, 355.675 L 412.634, 370.664 L 355.46, 364.882 z "/>
<path style="fill:rgb(0, 0, 255);fill-opacity:0;fill-rule:evenodd;stroke:rgb(123, 255, 0);stroke-width:1;" d="M 334.261, 520.128 L 339.4, 491.006 L 368.737, 494.004 L 363.597, 523.126 L 334.261, 520.128 z "/>
<path style="fill:rgb(255, 255, 0);fill-opacity:0;fill-rule:evenodd;stroke:rgb(123, 255, 0);stroke-width:1;" d="M 129.122, 642.398 L 131.478, 629.336 L 195.931, 636.403 L 193.576, 649.465 L 129.122, 642.398 z "/>
<path style="fill:rgb(255, 0, 0);fill-opacity:0;fill-rule:evenodd;stroke:rgb(123, 255, 0);stroke-width:1;" d="M 335.118, 490.578 L 337.687, 475.803 L 394.433, 481.585 L 391.863, 496.36 L 368.737, 494.004 L 339.4, 491.006 L 335.118, 490.578 z "/>
<path style="fill:rgb(0, 255, 0);fill-opacity:0;fill-rule:evenodd;stroke:rgb(123, 255, 0);stroke-width:1;" d="M 208.137, 488.437 L 219.058, 423.126 L 231.692, 424.197 L 220.771, 489.722 L 208.137, 488.437 z "/>
<path style="fill:rgb(0, 0, 255);fill-opacity:0;fill-rule:evenodd;stroke:rgb(123, 255, 0);stroke-width:1;" d="M 337.687, 475.803 L 340.257, 461.242 L 397.002, 467.238 L 394.433, 481.585 L 337.687, 475.803 z "/>
<path style="fill:rgb(255, 255, 0);fill-opacity:0;fill-rule:evenodd;stroke:rgb(123, 255, 0);stroke-width:1;" d="M 340.257, 461.242 L 342.827, 447.109 L 357.816, 448.608 L 399.572, 452.891 L 397.002, 467.238 L 340.257, 461.242 z "/>
<path style="fill:rgb(255, 0, 0);fill-opacity:0;fill-rule:evenodd;stroke:rgb(123, 255, 0);stroke-width:1;" d="M 312.42, 598.715 L 314.561, 586.081 L 315.418, 582.227 L 323.769, 583.084 L 323.126, 586.938 L 329.336, 587.58 L 376.017, 592.291 L 373.876, 604.925 L 373.019, 604.711 L 312.42, 598.715 z "/>
<path style="fill:rgb(0, 255, 0);fill-opacity:0;fill-rule:evenodd;stroke:rgb(123, 255, 0);stroke-width:1;" d="M 410.921, 61.4561 L 413.49, 47.3233 L 422.912, 48.1799 L 443.683, 50.5353 L 469.379, 53.1049 L 466.809, 67.2377 L 413.062, 61.6702 L 410.921, 61.4561 z "/>
<path style="fill:rgb(0, 0, 255);fill-opacity:0;fill-rule:evenodd;stroke:rgb(123, 255, 0);stroke-width:1;" d="M 330.835, 126.124 L 332.976, 113.919 L 394.433, 120.343 L 392.291, 132.548 L 330.835, 126.124 z "/>
<path style="fill:rgb(255, 255, 0);fill-opacity:0;fill-rule:evenodd;stroke:rgb(123, 255, 0);stroke-width:1;" d="M 309.422, 517.559 L 314.561, 488.437 L 330.407, 490.15 L 335.118, 490.578 L 339.4, 491.006 L 334.261, 520.128 L 309.422, 517.559 z "/>
<path style="fill:rgb(255, 0, 0);fill-opacity:0;fill-rule:evenodd;stroke:rgb(123, 255, 0);stroke-width:1;" d="M 352.034, 158.458 L 373.876, 140.899 L 395.931, 156.531 L 384.154, 166.167 L 373.876, 174.09 L 352.034, 158.458 z "/>
<path style="fill:rgb(0, 255, 0);fill-opacity:0;fill-rule:evenodd;stroke:rgb(123, 255, 0);stroke-width:1;" d="M 244.325, 618.201 L 246.467, 605.996 L 305.567, 611.777 L 303.426, 623.983 L 244.968, 618.201 L 244.325, 618.201 z "/>
<path style="fill:rgb(0, 0, 255);fill-opacity:0;fill-rule:evenodd;stroke:rgb(123, 255, 0);stroke-width:1;" d="M 355.675, 430.193 L 357.816, 418.63 L 404.711, 423.34 L 402.141, 438.544 L 360.385, 434.261 L 361.028, 430.835 L 355.675, 430.193 z "/>
<path style="fill:rgb(255, 255, 0);fill-opacity:0;fill-rule:evenodd;stroke:rgb(123, 255, 0);stroke-width:1;" d="M 329.336, 587.58 L 331.906, 572.805 L 343.469, 574.09 L 378.587, 577.516 L 376.017, 592.291 L 329.336, 587.58 z "/>
<path style="fill:rgb(255, 0, 0);fill-opacity:0;fill-rule:evenodd;stroke:rgb(123, 255, 0);stroke-width:1;" d="M 347.966, 302.57 L 350.749, 286.724 L 355.46, 283.084 L 359.743, 279.872 L 382.227, 262.099 L 393.362, 270.236 L 371.092, 287.794 L 364.882, 292.719 L 366.381, 293.79 L 351.82, 305.353 L 347.966, 302.57 z "/>
<path style="fill:rgb(0, 255, 0);fill-opacity:0;fill-rule:evenodd;stroke:rgb(123, 255, 0);stroke-width:1;" d="M 246.467, 605.996 L 248.394, 594.647 L 279.872, 597.859 L 307.495, 600.642 L 305.567, 611.777 L 246.467, 605.996 z "/>
<path style="fill:rgb(0, 0, 255);fill-opacity:0;fill-rule:evenodd;stroke:rgb(123, 255, 0);stroke-width:1;" d="M 283.726, 777.944 L 285.867, 766.595 L 343.897, 772.805 L 341.97, 783.94 L 283.726, 777.944 z "/>
<path style="fill:rgb(255, 255, 0);fill-opacity:0;fill-rule:evenodd;stroke:rgb(123, 255, 0);stroke-width:1;" d="M 285.867, 766.595 L 287.794, 756.103 L 290.15, 756.531 L 345.824, 762.099 L 343.897, 772.805 L 285.867, 766.595 z "/>
<path style="fill:rgb(255, 0, 0);fill-opacity:0;fill-rule:evenodd;stroke:rgb(123, 255, 0);stroke-width:1;" d="M 358.03, 349.893 L 359.957, 339.186 L 417.131, 345.182 L 415.203, 355.675 L 358.03, 349.893 z "/>
<path style="fill:rgb(0, 255, 0);fill-opacity:0;fill-rule:evenodd;stroke:rgb(123, 255, 0);stroke-width:1;" d="M 376.66, 16.4882 L 377.73, 10.0642 L 412.848, 13.7045 L 406.852, 46.6809 L 403.854, 63.8116 L 395.075, 62.7409 L 402.784, 19.2719 L 376.66, 16.4882 z "/>
<path style="fill:rgb(0, 0, 255);fill-opacity:0;fill-rule:evenodd;stroke:rgb(123, 255, 0);stroke-width:1;" d="M 357.816, 448.608 L 360.385, 434.261 L 402.141, 438.544 L 399.572, 452.891 L 357.816, 448.608 z "/>
<path style="fill:rgb(255, 255, 0);fill-opacity:0;fill-rule:evenodd;stroke:rgb(123, 255, 0);stroke-width:1;" d="M 411.135, 167.666 L 420.771, 168.522 L 448.18, 171.52 L 449.893, 171.734 L 446.681, 188.865 L 422.27, 186.296 L 419.272, 184.368 L 411.135, 167.666 z "/>
<path style="fill:rgb(255, 0, 0);fill-opacity:0;fill-rule:evenodd;stroke:rgb(123, 255, 0);stroke-width:1;" d="M 176.66, 503.854 L 178.373, 494.004 L 200.214, 496.146 L 201.713, 488.009 L 208.137, 488.437 L 220.771, 489.722 L 217.773, 507.709 L 176.66, 503.854 z "/>
<path style="fill:rgb(0, 255, 0);fill-opacity:0;fill-rule:evenodd;stroke:rgb(123, 255, 0);stroke-width:1;" d="M 343.469, 574.09 L 346.253, 558.458 L 381.37, 561.884 L 378.587, 577.516 L 343.469, 574.09 z "/>
<path style="fill:rgb(0, 0, 255);fill-opacity:0;fill-rule:evenodd;stroke:rgb(123, 255, 0);stroke-width:1;" d="M 287.366, 373.662 L 293.362, 340.471 L 309.208, 342.184 L 308.779, 344.111 L 303.212, 375.375 L 287.366, 373.662 z "/>
<path style="fill:rgb(255, 255, 0);fill-opacity:0;fill-rule:evenodd;stroke:rgb(123, 255, 0);stroke-width:1;" d="M 406.852, 46.6809 L 412.848, 13.7045 L 428.694, 15.4176 L 423.126, 46.0385 L 422.912, 48.1799 L 413.49, 47.3233 L 406.852, 46.6809 z "/>
<path style="fill:rgb(255, 0, 0);fill-opacity:0;fill-rule:evenodd;stroke:rgb(123, 255, 0);stroke-width:1;" d="M 191.649, 416.274 L 194.004, 402.141 L 234.904, 405.996 L 231.692, 424.197 L 219.058, 423.126 L 220.557, 413.919 L 198.073, 411.991 L 197.216, 416.916 L 191.649, 416.274 z "/>
<path style="fill:rgb(0, 255, 0);fill-opacity:0;fill-rule:evenodd;stroke:rgb(123, 255, 0);stroke-width:1;" d="M 231.049, 251.606 L 237.259, 217.131 L 251.82, 218.63 L 252.248, 218.63 L 246.039, 253.319 L 231.049, 251.606 z "/>
<path style="fill:rgb(0, 0, 255);fill-opacity:0;fill-rule:evenodd;stroke:rgb(123, 255, 0);stroke-width:1;" d="M 306.21, 635.546 L 307.923, 624.411 L 308.351, 622.912 L 346.681, 626.767 L 344.54, 639.4 L 306.21, 635.546 z "/>
<path style="fill:rgb(255, 255, 0);fill-opacity:0;fill-rule:evenodd;stroke:rgb(123, 255, 0);stroke-width:1;" d="M 279.872, 597.859 L 282.441, 582.869 L 313.276, 586.081 L 314.561, 586.081 L 312.42, 598.715 L 311.991, 601.071 L 307.495, 600.642 L 279.872, 597.859 z "/>
<path style="fill:rgb(255, 0, 0);fill-opacity:0;fill-rule:evenodd;stroke:rgb(123, 255, 0);stroke-width:1;" d="M 360.385, 305.782 L 377.302, 292.291 L 371.092, 287.794 L 393.362, 270.236 L 403.426, 277.73 L 383.512, 293.576 L 385.225, 294.861 L 370.236, 306.852 L 364.454, 306.21 L 360.385, 305.782 z "/>
<path style="fill:rgb(0, 255, 0);fill-opacity:0;fill-rule:evenodd;stroke:rgb(123, 255, 0);stroke-width:1;" d="M 248.394, 594.647 L 250.964, 579.657 L 282.441, 582.869 L 279.872, 597.859 L 248.394, 594.647 z "/>
<path style="fill:rgb(0, 0, 255);fill-opacity:0;fill-rule:evenodd;stroke:rgb(123, 255, 0);stroke-width:1;" d="M 423.126, 46.0385 L 428.694, 15.4176 L 443.683, 16.9165 L 441.97, 26.7666 L 439.829, 38.3298 L 438.116, 47.5375 L 423.126, 46.0385 z "/>
<path style="fill:rgb(255, 255, 0);fill-opacity:0;fill-rule:evenodd;stroke:rgb(123, 255, 0);stroke-width:1;" d="M 73.2334, 466.167 L 76.0171, 451.178 L 98.2869, 453.319 L 94.8608, 473.233 L 73.2334, 466.167 z "/>
<path style="fill:rgb(255, 0, 0);fill-opacity:0;fill-rule:evenodd;stroke:rgb(123, 255, 0);stroke-width:1;" d="M 365.739, 51.1777 L 369.165, 32.7623 L 387.152, 34.6895 L 383.94, 52.8908 L 365.739, 51.1777 z "/>
<path style="fill:rgb(0, 255, 0);fill-opacity:0;fill-rule:evenodd;stroke:rgb(123, 255, 0);stroke-width:1;" d="M 422.912, 157.388 L 425.054, 145.61 L 452.248, 148.394 L 450.107, 160.385 L 422.912, 157.388 z "/>
<path style="fill:rgb(0, 0, 255);fill-opacity:0;fill-rule:evenodd;stroke:rgb(123, 255, 0);stroke-width:1;" d="M 341.97, 64.2398 L 348.394, 28.0514 L 357.388, 28.9079 L 350.964, 65.0964 L 341.97, 64.2398 z "/>
<path style="fill:rgb(255, 255, 0);fill-opacity:0;fill-rule:evenodd;stroke:rgb(123, 255, 0);stroke-width:1;" d="M 383.512, 293.576 L 403.426, 277.73 L 413.704, 285.225 L 399.143, 296.788 L 393.79, 301.071 L 385.225, 294.861 L 383.512, 293.576 z "/>
<path style="fill:rgb(255, 0, 0);fill-opacity:0;fill-rule:evenodd;stroke:rgb(123, 255, 0);stroke-width:1;" d="M 420.771, 168.522 L 422.912, 157.388 L 450.107, 160.385 L 448.18, 171.52 L 420.771, 168.522 z "/>
<path style="fill:rgb(0, 255, 0);fill-opacity:0;fill-rule:evenodd;stroke:rgb(123, 255, 0);stroke-width:1;" d="M 135.76, 451.178 L 139.829, 429.122 L 153.319, 430.407 L 152.891, 433.191 L 152.034, 437.687 L 149.465, 452.677 L 135.76, 451.178 z "/>
<path style="fill:rgb(0, 0, 255);fill-opacity:0;fill-rule:evenodd;stroke:rgb(123, 255, 0);stroke-width:1;" d="M 396.788, 309.422 L 398.715, 298.715 L 424.839, 301.285 L 422.912, 312.206 L 396.788, 309.422 z "/>
<path style="fill:rgb(255, 255, 0);fill-opacity:0;fill-rule:evenodd;stroke:rgb(123, 255, 0);stroke-width:1;" d="M 398.715, 298.715 L 399.143, 296.788 L 413.704, 285.225 L 426.124, 294.433 L 424.839, 301.285 L 398.715, 298.715 z "/>
<path style="fill:rgb(255, 0, 0);fill-opacity:0;fill-rule:evenodd;stroke:rgb(123, 255, 0);stroke-width:1;" d="M 371.734, 176.017 L 373.876, 174.09 L 384.154, 166.167 L 390.578, 170.664 L 396.788, 175.161 L 384.368, 185.011 L 378.158, 180.728 L 371.734, 176.017 z "/>
<path style="fill:rgb(0, 255, 0);fill-opacity:0;fill-rule:evenodd;stroke:rgb(123, 255, 0);stroke-width:1;" d="M 65.5246, 440.899 L 70.4497, 414.133 L 77.3019, 414.775 L 72.3769, 441.756 L 65.5246, 440.899 z "/>
<path style="fill:rgb(0, 0, 255);fill-opacity:0;fill-rule:evenodd;stroke:rgb(123, 255, 0);stroke-width:1;" d="M 331.906, 572.805 L 334.475, 557.173 L 346.253, 558.458 L 343.469, 574.09 L 331.906, 572.805 z "/>
<path style="fill:rgb(255, 255, 0);fill-opacity:0;fill-rule:evenodd;stroke:rgb(123, 255, 0);stroke-width:1;" d="M 179.229, 415.203 L 181.585, 400.857 L 194.004, 402.141 L 191.649, 416.274 L 179.229, 415.203 z "/>
<path style="fill:rgb(255, 0, 0);fill-opacity:0;fill-rule:evenodd;stroke:rgb(123, 255, 0);stroke-width:1;" d="M 181.799, 470.45 L 184.582, 452.248 L 192.505, 452.891 L 189.507, 471.306 L 181.799, 470.45 z "/>
<path style="fill:rgb(0, 255, 0);fill-opacity:0;fill-rule:evenodd;stroke:rgb(123, 255, 0);stroke-width:1;" d="M 348.394, 28.0514 L 350.964, 13.9186 L 359.957, 14.7752 L 357.388, 28.9079 L 348.394, 28.0514 z "/>
<path style="fill:rgb(0, 0, 255);fill-opacity:0;fill-rule:evenodd;stroke:rgb(123, 255, 0);stroke-width:1;" d="M 164.24, 502.57 L 165.953, 492.934 L 178.373, 494.004 L 176.66, 503.854 L 164.24, 502.57 z "/>
<path style="fill:rgb(255, 255, 0);fill-opacity:0;fill-rule:evenodd;stroke:rgb(123, 255, 0);stroke-width:1;" d="M 378.158, 180.728 L 390.578, 170.664 L 396.788, 175.161 L 384.368, 185.011 L 378.158, 180.728 z "/>
<path style="fill:rgb(255, 0, 0);fill-opacity:0;fill-rule:evenodd;stroke:rgb(123, 255, 0);stroke-width:1;" d="M 350.964, 13.9186 L 352.034, 7.49465 L 369.593, 9.20771 L 368.522, 15.6317 L 359.957, 14.7752 L 350.964, 13.9186 z "/>
<path style="fill:rgb(0, 255, 0);fill-opacity:0;fill-rule:evenodd;stroke:rgb(123, 255, 0);stroke-width:1;" d="M 152.034, 437.687 L 152.891, 433.191 L 175.803, 435.332 L 174.946, 440.043 L 152.034, 437.687 z "/>
</svg>