<?xml version="1.0" encoding="iso-8859-1" standalone="no"?>
<!DOCTYPE svg PUBLIC "-//W3C//DTD SVG 1.0//EN" "http://www.w3.org/TR/2001/REC-SVG-20010904/DTD/svg10.dtd">
<svg xmlns="http://www.w3.org/2000/svg" width="873" height="800">
<path style="fill:rgb(255, 0, 0);fill-opacity:0;fill-rule:evenodd;stroke:rgb(220, 255, 0);stroke-width:1;" d="M 138.856, 557.146 L 138.856, 556.38 L 139.047, 555.806 L 140.005, 554.848 L 139.239, 554.465 L 155.135, 532.823 L 156.093, 533.206 L 156.284, 532.631 L 157.051, 531.865 L 157.817, 531.482 L 159.157, 531.099 L 159.923, 530.907 L 161.264, 531.29 L 162.605, 531.865 L 162.988, 532.248 L 163.945, 531.099 L 175.437, 536.079 L 199.186, 503.519 L 187.311, 498.54 L 187.886, 497.582 L 183.481, 495.667 L 185.971, 492.411 L 184.247, 491.836 L 199.952, 470.385 L 201.676, 471.152 L 201.676, 470.577 L 202.25, 469.619 L 202.825, 469.236 L 203.974, 468.662 L 205.315, 468.47 L 206.081, 468.47 L 207.23, 469.045 L 207.805, 469.428 L 208.571, 468.279 L 233.469, 479.004 L 231.745, 481.302 L 290.927, 506.392 L 297.247, 497.582 L 304.525, 500.646 L 297.821, 509.84 L 278.094, 536.653 L 270.816, 533.589 L 272.54, 531.29 L 226.957, 511.946 L 222.361, 518.075 L 228.681, 520.757 L 208.571, 548.336 L 203.591, 546.038 L 200.335, 550.443 L 224.084, 560.402 L 205.506, 585.684 L 204.549, 586.45 L 203.974, 586.641 L 202.825, 586.833 L 141.92, 560.785 L 142.495, 559.828 L 140.962, 559.445 L 139.813, 558.678 L 139.239, 558.295 L 138.856, 557.146 z "/>
<path style="fill:rgb(0, 255, 0);fill-opacity:0;fill-rule:evenodd;stroke:rgb(220, 255, 0);stroke-width:1;" d="M 222.361, 438.784 L 256.069, 392.818 L 289.394, 406.799 L 278.86, 421.164 L 301.077, 430.548 L 311.803, 415.992 L 344.17, 429.591 L 323.869, 457.17 L 331.53, 460.426 L 320.421, 475.748 L 317.74, 479.196 L 222.361, 438.784 z "/>
<path style="fill:rgb(0, 0, 255);fill-opacity:0;fill-rule:evenodd;stroke:rgb(220, 255, 0);stroke-width:1;" d="M 651.951, 143.644 L 711.132, 90.9744 L 733.541, 100.359 L 728.944, 106.488 L 735.265, 109.169 L 732.775, 112.425 L 739.861, 115.298 L 742.926, 111.276 L 757.864, 117.596 L 749.437, 129.088 L 764.568, 135.6 L 754.417, 149.581 L 742.734, 144.601 L 735.839, 153.795 L 753.651, 161.264 L 737.18, 183.481 L 652.143, 147.474 L 651.951, 143.644 z M 693.895, 141.154 L 717.453, 151.113 L 727.987, 136.749 L 725.497, 135.6 L 725.114, 134.642 L 726.454, 133.11 L 711.324, 126.79 L 693.895, 141.154 z "/>
<path style="fill:rgb(255, 255, 0);fill-opacity:0;fill-rule:evenodd;stroke:rgb(220, 255, 0);stroke-width:1;" d="M 621.116, 759.971 L 645.439, 727.22 L 657.314, 724.922 L 676.275, 732.966 L 686.426, 737.371 L 707.685, 746.373 L 709.6, 743.692 L 742.734, 757.673 L 727.795, 777.783 L 711.324, 800 L 694.087, 792.722 L 691.98, 795.403 L 676.083, 788.508 L 678.956, 784.678 L 635.288, 765.909 L 628.777, 767.249 L 623.414, 764.951 L 621.116, 759.971 z "/>
<path style="fill:rgb(255, 0, 0);fill-opacity:0;fill-rule:evenodd;stroke:rgb(220, 255, 0);stroke-width:1;" d="M 549.868, 193.823 L 611.156, 166.818 L 679.339, 195.356 L 664.017, 216.232 L 650.61, 210.486 L 645.822, 217.189 L 653.675, 220.445 L 635.097, 245.727 L 601.772, 231.745 L 626.67, 197.845 L 615.753, 193.249 L 612.689, 197.462 L 566.914, 216.04 L 549.868, 193.823 z "/>
<path style="fill:rgb(0, 255, 0);fill-opacity:0;fill-rule:evenodd;stroke:rgb(220, 255, 0);stroke-width:1;" d="M 647.355, 459.66 L 663.826, 437.252 L 669.571, 439.55 L 686.426, 416.375 L 710.366, 426.526 L 704.621, 434.379 L 736.414, 447.785 L 742.351, 439.741 L 754.226, 444.721 L 767.824, 450.467 L 734.115, 496.433 L 699.258, 481.685 L 711.132, 465.406 L 717.07, 467.896 L 724.156, 458.128 L 698.492, 447.019 L 691.214, 456.979 L 698.492, 460.043 L 686.617, 476.323 L 647.355, 459.66 z "/>
<path style="fill:rgb(0, 0, 255);fill-opacity:0;fill-rule:evenodd;stroke:rgb(220, 255, 0);stroke-width:1;" d="M 472.109, 225.233 L 540.484, 198.037 L 549.868, 193.823 L 566.914, 216.04 L 545.846, 224.659 L 536.845, 224.276 L 534.355, 227.532 L 557.912, 237.491 L 561.934, 232.128 L 577.256, 238.64 L 574.575, 242.279 L 583.385, 246.11 L 566.339, 269.476 L 476.323, 231.362 L 472.109, 225.233 z "/>
<path style="fill:rgb(255, 255, 0);fill-opacity:0;fill-rule:evenodd;stroke:rgb(220, 255, 0);stroke-width:1;" d="M 741.01, 596.026 L 774.144, 549.868 L 805.171, 562.701 L 791.19, 581.853 L 793.68, 583.002 L 789.275, 589.322 L 798.468, 593.153 L 816.854, 567.68 L 849.988, 581.278 L 834.283, 603.112 L 828.537, 600.814 L 813.981, 620.924 L 775.676, 604.836 L 776.442, 603.878 L 772.037, 601.963 L 768.207, 607.326 L 758.631, 603.304 L 741.01, 596.026 z "/>
<path style="fill:rgb(255, 0, 0);fill-opacity:0;fill-rule:evenodd;stroke:rgb(220, 255, 0);stroke-width:1;" d="M 33.5169, 699.066 L 67.7999, 651.76 L 88.8676, 660.57 L 85.4202, 665.166 L 128.705, 683.361 L 113, 705.004 L 118.362, 707.302 L 103.04, 728.178 L 70.2897, 714.388 L 89.6337, 687.575 L 76.8015, 682.212 L 57.4575, 709.026 L 33.5169, 699.066 z "/>
<path style="fill:rgb(0, 255, 0);fill-opacity:0;fill-rule:evenodd;stroke:rgb(220, 255, 0);stroke-width:1;" d="M 711.132, 90.9744 L 735.648, 61.6711 L 820.302, 97.4862 L 803.447, 120.469 L 797.127, 117.979 L 782.38, 138.281 L 778.358, 136.557 L 776.251, 139.622 L 761.887, 133.493 L 775.293, 115.298 L 773.378, 114.532 L 774.91, 112.425 L 777.783, 113.574 L 779.89, 110.701 L 749.054, 97.6778 L 747.331, 98.4439 L 738.904, 94.8049 L 734.498, 100.742 L 733.541, 100.359 L 711.132, 90.9744 z "/>
<path style="fill:rgb(0, 0, 255);fill-opacity:0;fill-rule:evenodd;stroke:rgb(220, 255, 0);stroke-width:1;" d="M 269.093, 614.029 L 278.477, 601.389 L 282.116, 596.217 L 288.82, 599.09 L 305.674, 576.299 L 360.642, 599.665 L 343.596, 622.648 L 353.172, 626.67 L 349.342, 631.841 L 340.34, 644.099 L 269.093, 614.029 z "/>
<path style="fill:rgb(255, 255, 0);fill-opacity:0;fill-rule:evenodd;stroke:rgb(220, 255, 0);stroke-width:1;" d="M 505.626, 715.921 L 522.672, 692.554 L 557.721, 707.493 L 562.892, 700.407 L 557.721, 698.3 L 559.062, 696.193 L 535.312, 686.043 L 549.294, 666.89 L 577.256, 678.765 L 579.555, 675.7 L 577.448, 674.743 L 578.597, 673.21 L 599.09, 681.829 L 601.389, 682.787 L 560.019, 739.095 L 505.626, 715.921 z "/>
<path style="fill:rgb(255, 0, 0);fill-opacity:0;fill-rule:evenodd;stroke:rgb(220, 255, 0);stroke-width:1;" d="M 65.8846, 650.994 L 101.125, 602.155 L 159.923, 626.861 L 154.752, 633.948 L 152.837, 633.182 L 143.261, 646.205 L 123.725, 637.97 L 123.917, 637.587 L 118.362, 635.097 L 109.935, 646.588 L 115.298, 648.695 L 116.064, 647.738 L 130.237, 653.675 L 120.278, 667.465 L 98.2523, 658.271 L 94.8049, 663.06 L 88.8676, 660.57 L 67.7999, 651.76 L 65.8846, 650.994 z "/>
<path style="fill:rgb(0, 255, 0);fill-opacity:0;fill-rule:evenodd;stroke:rgb(220, 255, 0);stroke-width:1;" d="M 387.264, 350.491 L 397.989, 335.935 L 401.436, 337.276 L 405.267, 334.594 L 419.823, 314.676 L 481.685, 340.723 L 466.172, 361.791 L 465.98, 364.855 L 469.811, 366.387 L 461.958, 377.304 L 459.277, 380.943 L 387.264, 350.491 z M 422.121, 348.767 L 438.975, 355.853 L 448.36, 343.021 L 435.719, 337.659 L 434.187, 337.084 L 429.591, 338.808 L 422.121, 348.767 z "/>
<path style="fill:rgb(0, 0, 255);fill-opacity:0;fill-rule:evenodd;stroke:rgb(220, 255, 0);stroke-width:1;" d="M 316.016, 316.208 L 332.87, 300.12 L 354.513, 282.691 L 376.155, 291.884 L 358.152, 316.591 L 362.557, 318.506 L 365.047, 315.059 L 366.579, 315.825 L 365.43, 317.165 L 368.877, 318.698 L 367.537, 320.613 L 372.899, 322.72 L 374.814, 320.038 L 372.708, 319.272 L 385.54, 301.652 L 407.757, 311.037 L 393.392, 330.572 L 396.265, 331.721 L 394.35, 334.211 L 397.989, 335.935 L 387.264, 350.491 L 317.548, 320.996 L 316.016, 316.208 z "/>
<path style="fill:rgb(255, 255, 0);fill-opacity:0;fill-rule:evenodd;stroke:rgb(220, 255, 0);stroke-width:1;" d="M 592.387, 593.919 L 612.88, 565.956 L 619.009, 568.638 L 628.011, 556.38 L 650.419, 565.956 L 654.633, 560.211 L 659.421, 562.126 L 680.488, 571.128 L 671.87, 583.002 L 667.656, 581.278 L 657.314, 595.26 L 661.527, 596.983 L 646.972, 616.902 L 623.222, 606.943 L 624.372, 605.411 L 617.477, 602.729 L 618.626, 601.006 L 611.539, 598.133 L 609.433, 601.006 L 592.387, 593.919 z "/>
<path style="fill:rgb(255, 0, 0);fill-opacity:0;fill-rule:evenodd;stroke:rgb(220, 255, 0);stroke-width:1;" d="M 635.097, 545.463 L 646.014, 530.524 L 662.868, 537.611 L 669.763, 528.226 L 647.163, 518.65 L 659.804, 501.604 L 714.388, 524.779 L 680.488, 571.128 L 659.421, 562.126 L 664.4, 555.614 L 654.633, 551.592 L 653.483, 553.124 L 635.097, 545.463 z "/>
<path style="fill:rgb(0, 255, 0);fill-opacity:0;fill-rule:evenodd;stroke:rgb(220, 255, 0);stroke-width:1;" d="M 754.992, 34.666 L 780.273, 0 L 795.212, 6.32033 L 794.063, 7.85253 L 806.895, 13.4068 L 798.659, 24.7067 L 805.937, 27.5796 L 806.895, 26.0474 L 818.386, 31.0271 L 824.324, 22.7915 L 842.519, 30.4525 L 835.432, 40.0287 L 840.603, 42.1355 L 824.707, 64.1609 L 754.992, 34.666 z "/>
<path style="fill:rgb(0, 0, 255);fill-opacity:0;fill-rule:evenodd;stroke:rgb(220, 255, 0);stroke-width:1;" d="M 543.165, 650.61 L 556.189, 632.99 L 566.148, 619.392 L 626.287, 644.865 L 599.09, 681.829 L 578.597, 673.21 L 562.317, 666.316 L 571.319, 654.058 L 554.273, 646.972 L 549.677, 653.292 L 543.165, 650.61 z "/>
<path style="fill:rgb(255, 255, 0);fill-opacity:0;fill-rule:evenodd;stroke:rgb(220, 255, 0);stroke-width:1;" d="M 651.951, 244.577 L 664.975, 226.766 L 675.509, 231.171 L 684.127, 219.296 L 673.785, 215.083 L 686.043, 198.42 L 738.52, 220.445 L 736.222, 223.701 L 735.839, 224.276 L 726.454, 236.916 L 715.154, 232.128 L 707.11, 243.237 L 718.41, 248.025 L 716.878, 250.132 L 709.983, 259.708 L 679.148, 246.876 L 674.168, 253.962 L 651.951, 244.577 z "/>
<path style="fill:rgb(255, 0, 0);fill-opacity:0;fill-rule:evenodd;stroke:rgb(220, 255, 0);stroke-width:1;" d="M 661.91, 705.387 L 687.383, 670.912 L 748.097, 696.96 L 745.224, 700.79 L 727.987, 723.965 L 708.834, 715.729 L 706.536, 718.985 L 700.024, 716.112 L 696.768, 720.326 L 661.91, 705.387 z "/>
<path style="fill:rgb(0, 255, 0);fill-opacity:0;fill-rule:evenodd;stroke:rgb(220, 255, 0);stroke-width:1;" d="M 135.6, 668.422 L 162.605, 631.075 L 222.744, 656.356 L 212.21, 670.721 L 203.783, 667.082 L 200.527, 671.487 L 203.017, 672.444 L 189.418, 691.022 L 135.6, 668.422 z M 153.028, 664.209 L 172.564, 672.253 L 182.906, 657.888 L 165.095, 650.419 L 162.605, 650.802 L 153.028, 664.209 z "/>
<path style="fill:rgb(0, 0, 255);fill-opacity:0;fill-rule:evenodd;stroke:rgb(220, 255, 0);stroke-width:1;" d="M 266.028, 380.369 L 290.543, 346.66 L 350.682, 371.942 L 341.106, 385.157 L 336.893, 390.711 L 331.147, 388.221 L 320.23, 403.352 L 301.652, 395.499 L 312.377, 380.943 L 300.311, 375.772 L 289.777, 390.328 L 266.028, 380.369 z "/>
<path style="fill:rgb(255, 255, 0);fill-opacity:0;fill-rule:evenodd;stroke:rgb(220, 255, 0);stroke-width:1;" d="M 386.114, 663.634 L 395.116, 651.377 L 401.053, 653.866 L 406.033, 654.633 L 411.779, 646.78 L 416.375, 640.651 L 406.033, 636.246 L 412.736, 627.244 L 465.789, 649.653 L 458.894, 658.846 L 450.658, 655.399 L 446.253, 658.655 L 438.975, 668.422 L 442.423, 671.295 L 448.169, 673.593 L 438.975, 686.043 L 386.114, 663.634 z "/>
<path style="fill:rgb(255, 0, 0);fill-opacity:0;fill-rule:evenodd;stroke:rgb(220, 255, 0);stroke-width:1;" d="M 658.846, 308.164 L 661.719, 304.142 L 670.721, 292.076 L 681.446, 296.672 L 692.171, 282.116 L 681.446, 277.52 L 684.702, 272.923 L 687.383, 269.476 L 707.685, 278.094 L 704.429, 282.308 L 711.324, 285.372 L 714.58, 280.776 L 736.031, 289.969 L 733.541, 293.225 L 729.71, 298.588 L 717.836, 293.608 L 716.495, 295.523 L 708.451, 306.44 L 720.326, 311.42 L 710.175, 325.209 L 707.493, 328.848 L 658.846, 308.164 z "/>
<path style="fill:rgb(0, 255, 0);fill-opacity:0;fill-rule:evenodd;stroke:rgb(220, 255, 0);stroke-width:1;" d="M 394.35, 777.4 L 408.331, 758.056 L 402.203, 755.566 L 402.777, 754.8 L 415.418, 737.18 L 464.64, 757.864 L 464.065, 759.014 L 454.68, 771.654 L 440.316, 765.525 L 435.911, 771.654 L 439.358, 773.186 L 438.018, 774.91 L 434.57, 773.57 L 432.655, 776.251 L 434.953, 782.571 L 443.955, 786.402 L 440.891, 790.615 L 437.252, 795.595 L 394.35, 777.4 z "/>
<path style="fill:rgb(0, 0, 255);fill-opacity:0;fill-rule:evenodd;stroke:rgb(220, 255, 0);stroke-width:1;" d="M 429.208, 611.539 L 433.421, 605.794 L 437.826, 599.856 L 451.041, 605.411 L 459.852, 593.345 L 456.596, 590.28 L 447.594, 586.45 L 455.446, 575.916 L 457.362, 573.234 L 505.818, 593.728 L 503.328, 596.983 L 495.858, 607.134 L 484.175, 602.155 L 474.024, 615.944 L 485.707, 620.924 L 477.663, 632.033 L 429.208, 611.539 z "/>
<path style="fill:rgb(255, 255, 0);fill-opacity:0;fill-rule:evenodd;stroke:rgb(220, 255, 0);stroke-width:1;" d="M 196.122, 693.704 L 201.867, 685.66 L 208.571, 688.341 L 212.976, 687.575 L 222.169, 674.934 L 212.21, 670.721 L 222.744, 656.356 L 271.199, 676.658 L 260.666, 691.022 L 248.983, 686.043 L 245.344, 691.214 L 250.515, 693.321 L 238.257, 710.175 L 231.937, 707.493 L 231.171, 708.451 L 196.122, 693.704 z "/>
<path style="fill:rgb(255, 0, 0);fill-opacity:0;fill-rule:evenodd;stroke:rgb(220, 255, 0);stroke-width:1;" d="M 715.154, 632.033 L 741.01, 596.026 L 758.631, 603.304 L 752.693, 611.348 L 772.612, 619.583 L 778.549, 611.539 L 789.658, 616.136 L 763.802, 652.143 L 752.31, 647.355 L 757.673, 639.694 L 738.137, 631.65 L 732.583, 639.311 L 715.154, 632.033 z "/>
<path style="fill:rgb(0, 255, 0);fill-opacity:0;fill-rule:evenodd;stroke:rgb(220, 255, 0);stroke-width:1;" d="M 109.552, 730.859 L 119.895, 716.687 L 133.11, 722.241 L 135.983, 718.219 L 131.961, 716.495 L 140.388, 705.195 L 143.644, 706.536 L 145.751, 703.663 L 133.11, 698.492 L 138.281, 691.214 L 183.481, 710.175 L 176.203, 720.134 L 166.435, 716.112 L 158.2, 727.604 L 154.752, 726.071 L 151.879, 730.093 L 164.903, 735.648 L 154.752, 749.82 L 109.552, 730.859 z "/>
<path style="fill:rgb(0, 0, 255);fill-opacity:0;fill-rule:evenodd;stroke:rgb(220, 255, 0);stroke-width:1;" d="M 322.337, 410.821 L 331.338, 398.372 L 346.277, 404.692 L 349.342, 400.67 L 346.469, 399.33 L 353.172, 390.328 L 341.106, 385.157 L 350.682, 371.942 L 396.265, 391.286 L 394.542, 393.584 L 386.689, 404.501 L 374.431, 399.138 L 367.728, 408.331 L 365.047, 407.182 L 362.174, 411.396 L 376.921, 417.716 L 370.792, 426.143 L 367.92, 430.165 L 322.337, 410.821 z "/>
<path style="fill:rgb(255, 255, 0);fill-opacity:0;fill-rule:evenodd;stroke:rgb(220, 255, 0);stroke-width:1;" d="M 744.266, 186.162 L 754.8, 171.798 L 762.653, 175.245 L 773.378, 161.073 L 764.759, 157.242 L 771.463, 148.24 L 816.28, 167.776 L 810.725, 175.245 L 809.959, 176.203 L 801.149, 172.373 L 788.892, 188.652 L 797.893, 192.483 L 789.849, 203.208 L 788.317, 205.123 L 744.266, 186.162 z "/>
<path style="fill:rgb(255, 0, 0);fill-opacity:0;fill-rule:evenodd;stroke:rgb(220, 255, 0);stroke-width:1;" d="M 307.781, 741.202 L 322.528, 720.9 L 316.208, 718.41 L 328.848, 700.982 L 372.516, 719.176 L 359.876, 736.605 L 353.938, 734.115 L 339.191, 754.417 L 307.781, 741.202 z "/>
<path style="fill:rgb(0, 255, 0);fill-opacity:0;fill-rule:evenodd;stroke:rgb(220, 255, 0);stroke-width:1;" d="M 351.065, 759.397 L 365.813, 739.095 L 359.876, 736.605 L 372.516, 719.176 L 415.418, 737.18 L 402.777, 754.8 L 397.031, 752.31 L 382.475, 772.42 L 351.065, 759.397 z "/>
<path style="fill:rgb(0, 0, 255);fill-opacity:0;fill-rule:evenodd;stroke:rgb(220, 255, 0);stroke-width:1;" d="M 340.34, 644.099 L 349.342, 631.841 L 359.492, 636.055 L 368.877, 623.222 L 368.111, 619.966 L 360.45, 616.711 L 367.153, 607.709 L 412.736, 627.244 L 406.033, 636.246 L 398.755, 633.182 L 393.967, 633.948 L 384.391, 646.78 L 395.116, 651.377 L 386.114, 663.634 L 340.34, 644.099 z "/>
<path style="fill:rgb(255, 255, 0);fill-opacity:0;fill-rule:evenodd;stroke:rgb(220, 255, 0);stroke-width:1;" d="M 798.659, 680.68 L 829.686, 637.587 L 831.793, 634.714 L 861.671, 647.163 L 858.99, 650.61 L 828.537, 693.129 L 798.659, 680.68 z "/>
<path style="fill:rgb(255, 0, 0);fill-opacity:0;fill-rule:evenodd;stroke:rgb(220, 255, 0);stroke-width:1;" d="M 768.59, 668.231 L 799.617, 624.946 L 829.686, 637.587 L 798.659, 680.68 L 768.59, 668.231 z "/>
<path style="fill:rgb(0, 255, 0);fill-opacity:0;fill-rule:evenodd;stroke:rgb(220, 255, 0);stroke-width:1;" d="M 502.37, 642.949 L 514.053, 627.244 L 516.16, 628.011 L 522.863, 618.817 L 515.777, 615.753 L 523.246, 605.602 L 525.736, 602.155 L 566.148, 619.392 L 556.189, 632.99 L 548.719, 629.734 L 541.824, 639.119 L 544.123, 640.077 L 532.631, 655.782 L 502.37, 642.949 z "/>
<path style="fill:rgb(0, 0, 255);fill-opacity:0;fill-rule:evenodd;stroke:rgb(220, 255, 0);stroke-width:1;" d="M 804.597, 324.635 L 822.025, 300.886 L 841.752, 309.121 L 845.966, 303.567 L 866.268, 311.994 L 868.566, 312.952 L 843.668, 347.235 L 822.408, 338.425 L 826.047, 333.637 L 804.597, 324.635 z "/>
<path style="fill:rgb(255, 255, 0);fill-opacity:0;fill-rule:evenodd;stroke:rgb(220, 255, 0);stroke-width:1;" d="M 227.149, 596.217 L 228.298, 594.494 L 236.342, 583.577 L 246.493, 587.982 L 255.686, 575.341 L 254.537, 572.66 L 255.111, 571.894 L 247.259, 568.638 L 253.579, 560.019 L 295.715, 577.831 L 289.394, 586.258 L 281.733, 583.002 L 276.754, 585.492 L 268.327, 596.983 L 278.477, 601.389 L 269.093, 614.029 L 227.149, 596.217 z "/>
<path style="fill:rgb(255, 0, 0);fill-opacity:0;fill-rule:evenodd;stroke:rgb(220, 255, 0);stroke-width:1;" d="M 609.05, 374.24 L 627.053, 349.725 L 620.924, 347.043 L 630.117, 334.403 L 631.458, 332.679 L 668.614, 348.384 L 667.273, 350.299 L 656.931, 364.472 L 655.399, 363.706 L 656.739, 361.982 L 652.143, 360.067 L 633.948, 384.774 L 609.05, 374.24 z "/>
<path style="fill:rgb(0, 255, 0);fill-opacity:0;fill-rule:evenodd;stroke:rgb(220, 255, 0);stroke-width:1;" d="M 320.23, 565.382 L 326.359, 557.146 L 335.36, 560.785 L 345.511, 546.804 L 336.509, 542.973 L 347.809, 527.46 L 384.391, 542.973 L 382.667, 545.08 L 371.559, 560.402 L 370.026, 559.636 L 369.452, 558.678 L 370.409, 557.529 L 364.089, 554.848 L 353.938, 568.829 L 362.557, 572.468 L 359.492, 576.873 L 356.62, 580.895 L 320.23, 565.382 z "/>
<path style="fill:rgb(0, 0, 255);fill-opacity:0;fill-rule:evenodd;stroke:rgb(220, 255, 0);stroke-width:1;" d="M 474.216, 544.506 L 476.323, 541.633 L 483.792, 531.482 L 490.496, 534.355 L 492.985, 531.099 L 496.816, 530.141 L 505.243, 518.458 L 496.241, 514.628 L 502.945, 505.243 L 538.951, 520.373 L 531.482, 530.524 L 523.246, 527.077 L 512.329, 541.633 L 514.053, 542.399 L 513.096, 543.74 L 519.799, 546.612 L 512.329, 556.763 L 510.223, 559.636 L 474.216, 544.506 z "/>
<path style="fill:rgb(255, 255, 0);fill-opacity:0;fill-rule:evenodd;stroke:rgb(220, 255, 0);stroke-width:1;" d="M 689.107, 407.757 L 697.534, 396.265 L 707.11, 400.287 L 717.453, 385.923 L 707.876, 381.901 L 715.921, 370.984 L 717.261, 369.069 L 753.268, 384.199 L 744.266, 396.457 L 739.478, 394.542 L 720.134, 420.972 L 689.107, 407.757 z "/>
<path style="fill:rgb(255, 0, 0);fill-opacity:0;fill-rule:evenodd;stroke:rgb(220, 255, 0);stroke-width:1;" d="M 0, 766.675 L 9.76778, 741.01 L 26.0474, 747.905 L 30.261, 749.629 L 28.5372, 751.927 L 41.944, 757.673 L 44.6253, 757.673 L 48.0728, 759.205 L 49.605, 760.929 L 56.8829, 763.993 L 50.1796, 773.378 L 39.2626, 768.781 L 37.3474, 771.654 L 44.8169, 774.719 L 45.3914, 773.953 L 51.3287, 775.676 L 53.8185, 777.975 L 63.7778, 782.188 L 57.266, 790.998 L 44.8169, 785.636 L 28.7288, 778.932 L 21.4508, 775.676 L 0, 766.675 z "/>
<path style="fill:rgb(0, 255, 0);fill-opacity:0;fill-rule:evenodd;stroke:rgb(220, 255, 0);stroke-width:1;" d="M 735.456, 430.165 L 754.226, 404.501 L 776.634, 414.077 L 778.932, 410.821 L 775.868, 409.672 L 777.209, 407.757 L 793.871, 414.843 L 767.824, 450.467 L 754.226, 444.721 L 757.864, 439.741 L 735.456, 430.165 z "/>
<path style="fill:rgb(0, 0, 255);fill-opacity:0;fill-rule:evenodd;stroke:rgb(220, 255, 0);stroke-width:1;" d="M 154.752, 749.82 L 164.903, 735.648 L 170.649, 737.946 L 181.183, 723.39 L 177.544, 721.858 L 186.354, 709.792 L 189.993, 709.409 L 213.55, 719.176 L 203.783, 732.775 L 200.718, 731.626 L 190.184, 746.181 L 195.164, 748.288 L 184.822, 762.461 L 154.752, 749.82 z "/>
<path style="fill:rgb(255, 255, 0);fill-opacity:0;fill-rule:evenodd;stroke:rgb(220, 255, 0);stroke-width:1;" d="M 463.491, 696.385 L 471.152, 686.043 L 481.302, 690.256 L 490.879, 677.232 L 490.687, 673.977 L 482.452, 670.529 L 483.026, 669.763 L 490.304, 659.995 L 520.373, 672.827 L 506.009, 692.554 L 512.138, 695.044 L 499.88, 711.898 L 463.491, 696.385 z "/>
<path style="fill:rgb(255, 0, 0);fill-opacity:0;fill-rule:evenodd;stroke:rgb(220, 255, 0);stroke-width:1;" d="M 184.822, 762.461 L 195.164, 748.288 L 200.335, 750.587 L 210.869, 735.839 L 208.379, 734.69 L 217.572, 722.049 L 243.428, 732.966 L 234.044, 745.607 L 230.979, 744.266 L 220.445, 758.822 L 225.425, 760.929 L 215.083, 775.293 L 184.822, 762.461 z "/>
<path style="fill:rgb(0, 255, 0);fill-opacity:0;fill-rule:evenodd;stroke:rgb(220, 255, 0);stroke-width:1;" d="M 808.619, 504.094 L 828.729, 476.323 L 847.881, 484.367 L 845.008, 488.006 L 848.264, 489.346 L 847.498, 490.496 L 873.354, 501.221 L 860.713, 518.841 L 834.666, 507.924 L 833.708, 509.265 L 830.069, 507.733 L 827.197, 511.946 L 808.619, 504.094 z "/>
<path style="fill:rgb(0, 0, 255);fill-opacity:0;fill-rule:evenodd;stroke:rgb(220, 255, 0);stroke-width:1;" d="M 416.567, 290.352 L 440.699, 257.41 L 469.045, 269.284 L 458.894, 283.074 L 444.913, 302.226 L 439.358, 299.928 L 437.443, 301.077 L 436.294, 301.46 L 433.996, 302.035 L 432.655, 302.226 L 430.165, 302.035 L 429.016, 301.843 L 426.718, 301.269 L 424.802, 300.12 L 423.845, 299.354 L 422.504, 297.821 L 421.738, 296.098 L 421.355, 295.14 L 421.355, 294.182 L 421.738, 292.459 L 416.567, 290.352 z "/>
<path style="fill:rgb(255, 255, 0);fill-opacity:0;fill-rule:evenodd;stroke:rgb(220, 255, 0);stroke-width:1;" d="M 794.829, 143.644 L 826.622, 100.168 L 849.413, 109.935 L 848.073, 111.659 L 828.92, 137.706 L 817.62, 153.22 L 794.829, 143.644 z "/>
<path style="fill:rgb(255, 0, 0);fill-opacity:0;fill-rule:evenodd;stroke:rgb(220, 255, 0);stroke-width:1;" d="M 773.378, 356.811 L 785.636, 339.765 L 794.063, 343.213 L 804.788, 347.809 L 807.853, 343.404 L 837.347, 355.853 L 821.834, 377.113 L 773.378, 356.811 z "/>
<path style="fill:rgb(0, 255, 0);fill-opacity:0;fill-rule:evenodd;stroke:rgb(220, 255, 0);stroke-width:1;" d="M 795.212, 522.48 L 808.619, 504.094 L 827.197, 511.946 L 837.539, 516.16 L 836.964, 517.309 L 835.815, 516.926 L 833.134, 520.373 L 859.373, 531.482 L 849.413, 545.08 L 795.212, 522.48 z "/>
<path style="fill:rgb(0, 0, 255);fill-opacity:0;fill-rule:evenodd;stroke:rgb(220, 255, 0);stroke-width:1;" d="M 262.581, 721.666 L 277.52, 701.173 L 275.988, 698.492 L 272.54, 697.151 L 283.649, 681.829 L 312.952, 694.278 L 299.928, 711.898 L 298.396, 711.324 L 300.311, 708.643 L 295.715, 706.919 L 279.627, 728.944 L 262.581, 721.666 z "/>
<path style="fill:rgb(255, 255, 0);fill-opacity:0;fill-rule:evenodd;stroke:rgb(220, 255, 0);stroke-width:1;" d="M 438.975, 686.043 L 448.169, 673.593 L 448.935, 672.444 L 456.213, 675.317 L 460.809, 669.188 L 459.852, 668.805 L 463.299, 664.017 L 465.789, 662.294 L 458.702, 659.229 L 458.894, 658.846 L 465.789, 649.653 L 469.045, 645.056 L 493.56, 655.399 L 490.304, 659.995 L 483.026, 669.763 L 472.492, 665.166 L 463.299, 677.616 L 474.024, 682.021 L 471.152, 686.043 L 463.491, 696.385 L 438.975, 686.043 z "/>
<path style="fill:rgb(255, 0, 0);fill-opacity:0;fill-rule:evenodd;stroke:rgb(220, 255, 0);stroke-width:1;" d="M 295.715, 555.997 L 302.226, 546.995 L 303.567, 545.08 L 312.186, 548.719 L 322.337, 534.929 L 313.718, 531.29 L 321.954, 519.99 L 324.06, 517.309 L 347.809, 527.46 L 336.509, 542.973 L 328.848, 553.507 L 325.784, 552.167 L 324.252, 554.273 L 321.571, 554.848 L 314.676, 564.233 L 295.715, 555.997 z "/>
<path style="fill:rgb(0, 255, 0);fill-opacity:0;fill-rule:evenodd;stroke:rgb(220, 255, 0);stroke-width:1;" d="M 608.092, 516.351 L 626.095, 491.645 L 651.76, 502.37 L 633.948, 527.077 L 627.627, 524.395 L 623.414, 530.333 L 610.199, 524.587 L 614.412, 518.841 L 608.092, 516.351 z "/>
<path style="fill:rgb(0, 0, 255);fill-opacity:0;fill-rule:evenodd;stroke:rgb(220, 255, 0);stroke-width:1;" d="M 279.818, 740.819 L 289.969, 727.22 L 295.715, 729.519 L 300.886, 722.432 L 294.374, 719.559 L 299.928, 711.898 L 312.952, 694.278 L 328.848, 700.982 L 316.208, 718.41 L 295.14, 747.331 L 279.818, 740.819 z "/>
<path style="fill:rgb(255, 255, 0);fill-opacity:0;fill-rule:evenodd;stroke:rgb(220, 255, 0);stroke-width:1;" d="M 212.976, 587.982 L 244.96, 544.506 L 260.282, 551.017 L 253.579, 560.019 L 247.259, 568.638 L 236.342, 583.577 L 228.298, 594.494 L 212.976, 587.982 z "/>
<path style="fill:rgb(255, 0, 0);fill-opacity:0;fill-rule:evenodd;stroke:rgb(220, 255, 0);stroke-width:1;" d="M 745.798, 340.34 L 764.759, 314.293 L 775.102, 318.698 L 768.207, 328.082 L 772.42, 329.806 L 779.124, 320.613 L 789.275, 324.826 L 770.314, 350.682 L 768.207, 351.831 L 766.483, 352.023 L 764.951, 351.831 L 764.185, 351.448 L 762.844, 350.682 L 761.887, 349.533 L 761.695, 348.192 L 761.887, 347.043 L 757.864, 345.511 L 756.332, 345.894 L 755.375, 345.894 L 753.842, 345.703 L 753.076, 345.32 L 752.31, 344.937 L 751.161, 343.979 L 750.395, 342.255 L 745.798, 340.34 z "/>
<path style="fill:rgb(0, 255, 0);fill-opacity:0;fill-rule:evenodd;stroke:rgb(220, 255, 0);stroke-width:1;" d="M 9.76778, 741.01 L 13.4068, 736.031 L 12.8322, 734.69 L 12.8322, 733.924 L 12.8322, 733.349 L 13.4068, 732.009 L 13.7898, 731.243 L 15.1305, 730.285 L 16.8542, 729.71 L 17.6203, 729.519 L 18.3864, 728.37 L 70.8643, 750.587 L 62.8202, 761.503 L 28.9203, 747.139 L 26.0474, 747.905 L 9.76778, 741.01 z "/>
<path style="fill:rgb(0, 0, 255);fill-opacity:0;fill-rule:evenodd;stroke:rgb(220, 255, 0);stroke-width:1;" d="M 707.493, 642.566 L 715.154, 632.033 L 732.583, 639.311 L 752.31, 647.355 L 763.802, 652.143 L 764.376, 652.526 L 760.929, 657.122 L 761.503, 658.271 L 761.503, 659.612 L 760.929, 660.953 L 759.971, 662.102 L 758.439, 662.677 L 756.715, 663.06 L 707.493, 642.566 z "/>
<path style="fill:rgb(255, 255, 0);fill-opacity:0;fill-rule:evenodd;stroke:rgb(220, 255, 0);stroke-width:1;" d="M 654.249, 715.537 L 661.91, 705.387 L 696.768, 720.326 L 708.643, 725.305 L 705.195, 730.093 L 695.044, 725.88 L 686.426, 737.371 L 676.275, 732.966 L 680.68, 726.837 L 654.249, 715.537 z "/>
<path style="fill:rgb(255, 0, 0);fill-opacity:0;fill-rule:evenodd;stroke:rgb(220, 255, 0);stroke-width:1;" d="M 486.09, 620.541 L 495.858, 607.134 L 503.328, 596.983 L 523.246, 605.602 L 515.777, 615.753 L 506.201, 628.968 L 486.09, 620.541 z "/>
<path style="fill:rgb(0, 255, 0);fill-opacity:0;fill-rule:evenodd;stroke:rgb(220, 255, 0);stroke-width:1;" d="M 215.083, 775.293 L 225.425, 760.929 L 234.618, 748.48 L 237.299, 749.629 L 241.896, 743.309 L 251.089, 747.331 L 246.684, 753.459 L 249.94, 754.8 L 231.937, 779.698 L 228.872, 778.358 L 225.042, 779.315 L 215.083, 775.293 z "/>
<path style="fill:rgb(0, 0, 255);fill-opacity:0;fill-rule:evenodd;stroke:rgb(220, 255, 0);stroke-width:1;" d="M 607.134, 438.592 L 631.266, 405.842 L 638.544, 395.882 L 648.121, 400.096 L 641.034, 409.864 L 636.629, 408.14 L 631.841, 414.843 L 638.353, 417.525 L 619.2, 443.763 L 607.134, 438.592 z "/>
<path style="fill:rgb(255, 255, 0);fill-opacity:0;fill-rule:evenodd;stroke:rgb(220, 255, 0);stroke-width:1;" d="M 751.544, 396.84 L 759.014, 386.689 L 801.532, 404.692 L 793.871, 414.843 L 777.209, 407.757 L 751.544, 396.84 z "/>
<path style="fill:rgb(255, 0, 0);fill-opacity:0;fill-rule:evenodd;stroke:rgb(220, 255, 0);stroke-width:1;" d="M 619.2, 443.763 L 638.353, 417.525 L 642.375, 419.248 L 652.334, 405.458 L 660.187, 408.714 L 648.695, 424.228 L 630.883, 448.743 L 619.2, 443.763 z "/>
<path style="fill:rgb(0, 255, 0);fill-opacity:0;fill-rule:evenodd;stroke:rgb(220, 255, 0);stroke-width:1;" d="M 249.174, 706.727 L 260.666, 691.022 L 271.199, 676.658 L 283.649, 681.829 L 272.54, 697.151 L 257.218, 718.027 L 250.706, 715.346 L 255.111, 709.217 L 249.174, 706.727 z "/>
<path style="fill:rgb(0, 0, 255);fill-opacity:0;fill-rule:evenodd;stroke:rgb(220, 255, 0);stroke-width:1;" d="M 352.215, 157.242 L 352.598, 155.135 L 353.555, 153.028 L 355.087, 151.113 L 356.811, 149.39 L 359.109, 148.049 L 361.791, 147.091 L 364.472, 146.517 L 367.537, 146.325 L 370.409, 146.517 L 373.091, 147.283 L 375.772, 148.24 L 377.879, 149.581 L 379.794, 151.305 L 381.135, 153.412 L 382.092, 155.327 L 382.284, 157.625 L 382.092, 159.923 L 380.752, 162.796 L 379.22, 164.712 L 377.113, 166.244 L 374.814, 167.584 L 372.133, 168.542 L 369.26, 169.117 L 366.387, 169.117 L 363.514, 168.734 L 360.833, 167.967 L 358.343, 166.818 L 356.045, 165.478 L 354.321, 163.754 L 353.172, 161.647 L 352.406, 159.54 L 352.215, 157.242 z "/>
<path style="fill:rgb(255, 255, 0);fill-opacity:0;fill-rule:evenodd;stroke:rgb(220, 255, 0);stroke-width:1;" d="M 508.882, 322.72 L 529.184, 294.757 L 532.631, 296.098 L 538.185, 295.523 L 543.165, 297.63 L 519.416, 330.189 L 516.16, 334.403 L 509.648, 331.721 L 514.436, 325.018 L 508.882, 322.72 z "/>
<path style="fill:rgb(255, 0, 0);fill-opacity:0;fill-rule:evenodd;stroke:rgb(220, 255, 0);stroke-width:1;" d="M 484.75, 312.569 L 505.243, 284.606 L 517.692, 289.777 L 492.219, 324.443 L 485.133, 321.379 L 489.921, 314.676 L 484.75, 312.569 z "/>
<path style="fill:rgb(0, 255, 0);fill-opacity:0;fill-rule:evenodd;stroke:rgb(220, 255, 0);stroke-width:1;" d="M 371.559, 582.428 L 376.73, 575.533 L 395.116, 550.443 L 399.713, 552.358 L 402.394, 551.209 L 405.842, 552.741 L 406.033, 555.04 L 406.991, 555.423 L 383.433, 587.599 L 371.559, 582.428 z "/>
<path style="fill:rgb(0, 0, 255);fill-opacity:0;fill-rule:evenodd;stroke:rgb(220, 255, 0);stroke-width:1;" d="M 395.882, 436.677 L 419.631, 404.118 L 432.463, 409.672 L 412.736, 436.677 L 407.565, 434.379 L 403.543, 439.933 L 395.882, 436.677 z "/>
<path style="fill:rgb(255, 255, 0);fill-opacity:0;fill-rule:evenodd;stroke:rgb(220, 255, 0);stroke-width:1;" d="M 794.063, 343.213 L 803.447, 330.381 L 822.408, 338.425 L 843.668, 347.235 L 837.347, 355.853 L 807.853, 343.404 L 804.788, 347.809 L 794.063, 343.213 z "/>
<path style="fill:rgb(255, 0, 0);fill-opacity:0;fill-rule:evenodd;stroke:rgb(220, 255, 0);stroke-width:1;" d="M 412.736, 436.677 L 432.463, 409.672 L 445.487, 415.226 L 421.738, 447.594 L 415.035, 444.721 L 419.057, 439.167 L 412.736, 436.677 z "/>
<path style="fill:rgb(0, 255, 0);fill-opacity:0;fill-rule:evenodd;stroke:rgb(220, 255, 0);stroke-width:1;" d="M 370.792, 426.143 L 376.921, 417.716 L 386.689, 404.501 L 394.542, 393.584 L 407.182, 398.947 L 387.455, 425.952 L 382.667, 423.845 L 378.645, 429.591 L 370.792, 426.143 z "/>
<path style="fill:rgb(0, 0, 255);fill-opacity:0;fill-rule:evenodd;stroke:rgb(220, 255, 0);stroke-width:1;" d="M 356.045, 490.687 L 380.56, 457.362 L 387.455, 460.426 L 382.859, 466.555 L 388.413, 469.045 L 368.686, 496.05 L 356.045, 490.687 z "/>
<path style="fill:rgb(255, 255, 0);fill-opacity:0;fill-rule:evenodd;stroke:rgb(220, 255, 0);stroke-width:1;" d="M 467.896, 314.101 L 493.177, 279.627 L 505.243, 284.606 L 484.75, 312.569 L 479.962, 310.462 L 474.982, 316.974 L 467.896, 314.101 z "/>
<path style="fill:rgb(255, 0, 0);fill-opacity:0;fill-rule:evenodd;stroke:rgb(220, 255, 0);stroke-width:1;" d="M 421.738, 447.594 L 445.487, 415.226 L 458.319, 420.589 L 438.592, 447.594 L 432.08, 444.721 L 428.058, 450.275 L 421.738, 447.594 z "/>
<path style="fill:rgb(0, 255, 0);fill-opacity:0;fill-rule:evenodd;stroke:rgb(220, 255, 0);stroke-width:1;" d="M 580.895, 354.513 L 585.109, 348.959 L 603.878, 323.294 L 617.477, 329.04 L 599.09, 354.321 L 590.855, 350.874 L 586.641, 356.811 L 580.895, 354.513 z "/>
<path style="fill:rgb(0, 0, 255);fill-opacity:0;fill-rule:evenodd;stroke:rgb(220, 255, 0);stroke-width:1;" d="M 397.223, 590.089 L 400.479, 585.684 L 419.057, 560.594 L 423.845, 562.701 L 424.611, 562.317 L 426.143, 561.934 L 427.867, 561.934 L 429.399, 562.509 L 430.548, 563.467 L 430.931, 564.041 L 431.506, 565.19 L 431.506, 565.765 L 409.672, 595.451 L 397.223, 590.089 z "/>
<path style="fill:rgb(255, 255, 0);fill-opacity:0;fill-rule:evenodd;stroke:rgb(220, 255, 0);stroke-width:1;" d="M 284.989, 548.528 L 309.696, 514.819 L 321.954, 519.99 L 313.718, 531.29 L 303.567, 545.08 L 302.226, 546.995 L 296.864, 544.697 L 291.884, 551.401 L 284.989, 548.528 z "/>
<path style="fill:rgb(255, 0, 0);fill-opacity:0;fill-rule:evenodd;stroke:rgb(220, 255, 0);stroke-width:1;" d="M 368.686, 496.05 L 388.413, 469.045 L 390.328, 466.555 L 396.265, 469.045 L 398.947, 465.214 L 405.075, 467.704 L 380.56, 501.221 L 368.686, 496.05 z "/>
<path style="fill:rgb(0, 255, 0);fill-opacity:0;fill-rule:evenodd;stroke:rgb(220, 255, 0);stroke-width:1;" d="M 461.192, 302.61 L 467.13, 294.182 L 482.643, 273.306 L 487.24, 275.221 L 488.389, 277.52 L 493.177, 279.627 L 467.896, 314.101 L 461.384, 311.228 L 466.172, 304.525 L 461.192, 302.61 z "/>
<path style="fill:rgb(0, 0, 255);fill-opacity:0;fill-rule:evenodd;stroke:rgb(220, 255, 0);stroke-width:1;" d="M 509.84, 397.414 L 533.972, 364.472 L 540.675, 367.345 L 536.079, 373.474 L 541.824, 375.964 L 522.289, 402.777 L 509.84, 397.414 z "/>
<path style="fill:rgb(255, 255, 0);fill-opacity:0;fill-rule:evenodd;stroke:rgb(220, 255, 0);stroke-width:1;" d="M 534.355, 407.757 L 558.487, 375.006 L 565.382, 377.879 L 560.977, 384.008 L 566.339, 386.306 L 546.612, 413.119 L 534.355, 407.757 z "/>
<path style="fill:rgb(255, 0, 0);fill-opacity:0;fill-rule:evenodd;stroke:rgb(220, 255, 0);stroke-width:1;" d="M 594.494, 433.23 L 613.646, 407.182 L 620.158, 409.864 L 625.138, 403.16 L 631.266, 405.842 L 607.134, 438.592 L 594.494, 433.23 z "/>
<path style="fill:rgb(0, 255, 0);fill-opacity:0;fill-rule:evenodd;stroke:rgb(220, 255, 0);stroke-width:1;" d="M 492.219, 324.443 L 517.692, 289.777 L 529.184, 294.757 L 508.882, 322.72 L 504.285, 320.804 L 499.497, 327.508 L 492.219, 324.443 z "/>
<path style="fill:rgb(0, 0, 255);fill-opacity:0;fill-rule:evenodd;stroke:rgb(220, 255, 0);stroke-width:1;" d="M 610.007, 286.33 L 629.16, 260.282 L 632.607, 261.815 L 634.139, 261.432 L 636.246, 261.24 L 637.204, 261.432 L 639.119, 262.006 L 640.651, 262.772 L 641.992, 264.113 L 642.375, 264.688 L 642.758, 266.22 L 623.797, 292.267 L 610.007, 286.33 z "/>
<path style="fill:rgb(255, 255, 0);fill-opacity:0;fill-rule:evenodd;stroke:rgb(220, 255, 0);stroke-width:1;" d="M 649.078, 298.779 L 667.465, 273.881 L 673.593, 276.371 L 678.382, 270.242 L 684.702, 272.923 L 681.446, 277.52 L 670.721, 292.076 L 661.719, 304.142 L 660.187, 304.908 L 658.463, 305.099 L 656.548, 304.908 L 654.824, 304.333 L 653.675, 303.184 L 653.292, 302.61 L 652.717, 301.269 L 652.717, 300.311 L 649.078, 298.779 z "/>
<path style="fill:rgb(255, 0, 0);fill-opacity:0;fill-rule:evenodd;stroke:rgb(220, 255, 0);stroke-width:1;" d="M 446.253, 458.128 L 470.002, 425.569 L 482.452, 430.74 L 463.874, 456.021 L 462.724, 457.745 L 457.362, 455.446 L 453.34, 461.192 L 446.253, 458.128 z "/>
<path style="fill:rgb(0, 255, 0);fill-opacity:0;fill-rule:evenodd;stroke:rgb(220, 255, 0);stroke-width:1;" d="M 558.487, 418.099 L 582.619, 384.965 L 589.131, 387.647 L 583.96, 394.542 L 590.089, 397.031 L 570.745, 423.27 L 558.487, 418.099 z "/>
<path style="fill:rgb(0, 0, 255);fill-opacity:0;fill-rule:evenodd;stroke:rgb(220, 255, 0);stroke-width:1;" d="M 540.675, 497.007 L 563.85, 465.214 L 567.872, 463.299 L 572.277, 465.023 L 571.702, 468.662 L 576.299, 470.577 L 557.721, 495.667 L 551.401, 492.985 L 546.804, 499.497 L 540.675, 497.007 z "/>
<path style="fill:rgb(255, 255, 0);fill-opacity:0;fill-rule:evenodd;stroke:rgb(220, 255, 0);stroke-width:1;" d="M 623.797, 292.267 L 642.758, 266.22 L 644.673, 265.645 L 646.588, 265.454 L 648.504, 265.645 L 649.461, 266.028 L 650.994, 266.986 L 652.143, 268.135 L 652.909, 269.476 L 652.909, 270.433 L 656.356, 271.966 L 637.204, 298.013 L 623.797, 292.267 z "/>
<path style="fill:rgb(255, 0, 0);fill-opacity:0;fill-rule:evenodd;stroke:rgb(220, 255, 0);stroke-width:1;" d="M 332.296, 480.728 L 356.62, 447.594 L 362.748, 450.275 L 358.343, 456.213 L 364.281, 458.894 L 344.554, 485.899 L 332.296, 480.728 z "/>
<path style="fill:rgb(0, 255, 0);fill-opacity:0;fill-rule:evenodd;stroke:rgb(220, 255, 0);stroke-width:1;" d="M 485.899, 387.264 L 509.84, 354.513 L 516.16, 357.194 L 511.755, 363.131 L 517.884, 365.813 L 498.157, 392.626 L 485.899, 387.264 z "/>
<path style="fill:rgb(0, 0, 255);fill-opacity:0;fill-rule:evenodd;stroke:rgb(220, 255, 0);stroke-width:1;" d="M 473.641, 382.284 L 493.368, 355.47 L 499.114, 357.769 L 503.519, 351.831 L 509.84, 354.513 L 485.899, 387.264 L 473.641, 382.284 z "/>
<path style="fill:rgb(255, 255, 0);fill-opacity:0;fill-rule:evenodd;stroke:rgb(220, 255, 0);stroke-width:1;" d="M 492.028, 476.706 L 517.118, 442.614 L 525.353, 446.062 L 523.821, 448.36 L 527.651, 449.892 L 509.265, 475.174 L 502.562, 472.492 L 497.582, 479.196 L 492.028, 476.706 z "/>
<path style="fill:rgb(255, 0, 0);fill-opacity:0;fill-rule:evenodd;stroke:rgb(220, 255, 0);stroke-width:1;" d="M 522.289, 402.777 L 541.824, 375.964 L 547.379, 378.262 L 551.784, 372.133 L 558.487, 375.006 L 534.355, 407.757 L 522.289, 402.777 z "/>
<path style="fill:rgb(0, 255, 0);fill-opacity:0;fill-rule:evenodd;stroke:rgb(220, 255, 0);stroke-width:1;" d="M 387.455, 425.952 L 407.182, 398.947 L 419.631, 404.118 L 395.882, 436.677 L 389.945, 434.187 L 393.967, 428.633 L 387.455, 425.952 z "/>
<path style="fill:rgb(0, 0, 255);fill-opacity:0;fill-rule:evenodd;stroke:rgb(220, 255, 0);stroke-width:1;" d="M 733.541, 334.977 L 752.31, 309.504 L 756.715, 303.376 L 763.036, 306.057 L 758.822, 311.803 L 764.759, 314.293 L 745.798, 340.34 L 744.266, 340.723 L 742.542, 340.723 L 741.585, 340.723 L 740.053, 339.957 L 738.904, 338.999 L 738.52, 338.425 L 738.137, 337.084 L 733.541, 334.977 z "/>
<path style="fill:rgb(255, 255, 0);fill-opacity:0;fill-rule:evenodd;stroke:rgb(220, 255, 0);stroke-width:1;" d="M 320.421, 475.748 L 331.53, 460.426 L 340.148, 448.552 L 345.894, 451.041 L 350.491, 444.913 L 356.62, 447.594 L 332.296, 480.728 L 320.421, 475.748 z "/>
<path style="fill:rgb(255, 0, 0);fill-opacity:0;fill-rule:evenodd;stroke:rgb(220, 255, 0);stroke-width:1;" d="M 516.543, 486.474 L 539.526, 454.872 L 540.675, 454.297 L 542.207, 453.914 L 544.506, 454.106 L 545.846, 454.872 L 546.804, 455.83 L 547.187, 456.979 L 546.995, 458.128 L 551.784, 460.235 L 533.397, 485.324 L 527.268, 482.835 L 522.672, 488.963 L 516.543, 486.474 z "/>
<path style="fill:rgb(0, 255, 0);fill-opacity:0;fill-rule:evenodd;stroke:rgb(220, 255, 0);stroke-width:1;" d="M 380.56, 501.221 L 405.075, 467.704 L 411.587, 470.577 L 407.374, 476.323 L 412.545, 478.621 L 411.204, 480.536 L 392.435, 506.009 L 380.56, 501.221 z "/>
<path style="fill:rgb(0, 0, 255);fill-opacity:0;fill-rule:evenodd;stroke:rgb(220, 255, 0);stroke-width:1;" d="M 278.094, 536.653 L 297.821, 509.84 L 309.696, 514.819 L 284.989, 548.528 L 279.052, 545.846 L 284.032, 539.143 L 278.094, 536.653 z "/>
<path style="fill:rgb(255, 255, 0);fill-opacity:0;fill-rule:evenodd;stroke:rgb(220, 255, 0);stroke-width:1;" d="M 583.768, 275.221 L 602.921, 248.983 L 607.134, 250.706 L 611.156, 250.515 L 614.795, 252.047 L 615.178, 253.579 L 615.944, 254.92 L 596.983, 280.776 L 583.768, 275.221 z "/>
<path style="fill:rgb(255, 0, 0);fill-opacity:0;fill-rule:evenodd;stroke:rgb(220, 255, 0);stroke-width:1;" d="M 519.416, 330.189 L 543.165, 297.63 L 555.614, 302.801 L 536.653, 328.465 L 530.333, 325.784 L 525.353, 332.679 L 519.416, 330.189 z "/>
<path style="fill:rgb(0, 255, 0);fill-opacity:0;fill-rule:evenodd;stroke:rgb(220, 255, 0);stroke-width:1;" d="M 267.944, 794.829 L 286.904, 768.973 L 287.479, 768.015 L 288.628, 768.398 L 287.862, 769.164 L 292.65, 771.271 L 296.289, 766.1 L 303.184, 768.781 L 280.393, 800 L 267.944, 794.829 z "/>
<path style="fill:rgb(0, 0, 255);fill-opacity:0;fill-rule:evenodd;stroke:rgb(220, 255, 0);stroke-width:1;" d="M 789.658, 280.01 L 808.236, 254.537 L 820.876, 259.899 L 797.893, 291.31 L 791.573, 288.628 L 795.786, 282.691 L 789.658, 280.01 z "/>
<path style="fill:rgb(255, 255, 0);fill-opacity:0;fill-rule:evenodd;stroke:rgb(220, 255, 0);stroke-width:1;" d="M 590.855, 516.926 L 613.455, 486.09 L 626.095, 491.645 L 608.092, 516.351 L 602.155, 513.67 L 597.75, 519.799 L 590.855, 516.926 z "/>
<path style="fill:rgb(255, 0, 0);fill-opacity:0;fill-rule:evenodd;stroke:rgb(220, 255, 0);stroke-width:1;" d="M 461.958, 377.304 L 469.811, 366.387 L 485.899, 344.554 L 492.602, 347.235 L 488.389, 353.172 L 493.368, 355.47 L 473.641, 382.284 L 461.958, 377.304 z "/>
<path style="fill:rgb(0, 255, 0);fill-opacity:0;fill-rule:evenodd;stroke:rgb(220, 255, 0);stroke-width:1;" d="M 546.612, 413.119 L 566.339, 386.306 L 571.702, 388.413 L 576.299, 382.284 L 582.619, 384.965 L 558.487, 418.099 L 546.612, 413.119 z "/>
<path style="fill:rgb(0, 0, 255);fill-opacity:0;fill-rule:evenodd;stroke:rgb(220, 255, 0);stroke-width:1;" d="M 531.673, 335.36 L 536.653, 328.465 L 555.614, 302.801 L 567.68, 307.972 L 548.719, 333.637 L 543.165, 331.338 L 538.185, 338.042 L 531.673, 335.36 z "/>
<path style="fill:rgb(255, 255, 0);fill-opacity:0;fill-rule:evenodd;stroke:rgb(220, 255, 0);stroke-width:1;" d="M 596.983, 280.776 L 615.944, 254.92 L 619.583, 253.771 L 623.989, 255.494 L 625.904, 258.942 L 629.16, 260.282 L 610.007, 286.33 L 596.983, 280.776 z "/>
<path style="fill:rgb(255, 0, 0);fill-opacity:0;fill-rule:evenodd;stroke:rgb(220, 255, 0);stroke-width:1;" d="M 359.492, 576.873 L 362.557, 572.468 L 371.559, 560.402 L 382.667, 545.08 L 395.116, 550.443 L 376.73, 575.533 L 370.601, 572.851 L 365.621, 579.555 L 359.492, 576.873 z "/>
<path style="fill:rgb(0, 255, 0);fill-opacity:0;fill-rule:evenodd;stroke:rgb(220, 255, 0);stroke-width:1;" d="M 344.554, 485.899 L 364.281, 458.894 L 370.026, 461.192 L 374.623, 454.872 L 380.56, 457.362 L 356.045, 490.687 L 344.554, 485.899 z "/>
<path style="fill:rgb(0, 0, 255);fill-opacity:0;fill-rule:evenodd;stroke:rgb(220, 255, 0);stroke-width:1;" d="M 438.592, 447.594 L 458.319, 420.589 L 470.002, 425.569 L 446.253, 458.128 L 439.933, 455.446 L 444.147, 449.892 L 438.592, 447.594 z "/>
<path style="fill:rgb(255, 255, 0);fill-opacity:0;fill-rule:evenodd;stroke:rgb(220, 255, 0);stroke-width:1;" d="M 543.74, 340.531 L 548.719, 333.637 L 567.68, 307.972 L 579.746, 312.952 L 560.785, 338.808 L 554.848, 336.126 L 549.868, 343.021 L 543.74, 340.531 z "/>
<path style="fill:rgb(255, 0, 0);fill-opacity:0;fill-rule:evenodd;stroke:rgb(220, 255, 0);stroke-width:1;" d="M 672.827, 385.731 L 691.405, 360.45 L 704.046, 366.004 L 681.638, 396.648 L 676.466, 394.542 L 680.488, 388.987 L 672.827, 385.731 z "/>
<path style="fill:rgb(0, 255, 0);fill-opacity:0;fill-rule:evenodd;stroke:rgb(220, 255, 0);stroke-width:1;" d="M 568.063, 350.682 L 573.043, 343.979 L 591.812, 318.123 L 603.878, 323.294 L 585.109, 348.959 L 579.363, 346.66 L 574.384, 353.364 L 568.063, 350.682 z "/>
<path style="fill:rgb(0, 0, 255);fill-opacity:0;fill-rule:evenodd;stroke:rgb(220, 255, 0);stroke-width:1;" d="M 244.194, 784.87 L 262.964, 758.822 L 268.135, 761.12 L 271.774, 756.141 L 278.86, 759.014 L 256.452, 789.849 L 244.194, 784.87 z "/>
<path style="fill:rgb(255, 255, 0);fill-opacity:0;fill-rule:evenodd;stroke:rgb(220, 255, 0);stroke-width:1;" d="M 555.806, 345.511 L 560.785, 338.808 L 579.746, 312.952 L 591.812, 318.123 L 573.043, 343.979 L 566.148, 341.106 L 561.36, 347.809 L 555.806, 345.511 z "/>
<path style="fill:rgb(255, 0, 0);fill-opacity:0;fill-rule:evenodd;stroke:rgb(220, 255, 0);stroke-width:1;" d="M 402.777, 510.606 L 425.952, 478.813 L 432.655, 481.685 L 428.25, 487.623 L 433.613, 489.921 L 414.843, 515.585 L 402.777, 510.606 z "/>
<path style="fill:rgb(0, 255, 0);fill-opacity:0;fill-rule:evenodd;stroke:rgb(220, 255, 0);stroke-width:1;" d="M 797.893, 291.31 L 820.876, 259.899 L 824.132, 261.24 L 827.771, 259.516 L 832.176, 261.432 L 832.368, 264.879 L 813.981, 290.16 L 808.427, 287.862 L 804.022, 293.799 L 797.893, 291.31 z "/>
<path style="fill:rgb(0, 0, 255);fill-opacity:0;fill-rule:evenodd;stroke:rgb(220, 255, 0);stroke-width:1;" d="M 498.157, 392.626 L 517.884, 365.813 L 523.246, 368.111 L 527.651, 361.982 L 533.972, 364.472 L 509.84, 397.414 L 498.157, 392.626 z "/>
<path style="fill:rgb(255, 255, 0);fill-opacity:0;fill-rule:evenodd;stroke:rgb(220, 255, 0);stroke-width:1;" d="M 231.937, 779.698 L 249.94, 754.8 L 254.537, 748.288 L 260.474, 750.97 L 256.644, 756.332 L 262.964, 758.822 L 244.194, 784.87 L 231.937, 779.698 z "/>
<path style="fill:rgb(255, 0, 0);fill-opacity:0;fill-rule:evenodd;stroke:rgb(220, 255, 0);stroke-width:1;" d="M 582.428, 428.25 L 601.58, 402.011 L 605.028, 397.223 L 611.156, 399.904 L 607.709, 404.501 L 613.646, 407.182 L 594.494, 433.23 L 582.428, 428.25 z "/>
<path style="fill:rgb(0, 255, 0);fill-opacity:0;fill-rule:evenodd;stroke:rgb(220, 255, 0);stroke-width:1;" d="M 594.685, 360.259 L 599.09, 354.321 L 617.477, 329.04 L 630.117, 334.403 L 620.924, 347.043 L 611.731, 359.684 L 603.687, 356.237 L 599.282, 362.365 L 594.685, 360.259 z "/>
<path style="fill:rgb(0, 0, 255);fill-opacity:0;fill-rule:evenodd;stroke:rgb(220, 255, 0);stroke-width:1;" d="M 582.428, 506.201 L 601.006, 480.919 L 613.455, 486.09 L 590.855, 516.926 L 584.917, 514.436 L 588.939, 508.882 L 582.428, 506.201 z "/>
<path style="fill:rgb(255, 255, 0);fill-opacity:0;fill-rule:evenodd;stroke:rgb(220, 255, 0);stroke-width:1;" d="M 828.92, 137.706 L 848.073, 111.659 L 852.669, 113.574 L 854.968, 112.425 L 859.564, 114.34 L 859.373, 116.639 L 835.624, 149.198 L 830.452, 147.091 L 835.241, 140.388 L 828.92, 137.706 z "/>
<path style="fill:rgb(255, 0, 0);fill-opacity:0;fill-rule:evenodd;stroke:rgb(220, 255, 0);stroke-width:1;" d="M 383.433, 587.599 L 406.991, 555.423 L 419.057, 560.594 L 400.479, 585.684 L 394.542, 583.194 L 389.562, 590.089 L 383.433, 587.599 z "/>
<path style="fill:rgb(0, 255, 0);fill-opacity:0;fill-rule:evenodd;stroke:rgb(220, 255, 0);stroke-width:1;" d="M 533.397, 485.324 L 551.784, 460.235 L 563.85, 465.214 L 540.675, 497.007 L 535.121, 494.518 L 539.718, 488.006 L 533.397, 485.324 z "/>
<path style="fill:rgb(0, 0, 255);fill-opacity:0;fill-rule:evenodd;stroke:rgb(220, 255, 0);stroke-width:1;" d="M 630.883, 448.743 L 648.695, 424.228 L 654.633, 426.718 L 658.846, 420.972 L 665.358, 423.653 L 643.333, 453.914 L 630.883, 448.743 z "/>
<path style="fill:rgb(255, 255, 0);fill-opacity:0;fill-rule:evenodd;stroke:rgb(220, 255, 0);stroke-width:1;" d="M 557.721, 495.667 L 576.299, 470.577 L 581.661, 469.045 L 587.216, 471.535 L 588.748, 475.748 L 570.17, 501.029 L 557.721, 495.667 z "/>
<path style="fill:rgb(255, 0, 0);fill-opacity:0;fill-rule:evenodd;stroke:rgb(220, 255, 0);stroke-width:1;" d="M 485.707, 465.214 L 504.094, 439.933 L 507.924, 441.465 L 509.457, 439.358 L 517.118, 442.614 L 492.028, 476.706 L 486.474, 474.407 L 491.453, 467.704 L 485.707, 465.214 z "/>
<path style="fill:rgb(0, 255, 0);fill-opacity:0;fill-rule:evenodd;stroke:rgb(220, 255, 0);stroke-width:1;" d="M 710.175, 325.209 L 720.326, 311.42 L 729.71, 298.588 L 733.541, 293.225 L 739.287, 295.523 L 734.498, 302.035 L 740.436, 304.525 L 721.666, 329.998 L 719.751, 330.189 L 718.793, 329.998 L 716.878, 329.232 L 715.537, 328.274 L 714.388, 326.933 L 710.175, 325.209 z "/>
<path style="fill:rgb(0, 0, 255);fill-opacity:0;fill-rule:evenodd;stroke:rgb(220, 255, 0);stroke-width:1;" d="M 451.808, 531.29 L 469.619, 506.967 L 477.089, 510.223 L 481.494, 504.285 L 486.474, 506.392 L 464.257, 536.462 L 451.808, 531.29 z "/>
<path style="fill:rgb(255, 255, 0);fill-opacity:0;fill-rule:evenodd;stroke:rgb(220, 255, 0);stroke-width:1;" d="M 644.29, 381.709 L 656.931, 364.472 L 667.273, 350.299 L 679.339, 355.47 L 660.761, 380.752 L 653.1, 377.496 L 648.695, 383.625 L 644.29, 381.709 z "/>
<path style="fill:rgb(255, 0, 0);fill-opacity:0;fill-rule:evenodd;stroke:rgb(220, 255, 0);stroke-width:1;" d="M 576.873, 584.151 L 594.685, 559.828 L 598.707, 554.273 L 609.816, 559.062 L 587.982, 588.939 L 576.873, 584.151 z "/>
<path style="fill:rgb(0, 255, 0);fill-opacity:0;fill-rule:evenodd;stroke:rgb(220, 255, 0);stroke-width:1;" d="M 509.265, 475.174 L 527.651, 449.892 L 539.526, 454.872 L 516.543, 486.474 L 511.18, 484.175 L 515.777, 478.046 L 509.265, 475.174 z "/>
<path style="fill:rgb(0, 0, 255);fill-opacity:0;fill-rule:evenodd;stroke:rgb(220, 255, 0);stroke-width:1;" d="M 409.672, 595.451 L 431.506, 565.765 L 443.572, 570.936 L 425.377, 595.643 L 419.44, 593.153 L 415.801, 598.133 L 409.672, 595.451 z "/>
<path style="fill:rgb(255, 255, 0);fill-opacity:0;fill-rule:evenodd;stroke:rgb(220, 255, 0);stroke-width:1;" d="M 660.761, 380.752 L 679.339, 355.47 L 691.405, 360.45 L 672.827, 385.731 L 670.338, 389.37 L 668.805, 391.477 L 664.209, 389.562 L 668.231, 383.816 L 660.761, 380.752 z "/>
<path style="fill:rgb(255, 0, 0);fill-opacity:0;fill-rule:evenodd;stroke:rgb(220, 255, 0);stroke-width:1;" d="M 464.257, 536.462 L 486.474, 506.392 L 492.411, 508.882 L 488.197, 514.819 L 494.135, 517.309 L 483.792, 531.482 L 476.323, 541.633 L 464.257, 536.462 z "/>
<path style="fill:rgb(0, 255, 0);fill-opacity:0;fill-rule:evenodd;stroke:rgb(220, 255, 0);stroke-width:1;" d="M 825.856, 218.722 L 843.093, 195.739 L 847.307, 189.993 L 852.861, 192.483 L 849.03, 197.845 L 855.925, 200.91 L 838.497, 224.276 L 825.856, 218.722 z "/>
<path style="fill:rgb(0, 0, 255);fill-opacity:0;fill-rule:evenodd;stroke:rgb(220, 255, 0);stroke-width:1;" d="M 746.948, 263.155 L 765.909, 236.916 L 767.824, 234.235 L 776.251, 237.683 L 774.336, 240.364 L 778.166, 241.896 L 764.568, 260.666 L 762.461, 259.708 L 758.056, 265.837 L 754.992, 266.411 L 746.948, 263.155 z "/>
<path style="fill:rgb(255, 255, 0);fill-opacity:0;fill-rule:evenodd;stroke:rgb(220, 255, 0);stroke-width:1;" d="M 681.638, 396.648 L 704.046, 366.004 L 715.921, 370.984 L 707.876, 381.901 L 697.534, 396.265 L 690.065, 393.009 L 686.234, 398.564 L 681.638, 396.648 z "/>
<path style="fill:rgb(255, 0, 0);fill-opacity:0;fill-rule:evenodd;stroke:rgb(220, 255, 0);stroke-width:1;" d="M 716.687, 257.984 L 721.092, 251.855 L 716.878, 250.132 L 718.41, 248.025 L 726.454, 236.916 L 735.839, 224.276 L 736.222, 223.701 L 737.371, 222.935 L 738.904, 222.744 L 740.244, 222.744 L 741.585, 223.318 L 742.734, 224.084 L 743.117, 225.233 L 743.117, 226.383 L 742.734, 227.149 L 746.181, 228.681 L 723.007, 260.666 L 716.687, 257.984 z "/>
<path style="fill:rgb(0, 255, 0);fill-opacity:0;fill-rule:evenodd;stroke:rgb(220, 255, 0);stroke-width:1;" d="M 802.107, 208.571 L 819.153, 185.779 L 824.707, 178.31 L 831.602, 181.183 L 826.047, 188.844 L 831.027, 190.95 L 813.981, 213.742 L 802.107, 208.571 z "/>
<path style="fill:rgb(0, 0, 255);fill-opacity:0;fill-rule:evenodd;stroke:rgb(220, 255, 0);stroke-width:1;" d="M 256.452, 789.849 L 278.86, 759.014 L 283.457, 760.929 L 279.818, 765.909 L 286.904, 768.973 L 267.944, 794.829 L 256.452, 789.849 z "/>
<path style="fill:rgb(255, 255, 0);fill-opacity:0;fill-rule:evenodd;stroke:rgb(220, 255, 0);stroke-width:1;" d="M 425.377, 595.643 L 443.572, 570.936 L 455.446, 575.916 L 447.594, 586.45 L 437.826, 599.856 L 433.421, 605.794 L 427.675, 603.304 L 431.506, 598.133 L 425.377, 595.643 z "/>
<path style="fill:rgb(255, 0, 0);fill-opacity:0;fill-rule:evenodd;stroke:rgb(220, 255, 0);stroke-width:1;" d="M 823.558, 293.991 L 826.43, 290.16 L 834.858, 293.799 L 838.113, 289.203 L 849.03, 293.799 L 872.396, 303.567 L 866.268, 311.994 L 845.966, 303.567 L 823.558, 293.991 z "/>
<path style="fill:rgb(0, 255, 0);fill-opacity:0;fill-rule:evenodd;stroke:rgb(220, 255, 0);stroke-width:1;" d="M 469.619, 467.321 L 492.985, 435.336 L 504.094, 439.933 L 485.707, 465.214 L 480.153, 462.916 L 475.174, 469.619 L 469.619, 467.321 z "/>
<path style="fill:rgb(0, 0, 255);fill-opacity:0;fill-rule:evenodd;stroke:rgb(220, 255, 0);stroke-width:1;" d="M 760.929, 269.476 L 766.675, 261.623 L 764.568, 260.666 L 778.166, 241.896 L 790.807, 247.067 L 772.037, 272.732 L 771.271, 273.881 L 760.929, 269.476 z "/>
<path style="fill:rgb(255, 255, 0);fill-opacity:0;fill-rule:evenodd;stroke:rgb(220, 255, 0);stroke-width:1;" d="M 572.277, 271.966 L 595.834, 239.981 L 600.239, 241.705 L 601.389, 244.386 L 599.09, 247.259 L 602.921, 248.983 L 583.768, 275.221 L 580.704, 273.881 L 579.938, 275.03 L 572.277, 271.966 z "/>
<path style="fill:rgb(255, 0, 0);fill-opacity:0;fill-rule:evenodd;stroke:rgb(220, 255, 0);stroke-width:1;" d="M 721.666, 329.998 L 740.436, 304.525 L 752.31, 309.504 L 733.541, 334.977 L 731.626, 335.552 L 729.902, 335.552 L 728.944, 335.36 L 727.22, 334.594 L 725.88, 333.637 L 725.497, 333.062 L 725.114, 331.53 L 721.666, 329.998 z "/>
<path style="fill:rgb(0, 255, 0);fill-opacity:0;fill-rule:evenodd;stroke:rgb(220, 255, 0);stroke-width:1;" d="M 512.329, 556.763 L 519.799, 546.612 L 529.95, 532.44 L 536.079, 535.121 L 540.867, 528.609 L 546.229, 530.907 L 523.629, 561.743 L 512.329, 556.763 z "/>
<path style="fill:rgb(0, 0, 255);fill-opacity:0;fill-rule:evenodd;stroke:rgb(220, 255, 0);stroke-width:1;" d="M 789.849, 203.208 L 797.893, 192.483 L 809.959, 176.203 L 810.725, 175.245 L 816.088, 177.544 L 812.066, 182.715 L 819.153, 185.779 L 802.107, 208.571 L 789.849, 203.208 z "/>
<path style="fill:rgb(255, 255, 0);fill-opacity:0;fill-rule:evenodd;stroke:rgb(220, 255, 0);stroke-width:1;" d="M 570.17, 501.029 L 588.748, 475.748 L 601.006, 480.919 L 582.428, 506.201 L 570.17, 501.029 z "/>
<path style="fill:rgb(255, 0, 0);fill-opacity:0;fill-rule:evenodd;stroke:rgb(220, 255, 0);stroke-width:1;" d="M 565.956, 579.555 L 589.131, 547.953 L 595.451, 550.634 L 590.089, 557.912 L 594.685, 559.828 L 576.873, 584.151 L 565.956, 579.555 z "/>
<path style="fill:rgb(0, 255, 0);fill-opacity:0;fill-rule:evenodd;stroke:rgb(220, 255, 0);stroke-width:1;" d="M 533.972, 565.956 L 551.592, 541.633 L 556.763, 543.931 L 561.551, 537.228 L 567.68, 539.718 L 562.701, 546.421 L 544.889, 570.745 L 533.972, 565.956 z "/>
<path style="fill:rgb(0, 0, 255);fill-opacity:0;fill-rule:evenodd;stroke:rgb(220, 255, 0);stroke-width:1;" d="M 463.874, 456.021 L 482.452, 430.74 L 492.985, 435.336 L 469.619, 467.321 L 464.448, 465.023 L 469.236, 458.319 L 463.874, 456.021 z "/>
<path style="fill:rgb(255, 255, 0);fill-opacity:0;fill-rule:evenodd;stroke:rgb(220, 255, 0);stroke-width:1;" d="M 439.167, 310.079 L 444.913, 302.226 L 458.894, 283.074 L 465.789, 285.947 L 461.384, 291.693 L 467.13, 294.182 L 461.192, 302.61 L 451.808, 315.442 L 439.167, 310.079 z "/>
<path style="fill:rgb(255, 0, 0);fill-opacity:0;fill-rule:evenodd;stroke:rgb(220, 255, 0);stroke-width:1;" d="M 813.981, 213.742 L 831.027, 190.95 L 835.241, 185.205 L 840.22, 187.503 L 836.198, 192.866 L 843.093, 195.739 L 825.856, 218.722 L 813.981, 213.742 z "/>
<path style="fill:rgb(0, 255, 0);fill-opacity:0;fill-rule:evenodd;stroke:rgb(220, 255, 0);stroke-width:1;" d="M 570.745, 423.27 L 590.089, 397.031 L 601.58, 402.011 L 582.428, 428.25 L 570.745, 423.27 z "/>
<path style="fill:rgb(0, 0, 255);fill-opacity:0;fill-rule:evenodd;stroke:rgb(220, 255, 0);stroke-width:1;" d="M 392.435, 506.009 L 411.204, 480.536 L 415.609, 482.26 L 419.823, 476.323 L 425.952, 478.813 L 402.777, 510.606 L 392.435, 506.009 z "/>
<path style="fill:rgb(255, 255, 0);fill-opacity:0;fill-rule:evenodd;stroke:rgb(220, 255, 0);stroke-width:1;" d="M 736.797, 266.986 L 741.202, 261.049 L 736.797, 259.325 L 756.141, 232.703 L 765.909, 236.916 L 746.948, 263.155 L 742.351, 269.284 L 736.797, 266.986 z "/>
<path style="fill:rgb(255, 0, 0);fill-opacity:0;fill-rule:evenodd;stroke:rgb(220, 255, 0);stroke-width:1;" d="M 723.007, 260.666 L 746.181, 228.681 L 756.141, 232.703 L 736.797, 259.325 L 732.392, 257.41 L 728.37, 262.964 L 723.007, 260.666 z "/>
<path style="fill:rgb(0, 255, 0);fill-opacity:0;fill-rule:evenodd;stroke:rgb(220, 255, 0);stroke-width:1;" d="M 637.204, 298.013 L 656.356, 271.966 L 656.739, 271.391 L 661.719, 273.498 L 666.89, 266.411 L 667.848, 266.986 L 668.614, 265.837 L 671.295, 267.177 L 670.338, 268.327 L 671.295, 268.71 L 667.465, 273.881 L 649.078, 298.779 L 646.972, 302.035 L 637.204, 298.013 z "/>
<path style="fill:rgb(0, 0, 255);fill-opacity:0;fill-rule:evenodd;stroke:rgb(220, 255, 0);stroke-width:1;" d="M 555.806, 575.341 L 573.617, 551.017 L 578.023, 552.933 L 583.385, 545.463 L 589.131, 547.953 L 565.956, 579.555 L 555.806, 575.341 z "/>
<path style="fill:rgb(255, 255, 0);fill-opacity:0;fill-rule:evenodd;stroke:rgb(220, 255, 0);stroke-width:1;" d="M 523.629, 561.743 L 546.229, 530.907 L 551.784, 533.397 L 547.187, 539.718 L 551.592, 541.633 L 533.972, 565.956 L 523.629, 561.743 z "/>
<path style="fill:rgb(255, 0, 0);fill-opacity:0;fill-rule:evenodd;stroke:rgb(220, 255, 0);stroke-width:1;" d="M 424.228, 519.607 L 447.785, 487.24 L 453.531, 489.538 L 448.743, 496.433 L 452.191, 497.774 L 433.421, 523.438 L 424.228, 519.607 z "/>
<path style="fill:rgb(0, 255, 0);fill-opacity:0;fill-rule:evenodd;stroke:rgb(220, 255, 0);stroke-width:1;" d="M 414.843, 515.585 L 433.613, 489.921 L 437.443, 491.645 L 442.423, 484.75 L 447.785, 487.24 L 424.228, 519.607 L 414.843, 515.585 z "/>
<path style="fill:rgb(0, 0, 255);fill-opacity:0;fill-rule:evenodd;stroke:rgb(220, 255, 0);stroke-width:1;" d="M 442.614, 527.268 L 466.172, 494.901 L 471.343, 497.199 L 467.513, 502.37 L 465.789, 503.519 L 470.577, 505.626 L 469.619, 506.967 L 451.808, 531.29 L 442.614, 527.268 z "/>
<path style="fill:rgb(255, 255, 0);fill-opacity:0;fill-rule:evenodd;stroke:rgb(220, 255, 0);stroke-width:1;" d="M 433.421, 523.438 L 452.191, 497.774 L 456.787, 499.689 L 456.787, 497.774 L 460.618, 492.602 L 466.172, 494.901 L 442.614, 527.268 L 433.421, 523.438 z "/>
<path style="fill:rgb(255, 0, 0);fill-opacity:0;fill-rule:evenodd;stroke:rgb(220, 255, 0);stroke-width:1;" d="M 544.889, 570.745 L 562.701, 546.421 L 573.617, 551.017 L 555.806, 575.341 L 544.889, 570.745 z "/>
<path style="fill:rgb(0, 255, 0);fill-opacity:0;fill-rule:evenodd;stroke:rgb(220, 255, 0);stroke-width:1;" d="M 776.442, 282.308 L 799.425, 250.898 L 808.236, 254.537 L 789.658, 280.01 L 786.019, 278.477 L 781.614, 284.606 L 776.442, 282.308 z "/>
<path style="fill:rgb(0, 0, 255);fill-opacity:0;fill-rule:evenodd;stroke:rgb(220, 255, 0);stroke-width:1;" d="M 771.463, 280.201 L 775.868, 274.264 L 772.037, 272.732 L 790.807, 247.067 L 799.425, 250.898 L 776.442, 282.308 L 771.463, 280.201 z "/>
</svg>