<?xml version="1.0" encoding="iso-8859-1" standalone="no"?>
<!DOCTYPE svg PUBLIC "-//W3C//DTD SVG 1.0//EN" "http://www.w3.org/TR/2001/REC-SVG-20010904/DTD/svg10.dtd">
<svg xmlns="http://www.w3.org/2000/svg" width="901" height="800">
<path style="fill:rgb(255, 0, 0);fill-opacity:0;fill-rule:evenodd;stroke:rgb(0, 255, 143);stroke-width:1;" d="M 217.766, 618.209 L 251.53, 571.766 L 288.242, 587.099 L 285.293, 591.08 L 326.576, 608.478 L 328.787, 605.234 L 342.057, 610.837 L 343.679, 608.625 L 348.839, 610.837 L 347.365, 613.048 L 360.044, 618.356 L 337.634, 649.318 L 333.653, 647.696 L 325.249, 659.344 L 326.428, 659.934 L 275.267, 730.409 L 261.113, 724.364 L 261.408, 723.922 L 257.132, 722.153 L 256.248, 723.332 L 242.978, 717.877 L 248.581, 710.358 L 250.35, 711.095 L 252.562, 707.851 L 251.087, 707.261 L 295.319, 646.517 L 299.3, 648.286 L 301.659, 645.19 L 259.049, 627.35 L 254.478, 633.69 L 217.766, 618.209 z "/>
<path style="fill:rgb(0, 255, 0);fill-opacity:0;fill-rule:evenodd;stroke:rgb(0, 255, 143);stroke-width:1;" d="M 42.4622, 690.306 L 44.9687, 686.915 L 44.3789, 686.62 L 50.129, 678.806 L 50.7188, 679.101 L 53.3727, 675.562 L 82.8603, 687.947 L 82.418, 688.537 L 87.2835, 690.601 L 89.6425, 687.357 L 92.5912, 688.537 L 94.3605, 686.178 L 92.7387, 685.44 L 107.188, 665.389 L 111.758, 667.306 L 112.201, 666.863 L 116.919, 668.927 L 123.701, 671.729 L 123.258, 672.171 L 127.682, 674.088 L 114.707, 692.075 L 134.464, 700.332 L 149.797, 679.248 L 180.612, 692.665 L 129.303, 763.435 L 97.6041, 750.166 L 111.611, 730.851 L 92.0015, 722.595 L 83.1552, 734.832 L 78.5846, 732.916 L 78.1423, 733.505 L 63.8408, 727.46 L 72.5396, 715.518 L 72.8345, 715.665 L 77.8474, 708.883 L 75.0461, 707.556 L 77.5525, 704.165 L 73.4243, 702.396 L 72.9819, 703.133 L 42.4622, 690.306 z "/>
<path style="fill:rgb(0, 0, 255);fill-opacity:0;fill-rule:evenodd;stroke:rgb(0, 255, 143);stroke-width:1;" d="M 134.021, 601.696 L 174.419, 545.816 L 188.426, 551.714 L 187.099, 553.483 L 190.638, 554.958 L 196.978, 546.259 L 205.824, 549.945 L 199.042, 559.381 L 231.331, 572.798 L 194.471, 623.811 L 187.099, 620.715 L 185.33, 623.074 L 170.586, 617.029 L 172.06, 614.965 L 161.74, 610.689 L 155.695, 618.946 L 145.816, 614.818 L 150.387, 608.478 L 134.021, 601.696 z "/>
<path style="fill:rgb(255, 255, 0);fill-opacity:0;fill-rule:evenodd;stroke:rgb(0, 255, 143);stroke-width:1;" d="M 267.748, 527.976 L 285.146, 527.092 L 285.735, 533.874 L 303.133, 532.989 L 302.396, 524.585 L 321.268, 523.701 L 319.794, 507.482 L 336.896, 506.598 L 338.518, 524.585 L 341.025, 524.438 L 341.32, 527.829 L 367.121, 526.649 L 370.66, 568.08 L 315.96, 570.881 L 313.454, 570.586 L 311.242, 569.849 L 310.063, 569.407 L 308.146, 568.374 L 306.377, 566.9 L 305.197, 565.278 L 304.313, 563.509 L 302.101, 537.56 L 297.825, 537.707 L 268.78, 539.182 L 267.748, 527.976 z M 313.749, 537.707 L 314.338, 545.374 L 331.441, 544.637 L 330.557, 534.759 L 327.018, 534.906 L 327.018, 534.169 L 317.582, 534.611 L 317.877, 537.56 L 313.749, 537.707 z "/>
<path style="fill:rgb(255, 0, 0);fill-opacity:0;fill-rule:evenodd;stroke:rgb(0, 255, 143);stroke-width:1;" d="M 266.863, 359.16 L 284.998, 358.275 L 283.671, 342.499 L 300.774, 341.762 L 302.396, 359.749 L 304.902, 359.602 L 305.197, 362.698 L 330.557, 361.371 L 331.589, 373.461 L 327.608, 373.756 L 330.262, 406.487 L 334.39, 406.34 L 335.422, 418.43 L 310.21, 419.609 L 310.358, 422.558 L 307.556, 422.705 L 309.031, 440.988 L 292.223, 441.872 L 290.748, 425.359 L 272.466, 426.244 L 271.286, 412.975 L 285.588, 412.237 L 285.883, 415.186 L 294.582, 414.744 L 294.434, 414.007 L 298.562, 413.859 L 297.678, 403.244 L 300.627, 403.096 L 298.562, 379.801 L 295.761, 379.948 L 294.877, 369.628 L 291.043, 369.775 L 290.896, 368.891 L 281.902, 369.333 L 282.197, 372.134 L 267.895, 372.724 L 266.863, 359.16 z "/>
<path style="fill:rgb(0, 255, 0);fill-opacity:0;fill-rule:evenodd;stroke:rgb(0, 255, 143);stroke-width:1;" d="M 734.98, 573.682 L 746.627, 573.387 L 746.185, 564.099 L 759.749, 563.804 L 765.794, 686.62 L 752.23, 686.915 L 750.166, 646.369 L 738.518, 646.812 L 734.98, 573.682 z "/>
<path style="fill:rgb(0, 0, 255);fill-opacity:0;fill-rule:evenodd;stroke:rgb(0, 255, 143);stroke-width:1;" d="M 39.0711, 400.147 L 76.373, 398.231 L 75.0461, 383.339 L 92.2964, 382.455 L 93.9182, 400.59 L 97.4567, 400.442 L 97.6041, 402.654 L 121.931, 401.474 L 122.964, 414.449 L 101.732, 415.481 L 103.059, 429.93 L 85.0719, 430.815 L 84.4821, 423 L 41.2827, 425.212 L 39.0711, 400.147 z "/>
<path style="fill:rgb(255, 255, 0);fill-opacity:0;fill-rule:evenodd;stroke:rgb(0, 255, 143);stroke-width:1;" d="M 195.356, 674.088 L 222.779, 636.196 L 252.709, 648.728 L 225.138, 686.62 L 195.356, 674.088 z "/>
<path style="fill:rgb(255, 0, 0);fill-opacity:0;fill-rule:evenodd;stroke:rgb(0, 255, 143);stroke-width:1;" d="M 274.383, 245.485 L 289.126, 244.895 L 289.274, 247.844 L 298.12, 247.401 L 298.12, 246.664 L 301.511, 246.517 L 300.627, 235.901 L 303.723, 235.754 L 302.838, 223.959 L 317.435, 223.369 L 318.762, 240.029 L 337.928, 239.145 L 338.961, 251.087 L 313.749, 252.267 L 314.043, 255.363 L 311.095, 255.511 L 312.569, 273.793 L 295.466, 274.53 L 294.139, 258.312 L 275.562, 259.196 L 274.383, 245.485 z "/>
<path style="fill:rgb(0, 255, 0);fill-opacity:0;fill-rule:evenodd;stroke:rgb(0, 255, 143);stroke-width:1;" d="M 123.258, 349.429 L 137.855, 348.839 L 138.15, 351.64 L 146.701, 351.198 L 146.701, 350.313 L 150.24, 350.166 L 149.502, 339.845 L 152.893, 339.698 L 152.009, 328.05 L 166.31, 327.46 L 167.49, 343.679 L 186.657, 342.941 L 187.689, 355.031 L 162.477, 356.063 L 162.624, 359.16 L 160.118, 359.307 L 161.445, 377.589 L 144.489, 378.327 L 143.31, 362.108 L 124.29, 362.993 L 123.258, 349.429 z "/>
<path style="fill:rgb(0, 0, 255);fill-opacity:0;fill-rule:evenodd;stroke:rgb(0, 255, 143);stroke-width:1;" d="M 215.85, 488.316 L 234.574, 487.431 L 233.247, 471.065 L 250.203, 470.181 L 251.677, 488.463 L 254.184, 488.316 L 254.478, 491.412 L 279.985, 490.232 L 281.017, 502.322 L 261.85, 503.207 L 263.177, 519.867 L 248.728, 520.604 L 247.696, 508.662 L 244.748, 508.809 L 244.01, 498.194 L 240.177, 498.341 L 240.029, 497.604 L 231.331, 498.046 L 231.478, 500.848 L 216.882, 501.585 L 215.85, 488.316 z "/>
<path style="fill:rgb(255, 255, 0);fill-opacity:0;fill-rule:evenodd;stroke:rgb(0, 255, 143);stroke-width:1;" d="M 199.189, 297.383 L 213.638, 296.793 L 213.785, 299.742 L 222.632, 299.3 L 222.484, 298.415 L 226.023, 298.268 L 225.138, 287.799 L 228.529, 287.652 L 227.645, 276.004 L 241.651, 275.267 L 242.831, 291.633 L 262.44, 290.748 L 263.325, 302.986 L 238.113, 304.165 L 238.26, 307.114 L 235.459, 307.261 L 236.786, 325.544 L 220.125, 326.281 L 218.946, 310.063 L 200.221, 310.8 L 199.189, 297.383 z "/>
<path style="fill:rgb(255, 0, 0);fill-opacity:0;fill-rule:evenodd;stroke:rgb(0, 255, 143);stroke-width:1;" d="M 129.598, 451.456 L 149.945, 450.571 L 148.913, 435.385 L 166.31, 434.648 L 167.49, 452.488 L 171.471, 452.341 L 171.618, 454.7 L 196.093, 453.668 L 196.978, 466.347 L 175.304, 467.232 L 176.336, 481.828 L 158.791, 482.565 L 158.054, 471.508 L 161.445, 471.36 L 160.855, 464.431 L 159.971, 464.578 L 159.676, 461.482 L 138.15, 462.366 L 138.002, 459.712 L 130.335, 460.007 L 129.598, 451.456 z "/>
<path style="fill:rgb(0, 255, 0);fill-opacity:0;fill-rule:evenodd;stroke:rgb(0, 255, 143);stroke-width:1;" d="M 197.125, 787.173 L 217.324, 759.307 L 248.139, 772.134 L 227.94, 800 L 197.125, 787.173 z "/>
<path style="fill:rgb(0, 0, 255);fill-opacity:0;fill-rule:evenodd;stroke:rgb(0, 255, 143);stroke-width:1;" d="M 683.524, 470.475 L 698.562, 470.181 L 701.216, 528.271 L 687.21, 528.566 L 686.178, 528.566 L 683.524, 470.475 z "/>
<path style="fill:rgb(255, 255, 0);fill-opacity:0;fill-rule:evenodd;stroke:rgb(0, 255, 143);stroke-width:1;" d="M 41.8725, 517.066 L 51.3085, 504.534 L 61.9241, 509.104 L 52.488, 521.784 L 41.8725, 517.066 z "/>
<path style="fill:rgb(255, 0, 0);fill-opacity:0;fill-rule:evenodd;stroke:rgb(0, 255, 143);stroke-width:1;" d="M 0, 542.278 L 19.3144, 515.739 L 48.3597, 527.976 L 38.0391, 542.278 L 60.3022, 551.567 L 58.9753, 553.336 L 63.8408, 555.252 L 65.61, 552.746 L 68.2639, 553.926 L 70.3281, 550.977 L 69.4434, 550.682 L 86.5463, 527.239 L 91.1168, 529.156 L 91.4117, 528.861 L 101.88, 533.284 L 101.585, 533.579 L 106.156, 535.496 L 89.0527, 559.086 L 88.3155, 558.791 L 86.1039, 561.74 L 89.495, 563.067 L 87.8732, 565.278 L 92.0015, 567.048 L 93.0335, 565.721 L 118.688, 576.484 L 115.592, 580.612 L 116.181, 580.759 L 111.316, 587.689 L 110.579, 587.394 L 107.63, 591.522 L 87.2835, 582.971 L 87.8732, 582.234 L 78.4372, 578.4 L 77.7, 579.285 L 74.1614, 577.811 L 71.2127, 582.086 L 71.9499, 582.381 L 54.847, 605.971 L 35.0903, 597.715 L 52.3406, 574.125 L 52.9303, 574.419 L 55.7317, 570.586 L 53.2252, 569.554 L 54.4047, 567.932 L 49.6867, 566.163 L 48.6546, 567.637 L 26.244, 558.201 L 28.7505, 554.958 L 28.3081, 554.663 L 28.603, 554.368 L 0, 542.278 z "/>
<path style="fill:rgb(0, 255, 0);fill-opacity:0;fill-rule:evenodd;stroke:rgb(0, 255, 143);stroke-width:1;" d="M 744.858, 369.48 L 848.802, 0 L 901.585, 8.55142 L 797.641, 378.032 L 744.858, 369.48 z "/>
</svg>