<?xml version="1.0" encoding="iso-8859-1" standalone="no"?>
<!DOCTYPE svg PUBLIC "-//W3C//DTD SVG 1.0//EN" "http://www.w3.org/TR/2001/REC-SVG-20010904/DTD/svg10.dtd">
<svg xmlns="http://www.w3.org/2000/svg" width="1025" height="800">
<path style="fill:rgb(255, 0, 0);fill-opacity:0;fill-rule:evenodd;stroke:rgb(0, 251, 255);stroke-width:1;" d="M 89.0667, 521.956 L 103.644, 482.311 L 318.044, 547.378 L 270.756, 637.333 L 264.356, 635.378 L 229.867, 625.422 L 212.444, 620.267 L 139.911, 599.111 L 128.178, 595.556 L 144.711, 549.867 L 138.667, 548.444 L 142.4, 538.133 L 121.422, 531.733 L 89.0667, 521.956 z "/>
<path style="fill:rgb(0, 255, 0);fill-opacity:0;fill-rule:evenodd;stroke:rgb(0, 251, 255);stroke-width:1;" d="M 89.0667, 521.956 L 103.644, 482.311 L 318.044, 547.378 L 270.756, 637.333 L 264.356, 635.378 L 229.867, 625.422 L 249.6, 588.622 L 251.022, 588.978 L 264.178, 564.267 L 216.889, 549.689 L 216.178, 551.289 L 188.444, 542.756 L 171.556, 537.778 L 172.444, 536.178 L 150.933, 529.778 L 154.311, 523.378 L 129.956, 516.089 L 121.422, 531.733 L 89.0667, 521.956 z "/>
<path style="fill:rgb(0, 0, 255);fill-opacity:0;fill-rule:evenodd;stroke:rgb(0, 251, 255);stroke-width:1;" d="M 134.044, 398.578 L 157.867, 332.8 L 233.956, 366.044 L 223.111, 392.178 L 242.311, 398.222 L 254.933, 374.222 L 318.4, 400.711 L 298.133, 427.556 L 303.822, 430.044 L 299.911, 435.911 L 298.667, 435.378 L 284.444, 431.111 L 276.444, 428.622 L 267.556, 445.511 L 225.067, 432.533 L 227.911, 427.2 L 134.044, 398.578 z "/>
<path style="fill:rgb(255, 255, 0);fill-opacity:0;fill-rule:evenodd;stroke:rgb(0, 251, 255);stroke-width:1;" d="M 121.422, 531.733 L 129.956, 516.089 L 154.311, 523.378 L 150.933, 529.778 L 172.444, 536.178 L 171.556, 537.778 L 188.444, 542.756 L 216.178, 551.289 L 216.889, 549.689 L 264.178, 564.267 L 251.022, 588.978 L 249.6, 588.622 L 229.867, 625.422 L 212.444, 620.267 L 218.311, 608.889 L 156.444, 590.578 L 168.356, 556.089 L 156.978, 553.067 L 144.711, 549.867 L 138.667, 548.444 L 142.4, 538.133 L 121.422, 531.733 z "/>
<path style="fill:rgb(255, 0, 0);fill-opacity:0;fill-rule:evenodd;stroke:rgb(0, 251, 255);stroke-width:1;" d="M 268.622, 344.533 L 284.444, 314.133 L 302.578, 279.111 L 322.133, 292.089 L 343.644, 305.244 L 339.378, 308.978 L 353.067, 315.378 L 363.911, 318.933 L 373.333, 324.978 L 363.911, 337.778 L 347.911, 359.111 L 386.667, 375.644 L 376.356, 389.867 L 268.622, 344.533 z "/>
<path style="fill:rgb(0, 255, 0);fill-opacity:0;fill-rule:evenodd;stroke:rgb(0, 251, 255);stroke-width:1;" d="M 188.444, 542.756 L 201.956, 517.156 L 309.689, 550.044 L 264.356, 635.378 L 229.867, 625.422 L 249.6, 588.622 L 251.022, 588.978 L 264.178, 564.267 L 216.889, 549.689 L 216.178, 551.289 L 188.444, 542.756 z "/>
<path style="fill:rgb(0, 0, 255);fill-opacity:0;fill-rule:evenodd;stroke:rgb(0, 251, 255);stroke-width:1;" d="M 406.578, 782.756 L 415.822, 764.622 L 414.578, 764.444 L 442.133, 710.933 L 443.378, 711.289 L 452.8, 692.8 L 474.844, 699.378 L 465.778, 717.333 L 501.867, 728 L 465.067, 800 L 406.578, 782.756 z "/>
<path style="fill:rgb(255, 255, 0);fill-opacity:0;fill-rule:evenodd;stroke:rgb(0, 251, 255);stroke-width:1;" d="M 38.0444, 653.333 L 49.2444, 623.467 L 80.3556, 632.711 L 71.2889, 650.311 L 78.9333, 659.556 L 97.6, 664.889 L 100.089, 660.267 L 204.8, 691.022 L 202.667, 695.289 L 209.6, 697.244 L 202.489, 711.467 L 195.378, 709.511 L 193.067, 714.133 L 88.3556, 683.378 L 85.8667, 688.178 L 54.7556, 679.111 L 38.0444, 653.333 z "/>
<path style="fill:rgb(255, 0, 0);fill-opacity:0;fill-rule:evenodd;stroke:rgb(0, 251, 255);stroke-width:1;" d="M 507.556, 412.089 L 514.133, 403.022 L 521.956, 392 L 536.178, 372.089 L 580.8, 390.578 L 583.644, 386.667 L 600.356, 393.6 L 597.511, 397.511 L 601.067, 398.933 L 570.489, 441.956 L 576, 444.267 L 575.644, 444.8 L 577.778, 445.689 L 577.067, 446.756 L 565.333, 470.4 L 521.067, 451.911 L 528.711, 441.244 L 532.089, 442.667 L 536.178, 436.8 L 541.333, 438.933 L 537.422, 444.267 L 540.978, 445.867 L 551.644, 430.933 L 546.667, 428.8 L 552, 421.333 L 533.511, 413.689 L 525.867, 424.356 L 511.111, 414.4 L 507.556, 412.089 z "/>
<path style="fill:rgb(0, 255, 0);fill-opacity:0;fill-rule:evenodd;stroke:rgb(0, 251, 255);stroke-width:1;" d="M 234.311, 116.622 L 244.444, 89.0667 L 251.733, 69.8667 L 295.644, 87.8222 L 311.289, 94.0444 L 329.244, 101.511 L 317.689, 118.044 L 316.444, 119.822 L 310.756, 127.822 L 308.444, 131.2 L 295.644, 126.044 L 289.778, 134.222 L 283.2, 132.089 L 252.444, 122.311 L 234.311, 116.622 z "/>
<path style="fill:rgb(0, 0, 255);fill-opacity:0;fill-rule:evenodd;stroke:rgb(0, 251, 255);stroke-width:1;" d="M 736.356, 98.3111 L 743.467, 88.3556 L 746.133, 84.8 L 755.022, 88.3556 L 761.778, 79.1111 L 760.533, 76.2667 L 754.133, 73.6 L 760.889, 64.3556 L 785.244, 74.6667 L 779.911, 81.9556 L 781.689, 85.1556 L 778.844, 89.4222 L 784.711, 91.9111 L 794.489, 78.4 L 809.6, 84.8 L 825.244, 91.3778 L 815.467, 104.889 L 821.689, 107.378 L 824.711, 103.289 L 829.156, 102.933 L 834.667, 95.2889 L 858.489, 105.244 L 851.733, 114.667 L 845.511, 112.178 L 841.956, 112.711 L 835.022, 122.311 L 843.733, 125.867 L 833.956, 139.2 L 807.644, 128.178 L 816.178, 116.267 L 805.867, 112 L 797.156, 123.733 L 772.978, 113.6 L 781.511, 101.689 L 771.911, 97.6 L 763.2, 109.511 L 736.356, 98.3111 z "/>
<path style="fill:rgb(255, 255, 0);fill-opacity:0;fill-rule:evenodd;stroke:rgb(0, 251, 255);stroke-width:1;" d="M 683.378, 155.733 L 690.133, 146.667 L 696.178, 138.133 L 708.8, 120.889 L 786.489, 153.778 L 774.222, 170.667 L 766.4, 181.333 L 738.489, 169.422 L 733.156, 176.889 L 705.778, 165.156 L 714.489, 151.822 L 700.8, 145.956 L 691.2, 159.111 L 689.067, 158.222 L 683.378, 155.733 z "/>
<path style="fill:rgb(255, 0, 0);fill-opacity:0;fill-rule:evenodd;stroke:rgb(0, 251, 255);stroke-width:1;" d="M 167.111, 302.044 L 180.089, 267.2 L 195.378, 271.822 L 201.067, 273.6 L 213.689, 277.333 L 275.378, 295.822 L 269.867, 306.489 L 235.378, 296.178 L 233.778, 299.2 L 225.778, 313.6 L 219.733, 324.622 L 167.111, 302.044 z "/>
<path style="fill:rgb(0, 255, 0);fill-opacity:0;fill-rule:evenodd;stroke:rgb(0, 251, 255);stroke-width:1;" d="M 559.644, 315.733 L 572.444, 297.778 L 581.689, 284.978 L 595.733, 290.844 L 584.889, 305.956 L 591.289, 308.622 L 613.511, 277.867 L 649.422, 292.978 L 615.822, 339.378 L 559.644, 315.733 z "/>
<path style="fill:rgb(0, 0, 255);fill-opacity:0;fill-rule:evenodd;stroke:rgb(0, 251, 255);stroke-width:1;" d="M 591.822, 426.489 L 610.667, 400.356 L 608.178, 399.289 L 610.133, 396.444 L 611.378, 396.978 L 614.4, 392.711 L 624.711, 378.311 L 665.956, 395.378 L 656.178, 409.244 L 649.422, 418.667 L 657.956, 422.222 L 642.667, 443.733 L 633.956, 440.178 L 632, 443.022 L 602.667, 430.933 L 591.822, 426.489 z "/>
<path style="fill:rgb(255, 255, 0);fill-opacity:0;fill-rule:evenodd;stroke:rgb(0, 251, 255);stroke-width:1;" d="M 197.867, 219.022 L 204.978, 200.178 L 261.689, 224.533 L 253.867, 235.2 L 262.756, 238.933 L 264.889, 237.333 L 266.489, 237.867 L 270.578, 232.356 L 290.489, 245.511 L 296.889, 248.178 L 301.867, 241.6 L 336.178, 256.356 L 328.356, 266.844 L 322.311, 275.022 L 310.044, 269.867 L 311.644, 267.733 L 309.156, 266.667 L 304.178, 275.556 L 290.311, 269.511 L 293.689, 265.244 L 252.978, 238.933 L 248.711, 242.667 L 236.267, 234.489 L 224.178, 226.844 L 197.867, 219.022 z "/>
<path style="fill:rgb(255, 0, 0);fill-opacity:0;fill-rule:evenodd;stroke:rgb(0, 251, 255);stroke-width:1;" d="M 180.089, 267.2 L 189.156, 242.667 L 230.222, 254.933 L 226.844, 261.156 L 242.133, 265.778 L 244.978, 260.089 L 287.289, 272.711 L 275.378, 295.822 L 213.689, 277.333 L 201.067, 273.6 L 195.378, 271.822 L 180.089, 267.2 z "/>
<path style="fill:rgb(0, 255, 0);fill-opacity:0;fill-rule:evenodd;stroke:rgb(0, 251, 255);stroke-width:1;" d="M 876.8, 157.689 L 896.711, 130.133 L 925.156, 142.044 L 924.8, 142.4 L 938.133, 147.911 L 966.933, 160 L 964.978, 162.489 L 958.4, 171.733 L 947.2, 167.111 L 944.533, 170.844 L 955.556, 175.467 L 953.422, 178.667 L 947.2, 187.2 L 876.8, 157.689 z "/>
<path style="fill:rgb(0, 0, 255);fill-opacity:0;fill-rule:evenodd;stroke:rgb(0, 251, 255);stroke-width:1;" d="M 310.756, 127.822 L 316.444, 119.822 L 322.667, 122.311 L 335.644, 104 L 336, 104.178 L 410.844, 134.756 L 397.333, 153.778 L 403.556, 156.444 L 398.4, 163.556 L 310.756, 127.822 z M 339.378, 123.556 L 340.089, 125.511 L 384, 143.822 L 386.311, 143.111 L 387.733, 141.156 L 386.844, 139.378 L 343.644, 120.711 L 340.978, 121.244 L 339.378, 123.556 z "/>
<path style="fill:rgb(255, 255, 0);fill-opacity:0;fill-rule:evenodd;stroke:rgb(0, 251, 255);stroke-width:1;" d="M 509.867, 647.822 L 511.822, 644.267 L 516.978, 634.133 L 528.889, 610.844 L 574.756, 624.533 L 551.644, 669.511 L 518.222, 659.556 L 522.311, 651.556 L 509.867, 647.822 z "/>
<path style="fill:rgb(255, 0, 0);fill-opacity:0;fill-rule:evenodd;stroke:rgb(0, 251, 255);stroke-width:1;" d="M 880.889, 390.578 L 904.889, 356.8 L 884.089, 348.267 L 891.2, 338.311 L 947.022, 361.422 L 915.911, 404.978 L 880.889, 390.578 z M 918.222, 366.933 L 921.422, 368.178 L 923.378, 364.978 L 920.356, 363.911 L 918.222, 366.933 z M 912, 375.289 L 915.378, 376.533 L 917.156, 373.689 L 913.778, 372.444 L 912, 375.289 z "/>
<path style="fill:rgb(0, 255, 0);fill-opacity:0;fill-rule:evenodd;stroke:rgb(0, 251, 255);stroke-width:1;" d="M 503.644, 80.7111 L 528.889, 45.1556 L 543.644, 51.3778 L 536.889, 60.9778 L 548.267, 65.6 L 555.2, 56 L 571.022, 62.7556 L 563.733, 73.0667 L 559.467, 78.9333 L 574.222, 84.9778 L 578.311, 79.1111 L 597.156, 86.9333 L 582.4, 107.378 L 563.556, 99.7333 L 567.822, 93.6889 L 526.578, 76.6222 L 519.111, 87.1111 L 503.644, 80.7111 z "/>
<path style="fill:rgb(0, 0, 255);fill-opacity:0;fill-rule:evenodd;stroke:rgb(0, 251, 255);stroke-width:1;" d="M 167.111, 302.044 L 180.089, 267.2 L 195.378, 271.822 L 201.067, 273.6 L 213.689, 277.333 L 209.244, 289.778 L 220.444, 294.044 L 233.778, 299.2 L 225.778, 313.6 L 219.733, 324.622 L 167.111, 302.044 z "/>
<path style="fill:rgb(255, 255, 0);fill-opacity:0;fill-rule:evenodd;stroke:rgb(0, 251, 255);stroke-width:1;" d="M 59.0222, 176.178 L 79.4667, 152.356 L 130.667, 177.778 L 123.733, 199.467 L 93.1556, 190.756 L 64.3556, 182.4 L 66.3111, 178.133 L 59.3778, 176.356 L 59.0222, 176.178 z "/>
<path style="fill:rgb(255, 0, 0);fill-opacity:0;fill-rule:evenodd;stroke:rgb(0, 251, 255);stroke-width:1;" d="M 226.311, 138.133 L 234.311, 116.622 L 252.444, 122.311 L 283.2, 132.089 L 289.778, 134.222 L 300.444, 137.6 L 282.844, 162.667 L 277.156, 160.356 L 278.044, 159.111 L 273.6, 157.333 L 226.311, 138.133 z "/>
<path style="fill:rgb(0, 255, 0);fill-opacity:0;fill-rule:evenodd;stroke:rgb(0, 251, 255);stroke-width:1;" d="M 547.556, 257.6 L 567.289, 230.044 L 589.156, 238.933 L 600.889, 243.733 L 606.933, 246.4 L 611.556, 248.178 L 591.822, 275.911 L 547.556, 257.6 z "/>
<path style="fill:rgb(0, 0, 255);fill-opacity:0;fill-rule:evenodd;stroke:rgb(0, 251, 255);stroke-width:1;" d="M 365.689, 295.467 L 372.8, 285.867 L 380.622, 275.378 L 440.178, 300.978 L 425.422, 321.067 L 377.244, 300.444 L 365.689, 295.467 z "/>
<path style="fill:rgb(255, 255, 0);fill-opacity:0;fill-rule:evenodd;stroke:rgb(0, 251, 255);stroke-width:1;" d="M 465.956, 368.711 L 481.067, 347.911 L 536.889, 371.2 L 536.178, 372.089 L 521.956, 392 L 505.956, 385.244 L 492.267, 379.733 L 465.956, 368.711 z "/>
<path style="fill:rgb(255, 0, 0);fill-opacity:0;fill-rule:evenodd;stroke:rgb(0, 251, 255);stroke-width:1;" d="M 31.1111, 273.778 L 41.0667, 251.911 L 52.8, 255.111 L 70.2222, 259.733 L 98.3111, 267.022 L 89.7778, 290.311 L 38.2222, 276.8 L 38.7556, 275.733 L 31.1111, 273.778 z "/>
<path style="fill:rgb(0, 255, 0);fill-opacity:0;fill-rule:evenodd;stroke:rgb(0, 251, 255);stroke-width:1;" d="M 139.911, 599.111 L 156.978, 553.067 L 168.356, 556.089 L 156.444, 590.578 L 218.311, 608.889 L 212.444, 620.267 L 139.911, 599.111 z "/>
<path style="fill:rgb(0, 0, 255);fill-opacity:0;fill-rule:evenodd;stroke:rgb(0, 251, 255);stroke-width:1;" d="M 647.644, 443.378 L 658.844, 424.356 L 665.956, 427.911 L 669.156, 423.467 L 667.911, 422.933 L 676.622, 410.844 L 675.378, 408 L 680.178, 401.244 L 699.022, 409.067 L 694.222, 415.822 L 689.956, 416.356 L 682.133, 427.378 L 684.622, 428.444 L 679.644, 435.378 L 683.378, 436.8 L 683.911, 439.289 L 694.4, 445.511 L 697.778, 445.156 L 702.222, 447.111 L 697.956, 452.978 L 695.289, 450.489 L 693.867, 452.444 L 695.467, 453.156 L 689.956, 460.8 L 647.644, 443.378 z "/>
<path style="fill:rgb(255, 255, 0);fill-opacity:0;fill-rule:evenodd;stroke:rgb(0, 251, 255);stroke-width:1;" d="M 623.111, 152.889 L 635.733, 135.644 L 649.778, 141.511 L 647.822, 144 L 650.311, 145.067 L 650.844, 144.356 L 685.867, 159.111 L 684.622, 160.533 L 686.756, 161.422 L 689.067, 158.222 L 691.2, 159.111 L 699.911, 162.667 L 689.956, 176.356 L 681.6, 172.8 L 680.178, 174.756 L 669.333, 170.133 L 664.711, 176.356 L 644.978, 168 L 648.356, 163.556 L 623.111, 152.889 z "/>
<path style="fill:rgb(255, 0, 0);fill-opacity:0;fill-rule:evenodd;stroke:rgb(0, 251, 255);stroke-width:1;" d="M 798.044, 478.222 L 805.511, 467.911 L 801.422, 466.311 L 808.711, 456 L 862.578, 478.4 L 847.822, 499.022 L 806.756, 481.956 L 798.044, 478.222 z "/>
<path style="fill:rgb(0, 255, 0);fill-opacity:0;fill-rule:evenodd;stroke:rgb(0, 251, 255);stroke-width:1;" d="M 668.444, 211.378 L 675.022, 202.311 L 683.378, 190.933 L 689.6, 182.4 L 692.622, 178.311 L 714.667, 187.556 L 710.222, 193.778 L 722.133, 198.756 L 702.578, 225.778 L 668.444, 211.378 z "/>
<path style="fill:rgb(0, 0, 255);fill-opacity:0;fill-rule:evenodd;stroke:rgb(0, 251, 255);stroke-width:1;" d="M 300.444, 435.911 L 324.444, 403.2 L 357.156, 417.067 L 335.822, 446.756 L 321.067, 442.311 L 300.444, 435.911 z "/>
<path style="fill:rgb(255, 255, 0);fill-opacity:0;fill-rule:evenodd;stroke:rgb(0, 251, 255);stroke-width:1;" d="M 22.5778, 295.467 L 31.8222, 275.022 L 38.2222, 276.8 L 89.7778, 290.311 L 82.1333, 311.111 L 47.1111, 301.867 L 22.5778, 295.467 z "/>
<path style="fill:rgb(255, 0, 0);fill-opacity:0;fill-rule:evenodd;stroke:rgb(0, 251, 255);stroke-width:1;" d="M 681.067, 702.4 L 694.4, 677.333 L 697.778, 678.4 L 699.378, 675.2 L 692.089, 672.889 L 697.778, 662.044 L 698.311, 660.8 L 727.289, 669.689 L 711.467, 711.644 L 681.067, 702.4 z "/>
<path style="fill:rgb(0, 255, 0);fill-opacity:0;fill-rule:evenodd;stroke:rgb(0, 251, 255);stroke-width:1;" d="M 102.933, 78.4 L 111.822, 68.0889 L 108.267, 66.3111 L 114.844, 58.8444 L 116.622, 56.5333 L 123.733, 60.0889 L 133.333, 64.8889 L 166.933, 81.4222 L 159.289, 102.222 L 115.733, 80.7111 L 113.422, 83.5556 L 102.933, 78.4 z "/>
<path style="fill:rgb(0, 0, 255);fill-opacity:0;fill-rule:evenodd;stroke:rgb(0, 251, 255);stroke-width:1;" d="M 484.8, 342.578 L 497.778, 324.444 L 553.956, 347.733 L 548.267, 355.733 L 540.978, 365.867 L 484.8, 342.578 z "/>
<path style="fill:rgb(255, 255, 0);fill-opacity:0;fill-rule:evenodd;stroke:rgb(0, 251, 255);stroke-width:1;" d="M 321.6, 282.133 L 327.289, 274.489 L 335.289, 277.867 L 339.911, 271.644 L 328.356, 266.844 L 336.178, 256.356 L 380.622, 275.378 L 372.8, 285.867 L 361.6, 281.067 L 356.978, 287.289 L 364.622, 290.667 L 355.022, 303.644 L 321.6, 282.133 z "/>
<path style="fill:rgb(255, 0, 0);fill-opacity:0;fill-rule:evenodd;stroke:rgb(0, 251, 255);stroke-width:1;" d="M 219.733, 324.622 L 225.778, 313.6 L 233.778, 299.2 L 235.378, 296.178 L 269.867, 306.489 L 254.222, 339.378 L 219.733, 324.622 z "/>
<path style="fill:rgb(0, 255, 0);fill-opacity:0;fill-rule:evenodd;stroke:rgb(0, 251, 255);stroke-width:1;" d="M 27.3778, 85.1556 L 27.5556, 84.8 L 53.3333, 55.1111 L 81.6, 69.1556 L 55.8222, 99.2 L 27.3778, 85.1556 z "/>
<path style="fill:rgb(0, 0, 255);fill-opacity:0;fill-rule:evenodd;stroke:rgb(0, 251, 255);stroke-width:1;" d="M 459.733, 426.489 L 480.533, 397.511 L 493.333, 402.844 L 507.556, 412.267 L 507.556, 412.089 L 511.111, 414.4 L 506.844, 420.444 L 492.622, 440.178 L 459.733, 426.489 z "/>
<path style="fill:rgb(255, 255, 0);fill-opacity:0;fill-rule:evenodd;stroke:rgb(0, 251, 255);stroke-width:1;" d="M 900.444, 759.467 L 908.978, 742.756 L 969.244, 760.533 L 960.711, 777.244 L 952.533, 774.933 L 900.444, 759.467 z "/>
<path style="fill:rgb(255, 0, 0);fill-opacity:0;fill-rule:evenodd;stroke:rgb(0, 251, 255);stroke-width:1;" d="M 762.667, 528.533 L 764.8, 525.511 L 763.2, 524.978 L 781.689, 499.2 L 832.533, 520.356 L 821.333, 536 L 820.267, 535.644 L 799.111, 526.756 L 778.133, 518.044 L 768.711, 531.2 L 762.667, 528.533 z "/>
<path style="fill:rgb(0, 255, 0);fill-opacity:0;fill-rule:evenodd;stroke:rgb(0, 251, 255);stroke-width:1;" d="M 730.489, 459.2 L 734.044, 454.044 L 750.756, 430.578 L 779.022, 442.311 L 758.222, 471.467 L 754.489, 476.622 L 747.022, 472.711 L 749.511, 469.156 L 730.489, 459.2 z "/>
<path style="fill:rgb(0, 0, 255);fill-opacity:0;fill-rule:evenodd;stroke:rgb(0, 251, 255);stroke-width:1;" d="M 55.8222, 99.2 L 81.6, 69.1556 L 93.5111, 55.1111 L 97.7778, 50.3111 L 112, 57.4222 L 94.9333, 77.5111 L 97.4222, 78.7556 L 72.7111, 107.556 L 55.8222, 99.2 z "/>
<path style="fill:rgb(255, 255, 0);fill-opacity:0;fill-rule:evenodd;stroke:rgb(0, 251, 255);stroke-width:1;" d="M 840.889, 281.778 L 865.244, 248.178 L 869.511, 242.311 L 880.533, 246.933 L 878.933, 249.422 L 877.156, 248.533 L 869.156, 259.378 L 888.178, 267.378 L 868.978, 293.689 L 858.133, 289.067 L 860.8, 285.511 L 854.4, 282.667 L 851.733, 286.222 L 840.889, 281.778 z "/>
<path style="fill:rgb(255, 0, 0);fill-opacity:0;fill-rule:evenodd;stroke:rgb(0, 251, 255);stroke-width:1;" d="M 743.822, 314.311 L 744.178, 313.956 L 758.756, 293.511 L 765.156, 284.444 L 793.6, 296.178 L 772.267, 326.044 L 743.822, 314.311 z "/>
<path style="fill:rgb(0, 255, 0);fill-opacity:0;fill-rule:evenodd;stroke:rgb(0, 251, 255);stroke-width:1;" d="M 347.911, 359.111 L 363.911, 337.778 L 402.489, 354.311 L 386.667, 375.644 L 347.911, 359.111 z "/>
<path style="fill:rgb(0, 0, 255);fill-opacity:0;fill-rule:evenodd;stroke:rgb(0, 251, 255);stroke-width:1;" d="M 656.889, 509.333 L 660.8, 504 L 662.578, 504.889 L 668.089, 497.067 L 667.378, 494.933 L 683.2, 472.711 L 686.756, 472.178 L 692.8, 463.822 L 692.267, 461.689 L 698.489, 452.978 L 713.244, 460.089 L 712.178, 461.511 L 720.356, 464.889 L 718.756, 467.2 L 720.356, 467.911 L 714.844, 475.733 L 701.689, 470.222 L 696.356, 477.689 L 697.244, 478.222 L 692.267, 484.978 L 690.133, 483.911 L 684.622, 491.733 L 686.756, 492.622 L 681.067, 500.622 L 678.756, 501.511 L 673.244, 509.156 L 674.489, 509.689 L 670.756, 515.022 L 656.889, 509.333 z "/>
<path style="fill:rgb(255, 255, 0);fill-opacity:0;fill-rule:evenodd;stroke:rgb(0, 251, 255);stroke-width:1;" d="M 699.733, 527.289 L 732.978, 480.356 L 740.444, 469.867 L 753.956, 477.156 L 714.133, 533.156 L 699.733, 527.289 z "/>
<path style="fill:rgb(255, 0, 0);fill-opacity:0;fill-rule:evenodd;stroke:rgb(0, 251, 255);stroke-width:1;" d="M 513.6, 723.733 L 525.156, 701.333 L 539.733, 705.6 L 537.6, 709.867 L 538.311, 711.644 L 544.889, 713.6 L 544.533, 714.311 L 558.756, 718.4 L 560, 717.333 L 562.489, 712.356 L 563.2, 712.533 L 576.889, 716.622 L 565.333, 739.2 L 552.356, 735.467 L 550.4, 734.933 L 553.422, 729.067 L 531.2, 722.489 L 529.6, 723.911 L 527.467, 727.822 L 513.6, 723.733 z "/>
<path style="fill:rgb(0, 255, 0);fill-opacity:0;fill-rule:evenodd;stroke:rgb(0, 251, 255);stroke-width:1;" d="M 908.978, 742.756 L 916.444, 727.822 L 976.889, 745.6 L 969.244, 760.533 L 908.978, 742.756 z "/>
<path style="fill:rgb(0, 0, 255);fill-opacity:0;fill-rule:evenodd;stroke:rgb(0, 251, 255);stroke-width:1;" d="M 803.911, 206.933 L 811.2, 196.8 L 815.467, 198.578 L 819.022, 198.933 L 828.622, 185.6 L 829.156, 184.889 L 827.022, 182.756 L 822.756, 180.978 L 829.333, 171.911 L 857.422, 183.644 L 850.667, 192.889 L 845.511, 190.578 L 842.844, 190.756 L 832.711, 204.8 L 834.489, 206.756 L 839.111, 208.711 L 831.822, 218.667 L 803.911, 206.933 z "/>
<path style="fill:rgb(255, 255, 0);fill-opacity:0;fill-rule:evenodd;stroke:rgb(0, 251, 255);stroke-width:1;" d="M 517.867, 298.667 L 531.022, 280.533 L 558.044, 291.733 L 572.444, 297.778 L 559.644, 315.733 L 559.289, 316.089 L 517.867, 298.667 z "/>
<path style="fill:rgb(255, 0, 0);fill-opacity:0;fill-rule:evenodd;stroke:rgb(0, 251, 255);stroke-width:1;" d="M 947.2, 187.2 L 953.422, 178.667 L 958.933, 180.978 L 961.956, 180.978 L 971.733, 167.289 L 971.556, 165.333 L 964.978, 162.489 L 966.933, 160 L 972.8, 151.822 L 1000.71, 163.556 L 999.111, 165.689 L 993.6, 173.511 L 988.089, 171.2 L 985.422, 171.378 L 974.4, 186.489 L 976.178, 187.911 L 981.511, 190.044 L 975.289, 198.933 L 947.2, 187.2 z "/>
<path style="fill:rgb(0, 255, 0);fill-opacity:0;fill-rule:evenodd;stroke:rgb(0, 251, 255);stroke-width:1;" d="M 513.244, 118.578 L 525.156, 101.867 L 555.733, 114.489 L 559.822, 114.667 L 561.778, 112 L 575.111, 117.689 L 560.356, 138.311 L 546.844, 132.622 L 549.511, 129.067 L 547.556, 125.867 L 531.022, 118.933 L 528.889, 120 L 526.222, 123.911 L 513.244, 118.578 z "/>
<path style="fill:rgb(0, 0, 255);fill-opacity:0;fill-rule:evenodd;stroke:rgb(0, 251, 255);stroke-width:1;" d="M 714.133, 533.156 L 753.956, 477.156 L 766.222, 483.911 L 731.022, 533.333 L 727.289, 538.667 L 714.133, 533.156 z "/>
<path style="fill:rgb(255, 255, 0);fill-opacity:0;fill-rule:evenodd;stroke:rgb(0, 251, 255);stroke-width:1;" d="M 399.644, 461.156 L 414.4, 440.889 L 448.356, 455.289 L 441.956, 464 L 436.622, 461.689 L 433.956, 465.422 L 436.8, 466.667 L 427.022, 480 L 417.067, 473.067 L 419.2, 470.222 L 412.444, 467.378 L 411.378, 468.8 L 399.644, 461.156 z "/>
<path style="fill:rgb(255, 0, 0);fill-opacity:0;fill-rule:evenodd;stroke:rgb(0, 251, 255);stroke-width:1;" d="M 727.467, 235.2 L 733.333, 227.2 L 737.067, 226.667 L 743.822, 217.244 L 748.089, 219.022 L 750.222, 216.178 L 745.956, 214.4 L 749.156, 209.956 L 747.378, 207.822 L 752.889, 200.533 L 775.644, 210.133 L 770.667, 217.067 L 770.311, 217.422 L 767.644, 217.778 L 764.444, 222.222 L 761.956, 221.156 L 759.822, 224 L 764.267, 225.778 L 750.4, 244.978 L 727.467, 235.2 z "/>
<path style="fill:rgb(0, 255, 0);fill-opacity:0;fill-rule:evenodd;stroke:rgb(0, 251, 255);stroke-width:1;" d="M 572.622, 659.022 L 577.6, 649.244 L 589.156, 652.8 L 590.933, 649.244 L 588.978, 648.711 L 590.933, 644.8 L 592.889, 645.511 L 595.022, 641.422 L 583.467, 638.044 L 588.622, 627.911 L 618.667, 636.8 L 602.667, 668.089 L 572.622, 659.022 z "/>
<path style="fill:rgb(0, 0, 255);fill-opacity:0;fill-rule:evenodd;stroke:rgb(0, 251, 255);stroke-width:1;" d="M 304.533, 745.422 L 313.778, 727.467 L 321.244, 729.778 L 321.778, 728.711 L 347.733, 736.356 L 347.2, 737.6 L 355.2, 739.911 L 345.956, 757.689 L 335.822, 754.844 L 335.289, 756.089 L 313.778, 749.689 L 314.311, 748.444 L 304.533, 745.422 z "/>
<path style="fill:rgb(255, 255, 0);fill-opacity:0;fill-rule:evenodd;stroke:rgb(0, 251, 255);stroke-width:1;" d="M 877.511, 557.867 L 891.022, 539.378 L 905.422, 545.422 L 902.578, 549.511 L 904.356, 550.933 L 906.133, 551.822 L 907.2, 550.4 L 916.089, 554.133 L 916.444, 553.6 L 938.133, 562.667 L 926.578, 578.489 L 918.933, 575.289 L 911.111, 572.089 L 915.2, 566.4 L 898.133, 559.111 L 895.467, 561.422 L 893.156, 564.444 L 877.511, 557.867 z "/>
<path style="fill:rgb(255, 0, 0);fill-opacity:0;fill-rule:evenodd;stroke:rgb(0, 251, 255);stroke-width:1;" d="M 611.911, 269.156 L 618.844, 259.2 L 623.467, 261.156 L 625.244, 258.667 L 623.111, 257.778 L 632.356, 244.622 L 634.311, 245.333 L 635.733, 243.378 L 631.467, 241.6 L 638.4, 231.822 L 659.378, 240.533 L 652.444, 250.133 L 648.533, 248.533 L 646.578, 251.2 L 648.356, 251.733 L 639.289, 264.356 L 637.689, 263.644 L 635.911, 266.311 L 639.822, 267.911 L 636.622, 272.356 L 632.889, 277.689 L 611.911, 269.156 z "/>
<path style="fill:rgb(0, 255, 0);fill-opacity:0;fill-rule:evenodd;stroke:rgb(0, 251, 255);stroke-width:1;" d="M 910.756, 312.711 L 917.156, 303.644 L 919.644, 303.289 L 924.089, 297.244 L 931.2, 300.267 L 965.156, 314.667 L 960.711, 320.711 L 961.6, 322.489 L 955.022, 331.378 L 910.756, 312.711 z M 944.533, 316.089 L 951.644, 319.289 L 953.244, 317.333 L 945.956, 314.133 L 944.533, 316.089 z M 925.156, 307.733 L 931.556, 310.756 L 932.978, 308.978 L 926.4, 305.956 L 925.156, 307.733 z "/>
<path style="fill:rgb(0, 0, 255);fill-opacity:0;fill-rule:evenodd;stroke:rgb(0, 251, 255);stroke-width:1;" d="M 32.3556, 168 L 40.5333, 158.4 L 55.8222, 140.622 L 79.4667, 152.356 L 59.0222, 176.178 L 32.3556, 168 z "/>
<path style="fill:rgb(255, 255, 0);fill-opacity:0;fill-rule:evenodd;stroke:rgb(0, 251, 255);stroke-width:1;" d="M 104.533, 93.6889 L 111.467, 85.6889 L 113.422, 83.5556 L 115.733, 80.7111 L 159.289, 102.222 L 153.6, 118.044 L 104.533, 93.6889 z "/>
<path style="fill:rgb(255, 0, 0);fill-opacity:0;fill-rule:evenodd;stroke:rgb(0, 251, 255);stroke-width:1;" d="M 783.111, 198.222 L 790.222, 188.444 L 792.356, 187.556 L 795.733, 183.111 L 800.356, 185.067 L 802.844, 181.511 L 798.4, 179.556 L 801.778, 174.933 L 800.889, 173.867 L 808.711, 163.2 L 829.333, 171.911 L 822.756, 180.978 L 821.689, 182.578 L 819.556, 182.578 L 816.178, 187.2 L 811.556, 185.067 L 808.889, 188.8 L 813.689, 190.756 L 810.311, 195.2 L 811.2, 196.8 L 803.911, 206.933 L 783.111, 198.222 z "/>
<path style="fill:rgb(0, 255, 0);fill-opacity:0;fill-rule:evenodd;stroke:rgb(0, 251, 255);stroke-width:1;" d="M 632, 278.756 L 632.889, 277.689 L 636.622, 272.356 L 638.756, 273.244 L 643.733, 266.133 L 646.222, 265.422 L 650.133, 260.089 L 651.733, 260.8 L 652.978, 259.2 L 652.267, 257.244 L 656.178, 251.733 L 652.444, 250.133 L 659.378, 240.533 L 679.289, 248.711 L 675.2, 254.222 L 673.956, 254.756 L 671.822, 257.6 L 668.8, 258.133 L 666.311, 261.689 L 667.378, 263.822 L 664.533, 267.733 L 661.867, 267.911 L 660.444, 269.867 L 659.378, 269.511 L 658.133, 271.289 L 658.844, 273.067 L 653.511, 280.711 L 657.956, 282.489 L 654.756, 287.111 L 654.222, 288 L 632, 278.756 z "/>
<path style="fill:rgb(0, 0, 255);fill-opacity:0;fill-rule:evenodd;stroke:rgb(0, 251, 255);stroke-width:1;" d="M 686.044, 521.6 L 719.289, 474.844 L 732.978, 480.356 L 699.733, 527.289 L 686.044, 521.6 z "/>
<path style="fill:rgb(255, 255, 0);fill-opacity:0;fill-rule:evenodd;stroke:rgb(0, 251, 255);stroke-width:1;" d="M 649.067, 118.4 L 661.689, 101.156 L 703.111, 118.578 L 690.489, 135.822 L 676.8, 129.956 L 680.889, 124.267 L 666.489, 118.044 L 662.222, 123.911 L 651.378, 119.289 L 649.067, 118.4 z "/>
<path style="fill:rgb(255, 0, 0);fill-opacity:0;fill-rule:evenodd;stroke:rgb(0, 251, 255);stroke-width:1;" d="M 209.244, 289.778 L 213.689, 277.333 L 275.378, 295.822 L 269.867, 306.489 L 235.378, 296.178 L 233.778, 299.2 L 220.444, 294.044 L 209.244, 289.778 z "/>
<path style="fill:rgb(0, 255, 0);fill-opacity:0;fill-rule:evenodd;stroke:rgb(0, 251, 255);stroke-width:1;" d="M 86.7556, 114.489 L 95.6444, 104.356 L 148.978, 130.844 L 144.533, 143.111 L 86.7556, 114.489 z "/>
<path style="fill:rgb(0, 0, 255);fill-opacity:0;fill-rule:evenodd;stroke:rgb(0, 251, 255);stroke-width:1;" d="M 727.111, 539.022 L 727.289, 538.667 L 731.022, 533.333 L 733.156, 534.222 L 740.978, 524.444 L 739.378, 522.311 L 745.067, 514.489 L 747.378, 515.556 L 757.333, 501.511 L 755.022, 500.444 L 762.489, 490.311 L 776.356, 496 L 750.933, 531.556 L 748.8, 530.667 L 743.289, 538.489 L 745.422, 539.378 L 741.333, 545.067 L 727.111, 539.022 z "/>
<path style="fill:rgb(255, 255, 0);fill-opacity:0;fill-rule:evenodd;stroke:rgb(0, 251, 255);stroke-width:1;" d="M 905.067, 520.178 L 918.578, 501.689 L 955.911, 517.333 L 948.444, 527.822 L 948.622, 527.822 L 942.756, 536 L 931.022, 531.022 L 935.467, 524.8 L 931.733, 523.2 L 931.2, 524.089 L 921.422, 520 L 918.756, 519.822 L 919.111, 520.711 L 916.089, 524.8 L 905.067, 520.178 z "/>
<path style="fill:rgb(255, 0, 0);fill-opacity:0;fill-rule:evenodd;stroke:rgb(0, 251, 255);stroke-width:1;" d="M 570.489, 542.4 L 573.511, 536.889 L 586.489, 511.822 L 608.533, 521.067 L 594.133, 549.333 L 570.489, 542.4 z "/>
<path style="fill:rgb(0, 255, 0);fill-opacity:0;fill-rule:evenodd;stroke:rgb(0, 251, 255);stroke-width:1;" d="M 70.4, 566.756 L 74.8444, 555.2 L 122.133, 569.067 L 135.289, 572.978 L 130.667, 584.533 L 70.4, 566.756 z "/>
<path style="fill:rgb(0, 0, 255);fill-opacity:0;fill-rule:evenodd;stroke:rgb(0, 251, 255);stroke-width:1;" d="M 66.1333, 578.667 L 70.4, 566.756 L 130.667, 584.533 L 126.044, 596.267 L 123.378, 595.556 L 66.1333, 578.667 z "/>
<path style="fill:rgb(255, 255, 0);fill-opacity:0;fill-rule:evenodd;stroke:rgb(0, 251, 255);stroke-width:1;" d="M 189.156, 242.667 L 194.133, 229.156 L 233.067, 240.711 L 246.222, 244.622 L 239.467, 257.778 L 230.222, 254.933 L 189.156, 242.667 z "/>
<path style="fill:rgb(255, 0, 0);fill-opacity:0;fill-rule:evenodd;stroke:rgb(0, 251, 255);stroke-width:1;" d="M 360, 233.244 L 380.8, 203.556 L 401.244, 211.911 L 393.956, 222.222 L 380.267, 241.422 L 360, 233.244 z "/>
<path style="fill:rgb(0, 255, 0);fill-opacity:0;fill-rule:evenodd;stroke:rgb(0, 251, 255);stroke-width:1;" d="M 841.244, 435.556 L 841.6, 435.022 L 847.289, 427.022 L 857.956, 431.467 L 864.178, 422.756 L 893.867, 435.022 L 881.6, 452.089 L 841.244, 435.556 z "/>
<path style="fill:rgb(0, 0, 255);fill-opacity:0;fill-rule:evenodd;stroke:rgb(0, 251, 255);stroke-width:1;" d="M 95.6444, 104.356 L 104.533, 93.6889 L 153.6, 118.044 L 148.978, 130.844 L 95.6444, 104.356 z "/>
<path style="fill:rgb(255, 255, 0);fill-opacity:0;fill-rule:evenodd;stroke:rgb(0, 251, 255);stroke-width:1;" d="M 137.6, 768.178 L 142.933, 757.867 L 143.289, 756.978 L 163.378, 762.844 L 170.844, 765.156 L 202.667, 774.578 L 196.8, 785.778 L 137.6, 768.178 z "/>
<path style="fill:rgb(255, 0, 0);fill-opacity:0;fill-rule:evenodd;stroke:rgb(0, 251, 255);stroke-width:1;" d="M 898.844, 227.2 L 913.6, 206.933 L 942.4, 219.022 L 935.467, 228.444 L 927.467, 239.467 L 898.844, 227.2 z "/>
<path style="fill:rgb(0, 255, 0);fill-opacity:0;fill-rule:evenodd;stroke:rgb(0, 251, 255);stroke-width:1;" d="M 57.6, 601.244 L 61.8667, 590.044 L 119.289, 606.933 L 123.378, 608.178 L 117.867, 619.022 L 115.378, 618.133 L 67.3778, 604.089 L 57.6, 601.244 z "/>
<path style="fill:rgb(0, 0, 255);fill-opacity:0;fill-rule:evenodd;stroke:rgb(0, 251, 255);stroke-width:1;" d="M 497.422, 754.844 L 503.111, 743.822 L 510.756, 745.956 L 512.356, 742.933 L 525.689, 746.844 L 523.556, 750.933 L 524.8, 753.6 L 538.133, 757.511 L 541.333, 751.467 L 556.8, 756.089 L 548.089, 772.978 L 535.111, 769.067 L 536.178, 767.111 L 534.933, 766.044 L 497.422, 754.844 z "/>
<path style="fill:rgb(255, 255, 0);fill-opacity:0;fill-rule:evenodd;stroke:rgb(0, 251, 255);stroke-width:1;" d="M 706.844, 309.511 L 724.622, 284.444 L 725.689, 284.8 L 727.111, 283.022 L 725.689, 281.422 L 722.667, 280.178 L 729.778, 270.044 L 750.578, 278.578 L 744.178, 287.467 L 743.289, 288.711 L 740.267, 287.467 L 738.133, 287.644 L 736.889, 289.422 L 738.489, 289.956 L 720.533, 315.022 L 706.844, 309.511 z "/>
<path style="fill:rgb(255, 0, 0);fill-opacity:0;fill-rule:evenodd;stroke:rgb(0, 251, 255);stroke-width:1;" d="M 828.089, 223.822 L 831.822, 218.667 L 839.111, 208.711 L 850.667, 192.889 L 857.422, 183.644 L 871.822, 189.689 L 842.489, 229.867 L 828.089, 223.822 z "/>
<path style="fill:rgb(0, 255, 0);fill-opacity:0;fill-rule:evenodd;stroke:rgb(0, 251, 255);stroke-width:1;" d="M 506.489, 737.422 L 512, 726.578 L 547.733, 737.244 L 548.089, 738.489 L 550.933, 738.311 L 552.356, 735.467 L 565.333, 739.2 L 556.8, 756.089 L 541.333, 751.467 L 544.178, 745.956 L 530.844, 741.867 L 528, 742.578 L 525.689, 746.844 L 512.356, 742.933 L 513.956, 739.733 L 506.489, 737.422 z "/>
<path style="fill:rgb(0, 0, 255);fill-opacity:0;fill-rule:evenodd;stroke:rgb(0, 251, 255);stroke-width:1;" d="M 932.978, 282.133 L 940.622, 271.644 L 946.844, 274.311 L 995.733, 294.933 L 988.267, 305.422 L 932.978, 282.133 z "/>
<path style="fill:rgb(255, 255, 0);fill-opacity:0;fill-rule:evenodd;stroke:rgb(0, 251, 255);stroke-width:1;" d="M 526.578, 698.844 L 532.444, 687.467 L 566.756, 697.778 L 566.222, 698.667 L 568.711, 699.556 L 570.489, 698.489 L 571.733, 695.822 L 585.6, 699.911 L 576.889, 716.622 L 563.2, 712.533 L 564.622, 710.044 L 564.267, 708.267 L 561.6, 707.556 L 560.889, 708.978 L 526.578, 698.844 z "/>
<path style="fill:rgb(255, 0, 0);fill-opacity:0;fill-rule:evenodd;stroke:rgb(0, 251, 255);stroke-width:1;" d="M 777.6, 497.6 L 785.067, 487.111 L 798.933, 492.8 L 840, 509.867 L 832.533, 520.356 L 781.689, 499.2 L 777.6, 497.6 z "/>
<path style="fill:rgb(0, 255, 0);fill-opacity:0;fill-rule:evenodd;stroke:rgb(0, 251, 255);stroke-width:1;" d="M 856.178, 235.733 L 885.333, 195.556 L 885.689, 195.2 L 899.733, 201.067 L 877.867, 230.933 L 870.044, 241.6 L 856.178, 235.733 z "/>
<path style="fill:rgb(0, 0, 255);fill-opacity:0;fill-rule:evenodd;stroke:rgb(0, 251, 255);stroke-width:1;" d="M 667.2, 726.578 L 676.267, 709.867 L 697.956, 716.622 L 699.733, 713.244 L 709.689, 716.444 L 700.978, 740.8 L 688.711, 736.711 L 690.311, 733.867 L 667.2, 726.578 z "/>
<path style="fill:rgb(255, 255, 0);fill-opacity:0;fill-rule:evenodd;stroke:rgb(0, 251, 255);stroke-width:1;" d="M 519.111, 94.4 L 526.4, 84.2667 L 563.556, 99.7333 L 582.4, 107.378 L 575.111, 117.689 L 561.778, 112 L 519.111, 94.4 z "/>
<path style="fill:rgb(255, 0, 0);fill-opacity:0;fill-rule:evenodd;stroke:rgb(0, 251, 255);stroke-width:1;" d="M 535.289, 681.422 L 540.978, 670.4 L 561.422, 676.622 L 561.244, 676.978 L 574.933, 681.067 L 574.4, 682.133 L 576.533, 682.844 L 579.022, 681.956 L 580.444, 679.111 L 594.133, 683.2 L 585.6, 699.911 L 571.733, 695.822 L 573.156, 693.333 L 572.089, 691.556 L 569.956, 690.844 L 569.6, 691.556 L 535.289, 681.422 z "/>
<path style="fill:rgb(0, 255, 0);fill-opacity:0;fill-rule:evenodd;stroke:rgb(0, 251, 255);stroke-width:1;" d="M 427.022, 260.622 L 432.711, 252.444 L 437.156, 254.4 L 438.4, 252.622 L 435.911, 251.733 L 439.289, 247.111 L 441.956, 248.178 L 446.578, 241.6 L 441.778, 239.644 L 447.644, 231.111 L 470.756, 240.533 L 466.489, 246.578 L 464.889, 249.067 L 460.089, 247.111 L 451.022, 259.911 L 455.822, 261.867 L 450.133, 270.044 L 427.022, 260.622 z "/>
<path style="fill:rgb(0, 0, 255);fill-opacity:0;fill-rule:evenodd;stroke:rgb(0, 251, 255);stroke-width:1;" d="M 49.2444, 623.467 L 53.3333, 612.622 L 62.5778, 615.289 L 109.689, 629.333 L 114.667, 630.756 L 109.689, 640.356 L 103.467, 638.578 L 102.933, 639.289 L 80.3556, 632.711 L 49.2444, 623.467 z "/>
<path style="fill:rgb(255, 255, 0);fill-opacity:0;fill-rule:evenodd;stroke:rgb(0, 251, 255);stroke-width:1;" d="M 680.533, 74.8444 L 687.644, 64.8889 L 706.133, 72.5333 L 717.156, 77.1556 L 735.822, 84.9778 L 743.467, 88.3556 L 736.356, 98.3111 L 680.533, 74.8444 z "/>
<path style="fill:rgb(255, 0, 0);fill-opacity:0;fill-rule:evenodd;stroke:rgb(0, 251, 255);stroke-width:1;" d="M 925.689, 292.089 L 932.267, 283.2 L 932.978, 282.133 L 988.267, 305.422 L 980.8, 315.378 L 970.667, 311.111 L 925.689, 292.089 z "/>
<path style="fill:rgb(0, 255, 0);fill-opacity:0;fill-rule:evenodd;stroke:rgb(0, 251, 255);stroke-width:1;" d="M 61.8667, 590.044 L 66.1333, 578.667 L 123.378, 595.556 L 119.289, 606.933 L 61.8667, 590.044 z "/>
<path style="fill:rgb(0, 0, 255);fill-opacity:0;fill-rule:evenodd;stroke:rgb(0, 251, 255);stroke-width:1;" d="M 53.3333, 612.622 L 53.5111, 612.089 L 57.4222, 601.778 L 57.6, 601.244 L 67.3778, 604.089 L 115.378, 618.133 L 109.689, 629.333 L 62.5778, 615.289 L 53.3333, 612.622 z "/>
<path style="fill:rgb(255, 255, 0);fill-opacity:0;fill-rule:evenodd;stroke:rgb(0, 251, 255);stroke-width:1;" d="M 369.067, 311.467 L 377.244, 300.444 L 425.422, 321.067 L 426.844, 321.6 L 418.489, 332.622 L 374.222, 313.6 L 369.067, 311.467 z "/>
<path style="fill:rgb(255, 0, 0);fill-opacity:0;fill-rule:evenodd;stroke:rgb(0, 251, 255);stroke-width:1;" d="M 842.489, 229.867 L 871.822, 189.689 L 885.333, 195.556 L 856.178, 235.733 L 842.489, 229.867 z "/>
<path style="fill:rgb(0, 255, 0);fill-opacity:0;fill-rule:evenodd;stroke:rgb(0, 251, 255);stroke-width:1;" d="M 695.289, 54.4 L 702.756, 44.0889 L 704.711, 44.9778 L 738.844, 59.2 L 756.267, 66.4889 L 748.8, 76.8 L 743.467, 74.4889 L 695.289, 54.4 z "/>
<path style="fill:rgb(0, 0, 255);fill-opacity:0;fill-rule:evenodd;stroke:rgb(0, 251, 255);stroke-width:1;" d="M 465.6, 67.0222 L 490.844, 31.6444 L 492.089, 29.8667 L 506.667, 35.9111 L 489.778, 59.3778 L 480, 73.0667 L 465.6, 67.0222 z "/>
<path style="fill:rgb(255, 255, 0);fill-opacity:0;fill-rule:evenodd;stroke:rgb(0, 251, 255);stroke-width:1;" d="M 630.222, 680.356 L 647.822, 646.933 L 665.244, 652.267 L 647.644, 685.689 L 630.222, 680.356 z "/>
<path style="fill:rgb(255, 0, 0);fill-opacity:0;fill-rule:evenodd;stroke:rgb(0, 251, 255);stroke-width:1;" d="M 647.644, 685.689 L 665.244, 652.267 L 682.489, 657.422 L 664.889, 690.844 L 647.644, 685.689 z "/>
<path style="fill:rgb(0, 255, 0);fill-opacity:0;fill-rule:evenodd;stroke:rgb(0, 251, 255);stroke-width:1;" d="M 836.267, 749.333 L 837.156, 747.733 L 840.889, 740.267 L 843.733, 734.578 L 846.933, 735.644 L 848.178, 732.978 L 850.489, 733.511 L 851.378, 731.556 L 846.044, 729.956 L 852.089, 718.044 L 856.356, 709.867 L 872.178, 714.489 L 867.2, 724.444 L 862.044, 734.578 L 856.356, 732.978 L 854.044, 737.6 L 859.733, 739.378 L 855.644, 747.2 L 852.267, 754.133 L 836.267, 749.333 z "/>
<path style="fill:rgb(0, 0, 255);fill-opacity:0;fill-rule:evenodd;stroke:rgb(0, 251, 255);stroke-width:1;" d="M 654.756, 287.111 L 657.956, 282.489 L 663.111, 275.378 L 662.222, 273.778 L 665.067, 269.689 L 668.267, 270.933 L 670.578, 267.733 L 666.489, 265.956 L 670.222, 260.8 L 673.067, 262.044 L 677.867, 255.289 L 675.2, 254.222 L 679.289, 248.711 L 696, 255.467 L 691.911, 261.156 L 690.311, 260.444 L 685.156, 267.556 L 683.733, 267.911 L 678.044, 276.089 L 678.4, 277.156 L 673.244, 284.444 L 673.956, 286.222 L 670.4, 291.378 L 669.156, 292.978 L 654.756, 287.111 z "/>
<path style="fill:rgb(255, 255, 0);fill-opacity:0;fill-rule:evenodd;stroke:rgb(0, 251, 255);stroke-width:1;" d="M 492.444, 136.178 L 499.911, 126.044 L 512.356, 131.2 L 513.244, 133.333 L 537.956, 143.644 L 540.8, 142.933 L 553.244, 148.089 L 545.956, 158.4 L 492.444, 136.178 z "/>
<path style="fill:rgb(255, 0, 0);fill-opacity:0;fill-rule:evenodd;stroke:rgb(0, 251, 255);stroke-width:1;" d="M 78.9333, 543.467 L 83.0222, 532.622 L 138.133, 548.8 L 132.8, 559.289 L 128, 557.867 L 78.9333, 543.467 z "/>
<path style="fill:rgb(0, 255, 0);fill-opacity:0;fill-rule:evenodd;stroke:rgb(0, 251, 255);stroke-width:1;" d="M 252.444, 122.311 L 262.933, 108.8 L 278.222, 115.378 L 286.222, 104.533 L 299.2, 110.044 L 283.2, 132.089 L 252.444, 122.311 z "/>
<path style="fill:rgb(0, 0, 255);fill-opacity:0;fill-rule:evenodd;stroke:rgb(0, 251, 255);stroke-width:1;" d="M 481.067, 635.2 L 498.667, 600.889 L 515.2, 605.867 L 502.756, 629.867 L 497.6, 640 L 481.067, 635.2 z "/>
<path style="fill:rgb(255, 255, 0);fill-opacity:0;fill-rule:evenodd;stroke:rgb(0, 251, 255);stroke-width:1;" d="M 850.844, 756.622 L 852.267, 754.133 L 855.644, 747.2 L 858.133, 745.6 L 861.867, 738.133 L 863.289, 738.667 L 865.244, 734.933 L 863.644, 734.578 L 867.378, 727.289 L 867.2, 724.444 L 872.178, 714.489 L 886.4, 718.578 L 865.067, 760.889 L 850.844, 756.622 z "/>
<path style="fill:rgb(255, 0, 0);fill-opacity:0;fill-rule:evenodd;stroke:rgb(0, 251, 255);stroke-width:1;" d="M 435.911, 215.289 L 442.489, 205.867 L 460.444, 213.156 L 496, 227.556 L 489.244, 236.978 L 435.911, 215.289 z "/>
<path style="fill:rgb(0, 255, 0);fill-opacity:0;fill-rule:evenodd;stroke:rgb(0, 251, 255);stroke-width:1;" d="M 763.378, 246.933 L 779.2, 225.244 L 801.956, 234.844 L 789.867, 251.378 L 786.133, 256.533 L 763.378, 246.933 z "/>
<path style="fill:rgb(0, 0, 255);fill-opacity:0;fill-rule:evenodd;stroke:rgb(0, 251, 255);stroke-width:1;" d="M 78.9333, 212.622 L 82.4889, 203.378 L 86.2222, 204.444 L 89.9556, 197.333 L 121.422, 206.756 L 115.911, 223.644 L 78.9333, 212.622 z "/>
<path style="fill:rgb(255, 255, 0);fill-opacity:0;fill-rule:evenodd;stroke:rgb(0, 251, 255);stroke-width:1;" d="M 946.844, 274.311 L 954.133, 264.356 L 967.289, 269.867 L 1003.02, 284.978 L 995.733, 294.933 L 946.844, 274.311 z "/>
<path style="fill:rgb(255, 0, 0);fill-opacity:0;fill-rule:evenodd;stroke:rgb(0, 251, 255);stroke-width:1;" d="M 368.889, 321.067 L 374.222, 313.6 L 418.489, 332.622 L 407.822, 347.2 L 373.689, 324.267 L 368.889, 321.067 z "/>
<path style="fill:rgb(0, 255, 0);fill-opacity:0;fill-rule:evenodd;stroke:rgb(0, 251, 255);stroke-width:1;" d="M 249.6, 103.111 L 257.422, 92.8 L 263.822, 84.0889 L 290.311, 95.4667 L 305.422, 101.867 L 299.2, 110.044 L 286.222, 104.533 L 270.933, 97.9556 L 262.933, 108.8 L 249.6, 103.111 z "/>
<path style="fill:rgb(0, 0, 255);fill-opacity:0;fill-rule:evenodd;stroke:rgb(0, 251, 255);stroke-width:1;" d="M 780.978, 777.956 L 794.133, 742.222 L 796.267, 742.756 L 796.8, 741.867 L 804.8, 744.178 L 804.267, 745.6 L 811.733, 747.733 L 800.356, 770.311 L 794.489, 782.044 L 780.978, 777.956 z "/>
<path style="fill:rgb(255, 255, 0);fill-opacity:0;fill-rule:evenodd;stroke:rgb(0, 251, 255);stroke-width:1;" d="M 767.289, 484.089 L 780.978, 465.244 L 792.356, 449.244 L 805.867, 454.756 L 782.044, 488 L 783.644, 488.711 L 781.333, 491.911 L 767.289, 484.089 z "/>
<path style="fill:rgb(255, 0, 0);fill-opacity:0;fill-rule:evenodd;stroke:rgb(0, 251, 255);stroke-width:1;" d="M 645.333, 504.533 L 648.356, 500.267 L 647.467, 499.911 L 651.022, 495.111 L 672, 465.6 L 684.622, 470.756 L 683.2, 472.711 L 667.378, 494.933 L 660.8, 504 L 656.889, 509.333 L 645.333, 504.533 z "/>
<path style="fill:rgb(0, 255, 0);fill-opacity:0;fill-rule:evenodd;stroke:rgb(0, 251, 255);stroke-width:1;" d="M 74.8444, 555.2 L 78.9333, 543.467 L 128, 557.867 L 122.133, 569.067 L 74.8444, 555.2 z "/>
<path style="fill:rgb(0, 0, 255);fill-opacity:0;fill-rule:evenodd;stroke:rgb(0, 251, 255);stroke-width:1;" d="M 860.622, 581.156 L 870.578, 567.289 L 904.711, 581.689 L 896.178, 593.422 L 894.756, 595.556 L 860.622, 581.156 z "/>
<path style="fill:rgb(255, 255, 0);fill-opacity:0;fill-rule:evenodd;stroke:rgb(0, 251, 255);stroke-width:1;" d="M 581.867, 374.044 L 590.044, 362.667 L 625.422, 377.422 L 624.711, 378.311 L 614.4, 392.711 L 581.867, 374.044 z "/>
<path style="fill:rgb(255, 0, 0);fill-opacity:0;fill-rule:evenodd;stroke:rgb(0, 251, 255);stroke-width:1;" d="M 868.267, 294.756 L 868.978, 293.689 L 888.178, 267.378 L 894.044, 259.378 L 908.267, 265.422 L 904, 271.289 L 901.333, 274.844 L 898.844, 275.2 L 895.822, 279.289 L 893.689, 278.4 L 889.956, 283.556 L 892.089, 284.444 L 889.067, 288.533 L 890.311, 290.133 L 882.489, 300.8 L 868.267, 294.756 z "/>
<path style="fill:rgb(0, 255, 0);fill-opacity:0;fill-rule:evenodd;stroke:rgb(0, 251, 255);stroke-width:1;" d="M 126.578, 46.2222 L 135.111, 36.2667 L 147.911, 42.4889 L 176, 56.5333 L 171.556, 68.6222 L 142.4, 54.0444 L 126.578, 46.2222 z "/>
<path style="fill:rgb(0, 0, 255);fill-opacity:0;fill-rule:evenodd;stroke:rgb(0, 251, 255);stroke-width:1;" d="M 39.8222, 249.6 L 47.2889, 233.244 L 78.5778, 241.6 L 70.2222, 259.733 L 52.8, 255.111 L 53.6889, 253.156 L 39.8222, 249.6 z "/>
<path style="fill:rgb(255, 255, 0);fill-opacity:0;fill-rule:evenodd;stroke:rgb(0, 251, 255);stroke-width:1;" d="M 128.178, 595.556 L 144.711, 549.867 L 156.978, 553.067 L 139.911, 599.111 L 128.178, 595.556 z "/>
<path style="fill:rgb(255, 0, 0);fill-opacity:0;fill-rule:evenodd;stroke:rgb(0, 251, 255);stroke-width:1;" d="M 723.733, 316.444 L 729.6, 307.911 L 732.622, 307.556 L 745.244, 289.956 L 744.178, 287.467 L 750.578, 278.578 L 765.156, 284.444 L 758.756, 293.511 L 756.267, 294.4 L 750.222, 302.933 L 747.2, 301.689 L 744, 306.311 L 747.022, 307.556 L 743.644, 312 L 744.178, 313.956 L 743.822, 314.311 L 738.133, 322.311 L 723.733, 316.444 z "/>
<path style="fill:rgb(0, 255, 0);fill-opacity:0;fill-rule:evenodd;stroke:rgb(0, 251, 255);stroke-width:1;" d="M 447.467, 117.511 L 453.867, 108.622 L 454.578, 107.556 L 456.889, 106.667 L 461.867, 99.9111 L 463.467, 100.622 L 467.2, 95.4667 L 465.422, 94.7556 L 468.267, 90.8444 L 467.733, 89.2444 L 474.311, 80 L 488.533, 85.8667 L 487.822, 87.1111 L 481.956, 95.2889 L 479.467, 95.6444 L 476.622, 99.3778 L 475.022, 98.8444 L 471.289, 104 L 472.889, 104.533 L 468.089, 111.289 L 469.156, 113.244 L 468.089, 114.667 L 461.689, 123.378 L 447.467, 117.511 z "/>
<path style="fill:rgb(0, 0, 255);fill-opacity:0;fill-rule:evenodd;stroke:rgb(0, 251, 255);stroke-width:1;" d="M 90.3111, 758.933 L 95.6444, 748.622 L 97.9556, 747.2 L 104.356, 734.578 L 104, 732.267 L 109.511, 721.422 L 124.622, 725.867 L 118.933, 736.889 L 116.622, 738.311 L 110.222, 750.756 L 110.578, 753.067 L 105.244, 763.378 L 90.3111, 758.933 z "/>
<path style="fill:rgb(255, 255, 0);fill-opacity:0;fill-rule:evenodd;stroke:rgb(0, 251, 255);stroke-width:1;" d="M 75.2, 754.489 L 80.5333, 744.178 L 82.8444, 742.756 L 89.2444, 730.133 L 88.8889, 727.822 L 94.5778, 716.978 L 109.511, 721.422 L 104, 732.267 L 101.511, 733.689 L 95.1111, 746.311 L 95.6444, 748.622 L 90.3111, 758.933 L 75.2, 754.489 z "/>
<path style="fill:rgb(255, 0, 0);fill-opacity:0;fill-rule:evenodd;stroke:rgb(0, 251, 255);stroke-width:1;" d="M 334.4, 69.8667 L 340.622, 61.1556 L 344.178, 59.7333 L 349.333, 52.6222 L 350.578, 53.1556 L 353.6, 49.0667 L 352.356, 48.5333 L 355.022, 44.6222 L 353.956, 42.6667 L 360.711, 33.0667 L 375.111, 39.1111 L 370.133, 46.0444 L 368.356, 48.5333 L 366.578, 49.4222 L 363.911, 53.3333 L 361.067, 52.0889 L 358.044, 56.3556 L 360.889, 57.4222 L 355.733, 64.5333 L 355.022, 67.2 L 348.8, 75.7333 L 334.4, 69.8667 z "/>
<path style="fill:rgb(0, 255, 0);fill-opacity:0;fill-rule:evenodd;stroke:rgb(0, 251, 255);stroke-width:1;" d="M 975.289, 198.933 L 981.511, 190.044 L 993.6, 173.511 L 999.111, 165.689 L 1012.98, 171.556 L 989.156, 204.8 L 975.289, 198.933 z "/>
<path style="fill:rgb(0, 0, 255);fill-opacity:0;fill-rule:evenodd;stroke:rgb(0, 251, 255);stroke-width:1;" d="M 965.333, 561.244 L 981.511, 528 L 999.467, 535.644 L 977.244, 566.222 L 965.333, 561.244 z "/>
<path style="fill:rgb(255, 255, 0);fill-opacity:0;fill-rule:evenodd;stroke:rgb(0, 251, 255);stroke-width:1;" d="M 548.267, 355.733 L 553.956, 347.733 L 590.044, 362.667 L 581.867, 374.044 L 580.444, 373.511 L 577.778, 377.067 L 555.2, 367.822 L 559.289, 362.133 L 548.267, 355.733 z "/>
<path style="fill:rgb(255, 0, 0);fill-opacity:0;fill-rule:evenodd;stroke:rgb(0, 251, 255);stroke-width:1;" d="M 891.022, 539.378 L 898.133, 529.778 L 941.689, 548.089 L 948.8, 551.111 L 942.933, 559.289 L 916.8, 548.267 L 915.733, 549.867 L 905.422, 545.422 L 891.022, 539.378 z "/>
<path style="fill:rgb(0, 255, 0);fill-opacity:0;fill-rule:evenodd;stroke:rgb(0, 251, 255);stroke-width:1;" d="M 62.5778, 615.289 L 62.9333, 614.756 L 64, 614.933 L 68.2667, 604.978 L 67.2, 604.622 L 67.3778, 604.089 L 115.378, 618.133 L 109.689, 629.333 L 62.5778, 615.289 z "/>
<path style="fill:rgb(0, 0, 255);fill-opacity:0;fill-rule:evenodd;stroke:rgb(0, 251, 255);stroke-width:1;" d="M 278.4, 442.667 L 284.444, 431.111 L 298.667, 435.378 L 299.556, 437.333 L 305.422, 439.289 L 304.356, 441.067 L 309.689, 442.667 L 310.578, 440.711 L 318.222, 443.022 L 321.067, 442.311 L 335.822, 446.756 L 328, 457.778 L 313.6, 453.333 L 312.711, 451.556 L 305.956, 449.6 L 306.844, 447.822 L 301.689, 446.222 L 300.8, 448 L 294.756, 446.222 L 292.444, 446.933 L 278.4, 442.667 z "/>
<path style="fill:rgb(255, 255, 0);fill-opacity:0;fill-rule:evenodd;stroke:rgb(0, 251, 255);stroke-width:1;" d="M 32.7111, 311.822 L 37.5111, 301.689 L 46.2222, 304 L 47.1111, 301.867 L 82.1333, 311.111 L 77.5111, 323.733 L 32.7111, 311.822 z "/>
<path style="fill:rgb(255, 0, 0);fill-opacity:0;fill-rule:evenodd;stroke:rgb(0, 251, 255);stroke-width:1;" d="M 664.889, 690.844 L 682.489, 657.422 L 697.778, 662.044 L 692.089, 672.889 L 680.178, 695.467 L 664.889, 690.844 z "/>
<path style="fill:rgb(0, 255, 0);fill-opacity:0;fill-rule:evenodd;stroke:rgb(0, 251, 255);stroke-width:1;" d="M 794.133, 346.844 L 800.711, 337.422 L 803.2, 336.711 L 805.867, 332.978 L 808.178, 334.044 L 811.911, 328.889 L 808, 327.289 L 811.911, 321.956 L 813.511, 322.667 L 818.311, 315.911 L 816.711, 315.2 L 821.333, 308.622 L 835.378, 314.489 L 830.578, 321.067 L 828.267, 320 L 823.467, 326.756 L 825.778, 327.822 L 822.044, 333.156 L 818.133, 331.378 L 814.4, 336.533 L 816.533, 337.422 L 813.867, 341.156 L 814.756, 343.111 L 813.867, 344.533 L 808, 352.533 L 794.133, 346.844 z "/>
<path style="fill:rgb(0, 0, 255);fill-opacity:0;fill-rule:evenodd;stroke:rgb(0, 251, 255);stroke-width:1;" d="M 825.956, 276.978 L 832.178, 268.622 L 836.267, 267.022 L 846.578, 252.8 L 846.578, 248.711 L 851.378, 242.311 L 865.244, 248.178 L 840.889, 281.778 L 840, 282.844 L 825.956, 276.978 z "/>
<path style="fill:rgb(255, 255, 0);fill-opacity:0;fill-rule:evenodd;stroke:rgb(0, 251, 255);stroke-width:1;" d="M 798.933, 492.8 L 806.756, 481.956 L 847.822, 499.022 L 840, 509.867 L 798.933, 492.8 z "/>
<path style="fill:rgb(255, 0, 0);fill-opacity:0;fill-rule:evenodd;stroke:rgb(0, 251, 255);stroke-width:1;" d="M 646.4, 201.956 L 652.978, 193.067 L 657.244, 194.844 L 660.978, 189.511 L 656.711, 187.733 L 657.778, 186.489 L 659.911, 183.467 L 671.111, 188.267 L 678.756, 177.778 L 689.6, 182.4 L 683.378, 190.933 L 678.756, 188.978 L 670.4, 200.356 L 675.022, 202.311 L 668.444, 211.378 L 646.4, 201.956 z "/>
<path style="fill:rgb(0, 255, 0);fill-opacity:0;fill-rule:evenodd;stroke:rgb(0, 251, 255);stroke-width:1;" d="M 704.711, 44.9778 L 712.178, 34.8444 L 760, 54.9333 L 755.022, 61.8667 L 741.156, 56 L 738.844, 59.2 L 704.711, 44.9778 z "/>
<path style="fill:rgb(0, 0, 255);fill-opacity:0;fill-rule:evenodd;stroke:rgb(0, 251, 255);stroke-width:1;" d="M 72.7111, 107.556 L 97.4222, 78.7556 L 111.467, 85.6889 L 104.533, 93.6889 L 95.6444, 104.356 L 86.7556, 114.489 L 72.7111, 107.556 z "/>
<path style="fill:rgb(255, 255, 0);fill-opacity:0;fill-rule:evenodd;stroke:rgb(0, 251, 255);stroke-width:1;" d="M 272.356, 454.044 L 275.378, 448.533 L 278.4, 442.667 L 292.444, 446.933 L 293.511, 448.711 L 298.667, 450.311 L 297.778, 452.267 L 302.933, 453.867 L 303.822, 451.733 L 309.867, 453.689 L 313.6, 453.333 L 328, 457.778 L 320.178, 468.622 L 306.844, 464.711 L 305.956, 462.933 L 299.022, 460.978 L 299.733, 459.556 L 294.756, 457.956 L 294.044, 459.378 L 288.711, 457.778 L 286.4, 458.311 L 272.356, 454.044 z "/>
<path style="fill:rgb(255, 0, 0);fill-opacity:0;fill-rule:evenodd;stroke:rgb(0, 251, 255);stroke-width:1;" d="M 244.444, 89.0667 L 251.733, 69.8667 L 295.644, 87.8222 L 290.311, 95.4667 L 263.822, 84.0889 L 257.422, 92.8 L 244.444, 89.0667 z "/>
<path style="fill:rgb(0, 255, 0);fill-opacity:0;fill-rule:evenodd;stroke:rgb(0, 251, 255);stroke-width:1;" d="M 841.6, 356.089 L 863.111, 326.044 L 877.867, 332.089 L 856.356, 362.133 L 841.6, 356.089 z "/>
<path style="fill:rgb(0, 0, 255);fill-opacity:0;fill-rule:evenodd;stroke:rgb(0, 251, 255);stroke-width:1;" d="M 635.733, 135.644 L 642.311, 126.4 L 645.156, 127.644 L 690.133, 146.667 L 683.378, 155.733 L 649.778, 141.511 L 635.733, 135.644 z "/>
<path style="fill:rgb(255, 255, 0);fill-opacity:0;fill-rule:evenodd;stroke:rgb(0, 251, 255);stroke-width:1;" d="M 218.667, 158.578 L 222.933, 147.2 L 267.911, 165.511 L 260.622, 175.822 L 251.2, 171.911 L 218.667, 158.578 z "/>
<path style="fill:rgb(255, 0, 0);fill-opacity:0;fill-rule:evenodd;stroke:rgb(0, 251, 255);stroke-width:1;" d="M 633.244, 499.556 L 645.511, 478.756 L 646.933, 479.289 L 651.733, 471.289 L 651.2, 468.978 L 652.089, 467.378 L 656.889, 459.2 L 671.111, 465.067 L 664.356, 474.489 L 662.4, 475.733 L 651.733, 490.489 L 648.533, 489.244 L 646.756, 493.333 L 651.022, 495.111 L 647.467, 499.911 L 644.444, 504.178 L 633.244, 499.556 z "/>
<path style="fill:rgb(0, 255, 0);fill-opacity:0;fill-rule:evenodd;stroke:rgb(0, 251, 255);stroke-width:1;" d="M 687.644, 64.8889 L 695.289, 54.4 L 743.467, 74.4889 L 735.822, 84.9778 L 717.156, 77.1556 L 720.711, 72.3556 L 720.711, 70.2222 L 711.822, 66.4889 L 709.689, 67.5556 L 706.133, 72.5333 L 687.644, 64.8889 z "/>
<path style="fill:rgb(0, 0, 255);fill-opacity:0;fill-rule:evenodd;stroke:rgb(0, 251, 255);stroke-width:1;" d="M 578.311, 476.8 L 592.178, 452.444 L 596.622, 444.622 L 611.022, 450.489 L 592.711, 482.667 L 578.311, 476.8 z "/>
<path style="fill:rgb(255, 255, 0);fill-opacity:0;fill-rule:evenodd;stroke:rgb(0, 251, 255);stroke-width:1;" d="M 625.067, 690.133 L 630.222, 680.356 L 647.644, 685.689 L 664.889, 690.844 L 680.178, 695.467 L 675.022, 705.244 L 625.067, 690.133 z "/>
<path style="fill:rgb(255, 0, 0);fill-opacity:0;fill-rule:evenodd;stroke:rgb(0, 251, 255);stroke-width:1;" d="M 714.133, 229.689 L 723.733, 216.533 L 725.156, 217.067 L 730.844, 209.422 L 729.422, 208.889 L 735.644, 200.178 L 739.556, 194.844 L 752.889, 200.533 L 747.378, 207.822 L 742.578, 214.578 L 739.556, 213.333 L 735.111, 219.378 L 738.133, 220.622 L 733.333, 227.2 L 727.467, 235.2 L 714.133, 229.689 z "/>
<path style="fill:rgb(0, 255, 0);fill-opacity:0;fill-rule:evenodd;stroke:rgb(0, 251, 255);stroke-width:1;" d="M 461.689, 123.378 L 468.089, 114.667 L 470.756, 113.422 L 475.733, 106.489 L 477.867, 107.2 L 481.067, 102.933 L 478.933, 102.044 L 482.133, 97.7778 L 481.244, 96.1778 L 481.956, 95.2889 L 487.822, 87.1111 L 501.867, 92.9778 L 495.467, 102.044 L 492.622, 102.222 L 489.6, 106.489 L 487.644, 105.6 L 484.444, 110.044 L 486.578, 110.933 L 481.422, 117.867 L 482.133, 120.533 L 475.911, 129.244 L 461.689, 123.378 z "/>
<path style="fill:rgb(0, 0, 255);fill-opacity:0;fill-rule:evenodd;stroke:rgb(0, 251, 255);stroke-width:1;" d="M 929.422, 260.622 L 930.133, 259.556 L 935.644, 252.089 L 938.667, 251.556 L 941.333, 247.644 L 943.467, 248.711 L 946.667, 244.267 L 944.533, 243.378 L 949.689, 236.444 L 948.8, 234.133 L 955.733, 224.711 L 969.778, 230.578 L 962.844, 240 L 960, 240.889 L 955.022, 247.822 L 953.067, 246.933 L 949.867, 251.378 L 951.822, 252.089 L 948.978, 256 L 949.689, 257.956 L 943.467, 266.667 L 929.422, 260.622 z "/>
<path style="fill:rgb(255, 255, 0);fill-opacity:0;fill-rule:evenodd;stroke:rgb(0, 251, 255);stroke-width:1;" d="M 264.178, 564.267 L 271.289, 550.933 L 274.667, 544.711 L 299.2, 552.356 L 288.889, 571.733 L 281.422, 569.422 L 264.178, 564.267 z "/>
<path style="fill:rgb(255, 0, 0);fill-opacity:0;fill-rule:evenodd;stroke:rgb(0, 251, 255);stroke-width:1;" d="M 619.378, 493.867 L 638.044, 461.689 L 652.089, 467.378 L 651.2, 468.978 L 645.511, 478.756 L 633.244, 499.556 L 619.378, 493.867 z "/>
<path style="fill:rgb(0, 255, 0);fill-opacity:0;fill-rule:evenodd;stroke:rgb(0, 251, 255);stroke-width:1;" d="M 567.644, 226.667 L 581.333, 207.467 L 604.8, 217.067 L 604.267, 217.778 L 599.289, 224.711 L 596.978, 225.244 L 592.711, 231.467 L 591.289, 231.467 L 588.622, 235.2 L 567.644, 226.667 z "/>
<path style="fill:rgb(0, 0, 255);fill-opacity:0;fill-rule:evenodd;stroke:rgb(0, 251, 255);stroke-width:1;" d="M 896.356, 306.667 L 917.867, 276.978 L 932.267, 283.2 L 925.689, 292.089 L 917.156, 303.644 L 910.756, 312.711 L 896.356, 306.667 z "/>
<path style="fill:rgb(255, 255, 0);fill-opacity:0;fill-rule:evenodd;stroke:rgb(0, 251, 255);stroke-width:1;" d="M 813.867, 344.533 L 814.756, 343.111 L 822.044, 333.156 L 825.778, 327.822 L 830.578, 321.067 L 835.378, 314.489 L 849.422, 320.356 L 827.911, 350.4 L 813.867, 344.533 z "/>
<path style="fill:rgb(255, 0, 0);fill-opacity:0;fill-rule:evenodd;stroke:rgb(0, 251, 255);stroke-width:1;" d="M 70.2222, 259.733 L 78.5778, 241.6 L 105.067, 248.711 L 98.3111, 267.022 L 70.2222, 259.733 z "/>
<path style="fill:rgb(0, 255, 0);fill-opacity:0;fill-rule:evenodd;stroke:rgb(0, 251, 255);stroke-width:1;" d="M 380.267, 241.422 L 393.956, 222.222 L 405.511, 226.844 L 404.444, 228.622 L 415.644, 233.067 L 403.2, 250.844 L 380.267, 241.422 z "/>
<path style="fill:rgb(0, 0, 255);fill-opacity:0;fill-rule:evenodd;stroke:rgb(0, 251, 255);stroke-width:1;" d="M 898.133, 529.778 L 905.067, 520.178 L 916.089, 524.8 L 931.022, 531.022 L 942.756, 536 L 948.622, 538.489 L 941.689, 548.089 L 898.133, 529.778 z "/>
<path style="fill:rgb(255, 255, 0);fill-opacity:0;fill-rule:evenodd;stroke:rgb(0, 251, 255);stroke-width:1;" d="M 877.867, 230.933 L 899.733, 201.067 L 913.6, 206.933 L 898.844, 227.2 L 891.911, 236.8 L 877.867, 230.933 z "/>
<path style="fill:rgb(255, 0, 0);fill-opacity:0;fill-rule:evenodd;stroke:rgb(0, 251, 255);stroke-width:1;" d="M 811.911, 271.111 L 817.6, 263.111 L 820.978, 262.578 L 827.556, 253.511 L 829.333, 254.4 L 831.111, 251.911 L 829.333, 251.2 L 832.533, 246.933 L 831.644, 243.911 L 837.333, 236.267 L 851.378, 242.311 L 846.578, 248.711 L 842.489, 251.022 L 832, 265.244 L 832.178, 268.622 L 825.956, 276.978 L 811.911, 271.111 z "/>
<path style="fill:rgb(0, 255, 0);fill-opacity:0;fill-rule:evenodd;stroke:rgb(0, 251, 255);stroke-width:1;" d="M 469.156, 658.311 L 475.022, 646.933 L 505.778, 656 L 503.111, 660.978 L 506.667, 662.044 L 507.733, 660.089 L 526.4, 665.6 L 523.378, 671.467 L 504.533, 665.956 L 505.6, 664 L 502.222, 663.111 L 499.911, 667.378 L 469.156, 658.311 z "/>
<path style="fill:rgb(0, 0, 255);fill-opacity:0;fill-rule:evenodd;stroke:rgb(0, 251, 255);stroke-width:1;" d="M 605.867, 488.178 L 624.356, 456.356 L 638.044, 461.689 L 619.378, 493.867 L 605.867, 488.178 z "/>
<path style="fill:rgb(255, 255, 0);fill-opacity:0;fill-rule:evenodd;stroke:rgb(0, 251, 255);stroke-width:1;" d="M 505.244, 126.756 L 510.756, 118.933 L 524.978, 124.8 L 524.444, 125.333 L 528, 126.756 L 530.133, 125.689 L 535.111, 127.822 L 534.044, 129.244 L 544.533, 133.689 L 546.844, 132.622 L 560.356, 138.311 L 553.244, 148.089 L 540.8, 142.933 L 539.911, 142.578 L 539.378, 140.978 L 528.889, 136.533 L 528.178, 137.778 L 524.267, 136 L 522.844, 134.044 L 505.244, 126.756 z "/>
<path style="fill:rgb(255, 0, 0);fill-opacity:0;fill-rule:evenodd;stroke:rgb(0, 251, 255);stroke-width:1;" d="M 827.911, 350.4 L 849.422, 320.356 L 863.111, 326.044 L 841.6, 356.089 L 827.911, 350.4 z "/>
<path style="fill:rgb(0, 255, 0);fill-opacity:0;fill-rule:evenodd;stroke:rgb(0, 251, 255);stroke-width:1;" d="M 463.289, 669.689 L 469.156, 658.311 L 499.911, 667.378 L 497.422, 672.356 L 500.444, 673.244 L 501.156, 671.644 L 520.356, 677.333 L 517.511, 682.844 L 498.311, 677.156 L 499.2, 675.556 L 496.178, 674.667 L 494.044, 678.933 L 463.289, 669.689 z "/>
<path style="fill:rgb(0, 0, 255);fill-opacity:0;fill-rule:evenodd;stroke:rgb(0, 251, 255);stroke-width:1;" d="M 376.889, 87.4667 L 396.622, 59.9111 L 411.556, 65.9556 L 391.822, 93.6889 L 376.889, 87.4667 z "/>
<path style="fill:rgb(255, 255, 0);fill-opacity:0;fill-rule:evenodd;stroke:rgb(0, 251, 255);stroke-width:1;" d="M 882.489, 300.8 L 890.311, 290.133 L 901.333, 274.844 L 904, 271.289 L 917.867, 276.978 L 896.356, 306.667 L 882.489, 300.8 z "/>
<path style="fill:rgb(255, 0, 0);fill-opacity:0;fill-rule:evenodd;stroke:rgb(0, 251, 255);stroke-width:1;" d="M 856.356, 362.133 L 877.867, 332.089 L 891.556, 337.6 L 891.2, 338.311 L 884.089, 348.267 L 870.044, 367.822 L 856.356, 362.133 z "/>
<path style="fill:rgb(0, 255, 0);fill-opacity:0;fill-rule:evenodd;stroke:rgb(0, 251, 255);stroke-width:1;" d="M 670.4, 291.378 L 673.956, 286.222 L 674.489, 285.511 L 676.8, 286.578 L 682.133, 278.933 L 680, 278.044 L 686.578, 268.8 L 690.489, 270.4 L 692.8, 267.2 L 688.889, 265.6 L 691.911, 261.156 L 696, 255.467 L 708.8, 260.8 L 701.689, 270.933 L 698.844, 269.689 L 696.533, 272.889 L 699.378, 274.133 L 692.978, 283.2 L 689.956, 282.133 L 686.222, 287.289 L 689.067, 288.533 L 683.2, 296.711 L 670.4, 291.378 z "/>
<path style="fill:rgb(0, 0, 255);fill-opacity:0;fill-rule:evenodd;stroke:rgb(0, 251, 255);stroke-width:1;" d="M 784.178, 259.378 L 786.133, 256.533 L 789.867, 251.378 L 793.067, 250.844 L 799.644, 241.778 L 801.422, 242.489 L 803.022, 240.533 L 801.244, 239.644 L 804.622, 235.022 L 803.911, 232.178 L 809.422, 224.533 L 823.822, 230.756 L 818.311, 238.222 L 814.222, 239.111 L 810.844, 243.733 L 809.422, 243.2 L 804.978, 249.067 L 806.4, 249.778 L 802.667, 254.933 L 804.267, 257.6 L 798.4, 265.422 L 784.178, 259.378 z "/>
<path style="fill:rgb(255, 255, 0);fill-opacity:0;fill-rule:evenodd;stroke:rgb(0, 251, 255);stroke-width:1;" d="M 822.933, 743.644 L 825.6, 738.311 L 827.022, 735.289 L 828.978, 733.867 L 831.289, 729.422 L 833.422, 729.956 L 836.978, 723.2 L 834.667, 722.489 L 838.044, 715.911 L 837.867, 713.956 L 842.133, 705.778 L 856.356, 709.867 L 852.089, 718.044 L 849.6, 719.289 L 845.333, 727.822 L 843.022, 727.111 L 840.533, 732.089 L 842.844, 732.8 L 840.533, 737.244 L 840.889, 740.267 L 837.156, 747.733 L 822.933, 743.644 z "/>
<path style="fill:rgb(255, 0, 0);fill-opacity:0;fill-rule:evenodd;stroke:rgb(0, 251, 255);stroke-width:1;" d="M 916.8, 253.867 L 923.378, 244.978 L 925.867, 244.089 L 928.889, 240 L 930.844, 239.644 L 932.8, 236.8 L 933.867, 235.378 L 933.333, 233.956 L 935.644, 230.578 L 935.467, 228.444 L 942.4, 219.022 L 955.733, 224.711 L 948.8, 234.133 L 945.956, 235.022 L 943.111, 238.756 L 940.8, 237.867 L 937.422, 242.489 L 939.733, 243.556 L 936.178, 248.356 L 936.711, 250.667 L 935.644, 252.089 L 930.133, 259.556 L 916.8, 253.867 z "/>
<path style="fill:rgb(0, 255, 0);fill-opacity:0;fill-rule:evenodd;stroke:rgb(0, 251, 255);stroke-width:1;" d="M 363.911, 337.778 L 373.333, 324.978 L 373.689, 324.267 L 407.822, 347.2 L 402.489, 354.311 L 363.911, 337.778 z "/>
<path style="fill:rgb(0, 0, 255);fill-opacity:0;fill-rule:evenodd;stroke:rgb(0, 251, 255);stroke-width:1;" d="M 977.422, 246.933 L 984.533, 237.156 L 1025.24, 254.4 L 1018.31, 264.178 L 989.867, 252.089 L 977.422, 246.933 z "/>
<path style="fill:rgb(255, 255, 0);fill-opacity:0;fill-rule:evenodd;stroke:rgb(0, 251, 255);stroke-width:1;" d="M 798.4, 265.422 L 804.267, 257.6 L 807.111, 256.711 L 810.844, 251.556 L 811.733, 252.089 L 816.178, 246.044 L 815.289, 245.511 L 818.489, 241.067 L 818.311, 238.222 L 823.822, 230.756 L 837.333, 236.267 L 831.644, 243.911 L 828.444, 245.156 L 825.244, 249.422 L 823.289, 248.711 L 821.511, 251.022 L 823.467, 251.911 L 816.889, 260.978 L 817.6, 263.111 L 811.911, 271.111 L 798.4, 265.422 z "/>
<path style="fill:rgb(255, 0, 0);fill-opacity:0;fill-rule:evenodd;stroke:rgb(0, 251, 255);stroke-width:1;" d="M 670.756, 515.022 L 674.489, 509.689 L 681.067, 500.622 L 686.756, 492.622 L 690.489, 487.289 L 704.889, 493.333 L 684.978, 521.067 L 670.756, 515.022 z "/>
<path style="fill:rgb(0, 255, 0);fill-opacity:0;fill-rule:evenodd;stroke:rgb(0, 251, 255);stroke-width:1;" d="M 143.289, 756.978 L 154.667, 734.756 L 174.756, 740.8 L 171.911, 746.311 L 163.378, 762.844 L 143.289, 756.978 z "/>
<path style="fill:rgb(0, 0, 255);fill-opacity:0;fill-rule:evenodd;stroke:rgb(0, 251, 255);stroke-width:1;" d="M 234.311, 116.622 L 244.444, 89.0667 L 257.422, 92.8 L 249.6, 103.111 L 262.933, 108.8 L 252.444, 122.311 L 234.311, 116.622 z "/>
<path style="fill:rgb(255, 255, 0);fill-opacity:0;fill-rule:evenodd;stroke:rgb(0, 251, 255);stroke-width:1;" d="M 870.578, 567.289 L 877.511, 557.867 L 893.156, 564.444 L 911.111, 572.089 L 918.933, 575.289 L 912, 584.711 L 904.711, 581.689 L 870.578, 567.289 z "/>
<path style="fill:rgb(255, 0, 0);fill-opacity:0;fill-rule:evenodd;stroke:rgb(0, 251, 255);stroke-width:1;" d="M 864.356, 411.556 L 872.178, 400.711 L 908.267, 415.644 L 900.444, 426.667 L 870.044, 414.044 L 864.356, 411.556 z "/>
<path style="fill:rgb(0, 255, 0);fill-opacity:0;fill-rule:evenodd;stroke:rgb(0, 251, 255);stroke-width:1;" d="M 796.8, 741.867 L 802.489, 730.844 L 802.133, 724.089 L 815.289, 697.956 L 826.667, 701.156 L 816.711, 720.711 L 810.133, 733.867 L 804.8, 744.178 L 796.8, 741.867 z "/>
<path style="fill:rgb(0, 0, 255);fill-opacity:0;fill-rule:evenodd;stroke:rgb(0, 251, 255);stroke-width:1;" d="M 616.178, 162.311 L 623.111, 152.889 L 648.356, 163.556 L 644.978, 168 L 664.711, 176.356 L 673.956, 180.267 L 670.222, 185.244 L 654.933, 178.844 L 649.778, 176.533 L 616.178, 162.311 z "/>
<path style="fill:rgb(255, 255, 0);fill-opacity:0;fill-rule:evenodd;stroke:rgb(0, 251, 255);stroke-width:1;" d="M 967.289, 269.867 L 975.111, 259.2 L 982.4, 262.222 L 1010.84, 274.311 L 1003.02, 284.978 L 967.289, 269.867 z "/>
<path style="fill:rgb(255, 0, 0);fill-opacity:0;fill-rule:evenodd;stroke:rgb(0, 251, 255);stroke-width:1;" d="M 760, 552.711 L 767.289, 542.222 L 783.289, 548.978 L 804.444, 557.689 L 796.978, 568.178 L 760, 552.711 z "/>
<path style="fill:rgb(0, 255, 0);fill-opacity:0;fill-rule:evenodd;stroke:rgb(0, 251, 255);stroke-width:1;" d="M 872.178, 400.711 L 879.644, 390.044 L 880.889, 390.578 L 915.911, 404.978 L 908.267, 415.644 L 872.178, 400.711 z "/>
<path style="fill:rgb(0, 0, 255);fill-opacity:0;fill-rule:evenodd;stroke:rgb(0, 251, 255);stroke-width:1;" d="M 645.156, 127.644 L 651.378, 119.289 L 662.222, 123.911 L 676.8, 129.956 L 690.489, 135.822 L 696.178, 138.133 L 690.133, 146.667 L 645.156, 127.644 z "/>
<path style="fill:rgb(255, 255, 0);fill-opacity:0;fill-rule:evenodd;stroke:rgb(0, 251, 255);stroke-width:1;" d="M 433.778, 111.822 L 459.378, 75.9111 L 469.156, 80 L 451.911, 104.178 L 450.133, 103.467 L 448.178, 106.311 L 453.867, 108.622 L 447.467, 117.511 L 433.778, 111.822 z "/>
<path style="fill:rgb(255, 0, 0);fill-opacity:0;fill-rule:evenodd;stroke:rgb(0, 251, 255);stroke-width:1;" d="M 434.311, 479.289 L 451.378, 456.356 L 466.133, 462.578 L 461.156, 472.178 L 458.311, 472.356 L 454.933, 479.822 L 456.533, 480.178 L 453.156, 487.289 L 434.311, 479.289 z "/>
<path style="fill:rgb(0, 255, 0);fill-opacity:0;fill-rule:evenodd;stroke:rgb(0, 251, 255);stroke-width:1;" d="M 222.933, 147.2 L 226.311, 138.133 L 273.6, 157.333 L 271.289, 160.533 L 267.911, 165.511 L 222.933, 147.2 z "/>
<path style="fill:rgb(0, 0, 255);fill-opacity:0;fill-rule:evenodd;stroke:rgb(0, 251, 255);stroke-width:1;" d="M 133.333, 64.8889 L 142.4, 54.0444 L 171.556, 68.6222 L 166.933, 81.4222 L 133.333, 64.8889 z "/>
<path style="fill:rgb(255, 255, 0);fill-opacity:0;fill-rule:evenodd;stroke:rgb(0, 251, 255);stroke-width:1;" d="M 264.533, 192 L 283.2, 165.333 L 297.067, 171.2 L 293.333, 176.533 L 278.4, 197.689 L 264.533, 192 z "/>
<path style="fill:rgb(255, 0, 0);fill-opacity:0;fill-rule:evenodd;stroke:rgb(0, 251, 255);stroke-width:1;" d="M 348.8, 75.7333 L 355.022, 67.2 L 358.4, 65.6 L 361.067, 62.0444 L 362.667, 62.7556 L 366.4, 57.4222 L 363.022, 56 L 368.356, 48.5333 L 370.133, 46.0444 L 384.178, 51.9111 L 377.067, 61.8667 L 373.511, 60.2667 L 369.6, 65.6 L 372.267, 66.6667 L 369.6, 70.2222 L 369.244, 72.7111 L 362.844, 81.6 L 348.8, 75.7333 z "/>
<path style="fill:rgb(0, 255, 0);fill-opacity:0;fill-rule:evenodd;stroke:rgb(0, 251, 255);stroke-width:1;" d="M 892.8, 608.178 L 901.867, 595.733 L 908.978, 585.778 L 924.978, 592.533 L 908.8, 614.933 L 892.8, 608.178 z "/>
<path style="fill:rgb(0, 0, 255);fill-opacity:0;fill-rule:evenodd;stroke:rgb(0, 251, 255);stroke-width:1;" d="M 601.067, 182.933 L 608.889, 172.267 L 642.489, 186.489 L 634.844, 197.156 L 601.067, 182.933 z "/>
<path style="fill:rgb(255, 255, 0);fill-opacity:0;fill-rule:evenodd;stroke:rgb(0, 251, 255);stroke-width:1;" d="M 415.644, 255.822 L 431.111, 233.956 L 437.867, 224.178 L 449.244, 228.8 L 447.644, 231.111 L 441.778, 239.644 L 432.711, 252.444 L 427.022, 260.622 L 415.644, 255.822 z "/>
<path style="fill:rgb(255, 0, 0);fill-opacity:0;fill-rule:evenodd;stroke:rgb(0, 251, 255);stroke-width:1;" d="M 292.978, 204.089 L 293.333, 203.733 L 308.089, 182.578 L 311.467, 177.778 L 324.978, 183.289 L 322.667, 186.667 L 306.489, 209.6 L 292.978, 204.089 z "/>
<path style="fill:rgb(0, 255, 0);fill-opacity:0;fill-rule:evenodd;stroke:rgb(0, 251, 255);stroke-width:1;" d="M 853.156, 591.467 L 860.622, 581.156 L 894.756, 595.556 L 887.111, 605.867 L 853.156, 591.467 z "/>
<path style="fill:rgb(0, 0, 255);fill-opacity:0;fill-rule:evenodd;stroke:rgb(0, 251, 255);stroke-width:1;" d="M 171.911, 746.311 L 174.756, 740.8 L 214.044, 752.533 L 208.533, 763.022 L 176.889, 753.6 L 172.8, 752.356 L 175.467, 747.378 L 171.911, 746.311 z "/>
<path style="fill:rgb(255, 255, 0);fill-opacity:0;fill-rule:evenodd;stroke:rgb(0, 251, 255);stroke-width:1;" d="M 457.956, 380.089 L 465.956, 368.711 L 492.267, 379.733 L 481.067, 395.2 L 457.956, 380.089 z "/>
<path style="fill:rgb(255, 0, 0);fill-opacity:0;fill-rule:evenodd;stroke:rgb(0, 251, 255);stroke-width:1;" d="M 941.689, 548.089 L 948.622, 538.489 L 962.133, 520 L 973.511, 524.8 L 955.022, 553.6 L 948.8, 551.111 L 941.689, 548.089 z "/>
<path style="fill:rgb(0, 255, 0);fill-opacity:0;fill-rule:evenodd;stroke:rgb(0, 251, 255);stroke-width:1;" d="M 509.511, 510.933 L 523.022, 485.333 L 537.6, 491.378 L 524.089, 516.978 L 509.511, 510.933 z "/>
<path style="fill:rgb(0, 0, 255);fill-opacity:0;fill-rule:evenodd;stroke:rgb(0, 251, 255);stroke-width:1;" d="M 213.867, 171.378 L 218.667, 158.578 L 251.2, 171.911 L 243.2, 183.289 L 213.867, 171.378 z "/>
<path style="fill:rgb(255, 255, 0);fill-opacity:0;fill-rule:evenodd;stroke:rgb(0, 251, 255);stroke-width:1;" d="M 563.733, 73.0667 L 571.022, 62.7556 L 604.622, 76.6222 L 597.156, 86.9333 L 578.311, 79.1111 L 563.733, 73.0667 z "/>
<path style="fill:rgb(255, 0, 0);fill-opacity:0;fill-rule:evenodd;stroke:rgb(0, 251, 255);stroke-width:1;" d="M 481.244, 498.844 L 494.578, 473.422 L 508.978, 479.467 L 495.822, 505.067 L 481.244, 498.844 z "/>
<path style="fill:rgb(0, 255, 0);fill-opacity:0;fill-rule:evenodd;stroke:rgb(0, 251, 255);stroke-width:1;" d="M 973.333, 571.556 L 977.244, 566.222 L 999.467, 535.644 L 1010.67, 540.444 L 1000, 555.022 L 998.4, 556.978 L 992, 565.867 L 987.733, 563.911 L 984.711, 565.867 L 978.844, 573.867 L 973.333, 571.556 z "/>
<path style="fill:rgb(0, 0, 255);fill-opacity:0;fill-rule:evenodd;stroke:rgb(0, 251, 255);stroke-width:1;" d="M 460.444, 213.156 L 467.2, 203.378 L 502.756, 217.778 L 496, 227.556 L 460.444, 213.156 z "/>
<path style="fill:rgb(255, 255, 0);fill-opacity:0;fill-rule:evenodd;stroke:rgb(0, 251, 255);stroke-width:1;" d="M 475.911, 129.244 L 482.133, 120.533 L 484.8, 119.289 L 489.778, 112.178 L 491.2, 112.178 L 494.933, 107.022 L 493.867, 106.667 L 497.956, 100.622 L 510.222, 105.778 L 503.822, 114.667 L 501.333, 113.6 L 499.911, 115.556 L 500.444, 116.622 L 495.289, 123.733 L 496, 125.689 L 489.244, 134.933 L 475.911, 129.244 z "/>
<path style="fill:rgb(255, 0, 0);fill-opacity:0;fill-rule:evenodd;stroke:rgb(0, 251, 255);stroke-width:1;" d="M 982.4, 61.6889 L 999.822, 37.6889 L 1014.04, 43.7333 L 1011.56, 47.1111 L 996.622, 67.5556 L 982.4, 61.6889 z "/>
<path style="fill:rgb(0, 255, 0);fill-opacity:0;fill-rule:evenodd;stroke:rgb(0, 251, 255);stroke-width:1;" d="M 489.778, 59.3778 L 506.667, 35.9111 L 521.067, 41.9556 L 504.356, 65.4222 L 503.644, 65.0667 L 489.778, 59.3778 z "/>
<path style="fill:rgb(0, 0, 255);fill-opacity:0;fill-rule:evenodd;stroke:rgb(0, 251, 255);stroke-width:1;" d="M 719.644, 448 L 736.356, 424.711 L 750.756, 430.578 L 734.044, 454.044 L 719.644, 448 z "/>
<path style="fill:rgb(255, 255, 0);fill-opacity:0;fill-rule:evenodd;stroke:rgb(0, 251, 255);stroke-width:1;" d="M 608.889, 172.267 L 616.178, 162.311 L 649.778, 176.533 L 642.489, 186.489 L 608.889, 172.267 z "/>
<path style="fill:rgb(255, 0, 0);fill-opacity:0;fill-rule:evenodd;stroke:rgb(0, 251, 255);stroke-width:1;" d="M 495.822, 505.067 L 508.978, 479.467 L 523.022, 485.333 L 509.511, 510.933 L 495.822, 505.067 z "/>
<path style="fill:rgb(0, 255, 0);fill-opacity:0;fill-rule:evenodd;stroke:rgb(0, 251, 255);stroke-width:1;" d="M 467.378, 492.978 L 480.711, 467.733 L 494.578, 473.422 L 481.244, 498.844 L 467.378, 492.978 z "/>
<path style="fill:rgb(0, 0, 255);fill-opacity:0;fill-rule:evenodd;stroke:rgb(0, 251, 255);stroke-width:1;" d="M 952, 558.4 L 955.022, 553.6 L 973.511, 524.8 L 981.511, 528 L 965.333, 561.244 L 964.267, 563.556 L 952, 558.4 z "/>
<path style="fill:rgb(255, 255, 0);fill-opacity:0;fill-rule:evenodd;stroke:rgb(0, 251, 255);stroke-width:1;" d="M 691.911, 436.622 L 694.4, 433.067 L 708.622, 413.156 L 722.844, 419.022 L 705.956, 442.311 L 691.911, 436.622 z "/>
<path style="fill:rgb(255, 0, 0);fill-opacity:0;fill-rule:evenodd;stroke:rgb(0, 251, 255);stroke-width:1;" d="M 467.2, 203.378 L 473.778, 193.956 L 509.333, 208.533 L 502.756, 217.778 L 467.2, 203.378 z "/>
<path style="fill:rgb(0, 255, 0);fill-opacity:0;fill-rule:evenodd;stroke:rgb(0, 251, 255);stroke-width:1;" d="M 524.089, 516.978 L 537.6, 491.378 L 551.289, 497.067 L 538.311, 521.778 L 537.778, 522.844 L 524.089, 516.978 z "/>
<path style="fill:rgb(0, 0, 255);fill-opacity:0;fill-rule:evenodd;stroke:rgb(0, 251, 255);stroke-width:1;" d="M 975.467, 121.778 L 992, 99.2 L 1006.22, 105.067 L 1000.36, 113.244 L 989.867, 127.822 L 975.467, 121.778 z "/>
<path style="fill:rgb(255, 255, 0);fill-opacity:0;fill-rule:evenodd;stroke:rgb(0, 251, 255);stroke-width:1;" d="M 968.889, 55.8222 L 986.133, 32 L 999.822, 37.6889 L 982.4, 61.6889 L 968.889, 55.8222 z "/>
<path style="fill:rgb(255, 0, 0);fill-opacity:0;fill-rule:evenodd;stroke:rgb(0, 251, 255);stroke-width:1;" d="M 170.844, 765.156 L 176.889, 753.6 L 208.533, 763.022 L 202.667, 774.578 L 170.844, 765.156 z "/>
<path style="fill:rgb(0, 255, 0);fill-opacity:0;fill-rule:evenodd;stroke:rgb(0, 251, 255);stroke-width:1;" d="M 702.578, 225.778 L 722.133, 198.756 L 724.622, 195.556 L 735.644, 200.178 L 729.422, 208.889 L 728.711, 209.778 L 723.733, 207.822 L 721.956, 210.133 L 726.933, 212.267 L 723.733, 216.533 L 714.133, 229.689 L 713.6, 230.4 L 702.578, 225.778 z "/>
<path style="fill:rgb(0, 0, 255);fill-opacity:0;fill-rule:evenodd;stroke:rgb(0, 251, 255);stroke-width:1;" d="M 320, 216.178 L 320.533, 215.289 L 336.711, 192.356 L 342.4, 194.667 L 338.133, 200.711 L 341.333, 202.133 L 345.6, 195.911 L 351.467, 198.4 L 334.4, 222.044 L 320, 216.178 z "/>
<path style="fill:rgb(255, 255, 0);fill-opacity:0;fill-rule:evenodd;stroke:rgb(0, 251, 255);stroke-width:1;" d="M 826.133, 428.622 L 831.822, 420.622 L 841.244, 407.467 L 856.711, 413.867 L 847.289, 427.022 L 841.6, 435.022 L 826.133, 428.622 z "/>
<path style="fill:rgb(255, 0, 0);fill-opacity:0;fill-rule:evenodd;stroke:rgb(0, 251, 255);stroke-width:1;" d="M 451.556, 692.622 L 457.6, 680.711 L 488.711, 689.956 L 482.667, 701.689 L 474.844, 699.378 L 452.8, 692.8 L 451.556, 692.622 z "/>
<path style="fill:rgb(0, 255, 0);fill-opacity:0;fill-rule:evenodd;stroke:rgb(0, 251, 255);stroke-width:1;" d="M 564.978, 471.289 L 565.333, 470.4 L 577.067, 446.756 L 592.178, 452.444 L 578.311, 476.8 L 564.978, 471.289 z "/>
<path style="fill:rgb(0, 0, 255);fill-opacity:0;fill-rule:evenodd;stroke:rgb(0, 251, 255);stroke-width:1;" d="M 475.022, 646.933 L 481.067, 635.2 L 497.6, 640 L 511.822, 644.267 L 509.867, 647.822 L 505.778, 656 L 475.022, 646.933 z "/>
<path style="fill:rgb(255, 255, 0);fill-opacity:0;fill-rule:evenodd;stroke:rgb(0, 251, 255);stroke-width:1;" d="M 306.489, 209.6 L 322.667, 186.667 L 336.711, 192.356 L 320.533, 215.289 L 306.489, 209.6 z "/>
<path style="fill:rgb(255, 0, 0);fill-opacity:0;fill-rule:evenodd;stroke:rgb(0, 251, 255);stroke-width:1;" d="M 758.222, 471.467 L 779.022, 442.311 L 793.067, 448.178 L 792.356, 449.244 L 780.978, 465.244 L 772.444, 461.689 L 770.489, 464.533 L 771.911, 465.244 L 765.333, 474.489 L 758.222, 471.467 z "/>
<path style="fill:rgb(0, 255, 0);fill-opacity:0;fill-rule:evenodd;stroke:rgb(0, 251, 255);stroke-width:1;" d="M 194.133, 229.156 L 197.867, 219.022 L 224.178, 226.844 L 236.267, 234.489 L 233.067, 240.711 L 194.133, 229.156 z "/>
<path style="fill:rgb(0, 0, 255);fill-opacity:0;fill-rule:evenodd;stroke:rgb(0, 251, 255);stroke-width:1;" d="M 705.956, 442.311 L 722.844, 419.022 L 736.356, 424.711 L 719.644, 448 L 705.956, 442.311 z "/>
<path style="fill:rgb(255, 255, 0);fill-opacity:0;fill-rule:evenodd;stroke:rgb(0, 251, 255);stroke-width:1;" d="M 298.311, 54.2222 L 307.911, 40.8889 L 313.244, 43.0222 L 331.378, 50.4889 L 321.6, 64 L 298.311, 54.2222 z "/>
<path style="fill:rgb(255, 0, 0);fill-opacity:0;fill-rule:evenodd;stroke:rgb(0, 251, 255);stroke-width:1;" d="M 252.622, 187.2 L 260.622, 175.822 L 267.911, 165.511 L 271.289, 160.533 L 283.2, 165.333 L 264.533, 192 L 252.622, 187.2 z "/>
<path style="fill:rgb(0, 255, 0);fill-opacity:0;fill-rule:evenodd;stroke:rgb(0, 251, 255);stroke-width:1;" d="M 278.4, 197.689 L 293.333, 176.533 L 308.089, 182.578 L 293.333, 203.733 L 278.4, 197.689 z "/>
<path style="fill:rgb(0, 0, 255);fill-opacity:0;fill-rule:evenodd;stroke:rgb(0, 251, 255);stroke-width:1;" d="M 883.733, 247.822 L 891.911, 236.8 L 919.822, 248.533 L 911.822, 259.556 L 883.733, 247.822 z "/>
<path style="fill:rgb(255, 255, 0);fill-opacity:0;fill-rule:evenodd;stroke:rgb(0, 251, 255);stroke-width:1;" d="M 127.822, 753.244 L 128, 752.889 L 139.556, 730.311 L 154.667, 734.756 L 143.289, 756.978 L 142.933, 757.867 L 127.822, 753.244 z "/>
<path style="fill:rgb(255, 0, 0);fill-opacity:0;fill-rule:evenodd;stroke:rgb(0, 251, 255);stroke-width:1;" d="M 502.756, 629.867 L 515.2, 605.867 L 529.244, 610.133 L 528.889, 610.844 L 516.978, 634.133 L 502.756, 629.867 z "/>
<path style="fill:rgb(0, 255, 0);fill-opacity:0;fill-rule:evenodd;stroke:rgb(0, 251, 255);stroke-width:1;" d="M 113.067, 748.444 L 118.933, 736.889 L 124.622, 725.867 L 139.556, 730.311 L 128, 752.889 L 113.067, 748.444 z "/>
<path style="fill:rgb(0, 0, 255);fill-opacity:0;fill-rule:evenodd;stroke:rgb(0, 251, 255);stroke-width:1;" d="M 699.022, 294.4 L 703.822, 287.822 L 719.822, 265.422 L 730.133, 269.689 L 729.778, 270.044 L 722.667, 280.178 L 709.333, 298.844 L 699.022, 294.4 z "/>
<path style="fill:rgb(255, 255, 0);fill-opacity:0;fill-rule:evenodd;stroke:rgb(0, 251, 255);stroke-width:1;" d="M 561.422, 657.422 L 578.133, 624.889 L 588.622, 627.911 L 583.467, 638.044 L 577.6, 649.244 L 572.622, 659.022 L 571.733, 660.622 L 561.422, 657.422 z "/>
<path style="fill:rgb(255, 0, 0);fill-opacity:0;fill-rule:evenodd;stroke:rgb(0, 251, 255);stroke-width:1;" d="M 283.2, 132.089 L 299.2, 110.044 L 317.689, 118.044 L 316.444, 119.822 L 310.756, 127.822 L 308.444, 131.2 L 295.644, 126.044 L 289.778, 134.222 L 283.2, 132.089 z "/>
<path style="fill:rgb(0, 255, 0);fill-opacity:0;fill-rule:evenodd;stroke:rgb(0, 251, 255);stroke-width:1;" d="M 299.2, 110.044 L 305.422, 101.867 L 311.289, 94.0444 L 329.244, 101.511 L 317.689, 118.044 L 299.2, 110.044 z "/>
<path style="fill:rgb(0, 0, 255);fill-opacity:0;fill-rule:evenodd;stroke:rgb(0, 251, 255);stroke-width:1;" d="M 564.622, 673.6 L 570.311, 662.578 L 600.178, 671.289 L 594.489, 682.489 L 564.622, 673.6 z "/>
<path style="fill:rgb(255, 255, 0);fill-opacity:0;fill-rule:evenodd;stroke:rgb(0, 251, 255);stroke-width:1;" d="M 955.733, 249.778 L 962.844, 240 L 969.778, 230.578 L 984.711, 236.978 L 984.533, 237.156 L 977.422, 246.933 L 970.667, 256.178 L 955.733, 249.778 z "/>
<path style="fill:rgb(255, 0, 0);fill-opacity:0;fill-rule:evenodd;stroke:rgb(0, 251, 255);stroke-width:1;" d="M 982.4, 262.222 L 989.867, 252.089 L 1018.31, 264.178 L 1010.84, 274.311 L 982.4, 262.222 z "/>
<path style="fill:rgb(0, 255, 0);fill-opacity:0;fill-rule:evenodd;stroke:rgb(0, 251, 255);stroke-width:1;" d="M 750.4, 244.978 L 764.267, 225.778 L 770.311, 217.422 L 770.667, 217.067 L 777.778, 220.089 L 775.289, 223.644 L 779.2, 225.244 L 763.378, 246.933 L 759.111, 245.156 L 757.156, 247.822 L 750.4, 244.978 z "/>
<path style="fill:rgb(0, 0, 255);fill-opacity:0;fill-rule:evenodd;stroke:rgb(0, 251, 255);stroke-width:1;" d="M 792.711, 323.733 L 807.467, 302.933 L 821.333, 308.622 L 816.711, 315.2 L 811.911, 321.956 L 808, 327.289 L 806.578, 329.422 L 792.711, 323.733 z "/>
<path style="fill:rgb(255, 255, 0);fill-opacity:0;fill-rule:evenodd;stroke:rgb(0, 251, 255);stroke-width:1;" d="M 538.311, 521.778 L 551.289, 497.067 L 563.2, 502.222 L 550.222, 526.933 L 538.311, 521.778 z "/>
<path style="fill:rgb(255, 0, 0);fill-opacity:0;fill-rule:evenodd;stroke:rgb(0, 251, 255);stroke-width:1;" d="M 449.6, 185.067 L 454.222, 178.489 L 457.067, 177.778 L 449.778, 174.756 L 461.689, 157.689 L 474.844, 163.022 L 462.933, 180.089 L 461.156, 179.378 L 461.333, 181.511 L 456.889, 188.089 L 449.6, 185.067 z "/>
<path style="fill:rgb(0, 255, 0);fill-opacity:0;fill-rule:evenodd;stroke:rgb(0, 251, 255);stroke-width:1;" d="M 412.089, 484.622 L 416.711, 480.711 L 426.489, 487.289 L 430.933, 483.378 L 449.956, 496 L 444.8, 506.311 L 412.089, 484.622 z "/>
<path style="fill:rgb(0, 0, 255);fill-opacity:0;fill-rule:evenodd;stroke:rgb(0, 251, 255);stroke-width:1;" d="M 561.956, 531.733 L 574.933, 507.022 L 586.489, 511.822 L 573.511, 536.889 L 561.956, 531.733 z "/>
<path style="fill:rgb(255, 255, 0);fill-opacity:0;fill-rule:evenodd;stroke:rgb(0, 251, 255);stroke-width:1;" d="M 550.222, 526.933 L 563.2, 502.222 L 574.933, 507.022 L 561.956, 531.733 L 550.222, 526.933 z "/>
<path style="fill:rgb(255, 0, 0);fill-opacity:0;fill-rule:evenodd;stroke:rgb(0, 251, 255);stroke-width:1;" d="M 27.0222, 151.822 L 42.3111, 133.867 L 55.8222, 140.622 L 40.5333, 158.4 L 27.0222, 151.822 z "/>
<path style="fill:rgb(0, 255, 0);fill-opacity:0;fill-rule:evenodd;stroke:rgb(0, 251, 255);stroke-width:1;" d="M 816.711, 720.711 L 826.667, 701.156 L 842.133, 705.778 L 837.867, 713.956 L 832.178, 725.156 L 816.711, 720.711 z "/>
<path style="fill:rgb(0, 0, 255);fill-opacity:0;fill-rule:evenodd;stroke:rgb(0, 251, 255);stroke-width:1;" d="M 780.444, 410.311 L 787.2, 401.067 L 815.467, 412.622 L 814.933, 413.511 L 809.067, 421.511 L 808.711, 422.044 L 780.444, 410.311 z "/>
<path style="fill:rgb(255, 255, 0);fill-opacity:0;fill-rule:evenodd;stroke:rgb(0, 251, 255);stroke-width:1;" d="M 492.622, 440.178 L 506.844, 420.444 L 519.822, 427.378 L 506.489, 445.867 L 492.622, 440.178 z "/>
<path style="fill:rgb(255, 0, 0);fill-opacity:0;fill-rule:evenodd;stroke:rgb(0, 251, 255);stroke-width:1;" d="M 506.489, 445.867 L 519.822, 427.378 L 533.689, 434.489 L 528.711, 441.244 L 521.067, 451.911 L 506.489, 445.867 z "/>
<path style="fill:rgb(0, 255, 0);fill-opacity:0;fill-rule:evenodd;stroke:rgb(0, 251, 255);stroke-width:1;" d="M 863.822, 422.578 L 870.044, 414.044 L 900.444, 426.667 L 894.222, 435.2 L 893.867, 435.022 L 864.178, 422.756 L 863.822, 422.578 z "/>
<path style="fill:rgb(0, 0, 255);fill-opacity:0;fill-rule:evenodd;stroke:rgb(0, 251, 255);stroke-width:1;" d="M 39.2889, 201.956 L 47.2889, 185.067 L 54.4, 187.022 L 59.3778, 176.356 L 66.3111, 178.133 L 64.3556, 182.4 L 62.7556, 185.956 L 60.8, 189.867 L 59.5556, 189.511 L 52.0889, 205.333 L 39.2889, 201.956 z "/>
<path style="fill:rgb(255, 255, 0);fill-opacity:0;fill-rule:evenodd;stroke:rgb(0, 251, 255);stroke-width:1;" d="M 531.022, 280.533 L 537.6, 271.111 L 564.8, 282.489 L 558.044, 291.733 L 531.022, 280.533 z "/>
<path style="fill:rgb(255, 0, 0);fill-opacity:0;fill-rule:evenodd;stroke:rgb(0, 251, 255);stroke-width:1;" d="M 537.6, 271.111 L 544.356, 261.867 L 571.378, 273.244 L 564.8, 282.489 L 537.6, 271.111 z "/>
<path style="fill:rgb(0, 255, 0);fill-opacity:0;fill-rule:evenodd;stroke:rgb(0, 251, 255);stroke-width:1;" d="M 450.133, 270.044 L 455.822, 261.867 L 464.889, 249.067 L 466.489, 246.578 L 477.333, 251.022 L 460.8, 274.311 L 450.133, 270.044 z "/>
<path style="fill:rgb(0, 0, 255);fill-opacity:0;fill-rule:evenodd;stroke:rgb(0, 251, 255);stroke-width:1;" d="M 589.156, 238.933 L 599.289, 224.711 L 604.267, 217.778 L 616, 222.578 L 600.889, 243.733 L 589.156, 238.933 z "/>
<path style="fill:rgb(255, 255, 0);fill-opacity:0;fill-rule:evenodd;stroke:rgb(0, 251, 255);stroke-width:1;" d="M 656.178, 409.244 L 665.956, 395.378 L 680.178, 401.244 L 675.378, 408 L 665.244, 422.222 L 658.133, 419.378 L 663.111, 412.267 L 656.178, 409.244 z "/>
<path style="fill:rgb(255, 0, 0);fill-opacity:0;fill-rule:evenodd;stroke:rgb(0, 251, 255);stroke-width:1;" d="M 692.978, 283.2 L 699.378, 274.133 L 701.689, 270.933 L 708.8, 260.8 L 719.822, 265.422 L 703.822, 287.822 L 692.978, 283.2 z "/>
<path style="fill:rgb(0, 255, 0);fill-opacity:0;fill-rule:evenodd;stroke:rgb(0, 251, 255);stroke-width:1;" d="M 27.2, 198.578 L 37.8667, 175.822 L 49.9556, 179.2 L 47.2889, 185.067 L 39.2889, 201.956 L 27.2, 198.578 z "/>
<path style="fill:rgb(0, 0, 255);fill-opacity:0;fill-rule:evenodd;stroke:rgb(0, 251, 255);stroke-width:1;" d="M 403.2, 250.844 L 415.644, 233.067 L 422.756, 236.089 L 425.778, 231.822 L 431.111, 233.956 L 415.644, 255.822 L 403.2, 250.844 z "/>
<path style="fill:rgb(255, 255, 0);fill-opacity:0;fill-rule:evenodd;stroke:rgb(0, 251, 255);stroke-width:1;" d="M 755.378, 400 L 762.133, 390.578 L 787.2, 401.067 L 780.444, 410.311 L 755.378, 400 z "/>
<path style="fill:rgb(255, 0, 0);fill-opacity:0;fill-rule:evenodd;stroke:rgb(0, 251, 255);stroke-width:1;" d="M 475.556, 185.778 L 475.911, 185.422 L 488, 168.356 L 501.156, 173.689 L 488.711, 191.111 L 475.556, 185.778 z "/>
<path style="fill:rgb(0, 255, 0);fill-opacity:0;fill-rule:evenodd;stroke:rgb(0, 251, 255);stroke-width:1;" d="M 488.711, 191.111 L 501.156, 173.689 L 513.956, 179.022 L 501.689, 196.444 L 488.711, 191.111 z "/>
<path style="fill:rgb(0, 0, 255);fill-opacity:0;fill-rule:evenodd;stroke:rgb(0, 251, 255);stroke-width:1;" d="M 955.022, 331.378 L 961.6, 322.489 L 966.578, 315.556 L 967.289, 315.733 L 970.667, 311.111 L 980.8, 315.378 L 965.867, 336 L 955.022, 331.378 z "/>
<path style="fill:rgb(255, 255, 0);fill-opacity:0;fill-rule:evenodd;stroke:rgb(0, 251, 255);stroke-width:1;" d="M 462.933, 180.089 L 474.844, 163.022 L 488, 168.356 L 475.911, 185.422 L 462.933, 180.089 z "/>
<path style="fill:rgb(255, 0, 0);fill-opacity:0;fill-rule:evenodd;stroke:rgb(0, 251, 255);stroke-width:1;" d="M 501.689, 196.444 L 513.956, 179.022 L 526.578, 184.178 L 514.311, 201.6 L 501.689, 196.444 z "/>
<path style="fill:rgb(0, 255, 0);fill-opacity:0;fill-rule:evenodd;stroke:rgb(0, 251, 255);stroke-width:1;" d="M 66.6667, 209.422 L 74.6667, 188.622 L 87.1111, 191.467 L 82.4889, 203.378 L 78.9333, 212.622 L 66.6667, 209.422 z "/>
<path style="fill:rgb(0, 0, 255);fill-opacity:0;fill-rule:evenodd;stroke:rgb(0, 251, 255);stroke-width:1;" d="M 53.5111, 205.689 L 60.8, 189.867 L 62.7556, 185.956 L 74.6667, 188.622 L 66.6667, 209.422 L 53.5111, 205.689 z "/>
<path style="fill:rgb(255, 255, 0);fill-opacity:0;fill-rule:evenodd;stroke:rgb(0, 251, 255);stroke-width:1;" d="M 616.533, 250.133 L 620.978, 243.911 L 616.533, 242.133 L 627.2, 227.2 L 638.4, 231.822 L 631.467, 241.6 L 623.467, 252.978 L 616.533, 250.133 z "/>
<path style="fill:rgb(255, 0, 0);fill-opacity:0;fill-rule:evenodd;stroke:rgb(0, 251, 255);stroke-width:1;" d="M 634.844, 197.156 L 642.489, 186.489 L 649.778, 176.533 L 654.933, 178.844 L 651.378, 183.822 L 657.778, 186.489 L 656.711, 187.733 L 652.978, 193.067 L 646.4, 201.956 L 634.844, 197.156 z "/>
<path style="fill:rgb(0, 255, 0);fill-opacity:0;fill-rule:evenodd;stroke:rgb(0, 251, 255);stroke-width:1;" d="M 600.889, 243.733 L 616, 222.578 L 627.2, 227.2 L 616.533, 242.133 L 609.422, 239.111 L 610.311, 241.422 L 606.933, 246.4 L 600.889, 243.733 z "/>
<path style="fill:rgb(0, 0, 255);fill-opacity:0;fill-rule:evenodd;stroke:rgb(0, 251, 255);stroke-width:1;" d="M 264.178, 564.267 L 271.289, 550.933 L 288.356, 556.267 L 281.422, 569.422 L 264.178, 564.267 z "/>
<path style="fill:rgb(255, 255, 0);fill-opacity:0;fill-rule:evenodd;stroke:rgb(0, 251, 255);stroke-width:1;" d="M 684.622, 429.156 L 694.222, 415.822 L 699.022, 409.067 L 708.622, 413.156 L 694.4, 433.067 L 684.622, 429.156 z "/>
<path style="fill:rgb(255, 0, 0);fill-opacity:0;fill-rule:evenodd;stroke:rgb(0, 251, 255);stroke-width:1;" d="M 741.333, 545.067 L 745.422, 539.378 L 748.8, 534.578 L 767.289, 542.222 L 760, 552.711 L 741.333, 545.067 z "/>
<path style="fill:rgb(0, 255, 0);fill-opacity:0;fill-rule:evenodd;stroke:rgb(0, 251, 255);stroke-width:1;" d="M 774.222, 170.667 L 786.489, 153.778 L 797.867, 158.578 L 785.6, 175.467 L 774.222, 170.667 z "/>
<path style="fill:rgb(0, 0, 255);fill-opacity:0;fill-rule:evenodd;stroke:rgb(0, 251, 255);stroke-width:1;" d="M 780.267, 341.156 L 790.222, 327.289 L 803.911, 332.978 L 800.711, 337.422 L 794.133, 346.844 L 780.267, 341.156 z "/>
<path style="fill:rgb(255, 255, 0);fill-opacity:0;fill-rule:evenodd;stroke:rgb(0, 251, 255);stroke-width:1;" d="M 480, 73.0667 L 489.778, 59.3778 L 503.644, 65.0667 L 493.867, 78.7556 L 480, 73.0667 z "/>
<path style="fill:rgb(255, 0, 0);fill-opacity:0;fill-rule:evenodd;stroke:rgb(0, 251, 255);stroke-width:1;" d="M 89.9556, 197.333 L 93.1556, 190.756 L 123.733, 199.467 L 121.422, 206.756 L 89.9556, 197.333 z "/>
<path style="fill:rgb(0, 255, 0);fill-opacity:0;fill-rule:evenodd;stroke:rgb(0, 251, 255);stroke-width:1;" d="M 785.6, 175.467 L 797.867, 158.578 L 808.711, 163.2 L 800.889, 173.867 L 796.444, 179.911 L 785.6, 175.467 z "/>
<path style="fill:rgb(0, 0, 255);fill-opacity:0;fill-rule:evenodd;stroke:rgb(0, 251, 255);stroke-width:1;" d="M 581.156, 438.756 L 588.444, 425.067 L 591.822, 426.489 L 602.667, 430.933 L 596.622, 444.089 L 581.156, 438.756 z "/>
<path style="fill:rgb(255, 255, 0);fill-opacity:0;fill-rule:evenodd;stroke:rgb(0, 251, 255);stroke-width:1;" d="M 211.556, 307.022 L 220.444, 294.044 L 233.778, 299.2 L 225.778, 313.6 L 211.556, 307.022 z "/>
<path style="fill:rgb(255, 0, 0);fill-opacity:0;fill-rule:evenodd;stroke:rgb(0, 251, 255);stroke-width:1;" d="M 497.956, 396.267 L 505.956, 385.244 L 521.956, 392 L 514.133, 403.022 L 497.956, 396.267 z "/>
<path style="fill:rgb(0, 255, 0);fill-opacity:0;fill-rule:evenodd;stroke:rgb(0, 251, 255);stroke-width:1;" d="M 262.933, 108.8 L 270.933, 97.9556 L 286.222, 104.533 L 278.222, 115.378 L 262.933, 108.8 z "/>
<path style="fill:rgb(0, 0, 255);fill-opacity:0;fill-rule:evenodd;stroke:rgb(0, 251, 255);stroke-width:1;" d="M 788.444, 541.867 L 793.956, 534.044 L 815.111, 542.756 L 809.6, 550.578 L 788.444, 541.867 z "/>
<path style="fill:rgb(255, 255, 0);fill-opacity:0;fill-rule:evenodd;stroke:rgb(0, 251, 255);stroke-width:1;" d="M 804.267, 745.6 L 804.8, 744.178 L 810.133, 733.867 L 825.6, 738.311 L 822.933, 743.644 L 819.556, 750.044 L 811.733, 747.733 L 804.267, 745.6 z "/>
<path style="fill:rgb(255, 0, 0);fill-opacity:0;fill-rule:evenodd;stroke:rgb(0, 251, 255);stroke-width:1;" d="M 793.956, 534.044 L 799.111, 526.756 L 820.267, 535.644 L 815.111, 542.756 L 793.956, 534.044 z "/>
<path style="fill:rgb(0, 255, 0);fill-opacity:0;fill-rule:evenodd;stroke:rgb(0, 251, 255);stroke-width:1;" d="M 783.289, 548.978 L 788.444, 541.867 L 809.6, 550.578 L 804.444, 557.689 L 783.289, 548.978 z "/>
<path style="fill:rgb(0, 0, 255);fill-opacity:0;fill-rule:evenodd;stroke:rgb(0, 251, 255);stroke-width:1;" d="M 809.067, 421.511 L 814.933, 413.511 L 831.822, 420.622 L 826.133, 428.622 L 809.067, 421.511 z "/>
<path style="fill:rgb(255, 255, 0);fill-opacity:0;fill-rule:evenodd;stroke:rgb(0, 251, 255);stroke-width:1;" d="M 493.333, 402.844 L 497.956, 396.267 L 514.133, 403.022 L 507.556, 412.089 L 507.556, 412.267 L 493.333, 402.844 z "/>
<path style="fill:rgb(255, 0, 0);fill-opacity:0;fill-rule:evenodd;stroke:rgb(0, 251, 255);stroke-width:1;" d="M 944.533, 568.533 L 952, 558.4 L 964.267, 563.556 L 956.8, 573.689 L 944.533, 568.533 z "/>
<path style="fill:rgb(0, 255, 0);fill-opacity:0;fill-rule:evenodd;stroke:rgb(0, 251, 255);stroke-width:1;" d="M 290.311, 95.4667 L 295.644, 87.8222 L 311.289, 94.0444 L 305.422, 101.867 L 290.311, 95.4667 z "/>
<path style="fill:rgb(0, 0, 255);fill-opacity:0;fill-rule:evenodd;stroke:rgb(0, 251, 255);stroke-width:1;" d="M 466.489, 246.578 L 470.756, 240.533 L 473.956, 236.089 L 484.622, 240.533 L 477.333, 251.022 L 466.489, 246.578 z "/>
<path style="fill:rgb(255, 255, 0);fill-opacity:0;fill-rule:evenodd;stroke:rgb(0, 251, 255);stroke-width:1;" d="M 243.2, 183.289 L 251.2, 171.911 L 260.622, 175.822 L 252.622, 187.2 L 243.2, 183.289 z "/>
<path style="fill:rgb(255, 0, 0);fill-opacity:0;fill-rule:evenodd;stroke:rgb(0, 251, 255);stroke-width:1;" d="M 53.3333, 612.622 L 53.5111, 612.089 L 54.7556, 612.444 L 58.8444, 602.133 L 57.4222, 601.778 L 57.6, 601.244 L 67.3778, 604.089 L 67.2, 604.622 L 62.9333, 614.756 L 62.5778, 615.289 L 53.3333, 612.622 z "/>
<path style="fill:rgb(0, 255, 0);fill-opacity:0;fill-rule:evenodd;stroke:rgb(0, 251, 255);stroke-width:1;" d="M 887.111, 605.867 L 894.756, 595.556 L 896.178, 593.422 L 901.867, 595.733 L 892.8, 608.178 L 887.111, 605.867 z "/>
<path style="fill:rgb(0, 0, 255);fill-opacity:0;fill-rule:evenodd;stroke:rgb(0, 251, 255);stroke-width:1;" d="M 0, 767.111 L 11.5556, 732.267 L 75.2, 751.111 L 75.9111, 751.289 L 58.8444, 784.533 L 0, 767.111 z "/>
<path style="fill:rgb(255, 255, 0);fill-opacity:0;fill-rule:evenodd;stroke:rgb(0, 251, 255);stroke-width:1;" d="M 0, 71.4667 L 23.4667, 44.0889 L 30.5778, 35.7333 L 57.9556, 49.4222 L 27.5556, 84.8 L 27.3778, 85.1556 L 0, 71.4667 z "/>
<path style="fill:rgb(255, 0, 0);fill-opacity:0;fill-rule:evenodd;stroke:rgb(0, 251, 255);stroke-width:1;" d="M 9.6, 731.733 L 14.0444, 719.822 L 58.6667, 732.978 L 74.1333, 737.6 L 72.5333, 740.8 L 79.4667, 742.756 L 75.2, 751.111 L 11.5556, 732.267 L 9.6, 731.733 z "/>
<path style="fill:rgb(0, 255, 0);fill-opacity:0;fill-rule:evenodd;stroke:rgb(0, 251, 255);stroke-width:1;" d="M 11.0222, 357.156 L 16.5333, 345.244 L 64.8889, 358.044 L 60.4444, 370.311 L 11.0222, 357.156 z "/>
<path style="fill:rgb(0, 0, 255);fill-opacity:0;fill-rule:evenodd;stroke:rgb(0, 251, 255);stroke-width:1;" d="M 20.6222, 333.511 L 26.1333, 321.6 L 73.6, 334.222 L 69.1556, 346.311 L 20.6222, 333.511 z "/>
<path style="fill:rgb(255, 255, 0);fill-opacity:0;fill-rule:evenodd;stroke:rgb(0, 251, 255);stroke-width:1;" d="M 18.3111, 707.911 L 22.7556, 695.644 L 70.5778, 709.867 L 70.0444, 710.756 L 64.5333, 721.6 L 18.3111, 707.911 z "/>
<path style="fill:rgb(255, 0, 0);fill-opacity:0;fill-rule:evenodd;stroke:rgb(0, 251, 255);stroke-width:1;" d="M 15.4667, 344.889 L 20.6222, 333.511 L 69.1556, 346.311 L 64.8889, 358.044 L 16.5333, 345.244 L 15.4667, 344.889 z "/>
<path style="fill:rgb(0, 255, 0);fill-opacity:0;fill-rule:evenodd;stroke:rgb(0, 251, 255);stroke-width:1;" d="M 20.6222, 320.178 L 25.2444, 309.867 L 32.7111, 311.822 L 77.5111, 323.733 L 73.6, 334.222 L 26.1333, 321.6 L 20.6222, 320.178 z "/>
<path style="fill:rgb(0, 0, 255);fill-opacity:0;fill-rule:evenodd;stroke:rgb(0, 251, 255);stroke-width:1;" d="M 14.0444, 719.822 L 18.3111, 707.911 L 64.5333, 721.6 L 58.6667, 732.978 L 14.0444, 719.822 z "/>
<path style="fill:rgb(255, 255, 0);fill-opacity:0;fill-rule:evenodd;stroke:rgb(0, 251, 255);stroke-width:1;" d="M 15.4667, 195.378 L 23.2889, 178.844 L 26.1333, 172.622 L 37.8667, 175.822 L 27.2, 198.578 L 15.4667, 195.378 z "/>
<path style="fill:rgb(255, 0, 0);fill-opacity:0;fill-rule:evenodd;stroke:rgb(0, 251, 255);stroke-width:1;" d="M 391.822, 93.6889 L 411.556, 65.9556 L 423.289, 49.6 L 448.711, 14.2222 L 476.8, 25.7778 L 446.578, 67.7333 L 419.911, 105.244 L 391.822, 93.6889 z "/>
<path style="fill:rgb(0, 255, 0);fill-opacity:0;fill-rule:evenodd;stroke:rgb(0, 251, 255);stroke-width:1;" d="M 262.933, 36.4444 L 270.933, 15.6444 L 320, 26.4889 L 315.556, 38.0444 L 316.622, 38.4 L 313.244, 43.0222 L 307.911, 40.8889 L 298.311, 54.2222 L 279.111, 43.5556 L 262.933, 36.4444 z "/>
<path style="fill:rgb(0, 0, 255);fill-opacity:0;fill-rule:evenodd;stroke:rgb(0, 251, 255);stroke-width:1;" d="M 795.022, 61.5111 L 801.422, 52.8 L 804.089, 52.4444 L 814.4, 38.2222 L 813.867, 35.5556 L 820.267, 26.6667 L 843.556, 36.2667 L 836.978, 45.1556 L 833.778, 46.4 L 831.111, 50.1333 L 823.467, 60.6222 L 824.533, 62.5778 L 818.311, 71.1111 L 795.022, 61.5111 z "/>
<path style="fill:rgb(255, 255, 0);fill-opacity:0;fill-rule:evenodd;stroke:rgb(0, 251, 255);stroke-width:1;" d="M 773.867, 53.3333 L 789.689, 31.4667 L 792, 32.3556 L 793.067, 30.7556 L 792.356, 28.9778 L 787.911, 27.2 L 788.622, 26.3111 L 795.733, 16.3556 L 820.267, 26.6667 L 813.867, 35.5556 L 812.444, 37.5111 L 807.644, 35.3778 L 804.978, 35.7333 L 803.733, 37.3333 L 806.578, 38.5778 L 790.756, 60.4444 L 773.867, 53.3333 z "/>
<path style="fill:rgb(255, 0, 0);fill-opacity:0;fill-rule:evenodd;stroke:rgb(0, 251, 255);stroke-width:1;" d="M 62.5778, 43.7333 L 67.0222, 38.4 L 97.4222, 2.84444 L 112, 10.1333 L 79.4667, 48.1778 L 76.9778, 50.8444 L 62.5778, 43.7333 z "/>
<path style="fill:rgb(0, 255, 0);fill-opacity:0;fill-rule:evenodd;stroke:rgb(0, 251, 255);stroke-width:1;" d="M 97.7778, 50.3111 L 126.044, 17.0667 L 139.733, 23.8222 L 130.844, 34.1333 L 122.133, 44.4444 L 132.622, 49.6 L 123.733, 60.0889 L 116.622, 56.5333 L 114.844, 58.8444 L 112, 57.4222 L 97.7778, 50.3111 z "/>
<path style="fill:rgb(0, 0, 255);fill-opacity:0;fill-rule:evenodd;stroke:rgb(0, 251, 255);stroke-width:1;" d="M 392.356, 42.4889 L 393.778, 40.3556 L 400.178, 31.6444 L 416.178, 9.24444 L 422.756, 0 L 436.444, 5.68889 L 434.667, 8.35556 L 409.244, 43.7333 L 406.044, 48.1778 L 399.289, 47.4667 L 395.911, 46.0444 L 392.356, 42.4889 z "/>
<path style="fill:rgb(255, 255, 0);fill-opacity:0;fill-rule:evenodd;stroke:rgb(0, 251, 255);stroke-width:1;" d="M 446.578, 67.7333 L 476.8, 25.7778 L 490.844, 31.6444 L 465.6, 67.0222 L 460.8, 73.6 L 446.578, 67.7333 z "/>
<path style="fill:rgb(255, 0, 0);fill-opacity:0;fill-rule:evenodd;stroke:rgb(0, 251, 255);stroke-width:1;" d="M 79.4667, 48.1778 L 112, 10.1333 L 126.044, 17.0667 L 97.7778, 50.3111 L 93.5111, 55.1111 L 79.4667, 48.1778 z "/>
<path style="fill:rgb(0, 255, 0);fill-opacity:0;fill-rule:evenodd;stroke:rgb(0, 251, 255);stroke-width:1;" d="M 321.422, 64.3556 L 321.6, 64 L 331.378, 50.4889 L 349.156, 25.7778 L 362.133, 31.1111 L 360.711, 33.0667 L 353.956, 42.6667 L 340.622, 61.1556 L 334.4, 69.8667 L 321.422, 64.3556 z "/>
<path style="fill:rgb(0, 0, 255);fill-opacity:0;fill-rule:evenodd;stroke:rgb(0, 251, 255);stroke-width:1;" d="M 409.244, 43.7333 L 434.667, 8.35556 L 448.711, 14.2222 L 423.289, 49.6 L 409.244, 43.7333 z "/>
<path style="fill:rgb(255, 255, 0);fill-opacity:0;fill-rule:evenodd;stroke:rgb(0, 251, 255);stroke-width:1;" d="M 583.111, 33.6 L 590.044, 23.8222 L 601.244, 28.6222 L 613.689, 33.7778 L 616.711, 35.0222 L 630.933, 40.8889 L 624, 50.4889 L 583.111, 33.6 z "/>
<path style="fill:rgb(255, 0, 0);fill-opacity:0;fill-rule:evenodd;stroke:rgb(0, 251, 255);stroke-width:1;" d="M 712.178, 34.8444 L 719.644, 24.3556 L 746.311, 35.3778 L 741.867, 41.7778 L 745.6, 43.2 L 747.2, 42.6667 L 763.911, 49.6 L 760, 54.9333 L 712.178, 34.8444 z "/>
<path style="fill:rgb(0, 255, 0);fill-opacity:0;fill-rule:evenodd;stroke:rgb(0, 251, 255);stroke-width:1;" d="M 954.489, 49.7778 L 971.733, 25.9556 L 986.133, 32 L 968.889, 55.8222 L 954.489, 49.7778 z "/>
<path style="fill:rgb(0, 0, 255);fill-opacity:0;fill-rule:evenodd;stroke:rgb(0, 251, 255);stroke-width:1;" d="M 940.622, 44.0889 L 945.244, 37.6889 L 950.933, 30.0444 L 954.133, 25.6 L 958.044, 20.0889 L 971.733, 25.9556 L 954.489, 49.7778 L 940.622, 44.0889 z "/>
<path style="fill:rgb(255, 255, 0);fill-opacity:0;fill-rule:evenodd;stroke:rgb(0, 251, 255);stroke-width:1;" d="M 130.844, 34.1333 L 139.733, 23.8222 L 156.622, 32.1778 L 147.911, 42.4889 L 135.111, 36.2667 L 130.844, 34.1333 z "/>
</svg>