<?xml version="1.0" encoding="iso-8859-1" standalone="no"?>
<!DOCTYPE svg PUBLIC "-//W3C//DTD SVG 1.0//EN" "http://www.w3.org/TR/2001/REC-SVG-20010904/DTD/svg10.dtd">
<svg xmlns="http://www.w3.org/2000/svg" width="1071" height="800">
<path style="fill:rgb(255, 0, 0);fill-opacity:0;fill-rule:evenodd;stroke:rgb(0, 111, 255);stroke-width:1;" d="M 873.658, 292.836 L 882.461, 280.081 L 883.539, 280.62 L 888.929, 272.895 L 898.81, 276.847 L 902.583, 271.278 L 902.044, 269.302 L 901.864, 268.224 L 902.044, 266.247 L 902.403, 265.17 L 903.481, 263.193 L 905.098, 261.397 L 907.074, 259.96 L 908.152, 259.241 L 909.23, 258.702 L 911.925, 257.983 L 916.416, 251.516 L 922.344, 253.851 L 921.267, 252.773 L 919.829, 250.618 L 918.931, 248.102 L 918.572, 245.587 L 918.751, 243.072 L 918.931, 241.815 L 919.29, 240.737 L 920.548, 238.401 L 922.165, 236.066 L 924.141, 234.089 L 926.656, 232.472 L 928.273, 231.754 L 931.507, 230.317 L 932.764, 229.239 L 935.28, 227.083 L 937.256, 224.747 L 943.544, 215.585 L 966.18, 224.747 L 967.977, 225.646 L 970.132, 227.442 L 1015.05, 323.377 L 1006.6, 325.893 L 1000.67, 327.15 L 994.745, 328.049 L 988.637, 328.408 L 982.349, 328.587 L 976.061, 328.408 L 969.773, 327.689 L 963.306, 326.611 L 954.143, 324.455 L 951.089, 323.557 L 915.697, 309.364 L 912.464, 309.185 L 910.847, 309.005 L 907.792, 308.287 L 906.176, 307.748 L 904.918, 307.029 L 902.223, 305.592 L 900.067, 303.795 L 898.091, 301.819 L 884.797, 296.429 L 884.437, 297.148 L 873.658, 292.836 z "/>
<path style="fill:rgb(0, 255, 0);fill-opacity:0;fill-rule:evenodd;stroke:rgb(0, 111, 255);stroke-width:1;" d="M 167.617, 443.027 L 230.676, 357.152 L 289.782, 382.124 L 226.724, 467.999 L 226.544, 468.179 L 167.617, 443.027 z "/>
<path style="fill:rgb(0, 0, 255);fill-opacity:0;fill-rule:evenodd;stroke:rgb(0, 111, 255);stroke-width:1;" d="M 469.436, 420.211 L 496.025, 383.921 L 568.785, 414.642 L 581.361, 397.215 L 593.937, 402.425 L 593.398, 403.144 L 597.889, 405.12 L 615.316, 380.867 L 635.796, 389.311 L 633.101, 393.263 L 645.857, 398.473 L 620.705, 433.326 L 603.099, 425.96 L 580.642, 457.04 L 567.887, 451.83 L 567.168, 452.908 L 562.677, 450.932 L 565.551, 446.98 L 552.437, 441.59 L 551.538, 442.668 L 546.867, 440.692 L 559.443, 423.445 L 543.634, 416.798 L 524.051, 443.566 L 469.436, 420.211 z "/>
<path style="fill:rgb(255, 255, 0);fill-opacity:0;fill-rule:evenodd;stroke:rgb(0, 111, 255);stroke-width:1;" d="M 866.652, 739.277 L 873.479, 729.935 L 877.431, 731.552 L 893.061, 709.993 L 912.284, 718.078 L 924.141, 701.909 L 931.507, 691.848 L 912.284, 683.764 L 927.375, 663.104 L 923.422, 661.487 L 930.788, 651.426 L 934.561, 653.043 L 934.202, 653.582 L 951.089, 660.588 L 949.652, 662.565 L 972.288, 672.086 L 972.827, 671.547 L 975.881, 671.008 L 999.596, 681.069 L 982.169, 704.963 L 965.461, 697.956 L 962.767, 698.316 L 960.79, 697.417 L 955.76, 704.424 L 960.072, 706.221 L 955.94, 711.969 L 959.353, 713.407 L 951.089, 724.725 L 947.676, 723.288 L 943.544, 728.857 L 939.232, 727.06 L 934.202, 733.887 L 936.178, 734.786 L 936.896, 737.121 L 953.604, 744.128 L 936.358, 767.842 L 913.182, 757.961 L 911.925, 754.727 L 898.271, 748.978 L 897.193, 746.283 L 893.959, 750.775 L 866.652, 739.277 z "/>
<path style="fill:rgb(255, 0, 0);fill-opacity:0;fill-rule:evenodd;stroke:rgb(0, 111, 255);stroke-width:1;" d="M 436.739, 548.664 L 463.867, 511.296 L 458.118, 508.96 L 483.809, 473.748 L 500.876, 480.934 L 501.415, 480.216 L 513.272, 485.066 L 510.038, 489.558 L 539.501, 501.954 L 531.597, 512.553 L 528.543, 511.296 L 522.255, 519.919 L 532.136, 524.051 L 528.183, 529.441 L 526.207, 528.722 L 511.655, 548.484 L 513.811, 549.203 L 510.038, 554.413 L 500.337, 550.281 L 493.869, 559.084 L 496.744, 560.341 L 489.198, 570.761 L 436.739, 548.664 z "/>
<path style="fill:rgb(0, 255, 0);fill-opacity:0;fill-rule:evenodd;stroke:rgb(0, 111, 255);stroke-width:1;" d="M 953.245, 615.854 L 960.431, 614.238 L 958.275, 608.668 L 990.254, 601.662 L 994.026, 596.452 L 991.332, 595.194 L 1000.31, 582.618 L 1003.01, 583.876 L 1007.14, 577.947 L 997.979, 554.233 L 1005.88, 552.437 L 1003.91, 547.047 L 1021.51, 543.095 L 1023.49, 548.484 L 1030.68, 546.867 L 1037.14, 563.395 L 1041.63, 562.497 L 1042.71, 565.192 L 1063.01, 560.701 L 1072, 583.696 L 1043.97, 589.984 L 1022.59, 619.088 L 1030.68, 640.108 L 1023.85, 641.545 L 1026, 646.935 L 1009.12, 650.707 L 1006.96, 645.318 L 999.955, 646.935 L 993.847, 631.484 L 990.793, 632.203 L 989.176, 628.43 L 967.797, 633.281 L 965.641, 627.712 L 958.455, 629.329 L 953.245, 615.854 z "/>
<path style="fill:rgb(0, 0, 255);fill-opacity:0;fill-rule:evenodd;stroke:rgb(0, 111, 255);stroke-width:1;" d="M 708.197, 229.778 L 709.095, 228.52 L 725.264, 206.063 L 743.589, 213.609 L 754.368, 198.698 L 760.117, 201.033 L 767.303, 191.152 L 761.554, 188.637 L 772.154, 173.905 L 754.009, 166.36 L 770.896, 142.825 L 824.613, 165.102 L 761.913, 252.234 L 708.197, 229.778 z "/>
<path style="fill:rgb(255, 255, 0);fill-opacity:0;fill-rule:evenodd;stroke:rgb(0, 111, 255);stroke-width:1;" d="M 404.94, 339.007 L 413.564, 327.15 L 436.2, 296.25 L 521.177, 332.181 L 490.097, 374.938 L 404.94, 339.007 z "/>
<path style="fill:rgb(255, 0, 0);fill-opacity:0;fill-rule:evenodd;stroke:rgb(0, 111, 255);stroke-width:1;" d="M 489.737, 375.477 L 490.097, 374.938 L 521.177, 332.181 L 602.74, 366.494 L 571.121, 409.791 L 489.737, 375.477 z "/>
<path style="fill:rgb(0, 255, 0);fill-opacity:0;fill-rule:evenodd;stroke:rgb(0, 111, 255);stroke-width:1;" d="M 252.414, 331.642 L 264.451, 315.293 L 268.403, 316.91 L 274.512, 308.466 L 270.559, 306.849 L 283.315, 289.243 L 311.52, 301.1 L 302.358, 313.497 L 359.308, 337.57 L 361.285, 335.055 L 382.124, 343.858 L 376.735, 351.224 L 382.124, 353.38 L 376.555, 360.925 L 379.789, 362.183 L 368.291, 377.992 L 340.265, 366.135 L 343.678, 361.285 L 335.235, 357.691 L 331.642, 362.542 L 326.791, 360.386 L 325.354, 362.362 L 311.161, 356.434 L 312.598, 354.458 L 306.849, 351.943 L 310.622, 346.912 L 299.843, 342.421 L 296.07, 347.631 L 277.027, 339.546 L 275.769, 341.343 L 252.414, 331.642 z "/>
<path style="fill:rgb(0, 0, 255);fill-opacity:0;fill-rule:evenodd;stroke:rgb(0, 111, 255);stroke-width:1;" d="M 654.839, 501.774 L 675.14, 473.389 L 677.296, 472.49 L 679.272, 473.209 L 685.201, 464.945 L 683.943, 464.406 L 684.123, 463.148 L 690.052, 454.705 L 692.208, 453.806 L 693.645, 454.345 L 699.573, 446.261 L 697.238, 445.363 L 696.879, 443.746 L 717, 415.72 L 759.398, 433.326 L 745.205, 452.908 L 743.05, 453.267 L 740.894, 452.369 L 729.037, 468.718 L 731.192, 469.796 L 732.27, 471.053 L 724.545, 481.653 L 722.569, 481.832 L 720.234, 480.934 L 709.095, 496.384 L 711.251, 497.462 L 712.329, 499.618 L 697.956, 519.56 L 654.839, 501.774 z "/>
<path style="fill:rgb(255, 255, 0);fill-opacity:0;fill-rule:evenodd;stroke:rgb(0, 111, 255);stroke-width:1;" d="M 416.618, 196.901 L 432.607, 175.163 L 448.237, 153.784 L 518.302, 183.427 L 489.737, 222.412 L 486.683, 226.544 L 416.618, 196.901 z "/>
<path style="fill:rgb(255, 0, 0);fill-opacity:0;fill-rule:evenodd;stroke:rgb(0, 111, 255);stroke-width:1;" d="M 501.594, 85.8747 L 510.038, 74.1972 L 526.207, 52.459 L 532.675, 55.1538 L 533.393, 54.2556 L 568.605, 68.9872 L 578.846, 66.6517 L 611.902, 80.4851 L 583.337, 120.009 L 501.594, 85.8747 z "/>
<path style="fill:rgb(0, 255, 0);fill-opacity:0;fill-rule:evenodd;stroke:rgb(0, 111, 255);stroke-width:1;" d="M 753.29, 476.263 L 761.374, 465.304 L 765.327, 466.921 L 769.818, 460.633 L 766.944, 459.376 L 766.225, 457.938 L 766.764, 457.04 L 761.554, 454.884 L 773.411, 438.715 L 801.437, 450.393 L 795.688, 458.298 L 803.234, 461.532 L 806.647, 456.861 L 812.037, 459.196 L 814.732, 458.118 L 818.864, 459.915 L 819.582, 462.43 L 833.955, 468.358 L 837.548, 467.999 L 841.32, 469.616 L 842.039, 471.772 L 847.069, 473.928 L 843.656, 478.599 L 851.74, 482.012 L 857.489, 473.928 L 885.515, 485.785 L 873.658, 501.954 L 868.089, 499.618 L 867.191, 500.696 L 866.292, 501.055 L 862.16, 499.259 L 857.13, 506.086 L 861.442, 507.882 L 853.537, 518.662 L 827.128, 507.523 L 828.206, 505.906 L 821.02, 502.852 L 831.799, 488.12 L 824.972, 485.246 L 821.738, 489.558 L 802.336, 481.473 L 805.569, 477.161 L 798.742, 474.287 L 788.322, 488.48 L 781.496, 485.785 L 780.238, 487.581 L 753.29, 476.263 z "/>
<path style="fill:rgb(0, 0, 255);fill-opacity:0;fill-rule:evenodd;stroke:rgb(0, 111, 255);stroke-width:1;" d="M 822.457, 572.199 L 834.314, 556.03 L 839.883, 558.185 L 840.602, 557.108 L 841.5, 556.748 L 845.812, 558.545 L 850.662, 551.898 L 846.351, 550.101 L 854.256, 539.322 L 880.844, 550.281 L 879.587, 551.898 L 886.773, 554.952 L 876.173, 569.683 L 883, 572.558 L 886.234, 568.246 L 905.637, 576.331 L 902.403, 580.642 L 909.23, 583.517 L 919.65, 569.144 L 926.297, 572.019 L 927.734, 570.043 L 954.682, 581.181 L 946.777, 592.32 L 942.825, 590.703 L 938.154, 596.991 L 941.029, 598.248 L 941.927, 599.686 L 941.388, 600.584 L 946.418, 602.74 L 934.741, 619.088 L 906.715, 607.411 L 912.464, 599.326 L 904.918, 596.093 L 901.505, 600.764 L 896.115, 598.608 L 893.241, 599.686 L 889.288, 597.889 L 888.39, 595.374 L 874.018, 589.445 L 870.604, 589.805 L 866.652, 588.188 L 865.933, 586.032 L 860.903, 583.876 L 864.316, 579.205 L 857.489, 576.331 L 856.232, 575.792 L 850.483, 583.876 L 822.457, 572.199 z "/>
<path style="fill:rgb(255, 255, 0);fill-opacity:0;fill-rule:evenodd;stroke:rgb(0, 111, 255);stroke-width:1;" d="M 866.113, 523.692 L 874.197, 512.553 L 877.79, 513.991 L 881.922, 508.242 L 879.048, 506.984 L 879.048, 504.289 L 873.658, 501.954 L 885.515, 485.785 L 913.541, 497.642 L 907.792, 505.547 L 915.697, 508.96 L 919.111, 504.11 L 924.321, 506.265 L 927.195, 505.547 L 931.507, 507.343 L 931.866, 509.499 L 946.957, 515.787 L 949.832, 515.068 L 953.604, 516.685 L 954.682, 519.021 L 959.533, 520.997 L 955.94, 526.027 L 964.024, 529.441 L 969.773, 521.716 L 997.62, 533.393 L 985.762, 549.742 L 980.193, 547.406 L 979.475, 548.484 L 978.576, 548.125 L 978.217, 548.843 L 974.085, 547.047 L 969.773, 553.155 L 973.726, 554.772 L 965.821, 565.731 L 939.412, 554.592 L 940.669, 552.976 L 933.842, 549.921 L 944.442, 535.369 L 938.154, 532.675 L 935.1, 536.986 L 914.979, 528.363 L 918.033, 524.231 L 911.026, 521.356 L 900.427, 536.088 L 893.779, 533.214 L 892.522, 534.83 L 866.113, 523.692 z "/>
<path style="fill:rgb(255, 0, 0);fill-opacity:0;fill-rule:evenodd;stroke:rgb(0, 111, 255);stroke-width:1;" d="M 709.993, 524.949 L 721.671, 508.601 L 727.42, 510.936 L 729.396, 509.499 L 733.528, 511.116 L 737.84, 505.188 L 733.887, 503.391 L 741.792, 492.432 L 768.022, 503.391 L 766.944, 505.188 L 773.77, 508.062 L 763.171, 522.794 L 769.459, 525.309 L 772.513, 521.177 L 792.814, 529.62 L 789.76, 533.753 L 796.766, 536.627 L 807.366, 522.075 L 814.013, 524.77 L 815.091, 523.153 L 841.68, 534.291 L 833.595, 545.43 L 830.002, 543.813 L 825.87, 549.742 L 828.745, 550.82 L 828.745, 553.694 L 834.314, 556.03 L 822.457, 572.199 L 794.251, 560.521 L 800, 552.437 L 792.095, 549.203 L 788.682, 554.053 L 783.472, 551.898 L 780.597, 552.616 L 776.286, 550.64 L 775.926, 548.664 L 760.835, 542.376 L 757.961, 543.095 L 754.188, 541.478 L 753.11, 539.142 L 748.26, 537.166 L 751.673, 532.315 L 743.589, 528.902 L 738.019, 536.627 L 709.993, 524.949 z "/>
<path style="fill:rgb(0, 255, 0);fill-opacity:0;fill-rule:evenodd;stroke:rgb(0, 111, 255);stroke-width:1;" d="M 494.049, 725.803 L 533.214, 672.266 L 533.932, 672.446 L 536.807, 668.673 L 566.629, 681.249 L 560.88, 688.974 L 564.833, 690.591 L 553.694, 705.861 L 557.467, 707.478 L 551.179, 716.281 L 573.276, 725.444 L 571.48, 727.959 L 577.947, 730.833 L 570.043, 741.612 L 567.887, 744.487 L 562.138, 752.212 L 548.484, 746.463 L 547.227, 748.26 L 494.049, 725.803 z "/>
<path style="fill:rgb(0, 0, 255);fill-opacity:0;fill-rule:evenodd;stroke:rgb(0, 111, 255);stroke-width:1;" d="M 153.245, 669.212 L 164.024, 654.48 L 161.868, 653.582 L 164.024, 650.707 L 166.18, 651.606 L 181.271, 630.945 L 253.492, 661.487 L 240.018, 679.991 L 235.706, 678.194 L 221.154, 698.136 L 153.245, 669.212 z "/>
<path style="fill:rgb(255, 255, 0);fill-opacity:0;fill-rule:evenodd;stroke:rgb(0, 111, 255);stroke-width:1;" d="M 268.942, 482.551 L 284.033, 462.43 L 294.633, 466.921 L 292.836, 469.257 L 316.191, 479.497 L 333.079, 456.861 L 347.092, 462.969 L 346.014, 464.406 L 349.966, 466.023 L 351.044, 464.586 L 365.596, 470.874 L 349.427, 492.791 L 372.603, 502.672 L 374.399, 500.517 L 386.077, 505.367 L 370.447, 526.387 L 268.942, 482.551 z "/>
<path style="fill:rgb(255, 0, 0);fill-opacity:0;fill-rule:evenodd;stroke:rgb(0, 111, 255);stroke-width:1;" d="M 609.567, 186.84 L 640.467, 144.083 L 669.391, 156.299 L 683.943, 162.228 L 697.058, 167.797 L 666.337, 210.555 L 609.567, 186.84 z "/>
<path style="fill:rgb(0, 255, 0);fill-opacity:0;fill-rule:evenodd;stroke:rgb(0, 111, 255);stroke-width:1;" d="M 683.943, 162.228 L 715.203, 118.751 L 770.896, 142.825 L 754.009, 166.36 L 739.996, 185.762 L 705.322, 171.21 L 697.058, 167.797 L 683.943, 162.228 z "/>
<path style="fill:rgb(0, 0, 255);fill-opacity:0;fill-rule:evenodd;stroke:rgb(0, 111, 255);stroke-width:1;" d="M 571.66, 614.238 L 591.242, 587.649 L 610.106, 595.554 L 616.034, 587.469 L 596.991, 579.564 L 612.8, 557.826 L 638.311, 568.605 L 635.796, 572.019 L 660.768, 582.439 L 650.707, 596.093 L 637.772, 590.703 L 624.119, 609.207 L 635.616, 614.058 L 632.203, 618.729 L 639.748, 621.963 L 636.155, 626.813 L 628.071, 637.952 L 607.231, 629.329 L 612.8, 621.783 L 612.261, 619.987 L 612.261, 618.729 L 613.519, 617.112 L 607.77, 614.597 L 606.692, 616.393 L 605.255, 617.112 L 603.279, 617.471 L 597.709, 625.196 L 571.66, 614.238 z "/>
<path style="fill:rgb(255, 255, 0);fill-opacity:0;fill-rule:evenodd;stroke:rgb(0, 111, 255);stroke-width:1;" d="M 280.799, 288.165 L 311.161, 246.486 L 314.215, 247.923 L 315.832, 245.587 L 365.956, 266.607 L 343.499, 297.507 L 333.977, 310.622 L 311.52, 301.1 L 283.315, 289.243 L 280.799, 288.165 z "/>
<path style="fill:rgb(255, 0, 0);fill-opacity:0;fill-rule:evenodd;stroke:rgb(0, 111, 255);stroke-width:1;" d="M 85.5154, 652.684 L 88.5695, 648.372 L 96.4743, 637.772 L 99.7081, 633.281 L 103.301, 634.898 L 123.961, 606.692 L 167.977, 625.376 L 167.617, 625.915 L 176.78, 629.868 L 169.055, 640.287 L 158.814, 635.976 L 141.029, 660.409 L 149.113, 663.822 L 142.106, 673.523 L 140.31, 675.859 L 87.4916, 653.582 L 85.5154, 652.684 z "/>
<path style="fill:rgb(0, 255, 0);fill-opacity:0;fill-rule:evenodd;stroke:rgb(0, 111, 255);stroke-width:1;" d="M 225.646, 760.835 L 246.845, 731.911 L 250.797, 733.528 L 249.18, 735.684 L 314.395, 763.351 L 309.724, 769.638 L 311.52, 770.357 L 309.724, 772.872 L 322.659, 778.442 L 309.544, 796.407 L 305.951, 796.946 L 227.442, 763.89 L 225.646, 760.835 z "/>
<path style="fill:rgb(0, 0, 255);fill-opacity:0;fill-rule:evenodd;stroke:rgb(0, 111, 255);stroke-width:1;" d="M 511.116, 145.879 L 540.579, 104.918 L 596.272, 128.273 L 566.809, 169.055 L 511.116, 145.879 z "/>
<path style="fill:rgb(255, 255, 0);fill-opacity:0;fill-rule:evenodd;stroke:rgb(0, 111, 255);stroke-width:1;" d="M 662.565, 315.473 L 686.279, 282.776 L 683.225, 281.518 L 690.231, 271.637 L 701.55, 276.488 L 703.705, 276.128 L 709.814, 278.464 L 710.532, 277.566 L 699.034, 272.715 L 697.058, 272.895 L 684.123, 267.505 L 691.848, 256.905 L 741.972, 277.925 L 702.627, 332.181 L 700.651, 331.462 L 668.673, 317.988 L 662.565, 315.473 z M 714.664, 283.315 L 717.539, 284.572 L 721.132, 283.135 L 720.054, 281.159 L 717.179, 279.901 L 714.664, 283.315 z M 707.837, 293.375 L 709.814, 294.094 L 712.868, 293.914 L 711.251, 291.938 L 709.275, 291.219 L 707.837, 293.375 z M 702.268, 289.064 L 702.987, 291.219 L 705.322, 292.118 L 706.939, 289.782 L 702.807, 288.165 L 702.268, 289.064 z M 699.933, 303.795 L 702.627, 304.873 L 704.963, 304.514 L 703.885, 302.538 L 701.37, 301.639 L 699.933, 303.795 z M 694.004, 300.022 L 695.082, 301.999 L 697.238, 302.897 L 698.855, 300.741 L 696.519, 299.843 L 694.004, 300.022 z M 692.208, 314.754 L 694.902, 315.832 L 697.058, 315.473 L 696.16, 313.497 L 693.645, 312.598 L 692.208, 314.754 z M 686.279, 310.981 L 687.357, 312.958 L 689.513, 313.856 L 690.95, 311.7 L 688.794, 310.802 L 686.279, 310.981 z "/>
<path style="fill:rgb(255, 0, 0);fill-opacity:0;fill-rule:evenodd;stroke:rgb(0, 111, 255);stroke-width:1;" d="M 548.125, 249.719 L 566.629, 224.208 L 564.114, 223.13 L 575.432, 207.501 L 631.844, 231.395 L 619.268, 248.641 L 616.753, 250.079 L 600.764, 271.996 L 548.125, 249.719 z "/>
<path style="fill:rgb(0, 255, 0);fill-opacity:0;fill-rule:evenodd;stroke:rgb(0, 111, 255);stroke-width:1;" d="M 343.499, 297.507 L 365.956, 266.607 L 436.2, 296.25 L 413.564, 327.15 L 343.499, 297.507 z "/>
<path style="fill:rgb(0, 0, 255);fill-opacity:0;fill-rule:evenodd;stroke:rgb(0, 111, 255);stroke-width:1;" d="M 135.639, 283.494 L 136.358, 282.596 L 144.083, 271.817 L 148.754, 265.349 L 152.886, 259.78 L 170.671, 267.146 L 185.044, 247.384 L 223.669, 263.553 L 192.05, 307.209 L 135.639, 283.494 z "/>
<path style="fill:rgb(255, 255, 0);fill-opacity:0;fill-rule:evenodd;stroke:rgb(0, 111, 255);stroke-width:1;" d="M 670.829, 656.097 L 678.913, 644.779 L 681.069, 644.24 L 684.303, 639.748 L 684.123, 637.772 L 693.645, 624.658 L 698.316, 618.19 L 754.907, 642.084 L 749.338, 649.989 L 740.175, 662.205 L 738.019, 662.924 L 735.145, 667.056 L 735.504, 668.673 L 727.42, 679.811 L 670.829, 656.097 z M 729.755, 648.911 L 732.45, 649.989 L 734.606, 647.294 L 731.911, 646.036 L 729.755, 648.911 z M 719.156, 663.463 L 721.85, 664.541 L 724.006, 661.666 L 721.311, 660.588 L 719.156, 663.463 z M 704.783, 657.355 L 707.478, 658.433 L 709.634, 655.558 L 706.939, 654.48 L 704.783, 657.355 z M 701.19, 636.874 L 703.885, 637.952 L 706.041, 635.077 L 703.346, 634 L 701.19, 636.874 z M 690.77, 651.426 L 693.465, 652.504 L 695.621, 649.629 L 692.926, 648.552 L 690.77, 651.426 z "/>
<path style="fill:rgb(255, 0, 0);fill-opacity:0;fill-rule:evenodd;stroke:rgb(0, 111, 255);stroke-width:1;" d="M 583.876, 120.548 L 615.495, 76.892 L 617.471, 77.7903 L 618.549, 76.353 L 657.534, 92.7015 L 656.277, 94.3184 L 657.714, 94.8574 L 626.454, 138.334 L 625.915, 138.154 L 597.709, 126.297 L 583.876, 120.548 z "/>
<path style="fill:rgb(0, 255, 0);fill-opacity:0;fill-rule:evenodd;stroke:rgb(0, 111, 255);stroke-width:1;" d="M 626.454, 138.334 L 657.714, 94.8574 L 700.651, 112.823 L 669.391, 156.299 L 640.467, 144.083 L 626.454, 138.334 z "/>
<path style="fill:rgb(0, 0, 255);fill-opacity:0;fill-rule:evenodd;stroke:rgb(0, 111, 255);stroke-width:1;" d="M 268.942, 102.044 L 282.237, 83.7188 L 294.453, 88.9288 L 292.657, 91.444 L 297.148, 93.2405 L 298.945, 90.7254 L 338.289, 107.254 L 306.849, 150.55 L 274.152, 136.896 L 292.297, 111.745 L 268.942, 102.044 z "/>
<path style="fill:rgb(255, 255, 0);fill-opacity:0;fill-rule:evenodd;stroke:rgb(0, 111, 255);stroke-width:1;" d="M 666.337, 210.555 L 697.058, 167.797 L 705.322, 171.21 L 739.996, 185.762 L 725.264, 206.063 L 709.095, 228.52 L 666.337, 210.555 z "/>
<path style="fill:rgb(255, 0, 0);fill-opacity:0;fill-rule:evenodd;stroke:rgb(0, 111, 255);stroke-width:1;" d="M 608.668, 335.055 L 625.915, 311.52 L 646.755, 320.323 L 643.521, 324.635 L 656.277, 329.845 L 660.049, 324.455 L 662.924, 325.713 L 668.673, 317.988 L 700.651, 331.462 L 678.913, 361.464 L 667.415, 356.614 L 666.337, 358.23 L 664.002, 358.41 L 608.668, 335.055 z "/>
<path style="fill:rgb(0, 255, 0);fill-opacity:0;fill-rule:evenodd;stroke:rgb(0, 111, 255);stroke-width:1;" d="M 729.216, 753.649 L 738.199, 741.433 L 740.534, 740.534 L 743.229, 736.941 L 742.87, 734.965 L 751.314, 723.647 L 807.725, 747.361 L 799.461, 758.859 L 797.305, 759.219 L 794.251, 763.53 L 794.61, 765.506 L 785.628, 777.543 L 782.035, 775.926 L 779.699, 779.16 L 773.052, 776.465 L 775.387, 773.232 L 768.022, 770.177 L 765.686, 773.232 L 758.68, 770.357 L 761.015, 767.123 L 753.47, 763.89 L 751.134, 767.123 L 744.487, 764.249 L 746.822, 761.195 L 739.636, 758.141 L 737.301, 761.195 L 730.833, 758.5 L 733.169, 755.446 L 729.216, 753.649 z M 762.273, 755.086 L 766.764, 757.063 L 769.459, 753.29 L 765.147, 751.314 L 762.273, 755.086 z "/>
<path style="fill:rgb(0, 0, 255);fill-opacity:0;fill-rule:evenodd;stroke:rgb(0, 111, 255);stroke-width:1;" d="M 797.126, 634.898 L 802.336, 627.712 L 817.426, 607.051 L 818.864, 605.075 L 875.455, 628.79 L 867.011, 640.467 L 862.52, 646.755 L 853.717, 658.792 L 797.126, 634.898 z "/>
<path style="fill:rgb(255, 255, 0);fill-opacity:0;fill-rule:evenodd;stroke:rgb(0, 111, 255);stroke-width:1;" d="M 119.47, 128.273 L 127.914, 116.416 L 129.171, 116.955 L 131.687, 113.362 L 130.429, 112.823 L 141.208, 98.0912 L 198.159, 121.806 L 196.182, 124.68 L 189.535, 133.842 L 186.481, 134.561 L 184.505, 137.256 L 183.966, 138.154 L 184.864, 140.31 L 176.42, 152.167 L 119.47, 128.273 z M 139.951, 121.985 L 141.567, 122.704 L 143.723, 122.165 L 146.777, 118.033 L 146.238, 116.236 L 145.879, 116.057 L 143.903, 118.572 L 142.825, 118.033 L 139.951, 121.985 z M 169.234, 132.944 L 170.312, 134.741 L 172.288, 134.202 L 175.163, 130.07 L 174.983, 128.273 L 172.288, 128.453 L 169.234, 132.944 z M 155.76, 127.195 L 157.018, 128.632 L 158.635, 128.453 L 161.509, 123.961 L 161.15, 122.704 L 158.814, 122.883 L 155.76, 127.195 z "/>
<path style="fill:rgb(255, 0, 0);fill-opacity:0;fill-rule:evenodd;stroke:rgb(0, 111, 255);stroke-width:1;" d="M 133.842, 724.006 L 144.083, 709.814 L 159.353, 716.281 L 162.767, 711.61 L 156.658, 708.915 L 161.868, 701.909 L 160.072, 698.495 L 154.323, 695.98 L 158.994, 689.692 L 215.585, 713.586 L 210.734, 719.874 L 204.626, 717.359 L 199.955, 717.718 L 194.565, 724.905 L 188.817, 722.389 L 185.223, 727.24 L 200.674, 733.887 L 190.433, 747.9 L 133.842, 724.006 z "/>
<path style="fill:rgb(0, 255, 0);fill-opacity:0;fill-rule:evenodd;stroke:rgb(0, 111, 255);stroke-width:1;" d="M 467.28, 127.554 L 477.7, 113.002 L 480.216, 114.08 L 499.259, 87.4916 L 532.315, 101.325 L 532.136, 101.505 L 510.757, 131.327 L 517.584, 134.202 L 509.679, 145.161 L 467.28, 127.554 z "/>
<path style="fill:rgb(0, 0, 255);fill-opacity:0;fill-rule:evenodd;stroke:rgb(0, 111, 255);stroke-width:1;" d="M 373.501, 382.843 L 380.867, 372.782 L 384.28, 374.22 L 404.761, 346.373 L 446.98, 364.159 L 436.919, 377.992 L 417.157, 369.728 L 409.791, 379.789 L 420.211, 384.101 L 409.791, 398.293 L 373.501, 382.843 z "/>
<path style="fill:rgb(255, 255, 0);fill-opacity:0;fill-rule:evenodd;stroke:rgb(0, 111, 255);stroke-width:1;" d="M 190.433, 747.9 L 200.674, 733.887 L 210.734, 719.874 L 215.585, 713.586 L 218.459, 709.454 L 246.845, 721.491 L 241.096, 729.396 L 246.845, 731.911 L 225.646, 760.835 L 224.568, 762.452 L 190.433, 747.9 z "/>
<path style="fill:rgb(255, 0, 0);fill-opacity:0;fill-rule:evenodd;stroke:rgb(0, 111, 255);stroke-width:1;" d="M 421.648, 403.324 L 432.068, 389.131 L 442.488, 393.622 L 449.854, 383.562 L 436.919, 377.992 L 446.98, 364.159 L 482.731, 379.43 L 462.25, 407.276 L 465.484, 408.713 L 458.118, 418.774 L 421.648, 403.324 z "/>
<path style="fill:rgb(0, 255, 0);fill-opacity:0;fill-rule:evenodd;stroke:rgb(0, 111, 255);stroke-width:1;" d="M 257.983, 553.155 L 278.823, 524.77 L 321.581, 542.915 L 300.921, 571.3 L 257.983, 553.155 z "/>
<path style="fill:rgb(0, 0, 255);fill-opacity:0;fill-rule:evenodd;stroke:rgb(0, 111, 255);stroke-width:1;" d="M 566.809, 169.055 L 596.272, 128.273 L 597.709, 126.297 L 625.915, 138.154 L 595.194, 180.912 L 566.809, 169.055 z "/>
<path style="fill:rgb(255, 255, 0);fill-opacity:0;fill-rule:evenodd;stroke:rgb(0, 111, 255);stroke-width:1;" d="M 343.858, 460.813 L 353.38, 447.878 L 375.477, 417.876 L 402.964, 429.553 L 395.239, 440.153 L 389.67, 447.878 L 381.046, 459.555 L 371.345, 472.49 L 343.858, 460.813 z "/>
<path style="fill:rgb(255, 0, 0);fill-opacity:0;fill-rule:evenodd;stroke:rgb(0, 111, 255);stroke-width:1;" d="M 485.066, 282.596 L 492.612, 272.176 L 498.9, 263.373 L 502.493, 258.343 L 505.547, 254.031 L 547.047, 271.278 L 526.566, 299.843 L 485.066, 282.596 z "/>
<path style="fill:rgb(0, 255, 0);fill-opacity:0;fill-rule:evenodd;stroke:rgb(0, 111, 255);stroke-width:1;" d="M 555.311, 311.88 L 575.971, 283.315 L 584.774, 270.918 L 613.16, 282.776 L 583.517, 323.557 L 555.311, 311.88 z "/>
<path style="fill:rgb(0, 0, 255);fill-opacity:0;fill-rule:evenodd;stroke:rgb(0, 111, 255);stroke-width:1;" d="M 56.0521, 396.856 L 72.4006, 374.399 L 79.9461, 377.633 L 92.5219, 382.843 L 92.7015, 385.358 L 103.121, 389.67 L 105.816, 389.311 L 126.297, 397.934 L 110.487, 419.672 L 56.0521, 396.856 z M 103.481, 397.215 L 104.379, 399.192 L 109.05, 401.168 L 112.104, 400.808 L 110.847, 398.832 L 105.996, 396.856 L 103.481, 397.215 z M 74.9158, 385.358 L 75.9937, 387.334 L 80.6647, 389.311 L 83.7188, 388.951 L 82.2816, 386.975 L 77.6106, 384.999 L 74.9158, 385.358 z "/>
<path style="fill:rgb(255, 255, 0);fill-opacity:0;fill-rule:evenodd;stroke:rgb(0, 111, 255);stroke-width:1;" d="M 489.737, 222.412 L 518.302, 183.427 L 547.586, 195.823 L 519.201, 234.808 L 489.737, 222.412 z "/>
<path style="fill:rgb(255, 0, 0);fill-opacity:0;fill-rule:evenodd;stroke:rgb(0, 111, 255);stroke-width:1;" d="M 517.763, 236.784 L 519.201, 234.808 L 547.586, 195.823 L 575.432, 207.501 L 564.114, 223.13 L 545.43, 248.462 L 517.763, 236.784 z "/>
<path style="fill:rgb(0, 255, 0);fill-opacity:0;fill-rule:evenodd;stroke:rgb(0, 111, 255);stroke-width:1;" d="M 234.988, 147.137 L 238.94, 141.747 L 249.001, 127.734 L 273.254, 137.974 L 274.152, 136.896 L 306.849, 150.55 L 292.118, 171.031 L 240.557, 149.472 L 234.988, 147.137 z "/>
<path style="fill:rgb(0, 0, 255);fill-opacity:0;fill-rule:evenodd;stroke:rgb(0, 111, 255);stroke-width:1;" d="M 406.018, 677.656 L 429.733, 645.497 L 463.148, 659.51 L 439.434, 691.848 L 406.018, 677.656 z "/>
<path style="fill:rgb(255, 255, 0);fill-opacity:0;fill-rule:evenodd;stroke:rgb(0, 111, 255);stroke-width:1;" d="M 604.536, 273.074 L 620.346, 251.516 L 619.268, 248.641 L 631.844, 231.395 L 660.948, 243.611 L 651.067, 257.265 L 648.192, 256.007 L 631.664, 278.644 L 634.539, 279.901 L 633.281, 281.518 L 629.149, 287.267 L 623.759, 284.932 L 625.915, 282.057 L 604.536, 273.074 z "/>
<path style="fill:rgb(255, 0, 0);fill-opacity:0;fill-rule:evenodd;stroke:rgb(0, 111, 255);stroke-width:1;" d="M 629.149, 287.267 L 633.281, 281.518 L 635.796, 282.596 L 653.582, 258.343 L 651.067, 257.265 L 660.948, 243.611 L 688.435, 255.289 L 658.971, 295.711 L 635.437, 285.83 L 633.101, 288.884 L 629.149, 287.267 z "/>
<path style="fill:rgb(0, 255, 0);fill-opacity:0;fill-rule:evenodd;stroke:rgb(0, 111, 255);stroke-width:1;" d="M 595.913, 706.939 L 600.943, 699.933 L 610.106, 687.357 L 612.261, 686.818 L 615.495, 682.327 L 615.136, 680.71 L 623.22, 669.571 L 651.606, 681.608 L 643.342, 692.926 L 641.186, 693.824 L 638.491, 697.417 L 638.671, 699.394 L 629.688, 711.61 L 624.298, 718.976 L 595.913, 706.939 z "/>
<path style="fill:rgb(0, 0, 255);fill-opacity:0;fill-rule:evenodd;stroke:rgb(0, 111, 255);stroke-width:1;" d="M 369.01, 528.183 L 370.447, 526.387 L 386.077, 505.367 L 396.856, 490.995 L 424.523, 502.852 L 396.856, 540.22 L 369.01, 528.183 z "/>
<path style="fill:rgb(255, 255, 0);fill-opacity:0;fill-rule:evenodd;stroke:rgb(0, 111, 255);stroke-width:1;" d="M 755.805, 691.848 L 763.89, 680.71 L 765.866, 680.171 L 769.279, 675.32 L 768.74, 674.062 L 778.082, 661.487 L 783.472, 654.121 L 796.587, 659.69 L 797.305, 658.792 L 799.281, 659.51 L 798.563, 660.409 L 811.318, 665.798 L 805.929, 673.164 L 796.766, 685.74 L 795.149, 686.279 L 791.736, 691.13 L 791.916, 692.567 L 783.651, 703.705 L 755.805, 691.848 z M 777.364, 685.021 L 777.903, 686.638 L 779.699, 686.099 L 783.292, 681.069 L 782.753, 679.991 L 780.957, 680.171 L 777.364, 685.021 z "/>
<path style="fill:rgb(255, 0, 0);fill-opacity:0;fill-rule:evenodd;stroke:rgb(0, 111, 255);stroke-width:1;" d="M 812.396, 715.742 L 820.481, 704.604 L 822.636, 704.065 L 826.23, 699.214 L 825.511, 697.777 L 834.494, 685.201 L 839.344, 678.733 L 862.52, 688.255 L 860.723, 690.591 L 866.472, 692.926 L 854.615, 709.095 L 851.92, 710.173 L 848.327, 715.024 L 848.866, 717 L 840.961, 727.779 L 812.396, 715.742 z "/>
<path style="fill:rgb(0, 255, 0);fill-opacity:0;fill-rule:evenodd;stroke:rgb(0, 111, 255);stroke-width:1;" d="M 301.999, 729.216 L 311.88, 715.922 L 318.347, 706.939 L 321.401, 708.197 L 323.018, 705.861 L 320.144, 704.604 L 327.15, 694.902 L 328.587, 692.926 L 356.793, 704.963 L 348.349, 716.461 L 345.655, 715.383 L 344.038, 717.718 L 346.553, 718.976 L 340.445, 727.42 L 330.204, 741.253 L 317.808, 736.043 L 316.91, 737.48 L 314.395, 736.402 L 315.473, 734.965 L 301.999, 729.216 z M 329.845, 711.79 L 335.594, 714.305 L 337.391, 711.969 L 331.462, 709.454 L 329.845, 711.79 z "/>
<path style="fill:rgb(0, 0, 255);fill-opacity:0;fill-rule:evenodd;stroke:rgb(0, 111, 255);stroke-width:1;" d="M 195.464, 205.884 L 201.572, 197.26 L 255.468, 219.897 L 239.838, 241.276 L 199.236, 224.208 L 201.392, 221.154 L 197.44, 219.537 L 201.213, 214.148 L 205.165, 215.944 L 208.578, 211.273 L 195.464, 205.884 z "/>
<path style="fill:rgb(255, 255, 0);fill-opacity:0;fill-rule:evenodd;stroke:rgb(0, 111, 255);stroke-width:1;" d="M 181.81, 241.276 L 185.583, 236.066 L 189.355, 237.503 L 193.488, 231.754 L 189.535, 230.137 L 193.128, 225.286 L 197.081, 226.903 L 199.236, 224.208 L 239.838, 241.276 L 223.669, 263.553 L 185.044, 247.384 L 183.068, 246.665 L 185.762, 243.072 L 181.81, 241.276 z "/>
<path style="fill:rgb(255, 0, 0);fill-opacity:0;fill-rule:evenodd;stroke:rgb(0, 111, 255);stroke-width:1;" d="M 79.9461, 377.633 L 95.0371, 356.793 L 106.715, 361.644 L 107.254, 363.62 L 114.619, 366.674 L 117.494, 366.135 L 141.927, 376.375 L 126.297, 397.934 L 105.816, 389.311 L 105.277, 386.975 L 94.6777, 382.484 L 92.5219, 382.843 L 79.9461, 377.633 z M 115.518, 376.016 L 126.297, 380.508 L 127.914, 378.172 L 117.135, 373.681 L 115.518, 376.016 z M 114.44, 385.358 L 114.619, 387.694 L 119.47, 389.67 L 120.728, 387.873 L 114.44, 385.358 z "/>
<path style="fill:rgb(0, 255, 0);fill-opacity:0;fill-rule:evenodd;stroke:rgb(0, 111, 255);stroke-width:1;" d="M 628.071, 637.952 L 636.155, 626.813 L 638.311, 626.095 L 641.545, 621.783 L 641.186, 619.807 L 652.145, 604.896 L 680.53, 616.753 L 678.194, 619.987 L 669.571, 631.844 L 667.236, 632.562 L 664.002, 637.054 L 664.361, 638.671 L 656.277, 649.989 L 628.071, 637.952 z "/>
<path style="fill:rgb(0, 0, 255);fill-opacity:0;fill-rule:evenodd;stroke:rgb(0, 111, 255);stroke-width:1;" d="M 299.843, 572.737 L 300.921, 571.3 L 321.581, 542.915 L 349.787, 554.592 L 349.068, 555.67 L 329.126, 582.978 L 327.869, 584.595 L 325.533, 583.517 L 323.916, 585.852 L 300.741, 576.151 L 302.358, 573.815 L 299.843, 572.737 z "/>
<path style="fill:rgb(255, 255, 0);fill-opacity:0;fill-rule:evenodd;stroke:rgb(0, 111, 255);stroke-width:1;" d="M 259.96, 626.454 L 278.823, 600.584 L 289.962, 585.313 L 296.609, 588.188 L 290.141, 596.991 L 306.849, 603.997 L 290.501, 626.274 L 296.25, 628.79 L 289.064, 638.671 L 259.96, 626.454 z "/>
<path style="fill:rgb(255, 0, 0);fill-opacity:0;fill-rule:evenodd;stroke:rgb(0, 111, 255);stroke-width:1;" d="M 112.464, 61.801 L 120.728, 50.3032 L 124.5, 51.9201 L 123.782, 52.998 L 128.273, 52.2794 L 138.154, 38.6256 L 135.998, 36.4698 L 132.046, 34.8529 L 139.771, 24.0737 L 167.438, 35.7512 L 159.533, 46.7101 L 153.964, 44.1949 L 152.167, 44.5542 L 142.645, 57.8486 L 143.544, 60.5435 L 148.574, 62.5196 L 140.669, 73.4786 L 112.464, 61.801 z "/>
<path style="fill:rgb(0, 255, 0);fill-opacity:0;fill-rule:evenodd;stroke:rgb(0, 111, 255);stroke-width:1;" d="M 140.669, 73.4786 L 148.574, 62.5196 L 152.706, 64.3162 L 157.018, 64.1365 L 166.719, 50.6625 L 164.024, 47.6084 L 163.485, 48.327 L 159.533, 46.7101 L 167.438, 35.7512 L 195.643, 47.6084 L 190.074, 55.5131 L 187.918, 58.3876 L 183.068, 56.2318 L 180.013, 56.9504 L 170.312, 70.4244 L 171.21, 70.7837 L 171.929, 72.221 L 176.42, 74.1972 L 168.516, 85.1561 L 140.669, 73.4786 z "/>
<path style="fill:rgb(0, 0, 255);fill-opacity:0;fill-rule:evenodd;stroke:rgb(0, 111, 255);stroke-width:1;" d="M 107.972, 270.739 L 115.877, 259.78 L 118.572, 258.882 L 121.446, 254.929 L 120.548, 253.492 L 128.812, 241.994 L 129.171, 241.635 L 132.585, 243.072 L 134.381, 240.557 L 141.567, 243.611 L 139.771, 245.947 L 146.777, 248.821 L 148.394, 246.845 L 155.581, 249.899 L 153.964, 251.875 L 157.557, 253.312 L 152.886, 259.78 L 148.754, 265.349 L 146.418, 265.888 L 143.184, 270.2 L 144.083, 271.817 L 136.358, 282.596 L 107.972, 270.739 z M 129.171, 264.271 L 130.249, 265.888 L 132.046, 265.529 L 135.28, 261.217 L 134.741, 259.6 L 132.405, 259.96 L 129.171, 264.271 z "/>
<path style="fill:rgb(255, 255, 0);fill-opacity:0;fill-rule:evenodd;stroke:rgb(0, 111, 255);stroke-width:1;" d="M 526.566, 299.843 L 547.047, 271.278 L 575.971, 283.315 L 555.311, 311.88 L 526.566, 299.843 z "/>
<path style="fill:rgb(255, 0, 0);fill-opacity:0;fill-rule:evenodd;stroke:rgb(0, 111, 255);stroke-width:1;" d="M 356.434, 596.452 L 359.308, 592.499 L 377.453, 567.707 L 405.3, 579.385 L 384.28, 608.309 L 356.434, 596.452 z "/>
<path style="fill:rgb(0, 255, 0);fill-opacity:0;fill-rule:evenodd;stroke:rgb(0, 111, 255);stroke-width:1;" d="M 220.256, 171.57 L 228.7, 160.072 L 231.934, 161.329 L 283.494, 182.888 L 275.051, 194.565 L 220.256, 171.57 z "/>
<path style="fill:rgb(0, 0, 255);fill-opacity:0;fill-rule:evenodd;stroke:rgb(0, 111, 255);stroke-width:1;" d="M 669.391, 156.299 L 700.651, 112.823 L 715.203, 118.751 L 683.943, 162.228 L 669.391, 156.299 z "/>
<path style="fill:rgb(255, 255, 0);fill-opacity:0;fill-rule:evenodd;stroke:rgb(0, 111, 255);stroke-width:1;" d="M 409.073, 545.61 L 416.618, 535.549 L 420.391, 537.166 L 424.343, 534.291 L 422.547, 533.573 L 440.332, 509.499 L 454.884, 515.787 L 439.254, 536.986 L 434.583, 543.274 L 438.177, 544.711 L 430.631, 554.952 L 409.073, 545.61 z "/>
<path style="fill:rgb(255, 0, 0);fill-opacity:0;fill-rule:evenodd;stroke:rgb(0, 111, 255);stroke-width:1;" d="M 266.966, 421.289 L 284.932, 396.856 L 286.189, 397.395 L 287.087, 396.137 L 287.447, 393.982 L 282.955, 392.005 L 290.68, 381.585 L 312.598, 390.927 L 310.802, 393.622 L 305.592, 400.808 L 301.639, 399.012 L 299.483, 399.731 L 298.046, 401.527 L 299.663, 402.246 L 281.338, 427.397 L 266.966, 421.289 z "/>
<path style="fill:rgb(0, 255, 0);fill-opacity:0;fill-rule:evenodd;stroke:rgb(0, 111, 255);stroke-width:1;" d="M 231.934, 161.329 L 240.557, 149.472 L 292.118, 171.031 L 283.494, 182.888 L 231.934, 161.329 z "/>
<path style="fill:rgb(0, 0, 255);fill-opacity:0;fill-rule:evenodd;stroke:rgb(0, 111, 255);stroke-width:1;" d="M 595.194, 180.912 L 625.915, 138.154 L 626.454, 138.334 L 640.467, 144.083 L 609.567, 186.84 L 595.194, 180.912 z "/>
<path style="fill:rgb(255, 255, 0);fill-opacity:0;fill-rule:evenodd;stroke:rgb(0, 111, 255);stroke-width:1;" d="M 330.025, 218.28 L 338.468, 206.423 L 339.906, 206.962 L 350.865, 211.633 L 351.583, 213.968 L 356.973, 216.124 L 359.668, 215.405 L 369.189, 219.358 L 370.267, 221.873 L 389.131, 229.778 L 381.945, 239.838 L 330.025, 218.28 z "/>
<path style="fill:rgb(255, 0, 0);fill-opacity:0;fill-rule:evenodd;stroke:rgb(0, 111, 255);stroke-width:1;" d="M 242.533, 114.26 L 246.486, 108.511 L 245.767, 106.355 L 266.786, 77.2513 L 282.237, 83.7188 L 268.942, 102.044 L 256.007, 120.009 L 242.533, 114.26 z "/>
<path style="fill:rgb(0, 255, 0);fill-opacity:0;fill-rule:evenodd;stroke:rgb(0, 111, 255);stroke-width:1;" d="M 616.214, 553.155 L 628.79, 536.088 L 662.744, 550.46 L 654.66, 561.419 L 648.731, 558.904 L 644.24, 565.012 L 616.214, 553.155 z "/>
<path style="fill:rgb(0, 0, 255);fill-opacity:0;fill-rule:evenodd;stroke:rgb(0, 111, 255);stroke-width:1;" d="M 559.443, 755.985 L 562.138, 752.212 L 567.887, 744.487 L 571.121, 745.744 L 573.097, 742.87 L 570.043, 741.612 L 577.947, 730.833 L 586.571, 718.976 L 601.482, 725.264 L 591.422, 739.097 L 584.954, 747.9 L 582.439, 747.002 L 581.181, 748.799 L 580.463, 749.697 L 582.798, 750.775 L 574.354, 762.452 L 559.443, 755.985 z "/>
<path style="fill:rgb(255, 255, 0);fill-opacity:0;fill-rule:evenodd;stroke:rgb(0, 111, 255);stroke-width:1;" d="M 84.4375, 556.569 L 93.0609, 545.071 L 127.195, 559.443 L 137.795, 563.934 L 129.171, 575.612 L 84.4375, 556.569 z "/>
<path style="fill:rgb(255, 0, 0);fill-opacity:0;fill-rule:evenodd;stroke:rgb(0, 111, 255);stroke-width:1;" d="M 413.384, 105.098 L 421.289, 94.1388 L 430.811, 98.0912 L 432.607, 98.9894 L 433.146, 100.786 L 439.614, 103.481 L 442.129, 102.942 L 445.542, 104.379 L 452.369, 107.254 L 453.088, 108.87 L 471.233, 116.416 L 464.047, 126.297 L 413.384, 105.098 z "/>
<path style="fill:rgb(0, 255, 0);fill-opacity:0;fill-rule:evenodd;stroke:rgb(0, 111, 255);stroke-width:1;" d="M 652.504, 564.473 L 654.66, 561.419 L 662.744, 550.46 L 669.032, 541.657 L 691.309, 551.179 L 674.781, 573.815 L 652.504, 564.473 z "/>
<path style="fill:rgb(0, 0, 255);fill-opacity:0;fill-rule:evenodd;stroke:rgb(0, 111, 255);stroke-width:1;" d="M 226.364, 107.254 L 234.089, 96.4743 L 236.425, 95.9353 L 245.228, 83.7188 L 245.048, 81.9223 L 247.563, 78.5089 L 252.594, 71.3227 L 266.786, 77.2513 L 245.767, 106.355 L 243.252, 107.254 L 239.299, 112.823 L 226.364, 107.254 z "/>
<path style="fill:rgb(255, 255, 0);fill-opacity:0;fill-rule:evenodd;stroke:rgb(0, 111, 255);stroke-width:1;" d="M 234.089, 688.075 L 240.018, 679.991 L 253.492, 661.487 L 271.637, 669.212 L 270.38, 670.829 L 254.929, 691.848 L 252.055, 695.801 L 243.252, 692.028 L 242.353, 693.106 L 240.377, 692.387 L 241.276, 691.13 L 234.089, 688.075 z "/>
<path style="fill:rgb(255, 0, 0);fill-opacity:0;fill-rule:evenodd;stroke:rgb(0, 111, 255);stroke-width:1;" d="M 441.41, 264.451 L 448.237, 254.929 L 448.596, 255.109 L 450.213, 252.953 L 452.549, 252.594 L 455.423, 248.821 L 455.244, 246.486 L 462.071, 236.964 L 464.406, 236.245 L 468.179, 230.856 L 479.497, 235.527 L 475.724, 240.737 L 475.904, 243.252 L 469.616, 252.055 L 466.921, 252.773 L 463.867, 257.085 L 464.406, 259.241 L 456.142, 270.739 L 441.41, 264.451 z "/>
<path style="fill:rgb(0, 255, 0);fill-opacity:0;fill-rule:evenodd;stroke:rgb(0, 111, 255);stroke-width:1;" d="M 574.354, 762.452 L 582.798, 750.775 L 585.134, 751.853 L 587.289, 748.978 L 584.954, 747.9 L 591.422, 739.097 L 594.655, 738.199 L 603.458, 725.982 L 613.699, 730.294 L 604.896, 742.511 L 605.435, 744.846 L 598.967, 754.009 L 596.452, 752.931 L 594.655, 755.446 L 596.991, 756.524 L 588.367, 768.201 L 574.354, 762.452 z "/>
<path style="fill:rgb(0, 0, 255);fill-opacity:0;fill-rule:evenodd;stroke:rgb(0, 111, 255);stroke-width:1;" d="M 398.653, 246.665 L 405.659, 237.143 L 407.995, 236.784 L 411.408, 232.113 L 410.689, 229.957 L 412.845, 226.903 L 415.72, 226.185 L 426.858, 210.375 L 438.177, 215.046 L 426.858, 230.676 L 427.577, 232.652 L 424.882, 236.245 L 422.726, 236.605 L 419.492, 241.096 L 420.031, 243.072 L 413.025, 252.773 L 398.653, 246.665 z "/>
<path style="fill:rgb(255, 255, 0);fill-opacity:0;fill-rule:evenodd;stroke:rgb(0, 111, 255);stroke-width:1;" d="M 329.126, 582.978 L 349.068, 555.67 L 365.057, 562.497 L 346.912, 587.289 L 345.116, 589.805 L 341.523, 588.188 L 339.726, 590.523 L 331.821, 587.289 L 333.438, 584.774 L 329.126, 582.978 z "/>
<path style="fill:rgb(255, 0, 0);fill-opacity:0;fill-rule:evenodd;stroke:rgb(0, 111, 255);stroke-width:1;" d="M 384.28, 608.309 L 405.3, 579.385 L 421.109, 586.032 L 400.09, 614.956 L 384.28, 608.309 z "/>
<path style="fill:rgb(0, 255, 0);fill-opacity:0;fill-rule:evenodd;stroke:rgb(0, 111, 255);stroke-width:1;" d="M 39.7036, 389.67 L 47.6084, 378.891 L 52.8183, 371.704 L 60.9028, 360.566 L 66.472, 353.02 L 80.4851, 358.769 L 69.5262, 373.86 L 66.6517, 372.782 L 50.8421, 394.341 L 39.7036, 389.67 z "/>
<path style="fill:rgb(0, 0, 255);fill-opacity:0;fill-rule:evenodd;stroke:rgb(0, 111, 255);stroke-width:1;" d="M 384.819, 240.916 L 391.646, 231.395 L 393.622, 230.676 L 397.036, 226.005 L 396.676, 224.388 L 399.371, 220.615 L 401.707, 220.256 L 413.205, 204.267 L 424.343, 208.938 L 412.666, 224.927 L 412.845, 226.903 L 410.689, 229.957 L 408.354, 230.676 L 404.94, 235.347 L 405.659, 237.143 L 398.653, 246.665 L 384.819, 240.916 z "/>
<path style="fill:rgb(255, 255, 0);fill-opacity:0;fill-rule:evenodd;stroke:rgb(0, 111, 255);stroke-width:1;" d="M 58.3876, 593.218 L 66.2924, 582.259 L 107.613, 599.686 L 99.5284, 610.645 L 58.3876, 593.218 z "/>
<path style="fill:rgb(255, 0, 0);fill-opacity:0;fill-rule:evenodd;stroke:rgb(0, 111, 255);stroke-width:1;" d="M 381.046, 459.555 L 389.67, 447.878 L 393.083, 447.159 L 393.083, 446.98 L 396.497, 442.488 L 395.239, 440.153 L 402.964, 429.553 L 417.696, 435.841 L 410.15, 446.441 L 407.815, 447.159 L 404.222, 452.01 L 404.402, 454.166 L 393.622, 468.718 L 383.741, 464.586 L 385.897, 461.711 L 381.046, 459.555 z "/>
<path style="fill:rgb(0, 255, 0);fill-opacity:0;fill-rule:evenodd;stroke:rgb(0, 111, 255);stroke-width:1;" d="M 450.213, 496.205 L 459.376, 483.629 L 458.837, 481.832 L 461.891, 477.88 L 464.765, 476.982 L 467.819, 472.67 L 466.742, 471.053 L 474.826, 460.094 L 488.48, 465.843 L 480.755, 476.623 L 478.239, 477.161 L 474.826, 481.832 L 475.545, 483.629 L 462.43, 501.415 L 450.213, 496.205 z "/>
<path style="fill:rgb(0, 0, 255);fill-opacity:0;fill-rule:evenodd;stroke:rgb(0, 111, 255);stroke-width:1;" d="M 170.492, 85.8747 L 183.786, 67.1907 L 183.247, 64.8552 L 185.044, 62.34 L 187.559, 61.9807 L 190.793, 57.4893 L 190.074, 55.5131 L 195.643, 47.6084 L 209.836, 53.5369 L 204.087, 61.4417 L 201.931, 62.1603 L 198.877, 66.2924 L 199.057, 68.4482 L 197.26, 70.7837 L 194.925, 71.5024 L 181.271, 90.366 L 170.492, 85.8747 z "/>
<path style="fill:rgb(255, 255, 0);fill-opacity:0;fill-rule:evenodd;stroke:rgb(0, 111, 255);stroke-width:1;" d="M 184.864, 91.8033 L 198.518, 73.1192 L 197.26, 70.7837 L 199.057, 68.4482 L 202.47, 67.7296 L 205.345, 63.5976 L 204.087, 61.4417 L 209.836, 53.5369 L 224.388, 59.6452 L 218.819, 67.3703 L 215.585, 68.0889 L 212.711, 72.0413 L 213.788, 74.3768 L 211.812, 77.0716 L 209.297, 77.7903 L 195.823, 96.4743 L 184.864, 91.8033 z "/>
<path style="fill:rgb(255, 0, 0);fill-opacity:0;fill-rule:evenodd;stroke:rgb(0, 111, 255);stroke-width:1;" d="M 544.172, 650.528 L 552.257, 639.569 L 593.038, 656.636 L 584.954, 667.775 L 581.181, 666.158 L 544.172, 650.528 z "/>
<path style="fill:rgb(0, 255, 0);fill-opacity:0;fill-rule:evenodd;stroke:rgb(0, 111, 255);stroke-width:1;" d="M 456.142, 270.739 L 464.406, 259.241 L 466.921, 258.702 L 470.335, 254.031 L 469.616, 252.055 L 475.904, 243.252 L 479.138, 242.174 L 482.91, 236.784 L 493.869, 241.276 L 490.097, 246.665 L 490.097, 249.18 L 483.629, 258.343 L 480.755, 258.702 L 477.7, 263.014 L 478.419, 265.17 L 470.335, 276.488 L 456.142, 270.739 z "/>
<path style="fill:rgb(0, 0, 255);fill-opacity:0;fill-rule:evenodd;stroke:rgb(0, 111, 255);stroke-width:1;" d="M 400.09, 614.956 L 421.109, 586.032 L 436.56, 592.499 L 415.54, 621.424 L 400.09, 614.956 z "/>
<path style="fill:rgb(255, 255, 0);fill-opacity:0;fill-rule:evenodd;stroke:rgb(0, 111, 255);stroke-width:1;" d="M 656.277, 649.989 L 664.361, 638.671 L 666.697, 638.132 L 669.751, 633.82 L 669.93, 633.64 L 669.571, 631.844 L 678.194, 619.987 L 681.788, 621.424 L 684.123, 618.37 L 686.818, 619.448 L 687.536, 618.549 L 688.974, 619.088 L 688.435, 619.987 L 691.489, 621.424 L 690.052, 623.22 L 693.645, 624.658 L 684.123, 637.772 L 681.608, 638.671 L 678.374, 642.982 L 678.913, 644.779 L 670.829, 656.097 L 656.277, 649.989 z "/>
<path style="fill:rgb(255, 0, 0);fill-opacity:0;fill-rule:evenodd;stroke:rgb(0, 111, 255);stroke-width:1;" d="M 852.1, 660.948 L 853.717, 658.792 L 862.52, 646.755 L 864.855, 646.575 L 867.909, 642.264 L 867.011, 640.467 L 875.455, 628.79 L 890.007, 634.898 L 881.563, 646.575 L 879.227, 647.114 L 876.173, 651.246 L 876.892, 652.863 L 866.472, 667.056 L 852.1, 660.948 z "/>
<path style="fill:rgb(0, 255, 0);fill-opacity:0;fill-rule:evenodd;stroke:rgb(0, 111, 255);stroke-width:1;" d="M 866.472, 667.056 L 876.892, 652.863 L 878.689, 652.324 L 881.743, 648.192 L 881.563, 646.575 L 890.007, 634.898 L 904.199, 641.006 L 895.756, 652.684 L 893.6, 653.043 L 890.546, 657.355 L 891.085, 658.971 L 880.844, 673.164 L 866.472, 667.056 z "/>
<path style="fill:rgb(0, 0, 255);fill-opacity:0;fill-rule:evenodd;stroke:rgb(0, 111, 255);stroke-width:1;" d="M 470.335, 276.488 L 478.419, 265.17 L 481.114, 264.631 L 484.348, 260.139 L 483.629, 258.343 L 490.097, 249.18 L 492.971, 248.102 L 496.744, 242.892 L 507.343, 247.204 L 503.211, 252.953 L 503.571, 254.57 L 501.594, 257.444 L 502.493, 258.343 L 498.9, 263.373 L 495.127, 264.092 L 491.713, 268.942 L 492.612, 272.176 L 485.066, 282.596 L 470.335, 276.488 z "/>
<path style="fill:rgb(255, 255, 0);fill-opacity:0;fill-rule:evenodd;stroke:rgb(0, 111, 255);stroke-width:1;" d="M 427.577, 258.702 L 434.404, 249.18 L 436.38, 248.641 L 439.614, 244.33 L 439.075, 241.815 L 441.051, 238.94 L 444.285, 238.401 L 455.783, 222.592 L 466.562, 227.083 L 455.244, 242.892 L 455.603, 244.33 L 453.088, 247.923 L 450.932, 248.641 L 447.698, 253.312 L 448.237, 254.929 L 441.41, 264.451 L 427.577, 258.702 z "/>
<path style="fill:rgb(255, 0, 0);fill-opacity:0;fill-rule:evenodd;stroke:rgb(0, 111, 255);stroke-width:1;" d="M 129.171, 575.612 L 137.795, 563.934 L 151.808, 544.711 L 166.18, 550.82 L 165.102, 552.437 L 144.083, 581.002 L 143.723, 581.72 L 129.171, 575.612 z "/>
<path style="fill:rgb(0, 255, 0);fill-opacity:0;fill-rule:evenodd;stroke:rgb(0, 111, 255);stroke-width:1;" d="M 741.433, 685.92 L 749.697, 674.601 L 751.853, 674.062 L 754.727, 670.11 L 754.368, 668.134 L 763.71, 655.378 L 767.483, 656.995 L 769.638, 653.941 L 776.645, 656.995 L 774.489, 659.87 L 778.082, 661.487 L 768.74, 674.062 L 767.123, 674.422 L 763.71, 679.272 L 763.89, 680.71 L 755.805, 691.848 L 741.433, 685.92 z "/>
<path style="fill:rgb(0, 0, 255);fill-opacity:0;fill-rule:evenodd;stroke:rgb(0, 111, 255);stroke-width:1;" d="M 393.622, 468.718 L 404.402, 454.166 L 406.737, 453.088 L 410.15, 448.237 L 410.15, 446.441 L 417.696, 435.841 L 432.068, 441.949 L 423.445, 453.627 L 421.648, 453.806 L 418.415, 458.298 L 418.954, 459.735 L 410.33, 471.592 L 409.971, 471.951 L 406.198, 470.335 L 404.042, 473.029 L 393.622, 468.718 z "/>
<path style="fill:rgb(255, 255, 0);fill-opacity:0;fill-rule:evenodd;stroke:rgb(0, 111, 255);stroke-width:1;" d="M 783.651, 703.705 L 791.916, 692.567 L 793.892, 692.028 L 797.485, 687.177 L 796.766, 685.74 L 805.929, 673.164 L 809.701, 674.781 L 811.857, 671.727 L 818.864, 674.781 L 816.708, 677.656 L 820.301, 679.272 L 811.139, 691.848 L 809.342, 692.208 L 805.929, 697.058 L 806.108, 698.495 L 798.024, 709.634 L 783.651, 703.705 z "/>
<path style="fill:rgb(255, 0, 0);fill-opacity:0;fill-rule:evenodd;stroke:rgb(0, 111, 255);stroke-width:1;" d="M 798.024, 709.634 L 806.108, 698.495 L 808.264, 697.956 L 811.857, 693.285 L 811.139, 691.848 L 820.301, 679.272 L 824.074, 680.889 L 826.23, 677.835 L 833.236, 680.889 L 831.08, 683.764 L 834.494, 685.201 L 825.511, 697.777 L 823.714, 698.316 L 820.121, 703.166 L 820.481, 704.604 L 812.396, 715.742 L 798.024, 709.634 z "/>
<path style="fill:rgb(0, 255, 0);fill-opacity:0;fill-rule:evenodd;stroke:rgb(0, 111, 255);stroke-width:1;" d="M 347.451, 196.542 L 355.176, 185.583 L 395.06, 202.111 L 387.155, 213.249 L 371.884, 206.782 L 369.189, 207.141 L 363.261, 204.626 L 362.362, 202.83 L 347.451, 196.542 z "/>
<path style="fill:rgb(0, 0, 255);fill-opacity:0;fill-rule:evenodd;stroke:rgb(0, 111, 255);stroke-width:1;" d="M 199.236, 97.9115 L 212.89, 79.0478 L 211.812, 77.0716 L 213.788, 74.3768 L 216.663, 73.6582 L 219.537, 69.7058 L 218.819, 67.3703 L 224.388, 59.6452 L 239.12, 65.7534 L 233.73, 73.2989 L 230.137, 73.6582 L 226.724, 78.5089 L 228.161, 80.8444 L 226.544, 83.3595 L 223.31, 83.3595 L 209.656, 102.223 L 199.236, 97.9115 z "/>
<path style="fill:rgb(255, 255, 0);fill-opacity:0;fill-rule:evenodd;stroke:rgb(0, 111, 255);stroke-width:1;" d="M 413.025, 252.773 L 420.031, 243.072 L 422.187, 242.713 L 425.421, 238.221 L 424.882, 236.245 L 427.577, 232.652 L 430.272, 232.293 L 441.59, 216.483 L 451.83, 220.795 L 440.512, 236.784 L 441.051, 238.94 L 439.075, 241.815 L 436.56, 242.713 L 433.146, 247.384 L 434.404, 249.18 L 427.577, 258.702 L 413.025, 252.773 z "/>
<path style="fill:rgb(255, 0, 0);fill-opacity:0;fill-rule:evenodd;stroke:rgb(0, 111, 255);stroke-width:1;" d="M 338.828, 442.129 L 347.99, 429.553 L 350.685, 428.655 L 353.38, 425.062 L 352.481, 423.445 L 361.105, 411.767 L 375.477, 417.876 L 353.38, 447.878 L 351.044, 446.98 L 349.787, 448.596 L 340.804, 444.644 L 341.702, 443.386 L 338.828, 442.129 z "/>
<path style="fill:rgb(0, 255, 0);fill-opacity:0;fill-rule:evenodd;stroke:rgb(0, 111, 255);stroke-width:1;" d="M 289.064, 638.671 L 296.25, 628.79 L 308.107, 612.621 L 312.059, 614.417 L 313.676, 612.261 L 321.401, 615.495 L 319.784, 617.471 L 324.455, 619.448 L 322.479, 621.963 L 305.232, 645.677 L 289.064, 638.671 z "/>
<path style="fill:rgb(0, 0, 255);fill-opacity:0;fill-rule:evenodd;stroke:rgb(0, 111, 255);stroke-width:1;" d="M 602.74, 774.309 L 611.543, 762.093 L 614.238, 763.351 L 615.854, 761.015 L 613.16, 759.937 L 619.807, 750.954 L 622.502, 749.517 L 628.79, 741.073 L 639.928, 745.744 L 633.64, 754.188 L 634, 756.883 L 627.352, 766.045 L 624.478, 764.788 L 622.861, 766.944 L 625.735, 768.201 L 616.932, 780.238 L 602.74, 774.309 z "/>
<path style="fill:rgb(255, 255, 0);fill-opacity:0;fill-rule:evenodd;stroke:rgb(0, 111, 255);stroke-width:1;" d="M 616.932, 780.238 L 625.735, 768.201 L 628.43, 769.279 L 630.047, 767.123 L 627.352, 766.045 L 634, 756.883 L 636.874, 755.625 L 642.982, 747.182 L 654.121, 751.853 L 647.833, 760.296 L 648.192, 762.991 L 641.725, 771.974 L 638.85, 770.716 L 637.054, 773.052 L 640.108, 774.13 L 631.125, 786.346 L 616.932, 780.238 z "/>
<path style="fill:rgb(255, 0, 0);fill-opacity:0;fill-rule:evenodd;stroke:rgb(0, 111, 255);stroke-width:1;" d="M 658.073, 723.647 L 667.056, 711.43 L 669.751, 710.532 L 672.266, 706.939 L 671.727, 704.963 L 680.171, 693.465 L 694.363, 699.573 L 685.92, 710.892 L 683.764, 711.79 L 681.249, 715.383 L 681.249, 717.359 L 672.266, 729.755 L 668.852, 728.318 L 666.697, 731.372 L 664.002, 730.294 L 663.463, 731.192 L 661.666, 730.474 L 662.385, 729.576 L 659.51, 728.318 L 661.846, 725.264 L 658.073, 723.647 z "/>
<path style="fill:rgb(0, 255, 0);fill-opacity:0;fill-rule:evenodd;stroke:rgb(0, 111, 255);stroke-width:1;" d="M 672.266, 729.755 L 681.249, 717.359 L 683.943, 716.64 L 686.638, 713.047 L 685.92, 710.892 L 694.363, 699.573 L 708.556, 705.502 L 700.292, 717 L 698.136, 717.898 L 695.441, 721.491 L 695.441, 723.467 L 686.459, 735.684 L 683.045, 734.247 L 680.889, 737.301 L 678.194, 736.223 L 677.656, 737.121 L 675.859, 736.402 L 676.578, 735.504 L 673.703, 734.426 L 676.039, 731.192 L 672.266, 729.755 z "/>
<path style="fill:rgb(0, 0, 255);fill-opacity:0;fill-rule:evenodd;stroke:rgb(0, 111, 255);stroke-width:1;" d="M 643.881, 717.718 L 652.863, 705.322 L 655.558, 704.604 L 658.073, 701.011 L 657.534, 699.034 L 665.798, 687.536 L 680.171, 693.465 L 671.727, 704.963 L 669.571, 705.861 L 667.056, 709.454 L 667.056, 711.43 L 658.073, 723.647 L 654.66, 722.21 L 652.324, 725.444 L 649.809, 724.186 L 649.091, 725.084 L 647.474, 724.366 L 648.013, 723.467 L 645.318, 722.389 L 647.653, 719.335 L 643.881, 717.718 z "/>
<path style="fill:rgb(255, 255, 0);fill-opacity:0;fill-rule:evenodd;stroke:rgb(0, 111, 255);stroke-width:1;" d="M 629.688, 711.61 L 638.671, 699.394 L 641.186, 698.495 L 643.881, 695.082 L 643.342, 692.926 L 651.606, 681.608 L 665.798, 687.536 L 657.534, 699.034 L 655.378, 699.933 L 652.684, 703.346 L 652.863, 705.322 L 643.881, 717.718 L 640.467, 716.281 L 638.132, 719.335 L 635.616, 718.257 L 634.898, 719.156 L 633.281, 718.437 L 633.82, 717.539 L 631.125, 716.281 L 633.281, 713.227 L 629.688, 711.61 z "/>
<path style="fill:rgb(255, 0, 0);fill-opacity:0;fill-rule:evenodd;stroke:rgb(0, 111, 255);stroke-width:1;" d="M 686.459, 735.684 L 695.441, 723.467 L 698.136, 722.569 L 700.831, 718.976 L 700.292, 717 L 708.556, 705.502 L 722.749, 711.61 L 714.485, 722.928 L 712.329, 723.827 L 709.634, 727.42 L 709.814, 729.396 L 700.831, 741.612 L 697.417, 740.355 L 695.082, 743.409 L 692.567, 742.331 L 691.848, 743.229 L 690.052, 742.331 L 690.77, 741.612 L 688.075, 740.355 L 690.231, 737.301 L 686.459, 735.684 z "/>
<path style="fill:rgb(0, 255, 0);fill-opacity:0;fill-rule:evenodd;stroke:rgb(0, 111, 255);stroke-width:1;" d="M 588.367, 768.201 L 596.991, 756.524 L 599.686, 757.602 L 601.662, 755.086 L 598.967, 754.009 L 605.435, 744.846 L 608.309, 743.589 L 614.417, 735.145 L 625.556, 739.816 L 619.448, 748.26 L 619.807, 750.954 L 613.16, 759.937 L 610.285, 758.68 L 608.668, 761.015 L 611.543, 762.093 L 602.74, 774.309 L 588.367, 768.201 z "/>
<path style="fill:rgb(0, 0, 255);fill-opacity:0;fill-rule:evenodd;stroke:rgb(0, 111, 255);stroke-width:1;" d="M 436.38, 490.456 L 446.441, 476.623 L 444.824, 475.904 L 447.878, 471.772 L 450.213, 471.053 L 453.088, 467.101 L 452.369, 465.484 L 460.813, 454.166 L 474.826, 460.094 L 466.742, 471.053 L 464.765, 471.413 L 461.711, 475.724 L 461.891, 477.88 L 458.837, 481.832 L 456.142, 482.192 L 446.98, 494.768 L 436.38, 490.456 z "/>
<path style="fill:rgb(255, 255, 0);fill-opacity:0;fill-rule:evenodd;stroke:rgb(0, 111, 255);stroke-width:1;" d="M 700.831, 741.612 L 709.814, 729.396 L 712.508, 728.677 L 715.024, 725.084 L 714.485, 722.928 L 722.749, 711.61 L 737.121, 717.539 L 728.677, 729.037 L 726.521, 729.935 L 723.827, 733.528 L 724.006, 735.504 L 715.024, 747.721 L 711.61, 746.283 L 709.275, 749.338 L 702.268, 746.463 L 704.424, 743.229 L 700.831, 741.612 z "/>
<path style="fill:rgb(255, 0, 0);fill-opacity:0;fill-rule:evenodd;stroke:rgb(0, 111, 255);stroke-width:1;" d="M 715.024, 747.721 L 724.006, 735.504 L 726.701, 734.606 L 729.216, 731.013 L 728.677, 729.037 L 737.121, 717.539 L 751.314, 723.647 L 742.87, 734.965 L 740.714, 735.863 L 738.199, 739.457 L 738.199, 741.433 L 729.216, 753.649 L 725.803, 752.212 L 723.467, 755.446 L 716.461, 752.392 L 718.796, 749.338 L 715.024, 747.721 z "/>
<path style="fill:rgb(0, 255, 0);fill-opacity:0;fill-rule:evenodd;stroke:rgb(0, 111, 255);stroke-width:1;" d="M 105.637, 200.674 L 111.925, 191.871 L 110.667, 190.074 L 117.494, 180.732 L 119.29, 178.037 L 127.914, 166.18 L 141.927, 172.109 L 134.741, 182.169 L 129.89, 188.637 L 124.68, 196.003 L 122.344, 196.362 L 116.057, 205.165 L 105.637, 200.674 z "/>
<path style="fill:rgb(0, 0, 255);fill-opacity:0;fill-rule:evenodd;stroke:rgb(0, 111, 255);stroke-width:1;" d="M 727.42, 679.811 L 735.504, 668.673 L 737.48, 667.954 L 740.534, 664.002 L 740.175, 662.205 L 749.338, 649.989 L 752.751, 651.426 L 755.086, 648.192 L 757.422, 649.27 L 758.141, 648.192 L 759.937, 649.091 L 759.219, 649.989 L 761.913, 651.067 L 759.937, 653.762 L 763.71, 655.378 L 754.368, 668.134 L 752.212, 669.032 L 749.338, 672.985 L 749.697, 674.601 L 741.433, 685.92 L 727.42, 679.811 z "/>
<path style="fill:rgb(255, 255, 0);fill-opacity:0;fill-rule:evenodd;stroke:rgb(0, 111, 255);stroke-width:1;" d="M 50.6625, 603.818 L 58.3876, 593.218 L 99.5284, 610.645 L 91.9829, 621.244 L 84.4375, 618.01 L 50.6625, 603.818 z "/>
<path style="fill:rgb(255, 0, 0);fill-opacity:0;fill-rule:evenodd;stroke:rgb(0, 111, 255);stroke-width:1;" d="M 355.176, 185.583 L 363.261, 174.624 L 402.964, 191.152 L 395.06, 202.111 L 355.176, 185.583 z "/>
<path style="fill:rgb(0, 255, 0);fill-opacity:0;fill-rule:evenodd;stroke:rgb(0, 111, 255);stroke-width:1;" d="M 47.9677, 98.4505 L 55.5131, 87.8509 L 57.669, 87.3119 L 61.4417, 82.2816 L 60.9028, 80.6647 L 70.9634, 66.6517 L 85.3357, 72.7599 L 75.2751, 86.5933 L 72.5803, 86.9526 L 68.8075, 92.1626 L 69.8855, 93.9591 L 62.34, 104.379 L 47.9677, 98.4505 z "/>
<path style="fill:rgb(0, 0, 255);fill-opacity:0;fill-rule:evenodd;stroke:rgb(0, 111, 255);stroke-width:1;" d="M 241.276, 474.287 L 249.899, 462.789 L 252.414, 463.867 L 254.39, 460.993 L 252.055, 459.915 L 258.522, 451.291 L 261.217, 450.213 L 267.864, 441.59 L 278.284, 446.081 L 271.637, 454.884 L 272.895, 457.4 L 266.068, 466.382 L 262.295, 464.765 L 260.499, 467.28 L 264.271, 468.897 L 255.648, 480.575 L 241.276, 474.287 z "/>
<path style="fill:rgb(255, 255, 0);fill-opacity:0;fill-rule:evenodd;stroke:rgb(0, 111, 255);stroke-width:1;" d="M 444.824, 61.4417 L 452.908, 50.3032 L 453.806, 50.8421 L 462.25, 54.2556 L 463.148, 56.5911 L 469.077, 59.1062 L 471.413, 58.0283 L 476.802, 60.3638 L 475.006, 62.879 L 484.168, 66.6517 L 485.965, 64.1365 L 497.822, 69.1669 L 489.917, 80.3054 L 478.958, 75.6344 L 480.575, 73.4786 L 470.694, 69.3465 L 469.077, 71.5024 L 464.765, 69.7058 L 463.328, 67.55 L 457.579, 65.2145 L 455.064, 65.7534 L 444.824, 61.4417 z "/>
<path style="fill:rgb(255, 0, 0);fill-opacity:0;fill-rule:evenodd;stroke:rgb(0, 111, 255);stroke-width:1;" d="M 429.014, 83.3595 L 436.919, 72.4006 L 447.159, 76.7123 L 447.339, 78.1496 L 453.806, 80.8444 L 456.501, 80.3054 L 461.352, 82.2816 L 459.555, 84.6171 L 469.257, 88.7492 L 471.053, 86.234 L 482.192, 90.905 L 474.107, 102.223 L 463.148, 97.7319 L 464.945, 95.2167 L 455.064, 91.0847 L 453.447, 93.5998 L 448.057, 91.444 L 447.878, 89.2881 L 441.949, 86.773 L 439.614, 87.3119 L 439.434, 87.6712 L 429.014, 83.3595 z "/>
<path style="fill:rgb(0, 255, 0);fill-opacity:0;fill-rule:evenodd;stroke:rgb(0, 111, 255);stroke-width:1;" d="M 212.89, 103.66 L 225.646, 85.8747 L 227.263, 84.9764 L 226.544, 83.3595 L 228.161, 80.8444 L 231.035, 80.3054 L 234.449, 75.4547 L 233.73, 73.2989 L 239.12, 65.7534 L 252.594, 71.3227 L 247.563, 78.5089 L 244.15, 79.7664 L 241.455, 83.5392 L 241.815, 86.234 L 239.659, 89.2881 L 236.964, 89.6474 L 223.669, 108.152 L 212.89, 103.66 z "/>
<path style="fill:rgb(0, 0, 255);fill-opacity:0;fill-rule:evenodd;stroke:rgb(0, 111, 255);stroke-width:1;" d="M 415.54, 621.424 L 436.56, 592.499 L 451.471, 598.967 L 430.451, 627.712 L 415.54, 621.424 z "/>
<path style="fill:rgb(255, 255, 0);fill-opacity:0;fill-rule:evenodd;stroke:rgb(0, 111, 255);stroke-width:1;" d="M 424.702, 477.161 L 432.967, 466.023 L 434.943, 465.484 L 438.356, 461.172 L 437.817, 459.555 L 446.261, 448.057 L 460.813, 454.166 L 452.369, 465.484 L 450.034, 465.843 L 447.159, 469.796 L 447.878, 471.772 L 444.824, 475.904 L 439.254, 483.449 L 434.943, 481.832 L 432.787, 484.527 L 426.499, 481.832 L 428.655, 478.958 L 424.702, 477.161 z "/>
<path style="fill:rgb(255, 0, 0);fill-opacity:0;fill-rule:evenodd;stroke:rgb(0, 111, 255);stroke-width:1;" d="M 79.2275, 258.522 L 86.5933, 248.462 L 88.3898, 247.923 L 91.9829, 243.072 L 91.9829, 241.455 L 99.8877, 230.496 L 100.606, 229.598 L 104.379, 231.035 L 105.816, 229.239 L 112.823, 232.113 L 111.565, 233.73 L 115.338, 235.347 L 106.535, 247.743 L 104.379, 248.282 L 101.684, 251.695 L 102.044, 253.672 L 93.9591, 264.81 L 79.2275, 258.522 z "/>
<path style="fill:rgb(0, 255, 0);fill-opacity:0;fill-rule:evenodd;stroke:rgb(0, 111, 255);stroke-width:1;" d="M 63.2383, 182.888 L 69.5262, 174.085 L 68.6279, 172.288 L 72.4006, 166.899 L 75.2751, 162.946 L 78.1496, 164.024 L 79.9461, 161.509 L 77.0716, 160.431 L 77.7903, 159.353 L 85.695, 148.574 L 100.067, 154.503 L 91.2643, 166.539 L 88.2102, 165.102 L 86.4137, 167.617 L 89.4678, 168.875 L 82.6409, 178.397 L 80.1258, 178.756 L 73.8379, 187.379 L 63.2383, 182.888 z "/>
<path style="fill:rgb(0, 0, 255);fill-opacity:0;fill-rule:evenodd;stroke:rgb(0, 111, 255);stroke-width:1;" d="M 171.57, 519.38 L 194.026, 488.839 L 208.04, 494.768 L 187.2, 523.333 L 185.762, 525.309 L 171.57, 519.38 z "/>
<path style="fill:rgb(255, 255, 0);fill-opacity:0;fill-rule:evenodd;stroke:rgb(0, 111, 255);stroke-width:1;" d="M 363.261, 174.624 L 370.986, 163.845 L 410.689, 180.373 L 402.964, 191.152 L 363.261, 174.624 z "/>
<path style="fill:rgb(255, 0, 0);fill-opacity:0;fill-rule:evenodd;stroke:rgb(0, 111, 255);stroke-width:1;" d="M 33.775, 92.5219 L 41.5001, 81.9223 L 43.8356, 81.563 L 47.6084, 76.353 L 46.8897, 74.3768 L 56.7707, 60.7231 L 70.9634, 66.6517 L 60.9028, 80.6647 L 58.2079, 80.8444 L 54.4352, 86.0543 L 55.5131, 87.8509 L 47.9677, 98.4505 L 33.775, 92.5219 z "/>
<path style="fill:rgb(0, 255, 0);fill-opacity:0;fill-rule:evenodd;stroke:rgb(0, 111, 255);stroke-width:1;" d="M 410.33, 471.592 L 418.954, 459.735 L 421.109, 459.376 L 424.343, 455.064 L 423.445, 453.627 L 432.068, 441.949 L 446.261, 448.057 L 437.817, 459.555 L 436.021, 460.094 L 432.787, 464.586 L 432.967, 466.023 L 424.702, 477.161 L 421.289, 475.724 L 419.133, 478.778 L 412.486, 475.904 L 414.462, 473.209 L 410.33, 471.592 z "/>
<path style="fill:rgb(0, 0, 255);fill-opacity:0;fill-rule:evenodd;stroke:rgb(0, 111, 255);stroke-width:1;" d="M 120.728, 201.392 L 124.68, 196.003 L 129.89, 188.637 L 132.585, 188.637 L 135.819, 184.146 L 134.741, 182.169 L 141.927, 172.109 L 156.838, 178.397 L 149.293, 188.817 L 146.598, 189.176 L 143.723, 193.308 L 144.442, 195.464 L 135.819, 207.321 L 131.866, 205.524 L 130.249, 207.86 L 123.422, 204.985 L 124.86, 203.009 L 120.728, 201.392 z "/>
<path style="fill:rgb(255, 255, 0);fill-opacity:0;fill-rule:evenodd;stroke:rgb(0, 111, 255);stroke-width:1;" d="M 227.442, 468.538 L 244.869, 445.183 L 247.204, 444.824 L 254.211, 435.661 L 264.451, 439.973 L 257.804, 448.776 L 258.522, 451.291 L 252.055, 459.915 L 249.18, 458.657 L 247.024, 461.532 L 249.899, 462.789 L 241.276, 474.287 L 227.442, 468.538 z "/>
<path style="fill:rgb(255, 0, 0);fill-opacity:0;fill-rule:evenodd;stroke:rgb(0, 111, 255);stroke-width:1;" d="M 62.34, 104.379 L 69.8855, 93.9591 L 72.0413, 93.5998 L 75.8141, 88.3898 L 75.2751, 86.5933 L 85.3357, 72.7599 L 99.3488, 78.5089 L 98.2708, 80.1258 L 89.2881, 92.5219 L 86.5933, 93.0609 L 83.0002, 98.0912 L 83.8985, 99.8877 L 76.353, 110.308 L 62.34, 104.379 z "/>
<path style="fill:rgb(0, 255, 0);fill-opacity:0;fill-rule:evenodd;stroke:rgb(0, 111, 255);stroke-width:1;" d="M 326.252, 434.224 L 333.618, 424.163 L 336.133, 423.804 L 339.726, 418.774 L 339.007, 416.977 L 347.092, 405.839 L 361.105, 411.767 L 352.481, 423.445 L 350.865, 424.163 L 348.349, 427.757 L 347.99, 429.553 L 338.828, 442.129 L 336.492, 441.051 L 335.055, 443.207 L 326.432, 439.434 L 329.306, 435.661 L 326.252, 434.224 z "/>
<path style="fill:rgb(0, 0, 255);fill-opacity:0;fill-rule:evenodd;stroke:rgb(0, 111, 255);stroke-width:1;" d="M 91.444, 194.925 L 97.9115, 186.122 L 96.8336, 183.966 L 103.481, 174.804 L 106.355, 176.061 L 108.331, 173.546 L 105.457, 172.288 L 114.08, 160.431 L 127.914, 166.18 L 119.29, 178.037 L 116.955, 177.139 L 114.979, 179.834 L 117.494, 180.732 L 110.667, 190.074 L 108.152, 190.793 L 101.864, 199.416 L 91.444, 194.925 z "/>
<path style="fill:rgb(255, 255, 0);fill-opacity:0;fill-rule:evenodd;stroke:rgb(0, 111, 255);stroke-width:1;" d="M 158.814, 587.11 L 179.654, 558.724 L 194.386, 564.833 L 173.546, 593.398 L 158.814, 587.11 z "/>
<path style="fill:rgb(255, 0, 0);fill-opacity:0;fill-rule:evenodd;stroke:rgb(0, 111, 255);stroke-width:1;" d="M 436.919, 72.4006 L 444.824, 61.4417 L 455.064, 65.7534 L 455.423, 67.3703 L 461.532, 69.8855 L 464.765, 69.7058 L 469.077, 71.5024 L 467.46, 73.8379 L 477.341, 77.9699 L 478.958, 75.6344 L 489.917, 80.3054 L 482.192, 90.905 L 471.053, 86.234 L 472.67, 84.0781 L 462.969, 79.9461 L 461.352, 82.2816 L 456.501, 80.3054 L 455.603, 78.5089 L 449.135, 75.8141 L 447.159, 76.7123 L 436.919, 72.4006 z "/>
<path style="fill:rgb(0, 255, 0);fill-opacity:0;fill-rule:evenodd;stroke:rgb(0, 111, 255);stroke-width:1;" d="M 77.2513, 188.817 L 83.5392, 180.013 L 82.6409, 178.397 L 89.4678, 168.875 L 92.5219, 170.132 L 94.3184, 167.797 L 91.2643, 166.539 L 100.067, 154.503 L 114.08, 160.431 L 105.457, 172.288 L 101.505, 170.671 L 99.5284, 173.187 L 103.481, 174.804 L 96.8336, 183.966 L 93.7795, 184.684 L 87.6712, 193.128 L 77.2513, 188.817 z "/>
<path style="fill:rgb(0, 0, 255);fill-opacity:0;fill-rule:evenodd;stroke:rgb(0, 111, 255);stroke-width:1;" d="M 421.289, 94.1388 L 429.014, 83.3595 L 439.434, 87.6712 L 440.153, 89.4678 L 446.261, 91.9829 L 448.057, 91.444 L 453.447, 93.5998 L 451.83, 95.7557 L 461.532, 99.8877 L 463.148, 97.7319 L 474.107, 102.223 L 466.382, 112.823 L 455.423, 108.152 L 456.681, 106.176 L 446.98, 102.223 L 445.542, 104.379 L 442.129, 102.942 L 440.512, 102.223 L 440.153, 100.247 L 434.224, 97.7319 L 430.811, 98.0912 L 421.289, 94.1388 z "/>
<path style="fill:rgb(255, 255, 0);fill-opacity:0;fill-rule:evenodd;stroke:rgb(0, 111, 255);stroke-width:1;" d="M 76.353, 110.308 L 83.8985, 99.8877 L 84.7968, 98.6301 L 86.5933, 99.5284 L 89.4678, 95.7557 L 87.4916, 94.8574 L 89.2881, 92.5219 L 98.2708, 80.1258 L 112.643, 86.0543 L 101.864, 100.786 L 100.067, 100.067 L 97.3726, 103.66 L 99.3488, 104.559 L 90.7254, 116.236 L 76.353, 110.308 z "/>
<path style="fill:rgb(255, 0, 0);fill-opacity:0;fill-rule:evenodd;stroke:rgb(0, 111, 255);stroke-width:1;" d="M 50.1235, 171.749 L 58.2079, 160.611 L 60.0045, 159.713 L 63.2383, 155.221 L 62.879, 154.143 L 71.3227, 142.466 L 85.695, 148.574 L 77.7903, 159.353 L 75.0954, 160.431 L 71.8617, 164.743 L 72.4006, 166.899 L 68.6279, 172.288 L 64.4958, 177.858 L 60.1841, 176.061 L 58.5673, 178.217 L 52.459, 175.522 L 54.0759, 173.546 L 50.1235, 171.749 z "/>
<path style="fill:rgb(0, 255, 0);fill-opacity:0;fill-rule:evenodd;stroke:rgb(0, 111, 255);stroke-width:1;" d="M 135.819, 207.321 L 144.442, 195.464 L 146.598, 194.565 L 149.832, 190.074 L 149.293, 188.817 L 156.838, 178.397 L 171.39, 184.684 L 163.845, 195.104 L 160.97, 195.104 L 157.916, 199.236 L 158.994, 201.572 L 150.011, 213.609 L 145.879, 211.812 L 144.262, 213.968 L 137.435, 211.094 L 139.232, 208.578 L 135.819, 207.321 z "/>
<path style="fill:rgb(0, 0, 255);fill-opacity:0;fill-rule:evenodd;stroke:rgb(0, 111, 255);stroke-width:1;" d="M 105.098, 122.344 L 113.541, 110.667 L 114.979, 111.206 L 117.853, 107.433 L 116.236, 106.894 L 127.015, 91.9829 L 141.208, 98.0912 L 130.429, 112.823 L 128.453, 112.104 L 125.938, 115.518 L 127.914, 116.416 L 119.47, 128.273 L 105.098, 122.344 z "/>
<path style="fill:rgb(255, 255, 0);fill-opacity:0;fill-rule:evenodd;stroke:rgb(0, 111, 255);stroke-width:1;" d="M 370.986, 163.845 L 378.531, 153.245 L 413.025, 167.617 L 418.415, 169.773 L 410.689, 180.373 L 370.986, 163.845 z "/>
<path style="fill:rgb(255, 0, 0);fill-opacity:0;fill-rule:evenodd;stroke:rgb(0, 111, 255);stroke-width:1;" d="M 144.083, 581.002 L 165.102, 552.437 L 179.654, 558.724 L 158.814, 587.11 L 144.083, 581.002 z "/>
<path style="fill:rgb(0, 255, 0);fill-opacity:0;fill-rule:evenodd;stroke:rgb(0, 111, 255);stroke-width:1;" d="M 35.7512, 165.641 L 43.656, 154.862 L 46.1711, 154.503 L 49.7642, 149.472 L 48.8659, 147.496 L 56.9504, 136.537 L 71.3227, 142.466 L 62.879, 154.143 L 60.1841, 154.323 L 57.13, 158.635 L 58.2079, 160.611 L 50.1235, 171.749 L 46.8897, 170.492 L 44.9135, 172.827 L 38.6256, 170.312 L 40.4222, 167.617 L 35.7512, 165.641 z "/>
<path style="fill:rgb(0, 0, 255);fill-opacity:0;fill-rule:evenodd;stroke:rgb(0, 111, 255);stroke-width:1;" d="M 90.7254, 116.236 L 99.3488, 104.559 L 100.966, 105.277 L 103.481, 101.684 L 103.66, 101.505 L 101.864, 100.786 L 112.643, 86.0543 L 127.015, 91.9829 L 116.236, 106.894 L 114.26, 105.996 L 112.104, 108.87 L 111.386, 109.769 L 113.541, 110.667 L 105.098, 122.344 L 90.7254, 116.236 z "/>
<path style="fill:rgb(255, 255, 0);fill-opacity:0;fill-rule:evenodd;stroke:rgb(0, 111, 255);stroke-width:1;" d="M 83.7188, 632.383 L 91.9829, 621.244 L 99.5284, 610.645 L 107.613, 599.686 L 120.368, 605.075 L 99.7081, 633.281 L 96.4743, 637.772 L 83.7188, 632.383 z "/>
<path style="fill:rgb(255, 0, 0);fill-opacity:0;fill-rule:evenodd;stroke:rgb(0, 111, 255);stroke-width:1;" d="M 572.917, 688.075 L 582.079, 675.5 L 583.876, 674.781 L 587.289, 670.29 L 587.11, 668.852 L 595.194, 657.714 L 609.207, 663.642 L 601.123, 674.781 L 598.967, 675.32 L 595.733, 679.811 L 596.093, 681.428 L 586.93, 694.004 L 572.917, 688.075 z "/>
<path style="fill:rgb(0, 255, 0);fill-opacity:0;fill-rule:evenodd;stroke:rgb(0, 111, 255);stroke-width:1;" d="M 586.93, 694.004 L 596.093, 681.428 L 597.889, 680.71 L 601.302, 676.218 L 601.123, 674.781 L 609.207, 663.642 L 623.22, 669.571 L 615.136, 680.71 L 612.98, 681.249 L 609.746, 685.74 L 610.106, 687.357 L 600.943, 699.933 L 586.93, 694.004 z "/>
<path style="fill:rgb(0, 0, 255);fill-opacity:0;fill-rule:evenodd;stroke:rgb(0, 111, 255);stroke-width:1;" d="M 40.0629, 313.137 L 47.6084, 302.897 L 52.2794, 296.609 L 60.5435, 285.111 L 75.2751, 291.219 L 54.9742, 319.425 L 40.0629, 313.137 z "/>
<path style="fill:rgb(255, 255, 0);fill-opacity:0;fill-rule:evenodd;stroke:rgb(0, 111, 255);stroke-width:1;" d="M 215.765, 611.183 L 236.605, 582.798 L 250.977, 588.727 L 230.137, 617.292 L 215.765, 611.183 z "/>
<path style="fill:rgb(255, 0, 0);fill-opacity:0;fill-rule:evenodd;stroke:rgb(0, 111, 255);stroke-width:1;" d="M 187.2, 523.333 L 208.04, 494.768 L 222.412, 500.876 L 201.572, 529.441 L 187.2, 523.333 z "/>
<path style="fill:rgb(0, 255, 0);fill-opacity:0;fill-rule:evenodd;stroke:rgb(0, 111, 255);stroke-width:1;" d="M 535.908, 661.846 L 544.172, 650.528 L 581.181, 666.158 L 575.432, 674.062 L 572.917, 672.985 L 570.582, 676.398 L 535.908, 661.846 z "/>
<path style="fill:rgb(0, 0, 255);fill-opacity:0;fill-rule:evenodd;stroke:rgb(0, 111, 255);stroke-width:1;" d="M 150.011, 213.609 L 158.994, 201.572 L 161.329, 201.033 L 164.563, 196.721 L 163.845, 195.104 L 171.39, 184.684 L 185.583, 190.793 L 177.858, 201.213 L 175.881, 201.752 L 172.827, 205.884 L 173.187, 207.501 L 164.204, 219.717 L 160.072, 217.921 L 158.635, 219.897 L 152.167, 217.202 L 153.604, 215.226 L 150.011, 213.609 z "/>
<path style="fill:rgb(255, 255, 0);fill-opacity:0;fill-rule:evenodd;stroke:rgb(0, 111, 255);stroke-width:1;" d="M 215.405, 535.369 L 236.245, 506.804 L 250.618, 512.913 L 229.778, 541.298 L 215.405, 535.369 z "/>
<path style="fill:rgb(255, 0, 0);fill-opacity:0;fill-rule:evenodd;stroke:rgb(0, 111, 255);stroke-width:1;" d="M 93.9591, 264.81 L 102.044, 253.672 L 104.02, 252.594 L 106.535, 249.18 L 106.535, 247.743 L 115.338, 235.347 L 118.572, 236.605 L 119.65, 234.988 L 127.195, 238.221 L 125.399, 240.377 L 128.812, 241.994 L 120.548, 253.492 L 117.853, 254.031 L 115.338, 257.444 L 115.877, 259.78 L 107.972, 270.739 L 93.9591, 264.81 z "/>
<path style="fill:rgb(0, 255, 0);fill-opacity:0;fill-rule:evenodd;stroke:rgb(0, 111, 255);stroke-width:1;" d="M 229.778, 541.298 L 250.618, 512.913 L 264.99, 518.841 L 244.15, 547.406 L 229.778, 541.298 z "/>
<path style="fill:rgb(0, 0, 255);fill-opacity:0;fill-rule:evenodd;stroke:rgb(0, 111, 255);stroke-width:1;" d="M 176.42, 152.167 L 184.864, 140.31 L 189.535, 133.842 L 196.182, 124.68 L 199.236, 125.758 L 201.213, 123.063 L 208.938, 126.297 L 208.399, 127.195 L 211.812, 128.632 L 210.555, 130.249 L 203.548, 140.13 L 201.033, 140.13 L 197.799, 144.801 L 198.877, 146.598 L 190.613, 158.096 L 176.42, 152.167 z "/>
<path style="fill:rgb(255, 255, 0);fill-opacity:0;fill-rule:evenodd;stroke:rgb(0, 111, 255);stroke-width:1;" d="M 204.267, 164.204 L 204.446, 163.845 L 212.711, 152.347 L 215.046, 151.808 L 218.1, 147.676 L 217.382, 145.879 L 224.747, 135.819 L 227.442, 136.896 L 229.239, 134.381 L 236.784, 137.615 L 234.988, 140.13 L 238.94, 141.747 L 234.988, 147.137 L 231.574, 151.808 L 229.598, 152.706 L 226.544, 156.658 L 226.903, 158.455 L 218.459, 170.132 L 204.267, 164.204 z "/>
<path style="fill:rgb(255, 0, 0);fill-opacity:0;fill-rule:evenodd;stroke:rgb(0, 111, 255);stroke-width:1;" d="M 69.3465, 325.354 L 89.6474, 297.328 L 104.199, 303.436 L 83.8985, 331.462 L 69.3465, 325.354 z "/>
<path style="fill:rgb(0, 255, 0);fill-opacity:0;fill-rule:evenodd;stroke:rgb(0, 111, 255);stroke-width:1;" d="M 54.9742, 319.425 L 75.2751, 291.219 L 89.6474, 297.328 L 69.3465, 325.354 L 54.9742, 319.425 z "/>
<path style="fill:rgb(0, 0, 255);fill-opacity:0;fill-rule:evenodd;stroke:rgb(0, 111, 255);stroke-width:1;" d="M 339.906, 206.962 L 347.451, 196.542 L 362.362, 202.83 L 363.261, 204.626 L 369.189, 207.141 L 371.884, 206.782 L 387.155, 213.249 L 387.873, 213.609 L 385.717, 216.663 L 386.616, 219.537 L 382.843, 220.615 L 380.508, 223.849 L 363.979, 217.022 L 363.44, 215.226 L 356.973, 212.531 L 354.817, 213.07 L 350.865, 211.633 L 339.906, 206.962 z "/>
<path style="fill:rgb(255, 255, 0);fill-opacity:0;fill-rule:evenodd;stroke:rgb(0, 111, 255);stroke-width:1;" d="M 164.204, 219.717 L 173.187, 207.501 L 175.702, 206.962 L 178.576, 203.189 L 177.858, 201.213 L 185.583, 190.793 L 199.596, 196.901 L 191.871, 207.141 L 189.355, 207.86 L 186.84, 211.094 L 187.379, 213.429 L 178.037, 225.646 L 174.444, 224.029 L 172.827, 226.185 L 172.648, 226.005 L 166.18, 223.31 L 167.617, 221.154 L 164.204, 219.717 z "/>
<path style="fill:rgb(255, 0, 0);fill-opacity:0;fill-rule:evenodd;stroke:rgb(0, 111, 255);stroke-width:1;" d="M 83.8985, 331.462 L 104.199, 303.436 L 118.751, 309.544 L 98.4505, 337.57 L 83.8985, 331.462 z "/>
<path style="fill:rgb(0, 255, 0);fill-opacity:0;fill-rule:evenodd;stroke:rgb(0, 111, 255);stroke-width:1;" d="M 386.616, 142.106 L 394.341, 131.507 L 434.044, 148.035 L 427.757, 156.658 L 422.367, 154.503 L 420.93, 156.479 L 408.893, 151.448 L 407.815, 149.472 L 402.785, 147.316 L 399.91, 147.676 L 386.616, 142.106 z "/>
<path style="fill:rgb(0, 0, 255);fill-opacity:0;fill-rule:evenodd;stroke:rgb(0, 111, 255);stroke-width:1;" d="M 201.572, 605.255 L 222.412, 576.69 L 236.605, 582.798 L 215.765, 611.183 L 201.572, 605.255 z "/>
<path style="fill:rgb(255, 255, 0);fill-opacity:0;fill-rule:evenodd;stroke:rgb(0, 111, 255);stroke-width:1;" d="M 173.546, 593.398 L 194.386, 564.833 L 208.399, 570.761 L 187.559, 599.326 L 173.546, 593.398 z "/>
<path style="fill:rgb(255, 0, 0);fill-opacity:0;fill-rule:evenodd;stroke:rgb(0, 111, 255);stroke-width:1;" d="M 187.559, 599.326 L 208.399, 570.761 L 222.412, 576.69 L 201.572, 605.255 L 187.559, 599.326 z "/>
<path style="fill:rgb(0, 255, 0);fill-opacity:0;fill-rule:evenodd;stroke:rgb(0, 111, 255);stroke-width:1;" d="M 243.97, 623.22 L 264.81, 594.655 L 278.823, 600.584 L 259.96, 626.454 L 257.983, 629.149 L 243.97, 623.22 z "/>
<path style="fill:rgb(0, 0, 255);fill-opacity:0;fill-rule:evenodd;stroke:rgb(0, 111, 255);stroke-width:1;" d="M 429.733, 645.497 L 437.997, 634.179 L 473.209, 649.091 L 464.945, 660.409 L 463.148, 659.51 L 429.733, 645.497 z "/>
<path style="fill:rgb(255, 255, 0);fill-opacity:0;fill-rule:evenodd;stroke:rgb(0, 111, 255);stroke-width:1;" d="M 51.2014, 246.845 L 57.8486, 237.503 L 60.9028, 236.425 L 63.0586, 233.55 L 64.4958, 231.754 L 63.9569, 229.059 L 71.682, 218.639 L 75.0954, 220.076 L 76.5327, 217.921 L 84.0781, 221.154 L 82.4613, 223.49 L 85.8747, 224.927 L 78.3292, 235.347 L 75.8141, 236.605 L 72.5803, 241.276 L 72.4006, 242.892 L 65.2145, 252.773 L 51.2014, 246.845 z "/>
<path style="fill:rgb(255, 0, 0);fill-opacity:0;fill-rule:evenodd;stroke:rgb(0, 111, 255);stroke-width:1;" d="M 36.6494, 240.737 L 44.0153, 230.676 L 46.7101, 230.317 L 50.3032, 225.286 L 49.5845, 223.31 L 57.4893, 212.531 L 60.9028, 213.968 L 62.5196, 211.992 L 69.7058, 215.046 L 68.2686, 217.202 L 71.682, 218.639 L 63.9569, 229.059 L 61.0824, 229.957 L 57.4893, 234.988 L 57.8486, 237.503 L 51.2014, 246.845 L 36.6494, 240.737 z "/>
<path style="fill:rgb(0, 255, 0);fill-opacity:0;fill-rule:evenodd;stroke:rgb(0, 111, 255);stroke-width:1;" d="M 230.137, 617.292 L 250.977, 588.727 L 264.81, 594.655 L 243.97, 623.22 L 230.137, 617.292 z "/>
<path style="fill:rgb(0, 0, 255);fill-opacity:0;fill-rule:evenodd;stroke:rgb(0, 111, 255);stroke-width:1;" d="M 201.572, 529.441 L 222.412, 500.876 L 236.245, 506.804 L 215.405, 535.369 L 201.572, 529.441 z "/>
<path style="fill:rgb(255, 255, 0);fill-opacity:0;fill-rule:evenodd;stroke:rgb(0, 111, 255);stroke-width:1;" d="M 130.429, 328.947 L 138.513, 317.808 L 173.905, 332.54 L 165.641, 343.858 L 130.429, 328.947 z "/>
<path style="fill:rgb(255, 0, 0);fill-opacity:0;fill-rule:evenodd;stroke:rgb(0, 111, 255);stroke-width:1;" d="M 244.15, 547.406 L 264.99, 518.841 L 278.823, 524.77 L 257.983, 553.155 L 244.15, 547.406 z "/>
<path style="fill:rgb(0, 255, 0);fill-opacity:0;fill-rule:evenodd;stroke:rgb(0, 111, 255);stroke-width:1;" d="M 114.44, 350.865 L 122.524, 339.726 L 157.916, 354.637 L 149.832, 365.596 L 114.44, 350.865 z "/>
<path style="fill:rgb(0, 0, 255);fill-opacity:0;fill-rule:evenodd;stroke:rgb(0, 111, 255);stroke-width:1;" d="M 445.902, 623.22 L 453.986, 612.261 L 466.203, 617.292 L 489.378, 627.173 L 481.294, 638.132 L 445.902, 623.22 z "/>
<path style="fill:rgb(255, 255, 0);fill-opacity:0;fill-rule:evenodd;stroke:rgb(0, 111, 255);stroke-width:1;" d="M 665.259, 586.751 L 674.781, 573.815 L 691.309, 551.179 L 702.088, 555.85 L 700.651, 557.826 L 685.56, 578.486 L 676.218, 591.422 L 665.259, 586.751 z "/>
<path style="fill:rgb(255, 0, 0);fill-opacity:0;fill-rule:evenodd;stroke:rgb(0, 111, 255);stroke-width:1;" d="M 40.9611, 614.058 L 49.0456, 603.099 L 50.6625, 603.818 L 84.4375, 618.01 L 76.353, 628.969 L 40.9611, 614.058 z "/>
<path style="fill:rgb(0, 255, 0);fill-opacity:0;fill-rule:evenodd;stroke:rgb(0, 111, 255);stroke-width:1;" d="M 190.613, 158.096 L 198.877, 146.598 L 200.674, 146.238 L 204.087, 141.567 L 203.548, 140.13 L 210.555, 130.249 L 213.429, 131.507 L 215.405, 128.632 L 223.13, 131.866 L 221.514, 134.381 L 224.747, 135.819 L 217.382, 145.879 L 214.687, 146.418 L 211.812, 150.55 L 212.711, 152.347 L 204.446, 163.845 L 190.613, 158.096 z "/>
<path style="fill:rgb(0, 0, 255);fill-opacity:0;fill-rule:evenodd;stroke:rgb(0, 111, 255);stroke-width:1;" d="M 33.0564, 624.837 L 40.9611, 614.058 L 76.353, 628.969 L 68.4482, 639.928 L 37.3681, 626.634 L 33.0564, 624.837 z "/>
<path style="fill:rgb(255, 255, 0);fill-opacity:0;fill-rule:evenodd;stroke:rgb(0, 111, 255);stroke-width:1;" d="M 65.2145, 252.773 L 72.4006, 242.892 L 74.9158, 242.174 L 78.3292, 237.323 L 78.3292, 235.347 L 85.8747, 224.927 L 88.7492, 226.185 L 90.1864, 224.208 L 97.3726, 227.263 L 96.115, 229.059 L 99.8877, 230.496 L 91.9829, 241.455 L 89.4678, 241.994 L 86.0543, 246.845 L 86.5933, 248.462 L 79.2275, 258.522 L 65.2145, 252.773 z "/>
<path style="fill:rgb(255, 0, 0);fill-opacity:0;fill-rule:evenodd;stroke:rgb(0, 111, 255);stroke-width:1;" d="M 437.997, 634.179 L 445.902, 623.22 L 481.294, 638.132 L 473.209, 649.091 L 437.997, 634.179 z "/>
<path style="fill:rgb(0, 255, 0);fill-opacity:0;fill-rule:evenodd;stroke:rgb(0, 111, 255);stroke-width:1;" d="M 309.005, 437.638 L 316.191, 427.936 L 317.808, 428.655 L 330.384, 411.408 L 328.767, 410.689 L 335.774, 401.168 L 347.092, 405.839 L 339.007, 416.977 L 333.618, 424.163 L 326.252, 434.224 L 320.323, 442.309 L 309.005, 437.638 z "/>
<path style="fill:rgb(0, 0, 255);fill-opacity:0;fill-rule:evenodd;stroke:rgb(0, 111, 255);stroke-width:1;" d="M 139.951, 480.755 L 148.215, 469.436 L 182.349, 483.988 L 174.085, 495.127 L 139.951, 480.755 z "/>
<path style="fill:rgb(255, 255, 0);fill-opacity:0;fill-rule:evenodd;stroke:rgb(0, 111, 255);stroke-width:1;" d="M 106.715, 361.644 L 114.44, 350.865 L 149.832, 365.596 L 141.927, 376.375 L 117.494, 366.135 L 106.715, 361.644 z "/>
<path style="fill:rgb(255, 0, 0);fill-opacity:0;fill-rule:evenodd;stroke:rgb(0, 111, 255);stroke-width:1;" d="M 122.524, 339.726 L 130.429, 328.947 L 165.641, 343.858 L 157.916, 354.637 L 122.524, 339.726 z "/>
<path style="fill:rgb(0, 255, 0);fill-opacity:0;fill-rule:evenodd;stroke:rgb(0, 111, 255);stroke-width:1;" d="M 297.867, 432.787 L 319.964, 402.785 L 324.635, 396.317 L 335.774, 401.168 L 328.767, 410.689 L 326.971, 409.971 L 314.395, 427.218 L 316.191, 427.936 L 309.005, 437.638 L 297.867, 432.787 z "/>
<path style="fill:rgb(0, 0, 255);fill-opacity:0;fill-rule:evenodd;stroke:rgb(0, 111, 255);stroke-width:1;" d="M 116.416, 512.913 L 124.5, 501.954 L 158.635, 516.326 L 150.55, 527.465 L 116.416, 512.913 z "/>
<path style="fill:rgb(255, 255, 0);fill-opacity:0;fill-rule:evenodd;stroke:rgb(0, 111, 255);stroke-width:1;" d="M 93.0609, 545.071 L 100.966, 534.112 L 135.1, 548.484 L 127.195, 559.443 L 93.0609, 545.071 z "/>
<path style="fill:rgb(255, 0, 0);fill-opacity:0;fill-rule:evenodd;stroke:rgb(0, 111, 255);stroke-width:1;" d="M 378.531, 153.245 L 386.616, 142.106 L 399.91, 147.676 L 400.629, 149.472 L 406.198, 151.808 L 408.893, 151.448 L 420.93, 156.479 L 413.025, 167.617 L 378.531, 153.245 z "/>
<path style="fill:rgb(0, 255, 0);fill-opacity:0;fill-rule:evenodd;stroke:rgb(0, 111, 255);stroke-width:1;" d="M 255.648, 480.575 L 264.271, 468.897 L 266.068, 466.382 L 272.895, 457.4 L 280.62, 446.8 L 291.399, 451.471 L 287.447, 456.861 L 286.189, 456.322 L 282.237, 461.711 L 284.033, 462.43 L 268.942, 482.551 L 266.786, 485.426 L 255.648, 480.575 z "/>
<path style="fill:rgb(0, 0, 255);fill-opacity:0;fill-rule:evenodd;stroke:rgb(0, 111, 255);stroke-width:1;" d="M 100.966, 534.112 L 108.87, 523.333 L 143.005, 537.705 L 135.1, 548.484 L 100.966, 534.112 z "/>
<path style="fill:rgb(255, 255, 0);fill-opacity:0;fill-rule:evenodd;stroke:rgb(0, 111, 255);stroke-width:1;" d="M 124.5, 501.954 L 132.405, 491.174 L 166.539, 505.547 L 158.635, 516.326 L 124.5, 501.954 z "/>
<path style="fill:rgb(255, 0, 0);fill-opacity:0;fill-rule:evenodd;stroke:rgb(0, 111, 255);stroke-width:1;" d="M 132.405, 491.174 L 139.951, 480.755 L 174.085, 495.127 L 166.539, 505.547 L 132.405, 491.174 z "/>
<path style="fill:rgb(0, 255, 0);fill-opacity:0;fill-rule:evenodd;stroke:rgb(0, 111, 255);stroke-width:1;" d="M 108.87, 523.333 L 116.416, 512.913 L 150.55, 527.465 L 143.005, 537.705 L 108.87, 523.333 z "/>
<path style="fill:rgb(0, 0, 255);fill-opacity:0;fill-rule:evenodd;stroke:rgb(0, 111, 255);stroke-width:1;" d="M 119.47, 717.898 L 137.256, 693.465 L 151.628, 699.573 L 144.083, 709.814 L 133.842, 724.006 L 119.47, 717.898 z "/>
<path style="fill:rgb(255, 255, 0);fill-opacity:0;fill-rule:evenodd;stroke:rgb(0, 111, 255);stroke-width:1;" d="M 372.243, 725.084 L 379.789, 714.664 L 413.564, 728.857 L 405.839, 739.277 L 372.243, 725.084 z "/>
<path style="fill:rgb(255, 0, 0);fill-opacity:0;fill-rule:evenodd;stroke:rgb(0, 111, 255);stroke-width:1;" d="M 398.473, 688.075 L 406.018, 677.656 L 439.434, 691.848 L 431.889, 702.088 L 398.473, 688.075 z "/>
<path style="fill:rgb(0, 255, 0);fill-opacity:0;fill-rule:evenodd;stroke:rgb(0, 111, 255);stroke-width:1;" d="M 105.457, 711.969 L 123.422, 687.536 L 137.256, 693.465 L 119.47, 717.898 L 105.457, 711.969 z "/>
<path style="fill:rgb(0, 0, 255);fill-opacity:0;fill-rule:evenodd;stroke:rgb(0, 111, 255);stroke-width:1;" d="M 286.728, 428.116 L 308.826, 398.114 L 319.964, 402.785 L 297.867, 432.787 L 286.728, 428.116 z "/>
<path style="fill:rgb(255, 255, 0);fill-opacity:0;fill-rule:evenodd;stroke:rgb(0, 111, 255);stroke-width:1;" d="M 340.445, 727.42 L 346.553, 718.976 L 348.349, 716.461 L 356.793, 704.963 L 371.166, 711.071 L 354.817, 733.528 L 340.445, 727.42 z "/>
<path style="fill:rgb(255, 0, 0);fill-opacity:0;fill-rule:evenodd;stroke:rgb(0, 111, 255);stroke-width:1;" d="M 98.4505, 337.57 L 118.751, 309.544 L 129.89, 314.215 L 109.589, 342.241 L 98.4505, 337.57 z "/>
<path style="fill:rgb(0, 255, 0);fill-opacity:0;fill-rule:evenodd;stroke:rgb(0, 111, 255);stroke-width:1;" d="M 346.912, 587.289 L 365.057, 562.497 L 377.453, 567.707 L 359.308, 592.499 L 346.912, 587.289 z "/>
<path style="fill:rgb(0, 0, 255);fill-opacity:0;fill-rule:evenodd;stroke:rgb(0, 111, 255);stroke-width:1;" d="M 317.269, 650.707 L 334.516, 627.173 L 335.774, 625.556 L 347.81, 630.586 L 330.204, 654.66 L 329.306, 655.738 L 317.269, 650.707 z "/>
<path style="fill:rgb(255, 255, 0);fill-opacity:0;fill-rule:evenodd;stroke:rgb(0, 111, 255);stroke-width:1;" d="M 365.596, 734.067 L 372.243, 725.084 L 405.839, 739.277 L 399.371, 748.26 L 365.596, 734.067 z "/>
<path style="fill:rgb(255, 0, 0);fill-opacity:0;fill-rule:evenodd;stroke:rgb(0, 111, 255);stroke-width:1;" d="M 377.813, 676.218 L 396.317, 650.887 L 400.629, 652.684 L 399.012, 655.019 L 400.629, 656.995 L 406.737, 659.69 L 396.497, 673.703 L 390.748, 681.788 L 377.813, 676.218 z "/>
<path style="fill:rgb(0, 255, 0);fill-opacity:0;fill-rule:evenodd;stroke:rgb(0, 111, 255);stroke-width:1;" d="M 353.739, 666.158 L 369.728, 644.24 L 373.501, 639.21 L 377.453, 640.826 L 374.759, 644.599 L 375.657, 646.575 L 382.304, 649.45 L 366.315, 671.368 L 353.739, 666.158 z "/>
<path style="fill:rgb(0, 0, 255);fill-opacity:0;fill-rule:evenodd;stroke:rgb(0, 111, 255);stroke-width:1;" d="M 628.79, 536.088 L 635.077, 527.465 L 669.032, 541.657 L 662.744, 550.46 L 628.79, 536.088 z "/>
<path style="fill:rgb(255, 255, 0);fill-opacity:0;fill-rule:evenodd;stroke:rgb(0, 111, 255);stroke-width:1;" d="M 366.315, 671.368 L 382.304, 649.45 L 384.819, 646.036 L 396.317, 650.887 L 377.813, 676.218 L 366.315, 671.368 z "/>
<path style="fill:rgb(255, 0, 0);fill-opacity:0;fill-rule:evenodd;stroke:rgb(0, 111, 255);stroke-width:1;" d="M 329.306, 655.738 L 330.204, 654.66 L 347.81, 630.586 L 351.763, 632.203 L 350.326, 634.359 L 351.044, 636.155 L 357.691, 639.03 L 341.702, 660.948 L 329.306, 655.738 z "/>
<path style="fill:rgb(0, 255, 0);fill-opacity:0;fill-rule:evenodd;stroke:rgb(0, 111, 255);stroke-width:1;" d="M 305.232, 645.677 L 322.479, 621.963 L 334.516, 627.173 L 317.269, 650.707 L 305.232, 645.677 z "/>
<path style="fill:rgb(0, 0, 255);fill-opacity:0;fill-rule:evenodd;stroke:rgb(0, 111, 255);stroke-width:1;" d="M 341.702, 660.948 L 357.691, 639.03 L 360.207, 635.616 L 364.159, 637.413 L 362.542, 639.748 L 363.261, 641.545 L 369.728, 644.24 L 353.739, 666.158 L 341.702, 660.948 z "/>
<path style="fill:rgb(255, 255, 0);fill-opacity:0;fill-rule:evenodd;stroke:rgb(0, 111, 255);stroke-width:1;" d="M 466.203, 617.292 L 474.287, 606.153 L 497.462, 615.854 L 489.378, 627.173 L 466.203, 617.292 z "/>
<path style="fill:rgb(255, 0, 0);fill-opacity:0;fill-rule:evenodd;stroke:rgb(0, 111, 255);stroke-width:1;" d="M 266.247, 696.519 L 281.518, 675.679 L 293.196, 680.53 L 277.745, 701.55 L 266.247, 696.519 z "/>
<path style="fill:rgb(0, 255, 0);fill-opacity:0;fill-rule:evenodd;stroke:rgb(0, 111, 255);stroke-width:1;" d="M 300.382, 711.071 L 315.652, 690.052 L 327.15, 694.902 L 320.144, 704.604 L 318.347, 706.939 L 311.88, 715.922 L 300.382, 711.071 z "/>
<path style="fill:rgb(0, 0, 255);fill-opacity:0;fill-rule:evenodd;stroke:rgb(0, 111, 255);stroke-width:1;" d="M 288.884, 706.221 L 304.155, 685.201 L 315.652, 690.052 L 300.382, 711.071 L 288.884, 706.221 z "/>
<path style="fill:rgb(255, 255, 0);fill-opacity:0;fill-rule:evenodd;stroke:rgb(0, 111, 255);stroke-width:1;" d="M 421.469, 170.492 L 437.099, 149.113 L 448.237, 153.784 L 432.607, 175.163 L 421.469, 170.492 z "/>
<path style="fill:rgb(255, 0, 0);fill-opacity:0;fill-rule:evenodd;stroke:rgb(0, 111, 255);stroke-width:1;" d="M 444.824, 608.309 L 453.088, 597.17 L 474.287, 606.153 L 466.203, 617.292 L 453.986, 612.261 L 444.824, 608.309 z "/>
<path style="fill:rgb(0, 255, 0);fill-opacity:0;fill-rule:evenodd;stroke:rgb(0, 111, 255);stroke-width:1;" d="M 254.929, 691.848 L 270.38, 670.829 L 281.518, 675.679 L 266.247, 696.519 L 254.929, 691.848 z "/>
<path style="fill:rgb(0, 0, 255);fill-opacity:0;fill-rule:evenodd;stroke:rgb(0, 111, 255);stroke-width:1;" d="M 748.799, 605.255 L 763.71, 584.595 L 775.208, 589.266 L 760.117, 609.926 L 748.799, 605.255 z "/>
<path style="fill:rgb(255, 255, 0);fill-opacity:0;fill-rule:evenodd;stroke:rgb(0, 111, 255);stroke-width:1;" d="M 277.745, 701.55 L 293.196, 680.53 L 304.155, 685.201 L 288.884, 706.221 L 277.745, 701.55 z "/>
<path style="fill:rgb(255, 0, 0);fill-opacity:0;fill-rule:evenodd;stroke:rgb(0, 111, 255);stroke-width:1;" d="M 780.597, 618.549 L 795.688, 597.889 L 806.827, 602.74 L 791.916, 623.4 L 780.597, 618.549 z "/>
<path style="fill:rgb(0, 255, 0);fill-opacity:0;fill-rule:evenodd;stroke:rgb(0, 111, 255);stroke-width:1;" d="M 727.779, 596.272 L 742.87, 575.612 L 753.649, 580.283 L 738.558, 600.943 L 727.779, 596.272 z "/>
<path style="fill:rgb(0, 0, 255);fill-opacity:0;fill-rule:evenodd;stroke:rgb(0, 111, 255);stroke-width:1;" d="M 706.4, 587.289 L 721.491, 566.629 L 732.27, 571.3 L 717.179, 591.781 L 706.4, 587.289 z "/>
<path style="fill:rgb(255, 255, 0);fill-opacity:0;fill-rule:evenodd;stroke:rgb(0, 111, 255);stroke-width:1;" d="M 717.179, 591.781 L 732.27, 571.3 L 742.87, 575.612 L 727.779, 596.272 L 717.179, 591.781 z "/>
<path style="fill:rgb(255, 0, 0);fill-opacity:0;fill-rule:evenodd;stroke:rgb(0, 111, 255);stroke-width:1;" d="M 685.56, 578.486 L 700.651, 557.826 L 711.071, 562.318 L 695.98, 582.978 L 685.56, 578.486 z "/>
<path style="fill:rgb(0, 255, 0);fill-opacity:0;fill-rule:evenodd;stroke:rgb(0, 111, 255);stroke-width:1;" d="M 791.916, 623.4 L 806.827, 602.74 L 817.426, 607.051 L 802.336, 627.712 L 791.916, 623.4 z "/>
<path style="fill:rgb(0, 0, 255);fill-opacity:0;fill-rule:evenodd;stroke:rgb(0, 111, 255);stroke-width:1;" d="M 362.003, 738.918 L 365.596, 734.067 L 399.371, 748.26 L 393.083, 756.883 L 392.365, 756.703 L 380.687, 751.673 L 382.663, 748.978 L 381.765, 747.361 L 362.003, 738.918 z "/>
<path style="fill:rgb(255, 255, 0);fill-opacity:0;fill-rule:evenodd;stroke:rgb(0, 111, 255);stroke-width:1;" d="M 695.98, 582.978 L 711.071, 562.318 L 721.491, 566.629 L 706.4, 587.289 L 695.98, 582.978 z "/>
<path style="fill:rgb(255, 0, 0);fill-opacity:0;fill-rule:evenodd;stroke:rgb(0, 111, 255);stroke-width:1;" d="M 760.117, 609.926 L 775.208, 589.266 L 785.448, 593.577 L 770.357, 614.238 L 760.117, 609.926 z "/>
<path style="fill:rgb(0, 255, 0);fill-opacity:0;fill-rule:evenodd;stroke:rgb(0, 111, 255);stroke-width:1;" d="M 770.357, 614.238 L 785.448, 593.577 L 795.688, 597.889 L 780.597, 618.549 L 770.357, 614.238 z "/>
<path style="fill:rgb(0, 0, 255);fill-opacity:0;fill-rule:evenodd;stroke:rgb(0, 111, 255);stroke-width:1;" d="M 738.558, 600.943 L 753.649, 580.283 L 763.71, 584.595 L 748.799, 605.255 L 738.558, 600.943 z "/>
<path style="fill:rgb(255, 255, 0);fill-opacity:0;fill-rule:evenodd;stroke:rgb(0, 111, 255);stroke-width:1;" d="M 388.772, 684.303 L 390.748, 681.788 L 396.497, 673.703 L 406.018, 677.656 L 398.473, 688.075 L 398.293, 688.255 L 388.772, 684.303 z "/>
<path style="fill:rgb(255, 0, 0);fill-opacity:0;fill-rule:evenodd;stroke:rgb(0, 111, 255);stroke-width:1;" d="M 3.05412, 668.673 L 14.3723, 653.223 L 23.7143, 656.995 L 29.2836, 649.45 L 22.6364, 646.755 L 37.3681, 626.634 L 68.4482, 639.928 L 88.5695, 648.372 L 85.5154, 652.684 L 87.4916, 653.582 L 80.3054, 663.283 L 107.074, 674.601 L 103.481, 679.452 L 112.464, 683.225 L 106.894, 690.77 L 111.386, 692.746 L 99.1691, 709.275 L 85.695, 703.705 L 86.773, 702.088 L 31.4395, 678.733 L 30.3616, 680.171 L 3.05412, 668.673 z "/>
<path style="fill:rgb(0, 255, 0);fill-opacity:0;fill-rule:evenodd;stroke:rgb(0, 111, 255);stroke-width:1;" d="M 1.43723, 773.95 L 17.9654, 751.314 L 15.8096, 750.415 L 17.0671, 748.619 L 15.0909, 747.721 L 24.6126, 734.786 L 41.3205, 741.792 L 39.8832, 743.589 L 53.3573, 749.158 L 48.6863, 755.805 L 49.9439, 756.344 L 45.6322, 762.273 L 53.5369, 765.506 L 57.8486, 759.578 L 58.7469, 759.937 L 63.5976, 753.47 L 76.7123, 759.039 L 78.1496, 757.242 L 95.3964, 764.608 L 86.0543, 777.543 L 83.1799, 776.465 L 81.9223, 778.082 L 80.1258, 777.364 L 63.5976, 800 L 46.3508, 792.814 L 47.6084, 791.197 L 38.0867, 787.245 L 47.249, 774.669 L 43.8356, 773.232 L 42.2187, 775.387 L 37.0088, 773.232 L 35.0326, 774.669 L 28.7447, 783.292 L 19.4026, 779.34 L 18.3247, 780.957 L 1.43723, 773.95 z "/>
<path style="fill:rgb(0, 0, 255);fill-opacity:0;fill-rule:evenodd;stroke:rgb(0, 111, 255);stroke-width:1;" d="M 0, 444.464 L 16.1689, 422.008 L 86.5933, 451.471 L 76.5327, 465.304 L 67.9093, 461.711 L 60.7231, 471.772 L 56.4114, 469.975 L 14.7316, 452.549 L 15.8096, 451.112 L 0, 444.464 z "/>
<path style="fill:rgb(255, 255, 0);fill-opacity:0;fill-rule:evenodd;stroke:rgb(0, 111, 255);stroke-width:1;" d="M 14.013, 472.49 L 23.5347, 459.196 L 54.7945, 472.131 L 56.4114, 469.975 L 60.7231, 471.772 L 69.5262, 475.365 L 56.5911, 493.151 L 43.4763, 487.581 L 45.0932, 485.426 L 14.013, 472.49 z "/>
<path style="fill:rgb(255, 0, 0);fill-opacity:0;fill-rule:evenodd;stroke:rgb(0, 111, 255);stroke-width:1;" d="M 24.433, 308.287 L 32.8767, 296.789 L 35.5715, 295.711 L 38.446, 291.758 L 37.5477, 290.141 L 45.6322, 279.003 L 60.5435, 285.111 L 52.2794, 296.609 L 49.7642, 297.148 L 46.7101, 301.1 L 47.6084, 302.897 L 40.0629, 313.137 L 39.1646, 314.574 L 34.8529, 312.778 L 33.9546, 314.215 L 27.1278, 311.341 L 28.3854, 309.903 L 24.433, 308.287 z "/>
<path style="fill:rgb(0, 255, 0);fill-opacity:0;fill-rule:evenodd;stroke:rgb(0, 111, 255);stroke-width:1;" d="M 19.762, 86.5933 L 27.4871, 75.8141 L 29.4633, 75.4547 L 33.236, 70.4244 L 32.5174, 68.8075 L 41.5001, 56.4114 L 42.578, 54.7945 L 56.7707, 60.7231 L 46.8897, 74.3768 L 43.8356, 74.7361 L 40.0629, 80.1258 L 41.5001, 81.9223 L 33.775, 92.5219 L 19.762, 86.5933 z "/>
<path style="fill:rgb(0, 0, 255);fill-opacity:0;fill-rule:evenodd;stroke:rgb(0, 111, 255);stroke-width:1;" d="M 11.1386, 377.633 L 19.0433, 366.674 L 21.7382, 366.315 L 25.1516, 361.823 L 24.0737, 359.847 L 32.1581, 348.709 L 35.9308, 350.326 L 37.5477, 348.17 L 43.8356, 350.685 L 42.2187, 352.841 L 46.8897, 354.817 L 38.6256, 365.956 L 35.9308, 366.674 L 32.8767, 370.986 L 33.5953, 372.782 L 25.6905, 383.741 L 11.1386, 377.633 z "/>
<path style="fill:rgb(255, 255, 0);fill-opacity:0;fill-rule:evenodd;stroke:rgb(0, 111, 255);stroke-width:1;" d="M 25.6905, 383.741 L 33.5953, 372.782 L 35.7512, 372.243 L 38.8053, 367.932 L 38.6256, 365.956 L 46.8897, 354.817 L 50.3032, 356.254 L 51.5607, 354.278 L 57.8486, 356.973 L 56.5911, 358.59 L 60.9028, 360.566 L 52.8183, 371.704 L 50.1235, 372.423 L 47.0694, 376.735 L 47.6084, 378.891 L 39.7036, 389.67 L 25.6905, 383.741 z "/>
<path style="fill:rgb(255, 0, 0);fill-opacity:0;fill-rule:evenodd;stroke:rgb(0, 111, 255);stroke-width:1;" d="M 22.0975, 234.628 L 29.2836, 224.927 L 32.1581, 224.388 L 35.5715, 219.537 L 35.9308, 216.843 L 43.117, 206.962 L 46.7101, 208.578 L 48.5066, 206.063 L 55.5131, 209.117 L 54.0759, 211.094 L 57.4893, 212.531 L 49.5845, 223.31 L 47.0694, 223.849 L 43.656, 228.52 L 44.0153, 230.676 L 36.6494, 240.737 L 22.0975, 234.628 z "/>
<path style="fill:rgb(0, 255, 0);fill-opacity:0;fill-rule:evenodd;stroke:rgb(0, 111, 255);stroke-width:1;" d="M 784.37, 72.9396 L 824.972, 17.7858 L 840.781, 24.6126 L 839.524, 26.2295 L 861.981, 35.7512 L 855.872, 44.1949 L 861.621, 46.5304 L 854.974, 55.5131 L 860.543, 57.8486 L 853.357, 67.3703 L 857.849, 69.3465 L 858.388, 70.7837 L 855.154, 74.9158 L 857.13, 75.8141 L 857.489, 77.0716 L 854.435, 81.3833 L 856.411, 82.102 L 856.771, 83.7188 L 853.537, 87.8509 L 855.333, 88.7492 L 855.872, 90.0067 L 853.537, 93.2405 L 851.561, 93.5998 L 851.022, 94.4981 L 851.74, 95.576 L 846.351, 102.942 L 844.375, 103.121 L 843.836, 103.84 L 844.734, 105.277 L 842.039, 108.87 L 834.853, 105.816 L 832.697, 106.535 L 828.924, 104.738 L 829.823, 103.66 L 804.671, 93.0609 L 811.139, 84.4375 L 784.37, 72.9396 z "/>
<path style="fill:rgb(0, 0, 255);fill-opacity:0;fill-rule:evenodd;stroke:rgb(0, 111, 255);stroke-width:1;" d="M 303.256, 57.4893 L 325.533, 27.4871 L 335.055, 14.7316 L 343.678, 18.5044 L 358.051, 24.7923 L 366.135, 27.8464 L 387.334, 37.0088 L 378.172, 49.4049 L 379.969, 50.1235 L 365.776, 69.1669 L 363.979, 68.4482 L 355.356, 79.9461 L 303.256, 57.4893 z "/>
<path style="fill:rgb(255, 255, 0);fill-opacity:0;fill-rule:evenodd;stroke:rgb(0, 111, 255);stroke-width:1;" d="M 453.806, 50.8421 L 477.521, 17.7858 L 534.291, 41.5001 L 526.207, 52.459 L 510.038, 74.1972 L 497.822, 69.1669 L 485.965, 64.1365 L 476.802, 60.3638 L 471.413, 58.0283 L 462.25, 54.2556 L 453.806, 50.8421 z "/>
<path style="fill:rgb(255, 0, 0);fill-opacity:0;fill-rule:evenodd;stroke:rgb(0, 111, 255);stroke-width:1;" d="M 83.5392, 50.6625 L 91.8033, 39.3443 L 104.738, 21.1992 L 111.206, 12.2165 L 139.771, 24.0737 L 132.046, 34.8529 L 120.728, 50.3032 L 112.464, 61.801 L 111.925, 62.5196 L 83.5392, 50.6625 z "/>
<path style="fill:rgb(0, 255, 0);fill-opacity:0;fill-rule:evenodd;stroke:rgb(0, 111, 255);stroke-width:1;" d="M 54.7945, 38.6256 L 63.0586, 27.3074 L 66.6517, 28.7447 L 71.143, 22.6364 L 68.9872, 21.7382 L 75.9937, 12.0368 L 75.2751, 9.34202 L 82.102, 0 L 96.8336, 6.2879 L 90.5457, 14.9113 L 86.773, 16.8875 L 80.1258, 26.2295 L 77.7903, 25.1516 L 73.2989, 31.4395 L 77.2513, 33.0564 L 68.9872, 44.5542 L 54.7945, 38.6256 z "/>
<path style="fill:rgb(0, 0, 255);fill-opacity:0;fill-rule:evenodd;stroke:rgb(0, 111, 255);stroke-width:1;" d="M 68.9872, 44.5542 L 77.2513, 33.0564 L 81.2037, 34.6733 L 85.695, 28.565 L 83.0002, 27.4871 L 89.8271, 18.1451 L 90.5457, 14.9113 L 96.8336, 6.2879 L 111.206, 12.2165 L 104.738, 21.1992 L 101.145, 22.2771 L 94.1388, 31.9784 L 92.1626, 31.0802 L 87.6712, 37.5477 L 91.8033, 39.3443 L 83.5392, 50.6625 L 68.9872, 44.5542 z "/>
</svg>