<?xml version="1.0" encoding="iso-8859-1" standalone="no"?>
<!DOCTYPE svg PUBLIC "-//W3C//DTD SVG 1.0//EN" "http://www.w3.org/TR/2001/REC-SVG-20010904/DTD/svg10.dtd">
<svg xmlns="http://www.w3.org/2000/svg" width="986" height="800">
<path style="fill:rgb(255, 0, 0);fill-opacity:0;fill-rule:evenodd;stroke:rgb(0, 255, 18);stroke-width:1;" d="M 738.035, 503.873 L 748.145, 490.338 L 748.308, 490.012 L 746.678, 489.36 L 756.298, 475.989 L 758.092, 476.641 L 828.536, 379.617 L 827.395, 378.965 L 837.016, 365.756 L 838.157, 366.245 L 838.647, 365.593 L 848.594, 352.222 L 907.623, 377.171 L 908.113, 376.192 L 918.06, 380.432 L 928.007, 384.509 L 927.354, 385.324 L 986.058, 410.11 L 951.488, 457.562 L 944.802, 466.694 L 955.238, 471.097 L 927.68, 508.765 L 916.592, 504.199 L 910.232, 512.841 L 874.847, 561.598 L 738.035, 503.873 z "/>
<path style="fill:rgb(0, 255, 0);fill-opacity:0;fill-rule:evenodd;stroke:rgb(0, 255, 18);stroke-width:1;" d="M 738.035, 503.873 L 748.145, 490.338 L 748.308, 490.012 L 758.092, 476.641 L 809.132, 498.818 L 850.061, 516.103 L 866.042, 494.252 L 871.912, 486.262 L 899.959, 446.963 L 905.993, 438.483 L 923.767, 413.534 L 883.163, 396.902 L 831.635, 375.051 L 838.157, 366.245 L 838.647, 365.593 L 848.594, 352.222 L 907.623, 377.171 L 927.354, 385.324 L 986.058, 410.11 L 951.488, 457.562 L 944.802, 466.694 L 916.592, 504.199 L 910.232, 512.841 L 874.847, 561.598 L 738.035, 503.873 z "/>
<path style="fill:rgb(0, 0, 255);fill-opacity:0;fill-rule:evenodd;stroke:rgb(0, 255, 18);stroke-width:1;" d="M 631.553, 745.21 L 633.673, 742.275 L 658.948, 707.542 L 666.449, 697.106 L 689.768, 665.308 L 690.094, 664.982 L 771.953, 699.715 L 757.277, 719.772 L 799.022, 737.383 L 801.957, 733.469 L 812.556, 737.872 L 815.491, 739.177 L 772.768, 797.554 L 761.68, 800 L 631.553, 745.21 z "/>
<path style="fill:rgb(255, 255, 0);fill-opacity:0;fill-rule:evenodd;stroke:rgb(0, 255, 18);stroke-width:1;" d="M 710.477, 227.313 L 720.587, 213.616 L 722.218, 211.333 L 717.652, 209.376 L 727.436, 196.005 L 732.002, 197.962 L 739.177, 187.852 L 755.157, 166.327 L 764.615, 153.445 L 840.603, 185.243 L 874.032, 199.266 L 864.574, 212.311 L 861.639, 216.388 L 868.977, 219.486 L 830.656, 271.83 L 822.992, 268.569 L 819.731, 273.135 L 710.477, 227.313 z "/>
<path style="fill:rgb(255, 0, 0);fill-opacity:0;fill-rule:evenodd;stroke:rgb(0, 255, 18);stroke-width:1;" d="M 710.477, 227.313 L 720.587, 213.616 L 722.218, 211.333 L 732.002, 197.962 L 739.177, 187.852 L 755.157, 166.327 L 764.615, 153.445 L 840.603, 185.243 L 874.032, 199.266 L 864.574, 212.311 L 830.004, 259.6 L 822.992, 268.569 L 819.731, 273.135 L 710.477, 227.313 z "/>
<path style="fill:rgb(0, 255, 0);fill-opacity:0;fill-rule:evenodd;stroke:rgb(0, 255, 18);stroke-width:1;" d="M 378.801, 239.87 L 386.629, 229.433 L 428.21, 173.828 L 436.201, 163.066 L 456.584, 171.871 L 519.853, 198.94 L 462.454, 275.744 L 400.326, 249.164 L 378.801, 239.87 z "/>
<path style="fill:rgb(0, 0, 255);fill-opacity:0;fill-rule:evenodd;stroke:rgb(0, 255, 18);stroke-width:1;" d="M 748.145, 490.338 L 748.308, 490.012 L 758.092, 476.641 L 828.536, 379.617 L 831.635, 375.051 L 838.157, 366.245 L 838.647, 365.593 L 890.338, 386.955 L 883.163, 396.902 L 859.193, 429.841 L 830.819, 468.977 L 809.132, 498.818 L 799.674, 511.863 L 748.145, 490.338 z "/>
<path style="fill:rgb(255, 255, 0);fill-opacity:0;fill-rule:evenodd;stroke:rgb(0, 255, 18);stroke-width:1;" d="M 140.889, 270.852 L 158.174, 215.247 L 236.608, 248.349 L 257.644, 219.486 L 290.583, 233.347 L 262.536, 271.83 L 273.624, 276.559 L 266.286, 286.669 L 245.577, 315.043 L 140.889, 270.852 z "/>
<path style="fill:rgb(255, 0, 0);fill-opacity:0;fill-rule:evenodd;stroke:rgb(0, 255, 18);stroke-width:1;" d="M 386.629, 229.433 L 428.21, 173.828 L 448.594, 182.634 L 456.584, 171.871 L 519.853, 198.94 L 462.454, 275.744 L 400.326, 249.164 L 407.99, 238.565 L 386.629, 229.433 z "/>
<path style="fill:rgb(0, 255, 0);fill-opacity:0;fill-rule:evenodd;stroke:rgb(0, 255, 18);stroke-width:1;" d="M 68.9768, 503.057 L 81.6959, 461.313 L 83.9788, 461.802 L 89.0338, 462.617 L 90.9906, 462.943 L 97.1871, 463.922 L 98.9808, 464.248 L 104.688, 465.063 L 105.993, 465.389 L 107.623, 465.552 L 109.58, 465.879 L 144.476, 480.228 L 148.39, 474.684 L 149.205, 473.543 L 150.02, 472.401 L 150.836, 471.423 L 154.586, 466.205 L 155.238, 465.063 L 158.989, 460.008 L 159.804, 458.867 L 163.392, 453.812 L 164.207, 452.67 L 167.795, 447.452 L 168.61, 446.311 L 206.604, 462.454 L 205.952, 463.596 L 202.201, 468.651 L 201.386, 469.792 L 197.799, 474.847 L 196.983, 475.989 L 193.396, 481.207 L 192.581, 482.348 L 188.83, 487.403 L 188.015, 488.545 L 187.362, 489.686 L 186.547, 490.828 L 179.698, 500.285 L 199.103, 508.439 L 191.439, 518.875 L 190.787, 519.69 L 190.298, 520.342 L 189.808, 521.158 L 185.406, 527.028 L 181.818, 531.757 L 181.003, 532.898 L 177.415, 537.79 L 176.6, 538.769 L 174.48, 541.704 L 173.828, 542.519 L 171.708, 545.455 L 171.056, 546.433 L 145.781, 535.671 L 117.896, 523.93 L 68.9768, 503.057 z "/>
<path style="fill:rgb(0, 0, 255);fill-opacity:0;fill-rule:evenodd;stroke:rgb(0, 255, 18);stroke-width:1;" d="M 749.45, 659.6 L 777.171, 620.954 L 793.64, 627.803 L 797.228, 623.074 L 821.851, 588.83 L 831.635, 593.07 L 839.299, 596.331 L 846.637, 599.429 L 839.462, 608.887 L 838.32, 610.518 L 842.723, 612.475 L 841.745, 613.616 L 845.332, 615.084 L 844.68, 616.062 L 848.267, 617.53 L 846.637, 619.812 L 857.562, 625.683 L 868.161, 630.738 L 878.435, 635.63 L 876.315, 638.565 L 881.696, 640.848 L 878.272, 645.414 L 874.358, 650.632 L 870.607, 655.687 L 866.857, 660.742 L 839.299, 697.758 L 833.755, 695.475 L 765.756, 666.449 L 749.45, 659.6 z "/>
<path style="fill:rgb(255, 255, 0);fill-opacity:0;fill-rule:evenodd;stroke:rgb(0, 255, 18);stroke-width:1;" d="M 286.18, 332.165 L 289.442, 327.762 L 292.703, 323.359 L 295.964, 318.956 L 299.062, 314.554 L 302.324, 310.151 L 306.89, 304.117 L 320.913, 284.713 L 327.925, 275.255 L 330.86, 271.178 L 333.632, 267.265 L 336.567, 263.188 L 339.503, 259.274 L 342.438, 255.361 L 381.247, 271.667 L 378.312, 275.581 L 375.54, 279.658 L 372.605, 283.571 L 369.67, 287.485 L 366.735, 291.561 L 353.037, 310.314 L 387.77, 324.99 L 398.369, 329.393 L 404.24, 331.839 L 409.132, 333.958 L 416.959, 337.22 L 405.055, 353.363 L 388.912, 375.377 L 286.18, 332.165 z "/>
<path style="fill:rgb(255, 0, 0);fill-opacity:0;fill-rule:evenodd;stroke:rgb(0, 255, 18);stroke-width:1;" d="M 720.587, 213.616 L 722.218, 211.333 L 732.002, 197.962 L 739.177, 187.852 L 755.157, 166.327 L 864.574, 212.311 L 830.004, 259.6 L 720.587, 213.616 z "/>
<path style="fill:rgb(0, 255, 0);fill-opacity:0;fill-rule:evenodd;stroke:rgb(0, 255, 18);stroke-width:1;" d="M 598.94, 180.351 L 627.313, 141.215 L 650.143, 150.51 L 734.611, 186.221 L 727.436, 196.005 L 717.652, 209.376 L 706.074, 225.357 L 598.94, 180.351 z "/>
<path style="fill:rgb(0, 0, 255);fill-opacity:0;fill-rule:evenodd;stroke:rgb(0, 255, 18);stroke-width:1;" d="M 264.492, 455.442 L 271.993, 445.332 L 283.245, 430.33 L 304.933, 400.978 L 315.206, 387.118 L 325.479, 391.521 L 330.371, 384.998 L 359.56, 397.391 L 354.505, 403.914 L 364.289, 407.99 L 316.021, 476.967 L 264.492, 455.442 z "/>
<path style="fill:rgb(255, 255, 0);fill-opacity:0;fill-rule:evenodd;stroke:rgb(0, 255, 18);stroke-width:1;" d="M 121.647, 331.512 L 131.92, 298.084 L 244.109, 345.047 L 218.997, 379.78 L 215.899, 384.183 L 181.818, 369.833 L 184.101, 366.572 L 175.948, 363.147 L 173.991, 365.919 L 164.207, 361.843 L 171.219, 352.222 L 121.647, 331.512 z "/>
<path style="fill:rgb(255, 0, 0);fill-opacity:0;fill-rule:evenodd;stroke:rgb(0, 255, 18);stroke-width:1;" d="M 805.218, 458.377 L 834.081, 419.242 L 859.193, 429.841 L 899.959, 446.963 L 924.419, 457.073 L 896.046, 496.209 L 871.912, 486.262 L 830.819, 468.977 L 805.218, 458.377 z "/>
<path style="fill:rgb(0, 255, 0);fill-opacity:0;fill-rule:evenodd;stroke:rgb(0, 255, 18);stroke-width:1;" d="M 38.1574, 622.585 L 52.6702, 565.512 L 100.775, 586.058 L 87.7293, 603.832 L 140.073, 626.009 L 131.92, 636.934 L 121.321, 651.121 L 119.527, 653.73 L 117.733, 656.013 L 38.1574, 622.585 z "/>
<path style="fill:rgb(0, 0, 255);fill-opacity:0;fill-rule:evenodd;stroke:rgb(0, 255, 18);stroke-width:1;" d="M 190.95, 554.749 L 192.091, 553.119 L 218.997, 516.592 L 221.117, 513.657 L 234.488, 495.393 L 246.066, 479.576 L 296.943, 500.938 L 285.365, 516.918 L 271.83, 535.181 L 264.003, 545.618 L 234.325, 533.062 L 228.618, 540.726 L 223.074, 548.39 L 252.752, 560.946 L 241.5, 575.948 L 190.95, 554.749 z "/>
<path style="fill:rgb(255, 255, 0);fill-opacity:0;fill-rule:evenodd;stroke:rgb(0, 255, 18);stroke-width:1;" d="M 386.629, 229.433 L 428.21, 173.828 L 448.594, 182.634 L 486.751, 198.94 L 445.169, 254.545 L 407.99, 238.565 L 386.629, 229.433 z "/>
<path style="fill:rgb(255, 0, 0);fill-opacity:0;fill-rule:evenodd;stroke:rgb(0, 255, 18);stroke-width:1;" d="M 827.558, 276.396 L 830.656, 271.83 L 868.977, 219.486 L 883.49, 199.103 L 922.788, 215.573 L 920.342, 219.323 L 917.733, 222.911 L 914.961, 226.498 L 913.331, 228.944 L 903.547, 242.152 L 885.936, 266.612 L 869.792, 288.952 L 866.857, 293.029 L 827.558, 276.396 z "/>
<path style="fill:rgb(0, 255, 0);fill-opacity:0;fill-rule:evenodd;stroke:rgb(0, 255, 18);stroke-width:1;" d="M 533.062, 522.462 L 535.834, 518.712 L 537.627, 519.364 L 540.073, 516.103 L 561.109, 487.077 L 561.272, 486.751 L 564.859, 482.022 L 565.185, 481.37 L 565.512, 480.881 L 608.072, 498.818 L 639.054, 511.863 L 638.728, 512.515 L 638.402, 513.004 L 636.608, 515.45 L 634.651, 518.06 L 623.4, 533.388 L 622.422, 534.692 L 619.649, 538.932 L 616.714, 543.009 L 612.801, 548.39 L 611.007, 550.836 L 579.861, 537.79 L 577.578, 541.052 L 576.274, 540.563 L 555.728, 531.92 L 541.215, 525.887 L 533.062, 522.462 z "/>
<path style="fill:rgb(0, 0, 255);fill-opacity:0;fill-rule:evenodd;stroke:rgb(0, 255, 18);stroke-width:1;" d="M 103.057, 387.607 L 114.635, 354.342 L 170.077, 377.66 L 177.252, 367.876 L 181.818, 369.833 L 215.899, 384.183 L 187.689, 422.992 L 103.057, 387.607 z "/>
<path style="fill:rgb(255, 255, 0);fill-opacity:0;fill-rule:evenodd;stroke:rgb(0, 255, 18);stroke-width:1;" d="M 257.644, 188.015 L 273.95, 165.512 L 278.842, 167.631 L 289.115, 153.445 L 289.931, 152.14 L 297.921, 155.565 L 300.041, 152.629 L 313.086, 158.174 L 339.013, 122.625 L 364.289, 133.225 L 308.683, 209.376 L 257.644, 188.015 z "/>
<path style="fill:rgb(255, 0, 0);fill-opacity:0;fill-rule:evenodd;stroke:rgb(0, 255, 18);stroke-width:1;" d="M 749.45, 659.6 L 777.171, 620.954 L 793.64, 627.803 L 785.976, 638.402 L 854.464, 667.754 L 861.313, 658.459 L 865.226, 653.404 L 868.977, 648.349 L 872.727, 643.131 L 876.315, 638.565 L 881.696, 640.848 L 878.272, 645.414 L 874.358, 650.632 L 870.607, 655.687 L 866.857, 660.742 L 839.299, 697.758 L 833.755, 695.475 L 765.756, 666.449 L 749.45, 659.6 z "/>
<path style="fill:rgb(0, 255, 0);fill-opacity:0;fill-rule:evenodd;stroke:rgb(0, 255, 18);stroke-width:1;" d="M 749.45, 659.6 L 777.171, 620.954 L 793.64, 627.803 L 785.976, 638.402 L 854.464, 667.754 L 861.313, 658.459 L 865.226, 653.404 L 868.977, 648.349 L 872.727, 643.131 L 878.272, 645.414 L 874.358, 650.632 L 870.607, 655.687 L 866.857, 660.742 L 839.299, 697.758 L 833.755, 695.475 L 765.756, 666.449 L 749.45, 659.6 z "/>
<path style="fill:rgb(0, 0, 255);fill-opacity:0;fill-rule:evenodd;stroke:rgb(0, 255, 18);stroke-width:1;" d="M 749.45, 659.6 L 777.171, 620.954 L 793.64, 627.803 L 785.976, 638.402 L 854.464, 667.754 L 861.313, 658.459 L 865.226, 653.404 L 868.977, 648.349 L 874.358, 650.632 L 870.607, 655.687 L 866.857, 660.742 L 839.299, 697.758 L 833.755, 695.475 L 765.756, 666.449 L 749.45, 659.6 z "/>
<path style="fill:rgb(255, 255, 0);fill-opacity:0;fill-rule:evenodd;stroke:rgb(0, 255, 18);stroke-width:1;" d="M 749.45, 659.6 L 777.171, 620.954 L 793.64, 627.803 L 785.976, 638.402 L 854.464, 667.754 L 861.313, 658.459 L 865.226, 653.404 L 870.607, 655.687 L 866.857, 660.742 L 839.299, 697.758 L 833.755, 695.475 L 765.756, 666.449 L 749.45, 659.6 z "/>
<path style="fill:rgb(255, 0, 0);fill-opacity:0;fill-rule:evenodd;stroke:rgb(0, 255, 18);stroke-width:1;" d="M 749.45, 659.6 L 777.171, 620.954 L 793.64, 627.803 L 785.976, 638.402 L 854.464, 667.754 L 861.313, 658.459 L 866.857, 660.742 L 839.299, 697.758 L 833.755, 695.475 L 765.756, 666.449 L 749.45, 659.6 z "/>
<path style="fill:rgb(0, 255, 0);fill-opacity:0;fill-rule:evenodd;stroke:rgb(0, 255, 18);stroke-width:1;" d="M 252.099, 662.21 L 255.035, 658.133 L 274.439, 631.553 L 279.658, 624.378 L 349.287, 653.73 L 344.395, 660.742 L 330.534, 679.658 L 324.338, 688.137 L 321.402, 691.887 L 311.292, 687.648 L 298.573, 682.267 L 287.485, 677.538 L 252.099, 662.21 z "/>
<path style="fill:rgb(0, 0, 255);fill-opacity:0;fill-rule:evenodd;stroke:rgb(0, 255, 18);stroke-width:1;" d="M 245.577, 315.043 L 266.286, 286.669 L 276.396, 290.909 L 311.781, 242.316 L 342.438, 255.361 L 339.503, 259.274 L 336.567, 263.188 L 333.632, 267.265 L 330.86, 271.178 L 327.925, 275.255 L 320.913, 284.713 L 306.89, 304.117 L 302.324, 310.151 L 299.062, 314.554 L 295.964, 318.956 L 292.703, 323.359 L 289.442, 327.762 L 286.18, 332.165 L 245.577, 315.043 z "/>
<path style="fill:rgb(255, 255, 0);fill-opacity:0;fill-rule:evenodd;stroke:rgb(0, 255, 18);stroke-width:1;" d="M 22.34, 697.758 L 30.9825, 654.219 L 35.2222, 653.078 L 120.016, 687.974 L 109.254, 703.139 L 92.9474, 696.453 L 90.0122, 700.53 L 85.7725, 698.736 L 75.1733, 713.738 L 73.7057, 713.249 L 70.6074, 717.652 L 36.3636, 703.465 L 22.34, 697.758 z "/>
<path style="fill:rgb(255, 0, 0);fill-opacity:0;fill-rule:evenodd;stroke:rgb(0, 255, 18);stroke-width:1;" d="M 749.45, 659.6 L 777.171, 620.954 L 793.64, 627.803 L 785.976, 638.402 L 854.464, 667.754 L 833.755, 695.475 L 765.756, 666.449 L 749.45, 659.6 z "/>
<path style="fill:rgb(0, 255, 0);fill-opacity:0;fill-rule:evenodd;stroke:rgb(0, 255, 18);stroke-width:1;" d="M 353.037, 310.314 L 366.735, 291.561 L 369.67, 287.485 L 372.605, 283.571 L 375.54, 279.658 L 378.312, 275.581 L 381.247, 271.667 L 445.006, 298.41 L 416.959, 337.22 L 409.132, 333.958 L 404.24, 331.839 L 398.369, 329.393 L 387.77, 324.99 L 353.037, 310.314 z "/>
<path style="fill:rgb(0, 0, 255);fill-opacity:0;fill-rule:evenodd;stroke:rgb(0, 255, 18);stroke-width:1;" d="M 785.976, 638.402 L 793.64, 627.803 L 797.228, 623.074 L 821.851, 588.83 L 831.635, 593.07 L 827.884, 593.885 L 825.601, 596.82 L 843.539, 622.585 L 873.216, 636.282 L 878.435, 635.63 L 876.315, 638.565 L 872.727, 643.131 L 868.977, 648.349 L 865.226, 653.404 L 861.313, 658.459 L 854.464, 667.754 L 785.976, 638.402 z "/>
<path style="fill:rgb(255, 255, 0);fill-opacity:0;fill-rule:evenodd;stroke:rgb(0, 255, 18);stroke-width:1;" d="M 308.683, 209.376 L 364.289, 133.225 L 390.053, 143.987 L 362.495, 181.981 L 374.888, 187.199 L 346.188, 225.683 L 308.683, 209.376 z "/>
<path style="fill:rgb(255, 0, 0);fill-opacity:0;fill-rule:evenodd;stroke:rgb(0, 255, 18);stroke-width:1;" d="M 87.7293, 603.832 L 100.775, 586.058 L 121.81, 557.521 L 174.317, 579.535 L 145.781, 618.345 L 140.563, 625.357 L 140.073, 626.009 L 87.7293, 603.832 z "/>
<path style="fill:rgb(0, 255, 0);fill-opacity:0;fill-rule:evenodd;stroke:rgb(0, 255, 18);stroke-width:1;" d="M 685.854, 632.858 L 713.575, 594.374 L 748.471, 608.887 L 777.171, 620.954 L 749.45, 659.6 L 685.854, 632.858 z "/>
<path style="fill:rgb(0, 0, 255);fill-opacity:0;fill-rule:evenodd;stroke:rgb(0, 255, 18);stroke-width:1;" d="M 158.174, 215.247 L 168.61, 181.981 L 257.644, 219.486 L 236.608, 248.349 L 158.174, 215.247 z "/>
<path style="fill:rgb(255, 255, 0);fill-opacity:0;fill-rule:evenodd;stroke:rgb(0, 255, 18);stroke-width:1;" d="M 212.148, 433.265 L 234.488, 402.446 L 265.145, 415.165 L 271.015, 407.827 L 295.638, 375.703 L 310.151, 381.737 L 300.041, 398.859 L 304.444, 400.815 L 304.933, 400.978 L 283.245, 430.33 L 271.993, 445.332 L 264.492, 455.442 L 263.677, 455.116 L 212.148, 433.265 z "/>
<path style="fill:rgb(255, 0, 0);fill-opacity:0;fill-rule:evenodd;stroke:rgb(0, 255, 18);stroke-width:1;" d="M 81.6959, 461.313 L 95.7195, 415.491 L 168.61, 446.311 L 167.795, 447.452 L 164.207, 452.67 L 163.392, 453.812 L 159.804, 458.867 L 158.989, 460.008 L 155.238, 465.063 L 154.586, 466.205 L 150.836, 471.423 L 150.02, 472.401 L 149.205, 473.543 L 148.39, 474.684 L 144.476, 480.228 L 109.58, 465.879 L 107.623, 465.552 L 105.993, 465.389 L 104.688, 465.063 L 98.9808, 464.248 L 97.1871, 463.922 L 90.9906, 462.943 L 89.0338, 462.617 L 83.9788, 461.802 L 81.6959, 461.313 z "/>
<path style="fill:rgb(0, 255, 0);fill-opacity:0;fill-rule:evenodd;stroke:rgb(0, 255, 18);stroke-width:1;" d="M 271.993, 445.332 L 283.245, 430.33 L 304.933, 400.978 L 315.206, 387.118 L 325.479, 391.521 L 341.623, 398.532 L 340.97, 400.163 L 340.318, 401.631 L 340.155, 403.261 L 340.155, 404.729 L 340.644, 406.686 L 341.133, 408.479 L 342.438, 410.273 L 343.579, 411.904 L 345.536, 412.882 L 347.167, 413.861 L 311.455, 461.965 L 271.993, 445.332 z "/>
<path style="fill:rgb(0, 0, 255);fill-opacity:0;fill-rule:evenodd;stroke:rgb(0, 255, 18);stroke-width:1;" d="M 178.883, 154.912 L 191.602, 110.232 L 246.392, 133.388 L 236.119, 147.411 L 252.752, 154.423 L 234.978, 178.557 L 178.883, 154.912 z "/>
<path style="fill:rgb(255, 255, 0);fill-opacity:0;fill-rule:evenodd;stroke:rgb(0, 255, 18);stroke-width:1;" d="M 849.246, 152.14 L 872.401, 120.342 L 890.012, 127.68 L 923.767, 81.2067 L 946.596, 90.8276 L 923.115, 123.115 L 921.647, 125.234 L 915.94, 122.788 L 911.211, 129.474 L 884.142, 166.816 L 849.246, 152.14 z "/>
<path style="fill:rgb(255, 0, 0);fill-opacity:0;fill-rule:evenodd;stroke:rgb(0, 255, 18);stroke-width:1;" d="M 338.035, 617.366 L 351.406, 599.103 L 357.277, 590.95 L 363.147, 582.96 L 370.159, 585.895 L 377.823, 588.993 L 386.466, 577.252 L 379.943, 574.48 L 401.468, 544.965 L 402.12, 543.987 L 425.927, 554.097 L 401.141, 588.178 L 394.945, 596.657 L 369.996, 630.901 L 338.035, 617.366 z "/>
<path style="fill:rgb(0, 255, 0);fill-opacity:0;fill-rule:evenodd;stroke:rgb(0, 255, 18);stroke-width:1;" d="M 366.898, 498.492 L 394.782, 460.008 L 397.228, 460.987 L 399.674, 461.965 L 401.957, 462.943 L 404.403, 463.922 L 407.501, 465.389 L 415.002, 468.488 L 437.505, 477.945 L 445.821, 481.37 L 423.808, 511.863 L 422.503, 513.494 L 421.362, 515.124 L 420.22, 516.755 L 419.079, 518.386 L 417.937, 520.016 L 366.898, 498.492 z "/>
<path style="fill:rgb(0, 0, 255);fill-opacity:0;fill-rule:evenodd;stroke:rgb(0, 255, 18);stroke-width:1;" d="M 866.042, 494.252 L 871.912, 486.262 L 896.046, 496.209 L 924.419, 457.073 L 899.959, 446.963 L 905.993, 438.483 L 951.488, 457.562 L 944.802, 466.694 L 955.238, 471.097 L 940.889, 490.991 L 927.68, 508.765 L 916.592, 504.199 L 910.232, 512.841 L 894.089, 505.993 L 870.118, 496.046 L 866.042, 494.252 z "/>
<path style="fill:rgb(255, 255, 0);fill-opacity:0;fill-rule:evenodd;stroke:rgb(0, 255, 18);stroke-width:1;" d="M 633.836, 173.502 L 650.143, 150.51 L 734.611, 186.221 L 727.436, 196.005 L 717.652, 209.376 L 633.836, 173.502 z "/>
<path style="fill:rgb(255, 0, 0);fill-opacity:0;fill-rule:evenodd;stroke:rgb(0, 255, 18);stroke-width:1;" d="M 117.733, 656.013 L 119.527, 653.73 L 121.321, 651.121 L 131.92, 636.934 L 140.073, 626.009 L 140.563, 625.357 L 145.781, 618.345 L 154.26, 621.932 L 166.816, 627.313 L 182.96, 634.162 L 189.808, 637.097 L 193.396, 638.565 L 196.494, 639.87 L 188.015, 651.284 L 168.447, 677.538 L 117.733, 656.013 z "/>
<path style="fill:rgb(0, 255, 0);fill-opacity:0;fill-rule:evenodd;stroke:rgb(0, 255, 18);stroke-width:1;" d="M 101.59, 491.317 L 109.58, 465.879 L 144.476, 480.228 L 148.39, 474.684 L 186.547, 490.828 L 179.698, 500.285 L 199.103, 508.439 L 191.439, 518.875 L 166.001, 508.113 L 165.512, 508.928 L 165.022, 509.58 L 164.37, 510.395 L 160.946, 515.124 L 160.13, 516.266 L 101.59, 491.317 z "/>
<path style="fill:rgb(0, 0, 255);fill-opacity:0;fill-rule:evenodd;stroke:rgb(0, 255, 18);stroke-width:1;" d="M 459.845, 615.247 L 485.936, 579.372 L 535.671, 600.408 L 509.254, 636.608 L 507.949, 638.402 L 467.835, 621.606 L 469.466, 619.323 L 459.845, 615.247 z "/>
<path style="fill:rgb(255, 255, 0);fill-opacity:0;fill-rule:evenodd;stroke:rgb(0, 255, 18);stroke-width:1;" d="M 365.919, 705.585 L 391.031, 671.178 L 445.332, 694.007 L 429.841, 715.206 L 428.047, 714.391 L 423.808, 720.424 L 425.927, 721.239 L 420.546, 728.577 L 365.919, 705.585 z "/>
<path style="fill:rgb(255, 0, 0);fill-opacity:0;fill-rule:evenodd;stroke:rgb(0, 255, 18);stroke-width:1;" d="M 417.937, 520.016 L 419.079, 518.386 L 420.22, 516.755 L 421.362, 515.124 L 422.503, 513.494 L 423.808, 511.863 L 445.821, 481.37 L 448.594, 477.619 L 476.478, 489.36 L 492.295, 496.046 L 461.476, 538.28 L 417.937, 520.016 z "/>
<path style="fill:rgb(0, 255, 0);fill-opacity:0;fill-rule:evenodd;stroke:rgb(0, 255, 18);stroke-width:1;" d="M 558.174, 579.046 L 582.47, 544.802 L 594.863, 550.02 L 589.645, 557.358 L 612.148, 566.653 L 617.203, 559.641 L 641.663, 569.751 L 617.366, 603.995 L 606.604, 599.429 L 607.583, 598.125 L 568.284, 581.981 L 567.631, 582.96 L 558.174, 579.046 z "/>
<path style="fill:rgb(0, 0, 255);fill-opacity:0;fill-rule:evenodd;stroke:rgb(0, 255, 18);stroke-width:1;" d="M 283.408, 725.805 L 308.031, 692.214 L 360.701, 714.391 L 336.078, 748.145 L 283.408, 725.805 z "/>
<path style="fill:rgb(255, 255, 0);fill-opacity:0;fill-rule:evenodd;stroke:rgb(0, 255, 18);stroke-width:1;" d="M 264.656, 660.09 L 282.43, 636.119 L 289.278, 638.891 L 290.094, 637.913 L 344.395, 660.742 L 330.534, 679.658 L 319.609, 675.092 L 313.901, 682.756 L 306.563, 679.821 L 305.911, 680.636 L 276.559, 668.243 L 277.212, 667.428 L 270.037, 664.492 L 271.178, 662.862 L 264.656, 660.09 z "/>
<path style="fill:rgb(255, 0, 0);fill-opacity:0;fill-rule:evenodd;stroke:rgb(0, 255, 18);stroke-width:1;" d="M 52.6702, 565.512 L 59.1928, 536.323 L 65.3893, 533.714 L 121.81, 557.521 L 100.775, 586.058 L 52.6702, 565.512 z "/>
<path style="fill:rgb(0, 255, 0);fill-opacity:0;fill-rule:evenodd;stroke:rgb(0, 255, 18);stroke-width:1;" d="M 710.477, 227.313 L 720.587, 213.616 L 830.004, 259.6 L 822.992, 268.569 L 819.731, 273.135 L 710.477, 227.313 z "/>
<path style="fill:rgb(0, 0, 255);fill-opacity:0;fill-rule:evenodd;stroke:rgb(0, 255, 18);stroke-width:1;" d="M 179.698, 500.285 L 186.547, 490.828 L 187.362, 489.686 L 188.015, 488.545 L 188.83, 487.403 L 192.581, 482.348 L 193.396, 481.207 L 196.983, 475.989 L 197.799, 474.847 L 201.386, 469.792 L 202.201, 468.651 L 205.952, 463.596 L 206.604, 462.454 L 246.066, 479.576 L 234.488, 495.393 L 221.117, 513.657 L 218.997, 516.592 L 199.103, 508.439 L 179.698, 500.285 z "/>
<path style="fill:rgb(255, 255, 0);fill-opacity:0;fill-rule:evenodd;stroke:rgb(0, 255, 18);stroke-width:1;" d="M 533.062, 522.462 L 535.834, 518.712 L 537.627, 519.364 L 540.073, 516.103 L 561.109, 487.077 L 561.272, 486.751 L 564.859, 482.022 L 565.185, 481.37 L 565.512, 480.881 L 608.072, 498.818 L 639.054, 511.863 L 638.728, 512.515 L 638.402, 513.004 L 636.608, 515.45 L 635.141, 511.537 L 610.192, 501.101 L 605.463, 502.568 L 603.832, 504.688 L 603.669, 505.014 L 592.417, 520.506 L 591.439, 521.81 L 588.504, 525.724 L 585.569, 529.637 L 549.531, 514.472 L 541.215, 525.887 L 533.062, 522.462 z "/>
<path style="fill:rgb(255, 0, 0);fill-opacity:0;fill-rule:evenodd;stroke:rgb(0, 255, 18);stroke-width:1;" d="M 755.157, 166.327 L 764.615, 153.445 L 840.603, 185.243 L 874.032, 199.266 L 864.574, 212.311 L 755.157, 166.327 z "/>
<path style="fill:rgb(0, 255, 0);fill-opacity:0;fill-rule:evenodd;stroke:rgb(0, 255, 18);stroke-width:1;" d="M 190.95, 554.749 L 192.091, 553.119 L 218.997, 516.592 L 221.117, 513.657 L 225.031, 515.287 L 220.465, 521.484 L 256.991, 536.975 L 261.557, 530.779 L 267.428, 533.225 L 271.83, 535.181 L 264.003, 545.618 L 234.325, 533.062 L 228.618, 540.726 L 223.074, 548.39 L 252.752, 560.946 L 241.5, 575.948 L 190.95, 554.749 z "/>
<path style="fill:rgb(0, 0, 255);fill-opacity:0;fill-rule:evenodd;stroke:rgb(0, 255, 18);stroke-width:1;" d="M 533.062, 522.462 L 535.834, 518.712 L 537.627, 519.364 L 540.073, 516.103 L 561.109, 487.077 L 561.272, 486.751 L 564.859, 482.022 L 565.185, 481.37 L 638.728, 512.515 L 638.402, 513.004 L 610.192, 501.101 L 605.463, 502.568 L 603.832, 504.688 L 603.669, 505.014 L 592.417, 520.506 L 591.439, 521.81 L 588.504, 525.724 L 585.569, 529.637 L 549.531, 514.472 L 541.215, 525.887 L 533.062, 522.462 z "/>
<path style="fill:rgb(255, 255, 0);fill-opacity:0;fill-rule:evenodd;stroke:rgb(0, 255, 18);stroke-width:1;" d="M 859.193, 429.841 L 883.163, 396.902 L 923.767, 413.534 L 905.993, 438.483 L 899.959, 446.963 L 859.193, 429.841 z "/>
<path style="fill:rgb(255, 0, 0);fill-opacity:0;fill-rule:evenodd;stroke:rgb(0, 255, 18);stroke-width:1;" d="M 212.148, 433.265 L 234.488, 402.446 L 265.145, 415.165 L 271.015, 407.827 L 252.752, 439.625 L 265.634, 444.843 L 279.331, 428.536 L 290.42, 415.328 L 300.041, 398.859 L 304.444, 400.815 L 282.593, 429.841 L 263.677, 455.116 L 212.148, 433.265 z "/>
<path style="fill:rgb(0, 255, 0);fill-opacity:0;fill-rule:evenodd;stroke:rgb(0, 255, 18);stroke-width:1;" d="M 380.758, 496.046 L 404.403, 463.922 L 407.501, 465.389 L 415.002, 468.488 L 437.505, 477.945 L 445.821, 481.37 L 423.808, 511.863 L 422.503, 513.494 L 380.758, 496.046 z "/>
<path style="fill:rgb(0, 0, 255);fill-opacity:0;fill-rule:evenodd;stroke:rgb(0, 255, 18);stroke-width:1;" d="M 121.321, 651.121 L 131.92, 636.934 L 140.073, 626.009 L 140.563, 625.357 L 145.781, 618.345 L 154.26, 621.932 L 166.816, 627.313 L 182.96, 634.162 L 189.808, 637.097 L 181.981, 647.371 L 178.883, 646.229 L 164.044, 666.123 L 136.975, 654.709 L 135.181, 657.155 L 121.321, 651.121 z "/>
<path style="fill:rgb(255, 255, 0);fill-opacity:0;fill-rule:evenodd;stroke:rgb(0, 255, 18);stroke-width:1;" d="M 220.465, 521.484 L 225.031, 515.287 L 221.117, 513.657 L 234.488, 495.393 L 238.402, 497.024 L 242.968, 490.664 L 279.494, 506.156 L 274.929, 512.352 L 280.962, 514.961 L 267.428, 533.225 L 261.557, 530.779 L 256.991, 536.975 L 220.465, 521.484 z "/>
<path style="fill:rgb(255, 0, 0);fill-opacity:0;fill-rule:evenodd;stroke:rgb(0, 255, 18);stroke-width:1;" d="M 476.478, 489.36 L 501.916, 454.138 L 538.606, 469.629 L 513.168, 504.688 L 504.362, 501.101 L 492.295, 496.046 L 476.478, 489.36 z "/>
<path style="fill:rgb(0, 255, 0);fill-opacity:0;fill-rule:evenodd;stroke:rgb(0, 255, 18);stroke-width:1;" d="M 809.132, 498.818 L 830.819, 468.977 L 871.912, 486.262 L 866.042, 494.252 L 850.061, 516.103 L 809.132, 498.818 z "/>
<path style="fill:rgb(0, 0, 255);fill-opacity:0;fill-rule:evenodd;stroke:rgb(0, 255, 18);stroke-width:1;" d="M 406.196, 444.191 L 423.155, 421.035 L 474.195, 442.56 L 457.236, 465.715 L 406.196, 444.191 z "/>
<path style="fill:rgb(255, 255, 0);fill-opacity:0;fill-rule:evenodd;stroke:rgb(0, 255, 18);stroke-width:1;" d="M 505.014, 688.3 L 505.177, 687.974 L 529.637, 654.382 L 530.453, 653.241 L 563.555, 667.265 L 554.586, 679.494 L 539.258, 700.693 L 538.117, 702.324 L 505.014, 688.3 z "/>
<path style="fill:rgb(255, 0, 0);fill-opacity:0;fill-rule:evenodd;stroke:rgb(0, 255, 18);stroke-width:1;" d="M 642.805, 614.268 L 668.08, 578.883 L 689.768, 587.852 L 700.53, 592.254 L 675.255, 627.64 L 642.805, 614.268 z "/>
<path style="fill:rgb(0, 255, 0);fill-opacity:0;fill-rule:evenodd;stroke:rgb(0, 255, 18);stroke-width:1;" d="M 433.265, 657.644 L 452.67, 631.064 L 458.377, 623.237 L 470.77, 628.618 L 473.38, 624.868 L 492.132, 632.858 L 489.36, 636.608 L 464.411, 670.852 L 433.265, 657.644 z "/>
<path style="fill:rgb(0, 0, 255);fill-opacity:0;fill-rule:evenodd;stroke:rgb(0, 255, 18);stroke-width:1;" d="M 533.062, 522.462 L 535.834, 518.712 L 537.627, 519.364 L 540.073, 516.103 L 561.109, 487.077 L 561.272, 486.751 L 603.832, 504.688 L 603.669, 505.014 L 592.417, 520.506 L 591.439, 521.81 L 588.504, 525.724 L 585.569, 529.637 L 549.531, 514.472 L 541.215, 525.887 L 533.062, 522.462 z "/>
<path style="fill:rgb(255, 255, 0);fill-opacity:0;fill-rule:evenodd;stroke:rgb(0, 255, 18);stroke-width:1;" d="M 764.452, 609.376 L 789.238, 574.969 L 821.851, 588.83 L 797.228, 623.074 L 764.452, 609.376 z "/>
<path style="fill:rgb(255, 0, 0);fill-opacity:0;fill-rule:evenodd;stroke:rgb(0, 255, 18);stroke-width:1;" d="M 423.318, 730.045 L 431.635, 718.63 L 428.373, 717.326 L 429.841, 715.206 L 445.332, 694.007 L 477.13, 707.379 L 451.855, 742.112 L 423.318, 730.045 z "/>
<path style="fill:rgb(0, 255, 0);fill-opacity:0;fill-rule:evenodd;stroke:rgb(0, 255, 18);stroke-width:1;" d="M 252.752, 439.625 L 271.015, 407.827 L 295.638, 375.703 L 310.151, 381.737 L 300.041, 398.859 L 290.42, 415.328 L 279.331, 428.536 L 265.634, 444.843 L 252.752, 439.625 z "/>
<path style="fill:rgb(0, 0, 255);fill-opacity:0;fill-rule:evenodd;stroke:rgb(0, 255, 18);stroke-width:1;" d="M 757.277, 719.772 L 771.953, 699.715 L 824.297, 721.728 L 812.556, 737.872 L 801.957, 733.469 L 799.022, 737.383 L 757.277, 719.772 z "/>
<path style="fill:rgb(255, 255, 0);fill-opacity:0;fill-rule:evenodd;stroke:rgb(0, 255, 18);stroke-width:1;" d="M 668.243, 574.643 L 673.95, 566.979 L 696.779, 536.16 L 723.522, 547.411 L 704.444, 573.502 L 701.345, 572.197 L 692.051, 584.916 L 668.243, 574.643 z "/>
<path style="fill:rgb(255, 0, 0);fill-opacity:0;fill-rule:evenodd;stroke:rgb(0, 255, 18);stroke-width:1;" d="M 595.19, 725.968 L 620.465, 691.398 L 649.817, 703.791 L 637.097, 721.239 L 630.575, 718.63 L 628.781, 721.076 L 635.141, 723.848 L 624.541, 738.361 L 595.19, 725.968 z "/>
<path style="fill:rgb(0, 255, 0);fill-opacity:0;fill-rule:evenodd;stroke:rgb(0, 255, 18);stroke-width:1;" d="M 448.594, 477.619 L 452.018, 473.053 L 457.236, 465.715 L 474.195, 442.56 L 501.916, 454.138 L 476.478, 489.36 L 448.594, 477.619 z "/>
<path style="fill:rgb(0, 0, 255);fill-opacity:0;fill-rule:evenodd;stroke:rgb(0, 255, 18);stroke-width:1;" d="M 315.695, 315.695 L 320.098, 309.662 L 327.436, 299.552 L 330.697, 301.019 L 353.037, 310.314 L 387.77, 324.99 L 376.029, 341.133 L 315.695, 315.695 z "/>
<path style="fill:rgb(255, 255, 0);fill-opacity:0;fill-rule:evenodd;stroke:rgb(0, 255, 18);stroke-width:1;" d="M 389.89, 489.523 L 407.501, 465.389 L 415.002, 468.488 L 437.505, 477.945 L 445.821, 481.37 L 423.808, 511.863 L 417.937, 509.417 L 421.035, 505.014 L 417.448, 503.384 L 418.753, 501.59 L 398.369, 493.11 L 389.89, 489.523 z "/>
<path style="fill:rgb(255, 0, 0);fill-opacity:0;fill-rule:evenodd;stroke:rgb(0, 255, 18);stroke-width:1;" d="M 892.295, 502.894 L 929.8, 451.04 L 948.716, 458.867 L 911.211, 510.558 L 892.295, 502.894 z "/>
<path style="fill:rgb(0, 255, 0);fill-opacity:0;fill-rule:evenodd;stroke:rgb(0, 255, 18);stroke-width:1;" d="M 368.691, 632.532 L 369.996, 630.901 L 394.945, 596.657 L 421.688, 608.072 L 397.554, 641.174 L 395.597, 643.946 L 368.691, 632.532 z "/>
<path style="fill:rgb(0, 0, 255);fill-opacity:0;fill-rule:evenodd;stroke:rgb(0, 255, 18);stroke-width:1;" d="M 107.297, 490.012 L 109.906, 481.696 L 118.386, 475.499 L 126.213, 478.598 L 127.028, 477.619 L 152.14, 488.219 L 157.032, 481.37 L 180.351, 491.317 L 171.708, 503.057 L 159.967, 498.002 L 157.848, 497.187 L 150.02, 507.949 L 142.03, 504.525 L 141.052, 505.83 L 114.472, 494.578 L 115.287, 493.6 L 107.297, 490.012 z "/>
<path style="fill:rgb(255, 255, 0);fill-opacity:0;fill-rule:evenodd;stroke:rgb(0, 255, 18);stroke-width:1;" d="M 513.168, 504.688 L 538.606, 469.629 L 565.512, 480.881 L 565.185, 481.37 L 564.859, 482.022 L 561.272, 486.751 L 561.109, 487.077 L 540.073, 516.103 L 527.028, 510.558 L 515.614, 505.83 L 513.168, 504.688 z "/>
<path style="fill:rgb(255, 0, 0);fill-opacity:0;fill-rule:evenodd;stroke:rgb(0, 255, 18);stroke-width:1;" d="M 625.846, 553.771 L 634.162, 542.682 L 638.728, 544.639 L 648.023, 532.083 L 645.414, 530.942 L 654.545, 518.386 L 680.636, 529.311 L 670.037, 543.824 L 666.775, 542.519 L 657.481, 555.075 L 660.905, 556.543 L 653.893, 565.838 L 646.392, 562.74 L 644.925, 564.696 L 635.141, 560.457 L 636.608, 558.337 L 625.846, 553.771 z "/>
<path style="fill:rgb(0, 255, 0);fill-opacity:0;fill-rule:evenodd;stroke:rgb(0, 255, 18);stroke-width:1;" d="M 585.569, 529.637 L 588.504, 525.724 L 591.439, 521.81 L 592.417, 520.506 L 603.669, 505.014 L 603.832, 504.688 L 605.463, 502.568 L 610.192, 501.101 L 635.141, 511.537 L 636.608, 515.45 L 634.651, 518.06 L 623.4, 533.388 L 622.422, 534.692 L 619.649, 538.932 L 616.714, 543.009 L 585.569, 529.637 z "/>
<path style="fill:rgb(0, 0, 255);fill-opacity:0;fill-rule:evenodd;stroke:rgb(0, 255, 18);stroke-width:1;" d="M 547.574, 649.001 L 571.871, 615.573 L 599.429, 627.15 L 575.132, 660.579 L 547.574, 649.001 z "/>
<path style="fill:rgb(255, 255, 0);fill-opacity:0;fill-rule:evenodd;stroke:rgb(0, 255, 18);stroke-width:1;" d="M 187.689, 422.992 L 215.899, 384.183 L 218.997, 379.78 L 231.227, 384.835 L 222.258, 397.228 L 234.488, 402.446 L 212.148, 433.265 L 187.689, 422.992 z "/>
<path style="fill:rgb(255, 0, 0);fill-opacity:0;fill-rule:evenodd;stroke:rgb(0, 255, 18);stroke-width:1;" d="M 406.36, 646.392 L 407.012, 645.251 L 431.309, 612.148 L 454.464, 621.932 L 448.92, 629.433 L 452.67, 631.064 L 433.265, 657.644 L 406.36, 646.392 z "/>
<path style="fill:rgb(0, 255, 0);fill-opacity:0;fill-rule:evenodd;stroke:rgb(0, 255, 18);stroke-width:1;" d="M 224.868, 520.506 L 229.433, 514.309 L 226.661, 513.168 L 236.934, 499.307 L 239.706, 500.448 L 244.272, 494.252 L 275.092, 507.134 L 270.363, 513.494 L 272.972, 514.472 L 262.862, 528.333 L 260.253, 527.354 L 255.687, 533.551 L 224.868, 520.506 z "/>
<path style="fill:rgb(0, 0, 255);fill-opacity:0;fill-rule:evenodd;stroke:rgb(0, 255, 18);stroke-width:1;" d="M 18.2634, 218.997 L 38.3204, 191.113 L 52.0179, 196.657 L 56.2576, 190.787 L 69.1398, 196.168 L 62.6172, 205.137 L 74.3579, 206.115 L 67.8353, 215.247 L 56.2576, 213.127 L 44.3539, 229.759 L 18.2634, 218.997 z "/>
<path style="fill:rgb(255, 255, 0);fill-opacity:0;fill-rule:evenodd;stroke:rgb(0, 255, 18);stroke-width:1;" d="M 78.2715, 721.892 L 92.6213, 701.998 L 106.971, 707.868 L 137.301, 720.424 L 122.951, 740.318 L 119.527, 738.85 L 78.2715, 721.892 z "/>
<path style="fill:rgb(255, 0, 0);fill-opacity:0;fill-rule:evenodd;stroke:rgb(0, 255, 18);stroke-width:1;" d="M 616.551, 684.55 L 644.598, 646.229 L 667.428, 655.85 L 643.294, 688.952 L 639.543, 694.333 L 616.551, 684.55 z "/>
<path style="fill:rgb(0, 255, 0);fill-opacity:0;fill-rule:evenodd;stroke:rgb(0, 255, 18);stroke-width:1;" d="M 231.227, 384.835 L 232.205, 383.53 L 234.978, 379.78 L 241.011, 371.79 L 246.392, 364.615 L 252.263, 356.625 L 255.524, 352.385 L 256.502, 350.917 L 258.296, 351.733 L 263.514, 354.015 L 273.95, 358.581 L 279.168, 360.864 L 280.962, 361.517 L 279.984, 362.821 L 277.049, 366.735 L 271.178, 374.725 L 265.634, 381.9 L 259.764, 389.89 L 256.828, 393.804 L 255.85, 395.108 L 254.056, 394.293 L 248.023, 391.847 L 245.414, 395.597 L 237.587, 392.336 L 240.196, 388.585 L 233.021, 385.65 L 231.227, 384.835 z "/>
<path style="fill:rgb(0, 0, 255);fill-opacity:0;fill-rule:evenodd;stroke:rgb(0, 255, 18);stroke-width:1;" d="M 145.781, 618.345 L 174.317, 579.535 L 195.19, 588.341 L 188.341, 597.636 L 181.003, 607.746 L 173.991, 617.366 L 166.816, 627.313 L 154.26, 621.932 L 145.781, 618.345 z "/>
<path style="fill:rgb(255, 255, 0);fill-opacity:0;fill-rule:evenodd;stroke:rgb(0, 255, 18);stroke-width:1;" d="M 293.355, 599.429 L 307.216, 580.514 L 351.406, 599.103 L 338.035, 617.366 L 337.546, 618.019 L 293.355, 599.429 z M 312.76, 594.374 L 323.196, 598.777 L 325.316, 595.842 L 314.88, 591.439 L 312.76, 594.374 z "/>
<path style="fill:rgb(255, 0, 0);fill-opacity:0;fill-rule:evenodd;stroke:rgb(0, 255, 18);stroke-width:1;" d="M 507.46, 557.684 L 533.062, 522.462 L 541.215, 525.887 L 555.728, 531.92 L 530.126, 567.142 L 507.46, 557.684 z "/>
<path style="fill:rgb(0, 255, 0);fill-opacity:0;fill-rule:evenodd;stroke:rgb(0, 255, 18);stroke-width:1;" d="M 846.8, 528.822 L 870.118, 496.046 L 894.089, 505.993 L 870.77, 538.606 L 846.8, 528.822 z "/>
<path style="fill:rgb(0, 0, 255);fill-opacity:0;fill-rule:evenodd;stroke:rgb(0, 255, 18);stroke-width:1;" d="M 55.1162, 221.117 L 58.5406, 216.388 L 65.0632, 219.16 L 67.8353, 215.247 L 74.3579, 206.115 L 62.6172, 205.137 L 69.1398, 196.168 L 56.2576, 190.787 L 71.7489, 193.722 L 76.1517, 194.374 L 79.2499, 195.026 L 81.5328, 195.516 L 87.4032, 196.494 L 90.5014, 197.146 L 92.6213, 197.472 L 98.1655, 198.451 L 101.916, 199.103 L 92.7843, 228.618 L 63.7587, 224.704 L 55.1162, 221.117 z "/>
<path style="fill:rgb(255, 255, 0);fill-opacity:0;fill-rule:evenodd;stroke:rgb(0, 255, 18);stroke-width:1;" d="M 426.906, 606.767 L 455.932, 566.816 L 475.173, 574.806 L 446.963, 613.29 L 445.985, 614.757 L 426.906, 606.767 z "/>
<path style="fill:rgb(255, 0, 0);fill-opacity:0;fill-rule:evenodd;stroke:rgb(0, 255, 18);stroke-width:1;" d="M 331.839, 546.759 L 349.776, 522.136 L 380.758, 535.181 L 380.106, 535.997 L 362.821, 559.804 L 331.839, 546.759 z "/>
<path style="fill:rgb(0, 255, 0);fill-opacity:0;fill-rule:evenodd;stroke:rgb(0, 255, 18);stroke-width:1;" d="M 560.457, 711.292 L 582.144, 681.451 L 585.569, 676.722 L 607.583, 685.854 L 582.307, 720.587 L 560.457, 711.292 z "/>
<path style="fill:rgb(0, 0, 255);fill-opacity:0;fill-rule:evenodd;stroke:rgb(0, 255, 18);stroke-width:1;" d="M 838.32, 610.518 L 839.462, 608.887 L 846.637, 599.429 L 895.883, 621.28 L 886.751, 633.673 L 881.533, 631.39 L 878.435, 635.63 L 868.161, 630.738 L 857.562, 625.683 L 846.637, 619.812 L 848.267, 617.53 L 844.68, 616.062 L 845.332, 615.084 L 841.745, 613.616 L 842.723, 612.475 L 838.32, 610.518 z "/>
<path style="fill:rgb(255, 255, 0);fill-opacity:0;fill-rule:evenodd;stroke:rgb(0, 255, 18);stroke-width:1;" d="M 171.056, 546.433 L 171.708, 545.455 L 173.828, 542.519 L 174.48, 541.704 L 176.6, 538.769 L 177.415, 537.79 L 181.003, 532.898 L 181.818, 531.757 L 185.406, 527.028 L 189.808, 521.158 L 190.298, 520.342 L 190.787, 519.69 L 191.439, 518.875 L 199.103, 508.439 L 218.997, 516.592 L 192.091, 553.119 L 181.003, 548.553 L 179.861, 550.02 L 171.056, 546.433 z "/>
<path style="fill:rgb(255, 0, 0);fill-opacity:0;fill-rule:evenodd;stroke:rgb(0, 255, 18);stroke-width:1;" d="M 324.338, 688.137 L 330.534, 679.658 L 344.395, 660.742 L 349.287, 653.73 L 370.648, 662.699 L 345.536, 697.106 L 324.338, 688.137 z "/>
<path style="fill:rgb(0, 255, 0);fill-opacity:0;fill-rule:evenodd;stroke:rgb(0, 255, 18);stroke-width:1;" d="M 643.294, 688.952 L 667.428, 655.85 L 689.768, 665.308 L 666.449, 697.106 L 659.437, 694.17 L 658.622, 695.475 L 643.294, 688.952 z "/>
<path style="fill:rgb(0, 0, 255);fill-opacity:0;fill-rule:evenodd;stroke:rgb(0, 255, 18);stroke-width:1;" d="M 530.126, 567.142 L 555.728, 531.92 L 576.274, 540.563 L 554.26, 571.056 L 546.433, 574.154 L 530.126, 567.142 z "/>
<path style="fill:rgb(255, 255, 0);fill-opacity:0;fill-rule:evenodd;stroke:rgb(0, 255, 18);stroke-width:1;" d="M 464.411, 670.852 L 489.36, 636.608 L 510.232, 645.414 L 501.264, 657.644 L 485.283, 679.658 L 464.411, 670.852 z "/>
<path style="fill:rgb(255, 0, 0);fill-opacity:0;fill-rule:evenodd;stroke:rgb(0, 255, 18);stroke-width:1;" d="M 401.141, 588.178 L 425.927, 554.097 L 446.474, 562.74 L 421.525, 596.82 L 401.141, 588.178 z "/>
<path style="fill:rgb(0, 255, 0);fill-opacity:0;fill-rule:evenodd;stroke:rgb(0, 255, 18);stroke-width:1;" d="M 137.627, 644.435 L 140.4, 640.522 L 149.042, 628.944 L 154.26, 621.932 L 166.816, 627.313 L 182.96, 634.162 L 166.327, 656.665 L 158.337, 653.404 L 147.901, 648.838 L 137.627, 644.435 z "/>
<path style="fill:rgb(0, 0, 255);fill-opacity:0;fill-rule:evenodd;stroke:rgb(0, 255, 18);stroke-width:1;" d="M 485.283, 679.658 L 501.264, 657.644 L 504.199, 658.948 L 512.678, 647.208 L 529.637, 654.382 L 505.177, 687.974 L 485.283, 679.658 z "/>
<path style="fill:rgb(255, 255, 0);fill-opacity:0;fill-rule:evenodd;stroke:rgb(0, 255, 18);stroke-width:1;" d="M 749.45, 659.6 L 777.171, 620.954 L 793.64, 627.803 L 785.976, 638.402 L 765.756, 666.449 L 749.45, 659.6 z "/>
<path style="fill:rgb(255, 0, 0);fill-opacity:0;fill-rule:evenodd;stroke:rgb(0, 255, 18);stroke-width:1;" d="M 220.302, 699.062 L 236.282, 677.212 L 261.72, 687.974 L 259.927, 690.257 L 263.025, 691.561 L 248.675, 711.129 L 220.302, 699.062 z "/>
<path style="fill:rgb(0, 255, 0);fill-opacity:0;fill-rule:evenodd;stroke:rgb(0, 255, 18);stroke-width:1;" d="M 37.179, 169.751 L 42.8863, 162.087 L 44.5169, 162.74 L 45.9845, 160.62 L 48.1044, 161.435 L 48.7566, 160.62 L 64.9001, 167.468 L 64.2479, 168.447 L 77.9454, 174.317 L 77.2931, 176.437 L 79.0868, 176.763 L 75.0102, 190.298 L 73.0534, 189.971 L 71.7489, 193.722 L 56.2576, 190.787 L 55.9315, 184.753 L 41.7448, 178.394 L 44.1908, 175.296 L 38.3204, 172.85 L 37.342, 172.36 L 38.8096, 170.404 L 37.179, 169.751 z "/>
<path style="fill:rgb(0, 0, 255);fill-opacity:0;fill-rule:evenodd;stroke:rgb(0, 255, 18);stroke-width:1;" d="M 652.589, 567.631 L 653.893, 565.838 L 660.905, 556.543 L 657.481, 555.075 L 666.775, 542.519 L 670.037, 543.824 L 680.636, 529.311 L 696.779, 536.16 L 673.95, 566.979 L 663.84, 562.74 L 658.459, 570.241 L 652.589, 567.631 z "/>
<path style="fill:rgb(255, 255, 0);fill-opacity:0;fill-rule:evenodd;stroke:rgb(0, 255, 18);stroke-width:1;" d="M 234.488, 495.393 L 246.066, 479.576 L 296.943, 500.938 L 285.365, 516.918 L 280.962, 514.961 L 274.929, 512.352 L 279.494, 506.156 L 242.968, 490.664 L 238.402, 497.024 L 234.488, 495.393 z "/>
<path style="fill:rgb(255, 0, 0);fill-opacity:0;fill-rule:evenodd;stroke:rgb(0, 255, 18);stroke-width:1;" d="M 255.85, 395.108 L 256.828, 393.804 L 259.764, 389.89 L 265.634, 381.9 L 271.178, 374.725 L 277.049, 366.735 L 279.984, 362.821 L 280.962, 361.517 L 297.921, 368.854 L 272.809, 402.446 L 255.85, 395.108 z "/>
<path style="fill:rgb(0, 255, 0);fill-opacity:0;fill-rule:evenodd;stroke:rgb(0, 255, 18);stroke-width:1;" d="M 106.971, 707.868 L 120.669, 688.789 L 150.836, 701.182 L 137.301, 720.424 L 106.971, 707.868 z "/>
<path style="fill:rgb(0, 0, 255);fill-opacity:0;fill-rule:evenodd;stroke:rgb(0, 255, 18);stroke-width:1;" d="M 612.801, 548.39 L 616.714, 543.009 L 619.649, 538.932 L 622.422, 534.692 L 623.4, 533.388 L 634.651, 518.06 L 636.608, 515.45 L 638.402, 513.004 L 638.728, 512.515 L 639.054, 511.863 L 654.545, 518.386 L 645.414, 530.942 L 648.023, 532.083 L 638.728, 544.639 L 634.162, 542.682 L 625.846, 553.771 L 612.801, 548.39 z "/>
<path style="fill:rgb(255, 255, 0);fill-opacity:0;fill-rule:evenodd;stroke:rgb(0, 255, 18);stroke-width:1;" d="M 114.635, 354.342 L 118.06, 343.09 L 163.881, 362.332 L 177.252, 367.876 L 170.077, 377.66 L 114.635, 354.342 z "/>
<path style="fill:rgb(255, 0, 0);fill-opacity:0;fill-rule:evenodd;stroke:rgb(0, 255, 18);stroke-width:1;" d="M 341.623, 355.483 L 344.884, 351.08 L 346.025, 349.45 L 385.65, 366.082 L 397.391, 349.939 L 409.132, 333.958 L 416.959, 337.22 L 405.055, 353.363 L 388.912, 375.377 L 341.623, 355.483 z "/>
<path style="fill:rgb(0, 255, 0);fill-opacity:0;fill-rule:evenodd;stroke:rgb(0, 255, 18);stroke-width:1;" d="M 44.3539, 229.759 L 56.2576, 213.127 L 67.8353, 215.247 L 65.0632, 219.16 L 58.5406, 216.388 L 55.1162, 221.117 L 63.7587, 224.704 L 92.7843, 228.618 L 86.5879, 247.371 L 44.3539, 229.759 z "/>
<path style="fill:rgb(0, 0, 255);fill-opacity:0;fill-rule:evenodd;stroke:rgb(0, 255, 18);stroke-width:1;" d="M 592.417, 520.506 L 603.669, 505.014 L 603.832, 504.688 L 607.583, 504.851 L 609.05, 505.503 L 630.575, 514.635 L 632.205, 515.287 L 634.651, 518.06 L 623.4, 533.388 L 618.671, 531.431 L 597.146, 522.462 L 595.516, 521.81 L 592.417, 520.506 z "/>
<path style="fill:rgb(255, 255, 0);fill-opacity:0;fill-rule:evenodd;stroke:rgb(0, 255, 18);stroke-width:1;" d="M 70.7705, 502.405 L 83.9788, 461.802 L 89.0338, 462.617 L 77.2931, 499.144 L 122.136, 518.223 L 128.007, 520.669 L 139.91, 525.724 L 145.618, 528.17 L 150.02, 529.963 L 149.205, 530.942 L 148.553, 531.92 L 146.433, 534.855 L 142.03, 533.062 L 136.323, 530.616 L 124.419, 525.561 L 118.549, 522.951 L 70.7705, 502.405 z "/>
<path style="fill:rgb(255, 0, 0);fill-opacity:0;fill-rule:evenodd;stroke:rgb(0, 255, 18);stroke-width:1;" d="M 461.476, 538.28 L 492.295, 496.046 L 504.362, 501.101 L 499.796, 507.46 L 473.543, 543.498 L 461.476, 538.28 z "/>
<path style="fill:rgb(0, 255, 0);fill-opacity:0;fill-rule:evenodd;stroke:rgb(0, 255, 18);stroke-width:1;" d="M 114.309, 341.623 L 121.647, 331.512 L 171.219, 352.222 L 164.207, 361.843 L 163.881, 362.332 L 118.06, 343.09 L 114.309, 341.623 z "/>
<path style="fill:rgb(0, 0, 255);fill-opacity:0;fill-rule:evenodd;stroke:rgb(0, 255, 18);stroke-width:1;" d="M 79.576, 498.329 L 90.9906, 462.943 L 97.1871, 463.922 L 86.7509, 495.393 L 126.213, 512.515 L 132.083, 514.961 L 143.987, 520.016 L 149.857, 522.462 L 154.097, 524.419 L 152.14, 527.028 L 151.325, 528.17 L 150.51, 529.148 L 146.27, 527.517 L 140.4, 524.908 L 128.496, 519.853 L 122.788, 517.407 L 79.576, 498.329 z "/>
<path style="fill:rgb(255, 255, 0);fill-opacity:0;fill-rule:evenodd;stroke:rgb(0, 255, 18);stroke-width:1;" d="M 244.272, 182.47 L 270.852, 145.944 L 284.223, 151.488 L 273.95, 165.512 L 257.644, 188.015 L 244.272, 182.47 z "/>
<path style="fill:rgb(255, 0, 0);fill-opacity:0;fill-rule:evenodd;stroke:rgb(0, 255, 18);stroke-width:1;" d="M 484.794, 548.227 L 510.885, 512.189 L 515.614, 505.83 L 527.028, 510.558 L 496.372, 552.956 L 484.794, 548.227 z "/>
<path style="fill:rgb(0, 255, 0);fill-opacity:0;fill-rule:evenodd;stroke:rgb(0, 255, 18);stroke-width:1;" d="M 270.689, 720.424 L 298.573, 682.267 L 311.292, 687.648 L 308.031, 692.214 L 283.408, 725.805 L 270.689, 720.424 z "/>
<path style="fill:rgb(0, 0, 255);fill-opacity:0;fill-rule:evenodd;stroke:rgb(0, 255, 18);stroke-width:1;" d="M 496.372, 552.956 L 527.028, 510.558 L 540.073, 516.103 L 537.627, 519.364 L 535.834, 518.712 L 533.062, 522.462 L 507.46, 557.684 L 496.372, 552.956 z "/>
<path style="fill:rgb(255, 255, 0);fill-opacity:0;fill-rule:evenodd;stroke:rgb(0, 255, 18);stroke-width:1;" d="M 318.956, 564.207 L 325.805, 554.912 L 356.788, 567.958 L 367.061, 572.36 L 377.008, 576.437 L 370.159, 585.895 L 363.147, 582.96 L 318.956, 564.207 z "/>
<path style="fill:rgb(255, 0, 0);fill-opacity:0;fill-rule:evenodd;stroke:rgb(0, 255, 18);stroke-width:1;" d="M 362.495, 181.981 L 390.053, 143.987 L 402.446, 149.368 L 374.888, 187.199 L 362.495, 181.981 z "/>
<path style="fill:rgb(0, 255, 0);fill-opacity:0;fill-rule:evenodd;stroke:rgb(0, 255, 18);stroke-width:1;" d="M 299.715, 152.466 L 325.805, 117.244 L 339.013, 122.625 L 313.086, 158.174 L 300.041, 152.629 L 299.715, 152.466 z "/>
<path style="fill:rgb(0, 0, 255);fill-opacity:0;fill-rule:evenodd;stroke:rgb(0, 255, 18);stroke-width:1;" d="M 520.016, 643.457 L 521.321, 641.663 L 547.737, 605.463 L 559.967, 610.518 L 532.246, 648.512 L 520.016, 643.457 z "/>
<path style="fill:rgb(255, 255, 0);fill-opacity:0;fill-rule:evenodd;stroke:rgb(0, 255, 18);stroke-width:1;" d="M 750.428, 606.115 L 776.519, 569.751 L 789.238, 574.969 L 764.452, 609.376 L 763.147, 611.333 L 750.428, 606.115 z "/>
<path style="fill:rgb(255, 0, 0);fill-opacity:0;fill-rule:evenodd;stroke:rgb(0, 255, 18);stroke-width:1;" d="M 581.981, 670.037 L 610.029, 631.716 L 621.932, 636.771 L 593.885, 675.092 L 581.981, 670.037 z "/>
<path style="fill:rgb(0, 255, 0);fill-opacity:0;fill-rule:evenodd;stroke:rgb(0, 255, 18);stroke-width:1;" d="M 532.246, 648.512 L 559.967, 610.518 L 571.871, 615.573 L 547.574, 649.001 L 544.15, 653.567 L 532.246, 648.512 z "/>
<path style="fill:rgb(0, 0, 255);fill-opacity:0;fill-rule:evenodd;stroke:rgb(0, 255, 18);stroke-width:1;" d="M 884.142, 166.816 L 911.211, 129.474 L 923.278, 134.366 L 918.06, 141.541 L 896.046, 171.871 L 884.142, 166.816 z "/>
<path style="fill:rgb(255, 255, 0);fill-opacity:0;fill-rule:evenodd;stroke:rgb(0, 255, 18);stroke-width:1;" d="M 582.307, 720.587 L 607.583, 685.854 L 620.465, 691.398 L 595.19, 725.968 L 582.307, 720.587 z "/>
<path style="fill:rgb(255, 0, 0);fill-opacity:0;fill-rule:evenodd;stroke:rgb(0, 255, 18);stroke-width:1;" d="M 604.974, 679.658 L 632.858, 641.337 L 644.598, 646.229 L 616.551, 684.55 L 604.974, 679.658 z "/>
<path style="fill:rgb(0, 255, 0);fill-opacity:0;fill-rule:evenodd;stroke:rgb(0, 255, 18);stroke-width:1;" d="M 88.7077, 494.904 L 98.9808, 464.248 L 104.688, 465.063 L 96.0457, 492.784 L 130.453, 506.808 L 136.323, 509.254 L 148.227, 514.309 L 154.097, 516.755 L 158.337, 518.549 L 156.543, 521.158 L 155.728, 522.136 L 154.749, 523.604 L 150.347, 521.647 L 144.639, 519.201 L 132.735, 514.146 L 126.865, 511.7 L 88.7077, 494.904 z "/>
<path style="fill:rgb(0, 0, 255);fill-opacity:0;fill-rule:evenodd;stroke:rgb(0, 255, 18);stroke-width:1;" d="M 461.15, 749.45 L 488.219, 712.108 L 499.796, 717 L 472.401, 754.505 L 469.792, 754.668 L 462.291, 751.406 L 461.15, 749.45 z "/>
<path style="fill:rgb(255, 255, 0);fill-opacity:0;fill-rule:evenodd;stroke:rgb(0, 255, 18);stroke-width:1;" d="M 509.254, 636.608 L 535.671, 600.408 L 547.737, 605.463 L 521.321, 641.663 L 509.254, 636.608 z "/>
<path style="fill:rgb(255, 0, 0);fill-opacity:0;fill-rule:evenodd;stroke:rgb(0, 255, 18);stroke-width:1;" d="M 482.674, 758.907 L 510.069, 721.239 L 521.484, 726.131 L 494.089, 763.799 L 482.674, 758.907 z "/>
<path style="fill:rgb(0, 255, 0);fill-opacity:0;fill-rule:evenodd;stroke:rgb(0, 255, 18);stroke-width:1;" d="M 394.782, 460.008 L 400.978, 451.529 L 452.018, 473.053 L 448.594, 477.619 L 445.821, 481.37 L 437.505, 477.945 L 415.002, 468.488 L 407.501, 465.389 L 404.403, 463.922 L 401.957, 462.943 L 399.674, 461.965 L 397.228, 460.987 L 394.782, 460.008 z "/>
<path style="fill:rgb(0, 0, 255);fill-opacity:0;fill-rule:evenodd;stroke:rgb(0, 255, 18);stroke-width:1;" d="M 617.366, 603.995 L 641.663, 569.751 L 643.946, 566.49 L 652.915, 570.077 L 642.316, 584.916 L 646.718, 586.71 L 630.575, 609.376 L 617.366, 603.995 z "/>
<path style="fill:rgb(255, 255, 0);fill-opacity:0;fill-rule:evenodd;stroke:rgb(0, 255, 18);stroke-width:1;" d="M 259.437, 715.695 L 274.603, 694.986 L 275.418, 693.844 L 281.451, 685.528 L 287.485, 677.538 L 298.573, 682.267 L 270.689, 720.424 L 259.437, 715.695 z "/>
<path style="fill:rgb(255, 0, 0);fill-opacity:0;fill-rule:evenodd;stroke:rgb(0, 255, 18);stroke-width:1;" d="M 630.575, 609.376 L 646.718, 586.71 L 655.85, 573.828 L 668.08, 578.883 L 642.805, 614.268 L 630.575, 609.376 z "/>
<path style="fill:rgb(0, 255, 0);fill-opacity:0;fill-rule:evenodd;stroke:rgb(0, 255, 18);stroke-width:1;" d="M 450.224, 744.558 L 451.855, 742.112 L 477.13, 707.379 L 488.219, 712.108 L 461.15, 749.45 L 458.541, 749.776 L 451.855, 747.004 L 450.224, 744.558 z "/>
<path style="fill:rgb(0, 0, 255);fill-opacity:0;fill-rule:evenodd;stroke:rgb(0, 255, 18);stroke-width:1;" d="M 593.885, 675.092 L 621.932, 636.771 L 632.858, 641.337 L 604.974, 679.658 L 593.885, 675.092 z "/>
<path style="fill:rgb(255, 255, 0);fill-opacity:0;fill-rule:evenodd;stroke:rgb(0, 255, 18);stroke-width:1;" d="M 446.963, 613.29 L 475.173, 574.806 L 485.936, 579.372 L 459.845, 615.247 L 457.888, 617.856 L 446.963, 613.29 z "/>
<path style="fill:rgb(255, 0, 0);fill-opacity:0;fill-rule:evenodd;stroke:rgb(0, 255, 18);stroke-width:1;" d="M 330.697, 301.019 L 344.558, 282.267 L 366.735, 291.561 L 353.037, 310.314 L 330.697, 301.019 z "/>
<path style="fill:rgb(0, 255, 0);fill-opacity:0;fill-rule:evenodd;stroke:rgb(0, 255, 18);stroke-width:1;" d="M 336.078, 748.145 L 360.701, 714.391 L 362.658, 715.206 L 365.267, 711.618 L 374.562, 715.532 L 371.953, 719.119 L 347.656, 752.222 L 347.33, 752.874 L 336.078, 748.145 z "/>
<path style="fill:rgb(0, 0, 255);fill-opacity:0;fill-rule:evenodd;stroke:rgb(0, 255, 18);stroke-width:1;" d="M 571.382, 665.634 L 575.132, 660.579 L 599.429, 627.15 L 610.029, 631.716 L 581.981, 670.037 L 571.382, 665.634 z "/>
<path style="fill:rgb(255, 255, 0);fill-opacity:0;fill-rule:evenodd;stroke:rgb(0, 255, 18);stroke-width:1;" d="M 351.733, 341.623 L 354.505, 337.872 L 357.766, 333.469 L 376.029, 341.133 L 387.77, 324.99 L 398.369, 329.393 L 386.466, 345.536 L 380.432, 353.852 L 351.733, 341.623 z "/>
<path style="fill:rgb(255, 0, 0);fill-opacity:0;fill-rule:evenodd;stroke:rgb(0, 255, 18);stroke-width:1;" d="M 896.046, 171.871 L 918.06, 141.541 L 931.594, 147.248 L 927.68, 152.466 L 909.58, 177.578 L 896.046, 171.871 z "/>
<path style="fill:rgb(0, 255, 0);fill-opacity:0;fill-rule:evenodd;stroke:rgb(0, 255, 18);stroke-width:1;" d="M 473.543, 543.498 L 499.796, 507.46 L 510.885, 512.189 L 484.794, 548.227 L 473.543, 543.498 z "/>
<path style="fill:rgb(0, 0, 255);fill-opacity:0;fill-rule:evenodd;stroke:rgb(0, 255, 18);stroke-width:1;" d="M 472.401, 754.505 L 499.796, 717 L 510.069, 721.239 L 482.674, 758.907 L 480.228, 759.071 L 473.053, 756.135 L 472.401, 754.505 z "/>
<path style="fill:rgb(255, 255, 0);fill-opacity:0;fill-rule:evenodd;stroke:rgb(0, 255, 18);stroke-width:1;" d="M 25.1121, 177.578 L 29.3518, 171.545 L 39.1358, 158.011 L 43.2124, 152.303 L 83.8157, 169.425 L 79.9022, 182.47 L 76.1517, 194.374 L 71.7489, 193.722 L 73.0534, 189.971 L 75.0102, 190.298 L 79.0868, 176.763 L 77.2931, 176.437 L 77.9454, 174.317 L 64.2479, 168.447 L 64.9001, 167.468 L 48.7566, 160.62 L 48.1044, 161.435 L 45.9845, 160.62 L 44.5169, 162.74 L 42.8863, 162.087 L 37.179, 169.751 L 38.8096, 170.404 L 37.342, 172.36 L 38.3204, 172.85 L 32.6131, 180.84 L 25.1121, 177.578 z "/>
<path style="fill:rgb(255, 0, 0);fill-opacity:0;fill-rule:evenodd;stroke:rgb(0, 255, 18);stroke-width:1;" d="M 417.285, 602.691 L 421.525, 596.82 L 446.474, 562.74 L 455.932, 566.816 L 426.906, 606.767 L 417.285, 602.691 z "/>
<path style="fill:rgb(0, 255, 0);fill-opacity:0;fill-rule:evenodd;stroke:rgb(0, 255, 18);stroke-width:1;" d="M 306.89, 304.117 L 320.913, 284.713 L 327.599, 287.648 L 334.611, 278.027 L 344.558, 282.267 L 330.697, 301.019 L 327.436, 299.552 L 320.098, 309.662 L 306.89, 304.117 z "/>
<path style="fill:rgb(0, 0, 255);fill-opacity:0;fill-rule:evenodd;stroke:rgb(0, 255, 18);stroke-width:1;" d="M 400.978, 451.529 L 406.196, 444.191 L 457.236, 465.715 L 452.018, 473.053 L 400.978, 451.529 z "/>
<path style="fill:rgb(255, 255, 0);fill-opacity:0;fill-rule:evenodd;stroke:rgb(0, 255, 18);stroke-width:1;" d="M 345.536, 697.106 L 370.648, 662.699 L 381.411, 667.102 L 356.298, 701.508 L 345.536, 697.106 z "/>
<path style="fill:rgb(255, 0, 0);fill-opacity:0;fill-rule:evenodd;stroke:rgb(0, 255, 18);stroke-width:1;" d="M 307.216, 580.514 L 313.086, 572.36 L 357.277, 590.95 L 351.406, 599.103 L 307.216, 580.514 z "/>
<path style="fill:rgb(0, 255, 0);fill-opacity:0;fill-rule:evenodd;stroke:rgb(0, 255, 18);stroke-width:1;" d="M 313.086, 572.36 L 318.956, 564.207 L 363.147, 582.96 L 357.277, 590.95 L 313.086, 572.36 z "/>
<path style="fill:rgb(0, 0, 255);fill-opacity:0;fill-rule:evenodd;stroke:rgb(0, 255, 18);stroke-width:1;" d="M 367.061, 572.36 L 390.379, 540.236 L 401.468, 544.965 L 379.943, 574.48 L 378.149, 577.089 L 377.008, 576.437 L 367.061, 572.36 z "/>
<path style="fill:rgb(255, 255, 0);fill-opacity:0;fill-rule:evenodd;stroke:rgb(0, 255, 18);stroke-width:1;" d="M 356.298, 701.508 L 381.411, 667.102 L 391.031, 671.178 L 365.919, 705.585 L 356.298, 701.508 z "/>
<path style="fill:rgb(255, 0, 0);fill-opacity:0;fill-rule:evenodd;stroke:rgb(0, 255, 18);stroke-width:1;" d="M 356.788, 567.958 L 362.821, 559.804 L 380.106, 535.997 L 390.379, 540.236 L 367.061, 572.36 L 356.788, 567.958 z "/>
<path style="fill:rgb(0, 255, 0);fill-opacity:0;fill-rule:evenodd;stroke:rgb(0, 255, 18);stroke-width:1;" d="M 347.656, 752.222 L 371.953, 719.119 L 381.737, 723.359 L 357.603, 756.461 L 347.656, 752.222 z "/>
<path style="fill:rgb(0, 0, 255);fill-opacity:0;fill-rule:evenodd;stroke:rgb(0, 255, 18);stroke-width:1;" d="M 242.316, 669.058 L 248.512, 660.579 L 252.099, 662.21 L 287.485, 677.538 L 281.451, 685.528 L 242.316, 669.058 z "/>
<path style="fill:rgb(255, 255, 0);fill-opacity:0;fill-rule:evenodd;stroke:rgb(0, 255, 18);stroke-width:1;" d="M 236.282, 677.212 L 242.316, 669.058 L 281.451, 685.528 L 275.418, 693.844 L 261.72, 687.974 L 236.282, 677.212 z "/>
<path style="fill:rgb(255, 0, 0);fill-opacity:0;fill-rule:evenodd;stroke:rgb(0, 255, 18);stroke-width:1;" d="M 549.694, 706.89 L 550.673, 705.585 L 566.164, 684.223 L 571.545, 676.885 L 582.144, 681.451 L 560.457, 711.292 L 549.694, 706.89 z "/>
<path style="fill:rgb(0, 255, 0);fill-opacity:0;fill-rule:evenodd;stroke:rgb(0, 255, 18);stroke-width:1;" d="M 397.554, 641.174 L 421.688, 608.072 L 431.309, 612.148 L 407.012, 645.251 L 397.554, 641.174 z "/>
<path style="fill:rgb(0, 0, 255);fill-opacity:0;fill-rule:evenodd;stroke:rgb(0, 255, 18);stroke-width:1;" d="M 624.541, 738.361 L 635.141, 723.848 L 637.097, 721.239 L 649.817, 703.791 L 658.948, 707.542 L 633.673, 742.275 L 624.541, 738.361 z "/>
<path style="fill:rgb(255, 255, 0);fill-opacity:0;fill-rule:evenodd;stroke:rgb(0, 255, 18);stroke-width:1;" d="M 348.471, 346.025 L 351.243, 342.275 L 351.733, 341.623 L 380.432, 353.852 L 386.466, 345.536 L 398.369, 329.393 L 404.24, 331.839 L 392.499, 347.982 L 383.204, 360.701 L 348.471, 346.025 z "/>
<path style="fill:rgb(255, 0, 0);fill-opacity:0;fill-rule:evenodd;stroke:rgb(0, 255, 18);stroke-width:1;" d="M 181.003, 607.746 L 188.341, 597.636 L 218.019, 610.192 L 210.681, 620.139 L 181.003, 607.746 z "/>
<path style="fill:rgb(0, 255, 0);fill-opacity:0;fill-rule:evenodd;stroke:rgb(0, 255, 18);stroke-width:1;" d="M 166.816, 627.313 L 173.991, 617.366 L 203.669, 629.923 L 196.494, 639.87 L 193.396, 638.565 L 189.808, 637.097 L 182.96, 634.162 L 166.816, 627.313 z "/>
<path style="fill:rgb(0, 0, 255);fill-opacity:0;fill-rule:evenodd;stroke:rgb(0, 255, 18);stroke-width:1;" d="M 173.991, 617.366 L 181.003, 607.746 L 210.681, 620.139 L 203.669, 629.923 L 173.991, 617.366 z "/>
<path style="fill:rgb(255, 255, 0);fill-opacity:0;fill-rule:evenodd;stroke:rgb(0, 255, 18);stroke-width:1;" d="M 188.341, 597.636 L 195.19, 588.341 L 224.868, 600.734 L 218.019, 610.192 L 188.341, 597.636 z "/>
<path style="fill:rgb(255, 0, 0);fill-opacity:0;fill-rule:evenodd;stroke:rgb(0, 255, 18);stroke-width:1;" d="M 346.025, 349.45 L 348.145, 346.678 L 348.471, 346.025 L 383.204, 360.701 L 392.499, 347.982 L 404.24, 331.839 L 409.132, 333.958 L 397.391, 349.939 L 385.65, 366.082 L 346.025, 349.45 z "/>
<path style="fill:rgb(0, 255, 0);fill-opacity:0;fill-rule:evenodd;stroke:rgb(0, 255, 18);stroke-width:1;" d="M 662.862, 125.071 L 671.504, 113.331 L 691.887, 121.81 L 690.909, 123.115 L 693.192, 124.093 L 686.343, 133.714 L 683.245, 132.409 L 682.593, 133.388 L 662.862, 125.071 z "/>
<path style="fill:rgb(0, 0, 255);fill-opacity:0;fill-rule:evenodd;stroke:rgb(0, 255, 18);stroke-width:1;" d="M 325.805, 554.912 L 331.839, 546.759 L 362.821, 559.804 L 356.788, 567.958 L 325.805, 554.912 z "/>
<path style="fill:rgb(255, 255, 0);fill-opacity:0;fill-rule:evenodd;stroke:rgb(0, 255, 18);stroke-width:1;" d="M 290.094, 661.394 L 296.943, 651.936 L 323.848, 663.351 L 317, 672.809 L 290.094, 661.394 z "/>
<path style="fill:rgb(255, 0, 0);fill-opacity:0;fill-rule:evenodd;stroke:rgb(0, 255, 18);stroke-width:1;" d="M 579.861, 537.79 L 585.569, 529.637 L 616.714, 543.009 L 612.801, 548.39 L 611.007, 550.836 L 579.861, 537.79 z "/>
<path style="fill:rgb(0, 255, 0);fill-opacity:0;fill-rule:evenodd;stroke:rgb(0, 255, 18);stroke-width:1;" d="M 295.964, 318.956 L 299.062, 314.554 L 354.505, 337.872 L 351.733, 341.623 L 351.243, 342.275 L 295.964, 318.956 z "/>
<path style="fill:rgb(0, 0, 255);fill-opacity:0;fill-rule:evenodd;stroke:rgb(0, 255, 18);stroke-width:1;" d="M 289.442, 327.762 L 292.703, 323.359 L 348.145, 346.678 L 346.025, 349.45 L 344.884, 351.08 L 289.442, 327.762 z "/>
<path style="fill:rgb(255, 255, 0);fill-opacity:0;fill-rule:evenodd;stroke:rgb(0, 255, 18);stroke-width:1;" d="M 299.062, 314.554 L 302.324, 310.151 L 315.695, 315.695 L 357.766, 333.469 L 354.505, 337.872 L 299.062, 314.554 z "/>
<path style="fill:rgb(255, 0, 0);fill-opacity:0;fill-rule:evenodd;stroke:rgb(0, 255, 18);stroke-width:1;" d="M 286.18, 332.165 L 289.442, 327.762 L 344.884, 351.08 L 341.623, 355.483 L 286.18, 332.165 z "/>
<path style="fill:rgb(0, 255, 0);fill-opacity:0;fill-rule:evenodd;stroke:rgb(0, 255, 18);stroke-width:1;" d="M 292.703, 323.359 L 295.964, 318.956 L 351.243, 342.275 L 348.471, 346.025 L 348.145, 346.678 L 292.703, 323.359 z "/>
<path style="fill:rgb(0, 0, 255);fill-opacity:0;fill-rule:evenodd;stroke:rgb(0, 255, 18);stroke-width:1;" d="M 539.258, 700.693 L 554.586, 679.494 L 566.164, 684.223 L 550.673, 705.585 L 539.258, 700.693 z "/>
<path style="fill:rgb(255, 255, 0);fill-opacity:0;fill-rule:evenodd;stroke:rgb(0, 255, 18);stroke-width:1;" d="M 117.733, 656.013 L 119.527, 653.73 L 134.692, 660.09 L 136.323, 657.807 L 165.349, 670.2 L 181.655, 648.023 L 185.243, 649.49 L 193.396, 638.565 L 196.494, 639.87 L 188.015, 651.284 L 185.079, 650.143 L 166.979, 674.276 L 135.181, 660.742 L 133.551, 662.699 L 117.733, 656.013 z "/>
<path style="fill:rgb(255, 0, 0);fill-opacity:0;fill-rule:evenodd;stroke:rgb(0, 255, 18);stroke-width:1;" d="M 223.074, 548.39 L 228.618, 540.726 L 258.296, 553.282 L 252.752, 560.946 L 223.074, 548.39 z "/>
<path style="fill:rgb(0, 255, 0);fill-opacity:0;fill-rule:evenodd;stroke:rgb(0, 255, 18);stroke-width:1;" d="M 228.618, 540.726 L 234.325, 533.062 L 264.003, 545.618 L 258.296, 553.282 L 228.618, 540.726 z "/>
<path style="fill:rgb(0, 0, 255);fill-opacity:0;fill-rule:evenodd;stroke:rgb(0, 255, 18);stroke-width:1;" d="M 378.801, 239.87 L 386.629, 229.433 L 407.99, 238.565 L 400.326, 249.164 L 378.801, 239.87 z "/>
<path style="fill:rgb(255, 255, 0);fill-opacity:0;fill-rule:evenodd;stroke:rgb(0, 255, 18);stroke-width:1;" d="M 119.527, 653.73 L 121.321, 651.121 L 135.181, 657.155 L 136.975, 654.709 L 164.044, 666.123 L 178.883, 646.229 L 181.981, 647.371 L 189.808, 637.097 L 193.396, 638.565 L 185.243, 649.49 L 181.655, 648.023 L 165.349, 670.2 L 136.323, 657.807 L 134.692, 660.09 L 119.527, 653.73 z "/>
<path style="fill:rgb(255, 0, 0);fill-opacity:0;fill-rule:evenodd;stroke:rgb(0, 255, 18);stroke-width:1;" d="M 248.675, 711.129 L 263.025, 691.561 L 263.84, 690.583 L 274.603, 694.986 L 259.437, 715.695 L 248.675, 711.129 z "/>
<path style="fill:rgb(0, 255, 0);fill-opacity:0;fill-rule:evenodd;stroke:rgb(0, 255, 18);stroke-width:1;" d="M 428.21, 173.828 L 436.201, 163.066 L 456.584, 171.871 L 448.594, 182.634 L 428.21, 173.828 z "/>
<path style="fill:rgb(0, 0, 255);fill-opacity:0;fill-rule:evenodd;stroke:rgb(0, 255, 18);stroke-width:1;" d="M 320.913, 284.713 L 327.925, 275.255 L 330.86, 271.178 L 369.67, 287.485 L 366.735, 291.561 L 344.558, 282.267 L 334.611, 278.027 L 327.599, 287.648 L 320.913, 284.713 z "/>
<path style="fill:rgb(255, 255, 0);fill-opacity:0;fill-rule:evenodd;stroke:rgb(0, 255, 18);stroke-width:1;" d="M 155.238, 465.063 L 158.989, 460.008 L 171.382, 465.226 L 184.753, 470.934 L 196.983, 475.989 L 193.396, 481.207 L 181.166, 475.989 L 167.631, 470.281 L 155.238, 465.063 z "/>
<path style="fill:rgb(255, 0, 0);fill-opacity:0;fill-rule:evenodd;stroke:rgb(0, 255, 18);stroke-width:1;" d="M 159.804, 458.867 L 163.392, 453.812 L 175.785, 459.03 L 189.319, 464.574 L 201.386, 469.792 L 197.799, 474.847 L 185.569, 469.792 L 172.034, 464.085 L 159.804, 458.867 z "/>
<path style="fill:rgb(0, 255, 0);fill-opacity:0;fill-rule:evenodd;stroke:rgb(0, 255, 18);stroke-width:1;" d="M 150.836, 471.423 L 154.586, 466.205 L 166.816, 471.423 L 180.351, 477.13 L 192.581, 482.348 L 188.83, 487.403 L 176.763, 482.185 L 163.229, 476.478 L 150.836, 471.423 z "/>
<path style="fill:rgb(0, 0, 255);fill-opacity:0;fill-rule:evenodd;stroke:rgb(0, 255, 18);stroke-width:1;" d="M 164.207, 452.67 L 167.795, 447.452 L 180.188, 452.67 L 193.722, 458.377 L 205.952, 463.596 L 202.201, 468.651 L 189.971, 463.596 L 176.6, 457.888 L 164.207, 452.67 z "/>
<path style="fill:rgb(255, 255, 0);fill-opacity:0;fill-rule:evenodd;stroke:rgb(0, 255, 18);stroke-width:1;" d="M 825.601, 596.82 L 827.884, 593.885 L 831.635, 593.07 L 829.515, 596.005 L 832.776, 597.309 L 831.472, 599.103 L 834.407, 600.245 L 833.102, 602.038 L 835.874, 603.18 L 834.57, 604.81 L 837.342, 605.952 L 836.201, 607.583 L 839.462, 608.887 L 838.32, 610.518 L 842.723, 612.475 L 841.745, 613.616 L 845.332, 615.084 L 844.68, 616.062 L 848.267, 617.53 L 846.637, 619.812 L 857.562, 625.683 L 868.161, 630.738 L 878.435, 635.63 L 873.216, 636.282 L 843.539, 622.585 L 825.601, 596.82 z "/>
<path style="fill:rgb(255, 0, 0);fill-opacity:0;fill-rule:evenodd;stroke:rgb(0, 255, 18);stroke-width:1;" d="M 147.901, 648.838 L 160.294, 632.205 L 170.73, 636.608 L 158.337, 653.404 L 147.901, 648.838 z "/>
<path style="fill:rgb(0, 255, 0);fill-opacity:0;fill-rule:evenodd;stroke:rgb(0, 255, 18);stroke-width:1;" d="M 398.369, 493.11 L 404.729, 484.468 L 424.949, 492.947 L 418.753, 501.59 L 398.369, 493.11 z "/>
<path style="fill:rgb(0, 0, 255);fill-opacity:0;fill-rule:evenodd;stroke:rgb(0, 255, 18);stroke-width:1;" d="M 366.898, 498.492 L 394.782, 460.008 L 397.228, 460.987 L 370.322, 497.839 L 419.079, 518.386 L 417.937, 520.016 L 366.898, 498.492 z "/>
<path style="fill:rgb(255, 255, 0);fill-opacity:0;fill-rule:evenodd;stroke:rgb(0, 255, 18);stroke-width:1;" d="M 244.272, 375.866 L 245.251, 374.562 L 252.099, 365.267 L 253.078, 363.962 L 254.872, 364.615 L 265.308, 369.181 L 266.938, 369.833 L 266.123, 371.137 L 259.111, 380.432 L 258.133, 381.737 L 256.502, 381.084 L 245.903, 376.682 L 244.272, 375.866 z "/>
<path style="fill:rgb(255, 0, 0);fill-opacity:0;fill-rule:evenodd;stroke:rgb(0, 255, 18);stroke-width:1;" d="M 370.322, 497.839 L 397.228, 460.987 L 399.674, 461.965 L 373.746, 497.187 L 420.22, 516.755 L 419.079, 518.386 L 370.322, 497.839 z "/>
<path style="fill:rgb(0, 255, 0);fill-opacity:0;fill-rule:evenodd;stroke:rgb(0, 255, 18);stroke-width:1;" d="M 333.632, 267.265 L 336.567, 263.188 L 375.54, 279.658 L 372.605, 283.571 L 333.632, 267.265 z "/>
<path style="fill:rgb(0, 0, 255);fill-opacity:0;fill-rule:evenodd;stroke:rgb(0, 255, 18);stroke-width:1;" d="M 336.567, 263.188 L 339.503, 259.274 L 378.312, 275.581 L 375.54, 279.658 L 336.567, 263.188 z "/>
<path style="fill:rgb(255, 255, 0);fill-opacity:0;fill-rule:evenodd;stroke:rgb(0, 255, 18);stroke-width:1;" d="M 330.86, 271.178 L 333.632, 267.265 L 372.605, 283.571 L 369.67, 287.485 L 330.86, 271.178 z "/>
<path style="fill:rgb(255, 0, 0);fill-opacity:0;fill-rule:evenodd;stroke:rgb(0, 255, 18);stroke-width:1;" d="M 339.503, 259.274 L 342.438, 255.361 L 381.247, 271.667 L 378.312, 275.581 L 339.503, 259.274 z "/>
<path style="fill:rgb(0, 255, 0);fill-opacity:0;fill-rule:evenodd;stroke:rgb(0, 255, 18);stroke-width:1;" d="M 373.746, 497.187 L 399.674, 461.965 L 401.957, 462.943 L 377.334, 496.698 L 421.362, 515.124 L 420.22, 516.755 L 373.746, 497.187 z "/>
<path style="fill:rgb(0, 0, 255);fill-opacity:0;fill-rule:evenodd;stroke:rgb(0, 255, 18);stroke-width:1;" d="M 377.334, 496.698 L 401.957, 462.943 L 404.403, 463.922 L 380.758, 496.046 L 422.503, 513.494 L 421.362, 515.124 L 377.334, 496.698 z "/>
<path style="fill:rgb(255, 255, 0);fill-opacity:0;fill-rule:evenodd;stroke:rgb(0, 255, 18);stroke-width:1;" d="M 411.088, 474.032 L 415.002, 468.488 L 437.505, 477.945 L 431.961, 485.446 L 420.872, 480.717 L 422.34, 478.761 L 411.088, 474.032 z "/>
<path style="fill:rgb(255, 0, 0);fill-opacity:0;fill-rule:evenodd;stroke:rgb(0, 255, 18);stroke-width:1;" d="M 133.551, 662.699 L 135.181, 660.742 L 166.979, 674.276 L 185.079, 650.143 L 188.015, 651.284 L 168.447, 677.538 L 133.551, 662.699 z "/>
<path style="fill:rgb(0, 255, 0);fill-opacity:0;fill-rule:evenodd;stroke:rgb(0, 255, 18);stroke-width:1;" d="M 258.948, 659.764 L 278.516, 633.021 L 290.094, 637.913 L 289.278, 638.891 L 282.43, 636.119 L 264.656, 660.09 L 271.178, 662.862 L 270.037, 664.492 L 258.948, 659.764 z "/>
<path style="fill:rgb(0, 0, 255);fill-opacity:0;fill-rule:evenodd;stroke:rgb(0, 255, 18);stroke-width:1;" d="M 68.9768, 503.057 L 81.6959, 461.313 L 83.9788, 461.802 L 70.7705, 502.405 L 118.549, 522.951 L 124.419, 525.561 L 136.323, 530.616 L 142.03, 533.062 L 146.433, 534.855 L 145.781, 535.671 L 117.896, 523.93 L 68.9768, 503.057 z "/>
<path style="fill:rgb(255, 255, 0);fill-opacity:0;fill-rule:evenodd;stroke:rgb(0, 255, 18);stroke-width:1;" d="M 77.2931, 499.144 L 89.0338, 462.617 L 90.9906, 462.943 L 79.576, 498.329 L 122.788, 517.407 L 128.496, 519.853 L 140.4, 524.908 L 146.27, 527.517 L 150.51, 529.148 L 150.02, 529.963 L 145.618, 528.17 L 139.91, 525.724 L 128.007, 520.669 L 122.136, 518.223 L 77.2931, 499.144 z "/>
<path style="fill:rgb(255, 0, 0);fill-opacity:0;fill-rule:evenodd;stroke:rgb(0, 255, 18);stroke-width:1;" d="M 588.504, 525.724 L 591.439, 521.81 L 596.331, 523.767 L 617.693, 532.735 L 622.422, 534.692 L 619.649, 538.932 L 588.504, 525.724 z "/>
<path style="fill:rgb(0, 255, 0);fill-opacity:0;fill-rule:evenodd;stroke:rgb(0, 255, 18);stroke-width:1;" d="M 585.569, 529.637 L 588.504, 525.724 L 619.649, 538.932 L 616.714, 543.009 L 585.569, 529.637 z "/>
<path style="fill:rgb(0, 0, 255);fill-opacity:0;fill-rule:evenodd;stroke:rgb(0, 255, 18);stroke-width:1;" d="M 160.946, 515.124 L 164.37, 510.395 L 189.808, 521.158 L 186.221, 525.887 L 160.946, 515.124 z "/>
<path style="fill:rgb(255, 255, 0);fill-opacity:0;fill-rule:evenodd;stroke:rgb(0, 255, 18);stroke-width:1;" d="M 156.543, 521.158 L 158.337, 518.549 L 158.989, 517.733 L 159.641, 516.918 L 160.13, 516.266 L 185.406, 527.028 L 181.818, 531.757 L 156.543, 521.158 z "/>
<path style="fill:rgb(255, 0, 0);fill-opacity:0;fill-rule:evenodd;stroke:rgb(0, 255, 18);stroke-width:1;" d="M 152.14, 527.028 L 154.097, 524.419 L 154.749, 523.604 L 155.728, 522.136 L 181.003, 532.898 L 177.415, 537.79 L 152.14, 527.028 z "/>
<path style="fill:rgb(0, 255, 0);fill-opacity:0;fill-rule:evenodd;stroke:rgb(0, 255, 18);stroke-width:1;" d="M 790.868, 108.765 L 796.086, 101.59 L 812.393, 108.602 L 807.338, 115.614 L 790.868, 108.765 z "/>
<path style="fill:rgb(0, 0, 255);fill-opacity:0;fill-rule:evenodd;stroke:rgb(0, 255, 18);stroke-width:1;" d="M 118.549, 522.951 L 122.136, 518.223 L 128.007, 520.669 L 139.91, 525.724 L 145.618, 528.17 L 142.03, 533.062 L 136.323, 530.616 L 124.419, 525.561 L 118.549, 522.951 z "/>
<path style="fill:rgb(255, 255, 0);fill-opacity:0;fill-rule:evenodd;stroke:rgb(0, 255, 18);stroke-width:1;" d="M 122.788, 517.407 L 126.213, 512.515 L 132.083, 514.961 L 143.987, 520.016 L 149.857, 522.462 L 146.27, 527.517 L 140.4, 524.908 L 128.496, 519.853 L 122.788, 517.407 z "/>
<path style="fill:rgb(255, 0, 0);fill-opacity:0;fill-rule:evenodd;stroke:rgb(0, 255, 18);stroke-width:1;" d="M 126.865, 511.7 L 130.453, 506.808 L 136.323, 509.254 L 148.227, 514.309 L 154.097, 516.755 L 150.347, 521.647 L 144.639, 519.201 L 132.735, 514.146 L 126.865, 511.7 z "/>
<path style="fill:rgb(0, 255, 0);fill-opacity:0;fill-rule:evenodd;stroke:rgb(0, 255, 18);stroke-width:1;" d="M 279.331, 428.536 L 290.42, 415.328 L 300.041, 398.859 L 304.444, 400.815 L 304.933, 400.978 L 283.245, 430.33 L 282.593, 429.841 L 279.331, 428.536 z "/>
<path style="fill:rgb(0, 0, 255);fill-opacity:0;fill-rule:evenodd;stroke:rgb(0, 255, 18);stroke-width:1;" d="M 255.035, 658.133 L 274.439, 631.553 L 278.516, 633.021 L 258.948, 659.764 L 255.035, 658.133 z "/>
<path style="fill:rgb(255, 255, 0);fill-opacity:0;fill-rule:evenodd;stroke:rgb(0, 255, 18);stroke-width:1;" d="M 86.7509, 495.393 L 97.1871, 463.922 L 98.9808, 464.248 L 88.7077, 494.904 L 126.865, 511.7 L 132.735, 514.146 L 144.639, 519.201 L 150.347, 521.647 L 154.749, 523.604 L 154.097, 524.419 L 149.857, 522.462 L 143.987, 520.016 L 132.083, 514.961 L 126.213, 512.515 L 86.7509, 495.393 z "/>
<path style="fill:rgb(255, 0, 0);fill-opacity:0;fill-rule:evenodd;stroke:rgb(0, 255, 18);stroke-width:1;" d="M 131.92, 636.934 L 140.073, 626.009 L 140.563, 625.357 L 149.042, 628.944 L 140.4, 640.522 L 131.92, 636.934 z "/>
<path style="fill:rgb(0, 255, 0);fill-opacity:0;fill-rule:evenodd;stroke:rgb(0, 255, 18);stroke-width:1;" d="M 829.515, 596.005 L 831.635, 593.07 L 839.299, 596.331 L 846.637, 599.429 L 839.462, 608.887 L 836.201, 607.583 L 837.342, 605.952 L 834.57, 604.81 L 835.874, 603.18 L 833.102, 602.038 L 834.407, 600.245 L 831.472, 599.103 L 832.776, 597.309 L 829.515, 596.005 z "/>
<path style="fill:rgb(0, 0, 255);fill-opacity:0;fill-rule:evenodd;stroke:rgb(0, 255, 18);stroke-width:1;" d="M 97.8394, 492.132 L 105.993, 465.389 L 107.623, 465.552 L 99.47, 491.48 L 159.641, 516.918 L 158.989, 517.733 L 97.8394, 492.132 z "/>
<path style="fill:rgb(255, 255, 0);fill-opacity:0;fill-rule:evenodd;stroke:rgb(0, 255, 18);stroke-width:1;" d="M 99.47, 491.48 L 107.623, 465.552 L 109.58, 465.879 L 101.59, 491.317 L 160.13, 516.266 L 159.641, 516.918 L 99.47, 491.48 z "/>
<path style="fill:rgb(255, 0, 0);fill-opacity:0;fill-rule:evenodd;stroke:rgb(0, 255, 18);stroke-width:1;" d="M 96.0457, 492.784 L 104.688, 465.063 L 105.993, 465.389 L 97.8394, 492.132 L 158.989, 517.733 L 158.337, 518.549 L 154.097, 516.755 L 148.227, 514.309 L 136.323, 509.254 L 130.453, 506.808 L 96.0457, 492.784 z "/>
<path style="fill:rgb(0, 255, 0);fill-opacity:0;fill-rule:evenodd;stroke:rgb(0, 255, 18);stroke-width:1;" d="M 267.428, 533.225 L 280.962, 514.961 L 285.365, 516.918 L 271.83, 535.181 L 267.428, 533.225 z "/>
<path style="fill:rgb(0, 0, 255);fill-opacity:0;fill-rule:evenodd;stroke:rgb(0, 255, 18);stroke-width:1;" d="M 302.324, 310.151 L 306.89, 304.117 L 320.098, 309.662 L 315.695, 315.695 L 302.324, 310.151 z "/>
<path style="fill:rgb(255, 255, 0);fill-opacity:0;fill-rule:evenodd;stroke:rgb(0, 255, 18);stroke-width:1;" d="M 146.433, 534.855 L 148.553, 531.92 L 173.828, 542.519 L 171.708, 545.455 L 146.433, 534.855 z "/>
<path style="fill:rgb(255, 0, 0);fill-opacity:0;fill-rule:evenodd;stroke:rgb(0, 255, 18);stroke-width:1;" d="M 149.205, 530.942 L 150.02, 529.963 L 150.51, 529.148 L 151.325, 528.17 L 176.6, 538.769 L 174.48, 541.704 L 149.205, 530.942 z "/>
<path style="fill:rgb(0, 255, 0);fill-opacity:0;fill-rule:evenodd;stroke:rgb(0, 255, 18);stroke-width:1;" d="M 866.857, 293.029 L 869.792, 288.952 L 887.077, 296.127 L 883.979, 300.204 L 866.857, 293.029 z "/>
<path style="fill:rgb(0, 0, 255);fill-opacity:0;fill-rule:evenodd;stroke:rgb(0, 255, 18);stroke-width:1;" d="M 172.034, 464.085 L 175.785, 459.03 L 189.319, 464.574 L 185.569, 469.792 L 172.034, 464.085 z "/>
<path style="fill:rgb(255, 255, 0);fill-opacity:0;fill-rule:evenodd;stroke:rgb(0, 255, 18);stroke-width:1;" d="M 176.6, 457.888 L 180.188, 452.67 L 193.722, 458.377 L 189.971, 463.596 L 176.6, 457.888 z "/>
<path style="fill:rgb(255, 0, 0);fill-opacity:0;fill-rule:evenodd;stroke:rgb(0, 255, 18);stroke-width:1;" d="M 163.229, 476.478 L 166.816, 471.423 L 180.351, 477.13 L 176.763, 482.185 L 163.229, 476.478 z "/>
<path style="fill:rgb(0, 255, 0);fill-opacity:0;fill-rule:evenodd;stroke:rgb(0, 255, 18);stroke-width:1;" d="M 167.631, 470.281 L 171.382, 465.226 L 184.753, 470.934 L 181.166, 475.989 L 167.631, 470.281 z "/>
<path style="fill:rgb(0, 0, 255);fill-opacity:0;fill-rule:evenodd;stroke:rgb(0, 255, 18);stroke-width:1;" d="M 55.7684, 148.39 L 58.3775, 144.965 L 77.7823, 152.956 L 75.3363, 156.38 L 55.7684, 148.39 z "/>
<path style="fill:rgb(255, 255, 0);fill-opacity:0;fill-rule:evenodd;stroke:rgb(0, 255, 18);stroke-width:1;" d="M 59.682, 181.655 L 66.6938, 171.708 L 73.2165, 174.48 L 66.2046, 184.264 L 59.682, 181.655 z "/>
<path style="fill:rgb(255, 0, 0);fill-opacity:0;fill-rule:evenodd;stroke:rgb(0, 255, 18);stroke-width:1;" d="M 608.398, 503.547 L 610.192, 501.101 L 635.141, 511.537 L 633.347, 514.146 L 631.553, 513.331 L 610.029, 504.362 L 608.398, 503.547 z "/>
<path style="fill:rgb(0, 255, 0);fill-opacity:0;fill-rule:evenodd;stroke:rgb(0, 255, 18);stroke-width:1;" d="M 124.419, 525.561 L 128.007, 520.669 L 139.91, 525.724 L 136.323, 530.616 L 124.419, 525.561 z "/>
<path style="fill:rgb(0, 0, 255);fill-opacity:0;fill-rule:evenodd;stroke:rgb(0, 255, 18);stroke-width:1;" d="M 128.496, 519.853 L 132.083, 514.961 L 143.987, 520.016 L 140.4, 524.908 L 128.496, 519.853 z "/>
<path style="fill:rgb(255, 255, 0);fill-opacity:0;fill-rule:evenodd;stroke:rgb(0, 255, 18);stroke-width:1;" d="M 132.735, 514.146 L 136.323, 509.254 L 148.227, 514.309 L 144.639, 519.201 L 132.735, 514.146 z "/>
<path style="fill:rgb(255, 0, 0);fill-opacity:0;fill-rule:evenodd;stroke:rgb(0, 255, 18);stroke-width:1;" d="M 466.694, 70.1182 L 467.183, 69.466 L 553.934, 107.46 L 560.783, 110.558 L 559.804, 110.885 L 466.694, 70.1182 z "/>
<path style="fill:rgb(0, 255, 0);fill-opacity:0;fill-rule:evenodd;stroke:rgb(0, 255, 18);stroke-width:1;" d="M 254.056, 394.293 L 255.035, 392.988 L 258.133, 389.075 L 264.003, 381.247 L 269.384, 373.909 L 275.418, 366.082 L 278.19, 362.169 L 279.984, 362.821 L 277.049, 366.735 L 271.178, 374.725 L 265.634, 381.9 L 259.764, 389.89 L 256.828, 393.804 L 255.85, 395.108 L 254.056, 394.293 z "/>
<path style="fill:rgb(0, 0, 255);fill-opacity:0;fill-rule:evenodd;stroke:rgb(0, 255, 18);stroke-width:1;" d="M 492.947, 99.7962 L 497.35, 93.9258 L 506.482, 97.8394 L 502.242, 103.71 L 492.947, 99.7962 z "/>
<path style="fill:rgb(255, 255, 0);fill-opacity:0;fill-rule:evenodd;stroke:rgb(0, 255, 18);stroke-width:1;" d="M 232.205, 383.53 L 234.978, 379.78 L 241.011, 371.79 L 246.392, 364.615 L 252.263, 356.625 L 255.524, 352.385 L 257.155, 353.037 L 254.056, 357.44 L 248.023, 365.267 L 242.642, 372.605 L 236.771, 380.432 L 233.999, 384.346 L 232.205, 383.53 z "/>
<path style="fill:rgb(255, 0, 0);fill-opacity:0;fill-rule:evenodd;stroke:rgb(0, 255, 18);stroke-width:1;" d="M 51.2026, 155.728 L 55.4423, 153.445 L 69.629, 159.315 L 69.466, 163.392 L 51.2026, 155.728 z "/>
<path style="fill:rgb(0, 255, 0);fill-opacity:0;fill-rule:evenodd;stroke:rgb(0, 255, 18);stroke-width:1;" d="M 105.503, 490.991 L 108.276, 480.881 L 117.733, 473.869 L 127.028, 477.619 L 126.213, 478.598 L 118.386, 475.499 L 109.906, 481.696 L 107.297, 490.012 L 115.287, 493.6 L 114.472, 494.578 L 105.503, 490.991 z "/>
<path style="fill:rgb(0, 0, 255);fill-opacity:0;fill-rule:evenodd;stroke:rgb(0, 255, 18);stroke-width:1;" d="M 253.241, 360.375 L 257.318, 354.994 L 265.308, 358.581 L 261.394, 363.799 L 253.241, 360.375 z "/>
<path style="fill:rgb(255, 255, 0);fill-opacity:0;fill-rule:evenodd;stroke:rgb(0, 255, 18);stroke-width:1;" d="M 236.608, 383.204 L 240.522, 377.823 L 248.675, 381.247 L 244.598, 386.629 L 236.608, 383.204 z "/>
<path style="fill:rgb(255, 0, 0);fill-opacity:0;fill-rule:evenodd;stroke:rgb(0, 255, 18);stroke-width:1;" d="M 263.677, 364.615 L 267.591, 359.234 L 275.744, 362.821 L 271.667, 368.202 L 263.677, 364.615 z "/>
<path style="fill:rgb(0, 255, 0);fill-opacity:0;fill-rule:evenodd;stroke:rgb(0, 255, 18);stroke-width:1;" d="M 246.881, 387.444 L 250.958, 382.063 L 258.948, 385.487 L 255.035, 390.868 L 246.881, 387.444 z "/>
<path style="fill:rgb(0, 0, 255);fill-opacity:0;fill-rule:evenodd;stroke:rgb(0, 255, 18);stroke-width:1;" d="M 148.39, 474.684 L 149.205, 473.543 L 187.362, 489.686 L 186.547, 490.828 L 148.39, 474.684 z "/>
<path style="fill:rgb(255, 255, 0);fill-opacity:0;fill-rule:evenodd;stroke:rgb(0, 255, 18);stroke-width:1;" d="M 150.02, 472.401 L 150.836, 471.423 L 163.229, 476.478 L 176.763, 482.185 L 188.83, 487.403 L 188.015, 488.545 L 150.02, 472.401 z "/>
<path style="fill:rgb(255, 0, 0);fill-opacity:0;fill-rule:evenodd;stroke:rgb(0, 255, 18);stroke-width:1;" d="M 154.586, 466.205 L 155.238, 465.063 L 167.631, 470.281 L 181.166, 475.989 L 193.396, 481.207 L 192.581, 482.348 L 180.351, 477.13 L 166.816, 471.423 L 154.586, 466.205 z "/>
<path style="fill:rgb(0, 255, 0);fill-opacity:0;fill-rule:evenodd;stroke:rgb(0, 255, 18);stroke-width:1;" d="M 163.392, 453.812 L 164.207, 452.67 L 176.6, 457.888 L 189.971, 463.596 L 202.201, 468.651 L 201.386, 469.792 L 189.319, 464.574 L 175.785, 459.03 L 163.392, 453.812 z "/>
<path style="fill:rgb(0, 0, 255);fill-opacity:0;fill-rule:evenodd;stroke:rgb(0, 255, 18);stroke-width:1;" d="M 158.989, 460.008 L 159.804, 458.867 L 172.034, 464.085 L 185.569, 469.792 L 197.799, 474.847 L 196.983, 475.989 L 184.753, 470.934 L 171.382, 465.226 L 158.989, 460.008 z "/>
<path style="fill:rgb(255, 255, 0);fill-opacity:0;fill-rule:evenodd;stroke:rgb(0, 255, 18);stroke-width:1;" d="M 87.4032, 196.494 L 92.7843, 179.209 L 95.7195, 179.698 L 90.5014, 197.146 L 87.4032, 196.494 z "/>
<path style="fill:rgb(255, 0, 0);fill-opacity:0;fill-rule:evenodd;stroke:rgb(0, 255, 18);stroke-width:1;" d="M 149.205, 473.543 L 150.02, 472.401 L 188.015, 488.545 L 187.362, 489.686 L 149.205, 473.543 z "/>
<path style="fill:rgb(0, 255, 0);fill-opacity:0;fill-rule:evenodd;stroke:rgb(0, 255, 18);stroke-width:1;" d="M 167.795, 447.452 L 168.61, 446.311 L 206.604, 462.454 L 205.952, 463.596 L 193.722, 458.377 L 180.188, 452.67 L 167.795, 447.452 z "/>
<path style="fill:rgb(0, 0, 255);fill-opacity:0;fill-rule:evenodd;stroke:rgb(0, 255, 18);stroke-width:1;" d="M 27.232, 168.121 L 34.5699, 158.011 L 39.1358, 158.011 L 29.3518, 171.545 L 27.232, 168.121 z "/>
<path style="fill:rgb(255, 255, 0);fill-opacity:0;fill-rule:evenodd;stroke:rgb(0, 255, 18);stroke-width:1;" d="M 565.185, 481.37 L 565.512, 480.881 L 608.072, 498.818 L 639.054, 511.863 L 638.728, 512.515 L 565.185, 481.37 z "/>
<path style="fill:rgb(255, 0, 0);fill-opacity:0;fill-rule:evenodd;stroke:rgb(0, 255, 18);stroke-width:1;" d="M 263.677, 455.116 L 282.593, 429.841 L 304.444, 400.815 L 304.933, 400.978 L 283.245, 430.33 L 271.993, 445.332 L 264.492, 455.442 L 263.677, 455.116 z "/>
<path style="fill:rgb(0, 255, 0);fill-opacity:0;fill-rule:evenodd;stroke:rgb(0, 255, 18);stroke-width:1;" d="M 564.859, 482.022 L 565.185, 481.37 L 638.728, 512.515 L 638.402, 513.004 L 635.141, 511.537 L 610.192, 501.101 L 564.859, 482.022 z "/>
<path style="fill:rgb(0, 0, 255);fill-opacity:0;fill-rule:evenodd;stroke:rgb(0, 255, 18);stroke-width:1;" d="M 141.052, 505.83 L 142.03, 504.525 L 150.02, 507.949 L 157.848, 497.187 L 159.967, 498.002 L 150.999, 510.069 L 141.052, 505.83 z "/>
<path style="fill:rgb(255, 255, 0);fill-opacity:0;fill-rule:evenodd;stroke:rgb(0, 255, 18);stroke-width:1;" d="M 15.4912, 739.829 L 21.5247, 705.259 L 33.1023, 707.868 L 36.3636, 703.465 L 70.6074, 717.652 L 70.1182, 718.467 L 78.2715, 721.892 L 119.527, 738.85 L 116.918, 742.275 L 120.016, 743.579 L 97.8394, 774.562 L 94.7411, 773.257 L 92.2951, 776.682 L 18.2634, 746.025 L 18.7525, 740.481 L 15.4912, 739.829 z "/>
<path style="fill:rgb(255, 0, 0);fill-opacity:0;fill-rule:evenodd;stroke:rgb(0, 255, 18);stroke-width:1;" d="M 8.31635, 214.757 L 24.6229, 191.928 L 30.4933, 183.938 L 40.4403, 188.178 L 38.3204, 191.113 L 18.2634, 218.997 L 8.31635, 214.757 z "/>
<path style="fill:rgb(0, 255, 0);fill-opacity:0;fill-rule:evenodd;stroke:rgb(0, 255, 18);stroke-width:1;" d="M 191.602, 110.232 L 204.484, 65.7155 L 299.878, 105.993 L 270.852, 145.944 L 244.272, 182.47 L 234.978, 178.557 L 252.752, 154.423 L 236.119, 147.411 L 246.392, 133.388 L 191.602, 110.232 z "/>
<path style="fill:rgb(0, 0, 255);fill-opacity:0;fill-rule:evenodd;stroke:rgb(0, 255, 18);stroke-width:1;" d="M 823.318, 141.215 L 837.016, 122.462 L 866.042, 82.3481 L 880.228, 62.9433 L 923.767, 81.2067 L 890.012, 127.68 L 872.401, 120.342 L 849.246, 152.14 L 823.318, 141.215 z "/>
<path style="fill:rgb(255, 255, 0);fill-opacity:0;fill-rule:evenodd;stroke:rgb(0, 255, 18);stroke-width:1;" d="M 796.739, 130.126 L 807.338, 115.614 L 812.393, 108.602 L 837.668, 73.7057 L 844.028, 64.9001 L 853.649, 51.6918 L 880.228, 62.9433 L 866.042, 82.3481 L 857.236, 78.5976 L 853.975, 79.576 L 827.395, 116.103 L 828.047, 118.712 L 837.016, 122.462 L 823.318, 141.215 L 796.739, 130.126 z "/>
<path style="fill:rgb(255, 0, 0);fill-opacity:0;fill-rule:evenodd;stroke:rgb(0, 255, 18);stroke-width:1;" d="M 52.3441, 101.916 L 106.319, 27.0689 L 130.779, 37.179 L 150.183, 45.3322 L 122.462, 131.431 L 52.3441, 101.916 z "/>
<path style="fill:rgb(0, 255, 0);fill-opacity:0;fill-rule:evenodd;stroke:rgb(0, 255, 18);stroke-width:1;" d="M 52.3441, 101.916 L 57.5622, 98.3286 L 147.574, 47.126 L 150.183, 45.3322 L 122.462, 131.431 L 52.3441, 101.916 z "/>
<path style="fill:rgb(0, 0, 255);fill-opacity:0;fill-rule:evenodd;stroke:rgb(0, 255, 18);stroke-width:1;" d="M 55.4423, 101.59 L 147.085, 49.0828 L 121.321, 129.474 L 55.4423, 101.59 z "/>
<path style="fill:rgb(255, 255, 0);fill-opacity:0;fill-rule:evenodd;stroke:rgb(0, 255, 18);stroke-width:1;" d="M 57.5622, 98.3286 L 107.786, 30.4933 L 129.148, 39.2988 L 147.574, 47.126 L 57.5622, 98.3286 z "/>
<path style="fill:rgb(255, 0, 0);fill-opacity:0;fill-rule:evenodd;stroke:rgb(0, 255, 18);stroke-width:1;" d="M 52.3441, 101.916 L 106.319, 27.0689 L 130.779, 37.179 L 129.148, 39.2988 L 107.786, 30.4933 L 57.5622, 98.3286 L 52.3441, 101.916 z "/>
<path style="fill:rgb(0, 255, 0);fill-opacity:0;fill-rule:evenodd;stroke:rgb(0, 255, 18);stroke-width:1;" d="M 450.224, 61.9649 L 451.04, 61.6388 L 554.26, 106.808 L 553.934, 107.46 L 467.183, 69.466 L 450.224, 61.9649 z "/>
<path style="fill:rgb(0, 0, 255);fill-opacity:0;fill-rule:evenodd;stroke:rgb(0, 255, 18);stroke-width:1;" d="M 738.035, 503.873 L 748.145, 490.338 L 748.308, 490.012 L 758.092, 476.641 L 809.132, 498.818 L 850.061, 516.103 L 866.042, 494.252 L 871.912, 486.262 L 899.959, 446.963 L 905.993, 438.483 L 923.767, 413.534 L 883.163, 396.902 L 831.635, 375.051 L 838.157, 366.245 L 838.647, 365.593 L 848.594, 352.222 L 907.623, 377.171 L 927.354, 385.324 L 986.058, 410.11 L 951.488, 457.562 L 944.802, 466.694 L 916.592, 504.199 L 910.232, 512.841 L 874.847, 561.598 L 738.035, 503.873 z "/>
<path style="fill:rgb(255, 255, 0);fill-opacity:0;fill-rule:evenodd;stroke:rgb(0, 255, 18);stroke-width:1;" d="M 805.218, 458.377 L 834.081, 419.242 L 859.193, 429.841 L 899.959, 446.963 L 924.419, 457.073 L 896.046, 496.209 L 871.912, 486.262 L 830.819, 468.977 L 805.218, 458.377 z "/>
<path style="fill:rgb(255, 0, 0);fill-opacity:0;fill-rule:evenodd;stroke:rgb(0, 255, 18);stroke-width:1;" d="M 866.042, 494.252 L 871.912, 486.262 L 896.046, 496.209 L 924.419, 457.073 L 899.959, 446.963 L 905.993, 438.483 L 951.488, 457.562 L 944.802, 466.694 L 955.238, 471.097 L 940.889, 490.991 L 927.68, 508.765 L 916.592, 504.199 L 910.232, 512.841 L 894.089, 505.993 L 870.118, 496.046 L 866.042, 494.252 z "/>
<path style="fill:rgb(0, 255, 0);fill-opacity:0;fill-rule:evenodd;stroke:rgb(0, 255, 18);stroke-width:1;" d="M 859.193, 429.841 L 883.163, 396.902 L 923.767, 413.534 L 905.993, 438.483 L 899.959, 446.963 L 859.193, 429.841 z "/>
<path style="fill:rgb(0, 0, 255);fill-opacity:0;fill-rule:evenodd;stroke:rgb(0, 255, 18);stroke-width:1;" d="M 892.295, 502.894 L 929.8, 451.04 L 948.716, 458.867 L 911.211, 510.558 L 892.295, 502.894 z "/>
<path style="fill:rgb(255, 255, 0);fill-opacity:0;fill-rule:evenodd;stroke:rgb(0, 255, 18);stroke-width:1;" d="M 0, 171.382 L 32.6131, 125.887 L 114.146, 159.804 L 101.916, 199.103 L 98.1655, 198.451 L 92.6213, 197.472 L 90.5014, 197.146 L 87.4032, 196.494 L 81.5328, 195.516 L 79.2499, 195.026 L 76.1517, 194.374 L 71.7489, 193.722 L 56.2576, 190.787 L 55.9315, 184.753 L 41.7448, 178.394 L 44.1908, 175.296 L 38.3204, 172.85 L 32.6131, 180.84 L 30.4933, 183.938 L 22.8292, 180.84 L 16.1435, 178.068 L 13.0453, 176.763 L 10.4362, 175.622 L 8.47941, 174.806 L 3.42438, 172.687 L 0, 171.382 z "/>
<path style="fill:rgb(255, 0, 0);fill-opacity:0;fill-rule:evenodd;stroke:rgb(0, 255, 18);stroke-width:1;" d="M 3.42438, 172.687 L 34.2438, 129.8 L 109.58, 161.272 L 98.1655, 198.451 L 92.6213, 197.472 L 103.057, 163.555 L 88.8708, 157.684 L 77.7823, 152.956 L 58.3775, 144.965 L 46.9629, 140.236 L 36.5267, 135.834 L 8.47941, 174.806 L 3.42438, 172.687 z "/>
<path style="fill:rgb(0, 255, 0);fill-opacity:0;fill-rule:evenodd;stroke:rgb(0, 255, 18);stroke-width:1;" d="M 8.47941, 174.806 L 36.5267, 135.834 L 46.9629, 140.236 L 58.3775, 144.965 L 77.7823, 152.956 L 88.8708, 157.684 L 103.057, 163.555 L 92.6213, 197.472 L 90.5014, 197.146 L 87.4032, 196.494 L 92.7843, 179.209 L 97.0241, 165.512 L 86.4248, 161.109 L 75.3363, 156.38 L 55.7684, 148.39 L 44.3539, 143.661 L 38.6466, 141.215 L 24.6229, 160.62 L 13.0453, 176.763 L 10.4362, 175.622 L 8.47941, 174.806 z "/>
<path style="fill:rgb(0, 0, 255);fill-opacity:0;fill-rule:evenodd;stroke:rgb(0, 255, 18);stroke-width:1;" d="M 13.0453, 176.763 L 24.6229, 160.62 L 38.6466, 141.215 L 44.3539, 143.661 L 55.7684, 148.39 L 75.3363, 156.38 L 86.4248, 161.109 L 97.0241, 165.512 L 92.7843, 179.209 L 87.4032, 196.494 L 81.5328, 195.516 L 90.1753, 167.795 L 69.629, 159.315 L 55.4423, 153.445 L 40.9295, 147.411 L 27.232, 166.327 L 24.2968, 166.816 L 16.1435, 178.068 L 13.0453, 176.763 z "/>
<path style="fill:rgb(255, 255, 0);fill-opacity:0;fill-rule:evenodd;stroke:rgb(0, 255, 18);stroke-width:1;" d="M 0, 171.382 L 32.6131, 125.887 L 114.146, 159.804 L 101.916, 199.103 L 98.1655, 198.451 L 109.58, 161.272 L 34.2438, 129.8 L 3.42438, 172.687 L 0, 171.382 z "/>
<path style="fill:rgb(255, 0, 0);fill-opacity:0;fill-rule:evenodd;stroke:rgb(0, 255, 18);stroke-width:1;" d="M 16.1435, 178.068 L 24.2968, 166.816 L 27.232, 166.327 L 40.9295, 147.411 L 55.4423, 153.445 L 69.629, 159.315 L 90.1753, 167.795 L 81.5328, 195.516 L 79.2499, 195.026 L 76.1517, 194.374 L 79.9022, 182.47 L 83.8157, 169.425 L 69.466, 163.392 L 51.2026, 155.728 L 43.2124, 152.303 L 39.1358, 158.011 L 29.3518, 171.545 L 25.1121, 177.578 L 32.6131, 180.84 L 30.4933, 183.938 L 22.8292, 180.84 L 16.1435, 178.068 z "/>
<path style="fill:rgb(0, 255, 0);fill-opacity:0;fill-rule:evenodd;stroke:rgb(0, 255, 18);stroke-width:1;" d="M 673.624, 78.4346 L 730.534, 0 L 853.649, 51.6918 L 844.028, 64.9001 L 837.668, 73.7057 L 812.393, 108.602 L 807.338, 115.614 L 796.739, 130.126 L 673.624, 78.4346 z "/>
<path style="fill:rgb(0, 0, 255);fill-opacity:0;fill-rule:evenodd;stroke:rgb(0, 255, 18);stroke-width:1;" d="M 698.573, 61.1496 L 723.848, 26.2536 L 837.668, 73.7057 L 812.393, 108.602 L 796.086, 101.59 L 715.043, 67.9984 L 698.573, 61.1496 z "/>
<path style="fill:rgb(255, 255, 0);fill-opacity:0;fill-rule:evenodd;stroke:rgb(0, 255, 18);stroke-width:1;" d="M 702.487, 60.3343 L 724.99, 29.1887 L 833.755, 74.521 L 811.252, 105.503 L 797.554, 99.7962 L 716.673, 66.2046 L 702.487, 60.3343 z "/>
<path style="fill:rgb(255, 0, 0);fill-opacity:0;fill-rule:evenodd;stroke:rgb(0, 255, 18);stroke-width:1;" d="M 723.848, 26.2536 L 730.208, 17.448 L 844.028, 64.9001 L 837.668, 73.7057 L 723.848, 26.2536 z "/>
<path style="fill:rgb(0, 255, 0);fill-opacity:0;fill-rule:evenodd;stroke:rgb(0, 255, 18);stroke-width:1;" d="M 693.355, 68.3245 L 698.573, 61.1496 L 715.043, 67.9984 L 709.825, 75.1733 L 693.355, 68.3245 z "/>
</svg>