<?xml version="1.0" encoding="iso-8859-1" standalone="no"?>
<!DOCTYPE svg PUBLIC "-//W3C//DTD SVG 1.0//EN" "http://www.w3.org/TR/2001/REC-SVG-20010904/DTD/svg10.dtd">
<svg xmlns="http://www.w3.org/2000/svg" width="1103" height="800">
<path style="fill:rgb(255, 0, 0);fill-opacity:0;fill-rule:evenodd;stroke:rgb(47, 0, 255);stroke-width:1;" d="M 489.036, 601.103 L 575.866, 480.565 L 673.814, 458.857 L 645.93, 385.97 L 674.344, 379.793 L 666.402, 359.144 L 704.169, 307.434 L 706.287, 306.905 L 718.641, 339.201 L 721.641, 347.143 L 776.528, 334.966 L 862.652, 371.851 L 867.24, 383.675 L 757.82, 408.03 L 769.468, 438.209 L 772.116, 437.679 L 776.528, 437.15 L 780.94, 436.973 L 785.352, 437.15 L 789.587, 437.856 L 793.823, 438.915 L 795.941, 439.444 L 799.824, 441.032 L 803.353, 442.974 L 806.706, 445.268 L 808.648, 446.856 L 810.942, 449.151 L 813.236, 451.974 L 815.001, 454.975 L 815.707, 456.563 L 816.766, 459.916 L 817.295, 463.269 L 817.295, 466.623 L 817.119, 468.211 L 816.413, 471.564 L 815.884, 473.152 L 814.295, 476.329 L 812.177, 479.329 L 811.118, 480.741 L 809.707, 482.153 L 806.883, 484.624 L 803.53, 486.918 L 801.765, 487.801 L 800, 488.859 L 796.117, 490.448 L 794.176, 490.977 L 789.94, 492.036 L 804.059, 531.921 L 804.236, 534.745 L 793.117, 549.57 L 779.704, 549.923 L 616.457, 586.102 L 619.104, 593.161 L 617.34, 595.632 L 603.044, 598.809 L 594.926, 577.631 L 489.036, 601.103 z "/>
<path style="fill:rgb(0, 255, 0);fill-opacity:0;fill-rule:evenodd;stroke:rgb(47, 0, 255);stroke-width:1;" d="M 806.883, 589.808 L 920.891, 435.032 L 1103.2, 510.39 L 988.837, 667.284 L 806.883, 589.808 z "/>
<path style="fill:rgb(0, 0, 255);fill-opacity:0;fill-rule:evenodd;stroke:rgb(47, 0, 255);stroke-width:1;" d="M 179.131, 335.672 L 198.015, 309.905 L 231.899, 324.024 L 254.666, 292.786 L 195.014, 267.726 L 222.546, 229.958 L 269.49, 249.724 L 336.025, 158.482 L 341.849, 160.953 L 355.085, 166.6 L 357.732, 163.071 L 427.443, 192.367 L 406.442, 221.134 L 355.085, 199.426 L 351.555, 204.015 L 346.437, 201.897 L 298.257, 268.079 L 302.846, 269.843 L 292.433, 284.139 L 288.021, 282.197 L 272.667, 303.022 L 289.962, 310.435 L 271.608, 335.672 L 255.548, 328.789 L 233.841, 358.791 L 179.131, 335.672 z "/>
<path style="fill:rgb(255, 255, 0);fill-opacity:0;fill-rule:evenodd;stroke:rgb(47, 0, 255);stroke-width:1;" d="M 919.479, 595.103 L 988.661, 500.331 L 1074.78, 536.334 L 1005.6, 631.105 L 919.479, 595.103 z "/>
<path style="fill:rgb(255, 0, 0);fill-opacity:0;fill-rule:evenodd;stroke:rgb(47, 0, 255);stroke-width:1;" d="M 722.171, 710.17 L 747.055, 676.285 L 779.175, 689.874 L 774.233, 696.757 L 853.651, 730.465 L 860.887, 720.582 L 854.886, 718.112 L 887.712, 673.285 L 880.3, 670.108 L 887.712, 659.872 L 901.302, 665.696 L 909.596, 654.225 L 944.364, 668.873 L 935.892, 680.344 L 949.835, 686.168 L 942.246, 696.404 L 934.657, 693.051 L 901.655, 737.878 L 897.772, 736.289 L 889.477, 747.584 L 892.124, 748.82 L 890.007, 751.82 L 887.536, 750.761 L 887.889, 750.055 L 885.771, 749.173 L 868.652, 772.469 L 833.532, 757.644 L 831.944, 759.762 L 822.943, 756.056 L 826.296, 751.644 L 765.586, 725.877 L 762.409, 730.113 L 751.996, 725.877 L 753.761, 723.406 L 722.171, 710.17 z "/>
<path style="fill:rgb(0, 255, 0);fill-opacity:0;fill-rule:evenodd;stroke:rgb(47, 0, 255);stroke-width:1;" d="M 755.879, 257.666 L 774.41, 232.076 L 802.294, 243.724 L 822.59, 215.663 L 864.769, 233.488 L 861.769, 237.547 L 844.474, 261.549 L 847.651, 262.784 L 828.414, 289.257 L 825.237, 287.845 L 804.942, 315.553 L 762.409, 297.728 L 783.234, 269.137 L 755.879, 257.666 z "/>
<path style="fill:rgb(0, 0, 255);fill-opacity:0;fill-rule:evenodd;stroke:rgb(47, 0, 255);stroke-width:1;" d="M 359.144, 127.774 L 360.026, 125.303 L 465.74, 63.7106 L 498.919, 77.8293 L 498.919, 78.0057 L 483.918, 98.4778 L 481.624, 97.5954 L 466.446, 118.597 L 452.151, 112.597 L 435.914, 134.833 L 437.679, 135.539 L 422.855, 155.835 L 401.5, 146.834 L 417.384, 124.95 L 409.442, 121.597 L 394.088, 142.599 L 390.029, 141.01 L 389.323, 141.716 L 361.085, 129.892 L 359.144, 127.774 z M 414.913, 108.184 L 419.678, 112.949 L 425.325, 118.42 L 438.385, 110.832 L 430.09, 102.537 L 425.678, 101.831 L 414.913, 108.184 z M 448.798, 88.2418 L 448.974, 91.7715 L 456.916, 99.3602 L 469.976, 91.7715 L 460.093, 81.8884 L 448.798, 88.2418 z "/>
<path style="fill:rgb(255, 255, 0);fill-opacity:0;fill-rule:evenodd;stroke:rgb(47, 0, 255);stroke-width:1;" d="M 314.67, 297.728 L 370.086, 221.663 L 405.383, 236.311 L 406.089, 236.664 L 350.673, 312.729 L 314.67, 297.728 z "/>
<path style="fill:rgb(255, 0, 0);fill-opacity:0;fill-rule:evenodd;stroke:rgb(47, 0, 255);stroke-width:1;" d="M 818.884, 177.013 L 842.533, 144.011 L 831.061, 139.422 L 842.533, 123.538 L 854.004, 128.304 L 877.476, 95.6541 L 905.361, 107.126 L 890.007, 128.304 L 882.241, 139.069 L 889.301, 142.069 L 876.594, 159.718 L 869.358, 156.717 L 846.592, 188.484 L 818.884, 177.013 z "/>
<path style="fill:rgb(0, 255, 0);fill-opacity:0;fill-rule:evenodd;stroke:rgb(47, 0, 255);stroke-width:1;" d="M 862.122, 195.014 L 885.065, 163.247 L 876.594, 159.718 L 889.301, 142.069 L 897.948, 145.599 L 921.244, 113.302 L 948.952, 124.95 L 921.244, 163.247 L 923.362, 164.13 L 924.244, 166.777 L 922.656, 169.071 L 919.126, 169.601 L 891.771, 207.368 L 862.122, 195.014 z "/>
<path style="fill:rgb(0, 0, 255);fill-opacity:0;fill-rule:evenodd;stroke:rgb(47, 0, 255);stroke-width:1;" d="M 944.187, 160.424 L 962.012, 136.069 L 985.837, 146.305 L 992.367, 148.952 L 996.426, 143.481 L 1027.49, 156.717 L 1023.6, 162.012 L 1054.14, 174.895 L 1035.96, 199.603 L 1005.43, 186.543 L 1004.02, 188.308 L 1003.84, 188.308 L 973.13, 175.248 L 974.366, 173.483 L 944.187, 160.424 z "/>
<path style="fill:rgb(255, 255, 0);fill-opacity:0;fill-rule:evenodd;stroke:rgb(47, 0, 255);stroke-width:1;" d="M 830.002, 327.377 L 834.238, 321.553 L 833.179, 321.024 L 848.004, 300.904 L 849.062, 301.434 L 853.475, 295.433 L 861.416, 298.963 L 860.71, 299.846 L 925.48, 327.201 L 926.362, 326.142 L 933.951, 329.318 L 929.009, 335.848 L 930.068, 336.201 L 915.95, 355.614 L 914.891, 355.085 L 910.302, 361.438 L 903.066, 358.438 L 903.772, 357.379 L 838.12, 329.495 L 837.415, 330.554 L 830.002, 327.377 z "/>
<path style="fill:rgb(255, 0, 0);fill-opacity:0;fill-rule:evenodd;stroke:rgb(47, 0, 255);stroke-width:1;" d="M 114.185, 272.491 L 182.131, 232.076 L 203.133, 240.9 L 157.423, 290.845 L 114.185, 272.491 z "/>
<path style="fill:rgb(0, 255, 0);fill-opacity:0;fill-rule:evenodd;stroke:rgb(47, 0, 255);stroke-width:1;" d="M 128.127, 770.88 L 145.069, 747.584 L 161.659, 754.644 L 163.247, 752.349 L 169.777, 754.997 L 199.25, 767.527 L 197.662, 769.821 L 214.428, 776.881 L 205.956, 788.352 L 197.485, 800 L 128.127, 770.88 z "/>
<path style="fill:rgb(0, 0, 255);fill-opacity:0;fill-rule:evenodd;stroke:rgb(47, 0, 255);stroke-width:1;" d="M 526.098, 698.698 L 531.039, 692.169 L 541.628, 689.521 L 552.57, 694.11 L 553.629, 692.698 L 560.688, 695.698 L 561.394, 694.639 L 564.218, 695.875 L 565.1, 694.639 L 575.16, 699.051 L 574.454, 700.11 L 577.807, 701.522 L 576.925, 702.581 L 589.279, 707.876 L 592.985, 702.758 L 594.926, 703.64 L 599.691, 702.934 L 607.28, 705.052 L 611.339, 711.758 L 607.809, 718.641 L 604.456, 720.229 L 600.044, 720.759 L 594.044, 719.347 L 589.455, 725.7 L 590.514, 726.053 L 585.572, 732.76 L 575.866, 728.701 L 570.395, 735.936 L 558.394, 730.818 L 559.629, 729.407 L 542.334, 722.171 L 542.863, 721.288 L 535.804, 718.288 L 540.922, 711.405 L 529.274, 706.464 L 526.098, 698.698 z "/>
<path style="fill:rgb(255, 255, 0);fill-opacity:0;fill-rule:evenodd;stroke:rgb(47, 0, 255);stroke-width:1;" d="M 509.861, 130.245 L 528.039, 105.184 L 523.627, 103.419 L 524.509, 102.36 L 532.274, 91.7715 L 556.1, 101.831 L 543.569, 118.95 L 540.393, 119.832 L 538.098, 123.186 L 549.393, 127.951 L 554.335, 121.244 L 552.57, 120.538 L 563.865, 105.184 L 588.22, 115.42 L 579.749, 127.068 L 574.983, 124.95 L 556.806, 149.835 L 535.451, 141.01 L 538.451, 136.951 L 532.274, 134.304 L 529.451, 138.363 L 509.861, 130.245 z "/>
<path style="fill:rgb(255, 0, 0);fill-opacity:0;fill-rule:evenodd;stroke:rgb(47, 0, 255);stroke-width:1;" d="M 565.63, 153.717 L 583.808, 128.833 L 579.749, 127.068 L 588.22, 115.42 L 611.869, 125.303 L 598.456, 143.658 L 596.691, 144.187 L 594.573, 143.128 L 592.632, 145.952 L 606.927, 151.952 L 608.868, 149.305 L 606.75, 148.423 L 606.045, 146.834 L 619.457, 128.48 L 643.459, 138.716 L 636.753, 147.717 L 634.988, 150.364 L 630.576, 148.423 L 612.398, 173.307 L 591.573, 164.483 L 594.573, 160.247 L 588.043, 157.6 L 585.043, 161.835 L 565.63, 153.717 z "/>
<path style="fill:rgb(0, 255, 0);fill-opacity:0;fill-rule:evenodd;stroke:rgb(47, 0, 255);stroke-width:1;" d="M 129.186, 401.324 L 146.834, 377.322 L 142.599, 375.381 L 143.128, 374.675 L 151.423, 363.203 L 175.601, 373.263 L 166.424, 385.617 L 164.836, 384.911 L 155.129, 398.323 L 165.895, 402.912 L 175.778, 389.499 L 174.366, 388.97 L 183.366, 376.616 L 207.721, 386.852 L 198.72, 399.206 L 194.308, 397.265 L 176.66, 421.443 L 129.186, 401.324 z "/>
<path style="fill:rgb(0, 0, 255);fill-opacity:0;fill-rule:evenodd;stroke:rgb(47, 0, 255);stroke-width:1;" d="M 184.778, 424.796 L 202.427, 400.794 L 198.72, 399.206 L 207.721, 386.852 L 231.017, 396.735 L 222.369, 408.736 L 221.134, 408.206 L 211.251, 421.796 L 222.193, 426.384 L 232.076, 412.972 L 230.311, 412.266 L 239.135, 400.265 L 263.137, 410.324 L 256.431, 419.678 L 254.136, 422.678 L 250.077, 421.09 L 232.605, 444.915 L 184.778, 424.796 z "/>
<path style="fill:rgb(255, 255, 0);fill-opacity:0;fill-rule:evenodd;stroke:rgb(47, 0, 255);stroke-width:1;" d="M 85.9475, 753.232 L 90.889, 746.349 L 103.596, 729.054 L 106.596, 724.994 L 148.423, 742.819 L 145.069, 747.584 L 128.127, 770.88 L 85.9475, 753.232 z "/>
<path style="fill:rgb(255, 0, 0);fill-opacity:0;fill-rule:evenodd;stroke:rgb(47, 0, 255);stroke-width:1;" d="M 662.519, 113.302 L 670.108, 103.243 L 682.815, 85.771 L 689.874, 76.4174 L 693.58, 71.2994 L 721.288, 83.1238 L 713.876, 93.0068 L 695.698, 117.538 L 690.227, 124.95 L 662.519, 113.302 z "/>
<path style="fill:rgb(0, 255, 0);fill-opacity:0;fill-rule:evenodd;stroke:rgb(47, 0, 255);stroke-width:1;" d="M 85.771, 383.322 L 93.8893, 372.027 L 104.831, 376.616 L 114.891, 363.027 L 104.302, 358.615 L 112.949, 346.79 L 151.423, 363.203 L 143.128, 374.675 L 132.186, 370.086 L 121.95, 384.028 L 132.539, 388.617 L 124.421, 399.735 L 85.771, 383.322 z "/>
<path style="fill:rgb(0, 0, 255);fill-opacity:0;fill-rule:evenodd;stroke:rgb(47, 0, 255);stroke-width:1;" d="M 85.0651, 288.021 L 112.42, 271.785 L 114.185, 272.491 L 157.423, 290.845 L 139.069, 310.788 L 85.9475, 288.551 L 85.0651, 288.021 z "/>
<path style="fill:rgb(255, 255, 0);fill-opacity:0;fill-rule:evenodd;stroke:rgb(47, 0, 255);stroke-width:1;" d="M 370.439, 489.036 L 381.734, 473.505 L 382.263, 473.682 L 387.734, 466.27 L 399.382, 471.211 L 407.501, 474.741 L 407.854, 474.211 L 428.502, 482.859 L 411.207, 506.508 L 397.97, 500.86 L 395.5, 504.214 L 380.852, 498.037 L 383.499, 494.507 L 370.439, 489.036 z "/>
<path style="fill:rgb(255, 0, 0);fill-opacity:0;fill-rule:evenodd;stroke:rgb(47, 0, 255);stroke-width:1;" d="M 661.813, 174.013 L 677.344, 152.835 L 727.289, 174.013 L 711.758, 195.191 L 699.051, 189.72 L 688.639, 185.484 L 692.698, 179.837 L 691.992, 179.484 L 677.873, 173.66 L 673.991, 179.131 L 663.402, 174.719 L 661.813, 174.013 z "/>
<path style="fill:rgb(0, 255, 0);fill-opacity:0;fill-rule:evenodd;stroke:rgb(47, 0, 255);stroke-width:1;" d="M 617.516, 235.076 L 631.458, 216.192 L 644.341, 221.663 L 647.342, 222.899 L 641.165, 231.37 L 643.283, 232.252 L 644.871, 230.135 L 655.989, 234.723 L 654.401, 236.841 L 654.578, 237.723 L 657.931, 239.135 L 664.461, 230.135 L 681.05, 237.194 L 667.284, 256.078 L 662.519, 256.96 L 618.575, 238.429 L 617.516, 235.076 z "/>
<path style="fill:rgb(0, 0, 255);fill-opacity:0;fill-rule:evenodd;stroke:rgb(47, 0, 255);stroke-width:1;" d="M 631.458, 216.192 L 646.989, 194.838 L 648.401, 195.367 L 661.99, 201.191 L 658.813, 205.603 L 690.404, 218.84 L 691.992, 222.193 L 681.05, 237.194 L 664.461, 230.135 L 665.872, 228.193 L 648.577, 220.781 L 649.812, 219.193 L 649.46, 219.016 L 646.989, 217.957 L 644.341, 221.663 L 631.458, 216.192 z "/>
<path style="fill:rgb(255, 255, 0);fill-opacity:0;fill-rule:evenodd;stroke:rgb(47, 0, 255);stroke-width:1;" d="M 202.603, 730.995 L 220.957, 705.758 L 255.548, 720.229 L 247.077, 731.877 L 238.959, 742.996 L 232.429, 740.349 L 230.488, 742.643 L 202.603, 730.995 z "/>
<path style="fill:rgb(255, 0, 0);fill-opacity:0;fill-rule:evenodd;stroke:rgb(47, 0, 255);stroke-width:1;" d="M 470.152, 176.131 L 477.565, 166.071 L 482.859, 168.365 L 485.683, 168.012 L 496.978, 152.482 L 489.742, 149.482 L 490.095, 148.776 L 497.331, 138.893 L 525.215, 150.717 L 517.626, 161.129 L 510.743, 158.306 L 499.448, 173.836 L 500.154, 175.778 L 505.449, 177.895 L 498.213, 187.955 L 494.507, 186.367 L 493.625, 187.602 L 473.858, 179.307 L 474.741, 178.072 L 470.152, 176.131 z "/>
<path style="fill:rgb(0, 255, 0);fill-opacity:0;fill-rule:evenodd;stroke:rgb(47, 0, 255);stroke-width:1;" d="M 704.522, 117.538 L 720.759, 95.8306 L 733.995, 101.478 L 731.348, 105.008 L 729.407, 105.361 L 729.407, 107.478 L 731.701, 108.537 L 733.113, 108.184 L 749.526, 115.244 L 748.996, 115.95 L 751.82, 117.009 L 753.761, 115.773 L 753.232, 114.361 L 755.703, 110.832 L 769.292, 116.479 L 753.232, 138.363 L 739.643, 132.539 L 742.113, 129.009 L 744.408, 128.304 L 745.114, 126.362 L 742.643, 125.303 L 741.231, 125.833 L 724.642, 118.773 L 724.994, 118.068 L 722.347, 116.832 L 720.229, 117.891 L 720.406, 119.832 L 717.935, 123.186 L 704.522, 117.538 z "/>
<path style="fill:rgb(0, 0, 255);fill-opacity:0;fill-rule:evenodd;stroke:rgb(47, 0, 255);stroke-width:1;" d="M 247.077, 731.877 L 255.548, 720.229 L 257.137, 718.112 L 312.905, 741.584 L 300.552, 758.703 L 289.257, 753.938 L 288.374, 753.585 L 291.374, 749.526 L 287.139, 747.584 L 286.609, 748.467 L 247.077, 731.877 z "/>
<path style="fill:rgb(255, 255, 0);fill-opacity:0;fill-rule:evenodd;stroke:rgb(47, 0, 255);stroke-width:1;" d="M 442.621, 164.483 L 450.563, 153.717 L 457.092, 156.541 L 468.211, 141.187 L 466.623, 139.422 L 462.21, 137.657 L 469.799, 127.245 L 497.331, 138.893 L 490.095, 148.776 L 485.683, 147.011 L 483.036, 146.481 L 470.682, 163.247 L 477.565, 166.071 L 470.152, 176.131 L 442.621, 164.483 z "/>
<path style="fill:rgb(255, 0, 0);fill-opacity:0;fill-rule:evenodd;stroke:rgb(47, 0, 255);stroke-width:1;" d="M 477.388, 117.009 L 484.447, 107.302 L 488.683, 109.067 L 491.683, 109.596 L 503.508, 93.3598 L 496.801, 90.5361 L 504.39, 80.1235 L 532.274, 91.7715 L 524.509, 102.36 L 517.273, 99.1838 L 505.978, 114.891 L 508.096, 116.832 L 512.508, 118.597 L 505.272, 128.657 L 477.388, 117.009 z "/>
<path style="fill:rgb(0, 255, 0);fill-opacity:0;fill-rule:evenodd;stroke:rgb(47, 0, 255);stroke-width:1;" d="M 634.282, 101.125 L 641.694, 91.0655 L 646.283, 93.0068 L 649.46, 93.5363 L 661.284, 77.6528 L 659.519, 75.7114 L 654.578, 73.5936 L 661.46, 64.4165 L 689.874, 76.4174 L 682.815, 85.771 L 675.756, 82.5943 L 671.167, 88.9477 L 662.872, 100.066 L 670.108, 103.243 L 662.519, 113.302 L 634.282, 101.125 z "/>
<path style="fill:rgb(0, 0, 255);fill-opacity:0;fill-rule:evenodd;stroke:rgb(47, 0, 255);stroke-width:1;" d="M 768.409, 225.722 L 787.47, 199.779 L 817.648, 212.486 L 798.765, 238.429 L 768.409, 225.722 z "/>
<path style="fill:rgb(255, 255, 0);fill-opacity:0;fill-rule:evenodd;stroke:rgb(47, 0, 255);stroke-width:1;" d="M 648.401, 195.367 L 663.402, 174.719 L 673.991, 179.131 L 677.167, 180.543 L 673.461, 185.661 L 695.169, 194.838 L 699.051, 189.72 L 711.758, 195.191 L 696.581, 215.839 L 684.05, 210.545 L 687.756, 205.427 L 672.226, 198.897 L 669.402, 198.897 L 666.931, 197.838 L 664.108, 198.368 L 661.99, 201.191 L 648.401, 195.367 z "/>
<path style="fill:rgb(255, 0, 0);fill-opacity:0;fill-rule:evenodd;stroke:rgb(47, 0, 255);stroke-width:1;" d="M 726.406, 283.433 L 745.114, 257.666 L 775.116, 270.196 L 765.233, 283.786 L 756.409, 295.963 L 726.406, 283.433 z "/>
<path style="fill:rgb(0, 255, 0);fill-opacity:0;fill-rule:evenodd;stroke:rgb(47, 0, 255);stroke-width:1;" d="M 616.81, 175.248 L 624.399, 164.659 L 629.87, 166.953 L 632.694, 167.306 L 643.636, 152.129 L 641.871, 149.835 L 636.753, 147.717 L 643.459, 138.716 L 671.343, 150.364 L 664.637, 159.541 L 659.519, 157.423 L 656.695, 157.6 L 655.46, 159.188 L 645.224, 173.307 L 652.46, 176.307 L 644.694, 186.896 L 616.81, 175.248 z "/>
<path style="fill:rgb(0, 0, 255);fill-opacity:0;fill-rule:evenodd;stroke:rgb(47, 0, 255);stroke-width:1;" d="M 46.0622, 594.573 L 52.5921, 585.749 L 55.2394, 586.808 L 56.1218, 585.572 L 58.4161, 586.455 L 60.7103, 583.278 L 52.4156, 579.749 L 60.0044, 569.336 L 67.9462, 572.689 L 70.7699, 568.983 L 66.0049, 566.865 L 72.5347, 558.041 L 96.0071, 568.101 L 88.5947, 578.16 L 85.9475, 576.925 L 78.7117, 579.396 L 74.1231, 585.572 L 74.829, 588.573 L 73.2407, 590.69 L 74.1231, 592.808 L 76.7704, 593.867 L 69.1816, 604.28 L 46.0622, 594.573 z "/>
<path style="fill:rgb(255, 255, 0);fill-opacity:0;fill-rule:evenodd;stroke:rgb(47, 0, 255);stroke-width:1;" d="M 99.8897, 617.516 L 106.596, 608.339 L 109.243, 609.398 L 112.42, 608.868 L 114.714, 605.692 L 106.596, 602.162 L 114.008, 592.102 L 121.774, 595.456 L 124.421, 591.573 L 120.362, 589.808 L 126.892, 580.984 L 149.835, 590.69 L 142.246, 601.28 L 139.775, 599.515 L 132.716, 601.632 L 127.951, 608.162 L 129.009, 611.339 L 127.598, 613.104 L 127.598, 614.869 L 130.421, 616.104 L 122.303, 627.046 L 99.8897, 617.516 z "/>
<path style="fill:rgb(255, 0, 0);fill-opacity:0;fill-rule:evenodd;stroke:rgb(47, 0, 255);stroke-width:1;" d="M 212.486, 602.868 L 229.782, 579.396 L 232.429, 580.454 L 234.547, 577.631 L 228.017, 574.807 L 235.429, 564.924 L 260.843, 575.689 L 252.901, 586.631 L 249.548, 585.22 L 249.371, 583.984 L 246.195, 582.572 L 234.017, 599.338 L 237.017, 600.574 L 239.135, 600.221 L 241.959, 601.456 L 234.37, 612.045 L 212.486, 602.868 z "/>
<path style="fill:rgb(0, 255, 0);fill-opacity:0;fill-rule:evenodd;stroke:rgb(47, 0, 255);stroke-width:1;" d="M 375.204, 567.748 L 385.087, 553.982 L 419.501, 568.454 L 419.854, 569.689 L 423.208, 570.218 L 425.502, 567.042 L 436.444, 571.63 L 424.266, 588.396 L 375.204, 567.748 z "/>
<path style="fill:rgb(0, 0, 255);fill-opacity:0;fill-rule:evenodd;stroke:rgb(47, 0, 255);stroke-width:1;" d="M 161.835, 581.337 L 178.778, 558.041 L 181.072, 559.1 L 183.366, 556.1 L 177.189, 553.452 L 178.072, 552.217 L 184.602, 543.393 L 210.015, 554.158 L 202.074, 565.277 L 198.544, 563.689 L 198.544, 562.277 L 195.544, 561.041 L 183.013, 577.984 L 186.19, 579.396 L 188.484, 579.043 L 191.132, 580.101 L 183.543, 590.514 L 161.835, 581.337 z "/>
<path style="fill:rgb(255, 255, 0);fill-opacity:0;fill-rule:evenodd;stroke:rgb(47, 0, 255);stroke-width:1;" d="M 333.554, 623.869 L 343.261, 610.457 L 393.029, 631.635 L 380.852, 648.048 L 368.674, 642.93 L 371.674, 639.047 L 366.909, 637.106 L 366.38, 637.812 L 333.554, 623.869 z "/>
<path style="fill:rgb(255, 0, 0);fill-opacity:0;fill-rule:evenodd;stroke:rgb(47, 0, 255);stroke-width:1;" d="M 234.37, 612.045 L 241.959, 601.456 L 244.959, 602.691 L 245.489, 604.103 L 249.018, 605.515 L 261.196, 588.926 L 257.49, 587.337 L 255.725, 587.867 L 252.901, 586.631 L 260.843, 575.689 L 286.609, 586.631 L 279.55, 596.161 L 273.373, 593.691 L 271.079, 596.867 L 273.197, 597.75 L 255.901, 621.222 L 234.37, 612.045 z "/>
<path style="fill:rgb(0, 255, 0);fill-opacity:0;fill-rule:evenodd;stroke:rgb(47, 0, 255);stroke-width:1;" d="M 282.021, 694.463 L 291.904, 681.05 L 324.553, 694.816 L 324.024, 695.698 L 329.142, 697.992 L 331.966, 694.11 L 343.614, 698.875 L 331.613, 715.464 L 282.021, 694.463 z "/>
<path style="fill:rgb(0, 0, 255);fill-opacity:0;fill-rule:evenodd;stroke:rgb(47, 0, 255);stroke-width:1;" d="M 183.543, 590.514 L 191.132, 580.101 L 194.308, 581.337 L 194.308, 582.925 L 197.662, 584.337 L 209.839, 567.571 L 210.192, 567.218 L 206.839, 565.806 L 204.721, 566.336 L 202.074, 565.277 L 210.015, 554.158 L 235.429, 564.924 L 228.017, 574.807 L 222.016, 572.16 L 219.546, 575.513 L 222.016, 576.572 L 205.074, 599.691 L 183.543, 590.514 z "/>
<path style="fill:rgb(255, 255, 0);fill-opacity:0;fill-rule:evenodd;stroke:rgb(47, 0, 255);stroke-width:1;" d="M 263.843, 624.399 L 280.962, 601.28 L 283.433, 602.338 L 285.903, 598.809 L 279.55, 596.161 L 286.609, 586.631 L 312.199, 597.397 L 304.258, 608.339 L 301.257, 607.103 L 300.552, 604.986 L 297.728, 603.75 L 285.021, 620.869 L 288.198, 622.281 L 290.315, 621.575 L 293.316, 622.987 L 285.55, 633.576 L 263.843, 624.399 z "/>
<path style="fill:rgb(255, 0, 0);fill-opacity:0;fill-rule:evenodd;stroke:rgb(47, 0, 255);stroke-width:1;" d="M 70.064, 687.756 L 87.8888, 663.402 L 91.595, 662.872 L 91.242, 660.578 L 87.0064, 658.813 L 93.8893, 649.283 L 117.891, 659.519 L 111.008, 668.873 L 106.773, 667.108 L 103.419, 667.99 L 105.184, 670.638 L 87.3594, 694.992 L 70.064, 687.756 z "/>
<path style="fill:rgb(0, 255, 0);fill-opacity:0;fill-rule:evenodd;stroke:rgb(47, 0, 255);stroke-width:1;" d="M 426.384, 496.801 L 436.267, 483.565 L 485.683, 504.567 L 473.682, 520.803 L 462.916, 516.214 L 465.387, 512.861 L 462.74, 511.449 L 461.328, 511.626 L 426.384, 496.801 z "/>
<path style="fill:rgb(0, 0, 255);fill-opacity:0;fill-rule:evenodd;stroke:rgb(47, 0, 255);stroke-width:1;" d="M 285.55, 633.576 L 293.316, 622.987 L 296.492, 624.399 L 297.198, 625.987 L 300.199, 627.223 L 312.729, 610.104 L 309.023, 608.515 L 307.081, 609.574 L 304.258, 608.339 L 312.199, 597.397 L 337.437, 608.162 L 330.377, 617.692 L 324.377, 615.222 L 322.083, 618.398 L 324.377, 619.281 L 307.258, 642.753 L 285.55, 633.576 z "/>
<path style="fill:rgb(255, 255, 0);fill-opacity:0;fill-rule:evenodd;stroke:rgb(47, 0, 255);stroke-width:1;" d="M 138.187, 571.277 L 158.306, 543.746 L 154.247, 542.158 L 160.6, 533.333 L 184.602, 543.393 L 178.072, 552.217 L 173.836, 550.452 L 153.717, 577.984 L 138.187, 571.277 z "/>
<path style="fill:rgb(255, 0, 0);fill-opacity:0;fill-rule:evenodd;stroke:rgb(47, 0, 255);stroke-width:1;" d="M 114.361, 561.394 L 134.657, 533.863 L 130.245, 531.921 L 136.598, 523.097 L 160.6, 533.333 L 154.247, 542.158 L 149.835, 540.216 L 129.539, 567.924 L 114.361, 561.394 z "/>
<path style="fill:rgb(0, 255, 0);fill-opacity:0;fill-rule:evenodd;stroke:rgb(47, 0, 255);stroke-width:1;" d="M 160.953, 726.053 L 177.542, 703.287 L 178.778, 703.816 L 180.013, 702.052 L 181.778, 701.699 L 181.249, 699.581 L 177.189, 697.816 L 184.602, 687.58 L 207.192, 697.11 L 205.603, 699.228 L 199.779, 707.346 L 194.838, 705.228 L 192.191, 706.111 L 192.544, 707.346 L 191.308, 709.111 L 192.367, 709.64 L 175.778, 732.23 L 160.953, 726.053 z "/>
<path style="fill:rgb(0, 0, 255);fill-opacity:0;fill-rule:evenodd;stroke:rgb(47, 0, 255);stroke-width:1;" d="M 346.614, 555.57 L 352.967, 546.746 L 353.144, 546.57 L 356.85, 548.158 L 358.968, 546.923 L 359.144, 544.805 L 376.969, 520.45 L 392.146, 526.803 L 374.145, 551.511 L 372.91, 552.041 L 372.027, 554.864 L 375.028, 556.1 L 368.674, 564.924 L 346.614, 555.57 z "/>
<path style="fill:rgb(255, 255, 0);fill-opacity:0;fill-rule:evenodd;stroke:rgb(47, 0, 255);stroke-width:1;" d="M 324.377, 546.217 L 330.907, 537.216 L 334.613, 538.804 L 336.907, 537.569 L 337.084, 535.451 L 354.908, 511.096 L 370.086, 517.45 L 352.085, 542.158 L 350.143, 542.863 L 349.967, 545.511 L 352.967, 546.746 L 346.614, 555.57 L 324.377, 546.217 z "/>
<path style="fill:rgb(255, 0, 0);fill-opacity:0;fill-rule:evenodd;stroke:rgb(47, 0, 255);stroke-width:1;" d="M 138.716, 716.7 L 155.129, 693.933 L 156.541, 694.463 L 157.776, 692.522 L 159.541, 692.345 L 159.012, 690.051 L 154.953, 688.462 L 162.365, 678.226 L 184.602, 687.58 L 177.189, 697.816 L 172.601, 695.875 L 169.954, 696.757 L 170.307, 697.816 L 169.071, 699.757 L 170.13, 700.287 L 153.541, 722.877 L 138.716, 716.7 z "/>
<path style="fill:rgb(0, 255, 0);fill-opacity:0;fill-rule:evenodd;stroke:rgb(47, 0, 255);stroke-width:1;" d="M 94.0657, 697.816 L 110.655, 675.226 L 111.891, 675.756 L 113.302, 673.814 L 115.067, 673.461 L 114.538, 671.343 L 110.479, 669.755 L 111.008, 668.873 L 117.891, 659.519 L 140.128, 668.873 L 132.716, 679.109 L 128.127, 677.167 L 125.48, 677.873 L 125.833, 679.109 L 124.597, 681.05 L 125.656, 681.403 L 109.067, 704.169 L 94.0657, 697.816 z "/>
<path style="fill:rgb(0, 0, 255);fill-opacity:0;fill-rule:evenodd;stroke:rgb(47, 0, 255);stroke-width:1;" d="M 116.303, 707.346 L 132.892, 684.58 L 134.128, 685.109 L 135.539, 683.168 L 137.304, 682.815 L 136.775, 680.697 L 132.716, 679.109 L 140.128, 668.873 L 162.365, 678.226 L 154.953, 688.462 L 150.364, 686.521 L 147.717, 687.227 L 148.07, 688.462 L 146.834, 690.404 L 147.893, 690.933 L 131.304, 713.523 L 116.303, 707.346 z "/>
<path style="fill:rgb(255, 255, 0);fill-opacity:0;fill-rule:evenodd;stroke:rgb(47, 0, 255);stroke-width:1;" d="M 168.012, 480.035 L 174.366, 471.211 L 178.248, 472.799 L 180.896, 471.388 L 180.366, 469.799 L 198.368, 445.268 L 213.545, 451.621 L 195.367, 476.329 L 193.602, 477.212 L 193.25, 479.329 L 197.132, 480.918 L 190.779, 489.742 L 168.012, 480.035 z "/>
<path style="fill:rgb(255, 0, 0);fill-opacity:0;fill-rule:evenodd;stroke:rgb(47, 0, 255);stroke-width:1;" d="M 212.486, 498.919 L 219.016, 490.095 L 222.899, 491.86 L 225.722, 489.918 L 225.37, 488.683 L 243.371, 464.152 L 258.195, 470.329 L 240.371, 494.86 L 238.429, 495.742 L 238.606, 498.213 L 242.135, 499.625 L 241.959, 499.801 L 235.429, 508.626 L 212.486, 498.919 z "/>
<path style="fill:rgb(0, 255, 0);fill-opacity:0;fill-rule:evenodd;stroke:rgb(47, 0, 255);stroke-width:1;" d="M 100.949, 451.798 L 107.478, 442.797 L 111.185, 444.386 L 113.479, 442.974 L 113.832, 441.385 L 131.657, 417.031 L 146.658, 423.384 L 128.833, 447.739 L 127.068, 448.798 L 126.362, 451.092 L 129.892, 452.68 L 123.538, 461.328 L 100.949, 451.798 z "/>
<path style="fill:rgb(0, 0, 255);fill-opacity:0;fill-rule:evenodd;stroke:rgb(47, 0, 255);stroke-width:1;" d="M 518.862, 196.426 L 526.098, 186.72 L 529.804, 188.131 L 549.746, 160.953 L 563.689, 166.777 L 543.922, 194.132 L 547.099, 195.544 L 539.863, 205.25 L 536.687, 205.78 L 520.979, 199.073 L 518.862, 196.426 z "/>
<path style="fill:rgb(255, 255, 0);fill-opacity:0;fill-rule:evenodd;stroke:rgb(47, 0, 255);stroke-width:1;" d="M 539.863, 205.25 L 547.099, 195.544 L 550.805, 197.132 L 570.748, 169.777 L 584.69, 175.778 L 564.747, 202.956 L 567.924, 204.368 L 560.865, 214.075 L 557.688, 214.428 L 541.805, 207.898 L 539.863, 205.25 z "/>
<path style="fill:rgb(255, 0, 0);fill-opacity:0;fill-rule:evenodd;stroke:rgb(47, 0, 255);stroke-width:1;" d="M 498.213, 187.955 L 505.449, 177.895 L 508.979, 179.484 L 528.745, 152.129 L 542.863, 158.129 L 522.921, 185.308 L 526.098, 186.72 L 518.862, 196.426 L 515.685, 196.779 L 499.978, 190.249 L 498.213, 187.955 z "/>
<path style="fill:rgb(0, 255, 0);fill-opacity:0;fill-rule:evenodd;stroke:rgb(47, 0, 255);stroke-width:1;" d="M 257.666, 517.979 L 264.196, 509.155 L 267.373, 510.567 L 269.843, 508.802 L 269.843, 507.39 L 287.845, 482.859 L 302.669, 489.212 L 284.844, 513.567 L 283.433, 514.803 L 283.256, 517.097 L 286.433, 518.509 L 286.433, 518.685 L 279.903, 527.509 L 257.666, 517.979 z "/>
<path style="fill:rgb(0, 0, 255);fill-opacity:0;fill-rule:evenodd;stroke:rgb(47, 0, 255);stroke-width:1;" d="M 235.429, 508.626 L 241.959, 499.801 L 245.136, 501.213 L 247.959, 499.448 L 247.606, 498.037 L 265.608, 473.505 L 280.609, 479.859 L 262.608, 504.214 L 261.196, 505.272 L 260.843, 507.567 L 264.196, 508.979 L 264.196, 509.155 L 257.666, 517.979 L 235.429, 508.626 z "/>
<path style="fill:rgb(255, 255, 0);fill-opacity:0;fill-rule:evenodd;stroke:rgb(47, 0, 255);stroke-width:1;" d="M 302.14, 536.863 L 308.67, 528.039 L 311.846, 529.451 L 314.847, 527.509 L 314.317, 526.274 L 332.319, 501.743 L 347.32, 508.096 L 329.318, 532.451 L 327.906, 533.333 L 327.73, 535.804 L 330.907, 537.216 L 324.377, 546.217 L 302.14, 536.863 z "/>
<path style="fill:rgb(255, 0, 0);fill-opacity:0;fill-rule:evenodd;stroke:rgb(47, 0, 255);stroke-width:1;" d="M 279.903, 527.509 L 286.433, 518.685 L 289.61, 520.097 L 292.786, 518.156 L 292.08, 516.744 L 310.082, 492.389 L 325.083, 498.566 L 307.081, 522.921 L 305.67, 523.803 L 305.317, 526.45 L 308.846, 527.862 L 308.67, 528.039 L 302.14, 536.863 L 279.903, 527.509 z "/>
<path style="fill:rgb(0, 255, 0);fill-opacity:0;fill-rule:evenodd;stroke:rgb(47, 0, 255);stroke-width:1;" d="M 322.788, 641.871 L 330.907, 630.752 L 366.733, 645.753 L 368.674, 642.93 L 380.852, 648.048 L 368.498, 665.167 L 356.85, 660.225 L 358.968, 657.225 L 322.788, 641.871 z "/>
<path style="fill:rgb(0, 0, 255);fill-opacity:0;fill-rule:evenodd;stroke:rgb(47, 0, 255);stroke-width:1;" d="M 242.135, 751.996 L 250.607, 740.525 L 283.08, 754.291 L 282.374, 755.35 L 286.786, 757.291 L 289.257, 753.938 L 300.552, 758.703 L 288.374, 775.292 L 277.079, 770.527 L 279.726, 766.821 L 275.314, 764.88 L 274.785, 765.586 L 242.135, 751.996 z "/>
<path style="fill:rgb(255, 255, 0);fill-opacity:0;fill-rule:evenodd;stroke:rgb(47, 0, 255);stroke-width:1;" d="M 123.538, 461.328 L 129.892, 452.68 L 131.657, 453.386 L 135.539, 451.798 L 153.894, 426.561 L 168.718, 432.914 L 150.717, 457.445 L 148.952, 458.328 L 149.129, 460.622 L 152.305, 462.034 L 145.952, 470.682 L 123.538, 461.328 z "/>
<path style="fill:rgb(255, 0, 0);fill-opacity:0;fill-rule:evenodd;stroke:rgb(47, 0, 255);stroke-width:1;" d="M 145.952, 470.682 L 152.305, 462.034 L 156.188, 463.622 L 158.659, 462.034 L 157.953, 460.622 L 176.131, 435.914 L 191.132, 442.091 L 173.13, 466.623 L 171.366, 467.681 L 171.366, 469.976 L 174.366, 471.211 L 168.012, 480.035 L 145.952, 470.682 z "/>
<path style="fill:rgb(0, 255, 0);fill-opacity:0;fill-rule:evenodd;stroke:rgb(47, 0, 255);stroke-width:1;" d="M 229.782, 768.762 L 238.076, 757.467 L 270.726, 771.233 L 270.02, 771.939 L 274.608, 773.88 L 277.079, 770.527 L 288.374, 775.292 L 276.02, 792.235 L 264.725, 787.293 L 267.549, 783.411 L 263.137, 781.469 L 262.431, 782.528 L 229.782, 768.762 z "/>
<path style="fill:rgb(0, 0, 255);fill-opacity:0;fill-rule:evenodd;stroke:rgb(47, 0, 255);stroke-width:1;" d="M 91.7715, 552.041 L 111.361, 525.039 L 107.655, 523.45 L 114.714, 513.92 L 136.598, 523.097 L 130.245, 531.921 L 129.715, 532.627 L 126.009, 531.216 L 106.243, 558.041 L 91.7715, 552.041 z "/>
<path style="fill:rgb(255, 255, 0);fill-opacity:0;fill-rule:evenodd;stroke:rgb(47, 0, 255);stroke-width:1;" d="M 209.839, 664.108 L 216.016, 655.813 L 221.31, 657.931 L 223.958, 654.225 L 223.075, 653.695 L 241.077, 629.34 L 255.901, 635.694 L 237.723, 660.402 L 236.311, 659.696 L 233.841, 663.049 L 238.429, 664.99 L 232.252, 673.461 L 209.839, 664.108 z "/>
<path style="fill:rgb(255, 0, 0);fill-opacity:0;fill-rule:evenodd;stroke:rgb(47, 0, 255);stroke-width:1;" d="M 403.088, 531.745 L 411.207, 520.45 L 444.915, 534.745 L 445.445, 535.628 L 448.268, 536.157 L 450.563, 532.98 L 461.505, 537.745 L 448.974, 554.688 L 438.209, 550.099 L 440.15, 547.452 L 438.209, 545.687 L 436.797, 546.04 L 403.088, 531.745 z "/>
<path style="fill:rgb(0, 255, 0);fill-opacity:0;fill-rule:evenodd;stroke:rgb(47, 0, 255);stroke-width:1;" d="M 560.865, 214.075 L 567.924, 204.368 L 571.807, 205.956 L 591.22, 179.307 L 604.809, 184.955 L 585.396, 211.604 L 589.279, 213.369 L 587.514, 215.839 L 582.219, 223.075 L 578.69, 223.428 L 563.159, 216.722 L 560.865, 214.075 z "/>
<path style="fill:rgb(0, 0, 255);fill-opacity:0;fill-rule:evenodd;stroke:rgb(47, 0, 255);stroke-width:1;" d="M 298.257, 675.756 L 306.199, 664.814 L 342.555, 680.168 L 344.849, 676.991 L 356.144, 681.756 L 343.614, 698.875 L 331.966, 694.11 L 334.26, 690.933 L 298.257, 675.756 z "/>
<path style="fill:rgb(255, 255, 0);fill-opacity:0;fill-rule:evenodd;stroke:rgb(47, 0, 255);stroke-width:1;" d="M 390.735, 548.687 L 399.029, 537.569 L 432.561, 551.864 L 432.914, 552.57 L 435.914, 553.276 L 438.209, 550.099 L 448.974, 554.688 L 436.444, 571.63 L 425.502, 567.042 L 427.62, 564.218 L 425.678, 562.63 L 424.443, 562.983 L 390.735, 548.687 z "/>
<path style="fill:rgb(255, 0, 0);fill-opacity:0;fill-rule:evenodd;stroke:rgb(47, 0, 255);stroke-width:1;" d="M 232.252, 673.461 L 238.429, 664.99 L 243.371, 667.108 L 246.018, 663.578 L 244.783, 663.049 L 262.608, 638.694 L 277.256, 644.871 L 259.078, 669.579 L 258.195, 669.226 L 255.901, 672.226 L 260.666, 674.344 L 254.489, 682.815 L 232.252, 673.461 z "/>
<path style="fill:rgb(0, 255, 0);fill-opacity:0;fill-rule:evenodd;stroke:rgb(47, 0, 255);stroke-width:1;" d="M 713.876, 93.0068 L 721.288, 83.1238 L 721.818, 82.2413 L 748.82, 93.8893 L 777.234, 105.89 L 769.292, 116.479 L 755.703, 110.832 L 733.995, 101.478 L 720.759, 95.8306 L 713.876, 93.0068 z "/>
<path style="fill:rgb(0, 0, 255);fill-opacity:0;fill-rule:evenodd;stroke:rgb(47, 0, 255);stroke-width:1;" d="M 254.489, 682.815 L 260.666, 674.344 L 265.255, 676.285 L 267.726, 672.932 L 266.843, 672.579 L 284.844, 647.871 L 299.493, 654.048 L 281.315, 678.932 L 280.079, 678.403 L 277.962, 681.403 L 282.374, 683.168 L 276.02, 691.992 L 254.489, 682.815 z "/>
<path style="fill:rgb(255, 255, 0);fill-opacity:0;fill-rule:evenodd;stroke:rgb(47, 0, 255);stroke-width:1;" d="M 310.788, 658.813 L 318.729, 648.048 L 354.555, 663.225 L 356.85, 660.225 L 368.498, 665.167 L 356.144, 681.756 L 344.849, 676.991 L 346.967, 674.167 L 310.788, 658.813 z "/>
<path style="fill:rgb(255, 0, 0);fill-opacity:0;fill-rule:evenodd;stroke:rgb(47, 0, 255);stroke-width:1;" d="M 166.6, 645.753 L 172.777, 637.459 L 177.719, 639.576 L 180.366, 636.047 L 179.307, 635.694 L 197.309, 610.986 L 211.78, 616.987 L 193.779, 641.694 L 192.544, 641.341 L 190.073, 644.694 L 194.661, 646.812 L 188.661, 655.107 L 166.6, 645.753 z "/>
<path style="fill:rgb(0, 255, 0);fill-opacity:0;fill-rule:evenodd;stroke:rgb(47, 0, 255);stroke-width:1;" d="M 190.779, 489.742 L 197.132, 480.918 L 210.368, 463.093 L 232.076, 472.27 L 219.016, 490.095 L 212.486, 498.919 L 190.779, 489.742 z "/>
<path style="fill:rgb(0, 0, 255);fill-opacity:0;fill-rule:evenodd;stroke:rgb(47, 0, 255);stroke-width:1;" d="M 188.661, 655.107 L 194.661, 646.812 L 199.426, 648.754 L 202.25, 645.047 L 201.191, 644.694 L 219.193, 620.163 L 233.664, 626.34 L 215.663, 651.048 L 214.78, 650.695 L 212.133, 654.225 L 216.016, 655.813 L 209.839, 664.108 L 188.661, 655.107 z "/>
<path style="fill:rgb(255, 255, 0);fill-opacity:0;fill-rule:evenodd;stroke:rgb(47, 0, 255);stroke-width:1;" d="M 145.069, 636.576 L 151.246, 628.281 L 155.835, 630.223 L 158.482, 626.693 L 157.423, 626.164 L 175.425, 601.632 L 189.896, 607.633 L 171.719, 632.517 L 170.836, 632.164 L 168.365, 635.517 L 172.777, 637.459 L 166.6, 645.753 L 145.069, 636.576 z "/>
<path style="fill:rgb(255, 0, 0);fill-opacity:0;fill-rule:evenodd;stroke:rgb(47, 0, 255);stroke-width:1;" d="M 415.972, 514.626 L 423.737, 503.861 L 457.092, 517.979 L 457.798, 518.862 L 460.622, 519.391 L 462.916, 516.214 L 473.682, 520.803 L 461.505, 537.745 L 450.563, 532.98 L 452.68, 530.157 L 450.386, 528.568 L 449.327, 528.745 L 415.972, 514.626 z "/>
<path style="fill:rgb(0, 255, 0);fill-opacity:0;fill-rule:evenodd;stroke:rgb(47, 0, 255);stroke-width:1;" d="M 80.1235, 442.974 L 86.4769, 434.15 L 90.0066, 435.561 L 93.5363, 432.561 L 92.8304, 432.385 L 110.655, 408.03 L 124.244, 413.677 L 106.243, 438.209 L 104.655, 441.562 L 107.478, 442.797 L 100.949, 451.798 L 80.1235, 442.974 z "/>
<path style="fill:rgb(0, 0, 255);fill-opacity:0;fill-rule:evenodd;stroke:rgb(47, 0, 255);stroke-width:1;" d="M 76.0644, 297.728 L 79.7706, 292.61 L 85.9475, 288.551 L 139.069, 310.788 L 130.068, 320.671 L 76.0644, 297.728 z "/>
<path style="fill:rgb(255, 255, 0);fill-opacity:0;fill-rule:evenodd;stroke:rgb(47, 0, 255);stroke-width:1;" d="M 690.227, 124.95 L 695.698, 117.538 L 702.405, 120.538 L 704.522, 117.538 L 717.935, 123.186 L 716.876, 124.774 L 720.759, 126.362 L 721.818, 124.95 L 739.643, 132.539 L 753.232, 138.363 L 753.408, 138.363 L 745.82, 148.776 L 690.227, 124.95 z "/>
<path style="fill:rgb(255, 0, 0);fill-opacity:0;fill-rule:evenodd;stroke:rgb(47, 0, 255);stroke-width:1;" d="M 303.022, 475.094 L 320.494, 451.092 L 322.435, 450.386 L 322.259, 447.915 L 318.729, 446.503 L 325.789, 436.797 L 346.79, 445.621 L 339.554, 455.504 L 335.848, 453.916 L 333.554, 454.975 L 333.201, 456.563 L 315.906, 480.388 L 303.022, 475.094 z "/>
<path style="fill:rgb(0, 255, 0);fill-opacity:0;fill-rule:evenodd;stroke:rgb(47, 0, 255);stroke-width:1;" d="M 324.024, 484.094 L 341.672, 460.269 L 343.437, 459.21 L 342.908, 456.916 L 339.554, 455.504 L 346.79, 445.621 L 367.792, 454.622 L 360.909, 464.152 L 356.85, 462.387 L 354.026, 463.622 L 354.379, 465.564 L 336.907, 489.565 L 324.024, 484.094 z "/>
<path style="fill:rgb(0, 0, 255);fill-opacity:0;fill-rule:evenodd;stroke:rgb(47, 0, 255);stroke-width:1;" d="M 59.8279, 434.326 L 66.3578, 425.502 L 69.711, 426.914 L 89.8301, 399.559 L 103.066, 405.206 L 82.9473, 432.561 L 86.4769, 434.15 L 80.1235, 442.974 L 59.8279, 434.326 z "/>
<path style="fill:rgb(255, 255, 0);fill-opacity:0;fill-rule:evenodd;stroke:rgb(47, 0, 255);stroke-width:1;" d="M 240.547, 448.268 L 258.195, 424.266 L 259.96, 423.384 L 259.607, 421.09 L 256.431, 419.678 L 263.137, 410.324 L 284.139, 419.148 L 277.256, 428.502 L 273.55, 426.914 L 270.902, 427.973 L 271.079, 429.914 L 253.43, 453.916 L 240.547, 448.268 z "/>
<path style="fill:rgb(255, 0, 0);fill-opacity:0;fill-rule:evenodd;stroke:rgb(47, 0, 255);stroke-width:1;" d="M 261.902, 457.269 L 279.373, 433.444 L 280.962, 432.385 L 280.609, 429.914 L 277.256, 428.502 L 284.139, 419.148 L 304.964, 427.973 L 297.904, 437.503 L 294.551, 436.091 L 292.257, 436.973 L 292.433, 438.738 L 274.785, 462.74 L 261.902, 457.269 z "/>
<path style="fill:rgb(0, 255, 0);fill-opacity:0;fill-rule:evenodd;stroke:rgb(47, 0, 255);stroke-width:1;" d="M 282.55, 466.27 L 300.199, 442.268 L 301.963, 441.209 L 301.434, 438.915 L 297.904, 437.503 L 304.964, 427.973 L 325.789, 436.797 L 318.729, 446.503 L 314.847, 444.915 L 312.729, 445.797 L 312.729, 447.562 L 295.257, 471.564 L 282.55, 466.27 z "/>
<path style="fill:rgb(0, 0, 255);fill-opacity:0;fill-rule:evenodd;stroke:rgb(47, 0, 255);stroke-width:1;" d="M 345.025, 493.095 L 362.85, 468.74 L 364.439, 468.034 L 363.909, 465.387 L 360.909, 464.152 L 367.792, 454.622 L 388.44, 463.269 L 381.557, 472.799 L 378.381, 471.388 L 375.557, 472.094 L 375.204, 474.035 L 357.379, 498.39 L 345.025, 493.095 z "/>
<path style="fill:rgb(255, 255, 0);fill-opacity:0;fill-rule:evenodd;stroke:rgb(47, 0, 255);stroke-width:1;" d="M 596.161, 228.899 L 601.456, 221.663 L 604.456, 220.604 L 607.103, 216.898 L 606.574, 214.78 L 608.162, 212.486 L 609.751, 213.016 L 624.222, 193.25 L 634.988, 197.662 L 621.046, 216.722 L 621.575, 218.84 L 619.987, 220.781 L 617.516, 221.663 L 614.692, 225.193 L 615.045, 227.487 L 609.751, 234.723 L 596.161, 228.899 z "/>
<path style="fill:rgb(255, 0, 0);fill-opacity:0;fill-rule:evenodd;stroke:rgb(47, 0, 255);stroke-width:1;" d="M 582.219, 223.075 L 587.514, 215.839 L 590.161, 215.31 L 592.808, 211.78 L 592.632, 209.486 L 594.044, 207.545 L 596.691, 206.486 L 610.457, 187.426 L 621.046, 191.838 L 606.927, 211.251 L 607.28, 211.957 L 608.162, 212.486 L 606.574, 214.78 L 603.574, 215.31 L 600.75, 219.193 L 601.456, 221.663 L 596.161, 228.899 L 582.219, 223.075 z "/>
<path style="fill:rgb(0, 255, 0);fill-opacity:0;fill-rule:evenodd;stroke:rgb(47, 0, 255);stroke-width:1;" d="M 428.855, 158.659 L 435.208, 149.835 L 438.915, 151.423 L 459.74, 123.009 L 469.799, 127.245 L 462.21, 137.657 L 450.563, 153.717 L 442.621, 164.483 L 428.855, 158.659 z "/>
<path style="fill:rgb(0, 0, 255);fill-opacity:0;fill-rule:evenodd;stroke:rgb(47, 0, 255);stroke-width:1;" d="M 965.718, 95.6541 L 981.602, 74.2996 L 995.367, 55.4158 L 1004.9, 59.475 L 1001.72, 63.8871 L 975.248, 99.7132 L 971.542, 99.7132 L 968.012, 98.1249 L 965.718, 95.6541 z "/>
<path style="fill:rgb(255, 255, 0);fill-opacity:0;fill-rule:evenodd;stroke:rgb(47, 0, 255);stroke-width:1;" d="M 438.209, 673.108 L 442.444, 667.461 L 443.856, 667.99 L 453.21, 655.107 L 452.151, 654.754 L 456.386, 648.93 L 473.505, 656.166 L 469.27, 661.813 L 467.858, 661.284 L 458.328, 674.167 L 459.74, 674.873 L 455.504, 680.521 L 438.209, 673.108 z "/>
<path style="fill:rgb(255, 0, 0);fill-opacity:0;fill-rule:evenodd;stroke:rgb(47, 0, 255);stroke-width:1;" d="M 189.014, 721.994 L 199.779, 707.346 L 205.603, 699.228 L 220.957, 705.758 L 202.603, 730.995 L 193.955, 727.289 L 195.72, 724.818 L 189.014, 721.994 z "/>
<path style="fill:rgb(0, 255, 0);fill-opacity:0;fill-rule:evenodd;stroke:rgb(47, 0, 255);stroke-width:1;" d="M 995.367, 108.184 L 1021.66, 72.3583 L 1028.37, 75.182 L 1017.78, 89.6537 L 1021.49, 91.0655 L 1005.6, 112.597 L 1003.31, 112.597 L 1001.01, 112.244 L 999.073, 111.538 L 997.309, 110.302 L 995.897, 109.067 L 995.367, 108.184 z "/>
<path style="fill:rgb(0, 0, 255);fill-opacity:0;fill-rule:evenodd;stroke:rgb(47, 0, 255);stroke-width:1;" d="M 985.308, 103.949 L 1001.01, 82.4178 L 1004.9, 84.1827 L 1010.02, 77.1233 L 1008.78, 76.5939 L 1014.25, 69.1816 L 1021.66, 72.3583 L 995.367, 108.184 L 990.779, 107.831 L 987.779, 106.596 L 985.308, 103.949 z "/>
<path style="fill:rgb(255, 255, 0);fill-opacity:0;fill-rule:evenodd;stroke:rgb(47, 0, 255);stroke-width:1;" d="M 975.248, 99.7132 L 1001.72, 63.8871 L 1008.6, 66.7108 L 1003.13, 74.2996 L 1002.25, 73.9466 L 997.132, 80.8295 L 1001.01, 82.4178 L 985.308, 103.949 L 983.013, 104.125 L 980.896, 103.772 L 978.778, 103.066 L 977.895, 102.537 L 976.307, 101.302 L 975.248, 99.7132 z "/>
<path style="fill:rgb(255, 0, 0);fill-opacity:0;fill-rule:evenodd;stroke:rgb(47, 0, 255);stroke-width:1;" d="M 955.835, 91.595 L 956.894, 90.1831 L 971.013, 71.1229 L 982.131, 55.9453 L 989.014, 58.769 L 983.719, 66.0049 L 982.66, 65.4754 L 977.542, 72.5347 L 981.602, 74.2996 L 965.718, 95.6541 L 963.6, 95.6541 L 961.306, 95.4776 L 960.424, 95.1246 L 958.482, 94.2422 L 957.07, 93.0068 L 955.835, 91.595 z "/>
<path style="fill:rgb(0, 255, 0);fill-opacity:0;fill-rule:evenodd;stroke:rgb(47, 0, 255);stroke-width:1;" d="M 946.834, 85.771 L 968.365, 56.4747 L 975.954, 59.6514 L 971.189, 65.8284 L 970.307, 65.4754 L 967.836, 68.8286 L 966.248, 69.0051 L 971.013, 71.1229 L 956.894, 90.1831 L 954.07, 88.9477 L 952.305, 89.3007 L 950.54, 89.1242 L 949.835, 88.9477 L 948.423, 88.2418 L 947.364, 87.1829 L 946.834, 85.771 z "/>
<path style="fill:rgb(0, 0, 255);fill-opacity:0;fill-rule:evenodd;stroke:rgb(47, 0, 255);stroke-width:1;" d="M 182.131, 232.076 L 198.015, 222.546 L 212.31, 228.546 L 203.133, 240.9 L 182.131, 232.076 z "/>
<path style="fill:rgb(255, 255, 0);fill-opacity:0;fill-rule:evenodd;stroke:rgb(47, 0, 255);stroke-width:1;" d="M 450.21, 366.909 L 456.386, 358.262 L 467.328, 362.85 L 466.623, 363.909 L 460.975, 371.321 L 450.21, 366.909 z "/>
<path style="fill:rgb(255, 0, 0);fill-opacity:0;fill-rule:evenodd;stroke:rgb(47, 0, 255);stroke-width:1;" d="M 697.463, 64.946 L 699.757, 61.9457 L 713.347, 67.7697 L 711.405, 70.5934 L 697.463, 64.946 z "/>
<path style="fill:rgb(0, 255, 0);fill-opacity:0;fill-rule:evenodd;stroke:rgb(47, 0, 255);stroke-width:1;" d="M 0, 518.156 L 29.2963, 478.27 L 112.067, 513.214 L 83.1238, 552.747 L 82.7708, 553.099 L 0, 518.156 z "/>
<path style="fill:rgb(0, 0, 255);fill-opacity:0;fill-rule:evenodd;stroke:rgb(47, 0, 255);stroke-width:1;" d="M 5.47099, 123.891 L 14.8246, 111.361 L 39.0029, 121.597 L 47.827, 109.596 L 40.7677, 106.596 L 38.4734, 108.008 L 35.6497, 111.891 L 21.3545, 105.714 L 35.6497, 86.3005 L 75.535, 103.243 L 82.9473, 106.42 L 85.5945, 102.89 L 99.8897, 108.89 L 68.8286, 150.893 L 5.47099, 123.891 z M 47.827, 122.48 L 48.8859, 123.715 L 49.0624, 124.95 L 61.2398, 130.068 L 64.593, 129.539 L 70.5934, 121.244 L 69.711, 118.773 L 57.7101, 113.655 L 53.8275, 114.185 L 47.827, 122.48 z "/>
<path style="fill:rgb(255, 255, 0);fill-opacity:0;fill-rule:evenodd;stroke:rgb(47, 0, 255);stroke-width:1;" d="M 23.6488, 364.086 L 54.3569, 322.083 L 106.596, 344.143 L 91.4185, 365.144 L 89.8301, 364.439 L 76.4174, 382.793 L 41.4736, 367.968 L 39.3558, 370.792 L 38.6499, 370.439 L 23.6488, 364.086 z M 53.298, 355.085 L 73.4172, 363.556 L 76.9468, 358.791 L 73.0642, 357.203 L 77.8293, 350.673 L 67.7697, 346.437 L 61.5928, 343.79 L 53.298, 355.085 z "/>
<path style="fill:rgb(255, 0, 0);fill-opacity:0;fill-rule:evenodd;stroke:rgb(47, 0, 255);stroke-width:1;" d="M 28.5903, 731.877 L 34.4143, 723.936 L 36.1791, 723.759 L 39.5323, 719.171 L 38.6499, 717.759 L 41.8266, 713.523 L 44.2974, 714.758 L 49.5919, 707.523 L 46.9446, 706.464 L 50.1213, 702.228 L 51.8862, 701.522 L 55.4158, 696.404 L 80.8295, 707.17 L 76.9468, 712.464 L 77.2998, 713.876 L 74.2996, 717.759 L 72.0053, 716.7 L 66.7108, 723.936 L 69.358, 724.994 L 66.1813, 729.23 L 64.0635, 729.936 L 63.1811, 730.995 L 72.8877, 734.878 L 79.7706, 725.524 L 79.0646, 723.406 L 81.5354, 720.053 L 80.3, 718.288 L 75.8879, 716.523 L 82.9473, 706.993 L 111.008, 718.818 L 106.596, 724.994 L 103.596, 729.054 L 99.5367, 727.465 L 96.8895, 726.759 L 93.7128, 730.995 L 91.4185, 732.936 L 84.1827, 742.819 L 85.771, 744.055 L 90.889, 746.349 L 85.9475, 753.232 L 84.3591, 755.35 L 28.5903, 731.877 z M 52.5921, 717.935 L 58.5925, 720.406 L 63.7106, 713.17 L 57.7101, 710.699 L 52.5921, 717.935 z "/>
<path style="fill:rgb(0, 255, 0);fill-opacity:0;fill-rule:evenodd;stroke:rgb(47, 0, 255);stroke-width:1;" d="M 42.0031, 675.932 L 49.5919, 665.343 L 52.9451, 666.755 L 53.651, 667.99 L 57.8866, 666.755 L 64.7695, 657.401 L 57.7101, 654.401 L 64.946, 644.518 L 68.2991, 645.93 L 70.4169, 645.577 L 69.711, 643.989 L 72.3583, 640.282 L 93.8893, 649.283 L 87.0064, 658.813 L 86.3005, 659.696 L 83.4767, 658.46 L 83.1238, 657.754 L 80.1235, 657.754 L 81.006, 660.402 L 63.1811, 684.933 L 42.0031, 675.932 z "/>
<path style="fill:rgb(0, 0, 255);fill-opacity:0;fill-rule:evenodd;stroke:rgb(47, 0, 255);stroke-width:1;" d="M 21.178, 667.108 L 38.8264, 642.753 L 42.3561, 641.165 L 40.4147, 639.753 L 39.5323, 639.929 L 36.8851, 638.694 L 44.2974, 628.458 L 65.4754, 637.459 L 62.8281, 640.988 L 60.7103, 641.518 L 61.5928, 643.106 L 64.946, 644.518 L 57.7101, 654.401 L 50.4743, 651.401 L 43.5914, 660.754 L 44.6503, 664.284 L 46.4152, 663.931 L 49.5919, 665.343 L 42.0031, 675.932 L 21.178, 667.108 z "/>
<path style="fill:rgb(255, 255, 0);fill-opacity:0;fill-rule:evenodd;stroke:rgb(47, 0, 255);stroke-width:1;" d="M 252.724, 84.0062 L 314.317, 0 L 361.438, 19.9426 L 346.437, 40.4147 L 322.788, 72.7112 L 299.846, 103.949 L 252.724, 84.0062 z "/>
<path style="fill:rgb(255, 0, 0);fill-opacity:0;fill-rule:evenodd;stroke:rgb(47, 0, 255);stroke-width:1;" d="M 299.846, 103.949 L 322.788, 72.7112 L 324.906, 74.6525 L 329.495, 71.8288 L 326.671, 69.0051 L 363.027, 47.4741 L 346.437, 40.4147 L 361.438, 19.9426 L 419.325, 44.4739 L 310.964, 108.714 L 299.846, 103.949 z "/>
<path style="fill:rgb(0, 255, 0);fill-opacity:0;fill-rule:evenodd;stroke:rgb(47, 0, 255);stroke-width:1;" d="M 720.053, 73.5936 L 732.583, 56.6512 L 729.936, 55.5923 L 744.231, 36.1791 L 766.998, 46.0622 L 756.938, 59.6514 L 771.939, 66.1813 L 774.939, 67.4167 L 785.175, 53.651 L 808.471, 63.7106 L 777.234, 105.89 L 748.82, 93.8893 L 753.055, 88.2418 L 755.173, 89.3007 L 766.468, 74.1231 L 762.938, 72.7112 L 760.644, 76.0644 L 754.82, 73.5936 L 757.291, 70.2405 L 751.114, 67.5932 L 740.349, 82.2413 L 720.053, 73.5936 z "/>
<path style="fill:rgb(0, 0, 255);fill-opacity:0;fill-rule:evenodd;stroke:rgb(47, 0, 255);stroke-width:1;" d="M 54.5334, 85.5945 L 66.7108, 68.8286 L 72.1818, 71.1229 L 76.4174, 65.1224 L 69.1816, 62.1222 L 81.006, 46.0622 L 130.598, 67.0638 L 99.8897, 108.89 L 85.5945, 102.89 L 87.8888, 99.7132 L 54.5334, 85.5945 z M 80.653, 79.9471 L 81.006, 80.1235 L 80.8295, 80.4765 L 95.4776, 86.8299 L 104.125, 75.182 L 96.0071, 71.6523 L 96.1835, 71.2994 L 89.3007, 68.4756 L 80.653, 79.9471 z "/>
<path style="fill:rgb(255, 255, 0);fill-opacity:0;fill-rule:evenodd;stroke:rgb(47, 0, 255);stroke-width:1;" d="M 550.805, 65.4754 L 557.335, 56.4747 L 564.571, 59.6514 L 574.807, 45.8857 L 567.571, 42.709 L 576.395, 30.8846 L 604.809, 42.8855 L 599.162, 50.4743 L 595.985, 54.8864 L 587.867, 51.5332 L 579.925, 62.2987 L 588.043, 65.6519 L 586.278, 68.1227 L 579.043, 77.6528 L 550.805, 65.4754 z "/>
<path style="fill:rgb(255, 0, 0);fill-opacity:0;fill-rule:evenodd;stroke:rgb(47, 0, 255);stroke-width:1;" d="M 606.398, 89.3007 L 613.81, 79.0646 L 621.046, 82.2413 L 633.929, 64.7695 L 626.693, 61.7692 L 633.576, 52.4156 L 661.46, 64.4165 L 654.578, 73.5936 L 647.871, 70.7699 L 638.694, 83.1238 L 634.988, 88.2418 L 641.694, 91.0655 L 634.282, 101.125 L 606.398, 89.3007 z "/>
<path style="fill:rgb(0, 255, 0);fill-opacity:0;fill-rule:evenodd;stroke:rgb(47, 0, 255);stroke-width:1;" d="M 579.043, 77.6528 L 586.278, 68.1227 L 591.043, 70.064 L 593.338, 69.8875 L 605.162, 53.651 L 603.75, 52.2391 L 599.162, 50.4743 L 604.809, 42.8855 L 606.398, 40.7677 L 633.576, 52.4156 L 626.693, 61.7692 L 619.81, 58.769 L 606.927, 76.2409 L 613.81, 79.0646 L 606.398, 89.3007 L 579.043, 77.6528 z "/>
<path style="fill:rgb(0, 0, 255);fill-opacity:0;fill-rule:evenodd;stroke:rgb(47, 0, 255);stroke-width:1;" d="M 926.009, 77.8293 L 926.539, 77.1233 L 948.07, 47.827 L 955.835, 51.1802 L 951.246, 57.3572 L 950.188, 56.8277 L 948.07, 59.8279 L 946.658, 60.7103 L 950.717, 62.4752 L 936.598, 81.5354 L 933.598, 80.1235 L 933.069, 80.8295 L 931.48, 81.1824 L 930.774, 81.1824 L 929.892, 81.1824 L 928.48, 80.8295 L 927.245, 79.9471 L 926.362, 79.0646 L 926.009, 77.8293 z "/>
<path style="fill:rgb(255, 255, 0);fill-opacity:0;fill-rule:evenodd;stroke:rgb(47, 0, 255);stroke-width:1;" d="M 936.598, 81.5354 L 950.717, 62.4752 L 954.776, 64.24 L 954.6, 62.6517 L 956.717, 59.6514 L 955.482, 59.122 L 960.071, 52.9451 L 968.365, 56.4747 L 946.834, 85.771 L 943.481, 84.3591 L 941.716, 84.5356 L 940.834, 84.3591 L 939.951, 84.0062 L 938.363, 83.3002 L 937.128, 82.2413 L 936.598, 81.5354 z "/>
<path style="fill:rgb(255, 0, 0);fill-opacity:0;fill-rule:evenodd;stroke:rgb(47, 0, 255);stroke-width:1;" d="M 915.95, 73.5936 L 916.303, 72.8877 L 930.421, 53.8275 L 934.48, 55.5923 L 934.48, 54.7099 L 936.951, 51.3567 L 935.539, 50.6508 L 940.128, 44.4739 L 948.07, 47.827 L 926.539, 77.1233 L 923.362, 75.8879 L 922.833, 76.5939 L 921.068, 76.5939 L 919.479, 76.4174 L 917.891, 75.7114 L 916.656, 74.829 L 915.95, 73.5936 z "/>
<path style="fill:rgb(0, 255, 0);fill-opacity:0;fill-rule:evenodd;stroke:rgb(47, 0, 255);stroke-width:1;" d="M 905.184, 70.9464 L 928.304, 39.5323 L 935.892, 42.709 L 931.304, 48.8859 L 930.068, 48.533 L 927.951, 51.3567 L 926.715, 52.2391 L 930.421, 53.8275 L 916.303, 72.8877 L 912.949, 71.4758 L 909.773, 73.0642 L 905.184, 70.9464 z "/>
<path style="fill:rgb(0, 0, 255);fill-opacity:0;fill-rule:evenodd;stroke:rgb(47, 0, 255);stroke-width:1;" d="M 49.5919, 61.5928 L 64.24, 41.6501 L 68.1227, 43.2385 L 71.1229, 41.6501 L 74.4761, 43.062 L 54.7099, 70.064 L 51.1802, 68.6521 L 54.7099, 63.7106 L 49.5919, 61.5928 z "/>
<path style="fill:rgb(255, 255, 0);fill-opacity:0;fill-rule:evenodd;stroke:rgb(47, 0, 255);stroke-width:1;" d="M 919.479, 595.103 L 988.661, 500.331 L 1074.78, 536.334 L 1005.6, 631.105 L 919.479, 595.103 z "/>
</svg>