<?xml version="1.0" encoding="iso-8859-1" standalone="no"?>
<!DOCTYPE svg PUBLIC "-//W3C//DTD SVG 1.0//EN" "http://www.w3.org/TR/2001/REC-SVG-20010904/DTD/svg10.dtd">
<svg xmlns="http://www.w3.org/2000/svg" width="1003" height="800">
<path style="fill:rgb(255, 0, 0);fill-opacity:0;fill-rule:evenodd;stroke:rgb(255, 45, 0);stroke-width:1;" d="M 146.997, 641.243 L 147.165, 639.227 L 148.005, 637.379 L 148.509, 636.539 L 149.349, 635.699 L 150.861, 634.355 L 152.877, 633.011 L 155.061, 632.171 L 157.413, 631.667 L 159.933, 631.499 L 162.453, 631.835 L 164.973, 632.339 L 167.157, 633.347 L 169.005, 634.523 L 186.644, 610.332 L 196.052, 608.316 L 242.587, 544.813 L 278.034, 559.765 L 271.819, 568.165 L 283.578, 573.205 L 282.57, 574.549 L 285.93, 576.06 L 292.482, 567.157 L 329.441, 582.78 L 364.049, 535.573 L 402.688, 551.869 L 405.376, 548.173 L 413.104, 537.589 L 361.865, 515.75 L 354.137, 526.333 L 332.129, 517.094 L 344.393, 500.462 L 346.577, 501.302 L 354.473, 490.55 L 351.113, 489.038 L 353.465, 485.678 L 343.385, 481.478 L 369.257, 446.199 L 378.832, 450.231 L 381.016, 447.207 L 391.264, 451.407 L 395.296, 446.031 L 409.408, 452.079 L 405.376, 457.455 L 423.184, 465.015 L 425.031, 465.855 L 428.895, 460.311 L 436.455, 463.503 L 446.031, 450.399 L 513.734, 478.958 L 512.726, 480.302 L 587.148, 511.886 L 589.164, 509.198 L 609.996, 517.934 L 608.148, 520.622 L 641.243, 534.565 L 655.859, 540.781 L 661.403, 533.053 L 671.483, 537.421 L 665.939, 544.981 L 676.354, 549.349 L 629.483, 613.524 L 636.875, 616.716 L 627.131, 630.155 L 641.747, 636.371 L 625.451, 658.547 L 609.156, 680.89 L 594.876, 675.01 L 585.132, 688.45 L 577.404, 685.258 L 530.869, 748.761 L 533.893, 756.993 L 516.254, 781.016 L 518.606, 781.688 L 520.79, 782.696 L 522.47, 784.04 L 523.982, 785.552 L 524.822, 787.4 L 525.493, 789.248 L 525.493, 791.096 L 525.325, 792.104 L 524.654, 793.784 L 523.478, 795.464 L 522.806, 796.304 L 520.118, 798.32 L 519.11, 798.824 L 516.758, 799.496 L 514.406, 800 L 513.062, 800 L 510.71, 799.832 L 507.014, 798.992 L 504.998, 797.984 L 503.99, 797.312 L 502.478, 795.968 L 501.134, 794.288 L 500.462, 792.608 L 500.126, 790.592 L 500.294, 788.744 L 500.798, 786.896 L 501.974, 785.216 L 503.486, 783.704 L 472.071, 770.433 L 469.047, 762.537 L 387.064, 727.929 L 380.176, 737.337 L 378.664, 738.513 L 376.648, 739.353 L 375.64, 739.689 L 373.457, 740.025 L 371.105, 739.857 L 370.097, 739.689 L 368.081, 739.017 L 366.233, 738.009 L 364.721, 736.665 L 364.217, 735.993 L 363.377, 734.481 L 363.041, 733.641 L 363.041, 732.801 L 363.209, 731.121 L 363.545, 730.281 L 364.721, 728.601 L 348.089, 721.546 L 341.873, 730.113 L 346.241, 731.961 L 348.593, 733.977 L 349.601, 734.985 L 351.281, 737.169 L 352.457, 739.689 L 352.793, 740.865 L 350.441, 744.057 L 322.722, 732.297 L 297.858, 721.882 L 300.21, 718.69 L 303.066, 717.85 L 306.258, 717.346 L 310.962, 717.178 L 317.346, 719.866 L 323.73, 711.298 L 306.762, 704.074 L 305.586, 705.754 L 304.746, 706.426 L 303.906, 706.93 L 302.058, 707.77 L 299.874, 708.274 L 298.698, 708.442 L 296.514, 708.274 L 294.33, 707.938 L 292.482, 707.098 L 290.802, 705.922 L 290.13, 705.25 L 288.954, 703.738 L 288.618, 702.898 L 288.45, 702.058 L 288.282, 700.378 L 288.786, 698.698 L 295.842, 688.954 L 214.028, 654.347 L 213.692, 654.683 L 203.276, 656.867 L 172.029, 643.763 L 171.693, 644.603 L 170.517, 646.283 L 169.845, 647.123 L 167.997, 648.467 L 165.981, 649.643 L 164.805, 650.147 L 163.461, 650.483 L 161.277, 650.819 L 158.757, 650.819 L 157.413, 650.651 L 156.237, 650.483 L 153.885, 649.811 L 152.709, 649.307 L 150.861, 648.131 L 150.021, 647.459 L 148.509, 645.779 L 147.501, 644.099 L 146.997, 642.083 L 146.997, 641.243 z "/>
<path style="fill:rgb(0, 255, 0);fill-opacity:0;fill-rule:evenodd;stroke:rgb(255, 45, 0);stroke-width:1;" d="M 717.514, 392.272 L 732.129, 372.281 L 740.361, 375.808 L 751.785, 359.849 L 779.84, 371.777 L 768.417, 387.568 L 806.048, 403.36 L 813.44, 393.28 L 800.336, 387.736 L 806.384, 379.336 L 802.52, 377.824 L 804.368, 375.304 L 808.232, 376.816 L 816.128, 366.065 L 829.063, 371.441 L 836.791, 360.857 L 799.328, 345.065 L 787.736, 361.025 L 762.705, 350.441 L 774.129, 334.817 L 765.729, 331.289 L 780.176, 311.466 L 838.135, 335.657 L 878.118, 352.457 L 818.48, 434.607 L 717.514, 392.272 z "/>
<path style="fill:rgb(0, 0, 255);fill-opacity:0;fill-rule:evenodd;stroke:rgb(255, 45, 0);stroke-width:1;" d="M 271.819, 204.956 L 332.297, 122.302 L 343.049, 126.837 L 345.737, 125.829 L 349.433, 127.341 L 350.105, 129.861 L 364.889, 136.077 L 367.913, 135.069 L 371.441, 136.581 L 371.777, 138.933 L 390.928, 147.165 L 394.12, 146.157 L 397.984, 147.837 L 398.152, 150.189 L 401.68, 151.701 L 390.76, 166.317 L 391.264, 167.997 L 389.416, 170.517 L 387.064, 171.525 L 385.216, 173.877 L 385.552, 175.724 L 383.872, 178.076 L 381.184, 179.42 L 361.361, 206.636 L 361.529, 208.484 L 360.017, 210.5 L 357.497, 211.844 L 355.817, 214.364 L 356.153, 215.876 L 354.473, 218.228 L 352.121, 219.236 L 341.201, 234.355 L 337.841, 233.011 L 336.161, 233.347 L 332.465, 231.835 L 330.617, 229.819 L 311.13, 221.588 L 308.946, 221.924 L 305.25, 220.244 L 303.738, 218.564 L 289.29, 212.516 L 287.106, 212.684 L 283.074, 211.004 L 282.234, 209.324 L 271.819, 204.956 z "/>
<path style="fill:rgb(255, 255, 0);fill-opacity:0;fill-rule:evenodd;stroke:rgb(255, 45, 0);stroke-width:1;" d="M 618.9, 350.777 L 626.291, 340.529 L 634.691, 328.937 L 641.915, 331.961 L 645.275, 327.425 L 643.931, 326.921 L 649.979, 318.69 L 671.987, 327.929 L 681.73, 314.49 L 659.723, 305.25 L 666.275, 296.178 L 667.283, 296.514 L 672.827, 289.122 L 668.627, 287.442 L 667.115, 289.458 L 664.931, 288.45 L 670.139, 281.394 L 679.042, 268.963 L 752.625, 299.874 L 750.609, 302.562 L 737.169, 321.21 L 730.281, 318.354 L 722.05, 329.441 L 721.378, 329.273 L 720.37, 330.785 L 697.186, 321.21 L 687.442, 334.481 L 705.418, 342.041 L 699.37, 350.273 L 698.194, 349.769 L 694.834, 354.305 L 701.722, 357.329 L 697.354, 363.545 L 686.098, 379 L 618.9, 350.777 z "/>
<path style="fill:rgb(255, 0, 0);fill-opacity:0;fill-rule:evenodd;stroke:rgb(255, 45, 0);stroke-width:1;" d="M 816.464, 295.002 L 820.496, 289.458 L 827.047, 280.554 L 833.767, 283.41 L 848.887, 262.579 L 867.031, 270.307 L 859.639, 280.386 L 860.479, 283.074 L 879.294, 290.97 L 883.998, 289.626 L 894.75, 275.682 L 893.238, 272.323 L 880.806, 267.283 L 891.558, 251.995 L 918.942, 263.251 L 921.798, 259.387 L 940.277, 267.115 L 895.758, 328.265 L 816.464, 295.002 z "/>
<path style="fill:rgb(0, 255, 0);fill-opacity:0;fill-rule:evenodd;stroke:rgb(255, 45, 0);stroke-width:1;" d="M 809.744, 152.205 L 812.768, 148.005 L 830.071, 124.318 L 834.439, 118.27 L 891.054, 141.957 L 895.59, 135.573 L 923.646, 147.333 L 913.23, 161.781 L 906.846, 170.685 L 902.142, 168.669 L 891.39, 183.62 L 885.678, 181.1 L 883.998, 183.452 L 809.744, 152.205 z "/>
<path style="fill:rgb(0, 0, 255);fill-opacity:0;fill-rule:evenodd;stroke:rgb(255, 45, 0);stroke-width:1;" d="M 122.806, 419.656 L 131.037, 408.232 L 152.205, 379.168 L 203.612, 400.672 L 214.532, 405.376 L 185.3, 445.863 L 122.806, 419.656 z "/>
<path style="fill:rgb(255, 255, 0);fill-opacity:0;fill-rule:evenodd;stroke:rgb(255, 45, 0);stroke-width:1;" d="M 915.582, 196.724 L 917.262, 194.372 L 934.565, 170.685 L 945.317, 155.733 L 950.861, 158.085 L 951.365, 157.413 L 980.26, 169.677 L 1003.95, 179.588 L 973.709, 221.252 L 915.582, 196.724 z "/>
<path style="fill:rgb(255, 0, 0);fill-opacity:0;fill-rule:evenodd;stroke:rgb(255, 45, 0);stroke-width:1;" d="M 43.0071, 547.333 L 44.3511, 545.485 L 59.1348, 525.325 L 73.4145, 506.006 L 83.8303, 510.374 L 125.493, 528.013 L 127.005, 528.685 L 118.606, 540.277 L 117.094, 539.605 L 103.318, 558.421 L 104.662, 559.093 L 96.5981, 570.181 L 84.6703, 564.973 L 85.6783, 563.965 L 54.5989, 550.693 L 53.7589, 551.869 L 43.0071, 547.333 z M 87.6942, 541.453 L 98.782, 546.157 L 101.974, 541.621 L 91.0542, 536.917 L 87.6942, 541.453 z "/>
<path style="fill:rgb(0, 255, 0);fill-opacity:0;fill-rule:evenodd;stroke:rgb(255, 45, 0);stroke-width:1;" d="M 42.6711, 107.518 L 44.1831, 105.67 L 52.7509, 93.9101 L 61.3188, 97.606 L 65.5187, 91.5582 L 61.1508, 89.7102 L 71.0626, 76.1025 L 100.462, 88.5342 L 92.2302, 99.79 L 95.0861, 100.966 L 96.7661, 98.614 L 101.638, 100.63 L 99.79, 102.982 L 103.822, 104.662 L 112.558, 92.7341 L 141.285, 104.83 L 131.037, 118.606 L 126.333, 116.59 L 121.966, 122.638 L 130.533, 126.333 L 121.966, 138.093 L 120.286, 140.445 L 93.2381, 128.853 L 102.814, 115.75 L 96.4301, 113.062 L 93.2381, 117.262 L 82.8223, 113.062 L 86.0143, 108.694 L 79.6304, 106.006 L 70.0546, 119.11 L 42.6711, 107.518 z "/>
<path style="fill:rgb(0, 0, 255);fill-opacity:0;fill-rule:evenodd;stroke:rgb(255, 45, 0);stroke-width:1;" d="M 225.955, 128.013 L 253.843, 89.8782 L 302.226, 110.206 L 272.323, 151.365 L 253.003, 143.301 L 255.019, 140.277 L 225.955, 128.013 z "/>
<path style="fill:rgb(255, 255, 0);fill-opacity:0;fill-rule:evenodd;stroke:rgb(255, 45, 0);stroke-width:1;" d="M 457.455, 282.906 L 467.535, 269.131 L 484.502, 276.354 L 489.878, 269.131 L 475.094, 262.915 L 473.919, 264.595 L 471.567, 263.587 L 482.486, 248.635 L 537.925, 271.987 L 526.837, 287.106 L 524.822, 286.266 L 525.997, 284.586 L 511.046, 278.37 L 505.838, 285.426 L 522.974, 292.65 L 522.638, 292.986 L 513.062, 306.258 L 457.455, 282.906 z "/>
<path style="fill:rgb(255, 0, 0);fill-opacity:0;fill-rule:evenodd;stroke:rgb(255, 45, 0);stroke-width:1;" d="M 395.296, 254.851 L 422.176, 217.892 L 470.727, 238.219 L 451.575, 264.427 L 454.935, 265.939 L 446.535, 277.53 L 396.304, 256.363 L 395.968, 256.027 L 395.296, 255.355 L 395.296, 254.851 z M 423.688, 246.115 L 441.495, 253.675 L 450.903, 240.907 L 433.095, 233.347 L 423.688, 246.115 z "/>
<path style="fill:rgb(0, 255, 0);fill-opacity:0;fill-rule:evenodd;stroke:rgb(255, 45, 0);stroke-width:1;" d="M 566.485, 328.601 L 574.045, 318.186 L 582.948, 322.05 L 588.996, 313.818 L 592.524, 308.946 L 583.452, 305.082 L 590.34, 295.674 L 643.259, 318.018 L 636.539, 327.257 L 627.635, 323.562 L 617.724, 337.001 L 626.291, 340.529 L 618.9, 350.777 L 566.485, 328.601 z "/>
<path style="fill:rgb(0, 0, 255);fill-opacity:0;fill-rule:evenodd;stroke:rgb(255, 45, 0);stroke-width:1;" d="M 630.323, 153.717 L 646.283, 131.877 L 641.915, 130.029 L 649.307, 119.95 L 650.819, 117.766 L 703.906, 139.941 L 702.394, 142.125 L 695.002, 152.205 L 690.466, 150.357 L 674.507, 172.365 L 630.323, 153.717 z M 646.955, 145.653 L 647.459, 148.509 L 660.563, 154.053 L 665.603, 146.997 L 669.131, 148.509 L 672.323, 144.141 L 653.675, 136.245 L 646.955, 145.653 z "/>
<path style="fill:rgb(255, 255, 0);fill-opacity:0;fill-rule:evenodd;stroke:rgb(255, 45, 0);stroke-width:1;" d="M 798.488, 105.334 L 814.112, 83.6623 L 834.607, 55.6069 L 861.487, 66.8627 L 852.919, 78.4544 L 842.671, 92.5661 L 836.119, 101.47 L 825.199, 116.59 L 822.176, 115.246 L 798.488, 105.334 z "/>
<path style="fill:rgb(255, 0, 0);fill-opacity:0;fill-rule:evenodd;stroke:rgb(255, 45, 0);stroke-width:1;" d="M 836.119, 101.47 L 842.671, 92.5661 L 853.255, 97.1021 L 856.447, 92.5661 L 855.103, 92.0622 L 862.831, 81.3104 L 855.607, 78.2864 L 854.935, 79.2944 L 852.919, 78.4544 L 861.487, 66.8627 L 905.502, 85.3423 L 903.486, 88.0302 L 897.774, 95.9261 L 888.366, 92.0622 L 880.806, 102.31 L 879.294, 101.806 L 878.79, 102.646 L 875.934, 106.51 L 886.686, 111.046 L 880.134, 119.95 L 836.119, 101.47 z "/>
<path style="fill:rgb(0, 255, 0);fill-opacity:0;fill-rule:evenodd;stroke:rgb(255, 45, 0);stroke-width:1;" d="M 582.444, 195.38 L 583.788, 193.7 L 590.508, 184.46 L 592.356, 185.3 L 591.348, 186.812 L 595.884, 188.828 L 601.932, 187.484 L 611.004, 174.885 L 607.308, 173.373 L 606.3, 174.549 L 599.412, 171.693 L 607.308, 160.941 L 651.659, 179.588 L 643.763, 190.34 L 636.875, 187.484 L 637.547, 186.476 L 633.851, 184.964 L 625.283, 196.724 L 626.963, 201.428 L 633.683, 204.284 L 626.627, 213.86 L 582.444, 195.38 z "/>
<path style="fill:rgb(0, 0, 255);fill-opacity:0;fill-rule:evenodd;stroke:rgb(255, 45, 0);stroke-width:1;" d="M 36.9593, 190.676 L 60.3108, 158.757 L 57.2869, 157.581 L 63.6707, 148.677 L 97.4381, 162.957 L 96.4301, 164.301 L 91.5582, 171.021 L 88.5342, 169.677 L 64.6787, 202.436 L 36.9593, 190.676 z "/>
<path style="fill:rgb(255, 255, 0);fill-opacity:0;fill-rule:evenodd;stroke:rgb(255, 45, 0);stroke-width:1;" d="M 184.796, 389.92 L 190.844, 381.352 L 195.716, 383.536 L 201.428, 375.808 L 199.244, 374.801 L 200.42, 373.121 L 202.604, 374.129 L 209.324, 364.721 L 202.772, 362.033 L 211.172, 350.609 L 244.267, 364.553 L 214.532, 405.376 L 203.612, 400.672 L 205.292, 398.488 L 184.796, 389.92 z "/>
<path style="fill:rgb(255, 0, 0);fill-opacity:0;fill-rule:evenodd;stroke:rgb(255, 45, 0);stroke-width:1;" d="M 513.062, 306.258 L 522.638, 292.986 L 526.165, 294.33 L 529.021, 293.994 L 543.301, 274.339 L 564.637, 283.242 L 563.797, 284.418 L 571.693, 287.61 L 557.749, 306.594 L 559.429, 308.778 L 562.285, 309.954 L 552.877, 322.89 L 513.062, 306.258 z "/>
<path style="fill:rgb(0, 255, 0);fill-opacity:0;fill-rule:evenodd;stroke:rgb(255, 45, 0);stroke-width:1;" d="M 74.5905, 58.2948 L 83.3263, 46.5351 L 87.0223, 48.215 L 94.7501, 37.4633 L 86.8543, 34.1033 L 90.7182, 28.8954 L 95.4221, 22.5115 L 135.237, 39.4792 L 126.837, 50.903 L 118.606, 47.3751 L 109.366, 60.1428 L 117.598, 63.5027 L 110.374, 73.4145 L 74.5905, 58.2948 z "/>
<path style="fill:rgb(0, 0, 255);fill-opacity:0;fill-rule:evenodd;stroke:rgb(255, 45, 0);stroke-width:1;" d="M 715.498, 112.558 L 718.522, 108.358 L 724.402, 100.126 L 732.801, 103.654 L 731.625, 105.166 L 735.657, 106.678 L 744.897, 93.9101 L 732.801, 88.8702 L 733.137, 88.3662 L 740.529, 78.1184 L 780.68, 94.9181 L 772.617, 106.006 L 761.529, 101.134 L 753.129, 112.558 L 764.385, 117.262 L 758.673, 125.157 L 755.649, 129.357 L 715.498, 112.558 z "/>
<path style="fill:rgb(255, 255, 0);fill-opacity:0;fill-rule:evenodd;stroke:rgb(255, 45, 0);stroke-width:1;" d="M 618.732, 288.618 L 629.483, 273.499 L 633.683, 275.346 L 638.891, 268.123 L 630.491, 264.595 L 638.387, 253.843 L 639.395, 252.331 L 679.042, 268.963 L 670.139, 281.394 L 661.571, 277.866 L 656.363, 284.754 L 660.059, 286.266 L 649.139, 301.386 L 618.732, 288.618 z "/>
<path style="fill:rgb(255, 0, 0);fill-opacity:0;fill-rule:evenodd;stroke:rgb(255, 45, 0);stroke-width:1;" d="M 391.432, 74.7585 L 404.872, 56.2789 L 408.232, 57.6228 L 409.744, 55.4389 L 413.608, 57.1189 L 456.111, 75.0945 L 441.159, 95.5901 L 397.816, 77.4465 L 391.432, 74.7585 z "/>
<path style="fill:rgb(0, 255, 0);fill-opacity:0;fill-rule:evenodd;stroke:rgb(255, 45, 0);stroke-width:1;" d="M 892.566, 247.123 L 897.606, 240.235 L 906.006, 243.763 L 909.03, 244.099 L 911.718, 245.275 L 913.398, 247.459 L 916.59, 248.971 L 917.934, 246.955 L 895.254, 237.379 L 904.662, 224.444 L 955.733, 245.779 L 955.397, 246.451 L 940.277, 267.115 L 921.798, 259.387 L 892.566, 247.123 z M 923.142, 250.987 L 936.917, 256.699 L 938.429, 254.515 L 924.654, 248.971 L 923.142, 250.987 z "/>
<path style="fill:rgb(0, 0, 255);fill-opacity:0;fill-rule:evenodd;stroke:rgb(255, 45, 0);stroke-width:1;" d="M 154.557, 373.961 L 159.429, 367.073 L 163.797, 368.921 L 166.821, 364.721 L 169.173, 365.729 L 171.357, 362.873 L 169.005, 361.865 L 175.22, 353.297 L 169.173, 350.777 L 179.084, 337.169 L 211.172, 350.609 L 202.772, 362.033 L 201.26, 364.217 L 194.876, 361.529 L 189.332, 369.257 L 187.82, 368.753 L 185.972, 371.273 L 187.484, 371.945 L 183.116, 377.824 L 187.652, 379.84 L 183.116, 386.056 L 154.557, 373.961 z "/>
<path style="fill:rgb(255, 255, 0);fill-opacity:0;fill-rule:evenodd;stroke:rgb(255, 45, 0);stroke-width:1;" d="M 214.028, 319.698 L 228.475, 300.042 L 237.043, 303.738 L 234.859, 306.594 L 249.307, 312.642 L 250.147, 311.298 L 252.667, 312.474 L 251.659, 313.65 L 259.555, 317.01 L 262.243, 313.314 L 277.53, 319.866 L 262.579, 340.193 L 214.028, 319.698 z "/>
<path style="fill:rgb(255, 0, 0);fill-opacity:0;fill-rule:evenodd;stroke:rgb(255, 45, 0);stroke-width:1;" d="M 93.0701, 407.056 L 93.9101, 405.88 L 101.302, 395.8 L 106.006, 397.648 L 115.582, 384.544 L 112.054, 383.2 L 119.95, 372.449 L 146.997, 383.872 L 139.269, 394.624 L 135.909, 393.112 L 126.333, 406.384 L 131.037, 408.232 L 122.806, 419.656 L 93.0701, 407.056 z "/>
<path style="fill:rgb(0, 255, 0);fill-opacity:0;fill-rule:evenodd;stroke:rgb(255, 45, 0);stroke-width:1;" d="M 761.361, 69.8866 L 777.824, 47.2071 L 773.625, 45.3591 L 773.961, 44.8551 L 782.192, 33.4313 L 813.608, 46.7031 L 803.36, 60.6468 L 802.184, 60.1428 L 803.528, 58.1268 L 800, 56.6149 L 783.536, 79.2944 L 761.361, 69.8866 z "/>
<path style="fill:rgb(0, 0, 255);fill-opacity:0;fill-rule:evenodd;stroke:rgb(255, 45, 0);stroke-width:1;" d="M 267.115, 249.475 L 274.507, 239.227 L 278.37, 239.395 L 287.442, 243.259 L 289.794, 242.923 L 291.978, 243.259 L 293.322, 243.931 L 294.33, 244.771 L 295.002, 246.619 L 322.722, 258.211 L 314.49, 269.467 L 314.826, 271.315 L 313.986, 273.163 L 312.306, 274.675 L 311.634, 275.01 L 310.122, 275.346 L 307.938, 278.37 L 297.018, 273.835 L 287.61, 269.803 L 290.634, 265.603 L 275.01, 259.051 L 278.538, 254.347 L 267.115, 249.475 z "/>
<path style="fill:rgb(255, 255, 0);fill-opacity:0;fill-rule:evenodd;stroke:rgb(255, 45, 0);stroke-width:1;" d="M 626.627, 213.86 L 633.683, 204.284 L 638.051, 206.132 L 656.027, 181.436 L 675.682, 189.668 L 657.371, 214.7 L 661.739, 216.548 L 656.867, 223.268 L 654.851, 225.787 L 626.627, 213.86 z "/>
<path style="fill:rgb(255, 0, 0);fill-opacity:0;fill-rule:evenodd;stroke:rgb(255, 45, 0);stroke-width:1;" d="M 734.145, 58.4628 L 748.593, 38.6392 L 750.105, 34.9433 L 747.081, 33.5993 L 752.961, 25.5355 L 755.313, 22.1756 L 782.192, 33.4313 L 773.961, 44.8551 L 769.425, 43.0071 L 752.457, 66.1907 L 734.145, 58.4628 z "/>
<path style="fill:rgb(0, 255, 0);fill-opacity:0;fill-rule:evenodd;stroke:rgb(255, 45, 0);stroke-width:1;" d="M 343.217, 94.7501 L 353.129, 80.9744 L 355.649, 82.1504 L 363.377, 71.5666 L 363.881, 69.7186 L 365.393, 67.5346 L 367.577, 65.8547 L 372.281, 59.3028 L 389.92, 66.6947 L 385.048, 73.2465 L 384.376, 75.4305 L 382.696, 77.6144 L 380.848, 78.9584 L 373.121, 89.5422 L 375.64, 90.5502 L 365.729, 104.158 L 360.353, 101.974 L 360.017, 100.462 L 350.609, 96.4301 L 348.425, 96.9341 L 343.217, 94.7501 z "/>
<path style="fill:rgb(0, 0, 255);fill-opacity:0;fill-rule:evenodd;stroke:rgb(255, 45, 0);stroke-width:1;" d="M 98.446, 495.59 L 108.526, 481.814 L 104.494, 479.966 L 112.222, 469.551 L 145.317, 483.662 L 137.589, 494.246 L 134.061, 492.734 L 123.982, 506.342 L 98.446, 495.59 z "/>
<path style="fill:rgb(255, 255, 0);fill-opacity:0;fill-rule:evenodd;stroke:rgb(255, 45, 0);stroke-width:1;" d="M 321.042, 85.3423 L 330.953, 71.7346 L 333.473, 72.7425 L 341.201, 62.1588 L 341.705, 60.3108 L 343.385, 58.1268 L 345.233, 56.4469 L 350.105, 49.895 L 367.745, 57.2869 L 362.873, 63.8387 L 362.201, 66.1907 L 360.521, 68.3746 L 358.673, 69.5506 L 350.945, 80.1344 L 353.129, 80.9744 L 343.217, 94.7501 L 338.177, 92.5661 L 337.841, 91.0542 L 328.433, 87.1903 L 326.249, 87.5262 L 321.042, 85.3423 z "/>
<path style="fill:rgb(255, 0, 0);fill-opacity:0;fill-rule:evenodd;stroke:rgb(255, 45, 0);stroke-width:1;" d="M 299.37, 76.2705 L 300.378, 74.7585 L 309.282, 62.4948 L 311.802, 63.6707 L 319.53, 53.0869 L 320.034, 51.239 L 321.546, 49.055 L 323.562, 47.3751 L 328.433, 40.8232 L 346.073, 48.215 L 341.201, 54.7669 L 340.529, 56.9509 L 338.849, 59.1348 L 337.001, 60.4788 L 329.273, 71.0626 L 330.953, 71.7346 L 321.042, 85.3423 L 316.506, 83.4943 L 316.17, 81.9824 L 306.762, 77.9504 L 304.578, 78.4544 L 299.37, 76.2705 z "/>
<path style="fill:rgb(0, 255, 0);fill-opacity:0;fill-rule:evenodd;stroke:rgb(255, 45, 0);stroke-width:1;" d="M 686.098, 379 L 697.354, 363.545 L 702.394, 365.561 L 715.498, 347.585 L 731.457, 354.305 L 718.354, 372.281 L 722.554, 373.961 L 711.298, 389.584 L 686.098, 379 z "/>
<path style="fill:rgb(0, 0, 255);fill-opacity:0;fill-rule:evenodd;stroke:rgb(255, 45, 0);stroke-width:1;" d="M 552.709, 252.163 L 555.733, 248.131 L 571.861, 225.955 L 598.572, 237.211 L 582.276, 259.555 L 573.373, 255.859 L 570.517, 259.723 L 552.709, 252.163 z "/>
<path style="fill:rgb(255, 255, 0);fill-opacity:0;fill-rule:evenodd;stroke:rgb(255, 45, 0);stroke-width:1;" d="M 897.438, 183.452 L 906.846, 170.685 L 913.23, 161.781 L 916.59, 163.125 L 925.157, 151.533 L 939.269, 157.581 L 930.869, 169.173 L 934.565, 170.685 L 917.262, 194.372 L 910.71, 191.684 L 912.054, 189.668 L 897.438, 183.452 z "/>
<path style="fill:rgb(255, 0, 0);fill-opacity:0;fill-rule:evenodd;stroke:rgb(255, 45, 0);stroke-width:1;" d="M 793.112, 74.7585 L 803.36, 60.6468 L 813.608, 46.7031 L 834.607, 55.6069 L 814.112, 83.6623 L 793.112, 74.7585 z "/>
<path style="fill:rgb(0, 255, 0);fill-opacity:0;fill-rule:evenodd;stroke:rgb(255, 45, 0);stroke-width:1;" d="M 196.388, 312.138 L 223.268, 275.346 L 230.995, 264.763 L 243.259, 269.971 L 233.683, 282.906 L 229.483, 281.226 L 227.299, 284.25 L 229.147, 284.922 L 228.139, 286.266 L 230.827, 287.274 L 215.708, 307.938 L 215.876, 309.45 L 209.828, 317.85 L 196.388, 312.138 z "/>
<path style="fill:rgb(0, 0, 255);fill-opacity:0;fill-rule:evenodd;stroke:rgb(255, 45, 0);stroke-width:1;" d="M 415.12, 37.1273 L 419.152, 31.5834 L 425.871, 22.3436 L 478.454, 44.5191 L 471.231, 54.4309 L 428.727, 36.4553 L 425.199, 41.4952 L 415.12, 37.1273 z "/>
<path style="fill:rgb(255, 255, 0);fill-opacity:0;fill-rule:evenodd;stroke:rgb(255, 45, 0);stroke-width:1;" d="M 225.619, 297.858 L 233.515, 286.938 L 254.179, 295.674 L 285.594, 308.946 L 277.53, 319.866 L 262.243, 313.314 L 225.619, 297.858 z "/>
<path style="fill:rgb(255, 0, 0);fill-opacity:0;fill-rule:evenodd;stroke:rgb(255, 45, 0);stroke-width:1;" d="M 445.191, 217.892 L 450.567, 210.5 L 450.063, 208.652 L 451.743, 206.3 L 454.095, 205.628 L 463.839, 192.356 L 462.495, 190.004 L 469.215, 180.764 L 487.862, 188.492 L 480.974, 197.9 L 477.95, 198.236 L 468.375, 211.508 L 468.711, 213.356 L 467.031, 215.876 L 464.679, 216.548 L 459.303, 223.772 L 445.191, 217.892 z "/>
<path style="fill:rgb(0, 255, 0);fill-opacity:0;fill-rule:evenodd;stroke:rgb(255, 45, 0);stroke-width:1;" d="M 463.839, 225.787 L 469.215, 218.396 L 468.375, 216.38 L 470.055, 214.028 L 472.911, 213.356 L 482.486, 200.084 L 480.974, 197.9 L 487.862, 188.492 L 506.342, 196.388 L 499.622, 205.628 L 496.262, 206.3 L 487.022, 218.9 L 488.03, 219.404 L 485.846, 222.428 L 482.822, 224.444 L 478.286, 230.827 L 475.934, 229.819 L 475.43, 230.659 L 463.839, 225.787 z "/>
<path style="fill:rgb(0, 0, 255);fill-opacity:0;fill-rule:evenodd;stroke:rgb(255, 45, 0);stroke-width:1;" d="M 425.535, 213.02 L 453.759, 174.213 L 469.215, 180.764 L 462.495, 190.004 L 460.311, 190.172 L 439.479, 218.9 L 425.535, 213.02 z "/>
<path style="fill:rgb(255, 255, 0);fill-opacity:0;fill-rule:evenodd;stroke:rgb(255, 45, 0);stroke-width:1;" d="M 472.407, 149.181 L 479.966, 138.765 L 521.966, 156.405 L 532.381, 160.773 L 526.165, 169.341 L 524.822, 171.021 L 472.407, 149.181 z "/>
<path style="fill:rgb(255, 0, 0);fill-opacity:0;fill-rule:evenodd;stroke:rgb(255, 45, 0);stroke-width:1;" d="M 494.75, 118.438 L 502.142, 108.19 L 544.141, 125.829 L 554.557, 130.197 L 546.997, 140.445 L 544.645, 139.437 L 494.75, 118.438 z "/>
<path style="fill:rgb(0, 255, 0);fill-opacity:0;fill-rule:evenodd;stroke:rgb(255, 45, 0);stroke-width:1;" d="M 552.877, 322.89 L 562.285, 309.954 L 581.268, 283.914 L 594.876, 289.626 L 590.34, 295.674 L 583.452, 305.082 L 574.045, 318.186 L 566.485, 328.601 L 552.877, 322.89 z "/>
<path style="fill:rgb(0, 0, 255);fill-opacity:0;fill-rule:evenodd;stroke:rgb(255, 45, 0);stroke-width:1;" d="M 524.15, 77.9504 L 531.709, 67.7026 L 583.116, 89.3742 L 575.724, 99.622 L 524.15, 77.9504 z "/>
<path style="fill:rgb(255, 255, 0);fill-opacity:0;fill-rule:evenodd;stroke:rgb(255, 45, 0);stroke-width:1;" d="M 167.493, 90.5502 L 170.685, 86.3503 L 186.812, 64.1747 L 206.804, 72.5745 L 191.18, 93.9101 L 187.484, 98.95 L 167.493, 90.5502 z "/>
<path style="fill:rgb(255, 0, 0);fill-opacity:0;fill-rule:evenodd;stroke:rgb(255, 45, 0);stroke-width:1;" d="M 242.923, 277.866 L 250.483, 267.787 L 289.458, 284.25 L 300.21, 288.786 L 292.818, 299.034 L 242.923, 277.866 z "/>
<path style="fill:rgb(0, 255, 0);fill-opacity:0;fill-rule:evenodd;stroke:rgb(255, 45, 0);stroke-width:1;" d="M 517.094, 87.6942 L 524.15, 77.9504 L 575.724, 99.622 L 568.669, 109.366 L 559.093, 105.334 L 517.094, 87.6942 z "/>
<path style="fill:rgb(0, 0, 255);fill-opacity:0;fill-rule:evenodd;stroke:rgb(255, 45, 0);stroke-width:1;" d="M 932.381, 64.1747 L 939.101, 54.9349 L 942.125, 54.0949 L 953.717, 38.3032 L 955.733, 36.7913 L 961.445, 29.0634 L 973.205, 33.9353 L 967.661, 41.8312 L 966.989, 43.8471 L 955.397, 59.8068 L 955.565, 61.9908 L 949.013, 71.2306 L 932.381, 64.1747 z "/>
<path style="fill:rgb(255, 255, 0);fill-opacity:0;fill-rule:evenodd;stroke:rgb(255, 45, 0);stroke-width:1;" d="M 238.219, 260.899 L 244.099, 252.835 L 260.563, 259.891 L 258.379, 262.915 L 265.939, 266.107 L 267.955, 263.251 L 294.33, 274.507 L 297.018, 273.835 L 307.938, 278.37 L 300.21, 288.786 L 289.458, 284.25 L 288.45, 282.234 L 262.243, 271.147 L 263.083, 269.971 L 257.203, 267.451 L 256.363, 268.459 L 238.219, 260.899 z "/>
<path style="fill:rgb(255, 0, 0);fill-opacity:0;fill-rule:evenodd;stroke:rgb(255, 45, 0);stroke-width:1;" d="M 487.526, 128.349 L 494.75, 118.438 L 544.645, 139.437 L 537.421, 149.349 L 529.525, 145.989 L 487.526, 128.349 z "/>
<path style="fill:rgb(0, 255, 0);fill-opacity:0;fill-rule:evenodd;stroke:rgb(255, 45, 0);stroke-width:1;" d="M 234.523, 285.594 L 240.739, 277.026 L 242.923, 277.866 L 292.818, 299.034 L 285.594, 308.946 L 254.179, 295.674 L 255.187, 294.33 L 234.523, 285.594 z "/>
<path style="fill:rgb(0, 0, 255);fill-opacity:0;fill-rule:evenodd;stroke:rgb(255, 45, 0);stroke-width:1;" d="M 378.664, 96.4301 L 386.056, 86.3503 L 390.088, 88.0302 L 433.431, 106.342 L 426.039, 116.422 L 409.912, 109.702 L 378.664, 96.4301 z "/>
<path style="fill:rgb(255, 255, 0);fill-opacity:0;fill-rule:evenodd;stroke:rgb(255, 45, 0);stroke-width:1;" d="M 686.434, 163.965 L 695.002, 152.205 L 702.394, 142.125 L 721.882, 150.189 L 705.922, 172.197 L 702.226, 170.517 L 698.53, 175.556 L 687.778, 171.021 L 691.474, 165.981 L 686.434, 163.965 z "/>
<path style="fill:rgb(255, 0, 0);fill-opacity:0;fill-rule:evenodd;stroke:rgb(255, 45, 0);stroke-width:1;" d="M 594.708, 62.3268 L 612.012, 50.735 L 615.204, 53.7589 L 618.228, 49.727 L 617.556, 49.391 L 625.955, 37.7992 L 625.115, 35.7833 L 630.155, 28.8954 L 641.747, 33.7673 L 636.875, 40.3192 L 616.548, 68.2066 L 615.372, 69.8866 L 613.356, 70.2226 L 594.708, 62.3268 z "/>
<path style="fill:rgb(0, 255, 0);fill-opacity:0;fill-rule:evenodd;stroke:rgb(255, 45, 0);stroke-width:1;" d="M 390.088, 88.0302 L 397.816, 77.4465 L 441.159, 95.5901 L 433.431, 106.342 L 390.088, 88.0302 z "/>
<path style="fill:rgb(0, 0, 255);fill-opacity:0;fill-rule:evenodd;stroke:rgb(255, 45, 0);stroke-width:1;" d="M 549.853, 42.6711 L 556.909, 32.9273 L 592.02, 47.543 L 604.284, 52.7509 L 592.692, 60.8148 L 549.853, 42.6711 z "/>
<path style="fill:rgb(255, 255, 0);fill-opacity:0;fill-rule:evenodd;stroke:rgb(255, 45, 0);stroke-width:1;" d="M 413.608, 57.1189 L 421.168, 46.8711 L 463.671, 64.6787 L 456.111, 75.0945 L 413.608, 57.1189 z "/>
<path style="fill:rgb(255, 0, 0);fill-opacity:0;fill-rule:evenodd;stroke:rgb(255, 45, 0);stroke-width:1;" d="M 421.168, 46.8711 L 425.199, 41.4952 L 428.727, 36.4553 L 471.231, 54.4309 L 463.671, 64.6787 L 421.168, 46.8711 z "/>
<path style="fill:rgb(0, 255, 0);fill-opacity:0;fill-rule:evenodd;stroke:rgb(255, 45, 0);stroke-width:1;" d="M 509.534, 98.278 L 517.094, 87.6942 L 559.093, 105.334 L 551.365, 115.75 L 509.534, 98.278 z "/>
<path style="fill:rgb(0, 0, 255);fill-opacity:0;fill-rule:evenodd;stroke:rgb(255, 45, 0);stroke-width:1;" d="M 479.966, 138.765 L 487.526, 128.349 L 529.525, 145.989 L 521.966, 156.405 L 479.966, 138.765 z "/>
<path style="fill:rgb(255, 255, 0);fill-opacity:0;fill-rule:evenodd;stroke:rgb(255, 45, 0);stroke-width:1;" d="M 556.909, 32.9273 L 564.469, 22.5115 L 599.58, 37.2953 L 598.404, 38.9752 L 600.588, 39.9832 L 601.26, 38.9752 L 607.308, 41.4952 L 601.092, 50.063 L 595.044, 47.543 L 595.548, 46.7031 L 593.364, 45.6951 L 592.02, 47.543 L 556.909, 32.9273 z "/>
<path style="fill:rgb(255, 0, 0);fill-opacity:0;fill-rule:evenodd;stroke:rgb(255, 45, 0);stroke-width:1;" d="M 80.4704, 400.168 L 96.4301, 378.328 L 100.294, 379.84 L 107.182, 370.433 L 111.046, 372.113 L 115.414, 366.065 L 121.126, 368.585 L 101.302, 395.8 L 93.9101, 405.88 L 80.4704, 400.168 z "/>
<path style="fill:rgb(0, 255, 0);fill-opacity:0;fill-rule:evenodd;stroke:rgb(255, 45, 0);stroke-width:1;" d="M 502.142, 108.19 L 509.534, 98.278 L 551.365, 115.75 L 544.141, 125.829 L 502.142, 108.19 z "/>
<path style="fill:rgb(0, 0, 255);fill-opacity:0;fill-rule:evenodd;stroke:rgb(255, 45, 0);stroke-width:1;" d="M 669.467, 93.0701 L 672.491, 88.7022 L 687.442, 68.2066 L 704.41, 75.4305 L 703.906, 75.9345 L 689.29, 96.0941 L 686.266, 100.126 L 669.467, 93.0701 z "/>
<path style="fill:rgb(255, 255, 0);fill-opacity:0;fill-rule:evenodd;stroke:rgb(255, 45, 0);stroke-width:1;" d="M 83.8303, 510.374 L 91.0542, 500.462 L 123.142, 513.902 L 132.885, 518.102 L 125.493, 528.013 L 83.8303, 510.374 z "/>
<path style="fill:rgb(255, 0, 0);fill-opacity:0;fill-rule:evenodd;stroke:rgb(255, 45, 0);stroke-width:1;" d="M 108.19, 76.4385 L 110.374, 73.4145 L 117.598, 63.5027 L 126.837, 50.903 L 135.237, 39.4792 L 148.509, 45.0231 L 146.829, 47.2071 L 139.941, 56.6149 L 136.581, 55.2709 L 122.302, 74.7585 L 122.47, 77.2785 L 120.958, 79.6304 L 118.102, 80.6384 L 108.19, 76.4385 z "/>
<path style="fill:rgb(0, 255, 0);fill-opacity:0;fill-rule:evenodd;stroke:rgb(255, 45, 0);stroke-width:1;" d="M 389.08, 53.0869 L 395.632, 44.0151 L 397.984, 42.5031 L 395.296, 41.4952 L 402.352, 31.7514 L 404.704, 31.4154 L 406.888, 28.3914 L 406.384, 26.2075 L 413.104, 16.9677 L 425.871, 22.3436 L 419.152, 31.5834 L 415.96, 32.2554 L 413.944, 35.2793 L 415.12, 37.1273 L 408.064, 46.8711 L 405.544, 45.8631 L 405.376, 48.047 L 398.656, 57.2869 L 389.08, 53.0869 z "/>
<path style="fill:rgb(0, 0, 255);fill-opacity:0;fill-rule:evenodd;stroke:rgb(255, 45, 0);stroke-width:1;" d="M 53.5909, 389.08 L 75.2625, 359.177 L 83.1583, 362.537 L 78.7904, 368.585 L 85.0063, 371.105 L 67.7026, 394.96 L 53.5909, 389.08 z "/>
<path style="fill:rgb(255, 255, 0);fill-opacity:0;fill-rule:evenodd;stroke:rgb(255, 45, 0);stroke-width:1;" d="M 572.365, 273.163 L 582.276, 259.555 L 598.572, 237.211 L 609.996, 241.915 L 595.548, 262.075 L 594.54, 263.251 L 590.34, 264.091 L 581.1, 276.858 L 572.365, 273.163 z "/>
<path style="fill:rgb(255, 0, 0);fill-opacity:0;fill-rule:evenodd;stroke:rgb(255, 45, 0);stroke-width:1;" d="M 618.06, 138.429 L 635.699, 114.238 L 649.307, 119.95 L 641.915, 130.029 L 627.299, 150.189 L 622.092, 148.005 L 626.459, 141.957 L 618.06, 138.429 z "/>
<path style="fill:rgb(0, 255, 0);fill-opacity:0;fill-rule:evenodd;stroke:rgb(255, 45, 0);stroke-width:1;" d="M 194.708, 249.811 L 201.764, 240.235 L 198.404, 238.723 L 199.412, 237.547 L 214.196, 217.22 L 215.036, 216.044 L 226.963, 221.084 L 204.452, 251.827 L 203.276, 253.507 L 194.708, 249.811 z "/>
<path style="fill:rgb(0, 0, 255);fill-opacity:0;fill-rule:evenodd;stroke:rgb(255, 45, 0);stroke-width:1;" d="M 67.7026, 394.96 L 85.0063, 371.105 L 90.2142, 373.289 L 94.5821, 367.409 L 101.974, 370.433 L 96.4301, 378.328 L 80.4704, 400.168 L 67.7026, 394.96 z "/>
<path style="fill:rgb(255, 255, 0);fill-opacity:0;fill-rule:evenodd;stroke:rgb(255, 45, 0);stroke-width:1;" d="M 101.134, 216.044 L 102.31, 214.364 L 101.47, 213.188 L 103.822, 209.996 L 105.502, 209.996 L 108.862, 205.292 L 111.046, 206.3 L 114.574, 201.428 L 109.534, 199.244 L 125.997, 176.9 L 136.245, 181.268 L 135.909, 181.772 L 114.574, 210.836 L 108.526, 219.236 L 101.134, 216.044 z "/>
<path style="fill:rgb(255, 0, 0);fill-opacity:0;fill-rule:evenodd;stroke:rgb(255, 45, 0);stroke-width:1;" d="M 222.596, 248.971 L 239.227, 226.291 L 244.771, 228.475 L 246.115, 226.627 L 251.995, 229.147 L 238.387, 248.971 L 229.315, 262.243 L 222.764, 259.555 L 228.475, 251.491 L 222.596, 248.971 z "/>
<path style="fill:rgb(0, 255, 0);fill-opacity:0;fill-rule:evenodd;stroke:rgb(255, 45, 0);stroke-width:1;" d="M 204.452, 251.827 L 226.963, 221.084 L 239.227, 226.291 L 222.596, 248.971 L 216.716, 246.619 L 210.836, 254.515 L 204.452, 251.827 z "/>
<path style="fill:rgb(0, 0, 255);fill-opacity:0;fill-rule:evenodd;stroke:rgb(255, 45, 0);stroke-width:1;" d="M 604.452, 132.717 L 607.308, 129.021 L 622.092, 108.526 L 635.699, 114.238 L 618.06, 138.429 L 604.452, 132.717 z "/>
<path style="fill:rgb(255, 255, 0);fill-opacity:0;fill-rule:evenodd;stroke:rgb(255, 45, 0);stroke-width:1;" d="M 174.549, 160.437 L 193.364, 134.733 L 196.388, 130.533 L 202.268, 130.197 L 208.148, 132.717 L 204.62, 137.589 L 184.796, 164.637 L 174.549, 160.437 z "/>
<path style="fill:rgb(255, 0, 0);fill-opacity:0;fill-rule:evenodd;stroke:rgb(255, 45, 0);stroke-width:1;" d="M 805.376, 285.594 L 822.176, 262.411 L 835.951, 268.291 L 827.047, 280.554 L 820.496, 289.458 L 815.288, 287.274 L 813.44, 289.794 L 810.08, 290.802 L 806.552, 289.29 L 805.376, 285.594 z "/>
<path style="fill:rgb(0, 255, 0);fill-opacity:0;fill-rule:evenodd;stroke:rgb(255, 45, 0);stroke-width:1;" d="M 188.492, 305.586 L 204.956, 283.074 L 207.98, 284.418 L 209.996, 281.73 L 208.82, 281.226 L 215.54, 272.155 L 223.268, 275.346 L 196.388, 312.138 L 193.196, 310.794 L 192.02, 307.098 L 188.492, 305.586 z "/>
<path style="fill:rgb(0, 0, 255);fill-opacity:0;fill-rule:evenodd;stroke:rgb(255, 45, 0);stroke-width:1;" d="M 728.265, 333.305 L 737.169, 321.21 L 750.609, 302.562 L 761.865, 307.266 L 744.393, 331.289 L 742.545, 333.809 L 736.497, 331.289 L 733.473, 335.489 L 728.265, 333.305 z "/>
<path style="fill:rgb(255, 255, 0);fill-opacity:0;fill-rule:evenodd;stroke:rgb(255, 45, 0);stroke-width:1;" d="M 758.673, 125.157 L 764.385, 117.262 L 772.617, 106.006 L 780.68, 94.9181 L 780.848, 94.7501 L 789.92, 98.446 L 782.192, 109.03 L 784.208, 109.702 L 769.593, 129.693 L 758.673, 125.157 z "/>
<path style="fill:rgb(255, 0, 0);fill-opacity:0;fill-rule:evenodd;stroke:rgb(255, 45, 0);stroke-width:1;" d="M 298.026, 143.301 L 317.514, 116.758 L 329.105, 121.63 L 309.618, 148.173 L 298.026, 143.301 z "/>
<path style="fill:rgb(0, 255, 0);fill-opacity:0;fill-rule:evenodd;stroke:rgb(255, 45, 0);stroke-width:1;" d="M 101.302, 268.627 L 117.598, 246.283 L 121.294, 241.411 L 132.381, 246.115 L 112.39, 273.331 L 101.302, 268.627 z "/>
<path style="fill:rgb(0, 0, 255);fill-opacity:0;fill-rule:evenodd;stroke:rgb(255, 45, 0);stroke-width:1;" d="M 744.393, 331.289 L 761.865, 307.266 L 772.617, 311.802 L 750.273, 342.545 L 744.393, 340.025 L 748.089, 334.817 L 747.417, 332.633 L 744.393, 331.289 z "/>
<path style="fill:rgb(255, 255, 0);fill-opacity:0;fill-rule:evenodd;stroke:rgb(255, 45, 0);stroke-width:1;" d="M 723.226, 251.155 L 744.225, 222.26 L 750.441, 224.78 L 749.097, 226.459 L 753.465, 228.307 L 750.609, 232.339 L 733.641, 255.523 L 723.226, 251.155 z "/>
<path style="fill:rgb(255, 0, 0);fill-opacity:0;fill-rule:evenodd;stroke:rgb(255, 45, 0);stroke-width:1;" d="M 712.642, 246.619 L 731.457, 220.916 L 735.825, 222.764 L 738.009, 219.572 L 744.225, 222.26 L 723.226, 251.155 L 712.642, 246.619 z "/>
<path style="fill:rgb(0, 255, 0);fill-opacity:0;fill-rule:evenodd;stroke:rgb(255, 45, 0);stroke-width:1;" d="M 744.225, 260.059 L 761.193, 236.875 L 773.457, 242.083 L 756.657, 265.099 L 744.225, 260.059 z "/>
<path style="fill:rgb(0, 0, 255);fill-opacity:0;fill-rule:evenodd;stroke:rgb(255, 45, 0);stroke-width:1;" d="M 768.753, 270.307 L 785.552, 247.123 L 797.984, 252.331 L 781.184, 275.514 L 768.753, 270.307 z "/>
<path style="fill:rgb(255, 255, 0);fill-opacity:0;fill-rule:evenodd;stroke:rgb(255, 45, 0);stroke-width:1;" d="M 781.184, 275.514 L 797.984, 252.331 L 810.248, 257.371 L 793.448, 280.554 L 781.184, 275.514 z "/>
<path style="fill:rgb(255, 0, 0);fill-opacity:0;fill-rule:evenodd;stroke:rgb(255, 45, 0);stroke-width:1;" d="M 147.501, 217.556 L 164.805, 194.036 L 175.556, 198.572 L 174.885, 199.412 L 159.429, 220.412 L 154.053, 227.803 L 148.509, 225.451 L 152.709, 219.74 L 147.501, 217.556 z "/>
<path style="fill:rgb(0, 255, 0);fill-opacity:0;fill-rule:evenodd;stroke:rgb(255, 45, 0);stroke-width:1;" d="M 801.848, 143.301 L 819.488, 118.942 L 822.176, 115.246 L 825.199, 116.59 L 827.047, 117.43 L 824.024, 121.63 L 830.071, 124.318 L 812.768, 148.005 L 801.848, 143.301 z "/>
<path style="fill:rgb(0, 0, 255);fill-opacity:0;fill-rule:evenodd;stroke:rgb(255, 45, 0);stroke-width:1;" d="M 156.909, 292.146 L 176.9, 265.099 L 182.78, 267.619 L 179.42, 272.323 L 184.628, 274.507 L 168.333, 297.018 L 156.909, 292.146 z "/>
<path style="fill:rgb(255, 255, 0);fill-opacity:0;fill-rule:evenodd;stroke:rgb(255, 45, 0);stroke-width:1;" d="M 145.653, 287.442 L 162.117, 264.931 L 167.661, 267.283 L 171.021, 262.747 L 176.9, 265.099 L 156.909, 292.146 L 145.653, 287.442 z "/>
<path style="fill:rgb(255, 0, 0);fill-opacity:0;fill-rule:evenodd;stroke:rgb(255, 45, 0);stroke-width:1;" d="M 121.966, 138.093 L 130.533, 126.333 L 143.301, 109.03 L 148.845, 111.382 L 143.301, 118.774 L 148.845, 121.126 L 132.885, 142.797 L 121.966, 138.093 z "/>
<path style="fill:rgb(0, 255, 0);fill-opacity:0;fill-rule:evenodd;stroke:rgb(255, 45, 0);stroke-width:1;" d="M 733.641, 255.523 L 750.609, 232.339 L 754.977, 234.187 L 759.177, 228.475 L 765.393, 230.995 L 761.193, 236.875 L 744.225, 260.059 L 733.641, 255.523 z "/>
<path style="fill:rgb(0, 0, 255);fill-opacity:0;fill-rule:evenodd;stroke:rgb(255, 45, 0);stroke-width:1;" d="M 756.657, 265.099 L 773.457, 242.083 L 785.552, 247.123 L 768.753, 270.307 L 756.657, 265.099 z "/>
<path style="fill:rgb(255, 255, 0);fill-opacity:0;fill-rule:evenodd;stroke:rgb(255, 45, 0);stroke-width:1;" d="M 893.91, 120.958 L 914.574, 92.5661 L 925.829, 97.2701 L 910.038, 119.11 L 903.654, 116.422 L 898.782, 123.142 L 893.91, 120.958 z "/>
<path style="fill:rgb(255, 0, 0);fill-opacity:0;fill-rule:evenodd;stroke:rgb(255, 45, 0);stroke-width:1;" d="M 47.0391, 246.787 L 66.8627, 219.74 L 72.4066, 222.092 L 68.8786, 226.795 L 74.5905, 229.147 L 58.2948, 251.659 L 47.0391, 246.787 z "/>
<path style="fill:rgb(0, 255, 0);fill-opacity:0;fill-rule:evenodd;stroke:rgb(255, 45, 0);stroke-width:1;" d="M 90.0462, 263.923 L 110.038, 236.707 L 115.582, 239.059 L 112.054, 243.763 L 117.598, 246.283 L 101.302, 268.627 L 90.0462, 263.923 z "/>
<path style="fill:rgb(0, 0, 255);fill-opacity:0;fill-rule:evenodd;stroke:rgb(255, 45, 0);stroke-width:1;" d="M 608.82, 274.675 L 612.852, 269.299 L 627.299, 249.307 L 638.387, 253.843 L 630.491, 264.595 L 619.908, 279.21 L 608.82, 274.675 z "/>
<path style="fill:rgb(255, 255, 0);fill-opacity:0;fill-rule:evenodd;stroke:rgb(255, 45, 0);stroke-width:1;" d="M 163.125, 156.741 L 163.125, 155.565 L 177.404, 136.245 L 179.756, 135.741 L 183.788, 137.421 L 187.652, 132.213 L 193.364, 134.733 L 174.549, 160.437 L 171.693, 159.093 L 170.349, 159.933 L 168.837, 160.269 L 167.157, 160.269 L 166.485, 160.101 L 164.973, 159.429 L 163.965, 158.589 L 163.293, 157.413 L 163.125, 156.741 z "/>
<path style="fill:rgb(255, 0, 0);fill-opacity:0;fill-rule:evenodd;stroke:rgb(255, 45, 0);stroke-width:1;" d="M 701.89, 242.083 L 717.85, 220.076 L 720.706, 216.38 L 731.457, 220.916 L 712.642, 246.619 L 701.89, 242.083 z "/>
<path style="fill:rgb(0, 255, 0);fill-opacity:0;fill-rule:evenodd;stroke:rgb(255, 45, 0);stroke-width:1;" d="M 123.478, 278.034 L 139.773, 255.691 L 145.485, 258.211 L 149.013, 253.171 L 154.557, 255.523 L 134.565, 282.738 L 123.478, 278.034 z "/>
<path style="fill:rgb(0, 0, 255);fill-opacity:0;fill-rule:evenodd;stroke:rgb(255, 45, 0);stroke-width:1;" d="M 134.565, 282.738 L 154.557, 255.523 L 160.101, 257.875 L 156.573, 262.747 L 162.117, 264.931 L 145.653, 287.442 L 134.565, 282.738 z "/>
<path style="fill:rgb(255, 255, 0);fill-opacity:0;fill-rule:evenodd;stroke:rgb(255, 45, 0);stroke-width:1;" d="M 69.7186, 324.066 L 86.6863, 301.05 L 97.2701, 305.418 L 77.1105, 333.305 L 76.2705, 334.481 L 71.3986, 332.297 L 75.5985, 326.585 L 69.7186, 324.066 z "/>
<path style="fill:rgb(255, 0, 0);fill-opacity:0;fill-rule:evenodd;stroke:rgb(255, 45, 0);stroke-width:1;" d="M 793.448, 280.554 L 810.248, 257.371 L 822.176, 262.411 L 805.376, 285.594 L 793.448, 280.554 z "/>
<path style="fill:rgb(0, 255, 0);fill-opacity:0;fill-rule:evenodd;stroke:rgb(255, 45, 0);stroke-width:1;" d="M 54.9349, 325.913 L 76.2705, 296.682 L 86.6863, 301.05 L 69.7186, 324.066 L 64.5107, 321.882 L 60.1428, 328.097 L 54.9349, 325.913 z "/>
<path style="fill:rgb(0, 0, 255);fill-opacity:0;fill-rule:evenodd;stroke:rgb(255, 45, 0);stroke-width:1;" d="M 127.341, 73.7505 L 139.941, 56.6149 L 146.829, 47.2071 L 157.077, 51.575 L 138.261, 77.2785 L 137.589, 78.1184 L 127.341, 73.7505 z "/>
<path style="fill:rgb(255, 255, 0);fill-opacity:0;fill-rule:evenodd;stroke:rgb(255, 45, 0);stroke-width:1;" d="M 887.694, 109.702 L 897.774, 95.9261 L 903.486, 88.0302 L 914.574, 92.5661 L 893.91, 120.958 L 888.87, 118.942 L 893.742, 112.222 L 887.694, 109.702 z "/>
<path style="fill:rgb(255, 0, 0);fill-opacity:0;fill-rule:evenodd;stroke:rgb(255, 45, 0);stroke-width:1;" d="M 48.887, 315.33 L 65.8547, 292.314 L 76.2705, 296.682 L 54.9349, 325.913 L 49.727, 323.73 L 54.2629, 317.514 L 48.887, 315.33 z "/>
<path style="fill:rgb(0, 255, 0);fill-opacity:0;fill-rule:evenodd;stroke:rgb(255, 45, 0);stroke-width:1;" d="M 112.39, 273.331 L 132.381, 246.115 L 137.589, 248.299 L 133.893, 253.339 L 139.773, 255.691 L 123.478, 278.034 L 112.39, 273.331 z "/>
<path style="fill:rgb(0, 0, 255);fill-opacity:0;fill-rule:evenodd;stroke:rgb(255, 45, 0);stroke-width:1;" d="M 36.1193, 242.251 L 52.415, 219.74 L 57.7908, 222.092 L 61.3188, 217.388 L 66.8627, 219.74 L 47.0391, 246.787 L 36.1193, 242.251 z "/>
<path style="fill:rgb(255, 255, 0);fill-opacity:0;fill-rule:evenodd;stroke:rgb(255, 45, 0);stroke-width:1;" d="M 79.2944, 259.387 L 94.9181, 238.051 L 95.5901, 236.875 L 101.134, 239.227 L 104.662, 234.523 L 110.038, 236.707 L 90.0462, 263.923 L 79.2944, 259.387 z "/>
<path style="fill:rgb(255, 0, 0);fill-opacity:0;fill-rule:evenodd;stroke:rgb(255, 45, 0);stroke-width:1;" d="M 769.593, 204.116 L 772.113, 200.42 L 788.24, 178.244 L 798.488, 182.444 L 778.832, 209.492 L 773.289, 207.14 L 774.129, 205.964 L 769.593, 204.116 z "/>
<path style="fill:rgb(0, 255, 0);fill-opacity:0;fill-rule:evenodd;stroke:rgb(255, 45, 0);stroke-width:1;" d="M 147.837, 363.545 L 152.205, 357.665 L 168.333, 335.321 L 172.533, 337.001 L 175.388, 335.657 L 179.084, 337.169 L 169.173, 350.777 L 157.077, 367.409 L 147.837, 363.545 z "/>
<path style="fill:rgb(0, 0, 255);fill-opacity:0;fill-rule:evenodd;stroke:rgb(255, 45, 0);stroke-width:1;" d="M 667.787, 227.803 L 684.082, 205.292 L 696.01, 210.332 L 695.674, 210.836 L 679.714, 232.843 L 667.787, 227.803 z "/>
<path style="fill:rgb(255, 255, 0);fill-opacity:0;fill-rule:evenodd;stroke:rgb(255, 45, 0);stroke-width:1;" d="M 110.71, 340.193 L 127.005, 318.018 L 137.589, 322.386 L 117.43, 350.105 L 111.718, 347.753 L 115.75, 342.377 L 110.71, 340.193 z "/>
<path style="fill:rgb(255, 0, 0);fill-opacity:0;fill-rule:evenodd;stroke:rgb(255, 45, 0);stroke-width:1;" d="M 512.894, 242.419 L 519.782, 232.843 L 515.75, 231.163 L 531.709, 208.988 L 541.453, 213.188 L 521.63, 240.403 L 518.438, 244.771 L 512.894, 242.419 z "/>
<path style="fill:rgb(0, 255, 0);fill-opacity:0;fill-rule:evenodd;stroke:rgb(255, 45, 0);stroke-width:1;" d="M 96.0941, 341.369 L 116.254, 313.482 L 127.005, 318.018 L 110.71, 340.193 L 105.502, 338.009 L 101.302, 343.553 L 96.0941, 341.369 z "/>
<path style="fill:rgb(0, 0, 255);fill-opacity:0;fill-rule:evenodd;stroke:rgb(255, 45, 0);stroke-width:1;" d="M 133.389, 218.9 L 154.725, 189.836 L 164.805, 194.036 L 147.501, 217.556 L 142.629, 215.54 L 138.597, 221.084 L 133.389, 218.9 z "/>
<path style="fill:rgb(255, 255, 0);fill-opacity:0;fill-rule:evenodd;stroke:rgb(255, 45, 0);stroke-width:1;" d="M 117.43, 350.105 L 137.589, 322.386 L 148.341, 326.921 L 132.045, 349.265 L 126.333, 346.745 L 122.302, 352.121 L 117.43, 350.105 z "/>
<path style="fill:rgb(255, 0, 0);fill-opacity:0;fill-rule:evenodd;stroke:rgb(255, 45, 0);stroke-width:1;" d="M 168.333, 297.018 L 184.628, 274.507 L 189.668, 276.69 L 193.196, 271.651 L 198.908, 274.171 L 178.748, 301.554 L 168.333, 297.018 z "/>
<path style="fill:rgb(0, 255, 0);fill-opacity:0;fill-rule:evenodd;stroke:rgb(255, 45, 0);stroke-width:1;" d="M 738.345, 192.188 L 757.833, 165.477 L 768.921, 170.013 L 752.961, 191.684 L 747.249, 189.332 L 743.553, 194.372 L 738.345, 192.188 z "/>
<path style="fill:rgb(0, 0, 255);fill-opacity:0;fill-rule:evenodd;stroke:rgb(255, 45, 0);stroke-width:1;" d="M 564.805, 116.926 L 584.796, 89.5422 L 589.332, 91.5582 L 589.5, 94.7501 L 593.028, 96.2621 L 574.885, 121.294 L 564.805, 116.926 z "/>
<path style="fill:rgb(255, 255, 0);fill-opacity:0;fill-rule:evenodd;stroke:rgb(255, 45, 0);stroke-width:1;" d="M 127.509, 209.156 L 144.813, 185.636 L 154.725, 189.836 L 133.389, 218.9 L 128.181, 216.548 L 132.213, 211.004 L 127.509, 209.156 z "/>
<path style="fill:rgb(255, 0, 0);fill-opacity:0;fill-rule:evenodd;stroke:rgb(255, 45, 0);stroke-width:1;" d="M 132.045, 349.265 L 148.341, 326.921 L 158.757, 331.289 L 138.429, 359.345 L 133.221, 357.161 L 137.421, 351.449 L 132.045, 349.265 z "/>
<path style="fill:rgb(0, 255, 0);fill-opacity:0;fill-rule:evenodd;stroke:rgb(255, 45, 0);stroke-width:1;" d="M 208.82, 105.502 L 211.172, 102.31 L 226.627, 80.9744 L 237.211, 85.5103 L 219.236, 110.038 L 208.82, 105.502 z "/>
<path style="fill:rgb(0, 0, 255);fill-opacity:0;fill-rule:evenodd;stroke:rgb(255, 45, 0);stroke-width:1;" d="M 79.9664, 186.812 L 91.5582, 171.021 L 96.4301, 164.301 L 106.342, 168.669 L 85.8463, 196.724 L 85.8463, 196.892 L 80.1344, 194.204 L 84.1663, 188.66 L 79.9664, 186.812 z "/>
<path style="fill:rgb(255, 255, 0);fill-opacity:0;fill-rule:evenodd;stroke:rgb(255, 45, 0);stroke-width:1;" d="M 679.714, 232.843 L 695.674, 210.836 L 707.434, 215.876 L 691.474, 237.715 L 679.714, 232.843 z "/>
<path style="fill:rgb(255, 0, 0);fill-opacity:0;fill-rule:evenodd;stroke:rgb(255, 45, 0);stroke-width:1;" d="M 68.3746, 255.859 L 88.3662, 228.643 L 94.2461, 230.995 L 90.5502, 236.203 L 94.9181, 238.051 L 79.2944, 259.387 L 78.6224, 260.227 L 68.3746, 255.859 z "/>
<path style="fill:rgb(0, 255, 0);fill-opacity:0;fill-rule:evenodd;stroke:rgb(255, 45, 0);stroke-width:1;" d="M 217.556, 112.39 L 219.236, 110.038 L 237.211, 85.5103 L 247.795, 90.0462 L 231.499, 112.39 L 225.115, 109.534 L 221.756, 114.238 L 217.556, 112.39 z "/>
<path style="fill:rgb(0, 0, 255);fill-opacity:0;fill-rule:evenodd;stroke:rgb(255, 45, 0);stroke-width:1;" d="M 212.348, 176.396 L 232.171, 149.349 L 237.547, 151.701 L 233.515, 157.245 L 238.555, 159.261 L 222.932, 180.764 L 212.348, 176.396 z "/>
<path style="fill:rgb(255, 255, 0);fill-opacity:0;fill-rule:evenodd;stroke:rgb(255, 45, 0);stroke-width:1;" d="M 85.8463, 196.724 L 106.342, 168.669 L 116.254, 172.869 L 99.958, 195.212 L 95.7581, 193.364 L 91.3902, 199.244 L 85.8463, 196.724 z "/>
<path style="fill:rgb(255, 0, 0);fill-opacity:0;fill-rule:evenodd;stroke:rgb(255, 45, 0);stroke-width:1;" d="M 270.979, 62.3268 L 286.266, 41.1592 L 289.626, 36.6233 L 299.538, 40.8232 L 295.842, 45.8631 L 280.722, 66.5267 L 270.979, 62.3268 z "/>
<path style="fill:rgb(0, 255, 0);fill-opacity:0;fill-rule:evenodd;stroke:rgb(255, 45, 0);stroke-width:1;" d="M 58.2948, 251.659 L 74.5905, 229.147 L 79.6304, 231.331 L 83.1583, 226.459 L 88.3662, 228.643 L 68.3746, 255.859 L 58.2948, 251.659 z "/>
<path style="fill:rgb(0, 0, 255);fill-opacity:0;fill-rule:evenodd;stroke:rgb(255, 45, 0);stroke-width:1;" d="M 232.843, 184.964 L 252.667, 157.917 L 257.203, 159.765 L 253.171, 165.477 L 259.051, 167.997 L 243.427, 189.5 L 232.843, 184.964 z "/>
<path style="fill:rgb(255, 255, 0);fill-opacity:0;fill-rule:evenodd;stroke:rgb(255, 45, 0);stroke-width:1;" d="M 828.223, 229.651 L 847.543, 203.108 L 857.119, 207.14 L 841.327, 228.811 L 837.799, 233.515 L 828.223, 229.651 z "/>
<path style="fill:rgb(255, 0, 0);fill-opacity:0;fill-rule:evenodd;stroke:rgb(255, 45, 0);stroke-width:1;" d="M 248.467, 54.9349 L 265.099, 32.2554 L 276.186, 36.9593 L 260.899, 57.9588 L 259.723, 59.6388 L 248.467, 54.9349 z "/>
<path style="fill:rgb(0, 255, 0);fill-opacity:0;fill-rule:evenodd;stroke:rgb(255, 45, 0);stroke-width:1;" d="M 790.76, 138.597 L 805.376, 118.606 L 809.072, 120.286 L 812.264, 115.918 L 819.488, 118.942 L 801.848, 143.301 L 790.76, 138.597 z "/>
<path style="fill:rgb(0, 0, 255);fill-opacity:0;fill-rule:evenodd;stroke:rgb(255, 45, 0);stroke-width:1;" d="M 521.63, 240.403 L 541.453, 213.188 L 551.701, 217.388 L 535.573, 239.563 L 530.197, 237.379 L 526.501, 242.419 L 521.63, 240.403 z "/>
<path style="fill:rgb(255, 255, 0);fill-opacity:0;fill-rule:evenodd;stroke:rgb(255, 45, 0);stroke-width:1;" d="M 535.573, 239.563 L 551.701, 217.388 L 561.781, 221.756 L 541.621, 249.475 L 537.085, 247.459 L 541.117, 241.915 L 535.573, 239.563 z "/>
<path style="fill:rgb(255, 0, 0);fill-opacity:0;fill-rule:evenodd;stroke:rgb(255, 45, 0);stroke-width:1;" d="M 138.261, 77.2785 L 157.077, 51.575 L 166.821, 55.7749 L 150.693, 77.7824 L 148.005, 81.3104 L 138.261, 77.2785 z "/>
<path style="fill:rgb(0, 255, 0);fill-opacity:0;fill-rule:evenodd;stroke:rgb(255, 45, 0);stroke-width:1;" d="M 156.909, 86.6863 L 176.564, 59.8068 L 186.812, 64.1747 L 170.685, 86.3503 L 165.141, 83.9983 L 161.781, 88.7022 L 156.909, 86.6863 z "/>
<path style="fill:rgb(0, 0, 255);fill-opacity:0;fill-rule:evenodd;stroke:rgb(255, 45, 0);stroke-width:1;" d="M 197.06, 102.478 L 216.044, 76.6065 L 226.627, 80.9744 L 211.172, 102.31 L 205.292, 99.79 L 201.932, 104.494 L 197.06, 102.478 z "/>
<path style="fill:rgb(255, 255, 0);fill-opacity:0;fill-rule:evenodd;stroke:rgb(255, 45, 0);stroke-width:1;" d="M 789.08, 213.524 L 792.608, 208.652 L 808.568, 186.812 L 818.816, 191.012 L 803.36, 212.348 L 802.52, 213.356 L 797.144, 211.004 L 793.784, 215.54 L 789.08, 213.524 z "/>
<path style="fill:rgb(255, 0, 0);fill-opacity:0;fill-rule:evenodd;stroke:rgb(255, 45, 0);stroke-width:1;" d="M 99.79, 202.604 L 103.99, 196.892 L 99.958, 195.212 L 116.254, 172.869 L 125.997, 176.9 L 109.534, 199.244 L 105.502, 204.956 L 99.79, 202.604 z "/>
<path style="fill:rgb(0, 255, 0);fill-opacity:0;fill-rule:evenodd;stroke:rgb(255, 45, 0);stroke-width:1;" d="M 392.608, 115.582 L 398.824, 107.014 L 406.72, 110.374 L 409.912, 109.702 L 426.039, 116.422 L 418.648, 126.501 L 392.608, 115.582 z "/>
<path style="fill:rgb(0, 0, 255);fill-opacity:0;fill-rule:evenodd;stroke:rgb(255, 45, 0);stroke-width:1;" d="M 541.621, 249.475 L 561.781, 221.756 L 571.861, 225.955 L 555.733, 248.131 L 550.525, 245.947 L 546.493, 251.491 L 541.621, 249.475 z "/>
<path style="fill:rgb(255, 255, 0);fill-opacity:0;fill-rule:evenodd;stroke:rgb(255, 45, 0);stroke-width:1;" d="M 752.961, 191.684 L 768.921, 170.013 L 778.832, 174.213 L 759.177, 201.428 L 753.969, 199.244 L 757.833, 193.7 L 752.961, 191.684 z "/>
<path style="fill:rgb(255, 0, 0);fill-opacity:0;fill-rule:evenodd;stroke:rgb(255, 45, 0);stroke-width:1;" d="M 778.832, 209.492 L 798.488, 182.444 L 808.568, 186.812 L 792.608, 208.652 L 787.232, 206.468 L 783.536, 211.508 L 778.832, 209.492 z "/>
<path style="fill:rgb(0, 255, 0);fill-opacity:0;fill-rule:evenodd;stroke:rgb(255, 45, 0);stroke-width:1;" d="M 132.885, 142.797 L 148.845, 121.126 L 151.869, 116.926 L 157.917, 119.446 L 154.221, 124.318 L 156.573, 125.325 L 157.413, 128.013 L 143.301, 147.165 L 132.885, 142.797 z "/>
<path style="fill:rgb(0, 0, 255);fill-opacity:0;fill-rule:evenodd;stroke:rgb(255, 45, 0);stroke-width:1;" d="M 656.867, 223.268 L 661.739, 216.548 L 673.163, 200.756 L 684.082, 205.292 L 667.787, 227.803 L 656.867, 223.268 z "/>
<path style="fill:rgb(255, 255, 0);fill-opacity:0;fill-rule:evenodd;stroke:rgb(255, 45, 0);stroke-width:1;" d="M 920.118, 123.478 L 936.077, 101.638 L 947.333, 106.342 L 931.373, 128.181 L 920.118, 123.478 z "/>
<path style="fill:rgb(255, 0, 0);fill-opacity:0;fill-rule:evenodd;stroke:rgb(255, 45, 0);stroke-width:1;" d="M 138.429, 359.345 L 158.757, 331.289 L 168.333, 335.321 L 152.205, 357.665 L 147.837, 355.817 L 143.637, 361.529 L 138.429, 359.345 z "/>
<path style="fill:rgb(0, 255, 0);fill-opacity:0;fill-rule:evenodd;stroke:rgb(255, 45, 0);stroke-width:1;" d="M 178.748, 301.554 L 198.908, 274.171 L 204.452, 276.522 L 200.924, 281.394 L 204.956, 283.074 L 188.492, 305.586 L 178.748, 301.554 z "/>
<path style="fill:rgb(0, 0, 255);fill-opacity:0;fill-rule:evenodd;stroke:rgb(255, 45, 0);stroke-width:1;" d="M 260.899, 57.9588 L 276.186, 36.9593 L 280.554, 30.9114 L 285.762, 33.0953 L 281.394, 39.1432 L 286.266, 41.1592 L 270.979, 62.3268 L 260.899, 57.9588 z "/>
<path style="fill:rgb(255, 255, 0);fill-opacity:0;fill-rule:evenodd;stroke:rgb(255, 45, 0);stroke-width:1;" d="M 714.826, 175.724 L 730.617, 153.885 L 740.529, 158.085 L 720.874, 185.132 L 715.666, 182.948 L 719.362, 177.74 L 714.826, 175.724 z "/>
<path style="fill:rgb(255, 0, 0);fill-opacity:0;fill-rule:evenodd;stroke:rgb(255, 45, 0);stroke-width:1;" d="M 90.5502, 331.793 L 106.846, 309.45 L 116.254, 313.482 L 96.0941, 341.369 L 90.8862, 339.185 L 94.9181, 333.641 L 90.5502, 331.793 z "/>
<path style="fill:rgb(0, 255, 0);fill-opacity:0;fill-rule:evenodd;stroke:rgb(255, 45, 0);stroke-width:1;" d="M 165.477, 230.155 L 184.964, 203.612 L 195.212, 207.98 L 179.756, 228.979 L 174.213, 226.627 L 170.181, 232.171 L 165.477, 230.155 z "/>
<path style="fill:rgb(0, 0, 255);fill-opacity:0;fill-rule:evenodd;stroke:rgb(255, 45, 0);stroke-width:1;" d="M 662.243, 84.3343 L 680.89, 58.6308 L 686.434, 60.9828 L 682.57, 66.1907 L 687.442, 68.2066 L 672.491, 88.7022 L 662.243, 84.3343 z "/>
<path style="fill:rgb(255, 255, 0);fill-opacity:0;fill-rule:evenodd;stroke:rgb(255, 45, 0);stroke-width:1;" d="M 238.051, 50.567 L 246.619, 38.6392 L 254.515, 27.8874 L 265.099, 32.2554 L 248.467, 54.9349 L 238.051, 50.567 z "/>
<path style="fill:rgb(255, 0, 0);fill-opacity:0;fill-rule:evenodd;stroke:rgb(255, 45, 0);stroke-width:1;" d="M 114.574, 210.836 L 135.909, 181.772 L 144.813, 185.636 L 127.509, 209.156 L 123.646, 207.476 L 119.614, 213.02 L 114.574, 210.836 z "/>
<path style="fill:rgb(0, 255, 0);fill-opacity:0;fill-rule:evenodd;stroke:rgb(255, 45, 0);stroke-width:1;" d="M 222.932, 180.764 L 238.555, 159.261 L 244.267, 161.781 L 248.299, 156.069 L 252.667, 157.917 L 232.843, 184.964 L 222.932, 180.764 z "/>
<path style="fill:rgb(0, 0, 255);fill-opacity:0;fill-rule:evenodd;stroke:rgb(255, 45, 0);stroke-width:1;" d="M 150.693, 77.7824 L 166.821, 55.7749 L 176.564, 59.8068 L 156.909, 86.6863 L 152.205, 84.6703 L 155.565, 79.9664 L 150.693, 77.7824 z "/>
<path style="fill:rgb(255, 255, 0);fill-opacity:0;fill-rule:evenodd;stroke:rgb(255, 45, 0);stroke-width:1;" d="M 77.1105, 333.305 L 97.2701, 305.418 L 106.846, 309.45 L 90.5502, 331.793 L 86.0143, 329.945 L 81.9824, 335.321 L 77.1105, 333.305 z "/>
<path style="fill:rgb(255, 0, 0);fill-opacity:0;fill-rule:evenodd;stroke:rgb(255, 45, 0);stroke-width:1;" d="M 159.429, 220.412 L 174.885, 199.412 L 184.964, 203.612 L 165.477, 230.155 L 160.773, 228.307 L 164.805, 222.764 L 159.429, 220.412 z "/>
<path style="fill:rgb(0, 255, 0);fill-opacity:0;fill-rule:evenodd;stroke:rgb(255, 45, 0);stroke-width:1;" d="M 184.796, 164.637 L 204.62, 137.589 L 209.324, 139.605 L 205.292, 145.317 L 210.164, 147.333 L 194.54, 168.837 L 184.796, 164.637 z "/>
<path style="fill:rgb(0, 0, 255);fill-opacity:0;fill-rule:evenodd;stroke:rgb(255, 45, 0);stroke-width:1;" d="M 808.904, 221.588 L 828.223, 195.044 L 837.967, 199.076 L 822.512, 220.412 L 817.808, 218.396 L 813.944, 223.604 L 808.904, 221.588 z "/>
<path style="fill:rgb(255, 255, 0);fill-opacity:0;fill-rule:evenodd;stroke:rgb(255, 45, 0);stroke-width:1;" d="M 616.548, 68.2066 L 636.875, 40.3192 L 642.251, 42.5031 L 638.555, 47.711 L 642.755, 49.559 L 627.971, 69.8866 L 623.604, 68.0386 L 620.58, 69.8866 L 616.548, 68.2066 z "/>
<path style="fill:rgb(255, 0, 0);fill-opacity:0;fill-rule:evenodd;stroke:rgb(255, 45, 0);stroke-width:1;" d="M 153.213, 151.365 L 171.861, 125.829 L 177.404, 128.181 L 174.045, 132.885 L 178.412, 134.733 L 177.404, 136.245 L 163.125, 155.565 L 153.213, 151.365 z "/>
<path style="fill:rgb(0, 255, 0);fill-opacity:0;fill-rule:evenodd;stroke:rgb(255, 45, 0);stroke-width:1;" d="M 759.177, 201.428 L 778.832, 174.213 L 788.24, 178.244 L 772.113, 200.42 L 767.409, 198.572 L 763.881, 203.276 L 759.177, 201.428 z "/>
<path style="fill:rgb(0, 0, 255);fill-opacity:0;fill-rule:evenodd;stroke:rgb(255, 45, 0);stroke-width:1;" d="M 841.327, 228.811 L 857.119, 207.14 L 866.527, 211.004 L 849.223, 234.859 L 847.039, 237.883 L 841.831, 235.699 L 845.527, 230.659 L 841.327, 228.811 z "/>
<path style="fill:rgb(255, 255, 0);fill-opacity:0;fill-rule:evenodd;stroke:rgb(255, 45, 0);stroke-width:1;" d="M 874.591, 245.443 L 891.894, 221.756 L 895.758, 223.268 L 899.286, 221.42 L 902.982, 222.932 L 883.662, 249.307 L 874.591, 245.443 z "/>
<path style="fill:rgb(255, 0, 0);fill-opacity:0;fill-rule:evenodd;stroke:rgb(255, 45, 0);stroke-width:1;" d="M 179.756, 228.979 L 195.212, 207.98 L 204.956, 212.18 L 204.284, 213.02 L 185.636, 238.555 L 181.268, 236.707 L 185.132, 231.331 L 179.756, 228.979 z "/>
<path style="fill:rgb(0, 255, 0);fill-opacity:0;fill-rule:evenodd;stroke:rgb(255, 45, 0);stroke-width:1;" d="M 822.344, 220.58 L 822.512, 220.412 L 837.967, 199.076 L 847.543, 203.108 L 828.223, 229.651 L 823.016, 227.299 L 826.543, 222.428 L 822.344, 220.58 z "/>
<path style="fill:rgb(0, 0, 255);fill-opacity:0;fill-rule:evenodd;stroke:rgb(255, 45, 0);stroke-width:1;" d="M 691.474, 237.715 L 707.434, 215.876 L 717.85, 220.076 L 701.89, 242.083 L 691.474, 237.715 z "/>
<path style="fill:rgb(255, 255, 0);fill-opacity:0;fill-rule:evenodd;stroke:rgb(255, 45, 0);stroke-width:1;" d="M 502.646, 232.339 L 522.47, 205.124 L 531.709, 208.988 L 515.75, 231.163 L 511.214, 229.315 L 507.518, 234.355 L 502.646, 232.339 z "/>
<path style="fill:rgb(255, 0, 0);fill-opacity:0;fill-rule:evenodd;stroke:rgb(255, 45, 0);stroke-width:1;" d="M 185.636, 238.555 L 204.284, 213.02 L 214.196, 217.22 L 199.412, 237.547 L 194.54, 235.531 L 190.676, 240.571 L 185.636, 238.555 z "/>
<path style="fill:rgb(0, 255, 0);fill-opacity:0;fill-rule:evenodd;stroke:rgb(255, 45, 0);stroke-width:1;" d="M 849.223, 234.859 L 866.527, 211.004 L 876.102, 215.036 L 858.799, 238.891 L 849.223, 234.859 z "/>
<path style="fill:rgb(0, 0, 255);fill-opacity:0;fill-rule:evenodd;stroke:rgb(255, 45, 0);stroke-width:1;" d="M 803.36, 212.348 L 818.816, 191.012 L 828.223, 195.044 L 808.904, 221.588 L 803.696, 219.404 L 807.56, 214.028 L 803.36, 212.348 z "/>
<path style="fill:rgb(255, 255, 0);fill-opacity:0;fill-rule:evenodd;stroke:rgb(255, 45, 0);stroke-width:1;" d="M 253.507, 193.7 L 269.131, 172.365 L 272.995, 173.877 L 277.194, 168.165 L 282.402, 170.349 L 262.579, 197.564 L 253.507, 193.7 z "/>
<path style="fill:rgb(255, 0, 0);fill-opacity:0;fill-rule:evenodd;stroke:rgb(255, 45, 0);stroke-width:1;" d="M 704.746, 179.252 L 709.114, 173.373 L 705.922, 172.197 L 721.882, 150.189 L 730.617, 153.885 L 714.826, 175.724 L 710.458, 181.604 L 704.746, 179.252 z "/>
<path style="fill:rgb(0, 255, 0);fill-opacity:0;fill-rule:evenodd;stroke:rgb(255, 45, 0);stroke-width:1;" d="M 143.301, 147.165 L 157.413, 128.013 L 161.781, 129.693 L 166.317, 123.646 L 171.861, 125.829 L 153.213, 151.365 L 143.301, 147.165 z "/>
<path style="fill:rgb(0, 0, 255);fill-opacity:0;fill-rule:evenodd;stroke:rgb(255, 45, 0);stroke-width:1;" d="M 574.885, 121.294 L 593.028, 96.2621 L 602.772, 100.462 L 587.82, 120.958 L 582.612, 118.774 L 579.42, 123.142 L 574.885, 121.294 z "/>
<path style="fill:rgb(255, 255, 0);fill-opacity:0;fill-rule:evenodd;stroke:rgb(255, 45, 0);stroke-width:1;" d="M 910.038, 119.11 L 925.829, 97.2701 L 936.077, 101.638 L 920.118, 123.478 L 910.038, 119.11 z "/>
<path style="fill:rgb(255, 0, 0);fill-opacity:0;fill-rule:evenodd;stroke:rgb(255, 45, 0);stroke-width:1;" d="M 485.51, 224.948 L 499.622, 205.628 L 506.342, 196.388 L 510.038, 197.9 L 510.542, 200.252 L 513.734, 201.596 L 497.774, 223.604 L 494.078, 222.092 L 490.382, 227.131 L 485.51, 224.948 z "/>
<path style="fill:rgb(0, 255, 0);fill-opacity:0;fill-rule:evenodd;stroke:rgb(255, 45, 0);stroke-width:1;" d="M 769.593, 129.693 L 784.208, 109.702 L 795.128, 114.406 L 780.512, 134.397 L 769.593, 129.693 z "/>
<path style="fill:rgb(0, 0, 255);fill-opacity:0;fill-rule:evenodd;stroke:rgb(255, 45, 0);stroke-width:1;" d="M 262.579, 197.564 L 282.402, 170.349 L 287.442, 172.533 L 283.242, 178.244 L 287.106, 179.924 L 271.483, 201.26 L 262.579, 197.564 z "/>
<path style="fill:rgb(255, 255, 0);fill-opacity:0;fill-rule:evenodd;stroke:rgb(255, 45, 0);stroke-width:1;" d="M 594.54, 129.189 L 612.516, 104.494 L 622.092, 108.526 L 607.308, 129.021 L 602.1, 126.837 L 599.076, 131.037 L 594.54, 129.189 z "/>
<path style="fill:rgb(255, 0, 0);fill-opacity:0;fill-rule:evenodd;stroke:rgb(255, 45, 0);stroke-width:1;" d="M 243.427, 189.5 L 259.051, 167.997 L 269.131, 172.365 L 253.507, 193.7 L 243.427, 189.5 z "/>
<path style="fill:rgb(0, 255, 0);fill-opacity:0;fill-rule:evenodd;stroke:rgb(255, 45, 0);stroke-width:1;" d="M 203.444, 172.701 L 219.236, 151.197 L 223.1, 152.877 L 227.299, 147.333 L 232.171, 149.349 L 212.348, 176.396 L 203.444, 172.701 z "/>
<path style="fill:rgb(0, 0, 255);fill-opacity:0;fill-rule:evenodd;stroke:rgb(255, 45, 0);stroke-width:1;" d="M 497.774, 223.604 L 513.734, 201.596 L 522.47, 205.124 L 502.646, 232.339 L 497.774, 230.323 L 501.638, 225.115 L 497.774, 223.604 z "/>
<path style="fill:rgb(255, 255, 0);fill-opacity:0;fill-rule:evenodd;stroke:rgb(255, 45, 0);stroke-width:1;" d="M 191.18, 93.9101 L 206.804, 72.5745 L 216.044, 76.6065 L 197.06, 102.478 L 193.868, 101.134 L 193.7, 99.118 L 196.052, 95.9261 L 191.18, 93.9101 z "/>
<path style="fill:rgb(255, 0, 0);fill-opacity:0;fill-rule:evenodd;stroke:rgb(255, 45, 0);stroke-width:1;" d="M 587.82, 120.958 L 602.772, 100.462 L 612.516, 104.494 L 594.54, 129.189 L 590.004, 127.341 L 593.028, 123.142 L 587.82, 120.958 z "/>
<path style="fill:rgb(0, 255, 0);fill-opacity:0;fill-rule:evenodd;stroke:rgb(255, 45, 0);stroke-width:1;" d="M 733.305, 183.62 L 749.097, 161.781 L 757.833, 165.477 L 738.345, 192.188 L 733.305, 190.004 L 736.833, 185.132 L 733.305, 183.62 z "/>
<path style="fill:rgb(0, 0, 255);fill-opacity:0;fill-rule:evenodd;stroke:rgb(255, 45, 0);stroke-width:1;" d="M 720.874, 185.132 L 740.529, 158.085 L 749.097, 161.781 L 733.305, 183.62 L 729.273, 181.94 L 725.577, 187.148 L 720.874, 185.132 z "/>
<path style="fill:rgb(255, 255, 0);fill-opacity:0;fill-rule:evenodd;stroke:rgb(255, 45, 0);stroke-width:1;" d="M 280.722, 66.5267 L 295.842, 45.8631 L 306.09, 50.231 L 305.586, 51.071 L 291.138, 70.7266 L 280.722, 66.5267 z "/>
<path style="fill:rgb(255, 0, 0);fill-opacity:0;fill-rule:evenodd;stroke:rgb(255, 45, 0);stroke-width:1;" d="M 526.165, 169.341 L 532.381, 160.773 L 541.117, 148.677 L 551.365, 153.045 L 536.245, 173.709 L 526.165, 169.341 z "/>
<path style="fill:rgb(0, 255, 0);fill-opacity:0;fill-rule:evenodd;stroke:rgb(255, 45, 0);stroke-width:1;" d="M 698.026, 99.79 L 712.642, 79.6304 L 723.058, 83.9983 L 708.442, 104.158 L 698.026, 99.79 z "/>
<path style="fill:rgb(0, 0, 255);fill-opacity:0;fill-rule:evenodd;stroke:rgb(255, 45, 0);stroke-width:1;" d="M 546.325, 177.908 L 561.445, 157.245 L 571.525, 161.445 L 556.405, 182.108 L 546.325, 177.908 z "/>
<path style="fill:rgb(255, 255, 0);fill-opacity:0;fill-rule:evenodd;stroke:rgb(255, 45, 0);stroke-width:1;" d="M 536.245, 173.709 L 551.365, 153.045 L 561.445, 157.245 L 546.325, 177.908 L 536.245, 173.709 z "/>
<path style="fill:rgb(255, 0, 0);fill-opacity:0;fill-rule:evenodd;stroke:rgb(255, 45, 0);stroke-width:1;" d="M 238.387, 248.971 L 251.995, 229.147 L 252.667, 229.315 L 254.851, 229.483 L 258.379, 230.995 L 259.555, 232.339 L 262.747, 233.683 L 251.323, 249.307 L 248.467, 253.339 L 238.387, 248.971 z "/>
<path style="fill:rgb(0, 255, 0);fill-opacity:0;fill-rule:evenodd;stroke:rgb(255, 45, 0);stroke-width:1;" d="M 727.761, 42.5031 L 743.217, 21.3356 L 752.961, 25.5355 L 747.081, 33.5993 L 737.673, 46.5351 L 727.761, 42.5031 z "/>
<path style="fill:rgb(0, 0, 255);fill-opacity:0;fill-rule:evenodd;stroke:rgb(255, 45, 0);stroke-width:1;" d="M 87.1903, 485.846 L 95.0861, 475.094 L 102.142, 465.351 L 112.222, 469.551 L 104.494, 479.966 L 97.1021, 490.046 L 87.1903, 485.846 z "/>
<path style="fill:rgb(255, 255, 0);fill-opacity:0;fill-rule:evenodd;stroke:rgb(255, 45, 0);stroke-width:1;" d="M 636.707, 73.5825 L 651.491, 53.2549 L 655.859, 54.9349 L 659.723, 49.727 L 664.259, 51.575 L 645.443, 77.2785 L 636.707, 73.5825 z "/>
<path style="fill:rgb(255, 0, 0);fill-opacity:0;fill-rule:evenodd;stroke:rgb(255, 45, 0);stroke-width:1;" d="M 780.512, 134.397 L 795.128, 114.406 L 805.376, 118.606 L 790.76, 138.597 L 780.512, 134.397 z "/>
<path style="fill:rgb(0, 255, 0);fill-opacity:0;fill-rule:evenodd;stroke:rgb(255, 45, 0);stroke-width:1;" d="M 708.442, 104.158 L 723.058, 83.9983 L 733.137, 88.3662 L 732.801, 88.8702 L 724.402, 100.126 L 718.522, 108.358 L 708.442, 104.158 z "/>
<path style="fill:rgb(0, 0, 255);fill-opacity:0;fill-rule:evenodd;stroke:rgb(255, 45, 0);stroke-width:1;" d="M 130.365, 504.158 L 137.589, 494.246 L 145.317, 483.662 L 155.061, 487.694 L 140.109, 508.19 L 130.365, 504.158 z "/>
<path style="fill:rgb(255, 255, 0);fill-opacity:0;fill-rule:evenodd;stroke:rgb(255, 45, 0);stroke-width:1;" d="M 718.522, 38.4712 L 733.809, 17.4717 L 743.217, 21.3356 L 727.761, 42.5031 L 718.522, 38.4712 z "/>
<path style="fill:rgb(255, 0, 0);fill-opacity:0;fill-rule:evenodd;stroke:rgb(255, 45, 0);stroke-width:1;" d="M 645.443, 77.2785 L 664.259, 51.575 L 668.795, 53.5909 L 665.099, 58.7988 L 668.795, 60.4788 L 654.011, 80.8064 L 645.443, 77.2785 z "/>
<path style="fill:rgb(0, 255, 0);fill-opacity:0;fill-rule:evenodd;stroke:rgb(255, 45, 0);stroke-width:1;" d="M 556.405, 182.108 L 571.525, 161.445 L 580.932, 165.477 L 565.813, 186.14 L 556.405, 182.108 z "/>
<path style="fill:rgb(0, 0, 255);fill-opacity:0;fill-rule:evenodd;stroke:rgb(255, 45, 0);stroke-width:1;" d="M 194.54, 168.837 L 210.164, 147.333 L 219.236, 151.197 L 203.444, 172.701 L 194.54, 168.837 z "/>
<path style="fill:rgb(255, 255, 0);fill-opacity:0;fill-rule:evenodd;stroke:rgb(255, 45, 0);stroke-width:1;" d="M 654.011, 80.8064 L 668.795, 60.4788 L 672.659, 62.1588 L 676.522, 56.7829 L 680.89, 58.6308 L 662.243, 84.3343 L 654.011, 80.8064 z "/>
<path style="fill:rgb(255, 0, 0);fill-opacity:0;fill-rule:evenodd;stroke:rgb(255, 45, 0);stroke-width:1;" d="M 858.799, 238.891 L 876.102, 215.036 L 884.166, 218.396 L 866.863, 242.251 L 858.799, 238.891 z "/>
<path style="fill:rgb(0, 255, 0);fill-opacity:0;fill-rule:evenodd;stroke:rgb(255, 45, 0);stroke-width:1;" d="M 565.813, 186.14 L 580.932, 165.477 L 590.004, 169.173 L 574.885, 190.004 L 565.813, 186.14 z "/>
<path style="fill:rgb(0, 0, 255);fill-opacity:0;fill-rule:evenodd;stroke:rgb(255, 45, 0);stroke-width:1;" d="M 866.863, 242.251 L 884.166, 218.396 L 891.894, 221.756 L 874.591, 245.443 L 866.863, 242.251 z "/>
<path style="fill:rgb(255, 255, 0);fill-opacity:0;fill-rule:evenodd;stroke:rgb(255, 45, 0);stroke-width:1;" d="M 291.138, 70.7266 L 305.586, 51.071 L 314.826, 54.9349 L 309.282, 62.4948 L 300.378, 74.7585 L 291.138, 70.7266 z "/>
<path style="fill:rgb(255, 0, 0);fill-opacity:0;fill-rule:evenodd;stroke:rgb(255, 45, 0);stroke-width:1;" d="M 574.885, 190.004 L 590.004, 169.173 L 598.908, 173.037 L 590.508, 184.46 L 583.788, 193.7 L 574.885, 190.004 z "/>
<path style="fill:rgb(0, 255, 0);fill-opacity:0;fill-rule:evenodd;stroke:rgb(255, 45, 0);stroke-width:1;" d="M 627.971, 69.8866 L 642.755, 49.559 L 651.491, 53.2549 L 636.707, 73.5825 L 627.971, 69.8866 z "/>
<path style="fill:rgb(0, 0, 255);fill-opacity:0;fill-rule:evenodd;stroke:rgb(255, 45, 0);stroke-width:1;" d="M 603.948, 265.603 L 618.564, 245.611 L 627.299, 249.307 L 612.852, 269.299 L 603.948, 265.603 z "/>
<path style="fill:rgb(255, 255, 0);fill-opacity:0;fill-rule:evenodd;stroke:rgb(255, 45, 0);stroke-width:1;" d="M 689.29, 96.0941 L 703.906, 75.9345 L 712.642, 79.6304 L 698.026, 99.79 L 689.29, 96.0941 z "/>
<path style="fill:rgb(255, 0, 0);fill-opacity:0;fill-rule:evenodd;stroke:rgb(255, 45, 0);stroke-width:1;" d="M 595.548, 262.075 L 609.996, 241.915 L 618.564, 245.611 L 603.948, 265.603 L 595.548, 262.075 z "/>
<path style="fill:rgb(0, 255, 0);fill-opacity:0;fill-rule:evenodd;stroke:rgb(255, 45, 0);stroke-width:1;" d="M 251.323, 249.307 L 262.747, 233.683 L 264.259, 234.187 L 265.771, 234.187 L 269.131, 235.531 L 270.811, 237.043 L 274.843, 238.723 L 274.507, 239.227 L 267.115, 249.475 L 261.235, 247.123 L 257.707, 251.995 L 251.323, 249.307 z "/>
<path style="fill:rgb(0, 0, 255);fill-opacity:0;fill-rule:evenodd;stroke:rgb(255, 45, 0);stroke-width:1;" d="M 123.142, 513.902 L 130.365, 504.158 L 140.109, 508.19 L 132.885, 518.102 L 123.142, 513.902 z "/>
<path style="fill:rgb(255, 255, 0);fill-opacity:0;fill-rule:evenodd;stroke:rgb(255, 45, 0);stroke-width:1;" d="M 0, 368.081 L 10.4158, 353.633 L 29.3994, 327.425 L 40.6552, 332.129 L 37.7992, 335.993 L 65.0147, 347.417 L 67.3667, 344.225 L 81.8144, 350.273 L 75.2625, 359.177 L 53.5909, 389.08 L 52.7509, 390.256 L 0, 368.081 z "/>
<path style="fill:rgb(255, 0, 0);fill-opacity:0;fill-rule:evenodd;stroke:rgb(255, 45, 0);stroke-width:1;" d="M 29.0634, 48.215 L 53.9269, 14.1117 L 49.895, 12.4318 L 54.9349, 5.54389 L 95.4221, 22.5115 L 90.7182, 28.8954 L 88.0302, 27.7194 L 62.6627, 62.3268 L 29.0634, 48.215 z "/>
<path style="fill:rgb(0, 255, 0);fill-opacity:0;fill-rule:evenodd;stroke:rgb(255, 45, 0);stroke-width:1;" d="M 28.8954, 476.774 L 35.6153, 467.535 L 44.5191, 471.231 L 45.5271, 469.887 L 54.2629, 457.959 L 45.3591, 454.263 L 52.7509, 444.351 L 102.142, 465.351 L 95.0861, 475.094 L 86.3503, 471.399 L 76.4385, 484.67 L 85.3423, 488.534 L 78.2864, 497.774 L 28.8954, 476.774 z "/>
<path style="fill:rgb(0, 0, 255);fill-opacity:0;fill-rule:evenodd;stroke:rgb(255, 45, 0);stroke-width:1;" d="M 16.2957, 581.268 L 23.5195, 571.357 L 74.9265, 593.028 L 75.9345, 595.716 L 70.0546, 603.78 L 37.9672, 590.34 L 16.2957, 581.268 z "/>
<path style="fill:rgb(255, 255, 0);fill-opacity:0;fill-rule:evenodd;stroke:rgb(255, 45, 0);stroke-width:1;" d="M 33.7673, 316.842 L 54.9349, 287.61 L 65.8547, 292.314 L 48.887, 315.33 L 43.1751, 312.978 L 38.8072, 319.026 L 33.7673, 316.842 z "/>
<path style="fill:rgb(255, 0, 0);fill-opacity:0;fill-rule:evenodd;stroke:rgb(255, 45, 0);stroke-width:1;" d="M 25.1995, 237.547 L 45.1911, 210.332 L 50.903, 212.684 L 47.3751, 217.556 L 52.415, 219.74 L 36.1193, 242.251 L 25.1995, 237.547 z "/>
<path style="fill:rgb(0, 255, 0);fill-opacity:0;fill-rule:evenodd;stroke:rgb(255, 45, 0);stroke-width:1;" d="M 22.6795, 35.2793 L 27.7194, 28.2234 L 45.3591, 4.19992 L 46.8711, 2.01596 L 54.9349, 5.54389 L 49.895, 12.4318 L 35.2793, 32.5913 L 31.4154, 30.9114 L 26.8795, 37.1273 L 22.6795, 35.2793 z "/>
<path style="fill:rgb(0, 0, 255);fill-opacity:0;fill-rule:evenodd;stroke:rgb(255, 45, 0);stroke-width:1;" d="M 26.2075, 537.925 L 46.1991, 510.542 L 51.911, 513.062 L 46.7031, 520.118 L 49.727, 521.462 L 34.9433, 541.621 L 26.2075, 537.925 z "/>
<path style="fill:rgb(255, 255, 0);fill-opacity:0;fill-rule:evenodd;stroke:rgb(255, 45, 0);stroke-width:1;" d="M 33.4313, 101.134 L 47.711, 81.8144 L 58.2948, 86.1823 L 52.7509, 93.9101 L 44.1831, 105.67 L 33.4313, 101.134 z "/>
<path style="fill:rgb(255, 0, 0);fill-opacity:0;fill-rule:evenodd;stroke:rgb(255, 45, 0);stroke-width:1;" d="M 34.9433, 541.621 L 49.727, 521.462 L 59.1348, 525.325 L 44.3511, 545.485 L 34.9433, 541.621 z "/>
<path style="fill:rgb(0, 255, 0);fill-opacity:0;fill-rule:evenodd;stroke:rgb(255, 45, 0);stroke-width:1;" d="M 866.191, 36.2873 L 879.294, 18.3116 L 885.678, 20.9996 L 886.686, 19.4876 L 888.87, 20.4956 L 897.774, 8.39983 L 947.501, 29.3994 L 938.765, 41.4952 L 940.781, 42.3352 L 939.605, 43.6791 L 945.653, 46.1991 L 939.101, 54.9349 L 932.381, 64.1747 L 904.83, 52.5829 L 913.398, 40.8232 L 902.142, 36.1193 L 893.574, 47.879 L 866.191, 36.2873 z "/>
<path style="fill:rgb(0, 0, 255);fill-opacity:0;fill-rule:evenodd;stroke:rgb(255, 45, 0);stroke-width:1;" d="M 207.812, 37.7992 L 209.828, 34.9433 L 216.38, 25.8715 L 222.932, 28.7274 L 226.291, 27.2155 L 232.843, 18.3116 L 224.444, 14.7837 L 228.979, 8.56783 L 232.507, 3.86392 L 262.747, 16.6317 L 255.019, 27.2155 L 246.619, 23.5195 L 239.899, 32.7593 L 239.899, 35.7833 L 246.619, 38.6392 L 238.051, 50.567 L 207.812, 37.7992 z "/>
<path style="fill:rgb(255, 255, 0);fill-opacity:0;fill-rule:evenodd;stroke:rgb(255, 45, 0);stroke-width:1;" d="M 371.105, 46.7031 L 389.248, 21.8396 L 389.248, 18.9836 L 395.968, 9.74381 L 413.104, 16.9677 L 406.384, 26.2075 L 402.184, 27.3835 L 384.04, 52.247 L 371.105, 46.7031 z "/>
<path style="fill:rgb(255, 0, 0);fill-opacity:0;fill-rule:evenodd;stroke:rgb(255, 45, 0);stroke-width:1;" d="M 564.469, 22.5115 L 572.029, 12.0958 L 597.732, 22.8475 L 607.644, 27.0475 L 606.972, 28.0554 L 614.868, 31.4154 L 608.484, 39.9832 L 602.604, 37.4633 L 599.58, 37.2953 L 564.469, 22.5115 z "/>
<path style="fill:rgb(0, 255, 0);fill-opacity:0;fill-rule:evenodd;stroke:rgb(255, 45, 0);stroke-width:1;" d="M 347.081, 35.2793 L 349.265, 32.0874 L 353.969, 25.7035 L 357.497, 27.2155 L 359.345, 24.6955 L 357.833, 24.1915 L 359.513, 21.6716 L 357.497, 20.8316 L 362.537, 13.9437 L 365.225, 15.1197 L 367.913, 11.2558 L 365.393, 10.0798 L 372.785, 0 L 386.224, 5.71189 L 378.832, 15.7917 L 375.64, 14.4477 L 372.785, 18.1436 L 376.144, 19.4876 L 370.769, 26.8795 L 367.409, 25.5355 L 365.897, 27.5514 L 364.553, 27.0475 L 362.873, 29.5674 L 367.409, 31.4154 L 360.521, 40.8232 L 347.081, 35.2793 z "/>
<path style="fill:rgb(0, 0, 255);fill-opacity:0;fill-rule:evenodd;stroke:rgb(255, 45, 0);stroke-width:1;" d="M 359.681, 41.9992 L 360.521, 40.8232 L 367.409, 31.4154 L 370.769, 26.8795 L 376.144, 19.4876 L 378.832, 15.7917 L 386.224, 5.71189 L 395.968, 9.74381 L 389.248, 18.9836 L 387.232, 18.1436 L 367.577, 45.1911 L 359.681, 41.9992 z "/>
<path style="fill:rgb(255, 255, 0);fill-opacity:0;fill-rule:evenodd;stroke:rgb(255, 45, 0);stroke-width:1;" d="M 200.252, 30.9114 L 214.7, 11.0878 L 219.404, 4.53591 L 228.979, 8.56783 L 224.444, 14.7837 L 216.38, 25.8715 L 209.828, 34.9433 L 200.252, 30.9114 z "/>
<path style="fill:rgb(255, 0, 0);fill-opacity:0;fill-rule:evenodd;stroke:rgb(255, 45, 0);stroke-width:1;" d="M 681.058, 22.8475 L 696.514, 1.67997 L 706.762, 6.04788 L 691.306, 27.2155 L 681.058, 22.8475 z "/>
<path style="fill:rgb(0, 255, 0);fill-opacity:0;fill-rule:evenodd;stroke:rgb(255, 45, 0);stroke-width:1;" d="M 697.522, 35.6153 L 700.882, 31.0794 L 716.17, 9.9118 L 724.57, 13.4397 L 709.282, 34.6073 L 705.922, 39.1432 L 697.522, 35.6153 z "/>
<path style="fill:rgb(0, 0, 255);fill-opacity:0;fill-rule:evenodd;stroke:rgb(255, 45, 0);stroke-width:1;" d="M 691.306, 27.2155 L 706.762, 6.04788 L 716.17, 9.9118 L 700.882, 31.0794 L 691.306, 27.2155 z "/>
<path style="fill:rgb(255, 255, 0);fill-opacity:0;fill-rule:evenodd;stroke:rgb(255, 45, 0);stroke-width:1;" d="M 709.282, 34.6073 L 724.57, 13.4397 L 733.809, 17.4717 L 718.522, 38.4712 L 709.282, 34.6073 z "/>
<path style="fill:rgb(255, 0, 0);fill-opacity:0;fill-rule:evenodd;stroke:rgb(255, 45, 0);stroke-width:1;" d="M 191.012, 27.2155 L 205.628, 7.22386 L 214.7, 11.0878 L 200.252, 30.9114 L 191.012, 27.2155 z "/>
</svg>