<?xml version="1.0" encoding="iso-8859-1" standalone="no"?>
<!DOCTYPE svg PUBLIC "-//W3C//DTD SVG 1.0//EN" "http://www.w3.org/TR/2001/REC-SVG-20010904/DTD/svg10.dtd">
<svg xmlns="http://www.w3.org/2000/svg" width="1090" height="800">
<path style="fill:rgb(255, 0, 0);fill-opacity:0;fill-rule:evenodd;stroke:rgb(255, 0, 168);stroke-width:1;" d="M 198.374, 185.528 L 210.894, 168.455 L 213.659, 164.553 L 251.87, 180.65 L 266.341, 160.813 L 278.211, 165.528 L 291.057, 147.48 L 432.033, 205.528 L 436.911, 207.317 L 430.894, 228.455 L 419.024, 223.577 L 416.911, 222.764 L 413.496, 227.48 L 417.724, 229.268 L 421.626, 231.22 L 424.39, 232.846 L 427.154, 235.285 L 429.106, 237.724 L 430.569, 240.325 L 431.382, 243.577 L 431.545, 247.154 L 430.732, 250.244 L 428.943, 253.659 L 426.992, 256.098 L 424.228, 258.211 L 421.138, 260.163 L 417.398, 261.626 L 413.659, 262.602 L 410.244, 262.927 L 406.341, 262.927 L 402.764, 262.439 L 399.35, 261.626 L 396.911, 260.65 L 391.545, 258.211 L 387.642, 263.577 L 401.301, 269.919 L 411.057, 273.659 L 404.228, 292.358 L 389.593, 286.179 L 388.293, 288.13 L 206.829, 212.358 L 219.837, 194.472 L 198.374, 185.528 z "/>
<path style="fill:rgb(0, 255, 0);fill-opacity:0;fill-rule:evenodd;stroke:rgb(255, 0, 168);stroke-width:1;" d="M 802.439, 195.285 L 824.065, 165.854 L 834.959, 170.569 L 840.65, 162.927 L 855.772, 142.276 L 868.293, 124.715 L 978.211, 170.732 L 968.455, 184.065 L 1039.19, 213.659 L 1007.15, 257.561 L 1041.79, 272.033 L 1027.64, 291.382 L 950.407, 257.886 L 957.236, 247.805 L 859.35, 206.992 L 861.951, 203.415 L 854.309, 200.325 L 844.878, 213.008 L 802.439, 195.285 z "/>
<path style="fill:rgb(0, 0, 255);fill-opacity:0;fill-rule:evenodd;stroke:rgb(255, 0, 168);stroke-width:1;" d="M 184.39, 336.585 L 189.106, 330.244 L 194.472, 332.52 L 202.276, 322.114 L 196.911, 319.837 L 193.496, 318.374 L 198.699, 317.398 L 206.992, 315.61 L 230.569, 283.74 L 226.992, 279.35 L 223.252, 274.797 L 228.618, 277.236 L 239.35, 262.602 L 247.805, 266.179 L 245.366, 269.431 L 255.935, 273.984 L 259.512, 268.943 L 262.764, 276.911 L 307.48, 295.935 L 317.398, 290.894 L 321.463, 291.545 L 383.415, 317.398 L 390.894, 320.65 L 339.024, 391.707 L 332.033, 388.618 L 327.154, 395.447 L 332.52, 400 L 325.854, 397.398 L 260, 370.894 L 251.707, 367.317 L 256.098, 360.163 L 213.821, 342.276 L 203.252, 347.48 L 204.715, 345.203 L 184.39, 336.585 z "/>
<path style="fill:rgb(255, 255, 0);fill-opacity:0;fill-rule:evenodd;stroke:rgb(255, 0, 168);stroke-width:1;" d="M 323.902, 655.935 L 323.902, 652.683 L 324.553, 648.293 L 325.366, 643.252 L 344.715, 583.74 L 345.691, 581.463 L 346.992, 579.512 L 349.756, 576.911 L 353.008, 575.285 L 357.073, 574.146 L 359.837, 573.821 L 363.415, 573.984 L 366.992, 574.797 L 369.919, 576.098 L 487.317, 628.943 L 464.39, 660.163 L 429.919, 707.642 L 387.805, 691.057 L 387.154, 692.033 L 356.098, 678.862 L 341.301, 671.545 L 332.358, 666.829 L 327.48, 662.927 L 325.203, 660 L 323.902, 655.935 z "/>
<path style="fill:rgb(255, 0, 0);fill-opacity:0;fill-rule:evenodd;stroke:rgb(255, 0, 168);stroke-width:1;" d="M 423.252, 420.163 L 454.797, 353.171 L 461.789, 350.894 L 586.667, 403.577 L 557.886, 442.927 L 556.098, 442.114 L 540, 435.285 L 528.13, 451.545 L 516.585, 467.48 L 513.821, 471.057 L 511.707, 473.984 L 427.642, 438.374 L 423.252, 420.163 z "/>
<path style="fill:rgb(0, 255, 0);fill-opacity:0;fill-rule:evenodd;stroke:rgb(255, 0, 168);stroke-width:1;" d="M 429.919, 707.642 L 464.39, 660.163 L 487.317, 628.943 L 498.049, 633.333 L 672.846, 707.48 L 669.919, 711.545 L 604.228, 682.764 L 583.252, 673.496 L 559.187, 704.878 L 553.171, 702.276 L 527.48, 735.935 L 592.683, 764.553 L 586.341, 773.333 L 437.561, 710.894 L 429.919, 707.642 z "/>
<path style="fill:rgb(0, 0, 255);fill-opacity:0;fill-rule:evenodd;stroke:rgb(255, 0, 168);stroke-width:1;" d="M 162.439, 460 L 172.033, 446.667 L 177.561, 448.943 L 198.374, 420.163 L 205.691, 413.821 L 210.732, 406.179 L 216.423, 400.325 L 208.293, 396.911 L 217.724, 383.902 L 219.35, 381.626 L 275.772, 405.366 L 325.203, 426.016 L 268.293, 504.39 L 232.033, 489.106 L 162.439, 460 z "/>
<path style="fill:rgb(255, 255, 0);fill-opacity:0;fill-rule:evenodd;stroke:rgb(255, 0, 168);stroke-width:1;" d="M 467.967, 323.415 L 517.886, 253.008 L 571.382, 274.959 L 576.911, 267.317 L 637.724, 292.033 L 631.545, 300.976 L 609.756, 331.707 L 591.22, 324.228 L 577.073, 344.228 L 572.52, 350.569 L 567.154, 358.049 L 564.065, 362.602 L 467.967, 323.415 z "/>
<path style="fill:rgb(255, 0, 0);fill-opacity:0;fill-rule:evenodd;stroke:rgb(255, 0, 168);stroke-width:1;" d="M 859.35, 206.992 L 861.951, 203.415 L 894.634, 158.537 L 897.561, 154.472 L 968.455, 184.065 L 1039.19, 213.659 L 1000.98, 266.179 L 859.35, 206.992 z "/>
<path style="fill:rgb(0, 255, 0);fill-opacity:0;fill-rule:evenodd;stroke:rgb(255, 0, 168);stroke-width:1;" d="M 938.537, 515.61 L 988.943, 445.691 L 1080.81, 484.065 L 1030.41, 553.984 L 938.537, 515.61 z "/>
<path style="fill:rgb(0, 0, 255);fill-opacity:0;fill-rule:evenodd;stroke:rgb(255, 0, 168);stroke-width:1;" d="M 646.341, 654.146 L 651.057, 647.48 L 664.553, 628.943 L 669.106, 622.602 L 687.967, 596.423 L 693.008, 589.431 L 736.911, 607.642 L 740.976, 601.789 L 787.642, 621.138 L 767.48, 648.943 L 753.984, 643.415 L 747.48, 652.52 L 740.976, 661.463 L 754.309, 666.992 L 730.894, 699.187 L 676.423, 676.585 L 682.114, 668.943 L 646.341, 654.146 z "/>
<path style="fill:rgb(255, 255, 0);fill-opacity:0;fill-rule:evenodd;stroke:rgb(255, 0, 168);stroke-width:1;" d="M 337.561, 659.187 L 337.886, 656.748 L 338.374, 654.146 L 340.163, 651.545 L 347.154, 642.764 L 367.154, 616.26 L 380.65, 598.211 L 407.48, 609.756 L 435.772, 622.114 L 444.065, 625.528 L 473.984, 638.049 L 460.976, 656.26 L 459.512, 658.049 L 441.138, 682.764 L 426.667, 702.764 L 396.26, 690.081 L 371.382, 679.512 L 359.675, 674.472 L 343.415, 667.642 L 340.813, 666.016 L 339.024, 664.065 L 338.049, 661.463 L 337.561, 659.187 z "/>
<path style="fill:rgb(255, 0, 0);fill-opacity:0;fill-rule:evenodd;stroke:rgb(255, 0, 168);stroke-width:1;" d="M 184.39, 336.585 L 189.106, 330.244 L 194.472, 332.52 L 202.276, 322.114 L 206.992, 315.61 L 230.569, 283.74 L 233.821, 279.35 L 228.618, 277.236 L 239.35, 262.602 L 247.805, 266.179 L 245.366, 269.431 L 255.935, 273.984 L 262.764, 276.911 L 307.48, 295.935 L 312.195, 297.886 L 315.285, 293.821 L 333.984, 301.789 L 328.618, 308.943 L 325.366, 307.642 L 319.35, 315.772 L 313.496, 323.577 L 290.894, 354.146 L 287.642, 358.537 L 293.821, 361.138 L 291.382, 364.39 L 282.276, 376.748 L 273.171, 372.846 L 276.26, 368.78 L 264.878, 363.902 L 256.098, 360.163 L 213.821, 342.276 L 208.618, 340.163 L 204.715, 345.203 L 184.39, 336.585 z "/>
<path style="fill:rgb(0, 255, 0);fill-opacity:0;fill-rule:evenodd;stroke:rgb(255, 0, 168);stroke-width:1;" d="M 130.732, 573.659 L 155.772, 539.837 L 138.211, 532.358 L 164.878, 496.098 L 172.846, 499.35 L 175.122, 496.423 L 245.691, 526.179 L 248.455, 532.683 L 234.959, 551.22 L 229.756, 549.106 L 207.967, 578.699 L 207.154, 581.301 L 206.179, 583.74 L 205.041, 586.016 L 204.39, 586.992 L 202.764, 588.943 L 200.813, 590.894 L 198.862, 592.683 L 196.585, 594.309 L 195.61, 594.959 L 192.846, 595.935 L 189.919, 596.911 L 186.992, 597.561 L 185.691, 597.886 L 182.439, 597.886 L 179.35, 597.886 L 177.886, 597.561 L 174.797, 596.911 L 173.496, 596.585 L 170.569, 595.285 L 169.268, 594.634 L 168.13, 593.821 L 165.854, 592.033 L 163.577, 590.244 L 161.463, 588.13 L 160.488, 587.154 L 160.976, 586.341 L 130.732, 573.659 z "/>
<path style="fill:rgb(0, 0, 255);fill-opacity:0;fill-rule:evenodd;stroke:rgb(255, 0, 168);stroke-width:1;" d="M 724.228, 513.008 L 725.854, 510.732 L 731.22, 503.415 L 733.008, 500.976 L 738.211, 493.821 L 739.837, 491.545 L 741.951, 488.943 L 744.553, 485.203 L 745.203, 484.553 L 746.829, 482.114 L 747.967, 480.65 L 843.74, 518.862 L 846.179, 521.138 L 846.992, 523.577 L 846.667, 526.504 L 844.553, 530.081 L 813.821, 571.545 L 810.732, 573.008 L 806.016, 573.008 L 802.764, 571.87 L 797.886, 578.374 L 787.317, 580 L 748.618, 564.228 L 748.13, 555.285 L 737.886, 551.057 L 755.935, 525.854 L 724.228, 513.008 z "/>
<path style="fill:rgb(255, 255, 0);fill-opacity:0;fill-rule:evenodd;stroke:rgb(255, 0, 168);stroke-width:1;" d="M 812.52, 406.667 L 829.919, 382.114 L 831.707, 379.512 L 932.033, 420.488 L 882.114, 491.22 L 821.789, 466.504 L 823.577, 463.902 L 824.715, 462.276 L 831.545, 452.846 L 834.472, 448.455 L 836.098, 446.341 L 837.561, 444.228 L 843.577, 435.447 L 852.52, 422.927 L 812.52, 406.667 z "/>
<path style="fill:rgb(255, 0, 0);fill-opacity:0;fill-rule:evenodd;stroke:rgb(255, 0, 168);stroke-width:1;" d="M 162.439, 460 L 172.033, 446.667 L 177.561, 448.943 L 198.374, 420.163 L 205.691, 413.821 L 210.732, 406.179 L 216.423, 400.325 L 208.293, 396.911 L 217.724, 383.902 L 219.35, 381.626 L 275.772, 405.366 L 273.984, 407.967 L 272.033, 410.569 L 269.919, 413.496 L 259.837, 427.48 L 264.878, 429.593 L 282.439, 437.073 L 280.65, 439.512 L 276.26, 445.528 L 268.78, 442.439 L 262.276, 451.382 L 269.756, 454.472 L 257.073, 472.033 L 255.935, 473.496 L 250.081, 471.057 L 246.341, 469.431 L 236.748, 482.764 L 235.122, 485.041 L 233.496, 487.317 L 232.033, 489.106 L 162.439, 460 z "/>
<path style="fill:rgb(0, 255, 0);fill-opacity:0;fill-rule:evenodd;stroke:rgb(255, 0, 168);stroke-width:1;" d="M 875.122, 355.447 L 876.098, 354.309 L 876.748, 354.634 L 884.39, 344.553 L 883.577, 344.228 L 884.553, 343.089 L 885.203, 343.415 L 892.846, 333.171 L 892.033, 332.846 L 893.008, 331.707 L 893.659, 332.033 L 901.301, 321.951 L 900.65, 321.626 L 901.463, 320.488 L 902.276, 320.813 L 909.756, 310.569 L 909.106, 310.244 L 909.919, 309.106 L 910.732, 309.431 L 918.374, 299.35 L 917.561, 299.024 L 918.537, 297.886 L 919.187, 298.049 L 926.829, 287.967 L 926.016, 287.642 L 926.992, 286.504 L 928.455, 287.154 L 927.967, 287.805 L 941.301, 293.496 L 941.789, 292.846 L 943.252, 293.496 L 942.764, 294.146 L 956.26, 299.837 L 956.585, 299.35 L 958.049, 300 L 957.724, 300.488 L 971.057, 306.179 L 971.545, 305.691 L 973.008, 306.341 L 972.52, 306.829 L 986.016, 312.683 L 986.341, 312.033 L 987.805, 312.683 L 987.48, 313.333 L 1000.81, 319.024 L 1001.3, 318.537 L 1002.76, 319.187 L 1001.79, 320.325 L 1001.14, 320 L 993.496, 330.081 L 994.309, 330.407 L 993.333, 331.545 L 992.52, 331.22 L 985.041, 341.463 L 985.691, 341.789 L 984.715, 342.927 L 984.065, 342.602 L 976.423, 352.683 L 977.236, 353.171 L 976.26, 354.309 L 975.61, 353.984 L 967.967, 364.065 L 968.78, 364.39 L 967.805, 365.528 L 967.154, 365.203 L 959.512, 375.285 L 960.325, 375.61 L 959.35, 376.911 L 958.699, 376.585 L 951.057, 386.667 L 951.707, 386.992 L 950.894, 388.13 L 949.431, 387.48 L 949.919, 386.992 L 936.423, 381.138 L 935.935, 381.789 L 934.472, 381.138 L 934.959, 380.488 L 921.626, 374.797 L 921.138, 375.447 L 919.675, 374.634 L 920.163, 374.146 L 906.829, 368.455 L 906.341, 368.943 L 904.878, 368.293 L 905.203, 367.805 L 891.87, 361.951 L 891.382, 362.602 L 889.919, 361.951 L 890.407, 361.301 L 877.073, 355.61 L 876.585, 356.26 L 875.122, 355.447 z "/>
<path style="fill:rgb(0, 0, 255);fill-opacity:0;fill-rule:evenodd;stroke:rgb(255, 0, 168);stroke-width:1;" d="M 876.748, 354.634 L 884.39, 344.553 L 885.203, 343.415 L 892.846, 333.171 L 893.659, 332.033 L 901.301, 321.951 L 902.276, 320.813 L 909.756, 310.569 L 910.732, 309.431 L 918.374, 299.35 L 919.187, 298.049 L 926.829, 287.967 L 927.48, 288.293 L 927.967, 287.805 L 941.301, 293.496 L 942.764, 294.146 L 956.26, 299.837 L 957.724, 300.488 L 971.057, 306.179 L 972.52, 306.829 L 986.016, 312.683 L 987.48, 313.333 L 1000.81, 319.024 L 1000.33, 319.675 L 1001.14, 320 L 993.496, 330.081 L 992.52, 331.22 L 985.041, 341.463 L 984.065, 342.602 L 976.423, 352.683 L 975.61, 353.984 L 967.967, 364.065 L 967.154, 365.203 L 959.512, 375.285 L 958.699, 376.585 L 951.057, 386.667 L 950.244, 386.341 L 949.919, 386.992 L 936.423, 381.138 L 934.959, 380.488 L 921.626, 374.797 L 920.163, 374.146 L 906.829, 368.455 L 905.203, 367.805 L 891.87, 361.951 L 890.407, 361.301 L 877.073, 355.61 L 877.561, 354.959 L 876.748, 354.634 z "/>
<path style="fill:rgb(255, 255, 0);fill-opacity:0;fill-rule:evenodd;stroke:rgb(255, 0, 168);stroke-width:1;" d="M 364.065, 545.691 L 397.561, 459.35 L 403.74, 459.512 L 469.268, 486.829 L 431.87, 537.561 L 447.642, 544.228 L 426.667, 572.358 L 364.065, 545.691 z "/>
<path style="fill:rgb(255, 0, 0);fill-opacity:0;fill-rule:evenodd;stroke:rgb(255, 0, 168);stroke-width:1;" d="M 773.659, 317.886 L 780.813, 308.13 L 788.618, 297.398 L 792.846, 299.187 L 809.919, 275.772 L 818.374, 279.35 L 827.154, 267.317 L 834.634, 257.073 L 843.577, 245.041 L 910.894, 273.333 L 881.951, 313.008 L 865.041, 305.854 L 836.911, 344.553 L 773.659, 317.886 z "/>
<path style="fill:rgb(0, 255, 0);fill-opacity:0;fill-rule:evenodd;stroke:rgb(255, 0, 168);stroke-width:1;" d="M 193.496, 318.374 L 198.699, 317.398 L 206.992, 315.61 L 230.569, 283.74 L 233.821, 279.35 L 247.805, 285.366 L 255.935, 273.984 L 259.512, 268.943 L 262.764, 276.911 L 307.48, 295.935 L 312.195, 297.886 L 304.065, 309.268 L 319.35, 315.772 L 330.081, 320.325 L 313.496, 323.577 L 290.894, 354.146 L 287.642, 358.537 L 273.171, 352.358 L 264.878, 363.902 L 260, 370.894 L 256.098, 360.163 L 213.821, 342.276 L 208.618, 340.163 L 216.911, 328.455 L 202.276, 322.114 L 196.911, 319.837 L 193.496, 318.374 z "/>
<path style="fill:rgb(0, 0, 255);fill-opacity:0;fill-rule:evenodd;stroke:rgb(255, 0, 168);stroke-width:1;" d="M 646.341, 654.146 L 651.057, 647.48 L 664.553, 628.943 L 669.106, 622.602 L 687.967, 596.423 L 693.008, 589.431 L 736.911, 607.642 L 753.821, 614.634 L 747.967, 622.276 L 764.553, 629.268 L 753.984, 643.415 L 747.48, 652.52 L 740.976, 661.463 L 727.642, 679.35 L 698.049, 666.829 L 693.333, 673.496 L 682.114, 668.943 L 646.341, 654.146 z "/>
<path style="fill:rgb(255, 255, 0);fill-opacity:0;fill-rule:evenodd;stroke:rgb(255, 0, 168);stroke-width:1;" d="M 345.041, 656.098 L 345.366, 653.659 L 346.341, 651.545 L 351.545, 644.553 L 370.894, 617.886 L 375.285, 612.033 L 377.398, 610.081 L 380.163, 608.943 L 382.764, 608.455 L 385.041, 608.13 L 387.967, 608.13 L 391.382, 608.618 L 404.228, 614.146 L 441.138, 629.593 L 453.821, 634.959 L 456.098, 636.748 L 457.561, 638.862 L 458.049, 640.813 L 458.211, 642.602 L 458.049, 644.878 L 457.236, 646.992 L 453.008, 652.846 L 433.333, 679.35 L 428.13, 686.504 L 426.179, 688.455 L 423.577, 689.756 L 420.976, 690.407 L 418.862, 690.732 L 415.772, 690.894 L 412.846, 690.407 L 400, 685.041 L 363.252, 669.593 L 349.106, 663.74 L 346.992, 661.951 L 345.528, 659.675 L 345.203, 657.724 L 345.041, 656.098 z "/>
<path style="fill:rgb(255, 0, 0);fill-opacity:0;fill-rule:evenodd;stroke:rgb(255, 0, 168);stroke-width:1;" d="M 690.244, 282.764 L 718.862, 243.577 L 728.455, 247.642 L 757.073, 208.455 L 786.829, 220.976 L 787.805, 224.715 L 790.732, 226.016 L 792.033, 224.228 L 804.715, 229.593 L 799.187, 237.073 L 785.691, 255.61 L 779.35, 264.39 L 773.171, 272.846 L 779.675, 275.61 L 773.659, 283.902 L 760.163, 302.439 L 754.634, 309.919 L 721.301, 295.61 L 690.244, 282.764 z "/>
<path style="fill:rgb(0, 255, 0);fill-opacity:0;fill-rule:evenodd;stroke:rgb(255, 0, 168);stroke-width:1;" d="M 571.057, 181.301 L 589.431, 156.098 L 596.585, 141.951 L 621.789, 149.106 L 621.626, 151.382 L 633.659, 156.585 L 681.301, 176.585 L 705.203, 186.667 L 703.577, 188.943 L 679.837, 221.463 L 637.724, 203.577 L 634.472, 207.967 L 611.057, 198.049 L 579.024, 184.715 L 575.772, 183.252 L 571.057, 181.301 z "/>
<path style="fill:rgb(0, 0, 255);fill-opacity:0;fill-rule:evenodd;stroke:rgb(255, 0, 168);stroke-width:1;" d="M 651.057, 647.48 L 664.553, 628.943 L 669.106, 622.602 L 687.967, 596.423 L 747.967, 622.276 L 764.553, 629.268 L 753.984, 643.415 L 747.48, 652.52 L 740.976, 661.463 L 727.642, 679.35 L 698.049, 666.829 L 651.057, 647.48 z "/>
<path style="fill:rgb(255, 255, 0);fill-opacity:0;fill-rule:evenodd;stroke:rgb(255, 0, 168);stroke-width:1;" d="M 613.171, 120.163 L 640.65, 82.439 L 644.715, 84.065 L 646.992, 80.813 L 706.341, 105.854 L 716.748, 110.244 L 727.642, 114.959 L 718.049, 127.967 L 705.203, 145.528 L 699.35, 153.821 L 688.293, 149.106 L 694.146, 141.301 L 692.846, 140.813 L 691.382, 142.764 L 686.504, 140.65 L 683.74, 144.553 L 686.016, 145.528 L 683.089, 149.593 L 613.171, 120.163 z "/>
<path style="fill:rgb(255, 0, 0);fill-opacity:0;fill-rule:evenodd;stroke:rgb(255, 0, 168);stroke-width:1;" d="M 206.829, 212.358 L 219.837, 194.472 L 263.252, 212.358 L 281.138, 219.837 L 341.138, 244.553 L 356.423, 250.732 L 387.642, 263.577 L 401.301, 269.919 L 389.593, 286.179 L 388.293, 288.13 L 206.829, 212.358 z "/>
<path style="fill:rgb(0, 255, 0);fill-opacity:0;fill-rule:evenodd;stroke:rgb(255, 0, 168);stroke-width:1;" d="M 552.683, 204.715 L 570.081, 180.813 L 571.057, 181.301 L 575.772, 183.252 L 579.024, 184.715 L 611.057, 198.049 L 634.472, 207.967 L 662.927, 220 L 634.309, 259.187 L 583.74, 237.886 L 594.959, 222.439 L 553.984, 205.203 L 552.683, 204.715 z "/>
<path style="fill:rgb(0, 0, 255);fill-opacity:0;fill-rule:evenodd;stroke:rgb(255, 0, 168);stroke-width:1;" d="M 498.537, 329.106 L 506.829, 317.886 L 520.813, 323.74 L 522.114, 324.228 L 539.512, 300.325 L 538.699, 300 L 524.39, 294.146 L 534.309, 280.813 L 543.089, 284.553 L 548.455, 286.829 L 600.976, 308.943 L 591.22, 324.228 L 577.073, 344.228 L 572.52, 350.569 L 567.154, 358.049 L 512.52, 334.959 L 498.537, 329.106 z "/>
<path style="fill:rgb(255, 255, 0);fill-opacity:0;fill-rule:evenodd;stroke:rgb(255, 0, 168);stroke-width:1;" d="M 713.496, 385.854 L 718.699, 378.537 L 719.024, 377.724 L 727.48, 381.138 L 737.236, 385.203 L 738.699, 383.252 L 733.333, 381.138 L 741.951, 369.106 L 747.154, 371.22 L 753.984, 361.626 L 747.317, 358.862 L 758.699, 342.764 L 830.081, 371.87 L 802.927, 410.407 L 785.041, 403.089 L 797.073, 386.179 L 780.813, 379.512 L 769.593, 395.285 L 780.325, 399.675 L 773.171, 409.919 L 753.333, 401.951 L 743.252, 397.886 L 713.496, 385.854 z "/>
<path style="fill:rgb(255, 0, 0);fill-opacity:0;fill-rule:evenodd;stroke:rgb(255, 0, 168);stroke-width:1;" d="M 748.13, 555.285 L 753.659, 547.317 L 766.016, 530.244 L 773.171, 520.488 L 779.512, 511.545 L 790.407, 507.967 L 828.293, 523.902 L 832.358, 531.057 L 802.764, 571.87 L 797.886, 578.374 L 787.317, 580 L 748.618, 564.228 L 748.13, 555.285 z "/>
<path style="fill:rgb(0, 255, 0);fill-opacity:0;fill-rule:evenodd;stroke:rgb(255, 0, 168);stroke-width:1;" d="M 329.593, 131.545 L 335.122, 124.065 L 330.244, 121.951 L 353.496, 90.2439 L 360.813, 93.3333 L 378.537, 100.813 L 424.715, 120.488 L 416.26, 132.195 L 409.431, 141.463 L 396.26, 159.187 L 395.935, 159.675 L 329.593, 131.545 z "/>
<path style="fill:rgb(0, 0, 255);fill-opacity:0;fill-rule:evenodd;stroke:rgb(255, 0, 168);stroke-width:1;" d="M 279.35, 222.276 L 281.138, 219.837 L 310.569, 179.024 L 312.52, 176.26 L 372.52, 201.138 L 370.569, 203.74 L 341.138, 244.553 L 339.35, 246.992 L 279.35, 222.276 z "/>
<path style="fill:rgb(255, 255, 0);fill-opacity:0;fill-rule:evenodd;stroke:rgb(255, 0, 168);stroke-width:1;" d="M 279.35, 222.276 L 281.138, 219.837 L 310.569, 179.024 L 312.52, 176.26 L 372.52, 201.138 L 370.569, 203.74 L 341.138, 244.553 L 339.35, 246.992 L 279.35, 222.276 z "/>
<path style="fill:rgb(255, 0, 0);fill-opacity:0;fill-rule:evenodd;stroke:rgb(255, 0, 168);stroke-width:1;" d="M 644.553, 479.35 L 647.48, 475.447 L 649.431, 472.846 L 665.041, 451.707 L 667.154, 448.618 L 669.756, 445.041 L 727.967, 469.431 L 725.366, 473.008 L 728.293, 474.309 L 743.902, 480.813 L 746.829, 482.114 L 745.203, 484.553 L 744.553, 485.203 L 741.951, 488.943 L 739.837, 491.545 L 738.211, 493.821 L 733.008, 500.976 L 731.22, 503.415 L 725.854, 510.732 L 724.228, 513.008 L 721.138, 511.707 L 705.691, 505.203 L 704.553, 504.715 L 702.764, 504.065 L 701.301, 503.415 L 689.431, 498.374 L 666.992, 488.78 L 656.098, 484.228 L 653.333, 483.089 L 644.553, 479.35 z "/>
<path style="fill:rgb(0, 255, 0);fill-opacity:0;fill-rule:evenodd;stroke:rgb(255, 0, 168);stroke-width:1;" d="M 512.52, 334.959 L 520.813, 323.74 L 522.114, 324.228 L 539.512, 300.325 L 538.699, 300 L 548.455, 286.829 L 600.976, 308.943 L 591.22, 324.228 L 577.073, 344.228 L 572.52, 350.569 L 567.154, 358.049 L 512.52, 334.959 z "/>
<path style="fill:rgb(0, 0, 255);fill-opacity:0;fill-rule:evenodd;stroke:rgb(255, 0, 168);stroke-width:1;" d="M 467.967, 323.415 L 517.886, 253.008 L 571.382, 274.959 L 576.911, 267.317 L 637.724, 292.033 L 631.545, 300.976 L 554.797, 268.618 L 543.089, 284.553 L 534.309, 280.813 L 524.39, 294.146 L 512.358, 289.106 L 508.293, 294.797 L 494.797, 295.772 L 499.675, 306.667 L 495.122, 313.008 L 506.829, 317.886 L 498.537, 329.106 L 512.52, 334.959 L 567.154, 358.049 L 564.065, 362.602 L 467.967, 323.415 z "/>
<path style="fill:rgb(255, 255, 0);fill-opacity:0;fill-rule:evenodd;stroke:rgb(255, 0, 168);stroke-width:1;" d="M 571.382, 499.024 L 573.333, 496.26 L 575.935, 492.52 L 595.935, 465.366 L 599.512, 460.488 L 584.878, 454.309 L 613.496, 414.959 L 655.772, 432.683 L 632.52, 464.553 L 633.821, 465.041 L 631.382, 468.618 L 628.455, 472.52 L 622.602, 470.081 L 594.309, 508.78 L 571.382, 499.024 z "/>
<path style="fill:rgb(255, 0, 0);fill-opacity:0;fill-rule:evenodd;stroke:rgb(255, 0, 168);stroke-width:1;" d="M 278.211, 165.528 L 291.057, 147.48 L 432.033, 205.528 L 419.024, 223.577 L 416.911, 222.764 L 385.854, 209.919 L 370.569, 203.74 L 310.569, 179.024 L 293.333, 171.87 L 278.211, 165.528 z "/>
<path style="fill:rgb(0, 255, 0);fill-opacity:0;fill-rule:evenodd;stroke:rgb(255, 0, 168);stroke-width:1;" d="M 216.911, 328.455 L 240.488, 295.61 L 247.805, 285.366 L 304.065, 309.268 L 273.171, 352.358 L 230.569, 334.146 L 216.911, 328.455 z "/>
<path style="fill:rgb(0, 0, 255);fill-opacity:0;fill-rule:evenodd;stroke:rgb(255, 0, 168);stroke-width:1;" d="M 739.675, 170.732 L 746.341, 161.789 L 758.374, 145.041 L 767.967, 131.87 L 798.862, 144.878 L 801.463, 146.016 L 829.756, 157.886 L 802.439, 195.285 L 801.301, 196.911 L 780.325, 188.13 L 739.675, 170.732 z "/>
<path style="fill:rgb(255, 255, 0);fill-opacity:0;fill-rule:evenodd;stroke:rgb(255, 0, 168);stroke-width:1;" d="M 560, 704.553 L 604.228, 682.764 L 671.707, 729.106 L 662.927, 749.593 L 560, 704.553 z "/>
<path style="fill:rgb(255, 0, 0);fill-opacity:0;fill-rule:evenodd;stroke:rgb(255, 0, 168);stroke-width:1;" d="M 511.707, 473.984 L 513.821, 471.057 L 516.585, 467.48 L 528.13, 451.545 L 540, 435.285 L 556.098, 442.114 L 557.886, 442.927 L 582.276, 453.171 L 584.878, 454.309 L 599.512, 460.488 L 595.935, 465.366 L 575.935, 492.52 L 573.333, 496.26 L 571.382, 499.024 L 540.325, 486.016 L 529.431, 481.301 L 511.707, 473.984 z "/>
<path style="fill:rgb(0, 255, 0);fill-opacity:0;fill-rule:evenodd;stroke:rgb(255, 0, 168);stroke-width:1;" d="M 369.268, 536.26 L 391.545, 505.691 L 408.13, 482.927 L 447.154, 499.35 L 432.683, 519.187 L 441.951, 523.089 L 425.854, 545.203 L 417.561, 541.789 L 409.268, 553.008 L 369.268, 536.26 z "/>
<path style="fill:rgb(0, 0, 255);fill-opacity:0;fill-rule:evenodd;stroke:rgb(255, 0, 168);stroke-width:1;" d="M 491.545, 598.862 L 516.911, 563.577 L 527.805, 568.13 L 538.374, 572.52 L 550.894, 577.724 L 590.894, 594.472 L 580.813, 608.618 L 565.528, 629.756 L 491.545, 598.862 z M 507.967, 589.756 L 538.374, 603.252 L 546.667, 592.358 L 516.26, 578.862 L 507.967, 589.756 z "/>
<path style="fill:rgb(255, 255, 0);fill-opacity:0;fill-rule:evenodd;stroke:rgb(255, 0, 168);stroke-width:1;" d="M 378.537, 100.813 L 406.667, 62.439 L 478.537, 93.0081 L 471.87, 111.707 L 440.813, 98.5366 L 434.634, 106.992 L 424.715, 120.488 L 378.537, 100.813 z "/>
<path style="fill:rgb(255, 0, 0);fill-opacity:0;fill-rule:evenodd;stroke:rgb(255, 0, 168);stroke-width:1;" d="M 194.634, 156.585 L 223.089, 117.561 L 280.325, 141.789 L 279.512, 142.764 L 266.341, 160.813 L 251.87, 180.65 L 213.659, 164.553 L 194.634, 156.585 z "/>
<path style="fill:rgb(0, 255, 0);fill-opacity:0;fill-rule:evenodd;stroke:rgb(255, 0, 168);stroke-width:1;" d="M 460.65, 586.016 L 469.756, 573.496 L 477.236, 562.927 L 486.341, 550.407 L 517.561, 507.154 L 543.577, 517.886 L 533.171, 532.195 L 527.642, 539.837 L 514.634, 558.049 L 519.35, 560.163 L 516.911, 563.577 L 491.545, 598.862 L 460.65, 586.016 z "/>
<path style="fill:rgb(0, 0, 255);fill-opacity:0;fill-rule:evenodd;stroke:rgb(255, 0, 168);stroke-width:1;" d="M 577.073, 634.472 L 592.195, 613.333 L 602.927, 598.374 L 631.22, 610.244 L 628.618, 613.821 L 648.78, 622.114 L 650.569, 619.837 L 657.073, 622.439 L 655.285, 625.041 L 664.553, 628.943 L 651.057, 647.48 L 646.341, 654.146 L 641.138, 661.138 L 586.992, 638.537 L 577.073, 634.472 z "/>
<path style="fill:rgb(255, 255, 0);fill-opacity:0;fill-rule:evenodd;stroke:rgb(255, 0, 168);stroke-width:1;" d="M 644.553, 479.35 L 647.48, 475.447 L 649.431, 472.846 L 665.041, 451.707 L 667.154, 448.618 L 669.756, 445.041 L 727.967, 469.431 L 725.366, 473.008 L 723.577, 475.285 L 726.504, 476.585 L 726.016, 477.398 L 707.48, 502.927 L 704.553, 501.626 L 702.764, 504.065 L 701.301, 503.415 L 689.431, 498.374 L 666.992, 488.78 L 656.098, 484.228 L 653.333, 483.089 L 644.553, 479.35 z "/>
<path style="fill:rgb(255, 0, 0);fill-opacity:0;fill-rule:evenodd;stroke:rgb(255, 0, 168);stroke-width:1;" d="M 140.976, 262.114 L 163.089, 231.707 L 169.919, 234.634 L 173.659, 229.593 L 220.813, 249.431 L 222.276, 251.22 L 223.089, 253.171 L 217.561, 260.325 L 198.862, 286.504 L 140.976, 262.114 z "/>
<path style="fill:rgb(0, 255, 0);fill-opacity:0;fill-rule:evenodd;stroke:rgb(255, 0, 168);stroke-width:1;" d="M 676.26, 543.415 L 684.228, 532.358 L 696.423, 515.772 L 702.602, 507.317 L 704.553, 504.715 L 705.691, 505.203 L 721.138, 511.707 L 724.228, 513.008 L 755.935, 525.854 L 727.642, 565.041 L 676.26, 543.415 z "/>
<path style="fill:rgb(0, 0, 255);fill-opacity:0;fill-rule:evenodd;stroke:rgb(255, 0, 168);stroke-width:1;" d="M 564.065, 362.602 L 567.154, 358.049 L 572.52, 350.569 L 576.585, 352.195 L 581.138, 345.854 L 577.073, 344.228 L 591.22, 324.228 L 609.756, 331.707 L 631.545, 300.976 L 637.724, 292.033 L 645.528, 295.285 L 644.715, 296.26 L 618.862, 332.846 L 617.398, 334.959 L 635.772, 342.439 L 632.846, 346.504 L 608.618, 380.813 L 586.667, 371.707 L 564.065, 362.602 z "/>
<path style="fill:rgb(255, 255, 0);fill-opacity:0;fill-rule:evenodd;stroke:rgb(255, 0, 168);stroke-width:1;" d="M 649.431, 472.846 L 665.041, 451.707 L 726.016, 477.398 L 744.553, 485.203 L 741.951, 488.943 L 739.837, 491.545 L 738.211, 493.821 L 733.008, 500.976 L 731.22, 503.415 L 725.854, 510.732 L 724.228, 513.008 L 721.138, 511.707 L 705.691, 505.203 L 704.553, 504.715 L 702.764, 504.065 L 704.553, 501.626 L 707.642, 497.398 L 671.707, 482.276 L 649.431, 472.846 z "/>
<path style="fill:rgb(255, 0, 0);fill-opacity:0;fill-rule:evenodd;stroke:rgb(255, 0, 168);stroke-width:1;" d="M 856.26, 619.187 L 877.073, 590.732 L 884.39, 593.821 L 899.675, 600.163 L 941.301, 617.561 L 923.089, 642.602 L 920.65, 646.016 L 892.195, 634.146 L 856.26, 619.187 z "/>
<path style="fill:rgb(0, 255, 0);fill-opacity:0;fill-rule:evenodd;stroke:rgb(255, 0, 168);stroke-width:1;" d="M 643.415, 396.423 L 646.341, 392.195 L 647.48, 390.894 L 648.455, 389.431 L 649.431, 387.967 L 665.366, 366.016 L 668.78, 361.138 L 670.569, 358.699 L 718.699, 378.537 L 713.496, 385.854 L 697.561, 407.967 L 696.585, 409.431 L 695.61, 410.732 L 694.472, 412.195 L 691.545, 416.26 L 643.415, 396.423 z "/>
<path style="fill:rgb(0, 0, 255);fill-opacity:0;fill-rule:evenodd;stroke:rgb(255, 0, 168);stroke-width:1;" d="M 550.894, 577.724 L 561.138, 563.415 L 563.577, 564.553 L 570.569, 554.797 L 566.829, 553.171 L 573.659, 543.74 L 577.561, 545.366 L 584.878, 535.122 L 612.52, 546.504 L 624.715, 551.87 L 596.748, 590.569 L 593.333, 595.447 L 590.894, 594.472 L 550.894, 577.724 z "/>
<path style="fill:rgb(255, 255, 0);fill-opacity:0;fill-rule:evenodd;stroke:rgb(255, 0, 168);stroke-width:1;" d="M 134.797, 182.439 L 160.488, 147.154 L 210.894, 168.455 L 198.374, 185.528 L 185.203, 203.577 L 143.089, 185.854 L 134.797, 182.439 z "/>
<path style="fill:rgb(255, 0, 0);fill-opacity:0;fill-rule:evenodd;stroke:rgb(255, 0, 168);stroke-width:1;" d="M 822.927, 187.154 L 834.959, 170.569 L 840.65, 162.927 L 855.772, 142.276 L 894.634, 158.537 L 861.951, 203.415 L 854.309, 200.325 L 822.927, 187.154 z "/>
<path style="fill:rgb(0, 255, 0);fill-opacity:0;fill-rule:evenodd;stroke:rgb(255, 0, 168);stroke-width:1;" d="M 296.098, 371.057 L 341.301, 309.756 L 374.146, 316.911 L 338.862, 366.016 L 327.48, 361.951 L 311.545, 383.089 L 296.098, 371.057 z "/>
<path style="fill:rgb(0, 0, 255);fill-opacity:0;fill-rule:evenodd;stroke:rgb(255, 0, 168);stroke-width:1;" d="M 625.203, 521.789 L 633.171, 510.732 L 635.935, 510.407 L 646.016, 496.423 L 644.715, 494.959 L 651.87, 485.203 L 654.634, 486.341 L 656.098, 484.228 L 666.992, 488.78 L 665.203, 491.22 L 668.78, 492.683 L 670.244, 495.447 L 667.48, 499.187 L 664.715, 498.211 L 660.976, 503.252 L 664.39, 504.715 L 665.691, 502.927 L 676.098, 507.317 L 674.797, 509.106 L 677.236, 510.244 L 684.878, 499.837 L 687.48, 500.976 L 689.431, 498.374 L 701.301, 503.415 L 699.512, 506.016 L 702.602, 507.317 L 696.423, 515.772 L 694.472, 515.61 L 683.577, 530.569 L 684.228, 532.358 L 676.26, 543.415 L 625.203, 521.789 z "/>
<path style="fill:rgb(255, 255, 0);fill-opacity:0;fill-rule:evenodd;stroke:rgb(255, 0, 168);stroke-width:1;" d="M 628.618, 613.821 L 631.22, 610.244 L 634.146, 606.179 L 661.951, 567.48 L 697.886, 582.439 L 693.008, 589.431 L 687.967, 596.423 L 669.106, 622.602 L 664.553, 628.943 L 655.285, 625.041 L 657.073, 622.439 L 650.569, 619.837 L 648.78, 622.114 L 628.618, 613.821 z "/>
<path style="fill:rgb(255, 0, 0);fill-opacity:0;fill-rule:evenodd;stroke:rgb(255, 0, 168);stroke-width:1;" d="M 855.772, 142.276 L 868.455, 124.715 L 978.211, 170.732 L 968.455, 184.065 L 897.561, 154.472 L 894.634, 158.537 L 855.772, 142.276 z "/>
<path style="fill:rgb(0, 255, 0);fill-opacity:0;fill-rule:evenodd;stroke:rgb(255, 0, 168);stroke-width:1;" d="M 380.163, 100.488 L 399.187, 75.122 L 407.642, 63.4146 L 451.057, 82.2764 L 442.602, 93.8211 L 423.74, 119.187 L 380.163, 100.488 z "/>
<path style="fill:rgb(0, 0, 255);fill-opacity:0;fill-rule:evenodd;stroke:rgb(255, 0, 168);stroke-width:1;" d="M 686.829, 364.553 L 687.48, 363.74 L 714.797, 324.878 L 737.236, 333.984 L 755.447, 341.463 L 727.48, 381.138 L 719.024, 377.724 L 686.829, 364.553 z "/>
<path style="fill:rgb(255, 255, 0);fill-opacity:0;fill-rule:evenodd;stroke:rgb(255, 0, 168);stroke-width:1;" d="M 877.073, 590.732 L 895.447, 565.203 L 956.585, 590.894 L 953.984, 594.472 L 945.528, 606.016 L 948.78, 607.48 L 948.618, 607.642 L 941.301, 617.561 L 899.675, 600.163 L 884.39, 593.821 L 877.073, 590.732 z "/>
<path style="fill:rgb(255, 0, 0);fill-opacity:0;fill-rule:evenodd;stroke:rgb(255, 0, 168);stroke-width:1;" d="M 812.52, 406.667 L 829.919, 382.114 L 920, 419.187 L 915.935, 424.715 L 922.114, 427.48 L 883.415, 480.65 L 877.886, 478.374 L 873.821, 484.553 L 823.577, 463.902 L 824.715, 462.276 L 831.545, 452.846 L 834.309, 453.984 L 829.593, 460.813 L 834.472, 462.764 L 833.171, 464.553 L 868.13, 478.537 L 869.593, 476.423 L 873.821, 478.211 L 880, 477.073 L 884.228, 471.057 L 885.854, 471.707 L 896.098, 457.073 L 902.114, 448.455 L 912.358, 434.309 L 910.732, 433.496 L 915.285, 427.317 L 912.846, 422.927 L 908.78, 421.138 L 910.244, 419.024 L 875.447, 404.878 L 874.146, 406.667 L 869.268, 404.715 L 864.553, 411.382 L 861.789, 410.244 L 857.073, 416.911 L 855.61, 418.699 L 852.52, 422.927 L 812.52, 406.667 z "/>
<path style="fill:rgb(0, 255, 0);fill-opacity:0;fill-rule:evenodd;stroke:rgb(255, 0, 168);stroke-width:1;" d="M 251.707, 367.317 L 256.098, 360.163 L 264.878, 363.902 L 276.26, 368.78 L 273.171, 372.846 L 282.276, 376.748 L 291.382, 364.39 L 293.821, 361.138 L 298.374, 363.089 L 290.894, 354.146 L 313.496, 323.577 L 319.35, 315.772 L 325.366, 307.642 L 328.618, 308.943 L 333.984, 301.789 L 315.285, 293.821 L 317.398, 290.894 L 321.463, 291.545 L 383.415, 317.398 L 390.894, 320.65 L 382.439, 318.699 L 374.146, 316.911 L 341.301, 309.756 L 296.098, 371.057 L 311.545, 383.089 L 327.154, 395.447 L 332.52, 400 L 325.854, 397.398 L 260, 370.894 L 251.707, 367.317 z "/>
<path style="fill:rgb(0, 0, 255);fill-opacity:0;fill-rule:evenodd;stroke:rgb(255, 0, 168);stroke-width:1;" d="M 645.528, 80.1626 L 659.35, 61.3008 L 699.512, 78.2114 L 706.992, 67.8049 L 713.496, 58.8618 L 723.902, 63.4146 L 723.089, 64.5528 L 733.496, 68.9431 L 706.341, 105.854 L 646.992, 80.813 L 645.528, 80.1626 z "/>
<path style="fill:rgb(255, 255, 0);fill-opacity:0;fill-rule:evenodd;stroke:rgb(255, 0, 168);stroke-width:1;" d="M 234.146, 91.2195 L 262.927, 51.8699 L 301.789, 68.2927 L 272.846, 107.48 L 234.146, 91.2195 z "/>
<path style="fill:rgb(255, 0, 0);fill-opacity:0;fill-rule:evenodd;stroke:rgb(255, 0, 168);stroke-width:1;" d="M 519.024, 468.618 L 522.439, 463.902 L 526.504, 458.374 L 532.846, 460.976 L 537.073, 455.285 L 539.837, 451.545 L 546.992, 454.472 L 556.098, 442.114 L 557.886, 442.927 L 582.276, 453.171 L 578.699, 458.211 L 595.935, 465.366 L 575.935, 492.52 L 568.293, 489.268 L 527.317, 472.195 L 519.024, 468.618 z "/>
<path style="fill:rgb(0, 255, 0);fill-opacity:0;fill-rule:evenodd;stroke:rgb(255, 0, 168);stroke-width:1;" d="M 543.089, 284.553 L 554.797, 268.618 L 631.545, 300.976 L 609.756, 331.707 L 591.22, 324.228 L 600.976, 308.943 L 548.455, 286.829 L 543.089, 284.553 z "/>
<path style="fill:rgb(0, 0, 255);fill-opacity:0;fill-rule:evenodd;stroke:rgb(255, 0, 168);stroke-width:1;" d="M 895.447, 565.203 L 913.333, 540.65 L 974.472, 566.341 L 973.659, 567.48 L 969.268, 573.496 L 956.585, 590.894 L 895.447, 565.203 z "/>
<path style="fill:rgb(255, 255, 0);fill-opacity:0;fill-rule:evenodd;stroke:rgb(255, 0, 168);stroke-width:1;" d="M 761.301, 129.106 L 789.593, 90.2439 L 827.154, 106.016 L 798.862, 144.878 L 767.967, 131.87 L 761.301, 129.106 z "/>
<path style="fill:rgb(255, 0, 0);fill-opacity:0;fill-rule:evenodd;stroke:rgb(255, 0, 168);stroke-width:1;" d="M 801.463, 146.016 L 811.382, 132.358 L 814.472, 133.659 L 833.008, 108.455 L 847.967, 114.797 L 868.943, 123.74 L 868.455, 124.715 L 855.772, 142.276 L 840.65, 162.927 L 829.756, 157.886 L 801.463, 146.016 z "/>
<path style="fill:rgb(0, 255, 0);fill-opacity:0;fill-rule:evenodd;stroke:rgb(255, 0, 168);stroke-width:1;" d="M 596.748, 590.569 L 624.715, 551.87 L 661.951, 567.48 L 634.146, 606.179 L 596.748, 590.569 z "/>
<path style="fill:rgb(0, 0, 255);fill-opacity:0;fill-rule:evenodd;stroke:rgb(255, 0, 168);stroke-width:1;" d="M 699.35, 153.821 L 705.203, 145.528 L 707.967, 146.829 L 720.976, 129.106 L 718.049, 127.967 L 727.642, 114.959 L 734.309, 117.724 L 743.577, 121.626 L 761.301, 129.106 L 767.967, 131.87 L 758.374, 145.041 L 755.447, 143.902 L 743.252, 160.488 L 746.341, 161.789 L 739.675, 170.732 L 699.35, 153.821 z M 727.805, 144.878 L 733.984, 147.317 L 740.976, 137.724 L 734.797, 135.122 L 727.805, 144.878 z M 721.951, 152.683 L 728.13, 155.285 L 732.358, 149.431 L 726.341, 146.829 L 721.951, 152.683 z "/>
<path style="fill:rgb(255, 255, 0);fill-opacity:0;fill-rule:evenodd;stroke:rgb(255, 0, 168);stroke-width:1;" d="M 868.455, 615.772 L 884.39, 593.821 L 899.675, 600.163 L 941.301, 617.561 L 923.089, 642.602 L 894.634, 630.732 L 881.463, 625.203 L 883.74, 622.276 L 868.455, 615.772 z "/>
<path style="fill:rgb(255, 0, 0);fill-opacity:0;fill-rule:evenodd;stroke:rgb(255, 0, 168);stroke-width:1;" d="M 989.106, 677.561 L 998.537, 664.553 L 1002.11, 664.065 L 1008.78, 654.797 L 1007.32, 652.683 L 1016.26, 640.325 L 1053.01, 655.772 L 1043.41, 668.943 L 1038.86, 675.122 L 1027.15, 691.22 L 1025.85, 693.008 L 989.106, 677.561 z "/>
<path style="fill:rgb(0, 255, 0);fill-opacity:0;fill-rule:evenodd;stroke:rgb(255, 0, 168);stroke-width:1;" d="M 685.203, 223.74 L 708.943, 191.22 L 744.878, 206.341 L 721.138, 238.862 L 715.447, 236.423 L 712.358, 240.813 L 709.593, 239.675 L 698.537, 234.959 L 691.707, 232.033 L 694.797, 227.642 L 685.203, 223.74 z "/>
<path style="fill:rgb(0, 0, 255);fill-opacity:0;fill-rule:evenodd;stroke:rgb(255, 0, 168);stroke-width:1;" d="M 607.967, 381.789 L 608.618, 380.813 L 632.846, 346.504 L 668.78, 361.138 L 665.366, 366.016 L 649.431, 387.967 L 648.455, 389.431 L 647.48, 390.894 L 646.341, 392.195 L 643.415, 396.423 L 607.967, 381.789 z "/>
<path style="fill:rgb(255, 255, 0);fill-opacity:0;fill-rule:evenodd;stroke:rgb(255, 0, 168);stroke-width:1;" d="M 837.561, 444.228 L 843.577, 435.447 L 852.52, 422.927 L 855.61, 418.699 L 901.789, 437.398 L 903.252, 440.813 L 898.699, 447.154 L 892.683, 455.772 L 888.293, 461.951 L 883.74, 463.089 L 837.561, 444.228 z "/>
<path style="fill:rgb(255, 0, 0);fill-opacity:0;fill-rule:evenodd;stroke:rgb(255, 0, 168);stroke-width:1;" d="M 649.431, 472.846 L 665.041, 451.707 L 726.016, 477.398 L 707.48, 502.927 L 705.691, 505.203 L 704.553, 504.715 L 702.764, 504.065 L 704.553, 501.626 L 707.642, 497.398 L 709.431, 494.797 L 673.659, 479.675 L 671.707, 482.276 L 649.431, 472.846 z "/>
<path style="fill:rgb(0, 255, 0);fill-opacity:0;fill-rule:evenodd;stroke:rgb(255, 0, 168);stroke-width:1;" d="M 611.057, 198.049 L 616.748, 190.407 L 675.447, 214.959 L 679.024, 209.919 L 687.48, 198.374 L 690.407, 194.146 L 673.333, 186.992 L 626.341, 166.992 L 629.756, 162.114 L 633.659, 156.585 L 681.301, 176.585 L 705.203, 186.667 L 703.577, 188.943 L 679.837, 221.463 L 637.724, 203.577 L 634.472, 207.967 L 611.057, 198.049 z "/>
<path style="fill:rgb(0, 0, 255);fill-opacity:0;fill-rule:evenodd;stroke:rgb(255, 0, 168);stroke-width:1;" d="M 741.951, 488.943 L 744.553, 485.203 L 745.203, 484.553 L 746.829, 482.114 L 747.967, 480.65 L 843.74, 518.862 L 846.179, 521.138 L 846.992, 523.577 L 846.667, 526.504 L 844.553, 530.081 L 813.821, 571.545 L 810.732, 573.008 L 806.016, 573.008 L 802.764, 571.87 L 832.358, 531.057 L 828.293, 523.902 L 790.407, 507.967 L 741.951, 488.943 z "/>
<path style="fill:rgb(255, 255, 0);fill-opacity:0;fill-rule:evenodd;stroke:rgb(255, 0, 168);stroke-width:1;" d="M 753.659, 547.317 L 766.016, 530.244 L 773.171, 520.488 L 778.374, 519.35 L 809.431, 532.195 L 811.057, 536.098 L 791.382, 563.252 L 786.504, 564.39 L 754.797, 551.22 L 753.659, 547.317 z "/>
<path style="fill:rgb(255, 0, 0);fill-opacity:0;fill-rule:evenodd;stroke:rgb(255, 0, 168);stroke-width:1;" d="M 323.902, 655.935 L 323.902, 652.683 L 324.553, 648.293 L 325.366, 643.252 L 344.715, 583.74 L 344.39, 586.829 L 344.878, 589.106 L 345.691, 591.057 L 346.667, 592.358 L 347.48, 593.333 L 349.106, 594.634 L 352.033, 596.585 L 357.561, 598.211 L 363.74, 598.211 L 367.642, 597.073 L 369.756, 596.098 L 344.39, 629.919 L 348.943, 631.707 L 342.276, 640.488 L 347.154, 642.764 L 340.163, 651.545 L 338.374, 654.146 L 337.886, 656.748 L 337.561, 659.187 L 338.049, 661.463 L 339.024, 664.065 L 340.813, 666.016 L 343.415, 667.642 L 359.675, 674.472 L 371.382, 679.512 L 368.78, 683.089 L 387.805, 691.057 L 387.154, 692.033 L 356.098, 678.862 L 341.301, 671.545 L 332.358, 666.829 L 327.48, 662.927 L 325.203, 660 L 323.902, 655.935 z "/>
<path style="fill:rgb(0, 255, 0);fill-opacity:0;fill-rule:evenodd;stroke:rgb(255, 0, 168);stroke-width:1;" d="M 586.341, 773.333 L 592.683, 764.553 L 621.301, 777.073 L 643.577, 786.992 L 669.431, 753.333 L 677.561, 756.911 L 701.626, 725.528 L 669.919, 711.545 L 672.846, 707.48 L 707.48, 722.114 L 649.756, 800 L 586.341, 773.333 z "/>
<path style="fill:rgb(0, 0, 255);fill-opacity:0;fill-rule:evenodd;stroke:rgb(255, 0, 168);stroke-width:1;" d="M 243.252, 627.967 L 262.927, 604.065 L 285.041, 574.309 L 296.26, 579.187 L 285.041, 611.87 L 275.122, 641.789 L 243.252, 627.967 z "/>
<path style="fill:rgb(255, 255, 0);fill-opacity:0;fill-rule:evenodd;stroke:rgb(255, 0, 168);stroke-width:1;" d="M 594.309, 508.78 L 622.602, 470.081 L 628.455, 472.52 L 644.553, 479.35 L 653.333, 483.089 L 651.87, 485.203 L 644.715, 494.959 L 633.171, 510.732 L 625.203, 521.789 L 613.984, 517.073 L 619.187, 509.919 L 610.081, 506.016 L 604.878, 513.171 L 594.309, 508.78 z "/>
<path style="fill:rgb(255, 0, 0);fill-opacity:0;fill-rule:evenodd;stroke:rgb(255, 0, 168);stroke-width:1;" d="M 380.163, 100.488 L 399.187, 75.122 L 442.602, 93.8211 L 423.74, 119.187 L 380.163, 100.488 z "/>
<path style="fill:rgb(0, 255, 0);fill-opacity:0;fill-rule:evenodd;stroke:rgb(255, 0, 168);stroke-width:1;" d="M 950.407, 257.886 L 957.236, 247.805 L 1000.98, 266.179 L 1007.15, 257.561 L 1041.79, 272.033 L 1027.64, 291.382 L 950.407, 257.886 z "/>
<path style="fill:rgb(0, 0, 255);fill-opacity:0;fill-rule:evenodd;stroke:rgb(255, 0, 168);stroke-width:1;" d="M 557.886, 442.927 L 586.667, 403.577 L 613.496, 414.959 L 584.878, 454.309 L 582.276, 453.171 L 557.886, 442.927 z "/>
<path style="fill:rgb(255, 255, 0);fill-opacity:0;fill-rule:evenodd;stroke:rgb(255, 0, 168);stroke-width:1;" d="M 369.919, 576.098 L 487.317, 628.943 L 464.39, 660.163 L 459.512, 658.049 L 460.976, 656.26 L 473.984, 638.049 L 444.065, 625.528 L 435.772, 622.114 L 438.537, 618.374 L 425.203, 612.683 L 427.642, 609.268 L 376.748, 587.154 L 376.748, 586.016 L 376.423, 583.74 L 375.772, 581.789 L 374.146, 579.35 L 372.195, 577.561 L 369.919, 576.098 z "/>
<path style="fill:rgb(255, 0, 0);fill-opacity:0;fill-rule:evenodd;stroke:rgb(255, 0, 168);stroke-width:1;" d="M 724.228, 513.008 L 725.854, 510.732 L 731.22, 503.415 L 733.008, 500.976 L 738.211, 493.821 L 739.837, 491.545 L 741.951, 488.943 L 790.407, 507.967 L 779.512, 511.545 L 773.171, 520.488 L 766.016, 530.244 L 755.935, 525.854 L 724.228, 513.008 z "/>
<path style="fill:rgb(0, 255, 0);fill-opacity:0;fill-rule:evenodd;stroke:rgb(255, 0, 168);stroke-width:1;" d="M 299.187, 118.699 L 327.967, 79.187 L 353.496, 90.2439 L 330.244, 121.951 L 324.715, 129.431 L 299.187, 118.699 z "/>
<path style="fill:rgb(0, 0, 255);fill-opacity:0;fill-rule:evenodd;stroke:rgb(255, 0, 168);stroke-width:1;" d="M 650.407, 388.455 L 666.179, 366.504 L 712.358, 385.528 L 696.585, 407.48 L 650.407, 388.455 z "/>
<path style="fill:rgb(255, 255, 0);fill-opacity:0;fill-rule:evenodd;stroke:rgb(255, 0, 168);stroke-width:1;" d="M 374.472, 654.309 L 394.146, 627.805 L 430.894, 643.415 L 411.22, 669.919 L 374.472, 654.309 z "/>
<path style="fill:rgb(255, 0, 0);fill-opacity:0;fill-rule:evenodd;stroke:rgb(255, 0, 168);stroke-width:1;" d="M 645.203, 263.74 L 673.821, 224.553 L 691.707, 232.033 L 698.537, 234.959 L 670.081, 274.309 L 645.203, 263.74 z "/>
<path style="fill:rgb(0, 255, 0);fill-opacity:0;fill-rule:evenodd;stroke:rgb(255, 0, 168);stroke-width:1;" d="M 416.26, 132.195 L 424.715, 120.488 L 434.634, 106.992 L 468.455, 121.301 L 458.374, 149.919 L 416.26, 132.195 z "/>
<path style="fill:rgb(0, 0, 255);fill-opacity:0;fill-rule:evenodd;stroke:rgb(255, 0, 168);stroke-width:1;" d="M 676.423, 676.585 L 682.114, 668.943 L 693.333, 673.496 L 698.049, 666.829 L 727.642, 679.35 L 740.976, 661.463 L 754.309, 666.992 L 730.894, 699.187 L 676.423, 676.585 z "/>
<path style="fill:rgb(255, 255, 0);fill-opacity:0;fill-rule:evenodd;stroke:rgb(255, 0, 168);stroke-width:1;" d="M 429.756, 573.008 L 438.862, 560.325 L 446.667, 563.577 L 453.496, 554.146 L 452.033, 552.195 L 446.341, 549.919 L 452.358, 541.626 L 455.285, 537.561 L 457.073, 538.211 L 465.366, 541.789 L 486.341, 550.407 L 477.236, 562.927 L 469.268, 559.512 L 461.626, 570.081 L 469.756, 573.496 L 460.65, 586.016 L 429.756, 573.008 z "/>
<path style="fill:rgb(255, 0, 0);fill-opacity:0;fill-rule:evenodd;stroke:rgb(255, 0, 168);stroke-width:1;" d="M 465.366, 541.789 L 496.585, 498.374 L 517.561, 507.154 L 486.341, 550.407 L 465.366, 541.789 z "/>
<path style="fill:rgb(0, 255, 0);fill-opacity:0;fill-rule:evenodd;stroke:rgb(255, 0, 168);stroke-width:1;" d="M 691.545, 416.26 L 694.472, 412.195 L 695.61, 410.732 L 696.585, 409.431 L 697.561, 407.967 L 713.496, 385.854 L 743.252, 397.886 L 721.463, 428.618 L 710.732, 424.228 L 691.545, 416.26 z "/>
<path style="fill:rgb(0, 0, 255);fill-opacity:0;fill-rule:evenodd;stroke:rgb(255, 0, 168);stroke-width:1;" d="M 786.992, 456.26 L 795.285, 444.553 L 803.902, 447.967 L 806.667, 447.48 L 811.87, 440.163 L 810.732, 436.26 L 803.252, 433.333 L 811.22, 422.114 L 843.577, 435.447 L 837.561, 444.228 L 836.098, 446.341 L 834.472, 448.455 L 827.48, 445.691 L 817.724, 459.512 L 824.715, 462.276 L 823.577, 463.902 L 821.789, 466.504 L 819.512, 469.756 L 786.992, 456.26 z "/>
<path style="fill:rgb(255, 255, 0);fill-opacity:0;fill-rule:evenodd;stroke:rgb(255, 0, 168);stroke-width:1;" d="M 396.26, 159.187 L 409.431, 141.463 L 454.634, 160.65 L 447.154, 181.463 L 446.992, 182.114 L 396.26, 159.187 z "/>
<path style="fill:rgb(255, 0, 0);fill-opacity:0;fill-rule:evenodd;stroke:rgb(255, 0, 168);stroke-width:1;" d="M 966.341, 667.805 L 967.642, 665.854 L 976.26, 654.146 L 980.163, 648.943 L 984.39, 650.732 L 987.317, 646.667 L 983.089, 644.878 L 984.715, 642.764 L 987.805, 638.374 L 990.894, 639.675 L 999.024, 628.618 L 1007.48, 632.195 L 1018.7, 636.911 L 1016.26, 640.325 L 1007.32, 652.683 L 998.537, 664.553 L 989.106, 677.561 L 966.341, 667.805 z "/>
<path style="fill:rgb(0, 255, 0);fill-opacity:0;fill-rule:evenodd;stroke:rgb(255, 0, 168);stroke-width:1;" d="M 953.984, 594.472 L 956.585, 590.894 L 969.268, 573.496 L 973.659, 567.48 L 1005.04, 580.65 L 1000.65, 586.667 L 985.366, 607.642 L 953.984, 594.472 z "/>
<path style="fill:rgb(0, 0, 255);fill-opacity:0;fill-rule:evenodd;stroke:rgb(255, 0, 168);stroke-width:1;" d="M 304.553, 212.846 L 304.715, 210.081 L 305.366, 207.805 L 306.179, 206.016 L 307.317, 204.39 L 308.618, 202.602 L 310.732, 200.813 L 312.683, 199.512 L 314.959, 198.374 L 318.374, 197.073 L 320.813, 196.423 L 323.902, 196.098 L 325.041, 195.935 L 326.667, 195.935 L 328.455, 196.098 L 329.756, 196.26 L 331.87, 196.585 L 333.984, 197.073 L 335.935, 197.886 L 337.236, 198.374 L 339.187, 199.512 L 341.626, 201.138 L 343.089, 202.439 L 344.39, 203.902 L 345.528, 205.691 L 346.667, 207.967 L 347.154, 209.919 L 347.48, 211.87 L 347.317, 213.659 L 346.992, 215.447 L 346.016, 217.886 L 344.878, 219.837 L 343.577, 221.463 L 341.951, 223.089 L 339.837, 224.715 L 337.398, 226.016 L 335.122, 226.829 L 332.846, 227.642 L 330.081, 228.13 L 327.967, 228.455 L 325.854, 228.455 L 322.927, 228.293 L 321.301, 228.13 L 319.837, 227.805 L 317.724, 227.154 L 315.61, 226.504 L 313.659, 225.528 L 311.87, 224.39 L 310.569, 223.415 L 308.943, 222.114 L 308.13, 221.301 L 307.154, 220 L 306.016, 218.211 L 305.203, 216.098 L 304.878, 214.959 L 304.553, 212.846 z "/>
<path style="fill:rgb(255, 255, 0);fill-opacity:0;fill-rule:evenodd;stroke:rgb(255, 0, 168);stroke-width:1;" d="M 599.187, 169.106 L 601.626, 166.016 L 602.439, 165.366 L 603.902, 165.041 L 605.528, 164.715 L 607.642, 164.715 L 687.48, 198.374 L 679.024, 209.919 L 620.325, 185.528 L 624.553, 179.837 L 599.187, 169.106 z "/>
<path style="fill:rgb(255, 0, 0);fill-opacity:0;fill-rule:evenodd;stroke:rgb(255, 0, 168);stroke-width:1;" d="M 311.545, 383.089 L 327.48, 361.951 L 338.862, 366.016 L 374.146, 316.911 L 382.439, 318.699 L 332.033, 388.618 L 327.154, 395.447 L 311.545, 383.089 z "/>
<path style="fill:rgb(0, 255, 0);fill-opacity:0;fill-rule:evenodd;stroke:rgb(255, 0, 168);stroke-width:1;" d="M 411.22, 669.919 L 430.894, 643.415 L 453.008, 652.846 L 460.976, 656.26 L 459.512, 658.049 L 441.138, 682.764 L 433.333, 679.35 L 411.22, 669.919 z "/>
<path style="fill:rgb(0, 0, 255);fill-opacity:0;fill-rule:evenodd;stroke:rgb(255, 0, 168);stroke-width:1;" d="M 763.74, 446.829 L 786.179, 415.285 L 787.967, 412.683 L 811.22, 422.114 L 803.252, 433.333 L 795.285, 444.553 L 786.992, 456.26 L 763.74, 446.829 z "/>
<path style="fill:rgb(255, 255, 0);fill-opacity:0;fill-rule:evenodd;stroke:rgb(255, 0, 168);stroke-width:1;" d="M 821.789, 466.504 L 823.577, 463.902 L 873.821, 484.553 L 877.886, 478.374 L 883.415, 480.65 L 922.114, 427.48 L 915.935, 424.715 L 920, 419.187 L 829.919, 382.114 L 831.707, 379.512 L 932.033, 420.488 L 882.114, 491.22 L 821.789, 466.504 z "/>
<path style="fill:rgb(255, 0, 0);fill-opacity:0;fill-rule:evenodd;stroke:rgb(255, 0, 168);stroke-width:1;" d="M 252.358, 478.374 L 254.634, 475.122 L 255.935, 473.496 L 255.935, 473.496 L 257.073, 472.033 L 269.756, 454.472 L 276.26, 445.528 L 280.65, 439.512 L 282.439, 437.073 L 282.927, 436.423 L 285.203, 433.008 L 301.951, 440.163 L 299.675, 443.415 L 297.398, 446.504 L 273.659, 479.024 L 271.382, 482.114 L 269.106, 485.366 L 252.358, 478.374 z "/>
<path style="fill:rgb(0, 255, 0);fill-opacity:0;fill-rule:evenodd;stroke:rgb(255, 0, 168);stroke-width:1;" d="M 977.073, 619.35 L 985.366, 607.642 L 1000.65, 586.667 L 1005.04, 580.65 L 1005.85, 579.512 L 1026.5, 588.293 L 1000.81, 623.74 L 983.415, 616.423 L 980.325, 620.65 L 977.073, 619.35 z "/>
<path style="fill:rgb(0, 0, 255);fill-opacity:0;fill-rule:evenodd;stroke:rgb(255, 0, 168);stroke-width:1;" d="M 359.675, 674.472 L 363.252, 669.593 L 374.472, 654.309 L 411.22, 669.919 L 400, 685.041 L 396.26, 690.081 L 371.382, 679.512 L 359.675, 674.472 z "/>
<path style="fill:rgb(255, 255, 0);fill-opacity:0;fill-rule:evenodd;stroke:rgb(255, 0, 168);stroke-width:1;" d="M 611.057, 198.049 L 616.748, 190.407 L 675.447, 214.959 L 679.024, 209.919 L 687.48, 198.374 L 690.407, 194.146 L 673.333, 186.992 L 681.301, 176.585 L 705.203, 186.667 L 703.577, 188.943 L 679.837, 221.463 L 637.724, 203.577 L 634.472, 207.967 L 611.057, 198.049 z "/>
<path style="fill:rgb(255, 0, 0);fill-opacity:0;fill-rule:evenodd;stroke:rgb(255, 0, 168);stroke-width:1;" d="M 802.439, 195.285 L 824.065, 165.854 L 834.959, 170.569 L 822.927, 187.154 L 854.309, 200.325 L 844.878, 213.008 L 802.439, 195.285 z "/>
<path style="fill:rgb(0, 255, 0);fill-opacity:0;fill-rule:evenodd;stroke:rgb(255, 0, 168);stroke-width:1;" d="M 347.154, 642.764 L 367.154, 616.26 L 370.894, 617.886 L 394.146, 627.805 L 374.472, 654.309 L 351.545, 644.553 L 347.154, 642.764 z "/>
<path style="fill:rgb(0, 0, 255);fill-opacity:0;fill-rule:evenodd;stroke:rgb(255, 0, 168);stroke-width:1;" d="M 844.878, 441.789 L 856.911, 424.878 L 896.26, 440.813 L 898.699, 447.154 L 892.683, 455.772 L 884.228, 457.724 L 844.878, 441.789 z "/>
<path style="fill:rgb(255, 255, 0);fill-opacity:0;fill-rule:evenodd;stroke:rgb(255, 0, 168);stroke-width:1;" d="M 263.252, 212.358 L 265.203, 209.593 L 278.537, 191.87 L 293.333, 171.87 L 310.569, 179.024 L 281.138, 219.837 L 263.252, 212.358 z "/>
<path style="fill:rgb(255, 0, 0);fill-opacity:0;fill-rule:evenodd;stroke:rgb(255, 0, 168);stroke-width:1;" d="M 743.577, 121.626 L 771.87, 82.7642 L 789.593, 90.2439 L 761.301, 129.106 L 743.577, 121.626 z "/>
<path style="fill:rgb(0, 255, 0);fill-opacity:0;fill-rule:evenodd;stroke:rgb(255, 0, 168);stroke-width:1;" d="M 736.911, 607.642 L 740.976, 601.789 L 787.642, 621.138 L 767.48, 648.943 L 753.984, 643.415 L 764.553, 629.268 L 747.967, 622.276 L 753.821, 614.634 L 736.911, 607.642 z "/>
<path style="fill:rgb(0, 0, 255);fill-opacity:0;fill-rule:evenodd;stroke:rgb(255, 0, 168);stroke-width:1;" d="M 716.748, 110.244 L 745.203, 71.3821 L 762.764, 78.8618 L 734.309, 117.724 L 727.642, 114.959 L 716.748, 110.244 z "/>
<path style="fill:rgb(255, 255, 0);fill-opacity:0;fill-rule:evenodd;stroke:rgb(255, 0, 168);stroke-width:1;" d="M 360.813, 93.3333 L 388.943, 54.9593 L 406.667, 62.439 L 378.537, 100.813 L 360.813, 93.3333 z "/>
<path style="fill:rgb(255, 0, 0);fill-opacity:0;fill-rule:evenodd;stroke:rgb(255, 0, 168);stroke-width:1;" d="M 243.252, 627.967 L 262.927, 604.065 L 285.041, 611.87 L 275.122, 641.789 L 243.252, 627.967 z "/>
<path style="fill:rgb(0, 255, 0);fill-opacity:0;fill-rule:evenodd;stroke:rgb(255, 0, 168);stroke-width:1;" d="M 391.545, 258.211 L 413.496, 227.48 L 417.724, 229.268 L 421.626, 231.22 L 424.39, 232.846 L 427.154, 235.285 L 429.106, 237.724 L 430.569, 240.325 L 431.382, 243.577 L 431.545, 247.154 L 430.732, 250.244 L 428.943, 253.659 L 426.992, 256.098 L 424.228, 258.211 L 421.138, 260.163 L 417.398, 261.626 L 413.659, 262.602 L 410.244, 262.927 L 406.341, 262.927 L 402.764, 262.439 L 399.35, 261.626 L 391.545, 258.211 z "/>
<path style="fill:rgb(0, 0, 255);fill-opacity:0;fill-rule:evenodd;stroke:rgb(255, 0, 168);stroke-width:1;" d="M 953.984, 594.472 L 956.585, 590.894 L 969.268, 573.496 L 1000.65, 586.667 L 985.366, 607.642 L 953.984, 594.472 z "/>
<path style="fill:rgb(255, 255, 0);fill-opacity:0;fill-rule:evenodd;stroke:rgb(255, 0, 168);stroke-width:1;" d="M 394.146, 627.805 L 404.228, 614.146 L 407.48, 609.756 L 435.772, 622.114 L 444.065, 625.528 L 441.138, 629.593 L 430.894, 643.415 L 394.146, 627.805 z "/>
<path style="fill:rgb(255, 0, 0);fill-opacity:0;fill-rule:evenodd;stroke:rgb(255, 0, 168);stroke-width:1;" d="M 946.992, 641.951 L 950.569, 640.976 L 956.26, 633.171 L 955.122, 630.407 L 947.642, 627.317 L 956.585, 614.959 L 993.496, 630.407 L 987.805, 638.374 L 984.715, 642.764 L 976.26, 639.35 L 973.496, 640.65 L 967.642, 648.943 L 967.642, 650.569 L 946.992, 641.951 z "/>
<path style="fill:rgb(0, 255, 0);fill-opacity:0;fill-rule:evenodd;stroke:rgb(255, 0, 168);stroke-width:1;" d="M 836.911, 344.553 L 865.041, 305.854 L 881.951, 313.008 L 881.138, 314.309 L 866.829, 333.821 L 853.821, 351.707 L 836.911, 344.553 z "/>
<path style="fill:rgb(0, 0, 255);fill-opacity:0;fill-rule:evenodd;stroke:rgb(255, 0, 168);stroke-width:1;" d="M 544.715, 211.707 L 553.984, 205.203 L 594.959, 222.439 L 583.74, 237.886 L 544.715, 221.463 L 544.715, 211.707 z "/>
<path style="fill:rgb(255, 255, 0);fill-opacity:0;fill-rule:evenodd;stroke:rgb(255, 0, 168);stroke-width:1;" d="M 528.618, 466.667 L 532.846, 460.976 L 537.073, 455.285 L 539.837, 451.545 L 546.992, 454.472 L 582.439, 469.593 L 571.382, 484.553 L 528.618, 466.667 z "/>
<path style="fill:rgb(255, 0, 0);fill-opacity:0;fill-rule:evenodd;stroke:rgb(255, 0, 168);stroke-width:1;" d="M 495.122, 313.008 L 499.675, 306.667 L 508.293, 294.797 L 512.358, 289.106 L 524.39, 294.146 L 538.699, 300 L 539.512, 300.325 L 522.114, 324.228 L 520.813, 323.74 L 506.829, 317.886 L 495.122, 313.008 z "/>
<path style="fill:rgb(0, 255, 0);fill-opacity:0;fill-rule:evenodd;stroke:rgb(255, 0, 168);stroke-width:1;" d="M 372.033, 257.236 L 401.463, 216.26 L 416.911, 222.764 L 413.496, 227.48 L 391.545, 258.211 L 387.642, 263.577 L 372.033, 257.236 z "/>
<path style="fill:rgb(0, 0, 255);fill-opacity:0;fill-rule:evenodd;stroke:rgb(255, 0, 168);stroke-width:1;" d="M 356.423, 250.732 L 385.854, 209.919 L 401.463, 216.26 L 372.033, 257.236 L 356.423, 250.732 z "/>
<path style="fill:rgb(255, 255, 0);fill-opacity:0;fill-rule:evenodd;stroke:rgb(255, 0, 168);stroke-width:1;" d="M 356.423, 250.732 L 385.854, 209.919 L 401.463, 216.26 L 372.033, 257.236 L 356.423, 250.732 z "/>
<path style="fill:rgb(255, 0, 0);fill-opacity:0;fill-rule:evenodd;stroke:rgb(255, 0, 168);stroke-width:1;" d="M 538.374, 572.52 L 548.618, 558.049 L 546.016, 556.911 L 552.358, 548.13 L 555.772, 549.431 L 563.089, 539.35 L 560, 538.049 L 567.317, 527.805 L 584.878, 535.122 L 577.561, 545.366 L 573.659, 543.74 L 566.829, 553.171 L 570.569, 554.797 L 563.577, 564.553 L 561.138, 563.415 L 550.894, 577.724 L 538.374, 572.52 z "/>
<path style="fill:rgb(0, 255, 0);fill-opacity:0;fill-rule:evenodd;stroke:rgb(255, 0, 168);stroke-width:1;" d="M 604.228, 682.764 L 669.919, 711.545 L 701.626, 725.528 L 671.707, 729.106 L 604.228, 682.764 z "/>
<path style="fill:rgb(0, 0, 255);fill-opacity:0;fill-rule:evenodd;stroke:rgb(255, 0, 168);stroke-width:1;" d="M 341.138, 244.553 L 370.569, 203.74 L 385.854, 209.919 L 356.423, 250.732 L 341.138, 244.553 z "/>
<path style="fill:rgb(255, 255, 0);fill-opacity:0;fill-rule:evenodd;stroke:rgb(255, 0, 168);stroke-width:1;" d="M 341.138, 244.553 L 370.569, 203.74 L 385.854, 209.919 L 356.423, 250.732 L 341.138, 244.553 z "/>
<path style="fill:rgb(255, 0, 0);fill-opacity:0;fill-rule:evenodd;stroke:rgb(255, 0, 168);stroke-width:1;" d="M 730.894, 433.496 L 753.333, 401.951 L 773.171, 409.919 L 765.366, 420.976 L 763.089, 423.902 L 760.813, 427.317 L 758.537, 430.569 L 750.732, 441.626 L 738.049, 436.423 L 730.894, 433.496 z "/>
<path style="fill:rgb(0, 255, 0);fill-opacity:0;fill-rule:evenodd;stroke:rgb(255, 0, 168);stroke-width:1;" d="M 779.35, 264.39 L 785.691, 255.61 L 788.943, 254.634 L 801.138, 237.886 L 799.187, 237.073 L 804.715, 229.593 L 805.203, 228.78 L 824.553, 237.073 L 818.537, 245.203 L 816.26, 244.228 L 802.602, 263.089 L 804.878, 264.065 L 799.512, 271.382 L 798.699, 272.52 L 779.35, 264.39 z "/>
<path style="fill:rgb(0, 0, 255);fill-opacity:0;fill-rule:evenodd;stroke:rgb(255, 0, 168);stroke-width:1;" d="M 754.634, 309.919 L 760.163, 302.439 L 763.577, 301.301 L 774.797, 285.854 L 773.659, 283.902 L 779.675, 275.61 L 798.699, 283.577 L 791.707, 293.171 L 789.106, 294.309 L 780.488, 306.016 L 780.813, 308.13 L 773.659, 317.886 L 760.488, 312.358 L 754.634, 309.919 z "/>
<path style="fill:rgb(255, 255, 0);fill-opacity:0;fill-rule:evenodd;stroke:rgb(255, 0, 168);stroke-width:1;" d="M 514.634, 558.049 L 527.642, 539.837 L 535.285, 543.089 L 540.813, 535.447 L 533.171, 532.195 L 543.577, 517.886 L 559.35, 524.553 L 548.455, 539.35 L 546.179, 538.537 L 541.138, 545.691 L 543.415, 546.667 L 527.805, 568.13 L 516.911, 563.577 L 519.35, 560.163 L 514.634, 558.049 z "/>
<path style="fill:rgb(255, 0, 0);fill-opacity:0;fill-rule:evenodd;stroke:rgb(255, 0, 168);stroke-width:1;" d="M 527.48, 735.935 L 553.171, 702.276 L 559.187, 704.878 L 576.098, 712.358 L 575.61, 713.008 L 558.699, 731.382 L 527.48, 735.935 z "/>
<path style="fill:rgb(0, 255, 0);fill-opacity:0;fill-rule:evenodd;stroke:rgb(255, 0, 168);stroke-width:1;" d="M 799.512, 271.382 L 804.878, 264.065 L 818.537, 245.203 L 824.553, 237.073 L 843.577, 245.041 L 834.634, 257.073 L 828.455, 254.472 L 820.976, 264.715 L 827.154, 267.317 L 818.374, 279.35 L 809.919, 275.772 L 799.512, 271.382 z "/>
<path style="fill:rgb(0, 0, 255);fill-opacity:0;fill-rule:evenodd;stroke:rgb(255, 0, 168);stroke-width:1;" d="M 438.211, 535.772 L 472.52, 488.293 L 484.878, 493.496 L 473.821, 508.78 L 450.732, 540.976 L 438.211, 535.772 z "/>
<path style="fill:rgb(255, 255, 0);fill-opacity:0;fill-rule:evenodd;stroke:rgb(255, 0, 168);stroke-width:1;" d="M 579.024, 184.715 L 592.683, 166.341 L 593.496, 166.667 L 599.187, 169.106 L 624.553, 179.837 L 620.325, 185.528 L 616.748, 190.407 L 611.057, 198.049 L 579.024, 184.715 z "/>
<path style="fill:rgb(255, 0, 0);fill-opacity:0;fill-rule:evenodd;stroke:rgb(255, 0, 168);stroke-width:1;" d="M 571.057, 181.301 L 589.431, 156.098 L 590.569, 153.984 L 592.195, 151.87 L 593.171, 151.057 L 595.447, 149.431 L 596.585, 148.78 L 599.35, 147.642 L 602.114, 146.829 L 603.74, 146.504 L 605.203, 146.341 L 608.293, 146.341 L 611.382, 146.667 L 614.146, 147.317 L 615.61, 147.805 L 618.211, 149.106 L 619.35, 149.756 L 621.626, 151.382 L 633.659, 156.585 L 629.756, 162.114 L 626.341, 166.992 L 607.967, 159.35 L 605.854, 158.862 L 603.74, 158.699 L 601.463, 159.024 L 599.187, 159.837 L 597.236, 161.301 L 593.496, 166.667 L 592.683, 166.341 L 579.024, 184.715 L 575.772, 183.252 L 571.057, 181.301 z "/>
<path style="fill:rgb(0, 255, 0);fill-opacity:0;fill-rule:evenodd;stroke:rgb(255, 0, 168);stroke-width:1;" d="M 631.382, 468.618 L 633.821, 465.041 L 637.561, 460 L 640.325, 459.675 L 651.707, 444.065 L 650.732, 441.951 L 657.073, 433.333 L 673.333, 440.163 L 669.756, 445.041 L 667.154, 448.618 L 665.041, 451.707 L 649.431, 472.846 L 647.48, 475.447 L 631.382, 468.618 z "/>
<path style="fill:rgb(0, 0, 255);fill-opacity:0;fill-rule:evenodd;stroke:rgb(255, 0, 168);stroke-width:1;" d="M 618.862, 332.846 L 644.715, 296.26 L 660.163, 302.602 L 640.163, 330.732 L 636.26, 329.106 L 630.244, 337.561 L 618.862, 332.846 z "/>
<path style="fill:rgb(255, 255, 0);fill-opacity:0;fill-rule:evenodd;stroke:rgb(255, 0, 168);stroke-width:1;" d="M 332.033, 388.618 L 382.439, 318.699 L 383.415, 317.398 L 390.894, 320.65 L 339.024, 391.707 L 332.033, 388.618 z "/>
<path style="fill:rgb(255, 0, 0);fill-opacity:0;fill-rule:evenodd;stroke:rgb(255, 0, 168);stroke-width:1;" d="M 705.691, 505.203 L 707.48, 502.927 L 726.016, 477.398 L 744.553, 485.203 L 741.951, 488.943 L 739.837, 491.545 L 738.211, 493.821 L 733.008, 500.976 L 731.22, 503.415 L 725.854, 510.732 L 724.228, 513.008 L 721.138, 511.707 L 705.691, 505.203 z "/>
<path style="fill:rgb(0, 255, 0);fill-opacity:0;fill-rule:evenodd;stroke:rgb(255, 0, 168);stroke-width:1;" d="M 575.772, 183.252 L 589.431, 156.098 L 596.585, 141.951 L 621.789, 149.106 L 621.626, 151.382 L 619.512, 157.886 L 629.756, 162.114 L 626.341, 166.992 L 607.967, 159.35 L 605.854, 158.862 L 603.74, 158.699 L 601.463, 159.024 L 599.187, 159.837 L 597.236, 161.301 L 593.496, 166.667 L 592.683, 166.341 L 579.024, 184.715 L 575.772, 183.252 z "/>
<path style="fill:rgb(0, 0, 255);fill-opacity:0;fill-rule:evenodd;stroke:rgb(255, 0, 168);stroke-width:1;" d="M 517.886, 253.008 L 524.715, 243.415 L 578.211, 265.366 L 576.911, 267.317 L 571.382, 274.959 L 517.886, 253.008 z "/>
<path style="fill:rgb(255, 255, 0);fill-opacity:0;fill-rule:evenodd;stroke:rgb(255, 0, 168);stroke-width:1;" d="M 626.341, 166.992 L 629.756, 162.114 L 633.659, 156.585 L 681.301, 176.585 L 673.333, 186.992 L 626.341, 166.992 z "/>
<path style="fill:rgb(255, 0, 0);fill-opacity:0;fill-rule:evenodd;stroke:rgb(255, 0, 168);stroke-width:1;" d="M 517.398, 139.187 L 526.504, 113.171 L 551.22, 123.74 L 534.959, 146.667 L 517.398, 139.187 z "/>
<path style="fill:rgb(0, 255, 0);fill-opacity:0;fill-rule:evenodd;stroke:rgb(255, 0, 168);stroke-width:1;" d="M 262.927, 604.065 L 285.041, 574.309 L 296.26, 579.187 L 285.041, 611.87 L 262.927, 604.065 z "/>
<path style="fill:rgb(0, 0, 255);fill-opacity:0;fill-rule:evenodd;stroke:rgb(255, 0, 168);stroke-width:1;" d="M 344.39, 586.829 L 344.715, 583.74 L 345.691, 581.463 L 346.992, 579.512 L 349.756, 576.911 L 353.008, 575.285 L 357.073, 574.146 L 359.837, 573.821 L 363.415, 573.984 L 366.992, 574.797 L 369.919, 576.098 L 372.195, 577.561 L 374.146, 579.35 L 375.772, 581.789 L 376.423, 583.74 L 376.748, 586.016 L 376.748, 587.154 L 369.756, 596.098 L 367.642, 597.073 L 363.74, 598.211 L 357.561, 598.211 L 352.033, 596.585 L 349.106, 594.634 L 347.48, 593.333 L 346.667, 592.358 L 345.691, 591.057 L 344.878, 589.106 L 344.39, 586.829 z "/>
<path style="fill:rgb(255, 255, 0);fill-opacity:0;fill-rule:evenodd;stroke:rgb(255, 0, 168);stroke-width:1;" d="M 342.276, 640.488 L 348.943, 631.707 L 378.537, 592.52 L 425.203, 612.683 L 438.537, 618.374 L 435.772, 622.114 L 407.48, 609.756 L 380.65, 598.211 L 367.154, 616.26 L 347.154, 642.764 L 342.276, 640.488 z "/>
<path style="fill:rgb(255, 0, 0);fill-opacity:0;fill-rule:evenodd;stroke:rgb(255, 0, 168);stroke-width:1;" d="M 930.894, 650.407 L 939.35, 638.699 L 946.992, 641.951 L 967.642, 650.569 L 976.26, 654.146 L 967.642, 665.854 L 930.894, 650.407 z "/>
<path style="fill:rgb(0, 255, 0);fill-opacity:0;fill-rule:evenodd;stroke:rgb(255, 0, 168);stroke-width:1;" d="M 670.081, 274.309 L 698.537, 234.959 L 709.593, 239.675 L 680.976, 278.862 L 670.081, 274.309 z "/>
<path style="fill:rgb(0, 0, 255);fill-opacity:0;fill-rule:evenodd;stroke:rgb(255, 0, 168);stroke-width:1;" d="M 634.309, 259.187 L 662.927, 220 L 673.821, 224.553 L 645.203, 263.74 L 634.309, 259.187 z "/>
<path style="fill:rgb(255, 255, 0);fill-opacity:0;fill-rule:evenodd;stroke:rgb(255, 0, 168);stroke-width:1;" d="M 368.78, 683.089 L 371.382, 679.512 L 396.26, 690.081 L 426.667, 702.764 L 441.138, 682.764 L 459.512, 658.049 L 464.39, 660.163 L 429.919, 707.642 L 387.805, 691.057 L 368.78, 683.089 z "/>
<path style="fill:rgb(255, 0, 0);fill-opacity:0;fill-rule:evenodd;stroke:rgb(255, 0, 168);stroke-width:1;" d="M 659.35, 61.3008 L 666.992, 50.8943 L 706.992, 67.8049 L 699.512, 78.2114 L 659.35, 61.3008 z "/>
<path style="fill:rgb(0, 255, 0);fill-opacity:0;fill-rule:evenodd;stroke:rgb(255, 0, 168);stroke-width:1;" d="M 527.805, 568.13 L 543.415, 546.667 L 548.455, 539.35 L 559.35, 524.553 L 567.317, 527.805 L 560, 538.049 L 563.089, 539.35 L 555.772, 549.431 L 552.358, 548.13 L 546.016, 556.911 L 548.618, 558.049 L 538.374, 572.52 L 527.805, 568.13 z "/>
<path style="fill:rgb(0, 0, 255);fill-opacity:0;fill-rule:evenodd;stroke:rgb(255, 0, 168);stroke-width:1;" d="M 409.431, 141.463 L 416.26, 132.195 L 458.374, 149.919 L 454.634, 160.65 L 409.431, 141.463 z "/>
<path style="fill:rgb(255, 255, 0);fill-opacity:0;fill-rule:evenodd;stroke:rgb(255, 0, 168);stroke-width:1;" d="M 457.073, 538.211 L 477.236, 510.081 L 473.821, 508.78 L 484.878, 493.496 L 496.585, 498.374 L 465.366, 541.789 L 457.073, 538.211 z "/>
<path style="fill:rgb(255, 0, 0);fill-opacity:0;fill-rule:evenodd;stroke:rgb(255, 0, 168);stroke-width:1;" d="M 718.049, 243.252 L 721.138, 238.862 L 744.878, 206.341 L 746.504, 204.065 L 751.87, 206.341 L 757.073, 208.455 L 728.455, 247.642 L 718.862, 243.577 L 718.049, 243.252 z "/>
<path style="fill:rgb(0, 255, 0);fill-opacity:0;fill-rule:evenodd;stroke:rgb(255, 0, 168);stroke-width:1;" d="M 593.496, 166.667 L 597.236, 161.301 L 599.187, 159.837 L 601.463, 159.024 L 603.74, 158.699 L 605.854, 158.862 L 607.967, 159.35 L 626.341, 166.992 L 673.333, 186.992 L 690.407, 194.146 L 687.48, 198.374 L 607.642, 164.715 L 605.528, 164.715 L 603.902, 165.041 L 602.439, 165.366 L 601.626, 166.016 L 599.187, 169.106 L 593.496, 166.667 z "/>
<path style="fill:rgb(0, 0, 255);fill-opacity:0;fill-rule:evenodd;stroke:rgb(255, 0, 168);stroke-width:1;" d="M 233.496, 487.317 L 235.122, 485.041 L 265.691, 497.886 L 315.772, 428.78 L 272.033, 410.569 L 273.984, 407.967 L 320.813, 427.48 L 267.154, 501.301 L 233.496, 487.317 z "/>
<path style="fill:rgb(255, 255, 0);fill-opacity:0;fill-rule:evenodd;stroke:rgb(255, 0, 168);stroke-width:1;" d="M 706.341, 105.854 L 733.496, 68.9431 L 734.797, 66.9919 L 745.203, 71.3821 L 716.748, 110.244 L 706.341, 105.854 z "/>
<path style="fill:rgb(255, 0, 0);fill-opacity:0;fill-rule:evenodd;stroke:rgb(255, 0, 168);stroke-width:1;" d="M 896.748, 618.049 L 905.691, 605.528 L 937.886, 618.862 L 928.78, 631.382 L 896.748, 618.049 z "/>
<path style="fill:rgb(0, 255, 0);fill-opacity:0;fill-rule:evenodd;stroke:rgb(255, 0, 168);stroke-width:1;" d="M 235.122, 485.041 L 236.748, 482.764 L 264.065, 494.309 L 310.569, 430.407 L 269.919, 413.496 L 272.033, 410.569 L 315.772, 428.78 L 265.691, 497.886 L 235.122, 485.041 z "/>
<path style="fill:rgb(0, 0, 255);fill-opacity:0;fill-rule:evenodd;stroke:rgb(255, 0, 168);stroke-width:1;" d="M 920.65, 646.016 L 923.089, 642.602 L 941.301, 617.561 L 948.618, 607.642 L 958.862, 611.87 L 956.585, 614.959 L 947.642, 627.317 L 939.35, 638.699 L 930.894, 650.407 L 920.65, 646.016 z "/>
<path style="fill:rgb(255, 255, 0);fill-opacity:0;fill-rule:evenodd;stroke:rgb(255, 0, 168);stroke-width:1;" d="M 750.732, 441.626 L 758.537, 430.569 L 761.301, 431.707 L 763.415, 428.455 L 760.813, 427.317 L 763.089, 423.902 L 765.854, 425.041 L 767.967, 422.114 L 765.366, 420.976 L 773.171, 409.919 L 786.179, 415.285 L 763.74, 446.829 L 759.024, 445.041 L 750.732, 441.626 z "/>
<path style="fill:rgb(255, 0, 0);fill-opacity:0;fill-rule:evenodd;stroke:rgb(255, 0, 168);stroke-width:1;" d="M 232.033, 489.106 L 233.496, 487.317 L 267.154, 501.301 L 320.813, 427.48 L 273.984, 407.967 L 275.772, 405.366 L 325.203, 426.016 L 268.293, 504.39 L 232.033, 489.106 z "/>
<path style="fill:rgb(0, 255, 0);fill-opacity:0;fill-rule:evenodd;stroke:rgb(255, 0, 168);stroke-width:1;" d="M 236.748, 482.764 L 246.341, 469.431 L 250.081, 471.057 L 242.602, 481.463 L 265.041, 490.732 L 269.106, 485.366 L 271.382, 482.114 L 273.659, 479.024 L 297.398, 446.504 L 299.675, 443.415 L 301.951, 440.163 L 306.829, 433.496 L 272.52, 419.024 L 264.878, 429.593 L 259.837, 427.48 L 269.919, 413.496 L 310.569, 430.407 L 264.065, 494.309 L 236.748, 482.764 z "/>
<path style="fill:rgb(0, 0, 255);fill-opacity:0;fill-rule:evenodd;stroke:rgb(255, 0, 168);stroke-width:1;" d="M 666.992, 50.8943 L 673.984, 41.3008 L 713.984, 58.2114 L 713.496, 58.8618 L 706.992, 67.8049 L 666.992, 50.8943 z "/>
<path style="fill:rgb(255, 255, 0);fill-opacity:0;fill-rule:evenodd;stroke:rgb(255, 0, 168);stroke-width:1;" d="M 680.976, 278.862 L 709.593, 239.675 L 712.358, 240.813 L 718.049, 243.252 L 718.862, 243.577 L 690.244, 282.764 L 680.976, 278.862 z "/>
<path style="fill:rgb(255, 0, 0);fill-opacity:0;fill-rule:evenodd;stroke:rgb(255, 0, 168);stroke-width:1;" d="M 813.821, 68.9431 L 838.862, 34.7967 L 846.992, 39.5122 L 848.78, 40.4878 L 824.553, 73.4959 L 813.821, 68.9431 z "/>
<path style="fill:rgb(0, 255, 0);fill-opacity:0;fill-rule:evenodd;stroke:rgb(255, 0, 168);stroke-width:1;" d="M 734.309, 117.724 L 762.764, 78.8618 L 771.87, 82.7642 L 743.577, 121.626 L 734.309, 117.724 z "/>
<path style="fill:rgb(0, 0, 255);fill-opacity:0;fill-rule:evenodd;stroke:rgb(255, 0, 168);stroke-width:1;" d="M 835.122, 451.382 L 838.049, 447.154 L 836.098, 446.341 L 837.561, 444.228 L 883.74, 463.089 L 879.512, 469.106 L 875.935, 467.48 L 873.984, 470.081 L 839.35, 456.098 L 840.976, 453.821 L 835.122, 451.382 z "/>
<path style="fill:rgb(255, 255, 0);fill-opacity:0;fill-rule:evenodd;stroke:rgb(255, 0, 168);stroke-width:1;" d="M 344.39, 629.919 L 369.756, 596.098 L 376.748, 587.154 L 427.642, 609.268 L 425.203, 612.683 L 378.374, 592.52 L 348.943, 631.707 L 344.39, 629.919 z "/>
<path style="fill:rgb(255, 0, 0);fill-opacity:0;fill-rule:evenodd;stroke:rgb(255, 0, 168);stroke-width:1;" d="M 1000.81, 623.74 L 1026.5, 588.293 L 1036.59, 592.358 L 1010.73, 627.805 L 1000.81, 623.74 z "/>
<path style="fill:rgb(0, 255, 0);fill-opacity:0;fill-rule:evenodd;stroke:rgb(255, 0, 168);stroke-width:1;" d="M 856.26, 619.187 L 877.073, 590.732 L 884.39, 593.821 L 868.455, 615.772 L 883.74, 622.276 L 881.463, 625.203 L 894.634, 630.732 L 892.195, 634.146 L 856.26, 619.187 z "/>
<path style="fill:rgb(0, 0, 255);fill-opacity:0;fill-rule:evenodd;stroke:rgb(255, 0, 168);stroke-width:1;" d="M 855.61, 418.699 L 857.073, 416.911 L 859.024, 417.724 L 861.951, 413.496 L 867.805, 415.772 L 869.431, 413.496 L 904.228, 427.48 L 902.439, 430.081 L 906.016, 431.545 L 901.789, 437.398 L 855.61, 418.699 z "/>
<path style="fill:rgb(255, 255, 0);fill-opacity:0;fill-rule:evenodd;stroke:rgb(255, 0, 168);stroke-width:1;" d="M 346.667, 586.829 L 346.992, 584.065 L 347.805, 582.114 L 348.78, 580.488 L 351.382, 578.211 L 354.146, 576.748 L 357.561, 575.772 L 360, 575.61 L 362.927, 575.772 L 366.179, 576.423 L 368.618, 577.561 L 370.569, 578.699 L 372.195, 580.325 L 373.659, 582.439 L 374.309, 584.065 L 374.472, 586.016 L 374.146, 588.455 L 372.846, 591.22 L 371.382, 592.846 L 368.618, 594.634 L 366.667, 595.61 L 363.252, 596.423 L 358.049, 596.585 L 353.171, 595.122 L 350.569, 593.496 L 349.268, 592.195 L 348.78, 591.545 L 347.805, 590.244 L 347.154, 588.78 L 346.667, 586.829 z "/>
<path style="fill:rgb(255, 0, 0);fill-opacity:0;fill-rule:evenodd;stroke:rgb(255, 0, 168);stroke-width:1;" d="M 559.187, 704.878 L 583.252, 673.496 L 604.228, 682.764 L 560, 704.553 L 559.187, 704.878 z "/>
<path style="fill:rgb(0, 255, 0);fill-opacity:0;fill-rule:evenodd;stroke:rgb(255, 0, 168);stroke-width:1;" d="M 128.78, 128.78 L 156.423, 90.8943 L 157.236, 89.7561 L 165.691, 93.3333 L 137.236, 132.358 L 128.78, 128.78 z "/>
<path style="fill:rgb(0, 0, 255);fill-opacity:0;fill-rule:evenodd;stroke:rgb(255, 0, 168);stroke-width:1;" d="M 580.813, 608.618 L 590.894, 594.472 L 593.333, 595.447 L 596.748, 590.569 L 634.146, 606.179 L 631.22, 610.244 L 602.927, 598.374 L 592.195, 613.333 L 580.813, 608.618 z "/>
<path style="fill:rgb(255, 255, 0);fill-opacity:0;fill-rule:evenodd;stroke:rgb(255, 0, 168);stroke-width:1;" d="M 671.22, 357.236 L 674.146, 352.846 L 697.561, 319.675 L 698.537, 318.374 L 706.829, 321.626 L 679.35, 360.488 L 671.22, 357.236 z "/>
<path style="fill:rgb(255, 0, 0);fill-opacity:0;fill-rule:evenodd;stroke:rgb(255, 0, 168);stroke-width:1;" d="M 388.293, 643.089 L 411.057, 638.211 L 417.236, 654.959 L 394.472, 659.675 L 388.293, 643.089 z "/>
<path style="fill:rgb(0, 255, 0);fill-opacity:0;fill-rule:evenodd;stroke:rgb(255, 0, 168);stroke-width:1;" d="M 720.976, 429.431 L 721.463, 428.618 L 743.252, 397.886 L 753.333, 401.951 L 730.894, 433.496 L 724.715, 431.057 L 720.976, 429.431 z "/>
<path style="fill:rgb(0, 0, 255);fill-opacity:0;fill-rule:evenodd;stroke:rgb(255, 0, 168);stroke-width:1;" d="M 262.114, 466.016 L 276.748, 445.854 L 292.358, 452.358 L 277.561, 472.52 L 262.114, 466.016 z "/>
<path style="fill:rgb(255, 255, 0);fill-opacity:0;fill-rule:evenodd;stroke:rgb(255, 0, 168);stroke-width:1;" d="M 679.35, 360.488 L 706.829, 321.626 L 711.22, 323.415 L 714.797, 324.878 L 687.48, 363.74 L 679.35, 360.488 z "/>
<path style="fill:rgb(255, 0, 0);fill-opacity:0;fill-rule:evenodd;stroke:rgb(255, 0, 168);stroke-width:1;" d="M 283.252, 565.366 L 296.911, 546.179 L 313.008, 552.846 L 299.35, 571.87 L 283.252, 565.366 z "/>
<path style="fill:rgb(0, 255, 0);fill-opacity:0;fill-rule:evenodd;stroke:rgb(255, 0, 168);stroke-width:1;" d="M 264.878, 429.593 L 272.52, 419.024 L 306.829, 433.496 L 301.951, 440.163 L 285.203, 433.008 L 282.927, 436.423 L 282.439, 437.073 L 264.878, 429.593 z "/>
<path style="fill:rgb(0, 0, 255);fill-opacity:0;fill-rule:evenodd;stroke:rgb(255, 0, 168);stroke-width:1;" d="M 616.748, 190.407 L 620.325, 185.528 L 679.024, 209.919 L 675.447, 214.959 L 616.748, 190.407 z "/>
<path style="fill:rgb(255, 255, 0);fill-opacity:0;fill-rule:evenodd;stroke:rgb(255, 0, 168);stroke-width:1;" d="M 658.537, 346.341 L 682.927, 311.87 L 691.22, 315.285 L 690.081, 316.585 L 666.829, 349.756 L 658.537, 346.341 z "/>
<path style="fill:rgb(255, 0, 0);fill-opacity:0;fill-rule:evenodd;stroke:rgb(255, 0, 168);stroke-width:1;" d="M 434.634, 106.992 L 440.813, 98.5366 L 471.87, 111.707 L 468.455, 121.301 L 434.634, 106.992 z "/>
<path style="fill:rgb(0, 255, 0);fill-opacity:0;fill-rule:evenodd;stroke:rgb(255, 0, 168);stroke-width:1;" d="M 635.772, 337.073 L 640.163, 330.732 L 660.163, 302.602 L 667.642, 305.691 L 646.016, 336.423 L 643.252, 340.163 L 635.772, 337.073 z "/>
<path style="fill:rgb(0, 0, 255);fill-opacity:0;fill-rule:evenodd;stroke:rgb(255, 0, 168);stroke-width:1;" d="M 857.073, 416.911 L 861.789, 410.244 L 864.553, 411.382 L 869.268, 404.715 L 874.146, 406.667 L 875.447, 404.878 L 910.244, 419.024 L 908.78, 421.138 L 906.341, 424.553 L 871.545, 410.569 L 869.431, 413.496 L 867.805, 415.772 L 861.951, 413.496 L 859.024, 417.724 L 857.073, 416.911 z "/>
<path style="fill:rgb(255, 255, 0);fill-opacity:0;fill-rule:evenodd;stroke:rgb(255, 0, 168);stroke-width:1;" d="M 829.593, 460.813 L 834.309, 453.984 L 831.545, 452.846 L 834.472, 448.455 L 836.098, 446.341 L 838.049, 447.154 L 835.122, 451.382 L 840.976, 453.821 L 839.35, 456.098 L 837.236, 459.024 L 872.033, 473.008 L 869.593, 476.423 L 868.13, 478.537 L 833.171, 464.553 L 834.472, 462.764 L 829.593, 460.813 z "/>
<path style="fill:rgb(255, 0, 0);fill-opacity:0;fill-rule:evenodd;stroke:rgb(255, 0, 168);stroke-width:1;" d="M 494.797, 295.772 L 508.293, 294.797 L 524.39, 301.463 L 515.772, 313.333 L 499.675, 306.667 L 494.797, 295.772 z "/>
<path style="fill:rgb(0, 255, 0);fill-opacity:0;fill-rule:evenodd;stroke:rgb(255, 0, 168);stroke-width:1;" d="M 651.22, 343.415 L 653.984, 339.675 L 675.61, 308.943 L 682.927, 311.87 L 658.537, 346.341 L 651.22, 343.415 z "/>
<path style="fill:rgb(0, 0, 255);fill-opacity:0;fill-rule:evenodd;stroke:rgb(255, 0, 168);stroke-width:1;" d="M 665.041, 451.707 L 667.154, 448.618 L 725.366, 473.008 L 728.293, 474.309 L 743.902, 480.813 L 746.829, 482.114 L 745.203, 484.553 L 744.553, 485.203 L 726.016, 477.398 L 665.041, 451.707 z "/>
<path style="fill:rgb(255, 255, 0);fill-opacity:0;fill-rule:evenodd;stroke:rgb(255, 0, 168);stroke-width:1;" d="M 666.829, 349.756 L 690.081, 316.585 L 697.561, 319.675 L 674.146, 352.846 L 666.829, 349.756 z "/>
<path style="fill:rgb(255, 0, 0);fill-opacity:0;fill-rule:evenodd;stroke:rgb(255, 0, 168);stroke-width:1;" d="M 646.016, 336.423 L 667.642, 305.691 L 675.61, 308.943 L 653.984, 339.675 L 646.016, 336.423 z "/>
<path style="fill:rgb(0, 255, 0);fill-opacity:0;fill-rule:evenodd;stroke:rgb(255, 0, 168);stroke-width:1;" d="M 252.033, 204.228 L 264.878, 186.179 L 278.537, 191.87 L 265.203, 209.593 L 252.033, 204.228 z "/>
<path style="fill:rgb(0, 0, 255);fill-opacity:0;fill-rule:evenodd;stroke:rgb(255, 0, 168);stroke-width:1;" d="M 528.13, 451.545 L 540, 435.285 L 556.098, 442.114 L 546.992, 454.472 L 539.837, 451.545 L 537.073, 455.285 L 528.13, 451.545 z "/>
<path style="fill:rgb(255, 255, 0);fill-opacity:0;fill-rule:evenodd;stroke:rgb(255, 0, 168);stroke-width:1;" d="M 286.016, 564.715 L 297.724, 548.293 L 310.407, 553.333 L 298.537, 569.919 L 286.016, 564.715 z "/>
<path style="fill:rgb(255, 0, 0);fill-opacity:0;fill-rule:evenodd;stroke:rgb(255, 0, 168);stroke-width:1;" d="M 667.154, 448.618 L 669.756, 445.041 L 727.967, 469.431 L 725.366, 473.008 L 667.154, 448.618 z "/>
<path style="fill:rgb(0, 255, 0);fill-opacity:0;fill-rule:evenodd;stroke:rgb(255, 0, 168);stroke-width:1;" d="M 643.415, 396.423 L 646.341, 392.195 L 647.48, 392.683 L 693.496, 411.707 L 694.472, 412.195 L 691.545, 416.26 L 643.415, 396.423 z "/>
<path style="fill:rgb(0, 0, 255);fill-opacity:0;fill-rule:evenodd;stroke:rgb(255, 0, 168);stroke-width:1;" d="M 389.593, 286.179 L 401.301, 269.919 L 411.057, 273.659 L 404.228, 292.358 L 389.593, 286.179 z "/>
<path style="fill:rgb(255, 255, 0);fill-opacity:0;fill-rule:evenodd;stroke:rgb(255, 0, 168);stroke-width:1;" d="M 524.39, 294.146 L 534.309, 280.813 L 543.089, 284.553 L 548.455, 286.829 L 538.699, 300 L 524.39, 294.146 z "/>
<path style="fill:rgb(255, 0, 0);fill-opacity:0;fill-rule:evenodd;stroke:rgb(255, 0, 168);stroke-width:1;" d="M 969.268, 573.496 L 973.659, 567.48 L 1005.04, 580.65 L 1000.65, 586.667 L 969.268, 573.496 z "/>
<path style="fill:rgb(0, 255, 0);fill-opacity:0;fill-rule:evenodd;stroke:rgb(255, 0, 168);stroke-width:1;" d="M 432.683, 519.187 L 447.154, 499.35 L 456.423, 503.252 L 441.951, 523.089 L 432.683, 519.187 z "/>
<path style="fill:rgb(0, 0, 255);fill-opacity:0;fill-rule:evenodd;stroke:rgb(255, 0, 168);stroke-width:1;" d="M 269.106, 350.569 L 278.049, 338.699 L 290.894, 354.146 L 298.374, 363.089 L 293.821, 361.138 L 287.642, 358.537 L 273.171, 352.358 L 269.106, 350.569 z "/>
<path style="fill:rgb(255, 255, 0);fill-opacity:0;fill-rule:evenodd;stroke:rgb(255, 0, 168);stroke-width:1;" d="M 203.252, 347.48 L 204.715, 345.203 L 208.618, 340.163 L 216.911, 328.455 L 218.862, 325.691 L 234.472, 332.195 L 230.569, 334.146 L 213.821, 342.276 L 203.252, 347.48 z "/>
<path style="fill:rgb(255, 0, 0);fill-opacity:0;fill-rule:evenodd;stroke:rgb(255, 0, 168);stroke-width:1;" d="M 223.252, 274.797 L 228.618, 277.236 L 233.821, 279.35 L 247.805, 285.366 L 251.707, 286.992 L 242.927, 298.699 L 240.488, 295.61 L 230.569, 283.74 L 226.992, 279.35 L 223.252, 274.797 z "/>
<path style="fill:rgb(0, 255, 0);fill-opacity:0;fill-rule:evenodd;stroke:rgb(255, 0, 168);stroke-width:1;" d="M 313.821, 516.585 L 326.992, 500.488 L 334.797, 503.252 L 326.016, 521.138 L 313.821, 516.585 z "/>
<path style="fill:rgb(0, 0, 255);fill-opacity:0;fill-rule:evenodd;stroke:rgb(255, 0, 168);stroke-width:1;" d="M 286.829, 306.179 L 307.48, 295.935 L 317.398, 290.894 L 315.285, 293.821 L 312.195, 297.886 L 304.065, 309.268 L 301.951, 312.358 L 286.829, 306.179 z "/>
<path style="fill:rgb(255, 255, 0);fill-opacity:0;fill-rule:evenodd;stroke:rgb(255, 0, 168);stroke-width:1;" d="M 498.537, 329.106 L 506.829, 317.886 L 520.813, 323.74 L 512.52, 334.959 L 498.537, 329.106 z "/>
<path style="fill:rgb(255, 0, 0);fill-opacity:0;fill-rule:evenodd;stroke:rgb(255, 0, 168);stroke-width:1;" d="M 242.602, 481.463 L 250.081, 471.057 L 255.935, 473.496 L 255.935, 473.496 L 254.634, 475.122 L 252.358, 478.374 L 269.106, 485.366 L 265.041, 490.732 L 242.602, 481.463 z "/>
<path style="fill:rgb(0, 255, 0);fill-opacity:0;fill-rule:evenodd;stroke:rgb(255, 0, 168);stroke-width:1;" d="M 419.024, 223.577 L 432.033, 205.528 L 436.911, 207.317 L 430.894, 228.455 L 419.024, 223.577 z "/>
<path style="fill:rgb(0, 0, 255);fill-opacity:0;fill-rule:evenodd;stroke:rgb(255, 0, 168);stroke-width:1;" d="M 513.821, 471.057 L 516.585, 467.48 L 519.024, 468.618 L 517.724, 470.081 L 526.341, 473.659 L 567.154, 490.894 L 568.293, 489.268 L 575.935, 492.52 L 573.333, 496.26 L 531.382, 478.537 L 513.821, 471.057 z "/>
<path style="fill:rgb(255, 255, 0);fill-opacity:0;fill-rule:evenodd;stroke:rgb(255, 0, 168);stroke-width:1;" d="M 529.431, 481.301 L 531.382, 478.537 L 573.333, 496.26 L 571.382, 499.024 L 540.325, 486.016 L 529.431, 481.301 z "/>
<path style="fill:rgb(255, 0, 0);fill-opacity:0;fill-rule:evenodd;stroke:rgb(255, 0, 168);stroke-width:1;" d="M 147.967, 645.203 L 148.293, 643.577 L 149.268, 642.276 L 150.569, 640.976 L 152.195, 640.163 L 152.683, 640.163 L 154.146, 639.675 L 156.26, 639.675 L 158.211, 640 L 160, 640.813 L 161.463, 641.951 L 162.439, 643.089 L 162.927, 644.715 L 162.927, 646.179 L 162.276, 647.805 L 161.138, 648.943 L 159.675, 649.919 L 158.049, 650.569 L 157.724, 650.732 L 155.935, 650.894 L 153.821, 650.732 L 151.87, 650.244 L 150.244, 649.268 L 149.106, 648.13 L 148.293, 646.667 L 147.967, 645.203 z "/>
<path style="fill:rgb(0, 255, 0);fill-opacity:0;fill-rule:evenodd;stroke:rgb(255, 0, 168);stroke-width:1;" d="M 869.431, 413.496 L 871.545, 410.569 L 906.341, 424.553 L 904.228, 427.48 L 869.431, 413.496 z "/>
<path style="fill:rgb(0, 0, 255);fill-opacity:0;fill-rule:evenodd;stroke:rgb(255, 0, 168);stroke-width:1;" d="M 892.195, 634.146 L 894.634, 630.732 L 923.089, 642.602 L 920.65, 646.016 L 892.195, 634.146 z "/>
<path style="fill:rgb(255, 255, 0);fill-opacity:0;fill-rule:evenodd;stroke:rgb(255, 0, 168);stroke-width:1;" d="M 837.236, 459.024 L 839.35, 456.098 L 873.984, 470.081 L 872.033, 473.008 L 837.236, 459.024 z "/>
<path style="fill:rgb(255, 0, 0);fill-opacity:0;fill-rule:evenodd;stroke:rgb(255, 0, 168);stroke-width:1;" d="M 257.724, 472.195 L 262.114, 466.016 L 277.561, 472.52 L 278.049, 472.683 L 273.496, 478.862 L 257.724, 472.195 z "/>
<path style="fill:rgb(0, 255, 0);fill-opacity:0;fill-rule:evenodd;stroke:rgb(255, 0, 168);stroke-width:1;" d="M 276.748, 445.854 L 281.301, 439.837 L 297.073, 446.341 L 292.52, 452.52 L 292.358, 452.358 L 276.748, 445.854 z "/>
<path style="fill:rgb(0, 0, 255);fill-opacity:0;fill-rule:evenodd;stroke:rgb(255, 0, 168);stroke-width:1;" d="M 671.707, 482.276 L 673.659, 479.675 L 709.431, 494.797 L 707.642, 497.398 L 671.707, 482.276 z "/>
<path style="fill:rgb(255, 255, 0);fill-opacity:0;fill-rule:evenodd;stroke:rgb(255, 0, 168);stroke-width:1;" d="M 578.699, 458.211 L 582.276, 453.171 L 584.878, 454.309 L 599.512, 460.488 L 595.935, 465.366 L 578.699, 458.211 z "/>
<path style="fill:rgb(255, 0, 0);fill-opacity:0;fill-rule:evenodd;stroke:rgb(255, 0, 168);stroke-width:1;" d="M 127.805, 635.122 L 130.407, 630.894 L 152.683, 640.163 L 157.724, 642.276 L 156.423, 644.065 L 127.805, 635.122 z "/>
<path style="fill:rgb(0, 255, 0);fill-opacity:0;fill-rule:evenodd;stroke:rgb(255, 0, 168);stroke-width:1;" d="M 516.585, 467.48 L 528.13, 451.545 L 537.073, 455.285 L 532.846, 460.976 L 526.504, 458.374 L 522.439, 463.902 L 519.024, 468.618 L 516.585, 467.48 z "/>
<path style="fill:rgb(0, 0, 255);fill-opacity:0;fill-rule:evenodd;stroke:rgb(255, 0, 168);stroke-width:1;" d="M 879.512, 469.106 L 883.74, 463.089 L 888.293, 461.951 L 892.683, 455.772 L 894.472, 456.423 L 896.098, 457.073 L 885.854, 471.707 L 884.228, 471.057 L 879.512, 469.106 z "/>
<path style="fill:rgb(255, 255, 0);fill-opacity:0;fill-rule:evenodd;stroke:rgb(255, 0, 168);stroke-width:1;" d="M 902.439, 430.081 L 904.228, 427.48 L 906.341, 424.553 L 908.78, 421.138 L 912.846, 422.927 L 915.285, 427.317 L 910.732, 433.496 L 906.016, 431.545 L 902.439, 430.081 z "/>
<path style="fill:rgb(255, 0, 0);fill-opacity:0;fill-rule:evenodd;stroke:rgb(255, 0, 168);stroke-width:1;" d="M 869.593, 476.423 L 872.033, 473.008 L 873.984, 470.081 L 875.935, 467.48 L 879.512, 469.106 L 884.228, 471.057 L 880, 477.073 L 873.821, 478.211 L 869.593, 476.423 z "/>
<path style="fill:rgb(0, 255, 0);fill-opacity:0;fill-rule:evenodd;stroke:rgb(255, 0, 168);stroke-width:1;" d="M 898.699, 447.154 L 903.252, 440.813 L 901.789, 437.398 L 906.016, 431.545 L 910.732, 433.496 L 912.358, 434.309 L 902.114, 448.455 L 900.488, 447.805 L 898.699, 447.154 z "/>
<path style="fill:rgb(0, 0, 255);fill-opacity:0;fill-rule:evenodd;stroke:rgb(255, 0, 168);stroke-width:1;" d="M 262.276, 451.382 L 268.78, 442.439 L 276.26, 445.528 L 269.756, 454.472 L 262.276, 451.382 z "/>
<path style="fill:rgb(255, 255, 0);fill-opacity:0;fill-rule:evenodd;stroke:rgb(255, 0, 168);stroke-width:1;" d="M 647.48, 392.683 L 648.455, 391.22 L 694.472, 410.244 L 693.496, 411.707 L 647.48, 392.683 z "/>
<path style="fill:rgb(255, 0, 0);fill-opacity:0;fill-rule:evenodd;stroke:rgb(255, 0, 168);stroke-width:1;" d="M 649.431, 389.919 L 650.407, 388.455 L 696.585, 407.48 L 695.447, 408.943 L 649.431, 389.919 z "/>
<path style="fill:rgb(0, 255, 0);fill-opacity:0;fill-rule:evenodd;stroke:rgb(255, 0, 168);stroke-width:1;" d="M 648.455, 391.22 L 649.431, 389.919 L 695.447, 408.943 L 694.472, 410.244 L 648.455, 391.22 z "/>
<path style="fill:rgb(0, 0, 255);fill-opacity:0;fill-rule:evenodd;stroke:rgb(255, 0, 168);stroke-width:1;" d="M 526.341, 473.659 L 527.317, 472.195 L 568.293, 489.268 L 567.154, 490.894 L 526.341, 473.659 z "/>
<path style="fill:rgb(255, 255, 0);fill-opacity:0;fill-rule:evenodd;stroke:rgb(255, 0, 168);stroke-width:1;" d="M 494.797, 295.772 L 508.293, 294.797 L 499.675, 306.667 L 494.797, 295.772 z "/>
<path style="fill:rgb(255, 0, 0);fill-opacity:0;fill-rule:evenodd;stroke:rgb(255, 0, 168);stroke-width:1;" d="M 254.634, 475.122 L 255.935, 473.496 L 255.935, 473.496 L 257.073, 472.033 L 257.724, 472.195 L 273.496, 478.862 L 273.659, 479.024 L 271.382, 482.114 L 254.634, 475.122 z "/>
<path style="fill:rgb(0, 255, 0);fill-opacity:0;fill-rule:evenodd;stroke:rgb(255, 0, 168);stroke-width:1;" d="M 280.65, 439.512 L 282.439, 437.073 L 282.927, 436.423 L 299.675, 443.415 L 297.398, 446.504 L 297.073, 446.341 L 281.301, 439.837 L 280.65, 439.512 z "/>
<path style="fill:rgb(0, 0, 255);fill-opacity:0;fill-rule:evenodd;stroke:rgb(255, 0, 168);stroke-width:1;" d="M 511.707, 473.984 L 513.821, 471.057 L 531.382, 478.537 L 529.431, 481.301 L 511.707, 473.984 z "/>
<path style="fill:rgb(255, 255, 0);fill-opacity:0;fill-rule:evenodd;stroke:rgb(255, 0, 168);stroke-width:1;" d="M 239.024, 682.276 L 240.65, 680.163 L 260, 688.293 L 257.398, 690.081 L 239.024, 682.276 z "/>
<path style="fill:rgb(255, 0, 0);fill-opacity:0;fill-rule:evenodd;stroke:rgb(255, 0, 168);stroke-width:1;" d="M 726.504, 476.585 L 728.293, 474.309 L 743.902, 480.813 L 742.114, 483.252 L 726.504, 476.585 z "/>
<path style="fill:rgb(0, 255, 0);fill-opacity:0;fill-rule:evenodd;stroke:rgb(255, 0, 168);stroke-width:1;" d="M 726.504, 476.585 L 728.293, 474.309 L 743.902, 480.813 L 742.114, 483.252 L 726.504, 476.585 z "/>
<path style="fill:rgb(0, 0, 255);fill-opacity:0;fill-rule:evenodd;stroke:rgb(255, 0, 168);stroke-width:1;" d="M 726.504, 476.585 L 728.293, 474.309 L 743.902, 480.813 L 742.114, 483.252 L 726.504, 476.585 z "/>
<path style="fill:rgb(255, 255, 0);fill-opacity:0;fill-rule:evenodd;stroke:rgb(255, 0, 168);stroke-width:1;" d="M 726.504, 476.585 L 728.293, 474.309 L 743.902, 480.813 L 742.114, 483.252 L 726.504, 476.585 z "/>
<path style="fill:rgb(255, 0, 0);fill-opacity:0;fill-rule:evenodd;stroke:rgb(255, 0, 168);stroke-width:1;" d="M 726.504, 476.585 L 728.293, 474.309 L 743.902, 480.813 L 742.114, 483.252 L 726.504, 476.585 z "/>
<path style="fill:rgb(0, 255, 0);fill-opacity:0;fill-rule:evenodd;stroke:rgb(255, 0, 168);stroke-width:1;" d="M 705.691, 505.203 L 707.48, 502.927 L 722.927, 509.431 L 721.138, 511.707 L 705.691, 505.203 z "/>
<path style="fill:rgb(0, 0, 255);fill-opacity:0;fill-rule:evenodd;stroke:rgb(255, 0, 168);stroke-width:1;" d="M 705.691, 505.203 L 707.48, 502.927 L 722.927, 509.431 L 721.138, 511.707 L 705.691, 505.203 z "/>
<path style="fill:rgb(255, 255, 0);fill-opacity:0;fill-rule:evenodd;stroke:rgb(255, 0, 168);stroke-width:1;" d="M 705.691, 505.203 L 707.48, 502.927 L 722.927, 509.431 L 721.138, 511.707 L 705.691, 505.203 z "/>
<path style="fill:rgb(255, 0, 0);fill-opacity:0;fill-rule:evenodd;stroke:rgb(255, 0, 168);stroke-width:1;" d="M 705.691, 505.203 L 707.48, 502.927 L 722.927, 509.431 L 721.138, 511.707 L 705.691, 505.203 z "/>
<path style="fill:rgb(0, 255, 0);fill-opacity:0;fill-rule:evenodd;stroke:rgb(255, 0, 168);stroke-width:1;" d="M 705.691, 505.203 L 707.48, 502.927 L 722.927, 509.431 L 721.138, 511.707 L 705.691, 505.203 z "/>
<path style="fill:rgb(0, 0, 255);fill-opacity:0;fill-rule:evenodd;stroke:rgb(255, 0, 168);stroke-width:1;" d="M 397.886, 647.154 L 405.691, 645.528 L 407.642, 650.894 L 399.837, 652.52 L 397.886, 647.154 z "/>
<path style="fill:rgb(255, 255, 0);fill-opacity:0;fill-rule:evenodd;stroke:rgb(255, 0, 168);stroke-width:1;" d="M 0, 391.707 L 28.4553, 352.52 L 66.8293, 368.618 L 100.65, 382.764 L 127.317, 346.016 L 153.496, 356.911 L 155.122, 354.634 L 186.341, 367.642 L 186.829, 367.967 L 185.041, 370.244 L 217.724, 383.902 L 208.293, 396.911 L 216.423, 400.325 L 210.732, 406.179 L 205.691, 413.821 L 198.374, 420.163 L 177.561, 448.943 L 172.033, 446.667 L 162.439, 460 L 0, 391.707 z "/>
<path style="fill:rgb(255, 0, 0);fill-opacity:0;fill-rule:evenodd;stroke:rgb(255, 0, 168);stroke-width:1;" d="M 124.39, 177.724 L 152.683, 138.862 L 137.236, 132.358 L 165.691, 93.3333 L 223.089, 117.561 L 194.634, 156.585 L 163.252, 143.415 L 160.488, 147.154 L 134.797, 182.439 L 129.593, 180 L 124.39, 177.724 z "/>
<path style="fill:rgb(0, 255, 0);fill-opacity:0;fill-rule:evenodd;stroke:rgb(255, 0, 168);stroke-width:1;" d="M 112.358, 301.301 L 138.211, 265.854 L 140.976, 262.114 L 198.862, 286.504 L 173.984, 320.488 L 169.756, 326.341 L 167.642, 327.642 L 163.577, 327.317 L 116.748, 307.642 L 119.187, 304.228 L 112.358, 301.301 z "/>
<path style="fill:rgb(0, 0, 255);fill-opacity:0;fill-rule:evenodd;stroke:rgb(255, 0, 168);stroke-width:1;" d="M 89.1057, 245.041 L 117.561, 206.016 L 162.927, 225.041 L 164.553, 226.829 L 164.878, 229.268 L 163.089, 231.707 L 140.976, 262.114 L 138.211, 265.854 L 89.1057, 245.041 z "/>
<path style="fill:rgb(255, 255, 0);fill-opacity:0;fill-rule:evenodd;stroke:rgb(255, 0, 168);stroke-width:1;" d="M 221.301, 85.6911 L 249.431, 47.3171 L 249.919, 46.5041 L 257.886, 35.7724 L 278.211, 8.13008 L 355.935, 40.9756 L 388.943, 54.9593 L 360.813, 93.3333 L 353.496, 90.2439 L 327.967, 79.187 L 301.789, 68.2927 L 262.927, 51.8699 L 234.146, 91.2195 L 221.301, 85.6911 z "/>
<path style="fill:rgb(255, 0, 0);fill-opacity:0;fill-rule:evenodd;stroke:rgb(255, 0, 168);stroke-width:1;" d="M 249.919, 46.5041 L 257.886, 35.7724 L 278.211, 8.13008 L 355.935, 40.9756 L 388.943, 54.9593 L 360.813, 93.3333 L 353.496, 90.2439 L 327.967, 79.187 L 301.789, 68.2927 L 262.927, 51.8699 L 249.919, 46.5041 z "/>
<path style="fill:rgb(0, 255, 0);fill-opacity:0;fill-rule:evenodd;stroke:rgb(255, 0, 168);stroke-width:1;" d="M 840.65, 79.6748 L 896.911, 3.57724 L 975.935, 36.2602 L 964.065, 52.8455 L 1090.73, 105.366 L 1056.26, 152.846 L 1008.29, 133.008 L 999.512, 145.203 L 840.65, 79.6748 z "/>
<path style="fill:rgb(0, 0, 255);fill-opacity:0;fill-rule:evenodd;stroke:rgb(255, 0, 168);stroke-width:1;" d="M 865.691, 71.3821 L 899.675, 25.2033 L 964.065, 52.8455 L 1090.73, 105.366 L 1056.26, 152.846 L 1008.29, 133.008 L 865.691, 71.3821 z "/>
<path style="fill:rgb(255, 255, 0);fill-opacity:0;fill-rule:evenodd;stroke:rgb(255, 0, 168);stroke-width:1;" d="M 840.65, 79.6748 L 896.911, 3.57724 L 975.935, 36.2602 L 964.065, 52.8455 L 899.675, 25.2033 L 865.691, 71.3821 L 1008.29, 133.008 L 999.512, 145.203 L 840.65, 79.6748 z "/>
<path style="fill:rgb(255, 0, 0);fill-opacity:0;fill-rule:evenodd;stroke:rgb(255, 0, 168);stroke-width:1;" d="M 142.602, 51.3821 L 146.829, 45.5285 L 163.089, 23.0894 L 169.756, 13.6585 L 210.732, 30.8943 L 223.577, 36.4228 L 249.431, 47.3171 L 221.301, 85.6911 L 142.602, 51.3821 z "/>
<path style="fill:rgb(0, 255, 0);fill-opacity:0;fill-rule:evenodd;stroke:rgb(255, 0, 168);stroke-width:1;" d="M 859.35, 206.992 L 861.951, 203.415 L 894.634, 158.537 L 897.561, 154.472 L 968.455, 184.065 L 1039.19, 213.659 L 1000.98, 266.179 L 859.35, 206.992 z "/>
<path style="fill:rgb(0, 0, 255);fill-opacity:0;fill-rule:evenodd;stroke:rgb(255, 0, 168);stroke-width:1;" d="M 950.407, 257.886 L 957.236, 247.805 L 1000.98, 266.179 L 1007.15, 257.561 L 1041.79, 272.033 L 1027.64, 291.382 L 950.407, 257.886 z "/>
<path style="fill:rgb(255, 255, 0);fill-opacity:0;fill-rule:evenodd;stroke:rgb(255, 0, 168);stroke-width:1;" d="M 542.927, 87.9675 L 550.732, 66.5041 L 554.797, 59.5122 L 553.171, 59.0244 L 577.236, 15.7724 L 566.992, 11.5447 L 575.447, 0 L 621.626, 19.6748 L 613.008, 31.3821 L 583.415, 71.5447 L 581.138, 70.5691 L 562.439, 96.2602 L 542.927, 87.9675 z "/>
<path style="fill:rgb(255, 0, 0);fill-opacity:0;fill-rule:evenodd;stroke:rgb(255, 0, 168);stroke-width:1;" d="M 545.854, 82.2764 L 557.886, 60.9756 L 556.098, 60.4878 L 583.577, 7.15447 L 615.61, 19.187 L 610.407, 28.1301 L 584.065, 69.7561 L 577.398, 67.4797 L 563.415, 89.2683 L 545.854, 82.2764 z "/>
<path style="fill:rgb(0, 255, 0);fill-opacity:0;fill-rule:evenodd;stroke:rgb(255, 0, 168);stroke-width:1;" d="M 557.886, 60.9756 L 584.228, 19.3496 L 610.407, 28.1301 L 584.065, 69.7561 L 577.398, 67.4797 L 557.886, 60.9756 z "/>
<path style="fill:rgb(0, 0, 255);fill-opacity:0;fill-rule:evenodd;stroke:rgb(255, 0, 168);stroke-width:1;" d="M 556.098, 60.4878 L 583.577, 7.15447 L 615.61, 19.187 L 610.407, 28.1301 L 584.228, 19.3496 L 557.886, 60.9756 L 556.098, 60.4878 z "/>
<path style="fill:rgb(255, 255, 0);fill-opacity:0;fill-rule:evenodd;stroke:rgb(255, 0, 168);stroke-width:1;" d="M 429.919, 707.642 L 464.39, 660.163 L 487.317, 628.943 L 498.049, 633.333 L 672.846, 707.48 L 669.919, 711.545 L 604.228, 682.764 L 583.252, 673.496 L 559.187, 704.878 L 553.171, 702.276 L 527.48, 735.935 L 592.683, 764.553 L 586.341, 773.333 L 437.561, 710.894 L 429.919, 707.642 z "/>
<path style="fill:rgb(255, 0, 0);fill-opacity:0;fill-rule:evenodd;stroke:rgb(255, 0, 168);stroke-width:1;" d="M 559.187, 704.878 L 583.252, 673.496 L 604.228, 682.764 L 669.919, 711.545 L 701.626, 725.528 L 677.561, 756.911 L 669.431, 753.333 L 662.602, 750.244 L 576.098, 712.358 L 559.187, 704.878 z "/>
<path style="fill:rgb(0, 255, 0);fill-opacity:0;fill-rule:evenodd;stroke:rgb(255, 0, 168);stroke-width:1;" d="M 558.699, 731.382 L 575.61, 713.008 L 576.098, 712.358 L 662.602, 750.244 L 669.431, 753.333 L 668.455, 753.659 L 621.301, 777.073 L 558.699, 731.382 z "/>
<path style="fill:rgb(0, 0, 255);fill-opacity:0;fill-rule:evenodd;stroke:rgb(255, 0, 168);stroke-width:1;" d="M 558.699, 731.382 L 575.61, 713.008 L 576.098, 712.358 L 662.602, 750.244 L 669.431, 753.333 L 668.455, 753.659 L 621.301, 777.073 L 558.699, 731.382 z "/>
<path style="fill:rgb(255, 255, 0);fill-opacity:0;fill-rule:evenodd;stroke:rgb(255, 0, 168);stroke-width:1;" d="M 560, 704.553 L 604.228, 682.764 L 671.707, 729.106 L 662.927, 749.593 L 560, 704.553 z "/>
<path style="fill:rgb(255, 0, 0);fill-opacity:0;fill-rule:evenodd;stroke:rgb(255, 0, 168);stroke-width:1;" d="M 586.341, 773.333 L 592.683, 764.553 L 621.301, 777.073 L 643.577, 786.992 L 669.431, 753.333 L 677.561, 756.911 L 701.626, 725.528 L 669.919, 711.545 L 672.846, 707.48 L 707.48, 722.114 L 649.756, 800 L 586.341, 773.333 z "/>
<path style="fill:rgb(0, 255, 0);fill-opacity:0;fill-rule:evenodd;stroke:rgb(255, 0, 168);stroke-width:1;" d="M 527.48, 735.935 L 558.699, 731.382 L 621.301, 777.073 L 592.683, 764.553 L 527.48, 735.935 z "/>
<path style="fill:rgb(0, 0, 255);fill-opacity:0;fill-rule:evenodd;stroke:rgb(255, 0, 168);stroke-width:1;" d="M 527.48, 735.935 L 558.699, 731.382 L 621.301, 777.073 L 592.683, 764.553 L 527.48, 735.935 z "/>
<path style="fill:rgb(255, 255, 0);fill-opacity:0;fill-rule:evenodd;stroke:rgb(255, 0, 168);stroke-width:1;" d="M 604.228, 682.764 L 669.919, 711.545 L 701.626, 725.528 L 671.707, 729.106 L 604.228, 682.764 z "/>
<path style="fill:rgb(255, 0, 0);fill-opacity:0;fill-rule:evenodd;stroke:rgb(255, 0, 168);stroke-width:1;" d="M 527.48, 735.935 L 553.171, 702.276 L 559.187, 704.878 L 576.098, 712.358 L 575.61, 713.008 L 558.699, 731.382 L 527.48, 735.935 z "/>
<path style="fill:rgb(0, 255, 0);fill-opacity:0;fill-rule:evenodd;stroke:rgb(255, 0, 168);stroke-width:1;" d="M 662.602, 750.244 L 662.927, 749.593 L 671.707, 729.106 L 701.626, 725.528 L 677.561, 756.911 L 669.431, 753.333 L 662.602, 750.244 z "/>
<path style="fill:rgb(0, 0, 255);fill-opacity:0;fill-rule:evenodd;stroke:rgb(255, 0, 168);stroke-width:1;" d="M 662.602, 750.244 L 662.927, 749.593 L 671.707, 729.106 L 701.626, 725.528 L 677.561, 756.911 L 669.431, 753.333 L 662.602, 750.244 z "/>
<path style="fill:rgb(255, 255, 0);fill-opacity:0;fill-rule:evenodd;stroke:rgb(255, 0, 168);stroke-width:1;" d="M 621.301, 777.073 L 668.455, 753.659 L 669.431, 753.333 L 643.577, 786.992 L 621.301, 777.073 z "/>
<path style="fill:rgb(255, 0, 0);fill-opacity:0;fill-rule:evenodd;stroke:rgb(255, 0, 168);stroke-width:1;" d="M 621.301, 777.073 L 668.455, 753.659 L 669.431, 753.333 L 643.577, 786.992 L 621.301, 777.073 z "/>
</svg>