<?xml version="1.0" encoding="iso-8859-1" standalone="no"?>
<!DOCTYPE svg PUBLIC "-//W3C//DTD SVG 1.0//EN" "http://www.w3.org/TR/2001/REC-SVG-20010904/DTD/svg10.dtd">
<svg xmlns="http://www.w3.org/2000/svg" width="709" height="800">
<path style="fill:rgb(255, 0, 0);fill-opacity:0;fill-rule:evenodd;stroke:rgb(235, 255, 0);stroke-width:1;" d="M 10.9326, 674.371 L 22.4407, 612.035 L 477.967, 660.753 L 466.459, 722.896 L 10.9326, 674.371 z "/>
<path style="fill:rgb(0, 255, 0);fill-opacity:0;fill-rule:evenodd;stroke:rgb(235, 255, 0);stroke-width:1;" d="M 137.905, 66.9384 L 141.165, 48.7173 L 641.189, 101.271 L 637.929, 118.916 L 137.905, 66.9384 z "/>
<path style="fill:rgb(0, 0, 255);fill-opacity:0;fill-rule:evenodd;stroke:rgb(235, 255, 0);stroke-width:1;" d="M 474.131, 789.643 L 484.68, 735.171 L 475.665, 724.622 L 541.836, 731.144 L 529.369, 795.78 L 474.131, 789.643 z "/>
<path style="fill:rgb(255, 255, 0);fill-opacity:0;fill-rule:evenodd;stroke:rgb(235, 255, 0);stroke-width:1;" d="M 477.967, 660.753 L 503.476, 632.75 L 509.614, 596.5 L 523.615, 597.842 L 566.003, 601.678 L 555.646, 658.068 L 499.257, 652.122 L 497.147, 662.479 L 488.9, 661.52 L 477.967, 660.753 z "/>
<path style="fill:rgb(255, 0, 0);fill-opacity:0;fill-rule:evenodd;stroke:rgb(235, 255, 0);stroke-width:1;" d="M 101.846, 86.1184 L 112.971, 29.5373 L 121.793, 30.4963 L 122.561, 25.7013 L 145.001, 27.8111 L 141.165, 48.7173 L 137.905, 66.9384 L 133.685, 89.1872 L 101.846, 86.1184 z "/>
<path style="fill:rgb(0, 255, 0);fill-opacity:0;fill-rule:evenodd;stroke:rgb(235, 255, 0);stroke-width:1;" d="M 477.967, 660.753 L 503.476, 632.75 L 509.614, 596.5 L 523.615, 597.842 L 516.711, 633.517 L 488.9, 661.52 L 477.967, 660.753 z "/>
<path style="fill:rgb(0, 0, 255);fill-opacity:0;fill-rule:evenodd;stroke:rgb(235, 255, 0);stroke-width:1;" d="M 0, 657.684 L 0.383601, 646.751 L 1.1508, 641.381 L 2.10981, 636.394 L 5.75402, 625.653 L 10.3572, 617.022 L 13.426, 614.145 L 17.8374, 612.611 L 22.4407, 612.035 L 10.9326, 674.371 L 6.90482, 672.644 L 3.26061, 670.535 L 1.1508, 667.082 L 0, 657.684 z "/>
<path style="fill:rgb(255, 255, 0);fill-opacity:0;fill-rule:evenodd;stroke:rgb(235, 255, 0);stroke-width:1;" d="M 260.273, 674.179 L 260.657, 671.877 L 262.383, 663.246 L 262.767, 661.136 L 274.275, 662.479 L 271.781, 675.33 L 260.273, 674.179 z "/>
<path style="fill:rgb(255, 0, 0);fill-opacity:0;fill-rule:evenodd;stroke:rgb(235, 255, 0);stroke-width:1;" d="M 204.076, 668.233 L 206.569, 655.191 L 218.077, 656.341 L 217.502, 658.835 L 215.967, 667.274 L 215.584, 669.384 L 204.076, 668.233 z "/>
<path style="fill:rgb(0, 255, 0);fill-opacity:0;fill-rule:evenodd;stroke:rgb(235, 255, 0);stroke-width:1;" d="M 271.781, 675.33 L 274.275, 662.479 L 284.632, 663.63 L 282.139, 676.48 L 271.781, 675.33 z "/>
<path style="fill:rgb(0, 0, 255);fill-opacity:0;fill-rule:evenodd;stroke:rgb(235, 255, 0);stroke-width:1;" d="M 133.685, 89.1872 L 137.905, 66.9384 L 141.165, 48.7173 L 145.001, 27.8111 L 548.741, 70.199 L 644.833, 80.1726 L 696.62, 85.543 L 695.085, 94.5577 L 687.413, 135.795 L 685.495, 147.111 L 633.134, 141.549 L 536.658, 131.575 L 133.685, 89.1872 z "/>
<path style="fill:rgb(255, 255, 0);fill-opacity:0;fill-rule:evenodd;stroke:rgb(235, 255, 0);stroke-width:1;" d="M 137.905, 66.9384 L 141.165, 48.7173 L 641.189, 101.271 L 637.929, 118.916 L 137.905, 66.9384 z "/>
<path style="fill:rgb(255, 0, 0);fill-opacity:0;fill-rule:evenodd;stroke:rgb(235, 255, 0);stroke-width:1;" d="M 548.741, 70.199 L 561.592, 0 L 657.684, 10.1654 L 644.833, 80.1726 L 548.741, 70.199 z "/>
<path style="fill:rgb(0, 255, 0);fill-opacity:0;fill-rule:evenodd;stroke:rgb(235, 255, 0);stroke-width:1;" d="M 548.741, 70.199 L 561.592, 0 L 657.684, 10.1654 L 644.833, 80.1726 L 548.741, 70.199 z "/>
<path style="fill:rgb(0, 0, 255);fill-opacity:0;fill-rule:evenodd;stroke:rgb(235, 255, 0);stroke-width:1;" d="M 524.766, 197.938 L 536.658, 131.575 L 633.134, 141.549 L 620.858, 208.104 L 524.766, 197.938 z "/>
<path style="fill:rgb(255, 255, 0);fill-opacity:0;fill-rule:evenodd;stroke:rgb(235, 255, 0);stroke-width:1;" d="M 524.766, 197.938 L 536.658, 131.575 L 633.134, 141.549 L 620.858, 208.104 L 524.766, 197.938 z "/>
<path style="fill:rgb(255, 0, 0);fill-opacity:0;fill-rule:evenodd;stroke:rgb(235, 255, 0);stroke-width:1;" d="M 644.833, 80.1726 L 657.684, 10.1654 L 709.47, 15.5358 L 696.62, 85.543 L 644.833, 80.1726 z "/>
<path style="fill:rgb(0, 255, 0);fill-opacity:0;fill-rule:evenodd;stroke:rgb(235, 255, 0);stroke-width:1;" d="M 644.833, 80.1726 L 657.684, 10.1654 L 709.47, 15.5358 L 696.62, 85.543 L 644.833, 80.1726 z "/>
<path style="fill:rgb(0, 0, 255);fill-opacity:0;fill-rule:evenodd;stroke:rgb(235, 255, 0);stroke-width:1;" d="M 620.858, 208.104 L 633.134, 141.549 L 685.495, 147.111 L 673.795, 213.666 L 639.655, 210.022 L 620.858, 208.104 z "/>
<path style="fill:rgb(255, 255, 0);fill-opacity:0;fill-rule:evenodd;stroke:rgb(235, 255, 0);stroke-width:1;" d="M 620.858, 208.104 L 633.134, 141.549 L 685.495, 147.111 L 673.795, 213.666 L 639.655, 210.022 L 620.858, 208.104 z "/>
<path style="fill:rgb(255, 0, 0);fill-opacity:0;fill-rule:evenodd;stroke:rgb(235, 255, 0);stroke-width:1;" d="M 636.011, 130.233 L 637.929, 118.916 L 641.189, 101.271 L 643.299, 88.9954 L 695.085, 94.5577 L 687.413, 135.795 L 636.011, 130.233 z "/>
<path style="fill:rgb(0, 255, 0);fill-opacity:0;fill-rule:evenodd;stroke:rgb(235, 255, 0);stroke-width:1;" d="M 636.011, 130.233 L 637.929, 118.916 L 641.189, 101.271 L 643.299, 88.9954 L 695.085, 94.5577 L 687.413, 135.795 L 636.011, 130.233 z "/>
<path style="fill:rgb(0, 0, 255);fill-opacity:0;fill-rule:evenodd;stroke:rgb(235, 255, 0);stroke-width:1;" d="M 474.131, 789.643 L 484.68, 735.171 L 475.665, 724.622 L 541.836, 731.144 L 529.369, 795.78 L 474.131, 789.643 z "/>
<path style="fill:rgb(255, 255, 0);fill-opacity:0;fill-rule:evenodd;stroke:rgb(235, 255, 0);stroke-width:1;" d="M 466.459, 722.896 L 477.967, 660.753 L 488.9, 661.52 L 497.147, 662.479 L 499.257, 652.122 L 555.646, 658.068 L 566.003, 601.678 L 602.445, 605.131 L 589.978, 670.343 L 577.895, 732.486 L 565.044, 800 L 529.369, 795.78 L 541.836, 731.144 L 475.665, 724.622 L 466.459, 722.896 z "/>
<path style="fill:rgb(255, 0, 0);fill-opacity:0;fill-rule:evenodd;stroke:rgb(235, 255, 0);stroke-width:1;" d="M 477.967, 660.753 L 503.476, 632.75 L 509.614, 596.5 L 523.615, 597.842 L 566.003, 601.678 L 555.646, 658.068 L 499.257, 652.122 L 497.147, 662.479 L 488.9, 661.52 L 477.967, 660.753 z "/>
<path style="fill:rgb(0, 255, 0);fill-opacity:0;fill-rule:evenodd;stroke:rgb(235, 255, 0);stroke-width:1;" d="M 553.728, 729.801 L 564.469, 673.412 L 555.263, 672.453 L 556.989, 662.863 L 566.387, 663.822 L 565.62, 667.658 L 589.978, 670.343 L 577.895, 732.486 L 553.728, 729.801 z "/>
<path style="fill:rgb(0, 0, 255);fill-opacity:0;fill-rule:evenodd;stroke:rgb(235, 255, 0);stroke-width:1;" d="M 553.728, 729.801 L 564.469, 673.412 L 555.263, 672.453 L 556.989, 662.863 L 566.387, 663.822 L 565.62, 667.658 L 589.978, 670.343 L 577.895, 732.486 L 553.728, 729.801 z "/>
<path style="fill:rgb(255, 255, 0);fill-opacity:0;fill-rule:evenodd;stroke:rgb(235, 255, 0);stroke-width:1;" d="M 477.967, 660.753 L 503.476, 632.75 L 509.614, 596.5 L 523.615, 597.842 L 516.711, 633.517 L 488.9, 661.52 L 477.967, 660.753 z "/>
</svg>