<?xml version="1.0" encoding="iso-8859-1" standalone="no"?>
<!DOCTYPE svg PUBLIC "-//W3C//DTD SVG 1.0//EN" "http://www.w3.org/TR/2001/REC-SVG-20010904/DTD/svg10.dtd">
<svg xmlns="http://www.w3.org/2000/svg" width="863" height="800">
<path style="fill:rgb(255, 0, 0);fill-opacity:0;fill-rule:evenodd;stroke:rgb(0, 248, 255);stroke-width:1;" d="M 336.687, 662.822 L 336.687, 655.706 L 336.933, 653.006 L 338.405, 645.89 L 340.859, 639.018 L 344.294, 632.147 L 348.712, 625.767 L 353.865, 619.632 L 356.81, 616.687 L 363.19, 611.288 L 370.307, 606.38 L 377.914, 602.209 L 386.258, 598.528 L 394.847, 595.583 L 403.926, 593.374 L 409.325, 592.393 L 418.405, 591.411 L 427.73, 590.92 L 434.11, 591.166 L 452.761, 593.129 L 456.442, 593.865 L 458.405, 594.601 L 459.877, 595.337 L 463.067, 597.055 L 465.521, 599.509 L 466.748, 601.227 L 468.221, 603.926 L 468.466, 606.871 L 468.466, 608.589 L 467.73, 611.288 L 466.503, 613.742 L 477.055, 630.429 L 479.018, 629.693 L 489.325, 645.89 L 487.607, 646.626 L 498.16, 663.313 L 501.84, 664.049 L 503.558, 664.54 L 506.748, 666.012 L 508.221, 666.748 L 510.92, 669.448 L 512.638, 671.902 L 513.129, 673.374 L 513.62, 676.81 L 512.393, 681.472 L 510.92, 685.399 L 508.712, 688.834 L 502.086, 697.669 L 496.933, 703.067 L 493.742, 706.012 L 487.362, 710.675 L 480.491, 715.092 L 472.883, 718.773 L 462.086, 722.945 L 453.742, 725.399 L 444.663, 727.117 L 435.583, 728.098 L 425.276, 728.344 L 416.196, 727.853 L 407.117, 726.626 L 398.282, 724.663 L 389.693, 721.963 L 382.086, 718.773 L 373.988, 714.847 L 366.626, 710.429 L 360, 705.521 L 356.564, 702.331 L 351.166, 696.687 L 346.258, 690.307 L 342.577, 683.926 L 339.632, 677.055 L 337.669, 670.184 L 336.687, 662.822 z M 363.436, 659.632 L 363.926, 664.54 L 364.908, 669.693 L 366.626, 674.601 L 368.834, 679.264 L 373.497, 685.644 L 377.178, 689.816 L 381.595, 693.497 L 386.503, 696.933 L 391.902, 699.877 L 397.546, 702.577 L 403.681, 704.54 L 409.816, 706.258 L 416.442, 707.239 L 422.822, 707.975 L 429.448, 707.975 L 436.074, 707.485 L 442.699, 706.503 L 448.834, 705.031 L 454.479, 703.067 L 460.859, 700.368 L 466.258, 697.423 L 471.166, 694.233 L 475.583, 690.552 L 424.049, 611.534 L 420.613, 611.779 L 413.988, 612.515 L 407.607, 613.988 L 401.472, 615.706 L 395.337, 617.914 L 389.939, 620.613 L 384.785, 623.804 L 379.877, 627.485 L 375.706, 631.411 L 372.27, 635.583 L 369.08, 640 L 366.626, 644.663 L 364.908, 649.571 L 363.926, 654.479 L 363.436, 659.632 z "/>
<path style="fill:rgb(0, 255, 0);fill-opacity:0;fill-rule:evenodd;stroke:rgb(0, 248, 255);stroke-width:1;" d="M 0.490798, 431.656 L 283.681, 397.055 L 290.061, 427.485 L 7.11656, 461.84 L 0.490798, 431.656 z "/>
<path style="fill:rgb(0, 0, 255);fill-opacity:0;fill-rule:evenodd;stroke:rgb(0, 248, 255);stroke-width:1;" d="M 7.85276, 431.411 L 27.2393, 428.957 L 41.7178, 427.239 L 202.699, 407.362 L 237.055, 402.945 L 280.736, 397.546 L 281.963, 403.681 L 285.399, 419.387 L 286.871, 426.748 L 243.436, 432.147 L 47.8528, 456.442 L 33.6196, 458.16 L 25.5215, 459.141 L 13.9877, 460.613 L 12.2699, 452.025 L 7.85276, 431.411 z "/>
<path style="fill:rgb(255, 255, 0);fill-opacity:0;fill-rule:evenodd;stroke:rgb(0, 248, 255);stroke-width:1;" d="M 533.988, 235.092 L 551.166, 190.92 L 597.301, 200.982 L 592.147, 214.479 L 639.509, 224.785 L 644.908, 211.534 L 704.049, 225.031 L 688.098, 265.767 L 533.988, 235.092 z "/>
<path style="fill:rgb(255, 0, 0);fill-opacity:0;fill-rule:evenodd;stroke:rgb(0, 248, 255);stroke-width:1;" d="M 231.902, 678.037 L 260.859, 667.975 L 268.466, 665.521 L 272.883, 664.049 L 325.399, 753.374 L 301.104, 761.227 L 320.245, 794.11 L 304.049, 800 L 284.417, 766.871 L 253.006, 713.865 L 251.043, 710.429 L 231.902, 678.037 z "/>
<path style="fill:rgb(0, 255, 0);fill-opacity:0;fill-rule:evenodd;stroke:rgb(0, 248, 255);stroke-width:1;" d="M 760.982, 252.27 L 779.632, 206.38 L 863.558, 226.012 L 854.479, 248.589 L 846.135, 269.693 L 760.982, 252.27 z "/>
<path style="fill:rgb(0, 0, 255);fill-opacity:0;fill-rule:evenodd;stroke:rgb(0, 248, 255);stroke-width:1;" d="M 49.5706, 268.957 L 62.8221, 260.123 L 65.0307, 262.086 L 74.1104, 256.196 L 94.2331, 275.583 L 101.595, 271.411 L 108.712, 283.19 L 110.184, 282.454 L 114.847, 289.325 L 99.3865, 295.706 L 88.589, 303.067 L 49.5706, 268.957 z "/>
<path style="fill:rgb(255, 255, 0);fill-opacity:0;fill-rule:evenodd;stroke:rgb(0, 248, 255);stroke-width:1;" d="M 0, 217.669 L 15.4601, 208.098 L 17.9141, 201.227 L 37.0552, 205.89 L 32.3926, 217.178 L 53.2515, 237.301 L 54.4785, 238.282 L 38.773, 246.626 L 41.4724, 249.571 L 33.6196, 253.742 L 0, 217.669 z "/>
<path style="fill:rgb(255, 0, 0);fill-opacity:0;fill-rule:evenodd;stroke:rgb(0, 248, 255);stroke-width:1;" d="M 237.055, 402.945 L 280.736, 397.546 L 281.963, 403.681 L 285.399, 419.387 L 286.871, 426.748 L 243.436, 432.147 L 237.055, 402.945 z "/>
<path style="fill:rgb(0, 255, 0);fill-opacity:0;fill-rule:evenodd;stroke:rgb(0, 248, 255);stroke-width:1;" d="M 202.699, 407.362 L 237.055, 402.945 L 243.436, 432.147 L 209.08, 436.564 L 202.699, 407.362 z "/>
<path style="fill:rgb(0, 0, 255);fill-opacity:0;fill-rule:evenodd;stroke:rgb(0, 248, 255);stroke-width:1;" d="M 7.85276, 431.411 L 27.2393, 428.957 L 41.7178, 427.239 L 47.8528, 456.442 L 33.6196, 458.16 L 25.5215, 459.141 L 13.9877, 460.613 L 12.2699, 452.025 L 7.85276, 431.411 z "/>
<path style="fill:rgb(255, 255, 0);fill-opacity:0;fill-rule:evenodd;stroke:rgb(0, 248, 255);stroke-width:1;" d="M 218.16, 406.626 L 251.288, 402.454 L 256.687, 426.503 L 223.558, 430.675 L 218.16, 406.626 z "/>
<path style="fill:rgb(255, 0, 0);fill-opacity:0;fill-rule:evenodd;stroke:rgb(0, 248, 255);stroke-width:1;" d="M 631.411, 436.074 L 632.883, 418.405 L 658.896, 419.632 L 657.423, 437.546 L 631.411, 436.074 z "/>
<path style="fill:rgb(0, 255, 0);fill-opacity:0;fill-rule:evenodd;stroke:rgb(0, 248, 255);stroke-width:1;" d="M 27.2393, 428.957 L 41.7178, 427.239 L 47.8528, 456.442 L 33.6196, 458.16 L 27.2393, 428.957 z "/>
<path style="fill:rgb(0, 0, 255);fill-opacity:0;fill-rule:evenodd;stroke:rgb(0, 248, 255);stroke-width:1;" d="M 317.055, 422.331 L 351.411, 395.337 L 359.018, 400.982 L 324.663, 427.975 L 317.055, 422.331 z "/>
<path style="fill:rgb(255, 255, 0);fill-opacity:0;fill-rule:evenodd;stroke:rgb(0, 248, 255);stroke-width:1;" d="M 373.742, 645.89 L 373.988, 642.945 L 375.706, 640.245 L 378.405, 638.282 L 381.84, 636.81 L 385.521, 636.074 L 389.448, 636.564 L 392.883, 637.791 L 396.074, 640 L 397.791, 642.945 L 398.282, 646.135 L 397.301, 649.325 L 394.847, 652.025 L 391.411, 653.988 L 387.485, 654.724 L 383.067, 654.724 L 379.387, 653.252 L 376.442, 651.534 L 374.479, 648.834 L 373.742, 645.89 z "/>
<path style="fill:rgb(255, 0, 0);fill-opacity:0;fill-rule:evenodd;stroke:rgb(0, 248, 255);stroke-width:1;" d="M 402.209, 688.589 L 403.19, 685.644 L 405.399, 683.19 L 408.344, 681.227 L 412.025, 680.245 L 415.706, 680.245 L 419.632, 680.982 L 422.822, 682.454 L 425.276, 685.153 L 426.503, 688.098 L 426.503, 691.288 L 424.785, 694.233 L 422.086, 696.687 L 418.405, 698.16 L 414.233, 698.65 L 410.061, 698.16 L 406.626, 696.442 L 403.926, 694.233 L 402.454, 691.534 L 402.209, 688.589 z "/>
<path style="fill:rgb(0, 255, 0);fill-opacity:0;fill-rule:evenodd;stroke:rgb(0, 248, 255);stroke-width:1;" d="M 245.399, 454.724 L 286.626, 451.043 L 288.098, 458.65 L 246.871, 462.577 L 245.399, 454.724 z "/>
<path style="fill:rgb(0, 0, 255);fill-opacity:0;fill-rule:evenodd;stroke:rgb(0, 248, 255);stroke-width:1;" d="M 268.957, 405.399 L 281.963, 403.681 L 285.399, 419.387 L 272.147, 421.104 L 268.957, 405.399 z "/>
<path style="fill:rgb(255, 255, 0);fill-opacity:0;fill-rule:evenodd;stroke:rgb(0, 248, 255);stroke-width:1;" d="M 288.589, 451.534 L 310.184, 448.834 L 311.656, 455.706 L 290.061, 458.405 L 288.589, 451.534 z "/>
<path style="fill:rgb(255, 0, 0);fill-opacity:0;fill-rule:evenodd;stroke:rgb(0, 248, 255);stroke-width:1;" d="M 117.546, 427.73 L 129.816, 426.258 L 131.779, 435.583 L 119.509, 437.055 L 117.546, 427.73 z "/>
<path style="fill:rgb(0, 255, 0);fill-opacity:0;fill-rule:evenodd;stroke:rgb(0, 248, 255);stroke-width:1;" d="M 12.2699, 452.025 L 23.5583, 450.552 L 25.5215, 459.141 L 13.9877, 460.613 L 12.2699, 452.025 z "/>
<path style="fill:rgb(0, 0, 255);fill-opacity:0;fill-rule:evenodd;stroke:rgb(0, 248, 255);stroke-width:1;" d="M 551.166, 190.92 L 625.521, 0 L 684.172, 13.0061 L 632.883, 144.54 L 651.534, 148.712 L 667.73, 152.638 L 644.908, 211.534 L 639.509, 224.785 L 592.147, 214.479 L 597.301, 200.982 L 551.166, 190.92 z "/>
</svg>