<?xml version="1.0" encoding="iso-8859-1" standalone="no"?>
<!DOCTYPE svg PUBLIC "-//W3C//DTD SVG 1.0//EN" "http://www.w3.org/TR/2001/REC-SVG-20010904/DTD/svg10.dtd">
<svg xmlns="http://www.w3.org/2000/svg" width="1225" height="800">
<path style="fill:rgb(255, 0, 0);fill-opacity:0;fill-rule:evenodd;stroke:rgb(163, 255, 0);stroke-width:1;" d="M 1059.35, 764.777 L 1059.59, 762.847 L 1060.31, 759.228 L 1065.38, 748.372 L 1080.34, 725.452 L 1091.44, 729.795 L 1092.16, 728.347 L 1104.22, 732.69 L 1161.88, 740.893 L 1163.81, 732.931 L 1166.95, 733.414 L 1172.5, 710.736 L 1130.28, 704.946 L 1132.21, 697.467 L 1111.7, 694.572 L 1130.28, 617.853 L 1134.14, 618.335 L 1138.96, 599.035 L 1131, 598.07 L 1144.03, 544.511 L 1152.23, 545.718 L 1156.82, 526.417 L 1152.96, 525.935 L 1171.77, 448.975 L 1225.33, 456.454 L 1210.13, 519.421 L 1209.41, 522.075 L 1198.79, 520.627 L 1195.9, 532.449 L 1210.13, 534.379 L 1187.94, 625.814 L 1173.94, 623.884 L 1171.05, 635.706 L 1181.42, 637.153 L 1165.5, 702.292 L 1183.35, 704.704 L 1173.94, 743.305 L 1167.67, 742.581 L 1164.29, 756.815 L 1167.19, 757.298 L 1164.05, 770.326 L 1161.64, 770.084 L 1160.68, 774.186 L 1163.09, 774.427 L 1159.71, 787.696 L 1156.82, 787.214 L 1156.09, 789.867 L 1144.75, 788.42 L 1142.58, 797.105 L 1140.89, 799.035 L 1139.2, 799.759 L 1124.25, 797.587 L 1123.52, 800 L 1112.91, 798.552 L 1113.63, 795.175 L 1105.91, 794.21 L 1105.67, 795.175 L 1089.51, 789.626 L 1090.71, 787.696 L 1087.58, 786.731 L 1086.13, 789.144 L 1079.61, 786.731 L 1073.34, 784.077 L 1069.72, 782.147 L 1066.59, 779.493 L 1065.14, 778.046 L 1061.04, 771.773 L 1059.83, 768.154 L 1059.35, 764.777 z "/>
<path style="fill:rgb(0, 255, 0);fill-opacity:0;fill-rule:evenodd;stroke:rgb(163, 255, 0);stroke-width:1;" d="M 972.014, 311.701 L 979.493, 281.303 L 995.416, 283.474 L 999.035, 268.275 L 1002.9, 268.758 L 1005.55, 257.66 L 986.007, 254.765 L 992.521, 228.468 L 1047.29, 236.429 L 1061.52, 238.359 L 1062.24, 235.223 L 1067.79, 236.188 L 1067.07, 239.083 L 1078.17, 240.772 L 1074.31, 256.695 L 1070.21, 256.212 L 1067.55, 266.828 L 1038.6, 262.726 L 1039.08, 260.314 L 1034.26, 259.59 L 1030.88, 273.341 L 1024.13, 272.376 L 1018.34, 295.296 L 1024.37, 296.261 L 1025.33, 292.4 L 1050.66, 296.019 L 1050.42, 297.226 L 1075.51, 300.844 L 1074.55, 304.946 L 1079.86, 305.669 L 1085.89, 282.027 L 1111.46, 285.887 L 1107.84, 300.844 L 1123.28, 303.257 L 1115.8, 332.931 L 1096.98, 330.277 L 1095.05, 337.515 L 1098.91, 337.998 L 1096.74, 346.924 L 1055.25, 340.893 L 1057.42, 331.966 L 1059.35, 332.207 L 1061.52, 323.522 L 1044.39, 320.869 L 1044.63, 319.421 L 1027.5, 317.008 L 1025.33, 325.694 L 1027.74, 325.935 L 1025.33, 335.344 L 983.836, 329.312 L 985.766, 321.592 L 989.626, 322.075 L 991.556, 314.355 L 972.014, 311.701 z "/>
<path style="fill:rgb(0, 0, 255);fill-opacity:0;fill-rule:evenodd;stroke:rgb(163, 255, 0);stroke-width:1;" d="M 1007.72, 204.584 L 1014.23, 178.046 L 1036.43, 181.423 L 1039.57, 169.119 L 1043.18, 169.602 L 1045.84, 158.263 L 1020.02, 154.403 L 1027.5, 125.211 L 1053.8, 129.071 L 1053.32, 131.242 L 1083.47, 135.585 L 1082.75, 138.721 L 1103.02, 141.616 L 1103.74, 138.48 L 1137.52, 143.305 L 1134.14, 156.815 L 1125.93, 155.609 L 1122.56, 168.637 L 1080.1, 162.606 L 1080.58, 160.676 L 1074.55, 159.952 L 1071.17, 173.945 L 1066.83, 173.462 L 1063.45, 186.972 L 1067.79, 187.696 L 1068.28, 186.248 L 1100.36, 190.832 L 1093.85, 216.647 L 1057.66, 211.339 L 1054.76, 223.402 L 1026.06, 219.3 L 1029.19, 207.479 L 1007.72, 204.584 z "/>
<path style="fill:rgb(255, 255, 0);fill-opacity:0;fill-rule:evenodd;stroke:rgb(163, 255, 0);stroke-width:1;" d="M 1032.81, 463.45 L 1032.81, 430.881 L 1057.9, 434.258 L 1056.94, 437.877 L 1062.48, 438.601 L 1069.96, 408.203 L 1067.79, 407.961 L 1068.28, 405.308 L 1070.69, 405.549 L 1073.82, 392.039 L 1067.79, 391.315 L 1067.31, 393.727 L 1034.02, 388.902 L 1033.78, 368.878 L 1036.67, 357.057 L 1086.85, 364.053 L 1087.58, 360.434 L 1112.91, 364.053 L 1104.95, 396.864 L 1102.77, 396.381 L 1097.23, 419.3 L 1091.68, 441.978 L 1093.85, 442.22 L 1085.65, 475.513 L 1060.31, 472.135 L 1061.52, 467.551 L 1032.81, 463.45 z "/>
<path style="fill:rgb(255, 0, 0);fill-opacity:0;fill-rule:evenodd;stroke:rgb(163, 255, 0);stroke-width:1;" d="M 433.293, 683.957 L 517.732, 568.637 L 537.998, 577.081 L 552.232, 583.112 L 468.034, 698.673 L 433.293, 683.957 z "/>
<path style="fill:rgb(0, 255, 0);fill-opacity:0;fill-rule:evenodd;stroke:rgb(163, 255, 0);stroke-width:1;" d="M 1006.51, 551.749 L 1011.58, 530.76 L 1028.47, 532.931 L 1027.74, 536.55 L 1039.32, 538.239 L 1047.29, 505.669 L 1044.87, 505.187 L 1045.36, 503.257 L 1047.77, 503.739 L 1048.73, 499.156 L 1026.3, 496.019 L 1032.09, 472.135 L 1059.35, 475.995 L 1060.31, 472.135 L 1085.65, 475.513 L 1077.2, 510.253 L 1075.75, 510.012 L 1070.45, 532.207 L 1067.79, 542.823 L 1069.24, 543.064 L 1061.04, 577.322 L 1055.49, 579.011 L 1006.51, 551.749 z "/>
<path style="fill:rgb(0, 0, 255);fill-opacity:0;fill-rule:evenodd;stroke:rgb(163, 255, 0);stroke-width:1;" d="M 0, 23.1604 L 11.0977, 0 L 78.1665, 21.7129 L 74.5476, 27.9855 L 71.4113, 33.2931 L 67.5513, 32.0869 L 62.9674, 40.2895 L 0, 23.1604 z "/>
<path style="fill:rgb(255, 255, 0);fill-opacity:0;fill-rule:evenodd;stroke:rgb(163, 255, 0);stroke-width:1;" d="M 943.064, 375.633 L 943.305, 366.707 L 946.441, 366.707 L 946.441, 361.882 L 972.738, 361.882 L 972.738, 364.536 L 976.84, 364.536 L 976.84, 361.882 L 997.829, 362.123 L 997.829, 375.875 L 943.064, 375.633 z "/>
<path style="fill:rgb(255, 0, 0);fill-opacity:0;fill-rule:evenodd;stroke:rgb(163, 255, 0);stroke-width:1;" d="M 942.34, 407.479 L 942.581, 400 L 945.959, 400 L 945.959, 394.692 L 972.738, 394.692 L 972.738, 397.587 L 976.598, 397.587 L 976.598, 394.692 L 996.864, 394.934 L 996.864, 408.685 L 945.718, 408.685 L 945.718, 407.479 L 942.34, 407.479 z "/>
<path style="fill:rgb(0, 255, 0);fill-opacity:0;fill-rule:evenodd;stroke:rgb(163, 255, 0);stroke-width:1;" d="M 942.34, 424.849 L 942.34, 417.37 L 945.476, 417.37 L 945.476, 412.304 L 996.381, 412.545 L 996.14, 426.297 L 945.235, 426.055 L 945.235, 424.849 L 942.34, 424.849 z "/>
<path style="fill:rgb(0, 0, 255);fill-opacity:0;fill-rule:evenodd;stroke:rgb(163, 255, 0);stroke-width:1;" d="M 943.305, 356.574 L 943.305, 348.372 L 998.07, 348.372 L 997.829, 362.123 L 976.84, 361.882 L 976.84, 359.228 L 972.979, 359.228 L 972.738, 361.882 L 946.441, 361.882 L 946.683, 356.574 L 943.305, 356.574 z "/>
<path style="fill:rgb(255, 255, 0);fill-opacity:0;fill-rule:evenodd;stroke:rgb(163, 255, 0);stroke-width:1;" d="M 943.064, 389.867 L 943.064, 382.147 L 945.959, 382.147 L 945.959, 380.941 L 997.105, 381.182 L 996.864, 394.934 L 976.598, 394.692 L 976.84, 392.28 L 972.738, 392.28 L 972.738, 394.692 L 945.959, 394.692 L 945.959, 389.867 L 943.064, 389.867 z "/>
<path style="fill:rgb(255, 0, 0);fill-opacity:0;fill-rule:evenodd;stroke:rgb(163, 255, 0);stroke-width:1;" d="M 942.34, 432.811 L 945.476, 432.811 L 945.476, 431.604 L 995.899, 431.604 L 996.14, 445.115 L 945.476, 445.115 L 945.476, 440.531 L 942.581, 440.531 L 942.34, 432.811 z "/>
<path style="fill:rgb(0, 255, 0);fill-opacity:0;fill-rule:evenodd;stroke:rgb(163, 255, 0);stroke-width:1;" d="M 941.616, 457.177 L 941.616, 449.457 L 944.511, 449.457 L 944.511, 448.251 L 994.934, 448.251 L 995.175, 461.761 L 944.511, 461.761 L 944.511, 457.177 L 941.616, 457.177 z "/>
<path style="fill:rgb(0, 0, 255);fill-opacity:0;fill-rule:evenodd;stroke:rgb(163, 255, 0);stroke-width:1;" d="M 942.581, 510.736 L 942.581, 507.841 L 988.902, 508.323 L 988.661, 529.071 L 974.427, 528.83 L 942.581, 510.736 z "/>
<path style="fill:rgb(255, 255, 0);fill-opacity:0;fill-rule:evenodd;stroke:rgb(163, 255, 0);stroke-width:1;" d="M 942.823, 481.544 L 943.064, 468.034 L 989.144, 468.275 L 989.144, 481.785 L 942.823, 481.544 z "/>
<path style="fill:rgb(255, 0, 0);fill-opacity:0;fill-rule:evenodd;stroke:rgb(163, 255, 0);stroke-width:1;" d="M 942.581, 507.841 L 942.823, 494.813 L 988.902, 495.054 L 988.902, 508.323 L 942.581, 507.841 z "/>
<path style="fill:rgb(0, 255, 0);fill-opacity:0;fill-rule:evenodd;stroke:rgb(163, 255, 0);stroke-width:1;" d="M 942.823, 494.813 L 942.823, 481.544 L 989.144, 481.785 L 988.902, 495.054 L 942.823, 494.813 z "/>
</svg>