<?xml version="1.0" encoding="iso-8859-1" standalone="no"?>
<!DOCTYPE svg PUBLIC "-//W3C//DTD SVG 1.0//EN" "http://www.w3.org/TR/2001/REC-SVG-20010904/DTD/svg10.dtd">
<svg xmlns="http://www.w3.org/2000/svg" width="916" height="800">
<path style="fill:rgb(255, 0, 0);fill-opacity:0;fill-rule:evenodd;stroke:rgb(0, 134, 255);stroke-width:1;" d="M 84.704, 353.364 L 89.3918, 332.027 L 91.4932, 332.35 L 108.305, 248.293 L 105.88, 247.969 L 110.083, 226.793 L 114.124, 227.278 L 114.609, 225.338 L 171.509, 226.308 L 225.338, 226.47 L 224.854, 228.41 L 229.38, 228.248 L 232.774, 249.262 L 230.511, 249.586 L 243.928, 334.775 L 246.838, 334.613 L 249.909, 356.597 L 199.96, 355.627 L 200.445, 350.455 L 135.138, 349.485 L 134.169, 354.334 L 84.704, 353.364 z M 177.005, 264.296 L 177.167, 267.852 L 179.915, 270.115 L 182.825, 272.702 L 185.25, 275.45 L 187.189, 278.521 L 188.644, 281.269 L 189.776, 284.502 L 190.584, 287.735 L 190.746, 291.13 L 193.009, 290.968 L 189.291, 264.457 L 177.005, 264.296 z M 140.15, 290.645 L 143.383, 290.645 L 143.544, 288.705 L 144.352, 285.31 L 145.484, 282.077 L 147.424, 278.359 L 149.525, 275.288 L 152.112, 272.54 L 155.021, 269.954 L 158.254, 267.529 L 158.416, 262.194 L 145.322, 262.033 L 140.15, 290.645 z M 184.118, 319.58 L 184.28, 329.44 L 201.091, 329.764 L 197.05, 301.152 L 193.009, 301.152 L 192.685, 303.9 L 191.715, 307.456 L 190.422, 310.851 L 188.967, 313.437 L 186.704, 316.67 L 184.118, 319.58 z M 134.977, 327.985 L 152.596, 329.117 L 151.95, 318.771 L 150.172, 316.67 L 148.07, 313.275 L 146.292, 309.719 L 145.484, 307.294 L 144.514, 303.576 L 144.191, 299.859 L 140.15, 299.697 L 134.977, 327.985 z "/>
<path style="fill:rgb(0, 255, 0);fill-opacity:0;fill-rule:evenodd;stroke:rgb(0, 134, 255);stroke-width:1;" d="M 256.375, 152.273 L 304.385, 147.909 L 305.516, 154.213 L 340.594, 150.98 L 348.03, 198.343 L 424.166, 191.392 L 425.46, 199.475 L 426.591, 207.395 L 431.926, 241.665 L 419.802, 242.635 L 391.352, 245.221 L 393.777, 260.255 L 395.07, 269.307 L 397.333, 283.532 L 309.719, 281.592 L 309.073, 276.904 L 276.258, 279.814 L 256.375, 152.273 z "/>
<path style="fill:rgb(0, 0, 255);fill-opacity:0;fill-rule:evenodd;stroke:rgb(0, 134, 255);stroke-width:1;" d="M 353.203, 574.823 L 515.336, 547.666 L 533.118, 609.093 L 520.186, 611.356 L 530.37, 646.595 L 393.777, 669.388 L 383.431, 634.148 L 370.984, 636.25 L 353.203, 574.823 z "/>
<path style="fill:rgb(255, 255, 0);fill-opacity:0;fill-rule:evenodd;stroke:rgb(0, 134, 255);stroke-width:1;" d="M 256.375, 152.273 L 304.385, 147.909 L 305.516, 154.213 L 306.325, 159.547 L 329.117, 157.446 L 335.583, 199.313 L 336.876, 207.557 L 425.46, 199.475 L 426.591, 207.395 L 431.926, 241.665 L 419.802, 242.635 L 391.352, 245.221 L 393.777, 260.255 L 395.07, 269.307 L 309.073, 276.904 L 276.258, 279.814 L 256.375, 152.273 z "/>
<path style="fill:rgb(255, 0, 0);fill-opacity:0;fill-rule:evenodd;stroke:rgb(0, 134, 255);stroke-width:1;" d="M 570.62, 488.664 L 726.773, 462.154 L 740.028, 507.092 L 734.047, 508.062 L 735.664, 513.558 L 738.412, 513.073 L 738.089, 511.78 L 739.22, 511.619 L 745.686, 526.49 L 740.028, 527.46 L 740.19, 527.783 L 739.058, 528.107 L 624.449, 547.666 L 589.857, 552.516 L 587.27, 537.482 L 588.402, 537.159 L 588.725, 538.452 L 590.988, 537.967 L 590.665, 536.674 L 592.443, 536.351 L 591.311, 532.633 L 583.876, 533.926 L 570.62, 488.664 z "/>
<path style="fill:rgb(0, 255, 0);fill-opacity:0;fill-rule:evenodd;stroke:rgb(0, 134, 255);stroke-width:1;" d="M 353.203, 574.823 L 515.336, 547.666 L 533.118, 609.093 L 520.186, 611.356 L 515.66, 612.326 L 388.119, 633.663 L 383.431, 634.148 L 370.984, 636.25 L 353.203, 574.823 z "/>
<path style="fill:rgb(0, 0, 255);fill-opacity:0;fill-rule:evenodd;stroke:rgb(0, 134, 255);stroke-width:1;" d="M 272.702, 172.964 L 276.904, 172.641 L 275.126, 162.295 L 306.325, 159.547 L 307.941, 169.893 L 321.843, 168.6 L 326.854, 200.121 L 335.583, 199.313 L 336.876, 207.557 L 338.169, 215.316 L 426.591, 207.395 L 431.926, 241.665 L 419.802, 242.635 L 391.352, 245.221 L 393.777, 260.255 L 297.919, 268.822 L 296.464, 259.608 L 286.442, 260.416 L 272.702, 172.964 z "/>
<path style="fill:rgb(255, 255, 0);fill-opacity:0;fill-rule:evenodd;stroke:rgb(0, 134, 255);stroke-width:1;" d="M 538.614, 272.702 L 547.666, 265.427 L 565.933, 265.104 L 588.563, 260.901 L 604.89, 254.759 L 617.014, 257.83 L 656.779, 318.61 L 652.738, 327.985 L 636.411, 334.128 L 568.842, 346.898 L 550.576, 347.222 L 541.039, 340.432 L 538.614, 272.702 z "/>
<path style="fill:rgb(255, 0, 0);fill-opacity:0;fill-rule:evenodd;stroke:rgb(0, 134, 255);stroke-width:1;" d="M 621.055, 556.88 L 626.874, 555.91 L 624.449, 547.666 L 739.058, 528.107 L 741.483, 536.351 L 746.333, 535.543 L 747.141, 538.452 L 759.264, 579.996 L 754.577, 580.804 L 757.001, 589.372 L 641.907, 609.093 L 639.483, 600.525 L 634.148, 601.334 L 621.055, 556.88 z "/>
<path style="fill:rgb(0, 255, 0);fill-opacity:0;fill-rule:evenodd;stroke:rgb(0, 134, 255);stroke-width:1;" d="M 765.569, 294.201 L 808.891, 266.236 L 858.517, 234.229 L 907.981, 278.198 L 857.385, 310.851 L 815.033, 338.169 L 807.597, 331.542 L 767.347, 295.656 L 765.569, 294.201 z "/>
<path style="fill:rgb(0, 0, 255);fill-opacity:0;fill-rule:evenodd;stroke:rgb(0, 134, 255);stroke-width:1;" d="M 16.8115, 114.609 L 46.0699, 47.8481 L 157.123, 73.3886 L 159.386, 74.0352 L 146.454, 91.3316 L 143.706, 90.685 L 123.985, 117.842 L 126.894, 118.489 L 113.477, 136.917 L 111.861, 136.593 L 75.9749, 126.733 L 75.49, 126.571 L 83.4108, 116.71 L 80.1778, 115.417 L 86.8054, 105.395 L 91.4932, 106.365 L 95.8577, 101.031 L 97.6359, 101.515 L 103.132, 94.5646 L 106.203, 87.1287 L 96.5043, 84.8656 L 91.3316, 97.4742 L 70.9638, 92.7864 L 76.1366, 79.8545 L 67.5692, 77.9147 L 59.1635, 99.2524 L 63.3663, 100.222 L 59.3251, 110.406 L 54.4757, 109.275 L 49.3029, 122.045 L 47.8481, 121.722 L 16.8115, 114.609 z "/>
<path style="fill:rgb(255, 255, 0);fill-opacity:0;fill-rule:evenodd;stroke:rgb(0, 134, 255);stroke-width:1;" d="M 539.907, 234.876 L 540.877, 153.243 L 553.97, 141.766 L 605.213, 138.533 L 605.536, 140.311 L 609.739, 166.822 L 611.356, 177.652 L 598.424, 178.945 L 603.597, 187.836 L 621.54, 219.196 L 553.647, 242.797 L 539.907, 234.876 z "/>
<path style="fill:rgb(255, 0, 0);fill-opacity:0;fill-rule:evenodd;stroke:rgb(0, 134, 255);stroke-width:1;" d="M 104.263, 424.975 L 106.042, 375.672 L 224.207, 377.935 L 222.429, 427.076 L 222.429, 427.399 L 104.263, 424.975 z "/>
<path style="fill:rgb(0, 255, 0);fill-opacity:0;fill-rule:evenodd;stroke:rgb(0, 134, 255);stroke-width:1;" d="M 173.126, 605.86 L 179.753, 600.04 L 241.018, 641.099 L 245.706, 645.14 L 249.101, 649.182 L 251.687, 654.354 L 252.98, 659.527 L 253.304, 664.377 L 252.334, 669.064 L 249.747, 673.914 L 246.353, 678.278 L 238.27, 686.199 L 236.331, 689.594 L 236.331, 692.665 L 238.109, 696.383 L 241.503, 698.808 L 246.353, 700.101 L 282.885, 702.849 L 288.705, 702.526 L 294.039, 700.586 L 297.757, 698.485 L 300.828, 696.221 L 303.253, 693.15 L 304.708, 690.079 L 303.576, 686.199 L 300.99, 683.451 L 297.272, 682.158 L 293.231, 681.996 L 289.19, 683.128 L 286.442, 684.906 L 282.885, 686.846 L 276.743, 681.835 L 280.946, 678.925 L 285.149, 676.5 L 290.645, 675.045 L 296.787, 674.884 L 301.96, 676.015 L 307.133, 678.117 L 310.527, 680.703 L 313.114, 683.936 L 314.245, 688.301 L 314.084, 694.12 L 314.892, 699.293 L 317.317, 704.95 L 354.334, 761.366 L 358.214, 760.396 L 375.995, 797.414 L 364.841, 800 L 313.76, 718.367 L 230.188, 711.74 L 203.678, 746.656 L 200.768, 776.561 L 180.562, 740.19 L 179.915, 735.987 L 181.37, 732.916 L 208.042, 705.112 L 235.199, 678.117 L 239.24, 674.237 L 242.15, 670.034 L 243.281, 665.347 L 243.12, 658.396 L 240.695, 653.061 L 236.816, 648.697 L 231.966, 645.14 L 173.126, 605.86 z "/>
<path style="fill:rgb(0, 0, 255);fill-opacity:0;fill-rule:evenodd;stroke:rgb(0, 134, 255);stroke-width:1;" d="M 247.323, 82.4409 L 247.646, 72.742 L 249.262, 63.2047 L 254.759, 47.8481 L 269.145, 52.2126 L 290.483, 58.6785 L 325.561, 69.509 L 344.959, 75.1667 L 358.537, 79.6929 L 362.417, 80.6628 L 343.665, 119.62 L 337.846, 122.853 L 304.546, 121.075 L 303.9, 112.023 L 306.163, 111.861 L 306.001, 103.94 L 277.713, 95.5345 L 281.269, 110.568 L 285.149, 110.891 L 284.017, 121.075 L 248.616, 119.943 L 247.969, 93.1097 L 247.323, 82.4409 z "/>
<path style="fill:rgb(255, 255, 0);fill-opacity:0;fill-rule:evenodd;stroke:rgb(0, 134, 255);stroke-width:1;" d="M 195.433, 500.626 L 201.091, 500.303 L 201.091, 485.431 L 201.091, 460.376 L 263.811, 457.951 L 266.882, 503.051 L 269.307, 538.776 L 198.343, 541.524 L 195.433, 500.626 z "/>
<path style="fill:rgb(255, 0, 0);fill-opacity:0;fill-rule:evenodd;stroke:rgb(0, 134, 255);stroke-width:1;" d="M 658.719, 71.9337 L 670.843, 70.1556 L 665.831, 49.7878 L 671.812, 49.6262 L 726.611, 48.6563 L 745.524, 47.0398 L 773.813, 44.2918 L 761.366, 78.723 L 756.516, 90.0384 L 750.859, 103.132 L 740.998, 97.1509 L 738.089, 95.3728 L 723.217, 97.4742 L 725.965, 104.748 L 683.936, 107.981 L 683.451, 103.779 L 666.478, 103.94 L 666.316, 102.809 L 660.82, 80.3395 L 658.719, 71.9337 z "/>
<path style="fill:rgb(0, 255, 0);fill-opacity:0;fill-rule:evenodd;stroke:rgb(0, 134, 255);stroke-width:1;" d="M 545.403, 121.398 L 557.688, 64.8212 L 610.224, 65.6294 L 611.194, 75.3283 L 643.039, 73.5502 L 643.847, 81.3094 L 660.82, 80.3395 L 666.316, 102.809 L 666.478, 103.94 L 667.771, 109.275 L 669.226, 114.447 L 545.403, 121.398 z "/>
<path style="fill:rgb(0, 0, 255);fill-opacity:0;fill-rule:evenodd;stroke:rgb(0, 134, 255);stroke-width:1;" d="M 247.323, 82.4409 L 247.646, 72.742 L 249.262, 63.2047 L 254.759, 47.8481 L 269.145, 52.2126 L 290.483, 58.6785 L 325.561, 69.509 L 344.959, 75.1667 L 358.537, 79.6929 L 339.301, 120.105 L 338.008, 120.752 L 306.001, 118.812 L 306.163, 111.861 L 306.001, 103.94 L 277.713, 95.5345 L 281.269, 110.568 L 282.724, 117.68 L 250.232, 115.256 L 248.939, 114.447 L 247.969, 93.1097 L 247.323, 82.4409 z "/>
<path style="fill:rgb(255, 255, 0);fill-opacity:0;fill-rule:evenodd;stroke:rgb(0, 134, 255);stroke-width:1;" d="M 280.299, 303.092 L 362.578, 302.122 L 367.428, 337.846 L 380.36, 336.876 L 383.108, 357.567 L 287.412, 356.112 L 280.299, 303.092 z "/>
<path style="fill:rgb(255, 0, 0);fill-opacity:0;fill-rule:evenodd;stroke:rgb(0, 134, 255);stroke-width:1;" d="M 272.702, 172.964 L 276.904, 172.641 L 307.941, 169.893 L 321.843, 168.6 L 326.854, 200.121 L 335.583, 256.052 L 286.442, 260.416 L 272.702, 172.964 z "/>
<path style="fill:rgb(0, 255, 0);fill-opacity:0;fill-rule:evenodd;stroke:rgb(0, 134, 255);stroke-width:1;" d="M 418.67, 359.184 L 418.994, 302.768 L 496.747, 305.678 L 493.191, 360.154 L 493.029, 360.477 L 418.67, 359.184 z "/>
<path style="fill:rgb(0, 0, 255);fill-opacity:0;fill-rule:evenodd;stroke:rgb(0, 134, 255);stroke-width:1;" d="M 765.569, 294.201 L 808.891, 266.236 L 838.311, 273.833 L 854.637, 288.543 L 857.385, 310.851 L 815.033, 338.169 L 807.597, 331.542 L 767.347, 295.656 L 765.569, 294.201 z "/>
<path style="fill:rgb(255, 255, 0);fill-opacity:0;fill-rule:evenodd;stroke:rgb(0, 134, 255);stroke-width:1;" d="M 0, 152.435 L 16.8115, 114.609 L 47.8481, 121.722 L 44.2918, 130.774 L 41.0588, 129.966 L 39.7656, 133.36 L 56.5771, 137.24 L 53.5058, 145.161 L 73.7119, 149.848 L 77.5914, 140.311 L 71.1255, 138.856 L 75.9749, 126.733 L 111.861, 136.593 L 97.3126, 173.126 L 88.0986, 175.551 L 4.52617, 158.254 L 0, 152.435 z "/>
<path style="fill:rgb(255, 0, 0);fill-opacity:0;fill-rule:evenodd;stroke:rgb(0, 134, 255);stroke-width:1;" d="M 388.119, 633.663 L 515.66, 612.326 L 523.581, 639.806 L 396.201, 661.144 L 388.119, 633.663 z "/>
<path style="fill:rgb(0, 255, 0);fill-opacity:0;fill-rule:evenodd;stroke:rgb(0, 134, 255);stroke-width:1;" d="M 441.948, 226.47 L 457.305, 226.955 L 457.789, 218.711 L 502.405, 220.327 L 498.04, 285.149 L 443.079, 284.179 L 442.433, 248.939 L 441.948, 226.47 z "/>
<path style="fill:rgb(0, 0, 255);fill-opacity:0;fill-rule:evenodd;stroke:rgb(0, 134, 255);stroke-width:1;" d="M 295.332, 400.242 L 299.05, 394.746 L 308.103, 392.645 L 328.632, 387.957 L 326.046, 380.198 L 329.925, 375.025 L 382.138, 374.864 L 389.574, 377.935 L 398.788, 400.889 L 394.746, 406.708 L 311.497, 425.783 L 304.223, 422.873 L 295.332, 400.242 z "/>
<path style="fill:rgb(255, 255, 0);fill-opacity:0;fill-rule:evenodd;stroke:rgb(0, 134, 255);stroke-width:1;" d="M 91.6549, 461.184 L 92.6248, 461.184 L 93.2714, 451.97 L 164.558, 454.395 L 162.942, 508.224 L 147.262, 507.901 L 147.1, 508.547 L 130.936, 506.446 L 117.357, 500.788 L 106.85, 493.675 L 98.6058, 483.977 L 92.7864, 471.53 L 91.6549, 461.184 z "/>
<path style="fill:rgb(255, 0, 0);fill-opacity:0;fill-rule:evenodd;stroke:rgb(0, 134, 255);stroke-width:1;" d="M 92.6248, 461.184 L 93.2714, 451.97 L 164.558, 454.395 L 162.942, 508.224 L 147.262, 507.901 L 131.259, 505.638 L 117.842, 500.141 L 107.496, 493.191 L 99.414, 483.653 L 93.7563, 471.53 L 92.6248, 461.184 z "/>
<path style="fill:rgb(0, 255, 0);fill-opacity:0;fill-rule:evenodd;stroke:rgb(0, 134, 255);stroke-width:1;" d="M 417.701, 424.813 L 494.484, 405.092 L 504.183, 454.072 L 439.2, 470.721 L 429.663, 450.515 L 417.701, 424.813 z M 446.474, 436.937 L 451.485, 448.737 L 448.091, 449.545 L 449.384, 452.455 L 472.338, 446.636 L 464.74, 429.016 L 451, 432.572 L 452.293, 435.482 L 446.474, 436.937 z "/>
<path style="fill:rgb(0, 0, 255);fill-opacity:0;fill-rule:evenodd;stroke:rgb(0, 134, 255);stroke-width:1;" d="M 431.117, 91.8165 L 434.835, 40.7355 L 483.492, 42.6753 L 496.908, 43.3219 L 493.191, 94.5646 L 477.672, 93.918 L 431.117, 91.8165 z "/>
<path style="fill:rgb(255, 255, 0);fill-opacity:0;fill-rule:evenodd;stroke:rgb(0, 134, 255);stroke-width:1;" d="M 251.364, 87.6137 L 269.145, 52.2126 L 290.483, 58.6785 L 325.561, 69.509 L 344.959, 75.1667 L 327.177, 110.244 L 251.364, 87.6137 z "/>
<path style="fill:rgb(255, 0, 0);fill-opacity:0;fill-rule:evenodd;stroke:rgb(0, 134, 255);stroke-width:1;" d="M 797.252, 123.338 L 856.092, 109.76 L 872.257, 156.476 L 824.571, 166.983 L 797.252, 123.338 z "/>
<path style="fill:rgb(0, 255, 0);fill-opacity:0;fill-rule:evenodd;stroke:rgb(0, 134, 255);stroke-width:1;" d="M 564.639, 104.748 L 570.62, 65.7911 L 605.213, 66.276 L 605.86, 77.7531 L 623.803, 76.4599 L 637.543, 75.9749 L 638.19, 83.5724 L 647.08, 83.5724 L 648.697, 102.485 L 564.639, 104.748 z "/>
<path style="fill:rgb(0, 0, 255);fill-opacity:0;fill-rule:evenodd;stroke:rgb(0, 134, 255);stroke-width:1;" d="M 310.042, 453.587 L 352.879, 441.786 L 356.921, 450.192 L 357.567, 450.03 L 372.277, 478.481 L 371.792, 478.642 L 375.995, 487.048 L 323.459, 500.626 L 310.042, 453.587 z "/>
<path style="fill:rgb(255, 255, 0);fill-opacity:0;fill-rule:evenodd;stroke:rgb(0, 134, 255);stroke-width:1;" d="M 658.719, 71.9337 L 670.843, 70.1556 L 665.831, 49.7878 L 671.812, 49.6262 L 726.611, 48.6563 L 726.288, 57.7086 L 730.814, 60.9416 L 728.39, 72.0954 L 721.924, 72.0954 L 703.011, 75.8133 L 701.233, 80.5011 L 682.158, 81.471 L 682.481, 84.704 L 674.237, 84.3807 L 675.369, 91.9782 L 678.278, 101.677 L 685.714, 101.677 L 707.86, 100.707 L 723.217, 97.4742 L 725.965, 104.748 L 683.936, 107.981 L 683.451, 103.779 L 666.478, 103.94 L 666.316, 102.809 L 660.82, 80.3395 L 658.719, 71.9337 z "/>
<path style="fill:rgb(255, 0, 0);fill-opacity:0;fill-rule:evenodd;stroke:rgb(0, 134, 255);stroke-width:1;" d="M 254.92, 84.3807 L 269.307, 56.5771 L 283.694, 60.78 L 328.309, 75.0051 L 341.726, 78.723 L 327.177, 106.042 L 314.407, 102 L 269.307, 88.7452 L 254.92, 84.3807 z "/>
<path style="fill:rgb(0, 255, 0);fill-opacity:0;fill-rule:evenodd;stroke:rgb(0, 134, 255);stroke-width:1;" d="M 761.204, 225.177 L 811.477, 186.219 L 836.048, 211.437 L 789.978, 247.161 L 761.204, 225.177 z "/>
<path style="fill:rgb(0, 0, 255);fill-opacity:0;fill-rule:evenodd;stroke:rgb(0, 134, 255);stroke-width:1;" d="M 605.536, 140.311 L 664.377, 134.977 L 676.824, 157.931 L 682.32, 155.021 L 702.849, 177.975 L 692.342, 184.926 L 682.643, 171.348 L 676.177, 162.134 L 671.974, 162.619 L 672.136, 163.427 L 657.426, 164.882 L 656.941, 162.457 L 609.739, 166.822 L 605.536, 140.311 z "/>
<path style="fill:rgb(255, 255, 0);fill-opacity:0;fill-rule:evenodd;stroke:rgb(0, 134, 255);stroke-width:1;" d="M 735.664, 180.077 L 769.448, 141.604 L 778.177, 140.796 L 800, 175.712 L 765.407, 197.858 L 765.569, 198.666 L 765.407, 199.636 L 765.084, 200.121 L 764.276, 200.768 L 762.982, 201.253 L 762.497, 201.253 L 761.204, 201.091 L 760.073, 200.606 L 759.426, 199.636 L 759.264, 199.313 L 759.264, 198.343 L 759.426, 197.858 L 735.664, 180.077 z "/>
<path style="fill:rgb(255, 0, 0);fill-opacity:0;fill-rule:evenodd;stroke:rgb(0, 134, 255);stroke-width:1;" d="M 682.158, 81.471 L 701.233, 80.5011 L 703.011, 75.8133 L 721.924, 72.0954 L 728.39, 72.0954 L 730.814, 60.9416 L 734.694, 52.3742 L 745.524, 47.0398 L 753.283, 53.0208 L 753.768, 63.3663 L 747.787, 85.8355 L 740.998, 97.1509 L 738.089, 95.3728 L 723.217, 97.4742 L 707.86, 100.707 L 685.714, 101.677 L 682.481, 84.704 L 682.158, 81.471 z "/>
<path style="fill:rgb(0, 255, 0);fill-opacity:0;fill-rule:evenodd;stroke:rgb(0, 134, 255);stroke-width:1;" d="M 382.138, 374.864 L 480.259, 375.025 L 483.007, 387.472 L 394.746, 406.708 L 398.788, 400.889 L 389.574, 377.935 L 382.138, 374.864 z "/>
<path style="fill:rgb(0, 0, 255);fill-opacity:0;fill-rule:evenodd;stroke:rgb(0, 134, 255);stroke-width:1;" d="M 619.438, 374.864 L 659.527, 365.973 L 673.752, 409.78 L 634.472, 419.802 L 629.622, 405.577 L 627.682, 399.596 L 619.438, 374.864 z "/>
<path style="fill:rgb(255, 255, 0);fill-opacity:0;fill-rule:evenodd;stroke:rgb(0, 134, 255);stroke-width:1;" d="M 723.055, 322.489 L 727.743, 319.418 L 728.551, 320.226 L 748.757, 305.84 L 749.889, 306.971 L 797.09, 353.041 L 774.459, 367.751 L 755.385, 350.94 L 723.055, 322.489 z "/>
<path style="fill:rgb(255, 0, 0);fill-opacity:0;fill-rule:evenodd;stroke:rgb(0, 134, 255);stroke-width:1;" d="M 269.307, 88.7452 L 283.694, 60.78 L 290.483, 58.6785 L 325.561, 69.509 L 328.309, 75.0051 L 314.407, 102 L 307.456, 104.425 L 272.217, 94.0796 L 269.307, 88.7452 z "/>
<path style="fill:rgb(0, 255, 0);fill-opacity:0;fill-rule:evenodd;stroke:rgb(0, 134, 255);stroke-width:1;" d="M 152.435, 531.501 L 166.013, 506.607 L 184.118, 508.709 L 184.118, 484.462 L 186.219, 484.462 L 201.091, 485.431 L 201.091, 500.303 L 195.433, 500.626 L 198.343, 541.524 L 198.343, 548.798 L 186.381, 548.798 L 179.915, 547.989 L 169.57, 543.14 L 171.833, 538.129 L 152.435, 531.501 z "/>
<path style="fill:rgb(0, 0, 255);fill-opacity:0;fill-rule:evenodd;stroke:rgb(0, 134, 255);stroke-width:1;" d="M 271.732, 88.4219 L 285.149, 62.8814 L 291.776, 61.1033 L 323.136, 70.6405 L 325.884, 75.49 L 313.114, 100.546 L 306.648, 102.485 L 273.995, 92.7864 L 271.732, 88.4219 z "/>
<path style="fill:rgb(255, 255, 0);fill-opacity:0;fill-rule:evenodd;stroke:rgb(0, 134, 255);stroke-width:1;" d="M 663.568, 557.527 L 706.89, 550.253 L 716.428, 582.906 L 673.106, 590.018 L 663.568, 557.527 z "/>
<path style="fill:rgb(255, 0, 0);fill-opacity:0;fill-rule:evenodd;stroke:rgb(0, 134, 255);stroke-width:1;" d="M 305.516, 154.213 L 340.594, 150.98 L 348.03, 198.343 L 424.166, 191.392 L 425.46, 199.475 L 336.876, 207.557 L 335.583, 199.313 L 329.117, 157.446 L 306.325, 159.547 L 305.516, 154.213 z "/>
<path style="fill:rgb(0, 255, 0);fill-opacity:0;fill-rule:evenodd;stroke:rgb(0, 134, 255);stroke-width:1;" d="M 383.431, 634.148 L 388.119, 633.663 L 396.201, 661.144 L 523.581, 639.806 L 515.66, 612.326 L 520.186, 611.356 L 530.37, 646.595 L 393.777, 669.388 L 383.431, 634.148 z "/>
<path style="fill:rgb(0, 0, 255);fill-opacity:0;fill-rule:evenodd;stroke:rgb(0, 134, 255);stroke-width:1;" d="M 399.111, 116.549 L 402.506, 70.4789 L 414.791, 70.8022 L 426.591, 71.2871 L 423.682, 112.023 L 461.831, 113.316 L 461.669, 118.65 L 399.111, 116.549 z "/>
<path style="fill:rgb(255, 255, 0);fill-opacity:0;fill-rule:evenodd;stroke:rgb(0, 134, 255);stroke-width:1;" d="M 749.889, 306.971 L 767.347, 295.656 L 807.597, 331.542 L 797.09, 353.041 L 749.889, 306.971 z "/>
<path style="fill:rgb(255, 0, 0);fill-opacity:0;fill-rule:evenodd;stroke:rgb(0, 134, 255);stroke-width:1;" d="M 372.277, 125.763 L 372.924, 115.094 L 403.799, 49.3029 L 402.506, 70.4789 L 399.111, 116.549 L 398.788, 121.56 L 398.788, 126.894 L 372.277, 125.763 z "/>
<path style="fill:rgb(0, 255, 0);fill-opacity:0;fill-rule:evenodd;stroke:rgb(0, 134, 255);stroke-width:1;" d="M 374.379, 436.613 L 417.701, 424.813 L 429.663, 450.515 L 416.407, 454.072 L 414.468, 450.03 L 405.9, 452.455 L 401.051, 453.748 L 401.859, 455.85 L 386.664, 459.891 L 374.379, 436.613 z "/>
<path style="fill:rgb(0, 0, 255);fill-opacity:0;fill-rule:evenodd;stroke:rgb(0, 134, 255);stroke-width:1;" d="M 391.352, 245.221 L 419.802, 242.635 L 423.035, 284.34 L 397.333, 283.532 L 395.07, 269.307 L 393.777, 260.255 L 391.352, 245.221 z "/>
<path style="fill:rgb(255, 255, 0);fill-opacity:0;fill-rule:evenodd;stroke:rgb(0, 134, 255);stroke-width:1;" d="M 119.297, 475.409 L 120.105, 458.113 L 157.931, 459.083 L 156.476, 488.179 L 133.684, 487.694 L 129.319, 486.725 L 124.793, 484.785 L 121.722, 481.875 L 120.105, 478.804 L 119.297, 475.409 z "/>
<path style="fill:rgb(255, 0, 0);fill-opacity:0;fill-rule:evenodd;stroke:rgb(0, 134, 255);stroke-width:1;" d="M 549.768, 117.842 L 558.335, 65.4678 L 564.316, 65.4678 L 556.557, 110.406 L 666.316, 102.809 L 666.478, 103.94 L 667.771, 109.275 L 549.768, 117.842 z "/>
<path style="fill:rgb(0, 255, 0);fill-opacity:0;fill-rule:evenodd;stroke:rgb(0, 134, 255);stroke-width:1;" d="M 651.283, 232.289 L 666.801, 227.44 L 664.215, 223.237 L 675.692, 219.196 L 695.575, 251.687 L 667.771, 261.548 L 651.283, 232.289 z "/>
<path style="fill:rgb(0, 0, 255);fill-opacity:0;fill-rule:evenodd;stroke:rgb(0, 134, 255);stroke-width:1;" d="M 723.863, 88.7452 L 724.187, 87.452 L 728.39, 72.0954 L 730.814, 60.9416 L 734.694, 52.3742 L 745.524, 47.0398 L 753.283, 53.0208 L 753.768, 63.3663 L 747.787, 85.8355 L 740.998, 97.1509 L 738.089, 95.3728 L 723.863, 88.7452 z "/>
<path style="fill:rgb(255, 255, 0);fill-opacity:0;fill-rule:evenodd;stroke:rgb(0, 134, 255);stroke-width:1;" d="M 556.557, 110.406 L 564.316, 65.4678 L 570.62, 65.7911 L 564.639, 104.748 L 648.697, 102.485 L 647.08, 83.5724 L 660.82, 80.3395 L 666.316, 102.809 L 556.557, 110.406 z "/>
<path style="fill:rgb(255, 0, 0);fill-opacity:0;fill-rule:evenodd;stroke:rgb(0, 134, 255);stroke-width:1;" d="M 278.359, 87.1287 L 288.705, 67.0843 L 293.231, 65.6294 L 318.125, 73.2269 L 320.226, 76.9448 L 310.204, 96.666 L 305.355, 98.1208 L 280.137, 90.5233 L 278.359, 87.1287 z "/>
<path style="fill:rgb(0, 255, 0);fill-opacity:0;fill-rule:evenodd;stroke:rgb(0, 134, 255);stroke-width:1;" d="M 377.127, 306.648 L 418.185, 308.264 L 415.114, 333.966 L 408.648, 333.482 L 408.163, 338.331 L 395.555, 337.523 L 394.585, 332.512 L 392.645, 321.519 L 378.582, 320.55 L 377.127, 306.648 z "/>
<path style="fill:rgb(0, 0, 255);fill-opacity:0;fill-rule:evenodd;stroke:rgb(0, 134, 255);stroke-width:1;" d="M 468.62, 180.723 L 468.943, 156.638 L 508.386, 158.739 L 506.769, 179.592 L 468.62, 180.723 z "/>
<path style="fill:rgb(255, 255, 0);fill-opacity:0;fill-rule:evenodd;stroke:rgb(0, 134, 255);stroke-width:1;" d="M 309.073, 276.904 L 395.07, 269.307 L 397.333, 283.532 L 309.719, 281.592 L 309.073, 276.904 z "/>
<path style="fill:rgb(255, 0, 0);fill-opacity:0;fill-rule:evenodd;stroke:rgb(0, 134, 255);stroke-width:1;" d="M 436.129, 181.693 L 438.392, 155.183 L 468.943, 156.638 L 468.62, 180.723 L 436.129, 181.693 z "/>
<path style="fill:rgb(0, 255, 0);fill-opacity:0;fill-rule:evenodd;stroke:rgb(0, 134, 255);stroke-width:1;" d="M 384.563, 460.537 L 386.664, 459.891 L 401.859, 455.85 L 401.051, 453.748 L 405.9, 452.455 L 408.002, 457.143 L 416.569, 454.718 L 425.783, 474.439 L 425.136, 474.601 L 425.621, 475.732 L 396.363, 483.653 L 384.563, 460.537 z "/>
<path style="fill:rgb(0, 0, 255);fill-opacity:0;fill-rule:evenodd;stroke:rgb(0, 134, 255);stroke-width:1;" d="M 706.567, 199.313 L 724.187, 187.351 L 752.96, 211.598 L 735.987, 224.207 L 706.567, 199.313 z "/>
<path style="fill:rgb(255, 255, 0);fill-opacity:0;fill-rule:evenodd;stroke:rgb(0, 134, 255);stroke-width:1;" d="M 682.32, 155.021 L 696.706, 147.424 L 701.718, 152.435 L 715.619, 144.191 L 726.45, 157.123 L 719.014, 165.367 L 702.849, 177.975 L 682.32, 155.021 z "/>
<path style="fill:rgb(255, 0, 0);fill-opacity:0;fill-rule:evenodd;stroke:rgb(0, 134, 255);stroke-width:1;" d="M 603.112, 378.582 L 619.438, 374.864 L 627.682, 399.596 L 621.378, 401.051 L 623.318, 406.87 L 629.622, 405.577 L 634.472, 419.802 L 617.66, 424.005 L 610.709, 404.122 L 611.841, 403.799 L 611.033, 401.374 L 610.224, 399.273 L 603.112, 378.582 z "/>
<path style="fill:rgb(0, 255, 0);fill-opacity:0;fill-rule:evenodd;stroke:rgb(0, 134, 255);stroke-width:1;" d="M 740.998, 97.1509 L 747.787, 85.8355 L 753.768, 63.3663 L 753.283, 53.0208 L 745.524, 47.0398 L 773.813, 44.2918 L 761.366, 78.723 L 756.516, 90.0384 L 750.859, 103.132 L 740.998, 97.1509 z "/>
<path style="fill:rgb(0, 0, 255);fill-opacity:0;fill-rule:evenodd;stroke:rgb(0, 134, 255);stroke-width:1;" d="M 450.677, 189.452 L 504.829, 188.483 L 503.374, 202.061 L 494.807, 202.223 L 451.162, 203.031 L 450.677, 189.452 z "/>
<path style="fill:rgb(255, 255, 0);fill-opacity:0;fill-rule:evenodd;stroke:rgb(0, 134, 255);stroke-width:1;" d="M 710.608, 128.834 L 741.806, 125.439 L 742.615, 125.439 L 744.393, 125.601 L 746.009, 126.248 L 746.818, 126.571 L 748.111, 127.541 L 748.919, 128.834 L 749.242, 129.481 L 749.242, 130.127 L 749.242, 131.42 L 749.081, 132.067 L 748.272, 133.36 L 726.45, 157.123 L 715.619, 144.191 L 710.608, 128.834 z "/>
<path style="fill:rgb(255, 0, 0);fill-opacity:0;fill-rule:evenodd;stroke:rgb(0, 134, 255);stroke-width:1;" d="M 731.299, 248.454 L 745.848, 237.139 L 755.385, 244.413 L 757.648, 242.635 L 776.884, 257.345 L 760.234, 270.115 L 731.299, 248.454 z "/>
<path style="fill:rgb(0, 255, 0);fill-opacity:0;fill-rule:evenodd;stroke:rgb(0, 134, 255);stroke-width:1;" d="M 358.86, 150.98 L 382.946, 152.273 L 380.36, 183.471 L 361.285, 184.118 L 358.86, 150.98 z "/>
<path style="fill:rgb(0, 0, 255);fill-opacity:0;fill-rule:evenodd;stroke:rgb(0, 134, 255);stroke-width:1;" d="M 682.158, 81.471 L 701.233, 80.5011 L 703.172, 90.3617 L 724.187, 87.452 L 723.863, 88.7452 L 738.089, 95.3728 L 723.217, 97.4742 L 707.86, 100.707 L 685.714, 101.677 L 682.481, 84.704 L 682.158, 81.471 z "/>
<path style="fill:rgb(255, 255, 0);fill-opacity:0;fill-rule:evenodd;stroke:rgb(0, 134, 255);stroke-width:1;" d="M 539.907, 392.483 L 571.429, 385.532 L 578.056, 406.062 L 580.804, 414.468 L 581.612, 416.892 L 578.056, 417.701 L 573.53, 403.475 L 541.847, 409.456 L 539.907, 392.483 z "/>
<path style="fill:rgb(255, 0, 0);fill-opacity:0;fill-rule:evenodd;stroke:rgb(0, 134, 255);stroke-width:1;" d="M 745.848, 237.139 L 761.204, 225.177 L 789.978, 247.161 L 776.884, 257.345 L 757.648, 242.635 L 755.385, 244.413 L 745.848, 237.139 z "/>
<path style="fill:rgb(0, 255, 0);fill-opacity:0;fill-rule:evenodd;stroke:rgb(0, 134, 255);stroke-width:1;" d="M 679.087, 276.743 L 689.594, 272.217 L 713.518, 304.223 L 701.879, 312.79 L 692.18, 300.505 L 679.087, 276.743 z "/>
<path style="fill:rgb(0, 0, 255);fill-opacity:0;fill-rule:evenodd;stroke:rgb(0, 134, 255);stroke-width:1;" d="M 541.847, 409.456 L 573.53, 403.475 L 578.056, 417.701 L 564.478, 421.418 L 543.787, 426.915 L 541.847, 409.456 z "/>
<path style="fill:rgb(255, 255, 0);fill-opacity:0;fill-rule:evenodd;stroke:rgb(0, 134, 255);stroke-width:1;" d="M 664.053, 133.037 L 688.301, 130.774 L 696.706, 147.424 L 682.32, 155.021 L 676.824, 157.931 L 664.377, 134.977 L 664.053, 133.037 z "/>
<path style="fill:rgb(255, 0, 0);fill-opacity:0;fill-rule:evenodd;stroke:rgb(0, 134, 255);stroke-width:1;" d="M 427.561, 249.101 L 442.433, 248.939 L 443.079, 284.179 L 428.208, 284.34 L 427.561, 249.101 z "/>
<path style="fill:rgb(0, 255, 0);fill-opacity:0;fill-rule:evenodd;stroke:rgb(0, 134, 255);stroke-width:1;" d="M 689.594, 272.217 L 700.101, 267.367 L 725.803, 295.332 L 713.518, 304.223 L 689.594, 272.217 z "/>
<path style="fill:rgb(0, 0, 255);fill-opacity:0;fill-rule:evenodd;stroke:rgb(0, 134, 255);stroke-width:1;" d="M 291.13, 377.45 L 324.268, 374.702 L 326.046, 380.198 L 328.632, 387.957 L 308.103, 392.645 L 306.809, 389.574 L 293.878, 391.837 L 291.13, 377.45 z "/>
<path style="fill:rgb(255, 255, 0);fill-opacity:0;fill-rule:evenodd;stroke:rgb(0, 134, 255);stroke-width:1;" d="M 721.277, 256.213 L 731.299, 248.454 L 760.234, 270.115 L 748.111, 279.006 L 721.277, 256.213 z "/>
<path style="fill:rgb(255, 0, 0);fill-opacity:0;fill-rule:evenodd;stroke:rgb(0, 134, 255);stroke-width:1;" d="M 362.578, 302.122 L 376.642, 302.122 L 377.127, 306.648 L 378.582, 320.55 L 379.713, 331.38 L 380.36, 336.876 L 367.428, 337.846 L 362.578, 302.122 z "/>
<path style="fill:rgb(0, 255, 0);fill-opacity:0;fill-rule:evenodd;stroke:rgb(0, 134, 255);stroke-width:1;" d="M 700.101, 267.367 L 710.932, 262.194 L 737.765, 286.603 L 725.803, 295.332 L 700.101, 267.367 z "/>
<path style="fill:rgb(0, 0, 255);fill-opacity:0;fill-rule:evenodd;stroke:rgb(0, 134, 255);stroke-width:1;" d="M 674.722, 217.579 L 683.29, 213.376 L 707.699, 244.898 L 695.575, 251.687 L 675.692, 219.196 L 674.722, 217.579 z "/>
<path style="fill:rgb(255, 255, 0);fill-opacity:0;fill-rule:evenodd;stroke:rgb(0, 134, 255);stroke-width:1;" d="M 683.29, 213.376 L 692.18, 208.689 L 718.852, 237.462 L 707.699, 244.898 L 683.29, 213.376 z "/>
<path style="fill:rgb(255, 0, 0);fill-opacity:0;fill-rule:evenodd;stroke:rgb(0, 134, 255);stroke-width:1;" d="M 380.36, 183.471 L 382.946, 152.273 L 397.656, 152.92 L 395.07, 182.986 L 380.36, 183.471 z "/>
<path style="fill:rgb(0, 255, 0);fill-opacity:0;fill-rule:evenodd;stroke:rgb(0, 134, 255);stroke-width:1;" d="M 395.07, 182.986 L 397.656, 152.92 L 412.366, 153.728 L 409.941, 182.502 L 395.07, 182.986 z "/>
<path style="fill:rgb(0, 0, 255);fill-opacity:0;fill-rule:evenodd;stroke:rgb(0, 134, 255);stroke-width:1;" d="M 284.502, 85.8355 L 291.776, 72.257 L 295.171, 71.1255 L 311.982, 76.1366 L 313.76, 78.723 L 306.809, 92.4631 L 303.738, 93.5947 L 285.795, 88.2603 L 284.502, 85.8355 z "/>
<path style="fill:rgb(255, 255, 0);fill-opacity:0;fill-rule:evenodd;stroke:rgb(0, 134, 255);stroke-width:1;" d="M 710.932, 262.194 L 721.277, 256.213 L 748.111, 279.006 L 737.765, 286.603 L 710.932, 262.194 z "/>
<path style="fill:rgb(255, 0, 0);fill-opacity:0;fill-rule:evenodd;stroke:rgb(0, 134, 255);stroke-width:1;" d="M 571.429, 385.532 L 586.785, 382.138 L 593.251, 402.829 L 596.322, 402.182 L 596.807, 403.637 L 593.736, 404.284 L 595.676, 410.265 L 586.139, 412.043 L 584.037, 405.092 L 578.056, 406.062 L 571.429, 385.532 z "/>
<path style="fill:rgb(0, 255, 0);fill-opacity:0;fill-rule:evenodd;stroke:rgb(0, 134, 255);stroke-width:1;" d="M 398.788, 121.56 L 399.111, 116.549 L 461.669, 118.65 L 461.831, 113.316 L 469.267, 113.639 L 468.62, 124.47 L 398.788, 121.56 z "/>
<path style="fill:rgb(0, 0, 255);fill-opacity:0;fill-rule:evenodd;stroke:rgb(0, 134, 255);stroke-width:1;" d="M 688.301, 130.774 L 710.608, 128.834 L 715.619, 144.191 L 701.718, 152.435 L 696.706, 147.424 L 688.301, 130.774 z "/>
<path style="fill:rgb(255, 255, 0);fill-opacity:0;fill-rule:evenodd;stroke:rgb(0, 134, 255);stroke-width:1;" d="M 379.713, 331.38 L 394.585, 332.512 L 397.979, 358.052 L 383.108, 357.567 L 380.36, 336.876 L 379.713, 331.38 z "/>
<path style="fill:rgb(255, 0, 0);fill-opacity:0;fill-rule:evenodd;stroke:rgb(0, 134, 255);stroke-width:1;" d="M 700.263, 338.816 L 710.77, 332.027 L 732.269, 350.778 L 729.521, 352.556 L 731.299, 355.789 L 724.51, 360.154 L 712.71, 349.808 L 700.263, 338.816 z "/>
<path style="fill:rgb(0, 255, 0);fill-opacity:0;fill-rule:evenodd;stroke:rgb(0, 134, 255);stroke-width:1;" d="M 699.293, 204.324 L 706.567, 199.313 L 735.987, 224.207 L 727.42, 230.996 L 699.293, 204.324 z "/>
<path style="fill:rgb(0, 0, 255);fill-opacity:0;fill-rule:evenodd;stroke:rgb(0, 134, 255);stroke-width:1;" d="M 742.776, 359.184 L 755.385, 350.94 L 774.459, 367.751 L 761.851, 375.995 L 742.776, 359.184 z "/>
<path style="fill:rgb(255, 255, 0);fill-opacity:0;fill-rule:evenodd;stroke:rgb(0, 134, 255);stroke-width:1;" d="M 729.359, 366.135 L 740.352, 358.86 L 741.645, 359.992 L 742.776, 359.184 L 761.851, 375.995 L 749.889, 383.593 L 729.359, 366.135 z "/>
<path style="fill:rgb(255, 0, 0);fill-opacity:0;fill-rule:evenodd;stroke:rgb(0, 134, 255);stroke-width:1;" d="M 586.785, 382.138 L 603.112, 378.582 L 610.224, 399.273 L 596.322, 402.182 L 593.251, 402.829 L 586.785, 382.138 z "/>
<path style="fill:rgb(0, 255, 0);fill-opacity:0;fill-rule:evenodd;stroke:rgb(0, 134, 255);stroke-width:1;" d="M 409.941, 182.502 L 412.366, 153.728 L 425.46, 154.375 L 423.035, 182.178 L 409.941, 182.502 z "/>
<path style="fill:rgb(0, 0, 255);fill-opacity:0;fill-rule:evenodd;stroke:rgb(0, 134, 255);stroke-width:1;" d="M 692.18, 208.689 L 699.293, 204.324 L 727.42, 230.996 L 718.852, 237.462 L 692.18, 208.689 z "/>
<path style="fill:rgb(255, 255, 0);fill-opacity:0;fill-rule:evenodd;stroke:rgb(0, 134, 255);stroke-width:1;" d="M 701.233, 80.5011 L 703.011, 75.8133 L 721.924, 72.0954 L 728.39, 72.0954 L 724.187, 87.452 L 703.172, 90.3617 L 701.233, 80.5011 z "/>
<path style="fill:rgb(255, 0, 0);fill-opacity:0;fill-rule:evenodd;stroke:rgb(0, 134, 255);stroke-width:1;" d="M 423.035, 182.178 L 425.46, 154.375 L 438.392, 155.183 L 436.129, 181.693 L 423.035, 182.178 z "/>
<path style="fill:rgb(0, 255, 0);fill-opacity:0;fill-rule:evenodd;stroke:rgb(0, 134, 255);stroke-width:1;" d="M 543.787, 426.915 L 564.478, 421.418 L 569.489, 436.129 L 545.565, 442.271 L 543.787, 426.915 z "/>
<path style="fill:rgb(0, 0, 255);fill-opacity:0;fill-rule:evenodd;stroke:rgb(0, 134, 255);stroke-width:1;" d="M 718.852, 371.792 L 728.551, 365.326 L 729.359, 366.135 L 749.889, 383.593 L 739.543, 390.382 L 718.852, 371.792 z "/>
<path style="fill:rgb(255, 255, 0);fill-opacity:0;fill-rule:evenodd;stroke:rgb(0, 134, 255);stroke-width:1;" d="M 5.33441, 657.911 L 8.89068, 657.587 L 8.40574, 654.839 L 18.1047, 653.869 L 18.7513, 656.456 L 22.4692, 656.133 L 25.2172, 670.681 L 21.6609, 671.004 L 22.1459, 673.591 L 12.7703, 674.561 L 12.2853, 671.974 L 7.92079, 672.459 L 5.33441, 657.911 z "/>
<path style="fill:rgb(255, 0, 0);fill-opacity:0;fill-rule:evenodd;stroke:rgb(0, 134, 255);stroke-width:1;" d="M 416.407, 454.072 L 429.663, 450.515 L 439.2, 470.721 L 425.783, 474.439 L 416.569, 454.718 L 416.407, 454.072 z "/>
<path style="fill:rgb(0, 255, 0);fill-opacity:0;fill-rule:evenodd;stroke:rgb(0, 134, 255);stroke-width:1;" d="M 287.412, 85.5122 L 293.554, 73.8735 L 295.494, 73.3886 L 310.042, 77.9147 L 311.012, 79.6929 L 305.193, 91.0083 L 302.768, 91.6549 L 288.22, 86.9671 L 287.412, 85.5122 z "/>
<path style="fill:rgb(0, 0, 255);fill-opacity:0;fill-rule:evenodd;stroke:rgb(0, 134, 255);stroke-width:1;" d="M 564.478, 421.418 L 578.056, 417.701 L 581.612, 416.892 L 586.462, 431.764 L 569.489, 436.129 L 564.478, 421.418 z "/>
<path style="fill:rgb(255, 255, 0);fill-opacity:0;fill-rule:evenodd;stroke:rgb(0, 134, 255);stroke-width:1;" d="M 303.9, 112.023 L 306.163, 111.861 L 306.001, 118.812 L 338.008, 120.752 L 339.301, 120.105 L 358.537, 79.6929 L 362.417, 80.6628 L 343.665, 119.62 L 337.846, 122.853 L 304.546, 121.075 L 303.9, 112.023 z "/>
<path style="fill:rgb(255, 0, 0);fill-opacity:0;fill-rule:evenodd;stroke:rgb(0, 134, 255);stroke-width:1;" d="M 233.098, 609.739 L 242.473, 605.052 L 240.21, 603.112 L 240.048, 595.676 L 241.503, 594.221 L 248.939, 601.495 L 251.526, 599.717 L 261.386, 599.555 L 263.164, 600.687 L 253.789, 606.183 L 255.89, 608.446 L 255.082, 615.882 L 253.304, 617.175 L 247.484, 609.901 L 244.575, 611.517 L 234.876, 611.033 L 233.098, 609.739 z "/>
<path style="fill:rgb(0, 255, 0);fill-opacity:0;fill-rule:evenodd;stroke:rgb(0, 134, 255);stroke-width:1;" d="M 599.394, 403.799 L 611.033, 401.374 L 611.841, 403.799 L 610.709, 404.122 L 617.66, 424.005 L 607.315, 426.591 L 601.657, 410.265 L 599.394, 403.799 z "/>
<path style="fill:rgb(0, 0, 255);fill-opacity:0;fill-rule:evenodd;stroke:rgb(0, 134, 255);stroke-width:1;" d="M 33.623, 292.584 L 35.5627, 288.22 L 34.4312, 287.897 L 39.7656, 275.45 L 43.6452, 276.419 L 44.4534, 274.641 L 50.2728, 276.096 L 49.4645, 277.713 L 53.5058, 278.844 L 48.1713, 291.291 L 46.5549, 290.968 L 44.7767, 295.332 L 33.623, 292.584 z "/>
<path style="fill:rgb(255, 255, 0);fill-opacity:0;fill-rule:evenodd;stroke:rgb(0, 134, 255);stroke-width:1;" d="M 702.041, 356.759 L 708.507, 352.556 L 720.145, 362.74 L 723.217, 360.8 L 728.551, 365.326 L 718.852, 371.792 L 702.041, 356.759 z "/>
<path style="fill:rgb(255, 0, 0);fill-opacity:0;fill-rule:evenodd;stroke:rgb(0, 134, 255);stroke-width:1;" d="M 692.342, 348.192 L 694.282, 342.857 L 700.263, 338.816 L 712.71, 349.808 L 708.507, 352.556 L 702.041, 356.759 L 692.342, 348.192 z "/>
<path style="fill:rgb(0, 255, 0);fill-opacity:0;fill-rule:evenodd;stroke:rgb(0, 134, 255);stroke-width:1;" d="M 580.804, 414.468 L 591.15, 412.366 L 596.969, 429.178 L 586.462, 431.764 L 581.612, 416.892 L 580.804, 414.468 z "/>
<path style="fill:rgb(0, 0, 255);fill-opacity:0;fill-rule:evenodd;stroke:rgb(0, 134, 255);stroke-width:1;" d="M 591.15, 412.366 L 601.657, 410.265 L 607.315, 426.591 L 596.969, 429.178 L 591.15, 412.366 z "/>
<path style="fill:rgb(255, 255, 0);fill-opacity:0;fill-rule:evenodd;stroke:rgb(0, 134, 255);stroke-width:1;" d="M 248.616, 119.943 L 248.939, 114.447 L 250.232, 115.256 L 282.724, 117.68 L 281.269, 110.568 L 285.149, 110.891 L 284.017, 121.075 L 248.616, 119.943 z "/>
<path style="fill:rgb(255, 0, 0);fill-opacity:0;fill-rule:evenodd;stroke:rgb(0, 134, 255);stroke-width:1;" d="M 674.237, 84.3807 L 682.481, 84.704 L 685.714, 101.677 L 678.278, 101.677 L 675.369, 91.9782 L 674.237, 84.3807 z "/>
<path style="fill:rgb(0, 255, 0);fill-opacity:0;fill-rule:evenodd;stroke:rgb(0, 134, 255);stroke-width:1;" d="M 169.085, 634.795 L 172.318, 632.37 L 169.893, 630.592 L 175.389, 626.228 L 186.704, 634.31 L 181.208, 638.674 L 178.784, 637.058 L 175.712, 639.644 L 169.085, 634.795 z "/>
<path style="fill:rgb(0, 0, 255);fill-opacity:0;fill-rule:evenodd;stroke:rgb(0, 134, 255);stroke-width:1;" d="M 726.288, 57.7086 L 726.611, 48.6563 L 745.524, 47.0398 L 734.694, 52.3742 L 730.814, 60.9416 L 726.288, 57.7086 z "/>
<path style="fill:rgb(255, 255, 0);fill-opacity:0;fill-rule:evenodd;stroke:rgb(0, 134, 255);stroke-width:1;" d="M 91.6549, 461.184 L 92.6248, 461.184 L 93.7563, 471.53 L 99.414, 483.653 L 107.496, 493.191 L 117.842, 500.141 L 131.259, 505.638 L 147.262, 507.901 L 147.1, 508.547 L 130.936, 506.446 L 117.357, 500.788 L 106.85, 493.675 L 98.6058, 483.977 L 92.7864, 471.53 L 91.6549, 461.184 z "/>
<path style="fill:rgb(255, 0, 0);fill-opacity:0;fill-rule:evenodd;stroke:rgb(0, 134, 255);stroke-width:1;" d="M 183.956, 676.5 L 190.099, 675.53 L 192.524, 684.421 L 186.381, 685.391 L 183.956, 676.5 z "/>
<path style="fill:rgb(0, 255, 0);fill-opacity:0;fill-rule:evenodd;stroke:rgb(0, 134, 255);stroke-width:1;" d="M 254.759, 47.8481 L 268.984, 12.6086 L 268.014, 12.2853 L 276.258, 0 L 383.754, 40.4122 L 364.68, 81.471 L 362.578, 80.8244 L 362.417, 80.6628 L 358.537, 79.6929 L 344.959, 75.1667 L 325.561, 69.509 L 290.483, 58.6785 L 269.145, 52.2126 L 254.759, 47.8481 z "/>
<path style="fill:rgb(0, 0, 255);fill-opacity:0;fill-rule:evenodd;stroke:rgb(0, 134, 255);stroke-width:1;" d="M 786.098, 82.2792 L 800.647, 29.7434 L 811.639, 23.924 L 914.771, 57.547 L 916.387, 80.6628 L 793.211, 95.8577 L 786.098, 82.2792 z "/>
<path style="fill:rgb(255, 255, 0);fill-opacity:0;fill-rule:evenodd;stroke:rgb(0, 134, 255);stroke-width:1;" d="M 788.361, 81.1477 L 803.071, 30.0667 L 811.315, 25.2172 L 861.75, 41.7054 L 913.477, 58.3552 L 914.932, 75.6516 L 850.111, 83.8957 L 793.534, 91.0083 L 788.361, 81.1477 z "/>
<path style="fill:rgb(255, 0, 0);fill-opacity:0;fill-rule:evenodd;stroke:rgb(0, 134, 255);stroke-width:1;" d="M 798.384, 71.2871 L 807.759, 37.3409 L 813.74, 34.1079 L 861.75, 41.7054 L 865.629, 47.6864 L 907.82, 61.4266 L 908.628, 71.9337 L 859.002, 78.0764 L 850.111, 83.8957 L 802.586, 76.2982 L 798.384, 71.2871 z "/>
<path style="fill:rgb(0, 255, 0);fill-opacity:0;fill-rule:evenodd;stroke:rgb(0, 134, 255);stroke-width:1;" d="M 372.277, 125.763 L 372.924, 115.094 L 403.799, 49.3029 L 411.558, 33.2997 L 418.024, 33.9463 L 429.178, 35.0778 L 450.354, 37.3409 L 483.977, 37.0176 L 507.577, 36.5326 L 518.893, 36.5326 L 520.186, 36.5326 L 508.709, 131.097 L 398.788, 126.894 L 372.277, 125.763 z "/>
<path style="fill:rgb(0, 0, 255);fill-opacity:0;fill-rule:evenodd;stroke:rgb(0, 134, 255);stroke-width:1;" d="M 398.788, 126.894 L 398.788, 121.56 L 468.62, 124.47 L 469.267, 113.639 L 476.217, 113.801 L 477.672, 93.918 L 493.191, 94.5646 L 503.051, 94.8879 L 507.577, 36.5326 L 518.893, 36.5326 L 520.186, 36.5326 L 508.709, 131.097 L 398.788, 126.894 z "/>
<path style="fill:rgb(255, 255, 0);fill-opacity:0;fill-rule:evenodd;stroke:rgb(0, 134, 255);stroke-width:1;" d="M 423.682, 112.023 L 426.591, 71.2871 L 429.178, 35.0778 L 450.354, 37.3409 L 483.977, 37.0176 L 483.492, 42.6753 L 434.835, 40.7355 L 431.117, 91.8165 L 477.672, 93.918 L 476.217, 113.801 L 469.267, 113.639 L 461.831, 113.316 L 423.682, 112.023 z "/>
<path style="fill:rgb(255, 0, 0);fill-opacity:0;fill-rule:evenodd;stroke:rgb(0, 134, 255);stroke-width:1;" d="M 483.492, 42.6753 L 483.977, 37.0176 L 507.577, 36.5326 L 503.051, 94.8879 L 493.191, 94.5646 L 496.908, 43.3219 L 483.492, 42.6753 z "/>
<path style="fill:rgb(0, 255, 0);fill-opacity:0;fill-rule:evenodd;stroke:rgb(0, 134, 255);stroke-width:1;" d="M 414.791, 70.8022 L 418.024, 33.9463 L 429.178, 35.0778 L 426.591, 71.2871 L 414.791, 70.8022 z "/>
<path style="fill:rgb(0, 0, 255);fill-opacity:0;fill-rule:evenodd;stroke:rgb(0, 134, 255);stroke-width:1;" d="M 402.506, 70.4789 L 403.799, 49.3029 L 411.558, 33.2997 L 418.024, 33.9463 L 414.791, 70.8022 L 402.506, 70.4789 z "/>
</svg>