<?xml version="1.0" encoding="iso-8859-1" standalone="no"?>
<!DOCTYPE svg PUBLIC "-//W3C//DTD SVG 1.0//EN" "http://www.w3.org/TR/2001/REC-SVG-20010904/DTD/svg10.dtd">
<svg xmlns="http://www.w3.org/2000/svg" width="1044" height="800">
<path style="fill:rgb(255, 0, 0);fill-opacity:0;fill-rule:evenodd;stroke:rgb(48, 0, 255);stroke-width:1;" d="M 327.157, 497.366 L 358.765, 494.641 L 360.763, 505.904 L 367.484, 505.359 L 366.576, 500.091 L 379.11, 499.001 L 380.018, 504.269 L 388.374, 503.542 L 387.103, 495.368 L 410.899, 493.188 L 412.171, 501.362 L 423.615, 500.272 L 422.343, 492.28 L 446.503, 490.1 L 447.775, 498.093 L 455.404, 497.548 L 454.678, 492.825 L 467.393, 491.735 L 467.938, 494.096 L 474.659, 493.188 L 473.206, 486.104 L 505.177, 481.926 L 505.904, 484.832 L 511.172, 508.81 L 492.643, 511.172 L 494.278, 519.164 L 498.456, 518.619 L 500.999, 530.245 L 510.99, 528.974 L 514.986, 546.957 L 504.995, 548.229 L 506.63, 555.858 L 516.44, 554.587 L 520.436, 573.297 L 510.808, 574.569 L 512.443, 582.016 L 521.889, 580.926 L 525.886, 599.092 L 516.44, 600.363 L 518.074, 608.174 L 527.52, 606.903 L 531.517, 625.068 L 522.071, 626.34 L 523.706, 633.606 L 536.785, 631.789 L 542.053, 655.767 L 508.992, 659.946 L 506.812, 649.955 L 501.907, 650.681 L 502.634, 653.951 L 493.37, 655.404 L 493.733, 656.857 L 480.472, 658.856 L 481.017, 661.035 L 469.21, 662.852 L 468.847, 661.762 L 447.775, 664.85 L 448.138, 665.94 L 436.149, 667.757 L 435.967, 666.667 L 422.707, 668.665 L 421.98, 665.94 L 412.352, 667.393 L 411.626, 664.668 L 406.903, 665.395 L 409.809, 675.749 L 377.838, 681.017 L 371.117, 657.584 L 384.559, 655.223 L 382.561, 648.138 L 372.934, 649.591 L 367.666, 630.881 L 377.112, 629.428 L 375.114, 621.98 L 365.849, 623.615 L 360.763, 605.631 L 370.027, 604.178 L 367.847, 596.367 L 358.583, 597.82 L 353.497, 579.473 L 362.579, 578.02 L 360.4, 570.027 L 351.135, 571.48 L 346.231, 553.86 L 357.675, 551.862 L 356.04, 545.867 L 348.955, 547.139 L 340.963, 519.164 L 333.152, 520.436 L 327.157, 497.366 z M 368.392, 520.436 L 375.658, 549.5 L 385.286, 548.047 L 390.191, 565.668 L 380.926, 567.121 L 383.106, 574.75 L 401.453, 571.662 L 406.721, 590.191 L 387.648, 593.279 L 389.827, 600.908 L 399.273, 599.455 L 404.541, 617.439 L 394.914, 619.074 L 396.912, 626.521 L 406.903, 624.886 L 411.262, 640.327 L 400.182, 642.144 L 402.906, 652.498 L 420.708, 649.955 L 419.982, 647.411 L 423.978, 646.866 L 423.07, 643.415 L 439.6, 641.054 L 441.78, 649.046 L 467.393, 645.232 L 465.395, 637.965 L 477.384, 636.149 L 477.566, 637.239 L 504.814, 633.787 L 503.179, 625.25 L 492.28, 626.521 L 489.01, 611.262 L 498.638, 610.173 L 497.003, 602.361 L 487.193, 603.633 L 483.379, 585.649 L 493.006, 584.378 L 491.371, 576.567 L 472.48, 579.11 L 468.302, 560.218 L 487.193, 557.856 L 485.559, 550.59 L 475.931, 551.862 L 471.935, 533.697 L 483.197, 532.243 L 481.562, 525.159 L 472.48, 526.249 L 470.481, 516.803 L 474.296, 516.258 L 473.569, 512.988 L 457.221, 514.986 L 456.676, 511.717 L 449.773, 512.262 L 451.045, 520.254 L 426.885, 522.434 L 425.613, 513.715 L 414.351, 514.805 L 415.622, 522.979 L 391.826, 525.159 L 390.554, 517.348 L 386.194, 517.711 L 386.558, 520.618 L 374.387, 521.708 L 374.024, 519.528 L 368.392, 520.436 z "/>
<path style="fill:rgb(0, 255, 0);fill-opacity:0;fill-rule:evenodd;stroke:rgb(48, 0, 255);stroke-width:1;" d="M 562.943, 476.658 L 591.462, 474.296 L 592.916, 483.742 L 598.547, 483.379 L 598.183, 480.472 L 615.077, 479.019 L 615.804, 483.56 L 623.615, 482.834 L 622.343, 474.659 L 646.685, 472.48 L 647.956, 481.381 L 659.401, 480.291 L 658.129, 471.571 L 682.652, 469.391 L 683.924, 477.566 L 692.28, 476.839 L 691.553, 471.39 L 703.724, 470.481 L 704.269, 473.388 L 708.629, 473.025 L 707.357, 464.487 L 741.144, 461.399 L 741.326, 462.489 L 744.777, 485.377 L 730.245, 486.649 L 731.517, 495.005 L 742.053, 494.096 L 744.777, 512.262 L 734.242, 513.17 L 735.332, 520.436 L 745.504, 519.528 L 748.229, 538.238 L 738.056, 539.146 L 739.146, 547.321 L 749.5, 546.412 L 751.317, 559.128 L 741.144, 560.036 L 741.326, 561.49 L 731.517, 562.398 L 732.97, 572.025 L 745.141, 570.936 L 745.322, 572.57 L 753.134, 571.844 L 755.858, 590.191 L 745.686, 591.099 L 746.957, 599.273 L 761.126, 598.002 L 764.396, 621.98 L 730.79, 627.248 L 728.065, 616.167 L 716.803, 617.802 L 718.801, 625.795 L 694.096, 629.428 L 692.098, 621.617 L 666.667, 625.431 L 668.665, 633.243 L 644.323, 636.876 L 642.507, 629.609 L 632.334, 631.244 L 634.877, 641.417 L 599.092, 647.411 L 593.642, 623.252 L 608.356, 621.617 L 606.721, 614.169 L 596.912, 615.259 L 592.916, 596.912 L 602.725, 595.64 L 601.09, 588.011 L 591.281, 589.282 L 587.284, 570.936 L 597.094, 569.664 L 595.459, 562.216 L 585.649, 563.488 L 581.29, 544.233 L 591.281, 542.961 L 589.646, 535.695 L 579.837, 536.785 L 575.84, 518.256 L 586.739, 516.803 L 583.47, 501.907 L 568.392, 503.724 L 562.943, 476.658 z M 601.272, 500.999 L 603.996, 514.805 L 614.351, 513.351 L 618.529, 532.062 L 608.901, 533.152 L 610.718, 540.963 L 629.428, 538.42 L 633.606, 557.312 L 614.532, 559.855 L 616.167, 567.302 L 626.158, 566.031 L 630.154, 584.378 L 619.437, 585.649 L 621.072, 593.46 L 631.789, 592.007 L 634.514, 604.36 L 624.886, 605.631 L 627.975, 617.439 L 647.593, 614.532 L 646.685, 610.899 L 656.857, 609.446 L 657.402, 611.444 L 694.096, 605.995 L 693.37, 603.633 L 704.269, 601.998 L 705.177, 605.631 L 728.247, 602.18 L 726.794, 592.552 L 723.887, 592.916 L 722.797, 585.104 L 715.35, 585.831 L 709.9, 548.955 L 719.891, 548.229 L 718.801, 540.963 L 708.81, 541.871 L 706.085, 523.161 L 715.895, 522.252 L 714.805, 514.623 L 704.995, 515.531 L 702.271, 497.184 L 712.08, 496.276 L 710.99, 488.828 L 685.922, 491.008 L 687.193, 499.546 L 662.67, 501.726 L 661.399, 493.188 L 649.955, 494.096 L 651.226, 502.816 L 626.885, 504.814 L 625.613, 497.003 L 621.253, 497.366 L 621.798, 500.454 L 609.809, 501.544 L 609.628, 500.272 L 601.272, 500.999 z "/>
<path style="fill:rgb(0, 0, 255);fill-opacity:0;fill-rule:evenodd;stroke:rgb(48, 0, 255);stroke-width:1;" d="M 19.2552, 559.128 L 50.1362, 553.86 L 53.406, 564.759 L 117.711, 553.678 L 116.44, 549.319 L 147.321, 544.051 L 148.047, 546.594 L 148.774, 546.594 L 152.77, 559.855 L 151.862, 560.036 L 169.119, 617.984 L 169.846, 617.984 L 173.842, 631.244 L 172.752, 631.608 L 174.205, 636.331 L 162.398, 638.329 L 161.671, 635.786 L 63.5786, 652.498 L 63.2153, 651.408 L 58.129, 652.316 L 58.6739, 654.133 L 47.7748, 655.949 L 46.8665, 652.861 L 45.4133, 653.224 L 41.4169, 639.782 L 42.8701, 639.419 L 25.6131, 581.653 L 24.7048, 581.835 L 20.8901, 568.392 L 21.98, 568.211 L 19.2552, 559.128 z "/>
<path style="fill:rgb(255, 255, 0);fill-opacity:0;fill-rule:evenodd;stroke:rgb(48, 0, 255);stroke-width:1;" d="M 202.906, 615.985 L 213.624, 614.351 L 212.171, 609.083 L 280.291, 598.183 L 281.744, 603.451 L 292.461, 601.817 L 310.263, 667.03 L 316.076, 666.122 L 318.801, 675.749 L 309.718, 677.203 L 314.078, 693.551 L 216.349, 708.992 L 211.081, 689.373 L 222.525, 687.557 L 202.906, 615.985 z M 240.327, 657.221 L 245.958, 677.929 L 285.195, 671.753 L 279.564, 651.045 L 240.327, 657.221 z "/>
<path style="fill:rgb(255, 0, 0);fill-opacity:0;fill-rule:evenodd;stroke:rgb(48, 0, 255);stroke-width:1;" d="M 958.038, 182.743 L 1029.43, 176.385 L 1044.14, 274.478 L 1021.8, 276.476 L 972.752, 280.654 L 958.038, 182.743 z "/>
<path style="fill:rgb(0, 255, 0);fill-opacity:0;fill-rule:evenodd;stroke:rgb(48, 0, 255);stroke-width:1;" d="M 104.995, 252.861 L 230.336, 242.507 L 231.063, 245.232 L 242.507, 288.465 L 217.62, 290.645 L 215.259, 273.751 L 174.75, 277.021 L 174.932, 279.564 L 162.761, 280.654 L 162.398, 278.111 L 136.058, 280.291 L 137.33, 288.647 L 138.783, 288.465 L 140.054, 296.458 L 117.53, 298.274 L 104.995, 252.861 z "/>
<path style="fill:rgb(0, 0, 255);fill-opacity:0;fill-rule:evenodd;stroke:rgb(48, 0, 255);stroke-width:1;" d="M 616.167, 217.62 L 636.149, 215.985 L 636.694, 219.437 L 687.193, 215.259 L 687.557, 217.984 L 703.906, 216.712 L 704.087, 218.347 L 705.359, 218.347 L 705.54, 219.619 L 706.812, 219.437 L 711.535, 252.316 L 697.003, 253.588 L 678.656, 255.041 L 663.579, 256.312 L 654.314, 257.039 L 657.947, 282.289 L 659.582, 294.641 L 661.035, 304.814 L 654.314, 305.359 L 654.678, 307.175 L 645.05, 308.084 L 643.233, 296.276 L 640.509, 276.839 L 638.874, 265.577 L 636.876, 251.771 L 621.253, 253.043 L 616.167, 217.62 z "/>
<path style="fill:rgb(255, 255, 0);fill-opacity:0;fill-rule:evenodd;stroke:rgb(48, 0, 255);stroke-width:1;" d="M 39.0554, 429.064 L 50.1362, 415.804 L 64.4868, 422.888 L 74.2961, 421.617 L 83.3787, 410.718 L 100.272, 418.892 L 85.9219, 435.786 L 118.801, 430.881 L 127.339, 463.215 L 94.0963, 468.302 L 116.076, 479.201 L 105.359, 491.735 L 91.5531, 484.832 L 81.5622, 486.104 L 72.1163, 497.184 L 55.7675, 489.01 L 71.5713, 470.663 L 69.5731, 463.215 L 62.852, 464.305 L 58.8556, 449.41 L 65.5767, 448.501 L 63.3969, 440.872 L 39.0554, 429.064 z "/>
<path style="fill:rgb(255, 0, 0);fill-opacity:0;fill-rule:evenodd;stroke:rgb(48, 0, 255);stroke-width:1;" d="M 170.572, 416.712 L 181.29, 403.996 L 195.64, 411.081 L 205.45, 409.446 L 214.532, 398.91 L 231.063, 406.903 L 215.259, 425.431 L 217.257, 432.516 L 224.16, 431.426 L 228.338, 447.048 L 221.253, 448.138 L 223.252, 454.859 L 247.411, 467.393 L 236.331, 479.927 L 222.343, 472.843 L 212.716, 474.296 L 203.088, 485.195 L 186.558, 476.658 L 195.277, 466.848 L 176.567, 457.221 L 171.117, 437.421 L 183.47, 423.07 L 170.572, 416.712 z "/>
<path style="fill:rgb(0, 255, 0);fill-opacity:0;fill-rule:evenodd;stroke:rgb(48, 0, 255);stroke-width:1;" d="M 92.6431, 695.913 L 101.362, 694.641 L 100.999, 693.006 L 106.085, 692.098 L 106.449, 693.733 L 112.443, 692.825 L 110.627, 686.285 L 179.837, 675.386 L 183.47, 688.465 L 188.011, 687.738 L 192.189, 702.634 L 187.466, 703.361 L 190.554, 714.441 L 120.981, 725.341 L 119.164, 718.619 L 102.271, 721.344 L 96.8211, 701.362 L 94.2779, 701.726 L 92.6431, 695.913 z "/>
<path style="fill:rgb(0, 0, 255);fill-opacity:0;fill-rule:evenodd;stroke:rgb(48, 0, 255);stroke-width:1;" d="M 812.171, 220.708 L 906.085, 188.738 L 911.717, 223.07 L 829.791, 251.226 L 812.171, 220.708 z "/>
<path style="fill:rgb(255, 255, 0);fill-opacity:0;fill-rule:evenodd;stroke:rgb(48, 0, 255);stroke-width:1;" d="M 87.9201, 185.104 L 141.871, 176.203 L 140.236, 171.48 L 162.398, 169.482 L 164.214, 180.381 L 168.029, 180.018 L 171.844, 179.655 L 174.024, 193.279 L 176.203, 207.084 L 158.038, 208.901 L 158.583, 211.807 L 98.2743, 221.617 L 87.9201, 185.104 z "/>
<path style="fill:rgb(255, 0, 0);fill-opacity:0;fill-rule:evenodd;stroke:rgb(48, 0, 255);stroke-width:1;" d="M 829.791, 251.226 L 911.717, 223.07 L 918.074, 261.944 L 848.683, 282.834 L 829.791, 251.226 z "/>
<path style="fill:rgb(0, 255, 0);fill-opacity:0;fill-rule:evenodd;stroke:rgb(48, 0, 255);stroke-width:1;" d="M 113.533, 757.856 L 124.796, 744.777 L 145.141, 755.132 L 150.409, 754.223 L 151.499, 758.401 L 171.48, 755.313 L 170.391, 751.135 L 175.658, 750.227 L 189.282, 734.605 L 206.176, 743.143 L 192.371, 759.128 L 194.187, 766.213 L 214.532, 776.385 L 202.906, 789.646 L 182.743, 779.473 L 177.838, 780.2 L 177.293, 778.202 L 157.493, 781.29 L 158.038, 783.288 L 152.77, 784.196 L 139.146, 800 L 121.708, 791.281 L 135.513, 775.295 L 133.697, 768.029 L 113.533, 757.856 z "/>
<path style="fill:rgb(0, 0, 255);fill-opacity:0;fill-rule:evenodd;stroke:rgb(48, 0, 255);stroke-width:1;" d="M 170.572, 416.712 L 181.29, 403.996 L 195.64, 411.081 L 205.45, 409.446 L 214.532, 398.91 L 231.063, 406.903 L 215.259, 425.431 L 217.257, 432.516 L 224.16, 431.426 L 228.338, 447.048 L 221.253, 448.138 L 223.252, 454.859 L 247.411, 467.393 L 236.331, 479.927 L 222.343, 472.843 L 212.716, 474.296 L 203.088, 485.195 L 186.558, 476.658 L 195.277, 466.848 L 201.453, 459.219 L 199.092, 450.318 L 192.552, 451.408 L 188.738, 435.241 L 195.095, 434.151 L 193.46, 428.156 L 183.47, 423.07 L 170.572, 416.712 z "/>
<path style="fill:rgb(255, 255, 0);fill-opacity:0;fill-rule:evenodd;stroke:rgb(48, 0, 255);stroke-width:1;" d="M 39.0554, 429.064 L 50.1362, 415.804 L 64.4868, 422.888 L 74.2961, 421.617 L 83.3787, 410.718 L 100.272, 418.892 L 85.9219, 435.786 L 88.1017, 445.05 L 94.4596, 444.142 L 97.911, 458.856 L 91.3715, 459.946 L 94.0963, 468.302 L 116.076, 479.201 L 105.359, 491.735 L 91.5531, 484.832 L 81.5622, 486.104 L 72.1163, 497.184 L 55.7675, 489.01 L 71.5713, 470.663 L 69.5731, 463.215 L 62.852, 464.305 L 58.8556, 449.41 L 65.5767, 448.501 L 63.3969, 440.872 L 39.0554, 429.064 z "/>
<path style="fill:rgb(255, 0, 0);fill-opacity:0;fill-rule:evenodd;stroke:rgb(48, 0, 255);stroke-width:1;" d="M 500.636, 219.437 L 549.5, 215.259 L 551.135, 226.521 L 556.585, 265.032 L 540.054, 266.303 L 523.887, 267.757 L 507.72, 269.028 L 506.812, 262.852 L 505.54, 253.769 L 502.089, 229.428 L 500.636, 219.437 z "/>
<path style="fill:rgb(0, 255, 0);fill-opacity:0;fill-rule:evenodd;stroke:rgb(48, 0, 255);stroke-width:1;" d="M 985.104, 99.0009 L 997.457, 97.911 L 991.826, 58.8556 L 1002.72, 57.9473 L 1003.27, 61.5804 L 1012.17, 60.8538 L 1023.98, 145.141 L 992.007, 147.866 L 990.554, 137.33 L 987.284, 114.26 L 986.013, 105.722 L 985.104, 99.0009 z "/>
<path style="fill:rgb(0, 0, 255);fill-opacity:0;fill-rule:evenodd;stroke:rgb(48, 0, 255);stroke-width:1;" d="M 310.263, 433.424 L 377.293, 427.975 L 379.655, 444.505 L 380.926, 452.861 L 382.198, 461.944 L 319.528, 467.212 L 310.263, 433.424 z "/>
<path style="fill:rgb(255, 255, 0);fill-opacity:0;fill-rule:evenodd;stroke:rgb(48, 0, 255);stroke-width:1;" d="M 768.211, 366.394 L 824.342, 361.671 L 826.34, 376.022 L 829.791, 398.728 L 821.072, 399.273 L 805.813, 400.727 L 787.648, 402.18 L 773.66, 403.451 L 768.211, 366.394 z "/>
<path style="fill:rgb(255, 0, 0);fill-opacity:0;fill-rule:evenodd;stroke:rgb(48, 0, 255);stroke-width:1;" d="M 856.131, 118.619 L 871.39, 117.348 L 870.845, 113.533 L 864.85, 70.663 L 881.381, 69.3915 L 882.834, 79.2007 L 880.109, 79.3824 L 882.47, 95.1862 L 885.014, 95.0045 L 885.559, 99.7275 L 887.375, 112.262 L 888.465, 119.164 L 889.373, 126.431 L 892.098, 145.686 L 893.551, 155.858 L 875.386, 157.312 L 857.039, 124.614 L 856.131, 118.619 z "/>
<path style="fill:rgb(0, 255, 0);fill-opacity:0;fill-rule:evenodd;stroke:rgb(48, 0, 255);stroke-width:1;" d="M 637.421, 141.326 L 641.962, 140.963 L 690.827, 136.966 L 695.731, 170.209 L 645.777, 174.387 L 645.05, 168.937 L 641.417, 169.119 L 637.421, 141.326 z "/>
<path style="fill:rgb(0, 0, 255);fill-opacity:0;fill-rule:evenodd;stroke:rgb(48, 0, 255);stroke-width:1;" d="M 367.484, 112.262 L 398.91, 109.537 L 403.815, 144.051 L 405.268, 153.86 L 379.11, 156.04 L 379.473, 158.765 L 374.205, 159.128 L 372.207, 145.141 L 367.484, 112.262 z "/>
<path style="fill:rgb(255, 255, 0);fill-opacity:0;fill-rule:evenodd;stroke:rgb(48, 0, 255);stroke-width:1;" d="M 764.578, 341.508 L 791.462, 339.146 L 819.619, 336.785 L 820.708, 336.785 L 824.342, 361.671 L 768.211, 366.394 L 764.578, 341.508 z "/>
<path style="fill:rgb(255, 0, 0);fill-opacity:0;fill-rule:evenodd;stroke:rgb(48, 0, 255);stroke-width:1;" d="M 593.46, 410.354 L 597.457, 409.991 L 597.275, 407.993 L 611.262, 406.903 L 611.444, 407.993 L 627.066, 406.721 L 627.248, 407.811 L 641.235, 406.721 L 642.688, 417.075 L 645.958, 439.964 L 616.712, 442.325 L 615.077, 429.791 L 599.455, 431.063 L 599.273, 429.428 L 596.367, 429.791 L 593.46, 410.354 z "/>
<path style="fill:rgb(0, 255, 0);fill-opacity:0;fill-rule:evenodd;stroke:rgb(48, 0, 255);stroke-width:1;" d="M 225.068, 124.069 L 288.102, 118.801 L 290.827, 137.511 L 291.19, 140.599 L 248.683, 144.051 L 248.865, 145.867 L 231.426, 147.321 L 225.068, 124.069 z "/>
<path style="fill:rgb(0, 0, 255);fill-opacity:0;fill-rule:evenodd;stroke:rgb(48, 0, 255);stroke-width:1;" d="M 204.905, 50.6812 L 243.597, 47.4114 L 243.778, 48.5014 L 248.683, 82.6521 L 217.802, 85.3769 L 214.351, 85.5586 L 204.905, 50.6812 z "/>
<path style="fill:rgb(255, 255, 0);fill-opacity:0;fill-rule:evenodd;stroke:rgb(48, 0, 255);stroke-width:1;" d="M 235.059, 160.4 L 253.588, 158.765 L 254.678, 166.757 L 257.402, 166.576 L 259.401, 165.486 L 283.197, 163.488 L 282.107, 156.767 L 298.274, 155.313 L 302.089, 182.198 L 293.551, 182.925 L 286.104, 183.47 L 285.014, 177.112 L 261.399, 179.11 L 259.037, 178.202 L 256.494, 178.383 L 257.402, 185.831 L 242.507, 187.103 L 235.059, 160.4 z "/>
<path style="fill:rgb(255, 0, 0);fill-opacity:0;fill-rule:evenodd;stroke:rgb(48, 0, 255);stroke-width:1;" d="M 398.91, 109.537 L 432.516, 106.812 L 437.602, 141.144 L 403.815, 144.051 L 398.91, 109.537 z "/>
<path style="fill:rgb(0, 255, 0);fill-opacity:0;fill-rule:evenodd;stroke:rgb(48, 0, 255);stroke-width:1;" d="M 164.759, 167.666 L 176.748, 165.849 L 176.022, 163.124 L 167.847, 133.697 L 187.284, 132.062 L 188.374, 136.421 L 191.099, 136.058 L 202.361, 176.748 L 171.844, 179.655 L 168.029, 180.018 L 164.759, 167.666 z "/>
<path style="fill:rgb(0, 0, 255);fill-opacity:0;fill-rule:evenodd;stroke:rgb(48, 0, 255);stroke-width:1;" d="M 558.765, 403.088 L 590.736, 400.545 L 592.552, 413.261 L 588.738, 413.624 L 587.103, 413.079 L 584.196, 415.077 L 585.831, 426.158 L 594.005, 425.613 L 596.73, 444.142 L 565.123, 446.685 L 563.306, 434.151 L 567.666, 433.787 L 568.392, 434.151 L 571.299, 432.516 L 568.937, 416.349 L 565.668, 414.896 L 565.123, 415.622 L 560.581, 415.985 L 558.765, 403.088 z "/>
<path style="fill:rgb(255, 255, 0);fill-opacity:0;fill-rule:evenodd;stroke:rgb(48, 0, 255);stroke-width:1;" d="M 424.16, 33.9691 L 456.494, 31.2443 L 456.857, 33.7875 L 461.217, 65.0318 L 429.064, 67.7566 L 424.342, 34.6957 L 424.16, 33.9691 z "/>
<path style="fill:rgb(255, 0, 0);fill-opacity:0;fill-rule:evenodd;stroke:rgb(48, 0, 255);stroke-width:1;" d="M 805.813, 645.413 L 894.641, 631.789 L 895.005, 632.516 L 899.909, 631.789 L 902.634, 641.417 L 897.729, 642.144 L 897.911, 643.052 L 808.901, 656.676 L 805.813, 645.413 z "/>
<path style="fill:rgb(0, 255, 0);fill-opacity:0;fill-rule:evenodd;stroke:rgb(48, 0, 255);stroke-width:1;" d="M 334.423, 114.986 L 367.484, 112.262 L 372.207, 145.141 L 339.146, 147.866 L 334.423, 114.986 z "/>
<path style="fill:rgb(0, 0, 255);fill-opacity:0;fill-rule:evenodd;stroke:rgb(48, 0, 255);stroke-width:1;" d="M 359.128, 289.01 L 391.281, 286.285 L 391.462, 287.557 L 393.097, 298.456 L 386.921, 299.001 L 385.104, 300.272 L 385.649, 303.542 L 387.466, 316.258 L 390.372, 316.621 L 395.822, 316.076 L 396.004, 317.53 L 397.639, 329.155 L 365.486, 331.88 L 363.851, 320.799 L 369.482, 320.254 L 372.207, 319.346 L 369.482, 301.726 L 366.576, 300.817 L 360.945, 301.181 L 360.581, 299.364 L 359.128, 289.01 z "/>
<path style="fill:rgb(255, 255, 0);fill-opacity:0;fill-rule:evenodd;stroke:rgb(48, 0, 255);stroke-width:1;" d="M 745.141, 210.718 L 778.565, 207.811 L 789.646, 206.903 L 795.095, 217.257 L 796.73, 228.156 L 748.229, 232.334 L 745.141, 210.718 z "/>
<path style="fill:rgb(255, 0, 0);fill-opacity:0;fill-rule:evenodd;stroke:rgb(48, 0, 255);stroke-width:1;" d="M 85.9219, 435.786 L 118.801, 430.881 L 127.339, 463.215 L 94.0963, 468.302 L 91.3715, 459.946 L 97.911, 458.856 L 94.4596, 444.142 L 88.1017, 445.05 L 85.9219, 435.786 z "/>
<path style="fill:rgb(0, 255, 0);fill-opacity:0;fill-rule:evenodd;stroke:rgb(48, 0, 255);stroke-width:1;" d="M 618.71, 129.155 L 644.505, 126.975 L 646.14, 126.975 L 647.411, 136.421 L 641.417, 136.966 L 641.962, 140.963 L 637.421, 141.326 L 641.417, 169.119 L 645.05, 168.937 L 645.777, 174.387 L 646.14, 177.293 L 625.976, 178.928 L 623.433, 162.035 L 626.158, 161.853 L 625.068, 154.405 L 622.343, 154.587 L 618.71, 129.155 z "/>
<path style="fill:rgb(0, 0, 255);fill-opacity:0;fill-rule:evenodd;stroke:rgb(48, 0, 255);stroke-width:1;" d="M 663.579, 256.312 L 678.656, 255.041 L 679.746, 261.762 L 697.911, 260.127 L 697.003, 253.588 L 711.535, 252.316 L 715.168, 277.566 L 702.271, 278.656 L 700.636, 278.837 L 699.728, 271.935 L 681.381, 273.388 L 682.289, 280.291 L 679.564, 280.472 L 667.212, 281.562 L 663.579, 256.312 z "/>
<path style="fill:rgb(255, 255, 0);fill-opacity:0;fill-rule:evenodd;stroke:rgb(48, 0, 255);stroke-width:1;" d="M 142.234, 68.8465 L 181.471, 63.7602 L 187.829, 88.1017 L 147.139, 91.5531 L 142.234, 68.8465 z "/>
<path style="fill:rgb(255, 0, 0);fill-opacity:0;fill-rule:evenodd;stroke:rgb(48, 0, 255);stroke-width:1;" d="M 292.461, 368.574 L 365.486, 362.398 L 368.756, 385.468 L 362.398, 386.013 L 356.767, 386.376 L 355.858, 380.018 L 347.684, 380.745 L 347.321, 378.565 L 339.328, 379.292 L 338.601, 374.205 L 295.005, 377.657 L 292.461, 368.574 z "/>
<path style="fill:rgb(0, 255, 0);fill-opacity:0;fill-rule:evenodd;stroke:rgb(48, 0, 255);stroke-width:1;" d="M 39.782, 346.231 L 59.2189, 342.961 L 60.4905, 347.684 L 62.307, 349.319 L 75.931, 347.139 L 77.2025, 344.777 L 75.931, 340.236 L 88.6467, 338.238 L 94.8229, 360.218 L 45.2316, 365.668 L 39.782, 346.231 z "/>
<path style="fill:rgb(0, 0, 255);fill-opacity:0;fill-rule:evenodd;stroke:rgb(48, 0, 255);stroke-width:1;" d="M 13.9873, 316.803 L 30.6994, 314.078 L 39.782, 346.231 L 45.2316, 365.668 L 28.3379, 367.302 L 24.1599, 352.77 L 13.9873, 316.803 z "/>
<path style="fill:rgb(255, 255, 0);fill-opacity:0;fill-rule:evenodd;stroke:rgb(48, 0, 255);stroke-width:1;" d="M 277.929, 316.076 L 290.827, 314.986 L 324.069, 312.08 L 336.603, 310.99 L 345.141, 310.263 L 346.957, 323.524 L 336.058, 324.432 L 325.522, 325.341 L 281.562, 329.155 L 277.929, 316.076 z "/>
<path style="fill:rgb(255, 0, 0);fill-opacity:0;fill-rule:evenodd;stroke:rgb(48, 0, 255);stroke-width:1;" d="M 841.78, 372.752 L 858.856, 371.299 L 859.764, 376.93 L 861.399, 388.374 L 864.487, 409.628 L 866.122, 420.708 L 849.046, 422.162 L 841.962, 374.75 L 841.78, 372.752 z "/>
<path style="fill:rgb(0, 255, 0);fill-opacity:0;fill-rule:evenodd;stroke:rgb(48, 0, 255);stroke-width:1;" d="M 411.807, 309.718 L 417.075, 309.355 L 414.351, 290.463 L 436.694, 288.647 L 441.235, 321.889 L 413.987, 324.251 L 412.716, 316.076 L 411.807, 309.718 z "/>
<path style="fill:rgb(0, 0, 255);fill-opacity:0;fill-rule:evenodd;stroke:rgb(48, 0, 255);stroke-width:1;" d="M 523.887, 267.757 L 540.054, 266.303 L 540.236, 267.03 L 547.321, 316.076 L 530.972, 317.53 L 529.519, 307.357 L 526.067, 284.105 L 524.614, 273.933 L 523.887, 267.757 z "/>
<path style="fill:rgb(255, 255, 0);fill-opacity:0;fill-rule:evenodd;stroke:rgb(48, 0, 255);stroke-width:1;" d="M 929.882, 65.3951 L 946.594, 64.1235 L 951.68, 100.817 L 953.497, 112.988 L 936.785, 114.441 L 936.058, 109.537 L 934.605, 98.2743 L 931.517, 76.4759 L 929.882, 65.3951 z "/>
<path style="fill:rgb(255, 0, 0);fill-opacity:0;fill-rule:evenodd;stroke:rgb(48, 0, 255);stroke-width:1;" d="M 573.115, 264.305 L 589.464, 262.852 L 591.462, 276.658 L 596.549, 312.08 L 580.2, 313.351 L 576.203, 285.922 L 574.932, 277.566 L 573.115, 264.305 z "/>
<path style="fill:rgb(0, 255, 0);fill-opacity:0;fill-rule:evenodd;stroke:rgb(48, 0, 255);stroke-width:1;" d="M 140.054, 58.3106 L 175.114, 34.5141 L 181.471, 63.7602 L 142.234, 68.8465 L 140.054, 58.3106 z "/>
<path style="fill:rgb(0, 0, 255);fill-opacity:0;fill-rule:evenodd;stroke:rgb(48, 0, 255);stroke-width:1;" d="M 519.528, 349.682 L 535.695, 348.229 L 536.058, 350.772 L 539.51, 374.75 L 542.598, 396.367 L 526.431, 397.639 L 521.163, 360.763 L 519.528, 349.682 z "/>
<path style="fill:rgb(255, 255, 0);fill-opacity:0;fill-rule:evenodd;stroke:rgb(48, 0, 255);stroke-width:1;" d="M 540.236, 267.03 L 556.04, 265.577 L 558.038, 279.019 L 559.128, 287.375 L 563.124, 314.805 L 547.321, 316.076 L 540.236, 267.03 z "/>
<path style="fill:rgb(255, 0, 0);fill-opacity:0;fill-rule:evenodd;stroke:rgb(48, 0, 255);stroke-width:1;" d="M 838.147, 337.148 L 860.309, 335.15 L 865.94, 344.414 L 869.028, 365.123 L 842.507, 367.302 L 838.147, 337.148 z "/>
<path style="fill:rgb(0, 255, 0);fill-opacity:0;fill-rule:evenodd;stroke:rgb(48, 0, 255);stroke-width:1;" d="M 551.68, 346.957 L 568.574, 345.504 L 570.209, 356.767 L 573.115, 378.02 L 574.75, 388.919 L 575.114, 391.281 L 558.22, 392.552 L 555.495, 373.297 L 552.044, 349.319 L 551.68, 346.957 z "/>
<path style="fill:rgb(0, 0, 255);fill-opacity:0;fill-rule:evenodd;stroke:rgb(48, 0, 255);stroke-width:1;" d="M 674.478, 386.376 L 683.197, 385.468 L 699.546, 384.196 L 714.26, 382.925 L 729.7, 381.653 L 731.698, 395.459 L 683.924, 399.455 L 676.476, 400 L 674.478, 386.376 z "/>
<path style="fill:rgb(255, 255, 0);fill-opacity:0;fill-rule:evenodd;stroke:rgb(48, 0, 255);stroke-width:1;" d="M 826.34, 376.022 L 841.962, 374.75 L 849.046, 422.162 L 833.424, 423.433 L 829.791, 398.728 L 826.34, 376.022 z "/>
<path style="fill:rgb(255, 0, 0);fill-opacity:0;fill-rule:evenodd;stroke:rgb(48, 0, 255);stroke-width:1;" d="M 301.544, 117.711 L 318.438, 116.258 L 324.614, 159.128 L 307.539, 160.581 L 304.087, 136.421 L 301.544, 117.711 z "/>
<path style="fill:rgb(0, 255, 0);fill-opacity:0;fill-rule:evenodd;stroke:rgb(48, 0, 255);stroke-width:1;" d="M 428.156, 413.261 L 444.323, 411.989 L 444.505, 413.442 L 445.777, 422.707 L 449.228, 446.14 L 450.681, 456.312 L 434.514, 457.584 L 432.879, 446.14 L 429.791, 424.705 L 428.156, 413.261 z "/>
<path style="fill:rgb(0, 0, 255);fill-opacity:0;fill-rule:evenodd;stroke:rgb(48, 0, 255);stroke-width:1;" d="M 263.942, 264.85 L 277.021, 263.76 L 298.638, 261.944 L 299.728, 269.391 L 307.539, 268.665 L 306.449, 261.217 L 311.898, 260.854 L 326.067, 259.582 L 327.884, 272.298 L 317.348, 273.206 L 267.212, 277.384 L 263.942, 264.85 z "/>
<path style="fill:rgb(255, 255, 0);fill-opacity:0;fill-rule:evenodd;stroke:rgb(48, 0, 255);stroke-width:1;" d="M 171.117, 437.421 L 183.47, 423.07 L 193.46, 428.156 L 195.095, 434.151 L 188.738, 435.241 L 192.552, 451.408 L 199.092, 450.318 L 201.453, 459.219 L 195.277, 466.848 L 176.567, 457.221 L 171.117, 437.421 z "/>
<path style="fill:rgb(255, 0, 0);fill-opacity:0;fill-rule:evenodd;stroke:rgb(48, 0, 255);stroke-width:1;" d="M 515.35, 99.9092 L 531.698, 98.6376 L 536.966, 135.513 L 538.056, 142.598 L 521.708, 143.869 L 520.799, 136.785 L 515.35, 99.9092 z "/>
<path style="fill:rgb(0, 255, 0);fill-opacity:0;fill-rule:evenodd;stroke:rgb(48, 0, 255);stroke-width:1;" d="M 848.501, 72.1163 L 864.85, 70.663 L 870.845, 113.533 L 854.496, 114.986 L 853.406, 106.812 L 848.501, 72.1163 z "/>
<path style="fill:rgb(0, 0, 255);fill-opacity:0;fill-rule:evenodd;stroke:rgb(48, 0, 255);stroke-width:1;" d="M 634.332, 102.271 L 689.01, 97.7293 L 690.827, 110.263 L 642.688, 114.441 L 636.149, 114.805 L 634.332, 102.271 z "/>
<path style="fill:rgb(255, 255, 0);fill-opacity:0;fill-rule:evenodd;stroke:rgb(48, 0, 255);stroke-width:1;" d="M 298.638, 391.281 L 309.718, 390.372 L 309.9, 392.371 L 328.429, 390.917 L 328.792, 393.46 L 336.421, 392.734 L 336.058, 390.191 L 354.223, 388.738 L 354.042, 386.558 L 356.767, 386.376 L 362.398, 386.013 L 364.396, 400.363 L 362.943, 400.363 L 356.04, 401.09 L 355.858, 399.092 L 337.693, 400.727 L 337.33, 398.002 L 329.519, 398.547 L 329.882, 401.272 L 311.353, 402.906 L 311.717, 404.723 L 302.634, 405.45 L 298.638, 391.281 z "/>
<path style="fill:rgb(255, 0, 0);fill-opacity:0;fill-rule:evenodd;stroke:rgb(48, 0, 255);stroke-width:1;" d="M 306.085, 417.802 L 315.531, 417.075 L 324.251, 416.349 L 326.431, 417.439 L 343.869, 415.985 L 345.686, 414.532 L 355.495, 413.624 L 361.308, 413.261 L 363.306, 426.885 L 347.684, 428.156 L 345.504, 426.885 L 328.065, 428.338 L 326.067, 429.791 L 309.718, 431.244 L 306.085, 417.802 z "/>
<path style="fill:rgb(0, 255, 0);fill-opacity:0;fill-rule:evenodd;stroke:rgb(48, 0, 255);stroke-width:1;" d="M 318.438, 116.258 L 334.423, 114.986 L 339.146, 147.866 L 340.236, 155.313 L 337.148, 155.677 L 337.511, 158.22 L 324.614, 159.128 L 318.438, 116.258 z "/>
<path style="fill:rgb(0, 0, 255);fill-opacity:0;fill-rule:evenodd;stroke:rgb(48, 0, 255);stroke-width:1;" d="M 632.698, 90.0999 L 688.647, 85.5586 L 690.463, 97.5477 L 689.01, 97.7293 L 634.332, 102.271 L 632.698, 90.0999 z "/>
<path style="fill:rgb(255, 255, 0);fill-opacity:0;fill-rule:evenodd;stroke:rgb(48, 0, 255);stroke-width:1;" d="M 350.954, 231.971 L 367.484, 230.699 L 374.024, 274.296 L 357.312, 275.749 L 355.858, 265.94 L 357.675, 263.76 L 356.948, 259.219 L 358.946, 259.037 L 358.038, 253.043 L 356.222, 253.224 L 354.95, 244.868 L 352.589, 242.87 L 350.954, 231.971 z "/>
<path style="fill:rgb(255, 0, 0);fill-opacity:0;fill-rule:evenodd;stroke:rgb(48, 0, 255);stroke-width:1;" d="M 684.105, 413.079 L 702.271, 411.444 L 703.542, 411.444 L 703.906, 414.169 L 708.629, 413.806 L 708.265, 410.899 L 733.697, 408.901 L 735.695, 422.888 L 710.263, 425.068 L 709.9, 421.98 L 704.995, 422.343 L 705.54, 425.431 L 686.104, 427.066 L 684.105, 413.079 z "/>
<path style="fill:rgb(0, 255, 0);fill-opacity:0;fill-rule:evenodd;stroke:rgb(48, 0, 255);stroke-width:1;" d="M 395.095, 417.984 L 411.989, 416.53 L 413.442, 426.158 L 413.806, 429.246 L 412.534, 431.063 L 414.532, 445.232 L 416.53, 447.593 L 418.165, 459.037 L 401.09, 460.49 L 399.455, 449.046 L 400.727, 446.322 L 398.728, 432.153 L 396.912, 430.699 L 396.367, 426.34 L 395.095, 417.984 z "/>
<path style="fill:rgb(0, 0, 255);fill-opacity:0;fill-rule:evenodd;stroke:rgb(48, 0, 255);stroke-width:1;" d="M 245.595, 198.728 L 259.946, 197.457 L 262.307, 198.91 L 286.285, 196.912 L 288.283, 195.095 L 295.186, 194.55 L 298.819, 194.187 L 301.544, 195.64 L 309.173, 194.914 L 310.445, 203.815 L 311.898, 203.815 L 312.08, 204.723 L 248.683, 209.991 L 245.595, 198.728 z "/>
<path style="fill:rgb(255, 255, 0);fill-opacity:0;fill-rule:evenodd;stroke:rgb(48, 0, 255);stroke-width:1;" d="M 449.046, 105.359 L 449.591, 105.359 L 449.046, 101.726 L 465.032, 100.454 L 465.577, 104.087 L 466.485, 103.906 L 471.39, 138.42 L 453.951, 139.873 L 451.953, 125.341 L 452.679, 125.159 L 452.498, 123.524 L 451.589, 123.706 L 449.046, 105.359 z "/>
<path style="fill:rgb(255, 0, 0);fill-opacity:0;fill-rule:evenodd;stroke:rgb(48, 0, 255);stroke-width:1;" d="M 274.478, 303.179 L 289.01, 301.907 L 292.098, 302.997 L 304.269, 302.089 L 304.45, 304.087 L 313.17, 303.361 L 312.807, 301.362 L 319.528, 300.636 L 322.071, 299.001 L 334.605, 297.911 L 336.603, 310.99 L 324.069, 312.08 L 320.981, 310.627 L 314.26, 311.172 L 314.078, 310.082 L 305.54, 310.808 L 305.54, 311.898 L 293.551, 312.807 L 290.827, 314.986 L 277.929, 316.076 L 274.478, 303.179 z "/>
<path style="fill:rgb(0, 255, 0);fill-opacity:0;fill-rule:evenodd;stroke:rgb(48, 0, 255);stroke-width:1;" d="M 454.678, 148.229 L 472.298, 146.776 L 472.298, 147.139 L 473.751, 156.403 L 471.571, 158.583 L 472.48, 163.669 L 470.663, 163.851 L 471.026, 167.302 L 471.39, 168.937 L 473.206, 168.756 L 474.478, 177.838 L 477.021, 179.837 L 478.656, 190.917 L 461.035, 192.371 L 459.582, 181.29 L 461.762, 178.928 L 460.309, 169.846 L 462.852, 169.664 L 462.125, 164.578 L 459.582, 164.759 L 459.037, 160.4 L 456.131, 157.856 L 454.678, 148.229 z "/>
<path style="fill:rgb(0, 0, 255);fill-opacity:0;fill-rule:evenodd;stroke:rgb(48, 0, 255);stroke-width:1;" d="M 270.663, 289.737 L 319.164, 285.74 L 333.515, 284.469 L 334.968, 294.096 L 295.005, 297.548 L 294.641, 295.368 L 289.918, 295.731 L 290.1, 296.821 L 288.283, 297.003 L 289.01, 301.907 L 274.478, 303.179 L 270.663, 289.737 z "/>
<path style="fill:rgb(255, 255, 0);fill-opacity:0;fill-rule:evenodd;stroke:rgb(48, 0, 255);stroke-width:1;" d="M 633.424, 340.054 L 650.5, 338.601 L 652.134, 349.864 L 650.681, 350.772 L 651.953, 360.036 L 648.501, 360.218 L 649.228, 364.941 L 652.679, 364.578 L 653.406, 369.482 L 655.041, 370.754 L 656.676, 381.835 L 639.782, 383.288 L 638.51, 374.75 L 638.147, 372.207 L 639.6, 370.572 L 638.874, 365.849 L 640.872, 365.668 L 640.145, 360.945 L 638.147, 361.126 L 636.876, 351.862 L 635.059, 351.135 L 633.424, 340.054 z "/>
<path style="fill:rgb(255, 0, 0);fill-opacity:0;fill-rule:evenodd;stroke:rgb(48, 0, 255);stroke-width:1;" d="M 437.602, 149.5 L 454.678, 148.229 L 456.131, 157.856 L 454.678, 160.763 L 455.404, 165.123 L 453.406, 165.304 L 454.133, 170.391 L 456.131, 170.209 L 457.402, 179.292 L 459.582, 181.29 L 461.035, 192.371 L 443.96, 193.642 L 442.325, 182.743 L 444.505, 180.381 L 443.233, 171.299 L 445.413, 171.117 L 444.687, 166.031 L 442.507, 166.213 L 441.78, 161.853 L 439.055, 159.31 L 437.602, 149.5 z "/>
<path style="fill:rgb(0, 255, 0);fill-opacity:0;fill-rule:evenodd;stroke:rgb(48, 0, 255);stroke-width:1;" d="M 751.68, 254.678 L 779.837, 252.316 L 786.013, 251.771 L 808.174, 249.773 L 808.174, 250.5 L 809.809, 261.035 L 801.635, 261.762 L 789.827, 262.852 L 768.574, 264.668 L 753.315, 265.94 L 751.68, 254.678 z "/>
<path style="fill:rgb(0, 0, 255);fill-opacity:0;fill-rule:evenodd;stroke:rgb(48, 0, 255);stroke-width:1;" d="M 775.477, 415.985 L 823.07, 411.989 L 827.066, 411.626 L 828.883, 423.978 L 777.293, 428.338 L 775.477, 415.985 z "/>
<path style="fill:rgb(255, 255, 0);fill-opacity:0;fill-rule:evenodd;stroke:rgb(48, 0, 255);stroke-width:1;" d="M 391.462, 287.557 L 408.174, 286.104 L 408.356, 288.465 L 409.991, 297.366 L 408.538, 299.546 L 409.991, 308.992 L 410.718, 314.26 L 412.716, 316.076 L 413.987, 324.251 L 414.351, 327.702 L 397.639, 329.155 L 396.004, 317.53 L 397.82, 315.35 L 395.64, 300.636 L 393.279, 298.819 L 393.097, 298.456 L 391.462, 287.557 z "/>
<path style="fill:rgb(255, 0, 0);fill-opacity:0;fill-rule:evenodd;stroke:rgb(48, 0, 255);stroke-width:1;" d="M 525.704, 405.631 L 542.234, 404.178 L 543.869, 414.896 L 541.871, 416.712 L 542.598, 421.798 L 540.418, 421.98 L 540.963, 426.34 L 543.324, 426.158 L 544.777, 435.967 L 547.139, 437.421 L 548.592, 448.138 L 531.88, 449.591 L 530.427, 438.874 L 532.243, 436.876 L 530.972, 427.248 L 533.152, 427.066 L 532.97, 425.976 L 530.79, 426.158 L 529.519, 417.802 L 527.157, 416.167 L 525.704, 405.631 z "/>
<path style="fill:rgb(0, 255, 0);fill-opacity:0;fill-rule:evenodd;stroke:rgb(48, 0, 255);stroke-width:1;" d="M 411.626, 414.714 L 428.156, 413.261 L 429.791, 424.705 L 428.156, 426.703 L 428.701, 431.063 L 426.885, 431.244 L 427.611, 436.331 L 429.428, 436.149 L 430.881, 445.05 L 432.879, 446.14 L 434.514, 457.584 L 418.165, 459.037 L 416.53, 447.593 L 418.165, 446.14 L 416.894, 437.239 L 419.619, 436.876 L 418.892, 431.789 L 416.167, 432.153 L 415.622, 427.793 L 413.442, 426.158 L 411.989, 416.53 L 411.626, 414.714 z "/>
<path style="fill:rgb(0, 0, 255);fill-opacity:0;fill-rule:evenodd;stroke:rgb(48, 0, 255);stroke-width:1;" d="M 584.923, 344.233 L 601.453, 342.779 L 602.725, 351.68 L 606.176, 376.203 L 606.903, 380.745 L 590.372, 382.198 L 589.464, 376.748 L 586.558, 355.313 L 584.923, 344.233 z "/>
<path style="fill:rgb(255, 255, 0);fill-opacity:0;fill-rule:evenodd;stroke:rgb(48, 0, 255);stroke-width:1;" d="M 334.787, 233.424 L 350.954, 231.971 L 352.589, 242.87 L 351.135, 245.05 L 352.225, 253.588 L 350.59, 253.588 L 351.317, 258.492 L 352.952, 258.311 L 353.86, 264.124 L 355.858, 265.94 L 357.312, 275.749 L 341.144, 277.203 L 339.691, 267.393 L 341.144, 265.213 L 338.42, 246.14 L 336.24, 244.323 L 334.787, 233.424 z "/>
<path style="fill:rgb(255, 0, 0);fill-opacity:0;fill-rule:evenodd;stroke:rgb(48, 0, 255);stroke-width:1;" d="M 508.447, 275.204 L 524.614, 273.933 L 526.067, 284.105 L 524.432, 286.104 L 527.339, 305.904 L 529.519, 307.357 L 530.972, 317.53 L 514.623, 318.801 L 513.533, 310.99 L 513.17, 308.629 L 514.986, 306.994 L 512.08, 287.012 L 509.9, 285.559 L 508.447, 275.204 z "/>
<path style="fill:rgb(0, 255, 0);fill-opacity:0;fill-rule:evenodd;stroke:rgb(48, 0, 255);stroke-width:1;" d="M 642.688, 114.441 L 690.827, 110.263 L 691.553, 110.263 L 693.37, 122.979 L 646.14, 126.975 L 644.505, 126.975 L 642.688, 114.441 z "/>
<path style="fill:rgb(0, 0, 255);fill-opacity:0;fill-rule:evenodd;stroke:rgb(48, 0, 255);stroke-width:1;" d="M 383.833, 229.246 L 400.182, 227.611 L 401.635, 238.329 L 400.545, 240.145 L 401.817, 249.591 L 399.092, 249.773 L 399.818, 254.314 L 402.543, 254.133 L 403.27, 259.037 L 404.723, 261.035 L 405.995, 270.845 L 390.009, 272.116 L 388.556, 262.489 L 390.009, 260.127 L 389.282, 255.223 L 390.917, 255.041 L 390.191, 250.5 L 388.556, 250.681 L 387.103, 241.417 L 385.286, 239.782 L 385.104, 238.874 L 383.833, 229.246 z "/>
<path style="fill:rgb(255, 255, 0);fill-opacity:0;fill-rule:evenodd;stroke:rgb(48, 0, 255);stroke-width:1;" d="M 657.947, 282.289 L 667.212, 281.562 L 679.564, 280.472 L 679.927, 282.834 L 687.92, 282.107 L 688.828, 281.381 L 700.636, 280.472 L 702.271, 278.656 L 715.168, 277.566 L 716.985, 289.918 L 703.906, 291.008 L 701.907, 289.373 L 688.465, 290.463 L 688.283, 289.01 L 681.926, 289.555 L 682.47, 292.825 L 669.028, 293.915 L 659.582, 294.641 L 657.947, 282.289 z "/>
<path style="fill:rgb(255, 0, 0);fill-opacity:0;fill-rule:evenodd;stroke:rgb(48, 0, 255);stroke-width:1;" d="M 748.229, 232.334 L 796.73, 228.156 L 800.727, 227.793 L 807.084, 238.692 L 784.378, 240.69 L 778.202, 241.235 L 750.045, 243.597 L 748.229, 232.334 z "/>
<path style="fill:rgb(0, 255, 0);fill-opacity:0;fill-rule:evenodd;stroke:rgb(48, 0, 255);stroke-width:1;" d="M 472.298, 147.139 L 488.647, 145.686 L 490.1, 155.132 L 488.828, 157.856 L 489.555, 162.398 L 487.193, 162.579 L 487.193, 162.579 L 488.102, 168.937 L 490.463, 168.756 L 491.553, 176.385 L 493.37, 178.383 L 493.733, 180.018 L 495.005, 189.464 L 478.656, 190.917 L 477.021, 179.837 L 478.474, 177.475 L 477.384, 169.482 L 479.746, 169.301 L 479.019, 164.033 L 476.658, 164.214 L 475.931, 158.946 L 473.751, 156.403 L 472.298, 147.139 z "/>
<path style="fill:rgb(0, 0, 255);fill-opacity:0;fill-rule:evenodd;stroke:rgb(48, 0, 255);stroke-width:1;" d="M 267.212, 277.384 L 317.348, 273.206 L 319.164, 285.74 L 270.663, 289.737 L 267.212, 277.384 z "/>
<path style="fill:rgb(255, 255, 0);fill-opacity:0;fill-rule:evenodd;stroke:rgb(48, 0, 255);stroke-width:1;" d="M 341.144, 164.396 L 357.493, 163.124 L 358.401, 168.756 L 362.943, 200.545 L 346.412, 201.817 L 344.959, 191.281 L 342.053, 170.754 L 341.144, 164.396 z "/>
<path style="fill:rgb(255, 0, 0);fill-opacity:0;fill-rule:evenodd;stroke:rgb(48, 0, 255);stroke-width:1;" d="M 568.574, 345.504 L 584.923, 344.233 L 586.558, 355.313 L 584.378, 357.312 L 585.649, 365.849 L 583.47, 366.031 L 584.196, 370.936 L 586.376, 370.936 L 586.921, 375.295 L 589.464, 376.748 L 590.372, 382.198 L 591.099, 387.648 L 574.75, 388.919 L 573.115, 378.02 L 574.387, 376.385 L 573.842, 371.844 L 576.203, 371.662 L 575.477, 366.757 L 573.115, 366.939 L 571.844, 358.22 L 570.209, 356.767 L 568.574, 345.504 z "/>
<path style="fill:rgb(0, 255, 0);fill-opacity:0;fill-rule:evenodd;stroke:rgb(48, 0, 255);stroke-width:1;" d="M 531.698, 98.6376 L 548.229, 97.1844 L 551.499, 120.799 L 553.497, 134.242 L 536.966, 135.513 L 531.698, 98.6376 z "/>
<path style="fill:rgb(0, 0, 255);fill-opacity:0;fill-rule:evenodd;stroke:rgb(48, 0, 255);stroke-width:1;" d="M 913.896, 66.6667 L 929.882, 65.3951 L 931.517, 76.4759 L 929.882, 79.2007 L 930.972, 87.7384 L 928.065, 87.9201 L 928.61, 92.0981 L 931.698, 91.9164 L 932.425, 96.8211 L 934.605, 98.2743 L 936.058, 109.537 L 920.073, 110.808 L 918.438, 99.7275 L 919.164, 97.911 L 918.619, 93.5513 L 922.434, 93.188 L 921.708, 88.2834 L 918.801, 88.465 L 917.711, 80.2906 L 915.35, 77.7475 L 913.896, 66.6667 z "/>
<path style="fill:rgb(255, 255, 0);fill-opacity:0;fill-rule:evenodd;stroke:rgb(48, 0, 255);stroke-width:1;" d="M 509.355, 406.903 L 525.704, 405.631 L 527.157, 416.167 L 525.522, 418.165 L 526.249, 423.07 L 524.069, 423.433 L 524.614, 427.611 L 526.975, 427.611 L 528.247, 437.239 L 530.427, 438.874 L 531.88, 449.591 L 515.713, 450.863 L 514.26, 440.145 L 516.076, 438.329 L 514.623, 428.52 L 516.985, 428.338 L 516.258, 423.978 L 514.078, 424.16 L 513.351, 419.074 L 510.99, 417.62 L 509.355, 406.903 z "/>
<path style="fill:rgb(255, 0, 0);fill-opacity:0;fill-rule:evenodd;stroke:rgb(48, 0, 255);stroke-width:1;" d="M 389.282, 360.4 L 405.631, 359.128 L 407.084, 369.846 L 405.086, 371.844 L 406.358, 380.926 L 403.633, 381.108 L 404.36, 386.558 L 407.084, 386.376 L 407.811, 391.099 L 410.354, 392.916 L 411.807, 402.543 L 411.989, 403.088 L 395.64, 404.541 L 395.459, 403.451 L 394.005, 394.187 L 395.277, 392.007 L 394.732, 387.466 L 397.457, 387.284 L 396.549, 381.653 L 393.824, 382.016 L 392.552, 372.752 L 390.736, 371.299 L 389.282, 360.4 z "/>
<path style="fill:rgb(0, 255, 0);fill-opacity:0;fill-rule:evenodd;stroke:rgb(48, 0, 255);stroke-width:1;" d="M 881.381, 69.3915 L 897.548, 68.1199 L 899.001, 78.8374 L 897.366, 80.4723 L 898.819, 90.2816 L 896.821, 90.4632 L 897.184, 93.733 L 899.183, 93.5513 L 899.728, 97.1844 L 901.544, 97.0027 L 903.542, 110.808 L 887.375, 112.262 L 885.559, 99.7275 L 887.557, 99.5459 L 887.012, 95.1862 L 888.465, 95.0045 L 887.738, 90.4632 L 886.285, 90.6449 L 885.014, 81.5622 L 882.834, 80.109 L 882.834, 79.2007 L 881.381, 69.3915 z "/>
<path style="fill:rgb(0, 0, 255);fill-opacity:0;fill-rule:evenodd;stroke:rgb(48, 0, 255);stroke-width:1;" d="M 859.764, 376.93 L 875.749, 375.658 L 877.384, 386.921 L 876.113, 388.738 L 876.658, 392.734 L 874.478, 392.916 L 875.568, 399.273 L 877.566, 399.273 L 878.837, 408.174 L 880.472, 407.993 L 882.107, 419.437 L 866.122, 420.708 L 864.487, 409.628 L 866.122, 407.811 L 865.032, 399.637 L 866.303, 399.637 L 865.395, 393.279 L 864.124, 393.279 L 863.579, 389.646 L 861.399, 388.374 L 859.764, 376.93 z "/>
<path style="fill:rgb(255, 255, 0);fill-opacity:0;fill-rule:evenodd;stroke:rgb(48, 0, 255);stroke-width:1;" d="M 970.027, 106.994 L 986.013, 105.722 L 987.284, 114.26 L 985.468, 114.441 L 986.558, 123.161 L 988.556, 136.785 L 990.554, 137.33 L 992.007, 147.866 L 976.022, 149.137 L 974.569, 139.873 L 974.569, 138.601 L 975.84, 136.603 L 974.569, 127.339 L 972.752, 126.249 L 972.57, 125.341 L 974.024, 123.342 L 973.297, 118.438 L 971.48, 117.893 L 971.117, 115.168 L 970.027, 106.994 z "/>
<path style="fill:rgb(255, 0, 0);fill-opacity:0;fill-rule:evenodd;stroke:rgb(48, 0, 255);stroke-width:1;" d="M 483.924, 221.072 L 500.636, 219.437 L 502.089, 229.428 L 500.272, 231.063 L 501.726, 241.054 L 499.001, 241.235 L 499.909, 247.411 L 502.634, 247.23 L 503.361, 252.134 L 505.54, 253.769 L 506.812, 262.852 L 489.737, 264.305 L 488.465, 255.223 L 491.19, 253.043 L 490.463, 248.138 L 491.916, 247.956 L 491.19, 241.78 L 489.555, 241.962 L 488.102, 232.153 L 485.195, 230.699 L 483.924, 221.072 z "/>
<path style="fill:rgb(0, 255, 0);fill-opacity:0;fill-rule:evenodd;stroke:rgb(48, 0, 255);stroke-width:1;" d="M 954.042, 107.357 L 969.846, 106.085 L 970.027, 106.994 L 971.117, 115.168 L 969.846, 117.53 L 970.572, 122.252 L 967.121, 122.434 L 968.029, 128.792 L 971.48, 128.429 L 972.752, 137.693 L 974.569, 139.873 L 976.022, 149.137 L 960.036, 150.409 L 958.765, 141.144 L 959.855, 139.328 L 958.946, 132.425 L 956.948, 118.438 L 955.313, 116.621 L 954.042, 107.357 z "/>
<path style="fill:rgb(0, 0, 255);fill-opacity:0;fill-rule:evenodd;stroke:rgb(48, 0, 255);stroke-width:1;" d="M 548.229, 97.1844 L 564.578, 95.7312 L 569.664, 131.517 L 570.027, 133.152 L 561.671, 133.878 L 561.49, 132.607 L 554.042, 133.152 L 552.225, 120.618 L 551.499, 120.799 L 548.229, 97.1844 z "/>
<path style="fill:rgb(255, 255, 0);fill-opacity:0;fill-rule:evenodd;stroke:rgb(48, 0, 255);stroke-width:1;" d="M 174.024, 193.279 L 185.286, 192.189 L 215.622, 189.282 L 219.982, 203.088 L 207.266, 204.36 L 176.203, 207.084 L 174.024, 193.279 z "/>
<path style="fill:rgb(255, 0, 0);fill-opacity:0;fill-rule:evenodd;stroke:rgb(48, 0, 255);stroke-width:1;" d="M 493.733, 408.174 L 509.355, 406.903 L 510.99, 417.62 L 509.355, 419.437 L 510.082, 424.523 L 507.72, 424.705 L 508.447, 429.246 L 510.808, 429.064 L 512.08, 438.692 L 514.26, 440.145 L 515.713, 450.863 L 499.909, 452.134 L 498.456, 441.599 L 499.909, 439.6 L 498.456, 429.973 L 501.181, 429.609 L 500.454, 425.25 L 497.911, 425.431 L 497.184, 420.527 L 495.186, 418.892 L 494.823, 416.712 L 493.733, 408.174 z "/>
<path style="fill:rgb(0, 255, 0);fill-opacity:0;fill-rule:evenodd;stroke:rgb(48, 0, 255);stroke-width:1;" d="M 276.294, 44.3233 L 293.006, 42.8701 L 294.823, 55.4042 L 296.276, 65.0318 L 296.639, 67.7566 L 298.274, 78.6558 L 281.562, 79.9273 L 276.294, 44.3233 z "/>
<path style="fill:rgb(0, 0, 255);fill-opacity:0;fill-rule:evenodd;stroke:rgb(48, 0, 255);stroke-width:1;" d="M 405.631, 359.128 L 421.435, 357.675 L 423.07, 368.574 L 421.98, 370.391 L 423.252, 379.473 L 420.89, 379.655 L 421.617, 385.286 L 423.978, 384.923 L 424.705, 389.646 L 426.34, 391.462 L 427.793, 401.09 L 411.807, 402.543 L 410.354, 392.916 L 411.989, 390.554 L 411.444, 386.013 L 413.987, 385.831 L 413.079, 380.381 L 410.536, 380.563 L 409.264, 371.48 L 407.084, 369.846 L 405.631, 359.128 z "/>
<path style="fill:rgb(255, 255, 0);fill-opacity:0;fill-rule:evenodd;stroke:rgb(48, 0, 255);stroke-width:1;" d="M 259.401, 248.683 L 301.362, 245.05 L 303.361, 258.492 L 276.658, 260.672 L 277.021, 263.76 L 263.942, 264.85 L 259.401, 248.683 z "/>
<path style="fill:rgb(255, 0, 0);fill-opacity:0;fill-rule:evenodd;stroke:rgb(48, 0, 255);stroke-width:1;" d="M 875.749, 375.658 L 882.834, 374.932 L 892.098, 392.007 L 892.825, 397.094 L 893.915, 396.912 L 895.186, 405.631 L 896.639, 406.903 L 896.821, 408.719 L 902.634, 408.538 L 906.63, 417.257 L 882.107, 419.437 L 880.472, 407.993 L 882.47, 407.993 L 881.199, 398.91 L 883.56, 398.728 L 882.652, 392.189 L 880.291, 392.371 L 879.746, 388.374 L 877.384, 386.921 L 875.749, 375.658 z "/>
<path style="fill:rgb(0, 255, 0);fill-opacity:0;fill-rule:evenodd;stroke:rgb(48, 0, 255);stroke-width:1;" d="M 132.788, 131.153 L 150.227, 129.882 L 159.128, 162.761 L 142.234, 165.486 L 141.326, 162.035 L 132.788, 131.153 z "/>
<path style="fill:rgb(0, 0, 255);fill-opacity:0;fill-rule:evenodd;stroke:rgb(48, 0, 255);stroke-width:1;" d="M 681.381, 372.389 L 697.548, 370.936 L 699.909, 372.025 L 710.263, 371.117 L 712.262, 369.846 L 727.884, 368.574 L 729.7, 381.653 L 714.26, 382.925 L 711.717, 382.38 L 701.544, 383.106 L 699.546, 384.196 L 683.197, 385.468 L 681.381, 372.389 z "/>
<path style="fill:rgb(255, 255, 0);fill-opacity:0;fill-rule:evenodd;stroke:rgb(48, 0, 255);stroke-width:1;" d="M 158.038, 208.901 L 176.203, 207.084 L 207.266, 204.36 L 219.982, 203.088 L 222.888, 212.352 L 207.266, 213.806 L 159.673, 218.165 L 158.583, 211.807 L 158.038, 208.901 z "/>
<path style="fill:rgb(255, 0, 0);fill-opacity:0;fill-rule:evenodd;stroke:rgb(48, 0, 255);stroke-width:1;" d="M 565.668, 213.987 L 582.38, 212.534 L 583.651, 221.798 L 581.653, 224.342 L 582.198, 228.701 L 584.923, 230.154 L 585.649, 235.422 L 581.835, 235.786 L 582.925, 243.778 L 586.739, 243.597 L 588.374, 255.041 L 573.842, 256.131 L 572.207, 244.687 L 574.024, 244.505 L 572.752, 236.512 L 568.937, 236.694 L 568.211, 231.608 L 570.391, 229.791 L 569.846, 225.25 L 567.121, 223.252 L 565.668, 213.987 z "/>
<path style="fill:rgb(0, 255, 0);fill-opacity:0;fill-rule:evenodd;stroke:rgb(48, 0, 255);stroke-width:1;" d="M 466.485, 103.906 L 482.652, 102.634 L 487.738, 137.148 L 487.92, 138.783 L 471.571, 140.054 L 471.39, 138.42 L 466.485, 103.906 z "/>
<path style="fill:rgb(0, 0, 255);fill-opacity:0;fill-rule:evenodd;stroke:rgb(48, 0, 255);stroke-width:1;" d="M 242.507, 187.103 L 257.402, 185.831 L 286.104, 183.47 L 293.551, 182.925 L 295.186, 194.55 L 288.283, 195.095 L 259.946, 197.457 L 245.595, 198.728 L 242.507, 187.103 z "/>
<path style="fill:rgb(255, 255, 0);fill-opacity:0;fill-rule:evenodd;stroke:rgb(48, 0, 255);stroke-width:1;" d="M 582.38, 212.534 L 598.547, 211.262 L 599.818, 220.527 L 598.183, 222.888 L 598.91, 227.43 L 601.09, 228.883 L 601.817, 234.151 L 598.365, 234.332 L 599.637, 243.052 L 601.635, 243.052 L 603.088, 253.769 L 588.374, 255.041 L 586.739, 243.597 L 590.736, 243.233 L 589.464, 235.059 L 585.649, 235.422 L 584.923, 230.154 L 586.194, 228.52 L 585.649, 223.978 L 583.651, 221.798 L 582.38, 212.534 z "/>
<path style="fill:rgb(255, 0, 0);fill-opacity:0;fill-rule:evenodd;stroke:rgb(48, 0, 255);stroke-width:1;" d="M 444.505, 413.442 L 461.035, 411.989 L 462.307, 421.253 L 460.309, 423.797 L 460.854, 428.156 L 459.219, 428.338 L 459.946, 434.514 L 461.762, 434.332 L 463.034, 443.233 L 465.577, 444.868 L 467.03, 454.859 L 450.681, 456.312 L 449.228, 446.14 L 450.681, 444.142 L 449.591, 435.241 L 452.679, 435.059 L 451.953, 429.428 L 451.771, 428.883 L 448.683, 429.246 L 447.956, 424.705 L 445.777, 422.707 L 444.505, 413.442 z "/>
<path style="fill:rgb(0, 255, 0);fill-opacity:0;fill-rule:evenodd;stroke:rgb(48, 0, 255);stroke-width:1;" d="M 295.005, 377.657 L 338.601, 374.205 L 339.328, 379.292 L 340.599, 387.829 L 309.718, 390.372 L 298.638, 391.281 L 295.005, 377.657 z "/>
<path style="fill:rgb(0, 0, 255);fill-opacity:0;fill-rule:evenodd;stroke:rgb(48, 0, 255);stroke-width:1;" d="M 607.448, 275.204 L 624.16, 273.751 L 624.886, 277.929 L 627.611, 297.729 L 629.246, 309.355 L 612.534, 310.808 L 610.173, 293.915 L 612.897, 291.553 L 612.534, 288.647 L 609.446, 288.828 L 607.448, 275.204 z "/>
<path style="fill:rgb(255, 255, 0);fill-opacity:0;fill-rule:evenodd;stroke:rgb(48, 0, 255);stroke-width:1;" d="M 150.227, 129.882 L 166.576, 128.61 L 167.847, 133.697 L 176.022, 163.124 L 160.036, 165.668 L 159.128, 162.761 L 150.227, 129.882 z "/>
<path style="fill:rgb(255, 0, 0);fill-opacity:0;fill-rule:evenodd;stroke:rgb(48, 0, 255);stroke-width:1;" d="M 669.028, 293.915 L 682.47, 292.825 L 703.906, 291.008 L 716.985, 289.918 L 718.619, 301.907 L 670.663, 305.904 L 669.028, 293.915 z "/>
<path style="fill:rgb(0, 255, 0);fill-opacity:0;fill-rule:evenodd;stroke:rgb(48, 0, 255);stroke-width:1;" d="M 623.252, 266.848 L 638.874, 265.577 L 640.509, 276.839 L 639.237, 278.111 L 639.782, 282.834 L 637.057, 283.015 L 637.784, 287.738 L 640.509, 287.557 L 641.599, 295.55 L 643.233, 296.276 L 645.05, 308.084 L 629.246, 309.355 L 627.611, 297.729 L 629.428, 296.639 L 628.338, 288.647 L 630.699, 288.465 L 630.154, 283.56 L 627.611, 283.924 L 627.066, 279.201 L 624.886, 277.929 L 624.16, 273.751 L 623.252, 266.848 z "/>
<path style="fill:rgb(0, 0, 255);fill-opacity:0;fill-rule:evenodd;stroke:rgb(48, 0, 255);stroke-width:1;" d="M 243.778, 48.5014 L 260.49, 47.2298 L 265.395, 81.3806 L 248.683, 82.6521 L 243.778, 48.5014 z "/>
<path style="fill:rgb(255, 255, 0);fill-opacity:0;fill-rule:evenodd;stroke:rgb(48, 0, 255);stroke-width:1;" d="M 260.309, 45.5949 L 276.294, 44.3233 L 281.562, 79.9273 L 265.395, 81.3806 L 260.49, 47.2298 L 260.309, 45.5949 z "/>
<path style="fill:rgb(255, 0, 0);fill-opacity:0;fill-rule:evenodd;stroke:rgb(48, 0, 255);stroke-width:1;" d="M 372.57, 361.853 L 389.282, 360.4 L 390.736, 371.299 L 394.005, 394.187 L 395.459, 403.451 L 382.925, 404.541 L 378.747, 374.932 L 380.381, 374.75 L 380.018, 372.025 L 378.202, 371.117 L 373.842, 371.48 L 372.57, 361.853 z "/>
<path style="fill:rgb(0, 255, 0);fill-opacity:0;fill-rule:evenodd;stroke:rgb(48, 0, 255);stroke-width:1;" d="M 591.462, 276.658 L 607.448, 275.204 L 609.446, 288.828 L 610.173, 293.915 L 612.534, 310.808 L 596.549, 312.08 L 591.462, 276.658 z "/>
<path style="fill:rgb(0, 0, 255);fill-opacity:0;fill-rule:evenodd;stroke:rgb(48, 0, 255);stroke-width:1;" d="M 564.578, 95.7312 L 580.563, 94.4596 L 584.923, 124.977 L 585.649, 130.245 L 569.664, 131.517 L 564.578, 95.7312 z "/>
<path style="fill:rgb(255, 255, 0);fill-opacity:0;fill-rule:evenodd;stroke:rgb(48, 0, 255);stroke-width:1;" d="M 601.453, 342.779 L 617.439, 341.508 L 618.71, 350.409 L 616.894, 352.407 L 618.165, 362.035 L 617.439, 362.035 L 617.439, 362.579 L 616.53, 362.579 L 617.257, 368.392 L 619.255, 368.937 L 619.8, 373.115 L 622.343, 374.932 L 622.525, 376.203 L 623.615, 384.378 L 607.448, 385.649 L 606.903, 380.745 L 606.176, 376.203 L 607.993, 374.205 L 607.266, 369.301 L 609.446, 369.119 L 608.538, 363.306 L 606.54, 363.488 L 605.086, 353.497 L 602.725, 351.68 L 601.453, 342.779 z "/>
<path style="fill:rgb(255, 0, 0);fill-opacity:0;fill-rule:evenodd;stroke:rgb(48, 0, 255);stroke-width:1;" d="M 302.634, 405.45 L 311.717, 404.723 L 314.078, 406.358 L 333.333, 404.723 L 333.515, 405.995 L 341.144, 405.268 L 340.963, 404.178 L 354.042, 403.088 L 353.678, 401.272 L 356.04, 401.09 L 362.943, 400.363 L 364.578, 412.897 L 361.308, 413.261 L 355.495, 413.624 L 355.313, 411.807 L 342.234, 412.716 L 341.871, 411.444 L 334.423, 411.989 L 334.605, 413.442 L 315.35, 415.077 L 315.531, 417.075 L 306.085, 417.802 L 302.634, 405.45 z "/>
<path style="fill:rgb(0, 255, 0);fill-opacity:0;fill-rule:evenodd;stroke:rgb(48, 0, 255);stroke-width:1;" d="M 461.035, 411.989 L 476.658, 410.718 L 477.384, 416.53 L 477.929, 419.982 L 476.476, 422.343 L 477.203, 426.885 L 475.749, 426.885 L 476.476, 433.061 L 478.111, 432.879 L 479.382, 441.78 L 481.381, 443.597 L 482.834, 453.588 L 467.03, 454.859 L 465.577, 444.868 L 467.212, 442.87 L 465.94, 433.969 L 469.21, 433.787 L 468.847, 430.881 L 468.302, 427.611 L 465.032, 427.793 L 464.487, 423.433 L 462.307, 421.253 L 461.035, 411.989 z "/>
<path style="fill:rgb(0, 0, 255);fill-opacity:0;fill-rule:evenodd;stroke:rgb(48, 0, 255);stroke-width:1;" d="M 406.358, 154.223 L 421.98, 152.952 L 422.888, 158.946 L 421.072, 159.128 L 421.617, 163.851 L 418.892, 164.214 L 419.8, 170.209 L 421.435, 170.209 L 421.798, 172.752 L 424.886, 172.389 L 425.068, 173.66 L 423.797, 173.842 L 424.342, 177.112 L 422.525, 179.11 L 423.252, 183.651 L 426.885, 186.376 L 428.156, 195.095 L 411.626, 196.367 L 410.354, 187.466 L 412.352, 185.286 L 411.626, 180.563 L 409.083, 178.565 L 408.356, 173.66 L 412.352, 173.297 L 411.444, 166.213 L 408.174, 166.394 L 406.903, 157.675 L 406.358, 154.223 z "/>
<path style="fill:rgb(255, 255, 0);fill-opacity:0;fill-rule:evenodd;stroke:rgb(48, 0, 255);stroke-width:1;" d="M 432.516, 106.812 L 449.046, 105.359 L 451.589, 123.706 L 451.953, 125.341 L 453.951, 139.873 L 437.602, 141.144 L 432.516, 106.812 z "/>
<path style="fill:rgb(255, 0, 0);fill-opacity:0;fill-rule:evenodd;stroke:rgb(48, 0, 255);stroke-width:1;" d="M 482.652, 102.634 L 499.001, 101.181 L 501.907, 120.981 L 504.087, 135.876 L 487.738, 137.148 L 482.652, 102.634 z "/>
<path style="fill:rgb(0, 255, 0);fill-opacity:0;fill-rule:evenodd;stroke:rgb(48, 0, 255);stroke-width:1;" d="M 554.768, 23.4332 L 571.662, 21.98 L 572.207, 25.9764 L 576.385, 55.4042 L 559.491, 56.8574 L 558.038, 46.3215 L 556.948, 38.1471 L 556.222, 33.9691 L 554.768, 23.4332 z "/>
<path style="fill:rgb(0, 0, 255);fill-opacity:0;fill-rule:evenodd;stroke:rgb(48, 0, 255);stroke-width:1;" d="M 367.484, 230.699 L 383.833, 229.246 L 385.104, 238.874 L 378.383, 239.419 L 378.928, 243.415 L 381.653, 243.052 L 386.194, 273.206 L 374.024, 274.296 L 367.484, 230.699 z "/>
<path style="fill:rgb(255, 255, 0);fill-opacity:0;fill-rule:evenodd;stroke:rgb(48, 0, 255);stroke-width:1;" d="M 505.722, 26.3397 L 521.889, 24.8865 L 522.071, 25.6131 L 523.342, 35.604 L 524.251, 40.8719 L 525.341, 49.0463 L 526.975, 59.5822 L 510.808, 60.8538 L 506.267, 29.6094 L 505.722, 26.3397 z "/>
<path style="fill:rgb(255, 0, 0);fill-opacity:0;fill-rule:evenodd;stroke:rgb(48, 0, 255);stroke-width:1;" d="M 390.009, 159.128 L 406.903, 157.675 L 408.174, 166.394 L 408.356, 168.211 L 406.176, 169.301 L 407.084, 175.295 L 404.178, 175.658 L 404.723, 179.473 L 407.629, 179.292 L 408.356, 183.47 L 407.084, 183.47 L 407.448, 186.194 L 410.354, 187.466 L 411.626, 196.367 L 395.64, 197.82 L 394.005, 187.284 L 395.277, 186.376 L 394.369, 180.381 L 396.367, 180.2 L 395.822, 175.84 L 394.005, 176.022 L 393.279, 170.572 L 391.462, 168.937 L 390.009, 159.128 z "/>
<path style="fill:rgb(0, 255, 0);fill-opacity:0;fill-rule:evenodd;stroke:rgb(48, 0, 255);stroke-width:1;" d="M 171.844, 179.655 L 202.361, 176.748 L 211.444, 175.84 L 215.622, 189.282 L 185.286, 192.189 L 174.024, 193.279 L 171.844, 179.655 z "/>
<path style="fill:rgb(0, 0, 255);fill-opacity:0;fill-rule:evenodd;stroke:rgb(48, 0, 255);stroke-width:1;" d="M 962.035, 62.852 L 976.93, 61.5804 L 982.198, 98.8193 L 967.302, 100.091 L 966.939, 97.7293 L 962.035, 62.852 z "/>
<path style="fill:rgb(255, 255, 0);fill-opacity:0;fill-rule:evenodd;stroke:rgb(48, 0, 255);stroke-width:1;" d="M 613.261, 91.7348 L 629.246, 90.4632 L 634.514, 126.431 L 627.975, 126.975 L 627.611, 124.977 L 618.165, 125.886 L 613.261, 91.7348 z "/>
<path style="fill:rgb(255, 0, 0);fill-opacity:0;fill-rule:evenodd;stroke:rgb(48, 0, 255);stroke-width:1;" d="M 598.547, 211.262 L 615.077, 209.809 L 616.167, 217.62 L 621.253, 253.043 L 609.083, 254.133 L 604.905, 224.886 L 605.995, 224.16 L 606.358, 223.797 L 606.721, 222.707 L 606.721, 222.162 L 606.176, 221.253 L 605.086, 220.527 L 604.541, 220.163 L 603.815, 220.163 L 599.818, 220.527 L 598.547, 211.262 z "/>
<path style="fill:rgb(0, 255, 0);fill-opacity:0;fill-rule:evenodd;stroke:rgb(48, 0, 255);stroke-width:1;" d="M 493.551, 145.867 L 505.54, 144.959 L 511.717, 188.011 L 495.005, 189.464 L 493.733, 180.018 L 500.999, 179.292 L 500.636, 175.658 L 497.729, 175.84 L 493.551, 145.867 z "/>
<path style="fill:rgb(0, 0, 255);fill-opacity:0;fill-rule:evenodd;stroke:rgb(48, 0, 255);stroke-width:1;" d="M 597.457, 93.0064 L 613.261, 91.7348 L 618.165, 125.886 L 618.347, 126.431 L 602.361, 127.884 L 601.817, 123.524 L 597.457, 93.0064 z "/>
<path style="fill:rgb(255, 255, 0);fill-opacity:0;fill-rule:evenodd;stroke:rgb(48, 0, 255);stroke-width:1;" d="M 377.293, 427.975 L 396.367, 426.34 L 396.912, 430.699 L 395.277, 432.516 L 397.275, 446.685 L 399.455, 449.046 L 401.09, 460.49 L 382.198, 461.944 L 380.926, 452.861 L 382.016, 452.498 L 384.196, 451.953 L 386.013, 450.863 L 387.648, 449.591 L 388.193, 448.865 L 389.101, 447.23 L 389.464, 445.413 L 389.464, 444.505 L 389.282, 443.597 L 379.655, 444.505 L 377.293, 427.975 z "/>
<path style="fill:rgb(255, 0, 0);fill-opacity:0;fill-rule:evenodd;stroke:rgb(48, 0, 255);stroke-width:1;" d="M 375.295, 39.6004 L 386.739, 38.6921 L 386.376, 35.9673 L 390.736, 35.604 L 391.462, 35.604 L 392.552, 42.3252 L 396.549, 70.4814 L 379.837, 71.753 L 376.022, 45.7766 L 375.295, 39.6004 z "/>
<path style="fill:rgb(0, 255, 0);fill-opacity:0;fill-rule:evenodd;stroke:rgb(48, 0, 255);stroke-width:1;" d="M 946.594, 64.1235 L 962.035, 62.852 L 966.939, 97.7293 L 955.677, 98.6376 L 956.04, 100.636 L 951.68, 100.817 L 946.594, 64.1235 z "/>
<path style="fill:rgb(0, 0, 255);fill-opacity:0;fill-rule:evenodd;stroke:rgb(48, 0, 255);stroke-width:1;" d="M 478.292, 421.798 L 495.368, 420.527 L 498.456, 441.599 L 499.909, 452.134 L 482.834, 453.588 L 481.381, 443.597 L 478.292, 421.798 z "/>
<path style="fill:rgb(255, 255, 0);fill-opacity:0;fill-rule:evenodd;stroke:rgb(48, 0, 255);stroke-width:1;" d="M 549.5, 215.259 L 565.668, 213.987 L 567.121, 223.252 L 568.211, 231.608 L 568.937, 236.694 L 571.844, 257.039 L 560.581, 257.947 L 556.04, 226.158 L 551.135, 226.521 L 549.5, 215.259 z "/>
<path style="fill:rgb(255, 0, 0);fill-opacity:0;fill-rule:evenodd;stroke:rgb(48, 0, 255);stroke-width:1;" d="M 308.629, 167.121 L 325.341, 165.668 L 326.249, 172.025 L 326.794, 175.658 L 322.616, 176.022 L 323.524, 182.016 L 325.159, 183.47 L 326.249, 191.281 L 329.155, 192.552 L 330.609, 203.088 L 313.715, 204.541 L 312.08, 193.824 L 313.715, 192.189 L 312.625, 184.559 L 314.805, 181.653 L 314.078, 177.112 L 310.082, 177.475 L 308.629, 167.121 z "/>
<path style="fill:rgb(0, 255, 0);fill-opacity:0;fill-rule:evenodd;stroke:rgb(48, 0, 255);stroke-width:1;" d="M 499.001, 101.181 L 515.35, 99.9092 L 520.799, 136.785 L 508.265, 137.875 L 505.722, 120.799 L 501.907, 120.981 L 499.001, 101.181 z "/>
<path style="fill:rgb(0, 0, 255);fill-opacity:0;fill-rule:evenodd;stroke:rgb(48, 0, 255);stroke-width:1;" d="M 620.345, 18.5286 L 636.694, 17.257 L 637.239, 20.7084 L 641.417, 49.9546 L 625.068, 51.4078 L 620.527, 19.6185 L 620.345, 18.5286 z "/>
<path style="fill:rgb(255, 255, 0);fill-opacity:0;fill-rule:evenodd;stroke:rgb(48, 0, 255);stroke-width:1;" d="M 756.585, 288.102 L 772.57, 286.649 L 775.295, 287.738 L 792.734, 286.285 L 794.732, 284.832 L 810.354, 283.379 L 811.989, 293.915 L 758.22, 298.456 L 756.585, 288.102 z "/>
<path style="fill:rgb(255, 0, 0);fill-opacity:0;fill-rule:evenodd;stroke:rgb(48, 0, 255);stroke-width:1;" d="M 503.361, 350.954 L 519.528, 349.682 L 521.163, 360.763 L 516.258, 361.126 L 520.618, 392.371 L 509.355, 393.279 L 506.449, 372.752 L 503.361, 350.954 z "/>
<path style="fill:rgb(0, 255, 0);fill-opacity:0;fill-rule:evenodd;stroke:rgb(48, 0, 255);stroke-width:1;" d="M 492.461, 277.203 L 504.45, 276.113 L 505.54, 284.105 L 500.999, 284.469 L 501.544, 287.557 L 510.082, 286.83 L 511.717, 298.456 L 503.906, 299.183 L 505.722, 311.717 L 513.533, 310.99 L 514.623, 318.801 L 498.638, 320.254 L 492.461, 277.203 z "/>
<path style="fill:rgb(0, 0, 255);fill-opacity:0;fill-rule:evenodd;stroke:rgb(48, 0, 255);stroke-width:1;" d="M 489.192, 31.0627 L 506.267, 29.6094 L 510.808, 60.8538 L 493.733, 62.307 L 489.192, 31.0627 z "/>
<path style="fill:rgb(255, 255, 0);fill-opacity:0;fill-rule:evenodd;stroke:rgb(48, 0, 255);stroke-width:1;" d="M 408.174, 36.149 L 424.342, 34.6957 L 429.064, 67.7566 L 412.897, 69.0282 L 408.901, 41.0536 L 408.174, 36.149 z "/>
<path style="fill:rgb(255, 0, 0);fill-opacity:0;fill-rule:evenodd;stroke:rgb(48, 0, 255);stroke-width:1;" d="M 603.815, 20.8901 L 620.527, 19.6185 L 625.068, 51.4078 L 608.356, 52.6794 L 604.178, 22.525 L 603.815, 20.8901 z "/>
<path style="fill:rgb(0, 255, 0);fill-opacity:0;fill-rule:evenodd;stroke:rgb(48, 0, 255);stroke-width:1;" d="M 326.794, 43.7784 L 343.143, 42.5068 L 347.866, 74.4777 L 331.335, 75.7493 L 326.794, 44.505 L 326.794, 43.7784 z "/>
<path style="fill:rgb(0, 0, 255);fill-opacity:0;fill-rule:evenodd;stroke:rgb(48, 0, 255);stroke-width:1;" d="M 421.98, 152.044 L 432.879, 151.135 L 436.876, 179.473 L 436.331, 180.926 L 438.147, 182.561 L 442.325, 182.198 L 442.325, 182.743 L 443.96, 193.642 L 428.156, 195.095 L 426.885, 186.376 L 425.068, 173.66 L 424.886, 172.389 L 422.888, 158.946 L 421.98, 152.952 L 421.98, 152.044 z "/>
<path style="fill:rgb(255, 255, 0);fill-opacity:0;fill-rule:evenodd;stroke:rgb(48, 0, 255);stroke-width:1;" d="M 343.143, 41.5985 L 359.128, 40.327 L 360.036, 47.2298 L 363.851, 73.2062 L 347.866, 74.4777 L 343.143, 42.5068 L 343.143, 41.5985 z "/>
<path style="fill:rgb(255, 0, 0);fill-opacity:0;fill-rule:evenodd;stroke:rgb(48, 0, 255);stroke-width:1;" d="M 344.051, 300.817 L 360.581, 299.364 L 360.945, 301.181 L 362.761, 314.26 L 360.581, 314.623 L 361.126, 318.619 L 363.488, 318.438 L 363.851, 320.799 L 365.486, 331.88 L 348.774, 333.333 L 346.776, 319.709 L 348.955, 319.528 L 348.229, 315.168 L 346.049, 315.35 L 344.051, 300.817 z "/>
<path style="fill:rgb(0, 255, 0);fill-opacity:0;fill-rule:evenodd;stroke:rgb(48, 0, 255);stroke-width:1;" d="M 116.44, 132.425 L 132.788, 131.153 L 141.326, 162.035 L 125.341, 164.578 L 123.706, 159.128 L 116.44, 132.425 z "/>
<path style="fill:rgb(0, 0, 255);fill-opacity:0;fill-rule:evenodd;stroke:rgb(48, 0, 255);stroke-width:1;" d="M 470.663, 353.678 L 486.285, 352.407 L 490.463, 381.653 L 492.461, 394.732 L 481.381, 395.64 L 476.839, 364.578 L 472.298, 364.941 L 470.663, 353.678 z "/>
<path style="fill:rgb(255, 255, 0);fill-opacity:0;fill-rule:evenodd;stroke:rgb(48, 0, 255);stroke-width:1;" d="M 456.857, 33.7875 L 473.388, 32.3342 L 477.748, 63.5786 L 461.217, 65.0318 L 456.857, 33.7875 z "/>
<path style="fill:rgb(255, 0, 0);fill-opacity:0;fill-rule:evenodd;stroke:rgb(48, 0, 255);stroke-width:1;" d="M 325.341, 165.668 L 341.144, 164.396 L 342.053, 170.754 L 340.418, 170.936 L 341.144, 176.022 L 339.146, 176.203 L 339.691, 180.563 L 341.871, 180.381 L 343.143, 189.646 L 344.959, 191.281 L 346.412, 201.817 L 330.609, 203.088 L 329.155, 192.552 L 330.064, 190.736 L 328.792, 181.471 L 330.79, 181.29 L 330.245, 176.93 L 328.61, 177.112 L 327.884, 171.844 L 326.249, 172.025 L 325.341, 165.668 z "/>
<path style="fill:rgb(0, 255, 0);fill-opacity:0;fill-rule:evenodd;stroke:rgb(48, 0, 255);stroke-width:1;" d="M 888.465, 119.164 L 904.995, 117.893 L 905.904, 125.159 L 904.45, 125.341 L 904.995, 129.519 L 902.997, 129.519 L 903.724, 134.423 L 905.177, 134.242 L 906.267, 142.598 L 908.629, 144.233 L 910.082, 154.405 L 893.551, 155.858 L 892.098, 145.686 L 894.096, 143.506 L 892.825, 134.242 L 894.823, 134.06 L 894.46, 130.245 L 892.28, 130.427 L 891.735, 126.249 L 889.373, 126.431 L 888.465, 119.164 z "/>
<path style="fill:rgb(0, 0, 255);fill-opacity:0;fill-rule:evenodd;stroke:rgb(48, 0, 255);stroke-width:1;" d="M 580.563, 94.4596 L 597.457, 93.0064 L 601.817, 123.524 L 584.923, 124.977 L 580.563, 94.4596 z "/>
<path style="fill:rgb(255, 255, 0);fill-opacity:0;fill-rule:evenodd;stroke:rgb(48, 0, 255);stroke-width:1;" d="M 310.445, 45.9582 L 326.794, 44.505 L 331.335, 75.7493 L 314.986, 77.2025 L 313.351, 66.485 L 312.988, 63.5786 L 311.717, 53.951 L 310.445, 45.9582 z "/>
<path style="fill:rgb(255, 0, 0);fill-opacity:0;fill-rule:evenodd;stroke:rgb(48, 0, 255);stroke-width:1;" d="M 683.924, 399.455 L 731.698, 395.459 L 733.697, 408.901 L 708.265, 410.899 L 703.542, 411.444 L 702.271, 411.444 L 701.181, 403.451 L 688.465, 404.541 L 688.102, 402.906 L 684.469, 403.088 L 683.924, 399.455 z "/>
<path style="fill:rgb(0, 255, 0);fill-opacity:0;fill-rule:evenodd;stroke:rgb(48, 0, 255);stroke-width:1;" d="M 683.197, 427.248 L 686.104, 427.066 L 705.54, 425.431 L 710.263, 425.068 L 735.695, 422.888 L 736.966, 432.516 L 684.469, 436.876 L 683.197, 427.248 z "/>
<path style="fill:rgb(0, 0, 255);fill-opacity:0;fill-rule:evenodd;stroke:rgb(48, 0, 255);stroke-width:1;" d="M 264.305, 145.867 L 271.935, 145.322 L 271.571, 143.869 L 302.634, 141.326 L 304.632, 154.768 L 298.274, 155.313 L 282.107, 156.767 L 273.569, 157.493 L 273.569, 156.585 L 265.94, 157.13 L 264.305, 145.867 z "/>
<path style="fill:rgb(255, 255, 0);fill-opacity:0;fill-rule:evenodd;stroke:rgb(48, 0, 255);stroke-width:1;" d="M 808.174, 250.5 L 813.624, 249.955 L 827.066, 274.841 L 827.793, 279.927 L 829.428, 281.381 L 831.063, 292.28 L 814.714, 293.551 L 813.079, 282.834 L 814.351, 281.199 L 813.079, 273.025 L 815.441, 272.843 L 814.896, 267.938 L 812.352, 268.12 L 811.626, 263.215 L 809.991, 261.944 L 809.809, 261.035 L 808.174, 250.5 z "/>
<path style="fill:rgb(255, 0, 0);fill-opacity:0;fill-rule:evenodd;stroke:rgb(48, 0, 255);stroke-width:1;" d="M 358.401, 168.756 L 374.024, 167.484 L 374.569, 170.391 L 376.203, 181.835 L 376.748, 186.376 L 378.565, 199.092 L 362.943, 200.545 L 358.401, 168.756 z "/>
<path style="fill:rgb(0, 255, 0);fill-opacity:0;fill-rule:evenodd;stroke:rgb(48, 0, 255);stroke-width:1;" d="M 473.388, 32.3342 L 489.192, 31.0627 L 493.733, 62.307 L 477.748, 63.5786 L 473.388, 32.3342 z "/>
<path style="fill:rgb(0, 0, 255);fill-opacity:0;fill-rule:evenodd;stroke:rgb(48, 0, 255);stroke-width:1;" d="M 587.648, 23.9782 L 604.178, 22.525 L 608.356, 52.6794 L 592.007, 54.1326 L 587.829, 24.5232 L 587.648, 23.9782 z "/>
<path style="fill:rgb(255, 255, 0);fill-opacity:0;fill-rule:evenodd;stroke:rgb(48, 0, 255);stroke-width:1;" d="M 31.9709, 182.743 L 37.6022, 177.475 L 38.3288, 177.112 L 40.1453, 176.93 L 41.7802, 177.112 L 42.5068, 177.293 L 44.6866, 178.747 L 50.1362, 197.639 L 47.5931, 198.183 L 47.9564, 199.455 L 49.4096, 199.092 L 50.3179, 202.18 L 51.2262, 201.998 L 54.8592, 214.351 L 42.1435, 216.712 L 31.9709, 182.743 z "/>
<path style="fill:rgb(255, 0, 0);fill-opacity:0;fill-rule:evenodd;stroke:rgb(48, 0, 255);stroke-width:1;" d="M 294.823, 55.4042 L 296.458, 53.5876 L 295.368, 45.9582 L 307.902, 44.8683 L 308.992, 52.4977 L 311.717, 53.951 L 312.988, 63.5786 L 309.537, 63.9419 L 309.9, 66.6667 L 313.351, 66.485 L 314.986, 77.2025 L 298.274, 78.6558 L 296.639, 67.7566 L 300.636, 67.5749 L 300.272, 64.6685 L 296.276, 65.0318 L 294.823, 55.4042 z "/>
<path style="fill:rgb(0, 255, 0);fill-opacity:0;fill-rule:evenodd;stroke:rgb(48, 0, 255);stroke-width:1;" d="M 773.66, 403.451 L 787.648, 402.18 L 788.556, 408.719 L 792.007, 408.356 L 806.721, 407.084 L 805.813, 400.727 L 821.072, 399.273 L 823.07, 411.989 L 775.477, 415.985 L 773.66, 403.451 z "/>
<path style="fill:rgb(0, 0, 255);fill-opacity:0;fill-rule:evenodd;stroke:rgb(48, 0, 255);stroke-width:1;" d="M 637.239, 20.7084 L 653.406, 19.2552 L 657.584, 48.683 L 641.417, 49.9546 L 637.239, 20.7084 z "/>
<path style="fill:rgb(255, 255, 0);fill-opacity:0;fill-rule:evenodd;stroke:rgb(48, 0, 255);stroke-width:1;" d="M 832.153, 73.3878 L 848.501, 72.1163 L 853.406, 106.812 L 854.496, 114.986 L 852.134, 115.168 L 847.411, 107.357 L 833.424, 82.6521 L 832.153, 73.3878 z "/>
<path style="fill:rgb(255, 0, 0);fill-opacity:0;fill-rule:evenodd;stroke:rgb(48, 0, 255);stroke-width:1;" d="M 559.128, 287.375 L 576.203, 285.922 L 580.2, 313.351 L 563.124, 314.805 L 559.128, 287.375 z "/>
<path style="fill:rgb(0, 255, 0);fill-opacity:0;fill-rule:evenodd;stroke:rgb(48, 0, 255);stroke-width:1;" d="M 374.569, 170.391 L 391.462, 168.937 L 393.097, 180.563 L 390.554, 180.745 L 391.099, 185.286 L 393.824, 185.104 L 394.005, 187.284 L 395.64, 197.82 L 378.565, 199.092 L 376.748, 186.376 L 379.473, 186.194 L 378.747, 181.653 L 376.203, 181.835 L 374.569, 170.391 z "/>
<path style="fill:rgb(0, 0, 255);fill-opacity:0;fill-rule:evenodd;stroke:rgb(48, 0, 255);stroke-width:1;" d="M 572.207, 25.9764 L 587.829, 24.5232 L 592.007, 54.1326 L 576.385, 55.4042 L 572.207, 25.9764 z "/>
<path style="fill:rgb(255, 255, 0);fill-opacity:0;fill-rule:evenodd;stroke:rgb(48, 0, 255);stroke-width:1;" d="M 392.552, 42.3252 L 408.901, 41.0536 L 412.897, 69.0282 L 396.549, 70.4814 L 392.552, 42.3252 z "/>
<path style="fill:rgb(255, 0, 0);fill-opacity:0;fill-rule:evenodd;stroke:rgb(48, 0, 255);stroke-width:1;" d="M 22.3433, 259.219 L 38.1471, 256.676 L 65.5767, 252.134 L 68.6649, 263.034 L 39.782, 267.757 L 38.6921, 263.942 L 34.3324, 264.668 L 30.881, 265.395 L 31.9709, 269.21 L 25.4314, 270.118 L 22.3433, 259.219 z "/>
<path style="fill:rgb(0, 255, 0);fill-opacity:0;fill-rule:evenodd;stroke:rgb(48, 0, 255);stroke-width:1;" d="M 753.315, 265.94 L 768.574, 264.668 L 771.117, 265.758 L 787.648, 264.305 L 789.827, 262.852 L 801.635, 261.762 L 803.27, 272.48 L 797.82, 273.025 L 791.462, 273.569 L 788.738, 271.753 L 768.937, 273.388 L 766.757, 275.568 L 754.95, 276.658 L 753.315, 265.94 z "/>
<path style="fill:rgb(0, 0, 255);fill-opacity:0;fill-rule:evenodd;stroke:rgb(48, 0, 255);stroke-width:1;" d="M 897.548, 68.1199 L 913.896, 66.6667 L 915.35, 77.7475 L 917.711, 94.2779 L 901.362, 95.5495 L 899.001, 78.8374 L 897.548, 68.1199 z "/>
<path style="fill:rgb(255, 255, 0);fill-opacity:0;fill-rule:evenodd;stroke:rgb(48, 0, 255);stroke-width:1;" d="M 486.285, 352.407 L 503.361, 350.954 L 506.449, 372.752 L 499.546, 373.297 L 500.636, 380.745 L 490.463, 381.653 L 486.285, 352.407 z "/>
<path style="fill:rgb(255, 0, 0);fill-opacity:0;fill-rule:evenodd;stroke:rgb(48, 0, 255);stroke-width:1;" d="M 540.236, 35.2407 L 541.508, 33.9691 L 540.418, 26.8847 L 552.77, 25.7947 L 553.678, 32.8792 L 556.222, 33.9691 L 556.948, 38.1471 L 554.768, 39.782 L 555.495, 45.2316 L 558.038, 46.3215 L 559.491, 56.8574 L 543.506, 58.129 L 542.053, 47.5931 L 543.324, 46.1399 L 542.416, 40.8719 L 540.781, 39.4187 L 540.236, 35.2407 z "/>
<path style="fill:rgb(0, 255, 0);fill-opacity:0;fill-rule:evenodd;stroke:rgb(48, 0, 255);stroke-width:1;" d="M 257.039, 240.145 L 308.265, 235.604 L 309.537, 244.323 L 301.362, 245.05 L 259.401, 248.683 L 257.039, 240.145 z "/>
<path style="fill:rgb(0, 0, 255);fill-opacity:0;fill-rule:evenodd;stroke:rgb(48, 0, 255);stroke-width:1;" d="M 754.95, 276.658 L 766.757, 275.568 L 791.462, 273.569 L 797.82, 273.025 L 798.91, 280.109 L 784.741, 281.381 L 785.468, 285.559 L 772.57, 286.649 L 756.585, 288.102 L 754.95, 276.658 z "/>
<path style="fill:rgb(255, 255, 0);fill-opacity:0;fill-rule:evenodd;stroke:rgb(48, 0, 255);stroke-width:1;" d="M 650.5, 338.601 L 666.848, 337.33 L 669.936, 358.946 L 670.481, 363.488 L 654.133, 364.759 L 652.134, 349.864 L 650.5, 338.601 z "/>
<path style="fill:rgb(255, 0, 0);fill-opacity:0;fill-rule:evenodd;stroke:rgb(48, 0, 255);stroke-width:1;" d="M 281.562, 329.155 L 325.522, 325.341 L 325.886, 327.702 L 326.975, 335.15 L 284.287, 338.783 L 281.562, 329.155 z "/>
<path style="fill:rgb(0, 255, 0);fill-opacity:0;fill-rule:evenodd;stroke:rgb(48, 0, 255);stroke-width:1;" d="M 231.426, 147.321 L 248.865, 145.867 L 264.124, 144.596 L 264.305, 145.867 L 265.94, 157.13 L 266.122, 157.675 L 253.588, 158.765 L 235.059, 160.4 L 231.426, 147.321 z "/>
<path style="fill:rgb(0, 0, 255);fill-opacity:0;fill-rule:evenodd;stroke:rgb(48, 0, 255);stroke-width:1;" d="M 360.036, 47.2298 L 376.022, 45.7766 L 379.837, 71.753 L 363.851, 73.2062 L 360.036, 47.2298 z "/>
<path style="fill:rgb(255, 255, 0);fill-opacity:0;fill-rule:evenodd;stroke:rgb(48, 0, 255);stroke-width:1;" d="M 544.959, 423.252 L 561.49, 421.798 L 563.306, 434.151 L 565.123, 446.685 L 548.592, 448.138 L 547.139, 437.421 L 544.959, 423.252 z "/>
<path style="fill:rgb(255, 0, 0);fill-opacity:0;fill-rule:evenodd;stroke:rgb(48, 0, 255);stroke-width:1;" d="M 523.342, 35.604 L 526.794, 35.2407 L 526.067, 30.5177 L 535.15, 29.7911 L 535.876, 34.5141 L 540.054, 34.1508 L 540.236, 35.2407 L 540.781, 39.4187 L 538.601, 41.0536 L 539.51, 47.0481 L 542.053, 47.5931 L 543.506, 58.129 L 526.975, 59.5822 L 525.341, 49.0463 L 527.702, 47.9564 L 526.794, 42.1435 L 524.251, 40.8719 L 523.342, 35.604 z "/>
<path style="fill:rgb(0, 255, 0);fill-opacity:0;fill-rule:evenodd;stroke:rgb(48, 0, 255);stroke-width:1;" d="M 42.1435, 334.968 L 58.129, 332.243 L 87.0118, 327.52 L 89.9183, 338.056 L 88.6467, 338.238 L 75.931, 340.236 L 61.762, 342.598 L 60.4905, 337.875 L 43.7784, 340.599 L 42.1435, 334.968 z "/>
<path style="fill:rgb(0, 0, 255);fill-opacity:0;fill-rule:evenodd;stroke:rgb(48, 0, 255);stroke-width:1;" d="M 743.324, 199.637 L 779.655, 196.549 L 780.926, 204.178 L 778.02, 204.541 L 778.565, 207.811 L 745.141, 210.718 L 743.324, 199.637 z "/>
<path style="fill:rgb(255, 255, 0);fill-opacity:0;fill-rule:evenodd;stroke:rgb(48, 0, 255);stroke-width:1;" d="M 536.058, 350.772 L 552.044, 349.319 L 555.495, 373.297 L 539.51, 374.75 L 536.058, 350.772 z "/>
<path style="fill:rgb(255, 0, 0);fill-opacity:0;fill-rule:evenodd;stroke:rgb(48, 0, 255);stroke-width:1;" d="M 642.688, 417.075 L 659.037, 415.804 L 659.219, 416.53 L 662.307, 438.692 L 645.958, 439.964 L 642.688, 417.075 z "/>
<path style="fill:rgb(0, 255, 0);fill-opacity:0;fill-rule:evenodd;stroke:rgb(48, 0, 255);stroke-width:1;" d="M 659.219, 416.53 L 675.749, 415.259 L 679.019, 437.239 L 662.307, 438.692 L 659.219, 416.53 z "/>
<path style="fill:rgb(0, 0, 255);fill-opacity:0;fill-rule:evenodd;stroke:rgb(48, 0, 255);stroke-width:1;" d="M 695.731, 334.968 L 722.797, 332.607 L 724.614, 346.231 L 698.274, 348.411 L 697.729, 348.411 L 697.184, 344.777 L 695.731, 334.968 z "/>
<path style="fill:rgb(255, 255, 0);fill-opacity:0;fill-rule:evenodd;stroke:rgb(48, 0, 255);stroke-width:1;" d="M 308.265, 235.604 L 322.434, 234.514 L 326.067, 259.582 L 311.898, 260.854 L 309.537, 244.323 L 308.265, 235.604 z "/>
<path style="fill:rgb(255, 0, 0);fill-opacity:0;fill-rule:evenodd;stroke:rgb(48, 0, 255);stroke-width:1;" d="M 789.827, 326.975 L 817.802, 324.614 L 819.619, 336.785 L 791.462, 339.146 L 789.827, 326.975 z "/>
<path style="fill:rgb(0, 255, 0);fill-opacity:0;fill-rule:evenodd;stroke:rgb(48, 0, 255);stroke-width:1;" d="M 617.439, 341.508 L 633.424, 340.054 L 635.059, 351.135 L 636.512, 361.308 L 620.527, 362.579 L 618.71, 350.409 L 617.439, 341.508 z "/>
<path style="fill:rgb(0, 0, 255);fill-opacity:0;fill-rule:evenodd;stroke:rgb(48, 0, 255);stroke-width:1;" d="M 666.848, 337.33 L 682.47, 336.058 L 685.559, 357.675 L 669.936, 358.946 L 666.848, 337.33 z "/>
<path style="fill:rgb(255, 255, 0);fill-opacity:0;fill-rule:evenodd;stroke:rgb(48, 0, 255);stroke-width:1;" d="M 697.729, 359.128 L 699.728, 358.946 L 726.249, 356.767 L 727.884, 368.574 L 712.262, 369.846 L 699.364, 370.936 L 697.729, 359.128 z "/>
<path style="fill:rgb(255, 0, 0);fill-opacity:0;fill-rule:evenodd;stroke:rgb(48, 0, 255);stroke-width:1;" d="M 23.4332, 191.099 L 31.9709, 182.743 L 42.1435, 216.712 L 31.6076, 218.529 L 23.4332, 191.099 z "/>
<path style="fill:rgb(0, 255, 0);fill-opacity:0;fill-rule:evenodd;stroke:rgb(48, 0, 255);stroke-width:1;" d="M 104.269, 133.333 L 116.44, 132.425 L 123.706, 159.128 L 111.898, 160.945 L 104.269, 133.333 z "/>
<path style="fill:rgb(0, 0, 255);fill-opacity:0;fill-rule:evenodd;stroke:rgb(48, 0, 255);stroke-width:1;" d="M 82.6521, 134.968 L 93.3697, 134.242 L 101.726, 164.396 L 91.0082, 166.031 L 82.6521, 134.968 z "/>
<path style="fill:rgb(255, 255, 0);fill-opacity:0;fill-rule:evenodd;stroke:rgb(48, 0, 255);stroke-width:1;" d="M 762.761, 329.337 L 789.827, 326.975 L 791.462, 339.146 L 764.578, 341.508 L 762.761, 329.337 z "/>
<path style="fill:rgb(255, 0, 0);fill-opacity:0;fill-rule:evenodd;stroke:rgb(48, 0, 255);stroke-width:1;" d="M 93.3697, 134.242 L 104.269, 133.333 L 111.898, 160.945 L 112.443, 162.579 L 101.726, 164.396 L 93.3697, 134.242 z "/>
<path style="fill:rgb(0, 255, 0);fill-opacity:0;fill-rule:evenodd;stroke:rgb(48, 0, 255);stroke-width:1;" d="M 35.059, 280.109 L 43.0518, 278.837 L 70.663, 274.296 L 73.7511, 284.832 L 45.9582, 289.373 L 43.7784, 281.562 L 35.7856, 282.834 L 35.059, 280.109 z "/>
<path style="fill:rgb(0, 0, 255);fill-opacity:0;fill-rule:evenodd;stroke:rgb(48, 0, 255);stroke-width:1;" d="M 39.782, 267.757 L 68.6649, 263.034 L 71.753, 274.114 L 70.663, 274.296 L 43.0518, 278.837 L 39.782, 267.757 z "/>
<path style="fill:rgb(255, 255, 0);fill-opacity:0;fill-rule:evenodd;stroke:rgb(48, 0, 255);stroke-width:1;" d="M 73.0245, 144.414 L 82.6521, 134.968 L 91.0082, 166.031 L 79.564, 167.847 L 73.0245, 144.414 z "/>
<path style="fill:rgb(255, 0, 0);fill-opacity:0;fill-rule:evenodd;stroke:rgb(48, 0, 255);stroke-width:1;" d="M 49.0463, 299.909 L 77.7475, 295.186 L 80.8356, 306.085 L 51.9528, 310.808 L 49.0463, 299.909 z "/>
<path style="fill:rgb(0, 255, 0);fill-opacity:0;fill-rule:evenodd;stroke:rgb(48, 0, 255);stroke-width:1;" d="M 55.0409, 321.526 L 83.9237, 316.803 L 87.0118, 327.52 L 58.129, 332.243 L 55.0409, 321.526 z "/>
<path style="fill:rgb(0, 0, 255);fill-opacity:0;fill-rule:evenodd;stroke:rgb(48, 0, 255);stroke-width:1;" d="M 51.9528, 310.808 L 80.8356, 306.085 L 83.9237, 316.803 L 55.0409, 321.526 L 53.951, 317.53 L 51.9528, 310.808 z "/>
<path style="fill:rgb(255, 255, 0);fill-opacity:0;fill-rule:evenodd;stroke:rgb(48, 0, 255);stroke-width:1;" d="M 750.045, 243.597 L 778.202, 241.235 L 779.837, 252.316 L 751.68, 254.678 L 750.045, 243.597 z "/>
<path style="fill:rgb(255, 0, 0);fill-opacity:0;fill-rule:evenodd;stroke:rgb(48, 0, 255);stroke-width:1;" d="M 322.434, 234.514 L 334.787, 233.424 L 336.24, 244.323 L 338.42, 258.492 L 326.067, 259.582 L 322.434, 234.514 z "/>
<path style="fill:rgb(0, 255, 0);fill-opacity:0;fill-rule:evenodd;stroke:rgb(48, 0, 255);stroke-width:1;" d="M 21.7984, 220.163 L 31.6076, 218.529 L 42.1435, 216.712 L 54.8592, 214.351 L 57.584, 223.978 L 32.6975, 228.156 L 26.8847, 229.064 L 21.7984, 220.163 z "/>
<path style="fill:rgb(0, 0, 255);fill-opacity:0;fill-rule:evenodd;stroke:rgb(48, 0, 255);stroke-width:1;" d="M 45.9582, 289.373 L 73.7511, 284.832 L 74.8411, 284.65 L 77.7475, 295.186 L 49.0463, 299.909 L 45.9582, 289.373 z "/>
<path style="fill:rgb(255, 255, 0);fill-opacity:0;fill-rule:evenodd;stroke:rgb(48, 0, 255);stroke-width:1;" d="M 79.564, 167.847 L 91.0082, 166.031 L 101.726, 164.396 L 112.443, 162.579 L 113.715, 167.484 L 106.812, 168.574 L 108.084, 173.297 L 82.1072, 177.475 L 79.564, 167.847 z "/>
<path style="fill:rgb(255, 0, 0);fill-opacity:0;fill-rule:evenodd;stroke:rgb(48, 0, 255);stroke-width:1;" d="M 12.1708, 201.998 L 23.4332, 191.099 L 31.6076, 218.529 L 21.7984, 220.163 L 17.0754, 212.171 L 18.347, 211.989 L 12.1708, 201.998 z "/>
<path style="fill:rgb(0, 255, 0);fill-opacity:0;fill-rule:evenodd;stroke:rgb(48, 0, 255);stroke-width:1;" d="M 698.274, 348.411 L 724.614, 346.231 L 726.249, 356.767 L 699.728, 358.946 L 698.274, 348.411 z "/>
<path style="fill:rgb(0, 0, 255);fill-opacity:0;fill-rule:evenodd;stroke:rgb(48, 0, 255);stroke-width:1;" d="M 906.812, 130.972 L 916.803, 129.882 L 918.256, 138.42 L 918.801, 141.326 L 920.981, 141.144 L 923.161, 153.678 L 911.172, 154.95 L 906.812, 130.972 z "/>
<path style="fill:rgb(255, 255, 0);fill-opacity:0;fill-rule:evenodd;stroke:rgb(48, 0, 255);stroke-width:1;" d="M 32.6975, 228.156 L 57.584, 223.978 L 60.4905, 234.151 L 35.604, 238.147 L 32.6975, 228.156 z "/>
<path style="fill:rgb(255, 0, 0);fill-opacity:0;fill-rule:evenodd;stroke:rgb(48, 0, 255);stroke-width:1;" d="M 784.378, 240.69 L 807.084, 238.692 L 809.991, 243.96 L 807.266, 244.323 L 808.174, 249.773 L 786.013, 251.771 L 784.378, 240.69 z "/>
<path style="fill:rgb(0, 255, 0);fill-opacity:0;fill-rule:evenodd;stroke:rgb(48, 0, 255);stroke-width:1;" d="M 35.604, 247.593 L 38.1471, 247.23 L 63.0336, 243.052 L 65.5767, 252.134 L 38.1471, 256.676 L 35.604, 247.593 z "/>
<path style="fill:rgb(0, 0, 255);fill-opacity:0;fill-rule:evenodd;stroke:rgb(48, 0, 255);stroke-width:1;" d="M 682.47, 336.058 L 695.731, 334.968 L 697.184, 344.777 L 694.46, 344.959 L 695.913, 354.95 L 690.827, 355.313 L 691.19, 358.22 L 685.74, 358.583 L 685.559, 357.675 L 682.47, 336.058 z "/>
<path style="fill:rgb(255, 255, 0);fill-opacity:0;fill-rule:evenodd;stroke:rgb(48, 0, 255);stroke-width:1;" d="M 288.102, 118.801 L 301.544, 117.711 L 304.087, 136.421 L 290.827, 137.511 L 288.102, 118.801 z "/>
<path style="fill:rgb(255, 0, 0);fill-opacity:0;fill-rule:evenodd;stroke:rgb(48, 0, 255);stroke-width:1;" d="M 653.406, 19.2552 L 655.767, 19.0736 L 671.753, 47.4114 L 657.584, 48.683 L 653.406, 19.2552 z "/>
<path style="fill:rgb(0, 255, 0);fill-opacity:0;fill-rule:evenodd;stroke:rgb(48, 0, 255);stroke-width:1;" d="M 35.604, 238.147 L 60.4905, 234.151 L 63.0336, 243.052 L 38.1471, 247.23 L 35.604, 238.147 z "/>
<path style="fill:rgb(0, 0, 255);fill-opacity:0;fill-rule:evenodd;stroke:rgb(48, 0, 255);stroke-width:1;" d="M 622.525, 376.203 L 638.51, 374.75 L 639.782, 383.288 L 640.509, 389.282 L 624.523, 390.554 L 623.615, 384.378 L 622.525, 376.203 z "/>
<path style="fill:rgb(255, 255, 0);fill-opacity:0;fill-rule:evenodd;stroke:rgb(48, 0, 255);stroke-width:1;" d="M 556.04, 265.577 L 573.115, 264.305 L 574.932, 277.566 L 558.038, 279.019 L 556.04, 265.577 z "/>
<path style="fill:rgb(255, 0, 0);fill-opacity:0;fill-rule:evenodd;stroke:rgb(48, 0, 255);stroke-width:1;" d="M 9.80926, 354.405 L 14.5322, 353.86 L 24.1599, 352.77 L 28.3379, 367.302 L 12.5341, 368.937 L 9.80926, 354.405 z "/>
<path style="fill:rgb(0, 255, 0);fill-opacity:0;fill-rule:evenodd;stroke:rgb(48, 0, 255);stroke-width:1;" d="M 475.931, 405.813 L 493.006, 404.36 L 493.733, 408.174 L 494.823, 416.712 L 481.926, 417.802 L 481.744, 416.167 L 477.384, 416.53 L 476.658, 410.718 L 475.931, 405.813 z "/>
<path style="fill:rgb(0, 0, 255);fill-opacity:0;fill-rule:evenodd;stroke:rgb(48, 0, 255);stroke-width:1;" d="M 325.886, 327.702 L 336.421, 326.794 L 336.058, 324.432 L 346.957, 323.524 L 348.411, 333.333 L 326.975, 335.15 L 325.886, 327.702 z "/>
<path style="fill:rgb(255, 255, 0);fill-opacity:0;fill-rule:evenodd;stroke:rgb(48, 0, 255);stroke-width:1;" d="M 897.366, 573.115 L 909.718, 571.117 L 912.625, 580.926 L 900.272, 583.106 L 897.366, 573.115 z "/>
<path style="fill:rgb(255, 0, 0);fill-opacity:0;fill-rule:evenodd;stroke:rgb(48, 0, 255);stroke-width:1;" d="M 34.1508, 313.715 L 51.9528, 310.808 L 53.951, 317.53 L 35.9673, 320.436 L 34.1508, 313.715 z "/>
<path style="fill:rgb(0, 255, 0);fill-opacity:0;fill-rule:evenodd;stroke:rgb(48, 0, 255);stroke-width:1;" d="M 659.582, 294.641 L 669.028, 293.915 L 670.663, 305.904 L 661.399, 306.63 L 661.035, 304.814 L 659.582, 294.641 z "/>
<path style="fill:rgb(0, 0, 255);fill-opacity:0;fill-rule:evenodd;stroke:rgb(48, 0, 255);stroke-width:1;" d="M 76.6576, 450.5 L 85.7402, 449.046 L 88.465, 459.219 L 79.3824, 460.49 L 78.1108, 455.767 L 76.6576, 450.5 z "/>
<path style="fill:rgb(255, 255, 0);fill-opacity:0;fill-rule:evenodd;stroke:rgb(48, 0, 255);stroke-width:1;" d="M 161.49, 764.759 L 174.932, 762.761 L 176.567, 769.846 L 163.124, 771.662 L 162.761, 769.664 L 161.49, 764.759 z "/>
<path style="fill:rgb(255, 0, 0);fill-opacity:0;fill-rule:evenodd;stroke:rgb(48, 0, 255);stroke-width:1;" d="M 198.728, 435.422 L 207.811, 433.969 L 209.264, 438.874 L 210.899, 443.96 L 201.817, 445.595 L 198.728, 435.422 z "/>
<path style="fill:rgb(0, 255, 0);fill-opacity:0;fill-rule:evenodd;stroke:rgb(48, 0, 255);stroke-width:1;" d="M 69.0282, 448.138 L 75.7493, 447.048 L 76.6576, 450.5 L 78.1108, 455.767 L 71.3896, 456.857 L 69.0282, 448.138 z "/>
<path style="fill:rgb(0, 0, 255);fill-opacity:0;fill-rule:evenodd;stroke:rgb(48, 0, 255);stroke-width:1;" d="M 209.264, 438.874 L 215.804, 437.784 L 218.347, 446.503 L 211.989, 447.593 L 210.899, 443.96 L 209.264, 438.874 z "/>
<path style="fill:rgb(255, 255, 0);fill-opacity:0;fill-rule:evenodd;stroke:rgb(48, 0, 255);stroke-width:1;" d="M 150.045, 766.576 L 161.49, 764.759 L 162.761, 769.664 L 151.317, 771.48 L 150.045, 766.576 z "/>
<path style="fill:rgb(255, 0, 0);fill-opacity:0;fill-rule:evenodd;stroke:rgb(48, 0, 255);stroke-width:1;" d="M 0, 278.656 L 6.90282, 277.929 L 16.8937, 276.658 L 21.2534, 289.555 L 2.7248, 291.735 L 0, 278.656 z "/>
<path style="fill:rgb(0, 255, 0);fill-opacity:0;fill-rule:evenodd;stroke:rgb(48, 0, 255);stroke-width:1;" d="M 195.095, 15.4405 L 220.163, 13.624 L 221.798, 25.6131 L 219.8, 27.0663 L 220.89, 34.5141 L 222.888, 34.3324 L 223.07, 35.604 L 221.072, 36.8756 L 222.525, 47.9564 L 204.36, 49.228 L 195.095, 15.4405 z "/>
<path style="fill:rgb(0, 0, 255);fill-opacity:0;fill-rule:evenodd;stroke:rgb(48, 0, 255);stroke-width:1;" d="M 352.407, 3.81471 L 369.846, 2.36149 L 373.842, 34.3324 L 374.205, 37.2389 L 356.948, 38.5104 L 356.04, 31.6076 L 352.407, 3.81471 z "/>
<path style="fill:rgb(255, 255, 0);fill-opacity:0;fill-rule:evenodd;stroke:rgb(48, 0, 255);stroke-width:1;" d="M 220.163, 13.624 L 237.784, 12.3524 L 241.962, 44.1417 L 224.342, 45.5949 L 223.07, 35.604 L 222.888, 34.3324 L 221.798, 25.6131 L 220.163, 13.624 z "/>
<path style="fill:rgb(255, 0, 0);fill-opacity:0;fill-rule:evenodd;stroke:rgb(48, 0, 255);stroke-width:1;" d="M 237.784, 12.3524 L 254.496, 11.0808 L 258.492, 42.1435 L 258.856, 44.505 L 242.144, 45.7766 L 241.962, 44.1417 L 237.784, 12.3524 z "/>
<path style="fill:rgb(0, 255, 0);fill-opacity:0;fill-rule:evenodd;stroke:rgb(48, 0, 255);stroke-width:1;" d="M 386.376, 1.08992 L 401.998, 0 L 406.358, 33.7875 L 406.358, 34.5141 L 391.462, 35.604 L 390.736, 35.604 L 390.372, 33.0609 L 386.376, 1.08992 z "/>
<path style="fill:rgb(0, 0, 255);fill-opacity:0;fill-rule:evenodd;stroke:rgb(48, 0, 255);stroke-width:1;" d="M 303.906, 7.44777 L 320.618, 6.1762 L 324.796, 38.1471 L 324.796, 39.0554 L 316.803, 39.6004 L 316.621, 37.7838 L 307.902, 38.3288 L 307.902, 38.1471 L 305.722, 21.2534 L 304.814, 13.9873 L 303.906, 7.44777 z "/>
<path style="fill:rgb(255, 255, 0);fill-opacity:0;fill-rule:evenodd;stroke:rgb(48, 0, 255);stroke-width:1;" d="M 254.496, 11.0808 L 271.39, 9.80926 L 275.386, 40.8719 L 258.492, 42.1435 L 254.496, 11.0808 z "/>
<path style="fill:rgb(255, 0, 0);fill-opacity:0;fill-rule:evenodd;stroke:rgb(48, 0, 255);stroke-width:1;" d="M 320.618, 6.1762 L 336.421, 4.90463 L 340.054, 32.8792 L 340.599, 37.0572 L 324.796, 38.1471 L 320.618, 6.1762 z "/>
<path style="fill:rgb(0, 255, 0);fill-opacity:0;fill-rule:evenodd;stroke:rgb(48, 0, 255);stroke-width:1;" d="M 271.39, 9.80926 L 287.012, 8.53769 L 287.92, 15.2589 L 288.828, 22.525 L 291.008, 39.4187 L 291.19, 40.327 L 275.568, 41.4169 L 275.386, 40.8719 L 271.39, 9.80926 z "/>
<path style="fill:rgb(0, 0, 255);fill-opacity:0;fill-rule:evenodd;stroke:rgb(48, 0, 255);stroke-width:1;" d="M 287.012, 8.53769 L 303.906, 7.44777 L 304.814, 13.9873 L 302.816, 14.1689 L 303.542, 19.6185 L 305.722, 21.2534 L 307.902, 38.1471 L 291.008, 39.4187 L 288.828, 22.525 L 291.19, 20.5268 L 290.463, 15.0772 L 287.92, 15.2589 L 287.012, 8.53769 z "/>
</svg>