<?xml version="1.0" encoding="iso-8859-1" standalone="no"?>
<!DOCTYPE svg PUBLIC "-//W3C//DTD SVG 1.0//EN" "http://www.w3.org/TR/2001/REC-SVG-20010904/DTD/svg10.dtd">
<svg xmlns="http://www.w3.org/2000/svg" width="950" height="800">
<path style="fill:rgb(255, 0, 0);fill-opacity:0;fill-rule:evenodd;stroke:rgb(0, 129, 255);stroke-width:1;" d="M 301.984, 685.187 L 319.335, 661.929 L 338.717, 670.235 L 348.131, 657.499 L 343.516, 655.653 L 357.73, 636.456 L 361.606, 638.117 L 371.204, 625.381 L 333.733, 609.322 L 350.715, 586.433 L 418.459, 615.598 L 415.505, 619.289 L 395.385, 646.608 L 405.907, 651.038 L 404.984, 652.146 L 480.849, 684.818 L 482.326, 682.787 L 493.401, 687.587 L 516.474, 656.391 L 573.512, 680.941 L 556.53, 703.646 L 529.395, 692.017 L 519.797, 704.753 L 524.596, 706.968 L 511.491, 724.689 L 510.383, 726.165 L 505.584, 723.95 L 496.354, 736.317 L 523.858, 748.131 L 506.691, 771.204 L 450.023, 747.024 L 474.204, 714.536 L 456.114, 706.784 L 454.453, 708.999 L 430.272, 698.662 L 431.564, 696.816 L 417.536, 690.725 L 416.059, 692.755 L 392.063, 682.418 L 393.539, 680.203 L 376.742, 673.004 L 352.377, 705.861 L 323.581, 693.493 L 323.027, 694.232 L 301.984, 685.187 z "/>
<path style="fill:rgb(0, 255, 0);fill-opacity:0;fill-rule:evenodd;stroke:rgb(0, 129, 255);stroke-width:1;" d="M 445.962, 516.474 L 450.577, 510.014 L 469.22, 484.356 L 555.607, 520.535 L 525.704, 561.698 L 513.521, 578.496 L 455.007, 554.13 L 473.835, 528.103 L 445.962, 516.474 z "/>
<path style="fill:rgb(0, 0, 255);fill-opacity:0;fill-rule:evenodd;stroke:rgb(0, 129, 255);stroke-width:1;" d="M 535.671, 629.811 L 572.22, 579.234 L 580.711, 582.741 L 579.419, 584.402 L 582.187, 585.51 L 591.786, 572.22 L 600.092, 575.542 L 638.117, 591.601 L 593.078, 653.807 L 535.671, 629.811 z "/>
<path style="fill:rgb(255, 255, 0);fill-opacity:0;fill-rule:evenodd;stroke:rgb(0, 129, 255);stroke-width:1;" d="M 579.419, 188.648 L 622.796, 147.3 L 646.977, 157.637 L 648.454, 158.376 L 629.626, 183.849 L 646.608, 191.048 L 649.562, 190.863 L 660.452, 176.096 L 654.545, 173.696 L 661.375, 164.467 L 691.463, 177.204 L 689.432, 179.972 L 693.493, 181.818 L 681.495, 197.877 L 679.834, 197.139 L 676.88, 201.015 L 684.633, 204.338 L 668.205, 226.488 L 579.419, 188.648 z "/>
<path style="fill:rgb(255, 0, 0);fill-opacity:0;fill-rule:evenodd;stroke:rgb(0, 129, 255);stroke-width:1;" d="M 765.298, 267.282 L 780.803, 246.054 L 786.894, 248.639 L 796.862, 234.979 L 799.446, 236.087 L 805.538, 227.596 L 802.584, 226.304 L 804.061, 224.458 L 829.719, 235.164 L 825.842, 240.517 L 833.779, 243.839 L 832.303, 245.87 L 857.037, 256.207 L 861.652, 249.746 L 881.034, 257.868 L 848.731, 302.353 L 765.298, 267.282 z M 807.568, 268.205 L 815.874, 271.712 L 826.581, 276.327 L 837.102, 261.744 L 819.751, 254.361 L 816.982, 255.468 L 807.568, 268.205 z "/>
<path style="fill:rgb(0, 255, 0);fill-opacity:0;fill-rule:evenodd;stroke:rgb(0, 129, 255);stroke-width:1;" d="M 602.123, 504.661 L 618.182, 482.695 L 623.35, 484.91 L 640.332, 461.837 L 653.438, 467.374 L 654.176, 466.267 L 665.436, 471.066 L 660.268, 478.08 L 678.911, 486.018 L 684.264, 478.449 L 705.122, 487.31 L 712.137, 490.263 L 677.803, 536.779 L 645.87, 523.304 L 663.59, 499.123 L 660.083, 497.462 L 658.606, 499.308 L 656.576, 498.385 L 657.868, 496.539 L 652.33, 494.139 L 634.61, 518.505 L 602.123, 504.661 z "/>
<path style="fill:rgb(0, 0, 255);fill-opacity:0;fill-rule:evenodd;stroke:rgb(0, 129, 255);stroke-width:1;" d="M 855.93, 764.19 L 858.514, 760.683 L 875.865, 736.687 L 876.234, 736.133 L 886.202, 740.378 L 892.478, 731.887 L 950.438, 756.253 L 939.179, 795.57 L 932.349, 796.493 L 855.93, 764.19 z "/>
<path style="fill:rgb(255, 255, 0);fill-opacity:0;fill-rule:evenodd;stroke:rgb(0, 129, 255);stroke-width:1;" d="M 411.444, 423.812 L 433.041, 374.342 L 460.36, 385.971 L 447.254, 403.692 L 451.684, 405.538 L 451.131, 406.461 L 452.792, 407.199 L 446.147, 416.244 L 459.252, 421.966 L 479.557, 394.278 L 503.922, 404.615 L 489.709, 423.996 L 487.494, 423.073 L 484.91, 426.581 L 492.847, 429.903 L 476.973, 451.5 L 411.444, 423.812 z "/>
<path style="fill:rgb(255, 0, 0);fill-opacity:0;fill-rule:evenodd;stroke:rgb(0, 129, 255);stroke-width:1;" d="M 760.683, 111.121 L 769.912, 98.5695 L 777.296, 101.892 L 786.525, 89.3401 L 783.203, 88.048 L 791.694, 76.6036 L 820.858, 88.9709 L 809.229, 104.845 L 805.168, 103.184 L 802.03, 107.43 L 817.905, 114.075 L 823.258, 106.876 L 820.858, 105.768 L 830.272, 92.8473 L 859.252, 105.215 L 850.946, 116.659 L 849.1, 115.921 L 839.871, 128.288 L 846.147, 131.057 L 836.917, 143.424 L 760.683, 111.121 z "/>
<path style="fill:rgb(0, 255, 0);fill-opacity:0;fill-rule:evenodd;stroke:rgb(0, 129, 255);stroke-width:1;" d="M 594.001, 758.653 L 632.58, 705.861 L 683.341, 727.273 L 667.651, 748.869 L 636.825, 735.948 L 633.503, 740.563 L 639.225, 742.963 L 635.718, 747.762 L 655.468, 756.068 L 642.916, 773.419 L 619.659, 763.636 L 618.366, 765.298 L 616.336, 764.375 L 614.305, 767.144 L 596.954, 759.945 L 594.001, 758.653 z "/>
<path style="fill:rgb(0, 0, 255);fill-opacity:0;fill-rule:evenodd;stroke:rgb(0, 129, 255);stroke-width:1;" d="M 644.024, 126.996 L 664.698, 107.245 L 753.115, 144.347 L 737.61, 165.759 L 731.887, 163.359 L 714.905, 186.617 L 693.309, 177.573 L 701.246, 166.682 L 710.66, 170.558 L 721.551, 155.607 L 710.291, 150.992 L 707.522, 154.868 L 697, 150.438 L 688.694, 146.931 L 692.201, 142.132 L 696.078, 143.793 L 698.477, 140.655 L 672.45, 129.765 L 667.282, 136.779 L 662.298, 134.749 L 644.024, 126.996 z "/>
<path style="fill:rgb(255, 255, 0);fill-opacity:0;fill-rule:evenodd;stroke:rgb(0, 129, 255);stroke-width:1;" d="M 691.278, 81.5874 L 692.94, 79.1878 L 693.309, 79.3724 L 694.97, 77.1574 L 696.816, 78.0803 L 701.246, 71.8043 L 703.461, 72.7273 L 711.398, 61.8366 L 714.536, 63.1287 L 720.812, 54.4532 L 727.457, 46.1467 L 730.226, 47.2543 L 734.472, 41.3475 L 733.549, 40.7937 L 736.502, 37.4712 L 757.73, 46.3313 L 769.912, 51.4998 L 756.807, 69.2201 L 755.145, 68.4818 L 751.269, 73.8348 L 766.774, 80.2953 L 748.131, 105.768 L 691.278, 81.5874 z "/>
<path style="fill:rgb(255, 0, 0);fill-opacity:0;fill-rule:evenodd;stroke:rgb(0, 129, 255);stroke-width:1;" d="M 652.515, 678.726 L 685.002, 634.241 L 707.891, 643.839 L 705.676, 646.608 L 709.183, 650.485 L 732.81, 660.452 L 722.289, 674.85 L 698.293, 664.698 L 691.463, 673.927 L 720.628, 686.11 L 708.814, 702.353 L 652.515, 678.726 z "/>
<path style="fill:rgb(0, 255, 0);fill-opacity:0;fill-rule:evenodd;stroke:rgb(0, 129, 255);stroke-width:1;" d="M 269.128, 763.821 L 289.986, 714.721 L 347.946, 739.086 L 328.565, 765.113 L 321.551, 761.975 L 311.767, 758.653 L 313.613, 755.699 L 308.629, 753.115 L 302.538, 768.62 L 270.42, 764.006 L 269.128, 763.821 z "/>
<path style="fill:rgb(0, 0, 255);fill-opacity:0;fill-rule:evenodd;stroke:rgb(0, 129, 255);stroke-width:1;" d="M 549.7, 411.075 L 564.467, 390.955 L 558.191, 388.186 L 568.159, 374.527 L 569.635, 372.497 L 591.786, 381.91 L 590.309, 383.941 L 603.969, 389.663 L 605.445, 387.817 L 627.78, 397.231 L 625.75, 400.185 L 616.521, 412.552 L 610.798, 410.152 L 595.847, 430.641 L 575.173, 421.966 L 576.281, 420.489 L 565.39, 415.69 L 564.282, 417.351 L 549.7, 411.075 z "/>
<path style="fill:rgb(255, 255, 0);fill-opacity:0;fill-rule:evenodd;stroke:rgb(0, 129, 255);stroke-width:1;" d="M 739.086, 715.09 L 744.255, 708.26 L 749.792, 700.692 L 768.989, 708.814 L 771.02, 705.861 L 775.081, 700.508 L 764.559, 696.078 L 766.59, 693.124 L 764.744, 692.386 L 766.036, 690.54 L 759.206, 687.771 L 761.237, 684.818 L 766.59, 677.434 L 820.305, 699.954 L 810.706, 713.06 L 799.631, 708.445 L 792.432, 718.228 L 807.568, 724.689 L 806.645, 725.981 L 796.862, 739.455 L 739.086, 715.09 z "/>
<path style="fill:rgb(255, 0, 0);fill-opacity:0;fill-rule:evenodd;stroke:rgb(0, 129, 255);stroke-width:1;" d="M 778.772, 506.322 L 804.061, 471.804 L 854.638, 493.216 L 841.901, 510.568 L 839.871, 509.645 L 833.964, 517.582 L 815.136, 509.645 L 812.552, 513.152 L 815.321, 514.259 L 811.26, 519.982 L 778.772, 506.322 z "/>
<path style="fill:rgb(0, 255, 0);fill-opacity:0;fill-rule:evenodd;stroke:rgb(0, 129, 255);stroke-width:1;" d="M 677.065, 455.93 L 682.418, 448.731 L 677.25, 446.516 L 693.124, 424.919 L 744.07, 446.516 L 719.52, 480.111 L 712.506, 477.157 L 697.37, 470.697 L 703.092, 462.944 L 699.769, 461.652 L 700.508, 460.729 L 696.816, 459.252 L 694.047, 463.129 L 677.065, 455.93 z "/>
<path style="fill:rgb(0, 0, 255);fill-opacity:0;fill-rule:evenodd;stroke:rgb(0, 129, 255);stroke-width:1;" d="M 850.392, 232.949 L 858.145, 222.058 L 869.405, 226.857 L 875.681, 218.182 L 858.699, 211.168 L 871.066, 194.001 L 914.444, 212.275 L 885.095, 252.33 L 857.037, 240.517 L 859.806, 236.825 L 850.392, 232.949 z "/>
<path style="fill:rgb(255, 255, 0);fill-opacity:0;fill-rule:evenodd;stroke:rgb(0, 129, 255);stroke-width:1;" d="M 775.081, 577.388 L 782.28, 567.79 L 787.817, 570.005 L 802.215, 550.438 L 817.536, 556.899 L 824.919, 547.116 L 828.242, 548.593 L 831.38, 549.885 L 824.181, 559.668 L 834.702, 564.098 L 835.81, 562.621 L 844.116, 565.944 L 841.347, 569.635 L 844.855, 571.297 L 831.38, 589.571 L 824.919, 598.431 L 775.081, 577.388 z "/>
<path style="fill:rgb(255, 0, 0);fill-opacity:0;fill-rule:evenodd;stroke:rgb(0, 129, 255);stroke-width:1;" d="M 440.978, 355.33 L 454.638, 323.766 L 507.245, 346.101 L 490.817, 368.62 L 486.571, 366.774 L 485.833, 367.882 L 461.837, 357.73 L 458.329, 362.713 L 440.978, 355.33 z "/>
<path style="fill:rgb(0, 255, 0);fill-opacity:0;fill-rule:evenodd;stroke:rgb(0, 129, 255);stroke-width:1;" d="M 738.348, 561.698 L 766.959, 522.566 L 784.679, 529.949 L 792.432, 533.272 L 791.509, 534.564 L 788.556, 533.272 L 786.156, 536.594 L 793.909, 539.917 L 788.556, 547.116 L 784.126, 545.27 L 780.618, 550.069 L 784.679, 551.915 L 783.572, 553.392 L 789.479, 555.791 L 773.973, 576.834 L 738.348, 561.698 z "/>
<path style="fill:rgb(0, 0, 255);fill-opacity:0;fill-rule:evenodd;stroke:rgb(0, 129, 255);stroke-width:1;" d="M 688.879, 628.888 L 718.043, 588.832 L 753.669, 603.969 L 750.531, 608.214 L 743.701, 617.628 L 736.871, 614.675 L 720.997, 636.641 L 720.074, 636.087 L 716.751, 640.517 L 688.879, 628.888 z "/>
<path style="fill:rgb(255, 255, 0);fill-opacity:0;fill-rule:evenodd;stroke:rgb(0, 129, 255);stroke-width:1;" d="M 698.477, 781.172 L 701.615, 777.111 L 706.784, 769.912 L 715.275, 773.604 L 724.504, 761.052 L 715.828, 757.36 L 723.766, 746.47 L 725.058, 744.808 L 762.898, 760.868 L 753.853, 773.235 L 745.547, 769.728 L 736.317, 782.464 L 744.439, 785.971 L 742.409, 788.925 L 736.317, 797.047 L 698.477, 781.172 z "/>
<path style="fill:rgb(255, 0, 0);fill-opacity:0;fill-rule:evenodd;stroke:rgb(0, 129, 255);stroke-width:1;" d="M 843.009, 76.419 L 859.068, 54.4532 L 853.346, 52.0535 L 864.421, 37.102 L 902.077, 52.9765 L 892.478, 66.0821 L 891.001, 67.928 L 885.464, 65.713 L 869.405, 87.4942 L 843.009, 76.419 z "/>
<path style="fill:rgb(0, 255, 0);fill-opacity:0;fill-rule:evenodd;stroke:rgb(0, 129, 255);stroke-width:1;" d="M 805.353, 60.3599 L 821.412, 38.5787 L 815.321, 35.9945 L 826.396, 20.8583 L 864.421, 37.102 L 853.346, 52.0535 L 847.623, 49.6539 L 831.564, 71.4352 L 805.353, 60.3599 z "/>
<path style="fill:rgb(0, 0, 255);fill-opacity:0;fill-rule:evenodd;stroke:rgb(0, 129, 255);stroke-width:1;" d="M 537.148, 583.479 L 547.854, 568.713 L 550.808, 564.836 L 560.037, 568.713 L 570.558, 554.315 L 565.205, 552.1 L 567.79, 548.408 L 563.913, 546.747 L 569.082, 539.548 L 576.465, 529.395 L 600.092, 539.363 L 560.96, 593.447 L 537.148, 583.479 z "/>
<path style="fill:rgb(255, 255, 0);fill-opacity:0;fill-rule:evenodd;stroke:rgb(0, 129, 255);stroke-width:1;" d="M 796.862, 739.455 L 806.645, 725.981 L 812.737, 728.565 L 830.272, 704.384 L 853.899, 714.352 L 845.408, 726.165 L 850.946, 728.565 L 834.887, 750.715 L 832.303, 754.222 L 796.862, 739.455 z "/>
<path style="fill:rgb(255, 0, 0);fill-opacity:0;fill-rule:evenodd;stroke:rgb(0, 129, 255);stroke-width:1;" d="M 828.242, 548.593 L 834.702, 537.517 L 831.564, 536.225 L 841.532, 522.75 L 845.039, 524.227 L 854.084, 511.86 L 850.946, 510.568 L 861.467, 496.17 L 892.478, 509.275 L 881.957, 523.673 L 869.774, 518.505 L 860.729, 530.872 L 872.912, 536.041 L 862.944, 549.515 L 837.84, 538.809 L 831.38, 549.885 L 828.242, 548.593 z "/>
<path style="fill:rgb(0, 255, 0);fill-opacity:0;fill-rule:evenodd;stroke:rgb(0, 129, 255);stroke-width:1;" d="M 811.814, 677.803 L 828.426, 655.099 L 822.335, 652.515 L 830.088, 641.624 L 833.226, 637.379 L 868.666, 652.33 L 865.528, 656.576 L 857.407, 667.651 L 851.869, 665.251 L 835.441, 687.771 L 811.814, 677.803 z "/>
<path style="fill:rgb(0, 0, 255);fill-opacity:0;fill-rule:evenodd;stroke:rgb(0, 129, 255);stroke-width:1;" d="M 600.092, 575.542 L 620.212, 547.67 L 658.422, 563.729 L 638.117, 591.601 L 600.092, 575.542 z "/>
<path style="fill:rgb(255, 255, 0);fill-opacity:0;fill-rule:evenodd;stroke:rgb(0, 129, 255);stroke-width:1;" d="M 760.498, 654.361 L 764.559, 648.639 L 767.144, 644.947 L 768.251, 643.655 L 776.373, 646.977 L 785.971, 634.241 L 777.665, 630.734 L 786.71, 618.366 L 786.894, 617.997 L 821.781, 632.58 L 818.643, 636.825 L 811.629, 646.239 L 806.83, 644.209 L 790.217, 666.913 L 760.498, 654.361 z "/>
<path style="fill:rgb(255, 0, 0);fill-opacity:0;fill-rule:evenodd;stroke:rgb(0, 129, 255);stroke-width:1;" d="M 824.919, 598.431 L 831.38, 589.571 L 837.656, 592.155 L 840.978, 587.725 L 843.747, 586.802 L 845.778, 584.033 L 847.993, 584.956 L 849.654, 582.741 L 846.701, 581.449 L 848.731, 578.865 L 848.362, 576.465 L 851.684, 572.035 L 845.778, 569.451 L 852.423, 560.406 L 886.756, 574.988 L 883.064, 579.972 L 880.111, 584.033 L 874.389, 581.634 L 871.435, 585.879 L 867.928, 586.987 L 862.021, 594.924 L 862.944, 597.508 L 859.991, 601.384 L 865.713, 603.784 L 862.575, 608.03 L 859.622, 611.906 L 857.591, 612.275 L 824.919, 598.431 z "/>
<path style="fill:rgb(0, 255, 0);fill-opacity:0;fill-rule:evenodd;stroke:rgb(0, 129, 255);stroke-width:1;" d="M 674.85, 229.257 L 683.341, 217.628 L 691.094, 220.766 L 701.984, 205.814 L 694.047, 202.492 L 702.538, 190.678 L 734.841, 204.153 L 726.719, 215.228 L 726.165, 215.782 L 717.859, 212.46 L 706.968, 227.411 L 715.09, 230.918 L 708.629, 239.594 L 706.599, 242.547 L 674.85, 229.257 z "/>
<path style="fill:rgb(0, 0, 255);fill-opacity:0;fill-rule:evenodd;stroke:rgb(0, 129, 255);stroke-width:1;" d="M 622.796, 147.3 L 644.024, 126.996 L 662.298, 134.749 L 656.576, 142.686 L 675.404, 150.438 L 680.388, 143.424 L 688.694, 146.931 L 697, 150.438 L 684.264, 167.79 L 650.115, 153.392 L 646.977, 157.637 L 622.796, 147.3 z "/>
<path style="fill:rgb(255, 255, 0);fill-opacity:0;fill-rule:evenodd;stroke:rgb(0, 129, 255);stroke-width:1;" d="M 766.959, 522.566 L 778.772, 506.322 L 811.26, 519.982 L 829.534, 527.734 L 826.211, 532.164 L 829.719, 533.641 L 825.473, 539.363 L 822.15, 537.886 L 818.09, 543.24 L 785.233, 529.211 L 784.679, 529.949 L 766.959, 522.566 z "/>
<path style="fill:rgb(255, 0, 0);fill-opacity:0;fill-rule:evenodd;stroke:rgb(0, 129, 255);stroke-width:1;" d="M 521.274, 574.25 L 529.211, 563.175 L 525.704, 561.698 L 555.607, 520.535 L 571.85, 527.365 L 564.467, 537.517 L 569.082, 539.548 L 563.913, 546.747 L 563.359, 547.485 L 547.116, 540.655 L 541.394, 548.593 L 549.885, 552.1 L 547.116, 555.976 L 554.868, 559.114 L 550.808, 564.836 L 547.854, 568.713 L 543.424, 566.867 L 536.225, 576.65 L 531.98, 574.988 L 529.765, 577.757 L 521.274, 574.25 z "/>
<path style="fill:rgb(0, 255, 0);fill-opacity:0;fill-rule:evenodd;stroke:rgb(0, 129, 255);stroke-width:1;" d="M 681.495, 315.828 L 685.556, 310.475 L 689.986, 304.384 L 699.769, 308.445 L 703.461, 303.461 L 702.169, 302.907 L 708.445, 294.232 L 699.954, 290.725 L 706.23, 282.049 L 708.999, 278.542 L 732.81, 288.694 L 730.226, 292.201 L 711.398, 317.859 L 707.153, 316.198 L 701.246, 324.135 L 681.495, 315.828 z "/>
<path style="fill:rgb(0, 0, 255);fill-opacity:0;fill-rule:evenodd;stroke:rgb(0, 129, 255);stroke-width:1;" d="M 845.408, 418.459 L 857.96, 400.738 L 897.277, 416.982 L 899.123, 417.905 L 895.801, 422.335 L 887.494, 419.012 L 881.403, 427.688 L 889.525, 431.011 L 886.387, 435.441 L 845.408, 418.459 z "/>
<path style="fill:rgb(255, 255, 0);fill-opacity:0;fill-rule:evenodd;stroke:rgb(0, 129, 255);stroke-width:1;" d="M 721.551, 698.477 L 738.533, 675.219 L 742.778, 677.065 L 745.178, 673.743 L 746.285, 674.296 L 747.393, 672.82 L 756.807, 676.696 L 755.33, 678.726 L 758.283, 679.834 L 756.253, 682.787 L 761.237, 684.818 L 759.206, 687.771 L 752.192, 697.37 L 749.054, 696.078 L 746.654, 699.4 L 749.792, 700.692 L 744.255, 708.26 L 739.086, 706.045 L 736.871, 709.183 L 735.21, 708.445 L 734.102, 709.922 L 723.396, 705.491 L 724.319, 704.015 L 723.581, 703.83 L 725.981, 700.323 L 721.551, 698.477 z "/>
<path style="fill:rgb(255, 0, 0);fill-opacity:0;fill-rule:evenodd;stroke:rgb(0, 129, 255);stroke-width:1;" d="M 496.724, 268.205 L 496.908, 266.544 L 497.277, 265.805 L 498.2, 264.513 L 499.677, 263.406 L 501.523, 262.667 L 503.553, 262.298 L 504.661, 262.298 L 510.937, 253.623 L 513.336, 254.73 L 513.706, 253.992 L 555.607, 271.712 L 550.623, 278.542 L 542.686, 275.219 L 539.732, 277.25 L 529.211, 272.82 L 524.596, 279.28 L 521.827, 277.988 L 520.166, 280.388 L 498.2, 271.158 L 497.277, 269.682 L 496.724, 268.205 z "/>
<path style="fill:rgb(0, 255, 0);fill-opacity:0;fill-rule:evenodd;stroke:rgb(0, 129, 255);stroke-width:1;" d="M 356.253, 554.684 L 370.281, 523.673 L 373.419, 521.827 L 378.588, 524.042 L 378.034, 524.781 L 378.957, 525.15 L 378.588, 525.519 L 394.278, 532.164 L 394.093, 532.533 L 374.342, 560.037 L 373.235, 561.698 L 356.253, 554.684 z "/>
<path style="fill:rgb(0, 0, 255);fill-opacity:0;fill-rule:evenodd;stroke:rgb(0, 129, 255);stroke-width:1;" d="M 429.534, 499.677 L 435.441, 491.555 L 447.254, 475.127 L 469.22, 484.356 L 450.577, 510.014 L 430.641, 501.707 L 429.534, 499.677 z "/>
<path style="fill:rgb(255, 255, 0);fill-opacity:0;fill-rule:evenodd;stroke:rgb(0, 129, 255);stroke-width:1;" d="M 329.488, 776.557 L 331.887, 773.419 L 335.764, 771.02 L 338.163, 767.697 L 337.61, 764.006 L 351.454, 745.178 L 368.805, 752.377 L 344.624, 785.602 L 329.857, 779.511 L 329.488, 776.557 z "/>
<path style="fill:rgb(255, 0, 0);fill-opacity:0;fill-rule:evenodd;stroke:rgb(0, 129, 255);stroke-width:1;" d="M 264.882, 771.574 L 265.067, 770.097 L 265.805, 768.805 L 267.097, 767.882 L 267.836, 767.513 L 269.682, 767.144 L 270.42, 764.006 L 302.538, 768.62 L 321.551, 771.574 L 319.52, 779.695 L 311.767, 778.588 L 310.66, 783.203 L 298.108, 782.833 L 279.649, 782.28 L 280.572, 779.142 L 267.097, 777.111 L 267.651, 774.896 L 266.174, 773.973 L 265.805, 773.419 L 265.067, 772.127 L 264.882, 771.574 z "/>
<path style="fill:rgb(0, 255, 0);fill-opacity:0;fill-rule:evenodd;stroke:rgb(0, 129, 255);stroke-width:1;" d="M 384.31, 488.233 L 385.602, 486.571 L 384.495, 486.018 L 392.247, 475.127 L 390.032, 471.066 L 401.108, 455.93 L 419.935, 463.867 L 400.369, 490.817 L 397.6, 491.555 L 394.832, 490.448 L 393.355, 492.478 L 389.663, 492.478 L 384.679, 490.448 L 384.31, 488.233 z "/>
<path style="fill:rgb(0, 0, 255);fill-opacity:0;fill-rule:evenodd;stroke:rgb(0, 129, 255);stroke-width:1;" d="M 609.506, 448.731 L 613.198, 443.747 L 640.517, 406.461 L 655.099, 412.552 L 635.902, 438.763 L 630.918, 436.733 L 624.089, 445.962 L 620.397, 444.485 L 615.413, 451.315 L 609.506, 448.731 z "/>
<path style="fill:rgb(255, 255, 0);fill-opacity:0;fill-rule:evenodd;stroke:rgb(0, 129, 255);stroke-width:1;" d="M 374.342, 560.037 L 394.093, 532.533 L 412.183, 540.102 L 410.337, 542.501 L 392.432, 567.605 L 374.342, 560.037 z "/>
<path style="fill:rgb(255, 0, 0);fill-opacity:0;fill-rule:evenodd;stroke:rgb(0, 129, 255);stroke-width:1;" d="M 604.338, 439.871 L 608.952, 433.595 L 613.013, 433.779 L 614.859, 431.195 L 605.814, 427.319 L 616.521, 412.552 L 625.75, 400.185 L 640.517, 406.461 L 613.198, 443.747 L 604.338, 439.871 z "/>
<path style="fill:rgb(0, 255, 0);fill-opacity:0;fill-rule:evenodd;stroke:rgb(0, 129, 255);stroke-width:1;" d="M 647.716, 448.546 L 669.682, 418.643 L 671.712, 415.874 L 686.294, 421.966 L 662.298, 454.822 L 647.716, 448.546 z "/>
<path style="fill:rgb(0, 0, 255);fill-opacity:0;fill-rule:evenodd;stroke:rgb(0, 129, 255);stroke-width:1;" d="M 528.288, 235.902 L 534.01, 228.15 L 537.517, 229.811 L 539.179, 227.596 L 540.102, 227.965 L 545.085, 221.135 L 546.377, 221.689 L 547.3, 220.397 L 546.377, 219.289 L 546.193, 218.736 L 546.193, 217.259 L 546.377, 216.705 L 547.3, 215.598 L 547.854, 215.044 L 549.331, 214.305 L 550.254, 214.121 L 551.915, 214.121 L 570.189, 221.874 L 557.084, 239.594 L 549.331, 236.271 L 544.532, 242.916 L 528.288, 235.902 z "/>
<path style="fill:rgb(255, 255, 0);fill-opacity:0;fill-rule:evenodd;stroke:rgb(0, 129, 255);stroke-width:1;" d="M 728.011, 403.507 L 735.764, 392.986 L 743.147, 396.124 L 744.255, 394.647 L 772.497, 406.461 L 773.789, 407.014 L 764.375, 419.935 L 729.303, 404.984 L 728.011, 403.507 z "/>
<path style="fill:rgb(255, 0, 0);fill-opacity:0;fill-rule:evenodd;stroke:rgb(0, 129, 255);stroke-width:1;" d="M 470.512, 296.447 L 470.697, 295.339 L 471.066, 294.601 L 471.435, 294.047 L 472.727, 293.124 L 473.466, 292.94 L 474.942, 292.57 L 476.604, 292.57 L 477.527, 292.57 L 484.541, 283.156 L 508.537, 293.309 L 514.075, 295.708 L 504.292, 308.814 L 503, 310.66 L 491.371, 305.676 L 492.109, 304.753 L 479.372, 299.216 L 477.896, 299.954 L 476.234, 300.323 L 474.573, 300.138 L 473.096, 299.769 L 471.804, 298.846 L 471.251, 298.293 L 470.881, 297.739 L 470.512, 296.447 z "/>
<path style="fill:rgb(0, 255, 0);fill-opacity:0;fill-rule:evenodd;stroke:rgb(0, 129, 255);stroke-width:1;" d="M 635.902, 438.763 L 655.099, 412.552 L 669.682, 418.643 L 647.716, 448.546 L 644.393, 453.161 L 637.933, 450.208 L 643.839, 442.086 L 635.902, 438.763 z "/>
<path style="fill:rgb(0, 0, 255);fill-opacity:0;fill-rule:evenodd;stroke:rgb(0, 129, 255);stroke-width:1;" d="M 344.624, 785.602 L 368.805, 752.377 L 382.649, 758.283 L 364.744, 782.833 L 363.636, 784.126 L 361.975, 784.864 L 360.129, 785.233 L 358.099, 785.233 L 356.068, 784.495 L 352.746, 789.109 L 344.624, 785.602 z "/>
<path style="fill:rgb(255, 255, 0);fill-opacity:0;fill-rule:evenodd;stroke:rgb(0, 129, 255);stroke-width:1;" d="M 507.799, 387.817 L 529.58, 358.099 L 542.87, 363.821 L 517.951, 397.97 L 512.967, 395.939 L 516.105, 391.509 L 507.799, 387.817 z "/>
<path style="fill:rgb(255, 0, 0);fill-opacity:0;fill-rule:evenodd;stroke:rgb(0, 129, 255);stroke-width:1;" d="M 570.928, 334.102 L 588.648, 309.922 L 594.739, 301.8 L 600.277, 304.199 L 603.415, 313.244 L 601.754, 315.644 L 584.033, 339.64 L 582.557, 338.902 L 582.187, 339.455 L 581.08, 340.194 L 579.603, 340.563 L 578.126, 340.563 L 576.834, 340.009 L 575.727, 339.271 L 575.173, 338.348 L 575.173, 337.056 L 575.727, 336.133 L 570.928, 334.102 z "/>
<path style="fill:rgb(0, 255, 0);fill-opacity:0;fill-rule:evenodd;stroke:rgb(0, 129, 255);stroke-width:1;" d="M 512.044, 461.098 L 535.118, 428.98 L 541.578, 431.749 L 537.148, 438.025 L 545.27, 441.347 L 526.811, 467.19 L 512.044, 461.098 z "/>
<path style="fill:rgb(0, 0, 255);fill-opacity:0;fill-rule:evenodd;stroke:rgb(0, 129, 255);stroke-width:1;" d="M 825.658, 445.778 L 832.856, 435.81 L 874.019, 452.792 L 875.127, 453.346 L 868.113, 463.313 L 825.658, 445.778 z "/>
<path style="fill:rgb(255, 255, 0);fill-opacity:0;fill-rule:evenodd;stroke:rgb(0, 129, 255);stroke-width:1;" d="M 534.379, 321.551 L 557.822, 289.802 L 564.098, 281.126 L 570.928, 283.895 L 561.514, 296.816 L 566.313, 298.846 L 565.39, 300.138 L 547.3, 324.873 L 546.008, 326.534 L 534.379, 321.551 z "/>
<path style="fill:rgb(255, 0, 0);fill-opacity:0;fill-rule:evenodd;stroke:rgb(0, 129, 255);stroke-width:1;" d="M 803.507, 208.214 L 808.676, 201.2 L 827.319, 175.542 L 828.611, 175.542 L 831.195, 175.727 L 833.779, 176.281 L 835.072, 176.834 L 837.102, 178.126 L 838.025, 178.865 L 839.317, 180.711 L 820.305, 206.922 L 815.505, 213.198 L 803.507, 208.214 z "/>
<path style="fill:rgb(0, 255, 0);fill-opacity:0;fill-rule:evenodd;stroke:rgb(0, 129, 255);stroke-width:1;" d="M 733.18, 330.226 L 736.871, 325.242 L 753.853, 302.169 L 758.099, 304.015 L 758.283, 303.461 L 759.391, 302.538 L 760.868, 301.8 L 762.344, 301.615 L 763.267, 301.615 L 764.744, 301.8 L 766.59, 302.907 L 767.513, 304.199 L 767.697, 305.307 L 767.513, 306.784 L 748.869, 332.072 L 746.285, 335.764 L 741.855, 333.918 L 740.009, 336.502 L 736.133, 334.841 L 737.979, 332.257 L 733.18, 330.226 z "/>
<path style="fill:rgb(0, 0, 255);fill-opacity:0;fill-rule:evenodd;stroke:rgb(0, 129, 255);stroke-width:1;" d="M 409.045, 499.677 L 431.564, 468.666 L 447.254, 475.127 L 435.441, 491.555 L 431.195, 489.709 L 425.104, 498.016 L 420.858, 498.754 L 419.935, 498.385 L 416.797, 502.815 L 409.045, 499.677 z "/>
<path style="fill:rgb(255, 255, 0);fill-opacity:0;fill-rule:evenodd;stroke:rgb(0, 129, 255);stroke-width:1;" d="M 735.579, 647.9 L 740.563, 641.071 L 761.237, 612.644 L 772.497, 617.443 L 753.299, 643.839 L 747.024, 652.515 L 735.579, 647.9 z "/>
<path style="fill:rgb(255, 0, 0);fill-opacity:0;fill-rule:evenodd;stroke:rgb(0, 129, 255);stroke-width:1;" d="M 535.302, 396.493 L 555.238, 368.989 L 568.159, 374.527 L 558.191, 388.186 L 542.501, 409.599 L 536.964, 407.199 L 542.686, 399.446 L 535.302, 396.493 z "/>
<path style="fill:rgb(0, 255, 0);fill-opacity:0;fill-rule:evenodd;stroke:rgb(0, 129, 255);stroke-width:1;" d="M 519.428, 620.028 L 535.671, 597.323 L 553.207, 604.707 L 536.964, 627.227 L 519.428, 620.028 z "/>
<path style="fill:rgb(0, 0, 255);fill-opacity:0;fill-rule:evenodd;stroke:rgb(0, 129, 255);stroke-width:1;" d="M 676.696, 381.726 L 699.954, 349.792 L 701.615, 347.577 L 707.891, 350.162 L 702.907, 356.991 L 709.368, 359.76 L 706.599, 363.821 L 689.432, 387.263 L 676.696, 381.726 z "/>
<path style="fill:rgb(255, 255, 0);fill-opacity:0;fill-rule:evenodd;stroke:rgb(0, 129, 255);stroke-width:1;" d="M 517.213, 398.892 L 517.951, 397.97 L 542.87, 363.821 L 555.238, 368.989 L 535.302, 396.493 L 529.026, 393.724 L 523.304, 401.477 L 517.213, 398.892 z "/>
<path style="fill:rgb(255, 0, 0);fill-opacity:0;fill-rule:evenodd;stroke:rgb(0, 129, 255);stroke-width:1;" d="M 751.084, 359.76 L 753.299, 356.622 L 756.991, 356.068 L 759.391, 356.991 L 760.868, 355.145 L 768.251, 354.038 L 800.738, 367.882 L 793.539, 377.665 L 751.084, 359.76 z "/>
<path style="fill:rgb(0, 255, 0);fill-opacity:0;fill-rule:evenodd;stroke:rgb(0, 129, 255);stroke-width:1;" d="M 742.409, 788.925 L 744.439, 785.971 L 753.853, 773.235 L 762.898, 760.868 L 770.835, 764.19 L 771.943, 766.036 L 770.281, 768.251 L 774.342, 769.912 L 756.253, 794.832 L 742.409, 788.925 z "/>
<path style="fill:rgb(0, 0, 255);fill-opacity:0;fill-rule:evenodd;stroke:rgb(0, 129, 255);stroke-width:1;" d="M 552.653, 477.896 L 571.297, 452.054 L 578.496, 455.007 L 582.926, 448.916 L 588.832, 451.315 L 565.944, 483.433 L 552.653, 477.896 z "/>
<path style="fill:rgb(255, 255, 0);fill-opacity:0;fill-rule:evenodd;stroke:rgb(0, 129, 255);stroke-width:1;" d="M 840.055, 215.228 L 859.068, 189.017 L 860.36, 188.832 L 862.76, 189.017 L 865.159, 189.571 L 866.267, 189.94 L 867.374, 190.494 L 869.22, 191.601 L 869.958, 192.34 L 871.066, 194.001 L 858.699, 211.168 L 846.331, 228.15 L 840.425, 225.565 L 846.147, 217.628 L 840.055, 215.228 z "/>
<path style="fill:rgb(255, 0, 0);fill-opacity:0;fill-rule:evenodd;stroke:rgb(0, 129, 255);stroke-width:1;" d="M 504.292, 308.814 L 514.075, 295.708 L 515.182, 296.262 L 519.243, 290.725 L 522.381, 290.54 L 525.888, 292.017 L 526.811, 290.725 L 538.256, 295.524 L 522.75, 316.567 L 504.292, 308.814 z "/>
<path style="fill:rgb(0, 255, 0);fill-opacity:0;fill-rule:evenodd;stroke:rgb(0, 129, 255);stroke-width:1;" d="M 526.811, 467.19 L 545.27, 441.347 L 553.207, 444.67 L 557.637, 438.394 L 562.99, 440.609 L 539.917, 472.727 L 526.811, 467.19 z "/>
<path style="fill:rgb(0, 0, 255);fill-opacity:0;fill-rule:evenodd;stroke:rgb(0, 129, 255);stroke-width:1;" d="M 842.64, 687.956 L 857.407, 667.651 L 865.528, 656.576 L 877.342, 661.375 L 860.545, 684.633 L 854.453, 692.94 L 842.64, 687.956 z "/>
<path style="fill:rgb(255, 255, 0);fill-opacity:0;fill-rule:evenodd;stroke:rgb(0, 129, 255);stroke-width:1;" d="M 579.049, 258.606 L 579.788, 257.314 L 597.323, 233.318 L 610.06, 238.671 L 591.232, 264.329 L 586.064, 271.527 L 580.711, 269.312 L 579.972, 267.836 L 584.956, 261.006 L 579.049, 258.606 z "/>
<path style="fill:rgb(255, 0, 0);fill-opacity:0;fill-rule:evenodd;stroke:rgb(0, 129, 255);stroke-width:1;" d="M 419.935, 578.865 L 436.179, 556.161 L 452.607, 562.99 L 436.364, 585.695 L 419.935, 578.865 z "/>
<path style="fill:rgb(0, 255, 0);fill-opacity:0;fill-rule:evenodd;stroke:rgb(0, 129, 255);stroke-width:1;" d="M 857.96, 400.738 L 864.79, 391.14 L 890.448, 401.846 L 902.815, 407.014 L 898.569, 412.737 L 899.308, 414.029 L 897.277, 416.982 L 857.96, 400.738 z "/>
<path style="fill:rgb(0, 0, 255);fill-opacity:0;fill-rule:evenodd;stroke:rgb(0, 129, 255);stroke-width:1;" d="M 606.553, 350.162 L 624.642, 325.427 L 631.657, 328.38 L 635.533, 323.027 L 641.994, 325.611 L 620.028, 355.699 L 606.553, 350.162 z "/>
<path style="fill:rgb(255, 255, 0);fill-opacity:0;fill-rule:evenodd;stroke:rgb(0, 129, 255);stroke-width:1;" d="M 486.756, 450.577 L 509.645, 418.459 L 515.551, 421.043 L 511.121, 427.134 L 518.136, 430.088 L 499.492, 455.93 L 486.756, 450.577 z "/>
<path style="fill:rgb(255, 0, 0);fill-opacity:0;fill-rule:evenodd;stroke:rgb(0, 129, 255);stroke-width:1;" d="M 635.164, 289.063 L 656.022, 260.821 L 668.943, 266.359 L 651.592, 289.986 L 648.085, 294.601 L 635.164, 289.063 z "/>
<path style="fill:rgb(0, 255, 0);fill-opacity:0;fill-rule:evenodd;stroke:rgb(0, 129, 255);stroke-width:1;" d="M 539.917, 472.727 L 562.99, 440.609 L 568.897, 443.009 L 564.467, 449.285 L 571.297, 452.054 L 552.653, 477.896 L 539.917, 472.727 z "/>
<path style="fill:rgb(0, 0, 255);fill-opacity:0;fill-rule:evenodd;stroke:rgb(0, 129, 255);stroke-width:1;" d="M 689.617, 771.943 L 711.767, 741.486 L 723.766, 746.47 L 715.828, 757.36 L 706.784, 769.912 L 701.615, 777.111 L 689.617, 771.943 z "/>
<path style="fill:rgb(255, 255, 0);fill-opacity:0;fill-rule:evenodd;stroke:rgb(0, 129, 255);stroke-width:1;" d="M 866.451, 155.976 L 884.91, 130.872 L 891.555, 121.827 L 902.077, 126.442 L 892.663, 139.179 L 877.157, 160.591 L 866.451, 155.976 z "/>
<path style="fill:rgb(255, 0, 0);fill-opacity:0;fill-rule:evenodd;stroke:rgb(0, 129, 255);stroke-width:1;" d="M 380.988, 505.768 L 388.186, 495.985 L 418.459, 508.722 L 419.566, 511.491 L 416.982, 514.998 L 426.765, 519.059 L 423.443, 523.489 L 420.305, 522.197 L 380.988, 505.768 z "/>
<path style="fill:rgb(0, 255, 0);fill-opacity:0;fill-rule:evenodd;stroke:rgb(0, 129, 255);stroke-width:1;" d="M 666.728, 761.421 L 689.802, 730.042 L 697.185, 733.18 L 695.893, 734.841 L 700.138, 736.502 L 678.357, 766.405 L 666.728, 761.421 z "/>
<path style="fill:rgb(0, 0, 255);fill-opacity:0;fill-rule:evenodd;stroke:rgb(0, 129, 255);stroke-width:1;" d="M 577.019, 488.048 L 590.863, 468.851 L 594.924, 470.512 L 598.616, 465.159 L 597.693, 464.79 L 605.261, 454.269 L 614.121, 457.776 L 588.832, 493.032 L 577.019, 488.048 z "/>
<path style="fill:rgb(255, 255, 0);fill-opacity:0;fill-rule:evenodd;stroke:rgb(0, 129, 255);stroke-width:1;" d="M 499.492, 455.93 L 518.136, 430.088 L 524.781, 432.856 L 529.211, 426.581 L 535.118, 428.98 L 512.044, 461.098 L 499.492, 455.93 z "/>
<path style="fill:rgb(255, 0, 0);fill-opacity:0;fill-rule:evenodd;stroke:rgb(0, 129, 255);stroke-width:1;" d="M 677.803, 766.959 L 678.357, 766.405 L 700.138, 736.502 L 711.767, 741.486 L 689.617, 771.943 L 677.803, 766.959 z "/>
<path style="fill:rgb(0, 255, 0);fill-opacity:0;fill-rule:evenodd;stroke:rgb(0, 129, 255);stroke-width:1;" d="M 371.758, 794.462 L 394.462, 763.267 L 407.014, 768.436 L 399.446, 778.957 L 388.74, 793.539 L 385.602, 792.247 L 384.495, 793.909 L 380.988, 792.432 L 377.665, 797.047 L 371.758, 794.462 z "/>
<path style="fill:rgb(0, 0, 255);fill-opacity:0;fill-rule:evenodd;stroke:rgb(0, 129, 255);stroke-width:1;" d="M 750.715, 257.499 L 768.62, 233.133 L 772.681, 234.795 L 783.203, 220.581 L 789.663, 223.35 L 761.237, 262.114 L 750.715, 257.499 z "/>
<path style="fill:rgb(255, 255, 0);fill-opacity:0;fill-rule:evenodd;stroke:rgb(0, 129, 255);stroke-width:1;" d="M 748.5, 363.083 L 751.084, 359.76 L 793.539, 377.665 L 786.894, 386.71 L 754.961, 373.235 L 752.377, 370.835 L 754.592, 367.882 L 750.162, 365.851 L 748.5, 363.083 z "/>
<path style="fill:rgb(255, 0, 0);fill-opacity:0;fill-rule:evenodd;stroke:rgb(0, 129, 255);stroke-width:1;" d="M 839.132, 427.134 L 845.408, 418.459 L 886.387, 435.441 L 893.77, 438.579 L 890.632, 442.824 L 874.942, 436.364 L 871.804, 440.794 L 839.132, 427.134 z "/>
<path style="fill:rgb(0, 255, 0);fill-opacity:0;fill-rule:evenodd;stroke:rgb(0, 129, 255);stroke-width:1;" d="M 796.308, 667.467 L 811.629, 646.239 L 818.643, 636.825 L 830.088, 641.624 L 822.335, 652.515 L 807.753, 672.266 L 796.308, 667.467 z "/>
<path style="fill:rgb(0, 0, 255);fill-opacity:0;fill-rule:evenodd;stroke:rgb(0, 129, 255);stroke-width:1;" d="M 451.131, 591.786 L 467.374, 569.082 L 468.297, 567.79 L 472.727, 567.236 L 480.48, 570.374 L 482.326, 573.512 L 481.403, 574.804 L 465.159, 597.508 L 451.131, 591.786 z "/>
<path style="fill:rgb(255, 255, 0);fill-opacity:0;fill-rule:evenodd;stroke:rgb(0, 129, 255);stroke-width:1;" d="M 491.74, 608.583 L 508.168, 585.695 L 513.89, 588.094 L 516.659, 584.033 L 524.965, 587.54 L 505.768, 614.305 L 491.74, 608.583 z "/>
<path style="fill:rgb(255, 0, 0);fill-opacity:0;fill-rule:evenodd;stroke:rgb(0, 129, 255);stroke-width:1;" d="M 436.917, 364.928 L 440.978, 355.33 L 458.329, 362.713 L 487.494, 375.081 L 484.356, 379.326 L 475.311, 375.45 L 472.174, 379.695 L 436.917, 364.928 z "/>
<path style="fill:rgb(0, 255, 0);fill-opacity:0;fill-rule:evenodd;stroke:rgb(0, 129, 255);stroke-width:1;" d="M 493.77, 388.186 L 500.231, 378.957 L 497.277, 377.85 L 496.539, 374.712 L 501.707, 367.328 L 501.154, 364.928 L 511.306, 350.9 L 524.042, 356.068 L 514.075, 369.912 L 499.492, 390.401 L 493.77, 388.186 z "/>
<path style="fill:rgb(0, 0, 255);fill-opacity:0;fill-rule:evenodd;stroke:rgb(0, 129, 255);stroke-width:1;" d="M 400.185, 491.186 L 400.369, 490.817 L 419.935, 463.867 L 431.564, 468.666 L 409.045, 499.677 L 403.507, 497.277 L 404.615, 495.801 L 400.554, 494.139 L 400.185, 491.186 z "/>
<path style="fill:rgb(255, 255, 0);fill-opacity:0;fill-rule:evenodd;stroke:rgb(0, 129, 255);stroke-width:1;" d="M 620.028, 355.699 L 641.994, 325.611 L 648.085, 328.196 L 644.024, 333.733 L 650.854, 336.502 L 633.318, 360.314 L 632.764, 361.237 L 620.028, 355.699 z "/>
<path style="fill:rgb(255, 0, 0);fill-opacity:0;fill-rule:evenodd;stroke:rgb(0, 129, 255);stroke-width:1;" d="M 565.944, 483.433 L 588.832, 451.315 L 591.048, 448.362 L 600.092, 452.054 L 592.34, 462.76 L 590.678, 462.021 L 587.171, 467.19 L 590.863, 468.851 L 577.019, 488.048 L 565.944, 483.433 z "/>
<path style="fill:rgb(0, 255, 0);fill-opacity:0;fill-rule:evenodd;stroke:rgb(0, 129, 255);stroke-width:1;" d="M 588.832, 493.032 L 614.121, 457.776 L 622.427, 461.283 L 613.013, 474.573 L 615.413, 475.681 L 599.723, 497.462 L 588.832, 493.032 z "/>
<path style="fill:rgb(0, 0, 255);fill-opacity:0;fill-rule:evenodd;stroke:rgb(0, 129, 255);stroke-width:1;" d="M 404.615, 572.589 L 420.858, 549.885 L 436.179, 556.161 L 419.935, 578.865 L 404.615, 572.589 z "/>
<path style="fill:rgb(255, 255, 0);fill-opacity:0;fill-rule:evenodd;stroke:rgb(0, 129, 255);stroke-width:1;" d="M 689.432, 387.263 L 706.599, 363.821 L 713.06, 366.59 L 717.12, 360.868 L 723.766, 363.636 L 722.289, 365.667 L 702.538, 392.801 L 689.432, 387.263 z "/>
<path style="fill:rgb(255, 0, 0);fill-opacity:0;fill-rule:evenodd;stroke:rgb(0, 129, 255);stroke-width:1;" d="M 484.541, 283.156 L 494.509, 269.497 L 498.2, 271.158 L 520.166, 280.388 L 513.706, 289.248 L 512.044, 288.509 L 508.537, 293.309 L 484.541, 283.156 z "/>
<path style="fill:rgb(0, 255, 0);fill-opacity:0;fill-rule:evenodd;stroke:rgb(0, 129, 255);stroke-width:1;" d="M 59.6216, 208.768 L 76.0498, 185.325 L 91.0014, 191.417 L 89.3401, 193.816 L 74.5731, 214.675 L 59.6216, 208.768 z "/>
<path style="fill:rgb(0, 0, 255);fill-opacity:0;fill-rule:evenodd;stroke:rgb(0, 129, 255);stroke-width:1;" d="M 433.041, 374.342 L 436.917, 364.928 L 472.174, 379.695 L 469.22, 383.756 L 481.034, 388.74 L 477.711, 393.17 L 460.36, 385.971 L 433.041, 374.342 z "/>
<path style="fill:rgb(255, 255, 0);fill-opacity:0;fill-rule:evenodd;stroke:rgb(0, 129, 255);stroke-width:1;" d="M 753.299, 643.839 L 772.497, 617.443 L 775.265, 613.567 L 786.71, 618.366 L 777.665, 630.734 L 768.251, 643.655 L 767.144, 644.947 L 764.559, 648.639 L 753.299, 643.839 z "/>
<path style="fill:rgb(255, 0, 0);fill-opacity:0;fill-rule:evenodd;stroke:rgb(0, 129, 255);stroke-width:1;" d="M 675.958, 299.954 L 693.124, 276.511 L 706.23, 282.049 L 699.954, 290.725 L 689.986, 304.384 L 685.556, 310.475 L 678.726, 307.522 L 682.234, 302.723 L 675.958, 299.954 z "/>
<path style="fill:rgb(0, 255, 0);fill-opacity:0;fill-rule:evenodd;stroke:rgb(0, 129, 255);stroke-width:1;" d="M 518.505, 244.024 L 518.874, 242.732 L 519.612, 241.44 L 520.904, 240.517 L 522.012, 240.148 L 523.489, 239.963 L 525.15, 240.148 L 528.288, 235.902 L 544.532, 242.916 L 556.345, 247.9 L 553.761, 251.223 L 555.607, 251.961 L 550.069, 259.529 L 520.166, 246.977 L 519.059, 245.87 L 518.505, 244.578 L 518.505, 244.024 z "/>
<path style="fill:rgb(0, 0, 255);fill-opacity:0;fill-rule:evenodd;stroke:rgb(0, 129, 255);stroke-width:1;" d="M 364.744, 782.833 L 382.649, 758.283 L 394.462, 763.267 L 371.758, 794.462 L 367.328, 792.617 L 368.989, 790.217 L 366.59, 787.079 L 364.744, 782.833 z "/>
<path style="fill:rgb(255, 255, 0);fill-opacity:0;fill-rule:evenodd;stroke:rgb(0, 129, 255);stroke-width:1;" d="M 0, 294.601 L 16.2437, 271.343 L 31.0106, 277.25 L 16.982, 297.37 L 14.5824, 300.692 L 0, 294.601 z "/>
<path style="fill:rgb(255, 0, 0);fill-opacity:0;fill-rule:evenodd;stroke:rgb(0, 129, 255);stroke-width:1;" d="M 547.3, 324.873 L 565.39, 300.138 L 572.035, 302.907 L 575.173, 298.662 L 581.08, 301.246 L 559.668, 330.226 L 547.3, 324.873 z "/>
<path style="fill:rgb(0, 255, 0);fill-opacity:0;fill-rule:evenodd;stroke:rgb(0, 129, 255);stroke-width:1;" d="M 702.538, 392.801 L 722.289, 365.667 L 733.18, 370.097 L 733.18, 373.235 L 732.072, 374.712 L 714.905, 397.97 L 702.538, 392.801 z "/>
<path style="fill:rgb(0, 0, 255);fill-opacity:0;fill-rule:evenodd;stroke:rgb(0, 129, 255);stroke-width:1;" d="M 436.364, 585.695 L 452.607, 562.99 L 467.374, 569.082 L 451.131, 591.786 L 436.364, 585.695 z "/>
<path style="fill:rgb(255, 255, 0);fill-opacity:0;fill-rule:evenodd;stroke:rgb(0, 129, 255);stroke-width:1;" d="M 478.449, 603.046 L 498.2, 575.542 L 505.03, 578.311 L 501.523, 583.11 L 508.168, 585.695 L 491.74, 608.583 L 478.449, 603.046 z "/>
<path style="fill:rgb(255, 0, 0);fill-opacity:0;fill-rule:evenodd;stroke:rgb(0, 129, 255);stroke-width:1;" d="M 660.637, 300.323 L 664.329, 295.339 L 681.68, 271.712 L 693.124, 276.511 L 675.958, 299.954 L 672.081, 305.307 L 660.637, 300.323 z "/>
<path style="fill:rgb(0, 255, 0);fill-opacity:0;fill-rule:evenodd;stroke:rgb(0, 129, 255);stroke-width:1;" d="M 522.75, 316.567 L 538.256, 295.524 L 541.578, 291.094 L 547.67, 293.678 L 552.284, 287.402 L 557.822, 289.802 L 534.379, 321.551 L 522.75, 316.567 z "/>
<path style="fill:rgb(0, 0, 255);fill-opacity:0;fill-rule:evenodd;stroke:rgb(0, 129, 255);stroke-width:1;" d="M 465.159, 597.508 L 481.403, 574.804 L 488.233, 577.573 L 491.555, 572.773 L 498.2, 575.542 L 478.449, 603.046 L 465.159, 597.508 z "/>
<path style="fill:rgb(255, 255, 0);fill-opacity:0;fill-rule:evenodd;stroke:rgb(0, 129, 255);stroke-width:1;" d="M 756.253, 794.832 L 774.342, 769.912 L 777.665, 771.389 L 778.034, 770.835 L 779.326, 769.912 L 780.803, 769.359 L 781.726, 769.174 L 783.203, 769.174 L 784.864, 769.543 L 786.156, 770.466 L 786.894, 771.389 L 787.263, 772.127 L 787.448, 773.235 L 787.263, 773.973 L 786.525, 775.081 L 768.436, 800 L 756.253, 794.832 z "/>
<path style="fill:rgb(255, 0, 0);fill-opacity:0;fill-rule:evenodd;stroke:rgb(0, 129, 255);stroke-width:1;" d="M 505.768, 614.305 L 524.965, 587.54 L 529.949, 589.571 L 526.996, 593.816 L 535.671, 597.323 L 519.428, 620.028 L 505.768, 614.305 z "/>
<path style="fill:rgb(0, 255, 0);fill-opacity:0;fill-rule:evenodd;stroke:rgb(0, 129, 255);stroke-width:1;" d="M 374.342, 515.182 L 380.988, 505.768 L 420.305, 522.197 L 417.905, 525.519 L 411.26, 522.75 L 407.014, 528.842 L 374.342, 515.182 z "/>
<path style="fill:rgb(0, 0, 255);fill-opacity:0;fill-rule:evenodd;stroke:rgb(0, 129, 255);stroke-width:1;" d="M 591.232, 264.329 L 610.06, 238.671 L 610.798, 238.856 L 612.275, 238.486 L 613.936, 238.302 L 614.675, 238.486 L 616.151, 239.225 L 617.259, 240.148 L 617.997, 241.255 L 617.997, 242.547 L 617.443, 243.839 L 618.182, 244.762 L 621.135, 246.054 L 603.784, 269.682 L 591.232, 264.329 z "/>
<path style="fill:rgb(255, 255, 0);fill-opacity:0;fill-rule:evenodd;stroke:rgb(0, 129, 255);stroke-width:1;" d="M 656.576, 370.097 L 674.296, 346.101 L 679.649, 348.316 L 683.71, 342.778 L 689.986, 345.547 L 668.389, 375.081 L 656.576, 370.097 z "/>
<path style="fill:rgb(255, 0, 0);fill-opacity:0;fill-rule:evenodd;stroke:rgb(0, 129, 255);stroke-width:1;" d="M 874.389, 534.01 L 881.957, 523.673 L 892.478, 509.275 L 905.215, 514.629 L 894.509, 529.395 L 887.125, 539.363 L 874.389, 534.01 z "/>
<path style="fill:rgb(0, 255, 0);fill-opacity:0;fill-rule:evenodd;stroke:rgb(0, 129, 255);stroke-width:1;" d="M 633.318, 360.314 L 650.854, 336.502 L 656.207, 338.717 L 660.268, 333.18 L 666.728, 335.764 L 665.805, 337.24 L 645.132, 365.298 L 633.318, 360.314 z "/>
<path style="fill:rgb(0, 0, 255);fill-opacity:0;fill-rule:evenodd;stroke:rgb(0, 129, 255);stroke-width:1;" d="M 711.398, 317.859 L 730.226, 292.201 L 741.855, 297.185 L 725.058, 320.258 L 721.551, 325.242 L 715.275, 322.658 L 716.936, 320.258 L 711.398, 317.859 z "/>
<path style="fill:rgb(255, 255, 0);fill-opacity:0;fill-rule:evenodd;stroke:rgb(0, 129, 255);stroke-width:1;" d="M 832.856, 435.81 L 839.132, 427.134 L 871.804, 440.794 L 868.666, 445.224 L 876.973, 448.731 L 874.019, 452.792 L 832.856, 435.81 z "/>
<path style="fill:rgb(255, 0, 0);fill-opacity:0;fill-rule:evenodd;stroke:rgb(0, 129, 255);stroke-width:1;" d="M 873.281, 612.46 L 889.709, 590.309 L 902.63, 595.847 L 883.802, 621.32 L 876.234, 618.182 L 878.819, 614.859 L 873.281, 612.46 z "/>
<path style="fill:rgb(0, 255, 0);fill-opacity:0;fill-rule:evenodd;stroke:rgb(0, 129, 255);stroke-width:1;" d="M 569.82, 247.162 L 584.033, 227.596 L 597.323, 233.318 L 579.788, 257.314 L 575.727, 257.13 L 571.85, 255.653 L 570.005, 253.069 L 573.327, 248.639 L 569.82, 247.162 z "/>
<path style="fill:rgb(0, 0, 255);fill-opacity:0;fill-rule:evenodd;stroke:rgb(0, 129, 255);stroke-width:1;" d="M 594.924, 345.178 L 616.521, 315.828 L 622.058, 318.228 L 618.551, 322.843 L 624.642, 325.427 L 606.553, 350.162 L 594.924, 345.178 z "/>
<path style="fill:rgb(255, 255, 0);fill-opacity:0;fill-rule:evenodd;stroke:rgb(0, 129, 255);stroke-width:1;" d="M 733.733, 182.187 L 759.391, 147.116 L 769.543, 151.361 L 768.436, 152.838 L 751.084, 176.834 L 746.101, 174.804 L 739.086, 184.402 L 733.733, 182.187 z "/>
<path style="fill:rgb(255, 0, 0);fill-opacity:0;fill-rule:evenodd;stroke:rgb(0, 129, 255);stroke-width:1;" d="M 626.673, 279.465 L 644.024, 255.838 L 656.022, 260.821 L 635.164, 289.063 L 629.257, 286.479 L 632.58, 281.864 L 626.673, 279.465 z "/>
<path style="fill:rgb(0, 255, 0);fill-opacity:0;fill-rule:evenodd;stroke:rgb(0, 129, 255);stroke-width:1;" d="M 668.389, 375.081 L 689.986, 345.547 L 699.954, 349.792 L 676.696, 381.726 L 672.081, 379.88 L 671.527, 376.373 L 668.389, 375.081 z "/>
<path style="fill:rgb(0, 0, 255);fill-opacity:0;fill-rule:evenodd;stroke:rgb(0, 129, 255);stroke-width:1;" d="M 583.664, 340.378 L 584.033, 339.64 L 601.754, 315.644 L 606.737, 317.859 L 610.245, 313.06 L 616.521, 315.828 L 594.924, 345.178 L 583.664, 340.378 z "/>
<path style="fill:rgb(255, 255, 0);fill-opacity:0;fill-rule:evenodd;stroke:rgb(0, 129, 255);stroke-width:1;" d="M 882.51, 363.636 L 888.048, 356.068 L 890.632, 355.884 L 919.612, 367.882 L 912.229, 378.034 L 882.88, 365.851 L 882.51, 363.636 z "/>
<path style="fill:rgb(255, 0, 0);fill-opacity:0;fill-rule:evenodd;stroke:rgb(0, 129, 255);stroke-width:1;" d="M 603.784, 269.682 L 621.135, 246.054 L 632.764, 251.038 L 615.413, 274.665 L 611.721, 279.834 L 605.445, 277.065 L 609.137, 272.081 L 603.784, 269.682 z "/>
<path style="fill:rgb(0, 255, 0);fill-opacity:0;fill-rule:evenodd;stroke:rgb(0, 129, 255);stroke-width:1;" d="M 820.305, 206.922 L 839.317, 180.711 L 842.824, 180.711 L 847.808, 182.741 L 849.654, 184.956 L 830.457, 211.168 L 826.027, 217.443 L 821.597, 215.598 L 826.211, 209.322 L 820.305, 206.922 z "/>
<path style="fill:rgb(0, 0, 255);fill-opacity:0;fill-rule:evenodd;stroke:rgb(0, 129, 255);stroke-width:1;" d="M 728.934, 248.269 L 747.024, 223.904 L 752.93, 226.304 L 756.807, 221.135 L 762.16, 223.35 L 740.194, 253.069 L 728.934, 248.269 z "/>
<path style="fill:rgb(255, 255, 0);fill-opacity:0;fill-rule:evenodd;stroke:rgb(0, 129, 255);stroke-width:1;" d="M 651.592, 289.986 L 668.943, 266.359 L 681.68, 271.712 L 664.329, 295.339 L 651.592, 289.986 z "/>
<path style="fill:rgb(255, 0, 0);fill-opacity:0;fill-rule:evenodd;stroke:rgb(0, 129, 255);stroke-width:1;" d="M 392.432, 567.605 L 410.337, 542.501 L 420.489, 546.562 L 420.858, 549.885 L 404.615, 572.589 L 392.432, 567.605 z "/>
<path style="fill:rgb(0, 255, 0);fill-opacity:0;fill-rule:evenodd;stroke:rgb(0, 129, 255);stroke-width:1;" d="M 855.745, 151.546 L 878.634, 120.351 L 883.987, 122.75 L 879.557, 128.657 L 884.91, 130.872 L 866.451, 155.976 L 855.745, 151.546 z "/>
<path style="fill:rgb(0, 0, 255);fill-opacity:0;fill-rule:evenodd;stroke:rgb(0, 129, 255);stroke-width:1;" d="M 645.132, 365.298 L 665.805, 337.24 L 671.158, 339.455 L 668.205, 343.516 L 674.296, 346.101 L 656.576, 370.097 L 645.132, 365.298 z "/>
<path style="fill:rgb(255, 255, 0);fill-opacity:0;fill-rule:evenodd;stroke:rgb(0, 129, 255);stroke-width:1;" d="M 743.886, 394.462 L 751.454, 383.941 L 780.065, 396.124 L 772.497, 406.461 L 744.255, 394.647 L 743.886, 394.462 z "/>
<path style="fill:rgb(255, 0, 0);fill-opacity:0;fill-rule:evenodd;stroke:rgb(0, 129, 255);stroke-width:1;" d="M 615.413, 274.665 L 632.764, 251.038 L 644.024, 255.838 L 626.673, 279.465 L 623.166, 284.264 L 616.89, 281.495 L 620.397, 276.696 L 615.413, 274.665 z "/>
<path style="fill:rgb(0, 255, 0);fill-opacity:0;fill-rule:evenodd;stroke:rgb(0, 129, 255);stroke-width:1;" d="M 748.869, 332.072 L 767.513, 306.784 L 770.651, 305.307 L 771.758, 305.307 L 773.973, 305.676 L 775.819, 306.599 L 777.48, 307.707 L 778.219, 308.445 L 779.142, 309.922 L 759.76, 336.502 L 748.869, 332.072 z "/>
<path style="fill:rgb(0, 0, 255);fill-opacity:0;fill-rule:evenodd;stroke:rgb(0, 129, 255);stroke-width:1;" d="M 748.685, 180.157 L 751.084, 176.834 L 768.436, 152.838 L 779.142, 157.453 L 770.097, 170.005 L 759.391, 184.587 L 748.685, 180.157 z "/>
<path style="fill:rgb(255, 255, 0);fill-opacity:0;fill-rule:evenodd;stroke:rgb(0, 129, 255);stroke-width:1;" d="M 876.604, 464.052 L 893.032, 441.163 L 898.754, 443.563 L 902.815, 438.025 L 907.983, 440.24 L 887.679, 468.482 L 883.249, 466.82 L 882.51, 467.743 L 880.111, 468.851 L 876.788, 467.374 L 876.604, 464.052 z "/>
<path style="fill:rgb(255, 0, 0);fill-opacity:0;fill-rule:evenodd;stroke:rgb(0, 129, 255);stroke-width:1;" d="M 512.229, 251.592 L 512.229, 250.115 L 512.967, 248.823 L 513.521, 248.269 L 514.813, 247.347 L 516.474, 246.608 L 518.32, 246.424 L 519.243, 246.608 L 520.166, 246.977 L 550.069, 259.529 L 550.808, 259.898 L 547.854, 264.144 L 556.345, 267.651 L 557.453, 269.312 L 555.607, 271.712 L 513.706, 253.992 L 512.783, 252.884 L 512.229, 251.592 z "/>
<path style="fill:rgb(0, 255, 0);fill-opacity:0;fill-rule:evenodd;stroke:rgb(0, 129, 255);stroke-width:1;" d="M 750.9, 378.588 L 754.961, 373.235 L 786.894, 386.71 L 780.065, 396.124 L 751.454, 383.941 L 752.93, 382.28 L 750.9, 378.588 z "/>
<path style="fill:rgb(0, 0, 255);fill-opacity:0;fill-rule:evenodd;stroke:rgb(0, 129, 255);stroke-width:1;" d="M 559.668, 330.226 L 581.08, 301.246 L 586.248, 303.461 L 583.295, 307.522 L 588.648, 309.922 L 570.928, 334.102 L 570.558, 334.841 L 559.668, 330.226 z "/>
<path style="fill:rgb(255, 255, 0);fill-opacity:0;fill-rule:evenodd;stroke:rgb(0, 129, 255);stroke-width:1;" d="M 834.887, 750.715 L 850.946, 728.565 L 852.238, 726.719 L 864.236, 731.703 L 846.701, 755.884 L 834.887, 750.715 z "/>
<path style="fill:rgb(255, 0, 0);fill-opacity:0;fill-rule:evenodd;stroke:rgb(0, 129, 255);stroke-width:1;" d="M 887.679, 468.482 L 907.983, 440.24 L 914.444, 442.824 L 910.568, 448.362 L 914.998, 450.208 L 898.754, 473.096 L 887.679, 468.482 z "/>
<path style="fill:rgb(0, 255, 0);fill-opacity:0;fill-rule:evenodd;stroke:rgb(0, 129, 255);stroke-width:1;" d="M 714.905, 397.97 L 732.072, 374.712 L 733.733, 375.265 L 737.794, 375.45 L 740.194, 378.034 L 740.748, 381.357 L 736.133, 387.633 L 738.902, 388.74 L 735.764, 392.986 L 728.011, 403.507 L 714.905, 397.97 z "/>
<path style="fill:rgb(0, 0, 255);fill-opacity:0;fill-rule:evenodd;stroke:rgb(0, 129, 255);stroke-width:1;" d="M 836.917, 143.424 L 846.147, 131.057 L 859.806, 112.413 L 865.159, 114.629 L 860.729, 120.72 L 865.159, 122.566 L 846.885, 147.67 L 836.917, 143.424 z "/>
<path style="fill:rgb(255, 255, 0);fill-opacity:0;fill-rule:evenodd;stroke:rgb(0, 129, 255);stroke-width:1;" d="M 740.194, 253.069 L 762.16, 223.35 L 766.405, 225.196 L 762.529, 230.365 L 768.62, 233.133 L 750.715, 257.499 L 740.194, 253.069 z "/>
<path style="fill:rgb(255, 0, 0);fill-opacity:0;fill-rule:evenodd;stroke:rgb(0, 129, 255);stroke-width:1;" d="M 846.701, 755.884 L 864.236, 731.703 L 875.865, 736.687 L 858.514, 760.683 L 846.701, 755.884 z "/>
<path style="fill:rgb(0, 255, 0);fill-opacity:0;fill-rule:evenodd;stroke:rgb(0, 129, 255);stroke-width:1;" d="M 771.389, 185.51 L 790.032, 159.852 L 799.815, 164.098 L 778.034, 193.816 L 776.742, 195.478 L 771.574, 193.263 L 775.819, 187.356 L 771.389, 185.51 z "/>
<path style="fill:rgb(0, 0, 255);fill-opacity:0;fill-rule:evenodd;stroke:rgb(0, 129, 255);stroke-width:1;" d="M 708.629, 239.594 L 715.09, 230.918 L 726.165, 215.782 L 726.719, 215.228 L 732.441, 217.628 L 736.317, 212.46 L 740.932, 214.305 L 718.966, 244.024 L 708.629, 239.594 z "/>
<path style="fill:rgb(255, 255, 0);fill-opacity:0;fill-rule:evenodd;stroke:rgb(0, 129, 255);stroke-width:1;" d="M 679.465, 471.804 L 682.049, 468.297 L 685.556, 467.743 L 686.664, 466.082 L 697.37, 470.697 L 712.506, 477.157 L 705.122, 487.31 L 684.264, 478.449 L 679.649, 476.419 L 680.941, 474.758 L 679.465, 471.804 z "/>
<path style="fill:rgb(255, 0, 0);fill-opacity:0;fill-rule:evenodd;stroke:rgb(0, 129, 255);stroke-width:1;" d="M 767.328, 352.192 L 770.651, 347.946 L 778.403, 351.084 L 780.803, 347.946 L 807.199, 359.022 L 800.738, 367.882 L 768.251, 354.038 L 767.328, 352.192 z "/>
<path style="fill:rgb(0, 255, 0);fill-opacity:0;fill-rule:evenodd;stroke:rgb(0, 129, 255);stroke-width:1;" d="M 795.201, 203.23 L 818.09, 171.666 L 827.319, 175.542 L 808.676, 201.2 L 805.907, 200.092 L 801.661, 205.999 L 795.201, 203.23 z "/>
<path style="fill:rgb(0, 0, 255);fill-opacity:0;fill-rule:evenodd;stroke:rgb(0, 129, 255);stroke-width:1;" d="M 725.058, 320.258 L 741.855, 297.185 L 753.853, 302.169 L 736.871, 325.242 L 725.058, 320.258 z "/>
<path style="fill:rgb(255, 255, 0);fill-opacity:0;fill-rule:evenodd;stroke:rgb(0, 129, 255);stroke-width:1;" d="M 757.36, 187.356 L 759.391, 184.587 L 770.097, 170.005 L 779.142, 157.453 L 780.434, 155.791 L 790.032, 159.852 L 771.389, 185.51 L 766.036, 183.295 L 761.79, 189.202 L 757.36, 187.356 z "/>
<path style="fill:rgb(255, 0, 0);fill-opacity:0;fill-rule:evenodd;stroke:rgb(0, 129, 255);stroke-width:1;" d="M 557.084, 239.594 L 570.189, 221.874 L 584.033, 227.596 L 569.82, 247.162 L 566.497, 246.977 L 562.252, 244.947 L 559.668, 242.732 L 560.775, 241.255 L 557.084, 239.594 z "/>
<path style="fill:rgb(0, 255, 0);fill-opacity:0;fill-rule:evenodd;stroke:rgb(0, 129, 255);stroke-width:1;" d="M 778.034, 193.816 L 799.815, 164.098 L 808.86, 167.79 L 790.401, 193.263 L 787.263, 197.508 L 778.034, 193.816 z "/>
<path style="fill:rgb(0, 0, 255);fill-opacity:0;fill-rule:evenodd;stroke:rgb(0, 129, 255);stroke-width:1;" d="M 862.575, 608.03 L 865.713, 603.784 L 880.111, 584.033 L 883.064, 579.972 L 888.233, 582.187 L 884.172, 587.91 L 889.709, 590.309 L 873.281, 612.46 L 862.575, 608.03 z "/>
<path style="fill:rgb(255, 255, 0);fill-opacity:0;fill-rule:evenodd;stroke:rgb(0, 129, 255);stroke-width:1;" d="M 718.966, 244.024 L 740.932, 214.305 L 745.362, 216.151 L 741.486, 221.504 L 747.024, 223.904 L 728.934, 248.269 L 718.966, 244.024 z "/>
<path style="fill:rgb(255, 0, 0);fill-opacity:0;fill-rule:evenodd;stroke:rgb(0, 129, 255);stroke-width:1;" d="M 860.545, 684.633 L 877.342, 661.375 L 888.971, 666.359 L 871.989, 689.432 L 860.545, 684.633 z "/>
<path style="fill:rgb(0, 255, 0);fill-opacity:0;fill-rule:evenodd;stroke:rgb(0, 129, 255);stroke-width:1;" d="M 733.918, 630.918 L 743.701, 617.628 L 750.531, 608.214 L 761.237, 612.644 L 740.563, 641.071 L 736.687, 639.409 L 740.748, 633.872 L 733.918, 630.918 z "/>
<path style="fill:rgb(0, 0, 255);fill-opacity:0;fill-rule:evenodd;stroke:rgb(0, 129, 255);stroke-width:1;" d="M 790.032, 201.015 L 794.462, 194.924 L 790.401, 193.263 L 808.86, 167.79 L 818.09, 171.666 L 795.201, 203.23 L 790.032, 201.015 z "/>
<path style="fill:rgb(255, 255, 0);fill-opacity:0;fill-rule:evenodd;stroke:rgb(0, 129, 255);stroke-width:1;" d="M 881.034, 694.97 L 900.231, 668.574 L 910.198, 672.635 L 891.001, 699.216 L 881.034, 694.97 z "/>
<path style="fill:rgb(255, 0, 0);fill-opacity:0;fill-rule:evenodd;stroke:rgb(0, 129, 255);stroke-width:1;" d="M 582.926, 773.973 L 585.325, 770.466 L 590.494, 768.805 L 617.628, 780.249 L 610.983, 789.109 L 584.033, 777.665 L 582.926, 773.973 z "/>
<path style="fill:rgb(0, 255, 0);fill-opacity:0;fill-rule:evenodd;stroke:rgb(0, 129, 255);stroke-width:1;" d="M 871.066, 690.725 L 871.989, 689.432 L 888.971, 666.359 L 892.847, 665.251 L 900.231, 668.574 L 881.034, 694.97 L 871.066, 690.725 z "/>
<path style="fill:rgb(0, 0, 255);fill-opacity:0;fill-rule:evenodd;stroke:rgb(0, 129, 255);stroke-width:1;" d="M 846.885, 147.67 L 865.159, 122.566 L 869.036, 124.227 L 873.466, 118.136 L 878.634, 120.351 L 855.745, 151.546 L 846.885, 147.67 z "/>
<path style="fill:rgb(255, 255, 0);fill-opacity:0;fill-rule:evenodd;stroke:rgb(0, 129, 255);stroke-width:1;" d="M 778.772, 347.024 L 782.28, 342.224 L 784.126, 342.963 L 784.679, 342.224 L 789.663, 342.224 L 791.694, 339.64 L 814.398, 349.239 L 807.199, 359.022 L 780.803, 347.946 L 778.772, 347.024 z "/>
<path style="fill:rgb(255, 0, 0);fill-opacity:0;fill-rule:evenodd;stroke:rgb(0, 129, 255);stroke-width:1;" d="M 830.457, 211.168 L 849.654, 184.956 L 852.976, 184.956 L 857.222, 186.802 L 859.068, 189.017 L 840.055, 215.228 L 830.457, 211.168 z "/>
<path style="fill:rgb(0, 255, 0);fill-opacity:0;fill-rule:evenodd;stroke:rgb(0, 129, 255);stroke-width:1;" d="M 759.76, 336.502 L 779.142, 309.922 L 781.172, 309.737 L 782.28, 309.737 L 783.387, 309.922 L 785.233, 310.475 L 786.156, 311.029 L 787.817, 312.137 L 788.925, 313.429 L 789.294, 314.167 L 778.588, 328.749 L 773.973, 335.025 L 771.204, 336.317 L 767.328, 334.656 L 765.667, 336.687 L 762.344, 337.61 L 759.76, 336.502 z "/>
<path style="fill:rgb(0, 0, 255);fill-opacity:0;fill-rule:evenodd;stroke:rgb(0, 129, 255);stroke-width:1;" d="M 877.157, 160.591 L 892.663, 139.179 L 896.724, 141.024 L 900.231, 136.225 L 906.322, 138.994 L 887.31, 164.836 L 877.157, 160.591 z "/>
<path style="fill:rgb(255, 255, 0);fill-opacity:0;fill-rule:evenodd;stroke:rgb(0, 129, 255);stroke-width:1;" d="M 576.096, 785.418 L 582.187, 776.927 L 584.033, 777.665 L 610.983, 789.109 L 604.892, 797.6 L 576.096, 785.418 z "/>
<path style="fill:rgb(255, 0, 0);fill-opacity:0;fill-rule:evenodd;stroke:rgb(0, 129, 255);stroke-width:1;" d="M 876.973, 374.342 L 882.88, 365.851 L 912.229, 378.034 L 909.46, 381.726 L 907.983, 384.126 L 905.03, 385.233 L 902.446, 384.126 L 902.077, 384.679 L 876.973, 374.342 z "/>
<path style="fill:rgb(0, 255, 0);fill-opacity:0;fill-rule:evenodd;stroke:rgb(0, 129, 255);stroke-width:1;" d="M 864.79, 391.14 L 871.066, 382.649 L 895.985, 392.986 L 897.647, 393.724 L 899.123, 396.308 L 895.985, 400.554 L 890.448, 401.846 L 864.79, 391.14 z "/>
<path style="fill:rgb(0, 0, 255);fill-opacity:0;fill-rule:evenodd;stroke:rgb(0, 129, 255);stroke-width:1;" d="M 590.494, 768.805 L 596.954, 759.945 L 614.305, 767.144 L 624.089, 771.204 L 617.628, 780.249 L 590.494, 768.805 z "/>
<path style="fill:rgb(255, 255, 0);fill-opacity:0;fill-rule:evenodd;stroke:rgb(0, 129, 255);stroke-width:1;" d="M 798.523, 330.226 L 800.369, 327.826 L 806.091, 319.705 L 828.98, 329.303 L 821.228, 339.825 L 798.523, 330.226 z "/>
<path style="fill:rgb(255, 0, 0);fill-opacity:0;fill-rule:evenodd;stroke:rgb(0, 129, 255);stroke-width:1;" d="M 791.694, 339.64 L 798.523, 330.226 L 821.228, 339.825 L 814.398, 349.239 L 791.694, 339.64 z "/>
<path style="fill:rgb(0, 255, 0);fill-opacity:0;fill-rule:evenodd;stroke:rgb(0, 129, 255);stroke-width:1;" d="M 887.31, 164.836 L 906.322, 138.994 L 910.752, 140.84 L 907.983, 144.532 L 912.413, 146.562 L 896.17, 168.528 L 887.31, 164.836 z "/>
<path style="fill:rgb(0, 0, 255);fill-opacity:0;fill-rule:evenodd;stroke:rgb(0, 129, 255);stroke-width:1;" d="M 871.066, 382.649 L 876.973, 374.342 L 902.077, 384.679 L 895.985, 392.986 L 871.066, 382.649 z "/>
<path style="fill:rgb(255, 255, 0);fill-opacity:0;fill-rule:evenodd;stroke:rgb(0, 129, 255);stroke-width:1;" d="M 778.588, 328.749 L 789.294, 314.167 L 790.217, 312.875 L 806.091, 319.705 L 800.369, 327.826 L 793.909, 325.058 L 789.663, 330.78 L 785.971, 331.887 L 778.588, 328.749 z "/>
<path style="fill:rgb(255, 0, 0);fill-opacity:0;fill-rule:evenodd;stroke:rgb(0, 129, 255);stroke-width:1;" d="M 493.586, 399.631 L 499.492, 390.955 L 517.213, 397.97 L 511.306, 406.461 L 511.121, 406.645 L 493.586, 399.631 z "/>
<path style="fill:rgb(0, 255, 0);fill-opacity:0;fill-rule:evenodd;stroke:rgb(0, 129, 255);stroke-width:1;" d="M 369.174, 255.099 L 376.742, 245.87 L 388.925, 251.592 L 381.172, 261.006 L 369.174, 255.099 z "/>
<path style="fill:rgb(0, 0, 255);fill-opacity:0;fill-rule:evenodd;stroke:rgb(0, 129, 255);stroke-width:1;" d="M 736.502, 37.4712 L 753.853, 20.6737 L 775.45, 29.9031 L 780.988, 22.335 L 760.868, 13.844 L 775.265, 0 L 819.751, 18.8279 L 808.676, 34.1486 L 798.523, 29.7185 L 795.939, 33.4102 L 797.785, 34.3332 L 796.493, 35.9945 L 794.647, 35.2561 L 792.986, 37.2866 L 800.738, 40.6091 L 790.032, 55.0069 L 760.498, 42.6396 L 757.73, 46.3313 L 736.502, 37.4712 z "/>
</svg>