<?xml version="1.0" encoding="iso-8859-1" standalone="no"?>
<!DOCTYPE svg PUBLIC "-//W3C//DTD SVG 1.0//EN" "http://www.w3.org/TR/2001/REC-SVG-20010904/DTD/svg10.dtd">
<svg xmlns="http://www.w3.org/2000/svg" width="970" height="800">
<path style="fill:rgb(255, 0, 0);fill-opacity:0;fill-rule:evenodd;stroke:rgb(158, 0, 255);stroke-width:1;" d="M 234.13, 681.771 L 258.74, 646.851 L 261.401, 642.86 L 286.676, 653.17 L 305.633, 626.065 L 301.309, 624.236 L 312.949, 607.94 L 443.983, 661.318 L 445.812, 667.637 L 389.773, 747.287 L 383.288, 747.786 L 240.948, 689.753 L 243.775, 685.596 L 234.13, 681.771 z "/>
<path style="fill:rgb(0, 255, 0);fill-opacity:0;fill-rule:evenodd;stroke:rgb(158, 0, 255);stroke-width:1;" d="M 709.541, 745.957 L 713.698, 740.303 L 732.155, 714.862 L 733.652, 712.866 L 737.809, 707.046 L 809.811, 737.477 L 812.471, 733.818 L 814.134, 731.657 L 816.296, 728.497 L 826.439, 714.695 L 830.43, 709.208 L 839.243, 697.069 L 895.448, 720.848 L 837.747, 800 L 709.541, 745.957 z "/>
<path style="fill:rgb(0, 0, 255);fill-opacity:0;fill-rule:evenodd;stroke:rgb(158, 0, 255);stroke-width:1;" d="M 810.809, 653.004 L 812.139, 651.341 L 814.966, 647.516 L 819.622, 641.031 L 822.781, 636.874 L 836.915, 617.585 L 839.909, 613.261 L 863.854, 623.238 L 868.51, 616.92 L 870.173, 614.592 L 871.835, 612.264 L 874.496, 608.605 L 878.154, 603.783 L 883.642, 596.3 L 886.801, 591.81 L 887.965, 590.148 L 890.293, 586.988 L 892.787, 583.496 L 907.753, 589.815 L 970.775, 616.421 L 933.361, 667.138 L 928.539, 665.142 L 922.719, 662.648 L 912.575, 658.325 L 907.919, 656.496 L 902.099, 654.001 L 895.947, 651.341 L 891.623, 649.512 L 884.473, 646.518 L 875.494, 658.824 L 872.334, 663.147 L 867.512, 669.632 L 864.851, 673.457 L 863.521, 675.286 L 810.809, 653.004 z "/>
<path style="fill:rgb(255, 255, 0);fill-opacity:0;fill-rule:evenodd;stroke:rgb(158, 0, 255);stroke-width:1;" d="M 722.012, 563.542 L 727.832, 555.56 L 745.791, 531.116 L 751.112, 523.633 L 775.39, 533.943 L 805.487, 546.747 L 837.414, 560.05 L 867.013, 572.688 L 892.787, 583.496 L 890.293, 586.988 L 887.965, 590.148 L 886.801, 591.81 L 883.642, 596.3 L 878.154, 603.783 L 874.496, 608.605 L 871.835, 612.264 L 870.173, 614.592 L 868.51, 616.92 L 863.854, 623.238 L 839.909, 613.261 L 823.114, 605.945 L 761.422, 580.004 L 722.012, 563.542 z "/>
<path style="fill:rgb(255, 0, 0);fill-opacity:0;fill-rule:evenodd;stroke:rgb(158, 0, 255);stroke-width:1;" d="M 693.078, 603.284 L 720.515, 565.537 L 797.506, 597.963 L 795.843, 600.125 L 836.915, 617.585 L 822.781, 636.874 L 819.622, 641.031 L 814.966, 647.516 L 812.139, 651.341 L 810.809, 653.004 L 797.173, 647.184 L 806.651, 634.38 L 802.661, 632.717 L 804.323, 631.22 L 804.989, 630.389 L 806.153, 628.726 L 806.485, 627.728 L 806.818, 625.899 L 806.818, 624.901 L 806.319, 622.906 L 805.487, 621.077 L 804.157, 619.414 L 802.494, 618.084 L 800.499, 616.92 L 799.335, 616.421 L 798.171, 615.922 L 795.843, 615.423 L 793.349, 615.257 L 792.018, 615.423 L 789.524, 615.756 L 788.36, 616.088 L 786.032, 617.086 L 785.034, 617.585 L 784.037, 618.25 L 782.54, 619.746 L 781.21, 621.409 L 780.378, 623.238 L 779.547, 622.74 L 770.069, 635.876 L 693.078, 603.284 z "/>
<path style="fill:rgb(0, 255, 0);fill-opacity:0;fill-rule:evenodd;stroke:rgb(158, 0, 255);stroke-width:1;" d="M 89.1291, 584.66 L 126.211, 531.948 L 193.224, 559.218 L 174.101, 586.157 L 163.958, 600.457 L 155.144, 596.965 L 147.163, 608.273 L 89.1291, 584.66 z "/>
<path style="fill:rgb(0, 0, 255);fill-opacity:0;fill-rule:evenodd;stroke:rgb(158, 0, 255);stroke-width:1;" d="M 141.176, 635.045 L 150.987, 621.077 L 151.32, 620.412 L 169.944, 627.894 L 180.919, 612.43 L 183.413, 608.772 L 184.411, 607.608 L 186.905, 603.949 L 187.903, 602.619 L 190.397, 598.961 L 191.395, 597.63 L 193.889, 594.138 L 193.224, 593.972 L 188.402, 591.977 L 186.739, 591.312 L 181.916, 589.316 L 180.254, 588.651 L 175.598, 586.656 L 174.101, 586.157 L 193.224, 559.218 L 195.386, 560.05 L 201.206, 562.544 L 202.868, 563.209 L 208.855, 565.704 L 210.684, 566.369 L 213.843, 567.699 L 216.836, 568.863 L 218.666, 569.694 L 224.486, 572.022 L 226.315, 572.688 L 232.467, 575.348 L 233.798, 575.847 L 210.85, 607.94 L 203.534, 618.416 L 227.978, 628.726 L 231.802, 630.222 L 228.809, 634.546 L 209.021, 662.648 L 141.176, 635.045 z "/>
<path style="fill:rgb(255, 255, 0);fill-opacity:0;fill-rule:evenodd;stroke:rgb(158, 0, 255);stroke-width:1;" d="M 35.4188, 546.414 L 63.5211, 506.506 L 126.211, 531.948 L 89.1291, 584.66 L 83.4754, 592.808 L 71.0039, 610.434 L 69.3411, 612.762 L 57.3685, 607.94 L 65.8491, 595.968 L 86.1359, 567.034 L 35.4188, 546.414 z "/>
<path style="fill:rgb(255, 0, 0);fill-opacity:0;fill-rule:evenodd;stroke:rgb(158, 0, 255);stroke-width:1;" d="M 645.521, 668.634 L 675.12, 628.061 L 741.467, 655.83 L 728.663, 673.457 L 739.472, 677.946 L 732.821, 687.092 L 722.677, 701.06 L 709.541, 695.573 L 681.106, 683.6 L 653.669, 672.126 L 650.01, 670.464 L 645.521, 668.634 z "/>
<path style="fill:rgb(0, 255, 0);fill-opacity:0;fill-rule:evenodd;stroke:rgb(158, 0, 255);stroke-width:1;" d="M 768.905, 498.857 L 804.822, 449.636 L 806.651, 450.301 L 816.296, 454.459 L 827.77, 459.281 L 832.259, 461.276 L 840.075, 464.602 L 848.722, 468.26 L 843.068, 475.909 L 848.057, 478.071 L 846.061, 480.565 L 848.722, 481.729 L 845.23, 486.385 L 847.724, 487.383 L 844.565, 491.707 L 846.893, 492.704 L 843.234, 497.693 L 845.562, 498.691 L 841.738, 503.845 L 844.232, 504.843 L 836.25, 515.818 L 833.423, 514.654 L 827.105, 523.467 L 813.635, 517.813 L 810.975, 516.649 L 806.818, 514.82 L 803.991, 513.656 L 799.834, 511.993 L 796.841, 510.663 L 780.046, 503.513 L 770.567, 499.522 L 768.905, 498.857 z "/>
<path style="fill:rgb(0, 0, 255);fill-opacity:0;fill-rule:evenodd;stroke:rgb(158, 0, 255);stroke-width:1;" d="M 713.698, 740.303 L 732.155, 714.862 L 733.652, 712.866 L 807.982, 743.962 L 840.075, 757.431 L 825.442, 777.053 L 793.349, 764.082 L 787.529, 771.731 L 713.698, 740.303 z "/>
<path style="fill:rgb(255, 255, 0);fill-opacity:0;fill-rule:evenodd;stroke:rgb(158, 0, 255);stroke-width:1;" d="M 617.418, 707.213 L 645.521, 668.634 L 650.01, 670.464 L 653.669, 672.126 L 681.106, 683.6 L 709.541, 695.573 L 704.053, 703.055 L 700.727, 707.379 L 687.924, 725.005 L 684.432, 730.16 L 681.438, 734.151 L 617.418, 707.213 z "/>
<path style="fill:rgb(255, 0, 0);fill-opacity:0;fill-rule:evenodd;stroke:rgb(158, 0, 255);stroke-width:1;" d="M 620.578, 151.154 L 629.225, 138.682 L 634.047, 140.844 L 651.174, 116.4 L 683.101, 129.37 L 686.261, 130.7 L 694.575, 134.525 L 700.727, 147.994 L 696.238, 154.479 L 692.912, 159.135 L 676.949, 181.916 L 659.821, 175.099 L 624.236, 159.634 L 621.409, 158.304 L 625.068, 152.983 L 620.578, 151.154 z "/>
<path style="fill:rgb(0, 255, 0);fill-opacity:0;fill-rule:evenodd;stroke:rgb(158, 0, 255);stroke-width:1;" d="M 780.046, 503.513 L 783.205, 499.356 L 781.21, 498.358 L 810.975, 457.285 L 813.469, 458.283 L 816.296, 454.459 L 827.77, 459.281 L 832.259, 461.276 L 832.426, 463.604 L 836.084, 465.101 L 840.075, 464.602 L 848.722, 468.26 L 843.068, 475.909 L 848.057, 478.071 L 846.061, 480.565 L 848.722, 481.729 L 845.23, 486.385 L 847.724, 487.383 L 844.565, 491.707 L 846.893, 492.704 L 843.234, 497.693 L 845.562, 498.691 L 841.738, 503.845 L 844.232, 504.843 L 836.25, 515.818 L 833.423, 514.654 L 827.105, 523.467 L 813.635, 517.813 L 814.799, 516.317 L 810.975, 516.649 L 806.818, 514.82 L 807.815, 513.656 L 803.991, 513.656 L 799.834, 511.993 L 800.831, 510.663 L 796.841, 510.663 L 780.046, 503.513 z "/>
<path style="fill:rgb(0, 0, 255);fill-opacity:0;fill-rule:evenodd;stroke:rgb(158, 0, 255);stroke-width:1;" d="M 102.931, 703.887 L 127.707, 669.965 L 180.919, 692.58 L 150.488, 734.317 L 137.684, 728.83 L 139.015, 727.001 L 132.696, 724.34 L 133.195, 723.675 L 125.546, 720.515 L 106.09, 712.201 L 109.915, 706.88 L 102.931, 703.887 z "/>
<path style="fill:rgb(255, 255, 0);fill-opacity:0;fill-rule:evenodd;stroke:rgb(158, 0, 255);stroke-width:1;" d="M 824.777, 180.586 L 826.938, 177.926 L 830.929, 177.094 L 846.56, 155.144 L 845.23, 151.985 L 847.225, 149.158 L 851.549, 148.16 L 858.034, 139.181 L 856.537, 136.022 L 858.533, 133.028 L 863.189, 131.864 L 878.986, 110.081 L 878.154, 106.922 L 880.482, 104.261 L 884.473, 103.596 L 887.965, 105.425 L 888.797, 108.252 L 901.102, 113.407 L 904.926, 112.409 L 908.584, 113.906 L 909.915, 116.899 L 907.919, 119.726 L 904.095, 120.391 L 887.965, 143.006 L 888.963, 145.832 L 886.967, 148.493 L 883.642, 149.158 L 875.993, 159.634 L 876.658, 161.463 L 874.995, 164.124 L 872.334, 164.789 L 856.038, 187.57 L 856.205, 190.563 L 854.209, 193.39 L 850.218, 194.388 L 846.394, 192.725 L 845.23, 189.732 L 832.758, 184.577 L 829.433, 185.242 L 825.941, 183.579 L 824.777, 180.586 z "/>
<path style="fill:rgb(255, 0, 0);fill-opacity:0;fill-rule:evenodd;stroke:rgb(158, 0, 255);stroke-width:1;" d="M 166.618, 632.717 L 169.944, 627.894 L 180.919, 612.43 L 183.413, 608.772 L 184.411, 607.608 L 186.905, 603.949 L 187.903, 602.619 L 190.397, 598.961 L 191.395, 597.63 L 193.889, 594.138 L 193.224, 593.972 L 188.402, 591.977 L 186.739, 591.312 L 181.916, 589.316 L 180.254, 588.651 L 175.598, 586.656 L 174.101, 586.157 L 193.224, 559.218 L 195.386, 560.05 L 201.206, 562.544 L 202.868, 563.209 L 208.855, 565.704 L 210.684, 566.369 L 213.843, 567.699 L 216.836, 568.863 L 218.666, 569.694 L 224.486, 572.022 L 226.315, 572.688 L 232.467, 575.348 L 233.798, 575.847 L 210.85, 607.94 L 203.534, 618.416 L 200.873, 622.074 L 200.042, 623.238 L 197.381, 626.897 L 187.404, 641.197 L 185.741, 640.532 L 180.919, 638.537 L 179.256, 637.872 L 174.434, 635.876 L 172.771, 635.211 L 168.115, 633.382 L 166.618, 632.717 z "/>
<path style="fill:rgb(0, 255, 0);fill-opacity:0;fill-rule:evenodd;stroke:rgb(158, 0, 255);stroke-width:1;" d="M 755.103, 706.714 L 763.75, 694.908 L 794.513, 707.878 L 801.497, 698.233 L 770.734, 685.263 L 780.212, 672.293 L 839.243, 697.069 L 830.43, 709.208 L 826.439, 714.695 L 816.296, 728.497 L 814.134, 731.657 L 755.103, 706.714 z "/>
<path style="fill:rgb(0, 0, 255);fill-opacity:0;fill-rule:evenodd;stroke:rgb(158, 0, 255);stroke-width:1;" d="M 166.618, 632.717 L 169.944, 627.894 L 180.919, 612.43 L 182.914, 613.261 L 185.408, 609.603 L 183.413, 608.772 L 184.411, 607.608 L 186.406, 608.273 L 188.9, 604.781 L 186.905, 603.949 L 187.903, 602.619 L 189.898, 603.45 L 192.392, 599.792 L 190.397, 598.961 L 191.395, 597.63 L 193.39, 598.462 L 195.884, 594.97 L 193.889, 594.138 L 193.224, 593.972 L 194.222, 592.476 L 189.566, 590.48 L 188.402, 591.977 L 186.739, 591.312 L 187.736, 589.815 L 183.08, 587.82 L 181.916, 589.316 L 180.254, 588.651 L 181.251, 587.154 L 176.595, 585.325 L 175.598, 586.656 L 174.101, 586.157 L 193.224, 559.218 L 195.386, 560.05 L 194.222, 561.546 L 200.042, 564.041 L 201.206, 562.544 L 202.868, 563.209 L 201.871, 564.706 L 207.857, 567.034 L 208.855, 565.704 L 210.684, 566.369 L 209.686, 567.865 L 215.839, 570.36 L 216.836, 568.863 L 218.666, 569.694 L 217.668, 571.025 L 223.488, 573.519 L 224.486, 572.022 L 226.315, 572.688 L 225.317, 574.184 L 231.47, 576.678 L 232.467, 575.348 L 233.798, 575.847 L 210.85, 607.94 L 203.534, 618.416 L 201.538, 617.585 L 199.044, 621.243 L 200.873, 622.074 L 200.042, 623.238 L 198.046, 622.573 L 195.552, 626.232 L 197.381, 626.897 L 187.404, 641.197 L 185.741, 640.532 L 186.739, 639.036 L 181.916, 637.04 L 180.919, 638.537 L 179.256, 637.872 L 180.254, 636.375 L 175.431, 634.546 L 174.434, 635.876 L 172.771, 635.211 L 173.768, 633.714 L 169.112, 631.885 L 168.115, 633.382 L 166.618, 632.717 z "/>
<path style="fill:rgb(255, 255, 0);fill-opacity:0;fill-rule:evenodd;stroke:rgb(158, 0, 255);stroke-width:1;" d="M 57.5348, 696.903 L 69.3411, 680.773 L 79.6508, 666.805 L 89.1291, 653.669 L 127.707, 669.965 L 102.931, 703.887 L 98.9399, 709.208 L 96.1131, 708.044 L 93.2862, 712.035 L 84.4731, 708.21 L 69.0085, 701.725 L 57.5348, 696.903 z "/>
<path style="fill:rgb(255, 0, 0);fill-opacity:0;fill-rule:evenodd;stroke:rgb(158, 0, 255);stroke-width:1;" d="M 822.781, 636.874 L 836.915, 617.585 L 839.909, 613.261 L 863.854, 623.238 L 868.51, 616.92 L 908.917, 633.382 L 895.947, 651.341 L 891.623, 649.512 L 884.473, 646.518 L 875.494, 658.824 L 822.781, 636.874 z "/>
<path style="fill:rgb(0, 255, 0);fill-opacity:0;fill-rule:evenodd;stroke:rgb(158, 0, 255);stroke-width:1;" d="M 227.978, 628.726 L 235.627, 617.917 L 258.242, 585.658 L 298.483, 602.453 L 278.528, 630.555 L 271.877, 627.894 L 261.734, 642.361 L 231.802, 630.222 L 227.978, 628.726 z "/>
<path style="fill:rgb(0, 0, 255);fill-opacity:0;fill-rule:evenodd;stroke:rgb(158, 0, 255);stroke-width:1;" d="M 761.422, 580.004 L 767.242, 572.022 L 779.713, 555.061 L 794.679, 561.38 L 826.606, 574.849 L 841.405, 580.836 L 829.266, 597.464 L 823.114, 605.945 L 761.422, 580.004 z "/>
<path style="fill:rgb(255, 255, 0);fill-opacity:0;fill-rule:evenodd;stroke:rgb(158, 0, 255);stroke-width:1;" d="M 141.176, 635.045 L 150.987, 621.077 L 151.32, 620.412 L 169.944, 627.894 L 166.618, 632.717 L 168.115, 633.382 L 172.771, 635.211 L 174.434, 635.876 L 179.256, 637.872 L 180.919, 638.537 L 185.741, 640.532 L 187.404, 641.197 L 197.381, 626.897 L 200.042, 623.238 L 200.873, 622.074 L 203.534, 618.416 L 227.978, 628.726 L 231.802, 630.222 L 228.809, 634.546 L 209.021, 662.648 L 141.176, 635.045 z "/>
<path style="fill:rgb(255, 0, 0);fill-opacity:0;fill-rule:evenodd;stroke:rgb(158, 0, 255);stroke-width:1;" d="M 709.541, 745.957 L 713.698, 740.303 L 787.529, 771.731 L 833.423, 791.187 L 853.378, 762.918 L 855.872, 759.593 L 860.195, 753.773 L 865.683, 756.101 L 869.507, 750.613 L 879.651, 736.811 L 883.475, 731.49 L 877.988, 729.162 L 882.145, 723.342 L 884.639, 720.017 L 839.243, 700.894 L 836.749, 704.219 L 832.426, 710.039 L 830.43, 709.208 L 839.243, 697.069 L 895.448, 720.848 L 837.747, 800 L 709.541, 745.957 z "/>
<path style="fill:rgb(0, 255, 0);fill-opacity:0;fill-rule:evenodd;stroke:rgb(158, 0, 255);stroke-width:1;" d="M 863.521, 675.286 L 864.851, 673.457 L 867.512, 669.632 L 872.334, 663.147 L 875.494, 658.824 L 882.644, 661.817 L 891.623, 649.512 L 895.947, 651.341 L 902.099, 654.001 L 907.919, 656.496 L 912.575, 658.325 L 922.719, 662.648 L 928.539, 665.142 L 933.361, 667.138 L 912.575, 696.072 L 863.521, 675.286 z "/>
<path style="fill:rgb(0, 0, 255);fill-opacity:0;fill-rule:evenodd;stroke:rgb(158, 0, 255);stroke-width:1;" d="M 811.806, 440.158 L 826.938, 419.539 L 876.159, 440.491 L 861.359, 460.777 L 863.022, 461.443 L 855.872, 471.253 L 848.722, 468.26 L 840.075, 464.602 L 832.259, 461.276 L 827.77, 459.281 L 834.754, 449.969 L 811.806, 440.158 z "/>
<path style="fill:rgb(255, 255, 0);fill-opacity:0;fill-rule:evenodd;stroke:rgb(158, 0, 255);stroke-width:1;" d="M 767.907, 573.685 L 776.055, 562.378 L 792.683, 561.38 L 827.603, 576.18 L 834.92, 587.82 L 827.271, 597.963 L 810.143, 599.626 L 775.057, 584.993 L 767.907, 573.685 z "/>
<path style="fill:rgb(255, 0, 0);fill-opacity:0;fill-rule:evenodd;stroke:rgb(158, 0, 255);stroke-width:1;" d="M 728.165, 697.568 L 735.149, 687.924 L 732.821, 687.092 L 739.472, 677.946 L 728.663, 673.457 L 741.467, 655.83 L 780.212, 672.293 L 770.734, 685.263 L 763.75, 694.908 L 755.103, 706.714 L 751.611, 711.536 L 741.301, 707.213 L 743.463, 704.053 L 728.165, 697.568 z "/>
<path style="fill:rgb(0, 255, 0);fill-opacity:0;fill-rule:evenodd;stroke:rgb(158, 0, 255);stroke-width:1;" d="M 71.0039, 610.434 L 83.4754, 592.808 L 107.254, 602.619 L 103.43, 608.106 L 123.716, 616.421 L 125.712, 613.594 L 130.7, 615.589 L 132.197, 613.261 L 150.987, 621.077 L 141.176, 635.045 L 138.183, 639.202 L 121.887, 632.384 L 119.892, 635.045 L 82.4777, 619.913 L 85.1382, 616.088 L 71.0039, 610.434 z "/>
<path style="fill:rgb(0, 0, 255);fill-opacity:0;fill-rule:evenodd;stroke:rgb(158, 0, 255);stroke-width:1;" d="M 866.348, 459.78 L 879.983, 441.156 L 921.555, 458.782 L 899.605, 488.547 L 893.453, 485.887 L 888.797, 492.372 L 872.501, 485.554 L 879.152, 476.408 L 873.332, 474.08 L 879.651, 465.433 L 866.348, 459.78 z "/>
<path style="fill:rgb(255, 255, 0);fill-opacity:0;fill-rule:evenodd;stroke:rgb(158, 0, 255);stroke-width:1;" d="M 66.8468, 748.119 L 93.2862, 712.035 L 96.1131, 708.044 L 98.9399, 709.208 L 106.09, 712.201 L 125.546, 720.515 L 117.73, 731.158 L 96.2794, 760.59 L 66.8468, 748.119 z "/>
<path style="fill:rgb(255, 0, 0);fill-opacity:0;fill-rule:evenodd;stroke:rgb(158, 0, 255);stroke-width:1;" d="M 204.199, 669.466 L 209.021, 662.648 L 228.809, 634.546 L 258.74, 646.851 L 234.13, 681.771 L 204.199, 669.466 z "/>
<path style="fill:rgb(0, 255, 0);fill-opacity:0;fill-rule:evenodd;stroke:rgb(158, 0, 255);stroke-width:1;" d="M 859.031, 375.14 L 863.189, 369.487 L 865.184, 370.318 L 878.487, 352.193 L 876.325, 351.361 L 880.815, 345.375 L 913.407, 359.011 L 905.924, 369.32 L 913.24, 372.48 L 904.594, 384.286 L 897.277, 381.127 L 891.623, 388.942 L 880.815, 384.452 L 859.031, 375.14 z "/>
<path style="fill:rgb(0, 0, 255);fill-opacity:0;fill-rule:evenodd;stroke:rgb(158, 0, 255);stroke-width:1;" d="M 844.066, 395.593 L 859.031, 375.14 L 880.815, 384.452 L 877.655, 388.609 L 906.755, 400.915 L 894.949, 417.044 L 844.066, 395.593 z "/>
<path style="fill:rgb(255, 255, 0);fill-opacity:0;fill-rule:evenodd;stroke:rgb(158, 0, 255);stroke-width:1;" d="M 878.154, 603.783 L 883.642, 596.3 L 898.607, 602.619 L 901.933, 598.129 L 953.98, 620.079 L 922.719, 662.648 L 912.575, 658.325 L 937.851, 623.904 L 896.279, 606.277 L 893.12, 610.434 L 878.154, 603.783 z "/>
<path style="fill:rgb(255, 0, 0);fill-opacity:0;fill-rule:evenodd;stroke:rgb(158, 0, 255);stroke-width:1;" d="M 681.438, 734.151 L 684.432, 730.16 L 687.924, 725.005 L 700.727, 707.379 L 704.053, 703.055 L 732.155, 714.862 L 713.698, 740.303 L 709.541, 745.957 L 681.438, 734.151 z "/>
<path style="fill:rgb(0, 255, 0);fill-opacity:0;fill-rule:evenodd;stroke:rgb(158, 0, 255);stroke-width:1;" d="M 826.606, 574.849 L 832.426, 566.868 L 835.751, 568.198 L 859.364, 578.175 L 862.357, 579.339 L 887.965, 590.148 L 886.801, 591.81 L 883.642, 596.3 L 878.154, 603.783 L 874.496, 608.605 L 871.835, 612.264 L 870.173, 614.592 L 844.398, 603.949 L 856.537, 587.321 L 841.405, 580.836 L 826.606, 574.849 z "/>
<path style="fill:rgb(0, 0, 255);fill-opacity:0;fill-rule:evenodd;stroke:rgb(158, 0, 255);stroke-width:1;" d="M 888.464, 334.733 L 902.931, 315.111 L 949.99, 334.899 L 938.35, 350.696 L 916.566, 341.551 L 913.739, 345.375 L 888.464, 334.733 z "/>
<path style="fill:rgb(255, 255, 0);fill-opacity:0;fill-rule:evenodd;stroke:rgb(158, 0, 255);stroke-width:1;" d="M 138.682, 778.549 L 163.459, 744.461 L 187.736, 754.77 L 176.096, 770.401 L 162.794, 788.693 L 138.682, 778.549 z "/>
<path style="fill:rgb(255, 0, 0);fill-opacity:0;fill-rule:evenodd;stroke:rgb(158, 0, 255);stroke-width:1;" d="M 629.557, 704.552 L 636.375, 695.074 L 640.532, 689.42 L 647.184, 680.274 L 657.327, 684.432 L 663.978, 687.258 L 675.12, 691.914 L 672.459, 695.573 L 679.942, 698.732 L 675.618, 704.718 L 671.96, 709.707 L 667.138, 716.358 L 659.655, 713.365 L 657.493, 716.192 L 646.186, 711.37 L 639.534, 708.709 L 629.557, 704.552 z "/>
<path style="fill:rgb(0, 255, 0);fill-opacity:0;fill-rule:evenodd;stroke:rgb(158, 0, 255);stroke-width:1;" d="M 210.85, 607.94 L 233.798, 575.847 L 258.242, 585.658 L 235.627, 617.917 L 210.85, 607.94 z "/>
<path style="fill:rgb(0, 0, 255);fill-opacity:0;fill-rule:evenodd;stroke:rgb(158, 0, 255);stroke-width:1;" d="M 901.102, 419.539 L 917.564, 396.924 L 921.721, 398.753 L 932.363, 384.12 L 950.156, 391.603 L 924.548, 426.523 L 922.885, 428.851 L 901.102, 419.539 z "/>
<path style="fill:rgb(255, 255, 0);fill-opacity:0;fill-rule:evenodd;stroke:rgb(158, 0, 255);stroke-width:1;" d="M 816.296, 728.497 L 826.439, 714.695 L 875.993, 735.315 L 879.651, 736.811 L 869.507, 750.613 L 866.182, 749.283 L 816.296, 728.497 z "/>
<path style="fill:rgb(255, 0, 0);fill-opacity:0;fill-rule:evenodd;stroke:rgb(158, 0, 255);stroke-width:1;" d="M 816.296, 728.497 L 826.439, 714.695 L 875.993, 735.315 L 875.826, 739.638 L 873.498, 743.463 L 870.173, 746.622 L 866.182, 749.283 L 816.296, 728.497 z "/>
<path style="fill:rgb(0, 255, 0);fill-opacity:0;fill-rule:evenodd;stroke:rgb(158, 0, 255);stroke-width:1;" d="M 805.155, 219.331 L 814.301, 206.028 L 842.902, 217.502 L 848.722, 215.506 L 857.535, 219.164 L 857.867, 223.488 L 859.697, 224.319 L 849.886, 238.454 L 848.555, 237.955 L 842.07, 239.618 L 834.089, 236.458 L 833.756, 230.804 L 805.155, 219.331 z "/>
<path style="fill:rgb(0, 0, 255);fill-opacity:0;fill-rule:evenodd;stroke:rgb(158, 0, 255);stroke-width:1;" d="M 787.529, 771.731 L 793.349, 764.082 L 825.442, 777.053 L 840.075, 757.431 L 853.378, 762.918 L 833.423, 791.187 L 787.529, 771.731 z "/>
<path style="fill:rgb(255, 255, 0);fill-opacity:0;fill-rule:evenodd;stroke:rgb(158, 0, 255);stroke-width:1;" d="M 177.926, 620.245 L 182.914, 613.261 L 185.408, 609.603 L 186.406, 608.273 L 188.9, 604.781 L 189.898, 603.45 L 192.392, 599.792 L 193.39, 598.462 L 195.884, 594.97 L 197.714, 592.143 L 204.032, 583.496 L 216.171, 588.485 L 220.827, 590.314 L 201.538, 617.585 L 199.044, 621.243 L 198.046, 622.573 L 195.552, 626.232 L 194.887, 627.063 L 177.926, 620.245 z "/>
<path style="fill:rgb(255, 0, 0);fill-opacity:0;fill-rule:evenodd;stroke:rgb(158, 0, 255);stroke-width:1;" d="M 727.832, 555.56 L 745.791, 531.116 L 770.069, 541.26 L 752.11, 565.87 L 727.832, 555.56 z "/>
<path style="fill:rgb(0, 255, 0);fill-opacity:0;fill-rule:evenodd;stroke:rgb(158, 0, 255);stroke-width:1;" d="M 48.5554, 740.303 L 68.676, 712.7 L 78.1542, 716.691 L 84.4731, 708.21 L 93.2862, 712.035 L 66.8468, 748.119 L 48.5554, 740.303 z "/>
<path style="fill:rgb(0, 0, 255);fill-opacity:0;fill-rule:evenodd;stroke:rgb(158, 0, 255);stroke-width:1;" d="M 31.0954, 732.987 L 57.036, 697.901 L 57.5348, 696.903 L 69.0085, 701.725 L 62.6897, 710.206 L 68.676, 712.7 L 48.5554, 740.303 L 31.0954, 732.987 z "/>
<path style="fill:rgb(255, 255, 0);fill-opacity:0;fill-rule:evenodd;stroke:rgb(158, 0, 255);stroke-width:1;" d="M 901.933, 598.129 L 905.259, 593.307 L 963.292, 617.917 L 928.539, 665.142 L 922.719, 662.648 L 953.98, 620.079 L 901.933, 598.129 z "/>
<path style="fill:rgb(255, 0, 0);fill-opacity:0;fill-rule:evenodd;stroke:rgb(158, 0, 255);stroke-width:1;" d="M 123.55, 772.064 L 148.493, 738.142 L 163.459, 744.461 L 138.682, 778.549 L 123.55, 772.064 z "/>
<path style="fill:rgb(0, 255, 0);fill-opacity:0;fill-rule:evenodd;stroke:rgb(158, 0, 255);stroke-width:1;" d="M 110.081, 766.41 L 137.684, 728.83 L 150.488, 734.317 L 151.154, 734.65 L 148.493, 738.142 L 123.55, 772.064 L 110.081, 766.41 z "/>
<path style="fill:rgb(0, 0, 255);fill-opacity:0;fill-rule:evenodd;stroke:rgb(158, 0, 255);stroke-width:1;" d="M 880.815, 345.375 L 888.464, 334.733 L 913.739, 345.375 L 937.352, 355.352 L 937.684, 359.011 L 936.022, 361.339 L 932.031, 362.669 L 919.393, 357.348 L 917.065, 360.507 L 913.407, 359.011 L 880.815, 345.375 z "/>
<path style="fill:rgb(255, 255, 0);fill-opacity:0;fill-rule:evenodd;stroke:rgb(158, 0, 255);stroke-width:1;" d="M 752.11, 565.87 L 770.069, 541.26 L 800.333, 553.897 L 794.679, 561.38 L 779.713, 555.061 L 767.242, 572.022 L 752.11, 565.87 z "/>
<path style="fill:rgb(255, 0, 0);fill-opacity:0;fill-rule:evenodd;stroke:rgb(158, 0, 255);stroke-width:1;" d="M 896.778, 500.852 L 904.427, 490.543 L 899.605, 488.547 L 921.555, 458.782 L 934.525, 464.269 L 906.256, 502.681 L 905.092, 504.344 L 896.778, 500.852 z "/>
<path style="fill:rgb(0, 255, 0);fill-opacity:0;fill-rule:evenodd;stroke:rgb(158, 0, 255);stroke-width:1;" d="M 96.2794, 760.59 L 117.73, 731.158 L 125.379, 734.317 L 132.696, 724.34 L 139.015, 727.001 L 137.684, 728.83 L 110.081, 766.41 L 96.2794, 760.59 z "/>
<path style="fill:rgb(0, 0, 255);fill-opacity:0;fill-rule:evenodd;stroke:rgb(158, 0, 255);stroke-width:1;" d="M 794.679, 561.38 L 800.333, 553.897 L 805.487, 546.747 L 837.414, 560.05 L 832.426, 566.868 L 826.606, 574.849 L 794.679, 561.38 z "/>
<path style="fill:rgb(255, 255, 0);fill-opacity:0;fill-rule:evenodd;stroke:rgb(158, 0, 255);stroke-width:1;" d="M 271.544, 640.698 L 278.528, 630.555 L 298.483, 602.453 L 310.621, 607.275 L 284.016, 645.687 L 271.544, 640.698 z "/>
<path style="fill:rgb(255, 0, 0);fill-opacity:0;fill-rule:evenodd;stroke:rgb(158, 0, 255);stroke-width:1;" d="M 633.049, 703.388 L 647.682, 683.101 L 670.464, 692.58 L 655.83, 712.866 L 633.049, 703.388 z "/>
<path style="fill:rgb(0, 255, 0);fill-opacity:0;fill-rule:evenodd;stroke:rgb(158, 0, 255);stroke-width:1;" d="M 905.259, 593.307 L 907.753, 589.815 L 970.775, 616.421 L 933.361, 667.138 L 928.539, 665.142 L 963.292, 617.917 L 905.259, 593.307 z "/>
<path style="fill:rgb(0, 0, 255);fill-opacity:0;fill-rule:evenodd;stroke:rgb(158, 0, 255);stroke-width:1;" d="M 900.603, 554.562 L 919.393, 529.121 L 922.885, 530.617 L 929.869, 521.139 L 927.874, 520.308 L 931.199, 515.818 L 942.008, 520.474 L 932.197, 533.943 L 913.074, 559.884 L 900.603, 554.562 z "/>
<path style="fill:rgb(255, 255, 0);fill-opacity:0;fill-rule:evenodd;stroke:rgb(158, 0, 255);stroke-width:1;" d="M 906.256, 502.681 L 934.525, 464.269 L 946.83, 469.424 L 924.049, 500.852 L 918.229, 498.358 L 912.908, 505.508 L 906.256, 502.681 z "/>
<path style="fill:rgb(255, 0, 0);fill-opacity:0;fill-rule:evenodd;stroke:rgb(158, 0, 255);stroke-width:1;" d="M 733.652, 712.866 L 737.809, 707.046 L 809.811, 737.477 L 812.471, 733.818 L 814.633, 734.65 L 810.476, 740.636 L 807.982, 743.962 L 733.652, 712.866 z "/>
<path style="fill:rgb(0, 255, 0);fill-opacity:0;fill-rule:evenodd;stroke:rgb(158, 0, 255);stroke-width:1;" d="M 868.51, 616.92 L 870.173, 614.592 L 871.835, 612.264 L 887.134, 618.582 L 889.628, 615.257 L 920.89, 628.393 L 902.099, 654.001 L 895.947, 651.341 L 908.917, 633.382 L 868.51, 616.92 z "/>
<path style="fill:rgb(0, 0, 255);fill-opacity:0;fill-rule:evenodd;stroke:rgb(158, 0, 255);stroke-width:1;" d="M 179.755, 584.826 L 192.06, 567.366 L 222.324, 579.672 L 216.171, 588.485 L 204.032, 583.496 L 197.714, 592.143 L 179.755, 584.826 z "/>
<path style="fill:rgb(255, 255, 0);fill-opacity:0;fill-rule:evenodd;stroke:rgb(158, 0, 255);stroke-width:1;" d="M 617.418, 707.213 L 645.521, 668.634 L 650.01, 670.464 L 624.402, 705.217 L 684.432, 730.16 L 681.438, 734.151 L 617.418, 707.213 z "/>
<path style="fill:rgb(255, 0, 0);fill-opacity:0;fill-rule:evenodd;stroke:rgb(158, 0, 255);stroke-width:1;" d="M 773.893, 265.059 L 797.173, 233.299 L 808.647, 238.121 L 785.201, 269.882 L 773.893, 265.059 z "/>
<path style="fill:rgb(0, 255, 0);fill-opacity:0;fill-rule:evenodd;stroke:rgb(158, 0, 255);stroke-width:1;" d="M 667.138, 716.358 L 671.96, 709.707 L 674.122, 710.538 L 677.614, 705.55 L 675.618, 704.718 L 679.942, 698.732 L 700.727, 707.379 L 687.924, 725.005 L 667.138, 716.358 z "/>
<path style="fill:rgb(0, 0, 255);fill-opacity:0;fill-rule:evenodd;stroke:rgb(158, 0, 255);stroke-width:1;" d="M 823.114, 605.945 L 829.266, 597.464 L 844.398, 603.949 L 870.173, 614.592 L 868.51, 616.92 L 863.854, 623.238 L 839.909, 613.261 L 823.114, 605.945 z "/>
<path style="fill:rgb(255, 255, 0);fill-opacity:0;fill-rule:evenodd;stroke:rgb(158, 0, 255);stroke-width:1;" d="M 814.966, 647.516 L 819.622, 641.031 L 872.334, 663.147 L 867.512, 669.632 L 814.966, 647.516 z "/>
<path style="fill:rgb(255, 0, 0);fill-opacity:0;fill-rule:evenodd;stroke:rgb(158, 0, 255);stroke-width:1;" d="M 672.459, 695.573 L 675.12, 691.914 L 681.106, 683.6 L 709.541, 695.573 L 704.053, 703.055 L 700.727, 707.379 L 679.942, 698.732 L 672.459, 695.573 z "/>
<path style="fill:rgb(0, 255, 0);fill-opacity:0;fill-rule:evenodd;stroke:rgb(158, 0, 255);stroke-width:1;" d="M 889.628, 615.257 L 893.12, 610.434 L 930.368, 626.065 L 907.919, 656.496 L 902.099, 654.001 L 920.89, 628.393 L 889.628, 615.257 z "/>
<path style="fill:rgb(0, 0, 255);fill-opacity:0;fill-rule:evenodd;stroke:rgb(158, 0, 255);stroke-width:1;" d="M 624.402, 705.217 L 650.01, 670.464 L 653.669, 672.126 L 647.184, 680.274 L 640.532, 689.42 L 636.375, 695.074 L 629.557, 704.552 L 639.534, 708.709 L 646.186, 711.37 L 657.493, 716.192 L 659.655, 713.365 L 667.138, 716.358 L 687.924, 725.005 L 684.432, 730.16 L 624.402, 705.217 z "/>
<path style="fill:rgb(255, 255, 0);fill-opacity:0;fill-rule:evenodd;stroke:rgb(158, 0, 255);stroke-width:1;" d="M 893.12, 610.434 L 896.279, 606.277 L 937.851, 623.904 L 912.575, 658.325 L 907.919, 656.496 L 930.368, 626.065 L 893.12, 610.434 z "/>
<path style="fill:rgb(255, 0, 0);fill-opacity:0;fill-rule:evenodd;stroke:rgb(158, 0, 255);stroke-width:1;" d="M 722.012, 563.542 L 727.832, 555.56 L 752.11, 565.87 L 767.242, 572.022 L 761.422, 580.004 L 722.012, 563.542 z "/>
<path style="fill:rgb(0, 255, 0);fill-opacity:0;fill-rule:evenodd;stroke:rgb(158, 0, 255);stroke-width:1;" d="M 773.727, 495.199 L 803.658, 454.292 L 810.975, 457.285 L 781.21, 498.358 L 773.727, 495.199 z "/>
<path style="fill:rgb(0, 0, 255);fill-opacity:0;fill-rule:evenodd;stroke:rgb(158, 0, 255);stroke-width:1;" d="M 826.439, 714.695 L 830.43, 709.208 L 832.426, 710.039 L 877.988, 729.162 L 883.475, 731.49 L 879.651, 736.811 L 875.993, 735.315 L 826.439, 714.695 z "/>
<path style="fill:rgb(255, 255, 0);fill-opacity:0;fill-rule:evenodd;stroke:rgb(158, 0, 255);stroke-width:1;" d="M 812.471, 733.818 L 814.134, 731.657 L 816.296, 728.497 L 866.182, 749.283 L 869.507, 750.613 L 865.683, 756.101 L 860.195, 753.773 L 814.633, 734.65 L 812.471, 733.818 z "/>
<path style="fill:rgb(255, 0, 0);fill-opacity:0;fill-rule:evenodd;stroke:rgb(158, 0, 255);stroke-width:1;" d="M 643.858, 703.055 L 653.17, 690.252 L 674.953, 699.397 L 672.126, 703.222 L 668.468, 708.21 L 665.641, 712.035 L 643.858, 703.055 z "/>
<path style="fill:rgb(0, 255, 0);fill-opacity:0;fill-rule:evenodd;stroke:rgb(158, 0, 255);stroke-width:1;" d="M 810.476, 740.636 L 814.633, 734.65 L 860.195, 753.773 L 855.872, 759.593 L 810.476, 740.636 z "/>
<path style="fill:rgb(0, 0, 255);fill-opacity:0;fill-rule:evenodd;stroke:rgb(158, 0, 255);stroke-width:1;" d="M 832.426, 710.039 L 836.749, 704.219 L 882.145, 723.342 L 877.988, 729.162 L 832.426, 710.039 z "/>
<path style="fill:rgb(255, 255, 0);fill-opacity:0;fill-rule:evenodd;stroke:rgb(158, 0, 255);stroke-width:1;" d="M 829.266, 597.464 L 841.405, 580.836 L 856.537, 587.321 L 844.398, 603.949 L 829.266, 597.464 z "/>
<path style="fill:rgb(255, 0, 0);fill-opacity:0;fill-rule:evenodd;stroke:rgb(158, 0, 255);stroke-width:1;" d="M 647.184, 680.274 L 653.669, 672.126 L 681.106, 683.6 L 675.12, 691.914 L 663.978, 687.258 L 657.327, 684.432 L 647.184, 680.274 z "/>
<path style="fill:rgb(0, 255, 0);fill-opacity:0;fill-rule:evenodd;stroke:rgb(158, 0, 255);stroke-width:1;" d="M 819.622, 641.031 L 822.781, 636.874 L 875.494, 658.824 L 872.334, 663.147 L 819.622, 641.031 z "/>
<path style="fill:rgb(0, 0, 255);fill-opacity:0;fill-rule:evenodd;stroke:rgb(158, 0, 255);stroke-width:1;" d="M 770.069, 541.26 L 775.39, 533.943 L 805.487, 546.747 L 800.333, 553.897 L 770.069, 541.26 z "/>
<path style="fill:rgb(255, 255, 0);fill-opacity:0;fill-rule:evenodd;stroke:rgb(158, 0, 255);stroke-width:1;" d="M 832.426, 566.868 L 837.414, 560.05 L 867.013, 572.688 L 862.357, 579.339 L 859.364, 578.175 L 835.751, 568.198 L 832.426, 566.868 z "/>
<path style="fill:rgb(255, 0, 0);fill-opacity:0;fill-rule:evenodd;stroke:rgb(158, 0, 255);stroke-width:1;" d="M 812.139, 651.341 L 814.966, 647.516 L 867.512, 669.632 L 864.851, 673.457 L 812.139, 651.341 z "/>
<path style="fill:rgb(0, 255, 0);fill-opacity:0;fill-rule:evenodd;stroke:rgb(158, 0, 255);stroke-width:1;" d="M 745.791, 531.116 L 751.112, 523.633 L 775.39, 533.943 L 770.069, 541.26 L 745.791, 531.116 z "/>
<path style="fill:rgb(0, 0, 255);fill-opacity:0;fill-rule:evenodd;stroke:rgb(158, 0, 255);stroke-width:1;" d="M 803.326, 495.864 L 816.795, 477.24 L 826.273, 481.231 L 812.804, 499.855 L 803.326, 495.864 z "/>
<path style="fill:rgb(255, 255, 0);fill-opacity:0;fill-rule:evenodd;stroke:rgb(158, 0, 255);stroke-width:1;" d="M 862.357, 579.339 L 867.013, 572.688 L 892.787, 583.496 L 890.293, 586.988 L 887.965, 590.148 L 862.357, 579.339 z "/>
<path style="fill:rgb(255, 0, 0);fill-opacity:0;fill-rule:evenodd;stroke:rgb(158, 0, 255);stroke-width:1;" d="M 391.935, 93.9514 L 400.249, 87.4662 L 416.712, 100.104 L 408.397, 106.589 L 391.935, 93.9514 z "/>
<path style="fill:rgb(0, 255, 0);fill-opacity:0;fill-rule:evenodd;stroke:rgb(158, 0, 255);stroke-width:1;" d="M 639.534, 708.709 L 657.327, 684.432 L 663.978, 687.258 L 646.186, 711.37 L 639.534, 708.709 z "/>
<path style="fill:rgb(0, 0, 255);fill-opacity:0;fill-rule:evenodd;stroke:rgb(158, 0, 255);stroke-width:1;" d="M 807.982, 743.962 L 810.476, 740.636 L 855.872, 759.593 L 853.378, 762.918 L 840.075, 757.431 L 807.982, 743.962 z "/>
<path style="fill:rgb(255, 255, 0);fill-opacity:0;fill-rule:evenodd;stroke:rgb(158, 0, 255);stroke-width:1;" d="M 836.749, 704.219 L 839.243, 700.894 L 884.639, 720.017 L 882.145, 723.342 L 836.749, 704.219 z "/>
<path style="fill:rgb(255, 0, 0);fill-opacity:0;fill-rule:evenodd;stroke:rgb(158, 0, 255);stroke-width:1;" d="M 826.606, 574.849 L 832.426, 566.868 L 835.751, 568.198 L 833.257, 571.69 L 856.87, 581.667 L 859.364, 578.175 L 862.357, 579.339 L 856.537, 587.321 L 841.405, 580.836 L 826.606, 574.849 z "/>
<path style="fill:rgb(0, 255, 0);fill-opacity:0;fill-rule:evenodd;stroke:rgb(158, 0, 255);stroke-width:1;" d="M 810.809, 653.004 L 812.139, 651.341 L 864.851, 673.457 L 863.521, 675.286 L 810.809, 653.004 z "/>
<path style="fill:rgb(0, 0, 255);fill-opacity:0;fill-rule:evenodd;stroke:rgb(158, 0, 255);stroke-width:1;" d="M 768.905, 498.857 L 804.822, 449.636 L 806.651, 450.301 L 803.658, 454.292 L 773.727, 495.199 L 770.567, 499.522 L 768.905, 498.857 z "/>
<path style="fill:rgb(255, 255, 0);fill-opacity:0;fill-rule:evenodd;stroke:rgb(158, 0, 255);stroke-width:1;" d="M 874.496, 608.605 L 878.154, 603.783 L 893.12, 610.434 L 889.628, 615.257 L 874.496, 608.605 z "/>
<path style="fill:rgb(255, 0, 0);fill-opacity:0;fill-rule:evenodd;stroke:rgb(158, 0, 255);stroke-width:1;" d="M 886.801, 591.81 L 887.965, 590.148 L 890.293, 586.988 L 905.259, 593.307 L 901.933, 598.129 L 886.801, 591.81 z "/>
<path style="fill:rgb(0, 255, 0);fill-opacity:0;fill-rule:evenodd;stroke:rgb(158, 0, 255);stroke-width:1;" d="M 883.642, 596.3 L 886.801, 591.81 L 901.933, 598.129 L 898.607, 602.619 L 883.642, 596.3 z "/>
<path style="fill:rgb(0, 0, 255);fill-opacity:0;fill-rule:evenodd;stroke:rgb(158, 0, 255);stroke-width:1;" d="M 636.375, 695.074 L 640.532, 689.42 L 650.177, 693.577 L 646.02, 699.065 L 636.375, 695.074 z "/>
<path style="fill:rgb(255, 255, 0);fill-opacity:0;fill-rule:evenodd;stroke:rgb(158, 0, 255);stroke-width:1;" d="M 871.835, 612.264 L 874.496, 608.605 L 889.628, 615.257 L 887.134, 618.582 L 871.835, 612.264 z "/>
<path style="fill:rgb(255, 0, 0);fill-opacity:0;fill-rule:evenodd;stroke:rgb(158, 0, 255);stroke-width:1;" d="M 890.293, 586.988 L 892.787, 583.496 L 907.753, 589.815 L 905.259, 593.307 L 890.293, 586.988 z "/>
<path style="fill:rgb(0, 255, 0);fill-opacity:0;fill-rule:evenodd;stroke:rgb(158, 0, 255);stroke-width:1;" d="M 208.023, 730.659 L 217.668, 717.689 L 220.661, 719.019 L 211.016, 731.989 L 208.023, 730.659 z "/>
<path style="fill:rgb(0, 0, 255);fill-opacity:0;fill-rule:evenodd;stroke:rgb(158, 0, 255);stroke-width:1;" d="M 177.26, 771.898 L 186.074, 760.091 L 189.233, 761.255 L 181.584, 771.565 L 180.254, 773.228 L 177.26, 771.898 z "/>
<path style="fill:rgb(255, 255, 0);fill-opacity:0;fill-rule:evenodd;stroke:rgb(158, 0, 255);stroke-width:1;" d="M 199.044, 742.465 L 208.023, 730.659 L 211.016, 731.989 L 210.019, 733.319 L 202.203, 743.795 L 199.044, 742.465 z "/>
<path style="fill:rgb(255, 0, 0);fill-opacity:0;fill-rule:evenodd;stroke:rgb(158, 0, 255);stroke-width:1;" d="M 6.65142, 587.321 L 33.0908, 549.74 L 59.0314, 560.216 L 50.052, 573.02 L 41.4051, 569.362 L 32.4257, 582.166 L 44.5645, 587.154 L 61.692, 562.877 L 79.6508, 570.36 L 74.4959, 577.676 L 76.4914, 578.508 L 70.5051, 587.154 L 68.3434, 586.323 L 62.5234, 594.637 L 65.8491, 595.968 L 57.3685, 607.94 L 6.65142, 587.321 z "/>
<path style="fill:rgb(0, 255, 0);fill-opacity:0;fill-rule:evenodd;stroke:rgb(158, 0, 255);stroke-width:1;" d="M 4.48971, 721.679 L 11.9726, 711.536 L 25.1091, 693.744 L 30.4303, 686.76 L 40.5737, 691.083 L 43.5668, 687.092 L 55.7057, 692.413 L 52.8788, 696.238 L 57.036, 697.901 L 31.0954, 732.987 L 4.48971, 721.679 z "/>
<path style="fill:rgb(0, 0, 255);fill-opacity:0;fill-rule:evenodd;stroke:rgb(158, 0, 255);stroke-width:1;" d="M 613.594, 198.711 L 633.881, 169.778 L 620.744, 164.456 L 624.236, 159.634 L 621.409, 158.304 L 625.068, 152.983 L 620.578, 151.154 L 629.225, 138.682 L 634.047, 140.844 L 651.174, 116.4 L 683.101, 129.37 L 686.593, 124.382 L 708.709, 92.9536 L 706.714, 88.9628 L 715.028, 77.1565 L 722.178, 75.9925 L 743.629, 45.2297 L 746.29, 41.2388 L 751.278, 43.2343 L 761.255, 47.2251 L 766.577, 45.7285 L 766.078, 44.232 L 760.258, 45.396 L 736.479, 35.5851 L 737.477, 34.0885 L 742.299, 27.2708 L 728.996, 21.7834 L 730.659, 19.6217 L 736.146, 11.8063 L 727.832, 8.48057 L 733.818, 0 L 735.98, 0.665142 L 737.809, 1.66286 L 738.641, 2.328 L 739.805, 3.82457 L 740.636, 5.48742 L 740.969, 7.15028 L 740.636, 8.97942 L 739.971, 10.6423 L 739.472, 11.3074 L 738.973, 11.1411 L 735.481, 16.1297 L 740.303, 17.9588 L 741.634, 17.9588 L 744.128, 17.9588 L 746.456, 18.4577 L 748.618, 19.4554 L 750.613, 20.6194 L 752.276, 21.9497 L 752.941, 22.7811 L 753.939, 24.6103 L 754.438, 26.4394 L 754.438, 28.2686 L 750.114, 34.4211 L 752.775, 34.7537 L 752.442, 36.5828 L 755.269, 36.7491 L 755.435, 36.2503 L 756.599, 36.2503 L 759.094, 38.9108 L 759.759, 37.4143 L 760.757, 35.9177 L 761.422, 35.2525 L 763.085, 34.0885 L 765.08, 33.2571 L 766.078, 32.9245 L 768.239, 32.7583 L 770.567, 32.9245 L 771.565, 33.0908 L 773.727, 33.756 L 775.39, 34.7537 L 785.533, 20.2868 L 784.868, 19.2891 L 785.367, 17.9588 L 786.198, 16.6286 L 786.697, 16.1297 L 788.194, 15.2983 L 789.857, 14.6331 L 791.686, 14.4668 L 793.515, 14.6331 L 794.513, 14.9657 L 796.009, 15.6308 L 797.339, 16.6286 L 798.337, 17.7926 L 798.836, 19.1228 L 798.836, 19.9543 L 798.503, 21.2846 L 794.014, 30.264 L 800.831, 33.0908 L 798.67, 36.5828 L 832.426, 50.2182 L 833.59, 48.3891 L 819.289, 42.5691 L 835.253, 19.788 L 869.175, 33.4234 L 875.327, 50.5508 L 872.667, 54.3754 L 884.639, 59.364 L 881.147, 64.02 L 883.309, 64.8514 L 909.748, 75.6599 L 912.076, 72.3342 L 939.015, 83.1428 L 947.163, 81.4799 L 953.648, 83.9742 L 958.636, 90.6256 L 950.488, 102.598 L 941.01, 103.762 L 932.197, 100.27 L 932.53, 96.2794 L 904.095, 84.8057 L 908.252, 78.8194 L 881.314, 68.0108 L 843.234, 52.5462 L 841.405, 55.3731 L 875.993, 69.3411 L 858.034, 95.1154 L 847.89, 90.9582 L 855.872, 79.6508 L 861.027, 72.1679 L 831.927, 60.528 L 792.018, 44.3983 L 788.194, 49.8857 L 756.766, 56.8697 L 749.283, 53.8765 L 730.991, 79.9834 L 732.322, 84.1405 L 728.497, 90.2931 L 724.673, 96.2794 L 718.52, 96.4456 L 698.566, 124.714 L 706.547, 127.874 L 714.695, 149.99 L 710.039, 156.974 L 778.715, 184.743 L 785.034, 175.598 L 792.018, 165.787 L 797.339, 167.782 L 802.494, 169.944 L 775.223, 208.855 L 714.862, 184.411 L 723.841, 171.607 L 710.039, 166.119 L 706.547, 171.108 L 711.869, 173.27 L 700.395, 189.732 L 686.094, 183.912 L 697.568, 167.616 L 703.721, 169.944 L 707.213, 164.955 L 692.912, 159.135 L 676.949, 181.916 L 659.821, 175.099 L 647.35, 193.058 L 660.154, 198.212 L 658.325, 200.707 L 711.037, 221.991 L 713.698, 218 L 727.001, 223.322 L 730.326, 222.656 L 737.144, 212.846 L 742.798, 215.174 L 745.458, 211.349 L 757.763, 216.338 L 754.77, 220.661 L 760.59, 222.989 L 743.629, 247.267 L 737.809, 244.939 L 735.647, 248.264 L 723.176, 243.276 L 725.837, 239.451 L 657.826, 212.014 L 653.17, 218.666 L 648.514, 216.67 L 653.17, 210.019 L 650.842, 209.187 L 635.377, 231.47 L 624.236, 226.98 L 628.56, 220.661 L 619.58, 217.003 L 626.232, 207.691 L 635.211, 211.349 L 640.366, 203.866 L 627.229, 198.545 L 624.07, 203.035 L 613.594, 198.711 z "/>
<path style="fill:rgb(255, 255, 0);fill-opacity:0;fill-rule:evenodd;stroke:rgb(158, 0, 255);stroke-width:1;" d="M 878.154, 603.783 L 883.642, 596.3 L 898.607, 602.619 L 901.933, 598.129 L 953.98, 620.079 L 922.719, 662.648 L 912.575, 658.325 L 937.851, 623.904 L 896.279, 606.277 L 893.12, 610.434 L 878.154, 603.783 z "/>
<path style="fill:rgb(255, 0, 0);fill-opacity:0;fill-rule:evenodd;stroke:rgb(158, 0, 255);stroke-width:1;" d="M 901.933, 598.129 L 905.259, 593.307 L 963.292, 617.917 L 928.539, 665.142 L 922.719, 662.648 L 953.98, 620.079 L 901.933, 598.129 z "/>
<path style="fill:rgb(0, 255, 0);fill-opacity:0;fill-rule:evenodd;stroke:rgb(158, 0, 255);stroke-width:1;" d="M 905.259, 593.307 L 907.753, 589.815 L 970.775, 616.421 L 933.361, 667.138 L 928.539, 665.142 L 963.292, 617.917 L 905.259, 593.307 z "/>
<path style="fill:rgb(0, 0, 255);fill-opacity:0;fill-rule:evenodd;stroke:rgb(158, 0, 255);stroke-width:1;" d="M 889.628, 615.257 L 893.12, 610.434 L 930.368, 626.065 L 907.919, 656.496 L 902.099, 654.001 L 920.89, 628.393 L 889.628, 615.257 z "/>
<path style="fill:rgb(255, 255, 0);fill-opacity:0;fill-rule:evenodd;stroke:rgb(158, 0, 255);stroke-width:1;" d="M 893.12, 610.434 L 896.279, 606.277 L 937.851, 623.904 L 912.575, 658.325 L 907.919, 656.496 L 930.368, 626.065 L 893.12, 610.434 z "/>
<path style="fill:rgb(255, 0, 0);fill-opacity:0;fill-rule:evenodd;stroke:rgb(158, 0, 255);stroke-width:1;" d="M 713.698, 740.303 L 732.155, 714.862 L 733.652, 712.866 L 807.982, 743.962 L 840.075, 757.431 L 825.442, 777.053 L 793.349, 764.082 L 787.529, 771.731 L 713.698, 740.303 z "/>
<path style="fill:rgb(0, 255, 0);fill-opacity:0;fill-rule:evenodd;stroke:rgb(158, 0, 255);stroke-width:1;" d="M 709.541, 745.957 L 713.698, 740.303 L 787.529, 771.731 L 833.423, 791.187 L 853.378, 762.918 L 855.872, 759.593 L 860.195, 753.773 L 865.683, 756.101 L 869.507, 750.613 L 879.651, 736.811 L 883.475, 731.49 L 877.988, 729.162 L 882.145, 723.342 L 884.639, 720.017 L 839.243, 700.894 L 836.749, 704.219 L 832.426, 710.039 L 830.43, 709.208 L 839.243, 697.069 L 895.448, 720.848 L 837.747, 800 L 709.541, 745.957 z "/>
<path style="fill:rgb(0, 0, 255);fill-opacity:0;fill-rule:evenodd;stroke:rgb(158, 0, 255);stroke-width:1;" d="M 787.529, 771.731 L 793.349, 764.082 L 825.442, 777.053 L 840.075, 757.431 L 853.378, 762.918 L 833.423, 791.187 L 787.529, 771.731 z "/>
<path style="fill:rgb(255, 255, 0);fill-opacity:0;fill-rule:evenodd;stroke:rgb(158, 0, 255);stroke-width:1;" d="M 0, 681.771 L 2.49428, 678.445 L 7.98171, 670.796 L 16.6286, 659.156 L 27.2708, 644.689 L 49.2205, 653.835 L 79.6508, 666.805 L 69.3411, 680.773 L 42.7354, 669.632 L 37.0817, 677.281 L 30.4303, 686.76 L 25.1091, 693.744 L 7.48285, 686.261 L 8.31428, 685.263 L 0, 681.771 z "/>
<path style="fill:rgb(255, 0, 0);fill-opacity:0;fill-rule:evenodd;stroke:rgb(158, 0, 255);stroke-width:1;" d="M 2.49428, 678.445 L 7.98171, 670.796 L 16.6286, 659.156 L 27.2708, 644.689 L 49.2205, 653.835 L 79.6508, 666.805 L 69.3411, 680.773 L 42.7354, 669.632 L 37.0817, 677.281 L 30.4303, 686.76 L 25.1091, 693.744 L 7.48285, 686.261 L 8.31428, 685.263 L 10.8086, 681.937 L 2.49428, 678.445 z "/>
</svg>