<?xml version="1.0" encoding="iso-8859-1" standalone="no"?>
<!DOCTYPE svg PUBLIC "-//W3C//DTD SVG 1.0//EN" "http://www.w3.org/TR/2001/REC-SVG-20010904/DTD/svg10.dtd">
<svg xmlns="http://www.w3.org/2000/svg" width="1079" height="800">
<path style="fill:rgb(255, 0, 0);fill-opacity:0;fill-rule:evenodd;stroke:rgb(0, 255, 155);stroke-width:1;" d="M 127.522, 113.075 L 150.831, 111.149 L 148.327, 94.0043 L 215.94, 88.418 L 215.748, 86.6843 L 256.971, 83.217 L 259.668, 102.095 L 301.469, 98.6275 L 300.12, 89.3812 L 419.552, 79.5569 L 424.368, 112.882 L 414.544, 113.845 L 416.277, 126.366 L 416.663, 128.1 L 265.832, 140.814 L 272.767, 188.394 L 145.822, 198.796 L 139.658, 155.069 L 144.667, 154.683 L 144.281, 151.023 L 133.109, 151.794 L 127.522, 113.075 z "/>
<path style="fill:rgb(0, 255, 0);fill-opacity:0;fill-rule:evenodd;stroke:rgb(0, 255, 155);stroke-width:1;" d="M 294.727, 493.523 L 353.479, 487.551 L 355.984, 501.613 L 487.551, 488.514 L 494.293, 526.848 L 495.256, 531.856 L 367.156, 544.763 L 368.89, 554.78 L 358.873, 555.743 L 359.644, 559.981 L 312.641, 564.797 L 309.367, 545.726 L 303.973, 546.304 L 299.928, 522.225 L 294.727, 493.523 z "/>
<path style="fill:rgb(0, 0, 255);fill-opacity:0;fill-rule:evenodd;stroke:rgb(0, 255, 155);stroke-width:1;" d="M 695.979, 46.4243 L 789.213, 36.9853 L 801.156, 133.494 L 767.445, 137.154 L 708.115, 143.703 L 695.979, 46.4243 z "/>
<path style="fill:rgb(255, 255, 0);fill-opacity:0;fill-rule:evenodd;stroke:rgb(0, 255, 155);stroke-width:1;" d="M 199.759, 608.909 L 215.94, 607.176 L 216.518, 609.872 L 245.798, 606.79 L 243.487, 593.884 L 242.331, 594.077 L 240.212, 581.941 L 270.455, 578.859 L 294.149, 576.162 L 296.846, 591.38 L 308.789, 590.224 L 318.998, 648.013 L 284.132, 651.673 L 285.288, 658.03 L 252.54, 661.498 L 251.385, 655.141 L 239.056, 656.489 L 239.634, 659.571 L 209.391, 662.654 L 205.538, 641.079 L 199.759, 608.909 z "/>
<path style="fill:rgb(255, 0, 0);fill-opacity:0;fill-rule:evenodd;stroke:rgb(0, 255, 155);stroke-width:1;" d="M 299.928, 522.225 L 357.717, 516.831 L 355.984, 501.613 L 487.551, 488.514 L 494.293, 526.848 L 309.367, 545.726 L 303.973, 546.304 L 299.928, 522.225 z "/>
<path style="fill:rgb(0, 255, 0);fill-opacity:0;fill-rule:evenodd;stroke:rgb(0, 255, 155);stroke-width:1;" d="M 714.471, 544.378 L 794.606, 538.984 L 802.312, 604.864 L 801.926, 606.598 L 801.541, 607.561 L 800.385, 609.102 L 799.422, 609.68 L 797.688, 610.836 L 796.533, 611.221 L 795.377, 611.413 L 793.065, 611.799 L 790.754, 611.606 L 788.442, 611.028 L 787.479, 610.45 L 785.553, 609.294 L 784.975, 608.524 L 783.819, 606.983 L 783.434, 606.212 L 782.856, 600.433 L 777.655, 600.819 L 776.499, 591.187 L 744.715, 593.306 L 745.87, 603.323 L 740.284, 603.708 L 740.862, 609.102 L 740.669, 610.836 L 740.284, 611.606 L 739.321, 613.34 L 738.55, 613.918 L 736.624, 615.073 L 734.698, 616.037 L 733.542, 616.229 L 731.038, 616.422 L 728.919, 616.037 L 727.763, 615.844 L 725.644, 614.881 L 724.874, 614.303 L 723.333, 612.762 L 722.369, 611.221 L 722.177, 610.258 L 714.471, 544.378 z "/>
<path style="fill:rgb(0, 0, 255);fill-opacity:0;fill-rule:evenodd;stroke:rgb(0, 255, 155);stroke-width:1;" d="M 886.492, 171.635 L 902.673, 160.077 L 931.953, 183.771 L 917.12, 194.173 L 931.953, 206.116 L 916.35, 217.289 L 938.117, 235.011 L 924.055, 245.028 L 938.502, 256.778 L 922.514, 268.336 L 942.933, 284.71 L 928.293, 295.112 L 942.548, 306.67 L 926.559, 318.228 L 898.627, 295.497 L 912.882, 285.095 L 897.664, 272.767 L 913.845, 261.209 L 894.197, 245.413 L 908.452, 235.396 L 892.656, 222.682 L 908.066, 211.51 L 887.455, 194.751 L 902.095, 184.349 L 886.492, 171.635 z "/>
<path style="fill:rgb(255, 255, 0);fill-opacity:0;fill-rule:evenodd;stroke:rgb(0, 255, 155);stroke-width:1;" d="M 907.874, 368.89 L 929.641, 342.692 L 948.519, 351.938 L 937.732, 364.845 L 954.683, 372.935 L 938.888, 392.006 L 957.188, 400.867 L 945.822, 414.544 L 962.581, 422.634 L 945.822, 443.053 L 963.737, 451.529 L 951.987, 465.591 L 968.938, 473.682 L 946.593, 500.65 L 946.4, 500.843 L 927.522, 491.789 L 939.465, 477.342 L 922.706, 469.251 L 939.08, 449.41 L 920.973, 440.742 L 933.301, 426.102 L 916.928, 418.396 L 931.953, 400.289 L 913.075, 391.235 L 924.825, 376.98 L 907.874, 368.89 z "/>
<path style="fill:rgb(255, 0, 0);fill-opacity:0;fill-rule:evenodd;stroke:rgb(0, 255, 155);stroke-width:1;" d="M 835.444, 381.411 L 850.084, 370.816 L 836.022, 359.836 L 852.011, 348.086 L 879.942, 370.238 L 865.495, 380.833 L 880.905, 392.969 L 865.11, 404.719 L 884.373, 419.937 L 869.733, 430.532 L 885.721, 443.246 L 870.503, 454.418 L 891.5, 470.792 L 876.86, 481.58 L 892.271, 493.523 L 876.282, 505.466 L 847.002, 482.35 L 861.45, 471.755 L 846.81, 460.197 L 862.22, 448.832 L 840.26, 431.495 L 854.9, 420.708 L 840.067, 408.957 L 855.863, 397.399 L 835.444, 381.411 z "/>
<path style="fill:rgb(0, 255, 0);fill-opacity:0;fill-rule:evenodd;stroke:rgb(0, 255, 155);stroke-width:1;" d="M 809.246, 195.521 L 831.784, 168.168 L 850.662, 177.221 L 838.526, 192.054 L 855.285, 200.144 L 839.104, 219.6 L 857.019, 228.076 L 844.883, 242.909 L 862.027, 250.999 L 847.002, 269.107 L 865.302, 277.968 L 853.359, 292.222 L 870.503, 300.313 L 849.121, 326.511 L 830.051, 317.457 L 840.838, 304.358 L 824.464, 296.46 L 840.26, 277.39 L 821.382, 268.336 L 832.555, 254.852 L 815.796, 246.761 L 832.94, 226.15 L 814.833, 217.481 L 826.391, 203.612 L 809.246, 195.521 z "/>
<path style="fill:rgb(0, 0, 255);fill-opacity:0;fill-rule:evenodd;stroke:rgb(0, 255, 155);stroke-width:1;" d="M 602.167, 337.876 L 609.872, 336.913 L 607.176, 324.585 L 700.024, 312.834 L 700.987, 321.117 L 708.5, 376.788 L 671.129, 381.411 L 661.305, 335.95 L 643.198, 338.261 L 644.353, 343.463 L 636.648, 344.426 L 637.997, 351.168 L 612.762, 354.25 L 610.065, 341.922 L 603.13, 342.692 L 602.167, 337.876 z "/>
<path style="fill:rgb(255, 255, 0);fill-opacity:0;fill-rule:evenodd;stroke:rgb(0, 255, 155);stroke-width:1;" d="M 199.759, 608.909 L 216.133, 607.176 L 216.518, 609.872 L 245.798, 606.79 L 243.487, 593.884 L 242.331, 594.077 L 240.212, 581.941 L 270.455, 578.859 L 272.574, 590.802 L 269.877, 590.994 L 273.152, 609.294 L 292.415, 607.368 L 294.919, 621.623 L 276.041, 623.549 L 279.124, 641.271 L 282.206, 641.079 L 284.132, 651.673 L 285.288, 658.03 L 252.54, 661.498 L 251.385, 655.141 L 249.843, 646.665 L 253.311, 646.28 L 250.421, 630.099 L 227.883, 632.41 L 228.847, 638.575 L 205.538, 641.079 L 199.759, 608.909 z "/>
<path style="fill:rgb(255, 0, 0);fill-opacity:0;fill-rule:evenodd;stroke:rgb(0, 255, 155);stroke-width:1;" d="M 714.471, 544.378 L 794.606, 538.984 L 802.312, 604.864 L 801.926, 606.598 L 801.541, 607.561 L 800.385, 609.102 L 799.422, 609.68 L 797.688, 610.836 L 796.533, 611.221 L 795.377, 611.413 L 793.065, 611.799 L 790.754, 611.606 L 788.442, 611.028 L 787.479, 610.45 L 785.553, 609.294 L 784.975, 608.524 L 783.819, 606.983 L 783.434, 606.212 L 782.856, 600.433 L 781.7, 590.802 L 778.81, 567.108 L 769.757, 567.686 L 745.485, 569.42 L 736.239, 569.998 L 739.128, 593.691 L 740.284, 603.708 L 740.862, 609.102 L 740.669, 610.836 L 740.284, 611.606 L 739.321, 613.34 L 738.55, 613.918 L 736.624, 615.073 L 734.698, 616.037 L 733.542, 616.229 L 731.038, 616.422 L 728.919, 616.037 L 727.763, 615.844 L 725.644, 614.881 L 724.874, 614.303 L 723.333, 612.762 L 722.369, 611.221 L 722.177, 610.258 L 714.471, 544.378 z "/>
<path style="fill:rgb(0, 255, 0);fill-opacity:0;fill-rule:evenodd;stroke:rgb(0, 255, 155);stroke-width:1;" d="M 19.8411, 414.544 L 33.5179, 401.83 L 52.7811, 413.773 L 57.4043, 413.003 L 62.6053, 408.187 L 53.1664, 402.215 L 64.5317, 391.621 L 73.9706, 397.399 L 83.7948, 388.346 L 94.7749, 387.575 L 109.03, 396.436 L 109.993, 402.793 L 81.8685, 429.184 L 96.5085, 438.045 L 82.2538, 451.529 L 64.9169, 440.934 L 57.4043, 441.512 L 40.0674, 457.501 L 22.1527, 446.521 L 39.2969, 430.34 L 38.3337, 426.102 L 19.8411, 414.544 z "/>
<path style="fill:rgb(0, 0, 255);fill-opacity:0;fill-rule:evenodd;stroke:rgb(0, 255, 155);stroke-width:1;" d="M 840.067, 578.666 L 873.778, 576.354 L 873.007, 570.383 L 928.678, 566.723 L 932.723, 602.36 L 843.535, 608.139 L 843.342, 608.139 L 840.067, 578.666 z "/>
<path style="fill:rgb(255, 255, 0);fill-opacity:0;fill-rule:evenodd;stroke:rgb(0, 255, 155);stroke-width:1;" d="M 809.632, 31.399 L 856.441, 28.1242 L 860.872, 64.339 L 863.569, 87.6475 L 825.427, 90.1517 L 816.566, 90.7296 L 809.632, 31.399 z "/>
<path style="fill:rgb(255, 0, 0);fill-opacity:0;fill-rule:evenodd;stroke:rgb(0, 255, 155);stroke-width:1;" d="M 765.326, 430.147 L 787.286, 403.949 L 806.357, 413.195 L 795.184, 426.68 L 811.558, 434.577 L 795.762, 453.455 L 813.484, 462.124 L 801.734, 475.993 L 818.685, 484.084 L 795.569, 511.438 L 776.306, 501.999 L 788.249, 487.744 L 771.683, 479.653 L 787.479, 461.161 L 769.949, 452.492 L 781.893, 438.237 L 765.326, 430.147 z "/>
<path style="fill:rgb(0, 255, 0);fill-opacity:0;fill-rule:evenodd;stroke:rgb(0, 255, 155);stroke-width:1;" d="M 733.735, 189.55 L 749.723, 177.414 L 779.581, 200.337 L 765.519, 210.932 L 780.544, 222.49 L 765.326, 234.048 L 786.323, 250.229 L 772.454, 260.824 L 786.708, 271.804 L 770.913, 283.747 L 742.403, 261.787 L 756.465, 251.385 L 740.669, 239.056 L 755.695, 227.883 L 735.854, 212.473 L 749.723, 201.878 L 733.735, 189.55 z "/>
<path style="fill:rgb(0, 0, 255);fill-opacity:0;fill-rule:evenodd;stroke:rgb(0, 255, 155);stroke-width:1;" d="M 979.725, 278.16 L 1002.46, 276.427 L 1002.65, 277.968 L 1004.77, 294.149 L 1022.3, 292.993 L 1029.81, 350.975 L 1012.28, 352.324 L 1014.59, 370.238 L 991.669, 371.972 L 987.431, 338.261 L 1007.66, 336.913 L 1004.19, 310.33 L 983.963, 311.871 L 979.725, 278.16 z "/>
<path style="fill:rgb(255, 255, 0);fill-opacity:0;fill-rule:evenodd;stroke:rgb(0, 255, 155);stroke-width:1;" d="M 749.145, 317.265 L 766.675, 315.724 L 764.17, 298.001 L 786.708, 296.268 L 791.524, 329.593 L 771.298, 331.134 L 772.839, 342.114 L 777.077, 341.729 L 778.233, 342.692 L 778.618, 343.848 L 778.618, 345.196 L 777.655, 346.352 L 773.417, 346.737 L 774.958, 357.717 L 795.184, 356.176 L 800, 389.887 L 777.462, 391.813 L 774.765, 373.32 L 757.428, 374.862 L 754.154, 351.746 L 749.145, 317.265 z "/>
<path style="fill:rgb(255, 0, 0);fill-opacity:0;fill-rule:evenodd;stroke:rgb(0, 255, 155);stroke-width:1;" d="M 749.145, 317.265 L 766.675, 315.724 L 764.17, 298.001 L 786.708, 296.268 L 791.524, 329.593 L 771.298, 331.134 L 772.839, 342.114 L 773.417, 346.737 L 774.958, 357.717 L 795.184, 356.176 L 800, 389.887 L 777.462, 391.813 L 774.765, 373.32 L 757.428, 374.862 L 754.154, 351.746 L 749.145, 317.265 z "/>
<path style="fill:rgb(0, 255, 0);fill-opacity:0;fill-rule:evenodd;stroke:rgb(0, 255, 155);stroke-width:1;" d="M 964.893, 153.335 L 987.238, 151.601 L 989.357, 169.323 L 1006.69, 167.975 L 1013.82, 225.957 L 996.484, 227.306 L 998.603, 245.413 L 976.258, 246.954 L 972.213, 213.243 L 992.247, 211.895 L 989.164, 185.504 L 968.938, 186.853 L 964.893, 153.335 z "/>
<path style="fill:rgb(0, 0, 255);fill-opacity:0;fill-rule:evenodd;stroke:rgb(0, 255, 155);stroke-width:1;" d="M 996.099, 402.793 L 1018.44, 401.252 L 1020.56, 419.167 L 1038.09, 418.011 L 1045.03, 475.608 L 1027.5, 476.956 L 1029.62, 495.064 L 1007.27, 496.605 L 1003.42, 463.28 L 1023.45, 461.931 L 1020.18, 435.155 L 1000.14, 436.504 L 996.099, 402.793 z "/>
<path style="fill:rgb(255, 255, 0);fill-opacity:0;fill-rule:evenodd;stroke:rgb(0, 255, 155);stroke-width:1;" d="M 19.8411, 414.544 L 33.5179, 401.83 L 52.7811, 413.773 L 57.4043, 413.003 L 62.6053, 408.187 L 68.5769, 402.408 L 70.118, 400.867 L 71.2738, 399.711 L 73.3927, 401.252 L 79.5569, 395.666 L 92.8485, 404.142 L 72.6222, 423.597 L 81.8685, 429.184 L 96.5085, 438.045 L 82.2538, 451.529 L 64.9169, 440.934 L 57.4043, 441.512 L 40.0674, 457.501 L 22.1527, 446.521 L 39.2969, 430.34 L 38.3337, 426.102 L 19.8411, 414.544 z "/>
<path style="fill:rgb(255, 0, 0);fill-opacity:0;fill-rule:evenodd;stroke:rgb(0, 255, 155);stroke-width:1;" d="M 363.882, 381.218 L 377.558, 367.927 L 397.014, 379.485 L 401.83, 379.485 L 414.929, 366.964 L 417.818, 368.505 L 423.212, 363.304 L 436.889, 371.394 L 418.396, 389.309 L 418.396, 390.85 L 440.742, 404.334 L 426.872, 417.818 L 409.15, 407.031 L 401.252, 407.609 L 384.493, 423.79 L 366.578, 413.003 L 383.145, 396.822 L 382.567, 392.391 L 363.882, 381.218 z "/>
<path style="fill:rgb(0, 255, 0);fill-opacity:0;fill-rule:evenodd;stroke:rgb(0, 255, 155);stroke-width:1;" d="M 321.117, 259.282 L 334.794, 246.183 L 353.865, 257.741 L 359.066, 257.741 L 372.165, 245.22 L 374.862, 246.954 L 380.255, 241.753 L 393.932, 250.036 L 375.439, 267.758 L 375.439, 269.107 L 397.785, 282.591 L 383.723, 296.075 L 366, 285.288 L 358.103, 285.673 L 341.344, 301.854 L 323.621, 291.259 L 340.38, 275.078 L 339.803, 270.455 L 321.117, 259.282 z "/>
<path style="fill:rgb(0, 0, 255);fill-opacity:0;fill-rule:evenodd;stroke:rgb(0, 255, 155);stroke-width:1;" d="M 177.992, 270.262 L 191.476, 257.356 L 210.161, 268.914 L 215.748, 268.721 L 229.039, 256.393 L 231.543, 257.741 L 237.13, 252.54 L 239.827, 254.274 L 250.421, 261.016 L 231.736, 278.353 L 232.507, 279.701 L 254.467, 293.378 L 240.405, 306.477 L 223.068, 295.882 L 214.784, 297.231 L 198.218, 313.027 L 180.496, 301.854 L 197.062, 286.251 L 196.292, 281.435 L 177.992, 270.262 z "/>
<path style="fill:rgb(255, 255, 0);fill-opacity:0;fill-rule:evenodd;stroke:rgb(0, 255, 155);stroke-width:1;" d="M 197.255, 397.592 L 210.739, 384.878 L 229.81, 396.436 L 234.626, 396.244 L 247.725, 383.723 L 250.614, 385.456 L 256.393, 380.063 L 269.685, 388.153 L 250.999, 405.875 L 251.385, 407.416 L 273.73, 420.901 L 259.668, 434.192 L 241.753, 423.405 L 233.855, 424.368 L 217.289, 440.164 L 199.759, 429.376 L 216.133, 413.773 L 215.362, 408.765 L 197.255, 397.592 z "/>
<path style="fill:rgb(255, 0, 0);fill-opacity:0;fill-rule:evenodd;stroke:rgb(0, 255, 155);stroke-width:1;" d="M 219.022, 751.457 L 292.415, 742.981 L 294.341, 752.613 L 301.084, 751.842 L 303.01, 762.052 L 296.268, 762.822 L 298.387, 773.609 L 224.994, 781.893 L 219.022, 751.457 z "/>
<path style="fill:rgb(0, 255, 0);fill-opacity:0;fill-rule:evenodd;stroke:rgb(0, 255, 155);stroke-width:1;" d="M 269.877, 590.994 L 272.574, 590.802 L 270.455, 578.859 L 294.149, 576.162 L 296.846, 591.38 L 308.789, 590.224 L 318.998, 648.013 L 284.132, 651.673 L 282.206, 641.079 L 279.124, 641.271 L 276.041, 623.549 L 294.919, 621.623 L 292.415, 607.368 L 273.152, 609.294 L 269.877, 590.994 z "/>
<path style="fill:rgb(0, 0, 255);fill-opacity:0;fill-rule:evenodd;stroke:rgb(0, 255, 155);stroke-width:1;" d="M 219.022, 751.457 L 292.415, 742.981 L 294.341, 752.613 L 296.268, 762.822 L 298.387, 773.609 L 224.994, 781.893 L 219.022, 751.457 z "/>
<path style="fill:rgb(255, 255, 0);fill-opacity:0;fill-rule:evenodd;stroke:rgb(0, 255, 155);stroke-width:1;" d="M 522.61, 216.326 L 574.813, 211.702 L 577.318, 228.654 L 573.465, 229.039 L 575.199, 240.597 L 579.051, 240.405 L 581.556, 255.622 L 529.352, 260.053 L 522.61, 216.326 z "/>
<path style="fill:rgb(255, 0, 0);fill-opacity:0;fill-rule:evenodd;stroke:rgb(0, 255, 155);stroke-width:1;" d="M 579.629, 576.932 L 596.773, 575.391 L 597.544, 579.437 L 616.229, 577.703 L 615.459, 573.85 L 636.841, 571.924 L 637.804, 579.437 L 642.812, 612.184 L 585.601, 617.192 L 579.629, 576.932 z "/>
<path style="fill:rgb(0, 255, 0);fill-opacity:0;fill-rule:evenodd;stroke:rgb(0, 255, 155);stroke-width:1;" d="M 510.86, 113.075 L 563.063, 108.644 L 565.567, 124.825 L 561.137, 125.211 L 562.87, 137.346 L 567.301, 137.154 L 569.612, 152.179 L 517.409, 156.61 L 510.86, 113.075 z "/>
<path style="fill:rgb(0, 0, 255);fill-opacity:0;fill-rule:evenodd;stroke:rgb(0, 255, 155);stroke-width:1;" d="M 983.963, 548.423 L 1001.69, 547.267 L 1002.26, 551.312 L 1020.95, 549.964 L 1020.56, 545.919 L 1041.37, 544.378 L 1046.38, 584.445 L 988.779, 588.49 L 983.963, 548.423 z "/>
<path style="fill:rgb(255, 255, 0);fill-opacity:0;fill-rule:evenodd;stroke:rgb(0, 255, 155);stroke-width:1;" d="M 561.907, 479.846 L 579.051, 478.497 L 579.629, 482.35 L 598.507, 480.809 L 597.929, 476.956 L 619.119, 475.03 L 624.898, 514.905 L 567.686, 519.721 L 561.907, 479.846 z "/>
<path style="fill:rgb(255, 0, 0);fill-opacity:0;fill-rule:evenodd;stroke:rgb(0, 255, 155);stroke-width:1;" d="M 78.0159, 767.638 L 142.162, 760.318 L 144.281, 771.105 L 148.134, 789.791 L 132.338, 791.717 L 133.301, 796.147 L 101.132, 800 L 100.169, 795.762 L 83.9875, 797.496 L 80.1348, 778.425 L 78.0159, 767.638 z "/>
<path style="fill:rgb(0, 255, 0);fill-opacity:0;fill-rule:evenodd;stroke:rgb(0, 255, 155);stroke-width:1;" d="M 294.727, 493.523 L 353.479, 487.551 L 355.984, 501.613 L 357.717, 516.831 L 299.928, 522.225 L 294.727, 493.523 z "/>
<path style="fill:rgb(0, 0, 255);fill-opacity:0;fill-rule:evenodd;stroke:rgb(0, 255, 155);stroke-width:1;" d="M 309.367, 545.726 L 494.293, 526.848 L 495.256, 531.856 L 367.156, 544.763 L 368.89, 554.78 L 358.873, 555.743 L 359.644, 559.981 L 312.641, 564.797 L 309.367, 545.726 z "/>
<path style="fill:rgb(255, 255, 0);fill-opacity:0;fill-rule:evenodd;stroke:rgb(0, 255, 155);stroke-width:1;" d="M 80.1348, 778.425 L 144.281, 771.105 L 148.134, 789.791 L 132.338, 791.717 L 133.301, 796.147 L 101.132, 800 L 100.169, 795.762 L 83.9875, 797.496 L 80.1348, 778.425 z "/>
<path style="fill:rgb(255, 0, 0);fill-opacity:0;fill-rule:evenodd;stroke:rgb(0, 255, 155);stroke-width:1;" d="M 816.566, 90.7296 L 825.427, 90.1517 L 863.569, 87.6475 L 882.061, 86.2991 L 884.18, 105.177 L 818.878, 109.8 L 816.566, 90.7296 z "/>
<path style="fill:rgb(0, 255, 0);fill-opacity:0;fill-rule:evenodd;stroke:rgb(0, 255, 155);stroke-width:1;" d="M 205.538, 641.079 L 228.847, 638.575 L 227.883, 632.41 L 250.421, 630.099 L 253.311, 646.28 L 249.843, 646.665 L 251.385, 655.141 L 239.056, 656.489 L 239.634, 659.571 L 209.391, 662.654 L 205.538, 641.079 z "/>
<path style="fill:rgb(0, 0, 255);fill-opacity:0;fill-rule:evenodd;stroke:rgb(0, 255, 155);stroke-width:1;" d="M 736.239, 569.998 L 745.485, 569.42 L 769.757, 567.686 L 778.81, 567.108 L 781.7, 590.802 L 776.499, 591.187 L 744.715, 593.306 L 739.128, 593.691 L 736.239, 569.998 z "/>
<path style="fill:rgb(255, 255, 0);fill-opacity:0;fill-rule:evenodd;stroke:rgb(0, 255, 155);stroke-width:1;" d="M 96.8938, 555.743 L 133.686, 552.275 L 137.732, 576.354 L 100.746, 579.822 L 96.8938, 555.743 z "/>
<path style="fill:rgb(255, 0, 0);fill-opacity:0;fill-rule:evenodd;stroke:rgb(0, 255, 155);stroke-width:1;" d="M 53.1664, 402.215 L 64.5317, 391.621 L 73.9706, 397.399 L 83.7948, 388.346 L 94.7749, 387.575 L 109.03, 396.436 L 109.993, 402.793 L 81.8685, 429.184 L 72.6222, 423.597 L 92.8485, 404.142 L 79.5569, 395.666 L 73.3927, 401.252 L 71.2738, 399.711 L 70.118, 400.867 L 68.5769, 402.408 L 62.6053, 408.187 L 53.1664, 402.215 z "/>
<path style="fill:rgb(0, 255, 0);fill-opacity:0;fill-rule:evenodd;stroke:rgb(0, 255, 155);stroke-width:1;" d="M 32.7474, 519.528 L 64.339, 516.446 L 68.9622, 543.992 L 37.3706, 547.074 L 32.7474, 519.528 z "/>
<path style="fill:rgb(0, 0, 255);fill-opacity:0;fill-rule:evenodd;stroke:rgb(0, 255, 155);stroke-width:1;" d="M 93.4264, 534.168 L 130.219, 530.701 L 133.686, 552.275 L 96.8938, 555.743 L 93.4264, 534.168 z "/>
<path style="fill:rgb(255, 255, 0);fill-opacity:0;fill-rule:evenodd;stroke:rgb(0, 255, 155);stroke-width:1;" d="M 90.1517, 514.134 L 126.944, 510.667 L 130.219, 530.701 L 93.4264, 534.168 L 90.1517, 514.134 z "/>
<path style="fill:rgb(255, 0, 0);fill-opacity:0;fill-rule:evenodd;stroke:rgb(0, 255, 155);stroke-width:1;" d="M 25.2348, 24.4642 L 41.4158, 23.1158 L 41.9937, 27.1611 L 43.9201, 40.0674 L 44.498, 44.6906 L 45.2685, 48.9285 L 45.8464, 53.7443 L 47.9653, 68.3843 L 31.5916, 69.7327 L 27.9316, 43.5348 L 25.2348, 24.4642 z "/>
<path style="fill:rgb(0, 255, 0);fill-opacity:0;fill-rule:evenodd;stroke:rgb(0, 255, 155);stroke-width:1;" d="M 78.0159, 767.638 L 142.162, 760.318 L 144.281, 771.105 L 80.1348, 778.425 L 78.0159, 767.638 z "/>
<path style="fill:rgb(0, 0, 255);fill-opacity:0;fill-rule:evenodd;stroke:rgb(0, 255, 155);stroke-width:1;" d="M 41.9937, 27.1611 L 58.7527, 25.8127 L 64.1464, 65.3022 L 62.798, 67.2285 L 47.9653, 68.3843 L 45.8464, 53.7443 L 49.3137, 53.5516 L 48.5432, 48.7359 L 45.2685, 48.9285 L 44.498, 44.6906 L 47.5801, 44.3053 L 47.0022, 39.6822 L 43.9201, 40.0674 L 41.9937, 27.1611 z "/>
<path style="fill:rgb(255, 255, 0);fill-opacity:0;fill-rule:evenodd;stroke:rgb(0, 255, 155);stroke-width:1;" d="M 119.046, 656.489 L 149.675, 654.178 L 152.564, 675.175 L 131.953, 676.716 L 121.936, 677.486 L 119.046, 656.489 z "/>
<path style="fill:rgb(255, 0, 0);fill-opacity:0;fill-rule:evenodd;stroke:rgb(0, 255, 155);stroke-width:1;" d="M 93.0412, 25.2348 L 93.4264, 24.2716 L 109.8, 22.9232 L 110.763, 29.8579 L 111.341, 33.3253 L 108.066, 33.5179 L 108.452, 36.6 L 111.726, 36.4074 L 112.69, 42.379 L 113.075, 45.8464 L 109.8, 46.039 L 110.185, 49.5064 L 113.653, 49.3137 L 115.579, 62.798 L 99.2054, 64.339 L 98.6275, 63.7611 L 97.857, 59.3306 L 98.4349, 58.5601 L 94.3896, 30.8211 L 93.8117, 29.8579 L 93.0412, 25.2348 z "/>
<path style="fill:rgb(0, 255, 0);fill-opacity:0;fill-rule:evenodd;stroke:rgb(0, 255, 155);stroke-width:1;" d="M 110.763, 29.8579 L 117.698, 29.28 L 116.928, 23.1158 L 125.596, 22.3453 L 126.366, 28.3169 L 128.293, 41.2232 L 129.256, 47.3874 L 131.182, 61.6422 L 115.579, 62.798 L 113.653, 49.3137 L 113.46, 48.7359 L 117.698, 48.3506 L 116.928, 41.9937 L 112.69, 42.379 L 111.726, 36.4074 L 111.341, 33.3253 L 110.763, 29.8579 z "/>
<path style="fill:rgb(0, 0, 255);fill-opacity:0;fill-rule:evenodd;stroke:rgb(0, 255, 155);stroke-width:1;" d="M 126.366, 28.3169 L 132.723, 27.739 L 131.76, 21.96 L 141.007, 21.1895 L 142.74, 33.1327 L 141.392, 33.1327 L 142.355, 40.2601 L 143.703, 40.2601 L 146.593, 60.2938 L 131.182, 61.6422 L 129.256, 47.3874 L 132.916, 47.1948 L 132.145, 40.8379 L 128.293, 41.2232 L 126.366, 28.3169 z "/>
<path style="fill:rgb(255, 255, 0);fill-opacity:0;fill-rule:evenodd;stroke:rgb(0, 255, 155);stroke-width:1;" d="M 209.006, 24.8495 L 225.379, 23.5011 L 226.535, 31.2064 L 229.617, 53.5516 L 213.243, 54.9001 L 211.895, 45.0758 L 209.198, 25.62 L 209.006, 24.8495 z "/>
<path style="fill:rgb(255, 0, 0);fill-opacity:0;fill-rule:evenodd;stroke:rgb(0, 255, 155);stroke-width:1;" d="M 860.872, 64.339 L 879.172, 62.9906 L 882.061, 86.2991 L 863.569, 87.6475 L 860.872, 64.339 z "/>
<path style="fill:rgb(0, 255, 0);fill-opacity:0;fill-rule:evenodd;stroke:rgb(0, 255, 155);stroke-width:1;" d="M 226.535, 31.2064 L 236.937, 30.2432 L 236.167, 25.8127 L 242.331, 25.4274 L 242.909, 29.8579 L 246.183, 52.2032 L 229.617, 53.5516 L 226.535, 31.2064 z "/>
<path style="fill:rgb(0, 0, 255);fill-opacity:0;fill-rule:evenodd;stroke:rgb(0, 255, 155);stroke-width:1;" d="M 242.909, 29.8579 L 259.282, 28.5095 L 260.824, 40.2601 L 262.365, 50.8548 L 246.183, 52.2032 L 242.909, 29.8579 z "/>
<path style="fill:rgb(255, 255, 0);fill-opacity:0;fill-rule:evenodd;stroke:rgb(0, 255, 155);stroke-width:1;" d="M 537.25, 231.351 L 564.219, 228.847 L 566.338, 242.138 L 539.369, 244.642 L 537.25, 231.351 z "/>
<path style="fill:rgb(255, 0, 0);fill-opacity:0;fill-rule:evenodd;stroke:rgb(0, 255, 155);stroke-width:1;" d="M 743.944, 556.706 L 768.216, 555.165 L 769.757, 567.686 L 745.485, 569.42 L 743.944, 556.706 z "/>
<path style="fill:rgb(0, 255, 0);fill-opacity:0;fill-rule:evenodd;stroke:rgb(0, 255, 155);stroke-width:1;" d="M 1002.65, 559.981 L 1022.1, 558.825 L 1023.45, 572.309 L 1004, 573.465 L 1002.65, 559.981 z "/>
<path style="fill:rgb(0, 0, 255);fill-opacity:0;fill-rule:evenodd;stroke:rgb(0, 255, 155);stroke-width:1;" d="M 528.582, 127.33 L 548.23, 125.596 L 550.157, 138.888 L 530.508, 140.429 L 528.582, 127.33 z "/>
<path style="fill:rgb(255, 255, 0);fill-opacity:0;fill-rule:evenodd;stroke:rgb(0, 255, 155);stroke-width:1;" d="M 581.17, 492.174 L 600.819, 490.633 L 602.938, 503.732 L 583.289, 505.466 L 581.17, 492.174 z "/>
<path style="fill:rgb(255, 0, 0);fill-opacity:0;fill-rule:evenodd;stroke:rgb(0, 255, 155);stroke-width:1;" d="M 598.7, 589.839 L 618.348, 588.105 L 620.275, 601.397 L 600.819, 602.938 L 598.7, 589.839 z "/>
<path style="fill:rgb(0, 255, 0);fill-opacity:0;fill-rule:evenodd;stroke:rgb(0, 255, 155);stroke-width:1;" d="M 249.073, 608.139 L 264.869, 606.405 L 266.795, 617.963 L 256.778, 618.926 L 258.512, 628.365 L 252.733, 628.943 L 249.073, 608.139 z "/>
<path style="fill:rgb(0, 0, 255);fill-opacity:0;fill-rule:evenodd;stroke:rgb(0, 255, 155);stroke-width:1;" d="M 48.5432, 421.478 L 63.5685, 420.901 L 64.5317, 432.266 L 49.3137, 432.844 L 48.5432, 421.478 z "/>
<path style="fill:rgb(255, 255, 0);fill-opacity:0;fill-rule:evenodd;stroke:rgb(0, 255, 155);stroke-width:1;" d="M 207.85, 276.619 L 219.986, 276.041 L 220.949, 287.599 L 208.813, 287.985 L 207.85, 276.619 z "/>
<path style="fill:rgb(255, 0, 0);fill-opacity:0;fill-rule:evenodd;stroke:rgb(0, 255, 155);stroke-width:1;" d="M 394.317, 386.997 L 406.261, 386.612 L 407.224, 397.977 L 395.088, 398.555 L 394.317, 386.997 z "/>
<path style="fill:rgb(0, 255, 0);fill-opacity:0;fill-rule:evenodd;stroke:rgb(0, 255, 155);stroke-width:1;" d="M 227.113, 404.527 L 239.249, 403.949 L 240.212, 415.507 L 228.076, 415.892 L 227.113, 404.527 z "/>
<path style="fill:rgb(0, 0, 255);fill-opacity:0;fill-rule:evenodd;stroke:rgb(0, 255, 155);stroke-width:1;" d="M 30.4358, 292.03 L 42.379, 291.452 L 43.3422, 302.817 L 31.2064, 303.395 L 30.4358, 292.03 z "/>
<path style="fill:rgb(255, 255, 0);fill-opacity:0;fill-rule:evenodd;stroke:rgb(0, 255, 155);stroke-width:1;" d="M 351.168, 266.025 L 363.111, 265.447 L 364.074, 277.005 L 351.938, 277.39 L 351.168, 266.025 z "/>
<path style="fill:rgb(255, 0, 0);fill-opacity:0;fill-rule:evenodd;stroke:rgb(0, 255, 155);stroke-width:1;" d="M 48.7359, 103.636 L 59.5232, 102.673 L 61.0643, 113.268 L 50.6622, 114.231 L 50.2769, 114.231 L 48.7359, 103.636 z "/>
<path style="fill:rgb(0, 255, 0);fill-opacity:0;fill-rule:evenodd;stroke:rgb(0, 255, 155);stroke-width:1;" d="M 910.763, 81.4833 L 920.01, 80.9054 L 920.78, 88.6106 L 911.534, 89.1885 L 910.763, 81.4833 z "/>
<path style="fill:rgb(0, 0, 255);fill-opacity:0;fill-rule:evenodd;stroke:rgb(0, 255, 155);stroke-width:1;" d="M 762.822, 358.68 L 772.068, 358.103 L 773.032, 365.808 L 763.785, 366.386 L 762.822, 358.68 z "/>
<path style="fill:rgb(255, 255, 0);fill-opacity:0;fill-rule:evenodd;stroke:rgb(0, 255, 155);stroke-width:1;" d="M 1004.19, 75.1264 L 1013.44, 74.3559 L 1014.21, 82.0612 L 1005.15, 82.6391 L 1004.19, 75.1264 z "/>
<path style="fill:rgb(255, 0, 0);fill-opacity:0;fill-rule:evenodd;stroke:rgb(0, 255, 155);stroke-width:1;" d="M 1027.11, 461.739 L 1036.36, 461.161 L 1037.32, 468.866 L 1028.08, 469.444 L 1027.11, 461.739 z "/>
<path style="fill:rgb(0, 255, 0);fill-opacity:0;fill-rule:evenodd;stroke:rgb(0, 255, 155);stroke-width:1;" d="M 995.907, 211.702 L 1005.15, 211.124 L 1005.92, 218.83 L 996.677, 219.408 L 995.907, 211.702 z "/>
<path style="fill:rgb(0, 0, 255);fill-opacity:0;fill-rule:evenodd;stroke:rgb(0, 255, 155);stroke-width:1;" d="M 1022.3, 427.45 L 1031.54, 426.872 L 1032.51, 434.577 L 1023.26, 435.155 L 1022.3, 427.45 z "/>
<path style="fill:rgb(255, 255, 0);fill-opacity:0;fill-rule:evenodd;stroke:rgb(0, 255, 155);stroke-width:1;" d="M 1006.89, 302.625 L 1016.13, 302.047 L 1017.1, 309.752 L 1007.85, 310.33 L 1006.89, 302.625 z "/>
<path style="fill:rgb(255, 0, 0);fill-opacity:0;fill-rule:evenodd;stroke:rgb(0, 255, 155);stroke-width:1;" d="M 1069.68, 171.442 L 1078.93, 170.864 L 1079.89, 178.57 L 1070.65, 179.148 L 1069.68, 171.442 z "/>
<path style="fill:rgb(0, 255, 0);fill-opacity:0;fill-rule:evenodd;stroke:rgb(0, 255, 155);stroke-width:1;" d="M 999.374, 40.8379 L 1008.43, 40.0674 L 1009.39, 47.7727 L 1000.14, 48.5432 L 999.374, 40.8379 z "/>
<path style="fill:rgb(0, 0, 255);fill-opacity:0;fill-rule:evenodd;stroke:rgb(0, 255, 155);stroke-width:1;" d="M 991.091, 177.607 L 1000.14, 176.836 L 1001.11, 184.541 L 991.861, 185.119 L 991.091, 177.607 z "/>
<path style="fill:rgb(255, 255, 0);fill-opacity:0;fill-rule:evenodd;stroke:rgb(0, 255, 155);stroke-width:1;" d="M 1011.9, 336.913 L 1021.14, 336.335 L 1021.91, 343.848 L 1012.67, 344.618 L 1011.9, 336.913 z "/>
<path style="fill:rgb(255, 0, 0);fill-opacity:0;fill-rule:evenodd;stroke:rgb(0, 255, 155);stroke-width:1;" d="M 758.006, 324.392 L 767.253, 323.814 L 768.023, 331.519 L 758.969, 332.097 L 758.006, 324.392 z "/>
<path style="fill:rgb(0, 255, 0);fill-opacity:0;fill-rule:evenodd;stroke:rgb(0, 255, 155);stroke-width:1;" d="M 905.948, 47.1948 L 915.001, 46.6169 L 915.964, 54.3222 L 906.718, 54.9001 L 905.948, 47.1948 z "/>
<path style="fill:rgb(0, 0, 255);fill-opacity:0;fill-rule:evenodd;stroke:rgb(0, 255, 155);stroke-width:1;" d="M 294.341, 752.613 L 301.084, 751.842 L 303.01, 762.052 L 296.268, 762.822 L 294.341, 752.613 z "/>
<path style="fill:rgb(255, 255, 0);fill-opacity:0;fill-rule:evenodd;stroke:rgb(0, 255, 155);stroke-width:1;" d="M 901.71, 193.402 L 907.874, 188.972 L 914.423, 194.173 L 908.066, 198.603 L 901.71, 193.402 z "/>
<path style="fill:rgb(255, 0, 0);fill-opacity:0;fill-rule:evenodd;stroke:rgb(0, 255, 155);stroke-width:1;" d="M 912.497, 294.727 L 918.854, 290.296 L 925.211, 295.497 L 919.046, 299.928 L 912.497, 294.727 z "/>
<path style="fill:rgb(0, 255, 0);fill-opacity:0;fill-rule:evenodd;stroke:rgb(0, 255, 155);stroke-width:1;" d="M 908.644, 244.642 L 914.809, 240.212 L 921.165, 245.22 L 915.001, 249.843 L 908.644, 244.642 z "/>
<path style="fill:rgb(0, 0, 255);fill-opacity:0;fill-rule:evenodd;stroke:rgb(0, 255, 155);stroke-width:1;" d="M 0, 285.288 L 13.6769, 272.574 L 32.3621, 284.325 L 37.9485, 283.939 L 51.4327, 271.418 L 53.7443, 272.767 L 59.138, 267.758 L 73.0075, 276.427 L 53.9369, 293.956 L 54.9001, 294.341 L 54.3222, 294.919 L 76.4748, 308.981 L 62.4127, 321.888 L 45.0758, 311.1 L 36.9853, 311.871 L 20.0337, 327.474 L 2.69685, 316.879 L 19.6484, 301.084 L 18.6853, 297.038 L 0, 285.288 z "/>
<path style="fill:rgb(255, 255, 0);fill-opacity:0;fill-rule:evenodd;stroke:rgb(0, 255, 155);stroke-width:1;" d="M 11.5579, 44.8832 L 27.9316, 43.5348 L 31.5916, 69.7327 L 15.4105, 71.0811 L 11.5579, 44.8832 z "/>
<path style="fill:rgb(255, 0, 0);fill-opacity:0;fill-rule:evenodd;stroke:rgb(0, 255, 155);stroke-width:1;" d="M 18.1074, 624.705 L 26.3906, 623.742 L 28.7021, 636.648 L 20.419, 637.419 L 18.1074, 624.705 z "/>
<path style="fill:rgb(0, 255, 0);fill-opacity:0;fill-rule:evenodd;stroke:rgb(0, 255, 155);stroke-width:1;" d="M 897.857, 39.6822 L 915.386, 38.3337 L 913.075, 20.419 L 935.805, 18.8779 L 940.043, 52.3959 L 920.01, 53.7443 L 923.284, 80.3275 L 943.511, 78.7864 L 947.941, 112.69 L 925.018, 114.423 L 922.706, 96.3159 L 905.37, 97.6643 L 897.857, 39.6822 z "/>
<path style="fill:rgb(0, 0, 255);fill-opacity:0;fill-rule:evenodd;stroke:rgb(0, 255, 155);stroke-width:1;" d="M 973.176, 15.9884 L 995.907, 14.4474 L 998.026, 32.5548 L 1015.56, 31.2064 L 1022.68, 88.9959 L 1004.96, 90.3443 L 1007.27, 108.452 L 984.927, 109.993 L 980.689, 76.4748 L 1000.53, 74.9338 L 997.255, 48.5432 L 977.414, 49.8916 L 973.176, 15.9884 z "/>
<path style="fill:rgb(255, 255, 0);fill-opacity:0;fill-rule:evenodd;stroke:rgb(0, 255, 155);stroke-width:1;" d="M 369.66, 4.8158 L 401.252, 2.11895 L 402.408, 11.1726 L 395.473, 11.7505 L 396.051, 15.2179 L 399.326, 15.0253 L 400.867, 26.1979 L 397.592, 26.5832 L 397.977, 29.6653 L 405.105, 29.0874 L 406.453, 39.1043 L 374.862, 41.6085 L 373.513, 31.7843 L 380.641, 31.2064 L 380.063, 27.9316 L 377.173, 28.1242 L 375.632, 16.9516 L 378.522, 16.759 L 377.944, 13.099 L 371.009, 13.6769 L 370.046, 7.70527 L 369.66, 4.8158 z "/>
<path style="fill:rgb(255, 0, 0);fill-opacity:0;fill-rule:evenodd;stroke:rgb(0, 255, 155);stroke-width:1;" d="M 293.186, 35.4443 L 301.084, 34.6737 L 300.506, 31.399 L 297.231, 31.5916 L 294.149, 8.66843 L 321.117, 6.54948 L 321.888, 11.9432 L 322.851, 18.8779 L 313.797, 19.6484 L 315.724, 33.5179 L 324.777, 32.7474 L 324.97, 34.2885 L 326.704, 45.6537 L 295.112, 48.158 L 293.378, 36.7927 L 293.186, 35.4443 z "/>
<path style="fill:rgb(0, 255, 0);fill-opacity:0;fill-rule:evenodd;stroke:rgb(0, 255, 155);stroke-width:1;" d="M 320.347, 1.34842 L 337.298, 0 L 339.032, 12.9063 L 336.528, 13.099 L 339.032, 31.0137 L 341.536, 30.8211 L 343.463, 44.3053 L 326.704, 45.6537 L 324.97, 34.2885 L 326.511, 31.9769 L 324.007, 14.0621 L 321.888, 11.9432 L 321.117, 6.54948 L 320.347, 1.34842 z "/>
<path style="fill:rgb(0, 0, 255);fill-opacity:0;fill-rule:evenodd;stroke:rgb(0, 255, 155);stroke-width:1;" d="M 256.778, 11.3653 L 274.886, 10.0169 L 276.234, 19.4558 L 276.427, 20.6116 L 274.5, 21.96 L 275.271, 26.9685 L 271.996, 27.1611 L 272.767, 32.5548 L 276.041, 32.3621 L 276.812, 37.5632 L 278.931, 38.719 L 280.472, 49.3137 L 262.365, 50.8548 L 260.824, 40.2601 L 263.135, 38.5264 L 262.557, 35.059 L 264.291, 33.3253 L 263.52, 27.9316 L 261.401, 26.5832 L 260.824, 23.1158 L 258.319, 22.1527 L 256.778, 11.3653 z "/>
<path style="fill:rgb(255, 255, 0);fill-opacity:0;fill-rule:evenodd;stroke:rgb(0, 255, 155);stroke-width:1;" d="M 162.003, 36.9853 L 166.049, 36.6 L 163.352, 18.4927 L 175.873, 17.5295 L 176.065, 18.6853 L 177.221, 26.9685 L 179.918, 46.6169 L 181.459, 57.5969 L 165.085, 58.9453 L 162.003, 36.9853 z "/>
<path style="fill:rgb(255, 0, 0);fill-opacity:0;fill-rule:evenodd;stroke:rgb(0, 255, 155);stroke-width:1;" d="M 191.476, 17.5295 L 207.85, 16.1811 L 209.006, 24.8495 L 209.198, 25.62 L 207.657, 26.9685 L 208.428, 32.1695 L 206.887, 32.3621 L 207.464, 35.8295 L 209.006, 35.6369 L 210.161, 43.7274 L 211.895, 45.0758 L 213.243, 54.9001 L 197.062, 56.2485 L 195.714, 47.1948 L 197.255, 45.6537 L 196.484, 40.6453 L 197.64, 40.6453 L 196.87, 34.4811 L 195.714, 34.4811 L 194.751, 28.7021 L 192.824, 26.9685 L 191.476, 17.5295 z "/>
<path style="fill:rgb(0, 255, 0);fill-opacity:0;fill-rule:evenodd;stroke:rgb(0, 255, 155);stroke-width:1;" d="M 176.065, 18.6853 L 191.476, 17.5295 L 192.824, 26.9685 L 191.669, 29.0874 L 192.632, 34.8664 L 191.476, 34.8664 L 192.247, 41.0306 L 193.402, 41.0306 L 194.173, 45.8464 L 195.714, 47.1948 L 197.062, 56.2485 L 181.459, 57.5969 L 179.918, 46.6169 L 181.459, 45.0758 L 180.689, 39.8748 L 182.615, 39.6822 L 181.844, 34.0958 L 179.918, 34.2885 L 179.148, 29.0874 L 177.221, 26.9685 L 176.065, 18.6853 z "/>
<path style="fill:rgb(0, 0, 255);fill-opacity:0;fill-rule:evenodd;stroke:rgb(0, 255, 155);stroke-width:1;" d="M 354.057, 9.0537 L 370.046, 7.70527 L 371.009, 13.6769 L 371.779, 19.4558 L 369.275, 21.1895 L 370.238, 27.739 L 373.128, 29.6653 L 373.513, 31.7843 L 374.862, 41.6085 L 358.873, 42.9569 L 357.525, 34.2885 L 359.066, 32.5548 L 358.488, 27.5464 L 356.562, 26.9685 L 356.176, 24.6569 L 357.91, 23.6937 L 357.139, 18.6853 L 355.213, 17.5295 L 354.057, 9.0537 z "/>
<path style="fill:rgb(255, 255, 0);fill-opacity:0;fill-rule:evenodd;stroke:rgb(0, 255, 155);stroke-width:1;" d="M 274.886, 9.43896 L 289.333, 8.28317 L 291.067, 19.4558 L 287.599, 19.8411 L 288.37, 24.8495 L 291.452, 24.6569 L 292.608, 31.7843 L 289.333, 32.1695 L 289.911, 36.9853 L 293.378, 36.7927 L 295.112, 48.158 L 280.472, 49.3137 L 278.931, 38.719 L 280.857, 37.1779 L 280.087, 31.9769 L 282.013, 31.7843 L 281.05, 26.0053 L 279.316, 26.1979 L 278.546, 20.419 L 276.234, 19.4558 L 274.886, 10.0169 L 274.886, 9.43896 z "/>
<path style="fill:rgb(255, 0, 0);fill-opacity:0;fill-rule:evenodd;stroke:rgb(0, 255, 155);stroke-width:1;" d="M 339.803, 18.6853 L 355.213, 17.5295 L 356.176, 24.6569 L 356.562, 26.9685 L 357.525, 34.2885 L 358.873, 42.9569 L 343.463, 44.3053 L 341.536, 30.8211 L 339.803, 18.6853 z "/>
</svg>