<?xml version="1.0" encoding="iso-8859-1" standalone="no"?>
<!DOCTYPE svg PUBLIC "-//W3C//DTD SVG 1.0//EN" "http://www.w3.org/TR/2001/REC-SVG-20010904/DTD/svg10.dtd">
<svg xmlns="http://www.w3.org/2000/svg" width="884" height="800">
<path style="fill:rgb(255, 0, 0);fill-opacity:0;fill-rule:evenodd;stroke:rgb(255, 0, 33);stroke-width:1;" d="M 478.62, 670.35 L 488.584, 668.306 L 489.095, 659.748 L 491.138, 650.806 L 494.46, 641.226 L 500.335, 630.88 L 511.576, 617.084 L 593.709, 534.057 L 609.037, 518.474 L 619, 509.915 L 627.048, 503.529 L 632.924, 499.569 L 630.369, 494.204 L 660.386, 484.624 L 662.558, 489.095 L 682.101, 483.474 L 685.422, 484.496 L 845.857, 536.995 L 832.445, 559.732 L 870.254, 572.505 L 867.188, 577.87 L 863.484, 584.001 L 874.086, 607.76 L 884.177, 611.592 L 777.136, 793.741 L 751.078, 795.657 L 734.728, 795.402 L 733.834, 800 L 701.517, 797.701 L 702.283, 793.102 L 683.251, 789.909 L 663.963, 785.438 L 646.08, 780.073 L 565.608, 749.8 L 538.656, 738.56 L 528.565, 732.556 L 522.05, 728.341 L 515.408, 722.848 L 509.915, 717.611 L 504.551, 711.608 L 498.419, 703.177 L 495.098, 697.429 L 488.201, 698.707 L 478.62, 670.35 z M 599.968, 656.682 L 600.096, 660.897 L 602.012, 666.262 L 604.822, 670.094 L 607.888, 672.777 L 612.231, 675.459 L 674.437, 697.813 L 700.75, 702.028 L 701.006, 701.006 L 715.44, 703.177 L 744.436, 715.568 L 748.395, 714.673 L 751.716, 713.396 L 755.804, 710.969 L 760.147, 707.52 L 797.701, 658.598 L 802.682, 650.168 L 805.493, 641.354 L 805.876, 631.008 L 804.982, 623.471 L 803.321, 615.935 L 800.255, 609.676 L 796.168, 603.034 L 790.037, 595.753 L 783.395, 590.643 L 776.497, 585.79 L 768.45, 581.447 L 727.064, 562.925 L 719.272, 561.392 L 711.097, 561.137 L 702.539, 561.648 L 692.703, 563.564 L 674.82, 586.684 L 643.525, 606.61 L 603.034, 648.507 L 600.862, 652.595 L 599.968, 656.682 z "/>
<path style="fill:rgb(0, 255, 0);fill-opacity:0;fill-rule:evenodd;stroke:rgb(255, 0, 33);stroke-width:1;" d="M 605.461, 418.202 L 695.13, 322.146 L 730.513, 335.558 L 716.717, 350.247 L 707.648, 345.394 L 701.006, 352.419 L 710.075, 357.401 L 696.791, 371.579 L 693.725, 372.346 L 690.148, 376.305 L 690.404, 378.477 L 677.12, 392.783 L 673.798, 393.805 L 670.222, 397.637 L 670.477, 399.808 L 657.193, 414.115 L 648.252, 409.261 L 641.482, 416.414 L 650.423, 421.268 L 637.394, 435.446 L 605.461, 418.202 z "/>
<path style="fill:rgb(0, 0, 255);fill-opacity:0;fill-rule:evenodd;stroke:rgb(255, 0, 33);stroke-width:1;" d="M 159.157, 527.032 L 174.741, 499.313 L 173.208, 498.802 L 179.084, 488.328 L 182.66, 481.942 L 184.321, 482.452 L 205.269, 445.026 L 216.637, 448.731 L 228.261, 452.435 L 224.685, 458.694 L 225.323, 459.971 L 221.108, 467.38 L 219.575, 467.763 L 212.678, 480.153 L 212.55, 480.409 L 213.189, 481.431 L 205.908, 494.332 L 228.006, 501.485 L 210.506, 532.652 L 159.157, 527.032 z "/>
<path style="fill:rgb(255, 255, 0);fill-opacity:0;fill-rule:evenodd;stroke:rgb(255, 0, 33);stroke-width:1;" d="M 240.779, 492.033 L 250.487, 474.916 L 263.133, 479.004 L 265.943, 474.278 L 253.169, 470.19 L 262.366, 453.968 L 275.267, 458.183 L 276.928, 455.245 L 277.056, 452.946 L 265.049, 449.114 L 274.373, 432.508 L 313.205, 445.154 L 314.482, 442.727 L 326.106, 446.431 L 313.077, 463.292 L 298.515, 458.694 L 299.154, 457.672 L 294.3, 456.011 L 295.322, 454.223 L 290.468, 452.69 L 287.658, 453.84 L 282.804, 462.27 L 292.895, 465.592 L 293.406, 464.697 L 308.351, 469.551 L 297.11, 484.113 L 282.932, 479.515 L 283.57, 478.365 L 280.505, 477.471 L 281.399, 475.81 L 275.523, 473.894 L 270.414, 482.963 L 292.384, 490.117 L 279.227, 507.233 L 269.008, 503.912 L 270.286, 501.74 L 240.779, 492.033 z "/>
<path style="fill:rgb(255, 0, 0);fill-opacity:0;fill-rule:evenodd;stroke:rgb(255, 0, 33);stroke-width:1;" d="M 80.0894, 140.891 L 93.8847, 93.8847 L 102.443, 95.1621 L 121.986, 60.2906 L 146, 68.0824 L 136.676, 84.6878 L 101.293, 147.789 L 80.0894, 140.891 z "/>
<path style="fill:rgb(0, 255, 0);fill-opacity:0;fill-rule:evenodd;stroke:rgb(255, 0, 33);stroke-width:1;" d="M 303.241, 533.929 L 309.245, 526.265 L 311.927, 527.415 L 325.722, 509.788 L 323.168, 508.51 L 329.555, 500.335 L 342.583, 506.339 L 346.415, 501.357 L 357.145, 506.211 L 359.955, 507.488 L 367.236, 497.908 L 387.29, 504.678 L 368.513, 528.82 L 361.488, 525.627 L 359.189, 528.565 L 365.831, 531.63 L 366.597, 530.736 L 374.645, 534.44 L 373.878, 535.207 L 375.028, 535.718 L 373.112, 538.272 L 374.134, 539.039 L 374.9, 539.805 L 375.283, 540.827 L 375.283, 541.849 L 375.028, 542.999 L 374.645, 543.382 L 373.751, 544.276 L 372.601, 544.787 L 371.324, 545.17 L 369.919, 545.298 L 369.28, 545.17 L 368.003, 544.787 L 365.959, 547.342 L 364.937, 546.831 L 364.298, 547.597 L 356.251, 543.893 L 356.506, 543.51 L 340.412, 536.229 L 341.817, 534.44 L 330.96, 529.459 L 327.128, 534.313 L 331.726, 536.356 L 325.722, 544.02 L 314.993, 539.167 L 313.46, 541.083 L 312.31, 541.721 L 311.033, 542.104 L 309.756, 542.232 L 308.351, 542.104 L 307.073, 541.593 L 306.051, 540.827 L 305.668, 540.444 L 305.157, 539.422 L 305.03, 538.4 L 305.285, 537.378 L 306.69, 535.462 L 303.241, 533.929 z M 338.113, 520.517 L 346.926, 524.477 L 347.821, 523.455 L 355.101, 526.649 L 357.401, 523.711 L 351.397, 521.028 L 361.488, 508.127 L 359.955, 507.488 L 350.12, 520.006 L 348.076, 519.112 L 347.437, 520.134 L 340.795, 517.068 L 338.113, 520.517 z "/>
<path style="fill:rgb(0, 0, 255);fill-opacity:0;fill-rule:evenodd;stroke:rgb(255, 0, 33);stroke-width:1;" d="M 173.846, 358.422 L 182.405, 342.967 L 185.342, 343.989 L 187.003, 341.051 L 185.598, 340.667 L 206.802, 302.73 L 217.659, 306.307 L 216.254, 308.862 L 218.042, 310.905 L 223.152, 312.566 L 224.429, 312.949 L 227.623, 311.799 L 228.772, 309.883 L 241.035, 313.843 L 209.74, 370.046 L 194.795, 365.192 L 199.521, 356.634 L 193.517, 354.718 L 188.791, 363.276 L 173.846, 358.422 z M 209.357, 330.193 L 216.893, 332.62 L 219.831, 327.128 L 212.294, 324.701 L 209.357, 330.193 z M 202.331, 342.583 L 209.995, 345.01 L 213.061, 339.518 L 205.397, 337.091 L 202.331, 342.583 z "/>
<path style="fill:rgb(255, 255, 0);fill-opacity:0;fill-rule:evenodd;stroke:rgb(255, 0, 33);stroke-width:1;" d="M 445.537, 543.893 L 469.296, 503.018 L 489.861, 509.532 L 490.244, 511.065 L 501.613, 514.769 L 503.145, 511.831 L 501.102, 511.193 L 501.868, 509.788 L 509.277, 512.215 L 508.127, 514.258 L 513.875, 516.047 L 521.156, 508.383 L 519.623, 507.872 L 520.773, 505.828 L 517.324, 504.806 L 521.667, 500.335 L 513.747, 497.781 L 518.857, 488.839 L 529.076, 492.16 L 526.649, 496.503 L 538.017, 500.208 L 539.167, 498.164 L 541.849, 499.058 L 543.126, 496.759 L 550.024, 498.93 L 544.531, 509.021 L 541.338, 507.999 L 540.188, 509.915 L 544.531, 514.769 L 488.711, 532.78 L 484.752, 525.754 L 486.285, 523.583 L 480.92, 521.922 L 477.982, 527.16 L 482.197, 534.951 L 446.687, 545.809 L 445.537, 543.893 z "/>
<path style="fill:rgb(255, 0, 0);fill-opacity:0;fill-rule:evenodd;stroke:rgb(255, 0, 33);stroke-width:1;" d="M 303.369, 151.876 L 320.23, 121.731 L 307.329, 117.516 L 308.223, 115.983 L 303.88, 114.578 L 307.456, 108.191 L 311.799, 109.596 L 320.741, 93.757 L 358.422, 105.892 L 328.022, 159.923 L 303.369, 151.876 z "/>
<path style="fill:rgb(0, 255, 0);fill-opacity:0;fill-rule:evenodd;stroke:rgb(255, 0, 33);stroke-width:1;" d="M 567.14, 460.482 L 600.862, 424.461 L 615.168, 432.253 L 616.318, 432.764 L 618.234, 430.72 L 619.639, 431.487 L 620.533, 430.337 L 634.967, 438.256 L 595.242, 480.792 L 580.808, 473 L 581.702, 472.106 L 580.552, 471.467 L 582.852, 468.913 L 567.14, 460.482 z "/>
<path style="fill:rgb(0, 0, 255);fill-opacity:0;fill-rule:evenodd;stroke:rgb(255, 0, 33);stroke-width:1;" d="M 481.686, 134.376 L 492.288, 118.41 L 511.959, 124.669 L 515.408, 118.41 L 496.759, 112.406 L 506.85, 97.0781 L 524.349, 102.954 L 527.926, 96.6949 L 511.193, 91.2023 L 522.306, 74.5968 L 552.706, 84.9433 L 511.448, 141.657 L 495.481, 136.548 L 494.332, 138.464 L 481.686, 134.376 z "/>
<path style="fill:rgb(255, 255, 0);fill-opacity:0;fill-rule:evenodd;stroke:rgb(255, 0, 33);stroke-width:1;" d="M 522.944, 145.362 L 564.33, 88.3921 L 594.603, 98.6109 L 582.468, 114.322 L 561.265, 107.297 L 557.688, 113.684 L 577.87, 120.326 L 566.502, 135.015 L 549.002, 129.012 L 545.17, 135.398 L 561.903, 141.146 L 550.024, 156.475 L 537.761, 152.643 L 538.911, 150.343 L 522.944, 145.362 z "/>
<path style="fill:rgb(255, 0, 0);fill-opacity:0;fill-rule:evenodd;stroke:rgb(255, 0, 33);stroke-width:1;" d="M 580.552, 342.967 L 592.943, 326.744 L 600.096, 329.938 L 598.818, 331.598 L 604.95, 334.408 L 611.464, 326.106 L 605.205, 323.296 L 604.183, 324.701 L 597.03, 321.507 L 609.42, 305.413 L 618.617, 309.5 L 622.322, 311.161 L 618.873, 315.631 L 628.581, 319.974 L 628.836, 319.591 L 634.456, 322.018 L 637.65, 317.931 L 650.423, 323.679 L 637.905, 339.901 L 628.325, 335.686 L 628.836, 334.919 L 623.854, 332.748 L 619.256, 338.751 L 633.818, 345.138 L 621.555, 361.233 L 608.654, 355.485 L 611.975, 351.142 L 596.647, 344.372 L 593.326, 348.715 L 580.552, 342.967 z "/>
<path style="fill:rgb(0, 255, 0);fill-opacity:0;fill-rule:evenodd;stroke:rgb(255, 0, 33);stroke-width:1;" d="M 414.242, 235.031 L 416.414, 234.648 L 417.436, 230.944 L 415.392, 230.305 L 423.95, 217.532 L 426.122, 218.17 L 428.293, 214.338 L 436.085, 216.893 L 452.052, 222.002 L 450.263, 225.196 L 455.245, 226.728 L 455.884, 225.707 L 463.548, 228.133 L 464.697, 226.217 L 487.179, 233.498 L 484.879, 237.586 L 486.795, 238.224 L 471.723, 257.129 L 466.358, 255.341 L 465.592, 256.746 L 453.712, 252.914 L 454.479, 251.637 L 449.114, 249.848 L 454.99, 239.374 L 453.201, 238.863 L 454.606, 236.308 L 450.774, 235.031 L 449.369, 237.586 L 447.453, 236.947 L 441.45, 247.421 L 435.957, 245.505 L 435.191, 246.783 L 423.95, 243.078 L 424.589, 241.929 L 420.629, 240.524 L 418.33, 241.035 L 416.797, 240.013 L 416.158, 239.374 L 415.137, 238.097 L 414.753, 237.33 L 414.37, 235.798 L 414.242, 235.031 z "/>
<path style="fill:rgb(0, 0, 255);fill-opacity:0;fill-rule:evenodd;stroke:rgb(255, 0, 33);stroke-width:1;" d="M 376.688, 424.206 L 389.079, 408.239 L 399.936, 413.093 L 398.659, 414.753 L 407.856, 418.841 L 412.582, 412.837 L 416.158, 408.239 L 406.962, 404.024 L 405.429, 406.067 L 394.571, 401.213 L 407.6, 384.48 L 418.33, 389.334 L 416.797, 391.25 L 439.789, 401.469 L 425.355, 419.99 L 425.611, 421.779 L 416.797, 437.362 L 378.988, 425.228 L 376.688, 424.206 z "/>
<path style="fill:rgb(255, 255, 0);fill-opacity:0;fill-rule:evenodd;stroke:rgb(255, 0, 33);stroke-width:1;" d="M 397.509, 101.166 L 409.644, 78.9398 L 423.95, 83.4105 L 422.928, 85.3265 L 450.774, 94.0125 L 457.417, 96.0562 L 458.183, 94.6511 L 472.617, 99.1218 L 468.274, 107.169 L 467.508, 106.914 L 463.803, 113.684 L 462.398, 113.3 L 458.438, 120.837 L 444.26, 116.366 L 445.282, 114.705 L 435.063, 111.512 L 440.556, 101.166 L 433.147, 98.8664 L 427.527, 109.085 L 414.242, 104.998 L 413.604, 106.275 L 397.509, 101.166 z "/>
<path style="fill:rgb(255, 0, 0);fill-opacity:0;fill-rule:evenodd;stroke:rgb(255, 0, 33);stroke-width:1;" d="M 573.016, 66.805 L 578.509, 59.3965 L 581.447, 60.5461 L 601.118, 33.7219 L 614.274, 37.6816 L 616.19, 37.2984 L 636.5, 44.1961 L 625.515, 59.141 L 613.891, 54.9258 L 615.041, 53.2652 L 605.588, 50.0719 L 600.096, 59.5242 L 609.42, 62.5898 L 610.825, 60.5461 L 621.683, 64.5058 L 610.825, 79.1953 L 573.016, 66.805 z "/>
<path style="fill:rgb(0, 255, 0);fill-opacity:0;fill-rule:evenodd;stroke:rgb(255, 0, 33);stroke-width:1;" d="M 536.229, 54.6703 L 546.575, 39.2144 L 556.794, 42.9187 L 555.389, 44.8347 L 564.458, 47.7726 L 570.972, 38.959 L 560.498, 35.3824 L 559.093, 37.2984 L 549.768, 33.7219 L 560.37, 19.2879 L 594.348, 31.5504 L 575.06, 57.8636 L 578.509, 59.3965 L 573.016, 66.805 L 536.229, 54.6703 z "/>
<path style="fill:rgb(0, 0, 255);fill-opacity:0;fill-rule:evenodd;stroke:rgb(255, 0, 33);stroke-width:1;" d="M 259.173, 345.905 L 277.056, 314.099 L 310.522, 324.956 L 298.515, 346.288 L 302.73, 347.565 L 301.708, 349.481 L 296.855, 358.167 L 283.059, 353.696 L 261.983, 346.926 L 259.173, 345.905 z "/>
<path style="fill:rgb(255, 255, 0);fill-opacity:0;fill-rule:evenodd;stroke:rgb(255, 0, 33);stroke-width:1;" d="M 335.686, 368.513 L 343.478, 354.718 L 351.525, 357.401 L 350.886, 358.422 L 353.952, 359.444 L 357.401, 353.441 L 345.01, 349.481 L 351.269, 338.368 L 398.02, 353.569 L 397.765, 353.824 L 388.951, 365.448 L 371.835, 359.828 L 372.601, 358.55 L 367.619, 356.89 L 362.893, 365.065 L 383.969, 371.962 L 375.028, 383.714 L 363.404, 380.01 L 364.554, 377.838 L 335.686, 368.513 z "/>
<path style="fill:rgb(255, 0, 0);fill-opacity:0;fill-rule:evenodd;stroke:rgb(255, 0, 33);stroke-width:1;" d="M 393.038, 481.942 L 398.659, 473.511 L 404.279, 475.427 L 408.494, 467.891 L 410.027, 467.38 L 411.049, 465.592 L 405.173, 463.676 L 410.794, 455.245 L 440.683, 464.953 L 456.395, 470.19 L 440.3, 498.419 L 421.906, 492.416 L 422.417, 491.649 L 417.563, 489.989 L 422.801, 480.664 L 427.399, 482.197 L 427.016, 482.836 L 429.954, 483.73 L 435.191, 474.661 L 427.271, 472.106 L 427.91, 470.956 L 422.673, 469.296 L 421.523, 471.212 L 422.417, 472.489 L 413.221, 488.584 L 393.038, 481.942 z "/>
<path style="fill:rgb(0, 255, 0);fill-opacity:0;fill-rule:evenodd;stroke:rgb(255, 0, 33);stroke-width:1;" d="M 247.932, 134.504 L 254.447, 123.136 L 263.516, 126.074 L 265.56, 125.691 L 273.224, 128.245 L 275.395, 127.479 L 278.333, 122.497 L 277.311, 120.709 L 269.264, 118.027 L 268.753, 116.877 L 259.556, 113.811 L 266.198, 102.315 L 278.844, 106.658 L 277.694, 108.574 L 301.453, 116.494 L 300.559, 118.027 L 311.799, 121.731 L 305.54, 132.588 L 295.322, 129.267 L 297.365, 125.691 L 291.617, 123.775 L 285.869, 133.866 L 291.617, 135.654 L 292.895, 133.355 L 303.241, 136.803 L 296.982, 147.533 L 264.41, 136.803 L 261.472, 136.42 L 260.323, 138.592 L 258.662, 138.081 L 247.932, 134.504 z "/>
<path style="fill:rgb(0, 0, 255);fill-opacity:0;fill-rule:evenodd;stroke:rgb(255, 0, 33);stroke-width:1;" d="M 0, 463.42 L 7.79179, 425.611 L 49.6886, 439.278 L 48.4113, 441.322 L 41.5137, 453.712 L 30.1453, 450.008 L 31.2949, 447.837 L 18.0105, 443.621 L 16.6055, 455.117 L 25.5469, 458.055 L 26.9519, 455.501 L 38.3203, 459.205 L 30.4008, 473.383 L 0, 463.42 z "/>
<path style="fill:rgb(255, 255, 0);fill-opacity:0;fill-rule:evenodd;stroke:rgb(255, 0, 33);stroke-width:1;" d="M 464.186, 388.696 L 489.989, 355.101 L 501.102, 360.083 L 498.164, 363.915 L 507.872, 368.258 L 509.532, 369.024 L 512.47, 365.065 L 524.222, 370.302 L 513.364, 384.225 L 499.186, 377.838 L 500.335, 376.178 L 492.288, 372.601 L 485.007, 381.926 L 493.182, 385.502 L 494.715, 383.586 L 509.021, 389.973 L 498.164, 403.896 L 486.412, 398.659 L 489.478, 394.827 L 478.237, 389.845 L 475.299, 393.549 L 464.186, 388.696 z "/>
<path style="fill:rgb(255, 0, 0);fill-opacity:0;fill-rule:evenodd;stroke:rgb(255, 0, 33);stroke-width:1;" d="M 79.7062, 233.882 L 98.1, 201.309 L 117.899, 207.696 L 127.734, 210.889 L 109.341, 243.589 L 79.7062, 233.882 z "/>
<path style="fill:rgb(0, 255, 0);fill-opacity:0;fill-rule:evenodd;stroke:rgb(255, 0, 33);stroke-width:1;" d="M 507.999, 333.897 L 516.685, 322.529 L 528.054, 327.511 L 530.608, 326.872 L 531.758, 325.467 L 528.82, 324.062 L 530.481, 322.018 L 518.09, 316.526 L 526.776, 305.285 L 561.903, 320.996 L 558.838, 324.956 L 552.579, 333.131 L 540.061, 327.511 L 535.973, 332.748 L 548.619, 338.368 L 539.039, 350.758 L 526.138, 345.138 L 527.16, 343.733 L 525.371, 341.689 L 507.999, 333.897 z "/>
<path style="fill:rgb(0, 0, 255);fill-opacity:0;fill-rule:evenodd;stroke:rgb(255, 0, 33);stroke-width:1;" d="M 263.771, 194.412 L 268.114, 186.62 L 272.33, 179.211 L 277.056, 170.653 L 315.121, 182.916 L 316.142, 183.299 L 302.73, 207.057 L 263.771, 194.412 z "/>
<path style="fill:rgb(255, 255, 0);fill-opacity:0;fill-rule:evenodd;stroke:rgb(255, 0, 33);stroke-width:1;" d="M 511.32, 479.898 L 515.919, 471.595 L 581.83, 492.799 L 566.246, 503.145 L 547.214, 513.236 L 544.531, 509.021 L 550.024, 498.93 L 550.535, 498.164 L 512.726, 486.029 L 514.642, 482.452 L 515.408, 481.175 L 511.32, 479.898 z "/>
<path style="fill:rgb(255, 0, 0);fill-opacity:0;fill-rule:evenodd;stroke:rgb(255, 0, 33);stroke-width:1;" d="M 62.4621, 264.41 L 79.7062, 233.882 L 109.341, 243.589 L 92.0964, 274.118 L 87.2425, 272.585 L 62.4621, 264.41 z "/>
<path style="fill:rgb(0, 255, 0);fill-opacity:0;fill-rule:evenodd;stroke:rgb(255, 0, 33);stroke-width:1;" d="M 128.501, 445.793 L 144.212, 418.074 L 159.029, 422.928 L 158.135, 424.717 L 160.945, 425.611 L 163.244, 421.651 L 164.777, 422.162 L 177.423, 426.249 L 169.503, 440.172 L 157.241, 436.213 L 155.836, 438.767 L 154.559, 441.067 L 166.821, 445.026 L 159.285, 458.183 L 146.384, 453.968 L 147.533, 452.052 L 128.501, 445.793 z "/>
<path style="fill:rgb(0, 0, 255);fill-opacity:0;fill-rule:evenodd;stroke:rgb(255, 0, 33);stroke-width:1;" d="M 277.056, 170.653 L 290.085, 147.661 L 303.369, 151.876 L 328.022, 159.923 L 315.121, 182.916 L 277.056, 170.653 z "/>
<path style="fill:rgb(255, 255, 0);fill-opacity:0;fill-rule:evenodd;stroke:rgb(255, 0, 33);stroke-width:1;" d="M 43.9406, 297.238 L 62.4621, 264.41 L 87.2425, 272.585 L 68.7211, 305.285 L 43.9406, 297.238 z "/>
<path style="fill:rgb(255, 0, 0);fill-opacity:0;fill-rule:evenodd;stroke:rgb(255, 0, 33);stroke-width:1;" d="M 607.888, 304.774 L 617.34, 292.001 L 679.419, 316.27 L 669.839, 328.788 L 620.661, 306.946 L 618.617, 309.5 L 609.42, 305.413 L 607.888, 304.774 z "/>
<path style="fill:rgb(0, 255, 0);fill-opacity:0;fill-rule:evenodd;stroke:rgb(255, 0, 33);stroke-width:1;" d="M 395.976, 531.247 L 412.71, 501.229 L 409.133, 500.08 L 411.688, 495.481 L 437.873, 503.912 L 420.118, 535.718 L 418.585, 538.528 L 395.976, 531.247 z "/>
<path style="fill:rgb(0, 0, 255);fill-opacity:0;fill-rule:evenodd;stroke:rgb(255, 0, 33);stroke-width:1;" d="M 203.608, 444.515 L 217.276, 420.118 L 227.75, 423.567 L 228.389, 423.822 L 226.984, 426.249 L 255.341, 435.446 L 244.483, 454.99 L 226.217, 448.986 L 229.028, 444.132 L 220.725, 441.45 L 216.637, 448.731 L 205.269, 445.026 L 203.608, 444.515 z "/>
<path style="fill:rgb(255, 255, 0);fill-opacity:0;fill-rule:evenodd;stroke:rgb(255, 0, 33);stroke-width:1;" d="M 478.876, 36.0211 L 484.879, 25.4191 L 487.306, 26.1855 L 487.945, 25.0359 L 490.627, 25.9301 L 494.715, 18.9047 L 489.606, 17.1164 L 493.693, 9.83554 L 508.766, 14.6894 L 509.149, 13.923 L 527.926, 20.0543 L 520.645, 30.5285 L 507.999, 26.441 L 505.317, 31.1672 L 517.452, 35.1269 L 509.788, 46.2398 L 478.876, 36.0211 z "/>
<path style="fill:rgb(255, 0, 0);fill-opacity:0;fill-rule:evenodd;stroke:rgb(255, 0, 33);stroke-width:1;" d="M 306.051, 31.1672 L 319.591, 7.28086 L 333.897, 12.007 L 328.66, 21.2039 L 334.408, 23.1199 L 339.646, 13.923 L 355.101, 19.0324 L 346.032, 34.7437 L 347.054, 35.1269 L 342.456, 43.1742 L 330.193, 39.0867 L 332.62, 34.8715 L 324.317, 32.189 L 321.635, 31.2949 L 319.208, 35.5101 L 306.562, 31.2949 L 306.051, 31.1672 z "/>
<path style="fill:rgb(0, 255, 0);fill-opacity:0;fill-rule:evenodd;stroke:rgb(255, 0, 33);stroke-width:1;" d="M 277.95, 392.144 L 283.315, 382.692 L 291.234, 385.247 L 297.11, 374.645 L 297.365, 374.262 L 289.446, 371.707 L 294.3, 363.021 L 325.978, 373.24 L 325.467, 374.262 L 319.974, 383.969 L 309.117, 380.393 L 308.478, 381.542 L 303.88, 380.01 L 300.687, 385.758 L 305.285, 387.29 L 304.646, 388.44 L 315.504, 392.017 L 309.628, 402.363 L 277.95, 392.144 z "/>
<path style="fill:rgb(0, 0, 255);fill-opacity:0;fill-rule:evenodd;stroke:rgb(255, 0, 33);stroke-width:1;" d="M 425.866, 440.172 L 434.552, 425.1 L 435.319, 425.355 L 437.618, 422.545 L 463.548, 432.508 L 465.464, 430.976 L 476.577, 435.191 L 466.103, 453.457 L 451.158, 448.603 L 455.884, 440.428 L 449.753, 438.384 L 445.026, 446.559 L 425.866, 440.172 z "/>
<path style="fill:rgb(255, 255, 0);fill-opacity:0;fill-rule:evenodd;stroke:rgb(255, 0, 33);stroke-width:1;" d="M 195.689, 115.855 L 206.802, 96.5671 L 218.681, 100.399 L 228.9, 103.848 L 230.305, 101.549 L 239.119, 104.487 L 225.323, 128.245 L 215.488, 125.052 L 216.765, 122.88 L 195.689, 115.855 z "/>
<path style="fill:rgb(255, 0, 0);fill-opacity:0;fill-rule:evenodd;stroke:rgb(255, 0, 33);stroke-width:1;" d="M 479.259, 485.007 L 492.927, 460.482 L 504.551, 464.186 L 517.707, 468.402 L 515.919, 471.595 L 511.32, 479.898 L 515.408, 481.175 L 514.642, 482.452 L 512.726, 486.029 L 508.638, 484.752 L 504.04, 493.054 L 479.259, 485.007 z "/>
<path style="fill:rgb(0, 255, 0);fill-opacity:0;fill-rule:evenodd;stroke:rgb(255, 0, 33);stroke-width:1;" d="M 98.1, 201.309 L 115.983, 169.503 L 135.782, 176.018 L 117.899, 207.696 L 98.1, 201.309 z "/>
<path style="fill:rgb(0, 0, 255);fill-opacity:0;fill-rule:evenodd;stroke:rgb(255, 0, 33);stroke-width:1;" d="M 314.354, 403.896 L 322.785, 388.823 L 346.16, 396.36 L 349.353, 397.381 L 350.503, 395.338 L 362.765, 399.297 L 349.992, 415.392 L 314.354, 403.896 z "/>
<path style="fill:rgb(255, 255, 0);fill-opacity:0;fill-rule:evenodd;stroke:rgb(255, 0, 33);stroke-width:1;" d="M 610.059, 120.581 L 620.022, 106.53 L 623.216, 105.509 L 659.748, 118.154 L 659.365, 118.665 L 647.868, 133.355 L 637.905, 129.778 L 640.46, 125.563 L 639.438, 123.775 L 637.65, 123.136 L 636.5, 125.18 L 627.303, 121.986 L 628.197, 120.581 L 626.026, 119.815 L 624.493, 120.581 L 621.938, 124.796 L 610.059, 120.581 z "/>
<path style="fill:rgb(255, 0, 0);fill-opacity:0;fill-rule:evenodd;stroke:rgb(255, 0, 33);stroke-width:1;" d="M 218.17, 533.418 L 229.794, 512.981 L 253.553, 520.645 L 254.702, 518.601 L 257.001, 519.368 L 267.22, 522.689 L 255.724, 537.634 L 247.421, 536.995 L 249.465, 533.546 L 237.458, 529.586 L 234.265, 530.225 L 231.455, 535.079 L 218.17, 533.418 z "/>
<path style="fill:rgb(0, 255, 0);fill-opacity:0;fill-rule:evenodd;stroke:rgb(255, 0, 33);stroke-width:1;" d="M 559.221, 263.899 L 570.717, 249.465 L 585.662, 256.363 L 584.895, 257.385 L 592.432, 260.833 L 595.37, 257.129 L 607.76, 262.749 L 596.008, 277.567 L 570.206, 265.687 L 568.29, 267.987 L 559.221, 263.899 z "/>
<path style="fill:rgb(0, 0, 255);fill-opacity:0;fill-rule:evenodd;stroke:rgb(255, 0, 33);stroke-width:1;" d="M 155.836, 390.356 L 164.65, 374.772 L 200.032, 386.269 L 191.091, 402.235 L 179.211, 398.276 L 181.894, 393.805 L 170.525, 390.101 L 168.098, 394.316 L 155.836, 390.356 z "/>
<path style="fill:rgb(255, 255, 0);fill-opacity:0;fill-rule:evenodd;stroke:rgb(255, 0, 33);stroke-width:1;" d="M 441.578, 417.819 L 451.924, 404.279 L 462.143, 408.75 L 460.61, 410.794 L 460.099, 412.71 L 470.701, 417.308 L 469.551, 418.841 L 472.745, 420.118 L 476.577, 415.137 L 486.285, 419.479 L 476.577, 435.191 L 465.464, 430.976 L 466.23, 428.676 L 441.578, 417.819 z "/>
<path style="fill:rgb(255, 0, 0);fill-opacity:0;fill-rule:evenodd;stroke:rgb(255, 0, 33);stroke-width:1;" d="M 564.33, 179.85 L 576.337, 164.139 L 587.706, 169.12 L 583.618, 174.23 L 596.136, 179.85 L 599.968, 174.868 L 605.461, 177.295 L 610.953, 179.722 L 598.818, 195.561 L 587.706, 190.707 L 590.771, 186.748 L 588.983, 185.853 L 589.494, 185.342 L 581.063, 181.51 L 580.552, 182.149 L 578.253, 181.127 L 575.443, 184.704 L 564.33, 179.85 z "/>
<path style="fill:rgb(0, 255, 0);fill-opacity:0;fill-rule:evenodd;stroke:rgb(255, 0, 33);stroke-width:1;" d="M 246.399, 225.834 L 249.337, 220.597 L 254.702, 211.145 L 292.767, 223.535 L 286.891, 234.009 L 269.264, 228.389 L 266.965, 232.476 L 246.399, 225.834 z "/>
<path style="fill:rgb(0, 0, 255);fill-opacity:0;fill-rule:evenodd;stroke:rgb(255, 0, 33);stroke-width:1;" d="M 554.239, 296.727 L 558.582, 291.106 L 560.498, 288.552 L 567.779, 291.745 L 569.951, 288.807 L 568.929, 286.764 L 571.867, 282.932 L 566.629, 280.632 L 572.25, 273.351 L 591.538, 282.037 L 573.527, 305.413 L 554.239, 296.727 z "/>
<path style="fill:rgb(255, 255, 0);fill-opacity:0;fill-rule:evenodd;stroke:rgb(255, 0, 33);stroke-width:1;" d="M 230.433, 164.905 L 239.119, 149.705 L 250.104, 153.281 L 248.316, 156.475 L 248.826, 157.88 L 254.064, 159.54 L 255.341, 157.241 L 275.012, 163.755 L 268.498, 175.124 L 252.148, 169.631 L 252.658, 168.865 L 244.611, 166.182 L 242.567, 166.566 L 241.418, 168.609 L 230.433, 164.905 z "/>
<path style="fill:rgb(255, 0, 0);fill-opacity:0;fill-rule:evenodd;stroke:rgb(255, 0, 33);stroke-width:1;" d="M 239.119, 149.705 L 247.932, 134.504 L 258.662, 138.081 L 257.512, 140.125 L 258.534, 141.274 L 266.454, 143.957 L 266.965, 142.935 L 283.698, 148.555 L 277.311, 159.668 L 257.768, 153.153 L 258.79, 151.365 L 253.553, 149.577 L 252.148, 149.832 L 250.104, 153.281 L 239.119, 149.705 z "/>
<path style="fill:rgb(0, 255, 0);fill-opacity:0;fill-rule:evenodd;stroke:rgb(255, 0, 33);stroke-width:1;" d="M 163.755, 288.169 L 176.657, 264.41 L 182.916, 266.454 L 195.306, 270.286 L 182.532, 294.044 L 163.755, 288.169 z "/>
<path style="fill:rgb(0, 0, 255);fill-opacity:0;fill-rule:evenodd;stroke:rgb(255, 0, 33);stroke-width:1;" d="M 149.321, 404.662 L 155.708, 393.422 L 170.27, 398.148 L 169.759, 399.17 L 172.569, 400.064 L 173.208, 399.042 L 177.806, 400.575 L 179.084, 398.403 L 179.211, 398.276 L 191.091, 402.235 L 181.894, 418.33 L 172.441, 415.137 L 173.846, 412.582 L 149.321, 404.662 z "/>
<path style="fill:rgb(255, 255, 0);fill-opacity:0;fill-rule:evenodd;stroke:rgb(255, 0, 33);stroke-width:1;" d="M 34.1051, 314.354 L 43.9406, 297.238 L 68.7211, 305.285 L 59.0133, 322.529 L 34.1051, 314.354 z "/>
<path style="fill:rgb(255, 0, 0);fill-opacity:0;fill-rule:evenodd;stroke:rgb(255, 0, 33);stroke-width:1;" d="M 102.443, 392.144 L 111.384, 376.433 L 120.709, 379.371 L 119.432, 381.798 L 120.453, 382.181 L 119.559, 383.714 L 123.519, 385.119 L 132.077, 387.801 L 133.866, 387.035 L 135.398, 384.225 L 145.617, 387.546 L 136.676, 403.257 L 127.479, 400.192 L 128.884, 397.765 L 127.862, 397.381 L 128.628, 395.976 L 115.089, 391.633 L 114.067, 393.294 L 113.173, 393.038 L 111.895, 395.21 L 102.443, 392.144 z "/>
<path style="fill:rgb(0, 255, 0);fill-opacity:0;fill-rule:evenodd;stroke:rgb(255, 0, 33);stroke-width:1;" d="M 335.686, 79.1953 L 344.755, 62.8453 L 354.335, 65.9109 L 352.802, 68.4656 L 352.674, 70.3816 L 364.426, 74.2136 L 366.597, 70.1261 L 377.072, 73.4472 L 368.13, 89.5418 L 357.784, 86.3484 L 360.083, 82.2609 L 347.565, 78.3011 L 345.394, 82.2609 L 335.686, 79.1953 z "/>
<path style="fill:rgb(0, 0, 255);fill-opacity:0;fill-rule:evenodd;stroke:rgb(255, 0, 33);stroke-width:1;" d="M 173.719, 263.516 L 182.277, 246.144 L 197.605, 219.192 L 206.802, 222.13 L 191.601, 249.082 L 182.916, 266.454 L 176.657, 264.41 L 173.719, 263.516 z "/>
<path style="fill:rgb(255, 255, 0);fill-opacity:0;fill-rule:evenodd;stroke:rgb(255, 0, 33);stroke-width:1;" d="M 470.062, 498.93 L 477.088, 486.285 L 489.733, 490.372 L 488.456, 492.544 L 514.003, 500.719 L 506.083, 508.255 L 483.73, 501.102 L 482.708, 503.018 L 470.062, 498.93 z "/>
<path style="fill:rgb(255, 0, 0);fill-opacity:0;fill-rule:evenodd;stroke:rgb(255, 0, 33);stroke-width:1;" d="M 229.411, 508.383 L 231.582, 504.295 L 231.071, 502.507 L 232.476, 500.08 L 234.52, 499.058 L 236.692, 495.226 L 263.26, 503.784 L 256.746, 515.663 L 255.98, 516.941 L 229.411, 508.383 z "/>
<path style="fill:rgb(0, 255, 0);fill-opacity:0;fill-rule:evenodd;stroke:rgb(255, 0, 33);stroke-width:1;" d="M 492.927, 460.482 L 500.591, 446.815 L 512.342, 451.924 L 509.532, 455.628 L 523.583, 461.887 L 526.393, 458.311 L 537.634, 463.292 L 531.886, 470.829 L 505.7, 462.015 L 504.551, 464.186 L 492.927, 460.482 z "/>
<path style="fill:rgb(0, 0, 255);fill-opacity:0;fill-rule:evenodd;stroke:rgb(255, 0, 33);stroke-width:1;" d="M 224.429, 407.345 L 230.688, 396.36 L 266.454, 407.856 L 261.472, 416.797 L 240.268, 409.899 L 240.779, 409.133 L 237.458, 408.111 L 235.798, 411.049 L 224.429, 407.345 z "/>
<path style="fill:rgb(255, 255, 0);fill-opacity:0;fill-rule:evenodd;stroke:rgb(255, 0, 33);stroke-width:1;" d="M 217.276, 420.118 L 224.429, 407.345 L 235.798, 411.049 L 234.265, 413.859 L 237.586, 414.881 L 237.969, 414.115 L 257.896, 420.629 L 253.169, 429.187 L 232.093, 422.417 L 232.476, 421.779 L 229.283, 420.757 L 227.75, 423.567 L 217.276, 420.118 z "/>
<path style="fill:rgb(255, 0, 0);fill-opacity:0;fill-rule:evenodd;stroke:rgb(255, 0, 33);stroke-width:1;" d="M 558.071, 372.09 L 565.48, 362.382 L 577.231, 367.619 L 573.91, 371.962 L 588.089, 378.221 L 591.41, 373.878 L 602.14, 378.605 L 594.731, 388.312 L 558.071, 372.09 z "/>
<path style="fill:rgb(0, 255, 0);fill-opacity:0;fill-rule:evenodd;stroke:rgb(255, 0, 33);stroke-width:1;" d="M 221.236, 180.616 L 225.579, 172.952 L 268.114, 186.62 L 263.771, 194.412 L 221.236, 180.616 z "/>
<path style="fill:rgb(0, 0, 255);fill-opacity:0;fill-rule:evenodd;stroke:rgb(255, 0, 33);stroke-width:1;" d="M 572.633, 353.185 L 579.914, 343.605 L 592.432, 349.226 L 591.793, 349.992 L 591.027, 349.609 L 588.217, 353.313 L 602.395, 359.7 L 605.844, 355.101 L 616.574, 359.955 L 609.293, 369.408 L 572.633, 353.185 z "/>
<path style="fill:rgb(255, 255, 0);fill-opacity:0;fill-rule:evenodd;stroke:rgb(255, 0, 33);stroke-width:1;" d="M 261.983, 425.1 L 270.797, 409.516 L 291.362, 416.158 L 291.106, 416.669 L 282.548, 431.742 L 261.983, 425.1 z "/>
<path style="fill:rgb(255, 0, 0);fill-opacity:0;fill-rule:evenodd;stroke:rgb(255, 0, 33);stroke-width:1;" d="M 225.579, 172.952 L 229.794, 165.416 L 272.33, 179.211 L 268.114, 186.62 L 225.579, 172.952 z "/>
<path style="fill:rgb(0, 255, 0);fill-opacity:0;fill-rule:evenodd;stroke:rgb(255, 0, 33);stroke-width:1;" d="M 565.48, 362.382 L 572.633, 353.185 L 609.293, 369.408 L 602.14, 378.605 L 591.41, 373.878 L 594.731, 369.663 L 580.552, 363.276 L 577.231, 367.619 L 565.48, 362.382 z "/>
<path style="fill:rgb(0, 0, 255);fill-opacity:0;fill-rule:evenodd;stroke:rgb(255, 0, 33);stroke-width:1;" d="M 551.046, 381.287 L 558.071, 372.09 L 594.731, 388.312 L 587.578, 397.509 L 576.848, 392.783 L 580.425, 388.185 L 566.246, 381.926 L 562.67, 386.524 L 551.046, 381.287 z "/>
<path style="fill:rgb(255, 255, 0);fill-opacity:0;fill-rule:evenodd;stroke:rgb(255, 0, 33);stroke-width:1;" d="M 65.7832, 456.65 L 73.575, 442.216 L 83.666, 445.41 L 83.155, 446.304 L 82.5164, 446.048 L 81.6222, 447.837 L 82.2609, 449.114 L 85.0711, 448.347 L 99.1218, 452.69 L 93.3738, 463.292 L 79.4507, 458.822 L 78.4289, 456.267 L 76.1297, 457.289 L 74.98, 459.46 L 65.7832, 456.65 z "/>
<path style="fill:rgb(255, 0, 0);fill-opacity:0;fill-rule:evenodd;stroke:rgb(255, 0, 33);stroke-width:1;" d="M 525.754, 413.987 L 532.141, 405.684 L 569.312, 422.162 L 562.925, 430.465 L 551.684, 425.483 L 554.75, 421.395 L 544.276, 416.797 L 540.699, 415.137 L 537.506, 419.224 L 525.754, 413.987 z "/>
<path style="fill:rgb(0, 255, 0);fill-opacity:0;fill-rule:evenodd;stroke:rgb(255, 0, 33);stroke-width:1;" d="M 500.591, 446.815 L 506.977, 438.512 L 544.02, 454.99 L 537.634, 463.292 L 526.393, 458.311 L 529.459, 454.351 L 515.28, 447.964 L 512.342, 451.924 L 500.591, 446.815 z "/>
<path style="fill:rgb(0, 0, 255);fill-opacity:0;fill-rule:evenodd;stroke:rgb(255, 0, 33);stroke-width:1;" d="M 544.659, 389.462 L 551.046, 381.287 L 562.67, 386.524 L 559.732, 390.356 L 573.91, 396.615 L 576.848, 392.783 L 587.578, 397.509 L 588.089, 397.765 L 581.83, 405.94 L 544.659, 389.462 z "/>
<path style="fill:rgb(255, 255, 0);fill-opacity:0;fill-rule:evenodd;stroke:rgb(255, 0, 33);stroke-width:1;" d="M 519.495, 422.162 L 525.754, 413.987 L 537.506, 419.224 L 534.44, 423.056 L 534.696, 423.184 L 548.619, 429.443 L 551.684, 425.483 L 562.925, 430.465 L 556.538, 438.64 L 519.495, 422.162 z "/>
<path style="fill:rgb(255, 0, 0);fill-opacity:0;fill-rule:evenodd;stroke:rgb(255, 0, 33);stroke-width:1;" d="M 506.977, 438.512 L 513.236, 430.337 L 524.988, 435.574 L 521.922, 439.406 L 536.101, 445.793 L 539.039, 441.833 L 550.407, 446.815 L 544.02, 454.99 L 506.977, 438.512 z "/>
<path style="fill:rgb(0, 255, 0);fill-opacity:0;fill-rule:evenodd;stroke:rgb(255, 0, 33);stroke-width:1;" d="M 513.236, 430.337 L 519.495, 422.162 L 556.538, 438.64 L 550.407, 446.815 L 539.039, 441.833 L 542.104, 438.001 L 536.484, 435.446 L 527.926, 431.742 L 524.988, 435.574 L 513.236, 430.337 z "/>
<path style="fill:rgb(0, 0, 255);fill-opacity:0;fill-rule:evenodd;stroke:rgb(255, 0, 33);stroke-width:1;" d="M 532.141, 405.684 L 538.4, 397.509 L 550.152, 402.746 L 547.086, 406.706 L 561.265, 413.093 L 564.33, 409.005 L 575.571, 413.987 L 569.312, 422.162 L 532.141, 405.684 z "/>
<path style="fill:rgb(255, 255, 0);fill-opacity:0;fill-rule:evenodd;stroke:rgb(255, 0, 33);stroke-width:1;" d="M 538.4, 397.509 L 544.659, 389.462 L 581.83, 405.94 L 575.571, 413.987 L 564.33, 409.005 L 567.396, 405.046 L 553.217, 398.787 L 550.152, 402.746 L 538.4, 397.509 z "/>
<path style="fill:rgb(255, 0, 0);fill-opacity:0;fill-rule:evenodd;stroke:rgb(255, 0, 33);stroke-width:1;" d="M 455.501, 405.046 L 463.548, 394.316 L 467.508, 395.976 L 468.019, 395.338 L 471.723, 396.998 L 473.128, 395.21 L 486.668, 401.086 L 484.752, 403.768 L 488.839, 405.429 L 485.646, 409.644 L 481.814, 407.983 L 479.259, 411.304 L 467.252, 405.94 L 464.825, 409.261 L 455.501, 405.046 z "/>
<path style="fill:rgb(0, 255, 0);fill-opacity:0;fill-rule:evenodd;stroke:rgb(255, 0, 33);stroke-width:1;" d="M 119.304, 246.527 L 124.924, 236.436 L 134.76, 239.63 L 131.822, 244.994 L 143.701, 248.826 L 145.362, 249.337 L 148.3, 244.1 L 159.029, 247.549 L 153.409, 257.64 L 130.8, 250.232 L 119.304, 246.527 z "/>
<path style="fill:rgb(0, 0, 255);fill-opacity:0;fill-rule:evenodd;stroke:rgb(255, 0, 33);stroke-width:1;" d="M 434.424, 357.656 L 440.428, 349.481 L 473.511, 363.404 L 468.657, 370.046 L 458.822, 365.959 L 458.311, 366.47 L 446.815, 361.616 L 446.176, 362.51 L 434.424, 357.656 z "/>
<path style="fill:rgb(255, 255, 0);fill-opacity:0;fill-rule:evenodd;stroke:rgb(255, 0, 33);stroke-width:1;" d="M 110.873, 468.146 L 116.621, 457.8 L 120.198, 458.949 L 120.581, 458.311 L 140.763, 464.697 L 134.249, 476.321 L 114.194, 469.935 L 114.578, 469.296 L 110.873, 468.146 z "/>
<path style="fill:rgb(255, 0, 0);fill-opacity:0;fill-rule:evenodd;stroke:rgb(255, 0, 33);stroke-width:1;" d="M 246.016, 238.863 L 250.615, 230.688 L 265.304, 235.414 L 282.932, 241.162 L 278.333, 249.21 L 246.016, 238.863 z "/>
<path style="fill:rgb(0, 255, 0);fill-opacity:0;fill-rule:evenodd;stroke:rgb(255, 0, 33);stroke-width:1;" d="M 437.235, 346.926 L 439.406, 343.989 L 444.515, 346.032 L 445.793, 344.244 L 438.895, 341.306 L 440.428, 339.262 L 447.326, 342.2 L 450.008, 338.496 L 475.683, 349.353 L 474.278, 351.269 L 472.106, 350.247 L 469.296, 354.08 L 468.274, 353.569 L 467.38, 354.974 L 456.395, 350.247 L 453.712, 353.824 L 437.235, 346.926 z "/>
<path style="fill:rgb(0, 0, 255);fill-opacity:0;fill-rule:evenodd;stroke:rgb(255, 0, 33);stroke-width:1;" d="M 98.7386, 281.526 L 104.103, 271.946 L 114.067, 275.14 L 111.384, 279.994 L 117.771, 282.037 L 125.307, 284.464 L 127.99, 279.61 L 137.953, 282.804 L 132.588, 292.512 L 98.7386, 281.526 z "/>
<path style="fill:rgb(255, 255, 0);fill-opacity:0;fill-rule:evenodd;stroke:rgb(255, 0, 33);stroke-width:1;" d="M 136.676, 216.51 L 142.296, 206.546 L 175.251, 217.404 L 169.631, 227.367 L 160.179, 224.174 L 163.117, 218.937 L 149.194, 214.466 L 146.256, 219.703 L 136.676, 216.51 z "/>
<path style="fill:rgb(255, 0, 0);fill-opacity:0;fill-rule:evenodd;stroke:rgb(255, 0, 33);stroke-width:1;" d="M 131.055, 226.473 L 136.676, 216.51 L 146.256, 219.703 L 143.318, 224.812 L 150.343, 227.112 L 157.241, 229.411 L 160.179, 224.174 L 169.631, 227.367 L 164.011, 237.33 L 131.055, 226.473 z "/>
<path style="fill:rgb(0, 255, 0);fill-opacity:0;fill-rule:evenodd;stroke:rgb(255, 0, 33);stroke-width:1;" d="M 468.274, 166.821 L 473.128, 159.923 L 484.496, 164.522 L 488.584, 158.774 L 499.952, 163.5 L 496.631, 168.098 L 498.164, 168.737 L 492.416, 176.657 L 468.274, 166.821 z "/>
<path style="fill:rgb(0, 0, 255);fill-opacity:0;fill-rule:evenodd;stroke:rgb(255, 0, 33);stroke-width:1;" d="M 424.589, 391.122 L 435.574, 376.433 L 455.884, 385.247 L 449.88, 393.294 L 438.64, 388.568 L 433.786, 395.082 L 424.589, 391.122 z "/>
<path style="fill:rgb(255, 255, 0);fill-opacity:0;fill-rule:evenodd;stroke:rgb(255, 0, 33);stroke-width:1;" d="M 505.317, 269.519 L 505.317, 268.114 L 505.828, 266.709 L 506.722, 265.56 L 507.233, 264.921 L 506.977, 262.494 L 508.766, 260.195 L 511.959, 259.045 L 527.798, 266.071 L 527.16, 266.837 L 529.842, 268.114 L 524.86, 274.373 L 522.306, 273.224 L 518.346, 278.205 L 515.28, 278.716 L 512.47, 277.439 L 511.193, 275.14 L 509.532, 274.629 L 507.999, 273.862 L 507.361, 273.351 L 506.339, 272.202 L 505.956, 271.563 L 505.317, 270.158 L 505.317, 269.519 z "/>
<path style="fill:rgb(255, 0, 0);fill-opacity:0;fill-rule:evenodd;stroke:rgb(255, 0, 33);stroke-width:1;" d="M 142.296, 206.546 L 147.533, 197.35 L 157.113, 200.415 L 154.559, 204.886 L 161.328, 207.185 L 168.226, 209.357 L 170.781, 204.886 L 180.616, 208.079 L 175.251, 217.404 L 142.296, 206.546 z "/>
<path style="fill:rgb(0, 255, 0);fill-opacity:0;fill-rule:evenodd;stroke:rgb(255, 0, 33);stroke-width:1;" d="M 147.533, 197.35 L 152.898, 187.897 L 185.853, 198.755 L 180.616, 208.079 L 170.781, 204.886 L 173.463, 200.16 L 159.796, 195.689 L 157.113, 200.415 L 147.533, 197.35 z "/>
<path style="fill:rgb(0, 0, 255);fill-opacity:0;fill-rule:evenodd;stroke:rgb(255, 0, 33);stroke-width:1;" d="M 157.752, 178.317 L 162.989, 169.248 L 182.149, 175.635 L 195.944, 180.233 L 190.707, 189.302 L 181.255, 186.109 L 183.81, 181.766 L 171.803, 177.806 L 170.142, 177.295 L 167.587, 181.638 L 157.752, 178.317 z "/>
<path style="fill:rgb(255, 255, 0);fill-opacity:0;fill-rule:evenodd;stroke:rgb(255, 0, 33);stroke-width:1;" d="M 586.3, 161.839 L 594.475, 151.621 L 613.125, 160.179 L 620.406, 163.628 L 617.723, 166.949 L 618.617, 167.46 L 617.084, 169.503 L 611.975, 167.204 L 611.081, 168.226 L 605.716, 165.671 L 604.567, 167.076 L 595.753, 162.989 L 593.837, 165.416 L 586.3, 161.839 z "/>
<path style="fill:rgb(255, 0, 0);fill-opacity:0;fill-rule:evenodd;stroke:rgb(255, 0, 33);stroke-width:1;" d="M 451.924, 334.408 L 458.311, 326.106 L 485.646, 337.985 L 484.496, 339.518 L 487.306, 340.667 L 486.029, 342.2 L 483.347, 341.051 L 481.942, 342.967 L 480.792, 342.456 L 478.748, 345.266 L 472.361, 342.456 L 473.128, 341.434 L 465.081, 337.985 L 463.803, 339.646 L 451.924, 334.408 z "/>
<path style="fill:rgb(0, 255, 0);fill-opacity:0;fill-rule:evenodd;stroke:rgb(255, 0, 33);stroke-width:1;" d="M 301.708, 349.481 L 302.73, 347.565 L 314.354, 327 L 318.953, 328.405 L 319.847, 328.022 L 320.996, 327.766 L 322.146, 327.766 L 323.551, 328.405 L 324.317, 329.044 L 324.828, 330.321 L 319.974, 338.879 L 317.675, 338.113 L 308.095, 355.101 L 303.752, 353.696 L 305.413, 350.758 L 301.708, 349.481 z "/>
<path style="fill:rgb(0, 0, 255);fill-opacity:0;fill-rule:evenodd;stroke:rgb(255, 0, 33);stroke-width:1;" d="M 501.485, 344.499 L 506.467, 337.857 L 506.977, 338.113 L 508.255, 338.624 L 510.043, 338.496 L 512.726, 339.518 L 513.236, 340.795 L 525.882, 346.415 L 525.499, 346.799 L 534.568, 350.758 L 529.842, 356.89 L 501.485, 344.499 z "/>
<path style="fill:rgb(255, 255, 0);fill-opacity:0;fill-rule:evenodd;stroke:rgb(255, 0, 33);stroke-width:1;" d="M 510.299, 255.98 L 517.068, 246.91 L 537.123, 255.596 L 541.21, 257.385 L 538.528, 260.961 L 534.951, 259.428 L 531.502, 263.771 L 515.28, 256.746 L 514.386, 257.768 L 510.299, 255.98 z "/>
<path style="fill:rgb(255, 0, 0);fill-opacity:0;fill-rule:evenodd;stroke:rgb(255, 0, 33);stroke-width:1;" d="M 163.244, 89.6695 L 167.076, 82.5164 L 195.689, 91.33 L 191.857, 98.4832 L 163.244, 89.6695 z "/>
<path style="fill:rgb(0, 255, 0);fill-opacity:0;fill-rule:evenodd;stroke:rgb(255, 0, 33);stroke-width:1;" d="M 415.647, 67.8269 L 429.187, 44.707 L 431.997, 43.3019 L 437.745, 44.9625 L 433.786, 52.3711 L 424.078, 70.7648 L 415.647, 67.8269 z "/>
<path style="fill:rgb(0, 0, 255);fill-opacity:0;fill-rule:evenodd;stroke:rgb(255, 0, 33);stroke-width:1;" d="M 347.054, 52.6265 L 351.014, 45.8566 L 380.137, 55.5644 L 376.305, 62.3343 L 347.054, 52.6265 z "/>
<path style="fill:rgb(255, 255, 0);fill-opacity:0;fill-rule:evenodd;stroke:rgb(255, 0, 33);stroke-width:1;" d="M 376.944, 136.548 L 380.521, 130.161 L 396.871, 135.526 L 411.049, 140.125 L 407.472, 146.511 L 398.787, 143.701 L 379.243, 137.314 L 376.944, 136.548 z "/>
<path style="fill:rgb(255, 0, 0);fill-opacity:0;fill-rule:evenodd;stroke:rgb(255, 0, 33);stroke-width:1;" d="M 463.292, 322.401 L 467.763, 316.142 L 490.755, 325.595 L 485.135, 333.514 L 479.259, 331.087 L 479.131, 331.471 L 471.212, 328.149 L 471.723, 327.511 L 467.508, 325.722 L 466.486, 325.722 L 465.592, 325.467 L 464.953, 324.828 L 464.57, 324.19 L 464.57, 323.806 L 464.953, 323.04 L 463.292, 322.401 z "/>
<path style="fill:rgb(0, 255, 0);fill-opacity:0;fill-rule:evenodd;stroke:rgb(255, 0, 33);stroke-width:1;" d="M 499.697, 357.912 L 504.806, 351.269 L 530.225, 362.638 L 525.116, 369.152 L 499.697, 357.912 z "/>
<path style="fill:rgb(0, 0, 255);fill-opacity:0;fill-rule:evenodd;stroke:rgb(255, 0, 33);stroke-width:1;" d="M 228.261, 212.294 L 232.86, 204.119 L 254.702, 211.145 L 249.337, 220.597 L 244.867, 219.192 L 245.633, 217.915 L 241.546, 216.637 L 240.907, 217.915 L 235.287, 216.126 L 235.925, 214.849 L 228.261, 212.294 z "/>
<path style="fill:rgb(255, 255, 0);fill-opacity:0;fill-rule:evenodd;stroke:rgb(255, 0, 33);stroke-width:1;" d="M 257.001, 519.368 L 266.198, 503.018 L 269.008, 503.912 L 279.227, 507.233 L 267.22, 522.689 L 257.001, 519.368 z "/>
<path style="fill:rgb(255, 0, 0);fill-opacity:0;fill-rule:evenodd;stroke:rgb(255, 0, 33);stroke-width:1;" d="M 342.711, 60.8015 L 346.543, 54.1593 L 374.772, 63.484 L 371.068, 69.9984 L 342.711, 60.8015 z "/>
<path style="fill:rgb(0, 255, 0);fill-opacity:0;fill-rule:evenodd;stroke:rgb(255, 0, 33);stroke-width:1;" d="M 302.092, 39.0867 L 306.562, 31.2949 L 319.208, 35.5101 L 330.193, 39.0867 L 325.722, 46.8785 L 323.806, 46.2398 L 307.073, 40.7472 L 302.092, 39.0867 z "/>
<path style="fill:rgb(0, 0, 255);fill-opacity:0;fill-rule:evenodd;stroke:rgb(255, 0, 33);stroke-width:1;" d="M 183.554, 141.913 L 187.386, 135.143 L 189.047, 135.654 L 214.466, 143.829 L 210.634, 150.726 L 183.554, 141.913 z "/>
<path style="fill:rgb(255, 255, 0);fill-opacity:0;fill-rule:evenodd;stroke:rgb(255, 0, 33);stroke-width:1;" d="M 331.854, 86.0929 L 335.686, 79.1953 L 345.394, 82.2609 L 357.784, 86.3484 L 368.13, 89.5418 L 365.959, 93.5015 L 353.952, 89.6695 L 352.291, 92.6074 L 331.854, 86.0929 z "/>
<path style="fill:rgb(255, 0, 0);fill-opacity:0;fill-rule:evenodd;stroke:rgb(255, 0, 33);stroke-width:1;" d="M 206.674, 206.802 L 211.911, 197.35 L 232.86, 204.119 L 228.261, 212.294 L 221.236, 209.995 L 220.597, 211.273 L 215.105, 209.484 L 215.743, 208.207 L 213.827, 207.696 L 213.189, 208.846 L 206.674, 206.802 z "/>
<path style="fill:rgb(0, 255, 0);fill-opacity:0;fill-rule:evenodd;stroke:rgb(255, 0, 33);stroke-width:1;" d="M 152.004, 416.414 L 155.708, 409.899 L 167.332, 413.731 L 166.438, 415.264 L 168.609, 416.031 L 169.631, 414.242 L 172.441, 415.137 L 181.894, 418.33 L 177.423, 426.249 L 164.777, 422.162 L 165.544, 420.757 L 152.004, 416.414 z "/>
<path style="fill:rgb(0, 0, 255);fill-opacity:0;fill-rule:evenodd;stroke:rgb(255, 0, 33);stroke-width:1;" d="M 297.365, 65.0168 L 301.198, 58.5023 L 324.445, 66.5496 L 323.806, 67.5715 L 327.255, 68.8488 L 326.744, 69.7429 L 324.317, 73.8304 L 314.354, 70.3816 L 313.332, 72.2976 L 304.774, 69.3597 L 305.668, 67.8269 L 297.365, 65.0168 z "/>
<path style="fill:rgb(255, 255, 0);fill-opacity:0;fill-rule:evenodd;stroke:rgb(255, 0, 33);stroke-width:1;" d="M 179.978, 151.876 L 183.81, 144.978 L 209.612, 153.281 L 205.78, 160.179 L 202.97, 159.285 L 182.916, 152.898 L 179.978, 151.876 z "/>
<path style="fill:rgb(255, 0, 0);fill-opacity:0;fill-rule:evenodd;stroke:rgb(255, 0, 33);stroke-width:1;" d="M 299.281, 280.632 L 300.431, 278.461 L 302.219, 278.078 L 303.624, 275.395 L 329.299, 283.187 L 327.894, 285.869 L 327.766, 285.869 L 325.595, 289.957 L 299.665, 282.037 L 299.281, 280.632 z "/>
<path style="fill:rgb(0, 255, 0);fill-opacity:0;fill-rule:evenodd;stroke:rgb(255, 0, 33);stroke-width:1;" d="M 139.614, 381.159 L 146.639, 369.024 L 159.668, 373.367 L 150.726, 389.079 L 146.128, 387.546 L 148.172, 383.969 L 139.614, 381.159 z "/>
<path style="fill:rgb(0, 0, 255);fill-opacity:0;fill-rule:evenodd;stroke:rgb(255, 0, 33);stroke-width:1;" d="M 194.028, 126.329 L 197.86, 119.559 L 223.407, 127.99 L 219.575, 134.76 L 194.028, 126.329 z "/>
<path style="fill:rgb(255, 255, 0);fill-opacity:0;fill-rule:evenodd;stroke:rgb(255, 0, 33);stroke-width:1;" d="M 398.914, 296.727 L 401.597, 291.745 L 407.728, 293.661 L 408.494, 292.256 L 424.844, 297.493 L 425.994, 295.449 L 431.997, 297.493 L 429.187, 302.603 L 424.972, 301.325 L 423.822, 303.369 L 421.651, 303.88 L 420.757, 303.624 L 398.914, 296.727 z "/>
<path style="fill:rgb(255, 0, 0);fill-opacity:0;fill-rule:evenodd;stroke:rgb(255, 0, 33);stroke-width:1;" d="M 390.484, 308.734 L 393.166, 303.88 L 401.98, 306.69 L 417.563, 311.544 L 419.863, 312.31 L 416.031, 319.336 L 397.381, 313.46 L 399.17, 310.267 L 397.509, 309.756 L 395.465, 310.394 L 390.484, 308.734 z "/>
<path style="fill:rgb(0, 255, 0);fill-opacity:0;fill-rule:evenodd;stroke:rgb(255, 0, 33);stroke-width:1;" d="M 396.232, 301.581 L 398.914, 296.727 L 420.757, 303.624 L 420.374, 304.519 L 424.078, 305.668 L 420.885, 311.544 L 418.074, 310.65 L 417.563, 311.544 L 401.98, 306.69 L 403.513, 303.88 L 396.232, 301.581 z "/>
<path style="fill:rgb(0, 0, 255);fill-opacity:0;fill-rule:evenodd;stroke:rgb(255, 0, 33);stroke-width:1;" d="M 189.047, 135.654 L 192.751, 129.012 L 218.17, 137.314 L 214.466, 143.829 L 189.047, 135.654 z "/>
<path style="fill:rgb(255, 255, 0);fill-opacity:0;fill-rule:evenodd;stroke:rgb(255, 0, 33);stroke-width:1;" d="M 417.18, 277.694 L 418.713, 275.14 L 444.004, 283.698 L 439.789, 290.851 L 419.352, 283.953 L 420.757, 281.654 L 417.947, 280.632 L 419.224, 278.461 L 417.18, 277.694 z "/>
<path style="fill:rgb(255, 0, 0);fill-opacity:0;fill-rule:evenodd;stroke:rgb(255, 0, 33);stroke-width:1;" d="M 37.8094, 402.619 L 41.6414, 395.849 L 66.1664, 403.64 L 62.4621, 410.41 L 37.8094, 402.619 z "/>
<path style="fill:rgb(0, 255, 0);fill-opacity:0;fill-rule:evenodd;stroke:rgb(255, 0, 33);stroke-width:1;" d="M 128.245, 457.544 L 132.46, 450.136 L 154.559, 457.289 L 151.237, 463.037 L 149.066, 462.398 L 148.555, 463.42 L 147.022, 462.909 L 146.128, 464.442 L 139.869, 462.398 L 140.38, 461.504 L 128.245, 457.544 z "/>
<path style="fill:rgb(0, 0, 255);fill-opacity:0;fill-rule:evenodd;stroke:rgb(255, 0, 33);stroke-width:1;" d="M 477.343, 148.683 L 480.664, 142.168 L 506.467, 149.705 L 503.784, 154.814 L 503.018, 156.347 L 477.343, 148.683 z "/>
<path style="fill:rgb(255, 255, 0);fill-opacity:0;fill-rule:evenodd;stroke:rgb(255, 0, 33);stroke-width:1;" d="M 528.82, 239.757 L 533.546, 233.243 L 536.356, 234.392 L 537.889, 232.221 L 547.342, 236.053 L 545.681, 238.224 L 553.217, 241.418 L 548.491, 247.932 L 528.82, 239.757 z "/>
<path style="fill:rgb(255, 0, 0);fill-opacity:0;fill-rule:evenodd;stroke:rgb(255, 0, 33);stroke-width:1;" d="M 383.842, 124.285 L 387.29, 118.282 L 414.37, 127.096 L 411.049, 133.099 L 400.192, 129.65 L 383.842, 124.285 z "/>
<path style="fill:rgb(0, 255, 0);fill-opacity:0;fill-rule:evenodd;stroke:rgb(255, 0, 33);stroke-width:1;" d="M 266.071, 20.4375 L 268.753, 15.7113 L 287.53, 12.9012 L 290.851, 14.1785 L 283.826, 26.3133 L 266.071, 20.4375 z "/>
<path style="fill:rgb(0, 0, 255);fill-opacity:0;fill-rule:evenodd;stroke:rgb(255, 0, 33);stroke-width:1;" d="M 226.856, 279.227 L 229.028, 275.395 L 232.604, 276.673 L 234.648, 273.096 L 258.023, 280.76 L 254.319, 287.147 L 230.305, 279.227 L 229.794, 280.249 L 226.856, 279.227 z "/>
<path style="fill:rgb(255, 255, 0);fill-opacity:0;fill-rule:evenodd;stroke:rgb(255, 0, 33);stroke-width:1;" d="M 76.8961, 436.34 L 80.0894, 430.465 L 107.808, 439.406 L 104.487, 445.41 L 76.8961, 436.34 z "/>
<path style="fill:rgb(255, 0, 0);fill-opacity:0;fill-rule:evenodd;stroke:rgb(255, 0, 33);stroke-width:1;" d="M 234.776, 64.6336 L 239.119, 57.0972 L 260.45, 64.2504 L 256.107, 71.7867 L 234.776, 64.6336 z "/>
<path style="fill:rgb(0, 255, 0);fill-opacity:0;fill-rule:evenodd;stroke:rgb(255, 0, 33);stroke-width:1;" d="M 230.305, 72.1699 L 234.776, 64.6336 L 256.107, 71.7867 L 251.764, 79.323 L 230.305, 72.1699 z "/>
<path style="fill:rgb(0, 0, 255);fill-opacity:0;fill-rule:evenodd;stroke:rgb(255, 0, 33);stroke-width:1;" d="M 113.045, 372.218 L 119.943, 360.211 L 133.355, 364.554 L 126.329, 376.688 L 113.045, 372.218 z "/>
<path style="fill:rgb(255, 255, 0);fill-opacity:0;fill-rule:evenodd;stroke:rgb(255, 0, 33);stroke-width:1;" d="M 126.329, 376.688 L 133.355, 364.554 L 146.639, 369.024 L 139.614, 381.159 L 126.329, 376.688 z "/>
<path style="fill:rgb(255, 0, 0);fill-opacity:0;fill-rule:evenodd;stroke:rgb(255, 0, 33);stroke-width:1;" d="M 249.593, 41.8969 L 253.936, 34.3605 L 275.14, 41.3859 L 270.797, 48.9222 L 249.593, 41.8969 z "/>
<path style="fill:rgb(0, 255, 0);fill-opacity:0;fill-rule:evenodd;stroke:rgb(255, 0, 33);stroke-width:1;" d="M 253.936, 34.3605 L 258.279, 26.8242 L 279.483, 33.8496 L 278.972, 34.7437 L 275.14, 41.3859 L 253.936, 34.3605 z "/>
<path style="fill:rgb(0, 0, 255);fill-opacity:0;fill-rule:evenodd;stroke:rgb(255, 0, 33);stroke-width:1;" d="M 245.378, 49.4332 L 249.593, 41.8969 L 270.797, 48.9222 L 266.454, 56.4586 L 245.378, 49.4332 z "/>
<path style="fill:rgb(255, 255, 0);fill-opacity:0;fill-rule:evenodd;stroke:rgb(255, 0, 33);stroke-width:1;" d="M 258.279, 26.8242 L 262.622, 19.2879 L 266.071, 20.4375 L 283.826, 26.3133 L 279.483, 33.8496 L 258.279, 26.8242 z "/>
<path style="fill:rgb(255, 0, 0);fill-opacity:0;fill-rule:evenodd;stroke:rgb(255, 0, 33);stroke-width:1;" d="M 387.29, 118.282 L 390.739, 112.023 L 412.582, 119.176 L 411.177, 121.731 L 417.691, 123.775 L 415.647, 127.479 L 414.37, 127.096 L 387.29, 118.282 z "/>
<path style="fill:rgb(0, 255, 0);fill-opacity:0;fill-rule:evenodd;stroke:rgb(255, 0, 33);stroke-width:1;" d="M 73.575, 442.216 L 76.8961, 436.34 L 104.487, 445.41 L 101.549, 451.03 L 83.666, 445.41 L 73.575, 442.216 z "/>
<path style="fill:rgb(0, 0, 255);fill-opacity:0;fill-rule:evenodd;stroke:rgb(255, 0, 33);stroke-width:1;" d="M 565.224, 14.9449 L 566.502, 12.3902 L 568.418, 12.1348 L 569.823, 9.3246 L 591.921, 16.2223 L 588.089, 23.1199 L 588.089, 23.2476 L 565.991, 16.35 L 565.224, 14.9449 z "/>
<path style="fill:rgb(255, 255, 0);fill-opacity:0;fill-rule:evenodd;stroke:rgb(255, 0, 33);stroke-width:1;" d="M 80.0894, 430.465 L 83.0273, 424.844 L 111.001, 433.53 L 107.808, 439.406 L 80.0894, 430.465 z "/>
<path style="fill:rgb(255, 0, 0);fill-opacity:0;fill-rule:evenodd;stroke:rgb(255, 0, 33);stroke-width:1;" d="M 337.219, 207.951 L 341.051, 201.182 L 364.426, 208.718 L 360.594, 215.616 L 337.219, 207.951 z "/>
<path style="fill:rgb(0, 255, 0);fill-opacity:0;fill-rule:evenodd;stroke:rgb(255, 0, 33);stroke-width:1;" d="M 88.6476, 423.056 L 91.7132, 417.691 L 120.837, 427.271 L 119.687, 429.315 L 117.771, 432.636 L 88.6476, 423.056 z "/>
<path style="fill:rgb(0, 0, 255);fill-opacity:0;fill-rule:evenodd;stroke:rgb(255, 0, 33);stroke-width:1;" d="M 466.103, 221.747 L 470.19, 214.594 L 493.949, 222.385 L 495.481, 222.896 L 494.076, 225.323 L 492.416, 224.812 L 491.394, 226.728 L 490.372, 226.345 L 489.606, 227.623 L 488.073, 227.112 L 487.562, 228.006 L 471.467, 222.896 L 471.212, 223.28 L 470.318, 222.896 L 470.318, 223.152 L 466.103, 221.747 z "/>
<path style="fill:rgb(255, 255, 0);fill-opacity:0;fill-rule:evenodd;stroke:rgb(255, 0, 33);stroke-width:1;" d="M 147.278, 122.114 L 148.81, 119.559 L 147.789, 118.027 L 148.938, 116.11 L 150.854, 115.727 L 151.11, 115.216 L 173.335, 122.625 L 169.376, 129.523 L 147.278, 122.114 z "/>
<path style="fill:rgb(255, 0, 0);fill-opacity:0;fill-rule:evenodd;stroke:rgb(255, 0, 33);stroke-width:1;" d="M 234.648, 273.096 L 238.48, 266.326 L 261.855, 274.118 L 258.023, 280.76 L 234.648, 273.096 z "/>
<path style="fill:rgb(0, 255, 0);fill-opacity:0;fill-rule:evenodd;stroke:rgb(255, 0, 33);stroke-width:1;" d="M 22.8644, 415.264 L 25.5469, 410.41 L 31.5504, 412.454 L 32.3168, 411.177 L 51.9879, 417.563 L 50.8383, 419.607 L 51.6047, 420.246 L 51.8601, 421.012 L 51.8601, 421.906 L 51.7324, 422.29 L 51.0937, 423.056 L 50.5828, 423.312 L 49.5609, 423.695 L 48.539, 423.695 L 22.8644, 415.264 z "/>
<path style="fill:rgb(0, 0, 255);fill-opacity:0;fill-rule:evenodd;stroke:rgb(255, 0, 33);stroke-width:1;" d="M 278.844, 77.9179 L 282.421, 71.9144 L 306.179, 79.8339 L 305.54, 81.1113 L 307.967, 81.8777 L 306.179, 85.0711 L 303.88, 84.3046 L 302.858, 85.9652 L 278.844, 77.9179 z "/>
<path style="fill:rgb(255, 255, 0);fill-opacity:0;fill-rule:evenodd;stroke:rgb(255, 0, 33);stroke-width:1;" d="M 247.932, 368.258 L 248.826, 366.597 L 251.381, 365.831 L 252.786, 363.276 L 273.99, 370.046 L 270.03, 377.072 L 248.826, 370.302 L 247.932, 368.258 z "/>
<path style="fill:rgb(255, 0, 0);fill-opacity:0;fill-rule:evenodd;stroke:rgb(255, 0, 33);stroke-width:1;" d="M 240.396, 55.4367 L 244.1, 48.9222 L 245.378, 49.4332 L 266.454, 56.4586 L 261.983, 64.1226 L 256.363, 62.2066 L 257.129, 60.9293 L 240.396, 55.4367 z "/>
<path style="fill:rgb(0, 255, 0);fill-opacity:0;fill-rule:evenodd;stroke:rgb(255, 0, 33);stroke-width:1;" d="M 142.424, 127.351 L 143.829, 125.052 L 145.745, 124.796 L 147.278, 122.114 L 169.376, 129.523 L 165.544, 136.165 L 143.446, 128.756 L 142.424, 127.351 z "/>
<path style="fill:rgb(0, 0, 255);fill-opacity:0;fill-rule:evenodd;stroke:rgb(255, 0, 33);stroke-width:1;" d="M 341.051, 199.904 L 344.755, 193.134 L 367.492, 200.287 L 363.787, 207.057 L 341.051, 199.904 z "/>
<path style="fill:rgb(255, 255, 0);fill-opacity:0;fill-rule:evenodd;stroke:rgb(255, 0, 33);stroke-width:1;" d="M 98.2277, 412.071 L 101.677, 406.195 L 115.344, 410.538 L 115.727, 409.899 L 125.435, 413.093 L 124.669, 414.37 L 125.946, 414.881 L 125.691, 415.52 L 123.647, 418.841 L 120.837, 417.819 L 119.943, 419.479 L 98.2277, 412.071 z "/>
<path style="fill:rgb(255, 0, 0);fill-opacity:0;fill-rule:evenodd;stroke:rgb(255, 0, 33);stroke-width:1;" d="M 489.733, 191.601 L 493.693, 184.448 L 515.663, 191.474 L 514.514, 193.645 L 515.408, 193.901 L 512.853, 198.371 L 496.376, 193.134 L 494.587, 193.134 L 489.733, 191.601 z "/>
<path style="fill:rgb(0, 255, 0);fill-opacity:0;fill-rule:evenodd;stroke:rgb(255, 0, 33);stroke-width:1;" d="M 257.129, 352.291 L 258.151, 350.503 L 260.195, 349.864 L 261.983, 346.926 L 283.059, 353.696 L 279.227, 360.722 L 258.279, 353.824 L 257.129, 352.291 z "/>
<path style="fill:rgb(0, 0, 255);fill-opacity:0;fill-rule:evenodd;stroke:rgb(255, 0, 33);stroke-width:1;" d="M 383.458, 322.146 L 387.674, 314.737 L 407.983, 321.38 L 403.768, 328.66 L 383.458, 322.146 z "/>
<path style="fill:rgb(255, 255, 0);fill-opacity:0;fill-rule:evenodd;stroke:rgb(255, 0, 33);stroke-width:1;" d="M 94.7789, 418.074 L 98.2277, 412.071 L 119.943, 419.479 L 120.837, 417.819 L 123.647, 418.841 L 122.114, 421.523 L 120.964, 421.14 L 118.154, 426.122 L 94.7789, 418.074 z "/>
<path style="fill:rgb(255, 0, 0);fill-opacity:0;fill-rule:evenodd;stroke:rgb(255, 0, 33);stroke-width:1;" d="M 252.275, 360.211 L 253.297, 358.422 L 255.724, 357.784 L 257.129, 355.357 L 278.333, 362.127 L 277.311, 363.915 L 274.501, 368.897 L 253.425, 362.127 L 252.275, 360.211 z "/>
<path style="fill:rgb(0, 255, 0);fill-opacity:0;fill-rule:evenodd;stroke:rgb(255, 0, 33);stroke-width:1;" d="M 485.263, 296.471 L 487.306, 293.789 L 487.306, 292.895 L 487.69, 292.128 L 487.945, 291.745 L 488.839, 291.234 L 489.861, 290.851 L 490.372, 290.851 L 491.522, 290.979 L 492.033, 291.234 L 492.799, 291.745 L 493.31, 292.512 L 495.992, 293.661 L 496.248, 293.278 L 510.426, 299.409 L 507.616, 303.114 L 510.682, 304.519 L 508.894, 306.818 L 485.263, 296.471 z "/>
<path style="fill:rgb(0, 0, 255);fill-opacity:0;fill-rule:evenodd;stroke:rgb(255, 0, 33);stroke-width:1;" d="M 508.127, 169.12 L 512.087, 161.967 L 533.674, 168.992 L 532.524, 171.036 L 533.802, 171.419 L 531.375, 175.762 L 515.152, 170.653 L 512.853, 170.781 L 508.127, 169.12 z "/>
<path style="fill:rgb(255, 255, 0);fill-opacity:0;fill-rule:evenodd;stroke:rgb(255, 0, 33);stroke-width:1;" d="M 223.28, 79.7062 L 227.112, 72.6808 L 247.549, 79.1953 L 248.699, 81.239 L 247.549, 83.4105 L 245.378, 83.666 L 243.973, 86.2207 L 223.28, 79.7062 z "/>
<path style="fill:rgb(255, 0, 0);fill-opacity:0;fill-rule:evenodd;stroke:rgb(255, 0, 33);stroke-width:1;" d="M 502.251, 176.784 L 506.211, 169.759 L 527.798, 176.657 L 526.649, 178.7 L 527.543, 178.956 L 525.116, 183.426 L 509.149, 178.317 L 507.105, 178.445 L 502.251, 176.784 z "/>
<path style="fill:rgb(0, 255, 0);fill-opacity:0;fill-rule:evenodd;stroke:rgb(255, 0, 33);stroke-width:1;" d="M 344.499, 309.628 L 353.824, 293.15 L 362.51, 295.96 L 353.185, 312.438 L 344.499, 309.628 z "/>
<path style="fill:rgb(0, 0, 255);fill-opacity:0;fill-rule:evenodd;stroke:rgb(255, 0, 33);stroke-width:1;" d="M 293.278, 299.792 L 296.982, 293.406 L 319.336, 300.814 L 315.631, 307.201 L 293.278, 299.792 z "/>
<path style="fill:rgb(255, 255, 0);fill-opacity:0;fill-rule:evenodd;stroke:rgb(255, 0, 33);stroke-width:1;" d="M 397.509, 167.076 L 400.064, 162.861 L 422.545, 170.909 L 420.885, 173.591 L 422.162, 175.251 L 421.14, 176.912 L 418.713, 177.295 L 399.936, 170.525 L 401.213, 168.482 L 397.509, 167.076 z "/>
<path style="fill:rgb(255, 0, 0);fill-opacity:0;fill-rule:evenodd;stroke:rgb(255, 0, 33);stroke-width:1;" d="M 483.602, 199.01 L 487.434, 192.112 L 508.894, 199.01 L 507.616, 201.182 L 509.021, 201.565 L 506.722, 205.78 L 489.989, 200.415 L 488.201, 200.543 L 483.602, 199.01 z "/>
<path style="fill:rgb(0, 255, 0);fill-opacity:0;fill-rule:evenodd;stroke:rgb(255, 0, 33);stroke-width:1;" d="M 332.365, 95.8007 L 336.069, 89.2863 L 358.678, 96.8226 L 357.017, 99.505 L 355.612, 98.9941 L 353.441, 102.826 L 332.365, 95.8007 z "/>
<path style="fill:rgb(0, 0, 255);fill-opacity:0;fill-rule:evenodd;stroke:rgb(255, 0, 33);stroke-width:1;" d="M 471.723, 214.083 L 476.704, 207.568 L 498.164, 214.721 L 494.587, 220.98 L 478.11, 215.616 L 476.449, 215.743 L 471.723, 214.083 z "/>
<path style="fill:rgb(255, 255, 0);fill-opacity:0;fill-rule:evenodd;stroke:rgb(255, 0, 33);stroke-width:1;" d="M 495.609, 183.937 L 499.569, 176.912 L 521.028, 183.937 L 519.751, 186.237 L 520.645, 186.62 L 518.474, 190.452 L 502.507, 185.215 L 500.846, 185.598 L 495.609, 183.937 z "/>
<path style="fill:rgb(255, 0, 0);fill-opacity:0;fill-rule:evenodd;stroke:rgb(255, 0, 33);stroke-width:1;" d="M 303.752, 272.074 L 304.774, 270.03 L 306.818, 270.03 L 308.478, 267.22 L 329.427, 273.862 L 325.722, 280.377 L 305.03, 273.862 L 303.752, 272.074 z "/>
<path style="fill:rgb(0, 255, 0);fill-opacity:0;fill-rule:evenodd;stroke:rgb(255, 0, 33);stroke-width:1;" d="M 335.941, 306.818 L 345.266, 290.34 L 353.824, 293.15 L 344.499, 309.628 L 335.941, 306.818 z "/>
<path style="fill:rgb(0, 0, 255);fill-opacity:0;fill-rule:evenodd;stroke:rgb(255, 0, 33);stroke-width:1;" d="M 296.982, 293.406 L 300.559, 287.147 L 322.912, 294.555 L 319.336, 300.814 L 296.982, 293.406 z "/>
<path style="fill:rgb(255, 255, 0);fill-opacity:0;fill-rule:evenodd;stroke:rgb(255, 0, 33);stroke-width:1;" d="M 275.012, 96.8226 L 279.355, 90.1804 L 299.281, 97.4613 L 294.939, 104.103 L 275.012, 96.8226 z "/>
<path style="fill:rgb(255, 0, 0);fill-opacity:0;fill-rule:evenodd;stroke:rgb(255, 0, 33);stroke-width:1;" d="M 516.558, 161.839 L 520.262, 155.069 L 541.083, 161.712 L 537.251, 168.482 L 516.558, 161.839 z "/>
<path style="fill:rgb(0, 255, 0);fill-opacity:0;fill-rule:evenodd;stroke:rgb(255, 0, 33);stroke-width:1;" d="M 394.316, 179.339 L 398.148, 172.441 L 417.819, 178.828 L 416.286, 181.638 L 417.308, 182.916 L 416.158, 185.087 L 413.987, 185.726 L 394.316, 179.339 z "/>
<path style="fill:rgb(0, 0, 255);fill-opacity:0;fill-rule:evenodd;stroke:rgb(255, 0, 33);stroke-width:1;" d="M 375.156, 144.468 L 379.243, 137.314 L 398.787, 143.701 L 394.827, 150.854 L 375.156, 144.468 z "/>
<path style="fill:rgb(255, 255, 0);fill-opacity:0;fill-rule:evenodd;stroke:rgb(255, 0, 33);stroke-width:1;" d="M 353.185, 312.438 L 362.51, 295.96 L 370.94, 298.771 L 361.616, 315.248 L 353.185, 312.438 z "/>
<path style="fill:rgb(255, 0, 0);fill-opacity:0;fill-rule:evenodd;stroke:rgb(255, 0, 33);stroke-width:1;" d="M 441.705, 194.923 L 444.388, 190.196 L 444.899, 190.452 L 446.176, 188.153 L 450.391, 189.43 L 465.592, 194.412 L 461.632, 201.437 L 441.705, 194.923 z "/>
<path style="fill:rgb(0, 255, 0);fill-opacity:0;fill-rule:evenodd;stroke:rgb(255, 0, 33);stroke-width:1;" d="M 605.461, 136.803 L 609.293, 129.906 L 629.347, 136.42 L 625.515, 143.318 L 605.461, 136.803 z "/>
<path style="fill:rgb(0, 0, 255);fill-opacity:0;fill-rule:evenodd;stroke:rgb(255, 0, 33);stroke-width:1;" d="M 452.179, 178.956 L 454.734, 174.485 L 455.501, 174.741 L 456.778, 172.441 L 459.588, 173.335 L 476.321, 178.828 L 472.489, 185.598 L 452.179, 178.956 z "/>
<path style="fill:rgb(255, 255, 0);fill-opacity:0;fill-rule:evenodd;stroke:rgb(255, 0, 33);stroke-width:1;" d="M 523.966, 155.708 L 528.437, 149.705 L 537.761, 152.643 L 549.768, 156.73 L 544.787, 162.734 L 523.966, 155.708 z "/>
<path style="fill:rgb(255, 0, 0);fill-opacity:0;fill-rule:evenodd;stroke:rgb(255, 0, 33);stroke-width:1;" d="M 327.639, 304.135 L 336.963, 287.658 L 345.266, 290.34 L 335.941, 306.818 L 327.639, 304.135 z "/>
<path style="fill:rgb(0, 255, 0);fill-opacity:0;fill-rule:evenodd;stroke:rgb(255, 0, 33);stroke-width:1;" d="M 364.554, 158.391 L 366.214, 155.325 L 368.769, 156.091 L 369.919, 153.92 L 388.951, 160.051 L 385.119, 166.821 L 366.214, 160.69 L 365.703, 158.774 L 364.554, 158.391 z "/>
<path style="fill:rgb(0, 0, 255);fill-opacity:0;fill-rule:evenodd;stroke:rgb(255, 0, 33);stroke-width:1;" d="M 477.854, 206.674 L 481.686, 200.032 L 503.273, 207.185 L 502.251, 208.973 L 503.018, 209.229 L 500.719, 213.316 L 484.496, 207.951 L 482.58, 208.207 L 477.854, 206.674 z "/>
<path style="fill:rgb(255, 255, 0);fill-opacity:0;fill-rule:evenodd;stroke:rgb(255, 0, 33);stroke-width:1;" d="M 360.083, 166.31 L 361.871, 163.244 L 364.426, 164.011 L 365.576, 161.967 L 384.608, 167.971 L 380.776, 174.741 L 361.744, 168.609 L 361.36, 166.693 L 360.083, 166.31 z "/>
<path style="fill:rgb(255, 0, 0);fill-opacity:0;fill-rule:evenodd;stroke:rgb(255, 0, 33);stroke-width:1;" d="M 370.557, 152.643 L 374.517, 145.745 L 394.06, 152.132 L 390.228, 158.901 L 370.557, 152.643 z "/>
<path style="fill:rgb(0, 255, 0);fill-opacity:0;fill-rule:evenodd;stroke:rgb(255, 0, 33);stroke-width:1;" d="M 390.739, 112.023 L 394.316, 105.892 L 416.031, 113.045 L 412.582, 119.176 L 390.739, 112.023 z "/>
<path style="fill:rgb(0, 0, 255);fill-opacity:0;fill-rule:evenodd;stroke:rgb(255, 0, 33);stroke-width:1;" d="M 412.454, 73.3195 L 415.647, 67.8269 L 424.078, 70.7648 L 439.917, 76.1297 L 436.596, 81.4945 L 412.454, 73.3195 z "/>
<path style="fill:rgb(255, 255, 0);fill-opacity:0;fill-rule:evenodd;stroke:rgb(255, 0, 33);stroke-width:1;" d="M 549.002, 214.083 L 553.984, 207.696 L 572.25, 215.743 L 567.268, 222.258 L 549.002, 214.083 z "/>
<path style="fill:rgb(255, 0, 0);fill-opacity:0;fill-rule:evenodd;stroke:rgb(255, 0, 33);stroke-width:1;" d="M 452.946, 86.9871 L 456.139, 81.1113 L 479.004, 88.3921 L 475.81, 94.2679 L 452.946, 86.9871 z "/>
<path style="fill:rgb(0, 255, 0);fill-opacity:0;fill-rule:evenodd;stroke:rgb(255, 0, 33);stroke-width:1;" d="M 447.07, 186.875 L 448.986, 183.299 L 449.753, 183.554 L 451.541, 180.361 L 460.099, 183.171 L 470.829, 186.748 L 466.997, 193.39 L 447.07, 186.875 z "/>
<path style="fill:rgb(0, 0, 255);fill-opacity:0;fill-rule:evenodd;stroke:rgb(255, 0, 33);stroke-width:1;" d="M 524.477, 245.889 L 528.82, 239.757 L 548.491, 247.932 L 544.148, 254.064 L 524.477, 245.889 z "/>
<path style="fill:rgb(255, 255, 0);fill-opacity:0;fill-rule:evenodd;stroke:rgb(255, 0, 33);stroke-width:1;" d="M 405.046, 163.755 L 408.622, 157.241 L 428.293, 163.5 L 426.76, 166.182 L 427.782, 167.46 L 426.633, 169.631 L 424.717, 170.014 L 405.046, 163.755 z "/>
<path style="fill:rgb(255, 0, 0);fill-opacity:0;fill-rule:evenodd;stroke:rgb(255, 0, 33);stroke-width:1;" d="M 32.3168, 411.177 L 36.0211, 404.662 L 55.6922, 411.049 L 56.0754, 411.815 L 56.2031, 412.71 L 56.0754, 413.221 L 55.8199, 413.604 L 55.0535, 414.242 L 54.6703, 414.498 L 53.5207, 414.881 L 51.9879, 417.563 L 32.3168, 411.177 z "/>
<path style="fill:rgb(0, 255, 0);fill-opacity:0;fill-rule:evenodd;stroke:rgb(255, 0, 33);stroke-width:1;" d="M 436.979, 202.587 L 440.683, 195.944 L 460.354, 202.331 L 456.65, 208.973 L 436.979, 202.587 z "/>
<path style="fill:rgb(0, 0, 255);fill-opacity:0;fill-rule:evenodd;stroke:rgb(255, 0, 33);stroke-width:1;" d="M 609.293, 129.906 L 612.997, 123.519 L 633.051, 129.906 L 629.347, 136.42 L 609.293, 129.906 z "/>
<path style="fill:rgb(255, 255, 0);fill-opacity:0;fill-rule:evenodd;stroke:rgb(255, 0, 33);stroke-width:1;" d="M 179.339, 159.285 L 182.916, 152.898 L 202.97, 159.285 L 199.393, 165.799 L 179.339, 159.285 z "/>
<path style="fill:rgb(255, 0, 0);fill-opacity:0;fill-rule:evenodd;stroke:rgb(255, 0, 33);stroke-width:1;" d="M 543.51, 221.364 L 548.363, 215.105 L 566.374, 223.152 L 563.053, 227.495 L 561.52, 229.539 L 543.51, 221.364 z "/>
<path style="fill:rgb(0, 255, 0);fill-opacity:0;fill-rule:evenodd;stroke:rgb(255, 0, 33);stroke-width:1;" d="M 175.762, 165.799 L 179.339, 159.285 L 199.393, 165.799 L 195.689, 172.314 L 175.762, 165.799 z "/>
<path style="fill:rgb(0, 0, 255);fill-opacity:0;fill-rule:evenodd;stroke:rgb(255, 0, 33);stroke-width:1;" d="M 361.616, 315.248 L 370.94, 298.771 L 378.86, 301.325 L 369.535, 317.803 L 361.616, 315.248 z "/>
<path style="fill:rgb(255, 255, 0);fill-opacity:0;fill-rule:evenodd;stroke:rgb(255, 0, 33);stroke-width:1;" d="M 545.809, 285.358 L 559.476, 267.731 L 565.863, 270.541 L 552.323, 288.296 L 545.809, 285.358 z "/>
<path style="fill:rgb(255, 0, 0);fill-opacity:0;fill-rule:evenodd;stroke:rgb(255, 0, 33);stroke-width:1;" d="M 410.666, 155.58 L 414.37, 149.066 L 433.786, 155.453 L 432.764, 157.369 L 430.081, 161.967 L 410.666, 155.58 z "/>
<path style="fill:rgb(0, 255, 0);fill-opacity:0;fill-rule:evenodd;stroke:rgb(255, 0, 33);stroke-width:1;" d="M 554.878, 206.674 L 559.732, 200.415 L 577.87, 208.718 L 573.016, 214.849 L 554.878, 206.674 z "/>
<path style="fill:rgb(0, 0, 255);fill-opacity:0;fill-rule:evenodd;stroke:rgb(255, 0, 33);stroke-width:1;" d="M 552.323, 288.296 L 565.863, 270.541 L 572.25, 273.351 L 566.629, 280.632 L 560.498, 288.552 L 558.582, 291.106 L 552.323, 288.296 z "/>
<path style="fill:rgb(255, 255, 0);fill-opacity:0;fill-rule:evenodd;stroke:rgb(255, 0, 33);stroke-width:1;" d="M 539.677, 282.676 L 553.217, 264.921 L 559.476, 267.731 L 545.809, 285.358 L 539.677, 282.676 z "/>
<path style="fill:rgb(255, 0, 0);fill-opacity:0;fill-rule:evenodd;stroke:rgb(255, 0, 33);stroke-width:1;" d="M 52.2433, 480.409 L 60.0351, 466.613 L 69.1043, 469.551 L 61.3125, 483.347 L 52.2433, 480.409 z "/>
<path style="fill:rgb(0, 255, 0);fill-opacity:0;fill-rule:evenodd;stroke:rgb(255, 0, 33);stroke-width:1;" d="M 114.578, 500.591 L 122.242, 486.923 L 131.311, 489.861 L 123.519, 503.656 L 114.578, 500.591 z "/>
<path style="fill:rgb(0, 0, 255);fill-opacity:0;fill-rule:evenodd;stroke:rgb(255, 0, 33);stroke-width:1;" d="M 265.304, 235.414 L 266.965, 232.476 L 269.264, 228.389 L 286.891, 234.009 L 282.932, 241.162 L 265.304, 235.414 z "/>
<path style="fill:rgb(255, 255, 0);fill-opacity:0;fill-rule:evenodd;stroke:rgb(255, 0, 33);stroke-width:1;" d="M 123.519, 503.656 L 131.311, 489.861 L 140.252, 492.799 L 132.588, 506.467 L 123.519, 503.656 z "/>
<path style="fill:rgb(255, 0, 0);fill-opacity:0;fill-rule:evenodd;stroke:rgb(255, 0, 33);stroke-width:1;" d="M 172.186, 172.058 L 175.762, 165.799 L 195.689, 172.314 L 192.24, 178.445 L 172.186, 172.058 z "/>
<path style="fill:rgb(0, 255, 0);fill-opacity:0;fill-rule:evenodd;stroke:rgb(255, 0, 33);stroke-width:1;" d="M 70.2539, 486.285 L 77.9179, 472.489 L 86.8593, 475.427 L 79.0675, 489.095 L 70.2539, 486.285 z "/>
<path style="fill:rgb(0, 0, 255);fill-opacity:0;fill-rule:evenodd;stroke:rgb(255, 0, 33);stroke-width:1;" d="M 61.3125, 483.347 L 69.1043, 469.551 L 77.9179, 472.489 L 70.2539, 486.285 L 61.3125, 483.347 z "/>
<path style="fill:rgb(255, 255, 0);fill-opacity:0;fill-rule:evenodd;stroke:rgb(255, 0, 33);stroke-width:1;" d="M 105.636, 497.781 L 113.428, 483.985 L 122.242, 486.923 L 114.578, 500.591 L 105.636, 497.781 z "/>
<path style="fill:rgb(255, 0, 0);fill-opacity:0;fill-rule:evenodd;stroke:rgb(255, 0, 33);stroke-width:1;" d="M 79.0675, 489.095 L 86.8593, 475.427 L 95.8007, 478.237 L 88.0089, 492.033 L 79.0675, 489.095 z "/>
<path style="fill:rgb(0, 255, 0);fill-opacity:0;fill-rule:evenodd;stroke:rgb(255, 0, 33);stroke-width:1;" d="M 80.8558, 365.703 L 88.9031, 351.397 L 97.4613, 354.207 L 96.0562, 356.634 L 89.2863, 368.513 L 80.8558, 365.703 z "/>
<path style="fill:rgb(0, 0, 255);fill-opacity:0;fill-rule:evenodd;stroke:rgb(255, 0, 33);stroke-width:1;" d="M 23.6308, 426.377 L 26.8242, 420.501 L 46.4953, 426.76 L 47.2617, 427.271 L 47.5172, 427.654 L 47.6449, 428.038 L 47.7726, 428.804 L 47.6449, 429.187 L 47.134, 429.954 L 46.3676, 430.465 L 45.8566, 430.592 L 45.3457, 430.72 L 44.3238, 430.72 L 43.3019, 432.636 L 23.6308, 426.377 z "/>
<path style="fill:rgb(255, 255, 0);fill-opacity:0;fill-rule:evenodd;stroke:rgb(255, 0, 33);stroke-width:1;" d="M 481.814, 301.07 L 485.263, 296.471 L 508.894, 306.818 L 505.445, 311.416 L 481.814, 301.07 z "/>
<path style="fill:rgb(255, 0, 0);fill-opacity:0;fill-rule:evenodd;stroke:rgb(255, 0, 33);stroke-width:1;" d="M 96.8226, 494.843 L 104.614, 481.175 L 113.428, 483.985 L 105.636, 497.781 L 96.8226, 494.843 z "/>
<path style="fill:rgb(0, 255, 0);fill-opacity:0;fill-rule:evenodd;stroke:rgb(255, 0, 33);stroke-width:1;" d="M 88.0089, 492.033 L 95.8007, 478.237 L 104.614, 481.175 L 96.8226, 494.843 L 88.0089, 492.033 z "/>
<path style="fill:rgb(0, 0, 255);fill-opacity:0;fill-rule:evenodd;stroke:rgb(255, 0, 33);stroke-width:1;" d="M 302.986, 48.0281 L 307.073, 40.7472 L 323.806, 46.2398 L 319.719, 53.5207 L 302.986, 48.0281 z "/>
<path style="fill:rgb(255, 255, 0);fill-opacity:0;fill-rule:evenodd;stroke:rgb(255, 0, 33);stroke-width:1;" d="M 62.3343, 370.43 L 66.2941, 363.66 L 82.3886, 369.152 L 80.7281, 371.835 L 81.239, 372.856 L 79.9617, 375.156 L 78.4289, 375.667 L 73.1918, 373.878 L 72.5531, 374.9 L 65.4, 372.346 L 65.7832, 371.707 L 62.3343, 370.43 z "/>
<path style="fill:rgb(255, 0, 0);fill-opacity:0;fill-rule:evenodd;stroke:rgb(255, 0, 33);stroke-width:1;" d="M 212.422, 218.042 L 215.999, 211.656 L 234.392, 217.532 L 234.265, 217.787 L 230.816, 223.918 L 212.422, 218.042 z "/>
<path style="fill:rgb(0, 255, 0);fill-opacity:0;fill-rule:evenodd;stroke:rgb(255, 0, 33);stroke-width:1;" d="M 58.2468, 377.838 L 59.7797, 375.028 L 60.8015, 375.411 L 62.973, 371.579 L 65.4, 372.346 L 72.5531, 374.9 L 78.0457, 376.688 L 73.8304, 383.842 L 68.2101, 381.926 L 67.6992, 382.692 L 60.0351, 380.137 L 60.9293, 378.732 L 58.2468, 377.838 z "/>
<path style="fill:rgb(0, 0, 255);fill-opacity:0;fill-rule:evenodd;stroke:rgb(255, 0, 33);stroke-width:1;" d="M 442.855, 66.2941 L 450.391, 52.2433 L 457.544, 54.5426 L 457.289, 54.9258 L 448.092, 71.7867 L 443.366, 70.2539 L 445.154, 66.9328 L 442.855, 66.2941 z "/>
<path style="fill:rgb(255, 255, 0);fill-opacity:0;fill-rule:evenodd;stroke:rgb(255, 0, 33);stroke-width:1;" d="M 433.403, 67.1882 L 436.468, 61.4402 L 438.512, 60.6738 L 440.045, 57.7359 L 439.662, 56.2031 L 440.556, 54.6703 L 443.11, 49.9441 L 450.391, 52.2433 L 442.855, 66.2941 L 440.045, 65.4 L 438.256, 68.7211 L 433.403, 67.1882 z "/>
<path style="fill:rgb(255, 0, 0);fill-opacity:0;fill-rule:evenodd;stroke:rgb(255, 0, 33);stroke-width:1;" d="M 559.349, 199.393 L 563.436, 194.028 L 581.958, 202.203 L 577.998, 207.568 L 559.349, 199.393 z "/>
<path style="fill:rgb(0, 255, 0);fill-opacity:0;fill-rule:evenodd;stroke:rgb(255, 0, 33);stroke-width:1;" d="M 596.136, 150.471 L 600.607, 144.595 L 609.293, 148.427 L 618.49, 152.643 L 614.402, 157.752 L 598.946, 150.854 L 598.435, 151.621 L 596.136, 150.471 z "/>
<path style="fill:rgb(0, 0, 255);fill-opacity:0;fill-rule:evenodd;stroke:rgb(255, 0, 33);stroke-width:1;" d="M 563.436, 194.028 L 567.396, 188.919 L 585.917, 197.094 L 581.958, 202.203 L 563.436, 194.028 z "/>
<path style="fill:rgb(255, 255, 0);fill-opacity:0;fill-rule:evenodd;stroke:rgb(255, 0, 33);stroke-width:1;" d="M 217.915, 97.589 L 221.619, 90.6914 L 236.181, 95.2898 L 235.67, 96.0562 L 236.181, 96.1839 L 233.371, 101.293 L 232.987, 101.166 L 232.476, 102.06 L 230.305, 101.549 L 217.915, 97.589 z "/>
<path style="fill:rgb(255, 0, 0);fill-opacity:0;fill-rule:evenodd;stroke:rgb(255, 0, 33);stroke-width:1;" d="M 389.59, 185.47 L 391.122, 182.66 L 395.338, 183.81 L 396.615, 181.383 L 412.454, 186.109 L 411.815, 187.386 L 412.71, 187.642 L 410.41, 191.857 L 409.899, 191.729 L 392.783, 186.492 L 389.59, 185.47 z "/>
<path style="fill:rgb(0, 255, 0);fill-opacity:0;fill-rule:evenodd;stroke:rgb(255, 0, 33);stroke-width:1;" d="M 605.461, 177.295 L 610.187, 171.036 L 612.103, 171.803 L 614.274, 168.865 L 622.705, 172.569 L 615.552, 181.766 L 610.953, 179.722 L 605.461, 177.295 z "/>
<path style="fill:rgb(0, 0, 255);fill-opacity:0;fill-rule:evenodd;stroke:rgb(255, 0, 33);stroke-width:1;" d="M 102.443, 399.553 L 105.381, 394.188 L 119.176, 398.659 L 118.154, 400.575 L 125.691, 402.874 L 123.775, 406.323 L 102.443, 399.553 z "/>
<path style="fill:rgb(255, 255, 0);fill-opacity:0;fill-rule:evenodd;stroke:rgb(255, 0, 33);stroke-width:1;" d="M 380.521, 130.161 L 383.842, 124.285 L 400.192, 129.65 L 396.871, 135.526 L 380.521, 130.161 z "/>
<path style="fill:rgb(255, 0, 0);fill-opacity:0;fill-rule:evenodd;stroke:rgb(255, 0, 33);stroke-width:1;" d="M 99.6328, 404.662 L 102.443, 399.553 L 123.775, 406.323 L 121.859, 409.772 L 114.322, 407.345 L 113.428, 409.005 L 99.6328, 404.662 z "/>
<path style="fill:rgb(0, 255, 0);fill-opacity:0;fill-rule:evenodd;stroke:rgb(255, 0, 33);stroke-width:1;" d="M 229.028, 237.841 L 236.053, 225.962 L 243.845, 228.644 L 238.608, 237.33 L 239.246, 237.586 L 237.841, 239.757 L 237.33, 240.651 L 229.028, 237.841 z "/>
<path style="fill:rgb(0, 0, 255);fill-opacity:0;fill-rule:evenodd;stroke:rgb(255, 0, 33);stroke-width:1;" d="M 319.591, 62.7175 L 323.296, 56.2031 L 337.474, 60.8015 L 333.77, 67.316 L 319.591, 62.7175 z "/>
<path style="fill:rgb(255, 255, 0);fill-opacity:0;fill-rule:evenodd;stroke:rgb(255, 0, 33);stroke-width:1;" d="M 380.776, 209.484 L 383.586, 205.014 L 396.998, 209.995 L 392.4, 217.276 L 384.353, 214.338 L 386.269, 211.4 L 380.776, 209.484 z "/>
<path style="fill:rgb(255, 0, 0);fill-opacity:0;fill-rule:evenodd;stroke:rgb(255, 0, 33);stroke-width:1;" d="M 391.506, 189.047 L 392.783, 186.492 L 409.899, 191.729 L 407.089, 197.222 L 405.812, 196.839 L 392.655, 192.879 L 394.188, 189.941 L 391.506, 189.047 z "/>
<path style="fill:rgb(0, 255, 0);fill-opacity:0;fill-rule:evenodd;stroke:rgb(255, 0, 33);stroke-width:1;" d="M 388.057, 194.156 L 389.334, 191.857 L 392.655, 192.879 L 405.812, 196.839 L 403.002, 202.076 L 389.079, 197.86 L 390.612, 194.923 L 388.057, 194.156 z "/>
<path style="fill:rgb(0, 0, 255);fill-opacity:0;fill-rule:evenodd;stroke:rgb(255, 0, 33);stroke-width:1;" d="M 558.582, 240.524 L 564.458, 233.115 L 573.655, 237.33 L 571.483, 240.141 L 567.524, 244.611 L 558.582, 240.524 z "/>
<path style="fill:rgb(255, 255, 0);fill-opacity:0;fill-rule:evenodd;stroke:rgb(255, 0, 33);stroke-width:1;" d="M 420.374, 368.386 L 425.866, 361.36 L 435.191, 365.576 L 429.698, 372.601 L 420.374, 368.386 z "/>
<path style="fill:rgb(255, 0, 0);fill-opacity:0;fill-rule:evenodd;stroke:rgb(255, 0, 33);stroke-width:1;" d="M 486.412, 337.219 L 493.693, 327.639 L 500.208, 330.449 L 492.927, 340.156 L 486.412, 337.219 z "/>
<path style="fill:rgb(0, 255, 0);fill-opacity:0;fill-rule:evenodd;stroke:rgb(255, 0, 33);stroke-width:1;" d="M 121.092, 426.377 L 123.519, 422.545 L 121.731, 421.906 L 122.114, 421.523 L 123.647, 418.841 L 134.249, 422.545 L 130.034, 429.57 L 121.092, 426.377 z "/>
<path style="fill:rgb(0, 0, 255);fill-opacity:0;fill-rule:evenodd;stroke:rgb(255, 0, 33);stroke-width:1;" d="M 123.647, 418.841 L 125.691, 415.52 L 127.351, 416.158 L 129.523, 412.454 L 138.464, 415.647 L 134.249, 422.545 L 123.647, 418.841 z "/>
<path style="fill:rgb(255, 255, 0);fill-opacity:0;fill-rule:evenodd;stroke:rgb(255, 0, 33);stroke-width:1;" d="M 379.115, 222.641 L 384.353, 214.338 L 392.4, 217.276 L 387.163, 225.579 L 379.115, 222.641 z "/>
<path style="fill:rgb(255, 0, 0);fill-opacity:0;fill-rule:evenodd;stroke:rgb(255, 0, 33);stroke-width:1;" d="M 525.499, 284.464 L 530.608, 277.95 L 539.805, 282.037 L 534.951, 288.296 L 534.696, 288.552 L 525.499, 284.464 z "/>
<path style="fill:rgb(0, 255, 0);fill-opacity:0;fill-rule:evenodd;stroke:rgb(255, 0, 33);stroke-width:1;" d="M 373.878, 229.411 L 378.349, 222.385 L 379.115, 222.641 L 387.163, 225.579 L 382.692, 232.604 L 373.878, 229.411 z "/>
<path style="fill:rgb(0, 0, 255);fill-opacity:0;fill-rule:evenodd;stroke:rgb(255, 0, 33);stroke-width:1;" d="M 355.485, 28.2293 L 360.338, 19.9266 L 367.619, 22.3535 L 367.492, 22.609 L 362.765, 30.784 L 355.485, 28.2293 z "/>
<path style="fill:rgb(255, 255, 0);fill-opacity:0;fill-rule:evenodd;stroke:rgb(255, 0, 33);stroke-width:1;" d="M 433.913, 140.38 L 437.362, 134.76 L 447.326, 138.209 L 444.004, 143.957 L 433.913, 140.38 z "/>
<path style="fill:rgb(255, 0, 0);fill-opacity:0;fill-rule:evenodd;stroke:rgb(255, 0, 33);stroke-width:1;" d="M 292.895, 54.1593 L 296.471, 47.9004 L 304.774, 50.5828 L 301.07, 56.9695 L 292.895, 54.1593 z "/>
<path style="fill:rgb(0, 255, 0);fill-opacity:0;fill-rule:evenodd;stroke:rgb(255, 0, 33);stroke-width:1;" d="M 429.315, 210.378 L 434.169, 203.481 L 441.067, 205.908 L 436.596, 213.061 L 436.468, 213.061 L 429.315, 210.378 z "/>
<path style="fill:rgb(0, 0, 255);fill-opacity:0;fill-rule:evenodd;stroke:rgb(255, 0, 33);stroke-width:1;" d="M 307.456, 95.9285 L 310.778, 90.3082 L 319.847, 93.246 L 316.526, 98.9941 L 307.456, 95.9285 z "/>
<path style="fill:rgb(255, 255, 0);fill-opacity:0;fill-rule:evenodd;stroke:rgb(255, 0, 33);stroke-width:1;" d="M 433.786, 52.3711 L 437.745, 44.9625 L 444.899, 47.0062 L 443.11, 49.9441 L 440.556, 54.6703 L 433.786, 52.3711 z "/>
<path style="fill:rgb(255, 0, 0);fill-opacity:0;fill-rule:evenodd;stroke:rgb(255, 0, 33);stroke-width:1;" d="M 487.945, 348.97 L 492.288, 343.35 L 499.313, 346.543 L 494.97, 352.163 L 487.945, 348.97 z "/>
<path style="fill:rgb(0, 255, 0);fill-opacity:0;fill-rule:evenodd;stroke:rgb(255, 0, 33);stroke-width:1;" d="M 440.172, 135.271 L 443.366, 129.65 L 451.03, 132.205 L 447.709, 137.825 L 440.172, 135.271 z "/>
<path style="fill:rgb(0, 0, 255);fill-opacity:0;fill-rule:evenodd;stroke:rgb(255, 0, 33);stroke-width:1;" d="M 445.154, 126.84 L 447.709, 122.369 L 455.628, 125.052 L 453.074, 129.523 L 445.154, 126.84 z "/>
<path style="fill:rgb(255, 255, 0);fill-opacity:0;fill-rule:evenodd;stroke:rgb(255, 0, 33);stroke-width:1;" d="M 327.383, 374.389 L 330.065, 370.174 L 336.963, 372.729 L 334.281, 376.944 L 327.383, 374.389 z "/>
<path style="fill:rgb(255, 0, 0);fill-opacity:0;fill-rule:evenodd;stroke:rgb(255, 0, 33);stroke-width:1;" d="M 322.401, 384.863 L 325.212, 380.904 L 331.215, 383.458 L 328.405, 387.418 L 322.401, 384.863 z "/>
<path style="fill:rgb(0, 255, 0);fill-opacity:0;fill-rule:evenodd;stroke:rgb(255, 0, 33);stroke-width:1;" d="M 460.354, 356.506 L 462.526, 353.569 L 470.318, 356.89 L 468.019, 359.828 L 460.354, 356.506 z "/>
<path style="fill:rgb(0, 0, 255);fill-opacity:0;fill-rule:evenodd;stroke:rgb(255, 0, 33);stroke-width:1;" d="M 492.288, 343.35 L 494.46, 340.667 L 501.485, 343.733 L 499.313, 346.543 L 492.288, 343.35 z "/>
<path style="fill:rgb(255, 255, 0);fill-opacity:0;fill-rule:evenodd;stroke:rgb(255, 0, 33);stroke-width:1;" d="M 105.892, 51.0937 L 109.341, 38.8312 L 125.563, 44.1961 L 129.012, 38.1926 L 111.129, 32.4445 L 114.705, 20.0543 L 135.398, 26.8242 L 138.719, 20.9484 L 116.238, 13.7953 L 119.943, 0 L 174.613, 17.7551 L 167.46, 30.273 L 149.321, 24.3973 L 145.873, 30.273 L 164.139, 36.2765 L 157.752, 47.5172 L 139.614, 41.5137 L 136.293, 47.5172 L 154.431, 53.3929 L 146.511, 67.5715 L 135.526, 63.9949 L 137.059, 61.3125 L 105.892, 51.0937 z "/>
</svg>