<?xml version="1.0" encoding="iso-8859-1" standalone="no"?>
<!DOCTYPE svg PUBLIC "-//W3C//DTD SVG 1.0//EN" "http://www.w3.org/TR/2001/REC-SVG-20010904/DTD/svg10.dtd">
<svg xmlns="http://www.w3.org/2000/svg" width="976" height="800">
<path style="fill:rgb(255, 0, 0);fill-opacity:0;fill-rule:evenodd;stroke:rgb(255, 206, 0);stroke-width:1;" d="M 321.091, 753.2 L 329.888, 741.06 L 336.398, 743.699 L 338.861, 742.995 L 343.435, 741.412 L 347.834, 739.477 L 351.88, 737.189 L 353.816, 735.782 L 355.575, 734.55 L 358.918, 731.559 L 362.261, 727.689 L 361.029, 721.531 L 365.252, 717.484 L 350.121, 710.974 L 416.274, 620.013 L 431.757, 626.523 L 433.868, 621.773 L 437.387, 618.078 L 441.434, 619.837 L 443.721, 615.967 L 445.129, 612.448 L 445.656, 610.688 L 446.36, 607.17 L 446.36, 603.651 L 446.36, 601.715 L 445.656, 598.197 L 444.425, 594.678 L 437.563, 591.511 L 448.472, 577.788 L 497.735, 598.9 L 499.142, 600.66 L 488.762, 614.559 L 468.353, 642.358 L 470.288, 643.061 L 447.944, 673.323 L 461.139, 679.129 L 463.954, 675.434 L 501.078, 691.269 L 501.43, 694.964 L 499.67, 699.714 L 498.614, 702.001 L 496.151, 706.4 L 493.16, 710.798 L 489.817, 715.021 L 485.947, 718.892 L 483.835, 720.651 L 474.687, 727.513 L 437.035, 712.206 L 439.323, 708.687 L 426.127, 703.409 L 404.135, 733.846 L 400.968, 732.439 L 370.882, 773.961 L 321.091, 753.2 z "/>
<path style="fill:rgb(0, 255, 0);fill-opacity:0;fill-rule:evenodd;stroke:rgb(255, 206, 0);stroke-width:1;" d="M 204.97, 649.923 L 224.852, 622.652 L 231.537, 625.467 L 233.297, 623.18 L 252.826, 631.273 L 250.891, 633.912 L 263.734, 639.191 L 265.494, 636.903 L 284.495, 644.821 L 282.736, 647.284 L 299.45, 654.146 L 301.034, 652.034 L 321.091, 660.479 L 319.507, 662.591 L 324.962, 664.878 L 317.924, 674.379 L 326.545, 678.073 L 273.235, 750.913 L 269.188, 751.265 L 265.142, 751.089 L 261.095, 750.561 L 257.4, 749.681 L 253.706, 748.274 L 250.363, 746.69 L 248.779, 745.634 L 245.964, 743.523 L 244.733, 742.292 L 242.622, 739.653 L 240.862, 736.837 L 243.677, 732.967 L 226.435, 707.983 L 228.898, 704.64 L 227.843, 704.289 L 231.185, 699.714 L 229.426, 699.01 L 238.399, 686.87 L 240.686, 687.926 L 244.029, 683.352 L 259.688, 689.861 L 268.309, 678.249 L 204.97, 649.923 z "/>
<path style="fill:rgb(0, 0, 255);fill-opacity:0;fill-rule:evenodd;stroke:rgb(255, 206, 0);stroke-width:1;" d="M 352.056, 452.342 L 377.216, 417.682 L 383.901, 418.21 L 390.411, 419.265 L 393.578, 419.969 L 400.088, 421.553 L 406.246, 423.488 L 412.052, 425.775 L 417.858, 428.59 L 423.312, 431.405 L 428.414, 434.748 L 433.165, 438.267 L 437.387, 442.138 L 441.434, 446.184 L 444.953, 450.583 L 446.536, 452.87 L 449.527, 457.444 L 451.814, 462.019 L 453.926, 466.945 L 455.333, 471.872 L 456.213, 476.974 L 456.389, 479.437 L 456.565, 484.539 L 456.213, 489.642 L 455.333, 494.744 L 454.102, 499.67 L 452.166, 504.596 L 449.879, 509.347 L 447.064, 513.921 L 402.199, 495.272 L 414.339, 478.381 L 361.733, 456.389 L 352.056, 452.342 z "/>
<path style="fill:rgb(255, 255, 0);fill-opacity:0;fill-rule:evenodd;stroke:rgb(255, 206, 0);stroke-width:1;" d="M 286.607, 535.21 L 304.025, 511.282 L 325.313, 520.255 L 331.471, 511.986 L 310.183, 503.013 L 324.962, 482.604 L 346.426, 491.577 L 352.056, 483.484 L 330.768, 474.511 L 348.01, 450.583 L 352.056, 452.342 L 361.733, 456.389 L 358.742, 460.611 L 380.207, 469.584 L 380.91, 468.881 L 393.402, 474.335 L 377.216, 496.679 L 360.853, 489.817 L 359.094, 492.281 L 361.029, 493.16 L 358.566, 496.327 L 373.169, 502.309 L 366.835, 511.106 L 368.419, 511.634 L 365.252, 515.857 L 363.844, 515.329 L 357.51, 523.95 L 341.148, 517.088 L 336.75, 523.07 L 353.112, 529.932 L 345.898, 539.96 L 347.306, 540.664 L 343.083, 546.47 L 341.5, 545.766 L 337.101, 552.1 L 323.73, 546.47 L 324.258, 545.766 L 303.145, 536.969 L 300.154, 541.016 L 298.746, 540.312 L 286.607, 535.21 z "/>
<path style="fill:rgb(255, 0, 0);fill-opacity:0;fill-rule:evenodd;stroke:rgb(255, 206, 0);stroke-width:1;" d="M 65.9776, 177.172 L 80.2287, 157.818 L 78.9971, 157.291 L 94.3039, 136.53 L 122.806, 148.669 L 113.833, 160.809 L 105.74, 157.291 L 101.342, 163.272 L 124.214, 172.949 L 128.612, 166.967 L 120.695, 163.624 L 129.668, 151.484 L 158.17, 163.624 L 128.612, 203.739 L 116.121, 198.461 L 108.555, 195.294 L 116.648, 184.209 L 111.546, 182.098 L 109.611, 184.737 L 95.8874, 178.931 L 97.8227, 176.468 L 92.7205, 174.357 L 84.6272, 185.089 L 65.9776, 177.172 z "/>
<path style="fill:rgb(0, 255, 0);fill-opacity:0;fill-rule:evenodd;stroke:rgb(255, 206, 0);stroke-width:1;" d="M 47.6798, 224.852 L 56.4768, 213.064 L 64.2182, 216.406 L 66.3294, 215.879 L 68.7926, 212.712 L 67.737, 210.776 L 60.3475, 207.609 L 63.3385, 203.563 L 64.9219, 204.267 L 69.8483, 197.933 L 79.349, 201.803 L 82.1641, 197.933 L 80.7565, 197.405 L 81.8122, 195.821 L 73.543, 192.479 L 78.2934, 185.969 L 111.722, 200.044 L 114.185, 201.1 L 116.121, 198.461 L 128.612, 203.739 L 97.6468, 245.964 L 47.6798, 224.852 z M 80.4047, 219.749 L 93.0724, 225.203 L 95.8874, 223.972 L 101.517, 216.582 L 100.99, 214.471 L 88.322, 209.017 L 80.4047, 219.749 z "/>
<path style="fill:rgb(0, 0, 255);fill-opacity:0;fill-rule:evenodd;stroke:rgb(255, 206, 0);stroke-width:1;" d="M 42.2256, 496.503 L 50.6708, 485.067 L 54.3655, 486.651 L 58.4121, 487.178 L 64.9219, 478.381 L 62.1069, 475.566 L 58.94, 474.335 L 67.2091, 462.899 L 90.7851, 472.927 L 82.6919, 484.011 L 90.2573, 487.178 L 98.3506, 476.094 L 122.278, 485.947 L 118.936, 490.521 L 114.009, 497.383 L 110.314, 495.975 L 105.74, 495.623 L 104.157, 497.911 L 102.925, 497.383 L 100.11, 501.43 L 101.166, 501.781 L 99.4062, 504.42 L 102.221, 506.708 L 105.74, 508.291 L 96.943, 520.607 L 74.2468, 511.106 L 83.2197, 498.439 L 74.0708, 494.744 L 71.0798, 497.207 L 64.746, 506.18 L 42.2256, 496.503 z "/>
<path style="fill:rgb(255, 255, 0);fill-opacity:0;fill-rule:evenodd;stroke:rgb(255, 206, 0);stroke-width:1;" d="M 236.464, 135.826 L 247.9, 120.167 L 264.966, 127.205 L 269.364, 121.047 L 252.474, 113.833 L 264.262, 97.9987 L 268.661, 99.7581 L 281.504, 105.388 L 277.458, 111.018 L 293.996, 118.056 L 298.219, 112.25 L 312.47, 118.232 L 300.506, 134.594 L 286.958, 128.964 L 282.736, 134.594 L 296.635, 140.4 L 284.847, 156.587 L 272.707, 151.309 L 270.772, 150.605 L 274.643, 145.151 L 257.576, 137.937 L 253.882, 143.215 L 250.011, 141.632 L 236.464, 135.826 z "/>
<path style="fill:rgb(255, 0, 0);fill-opacity:0;fill-rule:evenodd;stroke:rgb(255, 206, 0);stroke-width:1;" d="M 375.632, 223.972 L 390.235, 203.915 L 391.467, 204.442 L 397.097, 196.701 L 418.386, 205.498 L 427.007, 209.193 L 427.711, 208.313 L 432.813, 210.424 L 434.396, 208.313 L 449.879, 214.823 L 427.535, 245.612 L 404.486, 235.936 L 415.747, 220.453 L 408.181, 217.462 L 396.921, 232.945 L 375.632, 223.972 z "/>
<path style="fill:rgb(0, 255, 0);fill-opacity:0;fill-rule:evenodd;stroke:rgb(255, 206, 0);stroke-width:1;" d="M 172.245, 222.037 L 181.922, 209.017 L 197.405, 215.527 L 200.748, 215.527 L 204.97, 217.286 L 206.906, 214.471 L 203.035, 212.888 L 201.1, 210.6 L 185.617, 203.915 L 195.47, 190.719 L 211.304, 197.405 L 209.545, 199.868 L 240.158, 213.064 L 232.417, 223.444 L 225.027, 220.277 L 222.74, 220.453 L 220.277, 223.972 L 220.277, 225.555 L 228.37, 228.898 L 220.629, 239.279 L 190.367, 226.435 L 188.608, 228.898 L 172.245, 222.037 z "/>
<path style="fill:rgb(0, 0, 255);fill-opacity:0;fill-rule:evenodd;stroke:rgb(255, 206, 0);stroke-width:1;" d="M 80.0528, 96.7671 L 87.4423, 86.3866 L 90.9611, 87.7941 L 108.027, 63.6903 L 143.391, 78.1174 L 126.149, 102.397 L 128.964, 103.453 L 128.084, 104.508 L 120.871, 114.889 L 103.805, 107.851 L 119.639, 85.331 L 113.305, 82.6919 L 110.314, 86.7385 L 109.435, 86.3866 L 97.119, 103.805 L 80.0528, 96.7671 z "/>
<path style="fill:rgb(255, 255, 0);fill-opacity:0;fill-rule:evenodd;stroke:rgb(255, 206, 0);stroke-width:1;" d="M 268.661, 99.7581 L 280.097, 84.0994 L 278.337, 83.3956 L 282.384, 77.9415 L 334.99, 100.11 L 327.601, 110.139 L 324.434, 114.537 L 322.498, 113.657 L 317.396, 120.343 L 312.47, 118.232 L 298.219, 112.25 L 281.504, 105.388 L 268.661, 99.7581 z "/>
<path style="fill:rgb(255, 0, 0);fill-opacity:0;fill-rule:evenodd;stroke:rgb(255, 206, 0);stroke-width:1;" d="M 172.597, 277.985 L 179.987, 267.781 L 188.256, 271.3 L 200.22, 254.761 L 191.951, 251.419 L 199.692, 240.862 L 235.76, 256.169 L 228.37, 266.197 L 228.018, 266.549 L 219.573, 263.031 L 207.961, 279.217 L 216.23, 282.736 L 208.665, 293.116 L 172.597, 277.985 z "/>
<path style="fill:rgb(0, 255, 0);fill-opacity:0;fill-rule:evenodd;stroke:rgb(255, 206, 0);stroke-width:1;" d="M 62.1069, 372.465 L 79.349, 348.889 L 93.0724, 354.695 L 98.3506, 356.983 L 92.8964, 364.372 L 96.7671, 365.956 L 97.9987, 364.196 L 108.731, 368.595 L 112.954, 362.789 L 126.677, 368.595 L 124.566, 371.41 L 125.445, 371.762 L 110.314, 392.698 L 62.1069, 372.465 z "/>
<path style="fill:rgb(0, 0, 255);fill-opacity:0;fill-rule:evenodd;stroke:rgb(255, 206, 0);stroke-width:1;" d="M 296.635, 331.471 L 312.998, 309.127 L 314.757, 309.831 L 327.601, 315.285 L 323.554, 320.739 L 344.843, 329.712 L 348.889, 324.258 L 349.769, 324.61 L 364.9, 331.119 L 348.362, 353.288 L 296.635, 331.471 z "/>
<path style="fill:rgb(255, 255, 0);fill-opacity:0;fill-rule:evenodd;stroke:rgb(255, 206, 0);stroke-width:1;" d="M 141.808, 264.966 L 169.782, 226.611 L 194.414, 236.991 L 193.358, 238.223 L 199.692, 240.862 L 191.951, 251.419 L 190.719, 253.178 L 179.107, 248.252 L 170.486, 259.864 L 182.274, 264.79 L 179.987, 267.781 L 172.597, 277.985 L 141.808, 264.966 z "/>
<path style="fill:rgb(255, 0, 0);fill-opacity:0;fill-rule:evenodd;stroke:rgb(255, 206, 0);stroke-width:1;" d="M 218.342, 157.466 L 234.704, 135.122 L 236.464, 135.826 L 250.011, 141.632 L 245.437, 147.79 L 248.252, 149.021 L 250.011, 148.494 L 264.79, 154.827 L 265.846, 156.411 L 268.133, 157.466 L 272.707, 151.309 L 284.847, 156.587 L 286.431, 157.115 L 272.004, 176.82 L 273.587, 177.348 L 271.652, 179.987 L 218.342, 157.466 z "/>
<path style="fill:rgb(0, 255, 0);fill-opacity:0;fill-rule:evenodd;stroke:rgb(255, 206, 0);stroke-width:1;" d="M 144.623, 124.566 L 151.66, 114.361 L 152.716, 113.13 L 155.531, 113.13 L 158.874, 114.537 L 159.578, 116.296 L 164.328, 118.232 L 166.791, 117.528 L 174.005, 107.324 L 172.773, 105.388 L 168.903, 103.805 L 167.319, 104.157 L 163.976, 102.749 L 162.217, 100.99 L 170.134, 89.7295 L 174.181, 91.313 L 174.709, 90.7851 L 202.507, 102.045 L 177.172, 137.761 L 144.623, 124.566 z "/>
<path style="fill:rgb(0, 0, 255);fill-opacity:0;fill-rule:evenodd;stroke:rgb(255, 206, 0);stroke-width:1;" d="M 245.085, 449.527 L 253.178, 438.443 L 249.307, 436.859 L 255.465, 428.414 L 262.855, 431.405 L 270.596, 420.673 L 263.382, 417.682 L 269.364, 409.413 L 296.635, 420.849 L 268.485, 459.38 L 245.085, 449.527 z "/>
<path style="fill:rgb(255, 255, 0);fill-opacity:0;fill-rule:evenodd;stroke:rgb(255, 206, 0);stroke-width:1;" d="M 144.799, 540.488 L 160.457, 518.848 L 173.125, 524.126 L 166.088, 533.803 L 172.245, 536.442 L 175.236, 532.043 L 187.552, 537.145 L 184.737, 541.016 L 189.488, 542.951 L 195.997, 534.154 L 210.776, 540.312 L 195.294, 561.777 L 144.799, 540.488 z "/>
<path style="fill:rgb(255, 0, 0);fill-opacity:0;fill-rule:evenodd;stroke:rgb(255, 206, 0);stroke-width:1;" d="M 276.226, 180.515 L 283.967, 170.31 L 290.477, 173.125 L 291.885, 172.069 L 299.098, 162.569 L 300.154, 159.93 L 293.468, 156.939 L 301.034, 146.91 L 332.879, 160.633 L 324.962, 171.19 L 318.804, 168.551 L 316.868, 169.606 L 310.534, 178.051 L 309.127, 180.691 L 315.989, 183.682 L 315.461, 184.561 L 308.071, 194.238 L 276.226, 180.515 z "/>
<path style="fill:rgb(0, 255, 0);fill-opacity:0;fill-rule:evenodd;stroke:rgb(255, 206, 0);stroke-width:1;" d="M 314.757, 309.831 L 330.24, 288.894 L 344.843, 295.052 L 342.556, 298.395 L 342.38, 299.978 L 347.306, 302.089 L 346.778, 302.793 L 360.853, 308.775 L 364.9, 303.321 L 378.447, 309.127 L 380.383, 309.831 L 364.9, 331.119 L 349.769, 324.61 L 353.816, 319.331 L 340.092, 313.525 L 338.685, 313.525 L 333.934, 311.414 L 331.823, 312.47 L 329.184, 315.989 L 327.601, 315.285 L 314.757, 309.831 z "/>
<path style="fill:rgb(0, 0, 255);fill-opacity:0;fill-rule:evenodd;stroke:rgb(255, 206, 0);stroke-width:1;" d="M 330.24, 288.894 L 346.426, 266.725 L 359.622, 272.355 L 360.15, 272.531 L 356.279, 277.634 L 377.04, 286.431 L 380.735, 281.504 L 394.458, 287.31 L 378.447, 309.127 L 364.9, 303.321 L 364.02, 302.969 L 367.891, 297.515 L 348.889, 289.598 L 344.843, 295.052 L 330.24, 288.894 z "/>
<path style="fill:rgb(255, 255, 0);fill-opacity:0;fill-rule:evenodd;stroke:rgb(255, 206, 0);stroke-width:1;" d="M 496.855, 92.1927 L 519.903, 60.5234 L 537.497, 67.737 L 546.47, 71.6077 L 523.422, 103.277 L 496.855, 92.1927 z "/>
<path style="fill:rgb(255, 0, 0);fill-opacity:0;fill-rule:evenodd;stroke:rgb(255, 206, 0);stroke-width:1;" d="M 208.665, 293.116 L 216.23, 282.736 L 216.406, 282.384 L 220.981, 284.319 L 223.62, 283.792 L 225.731, 280.801 L 226.259, 280.976 L 234.88, 269.013 L 228.37, 266.197 L 235.76, 256.169 L 236.112, 255.465 L 264.086, 267.253 L 263.558, 267.957 L 256.345, 277.985 L 252.474, 276.402 L 251.946, 275.346 L 249.659, 274.467 L 240.51, 287.134 L 241.39, 287.486 L 238.751, 291.181 L 240.158, 292.237 L 244.557, 294.172 L 236.64, 304.904 L 208.665, 293.116 z "/>
<path style="fill:rgb(0, 255, 0);fill-opacity:0;fill-rule:evenodd;stroke:rgb(255, 206, 0);stroke-width:1;" d="M 236.64, 304.904 L 244.557, 294.172 L 251.77, 297.163 L 253.178, 295.228 L 252.65, 294.876 L 262.151, 281.856 L 255.641, 279.041 L 256.345, 277.985 L 263.558, 267.957 L 291.533, 279.569 L 291.357, 279.745 L 283.44, 290.653 L 277.458, 288.014 L 273.587, 293.292 L 272.531, 292.764 L 264.966, 303.145 L 272.004, 306.136 L 264.438, 316.692 L 236.64, 304.904 z "/>
<path style="fill:rgb(0, 0, 255);fill-opacity:0;fill-rule:evenodd;stroke:rgb(255, 206, 0);stroke-width:1;" d="M 264.438, 316.692 L 272.004, 306.136 L 278.689, 308.775 L 289.773, 293.292 L 283.44, 290.653 L 291.357, 279.745 L 291.533, 279.569 L 319.155, 291.357 L 311.062, 302.441 L 304.377, 299.626 L 295.228, 312.118 L 294.524, 311.942 L 292.589, 314.581 L 299.978, 317.572 L 292.061, 328.304 L 264.438, 316.692 z "/>
<path style="fill:rgb(255, 255, 0);fill-opacity:0;fill-rule:evenodd;stroke:rgb(255, 206, 0);stroke-width:1;" d="M 213.415, 436.332 L 219.925, 427.183 L 220.629, 426.303 L 226.083, 428.766 L 228.546, 425.071 L 227.139, 424.368 L 244.381, 400.616 L 264.614, 409.237 L 251.243, 426.655 L 255.465, 428.414 L 249.307, 436.859 L 245.612, 435.276 L 237.343, 446.36 L 213.415, 436.332 z "/>
<path style="fill:rgb(255, 0, 0);fill-opacity:0;fill-rule:evenodd;stroke:rgb(255, 206, 0);stroke-width:1;" d="M 344.667, 266.022 L 357.862, 247.9 L 407.829, 269.013 L 394.458, 287.31 L 380.735, 281.504 L 379.503, 280.801 L 383.374, 275.346 L 363.492, 266.901 L 359.622, 272.355 L 346.426, 266.725 L 344.667, 266.022 z "/>
<path style="fill:rgb(0, 255, 0);fill-opacity:0;fill-rule:evenodd;stroke:rgb(255, 206, 0);stroke-width:1;" d="M 107.851, 779.415 L 123.158, 758.478 L 136.706, 764.284 L 132.659, 769.738 L 138.113, 772.026 L 153.772, 778.711 L 157.818, 773.081 L 162.217, 775.016 L 171.366, 778.887 L 155.883, 800 L 142.16, 794.37 L 146.382, 788.388 L 125.445, 779.767 L 121.399, 785.045 L 107.851, 779.415 z "/>
<path style="fill:rgb(0, 0, 255);fill-opacity:0;fill-rule:evenodd;stroke:rgb(255, 206, 0);stroke-width:1;" d="M 428.062, 165.56 L 442.665, 145.503 L 485.067, 163.272 L 470.288, 183.857 L 457.269, 178.403 L 456.213, 177.876 L 460.084, 172.421 L 459.38, 170.662 L 457.62, 171.19 L 448.999, 167.495 L 448.472, 165.912 L 446.184, 166.615 L 442.49, 171.718 L 429.998, 166.439 L 428.062, 165.56 z "/>
<path style="fill:rgb(255, 255, 0);fill-opacity:0;fill-rule:evenodd;stroke:rgb(255, 206, 0);stroke-width:1;" d="M 158.698, 361.557 L 159.754, 360.15 L 166.088, 351.528 L 171.19, 353.464 L 173.653, 353.464 L 183.506, 339.916 L 181.746, 338.509 L 176.996, 336.574 L 184.385, 326.369 L 212.184, 338.157 L 205.322, 347.834 L 200.044, 345.547 L 197.581, 345.722 L 187.728, 359.27 L 188.96, 361.029 L 194.238, 363.316 L 186.673, 373.345 L 158.698, 361.557 z "/>
<path style="fill:rgb(255, 0, 0);fill-opacity:0;fill-rule:evenodd;stroke:rgb(255, 206, 0);stroke-width:1;" d="M 329.008, 203.211 L 336.222, 193.534 L 336.925, 192.479 L 342.38, 194.766 L 345.547, 193.886 L 353.64, 182.45 L 352.584, 180.515 L 347.482, 178.403 L 354.695, 168.375 L 378.799, 178.403 L 363.668, 199.34 L 359.798, 197.933 L 357.335, 201.276 L 364.196, 204.267 L 356.455, 215.175 L 329.008, 203.211 z "/>
<path style="fill:rgb(0, 255, 0);fill-opacity:0;fill-rule:evenodd;stroke:rgb(255, 206, 0);stroke-width:1;" d="M 186.673, 373.345 L 194.238, 363.316 L 199.164, 365.252 L 201.452, 365.252 L 211.656, 351.704 L 210.249, 349.945 L 205.322, 347.834 L 212.184, 338.157 L 240.51, 350.121 L 233.297, 359.622 L 227.843, 357.335 L 225.555, 357.686 L 215.351, 371.234 L 216.23, 372.641 L 221.861, 375.104 L 214.471, 384.957 L 186.673, 373.345 z "/>
<path style="fill:rgb(0, 0, 255);fill-opacity:0;fill-rule:evenodd;stroke:rgb(255, 206, 0);stroke-width:1;" d="M 214.471, 384.957 L 221.861, 375.104 L 226.611, 377.04 L 229.074, 376.688 L 238.927, 363.844 L 238.047, 361.733 L 233.297, 359.622 L 240.51, 350.121 L 267.781, 361.733 L 260.743, 371.41 L 255.113, 368.947 L 253.002, 369.474 L 243.325, 382.494 L 244.029, 384.253 L 249.659, 386.541 L 242.446, 396.569 L 214.471, 384.957 z "/>
<path style="fill:rgb(255, 255, 0);fill-opacity:0;fill-rule:evenodd;stroke:rgb(255, 206, 0);stroke-width:1;" d="M 309.479, 135.298 L 317.22, 124.566 L 323.202, 127.029 L 324.962, 126.677 L 333.407, 114.713 L 332.879, 112.25 L 327.601, 110.139 L 334.99, 100.11 L 362.085, 111.37 L 354.695, 121.575 L 350.121, 119.639 L 346.954, 120.167 L 338.333, 131.955 L 337.981, 133.539 L 344.139, 136.178 L 336.398, 146.558 L 309.479, 135.298 z "/>
<path style="fill:rgb(255, 0, 0);fill-opacity:0;fill-rule:evenodd;stroke:rgb(255, 206, 0);stroke-width:1;" d="M 336.398, 146.558 L 344.139, 136.178 L 350.473, 138.817 L 359.974, 126.325 L 359.446, 123.51 L 354.695, 121.575 L 362.085, 111.37 L 388.828, 122.982 L 381.438, 132.835 L 376.688, 130.899 L 373.873, 131.779 L 364.196, 144.623 L 371.058, 147.614 L 363.316, 157.994 L 336.398, 146.558 z "/>
<path style="fill:rgb(0, 255, 0);fill-opacity:0;fill-rule:evenodd;stroke:rgb(255, 206, 0);stroke-width:1;" d="M 189.664, 478.029 L 200.044, 463.602 L 251.067, 485.067 L 238.927, 501.605 L 225.555, 495.975 L 227.315, 493.688 L 227.139, 491.753 L 224.676, 490.697 L 223.444, 492.105 L 189.664, 478.029 z "/>
<path style="fill:rgb(0, 0, 255);fill-opacity:0;fill-rule:evenodd;stroke:rgb(255, 206, 0);stroke-width:1;" d="M 363.316, 157.994 L 371.058, 147.614 L 376.864, 150.253 L 386.541, 137.409 L 386.365, 134.946 L 381.438, 132.835 L 388.828, 122.982 L 415.395, 134.418 L 408.533, 143.743 L 408.005, 144.271 L 403.079, 142.16 L 400.44, 143.215 L 390.939, 155.883 L 397.625, 158.874 L 389.707, 169.43 L 363.316, 157.994 z "/>
<path style="fill:rgb(255, 255, 0);fill-opacity:0;fill-rule:evenodd;stroke:rgb(255, 206, 0);stroke-width:1;" d="M 65.8016, 648.516 L 78.2934, 631.625 L 92.5445, 637.607 L 89.0257, 642.534 L 109.259, 650.979 L 112.778, 646.052 L 115.417, 647.108 L 127.557, 652.21 L 114.889, 669.276 L 65.8016, 648.516 z "/>
<path style="fill:rgb(255, 0, 0);fill-opacity:0;fill-rule:evenodd;stroke:rgb(255, 206, 0);stroke-width:1;" d="M 79.349, 348.889 L 93.4242, 329.712 L 96.943, 331.295 L 107.499, 335.694 L 105.74, 337.981 L 114.537, 341.676 L 138.641, 351.704 L 128.436, 365.78 L 95.3596, 351.88 L 93.0724, 354.695 L 79.349, 348.889 z "/>
<path style="fill:rgb(0, 255, 0);fill-opacity:0;fill-rule:evenodd;stroke:rgb(255, 206, 0);stroke-width:1;" d="M 305.608, 271.828 L 323.026, 248.252 L 324.61, 248.955 L 325.665, 247.548 L 325.313, 245.964 L 321.267, 244.205 L 327.952, 235.232 L 352.936, 245.788 L 346.074, 254.937 L 342.204, 253.354 L 340.092, 253.882 L 339.037, 255.289 L 340.796, 255.993 L 323.554, 279.569 L 305.608, 271.828 z "/>
<path style="fill:rgb(0, 0, 255);fill-opacity:0;fill-rule:evenodd;stroke:rgb(255, 206, 0);stroke-width:1;" d="M 232.769, 241.214 L 250.011, 217.814 L 251.594, 218.518 L 252.826, 216.934 L 252.65, 215.351 L 248.428, 213.591 L 255.289, 204.267 L 279.569, 214.647 L 272.883, 223.796 L 269.013, 222.212 L 267.077, 222.916 L 265.846, 224.676 L 267.605, 225.379 L 250.539, 248.603 L 232.769, 241.214 z "/>
<path style="fill:rgb(255, 255, 0);fill-opacity:0;fill-rule:evenodd;stroke:rgb(255, 206, 0);stroke-width:1;" d="M 281.328, 261.623 L 298.57, 238.223 L 300.154, 238.927 L 301.21, 237.343 L 301.034, 235.936 L 296.811, 234 L 303.497, 224.852 L 327.952, 235.232 L 321.267, 244.205 L 317.748, 242.797 L 316.34, 243.149 L 314.757, 245.261 L 316.165, 245.788 L 298.922, 269.188 L 281.328, 261.623 z "/>
<path style="fill:rgb(255, 0, 0);fill-opacity:0;fill-rule:evenodd;stroke:rgb(255, 206, 0);stroke-width:1;" d="M 75.4783, 450.935 L 82.5159, 441.434 L 87.7941, 443.545 L 90.4333, 443.721 L 96.7671, 434.924 L 95.8874, 432.989 L 90.2573, 430.702 L 97.4709, 420.673 L 125.093, 432.285 L 118.056, 441.962 L 111.018, 438.971 L 103.629, 449.175 L 103.981, 450.583 L 109.963, 453.046 L 103.101, 462.547 L 75.4783, 450.935 z "/>
<path style="fill:rgb(0, 255, 0);fill-opacity:0;fill-rule:evenodd;stroke:rgb(255, 206, 0);stroke-width:1;" d="M 264.086, 377.04 L 273.587, 364.02 L 323.026, 384.957 L 311.414, 400.616 L 299.626, 395.689 L 301.21, 393.578 L 300.682, 391.643 L 298.219, 391.467 L 264.086, 377.04 z "/>
<path style="fill:rgb(0, 0, 255);fill-opacity:0;fill-rule:evenodd;stroke:rgb(255, 206, 0);stroke-width:1;" d="M 257.225, 251.419 L 274.467, 228.194 L 275.698, 228.722 L 276.93, 227.139 L 276.578, 225.379 L 272.883, 223.796 L 279.569, 214.647 L 303.497, 224.852 L 296.811, 234 L 292.94, 232.593 L 291.357, 233.121 L 290.125, 234.88 L 291.709, 235.584 L 274.467, 258.808 L 257.225, 251.419 z "/>
<path style="fill:rgb(255, 255, 0);fill-opacity:0;fill-rule:evenodd;stroke:rgb(255, 206, 0);stroke-width:1;" d="M 424.016, 104.684 L 430.35, 96.0633 L 434.22, 97.6468 L 437.035, 97.2949 L 438.267, 95.8874 L 435.1, 94.4799 L 452.166, 71.0798 L 470.288, 78.4693 L 453.222, 101.869 L 450.583, 100.814 L 449.527, 102.221 L 450.231, 103.981 L 454.453, 105.916 L 448.12, 114.713 L 424.016, 104.684 z "/>
<path style="fill:rgb(255, 0, 0);fill-opacity:0;fill-rule:evenodd;stroke:rgb(255, 206, 0);stroke-width:1;" d="M 185.441, 424.368 L 192.303, 414.515 L 198.285, 416.978 L 200.396, 416.802 L 206.554, 408.181 L 206.026, 406.07 L 200.748, 403.959 L 206.906, 395.338 L 230.834, 405.19 L 216.23, 425.775 L 219.925, 427.183 L 213.415, 436.332 L 185.441, 424.368 z "/>
<path style="fill:rgb(0, 255, 0);fill-opacity:0;fill-rule:evenodd;stroke:rgb(255, 206, 0);stroke-width:1;" d="M 415.395, 186.673 L 429.998, 166.439 L 442.49, 171.718 L 439.147, 176.468 L 454.102, 182.802 L 457.269, 178.403 L 470.288, 183.857 L 455.861, 203.563 L 442.841, 198.109 L 446.712, 193.006 L 431.933, 186.848 L 428.238, 191.951 L 415.395, 186.673 z "/>
<path style="fill:rgb(0, 0, 255);fill-opacity:0;fill-rule:evenodd;stroke:rgb(255, 206, 0);stroke-width:1;" d="M 399.384, 94.3039 L 405.718, 85.6829 L 410.293, 87.4423 L 412.58, 87.0904 L 413.811, 85.5069 L 410.996, 84.2753 L 428.062, 60.8753 L 445.656, 68.2648 L 428.766, 91.313 L 425.951, 90.2573 L 424.544, 92.1927 L 425.951, 94.3039 L 430.35, 96.0633 L 424.016, 104.684 L 399.384, 94.3039 z "/>
<path style="fill:rgb(255, 255, 0);fill-opacity:0;fill-rule:evenodd;stroke:rgb(255, 206, 0);stroke-width:1;" d="M 157.818, 412.756 L 163.976, 404.135 L 167.671, 405.718 L 182.274, 385.309 L 206.906, 395.338 L 200.748, 403.959 L 195.294, 401.671 L 192.303, 402.375 L 186.145, 410.996 L 187.376, 412.58 L 192.303, 414.515 L 185.441, 424.368 L 157.818, 412.756 z "/>
<path style="fill:rgb(255, 0, 0);fill-opacity:0;fill-rule:evenodd;stroke:rgb(255, 206, 0);stroke-width:1;" d="M 178.403, 495.623 L 187.024, 483.835 L 223.444, 498.966 L 225.555, 495.975 L 238.927, 501.605 L 226.611, 518.672 L 213.943, 513.393 L 215.527, 511.106 L 178.403, 495.623 z "/>
<path style="fill:rgb(0, 255, 0);fill-opacity:0;fill-rule:evenodd;stroke:rgb(255, 206, 0);stroke-width:1;" d="M 116.472, 395.338 L 122.278, 387.42 L 125.621, 388.828 L 140.928, 367.891 L 164.856, 377.92 L 157.291, 388.124 L 150.429, 385.133 L 143.919, 393.93 L 144.447, 396.921 L 149.549, 399.032 L 143.919, 406.95 L 116.472, 395.338 z "/>
<path style="fill:rgb(0, 0, 255);fill-opacity:0;fill-rule:evenodd;stroke:rgb(255, 206, 0);stroke-width:1;" d="M 120.871, 114.889 L 128.084, 104.508 L 132.307, 106.268 L 150.077, 81.2844 L 166.439, 87.9701 L 151.133, 109.435 L 149.725, 108.907 L 148.318, 111.018 L 149.549, 111.37 L 148.318, 113.13 L 151.66, 114.361 L 144.623, 124.566 L 120.871, 114.889 z "/>
<path style="fill:rgb(255, 255, 0);fill-opacity:0;fill-rule:evenodd;stroke:rgb(255, 206, 0);stroke-width:1;" d="M 392.874, 170.662 L 412.052, 145.151 L 408.533, 143.743 L 415.395, 134.418 L 438.091, 144.271 L 430.878, 153.948 L 427.535, 152.54 L 408.885, 177.524 L 392.874, 170.662 z "/>
<path style="fill:rgb(255, 0, 0);fill-opacity:0;fill-rule:evenodd;stroke:rgb(255, 206, 0);stroke-width:1;" d="M 308.071, 194.238 L 315.461, 184.561 L 318.276, 185.793 L 337.453, 160.282 L 351.704, 166.439 L 332.703, 191.951 L 336.222, 193.534 L 329.008, 203.211 L 308.071, 194.238 z "/>
<path style="fill:rgb(0, 255, 0);fill-opacity:0;fill-rule:evenodd;stroke:rgb(255, 206, 0);stroke-width:1;" d="M 253.53, 393.402 L 261.271, 382.67 L 293.644, 396.393 L 293.116, 397.273 L 295.228, 398.153 L 297.867, 398.153 L 299.626, 395.689 L 311.414, 400.616 L 300.154, 416.099 L 287.31, 410.644 L 288.894, 408.357 L 253.53, 393.402 z "/>
<path style="fill:rgb(0, 0, 255);fill-opacity:0;fill-rule:evenodd;stroke:rgb(255, 206, 0);stroke-width:1;" d="M 44.5129, 688.63 L 47.3279, 684.935 L 54.0136, 675.962 L 98.7024, 695.14 L 89.2017, 707.807 L 87.7941, 707.28 L 75.4783, 702.001 L 76.1821, 700.946 L 71.7836, 699.186 L 66.5054, 696.899 L 65.8016, 697.779 L 44.5129, 688.63 z "/>
<path style="fill:rgb(255, 255, 0);fill-opacity:0;fill-rule:evenodd;stroke:rgb(255, 206, 0);stroke-width:1;" d="M 274.995, 551.397 L 286.607, 535.21 L 298.746, 540.312 L 296.107, 543.831 L 300.506, 545.59 L 300.858, 545.239 L 332.527, 558.434 L 325.137, 568.463 L 288.894, 553.332 L 286.607, 556.323 L 274.995, 551.397 z "/>
<path style="fill:rgb(255, 0, 0);fill-opacity:0;fill-rule:evenodd;stroke:rgb(255, 206, 0);stroke-width:1;" d="M 81.2844, 629.338 L 88.322, 619.661 L 124.39, 634.792 L 126.501, 631.977 L 127.381, 632.329 L 138.641, 637.079 L 127.557, 652.21 L 115.417, 647.108 L 117.352, 644.469 L 81.2844, 629.338 z "/>
<path style="fill:rgb(0, 255, 0);fill-opacity:0;fill-rule:evenodd;stroke:rgb(255, 206, 0);stroke-width:1;" d="M 358.038, 213.943 L 386.892, 174.357 L 400.264, 179.987 L 399.912, 180.339 L 393.05, 189.488 L 370.706, 219.221 L 358.038, 213.943 z "/>
<path style="fill:rgb(0, 0, 255);fill-opacity:0;fill-rule:evenodd;stroke:rgb(255, 206, 0);stroke-width:1;" d="M 263.734, 566.879 L 274.995, 551.397 L 286.607, 556.323 L 284.495, 559.314 L 320.739, 574.621 L 314.053, 583.77 L 277.458, 568.463 L 275.17, 571.63 L 263.734, 566.879 z "/>
<path style="fill:rgb(255, 255, 0);fill-opacity:0;fill-rule:evenodd;stroke:rgb(255, 206, 0);stroke-width:1;" d="M 162.217, 775.016 L 179.811, 750.561 L 185.793, 742.292 L 197.229, 757.95 L 175.764, 787.508 L 172.773, 786.277 L 176.644, 780.998 L 171.366, 778.887 L 162.217, 775.016 z "/>
<path style="fill:rgb(255, 0, 0);fill-opacity:0;fill-rule:evenodd;stroke:rgb(255, 206, 0);stroke-width:1;" d="M 35.5399, 410.82 L 44.5129, 398.505 L 56.6527, 403.607 L 92.1927, 418.562 L 84.9791, 428.59 L 49.4392, 413.635 L 47.6798, 415.923 L 35.5399, 410.82 z "/>
<path style="fill:rgb(0, 255, 0);fill-opacity:0;fill-rule:evenodd;stroke:rgb(255, 206, 0);stroke-width:1;" d="M 110.49, 309.127 L 118.232, 298.57 L 132.659, 304.552 L 129.492, 308.951 L 135.298, 311.414 L 138.465, 307.016 L 165.384, 318.452 L 157.642, 329.008 L 131.779, 318.1 L 112.602, 310.007 L 110.49, 309.127 z "/>
<path style="fill:rgb(0, 0, 255);fill-opacity:0;fill-rule:evenodd;stroke:rgb(255, 206, 0);stroke-width:1;" d="M 145.678, 354.344 L 170.662, 320.563 L 184.385, 326.369 L 176.996, 336.574 L 166.088, 351.528 L 159.754, 360.15 L 145.678, 354.344 z "/>
<path style="fill:rgb(255, 255, 0);fill-opacity:0;fill-rule:evenodd;stroke:rgb(255, 206, 0);stroke-width:1;" d="M 92.1927, 617.374 L 95.3596, 612.976 L 94.6558, 610.688 L 97.2949, 607.346 L 99.5821, 606.466 L 111.018, 611.392 L 109.611, 613.152 L 119.991, 617.902 L 121.575, 615.791 L 128.26, 618.606 L 127.381, 619.837 L 132.483, 621.949 L 134.77, 621.421 L 146.558, 626.347 L 138.641, 637.079 L 127.381, 632.329 L 128.084, 631.273 L 126.853, 630.746 L 127.381, 630.042 L 121.927, 627.755 L 120.695, 629.162 L 114.185, 626.523 L 115.593, 624.588 L 106.268, 620.541 L 104.684, 622.652 L 92.1927, 617.374 z "/>
<path style="fill:rgb(255, 0, 0);fill-opacity:0;fill-rule:evenodd;stroke:rgb(255, 206, 0);stroke-width:1;" d="M 99.2303, 604.53 L 101.869, 601.012 L 104.508, 600.308 L 107.675, 596.085 L 119.991, 601.364 L 118.408, 603.475 L 127.909, 607.346 L 129.492, 605.058 L 136.178, 607.873 L 135.122, 609.105 L 140.4, 611.392 L 142.863, 610.864 L 154.3, 615.615 L 154.3, 615.615 L 146.558, 626.347 L 134.77, 621.421 L 134.242, 619.485 L 129.316, 617.374 L 128.26, 618.606 L 121.575, 615.791 L 123.334, 613.503 L 112.954, 608.929 L 111.018, 611.392 L 99.5821, 606.466 L 99.2303, 604.53 z "/>
<path style="fill:rgb(0, 255, 0);fill-opacity:0;fill-rule:evenodd;stroke:rgb(255, 206, 0);stroke-width:1;" d="M 96.943, 520.607 L 105.74, 508.291 L 107.675, 508.115 L 110.842, 504.245 L 110.49, 502.133 L 114.009, 497.383 L 118.936, 490.521 L 122.454, 491.929 L 124.742, 488.938 L 131.955, 492.105 L 129.844, 494.92 L 133.187, 496.327 L 124.918, 507.763 L 123.158, 508.115 L 119.463, 513.042 L 119.991, 514.977 L 111.546, 526.589 L 96.943, 520.607 z "/>
<path style="fill:rgb(0, 0, 255);fill-opacity:0;fill-rule:evenodd;stroke:rgb(255, 206, 0);stroke-width:1;" d="M 195.47, 190.719 L 201.803, 182.098 L 250.011, 202.683 L 243.677, 211.304 L 211.304, 197.405 L 195.47, 190.719 z "/>
<path style="fill:rgb(255, 255, 0);fill-opacity:0;fill-rule:evenodd;stroke:rgb(255, 206, 0);stroke-width:1;" d="M 103.981, 464.306 L 109.787, 456.213 L 109.963, 453.046 L 115.769, 445.129 L 119.112, 446.536 L 120.871, 443.897 L 117.704, 442.49 L 118.056, 441.962 L 125.093, 432.285 L 139.521, 438.267 L 132.131, 448.472 L 129.14, 447.24 L 127.029, 450.055 L 130.02, 451.287 L 126.149, 456.565 L 124.214, 459.38 L 120.871, 460.435 L 114.713, 468.881 L 103.981, 464.306 z "/>
<path style="fill:rgb(255, 0, 0);fill-opacity:0;fill-rule:evenodd;stroke:rgb(255, 206, 0);stroke-width:1;" d="M 181.042, 514.097 L 188.608, 503.541 L 203.211, 509.523 L 203.915, 511.106 L 209.193, 513.393 L 213.943, 513.393 L 226.611, 518.672 L 218.518, 529.756 L 203.915, 523.598 L 203.211, 521.839 L 197.229, 519.375 L 195.47, 520.079 L 181.042, 514.097 L 181.042, 514.097 z "/>
<path style="fill:rgb(0, 255, 0);fill-opacity:0;fill-rule:evenodd;stroke:rgb(255, 206, 0);stroke-width:1;" d="M 173.477, 524.83 L 181.042, 514.097 L 181.042, 514.097 L 195.47, 520.079 L 196.701, 520.607 L 196.877, 522.015 L 201.276, 523.95 L 203.563, 523.598 L 203.915, 523.598 L 218.518, 529.756 L 210.776, 540.312 L 195.997, 534.154 L 195.294, 533.803 L 195.821, 532.923 L 190.367, 530.636 L 189.839, 531.515 L 173.477, 524.83 z "/>
<path style="fill:rgb(0, 0, 255);fill-opacity:0;fill-rule:evenodd;stroke:rgb(255, 206, 0);stroke-width:1;" d="M 31.3174, 162.921 L 38.8828, 152.54 L 39.5865, 151.66 L 56.6527, 158.874 L 59.4678, 155.003 L 70.3761, 159.578 L 59.2918, 174.709 L 31.3174, 162.921 z "/>
<path style="fill:rgb(255, 255, 0);fill-opacity:0;fill-rule:evenodd;stroke:rgb(255, 206, 0);stroke-width:1;" d="M 121.047, 585.177 L 127.029, 576.908 L 169.606, 595.03 L 163.624, 603.123 L 136.53, 591.687 L 121.047, 585.177 z "/>
<path style="fill:rgb(255, 0, 0);fill-opacity:0;fill-rule:evenodd;stroke:rgb(255, 206, 0);stroke-width:1;" d="M 393.05, 189.488 L 399.912, 180.339 L 428.062, 192.303 L 418.386, 205.498 L 397.097, 196.701 L 400.264, 192.479 L 393.05, 189.488 z "/>
<path style="fill:rgb(0, 255, 0);fill-opacity:0;fill-rule:evenodd;stroke:rgb(255, 206, 0);stroke-width:1;" d="M 127.557, 604.355 L 136.53, 591.687 L 163.624, 603.123 L 154.3, 615.615 L 154.3, 615.615 L 142.863, 610.864 L 140.4, 611.392 L 135.122, 609.105 L 136.178, 607.873 L 129.492, 605.058 L 127.557, 604.355 z "/>
<path style="fill:rgb(0, 0, 255);fill-opacity:0;fill-rule:evenodd;stroke:rgb(255, 206, 0);stroke-width:1;" d="M 124.918, 507.763 L 133.187, 496.327 L 141.104, 485.419 L 155.531, 491.401 L 139.169, 513.745 L 124.918, 507.763 z "/>
<path style="fill:rgb(255, 255, 0);fill-opacity:0;fill-rule:evenodd;stroke:rgb(255, 206, 0);stroke-width:1;" d="M 27.6226, 147.79 L 46.6241, 121.575 L 57.8843, 126.325 L 39.5865, 151.66 L 38.8828, 152.54 L 27.6226, 147.79 z "/>
<path style="fill:rgb(255, 0, 0);fill-opacity:0;fill-rule:evenodd;stroke:rgb(255, 206, 0);stroke-width:1;" d="M 27.4467, 728.392 L 32.9008, 720.827 L 67.737, 735.078 L 62.4588, 742.819 L 34.4843, 731.207 L 27.4467, 728.392 z "/>
<path style="fill:rgb(0, 255, 0);fill-opacity:0;fill-rule:evenodd;stroke:rgb(255, 206, 0);stroke-width:1;" d="M 39.0587, 575.676 L 59.4678, 547.35 L 63.5144, 548.933 L 63.6903, 551.748 L 67.561, 553.156 L 53.3099, 573.213 L 48.5595, 579.723 L 39.0587, 575.676 z "/>
<path style="fill:rgb(0, 0, 255);fill-opacity:0;fill-rule:evenodd;stroke:rgb(255, 206, 0);stroke-width:1;" d="M 129.14, 530.46 L 143.391, 511.282 L 155.179, 516.384 L 153.42, 518.848 L 140.928, 535.562 L 129.14, 530.46 z "/>
<path style="fill:rgb(255, 255, 0);fill-opacity:0;fill-rule:evenodd;stroke:rgb(255, 206, 0);stroke-width:1;" d="M 953.42, 120.695 L 957.642, 114.537 L 966.263, 112.602 L 974.181, 115.593 L 976.996, 122.278 L 972.773, 128.26 L 964.152, 130.372 L 956.235, 127.205 L 953.42, 120.695 z "/>
<path style="fill:rgb(255, 0, 0);fill-opacity:0;fill-rule:evenodd;stroke:rgb(255, 206, 0);stroke-width:1;" d="M 126.149, 456.565 L 130.02, 451.287 L 132.131, 448.472 L 139.521, 438.267 L 150.429, 442.841 L 137.233, 461.139 L 126.149, 456.565 z "/>
<path style="fill:rgb(0, 255, 0);fill-opacity:0;fill-rule:evenodd;stroke:rgb(255, 206, 0);stroke-width:1;" d="M 29.558, 738.069 L 34.4843, 731.207 L 62.4588, 742.819 L 57.5324, 749.505 L 29.558, 738.069 z "/>
<path style="fill:rgb(0, 0, 255);fill-opacity:0;fill-rule:evenodd;stroke:rgb(255, 206, 0);stroke-width:1;" d="M 62.2828, 576.908 L 76.534, 557.027 L 85.6829, 560.721 L 84.2753, 562.657 L 72.1355, 579.723 L 71.4317, 580.603 L 62.2828, 576.908 z "/>
<path style="fill:rgb(255, 255, 0);fill-opacity:0;fill-rule:evenodd;stroke:rgb(255, 206, 0);stroke-width:1;" d="M 161.513, 469.232 L 162.393, 467.825 L 173.653, 452.518 L 184.385, 457.093 L 172.245, 473.631 L 161.513, 469.232 z "/>
<path style="fill:rgb(255, 0, 0);fill-opacity:0;fill-rule:evenodd;stroke:rgb(255, 206, 0);stroke-width:1;" d="M 53.3099, 573.213 L 67.561, 553.156 L 76.534, 557.027 L 62.2828, 576.908 L 53.3099, 573.213 z "/>
<path style="fill:rgb(0, 255, 0);fill-opacity:0;fill-rule:evenodd;stroke:rgb(255, 206, 0);stroke-width:1;" d="M 172.245, 473.631 L 184.385, 457.093 L 194.766, 461.491 L 182.802, 478.029 L 172.245, 473.631 z "/>
<path style="fill:rgb(0, 0, 255);fill-opacity:0;fill-rule:evenodd;stroke:rgb(255, 206, 0);stroke-width:1;" d="M 72.1355, 579.723 L 84.2753, 562.657 L 94.128, 566.703 L 81.8122, 583.77 L 72.1355, 579.723 z "/>
<path style="fill:rgb(255, 255, 0);fill-opacity:0;fill-rule:evenodd;stroke:rgb(255, 206, 0);stroke-width:1;" d="M 688.278, 187.376 L 695.843, 177.524 L 712.03, 184.737 L 704.464, 194.59 L 695.667, 190.719 L 688.278, 187.376 z "/>
<path style="fill:rgb(255, 0, 0);fill-opacity:0;fill-rule:evenodd;stroke:rgb(255, 206, 0);stroke-width:1;" d="M 152.012, 463.426 L 163.097, 448.12 L 173.653, 452.518 L 162.393, 467.825 L 152.012, 463.426 z "/>
<path style="fill:rgb(0, 255, 0);fill-opacity:0;fill-rule:evenodd;stroke:rgb(255, 206, 0);stroke-width:1;" d="M 90.9611, 587.464 L 103.101, 570.398 L 112.602, 574.445 L 108.731, 579.899 L 100.11, 591.335 L 90.9611, 587.464 z "/>
<path style="fill:rgb(0, 0, 255);fill-opacity:0;fill-rule:evenodd;stroke:rgb(255, 206, 0);stroke-width:1;" d="M 96.943, 331.295 L 102.221, 324.082 L 121.399, 332.351 L 114.537, 341.676 L 105.74, 337.981 L 107.499, 335.694 L 96.943, 331.295 z "/>
<path style="fill:rgb(255, 255, 0);fill-opacity:0;fill-rule:evenodd;stroke:rgb(255, 206, 0);stroke-width:1;" d="M 81.8122, 583.77 L 94.128, 566.703 L 103.101, 570.398 L 90.9611, 587.464 L 81.8122, 583.77 z "/>
<path style="fill:rgb(255, 0, 0);fill-opacity:0;fill-rule:evenodd;stroke:rgb(255, 206, 0);stroke-width:1;" d="M 32.5489, 683.528 L 41.8738, 670.86 L 54.0136, 675.962 L 47.3279, 684.935 L 44.5129, 688.63 L 32.5489, 683.528 z "/>
<path style="fill:rgb(0, 255, 0);fill-opacity:0;fill-rule:evenodd;stroke:rgb(255, 206, 0);stroke-width:1;" d="M 142.16, 459.38 L 153.244, 444.073 L 163.097, 448.12 L 152.012, 463.426 L 142.16, 459.38 z "/>
<path style="fill:rgb(0, 0, 255);fill-opacity:0;fill-rule:evenodd;stroke:rgb(255, 206, 0);stroke-width:1;" d="M 107.148, 317.22 L 112.602, 310.007 L 131.779, 318.1 L 126.501, 325.489 L 107.148, 317.22 z "/>
<path style="fill:rgb(255, 255, 0);fill-opacity:0;fill-rule:evenodd;stroke:rgb(255, 206, 0);stroke-width:1;" d="M 102.221, 324.082 L 107.148, 317.22 L 126.501, 325.489 L 121.399, 332.351 L 102.221, 324.082 z "/>
<path style="fill:rgb(255, 0, 0);fill-opacity:0;fill-rule:evenodd;stroke:rgb(255, 206, 0);stroke-width:1;" d="M 23.0482, 276.578 L 29.7339, 267.781 L 41.17, 272.707 L 34.6602, 281.504 L 34.6602, 281.504 L 23.0482, 276.578 z "/>
<path style="fill:rgb(0, 255, 0);fill-opacity:0;fill-rule:evenodd;stroke:rgb(255, 206, 0);stroke-width:1;" d="M 108.731, 579.899 L 112.602, 574.445 L 114.713, 571.63 L 127.029, 576.908 L 121.047, 585.177 L 108.731, 579.899 z "/>
<path style="fill:rgb(0, 0, 255);fill-opacity:0;fill-rule:evenodd;stroke:rgb(255, 206, 0);stroke-width:1;" d="M 126.853, 479.965 L 131.427, 473.455 L 141.632, 477.678 L 137.057, 484.187 L 126.853, 479.965 z "/>
<path style="fill:rgb(255, 255, 0);fill-opacity:0;fill-rule:evenodd;stroke:rgb(255, 206, 0);stroke-width:1;" d="M 0, 204.97 L 8.79701, 192.83 L 13.1955, 194.59 L 30.9655, 169.782 L 40.2903, 173.653 L 31.8452, 185.265 L 35.364, 186.848 L 33.6046, 189.136 L 35.8918, 190.191 L 37.4753, 190.719 L 47.5038, 176.82 L 65.6257, 184.209 L 47.8557, 209.193 L 50.6708, 210.424 L 42.0497, 222.388 L 24.4557, 215.175 L 32.9008, 203.563 L 26.567, 200.924 L 18.2978, 212.536 L 0, 204.97 z "/>
<path style="fill:rgb(255, 0, 0);fill-opacity:0;fill-rule:evenodd;stroke:rgb(255, 206, 0);stroke-width:1;" d="M 20.2331, 700.242 L 32.5489, 683.528 L 44.5129, 688.63 L 65.8016, 697.779 L 75.4783, 702.001 L 87.7941, 707.28 L 77.4137, 721.355 L 72.3114, 728.216 L 39.5865, 714.317 L 42.9294, 709.919 L 20.2331, 700.242 z "/>
<path style="fill:rgb(0, 255, 0);fill-opacity:0;fill-rule:evenodd;stroke:rgb(255, 206, 0);stroke-width:1;" d="M 18.2978, 628.282 L 24.6316, 619.485 L 31.8452, 622.476 L 36.2437, 616.318 L 38.8828, 617.55 L 39.5865, 616.494 L 40.9941, 617.022 L 43.1053, 614.031 L 32.5489, 609.457 L 40.1144, 598.9 L 80.9325, 615.967 L 74.0708, 625.643 L 67.561, 622.828 L 66.1535, 624.94 L 64.746, 624.412 L 62.9866, 626.699 L 64.746, 627.403 L 60.1715, 633.912 L 66.5054, 636.552 L 59.9956, 645.525 L 18.2978, 628.282 z "/>
<path style="fill:rgb(0, 0, 255);fill-opacity:0;fill-rule:evenodd;stroke:rgb(255, 206, 0);stroke-width:1;" d="M 4.75038, 453.398 L 12.3158, 442.841 L 25.8632, 448.472 L 27.2707, 450.583 L 35.0121, 453.75 L 56.4768, 462.723 L 50.3189, 470.992 L 21.4647, 458.852 L 18.6497, 459.38 L 4.75038, 453.398 z "/>
<path style="fill:rgb(255, 255, 0);fill-opacity:0;fill-rule:evenodd;stroke:rgb(255, 206, 0);stroke-width:1;" d="M 5.63009, 696.019 L 12.3158, 686.87 L 12.8436, 685.991 L 19.8812, 688.982 L 27.7985, 678.249 L 20.585, 675.258 L 27.4467, 665.758 L 27.9745, 665.23 L 41.8738, 670.86 L 32.5489, 683.528 L 20.2331, 700.242 L 19.1775, 701.649 L 5.63009, 696.019 z "/>
<path style="fill:rgb(255, 0, 0);fill-opacity:0;fill-rule:evenodd;stroke:rgb(255, 206, 0);stroke-width:1;" d="M 14.2512, 135.826 L 29.7339, 114.889 L 43.1053, 120.519 L 27.6226, 141.456 L 14.2512, 135.826 z "/>
<path style="fill:rgb(0, 255, 0);fill-opacity:0;fill-rule:evenodd;stroke:rgb(255, 206, 0);stroke-width:1;" d="M 12.3158, 442.841 L 19.8812, 432.285 L 43.8091, 442.138 L 35.0121, 453.75 L 27.2707, 450.583 L 25.8632, 448.472 L 12.3158, 442.841 z "/>
<path style="fill:rgb(0, 0, 255);fill-opacity:0;fill-rule:evenodd;stroke:rgb(255, 206, 0);stroke-width:1;" d="M 616.318, 141.456 L 623.356, 131.955 L 625.643, 133.011 L 661.711, 84.2753 L 649.395, 78.9971 L 653.266, 73.7189 L 651.682, 73.1911 L 652.034, 72.3114 L 653.266, 69.1445 L 655.201, 66.1535 L 656.257, 64.57 L 659.952, 60.5234 L 663.119, 58.2362 L 664.35, 58.764 L 667.869, 53.8377 L 680.185, 59.1159 L 715.021, 12.3158 L 712.558, 11.2602 L 721.003, 0 L 758.478, 16.0106 L 750.209, 27.2707 L 743.523, 24.4557 L 708.687, 71.2558 L 711.678, 72.6633 L 707.983, 77.4137 L 709.215, 78.1174 L 708.687, 79.7009 L 706.576, 84.0994 L 704.64, 87.0904 L 702.177, 89.5536 L 699.362, 92.0167 L 697.955, 93.0724 L 696.899, 92.7205 L 693.028, 97.6468 L 690.037, 96.4152 L 654.497, 143.039 L 662.063, 146.206 L 653.794, 157.291 L 616.318, 141.456 z "/>
<path style="fill:rgb(255, 255, 0);fill-opacity:0;fill-rule:evenodd;stroke:rgb(255, 206, 0);stroke-width:1;" d="M 159.754, 74.9505 L 170.31, 60.6994 L 178.051, 63.8663 L 178.755, 62.9866 L 184.913, 65.6257 L 188.256, 61.0512 L 172.597, 54.5415 L 184.913, 37.8271 L 234.528, 58.764 L 206.026, 97.8227 L 189.488, 90.7851 L 191.423, 88.322 L 159.754, 74.9505 z "/>
<path style="fill:rgb(255, 0, 0);fill-opacity:0;fill-rule:evenodd;stroke:rgb(255, 206, 0);stroke-width:1;" d="M 38.355, 79.7009 L 46.4482, 68.2648 L 61.2272, 74.2468 L 65.4497, 68.4407 L 63.8663, 67.737 L 64.9219, 66.1535 L 65.8016, 66.6813 L 68.7926, 62.4588 L 54.7174, 56.6527 L 62.6347, 45.3926 L 104.508, 62.4588 L 97.119, 73.0152 L 88.8498, 69.6723 L 80.0528, 82.1641 L 87.9701, 85.5069 L 87.4423, 86.3866 L 80.0528, 96.7671 L 38.355, 79.7009 z "/>
<path style="fill:rgb(0, 255, 0);fill-opacity:0;fill-rule:evenodd;stroke:rgb(255, 206, 0);stroke-width:1;" d="M 500.726, 52.4302 L 513.569, 34.6602 L 563.712, 55.773 L 550.869, 73.3671 L 546.47, 71.6077 L 537.497, 67.737 L 539.96, 64.3941 L 539.96, 61.5791 L 519.375, 52.958 L 516.912, 54.0136 L 514.097, 58.0603 L 500.726, 52.4302 z "/>
<path style="fill:rgb(0, 0, 255);fill-opacity:0;fill-rule:evenodd;stroke:rgb(255, 206, 0);stroke-width:1;" d="M 350.473, 73.7189 L 356.983, 64.9219 L 361.733, 66.8573 L 364.196, 66.5054 L 365.252, 64.9219 L 362.437, 63.6903 L 379.327, 40.4662 L 396.921, 47.8557 L 380.031, 70.9039 L 377.392, 69.8483 L 375.984, 71.4317 L 377.216, 73.543 L 381.614, 75.3024 L 375.104, 84.0994 L 350.473, 73.7189 z "/>
<path style="fill:rgb(255, 255, 0);fill-opacity:0;fill-rule:evenodd;stroke:rgb(255, 206, 0);stroke-width:1;" d="M 375.104, 84.0994 L 381.614, 75.3024 L 385.837, 77.0618 L 388.3, 76.8859 L 389.707, 75.1265 L 386.717, 73.8949 L 403.607, 50.6708 L 421.025, 57.8843 L 404.135, 81.1084 L 401.495, 80.0528 L 400.264, 81.6362 L 401.495, 83.9235 L 405.718, 85.6829 L 399.384, 94.3039 L 375.104, 84.0994 z "/>
</svg>