<?xml version="1.0" encoding="iso-8859-1" standalone="no"?>
<!DOCTYPE svg PUBLIC "-//W3C//DTD SVG 1.0//EN" "http://www.w3.org/TR/2001/REC-SVG-20010904/DTD/svg10.dtd">
<svg xmlns="http://www.w3.org/2000/svg" width="1097" height="800">
<path style="fill:rgb(255, 0, 0);fill-opacity:0;fill-rule:evenodd;stroke:rgb(255, 0, 138);stroke-width:1;" d="M 186.618, 523.508 L 231.646, 461.483 L 243.4, 466.546 L 243.942, 465.823 L 402.351, 532.369 L 401.808, 533.273 L 435.443, 547.559 L 390.235, 609.765 L 398.734, 613.382 L 380.832, 637.794 L 224.051, 571.971 L 237.251, 553.888 L 241.953, 547.378 L 197.649, 528.752 L 197.83, 528.391 L 186.618, 523.508 z "/>
<path style="fill:rgb(0, 255, 0);fill-opacity:0;fill-rule:evenodd;stroke:rgb(255, 0, 138);stroke-width:1;" d="M 682.64, 615.371 L 744.304, 529.476 L 882.821, 586.618 L 881.555, 588.969 L 851.356, 631.826 L 827.486, 622.242 L 807.233, 650.814 L 798.734, 662.568 L 797.83, 663.653 L 682.64, 615.371 z "/>
<path style="fill:rgb(0, 0, 255);fill-opacity:0;fill-rule:evenodd;stroke:rgb(255, 0, 138);stroke-width:1;" d="M 671.067, 315.913 L 694.575, 283.725 L 715.913, 254.792 L 734.177, 229.656 L 838.517, 273.779 L 840.506, 283.002 L 786.98, 356.058 L 776.854, 358.047 L 735.986, 340.868 L 734.539, 342.857 L 671.067, 315.913 z "/>
<path style="fill:rgb(255, 255, 0);fill-opacity:0;fill-rule:evenodd;stroke:rgb(255, 0, 138);stroke-width:1;" d="M 941.591, 248.825 L 943.4, 246.474 L 956.239, 229.114 L 986.257, 187.884 L 996.926, 173.418 L 998.553, 171.067 L 1006.87, 169.078 L 1009.04, 169.982 L 1057.32, 190.416 L 1063.11, 192.948 L 1067.09, 199.277 L 1066.91, 201.085 L 1061.84, 232.731 L 1057.32, 261.483 L 1052.44, 292.586 L 1052.08, 294.937 L 1044.67, 297.83 L 1041.05, 296.383 L 946.293, 256.239 L 943.761, 255.154 L 941.591, 248.825 z "/>
<path style="fill:rgb(255, 0, 0);fill-opacity:0;fill-rule:evenodd;stroke:rgb(255, 0, 138);stroke-width:1;" d="M 886.799, 558.228 L 888.427, 555.877 L 889.15, 554.973 L 896.564, 544.665 L 903.797, 534.901 L 915.913, 518.626 L 924.955, 506.329 L 925.136, 505.967 L 935.624, 491.682 L 950.271, 471.971 L 951.899, 469.62 L 1017.9, 498.192 L 1010.67, 523.689 L 996.383, 574.503 L 988.969, 601.447 L 886.799, 558.228 z "/>
<path style="fill:rgb(0, 255, 0);fill-opacity:0;fill-rule:evenodd;stroke:rgb(255, 0, 138);stroke-width:1;" d="M 865.823, 397.649 L 872.333, 388.246 L 896.022, 355.335 L 900, 356.962 L 902.893, 358.228 L 910.127, 361.302 L 927.486, 368.535 L 918.083, 381.555 L 959.494, 398.734 L 971.609, 403.797 L 978.843, 393.852 L 981.555, 390.597 L 997.83, 367.631 L 1007.23, 371.609 L 1008.32, 371.971 L 1009.76, 372.514 L 1019.71, 376.673 L 1036.53, 383.725 L 1025.68, 452.984 L 1012.84, 459.855 L 865.823, 397.649 z "/>
<path style="fill:rgb(0, 0, 255);fill-opacity:0;fill-rule:evenodd;stroke:rgb(255, 0, 138);stroke-width:1;" d="M 358.77, 181.555 L 389.15, 140.145 L 406.329, 147.559 L 414.286, 150.814 L 401.808, 167.812 L 417.36, 174.503 L 418.626, 172.875 L 444.665, 183.906 L 444.485, 184.268 L 550.995, 229.295 L 551.356, 228.752 L 573.779, 238.156 L 572.514, 239.964 L 590.416, 247.378 L 572.875, 271.248 L 554.973, 263.653 L 552.622, 267.269 L 482.098, 237.432 L 484.268, 234.539 L 446.835, 218.807 L 444.846, 221.7 L 375.769, 192.405 L 377.758, 189.693 L 358.77, 181.555 z "/>
<path style="fill:rgb(255, 255, 0);fill-opacity:0;fill-rule:evenodd;stroke:rgb(255, 0, 138);stroke-width:1;" d="M 466.727, 673.779 L 530.018, 587.161 L 600.723, 617.179 L 550.09, 686.257 L 537.432, 703.617 L 466.727, 673.779 z "/>
<path style="fill:rgb(255, 0, 0);fill-opacity:0;fill-rule:evenodd;stroke:rgb(255, 0, 138);stroke-width:1;" d="M 598.915, 729.295 L 626.04, 692.586 L 626.763, 691.501 L 634.901, 680.47 L 635.624, 679.385 L 662.568, 642.857 L 683.002, 651.537 L 684.268, 652.08 L 697.107, 657.505 L 698.373, 658.047 L 729.837, 671.248 L 701.266, 710.127 L 666.365, 757.685 L 634.901, 744.485 L 633.816, 743.942 L 620.976, 738.517 L 619.711, 737.975 L 598.915, 729.295 z "/>
<path style="fill:rgb(0, 255, 0);fill-opacity:0;fill-rule:evenodd;stroke:rgb(255, 0, 138);stroke-width:1;" d="M 685.895, 301.808 L 727.306, 245.75 L 822.785, 286.257 L 781.374, 342.315 L 685.895, 301.808 z "/>
<path style="fill:rgb(0, 0, 255);fill-opacity:0;fill-rule:evenodd;stroke:rgb(255, 0, 138);stroke-width:1;" d="M 611.754, 249.367 L 632.911, 220.253 L 647.016, 226.221 L 645.75, 228.029 L 656.6, 232.731 L 662.206, 225.136 L 659.132, 223.87 L 671.248, 207.595 L 711.754, 224.412 L 713.924, 221.157 L 734.177, 229.656 L 715.913, 254.792 L 694.575, 283.725 L 671.067, 315.913 L 650.814, 307.414 L 656.239, 300.181 L 615.913, 283.363 L 629.656, 264.738 L 632.369, 265.823 L 638.336, 257.505 L 627.486, 252.984 L 625.678, 255.154 L 611.754, 249.367 z "/>
<path style="fill:rgb(255, 255, 0);fill-opacity:0;fill-rule:evenodd;stroke:rgb(255, 0, 138);stroke-width:1;" d="M 406.329, 147.559 L 437.794, 104.521 L 634.177, 187.523 L 616.275, 212.116 L 595.479, 203.436 L 593.671, 205.967 L 537.071, 182.098 L 538.879, 179.385 L 517.722, 170.524 L 496.745, 161.664 L 494.937, 164.195 L 425.678, 135.081 L 414.286, 150.814 L 406.329, 147.559 z "/>
<path style="fill:rgb(255, 0, 0);fill-opacity:0;fill-rule:evenodd;stroke:rgb(255, 0, 138);stroke-width:1;" d="M 727.667, 618.264 L 775.407, 551.175 L 855.154, 583.725 L 827.486, 622.242 L 807.233, 650.814 L 727.667, 618.264 z "/>
<path style="fill:rgb(0, 255, 0);fill-opacity:0;fill-rule:evenodd;stroke:rgb(255, 0, 138);stroke-width:1;" d="M 284.448, 744.846 L 290.416, 736.709 L 294.575, 730.922 L 297.288, 727.306 L 306.148, 715.371 L 312.297, 706.872 L 316.094, 701.627 L 301.447, 695.479 L 306.148, 688.969 L 312.839, 679.747 L 319.168, 671.067 L 321.338, 668.174 L 350.452, 680.47 L 343.219, 690.416 L 337.975, 697.649 L 361.302, 707.414 L 399.819, 723.87 L 408.318, 727.486 L 395.841, 744.304 L 387.342, 755.877 L 379.204, 766.908 L 369.078, 780.832 L 284.448, 744.846 z "/>
<path style="fill:rgb(0, 0, 255);fill-opacity:0;fill-rule:evenodd;stroke:rgb(255, 0, 138);stroke-width:1;" d="M 870.344, 345.208 L 902.893, 300.181 L 920.434, 307.414 L 943.219, 316.817 L 1000.9, 340.325 L 1023.69, 349.729 L 1041.59, 357.143 L 1036.53, 383.725 L 1019.71, 376.673 L 1009.76, 372.514 L 1008.32, 371.971 L 1007.23, 371.609 L 997.83, 367.631 L 981.555, 390.597 L 939.241, 371.971 L 952.08, 353.526 L 924.774, 342.134 L 910.127, 361.302 L 902.893, 358.228 L 900, 356.962 L 896.022, 355.335 L 894.756, 354.792 L 893.309, 354.25 L 885.172, 350.995 L 870.344, 345.208 z "/>
<path style="fill:rgb(255, 255, 0);fill-opacity:0;fill-rule:evenodd;stroke:rgb(255, 0, 138);stroke-width:1;" d="M 681.193, 92.7667 L 687.523, 83.906 L 711.573, 50.9946 L 814.647, 94.3942 L 793.49, 123.327 L 786.076, 120.072 L 776.673, 133.092 L 726.763, 112.116 L 712.297, 105.967 L 683.725, 93.8517 L 681.193, 92.7667 z "/>
<path style="fill:rgb(255, 0, 0);fill-opacity:0;fill-rule:evenodd;stroke:rgb(255, 0, 138);stroke-width:1;" d="M 611.754, 249.367 L 632.911, 220.253 L 647.016, 226.221 L 645.75, 228.029 L 656.6, 232.731 L 662.206, 225.136 L 659.132, 223.87 L 671.248, 207.595 L 711.754, 224.412 L 699.819, 240.868 L 696.745, 239.602 L 691.32, 247.016 L 702.351, 251.718 L 703.617, 249.91 L 715.913, 254.792 L 694.575, 283.725 L 682.459, 278.843 L 684.087, 276.492 L 673.056, 271.971 L 667.089, 280.289 L 669.801, 281.374 L 656.239, 300.181 L 615.913, 283.363 L 629.656, 264.738 L 632.369, 265.823 L 638.336, 257.505 L 627.486, 252.984 L 625.678, 255.154 L 611.754, 249.367 z "/>
<path style="fill:rgb(0, 255, 0);fill-opacity:0;fill-rule:evenodd;stroke:rgb(255, 0, 138);stroke-width:1;" d="M 556.6, 564.014 L 572.875, 541.772 L 580.832, 545.027 L 596.926, 551.899 L 613.382, 529.295 L 643.942, 487.342 L 652.08, 490.778 L 683.363, 503.797 L 620.072, 590.597 L 564.376, 567.45 L 556.6, 564.014 z "/>
<path style="fill:rgb(0, 0, 255);fill-opacity:0;fill-rule:evenodd;stroke:rgb(255, 0, 138);stroke-width:1;" d="M 191.682, 360.036 L 227.125, 311.392 L 290.958, 338.336 L 280.832, 352.08 L 286.618, 354.43 L 286.257, 354.792 L 291.139, 356.781 L 301.447, 342.857 L 326.401, 353.345 L 317.179, 366.004 L 313.201, 371.429 L 307.233, 368.897 L 303.436, 373.96 L 304.34, 374.503 L 294.756, 387.703 L 255.154, 371.067 L 254.611, 369.62 L 264.919, 355.335 L 257.505, 352.26 L 254.25, 356.781 L 251.899, 355.696 L 234.901, 378.843 L 221.519, 373.237 L 220.434, 374.684 L 191.682, 360.036 z "/>
<path style="fill:rgb(255, 255, 0);fill-opacity:0;fill-rule:evenodd;stroke:rgb(255, 0, 138);stroke-width:1;" d="M 435.081, 307.233 L 444.304, 294.575 L 456.42, 278.119 L 462.025, 270.524 L 476.854, 276.854 L 544.123, 305.244 L 559.132, 311.754 L 541.591, 335.624 L 532.188, 348.282 L 435.081, 307.233 z "/>
<path style="fill:rgb(255, 0, 0);fill-opacity:0;fill-rule:evenodd;stroke:rgb(255, 0, 138);stroke-width:1;" d="M 872.333, 388.246 L 896.022, 355.335 L 900, 356.962 L 902.893, 358.228 L 910.127, 361.302 L 927.486, 368.535 L 918.083, 381.555 L 959.494, 398.734 L 971.609, 403.797 L 978.843, 393.852 L 1021.52, 411.573 L 1015.37, 420.072 L 1021.16, 422.423 L 1012.66, 433.996 L 1017.54, 435.986 L 1010.67, 445.75 L 957.324, 423.508 L 884.629, 393.49 L 872.333, 388.246 z "/>
<path style="fill:rgb(0, 255, 0);fill-opacity:0;fill-rule:evenodd;stroke:rgb(255, 0, 138);stroke-width:1;" d="M 831.646, 156.239 L 863.11, 112.839 L 943.761, 146.835 L 912.116, 190.054 L 855.335, 166.184 L 831.646, 156.239 z "/>
<path style="fill:rgb(0, 0, 255);fill-opacity:0;fill-rule:evenodd;stroke:rgb(255, 0, 138);stroke-width:1;" d="M 246.293, 284.268 L 267.812, 254.973 L 294.033, 266.184 L 290.054, 271.429 L 300.723, 275.949 L 299.277, 278.119 L 319.53, 286.799 L 329.837, 272.694 L 349.367, 281.013 L 338.517, 295.66 L 345.027, 298.373 L 343.4, 300.542 L 346.112, 301.808 L 358.59, 284.81 L 380.651, 294.213 L 365.823, 314.286 L 372.152, 316.998 L 369.439, 320.615 L 360.579, 332.731 L 332.188, 320.796 L 337.613, 313.382 L 336.528, 312.839 L 338.336, 310.307 L 330.38, 306.872 L 328.391, 309.584 L 327.306, 309.042 L 321.881, 316.275 L 246.293, 284.268 z "/>
<path style="fill:rgb(255, 255, 0);fill-opacity:0;fill-rule:evenodd;stroke:rgb(255, 0, 138);stroke-width:1;" d="M 865.823, 397.649 L 872.333, 388.246 L 884.629, 393.49 L 957.324, 423.508 L 1010.67, 445.75 L 1017.54, 435.986 L 1012.66, 433.996 L 1021.16, 422.423 L 1015.37, 420.072 L 1021.52, 411.573 L 978.843, 393.852 L 981.555, 390.597 L 997.83, 367.631 L 1007.23, 371.609 L 1008.32, 371.971 L 1009.76, 372.514 L 1019.71, 376.673 L 1036.53, 383.725 L 1025.68, 452.984 L 1012.84, 459.855 L 865.823, 397.649 z "/>
<path style="fill:rgb(255, 0, 0);fill-opacity:0;fill-rule:evenodd;stroke:rgb(255, 0, 138);stroke-width:1;" d="M 696.926, 152.984 L 714.467, 128.933 L 726.763, 112.116 L 776.673, 133.092 L 784.087, 136.166 L 799.096, 142.495 L 769.259, 183.363 L 696.926, 152.984 z "/>
<path style="fill:rgb(0, 255, 0);fill-opacity:0;fill-rule:evenodd;stroke:rgb(255, 0, 138);stroke-width:1;" d="M 560.94, 98.0108 L 566.727, 90.2351 L 585.714, 64.0145 L 592.224, 66.9078 L 594.213, 66.3653 L 598.373, 68.1736 L 599.819, 70.1627 L 608.318, 73.5986 L 608.861, 75.7685 L 605.606, 80.2893 L 611.392, 82.6401 L 611.392, 84.4485 L 622.785, 89.1501 L 620.434, 86.0759 L 622.604, 86.0759 L 624.774, 86.4376 L 632.55, 75.7685 L 631.284, 74.3219 L 632.731, 72.5136 L 642.315, 76.4919 L 641.049, 78.481 L 639.241, 78.481 L 631.284, 89.1501 L 633.092, 90.0542 L 633.635, 91.6817 L 632.369, 93.1284 L 640.325, 96.5642 L 642.857, 95.66 L 647.74, 97.6492 L 650.814, 93.3092 L 653.707, 93.1284 L 662.025, 96.745 L 665.099, 96.0217 L 669.439, 97.83 L 669.801, 99.8192 L 677.215, 102.893 L 671.248, 111.031 L 652.803, 136.347 L 645.208, 133.092 L 642.315, 133.273 L 637.613, 131.465 L 636.528, 129.476 L 626.763, 125.316 L 624.412, 125.859 L 619.53, 123.689 L 618.626, 122.061 L 594.394, 111.754 L 591.863, 112.116 L 587.161, 110.127 L 585.714, 108.137 L 576.13, 104.159 L 573.418, 104.34 L 568.897, 102.351 L 567.631, 100.542 L 560.94, 98.0108 z "/>
<path style="fill:rgb(0, 0, 255);fill-opacity:0;fill-rule:evenodd;stroke:rgb(255, 0, 138);stroke-width:1;" d="M 323.87, 460.398 L 334.539, 445.931 L 342.676, 434.72 L 456.781, 482.821 L 449.367, 493.128 L 437.975, 508.499 L 323.87, 460.398 z "/>
<path style="fill:rgb(255, 255, 0);fill-opacity:0;fill-rule:evenodd;stroke:rgb(255, 0, 138);stroke-width:1;" d="M 726.582, 726.401 L 729.656, 722.242 L 758.228, 683.363 L 829.295, 713.382 L 802.712, 749.729 L 774.864, 737.975 L 769.982, 744.665 L 742.315, 733.092 L 726.582, 726.401 z "/>
<path style="fill:rgb(255, 0, 0);fill-opacity:0;fill-rule:evenodd;stroke:rgb(255, 0, 138);stroke-width:1;" d="M 411.573, 732.731 L 422.785, 717.541 L 425.678, 718.807 L 430.199, 712.477 L 421.881, 708.861 L 432.731, 694.033 L 460.759, 705.787 L 457.505, 710.307 L 464.376, 713.201 L 465.823, 711.212 L 478.843, 716.817 L 477.939, 718.083 L 484.448, 720.796 L 487.342, 717.179 L 517.722, 730.018 L 490.235, 767.45 L 486.076, 773.237 L 450.452, 758.047 L 454.611, 752.441 L 468.716, 733.092 L 460.579, 729.476 L 462.387, 727.125 L 459.132, 725.678 L 455.515, 730.38 L 453.165, 729.476 L 441.41, 745.389 L 411.573, 732.731 z "/>
<path style="fill:rgb(0, 255, 0);fill-opacity:0;fill-rule:evenodd;stroke:rgb(255, 0, 138);stroke-width:1;" d="M 488.427, 678.119 L 503.436, 657.505 L 502.712, 657.143 L 527.848, 622.604 L 528.391, 622.966 L 544.123, 601.266 L 580.108, 616.275 L 564.376, 637.975 L 565.28, 638.156 L 540.145, 672.694 L 539.421, 672.333 L 524.412, 692.948 L 488.427, 678.119 z "/>
<path style="fill:rgb(0, 0, 255);fill-opacity:0;fill-rule:evenodd;stroke:rgb(255, 0, 138);stroke-width:1;" d="M 179.204, 109.403 L 201.627, 78.6618 L 240.687, 94.7559 L 236.347, 99.8192 L 266.727, 113.02 L 275.407, 101.266 L 297.288, 110.488 L 271.067, 147.92 L 179.204, 109.403 z "/>
<path style="fill:rgb(255, 255, 0);fill-opacity:0;fill-rule:evenodd;stroke:rgb(255, 0, 138);stroke-width:1;" d="M 567.269, 563.653 L 580.832, 545.027 L 596.926, 551.899 L 613.382, 529.295 L 621.519, 532.731 L 649.548, 494.213 L 675.949, 505.244 L 617.902, 584.81 L 567.269, 563.653 z "/>
<path style="fill:rgb(255, 0, 0);fill-opacity:0;fill-rule:evenodd;stroke:rgb(255, 0, 138);stroke-width:1;" d="M 943.4, 246.474 L 956.239, 229.114 L 974.684, 236.709 L 983.363, 240.145 L 1017.36, 253.707 L 1025.5, 254.792 L 1029.11, 249.548 L 1048.28, 257.866 L 1057.32, 261.483 L 1052.44, 292.586 L 1046.11, 289.873 L 1041.05, 296.383 L 946.293, 256.239 L 951.537, 250.09 L 943.4, 246.474 z "/>
<path style="fill:rgb(0, 255, 0);fill-opacity:0;fill-rule:evenodd;stroke:rgb(255, 0, 138);stroke-width:1;" d="M 103.617, 224.774 L 124.412, 196.022 L 153.707, 208.137 L 160.398, 198.915 L 184.629, 209.042 L 185.353, 208.137 L 186.98, 209.222 L 214.105, 224.051 L 211.031, 228.21 L 212.477, 228.752 L 193.128, 255.335 L 144.485, 234.72 L 142.857, 236.89 L 137.251, 234.539 L 134.901, 237.975 L 103.617, 224.774 z "/>
<path style="fill:rgb(0, 0, 255);fill-opacity:0;fill-rule:evenodd;stroke:rgb(255, 0, 138);stroke-width:1;" d="M 411.573, 732.731 L 422.785, 717.541 L 425.678, 718.807 L 430.199, 712.477 L 421.881, 708.861 L 432.731, 694.033 L 460.759, 705.787 L 457.505, 710.307 L 464.376, 713.201 L 465.823, 711.212 L 478.843, 716.817 L 477.939, 718.083 L 484.448, 720.796 L 487.342, 717.179 L 517.722, 730.018 L 490.235, 767.45 L 454.611, 752.441 L 468.716, 733.092 L 460.579, 729.476 L 462.387, 727.125 L 459.132, 725.678 L 455.515, 730.38 L 453.165, 729.476 L 441.41, 745.389 L 411.573, 732.731 z "/>
<path style="fill:rgb(255, 255, 0);fill-opacity:0;fill-rule:evenodd;stroke:rgb(255, 0, 138);stroke-width:1;" d="M 673.96, 760.94 L 705.787, 717.541 L 718.264, 722.785 L 714.286, 728.21 L 738.336, 738.336 L 742.315, 733.092 L 769.982, 744.665 L 738.156, 788.246 L 716.094, 778.843 L 717.541, 777.034 L 706.872, 772.514 L 705.425, 774.322 L 673.96, 760.94 z "/>
<path style="fill:rgb(255, 0, 0);fill-opacity:0;fill-rule:evenodd;stroke:rgb(255, 0, 138);stroke-width:1;" d="M 892.043, 648.463 L 918.807, 611.573 L 920.434, 608.861 L 976.854, 632.007 L 961.302, 677.758 L 957.324, 676.13 L 951.899, 673.779 L 948.282, 672.152 L 946.655, 671.609 L 924.231, 662.206 L 908.318, 655.335 L 892.043, 648.463 z "/>
<path style="fill:rgb(0, 255, 0);fill-opacity:0;fill-rule:evenodd;stroke:rgb(255, 0, 138);stroke-width:1;" d="M 250.271, 76.6727 L 254.611, 70.7052 L 254.43, 68.5353 L 277.396, 37.613 L 278.481, 36.1664 L 296.022, 43.5805 L 307.052, 48.2821 L 321.338, 54.4304 L 335.986, 60.7595 L 306.51, 100.542 L 299.096, 110.669 L 265.099, 96.2025 L 268.716, 91.3201 L 265.461, 90.0542 L 266.184, 88.9693 L 269.439, 90.4159 L 272.694, 86.0759 L 280.651, 89.5118 L 298.553, 65.0995 L 295.479, 63.8336 L 286.076, 76.6727 L 275.045, 71.9711 L 266.546, 83.5443 L 250.271, 76.6727 z "/>
<path style="fill:rgb(0, 0, 255);fill-opacity:0;fill-rule:evenodd;stroke:rgb(255, 0, 138);stroke-width:1;" d="M 824.774, 208.137 L 830.922, 199.458 L 841.41, 185.172 L 855.335, 166.184 L 912.116, 190.054 L 881.555, 232.007 L 824.774, 208.137 z "/>
<path style="fill:rgb(255, 255, 0);fill-opacity:0;fill-rule:evenodd;stroke:rgb(255, 0, 138);stroke-width:1;" d="M 623.87, 732.007 L 632.007, 721.157 L 625.497, 718.264 L 631.826, 709.765 L 626.582, 707.414 L 630.199, 702.532 L 628.752, 701.808 L 629.476, 700.904 L 633.273, 695.66 L 632.188, 695.118 L 641.049, 683.002 L 641.772, 682.098 L 643.038, 682.459 L 647.197, 677.034 L 647.92, 676.13 L 649.005, 676.673 L 653.345, 670.886 L 658.59, 673.056 L 664.376, 665.28 L 670.886, 667.993 L 679.385, 656.42 L 680.651, 656.962 L 693.671, 662.387 L 694.756, 662.929 L 686.257, 674.503 L 693.49, 677.577 L 686.98, 686.438 L 693.309, 688.969 L 689.873, 693.671 L 685.172, 700 L 675.407, 713.201 L 670.705, 719.349 L 667.45, 724.051 L 662.929, 722.061 L 656.058, 731.103 L 647.378, 727.486 L 639.241, 738.517 L 637.975, 737.975 L 625.136, 732.55 L 623.87, 732.007 z "/>
<path style="fill:rgb(255, 0, 0);fill-opacity:0;fill-rule:evenodd;stroke:rgb(255, 0, 138);stroke-width:1;" d="M 878.3, 696.745 L 882.278, 691.32 L 888.969, 681.917 L 908.318, 655.335 L 924.231, 662.206 L 946.655, 671.609 L 948.282, 672.152 L 951.899, 673.779 L 957.324, 676.13 L 942.315, 722.423 L 878.3, 696.745 z "/>
<path style="fill:rgb(0, 255, 0);fill-opacity:0;fill-rule:evenodd;stroke:rgb(255, 0, 138);stroke-width:1;" d="M 527.125, 485.895 L 539.783, 468.354 L 534.358, 466.004 L 547.559, 447.92 L 548.282, 446.835 L 568.716, 455.515 L 564.014, 462.025 L 571.609, 465.28 L 573.599, 462.568 L 595.118, 471.609 L 593.128, 474.141 L 600.904, 477.396 L 605.606, 471.067 L 626.401, 479.747 L 623.146, 484.268 L 612.297, 498.915 L 606.329, 496.383 L 593.49, 513.924 L 572.152, 504.882 L 581.374, 492.586 L 576.13, 490.416 L 573.599, 493.671 L 560.398, 488.246 L 562.929, 484.81 L 557.685, 482.64 L 548.644, 494.937 L 527.125, 485.895 z "/>
<path style="fill:rgb(0, 0, 255);fill-opacity:0;fill-rule:evenodd;stroke:rgb(255, 0, 138);stroke-width:1;" d="M 1002.35, 752.622 L 1024.95, 689.693 L 1041.95, 696.745 L 1058.41, 703.617 L 1068.17, 707.776 L 1061.48, 717.179 L 1067.45, 719.53 L 1065.82, 721.7 L 1056.24, 734.901 L 1050.99, 732.731 L 1043.22, 743.4 L 1048.64, 745.57 L 1041.77, 755.154 L 1035.26, 764.195 L 1034, 765.823 L 1002.35, 752.622 z "/>
<path style="fill:rgb(255, 255, 0);fill-opacity:0;fill-rule:evenodd;stroke:rgb(255, 0, 138);stroke-width:1;" d="M 297.83, 403.255 L 323.146, 368.535 L 317.179, 366.004 L 326.401, 353.345 L 350.452, 363.472 L 336.528, 382.64 L 345.931, 386.618 L 359.855, 367.45 L 383.906, 377.577 L 374.503, 390.235 L 369.62, 388.246 L 344.304, 422.966 L 325.497, 415.009 L 337.432, 398.734 L 327.848, 394.575 L 315.913, 411.031 L 297.83, 403.255 z "/>
<path style="fill:rgb(255, 0, 0);fill-opacity:0;fill-rule:evenodd;stroke:rgb(255, 0, 138);stroke-width:1;" d="M 974.684, 236.709 L 1003.62, 195.298 L 1042.68, 211.031 L 1053.16, 215.19 L 1045.57, 226.04 L 1029.11, 249.548 L 1025.5, 254.792 L 1024.23, 256.6 L 1017.36, 253.707 L 983.363, 240.145 L 974.684, 236.709 z "/>
<path style="fill:rgb(0, 255, 0);fill-opacity:0;fill-rule:evenodd;stroke:rgb(255, 0, 138);stroke-width:1;" d="M 174.684, 696.745 L 202.893, 658.409 L 205.606, 654.611 L 225.678, 663.11 L 249.729, 673.237 L 253.165, 674.864 L 244.665, 686.438 L 246.293, 687.161 L 240.868, 694.575 L 235.443, 692.043 L 231.826, 696.926 L 237.251, 699.277 L 235.081, 701.447 L 231.826, 704.882 L 228.391, 708.318 L 220.976, 716.275 L 174.684, 696.745 z "/>
<path style="fill:rgb(0, 0, 255);fill-opacity:0;fill-rule:evenodd;stroke:rgb(255, 0, 138);stroke-width:1;" d="M 892.043, 648.463 L 918.807, 611.573 L 926.04, 614.647 L 927.848, 612.297 L 933.996, 614.828 L 932.188, 617.179 L 966.365, 631.646 L 964.376, 637.613 L 968.174, 638.336 L 966.365, 643.761 L 962.387, 643.038 L 958.409, 655.335 L 954.069, 661.302 L 957.324, 662.568 L 953.707, 667.45 L 950.814, 666.184 L 946.655, 671.609 L 924.231, 662.206 L 908.318, 655.335 L 892.043, 648.463 z "/>
<path style="fill:rgb(255, 255, 0);fill-opacity:0;fill-rule:evenodd;stroke:rgb(255, 0, 138);stroke-width:1;" d="M 362.387, 418.807 L 390.416, 380.289 L 441.772, 401.989 L 439.783, 404.702 L 426.763, 422.604 L 413.743, 440.506 L 362.387, 418.807 z "/>
<path style="fill:rgb(255, 0, 0);fill-opacity:0;fill-rule:evenodd;stroke:rgb(255, 0, 138);stroke-width:1;" d="M 882.459, 381.193 L 900, 356.962 L 902.893, 358.228 L 910.127, 361.302 L 927.486, 368.535 L 918.083, 381.555 L 959.494, 398.734 L 971.609, 403.797 L 967.089, 409.946 L 957.324, 423.508 L 884.629, 393.49 L 888.246, 388.427 L 883.002, 386.257 L 885.714, 382.459 L 882.459, 381.193 z "/>
<path style="fill:rgb(0, 255, 0);fill-opacity:0;fill-rule:evenodd;stroke:rgb(255, 0, 138);stroke-width:1;" d="M 847.92, 773.779 L 866.184, 748.825 L 861.302, 746.835 L 872.514, 731.646 L 873.418, 730.561 L 930.018, 754.43 L 929.114, 755.696 L 931.646, 756.781 L 910.85, 790.597 L 890.958, 782.098 L 892.948, 779.385 L 890.235, 778.119 L 900.904, 763.653 L 886.438, 757.505 L 868.174, 782.459 L 847.92, 773.779 z "/>
<path style="fill:rgb(0, 0, 255);fill-opacity:0;fill-rule:evenodd;stroke:rgb(255, 0, 138);stroke-width:1;" d="M 680.47, 410.85 L 703.978, 378.662 L 720.976, 385.895 L 729.476, 389.512 L 757.866, 401.627 L 734.358, 433.635 L 680.47, 410.85 z "/>
<path style="fill:rgb(255, 255, 0);fill-opacity:0;fill-rule:evenodd;stroke:rgb(255, 0, 138);stroke-width:1;" d="M 902.893, 358.228 L 924.955, 328.933 L 998.553, 359.132 L 997.83, 367.631 L 981.555, 390.597 L 939.241, 371.971 L 952.08, 353.526 L 924.774, 342.134 L 910.127, 361.302 L 902.893, 358.228 z "/>
<path style="fill:rgb(255, 0, 0);fill-opacity:0;fill-rule:evenodd;stroke:rgb(255, 0, 138);stroke-width:1;" d="M 834.72, 671.79 L 841.23, 662.387 L 860.759, 635.624 L 863.11, 636.528 L 876.492, 642.134 L 892.043, 648.463 L 908.318, 655.335 L 888.969, 681.917 L 882.278, 691.32 L 866.184, 684.629 L 850.633, 678.3 L 834.72, 671.79 z "/>
<path style="fill:rgb(0, 255, 0);fill-opacity:0;fill-rule:evenodd;stroke:rgb(255, 0, 138);stroke-width:1;" d="M 541.591, 335.624 L 559.132, 311.754 L 562.206, 307.595 L 621.519, 332.731 L 600.904, 360.94 L 541.591, 335.624 z "/>
<path style="fill:rgb(0, 0, 255);fill-opacity:0;fill-rule:evenodd;stroke:rgb(255, 0, 138);stroke-width:1;" d="M 360.579, 332.731 L 369.439, 320.615 L 373.96, 322.604 L 391.682, 298.192 L 411.212, 306.51 L 404.521, 315.552 L 413.02, 319.349 L 419.892, 310.127 L 439.241, 318.445 L 421.519, 342.676 L 426.401, 344.846 L 425.316, 346.112 L 417.36, 356.781 L 393.128, 346.474 L 405.787, 329.295 L 397.107, 325.678 L 384.448, 342.857 L 360.579, 332.731 z "/>
<path style="fill:rgb(255, 255, 0);fill-opacity:0;fill-rule:evenodd;stroke:rgb(255, 0, 138);stroke-width:1;" d="M 459.313, 300.904 L 476.854, 276.854 L 544.123, 305.244 L 526.582, 329.295 L 459.313, 300.904 z "/>
<path style="fill:rgb(255, 0, 0);fill-opacity:0;fill-rule:evenodd;stroke:rgb(255, 0, 138);stroke-width:1;" d="M 781.193, 191.863 L 788.788, 181.193 L 794.575, 183.725 L 798.915, 183.002 L 806.329, 172.875 L 804.882, 169.62 L 799.096, 167.269 L 800.542, 165.28 L 812.839, 148.282 L 831.646, 156.239 L 855.335, 166.184 L 841.41, 185.172 L 837.071, 183.183 L 837.975, 182.098 L 833.273, 180.108 L 821.157, 196.745 L 825.859, 198.553 L 826.582, 197.649 L 830.922, 199.458 L 824.774, 208.137 L 823.508, 209.584 L 781.193, 191.863 z "/>
<path style="fill:rgb(0, 255, 0);fill-opacity:0;fill-rule:evenodd;stroke:rgb(255, 0, 138);stroke-width:1;" d="M 400.362, 611.212 L 444.846, 550.271 L 471.971, 561.844 L 472.694, 562.025 L 431.465, 618.445 L 421.338, 614.286 L 426.221, 607.595 L 419.892, 604.882 L 411.754, 616.094 L 400.362, 611.212 z "/>
<path style="fill:rgb(0, 0, 255);fill-opacity:0;fill-rule:evenodd;stroke:rgb(255, 0, 138);stroke-width:1;" d="M 417.36, 356.781 L 425.316, 346.112 L 429.656, 347.92 L 448.463, 322.242 L 466.908, 330.018 L 461.121, 337.975 L 464.738, 341.23 L 469.801, 341.772 L 475.769, 333.816 L 493.671, 341.41 L 476.492, 364.738 L 476.13, 367.812 L 479.747, 369.259 L 473.599, 377.577 L 471.79, 379.928 L 449.005, 370.163 L 457.685, 358.228 L 449.005, 354.43 L 440.145, 366.546 L 417.36, 356.781 z "/>
<path style="fill:rgb(255, 255, 0);fill-opacity:0;fill-rule:evenodd;stroke:rgb(255, 0, 138);stroke-width:1;" d="M 423.146, 437.794 L 432.369, 425.136 L 426.763, 422.604 L 439.783, 404.702 L 455.696, 411.392 L 454.973, 412.477 L 478.662, 422.604 L 479.566, 421.519 L 495.479, 428.21 L 482.459, 446.112 L 476.854, 443.761 L 467.45, 456.6 L 423.146, 437.794 z "/>
<path style="fill:rgb(255, 0, 0);fill-opacity:0;fill-rule:evenodd;stroke:rgb(255, 0, 138);stroke-width:1;" d="M 986.257, 187.884 L 996.926, 173.418 L 1003.8, 176.492 L 1009.04, 169.982 L 1057.32, 190.416 L 1053.71, 195.479 L 1066.91, 201.085 L 1061.84, 232.731 L 1045.57, 226.04 L 1053.16, 215.19 L 1042.68, 211.031 L 1003.62, 195.298 L 986.257, 187.884 z "/>
<path style="fill:rgb(0, 255, 0);fill-opacity:0;fill-rule:evenodd;stroke:rgb(255, 0, 138);stroke-width:1;" d="M 1024.95, 689.693 L 1035.62, 660.217 L 1035.99, 658.409 L 1035.8, 657.143 L 1035.99, 656.6 L 1036.53, 655.515 L 1037.07, 654.973 L 1037.61, 654.611 L 1039.06, 654.069 L 1040.69, 654.069 L 1042.13, 654.43 L 1097.65, 677.758 L 1090.05, 688.065 L 1088.07, 690.958 L 1082.82, 688.788 L 1068.9, 707.957 L 1068.17, 707.776 L 1058.41, 703.617 L 1060.94, 700 L 1053.35, 696.745 L 1062.21, 684.629 L 1050.63, 679.747 L 1040.51, 693.671 L 1043.22, 694.756 L 1041.95, 696.745 L 1024.95, 689.693 z "/>
<path style="fill:rgb(0, 0, 255);fill-opacity:0;fill-rule:evenodd;stroke:rgb(255, 0, 138);stroke-width:1;" d="M 962.568, 253.165 L 974.684, 236.709 L 983.363, 240.145 L 1017.36, 253.707 L 1024.23, 256.6 L 1025.5, 254.792 L 1029.11, 249.548 L 1048.28, 257.866 L 1045.93, 278.662 L 1042.13, 276.311 L 1035.99, 284.268 L 962.568, 253.165 z "/>
<path style="fill:rgb(255, 255, 0);fill-opacity:0;fill-rule:evenodd;stroke:rgb(255, 0, 138);stroke-width:1;" d="M 126.582, 603.074 L 127.667, 601.627 L 131.465, 596.203 L 137.432, 588.246 L 141.953, 582.098 L 144.846, 578.119 L 152.803, 581.555 L 154.25, 579.385 L 170.163, 586.076 L 168.716, 588.246 L 198.011, 600.723 L 199.638, 598.373 L 201.447, 599.277 L 181.555, 626.401 L 126.582, 603.074 z "/>
<path style="fill:rgb(255, 0, 0);fill-opacity:0;fill-rule:evenodd;stroke:rgb(255, 0, 138);stroke-width:1;" d="M 870.344, 345.208 L 902.893, 300.181 L 920.434, 307.414 L 943.219, 316.817 L 1000.9, 340.325 L 1023.69, 349.729 L 1041.59, 357.143 L 1036.53, 383.725 L 1019.71, 376.673 L 1023.15, 354.25 L 1021.16, 353.345 L 998.373, 343.942 L 940.687, 320.253 L 917.902, 311.031 L 914.828, 309.584 L 885.172, 350.995 L 870.344, 345.208 z "/>
<path style="fill:rgb(0, 255, 0);fill-opacity:0;fill-rule:evenodd;stroke:rgb(255, 0, 138);stroke-width:1;" d="M 890.416, 684.81 L 906.691, 662.025 L 920.434, 667.812 L 924.231, 662.206 L 946.655, 671.609 L 948.282, 672.152 L 951.899, 673.779 L 937.432, 710.127 L 923.689, 704.882 L 899.819, 695.479 L 890.416, 684.81 z "/>
<path style="fill:rgb(0, 0, 255);fill-opacity:0;fill-rule:evenodd;stroke:rgb(255, 0, 138);stroke-width:1;" d="M 738.156, 788.246 L 769.982, 744.665 L 774.864, 737.975 L 802.712, 749.729 L 799.277, 754.25 L 797.288, 757.324 L 765.823, 800 L 738.156, 788.246 z "/>
<path style="fill:rgb(255, 255, 0);fill-opacity:0;fill-rule:evenodd;stroke:rgb(255, 0, 138);stroke-width:1;" d="M 139.06, 684.087 L 168.716, 643.761 L 202.893, 658.409 L 174.684, 696.745 L 173.418, 698.734 L 139.06, 684.087 z "/>
<path style="fill:rgb(255, 0, 0);fill-opacity:0;fill-rule:evenodd;stroke:rgb(255, 0, 138);stroke-width:1;" d="M 91.3201, 293.309 L 105.063, 274.322 L 153.526, 294.756 L 129.656, 327.306 L 113.924, 320.615 L 107.233, 317.722 L 97.2875, 313.562 L 103.074, 305.967 L 107.052, 300.362 L 91.3201, 293.309 z "/>
<path style="fill:rgb(0, 255, 0);fill-opacity:0;fill-rule:evenodd;stroke:rgb(255, 0, 138);stroke-width:1;" d="M 626.04, 371.609 L 646.474, 343.761 L 695.298, 364.376 L 674.864, 392.224 L 626.04, 371.609 z "/>
<path style="fill:rgb(0, 0, 255);fill-opacity:0;fill-rule:evenodd;stroke:rgb(255, 0, 138);stroke-width:1;" d="M 904.159, 561.302 L 911.754, 550.995 L 918.987, 541.23 L 981.555, 567.812 L 984.81, 569.259 L 969.982, 589.331 L 904.159, 561.302 z "/>
<path style="fill:rgb(255, 255, 0);fill-opacity:0;fill-rule:evenodd;stroke:rgb(255, 0, 138);stroke-width:1;" d="M 798.734, 662.568 L 807.233, 650.814 L 827.486, 622.242 L 851.356, 631.826 L 860.759, 635.624 L 841.23, 662.387 L 834.72, 671.79 L 831.826, 675.949 L 798.734, 662.568 z "/>
<path style="fill:rgb(255, 0, 0);fill-opacity:0;fill-rule:evenodd;stroke:rgb(255, 0, 138);stroke-width:1;" d="M 361.302, 707.414 L 366.546, 700.181 L 384.629, 675.588 L 385.895, 673.96 L 424.412, 690.416 L 405.063, 716.637 L 399.819, 723.87 L 361.302, 707.414 z "/>
<path style="fill:rgb(0, 255, 0);fill-opacity:0;fill-rule:evenodd;stroke:rgb(255, 0, 138);stroke-width:1;" d="M 839.783, 535.262 L 858.228, 510.127 L 867.269, 497.83 L 901.266, 512.297 L 873.779, 549.729 L 839.783, 535.262 z "/>
<path style="fill:rgb(0, 0, 255);fill-opacity:0;fill-rule:evenodd;stroke:rgb(255, 0, 138);stroke-width:1;" d="M 841.23, 662.387 L 860.759, 635.624 L 863.11, 636.528 L 876.492, 642.134 L 892.043, 648.463 L 908.318, 655.335 L 888.969, 681.917 L 872.694, 675.407 L 857.143, 668.897 L 841.23, 662.387 z "/>
<path style="fill:rgb(255, 255, 0);fill-opacity:0;fill-rule:evenodd;stroke:rgb(255, 0, 138);stroke-width:1;" d="M 183.002, 176.13 L 192.043, 163.834 L 188.608, 162.387 L 197.649, 150.09 L 254.069, 173.779 L 236.166, 198.553 L 221.338, 192.224 L 222.242, 191.139 L 198.011, 180.832 L 197.107, 182.098 L 183.002, 176.13 z M 205.425, 170.705 L 229.656, 180.832 L 231.646, 178.119 L 213.382, 170.344 L 207.595, 167.812 L 205.425, 170.705 z "/>
<path style="fill:rgb(255, 0, 0);fill-opacity:0;fill-rule:evenodd;stroke:rgb(255, 0, 138);stroke-width:1;" d="M 1015.19, 143.942 L 1028.93, 125.497 L 1037.61, 127.667 L 1044.48, 128.752 L 1055.52, 129.476 L 1068.17, 130.018 L 1078.84, 129.837 L 1073.06, 168.897 L 1015.19, 143.942 z "/>
<path style="fill:rgb(0, 255, 0);fill-opacity:0;fill-rule:evenodd;stroke:rgb(255, 0, 138);stroke-width:1;" d="M 935.624, 491.682 L 950.271, 471.971 L 1012.84, 498.553 L 998.373, 518.264 L 996.564, 517.541 L 994.756, 516.817 L 935.624, 491.682 z "/>
<path style="fill:rgb(0, 0, 255);fill-opacity:0;fill-rule:evenodd;stroke:rgb(255, 0, 138);stroke-width:1;" d="M 75.5877, 213.02 L 108.68, 167.631 L 135.081, 181.555 L 124.412, 196.022 L 103.617, 224.774 L 75.5877, 213.02 z "/>
<path style="fill:rgb(255, 255, 0);fill-opacity:0;fill-rule:evenodd;stroke:rgb(255, 0, 138);stroke-width:1;" d="M 435.081, 307.233 L 444.304, 294.575 L 459.313, 300.904 L 526.582, 329.295 L 541.591, 335.624 L 532.188, 348.282 L 435.081, 307.233 z "/>
<path style="fill:rgb(255, 0, 0);fill-opacity:0;fill-rule:evenodd;stroke:rgb(255, 0, 138);stroke-width:1;" d="M 701.266, 710.127 L 729.837, 671.248 L 758.228, 683.363 L 729.656, 722.242 L 721.157, 718.626 L 718.264, 722.785 L 705.787, 717.541 L 708.861, 713.382 L 701.266, 710.127 z "/>
<path style="fill:rgb(0, 255, 0);fill-opacity:0;fill-rule:evenodd;stroke:rgb(255, 0, 138);stroke-width:1;" d="M 799.277, 754.25 L 802.712, 749.729 L 829.295, 713.382 L 858.047, 725.497 L 840.325, 749.729 L 839.241, 749.186 L 826.944, 766.004 L 799.277, 754.25 z "/>
<path style="fill:rgb(0, 0, 255);fill-opacity:0;fill-rule:evenodd;stroke:rgb(255, 0, 138);stroke-width:1;" d="M 890.416, 684.81 L 906.691, 662.025 L 920.434, 667.812 L 924.231, 662.206 L 946.655, 671.609 L 948.282, 672.152 L 923.689, 704.882 L 899.819, 695.479 L 890.416, 684.81 z "/>
<path style="fill:rgb(255, 255, 0);fill-opacity:0;fill-rule:evenodd;stroke:rgb(255, 0, 138);stroke-width:1;" d="M 791.139, 457.866 L 807.052, 436.347 L 837.251, 449.186 L 845.57, 452.803 L 858.047, 458.047 L 861.121, 459.313 L 853.165, 470.344 L 848.463, 468.174 L 840.506, 478.843 L 791.139, 457.866 z "/>
<path style="fill:rgb(255, 0, 0);fill-opacity:0;fill-rule:evenodd;stroke:rgb(255, 0, 138);stroke-width:1;" d="M 435.081, 512.477 L 437.975, 508.499 L 449.367, 493.128 L 451.718, 493.309 L 464.557, 475.769 L 492.767, 487.703 L 480.108, 505.244 L 481.193, 506.691 L 476.673, 512.839 L 478.119, 513.562 L 468.535, 526.763 L 435.081, 512.477 z M 462.387, 495.298 L 464.195, 496.022 L 463.291, 497.288 L 471.248, 500.542 L 474.503, 496.203 L 464.919, 492.043 L 462.387, 495.298 z "/>
<path style="fill:rgb(0, 255, 0);fill-opacity:0;fill-rule:evenodd;stroke:rgb(255, 0, 138);stroke-width:1;" d="M 807.776, 146.112 L 838.156, 104.34 L 839.241, 102.893 L 863.11, 112.839 L 831.646, 156.239 L 812.839, 148.282 L 807.776, 146.112 z "/>
<path style="fill:rgb(0, 0, 255);fill-opacity:0;fill-rule:evenodd;stroke:rgb(255, 0, 138);stroke-width:1;" d="M 560.217, 417.36 L 569.62, 404.702 L 582.64, 386.618 L 614.828, 400.362 L 593.309, 429.837 L 592.405, 430.922 L 560.217, 417.36 z "/>
<path style="fill:rgb(255, 255, 0);fill-opacity:0;fill-rule:evenodd;stroke:rgb(255, 0, 138);stroke-width:1;" d="M 784.087, 136.166 L 793.49, 123.327 L 814.647, 94.3942 L 838.156, 104.34 L 807.776, 146.112 L 799.096, 142.495 L 784.087, 136.166 z "/>
<path style="fill:rgb(255, 0, 0);fill-opacity:0;fill-rule:evenodd;stroke:rgb(255, 0, 138);stroke-width:1;" d="M 411.573, 292.043 L 415.552, 286.618 L 416.094, 286.799 L 417.541, 284.991 L 417.541, 283.725 L 420.796, 279.385 L 422.966, 278.119 L 423.146, 278.119 L 431.103, 267.269 L 427.306, 265.823 L 436.709, 252.984 L 437.613, 251.718 L 440.325, 252.984 L 440.687, 252.441 L 464.376, 262.568 L 464.014, 262.929 L 465.823, 265.461 L 462.025, 270.524 L 456.42, 278.119 L 452.984, 276.673 L 444.846, 287.523 L 445.389, 289.693 L 442.495, 293.852 L 439.964, 294.394 L 438.517, 296.203 L 439.964, 296.926 L 435.986, 302.351 L 411.573, 292.043 z M 436.347, 274.141 L 442.676, 276.854 L 445.75, 272.694 L 439.421, 269.982 L 436.347, 274.141 z "/>
<path style="fill:rgb(0, 255, 0);fill-opacity:0;fill-rule:evenodd;stroke:rgb(255, 0, 138);stroke-width:1;" d="M 832.731, 200.723 L 837.975, 193.671 L 846.655, 181.736 L 852.08, 174.503 L 885.353, 188.427 L 881.555, 193.852 L 886.98, 196.203 L 876.311, 211.392 L 870.705, 209.042 L 866.727, 214.647 L 832.731, 200.723 z "/>
<path style="fill:rgb(0, 0, 255);fill-opacity:0;fill-rule:evenodd;stroke:rgb(255, 0, 138);stroke-width:1;" d="M 875.226, 487.161 L 902.532, 449.91 L 927.848, 460.759 L 904.702, 492.224 L 900.542, 497.83 L 875.226, 487.161 z "/>
<path style="fill:rgb(255, 255, 0);fill-opacity:0;fill-rule:evenodd;stroke:rgb(255, 0, 138);stroke-width:1;" d="M 528.571, 403.978 L 530.38, 401.627 L 537.975, 391.32 L 541.953, 392.948 L 554.611, 375.588 L 559.313, 369.259 L 581.917, 378.843 L 564.557, 402.532 L 569.62, 404.702 L 560.217, 417.36 L 528.571, 403.978 z "/>
<path style="fill:rgb(255, 0, 0);fill-opacity:0;fill-rule:evenodd;stroke:rgb(255, 0, 138);stroke-width:1;" d="M 464.014, 586.98 L 479.385, 566.184 L 522.242, 584.448 L 506.872, 605.244 L 489.15, 597.649 L 484.268, 595.479 L 464.014, 586.98 z "/>
<path style="fill:rgb(0, 255, 0);fill-opacity:0;fill-rule:evenodd;stroke:rgb(255, 0, 138);stroke-width:1;" d="M 921.338, 523.87 L 932.007, 509.403 L 983.906, 531.465 L 985.895, 532.188 L 987.523, 532.911 L 991.501, 534.539 L 980.832, 549.186 L 929.295, 527.306 L 921.338, 523.87 z "/>
<path style="fill:rgb(0, 0, 255);fill-opacity:0;fill-rule:evenodd;stroke:rgb(255, 0, 138);stroke-width:1;" d="M 205.606, 654.611 L 237.613, 611.031 L 257.505, 619.53 L 231.103, 655.696 L 225.678, 663.11 L 205.606, 654.611 z "/>
<path style="fill:rgb(255, 255, 0);fill-opacity:0;fill-rule:evenodd;stroke:rgb(255, 0, 138);stroke-width:1;" d="M 1020.07, 142.857 L 1030.56, 128.752 L 1036.71, 130.199 L 1043.94, 131.465 L 1055.15, 132.188 L 1068.17, 132.731 L 1074.86, 132.731 L 1070.16, 164.376 L 1020.07, 142.857 z "/>
<path style="fill:rgb(255, 0, 0);fill-opacity:0;fill-rule:evenodd;stroke:rgb(255, 0, 138);stroke-width:1;" d="M 885.172, 350.995 L 914.828, 309.584 L 917.902, 311.031 L 940.687, 320.253 L 1021.16, 353.345 L 1023.15, 354.25 L 1019.71, 376.673 L 1009.76, 372.514 L 1012.12, 354.43 L 920.796, 316.998 L 893.309, 354.25 L 885.172, 350.995 z "/>
<path style="fill:rgb(0, 255, 0);fill-opacity:0;fill-rule:evenodd;stroke:rgb(255, 0, 138);stroke-width:1;" d="M 924.955, 506.329 L 925.136, 505.967 L 935.624, 491.682 L 994.756, 516.817 L 983.906, 531.465 L 932.007, 509.403 L 924.955, 506.329 z "/>
<path style="fill:rgb(0, 0, 255);fill-opacity:0;fill-rule:evenodd;stroke:rgb(255, 0, 138);stroke-width:1;" d="M 918.987, 541.23 L 929.295, 527.306 L 980.832, 549.186 L 983.725, 550.452 L 986.438, 551.718 L 988.427, 552.441 L 978.119, 566.365 L 918.987, 541.23 z "/>
<path style="fill:rgb(255, 255, 0);fill-opacity:0;fill-rule:evenodd;stroke:rgb(255, 0, 138);stroke-width:1;" d="M 425.497, 632.369 L 436.89, 616.275 L 456.058, 624.231 L 455.335, 625.316 L 469.62, 631.284 L 470.524, 630.199 L 489.15, 637.975 L 477.577, 653.888 L 425.497, 632.369 z "/>
<path style="fill:rgb(255, 0, 0);fill-opacity:0;fill-rule:evenodd;stroke:rgb(255, 0, 138);stroke-width:1;" d="M 641.41, 256.42 L 641.591, 254.792 L 642.495, 253.165 L 653.888, 237.251 L 655.515, 235.986 L 657.685, 235.262 L 660.036, 235.081 L 662.206, 235.443 L 684.268, 244.485 L 686.257, 245.57 L 687.523, 247.016 L 688.246, 248.644 L 688.065, 250.452 L 687.161, 251.899 L 675.769, 268.174 L 674.141, 269.439 L 672.152, 270.344 L 669.801, 270.524 L 667.45, 269.982 L 645.389, 260.579 L 643.4, 259.675 L 642.134, 258.228 L 641.41, 256.42 z "/>
<path style="fill:rgb(0, 255, 0);fill-opacity:0;fill-rule:evenodd;stroke:rgb(255, 0, 138);stroke-width:1;" d="M 600.904, 360.94 L 621.519, 332.731 L 623.327, 330.38 L 648.463, 341.049 L 646.474, 343.761 L 626.04, 371.609 L 600.904, 360.94 z "/>
<path style="fill:rgb(0, 0, 255);fill-opacity:0;fill-rule:evenodd;stroke:rgb(255, 0, 138);stroke-width:1;" d="M 956.239, 229.114 L 986.257, 187.884 L 1003.62, 195.298 L 974.684, 236.709 L 956.239, 229.114 z "/>
<path style="fill:rgb(255, 255, 0);fill-opacity:0;fill-rule:evenodd;stroke:rgb(255, 0, 138);stroke-width:1;" d="M 638.336, 712.477 L 639.06, 711.392 L 641.953, 707.414 L 642.676, 706.51 L 646.474, 701.266 L 641.23, 699.096 L 640.145, 698.553 L 640.868, 697.468 L 649.005, 686.438 L 649.729, 685.353 L 650.995, 685.895 L 656.239, 688.065 L 660.036, 682.64 L 660.759, 681.736 L 664.376, 676.854 L 665.461, 677.215 L 678.662, 682.821 L 679.928, 683.363 L 679.024, 684.268 L 676.311, 688.065 L 675.588, 689.15 L 671.609, 694.394 L 677.577, 696.926 L 678.662, 697.468 L 677.939, 698.373 L 669.801, 709.584 L 669.078, 710.669 L 667.993, 710.127 L 662.025, 707.776 L 658.228, 713.02 L 657.505, 713.924 L 653.888, 718.807 L 652.803, 718.445 L 639.602, 712.839 L 638.336, 712.477 z "/>
<path style="fill:rgb(255, 0, 0);fill-opacity:0;fill-rule:evenodd;stroke:rgb(255, 0, 138);stroke-width:1;" d="M 564.376, 567.45 L 567.269, 563.653 L 617.902, 584.81 L 675.949, 505.244 L 649.548, 494.213 L 652.08, 490.778 L 683.363, 503.797 L 620.072, 590.597 L 564.376, 567.45 z "/>
<path style="fill:rgb(0, 255, 0);fill-opacity:0;fill-rule:evenodd;stroke:rgb(255, 0, 138);stroke-width:1;" d="M 179.204, 376.854 L 191.682, 360.036 L 220.434, 374.684 L 220.615, 374.864 L 216.094, 380.651 L 241.953, 393.49 L 240.145, 395.841 L 237.975, 398.734 L 236.347, 401.085 L 228.752, 397.83 L 224.774, 396.022 L 213.382, 391.32 L 210.669, 390.054 L 201.989, 386.438 L 198.373, 384.991 L 188.065, 380.651 L 179.204, 376.854 z "/>
<path style="fill:rgb(0, 0, 255);fill-opacity:0;fill-rule:evenodd;stroke:rgb(255, 0, 138);stroke-width:1;" d="M 542.134, 79.9277 L 562.929, 50.9946 L 571.79, 54.6112 L 570.344, 56.7812 L 577.577, 59.6745 L 579.024, 57.6854 L 587.884, 61.302 L 585.714, 64.0145 L 566.727, 90.2351 L 542.134, 79.9277 z "/>
<path style="fill:rgb(255, 255, 0);fill-opacity:0;fill-rule:evenodd;stroke:rgb(255, 0, 138);stroke-width:1;" d="M 650.814, 307.414 L 656.239, 300.181 L 669.801, 281.374 L 667.089, 280.289 L 673.056, 271.971 L 684.087, 276.492 L 682.459, 278.843 L 694.575, 283.725 L 671.067, 315.913 L 650.814, 307.414 z "/>
<path style="fill:rgb(255, 0, 0);fill-opacity:0;fill-rule:evenodd;stroke:rgb(255, 0, 138);stroke-width:1;" d="M 631.284, 447.559 L 640.868, 434.358 L 643.58, 435.624 L 645.931, 432.369 L 643.219, 431.284 L 646.293, 427.125 L 647.197, 425.859 L 649.186, 426.582 L 651.356, 423.689 L 650.995, 420.796 L 654.973, 415.371 L 662.568, 418.626 L 658.59, 424.051 L 665.642, 426.944 L 669.62, 421.519 L 677.577, 424.955 L 669.982, 435.262 L 666.546, 439.964 L 664.557, 440.145 L 661.302, 444.304 L 661.844, 446.293 L 654.069, 457.143 L 631.284, 447.559 z "/>
<path style="fill:rgb(0, 255, 0);fill-opacity:0;fill-rule:evenodd;stroke:rgb(255, 0, 138);stroke-width:1;" d="M 392.405, 283.183 L 399.458, 273.418 L 397.107, 272.333 L 404.702, 262.206 L 406.329, 262.929 L 409.765, 258.228 L 407.957, 257.505 L 417.36, 244.665 L 436.709, 252.984 L 427.306, 265.823 L 425.678, 265.099 L 422.423, 269.62 L 424.051, 270.344 L 416.456, 280.651 L 414.286, 279.566 L 407.052, 289.512 L 392.405, 283.183 z "/>
<path style="fill:rgb(0, 0, 255);fill-opacity:0;fill-rule:evenodd;stroke:rgb(255, 0, 138);stroke-width:1;" d="M 826.401, 768.716 L 840.325, 749.729 L 858.047, 725.497 L 868.174, 724.593 L 872.514, 731.646 L 861.302, 746.835 L 840.868, 774.684 L 826.401, 768.716 z "/>
<path style="fill:rgb(255, 255, 0);fill-opacity:0;fill-rule:evenodd;stroke:rgb(255, 0, 138);stroke-width:1;" d="M 886.799, 558.228 L 888.427, 555.877 L 889.15, 554.973 L 904.159, 561.302 L 969.982, 589.331 L 984.81, 569.259 L 996.383, 574.503 L 988.969, 601.447 L 886.799, 558.228 z "/>
<path style="fill:rgb(255, 0, 0);fill-opacity:0;fill-rule:evenodd;stroke:rgb(255, 0, 138);stroke-width:1;" d="M 133.092, 772.514 L 137.432, 766.546 L 164.738, 729.114 L 179.566, 735.443 L 157.685, 765.461 L 147.92, 778.843 L 133.092, 772.514 z "/>
<path style="fill:rgb(0, 255, 0);fill-opacity:0;fill-rule:evenodd;stroke:rgb(255, 0, 138);stroke-width:1;" d="M 837.975, 193.671 L 846.655, 181.736 L 858.409, 178.843 L 874.141, 185.353 L 877.758, 194.213 L 869.439, 206.329 L 857.324, 209.042 L 841.591, 202.532 L 837.975, 193.671 z "/>
<path style="fill:rgb(0, 0, 255);fill-opacity:0;fill-rule:evenodd;stroke:rgb(255, 0, 138);stroke-width:1;" d="M 258.409, 669.62 L 278.662, 641.953 L 274.503, 640.145 L 280.108, 632.55 L 281.917, 630.018 L 304.521, 639.602 L 298.011, 648.463 L 297.107, 649.729 L 293.309, 648.101 L 287.161, 656.42 L 285.353, 658.951 L 273.056, 675.949 L 258.409, 669.62 z "/>
<path style="fill:rgb(255, 255, 0);fill-opacity:0;fill-rule:evenodd;stroke:rgb(255, 0, 138);stroke-width:1;" d="M 290.778, 454.792 L 292.405, 452.622 L 307.957, 431.284 L 334.539, 445.931 L 323.87, 460.398 L 319.168, 466.908 L 290.778, 454.792 z "/>
<path style="fill:rgb(255, 0, 0);fill-opacity:0;fill-rule:evenodd;stroke:rgb(255, 0, 138);stroke-width:1;" d="M 534.72, 554.792 L 544.485, 541.41 L 547.378, 537.432 L 555.877, 525.497 L 566.184, 511.573 L 580.651, 517.722 L 549.186, 560.94 L 534.72, 554.792 z "/>
<path style="fill:rgb(0, 255, 0);fill-opacity:0;fill-rule:evenodd;stroke:rgb(255, 0, 138);stroke-width:1;" d="M 267.812, 254.973 L 277.939, 241.23 L 290.235, 246.474 L 300.362, 250.814 L 304.159, 252.441 L 322.966, 260.398 L 313.02, 274.141 L 294.033, 266.184 L 267.812, 254.973 z "/>
<path style="fill:rgb(0, 0, 255);fill-opacity:0;fill-rule:evenodd;stroke:rgb(255, 0, 138);stroke-width:1;" d="M 815.009, 425.497 L 822.966, 414.828 L 849.91, 426.401 L 880.651, 439.421 L 872.694, 450.09 L 866.004, 447.197 L 853.526, 441.772 L 845.208, 438.336 L 815.009, 425.497 z "/>
<path style="fill:rgb(255, 255, 0);fill-opacity:0;fill-rule:evenodd;stroke:rgb(255, 0, 138);stroke-width:1;" d="M 235.262, 428.391 L 240.325, 421.519 L 246.293, 413.562 L 248.101, 411.031 L 252.441, 404.882 L 254.611, 401.989 L 259.675, 395.118 L 262.749, 390.778 L 266.546, 385.533 L 280.832, 391.501 L 249.548, 434.539 L 235.262, 428.391 z "/>
<path style="fill:rgb(255, 0, 0);fill-opacity:0;fill-rule:evenodd;stroke:rgb(255, 0, 138);stroke-width:1;" d="M 783.183, 468.716 L 791.139, 457.866 L 840.506, 478.843 L 846.474, 481.555 L 838.517, 492.405 L 829.476, 488.427 L 819.349, 484.268 L 783.183, 468.716 z "/>
<path style="fill:rgb(0, 255, 0);fill-opacity:0;fill-rule:evenodd;stroke:rgb(255, 0, 138);stroke-width:1;" d="M 173.96, 188.427 L 183.002, 176.13 L 197.107, 182.098 L 196.383, 183.363 L 220.434, 193.49 L 221.338, 192.224 L 236.166, 198.553 L 227.125, 210.85 L 212.297, 204.702 L 213.201, 203.436 L 189.15, 193.309 L 188.246, 194.394 L 173.96, 188.427 z "/>
<path style="fill:rgb(0, 0, 255);fill-opacity:0;fill-rule:evenodd;stroke:rgb(255, 0, 138);stroke-width:1;" d="M 1003.62, 195.298 L 1014.47, 179.747 L 1053.71, 195.479 L 1042.68, 211.031 L 1003.62, 195.298 z "/>
<path style="fill:rgb(255, 255, 0);fill-opacity:0;fill-rule:evenodd;stroke:rgb(255, 0, 138);stroke-width:1;" d="M 88.7884, 501.085 L 96.5642, 490.416 L 99.2767, 491.501 L 103.797, 485.533 L 116.637, 495.118 L 140.868, 506.329 L 136.89, 511.935 L 131.646, 519.168 L 88.7884, 501.085 z "/>
<path style="fill:rgb(255, 0, 0);fill-opacity:0;fill-rule:evenodd;stroke:rgb(255, 0, 138);stroke-width:1;" d="M 358.228, 268.716 L 365.461, 258.951 L 362.749, 257.866 L 370.344, 247.559 L 371.609, 248.282 L 375.045, 243.58 L 373.599, 243.038 L 383.002, 230.199 L 400.362, 237.432 L 390.778, 250.271 L 388.969, 249.548 L 385.714, 254.069 L 387.523, 254.973 L 379.928, 265.099 L 377.396, 264.014 L 370.344, 273.779 L 358.228, 268.716 z "/>
<path style="fill:rgb(0, 255, 0);fill-opacity:0;fill-rule:evenodd;stroke:rgb(255, 0, 138);stroke-width:1;" d="M 375.226, 275.949 L 382.278, 266.184 L 379.928, 265.099 L 387.523, 254.973 L 389.15, 255.515 L 392.405, 250.995 L 390.778, 250.271 L 400.362, 237.432 L 417.36, 244.665 L 407.957, 257.505 L 406.148, 256.781 L 402.712, 261.302 L 404.702, 262.206 L 397.107, 272.333 L 394.394, 271.248 L 387.161, 281.013 L 375.226, 275.949 z "/>
<path style="fill:rgb(0, 0, 255);fill-opacity:0;fill-rule:evenodd;stroke:rgb(255, 0, 138);stroke-width:1;" d="M 249.548, 434.539 L 280.832, 391.501 L 294.394, 397.288 L 280.289, 416.456 L 262.929, 440.145 L 249.548, 434.539 z "/>
<path style="fill:rgb(255, 255, 0);fill-opacity:0;fill-rule:evenodd;stroke:rgb(255, 0, 138);stroke-width:1;" d="M 341.049, 261.483 L 348.282, 251.718 L 345.75, 250.633 L 353.345, 240.506 L 355.154, 241.23 L 358.59, 236.528 L 356.42, 235.805 L 366.365, 222.242 L 369.259, 223.508 L 371.067, 225.136 L 383.002, 230.199 L 373.599, 243.038 L 371.79, 242.315 L 369.62, 245.208 L 368.354, 246.835 L 370.344, 247.559 L 362.749, 257.866 L 360.398, 256.781 L 353.165, 266.546 L 341.049, 261.483 z "/>
<path style="fill:rgb(255, 0, 0);fill-opacity:0;fill-rule:evenodd;stroke:rgb(255, 0, 138);stroke-width:1;" d="M 322.785, 251.537 L 349.548, 215.009 L 366.365, 222.242 L 356.42, 235.805 L 355.515, 237.071 L 353.165, 237.071 L 337.794, 257.866 L 322.785, 251.537 z "/>
<path style="fill:rgb(0, 255, 0);fill-opacity:0;fill-rule:evenodd;stroke:rgb(255, 0, 138);stroke-width:1;" d="M 640.145, 698.553 L 640.868, 697.468 L 649.005, 686.438 L 649.729, 685.353 L 650.995, 685.895 L 656.239, 688.065 L 660.036, 682.64 L 660.759, 681.736 L 662.025, 682.098 L 675.045, 687.703 L 676.311, 688.065 L 675.588, 689.15 L 671.609, 694.394 L 677.577, 696.926 L 678.662, 697.468 L 677.939, 698.373 L 669.801, 709.584 L 669.078, 710.669 L 667.993, 710.127 L 662.025, 707.776 L 658.228, 713.02 L 657.505, 713.924 L 656.239, 713.382 L 643.219, 707.957 L 641.953, 707.414 L 642.676, 706.51 L 646.474, 701.266 L 641.23, 699.096 L 640.145, 698.553 z "/>
<path style="fill:rgb(0, 0, 255);fill-opacity:0;fill-rule:evenodd;stroke:rgb(255, 0, 138);stroke-width:1;" d="M 767.45, 186.076 L 769.259, 183.363 L 799.096, 142.495 L 807.776, 146.112 L 812.839, 148.282 L 800.542, 165.28 L 796.022, 163.472 L 792.405, 168.535 L 796.745, 170.344 L 788.788, 181.193 L 781.193, 191.863 L 767.45, 186.076 z "/>
<path style="fill:rgb(255, 255, 0);fill-opacity:0;fill-rule:evenodd;stroke:rgb(255, 0, 138);stroke-width:1;" d="M 181.555, 626.401 L 201.447, 599.277 L 215.732, 605.244 L 213.924, 607.414 L 221.519, 610.669 L 203.074, 635.624 L 181.555, 626.401 z "/>
<path style="fill:rgb(255, 0, 0);fill-opacity:0;fill-rule:evenodd;stroke:rgb(255, 0, 138);stroke-width:1;" d="M 501.447, 540.687 L 522.785, 511.573 L 525.136, 512.658 L 530.38, 505.425 L 541.772, 510.307 L 536.528, 517.36 L 539.602, 518.626 L 530.922, 530.38 L 528.752, 529.476 L 525.678, 533.635 L 528.029, 534.539 L 518.264, 547.74 L 501.447, 540.687 z "/>
<path style="fill:rgb(0, 255, 0);fill-opacity:0;fill-rule:evenodd;stroke:rgb(255, 0, 138);stroke-width:1;" d="M 105.967, 759.494 L 134.539, 720.072 L 149.005, 726.221 L 135.986, 743.942 L 120.253, 765.461 L 105.967, 759.494 z "/>
<path style="fill:rgb(0, 0, 255);fill-opacity:0;fill-rule:evenodd;stroke:rgb(255, 0, 138);stroke-width:1;" d="M 484.81, 533.635 L 494.394, 520.434 L 496.203, 521.157 L 499.096, 516.998 L 497.468, 516.275 L 505.967, 504.521 L 508.68, 505.606 L 513.924, 498.553 L 525.136, 503.255 L 519.892, 510.488 L 522.785, 511.573 L 501.447, 540.687 L 484.81, 533.635 z "/>
<path style="fill:rgb(255, 255, 0);fill-opacity:0;fill-rule:evenodd;stroke:rgb(255, 0, 138);stroke-width:1;" d="M 163.472, 398.553 L 171.429, 387.703 L 180.108, 391.32 L 179.204, 392.586 L 189.512, 396.926 L 191.32, 396.022 L 205.063, 401.808 L 207.233, 402.712 L 207.414, 404.882 L 217.722, 409.222 L 218.987, 407.595 L 220.976, 408.499 L 225.497, 410.488 L 217.541, 421.338 L 163.472, 398.553 z "/>
<path style="fill:rgb(255, 0, 0);fill-opacity:0;fill-rule:evenodd;stroke:rgb(255, 0, 138);stroke-width:1;" d="M 659.313, 409.946 L 663.291, 404.521 L 665.28, 405.244 L 674.864, 392.224 L 695.298, 364.376 L 697.107, 361.844 L 709.403, 366.908 L 701.627, 377.758 L 698.915, 381.193 L 694.756, 379.566 L 691.32, 384.268 L 694.213, 385.533 L 672.333, 415.371 L 659.313, 409.946 z "/>
<path style="fill:rgb(0, 255, 0);fill-opacity:0;fill-rule:evenodd;stroke:rgb(255, 0, 138);stroke-width:1;" d="M 602.893, 435.443 L 603.617, 434.177 L 625.316, 404.702 L 628.21, 400.904 L 630.561, 400.542 L 634.539, 395.298 L 645.389, 400 L 641.591, 405.244 L 642.495, 406.872 L 635.986, 415.732 L 634.177, 415.371 L 631.103, 419.53 L 632.007, 421.157 L 617.179, 441.41 L 602.893, 435.443 z "/>
<path style="fill:rgb(0, 0, 255);fill-opacity:0;fill-rule:evenodd;stroke:rgb(255, 0, 138);stroke-width:1;" d="M 193.128, 649.367 L 203.074, 635.624 L 221.519, 610.669 L 225.136, 605.787 L 228.21, 607.233 L 229.295, 605.967 L 234.177, 607.957 L 233.273, 609.222 L 237.613, 611.031 L 205.606, 654.611 L 193.128, 649.367 z "/>
<path style="fill:rgb(255, 255, 0);fill-opacity:0;fill-rule:evenodd;stroke:rgb(255, 0, 138);stroke-width:1;" d="M 152.984, 183.544 L 159.494, 174.322 L 160.759, 172.694 L 161.844, 173.237 L 172.514, 158.59 L 171.429, 158.047 L 173.418, 155.335 L 182.098, 143.4 L 196.203, 149.367 L 167.089, 189.512 L 152.984, 183.544 z "/>
<path style="fill:rgb(255, 0, 0);fill-opacity:0;fill-rule:evenodd;stroke:rgb(255, 0, 138);stroke-width:1;" d="M 617.179, 441.41 L 632.007, 421.157 L 633.996, 420.796 L 637.071, 416.637 L 635.986, 415.732 L 642.495, 406.872 L 644.846, 406.691 L 648.825, 401.447 L 659.494, 405.787 L 655.515, 411.212 L 656.781, 412.839 L 654.973, 415.371 L 650.995, 420.796 L 650.271, 421.7 L 647.92, 421.338 L 644.846, 425.497 L 646.293, 427.125 L 643.219, 431.284 L 640.868, 434.358 L 631.284, 447.559 L 617.179, 441.41 z "/>
<path style="fill:rgb(0, 255, 0);fill-opacity:0;fill-rule:evenodd;stroke:rgb(255, 0, 138);stroke-width:1;" d="M 518.264, 547.74 L 528.029, 534.539 L 529.476, 535.081 L 532.369, 531.103 L 530.922, 530.38 L 539.602, 518.626 L 541.953, 519.711 L 547.197, 512.477 L 558.409, 517.179 L 553.165, 524.412 L 555.877, 525.497 L 547.378, 537.432 L 545.57, 536.528 L 542.495, 540.687 L 544.485, 541.41 L 534.72, 554.792 L 518.264, 547.74 z "/>
<path style="fill:rgb(0, 0, 255);fill-opacity:0;fill-rule:evenodd;stroke:rgb(255, 0, 138);stroke-width:1;" d="M 103.617, 611.573 L 112.839, 599.096 L 115.913, 598.553 L 120.976, 591.682 L 116.998, 590.054 L 122.423, 582.64 L 125.136, 581.917 L 128.752, 576.854 L 127.125, 576.13 L 133.816, 567.089 L 148.463, 573.237 L 144.846, 578.119 L 141.953, 582.098 L 140.325, 581.374 L 135.805, 587.523 L 137.432, 588.246 L 131.465, 596.203 L 128.029, 594.756 L 124.051, 600.181 L 127.667, 601.627 L 126.582, 603.074 L 116.456, 616.817 L 103.617, 611.573 z "/>
<path style="fill:rgb(255, 255, 0);fill-opacity:0;fill-rule:evenodd;stroke:rgb(255, 0, 138);stroke-width:1;" d="M 691.32, 247.016 L 696.745, 239.602 L 699.819, 240.868 L 711.754, 224.412 L 713.924, 221.157 L 734.177, 229.656 L 715.913, 254.792 L 703.617, 249.91 L 702.351, 251.718 L 691.32, 247.016 z "/>
<path style="fill:rgb(255, 0, 0);fill-opacity:0;fill-rule:evenodd;stroke:rgb(255, 0, 138);stroke-width:1;" d="M 873.779, 549.729 L 901.266, 512.297 L 915.913, 518.626 L 903.797, 534.901 L 896.564, 544.665 L 889.15, 554.973 L 888.427, 555.877 L 873.779, 549.729 z "/>
<path style="fill:rgb(0, 255, 0);fill-opacity:0;fill-rule:evenodd;stroke:rgb(255, 0, 138);stroke-width:1;" d="M 468.354, 526.763 L 468.535, 526.763 L 478.119, 513.562 L 480.108, 514.286 L 483.544, 509.584 L 481.736, 508.68 L 489.693, 497.649 L 491.682, 498.553 L 496.926, 491.32 L 508.499, 496.203 L 503.255, 503.436 L 505.967, 504.521 L 497.468, 516.275 L 495.841, 515.552 L 492.948, 519.711 L 494.394, 520.434 L 484.81, 533.635 L 468.354, 526.763 z "/>
<path style="fill:rgb(0, 0, 255);fill-opacity:0;fill-rule:evenodd;stroke:rgb(255, 0, 138);stroke-width:1;" d="M 673.237, 415.732 L 677.758, 409.765 L 680.47, 410.85 L 734.358, 433.635 L 726.221, 444.665 L 692.586, 430.38 L 694.756, 427.306 L 679.204, 420.796 L 680.651, 418.987 L 673.237, 415.732 z "/>
<path style="fill:rgb(255, 255, 0);fill-opacity:0;fill-rule:evenodd;stroke:rgb(255, 0, 138);stroke-width:1;" d="M 126.763, 678.843 L 158.409, 635.624 L 170.886, 640.868 L 168.716, 643.761 L 139.06, 684.087 L 126.763, 678.843 z "/>
<path style="fill:rgb(255, 0, 0);fill-opacity:0;fill-rule:evenodd;stroke:rgb(255, 0, 138);stroke-width:1;" d="M 807.052, 436.347 L 815.009, 425.497 L 845.208, 438.336 L 844.304, 439.421 L 850.995, 442.134 L 853.526, 441.772 L 866.004, 447.197 L 858.047, 458.047 L 845.57, 452.803 L 844.665, 450.633 L 838.156, 447.92 L 837.251, 449.186 L 807.052, 436.347 z "/>
<path style="fill:rgb(0, 255, 0);fill-opacity:0;fill-rule:evenodd;stroke:rgb(255, 0, 138);stroke-width:1;" d="M 669.982, 435.262 L 677.577, 424.955 L 678.119, 424.231 L 692.586, 430.38 L 726.221, 444.665 L 718.264, 455.696 L 678.3, 438.879 L 669.982, 435.262 z "/>
<path style="fill:rgb(0, 0, 255);fill-opacity:0;fill-rule:evenodd;stroke:rgb(255, 0, 138);stroke-width:1;" d="M 164.376, 785.895 L 174.141, 772.514 L 196.022, 742.315 L 208.318, 747.559 L 176.492, 791.139 L 164.376, 785.895 z "/>
<path style="fill:rgb(255, 255, 0);fill-opacity:0;fill-rule:evenodd;stroke:rgb(255, 0, 138);stroke-width:1;" d="M 654.069, 457.143 L 661.844, 446.293 L 670.344, 449.91 L 710.127, 466.727 L 702.17, 477.577 L 654.069, 457.143 z "/>
<path style="fill:rgb(255, 0, 0);fill-opacity:0;fill-rule:evenodd;stroke:rgb(255, 0, 138);stroke-width:1;" d="M 92.5859, 597.83 L 111.212, 572.514 L 119.53, 561.121 L 133.816, 567.089 L 127.125, 576.13 L 122.423, 582.64 L 116.998, 590.054 L 106.691, 603.797 L 92.5859, 597.83 z "/>
<path style="fill:rgb(0, 255, 0);fill-opacity:0;fill-rule:evenodd;stroke:rgb(255, 0, 138);stroke-width:1;" d="M 237.794, 724.955 L 243.761, 716.817 L 246.835, 716.094 L 249.186, 712.839 L 247.92, 711.031 L 250.271, 707.957 L 251.356, 708.499 L 255.877, 702.351 L 258.228, 703.436 L 262.206, 698.192 L 259.675, 697.107 L 266.727, 687.523 L 281.013, 693.671 L 274.684, 702.17 L 271.971, 701.085 L 267.45, 707.414 L 269.078, 708.137 L 265.823, 712.477 L 266.908, 713.02 L 253.345, 731.646 L 237.794, 724.955 z "/>
<path style="fill:rgb(0, 0, 255);fill-opacity:0;fill-rule:evenodd;stroke:rgb(255, 0, 138);stroke-width:1;" d="M 984.81, 569.259 L 995.118, 555.335 L 991.501, 553.707 L 988.427, 552.441 L 986.438, 551.718 L 997.288, 537.071 L 994.575, 535.986 L 991.501, 534.539 L 987.523, 532.911 L 998.373, 518.264 L 1010.67, 523.689 L 996.383, 574.503 L 984.81, 569.259 z "/>
<path style="fill:rgb(255, 255, 0);fill-opacity:0;fill-rule:evenodd;stroke:rgb(255, 0, 138);stroke-width:1;" d="M 1029.11, 249.548 L 1045.57, 226.04 L 1061.84, 232.731 L 1057.32, 261.483 L 1048.28, 257.866 L 1029.11, 249.548 z "/>
<path style="fill:rgb(255, 0, 0);fill-opacity:0;fill-rule:evenodd;stroke:rgb(255, 0, 138);stroke-width:1;" d="M 918.807, 611.573 L 920.434, 608.861 L 976.854, 632.007 L 961.302, 677.758 L 957.324, 676.13 L 951.899, 673.779 L 948.282, 672.152 L 946.655, 671.609 L 950.814, 666.184 L 953.707, 667.45 L 957.324, 662.568 L 954.069, 661.302 L 958.409, 655.335 L 962.387, 643.038 L 966.365, 643.761 L 968.174, 638.336 L 964.376, 637.613 L 966.365, 631.646 L 932.188, 617.179 L 918.807, 611.573 z "/>
<path style="fill:rgb(0, 255, 0);fill-opacity:0;fill-rule:evenodd;stroke:rgb(255, 0, 138);stroke-width:1;" d="M 524.955, 81.736 L 555.877, 39.0597 L 566.004, 43.3996 L 565.642, 43.9421 L 567.45, 44.6655 L 564.919, 48.4629 L 562.929, 50.9946 L 542.134, 79.9277 L 537.071, 86.9801 L 524.955, 81.736 z "/>
<path style="fill:rgb(0, 0, 255);fill-opacity:0;fill-rule:evenodd;stroke:rgb(255, 0, 138);stroke-width:1;" d="M 268.535, 738.156 L 274.503, 729.837 L 277.396, 729.837 L 280.47, 726.04 L 278.843, 724.051 L 281.374, 720.615 L 282.64, 721.157 L 286.618, 715.732 L 288.788, 716.817 L 292.767, 711.212 L 290.778, 710.307 L 297.83, 700.723 L 312.297, 706.872 L 306.148, 715.371 L 302.351, 713.924 L 297.649, 720.434 L 299.458, 721.338 L 296.203, 725.859 L 297.288, 727.306 L 294.575, 730.922 L 290.958, 730.561 L 288.427, 733.996 L 288.246, 735.805 L 290.416, 736.709 L 284.448, 744.846 L 268.535, 738.156 z "/>
<path style="fill:rgb(255, 255, 0);fill-opacity:0;fill-rule:evenodd;stroke:rgb(255, 0, 138);stroke-width:1;" d="M 253.345, 731.646 L 266.908, 713.02 L 268.354, 713.562 L 271.429, 709.222 L 272.875, 709.765 L 277.577, 703.436 L 274.684, 702.17 L 281.013, 693.671 L 294.937, 699.458 L 287.884, 709.042 L 285.895, 708.318 L 281.917, 713.743 L 283.906, 714.647 L 279.928, 719.892 L 281.374, 720.615 L 278.843, 724.051 L 276.13, 724.051 L 273.056, 728.21 L 274.503, 729.837 L 268.535, 738.156 L 253.345, 731.646 z "/>
<path style="fill:rgb(255, 0, 0);fill-opacity:0;fill-rule:evenodd;stroke:rgb(255, 0, 138);stroke-width:1;" d="M 81.0127, 320.434 L 88.6076, 309.946 L 97.2875, 313.562 L 107.233, 317.722 L 105.063, 320.615 L 111.754, 323.508 L 113.924, 320.615 L 129.656, 327.306 L 139.783, 331.465 L 132.188, 342.134 L 106.148, 331.103 L 108.137, 328.571 L 101.266, 325.678 L 99.4575, 328.21 L 96.5642, 326.944 L 81.0127, 320.434 z "/>
<path style="fill:rgb(0, 255, 0);fill-opacity:0;fill-rule:evenodd;stroke:rgb(255, 0, 138);stroke-width:1;" d="M 851.356, 631.826 L 881.555, 588.969 L 893.49, 593.671 L 863.11, 636.528 L 860.759, 635.624 L 851.356, 631.826 z "/>
<path style="fill:rgb(0, 0, 255);fill-opacity:0;fill-rule:evenodd;stroke:rgb(255, 0, 138);stroke-width:1;" d="M 903.436, 669.078 L 920.434, 667.812 L 926.763, 667.269 L 930.922, 694.756 L 907.414, 696.745 L 903.436, 669.078 z "/>
<path style="fill:rgb(255, 255, 0);fill-opacity:0;fill-rule:evenodd;stroke:rgb(255, 0, 138);stroke-width:1;" d="M 157.685, 765.461 L 179.566, 735.443 L 196.022, 742.315 L 174.141, 772.514 L 157.685, 765.461 z "/>
<path style="fill:rgb(255, 0, 0);fill-opacity:0;fill-rule:evenodd;stroke:rgb(255, 0, 138);stroke-width:1;" d="M 219.892, 717.36 L 220.976, 716.275 L 228.391, 708.318 L 231.826, 709.765 L 234.177, 706.51 L 231.826, 704.882 L 235.081, 701.447 L 237.251, 701.627 L 240.506, 697.107 L 242.495, 697.83 L 247.016, 691.863 L 245.208, 691.139 L 252.441, 681.374 L 263.834, 686.438 L 248.463, 707.233 L 250.271, 707.957 L 247.92, 711.031 L 245.208, 711.031 L 242.857, 714.467 L 243.761, 716.817 L 237.794, 724.955 L 219.892, 717.36 z "/>
<path style="fill:rgb(0, 255, 0);fill-opacity:0;fill-rule:evenodd;stroke:rgb(255, 0, 138);stroke-width:1;" d="M 83.0018, 150.452 L 92.7667, 136.89 L 96.5642, 138.517 L 100.723, 132.911 L 96.9259, 131.284 L 110.127, 113.201 L 124.774, 119.349 L 111.573, 137.432 L 107.052, 135.443 L 102.893, 141.23 L 107.414, 143.038 L 105.425, 145.75 L 97.6492, 156.6 L 83.0018, 150.452 z "/>
<path style="fill:rgb(0, 0, 255);fill-opacity:0;fill-rule:evenodd;stroke:rgb(255, 0, 138);stroke-width:1;" d="M 671.248, 111.031 L 677.215, 102.893 L 683.725, 93.8517 L 712.297, 105.967 L 706.148, 114.467 L 699.819, 122.966 L 685.533, 116.998 L 671.248, 111.031 z "/>
<path style="fill:rgb(255, 255, 0);fill-opacity:0;fill-rule:evenodd;stroke:rgb(255, 0, 138);stroke-width:1;" d="M 605.063, 556.6 L 622.242, 533.635 L 643.219, 542.676 L 626.04, 565.642 L 605.063, 556.6 z "/>
<path style="fill:rgb(255, 0, 0);fill-opacity:0;fill-rule:evenodd;stroke:rgb(255, 0, 138);stroke-width:1;" d="M 125.316, 761.302 L 137.432, 744.665 L 135.986, 743.942 L 149.005, 726.221 L 150.995, 723.327 L 164.738, 729.114 L 137.432, 766.546 L 125.316, 761.302 z "/>
<path style="fill:rgb(0, 255, 0);fill-opacity:0;fill-rule:evenodd;stroke:rgb(255, 0, 138);stroke-width:1;" d="M 848.825, 482.459 L 872.694, 450.09 L 880.651, 439.421 L 891.682, 444.123 L 861.121, 485.714 L 860.036, 487.161 L 848.825, 482.459 z "/>
<path style="fill:rgb(0, 0, 255);fill-opacity:0;fill-rule:evenodd;stroke:rgb(255, 0, 138);stroke-width:1;" d="M 817.179, 525.497 L 840.868, 493.309 L 848.825, 482.459 L 860.036, 487.161 L 846.655, 505.244 L 828.391, 530.38 L 817.179, 525.497 z "/>
<path style="fill:rgb(255, 255, 0);fill-opacity:0;fill-rule:evenodd;stroke:rgb(255, 0, 138);stroke-width:1;" d="M 908.861, 387.342 L 914.105, 379.928 L 918.083, 381.555 L 959.494, 398.734 L 953.707, 405.787 L 945.208, 407.414 L 911.212, 393.309 L 908.861, 387.342 z "/>
<path style="fill:rgb(255, 0, 0);fill-opacity:0;fill-rule:evenodd;stroke:rgb(255, 0, 138);stroke-width:1;" d="M 861.121, 485.714 L 891.682, 444.123 L 903.255, 449.005 L 902.532, 449.91 L 875.226, 487.161 L 872.694, 490.597 L 861.121, 485.714 z "/>
<path style="fill:rgb(0, 255, 0);fill-opacity:0;fill-rule:evenodd;stroke:rgb(255, 0, 138);stroke-width:1;" d="M 277.939, 677.034 L 284.81, 667.812 L 287.342, 669.078 L 294.033, 660.036 L 291.139, 658.77 L 285.353, 658.951 L 287.161, 656.42 L 292.767, 656.6 L 294.394, 654.43 L 296.564, 654.43 L 299.638, 650.271 L 298.011, 648.463 L 304.521, 639.602 L 319.53, 645.931 L 313.201, 654.43 L 309.765, 654.43 L 306.872, 658.59 L 308.68, 660.579 L 305.244, 665.28 L 301.808, 663.834 L 295.66, 672.333 L 298.915, 673.779 L 292.043, 683.183 L 277.939, 677.034 z "/>
<path style="fill:rgb(0, 0, 255);fill-opacity:0;fill-rule:evenodd;stroke:rgb(255, 0, 138);stroke-width:1;" d="M 922.423, 320.253 L 1009.4, 356.239 L 998.553, 359.132 L 924.955, 328.933 L 922.423, 320.253 z "/>
<path style="fill:rgb(255, 255, 0);fill-opacity:0;fill-rule:evenodd;stroke:rgb(255, 0, 138);stroke-width:1;" d="M 220.796, 422.423 L 225.859, 415.371 L 228.391, 414.647 L 232.55, 409.042 L 231.826, 407.414 L 233.635, 404.882 L 236.166, 405.967 L 240.506, 399.819 L 237.975, 398.734 L 240.145, 395.841 L 242.857, 395.298 L 246.474, 390.235 L 245.208, 388.969 L 248.282, 384.629 L 262.749, 390.778 L 259.675, 395.118 L 257.324, 394.937 L 253.707, 399.819 L 254.611, 401.989 L 252.441, 404.882 L 248.644, 403.255 L 244.304, 409.403 L 248.101, 411.031 L 246.293, 413.562 L 243.58, 413.743 L 239.421, 419.349 L 240.325, 421.519 L 235.262, 428.391 L 220.796, 422.423 z "/>
<path style="fill:rgb(255, 0, 0);fill-opacity:0;fill-rule:evenodd;stroke:rgb(255, 0, 138);stroke-width:1;" d="M 171.429, 387.703 L 179.204, 376.854 L 188.065, 380.651 L 189.15, 382.821 L 195.841, 385.533 L 198.373, 384.991 L 201.989, 386.438 L 200.181, 389.15 L 208.68, 392.767 L 210.669, 390.054 L 213.382, 391.32 L 214.286, 393.309 L 222.061, 396.745 L 224.774, 396.022 L 228.752, 397.83 L 220.976, 408.499 L 218.987, 407.595 L 216.637, 406.691 L 216.275, 404.702 L 208.499, 401.266 L 205.063, 401.808 L 191.32, 396.022 L 190.235, 395.66 L 189.873, 393.671 L 183.183, 390.778 L 182.459, 388.969 L 180.108, 391.32 L 171.429, 387.703 z "/>
<path style="fill:rgb(0, 255, 0);fill-opacity:0;fill-rule:evenodd;stroke:rgb(255, 0, 138);stroke-width:1;" d="M 116.456, 674.503 L 148.282, 631.284 L 158.409, 635.624 L 126.763, 678.843 L 116.456, 674.503 z "/>
<path style="fill:rgb(0, 0, 255);fill-opacity:0;fill-rule:evenodd;stroke:rgb(255, 0, 138);stroke-width:1;" d="M 292.043, 683.183 L 298.915, 673.779 L 302.17, 675.045 L 308.499, 666.546 L 305.244, 665.28 L 308.68, 660.579 L 311.031, 660.398 L 314.105, 656.239 L 313.201, 654.43 L 319.53, 645.931 L 333.092, 651.718 L 326.763, 660.217 L 324.231, 660.579 L 321.519, 664.376 L 322.966, 666.004 L 321.338, 668.174 L 319.168, 671.067 L 315.552, 669.62 L 309.222, 678.3 L 312.839, 679.747 L 306.148, 688.969 L 292.043, 683.183 z "/>
<path style="fill:rgb(255, 255, 0);fill-opacity:0;fill-rule:evenodd;stroke:rgb(255, 0, 138);stroke-width:1;" d="M 130.199, 163.11 L 134.177, 157.866 L 153.345, 131.465 L 167.269, 137.251 L 158.409, 149.548 L 154.43, 154.792 L 144.846, 168.174 L 144.123, 168.897 L 130.199, 163.11 z "/>
<path style="fill:rgb(255, 0, 0);fill-opacity:0;fill-rule:evenodd;stroke:rgb(255, 0, 138);stroke-width:1;" d="M 144.846, 168.174 L 154.43, 154.792 L 156.6, 154.792 L 159.313, 150.995 L 158.409, 149.548 L 167.269, 137.251 L 182.098, 143.4 L 173.418, 155.335 L 171.609, 154.611 L 167.993, 159.494 L 169.259, 161.121 L 160.759, 172.694 L 159.494, 174.322 L 144.846, 168.174 z "/>
<path style="fill:rgb(0, 255, 0);fill-opacity:0;fill-rule:evenodd;stroke:rgb(255, 0, 138);stroke-width:1;" d="M 670.344, 449.91 L 678.3, 438.879 L 718.264, 455.696 L 710.127, 466.727 L 670.344, 449.91 z "/>
<path style="fill:rgb(0, 0, 255);fill-opacity:0;fill-rule:evenodd;stroke:rgb(255, 0, 138);stroke-width:1;" d="M 913.743, 501.085 L 916.637, 497.288 L 940.325, 464.738 L 951.899, 469.62 L 950.271, 471.971 L 935.624, 491.682 L 925.136, 505.967 L 913.743, 501.085 z "/>
<path style="fill:rgb(255, 255, 0);fill-opacity:0;fill-rule:evenodd;stroke:rgb(255, 0, 138);stroke-width:1;" d="M 81.736, 510.85 L 88.7884, 501.085 L 131.646, 519.168 L 124.593, 528.933 L 81.736, 510.85 z "/>
<path style="fill:rgb(255, 0, 0);fill-opacity:0;fill-rule:evenodd;stroke:rgb(255, 0, 138);stroke-width:1;" d="M 85.5335, 69.8011 L 90.0542, 63.472 L 106.329, 41.4105 L 120.976, 47.5588 L 99.8192, 75.9494 L 85.5335, 69.8011 z "/>
<path style="fill:rgb(0, 255, 0);fill-opacity:0;fill-rule:evenodd;stroke:rgb(255, 0, 138);stroke-width:1;" d="M 113.924, 81.9168 L 134.901, 53.5262 L 149.548, 59.6745 L 146.293, 63.8336 L 128.391, 88.0651 L 113.924, 81.9168 z "/>
<path style="fill:rgb(0, 0, 255);fill-opacity:0;fill-rule:evenodd;stroke:rgb(255, 0, 138);stroke-width:1;" d="M 247.197, 645.75 L 262.387, 624.955 L 280.108, 632.55 L 274.503, 640.145 L 255.515, 666.004 L 255.154, 665.823 L 252.08, 664.557 L 261.483, 651.899 L 247.197, 645.75 z "/>
<path style="fill:rgb(255, 255, 0);fill-opacity:0;fill-rule:evenodd;stroke:rgb(255, 0, 138);stroke-width:1;" d="M 857.143, 668.897 L 876.492, 642.134 L 892.043, 648.463 L 872.694, 675.407 L 857.143, 668.897 z "/>
<path style="fill:rgb(255, 0, 0);fill-opacity:0;fill-rule:evenodd;stroke:rgb(255, 0, 138);stroke-width:1;" d="M 104.882, 669.62 L 128.571, 642.495 L 132.188, 638.517 L 135.805, 634.358 L 141.049, 628.391 L 148.282, 631.284 L 116.456, 674.503 L 104.882, 669.62 z "/>
<path style="fill:rgb(0, 255, 0);fill-opacity:0;fill-rule:evenodd;stroke:rgb(255, 0, 138);stroke-width:1;" d="M 682.459, 146.835 L 699.819, 122.966 L 706.148, 114.467 L 713.02, 117.541 L 706.872, 125.859 L 714.467, 128.933 L 696.926, 152.984 L 682.459, 146.835 z "/>
<path style="fill:rgb(0, 0, 255);fill-opacity:0;fill-rule:evenodd;stroke:rgb(255, 0, 138);stroke-width:1;" d="M 103.074, 305.967 L 107.052, 300.362 L 112.477, 293.128 L 110.127, 292.043 L 115.552, 284.81 L 137.071, 293.852 L 122.061, 314.105 L 103.074, 305.967 z "/>
<path style="fill:rgb(255, 255, 0);fill-opacity:0;fill-rule:evenodd;stroke:rgb(255, 0, 138);stroke-width:1;" d="M 458.951, 615.913 L 473.237, 596.564 L 481.013, 599.819 L 484.268, 595.479 L 489.15, 597.649 L 485.895, 601.989 L 492.043, 604.521 L 477.758, 624.051 L 475.588, 624.231 L 460.217, 617.722 L 458.951, 615.913 z "/>
<path style="fill:rgb(255, 0, 0);fill-opacity:0;fill-rule:evenodd;stroke:rgb(255, 0, 138);stroke-width:1;" d="M 99.8192, 75.9494 L 120.976, 47.5588 L 134.901, 53.5262 L 113.924, 81.9168 L 99.8192, 75.9494 z "/>
<path style="fill:rgb(0, 255, 0);fill-opacity:0;fill-rule:evenodd;stroke:rgb(255, 0, 138);stroke-width:1;" d="M 88.4268, 338.156 L 96.5642, 326.944 L 99.4575, 328.21 L 106.148, 331.103 L 132.188, 342.134 L 124.051, 353.165 L 88.4268, 338.156 z "/>
<path style="fill:rgb(0, 0, 255);fill-opacity:0;fill-rule:evenodd;stroke:rgb(255, 0, 138);stroke-width:1;" d="M 301.989, 208.499 L 309.946, 197.649 L 347.378, 213.562 L 339.421, 224.231 L 328.029, 219.53 L 324.051, 217.722 L 323.146, 216.094 L 313.02, 211.754 L 312.297, 212.839 L 301.989, 208.499 z "/>
<path style="fill:rgb(255, 255, 0);fill-opacity:0;fill-rule:evenodd;stroke:rgb(255, 0, 138);stroke-width:1;" d="M 119.53, 151.718 L 138.698, 125.316 L 153.345, 131.465 L 134.177, 157.866 L 119.53, 151.718 z "/>
<path style="fill:rgb(255, 0, 0);fill-opacity:0;fill-rule:evenodd;stroke:rgb(255, 0, 138);stroke-width:1;" d="M 80.4702, 349.005 L 88.4268, 338.156 L 124.051, 353.165 L 116.094, 364.014 L 80.4702, 349.005 z "/>
<path style="fill:rgb(0, 255, 0);fill-opacity:0;fill-rule:evenodd;stroke:rgb(255, 0, 138);stroke-width:1;" d="M 904.702, 492.224 L 927.848, 460.759 L 928.571, 459.855 L 940.325, 464.738 L 916.637, 497.288 L 904.702, 492.224 z "/>
<path style="fill:rgb(0, 0, 255);fill-opacity:0;fill-rule:evenodd;stroke:rgb(255, 0, 138);stroke-width:1;" d="M 105.425, 145.75 L 107.414, 143.038 L 111.573, 137.432 L 124.774, 119.349 L 138.698, 125.316 L 119.53, 151.718 L 105.425, 145.75 z "/>
<path style="fill:rgb(255, 255, 0);fill-opacity:0;fill-rule:evenodd;stroke:rgb(255, 0, 138);stroke-width:1;" d="M 805.787, 520.796 L 829.476, 488.427 L 838.517, 492.405 L 840.868, 493.309 L 817.179, 525.497 L 805.787, 520.796 z "/>
<path style="fill:rgb(255, 0, 0);fill-opacity:0;fill-rule:evenodd;stroke:rgb(255, 0, 138);stroke-width:1;" d="M 519.168, 396.745 L 534.72, 375.407 L 536.528, 373.056 L 540.687, 374.864 L 543.58, 370.886 L 554.611, 375.588 L 541.953, 392.948 L 537.975, 391.32 L 530.38, 401.627 L 519.168, 396.745 z "/>
<path style="fill:rgb(0, 255, 0);fill-opacity:0;fill-rule:evenodd;stroke:rgb(255, 0, 138);stroke-width:1;" d="M 667.089, 142.315 L 675.949, 130.199 L 677.577, 127.848 L 685.533, 116.998 L 699.819, 122.966 L 682.459, 146.835 L 681.374, 148.463 L 667.089, 142.315 z "/>
<path style="fill:rgb(0, 0, 255);fill-opacity:0;fill-rule:evenodd;stroke:rgb(255, 0, 138);stroke-width:1;" d="M 526.582, 329.295 L 544.123, 305.244 L 559.132, 311.754 L 541.591, 335.624 L 526.582, 329.295 z "/>
<path style="fill:rgb(255, 255, 0);fill-opacity:0;fill-rule:evenodd;stroke:rgb(255, 0, 138);stroke-width:1;" d="M 444.304, 294.575 L 462.025, 270.524 L 476.854, 276.854 L 459.313, 300.904 L 444.304, 294.575 z "/>
<path style="fill:rgb(255, 0, 0);fill-opacity:0;fill-rule:evenodd;stroke:rgb(255, 0, 138);stroke-width:1;" d="M 286.076, 230.199 L 294.033, 219.168 L 320.072, 230.199 L 320.615, 231.284 L 327.667, 234.358 L 320.434, 244.123 L 313.382, 241.049 L 312.116, 241.23 L 307.957, 239.421 L 307.957, 238.698 L 299.819, 235.262 L 298.373, 235.443 L 286.076, 230.199 z "/>
<path style="fill:rgb(0, 255, 0);fill-opacity:0;fill-rule:evenodd;stroke:rgb(255, 0, 138);stroke-width:1;" d="M 652.803, 136.347 L 671.248, 111.031 L 685.533, 116.998 L 677.577, 127.848 L 671.79, 125.497 L 670.344, 127.667 L 675.949, 130.199 L 667.089, 142.315 L 652.803, 136.347 z "/>
<path style="fill:rgb(0, 0, 255);fill-opacity:0;fill-rule:evenodd;stroke:rgb(255, 0, 138);stroke-width:1;" d="M 277.939, 241.23 L 286.076, 230.199 L 298.373, 235.443 L 298.553, 237.071 L 306.691, 240.506 L 307.957, 239.421 L 312.116, 241.23 L 312.477, 242.495 L 319.53, 245.389 L 312.658, 254.792 L 305.787, 251.899 L 304.159, 252.441 L 300.362, 250.814 L 300.542, 250.09 L 292.043, 246.474 L 290.235, 246.474 L 277.939, 241.23 z "/>
<path style="fill:rgb(255, 255, 0);fill-opacity:0;fill-rule:evenodd;stroke:rgb(255, 0, 138);stroke-width:1;" d="M 262.929, 440.145 L 280.289, 416.456 L 294.394, 423.87 L 277.939, 446.474 L 262.929, 440.145 z "/>
<path style="fill:rgb(255, 0, 0);fill-opacity:0;fill-rule:evenodd;stroke:rgb(255, 0, 138);stroke-width:1;" d="M 294.033, 219.168 L 301.989, 208.499 L 312.297, 212.839 L 314.286, 213.562 L 314.647, 215.19 L 322.785, 218.626 L 324.051, 217.722 L 328.029, 219.53 L 328.029, 221.157 L 335.081, 224.231 L 328.752, 232.911 L 321.519, 229.837 L 320.072, 230.199 L 294.033, 219.168 z "/>
<path style="fill:rgb(0, 255, 0);fill-opacity:0;fill-rule:evenodd;stroke:rgb(255, 0, 138);stroke-width:1;" d="M 128.391, 88.0651 L 146.293, 63.8336 L 160.398, 69.8011 L 142.495, 94.2134 L 128.391, 88.0651 z "/>
<path style="fill:rgb(0, 0, 255);fill-opacity:0;fill-rule:evenodd;stroke:rgb(255, 0, 138);stroke-width:1;" d="M 613.382, 529.295 L 643.942, 487.342 L 652.08, 490.778 L 649.548, 494.213 L 621.519, 532.731 L 613.382, 529.295 z "/>
<path style="fill:rgb(255, 255, 0);fill-opacity:0;fill-rule:evenodd;stroke:rgb(255, 0, 138);stroke-width:1;" d="M 142.495, 94.2134 L 160.398, 69.8011 L 174.322, 75.7685 L 156.42, 100 L 142.495, 94.2134 z "/>
<path style="fill:rgb(255, 0, 0);fill-opacity:0;fill-rule:evenodd;stroke:rgb(255, 0, 138);stroke-width:1;" d="M 795.66, 516.456 L 800.723, 509.403 L 807.414, 500.362 L 813.562, 492.043 L 819.349, 484.268 L 829.476, 488.427 L 805.787, 520.796 L 795.66, 516.456 z "/>
<path style="fill:rgb(0, 255, 0);fill-opacity:0;fill-rule:evenodd;stroke:rgb(255, 0, 138);stroke-width:1;" d="M 764.557, 494.033 L 771.248, 484.991 L 807.414, 500.362 L 800.723, 509.403 L 764.557, 494.033 z "/>
<path style="fill:rgb(0, 0, 255);fill-opacity:0;fill-rule:evenodd;stroke:rgb(255, 0, 138);stroke-width:1;" d="M 597.288, 519.53 L 612.297, 498.915 L 623.146, 484.268 L 632.369, 488.065 L 606.51, 523.327 L 597.288, 519.53 z "/>
<path style="fill:rgb(255, 255, 0);fill-opacity:0;fill-rule:evenodd;stroke:rgb(255, 0, 138);stroke-width:1;" d="M 169.078, 195.298 L 173.96, 188.427 L 188.246, 194.394 L 187.161, 195.841 L 211.212, 206.148 L 212.297, 204.702 L 227.125, 210.85 L 222.242, 217.541 L 220.976, 216.998 L 190.597, 204.34 L 169.078, 195.298 z "/>
<path style="fill:rgb(255, 0, 0);fill-opacity:0;fill-rule:evenodd;stroke:rgb(255, 0, 138);stroke-width:1;" d="M 277.939, 446.474 L 294.394, 423.87 L 307.957, 431.284 L 292.405, 452.622 L 277.939, 446.474 z "/>
<path style="fill:rgb(0, 255, 0);fill-opacity:0;fill-rule:evenodd;stroke:rgb(255, 0, 138);stroke-width:1;" d="M 903.797, 534.901 L 915.913, 518.626 L 924.955, 506.329 L 932.007, 509.403 L 921.338, 523.87 L 929.295, 527.306 L 918.987, 541.23 L 903.797, 534.901 z "/>
<path style="fill:rgb(0, 0, 255);fill-opacity:0;fill-rule:evenodd;stroke:rgb(255, 0, 138);stroke-width:1;" d="M 171.248, 549.729 L 184.268, 531.826 L 201.808, 539.06 L 201.085, 539.964 L 188.608, 556.962 L 171.248, 549.729 z "/>
<path style="fill:rgb(255, 255, 0);fill-opacity:0;fill-rule:evenodd;stroke:rgb(255, 0, 138);stroke-width:1;" d="M 950.271, 471.971 L 951.899, 469.62 L 1017.9, 498.192 L 1010.67, 523.689 L 998.373, 518.264 L 1012.84, 498.553 L 950.271, 471.971 z "/>
<path style="fill:rgb(255, 0, 0);fill-opacity:0;fill-rule:evenodd;stroke:rgb(255, 0, 138);stroke-width:1;" d="M 593.309, 429.837 L 614.828, 400.362 L 625.316, 404.702 L 603.617, 434.177 L 593.309, 429.837 z "/>
<path style="fill:rgb(0, 255, 0);fill-opacity:0;fill-rule:evenodd;stroke:rgb(255, 0, 138);stroke-width:1;" d="M 729.476, 389.512 L 737.251, 378.843 L 765.823, 390.778 L 757.866, 401.627 L 729.476, 389.512 z "/>
<path style="fill:rgb(0, 0, 255);fill-opacity:0;fill-rule:evenodd;stroke:rgb(255, 0, 138);stroke-width:1;" d="M 771.248, 484.991 L 777.396, 476.673 L 813.562, 492.043 L 807.414, 500.362 L 771.248, 484.991 z "/>
<path style="fill:rgb(255, 255, 0);fill-opacity:0;fill-rule:evenodd;stroke:rgb(255, 0, 138);stroke-width:1;" d="M 354.43, 695.118 L 372.514, 670.344 L 384.629, 675.588 L 366.546, 700.181 L 354.43, 695.118 z "/>
<path style="fill:rgb(255, 0, 0);fill-opacity:0;fill-rule:evenodd;stroke:rgb(255, 0, 138);stroke-width:1;" d="M 154.611, 542.676 L 167.631, 524.774 L 184.268, 531.826 L 171.248, 549.729 L 154.611, 542.676 z "/>
<path style="fill:rgb(0, 255, 0);fill-opacity:0;fill-rule:evenodd;stroke:rgb(255, 0, 138);stroke-width:1;" d="M 828.391, 530.38 L 846.655, 505.244 L 858.228, 510.127 L 839.783, 535.262 L 828.391, 530.38 z "/>
<path style="fill:rgb(0, 0, 255);fill-opacity:0;fill-rule:evenodd;stroke:rgb(255, 0, 138);stroke-width:1;" d="M 977.396, 248.825 L 983.363, 240.145 L 1017.36, 253.707 L 1011.39, 262.387 L 977.396, 248.825 z "/>
<path style="fill:rgb(255, 255, 0);fill-opacity:0;fill-rule:evenodd;stroke:rgb(255, 0, 138);stroke-width:1;" d="M 997.107, 226.582 L 1003.98, 216.456 L 1033.27, 228.21 L 1026.22, 238.156 L 997.107, 226.582 z "/>
<path style="fill:rgb(255, 0, 0);fill-opacity:0;fill-rule:evenodd;stroke:rgb(255, 0, 138);stroke-width:1;" d="M 777.396, 476.673 L 783.183, 468.716 L 819.349, 484.268 L 813.562, 492.043 L 777.396, 476.673 z "/>
<path style="fill:rgb(0, 255, 0);fill-opacity:0;fill-rule:evenodd;stroke:rgb(255, 0, 138);stroke-width:1;" d="M 343.219, 690.416 L 350.452, 680.47 L 361.302, 665.642 L 372.514, 670.344 L 354.43, 695.118 L 343.219, 690.416 z "/>
<path style="fill:rgb(0, 0, 255);fill-opacity:0;fill-rule:evenodd;stroke:rgb(255, 0, 138);stroke-width:1;" d="M 139.241, 536.166 L 152.26, 518.264 L 167.631, 524.774 L 154.611, 542.676 L 139.241, 536.166 z "/>
<path style="fill:rgb(255, 255, 0);fill-opacity:0;fill-rule:evenodd;stroke:rgb(255, 0, 138);stroke-width:1;" d="M 208.861, 565.461 L 222.061, 547.378 L 237.251, 553.888 L 224.051, 571.971 L 208.861, 565.461 z "/>
<path style="fill:rgb(255, 0, 0);fill-opacity:0;fill-rule:evenodd;stroke:rgb(255, 0, 138);stroke-width:1;" d="M 123.87, 529.837 L 124.593, 528.933 L 131.646, 519.168 L 136.89, 511.935 L 152.26, 518.264 L 139.241, 536.166 L 123.87, 529.837 z "/>
<path style="fill:rgb(0, 255, 0);fill-opacity:0;fill-rule:evenodd;stroke:rgb(255, 0, 138);stroke-width:1;" d="M 759.494, 501.085 L 764.557, 494.033 L 800.723, 509.403 L 795.66, 516.456 L 759.494, 501.085 z "/>
<path style="fill:rgb(0, 0, 255);fill-opacity:0;fill-rule:evenodd;stroke:rgb(255, 0, 138);stroke-width:1;" d="M 509.765, 461.844 L 526.401, 439.06 L 537.251, 443.58 L 520.434, 466.365 L 509.765, 461.844 z "/>
<path style="fill:rgb(255, 255, 0);fill-opacity:0;fill-rule:evenodd;stroke:rgb(255, 0, 138);stroke-width:1;" d="M 480.108, 449.367 L 482.459, 446.112 L 495.479, 428.21 L 496.745, 426.582 L 507.414, 430.922 L 490.778, 453.888 L 480.108, 449.367 z "/>
<path style="fill:rgb(255, 0, 0);fill-opacity:0;fill-rule:evenodd;stroke:rgb(255, 0, 138);stroke-width:1;" d="M 520.434, 466.365 L 537.251, 443.58 L 547.559, 447.92 L 534.358, 466.004 L 530.922, 470.705 L 520.434, 466.365 z "/>
<path style="fill:rgb(0, 255, 0);fill-opacity:0;fill-rule:evenodd;stroke:rgb(255, 0, 138);stroke-width:1;" d="M 405.063, 716.637 L 424.412, 690.416 L 432.731, 694.033 L 421.881, 708.861 L 413.562, 720.072 L 405.063, 716.637 z "/>
<path style="fill:rgb(0, 0, 255);fill-opacity:0;fill-rule:evenodd;stroke:rgb(255, 0, 138);stroke-width:1;" d="M 896.022, 355.335 L 922.423, 320.253 L 924.955, 328.933 L 902.893, 358.228 L 900, 356.962 L 896.022, 355.335 z "/>
<path style="fill:rgb(255, 255, 0);fill-opacity:0;fill-rule:evenodd;stroke:rgb(255, 0, 138);stroke-width:1;" d="M 500.181, 457.866 L 516.998, 435.081 L 526.401, 439.06 L 509.765, 461.844 L 500.181, 457.866 z "/>
<path style="fill:rgb(255, 0, 0);fill-opacity:0;fill-rule:evenodd;stroke:rgb(255, 0, 138);stroke-width:1;" d="M 916.817, 642.134 L 923.87, 632.55 L 946.655, 642.134 L 939.602, 651.718 L 916.817, 642.134 z "/>
<path style="fill:rgb(0, 255, 0);fill-opacity:0;fill-rule:evenodd;stroke:rgb(255, 0, 138);stroke-width:1;" d="M 490.778, 453.888 L 507.414, 430.922 L 516.998, 435.081 L 500.181, 457.866 L 490.778, 453.888 z "/>
<path style="fill:rgb(0, 0, 255);fill-opacity:0;fill-rule:evenodd;stroke:rgb(255, 0, 138);stroke-width:1;" d="M 828.571, 206.329 L 832.731, 200.723 L 866.727, 214.647 L 872.514, 216.637 L 869.439, 220.976 L 864.919, 219.168 L 861.483, 217.722 L 860.398, 219.168 L 856.6, 219.892 L 851.537, 217.722 L 850.995, 215.19 L 851.899, 213.924 L 839.241, 208.68 L 838.156, 210.488 L 834.358, 211.212 L 829.295, 209.042 L 828.571, 206.329 z "/>
<path style="fill:rgb(255, 255, 0);fill-opacity:0;fill-rule:evenodd;stroke:rgb(255, 0, 138);stroke-width:1;" d="M 521.157, 651.175 L 530.741, 638.156 L 547.016, 644.846 L 537.432, 658.047 L 521.157, 651.175 z "/>
<path style="fill:rgb(255, 0, 0);fill-opacity:0;fill-rule:evenodd;stroke:rgb(255, 0, 138);stroke-width:1;" d="M 701.627, 377.758 L 709.403, 366.908 L 728.933, 375.226 L 720.976, 385.895 L 703.978, 378.662 L 701.627, 377.758 z "/>
<path style="fill:rgb(0, 255, 0);fill-opacity:0;fill-rule:evenodd;stroke:rgb(255, 0, 138);stroke-width:1;" d="M 450.452, 758.047 L 454.611, 752.441 L 490.235, 767.45 L 486.076, 773.237 L 450.452, 758.047 z "/>
<path style="fill:rgb(0, 0, 255);fill-opacity:0;fill-rule:evenodd;stroke:rgb(255, 0, 138);stroke-width:1;" d="M 509.584, 392.767 L 525.316, 371.429 L 534.72, 375.407 L 519.168, 396.745 L 509.584, 392.767 z "/>
<path style="fill:rgb(255, 255, 0);fill-opacity:0;fill-rule:evenodd;stroke:rgb(255, 0, 138);stroke-width:1;" d="M 646.474, 701.266 L 656.239, 688.065 L 671.609, 694.394 L 662.025, 707.776 L 646.474, 701.266 z "/>
<path style="fill:rgb(255, 0, 0);fill-opacity:0;fill-rule:evenodd;stroke:rgb(255, 0, 138);stroke-width:1;" d="M 500, 388.788 L 515.732, 367.269 L 525.316, 371.429 L 509.584, 392.767 L 500, 388.788 z "/>
<path style="fill:rgb(0, 255, 0);fill-opacity:0;fill-rule:evenodd;stroke:rgb(255, 0, 138);stroke-width:1;" d="M 188.608, 556.962 L 201.085, 539.964 L 213.02, 545.027 L 200.542, 562.025 L 188.608, 556.962 z "/>
<path style="fill:rgb(0, 0, 255);fill-opacity:0;fill-rule:evenodd;stroke:rgb(255, 0, 138);stroke-width:1;" d="M 490.597, 384.81 L 506.329, 363.291 L 515.732, 367.269 L 500, 388.788 L 490.597, 384.81 z "/>
<path style="fill:rgb(255, 255, 0);fill-opacity:0;fill-rule:evenodd;stroke:rgb(255, 0, 138);stroke-width:1;" d="M 482.098, 381.193 L 499.096, 357.866 L 507.595, 361.483 L 506.329, 363.291 L 490.597, 384.81 L 482.098, 381.193 z "/>
<path style="fill:rgb(255, 0, 0);fill-opacity:0;fill-rule:evenodd;stroke:rgb(255, 0, 138);stroke-width:1;" d="M 473.599, 377.577 L 479.747, 369.259 L 490.597, 354.25 L 499.096, 357.866 L 482.098, 381.193 L 473.599, 377.577 z "/>
<path style="fill:rgb(0, 255, 0);fill-opacity:0;fill-rule:evenodd;stroke:rgb(255, 0, 138);stroke-width:1;" d="M 105.063, 274.322 L 108.137, 270.163 L 156.42, 290.778 L 153.526, 294.756 L 105.063, 274.322 z "/>
<path style="fill:rgb(0, 0, 255);fill-opacity:0;fill-rule:evenodd;stroke:rgb(255, 0, 138);stroke-width:1;" d="M 852.08, 174.503 L 854.973, 169.62 L 858.228, 168.535 L 863.472, 170.524 L 864.738, 173.237 L 863.653, 174.684 L 876.311, 179.928 L 877.215, 178.481 L 880.47, 177.396 L 885.714, 179.385 L 886.98, 182.098 L 885.895, 183.725 L 889.873, 185.353 L 893.49, 186.799 L 890.778, 190.958 L 885.353, 188.427 L 852.08, 174.503 z "/>
<path style="fill:rgb(255, 255, 0);fill-opacity:0;fill-rule:evenodd;stroke:rgb(255, 0, 138);stroke-width:1;" d="M 409.403, 649.91 L 419.349, 636.528 L 433.635, 642.676 L 423.508, 656.058 L 409.403, 649.91 z "/>
<path style="fill:rgb(255, 0, 0);fill-opacity:0;fill-rule:evenodd;stroke:rgb(255, 0, 138);stroke-width:1;" d="M 186.98, 209.222 L 190.597, 204.34 L 220.976, 216.998 L 215.552, 224.774 L 214.105, 224.051 L 186.98, 209.222 z "/>
<path style="fill:rgb(0, 255, 0);fill-opacity:0;fill-rule:evenodd;stroke:rgb(255, 0, 138);stroke-width:1;" d="M 423.508, 656.058 L 433.635, 642.676 L 447.559, 648.825 L 437.432, 662.206 L 423.508, 656.058 z "/>
<path style="fill:rgb(0, 0, 255);fill-opacity:0;fill-rule:evenodd;stroke:rgb(255, 0, 138);stroke-width:1;" d="M 200.542, 562.025 L 213.02, 545.027 L 216.998, 539.421 L 225.316, 542.857 L 222.061, 547.378 L 208.861, 565.461 L 200.542, 562.025 z "/>
<path style="fill:rgb(255, 255, 0);fill-opacity:0;fill-rule:evenodd;stroke:rgb(255, 0, 138);stroke-width:1;" d="M 967.089, 409.946 L 971.609, 403.797 L 1001.27, 415.732 L 996.926, 422.061 L 967.089, 409.946 z "/>
<path style="fill:rgb(255, 0, 0);fill-opacity:0;fill-rule:evenodd;stroke:rgb(255, 0, 138);stroke-width:1;" d="M 225.678, 663.11 L 231.103, 655.696 L 252.08, 664.557 L 255.154, 665.823 L 249.729, 673.237 L 225.678, 663.11 z "/>
<path style="fill:rgb(0, 255, 0);fill-opacity:0;fill-rule:evenodd;stroke:rgb(255, 0, 138);stroke-width:1;" d="M 556.6, 564.014 L 572.875, 541.772 L 580.832, 545.027 L 567.269, 563.653 L 564.376, 567.45 L 556.6, 564.014 z "/>
<path style="fill:rgb(0, 0, 255);fill-opacity:0;fill-rule:evenodd;stroke:rgb(255, 0, 138);stroke-width:1;" d="M 893.309, 354.25 L 920.796, 316.998 L 1012.12, 354.43 L 1009.76, 372.514 L 1008.32, 371.971 L 1010.85, 355.335 L 921.881, 318.626 L 894.756, 354.792 L 893.309, 354.25 z "/>
<path style="fill:rgb(255, 255, 0);fill-opacity:0;fill-rule:evenodd;stroke:rgb(255, 0, 138);stroke-width:1;" d="M 889.15, 554.973 L 896.564, 544.665 L 911.754, 550.995 L 904.159, 561.302 L 889.15, 554.973 z "/>
<path style="fill:rgb(255, 0, 0);fill-opacity:0;fill-rule:evenodd;stroke:rgb(255, 0, 138);stroke-width:1;" d="M 894.756, 354.792 L 921.881, 318.626 L 1010.85, 355.335 L 1008.32, 371.971 L 1007.23, 371.609 L 1009.4, 356.239 L 922.423, 320.253 L 896.022, 355.335 L 894.756, 354.792 z "/>
<path style="fill:rgb(0, 255, 0);fill-opacity:0;fill-rule:evenodd;stroke:rgb(255, 0, 138);stroke-width:1;" d="M 896.564, 544.665 L 903.797, 534.901 L 918.987, 541.23 L 911.754, 550.995 L 896.564, 544.665 z "/>
<path style="fill:rgb(0, 0, 255);fill-opacity:0;fill-rule:evenodd;stroke:rgb(255, 0, 138);stroke-width:1;" d="M 866.184, 684.629 L 872.694, 675.407 L 888.969, 681.917 L 882.278, 691.32 L 866.184, 684.629 z "/>
<path style="fill:rgb(255, 255, 0);fill-opacity:0;fill-rule:evenodd;stroke:rgb(255, 0, 138);stroke-width:1;" d="M 834.72, 671.79 L 841.23, 662.387 L 857.143, 668.897 L 850.633, 678.3 L 834.72, 671.79 z "/>
<path style="fill:rgb(255, 0, 0);fill-opacity:0;fill-rule:evenodd;stroke:rgb(255, 0, 138);stroke-width:1;" d="M 850.633, 678.3 L 857.143, 668.897 L 872.694, 675.407 L 866.184, 684.629 L 850.633, 678.3 z "/>
<path style="fill:rgb(0, 255, 0);fill-opacity:0;fill-rule:evenodd;stroke:rgb(255, 0, 138);stroke-width:1;" d="M 600.542, 43.3996 L 601.808, 41.5913 L 607.957, 33.0922 L 618.626, 37.4322 L 612.477, 46.1121 L 606.691, 43.7613 L 605.425, 45.3888 L 600.542, 43.3996 z "/>
<path style="fill:rgb(0, 0, 255);fill-opacity:0;fill-rule:evenodd;stroke:rgb(255, 0, 138);stroke-width:1;" d="M 993.852, 210.488 L 1001.45, 199.638 L 1010.49, 203.255 L 1002.89, 214.105 L 993.852, 210.488 z "/>
<path style="fill:rgb(255, 255, 0);fill-opacity:0;fill-rule:evenodd;stroke:rgb(255, 0, 138);stroke-width:1;" d="M 977.215, 234.72 L 984.81, 223.87 L 993.852, 227.486 L 986.257, 238.336 L 977.215, 234.72 z "/>
<path style="fill:rgb(255, 0, 0);fill-opacity:0;fill-rule:evenodd;stroke:rgb(255, 0, 138);stroke-width:1;" d="M 997.83, 367.631 L 998.553, 359.132 L 1009.4, 356.239 L 1007.23, 371.609 L 997.83, 367.631 z "/>
<path style="fill:rgb(0, 255, 0);fill-opacity:0;fill-rule:evenodd;stroke:rgb(255, 0, 138);stroke-width:1;" d="M 562.568, 772.875 L 576.311, 754.611 L 595.66, 762.929 L 592.767, 763.11 L 589.693, 763.291 L 577.758, 758.409 L 567.45, 772.152 L 565.099, 772.514 L 562.568, 772.875 z "/>
<path style="fill:rgb(0, 0, 255);fill-opacity:0;fill-rule:evenodd;stroke:rgb(255, 0, 138);stroke-width:1;" d="M 886.98, 196.203 L 890.778, 190.958 L 893.49, 186.799 L 889.873, 185.353 L 890.416, 184.087 L 900.181, 188.065 L 897.107, 192.224 L 899.096, 193.128 L 900, 196.022 L 897.107, 199.819 L 893.852, 200.362 L 891.863, 199.458 L 892.405, 198.373 L 886.98, 196.203 z "/>
<path style="fill:rgb(255, 255, 0);fill-opacity:0;fill-rule:evenodd;stroke:rgb(255, 0, 138);stroke-width:1;" d="M 864.195, 220.615 L 864.919, 219.168 L 869.439, 220.976 L 872.514, 216.637 L 876.311, 211.392 L 881.374, 213.382 L 882.098, 212.477 L 884.087, 213.382 L 884.991, 216.094 L 882.098, 220.072 L 878.843, 220.434 L 876.854, 219.711 L 873.237, 224.412 L 864.195, 220.615 z "/>
<path style="fill:rgb(255, 0, 0);fill-opacity:0;fill-rule:evenodd;stroke:rgb(255, 0, 138);stroke-width:1;" d="M 917.902, 311.031 L 920.434, 307.414 L 943.219, 316.817 L 940.687, 320.253 L 917.902, 311.031 z "/>
<path style="fill:rgb(0, 255, 0);fill-opacity:0;fill-rule:evenodd;stroke:rgb(255, 0, 138);stroke-width:1;" d="M 998.373, 343.942 L 1000.9, 340.325 L 1023.69, 349.729 L 1021.16, 353.345 L 998.373, 343.942 z "/>
<path style="fill:rgb(0, 0, 255);fill-opacity:0;fill-rule:evenodd;stroke:rgb(255, 0, 138);stroke-width:1;" d="M 562.929, 50.9946 L 564.919, 48.4629 L 589.693, 58.5895 L 587.884, 61.302 L 579.024, 57.6854 L 577.577, 59.6745 L 570.344, 56.7812 L 571.79, 54.6112 L 562.929, 50.9946 z "/>
<path style="fill:rgb(255, 255, 0);fill-opacity:0;fill-rule:evenodd;stroke:rgb(255, 0, 138);stroke-width:1;" d="M 876.311, 211.392 L 886.98, 196.203 L 892.405, 198.373 L 891.863, 199.458 L 889.512, 202.532 L 884.268, 209.403 L 882.098, 212.477 L 881.374, 213.382 L 876.311, 211.392 z "/>
<path style="fill:rgb(255, 0, 0);fill-opacity:0;fill-rule:evenodd;stroke:rgb(255, 0, 138);stroke-width:1;" d="M 592.767, 763.11 L 595.66, 762.929 L 612.839, 770.163 L 597.468, 790.778 L 595.66, 789.873 L 610.307, 770.524 L 592.767, 763.11 z "/>
<path style="fill:rgb(0, 255, 0);fill-opacity:0;fill-rule:evenodd;stroke:rgb(255, 0, 138);stroke-width:1;" d="M 1053.71, 195.479 L 1057.32, 190.416 L 1063.11, 192.948 L 1067.09, 199.277 L 1066.91, 201.085 L 1053.71, 195.479 z "/>
<path style="fill:rgb(0, 0, 255);fill-opacity:0;fill-rule:evenodd;stroke:rgb(255, 0, 138);stroke-width:1;" d="M 981.555, 567.812 L 991.501, 553.707 L 995.118, 555.335 L 984.81, 569.259 L 981.555, 567.812 z "/>
<path style="fill:rgb(255, 255, 0);fill-opacity:0;fill-rule:evenodd;stroke:rgb(255, 0, 138);stroke-width:1;" d="M 978.119, 566.365 L 988.427, 552.441 L 991.501, 553.707 L 981.555, 567.812 L 978.119, 566.365 z "/>
<path style="fill:rgb(255, 0, 0);fill-opacity:0;fill-rule:evenodd;stroke:rgb(255, 0, 138);stroke-width:1;" d="M 621.338, 698.734 L 622.061, 697.83 L 626.04, 692.586 L 626.763, 691.501 L 634.901, 680.47 L 635.624, 679.385 L 639.783, 673.779 L 640.325, 672.875 L 641.772, 673.418 L 647.92, 676.13 L 647.197, 677.034 L 641.049, 674.503 L 636.89, 679.928 L 636.166, 681.013 L 628.029, 692.224 L 627.306, 693.128 L 623.327, 698.373 L 629.476, 700.904 L 628.752, 701.808 L 622.785, 699.277 L 621.338, 698.734 z "/>
<path style="fill:rgb(0, 255, 0);fill-opacity:0;fill-rule:evenodd;stroke:rgb(255, 0, 138);stroke-width:1;" d="M 980.832, 549.186 L 991.501, 534.539 L 994.575, 535.986 L 983.725, 550.452 L 980.832, 549.186 z "/>
<path style="fill:rgb(0, 0, 255);fill-opacity:0;fill-rule:evenodd;stroke:rgb(255, 0, 138);stroke-width:1;" d="M 941.591, 248.825 L 943.4, 246.474 L 951.537, 250.09 L 946.293, 256.239 L 943.761, 255.154 L 941.591, 248.825 z "/>
<path style="fill:rgb(255, 255, 0);fill-opacity:0;fill-rule:evenodd;stroke:rgb(255, 0, 138);stroke-width:1;" d="M 983.725, 550.452 L 994.575, 535.986 L 997.288, 537.071 L 986.438, 551.718 L 983.725, 550.452 z "/>
<path style="fill:rgb(255, 0, 0);fill-opacity:0;fill-rule:evenodd;stroke:rgb(255, 0, 138);stroke-width:1;" d="M 55.877, 648.825 L 62.2061, 640.325 L 64.557, 639.421 L 66.9078, 636.166 L 65.642, 635.624 L 69.0778, 630.922 L 72.6944, 632.55 L 76.8535, 626.944 L 73.2369, 625.497 L 83.1826, 611.935 L 135.805, 634.358 L 132.188, 638.517 L 128.933, 637.071 L 125.859, 641.41 L 128.571, 642.495 L 104.882, 669.62 L 55.877, 648.825 z M 79.7468, 635.624 L 86.6184, 638.517 L 90.5967, 632.911 L 83.5443, 630.018 L 79.7468, 635.624 z "/>
<path style="fill:rgb(0, 255, 0);fill-opacity:0;fill-rule:evenodd;stroke:rgb(255, 0, 138);stroke-width:1;" d="M 46.4738, 200.723 L 75.5877, 160.579 L 90.5967, 166.727 L 94.3942, 161.664 L 108.68, 167.631 L 75.5877, 213.02 L 46.4738, 200.723 z "/>
<path style="fill:rgb(0, 0, 255);fill-opacity:0;fill-rule:evenodd;stroke:rgb(255, 0, 138);stroke-width:1;" d="M 53.3454, 547.92 L 61.6637, 536.528 L 119.53, 561.121 L 111.212, 572.514 L 104.521, 569.62 L 94.0325, 565.28 L 92.7667, 563.291 L 91.1392, 562.568 L 69.0778, 553.345 L 65.4611, 553.165 L 53.3454, 547.92 z "/>
<path style="fill:rgb(255, 255, 0);fill-opacity:0;fill-rule:evenodd;stroke:rgb(255, 0, 138);stroke-width:1;" d="M 63.2911, 356.42 L 71.6094, 345.208 L 80.4702, 349.005 L 116.094, 364.014 L 107.776, 375.407 L 63.2911, 356.42 z "/>
<path style="fill:rgb(255, 0, 0);fill-opacity:0;fill-rule:evenodd;stroke:rgb(255, 0, 138);stroke-width:1;" d="M 45.208, 559.132 L 53.3454, 547.92 L 65.4611, 553.165 L 66.0036, 555.154 L 78.3002, 560.398 L 77.2152, 561.844 L 83.1826, 564.376 L 84.2676, 562.929 L 90.9584, 565.823 L 94.0325, 565.28 L 104.521, 569.62 L 96.3834, 580.832 L 85.5335, 576.311 L 85.3526, 574.503 L 77.9385, 571.429 L 78.6618, 570.344 L 73.2369, 567.993 L 72.5136, 569.078 L 60.0362, 563.834 L 57.1429, 564.195 L 45.208, 559.132 z "/>
<path style="fill:rgb(0, 255, 0);fill-opacity:0;fill-rule:evenodd;stroke:rgb(255, 0, 138);stroke-width:1;" d="M 69.2586, 144.665 L 79.0235, 131.103 L 82.821, 132.731 L 86.0759, 128.391 L 86.9801, 127.125 L 83.1826, 125.678 L 96.3834, 107.414 L 110.127, 113.201 L 96.9259, 131.284 L 92.7667, 129.476 L 88.6076, 135.262 L 92.7667, 136.89 L 83.0018, 150.452 L 69.2586, 144.665 z "/>
<path style="fill:rgb(0, 0, 255);fill-opacity:0;fill-rule:evenodd;stroke:rgb(255, 0, 138);stroke-width:1;" d="M 65.8228, 123.146 L 81.736, 101.266 L 96.3834, 107.414 L 83.1826, 125.678 L 80.4702, 129.295 L 65.8228, 123.146 z "/>
<path style="fill:rgb(255, 255, 0);fill-opacity:0;fill-rule:evenodd;stroke:rgb(255, 0, 138);stroke-width:1;" d="M 160.94, 43.7613 L 167.631, 34.7197 L 192.224, 1.26582 L 277.396, 37.613 L 254.43, 68.5353 L 245.931, 80.1085 L 160.94, 43.7613 z "/>
<path style="fill:rgb(255, 0, 0);fill-opacity:0;fill-rule:evenodd;stroke:rgb(255, 0, 138);stroke-width:1;" d="M 609.042, 50.8137 L 612.477, 46.1121 L 631.103, 20.0723 L 632.731, 17.7215 L 711.573, 50.9946 L 687.523, 83.906 L 679.928, 80.8318 L 676.673, 81.0127 L 673.779, 79.7468 L 671.79, 77.2152 L 667.089, 75.226 L 666.184, 73.0561 L 669.62, 68.3544 L 660.217, 64.3761 L 659.675, 63.2911 L 660.217, 62.387 L 653.526, 59.4937 L 654.792, 62.5678 L 652.984, 63.1103 L 651.175, 62.5678 L 643.4, 73.2369 L 643.942, 74.3219 L 642.315, 76.4919 L 632.731, 72.5136 L 634.358, 70.1627 L 636.528, 70.3436 L 644.123, 59.6745 L 641.953, 58.5895 L 641.23, 56.962 L 646.474, 56.6004 L 638.879, 53.3454 L 636.347, 54.2495 L 627.486, 50.6329 L 624.051, 55.3345 L 621.338, 56.0579 L 609.042, 50.8137 z "/>
<path style="fill:rgb(0, 255, 0);fill-opacity:0;fill-rule:evenodd;stroke:rgb(255, 0, 138);stroke-width:1;" d="M 423.146, 42.3146 L 454.069, 0 L 465.099, 4.5208 L 436.166, 44.3038 L 433.273, 43.038 L 431.284, 45.7505 L 423.146, 42.3146 z "/>
<path style="fill:rgb(0, 0, 255);fill-opacity:0;fill-rule:evenodd;stroke:rgb(255, 0, 138);stroke-width:1;" d="M 565.461, 26.7631 L 571.609, 18.0832 L 583.183, 22.7848 L 576.854, 31.4647 L 565.461, 26.7631 z "/>
<path style="fill:rgb(255, 255, 0);fill-opacity:0;fill-rule:evenodd;stroke:rgb(255, 0, 138);stroke-width:1;" d="M 1020.07, 142.857 L 1030.56, 128.752 L 1036.71, 130.199 L 1043.94, 131.465 L 1055.15, 132.188 L 1068.17, 132.731 L 1074.86, 132.731 L 1070.16, 164.376 L 1020.07, 142.857 z "/>
<path style="fill:rgb(255, 0, 0);fill-opacity:0;fill-rule:evenodd;stroke:rgb(255, 0, 138);stroke-width:1;" d="M 542.134, 79.9277 L 562.929, 50.9946 L 564.919, 48.4629 L 567.45, 44.6655 L 565.642, 43.9421 L 566.004, 43.3996 L 569.078, 39.2405 L 570.886, 39.9638 L 576.854, 31.4647 L 565.461, 26.7631 L 571.609, 18.0832 L 584.268, 0.542495 L 590.597, 3.25497 L 592.405, 0.904159 L 599.096, 3.61664 L 598.011, 5.06329 L 618.987, 13.9241 L 620.072, 12.4774 L 625.859, 15.009 L 624.051, 17.3599 L 631.103, 20.0723 L 612.477, 46.1121 L 606.691, 43.7613 L 605.425, 45.3888 L 600.542, 43.3996 L 595.66, 50.2712 L 597.649, 51.1754 L 594.213, 55.877 L 592.224, 55.1537 L 589.693, 58.5895 L 587.884, 61.302 L 585.714, 64.0145 L 566.727, 90.2351 L 542.134, 79.9277 z "/>
<path style="fill:rgb(0, 255, 0);fill-opacity:0;fill-rule:evenodd;stroke:rgb(255, 0, 138);stroke-width:1;" d="M 564.919, 48.4629 L 567.45, 44.6655 L 570.886, 39.9638 L 576.854, 31.4647 L 583.183, 22.7848 L 571.609, 18.0832 L 584.268, 0.542495 L 590.597, 3.25497 L 592.586, 3.9783 L 590.958, 6.14828 L 621.338, 18.6257 L 622.604, 16.6365 L 624.051, 17.3599 L 631.103, 20.0723 L 618.626, 37.4322 L 607.957, 33.0922 L 601.808, 41.5913 L 600.542, 43.3996 L 595.66, 50.2712 L 592.224, 55.1537 L 589.693, 58.5895 L 564.919, 48.4629 z "/>
<path style="fill:rgb(0, 0, 255);fill-opacity:0;fill-rule:evenodd;stroke:rgb(255, 0, 138);stroke-width:1;" d="M 579.204, 32.3689 L 587.523, 20.7957 L 610.127, 30.1989 L 607.957, 33.0922 L 601.808, 41.5913 L 579.204, 32.3689 z "/>
<path style="fill:rgb(255, 255, 0);fill-opacity:0;fill-rule:evenodd;stroke:rgb(255, 0, 138);stroke-width:1;" d="M 986.257, 187.884 L 996.926, 173.418 L 1003.8, 176.492 L 1009.04, 169.982 L 1057.32, 190.416 L 1053.71, 195.479 L 1066.91, 201.085 L 1061.84, 232.731 L 1045.57, 226.04 L 1053.16, 215.19 L 1042.68, 211.031 L 1003.62, 195.298 L 986.257, 187.884 z "/>
<path style="fill:rgb(255, 0, 0);fill-opacity:0;fill-rule:evenodd;stroke:rgb(255, 0, 138);stroke-width:1;" d="M 0, 260.217 L 7.77577, 249.186 L 19.7107, 232.911 L 58.047, 249.186 L 108.137, 270.163 L 156.42, 290.778 L 153.526, 294.756 L 129.656, 327.306 L 113.924, 320.615 L 107.233, 317.722 L 97.2875, 313.562 L 88.6076, 309.946 L 24.2315, 283.002 L 29.4756, 275.949 L 0, 260.217 z "/>
<path style="fill:rgb(0, 255, 0);fill-opacity:0;fill-rule:evenodd;stroke:rgb(255, 0, 138);stroke-width:1;" d="M 0, 260.217 L 7.77577, 249.186 L 19.7107, 232.911 L 58.047, 249.186 L 39.9638, 274.322 L 81.3743, 291.501 L 82.6401, 289.693 L 91.3201, 293.309 L 107.052, 300.362 L 103.074, 305.967 L 97.2875, 313.562 L 88.6076, 309.946 L 24.2315, 283.002 L 29.4756, 275.949 L 0, 260.217 z "/>
<path style="fill:rgb(0, 0, 255);fill-opacity:0;fill-rule:evenodd;stroke:rgb(255, 0, 138);stroke-width:1;" d="M 39.9638, 274.322 L 58.047, 249.186 L 108.137, 270.163 L 105.063, 274.322 L 91.3201, 293.309 L 82.6401, 289.693 L 81.3743, 291.501 L 39.9638, 274.322 z "/>
</svg>