<?xml version="1.0" encoding="iso-8859-1" standalone="no"?>
<!DOCTYPE svg PUBLIC "-//W3C//DTD SVG 1.0//EN" "http://www.w3.org/TR/2001/REC-SVG-20010904/DTD/svg10.dtd">
<svg xmlns="http://www.w3.org/2000/svg" width="1073" height="800">
<path style="fill:rgb(255, 0, 0);fill-opacity:0;fill-rule:evenodd;stroke:rgb(245, 0, 255);stroke-width:1;" d="M 224.022, 114.906 L 266.365, 65.5055 L 270.165, 67.496 L 269.26, 68.4008 L 376.204, 121.24 L 376.747, 120.516 L 380.366, 122.325 L 338.566, 171.002 L 324.451, 173.535 L 228.003, 125.763 L 224.022, 114.906 z "/>
<path style="fill:rgb(0, 255, 0);fill-opacity:0;fill-rule:evenodd;stroke:rgb(245, 0, 255);stroke-width:1;" d="M 184.755, 421.443 L 228.184, 369.69 L 338.023, 422.891 L 299.118, 469.396 L 184.755, 421.443 z "/>
<path style="fill:rgb(0, 0, 255);fill-opacity:0;fill-rule:evenodd;stroke:rgb(245, 0, 255);stroke-width:1;" d="M 523.321, 398.824 L 602.217, 302.737 L 602.398, 302.556 L 603.121, 302.375 L 642.931, 316.309 L 643.655, 317.032 L 643.836, 317.756 L 595.883, 413.843 L 584.845, 435.919 L 523.321, 398.824 z "/>
<path style="fill:rgb(255, 255, 0);fill-opacity:0;fill-rule:evenodd;stroke:rgb(245, 0, 255);stroke-width:1;" d="M 131.192, 484.053 L 165.573, 442.977 L 280.299, 491.292 L 241.755, 537.616 L 131.192, 484.053 z M 184.936, 491.292 L 210.088, 501.425 L 215.698, 493.463 L 190.545, 483.33 L 184.936, 491.292 z "/>
<path style="fill:rgb(255, 0, 0);fill-opacity:0;fill-rule:evenodd;stroke:rgb(245, 0, 255);stroke-width:1;" d="M 245.917, 348.518 L 281.203, 306.356 L 383.443, 368.604 L 353.223, 404.614 L 317.575, 385.614 L 319.928, 383.081 L 294.413, 368.062 L 290.432, 372.223 L 245.917, 348.518 z M 306.356, 351.052 L 332.233, 365.709 L 336.214, 362.09 L 311.423, 346.528 L 306.356, 351.052 z "/>
<path style="fill:rgb(0, 255, 0);fill-opacity:0;fill-rule:evenodd;stroke:rgb(245, 0, 255);stroke-width:1;" d="M 281.384, 306.175 L 311.242, 270.346 L 415.834, 330.061 L 383.805, 368.242 L 281.384, 306.175 z M 336.394, 319.023 L 361.728, 333.861 L 370.776, 324.994 L 345.261, 310.156 L 336.394, 319.023 z "/>
<path style="fill:rgb(0, 0, 255);fill-opacity:0;fill-rule:evenodd;stroke:rgb(245, 0, 255);stroke-width:1;" d="M 65.1436, 562.95 L 82.6962, 542.14 L 85.7724, 543.587 L 126.849, 563.492 L 138.792, 569.283 L 147.116, 559.33 L 175.164, 572.902 L 179.507, 567.654 L 205.745, 580.321 L 161.954, 632.798 L 113.278, 609.274 L 125.944, 594.074 L 119.792, 591.178 L 123.773, 586.474 L 114.001, 581.769 L 111.106, 585.207 L 108.754, 584.121 L 65.1436, 562.95 z "/>
<path style="fill:rgb(255, 255, 0);fill-opacity:0;fill-rule:evenodd;stroke:rgb(245, 0, 255);stroke-width:1;" d="M 704.456, 268.898 L 724.723, 227.641 L 754.58, 236.146 L 753.676, 238.136 L 782.266, 246.279 L 780.819, 249.898 L 816.648, 259.308 L 797.829, 302.556 L 704.456, 268.898 z "/>
<path style="fill:rgb(255, 0, 0);fill-opacity:0;fill-rule:evenodd;stroke:rgb(245, 0, 255);stroke-width:1;" d="M 471.387, 462.158 L 513.368, 411.129 L 577.426, 448.948 L 555.53, 492.739 L 533.997, 483.691 L 506.311, 472.11 L 503.777, 475.549 L 471.387, 462.158 z M 516.082, 468.31 L 525.673, 472.472 L 533.454, 461.615 L 523.863, 457.634 L 516.082, 468.31 z "/>
<path style="fill:rgb(0, 255, 0);fill-opacity:0;fill-rule:evenodd;stroke:rgb(245, 0, 255);stroke-width:1;" d="M 885.411, 333.137 L 895.001, 309.07 L 914.182, 313.413 L 924.497, 287.356 L 917.439, 285.727 L 930.106, 253.698 L 934.63, 254.784 L 939.154, 243.565 L 974.078, 252.613 L 934.63, 351.776 L 885.411, 333.137 z "/>
<path style="fill:rgb(0, 0, 255);fill-opacity:0;fill-rule:evenodd;stroke:rgb(245, 0, 255);stroke-width:1;" d="M 376.928, 421.624 L 430.491, 357.204 L 475.91, 384.528 L 425.424, 444.967 L 424.519, 444.605 L 378.557, 422.348 L 376.928, 421.624 z "/>
<path style="fill:rgb(255, 255, 0);fill-opacity:0;fill-rule:evenodd;stroke:rgb(245, 0, 255);stroke-width:1;" d="M 567.112, 547.387 L 584.845, 507.397 L 616.15, 515.359 L 615.245, 517.53 L 679.122, 533.997 L 662.294, 571.816 L 611.083, 558.788 L 608.007, 565.845 L 595.883, 562.769 L 599.14, 555.711 L 567.112, 547.387 z "/>
<path style="fill:rgb(255, 0, 0);fill-opacity:0;fill-rule:evenodd;stroke:rgb(245, 0, 255);stroke-width:1;" d="M 787.876, 422.167 L 808.686, 374.757 L 910.201, 410.948 L 893.734, 451.301 L 872.201, 445.329 L 881.068, 426.872 L 847.048, 417.462 L 828.772, 412.576 L 820.086, 431.034 L 787.876, 422.167 z "/>
<path style="fill:rgb(0, 255, 0);fill-opacity:0;fill-rule:evenodd;stroke:rgb(245, 0, 255);stroke-width:1;" d="M 388.509, 182.221 L 417.1, 148.383 L 528.387, 195.793 L 527.482, 196.879 L 516.082, 210.45 L 514.454, 211.536 L 512.463, 212.079 L 511.558, 212.26 L 509.387, 212.26 L 499.073, 209.726 L 501.425, 204.298 L 487.311, 200.679 L 484.958, 206.107 L 388.509, 182.221 z "/>
<path style="fill:rgb(0, 0, 255);fill-opacity:0;fill-rule:evenodd;stroke:rgb(245, 0, 255);stroke-width:1;" d="M 328.794, 481.882 L 378.557, 422.348 L 424.519, 444.605 L 376.747, 501.787 L 328.794, 481.882 z "/>
<path style="fill:rgb(255, 255, 0);fill-opacity:0;fill-rule:evenodd;stroke:rgb(245, 0, 255);stroke-width:1;" d="M 341.461, 672.246 L 360.823, 623.569 L 395.748, 631.712 L 398.643, 624.293 L 424.881, 630.265 L 402.624, 686.361 L 341.461, 672.246 z "/>
<path style="fill:rgb(255, 0, 0);fill-opacity:0;fill-rule:evenodd;stroke:rgb(245, 0, 255);stroke-width:1;" d="M 786.971, 227.098 L 792.038, 216.241 L 787.695, 214.974 L 803.8, 182.04 L 812.667, 164.126 L 827.505, 168.469 L 828.591, 166.478 L 845.239, 171.364 L 844.334, 173.173 L 860.982, 177.878 L 833.658, 239.584 L 790.771, 228.184 L 786.971, 227.098 z "/>
<path style="fill:rgb(0, 255, 0);fill-opacity:0;fill-rule:evenodd;stroke:rgb(245, 0, 255);stroke-width:1;" d="M 321.194, 258.584 L 338.566, 237.774 L 344.718, 241.031 L 387.786, 263.832 L 383.986, 267.813 L 384.89, 272.156 L 403.348, 282.651 L 408.957, 282.289 L 413.119, 278.127 L 444.243, 296.042 L 425.243, 318.842 L 394.481, 301.289 L 391.586, 304.185 L 366.252, 289.708 L 369.69, 286.27 L 321.194, 258.584 z "/>
<path style="fill:rgb(0, 0, 255);fill-opacity:0;fill-rule:evenodd;stroke:rgb(245, 0, 255);stroke-width:1;" d="M 363.538, 615.426 L 380.728, 572.359 L 405.157, 543.406 L 446.415, 559.33 L 439.539, 576.521 L 436.824, 583.216 L 435.015, 582.855 L 418.729, 623.569 L 410.224, 622.122 L 394.119, 618.503 L 392.671, 622.122 L 363.538, 615.426 z M 396.471, 577.969 L 416.738, 583.036 L 421.805, 571.454 L 424.7, 566.388 L 409.862, 561.14 L 396.471, 577.969 z M 384.528, 602.941 L 408.052, 608.731 L 413.481, 595.883 L 390.138, 590.093 L 384.528, 602.941 z "/>
<path style="fill:rgb(255, 255, 0);fill-opacity:0;fill-rule:evenodd;stroke:rgb(245, 0, 255);stroke-width:1;" d="M 743.904, 521.692 L 768.876, 465.053 L 782.628, 468.853 L 792.581, 471.568 L 815.2, 477.72 L 820.81, 479.168 L 796.019, 535.806 L 790.59, 534.359 L 743.904, 521.692 z "/>
<path style="fill:rgb(255, 0, 0);fill-opacity:0;fill-rule:evenodd;stroke:rgb(245, 0, 255);stroke-width:1;" d="M 430.853, 616.874 L 452.205, 562.226 L 510.111, 586.112 L 492.015, 629.903 L 478.987, 627.188 L 455.282, 622.122 L 439.539, 618.684 L 430.853, 616.874 z "/>
<path style="fill:rgb(0, 255, 0);fill-opacity:0;fill-rule:evenodd;stroke:rgb(245, 0, 255);stroke-width:1;" d="M 75.2771, 295.137 L 93.5535, 273.784 L 130.83, 292.242 L 157.069, 305.27 L 202.126, 327.347 L 184.031, 348.699 L 75.2771, 295.137 z "/>
<path style="fill:rgb(0, 0, 255);fill-opacity:0;fill-rule:evenodd;stroke:rgb(245, 0, 255);stroke-width:1;" d="M 724.723, 227.641 L 763.085, 150.011 L 779.552, 154.535 L 770.504, 172.631 L 803.8, 182.04 L 787.695, 214.974 L 787.333, 215.698 L 767.428, 210.088 L 754.58, 236.146 L 724.723, 227.641 z "/>
<path style="fill:rgb(255, 255, 0);fill-opacity:0;fill-rule:evenodd;stroke:rgb(245, 0, 255);stroke-width:1;" d="M 384.89, 737.028 L 402.262, 690.161 L 404.433, 690.523 L 463.967, 703.37 L 445.691, 750.057 L 399.729, 740.285 L 384.89, 737.028 z "/>
<path style="fill:rgb(255, 0, 0);fill-opacity:0;fill-rule:evenodd;stroke:rgb(245, 0, 255);stroke-width:1;" d="M 454.92, 103.687 L 472.653, 82.8772 L 578.331, 136.983 L 561.502, 156.707 L 454.92, 103.687 z "/>
<path style="fill:rgb(0, 255, 0);fill-opacity:0;fill-rule:evenodd;stroke:rgb(245, 0, 255);stroke-width:1;" d="M 472.653, 82.8772 L 490.568, 61.7055 L 530.378, 82.1534 L 526.759, 86.3153 L 552.454, 99.344 L 556.073, 95.1821 L 596.245, 115.811 L 578.331, 136.983 L 472.653, 82.8772 z "/>
<path style="fill:rgb(0, 0, 255);fill-opacity:0;fill-rule:evenodd;stroke:rgb(245, 0, 255);stroke-width:1;" d="M 93.5535, 273.784 L 111.287, 252.793 L 220.041, 306.537 L 202.126, 327.347 L 157.069, 305.27 L 161.23, 300.385 L 134.811, 287.356 L 130.83, 292.242 L 93.5535, 273.784 z "/>
<path style="fill:rgb(255, 255, 0);fill-opacity:0;fill-rule:evenodd;stroke:rgb(245, 0, 255);stroke-width:1;" d="M 91.7439, 762.361 L 124.316, 724.18 L 181.316, 748.428 L 163.764, 768.876 L 154.897, 779.19 L 151.097, 783.714 L 141.868, 779.009 L 136.983, 784.8 L 91.7439, 762.361 z "/>
<path style="fill:rgb(255, 0, 0);fill-opacity:0;fill-rule:evenodd;stroke:rgb(245, 0, 255);stroke-width:1;" d="M 581.588, 661.751 L 593.35, 631.712 L 609.274, 635.331 L 607.826, 639.131 L 636.417, 645.646 L 637.865, 641.665 L 655.236, 645.646 L 628.998, 712.237 L 598.055, 705.18 L 606.198, 684.37 L 619.588, 687.446 L 625.741, 671.884 L 603.121, 666.637 L 601.674, 670.256 L 595.34, 668.808 L 596.788, 665.189 L 581.588, 661.751 z "/>
<path style="fill:rgb(0, 255, 0);fill-opacity:0;fill-rule:evenodd;stroke:rgb(245, 0, 255);stroke-width:1;" d="M 228.184, 369.69 L 245.917, 348.518 L 290.432, 372.223 L 286.994, 376.024 L 313.956, 389.595 L 317.575, 385.614 L 353.223, 404.614 L 338.023, 422.891 L 228.184, 369.69 z "/>
<path style="fill:rgb(0, 0, 255);fill-opacity:0;fill-rule:evenodd;stroke:rgb(245, 0, 255);stroke-width:1;" d="M 490.568, 61.7055 L 507.758, 41.4386 L 613.436, 95.544 L 596.245, 115.811 L 556.073, 95.1821 L 560.235, 90.4773 L 534.721, 77.4485 L 530.378, 82.1534 L 490.568, 61.7055 z "/>
<path style="fill:rgb(255, 255, 0);fill-opacity:0;fill-rule:evenodd;stroke:rgb(245, 0, 255);stroke-width:1;" d="M 160.688, 195.069 L 174.44, 178.964 L 234.517, 208.641 L 238.136, 204.298 L 286.632, 228.365 L 269.26, 248.632 L 160.688, 195.069 z "/>
<path style="fill:rgb(255, 0, 0);fill-opacity:0;fill-rule:evenodd;stroke:rgb(245, 0, 255);stroke-width:1;" d="M 833.477, 68.7627 L 864.239, 33.1147 L 918.525, 60.0769 L 887.763, 95.7249 L 833.477, 68.7627 z "/>
<path style="fill:rgb(0, 255, 0);fill-opacity:0;fill-rule:evenodd;stroke:rgb(245, 0, 255);stroke-width:1;" d="M 919.068, 228.546 L 924.678, 216.06 L 933.725, 195.25 L 990.907, 209.907 L 974.078, 252.613 L 939.154, 243.565 L 923.773, 239.765 L 927.754, 230.717 L 924.859, 229.993 L 919.068, 228.546 z "/>
<path style="fill:rgb(0, 0, 255);fill-opacity:0;fill-rule:evenodd;stroke:rgb(245, 0, 255);stroke-width:1;" d="M 665.189, 68.4008 L 684.732, 45.7815 L 680.208, 43.61 L 695.77, 25.5146 L 741.552, 48.1339 L 709.704, 90.4773 L 665.189, 68.4008 z "/>
<path style="fill:rgb(255, 255, 0);fill-opacity:0;fill-rule:evenodd;stroke:rgb(245, 0, 255);stroke-width:1;" d="M 799.095, 772.314 L 821.172, 715.313 L 824.248, 716.037 L 876.182, 737.571 L 863.877, 767.428 L 857.363, 765.981 L 856.639, 767.79 L 848.496, 765.981 L 852.839, 753.857 L 841.981, 751.685 L 838, 753.314 L 836.01, 750.418 L 831.305, 749.514 L 825.696, 765.076 L 839.086, 767.79 L 834.924, 779.733 L 799.095, 772.314 z "/>
<path style="fill:rgb(255, 0, 0);fill-opacity:0;fill-rule:evenodd;stroke:rgb(245, 0, 255);stroke-width:1;" d="M 428.138, 135.354 L 444.605, 115.992 L 486.949, 137.706 L 484.053, 140.964 L 485.139, 144.583 L 488.577, 146.211 L 500.339, 151.278 L 505.768, 150.916 L 507.939, 148.564 L 550.283, 170.097 L 536.349, 186.383 L 428.138, 135.354 z "/>
<path style="fill:rgb(0, 255, 0);fill-opacity:0;fill-rule:evenodd;stroke:rgb(245, 0, 255);stroke-width:1;" d="M 121.963, 494.911 L 131.192, 484.053 L 241.755, 537.616 L 223.298, 559.511 L 168.288, 532.73 L 177.516, 521.873 L 121.963, 494.911 z "/>
<path style="fill:rgb(0, 0, 255);fill-opacity:0;fill-rule:evenodd;stroke:rgb(245, 0, 255);stroke-width:1;" d="M 912.916, 643.836 L 929.563, 604.026 L 935.535, 605.293 L 986.202, 615.607 L 985.659, 617.236 L 972.269, 654.513 L 971.726, 655.96 L 916.173, 644.56 L 912.916, 643.836 z "/>
<path style="fill:rgb(255, 255, 0);fill-opacity:0;fill-rule:evenodd;stroke:rgb(245, 0, 255);stroke-width:1;" d="M 912.916, 643.836 L 929.563, 604.026 L 935.535, 605.293 L 986.202, 615.607 L 985.659, 617.236 L 982.04, 616.693 L 969.012, 653.789 L 972.269, 654.513 L 971.726, 655.96 L 916.173, 644.56 L 912.916, 643.836 z "/>
<path style="fill:rgb(255, 0, 0);fill-opacity:0;fill-rule:evenodd;stroke:rgb(245, 0, 255);stroke-width:1;" d="M 95.363, 526.759 L 121.963, 494.911 L 177.516, 521.873 L 168.288, 532.73 L 158.516, 528.025 L 140.964, 549.016 L 139.516, 548.292 L 98.6202, 528.387 L 95.363, 526.759 z "/>
<path style="fill:rgb(0, 255, 0);fill-opacity:0;fill-rule:evenodd;stroke:rgb(245, 0, 255);stroke-width:1;" d="M 269.26, 68.4008 L 270.165, 67.496 L 281.384, 54.2864 L 388.147, 107.306 L 376.747, 120.516 L 376.204, 121.24 L 269.26, 68.4008 z "/>
<path style="fill:rgb(0, 0, 255);fill-opacity:0;fill-rule:evenodd;stroke:rgb(245, 0, 255);stroke-width:1;" d="M 467.225, 780.638 L 481.158, 745.171 L 493.825, 748.066 L 536.168, 757.657 L 522.054, 793.305 L 513.911, 791.314 L 498.53, 787.876 L 482.425, 784.076 L 467.225, 780.638 z "/>
<path style="fill:rgb(255, 255, 0);fill-opacity:0;fill-rule:evenodd;stroke:rgb(245, 0, 255);stroke-width:1;" d="M 279.575, 53.5625 L 291.88, 39.2671 L 338.566, 62.4293 L 335.49, 66.0484 L 351.052, 73.6485 L 354.128, 70.0294 L 400.271, 93.0106 L 388.147, 107.306 L 281.384, 54.2864 L 279.575, 53.5625 z "/>
<path style="fill:rgb(255, 0, 0);fill-opacity:0;fill-rule:evenodd;stroke:rgb(245, 0, 255);stroke-width:1;" d="M 873.287, 226.736 L 890.658, 186.745 L 895.544, 185.659 L 933.725, 195.25 L 924.678, 216.06 L 922.144, 215.336 L 916.716, 228.003 L 919.068, 228.546 L 924.859, 229.993 L 921.059, 238.679 L 905.496, 234.879 L 898.077, 232.888 L 888.125, 230.355 L 873.287, 226.736 z "/>
<path style="fill:rgb(0, 255, 0);fill-opacity:0;fill-rule:evenodd;stroke:rgb(245, 0, 255);stroke-width:1;" d="M 131.916, 228.727 L 142.592, 216.06 L 251.346, 269.803 L 240.489, 282.47 L 131.916, 228.727 z "/>
<path style="fill:rgb(0, 0, 255);fill-opacity:0;fill-rule:evenodd;stroke:rgb(245, 0, 255);stroke-width:1;" d="M 770.504, 121.42 L 803.257, 83.2391 L 837.458, 100.249 L 821.172, 135.173 L 770.504, 121.42 z "/>
<path style="fill:rgb(255, 255, 0);fill-opacity:0;fill-rule:evenodd;stroke:rgb(245, 0, 255);stroke-width:1;" d="M 140.964, 549.016 L 158.516, 528.025 L 168.288, 532.73 L 223.298, 559.511 L 205.745, 580.321 L 179.507, 567.654 L 140.964, 549.016 z "/>
<path style="fill:rgb(255, 0, 0);fill-opacity:0;fill-rule:evenodd;stroke:rgb(245, 0, 255);stroke-width:1;" d="M 614.703, 448.405 L 630.084, 416.919 L 660.484, 425.605 L 683.465, 432.119 L 668.084, 463.425 L 614.703, 448.405 z "/>
<path style="fill:rgb(0, 255, 0);fill-opacity:0;fill-rule:evenodd;stroke:rgb(245, 0, 255);stroke-width:1;" d="M 444.605, 115.992 L 454.92, 103.687 L 561.502, 156.707 L 550.283, 170.097 L 507.939, 148.564 L 508.844, 147.478 L 506.673, 144.221 L 495.634, 138.43 L 492.015, 136.621 L 486.949, 137.706 L 444.605, 115.992 z "/>
<path style="fill:rgb(0, 0, 255);fill-opacity:0;fill-rule:evenodd;stroke:rgb(245, 0, 255);stroke-width:1;" d="M 111.287, 252.793 L 121.601, 240.85 L 230.355, 294.413 L 220.041, 306.537 L 111.287, 252.793 z "/>
<path style="fill:rgb(255, 255, 0);fill-opacity:0;fill-rule:evenodd;stroke:rgb(245, 0, 255);stroke-width:1;" d="M 121.601, 240.85 L 131.916, 228.727 L 240.489, 282.47 L 230.355, 294.413 L 121.601, 240.85 z "/>
<path style="fill:rgb(255, 0, 0);fill-opacity:0;fill-rule:evenodd;stroke:rgb(245, 0, 255);stroke-width:1;" d="M 556.978, 208.822 L 583.036, 177.697 L 626.284, 196.336 L 600.226, 227.641 L 556.978, 208.822 z "/>
<path style="fill:rgb(0, 255, 0);fill-opacity:0;fill-rule:evenodd;stroke:rgb(245, 0, 255);stroke-width:1;" d="M 417.1, 148.383 L 428.138, 135.354 L 536.349, 186.383 L 540.692, 188.555 L 534.54, 198.507 L 528.387, 195.793 L 417.1, 148.383 z "/>
<path style="fill:rgb(0, 0, 255);fill-opacity:0;fill-rule:evenodd;stroke:rgb(245, 0, 255);stroke-width:1;" d="M 85.4105, 678.76 L 118.706, 638.95 L 123.23, 641.122 L 130.468, 632.617 L 152.907, 643.655 L 113.278, 690.703 L 85.4105, 678.76 z "/>
<path style="fill:rgb(255, 255, 0);fill-opacity:0;fill-rule:evenodd;stroke:rgb(245, 0, 255);stroke-width:1;" d="M 852.477, 145.126 L 869.125, 109.839 L 913.82, 123.592 L 912.373, 126.668 L 898.62, 156.164 L 852.477, 145.126 z "/>
<path style="fill:rgb(255, 0, 0);fill-opacity:0;fill-rule:evenodd;stroke:rgb(245, 0, 255);stroke-width:1;" d="M 546.845, 666.275 L 553.359, 649.627 L 559.511, 634.246 L 567.112, 614.884 L 597.331, 621.76 L 593.35, 631.712 L 581.588, 661.751 L 577.064, 673.151 L 546.845, 666.275 z "/>
<path style="fill:rgb(0, 255, 0);fill-opacity:0;fill-rule:evenodd;stroke:rgb(245, 0, 255);stroke-width:1;" d="M 143.316, 702.466 L 180.231, 656.322 L 199.593, 665.189 L 194.164, 672.065 L 202.85, 676.046 L 171.364, 715.494 L 143.316, 702.466 z "/>
<path style="fill:rgb(0, 0, 255);fill-opacity:0;fill-rule:evenodd;stroke:rgb(245, 0, 255);stroke-width:1;" d="M 42.5243, 590.093 L 51.572, 579.235 L 95.1821, 600.407 L 113.278, 609.274 L 161.954, 632.798 L 152.907, 643.655 L 130.468, 632.617 L 98.9821, 617.417 L 42.5243, 590.093 z "/>
<path style="fill:rgb(255, 255, 0);fill-opacity:0;fill-rule:evenodd;stroke:rgb(245, 0, 255);stroke-width:1;" d="M 744.99, 747.885 L 749.514, 736.485 L 748.247, 736.123 L 752.409, 725.809 L 756.752, 714.409 L 759.104, 708.437 L 765.8, 691.789 L 792.581, 703.008 L 792.762, 703.189 L 772.676, 754.219 L 772.133, 754.038 L 744.99, 747.885 z "/>
<path style="fill:rgb(255, 0, 0);fill-opacity:0;fill-rule:evenodd;stroke:rgb(245, 0, 255);stroke-width:1;" d="M 311.242, 270.346 L 321.194, 258.584 L 369.69, 286.27 L 366.252, 289.708 L 391.586, 304.185 L 394.481, 301.289 L 425.243, 318.842 L 415.834, 330.061 L 311.242, 270.346 z "/>
<path style="fill:rgb(0, 255, 0);fill-opacity:0;fill-rule:evenodd;stroke:rgb(245, 0, 255);stroke-width:1;" d="M 1004.84, 262.022 L 1022.21, 219.317 L 1060.57, 229.631 L 1052.97, 246.279 L 1052.43, 247.546 L 1050.98, 247.184 L 1041.21, 268.356 L 1019.14, 262.565 L 1017.87, 265.46 L 1004.84, 262.022 z "/>
<path style="fill:rgb(0, 0, 255);fill-opacity:0;fill-rule:evenodd;stroke:rgb(245, 0, 255);stroke-width:1;" d="M 51.753, 184.755 L 70.0294, 163.583 L 74.5533, 165.935 L 123.773, 190.364 L 124.859, 190.907 L 106.582, 212.079 L 59.534, 188.736 L 51.753, 184.755 z "/>
<path style="fill:rgb(255, 255, 0);fill-opacity:0;fill-rule:evenodd;stroke:rgb(245, 0, 255);stroke-width:1;" d="M 633.884, 145.849 L 667.903, 105.496 L 692.151, 117.259 L 649.989, 170.278 L 646.912, 169.012 L 635.512, 164.126 L 646.189, 152.364 L 633.884, 145.849 z "/>
<path style="fill:rgb(255, 0, 0);fill-opacity:0;fill-rule:evenodd;stroke:rgb(245, 0, 255);stroke-width:1;" d="M 151.459, 205.745 L 160.688, 195.069 L 269.26, 248.632 L 260.213, 259.308 L 151.459, 205.745 z "/>
<path style="fill:rgb(0, 255, 0);fill-opacity:0;fill-rule:evenodd;stroke:rgb(245, 0, 255);stroke-width:1;" d="M 722.551, 389.414 L 726.352, 381.814 L 741.009, 351.052 L 778.285, 364.261 L 762.361, 400.452 L 747.161, 396.29 L 731.237, 391.767 L 722.551, 389.414 z "/>
<path style="fill:rgb(0, 0, 255);fill-opacity:0;fill-rule:evenodd;stroke:rgb(245, 0, 255);stroke-width:1;" d="M 507.758, 41.4386 L 516.263, 31.4861 L 623.207, 83.9629 L 613.436, 95.544 L 507.758, 41.4386 z "/>
<path style="fill:rgb(255, 255, 0);fill-opacity:0;fill-rule:evenodd;stroke:rgb(245, 0, 255);stroke-width:1;" d="M 171.364, 715.494 L 202.85, 676.046 L 205.564, 672.789 L 233.974, 685.275 L 200.498, 727.256 L 171.364, 715.494 z "/>
<path style="fill:rgb(255, 0, 0);fill-opacity:0;fill-rule:evenodd;stroke:rgb(245, 0, 255);stroke-width:1;" d="M 50.1244, 415.653 L 68.2199, 394.662 L 122.325, 421.805 L 104.23, 442.796 L 50.1244, 415.653 z "/>
<path style="fill:rgb(0, 255, 0);fill-opacity:0;fill-rule:evenodd;stroke:rgb(245, 0, 255);stroke-width:1;" d="M 142.592, 216.06 L 151.459, 205.745 L 260.213, 259.308 L 251.346, 269.803 L 142.592, 216.06 z "/>
<path style="fill:rgb(0, 0, 255);fill-opacity:0;fill-rule:evenodd;stroke:rgb(245, 0, 255);stroke-width:1;" d="M 66.7722, 305.27 L 75.2771, 295.137 L 184.031, 348.699 L 175.345, 358.833 L 66.7722, 305.27 z "/>
<path style="fill:rgb(255, 255, 0);fill-opacity:0;fill-rule:evenodd;stroke:rgb(245, 0, 255);stroke-width:1;" d="M 190.726, 659.579 L 225.65, 618.141 L 252.251, 630.446 L 216.784, 672.246 L 190.726, 659.579 z "/>
<path style="fill:rgb(255, 0, 0);fill-opacity:0;fill-rule:evenodd;stroke:rgb(245, 0, 255);stroke-width:1;" d="M 583.036, 177.697 L 603.302, 153.811 L 615.426, 157.249 L 617.779, 152.183 L 625.017, 153.992 L 622.484, 159.24 L 627.007, 160.326 L 635.512, 164.126 L 646.912, 169.012 L 626.284, 196.336 L 583.036, 177.697 z "/>
<path style="fill:rgb(0, 255, 0);fill-opacity:0;fill-rule:evenodd;stroke:rgb(245, 0, 255);stroke-width:1;" d="M 200.498, 727.256 L 233.974, 685.275 L 260.575, 697.58 L 253.879, 705.904 L 248.812, 712.237 L 228.003, 738.475 L 200.498, 727.256 z "/>
<path style="fill:rgb(0, 0, 255);fill-opacity:0;fill-rule:evenodd;stroke:rgb(245, 0, 255);stroke-width:1;" d="M 907.487, 701.018 L 916.535, 676.77 L 961.05, 685.818 L 949.287, 718.751 L 929.744, 714.77 L 929.925, 714.047 L 912.011, 710.247 L 913.097, 706.989 L 914.725, 702.466 L 907.487, 701.018 z "/>
<path style="fill:rgb(255, 255, 0);fill-opacity:0;fill-rule:evenodd;stroke:rgb(245, 0, 255);stroke-width:1;" d="M 698.304, 424.338 L 715.856, 387.605 L 722.551, 389.414 L 731.237, 391.767 L 726.713, 401.176 L 730.875, 402.443 L 732.142, 399.729 L 744.085, 402.986 L 747.161, 396.29 L 762.361, 400.452 L 746.076, 437.548 L 730.152, 433.205 L 739.561, 413.662 L 723.637, 409.138 L 714.228, 428.862 L 712.418, 428.319 L 698.304, 424.338 z "/>
<path style="fill:rgb(255, 0, 0);fill-opacity:0;fill-rule:evenodd;stroke:rgb(245, 0, 255);stroke-width:1;" d="M 321.194, 724.361 L 330.604, 700.837 L 386.157, 712.418 L 377.652, 736.304 L 352.499, 731.056 L 336.575, 727.618 L 321.194, 724.361 z "/>
<path style="fill:rgb(0, 255, 0);fill-opacity:0;fill-rule:evenodd;stroke:rgb(245, 0, 255);stroke-width:1;" d="M 978.783, 447.32 L 982.764, 437.005 L 1043.2, 457.996 L 1036.69, 477.72 L 985.659, 466.32 L 991.269, 452.024 L 980.231, 449.491 L 978.783, 447.32 z "/>
<path style="fill:rgb(0, 0, 255);fill-opacity:0;fill-rule:evenodd;stroke:rgb(245, 0, 255);stroke-width:1;" d="M 422.891, 521.33 L 438.453, 502.33 L 436.1, 501.063 L 441.891, 494.006 L 444.243, 495.273 L 456.91, 479.71 L 475.549, 487.492 L 467.406, 499.615 L 471.929, 501.425 L 462.158, 515.901 L 450.577, 532.911 L 422.891, 521.33 z "/>
<path style="fill:rgb(255, 255, 0);fill-opacity:0;fill-rule:evenodd;stroke:rgb(245, 0, 255);stroke-width:1;" d="M 852.658, 699.57 L 857.905, 686.722 L 859.172, 684.008 L 863.334, 684.913 L 865.686, 679.484 L 860.982, 678.399 L 865.325, 668.084 L 904.411, 677.313 L 901.335, 685.094 L 897.896, 686.18 L 895.725, 691.608 L 894.096, 691.246 L 891.744, 697.218 L 893.373, 697.58 L 891.382, 702.646 L 892.468, 704.999 L 889.211, 713.866 L 852.658, 699.57 z "/>
<path style="fill:rgb(255, 0, 0);fill-opacity:0;fill-rule:evenodd;stroke:rgb(245, 0, 255);stroke-width:1;" d="M 831.667, 460.348 L 842.886, 437.367 L 872.201, 445.329 L 893.734, 451.301 L 884.144, 475.006 L 836.01, 461.615 L 831.667, 460.348 z "/>
<path style="fill:rgb(0, 255, 0);fill-opacity:0;fill-rule:evenodd;stroke:rgb(245, 0, 255);stroke-width:1;" d="M 1009.36, 375.843 L 1014.79, 363.9 L 1018.95, 354.671 L 1023.66, 355.757 L 1073.97, 369.147 L 1065.82, 391.043 L 1009.36, 375.843 z "/>
<path style="fill:rgb(0, 0, 255);fill-opacity:0;fill-rule:evenodd;stroke:rgb(245, 0, 255);stroke-width:1;" d="M 720.923, 735.761 L 726.532, 721.285 L 729.609, 721.828 L 731.418, 717.123 L 724.18, 715.494 L 725.809, 711.151 L 728.342, 704.818 L 736.485, 706.627 L 741.19, 694.865 L 733.047, 692.875 L 737.933, 680.389 L 765.8, 691.789 L 759.104, 708.437 L 750.961, 706.627 L 748.609, 712.599 L 756.752, 714.409 L 752.409, 725.809 L 746.437, 724.361 L 743.723, 724.18 L 742.637, 727.075 L 746.98, 727.98 L 742.095, 740.647 L 720.923, 735.761 z "/>
<path style="fill:rgb(255, 255, 0);fill-opacity:0;fill-rule:evenodd;stroke:rgb(245, 0, 255);stroke-width:1;" d="M 898.62, 156.164 L 912.373, 126.668 L 952.545, 137.525 L 950.192, 142.411 L 938.792, 167.021 L 898.62, 156.164 z "/>
<path style="fill:rgb(255, 0, 0);fill-opacity:0;fill-rule:evenodd;stroke:rgb(245, 0, 255);stroke-width:1;" d="M 450.577, 532.911 L 462.158, 515.901 L 468.853, 518.616 L 487.672, 492.558 L 492.739, 494.73 L 505.768, 499.977 L 495.454, 515.178 L 490.206, 522.778 L 486.587, 528.387 L 487.672, 528.749 L 483.872, 534.54 L 477.358, 544.13 L 450.577, 532.911 z "/>
<path style="fill:rgb(0, 255, 0);fill-opacity:0;fill-rule:evenodd;stroke:rgb(245, 0, 255);stroke-width:1;" d="M 912.554, 113.097 L 917.801, 106.944 L 946.211, 74.0104 L 967.202, 84.3248 L 933.363, 123.411 L 912.554, 113.097 z "/>
<path style="fill:rgb(0, 0, 255);fill-opacity:0;fill-rule:evenodd;stroke:rgb(245, 0, 255);stroke-width:1;" d="M 224.746, 603.845 L 234.155, 592.807 L 305.27, 625.56 L 299.842, 638.77 L 224.746, 603.845 z "/>
<path style="fill:rgb(255, 255, 0);fill-opacity:0;fill-rule:evenodd;stroke:rgb(245, 0, 255);stroke-width:1;" d="M 836.01, 312.689 L 848.496, 283.918 L 862.067, 287.356 L 858.629, 295.499 L 874.915, 299.48 L 877.81, 292.965 L 891.563, 296.404 L 879.077, 324.632 L 864.963, 321.194 L 868.401, 313.413 L 852.658, 309.432 L 849.762, 316.309 L 836.01, 312.689 z "/>
<path style="fill:rgb(255, 0, 0);fill-opacity:0;fill-rule:evenodd;stroke:rgb(245, 0, 255);stroke-width:1;" d="M 439.72, 349.242 L 453.11, 332.413 L 496.901, 356.661 L 482.787, 374.214 L 481.158, 374.395 L 439.72, 349.242 z "/>
<path style="fill:rgb(0, 255, 0);fill-opacity:0;fill-rule:evenodd;stroke:rgb(245, 0, 255);stroke-width:1;" d="M 933.363, 123.411 L 967.202, 84.3248 L 986.926, 94.2773 L 953.268, 133.363 L 933.363, 123.411 z "/>
<path style="fill:rgb(0, 0, 255);fill-opacity:0;fill-rule:evenodd;stroke:rgb(245, 0, 255);stroke-width:1;" d="M 826.6, 497.625 L 837.458, 475.006 L 879.439, 486.768 L 870.029, 509.749 L 826.6, 497.625 z "/>
<path style="fill:rgb(255, 255, 0);fill-opacity:0;fill-rule:evenodd;stroke:rgb(245, 0, 255);stroke-width:1;" d="M 754.038, 113.278 L 785.162, 70.2104 L 805.791, 80.3438 L 803.257, 83.2391 L 770.504, 121.42 L 754.038, 113.278 z "/>
<path style="fill:rgb(255, 0, 0);fill-opacity:0;fill-rule:evenodd;stroke:rgb(245, 0, 255);stroke-width:1;" d="M 935.535, 605.293 L 944.764, 584.483 L 992.898, 596.788 L 986.202, 615.607 L 935.535, 605.293 z "/>
<path style="fill:rgb(0, 255, 0);fill-opacity:0;fill-rule:evenodd;stroke:rgb(245, 0, 255);stroke-width:1;" d="M 243.746, 673.332 L 253.698, 660.846 L 250.441, 659.398 L 259.127, 648.541 L 290.07, 663.017 L 279.213, 689.799 L 243.746, 673.332 z "/>
<path style="fill:rgb(0, 0, 255);fill-opacity:0;fill-rule:evenodd;stroke:rgb(245, 0, 255);stroke-width:1;" d="M 360.823, 793.305 L 376.385, 754.761 L 383.624, 736.847 L 384.89, 737.028 L 399.729, 740.285 L 395.205, 752.228 L 378.919, 794.39 L 376.747, 800 L 360.823, 793.305 z "/>
<path style="fill:rgb(255, 255, 0);fill-opacity:0;fill-rule:evenodd;stroke:rgb(245, 0, 255);stroke-width:1;" d="M 614.522, 140.783 L 651.074, 97.3535 L 667.903, 105.496 L 633.884, 145.849 L 631.169, 148.926 L 614.522, 140.783 z "/>
<path style="fill:rgb(255, 0, 0);fill-opacity:0;fill-rule:evenodd;stroke:rgb(245, 0, 255);stroke-width:1;" d="M 51.572, 579.235 L 65.1436, 562.95 L 108.754, 584.121 L 95.1821, 600.407 L 51.572, 579.235 z "/>
<path style="fill:rgb(0, 255, 0);fill-opacity:0;fill-rule:evenodd;stroke:rgb(245, 0, 255);stroke-width:1;" d="M 978.783, 484.053 L 985.659, 466.32 L 1036.69, 477.72 L 1030.9, 495.815 L 978.783, 484.053 z "/>
<path style="fill:rgb(0, 0, 255);fill-opacity:0;fill-rule:evenodd;stroke:rgb(245, 0, 255);stroke-width:1;" d="M 216.241, 613.798 L 224.746, 603.845 L 299.842, 638.77 L 295.137, 650.351 L 273.06, 640.036 L 275.413, 636.96 L 257.86, 628.817 L 255.508, 631.893 L 252.251, 630.446 L 225.65, 618.141 L 216.241, 613.798 z "/>
<path style="fill:rgb(255, 255, 0);fill-opacity:0;fill-rule:evenodd;stroke:rgb(245, 0, 255);stroke-width:1;" d="M 972.45, 500.339 L 978.783, 484.053 L 1030.9, 495.815 L 1024.93, 513.73 L 1022.94, 513.368 L 972.45, 500.339 z "/>
<path style="fill:rgb(255, 0, 0);fill-opacity:0;fill-rule:evenodd;stroke:rgb(245, 0, 255);stroke-width:1;" d="M 899.706, 521.511 L 906.944, 503.777 L 956.526, 516.444 L 954.173, 521.873 L 950.011, 531.283 L 948.564, 534.178 L 934.449, 530.559 L 899.706, 521.511 z "/>
<path style="fill:rgb(0, 255, 0);fill-opacity:0;fill-rule:evenodd;stroke:rgb(245, 0, 255);stroke-width:1;" d="M 234.155, 592.807 L 242.841, 582.493 L 281.022, 600.769 L 309.794, 614.341 L 305.27, 625.56 L 234.155, 592.807 z "/>
<path style="fill:rgb(0, 0, 255);fill-opacity:0;fill-rule:evenodd;stroke:rgb(245, 0, 255);stroke-width:1;" d="M 966.297, 118.525 L 986.926, 94.2773 L 1014.61, 108.03 L 993.802, 132.278 L 966.297, 118.525 z "/>
<path style="fill:rgb(255, 255, 0);fill-opacity:0;fill-rule:evenodd;stroke:rgb(245, 0, 255);stroke-width:1;" d="M 651.074, 741.552 L 655.779, 729.971 L 705.361, 740.285 L 729.066, 745.171 L 725.085, 755.485 L 724.542, 756.933 L 701.199, 752.047 L 686.18, 748.971 L 666.094, 744.809 L 651.074, 741.552 z "/>
<path style="fill:rgb(255, 0, 0);fill-opacity:0;fill-rule:evenodd;stroke:rgb(245, 0, 255);stroke-width:1;" d="M 643.836, 388.69 L 653.065, 370.052 L 676.227, 376.566 L 698.665, 382.9 L 689.618, 401.176 L 675.503, 397.195 L 676.227, 395.929 L 656.322, 390.319 L 654.332, 391.586 L 643.836, 388.69 z "/>
<path style="fill:rgb(0, 255, 0);fill-opacity:0;fill-rule:evenodd;stroke:rgb(245, 0, 255);stroke-width:1;" d="M 881.068, 103.506 L 887.763, 95.7249 L 918.525, 60.0769 L 933.002, 67.3151 L 904.411, 100.43 L 893.011, 113.82 L 888.125, 111.468 L 890.839, 108.211 L 881.068, 103.506 z "/>
<path style="fill:rgb(0, 0, 255);fill-opacity:0;fill-rule:evenodd;stroke:rgb(245, 0, 255);stroke-width:1;" d="M 874.734, 758.923 L 882.877, 740.285 L 934.811, 760.914 L 929.202, 773.581 L 916.354, 770.504 L 917.259, 768.152 L 874.734, 758.923 z "/>
<path style="fill:rgb(255, 255, 0);fill-opacity:0;fill-rule:evenodd;stroke:rgb(245, 0, 255);stroke-width:1;" d="M 939.878, 583.216 L 946.573, 568.016 L 955.078, 570.188 L 998.507, 581.226 L 992.898, 596.788 L 944.764, 584.483 L 939.878, 583.216 z "/>
<path style="fill:rgb(255, 0, 0);fill-opacity:0;fill-rule:evenodd;stroke:rgb(245, 0, 255);stroke-width:1;" d="M 811.943, 70.9342 L 850.486, 26.2384 L 864.239, 33.1147 L 833.477, 68.7627 L 825.696, 77.8105 L 811.943, 70.9342 z "/>
<path style="fill:rgb(0, 255, 0);fill-opacity:0;fill-rule:evenodd;stroke:rgb(245, 0, 255);stroke-width:1;" d="M 675.141, 720.018 L 675.503, 718.932 L 680.389, 706.808 L 692.875, 674.96 L 697.399, 663.56 L 711.151, 669.17 L 698.485, 701.199 L 689.799, 723.456 L 675.141, 720.018 z "/>
<path style="fill:rgb(0, 0, 255);fill-opacity:0;fill-rule:evenodd;stroke:rgb(245, 0, 255);stroke-width:1;" d="M 85.7724, 543.587 L 98.6202, 528.387 L 139.516, 548.292 L 126.849, 563.492 L 85.7724, 543.587 z "/>
<path style="fill:rgb(255, 255, 0);fill-opacity:0;fill-rule:evenodd;stroke:rgb(245, 0, 255);stroke-width:1;" d="M 952.726, 551.73 L 959.421, 536.711 L 1009.91, 549.559 L 1004.3, 564.94 L 952.726, 551.73 z "/>
<path style="fill:rgb(255, 0, 0);fill-opacity:0;fill-rule:evenodd;stroke:rgb(245, 0, 255);stroke-width:1;" d="M 762, 623.75 L 766.523, 614.341 L 772.857, 616.15 L 775.571, 610.36 L 805.971, 618.865 L 805.248, 620.131 L 807.962, 620.855 L 809.591, 620.131 L 811.219, 616.874 L 824.791, 620.674 L 817.191, 639.674 L 798.19, 634.427 L 799.819, 630.988 L 798.733, 627.731 L 787.152, 624.474 L 782.809, 625.017 L 781, 628.998 L 779.552, 628.636 L 767.609, 625.198 L 762, 623.75 z "/>
<path style="fill:rgb(0, 255, 0);fill-opacity:0;fill-rule:evenodd;stroke:rgb(245, 0, 255);stroke-width:1;" d="M 854.648, 269.984 L 866.41, 242.841 L 879.801, 246.279 L 880.163, 248.451 L 889.392, 250.803 L 890.658, 252.251 L 891.925, 249.174 L 898.62, 250.803 L 887.582, 276.137 L 875.82, 273.241 L 877.81, 268.717 L 871.296, 267.089 L 869.667, 268.537 L 867.677, 273.241 L 854.648, 269.984 z M 873.106, 260.213 L 877.81, 261.479 L 879.258, 262.927 L 881.068, 258.584 L 875.458, 257.136 L 873.468, 257.86 L 873.106, 260.213 z "/>
<path style="fill:rgb(0, 0, 255);fill-opacity:0;fill-rule:evenodd;stroke:rgb(245, 0, 255);stroke-width:1;" d="M 456.91, 479.71 L 471.387, 462.158 L 503.777, 475.549 L 505.768, 476.453 L 492.739, 494.73 L 487.672, 492.558 L 475.549, 487.492 L 456.91, 479.71 z "/>
<path style="fill:rgb(255, 255, 0);fill-opacity:0;fill-rule:evenodd;stroke:rgb(245, 0, 255);stroke-width:1;" d="M 70.3913, 672.246 L 104.049, 631.893 L 118.706, 638.95 L 85.4105, 678.76 L 70.3913, 672.246 z "/>
<path style="fill:rgb(255, 0, 0);fill-opacity:0;fill-rule:evenodd;stroke:rgb(245, 0, 255);stroke-width:1;" d="M 876.544, 578.512 L 885.591, 556.254 L 919.249, 564.94 L 909.477, 587.017 L 876.544, 578.512 z "/>
<path style="fill:rgb(0, 255, 0);fill-opacity:0;fill-rule:evenodd;stroke:rgb(245, 0, 255);stroke-width:1;" d="M 477.358, 544.13 L 483.872, 534.54 L 489.301, 536.711 L 492.015, 536.711 L 499.073, 526.216 L 490.206, 522.778 L 495.454, 515.178 L 523.14, 526.035 L 517.892, 533.635 L 512.101, 531.463 L 504.863, 542.321 L 506.13, 542.683 L 507.758, 544.311 L 512.101, 546.121 L 505.587, 555.892 L 477.358, 544.13 z "/>
<path style="fill:rgb(0, 0, 255);fill-opacity:0;fill-rule:evenodd;stroke:rgb(245, 0, 255);stroke-width:1;" d="M 661.389, 715.675 L 684.008, 657.951 L 697.399, 663.56 L 692.875, 674.96 L 690.342, 675.684 L 678.941, 704.999 L 680.389, 706.808 L 675.503, 718.932 L 661.389, 715.675 z "/>
<path style="fill:rgb(255, 255, 0);fill-opacity:0;fill-rule:evenodd;stroke:rgb(245, 0, 255);stroke-width:1;" d="M 830.762, 690.342 L 844.153, 657.77 L 855.915, 660.484 L 854.829, 663.198 L 864.239, 665.37 L 856.096, 685.456 L 854.105, 685.818 L 857.905, 686.722 L 852.658, 699.57 L 830.762, 690.342 z "/>
<path style="fill:rgb(255, 0, 0);fill-opacity:0;fill-rule:evenodd;stroke:rgb(245, 0, 255);stroke-width:1;" d="M 950.011, 531.283 L 954.173, 521.873 L 959.059, 523.14 L 1014.25, 537.254 L 1009.91, 549.559 L 959.421, 536.711 L 960.688, 533.997 L 950.011, 531.283 z "/>
<path style="fill:rgb(0, 255, 0);fill-opacity:0;fill-rule:evenodd;stroke:rgb(245, 0, 255);stroke-width:1;" d="M 563.311, 710.247 L 568.016, 698.304 L 598.055, 705.18 L 628.998, 712.237 L 624.474, 723.818 L 593.35, 716.761 L 563.311, 710.247 z "/>
<path style="fill:rgb(0, 0, 255);fill-opacity:0;fill-rule:evenodd;stroke:rgb(245, 0, 255);stroke-width:1;" d="M 768.876, 465.053 L 777.2, 446.415 L 790.952, 450.215 L 788.057, 456.367 L 790.59, 456.91 L 791.314, 455.644 L 797.105, 457.272 L 796.743, 457.815 L 798.552, 458.358 L 800.362, 454.377 L 805.971, 455.824 L 809.048, 455.101 L 818.457, 457.634 L 821.172, 458.358 L 815.743, 469.758 L 798.552, 465.053 L 796.743, 462.52 L 795.295, 465.596 L 817.914, 471.748 L 815.2, 477.72 L 792.581, 471.568 L 794.029, 468.31 L 791.857, 467.767 L 792.943, 465.777 L 787.333, 464.329 L 787.876, 463.063 L 785.705, 462.339 L 782.628, 468.853 L 768.876, 465.053 z "/>
<path style="fill:rgb(255, 255, 0);fill-opacity:0;fill-rule:evenodd;stroke:rgb(245, 0, 255);stroke-width:1;" d="M 330.604, 700.837 L 335.49, 688.894 L 393.757, 701.199 L 389.414, 713.142 L 386.157, 712.418 L 330.604, 700.837 z "/>
<path style="fill:rgb(255, 0, 0);fill-opacity:0;fill-rule:evenodd;stroke:rgb(245, 0, 255);stroke-width:1;" d="M 404.433, 690.523 L 408.233, 680.027 L 436.643, 686.18 L 437.548, 683.827 L 439.72, 684.37 L 469.034, 690.523 L 463.967, 703.37 L 404.433, 690.523 z "/>
<path style="fill:rgb(0, 255, 0);fill-opacity:0;fill-rule:evenodd;stroke:rgb(245, 0, 255);stroke-width:1;" d="M 975.526, 176.974 L 988.555, 149.287 L 1012.8, 155.983 L 1011.9, 157.611 L 999.955, 183.488 L 975.526, 176.974 z "/>
<path style="fill:rgb(0, 0, 255);fill-opacity:0;fill-rule:evenodd;stroke:rgb(245, 0, 255);stroke-width:1;" d="M 548.835, 745.533 L 553.178, 734.314 L 559.873, 735.761 L 573.626, 739.018 L 600.588, 744.99 L 614.884, 748.428 L 610.36, 759.466 L 595.702, 756.209 L 548.835, 745.533 z "/>
<path style="fill:rgb(255, 255, 0);fill-opacity:0;fill-rule:evenodd;stroke:rgb(245, 0, 255);stroke-width:1;" d="M 460.71, 323.004 L 470.12, 311.242 L 488.396, 321.194 L 514.092, 335.128 L 504.501, 347.252 L 460.71, 323.004 z "/>
<path style="fill:rgb(255, 0, 0);fill-opacity:0;fill-rule:evenodd;stroke:rgb(245, 0, 255);stroke-width:1;" d="M 734.856, 547.207 L 741.914, 531.283 L 761.276, 536.168 L 760.914, 539.064 L 785.162, 545.94 L 778.647, 559.33 L 753.857, 552.454 L 750.418, 552.454 L 748.609, 552.273 L 746.799, 552.092 L 743.361, 551.368 L 741.733, 550.826 L 738.656, 549.559 L 734.856, 547.207 z "/>
<path style="fill:rgb(0, 255, 0);fill-opacity:0;fill-rule:evenodd;stroke:rgb(245, 0, 255);stroke-width:1;" d="M 853.02, 635.874 L 860.801, 616.693 L 874.01, 619.769 L 871.477, 625.56 L 874.915, 626.465 L 878.172, 624.655 L 908.935, 631.893 L 903.868, 644.198 L 872.744, 636.779 L 872.201, 634.789 L 868.582, 634.065 L 866.41, 639.131 L 853.02, 635.874 z "/>
<path style="fill:rgb(0, 0, 255);fill-opacity:0;fill-rule:evenodd;stroke:rgb(245, 0, 255);stroke-width:1;" d="M 277.584, 541.597 L 291.156, 525.492 L 304.004, 531.102 L 315.585, 536.168 L 324.271, 539.968 L 311.785, 556.435 L 277.584, 541.597 z "/>
<path style="fill:rgb(255, 255, 0);fill-opacity:0;fill-rule:evenodd;stroke:rgb(245, 0, 255);stroke-width:1;" d="M 74.5533, 165.935 L 83.601, 155.44 L 132.821, 179.869 L 123.773, 190.364 L 74.5533, 165.935 z "/>
<path style="fill:rgb(255, 0, 0);fill-opacity:0;fill-rule:evenodd;stroke:rgb(245, 0, 255);stroke-width:1;" d="M 634.969, 406.967 L 643.836, 388.69 L 654.332, 391.586 L 657.951, 392.671 L 656.865, 394.843 L 658.494, 397.195 L 659.941, 397.014 L 688.894, 405.157 L 683.103, 417.462 L 653.427, 408.957 L 652.522, 407.51 L 649.989, 408.052 L 648.722, 407.691 L 647.455, 410.405 L 634.969, 406.967 z "/>
<path style="fill:rgb(0, 255, 0);fill-opacity:0;fill-rule:evenodd;stroke:rgb(245, 0, 255);stroke-width:1;" d="M 500.158, 697.037 L 505.044, 684.913 L 548.473, 694.865 L 560.778, 697.761 L 556.073, 709.704 L 552.454, 708.98 L 537.073, 705.361 L 515.72, 700.475 L 500.158, 697.037 z "/>
<path style="fill:rgb(0, 0, 255);fill-opacity:0;fill-rule:evenodd;stroke:rgb(245, 0, 255);stroke-width:1;" d="M 672.065, 216.06 L 701.018, 179.507 L 711.875, 182.764 L 690.884, 224.203 L 672.065, 216.06 z "/>
<path style="fill:rgb(255, 255, 0);fill-opacity:0;fill-rule:evenodd;stroke:rgb(245, 0, 255);stroke-width:1;" d="M 50.3054, 199.412 L 59.534, 188.736 L 106.582, 212.079 L 97.3535, 222.755 L 51.2101, 199.774 L 50.3054, 199.412 z "/>
<path style="fill:rgb(255, 0, 0);fill-opacity:0;fill-rule:evenodd;stroke:rgb(245, 0, 255);stroke-width:1;" d="M 821.172, 135.173 L 837.458, 100.249 L 855.372, 106.401 L 839.629, 140.059 L 821.172, 135.173 z "/>
<path style="fill:rgb(0, 255, 0);fill-opacity:0;fill-rule:evenodd;stroke:rgb(245, 0, 255);stroke-width:1;" d="M 662.113, 351.957 L 674.599, 327.528 L 699.57, 335.671 L 688.17, 359.376 L 662.113, 351.957 z "/>
<path style="fill:rgb(0, 0, 255);fill-opacity:0;fill-rule:evenodd;stroke:rgb(245, 0, 255);stroke-width:1;" d="M 959.059, 523.14 L 964.126, 511.739 L 966.297, 512.282 L 1018.41, 525.492 L 1014.25, 537.254 L 959.059, 523.14 z "/>
<path style="fill:rgb(255, 255, 0);fill-opacity:0;fill-rule:evenodd;stroke:rgb(245, 0, 255);stroke-width:1;" d="M 966.297, 512.282 L 971.726, 500.158 L 972.45, 500.339 L 1022.94, 513.368 L 1018.41, 525.492 L 966.297, 512.282 z "/>
<path style="fill:rgb(255, 0, 0);fill-opacity:0;fill-rule:evenodd;stroke:rgb(245, 0, 255);stroke-width:1;" d="M 811.581, 506.311 L 817.01, 494.911 L 826.6, 497.625 L 870.029, 509.749 L 865.325, 521.33 L 811.581, 506.311 z "/>
<path style="fill:rgb(0, 255, 0);fill-opacity:0;fill-rule:evenodd;stroke:rgb(245, 0, 255);stroke-width:1;" d="M 694.323, 634.246 L 709.885, 598.96 L 724.723, 602.76 L 722.19, 608.55 L 722.913, 611.988 L 710.066, 640.76 L 694.323, 634.246 z "/>
<path style="fill:rgb(0, 0, 255);fill-opacity:0;fill-rule:evenodd;stroke:rgb(245, 0, 255);stroke-width:1;" d="M 803.8, 542.864 L 809.591, 528.568 L 821.895, 532.006 L 824.248, 534.721 L 830.581, 536.349 L 829.677, 538.34 L 834.019, 539.425 L 834.924, 537.616 L 840.896, 539.245 L 844.515, 537.797 L 857.182, 541.416 L 851.391, 555.711 L 838.543, 552.092 L 837.096, 550.102 L 819.905, 545.216 L 816.648, 546.483 L 803.8, 542.864 z "/>
<path style="fill:rgb(255, 255, 0);fill-opacity:0;fill-rule:evenodd;stroke:rgb(245, 0, 255);stroke-width:1;" d="M 394.481, 774.847 L 401.357, 757.657 L 419.995, 761.819 L 420.538, 763.085 L 419.995, 764.171 L 421.624, 764.714 L 424.881, 763.085 L 426.329, 759.285 L 440.805, 762.542 L 432.662, 783.352 L 421.805, 781 L 423.615, 776.295 L 422.348, 774.666 L 412.757, 772.495 L 407.691, 772.676 L 405.881, 777.381 L 395.929, 775.209 L 394.481, 774.847 z "/>
<path style="fill:rgb(255, 0, 0);fill-opacity:0;fill-rule:evenodd;stroke:rgb(245, 0, 255);stroke-width:1;" d="M 806.333, 516.987 L 811.581, 506.311 L 865.325, 521.33 L 860.801, 532.187 L 848.315, 528.749 L 826.419, 522.597 L 813.572, 518.978 L 806.333, 516.987 z "/>
<path style="fill:rgb(0, 255, 0);fill-opacity:0;fill-rule:evenodd;stroke:rgb(245, 0, 255);stroke-width:1;" d="M 518.435, 505.044 L 533.997, 483.691 L 555.53, 492.739 L 543.949, 515.901 L 518.435, 505.044 z "/>
<path style="fill:rgb(0, 0, 255);fill-opacity:0;fill-rule:evenodd;stroke:rgb(245, 0, 255);stroke-width:1;" d="M 798.19, 556.616 L 803.8, 542.864 L 816.648, 546.483 L 818.276, 548.473 L 835.467, 553.359 L 838.543, 552.092 L 851.391, 555.711 L 845.42, 570.007 L 832.029, 566.207 L 830.943, 563.854 L 824.61, 562.045 L 825.696, 560.054 L 821.715, 558.969 L 820.629, 560.959 L 813.753, 559.15 L 810.857, 560.054 L 798.19, 556.616 z "/>
<path style="fill:rgb(255, 255, 0);fill-opacity:0;fill-rule:evenodd;stroke:rgb(245, 0, 255);stroke-width:1;" d="M 972.631, 342.004 L 977.697, 329.337 L 1013.16, 338.747 L 1024.93, 341.823 L 1019.14, 354.309 L 972.631, 342.004 z "/>
<path style="fill:rgb(255, 0, 0);fill-opacity:0;fill-rule:evenodd;stroke:rgb(245, 0, 255);stroke-width:1;" d="M 1000.86, 146.392 L 1002.13, 144.945 L 1028.18, 114.725 L 1041.94, 121.601 L 1012.98, 155.259 L 1006.29, 151.821 L 1008.1, 150.011 L 1000.86, 146.392 z "/>
<path style="fill:rgb(0, 255, 0);fill-opacity:0;fill-rule:evenodd;stroke:rgb(245, 0, 255);stroke-width:1;" d="M 509.749, 672.789 L 514.635, 660.303 L 528.387, 663.56 L 529.473, 665.189 L 550.826, 670.075 L 552.997, 669.17 L 567.292, 672.427 L 562.407, 684.913 L 553.178, 682.741 L 548.111, 681.656 L 547.026, 679.484 L 525.854, 674.599 L 523.501, 675.865 L 509.749, 672.789 z "/>
<path style="fill:rgb(0, 0, 255);fill-opacity:0;fill-rule:evenodd;stroke:rgb(245, 0, 255);stroke-width:1;" d="M 906.944, 503.777 L 911.468, 492.92 L 921.963, 495.634 L 943.316, 500.882 L 953.992, 503.596 L 964.669, 506.13 L 959.783, 517.168 L 956.526, 516.444 L 906.944, 503.777 z "/>
<path style="fill:rgb(255, 255, 0);fill-opacity:0;fill-rule:evenodd;stroke:rgb(245, 0, 255);stroke-width:1;" d="M 495.454, 709.161 L 500.158, 697.037 L 515.72, 700.475 L 516.987, 702.285 L 535.444, 706.447 L 537.073, 705.361 L 552.454, 708.98 L 547.568, 721.104 L 531.825, 717.485 L 531.825, 715.494 L 525.311, 714.047 L 524.768, 715.132 L 519.701, 713.866 L 520.063, 712.961 L 513.368, 711.332 L 511.016, 712.78 L 495.454, 709.161 z "/>
<path style="fill:rgb(255, 0, 0);fill-opacity:0;fill-rule:evenodd;stroke:rgb(245, 0, 255);stroke-width:1;" d="M 1012.98, 155.259 L 1041.94, 121.601 L 1055.51, 128.478 L 1039.95, 146.754 L 1028.36, 159.964 L 1012.98, 155.259 z "/>
<path style="fill:rgb(0, 255, 0);fill-opacity:0;fill-rule:evenodd;stroke:rgb(245, 0, 255);stroke-width:1;" d="M 424.157, 667.36 L 428.5, 655.598 L 446.777, 659.579 L 478.263, 666.275 L 473.739, 678.037 L 444.424, 671.703 L 430.31, 668.627 L 424.157, 667.36 z "/>
<path style="fill:rgb(0, 0, 255);fill-opacity:0;fill-rule:evenodd;stroke:rgb(245, 0, 255);stroke-width:1;" d="M 430.672, 642.57 L 435.196, 630.627 L 450.758, 634.065 L 451.482, 635.512 L 471.387, 639.674 L 473.377, 639.131 L 487.492, 642.027 L 483.149, 653.789 L 468.491, 650.713 L 467.406, 649.627 L 447.501, 645.465 L 446.234, 645.827 L 430.672, 642.57 z "/>
<path style="fill:rgb(255, 255, 0);fill-opacity:0;fill-rule:evenodd;stroke:rgb(245, 0, 255);stroke-width:1;" d="M 830.581, 473.015 L 836.01, 461.615 L 884.144, 475.006 L 879.439, 486.768 L 837.458, 475.006 L 830.581, 473.015 z "/>
<path style="fill:rgb(255, 0, 0);fill-opacity:0;fill-rule:evenodd;stroke:rgb(245, 0, 255);stroke-width:1;" d="M 435.196, 630.627 L 439.539, 618.684 L 455.282, 622.122 L 456.367, 623.569 L 475.91, 627.912 L 478.987, 627.188 L 492.015, 629.903 L 487.492, 642.027 L 473.377, 639.131 L 472.11, 637.503 L 452.024, 633.16 L 450.758, 634.065 L 435.196, 630.627 z "/>
<path style="fill:rgb(0, 255, 0);fill-opacity:0;fill-rule:evenodd;stroke:rgb(245, 0, 255);stroke-width:1;" d="M 904.411, 100.43 L 933.002, 67.3151 L 946.211, 74.0104 L 917.801, 106.944 L 904.411, 100.43 z "/>
<path style="fill:rgb(0, 0, 255);fill-opacity:0;fill-rule:evenodd;stroke:rgb(245, 0, 255);stroke-width:1;" d="M 903.325, 670.256 L 905.677, 663.741 L 911.106, 664.827 L 964.669, 675.684 L 961.05, 685.818 L 916.535, 676.77 L 905.496, 674.418 L 906.582, 670.979 L 903.325, 670.256 z "/>
<path style="fill:rgb(255, 255, 0);fill-opacity:0;fill-rule:evenodd;stroke:rgb(245, 0, 255);stroke-width:1;" d="M 346.528, 787.333 L 361.185, 751.142 L 376.385, 754.761 L 360.823, 793.305 L 346.528, 787.333 z "/>
<path style="fill:rgb(255, 0, 0);fill-opacity:0;fill-rule:evenodd;stroke:rgb(245, 0, 255);stroke-width:1;" d="M 486.044, 733.047 L 490.93, 720.742 L 503.416, 723.637 L 505.044, 725.809 L 517.53, 728.704 L 516.806, 730.333 L 523.321, 731.78 L 524.044, 730.152 L 530.016, 731.599 L 532.73, 730.333 L 543.045, 732.685 L 545.216, 733.047 L 540.33, 745.533 L 527.844, 742.637 L 526.216, 740.828 L 520.244, 739.561 L 521.149, 737.571 L 518.797, 737.028 L 518.254, 738.114 L 516.444, 737.752 L 516.806, 736.485 L 514.635, 736.123 L 513.73, 738.114 L 501.244, 735.218 L 498.53, 735.942 L 486.044, 733.047 z "/>
<path style="fill:rgb(0, 255, 0);fill-opacity:0;fill-rule:evenodd;stroke:rgb(245, 0, 255);stroke-width:1;" d="M 514.454, 660.303 L 521.511, 642.389 L 545.397, 647.998 L 553.359, 649.627 L 546.845, 666.275 L 546.302, 667.541 L 528.387, 663.56 L 514.635, 660.303 L 514.454, 660.303 z "/>
<path style="fill:rgb(0, 0, 255);fill-opacity:0;fill-rule:evenodd;stroke:rgb(245, 0, 255);stroke-width:1;" d="M 550.464, 759.285 L 554.988, 747.885 L 568.921, 750.961 L 570.369, 752.409 L 576.521, 753.676 L 575.797, 755.485 L 581.95, 756.752 L 582.493, 755.123 L 593.35, 757.476 L 595.702, 756.209 L 610.36, 759.466 L 605.474, 771.952 L 590.817, 768.514 L 589.55, 766.704 L 578.874, 764.352 L 579.416, 763.085 L 572.902, 761.457 L 572.359, 762.904 L 566.75, 761.457 L 564.397, 762.542 L 550.464, 759.285 z "/>
<path style="fill:rgb(255, 255, 0);fill-opacity:0;fill-rule:evenodd;stroke:rgb(245, 0, 255);stroke-width:1;" d="M 490.93, 720.742 L 495.454, 709.161 L 511.016, 712.78 L 512.282, 714.047 L 530.74, 718.209 L 531.825, 717.485 L 547.568, 721.104 L 543.045, 732.685 L 532.73, 730.333 L 527.663, 729.066 L 526.94, 727.799 L 520.425, 726.352 L 520.063, 727.075 L 514.997, 725.809 L 515.178, 725.085 L 508.482, 723.637 L 506.492, 724.18 L 503.416, 723.637 L 490.93, 720.742 z "/>
<path style="fill:rgb(255, 0, 0);fill-opacity:0;fill-rule:evenodd;stroke:rgb(245, 0, 255);stroke-width:1;" d="M 315.585, 536.168 L 327.528, 520.244 L 340.195, 525.673 L 345.623, 518.616 L 357.023, 523.501 L 340.195, 545.94 L 328.794, 541.054 L 328.252, 541.778 L 324.271, 539.968 L 315.585, 536.168 z "/>
<path style="fill:rgb(0, 255, 0);fill-opacity:0;fill-rule:evenodd;stroke:rgb(245, 0, 255);stroke-width:1;" d="M 395.205, 752.228 L 399.729, 740.285 L 445.691, 750.057 L 440.805, 762.542 L 426.329, 759.285 L 395.205, 752.228 z "/>
<path style="fill:rgb(0, 0, 255);fill-opacity:0;fill-rule:evenodd;stroke:rgb(245, 0, 255);stroke-width:1;" d="M 710.066, 640.76 L 722.913, 611.988 L 725.809, 605.112 L 740.828, 608.912 L 729.428, 634.608 L 724.18, 646.551 L 710.066, 640.76 z "/>
<path style="fill:rgb(255, 255, 0);fill-opacity:0;fill-rule:evenodd;stroke:rgb(245, 0, 255);stroke-width:1;" d="M 559.873, 735.761 L 564.397, 724.361 L 578.15, 727.437 L 580.14, 728.885 L 585.207, 729.971 L 584.302, 731.961 L 591.178, 733.409 L 591.902, 731.418 L 602.941, 733.952 L 605.112, 733.228 L 619.407, 736.485 L 614.884, 748.428 L 600.588, 744.99 L 599.321, 743.18 L 588.283, 740.647 L 588.826, 739.38 L 581.95, 737.752 L 581.588, 739.018 L 576.521, 737.933 L 573.626, 739.018 L 559.873, 735.761 z "/>
<path style="fill:rgb(255, 0, 0);fill-opacity:0;fill-rule:evenodd;stroke:rgb(245, 0, 255);stroke-width:1;" d="M 655.417, 236.869 L 672.065, 216.06 L 690.884, 224.203 L 679.303, 247.365 L 668.808, 242.66 L 655.417, 236.869 z "/>
<path style="fill:rgb(0, 255, 0);fill-opacity:0;fill-rule:evenodd;stroke:rgb(245, 0, 255);stroke-width:1;" d="M 481.158, 745.171 L 486.044, 733.047 L 498.53, 735.942 L 500.339, 737.752 L 512.825, 740.466 L 512.101, 742.276 L 518.616, 743.723 L 519.52, 741.552 L 525.492, 742.999 L 527.844, 742.637 L 540.33, 745.533 L 535.806, 757.114 L 523.321, 754.219 L 521.692, 752.59 L 515.72, 751.323 L 516.263, 749.695 L 509.749, 748.247 L 509.206, 749.695 L 496.72, 746.98 L 493.825, 748.066 L 481.158, 745.171 z "/>
<path style="fill:rgb(0, 0, 255);fill-opacity:0;fill-rule:evenodd;stroke:rgb(245, 0, 255);stroke-width:1;" d="M 934.63, 436.462 L 940.964, 421.986 L 980.412, 435.015 L 974.983, 446.958 L 966.478, 444.786 L 945.126, 439.177 L 934.63, 436.462 z "/>
<path style="fill:rgb(255, 255, 0);fill-opacity:0;fill-rule:evenodd;stroke:rgb(245, 0, 255);stroke-width:1;" d="M 332.052, 781.362 L 341.823, 757.295 L 345.623, 747.885 L 345.623, 747.523 L 361.185, 751.142 L 346.528, 787.333 L 332.052, 781.362 z "/>
<path style="fill:rgb(255, 0, 0);fill-opacity:0;fill-rule:evenodd;stroke:rgb(245, 0, 255);stroke-width:1;" d="M 453.11, 332.413 L 460.71, 323.004 L 504.501, 347.252 L 496.901, 356.661 L 453.11, 332.413 z "/>
<path style="fill:rgb(0, 255, 0);fill-opacity:0;fill-rule:evenodd;stroke:rgb(245, 0, 255);stroke-width:1;" d="M 242.841, 582.493 L 252.07, 571.454 L 288.622, 588.826 L 290.251, 589.55 L 281.022, 600.769 L 242.841, 582.493 z "/>
<path style="fill:rgb(0, 0, 255);fill-opacity:0;fill-rule:evenodd;stroke:rgb(245, 0, 255);stroke-width:1;" d="M 912.735, 654.513 L 916.173, 644.56 L 971.726, 655.96 L 968.288, 665.732 L 914.544, 654.874 L 912.735, 654.513 z "/>
<path style="fill:rgb(255, 255, 0);fill-opacity:0;fill-rule:evenodd;stroke:rgb(245, 0, 255);stroke-width:1;" d="M 988.555, 138.249 L 993.802, 132.278 L 1014.61, 108.03 L 1028.18, 114.725 L 1002.13, 144.945 L 988.555, 138.249 z "/>
<path style="fill:rgb(255, 0, 0);fill-opacity:0;fill-rule:evenodd;stroke:rgb(245, 0, 255);stroke-width:1;" d="M 505.044, 684.913 L 509.749, 672.789 L 523.501, 675.865 L 548.111, 681.656 L 553.178, 682.741 L 548.473, 694.865 L 505.044, 684.913 z "/>
<path style="fill:rgb(0, 255, 0);fill-opacity:0;fill-rule:evenodd;stroke:rgb(245, 0, 255);stroke-width:1;" d="M 911.106, 664.827 L 914.544, 654.874 L 968.288, 665.732 L 964.669, 675.684 L 911.106, 664.827 z "/>
<path style="fill:rgb(0, 0, 255);fill-opacity:0;fill-rule:evenodd;stroke:rgb(245, 0, 255);stroke-width:1;" d="M 782.447, 434.472 L 787.876, 422.167 L 820.086, 431.034 L 829.677, 433.748 L 824.067, 445.691 L 782.447, 434.472 z "/>
<path style="fill:rgb(255, 255, 0);fill-opacity:0;fill-rule:evenodd;stroke:rgb(245, 0, 255);stroke-width:1;" d="M 860.801, 616.693 L 864.782, 607.283 L 899.344, 615.426 L 898.982, 616.15 L 921.24, 621.398 L 917.62, 630.084 L 874.01, 619.769 L 860.801, 616.693 z "/>
<path style="fill:rgb(255, 0, 0);fill-opacity:0;fill-rule:evenodd;stroke:rgb(245, 0, 255);stroke-width:1;" d="M 687.989, 432.662 L 692.694, 422.891 L 698.304, 424.338 L 712.418, 428.319 L 710.066, 433.205 L 711.151, 435.015 L 712.418, 435.558 L 714.589, 434.472 L 716.942, 429.586 L 730.152, 433.205 L 746.076, 437.548 L 741.733, 447.501 L 709.885, 438.634 L 687.989, 432.662 z "/>
<path style="fill:rgb(0, 255, 0);fill-opacity:0;fill-rule:evenodd;stroke:rgb(245, 0, 255);stroke-width:1;" d="M 777.2, 446.415 L 782.447, 434.472 L 824.067, 445.691 L 818.457, 457.634 L 809.048, 455.101 L 790.952, 450.215 L 777.2, 446.415 z "/>
<path style="fill:rgb(0, 0, 255);fill-opacity:0;fill-rule:evenodd;stroke:rgb(245, 0, 255);stroke-width:1;" d="M 772.133, 605.836 L 776.657, 596.607 L 781.905, 598.055 L 796.562, 602.217 L 812.848, 606.741 L 828.772, 611.264 L 824.791, 620.674 L 811.219, 616.874 L 772.133, 605.836 z "/>
<path style="fill:rgb(255, 255, 0);fill-opacity:0;fill-rule:evenodd;stroke:rgb(245, 0, 255);stroke-width:1;" d="M 724.18, 646.551 L 729.428, 634.608 L 733.047, 635.512 L 742.095, 614.703 L 756.028, 618.322 L 752.047, 627.369 L 750.238, 626.827 L 744.447, 639.855 L 746.076, 641.665 L 741.009, 653.427 L 724.18, 646.551 z "/>
<path style="fill:rgb(255, 0, 0);fill-opacity:0;fill-rule:evenodd;stroke:rgb(245, 0, 255);stroke-width:1;" d="M 260.755, 560.959 L 269.803, 549.921 L 306.175, 567.292 L 297.308, 578.15 L 260.755, 560.959 z "/>
<path style="fill:rgb(0, 255, 0);fill-opacity:0;fill-rule:evenodd;stroke:rgb(245, 0, 255);stroke-width:1;" d="M 710.608, 597.331 L 715.856, 585.388 L 727.98, 588.826 L 728.885, 590.817 L 735.761, 592.807 L 735.037, 594.255 L 740.647, 595.883 L 741.19, 594.617 L 746.799, 596.245 L 748.971, 595.34 L 761.638, 598.779 L 756.39, 610.903 L 743.904, 607.283 L 742.818, 605.293 L 724.904, 600.226 L 722.551, 600.769 L 710.608, 597.331 z "/>
<path style="fill:rgb(0, 0, 255);fill-opacity:0;fill-rule:evenodd;stroke:rgb(245, 0, 255);stroke-width:1;" d="M 525.854, 631.35 L 538.159, 599.864 L 540.692, 598.779 L 541.416, 598.96 L 553.721, 603.664 L 550.826, 611.264 L 543.226, 630.446 L 541.416, 634.789 L 525.854, 631.35 z "/>
<path style="fill:rgb(255, 255, 0);fill-opacity:0;fill-rule:evenodd;stroke:rgb(245, 0, 255);stroke-width:1;" d="M 641.484, 766.162 L 646.551, 753.495 L 686.18, 761.638 L 681.475, 774.485 L 669.351, 771.952 L 645.827, 767.066 L 641.484, 766.162 z "/>
<path style="fill:rgb(255, 0, 0);fill-opacity:0;fill-rule:evenodd;stroke:rgb(245, 0, 255);stroke-width:1;" d="M 785.524, 239.403 L 790.771, 228.184 L 833.658, 239.584 L 828.41, 250.803 L 785.524, 239.403 z "/>
<path style="fill:rgb(0, 255, 0);fill-opacity:0;fill-rule:evenodd;stroke:rgb(245, 0, 255);stroke-width:1;" d="M 252.07, 571.454 L 260.755, 560.959 L 297.308, 578.15 L 288.622, 588.826 L 252.07, 571.454 z "/>
<path style="fill:rgb(0, 0, 255);fill-opacity:0;fill-rule:evenodd;stroke:rgb(245, 0, 255);stroke-width:1;" d="M 726.171, 562.045 L 731.418, 549.921 L 743.18, 553.359 L 744.447, 555.169 L 751.685, 557.34 L 750.961, 558.969 L 756.209, 560.416 L 756.752, 559.15 L 762.361, 560.778 L 764.352, 560.054 L 777.2, 563.673 L 772.133, 575.254 L 759.285, 571.635 L 758.923, 569.826 L 752.59, 568.016 L 753.133, 566.75 L 746.98, 564.94 L 746.437, 566.026 L 740.466, 564.397 L 738.295, 565.483 L 726.171, 562.045 z "/>
<path style="fill:rgb(255, 255, 0);fill-opacity:0;fill-rule:evenodd;stroke:rgb(245, 0, 255);stroke-width:1;" d="M 711.151, 377.652 L 726.352, 345.804 L 741.009, 351.052 L 726.352, 381.814 L 711.151, 377.652 z "/>
<path style="fill:rgb(255, 0, 0);fill-opacity:0;fill-rule:evenodd;stroke:rgb(245, 0, 255);stroke-width:1;" d="M 715.856, 585.388 L 720.923, 573.807 L 733.047, 577.064 L 733.771, 579.055 L 741.19, 581.226 L 740.647, 582.312 L 746.076, 583.94 L 746.618, 582.855 L 752.047, 584.483 L 754.58, 583.397 L 766.885, 587.017 L 761.638, 598.779 L 748.971, 595.34 L 748.247, 593.531 L 741.914, 591.902 L 742.637, 590.274 L 737.028, 588.645 L 736.304, 589.912 L 729.971, 588.102 L 727.98, 588.826 L 715.856, 585.388 z "/>
<path style="fill:rgb(0, 255, 0);fill-opacity:0;fill-rule:evenodd;stroke:rgb(245, 0, 255);stroke-width:1;" d="M 720.923, 573.807 L 726.171, 562.045 L 738.295, 565.483 L 738.656, 567.292 L 746.076, 569.283 L 745.714, 570.188 L 751.685, 571.997 L 752.228, 570.731 L 757.476, 572.178 L 759.285, 571.635 L 772.133, 575.254 L 766.885, 587.017 L 754.58, 583.397 L 753.495, 581.769 L 747.342, 580.14 L 748.247, 578.331 L 742.095, 576.702 L 741.552, 577.969 L 735.58, 576.34 L 733.047, 577.064 L 720.923, 573.807 z "/>
<path style="fill:rgb(0, 0, 255);fill-opacity:0;fill-rule:evenodd;stroke:rgb(245, 0, 255);stroke-width:1;" d="M 889.211, 713.866 L 892.468, 704.999 L 895.906, 695.951 L 897.354, 696.132 L 901.335, 685.094 L 904.411, 677.313 L 905.496, 674.418 L 916.535, 676.77 L 907.487, 701.018 L 905.858, 705.542 L 902.782, 714.228 L 901.154, 718.751 L 889.211, 713.866 z "/>
<path style="fill:rgb(255, 255, 0);fill-opacity:0;fill-rule:evenodd;stroke:rgb(245, 0, 255);stroke-width:1;" d="M 982.583, 317.394 L 987.831, 304.546 L 1024.38, 314.137 L 1018.59, 326.985 L 982.583, 317.394 z "/>
<path style="fill:rgb(255, 0, 0);fill-opacity:0;fill-rule:evenodd;stroke:rgb(245, 0, 255);stroke-width:1;" d="M 646.551, 753.495 L 651.074, 741.552 L 666.094, 744.809 L 664.465, 748.971 L 665.732, 751.142 L 682.561, 754.761 L 684.732, 753.133 L 686.18, 748.971 L 701.199, 752.047 L 697.037, 763.99 L 686.18, 761.638 L 646.551, 753.495 z "/>
<path style="fill:rgb(0, 255, 0);fill-opacity:0;fill-rule:evenodd;stroke:rgb(245, 0, 255);stroke-width:1;" d="M 725.085, 755.485 L 729.066, 745.171 L 729.428, 744.447 L 744.99, 747.885 L 772.133, 754.038 L 767.79, 765.257 L 725.085, 755.485 z "/>
<path style="fill:rgb(0, 0, 255);fill-opacity:0;fill-rule:evenodd;stroke:rgb(245, 0, 255);stroke-width:1;" d="M 228.003, 738.475 L 248.812, 712.237 L 263.289, 718.932 L 242.841, 744.447 L 228.003, 738.475 z "/>
<path style="fill:rgb(255, 255, 0);fill-opacity:0;fill-rule:evenodd;stroke:rgb(245, 0, 255);stroke-width:1;" d="M 655.779, 729.971 L 660.484, 718.209 L 674.237, 721.104 L 673.151, 723.999 L 708.618, 731.418 L 705.361, 740.285 L 655.779, 729.971 z "/>
<path style="fill:rgb(255, 0, 0);fill-opacity:0;fill-rule:evenodd;stroke:rgb(245, 0, 255);stroke-width:1;" d="M 987.831, 304.546 L 992.174, 293.689 L 1034.34, 304.908 L 1029.45, 315.585 L 1024.38, 314.137 L 987.831, 304.546 z "/>
<path style="fill:rgb(0, 255, 0);fill-opacity:0;fill-rule:evenodd;stroke:rgb(245, 0, 255);stroke-width:1;" d="M 683.284, 369.871 L 684.008, 368.062 L 684.37, 367.338 L 688.17, 359.376 L 699.57, 335.671 L 712.056, 340.737 L 696.494, 373.49 L 683.284, 369.871 z "/>
<path style="fill:rgb(0, 0, 255);fill-opacity:0;fill-rule:evenodd;stroke:rgb(245, 0, 255);stroke-width:1;" d="M 968.288, 351.595 L 972.631, 342.004 L 1019.14, 354.309 L 1018.95, 354.671 L 1014.79, 363.9 L 968.288, 351.595 z "/>
<path style="fill:rgb(255, 255, 0);fill-opacity:0;fill-rule:evenodd;stroke:rgb(245, 0, 255);stroke-width:1;" d="M 780.819, 249.898 L 782.266, 246.279 L 785.524, 239.403 L 828.41, 250.803 L 823.705, 261.298 L 816.648, 259.308 L 780.819, 249.898 z "/>
<path style="fill:rgb(255, 0, 0);fill-opacity:0;fill-rule:evenodd;stroke:rgb(245, 0, 255);stroke-width:1;" d="M 866.41, 242.841 L 873.287, 226.736 L 888.125, 230.355 L 887.22, 232.708 L 897.173, 235.241 L 898.077, 232.888 L 905.496, 234.879 L 898.62, 250.803 L 891.925, 249.174 L 889.392, 248.632 L 891.563, 243.565 L 892.649, 243.022 L 889.03, 242.117 L 888.487, 243.565 L 881.791, 241.755 L 879.801, 246.279 L 866.41, 242.841 z "/>
<path style="fill:rgb(0, 255, 0);fill-opacity:0;fill-rule:evenodd;stroke:rgb(245, 0, 255);stroke-width:1;" d="M 848.496, 283.918 L 854.648, 269.984 L 867.677, 273.241 L 886.677, 277.946 L 880.706, 292.061 L 862.067, 287.356 L 848.496, 283.918 z "/>
<path style="fill:rgb(0, 0, 255);fill-opacity:0;fill-rule:evenodd;stroke:rgb(245, 0, 255);stroke-width:1;" d="M 711.513, 707.894 L 712.961, 704.456 L 724.542, 674.779 L 737.933, 680.389 L 733.047, 692.875 L 728.342, 704.818 L 725.809, 711.151 L 711.513, 707.894 z "/>
<path style="fill:rgb(255, 255, 0);fill-opacity:0;fill-rule:evenodd;stroke:rgb(245, 0, 255);stroke-width:1;" d="M 945.487, 558.788 L 949.107, 550.826 L 952.726, 551.73 L 1004.3, 564.94 L 1001.4, 573.083 L 958.697, 562.226 L 945.487, 558.788 z "/>
<path style="fill:rgb(255, 0, 0);fill-opacity:0;fill-rule:evenodd;stroke:rgb(245, 0, 255);stroke-width:1;" d="M 925.221, 459.263 L 929.744, 448.224 L 939.878, 450.758 L 941.868, 452.024 L 959.24, 456.367 L 962.135, 455.644 L 973.354, 458.358 L 968.469, 469.939 L 957.249, 467.225 L 955.983, 465.596 L 937.887, 461.072 L 935.173, 461.796 L 925.221, 459.263 z "/>
<path style="fill:rgb(0, 255, 0);fill-opacity:0;fill-rule:evenodd;stroke:rgb(245, 0, 255);stroke-width:1;" d="M 915.992, 481.701 L 920.697, 470.301 L 931.011, 472.834 L 932.64, 474.644 L 950.011, 478.806 L 953.088, 478.082 L 963.764, 480.796 L 958.878, 492.377 L 948.202, 489.663 L 946.211, 488.034 L 929.202, 483.691 L 926.306, 484.234 L 915.992, 481.701 z "/>
<path style="fill:rgb(0, 0, 255);fill-opacity:0;fill-rule:evenodd;stroke:rgb(245, 0, 255);stroke-width:1;" d="M 929.744, 448.224 L 934.63, 436.462 L 945.126, 439.177 L 946.392, 440.624 L 963.764, 444.967 L 966.478, 444.786 L 974.983, 446.958 L 976.974, 450.034 L 973.354, 458.358 L 962.135, 455.644 L 960.145, 454.196 L 942.773, 449.853 L 939.878, 450.758 L 929.744, 448.224 z "/>
<path style="fill:rgb(255, 255, 0);fill-opacity:0;fill-rule:evenodd;stroke:rgb(245, 0, 255);stroke-width:1;" d="M 778.285, 586.112 L 781.543, 579.235 L 790.59, 581.769 L 789.324, 584.302 L 805.067, 588.826 L 807.962, 582.674 L 837.096, 590.817 L 832.753, 601.312 L 786.609, 588.283 L 778.285, 586.112 z "/>
<path style="fill:rgb(255, 0, 0);fill-opacity:0;fill-rule:evenodd;stroke:rgb(245, 0, 255);stroke-width:1;" d="M 236.146, 682.922 L 243.746, 673.332 L 279.213, 689.799 L 274.689, 700.837 L 262.565, 695.227 L 236.146, 682.922 z "/>
<path style="fill:rgb(0, 255, 0);fill-opacity:0;fill-rule:evenodd;stroke:rgb(245, 0, 255);stroke-width:1;" d="M 911.468, 492.92 L 915.992, 481.701 L 926.306, 484.234 L 928.116, 486.044 L 945.306, 490.206 L 948.202, 489.663 L 958.878, 492.377 L 953.992, 503.596 L 943.316, 500.882 L 942.23, 499.615 L 925.04, 495.273 L 921.963, 495.634 L 911.468, 492.92 z "/>
<path style="fill:rgb(0, 0, 255);fill-opacity:0;fill-rule:evenodd;stroke:rgb(245, 0, 255);stroke-width:1;" d="M 698.485, 701.199 L 711.151, 669.17 L 724.542, 674.779 L 712.961, 704.456 L 698.485, 701.199 z "/>
<path style="fill:rgb(255, 255, 0);fill-opacity:0;fill-rule:evenodd;stroke:rgb(245, 0, 255);stroke-width:1;" d="M 563.311, 775.209 L 568.016, 763.447 L 590.817, 768.514 L 605.474, 771.952 L 600.95, 783.714 L 586.655, 780.457 L 563.311, 775.209 z "/>
<path style="fill:rgb(255, 0, 0);fill-opacity:0;fill-rule:evenodd;stroke:rgb(245, 0, 255);stroke-width:1;" d="M 992.174, 293.689 L 996.336, 283.556 L 1028.55, 292.061 L 1039.04, 294.775 L 1034.34, 304.908 L 992.174, 293.689 z "/>
<path style="fill:rgb(0, 255, 0);fill-opacity:0;fill-rule:evenodd;stroke:rgb(245, 0, 255);stroke-width:1;" d="M 977.697, 329.337 L 982.583, 317.394 L 1018.59, 326.985 L 1013.16, 338.747 L 977.697, 329.337 z "/>
<path style="fill:rgb(0, 0, 255);fill-opacity:0;fill-rule:evenodd;stroke:rgb(245, 0, 255);stroke-width:1;" d="M 920.697, 470.301 L 925.221, 459.263 L 935.173, 461.796 L 936.983, 463.425 L 955.078, 467.948 L 957.249, 467.225 L 968.469, 469.939 L 963.764, 480.796 L 953.088, 478.082 L 951.097, 476.453 L 933.725, 472.11 L 931.011, 472.834 L 920.697, 470.301 z "/>
<path style="fill:rgb(255, 255, 0);fill-opacity:0;fill-rule:evenodd;stroke:rgb(245, 0, 255);stroke-width:1;" d="M 872.382, 588.645 L 876.544, 578.512 L 909.477, 587.017 L 917.439, 588.826 L 917.62, 599.321 L 907.125, 596.969 L 872.382, 588.645 z "/>
<path style="fill:rgb(255, 0, 0);fill-opacity:0;fill-rule:evenodd;stroke:rgb(245, 0, 255);stroke-width:1;" d="M 753.133, 658.494 L 763.085, 635.693 L 767.609, 625.198 L 779.552, 628.636 L 773.038, 643.474 L 764.533, 663.198 L 753.133, 658.494 z "/>
<path style="fill:rgb(0, 255, 0);fill-opacity:0;fill-rule:evenodd;stroke:rgb(245, 0, 255);stroke-width:1;" d="M 1000.32, 273.603 L 1004.84, 262.022 L 1017.87, 265.46 L 1041.03, 271.613 L 1035.96, 283.013 L 1032.89, 282.108 L 1000.32, 273.603 z "/>
<path style="fill:rgb(0, 0, 255);fill-opacity:0;fill-rule:evenodd;stroke:rgb(245, 0, 255);stroke-width:1;" d="M 894.82, 533.454 L 899.706, 521.511 L 934.449, 530.559 L 929.202, 542.321 L 894.82, 533.454 z "/>
<path style="fill:rgb(255, 255, 0);fill-opacity:0;fill-rule:evenodd;stroke:rgb(245, 0, 255);stroke-width:1;" d="M 790.048, 673.694 L 799.457, 652.16 L 801.629, 652.703 L 803.076, 649.627 L 800.362, 648.903 L 803.981, 640.217 L 815.743, 642.931 L 801.448, 678.399 L 790.048, 673.694 z "/>
<path style="fill:rgb(255, 0, 0);fill-opacity:0;fill-rule:evenodd;stroke:rgb(245, 0, 255);stroke-width:1;" d="M 885.591, 556.254 L 890.296, 544.673 L 924.316, 553.359 L 919.249, 564.94 L 885.591, 556.254 z "/>
<path style="fill:rgb(0, 255, 0);fill-opacity:0;fill-rule:evenodd;stroke:rgb(245, 0, 255);stroke-width:1;" d="M 809.591, 528.568 L 813.572, 518.978 L 826.419, 522.597 L 827.143, 523.863 L 845.781, 529.111 L 848.315, 528.749 L 860.801, 532.187 L 857.182, 541.416 L 844.515, 537.797 L 842.705, 535.806 L 836.553, 533.997 L 837.277, 532.187 L 831.848, 530.74 L 830.762, 532.911 L 824.067, 530.921 L 821.895, 532.006 L 809.591, 528.568 z "/>
<path style="fill:rgb(0, 0, 255);fill-opacity:0;fill-rule:evenodd;stroke:rgb(245, 0, 255);stroke-width:1;" d="M 588.464, 729.428 L 593.35, 716.761 L 624.474, 723.818 L 619.407, 736.485 L 605.112, 733.228 L 588.464, 729.428 z "/>
<path style="fill:rgb(255, 255, 0);fill-opacity:0;fill-rule:evenodd;stroke:rgb(245, 0, 255);stroke-width:1;" d="M 446.777, 659.579 L 451.301, 647.093 L 468.491, 650.713 L 483.149, 653.789 L 478.625, 666.275 L 478.263, 666.275 L 446.777, 659.579 z "/>
<path style="fill:rgb(255, 0, 0);fill-opacity:0;fill-rule:evenodd;stroke:rgb(245, 0, 255);stroke-width:1;" d="M 890.296, 544.673 L 894.82, 533.454 L 929.202, 542.321 L 924.316, 553.359 L 890.296, 544.673 z "/>
<path style="fill:rgb(0, 255, 0);fill-opacity:0;fill-rule:evenodd;stroke:rgb(245, 0, 255);stroke-width:1;" d="M 740.285, 529.654 L 743.904, 521.692 L 790.59, 534.359 L 786.971, 542.321 L 740.285, 529.654 z "/>
<path style="fill:rgb(0, 0, 255);fill-opacity:0;fill-rule:evenodd;stroke:rgb(245, 0, 255);stroke-width:1;" d="M 999.955, 183.488 L 1011.9, 157.611 L 1026.19, 161.411 L 1022.03, 170.278 L 1014.07, 187.288 L 999.955, 183.488 z "/>
<path style="fill:rgb(255, 255, 0);fill-opacity:0;fill-rule:evenodd;stroke:rgb(245, 0, 255);stroke-width:1;" d="M 781.905, 598.055 L 786.609, 588.283 L 832.753, 601.312 L 828.772, 611.264 L 812.848, 606.741 L 814.838, 602.76 L 813.391, 600.045 L 802.352, 596.969 L 798.552, 598.055 L 796.562, 602.217 L 781.905, 598.055 z "/>
<path style="fill:rgb(255, 0, 0);fill-opacity:0;fill-rule:evenodd;stroke:rgb(245, 0, 255);stroke-width:1;" d="M 439.72, 684.37 L 444.424, 671.703 L 473.739, 678.037 L 469.034, 690.523 L 439.72, 684.37 z "/>
<path style="fill:rgb(0, 255, 0);fill-opacity:0;fill-rule:evenodd;stroke:rgb(245, 0, 255);stroke-width:1;" d="M 802.533, 581.226 L 807.419, 570.912 L 841.258, 580.502 L 837.096, 590.817 L 807.962, 582.674 L 802.533, 581.226 z "/>
<path style="fill:rgb(0, 0, 255);fill-opacity:0;fill-rule:evenodd;stroke:rgb(245, 0, 255);stroke-width:1;" d="M 317.394, 775.39 L 324.994, 756.571 L 326.08, 753.676 L 341.823, 757.295 L 332.052, 781.362 L 317.394, 775.39 z "/>
<path style="fill:rgb(255, 255, 0);fill-opacity:0;fill-rule:evenodd;stroke:rgb(245, 0, 255);stroke-width:1;" d="M 807.419, 570.912 L 812.486, 560.778 L 832.029, 566.207 L 845.42, 570.007 L 841.258, 580.502 L 807.419, 570.912 z "/>
<path style="fill:rgb(255, 0, 0);fill-opacity:0;fill-rule:evenodd;stroke:rgb(245, 0, 255);stroke-width:1;" d="M 902.782, 714.228 L 905.858, 705.542 L 913.097, 706.989 L 912.011, 710.247 L 929.925, 714.047 L 929.744, 714.77 L 949.287, 718.751 L 946.573, 726.352 L 919.43, 720.923 L 902.782, 714.228 z "/>
<path style="fill:rgb(0, 255, 0);fill-opacity:0;fill-rule:evenodd;stroke:rgb(245, 0, 255);stroke-width:1;" d="M 963.221, 173.535 L 971.907, 155.078 L 976.25, 146.03 L 988.555, 149.287 L 975.526, 176.974 L 963.221, 173.535 z "/>
<path style="fill:rgb(0, 0, 255);fill-opacity:0;fill-rule:evenodd;stroke:rgb(245, 0, 255);stroke-width:1;" d="M 955.078, 570.188 L 958.697, 562.226 L 1001.4, 573.083 L 998.507, 581.226 L 955.078, 570.188 z "/>
<path style="fill:rgb(255, 255, 0);fill-opacity:0;fill-rule:evenodd;stroke:rgb(245, 0, 255);stroke-width:1;" d="M 291.156, 525.492 L 310.156, 503.054 L 321.556, 507.939 L 304.004, 531.102 L 291.156, 525.492 z "/>
<path style="fill:rgb(255, 0, 0);fill-opacity:0;fill-rule:evenodd;stroke:rgb(245, 0, 255);stroke-width:1;" d="M 868.582, 598.055 L 872.382, 588.645 L 907.125, 596.969 L 903.144, 606.379 L 868.582, 598.055 z "/>
<path style="fill:rgb(0, 255, 0);fill-opacity:0;fill-rule:evenodd;stroke:rgb(245, 0, 255);stroke-width:1;" d="M 996.336, 283.556 L 1000.32, 273.603 L 1032.89, 282.108 L 1028.55, 292.061 L 996.336, 283.556 z "/>
<path style="fill:rgb(0, 0, 255);fill-opacity:0;fill-rule:evenodd;stroke:rgb(245, 0, 255);stroke-width:1;" d="M 304.004, 531.102 L 321.556, 507.939 L 332.956, 513.006 L 327.528, 520.244 L 315.585, 536.168 L 304.004, 531.102 z "/>
<path style="fill:rgb(255, 255, 0);fill-opacity:0;fill-rule:evenodd;stroke:rgb(245, 0, 255);stroke-width:1;" d="M 864.782, 607.283 L 868.582, 598.055 L 903.144, 606.379 L 899.344, 615.426 L 864.782, 607.283 z "/>
<path style="fill:rgb(255, 0, 0);fill-opacity:0;fill-rule:evenodd;stroke:rgb(245, 0, 255);stroke-width:1;" d="M 601.493, 474.825 L 607.283, 463.606 L 634.065, 471.568 L 628.274, 482.787 L 601.493, 474.825 z "/>
<path style="fill:rgb(0, 255, 0);fill-opacity:0;fill-rule:evenodd;stroke:rgb(245, 0, 255);stroke-width:1;" d="M 543.226, 630.446 L 550.826, 611.264 L 567.112, 614.884 L 559.511, 634.246 L 543.226, 630.446 z "/>
<path style="fill:rgb(0, 0, 255);fill-opacity:0;fill-rule:evenodd;stroke:rgb(245, 0, 255);stroke-width:1;" d="M 689.618, 486.225 L 694.323, 476.634 L 725.085, 485.139 L 720.561, 494.73 L 689.618, 486.225 z "/>
<path style="fill:rgb(255, 255, 0);fill-opacity:0;fill-rule:evenodd;stroke:rgb(245, 0, 255);stroke-width:1;" d="M 693.237, 476.272 L 697.58, 467.044 L 729.247, 475.91 L 725.085, 485.139 L 694.323, 476.634 L 693.237, 476.272 z "/>
<path style="fill:rgb(255, 0, 0);fill-opacity:0;fill-rule:evenodd;stroke:rgb(245, 0, 255);stroke-width:1;" d="M 701.018, 456.91 L 705.361, 447.862 L 737.571, 456.729 L 733.59, 465.958 L 701.018, 456.91 z "/>
<path style="fill:rgb(0, 255, 0);fill-opacity:0;fill-rule:evenodd;stroke:rgb(245, 0, 255);stroke-width:1;" d="M 705.361, 447.862 L 709.885, 438.634 L 741.733, 447.501 L 737.571, 456.729 L 705.361, 447.862 z "/>
<path style="fill:rgb(0, 0, 255);fill-opacity:0;fill-rule:evenodd;stroke:rgb(245, 0, 255);stroke-width:1;" d="M 741.009, 653.427 L 746.076, 641.665 L 750.057, 632.436 L 763.085, 635.693 L 753.133, 658.494 L 741.009, 653.427 z "/>
<path style="fill:rgb(255, 255, 0);fill-opacity:0;fill-rule:evenodd;stroke:rgb(245, 0, 255);stroke-width:1;" d="M 764.533, 663.198 L 773.038, 643.474 L 786.79, 646.912 L 786.067, 648.903 L 777.562, 668.446 L 764.533, 663.198 z "/>
<path style="fill:rgb(255, 0, 0);fill-opacity:0;fill-rule:evenodd;stroke:rgb(245, 0, 255);stroke-width:1;" d="M 777.562, 668.446 L 786.067, 648.903 L 799.457, 652.16 L 790.048, 673.694 L 777.562, 668.446 z "/>
<path style="fill:rgb(0, 255, 0);fill-opacity:0;fill-rule:evenodd;stroke:rgb(245, 0, 255);stroke-width:1;" d="M 512.101, 513.911 L 518.435, 505.044 L 543.949, 515.901 L 539.064, 525.311 L 512.101, 513.911 z "/>
<path style="fill:rgb(0, 0, 255);fill-opacity:0;fill-rule:evenodd;stroke:rgb(245, 0, 255);stroke-width:1;" d="M 630.084, 416.919 L 634.969, 406.967 L 647.455, 410.405 L 655.236, 412.757 L 653.427, 416.557 L 663.56, 419.272 L 660.484, 425.605 L 630.084, 416.919 z "/>
<path style="fill:rgb(255, 255, 0);fill-opacity:0;fill-rule:evenodd;stroke:rgb(245, 0, 255);stroke-width:1;" d="M 901.154, 718.751 L 902.782, 714.228 L 919.43, 720.923 L 946.573, 726.352 L 942.954, 736.304 L 901.154, 718.751 z "/>
<path style="fill:rgb(255, 0, 0);fill-opacity:0;fill-rule:evenodd;stroke:rgb(245, 0, 255);stroke-width:1;" d="M 302.918, 769.419 L 309.613, 752.952 L 324.994, 756.571 L 317.394, 775.39 L 302.918, 769.419 z "/>
<path style="fill:rgb(0, 255, 0);fill-opacity:0;fill-rule:evenodd;stroke:rgb(245, 0, 255);stroke-width:1;" d="M 309.613, 752.952 L 316.67, 735.218 L 332.052, 738.837 L 329.88, 744.085 L 326.08, 753.676 L 324.994, 756.571 L 309.613, 752.952 z "/>
<path style="fill:rgb(0, 0, 255);fill-opacity:0;fill-rule:evenodd;stroke:rgb(245, 0, 255);stroke-width:1;" d="M 938.792, 167.021 L 950.192, 142.411 L 956.164, 144.04 L 953.268, 150.011 L 959.421, 151.64 L 950.916, 170.278 L 938.792, 167.021 z "/>
<path style="fill:rgb(255, 255, 0);fill-opacity:0;fill-rule:evenodd;stroke:rgb(245, 0, 255);stroke-width:1;" d="M 329.88, 744.085 L 332.052, 738.837 L 336.575, 727.618 L 352.499, 731.056 L 345.623, 747.523 L 345.623, 747.885 L 329.88, 744.085 z "/>
<path style="fill:rgb(255, 0, 0);fill-opacity:0;fill-rule:evenodd;stroke:rgb(245, 0, 255);stroke-width:1;" d="M 646.189, 248.451 L 655.417, 236.869 L 668.808, 242.66 L 664.284, 248.812 L 676.046, 253.698 L 673.694, 258.584 L 646.189, 248.451 z "/>
<path style="fill:rgb(0, 255, 0);fill-opacity:0;fill-rule:evenodd;stroke:rgb(245, 0, 255);stroke-width:1;" d="M 242.841, 744.447 L 263.289, 718.932 L 266.727, 714.77 L 268.717, 715.675 L 255.146, 749.514 L 242.841, 744.447 z "/>
<path style="fill:rgb(0, 0, 255);fill-opacity:0;fill-rule:evenodd;stroke:rgb(245, 0, 255);stroke-width:1;" d="M 701.018, 179.507 L 729.79, 143.497 L 731.237, 144.04 L 711.875, 182.764 L 701.018, 179.507 z "/>
<path style="fill:rgb(255, 255, 0);fill-opacity:0;fill-rule:evenodd;stroke:rgb(245, 0, 255);stroke-width:1;" d="M 1014.07, 187.288 L 1022.03, 170.278 L 1036.15, 174.259 L 1028.18, 191.088 L 1014.07, 187.288 z "/>
<path style="fill:rgb(255, 0, 0);fill-opacity:0;fill-rule:evenodd;stroke:rgb(245, 0, 255);stroke-width:1;" d="M 950.916, 170.278 L 959.421, 151.64 L 971.907, 155.078 L 963.221, 173.535 L 950.916, 170.278 z "/>
<path style="fill:rgb(0, 255, 0);fill-opacity:0;fill-rule:evenodd;stroke:rgb(245, 0, 255);stroke-width:1;" d="M 657.77, 360.642 L 662.113, 351.957 L 688.17, 359.376 L 684.37, 367.338 L 684.008, 368.062 L 680.751, 367.157 L 657.77, 360.642 z "/>
<path style="fill:rgb(0, 0, 255);fill-opacity:0;fill-rule:evenodd;stroke:rgb(245, 0, 255);stroke-width:1;" d="M 848.858, 646.37 L 853.02, 635.874 L 866.41, 639.131 L 875.277, 641.303 L 870.934, 651.617 L 848.858, 646.37 z "/>
<path style="fill:rgb(255, 255, 0);fill-opacity:0;fill-rule:evenodd;stroke:rgb(245, 0, 255);stroke-width:1;" d="M 653.065, 370.052 L 657.77, 360.642 L 680.751, 367.157 L 676.227, 376.566 L 653.065, 370.052 z "/>
<path style="fill:rgb(255, 0, 0);fill-opacity:0;fill-rule:evenodd;stroke:rgb(245, 0, 255);stroke-width:1;" d="M 407.872, 677.494 L 412.576, 664.827 L 424.157, 667.36 L 430.31, 668.627 L 425.605, 681.294 L 407.872, 677.494 z "/>
<path style="fill:rgb(0, 255, 0);fill-opacity:0;fill-rule:evenodd;stroke:rgb(245, 0, 255);stroke-width:1;" d="M 845.058, 655.598 L 848.858, 646.37 L 870.934, 651.617 L 872.382, 651.979 L 868.582, 661.208 L 845.058, 655.598 z "/>
<path style="fill:rgb(0, 0, 255);fill-opacity:0;fill-rule:evenodd;stroke:rgb(245, 0, 255);stroke-width:1;" d="M 521.511, 642.389 L 524.949, 633.522 L 549.016, 638.95 L 545.397, 647.998 L 521.511, 642.389 z "/>
<path style="fill:rgb(255, 255, 0);fill-opacity:0;fill-rule:evenodd;stroke:rgb(245, 0, 255);stroke-width:1;" d="M 642.751, 775.752 L 645.827, 767.066 L 669.351, 771.952 L 666.094, 780.638 L 642.751, 775.752 z "/>
<path style="fill:rgb(255, 0, 0);fill-opacity:0;fill-rule:evenodd;stroke:rgb(245, 0, 255);stroke-width:1;" d="M 253.879, 705.904 L 260.575, 697.58 L 262.565, 695.227 L 274.689, 700.837 L 269.622, 713.323 L 253.879, 705.904 z "/>
<path style="fill:rgb(0, 255, 0);fill-opacity:0;fill-rule:evenodd;stroke:rgb(245, 0, 255);stroke-width:1;" d="M 557.702, 722.371 L 562.226, 711.151 L 578.15, 714.77 L 573.807, 726.171 L 557.702, 722.371 z "/>
<path style="fill:rgb(0, 0, 255);fill-opacity:0;fill-rule:evenodd;stroke:rgb(245, 0, 255);stroke-width:1;" d="M 316.67, 735.218 L 321.194, 724.361 L 336.575, 727.618 L 332.052, 738.837 L 316.67, 735.218 z "/>
<path style="fill:rgb(255, 255, 0);fill-opacity:0;fill-rule:evenodd;stroke:rgb(245, 0, 255);stroke-width:1;" d="M 887.401, 665.732 L 891.02, 655.598 L 906.401, 658.855 L 902.42, 669.713 L 887.401, 665.732 z "/>
<path style="fill:rgb(255, 0, 0);fill-opacity:0;fill-rule:evenodd;stroke:rgb(245, 0, 255);stroke-width:1;" d="M 667.722, 470.301 L 671.703, 460.71 L 684.551, 463.786 L 680.57, 473.558 L 667.722, 470.301 z "/>
<path style="fill:rgb(0, 255, 0);fill-opacity:0;fill-rule:evenodd;stroke:rgb(245, 0, 255);stroke-width:1;" d="M 969.012, 653.789 L 982.04, 616.693 L 985.659, 617.236 L 972.269, 654.513 L 969.012, 653.789 z "/>
<path style="fill:rgb(0, 0, 255);fill-opacity:0;fill-rule:evenodd;stroke:rgb(245, 0, 255);stroke-width:1;" d="M 488.396, 321.194 L 495.454, 319.385 L 516.987, 331.509 L 514.092, 335.128 L 488.396, 321.194 z "/>
<path style="fill:rgb(255, 255, 0);fill-opacity:0;fill-rule:evenodd;stroke:rgb(245, 0, 255);stroke-width:1;" d="M 992.174, 371.681 L 994.526, 367.7 L 1010.09, 372.043 L 1007.92, 377.29 L 992.174, 371.681 z "/>
<path style="fill:rgb(255, 0, 0);fill-opacity:0;fill-rule:evenodd;stroke:rgb(245, 0, 255);stroke-width:1;" d="M 776.657, 635.874 L 779.552, 629.541 L 791.314, 632.617 L 788.419, 638.95 L 776.657, 635.874 z "/>
<path style="fill:rgb(0, 255, 0);fill-opacity:0;fill-rule:evenodd;stroke:rgb(245, 0, 255);stroke-width:1;" d="M 31.3051, 346.709 L 66.7722, 305.27 L 175.345, 358.833 L 140.059, 400.452 L 31.3051, 346.709 z "/>
<path style="fill:rgb(0, 0, 255);fill-opacity:0;fill-rule:evenodd;stroke:rgb(245, 0, 255);stroke-width:1;" d="M 21.3526, 416.376 L 48.4958, 384.89 L 68.2199, 394.662 L 50.1244, 415.653 L 104.23, 442.796 L 86.4963, 463.425 L 32.5718, 436.462 L 31.848, 436.1 L 40.5338, 425.967 L 21.3526, 416.376 z "/>
<path style="fill:rgb(255, 255, 0);fill-opacity:0;fill-rule:evenodd;stroke:rgb(245, 0, 255);stroke-width:1;" d="M 25.3336, 610.36 L 42.5243, 590.093 L 98.9821, 617.417 L 93.1916, 624.293 L 105.496, 630.265 L 104.049, 631.893 L 70.3913, 672.246 L 57.3626, 666.637 L 64.9627, 657.589 L 82.5153, 636.779 L 73.8295, 632.617 L 73.1056, 633.522 L 26.6003, 610.903 L 25.3336, 610.36 z "/>
<path style="fill:rgb(255, 0, 0);fill-opacity:0;fill-rule:evenodd;stroke:rgb(245, 0, 255);stroke-width:1;" d="M 33.1147, 115.811 L 41.4386, 106.039 L 149.83, 159.964 L 132.821, 179.869 L 83.601, 155.44 L 79.2581, 153.088 L 87.401, 143.678 L 78.8962, 139.335 L 39.0862, 119.611 L 39.4481, 119.068 L 33.1147, 115.811 z "/>
<path style="fill:rgb(0, 255, 0);fill-opacity:0;fill-rule:evenodd;stroke:rgb(245, 0, 255);stroke-width:1;" d="M 0, 642.751 L 26.6003, 610.903 L 73.1056, 633.522 L 74.3723, 634.065 L 57.7245, 653.97 L 64.9627, 657.589 L 57.3626, 666.637 L 57.0007, 667.179 L 0, 642.751 z "/>
<path style="fill:rgb(0, 0, 255);fill-opacity:0;fill-rule:evenodd;stroke:rgb(245, 0, 255);stroke-width:1;" d="M 35.648, 217.869 L 51.2101, 199.774 L 97.3535, 222.755 L 81.7914, 240.85 L 35.648, 217.869 z "/>
<path style="fill:rgb(255, 255, 0);fill-opacity:0;fill-rule:evenodd;stroke:rgb(245, 0, 255);stroke-width:1;" d="M 20.086, 235.784 L 34.5623, 218.955 L 80.8867, 242.117 L 66.4103, 258.765 L 20.086, 235.784 z "/>
<path style="fill:rgb(255, 0, 0);fill-opacity:0;fill-rule:evenodd;stroke:rgb(245, 0, 255);stroke-width:1;" d="M 291.88, 39.2671 L 309.975, 18.0955 L 364.261, 45.0577 L 418.367, 71.839 L 400.271, 93.0106 L 354.128, 70.0294 L 358.471, 64.9627 L 342.909, 57.3626 L 338.566, 62.4293 L 291.88, 39.2671 z "/>
<path style="fill:rgb(0, 255, 0);fill-opacity:0;fill-rule:evenodd;stroke:rgb(245, 0, 255);stroke-width:1;" d="M 937.525, 27.867 L 961.411, 0 L 1036.33, 37.0957 L 1012.44, 64.9627 L 937.525, 27.867 z "/>
<path style="fill:rgb(0, 0, 255);fill-opacity:0;fill-rule:evenodd;stroke:rgb(245, 0, 255);stroke-width:1;" d="M 364.261, 45.0577 L 390.862, 13.9335 L 445.148, 40.7148 L 418.367, 71.839 L 364.261, 45.0577 z "/>
<path style="fill:rgb(255, 255, 0);fill-opacity:0;fill-rule:evenodd;stroke:rgb(245, 0, 255);stroke-width:1;" d="M 620.674, 46.3244 L 640.941, 22.6193 L 644.379, 24.2479 L 659.036, 7.23818 L 695.77, 25.5146 L 680.208, 43.61 L 684.732, 45.7815 L 665.189, 68.4008 L 620.674, 46.3244 z "/>
<path style="fill:rgb(255, 0, 0);fill-opacity:0;fill-rule:evenodd;stroke:rgb(245, 0, 255);stroke-width:1;" d="M 792.4, 61.1626 L 830.943, 16.4669 L 850.486, 26.2384 L 811.943, 70.9342 L 792.4, 61.1626 z "/>
</svg>