<?xml version="1.0" encoding="iso-8859-1" standalone="no"?>
<!DOCTYPE svg PUBLIC "-//W3C//DTD SVG 1.0//EN" "http://www.w3.org/TR/2001/REC-SVG-20010904/DTD/svg10.dtd">
<svg xmlns="http://www.w3.org/2000/svg" width="1146" height="800">
<path style="fill:rgb(255, 0, 0);fill-opacity:0;fill-rule:evenodd;stroke:rgb(0, 186, 255);stroke-width:1;" d="M 928.015, 209.893 L 982.904, 134.944 L 987.281, 136.768 L 1004.6, 112.879 L 1051.29, 132.574 L 1015.73, 181.445 L 1022.29, 184.181 L 1024.48, 181.08 L 1030.68, 183.633 L 1031.23, 182.904 L 1050.92, 191.292 L 1050.74, 191.657 L 1146.84, 232.14 L 1101.25, 294.506 L 1017.92, 259.494 L 1039.43, 229.77 L 1032.87, 227.034 L 1033.96, 225.758 L 1027.22, 223.023 L 1026.85, 223.57 L 1007.7, 215.546 L 1008.07, 214.999 L 994.94, 209.346 L 978.892, 231.229 L 959.015, 222.84 L 955.55, 227.764 L 928.926, 216.458 L 932.574, 211.716 L 928.015, 209.893 z "/>
<path style="fill:rgb(0, 255, 0);fill-opacity:0;fill-rule:evenodd;stroke:rgb(0, 186, 255);stroke-width:1;" d="M 636.973, 647.732 L 669.432, 603.419 L 728.516, 628.22 L 732.893, 627.308 L 736.722, 629.132 L 737.816, 632.414 L 791.794, 655.209 L 792.341, 654.297 L 823.524, 667.426 L 798.541, 701.71 L 801.459, 702.986 L 801.824, 704.992 L 800.547, 706.816 L 797.447, 707.545 L 784.5, 726.145 L 781.035, 724.869 L 760.976, 752.405 L 762.07, 752.952 L 762.799, 754.593 L 760.611, 757.876 L 758.605, 757.511 L 704.263, 734.716 L 710.645, 726.145 L 732.528, 696.421 L 750.399, 704.263 L 752.222, 701.892 L 751.311, 701.892 L 749.122, 702.804 L 746.205, 701.71 L 745.658, 700.068 L 751.858, 691.498 L 708.457, 673.262 L 709.916, 671.074 L 700.798, 667.244 L 696.604, 672.897 L 636.973, 647.732 z "/>
<path style="fill:rgb(0, 0, 255);fill-opacity:0;fill-rule:evenodd;stroke:rgb(0, 186, 255);stroke-width:1;" d="M 870.207, 494.552 L 878.231, 483.428 L 892.273, 489.446 L 893.002, 488.17 L 895.92, 489.446 L 907.044, 474.31 L 872.76, 459.722 L 895.373, 428.904 L 904.491, 432.733 L 926.92, 442.216 L 927.103, 441.669 L 930.203, 442.945 L 940.962, 428.357 L 937.862, 427.08 L 938.774, 425.804 L 928.562, 421.427 L 926.738, 423.98 L 923.456, 422.521 L 926.009, 419.056 L 932.938, 409.574 L 985.822, 432.004 L 977.069, 443.857 L 974.333, 442.763 L 930.021, 503.488 L 932.391, 504.399 L 923.638, 516.617 L 870.207, 494.552 z "/>
<path style="fill:rgb(255, 255, 0);fill-opacity:0;fill-rule:evenodd;stroke:rgb(0, 186, 255);stroke-width:1;" d="M 163.027, 340.643 L 187.281, 307.636 L 207.158, 316.207 L 203.51, 320.948 L 213.54, 325.142 L 233.417, 298.154 L 223.57, 293.959 L 219.74, 299.248 L 200.046, 290.859 L 224.299, 257.853 L 243.811, 266.059 L 232.687, 281.194 L 240.346, 284.477 L 251.47, 269.524 L 275.541, 279.553 L 263.506, 295.965 L 262.412, 295.418 L 225.576, 345.202 L 226.67, 345.749 L 214.269, 362.526 L 191.11, 352.678 L 202.234, 337.725 L 197.31, 335.719 L 194.21, 334.443 L 183.269, 349.214 L 163.027, 340.643 z "/>
<path style="fill:rgb(255, 0, 0);fill-opacity:0;fill-rule:evenodd;stroke:rgb(0, 186, 255);stroke-width:1;" d="M 127.468, 119.626 L 155.368, 80.2371 L 176.339, 88.8078 L 163.939, 106.314 L 171.78, 109.414 L 184.181, 91.9079 L 204.24, 100.114 L 191.84, 117.62 L 199.681, 120.903 L 212.081, 103.396 L 232.14, 111.602 L 219.375, 129.291 L 227.399, 132.574 L 239.799, 115.25 L 260.406, 123.638 L 232.14, 163.574 L 210.805, 154.821 L 222.293, 138.591 L 214.269, 135.309 L 204.057, 149.897 L 184.363, 141.874 L 193.481, 129.109 L 185.639, 126.009 L 176.704, 138.409 L 157.009, 130.385 L 167.404, 115.432 L 159.562, 112.332 L 148.256, 128.197 L 127.468, 119.626 z "/>
<path style="fill:rgb(0, 255, 0);fill-opacity:0;fill-rule:evenodd;stroke:rgb(0, 186, 255);stroke-width:1;" d="M 91.5432, 167.586 L 120.72, 128.744 L 141.144, 137.497 L 129.473, 153.18 L 137.315, 156.462 L 148.256, 141.874 L 167.768, 150.262 L 158.651, 162.662 L 166.31, 165.945 L 175.792, 153.362 L 195.122, 161.751 L 184.363, 176.157 L 192.204, 179.439 L 204.24, 163.392 L 225.211, 172.51 L 196.216, 211.352 L 175.792, 202.781 L 188.375, 186.004 L 180.533, 182.539 L 167.586, 199.863 L 147.891, 191.292 L 160.474, 174.333 L 152.633, 171.051 L 140.05, 188.01 L 120.356, 179.439 L 132.938, 162.48 L 125.097, 159.198 L 112.332, 176.522 L 91.5432, 167.586 z "/>
<path style="fill:rgb(0, 0, 255);fill-opacity:0;fill-rule:evenodd;stroke:rgb(0, 186, 255);stroke-width:1;" d="M 946.068, 612.902 L 957.739, 596.49 L 959.562, 597.401 L 963.027, 592.66 L 961.204, 591.931 L 974.151, 574.242 L 1003.15, 586.642 L 996.216, 595.943 L 992.387, 601.231 L 990.928, 600.684 L 988.192, 604.331 L 1002.05, 609.984 L 1007.7, 602.143 L 1007.16, 601.96 L 1014.63, 591.748 L 1032.87, 599.59 L 1042.53, 604.878 L 1032.69, 618.372 L 1037.98, 620.561 L 1052.2, 614.178 L 1054.75, 618.19 L 1056.76, 622.384 L 1058.22, 626.761 L 1059.13, 631.137 L 1059.49, 633.326 L 1059.68, 637.702 L 1057.67, 659.585 L 1054.57, 659.038 L 1023.75, 645.908 L 1025.58, 643.538 L 1015.18, 639.161 L 1024.12, 626.943 L 1021.02, 625.667 L 1019.92, 627.308 L 1015.36, 625.302 L 1015.18, 625.484 L 1012.45, 625.667 L 1005.7, 634.967 L 991.84, 629.314 L 994.393, 625.849 L 981.263, 620.196 L 983.269, 617.461 L 978.527, 615.455 L 972.145, 624.026 L 946.068, 612.902 z "/>
<path style="fill:rgb(255, 255, 0);fill-opacity:0;fill-rule:evenodd;stroke:rgb(0, 186, 255);stroke-width:1;" d="M 805.653, 434.374 L 850.513, 373.467 L 933.668, 408.662 L 932.938, 409.574 L 926.009, 419.056 L 917.256, 415.409 L 904.491, 432.733 L 895.373, 428.904 L 853.978, 411.397 L 829.724, 444.404 L 805.653, 434.374 z "/>
<path style="fill:rgb(255, 0, 0);fill-opacity:0;fill-rule:evenodd;stroke:rgb(0, 186, 255);stroke-width:1;" d="M 473.034, 328.06 L 505.311, 284.295 L 520.447, 290.677 L 520.082, 291.224 L 563.118, 309.642 L 551.995, 324.778 L 563.665, 329.701 L 545.612, 353.955 L 542.877, 357.784 L 473.034, 328.06 z "/>
<path style="fill:rgb(0, 255, 0);fill-opacity:0;fill-rule:evenodd;stroke:rgb(0, 186, 255);stroke-width:1;" d="M 108.32, 421.062 L 121.085, 403.556 L 118.167, 402.462 L 121.085, 398.45 L 137.315, 405.015 L 157.009, 413.403 L 172.874, 419.968 L 179.075, 422.521 L 194.757, 400.638 L 249.829, 423.615 L 232.505, 447.686 L 190.381, 429.998 L 176.339, 449.51 L 166.492, 445.316 L 151.903, 439.298 L 135.856, 432.551 L 120.72, 426.351 L 108.32, 421.062 z "/>
<path style="fill:rgb(0, 0, 255);fill-opacity:0;fill-rule:evenodd;stroke:rgb(0, 186, 255);stroke-width:1;" d="M 721.769, 432.915 L 743.105, 403.556 L 759.334, 410.303 L 754.228, 417.415 L 769.546, 423.798 L 785.229, 402.279 L 769.911, 395.897 L 765.17, 402.644 L 748.758, 395.715 L 769.182, 367.449 L 784.317, 373.832 L 786.688, 374.744 L 782.676, 380.214 L 799.453, 387.326 L 803.282, 382.038 L 806.018, 383.314 L 819.33, 388.785 L 787.417, 432.733 L 788.694, 433.28 L 773.376, 454.434 L 721.769, 432.915 z "/>
<path style="fill:rgb(255, 255, 0);fill-opacity:0;fill-rule:evenodd;stroke:rgb(0, 186, 255);stroke-width:1;" d="M 556.736, 506.77 L 572.236, 485.434 L 574.972, 486.711 L 604.331, 446.592 L 601.413, 445.316 L 617.278, 423.798 L 655.391, 440.027 L 643.538, 456.257 L 622.931, 447.504 L 620.014, 447.686 L 615.819, 446.045 L 613.084, 449.51 L 617.278, 451.333 L 618.555, 453.886 L 638.979, 462.457 L 627.49, 478.14 L 605.972, 469.022 L 601.049, 475.769 L 622.202, 484.705 L 610.713, 500.388 L 590.289, 491.817 L 587.189, 492.181 L 582.995, 490.358 L 580.26, 494.005 L 584.454, 495.829 L 585.731, 498.199 L 605.972, 506.77 L 594.301, 522.635 L 556.736, 506.77 z "/>
<path style="fill:rgb(255, 0, 0);fill-opacity:0;fill-rule:evenodd;stroke:rgb(0, 186, 255);stroke-width:1;" d="M 858.537, 731.069 L 871.484, 713.198 L 873.855, 714.11 L 881.331, 703.898 L 878.961, 702.986 L 890.267, 687.668 L 923.82, 701.71 L 919.991, 707.18 L 920.538, 708.822 L 917.438, 713.016 L 925.462, 716.481 L 928.562, 712.286 L 931.297, 711.192 L 934.944, 706.451 L 961.933, 717.757 L 940.962, 746.569 L 938.409, 745.475 L 934.579, 750.764 L 911.967, 741.281 L 919.991, 730.157 L 917.985, 729.428 L 918.714, 728.516 L 913.608, 726.328 L 914.885, 724.687 L 911.602, 723.228 L 910.873, 724.322 L 910.508, 724.14 L 904.126, 732.893 L 902.302, 731.981 L 892.637, 745.293 L 892.273, 745.111 L 858.537, 731.069 z "/>
<path style="fill:rgb(0, 255, 0);fill-opacity:0;fill-rule:evenodd;stroke:rgb(0, 186, 255);stroke-width:1;" d="M 183.816, 518.076 L 191.475, 507.499 L 196.398, 500.752 L 202.781, 503.305 L 224.664, 472.852 L 275.541, 494.187 L 264.6, 509.323 L 263.506, 508.776 L 259.312, 514.611 L 258.582, 514.247 L 251.288, 524.459 L 252.017, 524.823 L 252.564, 526.282 L 251.47, 527.559 L 249.829, 527.741 L 242.717, 537.771 L 243.082, 539.047 L 242.352, 540.141 L 240.164, 540.871 L 193.298, 521.359 L 192.934, 521.723 L 183.816, 518.076 z "/>
<path style="fill:rgb(0, 0, 255);fill-opacity:0;fill-rule:evenodd;stroke:rgb(0, 186, 255);stroke-width:1;" d="M 640.073, 101.026 L 671.803, 57.6248 L 686.209, 63.8249 L 695.145, 67.4721 L 684.021, 82.6077 L 687.486, 85.1607 L 688.58, 85.5254 L 690.586, 82.9724 L 695.692, 85.1607 L 693.504, 88.0784 L 695.874, 88.9902 L 699.157, 88.6255 L 710.098, 73.6722 L 721.587, 78.4135 L 719.763, 80.7841 L 737.087, 88.0784 L 722.498, 108.138 L 723.957, 108.867 L 708.639, 129.838 L 678.733, 117.256 L 684.021, 109.961 L 685.115, 110.508 L 685.845, 109.414 L 688.215, 110.326 L 693.139, 103.761 L 696.057, 104.855 L 697.515, 102.849 L 696.786, 100.661 L 680.009, 93.7315 L 677.091, 93.9138 L 675.45, 96.1021 L 678.186, 97.3786 L 672.532, 105.22 L 675.997, 106.679 L 670.709, 113.973 L 640.073, 101.026 z "/>
<path style="fill:rgb(255, 255, 0);fill-opacity:0;fill-rule:evenodd;stroke:rgb(0, 186, 255);stroke-width:1;" d="M 954.274, 759.152 L 958.103, 753.864 L 955.915, 752.952 L 976.886, 724.14 L 1004.06, 735.628 L 1000.05, 741.099 L 1001.5, 741.828 L 997.31, 747.481 L 1005.33, 750.946 L 1008.98, 746.022 L 1010.44, 746.569 L 1015.18, 740.187 L 1042.53, 751.675 L 1034.51, 768.635 L 1032.32, 768.088 L 1028.86, 777.205 L 1031.05, 778.3 L 1020.1, 799.088 L 982.722, 783.223 L 992.387, 769.911 L 990.198, 768.999 L 997.675, 758.787 L 993.663, 757.146 L 991.657, 759.699 L 987.098, 757.876 L 986.916, 758.058 L 985.457, 757.511 L 977.251, 768.817 L 954.274, 759.152 z "/>
<path style="fill:rgb(255, 0, 0);fill-opacity:0;fill-rule:evenodd;stroke:rgb(0, 186, 255);stroke-width:1;" d="M 420.698, 400.821 L 454.434, 354.867 L 485.07, 367.996 L 478.14, 377.297 L 470.116, 374.014 L 465.01, 380.944 L 465.922, 383.861 L 485.252, 392.067 L 488.899, 390.973 L 494.005, 384.044 L 488.534, 381.855 L 495.099, 372.738 L 525.735, 385.685 L 518.441, 395.715 L 514.429, 393.891 L 509.141, 395.168 L 501.117, 406.291 L 507.864, 409.209 L 499.293, 420.88 L 485.434, 415.044 L 479.234, 423.615 L 464.646, 417.415 L 470.846, 408.844 L 474.493, 410.486 L 479.416, 403.738 L 456.075, 393.891 L 449.875, 402.462 L 455.345, 404.65 L 449.328, 412.856 L 420.698, 400.821 z "/>
<path style="fill:rgb(0, 255, 0);fill-opacity:0;fill-rule:evenodd;stroke:rgb(0, 186, 255);stroke-width:1;" d="M 706.086, 277.547 L 721.769, 256.029 L 724.687, 254.753 L 747.481, 223.934 L 764.623, 231.229 L 760.976, 236.152 L 761.34, 238.523 L 764.258, 239.617 L 765.17, 238.341 L 776.294, 243.082 L 779.576, 243.447 L 783.041, 238.705 L 799.088, 245.635 L 781.582, 269.524 L 761.158, 260.77 L 764.987, 255.664 L 752.405, 250.376 L 738.728, 269.159 L 750.946, 274.265 L 754.958, 268.612 L 775.747, 277.365 L 759.152, 299.977 L 706.086, 277.547 z "/>
<path style="fill:rgb(0, 0, 255);fill-opacity:0;fill-rule:evenodd;stroke:rgb(0, 186, 255);stroke-width:1;" d="M 804.924, 320.036 L 830.636, 284.295 L 859.266, 296.148 L 860.907, 298.518 L 903.943, 316.572 L 887.349, 339.366 L 890.814, 340.825 L 882.425, 352.314 L 849.419, 338.455 L 859.631, 324.231 L 869.113, 328.243 L 875.131, 320.036 L 843.766, 307.089 L 837.93, 315.295 L 848.325, 319.489 L 838.113, 333.896 L 804.924, 320.036 z "/>
<path style="fill:rgb(255, 255, 0);fill-opacity:0;fill-rule:evenodd;stroke:rgb(0, 186, 255);stroke-width:1;" d="M 972.874, 687.303 L 983.816, 672.35 L 986.734, 673.627 L 988.192, 671.621 L 990.745, 672.715 L 1004.79, 653.385 L 1022.11, 660.679 L 1019.92, 663.779 L 1019.92, 666.15 L 1015.91, 671.803 L 1024.66, 675.45 L 1034.15, 662.32 L 1056.76, 671.985 L 1054.75, 694.598 L 1051.83, 715.569 L 1049.46, 719.216 L 1009.89, 702.804 L 1013.9, 697.151 L 1014.63, 695.327 L 1017.55, 691.133 L 1009.35, 687.668 L 1005.88, 692.592 L 1004.06, 694.415 L 1000.59, 698.792 L 972.874, 687.303 z "/>
<path style="fill:rgb(255, 0, 0);fill-opacity:0;fill-rule:evenodd;stroke:rgb(0, 186, 255);stroke-width:1;" d="M 836.836, 276.453 L 862.731, 241.076 L 896.284, 255.3 L 886.62, 268.429 L 875.678, 263.871 L 869.296, 272.441 L 901.026, 285.936 L 907.408, 277.183 L 897.561, 273.171 L 907.226, 260.041 L 940.597, 274.083 L 932.756, 284.842 L 929.109, 283.383 L 912.15, 306.36 L 867.837, 287.577 L 864.737, 288.124 L 836.836, 276.453 z "/>
<path style="fill:rgb(0, 255, 0);fill-opacity:0;fill-rule:evenodd;stroke:rgb(0, 186, 255);stroke-width:1;" d="M 940.597, 376.567 L 948.803, 365.261 L 952.086, 366.537 L 968.315, 344.108 L 1012.26, 362.343 L 1011.9, 363.073 L 1013.9, 363.802 L 1015.18, 361.979 L 1043.63, 373.832 L 1018.28, 409.027 L 985.092, 395.168 L 995.122, 381.491 L 1004.97, 385.685 L 1010.99, 377.297 L 992.387, 369.638 L 979.986, 364.349 L 973.786, 372.738 L 983.816, 376.932 L 973.969, 390.609 L 940.597, 376.567 z "/>
<path style="fill:rgb(0, 0, 255);fill-opacity:0;fill-rule:evenodd;stroke:rgb(0, 186, 255);stroke-width:1;" d="M 977.433, 333.166 L 993.845, 310.919 L 989.834, 309.277 L 997.857, 298.336 L 1032.14, 312.925 L 1022.66, 325.69 L 1011.53, 320.766 L 1004.97, 329.519 L 1037.06, 343.013 L 1043.45, 334.443 L 1033.23, 330.066 L 1042.53, 317.301 L 1074.63, 330.978 L 1048.73, 366.173 L 1021.75, 354.867 L 1019.92, 351.22 L 977.433, 333.166 z "/>
<path style="fill:rgb(255, 255, 0);fill-opacity:0;fill-rule:evenodd;stroke:rgb(0, 186, 255);stroke-width:1;" d="M 556.736, 214.452 L 585.183, 175.792 L 602.872, 183.086 L 598.678, 188.739 L 612.537, 194.575 L 613.814, 193.116 L 615.455, 193.845 L 615.819, 193.845 L 614.725, 195.487 L 630.226, 202.052 L 634.42, 196.398 L 649.92, 202.963 L 636.973, 220.652 L 638.249, 221.199 L 622.749, 242.352 L 594.666, 230.499 L 605.243, 216.275 L 610.896, 218.646 L 616.002, 211.716 L 594.484, 202.781 L 589.56, 209.528 L 595.578, 212.081 L 585.001, 226.305 L 556.736, 214.452 z "/>
<path style="fill:rgb(255, 0, 0);fill-opacity:0;fill-rule:evenodd;stroke:rgb(0, 186, 255);stroke-width:1;" d="M 910.144, 660.862 L 938.409, 621.655 L 968.863, 634.602 L 959.198, 647.914 L 967.221, 651.379 L 971.416, 645.544 L 975.245, 644.267 L 976.886, 641.532 L 994.393, 649.008 L 982.904, 664.873 L 982.357, 664.691 L 979.257, 668.885 L 981.81, 669.979 L 980.898, 671.074 L 983.816, 672.35 L 972.874, 687.303 L 945.886, 675.997 L 949.533, 670.891 L 950.262, 669.068 L 953.727, 663.962 L 944.791, 660.132 L 940.597, 665.968 L 939.321, 666.879 L 936.038, 671.803 L 910.144, 660.862 z "/>
<path style="fill:rgb(0, 255, 0);fill-opacity:0;fill-rule:evenodd;stroke:rgb(0, 186, 255);stroke-width:1;" d="M 245.452, 640.438 L 279.371, 593.39 L 322.589, 611.261 L 310.919, 627.308 L 301.801, 640.073 L 293.412, 651.744 L 288.489, 658.309 L 245.452, 640.438 z "/>
<path style="fill:rgb(0, 0, 255);fill-opacity:0;fill-rule:evenodd;stroke:rgb(0, 186, 255);stroke-width:1;" d="M 160.109, 756.964 L 185.639, 722.134 L 243.264, 746.569 L 217.917, 781.217 L 173.786, 762.617 L 160.109, 756.964 z "/>
<path style="fill:rgb(255, 255, 0);fill-opacity:0;fill-rule:evenodd;stroke:rgb(0, 186, 255);stroke-width:1;" d="M 399.362, 236.699 L 413.586, 216.822 L 412.309, 216.275 L 427.445, 195.122 L 478.505, 216.275 L 446.957, 260.406 L 432.004, 254.206 L 434.192, 251.106 L 399.362, 236.699 z M 427.809, 229.77 L 440.392, 235.24 L 447.869, 225.028 L 436.198, 220.105 L 435.286, 219.74 L 427.809, 229.77 z "/>
<path style="fill:rgb(255, 0, 0);fill-opacity:0;fill-rule:evenodd;stroke:rgb(0, 186, 255);stroke-width:1;" d="M 364.167, 282.653 L 379.667, 260.953 L 381.673, 261.865 L 395.35, 242.717 L 429.998, 257.123 L 432.004, 254.206 L 446.957, 260.406 L 415.774, 303.807 L 364.167, 282.653 z M 395.532, 274.083 L 407.933, 279.371 L 415.409, 269.159 L 403.009, 263.871 L 395.532, 274.083 z "/>
<path style="fill:rgb(0, 255, 0);fill-opacity:0;fill-rule:evenodd;stroke:rgb(0, 186, 255);stroke-width:1;" d="M 623.296, 392.067 L 639.526, 370.002 L 640.438, 370.367 L 656.485, 348.667 L 672.532, 355.414 L 668.338, 361.067 L 683.474, 367.449 L 687.486, 361.796 L 706.451, 369.82 L 691.68, 389.879 L 671.803, 381.491 L 673.262, 379.485 L 664.144, 375.655 L 661.044, 376.02 L 654.479, 385.138 L 665.785, 389.879 L 667.244, 387.873 L 686.939, 396.444 L 674.174, 413.586 L 623.296, 392.067 z "/>
<path style="fill:rgb(0, 0, 255);fill-opacity:0;fill-rule:evenodd;stroke:rgb(0, 186, 255);stroke-width:1;" d="M 656.485, 348.667 L 672.897, 326.237 L 671.985, 325.872 L 687.668, 304.536 L 738.728, 326.237 L 726.328, 342.831 L 706.086, 334.26 L 707.363, 332.619 L 696.421, 327.878 L 689.492, 337.36 L 690.403, 339.002 L 699.886, 343.013 L 701.527, 340.825 L 721.587, 349.396 L 706.451, 369.82 L 687.486, 361.796 L 691.862, 355.961 L 676.909, 349.578 L 672.532, 355.414 L 656.485, 348.667 z "/>
<path style="fill:rgb(255, 255, 0);fill-opacity:0;fill-rule:evenodd;stroke:rgb(0, 186, 255);stroke-width:1;" d="M 242.717, 231.229 L 274.994, 187.463 L 293.412, 195.304 L 289.583, 200.41 L 286.848, 199.134 L 283.747, 203.328 L 297.424, 209.163 L 296.33, 210.44 L 300.889, 212.446 L 308.73, 201.869 L 325.325, 208.799 L 293.23, 252.382 L 273.171, 243.811 L 288.671, 222.84 L 279.553, 219.011 L 263.871, 240.164 L 242.717, 231.229 z "/>
<path style="fill:rgb(255, 0, 0);fill-opacity:0;fill-rule:evenodd;stroke:rgb(0, 186, 255);stroke-width:1;" d="M 142.421, 588.648 L 159.015, 566.036 L 165.945, 568.954 L 169.774, 563.665 L 161.568, 560.201 L 170.686, 547.618 L 221.746, 569.136 L 208.434, 587.372 L 179.439, 575.336 L 174.698, 581.901 L 203.51, 593.937 L 190.016, 612.719 L 173.969, 605.972 L 176.157, 602.872 L 142.421, 588.648 z "/>
<path style="fill:rgb(0, 255, 0);fill-opacity:0;fill-rule:evenodd;stroke:rgb(0, 186, 255);stroke-width:1;" d="M 505.676, 284.112 L 520.264, 264.053 L 542.694, 273.535 L 541.235, 275.359 L 549.442, 278.824 L 551.812, 275.724 L 559.289, 278.824 L 561.659, 275.541 L 554.548, 272.441 L 556.918, 269.159 L 549.077, 265.694 L 547.618, 267.7 L 524.823, 258.035 L 537.588, 240.711 L 589.378, 262.776 L 574.607, 282.836 L 573.148, 282.289 L 558.559, 301.801 L 545.977, 296.33 L 549.077, 292.136 L 544.883, 290.495 L 541.053, 295.601 L 522.635, 287.759 L 520.629, 290.495 L 505.676, 284.112 z "/>
<path style="fill:rgb(0, 0, 255);fill-opacity:0;fill-rule:evenodd;stroke:rgb(0, 186, 255);stroke-width:1;" d="M 274.994, 187.463 L 306.907, 144.427 L 327.695, 153.362 L 312.377, 174.151 L 313.654, 174.698 L 321.86, 178.163 L 337.36, 157.374 L 358.331, 166.31 L 343.378, 186.551 L 342.284, 186.004 L 325.325, 208.799 L 308.73, 201.869 L 316.572, 191.292 L 311.648, 189.104 L 310.189, 190.928 L 297.242, 185.275 L 294.324, 189.469 L 296.877, 190.563 L 293.412, 195.304 L 274.994, 187.463 z "/>
<path style="fill:rgb(255, 255, 0);fill-opacity:0;fill-rule:evenodd;stroke:rgb(0, 186, 255);stroke-width:1;" d="M 477.958, 129.838 L 489.446, 113.791 L 489.264, 111.967 L 491.27, 109.232 L 503.488, 114.338 L 506.405, 110.508 L 504.764, 107.773 L 495.282, 103.943 L 505.311, 89.902 L 556.736, 111.42 L 528.288, 150.809 L 510.235, 143.333 L 508.229, 142.421 L 512.241, 136.768 L 497.835, 130.75 L 493.823, 136.403 L 477.958, 129.838 z M 513.517, 123.273 L 520.264, 126.009 L 525.553, 118.532 L 523, 117.62 L 518.806, 115.797 L 513.517, 123.273 z "/>
<path style="fill:rgb(255, 0, 0);fill-opacity:0;fill-rule:evenodd;stroke:rgb(0, 186, 255);stroke-width:1;" d="M 316.572, 350.672 L 330.796, 331.343 L 328.79, 330.613 L 344.655, 309.095 L 365.443, 317.848 L 351.949, 336.266 L 359.79, 339.731 L 373.467, 321.313 L 396.262, 330.978 L 366.173, 371.643 L 362.526, 370.185 L 347.572, 363.802 L 358.696, 348.667 L 352.314, 345.931 L 350.855, 347.937 L 349.031, 347.025 L 346.843, 349.943 L 340.825, 347.39 L 333.349, 357.784 L 321.313, 352.678 L 316.572, 350.672 z "/>
<path style="fill:rgb(0, 255, 0);fill-opacity:0;fill-rule:evenodd;stroke:rgb(0, 186, 255);stroke-width:1;" d="M 834.83, 562.754 L 854.342, 536.494 L 850.331, 534.853 L 857.625, 525.006 L 882.608, 535.582 L 872.396, 549.077 L 870.755, 548.53 L 863.643, 558.012 L 877.319, 563.848 L 884.431, 554.365 L 881.696, 553.089 L 891.726, 539.594 L 915.25, 549.442 L 887.714, 586.278 L 876.772, 581.536 L 860.543, 574.607 L 861.09, 573.695 L 834.83, 562.754 z "/>
<path style="fill:rgb(0, 0, 255);fill-opacity:0;fill-rule:evenodd;stroke:rgb(0, 186, 255);stroke-width:1;" d="M 448.598, 168.68 L 464.098, 146.98 L 465.922, 146.25 L 477.958, 129.838 L 493.823, 136.403 L 491.817, 139.138 L 491.087, 142.056 L 508.047, 149.168 L 511.147, 144.791 L 509.688, 144.244 L 510.235, 143.333 L 528.288, 150.809 L 499.84, 190.016 L 479.416, 181.445 L 494.734, 160.292 L 485.252, 156.28 L 469.934, 177.433 L 448.598, 168.68 z "/>
<path style="fill:rgb(255, 255, 0);fill-opacity:0;fill-rule:evenodd;stroke:rgb(0, 186, 255);stroke-width:1;" d="M 301.071, 255.664 L 310.372, 242.899 L 313.654, 244.358 L 331.707, 219.74 L 381.491, 240.711 L 367.267, 260.223 L 365.079, 259.312 L 361.249, 264.418 L 367.267, 266.971 L 357.784, 279.918 L 334.078, 269.888 L 345.566, 254.023 L 346.843, 254.57 L 353.043, 246.182 L 340.825, 241.076 L 334.625, 249.464 L 335.719, 249.829 L 324.231, 265.512 L 301.071, 255.664 z "/>
<path style="fill:rgb(255, 0, 0);fill-opacity:0;fill-rule:evenodd;stroke:rgb(0, 186, 255);stroke-width:1;" d="M 671.803, 500.935 L 685.845, 481.605 L 706.998, 490.54 L 712.469, 482.881 L 691.315, 473.946 L 701.892, 459.357 L 751.675, 480.146 L 741.099, 494.552 L 719.398, 485.617 L 712.833, 494.552 L 718.669, 497.105 L 720.492, 494.552 L 734.534, 500.388 L 721.951, 517.529 L 688.58, 503.67 L 686.209, 506.952 L 682.562, 505.494 L 671.803, 500.935 z "/>
<path style="fill:rgb(0, 255, 0);fill-opacity:0;fill-rule:evenodd;stroke:rgb(0, 186, 255);stroke-width:1;" d="M 882.425, 352.314 L 890.814, 340.825 L 892.455, 338.455 L 896.467, 340.096 L 911.055, 320.036 L 931.479, 328.425 L 926.191, 335.902 L 931.115, 337.907 L 933.85, 338.272 L 938.774, 331.525 L 961.386, 340.825 L 951.903, 353.955 L 950.444, 353.408 L 948.986, 355.414 L 950.444, 355.961 L 946.433, 361.614 L 950.262, 363.073 L 948.803, 365.261 L 940.597, 376.567 L 915.614, 366.173 L 921.814, 357.42 L 922.909, 357.784 L 929.473, 348.667 L 918.532, 344.29 L 911.967, 353.225 L 913.244, 353.773 L 906.861, 362.526 L 882.425, 352.314 z "/>
<path style="fill:rgb(0, 0, 255);fill-opacity:0;fill-rule:evenodd;stroke:rgb(0, 186, 255);stroke-width:1;" d="M 384.226, 141.691 L 393.709, 128.379 L 396.444, 129.656 L 411.397, 109.049 L 431.274, 117.256 L 426.533, 124.185 L 432.004, 126.373 L 432.551, 125.644 L 434.739, 126.556 L 439.298, 120.356 L 461.728, 129.656 L 452.61, 142.238 L 451.516, 141.691 L 449.692, 144.244 L 451.151, 144.791 L 447.504, 149.897 L 451.333, 151.356 L 441.486, 164.851 L 417.415, 155.003 L 423.615, 146.25 L 424.345, 146.615 L 430.545, 138.044 L 419.968, 133.668 L 413.403, 142.603 L 414.68, 142.968 L 408.297, 151.903 L 384.226, 141.691 z "/>
<path style="fill:rgb(255, 255, 0);fill-opacity:0;fill-rule:evenodd;stroke:rgb(0, 186, 255);stroke-width:1;" d="M 919.991, 308.913 L 934.944, 288.671 L 931.115, 287.03 L 932.756, 284.842 L 940.597, 274.083 L 965.215, 284.659 L 959.198, 292.683 L 958.103, 292.136 L 951.356, 301.254 L 962.298, 305.995 L 969.045, 296.877 L 967.404, 296.148 L 973.421, 288.124 L 997.857, 298.336 L 989.834, 309.277 L 988.375, 311.283 L 984.363, 309.642 L 969.592, 329.884 L 949.533, 321.495 L 954.456, 314.93 L 948.803, 312.56 L 946.068, 312.013 L 941.691, 318.031 L 919.991, 308.913 z "/>
<path style="fill:rgb(255, 0, 0);fill-opacity:0;fill-rule:evenodd;stroke:rgb(0, 186, 255);stroke-width:1;" d="M 416.868, 96.6492 L 424.527, 85.8901 L 428.539, 87.7137 L 445.133, 64.7367 L 452.792, 68.0191 L 450.057, 71.8486 L 455.163, 74.0369 L 458.081, 70.2074 L 465.557, 73.3075 L 450.239, 94.4609 L 458.992, 98.108 L 474.31, 76.9546 L 481.422, 80.0547 L 478.869, 83.5195 L 484.522, 85.8901 L 487.075, 82.243 L 494.552, 85.5254 L 477.775, 108.502 L 481.605, 110.144 L 473.946, 120.538 L 416.868, 96.6492 z "/>
<path style="fill:rgb(0, 255, 0);fill-opacity:0;fill-rule:evenodd;stroke:rgb(0, 186, 255);stroke-width:1;" d="M 562.754, 649.556 L 574.972, 632.596 L 603.419, 644.45 L 601.96, 646.273 L 606.519, 648.279 L 613.084, 639.161 L 608.525, 637.338 L 607.431, 638.796 L 578.983, 626.943 L 591.201, 609.984 L 603.237, 615.09 L 607.249, 616.731 L 604.513, 620.561 L 610.349, 622.931 L 611.078, 622.02 L 637.52, 632.961 L 613.266, 666.515 L 586.825, 655.573 L 587.372, 654.661 L 578.436, 650.832 L 575.519, 654.844 L 562.754, 649.556 z "/>
<path style="fill:rgb(0, 0, 255);fill-opacity:0;fill-rule:evenodd;stroke:rgb(0, 186, 255);stroke-width:1;" d="M 226.67, 778.117 L 240.346, 759.334 L 235.788, 757.328 L 242.899, 747.481 L 300.16, 771.552 L 299.795, 772.099 L 294.142, 779.758 L 293.048, 781.4 L 288.124, 779.394 L 274.447, 798.176 L 226.67, 778.117 z "/>
<path style="fill:rgb(255, 255, 0);fill-opacity:0;fill-rule:evenodd;stroke:rgb(0, 186, 255);stroke-width:1;" d="M 343.925, 505.311 L 360.702, 482.334 L 368.179, 472.852 L 389.697, 482.334 L 376.932, 499.293 L 384.044, 502.393 L 397.356, 484.887 L 419.603, 494.37 L 404.832, 514.064 L 404.103, 513.882 L 394.256, 527.012 L 378.573, 520.264 L 382.585, 514.611 L 377.114, 512.241 L 377.661, 511.329 L 368.361, 507.317 L 363.437, 513.882 L 358.514, 511.694 L 343.925, 505.311 z "/>
<path style="fill:rgb(255, 0, 0);fill-opacity:0;fill-rule:evenodd;stroke:rgb(0, 186, 255);stroke-width:1;" d="M 784.682, 541.6 L 802.553, 517.894 L 798.176, 516.07 L 807.294, 503.852 L 828.63, 512.788 L 817.871, 527.012 L 825.895, 530.476 L 836.471, 516.07 L 857.625, 525.006 L 850.331, 534.853 L 848.507, 537.406 L 845.042, 535.947 L 827.354, 559.654 L 810.577, 552.542 L 814.953, 546.524 L 815.318, 544.153 L 808.935, 541.418 L 806.565, 542.694 L 801.824, 548.894 L 784.682, 541.6 z "/>
<path style="fill:rgb(0, 255, 0);fill-opacity:0;fill-rule:evenodd;stroke:rgb(0, 186, 255);stroke-width:1;" d="M 734.351, 520.629 L 751.493, 497.652 L 747.299, 496.011 L 757.328, 482.517 L 778.482, 491.634 L 764.623, 510.417 L 772.099, 513.517 L 785.959, 494.734 L 807.294, 503.852 L 798.176, 516.07 L 797.265, 517.164 L 793.8, 515.705 L 776.841, 538.318 L 759.881, 531.206 L 765.717, 523.182 L 757.876, 519.717 L 751.858, 527.923 L 734.351, 520.629 z "/>
<path style="fill:rgb(0, 0, 255);fill-opacity:0;fill-rule:evenodd;stroke:rgb(0, 186, 255);stroke-width:1;" d="M 760.793, 151.903 L 769.182, 140.233 L 773.376, 141.874 L 793.8, 113.791 L 809.118, 120.173 L 797.447, 136.403 L 805.288, 139.685 L 817.689, 122.726 L 833.371, 129.291 L 811.853, 158.651 L 815.865, 160.292 L 807.841, 171.598 L 787.782, 163.209 L 796.9, 150.809 L 789.423, 147.709 L 780.488, 160.109 L 760.793, 151.903 z "/>
<path style="fill:rgb(255, 255, 0);fill-opacity:0;fill-rule:evenodd;stroke:rgb(0, 186, 255);stroke-width:1;" d="M 696.239, 565.489 L 698.974, 561.659 L 705.174, 553.271 L 720.857, 560.018 L 723.592, 558.559 L 722.681, 557.648 L 730.157, 547.253 L 726.145, 545.612 L 725.234, 546.889 L 714.11, 542.147 L 723.045, 530.112 L 773.011, 551.083 L 764.076, 563.118 L 747.664, 556.189 L 744.381, 560.748 L 745.658, 561.295 L 742.74, 565.307 L 740.734, 565.854 L 740.734, 568.042 L 756.052, 574.242 L 755.687, 574.789 L 746.934, 586.825 L 725.234, 577.707 L 725.963, 576.613 L 718.486, 573.513 L 717.757, 574.607 L 696.239, 565.489 z "/>
<path style="fill:rgb(255, 0, 0);fill-opacity:0;fill-rule:evenodd;stroke:rgb(0, 186, 255);stroke-width:1;" d="M 746.934, 586.825 L 755.687, 574.789 L 770.641, 580.989 L 773.194, 579.53 L 772.829, 578.072 L 775.747, 574.242 L 777.752, 575.154 L 781.217, 570.413 L 764.076, 563.118 L 773.011, 551.083 L 823.524, 572.236 L 822.43, 573.695 L 814.406, 584.636 L 802.918, 579.713 L 804.012, 578.254 L 800, 576.613 L 792.523, 586.825 L 791.065, 587.554 L 790.882, 589.378 L 806.2, 595.76 L 805.288, 597.037 L 797.265, 607.978 L 776.111, 599.043 L 776.841, 598.131 L 769.546, 595.031 L 768.817, 595.943 L 746.934, 586.825 z "/>
<path style="fill:rgb(0, 255, 0);fill-opacity:0;fill-rule:evenodd;stroke:rgb(0, 186, 255);stroke-width:1;" d="M 293.412, 651.744 L 301.801, 640.073 L 316.025, 646.091 L 325.142, 633.326 L 310.919, 627.308 L 322.589, 611.261 L 366.537, 629.679 L 357.055, 642.991 L 345.019, 637.885 L 333.166, 653.02 L 345.931, 658.309 L 337.36, 669.979 L 293.412, 651.744 z "/>
<path style="fill:rgb(0, 0, 255);fill-opacity:0;fill-rule:evenodd;stroke:rgb(0, 186, 255);stroke-width:1;" d="M 715.022, 132.574 L 723.592, 121.085 L 727.057, 122.544 L 746.205, 96.4668 L 761.523, 102.849 L 750.581, 117.803 L 758.423, 120.903 L 769.911, 105.038 L 785.229, 111.602 L 765.535, 138.591 L 769.182, 140.233 L 760.793, 151.903 L 741.463, 143.697 L 750.399, 131.297 L 744.381, 128.744 L 743.105, 128.197 L 733.987, 140.597 L 715.022, 132.574 z "/>
<path style="fill:rgb(255, 255, 0);fill-opacity:0;fill-rule:evenodd;stroke:rgb(0, 186, 255);stroke-width:1;" d="M 616.731, 700.251 L 624.39, 689.856 L 628.949, 691.68 L 632.049, 687.486 L 631.32, 687.303 L 650.65, 660.679 L 669.797, 668.703 L 662.685, 678.368 L 661.773, 678.003 L 659.403, 681.286 L 667.791, 684.75 L 677.274, 671.803 L 686.209, 675.633 L 666.879, 702.257 L 666.332, 701.892 L 663.05, 706.269 L 667.609, 708.092 L 660.315, 718.122 L 642.261, 710.827 L 653.932, 694.78 L 646.82, 691.68 L 635.149, 707.727 L 616.731, 700.251 z "/>
<path style="fill:rgb(255, 0, 0);fill-opacity:0;fill-rule:evenodd;stroke:rgb(0, 186, 255);stroke-width:1;" d="M 660.315, 718.122 L 667.609, 708.092 L 671.985, 710.098 L 675.45, 705.539 L 674.903, 705.174 L 694.051, 678.915 L 703.351, 682.927 L 694.051, 695.874 L 701.892, 699.157 L 704.627, 695.509 L 703.898, 695.145 L 710.645, 686.027 L 729.61, 693.868 L 710.463, 720.128 L 710.098, 719.945 L 706.633, 724.504 L 710.645, 726.145 L 704.263, 734.716 L 703.351, 735.993 L 685.662, 728.698 L 697.333, 712.833 L 689.856, 709.733 L 678.186, 725.598 L 660.315, 718.122 z "/>
<path style="fill:rgb(0, 255, 0);fill-opacity:0;fill-rule:evenodd;stroke:rgb(0, 186, 255);stroke-width:1;" d="M 399.909, 609.802 L 408.297, 598.496 L 411.762, 599.954 L 432.733, 571.507 L 446.592, 577.525 L 440.574, 585.913 L 445.68, 588.101 L 449.51, 587.189 L 454.434, 580.625 L 468.293, 586.642 L 447.139, 614.908 L 450.604, 616.367 L 442.033, 627.855 L 424.892, 620.378 L 433.645, 608.708 L 433.463, 605.425 L 436.016, 601.778 L 431.092, 599.59 L 428.357, 603.237 L 425.439, 604.878 L 416.686, 616.914 L 399.909, 609.802 z "/>
<path style="fill:rgb(0, 0, 255);fill-opacity:0;fill-rule:evenodd;stroke:rgb(0, 186, 255);stroke-width:1;" d="M 407.203, 546.524 L 424.892, 522.635 L 439.48, 502.941 L 469.022, 515.705 L 458.81, 529.382 L 438.021, 557.283 L 424.162, 551.265 L 422.886, 553.089 L 407.203, 546.524 z "/>
<path style="fill:rgb(255, 255, 0);fill-opacity:0;fill-rule:evenodd;stroke:rgb(0, 186, 255);stroke-width:1;" d="M 444.222, 555.095 L 462.275, 530.841 L 458.81, 529.382 L 469.022, 515.705 L 486.164, 523 L 477.228, 535.035 L 477.775, 537.406 L 482.334, 539.412 L 485.07, 538.5 L 494.005, 526.282 L 511.876, 533.941 L 501.664, 547.8 L 497.835, 546.159 L 479.964, 570.413 L 466.287, 564.577 L 476.681, 550.718 L 468.84, 547.253 L 458.445, 561.112 L 444.222, 555.095 z "/>
<path style="fill:rgb(255, 0, 0);fill-opacity:0;fill-rule:evenodd;stroke:rgb(0, 186, 255);stroke-width:1;" d="M 101.208, 642.261 L 117.803, 619.649 L 118.897, 620.014 L 121.45, 616.367 L 138.956, 623.661 L 135.309, 628.584 L 131.662, 627.126 L 129.109, 630.773 L 148.621, 638.979 L 154.821, 630.59 L 156.462, 631.32 L 171.78, 637.702 L 173.421, 638.432 L 154.274, 664.691 L 101.208, 642.261 z "/>
<path style="fill:rgb(0, 255, 0);fill-opacity:0;fill-rule:evenodd;stroke:rgb(0, 186, 255);stroke-width:1;" d="M 618.19, 182.175 L 626.579, 170.504 L 635.332, 174.151 L 643.173, 163.574 L 634.42, 159.927 L 642.808, 148.621 L 686.209, 166.857 L 677.821, 178.345 L 665.421, 173.239 L 663.597, 175.61 L 664.691, 176.157 L 663.597, 177.798 L 662.32, 177.251 L 657.214, 184.181 L 669.615, 189.469 L 661.591, 200.593 L 618.19, 182.175 z "/>
<path style="fill:rgb(0, 0, 255);fill-opacity:0;fill-rule:evenodd;stroke:rgb(0, 186, 255);stroke-width:1;" d="M 807.841, 171.598 L 815.865, 160.292 L 819.33, 161.751 L 841.213, 131.662 L 843.401, 132.574 L 844.313, 131.297 L 850.695, 134.032 L 845.772, 140.78 L 853.248, 143.88 L 858.719, 136.403 L 873.49, 142.786 L 856.895, 165.58 L 846.136, 161.021 L 840.848, 168.133 L 851.789, 172.692 L 842.124, 186.004 L 807.841, 171.598 z "/>
<path style="fill:rgb(255, 255, 0);fill-opacity:0;fill-rule:evenodd;stroke:rgb(0, 186, 255);stroke-width:1;" d="M 448.78, 630.226 L 463.734, 609.984 L 464.646, 610.349 L 468.475, 605.243 L 501.664, 619.467 L 504.035, 616.184 L 506.77, 617.461 L 521.176, 623.661 L 500.388, 651.744 L 478.14, 642.261 L 489.081, 627.49 L 481.058, 624.026 L 469.934, 639.161 L 448.78, 630.226 z "/>
<path style="fill:rgb(255, 0, 0);fill-opacity:0;fill-rule:evenodd;stroke:rgb(0, 186, 255);stroke-width:1;" d="M 297.607, 566.036 L 316.389, 540.871 L 330.066, 546.706 L 332.984, 547.983 L 328.79, 553.818 L 343.196, 560.018 L 340.096, 564.212 L 345.931, 566.765 L 353.225, 556.918 L 367.996, 563.301 L 365.443, 566.583 L 366.355, 567.13 L 350.49, 588.648 L 297.607, 566.036 z "/>
<path style="fill:rgb(0, 255, 0);fill-opacity:0;fill-rule:evenodd;stroke:rgb(0, 186, 255);stroke-width:1;" d="M 364.349, 64.7367 L 382.95, 39.0244 L 435.286, 60.7249 L 419.421, 82.4253 L 418.327, 81.8783 L 415.044, 86.6196 L 399.179, 79.8724 L 406.109, 70.3898 L 387.509, 62.7308 L 381.126, 71.6663 L 364.349, 64.7367 z "/>
<path style="fill:rgb(0, 0, 255);fill-opacity:0;fill-rule:evenodd;stroke:rgb(0, 186, 255);stroke-width:1;" d="M 326.237, 117.62 L 345.019, 91.3608 L 361.979, 98.4728 L 355.231, 107.773 L 360.702, 109.961 L 361.796, 108.502 L 363.437, 109.232 L 362.161, 110.873 L 373.102, 115.432 L 379.85, 106.132 L 395.532, 112.697 L 392.25, 117.073 L 393.344, 117.62 L 377.844, 139.138 L 326.237, 117.62 z "/>
<path style="fill:rgb(255, 255, 0);fill-opacity:0;fill-rule:evenodd;stroke:rgb(0, 186, 255);stroke-width:1;" d="M 239.799, 451.151 L 241.623, 448.416 L 241.076, 448.233 L 256.941, 426.533 L 311.283, 449.145 L 293.777, 473.399 L 277.547, 466.651 L 276.271, 466.104 L 282.106, 457.898 L 277.912, 456.075 L 275.906, 458.81 L 265.694, 454.616 L 268.429, 450.786 L 262.412, 448.416 L 255.664, 457.716 L 239.799, 451.151 z "/>
<path style="fill:rgb(255, 0, 0);fill-opacity:0;fill-rule:evenodd;stroke:rgb(0, 186, 255);stroke-width:1;" d="M 585.183, 175.792 L 613.996, 136.403 L 642.808, 148.621 L 634.42, 159.927 L 626.579, 170.504 L 618.19, 182.175 L 613.996, 187.828 L 602.872, 183.086 L 585.183, 175.792 z "/>
<path style="fill:rgb(0, 255, 0);fill-opacity:0;fill-rule:evenodd;stroke:rgb(0, 186, 255);stroke-width:1;" d="M 361.614, 750.581 L 377.297, 728.698 L 378.938, 729.428 L 380.397, 727.422 L 396.626, 733.987 L 392.25, 740.187 L 407.568, 746.569 L 411.762, 740.734 L 418.509, 743.469 L 430.362, 748.393 L 413.221, 772.099 L 361.614, 750.581 z "/>
<path style="fill:rgb(0, 0, 255);fill-opacity:0;fill-rule:evenodd;stroke:rgb(0, 186, 255);stroke-width:1;" d="M 211.534, 687.303 L 229.223, 662.868 L 244.723, 669.25 L 240.894, 674.538 L 255.117, 680.374 L 251.835, 684.933 L 258.217, 687.668 L 265.329, 677.821 L 269.888, 679.644 L 279.553, 683.656 L 277.183, 686.939 L 278.277, 687.486 L 262.959, 708.639 L 211.534, 687.303 z "/>
<path style="fill:rgb(255, 255, 0);fill-opacity:0;fill-rule:evenodd;stroke:rgb(0, 186, 255);stroke-width:1;" d="M 229.223, 662.868 L 245.452, 640.438 L 288.489, 658.309 L 297.607, 662.138 L 293.959, 667.244 L 276.088, 659.95 L 272.259, 665.238 L 294.506, 674.538 L 286.848, 685.297 L 270.618, 678.55 L 269.888, 679.644 L 265.329, 677.821 L 244.723, 669.25 L 229.223, 662.868 z "/>
<path style="fill:rgb(255, 0, 0);fill-opacity:0;fill-rule:evenodd;stroke:rgb(0, 186, 255);stroke-width:1;" d="M 496.558, 555.459 L 512.423, 534.306 L 563.118, 556.006 L 547.253, 577.16 L 522.635, 566.765 L 496.558, 555.459 z "/>
<path style="fill:rgb(0, 255, 0);fill-opacity:0;fill-rule:evenodd;stroke:rgb(0, 186, 255);stroke-width:1;" d="M 121.085, 398.45 L 138.044, 374.926 L 189.834, 396.626 L 172.874, 419.968 L 157.009, 413.403 L 162.662, 405.562 L 155.915, 402.644 L 154.639, 404.468 L 141.509, 398.997 L 137.315, 405.015 L 121.085, 398.45 z "/>
<path style="fill:rgb(0, 0, 255);fill-opacity:0;fill-rule:evenodd;stroke:rgb(0, 186, 255);stroke-width:1;" d="M 581.172, 374.014 L 589.56, 362.708 L 599.407, 366.902 L 603.419, 361.432 L 601.96, 360.884 L 603.784, 358.331 L 605.243, 359.061 L 609.984, 352.496 L 600.319, 348.302 L 608.89, 336.631 L 644.997, 351.949 L 636.608, 363.437 L 626.396, 359.061 L 622.749, 364.349 L 624.208, 364.896 L 623.114, 366.72 L 621.473, 365.99 L 615.637, 373.832 L 625.667, 378.208 L 617.461, 389.514 L 581.172, 374.014 z "/>
<path style="fill:rgb(255, 255, 0);fill-opacity:0;fill-rule:evenodd;stroke:rgb(0, 186, 255);stroke-width:1;" d="M 749.122, 219.922 L 763.893, 199.681 L 816.412, 221.928 L 799.088, 245.635 L 783.041, 238.705 L 780.305, 237.611 L 787.417, 228.129 L 777.205, 223.934 L 772.829, 229.952 L 749.122, 219.922 z "/>
<path style="fill:rgb(255, 0, 0);fill-opacity:0;fill-rule:evenodd;stroke:rgb(0, 186, 255);stroke-width:1;" d="M 545.977, 359.061 L 554.548, 347.572 L 564.395, 351.584 L 574.789, 337.36 L 565.124, 333.166 L 573.695, 321.678 L 608.89, 336.631 L 600.319, 348.302 L 591.566, 344.472 L 586.642, 351.037 L 587.919, 351.584 L 586.46, 353.59 L 585.183, 353.043 L 580.807, 359.061 L 589.56, 362.708 L 581.172, 374.014 L 545.977, 359.061 z "/>
<path style="fill:rgb(0, 255, 0);fill-opacity:0;fill-rule:evenodd;stroke:rgb(0, 186, 255);stroke-width:1;" d="M 661.591, 200.593 L 669.615, 189.469 L 674.903, 191.657 L 678.55, 192.022 L 681.286, 188.192 L 679.644, 187.463 L 680.739, 186.186 L 682.38, 186.734 L 686.027, 181.81 L 677.821, 178.345 L 686.209, 166.857 L 722.498, 182.175 L 714.11, 193.663 L 705.539, 190.016 L 699.886, 197.675 L 698.427, 199.681 L 698.427, 201.504 L 706.086, 204.605 L 697.88, 215.911 L 661.591, 200.593 z "/>
<path style="fill:rgb(0, 0, 255);fill-opacity:0;fill-rule:evenodd;stroke:rgb(0, 186, 255);stroke-width:1;" d="M 665.056, 260.223 L 673.627, 248.553 L 681.468, 251.835 L 689.492, 241.076 L 681.65, 237.793 L 689.674, 226.67 L 725.598, 241.805 L 717.392, 252.929 L 712.286, 250.741 L 708.822, 250.194 L 706.086, 253.841 L 707.18, 254.388 L 706.269, 255.664 L 705.174, 255.117 L 701.345, 260.223 L 709.369, 263.688 L 700.798, 275.359 L 665.056, 260.223 z "/>
<path style="fill:rgb(255, 255, 0);fill-opacity:0;fill-rule:evenodd;stroke:rgb(0, 186, 255);stroke-width:1;" d="M 345.019, 91.3608 L 364.349, 64.7367 L 381.126, 71.6663 L 377.661, 76.4076 L 411.397, 90.6314 L 398.815, 108.138 L 365.079, 94.0962 L 361.979, 98.4728 L 345.019, 91.3608 z "/>
<path style="fill:rgb(255, 0, 0);fill-opacity:0;fill-rule:evenodd;stroke:rgb(0, 186, 255);stroke-width:1;" d="M 629.314, 245.088 L 638.067, 233.052 L 646.273, 236.517 L 651.379, 229.587 L 652.838, 230.134 L 654.297, 228.129 L 653.567, 225.758 L 646.091, 222.658 L 654.114, 211.534 L 689.674, 226.67 L 681.65, 237.793 L 674.174, 234.511 L 667.062, 244.176 L 668.156, 246.364 L 673.627, 248.553 L 665.056, 260.223 L 629.314, 245.088 z "/>
<path style="fill:rgb(0, 255, 0);fill-opacity:0;fill-rule:evenodd;stroke:rgb(0, 186, 255);stroke-width:1;" d="M 697.88, 215.911 L 706.086, 204.605 L 713.198, 207.522 L 720.31, 197.857 L 718.669, 195.669 L 714.11, 193.663 L 722.498, 182.175 L 757.876, 197.128 L 749.487, 208.616 L 741.099, 205.152 L 736.175, 211.899 L 735.081, 211.534 L 733.257, 214.087 L 733.804, 216.275 L 741.463, 219.558 L 733.257, 230.864 L 697.88, 215.911 z "/>
<path style="fill:rgb(0, 0, 255);fill-opacity:0;fill-rule:evenodd;stroke:rgb(0, 186, 255);stroke-width:1;" d="M 398.815, 700.615 L 413.586, 680.191 L 425.256, 685.115 L 421.974, 689.492 L 427.992, 692.045 L 433.28, 684.75 L 447.139, 690.403 L 442.216, 697.151 L 447.504, 699.339 L 450.239, 695.327 L 464.281, 701.163 L 449.51, 721.587 L 435.286, 715.751 L 438.204, 711.739 L 432.368, 709.369 L 427.627, 716.116 L 413.95, 710.463 L 418.327, 704.263 L 413.768, 702.439 L 411.215, 705.904 L 398.815, 700.615 z "/>
<path style="fill:rgb(255, 255, 0);fill-opacity:0;fill-rule:evenodd;stroke:rgb(0, 186, 255);stroke-width:1;" d="M 769.182, 367.449 L 785.047, 345.566 L 837.201, 367.449 L 821.153, 389.514 L 819.33, 388.785 L 806.018, 383.314 L 811.488, 375.838 L 807.659, 374.196 L 806.565, 375.838 L 792.523, 370.002 L 793.8, 368.179 L 789.97, 366.537 L 788.329, 368.908 L 788.329, 370.367 L 786.688, 372.373 L 784.317, 373.832 L 769.182, 367.449 z "/>
<path style="fill:rgb(255, 0, 0);fill-opacity:0;fill-rule:evenodd;stroke:rgb(0, 186, 255);stroke-width:1;" d="M 124.55, 612.172 L 139.685, 591.566 L 155.55, 598.131 L 150.809, 604.696 L 150.627, 606.519 L 153.909, 607.978 L 155.55, 605.607 L 169.774, 611.443 L 173.969, 605.972 L 190.016, 612.719 L 171.78, 637.702 L 156.462, 631.32 L 160.839, 625.302 L 159.745, 623.478 L 157.009, 622.202 L 155.003, 625.12 L 124.55, 612.172 z "/>
<path style="fill:rgb(0, 255, 0);fill-opacity:0;fill-rule:evenodd;stroke:rgb(0, 186, 255);stroke-width:1;" d="M 826.077, 620.014 L 833.736, 609.437 L 835.377, 607.431 L 842.307, 610.349 L 851.972, 597.037 L 845.042, 594.119 L 851.242, 585.731 L 853.248, 582.995 L 881.696, 595.031 L 854.707, 632.049 L 826.077, 620.014 z "/>
<path style="fill:rgb(0, 0, 255);fill-opacity:0;fill-rule:evenodd;stroke:rgb(0, 186, 255);stroke-width:1;" d="M 547.071, 671.256 L 562.754, 649.556 L 575.519, 654.844 L 578.801, 656.12 L 574.607, 661.956 L 593.025, 669.615 L 596.854, 664.326 L 612.172, 670.527 L 596.672, 691.862 L 547.071, 671.256 z "/>
<path style="fill:rgb(255, 255, 0);fill-opacity:0;fill-rule:evenodd;stroke:rgb(0, 186, 255);stroke-width:1;" d="M 850.331, 123.273 L 858.537, 111.785 L 863.46, 113.791 L 866.925, 113.791 L 875.313, 102.12 L 869.296, 99.5669 L 868.566, 97.7433 L 876.59, 86.6196 L 905.585, 98.8375 L 879.69, 134.397 L 850.331, 123.273 z "/>
<path style="fill:rgb(255, 0, 0);fill-opacity:0;fill-rule:evenodd;stroke:rgb(0, 186, 255);stroke-width:1;" d="M 381.673, 724.322 L 394.985, 706.086 L 407.203, 711.192 L 405.015, 714.292 L 409.756, 716.298 L 413.95, 710.463 L 427.627, 716.116 L 423.251, 722.134 L 429.268, 724.687 L 431.457, 721.404 L 445.498, 727.24 L 430.362, 748.393 L 418.509, 743.469 L 422.339, 738.181 L 417.78, 736.357 L 415.956, 738.728 L 410.303, 736.54 L 412.127, 733.987 L 407.933, 732.346 L 406.291, 734.716 L 381.673, 724.322 z "/>
<path style="fill:rgb(0, 255, 0);fill-opacity:0;fill-rule:evenodd;stroke:rgb(0, 186, 255);stroke-width:1;" d="M 512.97, 719.034 L 528.288, 698.062 L 553.089, 708.457 L 582.63, 720.675 L 569.318, 739.093 L 562.207, 736.175 L 567.13, 729.245 L 561.295, 726.875 L 558.559, 727.422 L 554.548, 732.893 L 543.606, 728.334 L 549.624, 720.128 L 541.965, 716.845 L 533.941, 727.787 L 512.97, 719.034 z "/>
<path style="fill:rgb(0, 0, 255);fill-opacity:0;fill-rule:evenodd;stroke:rgb(0, 186, 255);stroke-width:1;" d="M 392.979, 438.386 L 397.173, 432.368 L 398.085, 432.733 L 416.868, 405.38 L 434.01, 412.309 L 432.004, 415.227 L 445.68, 420.698 L 440.757, 427.627 L 439.845, 429.268 L 440.939, 431.092 L 439.298, 433.28 L 436.745, 433.645 L 425.256, 429.086 L 421.427, 434.739 L 434.739, 439.845 L 426.351, 451.881 L 418.145, 448.598 L 418.509, 448.051 L 401.732, 441.486 L 401.55, 441.851 L 392.979, 438.386 z "/>
<path style="fill:rgb(255, 255, 0);fill-opacity:0;fill-rule:evenodd;stroke:rgb(0, 186, 255);stroke-width:1;" d="M 364.896, 683.292 L 373.649, 671.621 L 377.479, 673.262 L 378.391, 673.991 L 381.673, 675.45 L 383.314, 673.08 L 382.767, 671.985 L 391.885, 659.585 L 393.526, 659.038 L 394.803, 657.214 L 392.979, 655.209 L 390.791, 655.573 L 386.961, 653.932 L 395.715, 641.897 L 424.162, 653.932 L 415.409, 665.968 L 410.85, 663.962 L 410.486, 662.685 L 407.568, 662.138 L 406.109, 663.962 L 406.291, 665.603 L 397.173, 678.186 L 395.715, 678.368 L 394.073, 680.739 L 396.809, 682.197 L 398.815, 682.015 L 402.644, 683.656 L 393.891, 695.509 L 364.896, 683.292 z "/>
<path style="fill:rgb(255, 0, 0);fill-opacity:0;fill-rule:evenodd;stroke:rgb(0, 186, 255);stroke-width:1;" d="M 356.326, 591.019 L 365.079, 579.348 L 369.09, 580.989 L 369.455, 582.266 L 372.738, 582.813 L 374.014, 580.989 L 373.649, 579.895 L 382.767, 567.677 L 384.044, 567.495 L 385.867, 564.76 L 384.956, 563.483 L 383.132, 562.754 L 382.585, 563.301 L 378.391, 561.477 L 386.961, 549.806 L 415.592, 562.024 L 410.121, 569.318 L 406.838, 573.695 L 402.827, 571.871 L 402.462, 570.23 L 398.815, 569.866 L 396.626, 572.783 L 397.721, 573.33 L 388.42, 585.913 L 385.503, 588.284 L 387.691, 589.925 L 388.967, 589.56 L 393.709, 591.566 L 384.956, 603.419 L 356.326, 591.019 z "/>
<path style="fill:rgb(0, 255, 0);fill-opacity:0;fill-rule:evenodd;stroke:rgb(0, 186, 255);stroke-width:1;" d="M 155.368, 506.041 L 163.757, 494.37 L 171.963, 497.835 L 185.457, 479.052 L 183.451, 477.046 L 178.345, 474.858 L 186.004, 464.098 L 210.258, 474.128 L 189.651, 502.576 L 187.098, 501.482 L 185.639, 503.488 L 187.645, 504.217 L 186.734, 505.494 L 191.475, 507.499 L 183.816, 518.076 L 155.368, 506.041 z "/>
<path style="fill:rgb(0, 0, 255);fill-opacity:0;fill-rule:evenodd;stroke:rgb(0, 186, 255);stroke-width:1;" d="M 416.686, 674.356 L 429.451, 656.85 L 480.875, 678.186 L 467.928, 696.057 L 454.069, 690.221 L 456.804, 686.392 L 451.698, 684.203 L 447.139, 690.403 L 433.28, 684.75 L 438.021, 678.186 L 432.186, 675.633 L 429.268, 679.644 L 416.686, 674.356 z "/>
<path style="fill:rgb(255, 255, 0);fill-opacity:0;fill-rule:evenodd;stroke:rgb(0, 186, 255);stroke-width:1;" d="M 142.603, 778.482 L 158.833, 756.417 L 160.109, 756.964 L 173.786, 762.617 L 169.592, 768.452 L 173.239, 769.911 L 174.88, 767.54 L 207.522, 781.217 L 193.845, 800 L 181.81, 795.076 L 180.351, 794.347 L 184.91, 788.147 L 180.898, 786.506 L 180.351, 787.235 L 166.492, 781.217 L 166.857, 780.853 L 163.027, 779.211 L 158.651, 785.229 L 142.603, 778.482 z "/>
<path style="fill:rgb(255, 0, 0);fill-opacity:0;fill-rule:evenodd;stroke:rgb(0, 186, 255);stroke-width:1;" d="M 625.12, 327.331 L 633.508, 315.842 L 640.802, 318.942 L 651.379, 304.536 L 649.738, 303.807 L 650.832, 302.348 L 645.179, 299.977 L 652.838, 289.765 L 681.468, 301.801 L 673.627, 312.56 L 669.979, 310.919 L 650.103, 337.907 L 625.12, 327.331 z "/>
<path style="fill:rgb(0, 255, 0);fill-opacity:0;fill-rule:evenodd;stroke:rgb(0, 186, 255);stroke-width:1;" d="M 732.893, 77.137 L 742.01, 64.7367 L 750.764, 68.5662 L 752.952, 65.8309 L 751.675, 65.2838 L 758.058, 56.5307 L 759.152, 57.0777 L 761.523, 53.9777 L 752.77, 50.3305 L 761.523, 38.295 L 789.606, 49.9658 L 781.217, 61.6367 L 775.564, 59.266 L 773.376, 62.1837 L 775.199, 63.0955 L 757.328, 87.349 L 732.893, 77.137 z "/>
<path style="fill:rgb(0, 0, 255);fill-opacity:0;fill-rule:evenodd;stroke:rgb(0, 186, 255);stroke-width:1;" d="M 599.954, 316.572 L 620.014, 289.401 L 616.367, 287.759 L 617.278, 286.665 L 624.026, 277.547 L 652.838, 289.765 L 645.179, 299.977 L 638.796, 297.242 L 637.885, 298.518 L 636.791, 297.971 L 626.031, 312.56 L 633.508, 315.842 L 625.12, 327.331 L 599.954, 316.572 z "/>
<path style="fill:rgb(255, 255, 0);fill-opacity:0;fill-rule:evenodd;stroke:rgb(0, 186, 255);stroke-width:1;" d="M 476.863, 768.088 L 493.823, 745.111 L 509.141, 751.493 L 504.582, 757.876 L 509.141, 760.064 L 517.164, 758.605 L 538.135, 767.54 L 525.37, 785.047 L 491.817, 770.823 L 489.628, 773.558 L 476.863, 768.088 z "/>
<path style="fill:rgb(255, 0, 0);fill-opacity:0;fill-rule:evenodd;stroke:rgb(0, 186, 255);stroke-width:1;" d="M 471.393, 602.69 L 485.434, 583.725 L 518.623, 597.948 L 520.811, 594.848 L 535.4, 601.049 L 537.406, 601.96 L 521.176, 623.661 L 506.77, 617.461 L 510.782, 611.808 L 488.352, 602.325 L 483.975, 608.16 L 471.393, 602.69 z "/>
<path style="fill:rgb(0, 255, 0);fill-opacity:0;fill-rule:evenodd;stroke:rgb(0, 186, 255);stroke-width:1;" d="M 764.987, 90.2667 L 771.005, 81.8783 L 771.552, 82.0606 L 783.041, 66.1956 L 784.682, 66.925 L 786.87, 64.0073 L 781.217, 61.6367 L 789.606, 49.9658 L 818.6, 62.1837 L 810.212, 73.6722 L 801.094, 69.8427 L 798.724, 73.1251 L 799.635, 73.3075 L 793.07, 82.0606 L 792.341, 81.8783 L 790.153, 84.796 L 798.906, 88.4431 L 790.7, 99.5669 L 764.987, 90.2667 z "/>
<path style="fill:rgb(0, 0, 255);fill-opacity:0;fill-rule:evenodd;stroke:rgb(0, 186, 255);stroke-width:1;" d="M 571.142, 304.536 L 592.295, 275.906 L 588.648, 274.447 L 595.395, 265.329 L 624.026, 277.547 L 617.278, 286.665 L 612.719, 284.842 L 591.748, 313.289 L 571.142, 304.536 z "/>
<path style="fill:rgb(255, 255, 0);fill-opacity:0;fill-rule:evenodd;stroke:rgb(0, 186, 255);stroke-width:1;" d="M 365.261, 217.734 L 373.832, 206.063 L 381.673, 209.346 L 392.432, 194.757 L 384.591, 191.475 L 392.797, 180.351 L 421.792, 192.569 L 415.592, 201.14 L 411.58, 199.316 L 393.526, 223.752 L 389.514, 227.946 L 365.261, 217.734 z "/>
<path style="fill:rgb(255, 0, 0);fill-opacity:0;fill-rule:evenodd;stroke:rgb(0, 186, 255);stroke-width:1;" d="M 493.823, 745.111 L 510.964, 721.769 L 523.912, 727.24 L 521.723, 730.157 L 554.912, 744.381 L 542.33, 761.523 L 521.723, 752.77 L 521.176, 749.852 L 522.27, 748.575 L 513.882, 745.111 L 509.141, 751.493 L 493.823, 745.111 z "/>
<path style="fill:rgb(0, 255, 0);fill-opacity:0;fill-rule:evenodd;stroke:rgb(0, 186, 255);stroke-width:1;" d="M 794.529, 101.026 L 799.818, 93.5491 L 800.547, 93.9138 L 811.671, 78.4135 L 813.677, 79.1429 L 815.865, 76.0429 L 810.212, 73.6722 L 818.6, 62.1837 L 847.595, 74.4016 L 839.389, 85.7078 L 830.089, 81.8783 L 827.901, 84.796 L 828.63, 85.1607 L 823.342, 92.2726 L 822.065, 91.7256 L 819.33, 95.555 L 829.177, 99.5669 L 821.153, 110.691 L 794.529, 101.026 z "/>
<path style="fill:rgb(0, 0, 255);fill-opacity:0;fill-rule:evenodd;stroke:rgb(0, 186, 255);stroke-width:1;" d="M 341.919, 207.705 L 343.561, 204.422 L 362.343, 179.075 L 358.149, 177.251 L 364.714, 168.315 L 392.797, 180.351 L 384.591, 191.475 L 377.844, 188.557 L 373.467, 194.575 L 367.267, 203.146 L 373.832, 206.063 L 365.261, 217.734 L 341.919, 207.705 z "/>
<path style="fill:rgb(255, 255, 0);fill-opacity:0;fill-rule:evenodd;stroke:rgb(0, 186, 255);stroke-width:1;" d="M 259.312, 320.036 L 263.506, 314.383 L 262.412, 314.019 L 274.265, 297.789 L 277.365, 299.065 L 280.283, 295.054 L 273.9, 292.318 L 281.559, 282.106 L 310.007, 294.324 L 301.801, 305.63 L 300.16, 304.901 L 300.889, 303.807 L 295.236, 301.436 L 283.93, 316.572 L 291.406, 319.672 L 283.383, 330.431 L 259.312, 320.036 z "/>
<path style="fill:rgb(255, 0, 0);fill-opacity:0;fill-rule:evenodd;stroke:rgb(0, 186, 255);stroke-width:1;" d="M 821.153, 110.691 L 829.177, 99.5669 L 836.836, 102.849 L 846.866, 88.9902 L 839.389, 85.7078 L 847.595, 74.4016 L 876.59, 86.6196 L 868.566, 97.7433 L 863.643, 95.555 L 860.543, 95.7374 L 858.172, 99.0198 L 861.272, 100.296 L 846.866, 120.173 L 821.153, 110.691 z "/>
<path style="fill:rgb(0, 255, 0);fill-opacity:0;fill-rule:evenodd;stroke:rgb(0, 186, 255);stroke-width:1;" d="M 283.383, 330.431 L 291.406, 319.672 L 298.701, 322.772 L 309.824, 307.454 L 304.171, 305.083 L 303.26, 306.177 L 301.801, 305.63 L 310.007, 294.324 L 338.455, 306.542 L 331.16, 316.572 L 324.595, 313.654 L 321.495, 317.848 L 324.778, 319.125 L 312.742, 335.354 L 311.83, 334.99 L 307.636, 340.643 L 283.383, 330.431 z "/>
<path style="fill:rgb(0, 0, 255);fill-opacity:0;fill-rule:evenodd;stroke:rgb(0, 186, 255);stroke-width:1;" d="M 228.129, 467.928 L 237.976, 454.251 L 270.618, 467.928 L 269.888, 468.84 L 274.447, 470.846 L 277.547, 466.651 L 293.777, 473.399 L 279.736, 492.911 L 262.959, 485.981 L 265.876, 482.152 L 261.865, 480.511 L 260.953, 481.605 L 228.129, 467.928 z "/>
<path style="fill:rgb(255, 255, 0);fill-opacity:0;fill-rule:evenodd;stroke:rgb(0, 186, 255);stroke-width:1;" d="M 466.104, 468.475 L 473.581, 458.263 L 476.863, 459.722 L 495.829, 434.01 L 520.629, 444.586 L 514.064, 453.522 L 508.229, 450.969 L 505.676, 452.245 L 494.734, 467.199 L 499.84, 469.387 L 500.388, 468.475 L 502.393, 469.387 L 494.37, 480.328 L 466.104, 468.475 z "/>
<path style="fill:rgb(255, 0, 0);fill-opacity:0;fill-rule:evenodd;stroke:rgb(0, 186, 255);stroke-width:1;" d="M 797.265, 607.978 L 805.288, 597.037 L 812.4, 599.954 L 816.594, 594.301 L 818.053, 595.031 L 822.065, 589.378 L 813.494, 585.913 L 814.406, 584.636 L 822.43, 573.695 L 851.242, 585.731 L 845.042, 594.119 L 843.219, 596.49 L 837.566, 594.119 L 835.377, 595.213 L 826.989, 606.702 L 833.736, 609.437 L 826.077, 620.014 L 797.265, 607.978 z "/>
<path style="fill:rgb(0, 255, 0);fill-opacity:0;fill-rule:evenodd;stroke:rgb(0, 186, 255);stroke-width:1;" d="M 528.653, 433.098 L 536.677, 421.974 L 544.153, 425.074 L 547.071, 421.245 L 554.183, 411.58 L 546.706, 408.48 L 554.548, 397.721 L 583.36, 409.938 L 581.719, 412.127 L 575.883, 420.333 L 574.242, 419.603 L 574.607, 418.874 L 571.871, 417.78 L 569.501, 418.145 L 567.313, 421.062 L 569.136, 421.792 L 553.271, 443.492 L 528.653, 433.098 z "/>
<path style="fill:rgb(0, 0, 255);fill-opacity:0;fill-rule:evenodd;stroke:rgb(0, 186, 255);stroke-width:1;" d="M 494.37, 480.328 L 502.393, 469.387 L 503.852, 469.934 L 503.305, 470.663 L 508.776, 473.034 L 519.9, 458.081 L 519.353, 455.71 L 514.064, 453.522 L 520.629, 444.586 L 545.247, 454.798 L 526.1, 480.875 L 529.565, 482.334 L 523.912, 490.176 L 522.453, 492.181 L 494.37, 480.328 z "/>
<path style="fill:rgb(255, 255, 0);fill-opacity:0;fill-rule:evenodd;stroke:rgb(0, 186, 255);stroke-width:1;" d="M 504.217, 422.703 L 520.082, 401.185 L 522.27, 402.097 L 524.459, 398.997 L 523.182, 396.991 L 520.447, 395.897 L 520.082, 396.444 L 518.441, 395.715 L 525.735, 385.685 L 554.548, 397.721 L 546.706, 408.48 L 539.594, 405.562 L 529.747, 419.056 L 536.677, 421.974 L 528.653, 433.098 L 504.217, 422.703 z "/>
<path style="fill:rgb(255, 0, 0);fill-opacity:0;fill-rule:evenodd;stroke:rgb(0, 186, 255);stroke-width:1;" d="M 308.548, 370.002 L 321.313, 352.678 L 333.349, 357.784 L 347.572, 363.802 L 362.526, 370.185 L 352.496, 383.497 L 356.326, 385.138 L 353.408, 388.967 L 325.507, 377.114 L 308.548, 370.002 z "/>
<path style="fill:rgb(0, 255, 0);fill-opacity:0;fill-rule:evenodd;stroke:rgb(0, 186, 255);stroke-width:1;" d="M 316.389, 540.871 L 329.701, 522.817 L 330.613, 523.182 L 343.561, 528.653 L 341.372, 531.753 L 342.102, 533.759 L 344.472, 534.853 L 345.019, 533.941 L 346.478, 533.759 L 378.938, 547.618 L 369.82, 560.018 L 337.36, 546.159 L 337.907, 545.247 L 334.807, 543.971 L 332.072, 544.153 L 330.066, 546.706 L 316.389, 540.871 z "/>
<path style="fill:rgb(0, 0, 255);fill-opacity:0;fill-rule:evenodd;stroke:rgb(0, 186, 255);stroke-width:1;" d="M 330.613, 523.182 L 343.925, 505.311 L 358.514, 511.694 L 355.961, 515.158 L 391.885, 530.476 L 383.497, 541.783 L 348.302, 526.647 L 345.931, 529.747 L 343.561, 528.653 L 330.613, 523.182 z "/>
<path style="fill:rgb(255, 255, 0);fill-opacity:0;fill-rule:evenodd;stroke:rgb(0, 186, 255);stroke-width:1;" d="M 451.516, 462.275 L 465.01, 443.857 L 475.04, 430.18 L 475.952, 430.727 L 482.334, 422.156 L 494.187, 427.08 L 487.987, 435.468 L 489.628, 436.198 L 473.581, 458.263 L 466.104, 468.475 L 451.516, 462.275 z "/>
<path style="fill:rgb(255, 0, 0);fill-opacity:0;fill-rule:evenodd;stroke:rgb(0, 186, 255);stroke-width:1;" d="M 308.548, 387.691 L 314.93, 378.938 L 322.042, 381.855 L 325.507, 377.114 L 353.408, 388.967 L 340.278, 406.656 L 312.742, 394.985 L 315.842, 390.791 L 308.548, 387.691 z "/>
<path style="fill:rgb(0, 255, 0);fill-opacity:0;fill-rule:evenodd;stroke:rgb(0, 186, 255);stroke-width:1;" d="M 602.507, 694.415 L 610.896, 682.927 L 617.461, 685.662 L 619.831, 682.38 L 621.655, 681.103 L 632.414, 666.515 L 625.12, 663.415 L 632.596, 653.02 L 646.82, 659.038 L 624.39, 689.856 L 616.731, 700.251 L 602.507, 694.415 z "/>
<path style="fill:rgb(0, 0, 255);fill-opacity:0;fill-rule:evenodd;stroke:rgb(0, 186, 255);stroke-width:1;" d="M 641.714, 542.694 L 671.803, 500.935 L 682.562, 505.494 L 652.291, 547.253 L 641.714, 542.694 z "/>
<path style="fill:rgb(255, 255, 0);fill-opacity:0;fill-rule:evenodd;stroke:rgb(0, 186, 255);stroke-width:1;" d="M 384.956, 603.419 L 393.709, 591.566 L 406.838, 573.695 L 410.121, 569.318 L 421.974, 574.424 L 405.197, 597.219 L 408.297, 598.496 L 399.909, 609.802 L 384.956, 603.419 z "/>
<path style="fill:rgb(255, 0, 0);fill-opacity:0;fill-rule:evenodd;stroke:rgb(0, 186, 255);stroke-width:1;" d="M 850.148, 742.375 L 858.537, 731.069 L 892.273, 745.111 L 888.443, 750.399 L 883.884, 756.599 L 850.148, 742.375 z "/>
<path style="fill:rgb(0, 255, 0);fill-opacity:0;fill-rule:evenodd;stroke:rgb(0, 186, 255);stroke-width:1;" d="M 553.089, 451.151 L 575.883, 420.333 L 581.719, 412.127 L 591.384, 416.321 L 576.795, 436.198 L 562.754, 455.163 L 553.089, 451.151 z "/>
<path style="fill:rgb(0, 0, 255);fill-opacity:0;fill-rule:evenodd;stroke:rgb(0, 186, 255);stroke-width:1;" d="M 591.201, 609.984 L 613.996, 578.619 L 625.849, 583.542 L 611.99, 602.69 L 603.237, 615.09 L 591.201, 609.984 z "/>
<path style="fill:rgb(255, 255, 0);fill-opacity:0;fill-rule:evenodd;stroke:rgb(0, 186, 255);stroke-width:1;" d="M 101.39, 271.347 L 107.773, 263.506 L 125.462, 271.53 L 143.697, 280.1 L 140.78, 283.747 L 138.591, 282.836 L 134.032, 288.671 L 131.297, 287.395 L 130.75, 287.942 L 112.332, 279.371 L 114.703, 276.453 L 110.144, 274.265 L 109.414, 275.177 L 101.39, 271.347 z "/>
<path style="fill:rgb(255, 0, 0);fill-opacity:0;fill-rule:evenodd;stroke:rgb(0, 186, 255);stroke-width:1;" d="M 441.486, 458.081 L 458.081, 435.286 L 465.193, 425.621 L 473.216, 428.904 L 462.822, 442.945 L 465.01, 443.857 L 451.516, 462.275 L 441.486, 458.081 z "/>
<path style="fill:rgb(0, 255, 0);fill-opacity:0;fill-rule:evenodd;stroke:rgb(0, 186, 255);stroke-width:1;" d="M 1037.98, 495.646 L 1041.08, 491.634 L 1038.71, 490.54 L 1050.19, 475.405 L 1064.6, 481.605 L 1061.14, 486.164 L 1063.14, 487.075 L 1056.03, 496.558 L 1053.48, 495.646 L 1049.65, 500.752 L 1037.98, 495.646 z "/>
<path style="fill:rgb(0, 0, 255);fill-opacity:0;fill-rule:evenodd;stroke:rgb(0, 186, 255);stroke-width:1;" d="M 268.612, 382.038 L 281.559, 364.167 L 285.753, 358.514 L 290.13, 360.52 L 293.23, 356.326 L 299.612, 359.061 L 293.23, 367.996 L 280.283, 385.685 L 279.553, 386.779 L 268.612, 382.038 z "/>
<path style="fill:rgb(255, 255, 0);fill-opacity:0;fill-rule:evenodd;stroke:rgb(0, 186, 255);stroke-width:1;" d="M 299.795, 395.168 L 303.077, 390.791 L 312.742, 394.985 L 340.278, 406.656 L 334.625, 414.497 L 303.442, 401.368 L 305.995, 397.903 L 299.795, 395.168 z "/>
<path style="fill:rgb(255, 0, 0);fill-opacity:0;fill-rule:evenodd;stroke:rgb(0, 186, 255);stroke-width:1;" d="M 411.397, 516.8 L 425.986, 497.105 L 439.48, 502.941 L 424.892, 522.635 L 411.397, 516.8 z "/>
<path style="fill:rgb(0, 255, 0);fill-opacity:0;fill-rule:evenodd;stroke:rgb(0, 186, 255);stroke-width:1;" d="M 80.6018, 633.69 L 89.5373, 621.473 L 96.4668, 612.172 L 107.044, 616.731 L 101.573, 624.208 L 99.0198, 623.114 L 96.6492, 626.396 L 102.849, 628.949 L 95.1903, 639.708 L 80.6018, 633.69 z "/>
<path style="fill:rgb(0, 0, 255);fill-opacity:0;fill-rule:evenodd;stroke:rgb(0, 186, 255);stroke-width:1;" d="M 97.0139, 282.471 L 101.39, 276.453 L 134.215, 290.13 L 130.568, 295.236 L 128.015, 298.883 L 105.767, 289.583 L 107.591, 287.03 L 97.0139, 282.471 z "/>
<path style="fill:rgb(255, 255, 0);fill-opacity:0;fill-rule:evenodd;stroke:rgb(0, 186, 255);stroke-width:1;" d="M 116.526, 252.747 L 122.726, 244.358 L 127.832, 248.735 L 133.485, 251.106 L 134.762, 249.464 L 152.997, 256.941 L 146.25, 266.424 L 127.832, 258.765 L 128.562, 257.853 L 116.526, 252.747 z "/>
<path style="fill:rgb(255, 0, 0);fill-opacity:0;fill-rule:evenodd;stroke:rgb(0, 186, 255);stroke-width:1;" d="M 257.123, 377.114 L 270.071, 359.426 L 274.812, 352.861 L 281.194, 355.596 L 276.453, 361.979 L 281.559, 364.167 L 268.612, 382.038 L 257.123, 377.114 z "/>
<path style="fill:rgb(0, 255, 0);fill-opacity:0;fill-rule:evenodd;stroke:rgb(0, 186, 255);stroke-width:1;" d="M 222.658, 362.89 L 237.246, 343.013 L 241.805, 344.837 L 244.176, 341.555 L 250.923, 344.29 L 233.964, 367.449 L 222.658, 362.89 z "/>
<path style="fill:rgb(0, 0, 255);fill-opacity:0;fill-rule:evenodd;stroke:rgb(0, 186, 255);stroke-width:1;" d="M 90.4491, 296.877 L 97.9257, 286.665 L 105.585, 289.948 L 104.855, 291.042 L 122.726, 298.701 L 115.979, 307.819 L 97.1963, 299.795 L 92.6373, 297.789 L 90.4491, 296.877 z "/>
<path style="fill:rgb(255, 255, 0);fill-opacity:0;fill-rule:evenodd;stroke:rgb(0, 186, 255);stroke-width:1;" d="M 233.964, 367.449 L 250.923, 344.29 L 252.747, 341.737 L 257.488, 343.925 L 252.017, 351.584 L 258.4, 354.32 L 245.27, 372.373 L 233.964, 367.449 z "/>
<path style="fill:rgb(255, 0, 0);fill-opacity:0;fill-rule:evenodd;stroke:rgb(0, 186, 255);stroke-width:1;" d="M 687.668, 556.371 L 702.439, 536.312 L 713.928, 541.235 L 705.174, 553.271 L 698.974, 561.659 L 694.78, 559.836 L 693.686, 560.565 L 688.762, 558.559 L 688.398, 557.648 L 687.668, 556.371 z "/>
<path style="fill:rgb(0, 255, 0);fill-opacity:0;fill-rule:evenodd;stroke:rgb(0, 186, 255);stroke-width:1;" d="M 511.511, 581.719 L 517.347, 573.695 L 546.524, 586.278 L 545.247, 587.736 L 546.889, 588.466 L 543.971, 592.295 L 542.877, 591.748 L 540.871, 594.301 L 511.511, 581.719 z "/>
<path style="fill:rgb(0, 0, 255);fill-opacity:0;fill-rule:evenodd;stroke:rgb(0, 186, 255);stroke-width:1;" d="M 85.7078, 308.913 L 88.0784, 305.813 L 87.1666, 305.448 L 92.6373, 297.789 L 97.1963, 299.795 L 96.4668, 300.889 L 115.25, 308.73 L 108.502, 318.213 L 85.7078, 308.913 z "/>
<path style="fill:rgb(255, 255, 0);fill-opacity:0;fill-rule:evenodd;stroke:rgb(0, 186, 255);stroke-width:1;" d="M 245.27, 372.373 L 258.4, 354.32 L 259.859, 352.314 L 264.782, 354.32 L 263.141, 356.508 L 270.071, 359.426 L 257.123, 377.114 L 245.27, 372.373 z "/>
<path style="fill:rgb(255, 0, 0);fill-opacity:0;fill-rule:evenodd;stroke:rgb(0, 186, 255);stroke-width:1;" d="M 128.744, 245.088 L 134.032, 237.976 L 137.497, 239.435 L 140.962, 240.894 L 142.238, 239.07 L 161.021, 246.911 L 154.274, 255.847 L 128.744, 245.088 z "/>
<path style="fill:rgb(0, 255, 0);fill-opacity:0;fill-rule:evenodd;stroke:rgb(0, 186, 255);stroke-width:1;" d="M 430.91, 453.522 L 444.404, 435.286 L 449.51, 437.474 L 452.792, 433.098 L 458.081, 435.286 L 441.486, 458.081 L 430.91, 453.522 z "/>
<path style="fill:rgb(0, 0, 255);fill-opacity:0;fill-rule:evenodd;stroke:rgb(0, 186, 255);stroke-width:1;" d="M 517.347, 573.695 L 522.635, 566.765 L 547.253, 577.16 L 551.447, 578.983 L 552.542, 580.625 L 550.353, 583.725 L 547.983, 584.272 L 546.524, 586.278 L 517.347, 573.695 z "/>
<path style="fill:rgb(255, 255, 0);fill-opacity:0;fill-rule:evenodd;stroke:rgb(0, 186, 255);stroke-width:1;" d="M 622.749, 607.249 L 622.931, 607.249 L 636.608, 588.101 L 647.914, 592.842 L 634.238, 611.625 L 634.055, 611.808 L 622.749, 607.249 z "/>
<path style="fill:rgb(255, 0, 0);fill-opacity:0;fill-rule:evenodd;stroke:rgb(0, 186, 255);stroke-width:1;" d="M 506.223, 588.648 L 511.511, 581.719 L 540.871, 594.301 L 539.412, 596.49 L 539.959, 597.766 L 537.953, 600.319 L 535.4, 601.049 L 520.811, 594.848 L 506.223, 588.648 z "/>
<path style="fill:rgb(0, 255, 0);fill-opacity:0;fill-rule:evenodd;stroke:rgb(0, 186, 255);stroke-width:1;" d="M 634.238, 611.625 L 647.914, 592.842 L 658.856, 597.401 L 645.179, 616.184 L 634.238, 611.625 z "/>
<path style="fill:rgb(0, 0, 255);fill-opacity:0;fill-rule:evenodd;stroke:rgb(0, 186, 255);stroke-width:1;" d="M 280.283, 385.685 L 293.23, 367.996 L 304.901, 372.92 L 291.953, 390.609 L 280.283, 385.685 z "/>
<path style="fill:rgb(255, 255, 0);fill-opacity:0;fill-rule:evenodd;stroke:rgb(0, 186, 255);stroke-width:1;" d="M 611.99, 602.69 L 625.849, 583.542 L 636.608, 588.101 L 622.931, 607.249 L 611.99, 602.69 z "/>
<path style="fill:rgb(255, 0, 0);fill-opacity:0;fill-rule:evenodd;stroke:rgb(0, 186, 255);stroke-width:1;" d="M 558.377, 771.917 L 564.577, 763.711 L 588.831, 774.105 L 582.63, 782.311 L 558.377, 771.917 z "/>
<path style="fill:rgb(0, 255, 0);fill-opacity:0;fill-rule:evenodd;stroke:rgb(0, 186, 255);stroke-width:1;" d="M 320.584, 733.987 L 332.801, 716.663 L 337.36, 718.486 L 344.472, 721.404 L 332.254, 738.728 L 320.584, 733.987 z "/>
<path style="fill:rgb(0, 0, 255);fill-opacity:0;fill-rule:evenodd;stroke:rgb(0, 186, 255);stroke-width:1;" d="M 140.05, 232.687 L 143.515, 228.129 L 148.621, 230.317 L 151.174, 227.034 L 169.592, 234.693 L 162.662, 244.176 L 144.609, 236.517 L 145.703, 235.058 L 140.05, 232.687 z "/>
<path style="fill:rgb(255, 255, 0);fill-opacity:0;fill-rule:evenodd;stroke:rgb(0, 186, 255);stroke-width:1;" d="M 576.795, 436.198 L 591.384, 416.321 L 601.231, 420.333 L 586.642, 440.21 L 576.795, 436.198 z "/>
<path style="fill:rgb(255, 0, 0);fill-opacity:0;fill-rule:evenodd;stroke:rgb(0, 186, 255);stroke-width:1;" d="M 332.254, 738.728 L 344.472, 721.404 L 355.778, 725.963 L 344.472, 742.01 L 343.561, 743.287 L 332.254, 738.728 z "/>
<path style="fill:rgb(0, 255, 0);fill-opacity:0;fill-rule:evenodd;stroke:rgb(0, 186, 255);stroke-width:1;" d="M 581.354, 740.916 L 587.007, 732.893 L 611.443, 742.922 L 608.343, 747.299 L 605.79, 750.764 L 581.354, 740.916 z "/>
<path style="fill:rgb(0, 0, 255);fill-opacity:0;fill-rule:evenodd;stroke:rgb(0, 186, 255);stroke-width:1;" d="M 543.606, 498.564 L 557.83, 479.052 L 567.677, 483.246 L 553.271, 502.758 L 543.606, 498.564 z "/>
<path style="fill:rgb(255, 255, 0);fill-opacity:0;fill-rule:evenodd;stroke:rgb(0, 186, 255);stroke-width:1;" d="M 533.759, 494.37 L 547.983, 474.858 L 557.83, 479.052 L 543.606, 498.564 L 533.759, 494.37 z "/>
<path style="fill:rgb(255, 0, 0);fill-opacity:0;fill-rule:evenodd;stroke:rgb(0, 186, 255);stroke-width:1;" d="M 564.577, 763.711 L 570.413, 756.052 L 594.666, 766.446 L 588.831, 774.105 L 564.577, 763.711 z "/>
<path style="fill:rgb(0, 255, 0);fill-opacity:0;fill-rule:evenodd;stroke:rgb(0, 186, 255);stroke-width:1;" d="M 117.803, 263.871 L 121.085, 259.494 L 126.009, 261.682 L 127.285, 259.859 L 145.521, 267.518 L 138.774, 276.636 L 120.538, 268.794 L 122.726, 265.876 L 117.803, 263.871 z "/>
<path style="fill:rgb(0, 0, 255);fill-opacity:0;fill-rule:evenodd;stroke:rgb(0, 186, 255);stroke-width:1;" d="M 523.912, 490.176 L 529.565, 482.334 L 539.23, 471.21 L 547.983, 474.858 L 533.759, 494.37 L 523.912, 490.176 z "/>
<path style="fill:rgb(255, 255, 0);fill-opacity:0;fill-rule:evenodd;stroke:rgb(0, 186, 255);stroke-width:1;" d="M 570.413, 756.052 L 576.066, 748.575 L 600.137, 758.97 L 594.666, 766.446 L 570.413, 756.052 z "/>
<path style="fill:rgb(255, 0, 0);fill-opacity:0;fill-rule:evenodd;stroke:rgb(0, 186, 255);stroke-width:1;" d="M 586.642, 440.21 L 601.231, 420.333 L 610.531, 424.345 L 595.76, 444.222 L 586.642, 440.21 z "/>
<path style="fill:rgb(0, 255, 0);fill-opacity:0;fill-rule:evenodd;stroke:rgb(0, 186, 255);stroke-width:1;" d="M 116.708, 223.023 L 121.085, 217.187 L 122.909, 214.817 L 145.703, 224.664 L 140.05, 232.14 L 116.708, 223.023 z "/>
<path style="fill:rgb(0, 0, 255);fill-opacity:0;fill-rule:evenodd;stroke:rgb(0, 186, 255);stroke-width:1;" d="M 101.026, 246.364 L 107.044, 237.793 L 122.726, 244.358 L 116.526, 252.747 L 101.026, 246.364 z "/>
<path style="fill:rgb(255, 255, 0);fill-opacity:0;fill-rule:evenodd;stroke:rgb(0, 186, 255);stroke-width:1;" d="M 547.983, 459.175 L 553.271, 452.063 L 561.659, 455.71 L 556.189, 462.822 L 547.983, 459.175 z "/>
<path style="fill:rgb(255, 0, 0);fill-opacity:0;fill-rule:evenodd;stroke:rgb(0, 186, 255);stroke-width:1;" d="M 874.584, 584.636 L 876.772, 581.536 L 887.714, 586.278 L 890.814, 587.736 L 889.355, 589.742 L 887.896, 590.472 L 884.431, 590.654 L 883.702, 588.466 L 874.584, 584.636 z "/>
<path style="fill:rgb(0, 255, 0);fill-opacity:0;fill-rule:evenodd;stroke:rgb(0, 186, 255);stroke-width:1;" d="M 0, 564.212 L 20.7887, 535.4 L 47.4128, 546.706 L 46.1363, 548.165 L 56.713, 552.542 L 54.8894, 555.277 L 63.8249, 559.106 L 77.8664, 539.959 L 68.7486, 536.129 L 66.1956, 539.777 L 55.6189, 535.4 L 54.8894, 536.312 L 28.4477, 525.188 L 49.4187, 496.376 L 69.1133, 504.764 L 59.0837, 518.623 L 67.8368, 522.27 L 77.8664, 508.411 L 99.5669, 517.529 L 89.5373, 531.388 L 97.7433, 534.853 L 107.773, 520.994 L 128.379, 529.565 L 119.626, 541.418 L 128.562, 545.247 L 137.315, 533.394 L 158.651, 542.33 L 143.15, 563.848 L 140.962, 562.936 L 133.668, 572.966 L 108.867, 562.571 L 114.338, 555.095 L 103.214, 550.536 L 96.2845, 560.018 L 94.2786, 559.106 L 85.1607, 571.689 L 98.108, 577.16 L 103.943, 569.318 L 128.744, 579.713 L 109.049, 606.702 L 92.455, 599.772 L 94.6433, 596.854 L 87.7137, 593.754 L 83.7018, 599.407 L 70.2074, 593.754 L 73.3075, 589.56 L 70.9369, 588.648 L 72.2134, 586.825 L 71.3016, 586.46 L 77.5017, 578.072 L 65.6485, 573.148 L 55.2542, 587.372 L 35.742, 579.166 L 43.5833, 568.589 L 28.63, 562.207 L 20.7887, 572.966 L 0, 564.212 z "/>
<path style="fill:rgb(0, 0, 255);fill-opacity:0;fill-rule:evenodd;stroke:rgb(0, 186, 255);stroke-width:1;" d="M 69.478, 470.299 L 105.949, 420.15 L 108.32, 421.062 L 120.72, 426.351 L 108.32, 443.674 L 109.779, 444.222 L 109.049, 445.316 L 113.244, 446.957 L 113.791, 446.227 L 115.979, 445.863 L 116.891, 446.227 L 119.079, 443.127 L 126.009, 446.045 L 135.856, 432.551 L 151.903, 439.298 L 142.238, 452.61 L 149.35, 455.528 L 146.797, 458.992 L 147.709, 462.093 L 152.815, 464.281 L 166.492, 445.316 L 176.339, 449.51 L 183.998, 452.61 L 164.121, 480.146 L 164.668, 482.334 L 149.168, 503.67 L 127.832, 494.734 L 142.968, 473.763 L 143.333, 470.663 L 135.856, 467.381 L 118.714, 490.905 L 98.8375, 482.517 L 115.797, 459.357 L 107.955, 456.075 L 105.038, 457.716 L 89.902, 478.869 L 69.478, 470.299 z "/>
<path style="fill:rgb(255, 255, 0);fill-opacity:0;fill-rule:evenodd;stroke:rgb(0, 186, 255);stroke-width:1;" d="M 175.427, 53.7953 L 185.639, 39.9362 L 202.234, 46.8657 L 207.522, 39.5715 L 199.681, 36.289 L 198.769, 37.5655 L 189.834, 33.736 L 202.416, 16.7768 L 230.864, 28.8124 L 229.587, 30.4536 L 232.87, 31.9125 L 277, 50.5129 L 278.094, 49.054 L 306.36, 60.9072 L 294.142, 77.6841 L 285.753, 74.2193 L 286.665, 72.7604 L 278.641, 69.478 L 273.171, 76.9546 L 289.583, 83.8842 L 279.553, 97.561 L 175.427, 53.7953 z M 250.194, 64.5544 L 265.694, 71.1192 L 272.259, 62.0014 L 270.8, 58.5366 L 258.4, 53.2482 L 250.194, 64.5544 z M 212.628, 48.8717 L 228.493, 55.4365 L 236.517, 44.1304 L 223.934, 39.0244 L 219.558, 39.3891 L 212.628, 48.8717 z "/>
<path style="fill:rgb(255, 0, 0);fill-opacity:0;fill-rule:evenodd;stroke:rgb(0, 186, 255);stroke-width:1;" d="M 519.17, 49.9658 L 535.035, 28.63 L 536.677, 29.3595 L 551.995, 8.57078 L 571.507, 16.9592 L 566.401, 23.8888 L 564.942, 23.3417 L 562.024, 26.9888 L 577.342, 33.5537 L 577.889, 32.8243 L 587.189, 36.6537 L 594.484, 26.8065 L 612.719, 34.6478 L 581.536, 76.4076 L 555.277, 65.1014 L 563.848, 53.6129 L 566.401, 54.7071 L 569.501, 50.3305 L 555.459, 44.3127 L 551.995, 48.8717 L 555.459, 50.3305 L 546.889, 62.0014 L 519.17, 49.9658 z "/>
<path style="fill:rgb(0, 255, 0);fill-opacity:0;fill-rule:evenodd;stroke:rgb(0, 186, 255);stroke-width:1;" d="M 671.803, 57.6248 L 685.845, 38.1126 L 721.039, 52.8835 L 725.598, 46.6834 L 690.586, 31.9125 L 703.533, 13.8591 L 755.14, 35.5596 L 739.822, 56.713 L 737.816, 56.5307 L 724.14, 75.3134 L 688.58, 60.5425 L 686.209, 63.8249 L 671.803, 57.6248 z "/>
<path style="fill:rgb(0, 0, 255);fill-opacity:0;fill-rule:evenodd;stroke:rgb(0, 186, 255);stroke-width:1;" d="M 872.76, 50.1482 L 888.443, 28.9948 L 889.902, 29.7242 L 903.943, 10.3943 L 935.127, 23.524 L 938.044, 23.7064 L 939.868, 21.3358 L 956.462, 28.4477 L 942.238, 47.9599 L 925.279, 40.848 L 927.103, 38.6597 L 910.144, 31.3654 L 902.485, 41.9421 L 919.809, 49.054 L 921.45, 46.8657 L 937.862, 53.7953 L 924.55, 72.031 L 872.76, 50.1482 z "/>
<path style="fill:rgb(255, 255, 0);fill-opacity:0;fill-rule:evenodd;stroke:rgb(0, 186, 255);stroke-width:1;" d="M 838.842, 35.5596 L 845.954, 25.3476 L 850.148, 27.1712 L 869.296, 0 L 894.461, 10.212 L 886.437, 21.7005 L 878.596, 18.6004 L 868.931, 32.2772 L 868.931, 34.1008 L 873.855, 36.1067 L 874.402, 35.1949 L 876.043, 35.9243 L 867.837, 47.4128 L 838.842, 35.5596 z "/>
</svg>