<?xml version="1.0" encoding="iso-8859-1" standalone="no"?>
<!DOCTYPE svg PUBLIC "-//W3C//DTD SVG 1.0//EN" "http://www.w3.org/TR/2001/REC-SVG-20010904/DTD/svg10.dtd">
<svg xmlns="http://www.w3.org/2000/svg" width="845" height="800">
<path style="fill:rgb(255, 0, 0);fill-opacity:0;fill-rule:evenodd;stroke:rgb(34, 0, 255);stroke-width:1;" d="M 568.239, 313.444 L 656.124, 246.999 L 737.984, 282.259 L 685.183, 318.76 L 672.425, 327.619 L 568.239, 313.444 z "/>
<path style="fill:rgb(0, 255, 0);fill-opacity:0;fill-rule:evenodd;stroke:rgb(34, 0, 255);stroke-width:1;" d="M 572.492, 790.078 L 627.065, 699.181 L 643.544, 671.717 L 672.248, 681.639 L 645.67, 725.936 L 692.625, 742.06 L 693.156, 741.174 L 731.96, 761.196 L 712.647, 782.636 L 674.02, 762.614 L 674.729, 761.196 L 633.09, 746.844 L 601.196, 800 L 572.492, 790.078 z "/>
<path style="fill:rgb(0, 0, 255);fill-opacity:0;fill-rule:evenodd;stroke:rgb(34, 0, 255);stroke-width:1;" d="M 255.15, 450.941 L 268.084, 441.373 L 270.742, 443.499 L 284.563, 433.223 L 282.436, 431.628 L 288.283, 427.198 L 298.383, 434.994 L 304.408, 430.388 L 302.813, 429.147 L 304.23, 428.084 L 294.839, 420.642 L 310.255, 409.302 L 321.24, 417.984 L 328.859, 412.315 L 319.823, 405.227 L 338.427, 391.406 L 336.124, 389.457 L 349.945, 379.181 L 371.207, 396.013 L 374.574, 393.533 L 388.04, 403.987 L 360.753, 424.186 L 359.867, 424.718 L 359.336, 424.718 L 358.095, 424.718 L 357.209, 424.186 L 343.389, 413.378 L 334.707, 419.934 L 338.782, 423.123 L 337.187, 424.363 L 346.578, 431.628 L 346.755, 432.514 L 346.224, 433.577 L 325.847, 448.638 L 325.138, 448.815 L 323.898, 448.992 L 322.481, 448.461 L 313.621, 441.728 L 312.027, 442.968 L 308.306, 439.956 L 300.687, 445.803 L 304.408, 448.638 L 303.167, 449.347 L 312.735, 456.788 L 313.267, 457.852 L 313.444, 459.092 L 313.267, 459.623 L 312.913, 460.155 L 285.98, 480 L 273.4, 470.255 L 279.601, 465.648 L 271.982, 459.623 L 269.147, 461.75 L 255.15, 450.941 z "/>
<path style="fill:rgb(255, 255, 0);fill-opacity:0;fill-rule:evenodd;stroke:rgb(34, 0, 255);stroke-width:1;" d="M 726.999, 403.278 L 807.796, 350.299 L 807.087, 349.59 L 809.391, 348.173 L 823.034, 360.044 L 818.959, 362.702 L 822.857, 366.069 L 829.945, 361.462 L 831.539, 362.879 L 845.183, 374.574 L 828.527, 385.382 L 830.122, 386.8 L 820.199, 393.355 L 821.085, 394.064 L 812.935, 399.557 L 803.367, 391.229 L 809.214, 387.331 L 807.796, 385.914 L 809.391, 384.85 L 807.796, 383.433 L 810.1, 382.016 L 803.721, 376.168 L 765.094, 401.506 L 770.41, 406.113 L 772.713, 404.695 L 779.092, 410.365 L 790.078, 403.278 L 798.051, 410.365 L 795.57, 411.96 L 797.874, 413.909 L 790.078, 419.048 L 790.609, 419.756 L 783.876, 424.186 L 784.762, 424.895 L 776.966, 430.033 L 777.674, 430.565 L 764.917, 438.893 L 754.817, 430.21 L 757.121, 428.616 L 747.021, 419.756 L 747.553, 419.402 L 742.591, 414.972 L 741.351, 415.858 L 726.999, 403.278 z "/>
<path style="fill:rgb(255, 0, 0);fill-opacity:0;fill-rule:evenodd;stroke:rgb(34, 0, 255);stroke-width:1;" d="M 471.318, 300.687 L 477.697, 271.274 L 518.981, 240.443 L 563.632, 274.994 L 520.399, 307.243 L 471.318, 300.687 z "/>
<path style="fill:rgb(0, 255, 0);fill-opacity:0;fill-rule:evenodd;stroke:rgb(34, 0, 255);stroke-width:1;" d="M 518.981, 240.443 L 557.785, 205.891 L 620.509, 232.47 L 563.632, 274.994 L 518.981, 240.443 z "/>
<path style="fill:rgb(0, 0, 255);fill-opacity:0;fill-rule:evenodd;stroke:rgb(34, 0, 255);stroke-width:1;" d="M 71.4064, 587.198 L 89.1251, 573.732 L 106.844, 587.198 L 111.982, 583.477 L 108.084, 580.465 L 110.565, 578.693 L 99.402, 570.188 L 121.019, 553.887 L 132.182, 562.392 L 134.485, 560.443 L 138.383, 563.455 L 143.522, 559.557 L 126.157, 546.445 L 143.876, 533.156 L 162.835, 547.508 L 166.91, 550.698 L 170.454, 548.04 L 182.68, 557.254 L 160.886, 573.732 L 149.723, 565.227 L 140.155, 572.315 L 148.483, 578.693 L 131.827, 591.274 L 123.499, 584.895 L 114.109, 591.982 L 125.271, 600.31 L 103.477, 616.788 L 96.3898, 611.473 L 91.2514, 607.575 L 94.7951, 604.917 L 71.4064, 587.198 z "/>
<path style="fill:rgb(255, 255, 0);fill-opacity:0;fill-rule:evenodd;stroke:rgb(34, 0, 255);stroke-width:1;" d="M 151.318, 527.486 L 168.859, 514.197 L 186.224, 527.309 L 191.362, 523.411 L 187.818, 520.576 L 190.122, 518.804 L 179.313, 510.653 L 201.107, 493.998 L 212.093, 502.503 L 214.574, 500.554 L 218.117, 503.212 L 223.079, 499.491 L 205.891, 486.379 L 223.433, 473.09 L 246.999, 490.986 L 250.543, 488.328 L 262.237, 497.364 L 240.62, 513.666 L 229.635, 505.338 L 220.066, 512.425 L 228.217, 518.627 L 211.739, 531.03 L 203.411, 524.828 L 193.843, 532.093 L 205.006, 540.421 L 182.68, 557.254 L 170.454, 548.04 L 174.352, 545.028 L 151.318, 527.486 z "/>
<path style="fill:rgb(255, 0, 0);fill-opacity:0;fill-rule:evenodd;stroke:rgb(34, 0, 255);stroke-width:1;" d="M 727.708, 662.503 L 735.681, 653.821 L 730.72, 651.163 L 736.035, 645.493 L 739.225, 642.126 L 747.021, 646.379 L 756.235, 636.279 L 755.172, 635.748 L 756.412, 634.507 L 749.147, 630.609 L 760.133, 618.915 L 761.905, 616.788 L 787.597, 630.432 L 788.128, 633.798 L 779.092, 643.544 L 786.357, 647.265 L 790.609, 642.658 L 792.913, 642.481 L 799.468, 635.216 L 804.252, 634.862 L 810.631, 638.228 L 811.872, 636.811 L 814.884, 638.405 L 816.478, 636.633 L 818.605, 637.874 L 820.554, 640.886 L 821.085, 643.189 L 821.262, 644.252 L 820.731, 647.619 L 820.199, 648.682 L 816.124, 655.592 L 813.643, 654.884 L 807.087, 666.401 L 809.568, 667.287 L 806.024, 673.488 L 801.417, 675.615 L 770.233, 671.717 L 766.157, 669.59 L 775.371, 659.491 L 773.245, 658.25 L 774.839, 656.833 L 771.65, 655.061 L 773.599, 652.757 L 770.233, 650.986 L 755.349, 667.11 L 748.97, 663.743 L 746.489, 666.401 L 731.251, 664.452 L 727.708, 662.503 z "/>
<path style="fill:rgb(0, 255, 0);fill-opacity:0;fill-rule:evenodd;stroke:rgb(34, 0, 255);stroke-width:1;" d="M 674.374, 628.306 L 688.195, 613.422 L 695.637, 617.32 L 708.04, 604.031 L 700.066, 599.779 L 713.887, 584.718 L 736.035, 596.412 L 720.443, 613.245 L 729.125, 617.852 L 740.111, 605.98 L 748.616, 610.41 L 747.198, 612.004 L 760.133, 618.915 L 749.147, 630.609 L 747.553, 632.558 L 739.934, 628.483 L 735.504, 633.267 L 732.669, 631.672 L 728.062, 636.633 L 731.251, 638.405 L 728.416, 641.417 L 736.035, 645.493 L 730.72, 651.163 L 723.278, 659.313 L 717.254, 656.124 L 715.659, 657.719 L 700.775, 649.922 L 706.622, 643.544 L 705.914, 643.189 L 712.292, 636.279 L 704.496, 632.204 L 692.447, 645.493 L 685.183, 641.595 L 688.904, 637.519 L 682.348, 633.976 L 683.234, 633.09 L 674.374, 628.306 z "/>
<path style="fill:rgb(0, 0, 255);fill-opacity:0;fill-rule:evenodd;stroke:rgb(34, 0, 255);stroke-width:1;" d="M 466.179, 390.343 L 490.1, 372.447 L 503.034, 382.547 L 499.313, 385.382 L 508.882, 392.647 L 528.549, 378.117 L 518.981, 370.853 L 509.945, 377.586 L 496.833, 367.486 L 511.894, 356.323 L 572.315, 364.297 L 571.429, 368.195 L 552.824, 382.016 L 551.761, 381.13 L 514.906, 408.594 L 515.792, 409.302 L 506.047, 416.567 L 481.772, 397.785 L 478.76, 399.911 L 466.179, 390.343 z "/>
<path style="fill:rgb(255, 255, 0);fill-opacity:0;fill-rule:evenodd;stroke:rgb(34, 0, 255);stroke-width:1;" d="M 706.622, 532.093 L 706.622, 531.03 L 707.154, 529.258 L 707.508, 528.372 L 708.926, 526.6 L 711.406, 524.651 L 725.759, 514.906 L 747.198, 534.574 L 750.565, 534.751 L 767.752, 523.765 L 768.283, 521.107 L 747.73, 501.794 L 763.677, 491.163 L 778.383, 498.782 L 776.434, 500.908 L 776.434, 503.743 L 777.852, 504.452 L 781.927, 506.578 L 783.167, 505.161 L 800.354, 514.02 L 773.953, 543.61 L 769.524, 541.307 L 753.4, 559.38 L 707.863, 535.814 L 706.977, 534.042 L 706.622, 532.093 z "/>
<path style="fill:rgb(255, 0, 0);fill-opacity:0;fill-rule:evenodd;stroke:rgb(34, 0, 255);stroke-width:1;" d="M 556.013, 394.95 L 570.188, 385.205 L 569.125, 384.142 L 592.337, 366.777 L 658.605, 375.991 L 622.458, 400.62 L 610.233, 390.343 L 611.296, 389.635 L 602.082, 382.016 L 590.21, 389.989 L 599.424, 397.608 L 603.499, 394.773 L 615.903, 405.227 L 595.88, 419.048 L 593.754, 417.276 L 592.691, 418.162 L 592.337, 417.807 L 579.579, 406.999 L 581.705, 405.404 L 576.39, 400.975 L 575.681, 401.506 L 556.013, 399.203 L 556.013, 394.95 z "/>
<path style="fill:rgb(0, 255, 0);fill-opacity:0;fill-rule:evenodd;stroke:rgb(34, 0, 255);stroke-width:1;" d="M 680.576, 438.361 L 698.117, 426.844 L 706.091, 433.754 L 712.824, 429.502 L 705.028, 422.591 L 722.569, 411.074 L 746.312, 429.147 L 745.426, 429.679 L 746.312, 430.388 L 745.249, 431.096 L 748.084, 433.577 L 754.109, 429.502 L 754.817, 430.21 L 764.917, 438.893 L 766.157, 440.133 L 745.426, 454.308 L 727.176, 439.601 L 729.302, 438.184 L 725.759, 435.349 L 715.127, 442.968 L 717.962, 445.271 L 720.443, 443.677 L 739.225, 458.738 L 717.785, 471.849 L 706.445, 461.927 L 710.52, 459.092 L 707.685, 456.611 L 706.445, 457.32 L 705.559, 456.434 L 704.496, 457.143 L 680.576, 438.361 z "/>
<path style="fill:rgb(0, 0, 255);fill-opacity:0;fill-rule:evenodd;stroke:rgb(34, 0, 255);stroke-width:1;" d="M 502.857, 718.848 L 526.423, 683.942 L 573.909, 702.547 L 555.659, 729.48 L 555.482, 730.897 L 551.584, 734.972 L 545.559, 736.213 L 539.535, 734.264 L 539.003, 733.023 L 502.857, 718.848 z "/>
<path style="fill:rgb(255, 255, 0);fill-opacity:0;fill-rule:evenodd;stroke:rgb(34, 0, 255);stroke-width:1;" d="M 697.94, 697.409 L 702.37, 689.967 L 712.47, 672.602 L 779.978, 695.46 L 765.626, 720.089 L 765.449, 720.266 L 697.94, 697.409 z "/>
<path style="fill:rgb(255, 0, 0);fill-opacity:0;fill-rule:evenodd;stroke:rgb(34, 0, 255);stroke-width:1;" d="M 720.266, 361.107 L 737.099, 349.767 L 740.819, 343.212 L 749.856, 339.668 L 775.371, 361.462 L 744.895, 382.016 L 720.266, 361.107 z "/>
<path style="fill:rgb(0, 255, 0);fill-opacity:0;fill-rule:evenodd;stroke:rgb(34, 0, 255);stroke-width:1;" d="M 690.144, 381.484 L 720.266, 361.107 L 744.895, 382.016 L 715.305, 402.038 L 697.763, 386.977 L 697.054, 387.331 L 690.144, 381.484 z "/>
<path style="fill:rgb(0, 0, 255);fill-opacity:0;fill-rule:evenodd;stroke:rgb(34, 0, 255);stroke-width:1;" d="M 44.474, 253.2 L 62.7243, 228.394 L 94.2636, 241.683 L 76.0133, 266.489 L 44.474, 253.2 z "/>
<path style="fill:rgb(255, 255, 0);fill-opacity:0;fill-rule:evenodd;stroke:rgb(34, 0, 255);stroke-width:1;" d="M 230.698, 471.495 L 244.518, 460.509 L 256.035, 469.014 L 256.921, 468.306 L 268.616, 476.811 L 270.742, 475.216 L 279.779, 481.949 L 262.769, 495.238 L 230.698, 471.495 z "/>
<path style="fill:rgb(255, 0, 0);fill-opacity:0;fill-rule:evenodd;stroke:rgb(34, 0, 255);stroke-width:1;" d="M 478.405, 551.229 L 482.481, 550.343 L 480, 544.142 L 485.493, 542.901 L 487.973, 549.103 L 487.973, 549.457 L 512.78, 543.61 L 518.981, 558.848 L 510.476, 560.975 L 511.008, 561.86 L 484.961, 567.885 L 478.405, 551.229 z "/>
<path style="fill:rgb(0, 255, 0);fill-opacity:0;fill-rule:evenodd;stroke:rgb(34, 0, 255);stroke-width:1;" d="M 453.422, 467.951 L 466.534, 459.092 L 475.393, 466.357 L 496.124, 483.898 L 483.012, 492.757 L 453.422, 467.951 z "/>
<path style="fill:rgb(0, 0, 255);fill-opacity:0;fill-rule:evenodd;stroke:rgb(34, 0, 255);stroke-width:1;" d="M 671.894, 478.405 L 681.462, 472.204 L 676.323, 467.597 L 690.321, 458.56 L 705.559, 472.027 L 689.081, 482.835 L 681.993, 487.442 L 680.221, 485.847 L 679.336, 486.379 L 678.45, 486.379 L 677.032, 486.379 L 676.323, 486.202 L 674.906, 485.67 L 674.02, 484.607 L 673.666, 484.075 L 673.488, 483.544 L 673.488, 482.481 L 674.02, 481.24 L 674.551, 480.886 L 671.894, 478.405 z "/>
<path style="fill:rgb(255, 255, 0);fill-opacity:0;fill-rule:evenodd;stroke:rgb(34, 0, 255);stroke-width:1;" d="M 242.924, 573.909 L 260.288, 560.62 L 277.298, 573.378 L 270.742, 578.339 L 259.934, 586.667 L 242.924, 573.909 z "/>
<path style="fill:rgb(255, 0, 0);fill-opacity:0;fill-rule:evenodd;stroke:rgb(34, 0, 255);stroke-width:1;" d="M 76.722, 228.571 L 84.3411, 218.295 L 115.88, 231.584 L 108.439, 242.038 L 76.722, 228.571 z "/>
<path style="fill:rgb(0, 255, 0);fill-opacity:0;fill-rule:evenodd;stroke:rgb(34, 0, 255);stroke-width:1;" d="M 424.009, 426.667 L 433.577, 419.402 L 462.458, 441.55 L 452.89, 448.815 L 424.009, 426.667 z "/>
<path style="fill:rgb(0, 0, 255);fill-opacity:0;fill-rule:evenodd;stroke:rgb(34, 0, 255);stroke-width:1;" d="M 447.043, 409.48 L 456.611, 402.392 L 485.493, 424.54 L 476.102, 431.628 L 447.043, 409.48 z "/>
<path style="fill:rgb(255, 255, 0);fill-opacity:0;fill-rule:evenodd;stroke:rgb(34, 0, 255);stroke-width:1;" d="M 475.393, 466.357 L 488.505, 457.32 L 509.236, 474.862 L 496.124, 483.898 L 475.393, 466.357 z "/>
<path style="fill:rgb(255, 0, 0);fill-opacity:0;fill-rule:evenodd;stroke:rgb(34, 0, 255);stroke-width:1;" d="M 62.1927, 608.283 L 73.7099, 599.424 L 77.9623, 602.791 L 81.5061, 600.133 L 91.2514, 607.575 L 96.3898, 611.473 L 81.3289, 622.813 L 62.1927, 608.283 z "/>
<path style="fill:rgb(0, 255, 0);fill-opacity:0;fill-rule:evenodd;stroke:rgb(34, 0, 255);stroke-width:1;" d="M 488.505, 457.32 L 501.617, 448.461 L 507.996, 453.953 L 522.171, 465.825 L 509.236, 474.862 L 488.505, 457.32 z "/>
<path style="fill:rgb(0, 0, 255);fill-opacity:0;fill-rule:evenodd;stroke:rgb(34, 0, 255);stroke-width:1;" d="M 346.932, 489.568 L 356.323, 482.481 L 386.445, 505.869 L 382.724, 508.704 L 379.712, 506.224 L 374.042, 510.476 L 346.932, 489.568 z "/>
<path style="fill:rgb(255, 255, 0);fill-opacity:0;fill-rule:evenodd;stroke:rgb(34, 0, 255);stroke-width:1;" d="M 456.611, 402.392 L 465.825, 395.482 L 494.707, 417.63 L 485.493, 424.54 L 456.611, 402.392 z "/>
<path style="fill:rgb(255, 0, 0);fill-opacity:0;fill-rule:evenodd;stroke:rgb(34, 0, 255);stroke-width:1;" d="M 410.897, 436.235 L 420.111, 429.502 L 448.815, 451.827 L 444.031, 455.371 L 439.601, 458.56 L 410.897, 436.235 z "/>
<path style="fill:rgb(0, 255, 0);fill-opacity:0;fill-rule:evenodd;stroke:rgb(34, 0, 255);stroke-width:1;" d="M 195.083, 607.398 L 214.219, 594.109 L 226.977, 604.563 L 222.016, 607.929 L 224.85, 610.41 L 219.003, 614.485 L 216.346, 612.182 L 208.018, 618.029 L 195.083, 607.398 z "/>
<path style="fill:rgb(0, 0, 255);fill-opacity:0;fill-rule:evenodd;stroke:rgb(34, 0, 255);stroke-width:1;" d="M 433.577, 419.402 L 442.614, 412.669 L 471.495, 434.817 L 462.458, 441.55 L 433.577, 419.402 z "/>
<path style="fill:rgb(255, 255, 0);fill-opacity:0;fill-rule:evenodd;stroke:rgb(34, 0, 255);stroke-width:1;" d="M 281.55, 537.054 L 290.941, 530.144 L 317.874, 551.052 L 314.153, 553.71 L 308.66, 557.962 L 281.55, 537.054 z "/>
<path style="fill:rgb(255, 0, 0);fill-opacity:0;fill-rule:evenodd;stroke:rgb(34, 0, 255);stroke-width:1;" d="M 517.209, 440.133 L 530.498, 431.096 L 535.282, 435.349 L 549.457, 447.22 L 536.346, 456.257 L 521.993, 444.208 L 517.209, 440.133 z "/>
<path style="fill:rgb(0, 255, 0);fill-opacity:0;fill-rule:evenodd;stroke:rgb(34, 0, 255);stroke-width:1;" d="M 295.725, 526.6 L 305.116, 519.513 L 331.872, 539.889 L 322.481, 546.977 L 295.725, 526.6 z "/>
<path style="fill:rgb(0, 0, 255);fill-opacity:0;fill-rule:evenodd;stroke:rgb(34, 0, 255);stroke-width:1;" d="M 333.112, 500.554 L 342.326, 493.466 L 369.258, 514.02 L 360.044, 521.107 L 333.112, 500.554 z "/>
<path style="fill:rgb(255, 255, 0);fill-opacity:0;fill-rule:evenodd;stroke:rgb(34, 0, 255);stroke-width:1;" d="M 306.357, 518.627 L 315.393, 511.539 L 342.68, 531.384 L 336.301, 536.346 L 333.643, 538.472 L 306.357, 518.627 z "/>
<path style="fill:rgb(255, 0, 0);fill-opacity:0;fill-rule:evenodd;stroke:rgb(34, 0, 255);stroke-width:1;" d="M 320.532, 507.11 L 329.391, 500.377 L 356.678, 521.107 L 347.818, 527.841 L 320.532, 507.11 z "/>
<path style="fill:rgb(0, 255, 0);fill-opacity:0;fill-rule:evenodd;stroke:rgb(34, 0, 255);stroke-width:1;" d="M 672.957, 396.368 L 689.79, 385.028 L 704.142, 397.254 L 687.486, 408.594 L 672.957, 396.368 z "/>
<path style="fill:rgb(0, 0, 255);fill-opacity:0;fill-rule:evenodd;stroke:rgb(34, 0, 255);stroke-width:1;" d="M 383.61, 461.75 L 393.887, 453.953 L 396.545, 456.08 L 397.431, 455.548 L 413.378, 467.597 L 410.365, 469.9 L 412.846, 471.672 L 406.467, 476.633 L 403.987, 474.684 L 401.152, 476.988 L 385.382, 464.939 L 386.622, 464.053 L 383.61, 461.75 z "/>
<path style="fill:rgb(255, 255, 0);fill-opacity:0;fill-rule:evenodd;stroke:rgb(34, 0, 255);stroke-width:1;" d="M 639.823, 419.048 L 656.478, 407.708 L 670.831, 419.756 L 654.175, 431.096 L 652.757, 429.856 L 639.823, 419.048 z "/>
<path style="fill:rgb(255, 0, 0);fill-opacity:0;fill-rule:evenodd;stroke:rgb(34, 0, 255);stroke-width:1;" d="M 212.979, 584.54 L 221.13, 578.339 L 250.188, 599.601 L 241.506, 606.157 L 212.979, 584.54 z "/>
<path style="fill:rgb(0, 255, 0);fill-opacity:0;fill-rule:evenodd;stroke:rgb(34, 0, 255);stroke-width:1;" d="M 656.478, 407.708 L 672.957, 396.368 L 687.486, 408.594 L 670.831, 419.756 L 656.478, 407.708 z "/>
<path style="fill:rgb(0, 0, 255);fill-opacity:0;fill-rule:evenodd;stroke:rgb(34, 0, 255);stroke-width:1;" d="M 358.272, 481.24 L 366.955, 474.684 L 369.435, 476.633 L 370.498, 475.925 L 387.508, 488.859 L 383.433, 491.872 L 388.571, 495.77 L 382.37, 500.377 L 377.409, 496.478 L 376.877, 496.833 L 359.867, 483.898 L 360.753, 483.189 L 358.272, 481.24 z "/>
<path style="fill:rgb(255, 255, 0);fill-opacity:0;fill-rule:evenodd;stroke:rgb(34, 0, 255);stroke-width:1;" d="M 262.06, 554.064 L 276.589, 543.433 L 294.839, 557.608 L 283.145, 566.113 L 272.691, 557.962 L 269.679, 560.089 L 262.06, 554.064 z "/>
<path style="fill:rgb(255, 0, 0);fill-opacity:0;fill-rule:evenodd;stroke:rgb(34, 0, 255);stroke-width:1;" d="M 620.332, 501.971 L 634.507, 492.403 L 651.517, 505.161 L 646.733, 508.173 L 647.619, 509.059 L 642.126, 512.602 L 640.886, 512.071 L 636.633, 514.906 L 620.332, 501.971 z "/>
<path style="fill:rgb(0, 255, 0);fill-opacity:0;fill-rule:evenodd;stroke:rgb(34, 0, 255);stroke-width:1;" d="M 562.038, 416.921 L 578.162, 405.936 L 579.579, 406.999 L 592.337, 417.807 L 576.213, 428.97 L 562.038, 416.921 z "/>
<path style="fill:rgb(0, 0, 255);fill-opacity:0;fill-rule:evenodd;stroke:rgb(34, 0, 255);stroke-width:1;" d="M 372.27, 470.609 L 381.307, 463.876 L 384.142, 466.002 L 384.85, 465.471 L 401.506, 478.228 L 400.975, 478.583 L 405.05, 481.772 L 399.025, 486.379 L 394.95, 483.189 L 390.875, 486.202 L 374.219, 473.621 L 375.282, 472.913 L 372.27, 470.609 z "/>
<path style="fill:rgb(255, 255, 0);fill-opacity:0;fill-rule:evenodd;stroke:rgb(34, 0, 255);stroke-width:1;" d="M 221.13, 578.339 L 229.28, 572.137 L 257.807, 593.754 L 250.188, 599.601 L 221.13, 578.339 z "/>
<path style="fill:rgb(255, 0, 0);fill-opacity:0;fill-rule:evenodd;stroke:rgb(34, 0, 255);stroke-width:1;" d="M 634.507, 492.403 L 647.442, 483.544 L 665.515, 496.478 L 661.44, 498.782 L 662.326, 499.668 L 656.833, 502.68 L 656.301, 501.971 L 651.517, 505.161 L 634.507, 492.403 z "/>
<path style="fill:rgb(0, 255, 0);fill-opacity:0;fill-rule:evenodd;stroke:rgb(34, 0, 255);stroke-width:1;" d="M 507.996, 453.953 L 521.993, 444.208 L 536.346, 456.257 L 522.171, 465.825 L 507.996, 453.953 z "/>
<path style="fill:rgb(0, 0, 255);fill-opacity:0;fill-rule:evenodd;stroke:rgb(34, 0, 255);stroke-width:1;" d="M 47.309, 616.611 L 52.4474, 612.89 L 76.722, 632.027 L 67.8627, 638.405 L 49.4352, 623.699 L 52.979, 621.041 L 47.309, 616.611 z "/>
<path style="fill:rgb(255, 255, 0);fill-opacity:0;fill-rule:evenodd;stroke:rgb(34, 0, 255);stroke-width:1;" d="M 535.282, 435.349 L 548.749, 426.135 L 562.924, 438.007 L 549.457, 447.22 L 535.282, 435.349 z "/>
<path style="fill:rgb(255, 0, 0);fill-opacity:0;fill-rule:evenodd;stroke:rgb(34, 0, 255);stroke-width:1;" d="M 8.3278, 647.973 L 15.7697, 642.481 L 19.845, 645.847 L 21.2625, 644.784 L 38.4496, 658.25 L 38.6268, 660.022 L 32.4252, 664.629 L 29.7674, 664.629 L 12.7575, 651.34 L 8.3278, 647.973 z "/>
<path style="fill:rgb(0, 255, 0);fill-opacity:0;fill-rule:evenodd;stroke:rgb(34, 0, 255);stroke-width:1;" d="M 548.749, 426.135 L 562.038, 416.921 L 576.213, 428.97 L 562.924, 438.007 L 548.749, 426.135 z "/>
<path style="fill:rgb(0, 0, 255);fill-opacity:0;fill-rule:evenodd;stroke:rgb(34, 0, 255);stroke-width:1;" d="M 29.4131, 629.723 L 37.3865, 623.522 L 43.588, 628.128 L 44.2968, 627.597 L 58.4718, 638.405 L 57.763, 638.937 L 60.2436, 640.709 L 56.5227, 643.544 L 54.0421, 641.772 L 49.6124, 645.138 L 31.5393, 631.318 L 29.4131, 629.723 z "/>
<path style="fill:rgb(255, 255, 0);fill-opacity:0;fill-rule:evenodd;stroke:rgb(34, 0, 255);stroke-width:1;" d="M 3.54374, 658.073 L 12.7575, 651.34 L 29.7674, 664.629 L 29.4131, 666.755 L 23.5659, 671.185 L 20.7309, 671.362 L 3.54374, 658.073 z "/>
<path style="fill:rgb(255, 0, 0);fill-opacity:0;fill-rule:evenodd;stroke:rgb(34, 0, 255);stroke-width:1;" d="M 603.677, 443.677 L 615.903, 435.349 L 628.837, 446.334 L 616.611, 454.662 L 603.677, 443.677 z "/>
<path style="fill:rgb(0, 255, 0);fill-opacity:0;fill-rule:evenodd;stroke:rgb(34, 0, 255);stroke-width:1;" d="M 579.934, 459.801 L 591.982, 451.65 L 604.917, 462.458 L 592.868, 470.786 L 579.934, 459.801 z "/>
<path style="fill:rgb(0, 0, 255);fill-opacity:0;fill-rule:evenodd;stroke:rgb(34, 0, 255);stroke-width:1;" d="M 627.951, 427.198 L 639.823, 419.048 L 652.757, 429.856 L 640.886, 438.184 L 627.951, 427.198 z "/>
<path style="fill:rgb(255, 255, 0);fill-opacity:0;fill-rule:evenodd;stroke:rgb(34, 0, 255);stroke-width:1;" d="M 615.903, 435.349 L 627.951, 427.198 L 640.886, 438.184 L 628.837, 446.334 L 615.903, 435.349 z "/>
<path style="fill:rgb(255, 0, 0);fill-opacity:0;fill-rule:evenodd;stroke:rgb(34, 0, 255);stroke-width:1;" d="M 591.982, 451.65 L 603.677, 443.677 L 616.611, 454.662 L 604.917, 462.458 L 591.982, 451.65 z "/>
<path style="fill:rgb(0, 255, 0);fill-opacity:0;fill-rule:evenodd;stroke:rgb(34, 0, 255);stroke-width:1;" d="M 53.1561, 612.004 L 60.2436, 606.689 L 62.1927, 608.283 L 81.3289, 622.813 L 74.2414, 628.128 L 53.1561, 612.004 z "/>
<path style="fill:rgb(0, 0, 255);fill-opacity:0;fill-rule:evenodd;stroke:rgb(34, 0, 255);stroke-width:1;" d="M 568.594, 467.42 L 579.934, 459.801 L 592.868, 470.786 L 581.528, 478.405 L 568.594, 467.42 z "/>
<path style="fill:rgb(255, 255, 0);fill-opacity:0;fill-rule:evenodd;stroke:rgb(34, 0, 255);stroke-width:1;" d="M 26.7553, 641.063 L 31.7165, 637.519 L 27.6412, 634.33 L 31.5393, 631.318 L 49.6124, 645.138 L 40.753, 651.694 L 26.7553, 641.063 z "/>
<path style="fill:rgb(255, 0, 0);fill-opacity:0;fill-rule:evenodd;stroke:rgb(34, 0, 255);stroke-width:1;" d="M 184.275, 149.192 L 191.539, 139.801 L 206.955, 146.711 L 199.867, 156.102 L 199.69, 156.102 L 184.275, 149.192 z "/>
<path style="fill:rgb(0, 255, 0);fill-opacity:0;fill-rule:evenodd;stroke:rgb(34, 0, 255);stroke-width:1;" d="M 310.786, 562.215 L 323.367, 552.47 L 330.808, 557.962 L 318.405, 567.708 L 310.786, 562.215 z "/>
<path style="fill:rgb(0, 0, 255);fill-opacity:0;fill-rule:evenodd;stroke:rgb(34, 0, 255);stroke-width:1;" d="M 353.311, 529.967 L 362.879, 523.056 L 372.27, 530.676 L 362.702, 537.586 L 353.311, 529.967 z "/>
<path style="fill:rgb(255, 255, 0);fill-opacity:0;fill-rule:evenodd;stroke:rgb(34, 0, 255);stroke-width:1;" d="M 362.879, 523.056 L 371.561, 516.855 L 380.952, 524.297 L 372.27, 530.676 L 362.879, 523.056 z "/>
<path style="fill:rgb(255, 0, 0);fill-opacity:0;fill-rule:evenodd;stroke:rgb(34, 0, 255);stroke-width:1;" d="M 323.367, 552.47 L 333.998, 543.965 L 341.617, 549.457 L 330.808, 557.962 L 323.367, 552.47 z "/>
<path style="fill:rgb(0, 255, 0);fill-opacity:0;fill-rule:evenodd;stroke:rgb(34, 0, 255);stroke-width:1;" d="M 420.288, 9.39092 L 429.324, 0 L 437.475, 4.42968 L 435.172, 6.9103 L 428.439, 13.8206 L 420.288, 9.39092 z "/>
<path style="fill:rgb(0, 0, 255);fill-opacity:0;fill-rule:evenodd;stroke:rgb(34, 0, 255);stroke-width:1;" d="M 301.573, 566.822 L 309.014, 560.975 L 310.786, 562.215 L 318.405, 567.708 L 310.963, 573.555 L 301.573, 566.822 z "/>
<path style="fill:rgb(255, 255, 0);fill-opacity:0;fill-rule:evenodd;stroke:rgb(34, 0, 255);stroke-width:1;" d="M 4.60687, 627.774 L 11.6944, 622.104 L 20.7309, 628.837 L 13.6434, 634.33 L 4.60687, 627.774 z "/>
<path style="fill:rgb(255, 0, 0);fill-opacity:0;fill-rule:evenodd;stroke:rgb(34, 0, 255);stroke-width:1;" d="M 338.25, 541.484 L 344.806, 536.346 L 352.248, 541.661 L 345.515, 546.977 L 338.25, 541.484 z "/>
<path style="fill:rgb(0, 255, 0);fill-opacity:0;fill-rule:evenodd;stroke:rgb(34, 0, 255);stroke-width:1;" d="M 21.6168, 614.131 L 26.9324, 610.233 L 35.7918, 617.143 L 30.4762, 621.041 L 21.6168, 614.131 z "/>
<path style="fill:rgb(0, 0, 255);fill-opacity:0;fill-rule:evenodd;stroke:rgb(34, 0, 255);stroke-width:1;" d="M 377.763, 512.425 L 382.724, 508.704 L 386.445, 505.869 L 391.761, 509.945 L 383.079, 516.501 L 377.763, 512.425 z "/>
<path style="fill:rgb(255, 255, 0);fill-opacity:0;fill-rule:evenodd;stroke:rgb(34, 0, 255);stroke-width:1;" d="M 26.9324, 610.233 L 32.0709, 606.334 L 40.9302, 613.245 L 35.7918, 617.143 L 26.9324, 610.233 z "/>
<path style="fill:rgb(255, 0, 0);fill-opacity:0;fill-rule:evenodd;stroke:rgb(34, 0, 255);stroke-width:1;" d="M 0, 631.318 L 4.60687, 627.774 L 13.6434, 634.33 L 9.03654, 638.051 L 0, 631.318 z "/>
</svg>