<?xml version="1.0" encoding="iso-8859-1" standalone="no"?>
<!DOCTYPE svg PUBLIC "-//W3C//DTD SVG 1.0//EN" "http://www.w3.org/TR/2001/REC-SVG-20010904/DTD/svg10.dtd">
<svg xmlns="http://www.w3.org/2000/svg" width="1040" height="800">
<path style="fill:rgb(255, 0, 0);fill-opacity:0;fill-rule:evenodd;stroke:rgb(255, 92, 0);stroke-width:1;" d="M 3.85821, 718.399 L 55.1724, 649.723 L 51.1213, 647.986 L 52.6646, 645.672 L 42.6332, 641.428 L 64.2392, 612.491 L 74.2706, 616.735 L 76.9713, 613.263 L 78.7075, 614.227 L 130.986, 544.586 L 234, 588.956 L 236.122, 589.92 L 241.717, 582.397 L 285.701, 601.495 L 182.879, 738.847 L 185.001, 739.812 L 148.541, 788.425 L 157.994, 792.476 L 152.206, 800 L 60.381, 760.26 L 70.2194, 746.95 L 3.85821, 718.399 z "/>
<path style="fill:rgb(0, 255, 0);fill-opacity:0;fill-rule:evenodd;stroke:rgb(255, 92, 0);stroke-width:1;" d="M 850.35, 58.8377 L 853.436, 58.6448 L 852.857, 48.0347 L 855.172, 48.0347 L 867.905, 29.5153 L 860.381, 26.6217 L 864.046, 21.2202 L 861.346, 20.0627 L 872.727, 3.47239 L 875.428, 4.43694 L 878.322, 0 L 884.688, 2.50784 L 899.542, 8.29515 L 896.455, 12.7321 L 915.168, 20.2556 L 897.034, 47.0702 L 903.4, 160.887 L 943.14, 159.73 L 944.49, 182.493 L 960.309, 182.108 L 963.781, 179.407 L 971.69, 185.194 L 963.781, 191.367 L 959.537, 188.281 L 944.49, 188.667 L 945.647, 212.009 L 860.188, 214.709 L 857.294, 162.816 L 859.224, 162.624 L 857.873, 138.317 L 854.594, 138.317 L 854.015, 129.443 L 857.294, 129.25 L 855.558, 97.8056 L 851.7, 97.9986 L 851.314, 89.1247 L 854.98, 88.9318 L 853.822, 68.0974 L 850.928, 68.0974 L 850.35, 58.8377 z "/>
<path style="fill:rgb(0, 0, 255);fill-opacity:0;fill-rule:evenodd;stroke:rgb(255, 92, 0);stroke-width:1;" d="M 60.9597, 420.352 L 69.8336, 419.773 L 69.6407, 417.844 L 115.746, 414.951 L 123.463, 482.855 L 77.3571, 485.942 L 70.9911, 430.383 L 62.1172, 430.962 L 60.9597, 420.352 z "/>
<path style="fill:rgb(255, 255, 0);fill-opacity:0;fill-rule:evenodd;stroke:rgb(255, 92, 0);stroke-width:1;" d="M 986.159, 497.709 L 997.733, 481.119 L 994.647, 479.961 L 1008.54, 460.092 L 1040.75, 472.824 L 1026.86, 493.079 L 1022.81, 491.343 L 1011.24, 507.933 L 986.159, 497.709 z "/>
<path style="fill:rgb(255, 0, 0);fill-opacity:0;fill-rule:evenodd;stroke:rgb(255, 92, 0);stroke-width:1;" d="M 95.8765, 316.952 L 112.274, 315.795 L 119.219, 375.018 L 102.628, 376.176 L 95.8765, 316.952 z "/>
<path style="fill:rgb(0, 255, 0);fill-opacity:0;fill-rule:evenodd;stroke:rgb(255, 92, 0);stroke-width:1;" d="M 961.466, 102.821 L 977.478, 102.243 L 980.95, 161.273 L 964.939, 161.852 L 961.466, 102.821 z "/>
<path style="fill:rgb(0, 0, 255);fill-opacity:0;fill-rule:evenodd;stroke:rgb(255, 92, 0);stroke-width:1;" d="M 115.168, 297.275 L 140.439, 274.705 L 153.171, 282.807 L 127.9, 305.377 L 115.168, 297.275 z "/>
<path style="fill:rgb(255, 255, 0);fill-opacity:0;fill-rule:evenodd;stroke:rgb(255, 92, 0);stroke-width:1;" d="M 61.3456, 342.995 L 77.55, 341.837 L 81.2153, 371.546 L 64.8179, 372.703 L 61.3456, 342.995 z "/>
<path style="fill:rgb(255, 0, 0);fill-opacity:0;fill-rule:evenodd;stroke:rgb(255, 92, 0);stroke-width:1;" d="M 103.207, 380.612 L 119.605, 379.455 L 122.884, 408.97 L 106.487, 410.128 L 103.207, 380.612 z "/>
<path style="fill:rgb(0, 255, 0);fill-opacity:0;fill-rule:evenodd;stroke:rgb(255, 92, 0);stroke-width:1;" d="M 43.7907, 344.152 L 60.1881, 342.995 L 64.0463, 372.703 L 61.3456, 372.896 L 47.6489, 373.861 L 43.7907, 344.152 z "/>
<path style="fill:rgb(0, 0, 255);fill-opacity:0;fill-rule:evenodd;stroke:rgb(255, 92, 0);stroke-width:1;" d="M 1.35037, 390.451 L 12.7321, 381.384 L 40.897, 401.833 L 32.7948, 408.392 L 29.5153, 410.899 L 1.35037, 390.451 z "/>
<path style="fill:rgb(255, 255, 0);fill-opacity:0;fill-rule:evenodd;stroke:rgb(255, 92, 0);stroke-width:1;" d="M 17.5549, 345.889 L 33.5664, 344.924 L 37.0388, 374.439 L 20.8343, 375.597 L 17.5549, 345.889 z "/>
<path style="fill:rgb(255, 0, 0);fill-opacity:0;fill-rule:evenodd;stroke:rgb(255, 92, 0);stroke-width:1;" d="M 110.924, 269.496 L 140.632, 250.205 L 151.242, 259.465 L 121.534, 278.756 L 110.924, 269.496 z "/>
<path style="fill:rgb(0, 255, 0);fill-opacity:0;fill-rule:evenodd;stroke:rgb(255, 92, 0);stroke-width:1;" d="M 148.155, 247.697 L 180.178, 231.3 L 189.245, 241.717 L 157.415, 257.921 L 148.155, 247.697 z "/>
<path style="fill:rgb(0, 0, 255);fill-opacity:0;fill-rule:evenodd;stroke:rgb(255, 92, 0);stroke-width:1;" d="M 84.109, 293.224 L 108.994, 270.846 L 121.534, 278.756 L 96.6482, 301.133 L 84.109, 293.224 z "/>
<path style="fill:rgb(255, 255, 0);fill-opacity:0;fill-rule:evenodd;stroke:rgb(255, 92, 0);stroke-width:1;" d="M 147.769, 270.461 L 178.635, 252.713 L 188.474, 262.551 L 157.608, 280.299 L 147.769, 270.461 z "/>
<path style="fill:rgb(255, 0, 0);fill-opacity:0;fill-rule:evenodd;stroke:rgb(255, 92, 0);stroke-width:1;" d="M 48.9993, 384.085 L 65.0109, 382.927 L 68.6762, 412.636 L 64.4321, 412.829 L 52.8575, 413.793 L 48.9993, 384.085 z "/>
<path style="fill:rgb(0, 255, 0);fill-opacity:0;fill-rule:evenodd;stroke:rgb(255, 92, 0);stroke-width:1;" d="M 66.5541, 382.927 L 82.5657, 381.963 L 85.8452, 411.285 L 69.8336, 412.25 L 66.5541, 382.927 z "/>
<path style="fill:rgb(0, 0, 255);fill-opacity:0;fill-rule:evenodd;stroke:rgb(255, 92, 0);stroke-width:1;" d="M 0, 347.239 L 15.8187, 346.082 L 19.484, 375.597 L 3.6653, 376.754 L 0, 347.239 z "/>
<path style="fill:rgb(255, 255, 0);fill-opacity:0;fill-rule:evenodd;stroke:rgb(255, 92, 0);stroke-width:1;" d="M 229.371, 557.319 L 235.544, 548.638 L 252.713, 555.775 L 246.733, 564.456 L 229.371, 557.319 z "/>
<path style="fill:rgb(255, 0, 0);fill-opacity:0;fill-rule:evenodd;stroke:rgb(255, 92, 0);stroke-width:1;" d="M 932.144, 240.559 L 952.206, 239.209 L 953.171, 248.469 L 933.108, 249.819 L 932.144, 240.559 z "/>
</svg>