<?xml version="1.0" encoding="iso-8859-1" standalone="no"?>
<!DOCTYPE svg PUBLIC "-//W3C//DTD SVG 1.0//EN" "http://www.w3.org/TR/2001/REC-SVG-20010904/DTD/svg10.dtd">
<svg xmlns="http://www.w3.org/2000/svg" width="966" height="800">
<path style="fill:rgb(255, 0, 0);fill-opacity:0;fill-rule:evenodd;stroke:rgb(0, 189, 255);stroke-width:1;" d="M 79.9824, 416.436 L 87.1896, 406.24 L 83.6739, 404.834 L 87.1896, 399.736 L 85.256, 397.627 L 91.7601, 388.838 L 95.1, 388.838 L 109.69, 394.99 L 107.932, 397.451 L 109.514, 399.912 L 114.964, 402.197 L 125.159, 388.134 L 123.226, 387.256 L 122.171, 385.498 L 123.401, 383.74 L 110.393, 378.466 L 111.8, 376.533 L 105.647, 374.072 L 104.417, 375.829 L 96.5063, 372.49 L 107.229, 357.548 L 117.249, 361.767 L 118.128, 360.36 L 120.765, 359.833 L 123.05, 360.712 L 135.003, 344.364 L 114.261, 335.75 L 130.257, 313.601 L 149.418, 321.512 L 151.879, 321.16 L 153.637, 318.699 L 152.23, 317.469 L 161.02, 305.515 L 162.25, 303.757 L 164.359, 303.933 L 166.293, 301.296 L 165.414, 299.187 L 146.429, 291.277 L 162.25, 269.303 L 183.696, 278.093 L 195.474, 261.569 L 180.18, 255.241 L 192.134, 238.893 L 214.107, 248.033 L 212.525, 250.143 L 218.326, 252.604 L 228.697, 238.365 L 226.236, 237.31 L 224.654, 235.025 L 225.884, 233.267 L 219.029, 230.455 L 216.919, 233.443 L 197.583, 225.357 L 210.064, 208.13 L 216.216, 210.591 L 227.642, 194.77 L 230.455, 196.001 L 235.904, 188.266 L 240.299, 190.024 L 247.506, 180.18 L 262.096, 186.333 L 258.405, 191.43 L 261.569, 192.837 L 261.393, 196.704 L 258.053, 201.45 L 260.338, 202.505 L 250.67, 216.04 L 248.385, 215.162 L 241.705, 224.302 L 248.561, 227.115 L 250.143, 225.005 L 262.975, 230.279 L 263.678, 233.092 L 234.322, 273.874 L 217.623, 267.018 L 214.986, 270.534 L 219.556, 272.468 L 210.767, 284.948 L 216.392, 287.234 L 208.657, 297.956 L 184.751, 287.937 L 178.95, 295.847 L 202.857, 305.867 L 194.946, 316.766 L 187.563, 313.777 L 177.192, 328.192 L 184.575, 331.18 L 176.489, 342.43 L 152.582, 332.41 L 147.132, 339.969 L 171.215, 349.989 L 163.129, 361.239 L 156.976, 358.603 L 144.847, 375.302 L 152.582, 378.642 L 156.449, 373.017 L 172.094, 379.521 L 168.051, 385.146 L 194.067, 395.869 L 175.434, 421.885 L 176.84, 424.874 L 172.621, 430.675 L 176.489, 432.432 L 165.942, 452.12 L 79.9824, 416.436 z "/>
<path style="fill:rgb(0, 255, 0);fill-opacity:0;fill-rule:evenodd;stroke:rgb(0, 189, 255);stroke-width:1;" d="M 27.071, 603.648 L 43.5948, 581.147 L 106.35, 608.042 L 105.296, 609.448 L 117.776, 614.722 L 142.562, 581.147 L 129.554, 575.522 L 128.499, 577.104 L 65.9196, 550.385 L 82.795, 527.884 L 146.605, 555.131 L 143.617, 559.174 L 155.394, 564.096 L 164.535, 551.791 L 165.59, 552.318 L 171.918, 543.705 L 198.638, 555.131 L 192.134, 563.744 L 194.243, 564.623 L 163.129, 606.812 L 161.371, 605.933 L 155.922, 613.316 L 157.855, 614.195 L 126.741, 656.207 L 124.984, 655.504 L 118.479, 664.294 L 108.987, 660.25 L 91.9358, 652.868 L 98.6157, 644.078 L 97.3852, 643.551 L 106.174, 631.422 L 94.0453, 626.324 L 90.7053, 630.894 L 27.071, 603.648 z "/>
<path style="fill:rgb(0, 0, 255);fill-opacity:0;fill-rule:evenodd;stroke:rgb(0, 189, 255);stroke-width:1;" d="M 387.607, 692.419 L 389.365, 688.376 L 393.232, 685.212 L 531.575, 663.415 L 537.025, 679.938 L 561.459, 756.405 L 559.35, 759.218 L 554.779, 761.327 L 387.607, 692.419 z M 468.117, 700.154 L 516.282, 720.369 L 522.083, 712.459 L 515.755, 709.822 L 509.954, 689.255 L 507.669, 689.782 L 480.598, 694.88 L 474.094, 692.068 L 468.117, 700.154 z "/>
<path style="fill:rgb(255, 255, 0);fill-opacity:0;fill-rule:evenodd;stroke:rgb(0, 189, 255);stroke-width:1;" d="M 597.143, 672.555 L 599.78, 668.864 L 711.756, 715.799 L 650.934, 799.297 L 650.407, 800 L 632.828, 792.617 L 597.143, 672.555 z "/>
<path style="fill:rgb(255, 0, 0);fill-opacity:0;fill-rule:evenodd;stroke:rgb(0, 189, 255);stroke-width:1;" d="M 756.757, 531.4 L 770.995, 511.887 L 775.038, 513.645 L 806.856, 469.699 L 871.545, 496.77 L 864.338, 506.966 L 813.711, 576.577 L 806.504, 573.412 L 802.988, 571.655 L 796.133, 567.963 L 789.629, 563.92 L 783.476, 559.701 L 780.664, 557.416 L 775.038, 552.67 L 772.402, 550.209 L 767.304, 545.111 L 762.733, 539.837 L 760.624, 537.025 L 756.757, 531.4 z "/>
<path style="fill:rgb(0, 255, 0);fill-opacity:0;fill-rule:evenodd;stroke:rgb(0, 189, 255);stroke-width:1;" d="M 149.769, 677.653 L 153.812, 672.028 L 155.394, 672.731 L 159.437, 667.458 L 150.648, 663.766 L 160.668, 650.407 L 175.61, 656.735 L 179.301, 651.813 L 172.621, 648.824 L 205.142, 604.878 L 196.352, 601.011 L 202.857, 592.397 L 285.827, 627.73 L 279.323, 636.344 L 272.468, 633.531 L 270.534, 636.168 L 266.315, 634.41 L 263.503, 638.277 L 258.053, 645.485 L 269.128, 650.231 L 261.042, 661.129 L 226.06, 667.106 L 222.896, 656.735 L 242.408, 630.543 L 238.541, 628.961 L 236.783, 631.422 L 219.732, 624.214 L 210.415, 636.695 L 197.056, 654.625 L 202.681, 671.149 L 198.11, 671.501 L 193.54, 672.204 L 189.145, 673.434 L 184.926, 675.016 L 181.059, 676.95 L 179.125, 678.181 L 175.786, 680.642 L 172.797, 683.278 L 170.336, 686.443 L 149.769, 677.653 z "/>
<path style="fill:rgb(0, 0, 255);fill-opacity:0;fill-rule:evenodd;stroke:rgb(0, 189, 255);stroke-width:1;" d="M 398.857, 120.765 L 455.46, 89.4748 L 473.566, 97.0336 L 470.578, 101.252 L 543.705, 131.839 L 531.224, 149.066 L 532.806, 149.593 L 517.688, 170.512 L 496.418, 161.547 L 514.173, 137.113 L 505.032, 133.421 L 487.453, 157.855 L 467.062, 149.242 L 484.289, 125.511 L 475.851, 121.995 L 458.624, 145.726 L 398.857, 120.765 z M 440.167, 120.062 L 454.757, 126.214 L 466.183, 110.921 L 460.207, 108.284 L 456.867, 112.679 L 450.714, 110.042 L 446.847, 111.272 L 440.167, 120.062 z "/>
<path style="fill:rgb(255, 255, 0);fill-opacity:0;fill-rule:evenodd;stroke:rgb(0, 189, 255);stroke-width:1;" d="M 393.935, 380.4 L 405.889, 364.052 L 516.985, 410.635 L 508.372, 422.413 L 503.098, 420.303 L 499.758, 421.71 L 487.805, 438.233 L 492.024, 439.991 L 490.442, 441.925 L 493.43, 443.155 L 491.496, 445.792 L 482.531, 458.097 L 437.53, 427.686 L 454.581, 404.131 L 452.824, 403.428 L 453.527, 402.549 L 451.066, 401.494 L 452.472, 399.385 L 449.308, 397.978 L 431.729, 422.061 L 413.975, 405.361 L 426.456, 388.31 L 418.897, 385.146 L 409.053, 398.682 L 393.935, 380.4 z M 460.382, 418.545 L 481.477, 427.686 L 489.914, 416.612 L 488.332, 414.327 L 469.875, 406.065 L 460.382, 418.545 z "/>
<path style="fill:rgb(255, 0, 0);fill-opacity:0;fill-rule:evenodd;stroke:rgb(0, 189, 255);stroke-width:1;" d="M 165.942, 452.12 L 176.489, 432.432 L 191.079, 405.361 L 198.286, 408.526 L 259.108, 434.542 L 262.624, 429.971 L 267.897, 432.257 L 238.014, 472.512 L 232.74, 470.402 L 226.939, 478.312 L 165.942, 452.12 z "/>
<path style="fill:rgb(0, 255, 0);fill-opacity:0;fill-rule:evenodd;stroke:rgb(0, 189, 255);stroke-width:1;" d="M 350.165, 209.361 L 350.516, 202.329 L 350.868, 197.056 L 352.098, 188.794 L 371.611, 197.056 L 368.446, 201.274 L 449.484, 235.553 L 437.354, 252.076 L 402.197, 237.135 L 397.978, 243.111 L 434.893, 258.756 L 423.116, 274.929 L 354.735, 245.924 L 352.977, 237.838 L 351.395, 229.752 L 351.044, 225.709 L 350.341, 217.447 L 350.165, 209.361 z M 371.435, 227.994 L 377.763, 230.631 L 373.72, 236.08 L 387.783, 242.057 L 398.506, 227.115 L 392.881, 224.83 L 390.068, 228.697 L 375.478, 222.544 L 371.435, 227.994 z "/>
<path style="fill:rgb(0, 0, 255);fill-opacity:0;fill-rule:evenodd;stroke:rgb(0, 189, 255);stroke-width:1;" d="M 198.286, 408.526 L 203.911, 397.803 L 217.974, 403.779 L 217.271, 404.658 L 227.115, 408.877 L 232.74, 401.494 L 228.345, 399.561 L 227.466, 400.791 L 206.9, 392.002 L 215.865, 375.302 L 235.728, 383.916 L 236.959, 382.509 L 238.365, 383.037 L 241.354, 378.994 L 218.853, 369.501 L 226.588, 354.911 L 239.771, 360.536 L 241.881, 357.899 L 256.647, 364.228 L 254.537, 367.04 L 258.405, 368.798 L 256.647, 371.259 L 270.534, 377.236 L 272.468, 374.775 L 275.983, 376.357 L 278.093, 373.368 L 298.132, 381.806 L 288.464, 394.99 L 267.897, 386.201 L 268.776, 385.146 L 262.624, 382.509 L 258.932, 387.607 L 255.592, 392.002 L 261.745, 394.463 L 263.678, 392.002 L 284.069, 400.791 L 273.522, 415.03 L 262.624, 429.971 L 259.108, 434.542 L 198.286, 408.526 z "/>
<path style="fill:rgb(255, 255, 0);fill-opacity:0;fill-rule:evenodd;stroke:rgb(0, 189, 255);stroke-width:1;" d="M 352.098, 188.794 L 354.032, 181.411 L 355.087, 177.719 L 357.899, 170.336 L 361.064, 163.305 L 364.755, 156.273 L 366.864, 152.758 L 369.15, 149.418 L 373.896, 142.738 L 458.976, 178.774 L 443.507, 199.692 L 442.276, 199.165 L 429.444, 216.919 L 377.236, 194.77 L 373.368, 194.77 L 371.611, 197.056 L 352.098, 188.794 z M 400.439, 191.255 L 416.26, 197.935 L 418.37, 194.946 L 417.139, 194.419 L 426.104, 181.938 L 420.655, 179.653 L 418.545, 182.465 L 411.338, 179.477 L 407.647, 181.235 L 400.439, 191.255 z M 378.29, 177.543 L 381.279, 181.235 L 392.178, 185.981 L 399.561, 176.137 L 397.978, 175.434 L 399.033, 173.852 L 381.982, 166.645 L 379.873, 169.633 L 383.212, 171.039 L 378.29, 177.543 z "/>
<path style="fill:rgb(255, 0, 0);fill-opacity:0;fill-rule:evenodd;stroke:rgb(0, 189, 255);stroke-width:1;" d="M 455.46, 89.4748 L 465.304, 84.9044 L 470.226, 82.4434 L 479.543, 77.1699 L 484.113, 74.3573 L 488.684, 71.7205 L 497.473, 65.7438 L 509.602, 56.9545 L 551.263, 74.3573 L 535.267, 96.3305 L 545.111, 100.374 L 561.107, 78.4004 L 583.081, 87.717 L 567.612, 109.163 L 566.381, 108.635 L 553.021, 126.917 L 534.74, 119.358 L 539.662, 112.503 L 531.048, 108.811 L 524.192, 118.304 L 507.844, 111.448 L 510.657, 107.581 L 505.559, 105.296 L 506.79, 103.538 L 485.344, 94.5726 L 483.586, 96.8578 L 480.07, 95.4515 L 477.609, 98.7915 L 473.566, 97.0336 L 455.46, 89.4748 z M 505.559, 89.1233 L 514.7, 92.9906 L 512.415, 96.1547 L 516.985, 97.9125 L 527.181, 83.8497 L 513.294, 78.2246 L 505.559, 89.1233 z "/>
<path style="fill:rgb(0, 255, 0);fill-opacity:0;fill-rule:evenodd;stroke:rgb(0, 189, 255);stroke-width:1;" d="M 571.83, 436.3 L 599.78, 398.154 L 608.921, 385.673 L 664.118, 409.053 L 625.621, 461.613 L 616.48, 457.746 L 617.886, 455.812 L 571.83, 436.3 z "/>
<path style="fill:rgb(0, 0, 255);fill-opacity:0;fill-rule:evenodd;stroke:rgb(0, 189, 255);stroke-width:1;" d="M 68.7321, 714.744 L 86.1349, 691.189 L 98.7915, 696.638 L 98.2641, 697.341 L 104.241, 699.978 L 111.272, 690.661 L 105.12, 688.025 L 104.065, 689.607 L 91.4085, 684.157 L 108.987, 660.25 L 118.479, 664.294 L 132.015, 669.919 L 127.62, 675.895 L 131.488, 677.653 L 130.784, 678.356 L 143.968, 683.982 L 148.89, 677.126 L 149.769, 677.653 L 170.336, 686.443 L 153.461, 709.295 L 138.343, 702.791 L 139.398, 701.384 L 131.312, 697.869 L 130.96, 698.22 L 127.972, 702.263 L 129.202, 702.791 L 126.917, 705.955 L 125.511, 705.427 L 122.347, 709.822 L 130.433, 713.338 L 131.312, 712.107 L 146.429, 718.611 L 130.081, 740.76 L 108.987, 731.795 L 113.733, 725.467 L 110.569, 724.061 L 100.198, 719.666 L 95.8031, 719.139 L 91.9358, 724.588 L 68.7321, 714.744 z "/>
<path style="fill:rgb(255, 255, 0);fill-opacity:0;fill-rule:evenodd;stroke:rgb(0, 189, 255);stroke-width:1;" d="M 345.419, 528.411 L 380.927, 480.422 L 386.552, 485.168 L 392.529, 489.563 L 398.857, 493.606 L 405.889, 497.649 L 396.572, 510.13 L 389.541, 507.141 L 385.322, 512.766 L 410.635, 523.489 L 414.678, 517.864 L 409.756, 515.755 L 417.139, 505.559 L 451.417, 525.95 L 450.011, 527.884 L 442.628, 537.904 L 429.093, 532.103 L 423.467, 539.662 L 421.71, 538.958 L 419.073, 542.474 L 434.366, 548.978 L 433.311, 550.385 L 424.522, 562.338 L 383.388, 544.584 L 392.529, 532.279 L 378.29, 526.126 L 375.302, 530.169 L 380.576, 532.454 L 374.423, 540.892 L 345.419, 528.411 z "/>
<path style="fill:rgb(255, 0, 0);fill-opacity:0;fill-rule:evenodd;stroke:rgb(0, 189, 255);stroke-width:1;" d="M 0, 685.739 L 7.55878, 659.899 L 23.3795, 666.579 L 22.3248, 668.161 L 30.7625, 671.677 L 39.7275, 659.547 L 32.3445, 656.559 L 31.6414, 657.614 L 10.8987, 648.824 L 18.4575, 622.808 L 47.8137, 635.113 L 42.8917, 641.793 L 58.3608, 648.297 L 59.7671, 648.473 L 63.2828, 648.824 L 67.3259, 643.199 L 90.5296, 653.043 L 73.3026, 676.774 L 60.8218, 671.501 L 61.3492, 670.622 L 55.1967, 667.985 L 48.1652, 677.653 L 54.3177, 680.114 L 55.724, 678.356 L 68.2048, 683.63 L 51.1536, 707.185 L 28.3015, 697.517 L 32.1688, 692.419 L 28.8288, 689.782 L 17.0512, 684.86 L 12.6566, 691.013 L 0, 685.739 z "/>
<path style="fill:rgb(0, 255, 0);fill-opacity:0;fill-rule:evenodd;stroke:rgb(0, 189, 255);stroke-width:1;" d="M 707.537, 190.2 L 719.842, 173.325 L 718.26, 172.621 L 733.729, 151.703 L 805.625, 182.114 L 786.465, 229.049 L 769.765, 222.017 L 767.48, 221.138 L 769.589, 218.326 L 766.952, 217.271 L 768.007, 215.865 L 707.537, 190.2 z M 760.976, 193.364 L 762.558, 194.067 L 760.976, 196.177 L 771.699, 200.571 L 774.16, 200.044 L 780.136, 191.782 L 777.148, 188.969 L 767.128, 184.926 L 760.976, 193.364 z M 731.971, 187.387 L 746.561, 193.716 L 754.823, 182.641 L 740.233, 176.313 L 731.971, 187.387 z "/>
<path style="fill:rgb(0, 0, 255);fill-opacity:0;fill-rule:evenodd;stroke:rgb(0, 189, 255);stroke-width:1;" d="M 860.294, 173.325 L 866.974, 156.273 L 868.908, 156.273 L 887.365, 164.008 L 886.311, 165.59 L 891.233, 167.699 L 896.682, 160.316 L 869.435, 148.89 L 878.4, 126.741 L 880.334, 126.917 L 894.045, 134.828 L 896.682, 136.41 L 893.518, 139.574 L 897.034, 141.332 L 894.748, 143.793 L 913.733, 153.988 L 918.479, 148.539 L 923.226, 151.176 L 922.347, 152.054 L 930.609, 156.449 L 925.862, 161.547 L 939.046, 168.754 L 943.617, 163.832 L 953.637, 169.457 L 950.824, 172.27 L 966.117, 180.532 L 959.262, 190.024 L 960.844, 190.727 L 946.957, 209.888 L 932.718, 203.735 L 944.496, 187.563 L 938.167, 184.926 L 936.937, 184.399 L 925.159, 200.571 L 908.284, 193.54 L 922.171, 174.379 L 915.667, 171.742 L 913.733, 172.446 L 900.725, 190.376 L 860.294, 173.325 z "/>
<path style="fill:rgb(255, 255, 0);fill-opacity:0;fill-rule:evenodd;stroke:rgb(0, 189, 255);stroke-width:1;" d="M 360.888, 283.015 L 362.118, 281.433 L 436.3, 312.371 L 420.479, 333.993 L 418.545, 333.114 L 401.67, 356.317 L 409.053, 359.481 L 405.889, 364.052 L 393.935, 380.4 L 391.299, 376.181 L 386.025, 367.919 L 383.564, 363.7 L 379.169, 355.087 L 377.06, 350.868 L 373.193, 342.079 L 370.029, 333.114 L 368.622, 328.719 L 365.985, 319.578 L 364.755, 314.656 L 363.173, 306.043 L 361.942, 296.902 L 361.064, 287.585 L 360.888, 283.015 z M 388.838, 321.512 L 390.068, 324.852 L 400.264, 329.246 L 403.779, 327.84 L 408.526, 321.336 L 407.295, 317.469 L 397.803, 313.601 L 392.002, 311.14 L 389.541, 314.48 L 393.056, 315.887 L 388.838, 321.512 z "/>
<path style="fill:rgb(255, 0, 0);fill-opacity:0;fill-rule:evenodd;stroke:rgb(0, 189, 255);stroke-width:1;" d="M 831.993, 247.682 L 849.923, 202.505 L 852.384, 201.802 L 929.027, 234.498 L 913.909, 255.065 L 912.151, 254.362 L 898.791, 272.292 L 851.681, 252.076 L 849.396, 255.241 L 831.993, 247.682 z M 882.795, 250.319 L 883.322, 250.67 L 897.209, 256.647 L 905.296, 245.748 L 890.881, 239.596 L 882.795, 250.319 z M 856.427, 236.783 L 875.06, 244.693 L 883.322, 233.443 L 864.689, 225.533 L 856.427, 236.783 z "/>
<path style="fill:rgb(0, 255, 0);fill-opacity:0;fill-rule:evenodd;stroke:rgb(0, 189, 255);stroke-width:1;" d="M 665.7, 317.293 L 678.884, 299.363 L 676.95, 298.66 L 692.419, 277.39 L 757.108, 304.636 L 737.948, 351.22 L 723.006, 345.067 L 716.853, 342.43 L 718.787, 339.793 L 665.7, 317.293 z M 684.157, 309.734 L 686.091, 310.613 L 685.036, 312.019 L 697.869, 317.469 L 701.912, 312.195 L 706.306, 306.394 L 691.716, 299.89 L 684.157, 309.734 z M 709.119, 317.82 L 721.424, 323.094 L 722.654, 321.16 L 724.412, 321.863 L 731.092, 312.898 L 717.205, 307.097 L 709.119, 317.82 z "/>
<path style="fill:rgb(0, 0, 255);fill-opacity:0;fill-rule:evenodd;stroke:rgb(0, 189, 255);stroke-width:1;" d="M 675.016, 667.282 L 683.103, 656.207 L 710.174, 618.765 L 711.931, 616.48 L 712.635, 615.425 L 718.787, 617.886 L 712.283, 626.851 L 762.382, 647.77 L 733.553, 687.497 L 727.225, 688.904 L 675.016, 667.282 z "/>
<path style="fill:rgb(255, 255, 0);fill-opacity:0;fill-rule:evenodd;stroke:rgb(0, 189, 255);stroke-width:1;" d="M 782.597, 370.732 L 801.582, 325.203 L 804.219, 324.149 L 877.346, 355.087 L 861.877, 376.005 L 860.294, 375.302 L 846.759, 393.935 L 807.559, 377.412 L 805.449, 380.4 L 782.597, 370.732 z M 830.235, 372.49 L 835.509, 374.775 L 844.825, 378.642 L 853.263, 367.216 L 838.673, 361.064 L 830.235, 372.49 z M 806.152, 359.306 L 823.379, 366.513 L 824.61, 364.931 L 831.817, 355.087 L 814.59, 347.704 L 806.152, 359.306 z "/>
<path style="fill:rgb(255, 0, 0);fill-opacity:0;fill-rule:evenodd;stroke:rgb(0, 189, 255);stroke-width:1;" d="M 236.959, 474.094 L 238.014, 472.512 L 267.897, 432.257 L 262.624, 429.971 L 273.522, 415.03 L 297.605, 425.225 L 292.683, 431.905 L 290.925, 431.202 L 288.991, 434.015 L 300.066, 438.761 L 302.175, 436.124 L 300.242, 435.245 L 305.164, 428.565 L 329.246, 438.936 L 317.82, 454.581 L 308.504, 450.538 L 303.582, 457.042 L 305.867, 458.097 L 301.121, 464.25 L 308.152, 467.414 L 300.593, 477.785 L 295.32, 475.5 L 293.034, 478.488 L 294.792, 479.191 L 283.718, 494.133 L 264.381, 485.871 L 274.929, 471.633 L 267.194, 468.293 L 256.647, 482.531 L 236.959, 474.094 z M 272.292, 457.042 L 284.069, 462.316 L 288.464, 460.734 L 294.792, 452.472 L 280.73, 446.144 L 272.292, 457.042 z "/>
<path style="fill:rgb(0, 255, 0);fill-opacity:0;fill-rule:evenodd;stroke:rgb(0, 189, 255);stroke-width:1;" d="M 606.636, 208.482 L 614.722, 197.231 L 618.941, 198.989 L 637.398, 173.676 L 712.986, 205.669 L 694.529, 230.806 L 698.572, 232.564 L 690.31, 243.815 L 606.636, 208.482 z M 665.876, 215.865 L 668.512, 216.919 L 678.356, 220.787 L 680.817, 218.677 L 689.079, 207.075 L 679.938, 203.384 L 678.884, 204.966 L 673.962, 202.857 L 666.579, 213.404 L 665.876, 215.865 z M 639.332, 206.196 L 643.375, 207.779 L 645.133, 205.318 L 656.207, 209.712 L 658.668, 206.196 L 666.227, 195.298 L 643.727, 186.333 L 641.617, 189.321 L 649, 192.309 L 639.332, 206.196 z "/>
<path style="fill:rgb(0, 0, 255);fill-opacity:0;fill-rule:evenodd;stroke:rgb(0, 189, 255);stroke-width:1;" d="M 580.971, 277.741 L 599.253, 252.78 L 595.737, 251.373 L 603.823, 240.123 L 687.321, 275.28 L 679.06, 286.53 L 674.665, 284.773 L 656.383, 309.734 L 580.971, 277.741 z M 628.609, 287.058 L 630.367, 288.991 L 648.649, 296.55 L 650.758, 293.738 L 644.606, 291.101 L 654.625, 277.565 L 650.407, 275.808 L 648.473, 278.444 L 638.102, 274.05 L 636.695, 275.808 L 628.609, 287.058 z M 604.175, 276.511 L 613.316, 280.378 L 614.722, 278.444 L 619.996, 280.73 L 627.379, 270.534 L 627.906, 268.425 L 615.425, 263.151 L 612.437, 265.26 L 604.175, 276.511 z "/>
<path style="fill:rgb(255, 255, 0);fill-opacity:0;fill-rule:evenodd;stroke:rgb(0, 189, 255);stroke-width:1;" d="M 523.489, 173.325 L 531.575, 162.25 L 535.794, 164.008 L 554.252, 138.695 L 629.664, 170.512 L 611.206, 195.649 L 614.722, 197.231 L 606.636, 208.482 L 523.489, 173.325 z M 582.553, 180.356 L 594.507, 185.454 L 597.143, 181.938 L 598.374, 182.641 L 606.109, 172.094 L 596.616, 168.051 L 595.386, 169.809 L 590.464, 167.699 L 583.081, 177.719 L 584.311, 178.247 L 582.553, 180.356 z M 556.185, 171.039 L 559.701, 172.446 L 561.283, 170.16 L 572.182, 174.555 L 582.553, 160.141 L 560.58, 151 L 558.119, 154.515 L 565.678, 157.68 L 556.185, 171.039 z "/>
<path style="fill:rgb(255, 0, 0);fill-opacity:0;fill-rule:evenodd;stroke:rgb(0, 189, 255);stroke-width:1;" d="M 567.963, 335.399 L 576.225, 324.324 L 580.444, 326.082 L 598.901, 300.945 L 673.962, 332.762 L 655.328, 357.899 L 659.196, 359.481 L 651.11, 370.732 L 567.963, 335.399 z M 627.203, 342.43 L 639.156, 347.176 L 643.024, 344.891 L 650.582, 333.993 L 640.914, 330.301 L 639.859, 331.883 L 634.058, 329.774 L 627.379, 339.618 L 627.203, 342.43 z M 600.132, 333.114 L 604.351, 334.871 L 606.284, 332.235 L 617.359, 336.805 L 627.554, 322.391 L 605.933, 313.426 L 603.648, 316.941 L 609.976, 319.578 L 600.132, 333.114 z "/>
<path style="fill:rgb(0, 255, 0);fill-opacity:0;fill-rule:evenodd;stroke:rgb(0, 189, 255);stroke-width:1;" d="M 766.425, 72.7752 L 778.906, 55.5482 L 798.945, 63.9859 L 803.164, 58.185 L 782.07, 49.3957 L 793.672, 33.3993 L 854.494, 58.8882 L 835.157, 105.823 L 818.633, 98.9673 L 815.645, 97.7368 L 818.106, 94.3968 L 766.425, 72.7752 z M 806.504, 72.2479 L 824.083, 79.6309 L 828.653, 67.5016 L 814.239, 61.5249 L 806.504, 72.2479 z "/>
<path style="fill:rgb(0, 0, 255);fill-opacity:0;fill-rule:evenodd;stroke:rgb(0, 189, 255);stroke-width:1;" d="M 291.452, 497.297 L 302.527, 482.356 L 303.757, 482.883 L 305.867, 479.895 L 300.593, 477.785 L 308.152, 467.414 L 309.383, 465.832 L 321.16, 470.754 L 328.543, 460.91 L 329.774, 459.152 L 327.313, 457.042 L 325.379, 457.746 L 317.82, 454.581 L 329.246, 438.936 L 330.653, 437.179 L 337.86, 440.343 L 344.188, 447.726 L 350.868, 454.757 L 354.384, 458.273 L 361.767, 465.129 L 365.634, 468.468 L 373.544, 474.797 L 377.763, 477.785 L 368.974, 489.563 L 359.657, 485.52 L 351.044, 497.122 L 360.536, 501.165 L 355.087, 508.372 L 347.176, 504.856 L 344.364, 508.723 L 348.231, 510.481 L 341.903, 518.919 L 320.105, 509.602 L 331.004, 494.836 L 323.445, 491.496 L 312.371, 506.262 L 291.452, 497.297 z M 328.192, 479.016 L 329.246, 481.828 L 341.2, 486.223 L 345.419, 485.344 L 350.868, 477.785 L 340.145, 467.414 L 337.508, 466.535 L 328.192, 479.016 z "/>
<path style="fill:rgb(255, 255, 0);fill-opacity:0;fill-rule:evenodd;stroke:rgb(0, 189, 255);stroke-width:1;" d="M 826.719, 444.913 L 842.013, 423.643 L 845.88, 425.225 L 861.349, 403.955 L 884.025, 413.448 L 874.885, 426.104 L 882.971, 429.444 L 887.19, 423.467 L 896.858, 427.51 L 900.198, 422.94 L 898.967, 422.237 L 900.198, 420.479 L 920.94, 429.268 L 890.354, 471.633 L 865.216, 461.085 L 873.478, 449.659 L 877.697, 451.417 L 881.037, 446.847 L 869.963, 442.276 L 866.095, 442.276 L 855.548, 457.042 L 826.719, 444.913 z "/>
<path style="fill:rgb(255, 0, 0);fill-opacity:0;fill-rule:evenodd;stroke:rgb(0, 189, 255);stroke-width:1;" d="M 861.349, 403.955 L 876.818, 382.509 L 873.127, 380.927 L 888.069, 360.185 L 917.249, 372.49 L 907.053, 386.728 L 909.163, 387.607 L 908.46, 388.662 L 919.886, 393.408 L 923.226, 389.013 L 919.007, 387.256 L 926.917, 376.357 L 951.703, 386.728 L 920.94, 429.268 L 900.198, 420.479 L 901.604, 418.545 L 902.659, 419.073 L 906.174, 414.151 L 896.33, 409.932 L 900.549, 404.131 L 892.991, 400.967 L 884.025, 413.448 L 861.349, 403.955 z "/>
<path style="fill:rgb(0, 255, 0);fill-opacity:0;fill-rule:evenodd;stroke:rgb(0, 189, 255);stroke-width:1;" d="M 696.287, 246.1 L 711.756, 225.005 L 713.162, 225.533 L 726.346, 207.779 L 767.48, 225.005 L 769.765, 222.017 L 786.465, 229.049 L 767.48, 276.159 L 696.287, 246.1 z M 740.76, 242.408 L 758.69, 249.967 L 760.8, 249.44 L 763.085, 246.451 L 759.921, 245.045 L 759.218, 243.287 L 762.382, 238.893 L 761.679, 237.135 L 750.253, 232.388 L 747.616, 233.092 L 740.76, 242.408 z M 722.127, 236.08 L 729.686, 239.42 L 731.268, 237.31 L 737.596, 240.123 L 744.452, 231.334 L 744.276, 229.049 L 731.619, 223.599 L 722.127, 236.08 z "/>
<path style="fill:rgb(0, 0, 255);fill-opacity:0;fill-rule:evenodd;stroke:rgb(0, 189, 255);stroke-width:1;" d="M 585.366, 56.9545 L 597.143, 40.6065 L 600.835, 42.1885 L 616.304, 20.9185 L 634.937, 28.8288 L 625.797, 41.3096 L 633.531, 44.6495 L 642.496, 31.993 L 668.864, 42.8917 L 659.547, 55.724 L 664.469, 57.8334 L 666.227, 55.3724 L 669.04, 56.4272 L 676.423, 46.0558 L 689.255, 51.5052 L 676.423, 69.2595 L 669.391, 66.4469 L 666.051, 70.8416 L 668.512, 71.8963 L 657.614, 87.0138 L 639.156, 79.2793 L 650.934, 63.2828 L 643.199, 60.1187 L 631.597, 76.1151 L 611.031, 67.5016 L 622.632, 51.3294 L 615.074, 48.1652 L 603.296, 64.3375 L 585.366, 56.9545 z "/>
<path style="fill:rgb(255, 255, 0);fill-opacity:0;fill-rule:evenodd;stroke:rgb(0, 189, 255);stroke-width:1;" d="M 666.403, 90.5296 L 677.126, 75.5878 L 679.587, 76.6425 L 682.927, 72.0721 L 676.423, 69.2595 L 689.255, 51.5052 L 701.912, 56.6029 L 694.353, 67.1501 L 696.814, 68.2048 L 695.056, 70.6658 L 700.154, 72.951 L 709.646, 59.9429 L 736.014, 70.8416 L 726.522, 84.0255 L 734.256, 87.1896 L 743.573, 74.1815 L 762.382, 81.9161 L 746.737, 103.713 L 749.901, 105.12 L 738.651, 120.589 L 720.897, 113.206 L 732.147, 97.7368 L 724.236, 94.3968 L 712.986, 109.866 L 692.595, 101.428 L 703.845, 85.9591 L 696.462, 82.795 L 685.212, 98.2641 L 666.403, 90.5296 z "/>
<path style="fill:rgb(255, 0, 0);fill-opacity:0;fill-rule:evenodd;stroke:rgb(0, 189, 255);stroke-width:1;" d="M 744.452, 122.874 L 759.745, 101.78 L 762.03, 102.659 L 775.038, 84.7286 L 816.524, 101.956 L 818.633, 98.9673 L 835.157, 105.823 L 815.996, 152.933 L 744.452, 122.874 z M 789.629, 119.358 L 807.031, 126.566 L 809.317, 126.566 L 811.953, 123.05 L 808.262, 121.468 L 808.438, 119.886 L 811.25, 115.843 L 810.371, 113.909 L 798.594, 108.987 L 796.484, 110.042 L 793.672, 113.909 L 789.629, 119.358 z M 770.82, 113.206 L 778.378, 116.194 L 779.433, 114.788 L 786.465, 117.776 L 793.496, 108.108 L 792.09, 105.296 L 780.136, 100.374 L 770.82, 113.206 z "/>
<path style="fill:rgb(0, 255, 0);fill-opacity:0;fill-rule:evenodd;stroke:rgb(0, 189, 255);stroke-width:1;" d="M 813.711, 727.049 L 827.071, 708.416 L 855.9, 720.369 L 860.294, 714.392 L 831.29, 702.439 L 844.825, 683.63 L 858.888, 689.431 L 856.603, 692.419 L 859.24, 693.474 L 860.646, 694.88 L 904.065, 712.986 L 891.233, 730.74 L 891.936, 732.674 L 876.994, 753.241 L 859.591, 746.21 L 876.818, 722.303 L 869.435, 719.314 L 852.208, 743.045 L 813.711, 727.049 z "/>
<path style="fill:rgb(0, 0, 255);fill-opacity:0;fill-rule:evenodd;stroke:rgb(0, 189, 255);stroke-width:1;" d="M 712.283, 626.851 L 718.787, 617.886 L 712.635, 615.425 L 739.002, 579.213 L 743.749, 584.838 L 749.55, 589.233 L 755.878, 593.276 L 775.917, 605.405 L 789.277, 610.855 L 762.382, 647.77 L 712.283, 626.851 z "/>
<path style="fill:rgb(255, 255, 0);fill-opacity:0;fill-rule:evenodd;stroke:rgb(0, 189, 255);stroke-width:1;" d="M 844.825, 683.63 L 858.712, 664.469 L 887.541, 676.423 L 891.584, 670.973 L 862.755, 658.844 L 874.885, 641.969 L 914.085, 658.317 L 898.088, 680.642 L 905.296, 683.63 L 921.292, 661.305 L 939.222, 668.864 L 924.984, 688.728 L 921.644, 688.728 L 909.163, 705.955 L 865.216, 687.673 L 863.634, 688.025 L 860.646, 686.794 L 858.888, 689.431 L 844.825, 683.63 z "/>
<path style="fill:rgb(255, 0, 0);fill-opacity:0;fill-rule:evenodd;stroke:rgb(0, 189, 255);stroke-width:1;" d="M 552.846, 511.887 L 561.811, 499.583 L 566.205, 501.516 L 584.311, 476.555 L 631.949, 496.418 L 621.226, 511.36 L 624.39, 512.591 L 616.656, 523.138 L 630.191, 528.939 L 622.281, 540.013 L 608.218, 534.212 L 598.198, 547.748 L 599.429, 549.154 L 607.163, 561.107 L 595.034, 577.983 L 593.452, 577.28 L 590.112, 567.612 L 592.221, 566.733 L 574.467, 540.365 L 592.573, 532.982 L 614.019, 503.626 L 586.421, 492.024 L 573.237, 509.954 L 573.061, 513.294 L 581.674, 526.829 L 567.963, 531.927 L 558.998, 518.04 L 557.592, 518.743 L 552.846, 511.887 z "/>
<path style="fill:rgb(0, 255, 0);fill-opacity:0;fill-rule:evenodd;stroke:rgb(0, 189, 255);stroke-width:1;" d="M 352.274, 612.437 L 360.536, 601.011 L 361.767, 599.429 L 368.974, 602.417 L 376.181, 592.397 L 372.841, 590.991 L 373.544, 589.76 L 369.853, 588.178 L 374.951, 581.147 L 378.818, 575.698 L 409.405, 588.53 L 403.252, 596.968 L 402.373, 596.616 L 396.748, 604.351 L 406.592, 608.394 L 412.041, 600.659 L 410.811, 600.308 L 416.963, 591.694 L 448.077, 604.702 L 443.507, 610.855 L 438.058, 618.589 L 431.026, 615.601 L 423.467, 624.918 L 417.491, 626.148 L 418.194, 628.785 L 413.272, 629.664 L 415.03, 635.289 L 397.978, 638.277 L 392.705, 635.992 L 380.576, 630.894 L 390.244, 617.71 L 393.76, 619.117 L 396.221, 615.777 L 384.97, 611.031 L 376.533, 622.632 L 352.274, 612.437 z "/>
<path style="fill:rgb(0, 0, 255);fill-opacity:0;fill-rule:evenodd;stroke:rgb(0, 189, 255);stroke-width:1;" d="M 763.437, 418.37 L 782.597, 370.732 L 805.449, 380.4 L 802.988, 383.74 L 807.207, 385.673 L 807.735, 384.97 L 842.364, 399.561 L 827.598, 419.6 L 822.149, 417.315 L 821.27, 418.545 L 816.7, 416.612 L 814.239, 419.776 L 818.457, 421.534 L 817.403, 423.116 L 825.313, 426.456 L 815.293, 440.167 L 763.437, 418.37 z M 792.441, 405.889 L 799.121, 408.526 L 806.856, 411.69 L 814.414, 400.791 L 800, 394.99 L 792.441, 405.889 z "/>
<path style="fill:rgb(255, 255, 0);fill-opacity:0;fill-rule:evenodd;stroke:rgb(0, 189, 255);stroke-width:1;" d="M 813.711, 293.562 L 831.993, 247.682 L 849.396, 255.241 L 846.935, 258.581 L 894.045, 278.796 L 880.686, 296.726 L 870.666, 292.331 L 871.545, 291.101 L 866.095, 288.816 L 860.998, 295.671 L 879.103, 303.406 L 868.029, 318.523 L 814.59, 295.671 L 813.711, 293.562 z M 834.63, 286.003 L 851.329, 293.21 L 859.591, 281.96 L 842.892, 274.753 L 834.63, 286.003 z "/>
<path style="fill:rgb(255, 0, 0);fill-opacity:0;fill-rule:evenodd;stroke:rgb(0, 189, 255);stroke-width:1;" d="M 482.531, 458.097 L 491.496, 445.792 L 494.836, 447.198 L 495.891, 445.968 L 497.122, 446.495 L 519.974, 415.03 L 540.013, 423.292 L 531.927, 434.366 L 540.716, 438.058 L 548.627, 426.983 L 566.908, 434.718 L 539.662, 471.984 L 540.716, 472.512 L 539.134, 474.621 L 542.298, 475.851 L 539.31, 480.246 L 531.048, 491.496 L 526.829, 487.102 L 518.919, 480.949 L 512.942, 476.555 L 503.274, 470.051 L 498.176, 466.886 L 493.078, 463.898 L 482.531, 458.097 z M 514.7, 458.8 L 522.61, 462.14 L 526.653, 460.91 L 529.642, 457.042 L 534.915, 449.659 L 539.31, 451.417 L 542.123, 447.55 L 519.095, 437.706 L 515.931, 442.101 L 520.325, 444.034 L 516.106, 450.011 L 519.446, 452.472 L 514.7, 458.8 z "/>
<path style="fill:rgb(0, 255, 0);fill-opacity:0;fill-rule:evenodd;stroke:rgb(0, 189, 255);stroke-width:1;" d="M 640.387, 589.233 L 645.133, 583.081 L 652.34, 573.412 L 676.774, 540.892 L 678.005, 541.419 L 718.084, 558.295 L 686.618, 601.714 L 682.751, 606.987 L 640.387, 589.233 z "/>
<path style="fill:rgb(0, 0, 255);fill-opacity:0;fill-rule:evenodd;stroke:rgb(0, 189, 255);stroke-width:1;" d="M 507.493, 246.803 L 534.036, 210.591 L 603.823, 240.123 L 595.737, 251.373 L 591.343, 249.44 L 572.885, 274.401 L 507.493, 246.803 z M 522.259, 241.354 L 528.06, 243.639 L 529.466, 241.705 L 535.97, 244.342 L 539.486, 243.463 L 545.638, 234.849 L 545.814, 233.092 L 533.861, 227.994 L 529.818, 230.982 L 522.259, 241.354 z M 545.111, 253.307 L 561.811, 260.163 L 564.799, 255.768 L 563.393, 255.241 L 572.182, 242.936 L 568.139, 241.178 L 566.205, 243.815 L 555.131, 239.244 L 545.111, 253.307 z "/>
<path style="fill:rgb(255, 255, 0);fill-opacity:0;fill-rule:evenodd;stroke:rgb(0, 189, 255);stroke-width:1;" d="M 498.176, 305.867 L 524.544, 269.831 L 590.464, 297.781 L 572.358, 322.566 L 576.225, 324.324 L 567.963, 335.399 L 498.176, 305.867 z M 541.419, 304.812 L 552.67, 309.383 L 550.736, 312.195 L 554.252, 313.601 L 557.592, 309.031 L 563.041, 301.121 L 565.326, 302 L 568.139, 297.956 L 550.912, 291.101 L 541.419, 304.812 z M 517.513, 296.902 L 529.466, 301.648 L 532.103, 300.242 L 537.904, 291.804 L 536.146, 288.991 L 530.345, 286.706 L 531.751, 284.421 L 525.775, 282.136 L 518.392, 292.859 L 517.513, 296.902 z "/>
<path style="fill:rgb(255, 0, 0);fill-opacity:0;fill-rule:evenodd;stroke:rgb(0, 189, 255);stroke-width:1;" d="M 442.276, 219.205 L 460.558, 194.243 L 456.515, 192.485 L 464.777, 181.235 L 534.036, 210.591 L 507.493, 246.803 L 442.276, 219.205 z M 494.133, 225.357 L 494.309, 227.115 L 502.219, 230.455 L 500.813, 232.388 L 506.087, 234.498 L 514.173, 223.599 L 515.052, 220.435 L 502.922, 215.337 L 500.11, 217.271 L 494.133, 225.357 z M 464.074, 219.205 L 480.773, 226.06 L 490.617, 212.349 L 479.543, 207.779 L 481.652, 204.966 L 478.137, 203.56 L 475.324, 207.427 L 469.523, 215.337 L 467.414, 214.458 L 464.074, 219.205 z "/>
<path style="fill:rgb(0, 255, 0);fill-opacity:0;fill-rule:evenodd;stroke:rgb(0, 189, 255);stroke-width:1;" d="M 657.438, 372.49 L 670.973, 354.032 L 672.731, 354.911 L 687.673, 334.344 L 720.545, 348.231 L 723.006, 345.067 L 737.948, 351.22 L 719.139, 398.506 L 657.438, 372.49 z M 686.97, 366.337 L 705.955, 374.072 L 710.877, 362.118 L 694.704, 355.438 L 686.97, 366.337 z "/>
<path style="fill:rgb(0, 0, 255);fill-opacity:0;fill-rule:evenodd;stroke:rgb(0, 189, 255);stroke-width:1;" d="M 631.773, 155.57 L 640.035, 144.32 L 652.34, 149.593 L 655.68, 145.023 L 654.098, 144.32 L 659.196, 137.289 L 648.649, 132.718 L 657.965, 119.886 L 687.673, 132.367 L 677.653, 145.902 L 689.079, 150.648 L 698.923, 137.113 L 728.104, 149.418 L 718.611, 162.25 L 708.064, 157.855 L 699.802, 169.281 L 710.349, 173.676 L 701.736, 185.278 L 670.798, 172.27 L 679.411, 160.492 L 671.852, 157.504 L 669.919, 158.031 L 662.36, 168.403 L 631.773, 155.57 z "/>
<path style="fill:rgb(255, 255, 0);fill-opacity:0;fill-rule:evenodd;stroke:rgb(0, 189, 255);stroke-width:1;" d="M 429.093, 276.511 L 437.179, 265.612 L 440.694, 267.194 L 459.152, 242.057 L 524.544, 269.831 L 498.176, 305.867 L 429.093, 276.511 z M 487.102, 283.718 L 498.704, 288.64 L 502.044, 286.355 L 510.305, 275.28 L 504.505, 272.819 L 503.098, 274.929 L 494.661, 271.237 L 493.782, 272.292 L 487.453, 281.081 L 487.102, 283.718 z M 460.558, 273.874 L 464.425, 275.456 L 466.359, 272.819 L 477.082, 277.39 L 487.278, 263.503 L 471.105, 256.647 L 467.765, 261.393 L 469.347, 262.096 L 460.558, 273.874 z "/>
<path style="fill:rgb(255, 0, 0);fill-opacity:0;fill-rule:evenodd;stroke:rgb(0, 189, 255);stroke-width:1;" d="M 563.041, 126.741 L 571.479, 115.315 L 580.795, 119.358 L 589.057, 107.932 L 579.741, 104.065 L 589.233, 90.8811 L 617.359, 102.659 L 607.691, 115.843 L 619.996, 121.116 L 629.664, 107.932 L 657.965, 119.886 L 648.649, 132.718 L 648.297, 133.07 L 637.926, 128.675 L 633.18, 135.179 L 631.597, 134.476 L 628.082, 139.398 L 640.035, 144.32 L 631.773, 155.57 L 601.714, 142.914 L 609.273, 132.367 L 608.394, 130.609 L 601.89, 127.796 L 593.452, 139.398 L 563.041, 126.741 z "/>
<path style="fill:rgb(0, 255, 0);fill-opacity:0;fill-rule:evenodd;stroke:rgb(0, 189, 255);stroke-width:1;" d="M 274.929, 656.735 L 294.089, 630.367 L 309.383, 636.871 L 312.547, 636.344 L 317.293, 638.277 L 319.578, 635.113 L 314.832, 633.18 L 313.601, 630.894 L 298.308, 624.566 L 313.601, 603.472 L 327.137, 609.273 L 324.676, 612.613 L 324.5, 615.249 L 325.203, 615.601 L 337.508, 620.699 L 341.551, 615.249 L 356.669, 621.578 L 350.868, 629.664 L 354.559, 631.246 L 356.669, 628.433 L 365.107, 631.949 L 368.271, 630.894 L 371.259, 627.027 L 380.576, 630.894 L 392.705, 635.992 L 393.584, 638.805 L 343.309, 647.418 L 339.969, 636.168 L 336.981, 633.883 L 331.532, 634.937 L 329.422, 637.926 L 332.762, 649.176 L 275.456, 658.844 L 274.929, 656.735 z "/>
<path style="fill:rgb(0, 0, 255);fill-opacity:0;fill-rule:evenodd;stroke:rgb(0, 189, 255);stroke-width:1;" d="M 614.019, 481.125 L 639.508, 446.144 L 673.434, 474.269 L 685.739, 484.465 L 682.048, 486.75 L 690.486, 494.485 L 691.892, 496.418 L 692.771, 498.704 L 695.759, 516.809 L 677.829, 509.426 L 663.063, 503.098 L 646.188, 496.067 L 629.664, 489.211 L 630.543, 488.156 L 614.019, 481.125 z "/>
<path style="fill:rgb(255, 255, 0);fill-opacity:0;fill-rule:evenodd;stroke:rgb(0, 189, 255);stroke-width:1;" d="M 743.397, 487.278 L 743.397, 480.949 L 743.749, 477.785 L 744.452, 471.281 L 745.858, 464.953 L 747.616, 458.8 L 750.077, 452.648 L 752.889, 446.495 L 799.473, 466.007 L 761.679, 518.392 L 756.229, 525.95 L 753.593, 524.896 L 750.604, 518.743 L 749.374, 515.755 L 747.089, 509.602 L 746.21, 506.438 L 744.803, 500.11 L 743.924, 493.782 L 743.397, 487.278 z "/>
<path style="fill:rgb(255, 0, 0);fill-opacity:0;fill-rule:evenodd;stroke:rgb(0, 189, 255);stroke-width:1;" d="M 595.034, 577.983 L 607.163, 561.107 L 611.031, 555.658 L 615.249, 557.416 L 629.664, 537.376 L 646.012, 544.232 L 637.75, 555.834 L 644.957, 558.998 L 653.395, 547.396 L 663.766, 551.615 L 649, 572.006 L 652.34, 573.412 L 645.133, 583.081 L 638.277, 580.092 L 622.984, 601.011 L 630.191, 603.999 L 626.324, 609.273 L 617.359, 621.753 L 611.558, 629.84 L 607.339, 614.898 L 602.769, 599.956 L 600.308, 592.573 L 595.034, 577.983 z M 609.448, 578.159 L 623.336, 583.96 L 633.004, 570.951 L 632.652, 568.666 L 624.742, 565.151 L 620.523, 565.854 L 618.941, 567.963 L 617.359, 567.26 L 609.448, 578.159 z "/>
<path style="fill:rgb(0, 255, 0);fill-opacity:0;fill-rule:evenodd;stroke:rgb(0, 189, 255);stroke-width:1;" d="M 874.357, 321.863 L 904.592, 279.499 L 945.726, 296.374 L 915.491, 338.915 L 874.357, 321.863 z "/>
<path style="fill:rgb(0, 0, 255);fill-opacity:0;fill-rule:evenodd;stroke:rgb(0, 189, 255);stroke-width:1;" d="M 646.012, 446.847 L 655.856, 433.487 L 654.45, 432.784 L 670.094, 411.514 L 707.537, 427.335 L 699.275, 447.55 L 669.743, 435.069 L 665.348, 440.87 L 696.814, 454.23 L 692.947, 479.895 L 691.013, 482.356 L 688.025, 484.465 L 685.739, 484.465 L 673.434, 474.269 L 677.477, 471.457 L 674.665, 469.172 L 673.61, 469.699 L 646.012, 446.847 z "/>
<path style="fill:rgb(255, 255, 0);fill-opacity:0;fill-rule:evenodd;stroke:rgb(0, 189, 255);stroke-width:1;" d="M 530.345, 400.439 L 546.341, 378.642 L 547.045, 376.005 L 544.232, 374.775 L 544.935, 374.072 L 553.549, 362.294 L 608.921, 385.673 L 599.78, 398.154 L 596.44, 396.748 L 594.858, 397.627 L 577.983, 420.479 L 530.345, 400.439 z M 550.209, 393.408 L 574.995, 403.955 L 578.334, 399.561 L 573.061, 397.275 L 576.577, 392.705 L 576.928, 389.365 L 565.678, 384.619 L 562.162, 386.728 L 560.756, 388.662 L 558.822, 391.299 L 553.549, 389.013 L 550.209, 393.408 z "/>
<path style="fill:rgb(255, 0, 0);fill-opacity:0;fill-rule:evenodd;stroke:rgb(0, 189, 255);stroke-width:1;" d="M 611.558, 629.84 L 617.359, 621.753 L 624.742, 624.918 L 622.984, 627.027 L 626.675, 628.609 L 637.398, 613.843 L 626.324, 609.273 L 630.191, 603.999 L 635.641, 596.44 L 677.829, 614.019 L 671.501, 622.632 L 668.337, 627.027 L 655.328, 621.578 L 654.098, 623.16 L 656.559, 624.214 L 647.242, 637.047 L 657.789, 641.617 L 654.801, 645.66 L 647.418, 655.856 L 618.589, 644.078 L 617.535, 643.902 L 615.777, 643.199 L 615.074, 642.848 L 613.843, 641.617 L 613.14, 640.387 L 612.964, 639.508 L 613.14, 638.102 L 611.558, 629.84 z "/>
<path style="fill:rgb(0, 255, 0);fill-opacity:0;fill-rule:evenodd;stroke:rgb(0, 189, 255);stroke-width:1;" d="M 682.751, 606.987 L 686.618, 601.714 L 718.084, 558.295 L 739.002, 579.213 L 712.635, 615.425 L 711.931, 616.48 L 710.174, 618.765 L 682.751, 606.987 z "/>
<path style="fill:rgb(0, 0, 255);fill-opacity:0;fill-rule:evenodd;stroke:rgb(0, 189, 255);stroke-width:1;" d="M 628.082, 520.853 L 646.188, 496.067 L 663.063, 503.098 L 659.372, 508.372 L 671.325, 513.294 L 670.094, 515.052 L 672.731, 516.282 L 677.829, 509.426 L 695.759, 516.809 L 691.54, 522.61 L 692.771, 524.368 L 688.376, 530.169 L 684.509, 535.619 L 681.872, 535.97 L 678.005, 541.419 L 676.774, 540.892 L 659.372, 533.685 L 663.239, 528.411 L 647.594, 521.907 L 643.551, 527.532 L 628.082, 520.853 z "/>
<path style="fill:rgb(255, 255, 0);fill-opacity:0;fill-rule:evenodd;stroke:rgb(0, 189, 255);stroke-width:1;" d="M 415.381, 351.22 L 423.467, 340.145 L 432.96, 344.364 L 442.98, 330.828 L 433.311, 326.785 L 442.101, 315.008 L 478.84, 330.653 L 470.578, 342.079 L 460.031, 337.684 L 450.011, 351.22 L 461.085, 355.79 L 452.824, 367.04 L 415.381, 351.22 z "/>
<path style="fill:rgb(255, 0, 0);fill-opacity:0;fill-rule:evenodd;stroke:rgb(0, 189, 255);stroke-width:1;" d="M 452.824, 367.04 L 461.085, 355.79 L 470.402, 359.833 L 480.422, 346.298 L 470.578, 342.079 L 478.84, 330.653 L 515.931, 346.298 L 507.493, 357.899 L 496.77, 353.505 L 486.926, 366.864 L 497.649, 371.435 L 489.563, 382.509 L 452.824, 367.04 z "/>
<path style="fill:rgb(0, 255, 0);fill-opacity:0;fill-rule:evenodd;stroke:rgb(0, 189, 255);stroke-width:1;" d="M 489.563, 382.509 L 497.649, 371.435 L 507.317, 375.478 L 517.161, 362.118 L 507.493, 357.899 L 515.931, 346.298 L 553.549, 362.294 L 544.935, 374.072 L 533.509, 369.15 L 523.489, 382.685 L 533.509, 387.08 L 525.599, 397.803 L 489.563, 382.509 z "/>
<path style="fill:rgb(0, 0, 255);fill-opacity:0;fill-rule:evenodd;stroke:rgb(0, 189, 255);stroke-width:1;" d="M 531.048, 491.496 L 539.31, 480.246 L 542.298, 481.477 L 543.705, 479.719 L 545.287, 480.422 L 567.612, 449.835 L 586.948, 457.921 L 562.865, 490.969 L 561.459, 490.442 L 558.295, 494.661 L 563.744, 496.946 L 561.811, 499.583 L 552.846, 511.887 L 549.506, 508.372 L 542.474, 501.516 L 534.915, 494.836 L 531.048, 491.496 z "/>
<path style="fill:rgb(255, 255, 0);fill-opacity:0;fill-rule:evenodd;stroke:rgb(0, 189, 255);stroke-width:1;" d="M 647.418, 655.856 L 654.801, 645.66 L 662.711, 649 L 664.997, 646.012 L 663.766, 645.485 L 676.599, 627.906 L 679.06, 628.961 L 680.993, 626.5 L 671.501, 622.632 L 677.829, 614.019 L 679.235, 612.085 L 703.142, 622.105 L 680.993, 652.692 L 677.477, 651.11 L 675.544, 653.746 L 680.993, 656.032 L 681.345, 655.504 L 683.103, 656.207 L 675.016, 667.282 L 647.418, 655.856 z "/>
<path style="fill:rgb(255, 0, 0);fill-opacity:0;fill-rule:evenodd;stroke:rgb(0, 189, 255);stroke-width:1;" d="M 63.6344, 483.41 L 75.412, 454.933 L 97.3852, 460.207 L 85.6076, 488.684 L 63.6344, 483.41 z "/>
<path style="fill:rgb(0, 255, 0);fill-opacity:0;fill-rule:evenodd;stroke:rgb(0, 189, 255);stroke-width:1;" d="M 226.939, 332.059 L 233.443, 323.094 L 278.093, 341.903 L 282.839, 344.012 L 281.257, 346.298 L 282.663, 346.825 L 283.366, 347.176 L 283.718, 347.704 L 284.597, 348.934 L 284.773, 350.165 L 284.421, 351.395 L 281.784, 355.087 L 254.889, 343.837 L 226.939, 332.059 z "/>
<path style="fill:rgb(0, 0, 255);fill-opacity:0;fill-rule:evenodd;stroke:rgb(0, 189, 255);stroke-width:1;" d="M 233.443, 323.094 L 239.596, 314.832 L 255.592, 321.512 L 279.147, 331.532 L 277.741, 333.465 L 279.323, 334.52 L 280.378, 335.926 L 280.905, 337.508 L 280.905, 338.211 L 278.093, 341.903 L 233.443, 323.094 z "/>
<path style="fill:rgb(255, 255, 0);fill-opacity:0;fill-rule:evenodd;stroke:rgb(0, 189, 255);stroke-width:1;" d="M 245.397, 357.02 L 254.889, 343.837 L 281.784, 355.087 L 273.171, 367.04 L 271.237, 366.161 L 270.358, 367.392 L 245.397, 357.02 z "/>
<path style="fill:rgb(255, 0, 0);fill-opacity:0;fill-rule:evenodd;stroke:rgb(0, 189, 255);stroke-width:1;" d="M 451.417, 609.624 L 457.218, 608.921 L 474.094, 614.722 L 480.246, 618.589 L 481.652, 624.214 L 476.906, 624.742 L 477.258, 626.148 L 461.261, 628.433 L 461.261, 627.906 L 455.988, 628.609 L 451.417, 609.624 z "/>
<path style="fill:rgb(0, 255, 0);fill-opacity:0;fill-rule:evenodd;stroke:rgb(0, 189, 255);stroke-width:1;" d="M 235.377, 311.316 L 240.123, 304.812 L 245.572, 307.097 L 276.686, 320.105 L 279.147, 331.532 L 255.592, 321.512 L 256.647, 320.281 L 235.377, 311.316 z "/>
<path style="fill:rgb(0, 0, 255);fill-opacity:0;fill-rule:evenodd;stroke:rgb(0, 189, 255);stroke-width:1;" d="M 433.311, 550.385 L 434.366, 548.978 L 442.628, 537.904 L 450.011, 527.884 L 457.921, 531.224 L 460.382, 533.509 L 444.21, 555.307 L 441.749, 555.307 L 439.288, 554.955 L 437.003, 554.252 L 435.069, 553.197 L 433.311, 550.385 z "/>
<path style="fill:rgb(255, 255, 0);fill-opacity:0;fill-rule:evenodd;stroke:rgb(0, 189, 255);stroke-width:1;" d="M 478.312, 583.608 L 490.617, 566.908 L 492.375, 567.963 L 493.078, 568.666 L 493.782, 569.369 L 494.661, 571.127 L 495.188, 572.709 L 495.012, 573.588 L 494.661, 575.346 L 499.231, 577.456 L 503.45, 584.663 L 503.45, 588.003 L 501.516, 590.639 L 499.934, 591.343 L 499.055, 591.694 L 498.352, 592.573 L 478.312, 583.608 z "/>
<path style="fill:rgb(255, 0, 0);fill-opacity:0;fill-rule:evenodd;stroke:rgb(0, 189, 255);stroke-width:1;" d="M 466.886, 578.686 L 467.765, 577.456 L 482.883, 556.889 L 486.926, 558.646 L 490.09, 562.514 L 490.617, 566.908 L 478.312, 583.608 L 477.434, 584.838 L 467.765, 580.795 L 466.886, 578.686 z "/>
<path style="fill:rgb(0, 255, 0);fill-opacity:0;fill-rule:evenodd;stroke:rgb(0, 189, 255);stroke-width:1;" d="M 443.331, 556.713 L 444.21, 555.307 L 460.382, 533.509 L 461.613, 533.861 L 463.898, 534.915 L 465.832, 536.322 L 467.238, 538.08 L 467.59, 538.958 L 468.293, 541.068 L 452.296, 562.514 L 449.484, 561.811 L 447.023, 560.58 L 445.792, 559.877 L 443.858, 558.119 L 443.331, 556.713 z "/>
<path style="fill:rgb(0, 0, 255);fill-opacity:0;fill-rule:evenodd;stroke:rgb(0, 189, 255);stroke-width:1;" d="M 458.624, 571.479 L 460.031, 569.545 L 475.851, 548.451 L 480.07, 550.033 L 483.762, 554.252 L 482.883, 556.889 L 467.765, 577.456 L 462.492, 575.17 L 458.624, 571.479 z "/>
<path style="fill:rgb(255, 255, 0);fill-opacity:0;fill-rule:evenodd;stroke:rgb(0, 189, 255);stroke-width:1;" d="M 243.463, 293.034 L 247.33, 287.761 L 250.846, 287.058 L 271.764, 295.847 L 274.401, 308.504 L 251.549, 298.835 L 244.342, 295.847 L 243.463, 293.034 z "/>
<path style="fill:rgb(255, 0, 0);fill-opacity:0;fill-rule:evenodd;stroke:rgb(0, 189, 255);stroke-width:1;" d="M 451.066, 564.272 L 452.296, 562.514 L 468.293, 541.068 L 472.512, 542.298 L 475.324, 545.287 L 475.851, 548.451 L 460.031, 569.545 L 457.042, 568.666 L 454.406, 567.084 L 452.12, 565.326 L 451.066, 564.272 z "/>
<path style="fill:rgb(0, 255, 0);fill-opacity:0;fill-rule:evenodd;stroke:rgb(0, 189, 255);stroke-width:1;" d="M 244.869, 304.636 L 248.385, 299.89 L 251.549, 298.835 L 274.401, 308.504 L 276.686, 320.105 L 245.572, 307.097 L 244.869, 304.636 z "/>
<path style="fill:rgb(0, 0, 255);fill-opacity:0;fill-rule:evenodd;stroke:rgb(0, 189, 255);stroke-width:1;" d="M 248.209, 280.73 L 253.307, 267.897 L 269.303, 274.225 L 269.655, 276.159 L 270.007, 277.038 L 272.643, 280.73 L 272.995, 282.136 L 272.995, 282.839 L 272.468, 284.245 L 271.589, 285.476 L 270.182, 286.355 L 268.425, 287.058 L 267.546, 287.234 L 265.612, 287.234 L 263.854, 286.882 L 248.209, 280.73 z "/>
<path style="fill:rgb(255, 255, 0);fill-opacity:0;fill-rule:evenodd;stroke:rgb(0, 189, 255);stroke-width:1;" d="M 349.286, 596.265 L 363.7, 576.401 L 374.951, 581.147 L 369.853, 588.178 L 361.767, 599.429 L 360.536, 601.011 L 349.286, 596.265 z "/>
<path style="fill:rgb(255, 0, 0);fill-opacity:0;fill-rule:evenodd;stroke:rgb(0, 189, 255);stroke-width:1;" d="M 438.058, 618.589 L 443.507, 610.855 L 451.417, 609.624 L 455.988, 628.609 L 451.417, 629.136 L 451.593, 629.84 L 439.991, 631.07 L 438.058, 618.589 z "/>
<path style="fill:rgb(0, 255, 0);fill-opacity:0;fill-rule:evenodd;stroke:rgb(0, 189, 255);stroke-width:1;" d="M 307.8, 579.038 L 322.039, 559.701 L 322.391, 559.174 L 332.938, 563.568 L 318.348, 583.608 L 307.8, 579.038 z "/>
<path style="fill:rgb(0, 0, 255);fill-opacity:0;fill-rule:evenodd;stroke:rgb(0, 189, 255);stroke-width:1;" d="M 265.964, 561.635 L 280.026, 542.123 L 290.749, 546.517 L 276.686, 566.029 L 265.964, 561.635 z "/>
<path style="fill:rgb(255, 255, 0);fill-opacity:0;fill-rule:evenodd;stroke:rgb(0, 189, 255);stroke-width:1;" d="M 286.882, 570.424 L 301.121, 550.912 L 311.668, 555.307 L 297.429, 574.819 L 286.882, 570.424 z "/>
<path style="fill:rgb(255, 0, 0);fill-opacity:0;fill-rule:evenodd;stroke:rgb(0, 189, 255);stroke-width:1;" d="M 255.416, 557.24 L 269.479, 537.728 L 280.026, 542.123 L 265.964, 561.635 L 255.416, 557.24 z "/>
<path style="fill:rgb(0, 255, 0);fill-opacity:0;fill-rule:evenodd;stroke:rgb(0, 189, 255);stroke-width:1;" d="M 318.348, 583.608 L 332.938, 563.568 L 343.133, 567.787 L 328.543, 587.827 L 318.348, 583.608 z "/>
<path style="fill:rgb(0, 0, 255);fill-opacity:0;fill-rule:evenodd;stroke:rgb(0, 189, 255);stroke-width:1;" d="M 328.543, 587.827 L 343.133, 567.787 L 353.505, 572.182 L 340.145, 590.639 L 335.223, 588.53 L 334.168, 590.112 L 328.543, 587.827 z "/>
<path style="fill:rgb(255, 255, 0);fill-opacity:0;fill-rule:evenodd;stroke:rgb(0, 189, 255);stroke-width:1;" d="M 276.686, 566.029 L 290.749, 546.517 L 301.121, 550.912 L 286.882, 570.424 L 276.686, 566.029 z "/>
<path style="fill:rgb(255, 0, 0);fill-opacity:0;fill-rule:evenodd;stroke:rgb(0, 189, 255);stroke-width:1;" d="M 297.429, 574.819 L 311.668, 555.307 L 322.039, 559.701 L 307.8, 579.038 L 297.429, 574.819 z "/>
<path style="fill:rgb(0, 255, 0);fill-opacity:0;fill-rule:evenodd;stroke:rgb(0, 189, 255);stroke-width:1;" d="M 339.266, 592.046 L 340.145, 590.639 L 353.505, 572.182 L 363.7, 576.401 L 349.286, 596.265 L 339.266, 592.046 z "/>
<path style="fill:rgb(0, 0, 255);fill-opacity:0;fill-rule:evenodd;stroke:rgb(0, 189, 255);stroke-width:1;" d="M 245.397, 553.021 L 259.635, 533.509 L 269.479, 537.728 L 255.416, 557.24 L 245.397, 553.021 z "/>
<path style="fill:rgb(255, 255, 0);fill-opacity:0;fill-rule:evenodd;stroke:rgb(0, 189, 255);stroke-width:1;" d="M 236.432, 550.736 L 251.549, 530.169 L 259.635, 533.509 L 245.397, 553.021 L 244.693, 554.252 L 243.111, 554.603 L 241.354, 554.779 L 239.596, 554.428 L 238.189, 553.724 L 237.135, 552.67 L 236.607, 551.439 L 236.432, 550.736 z "/>
<path style="fill:rgb(255, 0, 0);fill-opacity:0;fill-rule:evenodd;stroke:rgb(0, 189, 255);stroke-width:1;" d="M 684.509, 34.8055 L 697.165, 17.5786 L 704.021, 20.3911 L 707.537, 15.6449 L 704.9, 14.5902 L 715.447, 0 L 733.905, 7.73456 L 722.654, 23.2037 L 730.565, 26.5436 L 741.815, 11.0745 L 762.03, 19.688 L 750.604, 35.3329 L 758.69, 38.6728 L 770.116, 23.0279 L 787.871, 30.5867 L 776.445, 46.0558 L 772.577, 44.4737 L 757.284, 65.3922 L 738.651, 57.6577 L 747.616, 45.3527 L 747.44, 45.1769 L 740.409, 42.1885 L 731.268, 54.4935 L 704.724, 43.419 L 713.689, 31.114 L 708.767, 29.0046 L 707.009, 31.4656 L 704.373, 30.4109 L 697.341, 40.0791 L 684.509, 34.8055 z "/>
</svg>