<?xml version="1.0" encoding="iso-8859-1" standalone="no"?>
<!DOCTYPE svg PUBLIC "-//W3C//DTD SVG 1.0//EN" "http://www.w3.org/TR/2001/REC-SVG-20010904/DTD/svg10.dtd">
<svg xmlns="http://www.w3.org/2000/svg" width="944" height="800">
<path style="fill:rgb(255, 0, 0);fill-opacity:0;fill-rule:evenodd;stroke:rgb(144, 255, 0);stroke-width:1;" d="M 401.152, 179.679 L 457.096, 103.003 L 468.449, 107.775 L 487.701, 115.837 L 496.586, 103.497 L 505.636, 91.1559 L 771.041, 204.031 L 806.088, 218.511 L 796.874, 230.852 L 788.482, 242.698 L 797.038, 246.483 L 811.847, 252.9 L 853.805, 270.341 L 870.753, 277.417 L 814.809, 354.093 L 797.861, 347.018 L 710.983, 310.325 L 696.174, 304.072 L 609.297, 267.544 L 594.488, 261.292 L 509.914, 225.751 L 495.269, 219.334 L 414.809, 185.438 L 401.152, 179.679 z "/>
<path style="fill:rgb(0, 255, 0);fill-opacity:0;fill-rule:evenodd;stroke:rgb(144, 255, 0);stroke-width:1;" d="M 401.152, 179.679 L 457.096, 103.003 L 468.449, 107.775 L 487.701, 115.837 L 788.482, 242.698 L 797.038, 246.483 L 811.847, 252.9 L 853.805, 270.341 L 870.753, 277.417 L 814.809, 354.093 L 797.861, 347.018 L 710.983, 310.325 L 696.174, 304.072 L 609.297, 267.544 L 594.488, 261.292 L 509.914, 225.751 L 495.269, 219.334 L 414.809, 185.438 L 401.152, 179.679 z "/>
<path style="fill:rgb(0, 0, 255);fill-opacity:0;fill-rule:evenodd;stroke:rgb(144, 255, 0);stroke-width:1;" d="M 771.041, 204.031 L 781.571, 189.387 L 792.431, 193.994 L 795.722, 189.387 L 805.101, 176.388 L 819.251, 156.808 L 828.137, 144.467 L 815.302, 139.202 L 820.732, 131.633 L 824.846, 125.874 L 944.467, 175.237 L 888.852, 252.735 L 806.088, 218.511 L 771.041, 204.031 z M 834.554, 195.311 L 876.347, 212.587 L 880.296, 206.993 L 869.272, 202.386 L 879.144, 188.893 L 890.333, 193.501 L 894.118, 188.071 L 852.16, 170.629 L 834.554, 195.311 z "/>
<path style="fill:rgb(255, 255, 0);fill-opacity:0;fill-rule:evenodd;stroke:rgb(144, 255, 0);stroke-width:1;" d="M 487.701, 115.837 L 496.586, 103.497 L 505.636, 91.1559 L 771.041, 204.031 L 806.088, 218.511 L 796.874, 230.852 L 788.482, 242.698 L 487.701, 115.837 z "/>
<path style="fill:rgb(255, 0, 0);fill-opacity:0;fill-rule:evenodd;stroke:rgb(144, 255, 0);stroke-width:1;" d="M 550.062, 480.954 L 552.365, 480.954 L 552.201, 470.917 L 594.323, 470.259 L 593.994, 456.931 L 637.598, 456.109 L 636.94, 435.047 L 650.267, 434.718 L 650.267, 433.073 L 659.317, 433.073 L 659.317, 434.718 L 672.316, 434.389 L 672.974, 455.615 L 717.894, 454.957 L 718.552, 478.815 L 675.607, 479.473 L 675.771, 487.207 L 673.797, 487.207 L 675.442, 546.277 L 662.114, 546.442 L 662.279, 548.252 L 652.735, 548.416 L 652.571, 546.606 L 640.066, 546.771 L 638.749, 496.257 L 552.859, 497.573 L 552.53, 487.701 L 550.226, 487.865 L 550.062, 480.954 z "/>
<path style="fill:rgb(0, 255, 0);fill-opacity:0;fill-rule:evenodd;stroke:rgb(144, 255, 0);stroke-width:1;" d="M 73.8791, 440.806 L 130.317, 363.143 L 181.489, 384.533 L 125.051, 462.197 L 73.8791, 440.806 z "/>
<path style="fill:rgb(0, 0, 255);fill-opacity:0;fill-rule:evenodd;stroke:rgb(144, 255, 0);stroke-width:1;" d="M 740.107, 562.402 L 753.27, 543.974 L 772.193, 551.707 L 774.167, 548.91 L 776.635, 549.897 L 786.179, 536.569 L 781.078, 534.43 L 786.672, 526.697 L 792.102, 528.836 L 800.987, 516.166 L 799.177, 515.343 L 801.481, 511.888 L 782.394, 504.155 L 795.228, 486.055 L 819.91, 496.092 L 822.049, 493.13 L 824.352, 494.118 L 832.579, 482.6 L 851.172, 490.169 L 851.008, 490.498 L 842.616, 502.345 L 844.755, 503.167 L 842.616, 506.129 L 861.703, 514.027 L 848.869, 532.291 L 823.858, 521.925 L 818.593, 529.329 L 819.416, 529.659 L 801.645, 554.669 L 800.494, 554.175 L 795.064, 561.909 L 819.58, 571.781 L 806.911, 589.552 L 787.33, 581.489 L 785.191, 584.78 L 782.723, 583.793 L 774.332, 595.804 L 755.738, 588.235 L 764.295, 576.224 L 762.32, 575.401 L 764.459, 572.275 L 740.107, 562.402 z "/>
<path style="fill:rgb(255, 255, 0);fill-opacity:0;fill-rule:evenodd;stroke:rgb(144, 255, 0);stroke-width:1;" d="M 251.09, 598.108 L 267.38, 575.566 L 279.391, 559.111 L 366.763, 595.969 L 338.462, 634.965 L 336.981, 634.307 L 313.122, 624.27 L 251.09, 598.108 z "/>
<path style="fill:rgb(255, 0, 0);fill-opacity:0;fill-rule:evenodd;stroke:rgb(144, 255, 0);stroke-width:1;" d="M 391.937, 359.687 L 408.063, 337.968 L 461.045, 360.839 L 483.587, 370.218 L 479.967, 375.319 L 481.448, 379.597 L 488.194, 382.394 L 475.524, 399.506 L 465.981, 412.67 L 423.529, 394.406 L 424.517, 393.089 L 422.213, 392.102 L 421.719, 393.089 L 420.239, 394.735 L 419.251, 395.393 L 417.277, 396.709 L 414.973, 397.696 L 413.821, 398.026 L 411.189, 398.519 L 408.556, 398.519 L 407.24, 398.519 L 404.772, 398.026 L 403.62, 397.696 L 401.316, 396.709 L 399.177, 395.393 L 397.532, 393.912 L 396.874, 393.089 L 396.38, 392.102 L 395.557, 390.292 L 395.557, 365.94 L 398.19, 362.32 L 391.937, 359.687 z "/>
<path style="fill:rgb(0, 255, 0);fill-opacity:0;fill-rule:evenodd;stroke:rgb(144, 255, 0);stroke-width:1;" d="M 811.024, 751.296 L 812.999, 748.663 L 827.643, 728.425 L 833.566, 720.362 L 835.87, 721.349 L 840.971, 714.274 L 906.294, 741.752 L 899.054, 751.625 L 880.625, 777.129 L 878.651, 779.761 L 811.024, 751.296 z "/>
<path style="fill:rgb(0, 0, 255);fill-opacity:0;fill-rule:evenodd;stroke:rgb(144, 255, 0);stroke-width:1;" d="M 570.465, 785.52 L 592.02, 755.903 L 590.539, 755.245 L 622.954, 710.983 L 636.94, 714.768 L 655.533, 722.666 L 609.297, 786.014 L 599.095, 800 L 580.337, 792.102 L 570.465, 785.52 z "/>
<path style="fill:rgb(255, 255, 0);fill-opacity:0;fill-rule:evenodd;stroke:rgb(144, 255, 0);stroke-width:1;" d="M 355.409, 636.281 L 361.004, 628.712 L 380.584, 601.728 L 445.084, 628.877 L 419.91, 663.431 L 355.409, 636.281 z "/>
<path style="fill:rgb(255, 0, 0);fill-opacity:0;fill-rule:evenodd;stroke:rgb(144, 255, 0);stroke-width:1;" d="M 433.073, 436.528 L 458.248, 435.705 L 457.919, 430.276 L 519.786, 428.301 L 518.47, 404.772 L 536.734, 404.114 L 537.721, 422.049 L 562.567, 421.226 L 563.39, 436.035 L 537.886, 436.857 L 538.379, 445.742 L 533.937, 445.907 L 533.608, 442.123 L 476.512, 443.933 L 477.828, 467.956 L 459.893, 468.614 L 458.906, 450.35 L 433.896, 451.172 L 433.073, 436.528 z "/>
<path style="fill:rgb(0, 255, 0);fill-opacity:0;fill-rule:evenodd;stroke:rgb(144, 255, 0);stroke-width:1;" d="M 391.937, 359.687 L 408.063, 337.968 L 461.045, 360.839 L 456.931, 366.269 L 452.16, 367.256 L 445.084, 364.295 L 432.415, 381.407 L 439.984, 384.533 L 440.806, 388.153 L 437.022, 393.583 L 459.564, 402.962 L 463.677, 397.532 L 468.449, 396.545 L 475.524, 399.506 L 465.981, 412.67 L 423.529, 394.406 L 424.517, 393.089 L 422.213, 392.102 L 421.719, 393.089 L 420.239, 394.735 L 419.251, 395.393 L 417.277, 396.709 L 414.973, 397.696 L 413.821, 398.026 L 411.189, 398.519 L 408.556, 398.519 L 407.24, 398.519 L 404.772, 398.026 L 403.62, 397.696 L 401.316, 396.709 L 399.177, 395.393 L 397.532, 393.912 L 396.874, 393.089 L 396.38, 392.102 L 395.557, 390.292 L 395.557, 365.94 L 398.19, 362.32 L 391.937, 359.687 z "/>
<path style="fill:rgb(0, 0, 255);fill-opacity:0;fill-rule:evenodd;stroke:rgb(144, 255, 0);stroke-width:1;" d="M 573.756, 592.513 L 598.766, 558.453 L 652.571, 581.489 L 622.954, 621.802 L 584.615, 605.348 L 589.223, 599.095 L 573.756, 592.513 z "/>
<path style="fill:rgb(255, 255, 0);fill-opacity:0;fill-rule:evenodd;stroke:rgb(144, 255, 0);stroke-width:1;" d="M 290.58, 329.905 L 314.603, 329.247 L 313.78, 309.831 L 333.361, 309.338 L 334.183, 326.615 L 334.348, 328.754 L 341.423, 328.589 L 343.398, 370.218 L 375.977, 369.231 L 376.635, 382.888 L 352.283, 383.546 L 353.106, 402.962 L 333.854, 403.62 L 332.867, 384.039 L 325.956, 384.204 L 323.982, 342.904 L 291.238, 343.727 L 290.58, 329.905 z "/>
<path style="fill:rgb(255, 0, 0);fill-opacity:0;fill-rule:evenodd;stroke:rgb(144, 255, 0);stroke-width:1;" d="M 242.863, 209.297 L 271.822, 169.642 L 291.403, 177.869 L 291.896, 178.034 L 298.313, 180.831 L 322.83, 191.032 L 293.871, 230.687 L 280.378, 224.928 L 262.937, 217.688 L 260.798, 216.865 L 248.457, 211.6 L 242.863, 209.297 z "/>
<path style="fill:rgb(0, 255, 0);fill-opacity:0;fill-rule:evenodd;stroke:rgb(144, 255, 0);stroke-width:1;" d="M 837.351, 426.656 L 843.933, 417.606 L 848.54, 419.58 L 853.311, 413.163 L 876.512, 422.871 L 880.132, 417.935 L 886.549, 420.568 L 888.194, 418.264 L 903.497, 424.681 L 901.687, 427.149 L 907.775, 429.782 L 906.129, 432.086 L 910.243, 433.731 L 908.433, 436.199 L 894.776, 454.957 L 892.472, 458.083 L 886.549, 465.981 L 884.245, 465.158 L 876.676, 475.36 L 843.274, 461.209 L 851.008, 450.679 L 861.538, 455.121 L 863.348, 452.653 L 856.931, 449.856 L 860.716, 444.755 L 837.515, 434.883 L 842.123, 428.63 L 837.351, 426.656 z "/>
<path style="fill:rgb(0, 0, 255);fill-opacity:0;fill-rule:evenodd;stroke:rgb(144, 255, 0);stroke-width:1;" d="M 61.0448, 644.015 L 69.1074, 632.826 L 78.9798, 619.169 L 85.397, 610.613 L 108.433, 620.321 L 129.659, 629.206 L 150.062, 637.762 L 148.416, 640.066 L 144.138, 645.825 L 129.823, 665.57 L 95.5985, 651.09 L 91.485, 656.849 L 65.8165, 645.989 L 61.0448, 644.015 z "/>
<path style="fill:rgb(255, 255, 0);fill-opacity:0;fill-rule:evenodd;stroke:rgb(144, 255, 0);stroke-width:1;" d="M 286.796, 511.724 L 319.704, 510.572 L 317.236, 471.74 L 324.311, 471.575 L 323.159, 454.299 L 341.917, 453.476 L 343.069, 470.917 L 368.737, 469.93 L 369.56, 483.916 L 336.981, 485.068 L 339.449, 523.571 L 332.538, 523.9 L 333.525, 541.012 L 314.274, 541.67 L 313.122, 524.558 L 287.783, 525.545 L 286.796, 511.724 z "/>
<path style="fill:rgb(255, 0, 0);fill-opacity:0;fill-rule:evenodd;stroke:rgb(144, 255, 0);stroke-width:1;" d="M 34.3891, 240.559 L 41.1353, 231.016 L 44.0971, 227.067 L 55.4504, 211.271 L 62.1966, 201.892 L 113.04, 222.624 L 110.901, 225.751 L 106.623, 232.168 L 95.2694, 247.964 L 93.4595, 250.432 L 92.3077, 252.077 L 85.397, 261.456 L 34.3891, 240.559 z "/>
<path style="fill:rgb(0, 255, 0);fill-opacity:0;fill-rule:evenodd;stroke:rgb(144, 255, 0);stroke-width:1;" d="M 194.488, 472.563 L 226.738, 471.246 L 224.27, 433.073 L 231.181, 432.744 L 230.029, 415.467 L 249.445, 414.644 L 250.596, 431.592 L 275.607, 430.769 L 276.594, 444.755 L 244.015, 445.907 L 246.483, 484.41 L 239.737, 484.739 L 240.889, 501.851 L 221.473, 502.674 L 220.321, 485.561 L 195.475, 486.549 L 194.488, 472.563 z "/>
<path style="fill:rgb(0, 0, 255);fill-opacity:0;fill-rule:evenodd;stroke:rgb(144, 255, 0);stroke-width:1;" d="M 673.632, 653.229 L 687.125, 634.965 L 711.312, 645.331 L 713.451, 642.369 L 715.59, 643.357 L 724.64, 631.181 L 730.234, 633.484 L 728.754, 635.459 L 731.386, 636.61 L 735.993, 638.585 L 737.474, 636.446 L 742.74, 638.585 L 733.69, 650.926 L 736.158, 651.913 L 733.854, 655.039 L 753.106, 663.102 L 739.778, 681.037 L 726.615, 675.278 L 722.172, 681.201 L 716.578, 678.898 L 717.729, 677.252 L 710.654, 674.29 L 700.452, 688.276 L 694.035, 685.479 L 695.516, 683.34 L 689.428, 680.872 L 687.947, 683.011 L 681.53, 680.214 L 692.719, 665.076 L 690.251, 663.924 L 692.225, 661.127 L 673.632, 653.229 z "/>
<path style="fill:rgb(255, 255, 0);fill-opacity:0;fill-rule:evenodd;stroke:rgb(144, 255, 0);stroke-width:1;" d="M 390.128, 562.238 L 409.708, 535.582 L 412.834, 536.898 L 422.542, 523.9 L 400.329, 514.521 L 414.151, 495.763 L 459.564, 515.179 L 446.73, 532.62 L 442.945, 530.975 L 432.25, 545.455 L 436.364, 547.1 L 416.783, 573.591 L 390.128, 562.238 z "/>
<path style="fill:rgb(255, 0, 0);fill-opacity:0;fill-rule:evenodd;stroke:rgb(144, 255, 0);stroke-width:1;" d="M 480.296, 600.576 L 490.827, 586.096 L 494.776, 587.742 L 507.61, 569.807 L 503.99, 568.326 L 523.077, 541.999 L 550.062, 553.353 L 530.81, 579.844 L 527.52, 578.527 L 517.647, 592.02 L 539.531, 601.07 L 526.039, 619.663 L 480.296, 600.576 z "/>
<path style="fill:rgb(0, 255, 0);fill-opacity:0;fill-rule:evenodd;stroke:rgb(144, 255, 0);stroke-width:1;" d="M 261.95, 379.761 L 262.279, 369.56 L 271.822, 364.624 L 271.164, 357.219 L 282.353, 350.802 L 294.2, 356.067 L 293.871, 365.775 L 301.769, 368.902 L 307.692, 365.94 L 322.501, 371.205 L 324.311, 401.81 L 312.793, 407.733 L 301.44, 402.633 L 300.452, 394.077 L 293.706, 391.444 L 284.821, 395.722 L 271.987, 391.444 L 272.81, 383.217 L 261.95, 379.761 z "/>
<path style="fill:rgb(0, 0, 255);fill-opacity:0;fill-rule:evenodd;stroke:rgb(144, 255, 0);stroke-width:1;" d="M 48.8688, 660.633 L 61.0448, 644.015 L 65.8165, 645.989 L 91.485, 656.849 L 95.5985, 651.09 L 129.823, 665.57 L 109.749, 693.377 L 75.3599, 679.062 L 79.4735, 673.303 L 53.805, 662.608 L 48.8688, 660.633 z "/>
<path style="fill:rgb(255, 255, 0);fill-opacity:0;fill-rule:evenodd;stroke:rgb(144, 255, 0);stroke-width:1;" d="M 672.151, 402.633 L 691.567, 375.977 L 684.163, 372.851 L 696.997, 355.245 L 713.616, 362.32 L 710.325, 366.763 L 732.374, 376.142 L 705.718, 412.67 L 703.414, 415.796 L 672.151, 402.633 z "/>
<path style="fill:rgb(255, 0, 0);fill-opacity:0;fill-rule:evenodd;stroke:rgb(144, 255, 0);stroke-width:1;" d="M 65.8165, 645.989 L 74.0436, 634.8 L 83.9161, 621.144 L 87.536, 616.043 L 105.965, 623.776 L 127.026, 632.661 L 142.164, 639.079 L 126.532, 660.469 L 97.573, 648.293 L 95.5985, 651.09 L 91.485, 656.849 L 65.8165, 645.989 z "/>
<path style="fill:rgb(0, 255, 0);fill-opacity:0;fill-rule:evenodd;stroke:rgb(144, 255, 0);stroke-width:1;" d="M 388.647, 706.87 L 394.735, 698.478 L 396.709, 695.681 L 408.063, 700.617 L 408.721, 699.794 L 414.809, 702.262 L 420.568, 694.364 L 411.189, 690.415 L 412.176, 689.264 L 403.949, 685.808 L 412.999, 673.303 L 464.994, 695.187 L 462.032, 699.136 L 460.222, 701.604 L 455.78, 707.692 L 435.541, 699.136 L 429.288, 707.857 L 429.124, 708.021 L 436.857, 711.148 L 435.705, 712.629 L 448.375, 717.894 L 440.477, 728.754 L 388.647, 706.87 z "/>
<path style="fill:rgb(0, 0, 255);fill-opacity:0;fill-rule:evenodd;stroke:rgb(144, 255, 0);stroke-width:1;" d="M 113.698, 269.354 L 137.063, 236.775 L 139.037, 234.142 L 177.705, 250.267 L 152.036, 285.808 L 147.429, 283.834 L 144.961, 287.125 L 140.025, 284.986 L 142.657, 281.366 L 113.698, 269.354 z "/>
<path style="fill:rgb(255, 255, 0);fill-opacity:0;fill-rule:evenodd;stroke:rgb(144, 255, 0);stroke-width:1;" d="M 262.937, 217.688 L 281.037, 193.007 L 288.276, 182.97 L 291.896, 178.034 L 298.313, 180.831 L 322.83, 191.032 L 293.871, 230.687 L 280.378, 224.928 L 262.937, 217.688 z "/>
<path style="fill:rgb(255, 0, 0);fill-opacity:0;fill-rule:evenodd;stroke:rgb(144, 255, 0);stroke-width:1;" d="M 837.515, 434.883 L 842.123, 428.63 L 848.54, 419.58 L 853.311, 413.163 L 876.512, 422.871 L 908.433, 436.199 L 894.776, 454.957 L 892.472, 458.083 L 860.716, 444.755 L 837.515, 434.883 z "/>
<path style="fill:rgb(0, 255, 0);fill-opacity:0;fill-rule:evenodd;stroke:rgb(144, 255, 0);stroke-width:1;" d="M 65.1584, 303.743 L 90.9914, 267.873 L 123.571, 281.53 L 97.7376, 317.4 L 65.1584, 303.743 z "/>
<path style="fill:rgb(0, 0, 255);fill-opacity:0;fill-rule:evenodd;stroke:rgb(144, 255, 0);stroke-width:1;" d="M 432.415, 381.407 L 445.084, 364.295 L 452.16, 367.256 L 456.931, 366.269 L 461.045, 360.839 L 483.587, 370.218 L 479.967, 375.319 L 481.448, 379.597 L 488.194, 382.394 L 475.524, 399.506 L 468.449, 396.545 L 463.677, 397.532 L 459.564, 402.962 L 437.022, 393.583 L 440.806, 388.153 L 439.984, 384.533 L 432.415, 381.407 z "/>
<path style="fill:rgb(255, 255, 0);fill-opacity:0;fill-rule:evenodd;stroke:rgb(144, 255, 0);stroke-width:1;" d="M 856.931, 449.856 L 860.716, 444.755 L 876.512, 422.871 L 880.132, 417.935 L 886.549, 420.568 L 888.194, 418.264 L 903.497, 424.681 L 901.687, 427.149 L 907.775, 429.782 L 906.129, 432.086 L 910.243, 433.731 L 908.433, 436.199 L 894.776, 454.957 L 892.472, 458.083 L 886.549, 465.981 L 884.245, 465.158 L 861.538, 455.121 L 863.348, 452.653 L 856.931, 449.856 z "/>
<path style="fill:rgb(255, 0, 0);fill-opacity:0;fill-rule:evenodd;stroke:rgb(144, 255, 0);stroke-width:1;" d="M 302.756, 735.993 L 315.755, 718.058 L 328.425, 723.488 L 328.918, 722.83 L 332.044, 724.146 L 332.538, 723.653 L 353.27, 732.374 L 352.777, 733.032 L 355.409, 734.019 L 355.08, 734.513 L 372.851, 742.081 L 360.016, 760.016 L 348.334, 755.08 L 347.511, 756.067 L 340.93, 753.27 L 340.436, 754.093 L 319.539, 745.208 L 320.033, 744.55 L 313.945, 741.917 L 314.603, 740.93 L 302.756, 735.993 z "/>
<path style="fill:rgb(0, 255, 0);fill-opacity:0;fill-rule:evenodd;stroke:rgb(144, 255, 0);stroke-width:1;" d="M 360.016, 760.016 L 372.851, 742.081 L 384.698, 747.018 L 385.191, 746.524 L 388.318, 747.84 L 388.647, 747.347 L 409.543, 756.067 L 409.05, 756.726 L 411.682, 757.713 L 411.189, 758.206 L 430.44, 766.269 L 417.441, 784.204 L 404.936, 778.939 L 404.278, 779.761 L 396.051, 776.306 L 395.557, 777.129 L 377.129, 769.395 L 377.622, 768.573 L 371.041, 765.775 L 371.699, 764.953 L 360.016, 760.016 z "/>
<path style="fill:rgb(0, 0, 255);fill-opacity:0;fill-rule:evenodd;stroke:rgb(144, 255, 0);stroke-width:1;" d="M 152.201, 736.981 L 165.2, 719.21 L 177.211, 724.146 L 178.034, 723.159 L 184.451, 725.956 L 184.615, 725.463 L 205.512, 734.183 L 205.183, 734.677 L 211.6, 737.31 L 210.777, 738.297 L 222.624, 743.233 L 209.626, 761.168 L 195.64, 755.245 L 195.311, 755.903 L 192.184, 754.587 L 191.691, 755.08 L 170.958, 746.36 L 171.288, 745.866 L 168.819, 744.714 L 169.148, 744.22 L 152.201, 736.981 z "/>
<path style="fill:rgb(255, 255, 0);fill-opacity:0;fill-rule:evenodd;stroke:rgb(144, 255, 0);stroke-width:1;" d="M 131.139, 663.76 L 144.138, 645.825 L 159.276, 652.242 L 159.77, 651.584 L 162.896, 652.9 L 163.225, 652.406 L 183.957, 661.127 L 183.628, 661.785 L 186.096, 662.937 L 185.767, 663.431 L 201.563, 670.012 L 188.564, 687.783 L 176.553, 682.847 L 175.895, 683.669 L 168.655, 680.708 L 168.161, 681.366 L 148.416, 672.974 L 148.91, 672.316 L 142.328, 669.519 L 142.986, 668.696 L 131.139, 663.76 z "/>
<path style="fill:rgb(255, 0, 0);fill-opacity:0;fill-rule:evenodd;stroke:rgb(144, 255, 0);stroke-width:1;" d="M 188.564, 687.783 L 201.563, 670.012 L 215.878, 676.1 L 216.372, 675.442 L 219.498, 676.759 L 219.827, 676.265 L 240.724, 684.986 L 240.23, 685.644 L 242.863, 686.796 L 242.369, 687.289 L 258.494, 694.035 L 245.66, 711.806 L 233.813, 706.87 L 233.32, 707.692 L 226.738, 704.895 L 226.08, 705.718 L 205.183, 696.833 L 205.841, 696.174 L 199.26, 693.377 L 199.918, 692.555 L 188.564, 687.783 z "/>
<path style="fill:rgb(0, 255, 0);fill-opacity:0;fill-rule:evenodd;stroke:rgb(144, 255, 0);stroke-width:1;" d="M 95.2694, 713.122 L 108.268, 695.187 L 120.28, 700.288 L 120.773, 699.465 L 127.19, 702.098 L 127.684, 701.44 L 148.252, 710.16 L 147.758, 710.819 L 154.504, 713.616 L 153.846, 714.439 L 165.2, 719.21 L 152.201, 736.981 L 137.721, 730.893 L 137.227, 731.386 L 134.101, 730.07 L 133.772, 730.728 L 111.724, 721.349 L 112.053, 720.856 L 109.585, 719.868 L 109.914, 719.21 L 95.2694, 713.122 z "/>
<path style="fill:rgb(0, 0, 255);fill-opacity:0;fill-rule:evenodd;stroke:rgb(144, 255, 0);stroke-width:1;" d="M 209.626, 761.168 L 222.624, 743.233 L 235.459, 748.663 L 235.952, 747.84 L 240.724, 749.815 L 264.418, 759.852 L 269.19, 761.826 L 268.531, 762.649 L 279.885, 767.421 L 266.886, 785.191 L 252.406, 779.103 L 251.913, 779.761 L 248.787, 778.445 L 248.457, 778.939 L 227.725, 770.218 L 228.054, 769.724 L 225.422, 768.573 L 225.915, 767.914 L 209.626, 761.168 z "/>
<path style="fill:rgb(255, 255, 0);fill-opacity:0;fill-rule:evenodd;stroke:rgb(144, 255, 0);stroke-width:1;" d="M 245.66, 711.806 L 258.494, 694.035 L 274.784, 700.782 L 275.278, 700.288 L 278.404, 701.604 L 278.733, 701.111 L 299.63, 709.831 L 299.136, 710.49 L 301.769, 711.477 L 301.44, 711.97 L 315.755, 718.058 L 302.756, 735.993 L 290.58, 730.893 L 290.086, 731.551 L 284.327, 729.247 L 262.937, 720.197 L 256.849, 717.729 L 257.343, 716.907 L 245.66, 711.806 z "/>
<path style="fill:rgb(255, 0, 0);fill-opacity:0;fill-rule:evenodd;stroke:rgb(144, 255, 0);stroke-width:1;" d="M 70.2592, 645.825 L 77.3344, 636.117 L 74.0436, 634.8 L 83.9161, 621.144 L 87.2069, 622.624 L 89.3459, 619.827 L 104.155, 626.08 L 105.965, 623.776 L 127.026, 632.661 L 125.051, 635.294 L 138.05, 640.724 L 127.19, 655.862 L 100.699, 644.838 L 99.2184, 646.977 L 94.7758, 645.002 L 93.624, 646.647 L 90.9914, 645.496 L 86.0551, 652.406 L 70.2592, 645.825 z "/>
<path style="fill:rgb(0, 255, 0);fill-opacity:0;fill-rule:evenodd;stroke:rgb(144, 255, 0);stroke-width:1;" d="M 111.559, 391.773 L 127.026, 370.383 L 163.225, 385.356 L 172.768, 389.305 L 172.439, 389.634 L 154.998, 413.657 L 141.999, 408.227 L 144.138, 405.43 L 117.153, 394.241 L 111.559, 391.773 z "/>
<path style="fill:rgb(0, 0, 255);fill-opacity:0;fill-rule:evenodd;stroke:rgb(144, 255, 0);stroke-width:1;" d="M 32.9083, 496.092 L 55.615, 464.994 L 67.9556, 470.095 L 67.4619, 470.753 L 62.0321, 478.157 L 56.6022, 485.561 L 96.4212, 502.345 L 84.9033, 517.976 L 46.4007, 501.851 L 32.9083, 496.092 z "/>
<path style="fill:rgb(255, 255, 0);fill-opacity:0;fill-rule:evenodd;stroke:rgb(144, 255, 0);stroke-width:1;" d="M 175.895, 300.123 L 190.045, 281.037 L 241.382, 302.921 L 227.232, 322.172 L 198.601, 309.831 L 175.895, 300.123 z "/>
<path style="fill:rgb(255, 0, 0);fill-opacity:0;fill-rule:evenodd;stroke:rgb(144, 255, 0);stroke-width:1;" d="M 509.255, 681.037 L 515.673, 672.316 L 523.241, 661.95 L 574.907, 683.669 L 560.921, 702.756 L 517.976, 684.657 L 509.255, 681.037 z "/>
<path style="fill:rgb(0, 255, 0);fill-opacity:0;fill-rule:evenodd;stroke:rgb(144, 255, 0);stroke-width:1;" d="M 284.327, 664.089 L 288.77, 657.672 L 298.807, 644.015 L 301.275, 645.002 L 304.401, 640.724 L 301.933, 639.572 L 313.122, 624.27 L 336.981, 634.307 L 332.374, 640.559 L 334.183, 641.382 L 327.437, 650.432 L 324.64, 649.28 L 321.514, 653.558 L 324.311, 654.71 L 320.856, 659.482 L 319.046, 659.317 L 316.413, 663.102 L 317.4, 664.253 L 310.49, 673.961 L 309.831, 674.784 L 284.327, 664.089 z "/>
<path style="fill:rgb(0, 0, 255);fill-opacity:0;fill-rule:evenodd;stroke:rgb(144, 255, 0);stroke-width:1;" d="M 791.608, 689.428 L 801.974, 675.113 L 805.43, 676.594 L 809.872, 670.341 L 806.582, 668.861 L 818.593, 652.406 L 825.339, 655.204 L 824.681, 655.862 L 843.603, 663.76 L 815.302, 702.756 L 802.468, 697.326 L 801.974, 697.984 L 792.925, 694.2 L 795.228, 690.909 L 791.608, 689.428 z "/>
<path style="fill:rgb(255, 255, 0);fill-opacity:0;fill-rule:evenodd;stroke:rgb(144, 255, 0);stroke-width:1;" d="M 466.804, 739.778 L 476.347, 726.45 L 481.448, 728.589 L 485.726, 722.666 L 505.636, 731.057 L 532.291, 742.246 L 518.305, 761.497 L 466.804, 739.778 z "/>
<path style="fill:rgb(255, 0, 0);fill-opacity:0;fill-rule:evenodd;stroke:rgb(144, 255, 0);stroke-width:1;" d="M 541.999, 157.96 L 559.276, 134.759 L 594.817, 149.733 L 587.413, 159.605 L 598.93, 164.377 L 590.703, 175.566 L 574.743, 168.819 L 578.034, 164.212 L 567.997, 159.934 L 562.896, 166.845 L 541.999, 157.96 z "/>
<path style="fill:rgb(0, 255, 0);fill-opacity:0;fill-rule:evenodd;stroke:rgb(144, 255, 0);stroke-width:1;" d="M 834.554, 195.311 L 852.16, 170.629 L 894.118, 188.071 L 890.333, 193.501 L 879.144, 188.893 L 869.272, 202.386 L 880.296, 206.993 L 876.347, 212.587 L 834.554, 195.311 z "/>
<path style="fill:rgb(0, 0, 255);fill-opacity:0;fill-rule:evenodd;stroke:rgb(144, 255, 0);stroke-width:1;" d="M 190.045, 281.037 L 197.285, 271.329 L 209.626, 276.594 L 217.853, 280.214 L 225.422, 270.012 L 256.026, 283.176 L 241.382, 302.921 L 190.045, 281.037 z "/>
<path style="fill:rgb(255, 255, 0);fill-opacity:0;fill-rule:evenodd;stroke:rgb(144, 255, 0);stroke-width:1;" d="M 44.0971, 227.067 L 55.4504, 211.271 L 106.623, 232.168 L 95.2694, 247.964 L 79.1444, 241.547 L 76.1826, 240.395 L 62.3612, 234.636 L 59.564, 233.484 L 44.0971, 227.067 z "/>
<path style="fill:rgb(255, 0, 0);fill-opacity:0;fill-rule:evenodd;stroke:rgb(144, 255, 0);stroke-width:1;" d="M 242.863, 209.297 L 271.822, 169.642 L 291.403, 177.869 L 291.896, 178.034 L 288.276, 182.97 L 281.037, 193.007 L 262.937, 217.688 L 260.798, 216.865 L 248.457, 211.6 L 242.863, 209.297 z "/>
<path style="fill:rgb(0, 255, 0);fill-opacity:0;fill-rule:evenodd;stroke:rgb(144, 255, 0);stroke-width:1;" d="M 43.1098, 294.529 L 68.7783, 258.659 L 90.9914, 267.873 L 65.1584, 303.743 L 43.1098, 294.529 z "/>
<path style="fill:rgb(0, 0, 255);fill-opacity:0;fill-rule:evenodd;stroke:rgb(144, 255, 0);stroke-width:1;" d="M 90.6623, 430.769 L 117.153, 394.241 L 144.138, 405.43 L 141.999, 408.227 L 129.329, 425.833 L 128.342, 425.504 L 116.002, 420.239 L 107.445, 432.086 L 104.319, 436.364 L 90.6623, 430.769 z "/>
<path style="fill:rgb(255, 255, 0);fill-opacity:0;fill-rule:evenodd;stroke:rgb(144, 255, 0);stroke-width:1;" d="M 240.724, 749.815 L 247.306, 740.765 L 245.002, 739.778 L 253.065, 728.754 L 255.862, 729.905 L 262.937, 720.197 L 284.327, 729.247 L 281.859, 732.538 L 283.669, 733.361 L 264.418, 759.852 L 240.724, 749.815 z "/>
<path style="fill:rgb(255, 0, 0);fill-opacity:0;fill-rule:evenodd;stroke:rgb(144, 255, 0);stroke-width:1;" d="M 627.725, 190.703 L 641.218, 172.275 L 653.887, 177.54 L 649.774, 183.299 L 667.38, 190.703 L 671.164, 185.603 L 684.327, 191.197 L 669.19, 211.765 L 648.457, 202.879 L 653.394, 196.133 L 643.192, 191.855 L 640.23, 195.969 L 627.725, 190.703 z "/>
<path style="fill:rgb(0, 255, 0);fill-opacity:0;fill-rule:evenodd;stroke:rgb(144, 255, 0);stroke-width:1;" d="M 362.649, 695.845 L 368.737, 687.454 L 372.193, 688.935 L 390.621, 663.76 L 409.708, 671.822 L 391.279, 696.997 L 394.735, 698.478 L 388.647, 706.87 L 362.649, 695.845 z "/>
<path style="fill:rgb(0, 0, 255);fill-opacity:0;fill-rule:evenodd;stroke:rgb(144, 255, 0);stroke-width:1;" d="M 438.503, 661.127 L 457.919, 634.471 L 483.752, 645.167 L 464.336, 671.987 L 438.503, 661.127 z "/>
<path style="fill:rgb(255, 255, 0);fill-opacity:0;fill-rule:evenodd;stroke:rgb(144, 255, 0);stroke-width:1;" d="M 786.508, 742.74 L 798.519, 725.956 L 807.404, 729.576 L 810.531, 725.298 L 814.973, 727.108 L 823.036, 715.919 L 810.366, 710.49 L 815.467, 703.579 L 840.971, 714.274 L 835.87, 721.349 L 833.566, 720.362 L 825.504, 716.907 L 814.973, 731.386 L 818.593, 732.867 L 823.2, 726.615 L 827.643, 728.425 L 812.999, 748.663 L 810.202, 749.486 L 806.088, 747.676 L 805.923, 746.03 L 802.304, 744.55 L 799.671, 748.169 L 786.508, 742.74 z "/>
<path style="fill:rgb(255, 0, 0);fill-opacity:0;fill-rule:evenodd;stroke:rgb(144, 255, 0);stroke-width:1;" d="M 93.4595, 250.432 L 95.2694, 247.964 L 106.623, 232.168 L 110.901, 225.751 L 137.063, 236.775 L 119.128, 261.292 L 93.4595, 250.432 z "/>
<path style="fill:rgb(0, 255, 0);fill-opacity:0;fill-rule:evenodd;stroke:rgb(144, 255, 0);stroke-width:1;" d="M 212.916, 234.471 L 219.827, 224.763 L 231.839, 229.7 L 234.8, 230.852 L 280.378, 249.774 L 273.468, 259.482 L 225.257, 239.572 L 212.916, 234.471 z "/>
<path style="fill:rgb(0, 0, 255);fill-opacity:0;fill-rule:evenodd;stroke:rgb(144, 255, 0);stroke-width:1;" d="M 143.809, 204.854 L 167.997, 170.465 L 171.288, 165.858 L 185.603, 171.617 L 158.124, 210.613 L 143.809, 204.854 z "/>
<path style="fill:rgb(255, 255, 0);fill-opacity:0;fill-rule:evenodd;stroke:rgb(144, 255, 0);stroke-width:1;" d="M 164.377, 740.601 L 168.161, 735.5 L 167.339, 735.171 L 173.097, 727.273 L 175.401, 728.26 L 176.059, 727.437 L 176.717, 726.615 L 183.793, 729.576 L 184.615, 728.425 L 204.525, 736.816 L 203.702, 737.968 L 210.119, 740.601 L 209.461, 741.423 L 215.22, 743.891 L 214.233, 745.043 L 216.043, 745.866 L 211.765, 751.789 L 209.955, 750.967 L 208.803, 752.448 L 205.183, 750.967 L 201.234, 756.397 L 196.133, 754.093 L 198.601, 750.638 L 193.994, 748.663 L 193.501, 749.486 L 176.388, 742.246 L 177.046, 741.423 L 171.946, 739.284 L 169.478, 742.74 L 164.377, 740.601 z "/>
<path style="fill:rgb(255, 0, 0);fill-opacity:0;fill-rule:evenodd;stroke:rgb(144, 255, 0);stroke-width:1;" d="M 136.898, 660.798 L 141.176, 654.875 L 142.986, 655.533 L 143.974, 654.052 L 147.594, 655.533 L 151.707, 650.103 L 156.808, 652.242 L 154.175, 655.697 L 158.947, 657.672 L 159.605, 656.849 L 176.553, 663.924 L 176.059, 664.747 L 181.16, 666.886 L 183.793, 663.266 L 188.893, 665.405 L 185.109, 670.506 L 185.932, 670.835 L 180.173, 678.733 L 178.034, 677.746 L 177.376, 678.568 L 176.717, 679.556 L 169.642, 676.594 L 168.655, 677.91 L 148.745, 669.519 L 149.404, 668.531 L 143.151, 665.899 L 143.645, 665.076 L 137.886, 662.773 L 138.708, 661.621 L 136.898, 660.798 z "/>
<path style="fill:rgb(0, 255, 0);fill-opacity:0;fill-rule:evenodd;stroke:rgb(144, 255, 0);stroke-width:1;" d="M 195.475, 685.479 L 199.753, 679.556 L 201.399, 680.378 L 202.55, 678.733 L 206.17, 680.378 L 210.119, 674.784 L 215.22, 677.088 L 212.752, 680.378 L 217.359, 682.517 L 218.017, 681.53 L 235.13, 688.77 L 234.471, 689.428 L 239.572, 691.567 L 242.205, 687.947 L 247.306, 690.086 L 243.521, 695.352 L 244.508, 695.681 L 238.749, 703.414 L 236.446, 702.592 L 235.952, 703.414 L 235.294, 704.237 L 228.054, 701.275 L 227.067, 702.592 L 207.322, 694.2 L 207.98, 693.377 L 201.563, 690.745 L 202.057, 689.922 L 196.462, 687.454 L 197.285, 686.302 L 195.475, 685.479 z "/>
<path style="fill:rgb(0, 0, 255);fill-opacity:0;fill-rule:evenodd;stroke:rgb(144, 255, 0);stroke-width:1;" d="M 254.052, 710.325 L 258.494, 704.401 L 260.14, 705.06 L 261.292, 703.579 L 264.912, 705.06 L 268.861, 699.63 L 273.961, 701.769 L 271.493, 705.224 L 276.1, 707.199 L 276.759, 706.211 L 293.871, 713.451 L 293.213, 714.274 L 298.313, 716.413 L 300.946, 712.793 L 306.047, 714.932 L 302.262, 720.033 L 303.085, 720.362 L 297.491, 728.26 L 295.187, 727.273 L 294.694, 728.095 L 293.871, 729.083 L 286.796, 726.121 L 285.808, 727.273 L 266.063, 719.046 L 266.722, 718.058 L 260.304, 715.426 L 260.798, 714.603 L 255.204, 712.135 L 256.026, 710.983 L 254.052, 710.325 z "/>
<path style="fill:rgb(255, 255, 0);fill-opacity:0;fill-rule:evenodd;stroke:rgb(144, 255, 0);stroke-width:1;" d="M 105.965, 716.413 L 109.749, 711.312 L 108.926, 710.983 L 114.685, 703.085 L 116.989, 704.072 L 117.647, 703.25 L 118.305, 702.427 L 125.381, 705.389 L 126.368, 704.237 L 146.113, 712.629 L 145.29, 713.78 L 151.707, 716.413 L 151.049, 717.236 L 156.808, 719.704 L 155.821, 720.856 L 157.631, 721.678 L 153.353, 727.602 L 151.543, 726.779 L 150.555, 728.26 L 146.771, 726.779 L 142.822, 732.209 L 137.721, 729.905 L 140.189, 726.45 L 135.582, 724.476 L 135.088, 725.298 L 117.976, 718.058 L 118.634, 717.236 L 113.534, 715.097 L 111.065, 718.552 L 105.965, 716.413 z "/>
<path style="fill:rgb(255, 0, 0);fill-opacity:0;fill-rule:evenodd;stroke:rgb(144, 255, 0);stroke-width:1;" d="M 221.637, 765.117 L 225.422, 760.016 L 224.599, 759.687 L 230.358, 751.954 L 232.661, 752.941 L 233.32, 752.118 L 233.978, 751.131 L 241.053, 754.258 L 241.876, 753.106 L 261.785, 761.497 L 260.963, 762.485 L 267.38, 765.117 L 266.722, 765.94 L 272.48, 768.408 L 271.493, 769.724 L 273.303, 770.383 L 269.025, 776.306 L 267.215, 775.483 L 266.063, 777.129 L 262.443, 775.483 L 258.494, 780.913 L 253.394, 778.774 L 255.862, 775.319 L 251.255, 773.344 L 250.761, 774.002 L 233.649, 766.763 L 234.307, 765.94 L 229.206, 763.801 L 226.738, 767.256 L 221.637, 765.117 z "/>
<path style="fill:rgb(0, 255, 0);fill-opacity:0;fill-rule:evenodd;stroke:rgb(144, 255, 0);stroke-width:1;" d="M 365.282, 756.726 L 369.56, 750.967 L 371.205, 751.625 L 372.357, 749.979 L 375.977, 751.625 L 379.926, 746.03 L 385.027, 748.334 L 382.559, 751.789 L 387.166, 753.764 L 387.824, 752.777 L 404.936, 760.016 L 404.278, 760.839 L 409.379, 762.814 L 412.012, 759.358 L 417.112, 761.497 L 413.328, 766.598 L 414.315, 766.927 L 408.556, 774.661 L 406.417, 773.838 L 405.759, 774.661 L 405.101, 775.648 L 397.861, 772.522 L 396.874, 773.838 L 377.129, 765.446 L 377.787, 764.624 L 371.37, 761.991 L 372.028, 761.168 L 366.269, 758.7 L 367.092, 757.548 L 365.282, 756.726 z "/>
<path style="fill:rgb(0, 0, 255);fill-opacity:0;fill-rule:evenodd;stroke:rgb(144, 255, 0);stroke-width:1;" d="M 308.186, 732.867 L 312.464, 726.944 L 314.274, 727.602 L 315.261, 726.121 L 318.881, 727.602 L 322.995, 722.172 L 328.095, 724.311 L 325.463, 727.766 L 330.234, 729.741 L 330.893, 728.918 L 347.84, 736.158 L 347.347, 736.816 L 352.448, 738.955 L 355.08, 735.335 L 360.181, 737.474 L 356.397, 742.575 L 357.219, 743.069 L 351.46, 750.802 L 349.321, 749.815 L 348.663, 750.638 L 348.005, 751.625 L 340.93, 748.663 L 339.942, 749.979 L 320.033, 741.588 L 320.691, 740.765 L 314.439, 737.968 L 314.932, 737.31 L 309.173, 734.842 L 309.996, 733.69 L 308.186, 732.867 z "/>
<path style="fill:rgb(255, 255, 0);fill-opacity:0;fill-rule:evenodd;stroke:rgb(144, 255, 0);stroke-width:1;" d="M 116.002, 566.845 L 123.077, 556.972 L 171.617, 577.376 L 175.895, 579.186 L 171.288, 585.438 L 168.819, 589.058 L 163.554, 586.754 L 143.151, 578.198 L 116.002, 566.845 z "/>
<path style="fill:rgb(255, 0, 0);fill-opacity:0;fill-rule:evenodd;stroke:rgb(144, 255, 0);stroke-width:1;" d="M 797.861, 347.018 L 801.81, 340.765 L 814.644, 346.03 L 861.374, 281.366 L 849.856, 275.936 L 853.805, 270.341 L 870.753, 277.417 L 814.809, 354.093 L 797.861, 347.018 z "/>
<path style="fill:rgb(0, 255, 0);fill-opacity:0;fill-rule:evenodd;stroke:rgb(144, 255, 0);stroke-width:1;" d="M 34.3891, 240.559 L 41.1353, 231.016 L 59.3994, 238.585 L 73.3854, 244.344 L 92.3077, 252.077 L 85.397, 261.456 L 34.3891, 240.559 z "/>
<path style="fill:rgb(0, 0, 255);fill-opacity:0;fill-rule:evenodd;stroke:rgb(144, 255, 0);stroke-width:1;" d="M 296.997, 136.734 L 304.072, 127.19 L 326.45, 136.569 L 353.106, 148.087 L 346.03, 157.631 L 296.997, 136.734 z "/>
<path style="fill:rgb(255, 255, 0);fill-opacity:0;fill-rule:evenodd;stroke:rgb(144, 255, 0);stroke-width:1;" d="M 55.4504, 211.271 L 62.1966, 201.892 L 113.04, 222.624 L 110.901, 225.751 L 106.623, 232.168 L 55.4504, 211.271 z "/>
<path style="fill:rgb(255, 0, 0);fill-opacity:0;fill-rule:evenodd;stroke:rgb(144, 255, 0);stroke-width:1;" d="M 158.124, 210.613 L 185.603, 171.617 L 197.943, 176.717 L 189.387, 188.893 L 170.3, 215.714 L 158.124, 210.613 z "/>
<path style="fill:rgb(0, 255, 0);fill-opacity:0;fill-rule:evenodd;stroke:rgb(144, 255, 0);stroke-width:1;" d="M 97.7376, 317.4 L 123.571, 281.53 L 136.24, 286.796 L 136.734, 286.96 L 110.901, 322.83 L 97.7376, 317.4 z "/>
<path style="fill:rgb(0, 0, 255);fill-opacity:0;fill-rule:evenodd;stroke:rgb(144, 255, 0);stroke-width:1;" d="M 186.754, 325.956 L 198.601, 309.831 L 227.232, 322.172 L 215.385, 338.297 L 186.754, 325.956 z "/>
<path style="fill:rgb(255, 255, 0);fill-opacity:0;fill-rule:evenodd;stroke:rgb(144, 255, 0);stroke-width:1;" d="M 225.257, 239.572 L 231.839, 229.7 L 234.8, 230.852 L 280.378, 249.774 L 273.468, 259.482 L 225.257, 239.572 z "/>
<path style="fill:rgb(255, 0, 0);fill-opacity:0;fill-rule:evenodd;stroke:rgb(144, 255, 0);stroke-width:1;" d="M 130.481, 199.424 L 154.669, 165.035 L 167.997, 170.465 L 143.809, 204.854 L 130.481, 199.424 z "/>
<path style="fill:rgb(0, 255, 0);fill-opacity:0;fill-rule:evenodd;stroke:rgb(144, 255, 0);stroke-width:1;" d="M 419.91, 663.431 L 445.084, 628.877 L 457.919, 634.471 L 438.503, 661.127 L 432.908, 668.861 L 419.91, 663.431 z "/>
<path style="fill:rgb(0, 0, 255);fill-opacity:0;fill-rule:evenodd;stroke:rgb(144, 255, 0);stroke-width:1;" d="M 510.736, 694.694 L 517.976, 684.657 L 560.921, 702.756 L 553.682, 712.793 L 510.736, 694.694 z "/>
<path style="fill:rgb(255, 255, 0);fill-opacity:0;fill-rule:evenodd;stroke:rgb(144, 255, 0);stroke-width:1;" d="M 336.487, 684.821 L 343.562, 675.113 L 344.714, 675.607 L 347.018, 672.48 L 345.866, 671.987 L 350.144, 666.063 L 352.777, 667.215 L 356.067, 662.773 L 354.587, 662.114 L 361.826, 652.242 L 376.306, 658.33 L 367.914, 670.012 L 362.485, 667.709 L 360.51, 670.506 L 364.295, 671.987 L 360.181, 677.746 L 357.713, 676.759 L 355.409, 680.049 L 356.561, 680.543 L 349.321, 690.251 L 336.487, 684.821 z "/>
<path style="fill:rgb(255, 0, 0);fill-opacity:0;fill-rule:evenodd;stroke:rgb(144, 255, 0);stroke-width:1;" d="M 234.8, 230.852 L 241.711, 221.144 L 254.381, 226.244 L 254.381, 226.409 L 253.723, 227.232 L 259.317, 229.535 L 258.494, 230.687 L 262.608, 232.497 L 263.431, 231.345 L 272.974, 235.294 L 274.29, 235.459 L 274.784, 234.8 L 287.454, 240.066 L 280.378, 249.774 L 234.8, 230.852 z "/>
<path style="fill:rgb(0, 255, 0);fill-opacity:0;fill-rule:evenodd;stroke:rgb(144, 255, 0);stroke-width:1;" d="M 123.077, 556.972 L 129.988, 547.429 L 155.656, 558.124 L 168.161, 563.554 L 165.035, 567.503 L 175.566, 571.946 L 171.617, 577.376 L 123.077, 556.972 z "/>
<path style="fill:rgb(0, 0, 255);fill-opacity:0;fill-rule:evenodd;stroke:rgb(144, 255, 0);stroke-width:1;" d="M 495.269, 711.641 L 501.357, 703.414 L 503.661, 704.401 L 546.606, 722.501 L 539.531, 732.209 L 513.04, 721.02 L 514.027, 719.704 L 495.269, 711.641 z "/>
<path style="fill:rgb(255, 255, 0);fill-opacity:0;fill-rule:evenodd;stroke:rgb(144, 255, 0);stroke-width:1;" d="M 503.661, 704.401 L 510.736, 694.694 L 553.682, 712.793 L 546.606, 722.501 L 503.661, 704.401 z "/>
<path style="fill:rgb(255, 0, 0);fill-opacity:0;fill-rule:evenodd;stroke:rgb(144, 255, 0);stroke-width:1;" d="M 241.711, 221.144 L 248.457, 211.6 L 260.798, 216.865 L 260.633, 217.03 L 280.214, 225.093 L 280.378, 224.928 L 293.871, 230.687 L 287.454, 240.066 L 274.784, 234.8 L 274.619, 232.826 L 256.191, 225.257 L 254.875, 225.422 L 254.381, 226.409 L 254.381, 226.244 L 241.711, 221.144 z "/>
<path style="fill:rgb(0, 255, 0);fill-opacity:0;fill-rule:evenodd;stroke:rgb(144, 255, 0);stroke-width:1;" d="M 472.398, 684.986 L 477.005, 678.568 L 479.473, 675.278 L 481.448, 674.784 L 484.245, 671 L 487.042, 672.316 L 490.498, 667.544 L 487.536, 666.228 L 490.169, 662.608 L 489.84, 660.963 L 497.244, 650.926 L 510.243, 656.355 L 503.003, 666.557 L 500.535, 666.557 L 490.991, 679.391 L 492.637, 680.708 L 485.561, 690.415 L 472.398, 684.986 z "/>
<path style="fill:rgb(0, 0, 255);fill-opacity:0;fill-rule:evenodd;stroke:rgb(144, 255, 0);stroke-width:1;" d="M 485.561, 690.415 L 492.637, 680.708 L 494.611, 680.543 L 497.573, 676.594 L 500.041, 677.581 L 503.332, 672.974 L 500.864, 671.987 L 503.661, 668.202 L 503.003, 666.557 L 510.243, 656.355 L 523.241, 661.95 L 515.673, 672.316 L 513.534, 672.151 L 504.484, 684.657 L 505.471, 686.302 L 498.56, 695.845 L 485.561, 690.415 z "/>
<path style="fill:rgb(255, 255, 0);fill-opacity:0;fill-rule:evenodd;stroke:rgb(144, 255, 0);stroke-width:1;" d="M 323.324, 679.391 L 330.399, 669.519 L 332.044, 670.177 L 334.348, 667.051 L 332.703, 666.392 L 336.981, 660.469 L 339.778, 661.785 L 343.069, 657.178 L 340.271, 656.026 L 347.347, 646.154 L 359.194, 651.255 L 352.118, 660.963 L 350.638, 660.469 L 347.347, 664.912 L 350.144, 666.063 L 345.866, 671.987 L 344.22, 671.329 L 341.917, 674.455 L 343.562, 675.113 L 336.487, 684.821 L 323.324, 679.391 z "/>
<path style="fill:rgb(255, 0, 0);fill-opacity:0;fill-rule:evenodd;stroke:rgb(144, 255, 0);stroke-width:1;" d="M 869.272, 202.386 L 879.144, 188.893 L 890.333, 193.501 L 907.116, 200.411 L 897.408, 214.068 L 880.296, 206.993 L 869.272, 202.386 z "/>
<path style="fill:rgb(0, 255, 0);fill-opacity:0;fill-rule:evenodd;stroke:rgb(144, 255, 0);stroke-width:1;" d="M 310.49, 673.961 L 317.4, 664.253 L 319.375, 665.076 L 321.843, 661.621 L 320.033, 660.798 L 320.856, 659.482 L 324.311, 654.71 L 327.437, 656.026 L 330.399, 651.913 L 329.083, 651.419 L 336.158, 641.547 L 347.347, 646.154 L 340.271, 656.026 L 337.803, 655.039 L 334.513, 659.482 L 336.981, 660.469 L 332.703, 666.392 L 331.551, 665.899 L 329.247, 669.025 L 330.399, 669.519 L 323.324, 679.391 L 310.49, 673.961 z "/>
<path style="fill:rgb(0, 0, 255);fill-opacity:0;fill-rule:evenodd;stroke:rgb(144, 255, 0);stroke-width:1;" d="M 463.513, 672.974 L 464.336, 671.987 L 483.752, 645.167 L 497.244, 650.926 L 489.84, 660.963 L 479.473, 675.278 L 477.005, 678.568 L 463.513, 672.974 z "/>
<path style="fill:rgb(255, 255, 0);fill-opacity:0;fill-rule:evenodd;stroke:rgb(144, 255, 0);stroke-width:1;" d="M 401.152, 179.679 L 457.096, 103.003 L 468.449, 107.775 L 463.842, 114.192 L 454.957, 110.407 L 411.189, 170.3 L 422.378, 175.072 L 414.809, 185.438 L 401.152, 179.679 z "/>
<path style="fill:rgb(255, 0, 0);fill-opacity:0;fill-rule:evenodd;stroke:rgb(144, 255, 0);stroke-width:1;" d="M 182.476, 220.65 L 201.563, 193.83 L 215.056, 199.424 L 195.969, 226.244 L 182.476, 220.65 z "/>
<path style="fill:rgb(0, 255, 0);fill-opacity:0;fill-rule:evenodd;stroke:rgb(144, 255, 0);stroke-width:1;" d="M 347.84, 623.283 L 367.585, 595.804 L 380.913, 601.399 L 380.584, 601.728 L 361.004, 628.712 L 347.84, 623.283 z "/>
<path style="fill:rgb(0, 0, 255);fill-opacity:0;fill-rule:evenodd;stroke:rgb(144, 255, 0);stroke-width:1;" d="M 349.321, 690.251 L 356.561, 680.543 L 357.713, 681.037 L 360.181, 677.746 L 364.295, 671.987 L 365.94, 672.645 L 367.914, 670.012 L 376.306, 658.33 L 385.356, 662.279 L 378.116, 671.987 L 376.635, 671.329 L 373.344, 675.936 L 376.306, 677.088 L 371.863, 683.34 L 369.889, 682.517 L 367.75, 685.315 L 369.724, 686.137 L 368.737, 687.454 L 362.649, 695.845 L 349.321, 690.251 z "/>
<path style="fill:rgb(255, 255, 0);fill-opacity:0;fill-rule:evenodd;stroke:rgb(144, 255, 0);stroke-width:1;" d="M 843.274, 461.209 L 851.008, 450.679 L 861.538, 455.121 L 884.245, 465.158 L 876.676, 475.36 L 843.274, 461.209 z "/>
<path style="fill:rgb(255, 0, 0);fill-opacity:0;fill-rule:evenodd;stroke:rgb(144, 255, 0);stroke-width:1;" d="M 440.477, 728.754 L 448.375, 717.894 L 455.78, 707.692 L 460.222, 701.604 L 472.892, 706.87 L 468.614, 712.629 L 453.147, 734.019 L 440.477, 728.754 z "/>
<path style="fill:rgb(0, 255, 0);fill-opacity:0;fill-rule:evenodd;stroke:rgb(144, 255, 0);stroke-width:1;" d="M 170.3, 215.714 L 189.387, 188.893 L 201.563, 193.83 L 182.476, 220.65 L 170.3, 215.714 z "/>
<path style="fill:rgb(0, 0, 255);fill-opacity:0;fill-rule:evenodd;stroke:rgb(144, 255, 0);stroke-width:1;" d="M 321.349, 132.456 L 326.45, 125.545 L 331.057, 127.52 L 333.854, 126.697 L 360.51, 138.05 L 353.106, 148.087 L 326.45, 136.569 L 326.121, 134.43 L 321.349, 132.456 z "/>
<path style="fill:rgb(255, 255, 0);fill-opacity:0;fill-rule:evenodd;stroke:rgb(144, 255, 0);stroke-width:1;" d="M 56.6022, 485.561 L 62.0321, 478.157 L 102.18, 494.447 L 96.4212, 502.345 L 56.6022, 485.561 z "/>
<path style="fill:rgb(255, 0, 0);fill-opacity:0;fill-rule:evenodd;stroke:rgb(144, 255, 0);stroke-width:1;" d="M 328.425, 122.583 L 333.196, 116.002 L 338.132, 117.976 L 341.259, 117.318 L 367.585, 128.507 L 360.51, 138.05 L 333.854, 126.697 L 333.196, 124.722 L 328.425, 122.583 z "/>
<path style="fill:rgb(0, 255, 0);fill-opacity:0;fill-rule:evenodd;stroke:rgb(144, 255, 0);stroke-width:1;" d="M 62.0321, 478.157 L 67.4619, 470.753 L 107.445, 486.878 L 102.18, 494.447 L 62.0321, 478.157 z "/>
<path style="fill:rgb(0, 0, 255);fill-opacity:0;fill-rule:evenodd;stroke:rgb(144, 255, 0);stroke-width:1;" d="M 453.147, 734.019 L 468.614, 712.629 L 482.271, 718.387 L 480.625, 720.527 L 476.347, 726.45 L 466.804, 739.778 L 453.147, 734.019 z "/>
<path style="fill:rgb(255, 255, 0);fill-opacity:0;fill-rule:evenodd;stroke:rgb(144, 255, 0);stroke-width:1;" d="M 894.776, 454.957 L 908.433, 436.199 L 910.243, 433.731 L 914.356, 428.137 L 925.051, 432.744 L 905.471, 459.564 L 894.776, 454.957 z "/>
<path style="fill:rgb(255, 0, 0);fill-opacity:0;fill-rule:evenodd;stroke:rgb(144, 255, 0);stroke-width:1;" d="M 287.947, 132.949 L 316.413, 94.1176 L 323.817, 97.2439 L 316.742, 106.787 L 295.187, 136.076 L 287.947, 132.949 z "/>
<path style="fill:rgb(0, 255, 0);fill-opacity:0;fill-rule:evenodd;stroke:rgb(144, 255, 0);stroke-width:1;" d="M 505.636, 731.057 L 512.875, 721.185 L 513.04, 721.02 L 539.531, 732.209 L 532.291, 742.246 L 505.636, 731.057 z "/>
<path style="fill:rgb(0, 0, 255);fill-opacity:0;fill-rule:evenodd;stroke:rgb(144, 255, 0);stroke-width:1;" d="M 108.926, 576.553 L 116.002, 566.845 L 143.151, 578.198 L 135.911, 587.906 L 127.52, 584.451 L 108.926, 576.553 z "/>
<path style="fill:rgb(255, 255, 0);fill-opacity:0;fill-rule:evenodd;stroke:rgb(144, 255, 0);stroke-width:1;" d="M 480.625, 720.527 L 482.271, 718.387 L 487.865, 710.654 L 512.875, 721.185 L 505.636, 731.057 L 485.726, 722.666 L 480.625, 720.527 z "/>
<path style="fill:rgb(255, 0, 0);fill-opacity:0;fill-rule:evenodd;stroke:rgb(144, 255, 0);stroke-width:1;" d="M 234.307, 634.8 L 249.938, 613.246 L 250.432, 612.423 L 261.456, 617.03 L 245.331, 639.408 L 234.307, 634.8 z "/>
<path style="fill:rgb(0, 255, 0);fill-opacity:0;fill-rule:evenodd;stroke:rgb(144, 255, 0);stroke-width:1;" d="M 152.859, 516.166 L 158.618, 508.268 L 189.387, 521.267 L 183.464, 529.165 L 152.859, 516.166 z "/>
<path style="fill:rgb(0, 0, 255);fill-opacity:0;fill-rule:evenodd;stroke:rgb(144, 255, 0);stroke-width:1;" d="M 42.1226, 774.661 L 58.4122, 752.448 L 69.1074, 756.89 L 52.8178, 779.268 L 42.1226, 774.661 z "/>
<path style="fill:rgb(255, 255, 0);fill-opacity:0;fill-rule:evenodd;stroke:rgb(144, 255, 0);stroke-width:1;" d="M 245.331, 639.408 L 261.456, 617.03 L 272.151, 621.637 L 268.531, 626.573 L 255.862, 643.85 L 245.331, 639.408 z "/>
<path style="fill:rgb(255, 0, 0);fill-opacity:0;fill-rule:evenodd;stroke:rgb(144, 255, 0);stroke-width:1;" d="M 147.265, 523.9 L 152.859, 516.166 L 183.464, 529.165 L 178.034, 536.734 L 172.768, 534.595 L 147.265, 523.9 z "/>
<path style="fill:rgb(0, 255, 0);fill-opacity:0;fill-rule:evenodd;stroke:rgb(144, 255, 0);stroke-width:1;" d="M 212.916, 625.751 L 225.586, 608.309 L 228.548, 604.36 L 239.408, 608.803 L 223.776, 630.358 L 212.916, 625.751 z "/>
<path style="fill:rgb(0, 0, 255);fill-opacity:0;fill-rule:evenodd;stroke:rgb(144, 255, 0);stroke-width:1;" d="M 298.313, 180.831 L 305.06, 171.452 L 329.741, 181.654 L 322.83, 191.032 L 298.313, 180.831 z "/>
<path style="fill:rgb(255, 255, 0);fill-opacity:0;fill-rule:evenodd;stroke:rgb(144, 255, 0);stroke-width:1;" d="M 223.776, 630.358 L 239.408, 608.803 L 249.938, 613.246 L 234.307, 634.8 L 223.776, 630.358 z "/>
<path style="fill:rgb(255, 0, 0);fill-opacity:0;fill-rule:evenodd;stroke:rgb(144, 255, 0);stroke-width:1;" d="M 59.564, 233.484 L 65.1584, 225.751 L 62.1966, 224.599 L 64.1711, 221.802 L 89.5105, 232.168 L 87.536, 234.965 L 84.7388, 233.813 L 79.1444, 241.547 L 76.1826, 240.395 L 62.3612, 234.636 L 59.564, 233.484 z "/>
<path style="fill:rgb(0, 255, 0);fill-opacity:0;fill-rule:evenodd;stroke:rgb(144, 255, 0);stroke-width:1;" d="M 191.362, 616.701 L 204.031, 599.26 L 208.145, 601.07 L 211.107, 596.956 L 217.853, 599.753 L 214.891, 603.867 L 202.221, 621.308 L 191.362, 616.701 z "/>
<path style="fill:rgb(0, 0, 255);fill-opacity:0;fill-rule:evenodd;stroke:rgb(144, 255, 0);stroke-width:1;" d="M 158.618, 602.879 L 168.819, 589.058 L 171.288, 585.438 L 177.705, 588.235 L 182.312, 581.983 L 186.754, 583.793 L 182.147, 590.045 L 169.478, 607.487 L 158.618, 602.879 z "/>
<path style="fill:rgb(255, 255, 0);fill-opacity:0;fill-rule:evenodd;stroke:rgb(144, 255, 0);stroke-width:1;" d="M 183.957, 545.948 L 187.577, 540.847 L 198.93, 525.216 L 208.803, 529.494 L 195.475, 547.758 L 193.83, 550.062 L 183.957, 545.948 z "/>
<path style="fill:rgb(255, 0, 0);fill-opacity:0;fill-rule:evenodd;stroke:rgb(144, 255, 0);stroke-width:1;" d="M 129.988, 547.429 L 135.911, 539.367 L 161.415, 550.226 L 155.656, 558.124 L 129.988, 547.429 z "/>
<path style="fill:rgb(0, 255, 0);fill-opacity:0;fill-rule:evenodd;stroke:rgb(144, 255, 0);stroke-width:1;" d="M 281.037, 193.007 L 288.276, 182.97 L 297.491, 186.919 L 308.844, 191.691 L 301.604, 201.563 L 290.251, 196.791 L 281.037, 193.007 z "/>
<path style="fill:rgb(0, 0, 255);fill-opacity:0;fill-rule:evenodd;stroke:rgb(144, 255, 0);stroke-width:1;" d="M 204.36, 551.378 L 217.688, 533.114 L 228.712, 537.886 L 215.385, 556.15 L 204.36, 551.378 z "/>
<path style="fill:rgb(255, 255, 0);fill-opacity:0;fill-rule:evenodd;stroke:rgb(144, 255, 0);stroke-width:1;" d="M 135.911, 539.367 L 141.67, 531.469 L 167.174, 542.328 L 161.415, 550.226 L 135.911, 539.367 z "/>
<path style="fill:rgb(255, 0, 0);fill-opacity:0;fill-rule:evenodd;stroke:rgb(144, 255, 0);stroke-width:1;" d="M 41.1353, 231.016 L 44.0971, 227.067 L 59.564, 233.484 L 62.3612, 234.636 L 76.1826, 240.395 L 79.1444, 241.547 L 95.2694, 247.964 L 93.4595, 250.432 L 92.3077, 252.077 L 73.3854, 244.344 L 59.3994, 238.585 L 41.1353, 231.016 z "/>
<path style="fill:rgb(0, 255, 0);fill-opacity:0;fill-rule:evenodd;stroke:rgb(144, 255, 0);stroke-width:1;" d="M 701.769, 259.975 L 709.009, 250.432 L 729.083, 258.988 L 721.843, 268.531 L 701.769, 259.975 z "/>
<path style="fill:rgb(0, 0, 255);fill-opacity:0;fill-rule:evenodd;stroke:rgb(144, 255, 0);stroke-width:1;" d="M 141.67, 531.469 L 147.265, 523.9 L 172.768, 534.595 L 167.174, 542.328 L 141.67, 531.469 z "/>
<path style="fill:rgb(255, 255, 0);fill-opacity:0;fill-rule:evenodd;stroke:rgb(144, 255, 0);stroke-width:1;" d="M 87.2069, 638.914 L 90.9914, 633.813 L 93.7886, 634.965 L 95.7631, 632.332 L 103.332, 635.623 L 109.255, 627.561 L 121.267, 632.661 L 114.685, 641.547 L 108.433, 639.079 L 107.116, 640.724 L 101.687, 638.585 L 99.383, 641.711 L 98.2312, 643.521 L 93.7886, 641.711 L 87.2069, 638.914 z "/>
<path style="fill:rgb(255, 0, 0);fill-opacity:0;fill-rule:evenodd;stroke:rgb(144, 255, 0);stroke-width:1;" d="M 180.173, 611.929 L 192.842, 594.652 L 204.031, 599.26 L 191.362, 616.701 L 180.173, 611.929 z "/>
<path style="fill:rgb(0, 255, 0);fill-opacity:0;fill-rule:evenodd;stroke:rgb(144, 255, 0);stroke-width:1;" d="M 255.862, 643.85 L 268.531, 626.573 L 279.556, 631.181 L 267.051, 648.457 L 255.862, 643.85 z "/>
<path style="fill:rgb(0, 0, 255);fill-opacity:0;fill-rule:evenodd;stroke:rgb(144, 255, 0);stroke-width:1;" d="M 277.91, 653.065 L 290.415, 635.788 L 301.44, 640.395 L 298.807, 644.015 L 288.77, 657.672 L 277.91, 653.065 z "/>
<path style="fill:rgb(255, 255, 0);fill-opacity:0;fill-rule:evenodd;stroke:rgb(144, 255, 0);stroke-width:1;" d="M 267.051, 648.457 L 279.556, 631.181 L 290.415, 635.788 L 277.91, 653.065 L 267.051, 648.457 z "/>
<path style="fill:rgb(255, 0, 0);fill-opacity:0;fill-rule:evenodd;stroke:rgb(144, 255, 0);stroke-width:1;" d="M 169.478, 607.487 L 182.147, 590.045 L 192.842, 594.652 L 180.173, 611.929 L 169.478, 607.487 z "/>
<path style="fill:rgb(0, 255, 0);fill-opacity:0;fill-rule:evenodd;stroke:rgb(144, 255, 0);stroke-width:1;" d="M 225.586, 560.428 L 238.914, 542.164 L 249.116, 546.442 L 235.788, 564.706 L 225.586, 560.428 z "/>
<path style="fill:rgb(0, 0, 255);fill-opacity:0;fill-rule:evenodd;stroke:rgb(144, 255, 0);stroke-width:1;" d="M 202.221, 621.308 L 214.891, 603.867 L 225.586, 608.309 L 212.916, 625.751 L 202.221, 621.308 z "/>
<path style="fill:rgb(255, 255, 0);fill-opacity:0;fill-rule:evenodd;stroke:rgb(144, 255, 0);stroke-width:1;" d="M 215.385, 556.15 L 228.712, 537.886 L 238.914, 542.164 L 225.586, 560.428 L 215.385, 556.15 z "/>
<path style="fill:rgb(255, 0, 0);fill-opacity:0;fill-rule:evenodd;stroke:rgb(144, 255, 0);stroke-width:1;" d="M 101.851, 586.096 L 108.926, 576.553 L 127.52, 584.451 L 120.609, 593.994 L 101.851, 586.096 z "/>
<path style="fill:rgb(0, 255, 0);fill-opacity:0;fill-rule:evenodd;stroke:rgb(144, 255, 0);stroke-width:1;" d="M 256.684, 570.958 L 268.531, 554.669 L 279.391, 559.111 L 267.38, 575.566 L 256.684, 570.958 z "/>
<path style="fill:rgb(0, 0, 255);fill-opacity:0;fill-rule:evenodd;stroke:rgb(144, 255, 0);stroke-width:1;" d="M 235.788, 564.706 L 249.116, 546.442 L 258.659, 550.391 L 246.812, 566.845 L 245.331, 568.655 L 235.788, 564.706 z "/>
<path style="fill:rgb(255, 255, 0);fill-opacity:0;fill-rule:evenodd;stroke:rgb(144, 255, 0);stroke-width:1;" d="M 401.81, 368.573 L 412.012, 354.422 L 423.694, 359.358 L 413.492, 373.509 L 401.81, 368.573 z "/>
<path style="fill:rgb(255, 0, 0);fill-opacity:0;fill-rule:evenodd;stroke:rgb(144, 255, 0);stroke-width:1;" d="M 143.809, 604.031 L 152.365, 592.184 L 159.77, 595.311 L 161.58, 592.842 L 159.77, 592.184 L 163.554, 586.754 L 168.819, 589.058 L 158.618, 602.879 L 154.504, 608.474 L 143.809, 604.031 z "/>
<path style="fill:rgb(0, 255, 0);fill-opacity:0;fill-rule:evenodd;stroke:rgb(144, 255, 0);stroke-width:1;" d="M 246.812, 566.845 L 258.659, 550.391 L 268.531, 554.669 L 256.684, 570.958 L 246.812, 566.845 z "/>
<path style="fill:rgb(0, 0, 255);fill-opacity:0;fill-rule:evenodd;stroke:rgb(144, 255, 0);stroke-width:1;" d="M 195.475, 547.758 L 208.803, 529.494 L 217.688, 533.114 L 204.36, 551.378 L 195.475, 547.758 z "/>
<path style="fill:rgb(255, 255, 0);fill-opacity:0;fill-rule:evenodd;stroke:rgb(144, 255, 0);stroke-width:1;" d="M 696.174, 304.072 L 704.072, 293.542 L 718.717, 299.794 L 710.983, 310.325 L 696.174, 304.072 z "/>
<path style="fill:rgb(255, 0, 0);fill-opacity:0;fill-rule:evenodd;stroke:rgb(144, 255, 0);stroke-width:1;" d="M 494.611, 131.469 L 502.509, 120.938 L 517.153, 127.19 L 509.255, 137.721 L 494.611, 131.469 z "/>
<path style="fill:rgb(0, 255, 0);fill-opacity:0;fill-rule:evenodd;stroke:rgb(144, 255, 0);stroke-width:1;" d="M 495.269, 219.334 L 503.003, 208.968 L 517.812, 215.22 L 509.914, 225.751 L 495.269, 219.334 z "/>
<path style="fill:rgb(0, 0, 255);fill-opacity:0;fill-rule:evenodd;stroke:rgb(144, 255, 0);stroke-width:1;" d="M 789.305, 257.014 L 797.038, 246.483 L 811.847, 252.9 L 804.114, 263.266 L 789.305, 257.014 z "/>
<path style="fill:rgb(255, 255, 0);fill-opacity:0;fill-rule:evenodd;stroke:rgb(144, 255, 0);stroke-width:1;" d="M 594.488, 261.292 L 602.386, 250.761 L 617.03, 257.014 L 609.297, 267.544 L 594.488, 261.292 z "/>
<path style="fill:rgb(255, 0, 0);fill-opacity:0;fill-rule:evenodd;stroke:rgb(144, 255, 0);stroke-width:1;" d="M 178.034, 536.734 L 183.464, 529.165 L 189.387, 521.267 L 198.93, 525.216 L 187.577, 540.847 L 178.034, 536.734 z "/>
<path style="fill:rgb(0, 255, 0);fill-opacity:0;fill-rule:evenodd;stroke:rgb(144, 255, 0);stroke-width:1;" d="M 107.445, 432.086 L 116.002, 420.239 L 128.342, 425.504 L 119.786, 437.186 L 107.445, 432.086 z "/>
<path style="fill:rgb(0, 0, 255);fill-opacity:0;fill-rule:evenodd;stroke:rgb(144, 255, 0);stroke-width:1;" d="M 528.507, 343.562 L 535.582, 334.183 L 549.897, 340.436 L 542.822, 349.815 L 528.507, 343.562 z "/>
<path style="fill:rgb(255, 255, 0);fill-opacity:0;fill-rule:evenodd;stroke:rgb(144, 255, 0);stroke-width:1;" d="M 212.916, 234.471 L 219.827, 224.763 L 231.839, 229.7 L 225.257, 239.572 L 212.916, 234.471 z "/>
<path style="fill:rgb(255, 0, 0);fill-opacity:0;fill-rule:evenodd;stroke:rgb(144, 255, 0);stroke-width:1;" d="M 462.032, 699.136 L 464.994, 695.187 L 468.614, 690.086 L 481.283, 695.352 L 479.144, 698.149 L 474.702, 704.401 L 462.032, 699.136 z "/>
<path style="fill:rgb(0, 255, 0);fill-opacity:0;fill-rule:evenodd;stroke:rgb(144, 255, 0);stroke-width:1;" d="M 451.995, 384.862 L 460.058, 373.673 L 470.259, 377.951 L 462.197, 389.14 L 451.995, 384.862 z "/>
<path style="fill:rgb(0, 0, 255);fill-opacity:0;fill-rule:evenodd;stroke:rgb(144, 255, 0);stroke-width:1;" d="M 290.251, 196.791 L 297.491, 186.919 L 308.844, 191.691 L 301.604, 201.563 L 290.251, 196.791 z "/>
<path style="fill:rgb(255, 255, 0);fill-opacity:0;fill-rule:evenodd;stroke:rgb(144, 255, 0);stroke-width:1;" d="M 837.351, 426.656 L 843.933, 417.606 L 848.54, 419.58 L 855.615, 422.542 L 849.033, 431.592 L 842.123, 428.63 L 837.351, 426.656 z "/>
<path style="fill:rgb(255, 0, 0);fill-opacity:0;fill-rule:evenodd;stroke:rgb(144, 255, 0);stroke-width:1;" d="M 473.55, 705.882 L 474.702, 704.401 L 479.144, 698.149 L 486.22, 701.111 L 488.03, 698.478 L 493.459, 700.617 L 486.713, 709.831 L 481.283, 707.692 L 480.461, 708.844 L 473.55, 705.882 z "/>
<path style="fill:rgb(0, 255, 0);fill-opacity:0;fill-rule:evenodd;stroke:rgb(144, 255, 0);stroke-width:1;" d="M 47.8815, 331.551 L 49.5269, 329.247 L 92.6368, 347.511 L 90.9914, 349.815 L 47.8815, 331.551 z "/>
<path style="fill:rgb(0, 0, 255);fill-opacity:0;fill-rule:evenodd;stroke:rgb(144, 255, 0);stroke-width:1;" d="M 209.626, 276.594 L 217.195, 266.557 L 225.422, 270.012 L 217.853, 280.214 L 209.626, 276.594 z "/>
<path style="fill:rgb(255, 255, 0);fill-opacity:0;fill-rule:evenodd;stroke:rgb(144, 255, 0);stroke-width:1;" d="M 373.015, 400.494 L 377.951, 398.19 L 382.559, 400.494 L 382.888, 410.202 L 378.61, 411.518 L 373.673, 410.366 L 373.015, 400.494 z "/>
<path style="fill:rgb(255, 0, 0);fill-opacity:0;fill-rule:evenodd;stroke:rgb(144, 255, 0);stroke-width:1;" d="M 213.904, 693.542 L 219.498, 685.808 L 230.029, 690.251 L 224.434, 697.984 L 213.904, 693.542 z "/>
<path style="fill:rgb(0, 255, 0);fill-opacity:0;fill-rule:evenodd;stroke:rgb(144, 255, 0);stroke-width:1;" d="M 326.615, 740.93 L 332.374, 733.196 L 342.74, 737.639 L 337.145, 745.372 L 326.615, 740.93 z "/>
<path style="fill:rgb(0, 0, 255);fill-opacity:0;fill-rule:evenodd;stroke:rgb(144, 255, 0);stroke-width:1;" d="M 383.71, 764.788 L 389.305, 757.219 L 399.835, 761.497 L 394.241, 769.231 L 383.71, 764.788 z "/>
<path style="fill:rgb(255, 255, 0);fill-opacity:0;fill-rule:evenodd;stroke:rgb(144, 255, 0);stroke-width:1;" d="M 272.645, 718.223 L 278.239, 710.654 L 288.77, 715.097 L 283.011, 722.666 L 272.645, 718.223 z "/>
<path style="fill:rgb(255, 0, 0);fill-opacity:0;fill-rule:evenodd;stroke:rgb(144, 255, 0);stroke-width:1;" d="M 155.327, 668.861 L 161.086, 661.127 L 171.452, 665.57 L 165.858, 673.303 L 155.327, 668.861 z "/>
<path style="fill:rgb(0, 255, 0);fill-opacity:0;fill-rule:evenodd;stroke:rgb(144, 255, 0);stroke-width:1;" d="M 238.914, 765.282 L 244.673, 757.713 L 255.039, 762.155 L 249.28, 769.724 L 238.914, 765.282 z "/>
<path style="fill:rgb(0, 0, 255);fill-opacity:0;fill-rule:evenodd;stroke:rgb(144, 255, 0);stroke-width:1;" d="M 123.241, 716.413 L 129, 708.844 L 139.367, 713.451 L 133.608, 721.02 L 123.241, 716.413 z "/>
<path style="fill:rgb(255, 255, 0);fill-opacity:0;fill-rule:evenodd;stroke:rgb(144, 255, 0);stroke-width:1;" d="M 181.654, 740.601 L 187.413, 733.032 L 197.779, 737.639 L 192.02, 745.208 L 181.654, 740.601 z "/>
<path style="fill:rgb(255, 0, 0);fill-opacity:0;fill-rule:evenodd;stroke:rgb(144, 255, 0);stroke-width:1;" d="M 120.609, 593.994 L 127.52, 584.451 L 135.911, 587.906 L 129, 597.45 L 120.609, 593.994 z "/>
<path style="fill:rgb(0, 255, 0);fill-opacity:0;fill-rule:evenodd;stroke:rgb(144, 255, 0);stroke-width:1;" d="M 839.654, 423.858 L 842.123, 420.732 L 847.388, 419.58 L 851.666, 421.226 L 853.147, 425.339 L 850.843, 428.466 L 845.413, 429.617 L 841.3, 427.972 L 839.654, 423.858 z "/>
<path style="fill:rgb(0, 0, 255);fill-opacity:0;fill-rule:evenodd;stroke:rgb(144, 255, 0);stroke-width:1;" d="M 36.5282, 425.175 L 41.629, 418.264 L 51.9951, 422.542 L 46.8943, 429.453 L 36.5282, 425.175 z "/>
<path style="fill:rgb(255, 255, 0);fill-opacity:0;fill-rule:evenodd;stroke:rgb(144, 255, 0);stroke-width:1;" d="M 36.5282, 425.175 L 41.629, 418.264 L 51.9951, 422.542 L 46.8943, 429.453 L 36.5282, 425.175 z "/>
<path style="fill:rgb(255, 0, 0);fill-opacity:0;fill-rule:evenodd;stroke:rgb(144, 255, 0);stroke-width:1;" d="M 46.7297, 333.032 L 47.8815, 331.551 L 90.9914, 349.815 L 89.8396, 351.46 L 46.7297, 333.032 z "/>
<path style="fill:rgb(0, 255, 0);fill-opacity:0;fill-rule:evenodd;stroke:rgb(144, 255, 0);stroke-width:1;" d="M 75.3599, 440.477 L 79.8026, 434.554 L 90.9914, 439.325 L 86.7133, 445.249 L 75.3599, 440.477 z "/>
<path style="fill:rgb(0, 0, 255);fill-opacity:0;fill-rule:evenodd;stroke:rgb(144, 255, 0);stroke-width:1;" d="M 87.536, 361.662 L 91.1559, 356.89 L 92.8013, 357.548 L 96.2567, 352.941 L 101.851, 355.245 L 93.624, 366.434 L 90.4977, 365.117 L 91.8141, 363.472 L 87.536, 361.662 z "/>
<path style="fill:rgb(255, 255, 0);fill-opacity:0;fill-rule:evenodd;stroke:rgb(144, 255, 0);stroke-width:1;" d="M 291.403, 177.869 L 298.149, 168.655 L 305.06, 171.452 L 298.313, 180.831 L 291.896, 178.034 L 291.403, 177.869 z "/>
<path style="fill:rgb(255, 0, 0);fill-opacity:0;fill-rule:evenodd;stroke:rgb(144, 255, 0);stroke-width:1;" d="M 59.3994, 238.585 L 62.3612, 234.636 L 76.1826, 240.395 L 73.3854, 244.344 L 59.3994, 238.585 z "/>
<path style="fill:rgb(0, 255, 0);fill-opacity:0;fill-rule:evenodd;stroke:rgb(144, 255, 0);stroke-width:1;" d="M 41.1353, 400 L 41.4644, 399.013 L 41.958, 398.19 L 42.7807, 397.367 L 43.9325, 396.709 L 45.0843, 396.38 L 46.4007, 396.216 L 47.717, 396.38 L 49.0333, 396.709 L 50.1851, 397.203 L 51.0078, 397.861 L 51.666, 398.848 L 52.1596, 399.671 L 52.1596, 400.823 L 51.8305, 401.81 L 51.3369, 402.633 L 50.5142, 403.455 L 49.3624, 403.949 L 48.2106, 404.443 L 46.8943, 404.607 L 45.578, 404.443 L 44.2616, 404.114 L 43.1098, 403.62 L 42.2871, 402.962 L 41.629, 401.974 L 41.1353, 400.987 L 41.1353, 400 z "/>
<path style="fill:rgb(0, 0, 255);fill-opacity:0;fill-rule:evenodd;stroke:rgb(144, 255, 0);stroke-width:1;" d="M 41.1353, 400 L 41.4644, 399.013 L 41.958, 398.19 L 42.7807, 397.367 L 43.9325, 396.709 L 45.0843, 396.38 L 46.4007, 396.216 L 47.717, 396.38 L 49.0333, 396.709 L 50.1851, 397.203 L 51.0078, 397.861 L 51.666, 398.848 L 52.1596, 399.671 L 52.1596, 400.823 L 51.8305, 401.81 L 51.3369, 402.633 L 50.5142, 403.455 L 49.3624, 403.949 L 48.2106, 404.443 L 46.8943, 404.607 L 45.578, 404.443 L 44.2616, 404.114 L 43.1098, 403.62 L 42.2871, 402.962 L 41.629, 401.974 L 41.1353, 400.987 L 41.1353, 400 z "/>
<path style="fill:rgb(255, 255, 0);fill-opacity:0;fill-rule:evenodd;stroke:rgb(144, 255, 0);stroke-width:1;" d="M 163.225, 385.356 L 166.187, 381.242 L 178.034, 386.179 L 174.743, 390.621 L 172.439, 389.634 L 172.768, 389.305 L 163.225, 385.356 z "/>
<path style="fill:rgb(255, 0, 0);fill-opacity:0;fill-rule:evenodd;stroke:rgb(144, 255, 0);stroke-width:1;" d="M 669.683, 154.998 L 676.759, 145.29 L 681.53, 147.1 L 674.455, 156.808 L 669.683, 154.998 z "/>
<path style="fill:rgb(0, 255, 0);fill-opacity:0;fill-rule:evenodd;stroke:rgb(144, 255, 0);stroke-width:1;" d="M 64.3357, 692.39 L 64.9938, 691.074 L 66.1456, 690.086 L 67.791, 689.428 L 69.601, 689.264 L 71.2464, 689.757 L 72.7273, 690.58 L 73.55, 691.896 L 73.7145, 693.213 L 73.0564, 694.529 L 71.9046, 695.681 L 70.2592, 696.174 L 68.4492, 696.339 L 66.8038, 695.845 L 65.3229, 695.023 L 64.5002, 693.706 L 64.3357, 692.39 z "/>
<path style="fill:rgb(0, 0, 255);fill-opacity:0;fill-rule:evenodd;stroke:rgb(144, 255, 0);stroke-width:1;" d="M 107.116, 633.813 L 107.775, 632.497 L 108.926, 631.345 L 110.572, 630.687 L 112.382, 630.687 L 114.027, 631.016 L 115.508, 632.003 L 116.331, 633.155 L 116.495, 634.636 L 115.837, 635.952 L 114.685, 636.94 L 113.04, 637.598 L 111.23, 637.762 L 109.585, 637.269 L 108.104, 636.281 L 107.281, 635.13 L 107.116, 633.813 z "/>
<path style="fill:rgb(255, 255, 0);fill-opacity:0;fill-rule:evenodd;stroke:rgb(144, 255, 0);stroke-width:1;" d="M 51.9951, 697.82 L 53.3114, 696.174 L 74.5372, 704.895 L 73.2209, 706.705 L 51.9951, 697.82 z "/>
<path style="fill:rgb(255, 0, 0);fill-opacity:0;fill-rule:evenodd;stroke:rgb(144, 255, 0);stroke-width:1;" d="M 107.116, 621.966 L 108.433, 620.321 L 129.659, 629.206 L 128.178, 630.852 L 107.116, 621.966 z "/>
<path style="fill:rgb(0, 255, 0);fill-opacity:0;fill-rule:evenodd;stroke:rgb(144, 255, 0);stroke-width:1;" d="M 105.965, 623.776 L 107.116, 621.966 L 128.178, 630.852 L 127.026, 632.661 L 105.965, 623.776 z "/>
<path style="fill:rgb(0, 0, 255);fill-opacity:0;fill-rule:evenodd;stroke:rgb(144, 255, 0);stroke-width:1;" d="M 53.3114, 696.174 L 54.6277, 694.364 L 75.689, 703.25 L 74.5372, 704.895 L 53.3114, 696.174 z "/>
<path style="fill:rgb(255, 255, 0);fill-opacity:0;fill-rule:evenodd;stroke:rgb(144, 255, 0);stroke-width:1;" d="M 69.1074, 632.826 L 78.9798, 619.169 L 81.448, 620.156 L 71.5755, 633.813 L 69.1074, 632.826 z "/>
<path style="fill:rgb(255, 0, 0);fill-opacity:0;fill-rule:evenodd;stroke:rgb(144, 255, 0);stroke-width:1;" d="M 71.5755, 633.813 L 81.448, 620.156 L 83.9161, 621.144 L 74.0436, 634.8 L 71.5755, 633.813 z "/>
<path style="fill:rgb(0, 255, 0);fill-opacity:0;fill-rule:evenodd;stroke:rgb(144, 255, 0);stroke-width:1;" d="M 12.5051, 359.523 L 13.6569, 358.206 L 25.1748, 342.411 L 28.9593, 337.145 L 32.7437, 332.044 L 36.6927, 326.779 L 38.3381, 324.476 L 49.5269, 329.247 L 92.6368, 347.511 L 103.99, 352.448 L 101.851, 355.245 L 93.624, 366.434 L 78.1571, 387.33 L 26.4912, 365.446 L 12.5051, 359.523 z "/>
<path style="fill:rgb(0, 0, 255);fill-opacity:0;fill-rule:evenodd;stroke:rgb(144, 255, 0);stroke-width:1;" d="M 12.5051, 359.523 L 13.6569, 358.206 L 25.1748, 342.411 L 28.9593, 337.145 L 32.7437, 332.044 L 36.6927, 326.779 L 47.8815, 331.551 L 46.7297, 333.032 L 89.8396, 351.46 L 90.9914, 349.815 L 92.6368, 347.511 L 103.99, 352.448 L 101.851, 355.245 L 93.624, 366.434 L 78.1571, 387.33 L 26.4912, 365.446 L 12.5051, 359.523 z "/>
<path style="fill:rgb(255, 255, 0);fill-opacity:0;fill-rule:evenodd;stroke:rgb(144, 255, 0);stroke-width:1;" d="M 26.4912, 155.492 L 43.4389, 132.62 L 47.717, 126.697 L 83.7515, 77.3344 L 109.255, 88.0296 L 80.4607, 127.684 L 82.4352, 128.507 L 54.2986, 167.174 L 26.4912, 155.492 z "/>
<path style="fill:rgb(255, 0, 0);fill-opacity:0;fill-rule:evenodd;stroke:rgb(144, 255, 0);stroke-width:1;" d="M 0, 543.151 L 25.0103, 508.597 L 37.68, 513.863 L 46.4007, 501.851 L 84.9033, 517.976 L 73.55, 533.443 L 61.0448, 528.178 L 36.6927, 517.976 L 30.1111, 527.19 L 14.1506, 549.239 L 0, 543.151 z "/>
<path style="fill:rgb(0, 255, 0);fill-opacity:0;fill-rule:evenodd;stroke:rgb(144, 255, 0);stroke-width:1;" d="M 13.4924, 231.839 L 41.4644, 192.842 L 62.3612, 201.563 L 62.1966, 201.892 L 55.4504, 211.271 L 44.0971, 227.067 L 41.1353, 231.016 L 34.3891, 240.559 L 27.3139, 237.598 L 13.4924, 231.839 z "/>
<path style="fill:rgb(0, 0, 255);fill-opacity:0;fill-rule:evenodd;stroke:rgb(144, 255, 0);stroke-width:1;" d="M 25.6684, 554.011 L 41.7935, 532.127 L 54.2986, 537.392 L 51.3369, 541.341 L 64.3357, 546.771 L 51.1724, 564.706 L 47.8815, 563.39 L 25.6684, 554.011 z "/>
<path style="fill:rgb(255, 255, 0);fill-opacity:0;fill-rule:evenodd;stroke:rgb(144, 255, 0);stroke-width:1;" d="M 30.1111, 527.19 L 36.6927, 517.976 L 61.0448, 528.178 L 54.2986, 537.392 L 41.7935, 532.127 L 30.1111, 527.19 z "/>
<path style="fill:rgb(255, 0, 0);fill-opacity:0;fill-rule:evenodd;stroke:rgb(144, 255, 0);stroke-width:1;" d="M 28.9593, 352.118 L 33.5664, 345.866 L 48.7042, 352.448 L 44.0971, 358.536 L 28.9593, 352.118 z "/>
<path style="fill:rgb(0, 255, 0);fill-opacity:0;fill-rule:evenodd;stroke:rgb(144, 255, 0);stroke-width:1;" d="M 28.9593, 352.118 L 33.5664, 345.866 L 48.7042, 352.448 L 44.0971, 358.536 L 28.9593, 352.118 z "/>
<path style="fill:rgb(0, 0, 255);fill-opacity:0;fill-rule:evenodd;stroke:rgb(144, 255, 0);stroke-width:1;" d="M 30.7692, 769.724 L 47.0588, 747.511 L 58.4122, 752.448 L 42.1226, 774.661 L 30.7692, 769.724 z "/>
<path style="fill:rgb(255, 255, 0);fill-opacity:0;fill-rule:evenodd;stroke:rgb(144, 255, 0);stroke-width:1;" d="M 221.637, 765.117 L 225.422, 760.016 L 224.599, 759.687 L 230.358, 751.954 L 232.661, 752.941 L 233.32, 752.118 L 233.978, 751.131 L 241.053, 754.258 L 241.876, 753.106 L 261.785, 761.497 L 260.963, 762.485 L 267.38, 765.117 L 266.722, 765.94 L 272.48, 768.408 L 271.493, 769.724 L 273.303, 770.383 L 269.025, 776.306 L 267.215, 775.483 L 266.063, 777.129 L 262.443, 775.483 L 258.494, 780.913 L 253.394, 778.774 L 255.862, 775.319 L 251.255, 773.344 L 250.761, 774.002 L 233.649, 766.763 L 234.307, 765.94 L 229.206, 763.801 L 226.738, 767.256 L 221.637, 765.117 z "/>
<path style="fill:rgb(255, 0, 0);fill-opacity:0;fill-rule:evenodd;stroke:rgb(144, 255, 0);stroke-width:1;" d="M 365.282, 756.726 L 369.56, 750.967 L 371.205, 751.625 L 372.357, 749.979 L 375.977, 751.625 L 379.926, 746.03 L 385.027, 748.334 L 382.559, 751.789 L 387.166, 753.764 L 387.824, 752.777 L 404.936, 760.016 L 404.278, 760.839 L 409.379, 762.814 L 412.012, 759.358 L 417.112, 761.497 L 413.328, 766.598 L 414.315, 766.927 L 408.556, 774.661 L 406.417, 773.838 L 405.759, 774.661 L 405.101, 775.648 L 397.861, 772.522 L 396.874, 773.838 L 377.129, 765.446 L 377.787, 764.624 L 371.37, 761.991 L 372.028, 761.168 L 366.269, 758.7 L 367.092, 757.548 L 365.282, 756.726 z "/>
<path style="fill:rgb(0, 255, 0);fill-opacity:0;fill-rule:evenodd;stroke:rgb(144, 255, 0);stroke-width:1;" d="M 28.9593, 688.112 L 35.2118, 679.556 L 42.4517, 669.519 L 48.8688, 660.633 L 61.0448, 644.015 L 69.1074, 632.826 L 78.9798, 619.169 L 85.397, 610.613 L 108.433, 620.321 L 129.659, 629.206 L 150.062, 637.762 L 144.138, 645.825 L 131.139, 663.76 L 129.823, 665.57 L 109.749, 693.377 L 108.268, 695.187 L 95.2694, 713.122 L 93.624, 715.426 L 73.2209, 706.705 L 51.9951, 697.82 L 28.9593, 688.112 z "/>
<path style="fill:rgb(0, 0, 255);fill-opacity:0;fill-rule:evenodd;stroke:rgb(144, 255, 0);stroke-width:1;" d="M 28.9593, 688.112 L 35.2118, 679.556 L 42.4517, 669.519 L 48.8688, 660.633 L 53.805, 662.608 L 79.4735, 673.303 L 75.3599, 679.062 L 109.749, 693.377 L 108.268, 695.187 L 95.2694, 713.122 L 93.624, 715.426 L 73.2209, 706.705 L 51.9951, 697.82 L 28.9593, 688.112 z "/>
<path style="fill:rgb(255, 255, 0);fill-opacity:0;fill-rule:evenodd;stroke:rgb(144, 255, 0);stroke-width:1;" d="M 474.208, 77.9926 L 530.317, 0 L 824.846, 125.874 L 944.467, 175.237 L 888.852, 252.735 L 806.088, 218.511 L 771.041, 204.031 L 505.636, 91.1559 L 474.208, 77.9926 z "/>
<path style="fill:rgb(255, 0, 0);fill-opacity:0;fill-rule:evenodd;stroke:rgb(144, 255, 0);stroke-width:1;" d="M 474.208, 77.9926 L 530.317, 0 L 824.846, 125.874 L 820.732, 131.633 L 815.302, 139.202 L 828.137, 144.467 L 819.251, 156.808 L 805.101, 176.388 L 795.722, 189.387 L 792.431, 193.994 L 781.571, 189.387 L 771.041, 204.031 L 505.636, 91.1559 L 474.208, 77.9926 z "/>
<path style="fill:rgb(0, 255, 0);fill-opacity:0;fill-rule:evenodd;stroke:rgb(144, 255, 0);stroke-width:1;" d="M 513.863, 73.2209 L 524.393, 58.7413 L 546.277, 67.791 L 535.747, 82.2707 L 513.863, 73.2209 z "/>
<path style="fill:rgb(0, 0, 255);fill-opacity:0;fill-rule:evenodd;stroke:rgb(144, 255, 0);stroke-width:1;" d="M 631.016, 83.7515 L 637.927, 74.2081 L 655.697, 81.448 L 648.787, 91.1559 L 631.016, 83.7515 z "/>
</svg>