<?xml version="1.0" encoding="iso-8859-1" standalone="no"?>
<!DOCTYPE svg PUBLIC "-//W3C//DTD SVG 1.0//EN" "http://www.w3.org/TR/2001/REC-SVG-20010904/DTD/svg10.dtd">
<svg xmlns="http://www.w3.org/2000/svg" width="1330" height="800">
<path style="fill:rgb(255, 0, 0);fill-opacity:0;fill-rule:evenodd;stroke:rgb(178, 0, 255);stroke-width:1;" d="M 1067.57, 253 L 1087.59, 225.795 L 1153.27, 253.971 L 1146.66, 262.716 L 1330.29, 341.219 L 1255.87, 441.681 L 1163.37, 402.235 L 1149.38, 421.083 L 1095.17, 397.765 L 1109.16, 379.111 L 1071.65, 362.983 L 1112.65, 307.797 L 1092.83, 299.247 L 1098.28, 292.057 L 1101.77, 293.418 L 1105.47, 288.365 L 1121.79, 295.361 L 1132.67, 280.787 L 1067.57, 253 z "/>
<path style="fill:rgb(0, 255, 0);fill-opacity:0;fill-rule:evenodd;stroke:rgb(178, 0, 255);stroke-width:1;" d="M 242.701, 800 L 266.213, 768.521 L 257.469, 764.829 L 314.987, 687.685 L 356.959, 705.757 L 341.025, 727.131 L 399.903, 752.587 L 416.614, 759.777 L 403.012, 756.667 L 390.964, 754.724 L 378.722, 753.17 L 372.699, 752.781 L 362.594, 752.587 L 352.295, 752.781 L 342.191, 753.753 L 337.333, 754.336 L 332.281, 755.113 L 322.371, 757.056 L 313.626, 758.999 L 305.854, 761.137 L 298.275, 763.469 L 287.588, 767.938 L 280.593, 771.241 L 273.986, 774.933 L 267.768, 779.014 L 261.161, 783.677 L 254.554, 788.924 L 248.336, 794.365 L 242.701, 800 z "/>
<path style="fill:rgb(0, 0, 255);fill-opacity:0;fill-rule:evenodd;stroke:rgb(178, 0, 255);stroke-width:1;" d="M 207.918, 601.409 L 241.341, 555.162 L 297.692, 578.674 L 291.863, 586.835 L 265.63, 575.953 L 238.232, 614.039 L 207.918, 601.409 z "/>
<path style="fill:rgb(255, 255, 0);fill-opacity:0;fill-rule:evenodd;stroke:rgb(178, 0, 255);stroke-width:1;" d="M 177.216, 588.584 L 210.639, 542.337 L 241.341, 555.162 L 207.918, 601.409 L 177.216, 588.584 z "/>
<path style="fill:rgb(255, 0, 0);fill-opacity:0;fill-rule:evenodd;stroke:rgb(178, 0, 255);stroke-width:1;" d="M 108.623, 552.247 L 128.443, 525.431 L 131.941, 525.237 L 133.301, 523.099 L 126.694, 520.379 L 133.884, 510.469 L 135.244, 508.72 L 161.088, 519.796 L 158.173, 523.682 L 152.538, 531.261 L 146.709, 528.735 L 144.766, 531.455 L 146.126, 532.038 L 125.917, 559.631 L 108.623, 552.247 z "/>
<path style="fill:rgb(0, 255, 0);fill-opacity:0;fill-rule:evenodd;stroke:rgb(178, 0, 255);stroke-width:1;" d="M 136.021, 553.607 L 152.538, 531.261 L 158.173, 523.682 L 183.629, 534.564 L 161.671, 564.489 L 136.021, 553.607 z "/>
<path style="fill:rgb(0, 0, 255);fill-opacity:0;fill-rule:evenodd;stroke:rgb(178, 0, 255);stroke-width:1;" d="M 39.2519, 529.706 L 72.6743, 484.43 L 88.0253, 491.037 L 65.2903, 521.933 L 54.6029, 536.313 L 39.2519, 529.706 z "/>
<path style="fill:rgb(255, 255, 0);fill-opacity:0;fill-rule:evenodd;stroke:rgb(178, 0, 255);stroke-width:1;" d="M 65.2903, 521.933 L 88.0253, 491.037 L 103.765, 497.644 L 81.0299, 528.54 L 65.2903, 521.933 z "/>
<path style="fill:rgb(255, 0, 0);fill-opacity:0;fill-rule:evenodd;stroke:rgb(178, 0, 255);stroke-width:1;" d="M 95.9922, 534.953 L 118.533, 504.056 L 133.884, 510.469 L 126.694, 520.379 L 111.149, 541.365 L 95.9922, 534.953 z "/>
<path style="fill:rgb(0, 255, 0);fill-opacity:0;fill-rule:evenodd;stroke:rgb(178, 0, 255);stroke-width:1;" d="M 81.0299, 528.54 L 103.765, 497.644 L 118.533, 504.056 L 95.9922, 534.953 L 81.0299, 528.54 z "/>
<path style="fill:rgb(0, 0, 255);fill-opacity:0;fill-rule:evenodd;stroke:rgb(178, 0, 255);stroke-width:1;" d="M 51.2995, 92.4945 L 67.8164, 70.1482 L 87.8309, 78.6981 L 74.4231, 96.7695 L 71.3141, 101.044 L 51.2995, 92.4945 z "/>
<path style="fill:rgb(255, 255, 0);fill-opacity:0;fill-rule:evenodd;stroke:rgb(178, 0, 255);stroke-width:1;" d="M 890.551, 11.076 L 898.518, 0 L 935.244, 15.1567 L 927.471, 26.2327 L 890.551, 11.076 z "/>
<path style="fill:rgb(255, 0, 0);fill-opacity:0;fill-rule:evenodd;stroke:rgb(178, 0, 255);stroke-width:1;" d="M 1045.03, 281.953 L 1064.46, 256.109 L 1078.84, 262.327 L 1074.57, 268.156 L 1059.61, 288.171 L 1045.03, 281.953 z "/>
<path style="fill:rgb(0, 255, 0);fill-opacity:0;fill-rule:evenodd;stroke:rgb(178, 0, 255);stroke-width:1;" d="M 1054.55, 329.755 L 1064.08, 321.399 L 1085.45, 335.584 L 1076.12, 343.94 L 1054.55, 329.755 z "/>
<path style="fill:rgb(0, 0, 255);fill-opacity:0;fill-rule:evenodd;stroke:rgb(178, 0, 255);stroke-width:1;" d="M 0, 416.42 L 67.6221, 324.12 L 338.305, 438.572 L 341.025, 442.652 L 345.883, 451.202 L 348.02, 455.477 L 351.907, 464.027 L 353.85, 468.496 L 356.765, 477.435 L 359.291, 486.374 L 360.262, 490.843 L 316.735, 550.304 L 316.541, 550.498 L 0, 416.42 z "/>
<path style="fill:rgb(255, 255, 0);fill-opacity:0;fill-rule:evenodd;stroke:rgb(178, 0, 255);stroke-width:1;" d="M 8.3556, 516.687 L 41.778, 471.411 L 72.6743, 484.43 L 39.2519, 529.706 L 8.3556, 516.687 z "/>
</svg>