<?xml version="1.0" encoding="iso-8859-1" standalone="no"?>
<!DOCTYPE svg PUBLIC "-//W3C//DTD SVG 1.0//EN" "http://www.w3.org/TR/2001/REC-SVG-20010904/DTD/svg10.dtd">
<svg xmlns="http://www.w3.org/2000/svg" width="1030" height="800">
<path style="fill:rgb(255, 0, 0);fill-opacity:0;fill-rule:evenodd;stroke:rgb(130, 255, 0);stroke-width:1;" d="M 518.905, 673.852 L 523.322, 673.145 L 527.562, 672.261 L 548.057, 668.551 L 546.82, 664.664 L 549.647, 664.134 L 545.23, 650.177 L 550, 649.293 L 559.187, 647.703 L 566.784, 646.29 L 571.378, 660.424 L 573.852, 659.894 L 574.912, 663.604 L 588.869, 660.954 L 593.11, 660.247 L 597.35, 659.364 L 604.417, 681.625 L 600.177, 682.332 L 597.527, 682.862 L 605.477, 707.42 L 606.007, 707.244 L 610.247, 706.537 L 611.837, 711.661 L 616.078, 725.088 L 617.668, 730.212 L 613.428, 730.919 L 591.873, 734.806 L 599.647, 759.364 L 618.375, 756.007 L 622.615, 755.124 L 626.855, 754.417 L 633.922, 776.502 L 629.505, 777.208 L 625.265, 778.092 L 610.424, 780.742 L 611.837, 784.806 L 609.894, 785.159 L 611.307, 789.576 L 612.367, 792.756 L 613.428, 795.936 L 591.166, 800 L 590.106, 796.82 L 589.046, 793.64 L 587.809, 789.223 L 585.689, 789.576 L 584.452, 785.512 L 563.781, 789.399 L 559.541, 790.106 L 555.3, 790.813 L 548.233, 768.728 L 552.473, 768.021 L 556.714, 767.138 L 570.671, 764.488 L 562.544, 739.929 L 552.65, 741.519 L 548.587, 742.403 L 546.996, 737.456 L 542.756, 724.205 L 541.166, 719.258 L 545.406, 718.551 L 555.477, 716.608 L 547.527, 692.049 L 534.452, 694.523 L 530.212, 695.23 L 525.972, 695.936 L 518.905, 673.852 z "/>
<path style="fill:rgb(0, 255, 0);fill-opacity:0;fill-rule:evenodd;stroke:rgb(130, 255, 0);stroke-width:1;" d="M 248.587, 528.799 L 282.509, 464.311 L 387.279, 496.113 L 353.357, 560.777 L 248.587, 528.799 z "/>
<path style="fill:rgb(0, 0, 255);fill-opacity:0;fill-rule:evenodd;stroke:rgb(130, 255, 0);stroke-width:1;" d="M 336.042, 709.364 L 346.29, 689.753 L 368.375, 696.466 L 381.272, 671.908 L 364.841, 666.961 L 375.972, 645.76 L 392.226, 650.707 L 404.594, 627.385 L 361.307, 614.311 L 372.438, 593.286 L 460.601, 619.788 L 449.47, 641.166 L 424.912, 633.746 L 423.145, 637.102 L 421.201, 636.396 L 412.544, 653.004 L 414.488, 653.534 L 412.721, 657.067 L 430.565, 662.367 L 419.611, 683.569 L 401.59, 678.092 L 399.823, 681.625 L 398.41, 681.272 L 389.753, 698.057 L 390.989, 698.41 L 389.399, 701.59 L 414.134, 709.187 L 403.004, 730.565 L 378.092, 722.968 L 376.325, 726.678 L 374.912, 726.148 L 369.965, 735.336 L 350.883, 729.682 L 357.244, 717.314 L 352.297, 715.901 L 353.004, 714.488 L 336.042, 709.364 z "/>
<path style="fill:rgb(255, 255, 0);fill-opacity:0;fill-rule:evenodd;stroke:rgb(130, 255, 0);stroke-width:1;" d="M 539.223, 616.608 L 553.004, 590.283 L 554.064, 590.459 L 573.498, 553.004 L 659.894, 579.152 L 626.502, 642.933 L 571.555, 626.325 L 564.488, 624.205 L 539.223, 616.608 z "/>
<path style="fill:rgb(255, 0, 0);fill-opacity:0;fill-rule:evenodd;stroke:rgb(130, 255, 0);stroke-width:1;" d="M 185.336, 664.311 L 196.29, 643.463 L 220.141, 650.883 L 222.085, 647.173 L 224.205, 647.703 L 232.862, 631.449 L 230.742, 630.742 L 232.686, 627.032 L 215.018, 621.731 L 225.972, 600.883 L 243.64, 606.184 L 245.583, 602.65 L 247.527, 603.18 L 256.007, 586.926 L 254.24, 586.396 L 256.007, 582.686 L 232.155, 575.265 L 243.11, 554.417 L 330.212, 581.095 L 319.435, 601.59 L 275.795, 588.339 L 263.428, 611.837 L 280.212, 616.961 L 270.495, 635.512 L 269.081, 638.163 L 252.297, 633.039 L 240.106, 656.184 L 245.583, 657.774 L 244.7, 659.364 L 262.544, 664.664 L 252.297, 684.099 L 235.159, 678.799 L 234.452, 680.212 L 229.505, 678.799 L 222.968, 691.519 L 204.24, 685.689 L 211.484, 672.261 L 185.336, 664.311 z "/>
<path style="fill:rgb(0, 255, 0);fill-opacity:0;fill-rule:evenodd;stroke:rgb(130, 255, 0);stroke-width:1;" d="M 527.562, 672.261 L 548.057, 668.551 L 546.82, 664.664 L 549.647, 664.134 L 545.23, 650.177 L 550, 649.293 L 559.187, 647.703 L 566.784, 646.29 L 571.378, 660.424 L 573.852, 659.894 L 574.912, 663.604 L 588.869, 660.954 L 595.936, 683.216 L 576.325, 686.749 L 584.099, 711.307 L 605.477, 707.42 L 606.007, 707.244 L 607.597, 712.367 L 611.837, 711.661 L 616.078, 725.088 L 611.837, 725.795 L 613.428, 730.919 L 591.873, 734.806 L 599.647, 759.364 L 618.375, 756.007 L 625.265, 778.092 L 610.424, 780.742 L 611.837, 784.806 L 609.894, 785.159 L 611.307, 789.576 L 589.046, 793.64 L 587.809, 789.223 L 585.689, 789.576 L 584.452, 785.512 L 563.781, 789.399 L 556.714, 767.138 L 570.671, 764.488 L 578.092, 763.074 L 576.855, 759.364 L 579.682, 758.834 L 574.028, 741.873 L 571.555, 742.226 L 570.318, 738.339 L 562.544, 739.929 L 552.65, 741.519 L 551.06, 736.572 L 546.996, 737.456 L 542.756, 724.205 L 546.996, 723.498 L 545.406, 718.551 L 555.477, 716.608 L 562.898, 715.194 L 561.661, 711.661 L 564.488, 711.131 L 559.011, 693.993 L 556.36, 694.523 L 555.124, 690.636 L 547.527, 692.049 L 534.452, 694.523 L 527.562, 672.261 z "/>
<path style="fill:rgb(0, 0, 255);fill-opacity:0;fill-rule:evenodd;stroke:rgb(130, 255, 0);stroke-width:1;" d="M 272.615, 235.336 L 284.982, 212.014 L 288.693, 213.074 L 295.583, 199.647 L 299.47, 200.883 L 308.127, 183.922 L 304.417, 182.686 L 313.428, 165.371 L 310.247, 164.311 L 314.311, 156.36 L 325.088, 135.512 L 363.958, 146.996 L 365.371, 144.523 L 381.802, 149.47 L 380.565, 151.943 L 381.802, 152.297 L 371.201, 172.792 L 353.534, 167.491 L 346.643, 180.919 L 334.452, 204.594 L 344.523, 207.597 L 347.173, 225.265 L 332.686, 253.357 L 272.615, 235.336 z "/>
<path style="fill:rgb(255, 255, 0);fill-opacity:0;fill-rule:evenodd;stroke:rgb(130, 255, 0);stroke-width:1;" d="M 272.615, 235.336 L 284.982, 212.014 L 288.693, 213.074 L 295.583, 199.647 L 299.47, 200.883 L 308.127, 183.922 L 304.417, 182.686 L 313.428, 165.371 L 310.247, 164.311 L 314.311, 156.36 L 334.629, 162.367 L 327.562, 175.265 L 346.643, 180.919 L 334.452, 204.594 L 344.523, 207.597 L 347.173, 225.265 L 332.686, 253.357 L 272.615, 235.336 z "/>
<path style="fill:rgb(255, 0, 0);fill-opacity:0;fill-rule:evenodd;stroke:rgb(130, 255, 0);stroke-width:1;" d="M 245.406, 233.569 L 269.258, 187.456 L 275.972, 189.399 L 282.686, 176.325 L 275.972, 174.205 L 300, 127.915 L 325.088, 135.512 L 314.311, 156.36 L 310.247, 164.311 L 313.428, 165.371 L 304.417, 182.686 L 308.127, 183.922 L 299.47, 200.883 L 295.583, 199.647 L 288.693, 213.074 L 284.982, 212.014 L 272.615, 235.336 L 269.788, 240.813 L 245.406, 233.569 z "/>
<path style="fill:rgb(0, 255, 0);fill-opacity:0;fill-rule:evenodd;stroke:rgb(130, 255, 0);stroke-width:1;" d="M 131.802, 199.293 L 146.82, 170.495 L 143.463, 169.435 L 152.473, 152.12 L 148.587, 151.06 L 157.42, 134.099 L 161.131, 135.159 L 168.198, 121.731 L 171.555, 122.792 L 186.572, 93.8163 L 211.307, 101.237 L 187.456, 147.35 L 180.742, 145.406 L 174.028, 158.657 L 180.565, 160.601 L 156.537, 206.714 L 131.802, 199.293 z "/>
<path style="fill:rgb(0, 0, 255);fill-opacity:0;fill-rule:evenodd;stroke:rgb(130, 255, 0);stroke-width:1;" d="M 378.622, 567.845 L 393.64, 539.753 L 394.876, 540.106 L 410.601, 510.424 L 409.011, 509.894 L 413.958, 500.53 L 450.353, 511.837 L 442.756, 525.972 L 434.806, 523.498 L 430.212, 532.332 L 424.912, 530.565 L 416.431, 546.82 L 445.053, 555.654 L 448.057, 550 L 455.124, 552.12 L 437.279, 585.866 L 425.265, 582.155 L 425.972, 580.565 L 397.173, 571.731 L 396.29, 573.322 L 378.622, 567.845 z "/>
<path style="fill:rgb(255, 255, 0);fill-opacity:0;fill-rule:evenodd;stroke:rgb(130, 255, 0);stroke-width:1;" d="M 725.972, 412.014 L 737.809, 404.594 L 728.445, 395.936 L 742.226, 387.279 L 730.742, 376.855 L 742.226, 369.611 L 732.686, 360.777 L 747.173, 351.59 L 749.117, 338.339 L 764.488, 339.753 L 763.074, 349.823 L 776.678, 362.367 L 762.191, 371.378 L 771.555, 380.035 L 757.774, 388.516 L 769.081, 399.117 L 757.597, 406.184 L 769.258, 416.961 L 753.004, 427.032 L 751.943, 437.279 L 736.396, 436.219 L 737.809, 422.968 L 725.972, 412.014 z "/>
<path style="fill:rgb(255, 0, 0);fill-opacity:0;fill-rule:evenodd;stroke:rgb(130, 255, 0);stroke-width:1;" d="M 961.837, 437.102 L 969.788, 421.908 L 964.311, 412.721 L 978.622, 407.774 L 986.219, 420.318 L 1002.83, 425.265 L 997.35, 435.866 L 1011.13, 440.106 L 1004.59, 452.65 L 1021.38, 457.774 L 1015.9, 468.198 L 1030.21, 472.615 L 1023.5, 485.336 L 1030.57, 497.88 L 1016.08, 502.65 L 1010.78, 493.286 L 991.166, 487.279 L 997.88, 474.382 L 984.099, 470.318 L 990.636, 457.774 L 973.852, 452.65 L 979.152, 442.403 L 961.837, 437.102 z "/>
<path style="fill:rgb(0, 255, 0);fill-opacity:0;fill-rule:evenodd;stroke:rgb(130, 255, 0);stroke-width:1;" d="M 830.035, 82.1555 L 837.809, 66.9611 L 832.332, 57.5972 L 846.82, 52.8269 L 853.887, 65.0177 L 871.025, 69.9647 L 865.371, 81.0954 L 879.152, 85.159 L 872.792, 97.7032 L 889.223, 102.65 L 883.922, 113.074 L 898.057, 117.314 L 891.343, 130.389 L 898.587, 142.756 L 890.989, 145.23 L 884.276, 147.527 L 878.622, 137.986 L 859.187, 132.332 L 865.724, 119.258 L 852.12, 115.371 L 858.481, 102.65 L 842.049, 97.7032 L 847.35, 87.1025 L 830.035, 82.1555 z "/>
<path style="fill:rgb(0, 0, 255);fill-opacity:0;fill-rule:evenodd;stroke:rgb(130, 255, 0);stroke-width:1;" d="M 859.894, 348.233 L 872.261, 337.102 L 870.671, 324.205 L 885.866, 323.145 L 887.102, 333.216 L 903.18, 343.463 L 891.343, 354.24 L 902.65, 361.661 L 891.166, 371.908 L 904.947, 380.742 L 895.406, 389.223 L 909.541, 398.233 L 895.76, 410.601 L 897.173, 420.848 L 881.979, 422.085 L 880.035, 408.481 L 866.078, 399.47 L 875.972, 390.636 L 864.664, 383.392 L 876.148, 372.968 L 862.367, 364.134 L 871.731, 355.83 L 859.894, 348.233 z "/>
<path style="fill:rgb(255, 255, 0);fill-opacity:0;fill-rule:evenodd;stroke:rgb(130, 255, 0);stroke-width:1;" d="M 637.279, 310.071 L 648.057, 301.943 L 638.163, 293.993 L 651.413, 284.629 L 639.223, 274.558 L 649.823, 266.961 L 639.576, 258.657 L 653.357, 248.763 L 653.71, 235.512 L 669.435, 235.689 L 669.258, 246.113 L 683.569, 257.774 L 669.788, 267.491 L 679.859, 275.795 L 666.961, 284.982 L 678.799, 294.523 L 668.375, 302.297 L 679.152, 310.601 L 666.784, 319.788 L 666.254, 333.392 L 649.823, 333.039 L 650.353, 320.141 L 637.279, 310.071 z "/>
<path style="fill:rgb(255, 0, 0);fill-opacity:0;fill-rule:evenodd;stroke:rgb(130, 255, 0);stroke-width:1;" d="M 753.004, 168.198 L 764.488, 164.134 L 771.555, 175.795 L 792.049, 181.979 L 786.749, 192.756 L 800.53, 196.643 L 794.17, 209.541 L 810.601, 214.134 L 805.3, 224.912 L 822.261, 229.682 L 814.841, 244.7 L 820.495, 254.064 L 806.184, 259.011 L 798.94, 246.643 L 781.625, 241.873 L 787.102, 230.742 L 773.498, 226.855 L 779.682, 213.958 L 763.428, 209.364 L 768.375, 198.94 L 754.594, 195.053 L 761.131, 181.802 L 753.004, 168.198 z "/>
<path style="fill:rgb(0, 255, 0);fill-opacity:0;fill-rule:evenodd;stroke:rgb(130, 255, 0);stroke-width:1;" d="M 391.166, 306.36 L 402.827, 299.293 L 393.463, 290.459 L 407.067, 282.155 L 395.936, 271.555 L 407.067, 264.664 L 397.527, 255.654 L 412.191, 246.643 L 413.958, 233.216 L 429.152, 234.452 L 427.739, 244.7 L 441.343, 257.42 L 427.208, 266.078 L 436.219, 274.735 L 422.438, 283.216 L 433.746, 293.816 L 422.438, 300.707 L 431.979, 309.717 L 417.668, 318.375 L 415.901, 330.919 L 400.707, 329.682 L 402.473, 317.138 L 391.166, 306.36 z "/>
<path style="fill:rgb(0, 0, 255);fill-opacity:0;fill-rule:evenodd;stroke:rgb(130, 255, 0);stroke-width:1;" d="M 647.88, 98.0565 L 660.954, 87.9859 L 660.424, 75.4417 L 675.795, 75.0883 L 676.325, 88.5159 L 688.869, 97.7032 L 678.269, 105.83 L 688.693, 113.604 L 676.325, 123.322 L 688.869, 132.686 L 678.445, 140.813 L 688.693, 148.587 L 676.148, 158.304 L 676.502, 171.025 L 661.131, 171.201 L 660.777, 158.657 L 648.057, 149.117 L 658.657, 140.989 L 648.233, 133.216 L 660.601, 123.322 L 648.057, 113.958 L 658.481, 106.007 L 647.88, 98.0565 z "/>
<path style="fill:rgb(255, 255, 0);fill-opacity:0;fill-rule:evenodd;stroke:rgb(130, 255, 0);stroke-width:1;" d="M 507.951, 304.417 L 518.728, 293.463 L 516.078, 280.742 L 530.919, 279.152 L 533.392, 291.166 L 548.763, 299.823 L 539.753, 310.247 L 550.353, 315.548 L 540.459, 327.032 L 554.417, 334.982 L 545.76, 343.11 L 558.304, 350.177 L 547.173, 361.484 L 549.47, 373.675 L 534.806, 375.442 L 532.332, 363.074 L 517.491, 354.594 L 526.325, 345.583 L 514.488, 338.869 L 524.912, 328.092 L 510.777, 320.141 L 519.611, 311.131 L 507.951, 304.417 z "/>
<path style="fill:rgb(255, 0, 0);fill-opacity:0;fill-rule:evenodd;stroke:rgb(130, 255, 0);stroke-width:1;" d="M 896.82, 283.039 L 916.254, 246.113 L 958.481, 258.834 L 946.996, 280.742 L 950.53, 281.802 L 942.58, 296.996 L 936.572, 295.053 L 936.396, 295.583 L 902.827, 285.336 L 903.18, 284.982 L 896.82, 283.039 z "/>
<path style="fill:rgb(0, 255, 0);fill-opacity:0;fill-rule:evenodd;stroke:rgb(130, 255, 0);stroke-width:1;" d="M 548.057, 248.763 L 566.608, 213.958 L 571.378, 215.371 L 575.088, 208.304 L 591.873, 213.428 L 591.519, 213.958 L 604.417, 218.021 L 599.647, 226.855 L 598.057, 226.325 L 581.802, 256.537 L 583.569, 257.067 L 578.799, 265.724 L 566.078, 261.837 L 565.548, 262.721 L 548.94, 257.42 L 552.65, 250.177 L 548.057, 248.763 z "/>
<path style="fill:rgb(0, 0, 255);fill-opacity:0;fill-rule:evenodd;stroke:rgb(130, 255, 0);stroke-width:1;" d="M 314.311, 156.36 L 325.088, 135.512 L 363.958, 146.996 L 365.371, 144.523 L 381.802, 149.47 L 380.565, 151.943 L 381.802, 152.297 L 371.201, 172.792 L 353.534, 167.491 L 346.643, 180.919 L 327.562, 175.265 L 334.629, 162.367 L 314.311, 156.36 z "/>
<path style="fill:rgb(255, 255, 0);fill-opacity:0;fill-rule:evenodd;stroke:rgb(130, 255, 0);stroke-width:1;" d="M 897.35, 282.686 L 905.124, 268.198 L 908.834, 269.258 L 919.788, 248.763 L 957.597, 259.541 L 946.466, 280.919 L 949.823, 281.979 L 942.226, 296.466 L 897.35, 282.686 z "/>
<path style="fill:rgb(255, 0, 0);fill-opacity:0;fill-rule:evenodd;stroke:rgb(130, 255, 0);stroke-width:1;" d="M 615.724, 309.894 L 638.163, 293.993 L 648.057, 301.943 L 637.279, 310.071 L 650.353, 320.141 L 649.823, 333.039 L 666.254, 333.392 L 666.784, 319.788 L 679.152, 310.601 L 668.375, 302.297 L 678.799, 294.523 L 702.65, 313.958 L 692.049, 321.555 L 689.929, 319.788 L 665.194, 337.279 L 667.491, 339.046 L 658.834, 345.053 L 644.876, 333.746 L 648.41, 331.272 L 630.742, 316.784 L 627.032, 319.258 L 615.724, 309.894 z "/>
<path style="fill:rgb(0, 255, 0);fill-opacity:0;fill-rule:evenodd;stroke:rgb(130, 255, 0);stroke-width:1;" d="M 764.488, 164.134 L 775.265, 136.396 L 798.94, 143.11 L 794.17, 152.65 L 799.647, 162.191 L 812.544, 165.901 L 803.004, 185.159 L 792.049, 181.979 L 771.555, 175.795 L 764.488, 164.134 z "/>
<path style="fill:rgb(0, 0, 255);fill-opacity:0;fill-rule:evenodd;stroke:rgb(130, 255, 0);stroke-width:1;" d="M 500, 159.717 L 515.371, 129.329 L 552.473, 140.106 L 537.102, 170.495 L 500, 159.717 z "/>
<path style="fill:rgb(255, 255, 0);fill-opacity:0;fill-rule:evenodd;stroke:rgb(130, 255, 0);stroke-width:1;" d="M 476.502, 153.004 L 499.293, 108.127 L 522.615, 114.841 L 515.371, 129.329 L 500, 159.717 L 476.502, 153.004 z "/>
<path style="fill:rgb(255, 0, 0);fill-opacity:0;fill-rule:evenodd;stroke:rgb(130, 255, 0);stroke-width:1;" d="M 282.862, 304.594 L 306.007, 259.717 L 329.329, 266.784 L 306.89, 310.071 L 306.184, 311.484 L 282.862, 304.594 z "/>
<path style="fill:rgb(0, 255, 0);fill-opacity:0;fill-rule:evenodd;stroke:rgb(130, 255, 0);stroke-width:1;" d="M 539.753, 310.247 L 548.763, 299.823 L 552.827, 295.406 L 564.488, 301.237 L 551.413, 316.078 L 554.947, 334.276 L 572.968, 344.523 L 564.311, 353.534 L 558.304, 350.177 L 545.76, 343.11 L 554.417, 334.982 L 540.459, 327.032 L 550.353, 315.548 L 539.753, 310.247 z "/>
<path style="fill:rgb(0, 0, 255);fill-opacity:0;fill-rule:evenodd;stroke:rgb(130, 255, 0);stroke-width:1;" d="M 576.325, 686.749 L 595.936, 683.216 L 597.527, 682.862 L 605.477, 707.42 L 584.099, 711.307 L 576.325, 686.749 z "/>
<path style="fill:rgb(255, 255, 0);fill-opacity:0;fill-rule:evenodd;stroke:rgb(130, 255, 0);stroke-width:1;" d="M 79.1519, 716.608 L 80.9187, 713.251 L 88.1625, 700 L 102.297, 704.417 L 92.5795, 722.261 L 94.3463, 732.332 L 81.0954, 733.746 L 79.1519, 716.608 z "/>
<path style="fill:rgb(255, 0, 0);fill-opacity:0;fill-rule:evenodd;stroke:rgb(130, 255, 0);stroke-width:1;" d="M 112.721, 730.565 L 122.968, 710.601 L 140.459, 716.078 L 142.403, 727.562 L 112.721, 730.565 z "/>
<path style="fill:rgb(0, 255, 0);fill-opacity:0;fill-rule:evenodd;stroke:rgb(130, 255, 0);stroke-width:1;" d="M 92.5795, 722.261 L 102.297, 704.417 L 112.721, 707.597 L 103.004, 725.618 L 104.064, 725.972 L 101.06, 731.802 L 94.3463, 732.332 L 92.5795, 722.261 z "/>
<path style="fill:rgb(0, 0, 255);fill-opacity:0;fill-rule:evenodd;stroke:rgb(130, 255, 0);stroke-width:1;" d="M 101.06, 731.802 L 104.064, 725.972 L 103.004, 725.618 L 112.721, 707.597 L 122.968, 710.601 L 112.721, 730.565 L 101.06, 731.802 z "/>
<path style="fill:rgb(255, 255, 0);fill-opacity:0;fill-rule:evenodd;stroke:rgb(130, 255, 0);stroke-width:1;" d="M 562.544, 739.929 L 570.318, 738.339 L 571.555, 742.226 L 574.028, 741.873 L 579.682, 758.834 L 576.855, 759.364 L 578.092, 763.074 L 570.671, 764.488 L 562.544, 739.929 z "/>
<path style="fill:rgb(255, 0, 0);fill-opacity:0;fill-rule:evenodd;stroke:rgb(130, 255, 0);stroke-width:1;" d="M 547.527, 692.049 L 555.124, 690.636 L 556.36, 694.523 L 559.011, 693.993 L 564.488, 711.131 L 561.661, 711.661 L 562.898, 715.194 L 555.477, 716.608 L 547.527, 692.049 z "/>
<path style="fill:rgb(0, 255, 0);fill-opacity:0;fill-rule:evenodd;stroke:rgb(130, 255, 0);stroke-width:1;" d="M 603.534, 157.244 L 617.668, 155.654 L 620.318, 169.258 L 610.071, 170.495 L 606.184, 170.848 L 603.534, 157.244 z "/>
<path style="fill:rgb(0, 0, 255);fill-opacity:0;fill-rule:evenodd;stroke:rgb(130, 255, 0);stroke-width:1;" d="M 550, 649.293 L 564.488, 624.205 L 571.555, 626.325 L 559.187, 647.703 L 550, 649.293 z "/>
<path style="fill:rgb(255, 255, 0);fill-opacity:0;fill-rule:evenodd;stroke:rgb(130, 255, 0);stroke-width:1;" d="M 553.887, 672.792 L 569.435, 669.611 L 573.322, 681.272 L 557.951, 684.276 L 553.887, 672.792 z "/>
<path style="fill:rgb(255, 0, 0);fill-opacity:0;fill-rule:evenodd;stroke:rgb(130, 255, 0);stroke-width:1;" d="M 583.746, 767.314 L 599.117, 764.311 L 603.18, 775.972 L 587.633, 778.975 L 583.746, 767.314 z "/>
<path style="fill:rgb(0, 255, 0);fill-opacity:0;fill-rule:evenodd;stroke:rgb(130, 255, 0);stroke-width:1;" d="M 563.604, 240.283 L 570.141, 228.092 L 583.216, 231.979 L 576.678, 244.346 L 563.604, 240.283 z "/>
<path style="fill:rgb(0, 0, 255);fill-opacity:0;fill-rule:evenodd;stroke:rgb(130, 255, 0);stroke-width:1;" d="M 948.763, 207.951 L 953.357, 199.117 L 971.555, 204.417 L 966.784, 213.428 L 948.763, 207.951 z "/>
<path style="fill:rgb(255, 255, 0);fill-opacity:0;fill-rule:evenodd;stroke:rgb(130, 255, 0);stroke-width:1;" d="M 568.375, 718.905 L 581.272, 716.608 L 584.806, 728.269 L 571.908, 730.565 L 568.375, 718.905 z "/>
<path style="fill:rgb(255, 0, 0);fill-opacity:0;fill-rule:evenodd;stroke:rgb(130, 255, 0);stroke-width:1;" d="M 158.481, 152.473 L 164.134, 141.519 L 175.088, 144.7 L 169.258, 155.83 L 158.481, 152.473 z "/>
<path style="fill:rgb(0, 255, 0);fill-opacity:0;fill-rule:evenodd;stroke:rgb(130, 255, 0);stroke-width:1;" d="M 281.272, 189.399 L 286.926, 178.269 L 297.703, 181.449 L 292.049, 192.58 L 281.272, 189.399 z "/>
<path style="fill:rgb(0, 0, 255);fill-opacity:0;fill-rule:evenodd;stroke:rgb(130, 255, 0);stroke-width:1;" d="M 769.258, 193.64 L 771.378, 189.399 L 777.032, 187.633 L 782.509, 189.223 L 784.982, 193.286 L 782.862, 197.703 L 777.562, 199.47 L 771.731, 197.88 L 769.258, 193.64 z "/>
<path style="fill:rgb(255, 255, 0);fill-opacity:0;fill-rule:evenodd;stroke:rgb(130, 255, 0);stroke-width:1;" d="M 866.431, 116.431 L 868.551, 112.367 L 874.382, 110.424 L 879.859, 112.014 L 882.155, 116.078 L 880.035, 120.495 L 874.735, 122.261 L 868.905, 120.671 L 866.431, 116.431 z "/>
<path style="fill:rgb(255, 0, 0);fill-opacity:0;fill-rule:evenodd;stroke:rgb(130, 255, 0);stroke-width:1;" d="M 848.233, 83.5689 L 850.353, 79.3286 L 856.184, 77.5618 L 861.661, 79.1519 L 863.958, 83.2155 L 861.837, 87.6325 L 856.537, 89.3993 L 850.707, 87.8092 L 848.233, 83.5689 z "/>
<path style="fill:rgb(0, 255, 0);fill-opacity:0;fill-rule:evenodd;stroke:rgb(130, 255, 0);stroke-width:1;" d="M 787.456, 226.502 L 789.576, 222.438 L 795.23, 220.495 L 800.707, 222.085 L 803.18, 226.148 L 801.06, 230.565 L 795.76, 232.509 L 789.929, 230.919 L 787.456, 226.502 z "/>
<path style="fill:rgb(0, 0, 255);fill-opacity:0;fill-rule:evenodd;stroke:rgb(130, 255, 0);stroke-width:1;" d="M 526.502, 340.459 L 540.106, 339.223 L 541.519, 346.996 L 527.915, 348.41 L 526.502, 340.459 z "/>
<path style="fill:rgb(255, 255, 0);fill-opacity:0;fill-rule:evenodd;stroke:rgb(130, 255, 0);stroke-width:1;" d="M 409.894, 266.431 L 410.954, 258.481 L 424.558, 259.717 L 423.498, 267.491 L 409.894, 266.431 z "/>
<path style="fill:rgb(255, 0, 0);fill-opacity:0;fill-rule:evenodd;stroke:rgb(130, 255, 0);stroke-width:1;" d="M 546.643, 67.4912 L 546.82, 59.7173 L 560.601, 59.7173 L 560.424, 67.6678 L 546.643, 67.4912 z "/>
<path style="fill:rgb(0, 255, 0);fill-opacity:0;fill-rule:evenodd;stroke:rgb(130, 255, 0);stroke-width:1;" d="M 405.477, 302.12 L 406.537, 294.17 L 420.141, 295.406 L 419.081, 303.18 L 405.477, 302.12 z "/>
<path style="fill:rgb(0, 0, 255);fill-opacity:0;fill-rule:evenodd;stroke:rgb(130, 255, 0);stroke-width:1;" d="M 659.011, 137.456 L 672.792, 137.456 L 672.792, 145.23 L 659.011, 145.23 L 659.011, 137.456 z "/>
<path style="fill:rgb(255, 255, 0);fill-opacity:0;fill-rule:evenodd;stroke:rgb(130, 255, 0);stroke-width:1;" d="M 652.473, 304.417 L 652.827, 296.466 L 666.608, 296.996 L 666.078, 304.77 L 652.473, 304.417 z "/>
<path style="fill:rgb(255, 0, 0);fill-opacity:0;fill-rule:evenodd;stroke:rgb(130, 255, 0);stroke-width:1;" d="M 654.24, 268.728 L 654.594, 260.777 L 668.375, 261.131 L 668.021, 269.081 L 654.24, 268.728 z "/>
<path style="fill:rgb(0, 255, 0);fill-opacity:0;fill-rule:evenodd;stroke:rgb(130, 255, 0);stroke-width:1;" d="M 659.187, 101.59 L 672.792, 101.413 L 672.792, 109.364 L 659.187, 109.364 L 659.187, 101.59 z "/>
<path style="fill:rgb(0, 0, 255);fill-opacity:0;fill-rule:evenodd;stroke:rgb(130, 255, 0);stroke-width:1;" d="M 519.435, 305.124 L 533.039, 303.887 L 534.276, 311.661 L 520.848, 312.898 L 519.435, 305.124 z "/>
<path style="fill:rgb(255, 255, 0);fill-opacity:0;fill-rule:evenodd;stroke:rgb(130, 255, 0);stroke-width:1;" d="M 996.82, 470.318 L 1009.54, 465.901 L 1013.6, 472.615 L 1000.88, 477.032 L 996.82, 470.318 z "/>
<path style="fill:rgb(255, 0, 0);fill-opacity:0;fill-rule:evenodd;stroke:rgb(130, 255, 0);stroke-width:1;" d="M 977.739, 437.633 L 990.459, 433.216 L 994.523, 439.929 L 981.802, 444.346 L 977.739, 437.633 z "/>
<path style="fill:rgb(0, 255, 0);fill-opacity:0;fill-rule:evenodd;stroke:rgb(130, 255, 0);stroke-width:1;" d="M 744.523, 372.615 L 745.406, 365.194 L 759.187, 366.078 L 758.481, 373.322 L 744.523, 372.615 z "/>
<path style="fill:rgb(0, 0, 255);fill-opacity:0;fill-rule:evenodd;stroke:rgb(130, 255, 0);stroke-width:1;" d="M 877.385, 386.572 L 891.343, 385.512 L 892.226, 392.756 L 878.445, 393.816 L 877.385, 386.572 z "/>
<path style="fill:rgb(255, 255, 0);fill-opacity:0;fill-rule:evenodd;stroke:rgb(130, 255, 0);stroke-width:1;" d="M 873.145, 350.883 L 886.926, 349.823 L 887.986, 357.067 L 874.205, 358.127 L 873.145, 350.883 z "/>
<path style="fill:rgb(255, 0, 0);fill-opacity:0;fill-rule:evenodd;stroke:rgb(130, 255, 0);stroke-width:1;" d="M 739.929, 408.127 L 740.813, 400.883 L 754.77, 401.767 L 753.887, 409.011 L 739.929, 408.127 z "/>
<path style="fill:rgb(0, 255, 0);fill-opacity:0;fill-rule:evenodd;stroke:rgb(130, 255, 0);stroke-width:1;" d="M 593.11, 660.247 L 597.35, 659.364 L 604.417, 681.625 L 600.177, 682.332 L 593.11, 660.247 z "/>
<path style="fill:rgb(0, 0, 255);fill-opacity:0;fill-rule:evenodd;stroke:rgb(130, 255, 0);stroke-width:1;" d="M 523.322, 673.145 L 527.562, 672.261 L 534.452, 694.523 L 530.212, 695.23 L 523.322, 673.145 z "/>
<path style="fill:rgb(255, 255, 0);fill-opacity:0;fill-rule:evenodd;stroke:rgb(130, 255, 0);stroke-width:1;" d="M 622.615, 755.124 L 626.855, 754.417 L 633.922, 776.502 L 629.505, 777.208 L 622.615, 755.124 z "/>
<path style="fill:rgb(255, 0, 0);fill-opacity:0;fill-rule:evenodd;stroke:rgb(130, 255, 0);stroke-width:1;" d="M 588.869, 660.954 L 593.11, 660.247 L 600.177, 682.332 L 597.527, 682.862 L 595.936, 683.216 L 588.869, 660.954 z "/>
<path style="fill:rgb(0, 255, 0);fill-opacity:0;fill-rule:evenodd;stroke:rgb(130, 255, 0);stroke-width:1;" d="M 744.523, 736.396 L 748.763, 735.689 L 755.83, 757.774 L 751.59, 758.481 L 744.523, 736.396 z "/>
<path style="fill:rgb(0, 0, 255);fill-opacity:0;fill-rule:evenodd;stroke:rgb(130, 255, 0);stroke-width:1;" d="M 740.283, 737.102 L 744.523, 736.396 L 751.59, 758.481 L 747.35, 759.364 L 740.283, 737.102 z "/>
<path style="fill:rgb(255, 255, 0);fill-opacity:0;fill-rule:evenodd;stroke:rgb(130, 255, 0);stroke-width:1;" d="M 548.233, 768.728 L 552.473, 768.021 L 559.541, 790.106 L 555.3, 790.813 L 548.233, 768.728 z "/>
<path style="fill:rgb(255, 0, 0);fill-opacity:0;fill-rule:evenodd;stroke:rgb(130, 255, 0);stroke-width:1;" d="M 552.473, 768.021 L 556.714, 767.138 L 563.781, 789.399 L 559.541, 790.106 L 552.473, 768.021 z "/>
<path style="fill:rgb(0, 255, 0);fill-opacity:0;fill-rule:evenodd;stroke:rgb(130, 255, 0);stroke-width:1;" d="M 618.375, 756.007 L 622.615, 755.124 L 629.505, 777.208 L 625.265, 778.092 L 618.375, 756.007 z "/>
<path style="fill:rgb(0, 0, 255);fill-opacity:0;fill-rule:evenodd;stroke:rgb(130, 255, 0);stroke-width:1;" d="M 810.247, 724.735 L 814.488, 724.028 L 821.378, 746.113 L 817.138, 746.82 L 810.247, 724.735 z "/>
<path style="fill:rgb(255, 255, 0);fill-opacity:0;fill-rule:evenodd;stroke:rgb(130, 255, 0);stroke-width:1;" d="M 518.905, 673.852 L 523.322, 673.145 L 530.212, 695.23 L 525.972, 695.936 L 518.905, 673.852 z "/>
<path style="fill:rgb(255, 0, 0);fill-opacity:0;fill-rule:evenodd;stroke:rgb(130, 255, 0);stroke-width:1;" d="M 814.488, 724.028 L 818.728, 723.322 L 825.618, 745.406 L 821.378, 746.113 L 814.488, 724.028 z "/>
<path style="fill:rgb(0, 255, 0);fill-opacity:0;fill-rule:evenodd;stroke:rgb(130, 255, 0);stroke-width:1;" d="M 760.247, 718.198 L 783.039, 713.958 L 784.099, 717.138 L 761.307, 721.378 L 760.247, 718.198 z "/>
<path style="fill:rgb(0, 0, 255);fill-opacity:0;fill-rule:evenodd;stroke:rgb(130, 255, 0);stroke-width:1;" d="M 0, 636.749 L 11.4841, 614.664 L 22.2615, 617.845 L 21.2014, 619.965 L 28.4452, 622.261 L 39.3993, 601.413 L 30.5654, 598.763 L 27.9152, 599.647 L 22.2615, 597.88 L 21.3781, 596.113 L 49.47, 542.403 L 51.9435, 540.989 L 57.5972, 542.756 L 58.8339, 544.876 L 67.6678, 547.527 L 78.6219, 526.855 L 71.2014, 524.558 L 69.788, 527.208 L 58.4806, 523.852 L 70.318, 501.413 L 110.247, 513.604 L 105.83, 522.085 L 104.417, 521.731 L 101.943, 526.148 L 112.367, 529.329 L 113.604, 527.208 L 118.375, 528.799 L 117.668, 530.212 L 128.092, 533.392 L 128.799, 531.979 L 133.392, 533.392 L 132.155, 535.689 L 142.756, 538.869 L 145.406, 533.922 L 144.17, 533.392 L 148.41, 525.088 L 187.809, 536.926 L 176.148, 559.364 L 165.548, 556.184 L 166.784, 553.534 L 159.011, 551.06 L 148.057, 571.908 L 157.951, 574.912 L 159.717, 574.205 L 165.371, 575.795 L 166.431, 577.739 L 138.163, 631.449 L 136.219, 632.155 L 130.212, 630.389 L 128.975, 628.622 L 120.141, 625.972 L 109.187, 646.643 L 116.961, 648.94 L 118.198, 646.643 L 128.975, 650 L 117.314, 672.261 L 0, 636.749 z M 48.9399, 583.922 L 66.7845, 589.399 L 52.6502, 616.431 L 54.417, 616.961 L 53.5336, 618.728 L 62.0141, 621.378 L 57.4205, 630.035 L 55.8304, 629.505 L 52.8269, 635.336 L 80.0353, 643.64 L 83.0389, 637.809 L 81.4488, 637.456 L 85.8657, 628.975 L 95.7597, 631.979 L 111.131, 602.65 L 128.622, 607.951 L 138.163, 589.576 L 120.671, 584.276 L 137.102, 553.004 L 132.862, 551.59 L 131.979, 553.18 L 96.4664, 542.403 L 97.3498, 540.813 L 93.1095, 539.576 L 76.6784, 571.025 L 58.6572, 565.548 L 48.9399, 583.922 z "/>
<path style="fill:rgb(255, 255, 0);fill-opacity:0;fill-rule:evenodd;stroke:rgb(130, 255, 0);stroke-width:1;" d="M 71.0247, 710.071 L 78.0919, 696.996 L 88.1625, 700 L 80.9187, 713.251 L 71.0247, 710.071 z "/>
<path style="fill:rgb(255, 0, 0);fill-opacity:0;fill-rule:evenodd;stroke:rgb(130, 255, 0);stroke-width:1;" d="M 533.569, 38.3392 L 543.993, 30.3887 L 533.569, 22.4382 L 546.466, 12.8975 L 546.29, 0 L 561.484, 0 L 561.484, 13.6042 L 573.675, 22.7915 L 564.841, 31.2721 L 575.972, 39.2226 L 563.428, 48.4099 L 575.972, 58.1272 L 565.724, 67.1378 L 574.558, 73.3216 L 561.661, 83.0389 L 561.837, 95.7597 L 546.643, 95.7597 L 546.643, 83.0389 L 533.922, 73.3216 L 544.346, 65.371 L 533.922, 57.4205 L 546.29, 48.0565 L 533.569, 38.3392 z "/>
<path style="fill:rgb(0, 255, 0);fill-opacity:0;fill-rule:evenodd;stroke:rgb(130, 255, 0);stroke-width:1;" d="M 563.428, 48.4099 L 575.972, 39.2226 L 564.841, 31.2721 L 573.675, 22.7915 L 589.399, 10.7774 L 601.59, 20.1413 L 577.915, 38.1625 L 578.269, 57.7739 L 601.767, 75.4417 L 589.576, 84.8057 L 574.558, 73.3216 L 565.724, 67.1378 L 575.972, 58.1272 L 563.428, 48.4099 z "/>
<path style="fill:rgb(0, 0, 255);fill-opacity:0;fill-rule:evenodd;stroke:rgb(130, 255, 0);stroke-width:1;" d="M 527.562, 672.261 L 548.057, 668.551 L 546.82, 664.664 L 549.647, 664.134 L 545.23, 650.177 L 550, 649.293 L 559.187, 647.703 L 566.784, 646.29 L 571.378, 660.424 L 573.852, 659.894 L 574.912, 663.604 L 588.869, 660.954 L 595.936, 683.216 L 576.325, 686.749 L 584.099, 711.307 L 605.477, 707.42 L 606.007, 707.244 L 607.597, 712.367 L 611.837, 711.661 L 616.078, 725.088 L 611.837, 725.795 L 613.428, 730.919 L 591.873, 734.806 L 599.647, 759.364 L 618.375, 756.007 L 625.265, 778.092 L 610.424, 780.742 L 611.837, 784.806 L 609.894, 785.159 L 611.307, 789.576 L 589.046, 793.64 L 587.809, 789.223 L 585.689, 789.576 L 584.452, 785.512 L 563.781, 789.399 L 556.714, 767.138 L 570.671, 764.488 L 578.092, 763.074 L 576.855, 759.364 L 579.682, 758.834 L 574.028, 741.873 L 571.555, 742.226 L 570.318, 738.339 L 562.544, 739.929 L 552.65, 741.519 L 551.06, 736.572 L 546.996, 737.456 L 542.756, 724.205 L 546.996, 723.498 L 545.406, 718.551 L 555.477, 716.608 L 562.898, 715.194 L 561.661, 711.661 L 564.488, 711.131 L 559.011, 693.993 L 556.36, 694.523 L 555.124, 690.636 L 547.527, 692.049 L 534.452, 694.523 L 527.562, 672.261 z "/>
</svg>