<?xml version="1.0" encoding="iso-8859-1" standalone="no"?>
<!DOCTYPE svg PUBLIC "-//W3C//DTD SVG 1.0//EN" "http://www.w3.org/TR/2001/REC-SVG-20010904/DTD/svg10.dtd">
<svg xmlns="http://www.w3.org/2000/svg" width="1168" height="800">
<path style="fill:rgb(255, 0, 0);fill-opacity:0;fill-rule:evenodd;stroke:rgb(134, 0, 255);stroke-width:1;" d="M 358.764, 518.99 L 423.307, 431.234 L 822.269, 601.085 L 820.382, 603.916 L 865.487, 623.166 L 867.752, 625.053 L 877.377, 635.433 L 879.264, 639.207 L 880.396, 642.793 L 880.585, 645.813 L 880.585, 648.832 L 879.83, 652.795 L 878.32, 657.891 L 876.811, 661.099 L 871.715, 667.705 L 869.45, 669.969 L 863.6, 674.121 L 866.619, 676.763 L 835.669, 719.038 L 759.613, 686.577 L 757.915, 689.03 L 358.764, 518.99 z "/>
<path style="fill:rgb(0, 255, 0);fill-opacity:0;fill-rule:evenodd;stroke:rgb(134, 0, 255);stroke-width:1;" d="M 716.962, 184.572 L 725.265, 173.248 L 717.528, 167.587 L 799.623, 104.93 L 818.684, 112.857 L 826.421, 116.254 L 874.923, 136.447 L 896.438, 145.695 L 918.896, 154.942 L 1161.97, 257.042 L 1168.58, 259.684 L 1165.75, 263.647 L 1167.26, 264.591 L 1110.07, 343.477 L 1104.03, 351.592 L 1092.71, 346.874 L 852.465, 245.907 L 830.385, 236.66 L 783.581, 217.032 L 731.305, 195.14 L 717.716, 189.479 L 720.359, 185.893 L 716.962, 184.572 z "/>
<path style="fill:rgb(0, 0, 255);fill-opacity:0;fill-rule:evenodd;stroke:rgb(134, 0, 255);stroke-width:1;" d="M 320.642, 571.833 L 337.438, 548.809 L 706.393, 704.506 L 699.976, 713.376 L 712.055, 718.283 L 691.861, 745.836 L 710.167, 753.574 L 676.386, 800 L 649.398, 788.488 L 646.568, 792.451 L 631.281, 786.034 L 633.923, 782.26 L 358.386, 665.817 L 401.982, 605.992 L 320.642, 571.833 z "/>
<path style="fill:rgb(255, 255, 0);fill-opacity:0;fill-rule:evenodd;stroke:rgb(134, 0, 255);stroke-width:1;" d="M 852.465, 245.907 L 918.896, 154.942 L 1161.97, 257.042 L 1159.14, 260.816 L 1165.75, 263.647 L 1167.26, 264.591 L 1110.07, 343.477 L 1098.37, 338.759 L 1092.71, 346.874 L 852.465, 245.907 z "/>
<path style="fill:rgb(255, 0, 0);fill-opacity:0;fill-rule:evenodd;stroke:rgb(134, 0, 255);stroke-width:1;" d="M 783.958, 312.338 L 816.796, 267.233 L 1080.44, 378.014 L 1016.65, 465.959 L 867.752, 406.511 L 888.323, 378.014 L 890.587, 374.994 L 892.663, 371.786 L 875.49, 364.237 L 882.472, 353.668 L 856.428, 342.722 L 783.958, 312.338 z "/>
<path style="fill:rgb(0, 255, 0);fill-opacity:0;fill-rule:evenodd;stroke:rgb(134, 0, 255);stroke-width:1;" d="M 443.123, 402.925 L 451.993, 392.168 L 462.373, 380.467 L 472.564, 368.766 L 483.133, 357.443 L 494.456, 345.931 L 506.157, 334.607 L 517.858, 323.661 L 618.07, 365.558 L 648.644, 378.58 L 653.55, 391.036 L 652.229, 392.734 L 654.683, 399.339 L 649.965, 405.379 L 658.08, 426.704 L 657.325, 428.025 L 663.741, 430.29 L 672.045, 453.314 L 700.731, 465.204 L 734.324, 457.655 L 736.778, 458.787 L 743.194, 471.998 L 741.496, 474.074 L 736.211, 475.018 L 737.532, 479.547 L 735.834, 481.434 L 730.55, 482.378 L 729.795, 483.51 L 731.493, 487.851 L 729.417, 490.116 L 693.56, 498.042 L 647.7, 478.603 L 642.038, 486.341 L 443.123, 402.925 z "/>
<path style="fill:rgb(0, 0, 255);fill-opacity:0;fill-rule:evenodd;stroke:rgb(134, 0, 255);stroke-width:1;" d="M 700.731, 334.23 L 731.305, 292.144 L 732.626, 290.257 L 708.28, 280.066 L 740.741, 235.339 L 816.796, 267.233 L 783.958, 312.338 L 856.428, 342.722 L 846.615, 356.31 L 870.771, 366.69 L 890.587, 374.994 L 888.323, 378.014 L 867.752, 406.511 L 850.389, 399.528 L 762.444, 362.727 L 763.765, 360.84 L 726.02, 344.798 L 700.731, 334.23 z "/>
<path style="fill:rgb(255, 255, 0);fill-opacity:0;fill-rule:evenodd;stroke:rgb(134, 0, 255);stroke-width:1;" d="M 761.5, 538.618 L 799.056, 485.775 L 824.534, 496.155 L 850.578, 459.731 L 974.947, 511.253 L 910.026, 599.953 L 761.5, 538.618 z M 836.612, 548.809 L 873.036, 563.907 L 889.644, 540.882 L 894.173, 534.843 L 886.813, 531.824 L 891.531, 525.407 L 888.511, 524.086 L 885.303, 522.765 L 889.833, 516.537 L 886.813, 515.405 L 894.928, 503.892 L 859.071, 488.983 L 844.161, 509.554 L 839.443, 515.971 L 846.803, 518.99 L 841.897, 525.596 L 844.539, 526.539 L 847.558, 527.86 L 843.029, 534.088 L 846.237, 535.409 L 836.612, 548.809 z "/>
<path style="fill:rgb(255, 0, 0);fill-opacity:0;fill-rule:evenodd;stroke:rgb(134, 0, 255);stroke-width:1;" d="M 726.586, 176.645 L 727.719, 174.758 L 740.741, 180.42 L 742.628, 183.817 L 747.157, 182.873 L 746.402, 179.288 L 745.459, 172.871 L 745.27, 167.021 L 745.648, 161.359 L 747.157, 155.697 L 749.988, 149.658 L 753.008, 144.374 L 757.915, 138.901 L 762.821, 133.994 L 767.917, 130.031 L 775.655, 125.879 L 783.581, 122.859 L 791.885, 120.594 L 800.189, 119.085 L 806.605, 118.707 L 814.154, 118.896 L 818.684, 112.857 L 874.923, 136.447 L 869.45, 144.374 L 891.154, 153.621 L 869.828, 182.685 L 825.666, 164.19 L 813.399, 180.797 L 857.749, 199.292 L 836.046, 228.922 L 789.62, 208.917 L 783.581, 217.032 L 731.305, 195.14 L 740.363, 182.307 L 726.586, 176.645 z "/>
<path style="fill:rgb(0, 255, 0);fill-opacity:0;fill-rule:evenodd;stroke:rgb(134, 0, 255);stroke-width:1;" d="M 569.191, 280.444 L 667.516, 204.577 L 706.77, 220.996 L 727.53, 229.677 L 740.741, 235.339 L 708.28, 280.066 L 693.937, 274.216 L 660.911, 318.943 L 569.191, 280.444 z "/>
<path style="fill:rgb(0, 0, 255);fill-opacity:0;fill-rule:evenodd;stroke:rgb(134, 0, 255);stroke-width:1;" d="M 0, 635.622 L 95.1168, 505.402 L 115.499, 514.084 L 103.421, 530.502 L 113.046, 534.654 L 114.744, 532.39 L 141.165, 543.524 L 131.918, 556.169 L 135.315, 557.679 L 73.0361, 643.171 L 68.5067, 641.283 L 59.448, 653.928 L 35.1026, 643.548 L 36.8011, 641.095 L 26.0439, 636.565 L 20.3822, 644.303 L 0, 635.622 z "/>
<path style="fill:rgb(255, 255, 0);fill-opacity:0;fill-rule:evenodd;stroke:rgb(134, 0, 255);stroke-width:1;" d="M 443.123, 402.925 L 451.993, 392.168 L 462.373, 380.467 L 472.564, 368.766 L 483.133, 357.443 L 494.456, 345.931 L 526.162, 359.519 L 530.314, 354.234 L 603.916, 384.996 L 601.274, 388.582 L 594.857, 397.452 L 575.041, 388.96 L 544.091, 435.197 L 562.774, 442.368 L 591.46, 454.636 L 636.565, 473.885 L 647.7, 478.603 L 642.038, 486.341 L 443.123, 402.925 z "/>
<path style="fill:rgb(255, 0, 0);fill-opacity:0;fill-rule:evenodd;stroke:rgb(134, 0, 255);stroke-width:1;" d="M 830.196, 81.3399 L 861.524, 55.2961 L 887.568, 31.5169 L 939.656, 53.2201 L 978.155, 69.6391 L 970.984, 79.6414 L 936.825, 126.445 L 830.196, 81.3399 z "/>
<path style="fill:rgb(0, 255, 0);fill-opacity:0;fill-rule:evenodd;stroke:rgb(134, 0, 255);stroke-width:1;" d="M 830.196, 81.3399 L 861.524, 55.2961 L 887.568, 31.5169 L 939.656, 53.2201 L 933.239, 63.5999 L 970.984, 79.6414 L 936.825, 126.445 L 830.196, 81.3399 z "/>
<path style="fill:rgb(0, 0, 255);fill-opacity:0;fill-rule:evenodd;stroke:rgb(134, 0, 255);stroke-width:1;" d="M 888.323, 378.014 L 890.399, 374.994 L 892.663, 371.786 L 910.592, 346.686 L 967.209, 369.71 L 980.986, 350.271 L 1064.59, 384.242 L 1042.51, 415.381 L 987.214, 392.734 L 973.06, 412.55 L 888.323, 378.014 z "/>
<path style="fill:rgb(255, 255, 0);fill-opacity:0;fill-rule:evenodd;stroke:rgb(134, 0, 255);stroke-width:1;" d="M 726.02, 344.798 L 748.667, 314.036 L 846.615, 356.31 L 870.771, 366.69 L 849.446, 396.131 L 763.765, 360.84 L 726.02, 344.798 z "/>
<path style="fill:rgb(255, 0, 0);fill-opacity:0;fill-rule:evenodd;stroke:rgb(134, 0, 255);stroke-width:1;" d="M 581.835, 281.01 L 601.274, 256.853 L 607.313, 255.532 L 609.012, 260.25 L 615.051, 258.929 L 616.561, 263.458 L 622.6, 262.326 L 624.298, 266.855 L 630.337, 265.534 L 632.036, 270.252 L 638.075, 268.931 L 639.774, 273.461 L 645.813, 272.328 L 647.322, 276.858 L 653.362, 275.537 L 655.06, 280.255 L 662.987, 278.556 L 661.288, 274.027 L 667.327, 272.706 L 665.629, 268.176 L 671.668, 266.855 L 670.158, 262.326 L 676.197, 261.005 L 674.499, 256.476 L 680.538, 255.155 L 679.028, 250.625 L 685.067, 249.493 L 683.369, 244.775 L 689.408, 243.642 L 687.709, 239.113 L 693.749, 237.792 L 692.239, 233.263 L 698.278, 231.941 L 696.579, 227.412 L 702.619, 226.091 L 700.92, 221.939 L 706.77, 220.996 L 727.53, 229.677 L 662.043, 315.924 L 651.097, 311.205 L 645.058, 312.338 L 643.359, 307.808 L 637.509, 308.941 L 635.81, 304.411 L 629.771, 305.544 L 628.073, 301.014 L 622.033, 302.335 L 620.335, 297.806 L 614.296, 298.938 L 612.786, 294.409 L 606.747, 295.541 L 605.048, 291.012 L 599.009, 292.333 L 597.311, 287.804 L 591.272, 288.936 L 589.762, 284.407 L 583.534, 285.539 L 581.835, 281.01 z "/>
<path style="fill:rgb(0, 255, 0);fill-opacity:0;fill-rule:evenodd;stroke:rgb(134, 0, 255);stroke-width:1;" d="M 562.774, 442.368 L 577.117, 421.609 L 592.593, 418.023 L 595.046, 419.155 L 602.029, 417.457 L 609.955, 406.888 L 608.068, 401.415 L 605.048, 400.283 L 601.274, 388.582 L 603.916, 384.996 L 618.07, 365.558 L 648.644, 378.58 L 653.55, 391.036 L 652.229, 392.734 L 654.683, 399.339 L 649.965, 405.379 L 658.08, 426.704 L 657.325, 428.025 L 652.041, 435.763 L 621.845, 441.802 L 618.07, 447.841 L 608.823, 449.729 L 607.69, 451.427 L 591.46, 454.636 L 562.774, 442.368 z "/>
<path style="fill:rgb(0, 0, 255);fill-opacity:0;fill-rule:evenodd;stroke:rgb(134, 0, 255);stroke-width:1;" d="M 618.07, 447.841 L 621.845, 441.802 L 652.041, 435.763 L 657.325, 428.025 L 663.741, 430.29 L 672.045, 453.314 L 700.731, 465.204 L 734.324, 457.655 L 736.778, 458.787 L 743.194, 471.998 L 741.496, 474.074 L 736.211, 475.018 L 737.532, 479.547 L 735.834, 481.434 L 730.55, 482.378 L 729.795, 483.51 L 731.493, 487.851 L 729.417, 490.116 L 693.56, 498.042 L 647.7, 478.603 L 636.565, 473.885 L 631.658, 462.184 L 633.357, 460.109 L 630.526, 453.503 L 618.07, 447.841 z "/>
<path style="fill:rgb(255, 255, 0);fill-opacity:0;fill-rule:evenodd;stroke:rgb(134, 0, 255);stroke-width:1;" d="M 887.568, 31.5169 L 919.085, 0 L 1003.26, 35.4801 L 978.155, 69.6391 L 939.656, 53.2201 L 887.568, 31.5169 z "/>
<path style="fill:rgb(255, 0, 0);fill-opacity:0;fill-rule:evenodd;stroke:rgb(134, 0, 255);stroke-width:1;" d="M 813.399, 180.797 L 825.666, 164.19 L 869.828, 182.685 L 891.154, 153.621 L 896.438, 145.695 L 918.896, 154.942 L 852.465, 245.907 L 830.385, 236.66 L 836.046, 228.922 L 857.749, 199.292 L 813.399, 180.797 z "/>
<path style="fill:rgb(0, 255, 0);fill-opacity:0;fill-rule:evenodd;stroke:rgb(134, 0, 255);stroke-width:1;" d="M 543.902, 87.7565 L 547.299, 87.1904 L 554.282, 85.8693 L 560.887, 83.9821 L 564.095, 82.8497 L 570.512, 80.3963 L 576.551, 77.7542 L 582.402, 74.5459 L 585.044, 72.8474 L 590.328, 69.0729 L 592.781, 67.1857 L 597.499, 63.0337 L 601.651, 58.6931 L 605.237, 53.975 L 608.445, 49.2569 L 611.276, 44.1614 L 612.409, 41.7079 L 642.793, 49.6343 L 640.151, 55.4848 L 637.131, 61.3352 L 633.357, 66.8082 L 629.205, 72.0925 L 626.94, 74.7346 L 622.033, 79.8301 L 616.749, 84.5482 L 611.088, 88.8889 L 604.86, 93.0408 L 598.443, 96.8153 L 591.649, 100.212 L 584.477, 103.421 L 577.117, 106.063 L 569.38, 108.327 L 561.642, 110.215 L 553.715, 111.724 L 549.564, 112.291 L 543.902, 87.7565 z "/>
<path style="fill:rgb(0, 0, 255);fill-opacity:0;fill-rule:evenodd;stroke:rgb(134, 0, 255);stroke-width:1;" d="M 494.456, 345.931 L 506.157, 334.607 L 517.858, 323.661 L 618.07, 365.558 L 603.916, 384.996 L 530.314, 354.234 L 526.162, 359.519 L 494.456, 345.931 z "/>
<path style="fill:rgb(255, 255, 0);fill-opacity:0;fill-rule:evenodd;stroke:rgb(134, 0, 255);stroke-width:1;" d="M 50.0118, 616.372 L 95.1168, 554.47 L 126.445, 567.492 L 81.5287, 629.394 L 50.0118, 616.372 z "/>
<path style="fill:rgb(255, 0, 0);fill-opacity:0;fill-rule:evenodd;stroke:rgb(134, 0, 255);stroke-width:1;" d="M 396.697, 149.658 L 424.628, 113.423 L 457.278, 127.955 L 430.29, 162.869 L 429.347, 164.19 L 396.697, 149.658 z "/>
<path style="fill:rgb(0, 255, 0);fill-opacity:0;fill-rule:evenodd;stroke:rgb(134, 0, 255);stroke-width:1;" d="M 544.091, 435.197 L 575.041, 388.96 L 594.857, 397.452 L 601.274, 388.582 L 605.048, 400.283 L 608.068, 401.415 L 609.955, 406.888 L 602.029, 417.457 L 595.046, 419.155 L 592.593, 418.023 L 577.117, 421.609 L 562.774, 442.368 L 544.091, 435.197 z "/>
<path style="fill:rgb(0, 0, 255);fill-opacity:0;fill-rule:evenodd;stroke:rgb(134, 0, 255);stroke-width:1;" d="M 903.232, 530.691 L 914.555, 515.027 L 923.803, 502.571 L 955.508, 515.782 L 942.109, 533.9 L 934.937, 543.902 L 903.232, 530.691 z "/>
<path style="fill:rgb(255, 255, 0);fill-opacity:0;fill-rule:evenodd;stroke:rgb(134, 0, 255);stroke-width:1;" d="M 778.108, 534.654 L 791.507, 516.159 L 798.301, 506.535 L 830.196, 519.556 L 818.684, 535.409 L 810.002, 547.676 L 778.108, 534.654 z "/>
<path style="fill:rgb(255, 0, 0);fill-opacity:0;fill-rule:evenodd;stroke:rgb(134, 0, 255);stroke-width:1;" d="M 881.906, 581.269 L 903.987, 550.885 L 919.651, 557.49 L 921.916, 554.282 L 933.805, 559.188 L 909.46, 592.781 L 881.906, 581.269 z "/>
<path style="fill:rgb(0, 255, 0);fill-opacity:0;fill-rule:evenodd;stroke:rgb(134, 0, 255);stroke-width:1;" d="M 662.798, 319.698 L 691.106, 280.821 L 712.81, 289.88 L 684.501, 328.946 L 676.575, 325.548 L 680.349, 320.264 L 673.744, 317.433 L 669.781, 322.718 L 662.798, 319.698 z "/>
<path style="fill:rgb(0, 0, 255);fill-opacity:0;fill-rule:evenodd;stroke:rgb(134, 0, 255);stroke-width:1;" d="M 716.962, 184.572 L 725.265, 173.248 L 717.528, 167.587 L 799.623, 104.93 L 818.684, 112.857 L 814.154, 118.896 L 806.605, 118.707 L 800.189, 119.085 L 791.885, 120.594 L 783.581, 122.859 L 775.655, 125.879 L 767.917, 130.031 L 762.821, 133.994 L 757.915, 138.901 L 753.008, 144.374 L 749.988, 149.658 L 747.157, 155.697 L 745.648, 161.359 L 745.27, 167.021 L 745.459, 172.871 L 746.402, 179.288 L 740.741, 180.42 L 727.719, 174.758 L 726.586, 176.645 L 720.359, 185.893 L 716.962, 184.572 z "/>
<path style="fill:rgb(255, 255, 0);fill-opacity:0;fill-rule:evenodd;stroke:rgb(134, 0, 255);stroke-width:1;" d="M 650.72, 458.787 L 653.362, 455.202 L 659.967, 453.692 L 705.827, 473.13 L 707.714, 478.415 L 705.449, 481.623 L 693.371, 483.888 L 654.494, 467.469 L 650.72, 458.787 z "/>
<path style="fill:rgb(255, 0, 0);fill-opacity:0;fill-rule:evenodd;stroke:rgb(134, 0, 255);stroke-width:1;" d="M 686.388, 330.267 L 718.094, 286.671 L 731.305, 292.144 L 700.731, 334.23 L 699.599, 335.928 L 686.388, 330.267 z "/>
<path style="fill:rgb(0, 255, 0);fill-opacity:0;fill-rule:evenodd;stroke:rgb(134, 0, 255);stroke-width:1;" d="M 886.813, 531.824 L 891.531, 525.407 L 888.511, 524.086 L 907.761, 497.665 L 920.594, 502.949 L 922.67, 500.118 L 936.825, 506.157 L 953.999, 513.14 L 959.66, 515.593 L 956.829, 519.556 L 947.393, 532.767 L 945.506, 535.221 L 942.109, 533.9 L 955.508, 515.782 L 923.803, 502.571 L 914.555, 515.027 L 911.724, 513.895 L 896.06, 535.598 L 894.173, 534.843 L 886.813, 531.824 z "/>
<path style="fill:rgb(0, 0, 255);fill-opacity:0;fill-rule:evenodd;stroke:rgb(134, 0, 255);stroke-width:1;" d="M 773.579, 534.654 L 776.787, 530.314 L 786.223, 517.103 L 787.922, 514.65 L 791.507, 516.159 L 778.108, 534.654 L 810.002, 547.676 L 818.684, 535.409 L 822.081, 536.73 L 837.556, 515.216 L 839.443, 515.971 L 846.803, 518.99 L 841.897, 525.596 L 844.539, 526.539 L 825.666, 552.961 L 812.267, 547.488 L 810.569, 549.941 L 796.226, 543.902 L 779.052, 536.919 L 773.579, 534.654 z "/>
<path style="fill:rgb(255, 255, 0);fill-opacity:0;fill-rule:evenodd;stroke:rgb(134, 0, 255);stroke-width:1;" d="M 787.167, 514.272 L 801.51, 494.268 L 840.764, 510.498 L 837.556, 515.216 L 822.081, 536.73 L 818.684, 535.409 L 830.196, 519.556 L 798.301, 506.535 L 791.507, 516.159 L 787.922, 514.65 L 787.167, 514.272 z "/>
<path style="fill:rgb(255, 0, 0);fill-opacity:0;fill-rule:evenodd;stroke:rgb(134, 0, 255);stroke-width:1;" d="M 892.852, 539.75 L 896.06, 535.598 L 911.724, 513.895 L 914.555, 515.027 L 903.232, 530.691 L 934.937, 543.902 L 942.109, 533.9 L 945.506, 535.221 L 947.016, 535.975 L 932.107, 556.169 L 892.852, 539.75 z "/>
<path style="fill:rgb(0, 255, 0);fill-opacity:0;fill-rule:evenodd;stroke:rgb(134, 0, 255);stroke-width:1;" d="M 606.747, 418.401 L 614.485, 407.832 L 624.676, 405.567 L 638.264, 411.418 L 640.717, 418.401 L 633.168, 428.969 L 623.166, 431.045 L 609.578, 425.383 L 606.747, 418.401 z "/>
<path style="fill:rgb(0, 0, 255);fill-opacity:0;fill-rule:evenodd;stroke:rgb(134, 0, 255);stroke-width:1;" d="M 591.46, 454.636 L 607.69, 451.427 L 608.823, 449.729 L 618.07, 447.841 L 630.526, 453.503 L 633.357, 460.109 L 631.658, 462.184 L 636.565, 473.885 L 591.46, 454.636 z "/>
<path style="fill:rgb(255, 255, 0);fill-opacity:0;fill-rule:evenodd;stroke:rgb(134, 0, 255);stroke-width:1;" d="M 933.239, 63.5999 L 939.656, 53.2201 L 978.155, 69.6391 L 970.984, 79.6414 L 933.239, 63.5999 z "/>
<path style="fill:rgb(255, 0, 0);fill-opacity:0;fill-rule:evenodd;stroke:rgb(134, 0, 255);stroke-width:1;" d="M 783.581, 217.032 L 789.62, 208.917 L 836.046, 228.922 L 830.385, 236.66 L 783.581, 217.032 z "/>
<path style="fill:rgb(0, 255, 0);fill-opacity:0;fill-rule:evenodd;stroke:rgb(134, 0, 255);stroke-width:1;" d="M 202.689, 316.678 L 209.672, 307.242 L 236.282, 318.566 L 228.922, 328.002 L 202.689, 316.678 z "/>
<path style="fill:rgb(0, 0, 255);fill-opacity:0;fill-rule:evenodd;stroke:rgb(134, 0, 255);stroke-width:1;" d="M 233.074, 692.239 L 243.076, 678.651 L 258.929, 685.256 L 249.115, 699.033 L 233.074, 692.239 z "/>
<path style="fill:rgb(255, 255, 0);fill-opacity:0;fill-rule:evenodd;stroke:rgb(134, 0, 255);stroke-width:1;" d="M 794.338, 546.544 L 796.226, 543.902 L 810.569, 549.941 L 812.267, 547.488 L 825.666, 552.961 L 844.539, 526.539 L 847.558, 527.86 L 843.029, 534.088 L 829.252, 553.527 L 825.1, 559.188 L 809.436, 552.772 L 794.338, 546.544 z "/>
<path style="fill:rgb(255, 0, 0);fill-opacity:0;fill-rule:evenodd;stroke:rgb(134, 0, 255);stroke-width:1;" d="M 885.303, 522.765 L 889.833, 516.537 L 903.987, 497.287 L 908.327, 491.248 L 923.425, 497.665 L 938.335, 503.892 L 936.825, 506.157 L 922.67, 500.118 L 920.594, 502.949 L 907.761, 497.665 L 888.511, 524.086 L 885.303, 522.765 z "/>
<path style="fill:rgb(0, 255, 0);fill-opacity:0;fill-rule:evenodd;stroke:rgb(134, 0, 255);stroke-width:1;" d="M 717.716, 189.479 L 720.359, 185.893 L 726.586, 176.645 L 740.363, 182.307 L 731.305, 195.14 L 717.716, 189.479 z "/>
<path style="fill:rgb(0, 0, 255);fill-opacity:0;fill-rule:evenodd;stroke:rgb(134, 0, 255);stroke-width:1;" d="M 869.45, 144.374 L 874.923, 136.447 L 896.438, 145.695 L 891.154, 153.621 L 869.45, 144.374 z "/>
<path style="fill:rgb(255, 255, 0);fill-opacity:0;fill-rule:evenodd;stroke:rgb(134, 0, 255);stroke-width:1;" d="M 889.644, 540.882 L 894.173, 534.843 L 896.06, 535.598 L 892.852, 539.75 L 932.107, 556.169 L 947.016, 535.975 L 945.506, 535.221 L 947.393, 532.767 L 951.734, 534.654 L 938.712, 552.772 L 933.805, 559.188 L 921.916, 554.282 L 901.533, 545.789 L 889.644, 540.882 z "/>
<path style="fill:rgb(255, 0, 0);fill-opacity:0;fill-rule:evenodd;stroke:rgb(134, 0, 255);stroke-width:1;" d="M 782.449, 515.593 L 795.471, 497.287 L 799.811, 491.248 L 812.078, 496.343 L 832.649, 504.836 L 844.161, 509.554 L 839.443, 515.971 L 837.556, 515.216 L 840.764, 510.498 L 801.51, 494.268 L 787.167, 514.272 L 787.922, 514.65 L 786.223, 517.103 L 782.449, 515.593 z "/>
<path style="fill:rgb(0, 255, 0);fill-opacity:0;fill-rule:evenodd;stroke:rgb(134, 0, 255);stroke-width:1;" d="M 769.615, 527.483 L 792.074, 495.966 L 795.471, 497.287 L 782.449, 515.593 L 786.223, 517.103 L 776.787, 530.314 L 769.615, 527.483 z "/>
<path style="fill:rgb(0, 0, 255);fill-opacity:0;fill-rule:evenodd;stroke:rgb(134, 0, 255);stroke-width:1;" d="M 938.712, 552.772 L 951.734, 534.654 L 947.393, 532.767 L 956.829, 519.556 L 964.378, 522.576 L 941.543, 553.904 L 938.712, 552.772 z "/>
<path style="fill:rgb(255, 255, 0);fill-opacity:0;fill-rule:evenodd;stroke:rgb(134, 0, 255);stroke-width:1;" d="M 923.425, 497.665 L 925.124, 495.211 L 957.207, 508.799 L 953.999, 513.14 L 936.825, 506.157 L 938.335, 503.892 L 923.425, 497.665 z "/>
<path style="fill:rgb(255, 0, 0);fill-opacity:0;fill-rule:evenodd;stroke:rgb(134, 0, 255);stroke-width:1;" d="M 775.655, 541.637 L 779.052, 536.919 L 796.226, 543.902 L 794.338, 546.544 L 809.436, 552.772 L 807.926, 554.848 L 775.655, 541.637 z "/>
<path style="fill:rgb(0, 255, 0);fill-opacity:0;fill-rule:evenodd;stroke:rgb(134, 0, 255);stroke-width:1;" d="M 899.269, 548.809 L 901.533, 545.789 L 921.916, 554.282 L 919.651, 557.49 L 903.987, 550.885 L 899.269, 548.809 z "/>
<path style="fill:rgb(0, 0, 255);fill-opacity:0;fill-rule:evenodd;stroke:rgb(134, 0, 255);stroke-width:1;" d="M 812.078, 496.343 L 814.343, 493.135 L 834.914, 501.628 L 832.649, 504.836 L 812.078, 496.343 z "/>
<path style="fill:rgb(255, 255, 0);fill-opacity:0;fill-rule:evenodd;stroke:rgb(134, 0, 255);stroke-width:1;" d="M 829.252, 553.527 L 843.029, 534.088 L 846.237, 535.409 L 836.612, 548.809 L 832.272, 554.848 L 829.252, 553.527 z "/>
<path style="fill:rgb(255, 0, 0);fill-opacity:0;fill-rule:evenodd;stroke:rgb(134, 0, 255);stroke-width:1;" d="M 886.813, 515.405 L 894.928, 503.892 L 900.967, 495.966 L 903.987, 497.287 L 889.833, 516.537 L 886.813, 515.405 z "/>
<path style="fill:rgb(0, 255, 0);fill-opacity:0;fill-rule:evenodd;stroke:rgb(134, 0, 255);stroke-width:1;" d="M 888.323, 378.014 L 890.399, 374.994 L 892.663, 371.786 L 910.592, 346.686 L 967.209, 369.71 L 980.986, 350.271 L 1064.59, 384.242 L 1042.51, 415.381 L 987.214, 392.734 L 973.06, 412.55 L 888.323, 378.014 z "/>
<path style="fill:rgb(0, 0, 255);fill-opacity:0;fill-rule:evenodd;stroke:rgb(134, 0, 255);stroke-width:1;" d="M 852.465, 245.907 L 918.896, 154.942 L 1161.97, 257.042 L 1159.14, 260.816 L 1165.75, 263.647 L 1167.26, 264.591 L 1110.07, 343.477 L 1098.37, 338.759 L 1092.71, 346.874 L 852.465, 245.907 z "/>
</svg>