<?xml version="1.0" encoding="iso-8859-1" standalone="no"?>
<!DOCTYPE svg PUBLIC "-//W3C//DTD SVG 1.0//EN" "http://www.w3.org/TR/2001/REC-SVG-20010904/DTD/svg10.dtd">
<svg xmlns="http://www.w3.org/2000/svg" width="1029" height="800">
<path style="fill:rgb(255, 0, 0);fill-opacity:0;fill-rule:evenodd;stroke:rgb(0, 255, 202);stroke-width:1;" d="M 549.594, 189.515 L 556.438, 180.39 L 560.825, 174.424 L 594.692, 127.396 L 601.184, 118.096 L 601.711, 117.57 L 609.783, 106.339 L 624.523, 113.007 L 636.982, 118.272 L 721.913, 155.473 L 727.879, 158.105 L 731.038, 159.509 L 734.547, 161.79 L 737.53, 164.422 L 739.811, 167.405 L 741.215, 170.564 L 741.917, 174.073 L 741.566, 177.407 L 740.513, 180.741 L 738.583, 183.9 L 736.126, 187.234 L 731.739, 193.376 L 762.974, 206.887 L 765.782, 208.642 L 768.765, 210.923 L 770.695, 213.205 L 771.573, 215.135 L 772.45, 217.943 L 772.801, 220.575 L 772.626, 222.856 L 772.099, 225.488 L 771.046, 227.243 L 768.765, 230.752 L 766.659, 232.507 L 764.203, 234.437 L 759.289, 236.543 L 757.008, 237.245 L 752.446, 237.947 L 749.463, 237.947 L 746.655, 237.596 L 743.496, 236.894 L 739.109, 234.964 L 706.822, 221.101 L 704.54, 224.435 L 710.331, 226.541 L 713.314, 228.471 L 714.894, 230.577 L 715.245, 232.507 L 714.894, 234.262 L 714.016, 236.192 L 712.963, 237.245 L 710.156, 238.824 L 707.348, 239.526 L 705.593, 239.526 L 703.839, 239.351 L 701.733, 238.824 L 693.485, 235.139 L 692.608, 236.192 L 688.221, 241.983 L 684.185, 247.247 L 672.077, 241.983 L 664.181, 238.649 L 615.574, 217.943 L 568.37, 197.763 L 563.983, 195.832 L 549.594, 189.515 z "/>
<path style="fill:rgb(0, 255, 0);fill-opacity:0;fill-rule:evenodd;stroke:rgb(0, 255, 202);stroke-width:1;" d="M 665.936, 658.215 L 686.291, 630.314 L 688.221, 629.612 L 693.661, 632.068 L 702.961, 619.434 L 696.995, 616.977 L 696.819, 615.574 L 717.35, 587.322 L 719.105, 586.971 L 771.046, 609.081 L 800.526, 621.54 L 817.548, 628.734 L 841.062, 638.737 L 841.588, 639.263 L 841.588, 640.14 L 825.62, 661.9 L 824.742, 662.426 L 823.865, 662.426 L 820.18, 660.847 L 801.404, 686.817 L 804.738, 688.221 L 805.264, 689.8 L 804.913, 690.678 L 790.524, 710.331 L 789.471, 711.033 L 788.243, 711.209 L 764.554, 701.031 L 747.181, 693.836 L 718.403, 681.553 L 666.111, 659.443 L 665.936, 658.215 z "/>
<path style="fill:rgb(0, 0, 255);fill-opacity:0;fill-rule:evenodd;stroke:rgb(0, 255, 202);stroke-width:1;" d="M 730.687, 125.115 L 732.792, 122.132 L 735.073, 119.149 L 739.285, 113.358 L 754.727, 92.1255 L 760.869, 83.878 L 816.846, 107.392 L 825.795, 95.2841 L 842.641, 72.2966 L 847.028, 66.1549 L 899.145, 88.265 L 914.937, 94.9331 L 907.216, 105.637 L 863.874, 164.422 L 855.626, 175.653 L 854.573, 177.232 L 830.533, 167.23 L 797.192, 153.191 L 786.664, 148.629 L 770.695, 141.961 L 744.725, 131.081 L 730.687, 125.115 z "/>
<path style="fill:rgb(255, 255, 0);fill-opacity:0;fill-rule:evenodd;stroke:rgb(0, 255, 202);stroke-width:1;" d="M 665.936, 658.215 L 686.291, 630.314 L 688.221, 629.612 L 693.661, 632.068 L 702.961, 619.434 L 696.995, 616.977 L 696.819, 615.574 L 717.35, 587.322 L 719.105, 586.971 L 771.046, 609.081 L 800.526, 621.54 L 817.548, 628.734 L 841.062, 638.737 L 841.588, 639.263 L 841.588, 640.14 L 825.62, 661.9 L 824.742, 662.426 L 823.865, 662.426 L 820.18, 660.847 L 800.526, 651.897 L 783.505, 644.527 L 754.025, 632.068 L 739.109, 625.576 L 719.281, 652.073 L 735.424, 659.092 L 764.027, 671.375 L 781.224, 678.745 L 801.404, 686.817 L 804.738, 688.221 L 805.264, 689.8 L 804.913, 690.678 L 790.524, 710.331 L 789.471, 711.033 L 788.243, 711.209 L 764.554, 701.031 L 747.181, 693.836 L 718.403, 681.553 L 666.111, 659.443 L 665.936, 658.215 z "/>
<path style="fill:rgb(255, 0, 0);fill-opacity:0;fill-rule:evenodd;stroke:rgb(0, 255, 202);stroke-width:1;" d="M 40.3597, 711.384 L 61.066, 682.781 L 62.2944, 683.308 L 62.8208, 682.606 L 63.1717, 682.606 L 270.059, 769.642 L 269.357, 770.52 L 270.235, 770.871 L 249.353, 799.474 L 248.826, 799.298 L 248.3, 800 L 40.5352, 712.788 L 41.2371, 711.735 L 40.3597, 711.384 z "/>
<path style="fill:rgb(0, 255, 0);fill-opacity:0;fill-rule:evenodd;stroke:rgb(0, 255, 202);stroke-width:1;" d="M 786.664, 148.629 L 797.192, 134.24 L 811.055, 115.288 L 816.846, 107.392 L 825.795, 95.2841 L 842.641, 72.2966 L 847.028, 66.1549 L 899.145, 88.265 L 914.937, 94.9331 L 907.216, 105.637 L 863.874, 164.422 L 854.573, 177.232 L 830.533, 167.23 L 797.192, 153.191 L 786.664, 148.629 z "/>
<path style="fill:rgb(0, 0, 255);fill-opacity:0;fill-rule:evenodd;stroke:rgb(0, 255, 202);stroke-width:1;" d="M 665.936, 658.215 L 686.291, 630.314 L 688.221, 629.612 L 693.661, 632.068 L 702.961, 619.434 L 696.995, 616.977 L 696.819, 615.574 L 717.35, 587.322 L 719.105, 586.971 L 771.046, 609.081 L 800.526, 621.54 L 817.548, 628.734 L 800.526, 651.897 L 783.505, 644.527 L 754.025, 632.068 L 739.109, 625.576 L 719.281, 652.073 L 735.424, 659.092 L 764.027, 671.375 L 781.224, 678.745 L 764.554, 701.031 L 747.181, 693.836 L 718.403, 681.553 L 666.111, 659.443 L 665.936, 658.215 z "/>
<path style="fill:rgb(255, 255, 0);fill-opacity:0;fill-rule:evenodd;stroke:rgb(0, 255, 202);stroke-width:1;" d="M 801.755, 362.536 L 815.442, 341.478 L 842.641, 353.411 L 919.5, 387.98 L 883.001, 437.991 L 868.436, 458.171 L 841.413, 446.94 L 801.755, 362.536 z "/>
<path style="fill:rgb(255, 0, 0);fill-opacity:0;fill-rule:evenodd;stroke:rgb(0, 255, 202);stroke-width:1;" d="M 114.762, 590.48 L 151.612, 540.294 L 149.331, 539.241 L 147.576, 541.522 L 127.045, 532.924 L 148.98, 503.268 L 176.881, 515.025 L 175.126, 517.657 L 201.623, 528.888 L 203.553, 526.256 L 231.103, 538.013 L 228.647, 541.347 L 260.759, 555.034 L 237.245, 587.146 L 233.735, 591.709 L 173.722, 566.089 L 164.247, 578.899 L 160.737, 577.32 L 143.365, 601.009 L 146.874, 602.588 L 145.997, 603.817 L 114.762, 590.48 z "/>
<path style="fill:rgb(0, 255, 0);fill-opacity:0;fill-rule:evenodd;stroke:rgb(0, 255, 202);stroke-width:1;" d="M 665.936, 658.215 L 686.291, 630.314 L 688.221, 629.612 L 693.661, 632.068 L 702.961, 619.434 L 696.995, 616.977 L 696.819, 615.574 L 717.35, 587.322 L 719.105, 586.971 L 771.046, 609.081 L 800.526, 621.54 L 783.505, 644.527 L 754.025, 632.068 L 739.109, 625.576 L 719.281, 652.073 L 735.424, 659.092 L 764.027, 671.375 L 747.181, 693.836 L 718.403, 681.553 L 666.111, 659.443 L 665.936, 658.215 z "/>
<path style="fill:rgb(0, 0, 255);fill-opacity:0;fill-rule:evenodd;stroke:rgb(0, 255, 202);stroke-width:1;" d="M 459.75, 523.097 L 482.211, 492.213 L 489.581, 482.036 L 543.277, 504.848 L 600.307, 528.712 L 577.495, 559.947 L 576.091, 559.421 L 536.082, 542.575 L 529.941, 550.998 L 511.34, 543.102 L 509.761, 545.032 L 500.636, 541.171 L 500.987, 540.469 L 459.75, 523.097 z "/>
<path style="fill:rgb(255, 255, 0);fill-opacity:0;fill-rule:evenodd;stroke:rgb(0, 255, 202);stroke-width:1;" d="M 588.199, 140.908 L 588.726, 138.978 L 589.954, 137.223 L 591.884, 135.819 L 593.99, 134.766 L 596.622, 134.415 L 599.254, 134.591 L 601.711, 135.293 L 604.343, 131.608 L 607.502, 127.747 L 604.694, 125.993 L 604.343, 125.642 L 603.466, 124.062 L 603.466, 122.308 L 604.343, 120.904 L 606.098, 119.675 L 608.204, 119.149 L 618.908, 116.868 L 621.013, 117.043 L 623.119, 117.921 L 624.347, 119.324 L 624.874, 121.079 L 624.698, 122.132 L 623.119, 124.589 L 628.383, 126.694 L 629.612, 124.589 L 631.367, 123.536 L 633.472, 123.009 L 635.753, 123.185 L 637.684, 124.062 L 639.088, 125.466 L 639.438, 127.045 L 638.912, 128.8 L 637.508, 130.73 L 643.123, 133.187 L 644.703, 130.73 L 646.458, 129.678 L 648.563, 129.151 L 650.844, 129.327 L 652.775, 130.204 L 654.179, 131.608 L 654.53, 133.187 L 654.003, 134.942 L 652.424, 137.048 L 657.864, 139.329 L 659.443, 136.872 L 661.198, 135.819 L 663.303, 135.293 L 665.585, 135.468 L 667.515, 136.346 L 668.743, 137.75 L 669.27, 139.329 L 668.743, 141.084 L 666.988, 143.365 L 672.955, 145.646 L 675.06, 143.189 L 676.464, 142.312 L 678.219, 141.961 L 679.974, 142.136 L 681.553, 142.838 L 687.168, 145.12 L 688.748, 145.821 L 689.8, 146.874 L 690.151, 148.278 L 689.8, 149.682 L 685.764, 155.473 L 691.555, 157.929 L 693.134, 158.631 L 694.187, 159.86 L 694.538, 161.088 L 694.187, 162.492 L 693.134, 163.545 L 691.555, 164.247 L 689.8, 164.422 L 688.046, 163.896 L 683.834, 169.511 L 689.274, 171.617 L 689.449, 173.196 L 692.257, 172.845 L 698.223, 175.477 L 699.978, 176.179 L 700.855, 177.407 L 701.382, 178.636 L 700.855, 180.039 L 699.803, 181.092 L 698.223, 181.794 L 696.469, 181.97 L 694.714, 181.443 L 690.678, 187.234 L 682.079, 198.991 L 688.046, 201.097 L 689.625, 201.799 L 690.678, 203.027 L 691.029, 204.255 L 690.678, 205.659 L 689.625, 206.887 L 688.046, 207.414 L 686.291, 207.589 L 684.536, 207.238 L 669.621, 210.222 L 666.813, 214.258 L 666.111, 214.959 L 665.409, 215.486 L 663.479, 216.363 L 661.373, 216.539 L 659.092, 216.012 L 657.513, 214.784 L 656.635, 213.38 L 656.635, 211.625 L 657.513, 210.046 L 664.181, 200.746 L 658.215, 198.289 L 657.337, 199.342 L 656.109, 200.746 L 654.003, 201.623 L 651.897, 201.799 L 649.616, 201.272 L 648.037, 200.044 L 647.159, 198.465 L 647.159, 196.71 L 648.037, 195.306 L 652.95, 188.638 L 646.809, 186.006 L 645.756, 187.234 L 644.352, 188.638 L 642.422, 189.515 L 640.316, 189.691 L 638.035, 189.164 L 636.455, 187.936 L 635.578, 186.357 L 635.578, 184.777 L 636.455, 183.198 L 642.773, 173.898 L 637.508, 171.792 L 636.455, 173.196 L 635.052, 174.6 L 633.121, 175.477 L 630.84, 175.653 L 628.734, 175.126 L 626.98, 173.898 L 626.102, 172.318 L 626.102, 170.739 L 627.155, 169.16 L 632.244, 162.492 L 626.804, 160.211 L 625.576, 161.614 L 624.172, 163.018 L 622.242, 163.896 L 619.961, 164.071 L 617.855, 163.369 L 616.1, 162.316 L 615.223, 160.737 L 615.223, 158.982 L 616.275, 157.403 L 612.24, 155.824 L 604.694, 152.841 L 592.937, 147.401 L 591.007, 146.348 L 589.428, 144.769 L 588.375, 142.838 L 588.199, 140.908 z "/>
<path style="fill:rgb(255, 0, 0);fill-opacity:0;fill-rule:evenodd;stroke:rgb(0, 255, 202);stroke-width:1;" d="M 905.111, 333.582 L 916.341, 318.14 L 929.853, 299.539 L 961.79, 255.846 L 976.53, 261.987 L 964.773, 278.131 L 976.179, 283.045 L 978.285, 280.061 L 1017.59, 296.556 L 1018.64, 295.152 L 1024.26, 297.434 L 1021.98, 300.592 L 1029.17, 303.575 L 1014.43, 323.931 L 1006.71, 320.772 L 1005.31, 322.702 L 982.496, 313.227 L 978.285, 318.842 L 973.02, 316.561 L 949.156, 349.55 L 934.24, 350.077 L 914.411, 341.654 L 916.692, 338.495 L 905.111, 333.582 z "/>
<path style="fill:rgb(0, 255, 0);fill-opacity:0;fill-rule:evenodd;stroke:rgb(0, 255, 202);stroke-width:1;" d="M 143.365, 601.009 L 160.737, 577.32 L 164.247, 578.899 L 192.849, 590.831 L 198.991, 582.408 L 203.904, 584.514 L 206.712, 580.654 L 259.004, 602.764 L 249.879, 615.223 L 261.812, 620.311 L 260.759, 621.54 L 265.146, 623.47 L 257.074, 634.525 L 247.774, 647.159 L 243.738, 645.405 L 240.579, 649.792 L 160.737, 615.925 L 163.896, 611.713 L 160.386, 610.134 L 161.439, 608.555 L 146.874, 602.588 L 143.365, 601.009 z "/>
<path style="fill:rgb(0, 0, 255);fill-opacity:0;fill-rule:evenodd;stroke:rgb(0, 255, 202);stroke-width:1;" d="M 881.948, 472.033 L 942.487, 389.208 L 986.181, 407.809 L 967.405, 433.428 L 925.642, 490.634 L 881.948, 472.033 z "/>
<path style="fill:rgb(255, 255, 0);fill-opacity:0;fill-rule:evenodd;stroke:rgb(0, 255, 202);stroke-width:1;" d="M 801.755, 362.536 L 815.442, 341.478 L 842.641, 353.411 L 883.001, 437.991 L 868.436, 458.171 L 841.413, 446.94 L 801.755, 362.536 z "/>
<path style="fill:rgb(255, 0, 0);fill-opacity:0;fill-rule:evenodd;stroke:rgb(0, 255, 202);stroke-width:1;" d="M 665.936, 658.215 L 686.291, 630.314 L 688.221, 629.612 L 693.661, 632.068 L 702.961, 619.434 L 696.995, 616.977 L 696.819, 615.574 L 717.35, 587.322 L 719.105, 586.971 L 771.046, 609.081 L 754.025, 632.068 L 739.109, 625.576 L 719.281, 652.073 L 735.424, 659.092 L 718.403, 681.553 L 666.111, 659.443 L 665.936, 658.215 z "/>
<path style="fill:rgb(0, 255, 0);fill-opacity:0;fill-rule:evenodd;stroke:rgb(0, 255, 202);stroke-width:1;" d="M 379.557, 707.699 L 405.528, 672.428 L 409.739, 666.637 L 423.953, 672.779 L 428.34, 666.813 L 482.562, 689.8 L 450.625, 733.143 L 448.87, 734.547 L 446.589, 735.073 L 443.782, 734.898 L 379.557, 707.699 z "/>
<path style="fill:rgb(0, 0, 255);fill-opacity:0;fill-rule:evenodd;stroke:rgb(0, 255, 202);stroke-width:1;" d="M 860.189, 270.235 L 892.652, 225.664 L 962.316, 254.968 L 961.79, 255.846 L 929.853, 299.539 L 860.189, 270.235 z "/>
<path style="fill:rgb(255, 255, 0);fill-opacity:0;fill-rule:evenodd;stroke:rgb(0, 255, 202);stroke-width:1;" d="M 114.762, 590.48 L 151.612, 540.294 L 210.748, 565.212 L 216.188, 557.842 L 219.346, 559.245 L 228.471, 546.962 L 225.488, 545.734 L 228.647, 541.347 L 260.759, 555.034 L 237.245, 587.146 L 233.735, 591.709 L 173.722, 566.089 L 164.247, 578.899 L 160.737, 577.32 L 143.365, 601.009 L 146.874, 602.588 L 145.997, 603.817 L 114.762, 590.48 z "/>
<path style="fill:rgb(255, 0, 0);fill-opacity:0;fill-rule:evenodd;stroke:rgb(0, 255, 202);stroke-width:1;" d="M 371.485, 535.381 L 386.927, 514.148 L 399.386, 519.412 L 401.141, 516.955 L 486.598, 552.928 L 484.843, 555.385 L 498.179, 561 L 482.562, 582.408 L 470.279, 577.32 L 467.822, 580.829 L 417.46, 559.772 L 380.259, 543.979 L 383.066, 540.294 L 371.485, 535.381 z "/>
<path style="fill:rgb(0, 255, 0);fill-opacity:0;fill-rule:evenodd;stroke:rgb(0, 255, 202);stroke-width:1;" d="M 560.825, 174.424 L 594.692, 127.396 L 604.343, 131.608 L 601.711, 135.293 L 599.254, 134.591 L 596.622, 134.415 L 593.99, 134.766 L 591.884, 135.819 L 589.954, 137.223 L 588.726, 138.978 L 588.199, 140.908 L 588.375, 142.838 L 589.428, 144.769 L 591.007, 146.348 L 592.937, 147.401 L 604.694, 152.841 L 588.024, 175.126 L 585.392, 178.987 L 584.163, 183.374 L 584.514, 187.76 L 586.62, 191.796 L 589.603, 195.131 L 594.867, 198.114 L 599.43, 199.517 L 603.817, 200.044 L 608.028, 199.868 L 614.345, 198.465 L 619.961, 195.131 L 622.768, 192.147 L 628.032, 184.953 L 636.455, 173.196 L 637.508, 171.792 L 642.773, 173.898 L 636.455, 183.198 L 635.578, 184.777 L 635.578, 186.357 L 636.455, 187.936 L 638.035, 189.164 L 640.316, 189.691 L 642.422, 189.515 L 644.352, 188.638 L 645.756, 187.234 L 646.809, 186.006 L 652.95, 188.638 L 648.037, 195.306 L 647.159, 196.71 L 647.159, 198.465 L 648.037, 200.044 L 649.616, 201.272 L 651.897, 201.799 L 654.003, 201.623 L 656.109, 200.746 L 657.337, 199.342 L 658.215, 198.289 L 664.181, 200.746 L 657.513, 210.046 L 656.635, 211.625 L 656.635, 213.38 L 657.513, 214.784 L 659.092, 216.012 L 661.373, 216.539 L 663.479, 216.363 L 665.409, 215.486 L 666.111, 214.959 L 672.779, 217.767 L 668.041, 223.909 L 666.988, 225.313 L 666.988, 227.067 L 667.866, 228.647 L 669.621, 229.875 L 671.726, 230.401 L 674.007, 230.226 L 675.938, 229.349 L 677.342, 227.945 L 690.678, 233.911 L 665.585, 236.368 L 664.181, 238.649 L 615.574, 217.943 L 568.37, 197.763 L 570.125, 195.481 L 563.808, 175.477 L 560.825, 174.424 z "/>
<path style="fill:rgb(0, 0, 255);fill-opacity:0;fill-rule:evenodd;stroke:rgb(0, 255, 202);stroke-width:1;" d="M 417.46, 134.415 L 429.919, 117.57 L 432.376, 118.623 L 441.5, 105.813 L 439.044, 104.76 L 451.853, 87.2121 L 479.403, 98.9691 L 466.594, 116.517 L 477.473, 121.079 L 488.704, 105.813 L 520.816, 119.324 L 519.237, 121.606 L 518.008, 121.079 L 513.621, 126.87 L 512.919, 126.694 L 510.814, 129.678 L 515.025, 131.432 L 506.251, 140.206 L 505.199, 141.084 L 489.581, 134.415 L 487.3, 137.75 L 490.634, 139.329 L 486.422, 145.12 L 495.723, 149.156 L 493.091, 152.665 L 491.511, 151.963 L 483.966, 162.316 L 457.293, 151.086 L 457.293, 149.506 L 466.243, 137.048 L 465.19, 136.697 L 468.699, 131.783 L 459.574, 127.923 L 456.065, 132.836 L 454.837, 132.31 L 445.361, 145.12 L 444.483, 145.47 L 443.782, 145.47 L 417.46, 134.415 z "/>
<path style="fill:rgb(255, 255, 0);fill-opacity:0;fill-rule:evenodd;stroke:rgb(0, 255, 202);stroke-width:1;" d="M 220.399, 476.771 L 224.611, 471.156 L 224.26, 470.98 L 251.634, 433.428 L 247.072, 431.498 L 250.757, 426.409 L 260.759, 430.621 L 285.677, 396.929 L 313.753, 408.686 L 253.915, 490.809 L 220.399, 476.771 z "/>
<path style="fill:rgb(255, 0, 0);fill-opacity:0;fill-rule:evenodd;stroke:rgb(0, 255, 202);stroke-width:1;" d="M 127.045, 532.924 L 148.98, 503.268 L 176.881, 515.025 L 175.126, 517.657 L 201.623, 528.888 L 203.553, 526.256 L 231.103, 538.013 L 228.647, 541.347 L 225.488, 545.734 L 228.471, 546.962 L 219.346, 559.245 L 216.188, 557.842 L 210.748, 565.212 L 151.612, 540.294 L 149.331, 539.241 L 147.576, 541.522 L 127.045, 532.924 z "/>
<path style="fill:rgb(0, 255, 0);fill-opacity:0;fill-rule:evenodd;stroke:rgb(0, 255, 202);stroke-width:1;" d="M 94.0557, 134.24 L 99.671, 130.906 L 105.462, 127.923 L 108.62, 126.519 L 114.937, 124.062 L 118.096, 122.834 L 124.764, 120.904 L 131.432, 119.324 L 138.451, 118.096 L 145.47, 117.394 L 148.98, 117.043 L 156.175, 116.868 L 159.684, 116.868 L 166.879, 117.219 L 170.388, 117.57 L 177.407, 118.447 L 180.741, 119.149 L 187.585, 120.728 L 194.429, 122.483 L 197.587, 123.711 L 204.08, 125.993 L 207.063, 127.396 L 213.029, 130.379 L 209.871, 134.064 L 210.397, 134.24 L 195.131, 155.473 L 187.234, 151.437 L 186.532, 152.49 L 181.794, 150.208 L 176.705, 148.454 L 174.249, 147.752 L 171.617, 147.05 L 166.177, 145.997 L 160.737, 145.47 L 158.105, 145.295 L 152.49, 145.295 L 149.857, 145.47 L 144.418, 146.172 L 138.978, 147.225 L 133.889, 148.629 L 131.432, 149.506 L 125.115, 150.735 L 118.096, 147.927 L 113.007, 145.47 L 97.5653, 138.627 L 94.2312, 137.223 L 94.0557, 134.24 z "/>
<path style="fill:rgb(0, 0, 255);fill-opacity:0;fill-rule:evenodd;stroke:rgb(0, 255, 202);stroke-width:1;" d="M 719.281, 652.073 L 739.109, 625.576 L 754.025, 632.068 L 783.505, 644.527 L 800.526, 651.897 L 820.18, 660.847 L 801.404, 686.817 L 781.224, 678.745 L 764.027, 671.375 L 735.424, 659.092 L 719.281, 652.073 z "/>
<path style="fill:rgb(255, 255, 0);fill-opacity:0;fill-rule:evenodd;stroke:rgb(0, 255, 202);stroke-width:1;" d="M 356.745, 624.874 L 370.081, 606.624 L 375.17, 599.781 L 388.682, 605.571 L 389.91, 603.817 L 440.097, 625.225 L 438.868, 626.804 L 452.029, 632.419 L 446.94, 639.088 L 440.447, 648.037 L 433.779, 657.162 L 433.428, 657.513 L 411.845, 648.388 L 411.318, 649.265 L 381.136, 636.455 L 381.838, 635.578 L 356.745, 624.874 z "/>
<path style="fill:rgb(255, 0, 0);fill-opacity:0;fill-rule:evenodd;stroke:rgb(0, 255, 202);stroke-width:1;" d="M 127.045, 233.209 L 151.261, 200.746 L 206.537, 224.611 L 177.934, 262.689 L 159.86, 254.968 L 164.071, 249.528 L 153.718, 245.141 L 149.682, 250.581 L 130.73, 242.334 L 135.117, 236.719 L 127.045, 233.209 z "/>
<path style="fill:rgb(0, 255, 0);fill-opacity:0;fill-rule:evenodd;stroke:rgb(0, 255, 202);stroke-width:1;" d="M 38.9559, 330.423 L 41.7635, 326.563 L 55.2753, 307.962 L 69.138, 313.928 L 74.0513, 307.085 L 115.815, 324.808 L 110.902, 331.476 L 124.94, 337.442 L 108.445, 359.728 L 38.9559, 330.423 z "/>
<path style="fill:rgb(0, 0, 255);fill-opacity:0;fill-rule:evenodd;stroke:rgb(0, 255, 202);stroke-width:1;" d="M 283.22, 503.444 L 310.068, 466.594 L 358.5, 486.773 L 331.476, 523.624 L 323.755, 520.465 L 307.611, 513.621 L 285.677, 504.497 L 283.22, 503.444 z "/>
<path style="fill:rgb(255, 255, 0);fill-opacity:0;fill-rule:evenodd;stroke:rgb(0, 255, 202);stroke-width:1;" d="M 633.472, 123.009 L 636.982, 118.272 L 721.913, 155.473 L 716.297, 163.72 L 726.826, 183.198 L 736.126, 187.234 L 731.739, 193.376 L 729.107, 196.359 L 728.23, 197.236 L 729.283, 198.289 L 730.16, 199.342 L 730.862, 200.395 L 730.862, 201.623 L 730.687, 203.202 L 722.088, 214.959 L 720.86, 216.363 L 719.105, 217.416 L 717.35, 218.118 L 715.42, 218.293 L 713.841, 217.943 L 714.894, 216.714 L 715.245, 215.486 L 714.894, 214.082 L 713.841, 213.029 L 712.261, 212.327 L 707.173, 209.871 L 703.663, 209.871 L 703.137, 208.116 L 697.697, 205.835 L 702.084, 199.868 L 703.839, 200.395 L 705.593, 200.219 L 707.173, 199.517 L 708.225, 198.465 L 708.576, 197.061 L 708.225, 195.657 L 707.173, 194.604 L 699.627, 191.445 L 697.346, 191.621 L 696.644, 189.691 L 690.678, 187.234 L 694.714, 181.443 L 696.469, 181.97 L 698.223, 181.794 L 699.803, 181.092 L 700.855, 180.039 L 701.382, 178.636 L 700.855, 177.407 L 699.978, 176.179 L 698.223, 175.477 L 692.257, 172.845 L 689.449, 173.196 L 689.274, 171.617 L 683.834, 169.511 L 688.046, 163.896 L 689.8, 164.422 L 691.555, 164.247 L 693.134, 163.545 L 694.187, 162.492 L 694.538, 161.088 L 694.187, 159.86 L 693.134, 158.631 L 691.555, 157.929 L 685.764, 155.473 L 689.8, 149.682 L 690.151, 148.278 L 689.8, 146.874 L 688.748, 145.821 L 687.168, 145.12 L 681.553, 142.838 L 679.974, 142.136 L 678.219, 141.961 L 676.464, 142.312 L 675.06, 143.189 L 672.955, 145.646 L 666.988, 143.365 L 668.743, 141.084 L 669.27, 139.329 L 668.743, 137.75 L 667.515, 136.346 L 665.585, 135.468 L 663.303, 135.293 L 661.198, 135.819 L 659.443, 136.872 L 657.864, 139.329 L 652.424, 137.048 L 654.003, 134.942 L 654.53, 133.187 L 654.179, 131.608 L 652.775, 130.204 L 650.844, 129.327 L 648.563, 129.151 L 646.458, 129.678 L 644.703, 130.73 L 643.123, 133.187 L 637.508, 130.73 L 638.912, 128.8 L 639.438, 127.045 L 639.088, 125.466 L 637.684, 124.062 L 635.753, 123.185 L 633.472, 123.009 z "/>
<path style="fill:rgb(255, 0, 0);fill-opacity:0;fill-rule:evenodd;stroke:rgb(0, 255, 202);stroke-width:1;" d="M 214.784, 412.371 L 240.579, 377.276 L 286.028, 396.403 L 285.677, 396.929 L 260.759, 430.621 L 250.757, 426.409 L 247.072, 431.498 L 246.194, 432.726 L 221.277, 422.198 L 225.313, 416.758 L 214.784, 412.371 z "/>
<path style="fill:rgb(0, 255, 0);fill-opacity:0;fill-rule:evenodd;stroke:rgb(0, 255, 202);stroke-width:1;" d="M 480.105, 585.918 L 482.562, 582.408 L 498.179, 561 L 509.761, 545.032 L 511.34, 543.102 L 529.941, 550.998 L 528.361, 553.104 L 530.467, 553.981 L 515.201, 575.038 L 553.104, 591.007 L 554.332, 591.358 L 539.943, 611.187 L 509.234, 598.377 L 480.105, 585.918 z "/>
<path style="fill:rgb(0, 0, 255);fill-opacity:0;fill-rule:evenodd;stroke:rgb(0, 255, 202);stroke-width:1;" d="M 317.614, 92.1255 L 330.423, 74.2268 L 355.868, 84.7554 L 359.728, 79.3156 L 353.235, 76.6835 L 356.218, 72.6475 L 342.18, 66.8568 L 353.411, 51.2393 L 360.254, 54.2224 L 361.834, 51.9412 L 394.297, 65.453 L 386.576, 76.3325 L 383.944, 75.2797 L 366.572, 99.4955 L 369.204, 100.548 L 361.834, 110.551 L 317.614, 92.1255 z "/>
<path style="fill:rgb(255, 255, 0);fill-opacity:0;fill-rule:evenodd;stroke:rgb(0, 255, 202);stroke-width:1;" d="M 692.257, 54.9243 L 701.382, 42.6409 L 734.021, 56.5036 L 750.165, 63.3472 L 752.621, 64.4001 L 774.029, 73.5249 L 777.363, 74.7532 L 793.507, 81.5968 L 825.795, 95.2841 L 816.846, 107.392 L 760.869, 83.878 L 692.257, 54.9243 z "/>
<path style="fill:rgb(255, 0, 0);fill-opacity:0;fill-rule:evenodd;stroke:rgb(0, 255, 202);stroke-width:1;" d="M 831.059, 310.243 L 846.677, 288.835 L 916.341, 318.14 L 905.111, 333.582 L 900.724, 339.548 L 831.059, 310.243 z "/>
<path style="fill:rgb(0, 255, 0);fill-opacity:0;fill-rule:evenodd;stroke:rgb(0, 255, 202);stroke-width:1;" d="M 689.098, 107.216 L 715.946, 70.5418 L 743.145, 81.9478 L 740.162, 85.9838 L 754.727, 92.1255 L 739.285, 113.358 L 735.073, 119.149 L 732.792, 122.132 L 730.687, 125.115 L 689.098, 107.216 z "/>
<path style="fill:rgb(0, 0, 255);fill-opacity:0;fill-rule:evenodd;stroke:rgb(0, 255, 202);stroke-width:1;" d="M 518.71, 128.976 L 532.573, 115.288 L 533.801, 115.815 L 539.241, 108.094 L 535.205, 106.339 L 538.715, 101.25 L 544.681, 103.707 L 549.419, 97.0388 L 550.823, 97.5653 L 552.577, 95.2841 L 548.892, 93.7048 L 555.56, 84.58 L 586.971, 97.3898 L 557.491, 139.153 L 553.455, 137.399 L 549.068, 143.716 L 535.381, 138.1 L 536.784, 136.346 L 518.71, 128.976 z "/>
<path style="fill:rgb(255, 255, 0);fill-opacity:0;fill-rule:evenodd;stroke:rgb(0, 255, 202);stroke-width:1;" d="M 96.6879, 275.85 L 113.709, 253.389 L 115.639, 250.581 L 167.932, 273.042 L 160.562, 283.045 L 163.545, 284.448 L 152.314, 299.188 L 135.468, 291.994 L 132.836, 295.328 L 111.428, 286.028 L 113.534, 283.045 L 96.6879, 275.85 z "/>
<path style="fill:rgb(255, 0, 0);fill-opacity:0;fill-rule:evenodd;stroke:rgb(0, 255, 202);stroke-width:1;" d="M 257.074, 634.525 L 265.146, 623.47 L 260.759, 621.54 L 261.812, 620.311 L 270.937, 607.677 L 283.922, 613.117 L 298.311, 619.259 L 312.525, 625.225 L 290.59, 655.407 L 286.554, 653.652 L 279.009, 663.83 L 259.355, 655.582 L 270.586, 640.316 L 257.074, 634.525 z "/>
<path style="fill:rgb(0, 255, 0);fill-opacity:0;fill-rule:evenodd;stroke:rgb(0, 255, 202);stroke-width:1;" d="M 846.677, 288.835 L 860.189, 270.235 L 929.853, 299.539 L 916.341, 318.14 L 846.677, 288.835 z "/>
<path style="fill:rgb(0, 0, 255);fill-opacity:0;fill-rule:evenodd;stroke:rgb(0, 255, 202);stroke-width:1;" d="M 706.822, 221.101 L 708.576, 218.293 L 710.331, 218.644 L 712.261, 218.469 L 713.841, 217.943 L 715.42, 218.293 L 717.35, 218.118 L 719.105, 217.416 L 720.86, 216.363 L 722.088, 214.959 L 730.687, 203.202 L 730.862, 201.623 L 730.862, 200.395 L 730.16, 199.342 L 729.283, 198.289 L 728.23, 197.236 L 729.107, 196.359 L 731.739, 193.376 L 762.974, 206.887 L 765.782, 208.642 L 768.765, 210.923 L 770.695, 213.205 L 771.573, 215.135 L 772.45, 217.943 L 772.801, 220.575 L 772.626, 222.856 L 772.099, 225.488 L 771.046, 227.243 L 768.765, 230.752 L 766.659, 232.507 L 764.203, 234.437 L 759.289, 236.543 L 757.008, 237.245 L 752.446, 237.947 L 749.463, 237.947 L 746.655, 237.596 L 743.496, 236.894 L 739.109, 234.964 L 706.822, 221.101 z "/>
<path style="fill:rgb(255, 255, 0);fill-opacity:0;fill-rule:evenodd;stroke:rgb(0, 255, 202);stroke-width:1;" d="M 515.201, 575.038 L 530.467, 553.981 L 528.361, 553.104 L 529.941, 550.998 L 536.082, 542.575 L 576.091, 559.421 L 568.721, 569.423 L 553.104, 591.007 L 515.201, 575.038 z "/>
<path style="fill:rgb(255, 0, 0);fill-opacity:0;fill-rule:evenodd;stroke:rgb(0, 255, 202);stroke-width:1;" d="M 41.7635, 401.843 L 72.1211, 360.254 L 99.4955, 371.836 L 97.5653, 374.468 L 69.3134, 413.249 L 69.138, 413.424 L 41.7635, 401.843 z "/>
<path style="fill:rgb(0, 255, 0);fill-opacity:0;fill-rule:evenodd;stroke:rgb(0, 255, 202);stroke-width:1;" d="M 373.24, 468.875 L 387.278, 449.748 L 393.42, 452.38 L 397.631, 446.589 L 425.883, 458.346 L 421.671, 463.961 L 428.164, 466.594 L 414.126, 486.072 L 404.124, 481.86 L 398.859, 489.055 L 377.802, 480.105 L 382.891, 472.911 L 373.24, 468.875 z "/>
<path style="fill:rgb(0, 0, 255);fill-opacity:0;fill-rule:evenodd;stroke:rgb(0, 255, 202);stroke-width:1;" d="M 524.15, 731.739 L 553.806, 692.082 L 573.81, 700.68 L 568.897, 716.473 L 568.546, 716.473 L 561.878, 741.566 L 538.364, 737.881 L 524.15, 731.739 z "/>
<path style="fill:rgb(255, 255, 0);fill-opacity:0;fill-rule:evenodd;stroke:rgb(0, 255, 202);stroke-width:1;" d="M 739.285, 113.358 L 754.727, 92.1255 L 811.055, 115.288 L 797.192, 134.24 L 780.873, 127.396 L 783.505, 123.536 L 767.888, 117.043 L 766.659, 118.623 L 756.131, 114.236 L 752.621, 118.973 L 739.285, 113.358 z "/>
<path style="fill:rgb(255, 0, 0);fill-opacity:0;fill-rule:evenodd;stroke:rgb(0, 255, 202);stroke-width:1;" d="M 202.676, 246.019 L 210.222, 236.017 L 204.255, 233.385 L 211.801, 223.382 L 263.567, 245.668 L 248.476, 265.848 L 210.397, 249.353 L 202.676, 246.019 z "/>
<path style="fill:rgb(0, 255, 0);fill-opacity:0;fill-rule:evenodd;stroke:rgb(0, 255, 202);stroke-width:1;" d="M 181.97, 275.499 L 186.181, 269.884 L 190.042, 271.463 L 192.147, 268.831 L 185.128, 265.672 L 192.849, 255.144 L 202.852, 259.531 L 240.93, 276.025 L 225.488, 296.556 L 184.777, 279.009 L 186.181, 277.254 L 181.97, 275.499 z "/>
<path style="fill:rgb(0, 0, 255);fill-opacity:0;fill-rule:evenodd;stroke:rgb(0, 255, 202);stroke-width:1;" d="M 366.747, 218.995 L 379.381, 201.097 L 432.551, 222.856 L 420.268, 240.228 L 418.864, 239.702 L 418.337, 240.404 L 407.282, 235.841 L 407.458, 235.666 L 404.475, 234.437 L 404.299, 234.613 L 393.42, 230.226 L 393.595, 229.875 L 390.787, 228.822 L 390.612, 229.173 L 379.557, 224.611 L 379.732, 224.26 L 376.925, 223.031 L 376.749, 223.382 L 368.853, 220.224 L 369.028, 219.873 L 366.747, 218.995 z "/>
<path style="fill:rgb(255, 255, 0);fill-opacity:0;fill-rule:evenodd;stroke:rgb(0, 255, 202);stroke-width:1;" d="M 311.998, 453.082 L 318.666, 443.782 L 321.123, 443.255 L 331.125, 429.392 L 330.95, 427.813 L 337.969, 418.162 L 364.992, 429.568 L 341.478, 462.031 L 327.44, 456.065 L 325.51, 458.873 L 311.998, 453.082 z "/>
<path style="fill:rgb(255, 0, 0);fill-opacity:0;fill-rule:evenodd;stroke:rgb(0, 255, 202);stroke-width:1;" d="M 346.216, 529.941 L 373.064, 492.915 L 395.525, 502.391 L 386.927, 514.148 L 371.485, 535.381 L 368.677, 539.417 L 346.216, 529.941 z "/>
<path style="fill:rgb(0, 255, 0);fill-opacity:0;fill-rule:evenodd;stroke:rgb(0, 255, 202);stroke-width:1;" d="M 337.969, 466.769 L 341.478, 462.031 L 364.992, 429.568 L 387.278, 439.044 L 360.254, 476.245 L 337.969, 466.769 z "/>
<path style="fill:rgb(0, 0, 255);fill-opacity:0;fill-rule:evenodd;stroke:rgb(0, 255, 202);stroke-width:1;" d="M 712.261, 218.469 L 713.841, 217.943 L 715.42, 218.293 L 717.35, 218.118 L 719.105, 217.416 L 720.86, 216.363 L 722.088, 214.959 L 730.687, 203.202 L 730.862, 201.623 L 730.862, 200.395 L 730.16, 199.342 L 729.283, 198.289 L 728.23, 197.236 L 729.107, 196.359 L 758.938, 209.169 L 762.097, 210.923 L 764.203, 213.205 L 765.606, 215.837 L 766.133, 218.293 L 765.957, 221.979 L 765.08, 224.786 L 763.501, 226.716 L 760.693, 229.349 L 758.061, 230.752 L 755.078, 231.63 L 752.095, 232.156 L 747.883, 232.156 L 744.725, 231.805 L 741.215, 230.577 L 712.261, 218.469 z "/>
<path style="fill:rgb(255, 255, 0);fill-opacity:0;fill-rule:evenodd;stroke:rgb(0, 255, 202);stroke-width:1;" d="M 70.1908, 715.245 L 81.5968, 699.978 L 130.906, 721.211 L 119.5, 736.477 L 70.1908, 715.245 z "/>
<path style="fill:rgb(255, 0, 0);fill-opacity:0;fill-rule:evenodd;stroke:rgb(0, 255, 202);stroke-width:1;" d="M 176.705, 760.342 L 188.111, 745.076 L 237.42, 766.308 L 226.014, 781.575 L 176.705, 760.342 z "/>
<path style="fill:rgb(0, 255, 0);fill-opacity:0;fill-rule:evenodd;stroke:rgb(0, 255, 202);stroke-width:1;" d="M 130.555, 352.533 L 143.014, 335.512 L 185.128, 353.411 L 172.845, 370.257 L 130.555, 352.533 z "/>
<path style="fill:rgb(0, 0, 255);fill-opacity:0;fill-rule:evenodd;stroke:rgb(0, 255, 202);stroke-width:1;" d="M 593.639, 183.725 L 594.165, 181.443 L 595.745, 179.338 L 612.24, 155.824 L 616.275, 157.403 L 615.223, 158.982 L 615.223, 160.737 L 616.1, 162.316 L 617.855, 163.369 L 619.961, 164.071 L 622.242, 163.896 L 624.172, 163.018 L 625.576, 161.614 L 626.804, 160.211 L 632.244, 162.492 L 627.155, 169.16 L 626.102, 170.739 L 626.102, 172.318 L 626.98, 173.898 L 628.734, 175.126 L 630.84, 175.653 L 633.121, 175.477 L 635.052, 174.6 L 636.455, 173.196 L 637.508, 171.792 L 642.773, 173.898 L 636.455, 183.198 L 635.578, 184.777 L 635.578, 186.357 L 636.455, 187.936 L 638.035, 189.164 L 628.032, 184.953 L 619.434, 181.619 L 614.521, 188.638 L 613.117, 190.217 L 609.958, 191.972 L 606.449, 192.849 L 604.343, 192.849 L 601.886, 192.674 L 599.43, 191.796 L 596.447, 190.217 L 594.867, 188.462 L 593.814, 186.181 L 593.639, 183.725 z "/>
<path style="fill:rgb(255, 255, 0);fill-opacity:0;fill-rule:evenodd;stroke:rgb(0, 255, 202);stroke-width:1;" d="M 964.773, 278.131 L 976.53, 261.987 L 1027.24, 283.395 L 1018.64, 295.152 L 1017.59, 296.556 L 978.285, 280.061 L 976.179, 283.045 L 964.773, 278.131 z "/>
<path style="fill:rgb(255, 0, 0);fill-opacity:0;fill-rule:evenodd;stroke:rgb(0, 255, 202);stroke-width:1;" d="M 64.5756, 206.887 L 71.7701, 197.236 L 72.472, 196.359 L 76.3325, 197.938 L 80.3685, 192.323 L 81.2459, 191.27 L 78.4383, 190.217 L 84.58, 182.145 L 84.229, 180.566 L 90.3707, 172.318 L 111.603, 181.443 L 105.286, 189.866 L 103.181, 190.393 L 97.2143, 198.465 L 95.4595, 197.763 L 90.8971, 203.904 L 94.2312, 205.308 L 85.9838, 216.188 L 64.5756, 206.887 z "/>
<path style="fill:rgb(0, 255, 0);fill-opacity:0;fill-rule:evenodd;stroke:rgb(0, 255, 202);stroke-width:1;" d="M 666.111, 214.959 L 666.813, 214.258 L 669.621, 210.222 L 684.536, 207.238 L 686.291, 207.589 L 688.046, 207.414 L 689.625, 206.887 L 690.678, 205.659 L 691.029, 204.255 L 690.678, 203.027 L 689.625, 201.799 L 688.046, 201.097 L 682.079, 198.991 L 690.678, 187.234 L 696.644, 189.691 L 697.346, 191.621 L 699.627, 191.445 L 707.173, 194.604 L 708.225, 195.657 L 708.576, 197.061 L 708.225, 198.465 L 707.173, 199.517 L 705.593, 200.219 L 703.839, 200.395 L 702.084, 199.868 L 697.697, 205.835 L 693.836, 211.45 L 696.644, 219.522 L 698.399, 220.224 L 699.452, 221.277 L 699.803, 222.68 L 699.276, 224.084 L 698.223, 225.137 L 696.644, 225.839 L 694.889, 226.014 L 693.134, 225.488 L 681.553, 221.277 L 677.342, 227.945 L 675.938, 229.349 L 674.007, 230.226 L 671.726, 230.401 L 669.621, 229.875 L 667.866, 228.647 L 666.988, 227.067 L 666.988, 225.313 L 668.041, 223.909 L 672.779, 217.767 L 666.111, 214.959 z "/>
<path style="fill:rgb(0, 0, 255);fill-opacity:0;fill-rule:evenodd;stroke:rgb(0, 255, 202);stroke-width:1;" d="M 331.476, 523.624 L 358.5, 486.773 L 361.483, 482.562 L 371.836, 486.773 L 368.677, 491.16 L 373.064, 492.915 L 346.216, 529.941 L 331.476, 523.624 z "/>
<path style="fill:rgb(255, 255, 0);fill-opacity:0;fill-rule:evenodd;stroke:rgb(0, 255, 202);stroke-width:1;" d="M 467.822, 64.751 L 477.122, 51.4148 L 519.588, 68.787 L 516.429, 73.1739 L 518.535, 74.0513 L 517.833, 75.2797 L 515.727, 74.4023 L 510.638, 81.7723 L 493.266, 74.5778 L 492.915, 74.9287 L 488.879, 73.3494 L 488.528, 73.8758 L 485.721, 72.823 L 486.422, 71.7701 L 482.211, 70.0154 L 480.983, 70.0154 L 467.822, 64.751 z "/>
<path style="fill:rgb(255, 0, 0);fill-opacity:0;fill-rule:evenodd;stroke:rgb(0, 255, 202);stroke-width:1;" d="M 735.073, 119.149 L 739.285, 113.358 L 752.621, 118.973 L 756.131, 114.236 L 766.659, 118.623 L 767.888, 117.043 L 783.505, 123.536 L 780.873, 127.396 L 797.192, 134.24 L 786.664, 148.629 L 770.695, 141.961 L 772.801, 138.802 L 775.082, 135.819 L 776.837, 133.363 L 751.042, 122.483 L 749.287, 124.94 L 735.073, 119.149 z "/>
<path style="fill:rgb(0, 255, 0);fill-opacity:0;fill-rule:evenodd;stroke:rgb(0, 255, 202);stroke-width:1;" d="M 283.922, 613.117 L 287.081, 608.905 L 293.398, 600.307 L 294.801, 598.377 L 297.785, 598.026 L 307.787, 584.514 L 308.664, 583.286 L 307.962, 580.654 L 314.279, 572.055 L 314.63, 571.529 L 329.546, 577.846 L 323.053, 586.62 L 319.895, 586.971 L 309.015, 601.711 L 309.542, 603.992 L 298.311, 619.259 L 283.922, 613.117 z "/>
<path style="fill:rgb(0, 0, 255);fill-opacity:0;fill-rule:evenodd;stroke:rgb(0, 255, 202);stroke-width:1;" d="M 99.671, 372.011 L 108.445, 359.728 L 124.94, 337.442 L 130.204, 330.072 L 143.014, 335.512 L 130.555, 352.533 L 125.993, 358.675 L 123.536, 362.185 L 118.623, 369.028 L 112.305, 377.451 L 109.147, 376.047 L 103.005, 373.415 L 99.671, 372.011 z "/>
<path style="fill:rgb(255, 255, 0);fill-opacity:0;fill-rule:evenodd;stroke:rgb(0, 255, 202);stroke-width:1;" d="M 69.3134, 413.249 L 97.5653, 374.468 L 103.005, 373.415 L 109.147, 376.047 L 110.551, 379.908 L 106.164, 385.699 L 100.197, 394.122 L 94.2312, 402.193 L 88.265, 410.441 L 82.1233, 418.688 L 69.3134, 413.249 z "/>
<path style="fill:rgb(255, 0, 0);fill-opacity:0;fill-rule:evenodd;stroke:rgb(0, 255, 202);stroke-width:1;" d="M 447.818, 510.287 L 451.678, 503.268 L 454.486, 501.163 L 455.188, 498.179 L 458.697, 495.372 L 460.101, 491.862 L 464.488, 488.002 L 465.365, 486.773 L 463.961, 485.019 L 461.154, 483.79 L 468.699, 473.262 L 474.139, 475.718 L 489.581, 482.036 L 482.211, 492.213 L 478.526, 490.634 L 474.139, 496.6 L 472.033, 497.828 L 472.033, 499.934 L 469.752, 501.338 L 469.752, 502.917 L 467.646, 504.321 L 459.75, 515.201 L 447.818, 510.287 z "/>
<path style="fill:rgb(0, 255, 0);fill-opacity:0;fill-rule:evenodd;stroke:rgb(0, 255, 202);stroke-width:1;" d="M 584.163, 183.374 L 585.392, 178.987 L 588.024, 175.126 L 604.694, 152.841 L 612.24, 155.824 L 595.745, 179.338 L 594.165, 181.443 L 593.639, 183.725 L 593.814, 186.181 L 594.867, 188.462 L 596.447, 190.217 L 599.43, 191.796 L 601.886, 192.674 L 604.343, 192.849 L 606.449, 192.849 L 609.958, 191.972 L 613.117, 190.217 L 614.521, 188.638 L 619.434, 181.619 L 628.032, 184.953 L 622.768, 192.147 L 619.961, 195.131 L 614.345, 198.465 L 608.028, 199.868 L 603.817, 200.044 L 599.43, 199.517 L 594.867, 198.114 L 589.603, 195.131 L 586.62, 191.796 L 584.514, 187.76 L 584.163, 183.374 z "/>
<path style="fill:rgb(0, 0, 255);fill-opacity:0;fill-rule:evenodd;stroke:rgb(0, 255, 202);stroke-width:1;" d="M 427.111, 501.163 L 434.832, 490.458 L 435.183, 488.353 L 436.587, 487.651 L 437.464, 485.545 L 439.219, 483.966 L 440.097, 481.685 L 443.957, 476.069 L 440.623, 474.665 L 447.993, 464.488 L 454.31, 467.471 L 468.699, 473.262 L 461.154, 483.79 L 458.697, 482.737 L 455.538, 482.562 L 453.433, 488.002 L 449.748, 490.809 L 447.993, 494.845 L 444.834, 496.776 L 443.957, 500.285 L 438.868, 506.076 L 427.111, 501.163 z "/>
<path style="fill:rgb(255, 255, 0);fill-opacity:0;fill-rule:evenodd;stroke:rgb(0, 255, 202);stroke-width:1;" d="M 433.779, 657.162 L 440.447, 648.037 L 495.898, 671.551 L 489.23, 680.676 L 433.779, 657.162 z "/>
<path style="fill:rgb(255, 0, 0);fill-opacity:0;fill-rule:evenodd;stroke:rgb(0, 255, 202);stroke-width:1;" d="M 427.111, 666.286 L 433.428, 657.513 L 433.779, 657.162 L 489.23, 680.676 L 482.562, 689.8 L 428.34, 666.813 L 427.111, 666.286 z "/>
<path style="fill:rgb(0, 255, 0);fill-opacity:0;fill-rule:evenodd;stroke:rgb(0, 255, 202);stroke-width:1;" d="M 365.168, 702.961 L 365.519, 702.435 L 380.083, 682.781 L 392.016, 666.637 L 405.528, 672.428 L 379.557, 707.699 L 378.68, 708.752 L 365.168, 702.961 z "/>
<path style="fill:rgb(0, 0, 255);fill-opacity:0;fill-rule:evenodd;stroke:rgb(0, 255, 202);stroke-width:1;" d="M 440.447, 648.037 L 446.94, 639.088 L 476.771, 651.722 L 502.566, 662.777 L 495.898, 671.551 L 440.447, 648.037 z "/>
<path style="fill:rgb(255, 255, 0);fill-opacity:0;fill-rule:evenodd;stroke:rgb(0, 255, 202);stroke-width:1;" d="M 335.337, 629.787 L 347.094, 613.819 L 349.55, 613.117 L 352.358, 609.256 L 351.305, 607.853 L 355.517, 602.237 L 354.639, 599.956 L 361.132, 591.358 L 376.574, 597.85 L 375.17, 599.781 L 370.081, 606.624 L 368.151, 607.677 L 363.939, 613.292 L 360.605, 613.994 L 358.5, 616.977 L 359.728, 619.259 L 347.971, 635.227 L 335.337, 629.787 z "/>
<path style="fill:rgb(255, 0, 0);fill-opacity:0;fill-rule:evenodd;stroke:rgb(0, 255, 202);stroke-width:1;" d="M 318.842, 622.768 L 330.599, 606.8 L 333.933, 606.449 L 336.741, 602.588 L 335.161, 601.009 L 339.197, 595.394 L 338.671, 593.113 L 345.163, 584.514 L 361.132, 591.358 L 354.639, 599.956 L 351.832, 600.658 L 347.62, 606.273 L 344.812, 606.098 L 342.005, 609.958 L 343.409, 612.24 L 331.652, 628.208 L 318.842, 622.768 z "/>
<path style="fill:rgb(0, 255, 0);fill-opacity:0;fill-rule:evenodd;stroke:rgb(0, 255, 202);stroke-width:1;" d="M 303.049, 616.275 L 314.981, 600.132 L 316.561, 599.956 L 317.964, 600.483 L 321.299, 596.096 L 320.07, 595.569 L 319.368, 594.341 L 323.58, 588.55 L 323.053, 586.62 L 329.546, 577.846 L 345.163, 584.514 L 338.671, 593.113 L 335.688, 593.814 L 331.476, 599.43 L 329.546, 599.605 L 328.844, 599.254 L 325.685, 603.817 L 326.563, 604.168 L 327.265, 605.396 L 315.508, 621.54 L 303.049, 616.275 z "/>
<path style="fill:rgb(0, 0, 255);fill-opacity:0;fill-rule:evenodd;stroke:rgb(0, 255, 202);stroke-width:1;" d="M 677.342, 227.945 L 681.553, 221.277 L 693.134, 225.488 L 694.889, 226.014 L 696.644, 225.839 L 698.223, 225.137 L 699.276, 224.084 L 699.803, 222.68 L 699.452, 221.277 L 698.399, 220.224 L 696.644, 219.522 L 693.836, 211.45 L 697.697, 205.835 L 703.137, 208.116 L 703.663, 209.871 L 707.173, 209.871 L 712.261, 212.327 L 713.841, 213.029 L 714.894, 214.082 L 715.245, 215.486 L 714.894, 216.714 L 713.841, 217.943 L 712.261, 218.469 L 710.331, 218.644 L 708.576, 218.293 L 706.822, 221.101 L 704.54, 224.435 L 710.331, 226.541 L 713.314, 228.471 L 714.894, 230.577 L 715.245, 232.507 L 714.894, 234.262 L 714.016, 236.192 L 712.963, 237.245 L 710.156, 238.824 L 707.348, 239.526 L 705.593, 239.526 L 703.839, 239.351 L 701.733, 238.824 L 693.485, 235.139 L 690.678, 233.911 L 677.342, 227.945 z "/>
<path style="fill:rgb(255, 255, 0);fill-opacity:0;fill-rule:evenodd;stroke:rgb(0, 255, 202);stroke-width:1;" d="M 174.424, 285.501 L 178.636, 280.061 L 182.672, 281.816 L 184.777, 279.009 L 225.488, 296.556 L 227.243, 297.434 L 219.697, 307.611 L 193.376, 296.205 L 184.953, 292.696 L 177.056, 289.186 L 178.636, 287.256 L 174.424, 285.501 z "/>
<path style="fill:rgb(255, 0, 0);fill-opacity:0;fill-rule:evenodd;stroke:rgb(0, 255, 202);stroke-width:1;" d="M 754.727, 92.1255 L 760.869, 83.878 L 816.846, 107.392 L 811.055, 115.288 L 754.727, 92.1255 z "/>
<path style="fill:rgb(0, 255, 0);fill-opacity:0;fill-rule:evenodd;stroke:rgb(0, 255, 202);stroke-width:1;" d="M 261.636, 598.026 L 261.812, 597.675 L 267.953, 589.252 L 270.235, 588.726 L 272.867, 585.041 L 274.797, 585.918 L 279.184, 579.952 L 276.903, 578.899 L 282.694, 571.178 L 282.518, 569.423 L 288.66, 561.176 L 301.821, 566.791 L 274.797, 603.641 L 261.636, 598.026 z "/>
<path style="fill:rgb(0, 0, 255);fill-opacity:0;fill-rule:evenodd;stroke:rgb(0, 255, 202);stroke-width:1;" d="M 409.213, 492.915 L 414.126, 486.072 L 428.164, 466.594 L 433.955, 458.697 L 447.993, 464.488 L 440.623, 474.665 L 438.517, 475.016 L 430.445, 485.896 L 430.27, 488.002 L 422.724, 498.53 L 409.213, 492.915 z "/>
<path style="fill:rgb(255, 255, 0);fill-opacity:0;fill-rule:evenodd;stroke:rgb(0, 255, 202);stroke-width:1;" d="M 112.305, 228.998 L 119.324, 219.697 L 121.781, 219.346 L 124.589, 215.837 L 126.694, 216.714 L 130.379, 211.801 L 127.923, 210.923 L 133.187, 203.729 L 132.31, 202.15 L 138.978, 193.376 L 152.49, 199.166 L 151.261, 200.746 L 127.045, 233.209 L 125.817, 234.964 L 112.305, 228.998 z "/>
<path style="fill:rgb(255, 0, 0);fill-opacity:0;fill-rule:evenodd;stroke:rgb(0, 255, 202);stroke-width:1;" d="M 635.578, 186.357 L 635.578, 184.777 L 636.455, 183.198 L 642.773, 173.898 L 645.229, 170.564 L 644.176, 169.335 L 643.299, 167.756 L 643.123, 166.001 L 643.65, 164.247 L 644.703, 162.667 L 653.652, 150.384 L 655.231, 149.156 L 657.337, 148.454 L 659.618, 147.927 L 661.9, 148.103 L 664.005, 148.629 L 666.637, 150.384 L 668.041, 152.314 L 668.392, 153.893 L 668.041, 155.648 L 667.164, 157.227 L 658.39, 169.511 L 646.809, 186.006 L 645.756, 187.234 L 644.352, 188.638 L 642.422, 189.515 L 640.316, 189.691 L 638.035, 189.164 L 636.455, 187.936 L 635.578, 186.357 z "/>
<path style="fill:rgb(0, 255, 0);fill-opacity:0;fill-rule:evenodd;stroke:rgb(0, 255, 202);stroke-width:1;" d="M 46.6769, 472.384 L 51.0638, 466.594 L 54.0469, 462.382 L 54.3979, 461.856 L 94.7576, 478.877 L 87.2121, 489.23 L 85.6328, 488.704 L 46.6769, 472.384 z "/>
<path style="fill:rgb(0, 0, 255);fill-opacity:0;fill-rule:evenodd;stroke:rgb(0, 255, 202);stroke-width:1;" d="M 274.797, 603.641 L 301.821, 566.791 L 314.279, 572.055 L 307.962, 580.654 L 307.436, 581.18 L 305.155, 582.057 L 300.066, 588.901 L 298.487, 588.024 L 294.1, 594.165 L 295.679, 594.867 L 293.047, 598.377 L 293.398, 600.307 L 287.081, 608.905 L 274.797, 603.641 z "/>
<path style="fill:rgb(255, 255, 0);fill-opacity:0;fill-rule:evenodd;stroke:rgb(0, 255, 202);stroke-width:1;" d="M 98.9691, 223.382 L 105.988, 213.907 L 108.094, 213.38 L 110.726, 209.871 L 111.779, 210.222 L 114.937, 206.186 L 114.06, 205.835 L 119.851, 197.938 L 118.973, 196.183 L 125.466, 187.41 L 138.978, 193.376 L 132.31, 202.15 L 130.204, 202.325 L 124.94, 209.52 L 123.009, 208.642 L 119.324, 213.556 L 121.255, 214.433 L 118.623, 217.943 L 119.324, 219.697 L 112.305, 228.998 L 98.9691, 223.382 z "/>
<path style="fill:rgb(255, 0, 0);fill-opacity:0;fill-rule:evenodd;stroke:rgb(0, 255, 202);stroke-width:1;" d="M 461.154, 74.0513 L 467.822, 64.751 L 480.983, 70.0154 L 482.211, 70.0154 L 486.422, 71.7701 L 485.721, 72.823 L 488.528, 73.8758 L 488.879, 73.3494 L 492.915, 74.9287 L 493.266, 74.5778 L 510.638, 81.7723 L 512.393, 82.4742 L 505.374, 92.3009 L 461.154, 74.0513 z "/>
<path style="fill:rgb(0, 255, 0);fill-opacity:0;fill-rule:evenodd;stroke:rgb(0, 255, 202);stroke-width:1;" d="M 248.3, 591.884 L 254.442, 583.461 L 257.249, 583.11 L 259.882, 579.601 L 261.812, 580.478 L 266.199, 574.336 L 263.918, 573.459 L 269.533, 565.738 L 269.006, 563.632 L 275.148, 555.385 L 288.66, 561.176 L 282.518, 569.423 L 279.535, 569.95 L 273.92, 577.671 L 272.34, 576.969 L 267.778, 582.935 L 269.708, 583.812 L 267.076, 587.322 L 267.953, 589.252 L 261.812, 597.675 L 248.3, 591.884 z "/>
<path style="fill:rgb(0, 0, 255);fill-opacity:0;fill-rule:evenodd;stroke:rgb(0, 255, 202);stroke-width:1;" d="M 237.245, 587.146 L 260.759, 555.034 L 264.093, 550.647 L 275.148, 555.385 L 269.006, 563.632 L 254.442, 583.461 L 248.3, 591.884 L 237.245, 587.146 z "/>
<path style="fill:rgb(255, 255, 0);fill-opacity:0;fill-rule:evenodd;stroke:rgb(0, 255, 202);stroke-width:1;" d="M 282.694, 666.637 L 289.011, 658.215 L 291.643, 657.162 L 310.243, 631.893 L 322, 636.982 L 316.912, 643.825 L 316.561, 644.352 L 313.753, 644.703 L 308.664, 651.722 L 300.943, 662.25 L 302.172, 664.005 L 296.03, 672.428 L 282.694, 666.637 z "/>
<path style="fill:rgb(255, 0, 0);fill-opacity:0;fill-rule:evenodd;stroke:rgb(0, 255, 202);stroke-width:1;" d="M 202.852, 259.531 L 210.397, 249.353 L 248.476, 265.848 L 240.93, 276.025 L 202.852, 259.531 z "/>
<path style="fill:rgb(0, 255, 0);fill-opacity:0;fill-rule:evenodd;stroke:rgb(0, 255, 202);stroke-width:1;" d="M 455.188, 82.4742 L 461.154, 74.0513 L 505.374, 92.3009 L 499.408, 100.724 L 455.188, 82.4742 z "/>
<path style="fill:rgb(0, 0, 255);fill-opacity:0;fill-rule:evenodd;stroke:rgb(0, 255, 202);stroke-width:1;" d="M 112.305, 377.451 L 118.623, 369.028 L 160.737, 386.751 L 154.595, 395.174 L 127.572, 383.768 L 112.305, 377.451 z "/>
<path style="fill:rgb(255, 255, 0);fill-opacity:0;fill-rule:evenodd;stroke:rgb(0, 255, 202);stroke-width:1;" d="M 100.197, 394.122 L 106.164, 385.699 L 121.43, 392.191 L 148.454, 403.597 L 142.312, 412.02 L 100.197, 394.122 z "/>
<path style="fill:rgb(255, 0, 0);fill-opacity:0;fill-rule:evenodd;stroke:rgb(0, 255, 202);stroke-width:1;" d="M 503.619, 95.2841 L 510.287, 85.8083 L 512.218, 85.2819 L 515.025, 81.4214 L 514.674, 79.6666 L 517.833, 75.2797 L 518.535, 74.0513 L 521.693, 69.6644 L 535.907, 75.6306 L 517.833, 101.075 L 503.619, 95.2841 z "/>
<path style="fill:rgb(0, 255, 0);fill-opacity:0;fill-rule:evenodd;stroke:rgb(0, 255, 202);stroke-width:1;" d="M 88.265, 410.441 L 94.2312, 402.193 L 136.346, 419.917 L 130.379, 428.34 L 88.265, 410.441 z "/>
<path style="fill:rgb(0, 0, 255);fill-opacity:0;fill-rule:evenodd;stroke:rgb(0, 255, 202);stroke-width:1;" d="M 82.1233, 418.688 L 88.265, 410.441 L 130.379, 428.34 L 124.238, 436.587 L 82.1233, 418.688 z "/>
<path style="fill:rgb(255, 255, 0);fill-opacity:0;fill-rule:evenodd;stroke:rgb(0, 255, 202);stroke-width:1;" d="M 517.833, 101.075 L 535.907, 75.6306 L 549.77, 81.2459 L 532.748, 105.462 L 531.696, 106.69 L 517.833, 101.075 z "/>
<path style="fill:rgb(255, 0, 0);fill-opacity:0;fill-rule:evenodd;stroke:rgb(0, 255, 202);stroke-width:1;" d="M 118.623, 369.028 L 123.536, 362.185 L 126.87, 363.589 L 127.923, 362.185 L 138.627, 366.747 L 166.703, 378.504 L 160.737, 386.751 L 118.623, 369.028 z "/>
<path style="fill:rgb(0, 255, 0);fill-opacity:0;fill-rule:evenodd;stroke:rgb(0, 255, 202);stroke-width:1;" d="M 94.2312, 402.193 L 100.197, 394.122 L 142.312, 412.02 L 136.346, 419.917 L 94.2312, 402.193 z "/>
<path style="fill:rgb(0, 0, 255);fill-opacity:0;fill-rule:evenodd;stroke:rgb(0, 255, 202);stroke-width:1;" d="M 296.03, 672.428 L 302.172, 664.005 L 316.561, 644.352 L 316.912, 643.825 L 328.669, 648.914 L 307.611, 677.342 L 296.03, 672.428 z "/>
<path style="fill:rgb(255, 255, 0);fill-opacity:0;fill-rule:evenodd;stroke:rgb(0, 255, 202);stroke-width:1;" d="M 317.789, 682.255 L 318.14, 681.728 L 339.197, 653.301 L 350.428, 658.039 L 343.584, 667.339 L 329.02, 686.993 L 317.789, 682.255 z "/>
<path style="fill:rgb(255, 0, 0);fill-opacity:0;fill-rule:evenodd;stroke:rgb(0, 255, 202);stroke-width:1;" d="M 59.4867, 265.321 L 79.6666, 238.649 L 91.4236, 243.738 L 71.4192, 270.41 L 59.4867, 265.321 z "/>
<path style="fill:rgb(0, 255, 0);fill-opacity:0;fill-rule:evenodd;stroke:rgb(0, 255, 202);stroke-width:1;" d="M 125.993, 358.675 L 130.555, 352.533 L 172.845, 370.257 L 166.703, 378.504 L 138.627, 366.747 L 139.504, 365.519 L 140.908, 366.045 L 141.61, 365.343 L 125.993, 358.675 z "/>
<path style="fill:rgb(0, 0, 255);fill-opacity:0;fill-rule:evenodd;stroke:rgb(0, 255, 202);stroke-width:1;" d="M 509.585, 173.547 L 526.08, 150.735 L 539.943, 156.701 L 523.448, 179.338 L 519.061, 177.583 L 509.585, 173.547 z "/>
<path style="fill:rgb(255, 255, 0);fill-opacity:0;fill-rule:evenodd;stroke:rgb(0, 255, 202);stroke-width:1;" d="M 483.79, 162.667 L 483.966, 162.316 L 491.511, 151.963 L 493.091, 152.665 L 495.723, 149.156 L 496.776, 149.506 L 501.338, 143.189 L 502.391, 143.54 L 504.321, 142.838 L 506.251, 140.206 L 515.903, 144.242 L 498.179, 168.633 L 483.79, 162.667 z "/>
<path style="fill:rgb(255, 0, 0);fill-opacity:0;fill-rule:evenodd;stroke:rgb(0, 255, 202);stroke-width:1;" d="M 830.533, 167.23 L 839.833, 154.244 L 863.874, 164.422 L 854.573, 177.232 L 830.533, 167.23 z "/>
<path style="fill:rgb(0, 255, 0);fill-opacity:0;fill-rule:evenodd;stroke:rgb(0, 255, 202);stroke-width:1;" d="M 718.754, 616.275 L 729.985, 601.009 L 749.989, 609.607 L 738.583, 624.874 L 718.754, 616.275 z "/>
<path style="fill:rgb(0, 0, 255);fill-opacity:0;fill-rule:evenodd;stroke:rgb(0, 255, 202);stroke-width:1;" d="M 686.993, 659.092 L 698.223, 643.825 L 718.052, 652.248 L 706.822, 667.515 L 686.993, 659.092 z "/>
<path style="fill:rgb(255, 255, 0);fill-opacity:0;fill-rule:evenodd;stroke:rgb(0, 255, 202);stroke-width:1;" d="M 82.4742, 275.324 L 102.479, 248.476 L 113.709, 253.389 L 96.6879, 275.85 L 93.5293, 280.061 L 82.4742, 275.324 z "/>
<path style="fill:rgb(255, 0, 0);fill-opacity:0;fill-rule:evenodd;stroke:rgb(0, 255, 202);stroke-width:1;" d="M 71.4192, 270.41 L 91.4236, 243.738 L 102.479, 248.476 L 82.4742, 275.324 L 71.4192, 270.41 z "/>
<path style="fill:rgb(0, 255, 0);fill-opacity:0;fill-rule:evenodd;stroke:rgb(0, 255, 202);stroke-width:1;" d="M 307.611, 677.342 L 328.669, 648.914 L 339.197, 653.301 L 318.14, 681.728 L 307.611, 677.342 z "/>
<path style="fill:rgb(0, 0, 255);fill-opacity:0;fill-rule:evenodd;stroke:rgb(0, 255, 202);stroke-width:1;" d="M 48.0807, 262.514 L 53.696, 254.968 L 69.3134, 234.086 L 79.6666, 238.649 L 59.4867, 265.321 L 58.2584, 266.901 L 48.0807, 262.514 z "/>
<path style="fill:rgb(255, 255, 0);fill-opacity:0;fill-rule:evenodd;stroke:rgb(0, 255, 202);stroke-width:1;" d="M 60.1886, 192.147 L 65.453, 184.953 L 78.7892, 167.23 L 90.3707, 172.318 L 84.229, 180.566 L 72.472, 196.359 L 71.7701, 197.236 L 60.1886, 192.147 z "/>
<path style="fill:rgb(255, 0, 0);fill-opacity:0;fill-rule:evenodd;stroke:rgb(0, 255, 202);stroke-width:1;" d="M 185.128, 307.085 L 193.376, 296.205 L 219.697, 307.611 L 211.45, 318.491 L 185.128, 307.085 z "/>
<path style="fill:rgb(0, 255, 0);fill-opacity:0;fill-rule:evenodd;stroke:rgb(0, 255, 202);stroke-width:1;" d="M 161.263, 541.522 L 173.547, 524.852 L 193.025, 533.099 L 185.655, 543.102 L 180.39, 540.82 L 175.477, 547.488 L 161.263, 541.522 z "/>
<path style="fill:rgb(0, 0, 255);fill-opacity:0;fill-rule:evenodd;stroke:rgb(0, 255, 202);stroke-width:1;" d="M 351.481, 696.469 L 366.045, 676.815 L 380.083, 682.781 L 365.519, 702.435 L 351.481, 696.469 z "/>
<path style="fill:rgb(255, 255, 0);fill-opacity:0;fill-rule:evenodd;stroke:rgb(0, 255, 202);stroke-width:1;" d="M 498.179, 168.633 L 515.903, 144.242 L 527.309, 148.98 L 526.08, 150.735 L 509.585, 173.547 L 498.179, 168.633 z "/>
<path style="fill:rgb(255, 0, 0);fill-opacity:0;fill-rule:evenodd;stroke:rgb(0, 255, 202);stroke-width:1;" d="M 177.583, 317.263 L 185.128, 307.085 L 211.45, 318.491 L 203.904, 328.493 L 177.583, 317.263 z "/>
<path style="fill:rgb(0, 255, 0);fill-opacity:0;fill-rule:evenodd;stroke:rgb(0, 255, 202);stroke-width:1;" d="M 42.8164, 477.649 L 46.6769, 472.384 L 85.6328, 488.704 L 79.8421, 496.6 L 57.5565, 487.124 L 59.4867, 484.668 L 42.8164, 477.649 z "/>
<path style="fill:rgb(0, 0, 255);fill-opacity:0;fill-rule:evenodd;stroke:rgb(0, 255, 202);stroke-width:1;" d="M 446.94, 639.088 L 452.029, 632.419 L 453.433, 630.314 L 483.264, 643.123 L 476.771, 651.722 L 446.94, 639.088 z "/>
<path style="fill:rgb(255, 255, 0);fill-opacity:0;fill-rule:evenodd;stroke:rgb(0, 255, 202);stroke-width:1;" d="M 583.11, 448.344 L 598.552, 426.585 L 610.66, 431.498 L 602.939, 442.378 L 595.218, 453.257 L 583.11, 448.344 z "/>
<path style="fill:rgb(255, 0, 0);fill-opacity:0;fill-rule:evenodd;stroke:rgb(0, 255, 202);stroke-width:1;" d="M 97.9162, 199.693 L 105.286, 189.866 L 111.603, 181.443 L 125.466, 187.41 L 118.973, 196.183 L 111.779, 205.835 L 97.9162, 199.693 z "/>
<path style="fill:rgb(0, 255, 0);fill-opacity:0;fill-rule:evenodd;stroke:rgb(0, 255, 202);stroke-width:1;" d="M 51.7657, 178.987 L 65.102, 161.263 L 78.7892, 167.23 L 65.453, 184.953 L 51.7657, 178.987 z "/>
<path style="fill:rgb(0, 0, 255);fill-opacity:0;fill-rule:evenodd;stroke:rgb(0, 255, 202);stroke-width:1;" d="M 329.02, 686.993 L 343.584, 667.339 L 355.166, 672.077 L 340.601, 691.906 L 329.02, 686.993 z "/>
<path style="fill:rgb(255, 255, 0);fill-opacity:0;fill-rule:evenodd;stroke:rgb(0, 255, 202);stroke-width:1;" d="M 121.43, 392.191 L 127.572, 383.768 L 154.595, 395.174 L 148.454, 403.597 L 121.43, 392.191 z "/>
<path style="fill:rgb(255, 0, 0);fill-opacity:0;fill-rule:evenodd;stroke:rgb(0, 255, 202);stroke-width:1;" d="M 476.771, 651.722 L 483.264, 643.123 L 508.884, 654.003 L 502.566, 662.777 L 476.771, 651.722 z "/>
<path style="fill:rgb(0, 255, 0);fill-opacity:0;fill-rule:evenodd;stroke:rgb(0, 255, 202);stroke-width:1;" d="M 340.601, 691.906 L 355.166, 672.077 L 366.045, 676.815 L 351.481, 696.469 L 340.601, 691.906 z "/>
<path style="fill:rgb(0, 0, 255);fill-opacity:0;fill-rule:evenodd;stroke:rgb(0, 255, 202);stroke-width:1;" d="M 148.629, 304.628 L 163.545, 284.624 L 174.249, 289.186 L 159.158, 309.191 L 148.629, 304.628 z "/>
<path style="fill:rgb(255, 255, 0);fill-opacity:0;fill-rule:evenodd;stroke:rgb(0, 255, 202);stroke-width:1;" d="M 159.158, 309.191 L 174.249, 289.186 L 174.951, 288.309 L 177.056, 289.186 L 184.953, 292.696 L 176.881, 303.575 L 169.335, 313.578 L 159.158, 309.191 z "/>
<path style="fill:rgb(255, 0, 0);fill-opacity:0;fill-rule:evenodd;stroke:rgb(0, 255, 202);stroke-width:1;" d="M 46.1505, 502.917 L 51.9412, 495.021 L 74.2268, 504.321 L 68.4361, 512.393 L 46.1505, 502.917 z "/>
<path style="fill:rgb(0, 255, 0);fill-opacity:0;fill-rule:evenodd;stroke:rgb(0, 255, 202);stroke-width:1;" d="M 51.9412, 495.021 L 57.5565, 487.124 L 79.8421, 496.6 L 74.2268, 504.321 L 51.9412, 495.021 z "/>
<path style="fill:rgb(0, 0, 255);fill-opacity:0;fill-rule:evenodd;stroke:rgb(0, 255, 202);stroke-width:1;" d="M 891.248, 99.1445 L 899.145, 88.265 L 914.937, 94.9331 L 907.216, 105.637 L 891.248, 99.1445 z "/>
<path style="fill:rgb(255, 255, 0);fill-opacity:0;fill-rule:evenodd;stroke:rgb(0, 255, 202);stroke-width:1;" d="M 600.658, 122.308 L 600.658, 120.553 L 601.711, 119.149 L 603.29, 117.921 L 605.396, 117.394 L 620.838, 114.06 L 623.119, 114.236 L 625.049, 115.113 L 626.278, 116.517 L 626.804, 118.096 L 626.278, 119.851 L 624.698, 122.132 L 604.694, 125.993 L 603.29, 125.115 L 601.535, 123.887 L 600.658, 122.308 z "/>
<path style="fill:rgb(255, 0, 0);fill-opacity:0;fill-rule:evenodd;stroke:rgb(0, 255, 202);stroke-width:1;" d="M 594.692, 127.396 L 601.184, 118.096 L 601.711, 117.57 L 603.115, 116.692 L 604.694, 115.815 L 620.662, 112.13 L 622.066, 112.305 L 623.295, 112.481 L 624.523, 113.007 L 636.982, 118.272 L 633.472, 123.009 L 631.367, 123.536 L 629.612, 124.589 L 628.383, 126.694 L 623.119, 124.589 L 624.698, 122.132 L 626.278, 119.851 L 626.804, 118.096 L 626.278, 116.517 L 625.049, 115.113 L 623.119, 114.236 L 620.838, 114.06 L 605.396, 117.394 L 603.29, 117.921 L 601.711, 119.149 L 600.658, 120.553 L 600.658, 122.308 L 601.535, 123.887 L 603.29, 125.115 L 604.694, 125.993 L 607.502, 127.747 L 604.343, 131.608 L 594.692, 127.396 z "/>
<path style="fill:rgb(0, 255, 0);fill-opacity:0;fill-rule:evenodd;stroke:rgb(0, 255, 202);stroke-width:1;" d="M 532.748, 105.462 L 549.77, 81.2459 L 556.087, 83.878 L 555.56, 84.58 L 548.892, 93.7048 L 552.577, 95.2841 L 550.823, 97.5653 L 549.419, 97.0388 L 544.681, 103.707 L 538.715, 101.25 L 535.205, 106.339 L 532.748, 105.462 z "/>
<path style="fill:rgb(0, 0, 255);fill-opacity:0;fill-rule:evenodd;stroke:rgb(0, 255, 202);stroke-width:1;" d="M 716.297, 163.72 L 718.579, 163.72 L 720.86, 164.071 L 723.492, 164.597 L 724.194, 164.948 L 727.002, 166.352 L 729.458, 168.283 L 731.213, 170.564 L 732.09, 173.02 L 732.266, 175.653 L 731.564, 178.285 L 730.336, 180.039 L 729.985, 180.566 L 727.703, 182.672 L 726.826, 183.198 L 716.297, 163.72 z "/>
<path style="fill:rgb(255, 255, 0);fill-opacity:0;fill-rule:evenodd;stroke:rgb(0, 255, 202);stroke-width:1;" d="M 643.123, 166.001 L 643.65, 164.247 L 644.703, 162.667 L 646.282, 161.439 L 648.388, 160.562 L 650.669, 160.211 L 652.95, 160.386 L 655.056, 160.912 L 657.688, 162.667 L 659.092, 164.597 L 659.443, 166.177 L 659.267, 167.932 L 658.39, 169.511 L 657.337, 170.388 L 654.88, 171.792 L 652.424, 172.494 L 651.02, 172.494 L 649.265, 172.318 L 647.335, 171.792 L 645.229, 170.564 L 644.176, 169.335 L 643.299, 167.756 L 643.123, 166.001 z "/>
<path style="fill:rgb(255, 0, 0);fill-opacity:0;fill-rule:evenodd;stroke:rgb(0, 255, 202);stroke-width:1;" d="M 725.949, 161.088 L 727.879, 158.105 L 731.038, 159.509 L 734.547, 161.79 L 737.53, 164.422 L 739.811, 167.405 L 741.215, 170.564 L 741.917, 174.073 L 741.566, 177.407 L 740.513, 180.741 L 738.583, 183.9 L 734.723, 182.145 L 736.126, 180.039 L 737.355, 176.881 L 737.53, 173.722 L 736.653, 170.564 L 735.073, 167.581 L 732.792, 164.948 L 729.634, 162.667 L 725.949, 161.088 z "/>
<path style="fill:rgb(0, 255, 0);fill-opacity:0;fill-rule:evenodd;stroke:rgb(0, 255, 202);stroke-width:1;" d="M 430.094, 237.42 L 435.359, 230.05 L 447.818, 235.315 L 442.553, 242.509 L 430.094, 237.42 z "/>
<path style="fill:rgb(0, 0, 255);fill-opacity:0;fill-rule:evenodd;stroke:rgb(0, 255, 202);stroke-width:1;" d="M 558.719, 183.374 L 559.245, 181.443 L 559.596, 180.039 L 561.702, 177.056 L 563.808, 175.477 L 570.125, 195.481 L 566.791, 194.253 L 565.738, 193.727 L 562.755, 192.147 L 560.649, 189.691 L 559.07, 186.708 L 558.719, 183.374 z "/>
<path style="fill:rgb(255, 255, 0);fill-opacity:0;fill-rule:evenodd;stroke:rgb(0, 255, 202);stroke-width:1;" d="M 723.492, 164.597 L 725.949, 161.088 L 729.634, 162.667 L 732.792, 164.948 L 735.073, 167.581 L 736.653, 170.564 L 737.53, 173.722 L 737.355, 176.881 L 736.126, 180.039 L 734.723, 182.145 L 730.336, 180.039 L 731.564, 178.285 L 732.266, 175.653 L 732.09, 173.02 L 731.213, 170.564 L 729.458, 168.283 L 727.002, 166.352 L 724.194, 164.948 L 723.492, 164.597 z "/>
<path style="fill:rgb(255, 0, 0);fill-opacity:0;fill-rule:evenodd;stroke:rgb(0, 255, 202);stroke-width:1;" d="M 169.335, 313.578 L 176.881, 303.575 L 185.128, 307.085 L 177.583, 317.263 L 169.335, 313.578 z "/>
<path style="fill:rgb(0, 255, 0);fill-opacity:0;fill-rule:evenodd;stroke:rgb(0, 255, 202);stroke-width:1;" d="M 747.006, 128.098 L 749.287, 124.94 L 775.082, 135.819 L 772.801, 138.802 L 747.006, 128.098 z "/>
<path style="fill:rgb(0, 0, 255);fill-opacity:0;fill-rule:evenodd;stroke:rgb(0, 255, 202);stroke-width:1;" d="M 744.725, 131.081 L 747.006, 128.098 L 772.801, 138.802 L 770.695, 141.961 L 744.725, 131.081 z "/>
<path style="fill:rgb(255, 255, 0);fill-opacity:0;fill-rule:evenodd;stroke:rgb(0, 255, 202);stroke-width:1;" d="M 665.585, 236.368 L 690.678, 233.911 L 689.625, 234.964 L 687.519, 237.245 L 684.361, 238.824 L 680.325, 240.053 L 675.938, 240.228 L 673.481, 239.877 L 671.551, 239.526 L 667.69, 237.947 L 665.585, 236.368 z "/>
<path style="fill:rgb(255, 0, 0);fill-opacity:0;fill-rule:evenodd;stroke:rgb(0, 255, 202);stroke-width:1;" d="M 601.711, 117.57 L 609.783, 106.339 L 624.523, 113.007 L 623.295, 112.481 L 622.066, 112.305 L 620.662, 112.13 L 604.694, 115.815 L 603.115, 116.692 L 601.711, 117.57 z "/>
<path style="fill:rgb(0, 255, 0);fill-opacity:0;fill-rule:evenodd;stroke:rgb(0, 255, 202);stroke-width:1;" d="M 749.287, 124.94 L 751.042, 122.483 L 776.837, 133.363 L 775.082, 135.819 L 749.287, 124.94 z "/>
<path style="fill:rgb(0, 0, 255);fill-opacity:0;fill-rule:evenodd;stroke:rgb(0, 255, 202);stroke-width:1;" d="M 672.077, 241.983 L 672.604, 241.106 L 676.815, 241.807 L 681.377, 241.632 L 685.238, 240.404 L 688.572, 238.824 L 691.555, 235.841 L 692.608, 236.192 L 688.221, 241.983 L 684.185, 247.247 L 672.077, 241.983 z "/>
<path style="fill:rgb(255, 255, 0);fill-opacity:0;fill-rule:evenodd;stroke:rgb(0, 255, 202);stroke-width:1;" d="M 549.594, 189.515 L 556.438, 180.39 L 557.491, 180.741 L 556.613, 184.075 L 556.964, 187.41 L 558.544, 190.393 L 560.649, 192.849 L 564.685, 195.131 L 563.983, 195.832 L 549.594, 189.515 z "/>
<path style="fill:rgb(255, 0, 0);fill-opacity:0;fill-rule:evenodd;stroke:rgb(0, 255, 202);stroke-width:1;" d="M 732.792, 122.132 L 735.073, 119.149 L 749.287, 124.94 L 747.006, 128.098 L 732.792, 122.132 z "/>
<path style="fill:rgb(0, 255, 0);fill-opacity:0;fill-rule:evenodd;stroke:rgb(0, 255, 202);stroke-width:1;" d="M 716.297, 163.72 L 721.913, 155.473 L 727.879, 158.105 L 725.949, 161.088 L 723.492, 164.597 L 720.86, 164.071 L 718.579, 163.72 L 716.297, 163.72 z "/>
<path style="fill:rgb(0, 0, 255);fill-opacity:0;fill-rule:evenodd;stroke:rgb(0, 255, 202);stroke-width:1;" d="M 730.687, 125.115 L 732.792, 122.132 L 747.006, 128.098 L 744.725, 131.081 L 730.687, 125.115 z "/>
<path style="fill:rgb(255, 255, 0);fill-opacity:0;fill-rule:evenodd;stroke:rgb(0, 255, 202);stroke-width:1;" d="M 0, 100.724 L 25.9706, 65.2775 L 31.4104, 67.5587 L 35.6218, 61.9434 L 30.1821, 59.6622 L 30.533, 59.1358 L 53.345, 28.0763 L 60.3641, 18.4251 L 61.417, 17.0213 L 101.777, 34.218 L 71.0682, 75.9816 L 85.4573, 82.1233 L 54.5734, 123.887 L 0, 100.724 z "/>
<path style="fill:rgb(255, 0, 0);fill-opacity:0;fill-rule:evenodd;stroke:rgb(0, 255, 202);stroke-width:1;" d="M 26.6725, 253.213 L 32.8142, 244.966 L 37.5521, 246.896 L 52.1167, 227.594 L 47.0279, 225.313 L 48.0807, 223.909 L 53.696, 216.539 L 75.4551, 225.839 L 69.3134, 234.086 L 66.5058, 234.437 L 62.1189, 240.228 L 61.417, 239.877 L 51.9412, 252.512 L 53.696, 254.968 L 48.0807, 262.514 L 26.6725, 253.213 z "/>
<path style="fill:rgb(0, 255, 0);fill-opacity:0;fill-rule:evenodd;stroke:rgb(0, 255, 202);stroke-width:1;" d="M 27.1989, 395.701 L 57.732, 354.113 L 72.1211, 360.254 L 41.7635, 401.843 L 27.1989, 395.701 z "/>
<path style="fill:rgb(0, 0, 255);fill-opacity:0;fill-rule:evenodd;stroke:rgb(0, 255, 202);stroke-width:1;" d="M 28.0763, 320.772 L 47.3788, 294.626 L 61.066, 300.241 L 55.2753, 307.962 L 41.7635, 326.563 L 28.0763, 320.772 z "/>
<path style="fill:rgb(255, 255, 0);fill-opacity:0;fill-rule:evenodd;stroke:rgb(0, 255, 202);stroke-width:1;" d="M 23.5139, 503.97 L 24.0404, 502.917 L 29.3047, 495.898 L 46.1505, 502.917 L 68.4361, 512.393 L 62.6453, 520.29 L 37.903, 509.936 L 23.5139, 503.97 z "/>
<path style="fill:rgb(255, 0, 0);fill-opacity:0;fill-rule:evenodd;stroke:rgb(0, 255, 202);stroke-width:1;" d="M 31.5859, 518.535 L 37.903, 509.936 L 62.6453, 520.29 L 63.3472, 520.64 L 57.2055, 529.239 L 31.5859, 518.535 z "/>
<path style="fill:rgb(0, 255, 0);fill-opacity:0;fill-rule:evenodd;stroke:rgb(0, 255, 202);stroke-width:1;" d="M 29.4801, 215.837 L 37.903, 204.606 L 56.5036, 212.678 L 53.696, 216.539 L 48.0807, 223.909 L 29.4801, 215.837 z "/>
<path style="fill:rgb(0, 0, 255);fill-opacity:0;fill-rule:evenodd;stroke:rgb(0, 255, 202);stroke-width:1;" d="M 25.7951, 526.607 L 31.5859, 518.535 L 57.2055, 529.239 L 51.4148, 537.311 L 25.7951, 526.607 z "/>
<path style="fill:rgb(255, 255, 0);fill-opacity:0;fill-rule:evenodd;stroke:rgb(0, 255, 202);stroke-width:1;" d="M 35.2709, 202.325 L 42.9919, 191.621 L 56.1527, 197.061 L 54.5734, 199.342 L 48.6072, 207.94 L 35.2709, 202.325 z "/>
<path style="fill:rgb(255, 0, 0);fill-opacity:0;fill-rule:evenodd;stroke:rgb(0, 255, 202);stroke-width:1;" d="M 568.546, 51.4148 L 596.096, 13.3363 L 598.903, 14.5646 L 606.273, 4.5624 L 623.821, 11.9324 L 620.838, 16.1439 L 626.278, 18.2496 L 597.148, 58.4339 L 596.271, 58.6093 L 595.043, 58.6093 L 585.392, 54.5734 L 584.865, 55.2753 L 576.969, 51.9412 L 576.442, 52.6431 L 575.74, 53.345 L 574.161, 53.8715 L 568.546, 51.4148 z "/>
<path style="fill:rgb(0, 255, 0);fill-opacity:0;fill-rule:evenodd;stroke:rgb(0, 255, 202);stroke-width:1;" d="M 660.496, 40.8862 L 690.502, 0 L 708.752, 7.72099 L 678.57, 48.9581 L 676.113, 52.2922 L 664.005, 47.0279 L 666.637, 43.5183 L 660.496, 40.8862 z "/>
<path style="fill:rgb(0, 0, 255);fill-opacity:0;fill-rule:evenodd;stroke:rgb(0, 255, 202);stroke-width:1;" d="M 550.823, 49.1336 L 560.123, 36.3238 L 584.514, 2.80763 L 596.096, 13.3363 L 568.546, 51.4148 L 565.738, 55.2753 L 550.823, 49.1336 z "/>
<path style="fill:rgb(255, 255, 0);fill-opacity:0;fill-rule:evenodd;stroke:rgb(0, 255, 202);stroke-width:1;" d="M 248.3, 37.0257 L 255.144, 27.3744 L 265.848, 31.9368 L 258.829, 41.4126 L 248.3, 37.0257 z "/>
<path style="fill:rgb(255, 0, 0);fill-opacity:0;fill-rule:evenodd;stroke:rgb(0, 255, 202);stroke-width:1;" d="M 176.705, 760.342 L 188.111, 745.076 L 237.42, 766.308 L 226.014, 781.575 L 176.705, 760.342 z "/>
<path style="fill:rgb(0, 255, 0);fill-opacity:0;fill-rule:evenodd;stroke:rgb(0, 255, 202);stroke-width:1;" d="M 692.257, 54.9243 L 701.382, 42.6409 L 718.228, 19.6534 L 734.372, 26.497 L 765.606, 39.6578 L 796.14, 52.4676 L 827.374, 65.6284 L 842.641, 72.2966 L 825.795, 95.2841 L 816.846, 107.392 L 760.869, 83.878 L 692.257, 54.9243 z "/>
<path style="fill:rgb(0, 0, 255);fill-opacity:0;fill-rule:evenodd;stroke:rgb(0, 255, 202);stroke-width:1;" d="M 701.382, 42.6409 L 718.228, 19.6534 L 734.372, 26.497 L 765.606, 39.6578 L 796.14, 52.4676 L 827.374, 65.6284 L 842.641, 72.2966 L 825.795, 95.2841 L 793.507, 81.5968 L 777.363, 74.7532 L 774.029, 73.5249 L 752.621, 64.4001 L 750.165, 63.3472 L 734.021, 56.5036 L 701.382, 42.6409 z "/>
<path style="fill:rgb(255, 255, 0);fill-opacity:0;fill-rule:evenodd;stroke:rgb(0, 255, 202);stroke-width:1;" d="M 722.615, 42.4655 L 734.372, 26.497 L 765.606, 39.6578 L 756.306, 52.1167 L 757.886, 52.8186 L 750.165, 63.3472 L 734.021, 56.5036 L 741.917, 45.975 L 734.723, 42.8164 L 732.09, 46.5014 L 722.615, 42.4655 z "/>
</svg>