<?xml version="1.0" encoding="iso-8859-1" standalone="no"?>
<!DOCTYPE svg PUBLIC "-//W3C//DTD SVG 1.0//EN" "http://www.w3.org/TR/2001/REC-SVG-20010904/DTD/svg10.dtd">
<svg xmlns="http://www.w3.org/2000/svg" width="474" height="800">
<path style="fill:rgb(255, 0, 0);fill-opacity:0;fill-rule:evenodd;stroke:rgb(255, 250, 0);stroke-width:1;" d="M 106.262, 709.859 L 189.642, 593.716 L 222.579, 608.797 L 253.088, 622.145 L 252.221, 623.532 L 266.782, 629.772 L 267.649, 628.559 L 290.704, 639.133 L 317.573, 651.788 L 312.373, 658.895 L 317.4, 660.975 L 321.733, 673.629 L 318.44, 678.483 L 322.6, 680.217 L 323.467, 679.003 L 362.817, 695.645 L 361.95, 696.685 L 366.804, 698.592 L 361.777, 705.352 L 363.857, 715.926 L 373.218, 719.74 L 347.389, 755.623 L 338.028, 768.624 L 328.667, 781.625 L 320.52, 793.066 L 315.32, 800 L 305.265, 796.36 L 306.652, 794.106 L 157.226, 731.354 L 106.262, 709.859 z "/>
<path style="fill:rgb(0, 255, 0);fill-opacity:0;fill-rule:evenodd;stroke:rgb(255, 250, 0);stroke-width:1;" d="M 229.859, 550.379 L 309.599, 448.624 L 438.743, 468.386 L 412.741, 566.327 L 374.258, 615.558 L 374.085, 615.731 L 229.859, 550.379 z "/>
<path style="fill:rgb(0, 0, 255);fill-opacity:0;fill-rule:evenodd;stroke:rgb(255, 250, 0);stroke-width:1;" d="M 0, 655.428 L 11.961, 590.943 L 13.6945, 584.009 L 14.7346, 580.368 L 17.3348, 573.608 L 18.7216, 570.141 L 22.0152, 563.554 L 24.442, 559.393 L 29.4691, 551.246 L 35.1896, 543.272 L 41.4301, 535.645 L 49.2308, 539.112 L 54.6046, 532.178 L 139.892, 570.834 L 48.7107, 687.151 L 6.58722, 668.082 L 12.1343, 660.802 L 0, 655.428 z "/>
<path style="fill:rgb(255, 255, 0);fill-opacity:0;fill-rule:evenodd;stroke:rgb(255, 250, 0);stroke-width:1;" d="M 133.651, 700.672 L 142.665, 688.364 L 181.148, 636.013 L 190.163, 623.705 L 206.804, 630.639 L 275.45, 659.588 L 292.091, 666.522 L 282.904, 679.003 L 257.421, 713.846 L 247.887, 726.847 L 244.594, 731.354 L 238.353, 739.848 L 235.58, 743.662 L 226.219, 739.848 L 218.765, 736.728 L 209.057, 732.568 L 191.896, 725.287 L 150.293, 707.779 L 133.651, 700.672 z "/>
<path style="fill:rgb(255, 0, 0);fill-opacity:0;fill-rule:evenodd;stroke:rgb(255, 250, 0);stroke-width:1;" d="M 142.665, 688.364 L 181.148, 636.013 L 197.79, 642.947 L 206.804, 630.639 L 275.45, 659.588 L 266.262, 672.069 L 282.904, 679.003 L 257.421, 713.846 L 247.887, 726.847 L 244.594, 731.354 L 227.952, 724.247 L 218.765, 736.728 L 209.057, 732.568 L 191.896, 725.287 L 150.293, 707.779 L 159.48, 695.471 L 142.665, 688.364 z "/>
<path style="fill:rgb(0, 255, 0);fill-opacity:0;fill-rule:evenodd;stroke:rgb(255, 250, 0);stroke-width:1;" d="M 146.132, 698.072 L 193.629, 633.239 L 279.437, 669.296 L 231.939, 734.301 L 146.132, 698.072 z "/>
<path style="fill:rgb(0, 0, 255);fill-opacity:0;fill-rule:evenodd;stroke:rgb(255, 250, 0);stroke-width:1;" d="M 130.011, 438.57 L 152.199, 392.633 L 159.48, 369.231 L 163.467, 348.949 L 165.027, 327.627 L 186.696, 338.202 L 185.482, 355.883 L 180.802, 378.418 L 173.001, 401.993 L 165.72, 418.635 L 213.738, 440.823 L 258.115, 384.832 L 253.261, 382.579 L 261.582, 372.004 L 286.024, 383.272 L 212.351, 476.36 L 130.011, 438.57 z "/>
<path style="fill:rgb(255, 255, 0);fill-opacity:0;fill-rule:evenodd;stroke:rgb(255, 250, 0);stroke-width:1;" d="M 288.277, 59.6316 L 295.211, 53.9112 L 301.798, 49.0574 L 314.973, 39.6966 L 328.841, 30.6826 L 340.455, 23.5753 L 355.19, 15.6013 L 370.271, 7.80065 L 382.925, 1.90683 L 385.179, 1.04009 L 387.432, 0.520043 L 389.859, 0.173348 L 392.286, 0 L 395.406, 0.173348 L 397.66, 0.693391 L 400.087, 1.21343 L 402.167, 2.08017 L 474.106, 34.6696 L 453.651, 60.6717 L 451.571, 63.2719 L 406.674, 42.8169 L 403.207, 44.0303 L 399.74, 44.8971 L 396.273, 45.4171 L 392.633, 45.5905 L 387.779, 45.2438 L 384.312, 44.7237 L 379.285, 43.1636 L 352.416, 59.1116 L 353.976, 61.5385 L 354.67, 63.6186 L 354.67, 66.5655 L 353.803, 69.5125 L 342.189, 84.0737 L 288.277, 59.6316 z "/>
<path style="fill:rgb(255, 0, 0);fill-opacity:0;fill-rule:evenodd;stroke:rgb(255, 250, 0);stroke-width:1;" d="M 154.453, 696.165 L 196.056, 639.48 L 271.116, 671.203 L 229.512, 727.887 L 154.453, 696.165 z "/>
<path style="fill:rgb(0, 255, 0);fill-opacity:0;fill-rule:evenodd;stroke:rgb(255, 250, 0);stroke-width:1;" d="M 343.575, 228.646 L 383.965, 177.161 L 348.949, 161.213 L 371.831, 132.264 L 444.984, 165.374 L 401.3, 221.018 L 381.712, 245.98 L 343.575, 228.646 z "/>
<path style="fill:rgb(0, 0, 255);fill-opacity:0;fill-rule:evenodd;stroke:rgb(255, 250, 0);stroke-width:1;" d="M 106.262, 709.859 L 189.642, 593.716 L 222.579, 608.797 L 253.088, 622.145 L 252.221, 623.532 L 266.782, 629.772 L 267.649, 628.559 L 290.704, 639.133 L 317.573, 651.788 L 312.373, 658.895 L 317.4, 660.975 L 321.733, 673.629 L 318.44, 678.483 L 313.933, 684.03 L 299.372, 685.244 L 289.837, 680.91 L 301.798, 664.615 L 187.389, 616.251 L 123.77, 702.925 L 165.2, 720.26 L 157.226, 731.354 L 106.262, 709.859 z "/>
<path style="fill:rgb(255, 255, 0);fill-opacity:0;fill-rule:evenodd;stroke:rgb(255, 250, 0);stroke-width:1;" d="M 164.16, 290.358 L 164.507, 282.037 L 165.027, 273.889 L 165.72, 265.742 L 166.761, 257.595 L 168.147, 249.447 L 169.707, 241.3 L 172.481, 229.686 L 174.735, 221.538 L 177.335, 213.564 L 180.108, 205.59 L 185.482, 191.896 L 223.272, 209.057 L 218.245, 228.819 L 219.458, 228.992 L 215.125, 245.98 L 217.205, 246.327 L 210.791, 271.463 L 227.779, 279.263 L 214.778, 295.731 L 204.377, 308.732 L 164.16, 290.358 z "/>
<path style="fill:rgb(255, 0, 0);fill-opacity:0;fill-rule:evenodd;stroke:rgb(255, 250, 0);stroke-width:1;" d="M 199.87, 162.774 L 207.671, 149.079 L 212.004, 142.145 L 216.338, 135.558 L 226.046, 122.384 L 233.673, 112.849 L 244.767, 100.368 L 250.488, 94.3012 L 262.622, 82.6869 L 298.852, 98.9816 L 279.09, 124.464 L 280.477, 125.157 L 274.063, 133.478 L 268.862, 140.238 L 270.076, 140.758 L 268.689, 142.492 L 254.301, 160.867 L 253.261, 160.347 L 238.007, 179.935 L 199.87, 162.774 z "/>
<path style="fill:rgb(0, 255, 0);fill-opacity:0;fill-rule:evenodd;stroke:rgb(255, 250, 0);stroke-width:1;" d="M 161.387, 694.778 L 198.137, 644.854 L 264.182, 672.763 L 227.432, 722.514 L 161.387, 694.778 z "/>
<path style="fill:rgb(0, 0, 255);fill-opacity:0;fill-rule:evenodd;stroke:rgb(255, 250, 0);stroke-width:1;" d="M 260.195, 334.908 L 290.184, 296.598 L 287.584, 295.558 L 292.091, 289.837 L 290.358, 288.971 L 306.652, 268.342 L 308.386, 269.036 L 312.199, 264.009 L 314.8, 265.222 L 323.467, 254.128 L 361.257, 271.289 L 298.158, 352.069 L 260.195, 334.908 z "/>
<path style="fill:rgb(255, 255, 0);fill-opacity:0;fill-rule:evenodd;stroke:rgb(255, 250, 0);stroke-width:1;" d="M 166.934, 693.564 L 199.697, 649.014 L 258.635, 673.976 L 225.872, 718.353 L 166.934, 693.564 z "/>
<path style="fill:rgb(255, 0, 0);fill-opacity:0;fill-rule:evenodd;stroke:rgb(255, 250, 0);stroke-width:1;" d="M 169.014, 288.797 L 170.228, 268.516 L 172.828, 246.501 L 175.601, 231.939 L 214.258, 246.501 L 209.404, 273.543 L 222.405, 279.783 L 204.55, 304.572 L 169.014, 288.797 z "/>
<path style="fill:rgb(0, 255, 0);fill-opacity:0;fill-rule:evenodd;stroke:rgb(255, 250, 0);stroke-width:1;" d="M 123.77, 702.925 L 187.389, 616.251 L 301.798, 664.615 L 289.837, 680.91 L 263.662, 716.446 L 257.421, 713.846 L 292.091, 666.522 L 275.45, 659.588 L 206.804, 630.639 L 190.163, 623.705 L 181.148, 636.013 L 142.665, 688.364 L 133.651, 700.672 L 150.293, 707.779 L 191.896, 725.287 L 188.429, 730.141 L 165.2, 720.26 L 123.77, 702.925 z "/>
<path style="fill:rgb(0, 0, 255);fill-opacity:0;fill-rule:evenodd;stroke:rgb(255, 250, 0);stroke-width:1;" d="M 193.109, 291.051 L 196.923, 242.687 L 211.658, 248.927 L 207.497, 274.756 L 219.112, 280.477 L 207.151, 297.291 L 193.109, 291.051 z "/>
<path style="fill:rgb(255, 255, 0);fill-opacity:0;fill-rule:evenodd;stroke:rgb(255, 250, 0);stroke-width:1;" d="M 376.858, 99.8483 L 388.472, 85.2871 L 422.449, 100.888 L 411.181, 115.276 L 376.858, 99.8483 z "/>
<path style="fill:rgb(255, 0, 0);fill-opacity:0;fill-rule:evenodd;stroke:rgb(255, 250, 0);stroke-width:1;" d="M 342.189, 84.0737 L 353.803, 69.5125 L 383.099, 82.8602 L 371.658, 97.4215 L 342.189, 84.0737 z "/>
<path style="fill:rgb(0, 255, 0);fill-opacity:0;fill-rule:evenodd;stroke:rgb(255, 250, 0);stroke-width:1;" d="M 96.3814, 229.686 L 96.5547, 228.646 L 97.0748, 227.259 L 99.675, 224.312 L 100.715, 222.752 L 101.408, 220.498 L 101.928, 219.805 L 103.142, 218.418 L 104.875, 217.378 L 106.782, 216.511 L 109.036, 216.165 L 111.289, 216.165 L 112.503, 216.165 L 114.756, 216.858 L 116.49, 217.725 L 117.356, 218.245 L 118.743, 219.632 L 119.263, 220.325 L 119.957, 222.059 L 120.13, 222.925 L 116.49, 239.567 L 115.97, 240.26 L 114.756, 241.82 L 113.196, 243.034 L 111.289, 243.9 L 109.036, 244.42 L 107.996, 244.594 L 105.049, 244.42 L 102.795, 243.9 L 100.715, 242.86 L 98.6349, 241.127 L 97.5948, 239.393 L 97.0748, 237.833 L 97.0748, 237.14 L 97.7681, 235.753 L 97.9415, 234.54 L 97.7681, 233.673 L 96.7281, 231.766 L 96.3814, 229.686 z "/>
<path style="fill:rgb(0, 0, 255);fill-opacity:0;fill-rule:evenodd;stroke:rgb(255, 250, 0);stroke-width:1;" d="M 133.651, 700.672 L 142.665, 688.364 L 181.148, 636.013 L 190.163, 623.705 L 206.804, 630.639 L 275.45, 659.588 L 292.091, 666.522 L 282.904, 679.003 L 257.421, 713.846 L 247.887, 726.847 L 244.594, 731.354 L 238.353, 739.848 L 235.58, 743.662 L 226.219, 739.848 L 218.765, 736.728 L 209.057, 732.568 L 191.896, 725.287 L 150.293, 707.779 L 133.651, 700.672 z "/>
<path style="fill:rgb(255, 255, 0);fill-opacity:0;fill-rule:evenodd;stroke:rgb(255, 250, 0);stroke-width:1;" d="M 142.665, 688.364 L 181.148, 636.013 L 197.79, 642.947 L 206.804, 630.639 L 275.45, 659.588 L 266.262, 672.069 L 282.904, 679.003 L 257.421, 713.846 L 247.887, 726.847 L 244.594, 731.354 L 227.952, 724.247 L 218.765, 736.728 L 209.057, 732.568 L 191.896, 725.287 L 150.293, 707.779 L 159.48, 695.471 L 142.665, 688.364 z "/>
<path style="fill:rgb(255, 0, 0);fill-opacity:0;fill-rule:evenodd;stroke:rgb(255, 250, 0);stroke-width:1;" d="M 146.132, 698.072 L 193.629, 633.239 L 279.437, 669.296 L 231.939, 734.301 L 146.132, 698.072 z "/>
<path style="fill:rgb(0, 255, 0);fill-opacity:0;fill-rule:evenodd;stroke:rgb(255, 250, 0);stroke-width:1;" d="M 154.453, 696.165 L 196.056, 639.48 L 271.116, 671.203 L 229.512, 727.887 L 154.453, 696.165 z "/>
<path style="fill:rgb(0, 0, 255);fill-opacity:0;fill-rule:evenodd;stroke:rgb(255, 250, 0);stroke-width:1;" d="M 106.262, 709.859 L 189.642, 593.716 L 222.579, 608.797 L 253.088, 622.145 L 252.221, 623.532 L 266.782, 629.772 L 267.649, 628.559 L 290.704, 639.133 L 317.573, 651.788 L 312.373, 658.895 L 317.4, 660.975 L 321.733, 673.629 L 318.44, 678.483 L 313.933, 684.03 L 299.372, 685.244 L 289.837, 680.91 L 301.798, 664.615 L 187.389, 616.251 L 123.77, 702.925 L 165.2, 720.26 L 157.226, 731.354 L 106.262, 709.859 z "/>
<path style="fill:rgb(255, 255, 0);fill-opacity:0;fill-rule:evenodd;stroke:rgb(255, 250, 0);stroke-width:1;" d="M 161.387, 694.778 L 198.137, 644.854 L 264.182, 672.763 L 227.432, 722.514 L 161.387, 694.778 z "/>
<path style="fill:rgb(255, 0, 0);fill-opacity:0;fill-rule:evenodd;stroke:rgb(255, 250, 0);stroke-width:1;" d="M 166.934, 693.564 L 199.697, 649.014 L 258.635, 673.976 L 225.872, 718.353 L 166.934, 693.564 z "/>
<path style="fill:rgb(0, 255, 0);fill-opacity:0;fill-rule:evenodd;stroke:rgb(255, 250, 0);stroke-width:1;" d="M 123.77, 702.925 L 187.389, 616.251 L 301.798, 664.615 L 289.837, 680.91 L 263.662, 716.446 L 257.421, 713.846 L 292.091, 666.522 L 275.45, 659.588 L 206.804, 630.639 L 190.163, 623.705 L 181.148, 636.013 L 142.665, 688.364 L 133.651, 700.672 L 150.293, 707.779 L 191.896, 725.287 L 188.429, 730.141 L 165.2, 720.26 L 123.77, 702.925 z "/>
</svg>