<?xml version="1.0" encoding="iso-8859-1" standalone="no"?>
<!DOCTYPE svg PUBLIC "-//W3C//DTD SVG 1.0//EN" "http://www.w3.org/TR/2001/REC-SVG-20010904/DTD/svg10.dtd">
<svg xmlns="http://www.w3.org/2000/svg" width="1104" height="800">
<path style="fill:rgb(255, 0, 0);fill-opacity:0;fill-rule:evenodd;stroke:rgb(255, 0, 45);stroke-width:1;" d="M 65.6784, 698.563 L 129.532, 611.722 L 162.007, 625.587 L 155.074, 635.257 L 219.293, 662.258 L 225.496, 652.588 L 299.932, 684.333 L 279.133, 712.429 L 283.694, 714.253 L 275.485, 725.2 L 279.681, 727.024 L 273.113, 735.964 L 269.282, 734.139 L 262.349, 743.444 L 259.612, 742.349 L 248.848, 737.605 L 216.739, 723.922 L 195.029, 753.66 L 65.6784, 698.563 z "/>
<path style="fill:rgb(0, 255, 0);fill-opacity:0;fill-rule:evenodd;stroke:rgb(255, 0, 45);stroke-width:1;" d="M 739.795, 533.09 L 759.498, 505.724 L 770.445, 490.582 L 782.486, 495.507 L 785.77, 491.129 L 791.973, 482.554 L 804.743, 487.845 L 823.352, 462.121 L 810.582, 456.83 L 812.588, 453.729 L 883.74, 483.466 L 823.9, 566.477 L 754.208, 537.469 L 753.295, 538.746 L 739.795, 533.09 z "/>
<path style="fill:rgb(0, 0, 255);fill-opacity:0;fill-rule:evenodd;stroke:rgb(255, 0, 45);stroke-width:1;" d="M 798.723, 710.239 L 862.759, 622.486 L 919.863, 646.568 L 891.95, 685.063 L 887.754, 690.536 L 876.807, 685.975 L 844.88, 729.761 L 798.723, 710.239 z "/>
<path style="fill:rgb(255, 255, 0);fill-opacity:0;fill-rule:evenodd;stroke:rgb(255, 0, 45);stroke-width:1;" d="M 223.672, 758.769 L 224.219, 754.755 L 231.152, 745.45 L 234.8, 742.714 L 242.463, 746.18 L 248.848, 737.605 L 259.612, 742.349 L 257.058, 745.815 L 270.376, 751.653 L 277.309, 742.166 L 270.559, 739.43 L 273.113, 735.964 L 279.681, 727.024 L 282.052, 723.74 L 288.803, 726.477 L 317.081, 688.347 L 353.022, 703.489 L 352.657, 703.854 L 335.69, 727.024 L 336.784, 732.315 L 334.96, 735.234 L 330.034, 737.97 L 327.298, 741.984 L 328.027, 749.464 L 323.831, 754.937 L 318.905, 757.127 L 315.804, 757.856 L 313.25, 761.323 L 312.338, 766.613 L 309.418, 770.445 L 301.938, 772.634 L 285.336, 795.257 L 250.49, 780.296 L 252.497, 777.377 L 238.267, 771.357 L 227.503, 766.978 L 231.152, 761.87 L 223.672, 758.769 z "/>
<path style="fill:rgb(255, 0, 0);fill-opacity:0;fill-rule:evenodd;stroke:rgb(255, 0, 45);stroke-width:1;" d="M 103.991, 268.917 L 120.41, 246.294 L 128.985, 249.943 L 141.026, 233.523 L 176.237, 248.301 L 168.575, 258.883 L 160, 255.234 L 155.257, 261.802 L 198.677, 280.046 L 203.421, 273.478 L 192.292, 268.734 L 199.772, 258.335 L 221.3, 267.275 L 225.678, 261.254 L 257.788, 274.755 L 225.314, 319.635 L 103.991, 268.917 z "/>
<path style="fill:rgb(0, 255, 0);fill-opacity:0;fill-rule:evenodd;stroke:rgb(255, 0, 45);stroke-width:1;" d="M 403.558, 219.84 L 468.506, 130.992 L 503.535, 145.77 L 493.865, 158.905 L 488.027, 166.75 L 480.365, 163.649 L 477.263, 167.845 L 479.635, 168.94 L 446.249, 214.732 L 451.722, 216.921 L 456.648, 210.353 L 463.033, 213.09 L 460.479, 216.556 L 463.033, 217.651 L 469.236, 209.076 L 465.952, 207.617 L 471.425, 200.137 L 490.582, 208.347 L 479.27, 223.854 L 484.926, 226.226 L 469.236, 247.571 L 403.558, 219.84 z "/>
<path style="fill:rgb(0, 0, 255);fill-opacity:0;fill-rule:evenodd;stroke:rgb(255, 0, 45);stroke-width:1;" d="M 492.223, 426.18 L 521.596, 385.861 L 537.104, 392.246 L 543.672, 383.307 L 569.578, 347.731 L 603.694, 361.961 L 541.847, 446.978 L 492.223, 426.18 z "/>
<path style="fill:rgb(255, 255, 0);fill-opacity:0;fill-rule:evenodd;stroke:rgb(255, 0, 45);stroke-width:1;" d="M 903.991, 742.714 L 954.527, 673.569 L 999.042, 692.36 L 993.934, 699.293 L 948.689, 761.505 L 903.991, 742.714 z "/>
<path style="fill:rgb(255, 0, 0);fill-opacity:0;fill-rule:evenodd;stroke:rgb(255, 0, 45);stroke-width:1;" d="M 305.77, 353.204 L 338.426, 308.324 L 366.34, 320.182 L 367.982, 320.73 L 358.312, 334.048 L 371.813, 339.704 L 373.455, 340.433 L 380.753, 330.399 L 405.382, 340.798 L 392.794, 357.948 L 397.902, 360.137 L 380.023, 384.401 L 305.77, 353.204 z "/>
<path style="fill:rgb(0, 255, 0);fill-opacity:0;fill-rule:evenodd;stroke:rgb(255, 0, 45);stroke-width:1;" d="M 546.773, 280.41 L 556.99, 266.545 L 559.909, 262.531 L 569.396, 266.545 L 573.227, 261.254 L 569.578, 259.795 L 578.883, 247.206 L 612.452, 261.437 L 597.674, 281.505 L 617.195, 289.897 L 622.303, 282.782 L 614.458, 279.316 L 624.128, 265.998 L 634.162, 270.011 L 637.263, 265.633 L 666.271, 277.856 L 636.534, 318.358 L 546.773, 280.41 z "/>
<path style="fill:rgb(0, 0, 255);fill-opacity:0;fill-rule:evenodd;stroke:rgb(255, 0, 45);stroke-width:1;" d="M 142.668, 581.984 L 167.662, 547.868 L 216.009, 568.483 L 222.395, 559.726 L 248.848, 571.038 L 236.99, 587.275 L 217.469, 613.729 L 142.668, 581.984 z "/>
<path style="fill:rgb(255, 255, 0);fill-opacity:0;fill-rule:evenodd;stroke:rgb(255, 0, 45);stroke-width:1;" d="M 282.782, 104.538 L 296.1, 86.2942 L 287.343, 82.6454 L 303.398, 60.5701 L 333.865, 73.3409 L 322.007, 89.7605 L 329.122, 92.6796 L 330.764, 90.3079 L 342.987, 95.4162 L 339.886, 99.6123 L 346.454, 102.531 L 359.772, 84.2873 L 388.05, 96.3284 L 355.393, 140.661 L 328.21, 129.35 L 338.791, 114.937 L 328.027, 110.559 L 323.284, 116.944 L 303.398, 108.552 L 300.661, 112.201 L 282.782, 104.538 z "/>
<path style="fill:rgb(255, 0, 0);fill-opacity:0;fill-rule:evenodd;stroke:rgb(255, 0, 45);stroke-width:1;" d="M 61.1174, 399.909 L 77.3546, 377.469 L 86.2942, 381.3 L 97.2406, 366.157 L 114.025, 373.09 L 110.011, 378.746 L 113.478, 380.205 L 103.808, 393.523 L 119.316, 400.091 L 128.985, 386.773 L 131.539, 387.868 L 140.479, 375.462 L 145.77, 377.834 L 173.683, 389.51 L 141.574, 433.66 L 61.1174, 399.909 z "/>
<path style="fill:rgb(0, 255, 0);fill-opacity:0;fill-rule:evenodd;stroke:rgb(255, 0, 45);stroke-width:1;" d="M 710.787, 599.316 L 724.105, 581.072 L 730.673, 583.991 L 738.153, 573.592 L 745.45, 576.511 L 745.815, 576.146 L 780.479, 590.559 L 781.391, 589.099 L 803.831, 598.586 L 765.336, 651.676 L 734.322, 638.723 L 730.308, 637.081 L 744.173, 618.107 L 742.531, 617.377 L 743.261, 616.465 L 729.213, 610.445 L 734.869, 602.782 L 721.186, 597.127 L 717.537, 602.052 L 710.787, 599.316 z "/>
<path style="fill:rgb(0, 0, 255);fill-opacity:0;fill-rule:evenodd;stroke:rgb(255, 0, 45);stroke-width:1;" d="M 914.755, 551.152 L 947.229, 506.454 L 1020.94, 537.469 L 1020.57, 537.834 L 1004.33, 560.091 L 999.59, 566.477 L 992.657, 563.558 L 993.569, 562.281 L 968.94, 551.881 L 969.669, 550.787 L 963.101, 548.05 L 957.993, 555.165 L 958.905, 555.53 L 954.892, 561.003 L 957.081, 561.916 L 953.25, 567.389 L 946.135, 564.287 L 935.006, 559.726 L 914.755, 551.152 z "/>
<path style="fill:rgb(255, 255, 0);fill-opacity:0;fill-rule:evenodd;stroke:rgb(255, 0, 45);stroke-width:1;" d="M 107.275, 352.292 L 118.586, 336.784 L 109.647, 332.953 L 125.336, 311.425 L 172.041, 331.129 L 205.792, 345.359 L 173.683, 389.51 L 145.77, 377.834 L 157.811, 361.231 L 153.615, 359.59 L 161.824, 348.278 L 148.506, 342.623 L 144.675, 342.44 L 137.195, 352.839 L 134.823, 353.934 L 129.168, 361.596 L 107.275, 352.292 z "/>
<path style="fill:rgb(255, 0, 0);fill-opacity:0;fill-rule:evenodd;stroke:rgb(255, 0, 45);stroke-width:1;" d="M 981.345, 253.774 L 1004.88, 221.3 L 1009.08, 223.124 L 1016.74, 212.543 L 1020.75, 211.813 L 1068.37, 231.699 L 1069.83, 235.165 L 1038.81, 277.856 L 1006.34, 264.173 L 981.345, 253.774 z "/>
<path style="fill:rgb(0, 255, 0);fill-opacity:0;fill-rule:evenodd;stroke:rgb(255, 0, 45);stroke-width:1;" d="M 338.426, 308.324 L 370.536, 263.991 L 440.046, 293.181 L 426.727, 311.608 L 420.525, 309.054 L 405.017, 330.399 L 369.806, 315.439 L 366.34, 320.182 L 338.426, 308.324 z M 374.185, 301.756 L 392.794, 309.601 L 403.375, 295.006 L 384.584, 287.161 L 374.185, 301.756 z "/>
<path style="fill:rgb(0, 0, 255);fill-opacity:0;fill-rule:evenodd;stroke:rgb(255, 0, 45);stroke-width:1;" d="M 880.821, 595.849 L 913.66, 550.787 L 914.755, 551.152 L 935.006, 559.726 L 929.715, 567.024 L 940.844, 571.767 L 946.135, 564.287 L 953.25, 567.389 L 966.568, 573.044 L 933.729, 618.107 L 880.821, 595.849 z "/>
<path style="fill:rgb(255, 255, 0);fill-opacity:0;fill-rule:evenodd;stroke:rgb(255, 0, 45);stroke-width:1;" d="M 1024.22, 419.065 L 1038.81, 399.179 L 1032.06, 396.26 L 1046.11, 377.104 L 1104.86, 401.916 L 1075.12, 442.6 L 1025.31, 421.619 L 1024.22, 419.065 z "/>
<path style="fill:rgb(255, 0, 0);fill-opacity:0;fill-rule:evenodd;stroke:rgb(255, 0, 45);stroke-width:1;" d="M 718.814, 284.424 L 745.45, 247.754 L 813.865, 276.397 L 798.176, 297.742 L 793.615, 295.918 L 779.932, 314.709 L 766.796, 309.236 L 763.877, 313.25 L 752.93, 308.506 L 767.526, 288.438 L 765.154, 287.343 L 770.627, 279.863 L 764.242, 277.127 L 762.965, 279.133 L 760.046, 277.856 L 761.323, 275.849 L 755.849, 273.66 L 741.254, 293.911 L 718.814, 284.424 z "/>
<path style="fill:rgb(0, 255, 0);fill-opacity:0;fill-rule:evenodd;stroke:rgb(255, 0, 45);stroke-width:1;" d="M 222.395, 467.594 L 254.139, 423.626 L 301.209, 443.147 L 282.052, 469.601 L 282.6, 469.783 L 270.011, 487.298 L 222.395, 467.594 z "/>
<path style="fill:rgb(0, 0, 255);fill-opacity:0;fill-rule:evenodd;stroke:rgb(255, 0, 45);stroke-width:1;" d="M 949.418, 297.742 L 960.73, 282.417 L 962.189, 282.965 L 969.487, 272.93 L 993.022, 282.782 L 1006.34, 264.173 L 1038.81, 277.856 L 1006.89, 321.824 L 949.418, 297.742 z "/>
<path style="fill:rgb(255, 255, 0);fill-opacity:0;fill-rule:evenodd;stroke:rgb(255, 0, 45);stroke-width:1;" d="M 610.992, 780.479 L 643.101, 736.693 L 647.48, 738.518 L 689.076, 756.214 L 657.149, 800 L 610.992, 780.479 z "/>
<path style="fill:rgb(255, 0, 0);fill-opacity:0;fill-rule:evenodd;stroke:rgb(255, 0, 45);stroke-width:1;" d="M 800.547, 387.32 L 809.852, 374.55 L 810.764, 373.09 L 816.967, 375.644 L 832.474, 354.299 L 884.47, 376.009 L 868.78, 397.355 L 874.071, 399.544 L 863.854, 413.957 L 838.312, 403.193 L 841.779, 398.632 L 841.414, 396.442 L 846.522, 389.327 L 837.583, 385.496 L 832.292, 392.611 L 829.555, 393.523 L 826.271, 398.084 L 800.547, 387.32 z "/>
<path style="fill:rgb(0, 255, 0);fill-opacity:0;fill-rule:evenodd;stroke:rgb(255, 0, 45);stroke-width:1;" d="M 539.475, 528.712 L 563.01, 496.42 L 626.682, 523.056 L 626.135, 524.151 L 615.735, 538.198 L 610.81, 536.192 L 595.302, 557.537 L 576.328, 549.51 L 583.079, 540.388 L 578.7, 538.563 L 587.092, 527.07 L 577.605, 523.056 L 565.564, 539.658 L 539.475, 528.712 z "/>
<path style="fill:rgb(0, 0, 255);fill-opacity:0;fill-rule:evenodd;stroke:rgb(255, 0, 45);stroke-width:1;" d="M 647.48, 738.518 L 668.278, 710.057 L 679.407, 694.914 L 721.186, 712.429 L 689.076, 756.214 L 647.48, 738.518 z "/>
<path style="fill:rgb(255, 255, 0);fill-opacity:0;fill-rule:evenodd;stroke:rgb(255, 0, 45);stroke-width:1;" d="M 920.046, 379.475 L 933.546, 360.684 L 922.6, 355.941 L 929.168, 347.184 L 925.519, 345.542 L 938.107, 328.392 L 985.359, 348.096 L 963.831, 377.834 L 952.702, 393.158 L 920.046, 379.475 z "/>
<path style="fill:rgb(255, 0, 0);fill-opacity:0;fill-rule:evenodd;stroke:rgb(255, 0, 45);stroke-width:1;" d="M 873.158, 417.788 L 885.564, 400.639 L 887.389, 401.368 L 893.592, 392.794 L 906.545, 398.084 L 920.046, 379.475 L 952.702, 393.158 L 920.41, 437.674 L 873.158, 417.788 z "/>
<path style="fill:rgb(0, 255, 0);fill-opacity:0;fill-rule:evenodd;stroke:rgb(255, 0, 45);stroke-width:1;" d="M 487.662, 104.173 L 520.502, 58.9282 L 543.489, 68.5975 L 536.921, 77.7195 L 548.962, 82.8278 L 541.847, 92.4971 L 550.239, 96.146 L 543.672, 105.086 L 549.875, 107.64 L 537.104, 124.971 L 487.662, 104.173 z "/>
<path style="fill:rgb(0, 0, 255);fill-opacity:0;fill-rule:evenodd;stroke:rgb(255, 0, 45);stroke-width:1;" d="M 909.464, 125.701 L 924.242, 105.633 L 939.384, 84.8347 L 978.791, 101.437 L 970.034, 113.295 L 947.959, 143.58 L 921.688, 132.634 L 921.14, 133.364 L 913.295, 129.897 L 914.937, 127.891 L 909.464, 125.701 z "/>
<path style="fill:rgb(255, 255, 0);fill-opacity:0;fill-rule:evenodd;stroke:rgb(255, 0, 45);stroke-width:1;" d="M 683.238, 661.71 L 700.205, 638.358 L 728.848, 650.399 L 731.95, 646.385 L 729.578, 645.291 L 734.322, 638.723 L 765.336, 651.676 L 740.525, 685.792 L 683.238, 661.71 z "/>
<path style="fill:rgb(255, 0, 0);fill-opacity:0;fill-rule:evenodd;stroke:rgb(255, 0, 45);stroke-width:1;" d="M 937.377, 225.496 L 950.148, 207.982 L 956.899, 210.718 L 960.73, 205.61 L 948.324, 200.319 L 956.716, 188.826 L 958.905, 185.906 L 1011.27, 207.799 L 1000.68, 222.212 L 988.096, 217.104 L 984.265, 222.212 L 991.38, 225.131 L 978.609, 242.828 L 937.377, 225.496 z "/>
<path style="fill:rgb(0, 255, 0);fill-opacity:0;fill-rule:evenodd;stroke:rgb(255, 0, 45);stroke-width:1;" d="M 764.789, 220.388 L 804.379, 165.656 L 833.204, 177.697 L 831.197, 180.616 L 856.192, 191.197 L 851.083, 198.312 L 825.906, 187.913 L 820.068, 195.941 L 811.859, 192.474 L 801.46, 206.705 L 804.196, 207.982 L 801.277, 211.813 L 806.933, 214.185 L 801.095, 222.03 L 793.615, 232.429 L 764.789, 220.388 z "/>
<path style="fill:rgb(0, 0, 255);fill-opacity:0;fill-rule:evenodd;stroke:rgb(255, 0, 45);stroke-width:1;" d="M 749.099, 365.792 L 758.221, 353.022 L 767.161, 356.853 L 777.56, 342.44 L 768.62, 338.791 L 775.006, 330.217 L 826.271, 351.562 L 825.359, 352.839 L 820.068, 360.319 L 810.582, 356.306 L 800.365, 370.536 L 809.852, 374.55 L 800.547, 387.32 L 749.099, 365.792 z "/>
<path style="fill:rgb(255, 255, 0);fill-opacity:0;fill-rule:evenodd;stroke:rgb(255, 0, 45);stroke-width:1;" d="M 184.447, 519.59 L 203.421, 493.865 L 260.707, 518.13 L 253.957, 527.07 L 256.876, 528.347 L 244.47, 545.131 L 232.976, 540.205 L 184.447, 519.59 z "/>
<path style="fill:rgb(255, 0, 0);fill-opacity:0;fill-rule:evenodd;stroke:rgb(255, 0, 45);stroke-width:1;" d="M 614.094, 425.815 L 646.933, 380.388 L 687.252, 397.355 L 673.751, 416.146 L 656.784, 409.213 L 654.778, 411.95 L 656.967, 412.862 L 655.143, 415.416 L 652.771, 414.504 L 650.217, 418.153 L 662.075, 422.896 L 652.223, 436.397 L 636.169, 429.829 L 633.25, 433.843 L 627.594, 431.471 L 628.871, 429.647 L 626.682, 428.734 L 625.405, 430.559 L 614.094, 425.815 z "/>
<path style="fill:rgb(0, 255, 0);fill-opacity:0;fill-rule:evenodd;stroke:rgb(255, 0, 45);stroke-width:1;" d="M 327.662, 660.981 L 339.339, 645.291 L 350.103, 649.852 L 356.67, 640.73 L 361.596, 642.737 L 364.515, 638.905 L 352.839, 633.979 L 358.312, 626.499 L 370.718, 631.79 L 373.09, 628.506 L 401.368, 640.547 L 372.36, 679.954 L 327.662, 660.981 z "/>
<path style="fill:rgb(0, 0, 255);fill-opacity:0;fill-rule:evenodd;stroke:rgb(255, 0, 45);stroke-width:1;" d="M 424.356, 324.743 L 442.6, 299.749 L 445.884, 299.384 L 450.992, 301.574 L 452.269, 299.932 L 492.406, 316.899 L 491.129, 318.723 L 496.055, 320.73 L 497.332, 323.284 L 481.46, 344.994 L 480.365, 346.636 L 470.878, 342.623 L 469.966, 343.9 L 458.472, 338.974 L 457.742, 339.886 L 432.383, 329.122 L 432.93, 328.21 L 424.356, 324.743 z "/>
<path style="fill:rgb(255, 255, 0);fill-opacity:0;fill-rule:evenodd;stroke:rgb(255, 0, 45);stroke-width:1;" d="M 698.198, 448.985 L 705.861, 438.404 L 712.064, 440.958 L 716.99, 441.688 L 726.659, 428.187 L 716.442, 423.808 L 724.105, 413.227 L 774.276, 434.025 L 764.424, 447.708 L 754.39, 443.512 L 743.626, 458.29 L 753.66, 462.486 L 751.653, 465.222 L 748.369, 469.783 L 698.198, 448.985 z "/>
<path style="fill:rgb(255, 0, 0);fill-opacity:0;fill-rule:evenodd;stroke:rgb(255, 0, 45);stroke-width:1;" d="M 416.328, 698.198 L 444.789, 659.339 L 473.067, 671.38 L 471.243, 673.934 L 473.615, 674.846 L 472.885, 675.758 L 478.723, 678.312 L 463.763, 698.563 L 468.689, 700.753 L 457.56, 715.713 L 416.328, 698.198 z "/>
<path style="fill:rgb(0, 255, 0);fill-opacity:0;fill-rule:evenodd;stroke:rgb(255, 0, 45);stroke-width:1;" d="M 979.521, 462.486 L 1004.15, 428.734 L 1050.67, 448.255 L 1044.1, 457.377 L 1039, 455.188 L 1034.98, 460.661 L 1020.94, 480 L 1020.39, 480.547 L 988.278, 467.047 L 988.643, 466.317 L 979.521, 462.486 z "/>
<path style="fill:rgb(0, 0, 255);fill-opacity:0;fill-rule:evenodd;stroke:rgb(255, 0, 45);stroke-width:1;" d="M 562.645, 702.942 L 574.686, 686.522 L 592.201, 662.44 L 594.755, 658.974 L 627.777, 673.022 L 625.587, 675.941 L 610.262, 696.739 L 595.667, 716.807 L 592.201, 715.348 L 576.876, 708.962 L 562.645, 702.942 z "/>
<path style="fill:rgb(255, 255, 0);fill-opacity:0;fill-rule:evenodd;stroke:rgb(255, 0, 45);stroke-width:1;" d="M 179.704, 125.884 L 193.387, 107.275 L 202.326, 111.106 L 214.185, 95.0513 L 245.929, 108.369 L 236.99, 120.41 L 238.267, 120.958 L 234.618, 125.884 L 241.916, 128.985 L 228.962, 146.682 L 179.704, 125.884 z "/>
<path style="fill:rgb(255, 0, 0);fill-opacity:0;fill-rule:evenodd;stroke:rgb(255, 0, 45);stroke-width:1;" d="M 162.737, 222.395 L 163.649, 221.117 L 171.859, 209.806 L 181.528, 213.82 L 190.285, 201.779 L 188.461, 198.495 L 181.893, 195.758 L 188.643, 186.454 L 235.713, 206.157 L 235.165, 206.705 L 225.861, 219.658 L 216.739, 215.827 L 215.462, 217.651 L 208.712, 227.138 L 209.624, 230.969 L 215.644, 233.523 L 209.624, 242.098 L 162.737, 222.395 z "/>
<path style="fill:rgb(0, 255, 0);fill-opacity:0;fill-rule:evenodd;stroke:rgb(255, 0, 45);stroke-width:1;" d="M 590.924, 147.777 L 616.648, 112.383 L 629.054, 95.2338 L 636.716, 84.6522 L 646.568, 71.1517 L 656.055, 58.1984 L 677.765, 67.5029 L 675.941, 70.057 L 653.865, 100.342 L 648.575, 107.64 L 630.878, 100.16 L 627.412, 105.086 L 629.966, 106.18 L 620.661, 118.951 L 627.959, 122.235 L 625.952, 124.971 L 605.154, 153.615 L 590.924, 147.777 z "/>
<path style="fill:rgb(0, 0, 255);fill-opacity:0;fill-rule:evenodd;stroke:rgb(255, 0, 45);stroke-width:1;" d="M 848.164, 105.815 L 875.895, 67.8677 L 878.997, 69.1448 L 895.416, 76.0775 L 893.774, 78.4493 L 893.957, 80.821 L 910.011, 87.5713 L 902.714, 97.6055 L 894.139, 93.9567 L 889.213, 100.707 L 902.349, 106.18 L 889.943, 123.33 L 848.164, 105.815 z "/>
<path style="fill:rgb(255, 255, 0);fill-opacity:0;fill-rule:evenodd;stroke:rgb(255, 0, 45);stroke-width:1;" d="M 501.528, 261.254 L 511.562, 247.389 L 522.509, 251.95 L 533.09, 237.537 L 522.144, 232.976 L 527.617, 225.496 L 573.044, 244.652 L 567.571, 252.132 L 558.267, 248.119 L 547.685, 262.531 L 556.99, 266.545 L 546.773, 280.41 L 501.528, 261.254 z "/>
<path style="fill:rgb(255, 0, 0);fill-opacity:0;fill-rule:evenodd;stroke:rgb(255, 0, 45);stroke-width:1;" d="M 588.187, 78.0844 L 596.762, 66.4082 L 605.519, 70.057 L 615.371, 56.374 L 606.613, 52.7252 L 615.371, 40.8666 L 656.237, 58.016 L 656.055, 58.1984 L 646.568, 71.1517 L 636.534, 66.9555 L 626.682, 80.4561 L 636.716, 84.6522 L 629.054, 95.2338 L 588.187, 78.0844 z "/>
<path style="fill:rgb(0, 255, 0);fill-opacity:0;fill-rule:evenodd;stroke:rgb(255, 0, 45);stroke-width:1;" d="M 287.526, 171.676 L 299.749, 155.257 L 309.236, 159.27 L 311.243, 156.351 L 307.959, 155.074 L 323.649, 133.546 L 351.927, 145.405 L 322.007, 186.271 L 287.526, 171.676 z "/>
<path style="fill:rgb(0, 0, 255);fill-opacity:0;fill-rule:evenodd;stroke:rgb(255, 0, 45);stroke-width:1;" d="M 516.488, 740.525 L 548.415, 696.921 L 562.645, 702.942 L 576.876, 708.962 L 544.949, 752.566 L 516.488, 740.525 z "/>
<path style="fill:rgb(255, 255, 0);fill-opacity:0;fill-rule:evenodd;stroke:rgb(255, 0, 45);stroke-width:1;" d="M 756.214, 65.8609 L 765.519, 52.7252 L 770.81, 55.0969 L 778.837, 44.1505 L 799.27, 52.7252 L 801.824, 49.0764 L 824.994, 58.7457 L 805.108, 86.2942 L 756.214, 65.8609 z "/>
<path style="fill:rgb(255, 0, 0);fill-opacity:0;fill-rule:evenodd;stroke:rgb(255, 0, 45);stroke-width:1;" d="M 91.7674, 88.6659 L 121.323, 48.5291 L 147.229, 59.4755 L 132.452, 79.5439 L 129.35, 78.2668 L 127.161, 81.3683 L 136.465, 85.1995 L 126.066, 99.6123 L 124.059, 102.349 L 91.7674, 88.6659 z "/>
<path style="fill:rgb(0, 255, 0);fill-opacity:0;fill-rule:evenodd;stroke:rgb(255, 0, 45);stroke-width:1;" d="M 689.806, 189.19 L 700.753, 174.23 L 702.942, 175.143 L 720.274, 151.425 L 735.416, 157.628 L 718.997, 180.251 L 716.807, 181.345 L 720.456, 182.987 L 721.733, 180.981 L 723.922, 181.893 L 723.558, 178.791 L 739.795, 156.534 L 751.106, 161.277 L 721.186, 202.509 L 689.806, 189.19 z "/>
<path style="fill:rgb(0, 0, 255);fill-opacity:0;fill-rule:evenodd;stroke:rgb(255, 0, 45);stroke-width:1;" d="M 104.903, 198.312 L 120.046, 177.149 L 113.478, 174.413 L 124.242, 159.453 L 162.007, 175.325 L 151.243, 190.285 L 144.857, 187.548 L 129.715, 208.712 L 104.903, 198.312 z "/>
<path style="fill:rgb(255, 255, 0);fill-opacity:0;fill-rule:evenodd;stroke:rgb(255, 0, 45);stroke-width:1;" d="M 236.625, 255.599 L 237.537, 254.322 L 263.626, 218.563 L 263.991, 218.016 L 276.214, 222.942 L 275.302, 224.219 L 286.796, 229.145 L 287.526, 227.868 L 291.722, 229.51 L 284.059, 240.091 L 283.147, 239.726 L 275.667, 249.943 L 276.762, 250.49 L 269.647, 260.342 L 268.369, 259.795 L 265.45, 263.808 L 266.727, 264.356 L 262.531, 270.011 L 238.449, 259.977 L 240.456, 257.241 L 236.625, 255.599 z "/>
<path style="fill:rgb(255, 0, 0);fill-opacity:0;fill-rule:evenodd;stroke:rgb(255, 0, 45);stroke-width:1;" d="M 126.066, 99.6123 L 136.465, 85.1995 L 155.804, 58.9282 L 181.163, 69.5097 L 151.425, 110.194 L 146.682, 108.369 L 144.675, 111.106 L 128.803, 104.356 L 130.992, 101.619 L 126.066, 99.6123 z "/>
<path style="fill:rgb(0, 255, 0);fill-opacity:0;fill-rule:evenodd;stroke:rgb(255, 0, 45);stroke-width:1;" d="M 448.073, 654.778 L 473.432, 620.296 L 488.392, 626.499 L 485.473, 630.513 L 506.271, 639.27 L 486.933, 665.724 L 466.135, 656.784 L 464.31, 659.339 L 466.682, 660.433 L 465.405, 662.075 L 448.073, 654.778 z "/>
<path style="fill:rgb(0, 0, 255);fill-opacity:0;fill-rule:evenodd;stroke:rgb(255, 0, 45);stroke-width:1;" d="M 1014.37, 734.869 L 1022.76, 723.375 L 1030.24, 726.659 L 1040.64, 712.429 L 1032.98, 709.145 L 1041.37, 697.834 L 1075.48, 712.064 L 1073.84, 714.253 L 1067.09, 723.558 L 1061.44, 721.003 L 1059.79, 723.375 L 1049.94, 737.058 L 1055.6, 739.43 L 1048.3, 749.282 L 1014.37, 734.869 z "/>
<path style="fill:rgb(255, 255, 0);fill-opacity:0;fill-rule:evenodd;stroke:rgb(255, 0, 45);stroke-width:1;" d="M 228.962, 146.682 L 241.916, 128.985 L 242.463, 128.255 L 248.666, 130.992 L 261.619, 113.295 L 284.424, 122.965 L 267.457, 146.135 L 273.843, 148.871 L 264.538, 161.824 L 228.962, 146.682 z "/>
<path style="fill:rgb(255, 0, 0);fill-opacity:0;fill-rule:evenodd;stroke:rgb(255, 0, 45);stroke-width:1;" d="M 278.039, 484.561 L 299.019, 455.918 L 307.047, 459.202 L 310.878, 454.094 L 334.048, 463.945 L 309.054, 497.697 L 278.039, 484.561 z "/>
<path style="fill:rgb(0, 255, 0);fill-opacity:0;fill-rule:evenodd;stroke:rgb(255, 0, 45);stroke-width:1;" d="M 209.259, 242.463 L 209.624, 242.098 L 215.644, 233.523 L 225.861, 219.658 L 235.165, 206.705 L 263.626, 218.563 L 237.537, 254.322 L 209.259, 242.463 z "/>
<path style="fill:rgb(0, 0, 255);fill-opacity:0;fill-rule:evenodd;stroke:rgb(255, 0, 45);stroke-width:1;" d="M 787.777, 323.101 L 819.886, 278.951 L 842.144, 288.255 L 813.683, 327.662 L 810.946, 331.311 L 810.217, 332.406 L 787.777, 323.101 z "/>
<path style="fill:rgb(255, 255, 0);fill-opacity:0;fill-rule:evenodd;stroke:rgb(255, 0, 45);stroke-width:1;" d="M 265.815, 416.876 L 285.701, 389.692 L 321.095, 404.652 L 304.675, 427.092 L 301.026, 431.836 L 265.815, 416.876 z "/>
<path style="fill:rgb(255, 0, 0);fill-opacity:0;fill-rule:evenodd;stroke:rgb(255, 0, 45);stroke-width:1;" d="M 67.5029, 182.623 L 68.2326, 181.893 L 74.9829, 172.588 L 83.1927, 176.055 L 86.4766, 174.595 L 94.8689, 162.919 L 93.9567, 161.095 L 85.7469, 157.628 L 93.5918, 146.682 L 124.242, 159.453 L 113.478, 174.413 L 98.1528, 195.576 L 67.5029, 182.623 z "/>
<path style="fill:rgb(0, 255, 0);fill-opacity:0;fill-rule:evenodd;stroke:rgb(255, 0, 45);stroke-width:1;" d="M 667.548, 436.214 L 674.481, 426.727 L 683.603, 430.376 L 695.462, 413.957 L 686.705, 410.125 L 693.637, 400.456 L 724.105, 413.227 L 716.442, 423.808 L 705.861, 438.404 L 698.198, 448.985 L 667.548, 436.214 z "/>
<path style="fill:rgb(0, 0, 255);fill-opacity:0;fill-rule:evenodd;stroke:rgb(255, 0, 45);stroke-width:1;" d="M 793.615, 232.429 L 801.095, 222.03 L 805.473, 223.854 L 808.757, 220.753 L 826.271, 196.853 L 847.799, 205.792 L 828.096, 233.341 L 832.474, 235.165 L 824.994, 245.564 L 793.615, 232.429 z "/>
<path style="fill:rgb(255, 255, 0);fill-opacity:0;fill-rule:evenodd;stroke:rgb(255, 0, 45);stroke-width:1;" d="M 344.629, 454.641 L 345.724, 453.181 L 372.908, 416.146 L 401.368, 428.369 L 376.009, 462.851 L 373.09, 466.682 L 370.353, 466.864 L 366.705, 465.405 L 365.428, 463.216 L 367.617, 460.114 L 362.873, 458.107 L 369.624, 448.803 L 372.908, 450.08 L 382.759, 436.579 L 373.455, 432.748 L 363.603, 446.249 L 366.34, 447.343 L 357.035, 459.932 L 344.629, 454.641 z "/>
<path style="fill:rgb(255, 0, 0);fill-opacity:0;fill-rule:evenodd;stroke:rgb(255, 0, 45);stroke-width:1;" d="M 622.121, 718.997 L 631.79, 706.043 L 640.547, 709.875 L 647.845, 700.023 L 647.115, 696.374 L 640.73, 693.637 L 649.304, 682.144 L 679.407, 694.914 L 668.278, 710.057 L 663.17, 707.868 L 647.115, 729.578 L 622.121, 718.997 z "/>
<path style="fill:rgb(0, 255, 0);fill-opacity:0;fill-rule:evenodd;stroke:rgb(255, 0, 45);stroke-width:1;" d="M 680.502, 337.149 L 709.692, 297.013 L 728.483, 304.857 L 715.713, 322.372 L 721.916, 324.926 L 705.678, 347.366 L 705.496, 347.548 L 680.502, 337.149 z "/>
<path style="fill:rgb(0, 0, 255);fill-opacity:0;fill-rule:evenodd;stroke:rgb(255, 0, 45);stroke-width:1;" d="M 917.856, 284.607 L 921.688, 279.133 L 939.932, 253.957 L 942.851, 250.125 L 950.696, 253.409 L 956.899, 244.652 L 963.831, 247.571 L 957.628, 256.328 L 965.291, 259.612 L 940.479, 294.094 L 917.856, 284.607 z "/>
<path style="fill:rgb(255, 255, 0);fill-opacity:0;fill-rule:evenodd;stroke:rgb(255, 0, 45);stroke-width:1;" d="M 494.413, 673.934 L 501.528, 664.082 L 506.819, 666.271 L 510.468, 661.163 L 505.359, 658.974 L 513.751, 647.298 L 516.67, 648.575 L 519.59, 644.561 L 516.488, 643.284 L 519.225, 639.635 L 523.603, 633.432 L 546.408, 643.101 L 523.421, 674.664 L 517.948, 672.292 L 513.934, 677.765 L 512.474, 677.218 L 511.015, 679.042 L 508.278, 679.59 L 503.17, 677.4 L 502.258, 675.029 L 503.535, 673.204 L 502.258, 672.474 L 499.704, 676.123 L 494.413, 673.934 z "/>
<path style="fill:rgb(255, 0, 0);fill-opacity:0;fill-rule:evenodd;stroke:rgb(255, 0, 45);stroke-width:1;" d="M 1014, 649.122 L 1034.62, 620.661 L 1038.08, 616.1 L 1061.98, 626.135 L 1038.08, 659.156 L 1014, 649.122 z "/>
<path style="fill:rgb(0, 255, 0);fill-opacity:0;fill-rule:evenodd;stroke:rgb(255, 0, 45);stroke-width:1;" d="M 475.074, 250.125 L 486.385, 234.436 L 490.582, 236.26 L 506.819, 214.185 L 523.968, 221.3 L 507.731, 243.558 L 512.839, 245.747 L 511.562, 247.389 L 501.528, 261.254 L 475.074, 250.125 z "/>
<path style="fill:rgb(0, 0, 255);fill-opacity:0;fill-rule:evenodd;stroke:rgb(255, 0, 45);stroke-width:1;" d="M 610.81, 632.338 L 640.182, 592.93 L 641.095, 591.836 L 659.339, 599.681 L 629.054, 640.182 L 610.81, 632.338 z "/>
<path style="fill:rgb(255, 255, 0);fill-opacity:0;fill-rule:evenodd;stroke:rgb(255, 0, 45);stroke-width:1;" d="M 707.138, 137.742 L 717.902, 122.965 L 753.843, 138.107 L 764.789, 142.668 L 753.843, 157.446 L 707.138, 137.742 z "/>
<path style="fill:rgb(255, 0, 0);fill-opacity:0;fill-rule:evenodd;stroke:rgb(255, 0, 45);stroke-width:1;" d="M 258.335, 629.966 L 281.14, 598.951 L 283.512, 595.667 L 291.904, 599.133 L 288.438, 603.877 L 285.336, 605.336 L 301.574, 612.269 L 300.296, 614.094 L 281.505, 639.818 L 258.335, 629.966 z "/>
<path style="fill:rgb(0, 255, 0);fill-opacity:0;fill-rule:evenodd;stroke:rgb(255, 0, 45);stroke-width:1;" d="M 164.379, 119.498 L 187.548, 87.9361 L 197.583, 74.2531 L 212.725, 80.6385 L 193.387, 107.275 L 179.704, 125.884 L 164.379, 119.498 z "/>
<path style="fill:rgb(0, 0, 255);fill-opacity:0;fill-rule:evenodd;stroke:rgb(255, 0, 45);stroke-width:1;" d="M 387.138, 386.226 L 408.301, 357.583 L 409.943, 358.312 L 412.315, 355.211 L 417.423, 357.4 L 415.416, 359.954 L 423.444, 363.421 L 424.356, 362.509 L 431.836, 365.61 L 409.578, 395.895 L 387.138, 386.226 z "/>
<path style="fill:rgb(255, 255, 0);fill-opacity:0;fill-rule:evenodd;stroke:rgb(255, 0, 45);stroke-width:1;" d="M 526.705, 376.192 L 542.942, 354.116 L 537.286, 351.745 L 547.138, 338.244 L 569.578, 347.731 L 543.672, 383.307 L 526.705, 376.192 z "/>
<path style="fill:rgb(255, 0, 0);fill-opacity:0;fill-rule:evenodd;stroke:rgb(255, 0, 45);stroke-width:1;" d="M 1020.94, 480 L 1034.98, 460.661 L 1056.88, 469.783 L 1058.7, 467.229 L 1070.19, 471.973 L 1054.14, 494.048 L 1020.94, 480 z "/>
<path style="fill:rgb(0, 255, 0);fill-opacity:0;fill-rule:evenodd;stroke:rgb(255, 0, 45);stroke-width:1;" d="M 544.949, 752.566 L 576.876, 708.962 L 592.201, 715.348 L 560.274, 759.133 L 544.949, 752.566 z "/>
<path style="fill:rgb(0, 0, 255);fill-opacity:0;fill-rule:evenodd;stroke:rgb(255, 0, 45);stroke-width:1;" d="M 1025.13, 111.653 L 1041.73, 89.0308 L 1045.02, 90.4903 L 1047.02, 87.5713 L 1039.18, 84.2873 L 1046.29, 74.618 L 1047.94, 72.4287 L 1069.46, 81.3683 L 1059.43, 95.0513 L 1045.02, 114.937 L 1038.08, 112.018 L 1035.17, 115.849 L 1025.13, 111.653 z "/>
<path style="fill:rgb(255, 255, 0);fill-opacity:0;fill-rule:evenodd;stroke:rgb(255, 0, 45);stroke-width:1;" d="M 1004.7, 170.217 L 1006.16, 168.027 L 1025.68, 141.574 L 1036.99, 125.884 L 1051.58, 131.904 L 1038.27, 150.331 L 1031.7, 159.27 L 1027.5, 165.108 L 1019.11, 176.42 L 1004.7, 170.217 z "/>
<path style="fill:rgb(255, 0, 0);fill-opacity:0;fill-rule:evenodd;stroke:rgb(255, 0, 45);stroke-width:1;" d="M 829.19, 169.669 L 834.116, 163.101 L 848.347, 143.398 L 850.718, 140.114 L 872.611, 149.236 L 856.009, 172.041 L 851.083, 178.791 L 829.19, 169.669 z "/>
<path style="fill:rgb(0, 255, 0);fill-opacity:0;fill-rule:evenodd;stroke:rgb(255, 0, 45);stroke-width:1;" d="M 501.893, 734.322 L 533.82, 690.718 L 548.415, 696.921 L 516.488, 740.525 L 501.893, 734.322 z "/>
<path style="fill:rgb(0, 0, 255);fill-opacity:0;fill-rule:evenodd;stroke:rgb(255, 0, 45);stroke-width:1;" d="M 320.912, 502.805 L 339.704, 477.446 L 346.636, 467.959 L 364.515, 475.621 L 338.791, 510.468 L 320.912, 502.805 z "/>
<path style="fill:rgb(255, 255, 0);fill-opacity:0;fill-rule:evenodd;stroke:rgb(255, 0, 45);stroke-width:1;" d="M 868.233, 263.808 L 880.639, 246.842 L 884.287, 248.301 L 887.571, 243.922 L 883.74, 242.463 L 900.342, 219.475 L 914.937, 225.496 L 912.748, 228.415 L 882.828, 269.829 L 868.233, 263.808 z "/>
<path style="fill:rgb(255, 0, 0);fill-opacity:0;fill-rule:evenodd;stroke:rgb(255, 0, 45);stroke-width:1;" d="M 560.274, 759.133 L 592.201, 715.348 L 595.667, 716.807 L 606.249, 721.368 L 599.681, 730.308 L 574.322, 764.971 L 560.274, 759.133 z "/>
<path style="fill:rgb(0, 255, 0);fill-opacity:0;fill-rule:evenodd;stroke:rgb(255, 0, 45);stroke-width:1;" d="M 826.819, 336.055 L 828.461, 333.865 L 830.285, 331.311 L 856.921, 294.458 L 871.699, 300.661 L 849.441, 331.311 L 841.596, 342.258 L 826.819, 336.055 z "/>
<path style="fill:rgb(0, 0, 255);fill-opacity:0;fill-rule:evenodd;stroke:rgb(255, 0, 45);stroke-width:1;" d="M 476.351, 507.001 L 479.635, 502.44 L 501.345, 472.885 L 502.987, 470.696 L 519.772, 477.811 L 493.136, 514.116 L 476.351, 507.001 z "/>
<path style="fill:rgb(255, 255, 0);fill-opacity:0;fill-rule:evenodd;stroke:rgb(255, 0, 45);stroke-width:1;" d="M 378.381, 527.252 L 398.267, 500.251 L 421.437, 510.103 L 418.518, 514.116 L 403.193, 535.097 L 393.888, 531.083 L 392.429, 533.273 L 378.381, 527.252 z "/>
<path style="fill:rgb(255, 0, 0);fill-opacity:0;fill-rule:evenodd;stroke:rgb(255, 0, 45);stroke-width:1;" d="M 149.236, 113.113 L 151.425, 110.194 L 181.163, 69.5097 L 192.657, 74.4356 L 186.271, 83.3751 L 180.981, 85.1995 L 187.548, 87.9361 L 164.379, 119.498 L 149.236, 113.113 z "/>
<path style="fill:rgb(0, 255, 0);fill-opacity:0;fill-rule:evenodd;stroke:rgb(255, 0, 45);stroke-width:1;" d="M 488.027, 728.483 L 488.757, 727.389 L 513.934, 693.09 L 518.677, 686.522 L 522.144, 685.792 L 533.82, 690.718 L 501.893, 734.322 L 488.027, 728.483 z "/>
<path style="fill:rgb(0, 0, 255);fill-opacity:0;fill-rule:evenodd;stroke:rgb(255, 0, 45);stroke-width:1;" d="M 841.596, 342.258 L 849.441, 331.311 L 871.699, 300.661 L 886.294, 306.682 L 865.861, 334.96 L 856.192, 348.461 L 841.596, 342.258 z "/>
<path style="fill:rgb(255, 255, 0);fill-opacity:0;fill-rule:evenodd;stroke:rgb(255, 0, 45);stroke-width:1;" d="M 854.367, 257.788 L 882.645, 218.928 L 886.477, 213.637 L 900.342, 219.475 L 883.74, 242.463 L 881.003, 241.186 L 877.719, 245.564 L 880.639, 246.842 L 868.233, 263.808 L 854.367, 257.788 z "/>
<path style="fill:rgb(255, 0, 0);fill-opacity:0;fill-rule:evenodd;stroke:rgb(255, 0, 45);stroke-width:1;" d="M 66.4082, 326.203 L 88.4835, 295.918 L 108.369, 304.31 L 88.8483, 331.129 L 86.2942, 334.595 L 66.4082, 326.203 z "/>
<path style="fill:rgb(0, 255, 0);fill-opacity:0;fill-rule:evenodd;stroke:rgb(255, 0, 45);stroke-width:1;" d="M 595.667, 625.77 L 625.222, 586.363 L 640.182, 592.93 L 610.81, 632.338 L 595.667, 625.77 z "/>
<path style="fill:rgb(0, 0, 255);fill-opacity:0;fill-rule:evenodd;stroke:rgb(255, 0, 45);stroke-width:1;" d="M 884.105, 361.596 L 884.835, 360.502 L 905.998, 331.311 L 915.12, 318.723 L 929.168, 324.561 L 906.18, 356.123 L 898.153, 367.434 L 884.105, 361.596 z "/>
<path style="fill:rgb(255, 255, 0);fill-opacity:0;fill-rule:evenodd;stroke:rgb(255, 0, 45);stroke-width:1;" d="M 751.653, 465.222 L 753.66, 462.486 L 764.424, 447.708 L 774.276, 434.025 L 793.432, 442.052 L 770.81, 473.25 L 751.653, 465.222 z "/>
<path style="fill:rgb(255, 0, 0);fill-opacity:0;fill-rule:evenodd;stroke:rgb(255, 0, 45);stroke-width:1;" d="M 553.158, 607.343 L 571.95, 582.166 L 580.707, 585.815 L 583.079, 582.714 L 588.917, 585.268 L 593.295, 579.43 L 598.769, 581.802 L 596.579, 584.903 L 573.227, 616.1 L 553.158, 607.343 z "/>
<path style="fill:rgb(0, 255, 0);fill-opacity:0;fill-rule:evenodd;stroke:rgb(255, 0, 45);stroke-width:1;" d="M 813.683, 327.662 L 842.144, 288.255 L 856.921, 294.458 L 830.285, 331.311 L 828.461, 333.865 L 813.683, 327.662 z "/>
<path style="fill:rgb(0, 0, 255);fill-opacity:0;fill-rule:evenodd;stroke:rgb(255, 0, 45);stroke-width:1;" d="M 839.407, 251.585 L 867.685, 212.543 L 882.645, 218.928 L 854.367, 257.788 L 839.407, 251.585 z "/>
<path style="fill:rgb(255, 255, 0);fill-opacity:0;fill-rule:evenodd;stroke:rgb(255, 0, 45);stroke-width:1;" d="M 856.192, 348.461 L 865.861, 334.96 L 886.294, 306.682 L 900.889, 312.702 L 899.977, 313.979 L 887.936, 330.582 L 883.922, 328.94 L 882.098, 331.311 L 879.544, 334.96 L 883.558, 336.602 L 882.828, 337.697 L 870.604, 354.481 L 856.192, 348.461 z "/>
<path style="fill:rgb(255, 0, 0);fill-opacity:0;fill-rule:evenodd;stroke:rgb(255, 0, 45);stroke-width:1;" d="M 621.026, 160.365 L 642.007, 131.539 L 653.683, 115.485 L 661.528, 118.769 L 653.318, 130.08 L 660.068, 132.816 L 635.621, 166.385 L 621.026, 160.365 z "/>
<path style="fill:rgb(0, 255, 0);fill-opacity:0;fill-rule:evenodd;stroke:rgb(255, 0, 45);stroke-width:1;" d="M 824.994, 245.564 L 832.474, 235.165 L 853.273, 206.522 L 867.685, 212.543 L 839.407, 251.585 L 824.994, 245.564 z "/>
<path style="fill:rgb(0, 0, 255);fill-opacity:0;fill-rule:evenodd;stroke:rgb(255, 0, 45);stroke-width:1;" d="M 870.604, 354.481 L 882.828, 337.697 L 888.119, 339.886 L 891.95, 334.413 L 886.659, 332.223 L 887.936, 330.582 L 899.977, 313.979 L 900.889, 312.702 L 915.12, 318.723 L 905.998, 331.311 L 884.835, 360.502 L 870.604, 354.481 z "/>
<path style="fill:rgb(255, 255, 0);fill-opacity:0;fill-rule:evenodd;stroke:rgb(255, 0, 45);stroke-width:1;" d="M 338.791, 510.468 L 364.515, 475.621 L 380.388, 482.372 L 376.739, 487.48 L 354.846, 517.218 L 338.791, 510.468 z "/>
<path style="fill:rgb(255, 0, 0);fill-opacity:0;fill-rule:evenodd;stroke:rgb(255, 0, 45);stroke-width:1;" d="M 318.723, 433.113 L 341.163, 402.645 L 358.86, 410.308 L 336.42, 440.593 L 318.723, 433.113 z "/>
<path style="fill:rgb(0, 255, 0);fill-opacity:0;fill-rule:evenodd;stroke:rgb(255, 0, 45);stroke-width:1;" d="M 434.572, 524.333 L 441.14, 515.393 L 451.722, 519.772 L 453.729, 517.218 L 482.007, 529.259 L 471.06, 544.219 L 442.417, 531.995 L 444.971, 528.712 L 434.572, 524.333 z "/>
<path style="fill:rgb(0, 0, 255);fill-opacity:0;fill-rule:evenodd;stroke:rgb(255, 0, 45);stroke-width:1;" d="M 588.552, 770.992 L 613.911, 736.328 L 628.871, 742.714 L 603.512, 777.377 L 588.552, 770.992 z "/>
<path style="fill:rgb(255, 255, 0);fill-opacity:0;fill-rule:evenodd;stroke:rgb(255, 0, 45);stroke-width:1;" d="M 243.193, 568.119 L 275.485, 524.515 L 287.343, 529.624 L 285.519, 531.995 L 263.444, 561.916 L 255.051, 573.227 L 243.193, 568.119 z "/>
<path style="fill:rgb(255, 0, 0);fill-opacity:0;fill-rule:evenodd;stroke:rgb(255, 0, 45);stroke-width:1;" d="M 331.676, 447.161 L 336.42, 440.593 L 358.86, 410.308 L 372.908, 416.146 L 345.724, 453.181 L 331.676, 447.161 z "/>
<path style="fill:rgb(0, 255, 0);fill-opacity:0;fill-rule:evenodd;stroke:rgb(255, 0, 45);stroke-width:1;" d="M 566.659, 137.377 L 577.058, 123.147 L 579.247, 124.059 L 585.815, 115.12 L 583.444, 114.208 L 594.39, 99.2474 L 599.133, 92.6796 L 606.249, 95.7811 L 601.87, 101.802 L 607.343, 104.173 L 604.971, 107.275 L 579.247, 142.668 L 566.659, 137.377 z "/>
<path style="fill:rgb(0, 0, 255);fill-opacity:0;fill-rule:evenodd;stroke:rgb(255, 0, 45);stroke-width:1;" d="M 582.349, 469.966 L 614.094, 425.815 L 625.405, 430.559 L 613.181, 447.526 L 593.66, 474.527 L 582.349, 469.966 z "/>
<path style="fill:rgb(255, 255, 0);fill-opacity:0;fill-rule:evenodd;stroke:rgb(255, 0, 45);stroke-width:1;" d="M 574.322, 764.971 L 599.681, 730.308 L 613.911, 736.328 L 588.552, 770.992 L 574.322, 764.971 z "/>
<path style="fill:rgb(255, 0, 0);fill-opacity:0;fill-rule:evenodd;stroke:rgb(255, 0, 45);stroke-width:1;" d="M 635.621, 166.385 L 660.068, 132.816 L 661.528, 130.81 L 676.488, 137.195 L 665.724, 151.973 L 663.9, 154.527 L 658.244, 152.155 L 652.406, 160 L 658.062, 162.554 L 650.582, 172.771 L 635.621, 166.385 z "/>
<path style="fill:rgb(0, 255, 0);fill-opacity:0;fill-rule:evenodd;stroke:rgb(255, 0, 45);stroke-width:1;" d="M 292.269, 646.021 L 324.014, 602.6 L 330.764, 605.336 L 329.669, 606.978 L 334.23, 608.985 L 323.466, 623.763 L 303.58, 650.764 L 292.269, 646.021 z "/>
<path style="fill:rgb(0, 0, 255);fill-opacity:0;fill-rule:evenodd;stroke:rgb(255, 0, 45);stroke-width:1;" d="M 412.497, 541.665 L 418.883, 533.09 L 464.857, 552.611 L 455.371, 565.382 L 442.052, 559.726 L 445.154, 555.53 L 428.369, 548.415 L 426.91, 549.327 L 425.998, 549.692 L 424.173, 549.875 L 422.349, 549.692 L 420.525, 549.327 L 419.065, 548.415 L 418.518, 547.868 L 417.605, 546.591 L 417.241, 545.314 L 417.423, 543.854 L 412.497, 541.665 z "/>
<path style="fill:rgb(255, 255, 0);fill-opacity:0;fill-rule:evenodd;stroke:rgb(255, 0, 45);stroke-width:1;" d="M 773.729, 486.021 L 779.202, 478.54 L 802.737, 445.884 L 814.778, 450.992 L 812.588, 453.729 L 810.582, 456.83 L 791.973, 482.554 L 785.77, 491.129 L 773.729, 486.021 z "/>
<path style="fill:rgb(255, 0, 0);fill-opacity:0;fill-rule:evenodd;stroke:rgb(255, 0, 45);stroke-width:1;" d="M 882.828, 269.829 L 912.748, 228.415 L 924.424, 233.341 L 922.965, 235.348 L 894.504, 274.755 L 882.828, 269.829 z "/>
<path style="fill:rgb(0, 255, 0);fill-opacity:0;fill-rule:evenodd;stroke:rgb(255, 0, 45);stroke-width:1;" d="M 150.878, 213.273 L 174.595, 180.616 L 188.643, 186.454 L 181.893, 195.758 L 171.859, 209.806 L 163.649, 221.117 L 155.986, 218.016 L 157.446, 216.009 L 150.878, 213.273 z "/>
<path style="fill:rgb(0, 0, 255);fill-opacity:0;fill-rule:evenodd;stroke:rgb(255, 0, 45);stroke-width:1;" d="M 715.895, 112.566 L 730.49, 92.4971 L 752.748, 101.984 L 738.153, 121.87 L 736.146, 124.607 L 724.835, 119.863 L 726.842, 117.127 L 715.895, 112.566 z "/>
<path style="fill:rgb(255, 255, 0);fill-opacity:0;fill-rule:evenodd;stroke:rgb(255, 0, 45);stroke-width:1;" d="M 326.203, 599.316 L 331.129, 592.748 L 355.211, 560.091 L 356.306, 558.632 L 367.799, 563.74 L 337.697, 604.242 L 326.203, 599.316 z "/>
<path style="fill:rgb(255, 0, 0);fill-opacity:0;fill-rule:evenodd;stroke:rgb(255, 0, 45);stroke-width:1;" d="M 392.976, 631.06 L 422.349, 591.288 L 434.208, 596.214 L 404.652, 635.986 L 392.976, 631.06 z "/>
<path style="fill:rgb(0, 255, 0);fill-opacity:0;fill-rule:evenodd;stroke:rgb(255, 0, 45);stroke-width:1;" d="M 591.653, 219.293 L 610.445, 193.569 L 627.412, 200.684 L 608.073, 227.32 L 604.789, 228.233 L 600.41, 226.408 L 600.046, 223.672 L 596.944, 224.949 L 592.383, 222.942 L 594.39, 220.57 L 591.653, 219.293 z "/>
<path style="fill:rgb(0, 0, 255);fill-opacity:0;fill-rule:evenodd;stroke:rgb(255, 0, 45);stroke-width:1;" d="M 337.697, 604.242 L 367.799, 563.74 L 379.293, 568.483 L 352.292, 604.789 L 349.008, 609.168 L 337.697, 604.242 z "/>
<path style="fill:rgb(255, 255, 0);fill-opacity:0;fill-rule:evenodd;stroke:rgb(255, 0, 45);stroke-width:1;" d="M 894.504, 274.755 L 922.965, 235.348 L 934.823, 240.274 L 928.438, 249.213 L 910.011, 274.39 L 906.18, 279.681 L 894.504, 274.755 z "/>
<path style="fill:rgb(255, 0, 0);fill-opacity:0;fill-rule:evenodd;stroke:rgb(255, 0, 45);stroke-width:1;" d="M 650.582, 172.771 L 658.062, 162.554 L 663.9, 154.527 L 665.724, 151.973 L 669.738, 153.615 L 679.59, 139.932 L 683.968, 141.756 L 689.806, 133.729 L 695.279, 136.1 L 692.725, 139.384 L 664.265, 178.609 L 650.582, 172.771 z "/>
<path style="fill:rgb(0, 255, 0);fill-opacity:0;fill-rule:evenodd;stroke:rgb(255, 0, 45);stroke-width:1;" d="M 554.618, 132.452 L 582.349, 94.3216 L 594.39, 99.2474 L 583.444, 114.208 L 577.058, 123.147 L 566.659, 137.377 L 554.618, 132.452 z "/>
<path style="fill:rgb(0, 0, 255);fill-opacity:0;fill-rule:evenodd;stroke:rgb(255, 0, 45);stroke-width:1;" d="M 605.154, 153.615 L 625.952, 124.971 L 642.007, 131.539 L 621.026, 160.365 L 605.154, 153.615 z "/>
<path style="fill:rgb(255, 255, 0);fill-opacity:0;fill-rule:evenodd;stroke:rgb(255, 0, 45);stroke-width:1;" d="M 280.593, 640.912 L 281.505, 639.818 L 300.296, 614.094 L 305.405, 616.1 L 313.067, 605.519 L 308.141, 603.512 L 312.338, 597.674 L 324.014, 602.6 L 292.269, 646.021 L 280.593, 640.912 z "/>
<path style="fill:rgb(255, 0, 0);fill-opacity:0;fill-rule:evenodd;stroke:rgb(255, 0, 45);stroke-width:1;" d="M 664.265, 178.609 L 692.725, 139.384 L 698.746, 141.938 L 694.367, 148.141 L 690.718, 149.601 L 699.84, 153.432 L 698.563, 155.074 L 677.4, 184.082 L 664.265, 178.609 z "/>
<path style="fill:rgb(0, 255, 0);fill-opacity:0;fill-rule:evenodd;stroke:rgb(255, 0, 45);stroke-width:1;" d="M 1019.11, 176.42 L 1027.5, 165.108 L 1029.33, 164.561 L 1031.7, 161.277 L 1031.7, 159.27 L 1038.27, 150.331 L 1043.19, 152.338 L 1044.83, 149.966 L 1041.19, 148.506 L 1046.84, 140.844 L 1058.15, 145.587 L 1052.5, 153.25 L 1048.67, 151.608 L 1047.02, 153.979 L 1052.5, 156.169 L 1045.93, 165.108 L 1043.19, 166.021 L 1040.82, 169.304 L 1041.55, 170.946 L 1033.34, 182.44 L 1019.11, 176.42 z "/>
<path style="fill:rgb(0, 0, 255);fill-opacity:0;fill-rule:evenodd;stroke:rgb(255, 0, 45);stroke-width:1;" d="M 685.063, 582.714 L 702.212, 558.997 L 721.551, 567.024 L 704.219, 590.741 L 685.063, 582.714 z "/>
<path style="fill:rgb(255, 255, 0);fill-opacity:0;fill-rule:evenodd;stroke:rgb(255, 0, 45);stroke-width:1;" d="M 935.006, 80.2737 L 945.587, 65.8609 L 966.203, 37.5827 L 976.784, 41.9612 L 945.587, 84.6522 L 935.006, 80.2737 z "/>
<path style="fill:rgb(255, 0, 0);fill-opacity:0;fill-rule:evenodd;stroke:rgb(255, 0, 45);stroke-width:1;" d="M 982.623, 158.176 L 1001.96, 131.904 L 1010.72, 119.863 L 1022.21, 124.789 L 1013.64, 136.465 L 994.299, 163.101 L 982.623, 158.176 z "/>
<path style="fill:rgb(0, 255, 0);fill-opacity:0;fill-rule:evenodd;stroke:rgb(255, 0, 45);stroke-width:1;" d="M 199.407, 66.7731 L 204.88, 59.6579 L 225.496, 31.3797 L 237.172, 36.3056 L 216.009, 65.1311 L 207.982, 76.0775 L 202.144, 73.5234 L 205.245, 69.3273 L 199.407, 66.7731 z "/>
<path style="fill:rgb(0, 0, 255);fill-opacity:0;fill-rule:evenodd;stroke:rgb(255, 0, 45);stroke-width:1;" d="M 677.4, 184.082 L 698.563, 155.074 L 704.036, 157.446 L 704.219, 155.257 L 711.152, 145.77 L 718.997, 149.054 L 702.577, 171.311 L 701.117, 170.764 L 699.84, 172.406 L 700.753, 172.771 L 700.205, 173.501 L 701.117, 173.865 L 700.753, 174.23 L 689.806, 189.19 L 677.4, 184.082 z "/>
<path style="fill:rgb(255, 255, 0);fill-opacity:0;fill-rule:evenodd;stroke:rgb(255, 0, 45);stroke-width:1;" d="M 314.892, 655.507 L 339.339, 622.303 L 347.913, 625.952 L 349.373, 623.763 L 353.751, 625.587 L 339.339, 645.291 L 327.662, 660.981 L 314.892, 655.507 z "/>
<path style="fill:rgb(255, 0, 0);fill-opacity:0;fill-rule:evenodd;stroke:rgb(255, 0, 45);stroke-width:1;" d="M 945.587, 84.6522 L 976.784, 41.9612 L 987.001, 46.1574 L 966.385, 74.618 L 955.804, 89.0308 L 945.587, 84.6522 z "/>
<path style="fill:rgb(0, 255, 0);fill-opacity:0;fill-rule:evenodd;stroke:rgb(255, 0, 45);stroke-width:1;" d="M 167.662, 547.868 L 174.23, 538.928 L 211.813, 554.983 L 222.577, 559.361 L 222.395, 559.726 L 216.009, 568.483 L 167.662, 547.868 z "/>
<path style="fill:rgb(0, 0, 255);fill-opacity:0;fill-rule:evenodd;stroke:rgb(255, 0, 45);stroke-width:1;" d="M 698.198, 517.765 L 700.753, 514.299 L 715.165, 494.23 L 716.807, 492.223 L 733.774, 499.339 L 715.348, 524.88 L 698.198, 517.765 z "/>
<path style="fill:rgb(255, 255, 0);fill-opacity:0;fill-rule:evenodd;stroke:rgb(255, 0, 45);stroke-width:1;" d="M 246.112, 626.317 L 273.113, 589.647 L 278.039, 582.896 L 283.877, 585.45 L 275.667, 596.579 L 281.14, 598.951 L 258.335, 629.966 L 257.423, 631.243 L 246.112, 626.317 z "/>
<path style="fill:rgb(255, 0, 0);fill-opacity:0;fill-rule:evenodd;stroke:rgb(255, 0, 45);stroke-width:1;" d="M 881.551, 60.2052 L 892.497, 45.2452 L 921.323, 57.4686 L 910.376, 72.4287 L 881.551, 60.2052 z "/>
<path style="fill:rgb(0, 255, 0);fill-opacity:0;fill-rule:evenodd;stroke:rgb(255, 0, 45);stroke-width:1;" d="M 304.675, 427.092 L 321.095, 404.652 L 326.933, 396.625 L 341.163, 402.645 L 318.723, 433.113 L 304.675, 427.092 z "/>
<path style="fill:rgb(0, 0, 255);fill-opacity:0;fill-rule:evenodd;stroke:rgb(255, 0, 45);stroke-width:1;" d="M 607.891, 566.842 L 616.648, 554.983 L 635.986, 528.347 L 647.845, 533.273 L 646.203, 535.462 L 628.871, 559.544 L 626.499, 558.632 L 617.56, 570.855 L 607.891, 566.842 z "/>
<path style="fill:rgb(255, 255, 0);fill-opacity:0;fill-rule:evenodd;stroke:rgb(255, 0, 45);stroke-width:1;" d="M 914.572, 71.699 L 945.77, 28.8255 L 955.621, 33.0217 L 935.006, 61.4823 L 924.607, 75.8951 L 914.572, 71.699 z "/>
<path style="fill:rgb(255, 0, 0);fill-opacity:0;fill-rule:evenodd;stroke:rgb(255, 0, 45);stroke-width:1;" d="M 264.538, 161.824 L 273.843, 148.871 L 294.276, 121.14 L 301.756, 124.424 L 297.742, 130.08 L 298.107, 131.539 L 294.276, 136.83 L 291.539, 138.472 L 295.553, 140.114 L 276.032, 166.75 L 264.538, 161.824 z "/>
<path style="fill:rgb(0, 255, 0);fill-opacity:0;fill-rule:evenodd;stroke:rgb(255, 0, 45);stroke-width:1;" d="M 177.697, 529.076 L 184.447, 519.59 L 232.976, 540.205 L 229.51, 544.766 L 227.503, 545.861 L 224.036, 544.219 L 223.854, 542.03 L 221.847, 541.3 L 218.198, 546.226 L 180.616, 530.353 L 177.697, 529.076 z "/>
<path style="fill:rgb(0, 0, 255);fill-opacity:0;fill-rule:evenodd;stroke:rgb(255, 0, 45);stroke-width:1;" d="M 136.83, 209.989 L 151.243, 190.285 L 162.007, 175.325 L 174.595, 180.616 L 150.878, 213.273 L 145.04, 210.718 L 143.58, 212.908 L 136.83, 209.989 z "/>
<path style="fill:rgb(255, 255, 0);fill-opacity:0;fill-rule:evenodd;stroke:rgb(255, 0, 45);stroke-width:1;" d="M 960.547, 627.229 L 981.163, 599.133 L 995.758, 605.336 L 975.69, 633.067 L 971.494, 632.52 L 968.21, 631.79 L 966.021, 630.878 L 964.196, 629.783 L 960.547, 627.229 z "/>
<path style="fill:rgb(255, 0, 0);fill-opacity:0;fill-rule:evenodd;stroke:rgb(255, 0, 45);stroke-width:1;" d="M 473.432, 620.296 L 480.182, 610.992 L 525.975, 630.513 L 523.603, 633.432 L 519.225, 639.635 L 488.392, 626.499 L 473.432, 620.296 z "/>
<path style="fill:rgb(0, 255, 0);fill-opacity:0;fill-rule:evenodd;stroke:rgb(255, 0, 45);stroke-width:1;" d="M 974.778, 634.162 L 975.69, 633.067 L 995.758, 605.336 L 996.306, 604.607 L 1010.54, 610.627 L 989.92, 638.905 L 989.008, 640.182 L 974.778, 634.162 z "/>
<path style="fill:rgb(0, 0, 255);fill-opacity:0;fill-rule:evenodd;stroke:rgb(255, 0, 45);stroke-width:1;" d="M 409.031, 396.442 L 409.578, 395.895 L 431.836, 365.61 L 438.769, 356.488 L 446.066, 359.407 L 436.944, 371.813 L 434.755, 370.901 L 433.478, 372.543 L 440.593, 375.462 L 438.769, 378.016 L 421.254, 401.733 L 409.031, 396.442 z "/>
<path style="fill:rgb(255, 255, 0);fill-opacity:0;fill-rule:evenodd;stroke:rgb(255, 0, 45);stroke-width:1;" d="M 579.247, 142.668 L 604.971, 107.275 L 616.648, 112.383 L 590.924, 147.777 L 579.247, 142.668 z "/>
<path style="fill:rgb(255, 0, 0);fill-opacity:0;fill-rule:evenodd;stroke:rgb(255, 0, 45);stroke-width:1;" d="M 542.577, 127.343 L 552.976, 113.113 L 555.348, 114.025 L 563.922, 102.349 L 561.551, 101.254 L 565.929, 95.4162 L 568.483, 96.5108 L 573.044, 90.3079 L 582.349, 94.3216 L 554.618, 132.452 L 542.577, 127.343 z "/>
<path style="fill:rgb(0, 255, 0);fill-opacity:0;fill-rule:evenodd;stroke:rgb(255, 0, 45);stroke-width:1;" d="M 946.317, 621.209 L 966.75, 593.113 L 981.163, 599.133 L 960.547, 627.229 L 957.811, 627.777 L 955.439, 627.229 L 953.432, 625.587 L 953.067, 623.945 L 946.317, 621.209 z "/>
<path style="fill:rgb(0, 0, 255);fill-opacity:0;fill-rule:evenodd;stroke:rgb(255, 0, 45);stroke-width:1;" d="M 727.754, 356.853 L 746.18, 331.311 L 756.032, 317.811 L 766.613, 322.189 L 757.127, 335.507 L 738.335, 361.231 L 727.754, 356.853 z "/>
<path style="fill:rgb(255, 255, 0);fill-opacity:0;fill-rule:evenodd;stroke:rgb(255, 0, 45);stroke-width:1;" d="M 524.88, 548.233 L 531.266, 539.84 L 560.091, 552.429 L 579.43, 560.639 L 573.044, 569.031 L 568.301, 567.024 L 524.88, 548.233 z "/>
<path style="fill:rgb(255, 0, 0);fill-opacity:0;fill-rule:evenodd;stroke:rgb(255, 0, 45);stroke-width:1;" d="M 132.816, 35.2109 L 143.033, 21.3455 L 172.406, 33.7514 L 162.189, 47.6169 L 132.816, 35.2109 z "/>
<path style="fill:rgb(0, 255, 0);fill-opacity:0;fill-rule:evenodd;stroke:rgb(255, 0, 45);stroke-width:1;" d="M 498.426, 583.626 L 505.359, 574.504 L 548.78, 593.295 L 541.847, 602.417 L 498.426, 583.626 z "/>
<path style="fill:rgb(0, 0, 255);fill-opacity:0;fill-rule:evenodd;stroke:rgb(255, 0, 45);stroke-width:1;" d="M 216.009, 65.1311 L 237.172, 36.3056 L 249.943, 41.7788 L 225.496, 74.9829 L 224.401, 76.6249 L 219.111, 74.4356 L 223.672, 68.2326 L 216.009, 65.1311 z "/>
<path style="fill:rgb(255, 255, 0);fill-opacity:0;fill-rule:evenodd;stroke:rgb(255, 0, 45);stroke-width:1;" d="M 384.766, 627.412 L 390.239, 620.114 L 396.807, 617.925 L 402.098, 610.992 L 394.983, 607.891 L 413.227, 583.079 L 424.721, 588.005 L 422.349, 591.288 L 392.976, 631.06 L 384.766, 627.412 z "/>
<path style="fill:rgb(255, 0, 0);fill-opacity:0;fill-rule:evenodd;stroke:rgb(255, 0, 45);stroke-width:1;" d="M 477.081, 192.474 L 507.184, 151.243 L 516.853, 155.257 L 494.048, 186.271 L 486.568, 196.488 L 477.081, 192.474 z "/>
<path style="fill:rgb(0, 255, 0);fill-opacity:0;fill-rule:evenodd;stroke:rgb(255, 0, 45);stroke-width:1;" d="M 303.58, 650.764 L 323.466, 623.763 L 331.311, 627.229 L 332.406, 625.77 L 330.399, 622.121 L 338.426, 611.174 L 345.359, 614.094 L 339.339, 622.303 L 314.892, 655.507 L 303.58, 650.764 z "/>
<path style="fill:rgb(0, 0, 255);fill-opacity:0;fill-rule:evenodd;stroke:rgb(255, 0, 45);stroke-width:1;" d="M 435.667, 485.838 L 440.228, 479.635 L 458.472, 454.823 L 459.749, 452.999 L 471.79, 458.107 L 470.513, 459.932 L 452.452, 484.379 L 447.708, 490.946 L 435.667, 485.838 z "/>
<path style="fill:rgb(255, 255, 0);fill-opacity:0;fill-rule:evenodd;stroke:rgb(255, 0, 45);stroke-width:1;" d="M 319.088, 587.64 L 343.17, 554.983 L 355.211, 560.091 L 331.129, 592.748 L 319.088, 587.64 z "/>
<path style="fill:rgb(255, 0, 0);fill-opacity:0;fill-rule:evenodd;stroke:rgb(255, 0, 45);stroke-width:1;" d="M 309.054, 497.697 L 334.048, 463.945 L 337.697, 458.837 L 344.812, 461.938 L 337.149, 472.338 L 335.69, 471.973 L 334.23, 471.973 L 332.771, 472.52 L 332.223, 472.885 L 331.494, 473.979 L 339.704, 477.446 L 320.912, 502.805 L 309.054, 497.697 z "/>
<path style="fill:rgb(0, 255, 0);fill-opacity:0;fill-rule:evenodd;stroke:rgb(255, 0, 45);stroke-width:1;" d="M 518.312, 557.172 L 524.88, 548.233 L 568.301, 567.024 L 561.733, 575.964 L 518.312, 557.172 z "/>
<path style="fill:rgb(0, 0, 255);fill-opacity:0;fill-rule:evenodd;stroke:rgb(255, 0, 45);stroke-width:1;" d="M 886.842, 207.982 L 894.322, 197.583 L 913.66, 170.946 L 924.242, 175.325 L 905.268, 201.414 L 897.423, 212.36 L 886.842, 207.982 z "/>
<path style="fill:rgb(255, 255, 0);fill-opacity:0;fill-rule:evenodd;stroke:rgb(255, 0, 45);stroke-width:1;" d="M 418.883, 533.09 L 425.086, 524.698 L 442.417, 531.995 L 471.06, 544.219 L 464.857, 552.611 L 418.883, 533.09 z "/>
<path style="fill:rgb(255, 0, 0);fill-opacity:0;fill-rule:evenodd;stroke:rgb(255, 0, 45);stroke-width:1;" d="M 366.705, 522.326 L 394.071, 485.291 L 401.186, 488.392 L 393.706, 498.426 L 398.267, 500.251 L 378.381, 527.252 L 366.705, 522.326 z "/>
<path style="fill:rgb(0, 255, 0);fill-opacity:0;fill-rule:evenodd;stroke:rgb(255, 0, 45);stroke-width:1;" d="M 223.124, 616.648 L 242.828, 589.829 L 251.95, 577.423 L 256.146, 579.247 L 258.518, 580.16 L 254.322, 585.815 L 250.673, 587.457 L 249.213, 589.464 L 255.599, 592.201 L 254.139, 594.39 L 234.253, 621.391 L 223.124, 616.648 z "/>
<path style="fill:rgb(0, 0, 255);fill-opacity:0;fill-rule:evenodd;stroke:rgb(255, 0, 45);stroke-width:1;" d="M 354.846, 517.218 L 376.739, 487.48 L 385.131, 490.946 L 390.422, 483.649 L 394.071, 485.291 L 366.705, 522.326 L 354.846, 517.218 z "/>
<path style="fill:rgb(255, 255, 0);fill-opacity:0;fill-rule:evenodd;stroke:rgb(255, 0, 45);stroke-width:1;" d="M 505.359, 574.504 L 511.745, 565.747 L 555.348, 584.538 L 548.78, 593.295 L 505.359, 574.504 z "/>
<path style="fill:rgb(255, 0, 0);fill-opacity:0;fill-rule:evenodd;stroke:rgb(255, 0, 45);stroke-width:1;" d="M 511.745, 565.747 L 518.312, 557.172 L 561.733, 575.964 L 555.348, 584.538 L 511.745, 565.747 z "/>
<path style="fill:rgb(0, 255, 0);fill-opacity:0;fill-rule:evenodd;stroke:rgb(255, 0, 45);stroke-width:1;" d="M 959.635, 148.506 L 981.71, 118.221 L 986.089, 112.201 L 994.664, 115.849 L 990.832, 121.14 L 984.812, 122.235 L 983.535, 124.059 L 990.65, 127.161 L 971.494, 153.432 L 959.635, 148.506 z "/>
<path style="fill:rgb(0, 0, 255);fill-opacity:0;fill-rule:evenodd;stroke:rgb(255, 0, 45);stroke-width:1;" d="M 488.757, 355.758 L 512.109, 323.649 L 523.968, 328.575 L 505.542, 353.751 L 500.616, 360.684 L 488.757, 355.758 z "/>
<path style="fill:rgb(255, 255, 0);fill-opacity:0;fill-rule:evenodd;stroke:rgb(255, 0, 45);stroke-width:1;" d="M 456.1, 416.146 L 459.202, 411.95 L 484.379, 377.286 L 490.399, 379.84 L 480.73, 393.341 L 486.385, 395.713 L 470.696, 417.058 L 467.777, 421.072 L 456.1, 416.146 z "/>
<path style="fill:rgb(255, 0, 0);fill-opacity:0;fill-rule:evenodd;stroke:rgb(255, 0, 45);stroke-width:1;" d="M 225.496, 74.9829 L 249.943, 41.7788 L 261.254, 46.5222 L 241.733, 73.3409 L 236.807, 79.9088 L 225.496, 74.9829 z "/>
<path style="fill:rgb(0, 255, 0);fill-opacity:0;fill-rule:evenodd;stroke:rgb(255, 0, 45);stroke-width:1;" d="M 234.253, 621.391 L 254.139, 594.39 L 261.437, 597.491 L 261.984, 594.755 L 267.457, 587.275 L 273.113, 589.647 L 246.112, 626.317 L 237.719, 622.851 L 234.253, 621.391 z "/>
<path style="fill:rgb(0, 0, 255);fill-opacity:0;fill-rule:evenodd;stroke:rgb(255, 0, 45);stroke-width:1;" d="M 507.548, 371.083 L 511.745, 365.428 L 520.684, 353.022 L 535.097, 333.318 L 547.138, 338.244 L 537.286, 351.745 L 528.164, 364.515 L 521.231, 361.596 L 512.839, 373.09 L 507.548, 371.083 z "/>
<path style="fill:rgb(255, 255, 0);fill-opacity:0;fill-rule:evenodd;stroke:rgb(255, 0, 45);stroke-width:1;" d="M 276.032, 166.75 L 295.553, 140.114 L 300.296, 142.303 L 307.412, 132.634 L 314.162, 135.371 L 299.749, 155.257 L 287.526, 171.676 L 276.032, 166.75 z "/>
<path style="fill:rgb(255, 0, 0);fill-opacity:0;fill-rule:evenodd;stroke:rgb(255, 0, 45);stroke-width:1;" d="M 576.328, 220.935 L 584.903, 209.076 L 600.41, 187.913 L 601.323, 186.636 L 612.269, 191.197 L 610.445, 193.569 L 591.653, 219.293 L 587.092, 225.496 L 576.328, 220.935 z "/>
<path style="fill:rgb(0, 255, 0);fill-opacity:0;fill-rule:evenodd;stroke:rgb(255, 0, 45);stroke-width:1;" d="M 241.733, 73.3409 L 261.254, 46.5222 L 262.896, 44.333 L 274.572, 49.0764 L 272.748, 51.4481 L 248.483, 84.6522 L 243.193, 82.4629 L 247.936, 75.8951 L 241.733, 73.3409 z "/>
<path style="fill:rgb(0, 0, 255);fill-opacity:0;fill-rule:evenodd;stroke:rgb(255, 0, 45);stroke-width:1;" d="M 263.079, 82.2805 L 263.444, 81.7332 L 282.6, 55.6442 L 284.789, 52.5428 L 297.195, 57.8335 L 275.485, 87.5713 L 263.079, 82.2805 z "/>
<path style="fill:rgb(255, 255, 0);fill-opacity:0;fill-rule:evenodd;stroke:rgb(255, 0, 45);stroke-width:1;" d="M 470.696, 417.058 L 486.385, 395.713 L 496.42, 381.665 L 503.17, 384.584 L 495.325, 395.165 L 500.798, 397.355 L 498.609, 400.274 L 482.737, 422.166 L 470.696, 417.058 z "/>
<path style="fill:rgb(255, 0, 0);fill-opacity:0;fill-rule:evenodd;stroke:rgb(255, 0, 45);stroke-width:1;" d="M 307.959, 582.896 L 310.331, 579.795 L 331.129, 551.699 L 332.223, 550.239 L 343.17, 554.983 L 319.088, 587.64 L 317.446, 587.275 L 314.344, 586.545 L 311.608, 585.45 L 310.148, 584.721 L 307.959, 582.896 z "/>
<path style="fill:rgb(0, 255, 0);fill-opacity:0;fill-rule:evenodd;stroke:rgb(255, 0, 45);stroke-width:1;" d="M 584.538, 621.026 L 604.242, 594.755 L 610.08, 597.309 L 619.932, 584.173 L 625.222, 586.363 L 595.667, 625.77 L 584.538, 621.026 z "/>
<path style="fill:rgb(0, 0, 255);fill-opacity:0;fill-rule:evenodd;stroke:rgb(255, 0, 45);stroke-width:1;" d="M 705.496, 347.548 L 705.678, 347.366 L 721.916, 324.926 L 730.855, 312.52 L 741.254, 316.899 L 734.322, 326.385 L 730.308, 332.041 L 715.895, 351.927 L 705.496, 347.548 z "/>
<path style="fill:rgb(255, 255, 0);fill-opacity:0;fill-rule:evenodd;stroke:rgb(255, 0, 45);stroke-width:1;" d="M 367.982, 603.147 L 371.631, 598.221 L 390.057, 573.227 L 402.098, 578.335 L 383.854, 602.965 L 379.84, 608.255 L 367.982, 603.147 z "/>
<path style="fill:rgb(255, 0, 0);fill-opacity:0;fill-rule:evenodd;stroke:rgb(255, 0, 45);stroke-width:1;" d="M 500.616, 360.684 L 505.542, 353.751 L 523.968, 328.575 L 535.097, 333.318 L 520.684, 353.022 L 511.745, 365.428 L 500.616, 360.684 z "/>
<path style="fill:rgb(0, 255, 0);fill-opacity:0;fill-rule:evenodd;stroke:rgb(255, 0, 45);stroke-width:1;" d="M 573.227, 616.1 L 596.579, 584.903 L 607.891, 589.829 L 604.242, 594.755 L 584.538, 621.026 L 573.227, 616.1 z "/>
<path style="fill:rgb(0, 0, 255);fill-opacity:0;fill-rule:evenodd;stroke:rgb(255, 0, 45);stroke-width:1;" d="M 638.905, 231.699 L 644.561, 224.036 L 691.266, 243.74 L 685.61, 251.403 L 646.203, 234.618 L 638.905, 231.699 z "/>
<path style="fill:rgb(255, 255, 0);fill-opacity:0;fill-rule:evenodd;stroke:rgb(255, 0, 45);stroke-width:1;" d="M 947.959, 143.58 L 970.034, 113.295 L 981.71, 118.221 L 959.635, 148.506 L 947.959, 143.58 z "/>
<path style="fill:rgb(255, 0, 0);fill-opacity:0;fill-rule:evenodd;stroke:rgb(255, 0, 45);stroke-width:1;" d="M 285.154, 572.68 L 289.532, 567.024 L 308.141, 541.847 L 319.453, 546.591 L 298.655, 574.869 L 296.648, 577.605 L 285.154, 572.68 z "/>
<path style="fill:rgb(0, 255, 0);fill-opacity:0;fill-rule:evenodd;stroke:rgb(255, 0, 45);stroke-width:1;" d="M 86.2942, 334.595 L 88.8483, 331.129 L 108.369, 304.31 L 120.046, 309.236 L 104.173, 331.129 L 97.9704, 339.521 L 86.2942, 334.595 z "/>
<path style="fill:rgb(0, 0, 255);fill-opacity:0;fill-rule:evenodd;stroke:rgb(255, 0, 45);stroke-width:1;" d="M 644.561, 224.036 L 650.034, 216.374 L 658.244, 219.84 L 696.739, 236.26 L 691.266, 243.74 L 644.561, 224.036 z "/>
<path style="fill:rgb(255, 255, 0);fill-opacity:0;fill-rule:evenodd;stroke:rgb(255, 0, 45);stroke-width:1;" d="M 820.616, 782.486 L 836.488, 760.775 L 852.725, 767.526 L 850.901, 769.897 L 836.853, 789.236 L 820.616, 782.486 z "/>
<path style="fill:rgb(255, 0, 0);fill-opacity:0;fill-rule:evenodd;stroke:rgb(255, 0, 45);stroke-width:1;" d="M 192.474, 54.3672 L 194.481, 51.813 L 213.09, 26.0889 L 225.496, 31.3797 L 204.88, 59.6579 L 192.474, 54.3672 z "/>
<path style="fill:rgb(0, 255, 0);fill-opacity:0;fill-rule:evenodd;stroke:rgb(255, 0, 45);stroke-width:1;" d="M 54.9145, 321.46 L 76.9897, 291.174 L 88.4835, 295.918 L 66.4082, 326.203 L 54.9145, 321.46 z "/>
<path style="fill:rgb(0, 0, 255);fill-opacity:0;fill-rule:evenodd;stroke:rgb(255, 0, 45);stroke-width:1;" d="M 807.48, 161.46 L 829.555, 131.174 L 841.049, 135.918 L 838.495, 139.384 L 824.265, 158.905 L 818.974, 166.203 L 807.48, 161.46 z "/>
<path style="fill:rgb(255, 255, 0);fill-opacity:0;fill-rule:evenodd;stroke:rgb(255, 0, 45);stroke-width:1;" d="M 638.905, 644.561 L 660.068, 616.283 L 665.724, 618.837 L 669.373, 613.911 L 667.548, 612.999 L 671.015, 608.255 L 677.583, 611.174 L 670.285, 620.661 L 652.588, 644.379 L 649.122, 648.94 L 638.905, 644.561 z "/>
<path style="fill:rgb(255, 0, 0);fill-opacity:0;fill-rule:evenodd;stroke:rgb(255, 0, 45);stroke-width:1;" d="M 541.847, 602.417 L 548.78, 593.295 L 555.348, 584.538 L 561.733, 575.964 L 568.301, 567.024 L 573.044, 569.031 L 573.957, 569.578 L 566.477, 579.795 L 571.95, 582.166 L 553.158, 607.343 L 541.847, 602.417 z "/>
<path style="fill:rgb(0, 255, 0);fill-opacity:0;fill-rule:evenodd;stroke:rgb(255, 0, 45);stroke-width:1;" d="M 447.343, 406.842 L 461.756, 387.32 L 467.047, 389.51 L 470.331, 385.314 L 469.054, 384.766 L 473.797, 378.198 L 472.338, 377.651 L 475.439, 373.455 L 484.379, 377.286 L 459.202, 411.95 L 447.343, 406.842 z "/>
<path style="fill:rgb(0, 0, 255);fill-opacity:0;fill-rule:evenodd;stroke:rgb(255, 0, 45);stroke-width:1;" d="M 989.92, 638.905 L 1010.54, 610.627 L 1022.58, 615.735 L 1001.96, 644.014 L 989.92, 638.905 z "/>
<path style="fill:rgb(255, 255, 0);fill-opacity:0;fill-rule:evenodd;stroke:rgb(255, 0, 45);stroke-width:1;" d="M 352.292, 604.789 L 379.293, 568.483 L 390.057, 573.227 L 371.631, 598.221 L 366.522, 596.032 L 358.13, 607.343 L 352.292, 604.789 z "/>
<path style="fill:rgb(255, 0, 0);fill-opacity:0;fill-rule:evenodd;stroke:rgb(255, 0, 45);stroke-width:1;" d="M 481.46, 344.994 L 497.332, 323.284 L 500.616, 318.723 L 512.109, 323.649 L 488.757, 355.758 L 487.845, 357.035 L 482.372, 354.664 L 487.48, 347.548 L 481.46, 344.994 z "/>
<path style="fill:rgb(0, 255, 0);fill-opacity:0;fill-rule:evenodd;stroke:rgb(255, 0, 45);stroke-width:1;" d="M 726.842, 529.806 L 747.64, 500.798 L 759.498, 505.724 L 739.795, 533.09 L 738.7, 534.732 L 726.842, 529.806 z "/>
<path style="fill:rgb(0, 0, 255);fill-opacity:0;fill-rule:evenodd;stroke:rgb(255, 0, 45);stroke-width:1;" d="M 1001.96, 644.014 L 1022.58, 615.735 L 1034.62, 620.661 L 1014, 649.122 L 1001.96, 644.014 z "/>
<path style="fill:rgb(255, 255, 0);fill-opacity:0;fill-rule:evenodd;stroke:rgb(255, 0, 45);stroke-width:1;" d="M 421.254, 401.733 L 438.769, 378.016 L 444.059, 380.205 L 450.992, 370.901 L 457.377, 373.637 L 436.214, 402.098 L 432.748, 406.659 L 421.254, 401.733 z "/>
<path style="fill:rgb(255, 0, 0);fill-opacity:0;fill-rule:evenodd;stroke:rgb(255, 0, 45);stroke-width:1;" d="M 521.414, 677.4 L 523.421, 674.664 L 546.408, 643.101 L 557.719, 647.845 L 540.023, 671.927 L 534.367, 669.555 L 533.273, 671.197 L 534.002, 672.474 L 528.347, 680.319 L 521.414, 677.4 z "/>
<path style="fill:rgb(0, 255, 0);fill-opacity:0;fill-rule:evenodd;stroke:rgb(255, 0, 45);stroke-width:1;" d="M 381.847, 615.918 L 389.51, 605.519 L 383.854, 602.965 L 402.098, 578.335 L 413.227, 583.079 L 394.983, 607.891 L 387.32, 618.107 L 381.847, 615.918 z "/>
<path style="fill:rgb(0, 0, 255);fill-opacity:0;fill-rule:evenodd;stroke:rgb(255, 0, 45);stroke-width:1;" d="M 628.324, 246.294 L 633.615, 239.179 L 643.466, 243.375 L 680.137, 258.883 L 674.846, 265.998 L 636.899, 249.943 L 628.324, 246.294 z "/>
<path style="fill:rgb(255, 255, 0);fill-opacity:0;fill-rule:evenodd;stroke:rgb(255, 0, 45);stroke-width:1;" d="M 298.655, 574.869 L 319.453, 546.591 L 331.129, 551.699 L 310.331, 579.795 L 298.655, 574.869 z "/>
<path style="fill:rgb(255, 0, 0);fill-opacity:0;fill-rule:evenodd;stroke:rgb(255, 0, 45);stroke-width:1;" d="M 715.348, 524.88 L 733.774, 499.339 L 736.146, 496.055 L 747.64, 500.798 L 726.842, 529.806 L 715.348, 524.88 z "/>
<path style="fill:rgb(0, 255, 0);fill-opacity:0;fill-rule:evenodd;stroke:rgb(255, 0, 45);stroke-width:1;" d="M 629.054, 640.182 L 659.339, 599.681 L 663.17, 601.323 L 653.865, 613.729 L 660.068, 616.283 L 638.905, 644.561 L 629.054, 640.182 z "/>
<path style="fill:rgb(0, 0, 255);fill-opacity:0;fill-rule:evenodd;stroke:rgb(255, 0, 45);stroke-width:1;" d="M 452.452, 484.379 L 470.513, 459.932 L 483.831, 465.587 L 465.77, 490.034 L 452.452, 484.379 z "/>
<path style="fill:rgb(255, 255, 0);fill-opacity:0;fill-rule:evenodd;stroke:rgb(255, 0, 45);stroke-width:1;" d="M 376.009, 462.851 L 401.368, 428.369 L 410.855, 432.383 L 409.031, 434.937 L 385.496, 466.864 L 376.009, 462.851 z "/>
<path style="fill:rgb(255, 0, 0);fill-opacity:0;fill-rule:evenodd;stroke:rgb(255, 0, 45);stroke-width:1;" d="M 494.048, 186.271 L 516.853, 155.257 L 527.434, 159.818 L 508.826, 185.177 L 504.629, 190.832 L 494.048, 186.271 z "/>
<path style="fill:rgb(0, 255, 0);fill-opacity:0;fill-rule:evenodd;stroke:rgb(255, 0, 45);stroke-width:1;" d="M 753.843, 138.107 L 759.133, 130.627 L 773.546, 110.741 L 775.553, 108.005 L 786.499, 112.748 L 764.789, 142.668 L 753.843, 138.107 z "/>
<path style="fill:rgb(0, 0, 255);fill-opacity:0;fill-rule:evenodd;stroke:rgb(255, 0, 45);stroke-width:1;" d="M 263.444, 561.916 L 285.519, 531.995 L 296.465, 536.739 L 277.674, 561.916 L 274.208, 566.477 L 263.444, 561.916 z "/>
<path style="fill:rgb(255, 255, 0);fill-opacity:0;fill-rule:evenodd;stroke:rgb(255, 0, 45);stroke-width:1;" d="M 174.23, 538.928 L 180.616, 530.353 L 218.198, 546.226 L 211.813, 554.983 L 174.23, 538.928 z "/>
<path style="fill:rgb(255, 0, 0);fill-opacity:0;fill-rule:evenodd;stroke:rgb(255, 0, 45);stroke-width:1;" d="M 540.023, 683.238 L 546.226, 674.664 L 540.023, 671.927 L 557.719, 647.845 L 569.213, 652.771 L 545.314, 685.428 L 540.023, 683.238 z "/>
<path style="fill:rgb(0, 255, 0);fill-opacity:0;fill-rule:evenodd;stroke:rgb(255, 0, 45);stroke-width:1;" d="M 385.496, 466.864 L 409.031, 434.937 L 418.7, 439.133 L 395.348, 470.878 L 392.794, 474.527 L 389.145, 472.885 L 391.699, 469.601 L 385.496, 466.864 z "/>
<path style="fill:rgb(0, 0, 255);fill-opacity:0;fill-rule:evenodd;stroke:rgb(255, 0, 45);stroke-width:1;" d="M 545.314, 685.428 L 569.213, 652.771 L 580.525, 657.514 L 563.01, 681.414 L 556.625, 678.86 L 555.53, 680.319 L 556.26, 681.779 L 551.699, 688.164 L 545.314, 685.428 z "/>
<path style="fill:rgb(255, 255, 0);fill-opacity:0;fill-rule:evenodd;stroke:rgb(255, 0, 45);stroke-width:1;" d="M 617.377, 716.99 L 627.047, 703.854 L 621.026, 701.3 L 636.351, 680.319 L 638.358, 677.4 L 649.304, 682.144 L 640.73, 693.637 L 631.79, 706.043 L 622.121, 718.997 L 617.377, 716.99 z "/>
<path style="fill:rgb(255, 0, 0);fill-opacity:0;fill-rule:evenodd;stroke:rgb(255, 0, 45);stroke-width:1;" d="M 994.299, 163.101 L 1013.64, 136.465 L 1025.68, 141.574 L 1006.16, 168.027 L 994.299, 163.101 z "/>
<path style="fill:rgb(0, 255, 0);fill-opacity:0;fill-rule:evenodd;stroke:rgb(255, 0, 45);stroke-width:1;" d="M 395.348, 470.878 L 418.7, 439.133 L 428.552, 443.33 L 405.929, 473.979 L 405.017, 475.074 L 395.348, 470.878 z "/>
<path style="fill:rgb(0, 0, 255);fill-opacity:0;fill-rule:evenodd;stroke:rgb(255, 0, 45);stroke-width:1;" d="M 658.244, 219.84 L 664.082, 211.813 L 702.577, 228.05 L 696.739, 236.26 L 658.244, 219.84 z "/>
<path style="fill:rgb(255, 255, 0);fill-opacity:0;fill-rule:evenodd;stroke:rgb(255, 0, 45);stroke-width:1;" d="M 531.995, 204.88 L 533.09, 203.421 L 556.078, 172.041 L 566.659, 176.42 L 548.05, 201.779 L 543.672, 199.954 L 538.016, 207.434 L 531.995, 204.88 z "/>
<path style="fill:rgb(255, 0, 0);fill-opacity:0;fill-rule:evenodd;stroke:rgb(255, 0, 45);stroke-width:1;" d="M 482.737, 422.166 L 498.609, 400.274 L 504.082, 402.463 L 505.359, 400.639 L 504.994, 398.267 L 515.758, 383.307 L 521.596, 385.861 L 492.223, 426.18 L 482.737, 422.166 z "/>
<path style="fill:rgb(0, 255, 0);fill-opacity:0;fill-rule:evenodd;stroke:rgb(255, 0, 45);stroke-width:1;" d="M 546.043, 204.333 L 548.05, 201.779 L 566.659, 176.42 L 577.058, 180.798 L 563.01, 199.954 L 553.888, 212.36 L 548.78, 210.353 L 551.517, 206.705 L 546.043, 204.333 z "/>
<path style="fill:rgb(0, 0, 255);fill-opacity:0;fill-rule:evenodd;stroke:rgb(255, 0, 45);stroke-width:1;" d="M 666.819, 102.531 L 671.38, 96.5108 L 687.07, 74.8005 L 688.164, 73.5234 L 698.746, 78.0844 L 698.016, 78.9966 L 679.954, 103.991 L 677.583, 107.092 L 666.819, 102.531 z "/>
<path style="fill:rgb(255, 255, 0);fill-opacity:0;fill-rule:evenodd;stroke:rgb(255, 0, 45);stroke-width:1;" d="M 125.884, 44.6978 L 132.816, 35.2109 L 162.189, 47.6169 L 165.291, 49.0764 L 158.54, 58.3808 L 125.884, 44.6978 z "/>
<path style="fill:rgb(255, 0, 0);fill-opacity:0;fill-rule:evenodd;stroke:rgb(255, 0, 45);stroke-width:1;" d="M 769.715, 474.709 L 770.81, 473.25 L 793.432, 442.052 L 802.737, 445.884 L 779.202, 478.54 L 769.715, 474.709 z "/>
<path style="fill:rgb(0, 255, 0);fill-opacity:0;fill-rule:evenodd;stroke:rgb(255, 0, 45);stroke-width:1;" d="M 248.483, 84.6522 L 272.748, 51.4481 L 282.6, 55.6442 L 263.444, 81.7332 L 259.247, 81.0034 L 254.686, 87.3888 L 248.483, 84.6522 z "/>
<path style="fill:rgb(0, 0, 255);fill-opacity:0;fill-rule:evenodd;stroke:rgb(255, 0, 45);stroke-width:1;" d="M 715.895, 351.927 L 730.308, 332.041 L 734.322, 326.385 L 746.18, 331.311 L 727.754, 356.853 L 715.895, 351.927 z "/>
<path style="fill:rgb(255, 255, 0);fill-opacity:0;fill-rule:evenodd;stroke:rgb(255, 0, 45);stroke-width:1;" d="M 478.905, 723.193 L 497.332, 698.016 L 500.981, 697.651 L 503.17, 698.563 L 508.826, 690.901 L 513.934, 693.09 L 488.757, 727.389 L 478.905, 723.193 z "/>
<path style="fill:rgb(255, 0, 0);fill-opacity:0;fill-rule:evenodd;stroke:rgb(255, 0, 45);stroke-width:1;" d="M 277.674, 561.916 L 296.465, 536.739 L 308.141, 541.847 L 289.532, 567.024 L 277.674, 561.916 z "/>
<path style="fill:rgb(0, 255, 0);fill-opacity:0;fill-rule:evenodd;stroke:rgb(255, 0, 45);stroke-width:1;" d="M 623.216, 481.277 L 642.189, 455.006 L 653.683, 459.749 L 650.217, 464.31 L 634.709, 485.838 L 634.527, 486.021 L 623.216, 481.277 z "/>
<path style="fill:rgb(0, 0, 255);fill-opacity:0;fill-rule:evenodd;stroke:rgb(255, 0, 45);stroke-width:1;" d="M 935.006, 61.4823 L 955.621, 33.0217 L 966.203, 37.5827 L 945.587, 65.8609 L 935.006, 61.4823 z "/>
<path style="fill:rgb(255, 255, 0);fill-opacity:0;fill-rule:evenodd;stroke:rgb(255, 0, 45);stroke-width:1;" d="M 971.494, 153.432 L 990.65, 127.161 L 1001.96, 131.904 L 982.623, 158.176 L 971.494, 153.432 z "/>
<path style="fill:rgb(255, 0, 0);fill-opacity:0;fill-rule:evenodd;stroke:rgb(255, 0, 45);stroke-width:1;" d="M 611.904, 476.716 L 628.324, 453.911 L 630.878, 450.262 L 642.189, 455.006 L 623.216, 481.277 L 611.904, 476.716 z "/>
<path style="fill:rgb(0, 255, 0);fill-opacity:0;fill-rule:evenodd;stroke:rgb(255, 0, 45);stroke-width:1;" d="M 910.011, 274.39 L 928.438, 249.213 L 939.932, 253.957 L 921.688, 279.133 L 910.011, 274.39 z "/>
<path style="fill:rgb(0, 0, 255);fill-opacity:0;fill-rule:evenodd;stroke:rgb(255, 0, 45);stroke-width:1;" d="M 883.375, 193.022 L 886.842, 188.096 L 902.714, 166.385 L 913.66, 170.946 L 894.322, 197.583 L 883.375, 193.022 z "/>
<path style="fill:rgb(255, 255, 0);fill-opacity:0;fill-rule:evenodd;stroke:rgb(255, 0, 45);stroke-width:1;" d="M 1020.21, 575.051 L 1041, 546.591 L 1051.22, 550.787 L 1032.79, 575.964 L 1030.42, 579.247 L 1020.21, 575.051 z "/>
<path style="fill:rgb(255, 0, 0);fill-opacity:0;fill-rule:evenodd;stroke:rgb(255, 0, 45);stroke-width:1;" d="M 966.385, 74.618 L 987.001, 46.1574 L 997.218, 50.5359 L 995.211, 53.2725 L 976.602, 78.8141 L 966.385, 74.618 z "/>
<path style="fill:rgb(0, 255, 0);fill-opacity:0;fill-rule:evenodd;stroke:rgb(255, 0, 45);stroke-width:1;" d="M 420.525, 480.547 L 424.173, 475.621 L 425.998, 474.344 L 426.545, 473.432 L 420.707, 471.06 L 438.951, 446.431 L 449.168, 450.81 L 425.633, 482.737 L 420.525, 480.547 z "/>
<path style="fill:rgb(0, 0, 255);fill-opacity:0;fill-rule:evenodd;stroke:rgb(255, 0, 45);stroke-width:1;" d="M 469.601, 719.179 L 487.845, 694.367 L 492.041, 688.347 L 501.528, 692.36 L 497.332, 698.016 L 478.905, 723.193 L 469.601, 719.179 z "/>
<path style="fill:rgb(255, 255, 0);fill-opacity:0;fill-rule:evenodd;stroke:rgb(255, 0, 45);stroke-width:1;" d="M 1010.17, 570.673 L 1014.73, 564.287 L 1030.97, 542.212 L 1041, 546.591 L 1020.21, 575.051 L 1010.17, 570.673 z "/>
<path style="fill:rgb(255, 0, 0);fill-opacity:0;fill-rule:evenodd;stroke:rgb(255, 0, 45);stroke-width:1;" d="M 524.88, 198.86 L 528.712, 193.751 L 528.164, 193.387 L 546.773, 168.027 L 556.078, 172.041 L 533.09, 203.421 L 527.252, 200.867 L 527.799, 200.137 L 524.88, 198.86 z "/>
<path style="fill:rgb(0, 255, 0);fill-opacity:0;fill-rule:evenodd;stroke:rgb(255, 0, 45);stroke-width:1;" d="M 1016.37, 95.5986 L 1034.98, 70.057 L 1046.29, 74.618 L 1039.18, 84.2873 L 1027.5, 100.342 L 1016.37, 95.5986 z "/>
<path style="fill:rgb(0, 0, 255);fill-opacity:0;fill-rule:evenodd;stroke:rgb(255, 0, 45);stroke-width:1;" d="M 643.284, 238.814 L 646.203, 234.618 L 685.61, 251.403 L 680.137, 258.883 L 643.466, 243.375 L 646.021, 239.909 L 643.284, 238.814 z "/>
<path style="fill:rgb(255, 255, 0);fill-opacity:0;fill-rule:evenodd;stroke:rgb(255, 0, 45);stroke-width:1;" d="M 508.461, 193.022 L 512.839, 187.001 L 508.826, 185.177 L 527.434, 159.818 L 537.286, 164.014 L 514.116, 195.393 L 508.461, 193.022 z "/>
<path style="fill:rgb(255, 0, 0);fill-opacity:0;fill-rule:evenodd;stroke:rgb(255, 0, 45);stroke-width:1;" d="M 60.0228, 178.609 L 85.5644, 143.398 L 93.5918, 146.682 L 85.7469, 157.628 L 74.9829, 172.588 L 68.2326, 181.893 L 60.0228, 178.609 z "/>
<path style="fill:rgb(0, 255, 0);fill-opacity:0;fill-rule:evenodd;stroke:rgb(255, 0, 45);stroke-width:1;" d="M 905.268, 201.414 L 924.242, 175.325 L 935.188, 179.886 L 919.316, 201.779 L 916.214, 205.975 L 905.268, 201.414 z "/>
<path style="fill:rgb(0, 0, 255);fill-opacity:0;fill-rule:evenodd;stroke:rgb(255, 0, 45);stroke-width:1;" d="M 514.116, 195.393 L 537.286, 164.014 L 546.773, 168.027 L 528.164, 193.387 L 524.88, 192.109 L 520.502, 198.13 L 514.116, 195.393 z "/>
<path style="fill:rgb(255, 255, 0);fill-opacity:0;fill-rule:evenodd;stroke:rgb(255, 0, 45);stroke-width:1;" d="M 663.352, 498.791 L 678.495, 477.811 L 684.515, 469.236 L 694.185, 473.25 L 692.543, 475.621 L 673.022, 502.805 L 663.352, 498.791 z "/>
<path style="fill:rgb(255, 0, 0);fill-opacity:0;fill-rule:evenodd;stroke:rgb(255, 0, 45);stroke-width:1;" d="M 995.029, 86.6591 L 1013.64, 60.935 L 1024.58, 65.496 L 1005.79, 91.2201 L 995.029, 86.6591 z "/>
<path style="fill:rgb(0, 255, 0);fill-opacity:0;fill-rule:evenodd;stroke:rgb(255, 0, 45);stroke-width:1;" d="M 653.865, 100.342 L 675.941, 70.057 L 687.07, 74.8005 L 671.38, 96.5108 L 664.265, 93.5918 L 658.062, 102.166 L 653.865, 100.342 z "/>
<path style="fill:rgb(0, 0, 255);fill-opacity:0;fill-rule:evenodd;stroke:rgb(255, 0, 45);stroke-width:1;" d="M 563.01, 681.414 L 580.525, 657.514 L 592.201, 662.44 L 574.686, 686.522 L 563.01, 681.414 z "/>
<path style="fill:rgb(255, 255, 0);fill-opacity:0;fill-rule:evenodd;stroke:rgb(255, 0, 45);stroke-width:1;" d="M 738.335, 361.231 L 757.127, 335.507 L 767.891, 339.886 L 758.221, 353.022 L 749.099, 365.792 L 738.335, 361.231 z "/>
<path style="fill:rgb(255, 0, 0);fill-opacity:0;fill-rule:evenodd;stroke:rgb(255, 0, 45);stroke-width:1;" d="M 639.818, 564.287 L 657.332, 540.205 L 668.826, 544.949 L 651.311, 569.031 L 639.818, 564.287 z "/>
<path style="fill:rgb(0, 255, 0);fill-opacity:0;fill-rule:evenodd;stroke:rgb(255, 0, 45);stroke-width:1;" d="M 436.214, 402.098 L 457.377, 373.637 L 464.31, 376.556 L 459.749, 382.759 L 458.29, 382.759 L 456.648, 382.212 L 455.006, 384.401 L 461.756, 387.32 L 447.343, 406.842 L 436.214, 402.098 z "/>
<path style="fill:rgb(0, 0, 255);fill-opacity:0;fill-rule:evenodd;stroke:rgb(255, 0, 45);stroke-width:1;" d="M 701.117, 595.12 L 704.219, 590.741 L 721.551, 567.024 L 731.22, 571.22 L 724.105, 581.072 L 710.787, 599.316 L 701.117, 595.12 z "/>
<path style="fill:rgb(255, 255, 0);fill-opacity:0;fill-rule:evenodd;stroke:rgb(255, 0, 45);stroke-width:1;" d="M 703.124, 110.194 L 719.361, 87.9361 L 721.186, 85.5644 L 732.315, 90.1254 L 730.49, 92.4971 L 715.895, 112.566 L 714.253, 114.937 L 703.124, 110.194 z "/>
<path style="fill:rgb(255, 0, 0);fill-opacity:0;fill-rule:evenodd;stroke:rgb(255, 0, 45);stroke-width:1;" d="M 631.608, 257.058 L 636.899, 249.943 L 674.846, 265.998 L 669.738, 273.113 L 631.608, 257.058 z "/>
<path style="fill:rgb(0, 255, 0);fill-opacity:0;fill-rule:evenodd;stroke:rgb(255, 0, 45);stroke-width:1;" d="M 183.9, 47.252 L 202.509, 21.7104 L 213.09, 26.0889 L 194.481, 51.813 L 183.9, 47.252 z "/>
<path style="fill:rgb(0, 0, 255);fill-opacity:0;fill-rule:evenodd;stroke:rgb(255, 0, 45);stroke-width:1;" d="M 1032.79, 575.964 L 1051.22, 550.787 L 1061.8, 555.348 L 1043.56, 580.525 L 1032.79, 575.964 z "/>
<path style="fill:rgb(255, 255, 0);fill-opacity:0;fill-rule:evenodd;stroke:rgb(255, 0, 45);stroke-width:1;" d="M 563.01, 199.954 L 577.058, 180.798 L 577.788, 179.704 L 589.099, 184.447 L 574.139, 204.698 L 568.301, 212.725 L 563.193, 210.536 L 569.031, 202.509 L 563.01, 199.954 z "/>
<path style="fill:rgb(255, 0, 0);fill-opacity:0;fill-rule:evenodd;stroke:rgb(255, 0, 45);stroke-width:1;" d="M 608.073, 227.32 L 627.412, 200.684 L 629.601, 197.948 L 638.358, 201.596 L 636.169, 204.515 L 616.83, 230.969 L 613.546, 231.699 L 609.715, 230.057 L 608.073, 227.32 z "/>
<path style="fill:rgb(0, 255, 0);fill-opacity:0;fill-rule:evenodd;stroke:rgb(255, 0, 45);stroke-width:1;" d="M 441.14, 511.745 L 444.424, 507.184 L 456.83, 512.292 L 458.837, 509.738 L 461.391, 510.832 L 487.48, 521.961 L 482.007, 529.259 L 453.729, 517.218 L 441.14, 511.745 z "/>
<path style="fill:rgb(0, 0, 255);fill-opacity:0;fill-rule:evenodd;stroke:rgb(255, 0, 45);stroke-width:1;" d="M 1005.79, 91.2201 L 1024.58, 65.496 L 1034.98, 70.057 L 1016.37, 95.5986 L 1005.79, 91.2201 z "/>
<path style="fill:rgb(255, 255, 0);fill-opacity:0;fill-rule:evenodd;stroke:rgb(255, 0, 45);stroke-width:1;" d="M 405.929, 473.979 L 428.552, 443.33 L 429.282, 442.235 L 438.951, 446.431 L 420.707, 471.06 L 413.774, 467.959 L 413.409, 471.425 L 410.125, 475.804 L 405.929, 473.979 z "/>
<path style="fill:rgb(255, 0, 0);fill-opacity:0;fill-rule:evenodd;stroke:rgb(255, 0, 45);stroke-width:1;" d="M 628.871, 559.544 L 646.203, 535.462 L 657.332, 540.205 L 639.818, 564.287 L 628.871, 559.544 z "/>
<path style="fill:rgb(0, 255, 0);fill-opacity:0;fill-rule:evenodd;stroke:rgb(255, 0, 45);stroke-width:1;" d="M 606.613, 550.787 L 615.735, 538.198 L 626.135, 524.151 L 635.986, 528.347 L 616.648, 554.983 L 606.613, 550.787 z "/>
<path style="fill:rgb(0, 0, 255);fill-opacity:0;fill-rule:evenodd;stroke:rgb(255, 0, 45);stroke-width:1;" d="M 661.893, 648.21 L 679.407, 624.675 L 683.786, 626.499 L 689.441, 619.202 L 694.55, 621.209 L 689.259, 628.324 L 671.197, 652.406 L 661.893, 648.21 z "/>
<path style="fill:rgb(255, 255, 0);fill-opacity:0;fill-rule:evenodd;stroke:rgb(255, 0, 45);stroke-width:1;" d="M 425.633, 482.737 L 449.168, 450.81 L 458.472, 454.823 L 440.228, 479.635 L 434.937, 477.263 L 429.829, 484.379 L 425.633, 482.737 z "/>
<path style="fill:rgb(255, 0, 0);fill-opacity:0;fill-rule:evenodd;stroke:rgb(255, 0, 45);stroke-width:1;" d="M 679.954, 103.991 L 698.016, 78.9966 L 708.415, 83.3751 L 692.178, 105.633 L 690.171, 108.369 L 679.954, 103.991 z "/>
<path style="fill:rgb(0, 255, 0);fill-opacity:0;fill-rule:evenodd;stroke:rgb(255, 0, 45);stroke-width:1;" d="M 673.022, 502.805 L 692.543, 475.621 L 701.847, 479.453 L 699.293, 483.101 L 682.326, 506.636 L 673.022, 502.805 z "/>
<path style="fill:rgb(0, 0, 255);fill-opacity:0;fill-rule:evenodd;stroke:rgb(255, 0, 45);stroke-width:1;" d="M 531.266, 539.84 L 536.374, 532.908 L 574.504, 549.327 L 570.673, 554.618 L 561.551, 550.604 L 560.091, 552.429 L 531.266, 539.84 z "/>
<path style="fill:rgb(255, 255, 0);fill-opacity:0;fill-rule:evenodd;stroke:rgb(255, 0, 45);stroke-width:1;" d="M 746.363, 61.6648 L 747.275, 60.3877 L 763.147, 38.4949 L 764.789, 35.9407 L 774.641, 40.1368 L 765.519, 52.7252 L 756.214, 65.8609 L 746.363, 61.6648 z "/>
<path style="fill:rgb(255, 0, 0);fill-opacity:0;fill-rule:evenodd;stroke:rgb(255, 0, 45);stroke-width:1;" d="M 919.316, 201.779 L 935.188, 179.886 L 946.682, 184.629 L 930.81, 206.522 L 919.316, 201.779 z "/>
<path style="fill:rgb(0, 255, 0);fill-opacity:0;fill-rule:evenodd;stroke:rgb(255, 0, 45);stroke-width:1;" d="M 401.551, 537.104 L 403.193, 535.097 L 418.518, 514.116 L 429.464, 518.677 L 425.086, 524.698 L 418.883, 533.09 L 412.497, 541.665 L 401.551, 537.104 z "/>
<path style="fill:rgb(0, 0, 255);fill-opacity:0;fill-rule:evenodd;stroke:rgb(255, 0, 45);stroke-width:1;" d="M 660.616, 572.862 L 678.13, 548.962 L 679.954, 546.226 L 689.259, 550.239 L 687.434, 552.794 L 670.103, 576.876 L 660.616, 572.862 z "/>
<path style="fill:rgb(255, 255, 0);fill-opacity:0;fill-rule:evenodd;stroke:rgb(255, 0, 45);stroke-width:1;" d="M 634.709, 485.838 L 650.217, 464.31 L 661.893, 469.054 L 660.433, 471.06 L 646.385, 490.582 L 634.709, 485.838 z "/>
<path style="fill:rgb(255, 0, 0);fill-opacity:0;fill-rule:evenodd;stroke:rgb(255, 0, 45);stroke-width:1;" d="M 459.932, 715.348 L 477.811, 690.901 L 482.007, 689.806 L 485.838, 691.448 L 487.845, 694.367 L 469.601, 719.179 L 459.932, 715.348 z "/>
<path style="fill:rgb(0, 255, 0);fill-opacity:0;fill-rule:evenodd;stroke:rgb(255, 0, 45);stroke-width:1;" d="M 976.602, 78.8141 L 995.211, 53.2725 L 1004.88, 57.2862 L 986.089, 83.0103 L 976.602, 78.8141 z "/>
<path style="fill:rgb(0, 0, 255);fill-opacity:0;fill-rule:evenodd;stroke:rgb(255, 0, 45);stroke-width:1;" d="M 625.405, 234.253 L 644.561, 207.982 L 653.501, 211.813 L 650.034, 216.374 L 644.561, 224.036 L 638.905, 231.699 L 634.709, 237.355 L 630.878, 238.997 L 626.499, 237.172 L 625.405, 234.253 z "/>
<path style="fill:rgb(255, 255, 0);fill-opacity:0;fill-rule:evenodd;stroke:rgb(255, 0, 45);stroke-width:1;" d="M 692.178, 105.633 L 708.415, 83.3751 L 719.361, 87.9361 L 703.124, 110.194 L 692.178, 105.633 z "/>
<path style="fill:rgb(255, 0, 0);fill-opacity:0;fill-rule:evenodd;stroke:rgb(255, 0, 45);stroke-width:1;" d="M 864.766, 178.791 L 866.591, 176.602 L 880.639, 157.081 L 891.767, 161.642 L 876.078, 183.535 L 864.766, 178.791 z "/>
<path style="fill:rgb(0, 255, 0);fill-opacity:0;fill-rule:evenodd;stroke:rgb(255, 0, 45);stroke-width:1;" d="M 856.009, 172.041 L 872.611, 149.236 L 883.193, 153.615 L 880.639, 157.081 L 866.591, 176.602 L 856.009, 172.041 z "/>
<path style="fill:rgb(0, 0, 255);fill-opacity:0;fill-rule:evenodd;stroke:rgb(255, 0, 45);stroke-width:1;" d="M 736.511, 130.08 L 741.437, 123.33 L 738.153, 121.87 L 752.748, 101.984 L 762.782, 106.18 L 748.369, 126.066 L 747.092, 125.701 L 742.166, 132.452 L 736.511, 130.08 z "/>
<path style="fill:rgb(255, 255, 0);fill-opacity:0;fill-rule:evenodd;stroke:rgb(255, 0, 45);stroke-width:1;" d="M 876.078, 183.535 L 891.767, 161.642 L 902.714, 166.385 L 886.842, 188.096 L 876.078, 183.535 z "/>
<path style="fill:rgb(255, 0, 0);fill-opacity:0;fill-rule:evenodd;stroke:rgb(255, 0, 45);stroke-width:1;" d="M 896.876, 124.971 L 914.208, 101.437 L 924.242, 105.633 L 909.464, 125.701 L 906.91, 129.35 L 896.876, 124.971 z "/>
<path style="fill:rgb(0, 255, 0);fill-opacity:0;fill-rule:evenodd;stroke:rgb(255, 0, 45);stroke-width:1;" d="M 461.574, 495.872 L 465.77, 490.034 L 483.831, 465.587 L 492.588, 469.236 L 476.351, 491.311 L 472.155, 489.669 L 466.135, 497.879 L 461.574, 495.872 z "/>
<path style="fill:rgb(0, 0, 255);fill-opacity:0;fill-rule:evenodd;stroke:rgb(255, 0, 45);stroke-width:1;" d="M 616.83, 230.969 L 636.169, 204.515 L 644.561, 207.982 L 625.405, 234.253 L 621.938, 235.348 L 618.472, 233.888 L 616.83, 230.969 z "/>
<path style="fill:rgb(255, 255, 0);fill-opacity:0;fill-rule:evenodd;stroke:rgb(255, 0, 45);stroke-width:1;" d="M 1004.33, 560.091 L 1020.57, 537.834 L 1030.97, 542.212 L 1014.73, 564.287 L 1004.33, 560.091 z "/>
<path style="fill:rgb(255, 0, 0);fill-opacity:0;fill-rule:evenodd;stroke:rgb(255, 0, 45);stroke-width:1;" d="M 574.139, 204.698 L 589.099, 184.447 L 589.829, 183.352 L 600.41, 187.913 L 584.903, 209.076 L 574.139, 204.698 z "/>
<path style="fill:rgb(0, 255, 0);fill-opacity:0;fill-rule:evenodd;stroke:rgb(255, 0, 45);stroke-width:1;" d="M 475.257, 500.616 L 480.73, 493.318 L 476.351, 491.311 L 492.588, 469.236 L 501.345, 472.885 L 479.635, 502.44 L 475.257, 500.616 z "/>
<path style="fill:rgb(0, 0, 255);fill-opacity:0;fill-rule:evenodd;stroke:rgb(255, 0, 45);stroke-width:1;" d="M 986.089, 83.0103 L 1004.88, 57.2862 L 1013.64, 60.935 L 995.029, 86.6591 L 986.089, 83.0103 z "/>
<path style="fill:rgb(255, 255, 0);fill-opacity:0;fill-rule:evenodd;stroke:rgb(255, 0, 45);stroke-width:1;" d="M 727.571, 51.9954 L 736.511, 39.5895 L 743.444, 30.1026 L 753.66, 34.4812 L 737.788, 56.374 L 727.571, 51.9954 z "/>
<path style="fill:rgb(255, 0, 0);fill-opacity:0;fill-rule:evenodd;stroke:rgb(255, 0, 45);stroke-width:1;" d="M 610.262, 696.739 L 625.587, 675.941 L 636.351, 680.319 L 621.026, 701.3 L 610.262, 696.739 z "/>
<path style="fill:rgb(0, 255, 0);fill-opacity:0;fill-rule:evenodd;stroke:rgb(255, 0, 45);stroke-width:1;" d="M 651.311, 569.031 L 668.826, 544.949 L 678.13, 548.962 L 660.616, 572.862 L 651.311, 569.031 z "/>
<path style="fill:rgb(0, 0, 255);fill-opacity:0;fill-rule:evenodd;stroke:rgb(255, 0, 45);stroke-width:1;" d="M 897.788, 37.9475 L 903.261, 30.2851 L 932.269, 42.5086 L 926.613, 50.171 L 897.788, 37.9475 z "/>
<path style="fill:rgb(255, 255, 0);fill-opacity:0;fill-rule:evenodd;stroke:rgb(255, 0, 45);stroke-width:1;" d="M 652.588, 644.379 L 670.285, 620.661 L 679.407, 624.675 L 661.893, 648.21 L 652.588, 644.379 z "/>
<path style="fill:rgb(255, 0, 0);fill-opacity:0;fill-rule:evenodd;stroke:rgb(255, 0, 45);stroke-width:1;" d="M 930.81, 206.522 L 946.682, 184.629 L 956.716, 188.826 L 948.324, 200.319 L 940.844, 210.718 L 930.81, 206.522 z "/>
<path style="fill:rgb(0, 255, 0);fill-opacity:0;fill-rule:evenodd;stroke:rgb(255, 0, 45);stroke-width:1;" d="M 682.326, 506.636 L 699.293, 483.101 L 706.043, 485.838 L 703.489, 489.304 L 706.408, 490.582 L 691.995, 510.65 L 682.326, 506.636 z "/>
<path style="fill:rgb(0, 0, 255);fill-opacity:0;fill-rule:evenodd;stroke:rgb(255, 0, 45);stroke-width:1;" d="M 878.997, 69.1448 L 881.186, 66.0433 L 879.361, 63.1243 L 881.551, 60.2052 L 910.376, 72.4287 L 911.471, 72.7936 L 905.998, 80.4561 L 895.416, 76.0775 L 878.997, 69.1448 z "/>
<path style="fill:rgb(255, 255, 0);fill-opacity:0;fill-rule:evenodd;stroke:rgb(255, 0, 45);stroke-width:1;" d="M 748.369, 126.066 L 762.782, 106.18 L 773.546, 110.741 L 759.133, 130.627 L 748.369, 126.066 z "/>
<path style="fill:rgb(255, 0, 0);fill-opacity:0;fill-rule:evenodd;stroke:rgb(255, 0, 45);stroke-width:1;" d="M 672.292, 586.727 L 694.732, 555.895 L 702.212, 558.997 L 685.063, 582.714 L 682.326, 581.619 L 677.035, 588.734 L 672.292, 586.727 z "/>
<path style="fill:rgb(0, 255, 0);fill-opacity:0;fill-rule:evenodd;stroke:rgb(255, 0, 45);stroke-width:1;" d="M 892.497, 45.2452 L 897.788, 37.9475 L 926.613, 50.171 L 921.323, 57.4686 L 892.497, 45.2452 z "/>
<path style="fill:rgb(0, 0, 255);fill-opacity:0;fill-rule:evenodd;stroke:rgb(255, 0, 45);stroke-width:1;" d="M 737.788, 56.374 L 753.66, 34.4812 L 763.147, 38.4949 L 747.275, 60.3877 L 737.788, 56.374 z "/>
<path style="fill:rgb(255, 255, 0);fill-opacity:0;fill-rule:evenodd;stroke:rgb(255, 0, 45);stroke-width:1;" d="M 903.261, 30.2851 L 908.552, 23.1699 L 937.377, 35.2109 L 932.269, 42.5086 L 903.261, 30.2851 z "/>
<path style="fill:rgb(255, 0, 0);fill-opacity:0;fill-rule:evenodd;stroke:rgb(255, 0, 45);stroke-width:1;" d="M 654.413, 494.96 L 669.555, 473.979 L 670.103, 473.615 L 671.562, 472.885 L 673.022, 472.702 L 674.846, 472.702 L 676.306, 473.25 L 677.583, 474.162 L 678.495, 475.257 L 678.677, 476.534 L 678.495, 477.811 L 663.352, 498.791 L 654.413, 494.96 z "/>
<path style="fill:rgb(0, 255, 0);fill-opacity:0;fill-rule:evenodd;stroke:rgb(255, 0, 45);stroke-width:1;" d="M 461.391, 510.832 L 467.229, 502.987 L 476.351, 507.001 L 493.136, 514.116 L 487.48, 521.961 L 461.391, 510.832 z "/>
<path style="fill:rgb(0, 0, 255);fill-opacity:0;fill-rule:evenodd;stroke:rgb(255, 0, 45);stroke-width:1;" d="M 668.278, 585.086 L 673.387, 578.153 L 670.103, 576.876 L 687.434, 552.794 L 694.732, 555.895 L 672.292, 586.727 L 668.278, 585.086 z "/>
<path style="fill:rgb(255, 255, 0);fill-opacity:0;fill-rule:evenodd;stroke:rgb(255, 0, 45);stroke-width:1;" d="M 713.706, 291.357 L 718.814, 284.424 L 741.254, 293.911 L 747.275, 296.465 L 742.349, 303.398 L 713.706, 291.357 z "/>
<path style="fill:rgb(255, 0, 0);fill-opacity:0;fill-rule:evenodd;stroke:rgb(255, 0, 45);stroke-width:1;" d="M 691.995, 510.65 L 706.408, 490.582 L 707.685, 489.669 L 709.145, 488.94 L 710.787, 488.757 L 712.429, 488.94 L 713.888, 489.487 L 714.983, 490.582 L 715.713, 491.676 L 715.713, 492.953 L 715.165, 494.23 L 700.753, 514.299 L 691.995, 510.65 z "/>
<path style="fill:rgb(0, 255, 0);fill-opacity:0;fill-rule:evenodd;stroke:rgb(255, 0, 45);stroke-width:1;" d="M 645.838, 491.494 L 646.385, 490.582 L 660.433, 471.06 L 664.447, 469.236 L 671.015, 471.973 L 669.555, 473.979 L 654.413, 494.96 L 645.838, 491.494 z "/>
<path style="fill:rgb(0, 0, 255);fill-opacity:0;fill-rule:evenodd;stroke:rgb(255, 0, 45);stroke-width:1;" d="M 824.265, 158.905 L 838.495, 139.384 L 848.347, 143.398 L 834.116, 163.101 L 824.265, 158.905 z "/>
<path style="fill:rgb(255, 255, 0);fill-opacity:0;fill-rule:evenodd;stroke:rgb(255, 0, 45);stroke-width:1;" d="M 593.66, 474.527 L 613.181, 447.526 L 620.296, 450.445 L 603.694, 473.25 L 600.775, 477.446 L 593.66, 474.527 z "/>
<path style="fill:rgb(255, 0, 0);fill-opacity:0;fill-rule:evenodd;stroke:rgb(255, 0, 45);stroke-width:1;" d="M 603.694, 473.25 L 620.296, 450.445 L 628.324, 453.911 L 611.904, 476.716 L 603.694, 473.25 z "/>
<path style="fill:rgb(0, 255, 0);fill-opacity:0;fill-rule:evenodd;stroke:rgb(255, 0, 45);stroke-width:1;" d="M 671.197, 652.406 L 689.259, 628.324 L 696.009, 631.06 L 677.948, 655.143 L 671.197, 652.406 z "/>
<path style="fill:rgb(0, 0, 255);fill-opacity:0;fill-rule:evenodd;stroke:rgb(255, 0, 45);stroke-width:1;" d="M 236.99, 587.275 L 248.848, 571.038 L 258.883, 575.234 L 256.146, 579.247 L 251.95, 577.423 L 242.828, 589.829 L 236.99, 587.275 z "/>
<path style="fill:rgb(255, 255, 0);fill-opacity:0;fill-rule:evenodd;stroke:rgb(255, 0, 45);stroke-width:1;" d="M 0, 224.766 L 24.0821, 191.562 L 19.1562, 189.555 L 28.0958, 176.967 L 54.5496, 188.096 L 79.9088, 198.677 L 78.4493, 200.502 L 83.74, 202.691 L 82.6454, 204.151 L 125.884, 222.395 L 112.383, 241.186 L 114.572, 242.098 L 103.626, 257.058 L 101.619, 256.328 L 95.4162, 264.721 L 0, 224.766 z "/>
<path style="fill:rgb(255, 0, 0);fill-opacity:0;fill-rule:evenodd;stroke:rgb(255, 0, 45);stroke-width:1;" d="M 41.5964, 466.317 L 51.2657, 452.999 L 47.4344, 451.357 L 60.2052, 433.843 L 122.417, 459.932 L 90.6727, 503.352 L 87.3888, 502.075 L 62.2121, 491.494 L 71.3341, 478.905 L 41.5964, 466.317 z "/>
<path style="fill:rgb(0, 255, 0);fill-opacity:0;fill-rule:evenodd;stroke:rgb(255, 0, 45);stroke-width:1;" d="M 27.9133, 172.041 L 30.2851, 168.575 L 33.569, 167.662 L 34.6636, 168.027 L 53.8198, 141.391 L 53.2725, 141.209 L 51.9954, 139.202 L 54.5496, 135.735 L 57.8335, 134.823 L 58.3808, 135.188 L 60.2052, 132.634 L 64.7662, 134.641 L 66.9555, 134.094 L 68.0502, 133.911 L 69.1448, 133.911 L 71.3341, 134.094 L 72.4287, 134.458 L 74.4356, 135.188 L 75.8951, 136.465 L 77.1722, 137.742 L 78.0844, 139.384 L 78.2668, 140.296 L 85.5644, 143.398 L 60.0228, 178.609 L 68.2326, 181.893 L 67.5029, 182.623 L 63.854, 187.913 L 56.7389, 184.994 L 54.5496, 188.096 L 28.0958, 176.967 L 29.7377, 174.778 L 28.6431, 174.413 L 27.9133, 172.041 z "/>
<path style="fill:rgb(0, 0, 255);fill-opacity:0;fill-rule:evenodd;stroke:rgb(255, 0, 45);stroke-width:1;" d="M 32.6568, 385.314 L 54.1847, 356.306 L 78.0844, 366.522 L 56.7389, 395.53 L 32.6568, 385.314 z "/>
<path style="fill:rgb(255, 255, 0);fill-opacity:0;fill-rule:evenodd;stroke:rgb(255, 0, 45);stroke-width:1;" d="M 40.6842, 315.439 L 62.577, 285.154 L 76.9897, 291.174 L 54.9145, 321.46 L 40.6842, 315.439 z "/>
<path style="fill:rgb(255, 0, 0);fill-opacity:0;fill-rule:evenodd;stroke:rgb(255, 0, 45);stroke-width:1;" d="M 520.502, 58.9282 L 552.794, 14.5952 L 608.985, 38.3124 L 597.309, 54.3672 L 567.206, 41.7788 L 560.821, 50.5359 L 584.903, 60.5701 L 573.774, 76.0775 L 550.239, 66.0433 L 548.962, 67.6853 L 545.496, 66.0433 L 543.489, 68.5975 L 520.502, 58.9282 z "/>
<path style="fill:rgb(0, 255, 0);fill-opacity:0;fill-rule:evenodd;stroke:rgb(255, 0, 45);stroke-width:1;" d="M 356.306, 49.6237 L 358.312, 46.7047 L 368.347, 33.0217 L 384.036, 39.7719 L 388.962, 33.2041 L 380.205, 29.3729 L 388.597, 18.0616 L 402.828, 24.0821 L 407.936, 17.3318 L 436.397, 29.5553 L 405.929, 70.7868 L 356.306, 49.6237 z "/>
<path style="fill:rgb(0, 0, 255);fill-opacity:0;fill-rule:evenodd;stroke:rgb(255, 0, 45);stroke-width:1;" d="M 687.799, 37.2178 L 689.624, 34.6636 L 697.286, 24.0821 L 706.773, 28.0958 L 710.422, 23.1699 L 708.415, 22.4401 L 711.152, 18.7913 L 713.341, 19.7035 L 718.449, 12.5884 L 708.597, 8.39225 L 712.246, 3.46636 L 714.618, 0 L 753.478, 16.2372 L 747.092, 24.8119 L 741.802, 22.6226 L 737.241, 23.5348 L 728.119, 36.1231 L 736.511, 39.5895 L 727.571, 51.9954 L 726.659, 53.455 L 687.799, 37.2178 z "/>
<path style="fill:rgb(255, 255, 0);fill-opacity:0;fill-rule:evenodd;stroke:rgb(255, 0, 45);stroke-width:1;" d="M 347.731, 42.3261 L 366.34, 17.1494 L 371.448, 10.3991 L 373.82, 10.5815 L 376.192, 11.1288 L 378.563, 12.041 L 380.388, 13.3181 L 381.847, 14.9601 L 368.347, 33.0217 L 358.312, 46.7047 L 347.731, 42.3261 z "/>
<path style="fill:rgb(255, 0, 0);fill-opacity:0;fill-rule:evenodd;stroke:rgb(255, 0, 45);stroke-width:1;" d="M 337.697, 37.9475 L 356.123, 12.7708 L 363.238, 3.46636 L 368.894, 5.83808 L 361.961, 15.325 L 366.34, 17.1494 L 347.731, 42.3261 L 337.697, 37.9475 z "/>
<path style="fill:rgb(0, 255, 0);fill-opacity:0;fill-rule:evenodd;stroke:rgb(255, 0, 45);stroke-width:1;" d="M 143.033, 21.3455 L 150.513, 11.1288 L 179.156, 23.3523 L 176.602, 27.0011 L 178.426, 30.2851 L 176.42, 33.0217 L 172.406, 33.7514 L 143.033, 21.3455 z "/>
<path style="fill:rgb(0, 0, 255);fill-opacity:0;fill-rule:evenodd;stroke:rgb(255, 0, 45);stroke-width:1;" d="M 177.332, 37.2178 L 185.542, 26.0889 L 194.116, 14.2303 L 204.698, 18.7913 L 202.509, 21.7104 L 183.9, 47.252 L 178.426, 45.0627 L 181.345, 41.2315 L 177.514, 39.5895 L 177.332, 37.2178 z "/>
<path style="fill:rgb(255, 255, 0);fill-opacity:0;fill-rule:evenodd;stroke:rgb(255, 0, 45);stroke-width:1;" d="M 908.552, 23.1699 L 910.924, 19.7035 L 909.464, 17.1494 L 910.924, 15.1425 L 913.478, 15.325 L 929.35, 21.8928 L 930.81, 19.886 L 934.641, 21.5279 L 933.181, 23.5348 L 942.851, 27.7309 L 937.377, 35.2109 L 908.552, 23.1699 z "/>
</svg>