<?xml version="1.0" encoding="iso-8859-1" standalone="no"?>
<!DOCTYPE svg PUBLIC "-//W3C//DTD SVG 1.0//EN" "http://www.w3.org/TR/2001/REC-SVG-20010904/DTD/svg10.dtd">
<svg xmlns="http://www.w3.org/2000/svg" width="933" height="800">
<path style="fill:rgb(255, 0, 0);fill-opacity:0;fill-rule:evenodd;stroke:rgb(255, 127, 0);stroke-width:1;" d="M 483.175, 761.173 L 528.387, 699.396 L 543.572, 678.861 L 635.375, 717.688 L 632.269, 722.002 L 636.238, 723.727 L 610.699, 758.412 L 581.881, 797.757 L 577.912, 796.031 L 574.978, 800 L 483.175, 761.173 z "/>
<path style="fill:rgb(0, 255, 0);fill-opacity:0;fill-rule:evenodd;stroke:rgb(255, 127, 0);stroke-width:1;" d="M 477.653, 431.924 L 563.934, 400 L 582.744, 429.336 L 534.944, 494.909 L 521.139, 499.914 L 477.653, 431.924 z "/>
<path style="fill:rgb(0, 0, 255);fill-opacity:0;fill-rule:evenodd;stroke:rgb(255, 127, 0);stroke-width:1;" d="M 107.679, 695.427 L 157.722, 676.618 L 168.421, 693.011 L 147.541, 700.777 L 146.851, 699.741 L 138.568, 702.847 L 155.997, 729.422 L 162.381, 727.006 L 162.381, 727.006 L 221.225, 704.918 L 204.314, 678.861 L 196.721, 681.622 L 197.239, 682.312 L 181.363, 688.352 L 170.664, 671.786 L 219.327, 653.494 L 222.606, 658.326 L 226.057, 663.848 L 219.845, 666.091 L 225.022, 674.029 L 226.747, 674.892 L 251.941, 713.374 L 169.629, 744.262 L 170.319, 745.47 L 146.16, 754.443 L 107.679, 695.427 z "/>
<path style="fill:rgb(255, 255, 0);fill-opacity:0;fill-rule:evenodd;stroke:rgb(255, 127, 0);stroke-width:1;" d="M 74.8921, 373.425 L 159.275, 342.192 L 160.138, 343.399 L 183.607, 380.328 L 177.912, 382.399 L 180.673, 386.885 L 175.496, 388.783 L 176.359, 390.164 L 114.064, 413.287 L 112.856, 411.389 L 107.852, 413.287 L 105.263, 409.318 L 99.396, 411.562 L 87.4892, 392.752 L 79.0336, 379.638 L 74.8921, 373.425 z "/>
<path style="fill:rgb(255, 0, 0);fill-opacity:0;fill-rule:evenodd;stroke:rgb(255, 127, 0);stroke-width:1;" d="M 54.1846, 176.704 L 108.542, 157.032 L 149.094, 221.915 L 122.519, 231.579 L 94.7368, 241.588 L 54.1846, 176.704 z "/>
<path style="fill:rgb(0, 255, 0);fill-opacity:0;fill-rule:evenodd;stroke:rgb(255, 127, 0);stroke-width:1;" d="M 116.652, 275.928 L 164.28, 258.326 L 168.248, 259.362 L 210.181, 324.935 L 160.138, 343.399 L 159.275, 342.192 L 138.223, 309.577 L 131.665, 299.223 L 124.072, 287.317 L 117.688, 277.481 L 116.652, 275.928 z "/>
<path style="fill:rgb(0, 0, 255);fill-opacity:0;fill-rule:evenodd;stroke:rgb(255, 127, 0);stroke-width:1;" d="M 108.024, 587.921 L 118.378, 584.124 L 116.135, 580.673 L 130.802, 575.151 L 137.532, 585.677 L 146.333, 582.399 L 146.16, 580.5 L 139.603, 570.147 L 154.961, 564.452 L 161.864, 575.151 L 163.762, 575.841 L 172.39, 572.563 L 165.66, 562.381 L 180.155, 556.859 L 182.571, 560.656 L 192.58, 557.032 L 202.934, 573.253 L 189.991, 578.257 L 194.823, 585.677 L 199.827, 583.779 L 205.004, 591.717 L 212.77, 588.783 L 215.358, 593.097 L 222.606, 603.969 L 223.641, 605.867 L 193.615, 617.084 L 183.607, 601.726 L 185.677, 600.863 L 180.155, 592.407 L 153.408, 602.416 L 158.93, 610.871 L 161.001, 610.009 L 170.664, 625.022 L 139.431, 636.756 L 133.218, 627.092 L 128.559, 619.672 L 137.36, 616.393 L 132.355, 608.456 L 137.36, 606.557 L 132.701, 599.482 L 118.723, 604.659 L 108.024, 587.921 z "/>
<path style="fill:rgb(255, 255, 0);fill-opacity:0;fill-rule:evenodd;stroke:rgb(255, 127, 0);stroke-width:1;" d="M 160.138, 343.399 L 210.181, 324.935 L 213.46, 329.94 L 214.495, 329.594 L 215.358, 330.802 L 216.221, 330.457 L 219.154, 335.116 L 220.017, 334.771 L 220.535, 335.807 L 221.57, 335.462 L 224.504, 339.948 L 225.194, 339.776 L 225.884, 340.811 L 226.575, 340.466 L 253.322, 382.226 L 198.102, 402.588 L 183.607, 380.328 L 160.138, 343.399 z "/>
<path style="fill:rgb(255, 0, 0);fill-opacity:0;fill-rule:evenodd;stroke:rgb(255, 127, 0);stroke-width:1;" d="M 231.752, 443.486 L 281.622, 425.022 L 324.072, 490.768 L 310.958, 495.6 L 309.232, 492.839 L 273.857, 505.953 L 246.937, 464.021 L 245.211, 464.538 L 231.752, 443.486 z "/>
<path style="fill:rgb(0, 255, 0);fill-opacity:0;fill-rule:evenodd;stroke:rgb(255, 127, 0);stroke-width:1;" d="M 277.653, 511.821 L 312.856, 498.706 L 310.958, 495.6 L 324.072, 490.768 L 366.35, 556.687 L 316.135, 575.324 L 302.847, 554.443 L 304.573, 553.753 L 277.653, 511.821 z "/>
<path style="fill:rgb(0, 0, 255);fill-opacity:0;fill-rule:evenodd;stroke:rgb(255, 127, 0);stroke-width:1;" d="M 117.688, 81.1044 L 150.475, 69.025 L 174.633, 62.9853 L 202.243, 105.953 L 209.318, 116.825 L 168.076, 132.183 L 153.753, 137.36 L 117.688, 81.1044 z "/>
<path style="fill:rgb(255, 255, 0);fill-opacity:0;fill-rule:evenodd;stroke:rgb(255, 127, 0);stroke-width:1;" d="M 382.744, 388.093 L 418.119, 374.978 L 424.331, 384.642 L 419.154, 386.54 L 432.614, 407.593 L 456.773, 398.792 L 443.313, 377.739 L 438.654, 379.292 L 432.442, 369.629 L 466.954, 357.032 L 474.202, 368.421 L 467.472, 371.009 L 474.202, 381.708 L 481.104, 379.12 L 483.175, 382.399 L 487.834, 389.819 L 482.83, 391.717 L 485.936, 396.549 L 488.179, 395.858 L 492.321, 402.416 L 415.358, 430.889 L 411.389, 424.331 L 413.287, 423.641 L 410.009, 418.464 L 404.487, 420.535 L 397.929, 410.354 L 404.659, 407.938 L 397.412, 396.549 L 389.991, 399.31 L 382.744, 388.093 z "/>
<path style="fill:rgb(255, 0, 0);fill-opacity:0;fill-rule:evenodd;stroke:rgb(255, 127, 0);stroke-width:1;" d="M 85.0733, 498.016 L 119.758, 485.073 L 126.143, 494.737 L 120.794, 496.635 L 134.771, 518.378 L 160.483, 508.714 L 146.506, 486.972 L 141.501, 488.87 L 135.289, 479.206 L 169.629, 466.609 L 177.049, 478.171 L 169.802, 480.759 L 176.877, 491.803 L 184.124, 489.042 L 188.611, 496.117 L 191.027, 499.741 L 184.814, 501.984 L 188.093, 506.989 L 190.164, 506.126 L 194.305, 512.338 L 117.86, 540.811 L 113.546, 534.254 L 115.272, 533.563 L 112.166, 528.732 L 106.816, 530.63 L 100.259, 520.276 L 107.334, 517.688 L 100.086, 506.471 L 92.321, 509.405 L 85.0733, 498.016 z "/>
<path style="fill:rgb(0, 255, 0);fill-opacity:0;fill-rule:evenodd;stroke:rgb(255, 127, 0);stroke-width:1;" d="M 196.376, 553.408 L 270.751, 525.798 L 295.427, 563.934 L 300.086, 562.209 L 307.161, 573.253 L 276.963, 584.469 L 266.954, 568.766 L 274.374, 566.005 L 262.813, 548.059 L 259.189, 547.368 L 226.402, 559.448 L 225.194, 562.036 L 236.756, 579.983 L 243.486, 577.394 L 253.322, 592.58 L 222.606, 603.969 L 215.358, 593.097 L 220.535, 591.027 L 196.376, 553.408 z "/>
<path style="fill:rgb(0, 0, 255);fill-opacity:0;fill-rule:evenodd;stroke:rgb(255, 127, 0);stroke-width:1;" d="M 596.031, 158.067 L 612.425, 135.979 L 608.11, 134.254 L 615.358, 124.245 L 641.415, 135.289 L 633.305, 146.333 L 644.176, 150.82 L 652.286, 139.948 L 671.613, 148.231 L 663.503, 159.103 L 674.547, 163.934 L 682.657, 152.89 L 710.267, 164.625 L 703.02, 174.461 L 699.396, 173.08 L 692.321, 182.571 L 664.193, 181.881 L 664.538, 173.943 L 665.919, 172.217 L 655.738, 167.903 L 654.875, 181.708 L 633.132, 181.191 L 633.822, 164.797 L 638.136, 159.103 L 630.198, 155.651 L 623.296, 164.97 L 622.606, 181.018 L 610.526, 180.673 L 596.031, 158.067 z "/>
<path style="fill:rgb(255, 255, 0);fill-opacity:0;fill-rule:evenodd;stroke:rgb(255, 127, 0);stroke-width:1;" d="M 466.954, 357.032 L 523.21, 336.324 L 537.705, 358.93 L 524.245, 363.762 L 522.692, 361.173 L 503.538, 368.248 L 515.617, 387.23 L 534.771, 380.155 L 533.218, 377.567 L 546.506, 372.563 L 561.001, 395.513 L 533.046, 405.695 L 532.701, 405.177 L 531.32, 405.695 L 530.63, 405.004 L 508.369, 413.115 L 493.529, 389.991 L 489.905, 388.611 L 487.834, 389.819 L 483.175, 382.399 L 490.768, 379.638 L 483.175, 367.731 L 481.795, 365.66 L 474.202, 368.421 L 466.954, 357.032 z "/>
<path style="fill:rgb(255, 0, 0);fill-opacity:0;fill-rule:evenodd;stroke:rgb(255, 127, 0);stroke-width:1;" d="M 245.384, 280.932 L 266.609, 272.994 L 298.361, 261.432 L 312.683, 283.693 L 315.962, 282.485 L 328.387, 301.984 L 296.462, 313.719 L 299.569, 318.378 L 275.065, 327.351 L 245.384, 280.932 z "/>
<path style="fill:rgb(0, 255, 0);fill-opacity:0;fill-rule:evenodd;stroke:rgb(255, 127, 0);stroke-width:1;" d="M 767.386, 664.884 L 793.27, 629.336 L 808.11, 627.783 L 852.114, 646.419 L 821.743, 687.834 L 767.386, 664.884 z "/>
<path style="fill:rgb(0, 0, 255);fill-opacity:0;fill-rule:evenodd;stroke:rgb(255, 127, 0);stroke-width:1;" d="M 724.935, 137.877 L 754.789, 96.8076 L 808.973, 119.413 L 785.332, 151.855 L 779.12, 160.483 L 724.935, 137.877 z "/>
<path style="fill:rgb(255, 255, 0);fill-opacity:0;fill-rule:evenodd;stroke:rgb(255, 127, 0);stroke-width:1;" d="M 315.272, 281.277 L 345.298, 270.233 L 369.802, 308.542 L 381.881, 304.228 L 389.646, 316.48 L 397.584, 328.732 L 355.479, 344.262 L 348.404, 333.218 L 328.387, 301.984 L 315.962, 282.485 L 315.272, 281.277 z "/>
<path style="fill:rgb(255, 0, 0);fill-opacity:0;fill-rule:evenodd;stroke:rgb(255, 127, 0);stroke-width:1;" d="M 515.789, 128.387 L 574.288, 106.644 L 587.058, 112.166 L 579.81, 122.002 L 581.708, 122.865 L 580.5, 124.418 L 581.881, 126.833 L 585.16, 128.041 L 594.478, 115.272 L 610.526, 122.174 L 595.341, 142.364 L 593.27, 142.192 L 588.438, 148.059 L 584.987, 149.267 L 567.731, 122.347 L 552.89, 127.869 L 568.076, 151.51 L 572.217, 152.2 L 576.531, 150.647 L 585.16, 163.934 L 550.647, 176.704 L 539.948, 160.138 L 554.616, 154.616 L 553.236, 152.373 L 551.51, 152.89 L 542.537, 138.913 L 544.09, 138.395 L 542.709, 136.152 L 524.935, 142.709 L 523.21, 139.948 L 515.789, 128.387 z "/>
<path style="fill:rgb(0, 255, 0);fill-opacity:0;fill-rule:evenodd;stroke:rgb(255, 127, 0);stroke-width:1;" d="M 222.606, 658.326 L 244.694, 650.043 L 267.127, 684.383 L 279.034, 679.724 L 256.773, 645.384 L 278.689, 637.274 L 281.795, 641.76 L 286.626, 649.353 L 283.348, 650.561 L 283.52, 653.322 L 306.989, 689.215 L 260.052, 706.816 L 236.583, 671.096 L 233.822, 668.68 L 230.198, 670.06 L 226.057, 663.848 L 222.606, 658.326 z "/>
<path style="fill:rgb(0, 0, 255);fill-opacity:0;fill-rule:evenodd;stroke:rgb(255, 127, 0);stroke-width:1;" d="M 268.852, 730.285 L 325.453, 709.06 L 333.046, 720.794 L 325.453, 723.555 L 337.532, 742.192 L 345.125, 739.258 L 350.475, 747.368 L 339.085, 761.691 L 299.051, 776.704 L 291.631, 765.315 L 291.458, 765.142 L 298.533, 762.381 L 283.348, 739.085 L 276.273, 741.846 L 268.852, 730.285 z M 297.498, 733.736 L 312.511, 756.859 L 326.488, 751.51 L 311.475, 728.387 L 297.498, 733.736 z "/>
<path style="fill:rgb(255, 255, 0);fill-opacity:0;fill-rule:evenodd;stroke:rgb(255, 127, 0);stroke-width:1;" d="M 217.947, 238.136 L 267.99, 219.672 L 279.896, 238.309 L 261.95, 244.866 L 265.401, 250.388 L 282.14, 244.176 L 292.148, 259.707 L 264.711, 269.888 L 266.609, 272.994 L 245.384, 280.932 L 217.947, 238.136 z "/>
<path style="fill:rgb(255, 0, 0);fill-opacity:0;fill-rule:evenodd;stroke:rgb(255, 127, 0);stroke-width:1;" d="M 168.766, 161.001 L 189.991, 153.236 L 195.513, 151.165 L 198.965, 156.687 L 223.814, 147.541 L 240.207, 173.08 L 243.658, 171.7 L 251.079, 183.261 L 227.092, 192.062 L 221.053, 182.744 L 225.367, 181.191 L 220.708, 174.116 L 205.177, 179.81 L 209.836, 186.885 L 213.46, 185.505 L 219.5, 194.823 L 196.204, 203.451 L 168.766, 161.001 z "/>
<path style="fill:rgb(0, 255, 0);fill-opacity:0;fill-rule:evenodd;stroke:rgb(255, 127, 0);stroke-width:1;" d="M 348.576, 648.835 L 385.505, 634.858 L 392.407, 645.729 L 403.279, 641.588 L 414.495, 658.844 L 383.261, 702.157 L 373.253, 686.799 L 350.302, 651.596 L 348.576, 648.835 z "/>
<path style="fill:rgb(0, 0, 255);fill-opacity:0;fill-rule:evenodd;stroke:rgb(255, 127, 0);stroke-width:1;" d="M 672.131, 405.004 L 718.55, 341.329 L 745.47, 352.718 L 707.161, 405.004 L 699.051, 416.221 L 672.131, 405.004 z "/>
<path style="fill:rgb(255, 255, 0);fill-opacity:0;fill-rule:evenodd;stroke:rgb(255, 127, 0);stroke-width:1;" d="M 613.978, 193.443 L 635.203, 193.96 L 645.729, 210.181 L 652.977, 207.42 L 647.11, 198.274 L 657.808, 194.305 L 661.432, 194.651 L 665.919, 201.553 L 673.512, 198.792 L 670.751, 194.478 L 692.148, 194.996 L 699.051, 205.867 L 702.675, 204.487 L 708.197, 212.942 L 709.06, 214.323 L 688.352, 221.915 L 681.104, 210.526 L 673.512, 213.287 L 680.932, 224.676 L 667.299, 229.681 L 660.052, 218.292 L 652.632, 221.053 L 659.879, 232.442 L 638.481, 240.38 L 632.269, 230.716 L 635.375, 229.508 L 635.375, 226.92 L 613.978, 193.443 z "/>
<path style="fill:rgb(255, 0, 0);fill-opacity:0;fill-rule:evenodd;stroke:rgb(255, 127, 0);stroke-width:1;" d="M 275.065, 327.351 L 299.569, 318.378 L 309.75, 334.426 L 313.546, 332.873 L 315.099, 335.116 L 318.378, 333.909 L 307.334, 316.825 L 328.214, 309.06 L 342.019, 330.63 L 340.466, 331.148 L 343.054, 335.116 L 348.404, 333.218 L 355.479, 344.262 L 331.493, 353.236 L 323.727, 340.984 L 316.48, 343.745 L 324.245, 355.824 L 299.223, 364.97 L 275.065, 327.351 z "/>
<path style="fill:rgb(0, 255, 0);fill-opacity:0;fill-rule:evenodd;stroke:rgb(255, 127, 0);stroke-width:1;" d="M 513.374, 233.995 L 526.833, 228.991 L 528.732, 232.097 L 563.934, 219.154 L 573.943, 234.685 L 560.828, 239.517 L 564.797, 245.902 L 579.638, 240.38 L 590.854, 257.981 L 540.811, 276.618 L 529.249, 258.844 L 553.926, 249.698 L 549.784, 243.486 L 525.28, 252.459 L 513.374, 233.995 z "/>
<path style="fill:rgb(0, 0, 255);fill-opacity:0;fill-rule:evenodd;stroke:rgb(255, 127, 0);stroke-width:1;" d="M 357.895, 186.713 L 413.978, 166.005 L 423.641, 181.363 L 400.69, 189.819 L 405.004, 196.721 L 428.128, 188.266 L 438.136, 203.796 L 413.46, 212.77 L 412.942, 211.907 L 381.363, 223.641 L 378.257, 218.637 L 372.908, 210.181 L 389.991, 203.969 L 387.058, 199.482 L 385.85, 200 L 384.987, 198.447 L 386.195, 198.102 L 383.089, 193.443 L 366.178, 199.655 L 364.797, 197.584 L 357.895, 186.713 z "/>
<path style="fill:rgb(255, 255, 0);fill-opacity:0;fill-rule:evenodd;stroke:rgb(255, 127, 0);stroke-width:1;" d="M 451.941, 441.242 L 477.653, 431.924 L 521.139, 499.914 L 495.427, 509.405 L 451.941, 441.242 z "/>
<path style="fill:rgb(255, 0, 0);fill-opacity:0;fill-rule:evenodd;stroke:rgb(255, 127, 0);stroke-width:1;" d="M 174.633, 62.9853 L 219.327, 51.0785 L 221.398, 54.3572 L 232.097, 70.9232 L 238.136, 80.4142 L 244.521, 90.4228 L 202.243, 105.953 L 174.633, 62.9853 z "/>
<path style="fill:rgb(0, 255, 0);fill-opacity:0;fill-rule:evenodd;stroke:rgb(255, 127, 0);stroke-width:1;" d="M 382.399, 493.874 L 415.531, 481.622 L 437.274, 473.512 L 457.291, 505.091 L 402.416, 525.28 L 382.399, 493.874 z "/>
<path style="fill:rgb(0, 0, 255);fill-opacity:0;fill-rule:evenodd;stroke:rgb(255, 127, 0);stroke-width:1;" d="M 61.7774, 622.433 L 88.0069, 612.597 L 90.0777, 612.942 L 114.409, 603.969 L 130.112, 628.128 L 133.218, 627.092 L 139.431, 636.756 L 141.501, 639.862 L 118.896, 648.318 L 110.095, 634.685 L 111.648, 634.167 L 105.091, 623.814 L 92.1484, 628.473 L 98.5332, 638.481 L 99.396, 638.136 L 108.369, 652.114 L 86.2813, 660.397 L 61.7774, 622.433 z "/>
<path style="fill:rgb(255, 255, 0);fill-opacity:0;fill-rule:evenodd;stroke:rgb(255, 127, 0);stroke-width:1;" d="M 426.747, 450.561 L 451.941, 441.242 L 495.427, 509.405 L 470.233, 518.723 L 426.747, 450.561 z "/>
<path style="fill:rgb(255, 0, 0);fill-opacity:0;fill-rule:evenodd;stroke:rgb(255, 127, 0);stroke-width:1;" d="M 459.016, 149.439 L 515.789, 128.387 L 523.21, 139.948 L 518.723, 141.501 L 534.944, 166.868 L 508.714, 176.531 L 508.887, 177.049 L 483.003, 186.713 L 472.994, 171.182 L 493.356, 163.589 L 494.392, 165.487 L 510.785, 159.448 L 504.745, 150.129 L 488.525, 156.169 L 489.215, 157.377 L 468.852, 164.97 L 459.016, 149.439 z "/>
<path style="fill:rgb(0, 255, 0);fill-opacity:0;fill-rule:evenodd;stroke:rgb(255, 127, 0);stroke-width:1;" d="M 312.511, 114.582 L 343.917, 102.847 L 343.399, 102.33 L 367.213, 93.5289 L 376.877, 108.542 L 353.581, 117.17 L 358.24, 124.418 L 381.536, 115.789 L 391.372, 131.32 L 336.324, 151.682 L 328.041, 138.568 L 344.953, 132.355 L 338.05, 121.484 L 320.966, 127.869 L 315.789, 119.586 L 312.511, 114.582 z "/>
<path style="fill:rgb(0, 0, 255);fill-opacity:0;fill-rule:evenodd;stroke:rgb(255, 127, 0);stroke-width:1;" d="M 37.6186, 394.996 L 54.0121, 388.956 L 56.428, 392.752 L 64.5384, 389.819 L 62.1225, 385.85 L 79.0336, 379.638 L 87.4892, 392.752 L 77.8257, 396.376 L 93.7015, 421.225 L 94.0466, 421.053 L 95.7722, 423.814 L 105.091, 420.362 L 113.719, 433.822 L 96.635, 440.207 L 94.2192, 436.411 L 86.2813, 439.344 L 88.6972, 443.141 L 71.786, 449.353 L 61.4323, 432.959 L 73.1665, 428.473 L 71.2683, 425.367 L 68.5073, 426.23 L 64.3658, 419.672 L 63.503, 420.017 L 57.981, 411.562 L 61.6048, 410.354 L 59.7066, 407.075 L 57.1182, 408.11 L 55.0475, 404.832 L 46.0742, 408.283 L 37.6186, 394.996 z "/>
<path style="fill:rgb(255, 255, 0);fill-opacity:0;fill-rule:evenodd;stroke:rgb(255, 127, 0);stroke-width:1;" d="M 562.209, 201.208 L 579.12, 194.996 L 581.708, 198.965 L 589.819, 196.031 L 587.23, 192.062 L 603.451, 186.022 L 611.562, 198.792 L 602.071, 202.416 L 620.362, 230.544 L 629.853, 227.092 L 632.269, 230.716 L 638.481, 240.38 L 597.239, 255.738 L 588.611, 242.278 L 597.757, 238.999 L 579.638, 210.699 L 570.492, 214.15 L 562.209, 201.208 z "/>
<path style="fill:rgb(255, 0, 0);fill-opacity:0;fill-rule:evenodd;stroke:rgb(255, 127, 0);stroke-width:1;" d="M 419.327, 86.6264 L 475.237, 65.5738 L 498.878, 75.4098 L 515.272, 82.3123 L 514.754, 85.4185 L 488.525, 95.4271 L 477.998, 79.2062 L 470.578, 82.1398 L 481.104, 98.1881 L 464.711, 104.4 L 454.185, 88.352 L 446.074, 91.2856 L 456.601, 107.334 L 437.619, 114.582 L 419.327, 86.6264 z "/>
<path style="fill:rgb(0, 255, 0);fill-opacity:0;fill-rule:evenodd;stroke:rgb(255, 127, 0);stroke-width:1;" d="M 327.696, 408.283 L 349.612, 400.345 L 354.961, 408.801 L 356.342, 408.456 L 357.722, 410.526 L 362.899, 408.628 L 361.519, 406.557 L 362.899, 406.04 L 357.377, 397.412 L 382.744, 388.093 L 389.991, 399.31 L 391.717, 401.898 L 385.85, 404.142 L 389.991, 410.354 L 391.372, 409.836 L 401.208, 425.194 L 381.191, 432.614 L 370.492, 415.876 L 366.35, 417.429 L 367.903, 419.845 L 363.762, 421.398 L 364.452, 422.433 L 363.072, 422.951 L 373.08, 438.481 L 351.855, 446.247 L 327.696, 408.283 z "/>
<path style="fill:rgb(0, 0, 255);fill-opacity:0;fill-rule:evenodd;stroke:rgb(255, 127, 0);stroke-width:1;" d="M 169.629, 466.609 L 225.367, 445.902 L 244.349, 475.41 L 188.611, 496.117 L 184.124, 489.042 L 177.049, 478.171 L 169.629, 466.609 z "/>
<path style="fill:rgb(255, 255, 0);fill-opacity:0;fill-rule:evenodd;stroke:rgb(255, 127, 0);stroke-width:1;" d="M 31.5789, 575.324 L 45.5565, 570.147 L 47.6273, 573.253 L 60.2243, 568.594 L 59.8792, 568.248 L 81.7947, 560.138 L 84.7282, 564.452 L 91.113, 574.461 L 73.8568, 581.018 L 78.516, 588.266 L 95.9448, 581.881 L 105.608, 597.066 L 73.1665, 609.146 L 74.8921, 611.734 L 58.6713, 617.601 L 48.3175, 601.381 L 62.1225, 596.376 L 57.1182, 588.611 L 43.3132, 593.788 L 31.5789, 575.324 z "/>
<path style="fill:rgb(255, 0, 0);fill-opacity:0;fill-rule:evenodd;stroke:rgb(255, 127, 0);stroke-width:1;" d="M 486.281, 191.89 L 499.914, 186.885 L 501.812, 189.819 L 537.36, 176.531 L 547.023, 191.717 L 536.497, 195.686 L 535.462, 194.133 L 528.387, 196.721 L 534.081, 205.522 L 540.984, 203.106 L 539.948, 201.553 L 550.475, 197.584 L 560.311, 212.77 L 524.763, 226.057 L 526.833, 228.991 L 513.374, 233.995 L 501.294, 215.186 L 508.887, 212.425 L 509.75, 213.978 L 521.829, 209.491 L 516.997, 202.071 L 505.091, 206.385 L 505.608, 207.42 L 498.016, 210.181 L 486.281, 191.89 z "/>
<path style="fill:rgb(0, 255, 0);fill-opacity:0;fill-rule:evenodd;stroke:rgb(255, 127, 0);stroke-width:1;" d="M 392.752, 226.402 L 409.664, 220.19 L 412.942, 225.539 L 425.712, 220.88 L 426.402, 216.911 L 424.676, 214.323 L 441.242, 208.283 L 452.286, 225.884 L 435.893, 231.924 L 434.685, 230.026 L 426.575, 233.132 L 433.305, 243.831 L 441.415, 240.725 L 440.207, 238.999 L 456.773, 232.959 L 467.99, 250.906 L 451.941, 256.773 L 450.043, 253.84 L 446.419, 251.769 L 432.787, 256.773 L 436.411, 262.295 L 419.5, 268.507 L 406.73, 248.318 L 419.5, 243.658 L 415.531, 237.446 L 409.146, 239.689 L 409.491, 240.38 L 403.106, 242.623 L 392.752, 226.402 z "/>
<path style="fill:rgb(0, 0, 255);fill-opacity:0;fill-rule:evenodd;stroke:rgb(255, 127, 0);stroke-width:1;" d="M 368.939, 277.308 L 382.226, 272.304 L 393.615, 290.078 L 396.376, 290.595 L 399.827, 289.215 L 401.381, 287.317 L 389.991, 269.543 L 403.279, 264.538 L 428.128, 303.365 L 432.097, 301.984 L 433.822, 304.745 L 439.344, 313.374 L 421.743, 319.931 L 409.146, 300.259 L 401.898, 302.847 L 414.495, 322.519 L 397.584, 328.732 L 389.646, 316.48 L 393.097, 315.099 L 368.939, 277.308 z "/>
<path style="fill:rgb(255, 255, 0);fill-opacity:0;fill-rule:evenodd;stroke:rgb(255, 127, 0);stroke-width:1;" d="M 351.855, 446.247 L 373.08, 438.481 L 376.014, 443.141 L 388.093, 438.827 L 415.531, 481.622 L 382.399, 493.874 L 351.855, 446.247 z "/>
<path style="fill:rgb(255, 0, 0);fill-opacity:0;fill-rule:evenodd;stroke:rgb(255, 127, 0);stroke-width:1;" d="M 32.2692, 306.471 L 60.2243, 296.117 L 61.4323, 298.188 L 67.8171, 308.197 L 69.3701, 310.613 L 62.6402, 313.028 L 63.503, 314.236 L 64.1933, 313.891 L 65.4012, 315.789 L 63.503, 316.652 L 68.6799, 324.418 L 65.4012, 325.626 L 67.2994, 328.559 L 69.7153, 327.696 L 70.0604, 328.041 L 78.6885, 324.935 L 81.9672, 330.112 L 86.2813, 336.842 L 81.6221, 338.568 L 92.321, 354.961 L 73.5116, 361.864 L 62.9853, 345.298 L 58.3261, 347.023 L 51.9413, 336.842 L 50.5608, 334.771 L 58.6713, 331.665 L 50.3883, 318.55 L 42.1053, 321.657 L 39.5168, 317.688 L 32.2692, 306.471 z "/>
<path style="fill:rgb(0, 255, 0);fill-opacity:0;fill-rule:evenodd;stroke:rgb(255, 127, 0);stroke-width:1;" d="M 473.339, 676.1 L 488.525, 655.565 L 543.572, 678.861 L 528.387, 699.396 L 519.931, 695.945 L 473.339, 676.1 z "/>
<path style="fill:rgb(0, 0, 255);fill-opacity:0;fill-rule:evenodd;stroke:rgb(255, 127, 0);stroke-width:1;" d="M 442.105, 718.55 L 458.499, 696.29 L 505.091, 716.135 L 488.87, 738.223 L 476.79, 733.218 L 456.773, 724.763 L 442.105, 718.55 z "/>
<path style="fill:rgb(255, 255, 0);fill-opacity:0;fill-rule:evenodd;stroke:rgb(255, 127, 0);stroke-width:1;" d="M 313.201, 681.795 L 329.249, 675.755 L 354.443, 714.409 L 353.581, 714.582 L 355.824, 718.205 L 358.412, 717.343 L 352.89, 708.887 L 355.479, 708.024 L 366.695, 725.108 L 350.475, 747.368 L 345.125, 739.258 L 336.497, 725.798 L 340.811, 724.072 L 313.201, 681.795 z "/>
<path style="fill:rgb(255, 0, 0);fill-opacity:0;fill-rule:evenodd;stroke:rgb(255, 127, 0);stroke-width:1;" d="M 458.499, 696.29 L 473.339, 676.1 L 519.931, 695.945 L 505.091, 716.135 L 458.499, 696.29 z "/>
<path style="fill:rgb(0, 255, 0);fill-opacity:0;fill-rule:evenodd;stroke:rgb(255, 127, 0);stroke-width:1;" d="M 254.012, 123.21 L 272.649, 116.307 L 288.179, 140.638 L 286.799, 141.156 L 289.56, 145.125 L 291.286, 144.607 L 293.529, 148.059 L 291.286, 148.921 L 293.011, 151.682 L 295.945, 152.373 L 300.086, 150.82 L 307.506, 162.381 L 279.206, 172.735 L 271.959, 161.346 L 276.618, 159.62 L 277.653, 157.377 L 275.755, 154.616 L 274.374, 155.134 L 254.012, 123.21 z "/>
<path style="fill:rgb(0, 0, 255);fill-opacity:0;fill-rule:evenodd;stroke:rgb(255, 127, 0);stroke-width:1;" d="M 225.712, 133.736 L 244.349, 126.833 L 260.052, 150.992 L 258.671, 151.51 L 261.26, 155.651 L 262.985, 154.961 L 265.229, 158.412 L 262.985, 159.275 L 264.884, 162.036 L 267.817, 162.899 L 271.959, 161.346 L 279.206, 172.735 L 251.079, 183.261 L 243.658, 171.7 L 248.49, 169.974 L 249.353, 167.903 L 247.627, 164.97 L 246.247, 165.487 L 225.712, 133.736 z "/>
<path style="fill:rgb(255, 255, 0);fill-opacity:0;fill-rule:evenodd;stroke:rgb(255, 127, 0);stroke-width:1;" d="M 336.324, 669.715 L 354.443, 662.813 L 356.169, 665.574 L 354.961, 666.091 L 369.456, 688.352 L 373.253, 686.799 L 383.261, 702.157 L 366.695, 725.108 L 355.479, 708.024 L 351.682, 702.157 L 356.342, 700.431 L 336.324, 669.715 z "/>
<path style="fill:rgb(255, 0, 0);fill-opacity:0;fill-rule:evenodd;stroke:rgb(255, 127, 0);stroke-width:1;" d="M 301.812, 207.248 L 329.94, 196.894 L 337.015, 207.938 L 331.32, 210.009 L 331.148, 211.734 L 336.497, 220.017 L 338.395, 221.053 L 343.917, 218.982 L 350.302, 228.991 L 344.953, 230.889 L 344.09, 232.959 L 345.47, 235.203 L 348.921, 233.822 L 354.098, 241.933 L 333.391, 249.525 L 328.214, 241.415 L 330.802, 240.38 L 328.559, 236.583 L 322.002, 238.999 L 316.48, 230.198 L 321.829, 228.3 L 322.865, 226.057 L 316.825, 216.739 L 314.064, 215.703 L 308.542, 217.774 L 301.812, 207.248 z "/>
<path style="fill:rgb(0, 255, 0);fill-opacity:0;fill-rule:evenodd;stroke:rgb(255, 127, 0);stroke-width:1;" d="M 329.94, 196.894 L 357.895, 186.713 L 364.797, 197.584 L 359.62, 199.482 L 358.585, 201.381 L 364.28, 210.009 L 366.868, 211.389 L 372.39, 209.318 L 372.908, 210.181 L 378.257, 218.637 L 372.217, 220.88 L 374.461, 224.504 L 377.567, 223.469 L 382.571, 231.406 L 361.864, 239.172 L 356.687, 231.061 L 359.793, 229.853 L 358.24, 227.61 L 355.824, 226.92 L 350.302, 228.991 L 343.917, 218.982 L 349.612, 216.911 L 350.129, 214.495 L 344.953, 206.212 L 342.192, 206.04 L 337.015, 207.938 L 329.94, 196.894 z "/>
<path style="fill:rgb(0, 0, 255);fill-opacity:0;fill-rule:evenodd;stroke:rgb(255, 127, 0);stroke-width:1;" d="M 274.202, 217.429 L 301.812, 207.248 L 308.542, 217.774 L 303.538, 219.672 L 302.33, 221.57 L 308.714, 231.579 L 310.785, 232.269 L 316.48, 230.198 L 322.002, 238.999 L 315.789, 241.242 L 318.205, 245.039 L 320.794, 244.003 L 326.143, 252.286 L 305.436, 259.879 L 300.086, 251.596 L 303.365, 250.388 L 301.812, 247.972 L 299.396, 247.627 L 294.564, 249.353 L 288.179, 239.344 L 293.011, 237.619 L 294.392, 235.375 L 288.179, 226.92 L 285.418, 226.747 L 281.104, 228.3 L 274.202, 217.429 z "/>
<path style="fill:rgb(255, 255, 0);fill-opacity:0;fill-rule:evenodd;stroke:rgb(255, 127, 0);stroke-width:1;" d="M 285.073, 118.723 L 304.745, 111.475 L 310.958, 121.311 L 315.789, 119.586 L 320.966, 127.869 L 313.028, 130.802 L 320.104, 141.674 L 328.041, 138.568 L 336.324, 151.682 L 307.506, 162.381 L 300.086, 150.82 L 304.228, 149.439 L 304.4, 146.506 L 302.502, 143.572 L 301.294, 144.09 L 285.073, 118.723 z "/>
<path style="fill:rgb(255, 0, 0);fill-opacity:0;fill-rule:evenodd;stroke:rgb(255, 127, 0);stroke-width:1;" d="M 38.3089, 720.794 L 62.8128, 711.821 L 73.6842, 728.732 L 60.5695, 733.563 L 64.1933, 739.258 L 77.308, 734.426 L 88.352, 751.682 L 63.8481, 760.656 L 51.2511, 740.984 L 47.7998, 742.364 L 42.1053, 733.563 L 45.7291, 732.183 L 38.3089, 720.794 z "/>
<path style="fill:rgb(0, 255, 0);fill-opacity:0;fill-rule:evenodd;stroke:rgb(255, 127, 0);stroke-width:1;" d="M 427.61, 738.395 L 442.105, 718.55 L 456.773, 724.763 L 454.185, 728.387 L 452.977, 728.387 L 452.632, 730.112 L 453.322, 730.63 L 472.304, 738.913 L 475.065, 737.705 L 474.374, 736.67 L 476.79, 733.218 L 488.87, 738.223 L 490.768, 739.085 L 488.87, 741.674 L 491.631, 742.709 L 487.317, 748.576 L 484.901, 747.541 L 476.445, 759.103 L 427.61, 738.395 z "/>
<path style="fill:rgb(0, 0, 255);fill-opacity:0;fill-rule:evenodd;stroke:rgb(255, 127, 0);stroke-width:1;" d="M 153.753, 137.36 L 168.076, 132.183 L 172.39, 138.74 L 176.877, 137.015 L 174.978, 134.254 L 180.673, 132.183 L 181.881, 134.081 L 182.226, 133.909 L 186.713, 132.183 L 185.505, 130.285 L 204.487, 123.382 L 217.084, 142.882 L 203.969, 147.714 L 201.035, 143.054 L 197.757, 143.054 L 191.717, 145.298 L 192.062, 145.815 L 186.54, 147.886 L 189.991, 153.236 L 168.766, 161.001 L 153.753, 137.36 z "/>
<path style="fill:rgb(255, 255, 0);fill-opacity:0;fill-rule:evenodd;stroke:rgb(255, 127, 0);stroke-width:1;" d="M 443.486, 265.229 L 470.923, 255.22 L 495.082, 292.839 L 467.472, 303.02 L 461.26, 293.356 L 470.06, 290.078 L 468.162, 287.317 L 466.609, 287.834 L 459.016, 275.755 L 460.052, 275.41 L 458.326, 272.476 L 450.043, 275.582 L 444.349, 266.609 L 443.486, 265.229 z "/>
<path style="fill:rgb(255, 0, 0);fill-opacity:0;fill-rule:evenodd;stroke:rgb(255, 127, 0);stroke-width:1;" d="M 332.528, 612.597 L 360.656, 601.898 L 365.833, 609.836 L 370.837, 617.601 L 376.014, 625.367 L 381.191, 633.305 L 352.89, 643.831 L 332.528, 612.597 z "/>
<path style="fill:rgb(0, 255, 0);fill-opacity:0;fill-rule:evenodd;stroke:rgb(255, 127, 0);stroke-width:1;" d="M 590.336, 596.204 L 614.668, 594.133 L 621.225, 635.72 L 597.066, 637.964 L 596.721, 637.964 L 590.336, 596.204 z "/>
<path style="fill:rgb(0, 0, 255);fill-opacity:0;fill-rule:evenodd;stroke:rgb(255, 127, 0);stroke-width:1;" d="M 402.416, 525.28 L 457.291, 505.091 L 466.782, 519.931 L 418.292, 537.877 L 408.801, 535.116 L 402.416, 525.28 z "/>
<path style="fill:rgb(255, 255, 0);fill-opacity:0;fill-rule:evenodd;stroke:rgb(255, 127, 0);stroke-width:1;" d="M 419.672, 275.755 L 444.349, 266.609 L 450.043, 275.582 L 450.388, 276.1 L 443.313, 278.861 L 454.012, 295.427 L 460.915, 292.839 L 461.26, 293.356 L 467.472, 303.02 L 439.344, 313.374 L 433.822, 304.745 L 440.552, 302.33 L 438.136, 298.533 L 435.03, 299.741 L 419.672, 275.755 z "/>
<path style="fill:rgb(255, 0, 0);fill-opacity:0;fill-rule:evenodd;stroke:rgb(255, 127, 0);stroke-width:1;" d="M 717.515, 695.427 L 726.488, 683.175 L 785.677, 708.197 L 776.704, 720.449 L 717.515, 695.427 z "/>
<path style="fill:rgb(0, 255, 0);fill-opacity:0;fill-rule:evenodd;stroke:rgb(255, 127, 0);stroke-width:1;" d="M 307.334, 88.6972 L 330.975, 79.8965 L 330.112, 78.3434 L 333.218, 77.308 L 331.838, 75.2373 L 350.82, 68.1622 L 363.762, 88.1795 L 348.059, 94.0466 L 346.678, 91.9758 L 344.78, 91.4582 L 315.789, 102.157 L 307.334, 88.6972 z "/>
<path style="fill:rgb(0, 0, 255);fill-opacity:0;fill-rule:evenodd;stroke:rgb(255, 127, 0);stroke-width:1;" d="M 756.859, 96.1173 L 786.022, 56.6005 L 801.553, 63.3305 L 777.912, 95.4271 L 772.563, 102.847 L 756.859, 96.1173 z "/>
<path style="fill:rgb(255, 255, 0);fill-opacity:0;fill-rule:evenodd;stroke:rgb(255, 127, 0);stroke-width:1;" d="M 568.939, 320.104 L 587.23, 313.374 L 591.89, 318.55 L 594.133, 321.311 L 598.102, 326.833 L 599.827, 329.594 L 601.553, 332.528 L 604.487, 338.395 L 607.075, 344.435 L 608.11, 347.541 L 590.682, 353.926 L 568.939, 320.104 z "/>
<path style="fill:rgb(255, 0, 0);fill-opacity:0;fill-rule:evenodd;stroke:rgb(255, 127, 0);stroke-width:1;" d="M 437.791, 573.253 L 482.83, 556.342 L 487.662, 558.24 L 476.273, 574.288 L 464.538, 590.854 L 442.796, 582.053 L 437.791, 573.253 z "/>
<path style="fill:rgb(0, 255, 0);fill-opacity:0;fill-rule:evenodd;stroke:rgb(255, 127, 0);stroke-width:1;" d="M 75.4098, 293.011 L 89.56, 287.834 L 95.7722, 297.67 L 90.2502, 299.741 L 89.7325, 302.157 L 96.1173, 312.166 L 103.365, 309.405 L 110.095, 319.931 L 103.538, 322.347 L 105.781, 325.971 L 108.887, 324.763 L 118.033, 338.913 L 107.334, 342.709 L 75.4098, 293.011 z "/>
<path style="fill:rgb(0, 0, 255);fill-opacity:0;fill-rule:evenodd;stroke:rgb(255, 127, 0);stroke-width:1;" d="M 89.56, 287.834 L 103.71, 282.657 L 135.462, 332.355 L 125.28, 336.152 L 116.135, 322.002 L 119.068, 320.966 L 116.825, 317.343 L 110.095, 319.931 L 103.365, 309.405 L 110.785, 306.644 L 104.228, 296.635 L 101.467, 295.6 L 95.7722, 297.67 L 89.56, 287.834 z "/>
<path style="fill:rgb(255, 255, 0);fill-opacity:0;fill-rule:evenodd;stroke:rgb(255, 127, 0);stroke-width:1;" d="M 103.71, 282.657 L 117.688, 277.481 L 124.072, 287.317 L 118.033, 289.56 L 117.515, 291.803 L 124.072, 301.984 L 131.665, 299.223 L 138.223, 309.577 L 131.665, 311.993 L 133.736, 315.272 L 136.67, 314.236 L 145.988, 328.559 L 135.462, 332.355 L 103.71, 282.657 z "/>
<path style="fill:rgb(255, 0, 0);fill-opacity:0;fill-rule:evenodd;stroke:rgb(255, 127, 0);stroke-width:1;" d="M 61.4323, 298.188 L 75.4098, 293.011 L 107.334, 342.709 L 97.3253, 346.506 L 88.352, 332.355 L 91.2856, 331.148 L 88.8697, 327.524 L 81.9672, 330.112 L 78.6885, 324.935 L 75.4098, 319.931 L 83.0026, 317.17 L 76.2726, 306.644 L 73.8568, 305.953 L 67.8171, 308.197 L 61.4323, 298.188 z "/>
<path style="fill:rgb(0, 255, 0);fill-opacity:0;fill-rule:evenodd;stroke:rgb(255, 127, 0);stroke-width:1;" d="M 831.579, 586.713 L 861.087, 570.147 L 872.476, 581.881 L 871.959, 582.226 L 880.069, 590.509 L 873.857, 593.96 L 866.609, 586.54 L 843.831, 599.31 L 831.579, 586.713 z "/>
<path style="fill:rgb(0, 0, 255);fill-opacity:0;fill-rule:evenodd;stroke:rgb(255, 127, 0);stroke-width:1;" d="M 383.779, 632.269 L 408.11, 623.123 L 423.469, 646.592 L 414.495, 658.844 L 403.279, 641.588 L 392.407, 645.729 L 385.505, 634.858 L 383.779, 632.269 z "/>
<path style="fill:rgb(255, 255, 0);fill-opacity:0;fill-rule:evenodd;stroke:rgb(255, 127, 0);stroke-width:1;" d="M 686.281, 603.451 L 747.196, 579.81 L 752.545, 587.748 L 727.696, 597.412 L 691.631, 611.389 L 686.281, 603.451 z "/>
<path style="fill:rgb(255, 0, 0);fill-opacity:0;fill-rule:evenodd;stroke:rgb(255, 127, 0);stroke-width:1;" d="M 870.923, 573.943 L 900.259, 551.51 L 911.821, 560.311 L 903.192, 567.041 L 905.436, 568.766 L 884.901, 584.469 L 870.923, 573.943 z "/>
<path style="fill:rgb(0, 255, 0);fill-opacity:0;fill-rule:evenodd;stroke:rgb(255, 127, 0);stroke-width:1;" d="M 715.099, 651.941 L 753.063, 648.835 L 755.134, 663.158 L 721.311, 666.091 L 717.343, 666.437 L 715.099, 651.941 z "/>
<path style="fill:rgb(0, 0, 255);fill-opacity:0;fill-rule:evenodd;stroke:rgb(255, 127, 0);stroke-width:1;" d="M 290.25, 628.473 L 304.745, 622.951 L 310.095, 631.061 L 304.4, 633.305 L 306.471, 636.411 L 308.197, 635.72 L 310.613, 639.344 L 308.197, 640.207 L 310.095, 643.313 L 312.511, 642.278 L 324.763, 661.087 L 314.064, 665.056 L 290.25, 628.473 z "/>
<path style="fill:rgb(255, 255, 0);fill-opacity:0;fill-rule:evenodd;stroke:rgb(255, 127, 0);stroke-width:1;" d="M 276.445, 633.65 L 290.25, 628.473 L 314.064, 665.056 L 303.71, 669.025 L 291.286, 650.043 L 294.047, 649.008 L 292.148, 646.074 L 289.387, 647.11 L 287.144, 643.658 L 290.078, 642.45 L 288.179, 639.344 L 281.795, 641.76 L 278.689, 637.274 L 276.445, 633.65 z "/>
<path style="fill:rgb(255, 0, 0);fill-opacity:0;fill-rule:evenodd;stroke:rgb(255, 127, 0);stroke-width:1;" d="M 304.745, 622.951 L 318.205, 617.947 L 342.019, 654.702 L 332.01, 658.499 L 319.931, 639.862 L 322.002, 638.999 L 320.104, 636.066 L 318.033, 636.928 L 315.617, 633.132 L 317.343, 632.442 L 315.099, 629.163 L 310.095, 631.061 L 304.745, 622.951 z "/>
<path style="fill:rgb(0, 255, 0);fill-opacity:0;fill-rule:evenodd;stroke:rgb(255, 127, 0);stroke-width:1;" d="M 318.205, 617.947 L 331.838, 612.77 L 337.187, 620.88 L 331.32, 622.951 L 333.563, 626.23 L 335.289, 625.712 L 337.532, 629.336 L 335.979, 630.026 L 338.395, 633.822 L 339.603, 633.305 L 341.329, 635.893 L 340.466, 636.238 L 348.576, 648.835 L 350.302, 651.596 L 342.019, 654.702 L 318.205, 617.947 z "/>
<path style="fill:rgb(0, 0, 255);fill-opacity:0;fill-rule:evenodd;stroke:rgb(255, 127, 0);stroke-width:1;" d="M 646.074, 448.49 L 660.397, 428.473 L 673.684, 433.995 L 659.362, 454.012 L 646.074, 448.49 z "/>
<path style="fill:rgb(255, 255, 0);fill-opacity:0;fill-rule:evenodd;stroke:rgb(255, 127, 0);stroke-width:1;" d="M 771.355, 585.505 L 796.721, 575.669 L 803.796, 586.195 L 778.43, 596.031 L 771.355, 585.505 z "/>
<path style="fill:rgb(255, 0, 0);fill-opacity:0;fill-rule:evenodd;stroke:rgb(255, 127, 0);stroke-width:1;" d="M 803.624, 74.8921 L 810.354, 65.9189 L 838.654, 78.1708 L 831.924, 87.1441 L 803.624, 74.8921 z "/>
<path style="fill:rgb(0, 255, 0);fill-opacity:0;fill-rule:evenodd;stroke:rgb(255, 127, 0);stroke-width:1;" d="M 907.161, 467.645 L 919.758, 449.698 L 933.391, 455.22 L 924.418, 467.99 L 920.794, 473.167 L 907.161, 467.645 z "/>
<path style="fill:rgb(0, 0, 255);fill-opacity:0;fill-rule:evenodd;stroke:rgb(255, 127, 0);stroke-width:1;" d="M 630.544, 468.335 L 642.968, 451.941 L 655.738, 457.636 L 654.357, 459.189 L 643.313, 473.857 L 630.544, 468.335 z "/>
<path style="fill:rgb(255, 255, 0);fill-opacity:0;fill-rule:evenodd;stroke:rgb(255, 127, 0);stroke-width:1;" d="M 376.014, 625.367 L 402.934, 615.186 L 408.11, 623.123 L 383.779, 632.269 L 381.191, 633.305 L 376.014, 625.367 z "/>
<path style="fill:rgb(255, 0, 0);fill-opacity:0;fill-rule:evenodd;stroke:rgb(255, 127, 0);stroke-width:1;" d="M 360.656, 601.898 L 387.748, 591.717 L 392.925, 599.655 L 365.833, 609.836 L 360.656, 601.898 z "/>
<path style="fill:rgb(0, 255, 0);fill-opacity:0;fill-rule:evenodd;stroke:rgb(255, 127, 0);stroke-width:1;" d="M 365.833, 609.836 L 392.925, 599.655 L 397.929, 607.42 L 370.837, 617.601 L 365.833, 609.836 z "/>
<path style="fill:rgb(0, 0, 255);fill-opacity:0;fill-rule:evenodd;stroke:rgb(255, 127, 0);stroke-width:1;" d="M 370.837, 617.601 L 397.929, 607.42 L 402.934, 615.186 L 376.014, 625.367 L 370.837, 617.601 z "/>
<path style="fill:rgb(255, 255, 0);fill-opacity:0;fill-rule:evenodd;stroke:rgb(255, 127, 0);stroke-width:1;" d="M 862.64, 710.267 L 879.724, 684.383 L 886.454, 686.972 L 869.37, 712.856 L 862.64, 710.267 z "/>
<path style="fill:rgb(255, 0, 0);fill-opacity:0;fill-rule:evenodd;stroke:rgb(255, 127, 0);stroke-width:1;" d="M 727.179, 335.116 L 739.603, 318.033 L 747.714, 321.484 L 735.289, 338.568 L 727.179, 335.116 z "/>
<path style="fill:rgb(0, 255, 0);fill-opacity:0;fill-rule:evenodd;stroke:rgb(255, 127, 0);stroke-width:1;" d="M 748.404, 420.017 L 756.342, 408.973 L 764.452, 412.252 L 756.687, 423.469 L 748.404, 420.017 z "/>
<path style="fill:rgb(0, 0, 255);fill-opacity:0;fill-rule:evenodd;stroke:rgb(255, 127, 0);stroke-width:1;" d="M 896.117, 482.312 L 904.228, 471.096 L 911.993, 474.374 L 903.71, 485.591 L 896.117, 482.312 z "/>
<path style="fill:rgb(255, 255, 0);fill-opacity:0;fill-rule:evenodd;stroke:rgb(255, 127, 0);stroke-width:1;" d="M 700.259, 200.345 L 707.334, 197.757 L 715.099, 210.526 L 708.197, 212.942 L 700.259, 200.345 z "/>
<path style="fill:rgb(255, 0, 0);fill-opacity:0;fill-rule:evenodd;stroke:rgb(255, 127, 0);stroke-width:1;" d="M 618.292, 484.556 L 627.092, 472.649 L 631.406, 474.374 L 622.433, 486.454 L 618.292, 484.556 z "/>
<path style="fill:rgb(0, 255, 0);fill-opacity:0;fill-rule:evenodd;stroke:rgb(255, 127, 0);stroke-width:1;" d="M 1.55306, 528.904 L 31.0613, 518.033 L 41.9327, 534.944 L 36.5833, 536.842 L 43.6583, 548.059 L 74.3745, 536.67 L 56.2554, 508.542 L 85.0733, 498.016 L 92.321, 509.405 L 87.6618, 511.13 L 89.0423, 513.201 L 86.6264, 514.064 L 92.4935, 523.21 L 100.259, 520.276 L 106.816, 530.63 L 102.675, 532.183 L 111.475, 545.815 L 87.6618, 554.616 L 82.6575, 546.678 L 76.7903, 548.921 L 78.1708, 551.165 L 55.0475, 559.793 L 55.7377, 561.001 L 28.8179, 571.009 L 1.55306, 528.904 z "/>
<path style="fill:rgb(0, 0, 255);fill-opacity:0;fill-rule:evenodd;stroke:rgb(255, 127, 0);stroke-width:1;" d="M 29.3356, 112.683 L 71.4409, 97.4978 L 97.6704, 139.776 L 55.5651, 154.789 L 29.3356, 112.683 z "/>
<path style="fill:rgb(255, 255, 0);fill-opacity:0;fill-rule:evenodd;stroke:rgb(255, 127, 0);stroke-width:1;" d="M 0, 174.978 L 55.5651, 154.789 L 97.6704, 139.776 L 108.542, 157.032 L 54.1846, 176.704 L 10.8714, 192.235 L 0, 174.978 z "/>
<path style="fill:rgb(255, 0, 0);fill-opacity:0;fill-rule:evenodd;stroke:rgb(255, 127, 0);stroke-width:1;" d="M 4.65919, 316.652 L 32.2692, 306.471 L 39.5168, 317.688 L 32.6143, 320.276 L 39.3443, 330.802 L 46.2468, 328.214 L 50.5608, 334.771 L 51.9413, 336.842 L 46.2468, 338.913 L 46.0742, 342.019 L 51.4236, 350.302 L 58.8438, 347.714 L 63.8481, 355.651 L 35.893, 366.005 L 30.7161, 357.722 L 37.4461, 355.134 L 30.7161, 344.435 L 23.8136, 347.023 L 18.4642, 338.568 L 25.1941, 336.152 L 18.2916, 325.28 L 11.9068, 327.696 L 4.65919, 316.652 z "/>
<path style="fill:rgb(0, 255, 0);fill-opacity:0;fill-rule:evenodd;stroke:rgb(255, 127, 0);stroke-width:1;" d="M 15.7032, 729.077 L 31.4064, 723.382 L 38.8266, 734.771 L 42.1053, 733.563 L 47.7998, 742.364 L 44.176, 743.745 L 56.0828, 762.381 L 40.5522, 768.076 L 30.8887, 752.89 L 27.4374, 754.098 L 20.0173, 742.537 L 23.4685, 741.329 L 15.7032, 729.077 z "/>
<path style="fill:rgb(0, 0, 255);fill-opacity:0;fill-rule:evenodd;stroke:rgb(255, 127, 0);stroke-width:1;" d="M 589.301, 70.7506 L 641.415, 0 L 655.565, 5.86713 L 654.012, 7.76531 L 703.538, 28.8179 L 729.594, 39.8619 L 730.802, 38.1363 L 745.643, 44.3486 L 702.33, 103.192 L 683.348, 95.2545 L 673.512, 108.542 L 660.915, 103.192 L 670.751, 89.9051 L 667.127, 88.352 L 670.923, 83.0026 L 674.029, 84.2105 L 701.467, 46.7645 L 693.184, 43.3132 L 689.387, 48.3175 L 657.291, 34.6851 L 633.477, 67.472 L 639.862, 70.0604 L 636.238, 75.2373 L 629.681, 72.4763 L 621.053, 84.2105 L 589.301, 70.7506 z "/>
<path style="fill:rgb(255, 255, 0);fill-opacity:0;fill-rule:evenodd;stroke:rgb(255, 127, 0);stroke-width:1;" d="M 262.64, 38.9991 L 288.697, 32.7869 L 303.365, 55.5651 L 302.33, 56.0828 L 304.4, 59.189 L 316.307, 54.8749 L 314.236, 51.5962 L 312.856, 52.1139 L 298.878, 30.371 L 322.865, 24.5039 L 347.714, 63.1579 L 325.108, 71.6135 L 320.794, 64.711 L 324.245, 63.503 L 321.657, 59.5341 L 310.958, 63.503 L 317.17, 73.1665 L 296.808, 80.7593 L 292.321, 73.8568 L 291.113, 74.2019 L 287.317, 68.1622 L 286.626, 68.5073 L 278.861, 56.2554 L 279.551, 55.9103 L 276.273, 50.906 L 271.441, 52.6316 L 262.64, 38.9991 z "/>
<path style="fill:rgb(255, 0, 0);fill-opacity:0;fill-rule:evenodd;stroke:rgb(255, 127, 0);stroke-width:1;" d="M 221.398, 54.3572 L 262.64, 38.9991 L 271.441, 52.6316 L 273.339, 55.7377 L 260.052, 60.5695 L 261.087, 62.2951 L 260.052, 62.6402 L 262.295, 66.0915 L 268.335, 63.8481 L 272.994, 71.0958 L 281.277, 68.1622 L 286.972, 76.7903 L 282.657, 78.3434 L 291.286, 91.8033 L 277.653, 96.8076 L 273.167, 89.7325 L 260.052, 94.5643 L 258.154, 91.6307 L 247.8, 95.4271 L 244.521, 90.4228 L 238.136, 80.4142 L 249.871, 76.1001 L 246.074, 70.4055 L 247.8, 69.7153 L 245.384, 66.0915 L 232.097, 70.9232 L 221.398, 54.3572 z "/>
<path style="fill:rgb(0, 255, 0);fill-opacity:0;fill-rule:evenodd;stroke:rgb(255, 127, 0);stroke-width:1;" d="M 382.399, 30.1984 L 387.058, 28.4728 L 422.606, 43.3132 L 460.742, 59.3615 L 459.189, 61.4323 L 439.689, 68.8525 L 438.827, 67.6445 L 429.853, 71.0958 L 433.305, 76.1001 L 416.566, 82.4849 L 405.177, 65.0561 L 420.362, 59.3615 L 416.393, 53.3218 L 401.208, 59.0164 L 382.399, 30.1984 z "/>
</svg>