<?xml version="1.0" encoding="iso-8859-1" standalone="no"?>
<!DOCTYPE svg PUBLIC "-//W3C//DTD SVG 1.0//EN" "http://www.w3.org/TR/2001/REC-SVG-20010904/DTD/svg10.dtd">
<svg xmlns="http://www.w3.org/2000/svg" width="1299" height="800">
<path style="fill:rgb(255, 0, 0);fill-opacity:0;fill-rule:evenodd;stroke:rgb(216, 0, 255);stroke-width:1;" d="M 1059.1, 265.154 L 1085.77, 236.974 L 1134.37, 225.248 L 1143.83, 215.225 L 1164.26, 226.572 L 1184.11, 205.768 L 1174.47, 200.473 L 1175.98, 198.96 L 1170.5, 195.934 L 1168.98, 197.636 L 1163.12, 194.421 L 1167.47, 189.882 L 1169.55, 191.017 L 1173.52, 186.856 L 1171.44, 185.721 L 1184.68, 171.726 L 1188.84, 174.184 L 1193.57, 169.078 L 1220.43, 183.83 L 1214.56, 184.397 L 1216.45, 196.879 L 1240.47, 194.988 L 1299.48, 226.572 L 1199.81, 333.428 L 1177.87, 321.513 L 1166.34, 272.908 L 1154.99, 266.667 L 1138.91, 283.499 L 1132.29, 279.905 L 1125.48, 287.092 L 1079.91, 262.128 L 1071.02, 271.584 L 1059.1, 265.154 z "/>
<path style="fill:rgb(0, 255, 0);fill-opacity:0;fill-rule:evenodd;stroke:rgb(216, 0, 255);stroke-width:1;" d="M 737.589, 743.073 L 744.397, 735.697 L 748.558, 737.967 L 760.095, 725.674 L 758.014, 715.461 L 762.175, 710.922 L 739.858, 698.818 L 737.589, 688.605 L 746.099, 679.527 L 758.014, 685.957 L 770.496, 672.719 L 777.116, 672.53 L 800.189, 647.754 L 817.021, 656.832 L 813.617, 660.426 L 836.501, 672.719 L 838.582, 682.364 L 830.449, 691.064 L 818.534, 684.634 L 805.674, 698.44 L 798.865, 698.629 L 785.248, 713.191 L 789.22, 721.513 L 778.251, 733.428 L 798.109, 744.019 L 799.622, 749.504 L 823.452, 762.364 L 825.721, 772.577 L 819.291, 779.385 L 814.563, 776.927 L 793.002, 800 L 773.712, 789.598 L 782.411, 780.331 L 765.201, 771.064 L 764.066, 765.768 L 739.48, 752.53 L 737.589, 743.073 z "/>
<path style="fill:rgb(0, 0, 255);fill-opacity:0;fill-rule:evenodd;stroke:rgb(216, 0, 255);stroke-width:1;" d="M 984.019, 602.553 L 1089.74, 490.402 L 1098.25, 495.13 L 1102.22, 490.78 L 1111.3, 495.697 L 1109.6, 497.589 L 1128.7, 507.991 L 1020.71, 622.79 L 984.019, 602.553 z "/>
<path style="fill:rgb(255, 255, 0);fill-opacity:0;fill-rule:evenodd;stroke:rgb(216, 0, 255);stroke-width:1;" d="M 890.78, 687.092 L 964.539, 608.794 L 967.187, 610.118 L 973.617, 603.121 L 977.778, 605.579 L 981.749, 601.418 L 984.019, 602.553 L 1020.71, 622.79 L 936.548, 712.057 L 890.78, 687.092 z "/>
<path style="fill:rgb(255, 0, 0);fill-opacity:0;fill-rule:evenodd;stroke:rgb(216, 0, 255);stroke-width:1;" d="M 837.636, 743.452 L 890.78, 687.092 L 936.548, 712.057 L 883.593, 768.416 L 837.636, 743.452 z "/>
<path style="fill:rgb(0, 255, 0);fill-opacity:0;fill-rule:evenodd;stroke:rgb(216, 0, 255);stroke-width:1;" d="M 835.934, 550.355 L 857.305, 528.605 L 852.199, 525.768 L 859.385, 518.392 L 872.435, 516.69 L 896.076, 530.118 L 903.073, 529.173 L 922.364, 540.142 L 934.468, 528.038 L 947.518, 526.714 L 940.709, 531.82 L 943.735, 543.924 L 952.246, 548.463 L 938.44, 550.544 L 926.714, 562.459 L 931.442, 565.106 L 924.444, 572.104 L 912.151, 573.995 L 888.322, 560.567 L 880.946, 561.702 L 863.168, 551.678 L 854.279, 560.757 L 835.934, 550.355 z "/>
<path style="fill:rgb(0, 0, 255);fill-opacity:0;fill-rule:evenodd;stroke:rgb(216, 0, 255);stroke-width:1;" d="M 940.709, 531.82 L 947.518, 526.714 L 959.811, 514.043 L 958.109, 509.314 L 971.348, 495.697 L 959.243, 488.7 L 967.754, 480 L 980.804, 478.298 L 1002.36, 490.402 L 1005.58, 487.187 L 1022.79, 496.832 L 999.905, 520.095 L 1001.61, 526.147 L 988.936, 539.007 L 999.716, 545.248 L 991.395, 553.759 L 979.48, 556.217 L 956.974, 543.357 L 952.246, 548.463 L 943.735, 543.924 L 940.709, 531.82 z "/>
<path style="fill:rgb(255, 255, 0);fill-opacity:0;fill-rule:evenodd;stroke:rgb(216, 0, 255);stroke-width:1;" d="M 0, 42.9314 L 31.2057, 0 L 151.111, 50.4965 L 145.059, 58.818 L 153.381, 62.4113 L 146.572, 71.6785 L 138.251, 68.2742 L 136.548, 70.3546 L 167.376, 83.4043 L 193.475, 47.8487 L 194.232, 48.227 L 196.69, 44.8227 L 248.322, 66.5721 L 214.09, 113.286 L 162.27, 91.3475 L 164.35, 88.5106 L 132.955, 75.2719 L 130.496, 78.8652 L 86.9976, 60.5201 L 73.1915, 79.6217 L 66.0047, 76.5957 L 17.5887, 56.1702 L 8.32151, 52.1986 L 11.5366, 47.8487 L 0, 42.9314 z "/>
</svg>