<?xml version="1.0" encoding="iso-8859-1" standalone="no"?>
<!DOCTYPE svg PUBLIC "-//W3C//DTD SVG 1.0//EN" "http://www.w3.org/TR/2001/REC-SVG-20010904/DTD/svg10.dtd">
<svg xmlns="http://www.w3.org/2000/svg" width="1141" height="800">
<path style="fill:rgb(255, 0, 0);fill-opacity:0;fill-rule:evenodd;stroke:rgb(0, 163, 255);stroke-width:1;" d="M 558.688, 160.284 L 609.397, 90.7801 L 709.574, 132.979 L 827.128, 182.447 L 775.532, 252.66 L 608.156, 181.206 L 558.688, 160.284 z "/>
<path style="fill:rgb(0, 255, 0);fill-opacity:0;fill-rule:evenodd;stroke:rgb(0, 163, 255);stroke-width:1;" d="M 232.27, 613.475 L 249.823, 589.539 L 294.504, 529.078 L 319.504, 539.894 L 337.766, 547.695 L 399.645, 573.759 L 394.858, 580.142 L 381.383, 598.582 L 369.149, 615.248 L 342.908, 604.078 L 337.589, 612.057 L 333.865, 617.199 L 330.142, 622.163 L 329.433, 623.05 L 320.035, 635.816 L 317.376, 639.362 L 311.702, 646.986 L 281.206, 633.865 L 256.206, 623.227 L 232.27, 613.475 z "/>
<path style="fill:rgb(0, 0, 255);fill-opacity:0;fill-rule:evenodd;stroke:rgb(0, 163, 255);stroke-width:1;" d="M 757.27, 95.7447 L 797.695, 40.4255 L 934.397, 97.8723 L 897.695, 154.965 L 757.27, 95.7447 z "/>
<path style="fill:rgb(255, 255, 0);fill-opacity:0;fill-rule:evenodd;stroke:rgb(0, 163, 255);stroke-width:1;" d="M 171.277, 389.184 L 201.241, 347.695 L 312.234, 394.149 L 251.596, 477.66 L 196.277, 454.61 L 210.284, 435.106 L 182.447, 423.582 L 198.936, 400.709 L 171.277, 389.184 z "/>
<path style="fill:rgb(255, 0, 0);fill-opacity:0;fill-rule:evenodd;stroke:rgb(0, 163, 255);stroke-width:1;" d="M 545.745, 316.489 L 571.277, 281.56 L 585.816, 287.766 L 590.071, 281.738 L 593.617, 276.95 L 622.34, 237.589 L 636.348, 243.44 L 674.468, 259.397 L 689.539, 265.78 L 696.986, 268.794 L 690.426, 277.66 L 687.589, 281.56 L 675.355, 298.404 L 670.035, 305.674 L 662.057, 316.489 L 641.312, 344.858 L 634.929, 353.723 L 629.433, 351.418 L 613.83, 344.858 L 561.17, 322.872 L 545.745, 316.489 z "/>
<path style="fill:rgb(0, 255, 0);fill-opacity:0;fill-rule:evenodd;stroke:rgb(0, 163, 255);stroke-width:1;" d="M 545.745, 316.489 L 571.277, 281.56 L 585.816, 287.766 L 590.071, 281.738 L 593.617, 276.95 L 622.34, 237.589 L 636.348, 243.44 L 633.688, 246.809 L 671.986, 262.943 L 674.468, 259.397 L 689.539, 265.78 L 696.986, 268.794 L 690.426, 277.66 L 687.589, 281.56 L 675.355, 298.404 L 670.035, 305.674 L 661.525, 301.95 L 653.546, 312.766 L 662.057, 316.489 L 641.312, 344.858 L 634.929, 353.723 L 629.433, 351.418 L 613.83, 344.858 L 616.489, 341.135 L 563.83, 318.972 L 561.17, 322.872 L 545.745, 316.489 z "/>
<path style="fill:rgb(0, 0, 255);fill-opacity:0;fill-rule:evenodd;stroke:rgb(0, 163, 255);stroke-width:1;" d="M 608.156, 181.206 L 624.645, 158.688 L 780.851, 223.582 L 802.837, 193.262 L 796.099, 190.426 L 798.404, 187.234 L 763.121, 172.518 L 760.816, 175.709 L 697.872, 149.645 L 709.574, 132.979 L 827.128, 182.447 L 775.532, 252.66 L 608.156, 181.206 z "/>
<path style="fill:rgb(255, 255, 0);fill-opacity:0;fill-rule:evenodd;stroke:rgb(0, 163, 255);stroke-width:1;" d="M 981.383, 193.972 L 995.39, 174.645 L 991.844, 173.05 L 996.454, 166.667 L 1000, 168.262 L 1007.62, 157.801 L 1003.9, 156.383 L 1008.51, 150 L 1012.23, 151.596 L 1023.4, 136.17 L 1041.13, 143.617 L 1046.99, 142.376 L 1049.65, 138.652 L 1063.65, 119.326 L 1059.4, 117.553 L 1064.72, 110.106 L 1108.87, 128.546 L 1094.5, 148.227 L 1095.04, 151.773 L 1110.99, 158.333 L 1113.12, 155.319 L 1141.13, 167.021 L 1118.79, 197.518 L 1085.28, 183.511 L 1083.51, 185.993 L 1074.11, 182.27 L 1078.55, 176.241 L 1053.01, 165.78 L 1047.87, 166.844 L 1041.84, 175 L 1045.74, 176.418 L 1037.23, 187.943 L 1040.96, 189.539 L 1035.64, 196.986 L 1031.91, 195.39 L 1020.92, 210.461 L 981.383, 193.972 z "/>
<path style="fill:rgb(255, 0, 0);fill-opacity:0;fill-rule:evenodd;stroke:rgb(0, 163, 255);stroke-width:1;" d="M 867.73, 737.766 L 890.78, 706.206 L 898.404, 695.745 L 906.028, 685.106 L 910.638, 678.901 L 950.177, 695.567 L 953.546, 690.957 L 983.865, 703.723 L 967.908, 725.532 L 937.589, 767.199 L 867.73, 737.766 z "/>
<path style="fill:rgb(0, 255, 0);fill-opacity:0;fill-rule:evenodd;stroke:rgb(0, 163, 255);stroke-width:1;" d="M 380.496, 102.66 L 393.44, 84.9291 L 407.979, 90.9574 L 413.121, 84.3972 L 432.092, 92.7305 L 432.801, 93.0851 L 433.156, 93.617 L 432.979, 94.3262 L 431.915, 95.7447 L 452.128, 104.255 L 459.397, 94.3262 L 459.929, 93.7943 L 460.638, 93.617 L 461.525, 93.617 L 468.794, 96.8085 L 478.369, 83.6879 L 499.645, 92.7305 L 509.752, 96.9858 L 506.56, 101.418 L 521.631, 107.801 L 491.312, 149.291 L 380.496, 102.66 z "/>
<path style="fill:rgb(0, 0, 255);fill-opacity:0;fill-rule:evenodd;stroke:rgb(0, 163, 255);stroke-width:1;" d="M 666.489, 176.241 L 678.369, 159.752 L 688.652, 145.745 L 697.872, 149.645 L 760.816, 175.709 L 796.099, 190.426 L 802.837, 193.262 L 780.851, 223.582 L 666.489, 176.241 z "/>
<path style="fill:rgb(255, 255, 0);fill-opacity:0;fill-rule:evenodd;stroke:rgb(0, 163, 255);stroke-width:1;" d="M 826.773, 266.667 L 873.582, 202.128 L 876.773, 201.773 L 917.376, 218.794 L 886.525, 261.348 L 913.652, 272.695 L 896.809, 296.099 L 826.773, 266.667 z "/>
<path style="fill:rgb(255, 0, 0);fill-opacity:0;fill-rule:evenodd;stroke:rgb(0, 163, 255);stroke-width:1;" d="M 826.773, 266.667 L 873.582, 202.128 L 876.773, 201.773 L 917.376, 218.794 L 886.525, 261.348 L 913.652, 272.695 L 896.809, 296.099 L 826.773, 266.667 z "/>
<path style="fill:rgb(0, 255, 0);fill-opacity:0;fill-rule:evenodd;stroke:rgb(0, 163, 255);stroke-width:1;" d="M 558.688, 160.284 L 609.397, 90.7801 L 709.574, 132.979 L 697.872, 149.645 L 688.652, 145.745 L 691.135, 142.199 L 604.078, 106.028 L 564.007, 161.348 L 586.525, 170.567 L 608.688, 140.071 L 618.617, 144.149 L 623.759, 137.057 L 678.369, 159.752 L 666.489, 176.241 L 624.645, 158.688 L 608.156, 181.206 L 558.688, 160.284 z "/>
<path style="fill:rgb(0, 0, 255);fill-opacity:0;fill-rule:evenodd;stroke:rgb(0, 163, 255);stroke-width:1;" d="M 277.305, 720.745 L 277.482, 720.39 L 307.624, 678.546 L 377.128, 707.624 L 349.823, 745.035 L 290.426, 720.213 L 287.057, 724.823 L 277.305, 720.745 z "/>
<path style="fill:rgb(255, 255, 0);fill-opacity:0;fill-rule:evenodd;stroke:rgb(0, 163, 255);stroke-width:1;" d="M 325.887, 168.972 L 336.525, 154.61 L 343.262, 157.447 L 356.383, 139.362 L 363.298, 129.965 L 376.064, 135.284 L 395.213, 143.262 L 407.979, 148.582 L 414.184, 151.418 L 414.716, 154.787 L 412.589, 157.447 L 408.688, 159.043 L 402.305, 156.383 L 401.064, 158.156 L 387.766, 176.241 L 393.44, 178.723 L 391.489, 181.383 L 382.801, 193.085 L 375.532, 190.071 L 370.745, 196.631 L 368.44, 195.745 L 364.539, 194.149 L 364.007, 194.858 L 362.589, 194.326 L 360.993, 196.454 L 355.851, 194.326 L 354.61, 196.099 L 346.809, 197.872 L 339.716, 194.858 L 337.589, 189.362 L 339.362, 186.879 L 334.574, 184.929 L 332.979, 182.624 L 333.865, 181.383 L 331.915, 180.496 L 327.66, 178.901 L 332.979, 171.986 L 325.887, 168.972 z "/>
<path style="fill:rgb(255, 0, 0);fill-opacity:0;fill-rule:evenodd;stroke:rgb(0, 163, 255);stroke-width:1;" d="M 978.191, 585.993 L 994.681, 563.652 L 1008.87, 544.149 L 1064.54, 567.553 L 1062.77, 570.035 L 1059.04, 575 L 1040.07, 601.064 L 1033.87, 609.397 L 1016.67, 602.128 L 978.191, 585.993 z "/>
<path style="fill:rgb(0, 255, 0);fill-opacity:0;fill-rule:evenodd;stroke:rgb(0, 163, 255);stroke-width:1;" d="M 468.617, 282.624 L 517.021, 215.603 L 552.482, 230.319 L 545.39, 240.426 L 539.716, 248.05 L 537.766, 247.34 L 502.128, 296.631 L 468.617, 282.624 z "/>
<path style="fill:rgb(0, 0, 255);fill-opacity:0;fill-rule:evenodd;stroke:rgb(0, 163, 255);stroke-width:1;" d="M 640.071, 784.574 L 645.567, 776.95 L 653.546, 780.142 L 664.539, 764.716 L 656.738, 761.348 L 662.766, 753.014 L 670.567, 756.206 L 670.035, 756.915 L 685.993, 763.652 L 684.043, 760.638 L 679.078, 758.511 L 680.319, 756.738 L 672.34, 753.191 L 670.567, 755.496 L 665.248, 753.191 L 662.234, 752.837 L 649.468, 747.518 L 656.915, 737.057 L 657.447, 737.234 L 664.716, 726.95 L 677.66, 732.27 L 678.901, 734.397 L 684.929, 737.057 L 684.22, 737.943 L 691.844, 741.135 L 692.73, 739.894 L 697.872, 741.844 L 701.241, 741.312 L 704.078, 742.553 L 704.61, 741.844 L 698.582, 739.362 L 697.518, 740.78 L 690.426, 737.943 L 698.05, 727.305 L 705.319, 730.319 L 704.61, 731.383 L 709.043, 733.156 L 712.234, 732.801 L 722.34, 736.879 L 677.305, 800 L 640.071, 784.574 z M 670.567, 742.553 L 671.631, 744.858 L 676.95, 747.163 L 676.418, 748.05 L 683.865, 751.064 L 684.752, 750 L 690.957, 752.482 L 692.908, 752.837 L 691.667, 750.532 L 685.993, 748.227 L 687.411, 746.277 L 679.433, 742.908 L 678.014, 744.858 L 672.518, 742.553 L 670.567, 742.553 z "/>
<path style="fill:rgb(255, 255, 0);fill-opacity:0;fill-rule:evenodd;stroke:rgb(0, 163, 255);stroke-width:1;" d="M 564.007, 161.348 L 604.078, 106.028 L 691.135, 142.199 L 688.652, 145.745 L 678.369, 159.752 L 623.759, 137.057 L 630.319, 128.014 L 609.929, 119.504 L 598.227, 135.638 L 608.688, 140.071 L 586.525, 170.567 L 564.007, 161.348 z "/>
<path style="fill:rgb(255, 0, 0);fill-opacity:0;fill-rule:evenodd;stroke:rgb(0, 163, 255);stroke-width:1;" d="M 139.716, 516.667 L 142.376, 512.766 L 145.39, 514.539 L 151.241, 509.22 L 145.922, 506.738 L 161.879, 485.106 L 165.071, 482.801 L 169.504, 486.879 L 173.227, 484.397 L 184.043, 493.085 L 187.589, 490.78 L 198.05, 499.291 L 201.418, 496.809 L 212.234, 505.319 L 215.78, 502.66 L 219.858, 506.383 L 210.461, 519.149 L 212.057, 519.681 L 194.681, 543.794 L 181.56, 539.184 L 175.709, 535.284 L 172.872, 538.475 L 139.716, 516.667 z "/>
<path style="fill:rgb(0, 255, 0);fill-opacity:0;fill-rule:evenodd;stroke:rgb(0, 163, 255);stroke-width:1;" d="M 258.156, 578.369 L 294.504, 529.078 L 319.504, 539.894 L 315.248, 545.745 L 333.333, 553.369 L 382.447, 574.645 L 378.191, 580.496 L 370.745, 590.78 L 368.794, 593.44 L 341.312, 582.27 L 343.262, 579.61 L 336.879, 577.128 L 317.199, 569.149 L 311.17, 577.128 L 302.128, 573.404 L 304.61, 570.035 L 301.241, 568.794 L 278.014, 558.865 L 259.574, 578.723 L 258.156, 578.369 z "/>
<path style="fill:rgb(0, 0, 255);fill-opacity:0;fill-rule:evenodd;stroke:rgb(0, 163, 255);stroke-width:1;" d="M 948.227, 628.014 L 962.234, 608.511 L 966.312, 602.66 L 970.922, 596.631 L 978.191, 585.993 L 1016.67, 602.128 L 1010.28, 610.993 L 1022.16, 615.603 L 997.518, 649.291 L 948.227, 628.014 z "/>
<path style="fill:rgb(255, 255, 0);fill-opacity:0;fill-rule:evenodd;stroke:rgb(0, 163, 255);stroke-width:1;" d="M 382.092, 676.064 L 412.057, 635.461 L 460.816, 655.142 L 451.064, 667.73 L 447.695, 666.489 L 441.312, 675 L 444.504, 676.596 L 429.433, 697.163 L 398.404, 683.688 L 399.291, 682.27 L 382.092, 676.064 z "/>
<path style="fill:rgb(255, 0, 0);fill-opacity:0;fill-rule:evenodd;stroke:rgb(0, 163, 255);stroke-width:1;" d="M 245.745, 608.688 L 252.837, 598.227 L 249.291, 596.809 L 251.95, 590.426 L 254.787, 583.865 L 259.574, 578.723 L 278.014, 558.865 L 301.241, 568.794 L 304.61, 570.035 L 302.128, 573.404 L 311.17, 577.128 L 299.823, 592.908 L 304.255, 594.681 L 295.035, 607.27 L 284.22, 621.809 L 277.482, 618.794 L 275.532, 621.454 L 261.702, 615.603 L 245.745, 608.688 z "/>
<path style="fill:rgb(0, 255, 0);fill-opacity:0;fill-rule:evenodd;stroke:rgb(0, 163, 255);stroke-width:1;" d="M 176.418, 104.433 L 206.383, 62.9433 L 252.482, 82.4468 L 242.553, 96.2766 L 239.007, 94.8582 L 219.149, 122.34 L 176.418, 104.433 z "/>
<path style="fill:rgb(0, 0, 255);fill-opacity:0;fill-rule:evenodd;stroke:rgb(0, 163, 255);stroke-width:1;" d="M 235.284, 702.837 L 241.135, 694.681 L 240.248, 694.504 L 245.567, 687.234 L 258.333, 669.149 L 264.539, 660.638 L 282.624, 668.085 L 307.624, 678.546 L 277.482, 720.39 L 235.284, 702.837 z "/>
<path style="fill:rgb(255, 255, 0);fill-opacity:0;fill-rule:evenodd;stroke:rgb(0, 163, 255);stroke-width:1;" d="M 897.163, 296.277 L 913.83, 273.05 L 927.66, 278.901 L 931.383, 273.582 L 932.624, 271.986 L 960.993, 283.865 L 967.908, 274.291 L 967.376, 273.582 L 968.262, 273.936 L 982.092, 279.787 L 976.418, 287.589 L 970.39, 295.922 L 953.191, 319.681 L 897.163, 296.277 z "/>
<path style="fill:rgb(255, 0, 0);fill-opacity:0;fill-rule:evenodd;stroke:rgb(0, 163, 255);stroke-width:1;" d="M 260.638, 768.44 L 276.418, 746.631 L 290.603, 726.95 L 332.27, 744.504 L 328.191, 750 L 320.39, 760.638 L 315.957, 766.667 L 313.121, 770.567 L 308.156, 777.305 L 302.128, 785.638 L 260.638, 768.44 z "/>
<path style="fill:rgb(0, 255, 0);fill-opacity:0;fill-rule:evenodd;stroke:rgb(0, 163, 255);stroke-width:1;" d="M 285.461, 205.674 L 300.709, 185.461 L 292.199, 181.028 L 299.113, 173.936 L 306.56, 177.482 L 316.312, 164.539 L 325.887, 168.972 L 332.979, 171.986 L 327.66, 178.901 L 331.915, 180.496 L 333.865, 181.383 L 332.979, 182.624 L 334.574, 184.929 L 339.362, 186.879 L 337.589, 189.362 L 339.716, 194.858 L 346.809, 197.872 L 354.61, 196.099 L 355.851, 194.326 L 360.993, 196.454 L 362.589, 194.326 L 364.007, 194.858 L 364.539, 194.149 L 368.44, 195.745 L 370.745, 196.631 L 375.532, 190.071 L 382.801, 193.085 L 370.035, 210.284 L 349.823, 201.418 L 346.277, 206.206 L 342.376, 204.61 L 341.489, 205.496 L 336.525, 203.369 L 328.723, 213.475 L 326.95, 212.589 L 321.277, 220.213 L 318.085, 219.858 L 285.461, 205.674 z "/>
<path style="fill:rgb(0, 0, 255);fill-opacity:0;fill-rule:evenodd;stroke:rgb(0, 163, 255);stroke-width:1;" d="M 331.915, 180.496 L 347.518, 159.22 L 360.638, 141.135 L 369.149, 144.681 L 376.064, 135.284 L 395.213, 143.262 L 388.298, 152.837 L 397.163, 156.56 L 383.865, 174.645 L 368.44, 195.745 L 364.539, 194.149 L 333.865, 181.383 L 331.915, 180.496 z "/>
<path style="fill:rgb(255, 255, 0);fill-opacity:0;fill-rule:evenodd;stroke:rgb(0, 163, 255);stroke-width:1;" d="M 139.716, 516.667 L 142.376, 512.766 L 145.39, 514.539 L 151.241, 509.22 L 169.326, 493.085 L 212.057, 511.348 L 209.043, 518.617 L 210.461, 519.149 L 212.057, 519.681 L 194.681, 543.794 L 181.56, 539.184 L 175.709, 535.284 L 172.872, 538.475 L 139.716, 516.667 z "/>
<path style="fill:rgb(255, 0, 0);fill-opacity:0;fill-rule:evenodd;stroke:rgb(0, 163, 255);stroke-width:1;" d="M 295.035, 607.27 L 304.255, 594.681 L 299.823, 592.908 L 311.17, 577.128 L 317.199, 569.149 L 336.879, 577.128 L 331.56, 584.574 L 365.248, 598.227 L 368.794, 593.44 L 381.383, 598.582 L 369.149, 615.248 L 342.908, 604.078 L 337.589, 612.057 L 333.865, 617.199 L 316.667, 609.752 L 312.766, 614.716 L 295.035, 607.27 z "/>
<path style="fill:rgb(0, 255, 0);fill-opacity:0;fill-rule:evenodd;stroke:rgb(0, 163, 255);stroke-width:1;" d="M 442.553, 121.631 L 442.73, 120.922 L 447.34, 114.539 L 447.518, 114.007 L 447.695, 110.638 L 448.05, 109.752 L 452.128, 104.255 L 459.397, 94.3262 L 459.929, 93.7943 L 460.638, 93.617 L 461.525, 93.617 L 468.794, 96.8085 L 510.638, 114.362 L 511.348, 114.716 L 511.525, 115.426 L 511.525, 115.957 L 492.553, 141.667 L 492.021, 142.199 L 491.312, 142.376 L 490.426, 142.376 L 443.617, 122.518 L 442.908, 122.163 L 442.553, 121.631 z "/>
<path style="fill:rgb(0, 0, 255);fill-opacity:0;fill-rule:evenodd;stroke:rgb(0, 163, 255);stroke-width:1;" d="M 546.809, 261.348 L 574.291, 223.404 L 584.22, 227.66 L 585.993, 225.355 L 598.582, 230.496 L 600, 228.546 L 608.865, 232.447 L 578.546, 274.291 L 576.418, 273.404 L 573.759, 276.95 L 559.929, 271.099 L 562.234, 267.908 L 554.255, 264.362 L 546.809, 261.348 z "/>
<path style="fill:rgb(255, 255, 0);fill-opacity:0;fill-rule:evenodd;stroke:rgb(0, 163, 255);stroke-width:1;" d="M 995.39, 737.057 L 1025.89, 695.213 L 1053.55, 706.915 L 1050, 711.879 L 1028.37, 741.667 L 1040.96, 746.986 L 1035.82, 754.078 L 1010.28, 743.262 L 995.39, 737.057 z "/>
<path style="fill:rgb(255, 0, 0);fill-opacity:0;fill-rule:evenodd;stroke:rgb(0, 163, 255);stroke-width:1;" d="M 831.56, 261.879 L 839.716, 251.241 L 843.617, 250.355 L 847.872, 251.95 L 851.773, 251.064 L 866.489, 257.27 L 870.39, 256.383 L 885.106, 262.411 L 886.17, 265.426 L 901.064, 271.454 L 902.128, 274.468 L 906.206, 276.241 L 907.27, 279.078 L 899.113, 289.894 L 895.213, 290.78 L 891.135, 289.184 L 887.234, 290.071 L 837.943, 269.504 L 836.879, 266.667 L 832.801, 264.894 L 831.56, 261.879 z "/>
<path style="fill:rgb(0, 255, 0);fill-opacity:0;fill-rule:evenodd;stroke:rgb(0, 163, 255);stroke-width:1;" d="M 831.56, 261.879 L 839.716, 251.241 L 843.617, 250.355 L 847.872, 251.95 L 851.773, 251.064 L 866.489, 257.27 L 886.17, 265.426 L 901.064, 271.454 L 902.128, 274.468 L 906.206, 276.241 L 907.27, 279.078 L 899.113, 289.894 L 895.213, 290.78 L 891.135, 289.184 L 887.234, 290.071 L 837.943, 269.504 L 836.879, 266.667 L 832.801, 264.894 L 831.56, 261.879 z "/>
<path style="fill:rgb(0, 0, 255);fill-opacity:0;fill-rule:evenodd;stroke:rgb(0, 163, 255);stroke-width:1;" d="M 967.908, 725.532 L 983.865, 703.723 L 998.759, 683.156 L 1026.24, 694.858 L 1025.89, 695.213 L 995.39, 737.057 L 967.908, 725.532 z "/>
<path style="fill:rgb(255, 255, 0);fill-opacity:0;fill-rule:evenodd;stroke:rgb(0, 163, 255);stroke-width:1;" d="M 979.787, 784.929 L 1010.28, 743.262 L 1035.82, 754.078 L 1037.77, 754.965 L 1007.45, 796.631 L 979.787, 784.929 z "/>
<path style="fill:rgb(255, 0, 0);fill-opacity:0;fill-rule:evenodd;stroke:rgb(0, 163, 255);stroke-width:1;" d="M 886.525, 261.348 L 917.376, 218.794 L 944.504, 230.142 L 917.376, 267.553 L 913.652, 272.695 L 886.525, 261.348 z "/>
<path style="fill:rgb(0, 255, 0);fill-opacity:0;fill-rule:evenodd;stroke:rgb(0, 163, 255);stroke-width:1;" d="M 937.589, 767.199 L 967.908, 725.532 L 995.39, 737.057 L 965.071, 778.723 L 937.589, 767.199 z "/>
<path style="fill:rgb(0, 0, 255);fill-opacity:0;fill-rule:evenodd;stroke:rgb(0, 163, 255);stroke-width:1;" d="M 499.645, 92.7305 L 507.624, 81.7376 L 504.255, 80.3191 L 504.255, 80.3191 L 515.603, 64.7163 L 518.794, 66.1348 L 518.972, 66.1348 L 526.95, 55.1418 L 552.305, 65.7801 L 521.631, 107.801 L 506.56, 101.418 L 509.752, 96.9858 L 499.645, 92.7305 z "/>
<path style="fill:rgb(255, 255, 0);fill-opacity:0;fill-rule:evenodd;stroke:rgb(0, 163, 255);stroke-width:1;" d="M 679.965, 171.986 L 690.603, 157.27 L 761.17, 186.525 L 750.532, 201.241 L 679.965, 171.986 z "/>
<path style="fill:rgb(255, 0, 0);fill-opacity:0;fill-rule:evenodd;stroke:rgb(0, 163, 255);stroke-width:1;" d="M 836.879, 266.667 L 847.872, 251.95 L 851.773, 251.064 L 866.489, 257.27 L 870.39, 256.383 L 885.106, 262.411 L 886.17, 265.426 L 901.064, 271.454 L 902.128, 274.468 L 891.135, 289.184 L 887.234, 290.071 L 837.943, 269.504 L 836.879, 266.667 z "/>
<path style="fill:rgb(0, 255, 0);fill-opacity:0;fill-rule:evenodd;stroke:rgb(0, 163, 255);stroke-width:1;" d="M 384.929, 617.199 L 412.766, 579.255 L 441.135, 591.312 L 432.801, 602.482 L 429.965, 601.241 L 427.305, 604.965 L 430.142, 606.206 L 425.355, 612.766 L 422.518, 611.525 L 410.284, 628.014 L 384.929, 617.199 z "/>
<path style="fill:rgb(0, 0, 255);fill-opacity:0;fill-rule:evenodd;stroke:rgb(0, 163, 255);stroke-width:1;" d="M 378.546, 757.447 L 406.383, 720.035 L 433.156, 731.738 L 405.319, 768.972 L 378.546, 757.447 z "/>
<path style="fill:rgb(255, 255, 0);fill-opacity:0;fill-rule:evenodd;stroke:rgb(0, 163, 255);stroke-width:1;" d="M 771.099, 498.582 L 796.277, 463.83 L 793.972, 462.943 L 796.986, 458.688 L 826.241, 470.922 L 826.596, 472.518 L 824.468, 475.532 L 822.695, 476.064 L 821.099, 475.355 L 796.454, 509.22 L 794.326, 508.333 L 782.092, 503.191 L 774.468, 500 L 771.099, 498.582 z "/>
<path style="fill:rgb(255, 0, 0);fill-opacity:0;fill-rule:evenodd;stroke:rgb(0, 163, 255);stroke-width:1;" d="M 675.355, 298.404 L 687.589, 281.56 L 690.426, 277.66 L 709.043, 285.461 L 719.149, 289.716 L 738.121, 297.518 L 722.872, 318.262 L 675.355, 298.404 z "/>
<path style="fill:rgb(0, 255, 0);fill-opacity:0;fill-rule:evenodd;stroke:rgb(0, 163, 255);stroke-width:1;" d="M 932.624, 271.986 L 958.688, 236.17 L 987.057, 248.05 L 979.433, 258.333 L 977.305, 258.156 L 966.844, 272.872 L 967.376, 273.582 L 967.908, 274.291 L 960.993, 283.865 L 932.624, 271.986 z "/>
<path style="fill:rgb(0, 0, 255);fill-opacity:0;fill-rule:evenodd;stroke:rgb(0, 163, 255);stroke-width:1;" d="M 523.227, 306.915 L 530.319, 297.163 L 524.468, 294.681 L 531.738, 284.574 L 533.688, 285.284 L 532.979, 278.546 L 541.489, 282.092 L 554.255, 264.362 L 562.234, 267.908 L 559.929, 271.099 L 556.738, 275.532 L 571.277, 281.56 L 545.745, 316.489 L 523.227, 306.915 z "/>
<path style="fill:rgb(255, 255, 0);fill-opacity:0;fill-rule:evenodd;stroke:rgb(0, 163, 255);stroke-width:1;" d="M 429.433, 697.163 L 444.504, 676.596 L 441.312, 675 L 447.695, 666.489 L 451.064, 667.73 L 460.816, 655.142 L 481.738, 663.652 L 450.177, 706.028 L 429.433, 697.163 z "/>
<path style="fill:rgb(255, 0, 0);fill-opacity:0;fill-rule:evenodd;stroke:rgb(0, 163, 255);stroke-width:1;" d="M 249.291, 596.809 L 251.95, 590.426 L 254.787, 583.865 L 259.574, 578.723 L 278.014, 558.865 L 301.241, 568.794 L 284.397, 591.489 L 276.241, 587.943 L 274.823, 589.894 L 270.922, 588.121 L 264.894, 596.277 L 277.128, 601.418 L 273.05, 606.915 L 252.837, 598.227 L 249.291, 596.809 z "/>
<path style="fill:rgb(0, 255, 0);fill-opacity:0;fill-rule:evenodd;stroke:rgb(0, 163, 255);stroke-width:1;" d="M 325.887, 168.972 L 336.525, 154.61 L 343.262, 157.447 L 347.518, 159.22 L 383.865, 174.645 L 387.766, 176.241 L 393.44, 178.723 L 391.489, 181.383 L 382.801, 193.085 L 375.532, 190.071 L 332.979, 171.986 L 325.887, 168.972 z "/>
<path style="fill:rgb(0, 0, 255);fill-opacity:0;fill-rule:evenodd;stroke:rgb(0, 163, 255);stroke-width:1;" d="M 140.78, 569.149 L 150.709, 555.674 L 157.624, 558.688 L 163.475, 550.887 L 172.872, 538.475 L 175.709, 535.284 L 181.56, 539.184 L 194.681, 543.794 L 168.085, 580.319 L 140.78, 569.149 z "/>
<path style="fill:rgb(255, 255, 0);fill-opacity:0;fill-rule:evenodd;stroke:rgb(0, 163, 255);stroke-width:1;" d="M 812.411, 714.184 L 827.66, 693.44 L 866.135, 709.752 L 850.887, 730.496 L 812.411, 714.184 z "/>
<path style="fill:rgb(255, 0, 0);fill-opacity:0;fill-rule:evenodd;stroke:rgb(0, 163, 255);stroke-width:1;" d="M 1015.6, 656.738 L 1040.07, 623.227 L 1063.65, 632.979 L 1039.01, 666.667 L 1027.48, 661.702 L 1015.6, 656.738 z "/>
<path style="fill:rgb(0, 255, 0);fill-opacity:0;fill-rule:evenodd;stroke:rgb(0, 163, 255);stroke-width:1;" d="M 937.057, 541.312 L 952.128, 520.567 L 987.234, 535.284 L 972.34, 556.028 L 968.44, 554.433 L 961.702, 551.596 L 937.057, 541.312 z "/>
<path style="fill:rgb(0, 0, 255);fill-opacity:0;fill-rule:evenodd;stroke:rgb(0, 163, 255);stroke-width:1;" d="M 147.872, 719.681 L 175.709, 680.496 L 192.199, 687.234 L 164.362, 726.418 L 147.872, 719.681 z "/>
<path style="fill:rgb(255, 255, 0);fill-opacity:0;fill-rule:evenodd;stroke:rgb(0, 163, 255);stroke-width:1;" d="M 275.532, 621.454 L 277.482, 618.794 L 284.22, 621.809 L 295.035, 607.27 L 312.766, 614.716 L 330.142, 622.163 L 329.433, 623.05 L 320.035, 635.816 L 317.376, 639.362 L 286.879, 626.241 L 275.532, 621.454 z "/>
<path style="fill:rgb(255, 0, 0);fill-opacity:0;fill-rule:evenodd;stroke:rgb(0, 163, 255);stroke-width:1;" d="M 965.071, 778.723 L 995.39, 737.057 L 1010.28, 743.262 L 979.787, 784.929 L 965.071, 778.723 z "/>
<path style="fill:rgb(0, 255, 0);fill-opacity:0;fill-rule:evenodd;stroke:rgb(0, 163, 255);stroke-width:1;" d="M 778.191, 761.17 L 786.17, 750 L 841.489, 773.05 L 833.333, 784.22 L 778.191, 761.17 z "/>
<path style="fill:rgb(0, 0, 255);fill-opacity:0;fill-rule:evenodd;stroke:rgb(0, 163, 255);stroke-width:1;" d="M 997.518, 649.291 L 1022.16, 615.603 L 1040.07, 623.227 L 1015.6, 656.738 L 1006.74, 653.014 L 997.518, 649.291 z "/>
<path style="fill:rgb(255, 255, 0);fill-opacity:0;fill-rule:evenodd;stroke:rgb(0, 163, 255);stroke-width:1;" d="M 156.738, 382.979 L 186.702, 341.667 L 201.241, 347.695 L 171.277, 389.184 L 156.738, 382.979 z "/>
<path style="fill:rgb(255, 0, 0);fill-opacity:0;fill-rule:evenodd;stroke:rgb(0, 163, 255);stroke-width:1;" d="M 368.085, 670.213 L 385.284, 646.809 L 398.936, 628.191 L 412.943, 634.22 L 412.057, 635.461 L 382.092, 676.064 L 368.085, 670.213 z "/>
<path style="fill:rgb(0, 255, 0);fill-opacity:0;fill-rule:evenodd;stroke:rgb(0, 163, 255);stroke-width:1;" d="M 195.39, 704.61 L 203.014, 693.972 L 198.404, 692.199 L 211.879, 673.582 L 209.752, 672.695 L 214.184, 666.667 L 222.872, 670.213 L 233.511, 674.823 L 234.043, 675 L 224.113, 688.83 L 214.716, 701.596 L 208.688, 710.106 L 195.39, 704.61 z "/>
<path style="fill:rgb(0, 0, 255);fill-opacity:0;fill-rule:evenodd;stroke:rgb(0, 163, 255);stroke-width:1;" d="M 407.27, 105.851 L 407.27, 105.319 L 419.681, 89.0071 L 420.213, 88.4752 L 420.922, 88.1206 L 421.809, 88.2979 L 432.092, 92.7305 L 432.801, 93.0851 L 433.156, 93.617 L 432.979, 94.3262 L 431.915, 95.7447 L 452.128, 104.255 L 448.05, 109.752 L 447.695, 110.638 L 447.518, 114.007 L 447.34, 114.539 L 442.73, 120.922 L 423.404, 112.589 L 421.454, 112.411 L 408.156, 106.915 L 407.624, 106.56 L 407.27, 105.851 z "/>
<path style="fill:rgb(255, 255, 0);fill-opacity:0;fill-rule:evenodd;stroke:rgb(0, 163, 255);stroke-width:1;" d="M 231.56, 756.206 L 237.766, 747.518 L 251.596, 728.546 L 260.106, 716.667 L 274.645, 722.695 L 261.879, 740.426 L 246.099, 762.234 L 231.56, 756.206 z "/>
<path style="fill:rgb(255, 0, 0);fill-opacity:0;fill-rule:evenodd;stroke:rgb(0, 163, 255);stroke-width:1;" d="M 426.596, 639.362 L 440.426, 620.745 L 457.092, 598.227 L 470.922, 604.078 L 452.128, 629.433 L 440.248, 645.213 L 426.596, 639.362 z "/>
<path style="fill:rgb(0, 255, 0);fill-opacity:0;fill-rule:evenodd;stroke:rgb(0, 163, 255);stroke-width:1;" d="M 737.411, 540.248 L 768.44, 497.518 L 771.099, 498.582 L 774.468, 500 L 773.404, 501.773 L 780.851, 504.787 L 769.326, 520.745 L 751.064, 545.922 L 737.411, 540.248 z "/>
<path style="fill:rgb(0, 0, 255);fill-opacity:0;fill-rule:evenodd;stroke:rgb(0, 163, 255);stroke-width:1;" d="M 803.191, 525.887 L 804.255, 524.468 L 810.638, 515.603 L 819.681, 519.504 L 830.319, 523.936 L 838.121, 527.128 L 866.135, 538.83 L 858.688, 549.113 L 815.426, 530.851 L 803.191, 525.887 z "/>
<path style="fill:rgb(255, 255, 0);fill-opacity:0;fill-rule:evenodd;stroke:rgb(0, 163, 255);stroke-width:1;" d="M 369.149, 615.248 L 381.383, 598.582 L 394.858, 580.142 L 399.645, 573.759 L 412.766, 579.255 L 384.929, 617.199 L 382.27, 620.745 L 369.149, 615.248 z "/>
<path style="fill:rgb(255, 0, 0);fill-opacity:0;fill-rule:evenodd;stroke:rgb(0, 163, 255);stroke-width:1;" d="M 168.44, 442.908 L 182.447, 423.582 L 210.284, 435.106 L 196.277, 454.61 L 168.44, 442.908 z "/>
<path style="fill:rgb(0, 255, 0);fill-opacity:0;fill-rule:evenodd;stroke:rgb(0, 163, 255);stroke-width:1;" d="M 917.376, 267.553 L 944.504, 230.142 L 958.688, 236.17 L 932.624, 271.986 L 931.383, 273.582 L 917.376, 267.553 z "/>
<path style="fill:rgb(0, 0, 255);fill-opacity:0;fill-rule:evenodd;stroke:rgb(0, 163, 255);stroke-width:1;" d="M 1037.23, 155.674 L 1046.99, 142.376 L 1049.65, 138.652 L 1087.77, 154.433 L 1078.55, 167.021 L 1050.71, 155.496 L 1047.52, 159.752 L 1037.23, 155.674 z "/>
<path style="fill:rgb(255, 255, 0);fill-opacity:0;fill-rule:evenodd;stroke:rgb(0, 163, 255);stroke-width:1;" d="M 786.17, 750 L 793.085, 740.426 L 848.404, 763.652 L 841.489, 773.05 L 786.17, 750 z "/>
<path style="fill:rgb(255, 0, 0);fill-opacity:0;fill-rule:evenodd;stroke:rgb(0, 163, 255);stroke-width:1;" d="M 834.043, 682.092 L 841.844, 671.631 L 849.645, 675 L 848.759, 676.418 L 858.333, 680.496 L 860.106, 679.61 L 865.426, 681.738 L 864.362, 683.333 L 876.418, 688.475 L 879.255, 687.589 L 890.426, 692.376 L 898.404, 695.745 L 890.78, 706.206 L 884.752, 703.546 L 871.986, 698.227 L 871.809, 698.05 L 871.099, 696.099 L 865.071, 693.617 L 865.957, 692.376 L 859.929, 689.716 L 858.156, 692.199 L 853.014, 690.071 L 852.66, 688.298 L 842.908, 684.043 L 842.021, 685.461 L 834.043, 682.092 z "/>
<path style="fill:rgb(0, 255, 0);fill-opacity:0;fill-rule:evenodd;stroke:rgb(0, 163, 255);stroke-width:1;" d="M 826.241, 692.73 L 834.043, 682.092 L 842.021, 685.461 L 846.809, 687.411 L 847.518, 689.362 L 859.752, 694.504 L 871.099, 699.291 L 871.986, 698.227 L 884.752, 703.546 L 876.95, 714.184 L 866.135, 709.752 L 827.66, 693.44 L 826.241, 692.73 z "/>
<path style="fill:rgb(0, 0, 255);fill-opacity:0;fill-rule:evenodd;stroke:rgb(0, 163, 255);stroke-width:1;" d="M 224.113, 688.83 L 234.043, 675 L 233.511, 674.823 L 238.652, 667.73 L 239.716, 668.085 L 249.823, 653.901 L 264.894, 660.284 L 264.539, 660.638 L 258.333, 669.149 L 256.206, 669.858 L 243.972, 686.525 L 245.567, 687.234 L 240.248, 694.504 L 239.716, 695.39 L 224.113, 688.83 z "/>
<path style="fill:rgb(255, 255, 0);fill-opacity:0;fill-rule:evenodd;stroke:rgb(0, 163, 255);stroke-width:1;" d="M 914.184, 572.872 L 921.986, 562.234 L 946.277, 572.518 L 944.149, 575.532 L 951.064, 578.546 L 953.369, 575.355 L 971.631, 582.979 L 963.83, 593.617 L 949.291, 587.589 L 914.184, 572.872 z "/>
<path style="fill:rgb(255, 0, 0);fill-opacity:0;fill-rule:evenodd;stroke:rgb(0, 163, 255);stroke-width:1;" d="M 929.255, 552.128 L 937.057, 541.312 L 961.702, 551.596 L 959.397, 554.787 L 966.135, 557.624 L 968.44, 554.433 L 972.34, 556.028 L 986.702, 562.057 L 978.901, 572.872 L 960.638, 565.248 L 962.411, 562.766 L 955.496, 559.752 L 953.546, 562.411 L 929.255, 552.128 z "/>
<path style="fill:rgb(0, 255, 0);fill-opacity:0;fill-rule:evenodd;stroke:rgb(0, 163, 255);stroke-width:1;" d="M 705.319, 608.511 L 711.879, 599.645 L 714.716, 599.291 L 727.66, 581.383 L 726.241, 579.787 L 732.624, 570.922 L 746.986, 576.95 L 740.603, 585.816 L 737.943, 586.348 L 725.532, 603.546 L 726.064, 605.851 L 722.518, 610.638 L 719.858, 614.539 L 705.319, 608.511 z "/>
<path style="fill:rgb(0, 0, 255);fill-opacity:0;fill-rule:evenodd;stroke:rgb(0, 163, 255);stroke-width:1;" d="M 311.702, 646.986 L 317.376, 639.362 L 320.035, 635.816 L 320.922, 636.17 L 330.496, 623.404 L 329.433, 623.05 L 330.142, 622.163 L 333.865, 617.199 L 337.589, 612.057 L 351.064, 617.73 L 343.085, 628.546 L 342.553, 629.433 L 339.716, 633.333 L 340.071, 633.511 L 337.234, 637.411 L 336.17, 636.879 L 332.979, 641.489 L 334.043, 641.844 L 326.064, 652.66 L 311.702, 646.986 z "/>
<path style="fill:rgb(255, 255, 0);fill-opacity:0;fill-rule:evenodd;stroke:rgb(0, 163, 255);stroke-width:1;" d="M 921.986, 562.234 L 929.255, 552.128 L 953.546, 562.411 L 951.596, 565.248 L 958.511, 568.085 L 960.638, 565.248 L 978.901, 572.872 L 971.631, 582.979 L 953.369, 575.355 L 954.965, 573.227 L 947.872, 570.213 L 946.277, 572.518 L 921.986, 562.234 z "/>
<path style="fill:rgb(255, 0, 0);fill-opacity:0;fill-rule:evenodd;stroke:rgb(0, 163, 255);stroke-width:1;" d="M 326.064, 652.66 L 334.043, 641.844 L 334.752, 642.73 L 336.525, 641.844 L 338.83, 638.83 L 337.766, 638.298 L 341.135, 633.865 L 342.199, 634.22 L 344.681, 630.319 L 343.085, 628.546 L 351.064, 617.73 L 365.071, 623.759 L 365.957, 624.113 L 358.511, 634.22 L 355.851, 634.752 L 347.163, 646.454 L 348.05, 648.05 L 340.248, 658.688 L 326.064, 652.66 z "/>
<path style="fill:rgb(0, 255, 0);fill-opacity:0;fill-rule:evenodd;stroke:rgb(0, 163, 255);stroke-width:1;" d="M 807.624, 541.667 L 815.426, 530.851 L 858.688, 549.113 L 851.064, 559.752 L 817.908, 545.922 L 807.624, 541.667 z "/>
<path style="fill:rgb(0, 0, 255);fill-opacity:0;fill-rule:evenodd;stroke:rgb(0, 163, 255);stroke-width:1;" d="M 203.723, 745.035 L 209.22, 737.234 L 212.943, 736.17 L 218.972, 727.837 L 221.454, 727.128 L 224.113, 723.404 L 223.404, 721.099 L 226.95, 716.135 L 226.418, 713.652 L 230.319, 708.156 L 231.206, 706.915 L 245.745, 712.943 L 242.553, 717.376 L 240.248, 720.39 L 239.716, 720.213 L 237.589, 721.809 L 234.397, 726.064 L 229.965, 728.191 L 228.723, 733.156 L 228.901, 733.156 L 223.227, 741.135 L 223.582, 743.794 L 218.262, 751.064 L 203.723, 745.035 z "/>
<path style="fill:rgb(255, 255, 0);fill-opacity:0;fill-rule:evenodd;stroke:rgb(0, 163, 255);stroke-width:1;" d="M 819.681, 519.504 L 826.418, 509.929 L 848.05, 480.319 L 850.177, 477.305 L 860.993, 481.738 L 854.965, 489.894 L 849.113, 498.05 L 842.553, 506.915 L 830.319, 523.936 L 819.681, 519.504 z "/>
<path style="fill:rgb(255, 0, 0);fill-opacity:0;fill-rule:evenodd;stroke:rgb(0, 163, 255);stroke-width:1;" d="M 340.248, 658.688 L 348.05, 648.05 L 350.177, 648.227 L 353.546, 643.794 L 352.482, 643.44 L 354.965, 639.894 L 356.028, 640.426 L 359.22, 636.17 L 358.511, 634.22 L 365.957, 624.113 L 379.787, 630.142 L 373.05, 639.362 L 370.213, 640.071 L 370.035, 640.248 L 361.17, 652.305 L 362.057, 654.787 L 354.61, 664.894 L 340.248, 658.688 z "/>
<path style="fill:rgb(0, 255, 0);fill-opacity:0;fill-rule:evenodd;stroke:rgb(0, 163, 255);stroke-width:1;" d="M 398.582, 184.574 L 403.014, 178.546 L 398.936, 176.773 L 417.199, 151.596 L 432.27, 157.979 L 426.418, 165.957 L 414.007, 182.979 L 415.248, 183.511 L 414.716, 184.22 L 413.475, 185.993 L 411.348, 185.284 L 408.688, 188.83 L 398.582, 184.574 z "/>
<path style="fill:rgb(0, 0, 255);fill-opacity:0;fill-rule:evenodd;stroke:rgb(0, 163, 255);stroke-width:1;" d="M 302.128, 785.638 L 308.156, 777.305 L 311.17, 776.596 L 313.83, 773.05 L 313.121, 770.567 L 315.957, 766.667 L 319.326, 768.085 L 323.759, 762.057 L 320.39, 760.638 L 328.191, 750 L 331.206, 751.241 L 331.915, 750.355 L 334.22, 751.241 L 333.333, 752.482 L 340.957, 755.674 L 334.043, 765.071 L 333.156, 764.716 L 328.901, 770.567 L 327.837, 770.213 L 326.95, 771.277 L 330.319, 772.695 L 326.95, 777.482 L 324.291, 777.305 L 321.631, 780.851 L 322.695, 783.511 L 316.667, 791.844 L 302.128, 785.638 z "/>
<path style="fill:rgb(255, 255, 0);fill-opacity:0;fill-rule:evenodd;stroke:rgb(0, 163, 255);stroke-width:1;" d="M 841.844, 671.631 L 849.468, 661.17 L 857.447, 664.539 L 856.383, 665.957 L 866.312, 670.213 L 868.085, 668.972 L 873.404, 671.277 L 871.631, 673.582 L 877.837, 676.064 L 878.546, 675.177 L 884.22, 677.66 L 887.057, 677.128 L 894.681, 680.319 L 898.227, 681.738 L 890.426, 692.376 L 879.255, 687.589 L 878.369, 685.461 L 872.695, 683.156 L 873.759, 681.56 L 867.553, 678.901 L 865.426, 681.738 L 860.106, 679.61 L 860.461, 678.014 L 850.532, 673.936 L 849.645, 675 L 841.844, 671.631 z "/>
<path style="fill:rgb(255, 0, 0);fill-opacity:0;fill-rule:evenodd;stroke:rgb(0, 163, 255);stroke-width:1;" d="M 188.475, 738.652 L 196.277, 727.837 L 204.255, 731.206 L 215.603, 715.603 L 207.27, 712.057 L 208.688, 710.106 L 214.716, 701.596 L 230.319, 708.156 L 226.418, 713.652 L 209.22, 737.234 L 203.723, 745.035 L 188.475, 738.652 z "/>
<path style="fill:rgb(0, 255, 0);fill-opacity:0;fill-rule:evenodd;stroke:rgb(0, 163, 255);stroke-width:1;" d="M 972.34, 556.028 L 987.234, 535.284 L 1008.87, 544.149 L 994.681, 563.652 L 987.766, 560.638 L 986.702, 562.057 L 972.34, 556.028 z "/>
<path style="fill:rgb(0, 0, 255);fill-opacity:0;fill-rule:evenodd;stroke:rgb(0, 163, 255);stroke-width:1;" d="M 319.504, 160.638 L 347.163, 122.518 L 360.638, 128.191 L 345.567, 148.759 L 341.844, 153.901 L 334.574, 150.887 L 325.709, 163.121 L 319.504, 160.638 z "/>
<path style="fill:rgb(255, 255, 0);fill-opacity:0;fill-rule:evenodd;stroke:rgb(0, 163, 255);stroke-width:1;" d="M 712.943, 673.227 L 720.213, 663.121 L 728.014, 666.489 L 761.879, 680.496 L 754.787, 690.426 L 712.943, 673.227 z "/>
<path style="fill:rgb(255, 0, 0);fill-opacity:0;fill-rule:evenodd;stroke:rgb(0, 163, 255);stroke-width:1;" d="M 728.014, 666.489 L 736.17, 655.142 L 770.035, 669.149 L 761.879, 680.496 L 728.014, 666.489 z "/>
<path style="fill:rgb(0, 255, 0);fill-opacity:0;fill-rule:evenodd;stroke:rgb(0, 163, 255);stroke-width:1;" d="M 882.801, 675.177 L 905.851, 643.617 L 917.908, 648.582 L 894.681, 680.319 L 887.057, 677.128 L 882.801, 675.177 z "/>
<path style="fill:rgb(0, 0, 255);fill-opacity:0;fill-rule:evenodd;stroke:rgb(0, 163, 255);stroke-width:1;" d="M 584.22, 273.05 L 612.766, 233.511 L 622.34, 237.589 L 593.617, 276.95 L 584.22, 273.05 z "/>
<path style="fill:rgb(255, 255, 0);fill-opacity:0;fill-rule:evenodd;stroke:rgb(0, 163, 255);stroke-width:1;" d="M 765.248, 551.773 L 783.333, 526.596 L 798.227, 532.801 L 795.567, 536.525 L 779.965, 557.979 L 765.248, 551.773 z "/>
<path style="fill:rgb(255, 0, 0);fill-opacity:0;fill-rule:evenodd;stroke:rgb(0, 163, 255);stroke-width:1;" d="M 859.752, 447.34 L 874.823, 426.596 L 876.773, 424.113 L 892.199, 430.496 L 875.355, 453.901 L 859.752, 447.34 z "/>
<path style="fill:rgb(0, 255, 0);fill-opacity:0;fill-rule:evenodd;stroke:rgb(0, 163, 255);stroke-width:1;" d="M 424.468, 613.83 L 425.355, 612.766 L 430.142, 606.206 L 432.801, 602.482 L 441.135, 591.312 L 457.092, 598.227 L 440.426, 620.745 L 424.468, 613.83 z "/>
<path style="fill:rgb(0, 0, 255);fill-opacity:0;fill-rule:evenodd;stroke:rgb(0, 163, 255);stroke-width:1;" d="M 894.681, 680.319 L 917.908, 648.582 L 929.255, 653.369 L 910.638, 678.901 L 906.028, 685.106 L 898.227, 681.738 L 894.681, 680.319 z "/>
<path style="fill:rgb(255, 255, 0);fill-opacity:0;fill-rule:evenodd;stroke:rgb(0, 163, 255);stroke-width:1;" d="M 751.064, 545.922 L 769.326, 520.745 L 775.887, 523.582 L 783.333, 526.596 L 765.248, 551.773 L 751.064, 545.922 z "/>
<path style="fill:rgb(255, 0, 0);fill-opacity:0;fill-rule:evenodd;stroke:rgb(0, 163, 255);stroke-width:1;" d="M 810.106, 556.56 L 817.908, 545.922 L 851.064, 559.752 L 843.262, 570.39 L 817.199, 559.574 L 810.106, 556.56 z "/>
<path style="fill:rgb(0, 255, 0);fill-opacity:0;fill-rule:evenodd;stroke:rgb(0, 163, 255);stroke-width:1;" d="M 452.128, 629.433 L 470.922, 604.078 L 484.574, 609.929 L 465.78, 635.284 L 452.128, 629.433 z "/>
<path style="fill:rgb(0, 0, 255);fill-opacity:0;fill-rule:evenodd;stroke:rgb(0, 163, 255);stroke-width:1;" d="M 779.965, 557.979 L 795.567, 536.525 L 807.624, 541.667 L 817.908, 545.922 L 810.106, 556.56 L 798.227, 551.596 L 790.426, 562.234 L 779.965, 557.979 z "/>
<path style="fill:rgb(255, 255, 0);fill-opacity:0;fill-rule:evenodd;stroke:rgb(0, 163, 255);stroke-width:1;" d="M 200.355, 647.34 L 208.688, 635.638 L 238.652, 648.227 L 238.121, 649.113 L 230.319, 659.752 L 200.355, 647.34 z "/>
<path style="fill:rgb(255, 0, 0);fill-opacity:0;fill-rule:evenodd;stroke:rgb(0, 163, 255);stroke-width:1;" d="M 354.61, 664.894 L 362.057, 654.787 L 361.17, 652.305 L 370.035, 640.248 L 385.284, 646.809 L 368.085, 670.213 L 367.73, 670.567 L 354.61, 664.894 z "/>
<path style="fill:rgb(0, 255, 0);fill-opacity:0;fill-rule:evenodd;stroke:rgb(0, 163, 255);stroke-width:1;" d="M 465.78, 635.284 L 484.574, 609.929 L 497.695, 615.603 L 478.901, 640.957 L 465.78, 635.284 z "/>
<path style="fill:rgb(0, 0, 255);fill-opacity:0;fill-rule:evenodd;stroke:rgb(0, 163, 255);stroke-width:1;" d="M 245.213, 763.475 L 246.099, 762.234 L 261.879, 740.426 L 276.418, 746.631 L 260.638, 768.44 L 259.929, 769.504 L 245.213, 763.475 z "/>
<path style="fill:rgb(255, 255, 0);fill-opacity:0;fill-rule:evenodd;stroke:rgb(0, 163, 255);stroke-width:1;" d="M 598.227, 135.638 L 609.929, 119.504 L 630.319, 128.014 L 623.759, 137.057 L 618.617, 144.149 L 608.688, 140.071 L 598.227, 135.638 z "/>
<path style="fill:rgb(255, 0, 0);fill-opacity:0;fill-rule:evenodd;stroke:rgb(0, 163, 255);stroke-width:1;" d="M 832.27, 435.816 L 847.34, 415.071 L 863.121, 421.631 L 848.05, 442.376 L 832.27, 435.816 z "/>
<path style="fill:rgb(0, 255, 0);fill-opacity:0;fill-rule:evenodd;stroke:rgb(0, 163, 255);stroke-width:1;" d="M 460.816, 115.957 L 469.149, 104.965 L 471.631, 104.255 L 490.957, 112.411 L 492.021, 115.248 L 484.22, 125.709 L 480.674, 126.418 L 461.525, 118.262 L 460.816, 115.957 z "/>
<path style="fill:rgb(0, 0, 255);fill-opacity:0;fill-rule:evenodd;stroke:rgb(0, 163, 255);stroke-width:1;" d="M 842.553, 506.915 L 849.113, 498.05 L 884.752, 513.121 L 878.369, 521.986 L 850.355, 510.284 L 842.553, 506.915 z "/>
<path style="fill:rgb(255, 255, 0);fill-opacity:0;fill-rule:evenodd;stroke:rgb(0, 163, 255);stroke-width:1;" d="M 192.73, 657.801 L 200.355, 647.34 L 230.319, 659.752 L 228.014, 663.298 L 222.872, 670.213 L 214.184, 666.667 L 192.73, 657.801 z "/>
<path style="fill:rgb(255, 0, 0);fill-opacity:0;fill-rule:evenodd;stroke:rgb(0, 163, 255);stroke-width:1;" d="M 877.66, 455.142 L 883.511, 447.163 L 921.986, 463.121 L 916.135, 471.099 L 877.66, 455.142 z "/>
<path style="fill:rgb(0, 255, 0);fill-opacity:0;fill-rule:evenodd;stroke:rgb(0, 163, 255);stroke-width:1;" d="M 883.511, 447.163 L 889.184, 439.184 L 927.66, 455.142 L 921.986, 463.121 L 883.511, 447.163 z "/>
<path style="fill:rgb(0, 0, 255);fill-opacity:0;fill-rule:evenodd;stroke:rgb(0, 163, 255);stroke-width:1;" d="M 889.184, 439.184 L 894.681, 431.383 L 933.156, 447.34 L 927.66, 455.142 L 889.184, 439.184 z "/>
<path style="fill:rgb(255, 255, 0);fill-opacity:0;fill-rule:evenodd;stroke:rgb(0, 163, 255);stroke-width:1;" d="M 731.56, 598.227 L 740.603, 585.816 L 746.986, 576.95 L 760.993, 582.979 L 745.567, 604.078 L 731.56, 598.227 z "/>
<path style="fill:rgb(255, 0, 0);fill-opacity:0;fill-rule:evenodd;stroke:rgb(0, 163, 255);stroke-width:1;" d="M 817.908, 429.787 L 832.979, 409.043 L 847.34, 415.071 L 832.27, 435.816 L 817.908, 429.787 z "/>
<path style="fill:rgb(0, 255, 0);fill-opacity:0;fill-rule:evenodd;stroke:rgb(0, 163, 255);stroke-width:1;" d="M 894.681, 431.383 L 900.177, 423.759 L 938.652, 439.716 L 933.156, 447.34 L 894.681, 431.383 z "/>
<path style="fill:rgb(0, 0, 255);fill-opacity:0;fill-rule:evenodd;stroke:rgb(0, 163, 255);stroke-width:1;" d="M 816.489, 505.851 L 824.291, 495.213 L 838.121, 476.064 L 848.05, 480.319 L 826.418, 509.929 L 816.489, 505.851 z "/>
<path style="fill:rgb(255, 255, 0);fill-opacity:0;fill-rule:evenodd;stroke:rgb(0, 163, 255);stroke-width:1;" d="M 849.113, 498.05 L 854.965, 489.894 L 890.78, 504.787 L 884.752, 513.121 L 849.113, 498.05 z "/>
<path style="fill:rgb(255, 0, 0);fill-opacity:0;fill-rule:evenodd;stroke:rgb(0, 163, 255);stroke-width:1;" d="M 333.333, 553.369 L 337.766, 547.695 L 386.879, 568.44 L 382.447, 574.645 L 333.333, 553.369 z "/>
<path style="fill:rgb(0, 255, 0);fill-opacity:0;fill-rule:evenodd;stroke:rgb(0, 163, 255);stroke-width:1;" d="M 854.965, 489.894 L 860.993, 481.738 L 896.631, 496.631 L 890.78, 504.787 L 854.965, 489.894 z "/>
<path style="fill:rgb(0, 0, 255);fill-opacity:0;fill-rule:evenodd;stroke:rgb(0, 163, 255);stroke-width:1;" d="M 224.645, 742.021 L 240.248, 720.39 L 242.553, 717.376 L 250, 720.39 L 245.922, 726.064 L 251.596, 728.546 L 237.766, 747.518 L 224.645, 742.021 z "/>
<path style="fill:rgb(255, 255, 0);fill-opacity:0;fill-rule:evenodd;stroke:rgb(0, 163, 255);stroke-width:1;" d="M 803.901, 423.936 L 818.972, 403.191 L 832.979, 409.043 L 817.908, 429.787 L 803.901, 423.936 z "/>
<path style="fill:rgb(255, 0, 0);fill-opacity:0;fill-rule:evenodd;stroke:rgb(0, 163, 255);stroke-width:1;" d="M 809.397, 570.213 L 817.199, 559.574 L 843.262, 570.39 L 835.461, 581.028 L 809.397, 570.213 z "/>
<path style="fill:rgb(0, 255, 0);fill-opacity:0;fill-rule:evenodd;stroke:rgb(0, 163, 255);stroke-width:1;" d="M 232.27, 613.475 L 249.823, 589.539 L 251.95, 590.426 L 249.291, 596.809 L 252.837, 598.227 L 245.745, 608.688 L 261.702, 615.603 L 256.206, 623.227 L 232.27, 613.475 z "/>
<path style="fill:rgb(0, 0, 255);fill-opacity:0;fill-rule:evenodd;stroke:rgb(0, 163, 255);stroke-width:1;" d="M 891.844, 603.901 L 897.518, 595.922 L 931.56, 610.106 L 925.887, 618.085 L 891.844, 603.901 z "/>
<path style="fill:rgb(255, 255, 0);fill-opacity:0;fill-rule:evenodd;stroke:rgb(0, 163, 255);stroke-width:1;" d="M 903.014, 588.475 L 908.688, 580.674 L 934.929, 591.667 L 942.553, 594.858 L 939.539, 599.113 L 936.879, 602.66 L 903.014, 588.475 z "/>
<path style="fill:rgb(255, 0, 0);fill-opacity:0;fill-rule:evenodd;stroke:rgb(0, 163, 255);stroke-width:1;" d="M 908.688, 580.674 L 914.184, 572.872 L 949.291, 587.589 L 944.681, 593.794 L 935.993, 590.071 L 934.929, 591.667 L 908.688, 580.674 z "/>
<path style="fill:rgb(0, 255, 0);fill-opacity:0;fill-rule:evenodd;stroke:rgb(0, 163, 255);stroke-width:1;" d="M 897.518, 595.922 L 903.014, 588.475 L 936.879, 602.66 L 931.56, 610.106 L 897.518, 595.922 z "/>
<path style="fill:rgb(0, 0, 255);fill-opacity:0;fill-rule:evenodd;stroke:rgb(0, 163, 255);stroke-width:1;" d="M 848.05, 442.376 L 863.121, 421.631 L 874.823, 426.596 L 859.752, 447.34 L 848.05, 442.376 z "/>
<path style="fill:rgb(255, 255, 0);fill-opacity:0;fill-rule:evenodd;stroke:rgb(0, 163, 255);stroke-width:1;" d="M 844.149, 518.794 L 850.355, 510.284 L 878.369, 521.986 L 872.163, 530.496 L 844.149, 518.794 z "/>
<path style="fill:rgb(255, 0, 0);fill-opacity:0;fill-rule:evenodd;stroke:rgb(0, 163, 255);stroke-width:1;" d="M 368.794, 593.44 L 370.745, 590.78 L 378.191, 580.496 L 382.447, 574.645 L 394.858, 580.142 L 381.383, 598.582 L 368.794, 593.44 z "/>
<path style="fill:rgb(0, 255, 0);fill-opacity:0;fill-rule:evenodd;stroke:rgb(0, 163, 255);stroke-width:1;" d="M 281.206, 633.865 L 286.879, 626.241 L 317.376, 639.362 L 311.702, 646.986 L 281.206, 633.865 z "/>
<path style="fill:rgb(0, 0, 255);fill-opacity:0;fill-rule:evenodd;stroke:rgb(0, 163, 255);stroke-width:1;" d="M 838.121, 527.128 L 844.149, 518.794 L 872.163, 530.496 L 866.135, 538.83 L 838.121, 527.128 z "/>
<path style="fill:rgb(255, 255, 0);fill-opacity:0;fill-rule:evenodd;stroke:rgb(0, 163, 255);stroke-width:1;" d="M 936.702, 623.05 L 950.709, 603.723 L 962.234, 608.511 L 948.227, 628.014 L 936.702, 623.05 z "/>
<path style="fill:rgb(255, 0, 0);fill-opacity:0;fill-rule:evenodd;stroke:rgb(0, 163, 255);stroke-width:1;" d="M 858.156, 269.681 L 862.057, 263.83 L 863.652, 261.525 L 867.553, 260.638 L 882.27, 266.667 L 883.333, 269.681 L 881.915, 271.986 L 877.66, 277.482 L 873.05, 278.014 L 860.461, 272.695 L 858.156, 269.681 z "/>
<path style="fill:rgb(0, 255, 0);fill-opacity:0;fill-rule:evenodd;stroke:rgb(0, 163, 255);stroke-width:1;" d="M 925.532, 618.44 L 925.887, 618.085 L 931.56, 610.106 L 936.879, 602.66 L 939.539, 599.113 L 950.709, 603.723 L 936.702, 623.05 L 925.532, 618.44 z "/>
<path style="fill:rgb(0, 0, 255);fill-opacity:0;fill-rule:evenodd;stroke:rgb(0, 163, 255);stroke-width:1;" d="M 861.17, 645.213 L 867.199, 637.057 L 892.73, 648.05 L 886.702, 656.206 L 861.17, 645.213 z "/>
<path style="fill:rgb(255, 255, 0);fill-opacity:0;fill-rule:evenodd;stroke:rgb(0, 163, 255);stroke-width:1;" d="M 813.475, 490.78 L 824.468, 475.532 L 826.596, 472.518 L 827.305, 471.631 L 838.121, 476.064 L 824.291, 495.213 L 813.475, 490.78 z "/>
<path style="fill:rgb(255, 0, 0);fill-opacity:0;fill-rule:evenodd;stroke:rgb(0, 163, 255);stroke-width:1;" d="M 855.319, 653.191 L 861.17, 645.213 L 886.702, 656.206 L 880.851, 664.184 L 855.319, 653.191 z "/>
<path style="fill:rgb(0, 255, 0);fill-opacity:0;fill-rule:evenodd;stroke:rgb(0, 163, 255);stroke-width:1;" d="M 790.426, 562.234 L 798.227, 551.596 L 810.106, 556.56 L 817.199, 559.574 L 809.397, 570.213 L 790.426, 562.234 z "/>
<path style="fill:rgb(0, 0, 255);fill-opacity:0;fill-rule:evenodd;stroke:rgb(0, 163, 255);stroke-width:1;" d="M 849.468, 661.17 L 855.319, 653.191 L 880.851, 664.184 L 875, 671.986 L 873.404, 671.277 L 868.085, 668.972 L 857.447, 664.539 L 849.468, 661.17 z "/>
<path style="fill:rgb(255, 255, 0);fill-opacity:0;fill-rule:evenodd;stroke:rgb(0, 163, 255);stroke-width:1;" d="M 561.17, 322.872 L 563.83, 318.972 L 616.489, 341.135 L 613.83, 344.858 L 561.17, 322.872 z "/>
<path style="fill:rgb(255, 0, 0);fill-opacity:0;fill-rule:evenodd;stroke:rgb(0, 163, 255);stroke-width:1;" d="M 867.199, 637.057 L 872.695, 629.61 L 898.227, 640.426 L 892.73, 648.05 L 867.199, 637.057 z "/>
<path style="fill:rgb(0, 255, 0);fill-opacity:0;fill-rule:evenodd;stroke:rgb(0, 163, 255);stroke-width:1;" d="M 256.206, 623.227 L 261.702, 615.603 L 275.532, 621.454 L 286.879, 626.241 L 281.206, 633.865 L 256.206, 623.227 z "/>
<path style="fill:rgb(0, 0, 255);fill-opacity:0;fill-rule:evenodd;stroke:rgb(0, 163, 255);stroke-width:1;" d="M 331.56, 584.574 L 336.879, 577.128 L 343.262, 579.61 L 341.312, 582.27 L 368.794, 593.44 L 365.248, 598.227 L 331.56, 584.574 z "/>
<path style="fill:rgb(255, 255, 0);fill-opacity:0;fill-rule:evenodd;stroke:rgb(0, 163, 255);stroke-width:1;" d="M 769.326, 520.745 L 780.851, 504.787 L 782.092, 503.191 L 794.326, 508.333 L 787.766, 517.553 L 781.915, 515.071 L 775.887, 523.582 L 769.326, 520.745 z "/>
<path style="fill:rgb(255, 0, 0);fill-opacity:0;fill-rule:evenodd;stroke:rgb(0, 163, 255);stroke-width:1;" d="M 228.014, 663.298 L 230.319, 659.752 L 238.121, 649.113 L 249.823, 653.901 L 239.716, 668.085 L 238.652, 667.73 L 228.014, 663.298 z "/>
<path style="fill:rgb(0, 255, 0);fill-opacity:0;fill-rule:evenodd;stroke:rgb(0, 163, 255);stroke-width:1;" d="M 332.979, 182.624 L 333.865, 181.383 L 364.539, 194.149 L 364.007, 194.858 L 362.589, 194.326 L 360.993, 196.454 L 355.851, 194.326 L 354.61, 196.099 L 346.809, 197.872 L 339.716, 194.858 L 337.589, 189.362 L 339.362, 186.879 L 334.574, 184.929 L 332.979, 182.624 z "/>
<path style="fill:rgb(0, 0, 255);fill-opacity:0;fill-rule:evenodd;stroke:rgb(0, 163, 255);stroke-width:1;" d="M 787.766, 517.553 L 794.326, 508.333 L 796.454, 509.22 L 810.816, 515.248 L 810.638, 515.603 L 804.255, 524.468 L 787.766, 517.553 z "/>
<path style="fill:rgb(255, 255, 0);fill-opacity:0;fill-rule:evenodd;stroke:rgb(0, 163, 255);stroke-width:1;" d="M 264.894, 596.277 L 270.922, 588.121 L 274.823, 589.894 L 276.241, 587.943 L 284.397, 591.489 L 286.525, 592.376 L 279.078, 602.305 L 277.128, 601.418 L 264.894, 596.277 z "/>
<path style="fill:rgb(255, 0, 0);fill-opacity:0;fill-rule:evenodd;stroke:rgb(0, 163, 255);stroke-width:1;" d="M 944.681, 593.794 L 949.291, 587.589 L 963.83, 593.617 L 970.922, 596.631 L 966.312, 602.66 L 944.681, 593.794 z "/>
<path style="fill:rgb(0, 255, 0);fill-opacity:0;fill-rule:evenodd;stroke:rgb(0, 163, 255);stroke-width:1;" d="M 633.688, 246.809 L 636.348, 243.44 L 674.468, 259.397 L 671.986, 262.943 L 633.688, 246.809 z "/>
<path style="fill:rgb(0, 0, 255);fill-opacity:0;fill-rule:evenodd;stroke:rgb(0, 163, 255);stroke-width:1;" d="M 795.567, 536.525 L 798.227, 532.801 L 803.191, 525.887 L 815.426, 530.851 L 807.624, 541.667 L 795.567, 536.525 z "/>
<path style="fill:rgb(255, 255, 0);fill-opacity:0;fill-rule:evenodd;stroke:rgb(0, 163, 255);stroke-width:1;" d="M 388.298, 152.837 L 395.213, 143.262 L 407.979, 148.582 L 402.305, 156.383 L 401.064, 158.156 L 397.163, 156.56 L 388.298, 152.837 z "/>
<path style="fill:rgb(255, 0, 0);fill-opacity:0;fill-rule:evenodd;stroke:rgb(0, 163, 255);stroke-width:1;" d="M 356.383, 139.362 L 363.298, 129.965 L 376.064, 135.284 L 369.149, 144.681 L 360.638, 141.135 L 356.383, 139.362 z "/>
<path style="fill:rgb(0, 255, 0);fill-opacity:0;fill-rule:evenodd;stroke:rgb(0, 163, 255);stroke-width:1;" d="M 127.66, 46.4539 L 135.638, 35.9929 L 146.631, 40.7801 L 138.83, 51.2411 L 127.66, 46.4539 z "/>
<path style="fill:rgb(0, 0, 255);fill-opacity:0;fill-rule:evenodd;stroke:rgb(0, 163, 255);stroke-width:1;" d="M 716.667, 618.972 L 719.858, 614.539 L 722.518, 610.638 L 736.702, 616.489 L 730.674, 624.823 L 716.667, 618.972 z "/>
<path style="fill:rgb(255, 255, 0);fill-opacity:0;fill-rule:evenodd;stroke:rgb(0, 163, 255);stroke-width:1;" d="M 760.816, 175.709 L 763.121, 172.518 L 798.404, 187.234 L 796.099, 190.426 L 760.816, 175.709 z "/>
<path style="fill:rgb(255, 0, 0);fill-opacity:0;fill-rule:evenodd;stroke:rgb(0, 163, 255);stroke-width:1;" d="M 370.745, 590.78 L 378.191, 580.496 L 389.007, 585.284 L 382.092, 595.213 L 370.745, 590.78 z "/>
<path style="fill:rgb(0, 255, 0);fill-opacity:0;fill-rule:evenodd;stroke:rgb(0, 163, 255);stroke-width:1;" d="M 315.248, 545.745 L 319.504, 539.894 L 337.766, 547.695 L 333.333, 553.369 L 315.248, 545.745 z "/>
<path style="fill:rgb(0, 0, 255);fill-opacity:0;fill-rule:evenodd;stroke:rgb(0, 163, 255);stroke-width:1;" d="M 201.418, 496.809 L 203.546, 494.149 L 223.936, 502.837 L 212.057, 519.681 L 210.461, 519.149 L 219.858, 506.383 L 215.78, 502.66 L 212.234, 505.319 L 201.418, 496.809 z "/>
<path style="fill:rgb(255, 255, 0);fill-opacity:0;fill-rule:evenodd;stroke:rgb(0, 163, 255);stroke-width:1;" d="M 680.142, 278.546 L 689.539, 265.78 L 696.986, 268.794 L 690.426, 277.66 L 687.589, 281.56 L 680.142, 278.546 z "/>
<path style="fill:rgb(255, 0, 0);fill-opacity:0;fill-rule:evenodd;stroke:rgb(0, 163, 255);stroke-width:1;" d="M 653.546, 312.766 L 661.525, 301.95 L 670.035, 305.674 L 662.057, 316.489 L 653.546, 312.766 z "/>
<path style="fill:rgb(0, 255, 0);fill-opacity:0;fill-rule:evenodd;stroke:rgb(0, 163, 255);stroke-width:1;" d="M 518.794, 233.511 L 525, 224.823 L 535.106, 229.078 L 528.901, 237.766 L 518.794, 233.511 z "/>
<path style="fill:rgb(0, 0, 255);fill-opacity:0;fill-rule:evenodd;stroke:rgb(0, 163, 255);stroke-width:1;" d="M 359.043, 136.525 L 361.525, 133.156 L 367.376, 131.915 L 371.809, 133.865 L 373.404, 138.298 L 370.922, 141.667 L 365.248, 142.908 L 360.638, 140.957 L 359.043, 136.525 z "/>
<path style="fill:rgb(255, 255, 0);fill-opacity:0;fill-rule:evenodd;stroke:rgb(0, 163, 255);stroke-width:1;" d="M 390.957, 150 L 393.44, 146.454 L 399.113, 145.213 L 403.723, 147.163 L 405.319, 151.596 L 402.837, 154.965 L 397.163, 156.206 L 392.553, 154.255 L 390.957, 150 z "/>
<path style="fill:rgb(255, 0, 0);fill-opacity:0;fill-rule:evenodd;stroke:rgb(0, 163, 255);stroke-width:1;" d="M 312.766, 614.716 L 316.667, 609.752 L 333.865, 617.199 L 330.142, 622.163 L 312.766, 614.716 z "/>
<path style="fill:rgb(0, 255, 0);fill-opacity:0;fill-rule:evenodd;stroke:rgb(0, 163, 255);stroke-width:1;" d="M 382.447, 574.645 L 386.879, 568.44 L 399.645, 573.759 L 394.858, 580.142 L 382.447, 574.645 z "/>
<path style="fill:rgb(0, 0, 255);fill-opacity:0;fill-rule:evenodd;stroke:rgb(0, 163, 255);stroke-width:1;" d="M 703.546, 293.085 L 709.043, 285.461 L 719.149, 289.716 L 713.475, 297.34 L 703.546, 293.085 z "/>
<path style="fill:rgb(255, 255, 0);fill-opacity:0;fill-rule:evenodd;stroke:rgb(0, 163, 255);stroke-width:1;" d="M 343.262, 157.447 L 356.383, 139.362 L 360.638, 141.135 L 347.518, 159.22 L 343.262, 157.447 z "/>
<path style="fill:rgb(255, 0, 0);fill-opacity:0;fill-rule:evenodd;stroke:rgb(0, 163, 255);stroke-width:1;" d="M 383.865, 174.645 L 397.163, 156.56 L 401.064, 158.156 L 387.766, 176.241 L 383.865, 174.645 z "/>
<path style="fill:rgb(0, 255, 0);fill-opacity:0;fill-rule:evenodd;stroke:rgb(0, 163, 255);stroke-width:1;" d="M 482.447, 278.014 L 486.525, 272.695 L 497.695, 277.305 L 493.794, 282.801 L 482.447, 278.014 z "/>
<path style="fill:rgb(0, 0, 255);fill-opacity:0;fill-rule:evenodd;stroke:rgb(0, 163, 255);stroke-width:1;" d="M 402.305, 156.383 L 407.979, 148.582 L 414.184, 151.418 L 414.716, 154.787 L 412.589, 157.447 L 408.688, 159.043 L 402.305, 156.383 z "/>
<path style="fill:rgb(255, 255, 0);fill-opacity:0;fill-rule:evenodd;stroke:rgb(0, 163, 255);stroke-width:1;" d="M 618.262, 293.44 L 619.149, 291.489 L 621.099, 290.248 L 623.404, 289.539 L 626.064, 289.894 L 628.191, 290.78 L 629.433, 292.553 L 629.787, 294.504 L 628.901, 296.277 L 627.128, 297.518 L 624.645, 298.227 L 622.163, 298.05 L 620.035, 296.986 L 618.617, 295.213 L 618.262, 293.44 z "/>
<path style="fill:rgb(255, 0, 0);fill-opacity:0;fill-rule:evenodd;stroke:rgb(0, 163, 255);stroke-width:1;" d="M 150.709, 555.674 L 156.56, 547.872 L 163.475, 550.887 L 157.624, 558.688 L 150.709, 555.674 z "/>
<path style="fill:rgb(0, 255, 0);fill-opacity:0;fill-rule:evenodd;stroke:rgb(0, 163, 255);stroke-width:1;" d="M 629.433, 351.418 L 635.816, 342.553 L 641.312, 344.858 L 634.929, 353.723 L 629.433, 351.418 z "/>
<path style="fill:rgb(0, 0, 255);fill-opacity:0;fill-rule:evenodd;stroke:rgb(0, 163, 255);stroke-width:1;" d="M 585.816, 287.766 L 590.071, 281.738 L 597.695, 284.752 L 593.262, 290.957 L 585.816, 287.766 z "/>
<path style="fill:rgb(255, 255, 0);fill-opacity:0;fill-rule:evenodd;stroke:rgb(0, 163, 255);stroke-width:1;" d="M 873.05, 278.014 L 877.66, 277.482 L 881.915, 271.986 L 885.816, 273.759 L 887.057, 276.241 L 884.043, 280.142 L 881.206, 280.851 L 873.05, 278.014 z "/>
<path style="fill:rgb(255, 0, 0);fill-opacity:0;fill-rule:evenodd;stroke:rgb(0, 163, 255);stroke-width:1;" d="M 851.596, 267.021 L 854.433, 262.943 L 857.801, 262.411 L 862.057, 263.83 L 858.156, 269.681 L 860.461, 272.695 L 852.482, 269.326 L 851.596, 267.021 z "/>
<path style="fill:rgb(0, 255, 0);fill-opacity:0;fill-rule:evenodd;stroke:rgb(0, 163, 255);stroke-width:1;" d="M 0, 70.5674 L 12.234, 53.9007 L 36.3475, 48.9362 L 91.3121, 71.9858 L 92.5532, 70.2128 L 120.922, 82.0922 L 151.418, 39.8936 L 206.383, 62.9433 L 176.418, 104.433 L 219.149, 122.34 L 239.007, 94.8582 L 242.553, 96.2766 L 252.482, 82.4468 L 287.057, 96.8085 L 274.113, 108.865 L 275, 123.227 L 242.199, 153.369 L 218.617, 167.199 L 213.83, 167.199 L 214.184, 170.213 L 208.156, 173.227 L 7.0922, 88.8298 L 0, 70.5674 z "/>
<path style="fill:rgb(0, 0, 255);fill-opacity:0;fill-rule:evenodd;stroke:rgb(0, 163, 255);stroke-width:1;" d="M 39.7163, 620.213 L 70.0355, 578.546 L 153.723, 613.652 L 123.227, 655.319 L 39.7163, 620.213 z "/>
<path style="fill:rgb(255, 255, 0);fill-opacity:0;fill-rule:evenodd;stroke:rgb(0, 163, 255);stroke-width:1;" d="M 61.7021, 398.227 L 143.262, 323.404 L 186.702, 341.667 L 156.738, 382.979 L 128.723, 371.277 L 98.227, 413.475 L 61.7021, 398.227 z "/>
<path style="fill:rgb(255, 0, 0);fill-opacity:0;fill-rule:evenodd;stroke:rgb(0, 163, 255);stroke-width:1;" d="M 309.929, 72.695 L 340.248, 31.383 L 366.135, 42.1986 L 370.213, 36.5248 L 396.986, 0 L 439.007, 17.7305 L 470.922, 31.2057 L 443.972, 67.9078 L 419.504, 57.6241 L 409.22, 67.1986 L 399.645, 76.4184 L 393.44, 84.9291 L 380.496, 102.66 L 309.929, 72.695 z "/>
<path style="fill:rgb(0, 255, 0);fill-opacity:0;fill-rule:evenodd;stroke:rgb(0, 163, 255);stroke-width:1;" d="M 797.695, 40.4255 L 810.993, 22.1631 L 947.695, 79.6099 L 951.241, 74.6454 L 947.518, 73.0496 L 952.305, 66.4894 L 1048.76, 107.092 L 1037.94, 121.986 L 1039.89, 122.872 L 1038.12, 125.532 L 1035.99, 124.645 L 1034.22, 127.128 L 941.489, 88.1206 L 934.397, 97.8723 L 797.695, 40.4255 z "/>
<path style="fill:rgb(0, 0, 255);fill-opacity:0;fill-rule:evenodd;stroke:rgb(0, 163, 255);stroke-width:1;" d="M 443.972, 67.9078 L 470.922, 31.2057 L 491.489, 39.8936 L 485.106, 48.4043 L 495.035, 52.6596 L 501.241, 44.1489 L 526.95, 55.1418 L 518.972, 66.1348 L 518.794, 66.1348 L 515.603, 64.7163 L 504.255, 80.3191 L 504.255, 80.3191 L 507.624, 81.7376 L 500.177, 91.6667 L 443.972, 67.9078 z "/>
<path style="fill:rgb(255, 255, 0);fill-opacity:0;fill-rule:evenodd;stroke:rgb(0, 163, 255);stroke-width:1;" d="M 260.816, 51.9504 L 287.057, 16.1348 L 318.44, 29.4326 L 322.695, 23.7589 L 340.248, 31.383 L 309.929, 72.695 L 260.816, 51.9504 z "/>
<path style="fill:rgb(255, 0, 0);fill-opacity:0;fill-rule:evenodd;stroke:rgb(0, 163, 255);stroke-width:1;" d="M 1003.9, 53.1915 L 1021.45, 29.4326 L 1034.22, 11.8794 L 1045.39, 16.4894 L 1040.43, 23.4043 L 1034.75, 31.0284 L 1025.35, 43.9716 L 1022.7, 47.5177 L 1018.79, 52.8369 L 1015.07, 57.9787 L 1003.9, 53.1915 z "/>
<path style="fill:rgb(0, 255, 0);fill-opacity:0;fill-rule:evenodd;stroke:rgb(0, 163, 255);stroke-width:1;" d="M 1013.83, 59.7518 L 1015.07, 57.9787 L 1018.79, 52.8369 L 1020.21, 53.5461 L 1023.05, 49.4681 L 1022.7, 47.5177 L 1025.35, 43.9716 L 1027.66, 43.617 L 1035.46, 32.9787 L 1034.75, 31.0284 L 1040.43, 23.4043 L 1054.43, 29.2553 L 1050.18, 35.2837 L 1047.7, 34.2199 L 1046.45, 35.8156 L 1047.16, 35.9929 L 1038.12, 48.4043 L 1039.18, 51.2411 L 1037.77, 53.0142 L 1034.22, 53.7234 L 1031.03, 58.156 L 1033.33, 59.0426 L 1028.37, 65.7801 L 1013.83, 59.7518 z "/>
<path style="fill:rgb(0, 0, 255);fill-opacity:0;fill-rule:evenodd;stroke:rgb(0, 163, 255);stroke-width:1;" d="M 993.262, 48.7589 L 1010.82, 24.8227 L 1021.45, 29.4326 L 1003.9, 53.1915 L 993.262, 48.7589 z "/>
<path style="fill:rgb(255, 255, 0);fill-opacity:0;fill-rule:evenodd;stroke:rgb(0, 163, 255);stroke-width:1;" d="M 10.8156, 515.957 L 11.8794, 511.17 L 12.234, 509.752 L 39.8936, 472.518 L 54.2553, 453.014 L 66.3121, 436.525 L 203.546, 494.149 L 223.936, 502.837 L 212.057, 519.681 L 194.681, 543.794 L 168.085, 580.319 L 140.78, 569.149 L 122.34, 561.525 L 145.39, 529.787 L 88.6525, 505.851 L 77.6596, 520.567 L 75.7092, 520.035 L 68.4397, 529.965 L 70.3901, 530.851 L 64.7163, 538.121 L 10.8156, 515.957 z "/>
<path style="fill:rgb(255, 0, 0);fill-opacity:0;fill-rule:evenodd;stroke:rgb(0, 163, 255);stroke-width:1;" d="M 11.8794, 511.17 L 12.234, 509.752 L 39.8936, 472.518 L 53.1915, 477.482 L 55.8511, 473.936 L 72.8723, 482.092 L 76.0638, 479.255 L 97.695, 493.617 L 88.6525, 505.851 L 77.6596, 520.567 L 75.7092, 520.035 L 68.4397, 529.965 L 65.9574, 533.333 L 59.3972, 532.801 L 59.5745, 528.369 L 45.5674, 527.305 L 45.922, 522.695 L 31.9149, 521.631 L 32.6241, 517.553 L 18.2624, 515.603 L 18.7943, 511.879 L 11.8794, 511.17 z "/>
<path style="fill:rgb(0, 255, 0);fill-opacity:0;fill-rule:evenodd;stroke:rgb(0, 163, 255);stroke-width:1;" d="M 42.1986, 507.624 L 43.4397, 490.603 L 53.1915, 477.482 L 55.8511, 473.936 L 72.8723, 482.092 L 76.0638, 479.255 L 97.695, 493.617 L 88.6525, 505.851 L 77.6596, 520.567 L 75.7092, 520.035 L 58.8652, 514.362 L 42.1986, 507.624 z "/>
<path style="fill:rgb(0, 0, 255);fill-opacity:0;fill-rule:evenodd;stroke:rgb(0, 163, 255);stroke-width:1;" d="M 39.8936, 472.518 L 54.2553, 453.014 L 67.3759, 458.511 L 55.8511, 473.936 L 53.1915, 477.482 L 39.8936, 472.518 z "/>
<path style="fill:rgb(255, 255, 0);fill-opacity:0;fill-rule:evenodd;stroke:rgb(0, 163, 255);stroke-width:1;" d="M 10.8156, 515.957 L 11.8794, 511.17 L 18.7943, 511.879 L 18.2624, 515.603 L 32.6241, 517.553 L 31.9149, 521.631 L 45.922, 522.695 L 45.5674, 527.305 L 59.5745, 528.369 L 59.3972, 532.801 L 65.9574, 533.333 L 68.4397, 529.965 L 70.3901, 530.851 L 64.7163, 538.121 L 10.8156, 515.957 z "/>
<path style="fill:rgb(255, 0, 0);fill-opacity:0;fill-rule:evenodd;stroke:rgb(0, 163, 255);stroke-width:1;" d="M 1037.23, 155.674 L 1046.99, 142.376 L 1049.65, 138.652 L 1087.77, 154.433 L 1078.55, 167.021 L 1050.71, 155.496 L 1047.52, 159.752 L 1037.23, 155.674 z "/>
</svg>