<?xml version="1.0" encoding="iso-8859-1" standalone="no"?>
<!DOCTYPE svg PUBLIC "-//W3C//DTD SVG 1.0//EN" "http://www.w3.org/TR/2001/REC-SVG-20010904/DTD/svg10.dtd">
<svg xmlns="http://www.w3.org/2000/svg" width="1439" height="800">
<path style="fill:rgb(255, 0, 0);fill-opacity:0;fill-rule:evenodd;stroke:rgb(255, 125, 0);stroke-width:1;" d="M 92.7736, 80.936 L 115.072, 50.9291 L 134.343, 59.1879 L 124.157, 72.9525 L 166.827, 91.1218 L 187.749, 70.1996 L 156.917, 53.4067 L 177.564, 31.3833 L 186.924, 35.5127 L 276.394, 86.1666 L 292.361, 98.5547 L 303.372, 110.117 L 321.542, 133.242 L 295.939, 167.653 L 92.7736, 80.936 z "/>
<path style="fill:rgb(0, 255, 0);fill-opacity:0;fill-rule:evenodd;stroke:rgb(255, 125, 0);stroke-width:1;" d="M 1309.57, 689.332 L 1330.49, 660.702 L 1353.34, 629.594 L 1439.23, 666.208 L 1390.78, 732.278 L 1357.19, 717.963 L 1366.83, 704.749 L 1352.79, 698.968 L 1348.11, 705.575 L 1309.57, 689.332 z "/>
<path style="fill:rgb(0, 0, 255);fill-opacity:0;fill-rule:evenodd;stroke:rgb(255, 125, 0);stroke-width:1;" d="M 1168.89, 727.047 L 1223.12, 652.994 L 1266.62, 671.438 L 1261.67, 678.045 L 1285.89, 688.507 L 1269.1, 711.356 L 1247.08, 701.996 L 1236.61, 716.311 L 1268.27, 729.525 L 1246.25, 759.532 L 1168.89, 727.047 z "/>
<path style="fill:rgb(255, 255, 0);fill-opacity:0;fill-rule:evenodd;stroke:rgb(255, 125, 0);stroke-width:1;" d="M 1244.05, 624.088 L 1264.97, 595.733 L 1288.09, 605.368 L 1290.02, 602.891 L 1353.34, 629.594 L 1330.49, 660.702 L 1303.23, 649.14 L 1244.05, 624.088 z "/>
<path style="fill:rgb(255, 0, 0);fill-opacity:0;fill-rule:evenodd;stroke:rgb(255, 125, 0);stroke-width:1;" d="M 1255.61, 763.661 L 1272.13, 740.812 L 1278.73, 743.565 L 1303.79, 709.429 L 1332.97, 721.817 L 1309.29, 754.301 L 1315.9, 757.33 L 1313.42, 760.633 L 1298, 781.555 L 1255.61, 763.661 z "/>
<path style="fill:rgb(0, 255, 0);fill-opacity:0;fill-rule:evenodd;stroke:rgb(255, 125, 0);stroke-width:1;" d="M 1298, 781.555 L 1313.42, 760.633 L 1322.78, 764.763 L 1323.61, 759.532 L 1328.29, 753.2 L 1332.14, 754.852 L 1343.7, 739.16 L 1339.57, 737.509 L 1347.01, 727.323 L 1376.74, 739.986 L 1352.79, 773.021 L 1348.11, 775.499 L 1356.92, 779.353 L 1341.78, 800 L 1298, 781.555 z "/>
<path style="fill:rgb(0, 0, 255);fill-opacity:0;fill-rule:evenodd;stroke:rgb(255, 125, 0);stroke-width:1;" d="M 637.027, 347.419 L 655.747, 321.542 L 725.671, 350.723 L 707.777, 375.499 L 706.951, 376.6 L 637.027, 347.419 z "/>
<path style="fill:rgb(255, 255, 0);fill-opacity:0;fill-rule:evenodd;stroke:rgb(255, 125, 0);stroke-width:1;" d="M 1223.12, 652.994 L 1244.05, 624.088 L 1303.23, 649.14 L 1282.04, 678.045 L 1266.62, 671.438 L 1223.12, 652.994 z "/>
<path style="fill:rgb(255, 0, 0);fill-opacity:0;fill-rule:evenodd;stroke:rgb(255, 125, 0);stroke-width:1;" d="M 0, 18.1693 L 13.214, 0 L 61.6655, 19.8211 L 48.4515, 37.9904 L 0, 18.1693 z "/>
<path style="fill:rgb(0, 255, 0);fill-opacity:0;fill-rule:evenodd;stroke:rgb(255, 125, 0);stroke-width:1;" d="M 904.336, 694.288 L 916.999, 676.394 L 948.107, 689.332 L 935.169, 707.226 L 904.336, 694.288 z "/>
<path style="fill:rgb(0, 0, 255);fill-opacity:0;fill-rule:evenodd;stroke:rgb(255, 125, 0);stroke-width:1;" d="M 122.78, 40.1927 L 140.399, 15.4164 L 161.597, 24.2257 L 157.467, 30.2822 L 143.978, 49.0021 L 122.78, 40.1927 z "/>
<path style="fill:rgb(255, 255, 0);fill-opacity:0;fill-rule:evenodd;stroke:rgb(255, 125, 0);stroke-width:1;" d="M 86.7171, 59.1879 L 95.5265, 47.3503 L 105.437, 51.4797 L 96.903, 63.3173 L 86.7171, 59.1879 z "/>
</svg>