<?xml version="1.0" encoding="iso-8859-1" standalone="no"?>
<!DOCTYPE svg PUBLIC "-//W3C//DTD SVG 1.0//EN" "http://www.w3.org/TR/2001/REC-SVG-20010904/DTD/svg10.dtd">
<svg xmlns="http://www.w3.org/2000/svg" width="1027" height="800">
<path style="fill:rgb(255, 0, 0);fill-opacity:0;fill-rule:evenodd;stroke:rgb(0, 170, 255);stroke-width:1;" d="M 393.157, 448.108 L 409.124, 426.335 L 418.455, 430.482 L 427.372, 418.455 L 424.261, 408.502 L 453.499, 368.688 L 594.298, 428.409 L 673.51, 461.794 L 689.684, 439.813 L 964.23, 556.35 L 947.434, 675.998 L 941.006, 679.108 L 834.215, 633.904 L 819.077, 627.475 L 683.463, 570.036 L 682.841, 570.866 L 676.205, 567.963 L 664.8, 563.193 L 393.157, 448.108 z "/>
<path style="fill:rgb(0, 255, 0);fill-opacity:0;fill-rule:evenodd;stroke:rgb(0, 170, 255);stroke-width:1;" d="M 144.946, 542.665 L 216.9, 444.375 L 606.947, 609.85 L 609.642, 605.91 L 638.466, 583.722 L 650.285, 588.699 L 622.084, 611.301 L 619.181, 615.448 L 690.928, 645.931 L 692.172, 644.064 L 705.651, 649.663 L 697.149, 661.068 L 683.878, 655.469 L 684.914, 654.018 L 613.167, 623.536 L 607.776, 631.001 L 601.763, 628.512 L 541.835, 710.42 L 490.41, 688.647 L 502.644, 671.851 L 368.481, 615.034 L 355.832, 632.452 L 331.985, 622.499 L 344.842, 604.873 L 209.228, 547.434 L 196.579, 564.645 L 144.946, 542.665 z "/>
<path style="fill:rgb(0, 0, 255);fill-opacity:0;fill-rule:evenodd;stroke:rgb(0, 170, 255);stroke-width:1;" d="M 739.45, 419.077 L 742.768, 414.93 L 746.708, 410.783 L 748.989, 408.917 L 753.758, 405.184 L 759.15, 401.866 L 764.749, 398.963 L 767.652, 397.719 L 773.872, 395.438 L 800.207, 406.428 L 851.426, 335.925 L 917.574, 363.712 L 915.708, 366.407 L 920.27, 368.274 L 921.514, 366.615 L 925.661, 373.458 L 927.527, 376.983 L 929.393, 380.715 L 932.504, 387.766 L 934.992, 395.231 L 936.858, 402.696 L 937.481, 406.428 L 938.517, 413.893 L 938.932, 421.566 L 938.932, 425.298 L 938.725, 429.031 L 937.895, 436.703 L 936.651, 444.168 L 934.578, 451.633 L 932.089, 459.098 L 928.771, 466.148 L 925.039, 473.199 L 922.965, 476.724 L 918.403, 483.567 L 913.427, 489.995 L 906.169, 486.884 L 904.717, 488.958 L 849.767, 465.941 L 851.426, 463.453 L 846.864, 461.586 L 845.205, 463.66 L 739.45, 419.077 z "/>
<path style="fill:rgb(255, 255, 0);fill-opacity:0;fill-rule:evenodd;stroke:rgb(0, 170, 255);stroke-width:1;" d="M 404.769, 451.84 L 442.509, 400.415 L 673.51, 497.875 L 635.77, 549.3 L 404.769, 451.84 z "/>
<path style="fill:rgb(255, 0, 0);fill-opacity:0;fill-rule:evenodd;stroke:rgb(0, 170, 255);stroke-width:1;" d="M 75.0648, 630.378 L 101.4, 594.09 L 118.403, 601.14 L 116.744, 603.421 L 246.76, 657.957 L 277.864, 671.021 L 233.074, 732.815 L 107.828, 680.145 L 127.735, 652.566 L 78.7973, 631.83 L 75.0648, 630.378 z "/>
<path style="fill:rgb(0, 255, 0);fill-opacity:0;fill-rule:evenodd;stroke:rgb(0, 170, 255);stroke-width:1;" d="M 36.4956, 248.212 L 47.071, 233.696 L 61.5863, 213.375 L 87.7138, 224.365 L 76.1016, 240.332 L 144.738, 269.155 L 182.478, 216.9 L 161.742, 208.398 L 175.842, 188.906 L 222.291, 208.398 L 207.983, 228.305 L 234.733, 239.502 L 221.047, 258.58 L 193.883, 247.175 L 170.036, 280.145 L 196.786, 291.343 L 183.1, 310.213 L 156.35, 299.015 L 141.42, 319.751 L 115.915, 308.968 L 130.845, 288.232 L 87.9212, 270.399 L 73.4059, 290.513 L 47.6931, 279.73 L 62.6231, 259.202 L 36.4956, 248.212 z "/>
<path style="fill:rgb(0, 0, 255);fill-opacity:0;fill-rule:evenodd;stroke:rgb(0, 170, 255);stroke-width:1;" d="M 442.509, 93.52 L 492.483, 25.2981 L 558.839, 53.4992 L 508.865, 121.721 L 442.509, 93.52 z "/>
<path style="fill:rgb(255, 255, 0);fill-opacity:0;fill-rule:evenodd;stroke:rgb(0, 170, 255);stroke-width:1;" d="M 754.173, 705.236 L 775.739, 675.583 L 782.167, 678.279 L 799.171, 654.847 L 814.308, 661.483 L 805.391, 674.132 L 797.512, 684.914 L 876.309, 718.3 L 854.743, 747.745 L 754.173, 705.236 z "/>
<path style="fill:rgb(255, 0, 0);fill-opacity:0;fill-rule:evenodd;stroke:rgb(0, 170, 255);stroke-width:1;" d="M 45.4121, 441.887 L 54.1213, 429.86 L 53.4992, 429.445 L 60.1348, 420.321 L 60.9642, 420.736 L 79.8341, 394.816 L 79.0047, 394.401 L 85.8476, 384.863 L 138.517, 407.05 L 140.176, 413.686 L 108.45, 457.439 L 89.9948, 449.559 L 83.9813, 458.269 L 45.4121, 441.887 z "/>
<path style="fill:rgb(0, 255, 0);fill-opacity:0;fill-rule:evenodd;stroke:rgb(0, 170, 255);stroke-width:1;" d="M 222.913, 746.916 L 233.074, 732.815 L 277.864, 671.021 L 288.025, 657.128 L 322.032, 671.436 L 256.921, 761.431 L 222.913, 746.916 z "/>
<path style="fill:rgb(0, 0, 255);fill-opacity:0;fill-rule:evenodd;stroke:rgb(0, 170, 255);stroke-width:1;" d="M 326.594, 708.968 L 352.1, 674.132 L 435.666, 709.383 L 410.161, 744.22 L 326.594, 708.968 z "/>
<path style="fill:rgb(255, 255, 0);fill-opacity:0;fill-rule:evenodd;stroke:rgb(0, 170, 255);stroke-width:1;" d="M 57.8538, 753.966 L 75.6869, 729.29 L 76.9311, 727.631 L 186.003, 773.872 L 166.926, 800 L 68.844, 758.528 L 57.8538, 753.966 z "/>
<path style="fill:rgb(255, 0, 0);fill-opacity:0;fill-rule:evenodd;stroke:rgb(0, 170, 255);stroke-width:1;" d="M 213.997, 124.624 L 228.512, 104.925 L 255.677, 116.33 L 270.607, 95.5936 L 296.112, 106.376 L 281.182, 127.112 L 308.139, 138.517 L 293.831, 158.009 L 266.874, 146.812 L 251.737, 167.548 L 226.024, 156.765 L 241.161, 136.029 L 213.997, 124.624 z "/>
<path style="fill:rgb(0, 255, 0);fill-opacity:0;fill-rule:evenodd;stroke:rgb(0, 170, 255);stroke-width:1;" d="M 284.292, 28.6159 L 298.393, 9.1239 L 325.35, 20.5288 L 340.28, 0 L 365.785, 10.5754 L 365.371, 11.1975 L 350.855, 31.1042 L 377.812, 42.5091 L 363.712, 62.001 L 336.547, 50.5962 L 321.617, 71.1249 L 296.319, 60.3421 L 311.249, 40.0207 L 284.292, 28.6159 z "/>
<path style="fill:rgb(0, 0, 255);fill-opacity:0;fill-rule:evenodd;stroke:rgb(0, 170, 255);stroke-width:1;" d="M 50.8035, 670.607 L 78.7973, 631.83 L 127.735, 652.566 L 107.828, 680.145 L 99.7408, 691.135 L 50.8035, 670.607 z "/>
<path style="fill:rgb(255, 255, 0);fill-opacity:0;fill-rule:evenodd;stroke:rgb(0, 170, 255);stroke-width:1;" d="M 116.744, 603.421 L 118.403, 601.14 L 127.112, 589.321 L 256.921, 643.857 L 246.76, 657.957 L 116.744, 603.421 z "/>
<path style="fill:rgb(255, 0, 0);fill-opacity:0;fill-rule:evenodd;stroke:rgb(0, 170, 255);stroke-width:1;" d="M 309.798, 763.712 L 325.765, 741.731 L 328.668, 742.976 L 340.28, 727.009 L 365.993, 737.792 L 337.17, 777.19 L 311.664, 766.407 L 312.701, 764.956 L 309.798, 763.712 z "/>
<path style="fill:rgb(0, 255, 0);fill-opacity:0;fill-rule:evenodd;stroke:rgb(0, 170, 255);stroke-width:1;" d="M 246.76, 363.09 L 265.63, 336.547 L 303.37, 352.307 L 294.66, 364.126 L 286.159, 360.601 L 281.389, 367.444 L 275.998, 365.163 L 270.399, 373.043 L 246.76, 363.09 z "/>
<path style="fill:rgb(0, 0, 255);fill-opacity:0;fill-rule:evenodd;stroke:rgb(0, 170, 255);stroke-width:1;" d="M 1003.42, 704.406 L 1015.66, 616.693 L 1027.27, 617.729 L 1023.12, 647.797 L 1015.24, 705.236 L 1003.42, 704.406 z "/>
<path style="fill:rgb(255, 255, 0);fill-opacity:0;fill-rule:evenodd;stroke:rgb(0, 170, 255);stroke-width:1;" d="M 782.167, 678.279 L 819.077, 627.475 L 834.215, 633.904 L 797.512, 684.914 L 782.167, 678.279 z "/>
<path style="fill:rgb(255, 0, 0);fill-opacity:0;fill-rule:evenodd;stroke:rgb(0, 170, 255);stroke-width:1;" d="M 35.6661, 422.188 L 42.7164, 412.442 L 45.4121, 411.82 L 49.7667, 405.599 L 53.0845, 407.05 L 56.817, 401.659 L 53.7066, 400.415 L 61.5863, 389.425 L 60.9642, 387.144 L 68.4292, 376.776 L 86.2623, 384.241 L 85.8476, 384.863 L 79.0047, 394.401 L 76.7237, 394.816 L 68.6366, 406.013 L 65.9409, 404.977 L 61.7937, 410.575 L 64.4894, 411.612 L 59.5127, 418.455 L 60.1348, 420.321 L 53.4992, 429.445 L 35.6661, 422.188 z "/>
<path style="fill:rgb(0, 255, 0);fill-opacity:0;fill-rule:evenodd;stroke:rgb(0, 170, 255);stroke-width:1;" d="M 609.642, 605.91 L 664.8, 563.193 L 676.205, 567.963 L 622.084, 611.301 L 609.642, 605.91 z "/>
<path style="fill:rgb(0, 0, 255);fill-opacity:0;fill-rule:evenodd;stroke:rgb(0, 170, 255);stroke-width:1;" d="M 298.6, 758.942 L 314.774, 736.962 L 325.765, 741.731 L 309.798, 763.712 L 298.6, 758.942 z "/>
<path style="fill:rgb(255, 255, 0);fill-opacity:0;fill-rule:evenodd;stroke:rgb(0, 170, 255);stroke-width:1;" d="M 392.12, 170.658 L 396.06, 165.474 L 435.666, 181.856 L 431.934, 187.247 L 392.12, 170.658 z "/>
<path style="fill:rgb(255, 0, 0);fill-opacity:0;fill-rule:evenodd;stroke:rgb(0, 170, 255);stroke-width:1;" d="M 402.281, 156.973 L 406.221, 151.581 L 445.619, 168.17 L 441.887, 173.354 L 402.281, 156.973 z "/>
<path style="fill:rgb(0, 255, 0);fill-opacity:0;fill-rule:evenodd;stroke:rgb(0, 170, 255);stroke-width:1;" d="M 448.937, 452.048 L 449.974, 448.73 L 451.426, 447.071 L 453.707, 445.412 L 456.195, 444.583 L 460.135, 444.168 L 463.66, 444.79 L 466.978, 446.242 L 468.844, 448.108 L 470.088, 450.389 L 470.295, 452.877 L 469.259, 455.78 L 467.807, 457.439 L 465.111, 459.305 L 462.83, 459.927 L 459.513, 460.342 L 456.402, 459.927 L 453.499, 458.891 L 451.011, 457.024 L 449.559, 454.951 L 448.937, 452.048 z "/>
<path style="fill:rgb(0, 0, 255);fill-opacity:0;fill-rule:evenodd;stroke:rgb(0, 170, 255);stroke-width:1;" d="M 566.096, 500.57 L 566.926, 497.252 L 568.585, 495.594 L 570.866, 493.935 L 573.354, 492.898 L 577.294, 492.483 L 580.819, 493.105 L 584.137, 494.764 L 586.003, 496.63 L 587.247, 498.704 L 587.455, 501.4 L 586.418, 504.303 L 584.966, 505.962 L 582.271, 507.621 L 579.782, 508.45 L 576.464, 508.865 L 573.561, 508.45 L 570.658, 507.413 L 568.17, 505.547 L 566.511, 503.473 L 566.096, 500.57 z "/>
<path style="fill:rgb(255, 255, 0);fill-opacity:0;fill-rule:evenodd;stroke:rgb(0, 170, 255);stroke-width:1;" d="M 823.432, 600.933 L 824.261, 597.823 L 825.713, 595.956 L 828.201, 594.298 L 830.689, 593.468 L 834.629, 593.053 L 838.154, 593.675 L 841.472, 595.127 L 843.339, 596.993 L 844.583, 599.274 L 844.79, 601.763 L 843.753, 604.666 L 842.302, 606.325 L 839.606, 608.191 L 837.118, 608.813 L 833.8, 609.228 L 830.897, 608.813 L 827.994, 607.776 L 825.505, 605.91 L 824.054, 603.836 L 823.432, 600.933 z "/>
<path style="fill:rgb(255, 0, 0);fill-opacity:0;fill-rule:evenodd;stroke:rgb(0, 170, 255);stroke-width:1;" d="M 739.243, 566.096 L 740.28, 562.986 L 741.731, 561.12 L 744.012, 559.461 L 746.501, 558.631 L 750.441, 558.217 L 753.966, 558.839 L 757.284, 560.498 L 759.15, 562.157 L 760.394, 564.438 L 760.601, 566.926 L 759.565, 569.829 L 758.113, 571.488 L 755.417, 573.354 L 752.929, 574.184 L 749.819, 574.391 L 746.708, 574.184 L 743.805, 573.147 L 741.317, 571.073 L 739.865, 568.999 L 739.243, 566.096 z "/>
<path style="fill:rgb(0, 255, 0);fill-opacity:0;fill-rule:evenodd;stroke:rgb(0, 170, 255);stroke-width:1;" d="M 76.309, 662.934 L 84.8108, 651.322 L 100.985, 657.957 L 92.4832, 669.57 L 76.309, 662.934 z "/>
<path style="fill:rgb(0, 0, 255);fill-opacity:0;fill-rule:evenodd;stroke:rgb(0, 170, 255);stroke-width:1;" d="M 401.244, 165.474 L 404.977, 160.083 L 440.643, 175.013 L 436.91, 180.197 L 401.244, 165.474 z "/>
<path style="fill:rgb(255, 255, 0);fill-opacity:0;fill-rule:evenodd;stroke:rgb(0, 170, 255);stroke-width:1;" d="M 719.336, 247.797 L 726.179, 238.466 L 742.768, 245.308 L 735.925, 254.847 L 719.336, 247.797 z "/>
<path style="fill:rgb(255, 0, 0);fill-opacity:0;fill-rule:evenodd;stroke:rgb(0, 170, 255);stroke-width:1;" d="M 329.497, 248.626 L 336.34, 238.673 L 350.648, 244.479 L 348.782, 246.967 L 343.805, 254.432 L 329.497, 248.626 z "/>
<path style="fill:rgb(0, 255, 0);fill-opacity:0;fill-rule:evenodd;stroke:rgb(0, 170, 255);stroke-width:1;" d="M 439.813, 189.321 L 451.84, 172.525 L 460.135, 175.842 L 448.108, 192.639 L 439.813, 189.321 z "/>
<path style="fill:rgb(0, 0, 255);fill-opacity:0;fill-rule:evenodd;stroke:rgb(0, 170, 255);stroke-width:1;" d="M 472.784, 200.518 L 483.981, 185.588 L 491.032, 188.699 L 479.834, 203.421 L 472.784, 200.518 z "/>
<path style="fill:rgb(255, 255, 0);fill-opacity:0;fill-rule:evenodd;stroke:rgb(0, 170, 255);stroke-width:1;" d="M 703.992, 150.13 L 710.005, 141.835 L 721.203, 146.397 L 715.397, 154.899 L 703.992, 150.13 z "/>
<path style="fill:rgb(255, 0, 0);fill-opacity:0;fill-rule:evenodd;stroke:rgb(0, 170, 255);stroke-width:1;" d="M 715.397, 154.899 L 721.203, 146.397 L 732.608, 150.959 L 726.801, 159.461 L 715.397, 154.899 z "/>
<path style="fill:rgb(0, 255, 0);fill-opacity:0;fill-rule:evenodd;stroke:rgb(0, 170, 255);stroke-width:1;" d="M 458.683, 194.92 L 470.088, 179.782 L 475.894, 182.271 L 464.489, 197.408 L 458.683, 194.92 z "/>
<path style="fill:rgb(0, 0, 255);fill-opacity:0;fill-rule:evenodd;stroke:rgb(0, 170, 255);stroke-width:1;" d="M 255.677, 717.055 L 261.69, 708.761 L 271.436, 712.908 L 265.422, 721.203 L 255.677, 717.055 z "/>
<path style="fill:rgb(255, 255, 0);fill-opacity:0;fill-rule:evenodd;stroke:rgb(0, 170, 255);stroke-width:1;" d="M 673.51, 164.645 L 682.219, 152.825 L 688.025, 155.314 L 679.108, 167.133 L 673.51, 164.645 z "/>
<path style="fill:rgb(255, 0, 0);fill-opacity:0;fill-rule:evenodd;stroke:rgb(0, 170, 255);stroke-width:1;" d="M 0, 761.016 L 35.4588, 712.286 L 75.6869, 729.29 L 57.8538, 753.966 L 68.844, 758.528 L 51.2182, 782.789 L 0, 761.016 z "/>
<path style="fill:rgb(0, 255, 0);fill-opacity:0;fill-rule:evenodd;stroke:rgb(0, 170, 255);stroke-width:1;" d="M 17.8331, 414.515 L 24.8834, 404.977 L 27.5791, 404.147 L 32.141, 398.134 L 35.0441, 399.378 L 38.5692, 394.194 L 35.6661, 392.95 L 44.168, 381.545 L 43.3385, 379.471 L 50.5962, 369.311 L 68.4292, 376.776 L 60.9642, 387.144 L 58.0612, 387.766 L 50.3888, 398.756 L 47.6931, 397.512 L 43.7532, 403.11 L 46.2416, 404.147 L 41.887, 410.161 L 42.7164, 412.442 L 35.6661, 422.188 L 17.8331, 414.515 z "/>
</svg>