<?xml version="1.0" encoding="iso-8859-1" standalone="no"?>
<!DOCTYPE svg PUBLIC "-//W3C//DTD SVG 1.0//EN" "http://www.w3.org/TR/2001/REC-SVG-20010904/DTD/svg10.dtd">
<svg xmlns="http://www.w3.org/2000/svg" width="1014" height="800">
<path style="fill:rgb(255, 0, 0);fill-opacity:0;fill-rule:evenodd;stroke:rgb(140, 0, 255);stroke-width:1;" d="M 31.2087, 468.301 L 42.4643, 440.333 L 47.2394, 442.208 L 81.1767, 444.937 L 102.494, 391.388 L 199.019, 425.325 L 148.199, 543.168 L 147.858, 544.532 L 147.005, 547.261 L 145.47, 549.819 L 143.594, 552.206 L 142.4, 553.4 L 139.842, 555.276 L 136.943, 557.152 L 133.873, 558.516 L 130.463, 559.54 L 126.711, 560.051 L 123.3, 560.392 L 127.563, 561.415 L 121.253, 576.252 L 100.959, 571.307 L 107.099, 556.811 L 97.5485, 553.4 L 94.3082, 551.695 L 91.2385, 549.819 L 89.8742, 548.625 L 87.4867, 546.408 L 86.4634, 545.044 L 84.758, 542.315 L 83.3937, 539.586 L 83.0527, 538.052 L 68.5568, 512.982 L 66.8514, 513.153 L 59.1771, 503.603 L 70.9444, 472.053 L 31.2087, 468.301 z "/>
<path style="fill:rgb(0, 255, 0);fill-opacity:0;fill-rule:evenodd;stroke:rgb(140, 0, 255);stroke-width:1;" d="M 93.285, 773.055 L 137.966, 671.925 L 275.933, 718.823 L 210.446, 800 L 93.285, 773.055 z "/>
<path style="fill:rgb(0, 0, 255);fill-opacity:0;fill-rule:evenodd;stroke:rgb(140, 0, 255);stroke-width:1;" d="M 675.336, 307.312 L 696.312, 282.925 L 708.591, 268.258 L 729.056, 243.36 L 871.627, 337.156 L 852.526, 358.474 L 839.736, 372.628 L 820.806, 393.946 L 675.336, 307.312 z "/>
<path style="fill:rgb(255, 255, 0);fill-opacity:0;fill-rule:evenodd;stroke:rgb(140, 0, 255);stroke-width:1;" d="M 675.336, 307.312 L 696.312, 282.925 L 729.056, 303.219 L 730.42, 301.855 L 733.49, 303.731 L 741.164, 305.777 L 749.52, 298.103 L 745.427, 293.498 L 741.676, 291.281 L 743.551, 289.576 L 708.591, 268.258 L 729.056, 243.36 L 871.627, 337.156 L 852.526, 358.474 L 819.271, 337.327 L 818.077, 338.691 L 815.007, 336.815 L 806.48, 334.769 L 799.147, 341.59 L 803.752, 347.73 L 806.48, 349.265 L 804.775, 350.97 L 839.736, 372.628 L 820.806, 393.946 L 675.336, 307.312 z "/>
<path style="fill:rgb(255, 0, 0);fill-opacity:0;fill-rule:evenodd;stroke:rgb(140, 0, 255);stroke-width:1;" d="M 653.336, 431.635 L 681.134, 402.643 L 723.257, 358.303 L 808.186, 409.465 L 773.737, 446.643 L 768.109, 443.573 L 730.932, 482.626 L 653.336, 431.635 z "/>
<path style="fill:rgb(0, 255, 0);fill-opacity:0;fill-rule:evenodd;stroke:rgb(140, 0, 255);stroke-width:1;" d="M 835.984, 544.362 L 840.929, 539.757 L 853.038, 527.478 L 884.076, 497.804 L 849.797, 478.363 L 858.154, 470.006 L 861.053, 467.107 L 864.293, 463.526 L 867.875, 460.286 L 874.696, 452.952 L 922.447, 481.774 L 948.881, 497.634 L 969.687, 510.083 L 965.594, 515.029 L 962.865, 518.098 L 958.772, 522.021 L 951.951, 529.184 L 926.029, 555.276 L 930.292, 557.834 L 934.214, 560.051 L 913.579, 581.198 L 906.758, 588.531 L 883.053, 573.694 L 859.518, 559.028 L 835.984, 544.362 z "/>
<path style="fill:rgb(0, 0, 255);fill-opacity:0;fill-rule:evenodd;stroke:rgb(140, 0, 255);stroke-width:1;" d="M 652.654, 712.002 L 677.894, 664.421 L 809.55, 713.707 L 793.008, 739.459 L 785.504, 736.559 L 775.101, 752.59 L 753.613, 744.575 L 763.846, 728.715 L 746.792, 722.405 L 741.846, 729.738 L 739.117, 728.885 L 729.908, 740.141 L 729.738, 747.133 L 733.831, 746.621 L 743.893, 796.589 L 724.963, 798.806 L 717.63, 762.652 L 716.947, 759.241 L 714.901, 748.838 L 716.436, 735.195 L 712.343, 733.49 L 717.63, 721.04 L 714.73, 720.017 L 718.653, 713.878 L 694.948, 705.01 L 687.274, 716.947 L 656.406, 712.513 L 652.654, 712.002 z "/>
<path style="fill:rgb(255, 255, 0);fill-opacity:0;fill-rule:evenodd;stroke:rgb(140, 0, 255);stroke-width:1;" d="M 688.979, 649.414 L 731.614, 578.981 L 802.729, 604.05 L 798.806, 610.19 L 809.55, 613.942 L 790.62, 628.096 L 786.357, 633.724 L 797.783, 638.158 L 794.202, 644.298 L 772.032, 680.793 L 688.979, 649.414 z "/>
<path style="fill:rgb(255, 0, 0);fill-opacity:0;fill-rule:evenodd;stroke:rgb(140, 0, 255);stroke-width:1;" d="M 102.494, 391.388 L 125.176, 333.063 L 126.711, 332.211 L 226.306, 363.59 L 199.019, 425.325 L 102.494, 391.388 z "/>
<path style="fill:rgb(0, 255, 0);fill-opacity:0;fill-rule:evenodd;stroke:rgb(140, 0, 255);stroke-width:1;" d="M 307.823, 507.696 L 339.885, 462.332 L 451.247, 514.347 L 416.798, 556.981 L 307.823, 507.696 z "/>
<path style="fill:rgb(0, 0, 255);fill-opacity:0;fill-rule:evenodd;stroke:rgb(140, 0, 255);stroke-width:1;" d="M 845.022, 408.442 L 896.525, 352.505 L 970.88, 400.426 L 920.401, 453.805 L 845.022, 408.442 z "/>
<path style="fill:rgb(255, 255, 0);fill-opacity:0;fill-rule:evenodd;stroke:rgb(140, 0, 255);stroke-width:1;" d="M 32.4025, 192.198 L 55.5958, 134.897 L 56.9601, 133.873 L 57.8128, 133.703 L 152.121, 174.291 L 131.145, 228.352 L 123.129, 226.476 L 79.8124, 216.244 L 84.5875, 204.136 L 32.4025, 192.198 z "/>
<path style="fill:rgb(255, 0, 0);fill-opacity:0;fill-rule:evenodd;stroke:rgb(140, 0, 255);stroke-width:1;" d="M 414.069, 363.249 L 425.155, 349.606 L 428.736, 351.311 L 451.247, 323.854 L 445.619, 321.126 L 451.588, 313.792 L 443.914, 310.041 L 450.053, 302.537 L 454.317, 304.583 L 451.247, 308.335 L 459.092, 311.916 L 463.355, 306.8 L 506.672, 327.265 L 500.362, 334.939 L 523.726, 345.854 L 529.695, 338.521 L 544.191, 345.172 L 532.083, 360.009 L 554.423, 370.411 L 539.075, 389.341 L 516.052, 378.597 L 503.603, 393.946 L 489.959, 387.465 L 496.099, 379.962 L 470.006, 367.853 L 467.96, 370.07 L 457.216, 383.372 L 414.069, 363.249 z "/>
<path style="fill:rgb(0, 255, 0);fill-opacity:0;fill-rule:evenodd;stroke:rgb(140, 0, 255);stroke-width:1;" d="M 354.04, 701.428 L 390.194, 654.359 L 482.797, 695.63 L 458.069, 746.621 L 354.04, 701.428 z "/>
<path style="fill:rgb(0, 0, 255);fill-opacity:0;fill-rule:evenodd;stroke:rgb(140, 0, 255);stroke-width:1;" d="M 787.892, 237.902 L 819.612, 205.67 L 928.075, 258.708 L 926.881, 259.902 L 885.44, 301.855 L 787.892, 237.902 z "/>
<path style="fill:rgb(255, 255, 0);fill-opacity:0;fill-rule:evenodd;stroke:rgb(140, 0, 255);stroke-width:1;" d="M 62.0763, 119.207 L 82.3705, 66.8514 L 84.417, 67.7041 L 108.292, 77.9365 L 178.725, 108.122 L 158.431, 159.454 L 158.26, 159.966 L 68.8979, 122.277 L 69.9211, 119.207 L 62.0763, 119.207 z "/>
<path style="fill:rgb(255, 0, 0);fill-opacity:0;fill-rule:evenodd;stroke:rgb(140, 0, 255);stroke-width:1;" d="M 826.604, 701.258 L 843.658, 673.119 L 851.332, 660.499 L 832.232, 653.677 L 859.007, 624.686 L 873.332, 608.996 L 922.788, 641.569 L 876.231, 718.653 L 826.604, 701.258 z "/>
<path style="fill:rgb(0, 255, 0);fill-opacity:0;fill-rule:evenodd;stroke:rgb(140, 0, 255);stroke-width:1;" d="M 556.981, 602.686 L 590.407, 547.772 L 632.701, 562.78 L 628.267, 569.431 L 665.786, 585.973 L 668.003, 586.826 L 635.771, 636.623 L 556.981, 602.686 z "/>
<path style="fill:rgb(0, 0, 255);fill-opacity:0;fill-rule:evenodd;stroke:rgb(140, 0, 255);stroke-width:1;" d="M 590.407, 547.772 L 620.593, 501.727 L 623.151, 497.463 L 702.11, 528.672 L 702.622, 528.842 L 665.786, 585.973 L 628.267, 569.431 L 632.701, 562.78 L 590.407, 547.772 z "/>
<path style="fill:rgb(255, 255, 0);fill-opacity:0;fill-rule:evenodd;stroke:rgb(140, 0, 255);stroke-width:1;" d="M 523.897, 490.301 L 546.067, 463.185 L 572.33, 430.953 L 578.469, 423.449 L 586.655, 422.085 L 602.004, 427.542 L 612.577, 432.658 L 628.437, 441.867 L 628.779, 447.325 L 623.492, 455.169 L 600.981, 488.936 L 581.88, 517.416 L 574.035, 513.664 L 569.942, 511.789 L 567.384, 510.595 L 557.152, 505.82 L 541.292, 498.316 L 531.571, 493.882 L 529.354, 492.859 L 526.967, 491.665 L 523.897, 490.301 z "/>
<path style="fill:rgb(255, 0, 0);fill-opacity:0;fill-rule:evenodd;stroke:rgb(140, 0, 255);stroke-width:1;" d="M 415.434, 622.469 L 456.704, 573.694 L 526.796, 604.903 L 497.804, 660.158 L 415.434, 622.469 z "/>
<path style="fill:rgb(0, 255, 0);fill-opacity:0;fill-rule:evenodd;stroke:rgb(140, 0, 255);stroke-width:1;" d="M 501.897, 220.678 L 521.68, 190.663 L 559.198, 207.376 L 658.793, 251.716 L 659.987, 256.491 L 641.398, 280.537 L 524.408, 228.352 L 523.044, 230.058 L 501.897, 220.678 z "/>
<path style="fill:rgb(0, 0, 255);fill-opacity:0;fill-rule:evenodd;stroke:rgb(140, 0, 255);stroke-width:1;" d="M 416.287, 363.419 L 426.519, 350.799 L 440.162, 357.28 L 442.55, 353.869 L 448.689, 346.365 L 463.355, 328.459 L 469.665, 320.784 L 460.627, 316.521 L 466.937, 308.847 L 505.649, 327.094 L 499.51, 334.769 L 524.75, 346.706 L 530.036, 340.397 L 529.695, 340.226 L 529.354, 339.544 L 529.866, 339.203 L 530.718, 339.032 L 531.401, 339.373 L 531.571, 340.055 L 531.571, 340.226 L 540.951, 344.66 L 541.121, 344.489 L 541.974, 344.319 L 542.656, 344.66 L 542.997, 345.342 L 542.656, 345.683 L 541.633, 345.854 L 541.292, 345.683 L 536.176, 351.993 L 530.036, 359.497 L 531.23, 360.179 L 553.741, 370.582 L 539.245, 388.489 L 516.734, 377.915 L 515.37, 377.404 L 509.572, 384.566 L 509.913, 384.737 L 510.083, 385.248 L 509.742, 385.76 L 508.719, 385.931 L 508.548, 385.76 L 503.773, 391.558 L 504.114, 391.729 L 504.285, 392.411 L 503.944, 392.752 L 503.091, 392.923 L 502.238, 392.582 L 502.068, 391.899 L 502.238, 391.729 L 491.835, 386.783 L 497.634, 379.791 L 496.269, 379.109 L 469.495, 366.489 L 467.107, 369.9 L 456.704, 382.52 L 416.287, 363.419 z "/>
<path style="fill:rgb(255, 255, 0);fill-opacity:0;fill-rule:evenodd;stroke:rgb(140, 0, 255);stroke-width:1;" d="M 317.544, 251.034 L 350.288, 173.609 L 407.76, 198.508 L 374.675, 246.941 L 416.798, 263.995 L 414.069, 268.088 L 385.419, 258.708 L 375.869, 273.375 L 317.544, 251.034 z "/>
<path style="fill:rgb(255, 0, 0);fill-opacity:0;fill-rule:evenodd;stroke:rgb(140, 0, 255);stroke-width:1;" d="M 906.758, 588.531 L 913.579, 581.198 L 934.214, 560.051 L 930.292, 557.834 L 926.029, 555.276 L 951.951, 529.184 L 958.772, 522.021 L 962.865, 518.098 L 965.594, 515.029 L 969.687, 510.083 L 1014.88, 537.54 L 947.175, 612.236 L 906.758, 588.531 z "/>
<path style="fill:rgb(0, 255, 0);fill-opacity:0;fill-rule:evenodd;stroke:rgb(140, 0, 255);stroke-width:1;" d="M 271.328, 360.861 L 297.25, 301.514 L 376.551, 323.684 L 337.838, 381.838 L 271.328, 360.861 z "/>
<path style="fill:rgb(0, 0, 255);fill-opacity:0;fill-rule:evenodd;stroke:rgb(140, 0, 255);stroke-width:1;" d="M 339.885, 462.332 L 362.908, 429.93 L 477.51, 481.774 L 451.247, 514.347 L 339.885, 462.332 z "/>
<path style="fill:rgb(255, 255, 0);fill-opacity:0;fill-rule:evenodd;stroke:rgb(140, 0, 255);stroke-width:1;" d="M 478.022, 559.881 L 531.571, 493.882 L 541.292, 498.316 L 557.152, 505.82 L 567.384, 510.595 L 569.942, 511.789 L 574.035, 513.664 L 581.88, 517.416 L 544.191, 576.423 L 538.052, 585.973 L 478.022, 559.881 z "/>
<path style="fill:rgb(255, 0, 0);fill-opacity:0;fill-rule:evenodd;stroke:rgb(140, 0, 255);stroke-width:1;" d="M 762.14, 493.029 L 766.915, 488.254 L 822.682, 430.953 L 828.992, 424.302 L 875.378, 450.224 L 868.898, 456.704 L 813.132, 514.176 L 808.527, 518.951 L 762.14, 493.029 z "/>
<path style="fill:rgb(0, 255, 0);fill-opacity:0;fill-rule:evenodd;stroke:rgb(140, 0, 255);stroke-width:1;" d="M 528.331, 176.679 L 546.92, 152.462 L 691.708, 216.926 L 672.948, 241.143 L 528.331, 176.679 z "/>
<path style="fill:rgb(0, 0, 255);fill-opacity:0;fill-rule:evenodd;stroke:rgb(140, 0, 255);stroke-width:1;" d="M 214.709, 635.088 L 241.484, 599.616 L 341.761, 643.445 L 312.769, 677.894 L 214.709, 635.088 z "/>
<path style="fill:rgb(255, 255, 0);fill-opacity:0;fill-rule:evenodd;stroke:rgb(140, 0, 255);stroke-width:1;" d="M 241.484, 599.616 L 266.041, 566.873 L 368.535, 611.725 L 341.761, 643.445 L 241.484, 599.616 z "/>
<path style="fill:rgb(255, 0, 0);fill-opacity:0;fill-rule:evenodd;stroke:rgb(140, 0, 255);stroke-width:1;" d="M 619.058, 371.264 L 662.034, 321.637 L 723.257, 358.303 L 681.134, 402.643 L 619.91, 371.776 L 619.058, 371.264 z "/>
<path style="fill:rgb(0, 255, 0);fill-opacity:0;fill-rule:evenodd;stroke:rgb(140, 0, 255);stroke-width:1;" d="M 187.252, 671.413 L 214.709, 635.088 L 312.769, 677.894 L 288.553, 706.374 L 187.252, 671.413 z "/>
<path style="fill:rgb(0, 0, 255);fill-opacity:0;fill-rule:evenodd;stroke:rgb(140, 0, 255);stroke-width:1;" d="M 766.915, 488.254 L 822.682, 430.953 L 868.898, 456.704 L 813.132, 514.176 L 766.915, 488.254 z "/>
<path style="fill:rgb(255, 255, 0);fill-opacity:0;fill-rule:evenodd;stroke:rgb(140, 0, 255);stroke-width:1;" d="M 795.395, 158.26 L 830.697, 118.866 L 884.417, 146.834 L 893.285, 136.943 L 895.502, 138.137 L 893.797, 140.013 L 903.517, 145.129 L 907.44, 147.175 L 900.618, 155.191 L 868.216, 191.345 L 795.395, 158.26 z "/>
<path style="fill:rgb(255, 0, 0);fill-opacity:0;fill-rule:evenodd;stroke:rgb(140, 0, 255);stroke-width:1;" d="M 362.908, 429.93 L 374.675, 408.612 L 501.386, 450.224 L 477.51, 481.774 L 362.908, 429.93 z "/>
<path style="fill:rgb(0, 255, 0);fill-opacity:0;fill-rule:evenodd;stroke:rgb(140, 0, 255);stroke-width:1;" d="M 513.323, 710.126 L 539.586, 656.576 L 540.439, 656.918 L 593.818, 679.599 L 597.911, 681.475 L 602.515, 683.522 L 606.608, 685.227 L 597.57, 723.939 L 568.408, 718.994 L 513.323, 710.126 z "/>
<path style="fill:rgb(0, 0, 255);fill-opacity:0;fill-rule:evenodd;stroke:rgb(140, 0, 255);stroke-width:1;" d="M 390.194, 654.359 L 415.434, 622.469 L 497.804, 660.158 L 482.797, 695.63 L 390.194, 654.359 z "/>
<path style="fill:rgb(255, 255, 0);fill-opacity:0;fill-rule:evenodd;stroke:rgb(140, 0, 255);stroke-width:1;" d="M 282.243, 545.385 L 303.901, 516.393 L 305.265, 515.54 L 306.8, 515.029 L 307.653, 514.858 L 309.358, 515.029 L 335.451, 526.455 L 329.482, 534.47 L 331.187, 533.959 L 333.063, 533.959 L 333.916, 534.129 L 404.178, 564.656 L 404.69, 565.167 L 405.201, 566.191 L 405.372, 566.873 L 405.372, 567.384 L 405.031, 568.578 L 402.814, 570.966 L 391.047, 585.12 L 390.365, 585.632 L 388.489, 586.485 L 387.636, 586.655 L 375.357, 581.369 L 372.628, 584.779 L 282.243, 545.385 z "/>
<path style="fill:rgb(255, 0, 0);fill-opacity:0;fill-rule:evenodd;stroke:rgb(140, 0, 255);stroke-width:1;" d="M 750.032, 761.288 L 827.798, 760.264 L 829.844, 753.954 L 815.519, 748.668 L 812.79, 752.931 L 792.496, 745.257 L 795.737, 740.482 L 793.008, 739.459 L 809.55, 713.707 L 870.774, 736.73 L 861.053, 769.303 L 831.209, 772.202 L 811.256, 773.907 L 753.443, 774.931 L 750.032, 761.288 z "/>
<path style="fill:rgb(0, 255, 0);fill-opacity:0;fill-rule:evenodd;stroke:rgb(140, 0, 255);stroke-width:1;" d="M 530.718, 652.995 L 549.819, 615.818 L 628.267, 649.073 L 606.608, 685.227 L 602.515, 683.522 L 597.911, 681.475 L 593.818, 679.599 L 540.439, 656.918 L 539.586, 656.576 L 537.199, 655.724 L 533.788, 654.189 L 530.718, 652.995 z "/>
<path style="fill:rgb(0, 0, 255);fill-opacity:0;fill-rule:evenodd;stroke:rgb(140, 0, 255);stroke-width:1;" d="M 478.874, 757.706 L 486.719, 741.164 L 531.401, 745.768 L 529.866, 720.529 L 568.408, 718.994 L 597.57, 723.939 L 592.113, 761.117 L 580.175, 761.117 L 555.276, 761.629 L 519.804, 761.97 L 497.463, 759.582 L 485.696, 758.388 L 478.874, 757.706 z "/>
<path style="fill:rgb(255, 255, 0);fill-opacity:0;fill-rule:evenodd;stroke:rgb(140, 0, 255);stroke-width:1;" d="M 731.614, 578.981 L 752.59, 544.362 L 752.761, 544.191 L 770.667, 541.121 L 771.179, 541.121 L 822, 577.276 L 820.465, 578.64 L 825.922, 582.221 L 802.729, 604.05 L 731.614, 578.981 z "/>
<path style="fill:rgb(255, 0, 0);fill-opacity:0;fill-rule:evenodd;stroke:rgb(140, 0, 255);stroke-width:1;" d="M 219.143, 481.262 L 244.383, 421.914 L 297.591, 442.208 L 259.22, 497.293 L 219.143, 481.262 z "/>
<path style="fill:rgb(0, 255, 0);fill-opacity:0;fill-rule:evenodd;stroke:rgb(140, 0, 255);stroke-width:1;" d="M 727.35, 318.567 L 741.164, 305.777 L 749.52, 298.103 L 763.846, 284.971 L 821.488, 321.126 L 806.48, 334.769 L 799.147, 341.59 L 784.822, 354.722 L 727.35, 318.567 z "/>
<path style="fill:rgb(0, 0, 255);fill-opacity:0;fill-rule:evenodd;stroke:rgb(140, 0, 255);stroke-width:1;" d="M 623.151, 497.463 L 646.856, 462.673 L 657.6, 463.185 L 718.994, 503.944 L 702.11, 528.672 L 623.151, 497.463 z "/>
<path style="fill:rgb(255, 255, 0);fill-opacity:0;fill-rule:evenodd;stroke:rgb(140, 0, 255);stroke-width:1;" d="M 421.062, 122.618 L 422.767, 120.401 L 436.922, 101.641 L 504.796, 131.145 L 473.247, 173.097 L 429.93, 154.168 L 445.619, 133.362 L 421.062, 122.618 z "/>
<path style="fill:rgb(255, 0, 0);fill-opacity:0;fill-rule:evenodd;stroke:rgb(140, 0, 255);stroke-width:1;" d="M 442.55, 353.869 L 448.689, 346.365 L 463.355, 328.459 L 469.665, 320.784 L 499.51, 334.769 L 524.75, 346.706 L 536.176, 351.993 L 530.036, 359.497 L 515.37, 377.404 L 509.572, 384.566 L 509.06, 385.078 L 497.634, 379.791 L 496.269, 379.109 L 469.495, 366.489 L 442.55, 353.869 z "/>
<path style="fill:rgb(0, 255, 0);fill-opacity:0;fill-rule:evenodd;stroke:rgb(140, 0, 255);stroke-width:1;" d="M 678.235, 444.255 L 709.614, 411.17 L 766.745, 439.139 L 731.443, 474.611 L 678.235, 444.255 z "/>
<path style="fill:rgb(0, 0, 255);fill-opacity:0;fill-rule:evenodd;stroke:rgb(140, 0, 255);stroke-width:1;" d="M 336.133, 722.575 L 354.04, 701.428 L 458.069, 746.621 L 449.542, 765.21 L 336.133, 722.575 z "/>
<path style="fill:rgb(255, 255, 0);fill-opacity:0;fill-rule:evenodd;stroke:rgb(140, 0, 255);stroke-width:1;" d="M 350.288, 173.609 L 365.466, 137.625 L 365.977, 137.455 L 435.216, 166.446 L 431.465, 171.392 L 430.271, 170.88 L 425.155, 177.531 L 423.961, 177.02 L 407.76, 198.508 L 350.288, 173.609 z "/>
<path style="fill:rgb(255, 0, 0);fill-opacity:0;fill-rule:evenodd;stroke:rgb(140, 0, 255);stroke-width:1;" d="M 863.27, 535.323 L 864.464, 534.129 L 894.479, 503.773 L 898.231, 500.021 L 899.254, 498.998 L 909.316, 504.796 L 936.773, 520.486 L 947.005, 526.284 L 911.192, 562.609 L 863.27, 535.323 z "/>
<path style="fill:rgb(0, 255, 0);fill-opacity:0;fill-rule:evenodd;stroke:rgb(140, 0, 255);stroke-width:1;" d="M 193.051, 153.485 L 203.965, 124.153 L 205.159, 122.959 L 205.841, 122.618 L 207.376, 122.106 L 208.911, 121.936 L 210.616, 122.106 L 211.298, 122.277 L 278.32, 150.927 L 267.065, 172.586 L 265.7, 174.291 L 261.096, 172.415 L 255.638, 180.26 L 220.166, 165.594 L 193.051, 153.485 z "/>
<path style="fill:rgb(0, 0, 255);fill-opacity:0;fill-rule:evenodd;stroke:rgb(140, 0, 255);stroke-width:1;" d="M 296.397, 301.343 L 312.087, 264.336 L 372.628, 287.529 L 362.737, 302.366 L 385.589, 311.234 L 377.233, 323.854 L 376.551, 323.684 L 297.25, 301.514 L 296.397, 301.343 z "/>
<path style="fill:rgb(255, 255, 0);fill-opacity:0;fill-rule:evenodd;stroke:rgb(140, 0, 255);stroke-width:1;" d="M 637.988, 761.288 L 639.181, 753.954 L 640.887, 746.792 L 642.933, 739.8 L 644.298, 736.218 L 647.197, 729.226 L 650.437, 722.405 L 654.359, 715.754 L 656.406, 712.513 L 698.017, 720.87 L 697.847, 726.498 L 704.157, 726.668 L 703.134, 758.9 L 716.947, 759.241 L 717.63, 762.652 L 686.08, 761.97 L 637.988, 761.288 z "/>
<path style="fill:rgb(255, 0, 0);fill-opacity:0;fill-rule:evenodd;stroke:rgb(140, 0, 255);stroke-width:1;" d="M 374.675, 246.941 L 407.76, 198.508 L 440.333, 212.663 L 448.348, 216.073 L 416.798, 263.995 L 374.675, 246.941 z "/>
<path style="fill:rgb(0, 255, 0);fill-opacity:0;fill-rule:evenodd;stroke:rgb(140, 0, 255);stroke-width:1;" d="M 596.205, 399.062 L 619.91, 371.776 L 681.134, 402.643 L 653.336, 431.635 L 596.205, 399.062 z "/>
<path style="fill:rgb(0, 0, 255);fill-opacity:0;fill-rule:evenodd;stroke:rgb(140, 0, 255);stroke-width:1;" d="M 865.487, 535.152 L 899.595, 500.703 L 944.958, 526.455 L 910.851, 560.904 L 865.487, 535.152 z "/>
<path style="fill:rgb(255, 255, 0);fill-opacity:0;fill-rule:evenodd;stroke:rgb(140, 0, 255);stroke-width:1;" d="M 804.605, 524.92 L 849.797, 478.363 L 884.076, 497.804 L 853.038, 527.478 L 840.929, 539.757 L 835.984, 544.362 L 804.605, 524.92 z "/>
<path style="fill:rgb(255, 0, 0);fill-opacity:0;fill-rule:evenodd;stroke:rgb(140, 0, 255);stroke-width:1;" d="M 315.498, 554.253 L 315.839, 552.547 L 329.482, 534.47 L 331.187, 533.959 L 333.063, 533.959 L 333.916, 534.129 L 345.513, 539.586 L 404.178, 564.656 L 404.69, 565.167 L 405.201, 566.191 L 405.372, 566.873 L 405.372, 567.384 L 405.031, 568.578 L 402.814, 570.966 L 391.047, 585.12 L 390.365, 585.632 L 388.489, 586.485 L 387.636, 586.655 L 380.814, 583.927 L 373.652, 580.516 L 371.094, 583.756 L 325.048, 563.462 L 327.436, 560.222 L 316.862, 555.617 L 315.498, 554.253 z "/>
<path style="fill:rgb(0, 255, 0);fill-opacity:0;fill-rule:evenodd;stroke:rgb(140, 0, 255);stroke-width:1;" d="M 312.087, 264.336 L 317.544, 251.034 L 375.869, 273.375 L 385.419, 258.708 L 414.069, 268.088 L 385.589, 311.234 L 362.737, 302.366 L 372.628, 287.529 L 312.087, 264.336 z "/>
<path style="fill:rgb(0, 0, 255);fill-opacity:0;fill-rule:evenodd;stroke:rgb(140, 0, 255);stroke-width:1;" d="M 867.363, 534.811 L 899.766, 502.238 L 942.912, 526.796 L 910.509, 559.54 L 867.363, 534.811 z "/>
<path style="fill:rgb(255, 255, 0);fill-opacity:0;fill-rule:evenodd;stroke:rgb(140, 0, 255);stroke-width:1;" d="M 849.456, 97.8896 L 876.061, 68.3863 L 931.997, 97.378 L 915.796, 115.455 L 911.703, 113.238 L 898.06, 128.416 L 880.665, 119.548 L 894.479, 104.2 L 879.812, 96.5253 L 869.239, 108.292 L 849.456, 97.8896 z "/>
<path style="fill:rgb(255, 0, 0);fill-opacity:0;fill-rule:evenodd;stroke:rgb(140, 0, 255);stroke-width:1;" d="M 771.349, 681.987 L 772.032, 680.793 L 794.202, 644.298 L 819.953, 653.166 L 814.155, 662.886 L 843.658, 673.119 L 826.604, 701.258 L 771.349, 681.987 z "/>
<path style="fill:rgb(0, 255, 0);fill-opacity:0;fill-rule:evenodd;stroke:rgb(140, 0, 255);stroke-width:1;" d="M 256.491, 204.818 L 268.941, 186.911 L 277.467, 189.128 L 282.925, 176.679 L 267.065, 172.586 L 278.32, 150.927 L 278.661, 150.245 L 312.258, 164.741 L 313.281, 165.764 L 313.622, 166.276 L 313.963, 167.47 L 313.963, 168.152 L 313.451, 169.346 L 291.793, 215.391 L 290.94, 216.414 L 289.405, 217.438 L 288.553, 217.608 L 287.018, 217.779 L 285.653, 217.438 L 256.491, 204.818 z "/>
<path style="fill:rgb(0, 0, 255);fill-opacity:0;fill-rule:evenodd;stroke:rgb(140, 0, 255);stroke-width:1;" d="M 786.357, 633.724 L 790.62, 628.096 L 795.737, 630.313 L 818.759, 610.019 L 820.976, 611.384 L 842.123, 592.965 L 845.705, 590.237 L 873.332, 608.996 L 859.007, 624.686 L 851.332, 619.569 L 820.976, 646.174 L 807.333, 637.135 L 802.558, 641.228 L 797.783, 638.158 L 786.357, 633.724 z "/>
<path style="fill:rgb(255, 255, 0);fill-opacity:0;fill-rule:evenodd;stroke:rgb(140, 0, 255);stroke-width:1;" d="M 127.393, 314.986 L 142.4, 281.39 L 195.438, 294.863 L 180.431, 328.459 L 127.393, 314.986 z "/>
<path style="fill:rgb(255, 0, 0);fill-opacity:0;fill-rule:evenodd;stroke:rgb(140, 0, 255);stroke-width:1;" d="M 870.262, 534.641 L 900.277, 504.285 L 940.183, 526.967 L 910.168, 557.323 L 870.262, 534.641 z "/>
<path style="fill:rgb(0, 255, 0);fill-opacity:0;fill-rule:evenodd;stroke:rgb(140, 0, 255);stroke-width:1;" d="M 886.634, 192.027 L 913.579, 162.012 L 956.385, 184.182 L 927.734, 213.345 L 886.634, 192.027 z "/>
<path style="fill:rgb(0, 0, 255);fill-opacity:0;fill-rule:evenodd;stroke:rgb(140, 0, 255);stroke-width:1;" d="M 64.8049, 119.207 L 67.363, 112.044 L 70.2622, 104.711 L 73.1614, 97.0369 L 76.0605, 89.7037 L 78.7892, 82.3705 L 81.6883, 74.8668 L 84.417, 67.7041 L 108.292, 77.9365 L 104.711, 87.1456 L 98.4012, 85.7813 L 92.6029, 102.324 L 112.385, 106.587 L 115.796, 96.5253 L 129.098, 99.0834 L 118.695, 125.346 L 94.1377, 119.548 L 69.9211, 119.207 L 64.8049, 119.207 z "/>
<path style="fill:rgb(255, 255, 0);fill-opacity:0;fill-rule:evenodd;stroke:rgb(140, 0, 255);stroke-width:1;" d="M 900.618, 155.191 L 907.44, 147.175 L 903.517, 145.129 L 914.773, 132.68 L 925.517, 138.307 L 948.54, 150.245 L 957.749, 155.02 L 975.997, 164.4 L 956.385, 184.182 L 913.579, 162.012 L 900.618, 155.191 z "/>
<path style="fill:rgb(255, 0, 0);fill-opacity:0;fill-rule:evenodd;stroke:rgb(140, 0, 255);stroke-width:1;" d="M 215.05, 233.639 L 232.786, 209.252 L 284.46, 231.592 L 274.739, 254.104 L 225.624, 241.825 L 228.352, 238.243 L 215.05, 233.639 z "/>
<path style="fill:rgb(0, 255, 0);fill-opacity:0;fill-rule:evenodd;stroke:rgb(140, 0, 255);stroke-width:1;" d="M 465.231, 95.502 L 478.363, 77.9365 L 477.851, 77.7659 L 482.797, 71.2854 L 490.471, 74.6962 L 492.177, 72.4792 L 491.324, 71.9676 L 492.688, 70.4327 L 506.161, 52.5261 L 530.718, 63.4406 L 496.099, 108.975 L 465.231, 95.502 z "/>
<path style="fill:rgb(0, 0, 255);fill-opacity:0;fill-rule:evenodd;stroke:rgb(140, 0, 255);stroke-width:1;" d="M 448.689, 346.365 L 463.355, 328.459 L 530.036, 359.497 L 531.23, 360.179 L 530.377, 361.202 L 517.587, 376.892 L 516.734, 377.915 L 515.37, 377.404 L 448.689, 346.365 z "/>
<path style="fill:rgb(255, 255, 0);fill-opacity:0;fill-rule:evenodd;stroke:rgb(140, 0, 255);stroke-width:1;" d="M 547.943, 475.123 L 550.671, 471.882 L 553.4, 468.472 L 556.47, 464.549 L 570.795, 447.325 L 571.477, 446.643 L 574.035, 443.573 L 576.593, 440.503 L 577.276, 440.844 L 581.88, 443.061 L 582.733, 443.402 L 586.996, 445.449 L 601.663, 452.441 L 605.415, 454.317 L 606.267, 454.658 L 610.531, 456.704 L 611.213, 457.045 L 608.484, 460.286 L 605.585, 463.526 L 605.074, 464.379 L 591.089, 481.262 L 587.679, 485.355 L 584.95, 488.425 L 582.562, 491.494 L 577.276, 489.107 L 574.206, 487.572 L 572.159, 486.549 L 557.493, 479.557 L 555.447, 478.704 L 552.718, 477.34 L 547.943, 475.123 z "/>
<path style="fill:rgb(255, 0, 0);fill-opacity:0;fill-rule:evenodd;stroke:rgb(140, 0, 255);stroke-width:1;" d="M 407.76, 198.508 L 423.961, 177.02 L 425.155, 177.531 L 430.271, 170.88 L 431.465, 171.392 L 435.216, 166.446 L 466.084, 179.748 L 462.673, 184.353 L 467.619, 186.57 L 451.588, 211.639 L 443.573, 208.229 L 440.333, 212.663 L 407.76, 198.508 z "/>
<path style="fill:rgb(0, 255, 0);fill-opacity:0;fill-rule:evenodd;stroke:rgb(140, 0, 255);stroke-width:1;" d="M 933.191, 221.019 L 967.299, 188.616 L 999.019, 205.67 L 964.741, 237.05 L 933.191, 221.019 z "/>
<path style="fill:rgb(0, 0, 255);fill-opacity:0;fill-rule:evenodd;stroke:rgb(140, 0, 255);stroke-width:1;" d="M 552.889, 472.735 L 553.4, 468.472 L 556.47, 464.549 L 570.795, 447.325 L 571.477, 446.643 L 576.935, 444.596 L 580.345, 444.255 L 586.996, 445.449 L 601.663, 452.441 L 605.756, 456.704 L 606.438, 459.433 L 605.585, 463.526 L 605.074, 464.379 L 591.089, 481.262 L 587.679, 485.355 L 582.733, 487.401 L 578.81, 487.572 L 572.159, 486.549 L 557.493, 479.557 L 554.082, 475.805 L 552.889, 472.735 z "/>
<path style="fill:rgb(255, 255, 0);fill-opacity:0;fill-rule:evenodd;stroke:rgb(140, 0, 255);stroke-width:1;" d="M 131.315, 313.451 L 144.276, 284.289 L 191.516, 296.397 L 178.555, 325.56 L 131.315, 313.451 z "/>
<path style="fill:rgb(255, 0, 0);fill-opacity:0;fill-rule:evenodd;stroke:rgb(140, 0, 255);stroke-width:1;" d="M 273.886, 556.47 L 282.243, 545.385 L 372.628, 584.779 L 386.272, 590.748 L 377.233, 601.492 L 273.886, 556.47 z "/>
<path style="fill:rgb(0, 255, 0);fill-opacity:0;fill-rule:evenodd;stroke:rgb(140, 0, 255);stroke-width:1;" d="M 540.439, 656.918 L 555.958, 635.941 L 609.337, 658.623 L 593.818, 679.599 L 540.439, 656.918 z "/>
<path style="fill:rgb(0, 0, 255);fill-opacity:0;fill-rule:evenodd;stroke:rgb(140, 0, 255);stroke-width:1;" d="M 266.041, 566.873 L 273.886, 556.47 L 377.233, 601.492 L 368.535, 611.725 L 266.041, 566.873 z "/>
<path style="fill:rgb(255, 255, 0);fill-opacity:0;fill-rule:evenodd;stroke:rgb(140, 0, 255);stroke-width:1;" d="M 830.697, 118.866 L 849.456, 97.8896 L 869.239, 108.292 L 863.27, 114.944 L 877.936, 122.618 L 880.665, 119.548 L 898.06, 128.416 L 899.936, 129.61 L 893.285, 136.943 L 884.417, 146.834 L 830.697, 118.866 z "/>
<path style="fill:rgb(255, 0, 0);fill-opacity:0;fill-rule:evenodd;stroke:rgb(140, 0, 255);stroke-width:1;" d="M 486.719, 741.164 L 502.409, 708.25 L 513.323, 710.126 L 568.408, 718.994 L 529.866, 720.529 L 531.401, 745.768 L 486.719, 741.164 z "/>
<path style="fill:rgb(0, 255, 0);fill-opacity:0;fill-rule:evenodd;stroke:rgb(140, 0, 255);stroke-width:1;" d="M 849.797, 478.363 L 858.154, 470.006 L 861.053, 467.107 L 906.075, 492.347 L 915.967, 497.975 L 943.765, 513.494 L 958.772, 522.021 L 951.951, 529.184 L 947.005, 526.284 L 936.773, 520.486 L 909.316, 504.796 L 899.254, 498.998 L 892.091, 494.905 L 891.068, 495.928 L 887.316, 499.68 L 884.076, 497.804 L 849.797, 478.363 z "/>
<path style="fill:rgb(0, 0, 255);fill-opacity:0;fill-rule:evenodd;stroke:rgb(140, 0, 255);stroke-width:1;" d="M 199.872, 287.529 L 205.159, 275.421 L 213.174, 277.467 L 217.608, 267.235 L 263.995, 278.832 L 254.445, 301.172 L 205.67, 288.894 L 199.872, 287.529 z "/>
<path style="fill:rgb(255, 255, 0);fill-opacity:0;fill-rule:evenodd;stroke:rgb(140, 0, 255);stroke-width:1;" d="M 195.95, 311.234 L 205.67, 288.894 L 254.445, 301.172 L 244.724, 323.513 L 195.95, 311.234 z "/>
<path style="fill:rgb(255, 0, 0);fill-opacity:0;fill-rule:evenodd;stroke:rgb(140, 0, 255);stroke-width:1;" d="M 555.276, 471.541 L 558.687, 469.495 L 558.346, 468.472 L 559.198, 467.619 L 558.005, 466.255 L 559.198, 465.061 L 559.71, 463.185 L 562.95, 461.991 L 563.632, 458.41 L 567.896, 456.193 L 568.237, 453.464 L 570.284, 452.441 L 571.136, 451.077 L 573.183, 451.247 L 573.865, 450.394 L 575.4, 450.224 L 576.423, 447.154 L 578.64, 446.984 L 580.516, 446.984 L 582.221, 445.79 L 584.438, 448.007 L 586.485, 447.836 L 589.554, 449.371 L 593.477, 449.883 L 595.694, 452.441 L 598.934, 453.976 L 599.446, 455.511 L 603.198, 456.022 L 602.345, 457.728 L 603.198, 459.092 L 603.88, 460.627 L 600.469, 462.503 L 600.81, 463.696 L 599.957, 464.379 L 601.151, 465.743 L 599.957, 466.937 L 599.446, 468.813 L 596.205, 470.177 L 595.523, 473.758 L 591.26, 475.805 L 590.919, 478.533 L 588.872, 479.727 L 588.02, 481.091 L 585.803, 480.75 L 585.291, 481.603 L 583.756, 481.944 L 582.733, 485.014 L 580.345, 485.014 L 578.64, 485.184 L 576.935, 486.378 L 574.718, 483.991 L 572.671, 484.161 L 569.601, 482.626 L 565.508, 482.115 L 563.291, 479.727 L 560.222, 478.192 L 559.54, 476.657 L 555.958, 476.146 L 556.811, 474.44 L 556.129, 473.076 L 555.276, 471.541 z "/>
<path style="fill:rgb(0, 255, 0);fill-opacity:0;fill-rule:evenodd;stroke:rgb(140, 0, 255);stroke-width:1;" d="M 142.571, 281.049 L 151.268, 258.708 L 197.143, 270.134 L 202.601, 271.499 L 195.268, 288.382 L 199.531, 289.576 L 197.485, 294.521 L 187.082, 291.963 L 188.105, 289.576 L 160.478, 282.584 L 159.454, 285.142 L 143.935, 281.219 L 142.571, 281.049 z "/>
<path style="fill:rgb(0, 0, 255);fill-opacity:0;fill-rule:evenodd;stroke:rgb(140, 0, 255);stroke-width:1;" d="M 248.135, 413.046 L 255.468, 395.992 L 271.499, 401.62 L 301.172, 412.194 L 301.855, 411.341 L 315.498, 416.287 L 303.901, 432.999 L 248.135, 413.046 z "/>
<path style="fill:rgb(255, 255, 0);fill-opacity:0;fill-rule:evenodd;stroke:rgb(140, 0, 255);stroke-width:1;" d="M 382.349, 102.835 L 391.388, 80.8356 L 436.922, 101.641 L 422.767, 120.401 L 382.349, 102.835 z "/>
<path style="fill:rgb(255, 0, 0);fill-opacity:0;fill-rule:evenodd;stroke:rgb(140, 0, 255);stroke-width:1;" d="M 925.517, 138.307 L 953.656, 106.928 L 974.121, 121.424 L 948.54, 150.245 L 925.517, 138.307 z "/>
<path style="fill:rgb(0, 255, 0);fill-opacity:0;fill-rule:evenodd;stroke:rgb(140, 0, 255);stroke-width:1;" d="M 799.147, 341.59 L 806.48, 334.769 L 815.007, 336.815 L 818.077, 338.691 L 819.271, 337.327 L 852.526, 358.474 L 839.736, 372.628 L 804.775, 350.97 L 806.48, 349.265 L 803.752, 347.73 L 799.147, 341.59 z "/>
<path style="fill:rgb(0, 0, 255);fill-opacity:0;fill-rule:evenodd;stroke:rgb(140, 0, 255);stroke-width:1;" d="M 696.312, 282.925 L 708.591, 268.258 L 743.551, 289.576 L 741.676, 291.281 L 745.427, 293.498 L 749.52, 298.103 L 741.164, 305.777 L 733.49, 303.731 L 730.42, 301.855 L 729.056, 303.219 L 696.312, 282.925 z "/>
<path style="fill:rgb(255, 255, 0);fill-opacity:0;fill-rule:evenodd;stroke:rgb(140, 0, 255);stroke-width:1;" d="M 496.099, 108.975 L 530.718, 63.4406 L 531.571, 62.4174 L 546.408, 68.8979 L 547.09, 70.4327 L 547.261, 72.1381 L 533.106, 93.1145 L 531.742, 92.6029 L 525.602, 89.8742 L 507.184, 113.92 L 496.099, 108.975 z "/>
<path style="fill:rgb(255, 0, 0);fill-opacity:0;fill-rule:evenodd;stroke:rgb(140, 0, 255);stroke-width:1;" d="M 325.048, 563.462 L 327.436, 560.222 L 334.769, 550.842 L 365.636, 564.315 L 369.729, 559.028 L 384.907, 565.679 L 373.652, 580.516 L 371.094, 583.756 L 325.048, 563.462 z "/>
<path style="fill:rgb(0, 255, 0);fill-opacity:0;fill-rule:evenodd;stroke:rgb(140, 0, 255);stroke-width:1;" d="M 210.957, 500.362 L 219.143, 481.262 L 259.22, 497.293 L 247.794, 514.006 L 210.957, 500.362 z "/>
<path style="fill:rgb(0, 0, 255);fill-opacity:0;fill-rule:evenodd;stroke:rgb(140, 0, 255);stroke-width:1;" d="M 537.199, 655.724 L 552.377, 625.879 L 614.794, 651.46 L 597.911, 681.475 L 593.818, 679.599 L 609.337, 658.623 L 555.958, 635.941 L 540.439, 656.918 L 539.586, 656.576 L 537.199, 655.724 z "/>
<path style="fill:rgb(255, 255, 0);fill-opacity:0;fill-rule:evenodd;stroke:rgb(140, 0, 255);stroke-width:1;" d="M 852.014, 534.982 L 856.96, 529.866 L 864.464, 534.129 L 863.27, 535.323 L 911.192, 562.609 L 947.005, 526.284 L 951.951, 529.184 L 926.029, 555.276 L 930.292, 557.834 L 916.478, 571.648 L 852.014, 534.982 z "/>
<path style="fill:rgb(255, 0, 0);fill-opacity:0;fill-rule:evenodd;stroke:rgb(140, 0, 255);stroke-width:1;" d="M 790.62, 628.096 L 809.55, 613.942 L 798.806, 610.19 L 802.729, 604.05 L 825.922, 582.221 L 842.123, 592.965 L 820.976, 611.384 L 818.759, 610.019 L 795.737, 630.313 L 790.62, 628.096 z "/>
<path style="fill:rgb(0, 255, 0);fill-opacity:0;fill-rule:evenodd;stroke:rgb(140, 0, 255);stroke-width:1;" d="M 840.929, 539.757 L 853.038, 527.478 L 856.96, 529.866 L 852.014, 534.982 L 849.968, 537.028 L 914.432, 573.694 L 916.478, 571.648 L 930.292, 557.834 L 934.214, 560.051 L 913.579, 581.198 L 889.192, 567.214 L 864.975, 553.4 L 840.929, 539.757 z "/>
<path style="fill:rgb(0, 0, 255);fill-opacity:0;fill-rule:evenodd;stroke:rgb(140, 0, 255);stroke-width:1;" d="M 416.287, 363.419 L 426.519, 350.799 L 440.162, 357.28 L 467.107, 369.9 L 456.704, 382.52 L 416.287, 363.419 z "/>
<path style="fill:rgb(255, 255, 0);fill-opacity:0;fill-rule:evenodd;stroke:rgb(140, 0, 255);stroke-width:1;" d="M 218.29, 253.592 L 223.577, 241.313 L 225.624, 241.825 L 274.739, 254.104 L 269.282, 266.382 L 220.848, 254.274 L 218.29, 253.592 z "/>
<path style="fill:rgb(255, 0, 0);fill-opacity:0;fill-rule:evenodd;stroke:rgb(140, 0, 255);stroke-width:1;" d="M 868.216, 191.345 L 900.618, 155.191 L 913.579, 162.012 L 886.634, 192.027 L 885.781, 193.051 L 883.905, 192.027 L 879.812, 196.632 L 868.216, 191.345 z "/>
<path style="fill:rgb(0, 255, 0);fill-opacity:0;fill-rule:evenodd;stroke:rgb(140, 0, 255);stroke-width:1;" d="M 215.562, 266.724 L 220.848, 254.274 L 269.282, 266.382 L 263.995, 278.832 L 217.608, 267.235 L 215.562, 266.724 z "/>
<path style="fill:rgb(0, 0, 255);fill-opacity:0;fill-rule:evenodd;stroke:rgb(140, 0, 255);stroke-width:1;" d="M 530.718, 652.995 L 549.819, 615.818 L 628.267, 649.073 L 606.608, 685.227 L 602.515, 683.522 L 621.275, 650.266 L 550.671, 620.934 L 533.788, 654.189 L 530.718, 652.995 z "/>
<path style="fill:rgb(255, 255, 0);fill-opacity:0;fill-rule:evenodd;stroke:rgb(140, 0, 255);stroke-width:1;" d="M 151.268, 258.708 L 156.385, 246.941 L 202.26, 258.367 L 197.143, 270.134 L 151.268, 258.708 z "/>
<path style="fill:rgb(255, 0, 0);fill-opacity:0;fill-rule:evenodd;stroke:rgb(140, 0, 255);stroke-width:1;" d="M 244.383, 421.914 L 248.135, 413.046 L 303.901, 432.999 L 297.591, 442.208 L 244.383, 421.914 z "/>
<path style="fill:rgb(0, 255, 0);fill-opacity:0;fill-rule:evenodd;stroke:rgb(140, 0, 255);stroke-width:1;" d="M 515.37, 377.404 L 530.036, 359.497 L 531.23, 360.179 L 553.741, 370.582 L 539.245, 388.489 L 516.734, 377.915 L 515.37, 377.404 z "/>
<path style="fill:rgb(0, 0, 255);fill-opacity:0;fill-rule:evenodd;stroke:rgb(140, 0, 255);stroke-width:1;" d="M 533.788, 654.189 L 550.671, 620.934 L 621.275, 650.266 L 602.515, 683.522 L 597.911, 681.475 L 614.794, 651.46 L 552.377, 625.879 L 537.199, 655.724 L 533.788, 654.189 z "/>
<path style="fill:rgb(255, 255, 0);fill-opacity:0;fill-rule:evenodd;stroke:rgb(140, 0, 255);stroke-width:1;" d="M 861.053, 467.107 L 864.293, 463.526 L 962.865, 518.098 L 958.772, 522.021 L 943.765, 513.494 L 915.967, 497.975 L 906.075, 492.347 L 861.053, 467.107 z "/>
<path style="fill:rgb(255, 0, 0);fill-opacity:0;fill-rule:evenodd;stroke:rgb(140, 0, 255);stroke-width:1;" d="M 178.896, 332.381 L 183.5, 324.025 L 187.082, 325.048 L 237.391, 340.567 L 233.639, 349.265 L 178.896, 332.381 z "/>
<path style="fill:rgb(0, 255, 0);fill-opacity:0;fill-rule:evenodd;stroke:rgb(140, 0, 255);stroke-width:1;" d="M 853.038, 527.478 L 884.076, 497.804 L 887.316, 499.68 L 894.479, 503.773 L 864.464, 534.129 L 856.96, 529.866 L 853.038, 527.478 z "/>
<path style="fill:rgb(0, 0, 255);fill-opacity:0;fill-rule:evenodd;stroke:rgb(140, 0, 255);stroke-width:1;" d="M 914.773, 132.68 L 942.912, 101.13 L 953.656, 106.928 L 925.517, 138.307 L 914.773, 132.68 z "/>
<path style="fill:rgb(255, 255, 0);fill-opacity:0;fill-rule:evenodd;stroke:rgb(140, 0, 255);stroke-width:1;" d="M 867.875, 460.286 L 874.696, 452.952 L 922.447, 481.774 L 917.331, 487.913 L 867.875, 460.286 z "/>
<path style="fill:rgb(255, 0, 0);fill-opacity:0;fill-rule:evenodd;stroke:rgb(140, 0, 255);stroke-width:1;" d="M 849.797, 478.363 L 858.154, 470.006 L 895.843, 491.324 L 892.091, 494.905 L 891.068, 495.928 L 887.316, 499.68 L 884.076, 497.804 L 849.797, 478.363 z "/>
<path style="fill:rgb(0, 255, 0);fill-opacity:0;fill-rule:evenodd;stroke:rgb(140, 0, 255);stroke-width:1;" d="M 864.293, 463.526 L 867.875, 460.286 L 917.331, 487.913 L 944.106, 502.92 L 965.594, 515.029 L 962.865, 518.098 L 864.293, 463.526 z "/>
<path style="fill:rgb(0, 0, 255);fill-opacity:0;fill-rule:evenodd;stroke:rgb(140, 0, 255);stroke-width:1;" d="M 189.64, 319.079 L 193.392, 310.552 L 195.95, 311.234 L 244.724, 323.513 L 241.143, 331.87 L 189.64, 319.079 z "/>
<path style="fill:rgb(255, 255, 0);fill-opacity:0;fill-rule:evenodd;stroke:rgb(140, 0, 255);stroke-width:1;" d="M 517.587, 376.892 L 530.377, 361.202 L 551.524, 371.094 L 538.734, 386.783 L 517.587, 376.892 z "/>
<path style="fill:rgb(255, 0, 0);fill-opacity:0;fill-rule:evenodd;stroke:rgb(140, 0, 255);stroke-width:1;" d="M 904.882, 127.563 L 915.796, 115.455 L 931.997, 97.378 L 933.191, 96.0136 L 942.912, 101.13 L 914.773, 132.68 L 904.882, 127.563 z "/>
<path style="fill:rgb(0, 255, 0);fill-opacity:0;fill-rule:evenodd;stroke:rgb(140, 0, 255);stroke-width:1;" d="M 585.462, 492.518 L 593.136, 482.626 L 593.647, 480.239 L 605.244, 465.743 L 607.12, 465.231 L 618.546, 450.906 L 620.593, 452.441 L 623.492, 455.169 L 600.981, 488.936 L 588.531, 494.052 L 585.462, 492.518 z "/>
<path style="fill:rgb(0, 0, 255);fill-opacity:0;fill-rule:evenodd;stroke:rgb(140, 0, 255);stroke-width:1;" d="M 187.082, 325.048 L 189.64, 319.079 L 241.143, 331.87 L 237.391, 340.567 L 187.082, 325.048 z "/>
<path style="fill:rgb(255, 255, 0);fill-opacity:0;fill-rule:evenodd;stroke:rgb(140, 0, 255);stroke-width:1;" d="M 460.627, 316.521 L 466.937, 308.847 L 505.649, 327.094 L 499.51, 334.769 L 469.665, 320.784 L 460.627, 316.521 z "/>
<path style="fill:rgb(255, 0, 0);fill-opacity:0;fill-rule:evenodd;stroke:rgb(140, 0, 255);stroke-width:1;" d="M 255.468, 395.992 L 264.336, 375.357 L 281.902, 380.985 L 271.499, 401.62 L 255.468, 395.992 z "/>
<path style="fill:rgb(0, 255, 0);fill-opacity:0;fill-rule:evenodd;stroke:rgb(140, 0, 255);stroke-width:1;" d="M 545.214, 491.494 L 555.447, 478.704 L 557.493, 479.557 L 572.159, 486.549 L 574.206, 487.572 L 563.632, 500.362 L 556.64, 501.386 L 546.237, 496.44 L 545.214, 491.494 z "/>
<path style="fill:rgb(0, 0, 255);fill-opacity:0;fill-rule:evenodd;stroke:rgb(140, 0, 255);stroke-width:1;" d="M 948.54, 150.245 L 974.121, 121.424 L 981.965, 127.904 L 969.175, 142.23 L 957.749, 155.02 L 948.54, 150.245 z "/>
<path style="fill:rgb(255, 255, 0);fill-opacity:0;fill-rule:evenodd;stroke:rgb(140, 0, 255);stroke-width:1;" d="M 543.509, 472.735 L 546.067, 463.185 L 572.33, 430.953 L 577.958, 432.317 L 580.345, 432.999 L 568.578, 446.643 L 568.749, 448.177 L 556.299, 462.844 L 554.594, 463.185 L 545.385, 473.929 L 543.509, 472.735 z "/>
<path style="fill:rgb(255, 0, 0);fill-opacity:0;fill-rule:evenodd;stroke:rgb(140, 0, 255);stroke-width:1;" d="M 519.633, 376.551 L 530.889, 362.737 L 549.478, 371.435 L 538.222, 385.248 L 519.633, 376.551 z "/>
<path style="fill:rgb(0, 255, 0);fill-opacity:0;fill-rule:evenodd;stroke:rgb(140, 0, 255);stroke-width:1;" d="M 909.316, 504.796 L 915.967, 497.975 L 943.765, 513.494 L 936.773, 520.486 L 909.316, 504.796 z "/>
<path style="fill:rgb(0, 0, 255);fill-opacity:0;fill-rule:evenodd;stroke:rgb(140, 0, 255);stroke-width:1;" d="M 577.958, 432.317 L 586.655, 422.085 L 602.004, 427.542 L 612.577, 432.658 L 628.437, 441.867 L 620.593, 452.441 L 618.546, 450.906 L 621.786, 446.984 L 619.569, 442.72 L 606.267, 435.387 L 590.407, 428.565 L 583.245, 429.589 L 580.345, 432.999 L 577.958, 432.317 z "/>
<path style="fill:rgb(255, 255, 0);fill-opacity:0;fill-rule:evenodd;stroke:rgb(140, 0, 255);stroke-width:1;" d="M 92.6029, 102.324 L 98.4012, 85.7813 L 104.711, 87.1456 L 103.517, 91.068 L 116.819, 94.6493 L 115.796, 96.5253 L 112.385, 106.587 L 92.6029, 102.324 z "/>
<path style="fill:rgb(255, 0, 0);fill-opacity:0;fill-rule:evenodd;stroke:rgb(140, 0, 255);stroke-width:1;" d="M 883.053, 573.694 L 889.192, 567.214 L 913.579, 581.198 L 906.758, 588.531 L 883.053, 573.694 z "/>
<path style="fill:rgb(0, 255, 0);fill-opacity:0;fill-rule:evenodd;stroke:rgb(140, 0, 255);stroke-width:1;" d="M 574.035, 513.664 L 588.531, 494.052 L 600.981, 488.936 L 581.88, 517.416 L 574.035, 513.664 z "/>
<path style="fill:rgb(0, 0, 255);fill-opacity:0;fill-rule:evenodd;stroke:rgb(140, 0, 255);stroke-width:1;" d="M 917.331, 487.913 L 922.447, 481.774 L 948.881, 497.634 L 944.106, 502.92 L 917.331, 487.913 z "/>
<path style="fill:rgb(255, 255, 0);fill-opacity:0;fill-rule:evenodd;stroke:rgb(140, 0, 255);stroke-width:1;" d="M 540.269, 492.006 L 552.718, 477.34 L 555.447, 478.704 L 545.214, 491.494 L 546.237, 496.44 L 556.64, 501.386 L 563.632, 500.362 L 574.206, 487.572 L 577.276, 489.107 L 564.997, 503.773 L 557.152, 505.82 L 541.292, 498.316 L 540.269, 492.006 z "/>
<path style="fill:rgb(255, 0, 0);fill-opacity:0;fill-rule:evenodd;stroke:rgb(140, 0, 255);stroke-width:1;" d="M 859.518, 559.028 L 864.975, 553.4 L 889.192, 567.214 L 883.053, 573.694 L 859.518, 559.028 z "/>
<path style="fill:rgb(0, 255, 0);fill-opacity:0;fill-rule:evenodd;stroke:rgb(140, 0, 255);stroke-width:1;" d="M 507.184, 113.92 L 525.602, 89.8742 L 531.742, 92.6029 L 515.029, 117.331 L 507.184, 113.92 z "/>
<path style="fill:rgb(0, 0, 255);fill-opacity:0;fill-rule:evenodd;stroke:rgb(140, 0, 255);stroke-width:1;" d="M 580.345, 432.999 L 583.245, 429.589 L 590.407, 428.565 L 606.267, 435.387 L 619.569, 442.72 L 621.786, 446.984 L 618.546, 450.906 L 617.352, 448.007 L 607.291, 442.038 L 596.205, 436.751 L 584.779, 432.488 L 580.345, 432.999 z "/>
<path style="fill:rgb(255, 255, 0);fill-opacity:0;fill-rule:evenodd;stroke:rgb(140, 0, 255);stroke-width:1;" d="M 849.968, 537.028 L 852.014, 534.982 L 916.478, 571.648 L 914.432, 573.694 L 849.968, 537.028 z "/>
<path style="fill:rgb(255, 0, 0);fill-opacity:0;fill-rule:evenodd;stroke:rgb(140, 0, 255);stroke-width:1;" d="M 835.984, 544.362 L 840.929, 539.757 L 864.975, 553.4 L 859.518, 559.028 L 835.984, 544.362 z "/>
<path style="fill:rgb(0, 255, 0);fill-opacity:0;fill-rule:evenodd;stroke:rgb(140, 0, 255);stroke-width:1;" d="M 893.797, 140.013 L 895.502, 138.137 L 904.882, 127.563 L 914.773, 132.68 L 903.517, 145.129 L 893.797, 140.013 z "/>
<path style="fill:rgb(0, 0, 255);fill-opacity:0;fill-rule:evenodd;stroke:rgb(140, 0, 255);stroke-width:1;" d="M 944.106, 502.92 L 948.881, 497.634 L 969.687, 510.083 L 965.594, 515.029 L 944.106, 502.92 z "/>
<path style="fill:rgb(255, 255, 0);fill-opacity:0;fill-rule:evenodd;stroke:rgb(140, 0, 255);stroke-width:1;" d="M 582.733, 443.402 L 586.826, 438.627 L 595.523, 442.208 L 601.322, 445.108 L 609.337, 449.371 L 605.415, 454.317 L 601.663, 452.441 L 586.996, 445.449 L 582.733, 443.402 z "/>
<path style="fill:rgb(255, 0, 0);fill-opacity:0;fill-rule:evenodd;stroke:rgb(140, 0, 255);stroke-width:1;" d="M 557.152, 505.82 L 564.997, 503.773 L 577.276, 489.107 L 582.562, 491.494 L 580.516, 494.052 L 567.384, 510.595 L 557.152, 505.82 z "/>
<path style="fill:rgb(0, 255, 0);fill-opacity:0;fill-rule:evenodd;stroke:rgb(140, 0, 255);stroke-width:1;" d="M 531.571, 493.882 L 544.873, 478.704 L 547.943, 475.123 L 552.718, 477.34 L 540.269, 492.006 L 541.292, 498.316 L 531.571, 493.882 z "/>
<path style="fill:rgb(0, 0, 255);fill-opacity:0;fill-rule:evenodd;stroke:rgb(140, 0, 255);stroke-width:1;" d="M 62.0763, 119.207 L 64.9755, 111.703 L 67.8747, 104.2 L 70.7738, 96.6958 L 73.673, 89.1921 L 76.5722, 81.6883 L 79.4713, 74.1846 L 82.3705, 66.8514 L 84.417, 67.7041 L 81.6883, 74.8668 L 78.7892, 82.3705 L 76.0605, 89.7037 L 73.1614, 97.0369 L 70.2622, 104.711 L 67.363, 112.044 L 64.8049, 119.207 L 62.0763, 119.207 z "/>
<path style="fill:rgb(255, 255, 0);fill-opacity:0;fill-rule:evenodd;stroke:rgb(140, 0, 255);stroke-width:1;" d="M 526.796, 372.97 L 529.866, 369.388 L 535.664, 368.194 L 540.951, 370.582 L 542.145, 375.187 L 539.245, 378.768 L 533.447, 379.962 L 528.16, 377.404 L 526.796, 372.97 z "/>
<path style="fill:rgb(255, 0, 0);fill-opacity:0;fill-rule:evenodd;stroke:rgb(140, 0, 255);stroke-width:1;" d="M 440.162, 357.28 L 442.55, 353.869 L 469.495, 366.489 L 467.107, 369.9 L 440.162, 357.28 z "/>
<path style="fill:rgb(0, 255, 0);fill-opacity:0;fill-rule:evenodd;stroke:rgb(140, 0, 255);stroke-width:1;" d="M 523.897, 490.301 L 546.067, 463.185 L 543.509, 472.735 L 526.967, 491.665 L 523.897, 490.301 z "/>
<path style="fill:rgb(0, 0, 255);fill-opacity:0;fill-rule:evenodd;stroke:rgb(140, 0, 255);stroke-width:1;" d="M 896.696, 531.742 L 904.029, 524.408 L 913.579, 529.866 L 906.417, 537.199 L 896.696, 531.742 z "/>
<path style="fill:rgb(255, 255, 0);fill-opacity:0;fill-rule:evenodd;stroke:rgb(140, 0, 255);stroke-width:1;" d="M 491.835, 386.783 L 497.634, 379.791 L 509.06, 385.078 L 508.548, 385.76 L 503.773, 391.558 L 503.262, 392.24 L 502.238, 391.729 L 491.835, 386.783 z "/>
<path style="fill:rgb(255, 0, 0);fill-opacity:0;fill-rule:evenodd;stroke:rgb(140, 0, 255);stroke-width:1;" d="M 524.75, 346.706 L 530.036, 340.397 L 530.548, 339.714 L 531.571, 340.226 L 540.951, 344.66 L 541.803, 345.001 L 541.292, 345.683 L 536.176, 351.993 L 524.75, 346.706 z "/>
<path style="fill:rgb(0, 255, 0);fill-opacity:0;fill-rule:evenodd;stroke:rgb(140, 0, 255);stroke-width:1;" d="M 899.254, 498.998 L 906.075, 492.347 L 915.967, 497.975 L 909.316, 504.796 L 899.254, 498.998 z "/>
<path style="fill:rgb(0, 0, 255);fill-opacity:0;fill-rule:evenodd;stroke:rgb(140, 0, 255);stroke-width:1;" d="M 586.826, 438.627 L 596.205, 436.751 L 607.291, 442.038 L 609.337, 449.371 L 601.322, 445.108 L 595.523, 442.208 L 586.826, 438.627 z "/>
<path style="fill:rgb(255, 255, 0);fill-opacity:0;fill-rule:evenodd;stroke:rgb(140, 0, 255);stroke-width:1;" d="M 569.942, 511.789 L 585.462, 492.518 L 588.531, 494.052 L 574.035, 513.664 L 569.942, 511.789 z "/>
<path style="fill:rgb(255, 0, 0);fill-opacity:0;fill-rule:evenodd;stroke:rgb(140, 0, 255);stroke-width:1;" d="M 64.9755, 111.703 L 67.8747, 104.2 L 70.7738, 96.6958 L 73.673, 89.1921 L 76.5722, 81.6883 L 79.4713, 74.1846 L 81.6883, 74.8668 L 78.7892, 82.3705 L 76.0605, 89.7037 L 73.1614, 97.0369 L 70.2622, 104.711 L 67.363, 112.044 L 64.9755, 111.703 z "/>
<path style="fill:rgb(0, 255, 0);fill-opacity:0;fill-rule:evenodd;stroke:rgb(140, 0, 255);stroke-width:1;" d="M 577.276, 440.844 L 584.779, 432.488 L 596.205, 436.751 L 586.826, 438.627 L 582.733, 443.402 L 581.88, 443.061 L 577.276, 440.844 z "/>
<path style="fill:rgb(0, 0, 255);fill-opacity:0;fill-rule:evenodd;stroke:rgb(140, 0, 255);stroke-width:1;" d="M 605.415, 454.317 L 609.337, 449.371 L 607.291, 442.038 L 617.352, 448.007 L 610.531, 456.704 L 606.267, 454.658 L 605.415, 454.317 z "/>
<path style="fill:rgb(255, 255, 0);fill-opacity:0;fill-rule:evenodd;stroke:rgb(140, 0, 255);stroke-width:1;" d="M 553.741, 471.371 L 554.082, 469.154 L 571.989, 446.984 L 575.4, 445.96 L 578.64, 446.984 L 576.423, 447.154 L 575.4, 450.224 L 573.865, 450.394 L 573.183, 451.247 L 571.136, 451.077 L 570.284, 452.441 L 568.237, 453.464 L 567.896, 456.193 L 563.632, 458.41 L 562.95, 461.991 L 559.71, 463.185 L 559.198, 465.061 L 558.005, 466.255 L 559.198, 467.619 L 558.346, 468.472 L 558.687, 469.495 L 555.276, 471.541 L 556.129, 473.076 L 553.741, 471.371 z "/>
<path style="fill:rgb(255, 0, 0);fill-opacity:0;fill-rule:evenodd;stroke:rgb(140, 0, 255);stroke-width:1;" d="M 580.345, 485.014 L 582.733, 485.014 L 583.756, 481.944 L 585.291, 481.603 L 585.803, 480.75 L 588.02, 481.091 L 588.872, 479.727 L 590.919, 478.533 L 591.26, 475.805 L 595.523, 473.758 L 596.205, 470.177 L 599.446, 468.813 L 599.957, 466.937 L 601.151, 465.743 L 599.957, 464.379 L 600.81, 463.696 L 600.469, 462.503 L 603.88, 460.627 L 603.198, 459.092 L 605.244, 460.797 L 604.903, 463.526 L 587.167, 484.673 L 583.586, 486.208 L 580.345, 485.014 z "/>
<path style="fill:rgb(0, 255, 0);fill-opacity:0;fill-rule:evenodd;stroke:rgb(140, 0, 255);stroke-width:1;" d="M 567.384, 510.595 L 580.516, 494.052 L 585.462, 492.518 L 569.942, 511.789 L 567.384, 510.595 z "/>
<path style="fill:rgb(0, 0, 255);fill-opacity:0;fill-rule:evenodd;stroke:rgb(140, 0, 255);stroke-width:1;" d="M 572.33, 430.953 L 578.469, 423.449 L 586.655, 422.085 L 577.958, 432.317 L 572.33, 430.953 z "/>
<path style="fill:rgb(255, 255, 0);fill-opacity:0;fill-rule:evenodd;stroke:rgb(140, 0, 255);stroke-width:1;" d="M 526.967, 491.665 L 543.509, 472.735 L 545.385, 473.929 L 529.354, 492.859 L 526.967, 491.665 z "/>
<path style="fill:rgb(255, 0, 0);fill-opacity:0;fill-rule:evenodd;stroke:rgb(140, 0, 255);stroke-width:1;" d="M 529.354, 492.859 L 545.385, 473.929 L 544.873, 478.704 L 531.571, 493.882 L 529.354, 492.859 z "/>
<path style="fill:rgb(0, 255, 0);fill-opacity:0;fill-rule:evenodd;stroke:rgb(140, 0, 255);stroke-width:1;" d="M 900.277, 530.718 L 900.618, 529.354 L 901.471, 528.331 L 903.006, 527.478 L 904.541, 527.137 L 906.246, 527.137 L 907.781, 527.649 L 909.145, 528.672 L 909.827, 529.695 L 909.998, 531.059 L 909.657, 532.253 L 908.804, 533.447 L 907.44, 534.129 L 905.905, 534.47 L 904.37, 534.47 L 902.665, 533.959 L 901.3, 533.106 L 900.448, 531.912 L 900.277, 530.718 z "/>
<path style="fill:rgb(0, 0, 255);fill-opacity:0;fill-rule:evenodd;stroke:rgb(140, 0, 255);stroke-width:1;" d="M 568.578, 446.643 L 580.345, 432.999 L 584.779, 432.488 L 577.276, 440.844 L 576.593, 440.503 L 574.035, 443.573 L 571.477, 446.643 L 570.795, 447.325 L 568.749, 448.177 L 568.578, 446.643 z "/>
<path style="fill:rgb(255, 255, 0);fill-opacity:0;fill-rule:evenodd;stroke:rgb(140, 0, 255);stroke-width:1;" d="M 605.074, 464.379 L 605.585, 463.526 L 611.213, 457.045 L 610.531, 456.704 L 617.352, 448.007 L 618.546, 450.906 L 607.12, 465.231 L 605.244, 465.743 L 605.074, 464.379 z "/>
<path style="fill:rgb(255, 0, 0);fill-opacity:0;fill-rule:evenodd;stroke:rgb(140, 0, 255);stroke-width:1;" d="M 0, 272.181 L 27.6274, 204.136 L 79.8124, 216.244 L 123.129, 226.476 L 105.734, 269.452 L 115.796, 271.84 L 104.029, 301.002 L 86.8045, 297.762 L 0, 272.181 z "/>
<path style="fill:rgb(0, 255, 0);fill-opacity:0;fill-rule:evenodd;stroke:rgb(140, 0, 255);stroke-width:1;" d="M 625.879, 65.9987 L 677.553, 0 L 803.24, 57.1307 L 755.319, 118.184 L 751.567, 123.129 L 625.879, 65.9987 z "/>
<path style="fill:rgb(0, 0, 255);fill-opacity:0;fill-rule:evenodd;stroke:rgb(140, 0, 255);stroke-width:1;" d="M 218.461, 81.6883 L 242.677, 20.2942 L 349.435, 65.6576 L 335.11, 109.998 L 218.461, 81.6883 z "/>
<path style="fill:rgb(255, 255, 0);fill-opacity:0;fill-rule:evenodd;stroke:rgb(140, 0, 255);stroke-width:1;" d="M 440.503, 84.5875 L 453.805, 67.1925 L 454.828, 67.7041 L 463.014, 56.7896 L 455.681, 53.5493 L 468.983, 36.1543 L 506.161, 52.5261 L 492.688, 70.4327 L 485.867, 67.363 L 482.797, 71.2854 L 477.851, 77.7659 L 478.363, 77.9365 L 465.231, 95.502 L 440.503, 84.5875 z "/>
<path style="fill:rgb(255, 0, 0);fill-opacity:0;fill-rule:evenodd;stroke:rgb(140, 0, 255);stroke-width:1;" d="M 417.651, 74.5257 L 428.565, 55.5958 L 435.728, 58.6655 L 443.402, 48.4332 L 432.317, 43.6581 L 445.619, 25.922 L 468.983, 36.1543 L 455.681, 53.5493 L 448.007, 50.3091 L 446.131, 52.8672 L 450.906, 54.9137 L 444.596, 63.0996 L 453.805, 67.1925 L 440.503, 84.5875 L 417.651, 74.5257 z "/>
<path style="fill:rgb(0, 255, 0);fill-opacity:0;fill-rule:evenodd;stroke:rgb(140, 0, 255);stroke-width:1;" d="M 864.293, 463.526 L 867.875, 460.286 L 917.331, 487.913 L 944.106, 502.92 L 965.594, 515.029 L 962.865, 518.098 L 864.293, 463.526 z "/>
<path style="fill:rgb(0, 0, 255);fill-opacity:0;fill-rule:evenodd;stroke:rgb(140, 0, 255);stroke-width:1;" d="M 944.106, 502.92 L 948.881, 497.634 L 969.687, 510.083 L 965.594, 515.029 L 944.106, 502.92 z "/>
</svg>