<?xml version="1.0" encoding="iso-8859-1" standalone="no"?>
<!DOCTYPE svg PUBLIC "-//W3C//DTD SVG 1.0//EN" "http://www.w3.org/TR/2001/REC-SVG-20010904/DTD/svg10.dtd">
<svg xmlns="http://www.w3.org/2000/svg" width="1138" height="800">
<path style="fill:rgb(255, 0, 0);fill-opacity:0;fill-rule:evenodd;stroke:rgb(0, 150, 255);stroke-width:1;" d="M 870.094, 639.607 L 932.499, 553.956 L 1138.67, 640.679 L 1076.44, 726.33 L 870.094, 639.607 z "/>
<path style="fill:rgb(0, 255, 0);fill-opacity:0;fill-rule:evenodd;stroke:rgb(0, 150, 255);stroke-width:1;" d="M 705.945, 422.888 L 736.165, 380.867 L 734.198, 380.152 L 760.125, 339.741 L 793.026, 353.33 L 841.484, 373.536 L 823.067, 398.927 L 753.688, 370.139 L 749.933, 375.324 L 757.443, 378.364 L 744.39, 396.603 L 736.88, 393.563 L 733.304, 398.391 L 738.668, 400.536 L 738.131, 401.073 L 848.994, 447.206 L 850.067, 445.597 L 862.584, 450.782 L 861.332, 452.57 L 911.936, 473.491 L 893.339, 499.419 L 842.557, 478.498 L 841.842, 479.571 L 829.325, 474.385 L 830.398, 472.955 L 718.999, 426.464 L 717.926, 427.895 L 705.945, 422.888 z "/>
<path style="fill:rgb(0, 0, 255);fill-opacity:0;fill-rule:evenodd;stroke:rgb(0, 150, 255);stroke-width:1;" d="M 298.614, 536.612 L 336.522, 482.968 L 453.464, 616.182 L 420.384, 632.991 L 426.285, 639.785 L 406.08, 650.156 L 351.721, 588.288 L 359.589, 584.175 L 328.654, 548.949 L 298.614, 536.612 z "/>
<path style="fill:rgb(255, 255, 0);fill-opacity:0;fill-rule:evenodd;stroke:rgb(0, 150, 255);stroke-width:1;" d="M 541.082, 214.215 L 591.685, 191.149 L 593.831, 193.831 L 606.527, 187.751 L 606.527, 184.354 L 602.056, 184.354 L 601.341, 152.526 L 623.871, 152.347 L 624.408, 184.175 L 619.937, 184.175 L 620.116, 187.93 L 632.812, 193.116 L 634.779, 190.255 L 679.303, 209.209 L 697.005, 185.248 L 723.111, 196.334 L 664.283, 276.442 L 637.997, 265.177 L 667.68, 224.765 L 623.335, 205.99 L 625.302, 203.308 L 623.871, 202.593 L 620.831, 201.52 L 617.613, 200.983 L 615.825, 200.805 L 612.606, 200.626 L 609.209, 200.983 L 607.599, 201.341 L 604.56, 202.235 L 601.52, 203.487 L 603.666, 206.348 L 553.241, 229.414 L 541.082, 214.215 z "/>
<path style="fill:rgb(255, 0, 0);fill-opacity:0;fill-rule:evenodd;stroke:rgb(0, 150, 255);stroke-width:1;" d="M 254.448, 303.442 L 272.329, 278.766 L 281.627, 282.7 L 283.415, 280.197 L 353.152, 309.522 L 311.667, 366.562 L 260.527, 310.773 L 263.031, 307.197 L 254.448, 303.442 z "/>
<path style="fill:rgb(0, 255, 0);fill-opacity:0;fill-rule:evenodd;stroke:rgb(0, 150, 255);stroke-width:1;" d="M 110.148, 333.661 L 172.374, 300.581 L 219.043, 351.185 L 175.414, 363.701 L 181.672, 366.384 L 169.334, 383.192 L 163.433, 380.867 L 161.645, 379.973 L 165.579, 373.715 L 163.791, 373 L 164.327, 372.642 L 132.499, 357.979 L 110.148, 333.661 z "/>
<path style="fill:rgb(0, 0, 255);fill-opacity:0;fill-rule:evenodd;stroke:rgb(0, 150, 255);stroke-width:1;" d="M 112.83, 443.272 L 122.664, 429.683 L 131.068, 433.08 L 131.784, 432.186 L 140.367, 435.941 L 143.406, 434.868 L 147.698, 429.146 L 146.983, 426.643 L 138.4, 423.067 L 139.294, 421.994 L 130.711, 418.418 L 138.578, 407.868 L 146.983, 411.444 L 148.055, 409.835 L 156.638, 413.411 L 160.036, 412.338 L 165.758, 404.649 L 150.738, 398.391 L 163.433, 380.867 L 169.334, 383.192 L 211.533, 401.073 L 164.864, 465.087 L 112.83, 443.272 z "/>
<path style="fill:rgb(255, 255, 0);fill-opacity:0;fill-rule:evenodd;stroke:rgb(0, 150, 255);stroke-width:1;" d="M 818.596, 710.416 L 851.319, 665.534 L 907.465, 689.137 L 886.723, 717.568 L 883.147, 722.396 L 844.703, 741.171 L 818.596, 710.416 z "/>
<path style="fill:rgb(255, 0, 0);fill-opacity:0;fill-rule:evenodd;stroke:rgb(0, 150, 255);stroke-width:1;" d="M 516.942, 334.734 L 567.546, 311.489 L 569.513, 314.171 L 582.387, 308.27 L 582.208, 304.694 L 577.738, 304.873 L 577.38, 284.488 L 554.493, 284.846 L 554.314, 273.223 L 599.553, 272.687 L 599.732, 279.66 L 600.268, 304.515 L 595.798, 304.694 L 595.798, 308.27 L 608.672, 313.456 L 610.639, 310.773 L 662.316, 332.767 L 650.872, 348.324 L 599.195, 326.33 L 600.983, 323.648 L 599.553, 323.111 L 596.513, 322.038 L 593.295, 321.323 L 590.97, 321.144 L 588.288, 321.144 L 585.069, 321.502 L 583.46, 321.86 L 580.241, 322.754 L 578.811, 323.29 L 577.38, 324.005 L 579.526, 326.688 L 528.923, 349.933 L 516.942, 334.734 z "/>
<path style="fill:rgb(0, 255, 0);fill-opacity:0;fill-rule:evenodd;stroke:rgb(0, 150, 255);stroke-width:1;" d="M 544.837, 544.122 L 597.944, 517.479 L 633.527, 558.248 L 601.52, 574.162 L 608.851, 582.387 L 599.553, 587.036 L 606.348, 594.725 L 598.659, 598.659 L 594.367, 600.805 L 544.837, 544.122 z "/>
<path style="fill:rgb(0, 0, 255);fill-opacity:0;fill-rule:evenodd;stroke:rgb(0, 150, 255);stroke-width:1;" d="M 828.967, 199.017 L 844.345, 192.222 L 844.882, 192.937 L 875.995, 178.811 L 877.783, 180.778 L 895.664, 172.731 L 895.664, 169.87 L 891.194, 170.049 L 890.121, 137.684 L 912.83, 137.327 L 913.903, 169.334 L 908.896, 169.513 L 909.075, 172.91 L 922.307, 178.632 L 924.452, 175.771 L 962.539, 192.222 L 963.254, 190.97 L 977.559, 197.05 L 964.685, 214.215 L 949.844, 207.957 L 950.559, 206.884 L 913.724, 190.97 L 915.691, 188.467 L 913.903, 187.751 L 910.684, 186.679 L 907.465, 185.963 L 904.068, 185.785 L 900.671, 185.963 L 897.273, 186.5 L 894.233, 187.573 L 891.015, 188.824 L 893.339, 191.685 L 856.325, 208.494 L 857.219, 209.388 L 842.378, 216.182 L 828.967, 199.017 z "/>
<path style="fill:rgb(255, 255, 0);fill-opacity:0;fill-rule:evenodd;stroke:rgb(0, 150, 255);stroke-width:1;" d="M 862.763, 339.025 L 913.366, 315.959 L 915.512, 318.641 L 928.207, 312.561 L 928.207, 309.164 L 923.737, 309.343 L 923.022, 277.336 L 945.552, 277.157 L 946.089, 308.985 L 941.618, 308.985 L 941.797, 312.74 L 954.493, 317.926 L 956.46, 315.244 L 1008.31, 337.059 L 996.692, 352.615 L 945.016, 330.8 L 946.983, 328.118 L 945.552, 327.582 L 942.691, 326.509 L 940.903, 326.151 L 937.684, 325.615 L 934.287, 325.615 L 932.678, 325.615 L 929.28, 326.151 L 926.241, 327.224 L 924.631, 327.76 L 923.38, 328.476 L 925.525, 331.158 L 874.922, 354.403 L 862.763, 339.025 z "/>
<path style="fill:rgb(255, 0, 0);fill-opacity:0;fill-rule:evenodd;stroke:rgb(0, 150, 255);stroke-width:1;" d="M 56.3254, 419.49 L 66.5177, 405.543 L 71.3456, 407.689 L 102.816, 364.417 L 122.664, 372.821 L 111.399, 388.377 L 108.002, 386.947 L 104.962, 391.238 L 115.691, 395.709 L 119.267, 397.139 L 122.307, 393.026 L 119.446, 391.775 L 130.711, 376.218 L 150.201, 384.265 L 118.552, 427.895 L 122.664, 429.683 L 112.83, 443.272 L 88.5114, 433.08 L 104.426, 411.265 L 106.214, 410.55 L 107.823, 411.265 L 110.148, 408.225 L 96.9155, 402.682 L 94.2333, 406.437 L 97.0943, 407.689 L 80.8225, 429.861 L 56.3254, 419.49 z "/>
<path style="fill:rgb(0, 255, 0);fill-opacity:0;fill-rule:evenodd;stroke:rgb(0, 150, 255);stroke-width:1;" d="M 285.561, 574.877 L 310.058, 569.334 L 315.601, 583.281 L 314.171, 583.639 L 321.502, 602.056 L 324.542, 601.341 L 341.529, 644.077 L 337.059, 644.971 L 344.747, 664.461 L 345.82, 664.283 L 351.363, 678.23 L 326.688, 683.773 L 315.959, 656.772 L 312.74, 657.488 L 305.588, 639.428 L 310.773, 638.176 L 303.263, 619.58 L 300.224, 620.295 L 293.071, 602.414 L 296.29, 601.699 L 285.561, 574.877 z "/>
<path style="fill:rgb(0, 0, 255);fill-opacity:0;fill-rule:evenodd;stroke:rgb(0, 150, 255);stroke-width:1;" d="M 201.52, 691.104 L 225.302, 685.74 L 230.487, 699.329 L 229.414, 699.687 L 236.567, 718.283 L 239.964, 717.389 L 256.415, 760.125 L 252.302, 761.198 L 259.991, 781.225 L 261.422, 780.867 L 266.607, 794.636 L 242.289, 800 L 231.918, 772.642 L 228.342, 773.536 L 221.368, 755.476 L 225.123, 754.582 L 217.792, 735.628 L 214.037, 736.522 L 207.063, 718.283 L 211.712, 717.211 L 201.52, 691.104 z "/>
<path style="fill:rgb(255, 255, 0);fill-opacity:0;fill-rule:evenodd;stroke:rgb(0, 150, 255);stroke-width:1;" d="M 44.5239, 74.2065 L 50.2459, 66.5177 L 66.8753, 43.6299 L 123.38, 67.2329 L 85.6504, 119.267 L 44.5239, 74.2065 z "/>
<path style="fill:rgb(255, 0, 0);fill-opacity:0;fill-rule:evenodd;stroke:rgb(0, 150, 255);stroke-width:1;" d="M 368.708, 731.515 L 403.755, 724.005 L 402.861, 721.502 L 427.358, 716.316 L 428.073, 718.462 L 452.928, 713.277 L 451.855, 710.416 L 475.995, 705.23 L 477.246, 708.449 L 512.472, 700.939 L 518.909, 718.999 L 500.849, 722.754 L 500.492, 721.681 L 474.743, 727.224 L 475.816, 730.264 L 420.742, 742.065 L 419.669, 739.383 L 393.205, 744.926 L 393.742, 746.536 L 378.364, 749.754 L 375.682, 750.291 L 368.708, 731.515 z "/>
<path style="fill:rgb(0, 255, 0);fill-opacity:0;fill-rule:evenodd;stroke:rgb(0, 150, 255);stroke-width:1;" d="M 42.9146, 531.962 L 74.743, 488.333 L 82.7895, 487.617 L 118.373, 502.459 L 133.214, 508.717 L 100.134, 554.314 L 91.1936, 550.559 L 98.8824, 540.009 L 99.4189, 537.148 L 93.3393, 534.645 L 90.8359, 535.36 L 89.0478, 537.506 L 91.0148, 538.221 L 84.2199, 547.519 L 59.3652, 537.148 L 58.4712, 538.578 L 42.9146, 531.962 z M 74.3853, 516.764 L 88.6902, 522.843 L 97.0943, 511.399 L 82.6106, 505.32 L 74.3853, 516.764 z "/>
<path style="fill:rgb(0, 0, 255);fill-opacity:0;fill-rule:evenodd;stroke:rgb(0, 150, 255);stroke-width:1;" d="M 542.512, 630.845 L 565.758, 619.043 L 558.963, 611.176 L 583.996, 598.659 L 586.857, 597.228 L 623.156, 638.713 L 595.083, 652.839 L 588.646, 645.507 L 565.579, 657.309 L 542.512, 630.845 z "/>
<path style="fill:rgb(255, 255, 0);fill-opacity:0;fill-rule:evenodd;stroke:rgb(0, 150, 255);stroke-width:1;" d="M 598.659, 695.217 L 643.183, 672.865 L 653.017, 667.859 L 661.243, 677.336 L 679.481, 698.435 L 671.614, 702.548 L 659.991, 708.449 L 661.958, 710.773 L 661.779, 713.277 L 658.203, 715.065 L 657.845, 716.853 L 642.289, 724.721 L 637.997, 719.714 L 625.302, 726.33 L 598.659, 695.217 z "/>
<path style="fill:rgb(255, 0, 0);fill-opacity:0;fill-rule:evenodd;stroke:rgb(0, 150, 255);stroke-width:1;" d="M 598.659, 598.659 L 606.348, 594.725 L 647.295, 574.162 L 678.051, 609.388 L 625.123, 636.03 L 614.752, 624.229 L 619.043, 622.083 L 598.659, 598.659 z "/>
<path style="fill:rgb(0, 255, 0);fill-opacity:0;fill-rule:evenodd;stroke:rgb(0, 150, 255);stroke-width:1;" d="M 606.527, 468.485 L 617.613, 457.219 L 625.302, 461.69 L 635.852, 450.961 L 617.792, 440.59 L 631.381, 426.822 L 682.164, 455.789 L 679.124, 458.829 L 666.249, 471.882 L 663.031, 469.915 L 636.924, 496.379 L 626.196, 490.121 L 623.514, 486.008 L 621.368, 484.756 L 622.977, 483.147 L 616.719, 479.392 L 606.527, 468.485 z "/>
<path style="fill:rgb(0, 0, 255);fill-opacity:0;fill-rule:evenodd;stroke:rgb(0, 150, 255);stroke-width:1;" d="M 714.707, 136.612 L 745.284, 93.8757 L 781.94, 109.075 L 756.549, 153.956 L 714.707, 136.612 z "/>
<path style="fill:rgb(255, 255, 0);fill-opacity:0;fill-rule:evenodd;stroke:rgb(0, 150, 255);stroke-width:1;" d="M 675.548, 120.34 L 697.363, 89.9419 L 703.442, 81.359 L 705.051, 82.0742 L 707.734, 78.3192 L 745.284, 93.8757 L 714.707, 136.612 L 675.548, 120.34 z "/>
<path style="fill:rgb(255, 0, 0);fill-opacity:0;fill-rule:evenodd;stroke:rgb(0, 150, 255);stroke-width:1;" d="M 448.1, 522.485 L 503.532, 497.988 L 512.651, 508.181 L 539.651, 538.757 L 526.777, 544.479 L 510.326, 525.883 L 469.379, 546.983 L 448.1, 522.485 z "/>
<path style="fill:rgb(0, 255, 0);fill-opacity:0;fill-rule:evenodd;stroke:rgb(0, 150, 255);stroke-width:1;" d="M 171.48, 467.948 L 185.785, 448.279 L 187.93, 447.921 L 197.765, 434.511 L 231.739, 448.637 L 246.223, 454.716 L 221.368, 489.048 L 171.48, 467.948 z M 198.122, 463.478 L 198.659, 466.16 L 208.672, 470.451 L 212.785, 469.557 L 219.58, 460.259 L 205.275, 454.001 L 198.122, 463.478 z "/>
<path style="fill:rgb(0, 0, 255);fill-opacity:0;fill-rule:evenodd;stroke:rgb(0, 150, 255);stroke-width:1;" d="M 886.723, 717.568 L 907.465, 689.137 L 960.036, 711.131 L 939.294, 739.562 L 921.413, 732.052 L 886.723, 717.568 z "/>
<path style="fill:rgb(255, 255, 0);fill-opacity:0;fill-rule:evenodd;stroke:rgb(0, 150, 255);stroke-width:1;" d="M 371.569, 434.689 L 389.271, 411.265 L 402.682, 426.822 L 407.689, 424.318 L 403.755, 419.669 L 405.543, 418.954 L 393.742, 405.364 L 407.331, 387.304 L 413.411, 394.099 L 426.643, 409.477 L 419.312, 413.053 L 435.047, 431.113 L 423.782, 436.835 L 418.775, 439.338 L 415.557, 435.405 L 413.053, 434.332 L 406.974, 437.371 L 411.623, 442.736 L 388.556, 454.18 L 371.569, 434.689 z "/>
<path style="fill:rgb(255, 0, 0);fill-opacity:0;fill-rule:evenodd;stroke:rgb(0, 150, 255);stroke-width:1;" d="M 754.403, 504.426 L 764.059, 491.551 L 803.755, 508.359 L 808.583, 501.743 L 821.994, 507.644 L 817.166, 514.26 L 857.398, 531.426 L 847.743, 544.479 L 754.403, 504.426 z "/>
<path style="fill:rgb(0, 255, 0);fill-opacity:0;fill-rule:evenodd;stroke:rgb(0, 150, 255);stroke-width:1;" d="M 633.527, 661.779 L 637.282, 659.991 L 643.183, 656.951 L 696.29, 630.308 L 713.992, 650.693 L 666.249, 674.832 L 661.243, 677.336 L 653.017, 667.859 L 643.183, 672.865 L 634.421, 662.673 L 633.527, 661.779 z "/>
<path style="fill:rgb(0, 0, 255);fill-opacity:0;fill-rule:evenodd;stroke:rgb(0, 150, 255);stroke-width:1;" d="M 650.514, 52.928 L 667.322, 29.6826 L 722.932, 53.1068 L 712.383, 67.5905 L 705.945, 76.3523 L 650.514, 52.928 z "/>
<path style="fill:rgb(255, 255, 0);fill-opacity:0;fill-rule:evenodd;stroke:rgb(0, 150, 255);stroke-width:1;" d="M 625.123, 636.03 L 678.051, 609.388 L 696.29, 630.308 L 643.183, 656.951 L 625.123, 636.03 z "/>
<path style="fill:rgb(255, 0, 0);fill-opacity:0;fill-rule:evenodd;stroke:rgb(0, 150, 255);stroke-width:1;" d="M 406.437, 474.743 L 433.795, 460.975 L 438.802, 466.518 L 442.736, 464.551 L 444.524, 466.518 L 448.279, 464.551 L 441.842, 457.041 L 452.928, 451.498 L 457.398, 456.683 L 464.73, 452.928 L 472.418, 461.69 L 480.644, 471.167 L 424.497, 495.485 L 406.437, 474.743 z "/>
<path style="fill:rgb(0, 255, 0);fill-opacity:0;fill-rule:evenodd;stroke:rgb(0, 150, 255);stroke-width:1;" d="M 844.703, 741.171 L 883.147, 722.396 L 886.723, 717.568 L 921.413, 732.052 L 919.446, 734.198 L 899.598, 743.853 L 862.584, 762.092 L 844.703, 741.171 z "/>
<path style="fill:rgb(0, 0, 255);fill-opacity:0;fill-rule:evenodd;stroke:rgb(0, 150, 255);stroke-width:1;" d="M 509.075, 592.579 L 527.492, 583.281 L 542.512, 575.771 L 555.029, 569.334 L 560.751, 566.473 L 578.811, 587.215 L 575.592, 589.003 L 527.135, 613.321 L 509.075, 592.579 z "/>
<path style="fill:rgb(255, 255, 0);fill-opacity:0;fill-rule:evenodd;stroke:rgb(0, 150, 255);stroke-width:1;" d="M 483.684, 563.254 L 492.266, 560.215 L 496.916, 557.711 L 503.353, 565.042 L 509.075, 562.181 L 508.181, 561.109 L 519.267, 555.565 L 521.234, 557.89 L 524.989, 555.923 L 518.373, 548.234 L 531.962, 542.87 L 555.029, 569.334 L 542.512, 575.771 L 535.181, 567.367 L 530.89, 569.513 L 532.857, 572.016 L 522.307, 577.38 L 527.492, 583.281 L 509.075, 592.579 L 483.684, 563.254 z "/>
<path style="fill:rgb(255, 0, 0);fill-opacity:0;fill-rule:evenodd;stroke:rgb(0, 150, 255);stroke-width:1;" d="M 658.024, 762.986 L 710.595, 735.807 L 718.462, 744.747 L 683.594, 791.417 L 658.024, 762.986 z "/>
<path style="fill:rgb(0, 255, 0);fill-opacity:0;fill-rule:evenodd;stroke:rgb(0, 150, 255);stroke-width:1;" d="M 643.719, 746.893 L 656.057, 740.456 L 676.442, 729.906 L 690.031, 722.932 L 697.541, 718.999 L 699.329, 720.966 L 712.025, 735.092 L 710.595, 735.807 L 658.024, 762.986 L 643.719, 746.893 z "/>
<path style="fill:rgb(0, 0, 255);fill-opacity:0;fill-rule:evenodd;stroke:rgb(0, 150, 255);stroke-width:1;" d="M 388.556, 454.18 L 411.623, 442.736 L 416.093, 440.411 L 420.921, 445.776 L 428.431, 442.021 L 423.782, 436.835 L 435.047, 431.113 L 452.928, 451.498 L 441.842, 457.041 L 437.371, 452.034 L 429.504, 455.968 L 433.795, 460.975 L 406.437, 474.743 L 388.556, 454.18 z "/>
<path style="fill:rgb(255, 255, 0);fill-opacity:0;fill-rule:evenodd;stroke:rgb(0, 150, 255);stroke-width:1;" d="M 334.198, 121.234 L 364.774, 79.2132 L 385.516, 87.975 L 354.94, 129.996 L 334.198, 121.234 z "/>
<path style="fill:rgb(255, 0, 0);fill-opacity:0;fill-rule:evenodd;stroke:rgb(0, 150, 255);stroke-width:1;" d="M 647.474, 108.717 L 669.647, 78.3192 L 697.363, 89.9419 L 675.548, 120.34 L 647.474, 108.717 z "/>
<path style="fill:rgb(0, 255, 0);fill-opacity:0;fill-rule:evenodd;stroke:rgb(0, 150, 255);stroke-width:1;" d="M 625.302, 726.33 L 637.997, 719.714 L 642.289, 724.721 L 657.845, 716.853 L 658.203, 715.065 L 661.779, 713.277 L 661.958, 710.773 L 659.991, 708.449 L 671.614, 702.548 L 690.031, 722.932 L 676.442, 729.906 L 671.435, 724.363 L 651.051, 734.913 L 656.057, 740.456 L 643.719, 746.893 L 625.302, 726.33 z "/>
<path style="fill:rgb(0, 0, 255);fill-opacity:0;fill-rule:evenodd;stroke:rgb(0, 150, 255);stroke-width:1;" d="M 122.128, 525.883 L 134.287, 509.253 L 189.718, 532.499 L 177.738, 549.128 L 165.937, 544.122 L 164.864, 543.764 L 167.009, 540.724 L 166.831, 539.115 L 163.97, 537.863 L 162.897, 539.473 L 129.28, 525.346 L 127.313, 528.029 L 122.128, 525.883 z "/>
<path style="fill:rgb(255, 255, 0);fill-opacity:0;fill-rule:evenodd;stroke:rgb(0, 150, 255);stroke-width:1;" d="M 690.389, 565.042 L 699.329, 560.751 L 703.442, 565.579 L 734.019, 550.38 L 749.397, 568.44 L 711.131, 587.394 L 695.574, 569.334 L 694.502, 570.049 L 690.389, 565.042 z "/>
<path style="fill:rgb(255, 0, 0);fill-opacity:0;fill-rule:evenodd;stroke:rgb(0, 150, 255);stroke-width:1;" d="M 699.329, 720.966 L 725.257, 707.912 L 725.793, 705.23 L 735.807, 700.224 L 734.555, 698.793 L 749.397, 691.283 L 754.403, 697.005 L 720.966, 741.35 L 714.528, 733.84 L 712.025, 735.092 L 699.329, 720.966 z M 714.886, 722.396 L 717.926, 725.972 L 723.469, 723.111 L 721.502, 720.787 L 719.714, 721.681 L 718.641, 720.429 L 714.886, 722.396 z "/>
<path style="fill:rgb(0, 255, 0);fill-opacity:0;fill-rule:evenodd;stroke:rgb(0, 150, 255);stroke-width:1;" d="M 407.331, 387.304 L 424.676, 364.417 L 436.299, 358.695 L 436.835, 359.231 L 438.444, 358.337 L 439.696, 356.728 L 436.477, 352.973 L 444.882, 348.681 L 453.286, 351.363 L 466.696, 366.92 L 454.001, 373.357 L 450.603, 369.245 L 447.921, 368.708 L 433.616, 375.861 L 430.398, 381.761 L 432.722, 384.443 L 413.411, 394.099 L 407.331, 387.304 z "/>
<path style="fill:rgb(0, 0, 255);fill-opacity:0;fill-rule:evenodd;stroke:rgb(0, 150, 255);stroke-width:1;" d="M 482.968, 405.901 L 495.306, 399.642 L 536.612, 447.027 L 521.949, 453.286 L 511.578, 441.484 L 509.253, 438.802 L 510.505, 438.266 L 511.399, 436.299 L 509.432, 434.153 L 501.922, 425.391 L 498.704, 424.855 L 497.631, 425.391 L 485.472, 411.623 L 487.081, 410.729 L 482.968, 405.901 z "/>
<path style="fill:rgb(255, 255, 0);fill-opacity:0;fill-rule:evenodd;stroke:rgb(0, 150, 255);stroke-width:1;" d="M 79.2132, 596.156 L 87.975, 583.996 L 122.843, 598.659 L 122.485, 599.017 L 125.704, 599.374 L 128.029, 596.334 L 139.651, 601.341 L 126.062, 619.937 L 114.439, 614.931 L 116.942, 611.533 L 114.439, 610.103 L 114.081, 610.639 L 79.2132, 596.156 z "/>
<path style="fill:rgb(255, 0, 0);fill-opacity:0;fill-rule:evenodd;stroke:rgb(0, 150, 255);stroke-width:1;" d="M 27.0004, 667.68 L 35.941, 655.342 L 70.9879, 670.183 L 70.4515, 671.077 L 73.4913, 671.256 L 75.8158, 668.038 L 87.4385, 673.044 L 74.2065, 691.104 L 62.405, 686.097 L 64.3719, 683.415 L 62.7626, 681.448 L 62.0474, 682.342 L 27.0004, 667.68 z "/>
<path style="fill:rgb(0, 255, 0);fill-opacity:0;fill-rule:evenodd;stroke:rgb(0, 150, 255);stroke-width:1;" d="M 40.2325, 649.441 L 49.173, 637.282 L 84.2199, 651.945 L 83.6835, 652.839 L 86.7233, 653.017 L 89.0478, 649.799 L 100.671, 654.806 L 87.4385, 673.044 L 75.8158, 668.038 L 77.7827, 665.355 L 75.9946, 663.388 L 75.2794, 664.283 L 40.2325, 649.441 z "/>
<path style="fill:rgb(0, 0, 255);fill-opacity:0;fill-rule:evenodd;stroke:rgb(0, 150, 255);stroke-width:1;" d="M 189.54, 382.298 L 202.772, 363.701 L 238.534, 378.364 L 231.203, 388.914 L 225.302, 397.139 L 189.54, 382.298 z "/>
<path style="fill:rgb(255, 255, 0);fill-opacity:0;fill-rule:evenodd;stroke:rgb(0, 150, 255);stroke-width:1;" d="M 53.2857, 631.739 L 62.0474, 619.58 L 96.9155, 634.242 L 96.3791, 634.958 L 99.5977, 635.315 L 101.743, 632.454 L 113.366, 637.282 L 100.671, 654.806 L 89.0478, 649.799 L 90.6571, 647.653 L 88.5114, 645.865 L 88.1538, 646.401 L 53.2857, 631.739 z "/>
<path style="fill:rgb(255, 0, 0);fill-opacity:0;fill-rule:evenodd;stroke:rgb(0, 150, 255);stroke-width:1;" d="M 65.9812, 614.215 L 74.743, 602.056 L 109.611, 616.719 L 109.075, 617.613 L 112.293, 617.792 L 114.439, 614.931 L 126.062, 619.937 L 113.366, 637.282 L 101.743, 632.454 L 103.353, 630.13 L 101.207, 628.342 L 100.849, 628.878 L 65.9812, 614.215 z "/>
<path style="fill:rgb(0, 255, 0);fill-opacity:0;fill-rule:evenodd;stroke:rgb(0, 150, 255);stroke-width:1;" d="M 92.2664, 578.096 L 101.028, 565.937 L 135.896, 580.599 L 135.539, 581.135 L 138.578, 581.851 L 140.545, 578.99 L 152.347, 583.818 L 139.651, 601.341 L 128.029, 596.334 L 129.459, 594.189 L 127.492, 592.222 L 127.135, 592.758 L 92.2664, 578.096 z "/>
<path style="fill:rgb(0, 0, 255);fill-opacity:0;fill-rule:evenodd;stroke:rgb(0, 150, 255);stroke-width:1;" d="M 470.809, 420.563 L 483.862, 413.947 L 507.108, 440.769 L 506.571, 441.127 L 507.287, 441.842 L 508.717, 443.093 L 511.578, 441.484 L 521.949, 453.286 L 501.743, 462.047 L 492.445, 451.498 L 496.021, 449.709 L 495.485, 447.743 L 494.055, 447.385 L 470.809, 420.563 z "/>
<path style="fill:rgb(255, 255, 0);fill-opacity:0;fill-rule:evenodd;stroke:rgb(0, 150, 255);stroke-width:1;" d="M 105.32, 560.215 L 113.724, 548.592 L 151.274, 564.327 L 153.241, 561.645 L 164.864, 566.473 L 152.347, 583.818 L 140.545, 578.99 L 142.691, 575.95 L 105.32, 560.215 z "/>
<path style="fill:rgb(255, 0, 0);fill-opacity:0;fill-rule:evenodd;stroke:rgb(0, 150, 255);stroke-width:1;" d="M 422.709, 393.205 L 452.749, 378.185 L 456.147, 378.185 L 456.504, 376.218 L 454.001, 373.357 L 466.696, 366.92 L 481.001, 383.371 L 468.306, 389.629 L 465.981, 386.947 L 463.299, 386.589 L 462.405, 389.093 L 432.365, 404.291 L 422.709, 393.205 z "/>
<path style="fill:rgb(0, 255, 0);fill-opacity:0;fill-rule:evenodd;stroke:rgb(0, 150, 255);stroke-width:1;" d="M 437.014, 409.656 L 467.054, 394.457 L 470.451, 394.636 L 470.809, 392.669 L 468.306, 389.629 L 481.001, 383.371 L 495.306, 399.642 L 482.968, 405.901 L 480.644, 403.576 L 477.604, 403.04 L 476.71, 405.543 L 446.67, 420.563 L 437.014, 409.656 z "/>
<path style="fill:rgb(0, 0, 255);fill-opacity:0;fill-rule:evenodd;stroke:rgb(0, 150, 255);stroke-width:1;" d="M 117.836, 542.87 L 126.062, 531.605 L 163.612, 547.34 L 165.937, 544.122 L 177.738, 549.128 L 164.864, 566.473 L 153.241, 561.645 L 155.387, 558.605 L 117.836, 542.87 z "/>
<path style="fill:rgb(255, 255, 0);fill-opacity:0;fill-rule:evenodd;stroke:rgb(0, 150, 255);stroke-width:1;" d="M 450.425, 430.755 L 463.12, 424.318 L 486.902, 451.676 L 488.869, 453.286 L 492.445, 451.498 L 501.743, 462.047 L 480.644, 471.167 L 472.418, 461.69 L 475.637, 459.902 L 475.458, 458.471 L 473.849, 457.577 L 450.425, 430.755 z "/>
<path style="fill:rgb(255, 0, 0);fill-opacity:0;fill-rule:evenodd;stroke:rgb(0, 150, 255);stroke-width:1;" d="M 952.347, 527.135 L 952.526, 526.241 L 958.963, 517.3 L 971.837, 522.843 L 971.658, 524.452 L 977.202, 526.777 L 980.241, 526.419 L 985.785, 528.744 L 993.831, 532.141 L 994.367, 533.572 L 1011.71, 541.082 L 1004.56, 550.738 L 953.599, 529.101 L 952.705, 528.207 L 952.347, 527.135 z "/>
<path style="fill:rgb(0, 255, 0);fill-opacity:0;fill-rule:evenodd;stroke:rgb(0, 150, 255);stroke-width:1;" d="M 470.273, 547.877 L 502.28, 531.784 L 515.512, 546.983 L 504.247, 552.705 L 503.532, 551.81 L 498.525, 554.314 L 500.134, 556.281 L 496.916, 557.711 L 492.266, 560.215 L 483.684, 563.254 L 470.273, 547.877 z "/>
<path style="fill:rgb(0, 0, 255);fill-opacity:0;fill-rule:evenodd;stroke:rgb(0, 150, 255);stroke-width:1;" d="M 666.249, 674.832 L 713.992, 650.693 L 722.754, 660.885 L 710.237, 667.143 L 675.011, 684.846 L 666.249, 674.832 z "/>
<path style="fill:rgb(255, 255, 0);fill-opacity:0;fill-rule:evenodd;stroke:rgb(0, 150, 255);stroke-width:1;" d="M 580.778, 674.654 L 629.057, 650.335 L 637.282, 659.991 L 633.527, 661.779 L 605.811, 675.726 L 606.705, 676.62 L 589.897, 685.203 L 580.778, 674.654 z "/>
<path style="fill:rgb(255, 0, 0);fill-opacity:0;fill-rule:evenodd;stroke:rgb(0, 150, 255);stroke-width:1;" d="M 527.135, 613.321 L 575.592, 589.003 L 583.996, 598.659 L 558.963, 611.176 L 535.717, 622.977 L 527.135, 613.321 z "/>
<path style="fill:rgb(0, 255, 0);fill-opacity:0;fill-rule:evenodd;stroke:rgb(0, 150, 255);stroke-width:1;" d="M 756.37, 641.752 L 810.55, 613.321 L 812.696, 615.825 L 799.106, 633.706 L 765.132, 651.587 L 756.37, 641.752 z "/>
<path style="fill:rgb(0, 0, 255);fill-opacity:0;fill-rule:evenodd;stroke:rgb(0, 150, 255);stroke-width:1;" d="M 517.658, 491.73 L 531.962, 485.472 L 560.751, 518.194 L 547.161, 525.168 L 517.658, 491.73 z "/>
<path style="fill:rgb(255, 255, 0);fill-opacity:0;fill-rule:evenodd;stroke:rgb(0, 150, 255);stroke-width:1;" d="M 693.965, 704.515 L 703.084, 699.866 L 715.065, 693.786 L 719.356, 691.641 L 723.827, 692.535 L 723.111, 691.641 L 741.708, 682.342 L 749.397, 691.283 L 734.555, 698.793 L 702.906, 714.707 L 693.965, 704.515 z "/>
<path style="fill:rgb(255, 0, 0);fill-opacity:0;fill-rule:evenodd;stroke:rgb(0, 150, 255);stroke-width:1;" d="M 589.897, 685.203 L 606.705, 676.62 L 634.421, 662.673 L 643.183, 672.865 L 598.659, 695.217 L 589.897, 685.203 z "/>
<path style="fill:rgb(0, 255, 0);fill-opacity:0;fill-rule:evenodd;stroke:rgb(0, 150, 255);stroke-width:1;" d="M 572.553, 665.177 L 599.911, 651.408 L 600.626, 652.481 L 610.46, 647.474 L 609.566, 646.58 L 620.831, 641.037 L 629.057, 650.335 L 580.778, 674.654 L 572.553, 665.177 z "/>
<path style="fill:rgb(0, 0, 255);fill-opacity:0;fill-rule:evenodd;stroke:rgb(0, 150, 255);stroke-width:1;" d="M 503.532, 497.988 L 517.658, 491.73 L 547.161, 525.168 L 554.314, 533.214 L 544.837, 538.042 L 519.624, 509.432 L 522.485, 508.002 L 519.624, 504.783 L 512.651, 508.181 L 503.532, 497.988 z "/>
<path style="fill:rgb(255, 255, 0);fill-opacity:0;fill-rule:evenodd;stroke:rgb(0, 150, 255);stroke-width:1;" d="M 967.009, 506.571 L 974.698, 496.021 L 987.573, 501.386 L 987.573, 502.816 L 993.116, 505.141 L 995.977, 504.962 L 1001.52, 507.287 L 1003.49, 509.611 L 1021.55, 517.3 L 1015.82, 525.168 L 997.765, 517.3 L 993.652, 517.836 L 988.109, 515.512 L 987.036, 513.545 L 981.314, 511.042 L 979.705, 512.114 L 967.009, 506.571 z "/>
<path style="fill:rgb(255, 0, 0);fill-opacity:0;fill-rule:evenodd;stroke:rgb(0, 150, 255);stroke-width:1;" d="M 682.164, 685.382 L 685.025, 683.952 L 683.594, 682.164 L 690.389, 678.766 L 691.998, 676.799 L 696.826, 674.296 L 698.972, 674.117 L 709.522, 668.753 L 710.237, 667.143 L 722.754, 660.885 L 731.515, 670.899 L 724.363, 674.475 L 719.356, 676.978 L 716.853, 677.157 L 714.35, 678.409 L 714.886, 679.303 L 712.025, 680.733 L 711.31, 679.839 L 706.303, 682.521 L 704.157, 685.025 L 700.045, 687.17 L 698.078, 687.349 L 691.104, 690.747 L 689.674, 689.137 L 686.634, 690.568 L 682.164, 685.382 z "/>
<path style="fill:rgb(0, 255, 0);fill-opacity:0;fill-rule:evenodd;stroke:rgb(0, 150, 255);stroke-width:1;" d="M 958.963, 517.3 L 967.009, 506.571 L 979.705, 512.114 L 979.526, 513.724 L 985.069, 516.048 L 988.109, 515.512 L 993.652, 517.836 L 992.043, 520.161 L 995.262, 520.697 L 1013.32, 528.386 L 1007.78, 535.896 L 989.718, 528.207 L 987.573, 526.241 L 985.785, 528.744 L 980.241, 526.419 L 979.169, 524.095 L 973.625, 521.77 L 971.837, 522.843 L 958.963, 517.3 z "/>
<path style="fill:rgb(0, 0, 255);fill-opacity:0;fill-rule:evenodd;stroke:rgb(0, 150, 255);stroke-width:1;" d="M 982.566, 485.293 L 990.612, 474.385 L 1003.31, 479.928 L 1004.38, 481.538 L 1017.26, 486.902 L 1019.22, 486.544 L 1032.45, 492.266 L 1024.59, 502.995 L 1018.15, 500.313 L 1011.18, 497.452 L 1011.35, 496.021 L 997.765, 490.3 L 995.44, 490.657 L 982.566, 485.293 z "/>
<path style="fill:rgb(255, 255, 0);fill-opacity:0;fill-rule:evenodd;stroke:rgb(0, 150, 255);stroke-width:1;" d="M 685.74, 695.217 L 695.038, 690.389 L 697.005, 692.535 L 708.091, 686.813 L 705.588, 683.952 L 712.025, 680.733 L 714.886, 679.303 L 718.641, 679.839 L 724.005, 677.157 L 724.363, 674.475 L 731.515, 670.899 L 740.456, 681.091 L 733.661, 684.488 L 730.979, 683.773 L 724.542, 686.992 L 724.184, 689.316 L 719.356, 691.641 L 715.065, 693.786 L 713.277, 691.641 L 701.296, 697.72 L 703.084, 699.866 L 693.965, 704.515 L 685.74, 695.217 z "/>
<path style="fill:rgb(255, 0, 0);fill-opacity:0;fill-rule:evenodd;stroke:rgb(0, 150, 255);stroke-width:1;" d="M 33.6165, 62.2262 L 33.6165, 62.0474 L 51.6764, 37.1927 L 66.8753, 43.6299 L 50.2459, 66.5177 L 44.5239, 74.2065 L 33.6165, 62.2262 z "/>
<path style="fill:rgb(0, 255, 0);fill-opacity:0;fill-rule:evenodd;stroke:rgb(0, 150, 255);stroke-width:1;" d="M 974.698, 496.021 L 982.566, 485.293 L 995.44, 490.657 L 995.262, 492.088 L 1002.06, 494.949 L 1003.84, 494.233 L 1011.18, 497.452 L 1018.15, 500.313 L 1016.18, 502.995 L 1019.04, 504.068 L 1015.29, 509.253 L 1012.43, 508.002 L 1010.64, 510.505 L 1001.88, 506.75 L 1001.52, 507.287 L 995.977, 504.962 L 994.904, 502.816 L 989.182, 500.313 L 987.573, 501.386 L 974.698, 496.021 z "/>
<path style="fill:rgb(0, 0, 255);fill-opacity:0;fill-rule:evenodd;stroke:rgb(0, 150, 255);stroke-width:1;" d="M 534.287, 484.399 L 559.499, 473.312 L 569.692, 484.935 L 549.128, 495.127 L 545.373, 497.094 L 534.287, 484.399 z "/>
<path style="fill:rgb(255, 255, 0);fill-opacity:0;fill-rule:evenodd;stroke:rgb(0, 150, 255);stroke-width:1;" d="M 715.78, 529.638 L 722.575, 526.241 L 724.899, 528.923 L 729.727, 526.419 L 744.747, 543.764 L 737.237, 547.519 L 739.204, 550.022 L 740.992, 549.128 L 743.138, 551.453 L 739.383, 553.42 L 738.489, 553.956 L 734.198, 549.128 L 730.621, 550.916 L 719.714, 538.4 L 722.217, 537.148 L 715.78, 529.638 z "/>
<path style="fill:rgb(255, 0, 0);fill-opacity:0;fill-rule:evenodd;stroke:rgb(0, 150, 255);stroke-width:1;" d="M 786.947, 752.973 L 794.099, 743.138 L 815.735, 767.635 L 804.649, 773.178 L 786.947, 752.973 z "/>
<path style="fill:rgb(0, 255, 0);fill-opacity:0;fill-rule:evenodd;stroke:rgb(0, 150, 255);stroke-width:1;" d="M 739.383, 553.42 L 743.138, 551.453 L 757.085, 543.943 L 760.304, 547.34 L 765.668, 544.479 L 772.642, 551.989 L 749.575, 564.327 L 739.383, 553.42 z "/>
<path style="fill:rgb(0, 0, 255);fill-opacity:0;fill-rule:evenodd;stroke:rgb(0, 150, 255);stroke-width:1;" d="M 549.128, 495.127 L 569.692, 484.935 L 578.99, 495.664 L 558.426, 505.856 L 549.128, 495.127 z "/>
<path style="fill:rgb(255, 255, 0);fill-opacity:0;fill-rule:evenodd;stroke:rgb(0, 150, 255);stroke-width:1;" d="M 558.426, 505.856 L 578.99, 495.664 L 587.573, 505.677 L 567.188, 515.869 L 558.426, 505.856 z "/>
<path style="fill:rgb(255, 0, 0);fill-opacity:0;fill-rule:evenodd;stroke:rgb(0, 150, 255);stroke-width:1;" d="M 567.188, 515.869 L 587.573, 505.677 L 596.334, 515.691 L 575.95, 525.883 L 567.188, 515.869 z "/>
<path style="fill:rgb(0, 255, 0);fill-opacity:0;fill-rule:evenodd;stroke:rgb(0, 150, 255);stroke-width:1;" d="M 706.482, 77.4251 L 714.528, 66.5177 L 731.873, 73.8489 L 727.045, 80.2861 L 724.005, 84.7564 L 706.482, 77.4251 z "/>
<path style="fill:rgb(0, 0, 255);fill-opacity:0;fill-rule:evenodd;stroke:rgb(0, 150, 255);stroke-width:1;" d="M 720.787, 491.551 L 727.403, 482.432 L 738.668, 487.081 L 732.052, 496.2 L 720.787, 491.551 z "/>
<path style="fill:rgb(255, 255, 0);fill-opacity:0;fill-rule:evenodd;stroke:rgb(0, 150, 255);stroke-width:1;" d="M 25.0335, 268.574 L 38.802, 261.243 L 103.889, 226.553 L 172.374, 300.581 L 110.148, 333.661 L 106.75, 335.449 L 87.0809, 314.171 L 73.6701, 321.323 L 25.0335, 268.574 z "/>
<path style="fill:rgb(255, 0, 0);fill-opacity:0;fill-rule:evenodd;stroke:rgb(0, 150, 255);stroke-width:1;" d="M 0, 395.887 L 10.7287, 381.225 L 15.1989, 383.192 L 46.8485, 339.741 L 57.3983, 344.032 L 62.7626, 336.701 L 72.0608, 340.635 L 54.0009, 365.311 L 51.6764, 364.417 L 49.7094, 367.099 L 63.2991, 372.821 L 65.266, 370.139 L 61.8686, 368.708 L 79.9285, 343.853 L 86.7233, 346.714 L 83.5047, 351.185 L 96.2003, 356.549 L 61.8686, 403.576 L 66.5177, 405.543 L 56.3254, 419.49 L 31.8283, 409.298 L 48.1001, 386.947 L 50.2459, 387.841 L 52.3916, 384.98 L 40.9477, 380.152 L 38.802, 383.013 L 41.1265, 383.907 L 24.8547, 406.437 L 0, 395.887 z "/>
<path style="fill:rgb(0, 255, 0);fill-opacity:0;fill-rule:evenodd;stroke:rgb(0, 150, 255);stroke-width:1;" d="M 24.1395, 557.89 L 39.696, 536.433 L 53.8221, 542.512 L 51.6764, 545.552 L 49.173, 546.089 L 48.9942, 548.055 L 51.3187, 549.128 L 52.928, 548.592 L 69.021, 555.387 L 69.3786, 556.817 L 71.5244, 557.711 L 73.8489, 556.817 L 73.1337, 555.029 L 75.637, 551.632 L 89.5843, 557.354 L 74.0277, 578.811 L 60.0805, 572.91 L 62.5838, 569.692 L 64.5507, 569.334 L 64.7295, 567.367 L 62.0474, 566.294 L 60.7957, 566.294 L 44.8815, 559.678 L 44.8815, 557.89 L 42.1994, 557.175 L 39.696, 558.605 L 40.7689, 560.751 L 38.4443, 563.791 L 24.1395, 557.89 z "/>
<path style="fill:rgb(0, 0, 255);fill-opacity:0;fill-rule:evenodd;stroke:rgb(0, 150, 255);stroke-width:1;" d="M 10.9075, 689.852 L 23.0666, 673.223 L 58.2924, 688.064 L 60.4381, 685.203 L 62.405, 686.097 L 74.2065, 691.104 L 60.0805, 710.595 L 46.1332, 704.694 L 50.4247, 698.972 L 45.9544, 697.184 L 29.325, 690.031 L 25.0335, 695.932 L 23.2454, 695.038 L 10.9075, 689.852 z "/>
<path style="fill:rgb(255, 255, 0);fill-opacity:0;fill-rule:evenodd;stroke:rgb(0, 150, 255);stroke-width:1;" d="M 11.6227, 575.056 L 24.1395, 557.89 L 38.4443, 563.791 L 36.1198, 566.831 L 71.7032, 581.851 L 63.2991, 593.473 L 27.7157, 578.453 L 25.9276, 580.957 L 11.6227, 575.056 z "/>
<path style="fill:rgb(255, 0, 0);fill-opacity:0;fill-rule:evenodd;stroke:rgb(0, 150, 255);stroke-width:1;" d="M 865.087, 57.0407 L 880.644, 49.8882 L 881.18, 50.6035 L 917.479, 34.1529 L 919.803, 37.1927 L 932.141, 30.9343 L 932.141, 27.3581 L 927.492, 27.3581 L 926.956, 0.178811 L 949.844, 0 L 950.559, 27.1793 L 945.194, 27.1793 L 945.373, 30.7555 L 958.605, 36.2986 L 960.572, 33.4376 L 991.506, 46.4908 L 1010.28, 20.9209 L 1043, 34.6893 L 982.208, 117.836 L 949.486, 104.068 L 980.241, 62.0474 L 949.307, 48.9942 L 951.274, 46.312 L 948.055, 45.2392 L 944.658, 44.5239 L 941.082, 44.1663 L 939.294, 44.1663 L 935.539, 44.3451 L 933.929, 44.5239 L 930.353, 45.418 L 928.744, 45.9544 L 927.313, 46.6696 L 929.28, 49.173 L 893.16, 65.6236 L 893.876, 66.6965 L 878.319, 73.8489 L 865.087, 57.0407 z "/>
<path style="fill:rgb(0, 255, 0);fill-opacity:0;fill-rule:evenodd;stroke:rgb(0, 150, 255);stroke-width:1;" d="M 302.369, 49.8882 L 331.694, 9.47698 L 373.894, 27.0004 L 344.569, 67.5905 L 302.369, 49.8882 z "/>
</svg>