<?xml version="1.0" encoding="iso-8859-1" standalone="no"?>
<!DOCTYPE svg PUBLIC "-//W3C//DTD SVG 1.0//EN" "http://www.w3.org/TR/2001/REC-SVG-20010904/DTD/svg10.dtd">
<svg xmlns="http://www.w3.org/2000/svg" width="870" height="800">
<path style="fill:rgb(255, 0, 0);fill-opacity:0;fill-rule:evenodd;stroke:rgb(167, 255, 0);stroke-width:1;" d="M 208.231, 496.173 L 263.971, 418.195 L 253.863, 413.863 L 259.35, 406.065 L 253.574, 403.755 L 261.372, 392.491 L 273.502, 375.74 L 281.011, 364.477 L 293.141, 347.726 L 400, 391.625 L 394.801, 399.134 L 403.755, 402.888 L 398.267, 410.397 L 471.913, 440.722 L 549.603, 331.552 L 568.953, 338.484 L 585.415, 313.646 L 585.704, 313.357 L 598.7, 295.451 L 611.697, 277.834 L 626.426, 257.906 L 629.892, 253.285 L 830.325, 335.018 L 845.343, 341.083 L 832.058, 359.567 L 837.545, 361.877 L 775.451, 477.69 L 729.819, 542.383 L 715.668, 558.845 L 639.134, 640 L 634.224, 637.978 L 623.538, 654.729 L 614.296, 662.238 L 588.592, 681.588 L 408.953, 605.632 L 416.751, 594.657 L 303.249, 547.87 L 296.318, 557.401 L 263.682, 544.116 L 277.545, 524.765 L 208.231, 496.173 z "/>
<path style="fill:rgb(0, 255, 0);fill-opacity:0;fill-rule:evenodd;stroke:rgb(167, 255, 0);stroke-width:1;" d="M 69.3141, 672.058 L 76.5343, 662.238 L 118.7, 604.188 L 169.531, 534.585 L 204.765, 549.892 L 246.065, 567.798 L 263.682, 544.116 L 296.318, 557.401 L 285.343, 572.996 L 397.401, 620.072 L 408.953, 605.632 L 588.592, 681.588 L 509.747, 740.505 L 508.303, 739.35 L 401.733, 797.978 L 377.473, 800 L 352.058, 789.603 L 342.816, 773.141 L 347.148, 757.256 L 329.819, 780.361 L 69.3141, 672.058 z M 367.942, 770.83 L 372.274, 777.762 L 381.227, 781.516 L 391.625, 780.939 L 399.134, 775.451 L 401.444, 767.942 L 397.112, 760.433 L 387.87, 756.679 L 377.184, 757.545 L 369.675, 763.321 L 367.942, 770.83 z M 185.993, 632.491 L 190.614, 639.134 L 199.567, 642.888 L 209.964, 642.31 L 217.473, 636.823 L 219.783, 629.314 L 215.162, 621.805 L 206.209, 618.051 L 195.523, 618.917 L 187.726, 624.693 L 185.993, 632.491 z "/>
<path style="fill:rgb(0, 0, 255);fill-opacity:0;fill-rule:evenodd;stroke:rgb(167, 255, 0);stroke-width:1;" d="M 489.242, 284.188 L 540.072, 215.162 L 579.928, 232.202 L 544.116, 281.011 L 549.025, 283.032 L 540.65, 294.296 L 534.007, 303.249 L 489.242, 284.188 z "/>
<path style="fill:rgb(255, 255, 0);fill-opacity:0;fill-rule:evenodd;stroke:rgb(167, 255, 0);stroke-width:1;" d="M 94.4404, 378.628 L 130.542, 326.931 L 185.415, 349.17 L 149.314, 400.866 L 94.4404, 378.628 z "/>
<path style="fill:rgb(255, 0, 0);fill-opacity:0;fill-rule:evenodd;stroke:rgb(167, 255, 0);stroke-width:1;" d="M 540.65, 294.296 L 549.025, 283.032 L 553.646, 276.39 L 562.31, 280.144 L 566.354, 280.144 L 578.195, 263.971 L 566.643, 259.061 L 584.838, 234.224 L 629.892, 253.285 L 626.426, 257.906 L 611.697, 277.834 L 606.209, 275.235 L 605.054, 273.502 L 601.011, 271.769 L 588.303, 289.386 L 588.592, 291.119 L 598.7, 295.451 L 585.704, 313.357 L 540.65, 294.296 z "/>
<path style="fill:rgb(0, 255, 0);fill-opacity:0;fill-rule:evenodd;stroke:rgb(167, 255, 0);stroke-width:1;" d="M 56.8953, 430.614 L 75.6679, 404.91 L 101.949, 415.596 L 107.148, 417.906 L 100.505, 427.148 L 125.632, 437.545 L 129.097, 435.523 L 133.43, 429.17 L 154.801, 438.123 L 136.318, 463.538 L 56.8953, 430.614 z "/>
<path style="fill:rgb(0, 0, 255);fill-opacity:0;fill-rule:evenodd;stroke:rgb(167, 255, 0);stroke-width:1;" d="M 466.137, 274.368 L 516.968, 205.343 L 540.072, 215.162 L 489.242, 284.188 L 466.137, 274.368 z "/>
<path style="fill:rgb(255, 255, 0);fill-opacity:0;fill-rule:evenodd;stroke:rgb(167, 255, 0);stroke-width:1;" d="M 75.6679, 404.91 L 94.4404, 378.628 L 121.877, 390.181 L 118.412, 395.09 L 167.509, 415.596 L 155.668, 432.058 L 105.126, 411.264 L 101.949, 415.596 L 75.6679, 404.91 z "/>
<path style="fill:rgb(255, 0, 0);fill-opacity:0;fill-rule:evenodd;stroke:rgb(167, 255, 0);stroke-width:1;" d="M 420.505, 336.173 L 443.032, 305.848 L 466.137, 274.368 L 489.242, 284.188 L 462.671, 320.289 L 443.61, 346.282 L 420.505, 336.173 z "/>
<path style="fill:rgb(0, 255, 0);fill-opacity:0;fill-rule:evenodd;stroke:rgb(167, 255, 0);stroke-width:1;" d="M 276.968, 126.787 L 290.542, 108.014 L 327.22, 123.61 L 355.812, 135.74 L 342.238, 154.513 L 309.314, 140.361 L 310.758, 138.628 L 301.516, 134.585 L 297.473, 135.451 L 276.968, 126.787 z "/>
<path style="fill:rgb(0, 0, 255);fill-opacity:0;fill-rule:evenodd;stroke:rgb(167, 255, 0);stroke-width:1;" d="M 144.693, 309.603 L 157.401, 291.408 L 224.404, 318.556 L 213.141, 334.729 L 191.191, 325.776 L 186.859, 326.643 L 144.693, 309.603 z "/>
<path style="fill:rgb(255, 255, 0);fill-opacity:0;fill-rule:evenodd;stroke:rgb(167, 255, 0);stroke-width:1;" d="M 188.592, 249.531 L 201.011, 231.625 L 222.96, 240.289 L 223.827, 243.466 L 231.336, 246.065 L 234.801, 245.199 L 266.859, 258.195 L 254.152, 276.39 L 188.592, 249.531 z "/>
<path style="fill:rgb(255, 0, 0);fill-opacity:0;fill-rule:evenodd;stroke:rgb(167, 255, 0);stroke-width:1;" d="M 58.0505, 121.011 L 68.7365, 106.57 L 93.8628, 117.256 L 142.96, 138.051 L 132.563, 152.491 L 93.2852, 136.029 L 58.0505, 121.011 z "/>
<path style="fill:rgb(0, 255, 0);fill-opacity:0;fill-rule:evenodd;stroke:rgb(167, 255, 0);stroke-width:1;" d="M 93.8628, 117.256 L 99.9278, 108.881 L 128.52, 121.011 L 132.563, 115.235 L 104.26, 103.105 L 110.325, 94.7292 L 118.7, 98.1949 L 159.711, 115.523 L 164.332, 117.545 L 147.87, 140.072 L 142.96, 138.051 L 93.8628, 117.256 z "/>
<path style="fill:rgb(0, 0, 255);fill-opacity:0;fill-rule:evenodd;stroke:rgb(167, 255, 0);stroke-width:1;" d="M 237.978, 382.96 L 242.888, 375.74 L 249.819, 365.921 L 252.996, 365.343 L 257.906, 358.412 L 257.617, 354.946 L 270.036, 337.04 L 293.718, 346.859 L 293.141, 347.726 L 281.011, 364.477 L 276.101, 365.921 L 271.48, 372.563 L 273.502, 375.74 L 261.372, 392.491 L 255.018, 389.892 L 252.996, 392.78 L 241.155, 387.87 L 243.177, 384.982 L 237.978, 382.96 z "/>
<path style="fill:rgb(255, 255, 0);fill-opacity:0;fill-rule:evenodd;stroke:rgb(167, 255, 0);stroke-width:1;" d="M 71.6245, 85.4874 L 110.036, 32.9242 L 130.253, 41.2996 L 121.3, 53.4296 L 114.079, 63.5379 L 111.48, 62.3827 L 102.238, 75.0903 L 104.838, 75.9567 L 91.5523, 93.8628 L 71.6245, 85.4874 z "/>
<path style="fill:rgb(255, 0, 0);fill-opacity:0;fill-rule:evenodd;stroke:rgb(167, 255, 0);stroke-width:1;" d="M 258.195, 277.834 L 269.747, 261.372 L 273.213, 260.217 L 278.412, 252.419 L 278.123, 249.819 L 290.542, 232.202 L 313.069, 241.444 L 300.65, 258.773 L 297.473, 259.928 L 291.986, 267.726 L 292.563, 270.614 L 281.011, 287.076 L 258.195, 277.834 z "/>
<path style="fill:rgb(0, 255, 0);fill-opacity:0;fill-rule:evenodd;stroke:rgb(167, 255, 0);stroke-width:1;" d="M 461.227, 353.502 L 480.289, 327.798 L 495.018, 307.87 L 514.946, 316.534 L 481.444, 362.166 L 461.227, 353.502 z "/>
<path style="fill:rgb(0, 0, 255);fill-opacity:0;fill-rule:evenodd;stroke:rgb(167, 255, 0);stroke-width:1;" d="M 391.336, 211.119 L 422.527, 168.664 L 442.166, 177.04 L 410.975, 219.495 L 391.336, 211.119 z "/>
<path style="fill:rgb(255, 255, 0);fill-opacity:0;fill-rule:evenodd;stroke:rgb(167, 255, 0);stroke-width:1;" d="M 446.209, 234.513 L 477.401, 192.058 L 496.173, 199.856 L 464.982, 242.31 L 446.209, 234.513 z "/>
<path style="fill:rgb(255, 0, 0);fill-opacity:0;fill-rule:evenodd;stroke:rgb(167, 255, 0);stroke-width:1;" d="M 121.3, 53.4296 L 130.253, 41.2996 L 194.079, 68.4477 L 185.415, 80.5776 L 144.404, 63.2491 L 121.3, 53.4296 z "/>
<path style="fill:rgb(0, 255, 0);fill-opacity:0;fill-rule:evenodd;stroke:rgb(167, 255, 0);stroke-width:1;" d="M 410.975, 219.495 L 442.166, 177.04 L 460.072, 184.549 L 428.881, 227.004 L 410.975, 219.495 z "/>
<path style="fill:rgb(0, 0, 255);fill-opacity:0;fill-rule:evenodd;stroke:rgb(167, 255, 0);stroke-width:1;" d="M 204.188, 356.101 L 229.314, 320.578 L 250.686, 329.242 L 225.56, 364.765 L 204.188, 356.101 z "/>
<path style="fill:rgb(255, 255, 0);fill-opacity:0;fill-rule:evenodd;stroke:rgb(167, 255, 0);stroke-width:1;" d="M 428.881, 227.004 L 460.072, 184.549 L 477.401, 192.058 L 446.209, 234.513 L 428.881, 227.004 z "/>
<path style="fill:rgb(255, 0, 0);fill-opacity:0;fill-rule:evenodd;stroke:rgb(167, 255, 0);stroke-width:1;" d="M 223.538, 367.942 L 225.56, 364.765 L 250.686, 329.242 L 270.036, 337.04 L 257.617, 354.946 L 249.819, 365.921 L 242.888, 375.74 L 223.538, 367.942 z "/>
<path style="fill:rgb(0, 255, 0);fill-opacity:0;fill-rule:evenodd;stroke:rgb(167, 255, 0);stroke-width:1;" d="M 374.585, 203.899 L 405.776, 161.444 L 422.527, 168.664 L 391.336, 211.119 L 374.585, 203.899 z "/>
<path style="fill:rgb(0, 0, 255);fill-opacity:0;fill-rule:evenodd;stroke:rgb(167, 255, 0);stroke-width:1;" d="M 66.1372, 577.617 L 89.8195, 544.693 L 93.8628, 546.426 L 111.48, 553.646 L 110.036, 555.668 L 98.7726, 571.264 L 87.7978, 586.57 L 66.1372, 577.617 z "/>
<path style="fill:rgb(255, 255, 0);fill-opacity:0;fill-rule:evenodd;stroke:rgb(167, 255, 0);stroke-width:1;" d="M 55.1625, 90.6859 L 87.7978, 46.2094 L 82.0217, 43.8989 L 94.7292, 26.5704 L 110.036, 32.9242 L 71.6245, 85.4874 L 64.6931, 94.7292 L 55.1625, 90.6859 z "/>
<path style="fill:rgb(255, 0, 0);fill-opacity:0;fill-rule:evenodd;stroke:rgb(167, 255, 0);stroke-width:1;" d="M 110.036, 555.668 L 111.48, 553.646 L 136.318, 519.278 L 154.801, 527.076 L 131.408, 559.711 L 128.809, 563.177 L 110.036, 555.668 z "/>
<path style="fill:rgb(0, 255, 0);fill-opacity:0;fill-rule:evenodd;stroke:rgb(167, 255, 0);stroke-width:1;" d="M 93.8628, 546.426 L 118.7, 512.058 L 136.318, 519.278 L 111.48, 553.646 L 93.8628, 546.426 z "/>
<path style="fill:rgb(0, 0, 255);fill-opacity:0;fill-rule:evenodd;stroke:rgb(167, 255, 0);stroke-width:1;" d="M 86.065, 589.17 L 87.7978, 586.57 L 98.7726, 571.264 L 130.83, 584.549 L 118.123, 602.455 L 86.065, 589.17 z "/>
<path style="fill:rgb(255, 255, 0);fill-opacity:0;fill-rule:evenodd;stroke:rgb(167, 255, 0);stroke-width:1;" d="M 62.9603, 177.617 L 73.0686, 163.466 L 112.347, 180.217 L 101.949, 194.079 L 62.9603, 177.617 z "/>
<path style="fill:rgb(255, 0, 0);fill-opacity:0;fill-rule:evenodd;stroke:rgb(167, 255, 0);stroke-width:1;" d="M 83.1769, 149.892 L 93.2852, 136.029 L 132.563, 152.491 L 122.166, 166.354 L 83.1769, 149.892 z "/>
<path style="fill:rgb(0, 255, 0);fill-opacity:0;fill-rule:evenodd;stroke:rgb(167, 255, 0);stroke-width:1;" d="M 73.0686, 163.466 L 83.1769, 149.892 L 122.166, 166.354 L 112.347, 180.217 L 73.0686, 163.466 z "/>
<path style="fill:rgb(0, 0, 255);fill-opacity:0;fill-rule:evenodd;stroke:rgb(167, 255, 0);stroke-width:1;" d="M 135.74, 75.0903 L 144.404, 63.2491 L 185.415, 80.5776 L 176.751, 92.4188 L 135.74, 75.0903 z "/>
<path style="fill:rgb(255, 255, 0);fill-opacity:0;fill-rule:evenodd;stroke:rgb(167, 255, 0);stroke-width:1;" d="M 118.7, 98.1949 L 127.365, 86.3538 L 168.375, 103.682 L 159.711, 115.523 L 118.7, 98.1949 z "/>
<path style="fill:rgb(255, 0, 0);fill-opacity:0;fill-rule:evenodd;stroke:rgb(167, 255, 0);stroke-width:1;" d="M 404.91, 329.531 L 427.437, 298.917 L 443.032, 305.848 L 420.505, 336.173 L 404.91, 329.531 z "/>
<path style="fill:rgb(0, 255, 0);fill-opacity:0;fill-rule:evenodd;stroke:rgb(167, 255, 0);stroke-width:1;" d="M 127.365, 86.3538 L 135.74, 75.0903 L 176.751, 92.4188 L 168.375, 103.682 L 127.365, 86.3538 z "/>
<path style="fill:rgb(0, 0, 255);fill-opacity:0;fill-rule:evenodd;stroke:rgb(167, 255, 0);stroke-width:1;" d="M 389.603, 323.177 L 412.13, 292.563 L 427.437, 298.917 L 404.91, 329.531 L 389.603, 323.177 z "/>
<path style="fill:rgb(255, 255, 0);fill-opacity:0;fill-rule:evenodd;stroke:rgb(167, 255, 0);stroke-width:1;" d="M 374.585, 316.823 L 397.112, 286.209 L 412.13, 292.563 L 389.603, 323.177 L 374.585, 316.823 z "/>
<path style="fill:rgb(255, 0, 0);fill-opacity:0;fill-rule:evenodd;stroke:rgb(167, 255, 0);stroke-width:1;" d="M 131.408, 559.711 L 154.801, 527.076 L 168.953, 532.852 L 145.271, 565.776 L 131.408, 559.711 z "/>
<path style="fill:rgb(0, 255, 0);fill-opacity:0;fill-rule:evenodd;stroke:rgb(167, 255, 0);stroke-width:1;" d="M 344.838, 304.116 L 367.365, 273.502 L 382.383, 279.856 L 359.856, 310.469 L 344.838, 304.116 z "/>
<path style="fill:rgb(0, 0, 255);fill-opacity:0;fill-rule:evenodd;stroke:rgb(167, 255, 0);stroke-width:1;" d="M 359.856, 310.469 L 382.383, 279.856 L 397.112, 286.209 L 374.585, 316.823 L 359.856, 310.469 z "/>
<path style="fill:rgb(255, 255, 0);fill-opacity:0;fill-rule:evenodd;stroke:rgb(167, 255, 0);stroke-width:1;" d="M 443.61, 346.282 L 462.671, 320.289 L 480.289, 327.798 L 461.227, 353.502 L 443.61, 346.282 z "/>
<path style="fill:rgb(255, 0, 0);fill-opacity:0;fill-rule:evenodd;stroke:rgb(167, 255, 0);stroke-width:1;" d="M 15.0181, 649.242 L 64.6931, 581.372 L 118.7, 604.188 L 76.5343, 662.238 L 50.2527, 651.264 L 43.3213, 661.083 L 15.0181, 649.242 z "/>
<path style="fill:rgb(0, 255, 0);fill-opacity:0;fill-rule:evenodd;stroke:rgb(167, 255, 0);stroke-width:1;" d="M 8.37545, 70.7581 L 49.9639, 14.1516 L 51.1191, 14.7292 L 52.852, 12.13 L 84.0433, 25.4152 L 82.5993, 28.0144 L 83.7545, 28.3032 L 42.1661, 85.1986 L 8.37545, 70.7581 z "/>
<path style="fill:rgb(0, 0, 255);fill-opacity:0;fill-rule:evenodd;stroke:rgb(167, 255, 0);stroke-width:1;" d="M 0, 507.148 L 12.4188, 489.819 L 30.9025, 497.617 L 45.0542, 503.394 L 54.5848, 507.437 L 80.2888, 518.123 L 98.1949, 525.632 L 101.083, 526.787 L 88.6643, 544.116 L 46.4982, 526.787 L 0, 507.148 z "/>
<path style="fill:rgb(255, 255, 0);fill-opacity:0;fill-rule:evenodd;stroke:rgb(167, 255, 0);stroke-width:1;" d="M 12.4188, 489.819 L 24.8375, 472.78 L 110.614, 508.592 L 98.1949, 525.632 L 80.2888, 518.123 L 78.556, 514.657 L 58.6282, 506.282 L 54.5848, 507.437 L 45.0542, 503.394 L 43.8989, 500.217 L 35.8123, 497.04 L 30.9025, 497.617 L 12.4188, 489.819 z "/>
<path style="fill:rgb(255, 0, 0);fill-opacity:0;fill-rule:evenodd;stroke:rgb(167, 255, 0);stroke-width:1;" d="M 556.245, 45.6318 L 589.747, 0 L 737.617, 62.6715 L 825.704, 99.9278 L 826.282, 99.0614 L 853.141, 110.325 L 797.978, 185.415 L 773.43, 175.018 L 761.3, 191.48 L 870.181, 237.69 L 836.39, 283.61 L 599.278, 183.105 L 632.491, 137.762 L 623.538, 132.274 L 633.357, 118.7 L 644.332, 121.588 L 665.993, 92.13 L 556.245, 45.6318 z "/>
</svg>