<?xml version="1.0" encoding="iso-8859-1" standalone="no"?>
<!DOCTYPE svg PUBLIC "-//W3C//DTD SVG 1.0//EN" "http://www.w3.org/TR/2001/REC-SVG-20010904/DTD/svg10.dtd">
<svg xmlns="http://www.w3.org/2000/svg" width="1054" height="800">
<path style="fill:rgb(255, 0, 0);fill-opacity:0;fill-rule:evenodd;stroke:rgb(135, 255, 0);stroke-width:1;" d="M 689.078, 263.233 L 720.901, 219.637 L 870.085, 282.548 L 845.436, 316.579 L 807.91, 300.759 L 810.853, 296.528 L 793.562, 289.354 L 770.752, 320.625 L 689.446, 286.227 L 702.138, 268.751 L 689.078, 263.233 z "/>
<path style="fill:rgb(0, 255, 0);fill-opacity:0;fill-rule:evenodd;stroke:rgb(135, 255, 0);stroke-width:1;" d="M 291.193, 305.358 L 325.776, 257.714 L 314.739, 253.116 L 327.616, 235.456 L 351.529, 245.574 L 355.76, 239.871 L 332.214, 229.938 L 345.827, 211.359 L 417.567, 241.527 L 403.771, 260.474 L 379.857, 250.356 L 375.811, 255.875 L 388.871, 261.209 L 341.412, 326.512 L 328.535, 320.993 L 329.271, 319.89 L 305.725, 309.956 L 304.622, 309.588 L 303.886, 310.692 L 291.193, 305.358 z "/>
<path style="fill:rgb(0, 0, 255);fill-opacity:0;fill-rule:evenodd;stroke:rgb(135, 255, 0);stroke-width:1;" d="M 685.215, 100.437 L 711.704, 63.8308 L 746.654, 78.3628 L 738.561, 89.3999 L 762.842, 99.5171 L 770.752, 88.4801 L 805.335, 103.012 L 797.425, 113.865 L 822.074, 124.35 L 830.168, 113.313 L 864.383, 127.845 L 837.894, 164.452 L 804.783, 150.471 L 803.495, 149.92 L 818.027, 130.053 L 793.194, 119.568 L 778.662, 139.618 L 744.079, 125.086 L 758.611, 105.036 L 734.514, 95.1023 L 719.982, 114.969 L 685.215, 100.437 z "/>
<path style="fill:rgb(255, 255, 0);fill-opacity:0;fill-rule:evenodd;stroke:rgb(135, 255, 0);stroke-width:1;" d="M 755.3, 196.275 L 772.407, 172.545 L 784.916, 177.88 L 804.783, 150.471 L 837.894, 164.452 L 866.59, 176.408 L 860.152, 185.238 L 855.185, 183.031 L 824.649, 225.339 L 755.3, 196.275 z "/>
<path style="fill:rgb(255, 0, 0);fill-opacity:0;fill-rule:evenodd;stroke:rgb(135, 255, 0);stroke-width:1;" d="M 940.906, 81.6739 L 948.816, 70.8209 L 955.438, 73.5801 L 980.271, 39.5493 L 974.569, 37.158 L 982.295, 26.3049 L 1040.06, 50.5863 L 999.218, 106.323 L 953.599, 87.0085 L 940.906, 81.6739 z "/>
<path style="fill:rgb(0, 255, 0);fill-opacity:0;fill-rule:evenodd;stroke:rgb(135, 255, 0);stroke-width:1;" d="M 248.333, 699.011 L 275.742, 661.485 L 361.646, 697.724 L 356.496, 704.898 L 353.553, 708.761 L 347.298, 706.001 L 335.893, 721.637 L 342.332, 724.212 L 334.238, 735.433 L 248.333, 699.011 z M 270.407, 693.493 L 287.146, 700.483 L 294.321, 690.55 L 277.581, 683.559 L 270.407, 693.493 z "/>
<path style="fill:rgb(0, 0, 255);fill-opacity:0;fill-rule:evenodd;stroke:rgb(135, 255, 0);stroke-width:1;" d="M 458.22, 664.613 L 462.635, 661.669 L 460.796, 660.934 L 503.104, 602.989 L 546.884, 621.384 L 525.178, 651 L 517.82, 661.117 L 503.656, 680.432 L 497.034, 689.63 L 460.98, 674.362 L 458.22, 664.613 z "/>
<path style="fill:rgb(255, 255, 0);fill-opacity:0;fill-rule:evenodd;stroke:rgb(135, 255, 0);stroke-width:1;" d="M 397.333, 140.17 L 416.28, 114.049 L 420.327, 115.705 L 434.123, 96.9418 L 498.505, 123.983 L 474.96, 156.358 L 472.017, 155.254 L 463.003, 167.579 L 444.424, 159.853 L 450.31, 151.943 L 444.792, 149.736 L 439.089, 157.645 L 397.333, 140.17 z "/>
<path style="fill:rgb(255, 0, 0);fill-opacity:0;fill-rule:evenodd;stroke:rgb(135, 255, 0);stroke-width:1;" d="M 469.625, 228.65 L 495.378, 193.516 L 515.613, 201.977 L 551.851, 152.127 L 543.573, 148.632 L 546.149, 144.953 L 581.283, 159.669 L 579.444, 162.06 L 542.286, 213.198 L 535.847, 210.439 L 510.278, 245.758 L 469.625, 228.65 z "/>
<path style="fill:rgb(0, 255, 0);fill-opacity:0;fill-rule:evenodd;stroke:rgb(135, 255, 0);stroke-width:1;" d="M 227.179, 127.11 L 290.09, 39.9172 L 320.993, 52.7937 L 257.898, 140.17 L 227.179, 127.11 z "/>
<path style="fill:rgb(0, 0, 255);fill-opacity:0;fill-rule:evenodd;stroke:rgb(135, 255, 0);stroke-width:1;" d="M 56.2888, 359.071 L 119.2, 271.879 L 150.103, 284.755 L 87.0085, 372.132 L 56.2888, 359.071 z "/>
<path style="fill:rgb(255, 255, 0);fill-opacity:0;fill-rule:evenodd;stroke:rgb(135, 255, 0);stroke-width:1;" d="M 143.113, 240.975 L 206.024, 153.782 L 236.928, 166.659 L 173.833, 254.035 L 143.113, 240.975 z "/>
<path style="fill:rgb(255, 0, 0);fill-opacity:0;fill-rule:evenodd;stroke:rgb(135, 255, 0);stroke-width:1;" d="M 805.702, 475.144 L 844.332, 421.982 L 894.918, 443.32 L 869.533, 478.271 L 868.981, 477.903 L 855.737, 496.114 L 850.77, 494.091 L 805.702, 475.144 z "/>
<path style="fill:rgb(0, 255, 0);fill-opacity:0;fill-rule:evenodd;stroke:rgb(135, 255, 0);stroke-width:1;" d="M 559.945, 106.875 L 583.49, 74.8678 L 579.444, 73.2122 L 598.758, 46.5394 L 602.805, 48.195 L 614.946, 31.4555 L 630.214, 37.8938 L 628.926, 39.5493 L 647.137, 47.2752 L 632.421, 67.5098 L 634.813, 68.4295 L 626.535, 79.6505 L 624.327, 78.7307 L 593.608, 121.039 L 559.945, 106.875 z "/>
<path style="fill:rgb(0, 0, 255);fill-opacity:0;fill-rule:evenodd;stroke:rgb(135, 255, 0);stroke-width:1;" d="M 277.581, 450.31 L 284.019, 441.297 L 309.772, 405.978 L 368.269, 430.812 L 335.893, 474.96 L 277.581, 450.31 z "/>
<path style="fill:rgb(255, 255, 0);fill-opacity:0;fill-rule:evenodd;stroke:rgb(135, 255, 0);stroke-width:1;" d="M 326.696, 745.735 L 334.238, 735.433 L 342.332, 724.212 L 353.553, 708.761 L 356.496, 704.898 L 419.591, 731.57 L 409.289, 745.735 L 399.724, 758.795 L 389.791, 772.223 L 326.696, 745.735 z "/>
<path style="fill:rgb(255, 0, 0);fill-opacity:0;fill-rule:evenodd;stroke:rgb(135, 255, 0);stroke-width:1;" d="M 64.3826, 733.042 L 75.6036, 718.694 L 90.8715, 725.684 L 88.4801, 728.627 L 98.4134, 733.042 L 98.7813, 732.674 L 102.644, 734.33 L 117.176, 715.751 L 120.487, 717.222 L 149.368, 680.248 L 168.131, 688.894 L 178.8, 675.282 L 194.252, 682.088 L 170.522, 712.44 L 152.679, 704.346 L 143.297, 716.119 L 141.642, 715.383 L 125.638, 735.985 L 148.08, 746.287 L 137.595, 759.531 L 109.818, 746.838 L 107.059, 750.149 L 103.748, 748.678 L 92.3431, 763.21 L 77.4431, 756.404 L 87.5604, 743.527 L 64.3826, 733.042 z "/>
<path style="fill:rgb(0, 255, 0);fill-opacity:0;fill-rule:evenodd;stroke:rgb(135, 255, 0);stroke-width:1;" d="M 554.61, 347.114 L 565.279, 332.582 L 581.283, 310.692 L 623.96, 328.719 L 650.448, 339.94 L 623.776, 376.362 L 554.61, 347.114 z "/>
<path style="fill:rgb(0, 0, 255);fill-opacity:0;fill-rule:evenodd;stroke:rgb(135, 255, 0);stroke-width:1;" d="M 761.003, 351.713 L 774.063, 333.686 L 777.926, 335.341 L 798.16, 309.588 L 790.802, 306.461 L 797.977, 296.528 L 807.91, 300.759 L 845.436, 316.579 L 832.007, 334.974 L 806.07, 370.66 L 761.003, 351.713 z "/>
<path style="fill:rgb(255, 255, 0);fill-opacity:0;fill-rule:evenodd;stroke:rgb(135, 255, 0);stroke-width:1;" d="M 280.156, 385.56 L 298.183, 360.727 L 299.287, 361.278 L 301.495, 358.335 L 302.046, 358.703 L 301.679, 356.312 L 297.816, 354.656 L 304.622, 345.275 L 381.881, 377.834 L 381.329, 378.57 L 375.075, 387.215 L 371.58, 385.744 L 368.82, 386.48 L 366.797, 389.055 L 368.085, 389.607 L 362.934, 396.597 L 363.302, 396.597 L 350.057, 414.992 L 331.662, 407.266 L 345.643, 388.135 L 337.549, 384.824 L 323.753, 403.955 L 306.277, 396.597 L 320.258, 377.466 L 311.98, 373.971 L 298, 393.102 L 280.156, 385.56 z M 314.739, 370.108 L 323.017, 373.603 L 324.856, 371.212 L 325.776, 371.58 L 327.616, 369.188 L 327.248, 366.613 L 319.522, 363.486 L 316.946, 364.774 L 317.314, 366.613 L 314.739, 370.108 z M 340.308, 381.145 L 348.218, 384.456 L 350.793, 381.145 L 353.92, 380.409 L 353.001, 377.834 L 346.195, 374.891 L 342.699, 375.627 L 343.251, 377.098 L 340.308, 381.145 z "/>
<path style="fill:rgb(255, 0, 0);fill-opacity:0;fill-rule:evenodd;stroke:rgb(135, 255, 0);stroke-width:1;" d="M 335.893, 170.154 L 355.208, 143.849 L 443.688, 180.823 L 430.996, 198.115 L 424.373, 207.312 L 335.893, 170.154 z "/>
<path style="fill:rgb(0, 255, 0);fill-opacity:0;fill-rule:evenodd;stroke:rgb(135, 255, 0);stroke-width:1;" d="M 669.763, 313.267 L 689.446, 286.227 L 770.752, 320.625 L 751.069, 347.482 L 669.763, 313.267 z "/>
<path style="fill:rgb(0, 0, 255);fill-opacity:0;fill-rule:evenodd;stroke:rgb(135, 255, 0);stroke-width:1;" d="M 239.135, 549.276 L 252.748, 530.513 L 259.554, 521.131 L 262.681, 516.9 L 270.959, 505.496 L 317.498, 525.178 L 285.491, 568.774 L 250.54, 554.058 L 239.135, 549.276 z "/>
<path style="fill:rgb(255, 255, 0);fill-opacity:0;fill-rule:evenodd;stroke:rgb(135, 255, 0);stroke-width:1;" d="M 902.46, 655.967 L 906.139, 650.816 L 934.836, 611.083 L 978.064, 629.11 L 945.689, 673.994 L 902.46, 655.967 z "/>
<path style="fill:rgb(255, 0, 0);fill-opacity:0;fill-rule:evenodd;stroke:rgb(135, 255, 0);stroke-width:1;" d="M 135.02, 560.129 L 138.699, 555.162 L 153.231, 535.112 L 229.202, 567.119 L 210.807, 592.504 L 191.124, 584.226 L 190.573, 584.962 L 181.559, 581.099 L 182.663, 579.811 L 163.9, 571.902 L 162.98, 573.373 L 153.966, 569.51 L 154.702, 568.407 L 135.02, 560.129 z "/>
<path style="fill:rgb(0, 255, 0);fill-opacity:0;fill-rule:evenodd;stroke:rgb(135, 255, 0);stroke-width:1;" d="M 437.25, 628.19 L 466.866, 587.721 L 503.104, 602.989 L 460.796, 660.934 L 458.22, 664.613 L 453.622, 670.867 L 442.585, 666.084 L 459.692, 642.906 L 447.919, 637.94 L 450.862, 633.893 L 437.25, 628.19 z "/>
<path style="fill:rgb(0, 0, 255);fill-opacity:0;fill-rule:evenodd;stroke:rgb(135, 255, 0);stroke-width:1;" d="M 862.543, 632.605 L 891.055, 593.056 L 934.836, 611.083 L 906.139, 650.816 L 862.543, 632.605 z "/>
<path style="fill:rgb(255, 255, 0);fill-opacity:0;fill-rule:evenodd;stroke:rgb(135, 255, 0);stroke-width:1;" d="M 114.969, 381.697 L 128.029, 363.67 L 142.745, 369.924 L 148.08, 362.566 L 133.364, 356.496 L 147.712, 336.997 L 166.291, 344.907 L 161.876, 350.793 L 171.81, 354.84 L 173.465, 352.633 L 187.445, 358.519 L 179.903, 368.82 L 177.328, 367.901 L 172.178, 375.075 L 175.121, 376.362 L 171.442, 381.145 L 174.201, 382.249 L 160.589, 400.828 L 114.969, 381.697 z "/>
<path style="fill:rgb(255, 0, 0);fill-opacity:0;fill-rule:evenodd;stroke:rgb(135, 255, 0);stroke-width:1;" d="M 211.911, 422.534 L 222.212, 408.37 L 231.777, 412.417 L 234.169, 411.865 L 238.584, 405.978 L 240.055, 403.771 L 229.018, 398.988 L 239.319, 384.824 L 262.681, 394.573 L 260.658, 397.333 L 265.072, 399.172 L 266.912, 396.413 L 290.825, 406.53 L 286.779, 412.233 L 280.524, 420.694 L 270.591, 416.464 L 269.671, 417.751 L 266.544, 416.28 L 261.577, 423.086 L 264.888, 424.373 L 263.785, 426.029 L 273.718, 430.076 L 269.855, 435.41 L 263.417, 444.24 L 211.911, 422.534 z "/>
<path style="fill:rgb(0, 255, 0);fill-opacity:0;fill-rule:evenodd;stroke:rgb(135, 255, 0);stroke-width:1;" d="M 584.594, 277.397 L 591.584, 267.832 L 596.183, 269.671 L 600.046, 269.303 L 611.819, 253.3 L 610.531, 250.54 L 605.748, 248.517 L 612.555, 239.135 L 635.548, 248.885 L 617.521, 273.718 L 613.106, 275.19 L 612.923, 276.661 L 618.441, 279.053 L 619.913, 276.845 L 624.879, 278.869 L 628.374, 279.053 L 637.388, 266.544 L 635.916, 264.153 L 630.766, 261.945 L 639.227, 250.356 L 668.476, 262.681 L 662.405, 271.143 L 659.83, 274.822 L 654.311, 272.43 L 651.184, 272.614 L 642.539, 284.387 L 643.826, 286.963 L 649.161, 289.17 L 649.161, 289.354 L 640.515, 300.943 L 584.594, 277.397 z "/>
<path style="fill:rgb(0, 0, 255);fill-opacity:0;fill-rule:evenodd;stroke:rgb(135, 255, 0);stroke-width:1;" d="M 557.186, 567.487 L 585.698, 527.937 L 589.009, 523.523 L 626.719, 539.158 L 619.913, 548.724 L 612.923, 558.473 L 605.932, 568.223 L 595.079, 583.307 L 557.186, 567.487 z "/>
<path style="fill:rgb(255, 255, 0);fill-opacity:0;fill-rule:evenodd;stroke:rgb(135, 255, 0);stroke-width:1;" d="M 841.389, 219.085 L 860.704, 192.412 L 918.648, 216.693 L 899.333, 243.366 L 841.389, 219.085 z "/>
<path style="fill:rgb(255, 0, 0);fill-opacity:0;fill-rule:evenodd;stroke:rgb(135, 255, 0);stroke-width:1;" d="M 939.802, 577.788 L 958.381, 552.771 L 987.445, 565.095 L 986.526, 566.383 L 987.997, 566.935 L 987.261, 568.039 L 1000.14, 573.373 L 1001.79, 571.166 L 1016.33, 577.42 L 1006.21, 591.216 L 997.747, 602.437 L 939.802, 577.788 z "/>
<path style="fill:rgb(0, 255, 0);fill-opacity:0;fill-rule:evenodd;stroke:rgb(135, 255, 0);stroke-width:1;" d="M 433.387, 288.618 L 447.551, 268.935 L 457.484, 272.982 L 465.21, 262.129 L 489.676, 272.246 L 492.067, 273.166 L 483.973, 284.571 L 490.412, 287.33 L 476.799, 306.461 L 470.177, 303.702 L 462.451, 314.739 L 435.594, 303.702 L 443.504, 292.665 L 433.387, 288.618 z "/>
<path style="fill:rgb(0, 0, 255);fill-opacity:0;fill-rule:evenodd;stroke:rgb(135, 255, 0);stroke-width:1;" d="M 599.126, 217.981 L 625.431, 181.927 L 626.535, 181.007 L 627.271, 180.639 L 628.926, 180.271 L 630.582, 180.271 L 631.501, 180.455 L 669.211, 196.275 L 662.221, 206.024 L 659.094, 204.737 L 655.967, 205.473 L 654.679, 206.944 L 655.415, 207.312 L 636.652, 232.881 L 622.488, 226.995 L 640.699, 201.794 L 641.619, 202.345 L 643.458, 199.77 L 642.722, 197.747 L 639.963, 196.643 L 636.836, 196.643 L 621.752, 217.429 L 622.672, 220.372 L 617.521, 227.179 L 612.187, 224.971 L 610.715, 226.995 L 599.678, 222.396 L 599.126, 217.981 z "/>
<path style="fill:rgb(255, 255, 0);fill-opacity:0;fill-rule:evenodd;stroke:rgb(135, 255, 0);stroke-width:1;" d="M 425.661, 454.725 L 439.641, 435.41 L 449.575, 439.641 L 453.805, 433.939 L 443.688, 429.708 L 457.852, 410.025 L 492.987, 424.557 L 483.238, 438.17 L 475.512, 435.043 L 470.545, 441.849 L 474.408, 443.504 L 456.933, 467.602 L 451.966, 465.578 L 425.661, 454.725 z "/>
<path style="fill:rgb(255, 0, 0);fill-opacity:0;fill-rule:evenodd;stroke:rgb(135, 255, 0);stroke-width:1;" d="M 679.513, 413.704 L 680.8, 411.865 L 695.332, 418.119 L 753.461, 442.585 L 737.825, 463.923 L 695.7, 446.08 L 685.767, 441.849 L 679.513, 413.704 z "/>
<path style="fill:rgb(0, 255, 0);fill-opacity:0;fill-rule:evenodd;stroke:rgb(135, 255, 0);stroke-width:1;" d="M 719.798, 752.541 L 729.179, 739.48 L 736.353, 738.377 L 741.504, 731.203 L 756.588, 710.416 L 783.444, 721.637 L 768.177, 742.791 L 763.394, 749.598 L 766.521, 755.116 L 757.14, 767.993 L 719.798, 752.541 z "/>
<path style="fill:rgb(0, 0, 255);fill-opacity:0;fill-rule:evenodd;stroke:rgb(135, 255, 0);stroke-width:1;" d="M 945.689, 673.994 L 978.064, 629.11 L 1007.5, 641.435 L 988.549, 667.74 L 975.121, 686.319 L 945.689, 673.994 z "/>
<path style="fill:rgb(255, 255, 0);fill-opacity:0;fill-rule:evenodd;stroke:rgb(135, 255, 0);stroke-width:1;" d="M 353.185, 330.927 L 360.727, 320.441 L 364.59, 321.913 L 367.901, 319.706 L 366.797, 319.338 L 385.192, 293.769 L 421.062, 308.669 L 419.223, 311.06 L 402.667, 334.238 L 400.276, 333.87 L 399.724, 336.813 L 403.403, 338.285 L 396.045, 348.586 L 353.185, 330.927 z M 377.65, 322.465 L 392.55, 329.087 L 400.828, 318.234 L 385.928, 311.612 L 379.857, 319.522 L 377.65, 322.465 z "/>
<path style="fill:rgb(255, 0, 0);fill-opacity:0;fill-rule:evenodd;stroke:rgb(135, 255, 0);stroke-width:1;" d="M 922.511, 419.591 L 929.685, 409.657 L 932.996, 411.129 L 936.491, 410.209 L 935.755, 408.922 L 954.702, 382.985 L 990.389, 398.069 L 971.81, 423.638 L 969.05, 423.638 L 969.97, 427.133 L 972.729, 428.236 L 966.659, 436.514 L 965.739, 437.802 L 922.511, 419.591 z M 946.792, 412.049 L 962.06, 418.303 L 970.154, 407.266 L 962.06, 403.955 L 954.886, 400.828 L 946.792, 412.049 z "/>
<path style="fill:rgb(0, 255, 0);fill-opacity:0;fill-rule:evenodd;stroke:rgb(135, 255, 0);stroke-width:1;" d="M 439.273, 692.573 L 454.541, 671.603 L 460.98, 674.362 L 497.034, 689.63 L 513.589, 696.62 L 498.138, 717.59 L 439.273, 692.573 z "/>
<path style="fill:rgb(0, 0, 255);fill-opacity:0;fill-rule:evenodd;stroke:rgb(135, 255, 0);stroke-width:1;" d="M 568.407, 514.877 L 577.972, 501.633 L 621.384, 519.66 L 620.097, 521.683 L 678.041, 545.781 L 669.947, 557.186 L 626.719, 539.158 L 589.009, 523.523 L 568.407, 514.877 z "/>
<path style="fill:rgb(255, 255, 0);fill-opacity:0;fill-rule:evenodd;stroke:rgb(135, 255, 0);stroke-width:1;" d="M 940.538, 125.086 L 959.669, 98.7813 L 948.448, 93.9986 L 953.599, 87.0085 L 999.218, 106.323 L 974.937, 139.618 L 940.538, 125.086 z "/>
<path style="fill:rgb(255, 0, 0);fill-opacity:0;fill-rule:evenodd;stroke:rgb(135, 255, 0);stroke-width:1;" d="M 551.851, 484.157 L 571.35, 457.668 L 614.21, 475.88 L 594.711, 502.184 L 594.711, 502.368 L 551.851, 484.157 z "/>
<path style="fill:rgb(0, 255, 0);fill-opacity:0;fill-rule:evenodd;stroke:rgb(135, 255, 0);stroke-width:1;" d="M 856.289, 190.573 L 860.152, 185.238 L 866.59, 176.408 L 869.165, 172.913 L 875.052, 175.305 L 931.524, 199.034 L 918.648, 216.693 L 860.704, 192.412 L 856.289, 190.573 z "/>
<path style="fill:rgb(0, 0, 255);fill-opacity:0;fill-rule:evenodd;stroke:rgb(135, 255, 0);stroke-width:1;" d="M 497.034, 689.63 L 503.656, 680.432 L 507.151, 681.904 L 514.141, 672.155 L 517.084, 673.442 L 568.958, 695.332 L 555.162, 714.095 L 519.292, 699.011 L 513.589, 696.62 L 497.034, 689.63 z "/>
<path style="fill:rgb(255, 255, 0);fill-opacity:0;fill-rule:evenodd;stroke:rgb(135, 255, 0);stroke-width:1;" d="M 971.81, 245.39 L 981.007, 232.697 L 1034.54, 255.139 L 1041.53, 245.574 L 1047.23, 247.965 L 1039.32, 259.002 L 1054.4, 265.256 L 1045.02, 278.133 L 1019.27, 267.096 L 1017.06, 270.223 L 1006.94, 265.992 L 1010.07, 261.577 L 971.81, 245.39 z "/>
<path style="fill:rgb(255, 0, 0);fill-opacity:0;fill-rule:evenodd;stroke:rgb(135, 255, 0);stroke-width:1;" d="M 449.023, 69.1653 L 455.277, 60.5197 L 458.588, 59.9678 L 462.083, 55.0011 L 461.163, 52.7937 L 464.291, 48.3789 L 467.418, 49.6666 L 472.384, 42.6765 L 469.257, 41.3888 L 475.88, 32.1913 L 476.799, 30.9037 L 490.228, 36.4222 L 482.686, 46.7234 L 481.03, 45.9876 L 475.696, 53.5295 L 481.766, 56.1049 L 487.284, 48.5629 L 485.813, 48.011 L 493.171, 37.7098 L 505.679, 43.0444 L 497.954, 53.7135 L 495.01, 52.4258 L 489.86, 59.5999 L 492.803, 60.7036 L 477.903, 81.306 L 449.023, 69.1653 z "/>
<path style="fill:rgb(0, 255, 0);fill-opacity:0;fill-rule:evenodd;stroke:rgb(135, 255, 0);stroke-width:1;" d="M 911.29, 490.412 L 931.524, 462.635 L 940.538, 466.314 L 939.25, 468.154 L 956.358, 475.144 L 957.461, 473.488 L 966.291, 477.167 L 961.324, 484.157 L 946.057, 505.128 L 911.29, 490.412 z "/>
<path style="fill:rgb(0, 0, 255);fill-opacity:0;fill-rule:evenodd;stroke:rgb(135, 255, 0);stroke-width:1;" d="M 474.776, 163.9 L 481.03, 155.07 L 484.525, 154.15 L 496.666, 137.779 L 495.562, 135.755 L 502.736, 125.822 L 530.145, 137.227 L 528.305, 139.618 L 525.914, 143.113 L 523.155, 142.01 L 520.212, 146.057 L 522.051, 148.448 L 519.844, 151.391 L 516.165, 151.575 L 499.609, 174.385 L 474.776, 163.9 z "/>
<path style="fill:rgb(255, 255, 0);fill-opacity:0;fill-rule:evenodd;stroke:rgb(135, 255, 0);stroke-width:1;" d="M 190.573, 413.52 L 200.138, 400.46 L 204.921, 393.838 L 213.382, 382.433 L 222.212, 370.292 L 243.55, 379.122 L 239.319, 384.824 L 229.018, 398.988 L 222.212, 408.37 L 211.911, 422.534 L 190.573, 413.52 z "/>
<path style="fill:rgb(255, 0, 0);fill-opacity:0;fill-rule:evenodd;stroke:rgb(135, 255, 0);stroke-width:1;" d="M 199.034, 265.624 L 214.854, 243.734 L 231.226, 250.54 L 228.466, 254.403 L 229.57, 258.082 L 242.998, 263.601 L 247.597, 257.347 L 261.761, 263.417 L 245.942, 285.123 L 199.034, 265.624 z "/>
<path style="fill:rgb(0, 255, 0);fill-opacity:0;fill-rule:evenodd;stroke:rgb(135, 255, 0);stroke-width:1;" d="M 662.957, 243.918 L 671.235, 232.513 L 675.466, 234.353 L 679.88, 234.353 L 689.078, 221.844 L 687.238, 218.717 L 682.64, 216.877 L 683.375, 215.774 L 690.917, 205.473 L 719.798, 217.613 L 708.577, 233.249 L 701.403, 230.306 L 700.667, 231.042 L 701.954, 231.593 L 701.035, 232.881 L 699.747, 232.329 L 693.493, 240.975 L 696.252, 243.734 L 699.747, 245.206 L 691.837, 256.059 L 662.957, 243.918 z "/>
<path style="fill:rgb(0, 0, 255);fill-opacity:0;fill-rule:evenodd;stroke:rgb(135, 255, 0);stroke-width:1;" d="M 904.116, 714.647 L 925.638, 685.031 L 932.26, 675.65 L 954.518, 685.031 L 947.712, 694.413 L 949, 694.78 L 927.662, 724.396 L 904.116, 714.647 z "/>
<path style="fill:rgb(255, 255, 0);fill-opacity:0;fill-rule:evenodd;stroke:rgb(135, 255, 0);stroke-width:1;" d="M 641.435, 386.664 L 649.529, 375.443 L 657.622, 378.938 L 669.579, 362.566 L 661.485, 359.255 L 669.579, 348.034 L 699.747, 360.727 L 691.653, 371.764 L 683.375, 368.269 L 671.603, 384.456 L 679.696, 387.951 L 671.603, 399.172 L 641.435, 386.664 z "/>
<path style="fill:rgb(255, 0, 0);fill-opacity:0;fill-rule:evenodd;stroke:rgb(135, 255, 0);stroke-width:1;" d="M 896.206, 559.945 L 904.116, 548.908 L 911.474, 552.035 L 923.615, 535.479 L 916.257, 532.352 L 924.534, 520.947 L 949.92, 531.616 L 932.26, 556.082 L 930.237, 555.162 L 928.213, 556.45 L 926.558, 558.841 L 932.628, 561.416 L 925.086, 572.086 L 896.206, 559.945 z "/>
<path style="fill:rgb(0, 255, 0);fill-opacity:0;fill-rule:evenodd;stroke:rgb(135, 255, 0);stroke-width:1;" d="M 994.068, 686.503 L 1001.61, 676.017 L 1005.1, 677.305 L 1004.18, 678.777 L 1007.86, 678.961 L 1010.99, 674.546 L 1013.38, 673.442 L 1021.48, 662.221 L 1019.08, 660.198 L 1018.53, 660.934 L 1013.93, 658.91 L 1022.21, 647.505 L 1051.28, 659.646 L 1043.18, 670.867 L 1038.22, 668.843 L 1038.58, 668.108 L 1034.9, 668.476 L 1027.18, 679.145 L 1026.99, 681.168 L 1023.87, 685.399 L 1025.16, 687.606 L 1025.71, 686.687 L 1030.31, 688.71 L 1024.97, 696.068 L 1023.13, 698.643 L 994.068, 686.503 z "/>
<path style="fill:rgb(0, 0, 255);fill-opacity:0;fill-rule:evenodd;stroke:rgb(135, 255, 0);stroke-width:1;" d="M 779.765, 511.014 L 792.826, 492.803 L 837.894, 511.75 L 831.456, 520.579 L 837.342, 523.155 L 830.536, 532.352 L 779.765, 511.014 z "/>
<path style="fill:rgb(255, 255, 0);fill-opacity:0;fill-rule:evenodd;stroke:rgb(135, 255, 0);stroke-width:1;" d="M 423.086, 209.152 L 424.373, 207.312 L 430.996, 198.115 L 435.962, 200.322 L 439.457, 200.138 L 450.126, 185.422 L 448.655, 183.031 L 443.688, 180.823 L 451.414, 170.338 L 480.11, 182.295 L 472.384, 193.148 L 467.234, 190.94 L 463.739, 191.308 L 453.07, 206.024 L 454.541, 208.048 L 459.876, 210.255 L 451.966, 221.292 L 423.086, 209.152 z "/>
<path style="fill:rgb(255, 0, 0);fill-opacity:0;fill-rule:evenodd;stroke:rgb(135, 255, 0);stroke-width:1;" d="M 671.603, 399.172 L 679.696, 387.951 L 687.054, 391.078 L 699.011, 374.891 L 691.653, 371.764 L 699.747, 360.727 L 728.443, 372.867 L 720.35, 383.904 L 712.808, 380.777 L 700.667, 397.517 L 708.209, 400.644 L 704.346, 405.978 L 700.299, 411.497 L 671.603, 399.172 z "/>
<path style="fill:rgb(0, 255, 0);fill-opacity:0;fill-rule:evenodd;stroke:rgb(135, 255, 0);stroke-width:1;" d="M 617.705, 384.824 L 623.776, 376.362 L 650.448, 339.94 L 669.579, 348.034 L 661.485, 359.255 L 649.529, 375.443 L 641.435, 386.664 L 636.836, 392.918 L 617.705, 384.824 z "/>
<path style="fill:rgb(0, 0, 255);fill-opacity:0;fill-rule:evenodd;stroke:rgb(135, 255, 0);stroke-width:1;" d="M 415.176, 624.327 L 423.454, 613.106 L 447.919, 579.628 L 466.866, 587.721 L 437.25, 628.19 L 434.307, 632.237 L 415.176, 624.327 z "/>
<path style="fill:rgb(255, 255, 0);fill-opacity:0;fill-rule:evenodd;stroke:rgb(135, 255, 0);stroke-width:1;" d="M 856.841, 495.746 L 869.349, 478.455 L 871.925, 479.559 L 897.494, 444.24 L 914.417, 451.414 L 880.018, 498.873 L 862.359, 491.699 L 858.864, 496.666 L 856.841, 495.746 z "/>
<path style="fill:rgb(255, 0, 0);fill-opacity:0;fill-rule:evenodd;stroke:rgb(135, 255, 0);stroke-width:1;" d="M 648.977, 688.158 L 662.037, 670.315 L 709.312, 690.182 L 709.129, 690.55 L 696.436, 708.025 L 648.977, 688.158 z "/>
<path style="fill:rgb(0, 255, 0);fill-opacity:0;fill-rule:evenodd;stroke:rgb(135, 255, 0);stroke-width:1;" d="M 562.52, 268.2 L 593.24, 226.075 L 607.404, 231.961 L 609.244, 229.754 L 615.13, 232.329 L 612.187, 236.376 L 611.635, 236.192 L 590.665, 264.888 L 591.584, 267.832 L 584.594, 277.397 L 562.52, 268.2 z M 592.136, 240.607 L 596.367, 242.447 L 598.758, 239.319 L 595.815, 238.032 L 594.711, 237.48 L 592.136, 240.607 z M 576.5, 263.233 L 580.915, 265.072 L 583.123, 262.129 L 578.708, 260.29 L 576.5, 263.233 z "/>
<path style="fill:rgb(0, 0, 255);fill-opacity:0;fill-rule:evenodd;stroke:rgb(135, 255, 0);stroke-width:1;" d="M 91.7912, 187.261 L 105.771, 168.131 L 119.2, 173.833 L 114.785, 179.903 L 131.341, 186.894 L 135.755, 180.823 L 150.471, 187.261 L 134.1, 209.519 L 119.384, 203.265 L 121.775, 199.954 L 91.7912, 187.261 z "/>
<path style="fill:rgb(255, 255, 0);fill-opacity:0;fill-rule:evenodd;stroke:rgb(135, 255, 0);stroke-width:1;" d="M 500.529, 718.51 L 507.151, 709.312 L 510.646, 710.784 L 519.292, 699.011 L 555.162, 714.095 L 539.71, 735.066 L 500.529, 718.51 z "/>
<path style="fill:rgb(255, 0, 0);fill-opacity:0;fill-rule:evenodd;stroke:rgb(135, 255, 0);stroke-width:1;" d="M 734.882, 570.246 L 747.206, 552.955 L 792.826, 572.086 L 780.317, 589.377 L 765.049, 582.939 L 734.882, 570.246 z "/>
<path style="fill:rgb(0, 255, 0);fill-opacity:0;fill-rule:evenodd;stroke:rgb(135, 255, 0);stroke-width:1;" d="M 880.018, 498.873 L 914.417, 451.414 L 931.708, 458.772 L 906.323, 493.723 L 903.012, 492.251 L 893.999, 504.944 L 880.018, 498.873 z "/>
<path style="fill:rgb(0, 0, 255);fill-opacity:0;fill-rule:evenodd;stroke:rgb(135, 255, 0);stroke-width:1;" d="M 107.243, 552.403 L 113.313, 543.941 L 118.464, 546.149 L 120.671, 543.021 L 119.568, 542.47 L 139.434, 515.429 L 155.622, 522.235 L 156.542, 520.947 L 157.829, 521.499 L 137.411, 549.46 L 136.491, 549.092 L 133.732, 552.955 L 138.699, 555.162 L 135.02, 560.129 L 132.812, 563.072 L 107.243, 552.403 z "/>
<path style="fill:rgb(255, 255, 0);fill-opacity:0;fill-rule:evenodd;stroke:rgb(135, 255, 0);stroke-width:1;" d="M 916.441, 114.969 L 940.906, 81.6739 L 953.599, 87.0085 L 948.448, 93.9986 L 959.669, 98.7813 L 940.538, 125.086 L 916.441, 114.969 z "/>
<path style="fill:rgb(255, 0, 0);fill-opacity:0;fill-rule:evenodd;stroke:rgb(135, 255, 0);stroke-width:1;" d="M 91.9752, 481.95 L 97.4937, 474.592 L 97.1258, 471.649 L 99.1492, 468.889 L 102.46, 467.602 L 111.658, 455.093 L 108.715, 453.805 L 117.912, 441.113 L 139.802, 450.31 L 131.524, 461.715 L 130.789, 462.635 L 127.478, 461.163 L 117.728, 474.408 L 118.832, 476.799 L 116.625, 479.742 L 113.497, 480.294 L 107.611, 488.572 L 91.9752, 481.95 z "/>
<path style="fill:rgb(0, 255, 0);fill-opacity:0;fill-rule:evenodd;stroke:rgb(135, 255, 0);stroke-width:1;" d="M 70.269, 473.12 L 75.9715, 465.21 L 75.7875, 463.003 L 77.4431, 460.612 L 77.9949, 459.876 L 80.9381, 458.588 L 90.1357, 446.08 L 87.1925, 444.792 L 88.4801, 442.952 L 96.5739, 432.099 L 117.912, 441.113 L 108.715, 453.805 L 105.587, 452.518 L 96.39, 465.21 L 97.1258, 467.786 L 96.7579, 468.154 L 94.7344, 471.097 L 91.4233, 472.017 L 85.7209, 479.742 L 70.269, 473.12 z "/>
<path style="fill:rgb(0, 0, 255);fill-opacity:0;fill-rule:evenodd;stroke:rgb(135, 255, 0);stroke-width:1;" d="M 167.211, 403.587 L 176.04, 391.446 L 178.248, 390.894 L 181.743, 386.112 L 181.191, 384.456 L 189.837, 372.499 L 213.382, 382.433 L 204.921, 393.838 L 202.529, 393.838 L 199.218, 398.62 L 200.138, 400.46 L 190.573, 413.52 L 167.211, 403.587 z "/>
<path style="fill:rgb(255, 255, 0);fill-opacity:0;fill-rule:evenodd;stroke:rgb(135, 255, 0);stroke-width:1;" d="M 884.617, 151.023 L 892.711, 139.618 L 925.27, 153.231 L 955.438, 165.923 L 947.16, 177.328 L 890.871, 153.599 L 884.617, 151.023 z "/>
<path style="fill:rgb(255, 0, 0);fill-opacity:0;fill-rule:evenodd;stroke:rgb(135, 255, 0);stroke-width:1;" d="M 695.332, 418.119 L 700.299, 411.497 L 704.346, 405.978 L 762.29, 430.444 L 753.461, 442.585 L 695.332, 418.119 z "/>
<path style="fill:rgb(0, 255, 0);fill-opacity:0;fill-rule:evenodd;stroke:rgb(135, 255, 0);stroke-width:1;" d="M 971.626, 513.405 L 992.78, 484.341 L 1016.88, 494.458 L 1012.65, 500.161 L 995.723, 523.523 L 971.626, 513.405 z "/>
<path style="fill:rgb(0, 0, 255);fill-opacity:0;fill-rule:evenodd;stroke:rgb(135, 255, 0);stroke-width:1;" d="M 392.918, 669.211 L 411.129, 644.01 L 418.487, 647.137 L 415.728, 650.816 L 418.487, 651.92 L 423.454, 645.298 L 435.043, 650.08 L 430.26, 656.887 L 433.019, 657.99 L 414.808, 683.008 L 397.517, 675.834 L 400.092, 672.155 L 392.918, 669.211 z "/>
<path style="fill:rgb(255, 255, 0);fill-opacity:0;fill-rule:evenodd;stroke:rgb(135, 255, 0);stroke-width:1;" d="M 720.35, 383.904 L 728.443, 372.867 L 729.179, 372.132 L 787.123, 396.597 L 778.294, 408.37 L 735.066, 390.159 L 720.35, 383.904 z "/>
<path style="fill:rgb(255, 0, 0);fill-opacity:0;fill-rule:evenodd;stroke:rgb(135, 255, 0);stroke-width:1;" d="M 813.796, 610.531 L 824.097, 596.367 L 831.272, 599.494 L 839.365, 588.641 L 832.007, 585.514 L 841.573, 572.269 L 864.567, 581.835 L 857.76, 591.4 L 854.265, 589.929 L 851.138, 590.297 L 851.69, 592.504 L 844.7, 602.069 L 845.068, 602.253 L 833.111, 618.625 L 813.796, 610.531 z "/>
<path style="fill:rgb(0, 255, 0);fill-opacity:0;fill-rule:evenodd;stroke:rgb(135, 255, 0);stroke-width:1;" d="M 17.1074, 514.325 L 38.6296, 484.893 L 61.8073, 494.826 L 45.4357, 517.084 L 40.4691, 524.258 L 17.1074, 514.325 z "/>
<path style="fill:rgb(0, 0, 255);fill-opacity:0;fill-rule:evenodd;stroke:rgb(135, 255, 0);stroke-width:1;" d="M 880.938, 553.507 L 883.33, 550.195 L 913.129, 509.358 L 928.213, 515.613 L 924.534, 520.947 L 916.257, 532.352 L 904.116, 548.908 L 896.206, 559.945 L 880.938, 553.507 z "/>
<path style="fill:rgb(255, 255, 0);fill-opacity:0;fill-rule:evenodd;stroke:rgb(135, 255, 0);stroke-width:1;" d="M 295.608, 632.421 L 329.823, 585.882 L 343.619, 591.768 L 343.987, 591.952 L 330.375, 610.531 L 330.559, 610.531 L 312.532, 635.181 L 311.98, 634.997 L 309.588, 638.492 L 295.608, 632.421 z "/>
<path style="fill:rgb(255, 0, 0);fill-opacity:0;fill-rule:evenodd;stroke:rgb(135, 255, 0);stroke-width:1;" d="M 704.346, 405.978 L 708.209, 400.644 L 712.624, 394.573 L 727.34, 400.644 L 770.568, 419.039 L 762.29, 430.444 L 704.346, 405.978 z "/>
<path style="fill:rgb(0, 255, 0);fill-opacity:0;fill-rule:evenodd;stroke:rgb(135, 255, 0);stroke-width:1;" d="M 385.376, 285.859 L 403.771, 260.474 L 417.567, 241.527 L 432.651, 247.781 L 424.373, 259.186 L 400.46, 292.113 L 385.376, 285.859 z "/>
<path style="fill:rgb(0, 0, 255);fill-opacity:0;fill-rule:evenodd;stroke:rgb(135, 255, 0);stroke-width:1;" d="M 833.111, 230.674 L 841.389, 219.085 L 899.333, 243.366 L 890.871, 254.771 L 833.111, 230.674 z "/>
<path style="fill:rgb(255, 255, 0);fill-opacity:0;fill-rule:evenodd;stroke:rgb(135, 255, 0);stroke-width:1;" d="M 620.097, 521.683 L 621.384, 519.66 L 628.374, 510.278 L 686.319, 534.376 L 678.041, 545.781 L 620.097, 521.683 z "/>
<path style="fill:rgb(255, 0, 0);fill-opacity:0;fill-rule:evenodd;stroke:rgb(135, 255, 0);stroke-width:1;" d="M 677.121, 734.698 L 683.559, 725.868 L 689.998, 717.038 L 696.436, 708.025 L 709.129, 690.55 L 724.029, 696.804 L 706.737, 720.717 L 692.205, 740.952 L 677.121, 734.698 z "/>
<path style="fill:rgb(0, 255, 0);fill-opacity:0;fill-rule:evenodd;stroke:rgb(135, 255, 0);stroke-width:1;" d="M 16.7395, 189.469 L 21.5222, 182.847 L 25.2012, 177.88 L 28.5123, 179.352 L 32.0074, 174.385 L 28.6963, 172.913 L 36.2382, 162.796 L 37.158, 161.508 L 40.653, 162.98 L 49.4826, 151.023 L 62.3592, 156.358 L 53.5295, 168.315 L 56.1049, 169.418 L 55.1851, 170.706 L 47.6431, 181.191 L 44.8839, 179.903 L 41.3888, 184.87 L 44.1481, 185.974 L 40.4691, 190.94 L 35.6864, 197.379 L 16.7395, 189.469 z "/>
<path style="fill:rgb(0, 0, 255);fill-opacity:0;fill-rule:evenodd;stroke:rgb(135, 255, 0);stroke-width:1;" d="M 813.06, 784.18 L 832.007, 758.059 L 834.215, 757.875 L 833.111, 755.3 L 829.432, 753.645 L 836.238, 744.263 L 859.6, 754.012 L 852.794, 763.578 L 848.931, 762.106 L 845.804, 762.658 L 847.091, 764.498 L 828.328, 790.619 L 813.06, 784.18 z "/>
<path style="fill:rgb(255, 255, 0);fill-opacity:0;fill-rule:evenodd;stroke:rgb(135, 255, 0);stroke-width:1;" d="M 595.079, 583.307 L 605.932, 568.223 L 613.29, 571.166 L 648.977, 586.066 L 638.124, 601.15 L 595.079, 583.307 z "/>
<path style="fill:rgb(255, 0, 0);fill-opacity:0;fill-rule:evenodd;stroke:rgb(135, 255, 0);stroke-width:1;" d="M 408.554, 288.618 L 425.661, 264.888 L 427.133, 265.44 L 429.524, 262.129 L 428.42, 260.842 L 424.373, 259.186 L 432.651, 247.781 L 455.645, 257.347 L 447.735, 268.384 L 443.32, 266.544 L 440.929, 267.464 L 438.722, 270.407 L 440.193, 270.959 L 423.086, 294.688 L 408.554, 288.618 z "/>
<path style="fill:rgb(0, 255, 0);fill-opacity:0;fill-rule:evenodd;stroke:rgb(135, 255, 0);stroke-width:1;" d="M 896.942, 350.793 L 905.036, 339.572 L 957.094, 361.462 L 963.164, 364.038 L 956.542, 373.051 L 955.07, 375.259 L 930.973, 365.141 L 896.942, 350.793 z "/>
<path style="fill:rgb(0, 0, 255);fill-opacity:0;fill-rule:evenodd;stroke:rgb(135, 255, 0);stroke-width:1;" d="M 628.374, 510.278 L 630.766, 506.967 L 636.284, 499.057 L 694.413, 523.339 L 686.319, 534.376 L 628.374, 510.278 z "/>
<path style="fill:rgb(255, 255, 0);fill-opacity:0;fill-rule:evenodd;stroke:rgb(135, 255, 0);stroke-width:1;" d="M 655.415, 307.197 L 663.877, 295.608 L 668.292, 289.538 L 677.305, 277.213 L 687.79, 262.681 L 689.078, 263.233 L 702.138, 268.751 L 689.446, 286.227 L 669.763, 313.267 L 655.415, 307.197 z "/>
<path style="fill:rgb(255, 0, 0);fill-opacity:0;fill-rule:evenodd;stroke:rgb(135, 255, 0);stroke-width:1;" d="M 836.054, 793.746 L 855.001, 767.441 L 856.841, 767.441 L 856.289, 765.049 L 852.794, 763.578 L 859.6, 754.012 L 882.042, 763.394 L 875.236, 772.775 L 871.373, 771.12 L 869.165, 771.488 L 870.085, 773.879 L 850.954, 800 L 836.054, 793.746 z "/>
<path style="fill:rgb(0, 255, 0);fill-opacity:0;fill-rule:evenodd;stroke:rgb(135, 255, 0);stroke-width:1;" d="M 335.893, 474.96 L 368.269, 430.812 L 382.065, 436.514 L 356.864, 471.281 L 357.415, 475.144 L 353.92, 479.742 L 349.874, 480.846 L 335.893, 474.96 z "/>
<path style="fill:rgb(0, 0, 255);fill-opacity:0;fill-rule:evenodd;stroke:rgb(135, 255, 0);stroke-width:1;" d="M 644.746, 236.192 L 663.141, 210.991 L 664.429, 211.543 L 665.716, 209.703 L 664.797, 207.128 L 662.221, 206.024 L 669.211, 196.275 L 690.917, 205.473 L 683.375, 215.774 L 680.8, 214.67 L 678.041, 215.038 L 677.673, 216.877 L 659.094, 242.447 L 644.746, 236.192 z "/>
<path style="fill:rgb(255, 255, 0);fill-opacity:0;fill-rule:evenodd;stroke:rgb(135, 255, 0);stroke-width:1;" d="M 636.284, 499.057 L 644.194, 488.388 L 702.138, 512.486 L 694.413, 523.339 L 636.284, 499.057 z "/>
<path style="fill:rgb(255, 0, 0);fill-opacity:0;fill-rule:evenodd;stroke:rgb(135, 255, 0);stroke-width:1;" d="M 779.03, 661.853 L 786.572, 651.368 L 790.251, 650.632 L 792.274, 648.057 L 790.802, 645.482 L 799.448, 633.709 L 803.863, 632.789 L 809.014, 625.615 L 822.074, 631.134 L 816.923, 638.308 L 817.843, 640.883 L 811.589, 649.529 L 808.646, 653.392 L 805.886, 653.943 L 804.047, 656.519 L 804.599, 659.278 L 797.241, 669.395 L 779.03, 661.853 z "/>
<path style="fill:rgb(0, 255, 0);fill-opacity:0;fill-rule:evenodd;stroke:rgb(135, 255, 0);stroke-width:1;" d="M 882.962, 164.452 L 890.871, 153.599 L 947.16, 177.328 L 939.25, 188.181 L 882.962, 164.452 z "/>
<path style="fill:rgb(0, 0, 255);fill-opacity:0;fill-rule:evenodd;stroke:rgb(135, 255, 0);stroke-width:1;" d="M 875.052, 175.305 L 882.962, 164.452 L 939.25, 188.181 L 931.524, 199.034 L 875.052, 175.305 z "/>
<path style="fill:rgb(255, 255, 0);fill-opacity:0;fill-rule:evenodd;stroke:rgb(135, 255, 0);stroke-width:1;" d="M 956.542, 373.051 L 963.164, 364.038 L 979.352, 341.78 L 987.445, 330.743 L 1001.79, 336.629 L 972.545, 376.73 L 970.89, 379.122 L 956.542, 373.051 z "/>
<path style="fill:rgb(255, 0, 0);fill-opacity:0;fill-rule:evenodd;stroke:rgb(135, 255, 0);stroke-width:1;" d="M 944.585, 514.325 L 965.371, 485.813 L 961.324, 484.157 L 966.291, 477.167 L 968.499, 474.04 L 989.837, 483.054 L 982.663, 492.987 L 978.984, 491.515 L 958.197, 520.028 L 944.585, 514.325 z "/>
<path style="fill:rgb(0, 255, 0);fill-opacity:0;fill-rule:evenodd;stroke:rgb(135, 255, 0);stroke-width:1;" d="M 388.687, 610.899 L 420.143, 567.855 L 433.939, 573.741 L 409.473, 607.22 L 402.667, 616.785 L 388.687, 610.899 z "/>
<path style="fill:rgb(0, 0, 255);fill-opacity:0;fill-rule:evenodd;stroke:rgb(135, 255, 0);stroke-width:1;" d="M 902.644, 109.083 L 931.157, 70.0851 L 942.194, 68.0616 L 948.816, 70.8209 L 940.906, 81.6739 L 916.441, 114.969 L 902.644, 109.083 z "/>
<path style="fill:rgb(255, 255, 0);fill-opacity:0;fill-rule:evenodd;stroke:rgb(135, 255, 0);stroke-width:1;" d="M 329.823, 585.882 L 361.095, 543.021 L 375.075, 548.908 L 366.061, 561.049 L 364.038, 563.808 L 356.496, 574.109 L 343.619, 591.768 L 329.823, 585.882 z "/>
<path style="fill:rgb(255, 0, 0);fill-opacity:0;fill-rule:evenodd;stroke:rgb(135, 255, 0);stroke-width:1;" d="M 864.567, 395.309 L 872.66, 384.088 L 900.989, 395.861 L 902.092, 397.885 L 927.478, 408.554 L 920.12, 418.671 L 864.567, 395.309 z "/>
<path style="fill:rgb(0, 255, 0);fill-opacity:0;fill-rule:evenodd;stroke:rgb(135, 255, 0);stroke-width:1;" d="M 972.545, 376.73 L 1001.79, 336.629 L 1016.51, 342.883 L 1008.78, 353.553 L 1007.31, 355.392 L 1001.06, 364.038 L 987.261, 382.985 L 972.545, 376.73 z "/>
<path style="fill:rgb(0, 0, 255);fill-opacity:0;fill-rule:evenodd;stroke:rgb(135, 255, 0);stroke-width:1;" d="M 517.82, 661.117 L 525.178, 651 L 531.065, 653.392 L 583.307, 675.466 L 575.948, 685.583 L 524.074, 663.693 L 517.82, 661.117 z "/>
<path style="fill:rgb(255, 255, 0);fill-opacity:0;fill-rule:evenodd;stroke:rgb(135, 255, 0);stroke-width:1;" d="M 872.66, 384.088 L 880.386, 373.419 L 914.785, 387.767 L 934.836, 396.229 L 927.11, 406.898 L 900.989, 395.861 L 872.66, 384.088 z "/>
<path style="fill:rgb(255, 0, 0);fill-opacity:0;fill-rule:evenodd;stroke:rgb(135, 255, 0);stroke-width:1;" d="M 477.903, 81.306 L 492.803, 60.7036 L 495.562, 57.0246 L 519.108, 66.9579 L 501.449, 91.2394 L 477.903, 81.306 z "/>
<path style="fill:rgb(0, 255, 0);fill-opacity:0;fill-rule:evenodd;stroke:rgb(135, 255, 0);stroke-width:1;" d="M 869.533, 544.493 L 882.594, 526.834 L 899.333, 503.472 L 913.129, 509.358 L 883.33, 550.195 L 869.533, 544.493 z "/>
<path style="fill:rgb(0, 0, 255);fill-opacity:0;fill-rule:evenodd;stroke:rgb(135, 255, 0);stroke-width:1;" d="M 370.844, 428.236 L 387.583, 405.243 L 401.564, 386.112 L 414.808, 391.63 L 383.904, 433.755 L 370.844, 428.236 z "/>
<path style="fill:rgb(255, 255, 0);fill-opacity:0;fill-rule:evenodd;stroke:rgb(135, 255, 0);stroke-width:1;" d="M 905.036, 339.572 L 913.129, 328.351 L 947.896, 343.067 L 946.608, 344.907 L 963.716, 352.265 L 957.094, 361.462 L 905.036, 339.572 z "/>
<path style="fill:rgb(255, 0, 0);fill-opacity:0;fill-rule:evenodd;stroke:rgb(135, 255, 0);stroke-width:1;" d="M 51.5061, 468.338 L 82.2258, 426.029 L 96.5739, 432.099 L 88.4801, 442.952 L 86.4567, 442.217 L 63.6468, 473.488 L 51.5061, 468.338 z "/>
<path style="fill:rgb(0, 255, 0);fill-opacity:0;fill-rule:evenodd;stroke:rgb(135, 255, 0);stroke-width:1;" d="M 913.129, 328.351 L 921.223, 317.314 L 953.047, 330.743 L 951.391, 332.95 L 971.626, 341.412 L 965.187, 350.241 L 947.896, 343.067 L 913.129, 328.351 z "/>
<path style="fill:rgb(0, 0, 255);fill-opacity:0;fill-rule:evenodd;stroke:rgb(135, 255, 0);stroke-width:1;" d="M 90.5036, 545.229 L 98.0455, 534.744 L 100.253, 533.64 L 103.564, 529.225 L 103.748, 527.018 L 112.762, 514.693 L 117.544, 516.716 L 119.752, 513.589 L 126.742, 516.533 L 124.534, 519.66 L 129.685, 521.683 L 120.855, 533.824 L 117.912, 534.56 L 114.417, 539.526 L 114.969, 541.918 L 113.313, 543.941 L 107.243, 552.403 L 90.5036, 545.229 z "/>
<path style="fill:rgb(255, 255, 0);fill-opacity:0;fill-rule:evenodd;stroke:rgb(135, 255, 0);stroke-width:1;" d="M 797.977, 611.083 L 829.616, 567.303 L 841.573, 572.269 L 832.007, 585.514 L 824.097, 596.367 L 813.796, 610.531 L 809.933, 616.05 L 797.977, 611.083 z "/>
<path style="fill:rgb(255, 0, 0);fill-opacity:0;fill-rule:evenodd;stroke:rgb(135, 255, 0);stroke-width:1;" d="M 348.218, 589.009 L 356.68, 577.42 L 358.887, 578.34 L 360.727, 575.948 L 356.496, 574.109 L 364.038, 563.808 L 366.797, 564.911 L 368.82, 562.152 L 366.061, 561.049 L 375.075, 548.908 L 389.791, 555.162 L 381.145, 566.935 L 378.386, 565.831 L 375.994, 569.142 L 378.754, 570.246 L 371.396, 580.363 L 367.901, 578.892 L 366.061, 581.283 L 368.453, 582.387 L 359.991, 593.976 L 348.218, 589.009 z "/>
<path style="fill:rgb(0, 255, 0);fill-opacity:0;fill-rule:evenodd;stroke:rgb(135, 255, 0);stroke-width:1;" d="M 686.871, 458.036 L 694.78, 447.183 L 695.7, 446.08 L 737.825, 463.923 L 728.995, 475.88 L 696.804, 462.267 L 686.871, 458.036 z "/>
<path style="fill:rgb(0, 0, 255);fill-opacity:0;fill-rule:evenodd;stroke:rgb(135, 255, 0);stroke-width:1;" d="M 786.388, 606.116 L 802.943, 583.307 L 818.027, 562.336 L 829.616, 567.303 L 797.977, 611.083 L 786.388, 606.116 z "/>
<path style="fill:rgb(255, 255, 0);fill-opacity:0;fill-rule:evenodd;stroke:rgb(135, 255, 0);stroke-width:1;" d="M 128.397, 495.378 L 135.939, 485.077 L 139.066, 483.605 L 135.571, 482.134 L 154.334, 456.381 L 169.05, 462.635 L 160.589, 474.04 L 157.645, 472.936 L 155.622, 475.88 L 158.381, 477.167 L 150.287, 488.388 L 146.976, 486.917 L 146.792, 489.86 L 139.25, 500.161 L 128.397, 495.378 z "/>
<path style="fill:rgb(255, 0, 0);fill-opacity:0;fill-rule:evenodd;stroke:rgb(135, 255, 0);stroke-width:1;" d="M 517.084, 673.442 L 524.074, 663.693 L 575.948, 685.583 L 568.958, 695.332 L 517.084, 673.442 z "/>
<path style="fill:rgb(0, 255, 0);fill-opacity:0;fill-rule:evenodd;stroke:rgb(135, 255, 0);stroke-width:1;" d="M 888.48, 362.198 L 896.942, 350.793 L 930.973, 365.141 L 931.341, 367.533 L 942.745, 372.315 L 936.859, 380.409 L 926.19, 375.994 L 923.247, 376.914 L 888.48, 362.198 z "/>
<path style="fill:rgb(0, 0, 255);fill-opacity:0;fill-rule:evenodd;stroke:rgb(135, 255, 0);stroke-width:1;" d="M 114.049, 489.492 L 121.591, 479.007 L 123.983, 477.351 L 120.855, 476.063 L 129.133, 464.842 L 131.892, 465.946 L 134.284, 462.819 L 131.524, 461.715 L 139.802, 450.31 L 154.334, 456.381 L 135.571, 482.134 L 132.628, 480.846 L 132.444, 483.605 L 124.718, 493.907 L 114.049, 489.492 z "/>
<path style="fill:rgb(255, 255, 0);fill-opacity:0;fill-rule:evenodd;stroke:rgb(135, 255, 0);stroke-width:1;" d="M 434.491, 63.095 L 442.033, 52.7937 L 444.424, 51.69 L 453.989, 38.2617 L 454.541, 35.6864 L 461.347, 26.1209 L 475.88, 32.1913 L 469.257, 41.3888 L 466.314, 43.0444 L 456.749, 56.2888 L 456.565, 58.6802 L 455.277, 60.5197 L 449.023, 69.1653 L 434.491, 63.095 z "/>
<path style="fill:rgb(255, 0, 0);fill-opacity:0;fill-rule:evenodd;stroke:rgb(135, 255, 0);stroke-width:1;" d="M 142.745, 501.633 L 150.287, 491.331 L 153.231, 489.676 L 150.287, 488.388 L 158.381, 477.167 L 161.14, 478.271 L 163.348, 475.328 L 160.589, 474.04 L 169.05, 462.635 L 183.582, 468.889 L 175.305, 480.294 L 172.178, 479.007 L 170.154, 481.766 L 173.281, 483.054 L 164.819, 494.642 L 161.876, 493.171 L 161.324, 495.93 L 153.782, 506.231 L 142.745, 501.633 z "/>
<path style="fill:rgb(0, 255, 0);fill-opacity:0;fill-rule:evenodd;stroke:rgb(135, 255, 0);stroke-width:1;" d="M 171.994, 513.957 L 181.007, 501.817 L 179.903, 499.425 L 186.342, 490.412 L 189.837, 491.883 L 192.78, 487.836 L 189.469, 486.365 L 197.931, 474.776 L 212.831, 481.03 L 204.553, 492.619 L 201.794, 491.515 L 198.666, 495.562 L 201.426, 496.85 L 194.803, 506.047 L 191.492, 506.599 L 182.847, 518.372 L 171.994, 513.957 z "/>
<path style="fill:rgb(0, 0, 255);fill-opacity:0;fill-rule:evenodd;stroke:rgb(135, 255, 0);stroke-width:1;" d="M 419.959, 56.8407 L 426.029, 48.5629 L 427.133, 46.9073 L 429.892, 45.6197 L 439.825, 32.1913 L 439.825, 29.4321 L 446.631, 19.8666 L 461.347, 26.1209 L 454.541, 35.6864 L 451.414, 37.158 L 441.481, 50.7703 L 442.033, 52.7937 L 434.491, 63.095 L 419.959, 56.8407 z "/>
<path style="fill:rgb(255, 255, 0);fill-opacity:0;fill-rule:evenodd;stroke:rgb(135, 255, 0);stroke-width:1;" d="M 880.386, 373.419 L 888.48, 362.198 L 923.247, 376.914 L 923.615, 378.57 L 934.652, 383.169 L 928.765, 391.446 L 918.648, 387.032 L 914.785, 387.767 L 880.386, 373.419 z "/>
<path style="fill:rgb(255, 0, 0);fill-opacity:0;fill-rule:evenodd;stroke:rgb(135, 255, 0);stroke-width:1;" d="M 987.997, 223.132 L 995.907, 212.279 L 997.931, 213.014 L 1040.79, 231.042 L 1032.88, 241.895 L 987.997, 223.132 z "/>
<path style="fill:rgb(0, 255, 0);fill-opacity:0;fill-rule:evenodd;stroke:rgb(135, 255, 0);stroke-width:1;" d="M 703.426, 745.919 L 718.142, 725.5 L 735.433, 701.587 L 746.47, 706.185 L 731.387, 726.972 L 714.463, 750.517 L 703.426, 745.919 z "/>
<path style="fill:rgb(0, 0, 255);fill-opacity:0;fill-rule:evenodd;stroke:rgb(135, 255, 0);stroke-width:1;" d="M 230.122, 537.687 L 238.4, 526.282 L 238.216, 524.074 L 244.838, 515.061 L 247.597, 516.165 L 250.724, 512.118 L 247.781, 510.83 L 256.243, 499.425 L 270.959, 505.496 L 262.681, 516.9 L 259.186, 515.429 L 256.059, 519.844 L 259.554, 521.131 L 252.748, 530.513 L 249.437, 530.881 L 241.159, 542.47 L 230.122, 537.687 z "/>
<path style="fill:rgb(255, 255, 0);fill-opacity:0;fill-rule:evenodd;stroke:rgb(135, 255, 0);stroke-width:1;" d="M 201.242, 525.914 L 209.519, 514.509 L 209.335, 511.934 L 215.958, 502.736 L 218.533, 503.84 L 221.66, 499.609 L 219.085, 498.505 L 227.363, 487.1 L 241.895, 493.355 L 233.433, 504.76 L 230.49, 503.472 L 227.363, 507.887 L 230.306, 509.175 L 223.684, 518.188 L 220.74, 518.924 L 212.279, 530.513 L 201.242, 525.914 z "/>
<path style="fill:rgb(255, 0, 0);fill-opacity:0;fill-rule:evenodd;stroke:rgb(135, 255, 0);stroke-width:1;" d="M 156.358, 507.335 L 157.094, 506.231 L 158.197, 506.599 L 165.003, 497.586 L 167.763, 495.746 L 164.819, 494.642 L 173.281, 483.054 L 176.04, 484.341 L 177.88, 481.582 L 175.305, 480.294 L 183.582, 468.889 L 197.931, 474.776 L 189.469, 486.365 L 186.71, 485.261 L 184.87, 487.836 L 187.445, 488.94 L 186.342, 490.412 L 179.903, 499.425 L 178.984, 500.529 L 176.04, 499.241 L 175.673, 502.184 L 168.315, 512.302 L 156.358, 507.335 z "/>
<path style="fill:rgb(0, 255, 0);fill-opacity:0;fill-rule:evenodd;stroke:rgb(135, 255, 0);stroke-width:1;" d="M 990.573, 381.145 L 1001.43, 366.061 L 1001.06, 364.038 L 1007.31, 355.392 L 1010.81, 356.864 L 1012.09, 355.024 L 1008.78, 353.553 L 1016.51, 342.883 L 1031.41, 349.138 L 1024.24, 358.887 L 1023.87, 359.255 L 1020, 357.783 L 1018.35, 360.175 L 1021.66, 361.646 L 1016.33, 369.188 L 1013.75, 369.924 L 1001.98, 385.928 L 990.573, 381.145 z "/>
<path style="fill:rgb(0, 0, 255);fill-opacity:0;fill-rule:evenodd;stroke:rgb(135, 255, 0);stroke-width:1;" d="M 335.893, 645.114 L 366.245, 603.725 L 366.797, 604.093 L 376.914, 608.324 L 377.834, 608.692 L 362.566, 629.478 L 347.666, 650.08 L 335.893, 645.114 z "/>
<path style="fill:rgb(255, 255, 0);fill-opacity:0;fill-rule:evenodd;stroke:rgb(135, 255, 0);stroke-width:1;" d="M 186.71, 519.66 L 195.171, 508.071 L 194.803, 506.047 L 201.426, 496.85 L 204.185, 497.954 L 207.128, 493.723 L 204.553, 492.619 L 212.831, 481.03 L 227.363, 487.1 L 219.085, 498.505 L 215.958, 497.218 L 212.831, 501.449 L 215.958, 502.736 L 209.335, 511.934 L 206.208, 512.854 L 197.931, 524.258 L 186.71, 519.66 z "/>
<path style="fill:rgb(255, 0, 0);fill-opacity:0;fill-rule:evenodd;stroke:rgb(135, 255, 0);stroke-width:1;" d="M 215.774, 531.616 L 223.868, 520.579 L 223.684, 518.188 L 230.306, 509.175 L 233.433, 510.462 L 236.56, 506.047 L 233.433, 504.76 L 241.895, 493.355 L 256.243, 499.425 L 247.781, 510.83 L 245.39, 509.726 L 242.263, 513.957 L 244.838, 515.061 L 238.216, 524.074 L 235.272, 524.994 L 226.995, 536.399 L 215.774, 531.616 z "/>
<path style="fill:rgb(0, 255, 0);fill-opacity:0;fill-rule:evenodd;stroke:rgb(135, 255, 0);stroke-width:1;" d="M 251.276, 287.698 L 259.922, 275.926 L 262.497, 277.029 L 265.624, 272.614 L 263.049, 271.511 L 269.119, 263.233 L 272.063, 262.497 L 280.708, 250.54 L 291.561, 255.139 L 283.1, 266.912 L 283.284, 269.119 L 277.029, 277.765 L 274.27, 276.661 L 271.327, 280.524 L 274.086, 281.628 L 265.44, 293.585 L 251.276, 287.698 z "/>
<path style="fill:rgb(0, 0, 255);fill-opacity:0;fill-rule:evenodd;stroke:rgb(135, 255, 0);stroke-width:1;" d="M 263.417, 444.24 L 269.855, 435.41 L 272.614, 434.675 L 275.558, 430.812 L 274.638, 428.972 L 276.293, 426.581 L 277.765, 427.133 L 281.26, 422.35 L 281.812, 422.534 L 288.066, 414.072 L 286.779, 412.233 L 290.825, 406.53 L 292.113, 404.875 L 305.174, 410.393 L 301.127, 416.096 L 299.839, 415.544 L 297.08, 419.039 L 298.367, 419.591 L 295.424, 423.638 L 292.849, 422.534 L 290.274, 426.029 L 291.929, 426.765 L 288.986, 430.996 L 289.906, 432.283 L 287.882, 434.859 L 286.043, 435.594 L 283.467, 439.089 L 284.019, 441.297 L 277.581, 450.31 L 263.417, 444.24 z "/>
<path style="fill:rgb(255, 255, 0);fill-opacity:0;fill-rule:evenodd;stroke:rgb(135, 255, 0);stroke-width:1;" d="M 531.065, 653.392 L 537.503, 644.378 L 589.929, 666.452 L 583.307, 675.466 L 531.065, 653.392 z "/>
<path style="fill:rgb(255, 0, 0);fill-opacity:0;fill-rule:evenodd;stroke:rgb(135, 255, 0);stroke-width:1;" d="M 369.188, 662.589 L 371.212, 660.014 L 376.73, 652.288 L 379.306, 651.552 L 386.48, 641.803 L 387.215, 642.171 L 390.894, 637.02 L 388.687, 636.1 L 397.149, 624.511 L 410.945, 630.398 L 403.955, 639.963 L 401.196, 639.963 L 398.436, 643.826 L 398.069, 643.642 L 395.861, 646.585 L 396.781, 647.137 L 390.159, 656.151 L 390.527, 658.174 L 385.008, 665.9 L 383.169, 668.476 L 369.188, 662.589 z "/>
<path style="fill:rgb(0, 255, 0);fill-opacity:0;fill-rule:evenodd;stroke:rgb(135, 255, 0);stroke-width:1;" d="M 555.53, 640.883 L 555.898, 640.515 L 556.266, 640.699 L 564.544, 629.478 L 604.645, 646.401 L 595.999, 657.99 L 555.53, 640.883 z "/>
<path style="fill:rgb(0, 0, 255);fill-opacity:0;fill-rule:evenodd;stroke:rgb(135, 255, 0);stroke-width:1;" d="M 376.914, 608.324 L 409.841, 563.624 L 420.143, 567.855 L 388.687, 610.899 L 387.399, 612.739 L 377.834, 608.692 L 376.914, 608.324 z "/>
<path style="fill:rgb(255, 255, 0);fill-opacity:0;fill-rule:evenodd;stroke:rgb(135, 255, 0);stroke-width:1;" d="M 409.473, 607.22 L 433.939, 573.741 L 447.919, 579.628 L 423.454, 613.106 L 409.473, 607.22 z "/>
<path style="fill:rgb(255, 0, 0);fill-opacity:0;fill-rule:evenodd;stroke:rgb(135, 255, 0);stroke-width:1;" d="M 727.34, 400.644 L 735.066, 390.159 L 778.294, 408.37 L 770.568, 419.039 L 727.34, 400.644 z "/>
<path style="fill:rgb(0, 255, 0);fill-opacity:0;fill-rule:evenodd;stroke:rgb(135, 255, 0);stroke-width:1;" d="M 366.797, 604.093 L 399.54, 559.209 L 409.841, 563.624 L 376.914, 608.324 L 366.797, 604.093 z "/>
<path style="fill:rgb(0, 0, 255);fill-opacity:0;fill-rule:evenodd;stroke:rgb(135, 255, 0);stroke-width:1;" d="M 212.647, 596.919 L 220.74, 585.698 L 225.891, 587.905 L 260.842, 602.621 L 252.748, 613.842 L 212.647, 596.919 z "/>
<path style="fill:rgb(255, 255, 0);fill-opacity:0;fill-rule:evenodd;stroke:rgb(135, 255, 0);stroke-width:1;" d="M 452.886, 524.074 L 485.077, 479.375 L 495.194, 483.605 L 463.003, 528.305 L 452.886, 524.074 z "/>
<path style="fill:rgb(255, 0, 0);fill-opacity:0;fill-rule:evenodd;stroke:rgb(135, 255, 0);stroke-width:1;" d="M 640.515, 300.943 L 649.161, 289.354 L 649.161, 289.17 L 651.184, 288.618 L 653.759, 284.939 L 653.759, 283.1 L 659.83, 274.822 L 662.405, 271.143 L 666.084, 272.614 L 668.108, 269.855 L 675.098, 272.798 L 673.074, 275.558 L 677.305, 277.213 L 668.292, 289.538 L 665.348, 289.722 L 662.957, 293.033 L 663.877, 295.608 L 655.415, 307.197 L 640.515, 300.943 z "/>
<path style="fill:rgb(0, 255, 0);fill-opacity:0;fill-rule:evenodd;stroke:rgb(135, 255, 0);stroke-width:1;" d="M 463.003, 528.305 L 495.194, 483.605 L 505.312, 487.836 L 487.468, 512.486 L 473.12, 532.536 L 463.003, 528.305 z "/>
<path style="fill:rgb(0, 0, 255);fill-opacity:0;fill-rule:evenodd;stroke:rgb(135, 255, 0);stroke-width:1;" d="M 536.767, 559.025 L 568.223, 515.613 L 578.524, 519.844 L 575.581, 523.707 L 547.068, 563.256 L 536.767, 559.025 z "/>
<path style="fill:rgb(255, 255, 0);fill-opacity:0;fill-rule:evenodd;stroke:rgb(135, 255, 0);stroke-width:1;" d="M 537.503, 644.378 L 543.757, 635.916 L 555.53, 640.883 L 595.999, 657.99 L 589.929, 666.452 L 537.503, 644.378 z "/>
<path style="fill:rgb(255, 0, 0);fill-opacity:0;fill-rule:evenodd;stroke:rgb(135, 255, 0);stroke-width:1;" d="M 41.5728, 480.846 L 49.2987, 470.177 L 63.6468, 476.247 L 64.7505, 478.087 L 71.0048, 480.662 L 73.948, 480.478 L 89.9517, 487.284 L 87.5604, 490.412 L 91.4233, 492.067 L 88.1122, 496.85 L 84.0653, 495.194 L 82.0418, 497.954 L 65.6703, 491.147 L 64.5666, 489.492 L 59.9678, 487.468 L 55.9209, 486.917 L 41.5728, 480.846 z "/>
<path style="fill:rgb(0, 255, 0);fill-opacity:0;fill-rule:evenodd;stroke:rgb(135, 255, 0);stroke-width:1;" d="M 442.952, 519.844 L 468.521, 484.709 L 475.144, 475.328 L 485.077, 479.375 L 452.886, 524.074 L 442.952, 519.844 z "/>
<path style="fill:rgb(0, 0, 255);fill-opacity:0;fill-rule:evenodd;stroke:rgb(135, 255, 0);stroke-width:1;" d="M 484.157, 461.163 L 507.151, 430.812 L 521.683, 437.066 L 518.372, 441.481 L 500.345, 465.946 L 494.826, 463.371 L 486.917, 462.451 L 484.157, 461.163 z "/>
<path style="fill:rgb(255, 255, 0);fill-opacity:0;fill-rule:evenodd;stroke:rgb(135, 255, 0);stroke-width:1;" d="M 526.65, 554.794 L 558.105, 511.382 L 568.223, 515.613 L 536.767, 559.025 L 526.65, 554.794 z "/>
<path style="fill:rgb(255, 0, 0);fill-opacity:0;fill-rule:evenodd;stroke:rgb(135, 255, 0);stroke-width:1;" d="M 357.048, 599.862 L 371.396, 580.363 L 378.754, 570.246 L 381.145, 566.935 L 389.791, 555.162 L 399.54, 559.209 L 366.797, 604.093 L 366.245, 603.725 L 358.519, 600.414 L 357.048, 599.862 z "/>
<path style="fill:rgb(0, 255, 0);fill-opacity:0;fill-rule:evenodd;stroke:rgb(135, 255, 0);stroke-width:1;" d="M 836.79, 620.097 L 857.76, 591.4 L 864.567, 581.835 L 875.971, 586.434 L 848.195, 624.879 L 836.79, 620.097 z "/>
<path style="fill:rgb(0, 0, 255);fill-opacity:0;fill-rule:evenodd;stroke:rgb(135, 255, 0);stroke-width:1;" d="M 16.3716, 294.137 L 22.258, 286.227 L 32.9271, 290.825 L 35.8703, 289.722 L 48.011, 294.872 L 46.1715, 297.264 L 49.8505, 298.735 L 51.5061, 296.528 L 65.4863, 302.598 L 67.1419, 303.334 L 58.8641, 314.187 L 43.7802, 307.749 L 45.0678, 305.909 L 41.0209, 304.07 L 39.7333, 305.909 L 27.7765, 300.759 L 27.0407, 298.735 L 16.3716, 294.137 z "/>
<path style="fill:rgb(255, 255, 0);fill-opacity:0;fill-rule:evenodd;stroke:rgb(135, 255, 0);stroke-width:1;" d="M 636.1, 706.185 L 642.539, 697.172 L 689.998, 717.038 L 683.559, 725.868 L 669.395, 719.982 L 636.1, 706.185 z "/>
<path style="fill:rgb(255, 0, 0);fill-opacity:0;fill-rule:evenodd;stroke:rgb(135, 255, 0);stroke-width:1;" d="M 642.539, 697.172 L 648.977, 688.158 L 696.436, 708.025 L 689.998, 717.038 L 642.539, 697.172 z "/>
<path style="fill:rgb(0, 255, 0);fill-opacity:0;fill-rule:evenodd;stroke:rgb(135, 255, 0);stroke-width:1;" d="M 517.084, 550.747 L 531.433, 530.881 L 548.356, 507.335 L 558.105, 511.382 L 526.65, 554.794 L 517.084, 550.747 z "/>
<path style="fill:rgb(0, 0, 255);fill-opacity:0;fill-rule:evenodd;stroke:rgb(135, 255, 0);stroke-width:1;" d="M 612.923, 558.473 L 619.913, 548.724 L 662.957, 566.567 L 655.967, 576.5 L 620.281, 561.6 L 612.923, 558.473 z "/>
<path style="fill:rgb(255, 255, 0);fill-opacity:0;fill-rule:evenodd;stroke:rgb(135, 255, 0);stroke-width:1;" d="M 988.549, 667.74 L 1007.5, 641.435 L 1022.21, 647.505 L 1013.93, 658.91 L 1003.08, 673.994 L 999.218, 672.338 L 996.459, 676.201 L 989.101, 673.074 L 992.044, 669.211 L 988.549, 667.74 z "/>
<path style="fill:rgb(255, 0, 0);fill-opacity:0;fill-rule:evenodd;stroke:rgb(135, 255, 0);stroke-width:1;" d="M 127.662, 148.448 L 135.387, 137.779 L 150.839, 144.217 L 151.575, 145.505 L 157.094, 147.896 L 159.853, 147.344 L 174.201, 153.231 L 166.107, 164.452 L 127.662, 148.448 z "/>
<path style="fill:rgb(0, 255, 0);fill-opacity:0;fill-rule:evenodd;stroke:rgb(135, 255, 0);stroke-width:1;" d="M 265.44, 293.585 L 274.086, 281.628 L 277.029, 277.765 L 283.284, 269.119 L 285.491, 266.176 L 300.207, 272.43 L 280.34, 299.839 L 265.44, 293.585 z "/>
<path style="fill:rgb(0, 0, 255);fill-opacity:0;fill-rule:evenodd;stroke:rgb(135, 255, 0);stroke-width:1;" d="M 619.913, 548.724 L 626.719, 539.158 L 669.947, 557.186 L 662.957, 566.567 L 619.913, 548.724 z "/>
<path style="fill:rgb(255, 255, 0);fill-opacity:0;fill-rule:evenodd;stroke:rgb(135, 255, 0);stroke-width:1;" d="M 799.264, 484.157 L 805.702, 475.144 L 850.77, 494.091 L 844.148, 502.92 L 799.264, 484.157 z "/>
<path style="fill:rgb(255, 0, 0);fill-opacity:0;fill-rule:evenodd;stroke:rgb(135, 255, 0);stroke-width:1;" d="M 547.068, 563.256 L 575.581, 523.707 L 585.698, 527.937 L 557.186, 567.487 L 547.068, 563.256 z "/>
<path style="fill:rgb(0, 255, 0);fill-opacity:0;fill-rule:evenodd;stroke:rgb(135, 255, 0);stroke-width:1;" d="M 242.263, 565.463 L 250.54, 554.058 L 285.491, 568.774 L 277.213, 580.179 L 242.263, 565.463 z "/>
<path style="fill:rgb(0, 0, 255);fill-opacity:0;fill-rule:evenodd;stroke:rgb(135, 255, 0);stroke-width:1;" d="M 233.985, 576.868 L 242.263, 565.463 L 277.213, 580.179 L 268.935, 591.584 L 233.985, 576.868 z "/>
<path style="fill:rgb(255, 255, 0);fill-opacity:0;fill-rule:evenodd;stroke:rgb(135, 255, 0);stroke-width:1;" d="M 206.944, 352.081 L 214.302, 341.964 L 217.245, 341.596 L 226.811, 328.351 L 226.995, 326.144 L 233.801, 316.762 L 234.537, 315.659 L 245.574, 320.258 L 244.838, 321.361 L 237.848, 330.927 L 218.717, 357.048 L 206.944, 352.081 z "/>
<path style="fill:rgb(255, 0, 0);fill-opacity:0;fill-rule:evenodd;stroke:rgb(135, 255, 0);stroke-width:1;" d="M 811.589, 649.529 L 817.843, 640.883 L 829.432, 624.695 L 845.436, 631.501 L 832.927, 648.609 L 827.593, 656.151 L 811.589, 649.529 z "/>
<path style="fill:rgb(0, 255, 0);fill-opacity:0;fill-rule:evenodd;stroke:rgb(135, 255, 0);stroke-width:1;" d="M 792.826, 492.803 L 799.264, 484.157 L 844.148, 502.92 L 837.894, 511.75 L 792.826, 492.803 z "/>
<path style="fill:rgb(0, 0, 255);fill-opacity:0;fill-rule:evenodd;stroke:rgb(135, 255, 0);stroke-width:1;" d="M 90.8715, 205.656 L 98.9653, 194.619 L 119.384, 203.265 L 134.1, 209.519 L 126.006, 220.556 L 90.8715, 205.656 z "/>
<path style="fill:rgb(255, 255, 0);fill-opacity:0;fill-rule:evenodd;stroke:rgb(135, 255, 0);stroke-width:1;" d="M 225.891, 587.905 L 233.985, 576.868 L 268.935, 591.584 L 260.842, 602.621 L 225.891, 587.905 z "/>
<path style="fill:rgb(255, 0, 0);fill-opacity:0;fill-rule:evenodd;stroke:rgb(135, 255, 0);stroke-width:1;" d="M 747.206, 552.955 L 753.093, 544.861 L 800.92, 564.911 L 795.033, 573.005 L 792.826, 572.086 L 747.206, 552.955 z "/>
<path style="fill:rgb(0, 255, 0);fill-opacity:0;fill-rule:evenodd;stroke:rgb(135, 255, 0);stroke-width:1;" d="M 474.776, 449.759 L 483.238, 438.17 L 492.987, 424.557 L 507.151, 430.812 L 484.157, 461.163 L 483.238, 460.796 L 479.191, 456.749 L 481.95, 452.886 L 474.776, 449.759 z "/>
<path style="fill:rgb(0, 0, 255);fill-opacity:0;fill-rule:evenodd;stroke:rgb(135, 255, 0);stroke-width:1;" d="M 483.789, 536.951 L 498.138, 517.084 L 509.358, 501.633 L 520.028, 506.231 L 508.991, 521.499 L 494.458, 541.366 L 483.789, 536.951 z "/>
<path style="fill:rgb(255, 255, 0);fill-opacity:0;fill-rule:evenodd;stroke:rgb(135, 255, 0);stroke-width:1;" d="M 869.533, 700.851 L 884.433, 679.88 L 894.55, 665.532 L 904.3, 669.579 L 893.999, 684.111 L 895.654, 684.663 L 880.938, 705.45 L 869.533, 700.851 z "/>
<path style="fill:rgb(255, 0, 0);fill-opacity:0;fill-rule:evenodd;stroke:rgb(135, 255, 0);stroke-width:1;" d="M 709.68, 605.197 L 717.958, 593.608 L 748.31, 606.3 L 745.919, 609.427 L 748.862, 610.531 L 744.999, 615.682 L 742.24, 614.578 L 739.848, 617.889 L 709.68, 605.197 z "/>
<path style="fill:rgb(0, 255, 0);fill-opacity:0;fill-rule:evenodd;stroke:rgb(135, 255, 0);stroke-width:1;" d="M 822.626, 681.168 L 837.526, 660.382 L 847.827, 646.034 L 856.841, 649.897 L 846.539, 664.061 L 848.931, 664.98 L 834.031, 685.951 L 822.626, 681.168 z "/>
<path style="fill:rgb(0, 0, 255);fill-opacity:0;fill-rule:evenodd;stroke:rgb(135, 255, 0);stroke-width:1;" d="M 800.92, 774.615 L 811.589, 759.715 L 826.305, 739.48 L 836.606, 743.895 L 836.238, 744.263 L 829.432, 753.645 L 811.221, 779.03 L 800.92, 774.615 z "/>
<path style="fill:rgb(255, 255, 0);fill-opacity:0;fill-rule:evenodd;stroke:rgb(135, 255, 0);stroke-width:1;" d="M 701.219, 616.785 L 709.68, 605.197 L 739.848, 617.889 L 737.825, 620.832 L 740.584, 621.936 L 736.905, 627.087 L 734.146, 625.799 L 731.57, 629.294 L 701.219, 616.785 z "/>
<path style="fill:rgb(255, 0, 0);fill-opacity:0;fill-rule:evenodd;stroke:rgb(135, 255, 0);stroke-width:1;" d="M 688.71, 473.488 L 696.804, 462.267 L 728.995, 475.88 L 720.901, 487.1 L 688.71, 473.488 z "/>
<path style="fill:rgb(0, 255, 0);fill-opacity:0;fill-rule:evenodd;stroke:rgb(135, 255, 0);stroke-width:1;" d="M 726.236, 582.019 L 734.882, 570.246 L 765.049, 582.939 L 756.588, 594.711 L 726.236, 582.019 z "/>
<path style="fill:rgb(0, 0, 255);fill-opacity:0;fill-rule:evenodd;stroke:rgb(135, 255, 0);stroke-width:1;" d="M 921.223, 317.314 L 929.317, 306.277 L 961.14, 319.706 L 953.047, 330.743 L 921.223, 317.314 z "/>
<path style="fill:rgb(255, 255, 0);fill-opacity:0;fill-rule:evenodd;stroke:rgb(135, 255, 0);stroke-width:1;" d="M 423.454, 511.75 L 449.023, 476.615 L 458.956, 480.846 L 433.571, 515.981 L 423.454, 511.75 z "/>
<path style="fill:rgb(255, 0, 0);fill-opacity:0;fill-rule:evenodd;stroke:rgb(135, 255, 0);stroke-width:1;" d="M 753.093, 544.861 L 758.427, 537.503 L 806.254, 557.553 L 800.92, 564.911 L 753.093, 544.861 z "/>
<path style="fill:rgb(0, 255, 0);fill-opacity:0;fill-rule:evenodd;stroke:rgb(135, 255, 0);stroke-width:1;" d="M 403.403, 503.472 L 428.972, 468.154 L 438.905, 472.384 L 413.52, 507.703 L 403.403, 503.472 z "/>
<path style="fill:rgb(0, 0, 255);fill-opacity:0;fill-rule:evenodd;stroke:rgb(135, 255, 0);stroke-width:1;" d="M 393.47, 499.241 L 419.039, 464.107 L 428.972, 468.154 L 403.403, 503.472 L 393.47, 499.241 z "/>
<path style="fill:rgb(255, 255, 0);fill-opacity:0;fill-rule:evenodd;stroke:rgb(135, 255, 0);stroke-width:1;" d="M 717.958, 593.608 L 726.236, 582.019 L 756.588, 594.711 L 748.31, 606.3 L 717.958, 593.608 z "/>
<path style="fill:rgb(255, 0, 0);fill-opacity:0;fill-rule:evenodd;stroke:rgb(135, 255, 0);stroke-width:1;" d="M 413.52, 507.703 L 438.905, 472.384 L 445.16, 474.96 L 449.023, 476.615 L 423.454, 511.75 L 413.52, 507.703 z "/>
<path style="fill:rgb(0, 255, 0);fill-opacity:0;fill-rule:evenodd;stroke:rgb(135, 255, 0);stroke-width:1;" d="M 733.042, 642.722 L 754.196, 613.474 L 766.153, 618.441 L 752.357, 637.572 L 744.999, 647.689 L 733.042, 642.722 z "/>
<path style="fill:rgb(0, 0, 255);fill-opacity:0;fill-rule:evenodd;stroke:rgb(135, 255, 0);stroke-width:1;" d="M 613.29, 571.166 L 620.281, 561.6 L 655.967, 576.5 L 648.977, 586.066 L 613.29, 571.166 z "/>
<path style="fill:rgb(255, 255, 0);fill-opacity:0;fill-rule:evenodd;stroke:rgb(135, 255, 0);stroke-width:1;" d="M 892.527, 710.416 L 907.427, 689.63 L 907.611, 689.63 L 914.049, 680.248 L 925.638, 685.031 L 904.116, 714.647 L 903.932, 715.015 L 892.527, 710.416 z "/>
<path style="fill:rgb(255, 0, 0);fill-opacity:0;fill-rule:evenodd;stroke:rgb(135, 255, 0);stroke-width:1;" d="M 433.571, 515.981 L 458.956, 480.846 L 468.521, 484.709 L 442.952, 519.844 L 433.571, 515.981 z "/>
<path style="fill:rgb(0, 255, 0);fill-opacity:0;fill-rule:evenodd;stroke:rgb(135, 255, 0);stroke-width:1;" d="M 568.774, 421.982 L 586.25, 397.885 L 590.481, 392.182 L 601.518, 396.965 L 595.999, 404.323 L 579.811, 426.581 L 568.774, 421.982 z "/>
<path style="fill:rgb(0, 0, 255);fill-opacity:0;fill-rule:evenodd;stroke:rgb(135, 255, 0);stroke-width:1;" d="M 328.167, 641.803 L 346.195, 617.153 L 358.519, 600.414 L 366.245, 603.725 L 335.893, 645.114 L 328.167, 641.803 z "/>
<path style="fill:rgb(255, 255, 0);fill-opacity:0;fill-rule:evenodd;stroke:rgb(135, 255, 0);stroke-width:1;" d="M 966.659, 436.514 L 972.729, 428.236 L 986.894, 408.738 L 998.482, 413.52 L 998.115, 414.072 L 978.248, 441.297 L 966.659, 436.514 z "/>
<path style="fill:rgb(255, 0, 0);fill-opacity:0;fill-rule:evenodd;stroke:rgb(135, 255, 0);stroke-width:1;" d="M 880.938, 705.45 L 895.654, 684.663 L 901.357, 677.121 L 910.554, 680.984 L 905.036, 688.526 L 907.427, 689.63 L 907.611, 689.63 L 892.527, 710.416 L 880.938, 705.45 z "/>
<path style="fill:rgb(0, 255, 0);fill-opacity:0;fill-rule:evenodd;stroke:rgb(135, 255, 0);stroke-width:1;" d="M 414.808, 683.008 L 433.019, 657.99 L 435.41, 654.863 L 443.504, 658.358 L 441.113, 661.301 L 444.608, 662.773 L 437.25, 672.89 L 434.859, 671.787 L 432.651, 674.73 L 435.043, 675.65 L 426.213, 687.974 L 414.808, 683.008 z "/>
<path style="fill:rgb(0, 0, 255);fill-opacity:0;fill-rule:evenodd;stroke:rgb(135, 255, 0);stroke-width:1;" d="M 999.954, 450.494 L 1019.64, 423.27 L 1030.86, 427.868 L 1011.17, 455.093 L 999.954, 450.494 z "/>
<path style="fill:rgb(255, 255, 0);fill-opacity:0;fill-rule:evenodd;stroke:rgb(135, 255, 0);stroke-width:1;" d="M 146.976, 336.629 L 153.047, 328.535 L 176.96, 338.653 L 189.653, 343.987 L 183.766, 352.265 L 166.291, 344.907 L 147.712, 336.997 L 146.976, 336.629 z "/>
<path style="fill:rgb(255, 0, 0);fill-opacity:0;fill-rule:evenodd;stroke:rgb(135, 255, 0);stroke-width:1;" d="M 616.969, 732.674 L 623.408, 723.661 L 656.703, 737.457 L 650.08, 746.654 L 616.969, 732.674 z "/>
<path style="fill:rgb(0, 255, 0);fill-opacity:0;fill-rule:evenodd;stroke:rgb(135, 255, 0);stroke-width:1;" d="M 988.917, 445.896 L 1008.78, 418.487 L 1019.64, 423.27 L 999.954, 450.494 L 988.917, 445.896 z "/>
<path style="fill:rgb(0, 0, 255);fill-opacity:0;fill-rule:evenodd;stroke:rgb(135, 255, 0);stroke-width:1;" d="M 610.347, 741.688 L 616.969, 732.674 L 650.08, 746.654 L 643.642, 755.484 L 610.347, 741.688 z "/>
<path style="fill:rgb(255, 255, 0);fill-opacity:0;fill-rule:evenodd;stroke:rgb(135, 255, 0);stroke-width:1;" d="M 694.229, 626.535 L 701.219, 616.785 L 731.57, 629.294 L 724.396, 639.227 L 694.229, 626.535 z "/>
<path style="fill:rgb(255, 0, 0);fill-opacity:0;fill-rule:evenodd;stroke:rgb(135, 255, 0);stroke-width:1;" d="M 238.584, 351.713 L 256.979, 326.512 L 268.751, 331.479 L 250.54, 356.312 L 250.356, 356.68 L 238.584, 351.713 z "/>
<path style="fill:rgb(0, 255, 0);fill-opacity:0;fill-rule:evenodd;stroke:rgb(135, 255, 0);stroke-width:1;" d="M 227.179, 346.93 L 238.584, 331.295 L 237.848, 330.927 L 244.838, 321.361 L 256.979, 326.512 L 238.584, 351.713 L 227.179, 346.93 z "/>
<path style="fill:rgb(0, 0, 255);fill-opacity:0;fill-rule:evenodd;stroke:rgb(135, 255, 0);stroke-width:1;" d="M 953.047, 330.743 L 961.14, 319.706 L 987.445, 330.743 L 979.352, 341.78 L 953.047, 330.743 z "/>
<path style="fill:rgb(255, 255, 0);fill-opacity:0;fill-rule:evenodd;stroke:rgb(135, 255, 0);stroke-width:1;" d="M 261.761, 361.462 L 262.129, 361.095 L 280.156, 336.261 L 291.745, 341.228 L 273.35, 366.429 L 261.761, 361.462 z "/>
<path style="fill:rgb(255, 0, 0);fill-opacity:0;fill-rule:evenodd;stroke:rgb(135, 255, 0);stroke-width:1;" d="M 597.839, 759.163 L 604.093, 750.333 L 637.388, 764.314 L 630.95, 773.143 L 597.839, 759.163 z "/>
<path style="fill:rgb(0, 255, 0);fill-opacity:0;fill-rule:evenodd;stroke:rgb(135, 255, 0);stroke-width:1;" d="M 978.248, 441.297 L 998.115, 414.072 L 1008.78, 418.487 L 988.917, 445.896 L 978.248, 441.297 z "/>
<path style="fill:rgb(0, 0, 255);fill-opacity:0;fill-rule:evenodd;stroke:rgb(135, 255, 0);stroke-width:1;" d="M 629.846, 714.831 L 636.1, 706.185 L 669.395, 719.982 L 662.957, 728.811 L 629.846, 714.831 z "/>
<path style="fill:rgb(255, 255, 0);fill-opacity:0;fill-rule:evenodd;stroke:rgb(135, 255, 0);stroke-width:1;" d="M 623.408, 723.661 L 629.846, 714.831 L 662.957, 728.811 L 656.703, 737.457 L 623.408, 723.661 z "/>
<path style="fill:rgb(255, 0, 0);fill-opacity:0;fill-rule:evenodd;stroke:rgb(135, 255, 0);stroke-width:1;" d="M 501.449, 91.2394 L 519.108, 66.9579 L 531.065, 71.9246 L 513.405, 96.206 L 501.449, 91.2394 z "/>
<path style="fill:rgb(0, 255, 0);fill-opacity:0;fill-rule:evenodd;stroke:rgb(135, 255, 0);stroke-width:1;" d="M 604.093, 750.333 L 610.347, 741.688 L 643.642, 755.484 L 637.388, 764.314 L 604.093, 750.333 z "/>
<path style="fill:rgb(0, 0, 255);fill-opacity:0;fill-rule:evenodd;stroke:rgb(135, 255, 0);stroke-width:1;" d="M 1003.08, 517.82 L 1018.35, 496.666 L 1031.96, 502.368 L 1016.69, 523.339 L 1016.69, 523.523 L 1003.08, 517.82 z "/>
<path style="fill:rgb(255, 255, 0);fill-opacity:0;fill-rule:evenodd;stroke:rgb(135, 255, 0);stroke-width:1;" d="M 250.54, 356.312 L 268.751, 331.479 L 280.156, 336.261 L 262.129, 361.095 L 250.54, 356.312 z "/>
<path style="fill:rgb(255, 0, 0);fill-opacity:0;fill-rule:evenodd;stroke:rgb(135, 255, 0);stroke-width:1;" d="M 937.227, 729.363 L 952.127, 708.577 L 958.565, 699.563 L 964.636, 702.138 L 965.555, 707.105 L 961.508, 712.624 L 946.608, 733.226 L 937.227, 729.363 z "/>
<path style="fill:rgb(0, 255, 0);fill-opacity:0;fill-rule:evenodd;stroke:rgb(135, 255, 0);stroke-width:1;" d="M 956.542, 737.457 L 971.626, 716.67 L 977.144, 708.945 L 986.894, 712.991 L 981.191, 720.717 L 966.291, 741.504 L 956.542, 737.457 z "/>
<path style="fill:rgb(0, 0, 255);fill-opacity:0;fill-rule:evenodd;stroke:rgb(135, 255, 0);stroke-width:1;" d="M 997.379, 754.38 L 1014.49, 730.835 L 1026.07, 735.617 L 1008.97, 759.347 L 997.379, 754.38 z "/>
<path style="fill:rgb(255, 255, 0);fill-opacity:0;fill-rule:evenodd;stroke:rgb(135, 255, 0);stroke-width:1;" d="M 706.737, 720.717 L 724.029, 696.804 L 735.433, 701.587 L 718.142, 725.5 L 706.737, 720.717 z "/>
<path style="fill:rgb(255, 0, 0);fill-opacity:0;fill-rule:evenodd;stroke:rgb(135, 255, 0);stroke-width:1;" d="M 985.974, 749.598 L 1000.87, 728.995 L 1002.9, 726.052 L 1014.49, 730.835 L 997.379, 754.38 L 985.974, 749.598 z "/>
<path style="fill:rgb(0, 255, 0);fill-opacity:0;fill-rule:evenodd;stroke:rgb(135, 255, 0);stroke-width:1;" d="M 616.05, 500.713 L 629.478, 482.318 L 644.194, 488.388 L 636.284, 499.057 L 630.766, 506.967 L 616.05, 500.713 z "/>
<path style="fill:rgb(0, 0, 255);fill-opacity:0;fill-rule:evenodd;stroke:rgb(135, 255, 0);stroke-width:1;" d="M 927.11, 725.132 L 927.662, 724.396 L 949, 694.78 L 955.622, 697.54 L 948.632, 707.105 L 952.127, 708.577 L 937.227, 729.363 L 927.11, 725.132 z "/>
<path style="fill:rgb(255, 255, 0);fill-opacity:0;fill-rule:evenodd;stroke:rgb(135, 255, 0);stroke-width:1;" d="M 509.542, 472.384 L 515.613, 463.555 L 528.673, 445.712 L 538.791, 449.943 L 525.914, 467.97 L 520.028, 475.88 L 509.542, 472.384 z "/>
<path style="fill:rgb(255, 0, 0);fill-opacity:0;fill-rule:evenodd;stroke:rgb(135, 255, 0);stroke-width:1;" d="M 67.6937, 50.0345 L 84.0653, 27.5926 L 96.0221, 32.7432 L 79.6505, 55.0011 L 67.6937, 50.0345 z "/>
<path style="fill:rgb(0, 255, 0);fill-opacity:0;fill-rule:evenodd;stroke:rgb(135, 255, 0);stroke-width:1;" d="M 114.233, 69.7172 L 130.421, 47.2752 L 142.194, 52.2419 L 125.822, 74.6838 L 114.233, 69.7172 z "/>
<path style="fill:rgb(0, 0, 255);fill-opacity:0;fill-rule:evenodd;stroke:rgb(135, 255, 0);stroke-width:1;" d="M 812.509, 676.937 L 813.06, 676.201 L 824.281, 660.75 L 827.593, 656.151 L 832.927, 648.609 L 840.469, 651.736 L 835.135, 659.278 L 837.526, 660.382 L 822.626, 681.168 L 812.509, 676.937 z "/>
<path style="fill:rgb(255, 255, 0);fill-opacity:0;fill-rule:evenodd;stroke:rgb(135, 255, 0);stroke-width:1;" d="M 56.1049, 45.0678 L 72.2925, 22.8098 L 84.0653, 27.5926 L 67.6937, 50.0345 L 56.1049, 45.0678 z "/>
<path style="fill:rgb(255, 0, 0);fill-opacity:0;fill-rule:evenodd;stroke:rgb(135, 255, 0);stroke-width:1;" d="M 125.822, 74.6838 L 142.194, 52.2419 L 153.966, 57.2086 L 137.595, 79.6505 L 125.822, 74.6838 z "/>
<path style="fill:rgb(0, 255, 0);fill-opacity:0;fill-rule:evenodd;stroke:rgb(135, 255, 0);stroke-width:1;" d="M 960.589, 528.489 L 968.499, 517.636 L 992.596, 527.754 L 984.686, 538.607 L 960.589, 528.489 z "/>
<path style="fill:rgb(0, 0, 255);fill-opacity:0;fill-rule:evenodd;stroke:rgb(135, 255, 0);stroke-width:1;" d="M 656.335, 459.876 L 672.89, 437.066 L 684.479, 442.033 L 683.927, 442.585 L 667.74, 464.659 L 656.335, 459.876 z "/>
<path style="fill:rgb(255, 255, 0);fill-opacity:0;fill-rule:evenodd;stroke:rgb(135, 255, 0);stroke-width:1;" d="M 1011.17, 455.093 L 1030.86, 427.868 L 1040.42, 431.915 L 1020.74, 459.14 L 1011.17, 455.093 z "/>
<path style="fill:rgb(255, 0, 0);fill-opacity:0;fill-rule:evenodd;stroke:rgb(135, 255, 0);stroke-width:1;" d="M 91.0554, 59.9678 L 107.427, 37.5259 L 119.016, 42.4925 L 102.828, 64.9345 L 91.0554, 59.9678 z "/>
<path style="fill:rgb(0, 255, 0);fill-opacity:0;fill-rule:evenodd;stroke:rgb(135, 255, 0);stroke-width:1;" d="M 842.676, 537.503 L 857.944, 516.349 L 870.269, 521.683 L 855.001, 542.653 L 842.676, 537.503 z "/>
<path style="fill:rgb(0, 0, 255);fill-opacity:0;fill-rule:evenodd;stroke:rgb(135, 255, 0);stroke-width:1;" d="M 79.6505, 55.0011 L 96.0221, 32.7432 L 107.427, 37.5259 L 91.0554, 59.9678 L 79.6505, 55.0011 z "/>
<path style="fill:rgb(255, 255, 0);fill-opacity:0;fill-rule:evenodd;stroke:rgb(135, 255, 0);stroke-width:1;" d="M 44.516, 40.2851 L 60.8876, 17.8432 L 72.2925, 22.8098 L 56.1049, 45.0678 L 44.516, 40.2851 z "/>
<path style="fill:rgb(255, 0, 0);fill-opacity:0;fill-rule:evenodd;stroke:rgb(135, 255, 0);stroke-width:1;" d="M 855.001, 542.653 L 870.269, 521.683 L 882.594, 526.834 L 869.533, 544.493 L 867.326, 547.804 L 855.001, 542.653 z "/>
<path style="fill:rgb(0, 255, 0);fill-opacity:0;fill-rule:evenodd;stroke:rgb(135, 255, 0);stroke-width:1;" d="M 102.828, 64.9345 L 119.016, 42.4925 L 130.421, 47.2752 L 114.233, 69.7172 L 102.828, 64.9345 z "/>
<path style="fill:rgb(0, 0, 255);fill-opacity:0;fill-rule:evenodd;stroke:rgb(135, 255, 0);stroke-width:1;" d="M 623.592, 444.976 L 639.779, 422.902 L 651.184, 427.685 L 634.997, 449.943 L 623.592, 444.976 z "/>
<path style="fill:rgb(255, 255, 0);fill-opacity:0;fill-rule:evenodd;stroke:rgb(135, 255, 0);stroke-width:1;" d="M 857.209, 695.516 L 872.292, 674.73 L 884.433, 679.88 L 869.533, 700.851 L 857.209, 695.516 z "/>
<path style="fill:rgb(255, 0, 0);fill-opacity:0;fill-rule:evenodd;stroke:rgb(135, 255, 0);stroke-width:1;" d="M 830.536, 532.352 L 837.342, 523.155 L 845.804, 511.382 L 857.944, 516.349 L 842.676, 537.503 L 830.536, 532.352 z "/>
<path style="fill:rgb(0, 255, 0);fill-opacity:0;fill-rule:evenodd;stroke:rgb(135, 255, 0);stroke-width:1;" d="M 158.933, 320.441 L 178.616, 293.585 L 187.997, 297.448 L 174.385, 316.027 L 168.315, 324.304 L 158.933, 320.441 z "/>
<path style="fill:rgb(0, 0, 255);fill-opacity:0;fill-rule:evenodd;stroke:rgb(135, 255, 0);stroke-width:1;" d="M 137.595, 79.6505 L 153.966, 57.2086 L 165.187, 61.9913 L 148.816, 84.2493 L 137.595, 79.6505 z "/>
<path style="fill:rgb(255, 255, 0);fill-opacity:0;fill-rule:evenodd;stroke:rgb(135, 255, 0);stroke-width:1;" d="M 579.811, 426.581 L 595.999, 404.323 L 607.22, 409.106 L 591.032, 431.364 L 579.811, 426.581 z "/>
<path style="fill:rgb(255, 0, 0);fill-opacity:0;fill-rule:evenodd;stroke:rgb(135, 255, 0);stroke-width:1;" d="M 601.702, 435.778 L 617.889, 413.704 L 629.11, 418.303 L 612.923, 440.561 L 601.702, 435.778 z "/>
<path style="fill:rgb(0, 255, 0);fill-opacity:0;fill-rule:evenodd;stroke:rgb(135, 255, 0);stroke-width:1;" d="M 520.028, 475.88 L 525.914, 467.97 L 538.791, 449.943 L 548.172, 453.805 L 529.777, 479.926 L 520.028, 475.88 z "/>
<path style="fill:rgb(0, 0, 255);fill-opacity:0;fill-rule:evenodd;stroke:rgb(135, 255, 0);stroke-width:1;" d="M 419.039, 464.107 L 425.661, 454.725 L 451.966, 465.578 L 445.16, 474.96 L 438.905, 472.384 L 428.972, 468.154 L 419.039, 464.107 z "/>
<path style="fill:rgb(255, 255, 0);fill-opacity:0;fill-rule:evenodd;stroke:rgb(135, 255, 0);stroke-width:1;" d="M 359.255, 654.863 L 374.155, 634.445 L 386.112, 639.411 L 376.73, 652.288 L 371.212, 660.014 L 359.255, 654.863 z "/>
<path style="fill:rgb(255, 0, 0);fill-opacity:0;fill-rule:evenodd;stroke:rgb(135, 255, 0);stroke-width:1;" d="M 797.241, 669.395 L 804.599, 659.278 L 808.278, 654.127 L 824.281, 660.75 L 813.06, 676.201 L 797.241, 669.395 z "/>
<path style="fill:rgb(0, 255, 0);fill-opacity:0;fill-rule:evenodd;stroke:rgb(135, 255, 0);stroke-width:1;" d="M 791.17, 578.34 L 795.033, 573.005 L 800.92, 564.911 L 806.254, 557.553 L 818.027, 562.336 L 802.943, 583.307 L 791.17, 578.34 z "/>
<path style="fill:rgb(0, 0, 255);fill-opacity:0;fill-rule:evenodd;stroke:rgb(135, 255, 0);stroke-width:1;" d="M 834.031, 685.951 L 848.931, 664.98 L 860.704, 669.947 L 845.62, 690.734 L 834.031, 685.951 z "/>
<path style="fill:rgb(255, 255, 0);fill-opacity:0;fill-rule:evenodd;stroke:rgb(135, 255, 0);stroke-width:1;" d="M 40.4691, 190.94 L 44.1481, 185.974 L 47.6431, 181.191 L 55.1851, 170.706 L 67.1419, 175.857 L 52.4258, 195.907 L 40.4691, 190.94 z "/>
<path style="fill:rgb(255, 0, 0);fill-opacity:0;fill-rule:evenodd;stroke:rgb(135, 255, 0);stroke-width:1;" d="M 634.997, 449.943 L 651.184, 427.685 L 662.037, 432.283 L 645.85, 454.357 L 634.997, 449.943 z "/>
<path style="fill:rgb(0, 255, 0);fill-opacity:0;fill-rule:evenodd;stroke:rgb(135, 255, 0);stroke-width:1;" d="M 70.269, 129.501 L 85.169, 109.266 L 96.9418, 114.233 L 82.0418, 134.468 L 70.269, 129.501 z "/>
<path style="fill:rgb(0, 0, 255);fill-opacity:0;fill-rule:evenodd;stroke:rgb(135, 255, 0);stroke-width:1;" d="M 845.62, 690.734 L 860.704, 669.947 L 872.292, 674.73 L 857.209, 695.516 L 845.62, 690.734 z "/>
<path style="fill:rgb(255, 255, 0);fill-opacity:0;fill-rule:evenodd;stroke:rgb(135, 255, 0);stroke-width:1;" d="M 667.74, 464.659 L 683.927, 442.585 L 694.78, 447.183 L 686.871, 458.036 L 678.593, 469.257 L 667.74, 464.659 z "/>
<path style="fill:rgb(255, 0, 0);fill-opacity:0;fill-rule:evenodd;stroke:rgb(135, 255, 0);stroke-width:1;" d="M 347.666, 650.08 L 362.566, 629.478 L 374.155, 634.445 L 359.255, 654.863 L 347.666, 650.08 z "/>
<path style="fill:rgb(0, 255, 0);fill-opacity:0;fill-rule:evenodd;stroke:rgb(135, 255, 0);stroke-width:1;" d="M 559.577, 416.464 L 576.132, 393.654 L 586.25, 397.885 L 568.774, 421.982 L 563.624, 419.775 L 562.52, 417.751 L 559.577, 416.464 z "/>
<path style="fill:rgb(0, 0, 255);fill-opacity:0;fill-rule:evenodd;stroke:rgb(135, 255, 0);stroke-width:1;" d="M 612.923, 440.561 L 629.11, 418.303 L 639.779, 422.902 L 623.592, 444.976 L 612.923, 440.561 z "/>
<path style="fill:rgb(255, 255, 0);fill-opacity:0;fill-rule:evenodd;stroke:rgb(135, 255, 0);stroke-width:1;" d="M 58.6802, 124.718 L 73.5801, 104.3 L 85.169, 109.266 L 70.269, 129.501 L 58.6802, 124.718 z "/>
<path style="fill:rgb(255, 0, 0);fill-opacity:0;fill-rule:evenodd;stroke:rgb(135, 255, 0);stroke-width:1;" d="M 591.032, 431.364 L 607.22, 409.106 L 617.889, 413.704 L 601.702, 435.778 L 591.032, 431.364 z "/>
<path style="fill:rgb(0, 255, 0);fill-opacity:0;fill-rule:evenodd;stroke:rgb(135, 255, 0);stroke-width:1;" d="M 47.0913, 119.752 L 61.9913, 99.3332 L 73.5801, 104.3 L 58.6802, 124.718 L 47.0913, 119.752 z "/>
<path style="fill:rgb(0, 0, 255);fill-opacity:0;fill-rule:evenodd;stroke:rgb(135, 255, 0);stroke-width:1;" d="M 645.666, 777.19 L 660.198, 757.14 L 661.485, 757.691 L 665.348, 752.173 L 670.683, 754.38 L 666.82, 759.899 L 670.499, 761.37 L 655.967, 781.421 L 645.666, 777.19 z "/>
<path style="fill:rgb(255, 255, 0);fill-opacity:0;fill-rule:evenodd;stroke:rgb(135, 255, 0);stroke-width:1;" d="M 35.6864, 114.969 L 50.5863, 94.5505 L 61.9913, 99.3332 L 47.0913, 119.752 L 35.6864, 114.969 z "/>
<path style="fill:rgb(255, 0, 0);fill-opacity:0;fill-rule:evenodd;stroke:rgb(135, 255, 0);stroke-width:1;" d="M 93.4468, 139.25 L 108.163, 119.016 L 119.568, 123.799 L 107.979, 139.802 L 104.852, 144.217 L 93.4468, 139.25 z "/>
<path style="fill:rgb(0, 255, 0);fill-opacity:0;fill-rule:evenodd;stroke:rgb(135, 255, 0);stroke-width:1;" d="M 82.0418, 134.468 L 96.9418, 114.233 L 108.163, 119.016 L 93.4468, 139.25 L 82.0418, 134.468 z "/>
<path style="fill:rgb(0, 0, 255);fill-opacity:0;fill-rule:evenodd;stroke:rgb(135, 255, 0);stroke-width:1;" d="M 24.4654, 110.186 L 39.3654, 89.7678 L 50.5863, 94.5505 L 35.6864, 114.969 L 24.4654, 110.186 z "/>
<path style="fill:rgb(255, 255, 0);fill-opacity:0;fill-rule:evenodd;stroke:rgb(135, 255, 0);stroke-width:1;" d="M 666.268, 785.836 L 680.616, 765.785 L 681.72, 766.153 L 684.111, 762.842 L 687.606, 764.314 L 685.215, 767.625 L 691.653, 770.2 L 677.121, 790.251 L 666.268, 785.836 z "/>
<path style="fill:rgb(255, 0, 0);fill-opacity:0;fill-rule:evenodd;stroke:rgb(135, 255, 0);stroke-width:1;" d="M 511.014, 395.861 L 527.57, 373.235 L 537.503, 377.466 L 520.947, 400.092 L 511.014, 395.861 z "/>
<path style="fill:rgb(0, 255, 0);fill-opacity:0;fill-rule:evenodd;stroke:rgb(135, 255, 0);stroke-width:1;" d="M 494.458, 541.366 L 508.991, 521.499 L 520.212, 526.282 L 505.863, 546.149 L 494.458, 541.366 z "/>
<path style="fill:rgb(0, 0, 255);fill-opacity:0;fill-rule:evenodd;stroke:rgb(135, 255, 0);stroke-width:1;" d="M 800.552, 755.116 L 815.084, 734.882 L 826.305, 739.48 L 811.589, 759.715 L 800.552, 755.116 z "/>
<path style="fill:rgb(255, 255, 0);fill-opacity:0;fill-rule:evenodd;stroke:rgb(135, 255, 0);stroke-width:1;" d="M 540.078, 408.186 L 556.634, 385.376 L 566.567, 389.607 L 550.011, 412.417 L 540.078, 408.186 z "/>
<path style="fill:rgb(255, 0, 0);fill-opacity:0;fill-rule:evenodd;stroke:rgb(135, 255, 0);stroke-width:1;" d="M 52.4258, 195.907 L 67.1419, 175.857 L 78.1789, 180.455 L 63.4629, 200.69 L 52.4258, 195.907 z "/>
<path style="fill:rgb(0, 255, 0);fill-opacity:0;fill-rule:evenodd;stroke:rgb(135, 255, 0);stroke-width:1;" d="M 501.265, 391.814 L 518.004, 369.188 L 527.57, 373.235 L 511.014, 395.861 L 501.265, 391.814 z "/>
<path style="fill:rgb(0, 0, 255);fill-opacity:0;fill-rule:evenodd;stroke:rgb(135, 255, 0);stroke-width:1;" d="M 789.515, 750.517 L 804.231, 730.283 L 815.084, 734.882 L 800.552, 755.116 L 789.515, 750.517 z "/>
<path style="fill:rgb(255, 255, 0);fill-opacity:0;fill-rule:evenodd;stroke:rgb(135, 255, 0);stroke-width:1;" d="M 505.863, 546.149 L 520.212, 526.282 L 531.433, 530.881 L 517.084, 550.747 L 505.863, 546.149 z "/>
<path style="fill:rgb(255, 0, 0);fill-opacity:0;fill-rule:evenodd;stroke:rgb(135, 255, 0);stroke-width:1;" d="M 530.329, 404.139 L 547.068, 381.329 L 556.634, 385.376 L 540.078, 408.186 L 530.329, 404.139 z "/>
<path style="fill:rgb(0, 255, 0);fill-opacity:0;fill-rule:evenodd;stroke:rgb(135, 255, 0);stroke-width:1;" d="M 768.177, 742.791 L 783.444, 721.637 L 793.93, 725.868 L 779.214, 746.287 L 778.478, 747.206 L 768.177, 742.791 z "/>
<path style="fill:rgb(0, 0, 255);fill-opacity:0;fill-rule:evenodd;stroke:rgb(135, 255, 0);stroke-width:1;" d="M 520.947, 400.092 L 537.503, 377.466 L 547.068, 381.329 L 530.329, 404.139 L 520.947, 400.092 z "/>
<path style="fill:rgb(255, 255, 0);fill-opacity:0;fill-rule:evenodd;stroke:rgb(135, 255, 0);stroke-width:1;" d="M 473.12, 532.536 L 487.468, 512.486 L 498.138, 517.084 L 483.789, 536.951 L 473.12, 532.536 z "/>
<path style="fill:rgb(255, 0, 0);fill-opacity:0;fill-rule:evenodd;stroke:rgb(135, 255, 0);stroke-width:1;" d="M 538.791, 633.341 L 547.988, 621.2 L 565.095, 628.558 L 564.544, 629.478 L 556.266, 640.699 L 555.898, 640.515 L 538.791, 633.341 z "/>
<path style="fill:rgb(0, 255, 0);fill-opacity:0;fill-rule:evenodd;stroke:rgb(135, 255, 0);stroke-width:1;" d="M 522.235, 324.672 L 528.121, 316.946 L 555.162, 328.535 L 549.644, 336.261 L 522.235, 324.672 z "/>
<path style="fill:rgb(0, 0, 255);fill-opacity:0;fill-rule:evenodd;stroke:rgb(135, 255, 0);stroke-width:1;" d="M 731.387, 726.972 L 746.47, 706.185 L 756.588, 710.416 L 741.504, 731.203 L 731.387, 726.972 z "/>
<path style="fill:rgb(255, 255, 0);fill-opacity:0;fill-rule:evenodd;stroke:rgb(135, 255, 0);stroke-width:1;" d="M 779.214, 746.287 L 793.93, 725.868 L 804.231, 730.283 L 789.515, 750.517 L 779.214, 746.287 z "/>
<path style="fill:rgb(255, 0, 0);fill-opacity:0;fill-rule:evenodd;stroke:rgb(135, 255, 0);stroke-width:1;" d="M 946.608, 733.226 L 961.508, 712.624 L 971.626, 716.67 L 956.542, 737.457 L 946.608, 733.226 z "/>
<path style="fill:rgb(0, 255, 0);fill-opacity:0;fill-rule:evenodd;stroke:rgb(135, 255, 0);stroke-width:1;" d="M 655.967, 781.421 L 670.499, 761.37 L 680.616, 765.785 L 666.268, 785.836 L 655.967, 781.421 z "/>
<path style="fill:rgb(0, 0, 255);fill-opacity:0;fill-rule:evenodd;stroke:rgb(135, 255, 0);stroke-width:1;" d="M 975.857, 745.551 L 990.94, 724.764 L 1000.87, 728.995 L 985.974, 749.598 L 975.857, 745.551 z "/>
<path style="fill:rgb(255, 255, 0);fill-opacity:0;fill-rule:evenodd;stroke:rgb(135, 255, 0);stroke-width:1;" d="M 966.291, 741.504 L 981.191, 720.717 L 990.94, 724.764 L 975.857, 745.551 L 966.291, 741.504 z "/>
<path style="fill:rgb(255, 0, 0);fill-opacity:0;fill-rule:evenodd;stroke:rgb(135, 255, 0);stroke-width:1;" d="M 320.258, 638.492 L 338.285, 613.842 L 346.195, 617.153 L 328.167, 641.803 L 320.258, 638.492 z "/>
<path style="fill:rgb(0, 255, 0);fill-opacity:0;fill-rule:evenodd;stroke:rgb(135, 255, 0);stroke-width:1;" d="M 153.047, 328.535 L 158.933, 320.441 L 168.315, 324.304 L 182.847, 330.559 L 176.96, 338.653 L 153.047, 328.535 z "/>
<path style="fill:rgb(0, 0, 255);fill-opacity:0;fill-rule:evenodd;stroke:rgb(135, 255, 0);stroke-width:1;" d="M 385.008, 665.9 L 390.527, 658.174 L 403.403, 640.699 L 411.129, 644.01 L 392.918, 669.211 L 385.008, 665.9 z "/>
<path style="fill:rgb(255, 255, 0);fill-opacity:0;fill-rule:evenodd;stroke:rgb(135, 255, 0);stroke-width:1;" d="M 377.466, 401.012 L 390.894, 382.617 L 391.63, 381.697 L 401.564, 386.112 L 387.583, 405.243 L 377.466, 401.012 z "/>
<path style="fill:rgb(255, 0, 0);fill-opacity:0;fill-rule:evenodd;stroke:rgb(135, 255, 0);stroke-width:1;" d="M 312.532, 635.181 L 330.375, 610.531 L 330.559, 610.531 L 338.285, 613.842 L 320.258, 638.492 L 312.532, 635.181 z "/>
<path style="fill:rgb(0, 255, 0);fill-opacity:0;fill-rule:evenodd;stroke:rgb(135, 255, 0);stroke-width:1;" d="M 505.496, 459.324 L 518.372, 441.481 L 528.673, 445.712 L 515.613, 463.555 L 505.496, 459.324 z "/>
<path style="fill:rgb(0, 0, 255);fill-opacity:0;fill-rule:evenodd;stroke:rgb(135, 255, 0);stroke-width:1;" d="M 174.385, 316.027 L 187.997, 297.448 L 196.643, 301.127 L 183.031, 319.706 L 179.903, 323.937 L 174.753, 321.729 L 177.88, 317.498 L 174.385, 316.027 z "/>
<path style="fill:rgb(255, 255, 0);fill-opacity:0;fill-rule:evenodd;stroke:rgb(135, 255, 0);stroke-width:1;" d="M 367.901, 396.965 L 375.075, 387.215 L 381.329, 378.57 L 390.894, 382.617 L 377.466, 401.012 L 367.901, 396.965 z "/>
<path style="fill:rgb(255, 0, 0);fill-opacity:0;fill-rule:evenodd;stroke:rgb(135, 255, 0);stroke-width:1;" d="M 201.426, 327.432 L 215.038, 308.853 L 224.419, 312.9 L 210.807, 331.479 L 201.426, 327.432 z "/>
<path style="fill:rgb(0, 255, 0);fill-opacity:0;fill-rule:evenodd;stroke:rgb(135, 255, 0);stroke-width:1;" d="M 210.807, 331.479 L 224.419, 312.9 L 233.801, 316.762 L 226.995, 326.144 L 220.189, 335.341 L 210.807, 331.479 z "/>
<path style="fill:rgb(0, 0, 255);fill-opacity:0;fill-rule:evenodd;stroke:rgb(135, 255, 0);stroke-width:1;" d="M 192.228, 323.569 L 205.656, 304.99 L 215.038, 308.853 L 201.426, 327.432 L 192.228, 323.569 z "/>
<path style="fill:rgb(255, 255, 0);fill-opacity:0;fill-rule:evenodd;stroke:rgb(135, 255, 0);stroke-width:1;" d="M 183.031, 319.706 L 196.643, 301.127 L 205.656, 304.99 L 192.228, 323.569 L 183.031, 319.706 z "/>
<path style="fill:rgb(255, 0, 0);fill-opacity:0;fill-rule:evenodd;stroke:rgb(135, 255, 0);stroke-width:1;" d="M 808.278, 654.127 L 808.646, 653.392 L 811.589, 649.529 L 827.593, 656.151 L 824.281, 660.75 L 808.278, 654.127 z "/>
<path style="fill:rgb(0, 255, 0);fill-opacity:0;fill-rule:evenodd;stroke:rgb(135, 255, 0);stroke-width:1;" d="M 2.39135, 587.169 L 11.4049, 574.845 L 52.4258, 592.136 L 42.6765, 605.564 L 57.9444, 612.003 L 57.5765, 612.555 L 66.2221, 616.05 L 68.6135, 612.923 L 91.7912, 622.856 L 94.1826, 619.545 L 95.2863, 619.913 L 100.805, 612.555 L 95.8381, 610.531 L 105.22, 597.655 L 126.006, 606.484 L 120.12, 614.762 L 119.384, 614.394 L 113.313, 622.672 L 136.491, 632.605 L 126.374, 646.401 L 100.437, 635.364 L 98.4134, 637.94 L 93.9986, 635.916 L 79.6505, 655.415 L 61.6234, 647.689 L 73.2122, 631.869 L 50.5863, 622.12 L 48.195, 625.431 L 9.93332, 609.244 L 20.4185, 594.895 L 2.39135, 587.169 z "/>
<path style="fill:rgb(0, 0, 255);fill-opacity:0;fill-rule:evenodd;stroke:rgb(135, 255, 0);stroke-width:1;" d="M 0, 247.045 L 15.4518, 226.627 L 17.2913, 224.235 L 98.0455, 259.186 L 65.4863, 302.598 L 51.5061, 296.528 L 48.011, 294.872 L 35.8703, 289.722 L 34.9506, 289.354 L 38.2617, 285.123 L 36.2382, 284.203 L 37.3419, 282.548 L 39.3654, 283.467 L 50.4024, 268.935 L 0, 247.045 z "/>
<path style="fill:rgb(255, 255, 0);fill-opacity:0;fill-rule:evenodd;stroke:rgb(135, 255, 0);stroke-width:1;" d="M 7.90986, 305.174 L 13.9802, 297.264 L 24.4654, 301.679 L 27.7765, 300.759 L 39.7333, 305.909 L 38.0777, 308.117 L 42.1246, 309.956 L 43.7802, 307.749 L 58.8641, 314.187 L 50.5863, 325.224 L 49.4826, 324.856 L 35.5024, 318.786 L 36.974, 316.762 L 32.9271, 315.107 L 31.4555, 316.946 L 19.4987, 311.796 L 18.395, 309.772 L 7.90986, 305.174 z "/>
<path style="fill:rgb(255, 0, 0);fill-opacity:0;fill-rule:evenodd;stroke:rgb(135, 255, 0);stroke-width:1;" d="M 11.037, 323.569 L 19.3148, 312.164 L 31.4555, 316.946 L 35.5024, 318.786 L 49.4826, 324.856 L 41.2049, 336.261 L 28.1444, 330.743 L 20.2345, 327.432 L 11.037, 323.569 z "/>
<path style="fill:rgb(0, 255, 0);fill-opacity:0;fill-rule:evenodd;stroke:rgb(135, 255, 0);stroke-width:1;" d="M 8.27777, 177.328 L 22.9938, 157.278 L 36.2382, 162.796 L 28.6963, 172.913 L 25.2012, 177.88 L 21.5222, 182.847 L 8.27777, 177.328 z "/>
<path style="fill:rgb(0, 0, 255);fill-opacity:0;fill-rule:evenodd;stroke:rgb(135, 255, 0);stroke-width:1;" d="M 12.6926, 105.22 L 27.4086, 84.8011 L 39.3654, 89.7678 L 24.4654, 110.186 L 12.6926, 105.22 z "/>
<path style="fill:rgb(255, 255, 0);fill-opacity:0;fill-rule:evenodd;stroke:rgb(135, 255, 0);stroke-width:1;" d="M 891.607, 45.6197 L 921.223, 4.96666 L 927.662, 3.49506 L 981.927, 26.4888 L 975.489, 35.1345 L 969.234, 32.5592 L 957.094, 49.2987 L 959.485, 50.2184 L 947.528, 66.59 L 924.718, 56.8407 L 935.02, 42.6765 L 932.628, 41.5728 L 934.284, 39.5493 L 930.421, 38.0777 L 930.237, 38.4456 L 927.662, 37.3419 L 926.558, 38.8135 L 923.983, 37.7098 L 912.026, 54.2653 L 891.607, 45.6197 z "/>
<path style="fill:rgb(255, 0, 0);fill-opacity:0;fill-rule:evenodd;stroke:rgb(135, 255, 0);stroke-width:1;" d="M 367.533, 34.9506 L 389.791, 4.23086 L 410.393, 12.8765 L 408.002, 16.0037 L 439.825, 29.4321 L 434.123, 37.158 L 426.949, 34.0308 L 418.671, 45.4357 L 426.029, 48.5629 L 419.959, 56.8407 L 367.533, 34.9506 z M 389.239, 29.616 L 396.229, 32.3753 L 394.206, 35.5024 L 403.035, 38.8135 L 410.025, 28.5123 L 409.473, 26.3049 L 403.219, 23.9135 L 405.059, 21.1543 L 396.965, 18.0271 L 389.239, 29.616 z "/>
<path style="fill:rgb(0, 255, 0);fill-opacity:0;fill-rule:evenodd;stroke:rgb(135, 255, 0);stroke-width:1;" d="M 206.208, 15.8197 L 214.854, 4.04691 L 267.832, 26.6728 L 265.44, 29.9839 L 259.186, 38.4456 L 206.208, 15.8197 z "/>
<path style="fill:rgb(0, 0, 255);fill-opacity:0;fill-rule:evenodd;stroke:rgb(135, 255, 0);stroke-width:1;" d="M 32.5592, 35.1345 L 42.8604, 20.9703 L 48.9308, 12.8765 L 60.8876, 17.8432 L 44.516, 40.2851 L 32.5592, 35.1345 z "/>
<path style="fill:rgb(255, 255, 0);fill-opacity:0;fill-rule:evenodd;stroke:rgb(135, 255, 0);stroke-width:1;" d="M 163.9, 22.4419 L 180.271, 0 L 191.86, 4.96666 L 175.489, 27.4086 L 163.9, 22.4419 z "/>
<path style="fill:rgb(255, 0, 0);fill-opacity:0;fill-rule:evenodd;stroke:rgb(135, 255, 0);stroke-width:1;" d="M 175.489, 27.4086 L 191.86, 4.96666 L 203.265, 9.74937 L 187.077, 32.1913 L 175.489, 27.4086 z "/>
</svg>