<?xml version="1.0" encoding="iso-8859-1" standalone="no"?>
<!DOCTYPE svg PUBLIC "-//W3C//DTD SVG 1.0//EN" "http://www.w3.org/TR/2001/REC-SVG-20010904/DTD/svg10.dtd">
<svg xmlns="http://www.w3.org/2000/svg" width="1062" height="800">
<path style="fill:rgb(255, 0, 0);fill-opacity:0;fill-rule:evenodd;stroke:rgb(0, 255, 151);stroke-width:1;" d="M 758.285, 592.665 L 876.712, 532.037 L 954.662, 564.737 L 949.713, 571.631 L 997.967, 591.781 L 966.151, 635.616 L 946.178, 663.19 L 897.923, 643.04 L 893.327, 649.227 L 758.285, 592.665 z "/>
<path style="fill:rgb(0, 255, 0);fill-opacity:0;fill-rule:evenodd;stroke:rgb(0, 255, 151);stroke-width:1;" d="M 90.6761, 507.645 L 147.238, 486.787 L 192.665, 557.667 L 136.103, 578.524 L 107.821, 534.512 L 100.574, 523.199 L 90.6761, 507.645 z "/>
<path style="fill:rgb(0, 0, 255);fill-opacity:0;fill-rule:evenodd;stroke:rgb(0, 255, 151);stroke-width:1;" d="M 158.197, 637.384 L 186.655, 626.955 L 188.069, 629.076 L 192.134, 624.127 L 199.558, 621.476 L 208.396, 621.829 L 215.113, 625.895 L 218.648, 631.551 L 224.304, 629.43 L 229.783, 638.268 L 235.616, 636.147 L 241.449, 637.384 L 246.045, 644.454 L 244.631, 646.929 L 248.343, 645.692 L 254.353, 655.236 L 243.04, 659.302 L 268.493, 699.779 L 230.49, 713.743 L 199.735, 664.781 L 194.079, 666.726 L 191.958, 666.195 L 179.231, 670.791 L 158.197, 637.384 z "/>
<path style="fill:rgb(255, 255, 0);fill-opacity:0;fill-rule:evenodd;stroke:rgb(0, 255, 151);stroke-width:1;" d="M 924.26, 314.45 L 946.178, 297.481 L 956.253, 305.082 L 964.03, 299.249 L 956.96, 293.946 L 978.701, 277.154 L 985.948, 282.457 L 993.548, 276.624 L 983.12, 268.847 L 1028.72, 233.849 L 1030.84, 235.44 L 1043.57, 244.985 L 1062.48, 259.302 L 1013.35, 296.951 L 1002.21, 288.467 L 997.084, 292.355 L 994.432, 294.3 L 1005.74, 302.784 L 991.427, 313.743 L 980.115, 305.259 L 973.045, 310.738 L 984.534, 319.399 L 962.97, 336.014 L 944.94, 322.227 L 942.466, 324.171 L 940.345, 322.404 L 937.693, 324.525 L 924.26, 314.45 z "/>
<path style="fill:rgb(255, 0, 0);fill-opacity:0;fill-rule:evenodd;stroke:rgb(0, 255, 151);stroke-width:1;" d="M 660.009, 463.279 L 693.239, 448.078 L 706.319, 464.516 L 716.748, 459.567 L 703.491, 442.952 L 728.944, 431.463 L 742.024, 447.548 L 752.806, 442.598 L 739.196, 426.337 L 762.174, 415.201 L 774.724, 425.453 L 770.482, 427.397 L 769.951, 431.286 L 778.789, 438.533 L 785.859, 435.351 L 787.627, 436.765 L 798.056, 445.603 L 775.431, 456.739 L 770.128, 449.845 L 765.709, 451.083 L 763.765, 448.078 L 759.876, 450.729 L 767.83, 460.627 L 739.373, 475.829 L 730.004, 463.986 L 727.707, 465.577 L 728.59, 466.46 L 724.171, 469.642 L 731.772, 479.364 L 703.668, 493.858 L 676.094, 471.233 L 672.735, 473.531 L 660.009, 463.279 z "/>
<path style="fill:rgb(0, 255, 0);fill-opacity:0;fill-rule:evenodd;stroke:rgb(0, 255, 151);stroke-width:1;" d="M 717.631, 504.993 L 749.978, 488.555 L 762.174, 502.342 L 771.189, 497.393 L 759.523, 483.429 L 781.441, 472.293 L 794.167, 485.727 L 800.177, 482.722 L 798.763, 481.308 L 801.591, 479.364 L 790.985, 467.344 L 807.601, 458.86 L 832.17, 480.424 L 836.589, 477.419 L 847.194, 486.787 L 752.452, 535.572 L 717.631, 504.993 z "/>
<path style="fill:rgb(0, 0, 255);fill-opacity:0;fill-rule:evenodd;stroke:rgb(0, 255, 151);stroke-width:1;" d="M 67.6977, 637.914 L 97.2161, 627.309 L 107.114, 643.394 L 105.17, 644.101 L 108.175, 649.05 L 110.119, 648.343 L 111.533, 650.641 L 124.79, 645.868 L 123.376, 643.57 L 125.32, 642.863 L 122.316, 638.091 L 120.371, 638.798 L 110.296, 622.713 L 139.284, 612.285 L 148.475, 627.309 L 140.168, 630.314 L 145.647, 638.975 L 141.405, 640.566 L 143.526, 643.924 L 156.43, 639.328 L 164.914, 652.939 L 161.379, 654.176 L 163.677, 657.181 L 164.207, 659.832 L 172.691, 673.442 L 160.495, 677.861 L 159.434, 675.917 L 144.94, 681.043 L 136.986, 668.316 L 138.4, 667.786 L 132.921, 658.948 L 129.739, 660.009 L 128.856, 658.418 L 122.669, 660.539 L 123.73, 662.307 L 119.664, 663.897 L 124.79, 672.028 L 126.558, 671.498 L 133.805, 682.987 L 107.998, 692.355 L 102.872, 684.048 L 101.812, 684.401 L 100.221, 681.573 L 96.5091, 682.987 L 85.3734, 665.135 L 97.7464, 660.716 L 95.4485, 657.004 L 91.3831, 658.418 L 86.0804, 649.934 L 77.2426, 652.939 L 74.4145, 648.52 L 67.6977, 637.914 z "/>
<path style="fill:rgb(255, 255, 0);fill-opacity:0;fill-rule:evenodd;stroke:rgb(0, 255, 151);stroke-width:1;" d="M 845.426, 366.416 L 882.192, 345.029 L 889.439, 352.276 L 904.286, 343.615 L 896.509, 335.837 L 924.26, 314.45 L 937.693, 324.525 L 929.916, 330.535 L 933.628, 333.186 L 931.33, 334.954 L 933.805, 336.721 L 936.279, 335.13 L 939.107, 337.251 L 943.173, 337.251 L 948.829, 332.833 L 961.025, 342.024 L 926.911, 368.184 L 910.473, 355.988 L 902.519, 360.583 L 916.659, 374.724 L 878.657, 396.642 L 866.284, 384.445 L 868.051, 383.385 L 862.395, 377.552 L 858.86, 379.673 L 845.426, 366.416 z "/>
<path style="fill:rgb(255, 0, 0);fill-opacity:0;fill-rule:evenodd;stroke:rgb(0, 255, 151);stroke-width:1;" d="M 591.958, 665.135 L 592.311, 664.074 L 593.195, 663.014 L 594.432, 662.307 L 595.139, 662.13 L 596.73, 661.953 L 598.144, 662.13 L 618.825, 653.646 L 624.834, 661.069 L 633.849, 664.781 L 637.914, 659.125 L 632.258, 656.65 L 627.132, 650.287 L 656.474, 638.091 L 668.316, 643.217 L 658.241, 657.004 L 672.205, 662.837 L 676.801, 656.474 L 678.392, 657.181 L 683.164, 650.464 L 695.714, 655.59 L 687.936, 666.372 L 696.774, 670.261 L 699.602, 670.437 L 704.728, 663.367 L 719.753, 669.73 L 705.082, 689.881 L 706.673, 690.588 L 692.709, 709.677 L 671.852, 701.016 L 688.113, 678.745 L 678.745, 674.856 L 676.27, 678.215 L 677.508, 678.745 L 663.721, 697.658 L 643.217, 688.997 L 656.827, 670.084 L 658.065, 670.614 L 660.539, 667.256 L 650.817, 663.19 L 648.696, 666.195 L 649.403, 666.549 L 635.44, 685.815 L 593.725, 668.316 L 592.665, 667.433 L 592.134, 666.372 L 591.958, 665.135 z "/>
<path style="fill:rgb(0, 255, 0);fill-opacity:0;fill-rule:evenodd;stroke:rgb(0, 255, 151);stroke-width:1;" d="M 664.958, 323.288 L 678.215, 314.273 L 669.377, 306.849 L 695.89, 288.997 L 757.578, 341.67 L 731.242, 359.523 L 716.041, 346.266 L 702.607, 355.457 L 664.958, 323.288 z "/>
<path style="fill:rgb(0, 0, 255);fill-opacity:0;fill-rule:evenodd;stroke:rgb(0, 255, 151);stroke-width:1;" d="M 613.345, 101.105 L 644.631, 78.1264 L 658.418, 88.7318 L 666.902, 82.3685 L 653.292, 71.7631 L 681.75, 50.7291 L 696.067, 61.8648 L 688.643, 67.3442 L 701.016, 77.0658 L 708.263, 71.7631 L 718.692, 79.8939 L 696.951, 95.9788 L 685.639, 87.141 L 682.634, 89.4388 L 678.922, 86.4339 L 673.796, 89.9691 L 688.82, 101.635 L 650.11, 130.093 L 638.975, 121.255 L 647.282, 115.245 L 638.268, 107.998 L 635.793, 106.231 L 627.486, 112.24 L 626.955, 111.887 L 613.345, 101.105 z "/>
<path style="fill:rgb(255, 255, 0);fill-opacity:0;fill-rule:evenodd;stroke:rgb(0, 255, 151);stroke-width:1;" d="M 884.136, 198.321 L 906.231, 167.742 L 933.805, 179.231 L 922.316, 195.139 L 948.829, 206.098 L 954.662, 208.573 L 965.974, 192.665 L 993.902, 204.331 L 971.454, 235.086 L 957.667, 229.43 L 955.015, 233.319 L 935.395, 225.188 L 934.865, 223.243 L 935.749, 222.183 L 931.507, 220.592 L 916.483, 214.229 L 915.776, 215.289 L 913.478, 215.996 L 894.211, 207.866 L 897.216, 203.8 L 884.136, 198.321 z "/>
<path style="fill:rgb(255, 0, 0);fill-opacity:0;fill-rule:evenodd;stroke:rgb(0, 255, 151);stroke-width:1;" d="M 745.913, 279.275 L 780.203, 256.12 L 790.102, 264.781 L 793.99, 262.13 L 808.838, 274.856 L 808.661, 276.27 L 807.424, 276.977 L 821.741, 289.174 L 822.978, 288.29 L 825.453, 288.29 L 840.654, 301.193 L 836.058, 304.375 L 846.133, 313.036 L 811.843, 336.014 L 790.985, 318.162 L 808.838, 306.142 L 783.915, 284.932 L 766.24, 296.774 L 745.913, 279.275 z "/>
<path style="fill:rgb(0, 255, 0);fill-opacity:0;fill-rule:evenodd;stroke:rgb(0, 255, 151);stroke-width:1;" d="M 842.422, 281.75 L 852.85, 273.796 L 848.608, 270.437 L 863.986, 258.772 L 866.637, 258.065 L 868.051, 259.125 L 882.899, 247.813 L 881.308, 246.575 L 881.308, 244.985 L 896.863, 232.965 L 901.105, 235.97 L 911.887, 227.662 L 919.664, 233.672 L 944.41, 252.232 L 922.492, 269.023 L 906.054, 256.474 L 879.894, 276.624 L 896.686, 289.174 L 874.591, 305.966 L 842.422, 281.75 z "/>
<path style="fill:rgb(0, 0, 255);fill-opacity:0;fill-rule:evenodd;stroke:rgb(0, 255, 151);stroke-width:1;" d="M 684.932, 227.486 L 708.263, 211.754 L 723.818, 225.188 L 751.922, 206.452 L 736.191, 193.018 L 759.523, 177.64 L 789.571, 203.447 L 778.259, 211.047 L 782.148, 214.406 L 775.608, 218.825 L 765.886, 225.365 L 763.235, 225.365 L 762.351, 224.481 L 745.913, 235.44 L 747.15, 236.5 L 746.796, 238.091 L 730.181, 249.05 L 726.646, 246.045 L 715.157, 253.646 L 684.932, 227.486 z "/>
<path style="fill:rgb(255, 255, 0);fill-opacity:0;fill-rule:evenodd;stroke:rgb(0, 255, 151);stroke-width:1;" d="M 51.9664, 723.288 L 67.521, 717.631 L 84.8431, 711.445 L 98.6301, 706.496 L 108.352, 703.137 L 110.473, 706.319 L 136.279, 748.21 L 122.846, 751.392 L 79.1869, 767.123 L 51.9664, 723.288 z "/>
<path style="fill:rgb(255, 0, 0);fill-opacity:0;fill-rule:evenodd;stroke:rgb(0, 255, 151);stroke-width:1;" d="M 777.552, 156.076 L 814.848, 129.209 L 823.155, 135.749 L 825.453, 137.517 L 829.165, 134.865 L 839.593, 143.35 L 825.276, 153.778 L 831.639, 158.727 L 833.053, 157.844 L 835.175, 157.667 L 837.119, 159.081 L 855.678, 145.647 L 866.284, 154.132 L 869.289, 152.011 L 879.894, 160.495 L 860.274, 174.635 L 858.683, 173.398 L 852.143, 177.994 L 853.734, 179.231 L 828.635, 197.26 L 807.601, 180.468 L 821.918, 170.217 L 812.903, 162.97 L 798.763, 173.221 L 777.552, 156.076 z "/>
<path style="fill:rgb(0, 255, 0);fill-opacity:0;fill-rule:evenodd;stroke:rgb(0, 255, 151);stroke-width:1;" d="M 488.555, 706.496 L 547.945, 682.28 L 574.635, 693.416 L 566.505, 704.728 L 559.788, 701.9 L 555.899, 707.556 L 570.747, 713.566 L 582.766, 696.774 L 609.81, 707.91 L 602.386, 718.338 L 599.381, 717.101 L 596.553, 718.869 L 579.585, 742.554 L 556.606, 733.009 L 565.621, 720.636 L 565.267, 720.46 L 557.49, 717.278 L 548.475, 729.651 L 528.325, 721.343 L 539.461, 705.789 L 530.977, 702.254 L 519.664, 717.808 L 510.826, 714.096 L 509.766, 715.334 L 488.555, 706.496 z "/>
<path style="fill:rgb(0, 0, 255);fill-opacity:0;fill-rule:evenodd;stroke:rgb(0, 255, 151);stroke-width:1;" d="M 811.666, 455.855 L 838.71, 440.124 L 848.785, 448.962 L 859.213, 442.068 L 848.255, 432.346 L 873.177, 418.029 L 910.296, 450.729 L 883.606, 465.93 L 873.884, 456.032 L 877.95, 453.204 L 872.117, 448.078 L 869.112, 447.724 L 853.734, 456.916 L 861.511, 463.632 L 865.93, 460.804 L 876.005, 470.703 L 847.194, 486.787 L 836.589, 477.419 L 840.3, 475.122 L 838.533, 473.531 L 840.124, 470.879 L 830.579, 462.395 L 824.039, 466.637 L 811.666, 455.855 z "/>
<path style="fill:rgb(255, 255, 0);fill-opacity:0;fill-rule:evenodd;stroke:rgb(0, 255, 151);stroke-width:1;" d="M 656.474, 638.091 L 721.697, 611.224 L 754.574, 625.188 L 739.549, 645.868 L 738.135, 645.161 L 725.409, 662.837 L 677.684, 642.687 L 675.21, 646.045 L 668.316, 643.217 L 656.474, 638.091 z "/>
<path style="fill:rgb(255, 0, 0);fill-opacity:0;fill-rule:evenodd;stroke:rgb(0, 255, 151);stroke-width:1;" d="M 554.839, 789.748 L 610.871, 713.743 L 634.909, 723.818 L 600.442, 770.835 L 578.878, 800 L 554.839, 789.748 z "/>
<path style="fill:rgb(0, 255, 0);fill-opacity:0;fill-rule:evenodd;stroke:rgb(0, 255, 151);stroke-width:1;" d="M 615.643, 173.398 L 639.328, 156.43 L 641.803, 158.374 L 660.893, 144.764 L 682.457, 162.262 L 684.224, 161.025 L 685.639, 162.086 L 688.29, 160.141 L 698.542, 168.626 L 701.193, 170.747 L 683.517, 183.297 L 673.619, 175.342 L 671.852, 176.58 L 668.847, 174.282 L 663.014, 178.524 L 666.019, 180.999 L 665.312, 181.706 L 674.856, 189.483 L 653.822, 204.331 L 615.643, 173.398 z "/>
<path style="fill:rgb(0, 0, 255);fill-opacity:0;fill-rule:evenodd;stroke:rgb(0, 255, 151);stroke-width:1;" d="M 609.81, 276.801 L 651.525, 248.166 L 667.433, 261.6 L 665.488, 263.014 L 670.437, 267.079 L 672.382, 265.665 L 690.234, 280.866 L 666.902, 296.774 L 670.968, 300.309 L 655.06, 311.268 L 636.677, 295.89 L 650.464, 286.522 L 643.04, 280.336 L 626.955, 291.295 L 609.81, 276.801 z "/>
<path style="fill:rgb(255, 255, 0);fill-opacity:0;fill-rule:evenodd;stroke:rgb(0, 255, 151);stroke-width:1;" d="M 314.627, 657.534 L 327.176, 652.939 L 328.944, 655.943 L 355.281, 646.222 L 356.164, 647.459 L 375.784, 640.212 L 385.329, 655.236 L 363.235, 663.367 L 367.83, 670.614 L 391.162, 662.13 L 401.237, 678.038 L 338.489, 695.007 L 329.474, 680.689 L 351.215, 672.735 L 346.796, 665.665 L 324.878, 673.619 L 314.627, 657.534 z "/>
<path style="fill:rgb(255, 0, 0);fill-opacity:0;fill-rule:evenodd;stroke:rgb(0, 255, 151);stroke-width:1;" d="M 499.16, 182.589 L 541.405, 153.778 L 559.434, 169.156 L 544.233, 179.408 L 551.48, 185.418 L 566.681, 175.166 L 583.12, 189.129 L 568.095, 199.558 L 561.025, 193.548 L 547.415, 202.74 L 554.485, 208.749 L 543.703, 216.173 L 522.846, 198.498 L 520.194, 200.442 L 499.16, 182.589 z "/>
<path style="fill:rgb(0, 255, 0);fill-opacity:0;fill-rule:evenodd;stroke:rgb(0, 255, 151);stroke-width:1;" d="M 543.703, 227.662 L 566.681, 212.285 L 563.677, 209.81 L 587.715, 193.725 L 624.834, 225.541 L 604.684, 239.152 L 591.958, 228.193 L 583.473, 233.849 L 596.2, 244.808 L 577.817, 257.004 L 564.914, 246.045 L 572.514, 240.919 L 560.495, 230.667 L 553.071, 235.793 L 543.703, 227.662 z "/>
<path style="fill:rgb(0, 0, 255);fill-opacity:0;fill-rule:evenodd;stroke:rgb(0, 255, 151);stroke-width:1;" d="M 405.303, 731.949 L 405.303, 729.651 L 473.354, 711.798 L 503.226, 724.348 L 504.993, 726.293 L 497.393, 736.721 L 489.969, 733.54 L 479.364, 748.21 L 486.611, 751.215 L 478.303, 762.704 L 455.325, 752.983 L 462.749, 742.908 L 463.809, 743.438 L 472.647, 731.418 L 460.981, 726.469 L 452.143, 738.489 L 453.027, 738.842 L 445.603, 748.917 L 405.303, 731.949 z "/>
<path style="fill:rgb(255, 255, 0);fill-opacity:0;fill-rule:evenodd;stroke:rgb(0, 255, 151);stroke-width:1;" d="M 286.876, 613.699 L 300.84, 608.749 L 302.607, 611.578 L 332.656, 600.442 L 333.54, 601.679 L 342.377, 598.321 L 351.745, 613.168 L 334.777, 619.355 L 338.665, 625.365 L 355.634, 619.178 L 364.825, 633.849 L 355.811, 637.207 L 356.341, 638.091 L 328.767, 648.166 L 327, 649.934 L 328.59, 652.408 L 327.176, 652.939 L 314.627, 657.534 L 302.607, 638.621 L 314.803, 634.202 L 316.217, 636.5 L 325.409, 632.965 L 318.515, 622.183 L 309.324, 625.541 L 310.738, 627.839 L 298.719, 632.258 L 286.876, 613.699 z "/>
<path style="fill:rgb(255, 0, 0);fill-opacity:0;fill-rule:evenodd;stroke:rgb(0, 255, 151);stroke-width:1;" d="M 423.155, 126.027 L 448.255, 109.059 L 445.957, 107.114 L 468.051, 92.2669 L 505.877, 124.083 L 487.141, 136.81 L 478.833, 129.563 L 482.015, 127.441 L 468.051, 115.422 L 454.618, 124.79 L 468.228, 136.279 L 470.526, 134.865 L 479.364, 142.112 L 458.86, 156.076 L 447.724, 146.708 L 445.426, 144.764 L 448.785, 142.466 L 450.552, 140.168 L 440.477, 131.684 L 434.468, 135.572 L 425.453, 127.972 L 423.155, 126.027 z "/>
<path style="fill:rgb(0, 255, 0);fill-opacity:0;fill-rule:evenodd;stroke:rgb(0, 255, 151);stroke-width:1;" d="M 380.557, 75.8285 L 389.925, 69.8188 L 389.218, 69.1118 L 397.172, 63.9859 L 401.237, 67.521 L 408.838, 62.5718 L 408.308, 62.2183 L 419.973, 54.441 L 430.402, 63.6323 L 435.705, 68.228 L 433.76, 69.4653 L 435.528, 71.2329 L 438.533, 73.8842 L 440.477, 72.4702 L 456.032, 86.2572 L 445.073, 93.5042 L 445.426, 93.8577 L 438.003, 98.8069 L 442.952, 103.049 L 425.63, 114.361 L 407.424, 98.4534 L 411.666, 95.6253 L 411.136, 95.095 L 418.913, 89.9691 L 411.843, 83.9593 L 404.065, 88.9085 L 403.535, 88.555 L 398.586, 91.7366 L 380.557, 75.8285 z "/>
<path style="fill:rgb(0, 0, 255);fill-opacity:0;fill-rule:evenodd;stroke:rgb(0, 255, 151);stroke-width:1;" d="M 698.895, 712.329 L 706.496, 701.9 L 710.915, 703.668 L 714.803, 702.784 L 723.995, 690.057 L 722.757, 687.229 L 718.515, 685.462 L 725.762, 675.387 L 749.271, 685.285 L 745.382, 690.588 L 744.498, 690.234 L 740.963, 695.007 L 742.554, 696.774 L 748.387, 699.249 L 751.215, 699.249 L 754.75, 694.476 L 753.336, 693.946 L 757.225, 688.643 L 780.91, 698.542 L 773.663, 708.617 L 769.421, 706.849 L 765.356, 707.556 L 758.639, 716.748 L 755.811, 720.636 L 757.578, 723.288 L 761.644, 725.055 L 754.22, 735.484 L 730.358, 725.586 L 743.261, 707.91 L 735.307, 704.551 L 722.404, 722.227 L 698.895, 712.329 z "/>
<path style="fill:rgb(255, 255, 0);fill-opacity:0;fill-rule:evenodd;stroke:rgb(0, 255, 151);stroke-width:1;" d="M 734.247, 664.428 L 741.67, 654.353 L 745.913, 656.12 L 749.624, 655.767 L 759.523, 642.333 L 758.109, 639.682 L 753.69, 637.738 L 760.937, 627.662 L 784.799, 637.738 L 772.426, 654.529 L 779.673, 657.534 L 780.38, 657.888 L 792.576, 640.919 L 816.615, 650.994 L 809.368, 661.069 L 804.419, 658.948 L 800.53, 659.655 L 791.162, 672.559 L 792.576, 675.563 L 797.349, 677.684 L 790.102, 687.76 L 765.709, 677.508 L 769.598, 672.205 L 771.189, 672.735 L 774.547, 668.14 L 772.603, 666.019 L 770.305, 665.135 L 766.416, 663.544 L 763.765, 663.544 L 760.407, 668.316 L 761.821, 668.847 L 757.932, 674.326 L 734.247, 664.428 z "/>
<path style="fill:rgb(255, 0, 0);fill-opacity:0;fill-rule:evenodd;stroke:rgb(0, 255, 151);stroke-width:1;" d="M 754.22, 735.484 L 761.644, 725.055 L 766.77, 727.176 L 786.036, 700.663 L 805.479, 708.794 L 799.823, 716.571 L 798.232, 715.687 L 794.167, 721.167 L 805.833, 725.939 L 809.722, 720.636 L 807.954, 719.753 L 813.433, 712.152 L 833.053, 720.283 L 813.787, 746.973 L 817.676, 748.564 L 810.252, 758.816 L 786.567, 749.094 L 790.632, 743.438 L 791.516, 743.791 L 798.409, 734.6 L 788.334, 730.358 L 781.441, 739.726 L 782.678, 740.08 L 778.612, 745.736 L 754.22, 735.484 z "/>
<path style="fill:rgb(0, 255, 0);fill-opacity:0;fill-rule:evenodd;stroke:rgb(0, 255, 151);stroke-width:1;" d="M 151.48, 714.627 L 200.442, 696.951 L 200.088, 696.421 L 209.103, 693.239 L 228.546, 724.348 L 167.388, 740.433 L 151.48, 714.627 z "/>
<path style="fill:rgb(0, 0, 255);fill-opacity:0;fill-rule:evenodd;stroke:rgb(0, 255, 151);stroke-width:1;" d="M 762.174, 415.201 L 783.915, 402.475 L 794.167, 412.55 L 803.005, 407.247 L 793.283, 397.702 L 813.08, 386.036 L 824.923, 396.288 L 822.271, 397.879 L 822.448, 400 L 844.189, 418.383 L 825.099, 429.518 L 810.959, 415.555 L 807.954, 417.322 L 810.605, 419.973 L 808.308, 421.211 L 809.368, 422.095 L 807.954, 422.978 L 808.661, 423.685 L 806.894, 424.746 L 816.792, 434.468 L 798.056, 445.603 L 787.627, 436.765 L 791.869, 434.291 L 793.106, 430.225 L 783.738, 422.271 L 782.501, 423.155 L 779.673, 423.862 L 775.608, 426.16 L 774.724, 425.453 L 762.174, 415.201 z "/>
<path style="fill:rgb(255, 255, 0);fill-opacity:0;fill-rule:evenodd;stroke:rgb(0, 255, 151);stroke-width:1;" d="M 390.278, 129.386 L 410.605, 115.422 L 423.155, 126.027 L 425.453, 127.972 L 421.388, 130.623 L 420.327, 132.567 L 424.746, 136.279 L 441.891, 150.773 L 447.724, 146.708 L 458.86, 156.076 L 416.969, 184.711 L 415.378, 184.357 L 407.601, 169.156 L 424.569, 165.091 L 422.271, 159.611 L 404.242, 163.853 L 398.056, 149.006 L 415.378, 144.94 L 412.903, 139.107 L 395.935, 142.996 L 390.278, 129.386 z "/>
<path style="fill:rgb(255, 0, 0);fill-opacity:0;fill-rule:evenodd;stroke:rgb(0, 255, 151);stroke-width:1;" d="M 671.498, 137.163 L 684.401, 127.972 L 685.815, 129.032 L 695.007, 122.492 L 693.593, 121.432 L 704.728, 113.478 L 724.171, 129.209 L 731.065, 124.26 L 745.205, 135.572 L 728.06, 147.768 L 727, 146.885 L 715.334, 155.192 L 716.394, 156.076 L 698.542, 168.626 L 688.29, 160.141 L 684.755, 157.313 L 691.825, 152.364 L 686.699, 148.299 L 685.815, 148.829 L 671.498, 137.163 z "/>
<path style="fill:rgb(0, 255, 0);fill-opacity:0;fill-rule:evenodd;stroke:rgb(0, 255, 151);stroke-width:1;" d="M 71.0561, 548.122 L 107.821, 534.512 L 136.103, 578.524 L 138.577, 582.413 L 126.027, 587.008 L 123.553, 583.12 L 109.236, 588.422 L 99.6907, 573.398 L 89.6156, 577.11 L 71.0561, 548.122 z "/>
<path style="fill:rgb(0, 0, 255);fill-opacity:0;fill-rule:evenodd;stroke:rgb(0, 255, 151);stroke-width:1;" d="M 264.781, 579.054 L 321.343, 558.374 L 329.474, 571.1 L 305.966, 579.761 L 310.384, 586.655 L 333.893, 577.994 L 340.433, 588.422 L 329.297, 592.665 L 327.707, 594.609 L 300.663, 604.507 L 299.249, 606.098 L 300.84, 608.749 L 286.876, 613.699 L 278.038, 599.912 L 296.774, 593.018 L 292.179, 585.948 L 273.442, 592.665 L 264.781, 579.054 z "/>
<path style="fill:rgb(255, 255, 0);fill-opacity:0;fill-rule:evenodd;stroke:rgb(0, 255, 151);stroke-width:1;" d="M 952.718, 388.864 L 997.084, 354.927 L 1022.89, 374.194 L 1024.13, 375.254 L 979.761, 409.368 L 952.718, 388.864 z "/>
<path style="fill:rgb(255, 0, 0);fill-opacity:0;fill-rule:evenodd;stroke:rgb(0, 255, 151);stroke-width:1;" d="M 911.533, 413.964 L 952.718, 388.864 L 979.761, 409.368 L 933.628, 436.589 L 911.533, 413.964 z "/>
<path style="fill:rgb(0, 255, 0);fill-opacity:0;fill-rule:evenodd;stroke:rgb(0, 255, 151);stroke-width:1;" d="M 110.473, 706.319 L 139.814, 695.89 L 151.48, 714.627 L 167.388, 740.433 L 136.279, 748.21 L 110.473, 706.319 z "/>
<path style="fill:rgb(0, 0, 255);fill-opacity:0;fill-rule:evenodd;stroke:rgb(0, 255, 151);stroke-width:1;" d="M 506.761, 775.254 L 514.715, 763.942 L 518.25, 765.356 L 536.456, 739.903 L 550.597, 745.736 L 543.703, 755.281 L 542.819, 757.048 L 539.991, 761.29 L 545.647, 763.588 L 548.475, 759.523 L 550.95, 758.285 L 557.667, 748.741 L 571.277, 754.397 L 553.071, 779.85 L 555.899, 780.91 L 547.768, 792.223 L 530.8, 785.329 L 539.638, 773.133 L 532.567, 770.128 L 532.037, 769.951 L 523.199, 782.148 L 506.761, 775.254 z "/>
<path style="fill:rgb(255, 255, 0);fill-opacity:0;fill-rule:evenodd;stroke:rgb(0, 255, 151);stroke-width:1;" d="M 30.2254, 579.585 L 72.2934, 564.207 L 79.8939, 576.049 L 66.1069, 581.175 L 66.4605, 581.706 L 73.7075, 593.018 L 87.4945, 587.892 L 95.095, 599.912 L 53.027, 615.289 L 45.4264, 603.447 L 59.2134, 598.321 L 51.6129, 586.478 L 37.8259, 591.604 L 30.2254, 579.585 z "/>
<path style="fill:rgb(255, 0, 0);fill-opacity:0;fill-rule:evenodd;stroke:rgb(0, 255, 151);stroke-width:1;" d="M 472.824, 258.241 L 481.662, 252.408 L 485.373, 255.59 L 492.62, 250.817 L 506.584, 262.837 L 511.887, 259.125 L 510.296, 257.888 L 515.599, 254.353 L 527.265, 264.428 L 516.836, 271.321 L 523.199, 276.977 L 529.563, 272.735 L 541.582, 283.164 L 518.78, 298.365 L 472.824, 258.241 z "/>
<path style="fill:rgb(0, 255, 0);fill-opacity:0;fill-rule:evenodd;stroke:rgb(0, 255, 151);stroke-width:1;" d="M 465.577, 204.331 L 488.202, 189.306 L 509.589, 207.866 L 507.998, 208.926 L 528.679, 226.779 L 513.831, 236.677 L 500.398, 225.011 L 494.741, 228.723 L 495.449, 231.198 L 490.676, 234.379 L 478.833, 223.951 L 490.499, 216.35 L 484.49, 211.047 L 478.126, 215.289 L 465.577, 204.331 z "/>
<path style="fill:rgb(0, 0, 255);fill-opacity:0;fill-rule:evenodd;stroke:rgb(0, 255, 151);stroke-width:1;" d="M 33.5837, 696.774 L 50.1989, 690.941 L 53.9107, 696.951 L 58.1529, 696.421 L 72.2934, 691.295 L 68.0513, 684.401 L 81.8383, 679.452 L 98.6301, 706.496 L 84.8431, 711.445 L 80.4242, 704.375 L 69.8188, 708.087 L 69.2886, 707.38 L 66.4605, 708.44 L 67.1675, 709.677 L 65.2232, 710.384 L 64.3394, 712.506 L 67.521, 717.631 L 51.9664, 723.288 L 50.1989, 723.818 L 33.5837, 696.774 z "/>
<path style="fill:rgb(255, 255, 0);fill-opacity:0;fill-rule:evenodd;stroke:rgb(0, 255, 151);stroke-width:1;" d="M 513.831, 236.677 L 528.679, 226.779 L 549.536, 244.985 L 552.011, 243.394 L 572.868, 261.423 L 549.89, 276.624 L 538.754, 266.726 L 544.587, 262.837 L 538.047, 257.181 L 527.265, 264.428 L 515.599, 254.353 L 520.371, 251.171 L 521.608, 252.232 L 527.441, 248.343 L 513.831, 236.677 z "/>
<path style="fill:rgb(255, 0, 0);fill-opacity:0;fill-rule:evenodd;stroke:rgb(0, 255, 151);stroke-width:1;" d="M 433.23, 225.718 L 456.385, 210.34 L 469.112, 221.299 L 463.279, 225.188 L 469.112, 230.314 L 478.833, 223.951 L 490.676, 234.379 L 486.611, 237.03 L 485.197, 235.793 L 479.717, 239.505 L 492.62, 250.817 L 485.373, 255.59 L 481.662, 252.408 L 472.824, 258.241 L 441.538, 231.198 L 440.477, 231.905 L 433.23, 225.718 z "/>
<path style="fill:rgb(0, 255, 0);fill-opacity:0;fill-rule:evenodd;stroke:rgb(0, 255, 151);stroke-width:1;" d="M 496.156, 71.0561 L 516.836, 56.9156 L 544.41, 80.2475 L 547.415, 78.1264 L 556.253, 85.3734 L 558.02, 86.9642 L 534.158, 103.226 L 496.156, 71.0561 z "/>
<path style="fill:rgb(0, 0, 255);fill-opacity:0;fill-rule:evenodd;stroke:rgb(0, 255, 151);stroke-width:1;" d="M 724.702, 372.956 L 769.775, 346.796 L 786.92, 363.588 L 757.402, 380.91 L 741.67, 389.925 L 724.702, 372.956 z "/>
<path style="fill:rgb(255, 255, 0);fill-opacity:0;fill-rule:evenodd;stroke:rgb(0, 255, 151);stroke-width:1;" d="M 569.51, 133.274 L 590.544, 117.897 L 601.679, 126.734 L 597.084, 129.916 L 596.2, 132.391 L 599.205, 134.865 L 599.735, 134.335 L 609.28, 141.935 L 608.749, 142.289 L 610.871, 144.057 L 613.699, 142.996 L 618.118, 139.638 L 627.309, 146.885 L 629.783, 148.829 L 606.982, 165.444 L 569.51, 133.274 z "/>
<path style="fill:rgb(255, 0, 0);fill-opacity:0;fill-rule:evenodd;stroke:rgb(0, 255, 151);stroke-width:1;" d="M 790.102, 687.76 L 797.349, 677.684 L 804.949, 680.866 L 814.848, 667.256 L 807.247, 664.074 L 809.368, 661.069 L 816.615, 650.994 L 847.548, 663.897 L 839.947, 674.503 L 839.063, 675.563 L 830.225, 672.028 L 818.383, 688.467 L 826.16, 691.648 L 819.973, 700.309 L 790.102, 687.76 z "/>
<path style="fill:rgb(0, 255, 0);fill-opacity:0;fill-rule:evenodd;stroke:rgb(0, 255, 151);stroke-width:1;" d="M 864.339, 695.537 L 878.657, 676.447 L 911.18, 690.411 L 929.032, 698.188 L 914.892, 717.278 L 899.16, 710.561 L 903.049, 705.082 L 884.666, 697.128 L 880.601, 702.43 L 864.339, 695.537 z "/>
<path style="fill:rgb(0, 0, 255);fill-opacity:0;fill-rule:evenodd;stroke:rgb(0, 255, 151);stroke-width:1;" d="M 78.3031, 474.238 L 108.529, 463.102 L 103.756, 455.502 L 106.938, 454.441 L 107.998, 451.083 L 112.771, 449.315 L 117.366, 450.552 L 120.194, 449.492 L 135.219, 472.647 L 113.478, 480.601 L 114.715, 482.722 L 112.24, 483.606 L 111.003, 481.662 L 88.3783, 489.969 L 78.3031, 474.238 z "/>
<path style="fill:rgb(255, 255, 0);fill-opacity:0;fill-rule:evenodd;stroke:rgb(0, 255, 151);stroke-width:1;" d="M 590.544, 117.897 L 613.345, 101.105 L 626.955, 111.887 L 618.294, 118.25 L 627.839, 125.851 L 636.5, 119.311 L 638.975, 121.255 L 650.11, 130.093 L 627.309, 146.885 L 618.118, 139.638 L 613.699, 136.103 L 622.536, 129.739 L 612.992, 122.139 L 604.154, 128.679 L 601.679, 126.734 L 590.544, 117.897 z "/>
<path style="fill:rgb(255, 0, 0);fill-opacity:0;fill-rule:evenodd;stroke:rgb(0, 255, 151);stroke-width:1;" d="M 929.209, 501.281 L 950.243, 488.732 L 992.488, 506.584 L 980.468, 523.023 L 929.209, 501.281 z "/>
<path style="fill:rgb(0, 255, 0);fill-opacity:0;fill-rule:evenodd;stroke:rgb(0, 255, 151);stroke-width:1;" d="M 824.216, 702.784 L 840.831, 679.982 L 842.245, 680.513 L 845.073, 676.624 L 839.947, 674.503 L 847.548, 663.897 L 872.293, 674.326 L 865.753, 683.341 L 861.865, 681.75 L 859.744, 682.987 L 858.153, 685.108 L 859.39, 685.639 L 841.715, 710.031 L 824.216, 702.784 z "/>
<path style="fill:rgb(0, 0, 255);fill-opacity:0;fill-rule:evenodd;stroke:rgb(0, 255, 151);stroke-width:1;" d="M 178.878, 600.795 L 211.224, 589.306 L 221.829, 606.805 L 189.306, 618.118 L 178.878, 600.795 z "/>
<path style="fill:rgb(255, 255, 0);fill-opacity:0;fill-rule:evenodd;stroke:rgb(0, 255, 151);stroke-width:1;" d="M 950.243, 488.732 L 963.853, 480.247 L 971.277, 483.429 L 987.185, 490.146 L 1002.39, 496.509 L 992.488, 506.584 L 950.243, 488.732 z "/>
<path style="fill:rgb(255, 0, 0);fill-opacity:0;fill-rule:evenodd;stroke:rgb(0, 255, 151);stroke-width:1;" d="M 764.472, 80.9545 L 774.547, 73.7075 L 802.121, 95.4485 L 792.046, 102.696 L 764.472, 80.9545 z "/>
<path style="fill:rgb(0, 255, 0);fill-opacity:0;fill-rule:evenodd;stroke:rgb(0, 255, 151);stroke-width:1;" d="M 817.676, 387.274 L 827.751, 380.91 L 844.366, 396.111 L 844.543, 396.288 L 846.133, 395.404 L 851.436, 400.177 L 845.073, 404.242 L 849.669, 408.308 L 844.543, 411.666 L 817.676, 387.274 z "/>
<path style="fill:rgb(0, 0, 255);fill-opacity:0;fill-rule:evenodd;stroke:rgb(0, 255, 151);stroke-width:1;" d="M 742.201, 97.3928 L 751.392, 90.6761 L 778.789, 112.594 L 769.598, 119.311 L 765.709, 116.306 L 751.922, 105.17 L 742.201, 97.3928 z "/>
<path style="fill:rgb(255, 255, 0);fill-opacity:0;fill-rule:evenodd;stroke:rgb(0, 255, 151);stroke-width:1;" d="M 755.811, 87.3177 L 764.472, 80.9545 L 792.046, 102.696 L 783.385, 109.059 L 755.811, 87.3177 z "/>
<path style="fill:rgb(255, 0, 0);fill-opacity:0;fill-rule:evenodd;stroke:rgb(0, 255, 151);stroke-width:1;" d="M 778.966, 70.8794 L 788.511, 63.8091 L 792.93, 67.1675 L 802.651, 74.9448 L 813.257, 83.2523 L 803.889, 90.3226 L 778.966, 70.8794 z "/>
<path style="fill:rgb(0, 255, 0);fill-opacity:0;fill-rule:evenodd;stroke:rgb(0, 255, 151);stroke-width:1;" d="M 721.167, 116.129 L 733.009, 107.821 L 755.281, 125.851 L 746.796, 131.86 L 734.423, 121.785 L 731.065, 124.26 L 721.167, 116.129 z "/>
<path style="fill:rgb(0, 0, 255);fill-opacity:0;fill-rule:evenodd;stroke:rgb(0, 255, 151);stroke-width:1;" d="M 854.618, 107.291 L 864.87, 93.5042 L 877.773, 99.1604 L 875.475, 102.165 L 882.545, 105.347 L 877.95, 111.18 L 875.652, 114.185 L 868.758, 111.18 L 866.637, 114.008 L 861.158, 111.71 L 862.042, 110.473 L 854.618, 107.291 z "/>
<path style="fill:rgb(255, 255, 0);fill-opacity:0;fill-rule:evenodd;stroke:rgb(0, 255, 151);stroke-width:1;" d="M 967.565, 153.248 L 970.217, 149.89 L 984.887, 129.916 L 994.609, 134.158 L 977.464, 157.49 L 967.565, 153.248 z "/>
<path style="fill:rgb(255, 0, 0);fill-opacity:0;fill-rule:evenodd;stroke:rgb(0, 255, 151);stroke-width:1;" d="M 19.9735, 335.837 L 31.2859, 328.06 L 47.194, 341.317 L 36.4118, 348.741 L 36.0583, 349.094 L 19.9735, 335.837 z "/>
<path style="fill:rgb(0, 255, 0);fill-opacity:0;fill-rule:evenodd;stroke:rgb(0, 255, 151);stroke-width:1;" d="M 941.582, 138.047 L 956.43, 117.897 L 966.328, 122.139 L 951.657, 142.289 L 941.582, 138.047 z "/>
<path style="fill:rgb(0, 0, 255);fill-opacity:0;fill-rule:evenodd;stroke:rgb(0, 255, 151);stroke-width:1;" d="M 931.684, 133.805 L 946.531, 113.831 L 956.43, 117.897 L 941.582, 138.047 L 931.684, 133.805 z "/>
<path style="fill:rgb(255, 255, 0);fill-opacity:0;fill-rule:evenodd;stroke:rgb(0, 255, 151);stroke-width:1;" d="M 960.318, 145.647 L 974.989, 125.674 L 984.887, 129.916 L 970.217, 149.89 L 960.318, 145.647 z "/>
<path style="fill:rgb(255, 0, 0);fill-opacity:0;fill-rule:evenodd;stroke:rgb(0, 255, 151);stroke-width:1;" d="M 881.308, 89.9691 L 886.434, 83.2523 L 883.959, 82.1918 L 890.323, 73.8842 L 903.933, 79.7172 L 893.327, 93.681 L 892.444, 94.9183 L 881.308, 89.9691 z "/>
<path style="fill:rgb(0, 255, 0);fill-opacity:0;fill-rule:evenodd;stroke:rgb(0, 255, 151);stroke-width:1;" d="M 897.393, 119.311 L 910.826, 101.458 L 920.725, 105.7 L 915.599, 112.771 L 907.291, 123.73 L 897.393, 119.311 z "/>
<path style="fill:rgb(0, 0, 255);fill-opacity:0;fill-rule:evenodd;stroke:rgb(0, 255, 151);stroke-width:1;" d="M 914.538, 125.851 L 924.437, 112.24 L 926.734, 113.301 L 931.153, 107.291 L 938.224, 110.296 L 937.163, 111.533 L 923.906, 129.739 L 914.538, 125.851 z "/>
<path style="fill:rgb(255, 255, 0);fill-opacity:0;fill-rule:evenodd;stroke:rgb(0, 255, 151);stroke-width:1;" d="M 742.201, 112.24 L 751.922, 105.17 L 765.709, 116.306 L 755.988, 123.199 L 742.201, 112.24 z "/>
<path style="fill:rgb(255, 0, 0);fill-opacity:0;fill-rule:evenodd;stroke:rgb(0, 255, 151);stroke-width:1;" d="M 963.853, 480.247 L 974.282, 475.122 L 992.488, 482.899 L 987.185, 490.146 L 971.277, 483.429 L 963.853, 480.247 z "/>
<path style="fill:rgb(0, 255, 0);fill-opacity:0;fill-rule:evenodd;stroke:rgb(0, 255, 151);stroke-width:1;" d="M 736.191, 78.8334 L 746.443, 71.2329 L 754.043, 77.0658 L 743.791, 84.6664 L 736.191, 78.8334 z "/>
<path style="fill:rgb(0, 0, 255);fill-opacity:0;fill-rule:evenodd;stroke:rgb(0, 255, 151);stroke-width:1;" d="M 727.176, 85.5502 L 736.191, 78.8334 L 743.791, 84.6664 L 734.6, 91.3831 L 727.176, 85.5502 z "/>
<path style="fill:rgb(255, 255, 0);fill-opacity:0;fill-rule:evenodd;stroke:rgb(0, 255, 151);stroke-width:1;" d="M 761.821, 60.4507 L 770.658, 54.0875 L 777.905, 59.9205 L 769.068, 66.2837 L 761.821, 60.4507 z "/>
<path style="fill:rgb(255, 0, 0);fill-opacity:0;fill-rule:evenodd;stroke:rgb(0, 255, 151);stroke-width:1;" d="M 934.335, 101.281 L 940.875, 92.9739 L 949.006, 96.5091 L 942.466, 104.993 L 934.335, 101.281 z "/>
<path style="fill:rgb(0, 255, 0);fill-opacity:0;fill-rule:evenodd;stroke:rgb(0, 255, 151);stroke-width:1;" d="M 753.69, 66.2837 L 761.821, 60.4507 L 769.068, 66.2837 L 760.937, 72.1167 L 753.69, 66.2837 z "/>
<path style="fill:rgb(0, 0, 255);fill-opacity:0;fill-rule:evenodd;stroke:rgb(0, 255, 151);stroke-width:1;" d="M 942.466, 104.993 L 949.006, 96.5091 L 956.253, 99.8674 L 949.536, 108.175 L 942.466, 104.993 z "/>
<path style="fill:rgb(255, 255, 0);fill-opacity:0;fill-rule:evenodd;stroke:rgb(0, 255, 151);stroke-width:1;" d="M 927.618, 98.2766 L 934.158, 89.7923 L 940.875, 92.9739 L 934.335, 101.281 L 927.618, 98.2766 z "/>
<path style="fill:rgb(255, 0, 0);fill-opacity:0;fill-rule:evenodd;stroke:rgb(0, 255, 151);stroke-width:1;" d="M 967.742, 114.361 L 973.045, 107.114 L 980.292, 110.296 L 974.989, 117.366 L 967.742, 114.361 z "/>
<path style="fill:rgb(0, 255, 0);fill-opacity:0;fill-rule:evenodd;stroke:rgb(0, 255, 151);stroke-width:1;" d="M 974.989, 117.366 L 980.292, 110.296 L 986.832, 112.947 L 981.529, 120.194 L 974.989, 117.366 z "/>
<path style="fill:rgb(0, 0, 255);fill-opacity:0;fill-rule:evenodd;stroke:rgb(0, 255, 151);stroke-width:1;" d="M 0, 523.023 L 6.36323, 520.548 L 5.47945, 519.134 L 9.3681, 517.013 L 19.4432, 513.301 L 18.3827, 511.71 L 21.3875, 509.589 L 26.16, 507.821 L 37.2956, 525.32 L 46.6637, 521.962 L 45.4264, 519.841 L 49.4918, 518.25 L 37.4724, 499.514 L 39.7702, 497.216 L 44.1891, 495.625 L 43.8356, 494.918 L 50.9059, 492.267 L 49.8453, 490.676 L 52.8502, 488.555 L 56.7388, 486.964 L 56.0318, 485.904 L 64.3394, 482.899 L 63.4556, 481.308 L 66.1069, 479.187 L 71.2329, 477.243 L 82.1918, 494.565 L 72.2934, 498.1 L 80.0707, 510.296 L 89.9691, 506.584 L 90.6761, 507.645 L 100.574, 523.199 L 70.3491, 534.335 L 65.3999, 526.558 L 60.981, 528.148 L 62.3951, 530.446 L 60.274, 531.153 L 59.5669, 530.093 L 47.3707, 534.512 L 50.7291, 539.638 L 55.6783, 537.693 L 62.5718, 548.652 L 25.0994, 562.439 L 16.2616, 548.652 L 11.6659, 550.42 L 5.83297, 541.405 L 10.6054, 539.638 L 0, 523.023 z "/>
<path style="fill:rgb(255, 255, 0);fill-opacity:0;fill-rule:evenodd;stroke:rgb(0, 255, 151);stroke-width:1;" d="M 16.4384, 669.2 L 33.0535, 663.367 L 36.9421, 669.554 L 40.4772, 670.261 L 42.2448, 669.554 L 42.9518, 670.614 L 45.9567, 669.554 L 45.0729, 668.14 L 55.3248, 664.428 L 50.7291, 657.004 L 64.8696, 651.878 L 81.8383, 679.452 L 68.0513, 684.401 L 63.6323, 677.508 L 49.3151, 682.634 L 46.6637, 685.285 L 50.1989, 690.941 L 33.5837, 696.774 L 16.4384, 669.2 z "/>
<path style="fill:rgb(255, 0, 0);fill-opacity:0;fill-rule:evenodd;stroke:rgb(0, 255, 151);stroke-width:1;" d="M 9.72161, 658.595 L 67.6977, 637.914 L 74.4145, 648.52 L 64.8696, 651.878 L 50.7291, 657.004 L 33.0535, 663.367 L 16.4384, 669.2 L 9.72161, 658.595 z "/>
<path style="fill:rgb(0, 255, 0);fill-opacity:0;fill-rule:evenodd;stroke:rgb(0, 255, 151);stroke-width:1;" d="M 908.705, 61.5113 L 910.826, 58.8599 L 916.129, 54.7945 L 918.427, 55.8551 L 922.669, 50.1989 L 926.381, 51.6129 L 932.391, 43.4821 L 933.628, 44.0124 L 935.749, 41.0075 L 940.345, 37.6491 L 966.151, 48.4313 L 959.081, 57.9761 L 967.919, 61.688 L 974.812, 52.1432 L 1000.09, 62.9253 L 993.195, 72.2934 L 1002.03, 76.1821 L 1009.1, 66.6372 L 1035.62, 77.9496 L 1025.19, 92.2669 L 1018.82, 89.4388 L 1008.4, 103.756 L 991.427, 96.5091 L 997.791, 87.848 L 991.958, 85.3734 L 993.725, 82.8988 L 990.367, 81.4848 L 982.236, 92.6204 L 908.705, 61.5113 z "/>
<path style="fill:rgb(0, 0, 255);fill-opacity:0;fill-rule:evenodd;stroke:rgb(0, 255, 151);stroke-width:1;" d="M 681.75, 50.7291 L 710.738, 29.5183 L 721.52, 37.8259 L 716.924, 41.0075 L 730.181, 51.4361 L 750.862, 36.2351 L 737.605, 25.8065 L 733.009, 29.1648 L 722.404, 20.8573 L 750.862, 0 L 751.392, 0.353513 L 763.588, 9.89837 L 765.179, 11.1357 L 761.997, 13.4335 L 759.346, 16.6151 L 770.305, 25.2762 L 777.022, 20.327 L 788.157, 29.1648 L 789.395, 30.2254 L 720.283, 81.1312 L 718.692, 79.8939 L 708.263, 71.7631 L 715.687, 66.2837 L 710.384, 62.2183 L 711.268, 61.5113 L 707.733, 58.8599 L 706.849, 59.3902 L 703.314, 56.5621 L 696.067, 61.8648 L 681.75, 50.7291 z "/>
<path style="fill:rgb(255, 255, 0);fill-opacity:0;fill-rule:evenodd;stroke:rgb(0, 255, 151);stroke-width:1;" d="M 479.717, 53.5572 L 514.361, 28.6346 L 549.006, 56.3853 L 555.899, 51.4361 L 567.565, 60.6275 L 578.524, 69.4653 L 556.253, 85.3734 L 547.415, 78.1264 L 514.892, 50.5524 L 494.388, 65.3999 L 479.717, 53.5572 z "/>
<path style="fill:rgb(255, 0, 0);fill-opacity:0;fill-rule:evenodd;stroke:rgb(0, 255, 151);stroke-width:1;" d="M 352.099, 28.9881 L 374.901, 12.1962 L 393.106, 28.281 L 387.274, 32.1697 L 387.804, 32.7 L 381.264, 36.9421 L 387.45, 42.2448 L 387.627, 42.4216 L 400, 34.2908 L 416.438, 48.608 L 402.121, 58.1529 L 400.53, 56.5621 L 399.646, 57.0924 L 398.232, 55.8551 L 369.421, 76.0053 L 362.704, 56.2086 L 369.068, 54.7945 L 367.123, 49.4918 L 360.23, 50.9059 L 352.099, 28.9881 z "/>
<path style="fill:rgb(0, 255, 0);fill-opacity:0;fill-rule:evenodd;stroke:rgb(0, 255, 151);stroke-width:1;" d="M 780.38, 57.2691 L 814.317, 32.3464 L 819.266, 36.2351 L 827.044, 42.2448 L 817.676, 49.1383 L 825.806, 55.5015 L 828.811, 55.8551 L 836.765, 50.0221 L 850.729, 60.981 L 851.083, 61.3345 L 817.145, 86.2572 L 813.257, 83.2523 L 802.651, 74.9448 L 810.605, 69.1118 L 809.898, 66.4605 L 802.298, 60.4507 L 792.93, 67.1675 L 788.511, 63.8091 L 780.38, 57.2691 z "/>
<path style="fill:rgb(0, 0, 255);fill-opacity:0;fill-rule:evenodd;stroke:rgb(0, 255, 151);stroke-width:1;" d="M 819.266, 36.2351 L 831.286, 27.3973 L 862.749, 52.1432 L 850.729, 60.981 L 836.765, 50.0221 L 827.044, 42.2448 L 819.266, 36.2351 z "/>
</svg>