<?xml version="1.0" encoding="iso-8859-1" standalone="no"?>
<!DOCTYPE svg PUBLIC "-//W3C//DTD SVG 1.0//EN" "http://www.w3.org/TR/2001/REC-SVG-20010904/DTD/svg10.dtd">
<svg xmlns="http://www.w3.org/2000/svg" width="619" height="800">
<path style="fill:rgb(255, 0, 0);fill-opacity:0;fill-rule:evenodd;stroke:rgb(128, 0, 255);stroke-width:1;" d="M 383.505, 234.864 L 392.127, 223.243 L 396.064, 224.93 L 408.81, 207.498 L 412.746, 209.185 L 435.801, 177.694 L 426.617, 173.946 L 448.172, 144.517 L 470.665, 153.889 L 463.168, 164.011 L 482.287, 172.071 L 480.6, 174.321 L 486.785, 177.132 L 492.784, 168.885 L 494.845, 169.634 L 497.844, 165.511 L 537.582, 182.193 L 471.79, 272.165 L 383.505, 234.864 z "/>
<path style="fill:rgb(0, 255, 0);fill-opacity:0;fill-rule:evenodd;stroke:rgb(128, 0, 255);stroke-width:1;" d="M 88.0975, 570.759 L 134.021, 507.404 L 164.199, 520.15 L 187.816, 530.084 L 220.056, 543.58 L 169.447, 604.873 L 88.0975, 570.759 z "/>
<path style="fill:rgb(0, 0, 255);fill-opacity:0;fill-rule:evenodd;stroke:rgb(128, 0, 255);stroke-width:1;" d="M 187.816, 530.084 L 292.409, 385.942 L 327.648, 400.75 L 223.055, 544.892 L 220.056, 543.58 L 187.816, 530.084 z "/>
<path style="fill:rgb(255, 255, 0);fill-opacity:0;fill-rule:evenodd;stroke:rgb(128, 0, 255);stroke-width:1;" d="M 191.003, 73.2896 L 208.247, 49.8594 L 232.99, 60.3561 L 234.489, 58.2943 L 256.795, 67.6664 L 255.295, 69.7282 L 291.097, 84.911 L 292.596, 82.8491 L 314.902, 92.2212 L 313.402, 94.283 L 338.332, 104.78 L 335.145, 109.091 L 321.275, 128.21 L 307.966, 122.587 L 304.78, 127.085 L 272.915, 113.59 L 266.729, 122.024 L 247.423, 113.777 L 244.049, 118.463 L 244.799, 118.838 L 230.74, 138.144 L 244.799, 144.142 L 238.8, 152.39 L 207.685, 139.269 L 213.683, 131.022 L 222.868, 134.958 L 240.3, 110.778 L 226.054, 104.78 L 232.24, 96.3449 L 200.937, 83.0366 L 204.124, 78.7254 L 191.003, 73.2896 z "/>
<path style="fill:rgb(255, 0, 0);fill-opacity:0;fill-rule:evenodd;stroke:rgb(128, 0, 255);stroke-width:1;" d="M 49.8594, 188.566 L 57.732, 177.694 L 88.6598, 190.815 L 101.031, 195.876 L 107.966, 186.504 L 123.336, 192.877 L 129.897, 184.067 L 114.714, 177.507 L 125.961, 162.324 L 193.814, 191.003 L 182.755, 206.186 L 171.134, 201.125 L 167.573, 205.998 L 171.696, 207.685 L 157.076, 227.929 L 96.5323, 202.437 L 93.1584, 206.935 L 87.3477, 204.499 L 49.8594, 188.566 z "/>
<path style="fill:rgb(0, 255, 0);fill-opacity:0;fill-rule:evenodd;stroke:rgb(128, 0, 255);stroke-width:1;" d="M 314.152, 137.957 L 321.275, 128.21 L 335.145, 109.091 L 342.643, 112.277 L 343.955, 111.903 L 347.516, 113.402 L 347.891, 114.527 L 355.576, 117.901 L 357.076, 117.526 L 360.637, 119.025 L 361.012, 120.15 L 382.381, 129.147 L 384.067, 128.96 L 386.692, 129.897 L 387.441, 130.272 L 388.191, 131.584 L 396.064, 134.958 L 397.563, 134.583 L 400.937, 136.082 L 401.687, 137.395 L 408.81, 140.394 L 387.816, 168.885 L 386.504, 168.322 L 380.694, 165.886 L 378.819, 166.448 L 375.445, 164.948 L 375.07, 163.636 L 367.198, 160.262 L 365.323, 160.637 L 361.949, 159.325 L 361.575, 157.826 L 353.889, 154.639 L 351.828, 155.014 L 348.641, 153.702 L 348.079, 152.202 L 340.581, 149.016 L 338.332, 149.391 L 335.145, 147.891 L 334.77, 146.579 L 327.085, 143.205 L 325.023, 143.58 L 321.837, 142.268 L 321.275, 140.956 L 314.152, 137.957 z "/>
<path style="fill:rgb(0, 0, 255);fill-opacity:0;fill-rule:evenodd;stroke:rgb(128, 0, 255);stroke-width:1;" d="M 288.285, 348.079 L 296.907, 336.27 L 301.031, 338.144 L 320.712, 310.965 L 359.138, 327.085 L 360.262, 325.773 L 388.941, 337.769 L 359.513, 378.069 L 336.082, 368.322 L 355.201, 342.268 L 331.022, 331.959 L 311.903, 358.013 L 288.285, 348.079 z "/>
<path style="fill:rgb(255, 255, 0);fill-opacity:0;fill-rule:evenodd;stroke:rgb(128, 0, 255);stroke-width:1;" d="M 175.445, 229.991 L 190.44, 209.372 L 182.755, 206.186 L 193.814, 191.003 L 257.357, 217.807 L 245.923, 233.365 L 238.425, 230.178 L 223.805, 250.422 L 175.445, 229.991 z "/>
<path style="fill:rgb(255, 0, 0);fill-opacity:0;fill-rule:evenodd;stroke:rgb(128, 0, 255);stroke-width:1;" d="M 229.616, 169.822 L 240.487, 154.827 L 237.863, 153.702 L 238.8, 152.39 L 244.799, 144.142 L 246.111, 142.455 L 256.607, 146.767 L 262.793, 138.332 L 301.406, 154.639 L 292.221, 167.385 L 306.654, 173.571 L 305.904, 174.695 L 290.534, 195.689 L 229.616, 169.822 z "/>
<path style="fill:rgb(0, 255, 0);fill-opacity:0;fill-rule:evenodd;stroke:rgb(128, 0, 255);stroke-width:1;" d="M 295.033, 282.849 L 304.967, 269.353 L 312.465, 272.54 L 319.588, 263.168 L 305.904, 257.357 L 316.589, 242.737 L 377.694, 268.416 L 367.198, 282.849 L 354.827, 277.788 L 348.079, 286.973 L 354.452, 289.784 L 344.33, 303.655 L 295.033, 282.849 z "/>
<path style="fill:rgb(0, 0, 255);fill-opacity:0;fill-rule:evenodd;stroke:rgb(128, 0, 255);stroke-width:1;" d="M 176.195, 300.843 L 187.254, 285.661 L 192.502, 287.91 L 207.685, 267.104 L 255.858, 287.535 L 244.611, 303.093 L 239.738, 301.031 L 235.801, 306.092 L 246.111, 310.59 L 235.052, 325.773 L 176.195, 300.843 z "/>
<path style="fill:rgb(255, 255, 0);fill-opacity:0;fill-rule:evenodd;stroke:rgb(128, 0, 255);stroke-width:1;" d="M 91.6589, 414.995 L 98.5942, 405.248 L 99.7188, 405.811 L 104.405, 399.438 L 107.779, 398.688 L 110.965, 394.189 L 116.214, 396.251 L 127.085, 381.443 L 129.147, 382.193 L 132.709, 377.32 L 167.385, 391.753 L 158.575, 403.749 L 160.45, 404.499 L 161.2, 406.748 L 148.641, 423.805 L 145.267, 424.367 L 143.955, 423.805 L 136.457, 434.302 L 130.834, 431.865 L 128.96, 434.489 L 120.15, 430.74 L 122.212, 428.116 L 107.966, 422.118 L 105.904, 424.742 L 96.7198, 420.993 L 97.8444, 419.494 L 97.0947, 417.432 L 91.6589, 414.995 z "/>
<path style="fill:rgb(255, 0, 0);fill-opacity:0;fill-rule:evenodd;stroke:rgb(128, 0, 255);stroke-width:1;" d="M 237.676, 256.045 L 244.986, 245.923 L 246.673, 246.673 L 250.797, 241.05 L 253.796, 242.362 L 256.982, 238.051 L 245.923, 233.365 L 257.357, 217.807 L 316.589, 242.737 L 305.904, 257.357 L 305.53, 258.107 L 294.096, 253.233 L 290.722, 257.919 L 296.72, 260.356 L 285.286, 276.101 L 237.676, 256.045 z "/>
<path style="fill:rgb(0, 255, 0);fill-opacity:0;fill-rule:evenodd;stroke:rgb(128, 0, 255);stroke-width:1;" d="M 355.389, 307.404 L 365.323, 293.721 L 372.821, 296.907 L 379.381, 288.097 L 367.198, 282.849 L 377.694, 268.416 L 431.303, 291.097 L 404.311, 328.022 L 355.389, 307.404 z "/>
<path style="fill:rgb(0, 0, 255);fill-opacity:0;fill-rule:evenodd;stroke:rgb(128, 0, 255);stroke-width:1;" d="M 116.589, 275.726 L 117.151, 274.789 L 127.46, 260.918 L 145.267, 268.604 L 152.577, 258.482 L 139.082, 252.858 L 148.641, 239.738 L 198.688, 260.731 L 189.878, 272.915 L 181.068, 269.166 L 177.694, 268.791 L 171.509, 277.413 L 188.004, 284.349 L 187.254, 285.661 L 176.195, 300.843 L 116.589, 275.726 z "/>
<path style="fill:rgb(255, 255, 0);fill-opacity:0;fill-rule:evenodd;stroke:rgb(128, 0, 255);stroke-width:1;" d="M 138.707, 131.396 L 145.642, 121.837 L 154.827, 109.091 L 166.261, 113.964 L 175.258, 101.593 L 210.684, 116.589 L 204.686, 125.023 L 214.808, 129.335 L 213.683, 131.022 L 207.685, 139.269 L 206.748, 140.394 L 204.311, 139.456 L 193.252, 154.452 L 138.707, 131.396 z "/>
<path style="fill:rgb(255, 0, 0);fill-opacity:0;fill-rule:evenodd;stroke:rgb(128, 0, 255);stroke-width:1;" d="M 235.052, 325.773 L 246.111, 310.59 L 259.981, 316.214 L 265.604, 308.529 L 256.607, 304.78 L 267.104, 290.347 L 311.34, 308.903 L 300.281, 323.899 L 291.097, 319.963 L 285.848, 327.085 L 299.344, 332.709 L 296.907, 336.27 L 288.285, 348.079 L 235.052, 325.773 z "/>
<path style="fill:rgb(0, 255, 0);fill-opacity:0;fill-rule:evenodd;stroke:rgb(128, 0, 255);stroke-width:1;" d="M 125.773, 369.447 L 155.951, 327.835 L 188.941, 341.706 L 183.13, 349.766 L 176.757, 358.388 L 176.195, 359.325 L 168.135, 355.951 L 158.95, 368.51 L 167.01, 371.884 L 179.756, 377.32 L 181.631, 378.069 L 170.947, 392.69 L 150.703, 384.255 L 153.327, 380.881 L 125.773, 369.447 z "/>
<path style="fill:rgb(0, 0, 255);fill-opacity:0;fill-rule:evenodd;stroke:rgb(128, 0, 255);stroke-width:1;" d="M 402.062, 331.209 L 404.311, 328.022 L 431.303, 291.097 L 453.421, 300.469 L 424.18, 340.581 L 402.062, 331.209 z "/>
<path style="fill:rgb(255, 255, 0);fill-opacity:0;fill-rule:evenodd;stroke:rgb(128, 0, 255);stroke-width:1;" d="M 185.754, 434.489 L 198.688, 416.495 L 237.301, 432.615 L 238.238, 435.989 L 234.864, 440.675 L 230.553, 441.987 L 231.678, 444.799 L 227.929, 450.047 L 224.742, 450.797 L 185.754, 434.489 z "/>
<path style="fill:rgb(255, 0, 0);fill-opacity:0;fill-rule:evenodd;stroke:rgb(128, 0, 255);stroke-width:1;" d="M 101.406, 115.651 L 116.589, 95.0328 L 146.767, 107.779 L 138.707, 118.838 L 145.642, 121.837 L 138.707, 131.396 L 101.406, 115.651 z "/>
<path style="fill:rgb(0, 255, 0);fill-opacity:0;fill-rule:evenodd;stroke:rgb(128, 0, 255);stroke-width:1;" d="M 172.071, 452.484 L 178.444, 443.674 L 217.994, 460.356 L 232.24, 466.354 L 225.867, 475.164 L 172.071, 452.484 z "/>
<path style="fill:rgb(0, 0, 255);fill-opacity:0;fill-rule:evenodd;stroke:rgb(128, 0, 255);stroke-width:1;" d="M 106.279, 270.291 L 125.586, 243.674 L 136.457, 228.679 L 147.516, 233.365 L 127.46, 260.918 L 117.151, 274.789 L 106.279, 270.291 z "/>
<path style="fill:rgb(255, 255, 0);fill-opacity:0;fill-rule:evenodd;stroke:rgb(128, 0, 255);stroke-width:1;" d="M 231.303, 371.509 L 238.051, 362.324 L 287.91, 383.318 L 281.162, 392.315 L 277.976, 391.003 L 231.303, 371.509 z "/>
<path style="fill:rgb(255, 0, 0);fill-opacity:0;fill-rule:evenodd;stroke:rgb(128, 0, 255);stroke-width:1;" d="M 198.688, 416.495 L 205.061, 407.873 L 247.985, 425.867 L 257.357, 429.803 L 251.172, 438.425 L 237.301, 432.615 L 198.688, 416.495 z "/>
<path style="fill:rgb(0, 255, 0);fill-opacity:0;fill-rule:evenodd;stroke:rgb(128, 0, 255);stroke-width:1;" d="M 218.182, 389.691 L 225.117, 380.131 L 269.166, 398.688 L 262.231, 408.06 L 218.182, 389.691 z "/>
<path style="fill:rgb(0, 0, 255);fill-opacity:0;fill-rule:evenodd;stroke:rgb(128, 0, 255);stroke-width:1;" d="M 205.061, 407.873 L 211.996, 398.313 L 254.92, 416.307 L 247.985, 425.867 L 205.061, 407.873 z "/>
<path style="fill:rgb(255, 255, 0);fill-opacity:0;fill-rule:evenodd;stroke:rgb(128, 0, 255);stroke-width:1;" d="M 174.695, 442.174 L 181.631, 432.802 L 185.754, 434.489 L 224.742, 450.797 L 217.994, 460.356 L 178.444, 443.674 L 174.695, 442.174 z "/>
<path style="fill:rgb(255, 0, 0);fill-opacity:0;fill-rule:evenodd;stroke:rgb(128, 0, 255);stroke-width:1;" d="M 225.117, 380.131 L 231.303, 371.509 L 277.976, 391.003 L 271.603, 399.813 L 269.166, 398.688 L 225.117, 380.131 z "/>
<path style="fill:rgb(0, 255, 0);fill-opacity:0;fill-rule:evenodd;stroke:rgb(128, 0, 255);stroke-width:1;" d="M 41.0497, 200.75 L 49.8594, 188.566 L 87.3477, 204.499 L 84.5361, 208.247 L 77.7882, 205.248 L 72.1649, 212.933 L 61.4808, 208.622 L 61.1059, 209.185 L 41.0497, 200.75 z "/>
<path style="fill:rgb(0, 0, 255);fill-opacity:0;fill-rule:evenodd;stroke:rgb(128, 0, 255);stroke-width:1;" d="M 124.836, 83.5989 L 134.021, 71.0403 L 164.386, 83.7863 L 155.201, 96.3449 L 124.836, 83.5989 z "/>
<path style="fill:rgb(255, 255, 0);fill-opacity:0;fill-rule:evenodd;stroke:rgb(128, 0, 255);stroke-width:1;" d="M 211.996, 398.313 L 218.182, 389.691 L 262.231, 408.06 L 256.045, 416.682 L 254.92, 416.307 L 211.996, 398.313 z "/>
<path style="fill:rgb(255, 0, 0);fill-opacity:0;fill-rule:evenodd;stroke:rgb(128, 0, 255);stroke-width:1;" d="M 23.6176, 47.985 L 30.553, 38.6129 L 69.5408, 54.9203 L 62.6054, 64.2924 L 23.6176, 47.985 z "/>
<path style="fill:rgb(0, 255, 0);fill-opacity:0;fill-rule:evenodd;stroke:rgb(128, 0, 255);stroke-width:1;" d="M 71.9775, 407.123 L 93.5333, 377.507 L 105.53, 382.568 L 84.1612, 412.371 L 71.9775, 407.123 z "/>
<path style="fill:rgb(0, 0, 255);fill-opacity:0;fill-rule:evenodd;stroke:rgb(128, 0, 255);stroke-width:1;" d="M 59.7938, 402.062 L 75.9138, 379.756 L 81.3496, 372.446 L 93.5333, 377.507 L 71.9775, 407.123 L 59.7938, 402.062 z "/>
<path style="fill:rgb(255, 255, 0);fill-opacity:0;fill-rule:evenodd;stroke:rgb(128, 0, 255);stroke-width:1;" d="M 65.9794, 166.448 L 74.4142, 154.827 L 105.342, 167.948 L 96.9072, 179.381 L 65.9794, 166.448 z "/>
<path style="fill:rgb(255, 0, 0);fill-opacity:0;fill-rule:evenodd;stroke:rgb(128, 0, 255);stroke-width:1;" d="M 146.017, 488.472 L 152.202, 479.85 L 191.753, 496.345 L 190.815, 497.47 L 191.378, 498.969 L 191.565, 499.719 L 191.378, 500.281 L 190.815, 501.781 L 190.253, 502.343 L 188.754, 503.28 L 188.004, 503.655 L 186.129, 504.03 L 185.38, 504.967 L 177.694, 501.781 L 146.017, 488.472 z "/>
<path style="fill:rgb(0, 255, 0);fill-opacity:0;fill-rule:evenodd;stroke:rgb(128, 0, 255);stroke-width:1;" d="M 57.732, 177.694 L 65.9794, 166.448 L 96.9072, 179.381 L 88.6598, 190.815 L 57.732, 177.694 z "/>
<path style="fill:rgb(0, 0, 255);fill-opacity:0;fill-rule:evenodd;stroke:rgb(128, 0, 255);stroke-width:1;" d="M 116.589, 95.0328 L 124.836, 83.5989 L 155.201, 96.3449 L 146.767, 107.779 L 116.589, 95.0328 z "/>
<path style="fill:rgb(255, 255, 0);fill-opacity:0;fill-rule:evenodd;stroke:rgb(128, 0, 255);stroke-width:1;" d="M 74.4142, 154.827 L 82.4742, 143.955 L 113.402, 157.076 L 105.342, 167.948 L 74.4142, 154.827 z "/>
<path style="fill:rgb(255, 0, 0);fill-opacity:0;fill-rule:evenodd;stroke:rgb(128, 0, 255);stroke-width:1;" d="M 134.021, 71.0403 L 143.58, 57.9194 L 167.385, 72.7273 L 170.759, 74.9766 L 164.386, 83.7863 L 134.021, 71.0403 z "/>
<path style="fill:rgb(0, 255, 0);fill-opacity:0;fill-rule:evenodd;stroke:rgb(128, 0, 255);stroke-width:1;" d="M 24.9297, 387.441 L 39.925, 366.823 L 42.5492, 367.76 L 49.1097, 358.763 L 58.2943, 362.512 L 56.4199, 365.136 L 36.5511, 392.315 L 24.9297, 387.441 z "/>
<path style="fill:rgb(0, 0, 255);fill-opacity:0;fill-rule:evenodd;stroke:rgb(128, 0, 255);stroke-width:1;" d="M 83.7863, 260.731 L 99.344, 239.363 L 102.53, 240.675 L 103.468, 239.55 L 100.843, 238.425 L 105.717, 231.865 L 115.839, 235.989 L 110.965, 242.737 L 107.966, 241.425 L 106.842, 242.737 L 110.778, 244.424 L 95.2202, 265.604 L 83.7863, 260.731 z "/>
<path style="fill:rgb(255, 255, 0);fill-opacity:0;fill-rule:evenodd;stroke:rgb(128, 0, 255);stroke-width:1;" d="M 143.58, 57.9194 L 150.89, 47.985 L 177.32, 59.2315 L 167.385, 72.7273 L 143.58, 57.9194 z "/>
<path style="fill:rgb(255, 0, 0);fill-opacity:0;fill-rule:evenodd;stroke:rgb(128, 0, 255);stroke-width:1;" d="M 36.5511, 392.315 L 56.4199, 365.136 L 67.4789, 369.822 L 63.9175, 374.695 L 47.6101, 397.001 L 36.5511, 392.315 z "/>
<path style="fill:rgb(0, 255, 0);fill-opacity:0;fill-rule:evenodd;stroke:rgb(128, 0, 255);stroke-width:1;" d="M 132.521, 506.842 L 139.456, 497.47 L 171.134, 510.778 L 164.199, 520.15 L 134.021, 507.404 L 132.521, 506.842 z "/>
<path style="fill:rgb(0, 0, 255);fill-opacity:0;fill-rule:evenodd;stroke:rgb(128, 0, 255);stroke-width:1;" d="M 95.2202, 265.604 L 110.778, 244.424 L 114.527, 238.988 L 125.586, 243.674 L 106.279, 270.291 L 95.2202, 265.604 z "/>
<path style="fill:rgb(255, 255, 0);fill-opacity:0;fill-rule:evenodd;stroke:rgb(128, 0, 255);stroke-width:1;" d="M 139.456, 497.47 L 146.017, 488.472 L 177.694, 501.781 L 171.134, 510.778 L 139.456, 497.47 z "/>
<path style="fill:rgb(255, 0, 0);fill-opacity:0;fill-rule:evenodd;stroke:rgb(128, 0, 255);stroke-width:1;" d="M 150.89, 47.985 L 158.763, 37.3008 L 185.192, 48.5473 L 177.32, 59.2315 L 150.89, 47.985 z "/>
<path style="fill:rgb(0, 255, 0);fill-opacity:0;fill-rule:evenodd;stroke:rgb(128, 0, 255);stroke-width:1;" d="M 47.6101, 397.001 L 63.9175, 374.695 L 75.9138, 379.756 L 59.7938, 402.062 L 47.6101, 397.001 z "/>
<path style="fill:rgb(0, 0, 255);fill-opacity:0;fill-rule:evenodd;stroke:rgb(128, 0, 255);stroke-width:1;" d="M 290.534, 195.689 L 305.904, 174.695 L 318.463, 180.131 L 318.65, 180.131 L 303.468, 200.937 L 290.534, 195.689 z "/>
<path style="fill:rgb(255, 255, 0);fill-opacity:0;fill-rule:evenodd;stroke:rgb(128, 0, 255);stroke-width:1;" d="M 338.519, 215.745 L 356.888, 191.378 L 363.261, 194.189 L 358.201, 200.937 L 362.887, 202.999 L 349.578, 220.619 L 338.519, 215.745 z "/>
<path style="fill:rgb(255, 0, 0);fill-opacity:0;fill-rule:evenodd;stroke:rgb(128, 0, 255);stroke-width:1;" d="M 72.5398, 256.045 L 88.0975, 234.489 L 99.344, 239.363 L 83.7863, 260.731 L 72.5398, 256.045 z "/>
<path style="fill:rgb(0, 255, 0);fill-opacity:0;fill-rule:evenodd;stroke:rgb(128, 0, 255);stroke-width:1;" d="M 310.028, 203.936 L 317.151, 193.814 L 338.707, 202.437 L 331.584, 212.746 L 310.028, 203.936 z "/>
<path style="fill:rgb(0, 0, 255);fill-opacity:0;fill-rule:evenodd;stroke:rgb(128, 0, 255);stroke-width:1;" d="M 176.757, 358.388 L 183.13, 349.766 L 187.067, 351.453 L 192.877, 343.393 L 201.687, 347.142 L 193.44, 358.201 L 195.689, 359.138 L 194.189, 361.2 L 192.127, 360.262 L 189.503, 363.824 L 176.757, 358.388 z "/>
<path style="fill:rgb(255, 255, 0);fill-opacity:0;fill-rule:evenodd;stroke:rgb(128, 0, 255);stroke-width:1;" d="M 349.953, 141.706 L 358.201, 130.272 L 373.946, 136.832 L 365.511, 148.266 L 349.953, 141.706 z "/>
<path style="fill:rgb(255, 0, 0);fill-opacity:0;fill-rule:evenodd;stroke:rgb(128, 0, 255);stroke-width:1;" d="M 167.01, 371.884 L 176.195, 359.325 L 176.757, 358.388 L 189.503, 363.824 L 179.756, 377.32 L 167.01, 371.884 z "/>
<path style="fill:rgb(0, 255, 0);fill-opacity:0;fill-rule:evenodd;stroke:rgb(128, 0, 255);stroke-width:1;" d="M 92.4086, 630.928 L 98.5942, 622.493 L 110.403, 627.554 L 104.03, 635.989 L 92.4086, 630.928 z "/>
<path style="fill:rgb(0, 0, 255);fill-opacity:0;fill-rule:evenodd;stroke:rgb(128, 0, 255);stroke-width:1;" d="M 7.6851, 324.086 L 7.87254, 323.711 L 36.1762, 284.911 L 55.6701, 292.971 L 57.732, 290.159 L 124.836, 318.276 L 122.774, 321.087 L 142.081, 329.335 L 122.399, 356.701 L 114.714, 353.327 L 106.092, 365.511 L 7.6851, 324.086 z "/>
<path style="fill:rgb(255, 255, 0);fill-opacity:0;fill-rule:evenodd;stroke:rgb(128, 0, 255);stroke-width:1;" d="M 11.6214, 474.227 L 21.3683, 460.918 L 29.6157, 449.672 L 35.9888, 452.296 L 47.7976, 435.989 L 114.902, 464.105 L 90.1593, 498.219 L 40.1125, 477.226 L 35.239, 483.974 L 11.6214, 474.227 z "/>
<path style="fill:rgb(255, 0, 0);fill-opacity:0;fill-rule:evenodd;stroke:rgb(128, 0, 255);stroke-width:1;" d="M 4.87348, 517.713 L 14.8079, 504.03 L 18.1818, 499.344 L 27.5539, 503.28 L 30.7404, 498.969 L 25.8669, 496.907 L 33.552, 486.41 L 55.4827, 495.783 L 57.3571, 493.346 L 64.6673, 496.532 L 66.5417, 494.096 L 89.7844, 503.843 L 62.0431, 541.893 L 4.87348, 517.713 z "/>
<path style="fill:rgb(0, 255, 0);fill-opacity:0;fill-rule:evenodd;stroke:rgb(128, 0, 255);stroke-width:1;" d="M 17.0572, 233.739 L 41.0497, 200.75 L 61.1059, 209.185 L 56.4199, 215.558 L 85.2858, 227.741 L 65.9794, 254.358 L 47.0478, 246.298 L 49.4845, 243.112 L 47.985, 242.549 L 52.1087, 236.926 L 42.9241, 232.99 L 38.8004, 238.613 L 37.8632, 238.238 L 35.4264, 241.425 L 17.0572, 233.739 z "/>
<path style="fill:rgb(0, 0, 255);fill-opacity:0;fill-rule:evenodd;stroke:rgb(128, 0, 255);stroke-width:1;" d="M 0, 785.192 L 19.3065, 758.388 L 36.3636, 765.511 L 42.3618, 767.948 L 47.6101, 770.197 L 45.1734, 773.571 L 52.4836, 776.57 L 35.6139, 800 L 0, 785.192 z "/>
<path style="fill:rgb(255, 255, 0);fill-opacity:0;fill-rule:evenodd;stroke:rgb(128, 0, 255);stroke-width:1;" d="M 10.8716, 65.6045 L 23.6176, 47.985 L 62.6054, 64.2924 L 49.672, 82.0993 L 10.8716, 65.6045 z "/>
<path style="fill:rgb(255, 0, 0);fill-opacity:0;fill-rule:evenodd;stroke:rgb(128, 0, 255);stroke-width:1;" d="M 13.1209, 382.568 L 28.1162, 361.762 L 39.925, 366.823 L 24.9297, 387.441 L 13.1209, 382.568 z "/>
<path style="fill:rgb(0, 255, 0);fill-opacity:0;fill-rule:evenodd;stroke:rgb(128, 0, 255);stroke-width:1;" d="M 407.498, 92.2212 L 433.739, 55.6701 L 447.048, 61.1059 L 440.3, 70.2905 L 445.923, 72.7273 L 453.046, 72.1649 L 453.608, 75.5389 L 457.357, 77.0384 L 471.228, 77.2259 L 471.04, 83.224 L 477.413, 85.6607 L 491.097, 85.4733 L 491.284, 91.6589 L 502.905, 96.3449 L 513.027, 96.3449 L 515.839, 92.5961 L 511.715, 90.9091 L 514.527, 86.9728 L 512.09, 86.0356 L 522.212, 71.9775 L 524.461, 72.9147 L 526.898, 69.5408 L 531.209, 71.4152 L 536.832, 63.5426 L 518.088, 55.4827 L 510.59, 58.2943 L 503.655, 49.1097 L 497.47, 46.8604 L 490.722, 49.4845 L 483.974, 41.2371 L 479.1, 39.1753 L 475.351, 40.6748 L 472.727, 36.3636 L 467.854, 34.4892 L 461.668, 43.1115 L 445.923, 36.5511 L 472.165, 0 L 486.785, 5.99813 L 486.973, 9.9344 L 491.659, 12.1837 L 500.469, 11.2465 L 501.218, 15.1828 L 503.843, 16.4948 L 510.965, 16.3074 L 511.153, 19.4939 L 519.4, 19.3065 L 519.588, 23.2427 L 523.524, 24.7423 L 529.897, 24.5548 L 530.272, 27.9288 L 538.332, 27.5539 L 538.707, 31.3027 L 542.83, 33.1771 L 549.953, 32.8022 L 550.141, 36.1762 L 558.388, 35.8013 L 558.575, 39.5501 L 564.199, 41.7994 L 570.759, 41.612 L 570.947, 44.7985 L 578.632, 44.4236 L 579.007, 48.5473 L 588.754, 52.4836 L 590.628, 49.672 L 619.681, 61.2933 L 613.683, 69.5408 L 611.621, 68.791 L 600.187, 84.7235 L 602.624, 85.8482 L 596.626, 94.283 L 588.566, 90.9091 L 590.066, 89.2221 L 569.447, 80.5998 L 571.321, 77.9756 L 560.075, 73.2896 L 552.39, 76.4761 L 548.641, 71.9775 L 541.331, 80.0375 L 540.394, 81.1621 L 544.517, 83.0366 L 535.895, 95.2202 L 531.022, 93.1584 L 523.899, 103.28 L 530.084, 105.904 L 532.146, 103.093 L 537.957, 105.53 L 534.396, 110.216 L 544.705, 114.527 L 546.954, 111.528 L 567.573, 120.15 L 568.322, 119.025 L 573.196, 121.087 L 549.953, 153.515 L 523.711, 142.081 L 525.961, 138.707 L 515.651, 134.583 L 511.715, 136.457 L 507.591, 131.209 L 504.03, 132.896 L 498.032, 125.586 L 492.596, 123.149 L 486.973, 122.399 L 483.224, 123.524 L 480.037, 119.588 L 475.351, 117.526 L 471.228, 119.4 L 466.542, 113.59 L 462.793, 115.089 L 458.669, 109.091 L 452.109, 111.528 L 448.36, 106.092 L 443.861, 107.591 L 441.799, 103.843 L 437.301, 101.781 L 433.739, 103.468 L 429.991, 98.7816 L 424.367, 96.1575 L 420.056, 97.8444 L 416.87, 93.1584 L 414.246, 92.0337 L 411.996, 94.0956 L 407.498, 92.2212 z "/>
<path style="fill:rgb(0, 0, 255);fill-opacity:0;fill-rule:evenodd;stroke:rgb(128, 0, 255);stroke-width:1;" d="M 362.324, 71.7901 L 392.127, 31.1153 L 392.127, 31.1153 L 436.551, 49.8594 L 432.615, 55.1078 L 406.748, 90.5342 L 362.324, 71.7901 z "/>
<path style="fill:rgb(255, 255, 0);fill-opacity:0;fill-rule:evenodd;stroke:rgb(128, 0, 255);stroke-width:1;" d="M 158.763, 37.3008 L 167.385, 25.492 L 211.621, 44.2362 L 202.999, 56.045 L 185.192, 48.5473 L 158.763, 37.3008 z "/>
<path style="fill:rgb(255, 0, 0);fill-opacity:0;fill-rule:evenodd;stroke:rgb(128, 0, 255);stroke-width:1;" d="M 292.221, 40.6748 L 293.533, 38.9878 L 304.967, 23.4302 L 317.151, 28.4911 L 308.341, 40.6748 L 304.592, 45.9231 L 292.221, 40.6748 z "/>
</svg>