<?xml version="1.0" encoding="iso-8859-1" standalone="no"?>
<!DOCTYPE svg PUBLIC "-//W3C//DTD SVG 1.0//EN" "http://www.w3.org/TR/2001/REC-SVG-20010904/DTD/svg10.dtd">
<svg xmlns="http://www.w3.org/2000/svg" width="1074" height="800">
<path style="fill:rgb(255, 0, 0);fill-opacity:0;fill-rule:evenodd;stroke:rgb(65, 255, 0);stroke-width:1;" d="M 760.154, 425.809 L 767.761, 410.958 L 774.1, 412.769 L 780.62, 399.547 L 825.9, 412.769 L 828.979, 406.611 L 824.27, 405.343 L 823.364, 401.902 L 823.183, 398.823 L 823.545, 395.563 L 824.451, 392.484 L 825.9, 389.586 L 827.711, 386.688 L 830.247, 384.152 L 832.964, 381.798 L 836.224, 379.805 L 837.854, 378.9 L 842.382, 380.711 L 847.091, 374.191 L 800.543, 354.63 L 809.78, 341.952 L 804.166, 339.597 L 811.954, 324.564 L 819.923, 328.005 L 822.096, 324.926 L 894.544, 355.535 L 874.077, 383.428 L 883.677, 387.593 L 852.343, 430.518 L 864.478, 435.59 L 845.098, 462.214 L 810.867, 447.725 L 813.041, 445.008 L 764.501, 430.881 L 766.131, 427.621 L 760.154, 425.809 z "/>
<path style="fill:rgb(0, 255, 0);fill-opacity:0;fill-rule:evenodd;stroke:rgb(65, 255, 0);stroke-width:1;" d="M 901.426, 376.907 L 937.469, 327.281 L 956.849, 335.431 L 956.305, 336.156 L 969.165, 341.589 L 975.323, 344.125 L 976.228, 342.857 L 1023.5, 362.78 L 1024.41, 361.693 L 1035.09, 366.221 L 1029.66, 373.647 L 1031.83, 374.553 L 1031.83, 377.089 L 1029.11, 378.175 L 1027.48, 377.451 L 994.521, 422.549 L 963.731, 409.509 L 965.18, 407.335 L 928.051, 391.759 L 930.043, 388.861 L 901.426, 376.907 z M 949.785, 397.193 L 983.292, 411.501 L 992.71, 398.46 L 959.203, 384.333 L 949.785, 397.193 z "/>
<path style="fill:rgb(0, 0, 255);fill-opacity:0;fill-rule:evenodd;stroke:rgb(65, 255, 0);stroke-width:1;" d="M 214.625, 220.421 L 221.508, 198.687 L 254.652, 204.664 L 258.637, 192.348 L 254.471, 191.623 L 253.747, 194.159 L 224.406, 188.906 L 231.469, 166.448 L 260.629, 171.7 L 259.543, 174.779 L 263.708, 175.504 L 267.512, 163.188 L 234.186, 157.211 L 240.887, 135.295 L 298.121, 145.619 L 289.246, 173.693 L 316.957, 178.583 L 310.799, 198.325 L 289.246, 194.521 L 286.892, 202.309 L 285.08, 208.105 L 306.633, 211.909 L 300.475, 231.288 L 270.772, 226.036 L 269.504, 230.02 L 265.157, 229.296 L 253.747, 227.122 L 256.283, 219.153 L 239.439, 216.074 L 236.722, 224.406 L 234.729, 224.043 L 214.625, 220.421 z "/>
<path style="fill:rgb(255, 255, 0);fill-opacity:0;fill-rule:evenodd;stroke:rgb(65, 255, 0);stroke-width:1;" d="M 673.036, 314.784 L 712.339, 237.265 L 770.478, 260.448 L 736.971, 326.013 L 733.711, 332.533 L 673.036, 314.784 z "/>
<path style="fill:rgb(255, 0, 0);fill-opacity:0;fill-rule:evenodd;stroke:rgb(65, 255, 0);stroke-width:1;" d="M 939.642, 693.683 L 964.999, 658.728 L 1071.86, 703.645 L 1074.03, 709.079 L 1051.03, 740.593 L 1036.18, 734.254 L 939.642, 693.683 z "/>
<path style="fill:rgb(0, 255, 0);fill-opacity:0;fill-rule:evenodd;stroke:rgb(65, 255, 0);stroke-width:1;" d="M 920.625, 208.467 L 932.76, 192.71 L 932.76, 189.45 L 929.319, 187.82 L 935.295, 168.802 L 962.644, 180.213 L 963.731, 183.835 L 957.573, 192.167 L 960.833, 194.34 L 963.912, 195.789 L 965.361, 193.797 L 968.078, 192.891 L 970.251, 193.797 L 974.96, 187.82 L 979.307, 187.095 L 989.269, 191.261 L 990.537, 195.065 L 981.481, 206.837 L 992.167, 211.546 L 1001.22, 199.411 L 1006.11, 198.325 L 1028.03, 207.562 L 1029.3, 211.365 L 1020.6, 222.776 L 1031.47, 227.666 L 1040.53, 215.712 L 1044.87, 214.625 L 1068.06, 224.406 L 1069.69, 227.847 L 1065.34, 233.643 L 1061.17, 239.076 L 1056.64, 236.903 L 1054.11, 240.163 L 1055.38, 240.706 L 1041.07, 259.543 L 1012.45, 246.864 L 1020.42, 236.541 L 1019.7, 233.643 L 1016.26, 232.194 L 1013.54, 235.816 L 1011.18, 234.911 L 1004.3, 243.785 L 984.56, 235.273 L 991.986, 225.492 L 986.733, 223.319 L 988.725, 220.964 L 985.284, 219.334 L 973.874, 234.367 L 957.211, 226.941 L 965.723, 215.712 L 962.282, 214.263 L 964.818, 211.003 L 961.376, 209.554 L 958.479, 211.003 L 949.242, 223.5 L 943.446, 220.964 L 943.989, 218.791 L 920.625, 208.467 z "/>
<path style="fill:rgb(0, 0, 255);fill-opacity:0;fill-rule:evenodd;stroke:rgb(65, 255, 0);stroke-width:1;" d="M 545.71, 140.91 L 554.041, 115.916 L 577.405, 120.444 L 576.5, 123.161 L 581.028, 124.066 L 583.745, 115.916 L 581.571, 115.372 L 582.296, 113.199 L 584.469, 113.742 L 587.186, 105.411 L 582.658, 104.686 L 581.571, 107.584 L 558.207, 103.056 L 566.538, 77.8809 L 595.698, 83.4956 L 594.974, 85.669 L 619.787, 90.3781 L 620.512, 88.2047 L 646.593, 93.0949 L 638.624, 117.546 L 621.779, 114.286 L 622.323, 113.018 L 611.637, 110.844 L 606.022, 127.87 L 616.708, 130.043 L 617.252, 128.594 L 633.914, 131.673 L 625.764, 156.305 L 599.864, 151.234 L 600.589, 149.06 L 575.775, 144.351 L 575.051, 146.525 L 545.71, 140.91 z "/>
<path style="fill:rgb(255, 255, 0);fill-opacity:0;fill-rule:evenodd;stroke:rgb(65, 255, 0);stroke-width:1;" d="M 294.317, 611.275 L 308.445, 584.107 L 306.633, 583.564 L 317.682, 562.192 L 343.582, 569.799 L 334.163, 587.91 L 343.219, 590.627 L 352.638, 572.515 L 379.986, 580.666 L 370.206, 599.683 L 380.711, 602.762 L 382.703, 598.959 L 381.073, 598.596 L 389.042, 583.382 L 418.384, 592.076 L 393.389, 640.435 L 373.828, 634.639 L 372.017, 633.914 L 381.979, 614.535 L 376.545, 612.905 L 377.994, 610.007 L 369.844, 607.652 L 367.67, 611.818 L 365.497, 611.275 L 357.89, 625.945 L 354.63, 625.04 L 352.819, 628.3 L 331.266, 621.961 L 343.038, 598.959 L 330.722, 595.336 L 329.635, 597.329 L 329.092, 597.147 L 325.651, 603.849 L 322.753, 603.124 L 315.871, 617.252 L 294.317, 611.275 z "/>
<path style="fill:rgb(255, 0, 0);fill-opacity:0;fill-rule:evenodd;stroke:rgb(65, 255, 0);stroke-width:1;" d="M 192.529, 292.144 L 201.947, 262.078 L 230.564, 267.15 L 231.288, 264.252 L 234.911, 264.976 L 236.541, 259.362 L 233.099, 258.637 L 234.005, 255.92 L 205.207, 250.668 L 214.625, 220.421 L 234.729, 224.043 L 232.918, 229.839 L 236.178, 230.383 L 235.454, 233.099 L 248.676, 235.454 L 251.392, 226.76 L 253.747, 227.122 L 265.157, 229.296 L 263.527, 234.367 L 284.537, 238.171 L 276.568, 264.071 L 255.739, 260.448 L 254.834, 262.984 L 252.117, 262.441 L 251.211, 265.882 L 250.668, 267.331 L 253.385, 267.874 L 252.479, 270.591 L 273.308, 274.394 L 265.157, 300.294 L 244.691, 296.491 L 243.061, 301.562 L 228.934, 299.026 L 231.65, 290.514 L 218.61, 288.159 L 217.704, 290.876 L 214.444, 290.333 L 212.633, 295.766 L 192.529, 292.144 z "/>
<path style="fill:rgb(0, 255, 0);fill-opacity:0;fill-rule:evenodd;stroke:rgb(65, 255, 0);stroke-width:1;" d="M 526.511, 264.252 L 535.024, 247.77 L 557.12, 254.109 L 560.199, 248.132 L 552.954, 245.959 L 551.687, 243.423 L 539.733, 239.801 L 549.513, 220.602 L 561.467, 224.043 L 565.089, 222.595 L 573.964, 225.311 L 575.232, 222.957 L 573.421, 222.413 L 575.232, 218.791 L 550.962, 211.727 L 550.238, 210.822 L 564.003, 183.473 L 587.91, 190.355 L 586.824, 192.167 L 593.525, 194.159 L 594.431, 192.348 L 618.338, 199.23 L 605.298, 225.13 L 602.038, 224.225 L 602.219, 223.862 L 597.872, 222.413 L 594.974, 222.957 L 589.178, 221.327 L 585.737, 228.028 L 591.895, 229.658 L 593.163, 231.288 L 600.951, 233.643 L 590.989, 253.204 L 583.02, 251.03 L 580.484, 251.573 L 574.508, 249.943 L 571.066, 256.826 L 577.043, 258.456 L 578.492, 260.086 L 586.28, 262.441 L 575.232, 284.175 L 570.704, 282.907 L 553.498, 277.836 L 556.034, 272.945 L 526.511, 264.252 z "/>
<path style="fill:rgb(0, 0, 255);fill-opacity:0;fill-rule:evenodd;stroke:rgb(65, 255, 0);stroke-width:1;" d="M 284.899, 671.225 L 296.491, 648.766 L 314.059, 654.019 L 313.697, 655.105 L 321.123, 657.279 L 322.572, 654.743 L 324.926, 655.468 L 328.005, 649.309 L 318.225, 646.412 L 317.501, 648.042 L 299.57, 642.608 L 310.98, 620.331 L 343.4, 630.111 L 343.582, 629.568 L 350.464, 631.56 L 350.102, 632.284 L 371.655, 638.624 L 373.828, 634.639 L 393.389, 640.435 L 380.53, 665.429 L 362.237, 659.995 L 364.591, 655.649 L 346.842, 650.396 L 338.691, 666.153 L 356.441, 671.406 L 358.071, 668.146 L 376.545, 673.579 L 363.686, 698.574 L 344.849, 692.959 L 347.023, 688.612 L 342.857, 687.525 L 342.495, 688.25 L 284.899, 671.225 z "/>
<path style="fill:rgb(255, 255, 0);fill-opacity:0;fill-rule:evenodd;stroke:rgb(65, 255, 0);stroke-width:1;" d="M 612.361, 296.491 L 628.843, 265.701 L 638.08, 268.417 L 635.907, 272.764 L 642.246, 274.757 L 658.728, 243.785 L 652.026, 241.612 L 649.672, 246.14 L 639.348, 242.88 L 654.924, 213.72 L 700.928, 228.028 L 698.755, 232.194 L 706.362, 234.548 L 695.314, 255.015 L 696.219, 255.377 L 695.132, 257.369 L 692.778, 256.645 L 690.242, 261.173 L 681.005, 258.275 L 682.998, 254.652 L 677.926, 253.204 L 664.342, 278.741 L 669.776, 280.552 L 671.768, 276.93 L 680.824, 279.647 L 663.437, 312.248 L 646.23, 306.815 L 649.128, 301.019 L 632.828, 295.947 L 629.749, 301.743 L 612.361, 296.491 z "/>
<path style="fill:rgb(255, 0, 0);fill-opacity:0;fill-rule:evenodd;stroke:rgb(65, 255, 0);stroke-width:1;" d="M 277.111, 775.911 L 280.552, 767.399 L 288.703, 769.934 L 289.971, 767.58 L 291.963, 768.304 L 293.774, 764.32 L 282.907, 761.06 L 312.61, 687.163 L 341.589, 695.676 L 343.219, 692.416 L 344.849, 692.959 L 363.686, 698.574 L 349.196, 726.466 L 329.454, 720.67 L 330.541, 718.497 L 321.666, 715.78 L 315.689, 727.19 L 344.487, 735.703 L 335.25, 753.634 L 312.791, 747.113 L 312.791, 747.295 L 308.082, 756.532 L 330.36, 763.052 L 316.052, 790.944 L 296.672, 785.148 L 298.302, 782.069 L 277.111, 775.911 z "/>
<path style="fill:rgb(0, 255, 0);fill-opacity:0;fill-rule:evenodd;stroke:rgb(65, 255, 0);stroke-width:1;" d="M 406.249, 318.95 L 419.832, 292.325 L 423.274, 293.231 L 430.881, 278.017 L 427.439, 277.111 L 438.125, 256.101 L 467.467, 264.795 L 458.773, 281.639 L 457.505, 284.356 L 449.174, 281.82 L 445.551, 288.703 L 463.301, 293.955 L 467.104, 293.05 L 468.191, 291.057 L 471.813, 292.144 L 473.262, 289.246 L 469.097, 287.978 L 479.058, 268.236 L 502.966, 275.3 L 489.201, 302.468 L 482.862, 300.657 L 479.964, 306.452 L 483.405, 307.539 L 477.79, 318.225 L 485.941, 320.58 L 476.341, 339.416 L 448.811, 331.447 L 447.544, 329.454 L 453.339, 318.044 L 454.788, 318.587 L 458.411, 311.161 L 444.465, 307.177 L 440.661, 314.603 L 441.929, 314.965 L 436.133, 326.194 L 433.416, 326.919 L 406.249, 318.95 z "/>
<path style="fill:rgb(0, 0, 255);fill-opacity:0;fill-rule:evenodd;stroke:rgb(65, 255, 0);stroke-width:1;" d="M 315.146, 521.078 L 315.146, 519.991 L 321.666, 494.453 L 356.984, 504.958 L 355.354, 507.675 L 380.53, 515.101 L 378.356, 519.629 L 375.821, 524.338 L 377.813, 525.062 L 375.277, 529.771 L 381.979, 531.764 L 384.333, 527.055 L 385.963, 527.598 L 390.854, 518.18 L 411.682, 524.338 L 413.131, 521.44 L 448.449, 531.764 L 431.967, 564.184 L 412.95, 558.569 L 418.746, 547.521 L 416.935, 546.978 L 419.108, 542.993 L 413.493, 541.182 L 411.32, 545.348 L 408.965, 544.623 L 403.17, 555.852 L 340.503, 537.378 L 346.48, 525.787 L 343.944, 525.062 L 345.936, 521.259 L 341.046, 519.629 L 339.054, 523.432 L 336.699, 522.708 L 330.722, 534.299 L 325.289, 532.85 L 321.485, 531.039 L 319.312, 529.409 L 316.957, 526.692 L 315.508, 523.432 L 315.146, 521.078 z "/>
<path style="fill:rgb(255, 255, 0);fill-opacity:0;fill-rule:evenodd;stroke:rgb(65, 255, 0);stroke-width:1;" d="M 467.104, 186.914 L 472.9, 175.685 L 481.05, 159.565 L 557.12, 182.205 L 543.355, 209.011 L 526.692, 203.939 L 527.055, 203.215 L 522.708, 201.947 L 519.629, 203.215 L 518.18, 206.294 L 521.802, 207.381 L 504.777, 240.525 L 468.372, 229.658 L 485.397, 196.513 L 488.839, 197.6 L 490.288, 194.702 L 489.382, 191.986 L 484.854, 190.718 L 484.129, 191.986 L 467.104, 186.914 z "/>
<path style="fill:rgb(255, 0, 0);fill-opacity:0;fill-rule:evenodd;stroke:rgb(65, 255, 0);stroke-width:1;" d="M 674.847, 186.371 L 681.73, 176.409 L 689.699, 179.669 L 705.456, 156.667 L 750.374, 169.889 L 760.697, 175.141 L 790.401, 190.718 L 774.281, 214.082 L 749.649, 206.837 L 752.366, 210.822 L 747.838, 217.342 L 683.903, 191.804 L 684.99, 190.355 L 674.847, 186.371 z "/>
<path style="fill:rgb(0, 255, 0);fill-opacity:0;fill-rule:evenodd;stroke:rgb(65, 255, 0);stroke-width:1;" d="M 575.232, 367.851 L 590.627, 339.054 L 600.77, 342.314 L 599.502, 344.849 L 606.747, 347.023 L 615.803, 330.179 L 608.014, 327.824 L 606.566, 330.541 L 595.88, 327.1 L 612.361, 296.491 L 629.749, 301.743 L 626.307, 308.082 L 642.246, 312.973 L 645.687, 306.633 L 646.23, 306.815 L 663.437, 312.248 L 664.342, 312.429 L 647.861, 343.219 L 637.175, 339.959 L 638.986, 336.699 L 633.914, 335.25 L 623.228, 355.173 L 628.481, 356.803 L 630.111, 353.724 L 641.521, 357.165 L 639.167, 361.331 L 641.34, 362.056 L 629.386, 384.514 L 575.232, 367.851 z "/>
<path style="fill:rgb(0, 0, 255);fill-opacity:0;fill-rule:evenodd;stroke:rgb(65, 255, 0);stroke-width:1;" d="M 41.4761, 172.606 L 48.902, 148.879 L 69.7306, 152.683 L 71.3607, 147.249 L 69.0061, 146.887 L 70.0928, 143.627 L 51.4376, 140.186 L 57.4145, 120.806 L 76.0697, 124.247 L 76.9753, 121.168 L 79.511, 121.53 L 81.141, 116.459 L 59.9502, 112.475 L 67.376, 88.5669 L 88.5669, 92.3704 L 88.0235, 94.3627 L 91.6459, 95.0872 L 90.0158, 100.158 L 95.8116, 101.245 L 96.355, 99.2529 L 117.365, 103.056 L 108.309, 132.216 L 85.3068, 128.051 L 83.6767, 133.122 L 88.5669, 133.847 L 87.118, 138.374 L 86.3935, 138.193 L 86.0312, 139.823 L 82.7711, 139.28 L 81.3222, 143.808 L 103.781, 147.793 L 94.5438, 176.772 L 74.0774, 173.149 L 74.6208, 171.157 L 68.6439, 170.07 L 67.0138, 175.323 L 63.2103, 174.598 L 62.667, 176.409 L 56.5089, 175.323 L 41.4761, 172.606 z "/>
<path style="fill:rgb(255, 255, 0);fill-opacity:0;fill-rule:evenodd;stroke:rgb(65, 255, 0);stroke-width:1;" d="M 411.32, 399.728 L 417.478, 387.593 L 425.266, 389.948 L 425.628, 388.861 L 427.983, 389.586 L 434.141, 377.451 L 424.179, 374.553 L 432.149, 358.977 L 466.199, 368.938 L 462.758, 375.821 L 461.49, 375.458 L 456.962, 384.333 L 462.939, 386.144 L 463.663, 384.695 L 479.42, 389.223 L 478.696, 390.672 L 483.043, 391.94 L 487.933, 382.341 L 486.665, 381.979 L 489.744, 375.821 L 523.251, 385.601 L 500.974, 429.432 L 470.365, 420.557 L 478.334, 404.8 L 475.074, 403.894 L 474.892, 404.437 L 471.813, 403.532 L 470.002, 407.154 L 451.528, 401.721 L 452.615, 399.547 L 448.268, 398.279 L 442.835, 408.965 L 411.32, 399.728 z "/>
<path style="fill:rgb(255, 0, 0);fill-opacity:0;fill-rule:evenodd;stroke:rgb(65, 255, 0);stroke-width:1;" d="M 327.643, 469.459 L 333.801, 445.732 L 334.163, 445.008 L 335.431, 444.465 L 350.464, 446.276 L 350.102, 447.725 L 361.15, 449.355 L 364.41, 437.039 L 353.181, 435.409 L 352.819, 436.676 L 337.061, 434.503 L 336.518, 432.873 L 342.314, 410.233 L 345.212, 409.328 L 405.705, 427.621 L 403.351, 434.684 L 398.098, 449.898 L 377.632, 445.914 L 376.726, 448.63 L 379.624, 449.174 L 378.356, 453.339 L 375.277, 452.796 L 374.372, 455.332 L 394.838, 459.316 L 385.239, 487.571 L 365.316, 481.594 L 366.403, 479.602 L 351.913, 475.255 L 350.826, 477.428 L 328.73, 470.908 L 327.643, 469.459 z "/>
<path style="fill:rgb(0, 255, 0);fill-opacity:0;fill-rule:evenodd;stroke:rgb(65, 255, 0);stroke-width:1;" d="M 466.923, 760.516 L 504.053, 687.525 L 545.166, 699.479 L 508.218, 772.289 L 508.037, 772.651 L 466.923, 760.516 z "/>
<path style="fill:rgb(0, 0, 255);fill-opacity:0;fill-rule:evenodd;stroke:rgb(65, 255, 0);stroke-width:1;" d="M 162.101, 628.843 L 165.904, 617.614 L 174.055, 619.425 L 179.669, 605.841 L 169.889, 603.668 L 174.779, 588.816 L 273.127, 611.818 L 262.259, 638.624 L 262.984, 638.805 L 262.622, 639.348 L 266.063, 640.254 L 261.173, 652.388 L 220.059, 642.789 L 225.674, 628.843 L 238.533, 631.741 L 239.982, 628.119 L 241.069, 628.481 L 243.966, 621.417 L 203.939, 611.999 L 199.592, 622.685 L 213.539, 625.945 L 208.105, 639.71 L 162.101, 628.843 z "/>
<path style="fill:rgb(255, 255, 0);fill-opacity:0;fill-rule:evenodd;stroke:rgb(65, 255, 0);stroke-width:1;" d="M 380.892, 181.3 L 399.004, 134.752 L 434.865, 145.438 L 436.495, 148.155 L 432.511, 155.762 L 430.518, 155.218 L 427.621, 160.652 L 443.378, 165.18 L 446.095, 159.928 L 444.465, 159.565 L 448.63, 151.415 L 452.072, 150.509 L 481.232, 159.203 L 481.05, 159.565 L 472.9, 175.685 L 464.388, 173.149 L 457.505, 186.371 L 460.041, 188.001 L 465.655, 189.631 L 459.316, 201.766 L 428.707, 192.71 L 437.944, 174.598 L 433.235, 173.149 L 432.149, 175.141 L 430.518, 175.504 L 423.455, 173.511 L 421.463, 177.496 L 423.817, 178.221 L 416.753, 191.986 L 380.892, 181.3 z "/>
<path style="fill:rgb(255, 0, 0);fill-opacity:0;fill-rule:evenodd;stroke:rgb(65, 255, 0);stroke-width:1;" d="M 652.388, 628.481 L 695.857, 545.348 L 728.639, 559.113 L 687.163, 642.97 L 652.388, 628.481 z "/>
<path style="fill:rgb(0, 255, 0);fill-opacity:0;fill-rule:evenodd;stroke:rgb(65, 255, 0);stroke-width:1;" d="M 399.547, 511.659 L 407.698, 495.54 L 405.524, 494.997 L 414.218, 477.79 L 429.432, 482.137 L 431.605, 477.79 L 428.888, 477.066 L 430.518, 473.806 L 414.399, 469.097 L 422.368, 453.52 L 420.195, 452.796 L 423.093, 447.181 L 482.681, 464.75 L 474.168, 481.594 L 469.821, 490.288 L 458.954, 487.027 L 459.497, 485.941 L 450.804, 483.405 L 448.811, 487.209 L 447.544, 486.846 L 444.465, 492.642 L 445.732, 493.004 L 443.921, 496.627 L 452.253, 498.981 L 452.796, 497.894 L 464.025, 501.155 L 450.985, 526.873 L 429.251, 520.353 L 433.597, 511.841 L 421.1, 508.037 L 419.47, 511.478 L 418.565, 511.297 L 415.848, 516.55 L 399.547, 511.659 z "/>
<path style="fill:rgb(0, 0, 255);fill-opacity:0;fill-rule:evenodd;stroke:rgb(65, 255, 0);stroke-width:1;" d="M 71.904, 318.768 L 94.5438, 246.321 L 95.9928, 246.502 L 112.837, 249.581 L 110.482, 257.369 L 111.931, 260.086 L 121.712, 261.897 L 122.255, 260.448 L 127.145, 261.354 L 129.862, 253.022 L 148.879, 256.464 L 139.28, 287.073 L 125.153, 284.537 L 126.058, 281.277 L 105.411, 277.473 L 99.9774, 294.861 L 121.349, 298.664 L 122.436, 295.223 L 136.02, 297.759 L 126.24, 328.73 L 113.742, 326.375 L 107.041, 325.289 L 109.758, 316.776 L 103.419, 315.508 L 103.781, 314.059 L 95.8116, 312.61 L 92.7326, 314.965 L 90.3781, 322.21 L 83.3145, 320.942 L 71.904, 318.768 z "/>
<path style="fill:rgb(255, 255, 0);fill-opacity:0;fill-rule:evenodd;stroke:rgb(65, 255, 0);stroke-width:1;" d="M 61.9425, 704.732 L 72.4474, 678.651 L 90.5592, 682.998 L 85.8501, 694.77 L 88.2047, 695.314 L 88.9291, 693.683 L 96.7172, 695.495 L 95.9928, 697.125 L 102.151, 698.574 L 103.6, 694.77 L 102.332, 694.589 L 112.475, 669.595 L 113.923, 669.957 L 115.191, 666.697 L 101.064, 663.437 L 101.789, 661.807 L 99.6151, 661.263 L 94.3627, 674.123 L 75.7075, 669.776 L 84.2201, 642.427 L 143.446, 656.192 L 134.39, 678.47 L 132.216, 680.281 L 115.01, 722.844 L 82.2278, 709.441 L 82.7711, 708.535 L 78.7865, 706.905 L 76.432, 710.528 L 61.9425, 704.732 z "/>
<path style="fill:rgb(255, 0, 0);fill-opacity:0;fill-rule:evenodd;stroke:rgb(65, 255, 0);stroke-width:1;" d="M 95.9928, 246.502 L 98.7095, 238.171 L 101.426, 238.533 L 103.419, 232.194 L 100.702, 231.65 L 114.105, 189.088 L 116.459, 189.45 L 118.633, 182.748 L 116.459, 182.386 L 118.633, 175.685 L 115.916, 175.323 L 116.459, 173.693 L 134.752, 176.953 L 133.484, 181.118 L 138.737, 182.024 L 138.012, 184.197 L 146.344, 185.646 L 146.887, 183.654 L 170.432, 188.001 L 164.093, 208.286 L 161.558, 207.924 L 159.565, 213.901 L 139.099, 210.278 L 140.548, 205.569 L 132.579, 204.12 L 126.24, 224.043 L 134.39, 225.674 L 135.839, 220.964 L 156.305, 224.768 L 154.494, 231.107 L 156.849, 231.469 L 150.328, 251.936 L 127.145, 247.589 L 127.87, 245.415 L 119.357, 243.785 L 118.633, 246.14 L 114.286, 245.234 L 112.837, 249.581 L 95.9928, 246.502 z "/>
<path style="fill:rgb(0, 255, 0);fill-opacity:0;fill-rule:evenodd;stroke:rgb(65, 255, 0);stroke-width:1;" d="M 92.9137, 612.724 L 109.577, 558.931 L 130.224, 562.735 L 127.688, 570.885 L 132.216, 571.61 L 135.114, 572.153 L 136.744, 567.082 L 160.833, 571.429 L 160.652, 572.153 L 170.07, 573.964 L 166.267, 586.099 L 148.336, 583.02 L 146.344, 589.359 L 164.274, 592.619 L 160.652, 604.392 L 162.644, 604.754 L 155.581, 627.394 L 92.9137, 612.724 z M 117.184, 595.88 L 132.941, 598.777 L 136.744, 587.005 L 122.436, 584.288 L 122.074, 585.375 L 120.625, 585.194 L 117.184, 595.88 z "/>
<path style="fill:rgb(0, 0, 255);fill-opacity:0;fill-rule:evenodd;stroke:rgb(65, 255, 0);stroke-width:1;" d="M 346.661, 383.79 L 348.472, 336.337 L 350.464, 335.069 L 388.861, 346.298 L 390.129, 348.11 L 384.877, 358.433 L 386.869, 360.245 L 384.514, 364.591 L 390.31, 366.221 L 392.121, 362.418 L 395.019, 361.512 L 400.272, 351.189 L 403.351, 350.464 L 432.149, 358.977 L 424.179, 374.553 L 412.407, 371.112 L 409.328, 377.27 L 405.524, 376.183 L 403.17, 380.892 L 418.565, 385.42 L 417.478, 387.593 L 411.32, 399.728 L 381.073, 390.854 L 386.326, 380.53 L 379.443, 378.537 L 378.537, 380.168 L 375.096, 379.081 L 369.482, 390.491 L 346.661, 383.79 z "/>
<path style="fill:rgb(255, 255, 0);fill-opacity:0;fill-rule:evenodd;stroke:rgb(65, 255, 0);stroke-width:1;" d="M 356.803, 246.14 L 363.324, 233.462 L 360.969, 232.737 L 366.946, 220.964 L 389.042, 227.485 L 390.129, 225.492 L 394.657, 226.76 L 396.83, 222.776 L 392.302, 221.327 L 393.208, 219.334 L 371.293, 212.814 L 377.451, 200.86 L 379.805, 201.585 L 386.326, 188.906 L 406.249, 194.883 L 402.807, 201.404 L 418.746, 206.113 L 421.281, 205.569 L 424.179, 200.136 L 440.299, 204.845 L 434.503, 215.893 L 439.212, 217.342 L 433.054, 229.115 L 418.021, 224.587 L 417.84, 225.13 L 413.493, 223.862 L 412.769, 225.311 L 409.69, 224.406 L 405.705, 232.375 L 408.784, 233.281 L 407.879, 234.911 L 427.077, 240.706 L 421.1, 252.298 L 416.753, 251.03 L 410.958, 262.259 L 394.838, 257.369 L 397.555, 252.117 L 396.287, 250.306 L 380.53, 245.597 L 377.089, 252.298 L 356.803, 246.14 z "/>
<path style="fill:rgb(255, 0, 0);fill-opacity:0;fill-rule:evenodd;stroke:rgb(65, 255, 0);stroke-width:1;" d="M 181.662, 326.738 L 191.623, 294.861 L 229.296, 301.562 L 228.934, 303.192 L 273.851, 311.161 L 269.142, 326.194 L 264.614, 340.503 L 219.697, 332.533 L 219.516, 333.439 L 206.113, 331.084 L 205.207, 333.801 L 212.995, 335.25 L 209.373, 346.48 L 182.386, 341.589 L 186.733, 327.643 L 181.662, 326.738 z "/>
<path style="fill:rgb(0, 255, 0);fill-opacity:0;fill-rule:evenodd;stroke:rgb(65, 255, 0);stroke-width:1;" d="M 750.555, 159.746 L 759.611, 132.579 L 781.888, 136.926 L 782.975, 133.484 L 778.628, 132.579 L 780.077, 128.413 L 777.904, 127.326 L 762.327, 124.428 L 770.659, 99.434 L 794.566, 106.679 L 793.48, 109.939 L 798.189, 110.844 L 800.543, 104.505 L 821.915, 110.844 L 813.584, 135.839 L 811.773, 136.201 L 796.015, 133.665 L 793.842, 141.272 L 809.418, 143.989 L 810.324, 146.344 L 801.268, 173.33 L 779.171, 168.983 L 780.62, 164.637 L 775.549, 163.731 L 775.368, 164.456 L 750.555, 159.746 z "/>
<path style="fill:rgb(0, 0, 255);fill-opacity:0;fill-rule:evenodd;stroke:rgb(65, 255, 0);stroke-width:1;" d="M 765.769, 676.658 L 781.345, 655.286 L 784.786, 656.735 L 810.686, 621.236 L 807.064, 619.787 L 822.64, 598.596 L 858.32, 613.629 L 847.634, 628.3 L 833.869, 622.504 L 835.68, 619.968 L 831.515, 618.157 L 828.979, 621.598 L 823.727, 628.843 L 827.892, 630.473 L 829.522, 628.481 L 843.287, 634.277 L 832.058, 649.672 L 818.293, 643.876 L 819.742, 641.884 L 815.395, 640.072 L 808.15, 649.853 L 812.497, 651.664 L 813.946, 649.672 L 827.711, 655.468 L 816.663, 670.863 L 802.717, 665.067 L 804.166, 663.074 L 799.819, 661.263 L 792.212, 671.949 L 796.378, 673.76 L 798.189, 671.225 L 812.135, 677.021 L 801.449, 691.691 L 765.769, 676.658 z "/>
<path style="fill:rgb(255, 255, 0);fill-opacity:0;fill-rule:evenodd;stroke:rgb(65, 255, 0);stroke-width:1;" d="M 517.999, 589.178 L 525.243, 575.051 L 532.85, 577.224 L 540.095, 563.459 L 531.764, 560.924 L 539.189, 547.34 L 570.342, 556.577 L 583.02, 560.38 L 583.745, 558.75 L 613.086, 567.444 L 590.808, 610.731 L 561.286, 602.038 L 568.893, 587.186 L 572.153, 588.091 L 578.673, 575.594 L 558.569, 569.799 L 552.23, 582.296 L 555.49, 583.201 L 547.883, 598.053 L 517.999, 589.178 z "/>
<path style="fill:rgb(255, 0, 0);fill-opacity:0;fill-rule:evenodd;stroke:rgb(65, 255, 0);stroke-width:1;" d="M 477.247, 570.342 L 488.114, 549.332 L 486.122, 548.789 L 490.288, 540.82 L 500.068, 543.717 L 502.422, 539.189 L 508.037, 540.82 L 510.211, 536.473 L 504.958, 534.843 L 507.494, 529.952 L 497.351, 527.055 L 501.517, 518.904 L 503.328, 519.448 L 514.195, 498.619 L 531.401, 503.69 L 533.394, 499.706 L 556.396, 506.407 L 546.615, 525.787 L 542.45, 524.519 L 537.197, 534.662 L 527.055, 531.764 L 523.976, 537.559 L 531.22, 539.733 L 525.062, 551.687 L 521.983, 550.781 L 515.282, 563.64 L 519.629, 564.908 L 509.667, 584.288 L 493.004, 579.398 L 494.815, 575.594 L 477.247, 570.342 z "/>
<path style="fill:rgb(0, 255, 0);fill-opacity:0;fill-rule:evenodd;stroke:rgb(65, 255, 0);stroke-width:1;" d="M 136.201, 474.53 L 143.446, 450.26 L 164.274, 453.883 L 168.078, 441.386 L 147.249, 437.763 L 154.494, 414.037 L 155.218, 414.218 L 172.606, 417.297 L 170.976, 422.549 L 179.851, 424.179 L 179.488, 425.085 L 183.835, 425.809 L 184.741, 423.274 L 215.531, 428.526 L 209.373, 448.268 L 197.781, 446.276 L 198.325, 444.646 L 183.292, 441.929 L 178.221, 458.954 L 193.253, 461.49 L 193.434, 460.403 L 205.207, 462.395 L 199.411, 481.775 L 168.44, 476.523 L 169.346, 473.625 L 164.637, 472.9 L 164.456, 473.806 L 155.037, 472.176 L 153.407, 477.428 L 136.201, 474.53 z "/>
<path style="fill:rgb(0, 0, 255);fill-opacity:0;fill-rule:evenodd;stroke:rgb(65, 255, 0);stroke-width:1;" d="M 240.887, 135.295 L 255.92, 87.2991 L 311.886, 101.064 L 310.799, 104.505 L 302.287, 131.854 L 298.121, 145.619 L 240.887, 135.295 z "/>
<path style="fill:rgb(255, 255, 0);fill-opacity:0;fill-rule:evenodd;stroke:rgb(65, 255, 0);stroke-width:1;" d="M 347.023, 299.389 L 347.023, 298.121 L 350.826, 266.969 L 355.173, 251.755 L 385.601, 260.629 L 381.616, 268.236 L 387.05, 269.866 L 389.405, 270.591 L 391.94, 265.701 L 422.549, 274.576 L 416.572, 286.529 L 409.509, 284.356 L 407.516, 284.537 L 405.705, 287.978 L 401.902, 286.892 L 400.091, 290.514 L 403.894, 291.601 L 400.815, 297.578 L 409.146, 299.932 L 400.453, 317.319 L 377.994, 310.799 L 382.16, 302.649 L 381.616, 302.287 L 384.877, 295.766 L 376.002, 293.05 L 368.576, 308.082 L 350.645, 302.649 L 349.196, 302.106 L 347.928, 301.2 L 347.023, 299.389 z "/>
<path style="fill:rgb(255, 0, 0);fill-opacity:0;fill-rule:evenodd;stroke:rgb(65, 255, 0);stroke-width:1;" d="M 37.4915, 765.769 L 47.2719, 741.499 L 59.9502, 744.397 L 59.9502, 744.759 L 71.5418, 747.476 L 76.2508, 736.065 L 65.0215, 733.53 L 64.6593, 734.254 L 51.4376, 731.175 L 61.9425, 704.732 L 76.432, 710.528 L 78.7865, 711.433 L 77.3376, 715.237 L 81.5033, 716.142 L 82.0466, 719.583 L 81.141, 721.576 L 93.6382, 724.474 L 92.9137, 726.285 L 96.8983, 727.19 L 99.7962, 720.127 L 113.018, 725.741 L 105.411, 744.94 L 96.1739, 742.767 L 92.5515, 751.641 L 88.9291, 750.917 L 87.2991, 753.996 L 100.34, 757.075 L 90.5592, 781.164 L 73.8963, 776.455 L 77.1564, 768.304 L 73.5341, 767.399 L 73.7152, 767.036 L 62.4859, 764.32 L 58.5012, 771.564 L 37.4915, 765.769 z "/>
<path style="fill:rgb(0, 255, 0);fill-opacity:0;fill-rule:evenodd;stroke:rgb(65, 255, 0);stroke-width:1;" d="M 56.1467, 366.403 L 59.9502, 354.449 L 58.6824, 354.268 L 60.4935, 348.653 L 61.5803, 349.015 L 65.3837, 336.699 L 64.297, 336.518 L 66.2893, 330.36 L 67.1949, 330.36 L 70.8173, 318.587 L 71.904, 318.768 L 83.3145, 320.942 L 82.7711, 322.753 L 113.199, 328.368 L 113.742, 326.375 L 126.24, 328.73 L 122.436, 340.503 L 123.342, 340.684 L 121.53, 346.48 L 120.625, 346.298 L 116.821, 358.796 L 117.546, 358.977 L 115.916, 364.229 L 115.01, 364.229 L 111.207, 376.364 L 56.1467, 366.403 z "/>
<path style="fill:rgb(0, 0, 255);fill-opacity:0;fill-rule:evenodd;stroke:rgb(65, 255, 0);stroke-width:1;" d="M 890.559, 459.316 L 903.6, 441.386 L 928.956, 452.072 L 929.681, 451.166 L 931.311, 451.89 L 935.295, 446.457 L 908.128, 434.865 L 920.082, 418.565 L 931.13, 423.274 L 932.941, 420.738 L 947.793, 427.077 L 943.989, 432.33 L 961.558, 439.755 L 965.361, 434.684 L 984.197, 442.472 L 971.157, 460.403 L 947.974, 450.623 L 942.54, 458.048 L 965.361, 467.648 L 951.958, 485.578 L 939.099, 480.145 L 935.839, 478.877 L 940.005, 473.081 L 913.742, 462.033 L 909.758, 467.467 L 890.559, 459.316 z "/>
<path style="fill:rgb(255, 255, 0);fill-opacity:0;fill-rule:evenodd;stroke:rgb(65, 255, 0);stroke-width:1;" d="M 888.205, 126.602 L 903.6, 105.954 L 923.704, 114.648 L 929.319, 107.222 L 921.893, 103.962 L 937.288, 83.1333 L 976.228, 99.7962 L 960.833, 120.625 L 947.612, 115.01 L 944.532, 115.01 L 942.178, 118.089 L 938.556, 116.64 L 936.201, 119.9 L 955.4, 128.051 L 940.005, 148.698 L 888.205, 126.602 z "/>
<path style="fill:rgb(255, 0, 0);fill-opacity:0;fill-rule:evenodd;stroke:rgb(65, 255, 0);stroke-width:1;" d="M 483.586, 341.589 L 496.083, 316.957 L 514.557, 322.391 L 517.636, 316.052 L 509.848, 313.697 L 510.211, 312.973 L 509.124, 312.61 L 509.486, 311.705 L 503.69, 310.075 L 510.392, 296.853 L 538.103, 305.003 L 539.008, 303.373 L 541.182, 303.917 L 542.631, 301.2 L 563.459, 307.358 L 552.592, 328.911 L 545.348, 326.919 L 543.355, 326.738 L 536.11, 324.564 L 532.488, 331.628 L 539.008, 333.62 L 541.182, 335.069 L 548.064, 337.061 L 537.741, 357.347 L 483.586, 341.589 z "/>
<path style="fill:rgb(0, 255, 0);fill-opacity:0;fill-rule:evenodd;stroke:rgb(65, 255, 0);stroke-width:1;" d="M 967.172, 762.871 L 977.496, 748.743 L 990.174, 753.996 L 994.34, 748.562 L 981.843, 743.31 L 982.93, 741.68 L 984.56, 742.404 L 999.411, 722.119 L 1028.03, 734.073 L 1034.37, 736.79 L 1036.18, 734.254 L 1051.03, 740.593 L 1051.94, 740.955 L 1019.7, 784.967 L 967.172, 762.871 z M 1001.4, 741.137 L 1005.21, 742.767 L 1008.47, 738.239 L 1004.66, 736.79 L 1001.4, 741.137 z M 1000.68, 756.35 L 1015.35, 762.508 L 1023.5, 751.46 L 1008.83, 745.302 L 1000.68, 756.35 z "/>
<path style="fill:rgb(0, 0, 255);fill-opacity:0;fill-rule:evenodd;stroke:rgb(65, 255, 0);stroke-width:1;" d="M 682.454, 150.872 L 694.046, 115.554 L 708.173, 118.27 L 711.071, 109.396 L 696.763, 106.86 L 704.551, 82.9522 L 724.111, 86.7557 L 722.3, 92.1893 L 746.389, 96.7172 L 738.963, 119.9 L 723.749, 117.002 L 723.025, 118.995 L 721.757, 118.814 L 720.489, 122.798 L 716.323, 122.074 L 715.237, 125.334 L 736.065, 129.319 L 728.458, 152.502 L 705.094, 147.974 L 702.739, 154.675 L 682.454, 150.872 z "/>
<path style="fill:rgb(255, 255, 0);fill-opacity:0;fill-rule:evenodd;stroke:rgb(65, 255, 0);stroke-width:1;" d="M 595.517, 738.601 L 616.346, 696.581 L 644.419, 708.173 L 636.269, 719.583 L 638.805, 722.3 L 635.726, 726.466 L 641.34, 728.82 L 651.302, 714.874 L 667.059, 721.395 L 659.271, 732.262 L 668.87, 736.246 L 658.728, 750.374 L 663.437, 752.185 L 656.554, 761.603 L 655.286, 763.595 L 629.024, 752.547 L 636.812, 741.68 L 628.481, 738.239 L 620.512, 749.106 L 595.517, 738.601 z "/>
<path style="fill:rgb(255, 0, 0);fill-opacity:0;fill-rule:evenodd;stroke:rgb(65, 255, 0);stroke-width:1;" d="M 674.485, 724.655 L 696.763, 693.321 L 702.377, 695.676 L 707.63, 697.668 L 707.992, 697.125 L 721.213, 702.015 L 724.474, 698.393 L 768.304, 716.686 L 766.674, 719.04 L 769.391, 722.662 L 767.58, 725.198 L 769.391, 725.741 L 763.957, 733.711 L 762.146, 732.986 L 760.878, 734.797 L 755.083, 735.16 L 753.09, 738.058 L 719.402, 724.293 L 708.535, 739.506 L 705.456, 738.239 L 705.818, 737.876 L 674.485, 724.655 z "/>
<path style="fill:rgb(0, 255, 0);fill-opacity:0;fill-rule:evenodd;stroke:rgb(65, 255, 0);stroke-width:1;" d="M 302.287, 131.854 L 310.799, 104.505 L 361.331, 113.561 L 346.48, 161.376 L 335.975, 159.384 L 330.541, 176.772 L 310.256, 173.149 L 322.029, 135.477 L 302.287, 131.854 z "/>
<path style="fill:rgb(0, 0, 255);fill-opacity:0;fill-rule:evenodd;stroke:rgb(65, 255, 0);stroke-width:1;" d="M 748.925, 89.6536 L 750.374, 85.1257 L 756.169, 67.1949 L 755.083, 67.0138 L 757.981, 58.139 L 761.784, 58.8635 L 769.753, 34.2314 L 809.237, 41.6572 L 790.038, 100.34 L 748.925, 89.6536 z "/>
<path style="fill:rgb(255, 255, 0);fill-opacity:0;fill-rule:evenodd;stroke:rgb(65, 255, 0);stroke-width:1;" d="M 109.758, 558.388 L 116.097, 537.741 L 142.178, 542.45 L 141.453, 544.442 L 143.989, 544.985 L 147.249, 534.662 L 144.714, 534.118 L 143.989, 536.473 L 117.908, 531.764 L 124.428, 510.573 L 133.484, 512.203 L 143.446, 514.014 L 142.54, 516.731 L 145.257, 517.636 L 172.244, 522.527 L 174.417, 523.794 L 184.741, 525.787 L 179.488, 542.631 L 161.195, 539.371 L 159.203, 545.529 L 177.496, 548.789 L 172.244, 565.633 L 161.92, 563.822 L 159.384, 564.184 L 134.209, 559.656 L 128.956, 559.837 L 128.413, 561.648 L 109.758, 558.388 z "/>
<path style="fill:rgb(255, 0, 0);fill-opacity:0;fill-rule:evenodd;stroke:rgb(65, 255, 0);stroke-width:1;" d="M 417.478, 675.391 L 423.817, 663.256 L 440.661, 668.146 L 443.559, 662.35 L 426.715, 657.46 L 433.597, 644.238 L 450.441, 649.128 L 453.883, 642.608 L 436.858, 637.718 L 443.921, 624.134 L 459.497, 628.843 L 462.395, 623.047 L 446.819, 618.338 L 454.969, 602.762 L 496.446, 615.078 L 489.382, 624.677 L 484.492, 631.379 L 479.058, 629.386 L 475.798, 631.017 L 471.995, 636.812 L 471.089, 636.45 L 469.459, 639.71 L 477.066, 642.065 L 465.112, 658.547 L 461.127, 657.098 L 441.204, 684.99 L 417.478, 675.391 z "/>
<path style="fill:rgb(0, 255, 0);fill-opacity:0;fill-rule:evenodd;stroke:rgb(65, 255, 0);stroke-width:1;" d="M 108.128, 782.613 L 115.372, 764.863 L 136.02, 769.753 L 136.926, 767.399 L 134.752, 766.855 L 136.201, 763.414 L 138.193, 763.957 L 139.099, 761.965 L 118.451, 757.075 L 127.326, 735.341 L 154.856, 746.57 L 154.313, 747.657 L 163.912, 749.83 L 164.999, 747.113 L 178.039, 752.728 L 179.669, 752.547 L 172.244, 770.84 L 153.226, 766.312 L 150.328, 773.194 L 169.346, 777.722 L 160.29, 800 L 142.902, 796.015 L 144.351, 792.212 L 108.128, 782.613 z "/>
<path style="fill:rgb(0, 0, 255);fill-opacity:0;fill-rule:evenodd;stroke:rgb(65, 255, 0);stroke-width:1;" d="M 139.099, 703.102 L 147.068, 683.903 L 146.525, 681.186 L 155.581, 659.09 L 212.452, 672.312 L 194.702, 715.78 L 175.141, 711.071 L 176.047, 708.535 L 175.323, 708.354 L 176.409, 705.456 L 160.833, 701.834 L 158.479, 707.63 L 140.005, 703.283 L 139.099, 703.102 z M 165.723, 690.061 L 181.118, 693.502 L 185.646, 682.092 L 172.606, 679.013 L 170.251, 678.651 L 165.723, 690.061 z "/>
<path style="fill:rgb(255, 255, 0);fill-opacity:0;fill-rule:evenodd;stroke:rgb(65, 255, 0);stroke-width:1;" d="M 67.376, 88.5669 L 79.511, 49.9887 L 83.3145, 48.902 L 140.005, 69.0061 L 130.949, 97.9851 L 130.224, 99.9774 L 88.5669, 92.3704 L 67.376, 88.5669 z "/>
<path style="fill:rgb(255, 0, 0);fill-opacity:0;fill-rule:evenodd;stroke:rgb(65, 255, 0);stroke-width:1;" d="M 687.163, 642.97 L 728.639, 559.113 L 751.823, 568.893 L 710.165, 652.751 L 687.163, 642.97 z "/>
<path style="fill:rgb(0, 255, 0);fill-opacity:0;fill-rule:evenodd;stroke:rgb(65, 255, 0);stroke-width:1;" d="M 214.625, 767.58 L 222.776, 748.019 L 249.581, 754.358 L 252.298, 747.476 L 225.674, 741.137 L 236.541, 714.331 L 254.471, 719.583 L 256.101, 720.127 L 253.747, 725.741 L 260.267, 727.372 L 260.992, 725.741 L 262.622, 726.104 L 262.803, 725.923 L 278.379, 729.907 L 255.015, 786.235 L 240.887, 782.25 L 245.053, 773.194 L 234.186, 768.667 L 230.201, 767.399 L 227.847, 773.013 L 214.625, 767.58 z "/>
<path style="fill:rgb(0, 0, 255);fill-opacity:0;fill-rule:evenodd;stroke:rgb(65, 255, 0);stroke-width:1;" d="M 562.916, 544.261 L 583.926, 503.871 L 615.803, 513.471 L 614.173, 516.731 L 618.7, 517.999 L 622.142, 511.478 L 638.805, 516.55 L 615.078, 562.916 L 598.415, 558.026 L 601.675, 551.687 L 596.785, 550.057 L 594.974, 553.86 L 562.916, 544.261 z M 588.635, 533.937 L 594.793, 535.748 L 595.88, 537.741 L 594.793, 540.095 L 602.038, 542.087 L 603.487, 539.189 L 607.29, 540.276 L 612.724, 529.409 L 608.739, 528.141 L 610.369, 525.243 L 602.762, 523.07 L 601.313, 525.787 L 599.14, 526.149 L 593.344, 524.519 L 588.635, 533.937 z "/>
<path style="fill:rgb(255, 255, 0);fill-opacity:0;fill-rule:evenodd;stroke:rgb(65, 255, 0);stroke-width:1;" d="M 247.951, 417.478 L 255.739, 393.027 L 252.117, 392.302 L 263.165, 356.622 L 297.94, 362.961 L 286.348, 399.909 L 291.601, 400.815 L 284.356, 424.179 L 277.473, 422.911 L 247.951, 417.478 z "/>
<path style="fill:rgb(255, 0, 0);fill-opacity:0;fill-rule:evenodd;stroke:rgb(65, 255, 0);stroke-width:1;" d="M 389.948, 728.458 L 399.185, 710.346 L 422.187, 717.048 L 425.266, 711.252 L 402.264, 704.369 L 414.761, 680.1 L 431.424, 686.982 L 428.345, 692.959 L 449.536, 699.298 L 449.355, 699.66 L 457.143, 701.834 L 456.781, 702.558 L 463.482, 704.551 L 455.875, 719.583 L 440.299, 714.874 L 437.039, 721.213 L 452.615, 725.741 L 444.646, 741.318 L 408.784, 730.632 L 407.335, 733.53 L 389.948, 728.458 z "/>
<path style="fill:rgb(0, 255, 0);fill-opacity:0;fill-rule:evenodd;stroke:rgb(65, 255, 0);stroke-width:1;" d="M 367.67, 771.564 L 377.089, 753.271 L 400.091, 760.154 L 403.351, 753.996 L 380.349, 747.113 L 389.948, 728.458 L 407.335, 733.53 L 405.705, 736.609 L 441.567, 747.295 L 433.597, 762.871 L 418.021, 758.162 L 414.942, 764.139 L 430.518, 768.848 L 422.549, 784.243 L 387.05, 773.738 L 385.601, 776.817 L 367.67, 771.564 z "/>
<path style="fill:rgb(0, 0, 255);fill-opacity:0;fill-rule:evenodd;stroke:rgb(65, 255, 0);stroke-width:1;" d="M 236.36, 454.969 L 238.352, 448.449 L 240.887, 448.993 L 245.415, 434.503 L 242.88, 433.96 L 244.872, 427.439 L 245.778, 427.621 L 247.589, 422.006 L 273.127, 426.534 L 273.489, 425.628 L 276.387, 426.172 L 277.473, 422.911 L 284.356, 424.179 L 297.396, 426.534 L 292.506, 446.819 L 281.096, 444.646 L 280.734, 445.732 L 273.489, 444.283 L 271.496, 450.804 L 278.741, 452.072 L 278.379, 453.158 L 290.695, 455.332 L 284.537, 474.892 L 264.976, 471.451 L 265.882, 468.372 L 263.346, 467.829 L 263.708, 466.923 L 238.714, 462.395 L 240.706, 455.875 L 236.36, 454.969 z "/>
<path style="fill:rgb(255, 255, 0);fill-opacity:0;fill-rule:evenodd;stroke:rgb(65, 255, 0);stroke-width:1;" d="M 529.59, 483.767 L 537.197, 468.734 L 531.764, 467.104 L 539.733, 451.709 L 545.166, 453.339 L 553.317, 437.763 L 589.903, 448.63 L 580.303, 467.104 L 583.745, 468.01 L 579.036, 477.428 L 575.594, 476.341 L 565.995, 494.634 L 529.59, 483.767 z "/>
<path style="fill:rgb(255, 0, 0);fill-opacity:0;fill-rule:evenodd;stroke:rgb(65, 255, 0);stroke-width:1;" d="M 130.949, 97.9851 L 140.005, 69.0061 L 201.404, 89.8347 L 190.899, 123.161 L 174.417, 120.263 L 161.92, 117.908 L 166.086, 104.324 L 130.949, 97.9851 z "/>
<path style="fill:rgb(0, 255, 0);fill-opacity:0;fill-rule:evenodd;stroke:rgb(65, 255, 0);stroke-width:1;" d="M 791.669, 101.789 L 811.773, 41.295 L 841.838, 50.1698 L 821.915, 110.844 L 800.543, 104.505 L 791.669, 101.789 z "/>
<path style="fill:rgb(0, 0, 255);fill-opacity:0;fill-rule:evenodd;stroke:rgb(65, 255, 0);stroke-width:1;" d="M 847.996, 711.071 L 861.761, 692.235 L 874.621, 697.487 L 878.968, 691.872 L 866.108, 686.439 L 876.251, 672.493 L 904.324, 684.446 L 903.419, 685.714 L 917.546, 691.691 L 909.396, 702.921 L 899.253, 698.574 L 897.261, 701.472 L 899.977, 702.558 L 894.182, 710.346 L 892.552, 709.622 L 890.559, 712.52 L 899.434, 716.142 L 898.166, 717.953 L 890.197, 728.82 L 847.996, 711.071 z "/>
<path style="fill:rgb(255, 255, 0);fill-opacity:0;fill-rule:evenodd;stroke:rgb(65, 255, 0);stroke-width:1;" d="M 415.848, 436.495 L 427.439, 413.674 L 498.257, 434.684 L 496.083, 439.031 L 486.484, 457.505 L 415.848, 436.495 z "/>
<path style="fill:rgb(255, 0, 0);fill-opacity:0;fill-rule:evenodd;stroke:rgb(65, 255, 0);stroke-width:1;" d="M 236.541, 714.331 L 245.053, 693.502 L 258.637, 696.763 L 261.354, 690.423 L 247.589, 687.163 L 255.92, 667.059 L 265.157, 669.233 L 263.708, 672.674 L 271.678, 674.666 L 271.315, 675.572 L 278.198, 677.202 L 278.379, 676.839 L 297.034, 682.273 L 289.971, 699.117 L 276.024, 695.857 L 275.3, 697.849 L 271.678, 697.125 L 270.953, 699.66 L 274.213, 700.385 L 274.576, 702.196 L 287.797, 705.456 L 280.19, 723.387 L 261.535, 718.134 L 262.803, 715.055 L 257.007, 713.607 L 254.471, 719.583 L 236.541, 714.331 z "/>
<path style="fill:rgb(0, 255, 0);fill-opacity:0;fill-rule:evenodd;stroke:rgb(65, 255, 0);stroke-width:1;" d="M 744.034, 603.305 L 756.894, 585.918 L 753.271, 584.288 L 761.603, 572.878 L 815.214, 595.517 L 818.474, 596.785 L 809.962, 608.558 L 806.158, 606.928 L 793.661, 624.134 L 773.013, 615.44 L 784.786, 599.321 L 776.636, 595.88 L 764.863, 611.999 L 744.034, 603.305 z "/>
<path style="fill:rgb(0, 0, 255);fill-opacity:0;fill-rule:evenodd;stroke:rgb(65, 255, 0);stroke-width:1;" d="M 155.218, 414.218 L 166.267, 377.451 L 186.914, 381.073 L 182.93, 393.751 L 186.009, 394.476 L 184.016, 400.996 L 193.253, 402.626 L 195.246, 395.925 L 198.868, 396.649 L 202.671, 383.79 L 223.138, 387.412 L 212.09, 423.998 L 191.623, 420.557 L 194.34, 411.682 L 178.221, 408.965 L 175.504, 417.84 L 172.606, 417.297 L 155.218, 414.218 z "/>
<path style="fill:rgb(255, 255, 0);fill-opacity:0;fill-rule:evenodd;stroke:rgb(65, 255, 0);stroke-width:1;" d="M 622.685, 453.158 L 639.529, 420.195 L 682.454, 432.873 L 663.437, 470.183 L 622.685, 453.158 z "/>
<path style="fill:rgb(255, 0, 0);fill-opacity:0;fill-rule:evenodd;stroke:rgb(65, 255, 0);stroke-width:1;" d="M 166.267, 377.451 L 177.134, 341.589 L 197.419, 345.031 L 194.702, 353.724 L 211.184, 356.622 L 213.901, 347.928 L 234.186, 351.37 L 223.138, 387.412 L 202.671, 383.79 L 206.475, 371.293 L 203.396, 370.749 L 205.388, 364.229 L 196.151, 362.599 L 194.34, 368.938 L 190.718, 368.395 L 186.914, 381.073 L 166.267, 377.451 z "/>
<path style="fill:rgb(0, 255, 0);fill-opacity:0;fill-rule:evenodd;stroke:rgb(65, 255, 0);stroke-width:1;" d="M 847.634, 239.62 L 859.226, 204.302 L 876.07, 211.365 L 874.077, 214.082 L 887.661, 219.878 L 886.031, 222.051 L 890.016, 223.681 L 891.103, 222.232 L 893.095, 223.138 L 893.638, 222.413 L 909.214, 228.753 L 904.868, 234.729 L 905.592, 236.903 L 890.559, 257.55 L 872.447, 249.943 L 878.968, 240.887 L 871.542, 237.808 L 865.022, 246.864 L 847.634, 239.62 z "/>
<path style="fill:rgb(0, 0, 255);fill-opacity:0;fill-rule:evenodd;stroke:rgb(65, 255, 0);stroke-width:1;" d="M 601.313, 505.32 L 620.693, 468.191 L 646.412, 475.979 L 646.593, 475.436 L 658.184, 478.877 L 638.805, 516.55 L 622.142, 511.478 L 601.313, 505.32 z "/>
<path style="fill:rgb(255, 255, 0);fill-opacity:0;fill-rule:evenodd;stroke:rgb(65, 255, 0);stroke-width:1;" d="M 129.862, 727.915 L 140.005, 703.283 L 158.479, 707.63 L 155.4, 715.055 L 160.471, 716.142 L 160.109, 717.048 L 166.991, 718.678 L 167.535, 717.591 L 172.062, 718.678 L 175.141, 711.071 L 194.702, 715.78 L 179.669, 752.547 L 178.039, 752.728 L 164.999, 747.113 L 163.007, 746.389 L 167.535, 735.341 L 163.731, 734.435 L 163.188, 735.884 L 129.862, 727.915 z "/>
<path style="fill:rgb(255, 0, 0);fill-opacity:0;fill-rule:evenodd;stroke:rgb(65, 255, 0);stroke-width:1;" d="M 552.773, 424.179 L 557.482, 415.123 L 556.034, 414.58 L 558.388, 409.69 L 559.837, 410.233 L 564.727, 400.453 L 591.714, 408.241 L 620.512, 416.753 L 608.558, 440.48 L 552.773, 424.179 z "/>
<path style="fill:rgb(0, 255, 0);fill-opacity:0;fill-rule:evenodd;stroke:rgb(65, 255, 0);stroke-width:1;" d="M 870.998, 168.259 L 877.338, 147.612 L 881.322, 145.981 L 897.985, 153.045 L 935.295, 168.802 L 929.319, 187.82 L 928.051, 191.804 L 870.998, 168.259 z "/>
<path style="fill:rgb(0, 0, 255);fill-opacity:0;fill-rule:evenodd;stroke:rgb(65, 255, 0);stroke-width:1;" d="M 835.68, 558.026 L 850.894, 537.378 L 851.8, 537.741 L 852.343, 536.835 L 853.068, 537.197 L 856.69, 532.307 L 870.093, 538.103 L 866.108, 543.355 L 869.006, 544.442 L 866.47, 548.064 L 878.062, 552.954 L 884.039, 544.804 L 886.756, 546.072 L 902.694, 552.773 L 883.858, 578.492 L 835.68, 558.026 z "/>
<path style="fill:rgb(255, 255, 0);fill-opacity:0;fill-rule:evenodd;stroke:rgb(65, 255, 0);stroke-width:1;" d="M 482.681, 658.728 L 496.264, 640.072 L 504.596, 643.514 L 513.471, 647.317 L 509.486, 652.57 L 542.087, 666.153 L 545.891, 660.901 L 546.072, 660.72 L 561.648, 667.24 L 549.694, 690.786 L 533.394, 683.903 L 536.473, 679.737 L 531.764, 677.745 L 530.858, 679.013 L 482.681, 658.728 z "/>
<path style="fill:rgb(255, 0, 0);fill-opacity:0;fill-rule:evenodd;stroke:rgb(65, 255, 0);stroke-width:1;" d="M 184.56, 513.108 L 193.434, 484.854 L 193.434, 484.492 L 240.706, 492.823 L 231.65, 521.802 L 187.639, 514.014 L 187.82, 513.833 L 184.56, 513.108 z "/>
<path style="fill:rgb(0, 255, 0);fill-opacity:0;fill-rule:evenodd;stroke:rgb(65, 255, 0);stroke-width:1;" d="M 879.33, 481.594 L 891.827, 464.569 L 936.744, 483.586 L 939.099, 480.145 L 951.958, 485.578 L 934.933, 508.943 L 919.719, 502.422 L 924.066, 496.627 L 921.893, 495.721 L 922.255, 494.997 L 919.357, 493.91 L 916.64, 497.532 L 879.33, 481.594 z "/>
<path style="fill:rgb(0, 0, 255);fill-opacity:0;fill-rule:evenodd;stroke:rgb(65, 255, 0);stroke-width:1;" d="M 811.592, 758.343 L 827.892, 736.065 L 880.417, 758.162 L 864.116, 780.62 L 862.667, 780.077 L 848.902, 774.1 L 851.257, 770.84 L 853.611, 771.021 L 854.698, 769.029 L 853.249, 767.399 L 851.257, 768.304 L 834.05, 761.06 L 833.326, 759.067 L 831.152, 758.705 L 829.522, 761.241 L 830.066, 761.965 L 827.892, 765.225 L 811.592, 758.343 z "/>
<path style="fill:rgb(255, 255, 0);fill-opacity:0;fill-rule:evenodd;stroke:rgb(65, 255, 0);stroke-width:1;" d="M 125.877, 143.627 L 135.295, 113.38 L 153.407, 116.64 L 152.683, 119.176 L 154.856, 119.538 L 153.77, 122.798 L 169.527, 125.515 L 173.149, 124.247 L 174.417, 120.263 L 190.899, 123.161 L 182.93, 148.517 L 169.889, 146.163 L 170.976, 142.721 L 154.675, 139.823 L 154.856, 138.918 L 149.604, 138.012 L 147.612, 140.367 L 145.438, 147.249 L 125.877, 143.627 z "/>
<path style="fill:rgb(255, 0, 0);fill-opacity:0;fill-rule:evenodd;stroke:rgb(65, 255, 0);stroke-width:1;" d="M 116.459, 173.693 L 125.877, 143.627 L 145.438, 147.249 L 143.265, 153.951 L 143.446, 156.305 L 149.242, 157.211 L 149.423, 156.305 L 165.18, 159.203 L 166.267, 155.762 L 179.851, 158.297 L 171.881, 183.292 L 155.943, 180.394 L 157.211, 176.772 L 154.494, 174.055 L 141.272, 171.7 L 141.091, 172.787 L 138.737, 172.425 L 135.839, 173.693 L 134.752, 176.953 L 116.459, 173.693 z "/>
<path style="fill:rgb(0, 255, 0);fill-opacity:0;fill-rule:evenodd;stroke:rgb(65, 255, 0);stroke-width:1;" d="M 847.634, 524.7 L 859.045, 509.124 L 871.904, 514.557 L 869.368, 517.999 L 874.621, 520.172 L 879.33, 513.652 L 894.725, 520.172 L 894.725, 520.172 L 890.378, 526.149 L 895.449, 528.141 L 896.536, 526.692 L 898.71, 525.787 L 917.002, 533.575 L 902.694, 552.773 L 886.756, 546.072 L 889.835, 541.906 L 886.756, 540.638 L 886.393, 541.001 L 847.634, 524.7 z "/>
<path style="fill:rgb(0, 0, 255);fill-opacity:0;fill-rule:evenodd;stroke:rgb(65, 255, 0);stroke-width:1;" d="M 863.029, 503.871 L 874.621, 487.933 L 917.184, 505.864 L 919.719, 502.422 L 934.933, 508.943 L 920.806, 528.141 L 902.332, 520.353 L 902.513, 519.085 L 903.6, 517.636 L 898.347, 515.463 L 894.725, 520.172 L 894.725, 520.172 L 879.33, 513.652 L 883.677, 507.856 L 878.605, 505.683 L 875.889, 509.305 L 863.029, 503.871 z "/>
<path style="fill:rgb(255, 255, 0);fill-opacity:0;fill-rule:evenodd;stroke:rgb(65, 255, 0);stroke-width:1;" d="M 795.291, 780.801 L 811.592, 758.343 L 827.892, 765.225 L 823.727, 770.84 L 843.65, 779.171 L 847.634, 773.738 L 848.902, 774.1 L 862.667, 780.077 L 848.54, 799.457 L 840.027, 795.834 L 841.114, 794.566 L 813.041, 782.794 L 809.962, 786.959 L 795.291, 780.801 z "/>
<path style="fill:rgb(255, 0, 0);fill-opacity:0;fill-rule:evenodd;stroke:rgb(65, 255, 0);stroke-width:1;" d="M 718.678, 656.735 L 727.009, 645.506 L 734.616, 648.766 L 746.751, 632.103 L 739.144, 629.024 L 746.57, 618.882 L 770.84, 629.205 L 750.555, 656.916 L 754.358, 658.547 L 747.113, 668.689 L 718.678, 656.735 z "/>
<path style="fill:rgb(0, 255, 0);fill-opacity:0;fill-rule:evenodd;stroke:rgb(65, 255, 0);stroke-width:1;" d="M 627.575, 673.76 L 636.812, 655.286 L 667.784, 668.508 L 691.51, 678.47 L 680.824, 693.14 L 646.774, 678.47 L 647.317, 677.926 L 643.333, 676.296 L 640.978, 679.375 L 627.575, 673.76 z "/>
<path style="fill:rgb(0, 0, 255);fill-opacity:0;fill-rule:evenodd;stroke:rgb(65, 255, 0);stroke-width:1;" d="M 698.393, 781.888 L 704.732, 773.194 L 705.094, 772.651 L 713.969, 776.273 L 715.599, 774.1 L 714.693, 772.289 L 720.489, 764.501 L 713.244, 761.422 L 715.055, 758.886 L 719.583, 752.728 L 749.468, 765.225 L 728.096, 794.566 L 698.393, 781.888 z "/>
<path style="fill:rgb(255, 255, 0);fill-opacity:0;fill-rule:evenodd;stroke:rgb(65, 255, 0);stroke-width:1;" d="M 124.428, 510.573 L 128.956, 496.264 L 173.33, 504.234 L 175.504, 497.351 L 181.843, 498.438 L 186.371, 483.586 L 193.434, 484.854 L 184.56, 513.108 L 187.82, 513.833 L 187.639, 514.014 L 185.465, 521.44 L 172.062, 519.085 L 172.968, 516.187 L 158.841, 513.652 L 157.935, 516.55 L 147.974, 514.739 L 149.06, 511.478 L 134.571, 508.943 L 133.484, 512.203 L 124.428, 510.573 z "/>
<path style="fill:rgb(255, 0, 0);fill-opacity:0;fill-rule:evenodd;stroke:rgb(65, 255, 0);stroke-width:1;" d="M 882.047, 664.523 L 904.686, 633.371 L 932.76, 645.144 L 925.515, 655.286 L 917.365, 651.845 L 915.735, 654.019 L 909.577, 651.483 L 905.049, 657.641 L 909.939, 659.633 L 908.309, 661.807 L 917.908, 665.972 L 910.301, 676.296 L 882.047, 664.523 z "/>
<path style="fill:rgb(0, 255, 0);fill-opacity:0;fill-rule:evenodd;stroke:rgb(65, 255, 0);stroke-width:1;" d="M 986.914, 623.591 L 988.001, 622.142 L 995.789, 611.456 L 998.868, 612.724 L 1005.57, 603.487 L 1041.61, 618.7 L 1034.73, 627.938 L 1038.35, 629.386 L 1029.48, 641.521 L 1011.73, 634.096 L 1022.05, 619.968 L 1014.63, 616.889 L 1004.48, 631.017 L 986.914, 623.591 z "/>
<path style="fill:rgb(0, 0, 255);fill-opacity:0;fill-rule:evenodd;stroke:rgb(65, 255, 0);stroke-width:1;" d="M 889.654, 729.545 L 890.197, 728.82 L 898.166, 717.953 L 902.151, 719.583 L 921.168, 693.321 L 938.012, 700.385 L 918.814, 726.647 L 922.255, 728.096 L 913.923, 739.688 L 889.654, 729.545 z "/>
<path style="fill:rgb(255, 255, 0);fill-opacity:0;fill-rule:evenodd;stroke:rgb(65, 255, 0);stroke-width:1;" d="M 526.149, 296.491 L 535.205, 278.198 L 539.552, 279.466 L 542.087, 274.576 L 553.498, 277.836 L 570.704, 282.907 L 567.625, 289.065 L 572.153, 290.333 L 563.459, 307.358 L 542.631, 301.2 L 526.149, 296.491 z "/>
<path style="fill:rgb(255, 0, 0);fill-opacity:0;fill-rule:evenodd;stroke:rgb(65, 255, 0);stroke-width:1;" d="M 913.923, 739.688 L 922.255, 728.096 L 926.058, 729.726 L 945.257, 703.464 L 962.101, 710.528 L 942.902, 736.79 L 946.163, 738.239 L 937.65, 749.83 L 913.923, 739.688 z "/>
<path style="fill:rgb(0, 255, 0);fill-opacity:0;fill-rule:evenodd;stroke:rgb(65, 255, 0);stroke-width:1;" d="M 937.65, 749.83 L 946.163, 738.239 L 949.966, 739.688 L 969.165, 713.425 L 985.827, 720.489 L 966.629, 746.751 L 970.251, 748.2 L 961.739, 759.973 L 937.65, 749.83 z "/>
<path style="fill:rgb(0, 0, 255);fill-opacity:0;fill-rule:evenodd;stroke:rgb(65, 255, 0);stroke-width:1;" d="M 516.912, 634.277 L 524.7, 623.591 L 576.5, 638.08 L 567.625, 655.649 L 516.912, 634.277 z "/>
<path style="fill:rgb(255, 255, 0);fill-opacity:0;fill-rule:evenodd;stroke:rgb(65, 255, 0);stroke-width:1;" d="M 133.665, 482.499 L 136.201, 474.53 L 153.407, 477.428 L 178.945, 481.956 L 172.787, 502.785 L 136.926, 496.446 L 140.91, 483.767 L 133.665, 482.499 z "/>
<path style="fill:rgb(255, 0, 0);fill-opacity:0;fill-rule:evenodd;stroke:rgb(65, 255, 0);stroke-width:1;" d="M 649.672, 380.168 L 668.146, 343.4 L 686.801, 348.653 L 684.084, 356.441 L 682.635, 360.245 L 679.194, 367.67 L 675.209, 374.915 L 670.681, 381.979 L 668.327, 385.42 L 649.672, 380.168 z "/>
<path style="fill:rgb(0, 255, 0);fill-opacity:0;fill-rule:evenodd;stroke:rgb(65, 255, 0);stroke-width:1;" d="M 504.596, 643.514 L 510.392, 631.56 L 516.912, 634.277 L 567.625, 655.649 L 561.648, 667.24 L 546.072, 660.72 L 545.891, 660.901 L 513.471, 647.317 L 504.596, 643.514 z "/>
<path style="fill:rgb(0, 0, 255);fill-opacity:0;fill-rule:evenodd;stroke:rgb(65, 255, 0);stroke-width:1;" d="M 959.203, 610.007 L 959.565, 609.645 L 972.425, 591.714 L 974.779, 588.816 L 1003.4, 600.77 L 995.789, 611.456 L 988.001, 622.142 L 959.203, 610.007 z "/>
<path style="fill:rgb(255, 255, 0);fill-opacity:0;fill-rule:evenodd;stroke:rgb(65, 255, 0);stroke-width:1;" d="M 618.7, 691.51 L 627.575, 673.76 L 640.978, 679.375 L 641.884, 679.737 L 639.529, 682.998 L 675.028, 697.849 L 667.24, 708.354 L 634.458, 694.408 L 632.284, 697.306 L 618.7, 691.51 z "/>
<path style="fill:rgb(255, 0, 0);fill-opacity:0;fill-rule:evenodd;stroke:rgb(65, 255, 0);stroke-width:1;" d="M 952.139, 425.266 L 963.731, 409.509 L 994.521, 422.549 L 997.6, 423.817 L 986.009, 439.574 L 952.139, 425.266 z "/>
<path style="fill:rgb(0, 255, 0);fill-opacity:0;fill-rule:evenodd;stroke:rgb(65, 255, 0);stroke-width:1;" d="M 747.113, 668.689 L 754.358, 658.547 L 758.524, 653.113 L 760.154, 653.837 L 761.965, 651.302 L 760.335, 650.758 L 764.682, 644.782 L 765.406, 645.144 L 768.667, 640.616 L 782.069, 646.23 L 774.462, 656.735 L 771.927, 657.641 L 771.021, 658.728 L 768.123, 662.893 L 768.848, 664.523 L 761.241, 674.847 L 747.113, 668.689 z "/>
<path style="fill:rgb(0, 0, 255);fill-opacity:0;fill-rule:evenodd;stroke:rgb(65, 255, 0);stroke-width:1;" d="M 911.75, 265.701 L 922.617, 250.668 L 932.76, 236.541 L 940.005, 239.439 L 936.02, 245.053 L 942.359, 247.77 L 925.515, 271.496 L 911.75, 265.701 z "/>
<path style="fill:rgb(255, 255, 0);fill-opacity:0;fill-rule:evenodd;stroke:rgb(65, 255, 0);stroke-width:1;" d="M 897.985, 153.045 L 905.411, 142.902 L 938.012, 156.486 L 935.295, 168.802 L 897.985, 153.045 z "/>
<path style="fill:rgb(255, 0, 0);fill-opacity:0;fill-rule:evenodd;stroke:rgb(65, 255, 0);stroke-width:1;" d="M 794.929, 524.338 L 811.592, 499.525 L 826.262, 505.501 L 808.694, 530.134 L 794.929, 524.338 z "/>
<path style="fill:rgb(0, 255, 0);fill-opacity:0;fill-rule:evenodd;stroke:rgb(65, 255, 0);stroke-width:1;" d="M 813.403, 497.532 L 830.066, 472.538 L 844.736, 478.696 L 827.168, 503.147 L 813.403, 497.532 z "/>
<path style="fill:rgb(0, 0, 255);fill-opacity:0;fill-rule:evenodd;stroke:rgb(65, 255, 0);stroke-width:1;" d="M 684.265, 775.911 L 685.895, 773.738 L 701.109, 752.909 L 702.015, 751.641 L 706.543, 753.634 L 705.456, 754.902 L 715.055, 758.886 L 713.244, 761.422 L 709.079, 767.218 L 706.905, 766.312 L 702.558, 772.289 L 704.732, 773.194 L 698.393, 781.888 L 684.265, 775.911 z "/>
<path style="fill:rgb(255, 255, 0);fill-opacity:0;fill-rule:evenodd;stroke:rgb(65, 255, 0);stroke-width:1;" d="M 675.572, 769.572 L 690.967, 748.562 L 701.109, 752.909 L 685.895, 773.738 L 675.572, 769.572 z "/>
<path style="fill:rgb(255, 0, 0);fill-opacity:0;fill-rule:evenodd;stroke:rgb(65, 255, 0);stroke-width:1;" d="M 656.554, 761.603 L 663.437, 752.185 L 671.768, 740.412 L 681.911, 744.759 L 666.516, 765.769 L 656.554, 761.603 z "/>
<path style="fill:rgb(0, 255, 0);fill-opacity:0;fill-rule:evenodd;stroke:rgb(65, 255, 0);stroke-width:1;" d="M 930.949, 597.51 L 935.839, 590.265 L 943.627, 579.579 L 954.675, 584.288 L 941.453, 602.4 L 938.556, 601.132 L 936.744, 601.313 L 934.933, 601.132 L 934.028, 600.77 L 932.579, 600.045 L 931.492, 598.777 L 930.949, 597.51 z "/>
<path style="fill:rgb(0, 0, 255);fill-opacity:0;fill-rule:evenodd;stroke:rgb(65, 255, 0);stroke-width:1;" d="M 908.309, 244.872 L 918.451, 230.564 L 932.76, 236.541 L 922.617, 250.668 L 908.309, 244.872 z "/>
<path style="fill:rgb(255, 255, 0);fill-opacity:0;fill-rule:evenodd;stroke:rgb(65, 255, 0);stroke-width:1;" d="M 962.825, 288.703 L 973.149, 274.032 L 976.409, 275.3 L 982.205, 266.787 L 989.45, 269.685 L 986.552, 273.851 L 985.827, 273.67 L 972.606, 292.687 L 962.825, 288.703 z "/>
<path style="fill:rgb(255, 0, 0);fill-opacity:0;fill-rule:evenodd;stroke:rgb(65, 255, 0);stroke-width:1;" d="M 666.516, 765.769 L 681.911, 744.759 L 690.967, 748.562 L 675.572, 769.572 L 666.516, 765.769 z "/>
<path style="fill:rgb(0, 255, 0);fill-opacity:0;fill-rule:evenodd;stroke:rgb(65, 255, 0);stroke-width:1;" d="M 953.951, 285.261 L 964.456, 270.048 L 966.448, 270.772 L 972.244, 262.622 L 979.126, 265.338 L 973.149, 274.032 L 962.825, 288.703 L 953.951, 285.261 z "/>
<path style="fill:rgb(0, 0, 255);fill-opacity:0;fill-rule:evenodd;stroke:rgb(65, 255, 0);stroke-width:1;" d="M 941.453, 602.4 L 954.675, 584.288 L 963.912, 588.273 L 950.691, 606.384 L 949.423, 606.384 L 947.249, 606.203 L 945.076, 605.66 L 943.265, 604.573 L 942.54, 603.849 L 941.453, 602.4 z "/>
<path style="fill:rgb(255, 255, 0);fill-opacity:0;fill-rule:evenodd;stroke:rgb(65, 255, 0);stroke-width:1;" d="M 928.051, 415.123 L 934.571, 406.249 L 953.588, 414.218 L 948.698, 420.738 L 947.068, 423.093 L 928.051, 415.123 z "/>
<path style="fill:rgb(255, 0, 0);fill-opacity:0;fill-rule:evenodd;stroke:rgb(65, 255, 0);stroke-width:1;" d="M 972.606, 292.687 L 985.827, 273.67 L 986.552, 273.851 L 991.261, 275.843 L 988.182, 280.19 L 992.71, 282.001 L 982.567, 296.672 L 972.606, 292.687 z "/>
<path style="fill:rgb(0, 255, 0);fill-opacity:0;fill-rule:evenodd;stroke:rgb(65, 255, 0);stroke-width:1;" d="M 950.691, 606.384 L 963.912, 588.273 L 972.425, 591.714 L 959.565, 609.645 L 957.754, 610.007 L 955.943, 610.007 L 954.132, 609.645 L 952.502, 608.739 L 951.415, 607.652 L 950.691, 606.384 z "/>
<path style="fill:rgb(0, 0, 255);fill-opacity:0;fill-rule:evenodd;stroke:rgb(65, 255, 0);stroke-width:1;" d="M 1017.89, 298.664 L 1025.13, 288.159 L 1035.82, 292.506 L 1028.57, 302.83 L 1017.89, 298.664 z "/>
<path style="fill:rgb(255, 255, 0);fill-opacity:0;fill-rule:evenodd;stroke:rgb(65, 255, 0);stroke-width:1;" d="M 1011, 308.626 L 1017.89, 298.664 L 1028.57, 302.83 L 1021.69, 312.791 L 1011, 308.626 z "/>
<path style="fill:rgb(255, 0, 0);fill-opacity:0;fill-rule:evenodd;stroke:rgb(65, 255, 0);stroke-width:1;" d="M 867.557, 176.228 L 872.085, 170.07 L 879.33, 173.33 L 878.968, 173.874 L 874.983, 179.307 L 867.557, 176.228 z "/>
<path style="fill:rgb(0, 255, 0);fill-opacity:0;fill-rule:evenodd;stroke:rgb(65, 255, 0);stroke-width:1;" d="M 26.6244, 221.689 L 32.9635, 201.404 L 43.4684, 203.396 L 43.1062, 204.483 L 56.3278, 206.837 L 59.7691, 196.332 L 46.3663, 193.797 L 46.0041, 195.246 L 34.9559, 193.253 L 41.4761, 172.606 L 56.5089, 175.323 L 55.4222, 178.583 L 95.6305, 185.827 L 89.8347, 204.12 L 82.4089, 202.671 L 82.9522, 201.041 L 74.983, 199.592 L 72.0851, 209.192 L 79.8732, 210.641 L 80.4166, 208.648 L 87.8424, 210.097 L 82.2278, 228.39 L 43.1062, 221.327 L 42.2006, 224.587 L 26.6244, 221.689 z "/>
<path style="fill:rgb(0, 0, 255);fill-opacity:0;fill-rule:evenodd;stroke:rgb(65, 255, 0);stroke-width:1;" d="M 0, 306.452 L 6.52026, 285.986 L 17.9307, 288.159 L 17.5685, 289.246 L 30.0657, 291.601 L 33.3258, 281.096 L 20.8286, 278.922 L 20.4664, 280.009 L 9.05592, 277.836 L 15.2139, 257.913 L 30.2468, 260.629 L 29.3412, 263.527 L 69.5495, 270.772 L 63.9348, 288.703 L 56.1467, 287.435 L 56.8712, 285.443 L 49.2642, 283.994 L 46.1852, 294.136 L 53.611, 295.404 L 54.3355, 293.593 L 61.9425, 294.861 L 56.1467, 313.154 L 16.6629, 305.909 L 15.5762, 309.169 L 0, 306.452 z "/>
<path style="fill:rgb(255, 255, 0);fill-opacity:0;fill-rule:evenodd;stroke:rgb(65, 255, 0);stroke-width:1;" d="M 15.2139, 257.913 L 26.6244, 221.689 L 42.2006, 224.587 L 45.2796, 225.13 L 41.4761, 237.265 L 57.9579, 240.344 L 61.7614, 228.028 L 80.7788, 231.469 L 69.5495, 267.331 L 50.3509, 263.89 L 54.3355, 251.573 L 38.0349, 248.494 L 34.0503, 261.354 L 30.2468, 260.629 L 15.2139, 257.913 z "/>
<path style="fill:rgb(255, 0, 0);fill-opacity:0;fill-rule:evenodd;stroke:rgb(65, 255, 0);stroke-width:1;" d="M 30.9712, 427.258 L 33.1447, 420.376 L 48.902, 423.093 L 46.7285, 429.975 L 30.9712, 427.258 z "/>
<path style="fill:rgb(0, 255, 0);fill-opacity:0;fill-rule:evenodd;stroke:rgb(65, 255, 0);stroke-width:1;" d="M 419.108, 103.056 L 432.149, 73.8963 L 464.75, 82.2278 L 466.199, 79.1487 L 468.916, 79.6921 L 472.357, 72.0851 L 464.388, 70.0928 L 472.719, 51.4376 L 481.232, 53.7922 L 484.673, 46.1852 L 482.137, 45.4607 L 483.948, 41.6572 L 467.829, 37.4915 L 477.247, 16.4818 L 491.193, 20.1041 L 502.604, 23.002 L 499.706, 29.5223 L 513.108, 32.9635 L 516.006, 26.8055 L 528.322, 30.0657 L 522.527, 42.9251 L 526.149, 43.8307 L 519.448, 58.5012 L 512.927, 56.8712 L 512.384, 57.7768 L 504.053, 55.6034 L 500.792, 62.667 L 509.305, 64.8404 L 508.58, 66.2893 L 514.557, 67.9194 L 507.856, 82.9522 L 498.438, 80.5977 L 493.185, 92.1893 L 514.739, 97.8039 L 512.022, 103.781 L 520.534, 105.954 L 513.471, 133.122 L 472.9, 122.617 L 475.074, 117.908 L 473.987, 117.727 L 479.058, 106.317 L 467.467, 103.237 L 462.395, 114.648 L 450.079, 111.388 L 453.339, 104.143 L 439.574, 100.521 L 436.495, 107.403 L 419.108, 103.056 z "/>
<path style="fill:rgb(0, 0, 255);fill-opacity:0;fill-rule:evenodd;stroke:rgb(65, 255, 0);stroke-width:1;" d="M 571.429, 63.2103 L 579.76, 38.0349 L 602.762, 42.3817 L 601.856, 45.0985 L 606.566, 46.0041 L 609.282, 37.8537 L 607.109, 37.4915 L 607.833, 35.3181 L 610.007, 35.6803 L 612.724, 27.53 L 608.014, 26.6244 L 607.109, 29.5223 L 584.107, 25.1755 L 592.438, 0 L 621.055, 5.43355 L 620.331, 7.60697 L 645.325, 12.3161 L 646.049, 10.1426 L 672.493, 15.2139 L 664.342, 39.6649 L 647.317, 36.4048 L 647.679, 34.9559 L 636.993, 32.9635 L 631.379, 49.9887 L 642.246, 51.981 L 642.789, 50.532 L 659.633, 53.7922 L 651.483, 78.4243 L 625.221, 73.353 L 626.126, 71.1795 L 601.132, 66.4705 L 600.408, 68.6439 L 571.429, 63.2103 z "/>
<path style="fill:rgb(255, 255, 0);fill-opacity:0;fill-rule:evenodd;stroke:rgb(65, 255, 0);stroke-width:1;" d="M 912.837, 63.3914 L 928.051, 42.2006 L 934.933, 45.0985 L 940.186, 37.6726 L 920.263, 29.3412 L 935.295, 8.51257 L 987.639, 30.4279 L 972.425, 51.4376 L 953.226, 43.4684 L 950.872, 46.7285 L 953.951, 47.9964 L 951.415, 51.6187 L 953.588, 53.2488 L 966.81, 58.6824 L 951.777, 79.6921 L 912.837, 63.3914 z "/>
<path style="fill:rgb(255, 0, 0);fill-opacity:0;fill-rule:evenodd;stroke:rgb(65, 255, 0);stroke-width:1;" d="M 704.551, 82.9522 L 712.339, 59.4068 L 726.647, 62.1236 L 729.545, 53.2488 L 715.055, 50.532 L 724.474, 21.9153 L 736.79, 24.2699 L 735.703, 27.8922 L 769.753, 34.2314 L 761.784, 58.8635 L 757.981, 58.139 L 738.058, 54.3355 L 736.971, 57.5957 L 741.861, 58.5012 L 740.05, 64.1159 L 755.083, 67.0138 L 756.169, 67.1949 L 750.374, 85.1257 L 726.104, 80.5977 L 724.111, 86.7557 L 704.551, 82.9522 z "/>
</svg>