<?xml version="1.0" encoding="iso-8859-1" standalone="no"?>
<!DOCTYPE svg PUBLIC "-//W3C//DTD SVG 1.0//EN" "http://www.w3.org/TR/2001/REC-SVG-20010904/DTD/svg10.dtd">
<svg xmlns="http://www.w3.org/2000/svg" width="1004" height="800">
<path style="fill:rgb(255, 0, 0);fill-opacity:0;fill-rule:evenodd;stroke:rgb(0, 157, 255);stroke-width:1;" d="M 811.512, 456.873 L 834.364, 425.43 L 839.691, 427.663 L 843.814, 421.993 L 844.674, 422.337 L 878.351, 436.598 L 877.148, 438.144 L 881.615, 440.034 L 892.096, 425.773 L 944.502, 447.766 L 945.533, 446.392 L 956.186, 451.031 L 980.241, 461.168 L 979.21, 462.543 L 998.625, 470.79 L 987.113, 486.426 L 994.674, 489.519 L 995.533, 488.316 L 1004.12, 491.924 L 987.801, 514.089 L 989.347, 514.605 L 975.773, 533.162 L 974.399, 532.646 L 955.326, 558.591 L 926.804, 546.564 L 927.491, 545.533 L 929.381, 546.22 L 943.299, 527.32 L 916.495, 515.979 L 909.278, 525.945 L 917.354, 529.381 L 913.402, 534.88 L 876.632, 519.244 L 873.54, 523.711 L 862.371, 518.9 L 865.464, 514.605 L 836.77, 502.405 L 856.357, 475.945 L 851.031, 473.711 L 846.735, 479.553 L 812.715, 465.12 L 817.01, 459.107 L 811.512, 456.873 z "/>
<path style="fill:rgb(0, 255, 0);fill-opacity:0;fill-rule:evenodd;stroke:rgb(0, 157, 255);stroke-width:1;" d="M 592.268, 492.955 L 597.595, 487.285 L 609.278, 485.052 L 654.639, 504.296 L 660.997, 495.533 L 663.746, 496.735 L 663.746, 496.735 L 683.333, 505.155 L 689.863, 496.22 L 731.443, 497.079 L 806.701, 528.866 L 793.986, 546.048 L 779.038, 539.691 L 763.402, 540.034 L 746.735, 562.887 L 756.186, 566.838 L 740.206, 588.66 L 702.577, 572.68 L 696.048, 581.615 L 668.9, 570.103 L 674.914, 561.856 L 607.56, 533.333 L 592.268, 492.955 z "/>
<path style="fill:rgb(0, 0, 255);fill-opacity:0;fill-rule:evenodd;stroke:rgb(0, 157, 255);stroke-width:1;" d="M 486.77, 621.993 L 502.062, 601.031 L 517.526, 607.56 L 545.533, 619.416 L 553.78, 607.904 L 599.313, 626.976 L 608.076, 614.777 L 629.381, 623.711 L 639.175, 607.904 L 643.986, 601.375 L 673.196, 613.574 L 666.838, 622.165 L 704.124, 637.973 L 688.316, 659.794 L 677.835, 655.498 L 664.261, 674.055 L 669.072, 684.88 L 652.234, 708.247 L 593.299, 683.505 L 587.973, 660.481 L 572.165, 653.952 L 578.694, 645.189 L 560.653, 637.629 L 545.189, 658.763 L 517.354, 647.079 L 524.055, 637.629 L 486.77, 621.993 z "/>
<path style="fill:rgb(255, 255, 0);fill-opacity:0;fill-rule:evenodd;stroke:rgb(0, 157, 255);stroke-width:1;" d="M 710.997, 311.168 L 759.622, 243.814 L 761.34, 244.502 L 762.887, 242.268 L 761.168, 241.581 L 762.027, 240.722 L 763.746, 238.832 L 764.948, 238.144 L 765.979, 237.457 L 768.557, 236.254 L 771.306, 235.567 L 772.68, 235.223 L 775.601, 235.052 L 778.522, 235.223 L 781.443, 235.911 L 783.677, 236.942 L 783.162, 237.801 L 785.739, 238.832 L 786.426, 237.973 L 881.615, 277.835 L 880.584, 279.038 L 885.052, 280.928 L 885.567, 280.241 L 968.041, 314.777 L 966.838, 316.495 L 953.265, 335.223 L 951.546, 337.629 L 917.182, 323.368 L 914.777, 326.632 L 890.034, 316.151 L 892.44, 312.887 L 868.041, 302.749 L 869.588, 300.687 L 865.979, 299.141 L 863.402, 302.921 L 789.347, 271.993 L 786.598, 275.773 L 781.271, 273.54 L 744.158, 325.086 L 736.082, 321.649 L 734.364, 324.055 L 716.838, 316.667 L 718.557, 314.261 L 710.997, 311.168 z "/>
<path style="fill:rgb(255, 0, 0);fill-opacity:0;fill-rule:evenodd;stroke:rgb(0, 157, 255);stroke-width:1;" d="M 296.22, 367.869 L 326.46, 326.289 L 431.615, 370.447 L 430.241, 372.337 L 405.155, 406.873 L 401.375, 412.027 L 355.498, 392.784 L 296.22, 367.869 z "/>
<path style="fill:rgb(0, 255, 0);fill-opacity:0;fill-rule:evenodd;stroke:rgb(0, 157, 255);stroke-width:1;" d="M 791.753, 610.137 L 807.388, 588.488 L 855.498, 608.591 L 875.258, 581.271 L 891.581, 588.144 L 904.467, 570.275 L 933.162, 582.302 L 907.56, 617.526 L 897.938, 613.574 L 888.66, 626.289 L 897.423, 630.069 L 896.048, 632.818 L 898.969, 639.347 L 893.986, 645.704 L 861.34, 653.952 L 849.828, 649.141 L 857.216, 639.003 L 851.203, 636.426 L 845.189, 644.674 L 817.182, 632.99 L 824.055, 623.54 L 791.753, 610.137 z "/>
<path style="fill:rgb(0, 0, 255);fill-opacity:0;fill-rule:evenodd;stroke:rgb(0, 157, 255);stroke-width:1;" d="M 108.591, 624.399 L 138.66, 582.99 L 164.433, 593.814 L 219.588, 616.838 L 203.093, 639.519 L 195.017, 636.254 L 182.474, 653.436 L 165.464, 646.392 L 164.433, 647.766 L 108.591, 624.399 z "/>
<path style="fill:rgb(255, 255, 0);fill-opacity:0;fill-rule:evenodd;stroke:rgb(0, 157, 255);stroke-width:1;" d="M 630.584, 414.605 L 683.333, 342.268 L 725.945, 360.137 L 673.196, 432.646 L 630.584, 414.605 z "/>
<path style="fill:rgb(255, 0, 0);fill-opacity:0;fill-rule:evenodd;stroke:rgb(0, 157, 255);stroke-width:1;" d="M 82.9897, 191.409 L 113.574, 149.656 L 139.519, 160.653 L 145.189, 163.058 L 139.519, 170.79 L 136.254, 169.416 L 129.725, 178.179 L 127.491, 177.32 L 123.54, 182.646 L 143.814, 191.065 L 153.265, 178.007 L 150.859, 176.289 L 157.56, 167.354 L 185.567, 179.21 L 169.931, 200.687 L 175.43, 202.921 L 159.966, 224.055 L 82.9897, 191.409 z "/>
<path style="fill:rgb(0, 255, 0);fill-opacity:0;fill-rule:evenodd;stroke:rgb(0, 157, 255);stroke-width:1;" d="M 31.2715, 263.402 L 65.8076, 216.151 L 141.065, 247.938 L 130.928, 261.684 L 125.601, 259.45 L 108.591, 282.474 L 94.3299, 276.46 L 91.2371, 280.584 L 58.5911, 266.838 L 54.1237, 273.024 L 31.2715, 263.402 z M 73.1959, 255.498 L 92.4399, 263.574 L 102.577, 249.828 L 83.3333, 241.753 L 73.1959, 255.498 z "/>
<path style="fill:rgb(0, 0, 255);fill-opacity:0;fill-rule:evenodd;stroke:rgb(0, 157, 255);stroke-width:1;" d="M 113.574, 149.656 L 144.33, 107.56 L 220.962, 140.034 L 205.842, 160.825 L 200.859, 158.591 L 185.567, 179.21 L 157.56, 167.354 L 173.024, 146.048 L 155.67, 138.66 L 139.519, 160.653 L 113.574, 149.656 z "/>
<path style="fill:rgb(255, 255, 0);fill-opacity:0;fill-rule:evenodd;stroke:rgb(0, 157, 255);stroke-width:1;" d="M 685.911, 144.33 L 691.753, 136.426 L 693.127, 134.536 L 696.392, 129.897 L 719.416, 98.2818 L 734.708, 77.3196 L 735.739, 75.7732 L 742.955, 78.6942 L 730.241, 96.2199 L 748.797, 104.124 L 772.165, 113.918 L 735.223, 164.948 L 685.911, 144.33 z "/>
<path style="fill:rgb(255, 0, 0);fill-opacity:0;fill-rule:evenodd;stroke:rgb(0, 157, 255);stroke-width:1;" d="M 515.292, 600.344 L 516.323, 598.797 L 519.416, 597.938 L 522.68, 593.471 L 584.021, 579.381 L 591.065, 582.302 L 593.471, 581.787 L 628.351, 596.22 L 624.399, 601.718 L 639.175, 607.904 L 629.381, 623.711 L 608.076, 614.777 L 599.313, 626.976 L 553.78, 607.904 L 545.533, 619.416 L 517.526, 607.56 L 520.962, 602.749 L 515.292, 600.344 z "/>
<path style="fill:rgb(0, 255, 0);fill-opacity:0;fill-rule:evenodd;stroke:rgb(0, 157, 255);stroke-width:1;" d="M 417.01, 727.32 L 417.869, 726.117 L 417.698, 725.086 L 419.244, 723.024 L 421.134, 722.509 L 432.302, 707.216 L 431.787, 705.67 L 433.333, 703.436 L 435.223, 703.093 L 443.127, 692.268 L 442.612, 690.722 L 444.158, 688.66 L 446.22, 687.973 L 450, 682.818 L 449.656, 681.1 L 451.031, 679.038 L 452.921, 678.694 L 453.608, 677.835 L 463.23, 681.959 L 472.509, 669.416 L 484.021, 674.227 L 474.742, 686.77 L 500.515, 697.595 L 464.433, 747.251 L 462.027, 746.048 L 417.01, 727.32 z "/>
<path style="fill:rgb(0, 0, 255);fill-opacity:0;fill-rule:evenodd;stroke:rgb(0, 157, 255);stroke-width:1;" d="M 266.323, 409.107 L 296.22, 367.869 L 355.498, 392.784 L 350.172, 400 L 343.127, 409.794 L 334.708, 421.306 L 325.43, 434.021 L 266.323, 409.107 z "/>
<path style="fill:rgb(255, 255, 0);fill-opacity:0;fill-rule:evenodd;stroke:rgb(0, 157, 255);stroke-width:1;" d="M 138.66, 582.99 L 169.072, 541.237 L 200.344, 554.296 L 187.457, 571.993 L 197.595, 576.289 L 210.481, 558.591 L 241.753, 571.649 L 227.32, 591.581 L 221.993, 589.347 L 208.935, 607.216 L 187.801, 598.282 L 192.784, 591.409 L 191.237, 588.144 L 176.804, 582.131 L 172.337, 582.818 L 164.433, 593.814 L 138.66, 582.99 z "/>
<path style="fill:rgb(255, 0, 0);fill-opacity:0;fill-rule:evenodd;stroke:rgb(0, 157, 255);stroke-width:1;" d="M 441.409, 168.213 L 483.677, 110.137 L 524.57, 127.32 L 509.622, 147.766 L 491.924, 140.206 L 492.784, 139.003 L 489.003, 137.457 L 480.241, 149.485 L 485.052, 151.546 L 487.457, 148.11 L 499.656, 153.265 L 489.519, 167.354 L 517.526, 179.21 L 507.56, 192.784 L 488.832, 184.88 L 487.285, 187.113 L 476.289, 182.474 L 480.584, 176.46 L 465.12, 169.931 L 462.027, 170.275 L 458.419, 175.258 L 441.409, 168.213 z "/>
<path style="fill:rgb(0, 255, 0);fill-opacity:0;fill-rule:evenodd;stroke:rgb(0, 157, 255);stroke-width:1;" d="M 512.027, 165.12 L 523.54, 150 L 516.838, 147.079 L 530.069, 129.725 L 566.838, 145.704 L 563.918, 149.656 L 564.605, 150 L 558.591, 157.904 L 568.041, 162.027 L 574.227, 153.952 L 578.351, 155.842 L 581.615, 151.375 L 610.825, 164.089 L 602.405, 175.43 L 600.515, 177.835 L 595.361, 175.601 L 581.1, 194.502 L 553.952, 182.646 L 555.155, 181.1 L 543.643, 175.945 L 541.924, 178.179 L 512.027, 165.12 z "/>
<path style="fill:rgb(0, 0, 255);fill-opacity:0;fill-rule:evenodd;stroke:rgb(0, 157, 255);stroke-width:1;" d="M 590.55, 772.68 L 594.674, 767.01 L 614.433, 739.863 L 620.619, 731.443 L 670.962, 752.749 L 664.948, 760.825 L 667.698, 762.027 L 664.433, 766.495 L 661.684, 765.292 L 640.722, 793.986 L 590.55, 772.68 z "/>
<path style="fill:rgb(255, 255, 0);fill-opacity:0;fill-rule:evenodd;stroke:rgb(0, 157, 255);stroke-width:1;" d="M 840.893, 359.45 L 841.065, 358.419 L 856.357, 337.629 L 886.942, 350.687 L 884.536, 353.952 L 909.622, 364.605 L 907.388, 367.698 L 924.742, 374.914 L 923.196, 377.148 L 909.622, 395.704 L 908.247, 397.423 L 844.674, 370.447 L 848.969, 364.433 L 841.924, 361.34 L 841.237, 360.481 L 840.893, 359.966 L 840.893, 359.45 z "/>
<path style="fill:rgb(255, 0, 0);fill-opacity:0;fill-rule:evenodd;stroke:rgb(0, 157, 255);stroke-width:1;" d="M 273.711, 489.863 L 279.038, 482.302 L 282.302, 482.131 L 293.643, 465.979 L 291.924, 464.433 L 299.141, 454.296 L 354.124, 476.976 L 346.735, 487.457 L 343.814, 487.457 L 332.646, 503.093 L 333.333, 505.155 L 328.007, 512.543 L 327.148, 512.543 L 325.43, 512.199 L 324.055, 511.512 L 322.165, 509.966 L 319.416, 509.45 L 318.385, 509.107 L 315.636, 507.045 L 314.089, 506.357 L 313.23, 506.186 L 311.684, 506.186 L 310.137, 505.842 L 307.732, 503.952 L 307.045, 503.608 L 304.639, 503.093 L 303.952, 502.749 L 302.062, 501.375 L 301.203, 501.031 L 297.938, 500.687 L 295.533, 499.141 L 294.674, 498.797 L 291.753, 498.11 L 290.034, 497.251 L 289.003, 496.048 L 287.801, 495.189 L 286.254, 494.845 L 284.021, 494.674 L 283.333, 494.502 L 282.131, 493.814 L 281.959, 493.471 L 281.1, 492.784 L 280.412, 492.612 L 279.21, 492.44 L 277.663, 491.924 L 274.57, 490.55 L 273.711, 489.863 z M 307.216, 489.003 L 311.168, 490.722 L 320.619, 477.491 L 319.759, 474.914 L 316.667, 475.773 L 307.216, 489.003 z "/>
<path style="fill:rgb(0, 255, 0);fill-opacity:0;fill-rule:evenodd;stroke:rgb(0, 157, 255);stroke-width:1;" d="M 58.2474, 690.378 L 89.6907, 647.595 L 135.223, 667.01 L 133.505, 669.416 L 121.649, 685.395 L 112.371, 681.443 L 107.045, 688.66 L 112.199, 690.722 L 99.4845, 707.904 L 58.2474, 690.378 z "/>
<path style="fill:rgb(0, 0, 255);fill-opacity:0;fill-rule:evenodd;stroke:rgb(0, 157, 255);stroke-width:1;" d="M 51.5464, 535.395 L 74.2268, 504.124 L 78.3505, 502.749 L 128.351, 523.711 L 104.124, 557.216 L 103.608, 557.216 L 59.7938, 538.66 L 51.5464, 535.395 z "/>
<path style="fill:rgb(255, 255, 0);fill-opacity:0;fill-rule:evenodd;stroke:rgb(0, 157, 255);stroke-width:1;" d="M 357.216, 447.423 L 364.605, 437.285 L 365.636, 435.911 L 375.601, 440.206 L 383.333, 429.553 L 373.196, 425.43 L 381.959, 413.402 L 382.646, 412.543 L 437.457, 435.395 L 430.069, 445.533 L 427.491, 449.141 L 418.385, 445.361 L 414.777, 447.423 L 410.997, 445.876 L 407.216, 451.031 L 412.371, 453.265 L 413.23, 455.67 L 420.447, 458.763 L 413.918, 467.698 L 412.027, 470.447 L 357.216, 447.423 z "/>
<path style="fill:rgb(255, 0, 0);fill-opacity:0;fill-rule:evenodd;stroke:rgb(0, 157, 255);stroke-width:1;" d="M 344.33, 301.031 L 371.649, 263.918 L 397.938, 275.086 L 395.876, 278.007 L 420.275, 288.488 L 415.808, 294.33 L 414.089, 296.907 L 408.935, 294.674 L 404.124, 295.017 L 393.814, 290.722 L 387.801, 298.797 L 397.251, 302.921 L 395.533, 305.155 L 404.811, 309.278 L 398.282, 318.041 L 395.017, 322.68 L 344.33, 301.031 z "/>
<path style="fill:rgb(0, 255, 0);fill-opacity:0;fill-rule:evenodd;stroke:rgb(0, 157, 255);stroke-width:1;" d="M 591.753, 477.663 L 607.388, 456.357 L 644.674, 472.165 L 651.031, 463.402 L 679.381, 475.43 L 663.746, 496.735 L 660.997, 495.533 L 654.639, 504.296 L 609.278, 485.052 L 591.753, 477.663 z "/>
<path style="fill:rgb(0, 0, 255);fill-opacity:0;fill-rule:evenodd;stroke:rgb(0, 157, 255);stroke-width:1;" d="M 163.746, 724.914 L 170.79, 715.292 L 177.32, 718.213 L 182.99, 710.481 L 172.68, 706.014 L 183.849, 690.893 L 185.223, 689.003 L 206.529, 698.11 L 207.388, 700.687 L 206.357, 702.234 L 213.402, 705.326 L 215.808, 702.062 L 239.347, 712.199 L 227.148, 728.694 L 218.9, 725.258 L 213.058, 733.162 L 217.698, 735.052 L 210.481, 744.674 L 163.746, 724.914 z "/>
<path style="fill:rgb(255, 255, 0);fill-opacity:0;fill-rule:evenodd;stroke:rgb(0, 157, 255);stroke-width:1;" d="M 166.667, 225.773 L 175.43, 213.918 L 178.179, 214.948 L 180.069, 213.918 L 195.876, 192.612 L 214.089, 200.344 L 208.591, 207.904 L 217.01, 211.512 L 222.509, 203.952 L 240.893, 211.684 L 225.601, 232.474 L 225.43, 234.708 L 228.522, 235.911 L 220.447, 246.735 L 219.416, 248.11 L 197.423, 238.832 L 205.155, 228.351 L 196.22, 224.57 L 188.488, 235.052 L 166.667, 225.773 z "/>
<path style="fill:rgb(255, 0, 0);fill-opacity:0;fill-rule:evenodd;stroke:rgb(0, 157, 255);stroke-width:1;" d="M 282.131, 697.595 L 296.735, 677.491 L 302.405, 679.897 L 304.296, 677.32 L 314.948, 681.787 L 319.931, 674.914 L 329.381, 679.038 L 357.732, 690.893 L 336.254, 720.275 L 282.131, 697.595 z "/>
<path style="fill:rgb(0, 255, 0);fill-opacity:0;fill-rule:evenodd;stroke:rgb(0, 157, 255);stroke-width:1;" d="M 423.196, 192.955 L 441.409, 168.213 L 458.419, 175.258 L 462.887, 177.148 L 456.357, 186.254 L 462.715, 188.832 L 461.34, 190.55 L 477.32, 197.251 L 479.553, 194.33 L 477.148, 193.299 L 482.818, 185.567 L 488.316, 187.973 L 488.832, 187.285 L 503.608, 193.471 L 500.172, 198.282 L 503.265, 199.656 L 497.938, 206.873 L 502.749, 208.935 L 492.955, 222.337 L 423.196, 192.955 z "/>
<path style="fill:rgb(0, 0, 255);fill-opacity:0;fill-rule:evenodd;stroke:rgb(0, 157, 255);stroke-width:1;" d="M 547.766, 245.704 L 556.186, 234.192 L 566.838, 238.66 L 574.57, 228.179 L 563.918, 223.711 L 567.698, 218.557 L 572.337, 212.199 L 621.134, 232.99 L 612.715, 244.502 L 599.313, 238.66 L 591.753, 248.969 L 605.326, 254.811 L 596.735, 266.495 L 547.766, 245.704 z "/>
<path style="fill:rgb(255, 255, 0);fill-opacity:0;fill-rule:evenodd;stroke:rgb(0, 157, 255);stroke-width:1;" d="M 240.893, 680.241 L 257.388, 657.56 L 266.838, 644.502 L 292.612, 655.326 L 288.144, 661.684 L 303.608, 668.041 L 296.735, 677.491 L 282.131, 697.595 L 240.893, 680.241 z "/>
<path style="fill:rgb(255, 0, 0);fill-opacity:0;fill-rule:evenodd;stroke:rgb(0, 157, 255);stroke-width:1;" d="M 439.863, 482.131 L 460.653, 453.436 L 469.588, 441.065 L 482.818, 446.564 L 468.041, 467.01 L 476.117, 470.447 L 507.904, 483.849 L 492.955, 504.467 L 439.863, 482.131 z "/>
<path style="fill:rgb(0, 255, 0);fill-opacity:0;fill-rule:evenodd;stroke:rgb(0, 157, 255);stroke-width:1;" d="M 124.227, 771.993 L 133.849, 758.763 L 144.674, 763.23 L 151.031, 754.811 L 140.206, 750.172 L 145.361, 743.127 L 149.656, 737.285 L 193.471, 755.842 L 185.052, 767.182 L 176.289, 763.574 L 172.68, 768.385 L 168.557, 774.055 L 177.32, 777.835 L 167.869, 790.55 L 124.227, 771.993 z "/>
<path style="fill:rgb(0, 0, 255);fill-opacity:0;fill-rule:evenodd;stroke:rgb(0, 157, 255);stroke-width:1;" d="M 412.199, 554.124 L 439.691, 515.636 L 475.258, 530.412 L 446.048, 571.306 L 444.33, 570.619 L 439.691, 568.729 L 442.612, 564.605 L 442.784, 564.089 L 442.44, 562.887 L 441.924, 562.027 L 441.237, 561.684 L 440.722, 561.34 L 425.945, 555.326 L 424.399, 555.155 L 423.711, 555.326 L 422.165, 555.67 L 421.649, 556.014 L 420.447, 557.56 L 412.199, 554.124 z "/>
<path style="fill:rgb(255, 255, 0);fill-opacity:0;fill-rule:evenodd;stroke:rgb(0, 157, 255);stroke-width:1;" d="M 385.052, 245.189 L 405.326, 217.869 L 423.54, 225.601 L 415.979, 235.911 L 425.601, 240.034 L 433.162, 229.725 L 447.251, 235.739 L 439.519, 246.22 L 444.158, 248.282 L 426.632, 271.993 L 417.698, 268.213 L 424.914, 258.591 L 414.948, 254.296 L 413.746, 256.014 L 412.887, 255.67 L 410.481, 258.935 L 386.598, 248.797 L 385.052, 245.189 z "/>
<path style="fill:rgb(255, 0, 0);fill-opacity:0;fill-rule:evenodd;stroke:rgb(0, 157, 255);stroke-width:1;" d="M 210.825, 526.804 L 211.168, 526.289 L 218.041, 516.838 L 220.275, 513.574 L 230.928, 518.041 L 237.629, 508.763 L 227.491, 504.811 L 227.663, 504.639 L 236.598, 492.096 L 277.148, 508.763 L 269.244, 519.931 L 258.591, 515.464 L 256.701, 518.041 L 252.921, 516.495 L 250.687, 519.416 L 254.639, 521.134 L 252.062, 524.57 L 262.887, 528.866 L 252.577, 543.299 L 252.234, 543.814 L 236.598, 537.457 L 237.629, 535.911 L 225.601, 530.756 L 224.399, 532.302 L 210.825, 526.804 z "/>
<path style="fill:rgb(0, 255, 0);fill-opacity:0;fill-rule:evenodd;stroke:rgb(0, 157, 255);stroke-width:1;" d="M 585.223, 199.485 L 593.643, 188.316 L 601.203, 191.581 L 610.825, 179.038 L 602.405, 175.43 L 610.825, 164.089 L 611.512, 163.402 L 652.749, 181.443 L 644.33, 192.44 L 629.897, 186.082 L 619.244, 200 L 633.849, 206.357 L 625.601, 217.01 L 585.223, 199.485 z "/>
<path style="fill:rgb(0, 0, 255);fill-opacity:0;fill-rule:evenodd;stroke:rgb(0, 157, 255);stroke-width:1;" d="M 432.646, 418.041 L 441.065, 406.529 L 449.313, 409.966 L 458.935, 396.735 L 450.859, 393.299 L 458.935, 381.959 L 499.828, 399.141 L 493.127, 408.247 L 491.924, 410.137 L 478.866, 404.639 L 476.976, 404.983 L 467.869, 417.354 L 468.9, 418.729 L 481.615, 424.227 L 479.897, 426.632 L 473.54, 435.223 L 432.646, 418.041 z "/>
<path style="fill:rgb(255, 255, 0);fill-opacity:0;fill-rule:evenodd;stroke:rgb(0, 157, 255);stroke-width:1;" d="M 477.32, 779.038 L 484.364, 769.588 L 489.175, 763.058 L 499.141, 749.656 L 536.082, 765.464 L 534.536, 767.354 L 538.316, 769.072 L 529.21, 781.443 L 527.32, 780.584 L 524.055, 784.88 L 525.945, 785.739 L 517.869, 796.392 L 477.32, 779.038 z M 511.168, 779.038 L 511.512, 780.928 L 513.746, 780.241 L 516.838, 776.117 L 516.151, 774.742 L 514.261, 775.086 L 511.168, 779.038 z M 497.251, 773.54 L 498.11, 775.43 L 500.344, 774.914 L 503.093, 771.134 L 502.749, 769.072 L 500, 769.416 L 497.251, 773.54 z "/>
<path style="fill:rgb(255, 0, 0);fill-opacity:0;fill-rule:evenodd;stroke:rgb(0, 157, 255);stroke-width:1;" d="M 909.622, 395.704 L 923.196, 377.148 L 982.131, 402.062 L 968.385, 420.79 L 909.622, 395.704 z "/>
<path style="fill:rgb(0, 255, 0);fill-opacity:0;fill-rule:evenodd;stroke:rgb(0, 157, 255);stroke-width:1;" d="M 545.361, 371.821 L 568.213, 340.893 L 583.333, 347.251 L 581.443, 349.656 L 585.739, 351.546 L 587.457, 349.141 L 591.065, 350.687 L 602.577, 355.498 L 579.725, 386.426 L 545.361, 371.821 z "/>
<path style="fill:rgb(0, 0, 255);fill-opacity:0;fill-rule:evenodd;stroke:rgb(0, 157, 255);stroke-width:1;" d="M 147.079, 427.148 L 167.01, 399.828 L 204.467, 415.636 L 184.364, 442.955 L 147.079, 427.148 z "/>
<path style="fill:rgb(255, 255, 0);fill-opacity:0;fill-rule:evenodd;stroke:rgb(0, 157, 255);stroke-width:1;" d="M 200.859, 178.007 L 208.763, 167.182 L 217.01, 170.79 L 227.148, 157.045 L 218.9, 153.436 L 226.976, 142.612 L 262.027, 157.56 L 259.622, 160.997 L 252.921, 169.931 L 250.344, 168.9 L 251.546, 167.354 L 245.876, 164.948 L 235.567, 178.694 L 243.986, 182.131 L 236.082, 192.784 L 200.859, 178.007 z "/>
<path style="fill:rgb(255, 0, 0);fill-opacity:0;fill-rule:evenodd;stroke:rgb(0, 157, 255);stroke-width:1;" d="M 881.959, 245.017 L 903.265, 216.151 L 908.935, 208.247 L 936.426, 219.759 L 909.45, 256.529 L 881.959, 245.017 z "/>
<path style="fill:rgb(0, 255, 0);fill-opacity:0;fill-rule:evenodd;stroke:rgb(0, 157, 255);stroke-width:1;" d="M 335.739, 638.832 L 343.127, 628.866 L 337.113, 626.289 L 344.674, 615.636 L 396.564, 637.285 L 381.443, 658.076 L 353.265, 646.22 L 335.739, 638.832 z "/>
<path style="fill:rgb(0, 0, 255);fill-opacity:0;fill-rule:evenodd;stroke:rgb(0, 157, 255);stroke-width:1;" d="M 316.495, 213.23 L 333.505, 190.034 L 334.88, 188.316 L 364.777, 201.031 L 334.708, 242.096 L 320.619, 236.082 L 332.474, 219.931 L 316.495, 213.23 z "/>
<path style="fill:rgb(255, 255, 0);fill-opacity:0;fill-rule:evenodd;stroke:rgb(0, 157, 255);stroke-width:1;" d="M 648.282, 788.832 L 664.433, 766.495 L 667.698, 762.027 L 673.883, 753.608 L 700.515, 764.777 L 691.924, 776.632 L 690.893, 778.007 L 685.223, 785.567 L 682.302, 789.863 L 674.742, 800 L 648.282, 788.832 z "/>
<path style="fill:rgb(255, 0, 0);fill-opacity:0;fill-rule:evenodd;stroke:rgb(0, 157, 255);stroke-width:1;" d="M 252.577, 543.299 L 262.887, 528.866 L 263.058, 528.694 L 281.271, 536.254 L 295.533, 516.323 L 312.715, 523.368 L 299.656, 541.753 L 304.639, 543.814 L 293.127, 559.966 L 252.577, 543.299 z "/>
<path style="fill:rgb(0, 255, 0);fill-opacity:0;fill-rule:evenodd;stroke:rgb(0, 157, 255);stroke-width:1;" d="M 327.835, 152.921 L 337.457, 140.206 L 345.361, 143.643 L 355.67, 129.725 L 347.766, 126.289 L 353.952, 117.869 L 386.254, 131.787 L 377.148, 144.158 L 369.931, 140.893 L 359.107, 155.498 L 366.495, 158.591 L 360.309, 166.838 L 327.835, 152.921 z "/>
<path style="fill:rgb(0, 0, 255);fill-opacity:0;fill-rule:evenodd;stroke:rgb(0, 157, 255);stroke-width:1;" d="M 325.43, 434.021 L 334.708, 421.306 L 342.612, 424.57 L 351.031, 413.058 L 343.127, 409.794 L 350.172, 400 L 381.959, 413.402 L 373.196, 425.43 L 366.151, 422.337 L 357.388, 434.192 L 364.605, 437.285 L 357.216, 447.423 L 325.43, 434.021 z "/>
<path style="fill:rgb(255, 255, 0);fill-opacity:0;fill-rule:evenodd;stroke:rgb(0, 157, 255);stroke-width:1;" d="M 281.787, 211.34 L 288.488, 202.062 L 303.093, 182.131 L 305.842, 178.351 L 333.505, 190.034 L 316.495, 213.23 L 313.402, 217.354 L 310.137, 217.869 L 305.326, 224.57 L 292.784, 219.416 L 297.766, 212.715 L 296.735, 210.309 L 292.268, 208.419 L 288.144, 213.918 L 281.787, 211.34 z "/>
<path style="fill:rgb(255, 0, 0);fill-opacity:0;fill-rule:evenodd;stroke:rgb(0, 157, 255);stroke-width:1;" d="M 909.45, 256.529 L 936.426, 219.759 L 959.794, 229.897 L 946.907, 247.595 L 942.955, 252.749 L 938.66, 258.591 L 932.99, 266.495 L 909.45, 256.529 z "/>
<path style="fill:rgb(0, 255, 0);fill-opacity:0;fill-rule:evenodd;stroke:rgb(0, 157, 255);stroke-width:1;" d="M 935.223, 197.079 L 941.924, 187.801 L 955.326, 168.9 L 984.88, 181.1 L 964.777, 209.278 L 935.223, 197.079 z "/>
<path style="fill:rgb(0, 0, 255);fill-opacity:0;fill-rule:evenodd;stroke:rgb(0, 157, 255);stroke-width:1;" d="M 876.976, 766.495 L 891.924, 746.22 L 905.326, 751.89 L 908.591, 753.265 L 923.54, 759.622 L 921.821, 762.027 L 925.086, 763.402 L 921.306, 768.557 L 918.213, 767.182 L 916.151, 769.759 L 922.165, 772.337 L 920.275, 774.914 L 924.742, 774.055 L 931.443, 776.804 L 924.742, 786.082 L 918.041, 783.162 L 919.416, 781.271 L 916.495, 780.069 L 914.605, 782.474 L 909.622, 780.241 L 897.766, 775.258 L 898.625, 774.055 L 892.955, 771.649 L 892.096, 772.852 L 876.976, 766.495 z "/>
<path style="fill:rgb(255, 255, 0);fill-opacity:0;fill-rule:evenodd;stroke:rgb(0, 157, 255);stroke-width:1;" d="M 245.704, 480.241 L 252.749, 470.275 L 255.326, 471.306 L 255.842, 472.852 L 258.935, 474.055 L 266.323, 463.746 L 267.182, 461.856 L 270.275, 457.56 L 264.605, 455.155 L 272.852, 443.471 L 299.141, 454.296 L 291.924, 464.433 L 290.893, 465.979 L 284.88, 463.402 L 281.443, 468.213 L 278.694, 470.275 L 272.68, 478.522 L 279.725, 481.443 L 279.038, 482.302 L 273.711, 489.863 L 272.68, 491.409 L 245.704, 480.241 z "/>
<path style="fill:rgb(255, 0, 0);fill-opacity:0;fill-rule:evenodd;stroke:rgb(0, 157, 255);stroke-width:1;" d="M 97.5945, 760.653 L 118.9, 731.787 L 145.361, 743.127 L 140.206, 750.172 L 133.849, 758.763 L 124.227, 771.993 L 97.5945, 760.653 z "/>
<path style="fill:rgb(0, 255, 0);fill-opacity:0;fill-rule:evenodd;stroke:rgb(0, 157, 255);stroke-width:1;" d="M 301.546, 141.581 L 310.481, 129.381 L 313.402, 130.756 L 316.495, 128.007 L 331.1, 108.247 L 349.656, 116.151 L 334.536, 136.598 L 334.192, 138.832 L 337.457, 140.206 L 327.835, 152.921 L 301.546, 141.581 z "/>
<path style="fill:rgb(0, 0, 255);fill-opacity:0;fill-rule:evenodd;stroke:rgb(0, 157, 255);stroke-width:1;" d="M 528.694, 311.684 L 535.911, 300.859 L 544.845, 288.66 L 550.344, 291.065 L 554.811, 284.88 L 575.945, 293.986 L 559.45, 316.323 L 555.67, 321.478 L 552.577, 320.103 L 551.546, 321.306 L 528.694, 311.684 z "/>
<path style="fill:rgb(255, 255, 0);fill-opacity:0;fill-rule:evenodd;stroke:rgb(0, 157, 255);stroke-width:1;" d="M 167.869, 790.55 L 177.32, 777.835 L 177.835, 777.148 L 180.756, 778.351 L 200.515, 751.546 L 215.292, 757.904 L 216.323, 756.701 L 222.509, 759.278 L 220.447, 762.199 L 217.698, 763.23 L 212.887, 761.168 L 198.282, 780.928 L 201.718, 782.474 L 189.175, 799.485 L 167.869, 790.55 z "/>
<path style="fill:rgb(255, 0, 0);fill-opacity:0;fill-rule:evenodd;stroke:rgb(0, 157, 255);stroke-width:1;" d="M 413.918, 467.698 L 420.447, 458.763 L 427.491, 449.141 L 430.069, 445.533 L 437.801, 448.797 L 437.285, 449.656 L 443.127, 452.062 L 446.564, 447.423 L 460.653, 453.436 L 439.863, 482.131 L 419.244, 473.368 L 421.134, 470.79 L 413.918, 467.698 z "/>
<path style="fill:rgb(0, 255, 0);fill-opacity:0;fill-rule:evenodd;stroke:rgb(0, 157, 255);stroke-width:1;" d="M 189.175, 659.966 L 195.533, 651.203 L 199.485, 652.921 L 201.546, 650 L 200.515, 649.656 L 219.416, 623.711 L 236.942, 631.1 L 218.213, 657.045 L 217.01, 656.529 L 214.948, 659.45 L 219.416, 661.34 L 213.058, 669.931 L 189.175, 659.966 z "/>
<path style="fill:rgb(0, 0, 255);fill-opacity:0;fill-rule:evenodd;stroke:rgb(0, 157, 255);stroke-width:1;" d="M 878.866, 177.148 L 896.907, 151.718 L 923.883, 162.887 L 914.261, 176.46 L 905.842, 188.316 L 878.866, 177.148 z "/>
<path style="fill:rgb(255, 255, 0);fill-opacity:0;fill-rule:evenodd;stroke:rgb(0, 157, 255);stroke-width:1;" d="M 112.199, 425.43 L 129.897, 401.375 L 126.976, 400 L 136.598, 386.942 L 158.763, 396.22 L 149.141, 409.45 L 145.533, 407.904 L 127.835, 431.959 L 112.199, 425.43 z "/>
<path style="fill:rgb(255, 0, 0);fill-opacity:0;fill-rule:evenodd;stroke:rgb(0, 157, 255);stroke-width:1;" d="M 360.309, 166.838 L 366.495, 158.591 L 367.698, 156.873 L 369.588, 157.732 L 384.708, 137.629 L 405.155, 146.392 L 382.818, 176.46 L 360.309, 166.838 z "/>
<path style="fill:rgb(0, 255, 0);fill-opacity:0;fill-rule:evenodd;stroke:rgb(0, 157, 255);stroke-width:1;" d="M 421.134, 333.162 L 426.632, 325.601 L 431.959, 328.007 L 434.536, 324.399 L 433.162, 323.883 L 451.546, 298.969 L 467.354, 305.67 L 448.969, 330.584 L 447.595, 330.069 L 445.017, 333.505 L 450, 335.567 L 444.33, 343.127 L 421.134, 333.162 z "/>
<path style="fill:rgb(0, 0, 255);fill-opacity:0;fill-rule:evenodd;stroke:rgb(0, 157, 255);stroke-width:1;" d="M 444.33, 343.127 L 450, 335.567 L 455.155, 337.801 L 457.904, 334.192 L 456.529, 333.677 L 474.914, 308.763 L 490.55, 315.464 L 472.165, 340.378 L 470.619, 339.519 L 467.869, 343.299 L 473.368, 345.533 L 467.869, 353.093 L 444.33, 343.127 z "/>
<path style="fill:rgb(255, 255, 0);fill-opacity:0;fill-rule:evenodd;stroke:rgb(0, 157, 255);stroke-width:1;" d="M 82.646, 401.718 L 91.0653, 390.206 L 93.299, 389.863 L 96.0481, 386.082 L 95.3608, 384.364 L 103.608, 373.024 L 125.43, 382.131 L 117.01, 393.471 L 115.292, 393.471 L 112.199, 397.766 L 113.058, 398.969 L 104.296, 410.997 L 82.646, 401.718 z "/>
<path style="fill:rgb(255, 0, 0);fill-opacity:0;fill-rule:evenodd;stroke:rgb(0, 157, 255);stroke-width:1;" d="M 467.869, 353.093 L 473.368, 345.533 L 478.179, 347.595 L 480.756, 344.158 L 479.381, 343.643 L 497.938, 318.557 L 513.402, 325.086 L 494.845, 350.172 L 493.471, 349.656 L 490.893, 353.093 L 496.048, 355.155 L 490.378, 362.715 L 467.869, 353.093 z "/>
<path style="fill:rgb(0, 255, 0);fill-opacity:0;fill-rule:evenodd;stroke:rgb(0, 157, 255);stroke-width:1;" d="M 130.241, 492.268 L 135.567, 484.88 L 137.801, 484.536 L 161.856, 451.546 L 176.289, 457.56 L 146.048, 498.969 L 130.241, 492.268 z "/>
<path style="fill:rgb(0, 0, 255);fill-opacity:0;fill-rule:evenodd;stroke:rgb(0, 157, 255);stroke-width:1;" d="M 391.065, 743.299 L 398.797, 732.646 L 454.811, 756.014 L 446.907, 766.838 L 391.065, 743.299 z "/>
<path style="fill:rgb(255, 255, 0);fill-opacity:0;fill-rule:evenodd;stroke:rgb(0, 157, 255);stroke-width:1;" d="M 229.553, 324.57 L 234.708, 317.526 L 253.952, 325.773 L 262.199, 314.433 L 261.684, 311.684 L 267.698, 303.608 L 266.838, 303.265 L 267.698, 302.062 L 268.041, 301.546 L 282.99, 307.904 L 283.849, 308.763 L 284.192, 309.966 L 283.849, 310.997 L 264.777, 337.113 L 264.261, 337.457 L 263.746, 337.801 L 262.543, 337.973 L 261.168, 337.973 L 260.481, 337.801 L 229.553, 324.57 z "/>
<path style="fill:rgb(255, 0, 0);fill-opacity:0;fill-rule:evenodd;stroke:rgb(0, 157, 255);stroke-width:1;" d="M 395.189, 90.5498 L 406.186, 75.6014 L 445.704, 92.6117 L 434.708, 107.56 L 433.162, 106.873 L 400.687, 92.9553 L 395.189, 90.5498 z "/>
<path style="fill:rgb(0, 255, 0);fill-opacity:0;fill-rule:evenodd;stroke:rgb(0, 157, 255);stroke-width:1;" d="M 226.289, 759.966 L 243.814, 754.639 L 263.058, 762.887 L 263.402, 762.371 L 296.564, 776.46 L 289.003, 786.77 L 234.021, 763.402 L 226.289, 759.966 z "/>
<path style="fill:rgb(0, 0, 255);fill-opacity:0;fill-rule:evenodd;stroke:rgb(0, 157, 255);stroke-width:1;" d="M 258.419, 733.505 L 266.838, 722.165 L 319.931, 744.674 L 311.512, 756.186 L 299.141, 750.859 L 298.625, 748.282 L 294.674, 746.564 L 291.581, 747.766 L 286.426, 745.533 L 287.629, 743.643 L 283.333, 741.753 L 281.959, 743.643 L 276.632, 741.237 L 276.289, 738.832 L 272.852, 737.285 L 269.588, 738.316 L 258.419, 733.505 z "/>
<path style="fill:rgb(255, 255, 0);fill-opacity:0;fill-rule:evenodd;stroke:rgb(0, 157, 255);stroke-width:1;" d="M 226.289, 773.711 L 234.021, 763.402 L 289.003, 786.77 L 281.271, 797.251 L 231.615, 776.117 L 226.289, 773.711 z "/>
<path style="fill:rgb(255, 0, 0);fill-opacity:0;fill-rule:evenodd;stroke:rgb(0, 157, 255);stroke-width:1;" d="M 218.213, 473.196 L 236.426, 447.766 L 251.203, 453.952 L 259.45, 457.216 L 251.546, 468.385 L 242.784, 464.605 L 241.065, 466.838 L 250, 470.619 L 241.237, 482.818 L 218.213, 473.196 z "/>
<path style="fill:rgb(0, 255, 0);fill-opacity:0;fill-rule:evenodd;stroke:rgb(0, 157, 255);stroke-width:1;" d="M 953.265, 335.223 L 966.838, 316.495 L 996.735, 329.038 L 983.162, 347.766 L 953.265, 335.223 z "/>
<path style="fill:rgb(0, 0, 255);fill-opacity:0;fill-rule:evenodd;stroke:rgb(0, 157, 255);stroke-width:1;" d="M 498.797, 224.742 L 518.9, 197.423 L 521.134, 198.282 L 528.007, 188.832 L 539.691, 193.643 L 532.646, 203.265 L 535.223, 204.296 L 515.12, 231.787 L 498.797, 224.742 z "/>
<path style="fill:rgb(255, 255, 0);fill-opacity:0;fill-rule:evenodd;stroke:rgb(0, 157, 255);stroke-width:1;" d="M 531.271, 238.66 L 551.546, 211.34 L 553.952, 212.371 L 560.997, 202.577 L 572.165, 207.388 L 564.948, 217.354 L 567.698, 218.557 L 563.918, 223.711 L 556.186, 234.192 L 547.766, 245.704 L 531.271, 238.66 z "/>
<path style="fill:rgb(255, 0, 0);fill-opacity:0;fill-rule:evenodd;stroke:rgb(0, 157, 255);stroke-width:1;" d="M 634.536, 214.605 L 642.096, 204.639 L 656.873, 211.168 L 695.704, 228.179 L 697.079, 228.866 L 689.691, 238.66 L 649.828, 221.306 L 634.536, 214.605 z "/>
<path style="fill:rgb(0, 255, 0);fill-opacity:0;fill-rule:evenodd;stroke:rgb(0, 157, 255);stroke-width:1;" d="M 383.677, 539.175 L 398.282, 518.9 L 400.172, 517.354 L 404.296, 511.512 L 403.265, 509.622 L 408.763, 502.062 L 409.622, 500.687 L 427.663, 508.076 L 426.632, 509.622 L 421.306, 517.182 L 417.526, 517.182 L 413.23, 523.196 L 413.058, 524.914 L 411.34, 527.148 L 409.278, 528.179 L 397.423, 544.845 L 383.677, 539.175 z "/>
<path style="fill:rgb(0, 0, 255);fill-opacity:0;fill-rule:evenodd;stroke:rgb(0, 157, 255);stroke-width:1;" d="M 515.12, 231.787 L 535.223, 204.296 L 537.457, 205.326 L 544.502, 195.704 L 556.014, 200.687 L 548.969, 210.309 L 551.546, 211.34 L 531.271, 238.66 L 515.12, 231.787 z "/>
<path style="fill:rgb(255, 255, 0);fill-opacity:0;fill-rule:evenodd;stroke:rgb(0, 157, 255);stroke-width:1;" d="M 329.553, 515.464 L 342.955, 496.564 L 341.581, 494.674 L 343.643, 491.753 L 347.079, 491.924 L 349.141, 489.175 L 346.392, 487.973 L 346.735, 487.457 L 354.124, 476.976 L 371.993, 484.364 L 370.962, 485.911 L 364.433, 495.017 L 361.684, 493.814 L 359.107, 497.423 L 360.997, 500 L 359.107, 502.577 L 355.842, 502.749 L 342.784, 520.962 L 329.553, 515.464 z "/>
<path style="fill:rgb(255, 0, 0);fill-opacity:0;fill-rule:evenodd;stroke:rgb(0, 157, 255);stroke-width:1;" d="M 398.797, 732.646 L 406.014, 722.68 L 417.01, 727.32 L 462.027, 746.048 L 454.811, 756.014 L 398.797, 732.646 z "/>
<path style="fill:rgb(0, 255, 0);fill-opacity:0;fill-rule:evenodd;stroke:rgb(0, 157, 255);stroke-width:1;" d="M 519.072, 374.399 L 526.804, 363.918 L 545.361, 371.821 L 579.725, 386.426 L 571.993, 396.907 L 519.072, 374.399 z "/>
<path style="fill:rgb(0, 0, 255);fill-opacity:0;fill-rule:evenodd;stroke:rgb(0, 157, 255);stroke-width:1;" d="M 84.5361, 754.983 L 114.777, 713.918 L 120.447, 716.323 L 128.007, 719.416 L 118.9, 731.787 L 97.5945, 760.653 L 84.5361, 754.983 z "/>
<path style="fill:rgb(255, 255, 0);fill-opacity:0;fill-rule:evenodd;stroke:rgb(0, 157, 255);stroke-width:1;" d="M 836.942, 131.787 L 844.502, 121.306 L 875.601, 134.364 L 873.883, 136.77 L 879.381, 139.175 L 881.1, 136.77 L 898.11, 143.986 L 890.378, 154.467 L 873.368, 147.423 L 875.43, 144.502 L 869.931, 142.268 L 867.869, 145.017 L 836.942, 131.787 z "/>
<path style="fill:rgb(255, 0, 0);fill-opacity:0;fill-rule:evenodd;stroke:rgb(0, 157, 255);stroke-width:1;" d="M 783.677, 204.124 L 791.409, 193.643 L 802.062, 198.11 L 803.093, 200.515 L 831.1, 212.371 L 833.677, 211.34 L 844.674, 215.979 L 836.942, 226.632 L 783.677, 204.124 z "/>
<path style="fill:rgb(0, 255, 0);fill-opacity:0;fill-rule:evenodd;stroke:rgb(0, 157, 255);stroke-width:1;" d="M 291.753, 275.945 L 319.244, 238.488 L 332.99, 244.33 L 305.498, 281.787 L 291.753, 275.945 z "/>
<path style="fill:rgb(0, 0, 255);fill-opacity:0;fill-rule:evenodd;stroke:rgb(0, 157, 255);stroke-width:1;" d="M 356.014, 524.914 L 361.512, 517.182 L 380.928, 490.034 L 381.959, 488.488 L 396.22, 494.33 L 394.674, 496.22 L 377.663, 520.275 L 370.619, 530.069 L 370.103, 530.756 L 370.103, 530.756 L 356.014, 524.914 z "/>
<path style="fill:rgb(255, 255, 0);fill-opacity:0;fill-rule:evenodd;stroke:rgb(0, 157, 255);stroke-width:1;" d="M 237.457, 617.01 L 245.189, 606.357 L 242.44, 605.155 L 254.639, 588.316 L 259.45, 581.959 L 275.945, 588.832 L 274.914, 590.206 L 258.935, 612.199 L 256.529, 610.997 L 248.797, 621.649 L 237.457, 617.01 z "/>
<path style="fill:rgb(255, 0, 0);fill-opacity:0;fill-rule:evenodd;stroke:rgb(0, 157, 255);stroke-width:1;" d="M 417.354, 414.605 L 434.192, 391.237 L 434.708, 390.722 L 440.55, 393.127 L 444.158, 388.144 L 438.316, 385.567 L 443.814, 378.007 L 445.189, 376.289 L 458.935, 381.959 L 450.859, 393.299 L 441.065, 406.529 L 432.646, 418.041 L 431.1, 420.447 L 417.354, 414.605 z "/>
<path style="fill:rgb(0, 255, 0);fill-opacity:0;fill-rule:evenodd;stroke:rgb(0, 157, 255);stroke-width:1;" d="M 839.691, 226.976 L 845.189, 219.588 L 847.423, 218.729 L 853.952, 209.966 L 852.921, 209.622 L 859.794, 200.172 L 859.45, 197.766 L 865.464, 189.691 L 880.069, 195.876 L 874.055, 203.952 L 872.165, 205.155 L 867.869, 211.168 L 866.495, 210.481 L 864.261, 213.402 L 866.495, 214.433 L 859.45, 224.055 L 860.481, 225.945 L 854.983, 233.505 L 839.691, 226.976 z "/>
<path style="fill:rgb(0, 0, 255);fill-opacity:0;fill-rule:evenodd;stroke:rgb(0, 157, 255);stroke-width:1;" d="M 285.911, 637.285 L 293.643, 626.632 L 291.581, 625.773 L 307.56, 603.78 L 324.055, 610.653 L 308.076, 632.646 L 305.498, 631.615 L 297.938, 642.268 L 285.911, 637.285 z "/>
<path style="fill:rgb(255, 255, 0);fill-opacity:0;fill-rule:evenodd;stroke:rgb(0, 157, 255);stroke-width:1;" d="M 580.069, 760.825 L 583.677, 756.014 L 593.814, 742.096 L 598.454, 735.567 L 605.67, 725.773 L 613.918, 729.21 L 615.12, 733.505 L 611.34, 738.488 L 614.433, 739.863 L 594.674, 767.01 L 580.069, 760.825 z "/>
<path style="fill:rgb(255, 0, 0);fill-opacity:0;fill-rule:evenodd;stroke:rgb(0, 157, 255);stroke-width:1;" d="M 226.804, 748.454 L 231.787, 741.753 L 228.866, 740.55 L 247.766, 714.948 L 263.746, 721.649 L 245.017, 747.251 L 242.268, 746.22 L 237.285, 752.921 L 226.804, 748.454 z "/>
<path style="fill:rgb(0, 255, 0);fill-opacity:0;fill-rule:evenodd;stroke:rgb(0, 157, 255);stroke-width:1;" d="M 302.405, 644.158 L 310.137, 633.505 L 308.076, 632.646 L 324.055, 610.653 L 340.378, 617.526 L 324.399, 639.519 L 321.993, 638.488 L 314.261, 649.141 L 302.405, 644.158 z "/>
<path style="fill:rgb(0, 0, 255);fill-opacity:0;fill-rule:evenodd;stroke:rgb(0, 157, 255);stroke-width:1;" d="M 401.203, 564.777 L 408.076, 555.155 L 408.591, 554.639 L 409.794, 554.124 L 411.34, 554.124 L 412.199, 554.124 L 420.447, 557.56 L 421.649, 556.014 L 422.165, 555.67 L 423.711, 555.326 L 424.399, 555.155 L 425.945, 555.326 L 440.722, 561.34 L 441.237, 561.684 L 441.924, 562.027 L 442.44, 562.887 L 442.784, 564.089 L 442.612, 564.605 L 439.691, 568.729 L 444.33, 570.619 L 437.457, 579.897 L 401.203, 564.777 z "/>
<path style="fill:rgb(255, 255, 0);fill-opacity:0;fill-rule:evenodd;stroke:rgb(0, 157, 255);stroke-width:1;" d="M 43.299, 392.096 L 59.2784, 370.275 L 68.2131, 358.076 L 82.3024, 364.089 L 73.0241, 376.632 L 70.1031, 380.756 L 57.3883, 398.11 L 43.299, 392.096 z "/>
<path style="fill:rgb(255, 0, 0);fill-opacity:0;fill-rule:evenodd;stroke:rgb(0, 157, 255);stroke-width:1;" d="M 269.759, 630.412 L 277.491, 619.931 L 275.258, 618.9 L 291.237, 596.907 L 307.56, 603.78 L 291.581, 625.773 L 289.175, 624.742 L 281.615, 635.395 L 269.759, 630.412 z "/>
<path style="fill:rgb(0, 255, 0);fill-opacity:0;fill-rule:evenodd;stroke:rgb(0, 157, 255);stroke-width:1;" d="M 473.54, 435.223 L 479.897, 426.632 L 482.474, 426.289 L 485.395, 422.165 L 486.942, 422.852 L 490.034, 418.557 L 488.488, 417.869 L 493.814, 410.481 L 493.127, 408.247 L 499.828, 399.141 L 514.948, 405.498 L 508.247, 414.605 L 505.842, 415.464 L 500.515, 423.024 L 498.797, 422.165 L 495.533, 426.46 L 497.251, 427.32 L 494.674, 430.928 L 495.017, 432.99 L 488.66, 441.581 L 473.54, 435.223 z "/>
<path style="fill:rgb(0, 0, 255);fill-opacity:0;fill-rule:evenodd;stroke:rgb(0, 157, 255);stroke-width:1;" d="M 253.608, 623.711 L 261.34, 613.058 L 258.935, 612.199 L 274.914, 590.206 L 291.237, 596.907 L 275.258, 618.9 L 272.68, 617.869 L 264.948, 628.522 L 253.608, 623.711 z "/>
<path style="fill:rgb(255, 255, 0);fill-opacity:0;fill-rule:evenodd;stroke:rgb(0, 157, 255);stroke-width:1;" d="M 115.292, 485.911 L 123.368, 474.914 L 125.601, 475.773 L 128.179, 472.337 L 125.945, 471.306 L 129.21, 466.838 L 131.443, 467.698 L 133.677, 464.777 L 132.818, 461.856 L 134.708, 459.107 L 137.801, 458.247 L 142.955, 451.203 L 154.296, 455.842 L 149.141, 463.058 L 149.656, 465.636 L 147.766, 468.213 L 144.502, 468.9 L 142.096, 472.165 L 144.158, 473.024 L 141.065, 477.491 L 138.832, 476.632 L 136.082, 480.241 L 138.316, 481.1 L 135.567, 484.88 L 130.241, 492.268 L 115.292, 485.911 z "/>
<path style="fill:rgb(255, 0, 0);fill-opacity:0;fill-rule:evenodd;stroke:rgb(0, 157, 255);stroke-width:1;" d="M 608.076, 270.79 L 615.808, 260.309 L 658.935, 279.21 L 651.031, 289.691 L 608.076, 270.79 z "/>
<path style="fill:rgb(0, 255, 0);fill-opacity:0;fill-rule:evenodd;stroke:rgb(0, 157, 255);stroke-width:1;" d="M 623.196, 250.687 L 631.1, 240.378 L 674.227, 259.107 L 666.323, 269.416 L 623.196, 250.687 z "/>
<path style="fill:rgb(0, 0, 255);fill-opacity:0;fill-rule:evenodd;stroke:rgb(0, 157, 255);stroke-width:1;" d="M 122.852, 286.77 L 129.381, 277.835 L 128.694, 275.601 L 134.88, 267.182 L 137.629, 266.667 L 140.378, 262.887 L 139.691, 260.653 L 147.595, 249.656 L 161.34, 255.498 L 160.825, 256.186 L 153.265, 266.495 L 150.687, 267.182 L 147.938, 270.962 L 148.625, 273.024 L 142.44, 281.271 L 139.691, 282.302 L 133.162, 291.237 L 122.852, 286.77 z "/>
<path style="fill:rgb(255, 255, 0);fill-opacity:0;fill-rule:evenodd;stroke:rgb(0, 157, 255);stroke-width:1;" d="M 70.4467, 325.945 L 87.2852, 302.921 L 89.6907, 299.656 L 100.515, 304.296 L 102.062, 302.062 L 107.732, 304.467 L 88.6598, 330.412 L 86.9416, 332.99 L 70.4467, 325.945 z "/>
<path style="fill:rgb(255, 0, 0);fill-opacity:0;fill-rule:evenodd;stroke:rgb(0, 157, 255);stroke-width:1;" d="M 226.804, 675.601 L 235.567, 663.574 L 237.973, 664.605 L 240.034, 661.856 L 237.629, 660.825 L 243.986, 651.89 L 246.907, 651.031 L 255.155, 639.691 L 265.464, 643.986 L 257.216, 655.326 L 257.388, 657.56 L 240.893, 680.241 L 240.206, 681.271 L 226.804, 675.601 z "/>
<path style="fill:rgb(0, 255, 0);fill-opacity:0;fill-rule:evenodd;stroke:rgb(0, 157, 255);stroke-width:1;" d="M 213.058, 669.931 L 219.416, 661.34 L 221.993, 657.904 L 224.399, 658.935 L 226.46, 656.186 L 223.883, 655.155 L 230.241, 646.392 L 233.333, 645.361 L 241.581, 634.021 L 251.89, 638.316 L 243.643, 649.656 L 243.986, 651.89 L 237.629, 660.825 L 234.88, 659.622 L 232.818, 662.371 L 235.567, 663.574 L 226.804, 675.601 L 213.058, 669.931 z "/>
<path style="fill:rgb(0, 0, 255);fill-opacity:0;fill-rule:evenodd;stroke:rgb(0, 157, 255);stroke-width:1;" d="M 331.443, 575.945 L 349.313, 551.031 L 351.89, 552.062 L 356.701, 545.361 L 367.354, 549.656 L 362.199, 556.873 L 364.089, 557.732 L 346.735, 582.131 L 331.443, 575.945 z "/>
<path style="fill:rgb(255, 255, 0);fill-opacity:0;fill-rule:evenodd;stroke:rgb(0, 157, 255);stroke-width:1;" d="M 917.182, 200.515 L 920.619, 195.533 L 921.821, 196.048 L 930.756, 183.333 L 928.007, 182.131 L 941.924, 162.543 L 955.842, 168.213 L 955.326, 168.9 L 941.924, 187.801 L 939.863, 186.942 L 930.756, 199.656 L 932.818, 200.515 L 929.381, 205.498 L 917.182, 200.515 z "/>
<path style="fill:rgb(255, 0, 0);fill-opacity:0;fill-rule:evenodd;stroke:rgb(0, 157, 255);stroke-width:1;" d="M 136.598, 292.612 L 143.299, 283.333 L 142.44, 281.271 L 148.625, 273.024 L 153.265, 266.495 L 160.825, 256.186 L 174.399, 262.027 L 173.024, 263.918 L 167.01, 272.337 L 164.261, 272.852 L 160.997, 277.32 L 162.199, 278.694 L 157.045, 285.739 L 156.186, 287.113 L 153.436, 287.629 L 146.735, 296.907 L 136.598, 292.612 z "/>
<path style="fill:rgb(0, 255, 0);fill-opacity:0;fill-rule:evenodd;stroke:rgb(0, 157, 255);stroke-width:1;" d="M 346.735, 582.131 L 364.089, 557.732 L 366.495, 558.763 L 371.649, 551.546 L 381.959, 555.67 L 376.632, 563.23 L 379.21, 564.261 L 362.027, 588.488 L 346.735, 582.131 z "/>
<path style="fill:rgb(0, 0, 255);fill-opacity:0;fill-rule:evenodd;stroke:rgb(0, 157, 255);stroke-width:1;" d="M 631.1, 240.378 L 638.66, 230.241 L 640.378, 230.928 L 681.787, 249.141 L 674.227, 259.107 L 631.1, 240.378 z "/>
<path style="fill:rgb(255, 255, 0);fill-opacity:0;fill-rule:evenodd;stroke:rgb(0, 157, 255);stroke-width:1;" d="M 293.127, 559.966 L 304.639, 543.814 L 307.388, 540.034 L 310.653, 539.519 L 312.199, 537.457 L 311.856, 535.223 L 314.089, 531.959 L 317.354, 531.271 L 320.79, 526.289 L 330.584, 530.412 L 327.148, 535.223 L 327.491, 537.629 L 325.086, 540.893 L 322.165, 541.237 L 320.275, 543.986 L 320.79, 546.22 L 307.045, 565.808 L 293.127, 559.966 z "/>
<path style="fill:rgb(255, 0, 0);fill-opacity:0;fill-rule:evenodd;stroke:rgb(0, 157, 255);stroke-width:1;" d="M 656.186, 207.216 L 660.309, 201.89 L 663.058, 203.093 L 665.12, 200.515 L 683.505, 208.591 L 703.78, 217.354 L 695.704, 228.179 L 656.873, 211.168 L 658.935, 208.419 L 656.186, 207.216 z "/>
<path style="fill:rgb(0, 255, 0);fill-opacity:0;fill-rule:evenodd;stroke:rgb(0, 157, 255);stroke-width:1;" d="M 901.546, 193.986 L 904.983, 189.175 L 906.873, 189.863 L 915.979, 177.148 L 914.261, 176.46 L 923.883, 162.887 L 928.179, 156.873 L 941.924, 162.543 L 928.007, 182.131 L 925.258, 181.1 L 921.993, 185.739 L 921.478, 185.395 L 915.808, 193.643 L 917.01, 193.986 L 913.574, 198.969 L 901.546, 193.986 z "/>
<path style="fill:rgb(0, 0, 255);fill-opacity:0;fill-rule:evenodd;stroke:rgb(0, 157, 255);stroke-width:1;" d="M 640.378, 230.928 L 642.612, 228.179 L 641.753, 227.663 L 645.361, 222.852 L 647.938, 223.883 L 649.828, 221.306 L 689.691, 238.66 L 681.787, 249.141 L 640.378, 230.928 z "/>
<path style="fill:rgb(255, 255, 0);fill-opacity:0;fill-rule:evenodd;stroke:rgb(0, 157, 255);stroke-width:1;" d="M 75.7732, 469.244 L 82.9897, 459.45 L 84.5361, 457.388 L 87.6289, 458.591 L 89.3471, 456.014 L 86.4261, 454.811 L 88.1443, 452.234 L 91.4089, 448.11 L 92.6117, 446.22 L 95.189, 445.533 L 103.093, 434.708 L 113.746, 439.175 L 105.842, 450 L 106.357, 452.062 L 100.172, 460.481 L 97.079, 459.278 L 95.189, 461.856 L 98.2818, 463.23 L 89.5189, 475.086 L 75.7732, 469.244 z "/>
<path style="fill:rgb(255, 0, 0);fill-opacity:0;fill-rule:evenodd;stroke:rgb(0, 157, 255);stroke-width:1;" d="M 385.395, 113.574 L 395.189, 100.344 L 427.663, 114.261 L 417.869, 127.491 L 385.395, 113.574 z "/>
<path style="fill:rgb(0, 255, 0);fill-opacity:0;fill-rule:evenodd;stroke:rgb(0, 157, 255);stroke-width:1;" d="M 615.808, 260.309 L 623.196, 250.687 L 666.323, 269.416 L 658.935, 279.21 L 615.808, 260.309 z "/>
<path style="fill:rgb(0, 0, 255);fill-opacity:0;fill-rule:evenodd;stroke:rgb(0, 157, 255);stroke-width:1;" d="M 89.5189, 475.086 L 98.2818, 463.23 L 101.203, 464.433 L 103.265, 461.856 L 100.172, 460.481 L 106.357, 452.062 L 108.935, 451.375 L 116.838, 440.378 L 127.32, 444.845 L 119.244, 455.842 L 119.759, 457.56 L 113.574, 466.151 L 110.825, 464.948 L 108.763, 467.698 L 111.512, 468.729 L 102.921, 480.756 L 89.5189, 475.086 z "/>
<path style="fill:rgb(255, 255, 0);fill-opacity:0;fill-rule:evenodd;stroke:rgb(0, 157, 255);stroke-width:1;" d="M 187.285, 516.495 L 215.808, 476.632 L 226.632, 481.1 L 223.54, 485.395 L 222.509, 485.052 L 220.619, 487.629 L 221.306, 488.66 L 214.777, 497.766 L 211.684, 502.234 L 207.56, 507.904 L 205.842, 507.216 L 203.436, 510.481 L 205.155, 511.34 L 198.282, 520.962 L 187.285, 516.495 z "/>
<path style="fill:rgb(255, 0, 0);fill-opacity:0;fill-rule:evenodd;stroke:rgb(0, 157, 255);stroke-width:1;" d="M 307.045, 565.808 L 320.79, 546.22 L 322.165, 544.33 L 325.773, 543.643 L 333.333, 533.162 L 343.299, 537.285 L 335.567, 548.11 L 335.911, 550.687 L 320.962, 571.478 L 307.045, 565.808 z "/>
<path style="fill:rgb(0, 255, 0);fill-opacity:0;fill-rule:evenodd;stroke:rgb(0, 157, 255);stroke-width:1;" d="M 252.921, 755.326 L 254.124, 753.78 L 255.326, 754.296 L 258.935, 749.313 L 267.869, 753.265 L 269.244, 751.375 L 304.124, 766.151 L 296.564, 776.46 L 263.402, 762.371 L 261.684, 761.684 L 263.058, 759.622 L 252.921, 755.326 z "/>
<path style="fill:rgb(0, 0, 255);fill-opacity:0;fill-rule:evenodd;stroke:rgb(0, 157, 255);stroke-width:1;" d="M 256.186, 198.282 L 265.464, 185.567 L 277.835, 168.729 L 291.753, 174.57 L 290.206, 176.632 L 278.522, 192.612 L 270.103, 204.124 L 256.186, 198.282 z "/>
<path style="fill:rgb(255, 255, 0);fill-opacity:0;fill-rule:evenodd;stroke:rgb(0, 157, 255);stroke-width:1;" d="M 384.192, 585.395 L 392.096, 574.227 L 430.069, 590.55 L 422.509, 601.203 L 384.192, 585.395 z "/>
<path style="fill:rgb(255, 0, 0);fill-opacity:0;fill-rule:evenodd;stroke:rgb(0, 157, 255);stroke-width:1;" d="M 261.684, 745.876 L 266.323, 739.519 L 275.086, 743.299 L 276.632, 741.237 L 281.959, 743.643 L 286.426, 745.533 L 291.581, 747.766 L 299.141, 750.859 L 311.512, 756.186 L 304.124, 766.151 L 269.244, 751.375 L 270.447, 749.656 L 261.684, 745.876 z "/>
<path style="fill:rgb(0, 255, 0);fill-opacity:0;fill-rule:evenodd;stroke:rgb(0, 157, 255);stroke-width:1;" d="M 932.99, 266.495 L 938.66, 258.591 L 942.096, 258.076 L 945.361, 253.78 L 942.955, 252.749 L 946.907, 247.595 L 950.515, 249.141 L 956.014, 241.581 L 954.983, 241.237 L 961.512, 232.302 L 972.852, 237.113 L 965.636, 246.735 L 963.058, 245.704 L 960.481, 249.141 L 958.076, 252.405 L 960.825, 253.436 L 956.873, 258.763 L 955.155, 258.076 L 952.062, 262.199 L 953.093, 263.918 L 946.907, 272.509 L 932.99, 266.495 z "/>
<path style="fill:rgb(0, 0, 255);fill-opacity:0;fill-rule:evenodd;stroke:rgb(0, 157, 255);stroke-width:1;" d="M 946.907, 272.509 L 953.093, 263.918 L 955.842, 263.746 L 958.935, 259.622 L 956.873, 258.763 L 960.825, 253.436 L 964.089, 254.811 L 969.244, 247.595 L 967.698, 246.907 L 974.57, 237.629 L 986.598, 242.784 L 979.381, 252.577 L 976.46, 251.203 L 971.306, 258.247 L 974.399, 259.45 L 970.79, 264.261 L 968.557, 263.402 L 964.605, 268.557 L 966.838, 269.588 L 960.481, 278.179 L 946.907, 272.509 z "/>
<path style="fill:rgb(255, 255, 0);fill-opacity:0;fill-rule:evenodd;stroke:rgb(0, 157, 255);stroke-width:1;" d="M 398.282, 318.041 L 404.811, 309.278 L 414.089, 296.907 L 415.808, 294.33 L 418.385, 295.361 L 423.54, 288.316 L 434.708, 292.955 L 412.027, 323.883 L 398.282, 318.041 z "/>
<path style="fill:rgb(255, 0, 0);fill-opacity:0;fill-rule:evenodd;stroke:rgb(0, 157, 255);stroke-width:1;" d="M 555.842, 335.567 L 563.23, 325.43 L 574.57, 330.241 L 574.742, 331.787 L 578.522, 333.333 L 579.21, 334.88 L 585.395, 337.629 L 587.973, 337.457 L 596.392, 341.065 L 598.454, 340.55 L 609.966, 345.361 L 602.577, 355.498 L 591.065, 350.687 L 590.55, 348.797 L 581.271, 344.674 L 580.756, 342.612 L 576.289, 340.55 L 573.711, 341.581 L 569.588, 339.863 L 567.354, 340.55 L 555.842, 335.567 z "/>
<path style="fill:rgb(0, 255, 0);fill-opacity:0;fill-rule:evenodd;stroke:rgb(0, 157, 255);stroke-width:1;" d="M 62.1993, 463.574 L 69.4158, 453.608 L 71.9931, 454.811 L 74.055, 452.062 L 71.4777, 451.031 L 74.7423, 446.564 L 77.3196, 447.766 L 79.3814, 444.845 L 77.8351, 442.268 L 78.6942, 441.237 L 80.0687, 439.347 L 82.8179, 438.832 L 89.0034, 430.412 L 99.1409, 434.536 L 92.9553, 443.127 L 93.4708, 445.189 L 92.6117, 446.22 L 91.4089, 448.11 L 88.1443, 448.625 L 86.2543, 451.375 L 88.1443, 452.234 L 86.4261, 454.811 L 85.0515, 456.701 L 82.8179, 455.842 L 80.9278, 458.591 L 82.9897, 459.45 L 75.7732, 469.244 L 62.1993, 463.574 z "/>
<path style="fill:rgb(0, 0, 255);fill-opacity:0;fill-rule:evenodd;stroke:rgb(0, 157, 255);stroke-width:1;" d="M 932.646, 689.863 L 940.55, 679.21 L 951.031, 683.677 L 952.062, 685.911 L 957.732, 688.316 L 959.966, 687.457 L 964.433, 689.175 L 963.402, 690.55 L 980.069, 697.595 L 973.368, 707.045 L 932.646, 689.863 z "/>
<path style="fill:rgb(255, 255, 0);fill-opacity:0;fill-rule:evenodd;stroke:rgb(0, 157, 255);stroke-width:1;" d="M 48.2818, 542.612 L 50.1718, 539.863 L 56.8729, 542.612 L 59.7938, 538.66 L 103.608, 557.216 L 97.2509, 565.808 L 71.4777, 554.983 L 53.4364, 547.423 L 54.9828, 545.361 L 48.2818, 542.612 z "/>
<path style="fill:rgb(255, 0, 0);fill-opacity:0;fill-rule:evenodd;stroke:rgb(0, 157, 255);stroke-width:1;" d="M 569.931, 750.172 L 580.241, 736.254 L 582.302, 735.395 L 585.052, 731.443 L 585.223, 729.381 L 592.096, 719.931 L 605.67, 725.773 L 598.454, 735.567 L 596.048, 736.082 L 593.299, 739.691 L 593.814, 742.096 L 583.677, 756.014 L 569.931, 750.172 z "/>
<path style="fill:rgb(0, 255, 0);fill-opacity:0;fill-rule:evenodd;stroke:rgb(0, 157, 255);stroke-width:1;" d="M 112.199, 707.732 L 132.646, 679.897 L 137.801, 682.131 L 140.378, 678.522 L 138.832, 678.007 L 142.44, 673.196 L 144.845, 674.227 L 149.828, 676.289 L 125.773, 709.107 L 120.447, 716.323 L 114.777, 713.918 L 112.199, 707.732 z "/>
<path style="fill:rgb(0, 0, 255);fill-opacity:0;fill-rule:evenodd;stroke:rgb(0, 157, 255);stroke-width:1;" d="M 376.976, 596.048 L 381.271, 590.034 L 381.1, 589.863 L 384.192, 585.395 L 422.509, 601.203 L 416.495, 609.45 L 415.464, 610.137 L 414.777, 610.481 L 414.089, 610.653 L 412.715, 610.653 L 411.34, 610.137 L 376.976, 596.048 z "/>
<path style="fill:rgb(255, 255, 0);fill-opacity:0;fill-rule:evenodd;stroke:rgb(0, 157, 255);stroke-width:1;" d="M 556.357, 744.502 L 566.495, 730.584 L 568.557, 729.725 L 571.649, 725.601 L 571.478, 723.711 L 578.351, 714.261 L 592.096, 719.931 L 585.223, 729.381 L 582.131, 730.241 L 579.21, 734.192 L 580.241, 736.254 L 569.931, 750.172 L 556.357, 744.502 z "/>
<path style="fill:rgb(255, 0, 0);fill-opacity:0;fill-rule:evenodd;stroke:rgb(0, 157, 255);stroke-width:1;" d="M 490.378, 362.715 L 496.048, 355.155 L 510.997, 334.88 L 525.086, 340.893 L 504.467, 368.729 L 490.378, 362.715 z "/>
<path style="fill:rgb(0, 255, 0);fill-opacity:0;fill-rule:evenodd;stroke:rgb(0, 157, 255);stroke-width:1;" d="M 530.756, 730.412 L 551.031, 702.749 L 565.12, 708.591 L 557.904, 718.557 L 555.498, 718.729 L 552.234, 723.024 L 553.608, 724.399 L 544.845, 736.426 L 540.55, 734.536 L 539.003, 736.598 L 532.818, 734.021 L 534.364, 731.959 L 530.756, 730.412 z "/>
<path style="fill:rgb(0, 0, 255);fill-opacity:0;fill-rule:evenodd;stroke:rgb(0, 157, 255);stroke-width:1;" d="M 906.529, 724.914 L 913.918, 714.777 L 954.639, 732.131 L 948.11, 741.065 L 941.924, 738.488 L 938.66, 738.488 L 930.584, 735.052 L 931.271, 734.021 L 922.68, 730.412 L 920.275, 730.756 L 906.529, 724.914 z "/>
<path style="fill:rgb(255, 255, 0);fill-opacity:0;fill-rule:evenodd;stroke:rgb(0, 157, 255);stroke-width:1;" d="M 490.034, 713.23 L 498.797, 701.375 L 500.515, 701.031 L 503.265, 697.251 L 502.405, 696.22 L 510.309, 685.567 L 524.055, 691.237 L 503.78, 719.072 L 500, 717.526 L 498.625, 719.588 L 492.268, 716.838 L 493.814, 714.777 L 490.034, 713.23 z "/>
<path style="fill:rgb(255, 0, 0);fill-opacity:0;fill-rule:evenodd;stroke:rgb(0, 157, 255);stroke-width:1;" d="M 392.096, 574.227 L 394.502, 570.619 L 394.845, 570.79 L 397.595, 566.667 L 399.313, 567.354 L 401.203, 564.777 L 437.457, 579.897 L 430.069, 590.55 L 392.096, 574.227 z "/>
<path style="fill:rgb(0, 255, 0);fill-opacity:0;fill-rule:evenodd;stroke:rgb(0, 157, 255);stroke-width:1;" d="M 517.182, 724.742 L 537.457, 696.907 L 551.031, 702.749 L 530.756, 730.412 L 526.976, 728.866 L 525.43, 730.928 L 519.416, 728.351 L 520.962, 726.289 L 517.182, 724.742 z "/>
<path style="fill:rgb(0, 0, 255);fill-opacity:0;fill-rule:evenodd;stroke:rgb(0, 157, 255);stroke-width:1;" d="M 542.955, 738.832 L 544.845, 736.426 L 553.608, 724.399 L 555.155, 724.227 L 558.247, 719.931 L 557.904, 718.557 L 565.12, 708.591 L 578.351, 714.261 L 571.478, 723.711 L 568.9, 724.399 L 565.808, 728.522 L 566.495, 730.584 L 556.357, 744.502 L 542.955, 738.832 z "/>
<path style="fill:rgb(255, 255, 0);fill-opacity:0;fill-rule:evenodd;stroke:rgb(0, 157, 255);stroke-width:1;" d="M 503.78, 719.072 L 524.055, 691.237 L 537.457, 696.907 L 517.182, 724.742 L 513.574, 723.196 L 512.199, 725.258 L 505.842, 722.68 L 507.388, 720.619 L 503.78, 719.072 z "/>
<path style="fill:rgb(255, 0, 0);fill-opacity:0;fill-rule:evenodd;stroke:rgb(0, 157, 255);stroke-width:1;" d="M 102.921, 480.756 L 111.512, 468.729 L 113.574, 466.151 L 119.759, 457.56 L 128.866, 445.189 L 139.003, 449.485 L 121.134, 473.883 L 123.368, 474.914 L 115.292, 485.911 L 102.921, 480.756 z "/>
<path style="fill:rgb(0, 255, 0);fill-opacity:0;fill-rule:evenodd;stroke:rgb(0, 157, 255);stroke-width:1;" d="M 463.918, 773.368 L 470.619, 764.261 L 472.852, 763.574 L 475.945, 759.622 L 475.43, 757.732 L 485.739, 743.986 L 499.141, 749.656 L 489.175, 763.058 L 486.77, 764.261 L 484.021, 768.041 L 484.364, 769.588 L 477.32, 779.038 L 463.918, 773.368 z "/>
<path style="fill:rgb(0, 0, 255);fill-opacity:0;fill-rule:evenodd;stroke:rgb(0, 157, 255);stroke-width:1;" d="M 868.557, 239.175 L 875.773, 229.21 L 877.835, 229.038 L 880.584, 225.258 L 879.553, 224.055 L 889.691, 210.309 L 903.265, 216.151 L 881.959, 245.017 L 868.557, 239.175 z "/>
<path style="fill:rgb(255, 255, 0);fill-opacity:0;fill-rule:evenodd;stroke:rgb(0, 157, 255);stroke-width:1;" d="M 450.859, 767.698 L 472.68, 738.316 L 485.739, 743.986 L 475.43, 757.732 L 470.619, 764.261 L 463.918, 773.368 L 450.859, 767.698 z "/>
<path style="fill:rgb(255, 0, 0);fill-opacity:0;fill-rule:evenodd;stroke:rgb(0, 157, 255);stroke-width:1;" d="M 947.766, 766.495 L 968.041, 738.316 L 981.443, 743.986 L 974.57, 753.265 L 972.68, 754.124 L 969.588, 758.419 L 969.244, 760.825 L 961.168, 771.993 L 958.076, 770.619 L 956.186, 773.196 L 949.485, 770.447 L 951.203, 767.869 L 947.766, 766.495 z "/>
<path style="fill:rgb(0, 255, 0);fill-opacity:0;fill-rule:evenodd;stroke:rgb(0, 157, 255);stroke-width:1;" d="M 221.306, 610.137 L 226.632, 602.921 L 228.866, 602.577 L 241.237, 585.567 L 241.581, 582.818 L 246.392, 576.46 L 259.45, 581.959 L 254.639, 588.316 L 251.375, 589.863 L 233.162, 615.12 L 221.306, 610.137 z "/>
<path style="fill:rgb(0, 0, 255);fill-opacity:0;fill-rule:evenodd;stroke:rgb(0, 157, 255);stroke-width:1;" d="M 854.983, 233.505 L 860.481, 225.945 L 862.371, 223.368 L 864.261, 223.54 L 867.182, 219.588 L 866.151, 218.557 L 876.289, 204.639 L 889.691, 210.309 L 879.553, 224.055 L 877.491, 223.883 L 874.57, 227.663 L 875.773, 229.21 L 868.557, 239.175 L 854.983, 233.505 z "/>
<path style="fill:rgb(255, 255, 0);fill-opacity:0;fill-rule:evenodd;stroke:rgb(0, 157, 255);stroke-width:1;" d="M 504.467, 368.729 L 525.086, 340.893 L 538.316, 346.564 L 517.698, 374.399 L 504.467, 368.729 z "/>
<path style="fill:rgb(255, 0, 0);fill-opacity:0;fill-rule:evenodd;stroke:rgb(0, 157, 255);stroke-width:1;" d="M 208.076, 307.56 L 224.742, 284.88 L 241.065, 291.753 L 228.866, 308.247 L 224.399, 314.433 L 208.076, 307.56 z "/>
<path style="fill:rgb(0, 255, 0);fill-opacity:0;fill-rule:evenodd;stroke:rgb(0, 157, 255);stroke-width:1;" d="M 408.935, 328.007 L 412.027, 323.883 L 434.708, 292.955 L 444.158, 297.079 L 439.863, 302.921 L 440.034, 304.639 L 438.144, 307.388 L 435.911, 308.247 L 426.46, 320.962 L 429.21, 322.165 L 426.632, 325.601 L 421.134, 333.162 L 408.935, 328.007 z "/>
<path style="fill:rgb(0, 0, 255);fill-opacity:0;fill-rule:evenodd;stroke:rgb(0, 157, 255);stroke-width:1;" d="M 362.027, 588.488 L 379.21, 564.261 L 394.502, 570.619 L 392.096, 574.227 L 384.192, 585.395 L 381.1, 589.863 L 379.897, 589.519 L 376.46, 594.33 L 362.027, 588.488 z "/>
<path style="fill:rgb(255, 255, 0);fill-opacity:0;fill-rule:evenodd;stroke:rgb(0, 157, 255);stroke-width:1;" d="M 694.674, 165.979 L 702.405, 155.67 L 737.285, 170.447 L 734.708, 173.883 L 729.553, 180.756 L 694.674, 165.979 z "/>
<path style="fill:rgb(255, 0, 0);fill-opacity:0;fill-rule:evenodd;stroke:rgb(0, 157, 255);stroke-width:1;" d="M 234.364, 252.577 L 249.656, 231.787 L 254.296, 225.43 L 267.526, 231.1 L 263.23, 236.77 L 248.11, 257.56 L 247.595, 258.247 L 234.364, 252.577 z "/>
<path style="fill:rgb(0, 255, 0);fill-opacity:0;fill-rule:evenodd;stroke:rgb(0, 157, 255);stroke-width:1;" d="M 236.426, 447.766 L 246.907, 432.818 L 272.852, 443.471 L 264.605, 455.155 L 263.746, 456.186 L 252.749, 451.718 L 251.203, 453.952 L 236.426, 447.766 z "/>
<path style="fill:rgb(0, 0, 255);fill-opacity:0;fill-rule:evenodd;stroke:rgb(0, 157, 255);stroke-width:1;" d="M 798.969, 183.505 L 806.701, 172.852 L 837.629, 186.082 L 835.567, 188.832 L 841.237, 191.237 L 837.629, 196.048 L 831.959, 193.643 L 829.897, 196.564 L 798.969, 183.505 z "/>
<path style="fill:rgb(255, 255, 0);fill-opacity:0;fill-rule:evenodd;stroke:rgb(0, 157, 255);stroke-width:1;" d="M 814.261, 162.543 L 821.993, 152.062 L 853.093, 165.292 L 851.031, 168.041 L 856.186, 170.275 L 852.577, 175.258 L 847.251, 173.024 L 845.189, 175.773 L 814.261, 162.543 z "/>
<path style="fill:rgb(255, 0, 0);fill-opacity:0;fill-rule:evenodd;stroke:rgb(0, 157, 255);stroke-width:1;" d="M 198.282, 520.962 L 205.155, 511.34 L 206.701, 511.856 L 212.371, 503.78 L 211.684, 502.234 L 214.777, 497.766 L 216.838, 497.595 L 221.649, 490.722 L 231.615, 494.845 L 225.601, 503.265 L 227.663, 504.639 L 227.491, 504.811 L 225.258, 507.904 L 222.852, 507.904 L 217.01, 515.979 L 218.041, 516.838 L 211.168, 526.289 L 198.282, 520.962 z "/>
<path style="fill:rgb(0, 255, 0);fill-opacity:0;fill-rule:evenodd;stroke:rgb(0, 157, 255);stroke-width:1;" d="M 806.701, 172.852 L 814.261, 162.543 L 845.189, 175.773 L 843.299, 178.351 L 848.625, 180.584 L 845.017, 185.567 L 839.691, 183.333 L 837.629, 186.082 L 806.701, 172.852 z "/>
<path style="fill:rgb(0, 0, 255);fill-opacity:0;fill-rule:evenodd;stroke:rgb(0, 157, 255);stroke-width:1;" d="M 891.237, 745.876 L 898.969, 735.223 L 913.402, 741.409 L 911.684, 743.814 L 914.948, 745.189 L 916.667, 742.784 L 930.928, 748.797 L 929.21, 751.375 L 932.474, 752.749 L 928.522, 758.247 L 925.43, 757.045 L 923.54, 759.622 L 908.591, 753.265 L 910.137, 751.203 L 906.873, 749.828 L 905.326, 751.89 L 891.924, 746.22 L 891.237, 745.876 z "/>
<path style="fill:rgb(255, 255, 0);fill-opacity:0;fill-rule:evenodd;stroke:rgb(0, 157, 255);stroke-width:1;" d="M 829.381, 141.924 L 836.942, 131.787 L 867.869, 145.017 L 866.323, 147.251 L 871.821, 149.656 L 868.213, 154.467 L 862.715, 152.062 L 860.481, 155.155 L 829.381, 141.924 z "/>
<path style="fill:rgb(255, 0, 0);fill-opacity:0;fill-rule:evenodd;stroke:rgb(0, 157, 255);stroke-width:1;" d="M 791.409, 193.643 L 798.969, 183.505 L 829.897, 196.564 L 828.007, 199.313 L 833.505, 201.718 L 829.897, 206.529 L 824.399, 204.124 L 822.337, 206.873 L 802.062, 198.11 L 791.409, 193.643 z "/>
<path style="fill:rgb(0, 255, 0);fill-opacity:0;fill-rule:evenodd;stroke:rgb(0, 157, 255);stroke-width:1;" d="M 483.505, 460.137 L 491.237, 449.656 L 494.845, 451.203 L 523.883, 463.402 L 516.323, 473.883 L 483.505, 460.137 z "/>
<path style="fill:rgb(0, 0, 255);fill-opacity:0;fill-rule:evenodd;stroke:rgb(0, 157, 255);stroke-width:1;" d="M 405.155, 406.873 L 430.241, 372.337 L 443.814, 378.007 L 438.316, 385.567 L 434.708, 390.722 L 434.192, 391.237 L 429.038, 389.003 L 418.385, 403.78 L 415.12, 403.608 L 410.997, 409.278 L 405.155, 406.873 z "/>
<path style="fill:rgb(255, 255, 0);fill-opacity:0;fill-rule:evenodd;stroke:rgb(0, 157, 255);stroke-width:1;" d="M 821.993, 152.062 L 829.381, 141.924 L 860.481, 155.155 L 858.763, 157.388 L 864.261, 159.794 L 860.481, 164.777 L 854.983, 162.543 L 853.093, 165.292 L 821.993, 152.062 z "/>
<path style="fill:rgb(255, 0, 0);fill-opacity:0;fill-rule:evenodd;stroke:rgb(0, 157, 255);stroke-width:1;" d="M 869.416, 776.804 L 876.976, 766.495 L 892.096, 772.852 L 897.766, 775.258 L 909.622, 780.241 L 902.062, 790.55 L 869.416, 776.804 z "/>
<path style="fill:rgb(0, 255, 0);fill-opacity:0;fill-rule:evenodd;stroke:rgb(0, 157, 255);stroke-width:1;" d="M 622.509, 221.306 L 625.601, 217.01 L 633.849, 206.357 L 644.33, 192.44 L 652.749, 181.443 L 671.649, 189.691 L 663.746, 200 L 649.485, 193.643 L 626.976, 223.196 L 622.509, 221.306 z "/>
<path style="fill:rgb(0, 0, 255);fill-opacity:0;fill-rule:evenodd;stroke:rgb(0, 157, 255);stroke-width:1;" d="M 898.969, 735.223 L 906.529, 724.914 L 920.275, 730.756 L 920.962, 730.928 L 919.072, 733.505 L 922.165, 734.88 L 924.055, 732.302 L 930.584, 735.052 L 938.66, 738.488 L 936.77, 741.237 L 939.691, 742.612 L 935.911, 747.766 L 932.646, 746.392 L 930.928, 748.797 L 916.667, 742.784 L 918.041, 740.722 L 914.948, 739.519 L 913.402, 741.409 L 898.969, 735.223 z "/>
<path style="fill:rgb(255, 255, 0);fill-opacity:0;fill-rule:evenodd;stroke:rgb(0, 157, 255);stroke-width:1;" d="M 476.117, 470.447 L 483.505, 460.137 L 516.323, 473.883 L 508.763, 484.192 L 507.904, 483.849 L 476.117, 470.447 z "/>
<path style="fill:rgb(255, 0, 0);fill-opacity:0;fill-rule:evenodd;stroke:rgb(0, 157, 255);stroke-width:1;" d="M 133.333, 430.928 L 138.66, 423.54 L 147.079, 427.148 L 184.364, 442.955 L 179.21, 450.172 L 140.034, 433.677 L 133.333, 430.928 z "/>
<path style="fill:rgb(0, 255, 0);fill-opacity:0;fill-rule:evenodd;stroke:rgb(0, 157, 255);stroke-width:1;" d="M 377.663, 520.275 L 394.674, 496.22 L 408.763, 502.062 L 403.265, 509.622 L 391.581, 526.117 L 377.663, 520.275 z "/>
<path style="fill:rgb(0, 0, 255);fill-opacity:0;fill-rule:evenodd;stroke:rgb(0, 157, 255);stroke-width:1;" d="M 947.938, 668.9 L 955.498, 658.591 L 966.495, 663.23 L 967.354, 665.464 L 973.196, 667.869 L 975.601, 667.01 L 988.66, 672.68 L 986.598, 675.258 L 988.832, 677.491 L 987.457, 679.21 L 983.333, 679.897 L 981.1, 682.99 L 967.869, 677.32 L 967.01, 675.43 L 961.168, 672.852 L 958.419, 673.368 L 947.938, 668.9 z "/>
<path style="fill:rgb(255, 255, 0);fill-opacity:0;fill-rule:evenodd;stroke:rgb(0, 157, 255);stroke-width:1;" d="M 940.55, 679.21 L 947.938, 668.9 L 958.419, 673.368 L 959.278, 675.43 L 965.12, 678.007 L 967.869, 677.32 L 981.1, 682.99 L 979.21, 685.567 L 980.584, 688.144 L 979.553, 689.519 L 975.773, 690.206 L 973.54, 693.127 L 964.433, 689.175 L 959.966, 687.457 L 959.107, 685.567 L 953.608, 683.333 L 951.031, 683.677 L 940.55, 679.21 z "/>
<path style="fill:rgb(255, 0, 0);fill-opacity:0;fill-rule:evenodd;stroke:rgb(0, 157, 255);stroke-width:1;" d="M 57.3883, 398.11 L 70.1031, 380.756 L 74.3986, 382.646 L 73.0241, 376.632 L 82.3024, 364.089 L 92.9553, 368.557 L 84.7079, 379.725 L 82.1306, 379.897 L 79.0378, 384.192 L 79.8969, 385.911 L 75.6014, 391.924 L 73.8832, 391.237 L 66.1512, 401.718 L 57.3883, 398.11 z "/>
<path style="fill:rgb(0, 255, 0);fill-opacity:0;fill-rule:evenodd;stroke:rgb(0, 157, 255);stroke-width:1;" d="M 934.192, 766.838 L 940.55, 758.076 L 942.612, 757.388 L 952.234, 744.158 L 951.375, 742.268 L 957.388, 733.849 L 968.041, 738.316 L 947.766, 766.495 L 944.502, 771.134 L 934.192, 766.838 z "/>
<path style="fill:rgb(0, 0, 255);fill-opacity:0;fill-rule:evenodd;stroke:rgb(0, 157, 255);stroke-width:1;" d="M 337.457, 667.869 L 339.863, 664.605 L 338.144, 663.746 L 341.409, 659.107 L 343.299, 659.966 L 345.533, 656.873 L 373.711, 668.729 L 365.636, 679.725 L 337.457, 667.869 z "/>
<path style="fill:rgb(255, 255, 0);fill-opacity:0;fill-rule:evenodd;stroke:rgb(0, 157, 255);stroke-width:1;" d="M 329.381, 679.038 L 337.457, 667.869 L 365.636, 679.725 L 357.732, 690.893 L 329.381, 679.038 z "/>
<path style="fill:rgb(255, 0, 0);fill-opacity:0;fill-rule:evenodd;stroke:rgb(0, 157, 255);stroke-width:1;" d="M 517.526, 419.931 L 525.258, 409.278 L 554.296, 421.649 L 546.564, 432.131 L 517.526, 419.931 z "/>
<path style="fill:rgb(0, 255, 0);fill-opacity:0;fill-rule:evenodd;stroke:rgb(0, 157, 255);stroke-width:1;" d="M 345.533, 656.873 L 348.625, 652.405 L 346.907, 651.718 L 349.485, 648.11 L 351.203, 648.969 L 353.265, 646.22 L 381.443, 658.076 L 373.711, 668.729 L 345.533, 656.873 z "/>
<path style="fill:rgb(0, 0, 255);fill-opacity:0;fill-rule:evenodd;stroke:rgb(0, 157, 255);stroke-width:1;" d="M 104.296, 410.997 L 113.058, 398.969 L 115.464, 399.141 L 118.557, 394.845 L 117.01, 393.471 L 125.43, 382.131 L 136.598, 386.942 L 126.976, 400 L 125.258, 402.405 L 122.852, 401.375 L 120.962, 403.78 L 123.54, 404.811 L 115.464, 415.636 L 104.296, 410.997 z "/>
<path style="fill:rgb(255, 255, 0);fill-opacity:0;fill-rule:evenodd;stroke:rgb(0, 157, 255);stroke-width:1;" d="M 494.845, 451.203 L 502.405, 440.55 L 531.615, 452.921 L 523.883, 463.402 L 494.845, 451.203 z "/>
<path style="fill:rgb(255, 0, 0);fill-opacity:0;fill-rule:evenodd;stroke:rgb(0, 157, 255);stroke-width:1;" d="M 596.907, 312.371 L 604.639, 301.718 L 633.162, 313.918 L 625.43, 324.57 L 596.907, 312.371 z "/>
<path style="fill:rgb(0, 255, 0);fill-opacity:0;fill-rule:evenodd;stroke:rgb(0, 157, 255);stroke-width:1;" d="M 581.443, 333.162 L 589.347, 322.68 L 617.869, 334.88 L 609.966, 345.361 L 598.454, 340.55 L 581.443, 333.162 z "/>
<path style="fill:rgb(0, 0, 255);fill-opacity:0;fill-rule:evenodd;stroke:rgb(0, 157, 255);stroke-width:1;" d="M 502.405, 440.55 L 509.966, 430.241 L 539.175, 442.44 L 531.615, 452.921 L 502.405, 440.55 z "/>
<path style="fill:rgb(255, 255, 0);fill-opacity:0;fill-rule:evenodd;stroke:rgb(0, 157, 255);stroke-width:1;" d="M 320.962, 571.478 L 335.911, 550.687 L 345.017, 537.973 L 350, 539.863 L 343.814, 548.797 L 349.313, 551.031 L 331.443, 575.945 L 320.962, 571.478 z "/>
<path style="fill:rgb(255, 0, 0);fill-opacity:0;fill-rule:evenodd;stroke:rgb(0, 157, 255);stroke-width:1;" d="M 509.966, 430.241 L 517.526, 419.931 L 546.564, 432.131 L 539.175, 442.44 L 509.966, 430.241 z "/>
<path style="fill:rgb(0, 255, 0);fill-opacity:0;fill-rule:evenodd;stroke:rgb(0, 157, 255);stroke-width:1;" d="M 71.6495, 397.079 L 75.6014, 391.924 L 79.8969, 385.911 L 81.9588, 386.77 L 84.3643, 383.333 L 82.646, 382.646 L 84.7079, 379.725 L 92.9553, 368.557 L 103.608, 373.024 L 95.3608, 384.364 L 92.9553, 384.88 L 90.2062, 388.66 L 91.0653, 390.206 L 82.646, 401.718 L 71.6495, 397.079 z "/>
<path style="fill:rgb(0, 0, 255);fill-opacity:0;fill-rule:evenodd;stroke:rgb(0, 157, 255);stroke-width:1;" d="M 589.347, 322.68 L 596.907, 312.371 L 625.43, 324.57 L 617.869, 334.88 L 589.347, 322.68 z "/>
<path style="fill:rgb(255, 255, 0);fill-opacity:0;fill-rule:evenodd;stroke:rgb(0, 157, 255);stroke-width:1;" d="M 158.247, 359.107 L 173.024, 338.832 L 179.038, 330.756 L 179.725, 330.928 L 184.364, 324.399 L 189.347, 326.632 L 186.426, 330.584 L 189.863, 331.959 L 186.082, 337.113 L 182.818, 335.739 L 178.694, 341.409 L 182.474, 343.127 L 167.869, 363.23 L 158.247, 359.107 z "/>
<path style="fill:rgb(255, 0, 0);fill-opacity:0;fill-rule:evenodd;stroke:rgb(0, 157, 255);stroke-width:1;" d="M 157.045, 285.739 L 162.199, 278.694 L 167.01, 272.337 L 173.024, 263.918 L 186.254, 269.416 L 185.052, 270.962 L 170.275, 291.237 L 157.045, 285.739 z "/>
<path style="fill:rgb(0, 255, 0);fill-opacity:0;fill-rule:evenodd;stroke:rgb(0, 157, 255);stroke-width:1;" d="M 167.869, 294.502 L 170.275, 291.237 L 185.052, 270.962 L 198.969, 276.804 L 186.254, 294.33 L 179.725, 291.581 L 175.258, 297.595 L 167.869, 294.502 z "/>
<path style="fill:rgb(0, 0, 255);fill-opacity:0;fill-rule:evenodd;stroke:rgb(0, 157, 255);stroke-width:1;" d="M 502.062, 85.0515 L 507.56, 77.4914 L 508.935, 78.1787 L 542.612, 92.4399 L 549.313, 95.189 L 545.533, 100.515 L 532.646, 95.0172 L 530.928, 97.2509 L 502.062, 85.0515 z "/>
<path style="fill:rgb(255, 255, 0);fill-opacity:0;fill-rule:evenodd;stroke:rgb(0, 157, 255);stroke-width:1;" d="M 283.849, 272.68 L 302.234, 247.595 L 306.529, 241.581 L 309.966, 241.409 L 313.746, 236.254 L 319.244, 238.488 L 291.753, 275.945 L 283.849, 272.68 z "/>
<path style="fill:rgb(255, 0, 0);fill-opacity:0;fill-rule:evenodd;stroke:rgb(0, 157, 255);stroke-width:1;" d="M 216.323, 346.048 L 223.196, 336.598 L 226.976, 338.144 L 252.749, 349.141 L 245.876, 358.419 L 219.416, 347.251 L 216.323, 346.048 z "/>
<path style="fill:rgb(0, 255, 0);fill-opacity:0;fill-rule:evenodd;stroke:rgb(0, 157, 255);stroke-width:1;" d="M 135.223, 440.206 L 140.034, 433.677 L 179.21, 450.172 L 180.928, 451.031 L 176.289, 457.56 L 161.856, 451.546 L 135.223, 440.206 z "/>
<path style="fill:rgb(0, 0, 255);fill-opacity:0;fill-rule:evenodd;stroke:rgb(0, 157, 255);stroke-width:1;" d="M 351.546, 513.058 L 359.107, 502.577 L 360.997, 500 L 364.433, 495.017 L 370.962, 485.911 L 380.928, 490.034 L 361.512, 517.182 L 351.546, 513.058 z "/>
<path style="fill:rgb(255, 255, 0);fill-opacity:0;fill-rule:evenodd;stroke:rgb(0, 157, 255);stroke-width:1;" d="M 637.113, 138.66 L 653.78, 115.636 L 656.357, 112.199 L 666.323, 116.323 L 661.512, 123.196 L 647.079, 142.955 L 637.113, 138.66 z "/>
<path style="fill:rgb(255, 0, 0);fill-opacity:0;fill-rule:evenodd;stroke:rgb(0, 157, 255);stroke-width:1;" d="M 508.935, 78.1787 L 514.777, 70.2749 L 541.924, 81.9588 L 548.282, 84.5361 L 542.612, 92.4399 L 508.935, 78.1787 z "/>
<path style="fill:rgb(0, 255, 0);fill-opacity:0;fill-rule:evenodd;stroke:rgb(0, 157, 255);stroke-width:1;" d="M 667.526, 151.546 L 681.787, 131.787 L 686.254, 125.601 L 696.392, 129.897 L 693.127, 134.536 L 690.378, 133.333 L 689.003, 135.223 L 691.753, 136.426 L 685.911, 144.33 L 677.663, 155.67 L 667.526, 151.546 z "/>
<path style="fill:rgb(0, 0, 255);fill-opacity:0;fill-rule:evenodd;stroke:rgb(0, 157, 255);stroke-width:1;" d="M 467.182, 281.443 L 472.68, 274.055 L 485.911, 255.842 L 495.704, 259.966 L 481.959, 278.694 L 476.976, 285.567 L 467.182, 281.443 z "/>
<path style="fill:rgb(255, 255, 0);fill-opacity:0;fill-rule:evenodd;stroke:rgb(0, 157, 255);stroke-width:1;" d="M 395.189, 100.344 L 400.687, 92.9553 L 433.162, 106.873 L 427.663, 114.261 L 395.189, 100.344 z "/>
<path style="fill:rgb(255, 0, 0);fill-opacity:0;fill-rule:evenodd;stroke:rgb(0, 157, 255);stroke-width:1;" d="M 215.979, 743.814 L 227.148, 728.694 L 239.347, 712.199 L 239.863, 711.512 L 247.766, 714.948 L 228.866, 740.55 L 226.46, 739.519 L 221.478, 746.22 L 215.979, 743.814 z "/>
<path style="fill:rgb(0, 255, 0);fill-opacity:0;fill-rule:evenodd;stroke:rgb(0, 157, 255);stroke-width:1;" d="M 626.804, 134.364 L 640.893, 114.777 L 643.471, 111.34 L 653.78, 115.636 L 637.113, 138.66 L 626.804, 134.364 z "/>
<path style="fill:rgb(0, 0, 255);fill-opacity:0;fill-rule:evenodd;stroke:rgb(0, 157, 255);stroke-width:1;" d="M 265.636, 264.948 L 280.756, 244.33 L 284.021, 239.863 L 293.471, 243.814 L 275.086, 268.9 L 265.636, 264.948 z "/>
<path style="fill:rgb(255, 255, 0);fill-opacity:0;fill-rule:evenodd;stroke:rgb(0, 157, 255);stroke-width:1;" d="M 226.976, 338.144 L 233.505, 329.21 L 259.45, 340.034 L 252.749, 349.141 L 226.976, 338.144 z "/>
<path style="fill:rgb(255, 0, 0);fill-opacity:0;fill-rule:evenodd;stroke:rgb(0, 157, 255);stroke-width:1;" d="M 380.069, 120.79 L 385.395, 113.574 L 417.869, 127.491 L 412.543, 134.708 L 392.955, 126.289 L 380.069, 120.79 z "/>
<path style="fill:rgb(0, 255, 0);fill-opacity:0;fill-rule:evenodd;stroke:rgb(0, 157, 255);stroke-width:1;" d="M 384.708, 137.629 L 392.955, 126.289 L 412.543, 134.708 L 413.574, 135.052 L 405.155, 146.392 L 384.708, 137.629 z "/>
<path style="fill:rgb(0, 0, 255);fill-opacity:0;fill-rule:evenodd;stroke:rgb(0, 157, 255);stroke-width:1;" d="M 43.6426, 314.605 L 49.1409, 307.216 L 54.1237, 300.344 L 59.2784, 293.471 L 60.4811, 291.581 L 70.6186, 295.704 L 53.6082, 318.9 L 43.6426, 314.605 z "/>
<path style="fill:rgb(255, 255, 0);fill-opacity:0;fill-rule:evenodd;stroke:rgb(0, 157, 255);stroke-width:1;" d="M 449.313, 274.055 L 454.639, 266.838 L 468.213, 248.282 L 477.148, 252.062 L 463.746, 270.275 L 458.076, 277.835 L 449.313, 274.055 z "/>
<path style="fill:rgb(255, 0, 0);fill-opacity:0;fill-rule:evenodd;stroke:rgb(0, 157, 255);stroke-width:1;" d="M 195.876, 379.381 L 202.234, 370.79 L 228.694, 381.959 L 222.337, 390.55 L 195.876, 379.381 z "/>
<path style="fill:rgb(0, 255, 0);fill-opacity:0;fill-rule:evenodd;stroke:rgb(0, 157, 255);stroke-width:1;" d="M 657.56, 147.251 L 671.821, 127.491 L 676.289, 121.478 L 681.615, 123.711 L 677.148, 129.897 L 681.787, 131.787 L 667.526, 151.546 L 657.56, 147.251 z "/>
<path style="fill:rgb(0, 0, 255);fill-opacity:0;fill-rule:evenodd;stroke:rgb(0, 157, 255);stroke-width:1;" d="M 596.048, 121.478 L 610.309, 101.89 L 612.543, 98.6254 L 622.68, 102.921 L 620.275, 106.186 L 606.186, 125.773 L 596.048, 121.478 z "/>
<path style="fill:rgb(255, 255, 0);fill-opacity:0;fill-rule:evenodd;stroke:rgb(0, 157, 255);stroke-width:1;" d="M 278.522, 192.612 L 290.206, 176.632 L 303.093, 182.131 L 288.488, 202.062 L 283.333, 200 L 286.254, 196.048 L 278.522, 192.612 z "/>
<path style="fill:rgb(255, 0, 0);fill-opacity:0;fill-rule:evenodd;stroke:rgb(0, 157, 255);stroke-width:1;" d="M 565.464, 108.591 L 579.553, 89.1753 L 585.052, 91.4089 L 588.488, 86.5979 L 593.299, 88.6598 L 589.863, 93.4708 L 575.773, 113.058 L 565.464, 108.591 z "/>
<path style="fill:rgb(0, 255, 0);fill-opacity:0;fill-rule:evenodd;stroke:rgb(0, 157, 255);stroke-width:1;" d="M 275.086, 268.9 L 293.471, 243.814 L 302.234, 247.595 L 283.849, 272.68 L 275.086, 268.9 z "/>
<path style="fill:rgb(0, 0, 255);fill-opacity:0;fill-rule:evenodd;stroke:rgb(0, 157, 255);stroke-width:1;" d="M 196.735, 308.763 L 200, 304.124 L 216.667, 281.443 L 224.742, 284.88 L 208.076, 307.56 L 204.811, 312.199 L 196.735, 308.763 z "/>
<path style="fill:rgb(255, 255, 0);fill-opacity:0;fill-rule:evenodd;stroke:rgb(0, 157, 255);stroke-width:1;" d="M 708.935, 93.8144 L 709.45, 93.1271 L 724.227, 72.8522 L 734.708, 77.3196 L 719.416, 98.2818 L 708.935, 93.8144 z "/>
<path style="fill:rgb(255, 0, 0);fill-opacity:0;fill-rule:evenodd;stroke:rgb(0, 157, 255);stroke-width:1;" d="M 213.402, 355.326 L 219.416, 347.251 L 245.876, 358.419 L 240.034, 366.495 L 213.402, 355.326 z "/>
<path style="fill:rgb(0, 255, 0);fill-opacity:0;fill-rule:evenodd;stroke:rgb(0, 157, 255);stroke-width:1;" d="M 663.746, 200 L 671.649, 189.691 L 671.993, 189.175 L 691.581, 197.766 L 683.505, 208.591 L 665.12, 200.515 L 663.746, 200 z "/>
<path style="fill:rgb(0, 0, 255);fill-opacity:0;fill-rule:evenodd;stroke:rgb(0, 157, 255);stroke-width:1;" d="M 180.756, 301.718 L 186.254, 294.33 L 198.969, 276.804 L 200.515, 274.742 L 208.419, 278.007 L 191.924, 300.687 L 188.66, 304.983 L 180.756, 301.718 z "/>
<path style="fill:rgb(255, 255, 0);fill-opacity:0;fill-rule:evenodd;stroke:rgb(0, 157, 255);stroke-width:1;" d="M 202.234, 370.79 L 207.904, 362.715 L 234.536, 374.055 L 228.694, 381.959 L 202.234, 370.79 z "/>
<path style="fill:rgb(255, 0, 0);fill-opacity:0;fill-rule:evenodd;stroke:rgb(0, 157, 255);stroke-width:1;" d="M 88.6598, 330.412 L 107.732, 304.467 L 107.904, 304.296 L 115.979, 307.56 L 113.23, 311.34 L 96.7354, 333.849 L 88.6598, 330.412 z "/>
<path style="fill:rgb(0, 255, 0);fill-opacity:0;fill-rule:evenodd;stroke:rgb(0, 157, 255);stroke-width:1;" d="M 152.921, 720.447 L 157.216, 714.433 L 176.804, 687.801 L 183.849, 690.893 L 172.68, 706.014 L 164.261, 717.354 L 160.825, 715.979 L 156.529, 721.993 L 152.921, 720.447 z "/>
<path style="fill:rgb(0, 0, 255);fill-opacity:0;fill-rule:evenodd;stroke:rgb(0, 157, 255);stroke-width:1;" d="M 491.924, 282.818 L 505.67, 264.261 L 516.838, 269.072 L 503.608, 287.113 L 503.093, 287.629 L 491.924, 282.818 z "/>
<path style="fill:rgb(255, 255, 0);fill-opacity:0;fill-rule:evenodd;stroke:rgb(0, 157, 255);stroke-width:1;" d="M 56.8729, 567.01 L 61.8557, 559.966 L 66.323, 561.856 L 92.268, 572.68 L 87.2852, 579.725 L 61.3402, 568.9 L 56.8729, 567.01 z "/>
<path style="fill:rgb(255, 0, 0);fill-opacity:0;fill-rule:evenodd;stroke:rgb(0, 157, 255);stroke-width:1;" d="M 135.395, 713.574 L 140.206, 707.216 L 137.113, 705.842 L 156.701, 679.21 L 163.574, 682.131 L 139.347, 715.292 L 135.395, 713.574 z "/>
<path style="fill:rgb(0, 255, 0);fill-opacity:0;fill-rule:evenodd;stroke:rgb(0, 157, 255);stroke-width:1;" d="M 125.773, 709.107 L 149.828, 676.289 L 156.701, 679.21 L 137.113, 705.842 L 134.021, 704.467 L 129.381, 710.653 L 125.773, 709.107 z "/>
<path style="fill:rgb(0, 0, 255);fill-opacity:0;fill-rule:evenodd;stroke:rgb(0, 157, 255);stroke-width:1;" d="M 559.45, 316.323 L 575.945, 293.986 L 576.632, 293.127 L 585.567, 296.907 L 570.619, 317.182 L 568.385, 320.103 L 559.45, 316.323 z "/>
<path style="fill:rgb(255, 255, 0);fill-opacity:0;fill-rule:evenodd;stroke:rgb(0, 157, 255);stroke-width:1;" d="M 647.079, 142.955 L 661.512, 123.196 L 671.821, 127.491 L 657.56, 147.251 L 647.079, 142.955 z "/>
<path style="fill:rgb(255, 0, 0);fill-opacity:0;fill-rule:evenodd;stroke:rgb(0, 157, 255);stroke-width:1;" d="M 616.323, 130.069 L 630.584, 110.481 L 640.893, 114.777 L 626.804, 134.364 L 616.323, 130.069 z "/>
<path style="fill:rgb(0, 255, 0);fill-opacity:0;fill-rule:evenodd;stroke:rgb(0, 157, 255);stroke-width:1;" d="M 53.6082, 318.9 L 70.6186, 295.704 L 79.3814, 299.485 L 62.3711, 322.68 L 53.6082, 318.9 z "/>
<path style="fill:rgb(0, 0, 255);fill-opacity:0;fill-rule:evenodd;stroke:rgb(0, 157, 255);stroke-width:1;" d="M 575.773, 113.058 L 589.863, 93.4708 L 600.172, 97.7663 L 586.082, 117.354 L 575.773, 113.058 z "/>
<path style="fill:rgb(255, 255, 0);fill-opacity:0;fill-rule:evenodd;stroke:rgb(0, 157, 255);stroke-width:1;" d="M 139.347, 715.292 L 163.574, 682.131 L 170.275, 685.052 L 150.687, 711.684 L 147.766, 710.309 L 142.955, 716.838 L 139.347, 715.292 z "/>
<path style="fill:rgb(255, 0, 0);fill-opacity:0;fill-rule:evenodd;stroke:rgb(0, 157, 255);stroke-width:1;" d="M 524.742, 296.048 L 538.144, 278.179 L 549.141, 282.818 L 544.845, 288.66 L 535.911, 300.859 L 524.742, 296.048 z "/>
<path style="fill:rgb(0, 255, 0);fill-opacity:0;fill-rule:evenodd;stroke:rgb(0, 157, 255);stroke-width:1;" d="M 121.134, 344.158 L 137.801, 321.649 L 146.564, 325.258 L 144.502, 328.179 L 129.897, 347.938 L 121.134, 344.158 z "/>
<path style="fill:rgb(0, 0, 255);fill-opacity:0;fill-rule:evenodd;stroke:rgb(0, 157, 255);stroke-width:1;" d="M 129.897, 347.938 L 144.502, 328.179 L 147.079, 329.21 L 148.969, 326.632 L 149.828, 325.945 L 150.859, 325.601 L 151.546, 325.601 L 152.749, 325.773 L 153.265, 325.945 L 154.296, 326.632 L 154.467, 327.148 L 154.639, 328.007 L 154.467, 329.038 L 152.577, 331.443 L 153.436, 331.959 L 139.347, 351.031 L 138.832, 351.718 L 129.897, 347.938 z "/>
<path style="fill:rgb(255, 255, 0);fill-opacity:0;fill-rule:evenodd;stroke:rgb(0, 157, 255);stroke-width:1;" d="M 606.186, 125.773 L 620.275, 106.186 L 630.584, 110.481 L 616.323, 130.069 L 606.186, 125.773 z "/>
<path style="fill:rgb(255, 0, 0);fill-opacity:0;fill-rule:evenodd;stroke:rgb(0, 157, 255);stroke-width:1;" d="M 699.656, 89.0034 L 714.433, 68.7285 L 724.227, 72.8522 L 709.45, 93.1271 L 699.656, 89.0034 z "/>
<path style="fill:rgb(0, 255, 0);fill-opacity:0;fill-rule:evenodd;stroke:rgb(0, 157, 255);stroke-width:1;" d="M 207.904, 362.715 L 213.402, 355.326 L 240.034, 366.495 L 234.536, 374.055 L 207.904, 362.715 z "/>
<path style="fill:rgb(0, 0, 255);fill-opacity:0;fill-rule:evenodd;stroke:rgb(0, 157, 255);stroke-width:1;" d="M 148.625, 354.983 L 162.887, 335.395 L 163.402, 334.708 L 173.024, 338.832 L 158.247, 359.107 L 148.625, 354.983 z "/>
<path style="fill:rgb(255, 255, 0);fill-opacity:0;fill-rule:evenodd;stroke:rgb(0, 157, 255);stroke-width:1;" d="M 586.082, 117.354 L 600.172, 97.7663 L 610.309, 101.89 L 596.048, 121.478 L 586.082, 117.354 z "/>
<path style="fill:rgb(255, 0, 0);fill-opacity:0;fill-rule:evenodd;stroke:rgb(0, 157, 255);stroke-width:1;" d="M 555.498, 104.467 L 569.588, 84.8797 L 579.553, 89.1753 L 565.464, 108.591 L 555.498, 104.467 z "/>
<path style="fill:rgb(0, 255, 0);fill-opacity:0;fill-rule:evenodd;stroke:rgb(0, 157, 255);stroke-width:1;" d="M 149.485, 718.9 L 153.78, 712.887 L 150.687, 711.684 L 170.275, 685.052 L 176.804, 687.801 L 157.216, 714.433 L 152.921, 720.447 L 149.485, 718.9 z "/>
<path style="fill:rgb(0, 0, 255);fill-opacity:0;fill-rule:evenodd;stroke:rgb(0, 157, 255);stroke-width:1;" d="M 256.357, 260.997 L 271.478, 240.378 L 280.756, 244.33 L 265.636, 264.948 L 256.357, 260.997 z "/>
<path style="fill:rgb(255, 255, 0);fill-opacity:0;fill-rule:evenodd;stroke:rgb(0, 157, 255);stroke-width:1;" d="M 503.608, 287.113 L 516.838, 269.072 L 527.491, 273.54 L 514.261, 291.581 L 503.608, 287.113 z "/>
<path style="fill:rgb(255, 0, 0);fill-opacity:0;fill-rule:evenodd;stroke:rgb(0, 157, 255);stroke-width:1;" d="M 514.261, 291.581 L 527.491, 273.54 L 538.144, 278.179 L 524.742, 296.048 L 514.261, 291.581 z "/>
<path style="fill:rgb(0, 255, 0);fill-opacity:0;fill-rule:evenodd;stroke:rgb(0, 157, 255);stroke-width:1;" d="M 167.869, 363.23 L 182.474, 343.127 L 191.924, 347.079 L 177.32, 367.182 L 167.869, 363.23 z "/>
<path style="fill:rgb(0, 0, 255);fill-opacity:0;fill-rule:evenodd;stroke:rgb(0, 157, 255);stroke-width:1;" d="M 96.7354, 333.849 L 113.23, 311.34 L 121.649, 314.777 L 104.983, 337.457 L 96.7354, 333.849 z "/>
<path style="fill:rgb(255, 255, 0);fill-opacity:0;fill-rule:evenodd;stroke:rgb(0, 157, 255);stroke-width:1;" d="M 191.924, 300.687 L 208.419, 278.007 L 216.667, 281.443 L 200, 304.124 L 191.924, 300.687 z "/>
<path style="fill:rgb(255, 0, 0);fill-opacity:0;fill-rule:evenodd;stroke:rgb(0, 157, 255);stroke-width:1;" d="M 41.4089, 596.392 L 46.7354, 589.175 L 72.5086, 600 L 67.354, 607.216 L 41.4089, 596.392 z "/>
<path style="fill:rgb(0, 255, 0);fill-opacity:0;fill-rule:evenodd;stroke:rgb(0, 157, 255);stroke-width:1;" d="M 177.32, 367.182 L 191.924, 347.079 L 201.203, 351.031 L 186.426, 371.134 L 177.32, 367.182 z "/>
<path style="fill:rgb(0, 0, 255);fill-opacity:0;fill-rule:evenodd;stroke:rgb(0, 157, 255);stroke-width:1;" d="M 62.3711, 322.68 L 79.3814, 299.485 L 87.2852, 302.921 L 70.4467, 325.945 L 62.3711, 322.68 z "/>
<path style="fill:rgb(255, 255, 0);fill-opacity:0;fill-rule:evenodd;stroke:rgb(0, 157, 255);stroke-width:1;" d="M 481.959, 278.694 L 495.704, 259.966 L 505.67, 264.261 L 491.924, 282.818 L 481.959, 278.694 z "/>
<path style="fill:rgb(255, 0, 0);fill-opacity:0;fill-rule:evenodd;stroke:rgb(0, 157, 255);stroke-width:1;" d="M 113.058, 340.722 L 129.725, 318.213 L 137.801, 321.649 L 121.134, 344.158 L 113.058, 340.722 z "/>
<path style="fill:rgb(0, 255, 0);fill-opacity:0;fill-rule:evenodd;stroke:rgb(0, 157, 255);stroke-width:1;" d="M 139.347, 351.031 L 153.436, 331.959 L 153.608, 331.443 L 162.887, 335.395 L 148.625, 354.983 L 139.347, 351.031 z "/>
<path style="fill:rgb(0, 0, 255);fill-opacity:0;fill-rule:evenodd;stroke:rgb(0, 157, 255);stroke-width:1;" d="M 104.983, 337.457 L 121.649, 314.777 L 129.725, 318.213 L 113.058, 340.722 L 104.983, 337.457 z "/>
<path style="fill:rgb(255, 255, 0);fill-opacity:0;fill-rule:evenodd;stroke:rgb(0, 157, 255);stroke-width:1;" d="M 51.5464, 582.474 L 56.5292, 575.43 L 82.4742, 586.254 L 77.4914, 593.299 L 51.5464, 582.474 z "/>
<path style="fill:rgb(255, 0, 0);fill-opacity:0;fill-rule:evenodd;stroke:rgb(0, 157, 255);stroke-width:1;" d="M 66.323, 561.856 L 71.4777, 554.983 L 97.2509, 565.808 L 92.268, 572.68 L 66.323, 561.856 z "/>
<path style="fill:rgb(0, 255, 0);fill-opacity:0;fill-rule:evenodd;stroke:rgb(0, 157, 255);stroke-width:1;" d="M 46.7354, 589.175 L 51.5464, 582.474 L 77.4914, 593.299 L 72.5086, 600 L 46.7354, 589.175 z "/>
<path style="fill:rgb(0, 0, 255);fill-opacity:0;fill-rule:evenodd;stroke:rgb(0, 157, 255);stroke-width:1;" d="M 56.5292, 575.43 L 61.3402, 568.9 L 87.2852, 579.725 L 82.4742, 586.254 L 56.5292, 575.43 z "/>
<path style="fill:rgb(255, 255, 0);fill-opacity:0;fill-rule:evenodd;stroke:rgb(0, 157, 255);stroke-width:1;" d="M 436.598, 259.278 L 450.172, 240.722 L 459.278, 244.502 L 445.533, 263.058 L 436.598, 259.278 z "/>
<path style="fill:rgb(255, 0, 0);fill-opacity:0;fill-rule:evenodd;stroke:rgb(0, 157, 255);stroke-width:1;" d="M 248.11, 257.56 L 263.23, 236.77 L 271.478, 240.378 L 256.357, 260.997 L 248.11, 257.56 z "/>
<path style="fill:rgb(0, 255, 0);fill-opacity:0;fill-rule:evenodd;stroke:rgb(0, 157, 255);stroke-width:1;" d="M 445.533, 263.058 L 459.278, 244.502 L 468.213, 248.282 L 454.639, 266.838 L 445.533, 263.058 z "/>
<path style="fill:rgb(0, 0, 255);fill-opacity:0;fill-rule:evenodd;stroke:rgb(0, 157, 255);stroke-width:1;" d="M 570.619, 317.182 L 585.567, 296.907 L 593.814, 300.344 L 578.866, 320.619 L 570.619, 317.182 z "/>
<path style="fill:rgb(255, 255, 0);fill-opacity:0;fill-rule:evenodd;stroke:rgb(0, 157, 255);stroke-width:1;" d="M 463.746, 270.275 L 477.148, 252.062 L 485.911, 255.842 L 472.68, 274.055 L 463.746, 270.275 z "/>
<path style="fill:rgb(255, 0, 0);fill-opacity:0;fill-rule:evenodd;stroke:rgb(0, 157, 255);stroke-width:1;" d="M 228.866, 308.247 L 241.065, 291.753 L 241.581, 291.065 L 250.687, 295.017 L 238.144, 312.199 L 228.866, 308.247 z "/>
<path style="fill:rgb(0, 255, 0);fill-opacity:0;fill-rule:evenodd;stroke:rgb(0, 157, 255);stroke-width:1;" d="M 247.251, 177.835 L 252.921, 169.931 L 259.622, 160.997 L 268.9, 164.948 L 256.529, 181.787 L 247.251, 177.835 z "/>
<path style="fill:rgb(0, 0, 255);fill-opacity:0;fill-rule:evenodd;stroke:rgb(0, 157, 255);stroke-width:1;" d="M 238.144, 312.199 L 250.687, 295.017 L 259.794, 298.797 L 247.079, 315.979 L 238.144, 312.199 z "/>
<path style="fill:rgb(255, 255, 0);fill-opacity:0;fill-rule:evenodd;stroke:rgb(0, 157, 255);stroke-width:1;" d="M 226.976, 249.485 L 242.44, 228.694 L 249.656, 231.787 L 234.364, 252.577 L 226.976, 249.485 z "/>
<path style="fill:rgb(255, 0, 0);fill-opacity:0;fill-rule:evenodd;stroke:rgb(0, 157, 255);stroke-width:1;" d="M 256.529, 181.787 L 268.9, 164.948 L 277.835, 168.729 L 265.464, 185.567 L 256.529, 181.787 z "/>
<path style="fill:rgb(0, 255, 0);fill-opacity:0;fill-rule:evenodd;stroke:rgb(0, 157, 255);stroke-width:1;" d="M 220.447, 246.735 L 228.522, 235.911 L 237.285, 223.883 L 243.814, 226.632 L 242.44, 228.694 L 226.976, 249.485 L 220.447, 246.735 z "/>
<path style="fill:rgb(0, 0, 255);fill-opacity:0;fill-rule:evenodd;stroke:rgb(0, 157, 255);stroke-width:1;" d="M 376.289, 257.732 L 380.412, 252.062 L 405.326, 262.543 L 401.375, 268.041 L 376.289, 257.732 z "/>
<path style="fill:rgb(255, 255, 0);fill-opacity:0;fill-rule:evenodd;stroke:rgb(0, 157, 255);stroke-width:1;" d="M 247.079, 315.979 L 259.794, 298.797 L 267.698, 302.062 L 266.838, 303.265 L 254.983, 319.416 L 247.079, 315.979 z "/>
<path style="fill:rgb(255, 0, 0);fill-opacity:0;fill-rule:evenodd;stroke:rgb(0, 157, 255);stroke-width:1;" d="M 365.292, 537.285 L 370.103, 530.756 L 370.103, 530.756 L 370.619, 530.069 L 383.849, 535.567 L 378.522, 542.955 L 365.292, 537.285 z "/>
<path style="fill:rgb(0, 255, 0);fill-opacity:0;fill-rule:evenodd;stroke:rgb(0, 157, 255);stroke-width:1;" d="M 418.041, 521.478 L 421.306, 517.182 L 426.632, 509.622 L 435.911, 513.402 L 430.069, 521.478 L 426.117, 519.931 L 423.54, 523.711 L 418.041, 521.478 z "/>
<path style="fill:rgb(0, 0, 255);fill-opacity:0;fill-rule:evenodd;stroke:rgb(0, 157, 255);stroke-width:1;" d="M 33.677, 406.529 L 38.3162, 400 L 51.7182, 405.67 L 47.5945, 411.684 L 47.079, 412.199 L 33.677, 406.529 z "/>
<path style="fill:rgb(255, 255, 0);fill-opacity:0;fill-rule:evenodd;stroke:rgb(0, 157, 255);stroke-width:1;" d="M 591.409, 307.732 L 596.22, 301.375 L 598.797, 302.577 L 600.687, 300 L 604.639, 301.718 L 596.907, 312.371 L 592.784, 310.653 L 594.158, 308.935 L 591.409, 307.732 z "/>
<path style="fill:rgb(255, 0, 0);fill-opacity:0;fill-rule:evenodd;stroke:rgb(0, 157, 255);stroke-width:1;" d="M 27.3196, 732.474 L 58.2474, 690.378 L 99.4845, 707.904 L 97.079, 711.168 L 101.718, 713.058 L 90.2062, 728.866 L 84.8797, 726.632 L 79.5533, 733.677 L 88.6598, 737.629 L 77.4914, 752.921 L 62.1993, 747.423 L 27.3196, 732.474 z "/>
<path style="fill:rgb(0, 255, 0);fill-opacity:0;fill-rule:evenodd;stroke:rgb(0, 157, 255);stroke-width:1;" d="M 0, 514.261 L 7.21649, 504.296 L 8.0756, 503.093 L 18.3849, 507.388 L 26.6323, 496.048 L 16.323, 491.581 L 24.3986, 480.584 L 69.0722, 499.485 L 60.9966, 510.481 L 52.2337, 506.873 L 49.8282, 510.137 L 48.2818, 509.622 L 42.4399, 517.526 L 52.7491, 521.993 L 44.8454, 532.99 L 0, 514.261 z "/>
<path style="fill:rgb(0, 0, 255);fill-opacity:0;fill-rule:evenodd;stroke:rgb(0, 157, 255);stroke-width:1;" d="M 21.9931, 446.564 L 30.0687, 435.567 L 41.9244, 440.55 L 43.6426, 438.144 L 43.6426, 436.254 L 46.7354, 431.959 L 48.4536, 431.615 L 49.3127, 430.412 L 48.7973, 428.522 L 38.488, 424.055 L 40.0344, 421.993 L 47.079, 412.199 L 47.5945, 411.684 L 87.8007, 428.694 L 80.0687, 439.347 L 78.6942, 441.237 L 66.4948, 436.082 L 64.7766, 438.488 L 66.1512, 439.003 L 61.6838, 445.017 L 60.3093, 444.502 L 58.2474, 447.423 L 70.4467, 452.405 L 69.4158, 453.608 L 62.1993, 463.574 L 21.9931, 446.564 z "/>
<path style="fill:rgb(255, 255, 0);fill-opacity:0;fill-rule:evenodd;stroke:rgb(0, 157, 255);stroke-width:1;" d="M 18.2131, 382.818 L 34.8797, 359.966 L 30.9278, 358.247 L 39.8625, 346.048 L 68.2131, 358.076 L 59.2784, 370.275 L 55.1546, 368.557 L 38.488, 391.409 L 18.2131, 382.818 z "/>
<path style="fill:rgb(255, 0, 0);fill-opacity:0;fill-rule:evenodd;stroke:rgb(0, 157, 255);stroke-width:1;" d="M 8.76289, 581.959 L 26.1168, 558.076 L 28.3505, 558.935 L 37.1134, 547.079 L 47.7663, 551.546 L 39.6907, 562.543 L 37.2852, 561.512 L 36.4261, 562.371 L 41.2371, 564.433 L 24.055, 588.316 L 8.76289, 581.959 z "/>
<path style="fill:rgb(0, 255, 0);fill-opacity:0;fill-rule:evenodd;stroke:rgb(0, 157, 255);stroke-width:1;" d="M 26.1168, 270.447 L 31.2715, 263.402 L 54.1237, 273.024 L 69.4158, 279.553 L 64.2612, 286.426 L 26.1168, 270.447 z "/>
<path style="fill:rgb(0, 0, 255);fill-opacity:0;fill-rule:evenodd;stroke:rgb(0, 157, 255);stroke-width:1;" d="M 21.134, 277.32 L 26.1168, 270.447 L 64.2612, 286.426 L 60.4811, 291.581 L 59.2784, 293.471 L 53.6082, 291.065 L 21.134, 277.32 z "/>
<path style="fill:rgb(255, 255, 0);fill-opacity:0;fill-rule:evenodd;stroke:rgb(0, 157, 255);stroke-width:1;" d="M 10.9966, 291.065 L 15.9794, 284.192 L 48.6254, 297.938 L 54.1237, 300.344 L 49.1409, 307.216 L 46.5636, 306.186 L 10.9966, 291.065 z "/>
<path style="fill:rgb(255, 0, 0);fill-opacity:0;fill-rule:evenodd;stroke:rgb(0, 157, 255);stroke-width:1;" d="M 24.055, 588.316 L 41.2371, 564.433 L 43.299, 561.684 L 45.5326, 562.543 L 48.11, 558.763 L 52.4055, 560.481 L 46.0481, 569.244 L 48.2818, 570.103 L 43.6426, 576.46 L 45.7045, 577.32 L 38.1443, 587.629 L 36.7698, 586.942 L 32.9897, 592.096 L 24.055, 588.316 z "/>
<path style="fill:rgb(0, 255, 0);fill-opacity:0;fill-rule:evenodd;stroke:rgb(0, 157, 255);stroke-width:1;" d="M 15.9794, 284.192 L 21.134, 277.32 L 53.6082, 291.065 L 48.6254, 297.938 L 15.9794, 284.192 z "/>
<path style="fill:rgb(0, 0, 255);fill-opacity:0;fill-rule:evenodd;stroke:rgb(0, 157, 255);stroke-width:1;" d="M 162.199, 83.677 L 222.852, 0 L 304.639, 34.1924 L 353.608, 54.811 L 338.316, 75.945 L 331.959, 73.1959 L 324.914, 82.9897 L 325.43, 83.1615 L 318.213, 93.1271 L 319.931, 95.189 L 305.155, 115.808 L 306.357, 117.354 L 310.653, 119.072 L 295.876, 139.519 L 162.199, 83.677 z M 206.701, 75.4296 L 221.649, 81.6151 L 226.289, 75.2577 L 265.979, 91.9244 L 261.34, 98.2818 L 277.663, 104.983 L 307.904, 63.2302 L 298.797, 59.4502 L 295.361, 64.2612 L 244.845, 43.1271 L 247.423, 39.3471 L 236.254, 34.7079 L 206.701, 75.4296 z "/>
<path style="fill:rgb(255, 255, 0);fill-opacity:0;fill-rule:evenodd;stroke:rgb(0, 157, 255);stroke-width:1;" d="M 333.849, 92.4399 L 342.784, 80.4124 L 354.639, 85.3952 L 360.825, 76.9759 L 358.591, 76.1168 L 360.137, 73.8832 L 350.687, 69.7595 L 360.137, 57.0447 L 402.577, 75.2577 L 402.405, 75.6014 L 394.158, 86.7698 L 384.708, 82.8179 L 381.787, 86.5979 L 379.038, 85.3952 L 373.54, 93.1271 L 385.567, 98.2818 L 376.46, 110.653 L 333.849, 92.4399 z "/>
<path style="fill:rgb(255, 0, 0);fill-opacity:0;fill-rule:evenodd;stroke:rgb(0, 157, 255);stroke-width:1;" d="M 668.385, 75.945 L 683.162, 55.6701 L 693.986, 60.3093 L 679.21, 80.5842 L 668.385, 75.945 z "/>
<path style="fill:rgb(0, 255, 0);fill-opacity:0;fill-rule:evenodd;stroke:rgb(0, 157, 255);stroke-width:1;" d="M 689.003, 84.5361 L 703.78, 64.2612 L 714.433, 68.7285 L 699.656, 89.0034 L 689.003, 84.5361 z "/>
<path style="fill:rgb(0, 0, 255);fill-opacity:0;fill-rule:evenodd;stroke:rgb(0, 157, 255);stroke-width:1;" d="M 514.777, 70.2749 L 520.103, 62.8866 L 547.423, 74.3986 L 541.924, 81.9588 L 514.777, 70.2749 z "/>
<path style="fill:rgb(255, 255, 0);fill-opacity:0;fill-rule:evenodd;stroke:rgb(0, 157, 255);stroke-width:1;" d="M 679.21, 80.5842 L 693.986, 60.3093 L 703.78, 64.2612 L 689.003, 84.5361 L 679.21, 80.5842 z "/>
</svg>