<?xml version="1.0" encoding="iso-8859-1" standalone="no"?>
<!DOCTYPE svg PUBLIC "-//W3C//DTD SVG 1.0//EN" "http://www.w3.org/TR/2001/REC-SVG-20010904/DTD/svg10.dtd">
<svg xmlns="http://www.w3.org/2000/svg" width="969" height="800">
<path style="fill:rgb(255, 0, 0);fill-opacity:0;fill-rule:evenodd;stroke:rgb(255, 0, 211);stroke-width:1;" d="M 161.368, 371.014 L 397.624, 358.85 L 485.626, 478.593 L 490.948, 533.713 L 493.799, 533.523 L 495.51, 551.77 L 492.659, 551.96 L 492.849, 553.861 L 374.816, 560.513 L 358.66, 561.464 L 243.098, 567.926 L 225.802, 568.876 L 184.747, 571.347 L 183.987, 563.744 L 177.714, 563.934 L 176.004, 546.638 L 182.276, 546.258 L 178.285, 505.203 L 173.153, 505.583 L 171.252, 487.717 L 176.574, 487.527 L 172.392, 446.282 L 168.021, 446.662 L 166.31, 429.176 L 170.682, 428.986 L 166.69, 387.55 L 163.079, 387.741 L 161.368, 371.014 z "/>
<path style="fill:rgb(0, 255, 0);fill-opacity:0;fill-rule:evenodd;stroke:rgb(255, 0, 211);stroke-width:1;" d="M 174.483, 596.056 L 228.083, 593.015 L 245.569, 592.065 L 360.941, 585.602 L 377.287, 584.652 L 472.321, 579.33 L 473.652, 593.015 L 476.503, 622.286 L 489.427, 621.525 L 523.26, 667.522 L 494.939, 751.342 L 486.386, 751.532 L 486.576, 757.615 L 392.492, 761.986 L 375.576, 763.127 L 263.435, 769.019 L 246.329, 769.779 L 195.391, 772.44 L 185.697, 646.424 L 181.706, 604.229 L 175.434, 604.609 L 174.483, 596.056 z "/>
<path style="fill:rgb(0, 0, 255);fill-opacity:0;fill-rule:evenodd;stroke:rgb(255, 0, 211);stroke-width:1;" d="M 273.129, 66.7142 L 344.595, 36.1131 L 378.617, 24.3288 L 515.467, 239.677 L 520.219, 247.47 L 422.713, 289.285 L 325.018, 157.757 L 336.992, 152.625 L 273.129, 66.7142 z "/>
<path style="fill:rgb(255, 255, 0);fill-opacity:0;fill-rule:evenodd;stroke:rgb(255, 0, 211);stroke-width:1;" d="M 627.227, 559.183 L 670.183, 486.576 L 670.753, 486.006 L 672.274, 485.246 L 673.984, 484.866 L 674.935, 484.866 L 676.835, 485.056 L 678.356, 486.006 L 767.498, 606.89 L 768.258, 608.791 L 768.449, 610.881 L 767.688, 612.782 L 727.964, 680.257 L 723.022, 682.347 L 719.221, 684.058 L 627.227, 559.183 z "/>
<path style="fill:rgb(255, 0, 0);fill-opacity:0;fill-rule:evenodd;stroke:rgb(255, 0, 211);stroke-width:1;" d="M 862.723, 670.563 L 881.54, 637.111 L 886.861, 636.351 L 917.273, 581.801 L 938.56, 588.643 L 937.99, 589.594 L 942.552, 591.114 L 945.593, 585.602 L 953.386, 588.073 L 969.922, 593.395 L 953.956, 621.905 L 936.66, 616.393 L 938.18, 613.542 L 929.437, 610.691 L 919.553, 627.988 L 928.487, 630.839 L 929.627, 628.748 L 946.923, 634.45 L 929.817, 665.051 L 912.521, 659.539 L 914.802, 655.358 L 905.868, 652.507 L 895.795, 670.563 L 903.397, 672.844 L 904.158, 671.703 L 922.785, 677.786 L 900.356, 717.7 L 899.596, 718.08 L 898.456, 718.08 L 897.885, 717.89 L 862.723, 670.563 z "/>
<path style="fill:rgb(0, 255, 0);fill-opacity:0;fill-rule:evenodd;stroke:rgb(255, 0, 211);stroke-width:1;" d="M 215.158, 99.7862 L 248.04, 78.8786 L 322.737, 180.946 L 315.514, 183.987 L 331.1, 205.274 L 310.953, 213.828 L 295.367, 192.54 L 286.054, 196.531 L 215.158, 99.7862 z "/>
<path style="fill:rgb(0, 0, 255);fill-opacity:0;fill-rule:evenodd;stroke:rgb(255, 0, 211);stroke-width:1;" d="M 817.296, 608.411 L 817.486, 607.08 L 818.057, 605.56 L 825.659, 592.065 L 828.7, 593.015 L 831.171, 588.263 L 828.32, 587.313 L 838.584, 569.256 L 851.129, 573.248 L 850.748, 574.008 L 866.904, 579.14 L 869.755, 574.198 L 867.094, 573.438 L 870.896, 566.785 L 874.317, 567.926 L 877.548, 562.224 L 849.418, 552.91 L 864.433, 526.491 L 881.92, 532.193 L 879.449, 536.565 L 887.052, 539.035 L 887.812, 537.705 L 892.564, 539.225 L 896.175, 532.763 L 915.562, 539.035 L 915.942, 540.366 L 880.209, 603.469 L 864.623, 598.337 L 864.053, 599.097 L 859.682, 597.767 L 858.161, 600.238 L 852.649, 598.527 L 850.178, 602.899 L 855.69, 604.609 L 854.55, 606.7 L 874.697, 613.352 L 863.103, 633.5 L 866.904, 634.64 L 856.641, 652.697 L 851.129, 655.167 L 837.063, 636.351 L 837.444, 632.739 L 834.022, 627.608 L 829.081, 625.517 L 818.437, 611.072 L 817.486, 609.551 L 817.296, 608.411 z "/>
<path style="fill:rgb(255, 255, 0);fill-opacity:0;fill-rule:evenodd;stroke:rgb(255, 0, 211);stroke-width:1;" d="M 0, 325.968 L 56.6405, 323.307 L 63.483, 408.458 L 42.0052, 409.408 L 10.6439, 410.929 L 6.84248, 411.119 L 0, 325.968 z "/>
<path style="fill:rgb(255, 0, 0);fill-opacity:0;fill-rule:evenodd;stroke:rgb(255, 0, 211);stroke-width:1;" d="M 880.209, 292.516 L 885.151, 284.153 L 912.331, 293.276 L 916.322, 286.624 L 889.142, 277.311 L 901.117, 256.973 L 942.362, 271.038 L 945.403, 271.228 L 946.923, 268.567 L 965.93, 275.03 L 953.576, 296.127 L 931.148, 288.525 L 925.445, 298.028 L 948.064, 305.631 L 936.85, 324.828 L 914.231, 317.225 L 912.331, 320.456 L 914.802, 328.249 L 931.338, 333.951 L 908.529, 373.105 L 904.728, 373.866 L 890.283, 325.778 L 899.216, 324.258 L 897.125, 317.225 L 888.002, 318.746 L 880.209, 292.516 z "/>
<path style="fill:rgb(0, 255, 0);fill-opacity:0;fill-rule:evenodd;stroke:rgb(255, 0, 211);stroke-width:1;" d="M 773.39, 445.902 L 792.967, 412.259 L 807.603, 415.681 L 808.933, 412.259 L 825.279, 416.061 L 819.007, 431.266 L 821.858, 432.027 L 819.007, 438.869 L 828.7, 441.15 L 831.361, 434.498 L 833.452, 435.068 L 839.724, 419.862 L 853.98, 423.093 L 852.269, 427.085 L 873.937, 432.217 L 857.211, 461.107 L 842.005, 456.165 L 839.154, 456.545 L 835.543, 455.215 L 832.882, 459.967 L 838.584, 461.867 L 837.254, 464.338 L 852.459, 469.28 L 839.154, 492.088 L 818.437, 485.246 L 816.156, 489.237 L 797.339, 482.965 L 800.57, 477.453 L 802.851, 476.693 L 816.536, 453.124 L 799.62, 449.513 L 798.86, 451.984 L 773.39, 445.902 z "/>
<path style="fill:rgb(0, 0, 255);fill-opacity:0;fill-rule:evenodd;stroke:rgb(255, 0, 211);stroke-width:1;" d="M 736.137, 499.121 L 769.399, 484.676 L 783.654, 503.683 L 786.885, 502.922 L 793.918, 490.948 L 793.538, 489.427 L 797.339, 482.965 L 816.156, 489.237 L 813.305, 493.989 L 834.022, 501.022 L 820.718, 523.64 L 805.702, 518.508 L 802.851, 519.648 L 798.67, 518.128 L 796.009, 522.499 L 801.33, 524.4 L 800, 526.681 L 815.966, 532.003 L 793.918, 569.827 L 792.777, 570.207 L 791.447, 570.207 L 790.116, 569.827 L 789.166, 569.066 L 762.556, 534.284 L 776.812, 528.201 L 774.911, 525.731 L 780.043, 523.45 L 776.812, 519.078 L 773.01, 520.599 L 770.919, 519.838 L 756.284, 526.111 L 736.137, 499.121 z "/>
<path style="fill:rgb(255, 255, 0);fill-opacity:0;fill-rule:evenodd;stroke:rgb(255, 0, 211);stroke-width:1;" d="M 695.272, 443.431 L 702.495, 431.456 L 709.717, 433.927 L 710.287, 433.167 L 720.741, 436.778 L 723.972, 436.398 L 730.245, 438.489 L 733.856, 432.407 L 727.774, 430.316 L 725.683, 428.415 L 708.197, 422.333 L 726.253, 392.112 L 742.979, 395.914 L 741.079, 400.475 L 771.3, 407.318 L 749.442, 443.811 L 748.301, 443.431 L 744.12, 450.463 L 760.086, 471.941 L 726.823, 486.006 L 695.272, 443.431 z "/>
<path style="fill:rgb(255, 0, 0);fill-opacity:0;fill-rule:evenodd;stroke:rgb(255, 0, 211);stroke-width:1;" d="M 246.329, 769.779 L 263.435, 769.019 L 266.096, 799.05 L 249.18, 800 L 246.329, 769.779 z "/>
<path style="fill:rgb(0, 255, 0);fill-opacity:0;fill-rule:evenodd;stroke:rgb(255, 0, 211);stroke-width:1;" d="M 375.576, 763.127 L 392.492, 761.986 L 394.773, 790.687 L 378.427, 793.158 L 375.576, 763.127 z "/>
<path style="fill:rgb(0, 0, 255);fill-opacity:0;fill-rule:evenodd;stroke:rgb(255, 0, 211);stroke-width:1;" d="M 801.521, 405.417 L 810.644, 387.17 L 826.61, 391.922 L 824.709, 395.914 L 831.361, 400.855 L 829.651, 404.467 L 825.659, 412.45 L 801.521, 405.417 z "/>
<path style="fill:rgb(255, 255, 0);fill-opacity:0;fill-rule:evenodd;stroke:rgb(255, 0, 211);stroke-width:1;" d="M 225.802, 568.876 L 243.098, 567.926 L 245.569, 592.065 L 228.083, 593.015 L 225.802, 568.876 z "/>
<path style="fill:rgb(255, 0, 0);fill-opacity:0;fill-rule:evenodd;stroke:rgb(255, 0, 211);stroke-width:1;" d="M 358.66, 561.464 L 374.816, 560.513 L 377.287, 584.652 L 360.941, 585.602 L 358.66, 561.464 z "/>
<path style="fill:rgb(0, 255, 0);fill-opacity:0;fill-rule:evenodd;stroke:rgb(255, 0, 211);stroke-width:1;" d="M 428.986, 26.9898 L 440.39, 6.65241 L 458.636, 0 L 484.105, 8.74317 L 668.092, 78.8786 L 822.238, 131.718 L 692.421, 352.388 L 691.661, 352.198 L 681.587, 369.114 L 662.39, 374.246 L 645.094, 368.734 L 428.986, 26.9898 z M 647.185, 346.876 L 654.977, 359.8 L 662.01, 362.081 L 670.563, 359.42 L 675.125, 351.057 L 671.894, 344.785 L 651.936, 338.323 L 647.185, 346.876 z M 443.431, 25.2792 L 454.835, 43.3357 L 462.248, 45.9967 L 471.941, 28.5103 L 467.95, 15.0154 L 458.446, 11.4041 L 449.703, 14.6353 L 443.431, 25.2792 z "/>
</svg>