<?xml version="1.0" encoding="iso-8859-1" standalone="no"?>
<!DOCTYPE svg PUBLIC "-//W3C//DTD SVG 1.0//EN" "http://www.w3.org/TR/2001/REC-SVG-20010904/DTD/svg10.dtd">
<svg xmlns="http://www.w3.org/2000/svg" width="584" height="800">
<path style="fill:rgb(255, 0, 0);fill-opacity:0;fill-rule:evenodd;stroke:rgb(53, 0, 255);stroke-width:1;" d="M 488.727, 269.186 L 499.377, 254.241 L 515.01, 260.769 L 537.857, 228.817 L 522.396, 222.461 L 533.219, 207.687 L 548.679, 214.043 L 560.189, 197.896 L 579.429, 205.97 L 567.919, 222.117 L 584.239, 228.989 L 573.588, 243.762 L 557.097, 236.891 L 534.078, 269.014 L 550.397, 275.886 L 539.747, 290.659 L 523.255, 283.788 L 511.746, 299.764 L 492.506, 291.69 L 504.187, 275.714 L 488.727, 269.186 z "/>
<path style="fill:rgb(0, 255, 0);fill-opacity:0;fill-rule:evenodd;stroke:rgb(53, 0, 255);stroke-width:1;" d="M 304.402, 272.794 L 315.053, 258.364 L 330.513, 265.063 L 354.048, 232.94 L 338.587, 226.412 L 349.238, 211.81 L 364.87, 218.51 L 376.723, 202.362 L 395.448, 210.264 L 383.766, 226.412 L 399.227, 232.94 L 388.405, 247.541 L 372.944, 241.014 L 349.409, 272.965 L 364.87, 279.665 L 354.391, 293.923 L 338.759, 287.395 L 327.249, 303.199 L 308.353, 295.297 L 320.034, 279.493 L 304.402, 272.794 z "/>
<path style="fill:rgb(0, 0, 255);fill-opacity:0;fill-rule:evenodd;stroke:rgb(53, 0, 255);stroke-width:1;" d="M 163.023, 213.013 L 173.846, 198.411 L 189.135, 204.939 L 212.669, 173.159 L 197.209, 166.631 L 207.859, 152.373 L 223.148, 158.901 L 235.173, 142.753 L 253.726, 150.655 L 252.867, 151.514 L 241.872, 166.803 L 257.677, 173.502 L 247.026, 187.932 L 231.222, 181.061 L 207.859, 212.841 L 223.663, 219.712 L 212.841, 234.314 L 197.037, 227.614 L 185.355, 243.247 L 166.803, 235.516 L 178.484, 219.712 L 163.023, 213.013 z "/>
<path style="fill:rgb(255, 255, 0);fill-opacity:0;fill-rule:evenodd;stroke:rgb(53, 0, 255);stroke-width:1;" d="M 161.649, 505.218 L 191.024, 499.034 L 190.509, 497.659 L 191.54, 497.316 L 192.742, 496.285 L 184.496, 474.297 L 203.049, 470.346 L 209.749, 488.211 L 222.289, 485.463 L 220.743, 481.34 L 231.909, 478.763 L 238.265, 495.77 L 236.375, 496.113 L 238.093, 500.752 L 220.228, 525.832 L 213.7, 527.378 L 214.215, 528.581 L 192.055, 533.391 L 188.963, 524.973 L 194.116, 523.771 L 190.509, 514.323 L 166.974, 519.304 L 161.649, 505.218 z "/>
<path style="fill:rgb(255, 0, 0);fill-opacity:0;fill-rule:evenodd;stroke:rgb(53, 0, 255);stroke-width:1;" d="M 97.0582, 788.147 L 141.894, 726.992 L 156.667, 733.176 L 164.741, 736.612 L 172.472, 739.875 L 154.262, 764.612 L 152.888, 763.925 L 143.612, 776.809 L 145.158, 777.496 L 135.194, 791.067 L 132.618, 790.037 L 125.231, 800 L 97.0582, 788.147 z "/>
<path style="fill:rgb(0, 255, 0);fill-opacity:0;fill-rule:evenodd;stroke:rgb(53, 0, 255);stroke-width:1;" d="M 87.61, 628.387 L 108.74, 599.871 L 124.028, 606.399 L 146.532, 575.993 L 161.134, 582.177 L 163.023, 579.601 L 163.711, 579.772 L 171.956, 568.778 L 187.932, 575.478 L 166.974, 603.822 L 151.17, 597.123 L 129.01, 627.357 L 114.065, 621.001 L 103.758, 635.259 L 87.61, 628.387 z "/>
<path style="fill:rgb(0, 0, 255);fill-opacity:0;fill-rule:evenodd;stroke:rgb(53, 0, 255);stroke-width:1;" d="M 351.643, 720.464 L 382.049, 713.764 L 373.288, 690.402 L 392.012, 686.279 L 395.104, 694.353 L 398.368, 703.285 L 413.142, 700.021 L 411.595, 696.242 L 423.277, 693.665 L 429.805, 710.5 L 403.35, 716.341 L 406.442, 724.071 L 394.761, 726.648 L 402.491, 746.919 L 380.159, 751.9 L 376.723, 742.796 L 381.877, 741.593 L 377.41, 730.084 L 357.14, 734.55 L 351.643, 720.464 z "/>
<path style="fill:rgb(255, 255, 0);fill-opacity:0;fill-rule:evenodd;stroke:rgb(53, 0, 255);stroke-width:1;" d="M 53.5967, 400.601 L 76.1005, 369.852 L 60.6399, 363.324 L 81.0822, 335.323 L 96.5428, 341.851 L 86.4076, 355.594 L 102.04, 362.293 L 79.8798, 392.699 L 95.5121, 399.399 L 83.8308, 415.375 L 74.898, 427.571 L 59.0938, 421.044 L 69.2291, 407.301 L 53.5967, 400.601 z "/>
<path style="fill:rgb(255, 0, 0);fill-opacity:0;fill-rule:evenodd;stroke:rgb(53, 0, 255);stroke-width:1;" d="M 198.755, 659.48 L 224.866, 653.64 L 221.774, 645.738 L 233.455, 643.161 L 225.725, 623.234 L 247.885, 618.252 L 251.321, 627.185 L 245.823, 628.387 L 250.29, 640.069 L 271.076, 635.431 L 276.401, 649.345 L 247.713, 655.701 L 248.744, 658.278 L 246.167, 658.965 L 254.069, 679.407 L 236.719, 683.187 L 230.363, 666.695 L 214.731, 670.131 L 216.105, 673.738 L 205.282, 676.143 L 198.755, 659.48 z "/>
<path style="fill:rgb(0, 255, 0);fill-opacity:0;fill-rule:evenodd;stroke:rgb(53, 0, 255);stroke-width:1;" d="M 135.366, 398.883 L 156.839, 394.417 L 152.716, 382.907 L 147.735, 383.938 L 144.471, 374.834 L 166.459, 370.195 L 170.238, 381.018 L 173.674, 389.951 L 184.325, 387.717 L 187.589, 396.65 L 214.559, 390.981 L 220.571, 407.473 L 208.89, 409.878 L 207.687, 406.27 L 192.399, 409.534 L 198.067, 425.338 L 180.374, 429.117 L 172.815, 408.16 L 169.208, 407.473 L 168.864, 406.27 L 140.348, 412.283 L 135.366, 398.883 z "/>
<path style="fill:rgb(0, 0, 255);fill-opacity:0;fill-rule:evenodd;stroke:rgb(53, 0, 255);stroke-width:1;" d="M 302.856, 517.071 L 311.96, 504.703 L 329.998, 512.261 L 336.697, 503.157 L 378.097, 520.679 L 385.828, 510.028 L 423.449, 525.832 L 414.344, 538.201 L 395.448, 530.127 L 388.576, 539.575 L 348.207, 522.568 L 340.477, 533.047 L 302.856, 517.071 z "/>
<path style="fill:rgb(255, 255, 0);fill-opacity:0;fill-rule:evenodd;stroke:rgb(53, 0, 255);stroke-width:1;" d="M 263.346, 571.183 L 272.278, 558.643 L 309.384, 574.104 L 301.482, 584.926 L 342.71, 602.104 L 336.01, 611.381 L 354.563, 619.111 L 345.458, 631.651 L 308.009, 616.019 L 315.912, 605.196 L 274.683, 588.018 L 281.383, 578.742 L 263.346, 571.183 z "/>
<path style="fill:rgb(255, 0, 0);fill-opacity:0;fill-rule:evenodd;stroke:rgb(53, 0, 255);stroke-width:1;" d="M 428.259, 617.393 L 460.898, 610.694 L 451.965, 586.128 L 469.315, 582.521 L 475.671, 600.043 L 488.04, 597.466 L 486.493, 593.172 L 498.518, 590.767 L 504.703, 607.773 L 477.904, 613.27 L 480.653, 621.001 L 473.781, 622.547 L 480.481, 640.928 L 458.321, 645.566 L 455.229, 636.633 L 460.21, 635.602 L 456.775, 626.154 L 433.24, 631.136 L 428.259, 617.393 z "/>
<path style="fill:rgb(0, 255, 0);fill-opacity:0;fill-rule:evenodd;stroke:rgb(53, 0, 255);stroke-width:1;" d="M 493.708, 343.053 L 504.187, 328.452 L 525.489, 337.385 L 534.078, 325.36 L 552.802, 333.262 L 544.213, 345.115 L 565.686, 354.219 L 555.207, 368.821 L 533.562, 359.717 L 524.973, 371.57 L 506.249, 363.668 L 514.838, 351.986 L 493.708, 343.053 z "/>
<path style="fill:rgb(0, 0, 255);fill-opacity:0;fill-rule:evenodd;stroke:rgb(53, 0, 255);stroke-width:1;" d="M 149.452, 716.685 L 156.496, 706.893 L 205.798, 727.507 L 198.239, 737.814 L 188.104, 733.519 L 187.589, 731.458 L 177.282, 727.163 L 177.797, 726.476 L 170.41, 723.384 L 170.067, 724.071 L 163.711, 721.323 L 161.306, 721.666 L 149.452, 716.685 z "/>
<path style="fill:rgb(255, 255, 0);fill-opacity:0;fill-rule:evenodd;stroke:rgb(53, 0, 255);stroke-width:1;" d="M 59.4374, 677.002 L 66.137, 667.898 L 113.378, 687.653 L 105.819, 698.132 L 95.8557, 694.009 L 94.9968, 691.604 L 90.015, 689.371 L 87.2665, 690.402 L 84.3461, 689.199 L 83.659, 687.309 L 59.4374, 677.002 z "/>
<path style="fill:rgb(255, 0, 0);fill-opacity:0;fill-rule:evenodd;stroke:rgb(53, 0, 255);stroke-width:1;" d="M 141.894, 726.992 L 149.452, 716.685 L 161.306, 721.666 L 161.134, 722.01 L 163.711, 723.041 L 163.882, 724.415 L 170.238, 727.163 L 171.956, 726.304 L 187.073, 732.661 L 185.184, 735.237 L 188.104, 736.44 L 184.668, 741.25 L 181.748, 740.047 L 179.686, 742.968 L 172.472, 739.875 L 164.741, 736.612 L 164.054, 734.894 L 157.87, 732.489 L 156.667, 733.176 L 141.894, 726.992 z "/>
<path style="fill:rgb(0, 255, 0);fill-opacity:0;fill-rule:evenodd;stroke:rgb(53, 0, 255);stroke-width:1;" d="M 50.8482, 700.365 L 56.6889, 692.463 L 66.137, 696.414 L 66.8241, 697.616 L 69.9163, 696.414 L 80.9105, 701.052 L 79.5362, 702.942 L 83.3154, 704.488 L 84.6897, 702.598 L 98.2607, 708.439 L 90.7022, 718.918 L 77.1312, 713.077 L 78.5055, 711.187 L 74.7262, 709.641 L 73.5237, 711.531 L 62.3577, 706.893 L 61.6706, 704.144 L 60.2963, 704.316 L 50.8482, 700.365 z "/>
<path style="fill:rgb(0, 0, 255);fill-opacity:0;fill-rule:evenodd;stroke:rgb(53, 0, 255);stroke-width:1;" d="M 58.4067, 690.058 L 64.2474, 682.156 L 74.3826, 686.279 L 73.8673, 687.138 L 77.1312, 686.107 L 84.3461, 689.199 L 87.2665, 690.402 L 88.469, 690.917 L 87.0947, 692.635 L 90.874, 694.353 L 92.0764, 692.463 L 95.8557, 694.009 L 105.819, 698.132 L 98.2607, 708.439 L 84.6897, 702.598 L 86.064, 700.709 L 82.2847, 698.991 L 80.9105, 701.052 L 69.9163, 696.414 L 69.2291, 693.494 L 68.0266, 694.009 L 58.4067, 690.058 z "/>
<path style="fill:rgb(255, 255, 0);fill-opacity:0;fill-rule:evenodd;stroke:rgb(53, 0, 255);stroke-width:1;" d="M 0, 165.428 L 59.4374, 83.659 L 149.968, 121.623 L 90.7022, 203.393 L 0, 165.428 z "/>
<path style="fill:rgb(255, 0, 0);fill-opacity:0;fill-rule:evenodd;stroke:rgb(53, 0, 255);stroke-width:1;" d="M 28.5162, 530.986 L 40.8847, 528.237 L 42.6025, 532.532 L 57.376, 529.268 L 51.3635, 513.464 L 69.9163, 509.341 L 78.3337, 530.986 L 79.0208, 532.703 L 109.255, 525.832 L 114.58, 539.575 L 92.0764, 544.557 L 96.5428, 556.066 L 102.212, 554.692 L 105.647, 563.625 L 82.6283, 568.95 L 83.1437, 570.152 L 58.0631, 575.821 L 46.21, 545.587 L 35.2158, 548.164 L 28.5162, 530.986 z "/>
<path style="fill:rgb(0, 255, 0);fill-opacity:0;fill-rule:evenodd;stroke:rgb(53, 0, 255);stroke-width:1;" d="M 43.1179, 711.016 L 49.1303, 702.77 L 58.7503, 706.721 L 58.7503, 707.924 L 62.3577, 706.893 L 73.5237, 711.531 L 71.9777, 713.421 L 75.7569, 714.967 L 77.1312, 713.077 L 90.7022, 718.918 L 83.3154, 729.053 L 69.4009, 723.212 L 70.6034, 721.495 L 67.3395, 719.948 L 65.9652, 721.838 L 54.4557, 717.028 L 53.9403, 714.451 L 52.566, 714.967 L 43.1179, 711.016 z "/>
<path style="fill:rgb(0, 0, 255);fill-opacity:0;fill-rule:evenodd;stroke:rgb(53, 0, 255);stroke-width:1;" d="M 43.4615, 722.525 L 47.0689, 717.715 L 49.8175, 718.746 L 51.8789, 715.826 L 54.4557, 717.028 L 65.9652, 721.838 L 69.4009, 723.212 L 83.3154, 729.053 L 75.5851, 739.532 L 44.3204, 726.304 L 46.21, 723.728 L 43.4615, 722.525 z "/>
<path style="fill:rgb(255, 255, 0);fill-opacity:0;fill-rule:evenodd;stroke:rgb(53, 0, 255);stroke-width:1;" d="M 48.9586, 45.8664 L 80.0515, 0 L 173.502, 38.8233 L 147.735, 74.7262 L 159.76, 79.708 L 158.901, 80.7387 L 163.367, 82.6283 L 158.042, 90.1868 L 153.575, 88.2972 L 152.888, 89.1561 L 48.9586, 45.8664 z "/>
<path style="fill:rgb(255, 0, 0);fill-opacity:0;fill-rule:evenodd;stroke:rgb(53, 0, 255);stroke-width:1;" d="M 419.154, 115.439 L 429.805, 100.666 L 445.265, 107.193 L 468.456, 75.0698 L 452.995, 68.7138 L 463.818, 53.5967 L 479.279, 60.1245 L 490.616, 44.4922 L 510.2, 52.566 L 498.518, 68.7138 L 514.494, 75.2416 L 503.844, 89.8432 L 488.04, 83.3154 L 464.849, 115.267 L 480.825, 121.967 L 470.002, 136.74 L 454.026, 130.213 L 442.517, 146.017 L 422.933, 137.943 L 434.615, 121.967 L 419.154, 115.439 z "/>
</svg>