<?xml version="1.0" encoding="iso-8859-1" standalone="no"?>
<!DOCTYPE svg PUBLIC "-//W3C//DTD SVG 1.0//EN" "http://www.w3.org/TR/2001/REC-SVG-20010904/DTD/svg10.dtd">
<svg xmlns="http://www.w3.org/2000/svg" width="790" height="800">
<path style="fill:rgb(255, 0, 0);fill-opacity:0;fill-rule:evenodd;stroke:rgb(81, 0, 255);stroke-width:1;" d="M 392.884, 286.602 L 413.601, 259.761 L 401.891, 254.537 L 436.118, 210.403 L 434.136, 203.378 L 426.03, 199.595 L 457.374, 159.063 L 448.187, 154.92 L 487.998, 103.22 L 524.026, 119.252 L 530.871, 110.426 L 540.599, 114.749 L 534.294, 122.855 L 527.989, 119.973 L 515.019, 136.726 L 530.151, 143.391 L 527.088, 144.112 L 524.747, 147.534 L 528.89, 158.703 L 519.342, 171.133 L 506.553, 173.294 L 503.85, 176.537 L 507.273, 186.625 L 478.991, 223.193 L 470.705, 219.59 L 460.077, 233.281 L 458.095, 233.641 L 455.573, 237.244 L 456.113, 238.505 L 437.199, 262.824 L 434.857, 266.066 L 430.894, 271.11 L 428.912, 271.47 L 412.34, 295.429 L 406.035, 292.547 L 401.531, 298.131 L 394.506, 295.069 L 399.009, 289.304 L 392.884, 286.602 z "/>
<path style="fill:rgb(0, 255, 0);fill-opacity:0;fill-rule:evenodd;stroke:rgb(81, 0, 255);stroke-width:1;" d="M 469.444, 657.87 L 476.469, 633.371 L 520.603, 643.639 L 519.162, 647.422 L 524.567, 648.503 L 534.114, 626.165 L 529.971, 625.084 L 526.908, 626.526 L 512.137, 622.923 L 482.594, 612.114 L 489.98, 586.174 L 523.486, 599.685 L 521.684, 602.207 L 525.647, 603.828 L 527.449, 601.306 L 554.109, 611.934 L 547.985, 620.761 L 554.109, 621.842 L 562.216, 623.823 L 564.197, 620.041 L 585.634, 625.084 L 576.987, 646.341 L 551.587, 640.036 L 546.003, 653.366 L 571.583, 659.491 L 563.477, 678.946 L 550.687, 676.424 L 525.828, 670.299 L 524.206, 674.082 L 518.982, 673.002 L 507.994, 670.48 L 509.255, 667.237 L 495.204, 664.175 L 469.444, 657.87 z "/>
<path style="fill:rgb(0, 0, 255);fill-opacity:0;fill-rule:evenodd;stroke:rgb(81, 0, 255);stroke-width:1;" d="M 101.779, 658.59 L 114.929, 644.359 L 144.832, 660.032 L 149.696, 654.627 L 120.333, 639.135 L 137.266, 622.022 L 163.026, 637.874 L 161.045, 639.856 L 171.493, 645.26 L 181.22, 651.745 L 185.184, 653.727 L 181.941, 657.149 L 185.364, 658.951 L 183.202, 661.293 L 186.985, 663.094 L 209.502, 637.334 L 230.939, 648.683 L 206.44, 675.524 L 209.863, 677.505 L 200.495, 687.773 L 197.433, 686.152 L 176.177, 710.471 L 149.156, 692.096 L 164.107, 680.027 L 170.952, 683.63 L 182.481, 671.02 L 179.239, 669.399 L 178.338, 669.759 L 158.883, 659.491 L 149.876, 669.579 L 158.163, 675.163 L 141.95, 688.133 L 101.779, 658.59 z "/>
<path style="fill:rgb(255, 255, 0);fill-opacity:0;fill-rule:evenodd;stroke:rgb(81, 0, 255);stroke-width:1;" d="M 401.171, 730.646 L 406.215, 714.073 L 407.476, 710.651 L 427.291, 713.893 L 427.111, 714.254 L 434.317, 715.515 L 436.478, 707.588 L 409.457, 703.085 L 416.122, 679.847 L 442.963, 684.17 L 445.125, 676.785 L 437.199, 675.343 L 437.019, 675.704 L 418.104, 672.641 L 424.409, 650.844 L 445.485, 655.888 L 444.404, 659.131 L 484.215, 668.318 L 482.054, 674.803 L 477.91, 686.692 L 463.319, 683.81 L 462.779, 685.431 L 457.194, 684.531 L 455.933, 689.034 L 461.157, 689.935 L 461.157, 690.295 L 475.749, 692.817 L 468.903, 712.993 L 470.705, 713.533 L 469.984, 715.515 L 468.003, 715.154 L 467.642, 716.055 L 449.268, 712.452 L 447.827, 717.136 L 453.952, 718.217 L 455.393, 720.378 L 467.462, 722.9 L 462.238, 737.672 L 450.709, 735.69 L 425.49, 732.448 L 401.171, 730.646 z "/>
<path style="fill:rgb(255, 0, 0);fill-opacity:0;fill-rule:evenodd;stroke:rgb(81, 0, 255);stroke-width:1;" d="M 182.662, 713.713 L 204.458, 689.755 L 200.495, 687.773 L 209.863, 677.505 L 213.285, 679.126 L 237.784, 652.286 L 256.879, 662.373 L 234.181, 687.233 L 236.523, 688.494 L 238.325, 686.512 L 243.729, 687.593 L 242.648, 690.655 L 246.971, 691.196 L 249.673, 680.387 L 254.177, 675.524 L 265.346, 677.145 L 263.544, 683.63 L 280.658, 686.152 L 276.334, 701.283 L 280.658, 701.824 L 277.415, 713.713 L 273.092, 713.173 L 267.147, 733.709 L 253.456, 732.808 L 239.586, 731.367 L 230.399, 729.746 L 234.722, 714.794 L 246.971, 716.776 L 251.295, 702.364 L 223.733, 697.501 L 219.41, 712.092 L 226.255, 713.173 L 222.112, 727.764 L 206.26, 722.72 L 190.408, 717.316 L 182.662, 713.713 z "/>
<path style="fill:rgb(0, 255, 0);fill-opacity:0;fill-rule:evenodd;stroke:rgb(81, 0, 255);stroke-width:1;" d="M 475.749, 739.653 L 481.693, 722.9 L 491.961, 725.422 L 492.862, 723.261 L 497.726, 724.522 L 498.446, 722.54 L 497.906, 720.198 L 482.594, 716.415 L 483.675, 713.533 L 486.017, 714.073 L 499.887, 674.082 L 501.509, 669.039 L 507.994, 670.48 L 518.982, 673.002 L 516.46, 679.306 L 538.617, 684.531 L 541.139, 678.226 L 561.855, 683.089 L 549.066, 714.434 L 532.673, 710.471 L 534.114, 707.048 L 528.89, 705.787 L 529.61, 704.166 L 522.765, 702.544 L 513.938, 723.801 L 520.964, 725.602 L 521.684, 723.801 L 526.728, 724.882 L 528.349, 721.099 L 544.742, 724.882 L 532.673, 754.425 L 513.758, 748.12 L 475.749, 739.653 z "/>
<path style="fill:rgb(0, 0, 255);fill-opacity:0;fill-rule:evenodd;stroke:rgb(81, 0, 255);stroke-width:1;" d="M 277.595, 675.524 L 281.738, 657.87 L 317.766, 662.914 L 317.586, 663.634 L 325.512, 664.715 L 327.494, 657.149 L 319.207, 655.888 L 319.207, 656.068 L 283.36, 651.205 L 287.683, 633.371 L 329.475, 639.135 L 329.295, 639.676 L 332.898, 640.036 L 333.799, 636.794 L 350.011, 638.955 L 349.291, 642.018 L 385.679, 647.061 L 380.995, 664.355 L 345.328, 659.491 L 343.706, 666.697 L 379.194, 671.56 L 374.51, 689.034 L 339.383, 684.17 L 338.482, 687.593 L 322.63, 685.251 L 323.531, 681.288 L 319.388, 680.748 L 319.207, 681.288 L 277.595, 675.524 z "/>
<path style="fill:rgb(255, 255, 0);fill-opacity:0;fill-rule:evenodd;stroke:rgb(81, 0, 255);stroke-width:1;" d="M 373.97, 376.312 L 375.051, 372.349 L 385.679, 366.944 L 381.716, 362.261 L 384.058, 354.335 L 388.741, 351.993 L 381.716, 343.706 L 382.977, 339.743 L 406.755, 328.034 L 411.439, 328.935 L 420.086, 339.023 L 415.582, 341.365 L 419.905, 346.408 L 423.868, 351.092 L 440.621, 342.806 L 445.665, 344.067 L 454.492, 339.743 L 459.536, 340.644 L 467.102, 349.291 L 466.021, 353.074 L 454.132, 358.838 L 454.492, 359.559 L 440.441, 366.584 L 439, 370.907 L 446.386, 379.554 L 445.305, 380.095 L 455.033, 391.263 L 453.952, 394.866 L 442.243, 400.63 L 437.379, 399.55 L 431.795, 393.065 L 426.571, 392.344 L 415.582, 379.374 L 402.972, 385.679 L 406.035, 389.102 L 394.145, 395.046 L 389.462, 394.326 L 373.97, 376.312 z "/>
<path style="fill:rgb(255, 0, 0);fill-opacity:0;fill-rule:evenodd;stroke:rgb(81, 0, 255);stroke-width:1;" d="M 640.216, 783.427 L 648.683, 765.773 L 660.932, 769.196 L 670.66, 749.02 L 651.205, 743.616 L 657.51, 730.646 L 661.293, 731.727 L 668.678, 716.415 L 681.288, 720.018 L 678.406, 725.963 L 679.126, 726.323 L 677.865, 728.845 L 684.711, 730.826 L 689.214, 721.819 L 698.401, 724.522 L 701.283, 723.801 L 727.043, 731.007 L 720.378, 747.579 L 692.457, 740.014 L 688.133, 749.02 L 692.457, 750.281 L 693.898, 747.399 L 718.036, 753.884 L 708.309, 777.483 L 682.549, 770.277 L 683.99, 767.215 L 680.207, 766.134 L 675.704, 775.321 L 705.967, 783.607 L 699.302, 800 L 640.216, 783.427 z "/>
<path style="fill:rgb(0, 255, 0);fill-opacity:0;fill-rule:evenodd;stroke:rgb(81, 0, 255);stroke-width:1;" d="M 570.142, 763.792 L 577.167, 747.039 L 604.729, 754.785 L 609.232, 745.598 L 605.089, 744.517 L 603.648, 747.399 L 579.689, 740.734 L 589.417, 717.496 L 614.456, 724.702 L 612.835, 728.124 L 617.338, 729.385 L 621.842, 719.838 L 591.939, 711.371 L 598.604, 694.979 L 627.246, 703.085 L 626.345, 704.706 L 640.396, 708.669 L 636.253, 717.136 L 636.433, 718.757 L 635.713, 720.198 L 642.918, 722.36 L 648.322, 711.011 L 660.752, 714.434 L 653.366, 729.565 L 657.51, 730.646 L 651.205, 743.616 L 631.389, 738.032 L 621.662, 758.208 L 633.371, 761.45 L 624.724, 779.104 L 570.142, 763.792 z "/>
<path style="fill:rgb(0, 0, 255);fill-opacity:0;fill-rule:evenodd;stroke:rgb(81, 0, 255);stroke-width:1;" d="M 344.427, 477.73 L 345.328, 474.127 L 360.639, 466.742 L 363.882, 457.555 L 352.353, 445.125 L 353.434, 441.342 L 377.573, 429.453 L 382.617, 430.534 L 391.083, 440.621 L 386.219, 442.963 L 388.921, 446.026 L 394.506, 452.691 L 411.439, 444.404 L 416.663, 445.485 L 425.31, 441.342 L 430.354, 442.063 L 438.1, 451.25 L 436.658, 454.853 L 425.129, 460.617 L 425.49, 460.977 L 410.898, 468.183 L 409.818, 472.686 L 417.023, 481.153 L 415.942, 481.513 L 425.49, 492.682 L 424.589, 496.465 L 412.88, 502.229 L 408.016, 501.148 L 402.432, 494.844 L 397.748, 494.123 L 386.58, 480.973 L 373.79, 487.278 L 377.032, 490.88 L 364.603, 497.005 L 360.099, 495.924 L 344.427, 477.73 z "/>
<path style="fill:rgb(255, 255, 0);fill-opacity:0;fill-rule:evenodd;stroke:rgb(81, 0, 255);stroke-width:1;" d="M 434.857, 266.066 L 437.199, 262.824 L 454.853, 259.761 L 460.617, 252.195 L 459.176, 248.232 L 456.113, 238.505 L 455.573, 237.244 L 458.095, 233.641 L 460.077, 233.281 L 486.017, 228.237 L 489.98, 230.218 L 493.943, 241.747 L 488.719, 242.648 L 492.682, 254.177 L 511.777, 250.394 L 516.28, 252.556 L 526.548, 250.574 L 530.511, 252.556 L 533.934, 262.644 L 531.592, 265.886 L 518.082, 268.588 L 518.262, 269.309 L 502.049, 272.551 L 498.987, 276.514 L 502.229, 286.242 L 501.148, 286.422 L 505.652, 299.752 L 503.13, 302.995 L 489.98, 305.517 L 485.476, 303.535 L 482.954, 295.789 L 477.91, 293.988 L 473.047, 279.216 L 458.455, 282.099 L 459.896, 286.242 L 446.026, 288.944 L 441.882, 287.143 L 434.857, 266.066 z "/>
<path style="fill:rgb(255, 0, 0);fill-opacity:0;fill-rule:evenodd;stroke:rgb(81, 0, 255);stroke-width:1;" d="M 503.85, 176.537 L 506.553, 173.294 L 519.342, 171.133 L 520.784, 170.952 L 524.927, 169.872 L 530.511, 163.206 L 528.89, 158.703 L 524.747, 147.534 L 527.088, 144.112 L 530.151, 143.391 L 555.01, 138.527 L 558.973, 140.509 L 562.936, 152.038 L 557.892, 153.119 L 561.675, 164.467 L 580.95, 160.685 L 585.274, 162.846 L 595.542, 160.865 L 599.685, 162.846 L 603.107, 172.934 L 600.766, 176.177 L 587.075, 178.879 L 587.435, 179.779 L 571.043, 183.022 L 567.98, 186.805 L 571.403, 196.712 L 570.142, 196.893 L 574.645, 210.043 L 572.304, 213.285 L 558.973, 215.807 L 554.65, 213.826 L 551.948, 206.08 L 547.084, 204.278 L 542.04, 189.687 L 527.629, 192.569 L 529.07, 196.532 L 515.199, 199.234 L 511.056, 197.433 L 507.273, 186.625 L 503.85, 176.537 z "/>
<path style="fill:rgb(0, 255, 0);fill-opacity:0;fill-rule:evenodd;stroke:rgb(81, 0, 255);stroke-width:1;" d="M 314.884, 579.329 L 316.145, 575.546 L 328.214, 569.601 L 331.277, 573.204 L 338.302, 569.782 L 341.365, 560.414 L 336.501, 554.65 L 331.817, 556.992 L 323.17, 546.904 L 323.891, 543.121 L 348.21, 531.232 L 353.074, 532.313 L 361.54, 542.4 L 357.037, 544.562 L 365.143, 554.29 L 381.896, 546.183 L 387.3, 547.084 L 395.767, 543.121 L 400.811, 543.661 L 408.376, 552.668 L 407.116, 556.271 L 395.226, 562.216 L 395.767, 562.936 L 381.896, 569.782 L 380.455, 574.105 L 396.667, 594.641 L 395.587, 598.063 L 383.337, 604.188 L 378.834, 602.927 L 373.249, 596.442 L 367.665, 595.542 L 356.857, 582.752 L 344.427, 588.876 L 347.489, 592.659 L 335.78, 598.424 L 330.736, 597.523 L 314.884, 579.329 z "/>
<path style="fill:rgb(0, 0, 255);fill-opacity:0;fill-rule:evenodd;stroke:rgb(81, 0, 255);stroke-width:1;" d="M 648.503, 189.147 L 654.447, 177.618 L 656.429, 178.158 L 661.293, 168.791 L 675.884, 173.294 L 674.803, 175.276 L 682.909, 177.618 L 693.357, 157.082 L 685.071, 154.74 L 684.17, 156.721 L 674.803, 153.839 L 679.126, 145.373 L 681.108, 146.093 L 687.593, 133.483 L 723.441, 144.112 L 725.782, 139.608 L 741.995, 144.472 L 728.845, 169.872 L 719.478, 167.17 L 720.558, 165.188 L 712.092, 162.666 L 701.283, 183.742 L 708.489, 185.904 L 709.21, 184.463 L 727.944, 190.047 L 714.794, 215.447 L 692.997, 208.962 L 695.879, 203.197 L 648.503, 189.147 z "/>
<path style="fill:rgb(255, 255, 0);fill-opacity:0;fill-rule:evenodd;stroke:rgb(81, 0, 255);stroke-width:1;" d="M 600.585, 690.295 L 609.412, 669.039 L 632.83, 674.623 L 635.352, 668.858 L 611.934, 663.274 L 619.14, 645.44 L 642.378, 651.025 L 644.72, 645.26 L 621.662, 639.676 L 630.128, 619.14 L 647.782, 626.526 L 646.521, 629.768 L 681.648, 644.179 L 675.163, 659.851 L 652.286, 654.447 L 650.124, 659.671 L 656.609, 661.293 L 655.888, 662.553 L 673.002, 666.517 L 667.057, 680.748 L 647.782, 676.064 L 646.701, 678.946 L 642.918, 678.045 L 641.837, 680.567 L 664.895, 686.152 L 657.69, 703.445 L 630.128, 695.879 L 630.308, 695.339 L 618.059, 692.457 L 617.338, 694.258 L 600.585, 690.295 z "/>
<path style="fill:rgb(255, 0, 0);fill-opacity:0;fill-rule:evenodd;stroke:rgb(81, 0, 255);stroke-width:1;" d="M 0, 745.778 L 23.4181, 728.304 L 37.469, 737.852 L 37.8293, 739.833 L 43.5938, 743.076 L 49.7185, 736.591 L 45.3952, 732.808 L 43.0534, 733.348 L 30.0833, 723.441 L 54.5823, 705.427 L 85.0259, 728.124 L 100.878, 740.014 L 87.728, 754.245 L 63.0489, 740.914 L 59.6262, 744.517 L 63.0489, 746.318 L 59.6262, 750.101 L 56.5638, 748.48 L 53.6816, 751.542 L 78.0005, 764.693 L 64.8503, 778.924 L 33.3258, 761.991 L 33.8662, 761.27 L 28.2819, 758.388 L 26.6607, 760.189 L 0, 745.778 z "/>
<path style="fill:rgb(0, 255, 0);fill-opacity:0;fill-rule:evenodd;stroke:rgb(81, 0, 255);stroke-width:1;" d="M 591.038, 270.39 L 600.946, 257.6 L 599.144, 256.699 L 602.027, 252.916 L 604.008, 253.637 L 609.592, 246.611 L 607.971, 245.891 L 614.096, 238.145 L 612.114, 237.424 L 617.338, 230.939 L 672.461, 247.692 L 696.059, 254.898 L 695.699, 255.618 L 701.824, 257.42 L 698.221, 270.57 L 700.023, 270.93 L 698.762, 275.433 L 695.879, 275.073 L 694.078, 281.378 L 695.699, 281.738 L 693.357, 290.205 L 679.487, 288.043 L 678.766, 290.205 L 667.958, 288.584 L 668.678, 285.882 L 662.914, 284.981 L 669.039, 262.824 L 663.454, 261.022 L 662.373, 263.004 L 659.491, 262.103 L 659.131, 263.004 L 647.602, 259.401 L 648.142, 258.32 L 645.981, 257.78 L 646.701, 256.159 L 639.676, 253.997 L 634.272, 261.022 L 636.073, 261.923 L 632.83, 266.066 L 631.389, 265.346 L 627.606, 270.39 L 629.048, 271.11 L 622.382, 279.757 L 615.357, 276.694 L 613.916, 278.676 L 606.53, 275.433 L 605.449, 276.875 L 591.038, 270.39 z "/>
<path style="fill:rgb(0, 0, 255);fill-opacity:0;fill-rule:evenodd;stroke:rgb(81, 0, 255);stroke-width:1;" d="M 279.216, 734.069 L 284.801, 711.191 L 315.605, 715.515 L 317.406, 708.129 L 316.685, 706.147 L 308.219, 704.886 L 308.039, 705.787 L 306.598, 705.607 L 306.237, 707.048 L 290.025, 704.706 L 294.708, 685.431 L 340.464, 691.916 L 350.732, 693.357 L 351.813, 689.034 L 373.61, 692.096 L 369.106, 709.029 L 339.923, 704.886 L 337.401, 706.147 L 336.501, 709.93 L 338.122, 711.732 L 367.305, 715.875 L 363.522, 730.106 L 361.9, 729.926 L 361.72, 730.826 L 279.216, 734.069 z "/>
<path style="fill:rgb(255, 255, 0);fill-opacity:0;fill-rule:evenodd;stroke:rgb(81, 0, 255);stroke-width:1;" d="M 593.92, 109.525 L 604.008, 96.1946 L 616.258, 101.599 L 618.419, 101.599 L 626.165, 91.3308 L 612.475, 85.3862 L 620.041, 75.4785 L 634.091, 81.6032 L 642.018, 71.3353 L 640.396, 69.714 L 628.507, 64.49 L 638.595, 51.1596 L 651.565, 56.9241 L 659.131, 60.1666 L 660.032, 58.9057 L 687.052, 70.7949 L 672.641, 89.5294 L 653.546, 81.0628 L 652.105, 82.8642 L 653.366, 83.4046 L 650.304, 87.3677 L 668.318, 95.2939 L 660.032, 106.102 L 644.54, 99.4371 L 642.378, 102.139 L 638.415, 100.518 L 636.073, 103.58 L 654.807, 111.867 L 640.937, 130.241 L 593.92, 109.525 z "/>
<path style="fill:rgb(255, 0, 0);fill-opacity:0;fill-rule:evenodd;stroke:rgb(81, 0, 255);stroke-width:1;" d="M 675.343, 707.769 L 683.63, 686.512 L 705.427, 691.376 L 709.029, 682.369 L 705.247, 681.468 L 704.166, 684.35 L 686.512, 680.387 L 697.32, 652.466 L 729.746, 665.436 L 729.205, 666.877 L 737.131, 668.678 L 738.753, 664.355 L 751.542, 669.579 L 741.995, 693.718 L 731.547, 691.376 L 732.988, 687.593 L 726.143, 686.152 L 720.919, 699.482 L 727.224, 700.923 L 728.124, 698.762 L 738.933, 701.283 L 729.025, 725.963 L 722, 724.341 L 712.092, 721.459 L 713.353, 718.397 L 713.893, 718.577 L 714.254, 717.496 L 698.942, 714.254 L 675.343, 707.769 z "/>
<path style="fill:rgb(0, 255, 0);fill-opacity:0;fill-rule:evenodd;stroke:rgb(81, 0, 255);stroke-width:1;" d="M 689.394, 127.719 L 709.93, 101.058 L 720.558, 105.742 L 722, 101.419 L 722.54, 100.338 L 726.503, 100.878 L 727.764, 99.0768 L 715.515, 93.6726 L 735.87, 67.1921 L 742.175, 68.9935 L 743.977, 65.751 L 747.76, 66.1112 L 764.332, 70.975 L 753.884, 106.463 L 746.679, 105.202 L 746.499, 105.562 L 737.672, 103.941 L 735.51, 111.326 L 744.337, 112.767 L 744.157, 113.128 L 751.362, 114.389 L 741.995, 144.472 L 725.782, 139.608 L 726.143, 139.068 L 723.08, 138.167 L 726.323, 132.042 L 723.801, 130.061 L 710.29, 125.918 L 708.489, 127.179 L 705.607, 132.583 L 689.394, 127.719 z "/>
<path style="fill:rgb(0, 0, 255);fill-opacity:0;fill-rule:evenodd;stroke:rgb(81, 0, 255);stroke-width:1;" d="M 695.699, 637.334 L 705.066, 618.599 L 698.581, 617.158 L 705.427, 600.225 L 734.789, 607.07 L 731.367, 615.177 L 732.268, 615.357 L 729.746, 621.121 L 738.212, 623.103 L 740.554, 617.338 L 741.274, 617.519 L 744.697, 609.412 L 771.178, 615.537 L 764.332, 636.073 L 761.991, 635.533 L 757.847, 645.8 L 760.91, 646.521 L 753.524, 664.715 L 729.926, 654.627 L 733.168, 646.521 L 730.106, 645.8 L 730.826, 643.999 L 724.702, 642.558 L 723.08, 646.881 L 715.875, 645.08 L 695.699, 637.334 z "/>
<path style="fill:rgb(255, 255, 0);fill-opacity:0;fill-rule:evenodd;stroke:rgb(81, 0, 255);stroke-width:1;" d="M 424.409, 650.844 L 448.187, 566.899 L 453.411, 567.44 L 475.569, 576.627 L 452.331, 655.888 L 451.97, 657.51 L 445.485, 655.888 L 424.409, 650.844 z "/>
<path style="fill:rgb(255, 0, 0);fill-opacity:0;fill-rule:evenodd;stroke:rgb(81, 0, 255);stroke-width:1;" d="M 499.167, 575.546 L 513.398, 555.37 L 516.821, 556.812 L 517.361, 556.091 L 521.864, 557.892 L 521.504, 558.433 L 569.601, 578.068 L 571.043, 576.086 L 580.95, 580.05 L 587.615, 570.682 L 604.549, 577.528 L 599.324, 584.913 L 596.442, 583.832 L 592.299, 589.777 L 595.902, 591.398 L 588.516, 601.846 L 590.498, 602.747 L 587.435, 607.07 L 585.454, 606.17 L 583.652, 608.692 L 577.167, 606.17 L 578.068, 604.909 L 554.47, 595.361 L 553.029, 597.343 L 499.167, 575.546 z "/>
<path style="fill:rgb(0, 255, 0);fill-opacity:0;fill-rule:evenodd;stroke:rgb(81, 0, 255);stroke-width:1;" d="M 722.36, 340.644 L 728.124, 321.909 L 738.212, 323.711 L 738.392, 322.99 L 749.921, 324.972 L 752.263, 317.406 L 740.734, 315.424 L 741.094, 314.524 L 731.007, 312.722 L 737.131, 293.267 L 752.623, 295.969 L 756.586, 296.69 L 755.686, 299.572 L 790.633, 305.877 L 784.688, 324.612 L 764.873, 321.009 L 764.152, 323.351 L 766.674, 323.711 L 765.773, 326.953 L 763.252, 326.413 L 762.531, 328.755 L 781.986, 332.358 L 777.302, 347.309 L 743.436, 341.184 L 742.355, 344.247 L 722.36, 340.644 z "/>
<path style="fill:rgb(0, 0, 255);fill-opacity:0;fill-rule:evenodd;stroke:rgb(81, 0, 255);stroke-width:1;" d="M 584.913, 409.998 L 589.597, 395.587 L 590.498, 395.767 L 591.759, 391.804 L 595.181, 392.524 L 599.324, 379.914 L 597.883, 379.554 L 598.964, 376.132 L 626.886, 381.175 L 625.985, 384.058 L 623.103, 383.517 L 620.041, 393.065 L 652.466, 399.189 L 653.186, 397.388 L 660.212, 398.649 L 659.131, 401.891 L 660.932, 402.252 L 659.131, 408.016 L 657.51, 407.656 L 655.888, 412.7 L 652.826, 411.979 L 649.043, 424.229 L 650.844, 424.589 L 648.142, 432.875 L 627.066, 429.093 L 628.507, 424.769 L 631.93, 425.31 L 633.911, 419.185 L 621.842, 417.023 L 622.382, 415.762 L 598.964, 411.439 L 598.604, 412.52 L 584.913, 409.998 z "/>
<path style="fill:rgb(255, 255, 0);fill-opacity:0;fill-rule:evenodd;stroke:rgb(81, 0, 255);stroke-width:1;" d="M 143.932, 618.059 L 153.299, 609.052 L 154.2, 609.412 L 170.232, 593.92 L 179.959, 599.685 L 184.823, 595.001 L 174.916, 589.057 L 180.5, 583.832 L 183.562, 585.634 L 187.525, 581.671 L 189.147, 582.571 L 216.888, 598.964 L 208.422, 607.251 L 210.043, 608.151 L 202.837, 615.177 L 203.558, 615.537 L 193.29, 625.625 L 192.029, 624.904 L 184.643, 632.11 L 182.481, 630.849 L 174.555, 638.415 L 144.652, 620.581 L 146.093, 619.32 L 143.932, 618.059 z "/>
<path style="fill:rgb(255, 0, 0);fill-opacity:0;fill-rule:evenodd;stroke:rgb(81, 0, 255);stroke-width:1;" d="M 598.964, 376.132 L 599.865, 373.069 L 601.126, 373.249 L 604.909, 361.18 L 601.306, 360.459 L 602.567, 356.496 L 601.126, 356.316 L 605.99, 341.184 L 619.86, 343.887 L 619.5, 345.147 L 644.359, 349.831 L 644.72, 348.39 L 654.447, 350.191 L 656.789, 342.986 L 653.907, 342.445 L 655.168, 338.302 L 676.785, 342.265 L 675.524, 346.228 L 673.902, 345.868 L 668.318, 363.342 L 669.759, 363.702 L 668.498, 368.025 L 670.84, 368.385 L 668.858, 374.871 L 667.597, 374.69 L 666.877, 376.852 L 659.311, 375.411 L 659.851, 373.61 L 627.967, 367.845 L 624.724, 377.933 L 627.787, 378.473 L 626.886, 381.175 L 598.964, 376.132 z "/>
<path style="fill:rgb(0, 255, 0);fill-opacity:0;fill-rule:evenodd;stroke:rgb(81, 0, 255);stroke-width:1;" d="M 570.682, 466.381 L 571.583, 463.319 L 573.565, 463.679 L 577.347, 451.43 L 573.565, 450.709 L 574.825, 446.566 L 573.204, 446.386 L 577.888, 431.615 L 591.398, 434.136 L 590.858, 435.758 L 616.258, 440.621 L 616.618, 439.18 L 626.886, 440.982 L 629.228, 433.596 L 625.805, 432.875 L 627.066, 429.093 L 648.142, 432.875 L 645.26, 442.063 L 643.999, 441.882 L 640.396, 452.871 L 642.558, 453.231 L 640.757, 458.996 L 643.098, 459.356 L 641.297, 465.12 L 639.496, 464.76 L 638.775, 467.102 L 631.75, 465.841 L 632.11, 464.58 L 600.225, 458.635 L 596.983, 468.363 L 599.505, 468.903 L 598.604, 471.605 L 570.682, 466.381 z "/>
<path style="fill:rgb(0, 0, 255);fill-opacity:0;fill-rule:evenodd;stroke:rgb(81, 0, 255);stroke-width:1;" d="M 630.128, 619.14 L 643.999, 585.814 L 666.517, 591.398 L 660.932, 604.729 L 670.119, 606.89 L 675.884, 593.56 L 698.581, 599.144 L 680.748, 641.117 L 664.175, 633.551 L 667.417, 625.445 L 652.286, 620.761 L 649.583, 627.066 L 647.782, 626.526 L 630.128, 619.14 z "/>
<path style="fill:rgb(255, 255, 0);fill-opacity:0;fill-rule:evenodd;stroke:rgb(81, 0, 255);stroke-width:1;" d="M 556.992, 499.887 L 559.514, 491.961 L 560.955, 492.141 L 561.495, 490.7 L 559.333, 490.16 L 560.234, 487.458 L 562.216, 487.818 L 562.756, 486.557 L 563.297, 486.557 L 564.558, 482.954 L 568.521, 483.675 L 570.142, 478.991 L 568.881, 478.811 L 571.583, 470.525 L 569.421, 470.164 L 570.682, 466.381 L 598.604, 471.605 L 597.703, 474.308 L 594.1, 473.767 L 590.858, 483.675 L 598.063, 484.936 L 598.424, 484.035 L 602.927, 484.936 L 602.567, 486.197 L 630.128, 491.241 L 629.408, 493.222 L 632.29, 493.763 L 631.209, 496.645 L 628.687, 496.285 L 627.967, 498.446 L 629.588, 498.626 L 628.147, 503.13 L 623.823, 502.229 L 620.041, 514.479 L 621.662, 514.839 L 619.68, 520.423 L 621.121, 520.784 L 620.401, 523.306 L 601.846, 519.883 L 600.585, 524.026 L 597.523, 523.306 L 600.045, 515.199 L 604.368, 516.28 L 606.53, 509.255 L 594.281, 506.913 L 594.461, 506.372 L 570.682, 501.869 L 570.502, 502.409 L 556.992, 499.887 z "/>
<path style="fill:rgb(255, 0, 0);fill-opacity:0;fill-rule:evenodd;stroke:rgb(81, 0, 255);stroke-width:1;" d="M 622.382, 319.388 L 628.507, 300.833 L 640.216, 302.995 L 641.297, 299.392 L 654.807, 301.914 L 654.447, 302.995 L 660.932, 304.076 L 660.752, 304.436 L 680.387, 308.039 L 680.928, 306.598 L 687.953, 307.859 L 686.872, 310.921 L 689.214, 311.281 L 687.052, 318.127 L 684.711, 317.586 L 683.27, 321.909 L 681.288, 321.549 L 677.505, 333.078 L 679.667, 333.619 L 676.785, 342.265 L 655.168, 338.302 L 656.429, 334.339 L 659.311, 335.06 L 661.473, 328.575 L 650.304, 326.593 L 650.844, 324.612 L 634.272, 321.549 L 633.551, 323.891 L 625.265, 322.45 L 625.985, 320.108 L 622.382, 319.388 z "/>
<path style="fill:rgb(0, 255, 0);fill-opacity:0;fill-rule:evenodd;stroke:rgb(81, 0, 255);stroke-width:1;" d="M 553.569, 543.661 L 555.01, 539.338 L 554.109, 539.158 L 556.992, 530.331 L 557.712, 530.511 L 559.153, 526.008 L 561.855, 526.548 L 562.576, 523.306 L 571.583, 525.107 L 570.682, 528.169 L 587.075, 531.052 L 587.976, 528.349 L 593.74, 529.43 L 593.56, 530.151 L 600.045, 531.232 L 602.207, 524.386 L 600.585, 524.026 L 601.846, 519.883 L 620.401, 523.306 L 618.059, 530.511 L 616.798, 530.331 L 615.897, 532.853 L 614.636, 532.493 L 612.475, 539.158 L 613.736, 539.518 L 612.475, 543.121 L 614.997, 543.661 L 612.835, 550.327 L 614.997, 550.867 L 613.736, 554.109 L 610.673, 553.749 L 610.133, 555.731 L 611.394, 555.911 L 610.853, 557.712 L 603.288, 556.271 L 603.828, 554.65 L 582.752, 550.687 L 581.13, 555.551 L 576.267, 554.83 L 576.447, 551.948 L 564.558, 549.606 L 565.819, 545.823 L 553.569, 543.661 z "/>
<path style="fill:rgb(0, 0, 255);fill-opacity:0;fill-rule:evenodd;stroke:rgb(81, 0, 255);stroke-width:1;" d="M 564.017, 65.751 L 572.123, 54.9426 L 574.645, 54.9426 L 580.23, 47.5569 L 579.329, 45.7555 L 587.615, 35.1272 L 604.008, 42.3328 L 605.269, 42.8732 L 601.846, 47.1966 L 605.99, 48.998 L 606.53, 48.2774 L 622.202, 55.3029 L 608.692, 72.9565 L 604.008, 70.7949 L 594.461, 83.4046 L 565.638, 70.7949 L 568.16, 67.5524 L 564.017, 65.751 z "/>
<path style="fill:rgb(255, 255, 0);fill-opacity:0;fill-rule:evenodd;stroke:rgb(81, 0, 255);stroke-width:1;" d="M 515.379, 387.66 L 517.721, 379.374 L 518.262, 379.554 L 519.342, 375.771 L 518.082, 375.591 L 520.063, 368.746 L 521.324, 368.926 L 524.206, 358.838 L 523.486, 358.658 L 525.287, 352.533 L 527.088, 352.893 L 527.989, 350.011 L 539.518, 351.993 L 538.798, 354.695 L 552.488, 357.037 L 550.687, 362.621 L 553.209, 363.161 L 551.587, 368.566 L 552.668, 368.746 L 549.246, 380.995 L 548.165, 380.815 L 546.183, 387.841 L 544.022, 387.48 L 542.761, 392.344 L 515.379, 387.66 z "/>
<path style="fill:rgb(255, 0, 0);fill-opacity:0;fill-rule:evenodd;stroke:rgb(81, 0, 255);stroke-width:1;" d="M 463.679, 564.738 L 466.381, 555.731 L 467.823, 555.911 L 468.723, 552.668 L 467.282, 552.308 L 469.264, 545.283 L 470.885, 545.463 L 473.767, 535.375 L 472.326, 535.195 L 474.127, 528.89 L 475.569, 529.07 L 501.869, 533.574 L 500.428, 538.798 L 502.409, 539.158 L 500.608, 545.283 L 501.869, 545.463 L 500.608, 549.786 L 499.167, 549.606 L 498.086, 553.029 L 499.347, 553.389 L 498.086, 557.892 L 497.005, 557.712 L 495.204, 564.197 L 493.042, 563.837 L 491.421, 569.241 L 463.679, 564.738 z "/>
<path style="fill:rgb(0, 255, 0);fill-opacity:0;fill-rule:evenodd;stroke:rgb(81, 0, 255);stroke-width:1;" d="M 505.292, 423.508 L 507.814, 414.681 L 508.534, 414.862 L 509.435, 411.259 L 507.994, 411.079 L 510.155, 404.053 L 511.777, 404.413 L 514.839, 393.965 L 513.578, 393.785 L 515.379, 387.66 L 542.761, 392.344 L 541.139, 397.928 L 542.941, 398.109 L 541.139, 404.233 L 542.58, 404.413 L 538.978, 416.663 L 537.356, 416.303 L 535.555, 422.608 L 534.114, 422.427 L 532.493, 428.012 L 505.292, 423.508 z "/>
<path style="fill:rgb(0, 0, 255);fill-opacity:0;fill-rule:evenodd;stroke:rgb(81, 0, 255);stroke-width:1;" d="M 494.663, 458.635 L 497.005, 450.349 L 498.086, 450.529 L 499.347, 446.566 L 497.726, 446.206 L 499.707, 439.541 L 501.509, 439.901 L 504.571, 429.453 L 503.67, 429.273 L 505.292, 423.508 L 532.493, 428.012 L 530.871, 433.236 L 532.313, 433.416 L 530.511, 439.541 L 532.132, 439.901 L 528.53, 452.331 L 527.449, 452.15 L 525.828, 458.095 L 523.306, 457.735 L 521.684, 463.139 L 494.663, 458.635 z "/>
<path style="fill:rgb(255, 255, 0);fill-opacity:0;fill-rule:evenodd;stroke:rgb(81, 0, 255);stroke-width:1;" d="M 475.569, 529.07 L 478.991, 517.361 L 477.55, 517.181 L 479.532, 510.155 L 480.973, 510.336 L 484.215, 499.347 L 482.774, 499.167 L 484.215, 493.763 L 485.837, 493.943 L 512.137, 498.446 L 510.696, 503.67 L 512.317, 503.85 L 510.516, 509.795 L 512.317, 510.155 L 511.056, 514.479 L 509.615, 514.299 L 508.534, 517.901 L 509.975, 518.262 L 508.534, 522.765 L 507.273, 522.585 L 505.292, 529.25 L 503.13, 528.89 L 501.869, 533.574 L 475.569, 529.07 z "/>
<path style="fill:rgb(255, 0, 0);fill-opacity:0;fill-rule:evenodd;stroke:rgb(81, 0, 255);stroke-width:1;" d="M 485.837, 493.943 L 489.259, 482.234 L 487.638, 482.054 L 489.8, 474.848 L 492.322, 475.208 L 495.564, 464.58 L 493.042, 464.04 L 494.663, 458.635 L 521.684, 463.139 L 520.063, 468.903 L 521.864, 469.264 L 520.063, 475.388 L 522.225, 475.749 L 521.324, 479.351 L 519.883, 478.991 L 518.982, 482.414 L 520.243, 482.594 L 518.802, 487.638 L 517.361, 487.278 L 515.56, 493.583 L 513.758, 493.402 L 512.137, 498.446 L 485.837, 493.943 z "/>
<path style="fill:rgb(0, 255, 0);fill-opacity:0;fill-rule:evenodd;stroke:rgb(81, 0, 255);stroke-width:1;" d="M 735.87, 67.1921 L 771.718, 20.8962 L 779.644, 23.5983 L 764.332, 70.975 L 747.76, 66.1112 L 743.977, 65.751 L 742.175, 68.9935 L 735.87, 67.1921 z "/>
<path style="fill:rgb(0, 0, 255);fill-opacity:0;fill-rule:evenodd;stroke:rgb(81, 0, 255);stroke-width:1;" d="M 290.025, 629.948 L 290.745, 626.886 L 299.392, 614.276 L 350.552, 621.302 L 349.291, 626.165 L 346.589, 637.694 L 326.953, 634.992 L 328.034, 630.489 L 305.697, 627.606 L 304.616, 631.93 L 290.025, 629.948 z "/>
<path style="fill:rgb(255, 255, 0);fill-opacity:0;fill-rule:evenodd;stroke:rgb(81, 0, 255);stroke-width:1;" d="M 239.225, 605.629 L 248.052, 593.38 L 296.15, 613.556 L 287.503, 625.625 L 239.225, 605.629 z "/>
<path style="fill:rgb(255, 0, 0);fill-opacity:0;fill-rule:evenodd;stroke:rgb(81, 0, 255);stroke-width:1;" d="M 681.108, 242.648 L 681.828, 241.207 L 683.089, 241.567 L 697.681, 213.646 L 717.856, 219.59 L 717.316, 220.671 L 702.544, 249.133 L 681.108, 242.648 z "/>
<path style="fill:rgb(0, 255, 0);fill-opacity:0;fill-rule:evenodd;stroke:rgb(81, 0, 255);stroke-width:1;" d="M 546.544, 87.3677 L 551.587, 81.0628 L 553.209, 81.7834 L 559.874, 73.3168 L 560.414, 73.497 L 592.839, 88.2684 L 580.95, 103.04 L 546.544, 87.3677 z "/>
<path style="fill:rgb(0, 0, 255);fill-opacity:0;fill-rule:evenodd;stroke:rgb(81, 0, 255);stroke-width:1;" d="M 587.615, 35.1272 L 595.902, 24.1387 L 618.059, 33.8662 L 617.699, 34.4067 L 637.694, 43.2335 L 629.768, 53.6816 L 611.934, 45.7555 L 613.195, 43.9541 L 605.269, 40.5314 L 604.008, 42.3328 L 587.615, 35.1272 z "/>
<path style="fill:rgb(255, 255, 0);fill-opacity:0;fill-rule:evenodd;stroke:rgb(81, 0, 255);stroke-width:1;" d="M 477.01, 94.9336 L 482.954, 87.9081 L 519.162, 105.382 L 518.982, 105.382 L 513.038, 112.587 L 498.446, 105.562 L 496.285, 106.102 L 492.862, 104.481 L 492.502, 102.319 L 477.01, 94.9336 z "/>
<path style="fill:rgb(255, 0, 0);fill-opacity:0;fill-rule:evenodd;stroke:rgb(81, 0, 255);stroke-width:1;" d="M 654.447, 46.476 L 689.574, 0 L 702.184, 2.70209 L 703.625, 3.24251 L 702.364, 5.04391 L 708.669, 7.92614 L 709.57, 8.28642 L 714.254, 2.16168 L 735.33, 7.746 L 713.533, 36.2081 L 700.023, 30.4436 L 694.618, 37.469 L 708.129, 43.4136 L 690.835, 66.2914 L 675.524, 59.6262 L 678.226, 56.0234 L 676.424, 55.3029 L 677.505, 53.8617 L 668.138, 49.7185 L 666.517, 51.7001 L 654.447, 46.476 z "/>
<path style="fill:rgb(0, 255, 0);fill-opacity:0;fill-rule:evenodd;stroke:rgb(81, 0, 255);stroke-width:1;" d="M 595.902, 24.1387 L 611.934, 3.06237 L 614.456, 4.14321 L 629.948, 10.9885 L 627.066, 14.7714 L 647.422, 23.5983 L 636.613, 38.0095 L 624.184, 32.6053 L 624.904, 31.5244 L 620.941, 29.9032 L 618.059, 33.8662 L 595.902, 24.1387 z "/>
</svg>