<?xml version="1.0" encoding="iso-8859-1" standalone="no"?>
<!DOCTYPE svg PUBLIC "-//W3C//DTD SVG 1.0//EN" "http://www.w3.org/TR/2001/REC-SVG-20010904/DTD/svg10.dtd">
<svg xmlns="http://www.w3.org/2000/svg" width="1035" height="800">
<path style="fill:rgb(255, 0, 0);fill-opacity:0;fill-rule:evenodd;stroke:rgb(0, 255, 112);stroke-width:1;" d="M 818.589, 364.613 L 837.689, 338.35 L 848.263, 324.025 L 1003.62, 389.512 L 995.609, 400.597 L 989.299, 408.442 L 999.531, 412.705 L 987.252, 429.418 L 997.143, 433.682 L 985.035, 450.394 L 991.516, 453.123 L 981.624, 482.456 L 974.462, 481.603 L 974.291, 482.456 L 896.696, 449.542 L 901.13, 443.232 L 908.804, 432.658 L 914.432, 425.155 L 919.889, 417.821 L 907.951, 412.876 L 913.92, 404.69 L 880.665, 390.535 L 836.666, 371.946 L 831.379, 369.729 L 825.581, 367.342 L 818.589, 364.613 z "/>
<path style="fill:rgb(0, 255, 0);fill-opacity:0;fill-rule:evenodd;stroke:rgb(0, 255, 112);stroke-width:1;" d="M 448.348, 536.176 L 471.882, 503.603 L 505.308, 517.587 L 516.564, 502.409 L 496.099, 493.711 L 520.145, 460.627 L 641.057, 511.447 L 611.725, 552.036 L 593.818, 544.532 L 568.578, 533.788 L 566.873, 536.346 L 556.299, 550.842 L 548.454, 561.586 L 539.245, 574.376 L 448.348, 536.176 z "/>
<path style="fill:rgb(0, 0, 255);fill-opacity:0;fill-rule:evenodd;stroke:rgb(0, 255, 112);stroke-width:1;" d="M 888.68, 307.994 L 901.812, 290.428 L 893.797, 287.018 L 926.37, 242.507 L 934.897, 246.259 L 948.369, 228.182 L 1035, 265.359 L 1021.87, 282.925 L 1029.72, 286.165 L 997.143, 330.505 L 988.787, 327.094 L 975.314, 345.172 L 888.68, 307.994 z "/>
<path style="fill:rgb(255, 255, 0);fill-opacity:0;fill-rule:evenodd;stroke:rgb(0, 255, 112);stroke-width:1;" d="M 511.277, 424.813 L 534.982, 392.24 L 579.663, 411.17 L 591.089, 395.651 L 568.578, 386.272 L 592.454, 353.528 L 655.042, 380.303 L 653.166, 383.031 L 648.391, 389.682 L 642.933, 397.186 L 626.732, 419.015 L 636.964, 423.279 L 637.817, 425.325 L 630.996, 434.875 L 665.615, 449.542 L 677.553, 454.658 L 681.305, 456.363 L 658.964, 487.231 L 511.277, 424.813 z "/>
<path style="fill:rgb(255, 0, 0);fill-opacity:0;fill-rule:evenodd;stroke:rgb(0, 255, 112);stroke-width:1;" d="M 151.78, 411.511 L 208.74, 333.063 L 210.275, 333.575 L 211.98, 331.187 L 291.281, 364.443 L 264.677, 400.938 L 232.445, 445.449 L 151.78, 411.511 z "/>
<path style="fill:rgb(0, 255, 0);fill-opacity:0;fill-rule:evenodd;stroke:rgb(0, 255, 112);stroke-width:1;" d="M 713.025, 509.742 L 742.358, 469.836 L 849.456, 515.029 L 873.502, 525.261 L 851.673, 554.935 L 850.48, 556.64 L 847.922, 560.222 L 846.046, 562.78 L 844.34, 565.167 L 713.025, 509.742 z "/>
<path style="fill:rgb(0, 0, 255);fill-opacity:0;fill-rule:evenodd;stroke:rgb(0, 255, 112);stroke-width:1;" d="M 189.128, 702.281 L 215.903, 665.274 L 218.29, 662.034 L 242.848, 672.437 L 271.84, 632.53 L 311.746, 649.414 L 282.754, 689.149 L 300.831, 696.653 L 294.521, 705.351 L 271.499, 736.9 L 189.128, 702.281 z "/>
<path style="fill:rgb(255, 255, 0);fill-opacity:0;fill-rule:evenodd;stroke:rgb(0, 255, 112);stroke-width:1;" d="M 893.797, 287.018 L 926.37, 242.507 L 934.897, 246.259 L 1021.87, 282.925 L 1029.72, 286.165 L 997.143, 330.505 L 988.787, 327.094 L 901.812, 290.428 L 893.797, 287.018 z "/>
<path style="fill:rgb(255, 0, 0);fill-opacity:0;fill-rule:evenodd;stroke:rgb(0, 255, 112);stroke-width:1;" d="M 742.358, 469.836 L 771.52, 429.93 L 878.619, 475.123 L 849.456, 515.029 L 742.358, 469.836 z "/>
<path style="fill:rgb(0, 255, 0);fill-opacity:0;fill-rule:evenodd;stroke:rgb(0, 255, 112);stroke-width:1;" d="M 789.597, 404.349 L 818.589, 364.613 L 825.581, 367.342 L 831.379, 369.729 L 836.666, 371.946 L 880.665, 390.535 L 913.92, 404.69 L 907.951, 412.876 L 919.889, 417.821 L 914.432, 425.155 L 908.804, 432.658 L 901.13, 443.232 L 896.696, 449.542 L 789.597, 404.349 z "/>
<path style="fill:rgb(0, 0, 255);fill-opacity:0;fill-rule:evenodd;stroke:rgb(0, 255, 112);stroke-width:1;" d="M 559.71, 721.211 L 588.872, 680.793 L 642.422, 703.134 L 680.111, 718.823 L 674.142, 727.18 L 689.832, 733.831 L 666.638, 765.892 L 559.71, 721.211 z "/>
<path style="fill:rgb(255, 255, 0);fill-opacity:0;fill-rule:evenodd;stroke:rgb(0, 255, 112);stroke-width:1;" d="M 838.03, 700.234 L 865.487, 662.204 L 872.65, 665.274 L 891.239, 639.864 L 936.773, 658.964 L 923.812, 730.761 L 917.331, 733.49 L 838.03, 700.234 z "/>
<path style="fill:rgb(255, 0, 0);fill-opacity:0;fill-rule:evenodd;stroke:rgb(0, 255, 112);stroke-width:1;" d="M 849.456, 515.029 L 878.619, 475.123 L 972.927, 515.029 L 960.819, 562.268 L 957.919, 561.074 L 954.168, 559.54 L 949.392, 557.493 L 947.005, 556.47 L 939.16, 553.059 L 887.316, 531.23 L 873.502, 525.261 L 849.456, 515.029 z "/>
<path style="fill:rgb(0, 255, 0);fill-opacity:0;fill-rule:evenodd;stroke:rgb(0, 255, 112);stroke-width:1;" d="M 74.5257, 516.393 L 125.005, 446.984 L 192.198, 475.293 L 174.632, 499.169 L 158.602, 492.347 L 151.439, 502.068 L 125.346, 537.881 L 74.5257, 516.393 z "/>
<path style="fill:rgb(0, 0, 255);fill-opacity:0;fill-rule:evenodd;stroke:rgb(0, 255, 112);stroke-width:1;" d="M 844.34, 565.167 L 846.046, 562.78 L 847.922, 560.222 L 850.48, 556.64 L 851.673, 554.935 L 873.502, 525.261 L 887.316, 531.23 L 939.16, 553.059 L 947.005, 556.47 L 949.392, 557.493 L 954.168, 559.54 L 957.919, 561.074 L 960.819, 562.268 L 958.431, 572.159 L 952.121, 598.081 L 949.734, 608.655 L 948.199, 609.166 L 936.943, 604.391 L 855.084, 569.772 L 844.34, 565.167 z "/>
<path style="fill:rgb(255, 255, 0);fill-opacity:0;fill-rule:evenodd;stroke:rgb(0, 255, 112);stroke-width:1;" d="M 507.866, 285.653 L 534.3, 249.329 L 639.693, 293.669 L 613.259, 330.164 L 507.866, 285.653 z "/>
<path style="fill:rgb(255, 0, 0);fill-opacity:0;fill-rule:evenodd;stroke:rgb(0, 255, 112);stroke-width:1;" d="M 298.273, 557.664 L 327.436, 517.757 L 421.062, 557.152 L 392.07, 597.229 L 365.466, 585.973 L 342.272, 576.252 L 298.273, 557.664 z "/>
<path style="fill:rgb(0, 255, 0);fill-opacity:0;fill-rule:evenodd;stroke:rgb(0, 255, 112);stroke-width:1;" d="M 543.509, 163.036 L 570.113, 126.711 L 634.747, 153.997 L 656.406, 163.206 L 668.003, 168.152 L 658.111, 181.624 L 663.91, 184.012 L 661.352, 187.764 L 647.197, 206.864 L 543.509, 163.036 z "/>
<path style="fill:rgb(0, 0, 255);fill-opacity:0;fill-rule:evenodd;stroke:rgb(0, 255, 112);stroke-width:1;" d="M 392.07, 597.229 L 421.062, 557.152 L 511.959, 595.353 L 489.959, 625.538 L 482.797, 635.43 L 481.262, 634.747 L 410.659, 605.074 L 392.07, 597.229 z "/>
<path style="fill:rgb(255, 255, 0);fill-opacity:0;fill-rule:evenodd;stroke:rgb(0, 255, 112);stroke-width:1;" d="M 116.308, 120.912 L 142.571, 85.0991 L 196.291, 107.781 L 201.236, 100.959 L 228.864, 62.929 L 242.507, 68.7274 L 209.763, 113.409 L 223.748, 119.378 L 218.12, 127.222 L 197.655, 155.191 L 116.308, 120.912 z "/>
<path style="fill:rgb(255, 0, 0);fill-opacity:0;fill-rule:evenodd;stroke:rgb(0, 255, 112);stroke-width:1;" d="M 686.932, 307.994 L 690.173, 303.389 L 715.924, 268.088 L 794.713, 301.172 L 762.481, 345.342 L 751.396, 340.738 L 715.242, 325.56 L 718.312, 321.296 L 706.033, 316.009 L 707.738, 313.622 L 699.552, 310.211 L 697.847, 312.599 L 686.932, 307.994 z "/>
<path style="fill:rgb(0, 255, 0);fill-opacity:0;fill-rule:evenodd;stroke:rgb(0, 255, 112);stroke-width:1;" d="M 281.902, 328.288 L 307.994, 292.475 L 311.234, 288.041 L 329.311, 295.715 L 364.613, 310.552 L 391.899, 321.978 L 362.567, 362.226 L 281.902, 328.288 z "/>
<path style="fill:rgb(0, 0, 255);fill-opacity:0;fill-rule:evenodd;stroke:rgb(0, 255, 112);stroke-width:1;" d="M 636.282, 615.476 L 663.91, 577.617 L 669.367, 579.834 L 667.661, 582.221 L 700.576, 596.035 L 698.188, 599.446 L 712.343, 605.415 L 714.73, 602.004 L 752.931, 618.035 L 727.18, 653.677 L 636.282, 615.476 z "/>
<path style="fill:rgb(255, 255, 0);fill-opacity:0;fill-rule:evenodd;stroke:rgb(0, 255, 112);stroke-width:1;" d="M 626.732, 419.015 L 642.933, 397.186 L 648.391, 389.682 L 653.166, 383.031 L 655.042, 380.303 L 717.8, 406.395 L 705.351, 423.62 L 686.932, 448.689 L 681.305, 456.363 L 677.553, 454.658 L 665.615, 449.542 L 630.996, 434.875 L 637.817, 425.325 L 636.964, 423.279 L 626.732, 419.015 z "/>
<path style="fill:rgb(255, 0, 0);fill-opacity:0;fill-rule:evenodd;stroke:rgb(0, 255, 112);stroke-width:1;" d="M 314.816, 422.085 L 341.42, 385.589 L 422.255, 419.527 L 395.651, 456.022 L 387.465, 452.611 L 357.792, 440.162 L 337.327, 431.465 L 314.816, 422.085 z "/>
<path style="fill:rgb(0, 255, 0);fill-opacity:0;fill-rule:evenodd;stroke:rgb(0, 255, 112);stroke-width:1;" d="M 656.406, 163.206 L 688.297, 119.548 L 755.148, 147.858 L 726.327, 187.252 L 723.257, 191.516 L 714.048, 187.593 L 678.576, 172.586 L 668.003, 168.152 L 656.406, 163.206 z "/>
<path style="fill:rgb(0, 0, 255);fill-opacity:0;fill-rule:evenodd;stroke:rgb(0, 255, 112);stroke-width:1;" d="M 707.568, 782.946 L 730.42, 751.226 L 757.877, 762.652 L 778.342, 734.342 L 793.349, 713.537 L 833.255, 730.249 L 832.914, 730.761 L 807.845, 765.381 L 781.411, 754.295 L 773.055, 765.892 L 748.497, 800 L 707.568, 782.946 z "/>
<path style="fill:rgb(255, 255, 0);fill-opacity:0;fill-rule:evenodd;stroke:rgb(0, 255, 112);stroke-width:1;" d="M 381.155, 645.662 L 410.659, 605.074 L 481.262, 634.747 L 475.975, 641.91 L 451.588, 675.336 L 381.155, 645.662 z "/>
<path style="fill:rgb(255, 0, 0);fill-opacity:0;fill-rule:evenodd;stroke:rgb(0, 255, 112);stroke-width:1;" d="M 588.872, 680.793 L 618.035, 640.375 L 692.901, 671.584 L 669.537, 703.986 L 648.22, 694.948 L 642.422, 703.134 L 588.872, 680.793 z "/>
<path style="fill:rgb(0, 255, 0);fill-opacity:0;fill-rule:evenodd;stroke:rgb(0, 255, 112);stroke-width:1;" d="M 570.113, 126.711 L 602.004, 83.0527 L 666.638, 110.339 L 634.747, 153.997 L 570.113, 126.711 z "/>
<path style="fill:rgb(0, 0, 255);fill-opacity:0;fill-rule:evenodd;stroke:rgb(0, 255, 112);stroke-width:1;" d="M 257.514, 266.041 L 285.994, 227.158 L 287.7, 227.841 L 289.235, 225.794 L 358.815, 255.127 L 332.722, 291.111 L 314.816, 283.607 L 311.575, 287.87 L 298.955, 282.413 L 302.025, 278.15 L 293.328, 274.568 L 289.746, 279.685 L 257.514, 266.041 z "/>
<path style="fill:rgb(255, 255, 0);fill-opacity:0;fill-rule:evenodd;stroke:rgb(0, 255, 112);stroke-width:1;" d="M 355.233, 496.952 L 387.465, 452.611 L 395.651, 456.022 L 415.604, 464.549 L 446.301, 477.34 L 449.371, 478.704 L 417.139, 523.044 L 355.233, 496.952 z "/>
<path style="fill:rgb(255, 0, 0);fill-opacity:0;fill-rule:evenodd;stroke:rgb(0, 255, 112);stroke-width:1;" d="M 230.228, 529.013 L 260.243, 488.766 L 327.436, 517.757 L 298.273, 557.664 L 282.754, 551.183 L 245.065, 535.323 L 230.228, 529.013 z "/>
<path style="fill:rgb(0, 255, 0);fill-opacity:0;fill-rule:evenodd;stroke:rgb(0, 255, 112);stroke-width:1;" d="M 442.72, 206.012 L 472.223, 165.423 L 539.586, 193.733 L 510.083, 234.321 L 472.564, 218.461 L 442.891, 206.012 L 442.72, 206.012 z "/>
<path style="fill:rgb(0, 0, 255);fill-opacity:0;fill-rule:evenodd;stroke:rgb(0, 255, 112);stroke-width:1;" d="M 687.444, 223.918 L 714.048, 187.593 L 723.257, 191.516 L 726.327, 187.252 L 772.714, 206.864 L 763.334, 219.655 L 779.024, 226.306 L 758.729, 254.104 L 687.444, 223.918 z "/>
<path style="fill:rgb(255, 255, 0);fill-opacity:0;fill-rule:evenodd;stroke:rgb(0, 255, 112);stroke-width:1;" d="M 908.804, 432.658 L 914.432, 425.155 L 919.889, 417.821 L 925.858, 409.806 L 935.92, 396.333 L 939.842, 391.047 L 942.4, 387.465 L 945.129, 383.884 L 947.858, 380.132 L 962.353, 386.442 L 995.609, 400.597 L 989.299, 408.442 L 956.896, 452.952 L 932.68, 442.891 L 908.804, 432.658 z "/>
<path style="fill:rgb(255, 0, 0);fill-opacity:0;fill-rule:evenodd;stroke:rgb(0, 255, 112);stroke-width:1;" d="M 429.93, 390.706 L 459.262, 350.458 L 473.076, 356.257 L 492.006, 364.272 L 501.556, 368.194 L 521.168, 376.551 L 491.835, 416.628 L 429.93, 390.706 z "/>
<path style="fill:rgb(0, 255, 0);fill-opacity:0;fill-rule:evenodd;stroke:rgb(0, 255, 112);stroke-width:1;" d="M 435.557, 117.502 L 450.224, 97.5485 L 462.162, 81.1767 L 482.967, 89.8742 L 530.036, 109.827 L 503.432, 146.152 L 435.557, 117.502 z "/>
<path style="fill:rgb(0, 0, 255);fill-opacity:0;fill-rule:evenodd;stroke:rgb(0, 255, 112);stroke-width:1;" d="M 271.499, 736.9 L 294.521, 705.351 L 330.505, 720.358 L 371.094, 737.583 L 348.071, 769.132 L 271.499, 736.9 z "/>
<path style="fill:rgb(255, 255, 0);fill-opacity:0;fill-rule:evenodd;stroke:rgb(0, 255, 112);stroke-width:1;" d="M 253.251, 591.771 L 282.754, 551.183 L 298.273, 557.664 L 342.272, 576.252 L 317.715, 609.849 L 312.769, 616.841 L 253.251, 591.771 z "/>
<path style="fill:rgb(255, 0, 0);fill-opacity:0;fill-rule:evenodd;stroke:rgb(0, 255, 112);stroke-width:1;" d="M 851.673, 554.935 L 873.502, 525.261 L 887.316, 531.23 L 939.16, 553.059 L 947.005, 556.47 L 938.819, 590.748 L 937.455, 591.26 L 851.673, 554.935 z "/>
<path style="fill:rgb(0, 255, 0);fill-opacity:0;fill-rule:evenodd;stroke:rgb(0, 255, 112);stroke-width:1;" d="M 612.577, 270.816 L 638.329, 235.344 L 704.498, 263.142 L 678.747, 298.614 L 675.165, 303.389 L 670.39, 301.514 L 673.971, 296.568 L 612.577, 270.816 z "/>
<path style="fill:rgb(0, 0, 255);fill-opacity:0;fill-rule:evenodd;stroke:rgb(0, 255, 112);stroke-width:1;" d="M 624.515, 334.769 L 650.949, 298.444 L 715.242, 325.56 L 712.172, 329.823 L 688.808, 361.884 L 624.515, 334.769 z "/>
<path style="fill:rgb(255, 255, 0);fill-opacity:0;fill-rule:evenodd;stroke:rgb(0, 255, 112);stroke-width:1;" d="M 387.465, 182.648 L 390.535, 178.384 L 416.969, 142.23 L 472.223, 165.423 L 442.72, 206.012 L 388.318, 182.989 L 387.465, 182.648 z "/>
<path style="fill:rgb(255, 0, 0);fill-opacity:0;fill-rule:evenodd;stroke:rgb(0, 255, 112);stroke-width:1;" d="M 359.156, 223.065 L 385.419, 187.082 L 388.318, 182.989 L 442.72, 206.012 L 442.891, 206.012 L 413.728, 246.088 L 359.156, 223.065 z "/>
<path style="fill:rgb(0, 255, 0);fill-opacity:0;fill-rule:evenodd;stroke:rgb(0, 255, 112);stroke-width:1;" d="M 758.729, 254.104 L 779.024, 226.306 L 788.403, 213.515 L 842.294, 236.197 L 812.62, 276.785 L 758.729, 254.104 z "/>
<path style="fill:rgb(0, 0, 255);fill-opacity:0;fill-rule:evenodd;stroke:rgb(0, 255, 112);stroke-width:1;" d="M 282.754, 689.149 L 311.746, 649.414 L 365.466, 671.925 L 358.644, 681.305 L 338.179, 709.273 L 336.474, 711.661 L 300.831, 696.653 L 282.754, 689.149 z "/>
<path style="fill:rgb(255, 255, 0);fill-opacity:0;fill-rule:evenodd;stroke:rgb(0, 255, 112);stroke-width:1;" d="M 192.027, 645.662 L 217.949, 610.019 L 271.84, 632.53 L 242.848, 672.437 L 218.29, 662.034 L 205.841, 656.918 L 194.244, 651.972 L 197.143, 647.879 L 192.027, 645.662 z "/>
<path style="fill:rgb(255, 0, 0);fill-opacity:0;fill-rule:evenodd;stroke:rgb(0, 255, 112);stroke-width:1;" d="M 836.666, 371.946 L 848.945, 355.404 L 843.658, 353.187 L 850.65, 343.637 L 895.843, 362.737 L 892.603, 367.001 L 889.874, 370.923 L 939.842, 391.047 L 935.92, 396.333 L 925.858, 409.806 L 919.889, 417.821 L 907.951, 412.876 L 913.92, 404.69 L 880.665, 390.535 L 836.666, 371.946 z "/>
<path style="fill:rgb(0, 255, 0);fill-opacity:0;fill-rule:evenodd;stroke:rgb(0, 255, 112);stroke-width:1;" d="M 197.655, 155.191 L 218.12, 127.222 L 223.577, 129.439 L 229.375, 121.765 L 232.445, 117.502 L 279.855, 137.625 L 250.693, 177.702 L 197.655, 155.191 z "/>
<path style="fill:rgb(0, 0, 255);fill-opacity:0;fill-rule:evenodd;stroke:rgb(0, 255, 112);stroke-width:1;" d="M 228.693, 305.777 L 257.514, 266.041 L 289.746, 279.685 L 291.111, 280.196 L 288.211, 284.289 L 307.994, 292.475 L 281.902, 328.288 L 228.693, 305.777 z "/>
<path style="fill:rgb(255, 255, 0);fill-opacity:0;fill-rule:evenodd;stroke:rgb(0, 255, 112);stroke-width:1;" d="M 501.556, 368.194 L 531.059, 327.777 L 581.027, 348.753 L 551.524, 389.341 L 540.439, 384.737 L 521.168, 376.551 L 501.556, 368.194 z "/>
<path style="fill:rgb(255, 0, 0);fill-opacity:0;fill-rule:evenodd;stroke:rgb(0, 255, 112);stroke-width:1;" d="M 259.39, 456.704 L 291.622, 412.364 L 314.816, 422.085 L 337.327, 431.465 L 304.924, 475.805 L 259.39, 456.704 z "/>
<path style="fill:rgb(0, 255, 0);fill-opacity:0;fill-rule:evenodd;stroke:rgb(0, 255, 112);stroke-width:1;" d="M 166.105, 555.106 L 189.64, 522.703 L 195.609, 514.517 L 209.593, 520.315 L 230.228, 529.013 L 245.065, 535.323 L 215.562, 575.911 L 166.105, 555.106 z "/>
<path style="fill:rgb(0, 0, 255);fill-opacity:0;fill-rule:evenodd;stroke:rgb(0, 255, 112);stroke-width:1;" d="M 626.732, 419.015 L 642.933, 397.186 L 652.483, 401.279 L 656.406, 400.597 L 660.499, 394.799 L 694.948, 409.465 L 691.537, 414.24 L 693.242, 418.504 L 701.769, 422.085 L 683.351, 447.154 L 674.824, 443.573 L 669.026, 444.767 L 665.615, 449.542 L 630.996, 434.875 L 637.817, 425.325 L 636.964, 423.279 L 631.337, 420.891 L 626.732, 419.015 z "/>
<path style="fill:rgb(255, 255, 0);fill-opacity:0;fill-rule:evenodd;stroke:rgb(0, 255, 112);stroke-width:1;" d="M 330.505, 720.358 L 336.474, 711.661 L 338.179, 709.273 L 358.644, 681.305 L 365.466, 671.925 L 406.054, 689.149 L 399.403, 698.359 L 378.768, 726.498 L 376.892, 729.226 L 377.233, 729.397 L 371.094, 737.583 L 330.505, 720.358 z "/>
<path style="fill:rgb(255, 0, 0);fill-opacity:0;fill-rule:evenodd;stroke:rgb(0, 255, 112);stroke-width:1;" d="M 762.652, 612.918 L 767.598, 606.097 L 764.357, 604.732 L 786.698, 573.865 L 836.836, 595.012 L 809.55, 632.701 L 762.652, 612.918 z "/>
<path style="fill:rgb(0, 255, 0);fill-opacity:0;fill-rule:evenodd;stroke:rgb(0, 255, 112);stroke-width:1;" d="M 443.232, 258.538 L 472.564, 218.461 L 510.083, 234.321 L 518.61, 237.902 L 489.448, 277.979 L 443.232, 258.538 z "/>
<path style="fill:rgb(0, 0, 255);fill-opacity:0;fill-rule:evenodd;stroke:rgb(0, 255, 112);stroke-width:1;" d="M 335.792, 626.562 L 340.908, 619.569 L 365.466, 585.973 L 392.07, 597.229 L 410.659, 605.074 L 381.155, 645.662 L 335.792, 626.562 z "/>
<path style="fill:rgb(255, 255, 0);fill-opacity:0;fill-rule:evenodd;stroke:rgb(0, 255, 112);stroke-width:1;" d="M 726.327, 187.252 L 755.148, 147.858 L 801.535, 167.47 L 772.714, 206.864 L 726.327, 187.252 z "/>
<path style="fill:rgb(255, 0, 0);fill-opacity:0;fill-rule:evenodd;stroke:rgb(0, 255, 112);stroke-width:1;" d="M 264.677, 400.938 L 291.281, 364.443 L 341.42, 385.589 L 314.816, 422.085 L 291.622, 412.364 L 264.677, 400.938 z "/>
<path style="fill:rgb(0, 255, 0);fill-opacity:0;fill-rule:evenodd;stroke:rgb(0, 255, 112);stroke-width:1;" d="M 532.594, 238.073 L 559.028, 201.919 L 604.562, 221.19 L 575.229, 261.437 L 535.664, 244.724 L 538.734, 240.631 L 532.594, 238.073 z "/>
<path style="fill:rgb(0, 0, 255);fill-opacity:0;fill-rule:evenodd;stroke:rgb(0, 255, 112);stroke-width:1;" d="M 451.588, 675.336 L 475.975, 641.91 L 485.355, 645.832 L 529.354, 664.421 L 504.967, 697.847 L 451.588, 675.336 z "/>
<path style="fill:rgb(255, 255, 0);fill-opacity:0;fill-rule:evenodd;stroke:rgb(0, 255, 112);stroke-width:1;" d="M 209.763, 113.409 L 242.507, 68.7274 L 256.491, 74.5257 L 242.166, 94.3082 L 295.204, 116.649 L 279.855, 137.625 L 232.445, 117.502 L 229.375, 121.765 L 223.748, 119.378 L 209.763, 113.409 z "/>
<path style="fill:rgb(255, 0, 0);fill-opacity:0;fill-rule:evenodd;stroke:rgb(0, 255, 112);stroke-width:1;" d="M 822, 142.741 L 843.829, 112.556 L 900.618, 136.431 L 878.96, 166.446 L 822, 142.741 z "/>
<path style="fill:rgb(0, 255, 0);fill-opacity:0;fill-rule:evenodd;stroke:rgb(0, 255, 112);stroke-width:1;" d="M 57.3012, 341.079 L 69.58, 324.025 L 72.4792, 325.219 L 79.4713, 328.288 L 126.881, 348.241 L 103.347, 380.473 L 58.6655, 361.884 L 69.9211, 346.536 L 64.8049, 344.319 L 57.3012, 341.079 z "/>
<path style="fill:rgb(0, 0, 255);fill-opacity:0;fill-rule:evenodd;stroke:rgb(0, 255, 112);stroke-width:1;" d="M 432.488, 339.203 L 461.991, 298.614 L 502.579, 315.839 L 473.076, 356.257 L 459.262, 350.458 L 432.488, 339.203 z "/>
<path style="fill:rgb(255, 255, 0);fill-opacity:0;fill-rule:evenodd;stroke:rgb(0, 255, 112);stroke-width:1;" d="M 364.613, 310.552 L 394.116, 270.134 L 434.875, 287.188 L 405.372, 327.606 L 391.899, 321.978 L 364.613, 310.552 z "/>
<path style="fill:rgb(255, 0, 0);fill-opacity:0;fill-rule:evenodd;stroke:rgb(0, 255, 112);stroke-width:1;" d="M 136.602, 214.197 L 146.493, 200.725 L 165.764, 174.121 L 179.237, 179.748 L 171.904, 189.81 L 225.794, 212.492 L 210.787, 232.957 L 157.067, 210.446 L 150.075, 219.825 L 136.602, 214.197 z "/>
<path style="fill:rgb(0, 255, 0);fill-opacity:0;fill-rule:evenodd;stroke:rgb(0, 255, 112);stroke-width:1;" d="M 362.567, 362.226 L 391.899, 321.978 L 405.372, 327.606 L 432.317, 339.032 L 402.984, 379.279 L 362.567, 362.226 z "/>
<path style="fill:rgb(0, 0, 255);fill-opacity:0;fill-rule:evenodd;stroke:rgb(0, 255, 112);stroke-width:1;" d="M 148.369, 632.53 L 151.098, 628.779 L 177.19, 592.795 L 217.949, 610.019 L 192.027, 645.662 L 189.128, 649.755 L 180.772, 646.174 L 168.834, 641.228 L 148.369, 632.53 z "/>
<path style="fill:rgb(255, 255, 0);fill-opacity:0;fill-rule:evenodd;stroke:rgb(0, 255, 112);stroke-width:1;" d="M 74.6962, 322.149 L 94.1377, 295.545 L 148.54, 318.397 L 126.881, 348.241 L 79.4713, 328.288 L 81.8589, 325.048 L 74.6962, 322.149 z "/>
<path style="fill:rgb(255, 0, 0);fill-opacity:0;fill-rule:evenodd;stroke:rgb(0, 255, 112);stroke-width:1;" d="M 135.579, 239.949 L 150.075, 219.825 L 157.067, 210.446 L 210.787, 232.957 L 189.469, 262.631 L 154.85, 247.964 L 135.579, 239.949 z "/>
<path style="fill:rgb(0, 255, 0);fill-opacity:0;fill-rule:evenodd;stroke:rgb(0, 255, 112);stroke-width:1;" d="M 665.956, 574.888 L 694.777, 535.323 L 734.513, 551.865 L 708.761, 587.508 L 705.692, 591.601 L 665.956, 574.888 z "/>
<path style="fill:rgb(0, 0, 255);fill-opacity:0;fill-rule:evenodd;stroke:rgb(0, 255, 112);stroke-width:1;" d="M 888.68, 307.994 L 901.812, 290.428 L 988.787, 327.094 L 975.314, 345.172 L 888.68, 307.994 z "/>
<path style="fill:rgb(255, 255, 0);fill-opacity:0;fill-rule:evenodd;stroke:rgb(0, 255, 112);stroke-width:1;" d="M 835.131, 649.414 L 865.146, 607.973 L 902.835, 623.662 L 891.239, 639.864 L 872.65, 665.274 L 865.487, 662.204 L 835.131, 649.414 z "/>
<path style="fill:rgb(255, 0, 0);fill-opacity:0;fill-rule:evenodd;stroke:rgb(0, 255, 112);stroke-width:1;" d="M 873.161, 96.8663 L 894.308, 67.7041 L 947.687, 90.0448 L 926.54, 119.207 L 880.153, 99.936 L 873.161, 96.8663 z "/>
<path style="fill:rgb(0, 255, 0);fill-opacity:0;fill-rule:evenodd;stroke:rgb(0, 255, 112);stroke-width:1;" d="M 934.897, 246.259 L 948.369, 228.182 L 1035, 265.359 L 1021.87, 282.925 L 934.897, 246.259 z "/>
<path style="fill:rgb(0, 0, 255);fill-opacity:0;fill-rule:evenodd;stroke:rgb(0, 255, 112);stroke-width:1;" d="M 111.362, 611.725 L 115.967, 605.415 L 137.455, 576.082 L 177.19, 592.795 L 151.098, 628.779 L 146.152, 626.732 L 143.424, 630.484 L 132.168, 625.879 L 119.036, 620.252 L 112.385, 617.523 L 115.455, 613.43 L 111.362, 611.725 z "/>
<path style="fill:rgb(255, 255, 0);fill-opacity:0;fill-rule:evenodd;stroke:rgb(0, 255, 112);stroke-width:1;" d="M 171.051, 504.114 L 174.632, 499.169 L 192.198, 475.293 L 200.213, 464.038 L 238.926, 480.239 L 209.593, 520.315 L 195.609, 514.517 L 171.051, 504.114 z "/>
<path style="fill:rgb(255, 0, 0);fill-opacity:0;fill-rule:evenodd;stroke:rgb(0, 255, 112);stroke-width:1;" d="M 215.562, 575.911 L 245.065, 535.323 L 282.754, 551.183 L 253.251, 591.771 L 215.562, 575.911 z "/>
<path style="fill:rgb(0, 255, 0);fill-opacity:0;fill-rule:evenodd;stroke:rgb(0, 255, 112);stroke-width:1;" d="M 837.689, 338.35 L 848.263, 324.025 L 1003.62, 389.512 L 995.609, 400.597 L 962.353, 386.442 L 964.059, 384.055 L 854.402, 338.691 L 850.65, 343.637 L 844.681, 341.079 L 837.689, 338.35 z "/>
<path style="fill:rgb(0, 0, 255);fill-opacity:0;fill-rule:evenodd;stroke:rgb(0, 255, 112);stroke-width:1;" d="M 713.366, 727.18 L 723.257, 713.537 L 739.459, 691.025 L 780.388, 708.25 L 765.551, 728.885 L 754.466, 744.234 L 713.366, 727.18 z "/>
<path style="fill:rgb(255, 255, 0);fill-opacity:0;fill-rule:evenodd;stroke:rgb(0, 255, 112);stroke-width:1;" d="M 503.432, 146.152 L 530.036, 109.827 L 549.478, 118.013 L 570.113, 126.711 L 543.509, 163.036 L 503.432, 146.152 z "/>
<path style="fill:rgb(255, 0, 0);fill-opacity:0;fill-rule:evenodd;stroke:rgb(0, 255, 112);stroke-width:1;" d="M 329.311, 295.715 L 332.722, 291.111 L 358.815, 255.127 L 394.116, 270.134 L 364.613, 310.552 L 329.311, 295.715 z "/>
<path style="fill:rgb(0, 255, 0);fill-opacity:0;fill-rule:evenodd;stroke:rgb(0, 255, 112);stroke-width:1;" d="M 539.245, 574.376 L 548.454, 561.586 L 572.671, 571.818 L 580.516, 561.074 L 556.299, 550.842 L 566.873, 536.346 L 591.942, 546.92 L 593.818, 544.532 L 611.725, 552.036 L 582.221, 592.454 L 539.245, 574.376 z "/>
<path style="fill:rgb(0, 0, 255);fill-opacity:0;fill-rule:evenodd;stroke:rgb(0, 255, 112);stroke-width:1;" d="M 647.197, 206.864 L 661.352, 187.764 L 665.956, 189.81 L 678.576, 172.586 L 714.048, 187.593 L 687.444, 223.918 L 647.197, 206.864 z "/>
<path style="fill:rgb(255, 255, 0);fill-opacity:0;fill-rule:evenodd;stroke:rgb(0, 255, 112);stroke-width:1;" d="M 914.432, 425.155 L 919.889, 417.821 L 925.858, 409.806 L 935.92, 396.333 L 939.842, 391.047 L 942.4, 387.465 L 978.725, 402.984 L 950.757, 440.674 L 914.432, 425.155 z "/>
<path style="fill:rgb(255, 0, 0);fill-opacity:0;fill-rule:evenodd;stroke:rgb(0, 255, 112);stroke-width:1;" d="M 125.346, 537.881 L 151.439, 502.068 L 167.47, 508.719 L 164.912, 512.13 L 189.64, 522.703 L 166.105, 555.106 L 125.346, 537.881 z "/>
<path style="fill:rgb(0, 255, 0);fill-opacity:0;fill-rule:evenodd;stroke:rgb(0, 255, 112);stroke-width:1;" d="M 631.337, 420.891 L 644.809, 402.473 L 651.801, 405.372 L 659.817, 403.837 L 662.545, 400.085 L 688.126, 411 L 686.08, 413.728 L 689.149, 421.062 L 694.948, 423.62 L 681.305, 442.038 L 675.506, 439.48 L 665.786, 441.526 L 663.569, 444.255 L 637.988, 433.511 L 640.034, 430.612 L 637.817, 425.325 L 636.964, 423.279 L 631.337, 420.891 z "/>
<path style="fill:rgb(0, 0, 255);fill-opacity:0;fill-rule:evenodd;stroke:rgb(0, 255, 112);stroke-width:1;" d="M 485.355, 645.832 L 497.634, 628.779 L 489.959, 625.538 L 511.959, 595.353 L 531.23, 603.539 L 525.432, 611.554 L 519.804, 619.058 L 509.06, 633.895 L 541.633, 647.538 L 529.354, 664.421 L 485.355, 645.832 z "/>
<path style="fill:rgb(255, 255, 0);fill-opacity:0;fill-rule:evenodd;stroke:rgb(0, 255, 112);stroke-width:1;" d="M 843.829, 112.556 L 851.162, 102.494 L 855.084, 97.0369 L 868.898, 102.835 L 869.921, 101.3 L 877.084, 104.2 L 880.153, 99.936 L 926.54, 119.207 L 911.021, 140.695 L 900.618, 136.431 L 843.829, 112.556 z "/>
<path style="fill:rgb(255, 0, 0);fill-opacity:0;fill-rule:evenodd;stroke:rgb(0, 255, 112);stroke-width:1;" d="M 325.56, 484.502 L 357.792, 440.162 L 387.465, 452.611 L 355.233, 496.952 L 325.56, 484.502 z "/>
<path style="fill:rgb(0, 255, 0);fill-opacity:0;fill-rule:evenodd;stroke:rgb(0, 255, 112);stroke-width:1;" d="M 708.761, 587.508 L 734.513, 551.865 L 770.838, 567.214 L 761.458, 580.175 L 751.226, 594.159 L 744.916, 602.686 L 708.761, 587.508 z "/>
<path style="fill:rgb(0, 0, 255);fill-opacity:0;fill-rule:evenodd;stroke:rgb(0, 255, 112);stroke-width:1;" d="M 664.933, 710.296 L 669.537, 703.986 L 692.901, 671.584 L 725.133, 685.227 L 708.932, 707.738 L 697.335, 723.769 L 664.933, 710.296 z "/>
<path style="fill:rgb(255, 255, 0);fill-opacity:0;fill-rule:evenodd;stroke:rgb(0, 255, 112);stroke-width:1;" d="M 805.116, 686.421 L 831.55, 650.096 L 832.744, 648.561 L 835.131, 649.414 L 865.487, 662.204 L 838.03, 700.234 L 805.116, 686.421 z "/>
<path style="fill:rgb(255, 0, 0);fill-opacity:0;fill-rule:evenodd;stroke:rgb(0, 255, 112);stroke-width:1;" d="M 351.993, 135.92 L 363.76, 119.719 L 416.969, 142.23 L 390.535, 178.384 L 371.776, 170.369 L 382.52, 155.873 L 386.442, 150.416 L 351.993, 135.92 z "/>
<path style="fill:rgb(0, 255, 0);fill-opacity:0;fill-rule:evenodd;stroke:rgb(0, 255, 112);stroke-width:1;" d="M 870.092, 554.764 L 887.316, 531.23 L 939.16, 553.059 L 922.106, 576.593 L 870.092, 554.764 z "/>
<path style="fill:rgb(0, 0, 255);fill-opacity:0;fill-rule:evenodd;stroke:rgb(0, 255, 112);stroke-width:1;" d="M 376.892, 729.226 L 378.768, 726.498 L 399.403, 698.359 L 406.054, 689.149 L 435.899, 701.599 L 406.736, 741.846 L 397.016, 737.753 L 389.341, 734.513 L 377.233, 729.397 L 376.892, 729.226 z "/>
<path style="fill:rgb(255, 255, 0);fill-opacity:0;fill-rule:evenodd;stroke:rgb(0, 255, 112);stroke-width:1;" d="M 232.445, 445.449 L 264.677, 400.938 L 291.622, 412.364 L 259.39, 456.704 L 232.445, 445.449 z "/>
<path style="fill:rgb(255, 0, 0);fill-opacity:0;fill-rule:evenodd;stroke:rgb(0, 255, 112);stroke-width:1;" d="M 413.728, 246.088 L 442.891, 206.012 L 472.564, 218.461 L 443.232, 258.538 L 413.728, 246.088 z "/>
<path style="fill:rgb(0, 255, 0);fill-opacity:0;fill-rule:evenodd;stroke:rgb(0, 255, 112);stroke-width:1;" d="M 773.396, 673.119 L 799.829, 636.794 L 804.946, 639.011 L 818.077, 644.468 L 827.798, 648.561 L 831.55, 650.096 L 805.116, 686.421 L 773.396, 673.119 z "/>
<path style="fill:rgb(0, 0, 255);fill-opacity:0;fill-rule:evenodd;stroke:rgb(0, 255, 112);stroke-width:1;" d="M 338.179, 709.273 L 358.644, 681.305 L 399.403, 698.359 L 378.768, 726.498 L 338.179, 709.273 z "/>
<path style="fill:rgb(255, 255, 0);fill-opacity:0;fill-rule:evenodd;stroke:rgb(0, 255, 112);stroke-width:1;" d="M 671.754, 767.939 L 694.607, 736.389 L 730.42, 751.226 L 707.568, 782.946 L 671.754, 767.939 z "/>
<path style="fill:rgb(255, 0, 0);fill-opacity:0;fill-rule:evenodd;stroke:rgb(0, 255, 112);stroke-width:1;" d="M 415.604, 464.549 L 442.208, 427.883 L 472.906, 440.844 L 446.301, 477.34 L 415.604, 464.549 z "/>
<path style="fill:rgb(0, 255, 0);fill-opacity:0;fill-rule:evenodd;stroke:rgb(0, 255, 112);stroke-width:1;" d="M 379.45, 762.14 L 397.016, 737.753 L 406.736, 741.846 L 417.992, 746.621 L 419.697, 744.063 L 442.72, 753.613 L 423.279, 780.388 L 407.418, 773.737 L 379.45, 762.14 z "/>
<path style="fill:rgb(0, 0, 255);fill-opacity:0;fill-rule:evenodd;stroke:rgb(0, 255, 112);stroke-width:1;" d="M 405.372, 327.606 L 434.875, 287.188 L 461.991, 298.614 L 432.488, 339.203 L 432.317, 339.032 L 405.372, 327.606 z "/>
<path style="fill:rgb(255, 255, 0);fill-opacity:0;fill-rule:evenodd;stroke:rgb(0, 255, 112);stroke-width:1;" d="M 788.403, 213.515 L 803.24, 193.221 L 857.131, 215.903 L 842.294, 236.197 L 788.403, 213.515 z "/>
<path style="fill:rgb(255, 0, 0);fill-opacity:0;fill-rule:evenodd;stroke:rgb(0, 255, 112);stroke-width:1;" d="M 109.316, 202.771 L 138.478, 162.695 L 138.478, 162.695 L 165.764, 174.121 L 146.493, 200.725 L 136.602, 214.197 L 109.316, 202.771 z "/>
<path style="fill:rgb(0, 255, 0);fill-opacity:0;fill-rule:evenodd;stroke:rgb(0, 255, 112);stroke-width:1;" d="M 402.984, 379.279 L 432.317, 339.032 L 432.488, 339.203 L 459.262, 350.458 L 429.93, 390.706 L 402.984, 379.279 z "/>
<path style="fill:rgb(0, 0, 255);fill-opacity:0;fill-rule:evenodd;stroke:rgb(0, 255, 112);stroke-width:1;" d="M 795.054, 131.486 L 824.217, 91.068 L 851.162, 102.494 L 843.829, 112.556 L 822, 142.741 L 795.054, 131.486 z "/>
<path style="fill:rgb(255, 255, 0);fill-opacity:0;fill-rule:evenodd;stroke:rgb(0, 255, 112);stroke-width:1;" d="M 754.807, 114.602 L 783.969, 74.3551 L 791.644, 77.5954 L 810.403, 85.4402 L 781.411, 125.687 L 754.807, 114.602 z "/>
<path style="fill:rgb(255, 0, 0);fill-opacity:0;fill-rule:evenodd;stroke:rgb(0, 255, 112);stroke-width:1;" d="M 380.132, 761.97 L 397.357, 738.435 L 418.162, 747.133 L 419.868, 744.745 L 441.867, 753.954 L 422.938, 779.706 L 380.132, 761.97 z "/>
<path style="fill:rgb(0, 255, 0);fill-opacity:0;fill-rule:evenodd;stroke:rgb(0, 255, 112);stroke-width:1;" d="M 80.8356, 604.221 L 81.8589, 602.857 L 96.0136, 583.415 L 99.7655, 578.299 L 109.827, 564.485 L 137.455, 576.082 L 115.967, 605.415 L 111.533, 603.539 L 104.029, 613.942 L 80.8356, 604.221 z "/>
<path style="fill:rgb(0, 0, 255);fill-opacity:0;fill-rule:evenodd;stroke:rgb(0, 255, 112);stroke-width:1;" d="M 242.166, 94.3082 L 256.491, 74.5257 L 309.529, 96.8663 L 295.204, 116.649 L 242.166, 94.3082 z "/>
<path style="fill:rgb(255, 255, 0);fill-opacity:0;fill-rule:evenodd;stroke:rgb(0, 255, 112);stroke-width:1;" d="M 534.982, 392.24 L 540.439, 384.737 L 551.524, 389.341 L 581.027, 348.753 L 592.454, 353.528 L 568.578, 386.272 L 591.089, 395.651 L 579.663, 411.17 L 534.982, 392.24 z "/>
<path style="fill:rgb(255, 0, 0);fill-opacity:0;fill-rule:evenodd;stroke:rgb(0, 255, 112);stroke-width:1;" d="M 53.3788, 645.15 L 76.4016, 613.43 L 74.6962, 612.748 L 80.8356, 604.221 L 104.029, 613.942 L 106.587, 614.965 L 77.2543, 655.212 L 53.3788, 645.15 z "/>
<path style="fill:rgb(0, 255, 0);fill-opacity:0;fill-rule:evenodd;stroke:rgb(0, 255, 112);stroke-width:1;" d="M 634.747, 153.997 L 666.638, 110.339 L 688.297, 119.548 L 656.406, 163.206 L 634.747, 153.997 z "/>
<path style="fill:rgb(0, 0, 255);fill-opacity:0;fill-rule:evenodd;stroke:rgb(0, 255, 112);stroke-width:1;" d="M 471.882, 503.603 L 480.58, 491.835 L 507.184, 455.169 L 520.145, 460.627 L 496.099, 493.711 L 516.564, 502.409 L 505.308, 517.587 L 471.882, 503.603 z "/>
<path style="fill:rgb(255, 255, 0);fill-opacity:0;fill-rule:evenodd;stroke:rgb(0, 255, 112);stroke-width:1;" d="M 304.924, 475.805 L 337.327, 431.465 L 357.792, 440.162 L 325.56, 484.502 L 304.924, 475.805 z "/>
<path style="fill:rgb(255, 0, 0);fill-opacity:0;fill-rule:evenodd;stroke:rgb(0, 255, 112);stroke-width:1;" d="M 575.229, 261.437 L 604.562, 221.19 L 626.903, 230.569 L 597.57, 270.816 L 575.229, 261.437 z "/>
<path style="fill:rgb(0, 255, 0);fill-opacity:0;fill-rule:evenodd;stroke:rgb(0, 255, 112);stroke-width:1;" d="M 549.478, 118.013 L 581.369, 74.5257 L 602.004, 83.0527 L 570.113, 126.711 L 549.478, 118.013 z "/>
<path style="fill:rgb(0, 0, 255);fill-opacity:0;fill-rule:evenodd;stroke:rgb(0, 255, 112);stroke-width:1;" d="M 417.139, 523.044 L 449.371, 478.704 L 466.596, 485.867 L 468.983, 486.89 L 436.751, 531.23 L 417.139, 523.044 z "/>
<path style="fill:rgb(255, 255, 0);fill-opacity:0;fill-rule:evenodd;stroke:rgb(0, 255, 112);stroke-width:1;" d="M 859.007, 376.21 L 866.34, 366.66 L 935.92, 396.333 L 925.858, 409.806 L 913.92, 404.69 L 880.665, 390.535 L 883.564, 386.783 L 859.007, 376.21 z "/>
<path style="fill:rgb(255, 0, 0);fill-opacity:0;fill-rule:evenodd;stroke:rgb(0, 255, 112);stroke-width:1;" d="M 209.593, 520.315 L 238.926, 480.239 L 260.243, 488.766 L 230.228, 529.013 L 209.593, 520.315 z "/>
<path style="fill:rgb(0, 255, 0);fill-opacity:0;fill-rule:evenodd;stroke:rgb(0, 255, 112);stroke-width:1;" d="M 383.543, 761.117 L 398.209, 740.823 L 419.186, 749.691 L 420.891, 747.303 L 438.627, 754.637 L 422.085, 777.318 L 383.543, 761.117 z "/>
<path style="fill:rgb(0, 0, 255);fill-opacity:0;fill-rule:evenodd;stroke:rgb(0, 255, 112);stroke-width:1;" d="M 741.334, 659.646 L 768.791, 621.957 L 789.938, 630.654 L 788.915, 632.189 L 762.481, 668.514 L 741.334, 659.646 z "/>
<path style="fill:rgb(255, 255, 0);fill-opacity:0;fill-rule:evenodd;stroke:rgb(0, 255, 112);stroke-width:1;" d="M 510.083, 234.321 L 539.586, 193.733 L 559.028, 201.919 L 532.594, 238.073 L 529.525, 242.507 L 518.61, 237.902 L 510.083, 234.321 z "/>
<path style="fill:rgb(255, 0, 0);fill-opacity:0;fill-rule:evenodd;stroke:rgb(0, 255, 112);stroke-width:1;" d="M 491.835, 416.628 L 521.168, 376.551 L 540.439, 384.737 L 534.982, 392.24 L 511.277, 424.813 L 491.835, 416.628 z "/>
<path style="fill:rgb(0, 255, 0);fill-opacity:0;fill-rule:evenodd;stroke:rgb(0, 255, 112);stroke-width:1;" d="M 317.715, 609.849 L 342.272, 576.252 L 365.466, 585.973 L 340.908, 619.569 L 317.715, 609.849 z "/>
<path style="fill:rgb(0, 0, 255);fill-opacity:0;fill-rule:evenodd;stroke:rgb(0, 255, 112);stroke-width:1;" d="M 120.912, 260.072 L 135.579, 239.949 L 154.85, 247.964 L 148.199, 257.173 L 182.818, 271.669 L 174.803, 282.754 L 120.912, 260.072 z "/>
<path style="fill:rgb(255, 255, 0);fill-opacity:0;fill-rule:evenodd;stroke:rgb(0, 255, 112);stroke-width:1;" d="M 473.076, 356.257 L 502.579, 315.839 L 521.509, 323.684 L 492.006, 364.272 L 473.076, 356.257 z "/>
<path style="fill:rgb(255, 0, 0);fill-opacity:0;fill-rule:evenodd;stroke:rgb(0, 255, 112);stroke-width:1;" d="M 943.594, 193.392 L 960.819, 169.687 L 992.539, 182.818 L 975.485, 206.694 L 943.594, 193.392 z "/>
<path style="fill:rgb(0, 255, 0);fill-opacity:0;fill-rule:evenodd;stroke:rgb(0, 255, 112);stroke-width:1;" d="M 125.005, 446.984 L 133.191, 435.899 L 200.213, 464.038 L 192.198, 475.293 L 125.005, 446.984 z "/>
<path style="fill:rgb(0, 0, 255);fill-opacity:0;fill-rule:evenodd;stroke:rgb(0, 255, 112);stroke-width:1;" d="M 446.301, 477.34 L 472.906, 440.844 L 493.2, 449.371 L 466.596, 485.867 L 449.371, 478.704 L 446.301, 477.34 z "/>
<path style="fill:rgb(255, 255, 0);fill-opacity:0;fill-rule:evenodd;stroke:rgb(0, 255, 112);stroke-width:1;" d="M 489.448, 277.979 L 518.61, 237.902 L 529.525, 242.507 L 537.028, 245.577 L 534.3, 249.329 L 507.866, 285.653 L 489.448, 277.979 z "/>
<path style="fill:rgb(255, 0, 0);fill-opacity:0;fill-rule:evenodd;stroke:rgb(0, 255, 112);stroke-width:1;" d="M 332.381, 162.865 L 348.071, 141.377 L 382.52, 155.873 L 371.776, 170.369 L 366.83, 177.361 L 332.381, 162.865 z "/>
<path style="fill:rgb(0, 255, 0);fill-opacity:0;fill-rule:evenodd;stroke:rgb(0, 255, 112);stroke-width:1;" d="M 395.651, 456.022 L 422.255, 419.527 L 442.208, 427.883 L 415.604, 464.549 L 395.651, 456.022 z "/>
<path style="fill:rgb(0, 0, 255);fill-opacity:0;fill-rule:evenodd;stroke:rgb(0, 255, 112);stroke-width:1;" d="M 896.696, 449.542 L 901.13, 443.232 L 924.835, 453.464 L 969.175, 472.053 L 985.035, 450.394 L 991.516, 453.123 L 981.624, 482.456 L 974.462, 481.603 L 974.291, 482.456 L 896.696, 449.542 z "/>
<path style="fill:rgb(255, 255, 0);fill-opacity:0;fill-rule:evenodd;stroke:rgb(0, 255, 112);stroke-width:1;" d="M 317.203, 183.671 L 332.381, 162.865 L 366.83, 177.361 L 352.505, 197.143 L 351.652, 198.167 L 317.203, 183.671 z "/>
<path style="fill:rgb(255, 0, 0);fill-opacity:0;fill-rule:evenodd;stroke:rgb(0, 255, 112);stroke-width:1;" d="M 927.734, 449.712 L 932.68, 442.891 L 956.896, 452.952 L 989.299, 408.442 L 999.531, 412.705 L 987.252, 429.418 L 962.012, 464.038 L 927.734, 449.712 z "/>
<path style="fill:rgb(0, 255, 0);fill-opacity:0;fill-rule:evenodd;stroke:rgb(0, 255, 112);stroke-width:1;" d="M 86.1224, 234.662 L 98.0601, 218.461 L 111.533, 224.089 L 112.556, 222.554 L 126.199, 228.182 L 125.176, 229.716 L 138.137, 235.174 L 126.199, 251.546 L 86.1224, 234.662 z "/>
<path style="fill:rgb(0, 0, 255);fill-opacity:0;fill-rule:evenodd;stroke:rgb(0, 255, 112);stroke-width:1;" d="M 891.239, 639.864 L 902.835, 623.662 L 938.478, 638.67 L 940.524, 641.398 L 936.773, 658.964 L 891.239, 639.864 z "/>
<path style="fill:rgb(255, 255, 0);fill-opacity:0;fill-rule:evenodd;stroke:rgb(0, 255, 112);stroke-width:1;" d="M 806.31, 767.598 L 807.845, 765.381 L 832.914, 730.761 L 850.821, 738.265 L 824.217, 775.101 L 806.31, 767.598 z "/>
<path style="fill:rgb(255, 0, 0);fill-opacity:0;fill-rule:evenodd;stroke:rgb(0, 255, 112);stroke-width:1;" d="M 339.544, 214.88 L 346.365, 205.329 L 348.582, 206.353 L 350.97, 203.283 L 348.582, 202.26 L 351.652, 198.167 L 352.505, 197.143 L 354.722, 197.996 L 368.024, 179.748 L 385.419, 187.082 L 359.156, 223.065 L 339.544, 214.88 z "/>
<path style="fill:rgb(0, 255, 0);fill-opacity:0;fill-rule:evenodd;stroke:rgb(0, 255, 112);stroke-width:1;" d="M 382.008, 94.8199 L 396.674, 74.8668 L 428.395, 88.3394 L 413.728, 108.292 L 382.008, 94.8199 z "/>
<path style="fill:rgb(0, 0, 255);fill-opacity:0;fill-rule:evenodd;stroke:rgb(0, 255, 112);stroke-width:1;" d="M 772.714, 206.864 L 801.535, 167.47 L 817.224, 174.121 L 810.573, 183.159 L 803.24, 193.221 L 788.403, 213.515 L 772.714, 206.864 z "/>
<path style="fill:rgb(255, 255, 0);fill-opacity:0;fill-rule:evenodd;stroke:rgb(0, 255, 112);stroke-width:1;" d="M 804.946, 639.011 L 809.55, 632.701 L 836.836, 595.012 L 850.139, 600.469 L 849.456, 601.322 L 818.077, 644.468 L 804.946, 639.011 z "/>
<path style="fill:rgb(255, 0, 0);fill-opacity:0;fill-rule:evenodd;stroke:rgb(0, 255, 112);stroke-width:1;" d="M 305.095, 200.384 L 317.203, 183.671 L 351.652, 198.167 L 348.582, 202.26 L 346.365, 205.329 L 339.544, 214.88 L 305.095, 200.384 z "/>
<path style="fill:rgb(0, 255, 0);fill-opacity:0;fill-rule:evenodd;stroke:rgb(0, 255, 112);stroke-width:1;" d="M 743.21, 605.244 L 744.916, 602.686 L 751.226, 594.159 L 753.954, 595.182 L 764.016, 581.198 L 761.458, 580.175 L 770.838, 567.214 L 786.698, 573.865 L 764.357, 604.732 L 759.071, 611.895 L 743.21, 605.244 z "/>
<path style="fill:rgb(0, 0, 255);fill-opacity:0;fill-rule:evenodd;stroke:rgb(0, 255, 112);stroke-width:1;" d="M 94.1377, 295.545 L 101.641, 285.142 L 156.214, 308.165 L 148.54, 318.397 L 94.1377, 295.545 z "/>
<path style="fill:rgb(255, 255, 0);fill-opacity:0;fill-rule:evenodd;stroke:rgb(0, 255, 112);stroke-width:1;" d="M 781.411, 125.687 L 810.403, 85.4402 L 810.915, 85.6107 L 824.217, 91.068 L 795.054, 131.486 L 781.411, 125.687 z "/>
<path style="fill:rgb(255, 0, 0);fill-opacity:0;fill-rule:evenodd;stroke:rgb(0, 255, 112);stroke-width:1;" d="M 850.65, 343.637 L 854.402, 338.691 L 964.059, 384.055 L 962.353, 386.442 L 947.858, 380.132 L 945.129, 383.884 L 895.843, 362.737 L 850.65, 343.637 z "/>
<path style="fill:rgb(0, 255, 0);fill-opacity:0;fill-rule:evenodd;stroke:rgb(0, 255, 112);stroke-width:1;" d="M 171.904, 189.81 L 179.237, 179.748 L 233.127, 202.43 L 225.794, 212.492 L 171.904, 189.81 z "/>
<path style="fill:rgb(0, 0, 255);fill-opacity:0;fill-rule:evenodd;stroke:rgb(0, 255, 112);stroke-width:1;" d="M 803.24, 193.221 L 810.573, 183.159 L 864.464, 206.012 L 857.131, 215.903 L 803.24, 193.221 z "/>
<path style="fill:rgb(255, 255, 0);fill-opacity:0;fill-rule:evenodd;stroke:rgb(0, 255, 112);stroke-width:1;" d="M 89.7037, 660.499 L 119.036, 620.252 L 132.168, 625.879 L 102.835, 665.956 L 89.7037, 660.499 z "/>
<path style="fill:rgb(255, 0, 0);fill-opacity:0;fill-rule:evenodd;stroke:rgb(0, 255, 112);stroke-width:1;" d="M 103.347, 115.455 L 110.339, 105.734 L 117.502, 96.0136 L 123.812, 87.3161 L 123.982, 87.1456 L 132.85, 75.0373 L 145.811, 80.4946 L 142.571, 85.0991 L 116.308, 120.912 L 103.347, 115.455 z "/>
<path style="fill:rgb(0, 255, 0);fill-opacity:0;fill-rule:evenodd;stroke:rgb(0, 255, 112);stroke-width:1;" d="M 151.439, 686.421 L 180.772, 646.174 L 189.128, 649.755 L 193.562, 651.631 L 164.229, 691.878 L 151.439, 686.421 z "/>
<path style="fill:rgb(0, 0, 255);fill-opacity:0;fill-rule:evenodd;stroke:rgb(0, 255, 112);stroke-width:1;" d="M 924.835, 453.464 L 927.734, 449.712 L 962.012, 464.038 L 987.252, 429.418 L 997.143, 433.682 L 985.035, 450.394 L 969.175, 472.053 L 924.835, 453.464 z "/>
<path style="fill:rgb(255, 255, 0);fill-opacity:0;fill-rule:evenodd;stroke:rgb(0, 255, 112);stroke-width:1;" d="M 436.751, 531.23 L 468.983, 486.89 L 480.58, 491.835 L 471.882, 503.603 L 448.348, 536.176 L 436.751, 531.23 z "/>
<path style="fill:rgb(255, 0, 0);fill-opacity:0;fill-rule:evenodd;stroke:rgb(0, 255, 112);stroke-width:1;" d="M 466.596, 485.867 L 493.2, 449.371 L 507.184, 455.169 L 480.58, 491.835 L 468.983, 486.89 L 466.596, 485.867 z "/>
<path style="fill:rgb(0, 255, 0);fill-opacity:0;fill-rule:evenodd;stroke:rgb(0, 255, 112);stroke-width:1;" d="M 77.2543, 655.212 L 106.587, 614.965 L 112.385, 617.523 L 119.036, 620.252 L 89.7037, 660.499 L 77.2543, 655.212 z "/>
<path style="fill:rgb(0, 0, 255);fill-opacity:0;fill-rule:evenodd;stroke:rgb(0, 255, 112);stroke-width:1;" d="M 847.922, 560.222 L 850.48, 556.64 L 939.331, 594.159 L 940.695, 593.647 L 949.392, 557.493 L 954.168, 559.54 L 944.447, 599.957 L 943.082, 600.469 L 847.922, 560.222 z "/>
<path style="fill:rgb(255, 255, 0);fill-opacity:0;fill-rule:evenodd;stroke:rgb(0, 255, 112);stroke-width:1;" d="M 164.229, 691.878 L 193.562, 651.631 L 194.244, 651.972 L 205.841, 656.918 L 189.64, 679.088 L 176.679, 696.994 L 164.229, 691.878 z "/>
<path style="fill:rgb(255, 0, 0);fill-opacity:0;fill-rule:evenodd;stroke:rgb(0, 255, 112);stroke-width:1;" d="M 810.573, 183.159 L 817.224, 174.121 L 871.115, 196.802 L 864.464, 206.012 L 810.573, 183.159 z "/>
<path style="fill:rgb(0, 255, 0);fill-opacity:0;fill-rule:evenodd;stroke:rgb(0, 255, 112);stroke-width:1;" d="M 854.743, 96.8663 L 880.153, 61.7352 L 894.308, 67.7041 L 873.161, 96.8663 L 869.921, 101.3 L 868.898, 102.835 L 855.084, 97.0369 L 854.743, 96.8663 z "/>
<path style="fill:rgb(0, 0, 255);fill-opacity:0;fill-rule:evenodd;stroke:rgb(0, 255, 112);stroke-width:1;" d="M 348.071, 769.132 L 371.094, 737.583 L 377.233, 729.397 L 389.341, 734.513 L 371.605, 758.729 L 367.853, 764.016 L 364.101, 769.132 L 360.35, 774.419 L 348.071, 769.132 z "/>
<path style="fill:rgb(255, 255, 0);fill-opacity:0;fill-rule:evenodd;stroke:rgb(0, 255, 112);stroke-width:1;" d="M 419.697, 744.063 L 437.433, 719.676 L 450.053, 724.963 L 444.937, 731.784 L 455.34, 736.218 L 442.72, 753.613 L 419.697, 744.063 z "/>
<path style="fill:rgb(255, 0, 0);fill-opacity:0;fill-rule:evenodd;stroke:rgb(0, 255, 112);stroke-width:1;" d="M 139.501, 681.475 L 166.105, 644.98 L 168.834, 641.228 L 180.772, 646.174 L 151.439, 686.421 L 139.501, 681.475 z "/>
<path style="fill:rgb(0, 255, 0);fill-opacity:0;fill-rule:evenodd;stroke:rgb(0, 255, 112);stroke-width:1;" d="M 509.06, 633.895 L 519.804, 619.058 L 552.377, 632.871 L 541.633, 647.538 L 509.06, 633.895 z "/>
<path style="fill:rgb(0, 0, 255);fill-opacity:0;fill-rule:evenodd;stroke:rgb(0, 255, 112);stroke-width:1;" d="M 597.57, 270.816 L 626.903, 230.569 L 638.329, 235.344 L 612.577, 270.816 L 609.166, 275.592 L 597.57, 270.816 z "/>
<path style="fill:rgb(255, 255, 0);fill-opacity:0;fill-rule:evenodd;stroke:rgb(0, 255, 112);stroke-width:1;" d="M 126.881, 676.188 L 153.485, 639.522 L 166.105, 644.98 L 139.501, 681.475 L 126.881, 676.188 z "/>
<path style="fill:rgb(255, 0, 0);fill-opacity:0;fill-rule:evenodd;stroke:rgb(0, 255, 112);stroke-width:1;" d="M 114.261, 670.731 L 140.695, 634.236 L 153.485, 639.522 L 126.881, 676.188 L 114.261, 670.731 z "/>
<path style="fill:rgb(0, 255, 0);fill-opacity:0;fill-rule:evenodd;stroke:rgb(0, 255, 112);stroke-width:1;" d="M 102.835, 665.956 L 132.168, 625.879 L 143.424, 630.484 L 140.695, 634.236 L 114.261, 670.731 L 102.835, 665.956 z "/>
<path style="fill:rgb(0, 0, 255);fill-opacity:0;fill-rule:evenodd;stroke:rgb(0, 255, 112);stroke-width:1;" d="M 406.736, 741.846 L 435.899, 701.599 L 447.154, 706.374 L 445.108, 709.103 L 441.356, 714.389 L 437.433, 719.676 L 419.697, 744.063 L 417.992, 746.621 L 406.736, 741.846 z "/>
<path style="fill:rgb(255, 255, 0);fill-opacity:0;fill-rule:evenodd;stroke:rgb(0, 255, 112);stroke-width:1;" d="M 711.49, 371.435 L 735.025, 339.373 L 736.218, 337.668 L 749.52, 343.296 L 724.792, 377.062 L 711.49, 371.435 z "/>
<path style="fill:rgb(255, 0, 0);fill-opacity:0;fill-rule:evenodd;stroke:rgb(0, 255, 112);stroke-width:1;" d="M 702.11, 721.211 L 710.637, 709.273 L 708.932, 707.738 L 725.133, 685.227 L 739.459, 691.025 L 723.257, 713.537 L 720.188, 713.366 L 711.661, 725.133 L 702.11, 721.211 z "/>
<path style="fill:rgb(0, 255, 0);fill-opacity:0;fill-rule:evenodd;stroke:rgb(0, 255, 112);stroke-width:1;" d="M 730.079, 654.871 L 759.412, 614.624 L 765.039, 617.011 L 763.334, 619.569 L 768.791, 621.957 L 741.334, 659.646 L 730.079, 654.871 z "/>
<path style="fill:rgb(0, 0, 255);fill-opacity:0;fill-rule:evenodd;stroke:rgb(0, 255, 112);stroke-width:1;" d="M 413.728, 108.292 L 428.395, 88.3394 L 441.356, 93.6261 L 450.224, 97.5485 L 435.557, 117.502 L 413.728, 108.292 z "/>
<path style="fill:rgb(255, 255, 0);fill-opacity:0;fill-rule:evenodd;stroke:rgb(0, 255, 112);stroke-width:1;" d="M 403.837, 64.9755 L 411.341, 54.7431 L 451.418, 71.6265 L 453.123, 72.4792 L 445.619, 82.7116 L 436.24, 78.7892 L 427.883, 75.2078 L 403.837, 64.9755 z "/>
<path style="fill:rgb(255, 0, 0);fill-opacity:0;fill-rule:evenodd;stroke:rgb(0, 255, 112);stroke-width:1;" d="M 396.674, 74.8668 L 403.837, 64.9755 L 427.883, 75.2078 L 426.348, 77.4249 L 434.705, 80.8356 L 436.24, 78.7892 L 445.619, 82.7116 L 448.348, 83.9054 L 441.356, 93.6261 L 428.395, 88.3394 L 396.674, 74.8668 z "/>
<path style="fill:rgb(0, 255, 0);fill-opacity:0;fill-rule:evenodd;stroke:rgb(0, 255, 112);stroke-width:1;" d="M 818.077, 644.468 L 849.456, 601.322 L 859.007, 605.415 L 827.798, 648.561 L 818.077, 644.468 z "/>
<path style="fill:rgb(0, 0, 255);fill-opacity:0;fill-rule:evenodd;stroke:rgb(0, 255, 112);stroke-width:1;" d="M 613.259, 330.164 L 639.693, 293.669 L 650.949, 298.444 L 624.515, 334.769 L 613.259, 330.164 z "/>
<path style="fill:rgb(255, 255, 0);fill-opacity:0;fill-rule:evenodd;stroke:rgb(0, 255, 112);stroke-width:1;" d="M 176.679, 696.994 L 189.64, 679.088 L 192.198, 680.281 L 206.012, 661.181 L 215.903, 665.274 L 189.128, 702.281 L 176.679, 696.994 z "/>
<path style="fill:rgb(255, 0, 0);fill-opacity:0;fill-rule:evenodd;stroke:rgb(0, 255, 112);stroke-width:1;" d="M 678.747, 298.614 L 704.498, 263.142 L 715.924, 268.088 L 690.173, 303.389 L 678.747, 298.614 z "/>
<path style="fill:rgb(0, 255, 0);fill-opacity:0;fill-rule:evenodd;stroke:rgb(0, 255, 112);stroke-width:1;" d="M 724.792, 377.062 L 749.52, 343.296 L 751.396, 340.738 L 762.481, 345.342 L 736.048, 381.838 L 724.792, 377.062 z "/>
<path style="fill:rgb(0, 0, 255);fill-opacity:0;fill-rule:evenodd;stroke:rgb(0, 255, 112);stroke-width:1;" d="M 762.481, 668.514 L 788.915, 632.189 L 799.829, 636.794 L 773.396, 673.119 L 762.481, 668.514 z "/>
<path style="fill:rgb(255, 255, 0);fill-opacity:0;fill-rule:evenodd;stroke:rgb(0, 255, 112);stroke-width:1;" d="M 846.046, 562.78 L 847.922, 560.222 L 943.082, 600.469 L 944.447, 599.957 L 954.168, 559.54 L 957.919, 561.074 L 955.361, 571.648 L 949.051, 597.57 L 947.346, 604.562 L 945.982, 605.074 L 938.819, 602.174 L 856.79, 567.555 L 846.046, 562.78 z "/>
<path style="fill:rgb(255, 0, 0);fill-opacity:0;fill-rule:evenodd;stroke:rgb(0, 255, 112);stroke-width:1;" d="M 492.006, 364.272 L 521.509, 323.684 L 531.059, 327.777 L 501.556, 368.194 L 492.006, 364.272 z "/>
<path style="fill:rgb(0, 255, 0);fill-opacity:0;fill-rule:evenodd;stroke:rgb(0, 255, 112);stroke-width:1;" d="M 699.723, 366.489 L 723.087, 334.257 L 735.025, 339.373 L 711.49, 371.435 L 699.723, 366.489 z "/>
<path style="fill:rgb(0, 0, 255);fill-opacity:0;fill-rule:evenodd;stroke:rgb(0, 255, 112);stroke-width:1;" d="M 844.34, 565.167 L 846.046, 562.78 L 856.79, 567.555 L 938.819, 602.174 L 945.982, 605.074 L 947.346, 604.562 L 949.051, 597.57 L 955.361, 571.648 L 957.919, 561.074 L 960.819, 562.268 L 958.431, 572.159 L 952.121, 598.081 L 949.734, 608.655 L 948.199, 609.166 L 936.943, 604.391 L 855.084, 569.772 L 844.34, 565.167 z "/>
<path style="fill:rgb(255, 255, 0);fill-opacity:0;fill-rule:evenodd;stroke:rgb(0, 255, 112);stroke-width:1;" d="M 688.808, 361.884 L 712.172, 329.823 L 723.087, 334.257 L 699.723, 366.489 L 688.808, 361.884 z "/>
<path style="fill:rgb(255, 0, 0);fill-opacity:0;fill-rule:evenodd;stroke:rgb(0, 255, 112);stroke-width:1;" d="M 444.937, 731.784 L 450.053, 724.963 L 453.805, 719.676 L 457.728, 714.389 L 459.603, 711.661 L 465.402, 714.048 L 458.239, 723.769 L 478.704, 732.296 L 471.03, 742.869 L 465.743, 740.652 L 460.627, 738.435 L 455.34, 736.218 L 444.937, 731.784 z "/>
<path style="fill:rgb(0, 255, 0);fill-opacity:0;fill-rule:evenodd;stroke:rgb(0, 255, 112);stroke-width:1;" d="M 91.068, 110.339 L 111.874, 81.8589 L 123.982, 87.1456 L 123.812, 87.3161 L 117.502, 96.0136 L 114.944, 94.9904 L 107.951, 104.711 L 110.339, 105.734 L 103.347, 115.455 L 91.068, 110.339 z "/>
<path style="fill:rgb(0, 0, 255);fill-opacity:0;fill-rule:evenodd;stroke:rgb(0, 255, 112);stroke-width:1;" d="M 148.199, 257.173 L 154.85, 247.964 L 189.469, 262.631 L 182.818, 271.669 L 148.199, 257.173 z "/>
<path style="fill:rgb(255, 255, 0);fill-opacity:0;fill-rule:evenodd;stroke:rgb(0, 255, 112);stroke-width:1;" d="M 648.391, 389.682 L 653.166, 383.031 L 712.343, 407.76 L 707.397, 414.411 L 694.948, 409.465 L 697.165, 406.566 L 662.545, 392.07 L 660.499, 394.799 L 648.391, 389.682 z "/>
<path style="fill:rgb(255, 0, 0);fill-opacity:0;fill-rule:evenodd;stroke:rgb(0, 255, 112);stroke-width:1;" d="M 535.152, 754.466 L 541.633, 745.768 L 572.842, 759.071 L 566.532, 767.768 L 535.152, 754.466 z "/>
<path style="fill:rgb(0, 255, 0);fill-opacity:0;fill-rule:evenodd;stroke:rgb(0, 255, 112);stroke-width:1;" d="M 765.551, 728.885 L 780.388, 708.25 L 793.349, 713.537 L 778.342, 734.342 L 765.551, 728.885 z "/>
<path style="fill:rgb(0, 0, 255);fill-opacity:0;fill-rule:evenodd;stroke:rgb(0, 255, 112);stroke-width:1;" d="M 960.819, 169.687 L 966.787, 161.33 L 970.369, 162.695 L 975.656, 164.912 L 977.702, 165.764 L 980.431, 166.958 L 983.671, 168.322 L 990.663, 171.221 L 998.678, 174.462 L 992.539, 182.818 L 960.819, 169.687 z "/>
<path style="fill:rgb(255, 255, 0);fill-opacity:0;fill-rule:evenodd;stroke:rgb(0, 255, 112);stroke-width:1;" d="M 525.432, 611.554 L 531.23, 603.539 L 563.632, 617.182 L 557.834, 625.197 L 525.432, 611.554 z "/>
<path style="fill:rgb(255, 0, 0);fill-opacity:0;fill-rule:evenodd;stroke:rgb(0, 255, 112);stroke-width:1;" d="M 901.13, 443.232 L 908.804, 432.658 L 932.68, 442.891 L 927.734, 449.712 L 924.835, 453.464 L 901.13, 443.232 z "/>
<path style="fill:rgb(0, 255, 0);fill-opacity:0;fill-rule:evenodd;stroke:rgb(0, 255, 112);stroke-width:1;" d="M 519.804, 619.058 L 525.432, 611.554 L 557.834, 625.197 L 552.377, 632.871 L 519.804, 619.058 z "/>
<path style="fill:rgb(0, 0, 255);fill-opacity:0;fill-rule:evenodd;stroke:rgb(0, 255, 112);stroke-width:1;" d="M 423.279, 780.388 L 455.34, 736.218 L 460.627, 738.435 L 428.395, 782.605 L 423.279, 780.388 z "/>
<path style="fill:rgb(255, 255, 0);fill-opacity:0;fill-rule:evenodd;stroke:rgb(0, 255, 112);stroke-width:1;" d="M 433.682, 784.651 L 465.743, 740.652 L 471.03, 742.869 L 438.968, 786.868 L 433.682, 784.651 z "/>
<path style="fill:rgb(255, 0, 0);fill-opacity:0;fill-rule:evenodd;stroke:rgb(0, 255, 112);stroke-width:1;" d="M 428.395, 782.605 L 460.627, 738.435 L 465.743, 740.652 L 433.682, 784.651 L 428.395, 782.605 z "/>
<path style="fill:rgb(0, 255, 0);fill-opacity:0;fill-rule:evenodd;stroke:rgb(0, 255, 112);stroke-width:1;" d="M 653.166, 383.031 L 655.042, 380.303 L 717.8, 406.395 L 705.351, 423.62 L 701.769, 422.085 L 707.397, 414.411 L 712.343, 407.76 L 653.166, 383.031 z "/>
<path style="fill:rgb(0, 0, 255);fill-opacity:0;fill-rule:evenodd;stroke:rgb(0, 255, 112);stroke-width:1;" d="M 850.48, 556.64 L 851.673, 554.935 L 937.455, 591.26 L 938.819, 590.748 L 947.005, 556.47 L 949.392, 557.493 L 940.695, 593.647 L 939.331, 594.159 L 850.48, 556.64 z "/>
<path style="fill:rgb(255, 255, 0);fill-opacity:0;fill-rule:evenodd;stroke:rgb(0, 255, 112);stroke-width:1;" d="M 892.603, 367.001 L 895.843, 362.737 L 945.129, 383.884 L 942.4, 387.465 L 892.603, 367.001 z "/>
<path style="fill:rgb(255, 0, 0);fill-opacity:0;fill-rule:evenodd;stroke:rgb(0, 255, 112);stroke-width:1;" d="M 458.239, 723.769 L 465.402, 714.048 L 485.696, 722.575 L 478.704, 732.296 L 458.239, 723.769 z "/>
<path style="fill:rgb(0, 255, 0);fill-opacity:0;fill-rule:evenodd;stroke:rgb(0, 255, 112);stroke-width:1;" d="M 371.605, 758.729 L 389.341, 734.513 L 397.016, 737.753 L 379.45, 762.14 L 371.605, 758.729 z "/>
<path style="fill:rgb(0, 0, 255);fill-opacity:0;fill-rule:evenodd;stroke:rgb(0, 255, 112);stroke-width:1;" d="M 348.071, 141.377 L 351.993, 135.92 L 386.442, 150.416 L 382.52, 155.873 L 348.071, 141.377 z "/>
<path style="fill:rgb(255, 255, 0);fill-opacity:0;fill-rule:evenodd;stroke:rgb(0, 255, 112);stroke-width:1;" d="M 367.853, 764.016 L 371.605, 758.729 L 379.45, 762.14 L 407.418, 773.737 L 403.667, 779.024 L 367.853, 764.016 z "/>
<path style="fill:rgb(255, 0, 0);fill-opacity:0;fill-rule:evenodd;stroke:rgb(0, 255, 112);stroke-width:1;" d="M 889.874, 370.923 L 892.603, 367.001 L 942.4, 387.465 L 939.842, 391.047 L 889.874, 370.923 z "/>
<path style="fill:rgb(0, 255, 0);fill-opacity:0;fill-rule:evenodd;stroke:rgb(0, 255, 112);stroke-width:1;" d="M 818.589, 364.613 L 837.689, 338.35 L 844.681, 341.079 L 837.689, 350.629 L 825.581, 367.342 L 818.589, 364.613 z "/>
<path style="fill:rgb(0, 0, 255);fill-opacity:0;fill-rule:evenodd;stroke:rgb(0, 255, 112);stroke-width:1;" d="M 666.638, 765.892 L 689.832, 733.831 L 694.948, 735.877 L 694.607, 736.389 L 671.754, 767.939 L 666.638, 765.892 z "/>
<path style="fill:rgb(255, 255, 0);fill-opacity:0;fill-rule:evenodd;stroke:rgb(0, 255, 112);stroke-width:1;" d="M 655.383, 424.472 L 663.739, 413.217 L 676.018, 418.504 L 667.832, 429.759 L 655.383, 424.472 z "/>
<path style="fill:rgb(255, 0, 0);fill-opacity:0;fill-rule:evenodd;stroke:rgb(0, 255, 112);stroke-width:1;" d="M 660.499, 394.799 L 662.545, 392.07 L 697.165, 406.566 L 694.948, 409.465 L 660.499, 394.799 z "/>
<path style="fill:rgb(0, 255, 0);fill-opacity:0;fill-rule:evenodd;stroke:rgb(0, 255, 112);stroke-width:1;" d="M 825.581, 367.342 L 837.689, 350.629 L 843.658, 353.187 L 831.379, 369.729 L 825.581, 367.342 z "/>
<path style="fill:rgb(0, 0, 255);fill-opacity:0;fill-rule:evenodd;stroke:rgb(0, 255, 112);stroke-width:1;" d="M 683.351, 447.154 L 701.769, 422.085 L 705.351, 423.62 L 686.932, 448.689 L 683.351, 447.154 z "/>
<path style="fill:rgb(255, 255, 0);fill-opacity:0;fill-rule:evenodd;stroke:rgb(0, 255, 112);stroke-width:1;" d="M 642.933, 397.186 L 648.391, 389.682 L 660.499, 394.799 L 656.406, 400.597 L 652.483, 401.279 L 642.933, 397.186 z "/>
<path style="fill:rgb(255, 0, 0);fill-opacity:0;fill-rule:evenodd;stroke:rgb(0, 255, 112);stroke-width:1;" d="M 691.537, 414.24 L 694.948, 409.465 L 707.397, 414.411 L 701.769, 422.085 L 693.242, 418.504 L 691.537, 414.24 z "/>
<path style="fill:rgb(0, 255, 0);fill-opacity:0;fill-rule:evenodd;stroke:rgb(0, 255, 112);stroke-width:1;" d="M 831.379, 369.729 L 843.658, 353.187 L 848.945, 355.404 L 836.666, 371.946 L 831.379, 369.729 z "/>
<path style="fill:rgb(0, 0, 255);fill-opacity:0;fill-rule:evenodd;stroke:rgb(0, 255, 112);stroke-width:1;" d="M 665.615, 449.542 L 669.026, 444.767 L 674.824, 443.573 L 683.351, 447.154 L 677.553, 454.658 L 665.615, 449.542 z "/>
<path style="fill:rgb(255, 255, 0);fill-opacity:0;fill-rule:evenodd;stroke:rgb(0, 255, 112);stroke-width:1;" d="M 437.433, 719.676 L 441.356, 714.389 L 453.805, 719.676 L 450.053, 724.963 L 437.433, 719.676 z "/>
<path style="fill:rgb(255, 0, 0);fill-opacity:0;fill-rule:evenodd;stroke:rgb(0, 255, 112);stroke-width:1;" d="M 441.356, 714.389 L 445.108, 709.103 L 457.728, 714.389 L 453.805, 719.676 L 441.356, 714.389 z "/>
<path style="fill:rgb(0, 255, 0);fill-opacity:0;fill-rule:evenodd;stroke:rgb(0, 255, 112);stroke-width:1;" d="M 837.689, 350.629 L 844.681, 341.079 L 850.65, 343.637 L 843.658, 353.187 L 837.689, 350.629 z "/>
<path style="fill:rgb(0, 0, 255);fill-opacity:0;fill-rule:evenodd;stroke:rgb(0, 255, 112);stroke-width:1;" d="M 936.943, 604.391 L 938.819, 602.174 L 945.982, 605.074 L 947.346, 604.562 L 949.051, 597.57 L 952.121, 598.081 L 949.734, 608.655 L 948.199, 609.166 L 936.943, 604.391 z "/>
<path style="fill:rgb(255, 255, 0);fill-opacity:0;fill-rule:evenodd;stroke:rgb(0, 255, 112);stroke-width:1;" d="M 977.702, 165.764 L 989.81, 148.881 L 992.539, 150.075 L 980.431, 166.958 L 977.702, 165.764 z "/>
<path style="fill:rgb(255, 0, 0);fill-opacity:0;fill-rule:evenodd;stroke:rgb(0, 255, 112);stroke-width:1;" d="M 0, 347.559 L 29.5033, 307.141 L 32.9141, 308.676 L 49.6269, 315.668 L 54.061, 309.529 L 37.3481, 302.366 L 62.0763, 268.429 L 101.641, 285.142 L 94.1377, 295.545 L 74.6962, 322.149 L 72.4792, 325.219 L 69.58, 324.025 L 57.3012, 341.079 L 54.5726, 344.831 L 40.2473, 364.443 L 0, 347.559 z "/>
<path style="fill:rgb(0, 255, 0);fill-opacity:0;fill-rule:evenodd;stroke:rgb(0, 255, 112);stroke-width:1;" d="M 26.4336, 220.337 L 33.2552, 210.957 L 55.5958, 180.26 L 109.316, 202.771 L 98.0601, 218.461 L 86.1224, 234.662 L 80.1535, 243.019 L 26.4336, 220.337 z "/>
<path style="fill:rgb(0, 0, 255);fill-opacity:0;fill-rule:evenodd;stroke:rgb(0, 255, 112);stroke-width:1;" d="M 28.6506, 580.345 L 42.8054, 560.904 L 93.6261, 582.392 L 96.0136, 583.415 L 81.8589, 602.857 L 71.2854, 598.423 L 28.6506, 580.345 z "/>
<path style="fill:rgb(255, 255, 0);fill-opacity:0;fill-rule:evenodd;stroke:rgb(0, 255, 112);stroke-width:1;" d="M 42.8054, 560.904 L 56.6191, 541.974 L 109.827, 564.485 L 99.7655, 578.299 L 96.0136, 583.415 L 93.6261, 582.392 L 42.8054, 560.904 z "/>
<path style="fill:rgb(255, 0, 0);fill-opacity:0;fill-rule:evenodd;stroke:rgb(0, 255, 112);stroke-width:1;" d="M 40.2473, 364.443 L 54.5726, 344.831 L 62.0763, 347.9 L 64.8049, 344.319 L 69.9211, 346.536 L 58.6655, 361.884 L 103.347, 380.473 L 97.5485, 388.489 L 40.2473, 364.443 z "/>
<path style="fill:rgb(0, 255, 0);fill-opacity:0;fill-rule:evenodd;stroke:rgb(0, 255, 112);stroke-width:1;" d="M 41.7821, 640.375 L 65.146, 608.314 L 64.2933, 607.973 L 71.2854, 598.423 L 81.8589, 602.857 L 80.8356, 604.221 L 74.6962, 612.748 L 76.4016, 613.43 L 53.3788, 645.15 L 41.7821, 640.375 z "/>
<path style="fill:rgb(0, 0, 255);fill-opacity:0;fill-rule:evenodd;stroke:rgb(0, 255, 112);stroke-width:1;" d="M 671.584, 83.7348 L 674.483, 79.6419 L 675.506, 78.2776 L 698.87, 45.8751 L 704.669, 48.0921 L 710.978, 39.3946 L 705.351, 37.007 L 729.908, 3.06971 L 732.125, 0 L 775.613, 18.0772 L 746.28, 58.6655 L 783.969, 74.3551 L 754.807, 114.602 L 752.761, 117.672 L 671.584, 83.7348 z "/>
<path style="fill:rgb(255, 255, 0);fill-opacity:0;fill-rule:evenodd;stroke:rgb(0, 255, 112);stroke-width:1;" d="M 482.967, 89.8742 L 489.107, 81.6883 L 514.858, 46.3867 L 581.369, 74.5257 L 549.478, 118.013 L 530.036, 109.827 L 482.967, 89.8742 z "/>
<path style="fill:rgb(255, 0, 0);fill-opacity:0;fill-rule:evenodd;stroke:rgb(0, 255, 112);stroke-width:1;" d="M 78.7892, 52.185 L 108.122, 11.9378 L 175.144, 40.2473 L 158.943, 62.4174 L 145.811, 80.4946 L 132.85, 75.0373 L 120.571, 69.9211 L 78.7892, 52.185 z "/>
<path style="fill:rgb(0, 255, 0);fill-opacity:0;fill-rule:evenodd;stroke:rgb(0, 255, 112);stroke-width:1;" d="M 791.644, 77.5954 L 820.976, 37.007 L 869.58, 57.3012 L 880.153, 61.7352 L 854.743, 96.8663 L 854.232, 97.5485 L 814.325, 81.0062 L 810.915, 85.6107 L 810.403, 85.4402 L 791.644, 77.5954 z "/>
<path style="fill:rgb(0, 0, 255);fill-opacity:0;fill-rule:evenodd;stroke:rgb(0, 255, 112);stroke-width:1;" d="M 49.2859, 92.7734 L 78.7892, 52.185 L 120.571, 69.9211 L 111.874, 81.8589 L 91.068, 110.339 L 49.2859, 92.7734 z "/>
<path style="fill:rgb(255, 255, 0);fill-opacity:0;fill-rule:evenodd;stroke:rgb(0, 255, 112);stroke-width:1;" d="M 451.759, 71.2854 L 458.921, 61.3942 L 473.417, 41.6116 L 480.58, 31.8909 L 514.858, 46.3867 L 489.107, 81.6883 L 467.789, 72.8203 L 464.72, 76.9132 L 451.759, 71.2854 z "/>
<path style="fill:rgb(255, 0, 0);fill-opacity:0;fill-rule:evenodd;stroke:rgb(0, 255, 112);stroke-width:1;" d="M 174.632, 89.8742 L 186.229, 73.8435 L 202.43, 51.844 L 228.864, 62.929 L 201.236, 100.959 L 174.632, 89.8742 z "/>
<path style="fill:rgb(0, 255, 0);fill-opacity:0;fill-rule:evenodd;stroke:rgb(0, 255, 112);stroke-width:1;" d="M 411.341, 54.7431 L 418.845, 44.5108 L 458.921, 61.3942 L 451.759, 71.2854 L 451.418, 71.6265 L 411.341, 54.7431 z "/>
<path style="fill:rgb(0, 0, 255);fill-opacity:0;fill-rule:evenodd;stroke:rgb(0, 255, 112);stroke-width:1;" d="M 158.943, 62.4174 L 175.144, 40.2473 L 189.128, 46.2162 L 172.927, 68.2157 L 158.943, 62.4174 z "/>
<path style="fill:rgb(255, 255, 0);fill-opacity:0;fill-rule:evenodd;stroke:rgb(0, 255, 112);stroke-width:1;" d="M 172.927, 68.2157 L 189.128, 46.2162 L 202.43, 51.844 L 186.229, 73.8435 L 172.927, 68.2157 z "/>
<path style="fill:rgb(255, 0, 0);fill-opacity:0;fill-rule:evenodd;stroke:rgb(0, 255, 112);stroke-width:1;" d="M 893.797, 287.018 L 926.37, 242.507 L 934.897, 246.259 L 1021.87, 282.925 L 1029.72, 286.165 L 997.143, 330.505 L 988.787, 327.094 L 901.812, 290.428 L 893.797, 287.018 z "/>
<path style="fill:rgb(0, 255, 0);fill-opacity:0;fill-rule:evenodd;stroke:rgb(0, 255, 112);stroke-width:1;" d="M 888.68, 307.994 L 901.812, 290.428 L 988.787, 327.094 L 975.314, 345.172 L 888.68, 307.994 z "/>
<path style="fill:rgb(0, 0, 255);fill-opacity:0;fill-rule:evenodd;stroke:rgb(0, 255, 112);stroke-width:1;" d="M 934.897, 246.259 L 948.369, 228.182 L 1035, 265.359 L 1021.87, 282.925 L 934.897, 246.259 z "/>
<path style="fill:rgb(255, 255, 0);fill-opacity:0;fill-rule:evenodd;stroke:rgb(0, 255, 112);stroke-width:1;" d="M 908.804, 432.658 L 914.432, 425.155 L 919.889, 417.821 L 925.858, 409.806 L 935.92, 396.333 L 939.842, 391.047 L 942.4, 387.465 L 945.129, 383.884 L 947.858, 380.132 L 962.353, 386.442 L 995.609, 400.597 L 989.299, 408.442 L 956.896, 452.952 L 932.68, 442.891 L 908.804, 432.658 z "/>
<path style="fill:rgb(255, 0, 0);fill-opacity:0;fill-rule:evenodd;stroke:rgb(0, 255, 112);stroke-width:1;" d="M 837.689, 338.35 L 848.263, 324.025 L 1003.62, 389.512 L 995.609, 400.597 L 962.353, 386.442 L 964.059, 384.055 L 854.402, 338.691 L 850.65, 343.637 L 844.681, 341.079 L 837.689, 338.35 z "/>
<path style="fill:rgb(0, 255, 0);fill-opacity:0;fill-rule:evenodd;stroke:rgb(0, 255, 112);stroke-width:1;" d="M 896.696, 449.542 L 901.13, 443.232 L 924.835, 453.464 L 969.175, 472.053 L 985.035, 450.394 L 991.516, 453.123 L 981.624, 482.456 L 974.462, 481.603 L 974.291, 482.456 L 896.696, 449.542 z "/>
<path style="fill:rgb(0, 0, 255);fill-opacity:0;fill-rule:evenodd;stroke:rgb(0, 255, 112);stroke-width:1;" d="M 927.734, 449.712 L 932.68, 442.891 L 956.896, 452.952 L 989.299, 408.442 L 999.531, 412.705 L 987.252, 429.418 L 962.012, 464.038 L 927.734, 449.712 z "/>
<path style="fill:rgb(255, 255, 0);fill-opacity:0;fill-rule:evenodd;stroke:rgb(0, 255, 112);stroke-width:1;" d="M 924.835, 453.464 L 927.734, 449.712 L 962.012, 464.038 L 987.252, 429.418 L 997.143, 433.682 L 985.035, 450.394 L 969.175, 472.053 L 924.835, 453.464 z "/>
<path style="fill:rgb(255, 0, 0);fill-opacity:0;fill-rule:evenodd;stroke:rgb(0, 255, 112);stroke-width:1;" d="M 379.45, 762.14 L 397.016, 737.753 L 406.736, 741.846 L 417.992, 746.621 L 419.697, 744.063 L 442.72, 753.613 L 423.279, 780.388 L 407.418, 773.737 L 379.45, 762.14 z "/>
<path style="fill:rgb(0, 255, 0);fill-opacity:0;fill-rule:evenodd;stroke:rgb(0, 255, 112);stroke-width:1;" d="M 380.132, 761.97 L 397.357, 738.435 L 418.162, 747.133 L 419.868, 744.745 L 441.867, 753.954 L 422.938, 779.706 L 380.132, 761.97 z "/>
<path style="fill:rgb(0, 0, 255);fill-opacity:0;fill-rule:evenodd;stroke:rgb(0, 255, 112);stroke-width:1;" d="M 383.543, 761.117 L 398.209, 740.823 L 419.186, 749.691 L 420.891, 747.303 L 438.627, 754.637 L 422.085, 777.318 L 383.543, 761.117 z "/>
<path style="fill:rgb(255, 255, 0);fill-opacity:0;fill-rule:evenodd;stroke:rgb(0, 255, 112);stroke-width:1;" d="M 423.279, 780.388 L 455.34, 736.218 L 460.627, 738.435 L 428.395, 782.605 L 423.279, 780.388 z "/>
<path style="fill:rgb(255, 0, 0);fill-opacity:0;fill-rule:evenodd;stroke:rgb(0, 255, 112);stroke-width:1;" d="M 433.682, 784.651 L 465.743, 740.652 L 471.03, 742.869 L 438.968, 786.868 L 433.682, 784.651 z "/>
<path style="fill:rgb(0, 255, 0);fill-opacity:0;fill-rule:evenodd;stroke:rgb(0, 255, 112);stroke-width:1;" d="M 428.395, 782.605 L 460.627, 738.435 L 465.743, 740.652 L 433.682, 784.651 L 428.395, 782.605 z "/>
<path style="fill:rgb(0, 0, 255);fill-opacity:0;fill-rule:evenodd;stroke:rgb(0, 255, 112);stroke-width:1;" d="M 364.101, 769.132 L 367.853, 764.016 L 403.667, 779.024 L 399.915, 784.31 L 364.101, 769.132 z "/>
<path style="fill:rgb(255, 255, 0);fill-opacity:0;fill-rule:evenodd;stroke:rgb(0, 255, 112);stroke-width:1;" d="M 364.101, 769.132 L 367.853, 764.016 L 403.667, 779.024 L 399.915, 784.31 L 364.101, 769.132 z "/>
<path style="fill:rgb(255, 0, 0);fill-opacity:0;fill-rule:evenodd;stroke:rgb(0, 255, 112);stroke-width:1;" d="M 360.35, 774.419 L 364.101, 769.132 L 399.915, 784.31 L 396.163, 789.427 L 360.35, 774.419 z "/>
<path style="fill:rgb(0, 255, 0);fill-opacity:0;fill-rule:evenodd;stroke:rgb(0, 255, 112);stroke-width:1;" d="M 360.35, 774.419 L 364.101, 769.132 L 399.915, 784.31 L 396.163, 789.427 L 360.35, 774.419 z "/>
<path style="fill:rgb(0, 0, 255);fill-opacity:0;fill-rule:evenodd;stroke:rgb(0, 255, 112);stroke-width:1;" d="M 367.853, 764.016 L 371.605, 758.729 L 379.45, 762.14 L 407.418, 773.737 L 403.667, 779.024 L 367.853, 764.016 z "/>
</svg>