<?xml version="1.0" encoding="iso-8859-1" standalone="no"?>
<!DOCTYPE svg PUBLIC "-//W3C//DTD SVG 1.0//EN" "http://www.w3.org/TR/2001/REC-SVG-20010904/DTD/svg10.dtd">
<svg xmlns="http://www.w3.org/2000/svg" width="1057" height="800">
<path style="fill:rgb(255, 0, 0);fill-opacity:0;fill-rule:evenodd;stroke:rgb(0, 89, 255);stroke-width:1;" d="M 501.093, 212.788 L 549.082, 146.571 L 552.988, 148.059 L 559.498, 139.13 L 555.778, 137.456 L 565.636, 123.878 L 584.05, 131.69 L 583.12, 132.806 L 599.674, 139.688 L 634.457, 154.383 L 635.387, 153.081 L 653.801, 160.893 L 644.129, 174.285 L 640.595, 172.797 L 633.713, 182.283 L 636.875, 183.585 L 635.015, 186.189 L 625.529, 199.209 L 616.787, 211.3 L 607.859, 223.762 L 599.116, 235.852 L 589.258, 249.43 L 569.356, 241.246 L 611.579, 182.841 L 613.439, 183.771 L 615.299, 181.167 L 596.326, 173.169 L 593.35, 177.633 L 580.516, 172.239 L 583.492, 167.961 L 563.404, 159.405 L 561.544, 162.009 L 563.962, 162.939 L 521.553, 221.344 L 501.093, 212.788 z "/>
<path style="fill:rgb(0, 255, 0);fill-opacity:0;fill-rule:evenodd;stroke:rgb(0, 89, 255);stroke-width:1;" d="M 859.893, 364.194 L 876.447, 341.874 L 878.121, 342.618 L 892.258, 323.274 L 901.372, 327.18 L 899.698, 329.598 L 906.952, 332.76 L 914.95, 321.972 L 907.51, 318.81 L 905.65, 321.228 L 896.722, 317.508 L 911.044, 297.977 L 909.184, 297.233 L 925.18, 275.471 L 962.939, 291.467 L 977.819, 297.791 L 968.891, 310.067 L 934.108, 295.187 L 929.644, 301.325 L 964.427, 316.02 L 955.127, 328.668 L 919.972, 313.787 L 916.624, 318.438 L 916.81, 320.484 L 950.663, 334.806 L 940.06, 349.128 L 906.022, 334.62 L 903.604, 335.736 L 900.442, 340.2 L 935.596, 355.266 L 926.482, 367.542 L 891.7, 352.848 L 887.05, 359.172 L 922.018, 373.867 L 912.532, 386.515 L 859.893, 364.194 z "/>
<path style="fill:rgb(0, 0, 255);fill-opacity:0;fill-rule:evenodd;stroke:rgb(0, 89, 255);stroke-width:1;" d="M 187.119, 232.318 L 224.134, 181.725 L 217.996, 179.121 L 223.948, 170.751 L 229.714, 173.169 L 251.476, 143.409 L 304.673, 165.915 L 290.165, 185.817 L 273.983, 178.935 L 265.055, 191.211 L 257.801, 188.049 L 230.458, 225.622 L 235.666, 227.668 L 237.898, 224.692 L 241.06, 225.994 L 234.736, 234.736 L 224.692, 248.314 L 187.119, 232.318 z "/>
<path style="fill:rgb(255, 255, 0);fill-opacity:0;fill-rule:evenodd;stroke:rgb(0, 89, 255);stroke-width:1;" d="M 224.692, 248.314 L 234.736, 234.736 L 240.502, 236.968 L 257.429, 213.904 L 259.661, 214.834 L 274.727, 194.001 L 313.415, 210.184 L 314.346, 208.882 L 341.316, 220.042 L 297.977, 279.191 L 261.335, 263.753 L 276.215, 243.478 L 290.909, 249.616 L 305.975, 228.97 L 303.743, 228.04 L 280.307, 218.182 L 250.36, 259.103 L 224.692, 248.314 z "/>
<path style="fill:rgb(255, 0, 0);fill-opacity:0;fill-rule:evenodd;stroke:rgb(0, 89, 255);stroke-width:1;" d="M 407.533, 453.104 L 419.437, 436.55 L 415.159, 434.69 L 422.599, 424.831 L 428.365, 427.063 L 431.9, 426.319 L 437.666, 418.693 L 437.108, 414.973 L 431.528, 412.555 L 441.944, 398.605 L 472.448, 411.067 L 464.078, 422.785 L 460.544, 421.483 L 449.012, 437.666 L 467.798, 445.292 L 479.33, 429.482 L 476.54, 428.365 L 484.91, 416.461 L 515.229, 428.924 L 504.813, 443.618 L 499.047, 441.2 L 495.885, 442.316 L 489.561, 450.872 L 490.305, 453.29 L 496.257, 455.894 L 489.189, 465.938 L 484.91, 464.078 L 473.006, 480.632 L 448.826, 470.588 L 458.87, 456.266 L 441.758, 449.198 L 431.714, 463.148 L 407.533, 453.104 z "/>
<path style="fill:rgb(0, 255, 0);fill-opacity:0;fill-rule:evenodd;stroke:rgb(0, 89, 255);stroke-width:1;" d="M 682.446, 550.384 L 701.418, 524.343 L 697.512, 522.669 L 698.814, 520.809 L 706.626, 510.021 L 723.367, 517.275 L 705.882, 540.153 L 709.602, 541.827 L 709.788, 543.502 L 712.95, 544.804 L 730.807, 520.251 L 746.617, 526.947 L 728.761, 551.5 L 736.573, 554.848 L 754.615, 530.295 L 770.239, 536.805 L 752.197, 561.544 L 759.823, 564.52 L 777.68, 539.967 L 794.606, 547.036 L 765.217, 587.398 L 737.131, 575.68 L 736.759, 573.076 L 682.446, 550.384 z "/>
<path style="fill:rgb(0, 0, 255);fill-opacity:0;fill-rule:evenodd;stroke:rgb(0, 89, 255);stroke-width:1;" d="M 303.557, 382.237 L 325.692, 352.476 L 366.24, 369.96 L 367.542, 368.286 L 380.935, 374.053 L 379.261, 376.285 L 385.399, 379.075 L 387.259, 376.657 L 400.465, 382.237 L 392.095, 393.583 L 372.937, 419.809 L 353.406, 411.439 L 353.964, 410.695 L 343.548, 406.231 L 344.664, 404.743 L 319.368, 393.955 L 322.344, 390.049 L 303.557, 382.237 z "/>
<path style="fill:rgb(255, 255, 0);fill-opacity:0;fill-rule:evenodd;stroke:rgb(0, 89, 255);stroke-width:1;" d="M 145.083, 383.725 L 154.383, 370.704 L 158.103, 372.379 L 159.777, 369.774 L 161.451, 370.332 L 186.561, 336.108 L 209.44, 345.78 L 198.279, 361.032 L 206.65, 364.566 L 218.74, 348.198 L 241.432, 357.684 L 204.232, 408.649 L 179.307, 398.047 L 197.907, 372.751 L 189.351, 369.216 L 170.751, 394.513 L 145.083, 383.725 z "/>
<path style="fill:rgb(255, 0, 0);fill-opacity:0;fill-rule:evenodd;stroke:rgb(0, 89, 255);stroke-width:1;" d="M 363.264, 95.9777 L 387.073, 63.6131 L 380.935, 61.0091 L 389.491, 49.4769 L 448.454, 74.4013 L 415.903, 118.484 L 398.791, 111.044 L 363.264, 95.9777 z "/>
<path style="fill:rgb(0, 255, 0);fill-opacity:0;fill-rule:evenodd;stroke:rgb(0, 89, 255);stroke-width:1;" d="M 96.9077, 449.756 L 98.3957, 447.71 L 105.65, 437.48 L 113.09, 440.642 L 115.136, 437.852 L 123.32, 441.2 L 125.552, 441.014 L 129.644, 435.434 L 129.272, 433.016 L 114.206, 426.691 L 116.81, 422.971 L 125.552, 411.067 L 184.143, 435.248 L 148.245, 485.096 L 124.436, 474.866 L 130.76, 465.194 L 126.296, 463.148 L 127.04, 462.218 L 96.9077, 449.756 z "/>
<path style="fill:rgb(0, 0, 255);fill-opacity:0;fill-rule:evenodd;stroke:rgb(0, 89, 255);stroke-width:1;" d="M 322.53, 137.27 L 335.736, 119.414 L 358.242, 129.086 L 363.45, 121.832 L 342.618, 113.09 L 354.522, 96.7217 L 396.187, 114.578 L 398.791, 111.044 L 415.903, 118.484 L 383.167, 162.939 L 322.53, 137.27 z "/>
<path style="fill:rgb(255, 255, 0);fill-opacity:0;fill-rule:evenodd;stroke:rgb(0, 89, 255);stroke-width:1;" d="M 88.7236, 672.402 L 119.786, 630.179 L 136.154, 637.061 L 133.736, 640.595 L 162.753, 652.871 L 182.283, 661.056 L 169.635, 678.354 L 158.103, 673.518 L 160.149, 670.542 L 155.313, 668.496 L 147.315, 679.098 L 151.593, 680.958 L 152.709, 679.656 L 167.031, 685.608 L 155.871, 700.86 L 88.7236, 672.402 z M 116.066, 664.404 L 122.948, 667.38 L 128.156, 669.612 L 133.178, 669.24 L 139.13, 661.242 L 136.712, 658.08 L 124.436, 652.871 L 116.066, 664.404 z "/>
<path style="fill:rgb(255, 0, 0);fill-opacity:0;fill-rule:evenodd;stroke:rgb(0, 89, 255);stroke-width:1;" d="M 803.72, 438.038 L 829.947, 403.069 L 824.924, 400.837 L 826.784, 398.605 L 833.853, 389.119 L 892.258, 414.043 L 856.731, 461.66 L 831.435, 450.872 L 843.153, 435.062 L 833.481, 430.97 L 830.319, 435.434 L 831.621, 435.992 L 823.622, 446.594 L 803.72, 438.038 z M 838.131, 421.297 L 854.127, 428.179 L 856.731, 424.831 L 856.173, 424.645 L 862.311, 416.275 L 848.919, 410.695 L 845.013, 411.997 L 838.131, 421.297 z "/>
<path style="fill:rgb(0, 255, 0);fill-opacity:0;fill-rule:evenodd;stroke:rgb(0, 89, 255);stroke-width:1;" d="M 938.944, 245.71 L 946.571, 235.294 L 967.031, 207.58 L 1012.6, 226.924 L 1024.13, 231.76 L 995.861, 270.077 L 938.944, 245.71 z "/>
<path style="fill:rgb(0, 0, 255);fill-opacity:0;fill-rule:evenodd;stroke:rgb(0, 89, 255);stroke-width:1;" d="M 60.8231, 499.977 L 69.9372, 487.887 L 72.5413, 484.166 L 87.7935, 490.677 L 88.9096, 489.189 L 90.3976, 489.747 L 95.2337, 482.864 L 85.9335, 478.958 L 87.7935, 476.54 L 80.5394, 473.378 L 89.4676, 461.474 L 118.484, 473.564 L 119.042, 472.634 L 124.436, 474.866 L 148.245, 485.096 L 119.786, 524.901 L 60.8231, 499.977 z "/>
<path style="fill:rgb(255, 255, 0);fill-opacity:0;fill-rule:evenodd;stroke:rgb(0, 89, 255);stroke-width:1;" d="M 162.381, 703.464 L 173.169, 688.77 L 180.795, 691.932 L 189.165, 680.586 L 181.539, 677.424 L 188.979, 667.194 L 244.966, 691.002 L 262.079, 698.07 L 254.638, 708.114 L 248.5, 705.51 L 244.966, 706.812 L 238.27, 715.927 L 246.454, 719.275 L 235.48, 734.155 L 205.906, 721.693 L 216.322, 707.556 L 219.484, 708.858 L 225.994, 700.116 L 205.534, 691.374 L 198.465, 701.046 L 202, 702.534 L 192.141, 715.927 L 162.381, 703.464 z "/>
<path style="fill:rgb(255, 0, 0);fill-opacity:0;fill-rule:evenodd;stroke:rgb(0, 89, 255);stroke-width:1;" d="M 781.772, 177.075 L 782.144, 175.401 L 814.694, 131.318 L 828.645, 137.27 L 831.435, 138.386 L 828.458, 142.478 L 828.272, 144.711 L 831.621, 146.013 L 833.481, 143.595 L 862.125, 157.545 L 854.499, 167.775 L 848.547, 165.171 L 845.757, 166.287 L 843.897, 168.891 L 842.781, 168.705 L 844.083, 171.123 L 850.035, 173.727 L 846.501, 178.749 L 839.805, 175.959 L 837.759, 176.331 L 834.225, 181.539 L 843.711, 185.631 L 832.737, 200.512 L 783.632, 179.493 L 782.888, 179.307 L 782.144, 178.191 L 781.772, 177.075 z M 807.812, 168.147 L 814.88, 171.123 L 823.064, 174.657 L 831.621, 163.125 L 816.368, 156.615 L 807.812, 168.147 z "/>
<path style="fill:rgb(0, 255, 0);fill-opacity:0;fill-rule:evenodd;stroke:rgb(0, 89, 255);stroke-width:1;" d="M 211.114, 504.999 L 243.85, 460.916 L 295.745, 483.236 L 280.307, 503.697 L 278.633, 502.953 L 263.753, 523.227 L 237.712, 512.067 L 238.456, 510.951 L 234.736, 509.277 L 231.388, 513.555 L 211.114, 504.999 z M 244.036, 496.071 L 259.289, 502.767 L 265.427, 494.583 L 264.683, 491.235 L 253.708, 486.399 L 252.034, 485.654 L 244.036, 496.071 z "/>
<path style="fill:rgb(0, 0, 255);fill-opacity:0;fill-rule:evenodd;stroke:rgb(0, 89, 255);stroke-width:1;" d="M 625.529, 199.209 L 635.015, 186.189 L 644.315, 190.095 L 653.057, 178.005 L 644.129, 174.285 L 653.801, 160.893 L 712.578, 185.259 L 700.674, 202 L 669.426, 188.979 L 664.776, 195.303 L 696.024, 208.324 L 683.748, 225.25 L 655.103, 213.346 L 656.033, 212.044 L 625.529, 199.209 z "/>
<path style="fill:rgb(255, 255, 0);fill-opacity:0;fill-rule:evenodd;stroke:rgb(0, 89, 255);stroke-width:1;" d="M 695.28, 294.443 L 727.645, 250.546 L 744.013, 257.429 L 745.873, 258.173 L 743.083, 261.893 L 747.919, 264.125 L 748.663, 263.195 L 776.006, 274.727 L 761.497, 294.257 L 763.915, 295.373 L 748.105, 316.95 L 695.28, 294.443 z M 723.739, 286.445 L 735.457, 291.467 L 739.363, 293.141 L 745.687, 284.399 L 749.035, 285.887 L 751.453, 282.911 L 732.481, 274.727 L 723.739, 286.445 z "/>
<path style="fill:rgb(255, 0, 0);fill-opacity:0;fill-rule:evenodd;stroke:rgb(0, 89, 255);stroke-width:1;" d="M 589.258, 249.43 L 599.116, 235.852 L 608.231, 239.572 L 616.973, 227.482 L 607.859, 223.762 L 616.787, 211.3 L 625.343, 214.834 L 646.733, 223.762 L 647.663, 222.46 L 676.866, 234.55 L 664.59, 251.662 L 633.341, 238.642 L 628.877, 244.594 L 660.126, 257.615 L 648.407, 274.169 L 589.258, 249.43 z "/>
<path style="fill:rgb(0, 255, 0);fill-opacity:0;fill-rule:evenodd;stroke:rgb(0, 89, 255);stroke-width:1;" d="M 640.967, 365.868 L 674.076, 321.042 L 718.903, 340.014 L 725.413, 342.804 L 711.462, 361.962 L 703.092, 358.242 L 705.51, 355.08 L 700.674, 352.848 L 694.35, 361.404 L 695.466, 363.264 L 704.58, 367.356 L 690.072, 387.073 L 657.336, 369.96 L 654.917, 373.123 L 640.967, 365.868 z M 669.612, 354.336 L 675.564, 356.94 L 684.678, 360.66 L 693.234, 349.128 L 678.354, 342.804 L 669.612, 354.336 z "/>
<path style="fill:rgb(0, 0, 255);fill-opacity:0;fill-rule:evenodd;stroke:rgb(0, 89, 255);stroke-width:1;" d="M 727.645, 250.546 L 759.637, 206.836 L 763.171, 206.836 L 812.648, 227.854 L 796.838, 249.244 L 794.978, 248.314 L 780.656, 267.845 L 746.803, 253.522 L 744.013, 257.429 L 727.645, 250.546 z M 757.591, 238.27 L 759.451, 240.688 L 773.216, 246.454 L 782.33, 234.178 L 770.053, 228.97 L 768.007, 228.04 L 764.845, 228.412 L 757.591, 238.27 z "/>
<path style="fill:rgb(255, 255, 0);fill-opacity:0;fill-rule:evenodd;stroke:rgb(0, 89, 255);stroke-width:1;" d="M 474.494, 143.409 L 488.631, 124.064 L 507.045, 131.69 L 505.371, 133.922 L 509.463, 135.596 L 516.717, 125.366 L 512.997, 123.878 L 511.695, 125.738 L 493.095, 117.926 L 506.859, 98.7677 L 559.684, 120.902 L 546.106, 139.316 L 528.621, 132.062 L 524.343, 137.828 L 540.339, 144.525 L 527.877, 161.823 L 491.979, 146.943 L 489.933, 149.919 L 489.747, 149.919 L 474.494, 143.409 z "/>
<path style="fill:rgb(255, 0, 0);fill-opacity:0;fill-rule:evenodd;stroke:rgb(0, 89, 255);stroke-width:1;" d="M 442.316, 187.863 L 456.266, 168.705 L 474.122, 176.145 L 472.634, 178.377 L 476.912, 180.237 L 484.352, 170.007 L 480.074, 168.147 L 478.772, 170.007 L 460.73, 162.567 L 474.494, 143.409 L 489.747, 149.919 L 489.933, 149.919 L 487.515, 153.081 L 523.599, 168.147 L 511.137, 185.631 L 494.955, 178.935 L 491.049, 184.515 L 508.161, 191.769 L 495.141, 209.998 L 442.316, 187.863 z "/>
<path style="fill:rgb(0, 255, 0);fill-opacity:0;fill-rule:evenodd;stroke:rgb(0, 89, 255);stroke-width:1;" d="M 674.262, 133.922 L 682.26, 122.948 L 683.748, 120.902 L 692.304, 124.622 L 695.652, 119.972 L 694.35, 119.414 L 697.14, 115.694 L 698.628, 116.438 L 701.046, 113.09 L 692.118, 109.184 L 700.86, 97.2797 L 730.063, 109.742 L 731.737, 107.51 L 760.753, 119.786 L 748.105, 136.898 L 718.717, 124.436 L 714.625, 130.016 L 744.199, 142.478 L 732.295, 158.475 L 674.262, 133.922 z "/>
<path style="fill:rgb(0, 0, 255);fill-opacity:0;fill-rule:evenodd;stroke:rgb(0, 89, 255);stroke-width:1;" d="M 155.127, 160.707 L 187.305, 116.438 L 210.742, 126.296 L 200.512, 140.618 L 199.023, 139.874 L 194.559, 145.827 L 206.464, 150.849 L 210.928, 144.897 L 209.068, 144.153 L 219.484, 130.016 L 239.386, 138.386 L 223.39, 160.149 L 222.46, 159.777 L 205.906, 182.097 L 187.863, 174.471 L 192.327, 168.519 L 193.257, 168.891 L 196.047, 165.171 L 187.305, 161.451 L 188.049, 160.521 L 180.981, 157.545 L 173.169, 168.333 L 155.127, 160.707 z "/>
<path style="fill:rgb(255, 255, 0);fill-opacity:0;fill-rule:evenodd;stroke:rgb(0, 89, 255);stroke-width:1;" d="M 207.766, 88.5375 L 240.13, 44.4548 L 257.615, 51.8949 L 255.01, 55.243 L 255.94, 59.149 L 252.406, 64.3571 L 262.079, 68.4492 L 266.357, 62.6831 L 270.263, 61.9391 L 273.053, 58.219 L 290.537, 65.6591 L 274.355, 87.7935 L 275.285, 90.2116 L 260.033, 110.672 L 238.27, 101.372 L 242.362, 95.7917 L 243.292, 96.3497 L 254.452, 81.0974 L 243.106, 76.2613 L 231.946, 91.3276 L 232.876, 91.6996 L 228.598, 97.4657 L 207.766, 88.5375 z "/>
<path style="fill:rgb(255, 0, 0);fill-opacity:0;fill-rule:evenodd;stroke:rgb(0, 89, 255);stroke-width:1;" d="M 331.644, 613.253 L 345.408, 594.28 L 356.196, 598.93 L 360.846, 592.42 L 351.918, 588.7 L 362.892, 573.634 L 388.375, 584.236 L 398.419, 588.514 L 400.651, 585.538 L 416.275, 592.048 L 384.469, 635.573 L 331.644, 613.253 z M 366.426, 603.209 L 375.541, 606.929 L 373.123, 610.277 L 379.261, 612.695 L 390.049, 597.814 L 374.983, 591.49 L 372.751, 594.652 L 366.426, 603.209 z "/>
<path style="fill:rgb(0, 255, 0);fill-opacity:0;fill-rule:evenodd;stroke:rgb(0, 89, 255);stroke-width:1;" d="M 709.044, 86.1195 L 718.159, 73.8433 L 726.901, 77.5634 L 735.829, 65.4731 L 726.715, 61.5671 L 735.643, 49.4769 L 794.234, 74.2153 L 782.516, 90.0256 L 752.755, 77.3774 L 748.477, 83.3295 L 778.238, 95.9777 L 766.705, 111.788 L 737.689, 99.6977 L 738.619, 98.5817 L 709.044, 86.1195 z "/>
<path style="fill:rgb(0, 0, 255);fill-opacity:0;fill-rule:evenodd;stroke:rgb(0, 89, 255);stroke-width:1;" d="M 314.532, 546.478 L 318.81, 540.525 L 326.994, 529.551 L 336.108, 517.089 L 345.78, 503.883 L 389.863, 522.483 L 382.423, 532.527 L 358.428, 565.264 L 314.532, 546.478 z "/>
<path style="fill:rgb(255, 255, 0);fill-opacity:0;fill-rule:evenodd;stroke:rgb(0, 89, 255);stroke-width:1;" d="M 794.42, 270.821 L 813.206, 245.152 L 815.81, 244.222 L 814.88, 242.176 L 811.346, 240.688 L 818.972, 230.458 L 893.56, 262.079 L 886.12, 272.309 L 882.213, 270.821 L 879.981, 271.193 L 880.539, 273.611 L 877.749, 277.517 L 869.565, 273.983 L 872.541, 270.263 L 855.801, 263.195 L 837.015, 288.677 L 819.53, 281.423 L 838.317, 255.754 L 830.505, 252.406 L 811.718, 278.075 L 794.42, 270.821 z "/>
<path style="fill:rgb(255, 0, 0);fill-opacity:0;fill-rule:evenodd;stroke:rgb(0, 89, 255);stroke-width:1;" d="M 430.226, 656.405 L 459.614, 615.857 L 489.189, 628.319 L 479.888, 640.967 L 488.073, 644.315 L 496.257, 633.155 L 510.765, 639.293 L 490.677, 667.008 L 494.583, 668.682 L 487.329, 678.54 L 486.399, 679.842 L 462.404, 669.798 L 478.4, 647.663 L 470.96, 644.501 L 454.778, 666.636 L 430.226, 656.405 z "/>
<path style="fill:rgb(0, 255, 0);fill-opacity:0;fill-rule:evenodd;stroke:rgb(0, 89, 255);stroke-width:1;" d="M 371.821, 736.387 L 404.371, 691.746 L 454.964, 712.95 L 442.316, 730.249 L 433.202, 726.343 L 434.504, 724.669 L 428.924, 722.437 L 426.319, 726.157 L 428.179, 727.087 L 427.063, 728.575 L 425.017, 727.645 L 421.297, 733.039 L 426.133, 735.085 L 428.551, 731.923 L 435.992, 735.085 L 422.227, 754.057 L 388.561, 739.921 L 386.515, 742.525 L 371.821, 736.387 z M 399.535, 723.739 L 414.601, 730.063 L 422.599, 719.647 L 407.347, 713.322 L 399.535, 723.739 z "/>
<path style="fill:rgb(0, 0, 255);fill-opacity:0;fill-rule:evenodd;stroke:rgb(0, 89, 255);stroke-width:1;" d="M 87.2355, 358.986 L 97.4657, 345.036 L 100.442, 346.152 L 101.186, 345.222 L 103.418, 345.966 L 105.278, 343.362 L 104.72, 343.176 L 120.158, 322.158 L 128.714, 325.692 L 128.156, 326.622 L 137.456, 330.528 L 136.712, 331.644 L 143.595, 334.62 L 143.223, 335.364 L 158.661, 341.688 L 157.731, 342.99 L 166.473, 346.524 L 154.197, 363.078 L 153.081, 362.706 L 150.849, 365.682 L 153.825, 366.984 L 152.523, 368.658 L 155.127, 369.774 L 154.383, 370.704 L 145.083, 383.725 L 121.46, 373.681 L 128.714, 363.636 L 118.484, 359.172 L 111.23, 369.03 L 87.2355, 358.986 z "/>
<path style="fill:rgb(255, 255, 0);fill-opacity:0;fill-rule:evenodd;stroke:rgb(0, 89, 255);stroke-width:1;" d="M 60.6371, 289.235 L 90.0256, 249.988 L 111.974, 259.475 L 102.116, 272.681 L 110.672, 276.215 L 120.53, 262.823 L 142.292, 272.309 L 128.342, 290.909 L 127.04, 290.351 L 111.602, 311.183 L 102.86, 307.277 L 93.7456, 303.371 L 100.442, 294.629 L 94.6757, 292.211 L 93.7456, 293.513 L 84.4455, 289.421 L 78.6794, 297.047 L 60.6371, 289.235 z "/>
<path style="fill:rgb(255, 0, 0);fill-opacity:0;fill-rule:evenodd;stroke:rgb(0, 89, 255);stroke-width:1;" d="M 306.347, 65.2871 L 321.228, 44.6408 L 322.53, 45.1988 L 325.692, 40.9207 L 325.878, 37.5727 L 323.088, 36.4566 L 331.644, 24.9244 L 356.568, 35.3406 L 349.314, 45.1988 L 346.338, 43.8968 L 341.874, 49.8489 L 341.874, 52.6389 L 352.848, 57.289 L 355.452, 55.987 L 359.73, 50.0349 L 356.94, 48.7329 L 364.38, 38.6887 L 389.491, 49.4769 L 380.935, 61.0091 L 377.587, 59.707 L 375.169, 61.1951 L 373.123, 64.1711 L 374.053, 64.5431 L 357.684, 86.6775 L 335.736, 77.3774 L 341.13, 70.1232 L 342.246, 70.4952 L 346.338, 65.1011 L 336.666, 61.0091 L 332.76, 66.5892 L 333.504, 66.9612 L 328.11, 74.4013 L 306.347, 65.2871 z "/>
<path style="fill:rgb(0, 255, 0);fill-opacity:0;fill-rule:evenodd;stroke:rgb(0, 89, 255);stroke-width:1;" d="M 263.567, 432.458 L 273.797, 418.693 L 290.909, 425.947 L 295.373, 419.995 L 278.075, 412.555 L 289.049, 397.861 L 316.206, 409.393 L 315.276, 410.881 L 346.524, 424.273 L 338.154, 435.248 L 333.504, 433.388 L 327.924, 434.318 L 322.716, 431.714 L 318.996, 436.736 L 324.762, 439.34 L 322.344, 442.502 L 325.692, 445.478 L 329.598, 447.152 L 322.158, 457.382 L 263.567, 432.458 z "/>
<path style="fill:rgb(0, 0, 255);fill-opacity:0;fill-rule:evenodd;stroke:rgb(0, 89, 255);stroke-width:1;" d="M 551.314, 316.02 L 562.474, 300.953 L 560.428, 300.023 L 575.494, 279.563 L 627.947, 301.697 L 615.857, 318.066 L 588.142, 306.347 L 585.352, 306.719 L 580.702, 304.859 L 578.098, 308.579 L 582.376, 310.439 L 583.678, 312.485 L 611.207, 324.204 L 598.372, 342.06 L 584.05, 335.922 L 582.376, 335.178 L 584.236, 332.76 L 551.314, 316.02 z "/>
<path style="fill:rgb(255, 255, 0);fill-opacity:0;fill-rule:evenodd;stroke:rgb(0, 89, 255);stroke-width:1;" d="M 372.937, 419.809 L 392.095, 393.583 L 400.465, 382.237 L 401.395, 381.121 L 441.944, 398.605 L 431.528, 412.555 L 422.599, 424.831 L 415.159, 434.69 L 413.485, 437.108 L 408.277, 434.876 L 404.185, 440.456 L 374.053, 427.621 L 378.145, 422.041 L 372.937, 419.809 z "/>
<path style="fill:rgb(255, 0, 0);fill-opacity:0;fill-rule:evenodd;stroke:rgb(0, 89, 255);stroke-width:1;" d="M 340.944, 778.796 L 371.821, 736.387 L 386.515, 742.525 L 384.283, 745.501 L 418.135, 759.637 L 405.301, 777.122 L 407.347, 777.866 L 406.045, 779.912 L 396.187, 775.82 L 398.791, 772.1 L 393.955, 770.053 L 387.259, 779.354 L 401.767, 785.492 L 391.165, 800 L 340.944, 778.796 z M 366.24, 770.425 L 377.587, 775.262 L 380.935, 776.75 L 389.491, 765.031 L 374.611, 758.893 L 366.24, 770.425 z "/>
<path style="fill:rgb(0, 255, 0);fill-opacity:0;fill-rule:evenodd;stroke:rgb(0, 89, 255);stroke-width:1;" d="M 400.651, 244.594 L 420.553, 217.252 L 425.389, 216.322 L 480.632, 239.386 L 460.916, 266.543 L 445.664, 263.939 L 411.067, 248.872 L 400.651, 244.594 z "/>
<path style="fill:rgb(0, 0, 255);fill-opacity:0;fill-rule:evenodd;stroke:rgb(0, 89, 255);stroke-width:1;" d="M 777.866, 481.19 L 793.676, 459.614 L 794.978, 460.172 L 805.022, 446.408 L 822.134, 453.662 L 818.042, 459.242 L 832.737, 465.38 L 836.829, 459.8 L 853.011, 466.682 L 827.342, 501.837 L 806.324, 493.095 L 815.81, 480.074 L 807.44, 476.54 L 797.954, 489.561 L 777.866, 481.19 z "/>
<path style="fill:rgb(255, 255, 0);fill-opacity:0;fill-rule:evenodd;stroke:rgb(0, 89, 255);stroke-width:1;" d="M 838.875, 203.116 L 846.873, 192.327 L 850.593, 194.001 L 871.425, 165.543 L 888.166, 173.727 L 869.565, 199.023 L 877.005, 202.186 L 895.42, 177.261 L 912.532, 185.631 L 895.234, 208.882 L 892.258, 209.998 L 893.374, 211.858 L 897.28, 213.532 L 889.096, 224.506 L 838.875, 203.116 z "/>
<path style="fill:rgb(255, 0, 0);fill-opacity:0;fill-rule:evenodd;stroke:rgb(0, 89, 255);stroke-width:1;" d="M 754.243, 319.368 L 761.869, 308.951 L 765.031, 310.439 L 767.263, 310.067 L 767.263, 307.649 L 785.864, 282.167 L 803.534, 289.607 L 784.562, 315.276 L 792.56, 318.624 L 811.346, 292.955 L 828.458, 300.209 L 807.626, 328.482 L 811.16, 330.156 L 803.72, 340.386 L 754.243, 319.368 z "/>
<path style="fill:rgb(0, 255, 0);fill-opacity:0;fill-rule:evenodd;stroke:rgb(0, 89, 255);stroke-width:1;" d="M 889.096, 224.506 L 897.28, 213.532 L 900.256, 214.834 L 902.674, 214.462 L 902.674, 211.486 L 919.414, 188.979 L 936.34, 197.163 L 919.414, 219.856 L 926.668, 223.018 L 943.409, 200.512 L 960.521, 208.882 L 942.478, 233.434 L 946.571, 235.294 L 938.944, 245.71 L 889.096, 224.506 z "/>
<path style="fill:rgb(0, 0, 255);fill-opacity:0;fill-rule:evenodd;stroke:rgb(0, 89, 255);stroke-width:1;" d="M 513.369, 540.525 L 534.573, 511.137 L 545.92, 515.973 L 549.826, 517.461 L 547.78, 520.437 L 586.096, 536.433 L 583.306, 540.339 L 584.422, 540.897 L 568.24, 563.404 L 544.432, 553.36 L 557.266, 535.875 L 550.756, 533.085 L 538.107, 550.756 L 513.369, 540.525 z "/>
<path style="fill:rgb(255, 255, 0);fill-opacity:0;fill-rule:evenodd;stroke:rgb(0, 89, 255);stroke-width:1;" d="M 275.099, 521.925 L 283.655, 510.207 L 293.699, 514.485 L 295.373, 512.253 L 298.907, 513.555 L 301.883, 509.463 L 299.279, 508.347 L 302.255, 504.069 L 301.139, 503.697 L 301.883, 502.767 L 292.211, 498.675 L 301.883, 485.468 L 345.78, 503.883 L 336.108, 517.089 L 325.32, 512.625 L 316.206, 524.901 L 326.994, 529.551 L 318.81, 540.525 L 275.099, 521.925 z "/>
<path style="fill:rgb(255, 0, 0);fill-opacity:0;fill-rule:evenodd;stroke:rgb(0, 89, 255);stroke-width:1;" d="M 125.924, 309.137 L 141.362, 287.747 L 139.502, 287.003 L 148.803, 274.169 L 192.513, 292.397 L 183.213, 305.231 L 180.051, 303.929 L 167.961, 320.484 L 156.615, 315.834 L 153.267, 320.484 L 149.547, 318.81 L 148.245, 320.856 L 139.316, 317.322 L 140.804, 315.276 L 125.924, 309.137 z "/>
<path style="fill:rgb(0, 255, 0);fill-opacity:0;fill-rule:evenodd;stroke:rgb(0, 89, 255);stroke-width:1;" d="M 194.745, 526.947 L 209.998, 505.557 L 268.775, 529.923 L 253.522, 551.128 L 194.745, 527.133 L 194.745, 526.947 z "/>
<path style="fill:rgb(0, 0, 255);fill-opacity:0;fill-rule:evenodd;stroke:rgb(0, 89, 255);stroke-width:1;" d="M 668.868, 69.0072 L 686.91, 44.6408 L 682.818, 42.9668 L 691.56, 30.8765 L 709.602, 38.5027 L 701.232, 50.0349 L 702.348, 50.4069 L 699, 55.057 L 704.766, 57.475 L 716.485, 41.4787 L 735.643, 49.4769 L 726.715, 61.5671 L 722.623, 59.893 L 704.766, 84.2595 L 690.63, 78.3074 L 696.582, 70.1232 L 688.956, 66.9612 L 683.004, 74.9593 L 668.868, 69.0072 z "/>
<path style="fill:rgb(255, 255, 0);fill-opacity:0;fill-rule:evenodd;stroke:rgb(0, 89, 255);stroke-width:1;" d="M 241.618, 736.759 L 257.801, 714.252 L 259.289, 714.997 L 261.521, 711.834 L 276.401, 718.159 L 269.333, 727.645 L 275.471, 730.249 L 278.447, 725.971 L 292.955, 731.923 L 296.675, 726.715 L 302.441, 729.133 L 312.671, 733.411 L 294.443, 758.707 L 241.618, 736.759 z "/>
<path style="fill:rgb(255, 0, 0);fill-opacity:0;fill-rule:evenodd;stroke:rgb(0, 89, 255);stroke-width:1;" d="M 906.022, 166.287 L 921.088, 145.827 L 917.368, 144.339 L 920.158, 140.618 L 927.598, 130.388 L 944.897, 137.828 L 926.854, 162.381 L 934.48, 165.729 L 952.523, 141.176 L 970.751, 148.803 L 960.521, 162.753 L 956.615, 161.079 L 939.874, 183.585 L 906.022, 166.287 z "/>
<path style="fill:rgb(0, 255, 0);fill-opacity:0;fill-rule:evenodd;stroke:rgb(0, 89, 255);stroke-width:1;" d="M 600.977, 575.308 L 608.975, 564.706 L 612.509, 566.194 L 629.993, 542.944 L 644.315, 549.268 L 639.665, 555.592 L 646.733, 558.568 L 651.755, 552.058 L 666.45, 558.382 L 648.779, 581.632 L 652.499, 583.306 L 651.941, 584.05 L 644.315, 594.094 L 626.087, 586.282 L 638.363, 570.1 L 631.109, 566.938 L 619.019, 583.12 L 600.977, 575.308 z "/>
<path style="fill:rgb(0, 0, 255);fill-opacity:0;fill-rule:evenodd;stroke:rgb(0, 89, 255);stroke-width:1;" d="M 293.513, 193.815 L 297.791, 187.863 L 296.675, 187.305 L 310.439, 168.333 L 363.078, 190.467 L 344.85, 215.392 L 325.878, 207.394 L 332.574, 198.279 L 317.694, 191.955 L 310.997, 201.07 L 293.513, 193.815 z "/>
<path style="fill:rgb(255, 255, 0);fill-opacity:0;fill-rule:evenodd;stroke:rgb(0, 89, 255);stroke-width:1;" d="M 357.498, 303.929 L 375.541, 279.191 L 389.491, 284.957 L 390.979, 285.515 L 386.329, 291.839 L 407.719, 300.953 L 412.369, 294.629 L 426.133, 300.395 L 423.529, 303.929 L 425.575, 304.673 L 410.137, 325.878 L 357.498, 303.929 z "/>
<path style="fill:rgb(255, 0, 0);fill-opacity:0;fill-rule:evenodd;stroke:rgb(0, 89, 255);stroke-width:1;" d="M 476.726, 592.792 L 495.513, 566.938 L 545.92, 587.956 L 529.551, 610.463 L 527.877, 609.719 L 525.459, 613.253 L 509.835, 606.557 L 510.393, 605.627 L 510.021, 604.139 L 511.881, 601.535 L 514.113, 600.419 L 516.159, 597.814 L 515.787, 595.768 L 502.209, 590.374 L 499.791, 590.56 L 497.373, 593.908 L 497.559, 595.768 L 495.513, 598.558 L 492.723, 599.674 L 490.677, 598.744 L 476.912, 592.978 L 476.726, 592.792 z "/>
<path style="fill:rgb(0, 255, 0);fill-opacity:0;fill-rule:evenodd;stroke:rgb(0, 89, 255);stroke-width:1;" d="M 504.627, 292.583 L 520.995, 270.821 L 517.647, 269.147 L 525.831, 258.359 L 543.688, 265.985 L 530.109, 284.027 L 530.109, 285.701 L 527.319, 289.607 L 533.457, 292.211 L 550.756, 269.147 L 569.17, 276.959 L 560.986, 287.933 L 557.638, 286.445 L 541.269, 308.393 L 504.627, 292.583 z "/>
<path style="fill:rgb(0, 0, 255);fill-opacity:0;fill-rule:evenodd;stroke:rgb(0, 89, 255);stroke-width:1;" d="M 460.544, 274.355 L 477.284, 252.034 L 473.75, 250.546 L 481.562, 239.758 L 499.605, 247.384 L 486.213, 265.427 L 486.213, 266.543 L 482.864, 271.007 L 489.003, 273.797 L 492.351, 269.333 L 493.653, 268.775 L 507.417, 250.36 L 525.831, 258.359 L 517.647, 269.147 L 513.555, 267.473 L 496.629, 289.979 L 460.544, 274.355 z "/>
<path style="fill:rgb(255, 255, 0);fill-opacity:0;fill-rule:evenodd;stroke:rgb(0, 89, 255);stroke-width:1;" d="M 415.159, 498.489 L 431.9, 475.796 L 433.76, 476.54 L 434.504, 475.61 L 449.384, 483.05 L 444.176, 489.003 L 459.242, 496.443 L 462.59, 495.513 L 465.566, 491.793 L 477.47, 498.117 L 483.98, 500.907 L 468.914, 521.367 L 415.159, 498.489 z "/>
<path style="fill:rgb(255, 0, 0);fill-opacity:0;fill-rule:evenodd;stroke:rgb(0, 89, 255);stroke-width:1;" d="M 279.749, 701.418 L 286.445, 691.374 L 298.721, 696.024 L 300.209, 693.792 L 293.699, 691.188 L 300.023, 681.702 L 309.695, 685.236 L 308.579, 686.91 L 318.252, 690.63 L 319.74, 688.398 L 328.668, 691.746 L 327.738, 692.862 L 330.528, 693.978 L 329.598, 695.652 L 332.76, 696.768 L 326.994, 705.882 L 327.738, 706.068 L 318.996, 719.461 L 317.694, 718.903 L 311.555, 728.203 L 304.673, 725.785 L 302.441, 729.133 L 296.675, 726.715 L 300.395, 721.135 L 282.353, 714.439 L 288.677, 704.766 L 279.749, 701.418 z "/>
<path style="fill:rgb(0, 255, 0);fill-opacity:0;fill-rule:evenodd;stroke:rgb(0, 89, 255);stroke-width:1;" d="M 135.038, 608.975 L 151.965, 585.724 L 204.418, 607.859 L 188.421, 629.807 L 187.863, 629.435 L 186.747, 630.923 L 171.867, 624.599 L 179.121, 614.741 L 172.425, 611.951 L 169.263, 616.229 L 155.313, 610.277 L 151.221, 615.857 L 135.038, 608.975 z "/>
<path style="fill:rgb(0, 0, 255);fill-opacity:0;fill-rule:evenodd;stroke:rgb(0, 89, 255);stroke-width:1;" d="M 510.393, 368.1 L 526.389, 346.338 L 528.621, 347.268 L 529.365, 346.338 L 543.316, 352.29 L 538.665, 358.614 L 559.684, 367.542 L 564.52, 361.032 L 564.892, 361.032 L 579.772, 367.356 L 563.032, 390.235 L 510.393, 368.1 z "/>
<path style="fill:rgb(255, 255, 0);fill-opacity:0;fill-rule:evenodd;stroke:rgb(0, 89, 255);stroke-width:1;" d="M 391.909, 574.936 L 398.791, 565.636 L 402.139, 567.124 L 404.371, 563.962 L 396.187, 560.614 L 397.303, 559.126 L 403.441, 550.942 L 409.579, 553.546 L 412.741, 549.454 L 411.067, 548.71 L 420.739, 535.503 L 448.268, 547.222 L 434.318, 566.194 L 426.133, 562.66 L 420.925, 569.728 L 429.296, 573.262 L 419.437, 586.654 L 391.909, 574.936 z "/>
<path style="fill:rgb(255, 0, 0);fill-opacity:0;fill-rule:evenodd;stroke:rgb(0, 89, 255);stroke-width:1;" d="M 153.267, 780.842 L 161.451, 769.681 L 170.565, 773.588 L 177.633, 764.101 L 178.191, 760.939 L 170.193, 757.591 L 178.563, 745.873 L 215.578, 761.497 L 206.836, 773.402 L 198.651, 769.867 L 195.489, 770.611 L 194.745, 771.542 L 193.629, 770.983 L 192.141, 772.844 L 193.443, 773.402 L 187.491, 781.4 L 197.721, 785.864 L 190.095, 796.28 L 153.267, 780.842 z "/>
<path style="fill:rgb(0, 255, 0);fill-opacity:0;fill-rule:evenodd;stroke:rgb(0, 89, 255);stroke-width:1;" d="M 116.996, 765.589 L 124.808, 754.987 L 134.294, 758.893 L 139.688, 751.453 L 140.804, 751.825 L 142.664, 749.407 L 141.548, 749.035 L 141.362, 745.687 L 133.364, 742.339 L 142.106, 730.621 L 178.563, 745.873 L 170.193, 757.591 L 162.381, 754.429 L 159.219, 756.289 L 152.151, 765.775 L 161.451, 769.681 L 153.267, 780.842 L 116.996, 765.589 z "/>
<path style="fill:rgb(0, 0, 255);fill-opacity:0;fill-rule:evenodd;stroke:rgb(0, 89, 255);stroke-width:1;" d="M 644.501, 658.452 L 660.684, 636.503 L 712.578, 658.638 L 696.582, 680.4 L 674.448, 671.1 L 678.54, 665.52 L 676.866, 664.776 L 677.796, 663.66 L 666.636, 659.01 L 663.474, 659.568 L 659.568, 664.776 L 644.501, 658.452 z "/>
<path style="fill:rgb(255, 255, 0);fill-opacity:0;fill-rule:evenodd;stroke:rgb(0, 89, 255);stroke-width:1;" d="M 122.576, 205.162 L 138.572, 183.027 L 154.569, 189.909 L 150.291, 195.675 L 162.381, 200.698 L 170.937, 204.232 L 175.215, 198.465 L 190.839, 205.162 L 174.657, 227.11 L 122.576, 205.162 z "/>
<path style="fill:rgb(255, 0, 0);fill-opacity:0;fill-rule:evenodd;stroke:rgb(0, 89, 255);stroke-width:1;" d="M 529.365, 346.338 L 549.454, 318.81 L 556.708, 323.088 L 562.288, 325.878 L 557.266, 332.76 L 574.378, 339.828 L 573.634, 340.944 L 578.098, 342.804 L 584.05, 335.922 L 598.372, 342.06 L 579.772, 367.356 L 564.892, 361.032 L 569.356, 355.266 L 547.222, 345.78 L 543.316, 352.29 L 529.365, 346.338 z "/>
<path style="fill:rgb(0, 255, 0);fill-opacity:0;fill-rule:evenodd;stroke:rgb(0, 89, 255);stroke-width:1;" d="M 375.541, 279.191 L 393.769, 254.266 L 409.393, 260.777 L 405.115, 266.729 L 424.645, 274.913 L 428.924, 268.961 L 444.176, 275.471 L 426.133, 300.395 L 412.369, 294.629 L 416.647, 288.677 L 393.769, 279.005 L 389.491, 284.957 L 375.541, 279.191 z "/>
<path style="fill:rgb(0, 0, 255);fill-opacity:0;fill-rule:evenodd;stroke:rgb(0, 89, 255);stroke-width:1;" d="M 209.998, 334.806 L 212.788, 330.9 L 210.37, 329.784 L 214.09, 324.576 L 231.76, 332.016 L 233.806, 329.412 L 236.41, 330.528 L 238.27, 327.924 L 217.624, 319.368 L 226.738, 306.719 L 266.357, 323.274 L 244.78, 352.848 L 226.738, 345.222 L 228.598, 342.618 L 209.998, 334.806 z "/>
<path style="fill:rgb(255, 255, 0);fill-opacity:0;fill-rule:evenodd;stroke:rgb(0, 89, 255);stroke-width:1;" d="M 610.649, 410.323 L 639.107, 371.821 L 666.636, 385.957 L 665.892, 386.701 L 658.638, 396.559 L 648.779, 392.281 L 646.733, 395.257 L 648.965, 396.187 L 642.083, 405.301 L 640.223, 404.557 L 637.619, 407.905 L 640.967, 409.207 L 641.339, 408.835 L 647.477, 411.439 L 646.733, 412.369 L 639.107, 422.599 L 610.649, 410.323 z "/>
<path style="fill:rgb(255, 0, 0);fill-opacity:0;fill-rule:evenodd;stroke:rgb(0, 89, 255);stroke-width:1;" d="M 475.052, 353.034 L 483.05, 342.06 L 490.863, 345.408 L 504.999, 326.064 L 497.001, 322.716 L 505.557, 310.997 L 530.481, 321.414 L 509.277, 350.43 L 508.347, 350.058 L 505.557, 353.964 L 510.951, 356.196 L 504.255, 365.496 L 475.052, 353.034 z "/>
<path style="fill:rgb(0, 255, 0);fill-opacity:0;fill-rule:evenodd;stroke:rgb(0, 89, 255);stroke-width:1;" d="M 416.647, 328.482 L 424.645, 317.322 L 431.9, 320.484 L 446.036, 301.139 L 438.782, 298.163 L 446.966, 287.003 L 461.288, 292.955 L 461.66, 292.397 L 471.89, 296.675 L 450.686, 325.692 L 449.756, 325.32 L 447.152, 329.04 L 452.732, 331.272 L 452.732, 331.458 L 445.85, 340.758 L 416.647, 328.482 z "/>
<path style="fill:rgb(0, 0, 255);fill-opacity:0;fill-rule:evenodd;stroke:rgb(0, 89, 255);stroke-width:1;" d="M 534.573, 511.137 L 544.804, 497.001 L 547.222, 497.931 L 555.778, 485.654 L 565.264, 489.933 L 561.73, 494.769 L 579.958, 502.581 L 573.82, 511.509 L 598, 521.553 L 590.002, 532.527 L 559.684, 520.065 L 555.592, 520.809 L 552.802, 519.693 L 552.43, 516.903 L 548.71, 515.415 L 545.92, 515.973 L 534.573, 511.137 z "/>
<path style="fill:rgb(255, 255, 0);fill-opacity:0;fill-rule:evenodd;stroke:rgb(0, 89, 255);stroke-width:1;" d="M 596.512, 660.312 L 597.256, 659.196 L 605.813, 647.663 L 613.997, 651.197 L 615.671, 649.895 L 618.275, 646.361 L 617.159, 645.989 L 625.157, 634.829 L 617.531, 631.667 L 625.157, 621.437 L 654.545, 633.713 L 647.105, 644.129 L 643.385, 642.641 L 622.553, 671.286 L 596.512, 660.312 z "/>
<path style="fill:rgb(255, 0, 0);fill-opacity:0;fill-rule:evenodd;stroke:rgb(0, 89, 255);stroke-width:1;" d="M 571.774, 648.593 L 591.49, 621.437 L 587.584, 619.949 L 595.582, 608.975 L 625.157, 621.437 L 617.531, 631.667 L 616.229, 633.527 L 611.951, 631.667 L 608.231, 631.109 L 599.116, 643.757 L 606.371, 646.919 L 605.813, 647.663 L 597.256, 659.196 L 571.774, 648.593 z "/>
<path style="fill:rgb(0, 255, 0);fill-opacity:0;fill-rule:evenodd;stroke:rgb(0, 89, 255);stroke-width:1;" d="M 445.85, 340.758 L 452.732, 331.458 L 452.732, 331.272 L 458.126, 333.69 L 460.73, 330.156 L 459.986, 329.784 L 481.19, 300.767 L 505.557, 310.997 L 497.001, 322.716 L 489.003, 319.368 L 474.866, 338.712 L 483.05, 342.06 L 475.052, 353.034 L 445.85, 340.758 z "/>
<path style="fill:rgb(0, 0, 255);fill-opacity:0;fill-rule:evenodd;stroke:rgb(0, 89, 255);stroke-width:1;" d="M 475.61, 773.03 L 483.794, 761.869 L 490.863, 764.845 L 499.419, 753.313 L 498.861, 753.127 L 501.651, 749.407 L 503.325, 749.035 L 502.023, 746.245 L 500.535, 746.617 L 498.303, 745.687 L 498.117, 746.059 L 496.443, 745.315 L 504.627, 733.969 L 534.015, 746.245 L 526.017, 757.033 L 522.297, 755.545 L 521.739, 754.057 L 517.089, 755.359 L 517.647, 756.475 L 515.415, 759.451 L 514.671, 759.265 L 505.557, 771.542 L 512.997, 774.704 L 504.999, 785.492 L 475.61, 773.03 z "/>
<path style="fill:rgb(255, 255, 0);fill-opacity:0;fill-rule:evenodd;stroke:rgb(0, 89, 255);stroke-width:1;" d="M 504.999, 785.492 L 512.997, 774.704 L 520.065, 777.68 L 528.621, 765.775 L 528.621, 765.217 L 531.411, 761.125 L 532.155, 761.497 L 531.225, 758.149 L 529.923, 758.707 L 526.017, 757.033 L 534.015, 746.245 L 563.218, 758.707 L 555.22, 769.681 L 551.314, 768.007 L 551.128, 766.333 L 546.478, 767.449 L 547.408, 768.751 L 544.99, 771.914 L 543.502, 772.1 L 534.945, 783.818 L 542.385, 786.98 L 534.387, 797.954 L 504.999, 785.492 z "/>
<path style="fill:rgb(255, 0, 0);fill-opacity:0;fill-rule:evenodd;stroke:rgb(0, 89, 255);stroke-width:1;" d="M 681.144, 609.905 L 696.024, 589.816 L 707.37, 594.838 L 704.766, 598.558 L 703.836, 601.163 L 705.324, 601.163 L 729.691, 611.579 L 733.969, 605.627 L 747.547, 611.393 L 732.667, 631.667 L 681.144, 609.905 z "/>
<path style="fill:rgb(0, 255, 0);fill-opacity:0;fill-rule:evenodd;stroke:rgb(0, 89, 255);stroke-width:1;" d="M 948.803, 185.817 L 960.335, 170.193 L 961.265, 170.565 L 962.753, 168.333 L 961.823, 167.961 L 963.869, 164.055 L 960.521, 162.753 L 970.751, 148.803 L 999.953, 161.265 L 990.281, 174.471 L 986.933, 173.169 L 983.399, 176.517 L 970.007, 194.931 L 948.803, 185.817 z "/>
<path style="fill:rgb(0, 0, 255);fill-opacity:0;fill-rule:evenodd;stroke:rgb(0, 89, 255);stroke-width:1;" d="M 696.024, 589.816 L 708.672, 572.704 L 745.687, 588.328 L 747.733, 585.538 L 762.055, 591.676 L 747.547, 611.393 L 733.969, 605.627 L 725.971, 602.279 L 729.691, 597.07 L 714.625, 590.56 L 710.532, 596.14 L 707.37, 594.838 L 696.024, 589.816 z "/>
<path style="fill:rgb(255, 255, 0);fill-opacity:0;fill-rule:evenodd;stroke:rgb(0, 89, 255);stroke-width:1;" d="M 644.315, 594.094 L 651.941, 584.05 L 657.15, 586.282 L 659.94, 587.026 L 668.682, 575.122 L 666.45, 574.006 L 661.242, 571.774 L 670.17, 560.056 L 695.652, 571.03 L 680.214, 591.49 L 677.796, 590.374 L 676.308, 590.746 L 674.262, 593.35 L 681.516, 596.512 L 673.704, 606.929 L 644.315, 594.094 z "/>
<path style="fill:rgb(255, 0, 0);fill-opacity:0;fill-rule:evenodd;stroke:rgb(0, 89, 255);stroke-width:1;" d="M 639.107, 422.599 L 646.733, 412.369 L 652.685, 414.973 L 655.475, 414.415 L 664.59, 402.139 L 663.288, 399.721 L 658.08, 397.489 L 658.638, 396.559 L 665.892, 386.701 L 693.234, 401.581 L 685.98, 411.253 L 680.586, 408.835 L 677.982, 409.765 L 669.984, 420.367 L 670.17, 422.413 L 676.308, 425.017 L 675.192, 426.319 L 668.682, 435.062 L 639.107, 422.599 z "/>
<path style="fill:rgb(0, 255, 0);fill-opacity:0;fill-rule:evenodd;stroke:rgb(0, 89, 255);stroke-width:1;" d="M 351.36, 470.03 L 359.172, 459.428 L 366.612, 462.59 L 375.355, 451.058 L 367.356, 447.71 L 375.541, 436.736 L 404.929, 449.198 L 396.559, 460.544 L 389.491, 457.568 L 381.307, 468.356 L 389.119, 471.704 L 380.935, 482.492 L 351.36, 470.03 z "/>
<path style="fill:rgb(0, 0, 255);fill-opacity:0;fill-rule:evenodd;stroke:rgb(0, 89, 255);stroke-width:1;" d="M 829.017, 111.974 L 842.223, 94.1176 L 894.304, 116.252 L 880.725, 134.666 L 867.705, 129.086 L 872.541, 122.762 L 863.241, 118.856 L 862.869, 119.414 L 848.547, 113.276 L 845.571, 114.764 L 843.153, 118.112 L 829.017, 111.974 z "/>
<path style="fill:rgb(255, 255, 0);fill-opacity:0;fill-rule:evenodd;stroke:rgb(0, 89, 255);stroke-width:1;" d="M 322.158, 457.382 L 329.598, 447.152 L 337.038, 450.314 L 345.594, 438.782 L 338.154, 435.62 L 338.154, 435.248 L 346.524, 424.273 L 375.541, 436.736 L 367.356, 447.71 L 360.102, 444.548 L 351.546, 456.08 L 359.172, 459.428 L 351.36, 470.03 L 322.158, 457.382 z "/>
<path style="fill:rgb(255, 0, 0);fill-opacity:0;fill-rule:evenodd;stroke:rgb(0, 89, 255);stroke-width:1;" d="M 626.831, 740.293 L 627.203, 739.735 L 635.573, 728.017 L 639.293, 729.691 L 648.965, 716.485 L 660.498, 700.488 L 678.726, 708.114 L 648.593, 749.407 L 626.831, 740.293 z "/>
<path style="fill:rgb(0, 255, 0);fill-opacity:0;fill-rule:evenodd;stroke:rgb(0, 89, 255);stroke-width:1;" d="M 783.074, 418.321 L 804.65, 388.933 L 800.93, 387.445 L 807.812, 377.959 L 833.853, 389.119 L 826.784, 398.605 L 822.692, 396.931 L 801.302, 425.947 L 783.074, 418.321 z "/>
<path style="fill:rgb(0, 0, 255);fill-opacity:0;fill-rule:evenodd;stroke:rgb(0, 89, 255);stroke-width:1;" d="M 574.564, 563.962 L 583.12, 552.43 L 590.746, 555.778 L 599.674, 543.874 L 592.048, 540.339 L 600.791, 528.063 L 627.761, 539.781 L 618.461, 552.058 L 610.649, 548.71 L 602.465, 559.498 L 601.907, 560.242 L 609.905, 563.59 L 608.975, 564.706 L 600.977, 575.308 L 574.564, 563.962 z "/>
<path style="fill:rgb(255, 255, 0);fill-opacity:0;fill-rule:evenodd;stroke:rgb(0, 89, 255);stroke-width:1;" d="M 706.626, 385.585 L 728.017, 356.94 L 723.925, 355.08 L 731.179, 345.222 L 756.475, 356.01 L 749.407, 365.868 L 745.873, 364.38 L 724.483, 393.025 L 706.626, 385.585 z "/>
<path style="fill:rgb(255, 0, 0);fill-opacity:0;fill-rule:evenodd;stroke:rgb(0, 89, 255);stroke-width:1;" d="M 365.868, 562.288 L 384.469, 536.991 L 386.143, 537.735 L 388.189, 534.945 L 382.423, 532.527 L 389.863, 522.483 L 412.183, 531.969 L 402.511, 544.99 L 401.953, 544.804 L 398.791, 548.896 L 403.441, 550.942 L 397.303, 559.126 L 391.537, 556.708 L 388.933, 560.242 L 391.165, 561.172 L 384.469, 570.1 L 365.868, 562.288 z "/>
<path style="fill:rgb(0, 255, 0);fill-opacity:0;fill-rule:evenodd;stroke:rgb(0, 89, 255);stroke-width:1;" d="M 869.193, 302.441 L 887.794, 277.145 L 891.142, 275.471 L 889.84, 273.983 L 886.12, 272.309 L 893.56, 262.079 L 918.856, 272.681 L 911.23, 283.097 L 907.324, 281.423 L 905.278, 281.609 L 905.464, 284.585 L 886.864, 309.881 L 869.193, 302.441 z "/>
<path style="fill:rgb(0, 0, 255);fill-opacity:0;fill-rule:evenodd;stroke:rgb(0, 89, 255);stroke-width:1;" d="M 732.481, 396.373 L 753.685, 367.728 L 749.407, 365.868 L 756.475, 356.01 L 782.33, 367.17 L 775.448, 376.471 L 771.542, 374.797 L 750.151, 403.813 L 732.481, 396.373 z "/>
<path style="fill:rgb(255, 255, 0);fill-opacity:0;fill-rule:evenodd;stroke:rgb(0, 89, 255);stroke-width:1;" d="M 814.694, 131.318 L 829.017, 111.974 L 843.153, 118.112 L 840.921, 121.088 L 841.665, 122.948 L 844.269, 122.576 L 877.935, 136.898 L 868.077, 149.919 L 834.783, 135.782 L 833.667, 133.55 L 831.063, 133.922 L 828.645, 137.27 L 814.694, 131.318 z "/>
<path style="fill:rgb(255, 0, 0);fill-opacity:0;fill-rule:evenodd;stroke:rgb(0, 89, 255);stroke-width:1;" d="M 475.424, 489.561 L 507.789, 445.85 L 504.441, 444.362 L 504.813, 443.618 L 515.229, 428.924 L 530.295, 435.248 L 486.957, 495.699 L 475.424, 489.561 z "/>
<path style="fill:rgb(0, 255, 0);fill-opacity:0;fill-rule:evenodd;stroke:rgb(0, 89, 255);stroke-width:1;" d="M 668.682, 435.062 L 675.192, 426.319 L 678.912, 427.993 L 681.516, 426.877 L 680.772, 425.761 L 701.418, 398.047 L 723.367, 407.533 L 715.927, 417.763 L 711.648, 415.903 L 711.462, 414.601 L 707.742, 415.159 L 695.094, 432.272 L 696.396, 435.434 L 698.442, 434.504 L 702.534, 436.178 L 694.908, 446.408 L 668.682, 435.062 z "/>
<path style="fill:rgb(0, 0, 255);fill-opacity:0;fill-rule:evenodd;stroke:rgb(0, 89, 255);stroke-width:1;" d="M 720.205, 457.196 L 727.087, 447.896 L 730.249, 449.384 L 733.783, 448.268 L 732.109, 447.524 L 752.569, 419.623 L 774.146, 428.738 L 766.705, 438.968 L 762.427, 437.294 L 762.055, 436.178 L 758.521, 436.736 L 746.059, 454.034 L 747.919, 457.01 L 749.035, 455.522 L 754.057, 457.568 L 746.245, 468.17 L 720.205, 457.196 z "/>
<path style="fill:rgb(255, 255, 0);fill-opacity:0;fill-rule:evenodd;stroke:rgb(0, 89, 255);stroke-width:1;" d="M 694.908, 446.408 L 702.534, 436.178 L 706.626, 438.038 L 706.626, 439.154 L 709.974, 438.782 L 722.623, 421.855 L 721.693, 418.879 L 719.647, 419.251 L 715.927, 417.763 L 723.367, 407.533 L 745.315, 416.833 L 725.041, 444.176 L 723.553, 444.362 L 723.739, 446.594 L 727.087, 447.896 L 720.205, 457.196 L 694.908, 446.408 z "/>
<path style="fill:rgb(255, 0, 0);fill-opacity:0;fill-rule:evenodd;stroke:rgb(0, 89, 255);stroke-width:1;" d="M 758.149, 407.161 L 779.54, 378.331 L 775.448, 376.471 L 782.33, 367.17 L 807.812, 377.959 L 800.93, 387.445 L 796.838, 385.585 L 775.448, 414.601 L 758.149, 407.161 z "/>
<path style="fill:rgb(0, 255, 0);fill-opacity:0;fill-rule:evenodd;stroke:rgb(0, 89, 255);stroke-width:1;" d="M 290.909, 123.878 L 298.907, 113.09 L 302.999, 114.764 L 323.46, 87.0495 L 340.572, 94.3037 L 320.112, 121.832 L 323.832, 123.32 L 315.834, 134.294 L 290.909, 123.878 z "/>
<path style="fill:rgb(0, 0, 255);fill-opacity:0;fill-rule:evenodd;stroke:rgb(0, 89, 255);stroke-width:1;" d="M 829.203, 351.36 L 836.829, 340.944 L 839.991, 342.246 L 842.223, 341.502 L 842.037, 339.27 L 860.823, 313.787 L 878.121, 321.228 L 859.893, 346.338 L 857.289, 347.268 L 857.475, 349.5 L 861.009, 350.988 L 853.197, 361.404 L 829.203, 351.36 z "/>
<path style="fill:rgb(255, 255, 0);fill-opacity:0;fill-rule:evenodd;stroke:rgb(0, 89, 255);stroke-width:1;" d="M 266.543, 113.462 L 274.355, 102.674 L 278.075, 104.348 L 298.535, 76.4473 L 315.462, 83.7015 L 295.001, 111.416 L 298.907, 113.09 L 290.909, 123.878 L 266.543, 113.462 z "/>
<path style="fill:rgb(255, 0, 0);fill-opacity:0;fill-rule:evenodd;stroke:rgb(0, 89, 255);stroke-width:1;" d="M 803.72, 340.386 L 811.16, 330.156 L 815.996, 332.202 L 836.829, 303.743 L 853.197, 310.625 L 834.597, 335.922 L 831.621, 337.41 L 833.295, 337.968 L 832.551, 339.084 L 836.829, 340.944 L 829.203, 351.36 L 803.72, 340.386 z "/>
<path style="fill:rgb(0, 255, 0);fill-opacity:0;fill-rule:evenodd;stroke:rgb(0, 89, 255);stroke-width:1;" d="M 527.319, 71.6113 L 538.851, 55.615 L 553.918, 62.1251 L 551.872, 64.9151 L 552.802, 67.7052 L 555.964, 66.5892 L 589.63, 80.9114 L 580.144, 93.9316 L 527.319, 71.6113 z "/>
<path style="fill:rgb(0, 0, 255);fill-opacity:0;fill-rule:evenodd;stroke:rgb(0, 89, 255);stroke-width:1;" d="M 746.245, 468.17 L 754.057, 457.568 L 757.963, 459.242 L 757.219, 460.358 L 761.311, 460.358 L 773.96, 443.06 L 772.472, 439.712 L 771.355, 441.014 L 766.705, 438.968 L 774.146, 428.738 L 793.862, 436.922 L 784.934, 449.198 L 787.724, 450.5 L 776.378, 465.938 L 774.89, 465.194 L 775.076, 468.356 L 778.238, 469.658 L 771.542, 478.772 L 746.245, 468.17 z "/>
<path style="fill:rgb(255, 255, 0);fill-opacity:0;fill-rule:evenodd;stroke:rgb(0, 89, 255);stroke-width:1;" d="M 178.191, 549.454 L 194.745, 527.133 L 220.972, 538.293 L 217.066, 543.688 L 224.692, 546.85 L 212.044, 563.962 L 178.191, 549.454 z "/>
<path style="fill:rgb(255, 0, 0);fill-opacity:0;fill-rule:evenodd;stroke:rgb(0, 89, 255);stroke-width:1;" d="M 463.334, 611.393 L 476.912, 592.978 L 490.677, 598.744 L 488.631, 601.535 L 490.305, 603.209 L 492.537, 604.139 L 494.025, 603.581 L 523.599, 616.043 L 513.741, 629.435 L 482.678, 616.229 L 483.608, 614.927 L 482.492, 614.369 L 479.33, 614.369 L 477.098, 617.345 L 463.334, 611.393 z "/>
<path style="fill:rgb(0, 255, 0);fill-opacity:0;fill-rule:evenodd;stroke:rgb(0, 89, 255);stroke-width:1;" d="M 879.981, 154.197 L 894.676, 134.108 L 897.652, 135.41 L 899.512, 132.806 L 898.024, 131.132 L 893.374, 129.086 L 900.814, 119.042 L 927.598, 130.388 L 920.158, 140.618 L 914.578, 138.2 L 912.346, 138.2 L 910.672, 140.246 L 913.648, 141.548 L 898.21, 162.381 L 886.12, 157.359 L 886.492, 156.987 L 879.981, 154.197 z "/>
<path style="fill:rgb(0, 0, 255);fill-opacity:0;fill-rule:evenodd;stroke:rgb(0, 89, 255);stroke-width:1;" d="M 975.215, 208.138 L 984.515, 195.489 L 1023.58, 212.044 L 1025.62, 209.44 L 1036.97, 214.276 L 1024.13, 231.76 L 1012.6, 226.924 L 1014.28, 224.692 L 975.215, 208.138 z "/>
<path style="fill:rgb(255, 255, 0);fill-opacity:0;fill-rule:evenodd;stroke:rgb(0, 89, 255);stroke-width:1;" d="M 551.5, 38.5027 L 564.52, 20.8324 L 579.4, 26.9705 L 577.354, 29.7605 L 578.098, 32.7366 L 581.818, 31.9926 L 613.625, 45.3848 L 605.069, 57.103 L 573.262, 43.7108 L 572.332, 41.1067 L 568.798, 41.4787 L 566.38, 44.6408 L 551.5, 38.5027 z "/>
<path style="fill:rgb(255, 0, 0);fill-opacity:0;fill-rule:evenodd;stroke:rgb(0, 89, 255);stroke-width:1;" d="M 988.793, 189.537 L 997.721, 177.633 L 1036.41, 194.187 L 1038.64, 191.211 L 1050.36, 196.233 L 1036.97, 214.276 L 1025.62, 209.44 L 1027.85, 206.278 L 988.793, 189.537 z "/>
<path style="fill:rgb(0, 255, 0);fill-opacity:0;fill-rule:evenodd;stroke:rgb(0, 89, 255);stroke-width:1;" d="M 435.062, 756.289 L 455.708, 728.017 L 451.988, 726.529 L 460.358, 715.183 L 482.678, 724.669 L 474.308, 735.829 L 470.774, 734.341 L 450.128, 762.613 L 435.062, 756.289 z "/>
<path style="fill:rgb(0, 0, 255);fill-opacity:0;fill-rule:evenodd;stroke:rgb(0, 89, 255);stroke-width:1;" d="M 257.801, 583.864 L 266.543, 572.146 L 270.449, 573.82 L 291.095, 546.106 L 305.789, 552.43 L 284.399, 581.26 L 288.491, 583.12 L 280.679, 593.536 L 257.801, 583.864 z "/>
<path style="fill:rgb(255, 255, 0);fill-opacity:0;fill-rule:evenodd;stroke:rgb(0, 89, 255);stroke-width:1;" d="M 457.01, 765.589 L 477.656, 737.317 L 474.308, 735.829 L 482.678, 724.669 L 504.627, 733.969 L 496.443, 745.315 L 492.537, 743.641 L 472.076, 771.914 L 457.01, 765.589 z "/>
<path style="fill:rgb(255, 0, 0);fill-opacity:0;fill-rule:evenodd;stroke:rgb(0, 89, 255);stroke-width:1;" d="M 548.524, 640.409 L 568.984, 612.137 L 565.636, 610.835 L 573.82, 599.674 L 595.582, 608.975 L 587.584, 619.949 L 584.422, 618.461 L 563.776, 646.919 L 548.524, 640.409 z "/>
<path style="fill:rgb(0, 255, 0);fill-opacity:0;fill-rule:evenodd;stroke:rgb(0, 89, 255);stroke-width:1;" d="M 538.851, 55.615 L 551.5, 38.5027 L 566.38, 44.6408 L 564.148, 47.8028 L 565.636, 50.0349 L 568.612, 49.6629 L 600.605, 63.2411 L 592.234, 74.5873 L 559.498, 60.8231 L 559.498, 58.405 L 556.15, 58.963 L 553.918, 62.1251 L 538.851, 55.615 z "/>
<path style="fill:rgb(0, 0, 255);fill-opacity:0;fill-rule:evenodd;stroke:rgb(0, 89, 255);stroke-width:1;" d="M 659.568, 540.897 L 680.214, 512.625 L 676.68, 511.137 L 684.678, 500.349 L 706.626, 510.021 L 698.814, 520.809 L 695.28, 519.321 L 674.82, 547.408 L 659.568, 540.897 z "/>
<path style="fill:rgb(255, 255, 0);fill-opacity:0;fill-rule:evenodd;stroke:rgb(0, 89, 255);stroke-width:1;" d="M 526.575, 631.109 L 547.036, 603.023 L 543.316, 601.349 L 551.314, 590.374 L 573.82, 599.674 L 565.636, 610.835 L 562.102, 609.347 L 541.641, 637.433 L 526.575, 631.109 z "/>
<path style="fill:rgb(255, 0, 0);fill-opacity:0;fill-rule:evenodd;stroke:rgb(0, 89, 255);stroke-width:1;" d="M 186.003, 650.825 L 206.464, 622.739 L 202.93, 621.251 L 211.486, 609.533 L 233.062, 618.647 L 224.692, 630.179 L 221.53, 628.691 L 200.698, 656.963 L 186.003, 650.825 z "/>
<path style="fill:rgb(0, 255, 0);fill-opacity:0;fill-rule:evenodd;stroke:rgb(0, 89, 255);stroke-width:1;" d="M 637.805, 531.783 L 658.266, 503.883 L 654.545, 502.395 L 661.614, 492.723 L 662.73, 491.049 L 684.678, 500.349 L 676.68, 511.137 L 673.146, 509.649 L 652.313, 537.921 L 637.805, 531.783 z "/>
<path style="fill:rgb(0, 0, 255);fill-opacity:0;fill-rule:evenodd;stroke:rgb(0, 89, 255);stroke-width:1;" d="M 208.138, 660.312 L 228.97, 631.853 L 224.692, 630.179 L 233.062, 618.647 L 255.196, 628.133 L 254.638, 628.877 L 246.826, 639.479 L 242.734, 637.805 L 222.088, 666.264 L 208.138, 660.312 z "/>
<path style="fill:rgb(255, 255, 0);fill-opacity:0;fill-rule:evenodd;stroke:rgb(0, 89, 255);stroke-width:1;" d="M 302.813, 602.837 L 311.183, 591.676 L 314.532, 592.978 L 335.364, 564.706 L 349.686, 570.844 L 328.482, 599.488 L 332.388, 601.163 L 324.204, 612.137 L 302.813, 602.837 z "/>
<path style="fill:rgb(255, 0, 0);fill-opacity:0;fill-rule:evenodd;stroke:rgb(0, 89, 255);stroke-width:1;" d="M 280.679, 593.536 L 288.491, 583.12 L 292.025, 584.608 L 313.415, 555.592 L 327.552, 561.544 L 306.719, 589.63 L 311.183, 591.676 L 302.813, 602.837 L 280.679, 593.536 z "/>
<path style="fill:rgb(0, 255, 0);fill-opacity:0;fill-rule:evenodd;stroke:rgb(0, 89, 255);stroke-width:1;" d="M 236.782, 574.75 L 237.526, 573.82 L 244.78, 563.776 L 248.314, 565.264 L 255.196, 556.15 L 269.333, 536.991 L 283.655, 543.13 L 263.195, 570.844 L 266.543, 572.146 L 257.801, 583.864 L 236.782, 574.75 z "/>
<path style="fill:rgb(0, 0, 255);fill-opacity:0;fill-rule:evenodd;stroke:rgb(0, 89, 255);stroke-width:1;" d="M 252.034, 678.726 L 272.309, 650.825 L 268.217, 649.151 L 276.215, 638.177 L 298.535, 647.477 L 290.723, 657.894 L 287.189, 656.405 L 266.543, 684.678 L 252.034, 678.726 z "/>
<path style="fill:rgb(255, 255, 0);fill-opacity:0;fill-rule:evenodd;stroke:rgb(0, 89, 255);stroke-width:1;" d="M 229.9, 669.426 L 250.546, 641.153 L 246.826, 639.479 L 254.638, 628.877 L 276.215, 638.177 L 268.217, 649.151 L 264.497, 647.663 L 244.222, 675.378 L 229.9, 669.426 z "/>
<path style="fill:rgb(255, 0, 0);fill-opacity:0;fill-rule:evenodd;stroke:rgb(0, 89, 255);stroke-width:1;" d="M 651.941, 124.436 L 659.754, 114.02 L 663.846, 115.694 L 665.892, 114.578 L 667.752, 111.974 L 666.45, 111.416 L 682.632, 89.6536 L 697.326, 95.7917 L 679.284, 120.53 L 679.842, 121.832 L 682.26, 122.948 L 674.262, 133.922 L 651.941, 124.436 z "/>
<path style="fill:rgb(0, 255, 0);fill-opacity:0;fill-rule:evenodd;stroke:rgb(0, 89, 255);stroke-width:1;" d="M 586.468, 96.5357 L 594.094, 86.1195 L 597.814, 87.6075 L 599.86, 86.6775 L 601.163, 84.8175 L 599.488, 84.0735 L 616.229, 61.3811 L 630.923, 67.7052 L 612.695, 92.4436 L 615.671, 95.2337 L 607.859, 105.65 L 586.468, 96.5357 z "/>
<path style="fill:rgb(0, 0, 255);fill-opacity:0;fill-rule:evenodd;stroke:rgb(0, 89, 255);stroke-width:1;" d="M 607.859, 105.65 L 615.671, 95.2337 L 619.577, 96.9077 L 621.623, 95.9777 L 623.111, 93.9316 L 622.181, 93.5596 L 638.735, 71.0532 L 652.871, 77.0053 L 634.643, 101.93 L 638.177, 104.906 L 630.551, 115.322 L 607.859, 105.65 z "/>
<path style="fill:rgb(255, 255, 0);fill-opacity:0;fill-rule:evenodd;stroke:rgb(0, 89, 255);stroke-width:1;" d="M 630.551, 115.322 L 638.177, 104.906 L 641.525, 106.208 L 644.129, 104.906 L 645.803, 102.86 L 642.269, 101.372 L 643.385, 99.8837 L 645.245, 100.814 L 660.498, 80.1674 L 674.82, 86.3055 L 656.777, 111.044 L 659.754, 114.02 L 651.941, 124.436 L 630.551, 115.322 z "/>
<path style="fill:rgb(255, 0, 0);fill-opacity:0;fill-rule:evenodd;stroke:rgb(0, 89, 255);stroke-width:1;" d="M 393.769, 254.266 L 400.651, 244.594 L 411.067, 248.872 L 410.509, 249.616 L 432.272, 258.917 L 431.528, 259.847 L 449.942, 267.659 L 444.176, 275.471 L 428.924, 268.961 L 424.645, 274.913 L 405.115, 266.729 L 409.393, 260.777 L 393.769, 254.266 z "/>
<path style="fill:rgb(0, 255, 0);fill-opacity:0;fill-rule:evenodd;stroke:rgb(0, 89, 255);stroke-width:1;" d="M 380.935, 482.492 L 389.119, 471.704 L 395.629, 462.962 L 423.157, 476.912 L 409.765, 494.955 L 380.935, 482.492 z "/>
<path style="fill:rgb(0, 0, 255);fill-opacity:0;fill-rule:evenodd;stroke:rgb(0, 89, 255);stroke-width:1;" d="M 1000.88, 171.309 L 1006.28, 164.055 L 1057.99, 186.003 L 1050.36, 196.233 L 1038.64, 191.211 L 1030.83, 187.863 L 1033.06, 185.073 L 1000.88, 171.309 z "/>
<path style="fill:rgb(255, 255, 0);fill-opacity:0;fill-rule:evenodd;stroke:rgb(0, 89, 255);stroke-width:1;" d="M 295.001, 393.955 L 303.557, 382.237 L 322.344, 390.049 L 319.368, 393.955 L 344.664, 404.743 L 343.548, 406.231 L 339.084, 412.555 L 295.001, 393.955 z "/>
<path style="fill:rgb(255, 0, 0);fill-opacity:0;fill-rule:evenodd;stroke:rgb(0, 89, 255);stroke-width:1;" d="M 616.415, 733.411 L 633.527, 709.974 L 648.965, 716.485 L 639.293, 729.691 L 635.573, 728.017 L 627.203, 739.735 L 620.507, 736.945 L 620.693, 735.271 L 616.415, 733.411 z "/>
<path style="fill:rgb(0, 255, 0);fill-opacity:0;fill-rule:evenodd;stroke:rgb(0, 89, 255);stroke-width:1;" d="M 223.39, 557.638 L 229.9, 548.71 L 237.34, 552.058 L 238.456, 550.384 L 240.316, 551.314 L 241.06, 550.198 L 255.196, 556.15 L 248.314, 565.264 L 244.78, 563.776 L 237.526, 573.82 L 226.552, 568.984 L 232.132, 561.358 L 223.39, 557.638 z "/>
<path style="fill:rgb(0, 0, 255);fill-opacity:0;fill-rule:evenodd;stroke:rgb(0, 89, 255);stroke-width:1;" d="M 127.784, 619.019 L 135.038, 608.975 L 151.221, 615.857 L 164.985, 621.623 L 157.731, 631.481 L 151.035, 628.691 L 127.784, 619.019 z "/>
<path style="fill:rgb(255, 255, 0);fill-opacity:0;fill-rule:evenodd;stroke:rgb(0, 89, 255);stroke-width:1;" d="M 530.853, 697.326 L 531.225, 696.954 L 543.688, 679.842 L 548.152, 673.89 L 559.312, 678.726 L 542.199, 702.162 L 538.665, 700.674 L 536.805, 701.604 L 531.597, 699.558 L 530.853, 697.326 z "/>
<path style="fill:rgb(255, 0, 0);fill-opacity:0;fill-rule:evenodd;stroke:rgb(0, 89, 255);stroke-width:1;" d="M 552.058, 706.44 L 569.356, 682.818 L 580.516, 687.468 L 563.218, 711.09 L 561.172, 711.834 L 555.964, 709.602 L 555.592, 707.928 L 552.058, 706.44 z "/>
<path style="fill:rgb(0, 255, 0);fill-opacity:0;fill-rule:evenodd;stroke:rgb(0, 89, 255);stroke-width:1;" d="M 595.024, 724.483 L 612.137, 700.86 L 623.297, 705.51 L 605.999, 729.133 L 603.209, 729.691 L 598.558, 727.645 L 598.372, 725.785 L 595.024, 724.483 z "/>
<path style="fill:rgb(0, 0, 255);fill-opacity:0;fill-rule:evenodd;stroke:rgb(0, 89, 255);stroke-width:1;" d="M 573.634, 715.369 L 590.746, 691.932 L 601.349, 696.396 L 584.236, 719.833 L 582.562, 720.763 L 577.54, 718.717 L 577.354, 717.043 L 573.634, 715.369 z "/>
<path style="fill:rgb(255, 255, 0);fill-opacity:0;fill-rule:evenodd;stroke:rgb(0, 89, 255);stroke-width:1;" d="M 584.236, 719.833 L 601.349, 696.396 L 612.137, 700.86 L 595.024, 724.483 L 584.236, 719.833 z "/>
<path style="fill:rgb(255, 0, 0);fill-opacity:0;fill-rule:evenodd;stroke:rgb(0, 89, 255);stroke-width:1;" d="M 602.465, 497.373 L 619.205, 474.68 L 630.179, 479.33 L 613.439, 502.023 L 602.465, 497.373 z "/>
<path style="fill:rgb(0, 255, 0);fill-opacity:0;fill-rule:evenodd;stroke:rgb(0, 89, 255);stroke-width:1;" d="M 634.085, 510.765 L 650.639, 488.073 L 661.614, 492.723 L 654.545, 502.395 L 644.873, 515.415 L 634.085, 510.765 z "/>
<path style="fill:rgb(0, 0, 255);fill-opacity:0;fill-rule:evenodd;stroke:rgb(0, 89, 255);stroke-width:1;" d="M 559.312, 479.144 L 575.308, 457.382 L 586.654, 462.032 L 570.658, 483.98 L 559.312, 479.144 z "/>
<path style="fill:rgb(255, 255, 0);fill-opacity:0;fill-rule:evenodd;stroke:rgb(0, 89, 255);stroke-width:1;" d="M 591.862, 492.909 L 607.859, 470.96 L 608.417, 470.216 L 619.205, 474.68 L 602.465, 497.373 L 591.862, 492.909 z "/>
<path style="fill:rgb(255, 0, 0);fill-opacity:0;fill-rule:evenodd;stroke:rgb(0, 89, 255);stroke-width:1;" d="M 605.999, 729.133 L 623.297, 705.51 L 633.527, 709.974 L 616.415, 733.411 L 605.999, 729.133 z "/>
<path style="fill:rgb(0, 255, 0);fill-opacity:0;fill-rule:evenodd;stroke:rgb(0, 89, 255);stroke-width:1;" d="M 563.218, 711.09 L 580.516, 687.468 L 590.746, 691.932 L 573.634, 715.369 L 563.218, 711.09 z "/>
<path style="fill:rgb(0, 0, 255);fill-opacity:0;fill-rule:evenodd;stroke:rgb(0, 89, 255);stroke-width:1;" d="M 332.016, 689.886 L 335.178, 685.608 L 334.806, 685.422 L 347.454, 668.124 L 358.8, 672.96 L 346.152, 690.258 L 344.664, 689.7 L 341.502, 693.978 L 332.016, 689.886 z "/>
<path style="fill:rgb(255, 255, 0);fill-opacity:0;fill-rule:evenodd;stroke:rgb(0, 89, 255);stroke-width:1;" d="M 570.658, 483.98 L 586.654, 462.032 L 597.628, 466.682 L 581.446, 488.631 L 570.658, 483.98 z "/>
<path style="fill:rgb(255, 0, 0);fill-opacity:0;fill-rule:evenodd;stroke:rgb(0, 89, 255);stroke-width:1;" d="M 613.439, 502.023 L 630.179, 479.33 L 640.595, 483.794 L 623.855, 506.487 L 613.439, 502.023 z "/>
<path style="fill:rgb(0, 255, 0);fill-opacity:0;fill-rule:evenodd;stroke:rgb(0, 89, 255);stroke-width:1;" d="M 542.199, 702.162 L 559.312, 678.726 L 569.356, 682.818 L 552.058, 706.44 L 542.199, 702.162 z "/>
<path style="fill:rgb(0, 0, 255);fill-opacity:0;fill-rule:evenodd;stroke:rgb(0, 89, 255);stroke-width:1;" d="M 623.855, 506.487 L 640.595, 483.794 L 650.639, 488.073 L 634.085, 510.765 L 623.855, 506.487 z "/>
<path style="fill:rgb(255, 255, 0);fill-opacity:0;fill-rule:evenodd;stroke:rgb(0, 89, 255);stroke-width:1;" d="M 120.53, 628.877 L 127.784, 619.019 L 151.035, 628.691 L 143.781, 638.549 L 120.53, 628.877 z "/>
<path style="fill:rgb(255, 0, 0);fill-opacity:0;fill-rule:evenodd;stroke:rgb(0, 89, 255);stroke-width:1;" d="M 581.446, 488.631 L 597.628, 466.682 L 607.859, 470.96 L 591.862, 492.909 L 581.446, 488.631 z "/>
<path style="fill:rgb(0, 255, 0);fill-opacity:0;fill-rule:evenodd;stroke:rgb(0, 89, 255);stroke-width:1;" d="M 487.329, 678.54 L 494.583, 668.682 L 500.907, 659.754 L 512.253, 664.404 L 498.675, 683.19 L 494.955, 681.702 L 492.165, 682.818 L 488.259, 681.144 L 488.445, 678.912 L 487.329, 678.54 z "/>
<path style="fill:rgb(0, 0, 255);fill-opacity:0;fill-rule:evenodd;stroke:rgb(0, 89, 255);stroke-width:1;" d="M 498.675, 683.19 L 512.253, 664.404 L 523.599, 669.24 L 509.835, 687.84 L 498.675, 683.19 z "/>
<path style="fill:rgb(255, 255, 0);fill-opacity:0;fill-rule:evenodd;stroke:rgb(0, 89, 255);stroke-width:1;" d="M 282.539, 669.054 L 290.723, 657.894 L 298.535, 647.477 L 308.021, 651.569 L 295.745, 669.054 L 290.909, 667.008 L 287.747, 671.286 L 282.539, 669.054 z "/>
<path style="fill:rgb(255, 0, 0);fill-opacity:0;fill-rule:evenodd;stroke:rgb(0, 89, 255);stroke-width:1;" d="M 305.789, 673.146 L 318.438, 655.847 L 328.668, 660.126 L 315.834, 677.424 L 305.789, 673.146 z "/>
<path style="fill:rgb(0, 255, 0);fill-opacity:0;fill-rule:evenodd;stroke:rgb(0, 89, 255);stroke-width:1;" d="M 295.745, 669.054 L 308.021, 651.569 L 318.438, 655.847 L 305.789, 673.146 L 295.745, 669.054 z "/>
<path style="fill:rgb(0, 0, 255);fill-opacity:0;fill-rule:evenodd;stroke:rgb(0, 89, 255);stroke-width:1;" d="M 519.879, 692.118 L 528.621, 680.028 L 532.899, 681.888 L 536.433, 676.866 L 543.688, 679.842 L 531.225, 696.954 L 519.879, 692.118 z "/>
<path style="fill:rgb(255, 255, 0);fill-opacity:0;fill-rule:evenodd;stroke:rgb(0, 89, 255);stroke-width:1;" d="M 325.134, 681.33 L 337.782, 664.032 L 347.454, 668.124 L 334.806, 685.422 L 325.134, 681.33 z "/>
<path style="fill:rgb(255, 0, 0);fill-opacity:0;fill-rule:evenodd;stroke:rgb(0, 89, 255);stroke-width:1;" d="M 315.834, 677.424 L 328.668, 660.126 L 337.782, 664.032 L 325.134, 681.33 L 315.834, 677.424 z "/>
<path style="fill:rgb(0, 255, 0);fill-opacity:0;fill-rule:evenodd;stroke:rgb(0, 89, 255);stroke-width:1;" d="M 42.7807, 20.0884 L 47.0588, 6.88212 L 93.9316, 26.4125 L 85.5615, 37.9447 L 42.7807, 20.0884 z "/>
<path style="fill:rgb(0, 0, 255);fill-opacity:0;fill-rule:evenodd;stroke:rgb(0, 89, 255);stroke-width:1;" d="M 0, 154.755 L 31.0625, 54.1269 L 38.3167, 51.8949 L 142.106, 95.2337 L 96.5357, 157.731 L 75.5173, 186.561 L 0, 154.755 z "/>
<path style="fill:rgb(255, 255, 0);fill-opacity:0;fill-rule:evenodd;stroke:rgb(0, 89, 255);stroke-width:1;" d="M 38.1307, 741.595 L 69.0072, 699.372 L 97.8377, 711.462 L 81.8414, 733.597 L 90.2116, 737.131 L 106.208, 715.183 L 135.968, 727.831 L 120.902, 748.663 L 118.856, 747.919 L 103.604, 768.937 L 87.4215, 762.055 L 86.4915, 761.683 L 92.4436, 753.499 L 85.7475, 750.709 L 84.0735, 752.941 L 66.4032, 745.501 L 61.9391, 751.639 L 56.173, 749.221 L 38.1307, 741.595 z "/>
<path style="fill:rgb(255, 0, 0);fill-opacity:0;fill-rule:evenodd;stroke:rgb(0, 89, 255);stroke-width:1;" d="M 26.9705, 335.364 L 32.9226, 327.366 L 30.5045, 326.25 L 42.4087, 310.253 L 44.6408, 311.183 L 50.5929, 303.371 L 61.3811, 308.021 L 69.7512, 296.861 L 100.814, 310.253 L 102.86, 307.277 L 111.602, 311.183 L 116.252, 313.043 L 104.906, 328.482 L 107.882, 329.784 L 86.8635, 357.87 L 82.0274, 355.824 L 81.0974, 357.126 L 42.0367, 340.572 L 41.4787, 341.502 L 26.9705, 335.364 z "/>
<path style="fill:rgb(0, 255, 0);fill-opacity:0;fill-rule:evenodd;stroke:rgb(0, 89, 255);stroke-width:1;" d="M 44.6408, 425.575 L 61.9391, 401.395 L 57.289, 399.535 L 66.5892, 386.515 L 90.7696, 396.559 L 85.1895, 404.371 L 86.1195, 404.743 L 83.8875, 407.905 L 92.2576, 411.253 L 94.8617, 407.719 L 95.7917, 408.091 L 101, 400.837 L 125.552, 411.067 L 116.81, 422.971 L 109.37, 419.809 L 106.952, 420.553 L 98.9537, 431.714 L 101.744, 433.016 L 101.744, 433.76 L 106.952, 435.806 L 105.65, 437.48 L 98.3957, 447.71 L 76.6333, 438.782 L 85.7475, 426.319 L 82.0274, 424.831 L 82.7714, 423.715 L 79.7954, 422.413 L 80.9114, 420.925 L 77.5634, 419.623 L 66.7752, 434.69 L 44.6408, 425.575 z "/>
<path style="fill:rgb(0, 0, 255);fill-opacity:0;fill-rule:evenodd;stroke:rgb(0, 89, 255);stroke-width:1;" d="M 16.9263, 481.376 L 25.8545, 469.286 L 38.6887, 474.68 L 40.5487, 475.424 L 51.3369, 460.916 L 49.8489, 460.358 L 36.2706, 454.592 L 45.1988, 442.688 L 89.4676, 461.474 L 80.5394, 473.378 L 71.2392, 469.472 L 60.6371, 483.98 L 69.9372, 487.887 L 60.8231, 499.977 L 16.9263, 481.376 z "/>
<path style="fill:rgb(255, 255, 0);fill-opacity:0;fill-rule:evenodd;stroke:rgb(0, 89, 255);stroke-width:1;" d="M 21.9484, 763.543 L 38.1307, 741.595 L 56.173, 749.221 L 49.6629, 758.149 L 53.9409, 760.009 L 54.1269, 759.637 L 59.335, 761.869 L 59.893, 761.125 L 61.1951, 761.683 L 61.7531, 761.125 L 63.0551, 761.683 L 68.6352, 754.243 L 86.4915, 761.683 L 87.4215, 762.055 L 73.8433, 780.656 L 41.4787, 767.077 L 38.8747, 770.611 L 36.4566, 769.495 L 21.9484, 763.543 z "/>
<path style="fill:rgb(255, 0, 0);fill-opacity:0;fill-rule:evenodd;stroke:rgb(0, 89, 255);stroke-width:1;" d="M 240.13, 44.4548 L 273.053, 0 L 294.257, 8.92816 L 289.607, 15.0663 L 288.677, 14.6943 L 277.145, 30.1325 L 288.863, 35.1546 L 300.209, 19.9023 L 298.907, 19.3443 L 303.743, 13.0202 L 325.134, 22.1344 L 309.695, 42.9668 L 306.719, 43.7108 L 290.537, 65.6591 L 273.053, 58.219 L 275.285, 55.057 L 273.983, 51.8949 L 278.261, 45.9428 L 268.217, 41.8507 L 264.311, 47.2448 L 260.033, 48.5468 L 257.615, 51.8949 L 240.13, 44.4548 z "/>
<path style="fill:rgb(0, 255, 0);fill-opacity:0;fill-rule:evenodd;stroke:rgb(0, 89, 255);stroke-width:1;" d="M 115.136, 35.8986 L 139.688, 2.41804 L 178.377, 18.7863 L 192.885, 24.9244 L 168.333, 58.405 L 115.136, 35.8986 z "/>
<path style="fill:rgb(0, 0, 255);fill-opacity:0;fill-rule:evenodd;stroke:rgb(0, 89, 255);stroke-width:1;" d="M 624.785, 50.4069 L 642.641, 25.8545 L 632.969, 21.7624 L 641.711, 9.85817 L 665.892, 20.0884 L 654.173, 36.0846 L 661.056, 38.8747 L 672.774, 22.8784 L 691.56, 30.8765 L 682.818, 42.9668 L 678.912, 41.2927 L 661.056, 65.6591 L 646.919, 59.707 L 652.871, 51.5229 L 645.059, 48.1748 L 639.107, 56.359 L 624.785, 50.4069 z "/>
<path style="fill:rgb(255, 255, 0);fill-opacity:0;fill-rule:evenodd;stroke:rgb(0, 89, 255);stroke-width:1;" d="M 564.52, 20.8324 L 577.168, 3.34806 L 592.234, 9.67217 L 590.002, 12.6482 L 591.118, 15.4383 L 595.024, 14.5083 L 626.459, 27.9005 L 617.717, 39.9907 L 585.91, 26.5985 L 585.166, 23.2504 L 581.446, 23.9944 L 579.4, 26.9705 L 564.52, 20.8324 z "/>
</svg>