<?xml version="1.0" encoding="iso-8859-1" standalone="no"?>
<!DOCTYPE svg PUBLIC "-//W3C//DTD SVG 1.0//EN" "http://www.w3.org/TR/2001/REC-SVG-20010904/DTD/svg10.dtd">
<svg xmlns="http://www.w3.org/2000/svg" width="1125" height="800">
<path style="fill:rgb(255, 0, 0);fill-opacity:0;fill-rule:evenodd;stroke:rgb(176, 255, 0);stroke-width:1;" d="M 719.634, 611.625 L 779.497, 529.977 L 890.801, 577.025 L 884.394, 585.629 L 923.57, 602.105 L 870.114, 675.515 L 719.634, 611.625 z "/>
<path style="fill:rgb(0, 255, 0);fill-opacity:0;fill-rule:evenodd;stroke:rgb(176, 255, 0);stroke-width:1;" d="M 781.876, 217.117 L 813.364, 174.096 L 844.119, 132.174 L 958.352, 180.503 L 896.11, 265.629 L 781.876, 217.117 z "/>
<path style="fill:rgb(0, 0, 255);fill-opacity:0;fill-rule:evenodd;stroke:rgb(176, 255, 0);stroke-width:1;" d="M 460.412, 502.7 L 486.59, 466.636 L 486.957, 466.087 L 485.309, 465.355 L 495.195, 451.808 L 516.979, 421.785 L 634.874, 471.396 L 576.476, 551.579 L 460.412, 502.7 z M 511.121, 485.126 L 527.597, 492.265 L 543.89, 469.748 L 525.584, 462.059 L 514.416, 477.437 L 516.247, 478.169 L 511.121, 485.126 z "/>
<path style="fill:rgb(255, 255, 0);fill-opacity:0;fill-rule:evenodd;stroke:rgb(176, 255, 0);stroke-width:1;" d="M 870.114, 675.515 L 923.57, 602.105 L 884.394, 585.629 L 890.801, 577.025 L 1019.13, 631.396 L 989.84, 669.108 L 1016.93, 682.105 L 1011.62, 689.428 L 1004.85, 686.682 L 999.908, 693.455 L 1006.5, 696.384 L 985.812, 724.577 L 870.114, 675.515 z "/>
<path style="fill:rgb(255, 0, 0);fill-opacity:0;fill-rule:evenodd;stroke:rgb(176, 255, 0);stroke-width:1;" d="M 859.314, 103.249 L 888.97, 62.6087 L 891.35, 59.1304 L 924.851, 73.2265 L 955.973, 30.5721 L 1006.68, 51.9908 L 998.261, 63.524 L 1033.41, 78.5355 L 978.673, 153.593 L 859.314, 103.249 z "/>
<path style="fill:rgb(0, 255, 0);fill-opacity:0;fill-rule:evenodd;stroke:rgb(176, 255, 0);stroke-width:1;" d="M 576.476, 551.579 L 634.874, 471.396 L 720.915, 507.643 L 662.517, 587.826 L 576.476, 551.579 z "/>
<path style="fill:rgb(0, 0, 255);fill-opacity:0;fill-rule:evenodd;stroke:rgb(176, 255, 0);stroke-width:1;" d="M 279.176, 285.767 L 337.391, 205.95 L 417.391, 239.634 L 416.293, 241.281 L 397.62, 266.911 L 387.551, 280.824 L 393.043, 283.204 L 391.762, 285.034 L 364.851, 322.014 L 279.176, 285.767 z "/>
<path style="fill:rgb(255, 255, 0);fill-opacity:0;fill-rule:evenodd;stroke:rgb(176, 255, 0);stroke-width:1;" d="M 623.89, 238.535 L 626.087, 235.423 L 652.632, 198.993 L 786.819, 255.378 L 757.895, 294.92 L 623.89, 238.535 z "/>
<path style="fill:rgb(255, 0, 0);fill-opacity:0;fill-rule:evenodd;stroke:rgb(176, 255, 0);stroke-width:1;" d="M 661.236, 410.801 L 699.497, 358.444 L 798.902, 400.366 L 760.641, 452.723 L 661.236, 410.801 z "/>
<path style="fill:rgb(0, 255, 0);fill-opacity:0;fill-rule:evenodd;stroke:rgb(176, 255, 0);stroke-width:1;" d="M 819.039, 474.142 L 856.751, 423.066 L 954.142, 464.622 L 952.311, 467.185 L 930.892, 496.11 L 923.753, 505.812 L 916.43, 515.698 L 908.741, 512.22 L 819.039, 474.142 z "/>
<path style="fill:rgb(0, 0, 255);fill-opacity:0;fill-rule:evenodd;stroke:rgb(176, 255, 0);stroke-width:1;" d="M 729.153, 335.744 L 748.375, 309.382 L 794.874, 328.97 L 833.867, 275.332 L 866.087, 288.879 L 867.735, 288.696 L 869.199, 288.696 L 870.297, 288.879 L 872.311, 289.428 L 873.959, 290.343 L 875.24, 291.625 L 875.789, 292.357 L 876.339, 293.822 L 876.339, 295.469 L 876.156, 296.201 L 875.423, 297.849 L 874.142, 298.947 L 873.227, 299.497 L 870.481, 300.778 L 823.982, 364.485 L 824.165, 367.048 L 823.799, 368.513 L 823.432, 369.245 L 822.883, 369.977 L 821.419, 371.259 L 819.771, 372.174 L 818.673, 372.54 L 816.659, 372.906 L 815.561, 372.906 L 813.547, 372.723 L 811.533, 372.174 L 810.618, 371.625 L 809.153, 370.526 L 807.689, 368.696 L 729.153, 335.744 z "/>
<path style="fill:rgb(255, 255, 0);fill-opacity:0;fill-rule:evenodd;stroke:rgb(176, 255, 0);stroke-width:1;" d="M 180.32, 525.217 L 212.906, 480 L 203.021, 475.973 L 198.261, 473.959 L 224.073, 438.444 L 261.785, 454.188 L 222.975, 507.643 L 219.68, 512.22 L 258.124, 528.33 L 261.419, 523.936 L 270.938, 510.755 L 300.412, 523.204 L 298.398, 525.95 L 271.121, 563.295 L 180.32, 525.217 z "/>
<path style="fill:rgb(255, 0, 0);fill-opacity:0;fill-rule:evenodd;stroke:rgb(176, 255, 0);stroke-width:1;" d="M 593.867, 418.49 L 622.609, 379.13 L 625.904, 374.737 L 652.265, 338.49 L 699.497, 358.444 L 661.236, 410.801 L 641.098, 438.444 L 593.867, 418.49 z "/>
<path style="fill:rgb(0, 255, 0);fill-opacity:0;fill-rule:evenodd;stroke:rgb(176, 255, 0);stroke-width:1;" d="M 1015.65, 737.208 L 1039.45, 704.805 L 1045.13, 707.368 L 1057.03, 691.259 L 1051.17, 688.879 L 1074.97, 656.476 L 1125.86, 678.078 L 1097.85, 716.339 L 1096.57, 717.986 L 1087.41, 714.142 L 1084.3, 718.352 L 1057.76, 754.6 L 1057.57, 754.966 L 1015.65, 737.208 z "/>
<path style="fill:rgb(0, 0, 255);fill-opacity:0;fill-rule:evenodd;stroke:rgb(176, 255, 0);stroke-width:1;" d="M 746.362, 763.936 L 768.146, 733.913 L 777.666, 737.941 L 783.524, 729.886 L 792.86, 717.071 L 784.073, 713.227 L 805.309, 683.936 L 850.16, 702.609 L 791.945, 782.975 L 746.362, 763.936 z "/>
<path style="fill:rgb(255, 255, 0);fill-opacity:0;fill-rule:evenodd;stroke:rgb(176, 255, 0);stroke-width:1;" d="M 91.8993, 348.009 L 106.178, 328.421 L 116.979, 332.998 L 147.002, 291.808 L 136.384, 287.231 L 150.847, 267.46 L 197.346, 287.231 L 180.686, 310.114 L 138.581, 367.78 L 91.8993, 348.009 z "/>
<path style="fill:rgb(255, 0, 0);fill-opacity:0;fill-rule:evenodd;stroke:rgb(176, 255, 0);stroke-width:1;" d="M 441.19, 634.874 L 463.89, 603.57 L 474.691, 607.963 L 477.071, 604.668 L 482.929, 607.048 L 488.787, 609.611 L 494.828, 601.373 L 522.288, 563.661 L 556.339, 578.124 L 551.213, 585.08 L 529.611, 614.92 L 517.895, 609.977 L 511.487, 618.764 L 486.041, 653.73 L 441.19, 634.874 z "/>
<path style="fill:rgb(0, 255, 0);fill-opacity:0;fill-rule:evenodd;stroke:rgb(176, 255, 0);stroke-width:1;" d="M 795.606, 505.995 L 819.039, 474.142 L 908.741, 512.22 L 886.59, 542.243 L 885.126, 544.256 L 795.606, 505.995 z "/>
<path style="fill:rgb(0, 0, 255);fill-opacity:0;fill-rule:evenodd;stroke:rgb(176, 255, 0);stroke-width:1;" d="M 523.204, 388.65 L 549.748, 352.22 L 551.945, 349.291 L 594.233, 367.231 L 622.609, 379.13 L 593.867, 418.49 L 523.204, 388.65 z "/>
<path style="fill:rgb(255, 255, 0);fill-opacity:0;fill-rule:evenodd;stroke:rgb(176, 255, 0);stroke-width:1;" d="M 641.098, 438.444 L 661.236, 410.801 L 760.641, 452.723 L 740.686, 480.366 L 641.098, 438.444 z "/>
<path style="fill:rgb(255, 0, 0);fill-opacity:0;fill-rule:evenodd;stroke:rgb(176, 255, 0);stroke-width:1;" d="M 629.565, 153.593 L 660.686, 111.304 L 664.348, 106.178 L 678.078, 112.037 L 702.975, 122.654 L 721.831, 130.709 L 714.508, 140.595 L 687.048, 178.124 L 629.565, 153.593 z "/>
<path style="fill:rgb(0, 255, 0);fill-opacity:0;fill-rule:evenodd;stroke:rgb(176, 255, 0);stroke-width:1;" d="M 418.49, 344.531 L 443.753, 309.748 L 447.597, 304.439 L 485.309, 320.366 L 492.632, 323.478 L 478.719, 342.7 L 481.831, 343.982 L 495.561, 325.126 L 516.979, 334.279 L 488.055, 373.822 L 418.49, 344.531 z "/>
<path style="fill:rgb(0, 0, 255);fill-opacity:0;fill-rule:evenodd;stroke:rgb(176, 255, 0);stroke-width:1;" d="M 526.316, 619.497 L 529.611, 614.92 L 551.213, 585.08 L 616.568, 612.54 L 621.144, 606.133 L 632.677, 610.892 L 628.284, 617.117 L 637.437, 620.961 L 612.357, 655.378 L 573.181, 638.902 L 580.87, 628.101 L 579.039, 622.059 L 572.815, 619.497 L 575.195, 616.201 L 568.604, 613.638 L 566.407, 616.568 L 562.563, 615.103 L 551.945, 629.931 L 540.961, 625.355 L 526.316, 619.497 z "/>
<path style="fill:rgb(255, 255, 0);fill-opacity:0;fill-rule:evenodd;stroke:rgb(176, 255, 0);stroke-width:1;" d="M 716.156, 701.693 L 718.169, 698.947 L 747.826, 657.941 L 806.407, 682.288 L 805.309, 683.936 L 784.073, 713.227 L 792.86, 717.071 L 783.524, 729.886 L 716.156, 701.693 z "/>
<path style="fill:rgb(255, 0, 0);fill-opacity:0;fill-rule:evenodd;stroke:rgb(176, 255, 0);stroke-width:1;" d="M 962.929, 381.51 L 992.037, 341.419 L 993.501, 339.405 L 1057.94, 366.499 L 1056.48, 368.513 L 1029.75, 405.309 L 1004.3, 394.691 L 1001.92, 397.986 L 962.929, 381.51 z "/>
<path style="fill:rgb(0, 255, 0);fill-opacity:0;fill-rule:evenodd;stroke:rgb(176, 255, 0);stroke-width:1;" d="M 388.65, 472.494 L 415.011, 436.43 L 486.59, 466.636 L 460.412, 502.7 L 388.65, 472.494 z "/>
<path style="fill:rgb(0, 0, 255);fill-opacity:0;fill-rule:evenodd;stroke:rgb(176, 255, 0);stroke-width:1;" d="M 661.968, 307.368 L 689.794, 269.108 L 757.162, 297.3 L 748.375, 309.382 L 729.153, 335.744 L 661.968, 307.368 z "/>
<path style="fill:rgb(255, 255, 0);fill-opacity:0;fill-rule:evenodd;stroke:rgb(176, 255, 0);stroke-width:1;" d="M 201.19, 393.593 L 259.588, 313.41 L 269.291, 317.437 L 256.659, 334.828 L 318.535, 360.824 L 302.609, 382.609 L 250.435, 360.824 L 220.595, 401.648 L 201.19, 393.593 z "/>
<path style="fill:rgb(255, 0, 0);fill-opacity:0;fill-rule:evenodd;stroke:rgb(176, 255, 0);stroke-width:1;" d="M 938.398, 566.957 L 939.863, 564.943 L 961.648, 535.103 L 966.59, 528.513 L 1027, 554.142 L 1026.45, 554.874 L 1000.46, 590.206 L 998.627, 592.586 L 938.398, 566.957 z "/>
<path style="fill:rgb(0, 255, 0);fill-opacity:0;fill-rule:evenodd;stroke:rgb(176, 255, 0);stroke-width:1;" d="M 357.162, 179.039 L 386.453, 138.947 L 393.776, 142.059 L 419.954, 153.227 L 405.858, 172.449 L 408.787, 173.73 L 411.167, 170.435 L 417.391, 173.181 L 423.799, 164.211 L 449.062, 174.828 L 441.19, 185.629 L 445.95, 187.643 L 438.81, 197.346 L 433.867, 195.332 L 429.84, 200.824 L 428.924, 200.458 L 424.165, 207.231 L 395.423, 195.149 L 400.366, 188.192 L 399.634, 187.826 L 403.478, 182.883 L 393.41, 178.49 L 391.945, 180.503 L 391.396, 180.32 L 384.073, 190.206 L 357.162, 179.039 z "/>
<path style="fill:rgb(0, 0, 255);fill-opacity:0;fill-rule:evenodd;stroke:rgb(176, 255, 0);stroke-width:1;" d="M 420.32, 420.32 L 428.741, 408.787 L 427.46, 408.238 L 441.007, 389.748 L 516.979, 421.785 L 495.195, 451.808 L 420.32, 420.32 z "/>
<path style="fill:rgb(255, 255, 0);fill-opacity:0;fill-rule:evenodd;stroke:rgb(176, 255, 0);stroke-width:1;" d="M 688.513, 739.771 L 716.156, 701.693 L 783.524, 729.886 L 777.666, 737.941 L 768.146, 733.913 L 746.362, 763.936 L 688.513, 739.771 z "/>
<path style="fill:rgb(255, 0, 0);fill-opacity:0;fill-rule:evenodd;stroke:rgb(176, 255, 0);stroke-width:1;" d="M 942.609, 507.094 L 944.989, 504.165 L 967.323, 473.593 L 969.153, 471.213 L 1030.85, 497.757 L 1004.49, 533.455 L 942.609, 507.094 z "/>
<path style="fill:rgb(0, 255, 0);fill-opacity:0;fill-rule:evenodd;stroke:rgb(176, 255, 0);stroke-width:1;" d="M 194.416, 179.771 L 200.641, 170.984 L 197.712, 169.703 L 210.343, 152.311 L 279.359, 181.236 L 250.252, 221.327 L 215.103, 206.499 L 220.961, 198.444 L 227.551, 201.373 L 232.86, 194.05 L 214.554, 186.362 L 213.455, 187.826 L 194.416, 179.771 z "/>
<path style="fill:rgb(0, 0, 255);fill-opacity:0;fill-rule:evenodd;stroke:rgb(176, 255, 0);stroke-width:1;" d="M 435.698, 211.991 L 440.458, 205.4 L 439.908, 205.034 L 443.936, 199.542 L 438.81, 197.346 L 445.95, 187.643 L 450.892, 189.84 L 458.947, 178.856 L 490.984, 192.403 L 484.577, 201.007 L 488.421, 202.654 L 485.858, 205.95 L 489.153, 207.414 L 490.984, 205.034 L 493.364, 205.95 L 500.503, 196.247 L 528.879, 208.33 L 504.897, 241.281 L 475.606, 228.833 L 484.211, 216.934 L 473.41, 212.357 L 469.748, 217.3 L 469.016, 217.117 L 464.073, 223.89 L 435.698, 211.991 z "/>
<path style="fill:rgb(255, 255, 0);fill-opacity:0;fill-rule:evenodd;stroke:rgb(176, 255, 0);stroke-width:1;" d="M 989.108, 445.4 L 990.023, 444.119 L 1007.41, 420.137 L 1014.55, 410.252 L 1074.97, 435.515 L 1070.57, 441.556 L 1049.34, 470.664 L 989.108, 445.4 z "/>
<path style="fill:rgb(255, 0, 0);fill-opacity:0;fill-rule:evenodd;stroke:rgb(176, 255, 0);stroke-width:1;" d="M 506.178, 189.291 L 511.487, 182.151 L 519.176, 171.533 L 525.95, 162.197 L 535.286, 149.565 L 586.911, 171.167 L 560.366, 207.78 L 557.803, 211.076 L 506.178, 189.291 z "/>
<path style="fill:rgb(0, 255, 0);fill-opacity:0;fill-rule:evenodd;stroke:rgb(176, 255, 0);stroke-width:1;" d="M 222.975, 507.643 L 261.785, 454.188 L 300.229, 470.481 L 273.318, 507.46 L 270.938, 510.755 L 261.419, 523.936 L 222.975, 507.643 z "/>
<path style="fill:rgb(0, 0, 255);fill-opacity:0;fill-rule:evenodd;stroke:rgb(176, 255, 0);stroke-width:1;" d="M 273.318, 507.46 L 300.229, 470.481 L 352.22, 492.265 L 325.492, 529.245 L 273.318, 507.46 z "/>
<path style="fill:rgb(255, 255, 0);fill-opacity:0;fill-rule:evenodd;stroke:rgb(176, 255, 0);stroke-width:1;" d="M 123.204, 500.686 L 155.606, 456.018 L 171.35, 462.609 L 167.323, 468.101 L 167.14, 470.297 L 177.941, 474.874 L 183.249, 474.691 L 187.277, 469.199 L 198.261, 473.959 L 203.021, 475.973 L 191.487, 491.899 L 193.684, 492.815 L 192.22, 494.828 L 170.984, 485.858 L 168.97, 488.787 L 165.675, 487.323 L 163.295, 490.618 L 168.238, 492.632 L 167.323, 493.73 L 184.714, 500.87 L 178.124, 509.84 L 181.602, 511.304 L 173.913, 521.922 L 123.204, 500.686 z "/>
<path style="fill:rgb(255, 0, 0);fill-opacity:0;fill-rule:evenodd;stroke:rgb(176, 255, 0);stroke-width:1;" d="M 671.854, 679.542 L 701.51, 638.535 L 747.826, 657.941 L 718.169, 698.947 L 671.854, 679.542 z "/>
<path style="fill:rgb(0, 255, 0);fill-opacity:0;fill-rule:evenodd;stroke:rgb(176, 255, 0);stroke-width:1;" d="M 642.38, 720.366 L 671.854, 679.542 L 718.169, 698.947 L 716.156, 701.693 L 688.513, 739.771 L 642.38, 720.366 z "/>
<path style="fill:rgb(0, 0, 255);fill-opacity:0;fill-rule:evenodd;stroke:rgb(176, 255, 0);stroke-width:1;" d="M 62.2426, 194.6 L 91.8993, 153.776 L 93.1808, 151.945 L 104.714, 156.705 L 118.444, 162.563 L 136.568, 170.069 L 135.469, 171.533 L 105.629, 212.723 L 62.2426, 194.6 z "/>
<path style="fill:rgb(255, 255, 0);fill-opacity:0;fill-rule:evenodd;stroke:rgb(176, 255, 0);stroke-width:1;" d="M 910.023, 776.934 L 911.304, 775.286 L 938.032, 738.307 L 982.151, 756.979 L 980.32, 759.725 L 957.071, 791.762 L 951.03, 800 L 948.833, 799.085 L 934.737, 793.227 L 921.373, 787.551 L 924.668, 783.158 L 910.023, 776.934 z "/>
<path style="fill:rgb(255, 0, 0);fill-opacity:0;fill-rule:evenodd;stroke:rgb(176, 255, 0);stroke-width:1;" d="M 346.728, 595.149 L 364.302, 570.984 L 368.513, 572.815 L 377.849, 560 L 420.503, 577.941 L 411.167, 591.121 L 416.11, 593.135 L 398.719, 616.934 L 346.728, 595.149 z "/>
<path style="fill:rgb(0, 255, 0);fill-opacity:0;fill-rule:evenodd;stroke:rgb(176, 255, 0);stroke-width:1;" d="M 442.471, 61.1442 L 461.51, 35.1487 L 495.927, 49.7941 L 504.165, 53.2723 L 513.318, 40.8238 L 542.243, 53.2723 L 538.032, 58.9474 L 535.835, 58.032 L 523.57, 52.7231 L 499.771, 85.3089 L 485.858, 79.4508 L 442.471, 61.1442 z "/>
<path style="fill:rgb(0, 0, 255);fill-opacity:0;fill-rule:evenodd;stroke:rgb(176, 255, 0);stroke-width:1;" d="M 551.945, 349.291 L 558.169, 340.686 L 581.419, 308.65 L 623.89, 326.59 L 606.133, 350.938 L 594.233, 367.231 L 551.945, 349.291 z "/>
<path style="fill:rgb(255, 255, 0);fill-opacity:0;fill-rule:evenodd;stroke:rgb(176, 255, 0);stroke-width:1;" d="M 398.719, 616.934 L 416.11, 593.135 L 425.812, 579.954 L 461.693, 594.966 L 462.609, 593.684 L 469.016, 596.43 L 470.481, 594.416 L 486.957, 601.373 L 482.929, 607.048 L 477.071, 604.668 L 474.691, 607.963 L 463.89, 603.57 L 441.19, 634.874 L 398.719, 616.934 z "/>
<path style="fill:rgb(255, 0, 0);fill-opacity:0;fill-rule:evenodd;stroke:rgb(176, 255, 0);stroke-width:1;" d="M 343.066, 453.272 L 364.851, 423.432 L 371.808, 413.913 L 383.707, 418.856 L 381.144, 422.334 L 398.719, 429.657 L 409.886, 434.416 L 415.011, 436.43 L 388.65, 472.494 L 343.066, 453.272 z "/>
<path style="fill:rgb(0, 255, 0);fill-opacity:0;fill-rule:evenodd;stroke:rgb(176, 255, 0);stroke-width:1;" d="M 453.089, 157.62 L 460.778, 147.002 L 474.874, 152.86 L 481.648, 143.524 L 467.551, 137.666 L 476.888, 124.851 L 535.286, 149.565 L 525.95, 162.197 L 513.501, 156.888 L 506.545, 166.224 L 519.176, 171.533 L 511.487, 182.151 L 453.089, 157.62 z "/>
<path style="fill:rgb(0, 0, 255);fill-opacity:0;fill-rule:evenodd;stroke:rgb(176, 255, 0);stroke-width:1;" d="M 758.444, 146.087 L 786.453, 107.826 L 829.474, 125.95 L 801.281, 164.394 L 758.444, 146.087 z "/>
<path style="fill:rgb(255, 255, 0);fill-opacity:0;fill-rule:evenodd;stroke:rgb(176, 255, 0);stroke-width:1;" d="M 868.101, 757.162 L 895.195, 719.817 L 938.398, 737.941 L 938.032, 738.307 L 911.304, 775.286 L 868.101, 757.162 z "/>
<path style="fill:rgb(255, 0, 0);fill-opacity:0;fill-rule:evenodd;stroke:rgb(176, 255, 0);stroke-width:1;" d="M 308.65, 659.771 L 314.325, 651.899 L 333.913, 624.805 L 379.13, 643.844 L 353.867, 678.81 L 341.602, 673.501 L 337.757, 678.81 L 317.071, 670.023 L 320.732, 664.897 L 308.65, 659.771 z M 333.913, 651.899 L 348.558, 658.307 L 353.135, 652.265 L 338.49, 645.858 L 333.913, 651.899 z "/>
<path style="fill:rgb(0, 255, 0);fill-opacity:0;fill-rule:evenodd;stroke:rgb(176, 255, 0);stroke-width:1;" d="M 452.906, 721.465 L 453.455, 720.732 L 478.902, 685.584 L 507.277, 697.483 L 492.082, 718.352 L 550.114, 742.334 L 542.792, 752.403 L 488.421, 729.703 L 484.943, 728.238 L 481.281, 733.181 L 452.906, 721.465 z "/>
<path style="fill:rgb(0, 0, 255);fill-opacity:0;fill-rule:evenodd;stroke:rgb(176, 255, 0);stroke-width:1;" d="M 275.149, 705.172 L 283.57, 693.638 L 291.442, 697.117 L 299.68, 685.584 L 291.808, 682.288 L 300.046, 671.121 L 323.112, 680.824 L 316.339, 690.16 L 328.055, 694.92 L 334.828, 685.584 L 357.895, 695.286 L 349.657, 706.636 L 342.151, 703.341 L 333.73, 714.874 L 341.419, 717.986 L 332.998, 729.519 L 310.114, 720 L 317.803, 709.382 L 314.874, 708.284 L 312.311, 709.199 L 308.65, 707.735 L 308.467, 705.538 L 305.538, 704.256 L 297.849, 714.691 L 275.149, 705.172 z "/>
<path style="fill:rgb(255, 255, 0);fill-opacity:0;fill-rule:evenodd;stroke:rgb(176, 255, 0);stroke-width:1;" d="M 78.1693, 716.522 L 94.0961, 694.737 L 110.938, 671.487 L 145.721, 686.133 L 144.989, 687.231 L 128.33, 710.297 L 112.952, 731.167 L 78.1693, 716.522 z "/>
<path style="fill:rgb(255, 0, 0);fill-opacity:0;fill-rule:evenodd;stroke:rgb(176, 255, 0);stroke-width:1;" d="M 332.998, 729.519 L 341.419, 717.986 L 348.924, 721.281 L 357.346, 709.748 L 349.657, 706.636 L 357.895, 695.286 L 380.412, 704.989 L 373.822, 713.959 L 386.087, 719.085 L 392.677, 710.114 L 415.561, 719.634 L 407.506, 730.801 L 399.634, 727.506 L 391.396, 738.856 L 399.268, 742.151 L 390.664, 753.867 L 367.78, 744.165 L 375.103, 734.096 L 362.838, 728.97 L 355.698, 739.039 L 332.998, 729.519 z "/>
<path style="fill:rgb(0, 255, 0);fill-opacity:0;fill-rule:evenodd;stroke:rgb(176, 255, 0);stroke-width:1;" d="M 390.664, 753.867 L 399.268, 742.151 L 407.323, 745.629 L 415.011, 734.828 L 411.899, 732.632 L 407.506, 730.801 L 415.561, 719.634 L 439.542, 729.886 L 436.064, 734.645 L 437.346, 736.842 L 442.654, 739.039 L 445.95, 738.856 L 449.428, 733.913 L 473.227, 743.982 L 465.355, 754.783 L 460.961, 752.952 L 456.934, 752.769 L 449.428, 763.204 L 456.934, 766.499 L 448.513, 778.215 L 425.263, 768.33 L 436.43, 753.135 L 424.897, 748.192 L 413.73, 763.57 L 390.664, 753.867 z "/>
<path style="fill:rgb(0, 0, 255);fill-opacity:0;fill-rule:evenodd;stroke:rgb(176, 255, 0);stroke-width:1;" d="M 91.7162, 781.144 L 124.485, 736.11 L 159.085, 750.572 L 156.888, 753.501 L 126.316, 795.606 L 91.7162, 781.144 z "/>
<path style="fill:rgb(255, 255, 0);fill-opacity:0;fill-rule:evenodd;stroke:rgb(176, 255, 0);stroke-width:1;" d="M 217.483, 680.824 L 224.989, 670.389 L 225.721, 669.474 L 233.593, 672.769 L 242.014, 661.236 L 234.508, 657.941 L 242.563, 646.773 L 265.446, 656.476 L 258.856, 665.629 L 270.206, 670.389 L 276.796, 661.236 L 300.046, 671.121 L 291.808, 682.288 L 283.936, 678.993 L 275.515, 690.343 L 283.57, 693.638 L 275.149, 705.172 L 252.449, 695.652 L 259.954, 685.217 L 247.689, 680.092 L 240, 690.343 L 217.483, 680.824 z "/>
<path style="fill:rgb(255, 0, 0);fill-opacity:0;fill-rule:evenodd;stroke:rgb(176, 255, 0);stroke-width:1;" d="M 103.432, 629.748 L 114.233, 614.737 L 122.105, 618.215 L 128.879, 608.879 L 142.975, 614.92 L 144.805, 612.357 L 171.533, 623.707 L 169.886, 626.27 L 184.348, 632.311 L 172.815, 648.238 L 166.773, 656.476 L 103.432, 629.748 z "/>
<path style="fill:rgb(0, 255, 0);fill-opacity:0;fill-rule:evenodd;stroke:rgb(176, 255, 0);stroke-width:1;" d="M 155.606, 456.018 L 175.011, 429.474 L 174.279, 429.291 L 180.87, 420.137 L 224.073, 438.444 L 198.261, 473.959 L 187.277, 469.199 L 171.35, 462.609 L 155.606, 456.018 z "/>
<path style="fill:rgb(0, 0, 255);fill-opacity:0;fill-rule:evenodd;stroke:rgb(176, 255, 0);stroke-width:1;" d="M 369.428, 687.414 L 377.117, 676.796 L 373.089, 675.149 L 391.945, 649.336 L 434.233, 667.094 L 422.334, 683.387 L 419.222, 687.78 L 407.689, 703.524 L 369.428, 687.414 z "/>
<path style="fill:rgb(255, 255, 0);fill-opacity:0;fill-rule:evenodd;stroke:rgb(176, 255, 0);stroke-width:1;" d="M 386.453, 138.947 L 401.098, 118.81 L 408.604, 121.922 L 434.783, 133.089 L 444.119, 136.934 L 449.245, 139.13 L 463.707, 119.359 L 476.888, 124.851 L 467.551, 137.666 L 460.778, 147.002 L 453.089, 157.62 L 447.78, 164.76 L 434.6, 159.268 L 434.783, 159.085 L 429.474, 156.888 L 429.474, 157.071 L 419.954, 153.227 L 393.776, 142.059 L 386.453, 138.947 z "/>
<path style="fill:rgb(255, 0, 0);fill-opacity:0;fill-rule:evenodd;stroke:rgb(176, 255, 0);stroke-width:1;" d="M 560.366, 207.78 L 586.911, 171.167 L 626.636, 188.009 L 599.908, 224.439 L 560.366, 207.78 z "/>
<path style="fill:rgb(0, 255, 0);fill-opacity:0;fill-rule:evenodd;stroke:rgb(176, 255, 0);stroke-width:1;" d="M 134.92, 224.989 L 160.732, 189.474 L 161.831, 189.84 L 164.211, 186.728 L 172.998, 190.389 L 170.618, 193.684 L 200.458, 206.133 L 188.741, 222.059 L 181.236, 232.494 L 174.645, 241.648 L 134.92, 224.989 z "/>
<path style="fill:rgb(0, 0, 255);fill-opacity:0;fill-rule:evenodd;stroke:rgb(176, 255, 0);stroke-width:1;" d="M 582.334, 273.867 L 608.879, 237.254 L 648.055, 253.73 L 621.327, 290.16 L 582.334, 273.867 z "/>
<path style="fill:rgb(255, 255, 0);fill-opacity:0;fill-rule:evenodd;stroke:rgb(176, 255, 0);stroke-width:1;" d="M 985.812, 724.577 L 1006.5, 696.384 L 999.908, 693.455 L 1004.85, 686.682 L 1011.62, 689.428 L 1016.93, 682.105 L 1025.35, 670.755 L 1032.13, 673.501 L 1024.44, 684.119 L 1047.51, 693.822 L 1039.45, 704.805 L 1015.65, 737.208 L 985.812, 724.577 z "/>
<path style="fill:rgb(255, 0, 0);fill-opacity:0;fill-rule:evenodd;stroke:rgb(176, 255, 0);stroke-width:1;" d="M 258.307, 417.574 L 272.769, 397.803 L 285.95, 379.68 L 303.89, 387.185 L 298.947, 393.959 L 321.281, 403.295 L 298.581, 434.416 L 258.307, 417.574 z "/>
<path style="fill:rgb(0, 255, 0);fill-opacity:0;fill-rule:evenodd;stroke:rgb(176, 255, 0);stroke-width:1;" d="M 642.563, 97.0252 L 669.84, 60.0458 L 670.755, 58.5812 L 706.087, 73.7757 L 678.078, 112.037 L 664.348, 106.178 L 642.563, 97.0252 z "/>
<path style="fill:rgb(0, 0, 255);fill-opacity:0;fill-rule:evenodd;stroke:rgb(176, 255, 0);stroke-width:1;" d="M 164.943, 658.856 L 166.773, 656.476 L 172.815, 648.238 L 177.574, 650.252 L 194.783, 626.636 L 211.625, 633.776 L 201.373, 648.055 L 209.977, 651.716 L 220.412, 637.437 L 238.169, 644.943 L 220.778, 668.741 L 224.989, 670.389 L 217.483, 680.824 L 195.698, 671.67 L 203.204, 661.419 L 194.416, 657.757 L 186.911, 668.009 L 164.943, 658.856 z "/>
<path style="fill:rgb(255, 255, 0);fill-opacity:0;fill-rule:evenodd;stroke:rgb(176, 255, 0);stroke-width:1;" d="M 545.172, 258.124 L 571.716, 221.51 L 608.879, 237.254 L 582.334, 273.867 L 545.172, 258.124 z "/>
<path style="fill:rgb(255, 0, 0);fill-opacity:0;fill-rule:evenodd;stroke:rgb(176, 255, 0);stroke-width:1;" d="M 582.7, 71.2128 L 610.526, 33.135 L 646.224, 48.3295 L 645.309, 49.611 L 618.398, 86.2243 L 582.7, 71.2128 z "/>
<path style="fill:rgb(0, 255, 0);fill-opacity:0;fill-rule:evenodd;stroke:rgb(176, 255, 0);stroke-width:1;" d="M 271.121, 563.295 L 298.398, 525.95 L 331.35, 539.863 L 322.014, 552.86 L 326.957, 554.874 L 309.199, 579.405 L 271.121, 563.295 z "/>
<path style="fill:rgb(0, 0, 255);fill-opacity:0;fill-rule:evenodd;stroke:rgb(176, 255, 0);stroke-width:1;" d="M 706.636, 178.673 L 724.211, 154.325 L 777.666, 176.842 L 759.908, 201.373 L 731.533, 189.474 L 728.055, 194.233 L 718.169, 190.023 L 721.648, 185.08 L 706.636, 178.673 z "/>
<path style="fill:rgb(255, 255, 0);fill-opacity:0;fill-rule:evenodd;stroke:rgb(176, 255, 0);stroke-width:1;" d="M 309.199, 579.405 L 326.957, 554.874 L 336.476, 541.876 L 368.696, 555.606 L 359.176, 568.787 L 364.302, 570.984 L 346.728, 595.149 L 309.199, 579.405 z "/>
<path style="fill:rgb(255, 0, 0);fill-opacity:0;fill-rule:evenodd;stroke:rgb(176, 255, 0);stroke-width:1;" d="M 198.261, 759.542 L 208.146, 745.995 L 224.073, 752.769 L 227.002, 748.924 L 225.721, 748.192 L 226.819, 746.728 L 231.396, 748.558 L 233.959, 744.897 L 230.481, 743.432 L 232.311, 741.053 L 216.384, 734.279 L 217.483, 732.815 L 226.636, 720.183 L 270.023, 738.49 L 266.911, 742.883 L 261.053, 750.938 L 250.984, 746.545 L 248.055, 746.545 L 238.719, 759.542 L 250.984, 764.668 L 244.76, 773.272 L 241.465, 777.666 L 198.261, 759.542 z "/>
<path style="fill:rgb(0, 255, 0);fill-opacity:0;fill-rule:evenodd;stroke:rgb(176, 255, 0);stroke-width:1;" d="M 85.6751, 550.297 L 102.334, 527.414 L 160.183, 551.762 L 143.341, 574.645 L 109.108, 560.183 L 85.6751, 550.297 z "/>
<path style="fill:rgb(0, 0, 255);fill-opacity:0;fill-rule:evenodd;stroke:rgb(176, 255, 0);stroke-width:1;" d="M 310.481, 386.453 L 339.222, 346.911 L 372.723, 361.007 L 347.277, 395.789 L 343.982, 400.366 L 310.481, 386.453 z "/>
<path style="fill:rgb(255, 255, 0);fill-opacity:0;fill-rule:evenodd;stroke:rgb(176, 255, 0);stroke-width:1;" d="M 725.858, 132.357 L 754.05, 93.913 L 786.453, 107.826 L 758.444, 146.087 L 725.858, 132.357 z "/>
<path style="fill:rgb(255, 0, 0);fill-opacity:0;fill-rule:evenodd;stroke:rgb(176, 255, 0);stroke-width:1;" d="M 532.174, 112.403 L 563.478, 69.7483 L 566.59, 71.0297 L 579.039, 76.3387 L 592.586, 82.0137 L 578.307, 101.602 L 561.281, 124.668 L 532.174, 112.403 z "/>
<path style="fill:rgb(0, 255, 0);fill-opacity:0;fill-rule:evenodd;stroke:rgb(176, 255, 0);stroke-width:1;" d="M 883.844, 399.634 L 899.588, 378.032 L 928.696, 390.297 L 931.076, 386.819 L 933.089, 384.256 L 950.847, 391.762 L 944.805, 400 L 959.268, 406.041 L 956.888, 409.336 L 949.382, 419.588 L 937.3, 414.462 L 932.723, 420.686 L 912.403, 412.082 L 916.979, 405.858 L 895.744, 396.888 L 891.35, 402.746 L 883.844, 399.634 z "/>
<path style="fill:rgb(0, 0, 255);fill-opacity:0;fill-rule:evenodd;stroke:rgb(176, 255, 0);stroke-width:1;" d="M 105.629, 212.723 L 135.469, 171.533 L 164.76, 183.799 L 160.732, 189.474 L 134.92, 224.989 L 105.629, 212.723 z "/>
<path style="fill:rgb(255, 255, 0);fill-opacity:0;fill-rule:evenodd;stroke:rgb(176, 255, 0);stroke-width:1;" d="M 962.746, 280.641 L 978.856, 258.49 L 1033.23, 281.373 L 1017.3, 303.341 L 962.746, 280.641 z "/>
<path style="fill:rgb(255, 0, 0);fill-opacity:0;fill-rule:evenodd;stroke:rgb(176, 255, 0);stroke-width:1;" d="M 791.945, 782.975 L 850.16, 702.609 L 864.989, 708.833 L 835.698, 749.474 L 806.957, 789.199 L 791.945, 782.975 z "/>
<path style="fill:rgb(0, 255, 0);fill-opacity:0;fill-rule:evenodd;stroke:rgb(176, 255, 0);stroke-width:1;" d="M 504.531, 100.686 L 535.835, 58.032 L 538.032, 58.9474 L 563.478, 69.7483 L 532.174, 112.403 L 504.531, 100.686 z "/>
<path style="fill:rgb(0, 0, 255);fill-opacity:0;fill-rule:evenodd;stroke:rgb(176, 255, 0);stroke-width:1;" d="M 798.719, 77.6201 L 820.87, 47.5973 L 858.581, 63.524 L 836.613, 93.73 L 798.719, 77.6201 z "/>
<path style="fill:rgb(255, 255, 0);fill-opacity:0;fill-rule:evenodd;stroke:rgb(176, 255, 0);stroke-width:1;" d="M 419.588, 291.625 L 423.799, 285.767 L 447.963, 252.632 L 475.973, 264.348 L 447.597, 303.341 L 419.588, 291.625 z "/>
<path style="fill:rgb(255, 0, 0);fill-opacity:0;fill-rule:evenodd;stroke:rgb(176, 255, 0);stroke-width:1;" d="M 473.776, 749.657 L 476.888, 745.446 L 488.421, 729.703 L 542.792, 752.403 L 528.33, 772.357 L 485.309, 754.416 L 473.776, 749.657 z "/>
<path style="fill:rgb(0, 255, 0);fill-opacity:0;fill-rule:evenodd;stroke:rgb(176, 255, 0);stroke-width:1;" d="M 262.883, 644.027 L 290.16, 606.499 L 319.085, 618.581 L 299.314, 645.492 L 291.625, 656.11 L 262.883, 644.027 z "/>
<path style="fill:rgb(0, 0, 255);fill-opacity:0;fill-rule:evenodd;stroke:rgb(176, 255, 0);stroke-width:1;" d="M 756.613, 206.499 L 787.735, 164.211 L 798.169, 168.604 L 798.902, 167.689 L 813.364, 174.096 L 781.876, 217.117 L 756.613, 206.499 z "/>
<path style="fill:rgb(255, 255, 0);fill-opacity:0;fill-rule:evenodd;stroke:rgb(176, 255, 0);stroke-width:1;" d="M 1032.49, 546.453 L 1059.59, 509.84 L 1088.51, 522.288 L 1061.97, 558.169 L 1061.42, 558.902 L 1032.49, 546.453 z "/>
<path style="fill:rgb(255, 0, 0);fill-opacity:0;fill-rule:evenodd;stroke:rgb(176, 255, 0);stroke-width:1;" d="M 989.84, 669.108 L 1019.13, 631.396 L 1045.86, 642.746 L 1025.35, 670.755 L 1016.93, 682.105 L 989.84, 669.108 z "/>
<path style="fill:rgb(0, 255, 0);fill-opacity:0;fill-rule:evenodd;stroke:rgb(176, 255, 0);stroke-width:1;" d="M 1003.94, 534.371 L 1004.49, 533.455 L 1030.85, 497.757 L 1059.59, 509.84 L 1032.49, 546.453 L 1003.94, 534.371 z "/>
<path style="fill:rgb(0, 0, 255);fill-opacity:0;fill-rule:evenodd;stroke:rgb(176, 255, 0);stroke-width:1;" d="M 1038.72, 409.153 L 1065.45, 372.357 L 1094, 384.256 L 1068.01, 420.137 L 1067.28, 421.053 L 1038.72, 409.153 z "/>
<path style="fill:rgb(255, 255, 0);fill-opacity:0;fill-rule:evenodd;stroke:rgb(176, 255, 0);stroke-width:1;" d="M 635.423, 296.201 L 664.165, 256.476 L 690.709, 267.826 L 689.794, 269.108 L 661.968, 307.368 L 635.423, 296.201 z "/>
<path style="fill:rgb(255, 0, 0);fill-opacity:0;fill-rule:evenodd;stroke:rgb(176, 255, 0);stroke-width:1;" d="M 614.92, 90.984 L 618.398, 86.2243 L 645.309, 49.611 L 669.84, 60.0458 L 642.563, 97.0252 L 639.451, 101.419 L 614.92, 90.984 z "/>
<path style="fill:rgb(0, 255, 0);fill-opacity:0;fill-rule:evenodd;stroke:rgb(176, 255, 0);stroke-width:1;" d="M 1023.16, 319.451 L 1050.98, 281.19 L 1077.53, 292.357 L 1049.7, 330.618 L 1023.16, 319.451 z "/>
<path style="fill:rgb(0, 0, 255);fill-opacity:0;fill-rule:evenodd;stroke:rgb(176, 255, 0);stroke-width:1;" d="M 244.027, 780.229 L 248.055, 774.737 L 244.76, 773.272 L 250.984, 764.668 L 255.927, 757.895 L 259.771, 759.542 L 270.755, 744.531 L 266.911, 742.883 L 270.023, 738.49 L 298.947, 750.572 L 295.652, 755.149 L 291.625, 753.318 L 280.641, 768.33 L 284.668, 769.977 L 273.501, 785.355 L 270.023, 783.89 L 265.995, 789.565 L 244.027, 780.229 z "/>
<path style="fill:rgb(255, 255, 0);fill-opacity:0;fill-rule:evenodd;stroke:rgb(176, 255, 0);stroke-width:1;" d="M 527.048, 329.336 L 536.384, 316.522 L 540.778, 310.664 L 544.256, 306.087 L 551.762, 296.201 L 581.419, 308.65 L 558.169, 340.686 L 547.185, 335.927 L 546.087, 337.391 L 527.048, 329.336 z "/>
<path style="fill:rgb(255, 0, 0);fill-opacity:0;fill-rule:evenodd;stroke:rgb(176, 255, 0);stroke-width:1;" d="M 458.581, 585.995 L 467.918, 573.181 L 463.89, 571.533 L 481.831, 546.819 L 509.474, 558.352 L 482.197, 595.881 L 458.581, 585.995 z "/>
<path style="fill:rgb(0, 255, 0);fill-opacity:0;fill-rule:evenodd;stroke:rgb(176, 255, 0);stroke-width:1;" d="M 389.382, 560.732 L 418.673, 520.275 L 443.021, 530.526 L 413.73, 570.801 L 389.382, 560.732 z "/>
<path style="fill:rgb(0, 0, 255);fill-opacity:0;fill-rule:evenodd;stroke:rgb(176, 255, 0);stroke-width:1;" d="M 364.851, 322.014 L 391.762, 285.034 L 418.307, 296.201 L 416.842, 298.398 L 391.579, 333.181 L 364.851, 322.014 z "/>
<path style="fill:rgb(255, 255, 0);fill-opacity:0;fill-rule:evenodd;stroke:rgb(176, 255, 0);stroke-width:1;" d="M 504.897, 241.281 L 528.879, 208.33 L 532.174, 203.936 L 558.169, 214.737 L 557.437, 215.652 L 530.892, 252.082 L 504.897, 241.281 z "/>
<path style="fill:rgb(255, 0, 0);fill-opacity:0;fill-rule:evenodd;stroke:rgb(176, 255, 0);stroke-width:1;" d="M 678.078, 112.037 L 706.087, 73.7757 L 731.167, 84.2105 L 702.975, 122.654 L 678.078, 112.037 z "/>
<path style="fill:rgb(0, 255, 0);fill-opacity:0;fill-rule:evenodd;stroke:rgb(176, 255, 0);stroke-width:1;" d="M 401.098, 118.81 L 415.378, 99.0389 L 463.707, 119.359 L 449.245, 139.13 L 444.119, 136.934 L 434.783, 133.089 L 408.604, 121.922 L 401.098, 118.81 z "/>
<path style="fill:rgb(0, 0, 255);fill-opacity:0;fill-rule:evenodd;stroke:rgb(176, 255, 0);stroke-width:1;" d="M 599.908, 224.439 L 626.636, 188.009 L 652.632, 198.993 L 626.087, 235.423 L 599.908, 224.439 z "/>
<path style="fill:rgb(255, 255, 0);fill-opacity:0;fill-rule:evenodd;stroke:rgb(176, 255, 0);stroke-width:1;" d="M 391.579, 333.181 L 416.842, 298.398 L 443.753, 309.748 L 418.49, 344.531 L 391.579, 333.181 z "/>
<path style="fill:rgb(255, 0, 0);fill-opacity:0;fill-rule:evenodd;stroke:rgb(176, 255, 0);stroke-width:1;" d="M 836.613, 93.73 L 858.581, 63.524 L 866.27, 53.0892 L 888.97, 62.6087 L 859.314, 103.249 L 836.613, 93.73 z "/>
<path style="fill:rgb(0, 255, 0);fill-opacity:0;fill-rule:evenodd;stroke:rgb(176, 255, 0);stroke-width:1;" d="M 775.469, 67.9176 L 797.071, 38.2609 L 803.844, 28.9245 L 827.094, 38.8101 L 820.87, 47.5973 L 798.719, 77.6201 L 775.469, 67.9176 z "/>
<path style="fill:rgb(0, 0, 255);fill-opacity:0;fill-rule:evenodd;stroke:rgb(176, 255, 0);stroke-width:1;" d="M 485.309, 320.366 L 514.416, 280.458 L 536.568, 289.794 L 529.062, 300.046 L 507.46, 329.703 L 492.632, 323.478 L 485.309, 320.366 z "/>
<path style="fill:rgb(255, 255, 0);fill-opacity:0;fill-rule:evenodd;stroke:rgb(176, 255, 0);stroke-width:1;" d="M 219.497, 68.6499 L 226.27, 59.1304 L 230.481, 60.9611 L 245.858, 39.7254 L 241.465, 37.8947 L 248.238, 28.7414 L 275.149, 39.9085 L 274.05, 41.5561 L 268.375, 49.2449 L 264.165, 47.4142 L 259.405, 54.0046 L 248.787, 68.6499 L 253.181, 70.2975 L 250.252, 74.508 L 246.407, 79.8169 L 219.497, 68.6499 z "/>
<path style="fill:rgb(255, 0, 0);fill-opacity:0;fill-rule:evenodd;stroke:rgb(176, 255, 0);stroke-width:1;" d="M 192.037, 223.524 L 206.682, 203.021 L 215.103, 206.499 L 250.252, 221.327 L 235.423, 241.648 L 192.037, 223.524 z "/>
<path style="fill:rgb(0, 255, 0);fill-opacity:0;fill-rule:evenodd;stroke:rgb(176, 255, 0);stroke-width:1;" d="M 702.975, 122.654 L 731.167, 84.2105 L 754.05, 93.913 L 725.858, 132.357 L 721.831, 130.709 L 702.975, 122.654 z "/>
<path style="fill:rgb(0, 0, 255);fill-opacity:0;fill-rule:evenodd;stroke:rgb(176, 255, 0);stroke-width:1;" d="M 347.277, 395.789 L 372.723, 361.007 L 397.986, 371.625 L 372.54, 406.407 L 347.277, 395.789 z "/>
<path style="fill:rgb(255, 255, 0);fill-opacity:0;fill-rule:evenodd;stroke:rgb(176, 255, 0);stroke-width:1;" d="M 225.172, 627.002 L 251.899, 590.389 L 275.881, 600.458 L 249.153, 637.071 L 225.172, 627.002 z "/>
<path style="fill:rgb(255, 0, 0);fill-opacity:0;fill-rule:evenodd;stroke:rgb(176, 255, 0);stroke-width:1;" d="M 250.252, 74.508 L 253.181, 70.2975 L 268.375, 49.2449 L 274.05, 41.5561 L 301.51, 52.9062 L 292.54, 65.3547 L 280.824, 81.4645 L 268.741, 76.3387 L 265.446, 80.9153 L 250.252, 74.508 z "/>
<path style="fill:rgb(0, 255, 0);fill-opacity:0;fill-rule:evenodd;stroke:rgb(176, 255, 0);stroke-width:1;" d="M 298.581, 434.416 L 321.281, 403.295 L 325.309, 397.803 L 348.192, 407.323 L 321.465, 444.119 L 298.581, 434.416 z "/>
<path style="fill:rgb(0, 0, 255);fill-opacity:0;fill-rule:evenodd;stroke:rgb(176, 255, 0);stroke-width:1;" d="M 500.32, 378.947 L 526.865, 342.7 L 549.748, 352.22 L 523.204, 388.65 L 500.32, 378.947 z "/>
<path style="fill:rgb(255, 255, 0);fill-opacity:0;fill-rule:evenodd;stroke:rgb(176, 255, 0);stroke-width:1;" d="M 922.838, 334.828 L 935.286, 317.62 L 978.49, 335.744 L 965.858, 352.952 L 922.838, 334.828 z "/>
<path style="fill:rgb(255, 0, 0);fill-opacity:0;fill-rule:evenodd;stroke:rgb(176, 255, 0);stroke-width:1;" d="M 1002.29, 226.087 L 1018.03, 204.302 L 1052.08, 218.581 L 1036.34, 240.366 L 1002.29, 226.087 z "/>
<path style="fill:rgb(0, 255, 0);fill-opacity:0;fill-rule:evenodd;stroke:rgb(176, 255, 0);stroke-width:1;" d="M 177.757, 752.22 L 197.895, 724.577 L 195.698, 723.661 L 204.851, 711.03 L 226.636, 720.183 L 217.483, 732.815 L 214.737, 731.533 L 194.416, 759.359 L 177.757, 752.22 z "/>
<path style="fill:rgb(0, 0, 255);fill-opacity:0;fill-rule:evenodd;stroke:rgb(176, 255, 0);stroke-width:1;" d="M 156.522, 743.249 L 176.476, 715.789 L 173.913, 714.691 L 182.334, 702.975 L 183.066, 701.876 L 204.851, 711.03 L 195.698, 723.661 L 193.318, 722.563 L 173.181, 750.389 L 156.522, 743.249 z "/>
<path style="fill:rgb(255, 255, 0);fill-opacity:0;fill-rule:evenodd;stroke:rgb(176, 255, 0);stroke-width:1;" d="M 381.144, 422.334 L 383.707, 418.856 L 388.101, 412.815 L 413.364, 378.032 L 429.108, 384.805 L 405.309, 417.391 L 407.14, 418.124 L 398.719, 429.657 L 381.144, 422.334 z "/>
<path style="fill:rgb(255, 0, 0);fill-opacity:0;fill-rule:evenodd;stroke:rgb(176, 255, 0);stroke-width:1;" d="M 541.876, 678.993 L 554.325, 661.968 L 595.881, 679.542 L 583.616, 696.568 L 541.876, 678.993 z "/>
<path style="fill:rgb(0, 255, 0);fill-opacity:0;fill-rule:evenodd;stroke:rgb(176, 255, 0);stroke-width:1;" d="M 554.325, 661.968 L 564.76, 647.689 L 565.858, 645.858 L 607.597, 663.432 L 595.881, 679.542 L 554.325, 661.968 z "/>
<path style="fill:rgb(0, 0, 255);fill-opacity:0;fill-rule:evenodd;stroke:rgb(176, 255, 0);stroke-width:1;" d="M 302.426, 90.984 L 316.888, 71.3959 L 348.924, 85.1259 L 334.462, 104.714 L 302.426, 90.984 z "/>
<path style="fill:rgb(255, 255, 0);fill-opacity:0;fill-rule:evenodd;stroke:rgb(176, 255, 0);stroke-width:1;" d="M 429.474, 156.888 L 444.119, 136.934 L 449.245, 139.13 L 463.707, 119.359 L 476.888, 124.851 L 467.551, 137.666 L 460.778, 147.002 L 453.089, 157.62 L 447.78, 164.76 L 434.6, 159.268 L 434.783, 159.085 L 429.474, 156.888 z "/>
<path style="fill:rgb(255, 0, 0);fill-opacity:0;fill-rule:evenodd;stroke:rgb(176, 255, 0);stroke-width:1;" d="M 403.112, 276.979 L 426.178, 245.492 L 440.458, 251.533 L 443.753, 250.801 L 447.963, 252.632 L 423.799, 285.767 L 416.842, 282.838 L 421.053, 277.162 L 413.913, 274.233 L 409.886, 279.725 L 403.112, 276.979 z "/>
<path style="fill:rgb(0, 255, 0);fill-opacity:0;fill-rule:evenodd;stroke:rgb(176, 255, 0);stroke-width:1;" d="M 835.698, 749.474 L 864.989, 708.833 L 865.904, 707.551 L 880.732, 713.776 L 880.366, 714.325 L 850.526, 755.698 L 835.698, 749.474 z "/>
<path style="fill:rgb(0, 0, 255);fill-opacity:0;fill-rule:evenodd;stroke:rgb(176, 255, 0);stroke-width:1;" d="M 798.902, 167.689 L 801.281, 164.394 L 829.474, 125.95 L 844.119, 132.174 L 813.364, 174.096 L 798.902, 167.689 z "/>
<path style="fill:rgb(255, 255, 0);fill-opacity:0;fill-rule:evenodd;stroke:rgb(176, 255, 0);stroke-width:1;" d="M 946.819, 379.314 L 953.41, 370.343 L 959.268, 362.105 L 965.858, 352.952 L 978.49, 335.744 L 992.037, 341.419 L 962.929, 381.51 L 960.366, 384.989 L 946.819, 379.314 z "/>
<path style="fill:rgb(255, 0, 0);fill-opacity:0;fill-rule:evenodd;stroke:rgb(176, 255, 0);stroke-width:1;" d="M 511.304, 666.178 L 540.229, 626.453 L 540.961, 625.355 L 551.945, 629.931 L 555.423, 631.396 L 548.65, 640.732 L 525.767, 672.22 L 511.304, 666.178 z "/>
<path style="fill:rgb(0, 255, 0);fill-opacity:0;fill-rule:evenodd;stroke:rgb(176, 255, 0);stroke-width:1;" d="M 300.961, 782.243 L 307.368, 773.272 L 302.792, 771.259 L 313.227, 756.796 L 338.124, 767.231 L 332.265, 775.286 L 336.293, 776.934 L 331.35, 783.89 L 327.323, 782.059 L 321.098, 790.664 L 311.579, 786.636 L 306.819, 787.918 L 302.243, 785.904 L 301.327, 783.707 L 300.961, 782.243 z "/>
<path style="fill:rgb(0, 0, 255);fill-opacity:0;fill-rule:evenodd;stroke:rgb(176, 255, 0);stroke-width:1;" d="M 208.33, 623.707 L 237.254, 584.165 L 251.899, 590.389 L 225.172, 627.002 L 223.158, 629.931 L 208.33, 623.707 z "/>
<path style="fill:rgb(255, 255, 0);fill-opacity:0;fill-rule:evenodd;stroke:rgb(176, 255, 0);stroke-width:1;" d="M 1009.61, 313.959 L 1017.3, 303.341 L 1033.23, 281.373 L 1040.92, 270.755 L 1054.46, 276.43 L 1050.98, 281.19 L 1023.16, 319.451 L 1009.61, 313.959 z "/>
<path style="fill:rgb(255, 0, 0);fill-opacity:0;fill-rule:evenodd;stroke:rgb(176, 255, 0);stroke-width:1;" d="M 496.659, 659.954 L 497.757, 658.673 L 523.204, 623.707 L 525.584, 620.412 L 540.229, 626.453 L 511.304, 666.178 L 496.659, 659.954 z "/>
<path style="fill:rgb(0, 255, 0);fill-opacity:0;fill-rule:evenodd;stroke:rgb(176, 255, 0);stroke-width:1;" d="M 978.856, 258.49 L 986.362, 247.872 L 1031.03, 266.545 L 1040.92, 270.755 L 1033.23, 281.373 L 978.856, 258.49 z "/>
<path style="fill:rgb(0, 0, 255);fill-opacity:0;fill-rule:evenodd;stroke:rgb(176, 255, 0);stroke-width:1;" d="M 246.773, 640.366 L 249.153, 637.071 L 275.881, 600.458 L 290.16, 606.499 L 262.883, 644.027 L 261.053, 646.407 L 246.773, 640.366 z "/>
<path style="fill:rgb(255, 255, 0);fill-opacity:0;fill-rule:evenodd;stroke:rgb(176, 255, 0);stroke-width:1;" d="M 955.24, 291.076 L 962.746, 280.641 L 1017.3, 303.341 L 1009.61, 313.959 L 955.24, 291.076 z "/>
<path style="fill:rgb(255, 0, 0);fill-opacity:0;fill-rule:evenodd;stroke:rgb(176, 255, 0);stroke-width:1;" d="M 166.224, 606.133 L 195.149, 566.407 L 209.245, 572.449 L 180.503, 611.991 L 166.224, 606.133 z "/>
<path style="fill:rgb(0, 255, 0);fill-opacity:0;fill-rule:evenodd;stroke:rgb(176, 255, 0);stroke-width:1;" d="M 120.641, 605.95 L 143.341, 574.645 L 160.183, 551.762 L 171.716, 556.522 L 142.792, 596.247 L 138.215, 594.233 L 127.597, 608.879 L 120.641, 605.95 z "/>
<path style="fill:rgb(0, 0, 255);fill-opacity:0;fill-rule:evenodd;stroke:rgb(176, 255, 0);stroke-width:1;" d="M 89.8856, 150.481 L 101.236, 134.92 L 107.46, 126.133 L 109.657, 123.204 L 116.979, 113.135 L 131.808, 119.359 L 104.714, 156.705 L 93.1808, 151.945 L 89.8856, 150.481 z "/>
<path style="fill:rgb(255, 255, 0);fill-opacity:0;fill-rule:evenodd;stroke:rgb(176, 255, 0);stroke-width:1;" d="M 393.776, 142.059 L 408.604, 121.922 L 434.783, 133.089 L 430.389, 138.947 L 433.501, 140.412 L 427.643, 148.467 L 424.348, 147.185 L 419.954, 153.227 L 393.776, 142.059 z "/>
<path style="fill:rgb(255, 0, 0);fill-opacity:0;fill-rule:evenodd;stroke:rgb(176, 255, 0);stroke-width:1;" d="M 180.503, 611.991 L 209.245, 572.449 L 223.341, 578.307 L 194.416, 617.849 L 180.503, 611.991 z "/>
<path style="fill:rgb(0, 255, 0);fill-opacity:0;fill-rule:evenodd;stroke:rgb(176, 255, 0);stroke-width:1;" d="M 621.327, 290.16 L 648.055, 253.73 L 650.252, 250.618 L 664.165, 256.476 L 635.423, 296.201 L 621.327, 290.16 z "/>
<path style="fill:rgb(0, 0, 255);fill-opacity:0;fill-rule:evenodd;stroke:rgb(176, 255, 0);stroke-width:1;" d="M 194.416, 617.849 L 223.341, 578.307 L 237.254, 584.165 L 208.33, 623.707 L 194.416, 617.849 z "/>
<path style="fill:rgb(255, 255, 0);fill-opacity:0;fill-rule:evenodd;stroke:rgb(176, 255, 0);stroke-width:1;" d="M 349.108, 543.707 L 378.581, 503.249 L 392.128, 509.108 L 362.654, 549.382 L 349.108, 543.707 z "/>
<path style="fill:rgb(255, 0, 0);fill-opacity:0;fill-rule:evenodd;stroke:rgb(176, 255, 0);stroke-width:1;" d="M 886.59, 542.243 L 908.741, 512.22 L 916.43, 515.698 L 923.753, 505.812 L 931.442, 509.108 L 930.16, 511.121 L 902.334, 548.833 L 886.59, 542.243 z "/>
<path style="fill:rgb(0, 255, 0);fill-opacity:0;fill-rule:evenodd;stroke:rgb(176, 255, 0);stroke-width:1;" d="M 375.835, 555.057 L 405.126, 514.6 L 418.673, 520.275 L 389.382, 560.732 L 375.835, 555.057 z "/>
<path style="fill:rgb(0, 0, 255);fill-opacity:0;fill-rule:evenodd;stroke:rgb(176, 255, 0);stroke-width:1;" d="M 566.59, 71.0297 L 576.476, 57.4828 L 598.078, 27.8261 L 610.526, 33.135 L 582.7, 71.2128 L 579.039, 76.3387 L 566.59, 71.0297 z "/>
<path style="fill:rgb(255, 255, 0);fill-opacity:0;fill-rule:evenodd;stroke:rgb(176, 255, 0);stroke-width:1;" d="M 372.54, 406.407 L 397.986, 371.625 L 413.364, 378.032 L 388.101, 412.815 L 372.54, 406.407 z "/>
<path style="fill:rgb(255, 0, 0);fill-opacity:0;fill-rule:evenodd;stroke:rgb(176, 255, 0);stroke-width:1;" d="M 322.929, 532.723 L 325.492, 529.245 L 352.22, 492.265 L 365.584, 497.941 L 336.11, 538.215 L 322.929, 532.723 z "/>
<path style="fill:rgb(0, 255, 0);fill-opacity:0;fill-rule:evenodd;stroke:rgb(176, 255, 0);stroke-width:1;" d="M 362.654, 549.382 L 392.128, 509.108 L 405.126, 514.6 L 375.835, 555.057 L 362.654, 549.382 z "/>
<path style="fill:rgb(0, 0, 255);fill-opacity:0;fill-rule:evenodd;stroke:rgb(176, 255, 0);stroke-width:1;" d="M 492.265, 95.5606 L 499.771, 85.3089 L 523.57, 52.7231 L 535.835, 58.032 L 504.531, 100.686 L 492.265, 95.5606 z "/>
<path style="fill:rgb(255, 255, 0);fill-opacity:0;fill-rule:evenodd;stroke:rgb(176, 255, 0);stroke-width:1;" d="M 425.812, 575.927 L 455.103, 535.469 L 468.284, 541.144 L 442.288, 576.659 L 438.81, 581.419 L 425.812, 575.927 z "/>
<path style="fill:rgb(255, 0, 0);fill-opacity:0;fill-rule:evenodd;stroke:rgb(176, 255, 0);stroke-width:1;" d="M 1015.1, 596.43 L 1041.28, 561.098 L 1056.11, 567.323 L 1029.93, 602.654 L 1015.1, 596.43 z "/>
<path style="fill:rgb(0, 255, 0);fill-opacity:0;fill-rule:evenodd;stroke:rgb(176, 255, 0);stroke-width:1;" d="M 336.11, 538.215 L 365.584, 497.941 L 378.581, 503.249 L 349.108, 543.707 L 336.11, 538.215 z "/>
<path style="fill:rgb(0, 0, 255);fill-opacity:0;fill-rule:evenodd;stroke:rgb(176, 255, 0);stroke-width:1;" d="M 1000.46, 590.206 L 1026.45, 554.874 L 1041.28, 561.098 L 1015.1, 596.43 L 1000.46, 590.206 z "/>
<path style="fill:rgb(255, 255, 0);fill-opacity:0;fill-rule:evenodd;stroke:rgb(176, 255, 0);stroke-width:1;" d="M 530.892, 252.082 L 557.437, 215.652 L 571.716, 221.51 L 545.172, 258.124 L 530.892, 252.082 z "/>
<path style="fill:rgb(255, 0, 0);fill-opacity:0;fill-rule:evenodd;stroke:rgb(176, 255, 0);stroke-width:1;" d="M 398.719, 429.657 L 407.14, 418.124 L 405.309, 417.391 L 429.108, 384.805 L 441.007, 389.748 L 427.46, 408.238 L 417.208, 422.334 L 418.307, 422.883 L 409.886, 434.416 L 398.719, 429.657 z "/>
<path style="fill:rgb(0, 255, 0);fill-opacity:0;fill-rule:evenodd;stroke:rgb(176, 255, 0);stroke-width:1;" d="M 104.714, 156.705 L 131.808, 119.359 L 145.538, 125.217 L 128.513, 148.467 L 118.444, 162.563 L 104.714, 156.705 z "/>
<path style="fill:rgb(0, 0, 255);fill-opacity:0;fill-rule:evenodd;stroke:rgb(176, 255, 0);stroke-width:1;" d="M 440.275, 715.057 L 446.865, 706.087 L 445.767, 703.707 L 463.524, 679.359 L 478.902, 685.584 L 453.455, 720.732 L 440.275, 715.057 z "/>
<path style="fill:rgb(255, 255, 0);fill-opacity:0;fill-rule:evenodd;stroke:rgb(176, 255, 0);stroke-width:1;" d="M 350.206, 683.753 L 353.867, 678.81 L 379.13, 643.844 L 391.945, 649.336 L 373.089, 675.149 L 362.838, 689.245 L 350.206, 683.753 z "/>
<path style="fill:rgb(255, 0, 0);fill-opacity:0;fill-rule:evenodd;stroke:rgb(176, 255, 0);stroke-width:1;" d="M 915.149, 554.325 L 942.975, 516.613 L 956.339, 522.288 L 950.481, 530.343 L 928.513, 560.183 L 915.149, 554.325 z "/>
<path style="fill:rgb(0, 255, 0);fill-opacity:0;fill-rule:evenodd;stroke:rgb(176, 255, 0);stroke-width:1;" d="M 525.767, 672.22 L 548.65, 640.732 L 564.76, 647.689 L 554.325, 661.968 L 541.876, 678.993 L 525.767, 672.22 z "/>
<path style="fill:rgb(0, 0, 255);fill-opacity:0;fill-rule:evenodd;stroke:rgb(176, 255, 0);stroke-width:1;" d="M 275.698, 92.6316 L 282.654, 82.9291 L 302.426, 90.984 L 334.462, 104.714 L 327.689, 114.416 L 303.158, 104.165 L 275.698, 92.6316 z "/>
<path style="fill:rgb(255, 255, 0);fill-opacity:0;fill-rule:evenodd;stroke:rgb(176, 255, 0);stroke-width:1;" d="M 687.048, 178.124 L 714.508, 140.595 L 728.055, 146.087 L 700.412, 183.616 L 687.048, 178.124 z "/>
<path style="fill:rgb(255, 0, 0);fill-opacity:0;fill-rule:evenodd;stroke:rgb(176, 255, 0);stroke-width:1;" d="M 159.085, 95.3776 L 174.645, 73.7757 L 183.799, 61.1442 L 198.444, 67.3684 L 197.162, 69.016 L 173.73, 101.419 L 159.085, 95.3776 z "/>
<path style="fill:rgb(0, 255, 0);fill-opacity:0;fill-rule:evenodd;stroke:rgb(176, 255, 0);stroke-width:1;" d="M 612.174, 368.879 L 620.595, 357.162 L 638.535, 332.632 L 652.265, 338.49 L 625.904, 374.737 L 612.174, 368.879 z "/>
<path style="fill:rgb(0, 0, 255);fill-opacity:0;fill-rule:evenodd;stroke:rgb(176, 255, 0);stroke-width:1;" d="M 293.089, 659.588 L 296.751, 654.645 L 298.398, 655.195 L 304.073, 647.506 L 299.314, 645.492 L 319.085, 618.581 L 333.913, 624.805 L 314.325, 651.899 L 310.114, 650.069 L 304.439, 657.757 L 305.538, 658.307 L 301.876, 663.249 L 293.089, 659.588 z "/>
<path style="fill:rgb(255, 255, 0);fill-opacity:0;fill-rule:evenodd;stroke:rgb(176, 255, 0);stroke-width:1;" d="M 78.9016, 569.519 L 90.2517, 553.959 L 108.192, 561.648 L 104.897, 566.041 L 117.162, 571.167 L 98.4897, 596.613 L 114.966, 603.57 L 98.6728, 626.27 L 85.492, 620.778 L 87.1396, 618.581 L 97.5744, 622.975 L 108.741, 607.597 L 88.7872, 599.176 L 107.643, 573.364 L 97.9405, 569.336 L 101.602, 564.577 L 89.7025, 559.634 L 81.8307, 570.801 L 78.9016, 569.519 z "/>
<path style="fill:rgb(255, 0, 0);fill-opacity:0;fill-rule:evenodd;stroke:rgb(176, 255, 0);stroke-width:1;" d="M 902.334, 548.833 L 930.16, 511.121 L 942.975, 516.613 L 915.149, 554.325 L 902.334, 548.833 z "/>
<path style="fill:rgb(0, 255, 0);fill-opacity:0;fill-rule:evenodd;stroke:rgb(176, 255, 0);stroke-width:1;" d="M 413.73, 570.801 L 443.021, 530.526 L 455.103, 535.469 L 425.812, 575.927 L 413.73, 570.801 z "/>
<path style="fill:rgb(0, 0, 255);fill-opacity:0;fill-rule:evenodd;stroke:rgb(176, 255, 0);stroke-width:1;" d="M 986.362, 247.872 L 994.416, 236.888 L 1038.9, 255.744 L 1031.03, 266.545 L 986.362, 247.872 z "/>
<path style="fill:rgb(255, 255, 0);fill-opacity:0;fill-rule:evenodd;stroke:rgb(176, 255, 0);stroke-width:1;" d="M 488.055, 373.822 L 516.979, 334.279 L 529.245, 339.405 L 526.865, 342.7 L 500.32, 378.947 L 488.055, 373.822 z "/>
<path style="fill:rgb(255, 0, 0);fill-opacity:0;fill-rule:evenodd;stroke:rgb(176, 255, 0);stroke-width:1;" d="M 994.416, 236.888 L 1002.29, 226.087 L 1036.34, 240.366 L 1046.77, 244.76 L 1038.9, 255.744 L 994.416, 236.888 z "/>
<path style="fill:rgb(0, 255, 0);fill-opacity:0;fill-rule:evenodd;stroke:rgb(176, 255, 0);stroke-width:1;" d="M 442.288, 576.659 L 468.284, 541.144 L 481.831, 546.819 L 463.89, 571.533 L 456.018, 582.334 L 442.288, 576.659 z "/>
<path style="fill:rgb(0, 0, 255);fill-opacity:0;fill-rule:evenodd;stroke:rgb(176, 255, 0);stroke-width:1;" d="M 181.236, 232.494 L 188.741, 222.059 L 192.037, 223.524 L 235.423, 241.648 L 227.918, 252.082 L 181.236, 232.494 z "/>
<path style="fill:rgb(255, 255, 0);fill-opacity:0;fill-rule:evenodd;stroke:rgb(176, 255, 0);stroke-width:1;" d="M 618.215, 148.833 L 635.24, 125.767 L 649.336, 106.362 L 660.686, 111.304 L 629.565, 153.593 L 618.215, 148.833 z "/>
<path style="fill:rgb(255, 0, 0);fill-opacity:0;fill-rule:evenodd;stroke:rgb(176, 255, 0);stroke-width:1;" d="M 424.348, 708.101 L 434.416, 694.188 L 437.712, 689.794 L 449.611, 673.501 L 463.524, 679.359 L 445.767, 703.707 L 438.261, 713.959 L 424.348, 708.101 z "/>
<path style="fill:rgb(0, 255, 0);fill-opacity:0;fill-rule:evenodd;stroke:rgb(176, 255, 0);stroke-width:1;" d="M 482.197, 595.881 L 509.474, 558.352 L 522.288, 563.661 L 494.828, 601.373 L 482.197, 595.881 z "/>
<path style="fill:rgb(0, 0, 255);fill-opacity:0;fill-rule:evenodd;stroke:rgb(176, 255, 0);stroke-width:1;" d="M 321.465, 444.119 L 348.192, 407.323 L 350.023, 404.76 L 362.105, 409.886 L 355.149, 419.405 L 333.547, 449.245 L 321.465, 444.119 z "/>
<path style="fill:rgb(255, 255, 0);fill-opacity:0;fill-rule:evenodd;stroke:rgb(176, 255, 0);stroke-width:1;" d="M 173.73, 101.419 L 197.162, 69.016 L 211.625, 75.0572 L 188.192, 107.643 L 173.73, 101.419 z "/>
<path style="fill:rgb(255, 0, 0);fill-opacity:0;fill-rule:evenodd;stroke:rgb(176, 255, 0);stroke-width:1;" d="M 969.336, 435.332 L 976.476, 425.629 L 981.602, 427.826 L 986.178, 421.602 L 994.6, 410.069 L 1005.95, 414.828 L 1003.2, 418.49 L 1007.41, 420.137 L 990.023, 444.119 L 985.446, 442.105 L 984.897, 443.021 L 973.913, 438.261 L 974.462, 437.529 L 969.336, 435.332 z "/>
<path style="fill:rgb(0, 255, 0);fill-opacity:0;fill-rule:evenodd;stroke:rgb(176, 255, 0);stroke-width:1;" d="M 142.792, 596.247 L 171.716, 556.522 L 183.432, 561.465 L 154.691, 601.19 L 142.792, 596.247 z "/>
<path style="fill:rgb(0, 0, 255);fill-opacity:0;fill-rule:evenodd;stroke:rgb(176, 255, 0);stroke-width:1;" d="M 448.513, 778.215 L 456.934, 766.499 L 465.355, 754.783 L 473.227, 743.982 L 476.888, 745.446 L 473.776, 749.657 L 485.309, 754.416 L 477.803, 764.668 L 463.341, 784.439 L 448.513, 778.215 z "/>
<path style="fill:rgb(255, 255, 0);fill-opacity:0;fill-rule:evenodd;stroke:rgb(176, 255, 0);stroke-width:1;" d="M 154.691, 601.19 L 183.432, 561.465 L 195.149, 566.407 L 166.224, 606.133 L 154.691, 601.19 z "/>
<path style="fill:rgb(255, 0, 0);fill-opacity:0;fill-rule:evenodd;stroke:rgb(176, 255, 0);stroke-width:1;" d="M 1049.34, 470.664 L 1070.57, 441.556 L 1086.32, 448.33 L 1065.26, 477.437 L 1049.34, 470.664 z "/>
<path style="fill:rgb(0, 255, 0);fill-opacity:0;fill-rule:evenodd;stroke:rgb(176, 255, 0);stroke-width:1;" d="M 930.892, 496.11 L 952.311, 467.185 L 967.323, 473.593 L 944.989, 504.165 L 934.371, 499.588 L 935.469, 497.941 L 930.892, 496.11 z "/>
<path style="fill:rgb(0, 0, 255);fill-opacity:0;fill-rule:evenodd;stroke:rgb(176, 255, 0);stroke-width:1;" d="M 944.805, 400 L 950.847, 391.762 L 994.6, 410.069 L 986.178, 421.602 L 956.888, 409.336 L 959.268, 406.041 L 944.805, 400 z "/>
<path style="fill:rgb(255, 255, 0);fill-opacity:0;fill-rule:evenodd;stroke:rgb(176, 255, 0);stroke-width:1;" d="M 188.192, 107.643 L 211.625, 75.0572 L 225.721, 80.9153 L 217.3, 92.4485 L 202.288, 113.318 L 188.192, 107.643 z "/>
<path style="fill:rgb(255, 0, 0);fill-opacity:0;fill-rule:evenodd;stroke:rgb(176, 255, 0);stroke-width:1;" d="M 307.551, 67.7346 L 315.423, 56.7506 L 356.796, 73.9588 L 348.924, 85.1259 L 316.888, 71.3959 L 307.551, 67.7346 z "/>
<path style="fill:rgb(0, 255, 0);fill-opacity:0;fill-rule:evenodd;stroke:rgb(176, 255, 0);stroke-width:1;" d="M 70.1144, 338.856 L 93.73, 306.636 L 107.46, 312.311 L 83.8444, 344.714 L 70.1144, 338.856 z "/>
<path style="fill:rgb(0, 0, 255);fill-opacity:0;fill-rule:evenodd;stroke:rgb(176, 255, 0);stroke-width:1;" d="M 434.966, 71.2128 L 442.471, 61.1442 L 485.858, 79.4508 L 478.352, 89.5195 L 434.966, 71.2128 z "/>
<path style="fill:rgb(255, 255, 0);fill-opacity:0;fill-rule:evenodd;stroke:rgb(176, 255, 0);stroke-width:1;" d="M 512.952, 325.675 L 523.936, 310.664 L 523.021, 310.297 L 526.865, 304.805 L 528.696, 305.538 L 531.076, 302.059 L 529.062, 300.046 L 536.568, 289.794 L 551.762, 296.201 L 544.256, 306.087 L 541.327, 306.453 L 538.947, 309.748 L 540.778, 310.664 L 536.384, 316.522 L 533.272, 315.24 L 529.794, 319.817 L 531.625, 320.549 L 524.485, 330.435 L 512.952, 325.675 z "/>
<path style="fill:rgb(255, 0, 0);fill-opacity:0;fill-rule:evenodd;stroke:rgb(176, 255, 0);stroke-width:1;" d="M 477.803, 764.668 L 485.309, 754.416 L 528.33, 772.357 L 520.824, 782.609 L 477.803, 764.668 z "/>
<path style="fill:rgb(0, 255, 0);fill-opacity:0;fill-rule:evenodd;stroke:rgb(176, 255, 0);stroke-width:1;" d="M 64.0732, 134.737 L 69.7483, 127.048 L 71.3959, 126.682 L 81.2815, 113.135 L 81.2815, 111.304 L 83.1121, 108.741 L 88.4211, 101.236 L 102.517, 107.094 L 95.1945, 117.162 L 92.9977, 118.078 L 83.1121, 131.625 L 83.6613, 132.906 L 78.1693, 140.778 L 64.0732, 134.737 z "/>
<path style="fill:rgb(0, 0, 255);fill-opacity:0;fill-rule:evenodd;stroke:rgb(176, 255, 0);stroke-width:1;" d="M 174.645, 241.648 L 181.236, 232.494 L 227.918, 252.082 L 221.144, 261.236 L 174.645, 241.648 z "/>
<path style="fill:rgb(255, 255, 0);fill-opacity:0;fill-rule:evenodd;stroke:rgb(176, 255, 0);stroke-width:1;" d="M 1031.03, 266.545 L 1038.9, 255.744 L 1046.77, 244.76 L 1062.52, 222.975 L 1072.4, 227.185 L 1043.48, 267.277 L 1040.92, 270.755 L 1031.03, 266.545 z "/>
<path style="fill:rgb(255, 0, 0);fill-opacity:0;fill-rule:evenodd;stroke:rgb(176, 255, 0);stroke-width:1;" d="M 998.261, 63.524 L 1006.68, 51.9908 L 1041.83, 66.8192 L 1033.41, 78.5355 L 998.261, 63.524 z "/>
<path style="fill:rgb(0, 255, 0);fill-opacity:0;fill-rule:evenodd;stroke:rgb(176, 255, 0);stroke-width:1;" d="M 486.041, 653.73 L 511.487, 618.764 L 523.204, 623.707 L 497.757, 658.673 L 486.041, 653.73 z "/>
<path style="fill:rgb(0, 0, 255);fill-opacity:0;fill-rule:evenodd;stroke:rgb(176, 255, 0);stroke-width:1;" d="M 167.323, 174.096 L 173.364, 165.858 L 173.73, 165.309 L 175.378, 164.943 L 183.432, 153.776 L 183.066, 152.494 L 189.474, 143.524 L 203.753, 149.565 L 197.346, 158.535 L 195.332, 158.902 L 187.277, 169.886 L 188.009, 171.35 L 181.602, 180.137 L 167.323, 174.096 z "/>
<path style="fill:rgb(255, 255, 0);fill-opacity:0;fill-rule:evenodd;stroke:rgb(176, 255, 0);stroke-width:1;" d="M 144.439, 89.3364 L 160.183, 67.7346 L 163.112, 69.016 L 164.76, 66.6362 L 163.295, 66.087 L 167.506, 60.2288 L 179.405, 65.3547 L 175.378, 71.0297 L 173.913, 70.4805 L 172.265, 72.8604 L 174.645, 73.7757 L 159.085, 95.3776 L 144.439, 89.3364 z "/>
<path style="fill:rgb(255, 0, 0);fill-opacity:0;fill-rule:evenodd;stroke:rgb(176, 255, 0);stroke-width:1;" d="M 81.8307, 138.947 L 87.5057, 131.259 L 86.5904, 129.245 L 93.3638, 120.092 L 96.1098, 121.19 L 98.1236, 118.444 L 95.1945, 117.162 L 102.517, 107.094 L 116.979, 113.135 L 109.657, 123.204 L 106.911, 122.105 L 104.714, 124.851 L 107.46, 126.133 L 101.236, 134.92 L 98.4897, 135.835 L 92.8146, 143.524 L 81.8307, 138.947 z "/>
<path style="fill:rgb(0, 255, 0);fill-opacity:0;fill-rule:evenodd;stroke:rgb(176, 255, 0);stroke-width:1;" d="M 130.16, 83.2952 L 145.904, 61.6934 L 148.284, 62.7918 L 150.114, 60.595 L 148.833, 60.0458 L 153.043, 54.1876 L 165.126, 59.3135 L 160.915, 64.9886 L 159.268, 64.4394 L 157.62, 66.6362 L 160.183, 67.7346 L 144.439, 89.3364 L 130.16, 83.2952 z "/>
<path style="fill:rgb(0, 0, 255);fill-opacity:0;fill-rule:evenodd;stroke:rgb(176, 255, 0);stroke-width:1;" d="M 101.053, 71.2128 L 119.725, 45.2174 L 122.288, 41.7391 L 127.963, 44.119 L 122.838, 51.2586 L 123.753, 52.9062 L 126.133, 52.54 L 131.259, 45.4005 L 136.934, 47.7803 L 132.906, 53.4554 L 125.034, 64.4394 L 120.824, 62.6087 L 118.993, 65.3547 L 123.021, 67.1854 L 115.698, 77.254 L 101.053, 71.2128 z "/>
<path style="fill:rgb(255, 255, 0);fill-opacity:0;fill-rule:evenodd;stroke:rgb(176, 255, 0);stroke-width:1;" d="M 916.064, 343.982 L 922.838, 334.828 L 965.858, 352.952 L 959.268, 362.105 L 916.064, 343.982 z "/>
<path style="fill:rgb(255, 0, 0);fill-opacity:0;fill-rule:evenodd;stroke:rgb(176, 255, 0);stroke-width:1;" d="M 903.616, 361.19 L 910.206, 352.22 L 953.41, 370.343 L 946.819, 379.314 L 938.947, 376.018 L 903.616, 361.19 z "/>
<path style="fill:rgb(0, 255, 0);fill-opacity:0;fill-rule:evenodd;stroke:rgb(176, 255, 0);stroke-width:1;" d="M 86.2243, 64.9886 L 92.8146, 55.6522 L 97.3913, 49.4279 L 105.08, 38.8101 L 110.206, 41.1899 L 119.725, 45.2174 L 101.053, 71.2128 L 86.2243, 64.9886 z "/>
<path style="fill:rgb(0, 0, 255);fill-opacity:0;fill-rule:evenodd;stroke:rgb(176, 255, 0);stroke-width:1;" d="M 126.316, 725.309 L 133.089, 716.156 L 138.032, 714.508 L 128.33, 710.297 L 144.989, 687.231 L 158.352, 692.906 L 141.693, 715.789 L 132.723, 728.055 L 126.316, 725.309 z "/>
<path style="fill:rgb(255, 255, 0);fill-opacity:0;fill-rule:evenodd;stroke:rgb(176, 255, 0);stroke-width:1;" d="M 231.945, 125.767 L 238.719, 116.43 L 240.915, 115.881 L 244.394, 111.121 L 242.929, 110.572 L 253.547, 96.1098 L 258.673, 98.1236 L 253.181, 105.629 L 253.913, 107.826 L 256.476, 107.094 L 261.968, 99.5881 L 267.277, 101.785 L 256.842, 116.247 L 255.378, 115.698 L 251.899, 120.458 L 252.449, 122.288 L 245.858, 131.625 L 231.945, 125.767 z "/>
<path style="fill:rgb(255, 0, 0);fill-opacity:0;fill-rule:evenodd;stroke:rgb(176, 255, 0);stroke-width:1;" d="M 71.5789, 58.7643 L 78.1693, 49.4279 L 80.5492, 48.8787 L 83.4783, 44.8513 L 82.746, 43.2037 L 84.7597, 40.4577 L 90.4348, 32.7689 L 105.08, 38.8101 L 97.3913, 49.4279 L 95.0114, 49.7941 L 92.2654, 53.6384 L 92.8146, 55.6522 L 86.2243, 64.9886 L 71.5789, 58.7643 z "/>
<path style="fill:rgb(0, 255, 0);fill-opacity:0;fill-rule:evenodd;stroke:rgb(176, 255, 0);stroke-width:1;" d="M 128.513, 148.467 L 145.538, 125.217 L 161.098, 131.625 L 148.467, 149.016 L 147.368, 148.65 L 143.158, 154.691 L 128.513, 148.467 z "/>
<path style="fill:rgb(0, 0, 255);fill-opacity:0;fill-rule:evenodd;stroke:rgb(176, 255, 0);stroke-width:1;" d="M 606.133, 350.938 L 623.89, 326.59 L 638.535, 332.632 L 620.595, 357.162 L 606.133, 350.938 z "/>
<path style="fill:rgb(255, 255, 0);fill-opacity:0;fill-rule:evenodd;stroke:rgb(176, 255, 0);stroke-width:1;" d="M 910.206, 352.22 L 916.064, 343.982 L 959.268, 362.105 L 953.41, 370.343 L 910.206, 352.22 z "/>
<path style="fill:rgb(255, 0, 0);fill-opacity:0;fill-rule:evenodd;stroke:rgb(176, 255, 0);stroke-width:1;" d="M 561.281, 124.668 L 578.307, 101.602 L 582.151, 103.249 L 588.558, 94.2792 L 596.613, 97.7574 L 590.023, 106.545 L 573.181, 129.794 L 561.281, 124.668 z "/>
<path style="fill:rgb(0, 255, 0);fill-opacity:0;fill-rule:evenodd;stroke:rgb(176, 255, 0);stroke-width:1;" d="M 240.183, 409.886 L 246.041, 402.014 L 247.506, 402.746 L 256.293, 390.847 L 272.769, 397.803 L 258.307, 417.574 L 240.183, 409.886 z "/>
<path style="fill:rgb(0, 0, 255);fill-opacity:0;fill-rule:evenodd;stroke:rgb(176, 255, 0);stroke-width:1;" d="M 900.503, 365.4 L 903.616, 361.19 L 938.947, 376.018 L 933.089, 384.256 L 931.076, 386.819 L 902.334, 374.737 L 907.094, 368.146 L 900.503, 365.4 z "/>
<path style="fill:rgb(255, 255, 0);fill-opacity:0;fill-rule:evenodd;stroke:rgb(176, 255, 0);stroke-width:1;" d="M 115.698, 77.254 L 123.021, 67.1854 L 125.034, 64.4394 L 132.906, 53.4554 L 139.13, 56.0183 L 138.581, 56.7506 L 146.819, 60.2288 L 145.904, 61.6934 L 130.16, 83.2952 L 115.698, 77.254 z "/>
<path style="fill:rgb(255, 0, 0);fill-opacity:0;fill-rule:evenodd;stroke:rgb(176, 255, 0);stroke-width:1;" d="M 928.513, 560.183 L 950.481, 530.343 L 961.648, 535.103 L 939.863, 564.943 L 928.513, 560.183 z "/>
<path style="fill:rgb(0, 255, 0);fill-opacity:0;fill-rule:evenodd;stroke:rgb(176, 255, 0);stroke-width:1;" d="M 1029.75, 405.309 L 1056.48, 368.513 L 1065.45, 372.357 L 1038.72, 409.153 L 1029.75, 405.309 z "/>
<path style="fill:rgb(0, 0, 255);fill-opacity:0;fill-rule:evenodd;stroke:rgb(176, 255, 0);stroke-width:1;" d="M 565.858, 645.858 L 571.533, 638.169 L 573.181, 638.902 L 612.357, 655.378 L 613.272, 655.744 L 607.597, 663.432 L 565.858, 645.858 z "/>
<path style="fill:rgb(255, 255, 0);fill-opacity:0;fill-rule:evenodd;stroke:rgb(176, 255, 0);stroke-width:1;" d="M 202.288, 113.318 L 217.3, 92.4485 L 232.128, 98.4897 L 230.297, 101.053 L 216.934, 119.542 L 202.288, 113.318 z "/>
<path style="fill:rgb(255, 0, 0);fill-opacity:0;fill-rule:evenodd;stroke:rgb(176, 255, 0);stroke-width:1;" d="M 404.577, 707.735 L 407.689, 703.524 L 419.222, 687.78 L 434.416, 694.188 L 424.348, 708.101 L 419.954, 714.142 L 404.577, 707.735 z "/>
<path style="fill:rgb(0, 255, 0);fill-opacity:0;fill-rule:evenodd;stroke:rgb(176, 255, 0);stroke-width:1;" d="M 275.698, 132.357 L 275.881, 131.991 L 282.838, 122.471 L 288.33, 124.668 L 312.86, 134.92 L 305.721, 144.989 L 275.698, 132.357 z "/>
<path style="fill:rgb(0, 0, 255);fill-opacity:0;fill-rule:evenodd;stroke:rgb(176, 255, 0);stroke-width:1;" d="M 397.071, 274.416 L 401.281, 268.558 L 397.62, 266.911 L 416.293, 241.281 L 426.178, 245.492 L 403.112, 276.979 L 397.071, 274.416 z "/>
<path style="fill:rgb(255, 255, 0);fill-opacity:0;fill-rule:evenodd;stroke:rgb(176, 255, 0);stroke-width:1;" d="M 333.547, 449.245 L 355.149, 419.405 L 364.851, 423.432 L 343.066, 453.272 L 333.547, 449.245 z "/>
<path style="fill:rgb(255, 0, 0);fill-opacity:0;fill-rule:evenodd;stroke:rgb(176, 255, 0);stroke-width:1;" d="M 161.465, 156.705 L 175.378, 137.666 L 189.474, 143.524 L 183.066, 152.494 L 173.73, 165.309 L 173.364, 165.858 L 168.604, 163.844 L 170.984, 160.732 L 161.465, 156.705 z "/>
<path style="fill:rgb(0, 255, 0);fill-opacity:0;fill-rule:evenodd;stroke:rgb(176, 255, 0);stroke-width:1;" d="M 153.41, 720.732 L 170.069, 697.849 L 182.334, 702.975 L 173.913, 714.691 L 165.675, 725.858 L 153.41, 720.732 z "/>
<path style="fill:rgb(0, 0, 255);fill-opacity:0;fill-rule:evenodd;stroke:rgb(176, 255, 0);stroke-width:1;" d="M 285.034, 769.794 L 295.652, 755.149 L 298.947, 750.572 L 313.227, 756.796 L 302.792, 771.259 L 299.497, 775.835 L 285.034, 769.794 z "/>
<path style="fill:rgb(255, 255, 0);fill-opacity:0;fill-rule:evenodd;stroke:rgb(176, 255, 0);stroke-width:1;" d="M 141.693, 715.789 L 158.352, 692.906 L 170.069, 697.849 L 153.41, 720.732 L 141.693, 715.789 z "/>
<path style="fill:rgb(255, 0, 0);fill-opacity:0;fill-rule:evenodd;stroke:rgb(176, 255, 0);stroke-width:1;" d="M 269.108, 141.327 L 275.698, 132.357 L 305.721, 144.989 L 299.314, 153.776 L 269.108, 141.327 z "/>
<path style="fill:rgb(0, 255, 0);fill-opacity:0;fill-rule:evenodd;stroke:rgb(176, 255, 0);stroke-width:1;" d="M 584.348, 134.554 L 601.373, 111.304 L 612.723, 116.247 L 595.698, 139.314 L 584.348, 134.554 z "/>
<path style="fill:rgb(0, 0, 255);fill-opacity:0;fill-rule:evenodd;stroke:rgb(176, 255, 0);stroke-width:1;" d="M 607.048, 144.073 L 623.89, 121.007 L 635.24, 125.767 L 618.215, 148.833 L 607.048, 144.073 z "/>
<path style="fill:rgb(255, 255, 0);fill-opacity:0;fill-rule:evenodd;stroke:rgb(176, 255, 0);stroke-width:1;" d="M 573.181, 129.794 L 590.023, 106.545 L 601.373, 111.304 L 584.348, 134.554 L 573.181, 129.794 z "/>
<path style="fill:rgb(255, 0, 0);fill-opacity:0;fill-rule:evenodd;stroke:rgb(176, 255, 0);stroke-width:1;" d="M 595.698, 139.314 L 612.723, 116.247 L 623.89, 121.007 L 607.048, 144.073 L 595.698, 139.314 z "/>
<path style="fill:rgb(0, 255, 0);fill-opacity:0;fill-rule:evenodd;stroke:rgb(176, 255, 0);stroke-width:1;" d="M 295.469, 114.783 L 303.158, 104.165 L 327.689, 114.416 L 320.183, 125.034 L 295.469, 114.783 z "/>
<path style="fill:rgb(0, 0, 255);fill-opacity:0;fill-rule:evenodd;stroke:rgb(176, 255, 0);stroke-width:1;" d="M 422.334, 683.387 L 434.233, 667.094 L 449.611, 673.501 L 437.712, 689.794 L 422.334, 683.387 z "/>
<path style="fill:rgb(255, 255, 0);fill-opacity:0;fill-rule:evenodd;stroke:rgb(176, 255, 0);stroke-width:1;" d="M 288.33, 124.668 L 295.469, 114.783 L 320.183, 125.034 L 312.86, 134.92 L 288.33, 124.668 z "/>
<path style="fill:rgb(255, 0, 0);fill-opacity:0;fill-rule:evenodd;stroke:rgb(176, 255, 0);stroke-width:1;" d="M 216.934, 119.542 L 230.297, 101.053 L 243.295, 106.545 L 230.114, 125.034 L 216.934, 119.542 z "/>
<path style="fill:rgb(0, 255, 0);fill-opacity:0;fill-rule:evenodd;stroke:rgb(176, 255, 0);stroke-width:1;" d="M 1036.34, 240.366 L 1052.08, 218.581 L 1062.52, 222.975 L 1046.77, 244.76 L 1036.34, 240.366 z "/>
<path style="fill:rgb(0, 0, 255);fill-opacity:0;fill-rule:evenodd;stroke:rgb(176, 255, 0);stroke-width:1;" d="M 245.858, 131.625 L 252.449, 122.288 L 258.307, 124.668 L 274.233, 131.259 L 267.46, 140.595 L 245.858, 131.625 z "/>
<path style="fill:rgb(255, 255, 0);fill-opacity:0;fill-rule:evenodd;stroke:rgb(176, 255, 0);stroke-width:1;" d="M 82.9291, 624.256 L 84.7597, 621.693 L 85.492, 620.778 L 98.6728, 626.27 L 114.966, 603.57 L 120.641, 605.95 L 101.602, 632.128 L 82.9291, 624.256 z "/>
<path style="fill:rgb(255, 0, 0);fill-opacity:0;fill-rule:evenodd;stroke:rgb(176, 255, 0);stroke-width:1;" d="M 258.307, 124.668 L 265.812, 114.416 L 279.725, 120.092 L 283.387, 121.739 L 282.838, 122.471 L 275.881, 131.991 L 274.233, 131.259 L 258.307, 124.668 z "/>
<path style="fill:rgb(0, 255, 0);fill-opacity:0;fill-rule:evenodd;stroke:rgb(176, 255, 0);stroke-width:1;" d="M 148.467, 149.016 L 161.098, 131.625 L 172.998, 136.568 L 162.929, 150.481 L 155.057, 147.185 L 152.494, 150.847 L 148.467, 149.016 z "/>
<path style="fill:rgb(0, 0, 255);fill-opacity:0;fill-rule:evenodd;stroke:rgb(176, 255, 0);stroke-width:1;" d="M 292.54, 65.3547 L 301.51, 52.9062 L 302.609, 51.4416 L 315.423, 56.7506 L 307.551, 67.7346 L 305.355, 70.6636 L 292.54, 65.3547 z "/>
<path style="fill:rgb(255, 255, 0);fill-opacity:0;fill-rule:evenodd;stroke:rgb(176, 255, 0);stroke-width:1;" d="M 419.954, 153.227 L 424.348, 147.185 L 427.643, 148.467 L 433.501, 140.412 L 430.389, 138.947 L 434.783, 133.089 L 444.119, 136.934 L 429.474, 156.888 L 429.474, 157.071 L 419.954, 153.227 z "/>
<path style="fill:rgb(255, 0, 0);fill-opacity:0;fill-rule:evenodd;stroke:rgb(176, 255, 0);stroke-width:1;" d="M 386.453, 138.947 L 401.098, 118.81 L 408.604, 121.922 L 393.776, 142.059 L 386.453, 138.947 z "/>
<path style="fill:rgb(0, 255, 0);fill-opacity:0;fill-rule:evenodd;stroke:rgb(176, 255, 0);stroke-width:1;" d="M 548.65, 640.732 L 555.423, 631.396 L 571.533, 638.169 L 565.858, 645.858 L 564.76, 647.689 L 548.65, 640.732 z "/>
<path style="fill:rgb(0, 0, 255);fill-opacity:0;fill-rule:evenodd;stroke:rgb(176, 255, 0);stroke-width:1;" d="M 478.352, 89.5195 L 485.858, 79.4508 L 499.771, 85.3089 L 492.265, 95.5606 L 478.352, 89.5195 z "/>
<path style="fill:rgb(255, 255, 0);fill-opacity:0;fill-rule:evenodd;stroke:rgb(176, 255, 0);stroke-width:1;" d="M 73.4096, 567.323 L 85.6751, 550.297 L 109.108, 560.183 L 108.192, 561.648 L 90.2517, 553.959 L 78.9016, 569.519 L 73.4096, 567.323 z "/>
<path style="fill:rgb(255, 0, 0);fill-opacity:0;fill-rule:evenodd;stroke:rgb(176, 255, 0);stroke-width:1;" d="M 237.62, 92.8146 L 243.295, 84.5767 L 256.842, 89.8856 L 251.167, 98.1236 L 237.62, 92.8146 z "/>
<path style="fill:rgb(0, 255, 0);fill-opacity:0;fill-rule:evenodd;stroke:rgb(176, 255, 0);stroke-width:1;" d="M 410.618, 141.51 L 417.025, 132.906 L 428.009, 137.666 L 421.602, 146.27 L 410.618, 141.51 z "/>
<path style="fill:rgb(0, 0, 255);fill-opacity:0;fill-rule:evenodd;stroke:rgb(176, 255, 0);stroke-width:1;" d="M 355.149, 419.405 L 362.105, 409.886 L 371.808, 413.913 L 364.851, 423.432 L 355.149, 419.405 z "/>
<path style="fill:rgb(255, 255, 0);fill-opacity:0;fill-rule:evenodd;stroke:rgb(176, 255, 0);stroke-width:1;" d="M 265.812, 114.416 L 269.474, 109.291 L 283.387, 115.149 L 279.725, 120.092 L 265.812, 114.416 z "/>
<path style="fill:rgb(255, 0, 0);fill-opacity:0;fill-rule:evenodd;stroke:rgb(176, 255, 0);stroke-width:1;" d="M 87.3227, 612.174 L 93.913, 603.204 L 100.686, 606.133 L 94.0961, 614.92 L 87.3227, 612.174 z "/>
<path style="fill:rgb(0, 255, 0);fill-opacity:0;fill-rule:evenodd;stroke:rgb(176, 255, 0);stroke-width:1;" d="M 67.1854, 603.57 L 73.5927, 594.6 L 80.1831, 597.529 L 73.7757, 606.316 L 67.1854, 603.57 z "/>
<path style="fill:rgb(0, 0, 255);fill-opacity:0;fill-rule:evenodd;stroke:rgb(176, 255, 0);stroke-width:1;" d="M 62.4256, 615.652 L 64.2563, 613.089 L 84.7597, 621.693 L 82.9291, 624.256 L 62.4256, 615.652 z "/>
<path style="fill:rgb(255, 255, 0);fill-opacity:0;fill-rule:evenodd;stroke:rgb(176, 255, 0);stroke-width:1;" d="M 0, 668.558 L 24.1648, 635.057 L 110.938, 671.487 L 94.0961, 694.737 L 89.3364, 692.723 L 87.5057, 695.286 L 84.2105, 693.822 L 86.0412, 691.259 L 64.6224, 682.288 L 57.1167, 692.54 L 50.1602, 689.611 L 0, 668.558 z "/>
<path style="fill:rgb(255, 0, 0);fill-opacity:0;fill-rule:evenodd;stroke:rgb(176, 255, 0);stroke-width:1;" d="M 45.5835, 761.739 L 78.1693, 716.522 L 112.952, 731.167 L 124.485, 736.11 L 91.7162, 781.144 L 45.5835, 761.739 z "/>
<path style="fill:rgb(0, 255, 0);fill-opacity:0;fill-rule:evenodd;stroke:rgb(176, 255, 0);stroke-width:1;" d="M 58.032, 272.037 L 67.0023, 259.771 L 78.5355, 264.714 L 85.3089, 255.561 L 73.5927, 250.618 L 82.3799, 238.535 L 142.792, 264.165 L 133.822, 276.43 L 123.204, 271.854 L 116.43, 281.007 L 127.231, 285.584 L 118.444, 297.483 L 58.032, 272.037 z "/>
<path style="fill:rgb(0, 0, 255);fill-opacity:0;fill-rule:evenodd;stroke:rgb(176, 255, 0);stroke-width:1;" d="M 56.9336, 394.142 L 70.1144, 376.384 L 121.19, 398.169 L 97.2082, 430.755 L 62.6087, 415.927 L 66.27, 411.167 L 60.9611, 408.787 L 68.2838, 398.902 L 56.9336, 394.142 z "/>
<path style="fill:rgb(255, 255, 0);fill-opacity:0;fill-rule:evenodd;stroke:rgb(176, 255, 0);stroke-width:1;" d="M 40.4577, 185.446 L 69.5652, 145.172 L 70.1144, 144.622 L 91.8993, 153.776 L 62.2426, 194.6 L 40.4577, 185.446 z "/>
<path style="fill:rgb(255, 0, 0);fill-opacity:0;fill-rule:evenodd;stroke:rgb(176, 255, 0);stroke-width:1;" d="M 55.8352, 332.815 L 77.8032, 303.341 L 84.3936, 294.188 L 91.3501, 297.3 L 92.6316, 295.652 L 99.5881, 298.581 L 93.73, 306.636 L 70.1144, 338.856 L 55.8352, 332.815 z "/>
<path style="fill:rgb(0, 255, 0);fill-opacity:0;fill-rule:evenodd;stroke:rgb(176, 255, 0);stroke-width:1;" d="M 50.3432, 127.231 L 73.5927, 95.0114 L 88.4211, 101.236 L 83.1121, 108.741 L 81.4645, 108.009 L 75.7895, 115.881 L 70.1144, 113.318 L 66.087, 118.81 L 68.4668, 119.908 L 60.2288, 131.259 L 50.3432, 127.231 z "/>
<path style="fill:rgb(0, 0, 255);fill-opacity:0;fill-rule:evenodd;stroke:rgb(176, 255, 0);stroke-width:1;" d="M 56.5675, 52.54 L 70.2975, 34.0503 L 84.7597, 40.4577 L 82.746, 43.2037 L 78.1693, 49.4279 L 71.5789, 58.7643 L 56.5675, 52.54 z "/>
<path style="fill:rgb(255, 255, 0);fill-opacity:0;fill-rule:evenodd;stroke:rgb(176, 255, 0);stroke-width:1;" d="M 49.2449, 49.611 L 72.6773, 17.0252 L 80.1831, 20.1373 L 70.2975, 34.0503 L 56.5675, 52.54 L 49.2449, 49.611 z "/>
<path style="fill:rgb(255, 0, 0);fill-opacity:0;fill-rule:evenodd;stroke:rgb(176, 255, 0);stroke-width:1;" d="M 690.709, 31.1213 L 711.945, 2.01373 L 797.071, 38.2609 L 775.469, 67.9176 L 775.286, 67.9176 L 745.629, 51.4416 L 743.616, 53.6384 L 690.709, 31.1213 z "/>
<path style="fill:rgb(0, 255, 0);fill-opacity:0;fill-rule:evenodd;stroke:rgb(176, 255, 0);stroke-width:1;" d="M 881.465, 54.9199 L 888.97, 44.8513 L 912.586, 12.2654 L 955.973, 30.5721 L 924.851, 73.2265 L 891.35, 59.1304 L 881.465, 54.9199 z "/>
<path style="fill:rgb(0, 0, 255);fill-opacity:0;fill-rule:evenodd;stroke:rgb(176, 255, 0);stroke-width:1;" d="M 853.822, 41.1899 L 864.439, 25.8124 L 883.295, 0 L 912.586, 12.2654 L 888.97, 44.8513 L 871.213, 37.3455 L 864.989, 45.7666 L 853.822, 41.1899 z "/>
<path style="fill:rgb(255, 255, 0);fill-opacity:0;fill-rule:evenodd;stroke:rgb(176, 255, 0);stroke-width:1;" d="M 165.492, 44.6682 L 173.181, 34.0503 L 177.574, 35.881 L 186.728, 23.0664 L 187.277, 20.8696 L 189.474, 17.9405 L 185.995, 16.476 L 193.501, 5.85812 L 220.961, 17.3913 L 212.906, 28.5584 L 209.977, 27.2769 L 197.712, 44.3021 L 200.641, 45.5835 L 193.135, 56.2014 L 165.492, 44.6682 z "/>
<path style="fill:rgb(255, 0, 0);fill-opacity:0;fill-rule:evenodd;stroke:rgb(176, 255, 0);stroke-width:1;" d="M 548.284, 45.5835 L 560.732, 28.7414 L 569.886, 15.9268 L 598.078, 27.8261 L 576.476, 57.4828 L 548.284, 45.5835 z "/>
<path style="fill:rgb(0, 255, 0);fill-opacity:0;fill-rule:evenodd;stroke:rgb(176, 255, 0);stroke-width:1;" d="M 192.586, 56.7506 L 193.135, 56.2014 L 200.641, 45.5835 L 205.034, 47.4142 L 205.584, 48.8787 L 208.146, 49.2449 L 220.595, 31.6705 L 212.906, 28.5584 L 220.961, 17.3913 L 248.238, 28.7414 L 241.465, 37.8947 L 240.549, 39.3593 L 232.86, 36.0641 L 230.847, 38.9931 L 234.325, 40.4577 L 215.652, 66.27 L 192.586, 56.7506 z "/>
<path style="fill:rgb(0, 0, 255);fill-opacity:0;fill-rule:evenodd;stroke:rgb(176, 255, 0);stroke-width:1;" d="M 461.51, 35.1487 L 474.142, 17.7574 L 502.7, 29.8398 L 508.558, 32.4027 L 495.927, 49.7941 L 461.51, 35.1487 z "/>
<path style="fill:rgb(255, 255, 0);fill-opacity:0;fill-rule:evenodd;stroke:rgb(176, 255, 0);stroke-width:1;" d="M 153.593, 41.9222 L 159.268, 34.2334 L 162.197, 33.3181 L 167.689, 25.6293 L 170.618, 26.9108 L 175.744, 19.9542 L 172.815, 18.6728 L 177.941, 11.5332 L 177.391, 8.97025 L 182.883, 1.46453 L 193.501, 5.85812 L 185.995, 16.476 L 173.181, 34.0503 L 165.492, 44.6682 L 164.211, 46.4989 L 153.593, 41.9222 z "/>
<path style="fill:rgb(255, 0, 0);fill-opacity:0;fill-rule:evenodd;stroke:rgb(176, 255, 0);stroke-width:1;" d="M 43.9359, 607.78 L 56.0183, 591.121 L 73.4096, 567.323 L 85.6751, 550.297 L 109.108, 560.183 L 143.341, 574.645 L 120.641, 605.95 L 114.233, 614.737 L 103.432, 629.748 L 101.602, 632.128 L 82.9291, 624.256 L 62.4256, 615.652 L 43.9359, 607.78 z "/>
<path style="fill:rgb(0, 255, 0);fill-opacity:0;fill-rule:evenodd;stroke:rgb(176, 255, 0);stroke-width:1;" d="M 56.2014, 605.584 L 64.2563, 594.6 L 61.6934, 593.501 L 78.9016, 569.519 L 81.8307, 570.801 L 89.7025, 559.634 L 101.602, 564.577 L 97.9405, 569.336 L 107.643, 573.364 L 88.7872, 599.176 L 108.741, 607.597 L 97.5744, 622.975 L 87.1396, 618.581 L 85.492, 620.778 L 84.7597, 621.693 L 64.2563, 613.089 L 65.1716, 611.991 L 66.6362, 609.977 L 56.2014, 605.584 z "/>
<path style="fill:rgb(0, 0, 255);fill-opacity:0;fill-rule:evenodd;stroke:rgb(176, 255, 0);stroke-width:1;" d="M 43.9359, 607.78 L 56.0183, 591.121 L 61.6934, 593.501 L 51.9908, 606.499 L 65.1716, 611.991 L 64.2563, 613.089 L 62.4256, 615.652 L 43.9359, 607.78 z "/>
<path style="fill:rgb(255, 255, 0);fill-opacity:0;fill-rule:evenodd;stroke:rgb(176, 255, 0);stroke-width:1;" d="M 56.0183, 591.121 L 73.4096, 567.323 L 78.9016, 569.519 L 61.6934, 593.501 L 56.0183, 591.121 z "/>
</svg>