<?xml version="1.0" encoding="iso-8859-1" standalone="no"?>
<!DOCTYPE svg PUBLIC "-//W3C//DTD SVG 1.0//EN" "http://www.w3.org/TR/2001/REC-SVG-20010904/DTD/svg10.dtd">
<svg xmlns="http://www.w3.org/2000/svg" width="1031" height="800">
<path style="fill:rgb(255, 0, 0);fill-opacity:0;fill-rule:evenodd;stroke:rgb(255, 197, 0);stroke-width:1;" d="M 185.965, 521.579 L 198.246, 504.912 L 216.14, 512.456 L 228.772, 495.088 L 250, 504.035 L 245.263, 510.526 L 237.368, 521.404 L 273.509, 536.667 L 286.14, 519.298 L 307.719, 528.421 L 295.088, 545.789 L 331.228, 561.053 L 343.86, 543.684 L 365.088, 552.456 L 352.281, 569.825 L 388.947, 585.439 L 401.579, 567.895 L 423.158, 577.018 L 410.526, 594.386 L 433.158, 604.035 L 420.877, 620.702 L 398.246, 611.228 L 378.246, 638.596 L 400.877, 648.246 L 388.947, 664.737 L 366.316, 655.088 L 354.211, 671.754 L 315.088, 655.263 L 327.018, 638.947 L 344.386, 646.316 L 376.667, 602.105 L 340.175, 586.667 L 330.526, 599.825 L 309.474, 590.877 L 318.947, 577.719 L 282.807, 562.456 L 270.351, 579.649 L 248.772, 570.526 L 261.228, 553.333 L 225.088, 538.07 L 212.632, 555.263 L 191.404, 546.316 L 203.86, 529.123 L 185.965, 521.579 z "/>
<path style="fill:rgb(0, 255, 0);fill-opacity:0;fill-rule:evenodd;stroke:rgb(255, 197, 0);stroke-width:1;" d="M 402.456, 225.088 L 414.386, 208.596 L 431.93, 215.965 L 444.737, 198.421 L 465.965, 207.544 L 453.158, 224.912 L 489.649, 240.351 L 502.456, 222.632 L 523.86, 231.754 L 511.053, 249.298 L 547.544, 264.737 L 557.368, 251.053 L 578.596, 260 L 568.596, 273.509 L 604.912, 288.947 L 637.193, 244.561 L 619.649, 237.193 L 631.404, 221.053 L 670.351, 237.368 L 658.421, 253.86 L 681.579, 263.684 L 669.474, 280.175 L 646.14, 270.526 L 626.316, 297.895 L 649.474, 307.544 L 637.719, 323.509 L 614.737, 313.86 L 601.754, 331.579 L 580.526, 322.632 L 593.158, 305.263 L 556.667, 290 L 544.035, 307.368 L 522.807, 298.596 L 535.439, 281.053 L 499.123, 265.789 L 486.491, 283.333 L 464.912, 274.211 L 477.719, 256.667 L 441.228, 241.404 L 428.421, 258.947 L 407.193, 250 L 420, 232.456 L 402.456, 225.088 z "/>
<path style="fill:rgb(0, 0, 255);fill-opacity:0;fill-rule:evenodd;stroke:rgb(255, 197, 0);stroke-width:1;" d="M 252.281, 431.579 L 264.211, 414.912 L 303.684, 431.579 L 323.333, 404.561 L 300.526, 394.912 L 302.632, 392.281 L 312.632, 378.421 L 335.439, 387.895 L 355.263, 360.702 L 332.456, 351.053 L 344.386, 334.386 L 367.193, 344.035 L 387.193, 316.667 L 347.544, 300 L 359.649, 283.509 L 377.544, 291.053 L 387.368, 277.544 L 409.123, 286.667 L 399.298, 300.351 L 420.877, 309.298 L 389.123, 353.158 L 411.93, 362.807 L 400, 379.474 L 377.018, 369.825 L 357.193, 397.018 L 380.175, 406.667 L 368.07, 423.333 L 345.088, 413.684 L 313.509, 457.193 L 291.228, 447.895 L 281.404, 461.579 L 260.175, 452.632 L 270, 438.947 L 252.281, 431.579 z "/>
<path style="fill:rgb(255, 255, 0);fill-opacity:0;fill-rule:evenodd;stroke:rgb(255, 197, 0);stroke-width:1;" d="M 348.421, 113.333 L 361.754, 96.3158 L 381.579, 68.7719 L 393.86, 52.1053 L 405.614, 35.7895 L 427.193, 45.0877 L 449.474, 54.5614 L 436.842, 71.7544 L 472.807, 87.0175 L 485.439, 69.8246 L 507.193, 79.1228 L 494.737, 95.9649 L 515.965, 105.088 L 494.035, 135.088 L 472.632, 125.965 L 482.632, 112.632 L 424.912, 87.8947 L 392.281, 132.105 L 410.175, 139.649 L 398.246, 155.789 L 380.351, 148.246 L 359.474, 139.298 L 371.404, 123.158 L 348.421, 113.333 z "/>
<path style="fill:rgb(255, 0, 0);fill-opacity:0;fill-rule:evenodd;stroke:rgb(255, 197, 0);stroke-width:1;" d="M 780.877, 330.877 L 792.807, 314.386 L 815.263, 323.86 L 828.07, 306.491 L 849.649, 315.614 L 846.316, 320 L 836.842, 332.982 L 878.596, 350.702 L 891.404, 333.158 L 912.807, 342.281 L 900.175, 359.825 L 941.404, 377.193 L 954.211, 359.649 L 975.789, 368.772 L 962.982, 386.316 L 985.965, 395.965 L 974.035, 412.456 L 951.053, 402.632 L 938.246, 420.175 L 916.667, 411.053 L 929.474, 393.684 L 888.07, 376.14 L 875.088, 393.684 L 853.509, 384.561 L 866.491, 367.018 L 824.912, 349.474 L 812.105, 366.842 L 791.228, 358.07 L 803.86, 340.526 L 780.877, 330.877 z "/>
<path style="fill:rgb(0, 255, 0);fill-opacity:0;fill-rule:evenodd;stroke:rgb(255, 197, 0);stroke-width:1;" d="M 504.211, 710.702 L 516.14, 694.211 L 538.596, 703.509 L 551.053, 686.316 L 572.632, 695.263 L 560, 712.807 L 601.93, 730.526 L 614.912, 712.632 L 636.14, 721.579 L 623.158, 739.298 L 664.912, 756.842 L 677.719, 739.298 L 698.947, 748.246 L 685.965, 766.316 L 708.947, 775.965 L 697.368, 791.93 L 674.386, 782.281 L 661.404, 800 L 640.351, 791.053 L 653.158, 773.509 L 611.228, 755.789 L 598.596, 773.158 L 577.368, 764.211 L 590, 747.018 L 548.246, 729.474 L 535.614, 746.842 L 513.684, 737.544 L 526.491, 720 L 504.211, 710.702 z "/>
<path style="fill:rgb(0, 0, 255);fill-opacity:0;fill-rule:evenodd;stroke:rgb(255, 197, 0);stroke-width:1;" d="M 348.421, 113.333 L 361.754, 96.3158 L 383.684, 105.439 L 403.684, 77.8947 L 381.579, 68.7719 L 393.86, 52.1053 L 415.789, 61.2281 L 427.193, 45.0877 L 449.474, 54.5614 L 436.842, 71.7544 L 472.807, 87.0175 L 486.14, 70.7018 L 506.14, 79.1228 L 494.737, 95.9649 L 515.965, 105.088 L 494.035, 135.088 L 472.632, 125.965 L 482.632, 112.632 L 424.912, 87.8947 L 392.281, 132.105 L 410.175, 139.649 L 398.246, 155.789 L 380.351, 148.246 L 359.474, 139.298 L 371.404, 123.158 L 348.421, 113.333 z "/>
<path style="fill:rgb(255, 255, 0);fill-opacity:0;fill-rule:evenodd;stroke:rgb(255, 197, 0);stroke-width:1;" d="M 461.579, 346.316 L 478.246, 332.105 L 496.14, 344.211 L 497.719, 345.263 L 511.053, 333.86 L 529.298, 346.316 L 515.965, 357.544 L 551.404, 381.579 L 565.088, 370.175 L 583.509, 382.632 L 570, 394.211 L 605.439, 418.246 L 618.947, 406.667 L 637.368, 419.123 L 623.86, 430.702 L 643.333, 443.86 L 626.842, 458.07 L 607.193, 444.912 L 593.684, 456.316 L 575.263, 443.86 L 588.772, 432.281 L 553.333, 408.246 L 539.825, 419.825 L 521.404, 407.368 L 534.912, 395.965 L 499.474, 371.93 L 486.14, 383.333 L 467.895, 371.053 L 481.404, 359.649 L 461.579, 346.316 z "/>
<path style="fill:rgb(255, 0, 0);fill-opacity:0;fill-rule:evenodd;stroke:rgb(255, 197, 0);stroke-width:1;" d="M 357.193, 498.421 L 364.211, 480.351 L 389.298, 485.965 L 395.088, 471.053 L 418.596, 476.316 L 412.807, 491.053 L 458.596, 501.228 L 464.386, 486.491 L 487.719, 491.754 L 482.105, 506.491 L 527.544, 516.667 L 533.333, 501.93 L 557.018, 507.193 L 551.228, 521.93 L 576.14, 527.544 L 569.123, 545.789 L 544.211, 540.175 L 538.596, 554.912 L 514.912, 549.649 L 520.526, 534.737 L 475.088, 524.561 L 469.298, 539.474 L 445.965, 534.211 L 451.579, 519.649 L 405.789, 509.298 L 400.175, 524.035 L 376.667, 518.772 L 382.281, 504.035 L 357.193, 498.421 z "/>
<path style="fill:rgb(0, 255, 0);fill-opacity:0;fill-rule:evenodd;stroke:rgb(255, 197, 0);stroke-width:1;" d="M 847.193, 662.632 L 863.684, 648.772 L 867.544, 651.404 L 882.982, 661.93 L 896.491, 650.351 L 914.737, 662.807 L 901.053, 674.386 L 936.491, 698.596 L 950.175, 686.842 L 968.421, 699.474 L 954.737, 711.053 L 990.175, 735.088 L 1004.04, 723.333 L 1022.28, 735.789 L 1008.42, 747.544 L 1027.89, 760.877 L 1011.75, 774.737 L 992.105, 761.404 L 978.772, 772.807 L 960.877, 760.526 L 974.211, 749.123 L 938.421, 724.912 L 924.912, 736.491 L 906.842, 724.211 L 920.526, 712.632 L 884.737, 688.246 L 871.228, 699.825 L 852.982, 687.368 L 866.491, 675.965 L 847.193, 662.632 z "/>
<path style="fill:rgb(0, 0, 255);fill-opacity:0;fill-rule:evenodd;stroke:rgb(255, 197, 0);stroke-width:1;" d="M 753.684, 220.877 L 765.439, 204.912 L 788.421, 214.561 L 798.421, 201.053 L 820, 210 L 867.895, 230.351 L 888.246, 238.947 L 878.421, 252.281 L 901.93, 262.105 L 890, 278.421 L 866.667, 268.596 L 856.491, 282.456 L 835.088, 273.509 L 845.263, 259.474 L 798.07, 239.825 L 788.07, 253.509 L 766.667, 244.561 L 776.667, 230.702 L 753.684, 220.877 z "/>
<path style="fill:rgb(255, 255, 0);fill-opacity:0;fill-rule:evenodd;stroke:rgb(255, 197, 0);stroke-width:1;" d="M 562.105, 143.158 L 573.86, 127.018 L 597.018, 136.667 L 607.018, 123.158 L 628.596, 132.281 L 676.491, 152.456 L 696.842, 161.053 L 687.018, 174.386 L 710.351, 184.211 L 698.596, 200.526 L 675.088, 190.702 L 665.088, 204.561 L 643.684, 195.614 L 653.86, 181.754 L 606.667, 161.93 L 596.667, 175.614 L 575.263, 166.667 L 585.263, 152.807 L 562.105, 143.158 z "/>
<path style="fill:rgb(255, 0, 0);fill-opacity:0;fill-rule:evenodd;stroke:rgb(255, 197, 0);stroke-width:1;" d="M 657.018, 364.211 L 681.93, 358.772 L 674.912, 340 L 698.596, 334.737 L 704.211, 350 L 705.789, 353.86 L 731.053, 348.246 L 737.719, 366.316 L 712.456, 371.754 L 727.368, 411.053 L 752.807, 405.614 L 759.474, 423.509 L 734.035, 429.123 L 741.404, 448.596 L 717.719, 453.684 L 710.351, 434.211 L 685.088, 439.825 L 678.246, 421.579 L 703.509, 416.14 L 688.772, 377.018 L 663.86, 382.456 L 657.018, 364.211 z "/>
<path style="fill:rgb(0, 255, 0);fill-opacity:0;fill-rule:evenodd;stroke:rgb(255, 197, 0);stroke-width:1;" d="M 470, 621.228 L 495.088, 615.789 L 487.895, 596.667 L 511.579, 591.579 L 518.772, 610.526 L 570.351, 599.298 L 563.158, 580.175 L 587.018, 575.088 L 594.211, 594.211 L 619.298, 588.772 L 625.965, 606.667 L 600.877, 612.105 L 608.07, 631.228 L 584.386, 636.491 L 577.193, 617.193 L 525.439, 628.421 L 532.632, 647.719 L 509.123, 652.807 L 501.754, 633.509 L 476.667, 638.947 L 470, 621.228 z "/>
<path style="fill:rgb(0, 0, 255);fill-opacity:0;fill-rule:evenodd;stroke:rgb(255, 197, 0);stroke-width:1;" d="M 864.035, 499.825 L 889.123, 494.386 L 882.105, 475.439 L 905.614, 470.175 L 912.807, 489.298 L 964.561, 478.07 L 957.368, 458.947 L 981.053, 453.684 L 987.895, 472.281 L 988.246, 472.982 L 1013.33, 467.368 L 1020.18, 485.439 L 994.912, 490.877 L 1002.11, 510 L 978.421, 515.088 L 971.228, 495.965 L 919.474, 507.193 L 926.842, 526.316 L 903.158, 531.579 L 895.789, 512.105 L 870.702, 517.719 L 864.035, 499.825 z "/>
<path style="fill:rgb(255, 255, 0);fill-opacity:0;fill-rule:evenodd;stroke:rgb(255, 197, 0);stroke-width:1;" d="M 730.702, 683.158 L 756.14, 677.719 L 748.947, 658.596 L 772.105, 653.509 L 778.246, 669.825 L 779.298, 672.281 L 804.561, 666.842 L 811.404, 684.737 L 785.965, 690.351 L 800.877, 729.825 L 825.965, 724.386 L 832.807, 742.281 L 807.544, 747.719 L 814.737, 767.018 L 791.228, 772.105 L 784.035, 752.982 L 758.596, 758.421 L 751.93, 740.526 L 777.719, 734.912 L 762.807, 695.088 L 737.193, 700.526 L 730.702, 683.158 z "/>
<path style="fill:rgb(255, 0, 0);fill-opacity:0;fill-rule:evenodd;stroke:rgb(255, 197, 0);stroke-width:1;" d="M 167.895, 360.351 L 237.018, 266.842 L 260, 276.667 L 247.193, 293.86 L 268.07, 302.807 L 224.737, 361.754 L 204.211, 352.982 L 191.228, 370.351 L 168.246, 360.526 L 167.895, 360.351 z "/>
<path style="fill:rgb(0, 255, 0);fill-opacity:0;fill-rule:evenodd;stroke:rgb(255, 197, 0);stroke-width:1;" d="M 181.754, 672.807 L 193.684, 656.491 L 216.316, 665.965 L 226.14, 652.456 L 247.719, 661.579 L 237.895, 675.088 L 285.088, 695.088 L 295.088, 681.228 L 316.14, 690.175 L 306.14, 704.035 L 328.947, 713.684 L 317.018, 730 L 294.211, 720.351 L 284.211, 734.035 L 262.982, 725.088 L 272.982, 711.404 L 225.789, 691.579 L 216.14, 704.912 L 194.561, 695.789 L 204.386, 682.456 L 181.754, 672.807 z "/>
<path style="fill:rgb(0, 0, 255);fill-opacity:0;fill-rule:evenodd;stroke:rgb(255, 197, 0);stroke-width:1;" d="M 562.105, 143.158 L 573.86, 127.018 L 597.018, 136.667 L 607.018, 123.158 L 628.596, 132.281 L 618.596, 145.789 L 666.667, 165.965 L 676.491, 152.456 L 696.842, 161.053 L 687.018, 174.386 L 710.351, 184.211 L 698.596, 200.526 L 675.088, 190.702 L 665.088, 204.561 L 643.684, 195.614 L 653.86, 181.754 L 606.667, 161.93 L 596.667, 175.614 L 575.263, 166.667 L 585.263, 152.807 L 562.105, 143.158 z "/>
<path style="fill:rgb(255, 255, 0);fill-opacity:0;fill-rule:evenodd;stroke:rgb(255, 197, 0);stroke-width:1;" d="M 753.684, 220.877 L 765.439, 204.912 L 788.421, 214.561 L 798.421, 201.053 L 820, 210 L 810.175, 223.684 L 858.07, 243.86 L 867.895, 230.351 L 888.246, 238.947 L 878.421, 252.281 L 901.93, 262.105 L 890, 278.421 L 866.667, 268.596 L 856.491, 282.456 L 835.088, 273.509 L 845.263, 259.474 L 798.07, 239.825 L 788.07, 253.509 L 766.667, 244.561 L 776.667, 230.702 L 753.684, 220.877 z "/>
<path style="fill:rgb(255, 0, 0);fill-opacity:0;fill-rule:evenodd;stroke:rgb(255, 197, 0);stroke-width:1;" d="M 181.754, 672.807 L 193.684, 656.491 L 216.316, 665.965 L 226.14, 652.456 L 247.719, 661.579 L 237.895, 675.088 L 285.088, 695.088 L 295.088, 681.228 L 316.14, 690.175 L 306.14, 704.035 L 328.947, 713.684 L 317.018, 730 L 294.211, 720.351 L 272.982, 711.404 L 225.789, 691.579 L 204.386, 682.456 L 181.754, 672.807 z "/>
<path style="fill:rgb(0, 255, 0);fill-opacity:0;fill-rule:evenodd;stroke:rgb(255, 197, 0);stroke-width:1;" d="M 562.105, 143.158 L 573.86, 127.018 L 597.018, 136.667 L 618.596, 145.789 L 666.667, 165.965 L 687.018, 174.386 L 710.351, 184.211 L 698.596, 200.526 L 675.088, 190.702 L 665.088, 204.561 L 643.684, 195.614 L 653.86, 181.754 L 606.667, 161.93 L 596.667, 175.614 L 575.263, 166.667 L 585.263, 152.807 L 562.105, 143.158 z "/>
<path style="fill:rgb(0, 0, 255);fill-opacity:0;fill-rule:evenodd;stroke:rgb(255, 197, 0);stroke-width:1;" d="M 753.684, 220.877 L 765.439, 204.912 L 788.421, 214.561 L 810.175, 223.684 L 858.07, 243.86 L 878.421, 252.281 L 901.93, 262.105 L 890, 278.421 L 866.667, 268.596 L 856.491, 282.456 L 835.088, 273.509 L 845.263, 259.474 L 798.07, 239.825 L 788.07, 253.509 L 766.667, 244.561 L 776.667, 230.702 L 753.684, 220.877 z "/>
<path style="fill:rgb(255, 255, 0);fill-opacity:0;fill-rule:evenodd;stroke:rgb(255, 197, 0);stroke-width:1;" d="M 89.2982, 651.754 L 101.93, 634.386 L 123.684, 643.684 L 133.158, 630.702 L 193.684, 656.491 L 181.754, 672.807 L 204.386, 682.456 L 194.561, 695.789 L 89.2982, 651.754 z "/>
<path style="fill:rgb(255, 0, 0);fill-opacity:0;fill-rule:evenodd;stroke:rgb(255, 197, 0);stroke-width:1;" d="M 822.632, 93.6842 L 847.719, 81.7544 L 868.772, 107.193 L 872.807, 105.439 L 877.719, 111.579 L 880.877, 110 L 891.053, 122.456 L 888.07, 123.86 L 893.158, 130.175 L 889.825, 131.93 L 910.702, 157.368 L 885.614, 169.298 L 864.561, 143.86 L 860.175, 145.789 L 854.386, 138.772 L 850.877, 140.526 L 840.702, 128.07 L 844.211, 126.316 L 839.649, 121.053 L 843.684, 119.123 L 822.632, 93.6842 z "/>
<path style="fill:rgb(0, 255, 0);fill-opacity:0;fill-rule:evenodd;stroke:rgb(255, 197, 0);stroke-width:1;" d="M 44.0351, 531.228 L 94.7368, 461.93 L 117.193, 471.579 L 104.561, 489.123 L 125.789, 498.07 L 100.175, 532.982 L 79.1228, 524.211 L 66.8421, 540.877 L 44.0351, 531.228 z "/>
<path style="fill:rgb(0, 0, 255);fill-opacity:0;fill-rule:evenodd;stroke:rgb(255, 197, 0);stroke-width:1;" d="M 945.789, 144.035 L 969.474, 132.632 L 973.86, 137.895 L 990, 157.368 L 994.035, 155.439 L 999.298, 161.754 L 1002.28, 160.351 L 1012.11, 172.105 L 1008.95, 173.509 L 1014.21, 179.649 L 1010.18, 181.579 L 1031.05, 206.667 L 1007.19, 218.246 L 986.316, 193.158 L 982.807, 194.737 L 977.544, 188.596 L 974.386, 190.175 L 964.737, 178.421 L 967.719, 177.018 L 962.281, 170.702 L 966.316, 168.772 L 945.789, 144.035 z "/>
<path style="fill:rgb(255, 255, 0);fill-opacity:0;fill-rule:evenodd;stroke:rgb(255, 197, 0);stroke-width:1;" d="M 702.105, 41.4035 L 725.439, 30 L 743.158, 51.0526 L 746.491, 54.9123 L 750.175, 52.9825 L 755.614, 59.2982 L 758.596, 57.8947 L 768.246, 69.2982 L 765.263, 70.7018 L 770.526, 76.8421 L 766.667, 78.7719 L 787.368, 103.509 L 763.333, 115.088 L 742.632, 90.5263 L 738.947, 92.2807 L 733.684, 86.1404 L 730.877, 87.5439 L 721.228, 76.1404 L 724.035, 74.7368 L 718.772, 68.4211 L 722.982, 66.1404 L 702.105, 41.4035 z "/>
<path style="fill:rgb(255, 0, 0);fill-opacity:0;fill-rule:evenodd;stroke:rgb(255, 197, 0);stroke-width:1;" d="M 70.5263, 218.772 L 89.6491, 192.456 L 127.018, 208.07 L 135.088, 211.579 L 160.526, 222.105 L 138.772, 252.281 L 92.2807, 232.982 L 95.2632, 229.123 L 83.1579, 224.035 L 70.5263, 218.772 z "/>
<path style="fill:rgb(0, 255, 0);fill-opacity:0;fill-rule:evenodd;stroke:rgb(255, 197, 0);stroke-width:1;" d="M 307.544, 168.947 L 348.421, 113.333 L 371.404, 123.158 L 359.474, 139.298 L 380.351, 148.246 L 361.228, 174.211 L 340.877, 165.439 L 330.877, 178.947 L 307.895, 169.123 L 307.544, 168.947 z "/>
<path style="fill:rgb(0, 0, 255);fill-opacity:0;fill-rule:evenodd;stroke:rgb(255, 197, 0);stroke-width:1;" d="M 237.018, 266.842 L 248.947, 250.702 L 271.93, 260.351 L 284.737, 242.982 L 305.614, 251.93 L 292.982, 269.123 L 315.965, 278.947 L 303.86, 295.263 L 280.877, 285.439 L 268.07, 302.807 L 247.193, 293.86 L 260, 276.667 L 237.018, 266.842 z "/>
<path style="fill:rgb(255, 255, 0);fill-opacity:0;fill-rule:evenodd;stroke:rgb(255, 197, 0);stroke-width:1;" d="M 94.7368, 461.93 L 106.491, 445.965 L 129.123, 455.439 L 141.754, 438.07 L 163.158, 447.193 L 150.175, 464.737 L 173.158, 474.386 L 161.579, 490.351 L 138.596, 480.526 L 125.789, 498.07 L 104.561, 489.123 L 117.193, 471.579 L 94.7368, 461.93 z "/>
<path style="fill:rgb(255, 0, 0);fill-opacity:0;fill-rule:evenodd;stroke:rgb(255, 197, 0);stroke-width:1;" d="M 156.316, 376.667 L 168.246, 360.526 L 191.228, 370.351 L 204.211, 352.982 L 224.737, 361.754 L 212.281, 379.123 L 235.263, 388.947 L 223.158, 405.263 L 200.351, 395.439 L 187.544, 412.807 L 166.667, 403.86 L 179.298, 386.491 L 156.316, 376.667 z "/>
<path style="fill:rgb(0, 255, 0);fill-opacity:0;fill-rule:evenodd;stroke:rgb(255, 197, 0);stroke-width:1;" d="M 295.965, 185.263 L 307.895, 169.123 L 330.877, 178.947 L 340.877, 165.439 L 361.228, 174.211 L 361.754, 174.386 L 351.93, 187.719 L 374.912, 197.544 L 362.807, 213.86 L 339.825, 204.035 L 330, 217.544 L 309.123, 208.596 L 318.947, 195.088 L 295.965, 185.263 z "/>
<path style="fill:rgb(0, 0, 255);fill-opacity:0;fill-rule:evenodd;stroke:rgb(255, 197, 0);stroke-width:1;" d="M 104.561, 489.123 L 117.193, 471.579 L 129.123, 455.439 L 141.754, 438.07 L 163.158, 447.193 L 150.175, 464.737 L 173.158, 474.386 L 161.579, 490.351 L 138.596, 480.526 L 125.789, 498.07 L 104.561, 489.123 z "/>
<path style="fill:rgb(255, 255, 0);fill-opacity:0;fill-rule:evenodd;stroke:rgb(255, 197, 0);stroke-width:1;" d="M 247.193, 293.86 L 260, 276.667 L 271.93, 260.351 L 284.737, 242.982 L 305.614, 251.93 L 292.982, 269.123 L 315.965, 278.947 L 303.86, 295.263 L 280.877, 285.439 L 268.07, 302.807 L 247.193, 293.86 z "/>
<path style="fill:rgb(255, 0, 0);fill-opacity:0;fill-rule:evenodd;stroke:rgb(255, 197, 0);stroke-width:1;" d="M 166.667, 403.86 L 179.298, 386.491 L 191.228, 370.351 L 204.211, 352.982 L 224.737, 361.754 L 212.281, 379.123 L 235.263, 388.947 L 223.158, 405.263 L 200.351, 395.439 L 187.544, 412.807 L 166.667, 403.86 z "/>
<path style="fill:rgb(0, 255, 0);fill-opacity:0;fill-rule:evenodd;stroke:rgb(255, 197, 0);stroke-width:1;" d="M 81.0526, 214.912 L 86.8421, 207.018 L 118.421, 220.175 L 121.404, 215.965 L 129.474, 219.474 L 135.088, 211.579 L 160.526, 222.105 L 138.772, 252.281 L 92.2807, 232.982 L 95.2632, 229.123 L 83.1579, 224.035 L 87.7193, 217.719 L 81.0526, 214.912 z "/>
<path style="fill:rgb(0, 0, 255);fill-opacity:0;fill-rule:evenodd;stroke:rgb(255, 197, 0);stroke-width:1;" d="M 309.123, 208.596 L 318.947, 195.088 L 330.877, 178.947 L 340.877, 165.439 L 361.228, 174.211 L 361.754, 174.386 L 351.93, 187.719 L 374.912, 197.544 L 362.807, 213.86 L 339.825, 204.035 L 330, 217.544 L 309.123, 208.596 z "/>
<path style="fill:rgb(255, 255, 0);fill-opacity:0;fill-rule:evenodd;stroke:rgb(255, 197, 0);stroke-width:1;" d="M 50.7018, 291.404 L 52.2807, 289.298 L 54.9123, 290.351 L 63.1579, 278.947 L 67.3684, 280.702 L 69.2982, 278.246 L 67.7193, 277.544 L 71.5789, 272.281 L 113.158, 289.649 L 104.211, 301.93 L 100.877, 300.526 L 96.1404, 307.193 L 98.2456, 308.07 L 93.1579, 315.263 L 90.8772, 314.386 L 87.0175, 319.649 L 52.2807, 305.088 L 55.9649, 300 L 54.2105, 299.123 L 55.7895, 296.842 L 51.4035, 295.088 L 53.3333, 292.456 L 50.7018, 291.404 z "/>
<path style="fill:rgb(255, 0, 0);fill-opacity:0;fill-rule:evenodd;stroke:rgb(255, 197, 0);stroke-width:1;" d="M 73.3333, 177.895 L 78.0702, 171.579 L 79.4737, 169.474 L 86.8421, 172.632 L 98.2456, 156.667 L 90.8772, 153.684 L 93.3333, 150.351 L 97.7193, 144.211 L 125.439, 155.789 L 118.596, 165.263 L 111.404, 162.281 L 100, 178.07 L 107.193, 181.053 L 101.053, 189.474 L 73.3333, 177.895 z "/>
<path style="fill:rgb(0, 255, 0);fill-opacity:0;fill-rule:evenodd;stroke:rgb(255, 197, 0);stroke-width:1;" d="M 101.053, 189.474 L 107.193, 181.053 L 115.088, 184.386 L 126.491, 168.596 L 118.596, 165.263 L 125.439, 155.789 L 153.509, 167.544 L 146.667, 177.018 L 139.123, 173.86 L 127.544, 189.649 L 135.263, 192.807 L 129.123, 201.228 L 101.053, 189.474 z "/>
<path style="fill:rgb(0, 0, 255);fill-opacity:0;fill-rule:evenodd;stroke:rgb(255, 197, 0);stroke-width:1;" d="M 138.772, 129.123 L 154.035, 107.719 L 166.842, 90.3509 L 188.947, 99.6491 L 181.404, 110 L 169.474, 105.088 L 164.561, 111.579 L 162.281, 110.702 L 160.526, 113.158 L 158.07, 113.509 L 156.14, 112.632 L 155.263, 113.86 L 172.456, 121.053 L 167.193, 128.596 L 160.351, 138.07 L 138.772, 129.123 z "/>
<path style="fill:rgb(255, 255, 0);fill-opacity:0;fill-rule:evenodd;stroke:rgb(255, 197, 0);stroke-width:1;" d="M 28.5965, 160.702 L 33.6842, 153.509 L 36.6667, 154.737 L 49.4737, 137.018 L 46.4912, 135.789 L 53.6842, 125.789 L 75.614, 134.912 L 71.2281, 141.053 L 68.0702, 145.439 L 64.9123, 144.035 L 52.4561, 161.404 L 55.614, 162.632 L 51.0526, 168.947 L 50.3509, 169.825 L 28.5965, 160.702 z "/>
<path style="fill:rgb(255, 0, 0);fill-opacity:0;fill-rule:evenodd;stroke:rgb(255, 197, 0);stroke-width:1;" d="M 810.175, 223.684 L 820, 210 L 867.895, 230.351 L 858.07, 243.86 L 810.175, 223.684 z "/>
<path style="fill:rgb(0, 255, 0);fill-opacity:0;fill-rule:evenodd;stroke:rgb(255, 197, 0);stroke-width:1;" d="M 618.596, 145.789 L 628.596, 132.281 L 676.491, 152.456 L 666.667, 165.965 L 618.596, 145.789 z "/>
<path style="fill:rgb(0, 0, 255);fill-opacity:0;fill-rule:evenodd;stroke:rgb(255, 197, 0);stroke-width:1;" d="M 70.5263, 218.772 L 89.6491, 192.456 L 127.018, 208.07 L 135.088, 211.579 L 129.474, 219.474 L 121.404, 215.965 L 118.421, 220.175 L 86.8421, 207.018 L 81.0526, 214.912 L 87.7193, 217.719 L 83.1579, 224.035 L 70.5263, 218.772 z "/>
<path style="fill:rgb(255, 255, 0);fill-opacity:0;fill-rule:evenodd;stroke:rgb(255, 197, 0);stroke-width:1;" d="M 51.0526, 168.947 L 55.614, 162.632 L 59.2982, 164.211 L 69.2982, 150.351 L 68.4211, 148.596 L 70, 146.316 L 72.4561, 145.965 L 74.7368, 142.632 L 71.2281, 141.053 L 75.614, 134.912 L 97.7193, 144.211 L 93.3333, 150.351 L 89.6491, 148.947 L 87.3684, 152.281 L 88.4211, 154.211 L 86.8421, 156.316 L 84.9123, 156.842 L 75.2632, 170.351 L 78.0702, 171.579 L 73.3333, 177.895 L 73.1579, 178.246 L 51.0526, 168.947 z "/>
<path style="fill:rgb(255, 0, 0);fill-opacity:0;fill-rule:evenodd;stroke:rgb(255, 197, 0);stroke-width:1;" d="M 210.702, 89.2982 L 211.754, 87.7193 L 226.316, 67.7193 L 227.544, 65.9649 L 249.123, 75.0877 L 242.105, 84.9123 L 235.088, 94.5614 L 232.456, 98.4211 L 210.702, 89.2982 z "/>
<path style="fill:rgb(0, 255, 0);fill-opacity:0;fill-rule:evenodd;stroke:rgb(255, 197, 0);stroke-width:1;" d="M 40.8772, 214.035 L 44.5614, 208.772 L 52.4561, 198.07 L 54.5614, 194.912 L 65.614, 199.474 L 63.3333, 202.456 L 65.4386, 203.333 L 71.7544, 194.561 L 78.7719, 197.544 L 58.9474, 224.912 L 45.7895, 219.474 L 47.7193, 216.842 L 40.8772, 214.035 z "/>
<path style="fill:rgb(0, 0, 255);fill-opacity:0;fill-rule:evenodd;stroke:rgb(255, 197, 0);stroke-width:1;" d="M 156.316, 64.386 L 170.702, 44.5614 L 192.982, 53.8596 L 178.421, 73.6842 L 156.316, 64.386 z "/>
<path style="fill:rgb(255, 255, 0);fill-opacity:0;fill-rule:evenodd;stroke:rgb(255, 197, 0);stroke-width:1;" d="M 67.5439, 756.14 L 90, 725.439 L 104.035, 731.404 L 88.7719, 752.456 L 81.7544, 762.105 L 67.5439, 756.14 z "/>
<path style="fill:rgb(255, 0, 0);fill-opacity:0;fill-rule:evenodd;stroke:rgb(255, 197, 0);stroke-width:1;" d="M 148.947, 179.298 L 156.14, 169.298 L 197.368, 186.491 L 190, 196.667 L 151.579, 180.526 L 148.947, 179.298 z "/>
<path style="fill:rgb(0, 255, 0);fill-opacity:0;fill-rule:evenodd;stroke:rgb(255, 197, 0);stroke-width:1;" d="M 127.018, 208.07 L 134.035, 198.246 L 137.719, 199.825 L 176.14, 215.789 L 168.947, 225.614 L 160.526, 222.105 L 135.088, 211.579 L 127.018, 208.07 z "/>
<path style="fill:rgb(0, 0, 255);fill-opacity:0;fill-rule:evenodd;stroke:rgb(255, 197, 0);stroke-width:1;" d="M 181.053, 134.386 L 187.895, 125.088 L 200.526, 130.351 L 229.825, 142.632 L 223.158, 151.93 L 197.193, 141.053 L 194.211, 139.825 L 181.053, 134.386 z "/>
<path style="fill:rgb(255, 255, 0);fill-opacity:0;fill-rule:evenodd;stroke:rgb(255, 197, 0);stroke-width:1;" d="M 144.561, 190.351 L 151.579, 180.526 L 190, 196.667 L 182.982, 206.316 L 144.561, 190.351 z "/>
<path style="fill:rgb(255, 0, 0);fill-opacity:0;fill-rule:evenodd;stroke:rgb(255, 197, 0);stroke-width:1;" d="M 137.719, 199.825 L 144.561, 190.351 L 182.982, 206.316 L 176.14, 215.789 L 137.719, 199.825 z "/>
<path style="fill:rgb(0, 255, 0);fill-opacity:0;fill-rule:evenodd;stroke:rgb(255, 197, 0);stroke-width:1;" d="M 47.193, 735.088 L 62.2807, 714.035 L 76.1404, 719.825 L 71.7544, 725.965 L 65.4386, 734.386 L 60.8772, 740.877 L 47.193, 735.088 z "/>
<path style="fill:rgb(0, 0, 255);fill-opacity:0;fill-rule:evenodd;stroke:rgb(255, 197, 0);stroke-width:1;" d="M 200.526, 130.351 L 207.544, 120.702 L 237.018, 132.982 L 229.825, 142.632 L 200.526, 130.351 z "/>
<path style="fill:rgb(255, 255, 0);fill-opacity:0;fill-rule:evenodd;stroke:rgb(255, 197, 0);stroke-width:1;" d="M 207.544, 120.702 L 214.561, 110.877 L 220.702, 113.509 L 244.035, 123.158 L 237.018, 132.982 L 207.544, 120.702 z "/>
<path style="fill:rgb(255, 0, 0);fill-opacity:0;fill-rule:evenodd;stroke:rgb(255, 197, 0);stroke-width:1;" d="M 189.825, 151.404 L 197.193, 141.053 L 223.158, 151.93 L 215.614, 162.281 L 189.825, 151.404 z "/>
<path style="fill:rgb(0, 255, 0);fill-opacity:0;fill-rule:evenodd;stroke:rgb(255, 197, 0);stroke-width:1;" d="M 116.842, 118.421 L 117.368, 117.719 L 132.632, 96.6667 L 134.035, 94.7368 L 145.088, 99.2982 L 142.456, 102.982 L 127.895, 122.982 L 116.842, 118.421 z "/>
<path style="fill:rgb(0, 0, 255);fill-opacity:0;fill-rule:evenodd;stroke:rgb(255, 197, 0);stroke-width:1;" d="M 160.351, 138.07 L 167.193, 128.596 L 181.053, 134.386 L 194.211, 139.825 L 187.193, 149.474 L 160.351, 138.07 z "/>
<path style="fill:rgb(255, 255, 0);fill-opacity:0;fill-rule:evenodd;stroke:rgb(255, 197, 0);stroke-width:1;" d="M 127.018, 124.211 L 127.895, 122.982 L 142.456, 102.982 L 154.035, 107.719 L 138.772, 129.123 L 127.018, 124.211 z "/>
<path style="fill:rgb(255, 0, 0);fill-opacity:0;fill-rule:evenodd;stroke:rgb(255, 197, 0);stroke-width:1;" d="M 184.035, 86.3158 L 189.825, 78.4211 L 204.211, 58.4211 L 214.912, 62.9825 L 200.526, 82.9825 L 194.035, 80.3509 L 188.421, 88.0702 L 184.035, 86.3158 z "/>
<path style="fill:rgb(0, 255, 0);fill-opacity:0;fill-rule:evenodd;stroke:rgb(255, 197, 0);stroke-width:1;" d="M 94.5614, 108.246 L 109.825, 87.0175 L 121.579, 91.9298 L 106.316, 113.158 L 94.5614, 108.246 z "/>
<path style="fill:rgb(0, 0, 255);fill-opacity:0;fill-rule:evenodd;stroke:rgb(255, 197, 0);stroke-width:1;" d="M 72.6316, 98.9474 L 87.8947, 77.8947 L 99.1228, 82.6316 L 83.8596, 103.684 L 72.6316, 98.9474 z "/>
<path style="fill:rgb(255, 255, 0);fill-opacity:0;fill-rule:evenodd;stroke:rgb(255, 197, 0);stroke-width:1;" d="M 28.2456, 80.5263 L 43.6842, 59.2982 L 54.7368, 64.0351 L 39.8246, 84.5614 L 39.4737, 85.0877 L 28.2456, 80.5263 z "/>
<path style="fill:rgb(255, 0, 0);fill-opacity:0;fill-rule:evenodd;stroke:rgb(255, 197, 0);stroke-width:1;" d="M 132.982, 56.3158 L 148.246, 35.0877 L 159.298, 39.8246 L 144.912, 59.6491 L 144.035, 60.8772 L 132.982, 56.3158 z "/>
<path style="fill:rgb(0, 255, 0);fill-opacity:0;fill-rule:evenodd;stroke:rgb(255, 197, 0);stroke-width:1;" d="M 106.316, 113.158 L 121.579, 91.9298 L 132.632, 96.6667 L 117.368, 117.719 L 106.316, 113.158 z "/>
<path style="fill:rgb(0, 0, 255);fill-opacity:0;fill-rule:evenodd;stroke:rgb(255, 197, 0);stroke-width:1;" d="M 50.7018, 89.8246 L 51.0526, 89.2982 L 65.9649, 68.7719 L 77.0175, 73.3333 L 61.7544, 94.386 L 50.7018, 89.8246 z "/>
<path style="fill:rgb(255, 255, 0);fill-opacity:0;fill-rule:evenodd;stroke:rgb(255, 197, 0);stroke-width:1;" d="M 39.8246, 84.5614 L 54.7368, 64.0351 L 65.9649, 68.7719 L 51.0526, 89.2982 L 39.8246, 84.5614 z "/>
<path style="fill:rgb(255, 0, 0);fill-opacity:0;fill-rule:evenodd;stroke:rgb(255, 197, 0);stroke-width:1;" d="M 61.7544, 94.386 L 77.0175, 73.3333 L 87.8947, 77.8947 L 72.6316, 98.9474 L 61.7544, 94.386 z "/>
<path style="fill:rgb(0, 255, 0);fill-opacity:0;fill-rule:evenodd;stroke:rgb(255, 197, 0);stroke-width:1;" d="M 122.105, 51.7544 L 137.368, 30.5263 L 148.246, 35.0877 L 132.982, 56.3158 L 122.105, 51.7544 z "/>
<path style="fill:rgb(0, 0, 255);fill-opacity:0;fill-rule:evenodd;stroke:rgb(255, 197, 0);stroke-width:1;" d="M 111.404, 47.193 L 126.667, 25.9649 L 137.368, 30.5263 L 122.105, 51.7544 L 111.404, 47.193 z "/>
<path style="fill:rgb(255, 255, 0);fill-opacity:0;fill-rule:evenodd;stroke:rgb(255, 197, 0);stroke-width:1;" d="M 144.912, 59.6491 L 159.298, 39.8246 L 170.702, 44.5614 L 156.316, 64.386 L 144.912, 59.6491 z "/>
<path style="fill:rgb(255, 0, 0);fill-opacity:0;fill-rule:evenodd;stroke:rgb(255, 197, 0);stroke-width:1;" d="M 83.8596, 103.684 L 99.1228, 82.6316 L 109.825, 87.0175 L 94.5614, 108.246 L 83.8596, 103.684 z "/>
<path style="fill:rgb(0, 255, 0);fill-opacity:0;fill-rule:evenodd;stroke:rgb(255, 197, 0);stroke-width:1;" d="M 200.526, 82.9825 L 214.912, 62.9825 L 226.316, 67.7193 L 211.754, 87.7193 L 200.526, 82.9825 z "/>
<path style="fill:rgb(0, 0, 255);fill-opacity:0;fill-rule:evenodd;stroke:rgb(255, 197, 0);stroke-width:1;" d="M 178.421, 73.6842 L 192.982, 53.8596 L 204.211, 58.4211 L 189.825, 78.4211 L 178.421, 73.6842 z "/>
<path style="fill:rgb(255, 255, 0);fill-opacity:0;fill-rule:evenodd;stroke:rgb(255, 197, 0);stroke-width:1;" d="M 220.702, 113.509 L 227.544, 103.86 L 228.246, 104.035 L 250.877, 113.509 L 244.035, 123.158 L 220.702, 113.509 z "/>
<path style="fill:rgb(255, 0, 0);fill-opacity:0;fill-rule:evenodd;stroke:rgb(255, 197, 0);stroke-width:1;" d="M 242.105, 84.9123 L 249.123, 75.0877 L 271.93, 84.5614 L 264.737, 94.5614 L 242.105, 84.9123 z "/>
<path style="fill:rgb(0, 255, 0);fill-opacity:0;fill-rule:evenodd;stroke:rgb(255, 197, 0);stroke-width:1;" d="M 235.088, 94.5614 L 242.105, 84.9123 L 264.737, 94.5614 L 257.719, 104.211 L 235.088, 94.5614 z "/>
<path style="fill:rgb(0, 0, 255);fill-opacity:0;fill-rule:evenodd;stroke:rgb(255, 197, 0);stroke-width:1;" d="M 228.246, 104.035 L 232.456, 98.4211 L 235.088, 94.5614 L 257.719, 104.211 L 250.877, 113.509 L 228.246, 104.035 z "/>
<path style="fill:rgb(255, 255, 0);fill-opacity:0;fill-rule:evenodd;stroke:rgb(255, 197, 0);stroke-width:1;" d="M 734.035, 69.4737 L 748.07, 63.1579 L 757.895, 75.7895 L 743.86, 82.1053 L 734.035, 69.4737 z "/>
<path style="fill:rgb(255, 0, 0);fill-opacity:0;fill-rule:evenodd;stroke:rgb(255, 197, 0);stroke-width:1;" d="M 900, 32.6316 L 916.491, 25.2632 L 924.912, 35.7895 L 908.246, 43.3333 L 900, 32.6316 z "/>
<path style="fill:rgb(0, 255, 0);fill-opacity:0;fill-rule:evenodd;stroke:rgb(255, 197, 0);stroke-width:1;" d="M 974.211, 173.333 L 988.07, 166.842 L 998.07, 179.474 L 984.035, 185.789 L 974.211, 173.333 z "/>
<path style="fill:rgb(0, 0, 255);fill-opacity:0;fill-rule:evenodd;stroke:rgb(255, 197, 0);stroke-width:1;" d="M 854.561, 121.754 L 868.421, 115.263 L 878.421, 127.895 L 864.386, 134.211 L 854.561, 121.754 z "/>
<path style="fill:rgb(255, 255, 0);fill-opacity:0;fill-rule:evenodd;stroke:rgb(255, 197, 0);stroke-width:1;" d="M 118.07, 232.982 L 125.088, 223.509 L 138.421, 229.123 L 131.228, 238.772 L 118.07, 232.982 z "/>
<path style="fill:rgb(255, 0, 0);fill-opacity:0;fill-rule:evenodd;stroke:rgb(255, 197, 0);stroke-width:1;" d="M 0, 591.404 L 11.9298, 575.088 L 34.9123, 584.737 L 55.0877, 557.368 L 32.1053, 547.544 L 44.0351, 531.228 L 66.8421, 540.877 L 79.1228, 524.211 L 100.175, 532.982 L 118.246, 540.702 L 106.491, 557.018 L 88.2456, 549.298 L 55.7895, 593.684 L 114.386, 618.421 L 124.561, 604.561 L 145.614, 613.509 L 133.158, 630.702 L 123.684, 643.684 L 101.93, 634.386 L 89.2982, 651.754 L 68.0702, 642.632 L 80.7018, 625.439 L 43.8596, 609.825 L 31.2281, 627.018 L 10.5263, 618.246 L 22.9825, 601.053 L 0, 591.404 z "/>
<path style="fill:rgb(0, 255, 0);fill-opacity:0;fill-rule:evenodd;stroke:rgb(255, 197, 0);stroke-width:1;" d="M 3.68421, 206.14 L 12.4561, 194.035 L 21.4035, 197.719 L 28.4211, 188.07 L 19.4737, 184.211 L 27.7193, 172.807 L 60.5263, 186.667 L 54.5614, 194.912 L 52.4561, 198.07 L 43.5088, 194.386 L 35.7895, 205.088 L 44.5614, 208.772 L 40.8772, 214.035 L 36.4912, 219.825 L 3.68421, 206.14 z "/>
<path style="fill:rgb(0, 0, 255);fill-opacity:0;fill-rule:evenodd;stroke:rgb(255, 197, 0);stroke-width:1;" d="M 14.5614, 391.404 L 21.5789, 381.579 L 47.0175, 392.456 L 40, 402.105 L 14.5614, 391.404 z "/>
<path style="fill:rgb(255, 255, 0);fill-opacity:0;fill-rule:evenodd;stroke:rgb(255, 197, 0);stroke-width:1;" d="M 17.5439, 75.9649 L 32.807, 54.7368 L 43.6842, 59.2982 L 28.2456, 80.5263 L 17.5439, 75.9649 z "/>
<path style="fill:rgb(255, 0, 0);fill-opacity:0;fill-rule:evenodd;stroke:rgb(255, 197, 0);stroke-width:1;" d="M 23.5088, 145.789 L 34.0351, 131.228 L 46.1404, 136.316 L 35.614, 150.877 L 23.5088, 145.789 z "/>
<path style="fill:rgb(0, 255, 0);fill-opacity:0;fill-rule:evenodd;stroke:rgb(255, 197, 0);stroke-width:1;" d="M 246.14, 40 L 258.947, 22.4561 L 260, 21.0526 L 303.86, 39.4737 L 290.175, 58.5965 L 246.14, 40 z "/>
<path style="fill:rgb(0, 0, 255);fill-opacity:0;fill-rule:evenodd;stroke:rgb(255, 197, 0);stroke-width:1;" d="M 74.2105, 44.2105 L 87.193, 26.4912 L 89.1228, 27.3684 L 92.6316, 22.6316 L 92.6316, 20.3509 L 88.0702, 18.4211 L 94.386, 9.47368 L 116.842, 18.9474 L 115.263, 21.2281 L 110.351, 28.0702 L 106.14, 26.3158 L 103.684, 27.193 L 102.632, 28.5965 L 104.035, 29.1228 L 88.7719, 50.3509 L 74.2105, 44.2105 z "/>
<path style="fill:rgb(255, 255, 0);fill-opacity:0;fill-rule:evenodd;stroke:rgb(255, 197, 0);stroke-width:1;" d="M 99.8246, 42.4561 L 110.351, 28.0702 L 115.263, 21.2281 L 126.667, 25.9649 L 111.404, 47.193 L 99.8246, 42.4561 z "/>
<path style="fill:rgb(255, 0, 0);fill-opacity:0;fill-rule:evenodd;stroke:rgb(255, 197, 0);stroke-width:1;" d="M 234.912, 35.9649 L 248.07, 17.8947 L 258.947, 22.4561 L 246.14, 40 L 245.789, 40.5263 L 234.912, 35.9649 z "/>
<path style="fill:rgb(0, 255, 0);fill-opacity:0;fill-rule:evenodd;stroke:rgb(255, 197, 0);stroke-width:1;" d="M 855.263, 47.8947 L 888.947, 31.9298 L 886.491, 28.9474 L 894.561, 25.0877 L 892.632, 22.807 L 908.947, 15.0877 L 910.877, 17.3684 L 919.123, 13.3333 L 921.404, 15.9649 L 954.912, 0 L 970.702, 19.1228 L 937.018, 34.9123 L 939.825, 38.4211 L 930.526, 42.807 L 932.807, 45.4386 L 916.316, 53.1579 L 914.211, 50.5263 L 907.018, 53.8596 L 904.561, 50.8772 L 871.053, 66.8421 L 855.263, 47.8947 z "/>
<path style="fill:rgb(0, 0, 255);fill-opacity:0;fill-rule:evenodd;stroke:rgb(255, 197, 0);stroke-width:1;" d="M 974.211, 173.333 L 988.07, 166.842 L 998.07, 179.474 L 984.035, 185.789 L 974.211, 173.333 z "/>
</svg>