<?xml version="1.0" encoding="iso-8859-1" standalone="no"?>
<!DOCTYPE svg PUBLIC "-//W3C//DTD SVG 1.0//EN" "http://www.w3.org/TR/2001/REC-SVG-20010904/DTD/svg10.dtd">
<svg xmlns="http://www.w3.org/2000/svg" width="990" height="800">
<path style="fill:rgb(255, 0, 0);fill-opacity:0;fill-rule:evenodd;stroke:rgb(255, 0, 139);stroke-width:1;" d="M 674.493, 450.535 L 683.744, 444.774 L 687.934, 448.789 L 690.727, 447.043 L 689.854, 446.171 L 723.718, 425.573 L 724.765, 426.446 L 727.907, 424.525 L 723.718, 420.685 L 733.144, 414.925 L 742.745, 424.002 L 747.458, 421.034 L 790.748, 462.055 L 804.888, 453.502 L 834.039, 481.082 L 819.725, 489.81 L 951.342, 614.968 L 946.28, 618.11 L 955.88, 627.187 L 946.803, 632.773 L 942.789, 628.933 L 939.821, 630.853 L 940.694, 631.726 L 907.179, 652.149 L 906.306, 651.451 L 903.164, 653.371 L 906.83, 656.862 L 897.578, 662.448 L 888.326, 653.72 L 883.09, 656.862 L 679.031, 462.754 L 684.093, 459.612 L 674.493, 450.535 z M 778.18, 535.719 L 798.429, 555.444 L 832.468, 535.37 L 824.962, 528.038 L 833.341, 522.976 L 813.092, 503.077 L 793.367, 514.772 L 799.127, 520.183 L 789.701, 525.769 L 786.21, 522.278 L 780.624, 525.42 L 786.384, 531.006 L 778.18, 535.719 z "/>
<path style="fill:rgb(0, 255, 0);fill-opacity:0;fill-rule:evenodd;stroke:rgb(255, 0, 139);stroke-width:1;" d="M 694.043, 658.259 L 747.807, 625.966 L 745.538, 623.696 L 754.091, 614.619 L 745.189, 605.891 L 767.009, 592.625 L 777.307, 602.575 L 796.334, 620.903 L 800, 618.809 L 882.042, 697.534 L 861.27, 710.103 L 866.507, 715.165 L 806.982, 767.358 L 694.043, 658.259 z "/>
<path style="fill:rgb(0, 0, 255);fill-opacity:0;fill-rule:evenodd;stroke:rgb(255, 0, 139);stroke-width:1;" d="M 593.498, 140.345 L 610.081, 119.572 L 608.684, 119.049 L 626.838, 96.3561 L 627.886, 96.7052 L 644.12, 76.4565 L 676.238, 91.2939 L 670.652, 98.2762 L 691.774, 108.051 L 696.836, 101.593 L 725.987, 115.208 L 720.925, 121.318 L 741.872, 131.093 L 747.982, 123.413 L 780.624, 138.425 L 764.041, 159.197 L 765.263, 159.721 L 747.283, 182.064 L 746.236, 181.54 L 729.653, 202.313 L 697.709, 187.475 L 703.295, 180.493 L 682.871, 171.067 L 667.51, 190.268 L 637.486, 176.478 L 652.673, 157.277 L 632.424, 148.025 L 626.315, 155.531 L 593.498, 140.345 z "/>
<path style="fill:rgb(255, 255, 0);fill-opacity:0;fill-rule:evenodd;stroke:rgb(255, 0, 139);stroke-width:1;" d="M 598.909, 568.187 L 606.415, 563.648 L 604.669, 562.077 L 688.283, 514.947 L 745.014, 569.06 L 675.715, 643.072 L 598.909, 568.187 z "/>
<path style="fill:rgb(255, 0, 0);fill-opacity:0;fill-rule:evenodd;stroke:rgb(255, 0, 139);stroke-width:1;" d="M 102.989, 576.042 L 141.218, 532.402 L 147.153, 535.37 L 154.659, 526.642 L 166.703, 532.751 L 168.972, 530.308 L 207.55, 550.033 L 205.106, 552.651 L 215.405, 558.062 L 273.882, 590.007 L 270.391, 593.847 L 263.583, 600.829 L 244.731, 619.856 L 242.287, 622.474 L 239.843, 624.744 L 236.701, 628.06 L 232.686, 632.075 L 229.719, 635.043 L 226.227, 638.534 L 157.102, 603.273 L 102.989, 576.042 z "/>
<path style="fill:rgb(0, 255, 0);fill-opacity:0;fill-rule:evenodd;stroke:rgb(255, 0, 139);stroke-width:1;" d="M 837.879, 113.637 L 886.581, 51.4947 L 915.034, 64.412 L 916.43, 62.6664 L 966.354, 85.3589 L 965.132, 87.1045 L 990.967, 98.9745 L 942.265, 161.117 L 914.161, 148.374 L 911.892, 151.342 L 861.968, 128.649 L 864.237, 125.682 L 837.879, 113.637 z "/>
<path style="fill:rgb(0, 0, 255);fill-opacity:0;fill-rule:evenodd;stroke:rgb(255, 0, 139);stroke-width:1;" d="M 19.5505, 667.161 L 80.2967, 595.418 L 163.736, 636.09 L 102.989, 707.833 L 19.5505, 667.161 z "/>
<path style="fill:rgb(255, 255, 0);fill-opacity:0;fill-rule:evenodd;stroke:rgb(255, 0, 139);stroke-width:1;" d="M 123.413, 309.317 L 140.694, 287.497 L 192.189, 311.063 L 204.931, 295.178 L 153.262, 271.438 L 170.369, 250.142 L 274.056, 297.622 L 262.71, 311.935 L 238.796, 342.134 L 227.1, 356.622 L 123.413, 309.317 z "/>
<path style="fill:rgb(255, 0, 0);fill-opacity:0;fill-rule:evenodd;stroke:rgb(255, 0, 139);stroke-width:1;" d="M 218.896, 221.165 L 221.689, 217.849 L 226.926, 211.215 L 233.733, 202.662 L 241.065, 193.061 L 250.142, 197.251 L 277.373, 162.339 L 300.415, 172.813 L 355.4, 197.949 L 306, 260.79 L 218.896, 221.165 z "/>
<path style="fill:rgb(0, 255, 0);fill-opacity:0;fill-rule:evenodd;stroke:rgb(255, 0, 139);stroke-width:1;" d="M 431.508, 742.221 L 472.354, 695.265 L 573.074, 746.062 L 573.598, 747.283 L 573.773, 748.68 L 573.424, 749.902 L 534.148, 790.05 L 532.751, 790.923 L 531.879, 791.272 L 530.133, 791.447 L 529.26, 791.272 L 527.689, 790.923 L 431.508, 742.221 z "/>
<path style="fill:rgb(0, 0, 255);fill-opacity:0;fill-rule:evenodd;stroke:rgb(255, 0, 139);stroke-width:1;" d="M 530.308, 247.523 L 567.314, 205.28 L 608.51, 226.053 L 612.35, 221.689 L 643.77, 237.574 L 639.93, 241.938 L 681.475, 263.059 L 644.469, 305.477 L 624.045, 295.178 L 631.901, 286.275 L 610.43, 275.278 L 606.066, 280.166 L 576.042, 264.979 L 580.406, 260.092 L 558.935, 249.094 L 551.08, 258.172 L 530.308, 247.523 z "/>
<path style="fill:rgb(255, 255, 0);fill-opacity:0;fill-rule:evenodd;stroke:rgb(255, 0, 139);stroke-width:1;" d="M 618.983, 137.552 L 654.419, 93.0395 L 759.503, 141.392 L 724.067, 185.73 L 618.983, 137.552 z "/>
<path style="fill:rgb(255, 0, 0);fill-opacity:0;fill-rule:evenodd;stroke:rgb(255, 0, 139);stroke-width:1;" d="M 605.542, 748.68 L 645.865, 708.008 L 669.605, 723.893 L 675.889, 728.082 L 663.146, 738.381 L 655.99, 744.316 L 679.904, 758.106 L 683.046, 755.313 L 686.537, 752.52 L 692.472, 756.535 L 687.934, 760.375 L 692.996, 764.041 L 701.898, 756.535 L 730.351, 732.97 L 757.931, 759.153 L 756.36, 760.55 L 715.165, 794.414 L 708.357, 800 L 605.542, 748.68 z "/>
<path style="fill:rgb(0, 255, 0);fill-opacity:0;fill-rule:evenodd;stroke:rgb(255, 0, 139);stroke-width:1;" d="M 49.5745, 425.922 L 50.971, 424.176 L 84.6607, 383.679 L 169.321, 424.525 L 134.235, 466.594 L 49.5745, 425.922 z "/>
<path style="fill:rgb(0, 0, 255);fill-opacity:0;fill-rule:evenodd;stroke:rgb(255, 0, 139);stroke-width:1;" d="M 84.6607, 383.679 L 118.176, 343.356 L 202.837, 384.202 L 169.321, 424.525 L 84.6607, 383.679 z "/>
<path style="fill:rgb(255, 255, 0);fill-opacity:0;fill-rule:evenodd;stroke:rgb(255, 0, 139);stroke-width:1;" d="M 609.732, 118.874 L 627.711, 96.1815 L 768.405, 160.244 L 761.248, 169.147 L 750.425, 182.937 L 609.732, 118.874 z "/>
<path style="fill:rgb(255, 0, 0);fill-opacity:0;fill-rule:evenodd;stroke:rgb(255, 0, 139);stroke-width:1;" d="M 246.476, 503.251 L 309.841, 486.668 L 310.19, 487.366 L 338.643, 550.731 L 340.563, 555.095 L 317.696, 570.98 L 305.302, 563.474 L 307.921, 561.03 L 303.208, 550.731 L 298.494, 540.257 L 294.305, 544.272 L 292.21, 542.876 L 280.166, 554.397 L 282.435, 555.793 L 274.405, 563.474 L 264.281, 557.19 L 268.47, 552.127 L 260.615, 534.846 L 291.163, 526.816 L 285.926, 515.121 L 255.379, 523.151 L 246.476, 503.251 z "/>
<path style="fill:rgb(0, 255, 0);fill-opacity:0;fill-rule:evenodd;stroke:rgb(255, 0, 139);stroke-width:1;" d="M 462.405, 435.697 L 518.089, 417.019 L 560.157, 459.786 L 521.056, 494.523 L 462.405, 435.697 z "/>
<path style="fill:rgb(0, 0, 255);fill-opacity:0;fill-rule:evenodd;stroke:rgb(255, 0, 139);stroke-width:1;" d="M 171.591, 199.52 L 220.816, 136.679 L 263.059, 155.88 L 235.828, 190.792 L 228.322, 200.218 L 233.733, 202.662 L 226.926, 211.215 L 221.689, 217.849 L 218.896, 221.165 L 171.591, 199.52 z "/>
<path style="fill:rgb(255, 255, 0);fill-opacity:0;fill-rule:evenodd;stroke:rgb(255, 0, 139);stroke-width:1;" d="M 394.152, 528.911 L 424.525, 507.964 L 427.493, 510.408 L 438.49, 519.31 L 443.378, 515.819 L 440.061, 513.376 L 472.529, 490.334 L 504.822, 517.39 L 436.744, 564.521 L 394.152, 528.911 z M 416.845, 539.908 L 424.875, 546.018 L 439.014, 535.195 L 430.984, 529.26 L 416.845, 539.908 z "/>
<path style="fill:rgb(255, 0, 0);fill-opacity:0;fill-rule:evenodd;stroke:rgb(255, 0, 139);stroke-width:1;" d="M 614.27, 567.314 L 646.913, 547.065 L 659.306, 558.412 L 691.774, 538.337 L 715.863, 560.681 L 681.126, 582.326 L 693.17, 593.323 L 662.797, 612.175 L 614.27, 567.314 z "/>
<path style="fill:rgb(0, 255, 0);fill-opacity:0;fill-rule:evenodd;stroke:rgb(255, 0, 139);stroke-width:1;" d="M 296.051, 135.457 L 305.128, 123.936 L 307.746, 125.158 L 331.486, 95.1342 L 358.368, 107.179 L 348.942, 119.398 L 367.27, 127.602 L 360.637, 135.981 L 373.205, 141.741 L 379.315, 134.061 L 402.007, 144.36 L 379.14, 173.162 L 296.051, 135.457 z "/>
<path style="fill:rgb(0, 0, 255);fill-opacity:0;fill-rule:evenodd;stroke:rgb(255, 0, 139);stroke-width:1;" d="M 100.545, 389.963 L 130.919, 352.782 L 198.123, 384.552 L 167.75, 421.732 L 100.545, 389.963 z "/>
<path style="fill:rgb(255, 255, 0);fill-opacity:0;fill-rule:evenodd;stroke:rgb(255, 0, 139);stroke-width:1;" d="M 321.187, 90.4211 L 329.915, 79.2494 L 323.98, 76.631 L 340.388, 55.684 L 437.094, 99.4981 L 419.114, 122.191 L 396.072, 111.717 L 385.599, 107.004 L 365.699, 97.9271 L 358.368, 107.179 L 331.486, 95.1342 L 321.187, 90.4211 z "/>
<path style="fill:rgb(255, 0, 0);fill-opacity:0;fill-rule:evenodd;stroke:rgb(255, 0, 139);stroke-width:1;" d="M 494.698, 638.01 L 517.739, 619.158 L 522.976, 614.794 L 561.204, 648.484 L 559.808, 649.356 L 573.424, 661.401 L 541.654, 688.108 L 539.21, 690.028 L 535.544, 692.996 L 531.704, 696.138 L 528.388, 699.105 L 525.595, 701.375 L 498.014, 687.235 L 528.737, 662.448 L 520.358, 656.339 L 494.698, 638.01 z "/>
<path style="fill:rgb(0, 255, 0);fill-opacity:0;fill-rule:evenodd;stroke:rgb(255, 0, 139);stroke-width:1;" d="M 525.595, 701.375 L 528.388, 699.105 L 531.704, 696.138 L 535.544, 692.996 L 539.21, 690.028 L 541.654, 688.108 L 573.424, 661.401 L 574.122, 660.877 L 583.199, 668.907 L 576.915, 676.064 L 587.563, 682.522 L 595.243, 687.235 L 612.175, 697.883 L 616.016, 700.153 L 619.332, 702.247 L 588.086, 733.493 L 525.595, 701.375 z "/>
<path style="fill:rgb(0, 0, 255);fill-opacity:0;fill-rule:evenodd;stroke:rgb(255, 0, 139);stroke-width:1;" d="M 639.407, 177.177 L 698.931, 101.244 L 728.955, 114.685 L 669.431, 190.617 L 639.407, 177.177 z "/>
<path style="fill:rgb(255, 255, 0);fill-opacity:0;fill-rule:evenodd;stroke:rgb(255, 0, 139);stroke-width:1;" d="M 103.338, 389.439 L 131.617, 355.051 L 195.331, 385.075 L 167.052, 419.463 L 103.338, 389.439 z "/>
<path style="fill:rgb(255, 0, 0);fill-opacity:0;fill-rule:evenodd;stroke:rgb(255, 0, 139);stroke-width:1;" d="M 101.418, 740.825 L 102.466, 739.603 L 144.883, 690.727 L 172.463, 704.691 L 185.206, 710.975 L 172.114, 725.987 L 149.073, 752.52 L 137.377, 765.961 L 101.418, 740.825 z "/>
<path style="fill:rgb(0, 255, 0);fill-opacity:0;fill-rule:evenodd;stroke:rgb(255, 0, 139);stroke-width:1;" d="M 310.19, 487.366 L 355.924, 475.322 L 379.14, 528.388 L 363.954, 532.402 L 366.398, 537.465 L 350.164, 541.654 L 352.607, 547.065 L 338.643, 550.731 L 310.19, 487.366 z "/>
<path style="fill:rgb(0, 0, 255);fill-opacity:0;fill-rule:evenodd;stroke:rgb(255, 0, 139);stroke-width:1;" d="M 309.317, 584.77 L 368.667, 545.843 L 383.504, 557.888 L 407.593, 576.74 L 413.179, 581.453 L 378.966, 606.415 L 373.554, 601.702 L 349.465, 582.675 L 329.391, 597.338 L 309.317, 584.77 z "/>
<path style="fill:rgb(255, 255, 0);fill-opacity:0;fill-rule:evenodd;stroke:rgb(255, 0, 139);stroke-width:1;" d="M 17.4558, 248.745 L 53.7639, 204.233 L 99.8473, 225.878 L 63.5392, 270.391 L 17.4558, 248.745 z "/>
<path style="fill:rgb(255, 0, 0);fill-opacity:0;fill-rule:evenodd;stroke:rgb(255, 0, 139);stroke-width:1;" d="M 264.281, 657.735 L 283.133, 638.708 L 289.068, 642.199 L 299.891, 631.202 L 281.213, 620.554 L 297.622, 603.971 L 343.88, 629.806 L 344.578, 630.504 L 344.927, 631.551 L 344.927, 632.075 L 344.403, 632.948 L 303.208, 675.016 L 302.16, 675.715 L 301.462, 675.889 L 300.24, 675.889 L 264.281, 657.735 z "/>
<path style="fill:rgb(0, 255, 0);fill-opacity:0;fill-rule:evenodd;stroke:rgb(255, 0, 139);stroke-width:1;" d="M 186.603, 318.045 L 192.189, 311.063 L 204.931, 295.178 L 210.517, 288.196 L 212.437, 287.846 L 218.198, 286.799 L 220.642, 286.45 L 259.917, 304.08 L 260.441, 305.477 L 262.012, 310.19 L 262.71, 311.935 L 238.796, 342.134 L 236.352, 342.483 L 230.591, 343.356 L 228.322, 343.53 L 189.046, 325.9 L 188.523, 324.329 L 186.952, 319.616 L 186.603, 318.045 z "/>
<path style="fill:rgb(0, 0, 255);fill-opacity:0;fill-rule:evenodd;stroke:rgb(255, 0, 139);stroke-width:1;" d="M 240.367, 110.321 L 271.612, 70.6961 L 286.624, 77.5038 L 280.34, 85.3589 L 292.559, 90.7702 L 298.669, 83.0897 L 322.06, 93.7377 L 300.065, 121.667 L 305.128, 123.936 L 296.051, 135.457 L 281.737, 128.998 L 240.367, 110.321 z "/>
<path style="fill:rgb(255, 255, 0);fill-opacity:0;fill-rule:evenodd;stroke:rgb(255, 0, 139);stroke-width:1;" d="M 400.262, 615.317 L 435.348, 590.53 L 472.703, 617.412 L 478.988, 612.35 L 487.89, 605.193 L 492.778, 601.178 L 504.822, 609.906 L 443.552, 659.306 L 426.446, 650.578 L 459.786, 623.522 L 447.916, 614.968 L 428.54, 630.679 L 420.161, 626.14 L 400.262, 615.317 z "/>
<path style="fill:rgb(255, 0, 0);fill-opacity:0;fill-rule:evenodd;stroke:rgb(255, 0, 139);stroke-width:1;" d="M 322.933, 687.235 L 367.619, 642.374 L 406.197, 661.75 L 361.859, 707.135 L 322.933, 687.235 z "/>
<path style="fill:rgb(0, 255, 0);fill-opacity:0;fill-rule:evenodd;stroke:rgb(255, 0, 139);stroke-width:1;" d="M 106.83, 388.916 L 132.49, 357.67 L 191.839, 385.599 L 166.179, 416.845 L 106.83, 388.916 z "/>
<path style="fill:rgb(0, 0, 255);fill-opacity:0;fill-rule:evenodd;stroke:rgb(255, 0, 139);stroke-width:1;" d="M 518.089, 417.019 L 581.104, 402.706 L 603.797, 423.827 L 560.157, 459.786 L 518.089, 417.019 z "/>
<path style="fill:rgb(255, 255, 0);fill-opacity:0;fill-rule:evenodd;stroke:rgb(255, 0, 139);stroke-width:1;" d="M 583.373, 488.065 L 628.584, 456.295 L 664.717, 490.683 L 622.649, 520.183 L 613.397, 512.328 L 606.764, 506.568 L 618.809, 497.84 L 610.779, 491.381 L 596.64, 501.68 L 583.373, 488.065 z "/>
<path style="fill:rgb(255, 0, 0);fill-opacity:0;fill-rule:evenodd;stroke:rgb(255, 0, 139);stroke-width:1;" d="M 813.965, 573.424 L 857.953, 546.891 L 892.341, 579.708 L 848.527, 606.24 L 813.965, 573.424 z "/>
<path style="fill:rgb(0, 255, 0);fill-opacity:0;fill-rule:evenodd;stroke:rgb(255, 0, 139);stroke-width:1;" d="M 705.389, 187.126 L 752.346, 127.951 L 777.831, 139.647 L 730.875, 198.822 L 705.389, 187.126 z "/>
<path style="fill:rgb(0, 0, 255);fill-opacity:0;fill-rule:evenodd;stroke:rgb(255, 0, 139);stroke-width:1;" d="M 600.829, 139.472 L 647.436, 80.6459 L 672.573, 92.1667 L 625.966, 150.993 L 600.829, 139.472 z "/>
<path style="fill:rgb(255, 255, 0);fill-opacity:0;fill-rule:evenodd;stroke:rgb(255, 0, 139);stroke-width:1;" d="M 250.142, 197.251 L 262.361, 181.89 L 266.55, 183.81 L 269.867, 179.446 L 288.545, 187.999 L 325.202, 204.582 L 306, 229.02 L 250.666, 204.058 L 254.331, 199.171 L 250.142, 197.251 z "/>
<path style="fill:rgb(255, 0, 0);fill-opacity:0;fill-rule:evenodd;stroke:rgb(255, 0, 139);stroke-width:1;" d="M 204.931, 688.457 L 222.213, 668.558 L 280.864, 696.487 L 281.911, 697.185 L 282.261, 697.534 L 282.61, 698.058 L 282.784, 699.105 L 282.435, 700.153 L 282.086, 700.676 L 261.663, 720.925 L 204.931, 688.457 z "/>
<path style="fill:rgb(0, 255, 0);fill-opacity:0;fill-rule:evenodd;stroke:rgb(255, 0, 139);stroke-width:1;" d="M 75.06, 156.753 L 126.38, 91.2939 L 154.484, 104.211 L 144.709, 116.779 L 135.981, 112.765 L 94.436, 165.656 L 75.06, 156.753 z "/>
<path style="fill:rgb(0, 0, 255);fill-opacity:0;fill-rule:evenodd;stroke:rgb(255, 0, 139);stroke-width:1;" d="M 149.073, 752.52 L 172.114, 725.987 L 223.085, 759.153 L 203.36, 778.878 L 177.002, 761.597 L 169.671, 767.881 L 149.073, 752.52 z "/>
<path style="fill:rgb(255, 255, 0);fill-opacity:0;fill-rule:evenodd;stroke:rgb(255, 0, 139);stroke-width:1;" d="M 193.934, 316.823 L 212.263, 293.432 L 222.213, 291.687 L 252.935, 305.826 L 255.379, 312.808 L 236.701, 336.374 L 226.751, 338.294 L 196.378, 324.504 L 193.934, 316.823 z "/>
<path style="fill:rgb(255, 0, 0);fill-opacity:0;fill-rule:evenodd;stroke:rgb(255, 0, 139);stroke-width:1;" d="M 493.476, 580.93 L 523.849, 559.808 L 532.228, 566.79 L 546.018, 557.19 L 565.918, 576.042 L 523.151, 605.717 L 505.171, 590.879 L 493.476, 580.93 z "/>
<path style="fill:rgb(0, 255, 0);fill-opacity:0;fill-rule:evenodd;stroke:rgb(255, 0, 139);stroke-width:1;" d="M 225.18, 639.581 L 226.227, 638.534 L 229.719, 635.043 L 232.686, 632.075 L 236.701, 628.06 L 239.843, 624.744 L 242.287, 622.474 L 244.731, 619.856 L 263.583, 600.829 L 270.391, 593.847 L 273.882, 590.007 L 297.622, 603.971 L 281.213, 620.554 L 278.246, 623.347 L 251.015, 650.927 L 249.967, 651.975 L 225.18, 639.581 z "/>
<path style="fill:rgb(0, 0, 255);fill-opacity:0;fill-rule:evenodd;stroke:rgb(255, 0, 139);stroke-width:1;" d="M 113.288, 387.694 L 133.886, 362.557 L 185.381, 386.821 L 164.783, 412.132 L 113.288, 387.694 z "/>
<path style="fill:rgb(255, 255, 0);fill-opacity:0;fill-rule:evenodd;stroke:rgb(255, 0, 139);stroke-width:1;" d="M 114.51, 572.9 L 147.153, 535.37 L 154.659, 526.642 L 166.703, 532.751 L 205.106, 552.651 L 215.405, 558.062 L 212.437, 561.554 L 206.502, 568.361 L 200.567, 565.394 L 204.757, 560.506 L 164.957, 540.257 L 136.854, 572.551 L 169.321, 589.483 L 166.878, 592.45 L 162.863, 596.989 L 114.51, 572.9 z "/>
<path style="fill:rgb(255, 0, 0);fill-opacity:0;fill-rule:evenodd;stroke:rgb(255, 0, 139);stroke-width:1;" d="M 542.527, 621.951 L 584.072, 593.149 L 609.732, 617.587 L 571.852, 646.389 L 542.527, 621.951 z "/>
<path style="fill:rgb(0, 255, 0);fill-opacity:0;fill-rule:evenodd;stroke:rgb(255, 0, 139);stroke-width:1;" d="M 136.854, 572.551 L 164.957, 540.257 L 204.757, 560.506 L 200.567, 565.394 L 197.425, 563.823 L 184.159, 579.009 L 177.526, 586.166 L 175.605, 588.436 L 172.987, 591.228 L 169.321, 589.483 L 136.854, 572.551 z "/>
<path style="fill:rgb(0, 0, 255);fill-opacity:0;fill-rule:evenodd;stroke:rgb(255, 0, 139);stroke-width:1;" d="M 544.272, 515.645 L 583.373, 488.065 L 596.64, 501.68 L 604.32, 509.535 L 598.036, 513.201 L 603.971, 518.089 L 570.98, 540.956 L 544.272, 515.645 z "/>
<path style="fill:rgb(255, 255, 0);fill-opacity:0;fill-rule:evenodd;stroke:rgb(255, 0, 139);stroke-width:1;" d="M 94.436, 165.656 L 135.981, 112.765 L 144.709, 116.779 L 154.484, 104.211 L 166.005, 109.448 L 114.51, 174.733 L 94.436, 165.656 z "/>
<path style="fill:rgb(255, 0, 0);fill-opacity:0;fill-rule:evenodd;stroke:rgb(255, 0, 139);stroke-width:1;" d="M 204.233, 521.405 L 204.582, 517.216 L 205.63, 513.201 L 246.127, 502.727 L 246.476, 503.251 L 255.379, 523.151 L 260.615, 534.846 L 268.47, 552.127 L 264.281, 557.19 L 204.233, 521.405 z "/>
<path style="fill:rgb(0, 255, 0);fill-opacity:0;fill-rule:evenodd;stroke:rgb(255, 0, 139);stroke-width:1;" d="M 68.2522, 640.803 L 68.9505, 635.741 L 71.2197, 630.853 L 75.2346, 626.664 L 80.4713, 623.347 L 86.7554, 621.078 L 93.5632, 620.205 L 100.371, 620.729 L 106.655, 622.474 L 112.241, 625.442 L 116.779, 629.457 L 119.572, 634.17 L 120.794, 639.232 L 120.096, 644.469 L 117.652, 649.356 L 113.812, 653.546 L 108.575, 656.862 L 102.291, 659.132 L 95.4833, 660.004 L 88.6755, 659.481 L 82.2169, 657.735 L 76.631, 654.768 L 72.2671, 650.753 L 69.4741, 646.04 L 68.2522, 640.803 z "/>
<path style="fill:rgb(0, 0, 255);fill-opacity:0;fill-rule:evenodd;stroke:rgb(255, 0, 139);stroke-width:1;" d="M 472.878, 563.823 L 518.787, 531.53 L 546.018, 557.19 L 532.228, 566.79 L 523.849, 559.808 L 493.476, 580.93 L 472.878, 563.823 z "/>
<path style="fill:rgb(255, 255, 0);fill-opacity:0;fill-rule:evenodd;stroke:rgb(255, 0, 139);stroke-width:1;" d="M 226.926, 211.215 L 233.733, 202.662 L 302.335, 233.733 L 306, 229.02 L 325.202, 204.582 L 327.82, 201.091 L 291.338, 184.508 L 295.527, 179.271 L 340.039, 199.52 L 303.557, 245.778 L 226.926, 211.215 z "/>
<path style="fill:rgb(255, 0, 0);fill-opacity:0;fill-rule:evenodd;stroke:rgb(255, 0, 139);stroke-width:1;" d="M 172.114, 725.987 L 185.206, 710.975 L 187.65, 708.182 L 242.461, 739.952 L 223.085, 759.153 L 172.114, 725.987 z "/>
<path style="fill:rgb(0, 255, 0);fill-opacity:0;fill-rule:evenodd;stroke:rgb(255, 0, 139);stroke-width:1;" d="M 580.406, 260.092 L 612.525, 223.784 L 641.152, 238.796 L 610.43, 275.278 L 580.406, 260.092 z "/>
<path style="fill:rgb(0, 0, 255);fill-opacity:0;fill-rule:evenodd;stroke:rgb(255, 0, 139);stroke-width:1;" d="M 221.689, 217.849 L 226.926, 211.215 L 303.557, 245.778 L 340.039, 199.52 L 295.527, 179.271 L 298.669, 175.256 L 349.989, 198.473 L 348.069, 200.916 L 304.953, 255.553 L 221.689, 217.849 z "/>
<path style="fill:rgb(255, 255, 0);fill-opacity:0;fill-rule:evenodd;stroke:rgb(255, 0, 139);stroke-width:1;" d="M 348.942, 119.398 L 358.368, 107.179 L 365.699, 97.9271 L 385.599, 107.004 L 378.442, 116.256 L 388.741, 120.969 L 396.072, 111.717 L 419.114, 122.191 L 415.798, 126.555 L 405.499, 139.821 L 402.007, 144.36 L 379.315, 134.061 L 382.806, 129.697 L 383.33, 128.998 L 372.158, 123.936 L 368.667, 128.3 L 367.27, 127.602 L 348.942, 119.398 z "/>
<path style="fill:rgb(255, 0, 0);fill-opacity:0;fill-rule:evenodd;stroke:rgb(255, 0, 139);stroke-width:1;" d="M 114.51, 174.733 L 166.005, 109.448 L 181.366, 116.43 L 156.055, 148.549 L 130.569, 180.842 L 129.871, 181.715 L 114.51, 174.733 z "/>
<path style="fill:rgb(0, 255, 0);fill-opacity:0;fill-rule:evenodd;stroke:rgb(255, 0, 139);stroke-width:1;" d="M 369.714, 471.831 L 397.294, 464.674 L 414.925, 503.6 L 391.359, 519.834 L 369.714, 471.831 z "/>
<path style="fill:rgb(0, 0, 255);fill-opacity:0;fill-rule:evenodd;stroke:rgb(255, 0, 139);stroke-width:1;" d="M 337.246, 773.816 L 369.365, 741.523 L 395.374, 754.615 L 362.732, 787.432 L 337.246, 773.816 z "/>
<path style="fill:rgb(255, 255, 0);fill-opacity:0;fill-rule:evenodd;stroke:rgb(255, 0, 139);stroke-width:1;" d="M 523.151, 605.717 L 565.918, 576.042 L 584.072, 593.149 L 542.527, 621.951 L 541.305, 622.823 L 523.151, 605.717 z "/>
<path style="fill:rgb(255, 0, 0);fill-opacity:0;fill-rule:evenodd;stroke:rgb(255, 0, 139);stroke-width:1;" d="M 349.465, 582.675 L 383.504, 557.888 L 407.593, 576.74 L 373.554, 601.702 L 349.465, 582.675 z "/>
<path style="fill:rgb(0, 255, 0);fill-opacity:0;fill-rule:evenodd;stroke:rgb(255, 0, 139);stroke-width:1;" d="M 157.102, 192.887 L 206.328, 130.046 L 220.816, 136.679 L 171.591, 199.52 L 157.102, 192.887 z "/>
<path style="fill:rgb(0, 0, 255);fill-opacity:0;fill-rule:evenodd;stroke:rgb(255, 0, 139);stroke-width:1;" d="M 443.552, 659.306 L 504.822, 609.906 L 517.739, 619.158 L 494.698, 638.01 L 459.262, 667.336 L 443.552, 659.306 z "/>
<path style="fill:rgb(255, 255, 0);fill-opacity:0;fill-rule:evenodd;stroke:rgb(255, 0, 139);stroke-width:1;" d="M 177.526, 586.166 L 184.159, 579.009 L 221.34, 597.862 L 224.307, 594.894 L 229.544, 598.036 L 239.145, 587.737 L 263.583, 600.829 L 244.731, 619.856 L 177.526, 586.166 z "/>
<path style="fill:rgb(255, 0, 0);fill-opacity:0;fill-rule:evenodd;stroke:rgb(255, 0, 139);stroke-width:1;" d="M 120.794, 388.566 L 137.726, 367.969 L 178.049, 386.995 L 161.117, 407.593 L 120.794, 388.566 z "/>
<path style="fill:rgb(0, 255, 0);fill-opacity:0;fill-rule:evenodd;stroke:rgb(255, 0, 139);stroke-width:1;" d="M 202.138, 312.459 L 211.041, 301.287 L 227.973, 297.971 L 242.81, 304.779 L 247, 317.172 L 237.923, 328.693 L 220.991, 331.835 L 206.502, 325.376 L 202.138, 312.459 z "/>
<path style="fill:rgb(0, 0, 255);fill-opacity:0;fill-rule:evenodd;stroke:rgb(255, 0, 139);stroke-width:1;" d="M 88.3264, 731.573 L 101.244, 716.736 L 130.22, 683.395 L 144.883, 690.727 L 102.466, 739.603 L 101.418, 740.825 L 88.3264, 731.573 z "/>
<path style="fill:rgb(255, 255, 0);fill-opacity:0;fill-rule:evenodd;stroke:rgb(255, 0, 139);stroke-width:1;" d="M 414.925, 733.842 L 459.262, 688.632 L 472.354, 695.265 L 431.508, 742.221 L 414.925, 733.842 z "/>
<path style="fill:rgb(255, 0, 0);fill-opacity:0;fill-rule:evenodd;stroke:rgb(255, 0, 139);stroke-width:1;" d="M 411.084, 459.612 L 433.079, 453.851 L 456.993, 474.274 L 426.969, 495.047 L 411.434, 460.484 L 411.084, 459.612 z "/>
<path style="fill:rgb(0, 255, 0);fill-opacity:0;fill-rule:evenodd;stroke:rgb(255, 0, 139);stroke-width:1;" d="M 361.859, 707.135 L 406.197, 661.75 L 420.336, 668.907 L 376.347, 714.292 L 361.859, 707.135 z "/>
<path style="fill:rgb(0, 0, 255);fill-opacity:0;fill-rule:evenodd;stroke:rgb(255, 0, 139);stroke-width:1;" d="M 401.135, 726.86 L 445.298, 681.65 L 459.262, 688.632 L 414.925, 733.842 L 401.135, 726.86 z "/>
<path style="fill:rgb(255, 255, 0);fill-opacity:0;fill-rule:evenodd;stroke:rgb(255, 0, 139);stroke-width:1;" d="M 184.159, 579.009 L 197.425, 563.823 L 200.567, 565.394 L 206.502, 568.361 L 241.065, 585.643 L 239.145, 587.737 L 229.544, 598.036 L 224.307, 594.894 L 221.34, 597.862 L 184.159, 579.009 z "/>
<path style="fill:rgb(255, 0, 0);fill-opacity:0;fill-rule:evenodd;stroke:rgb(255, 0, 139);stroke-width:1;" d="M 388.043, 720.227 L 431.682, 674.667 L 445.298, 681.65 L 401.135, 726.86 L 388.043, 720.227 z "/>
<path style="fill:rgb(0, 255, 0);fill-opacity:0;fill-rule:evenodd;stroke:rgb(255, 0, 139);stroke-width:1;" d="M 587.563, 682.522 L 594.894, 675.191 L 601.178, 678.857 L 614.096, 665.765 L 623.871, 671.525 L 624.569, 674.493 L 638.883, 682.697 L 619.332, 702.247 L 616.016, 700.153 L 612.175, 697.883 L 595.243, 687.235 L 587.563, 682.522 z "/>
<path style="fill:rgb(0, 0, 255);fill-opacity:0;fill-rule:evenodd;stroke:rgb(255, 0, 139);stroke-width:1;" d="M 130.22, 683.395 L 167.401, 640.803 L 182.064, 648.134 L 147.851, 687.41 L 144.883, 690.727 L 130.22, 683.395 z "/>
<path style="fill:rgb(255, 255, 0);fill-opacity:0;fill-rule:evenodd;stroke:rgb(255, 0, 139);stroke-width:1;" d="M 187.65, 708.182 L 201.266, 692.472 L 206.677, 695.44 L 201.091, 701.026 L 252.237, 730.351 L 242.461, 739.952 L 187.65, 708.182 z "/>
<path style="fill:rgb(255, 0, 0);fill-opacity:0;fill-rule:evenodd;stroke:rgb(255, 0, 139);stroke-width:1;" d="M 218.896, 221.165 L 221.689, 217.849 L 304.953, 255.553 L 348.069, 200.916 L 349.989, 198.473 L 298.669, 175.256 L 300.415, 172.813 L 355.4, 197.949 L 306, 260.79 L 218.896, 221.165 z "/>
<path style="fill:rgb(0, 255, 0);fill-opacity:0;fill-rule:evenodd;stroke:rgb(255, 0, 139);stroke-width:1;" d="M 27.4056, 312.634 L 33.166, 305.651 L 114.51, 343.53 L 108.051, 351.211 L 97.578, 346.149 L 94.6105, 346.498 L 93.9123, 344.403 L 83.2642, 339.341 L 80.1222, 339.69 L 79.5985, 337.595 L 68.9505, 332.533 L 65.8084, 332.882 L 65.2847, 330.788 L 54.6367, 325.726 L 51.4947, 326.075 L 50.971, 323.805 L 40.3229, 318.743 L 37.3554, 319.267 L 36.6572, 316.998 L 27.4056, 312.634 z "/>
<path style="fill:rgb(0, 0, 255);fill-opacity:0;fill-rule:evenodd;stroke:rgb(255, 0, 139);stroke-width:1;" d="M 161.641, 694.218 L 196.552, 654.069 L 197.425, 653.022 L 211.215, 660.004 L 175.431, 701.2 L 161.641, 694.218 z "/>
<path style="fill:rgb(255, 255, 0);fill-opacity:0;fill-rule:evenodd;stroke:rgb(255, 0, 139);stroke-width:1;" d="M 329.391, 597.338 L 349.465, 582.675 L 373.554, 601.702 L 378.966, 606.415 L 363.256, 618.11 L 329.391, 597.338 z "/>
<path style="fill:rgb(255, 0, 0);fill-opacity:0;fill-rule:evenodd;stroke:rgb(255, 0, 139);stroke-width:1;" d="M 200.742, 92.3413 L 233.384, 50.6219 L 247.873, 57.2551 L 215.23, 98.9745 L 200.742, 92.3413 z "/>
<path style="fill:rgb(0, 255, 0);fill-opacity:0;fill-rule:evenodd;stroke:rgb(255, 0, 139);stroke-width:1;" d="M 102.989, 576.042 L 141.218, 532.402 L 147.153, 535.37 L 114.51, 572.9 L 162.863, 596.989 L 160.244, 599.956 L 157.102, 603.273 L 102.989, 576.042 z "/>
<path style="fill:rgb(0, 0, 255);fill-opacity:0;fill-rule:evenodd;stroke:rgb(255, 0, 139);stroke-width:1;" d="M 172.463, 704.691 L 175.431, 701.2 L 211.215, 660.004 L 223.958, 666.463 L 222.213, 668.558 L 204.931, 688.457 L 201.266, 692.472 L 187.65, 708.182 L 185.206, 710.975 L 172.463, 704.691 z "/>
<path style="fill:rgb(255, 255, 0);fill-opacity:0;fill-rule:evenodd;stroke:rgb(255, 0, 139);stroke-width:1;" d="M 403.578, 638.883 L 420.161, 626.14 L 428.54, 630.679 L 447.916, 614.968 L 459.786, 623.522 L 426.446, 650.578 L 403.578, 638.883 z "/>
<path style="fill:rgb(255, 0, 0);fill-opacity:0;fill-rule:evenodd;stroke:rgb(255, 0, 139);stroke-width:1;" d="M 125.682, 277.547 L 154.484, 242.287 L 170.369, 250.142 L 153.262, 271.438 L 142.439, 285.403 L 127.777, 278.595 L 125.682, 277.547 z "/>
<path style="fill:rgb(0, 255, 0);fill-opacity:0;fill-rule:evenodd;stroke:rgb(255, 0, 139);stroke-width:1;" d="M 147.851, 687.41 L 182.064, 648.134 L 182.762, 647.087 L 196.552, 654.069 L 161.641, 694.218 L 147.851, 687.41 z "/>
<path style="fill:rgb(0, 0, 255);fill-opacity:0;fill-rule:evenodd;stroke:rgb(255, 0, 139);stroke-width:1;" d="M 355.924, 475.322 L 369.714, 471.831 L 391.359, 519.834 L 379.14, 528.388 L 355.924, 475.322 z "/>
<path style="fill:rgb(255, 255, 0);fill-opacity:0;fill-rule:evenodd;stroke:rgb(255, 0, 139);stroke-width:1;" d="M 201.091, 701.026 L 206.677, 695.44 L 201.266, 692.472 L 204.931, 688.457 L 261.663, 720.925 L 252.237, 730.351 L 201.091, 701.026 z "/>
<path style="fill:rgb(255, 0, 0);fill-opacity:0;fill-rule:evenodd;stroke:rgb(255, 0, 139);stroke-width:1;" d="M 376.347, 714.292 L 420.336, 668.907 L 431.682, 674.667 L 388.043, 720.227 L 376.347, 714.292 z "/>
<path style="fill:rgb(0, 255, 0);fill-opacity:0;fill-rule:evenodd;stroke:rgb(255, 0, 139);stroke-width:1;" d="M 555.793, 692.821 L 560.855, 686.537 L 566.267, 679.206 L 573.598, 674.144 L 576.915, 676.064 L 587.563, 682.522 L 595.243, 687.235 L 592.974, 689.854 L 602.4, 695.091 L 600.131, 697.534 L 598.56, 699.105 L 597.862, 698.756 L 595.243, 697.36 L 592.45, 695.963 L 582.151, 706.786 L 555.793, 692.821 z "/>
<path style="fill:rgb(0, 0, 255);fill-opacity:0;fill-rule:evenodd;stroke:rgb(255, 0, 139);stroke-width:1;" d="M 47.3053, 758.63 L 61.4445, 741.174 L 61.619, 740.999 L 86.93, 758.979 L 67.3794, 780.799 L 63.5392, 779.577 L 60.5717, 775.562 L 64.9356, 770.849 L 47.3053, 758.63 z "/>
<path style="fill:rgb(255, 255, 0);fill-opacity:0;fill-rule:evenodd;stroke:rgb(255, 0, 139);stroke-width:1;" d="M 670.652, 137.203 L 678.158, 128.3 L 692.123, 125.856 L 704.342, 131.442 L 707.484, 141.916 L 700.676, 150.818 L 686.712, 153.437 L 674.493, 147.676 L 670.652, 137.203 z "/>
<path style="fill:rgb(255, 0, 0);fill-opacity:0;fill-rule:evenodd;stroke:rgb(255, 0, 139);stroke-width:1;" d="M 652.847, 698.233 L 662.797, 688.283 L 679.206, 701.2 L 689.854, 692.647 L 703.469, 705.564 L 685.49, 720.227 L 679.031, 715.863 L 652.847, 698.233 z "/>
<path style="fill:rgb(0, 255, 0);fill-opacity:0;fill-rule:evenodd;stroke:rgb(255, 0, 139);stroke-width:1;" d="M 215.23, 98.9745 L 247.873, 57.2551 L 260.441, 63.0155 L 227.798, 104.56 L 215.23, 98.9745 z "/>
<path style="fill:rgb(0, 0, 255);fill-opacity:0;fill-rule:evenodd;stroke:rgb(255, 0, 139);stroke-width:1;" d="M 227.798, 104.56 L 260.441, 63.0155 L 273.184, 68.6014 L 271.612, 70.6961 L 240.367, 110.321 L 227.798, 104.56 z "/>
<path style="fill:rgb(255, 255, 0);fill-opacity:0;fill-rule:evenodd;stroke:rgb(255, 0, 139);stroke-width:1;" d="M 295.527, 752.346 L 301.986, 745.887 L 303.382, 746.585 L 308.27, 741.523 L 315.601, 734.192 L 328.868, 720.925 L 342.832, 727.907 L 310.714, 760.201 L 295.527, 752.346 z "/>
<path style="fill:rgb(255, 0, 0);fill-opacity:0;fill-rule:evenodd;stroke:rgb(255, 0, 139);stroke-width:1;" d="M 235.828, 190.792 L 263.059, 155.88 L 277.373, 162.339 L 250.142, 197.251 L 241.065, 193.061 L 235.828, 190.792 z "/>
<path style="fill:rgb(0, 255, 0);fill-opacity:0;fill-rule:evenodd;stroke:rgb(255, 0, 139);stroke-width:1;" d="M 671.874, 747.633 L 673.969, 745.887 L 711.324, 714.816 L 720.925, 723.893 L 690.901, 748.854 L 686.537, 752.52 L 683.046, 755.313 L 671.874, 747.633 z "/>
<path style="fill:rgb(0, 0, 255);fill-opacity:0;fill-rule:evenodd;stroke:rgb(255, 0, 139);stroke-width:1;" d="M 323.805, 767.009 L 355.924, 734.541 L 369.365, 741.523 L 337.246, 773.816 L 330.613, 770.325 L 330.439, 770.5 L 323.805, 767.009 z "/>
<path style="fill:rgb(255, 255, 0);fill-opacity:0;fill-rule:evenodd;stroke:rgb(255, 0, 139);stroke-width:1;" d="M 310.714, 760.201 L 342.832, 727.907 L 355.924, 734.541 L 323.805, 767.009 L 310.714, 760.201 z "/>
<path style="fill:rgb(255, 0, 0);fill-opacity:0;fill-rule:evenodd;stroke:rgb(255, 0, 139);stroke-width:1;" d="M 663.146, 738.381 L 675.889, 728.082 L 685.49, 720.227 L 703.469, 705.564 L 712.023, 714.292 L 711.324, 714.816 L 673.969, 745.887 L 663.146, 738.381 z "/>
<path style="fill:rgb(0, 255, 0);fill-opacity:0;fill-rule:evenodd;stroke:rgb(255, 0, 139);stroke-width:1;" d="M 130.569, 180.842 L 156.055, 148.549 L 170.02, 154.833 L 144.534, 187.126 L 130.569, 180.842 z "/>
<path style="fill:rgb(0, 0, 255);fill-opacity:0;fill-rule:evenodd;stroke:rgb(255, 0, 139);stroke-width:1;" d="M 156.055, 148.549 L 181.366, 116.43 L 195.331, 122.714 L 170.02, 154.833 L 156.055, 148.549 z "/>
<path style="fill:rgb(255, 255, 0);fill-opacity:0;fill-rule:evenodd;stroke:rgb(255, 0, 139);stroke-width:1;" d="M 397.12, 464.325 L 411.434, 460.484 L 426.969, 495.047 L 414.925, 503.6 L 397.294, 464.674 L 397.12, 464.325 z "/>
<path style="fill:rgb(255, 0, 0);fill-opacity:0;fill-rule:evenodd;stroke:rgb(255, 0, 139);stroke-width:1;" d="M 206.502, 568.361 L 212.437, 561.554 L 270.391, 593.847 L 263.583, 600.829 L 239.145, 587.737 L 241.065, 585.643 L 206.502, 568.361 z "/>
<path style="fill:rgb(0, 255, 0);fill-opacity:0;fill-rule:evenodd;stroke:rgb(255, 0, 139);stroke-width:1;" d="M 541.654, 688.108 L 573.424, 661.401 L 574.122, 660.877 L 583.199, 668.907 L 576.915, 676.064 L 573.598, 674.144 L 566.267, 679.206 L 560.855, 686.537 L 555.793, 692.821 L 582.151, 706.786 L 592.45, 695.963 L 595.243, 697.36 L 583.199, 709.753 L 541.654, 688.108 z "/>
<path style="fill:rgb(0, 0, 255);fill-opacity:0;fill-rule:evenodd;stroke:rgb(255, 0, 139);stroke-width:1;" d="M 303.906, 77.6784 L 326.249, 49.2254 L 340.388, 55.684 L 323.98, 76.631 L 318.22, 84.137 L 303.906, 77.6784 z "/>
<path style="fill:rgb(255, 255, 0);fill-opacity:0;fill-rule:evenodd;stroke:rgb(255, 0, 139);stroke-width:1;" d="M 251.015, 650.927 L 278.246, 623.347 L 290.988, 630.679 L 283.133, 638.708 L 264.281, 657.735 L 251.015, 650.927 z "/>
<path style="fill:rgb(255, 0, 0);fill-opacity:0;fill-rule:evenodd;stroke:rgb(255, 0, 139);stroke-width:1;" d="M 289.592, 72.9653 L 312.983, 43.2904 L 326.249, 49.2254 L 303.906, 77.6784 L 302.858, 79.0748 L 289.592, 72.9653 z "/>
<path style="fill:rgb(0, 255, 0);fill-opacity:0;fill-rule:evenodd;stroke:rgb(255, 0, 139);stroke-width:1;" d="M 462.405, 571.503 L 472.878, 563.823 L 493.476, 580.93 L 505.171, 590.879 L 494.523, 598.211 L 488.937, 593.498 L 462.405, 571.503 z "/>
<path style="fill:rgb(0, 0, 255);fill-opacity:0;fill-rule:evenodd;stroke:rgb(255, 0, 139);stroke-width:1;" d="M 289.417, 719.18 L 301.287, 706.961 L 328.868, 720.925 L 315.601, 734.192 L 289.417, 719.18 z "/>
<path style="fill:rgb(255, 255, 0);fill-opacity:0;fill-rule:evenodd;stroke:rgb(255, 0, 139);stroke-width:1;" d="M 233.733, 202.662 L 241.065, 193.061 L 250.142, 197.251 L 254.331, 199.171 L 250.666, 204.058 L 306, 229.02 L 302.335, 233.733 L 233.733, 202.662 z "/>
<path style="fill:rgb(255, 0, 0);fill-opacity:0;fill-rule:evenodd;stroke:rgb(255, 0, 139);stroke-width:1;" d="M 427.493, 510.408 L 451.582, 493.65 L 448.614, 491.207 L 462.23, 481.78 L 472.529, 490.334 L 440.061, 513.376 L 443.378, 515.819 L 438.49, 519.31 L 427.493, 510.408 z "/>
<path style="fill:rgb(0, 255, 0);fill-opacity:0;fill-rule:evenodd;stroke:rgb(255, 0, 139);stroke-width:1;" d="M 690.901, 748.854 L 720.925, 723.893 L 730.351, 732.97 L 701.898, 756.535 L 690.901, 748.854 z "/>
<path style="fill:rgb(0, 0, 255);fill-opacity:0;fill-rule:evenodd;stroke:rgb(255, 0, 139);stroke-width:1;" d="M 444.774, 583.897 L 454.2, 577.089 L 480.733, 599.258 L 487.89, 605.193 L 478.988, 612.35 L 444.774, 583.897 z "/>
<path style="fill:rgb(255, 255, 0);fill-opacity:0;fill-rule:evenodd;stroke:rgb(255, 0, 139);stroke-width:1;" d="M 531.704, 696.138 L 535.544, 692.996 L 585.643, 718.656 L 604.146, 699.804 L 600.131, 697.534 L 602.4, 695.091 L 592.974, 689.854 L 595.243, 687.235 L 612.175, 697.883 L 586.69, 724.067 L 531.704, 696.138 z "/>
<path style="fill:rgb(255, 0, 0);fill-opacity:0;fill-rule:evenodd;stroke:rgb(255, 0, 139);stroke-width:1;" d="M 108.924, 302.509 L 127.777, 278.595 L 142.439, 285.403 L 140.694, 287.497 L 123.413, 309.317 L 108.924, 302.509 z "/>
<path style="fill:rgb(0, 255, 0);fill-opacity:0;fill-rule:evenodd;stroke:rgb(255, 0, 139);stroke-width:1;" d="M 162.863, 596.989 L 166.878, 592.45 L 236.701, 628.06 L 232.686, 632.075 L 162.863, 596.989 z "/>
<path style="fill:rgb(0, 0, 255);fill-opacity:0;fill-rule:evenodd;stroke:rgb(255, 0, 139);stroke-width:1;" d="M 382.457, 628.06 L 400.262, 615.317 L 420.161, 626.14 L 403.578, 638.883 L 382.457, 628.06 z "/>
<path style="fill:rgb(255, 255, 0);fill-opacity:0;fill-rule:evenodd;stroke:rgb(255, 0, 139);stroke-width:1;" d="M 435.348, 590.53 L 444.774, 583.897 L 478.988, 612.35 L 472.703, 617.412 L 435.348, 590.53 z "/>
<path style="fill:rgb(255, 0, 0);fill-opacity:0;fill-rule:evenodd;stroke:rgb(255, 0, 139);stroke-width:1;" d="M 528.388, 699.105 L 531.704, 696.138 L 586.69, 724.067 L 612.175, 697.883 L 616.016, 700.153 L 587.039, 728.955 L 528.388, 699.105 z "/>
<path style="fill:rgb(0, 255, 0);fill-opacity:0;fill-rule:evenodd;stroke:rgb(255, 0, 139);stroke-width:1;" d="M 382.806, 129.697 L 383.33, 128.998 L 393.454, 116.43 L 415.798, 126.555 L 405.499, 139.821 L 382.806, 129.697 z "/>
<path style="fill:rgb(0, 0, 255);fill-opacity:0;fill-rule:evenodd;stroke:rgb(255, 0, 139);stroke-width:1;" d="M 488.414, 682.348 L 520.358, 656.339 L 528.737, 662.448 L 498.014, 687.235 L 488.414, 682.348 z "/>
<path style="fill:rgb(255, 255, 0);fill-opacity:0;fill-rule:evenodd;stroke:rgb(255, 0, 139);stroke-width:1;" d="M 525.595, 701.375 L 528.388, 699.105 L 587.039, 728.955 L 616.016, 700.153 L 619.332, 702.247 L 588.086, 733.493 L 525.595, 701.375 z "/>
<path style="fill:rgb(255, 0, 0);fill-opacity:0;fill-rule:evenodd;stroke:rgb(255, 0, 139);stroke-width:1;" d="M 644.294, 706.961 L 652.847, 698.233 L 679.031, 715.863 L 669.605, 723.893 L 645.865, 708.008 L 644.294, 706.961 z "/>
<path style="fill:rgb(0, 255, 0);fill-opacity:0;fill-rule:evenodd;stroke:rgb(255, 0, 139);stroke-width:1;" d="M 274.405, 563.474 L 282.435, 555.793 L 280.166, 554.397 L 292.21, 542.876 L 294.305, 544.272 L 298.494, 540.257 L 303.208, 550.731 L 284.181, 569.234 L 274.405, 563.474 z "/>
<path style="fill:rgb(0, 0, 255);fill-opacity:0;fill-rule:evenodd;stroke:rgb(255, 0, 139);stroke-width:1;" d="M 535.544, 692.996 L 539.21, 690.028 L 584.595, 712.721 L 597.862, 698.756 L 598.56, 699.105 L 600.131, 697.534 L 604.146, 699.804 L 585.643, 718.656 L 535.544, 692.996 z "/>
<path style="fill:rgb(255, 255, 0);fill-opacity:0;fill-rule:evenodd;stroke:rgb(255, 0, 139);stroke-width:1;" d="M 157.102, 603.273 L 160.244, 599.956 L 229.719, 635.043 L 226.227, 638.534 L 157.102, 603.273 z "/>
<path style="fill:rgb(255, 0, 0);fill-opacity:0;fill-rule:evenodd;stroke:rgb(255, 0, 139);stroke-width:1;" d="M 65.1102, 529.435 L 88.3264, 502.204 L 95.6579, 505.87 L 97.2289, 506.568 L 73.8381, 533.799 L 72.2671, 532.926 L 65.1102, 529.435 z "/>
<path style="fill:rgb(0, 255, 0);fill-opacity:0;fill-rule:evenodd;stroke:rgb(255, 0, 139);stroke-width:1;" d="M 454.2, 577.089 L 462.405, 571.503 L 488.937, 593.498 L 480.733, 599.258 L 454.2, 577.089 z "/>
<path style="fill:rgb(0, 0, 255);fill-opacity:0;fill-rule:evenodd;stroke:rgb(255, 0, 139);stroke-width:1;" d="M 212.437, 561.554 L 215.405, 558.062 L 273.882, 590.007 L 270.391, 593.847 L 212.437, 561.554 z "/>
<path style="fill:rgb(255, 255, 0);fill-opacity:0;fill-rule:evenodd;stroke:rgb(255, 0, 139);stroke-width:1;" d="M 166.878, 592.45 L 169.321, 589.483 L 172.987, 591.228 L 239.843, 624.744 L 236.701, 628.06 L 166.878, 592.45 z "/>
<path style="fill:rgb(255, 0, 0);fill-opacity:0;fill-rule:evenodd;stroke:rgb(255, 0, 139);stroke-width:1;" d="M 662.797, 688.283 L 673.62, 677.286 L 689.854, 692.647 L 679.206, 701.2 L 662.797, 688.283 z "/>
<path style="fill:rgb(0, 255, 0);fill-opacity:0;fill-rule:evenodd;stroke:rgb(255, 0, 139);stroke-width:1;" d="M 282.086, 726.511 L 289.417, 719.18 L 315.601, 734.192 L 308.27, 741.523 L 282.086, 726.511 z "/>
<path style="fill:rgb(0, 0, 255);fill-opacity:0;fill-rule:evenodd;stroke:rgb(255, 0, 139);stroke-width:1;" d="M 671.176, 620.031 L 701.549, 601.178 L 707.833, 607.113 L 677.46, 625.966 L 671.176, 620.031 z "/>
<path style="fill:rgb(255, 255, 0);fill-opacity:0;fill-rule:evenodd;stroke:rgb(255, 0, 139);stroke-width:1;" d="M 160.244, 599.956 L 162.863, 596.989 L 232.686, 632.075 L 229.719, 635.043 L 160.244, 599.956 z "/>
<path style="fill:rgb(255, 0, 0);fill-opacity:0;fill-rule:evenodd;stroke:rgb(255, 0, 139);stroke-width:1;" d="M 560.855, 686.537 L 566.267, 679.206 L 573.598, 674.144 L 576.915, 676.064 L 587.563, 682.522 L 576.915, 694.567 L 560.855, 686.537 z "/>
<path style="fill:rgb(0, 255, 0);fill-opacity:0;fill-rule:evenodd;stroke:rgb(255, 0, 139);stroke-width:1;" d="M 269.518, 739.079 L 277.024, 731.573 L 301.986, 745.887 L 295.527, 752.346 L 269.518, 739.079 z "/>
<path style="fill:rgb(0, 0, 255);fill-opacity:0;fill-rule:evenodd;stroke:rgb(255, 0, 139);stroke-width:1;" d="M 172.987, 591.228 L 175.605, 588.436 L 242.287, 622.474 L 239.843, 624.744 L 172.987, 591.228 z "/>
<path style="fill:rgb(255, 255, 0);fill-opacity:0;fill-rule:evenodd;stroke:rgb(255, 0, 139);stroke-width:1;" d="M 284.181, 569.234 L 303.208, 550.731 L 307.921, 561.03 L 305.302, 563.474 L 293.607, 574.82 L 284.181, 569.234 z "/>
<path style="fill:rgb(255, 0, 0);fill-opacity:0;fill-rule:evenodd;stroke:rgb(255, 0, 139);stroke-width:1;" d="M 175.605, 588.436 L 177.526, 586.166 L 244.731, 619.856 L 242.287, 622.474 L 175.605, 588.436 z "/>
<path style="fill:rgb(0, 255, 0);fill-opacity:0;fill-rule:evenodd;stroke:rgb(255, 0, 139);stroke-width:1;" d="M 662.797, 612.175 L 693.17, 593.323 L 697.709, 597.687 L 667.336, 616.539 L 662.797, 612.175 z "/>
<path style="fill:rgb(0, 0, 255);fill-opacity:0;fill-rule:evenodd;stroke:rgb(255, 0, 139);stroke-width:1;" d="M 277.024, 731.573 L 282.086, 726.511 L 308.27, 741.523 L 303.382, 746.585 L 301.986, 745.887 L 277.024, 731.573 z "/>
<path style="fill:rgb(255, 255, 0);fill-opacity:0;fill-rule:evenodd;stroke:rgb(255, 0, 139);stroke-width:1;" d="M 548.113, 623.871 L 560.157, 616.539 L 571.154, 626.838 L 559.11, 634.17 L 548.113, 623.871 z "/>
<path style="fill:rgb(255, 0, 0);fill-opacity:0;fill-rule:evenodd;stroke:rgb(255, 0, 139);stroke-width:1;" d="M 293.607, 574.82 L 305.302, 563.474 L 317.696, 570.98 L 303.557, 580.755 L 293.607, 574.82 z "/>
<path style="fill:rgb(0, 255, 0);fill-opacity:0;fill-rule:evenodd;stroke:rgb(255, 0, 139);stroke-width:1;" d="M 272.485, 168.972 L 277.373, 162.339 L 300.415, 172.813 L 298.669, 175.256 L 295.527, 179.271 L 272.485, 168.972 z "/>
<path style="fill:rgb(0, 0, 255);fill-opacity:0;fill-rule:evenodd;stroke:rgb(255, 0, 139);stroke-width:1;" d="M 667.336, 616.539 L 697.709, 597.687 L 701.549, 601.178 L 671.176, 620.031 L 667.336, 616.539 z "/>
<path style="fill:rgb(255, 255, 0);fill-opacity:0;fill-rule:evenodd;stroke:rgb(255, 0, 139);stroke-width:1;" d="M 539.21, 690.028 L 541.654, 688.108 L 583.199, 709.753 L 595.243, 697.36 L 597.862, 698.756 L 584.595, 712.721 L 539.21, 690.028 z "/>
<path style="fill:rgb(255, 0, 0);fill-opacity:0;fill-rule:evenodd;stroke:rgb(255, 0, 139);stroke-width:1;" d="M 288.545, 187.999 L 291.338, 184.508 L 327.82, 201.091 L 325.202, 204.582 L 288.545, 187.999 z "/>
<path style="fill:rgb(0, 255, 0);fill-opacity:0;fill-rule:evenodd;stroke:rgb(255, 0, 139);stroke-width:1;" d="M 268.296, 174.209 L 272.485, 168.972 L 295.527, 179.271 L 291.338, 184.508 L 268.296, 174.209 z "/>
<path style="fill:rgb(0, 0, 255);fill-opacity:0;fill-rule:evenodd;stroke:rgb(255, 0, 139);stroke-width:1;" d="M 595.418, 254.506 L 600.48, 249.094 L 604.32, 248.745 L 611.826, 252.935 L 612.699, 256.077 L 608.335, 261.314 L 604.495, 261.663 L 596.291, 257.648 L 595.418, 254.506 z "/>
<path style="fill:rgb(255, 255, 0);fill-opacity:0;fill-rule:evenodd;stroke:rgb(255, 0, 139);stroke-width:1;" d="M 166.703, 532.751 L 168.972, 530.308 L 207.55, 550.033 L 205.106, 552.651 L 166.703, 532.751 z "/>
<path style="fill:rgb(255, 0, 0);fill-opacity:0;fill-rule:evenodd;stroke:rgb(255, 0, 139);stroke-width:1;" d="M 608.684, 562.252 L 641.501, 542.003 L 644.294, 544.447 L 611.477, 564.87 L 608.684, 562.252 z "/>
<path style="fill:rgb(0, 255, 0);fill-opacity:0;fill-rule:evenodd;stroke:rgb(255, 0, 139);stroke-width:1;" d="M 611.477, 564.87 L 644.294, 544.447 L 646.913, 547.065 L 614.27, 567.314 L 611.477, 564.87 z "/>
<path style="fill:rgb(0, 0, 255);fill-opacity:0;fill-rule:evenodd;stroke:rgb(255, 0, 139);stroke-width:1;" d="M 691.774, 538.337 L 695.265, 536.243 L 719.354, 558.586 L 715.863, 560.681 L 691.774, 538.337 z "/>
<path style="fill:rgb(255, 255, 0);fill-opacity:0;fill-rule:evenodd;stroke:rgb(255, 0, 139);stroke-width:1;" d="M 595.418, 254.506 L 597.513, 254.331 L 600.829, 250.84 L 600.48, 249.094 L 604.32, 248.745 L 604.669, 250.316 L 609.906, 253.109 L 611.826, 252.935 L 612.699, 256.077 L 610.779, 256.251 L 607.986, 259.743 L 608.335, 261.314 L 604.495, 261.663 L 604.146, 260.441 L 598.385, 257.473 L 596.291, 257.648 L 595.418, 254.506 z "/>
<path style="fill:rgb(255, 0, 0);fill-opacity:0;fill-rule:evenodd;stroke:rgb(255, 0, 139);stroke-width:1;" d="M 578.486, 263.234 L 580.406, 260.092 L 610.43, 275.278 L 607.462, 277.722 L 578.486, 263.234 z "/>
<path style="fill:rgb(0, 255, 0);fill-opacity:0;fill-rule:evenodd;stroke:rgb(255, 0, 139);stroke-width:1;" d="M 265.678, 177.526 L 268.296, 174.209 L 291.338, 184.508 L 288.545, 187.999 L 269.867, 179.446 L 265.678, 177.526 z "/>
<path style="fill:rgb(0, 0, 255);fill-opacity:0;fill-rule:evenodd;stroke:rgb(255, 0, 139);stroke-width:1;" d="M 33.6897, 345.101 L 34.5625, 343.88 L 40.672, 336.374 L 42.5922, 333.93 L 47.3053, 327.995 L 48.3526, 326.598 L 51.4947, 326.075 L 52.0183, 328.344 L 50.7964, 329.566 L 45.9088, 335.501 L 43.9887, 337.945 L 37.8791, 345.451 L 36.6572, 346.672 L 34.0388, 347.022 L 33.6897, 345.101 z "/>
<path style="fill:rgb(255, 255, 0);fill-opacity:0;fill-rule:evenodd;stroke:rgb(255, 0, 139);stroke-width:1;" d="M 62.1427, 358.892 L 63.3646, 357.495 L 69.4741, 349.815 L 71.3943, 347.545 L 75.9328, 341.61 L 76.9801, 340.388 L 80.1222, 339.69 L 80.4713, 341.959 L 79.424, 343.356 L 74.7109, 349.116 L 72.7907, 351.386 L 66.3321, 359.066 L 65.2847, 360.288 L 62.8409, 360.812 L 62.1427, 358.892 z "/>
<path style="fill:rgb(255, 0, 0);fill-opacity:0;fill-rule:evenodd;stroke:rgb(255, 0, 139);stroke-width:1;" d="M 48.0035, 352.084 L 49.0508, 350.687 L 61.619, 334.803 L 62.8409, 333.406 L 65.8084, 332.882 L 66.1575, 335.152 L 65.1102, 336.548 L 52.1929, 352.084 L 50.971, 353.48 L 48.3526, 353.829 L 48.0035, 352.084 z "/>
<path style="fill:rgb(0, 255, 0);fill-opacity:0;fill-rule:evenodd;stroke:rgb(255, 0, 139);stroke-width:1;" d="M 695.265, 536.243 L 697.534, 534.846 L 721.623, 557.015 L 719.354, 558.586 L 695.265, 536.243 z "/>
<path style="fill:rgb(0, 0, 255);fill-opacity:0;fill-rule:evenodd;stroke:rgb(255, 0, 139);stroke-width:1;" d="M 599.084, 255.728 L 599.258, 254.331 L 599.782, 253.458 L 601.004, 252.411 L 602.575, 251.713 L 605.193, 251.538 L 607.288, 252.237 L 608.859, 253.458 L 609.557, 255.029 L 609.383, 256.6 L 608.161, 257.997 L 606.764, 258.87 L 604.844, 259.393 L 602.749, 259.219 L 601.004, 258.521 L 599.607, 257.124 L 599.084, 255.728 z "/>
<path style="fill:rgb(255, 255, 0);fill-opacity:0;fill-rule:evenodd;stroke:rgb(255, 0, 139);stroke-width:1;" d="M 194.632, 318.743 L 197.949, 315.601 L 203.535, 316.648 L 204.757, 320.314 L 201.44, 323.631 L 195.854, 322.583 L 194.632, 318.743 z "/>
<path style="fill:rgb(255, 0, 0);fill-opacity:0;fill-rule:evenodd;stroke:rgb(255, 0, 139);stroke-width:1;" d="M 225.529, 334.803 L 226.576, 330.788 L 232.162, 329.74 L 235.479, 332.708 L 234.606, 336.723 L 229.02, 337.77 L 225.529, 334.803 z "/>
<path style="fill:rgb(0, 255, 0);fill-opacity:0;fill-rule:evenodd;stroke:rgb(255, 0, 139);stroke-width:1;" d="M 244.556, 309.492 L 247.698, 306.35 L 253.284, 307.222 L 254.68, 311.063 L 251.364, 314.205 L 245.778, 313.332 L 244.556, 309.492 z "/>
<path style="fill:rgb(0, 0, 255);fill-opacity:0;fill-rule:evenodd;stroke:rgb(255, 0, 139);stroke-width:1;" d="M 213.31, 297.098 L 214.357, 293.083 L 219.943, 292.21 L 223.26, 295.003 L 222.213, 299.018 L 216.801, 300.065 L 213.31, 297.098 z "/>
<path style="fill:rgb(255, 255, 0);fill-opacity:0;fill-rule:evenodd;stroke:rgb(255, 0, 139);stroke-width:1;" d="M 10.9972, 404.8 L 38.9265, 371.46 L 39.101, 371.285 L 44.6869, 364.477 L 82.0423, 382.631 L 84.6607, 383.679 L 50.971, 424.176 L 10.9972, 404.8 z "/>
<path style="fill:rgb(255, 0, 0);fill-opacity:0;fill-rule:evenodd;stroke:rgb(255, 0, 139);stroke-width:1;" d="M 12.9173, 679.206 L 20.4233, 670.652 L 97.4034, 709.404 L 94.0868, 713.245 L 101.244, 716.736 L 88.3264, 731.573 L 12.9173, 679.206 z "/>
<path style="fill:rgb(0, 255, 0);fill-opacity:0;fill-rule:evenodd;stroke:rgb(255, 0, 139);stroke-width:1;" d="M 8.72791, 488.763 L 16.4085, 479.86 L 28.1039, 485.621 L 20.4233, 494.523 L 8.72791, 488.763 z "/>
<path style="fill:rgb(0, 0, 255);fill-opacity:0;fill-rule:evenodd;stroke:rgb(255, 0, 139);stroke-width:1;" d="M 11.5208, 486.144 L 14.4883, 482.828 L 19.7251, 481.955 L 24.2636, 484.05 L 25.3109, 488.065 L 22.518, 491.556 L 17.2813, 492.254 L 12.7427, 490.159 L 11.5208, 486.144 z "/>
<path style="fill:rgb(255, 255, 0);fill-opacity:0;fill-rule:evenodd;stroke:rgb(255, 0, 139);stroke-width:1;" d="M 12.9173, 486.319 L 15.3611, 483.701 L 19.5505, 483.002 L 23.0417, 484.748 L 23.9145, 487.89 L 21.6452, 490.508 L 17.4558, 491.207 L 13.9647, 489.461 L 12.9173, 486.319 z "/>
<path style="fill:rgb(255, 0, 0);fill-opacity:0;fill-rule:evenodd;stroke:rgb(255, 0, 139);stroke-width:1;" d="M 159.895, 73.8381 L 217.674, 0 L 285.577, 30.8968 L 262.361, 60.5717 L 235.304, 48.3526 L 233.384, 50.6219 L 200.742, 92.3413 L 159.895, 73.8381 z M 198.996, 48.3526 L 211.739, 54.2876 L 219.769, 43.9887 L 207.026, 38.2282 L 198.996, 48.3526 z "/>
<path style="fill:rgb(0, 255, 0);fill-opacity:0;fill-rule:evenodd;stroke:rgb(255, 0, 139);stroke-width:1;" d="M 262.361, 60.5717 L 285.577, 30.8968 L 312.983, 43.2904 L 289.592, 72.9653 L 262.361, 60.5717 z "/>
<path style="fill:rgb(0, 0, 255);fill-opacity:0;fill-rule:evenodd;stroke:rgb(255, 0, 139);stroke-width:1;" d="M 2.96749, 501.156 L 11.87, 490.683 L 8.02967, 488.937 L 16.2339, 479.337 L 20.0742, 481.257 L 29.1512, 470.609 L 89.7229, 500.458 L 88.3264, 502.204 L 95.6579, 505.87 L 97.2289, 506.568 L 73.8381, 533.799 L 72.2671, 532.926 L 65.1102, 529.435 L 63.7137, 531.006 L 2.96749, 501.156 z "/>
<path style="fill:rgb(255, 255, 0);fill-opacity:0;fill-rule:evenodd;stroke:rgb(255, 0, 139);stroke-width:1;" d="M 2.96749, 501.156 L 11.87, 490.683 L 20.0742, 481.257 L 29.1512, 470.609 L 89.7229, 500.458 L 88.3264, 502.204 L 65.1102, 529.435 L 63.7137, 531.006 L 2.96749, 501.156 z "/>
<path style="fill:rgb(255, 0, 0);fill-opacity:0;fill-rule:evenodd;stroke:rgb(255, 0, 139);stroke-width:1;" d="M 8.02967, 488.937 L 16.2339, 479.337 L 28.8021, 485.446 L 20.5979, 495.047 L 11.87, 490.683 L 8.02967, 488.937 z "/>
<path style="fill:rgb(0, 255, 0);fill-opacity:0;fill-rule:evenodd;stroke:rgb(255, 0, 139);stroke-width:1;" d="M 0, 345.625 L 9.07702, 335.152 L 7.33144, 334.279 L 6.63321, 332.01 L 23.0417, 312.285 L 26.0092, 311.935 L 27.4056, 312.634 L 33.166, 305.651 L 114.51, 343.53 L 108.051, 351.211 L 108.75, 353.48 L 87.9773, 378.617 L 84.8353, 378.966 L 82.0423, 382.631 L 44.6869, 364.477 L 39.101, 371.285 L 38.9265, 371.46 L 25.8346, 365.001 L 30.024, 360.113 L 8.72791, 349.815 L 0, 345.625 z "/>
<path style="fill:rgb(0, 0, 255);fill-opacity:0;fill-rule:evenodd;stroke:rgb(255, 0, 139);stroke-width:1;" d="M 6.63321, 332.01 L 23.0417, 312.285 L 26.0092, 311.935 L 27.4056, 312.634 L 36.6572, 316.998 L 37.3554, 319.267 L 40.3229, 318.743 L 50.971, 323.805 L 51.4947, 326.075 L 54.6367, 325.726 L 65.2847, 330.788 L 65.8084, 332.882 L 68.9505, 332.533 L 79.5985, 337.595 L 80.1222, 339.69 L 83.2642, 339.341 L 93.9123, 344.403 L 94.6105, 346.498 L 97.578, 346.149 L 108.051, 351.211 L 108.75, 353.48 L 87.9773, 378.617 L 84.8353, 378.966 L 74.1872, 373.904 L 73.6635, 371.809 L 70.6961, 372.158 L 60.048, 367.096 L 59.3498, 365.001 L 56.2077, 365.35 L 45.7342, 360.288 L 45.036, 358.019 L 41.894, 358.542 L 31.4205, 353.48 L 30.7222, 351.211 L 34.0388, 347.022 L 21.6452, 341.087 L 20.947, 338.817 L 17.8049, 339.341 L 9.07702, 335.152 L 7.33144, 334.279 L 6.63321, 332.01 z "/>
<path style="fill:rgb(255, 255, 0);fill-opacity:0;fill-rule:evenodd;stroke:rgb(255, 0, 139);stroke-width:1;" d="M 0, 345.625 L 9.07702, 335.152 L 17.8049, 339.341 L 20.947, 338.817 L 21.6452, 341.087 L 34.0388, 347.022 L 30.7222, 351.211 L 31.4205, 353.48 L 41.894, 358.542 L 45.036, 358.019 L 45.7342, 360.288 L 56.2077, 365.35 L 59.3498, 365.001 L 60.048, 367.096 L 70.6961, 372.158 L 73.6635, 371.809 L 74.1872, 373.904 L 84.8353, 378.966 L 82.0423, 382.631 L 44.6869, 364.477 L 39.101, 371.285 L 25.8346, 365.001 L 30.024, 360.113 L 8.72791, 349.815 L 0, 345.625 z "/>
</svg>