<?xml version="1.0" encoding="iso-8859-1" standalone="no"?>
<!DOCTYPE svg PUBLIC "-//W3C//DTD SVG 1.0//EN" "http://www.w3.org/TR/2001/REC-SVG-20010904/DTD/svg10.dtd">
<svg xmlns="http://www.w3.org/2000/svg" width="1162" height="800">
<path style="fill:rgb(255, 0, 0);fill-opacity:0;fill-rule:evenodd;stroke:rgb(0, 213, 255);stroke-width:1;" d="M 337.85, 268.946 L 365.548, 231.161 L 369.823, 233.041 L 389.314, 206.711 L 401.624, 189.613 L 647.147, 292.37 L 587.818, 374.097 L 337.85, 268.946 z "/>
<path style="fill:rgb(0, 255, 0);fill-opacity:0;fill-rule:evenodd;stroke:rgb(0, 213, 255);stroke-width:1;" d="M 486.771, 610.9 L 500.62, 592.263 L 512.246, 597.051 L 543.535, 554.648 L 532.08, 549.861 L 546.784, 530.028 L 602.18, 553.452 L 661.509, 578.414 L 784.783, 631.759 L 779.141, 639.453 L 770.934, 650.566 L 756.743, 669.887 L 739.645, 693.14 L 725.796, 711.776 L 601.838, 659.457 L 486.771, 610.9 z "/>
<path style="fill:rgb(0, 0, 255);fill-opacity:0;fill-rule:evenodd;stroke:rgb(0, 213, 255);stroke-width:1;" d="M 486.771, 610.9 L 500.62, 592.263 L 512.246, 597.051 L 543.535, 554.648 L 532.08, 549.861 L 546.784, 530.028 L 602.18, 553.452 L 661.509, 578.414 L 658.431, 582.518 L 767.343, 628.51 L 764.095, 633.127 L 779.141, 639.453 L 770.934, 650.566 L 756.743, 669.887 L 739.645, 693.14 L 732.122, 703.227 L 704.595, 691.601 L 701.175, 696.388 L 604.574, 655.696 L 601.838, 659.457 L 486.771, 610.9 z "/>
<path style="fill:rgb(255, 255, 0);fill-opacity:0;fill-rule:evenodd;stroke:rgb(0, 213, 255);stroke-width:1;" d="M 486.771, 610.9 L 500.62, 592.263 L 512.246, 597.051 L 543.535, 554.648 L 532.08, 549.861 L 546.784, 530.028 L 602.18, 553.452 L 595.854, 562 L 655.183, 587.134 L 764.095, 633.127 L 779.141, 639.453 L 770.934, 650.566 L 756.743, 669.887 L 739.645, 693.14 L 732.122, 703.227 L 704.595, 691.601 L 608.164, 650.908 L 548.835, 625.775 L 542.509, 634.495 L 486.771, 610.9 z "/>
<path style="fill:rgb(255, 0, 0);fill-opacity:0;fill-rule:evenodd;stroke:rgb(0, 213, 255);stroke-width:1;" d="M 217.824, 494.636 L 226.031, 483.18 L 263.646, 431.032 L 272.024, 419.577 L 377.859, 463.518 L 369.652, 474.973 L 378.542, 478.564 L 381.962, 473.776 L 474.802, 512.075 L 430.519, 573.627 L 337.85, 535.328 L 341.099, 530.712 L 332.208, 527.121 L 324.001, 538.577 L 217.824, 494.636 z "/>
<path style="fill:rgb(0, 255, 0);fill-opacity:0;fill-rule:evenodd;stroke:rgb(0, 213, 255);stroke-width:1;" d="M 887.369, 642.872 L 913.016, 608.335 L 921.735, 611.926 L 926.865, 604.916 L 946.014, 579.269 L 957.811, 563.197 L 1119.73, 632.101 L 1057.83, 715.538 L 887.369, 642.872 z "/>
<path style="fill:rgb(0, 0, 255);fill-opacity:0;fill-rule:evenodd;stroke:rgb(0, 213, 255);stroke-width:1;" d="M 132.165, 603.035 L 192.178, 521.308 L 411.199, 613.122 L 396.153, 633.811 L 359.393, 618.423 L 355.461, 623.894 L 354.093, 625.604 L 347.767, 634.324 L 346.57, 636.033 L 339.56, 645.608 L 338.192, 647.318 L 331.353, 656.892 L 329.985, 658.602 L 323.659, 667.322 L 322.291, 669.032 L 320.068, 668.006 L 307.929, 662.877 L 305.535, 662.022 L 292.199, 656.38 L 289.976, 655.354 L 276.64, 649.882 L 274.247, 648.857 L 261.081, 643.214 L 258.688, 642.359 L 245.352, 636.717 L 242.958, 635.691 L 229.793, 630.049 L 227.399, 629.194 L 214.063, 623.552 L 211.84, 622.526 L 198.504, 617.055 L 196.11, 616.029 L 182.774, 610.387 L 180.38, 609.532 L 167.215, 603.89 L 164.822, 602.864 L 152.682, 597.735 L 150.289, 596.88 L 142.082, 607.48 L 132.165, 603.035 z "/>
<path style="fill:rgb(255, 255, 0);fill-opacity:0;fill-rule:evenodd;stroke:rgb(0, 213, 255);stroke-width:1;" d="M 512.246, 597.051 L 543.535, 554.648 L 560.12, 561.658 L 568.327, 550.374 L 595.854, 562 L 655.183, 587.134 L 651.592, 591.921 L 765.805, 640.137 L 761.188, 646.463 L 770.934, 650.566 L 756.743, 669.887 L 739.645, 693.14 L 718.444, 684.078 L 714.341, 689.549 L 611.584, 646.292 L 608.164, 650.908 L 548.835, 625.775 L 521.308, 614.148 L 528.831, 604.061 L 512.246, 597.051 z "/>
<path style="fill:rgb(255, 0, 0);fill-opacity:0;fill-rule:evenodd;stroke:rgb(0, 213, 255);stroke-width:1;" d="M 307.587, 396.666 L 313.058, 389.485 L 321.778, 377.688 L 326.395, 371.532 L 332.037, 364.18 L 354.435, 333.405 L 362.471, 322.462 L 367.771, 315.11 L 421.287, 337.508 L 415.986, 344.86 L 526.266, 391.366 L 517.546, 403.334 L 539.602, 412.738 L 507.117, 456.85 L 486.942, 448.301 L 479.077, 459.243 L 366.061, 411.712 L 360.248, 419.577 L 307.587, 396.666 z "/>
<path style="fill:rgb(0, 255, 0);fill-opacity:0;fill-rule:evenodd;stroke:rgb(0, 213, 255);stroke-width:1;" d="M 907.886, 630.562 L 921.735, 611.926 L 926.865, 604.916 L 946.014, 579.269 L 956.786, 583.885 L 962.257, 576.362 L 1030.31, 605.429 L 1036.63, 596.709 L 1119.73, 632.101 L 1057.83, 715.538 L 974.738, 680.145 L 981.235, 671.426 L 913.187, 642.53 L 918.658, 635.178 L 907.886, 630.562 z "/>
<path style="fill:rgb(0, 0, 255);fill-opacity:0;fill-rule:evenodd;stroke:rgb(0, 213, 255);stroke-width:1;" d="M 313.058, 389.485 L 321.778, 377.688 L 326.395, 371.532 L 332.037, 364.18 L 354.435, 333.405 L 362.471, 322.462 L 415.986, 344.86 L 526.266, 391.366 L 517.546, 403.334 L 539.602, 412.738 L 507.117, 456.85 L 486.942, 448.301 L 479.077, 459.243 L 366.061, 411.712 L 313.058, 389.485 z "/>
<path style="fill:rgb(255, 255, 0);fill-opacity:0;fill-rule:evenodd;stroke:rgb(0, 213, 255);stroke-width:1;" d="M 226.031, 483.18 L 263.646, 431.032 L 369.652, 474.973 L 378.542, 478.564 L 381.962, 473.776 L 474.802, 512.075 L 430.519, 573.627 L 337.85, 535.328 L 341.099, 530.712 L 332.208, 527.121 L 226.031, 483.18 z "/>
<path style="fill:rgb(255, 0, 0);fill-opacity:0;fill-rule:evenodd;stroke:rgb(0, 213, 255);stroke-width:1;" d="M 475.144, 747.339 L 479.761, 741.184 L 529.344, 673.477 L 535.157, 665.441 L 659.97, 717.931 L 653.815, 726.309 L 640.137, 744.946 L 618.936, 774.353 L 604.916, 793.503 L 600.128, 800 L 475.144, 747.339 z "/>
<path style="fill:rgb(0, 255, 0);fill-opacity:0;fill-rule:evenodd;stroke:rgb(0, 213, 255);stroke-width:1;" d="M 512.246, 597.051 L 543.535, 554.648 L 560.12, 561.658 L 662.022, 604.574 L 761.188, 646.463 L 770.934, 650.566 L 756.743, 669.887 L 739.645, 693.14 L 718.444, 684.078 L 630.733, 647.147 L 528.831, 604.061 L 512.246, 597.051 z "/>
<path style="fill:rgb(0, 0, 255);fill-opacity:0;fill-rule:evenodd;stroke:rgb(0, 213, 255);stroke-width:1;" d="M 907.886, 630.562 L 921.735, 611.926 L 926.865, 604.916 L 946.014, 579.269 L 956.786, 583.885 L 962.257, 576.362 L 1030.31, 605.429 L 1088.61, 630.22 L 1083.14, 637.572 L 1077.15, 645.608 L 1081.6, 647.489 L 1055.44, 682.71 L 1050.99, 680.829 L 1039.54, 696.217 L 981.235, 671.426 L 913.187, 642.53 L 918.658, 635.178 L 907.886, 630.562 z "/>
<path style="fill:rgb(255, 255, 0);fill-opacity:0;fill-rule:evenodd;stroke:rgb(0, 213, 255);stroke-width:1;" d="M 764.437, 449.156 L 764.608, 448.643 L 768.198, 443.514 L 779.996, 426.929 L 793.503, 408.463 L 799.658, 399.915 L 786.151, 394.272 L 790.938, 387.604 L 804.787, 393.246 L 818.978, 373.584 L 823.595, 367.087 L 962.257, 424.706 L 936.439, 460.44 L 930.455, 458.047 L 924.471, 455.653 L 908.228, 448.814 L 902.244, 446.42 L 896.431, 443.856 L 888.395, 453.772 L 882.24, 451.208 L 876.085, 448.643 L 868.733, 458.73 L 853.516, 479.761 L 850.096, 484.719 L 764.437, 449.156 z "/>
<path style="fill:rgb(255, 0, 0);fill-opacity:0;fill-rule:evenodd;stroke:rgb(0, 213, 255);stroke-width:1;" d="M 479.761, 741.184 L 529.344, 673.477 L 653.815, 726.309 L 640.137, 744.946 L 618.936, 774.353 L 604.916, 793.503 L 479.761, 741.184 z "/>
<path style="fill:rgb(0, 255, 0);fill-opacity:0;fill-rule:evenodd;stroke:rgb(0, 213, 255);stroke-width:1;" d="M 321.778, 377.688 L 326.395, 371.532 L 332.037, 364.18 L 354.435, 333.405 L 380.936, 344.86 L 406.754, 356.828 L 517.546, 403.334 L 539.602, 412.738 L 507.117, 456.85 L 486.942, 448.301 L 374.439, 400.94 L 348.109, 388.972 L 321.778, 377.688 z "/>
<path style="fill:rgb(0, 0, 255);fill-opacity:0;fill-rule:evenodd;stroke:rgb(0, 213, 255);stroke-width:1;" d="M 713.144, 549.348 L 721.351, 538.406 L 743.065, 509.511 L 751.614, 497.884 L 759.479, 501.304 L 764.095, 495.32 L 771.96, 498.739 L 776.576, 492.413 L 792.135, 499.081 L 806.668, 505.236 L 821.714, 511.733 L 837.615, 518.572 L 835.392, 521.479 L 838.983, 523.018 L 837.444, 525.069 L 854.2, 532.25 L 831.118, 563.197 L 830.776, 563.71 L 855.396, 574.311 L 848.899, 583.031 L 830.263, 607.822 L 788.716, 590.041 L 787.177, 591.921 L 783.586, 590.383 L 780.851, 594.144 L 764.95, 587.305 L 750.588, 581.15 L 735.371, 574.653 L 719.812, 567.985 L 724.257, 562.171 L 716.734, 558.752 L 721.18, 552.768 L 713.144, 549.348 z "/>
<path style="fill:rgb(255, 255, 0);fill-opacity:0;fill-rule:evenodd;stroke:rgb(0, 213, 255);stroke-width:1;" d="M 756.743, 669.887 L 770.934, 650.566 L 779.141, 639.453 L 784.783, 631.759 L 837.102, 654.328 L 872.665, 668.861 L 932.849, 693.311 L 927.72, 700.321 L 905.322, 731.096 L 882.924, 721.864 L 852.49, 709.382 L 850.438, 712.118 L 827.014, 744.775 L 821.372, 752.297 L 771.618, 731.78 L 777.089, 724.086 L 802.565, 688.865 L 756.743, 669.887 z "/>
<path style="fill:rgb(255, 0, 0);fill-opacity:0;fill-rule:evenodd;stroke:rgb(0, 213, 255);stroke-width:1;" d="M 151.656, 594.999 L 157.982, 586.45 L 159.35, 586.963 L 160.547, 585.253 L 159.179, 584.74 L 166.189, 575.166 L 167.557, 575.679 L 168.925, 573.969 L 167.557, 573.456 L 174.396, 563.881 L 175.764, 564.394 L 177.132, 562.684 L 175.764, 562.171 L 182.09, 553.452 L 183.458, 553.965 L 183.971, 553.281 L 184.997, 553.794 L 185.852, 552.768 L 197.82, 557.726 L 196.965, 558.752 L 199.359, 559.778 L 200.043, 558.752 L 213.55, 564.394 L 212.695, 565.42 L 215.089, 566.446 L 215.773, 565.42 L 229.109, 570.891 L 228.425, 571.917 L 230.648, 572.943 L 231.502, 571.917 L 244.668, 577.559 L 243.984, 578.585 L 246.377, 579.44 L 247.061, 578.414 L 260.398, 584.056 L 259.714, 585.082 L 261.936, 586.108 L 262.791, 585.082 L 275.956, 590.554 L 275.272, 591.579 L 277.666, 592.605 L 278.35, 591.579 L 291.686, 597.222 L 291.002, 598.077 L 293.396, 599.102 L 294.08, 598.077 L 307.245, 603.719 L 306.561, 604.745 L 308.955, 605.77 L 309.639, 604.745 L 322.975, 610.387 L 322.291, 611.242 L 324.514, 612.268 L 325.198, 611.242 L 338.534, 616.884 L 337.85, 617.91 L 340.244, 618.936 L 340.928, 617.91 L 353.067, 622.868 L 352.383, 623.894 L 353.238, 624.407 L 352.725, 625.091 L 354.093, 625.604 L 347.767, 634.324 L 346.399, 633.811 L 345.202, 635.52 L 346.57, 636.033 L 339.56, 645.608 L 338.192, 645.095 L 336.824, 646.805 L 338.192, 647.318 L 331.353, 656.892 L 329.985, 656.209 L 328.617, 658.089 L 329.985, 658.602 L 323.659, 667.322 L 322.291, 666.638 L 321.778, 667.493 L 320.752, 666.98 L 320.068, 668.006 L 307.929, 662.877 L 308.613, 662.022 L 306.39, 660.996 L 305.535, 662.022 L 292.199, 656.38 L 293.054, 655.354 L 290.66, 654.328 L 289.976, 655.354 L 276.64, 649.882 L 277.324, 648.857 L 275.102, 647.831 L 274.247, 648.857 L 261.081, 643.214 L 261.765, 642.189 L 259.372, 641.334 L 258.688, 642.359 L 245.352, 636.717 L 246.035, 635.691 L 243.813, 634.666 L 242.958, 635.691 L 229.793, 630.049 L 230.477, 629.194 L 228.083, 628.168 L 227.399, 629.194 L 214.063, 623.552 L 214.747, 622.526 L 212.524, 621.671 L 211.84, 622.526 L 198.504, 617.055 L 199.188, 616.029 L 196.794, 615.003 L 196.11, 616.029 L 182.774, 610.387 L 183.458, 609.532 L 181.235, 608.506 L 180.38, 609.532 L 167.215, 603.89 L 167.899, 602.864 L 165.505, 601.838 L 164.822, 602.864 L 152.682, 597.735 L 153.366, 596.709 L 152.511, 596.367 L 153.024, 595.512 L 151.656, 594.999 z "/>
<path style="fill:rgb(0, 255, 0);fill-opacity:0;fill-rule:evenodd;stroke:rgb(0, 213, 255);stroke-width:1;" d="M 524.386, 197.307 L 571.917, 131.994 L 686.3, 179.867 L 638.94, 245.352 L 524.386, 197.307 z "/>
<path style="fill:rgb(0, 0, 255);fill-opacity:0;fill-rule:evenodd;stroke:rgb(0, 213, 255);stroke-width:1;" d="M 348.109, 388.972 L 380.936, 344.86 L 406.754, 356.828 L 517.546, 403.334 L 539.602, 412.738 L 507.117, 456.85 L 486.942, 448.301 L 374.439, 400.94 L 348.109, 388.972 z "/>
<path style="fill:rgb(255, 255, 0);fill-opacity:0;fill-rule:evenodd;stroke:rgb(0, 213, 255);stroke-width:1;" d="M 907.886, 630.562 L 921.735, 611.926 L 926.865, 604.916 L 946.014, 579.269 L 956.786, 583.885 L 1067.24, 630.904 L 1061.25, 638.94 L 1077.15, 645.608 L 1081.6, 647.489 L 1055.44, 682.71 L 1050.99, 680.829 L 1035.09, 674.161 L 1029.11, 682.197 L 918.658, 635.178 L 907.886, 630.562 z "/>
<path style="fill:rgb(255, 0, 0);fill-opacity:0;fill-rule:evenodd;stroke:rgb(0, 213, 255);stroke-width:1;" d="M 973.712, 107.202 L 999.872, 71.6392 L 1010.3, 76.0846 L 1002.44, 86.8562 L 1005, 87.711 L 1004.32, 88.395 L 1016.11, 93.3533 L 1016.46, 92.6694 L 1018.85, 93.6952 L 1028.77, 80.3591 L 1030.13, 78.4783 L 1031.67, 76.4266 L 1033.21, 74.3749 L 1034.58, 72.4941 L 1045.35, 57.7901 L 1050.31, 51.122 L 1051.51, 49.5832 L 1051.85, 48.8993 L 1053.39, 46.8476 L 1055.1, 44.283 L 1162.64, 89.9337 L 1135.46, 126.865 L 1132.72, 130.797 L 1092.37, 113.7 L 1078.52, 107.715 L 1064.5, 101.731 L 1062.11, 104.98 L 1039.88, 135.414 L 1038.68, 134.901 L 1039.2, 134.046 L 986.536, 111.648 L 985.852, 112.503 L 984.313, 111.819 L 973.712, 107.202 z "/>
<path style="fill:rgb(0, 255, 0);fill-opacity:0;fill-rule:evenodd;stroke:rgb(0, 213, 255);stroke-width:1;" d="M 132.165, 603.035 L 192.178, 521.308 L 411.199, 613.122 L 396.153, 633.811 L 359.393, 618.423 L 355.461, 623.894 L 353.067, 622.868 L 340.928, 617.91 L 338.534, 616.884 L 325.198, 611.242 L 322.975, 610.387 L 309.639, 604.745 L 307.245, 603.719 L 294.08, 598.077 L 291.686, 597.222 L 278.35, 591.579 L 275.956, 590.554 L 262.791, 585.082 L 260.398, 584.056 L 247.061, 578.414 L 244.668, 577.559 L 231.502, 571.917 L 229.109, 570.891 L 215.773, 565.42 L 213.55, 564.394 L 200.043, 558.752 L 197.82, 557.726 L 185.852, 552.768 L 183.458, 551.742 L 182.09, 553.452 L 175.764, 562.171 L 174.396, 563.881 L 167.557, 573.456 L 166.189, 575.166 L 159.179, 584.74 L 157.982, 586.45 L 151.656, 594.999 L 150.289, 596.88 L 142.082, 607.48 L 132.165, 603.035 z "/>
<path style="fill:rgb(0, 0, 255);fill-opacity:0;fill-rule:evenodd;stroke:rgb(0, 213, 255);stroke-width:1;" d="M 374.439, 400.94 L 406.754, 356.828 L 517.546, 403.334 L 539.602, 412.738 L 507.117, 456.85 L 486.942, 448.301 L 374.439, 400.94 z "/>
<path style="fill:rgb(255, 255, 0);fill-opacity:0;fill-rule:evenodd;stroke:rgb(0, 213, 255);stroke-width:1;" d="M 240.906, 227.912 L 245.01, 222.612 L 245.523, 221.757 L 248.942, 217.14 L 253.046, 211.669 L 270.314, 187.732 L 287.754, 164.138 L 291.857, 158.666 L 300.406, 147.04 L 310.323, 151.143 L 328.788, 159.008 L 343.321, 165.163 L 343.15, 165.163 L 361.445, 172.686 L 372.045, 177.303 L 363.667, 188.758 L 359.735, 194.23 L 324.856, 241.59 L 320.752, 247.061 L 316.82, 252.533 L 312.545, 258.346 L 304.68, 255.097 L 283.65, 246.206 L 269.801, 240.222 L 249.626, 231.673 L 240.906, 227.912 z "/>
<path style="fill:rgb(255, 0, 0);fill-opacity:0;fill-rule:evenodd;stroke:rgb(0, 213, 255);stroke-width:1;" d="M 337.85, 535.328 L 341.099, 530.712 L 378.542, 478.564 L 381.962, 473.776 L 474.802, 512.075 L 430.519, 573.627 L 337.85, 535.328 z "/>
<path style="fill:rgb(0, 255, 0);fill-opacity:0;fill-rule:evenodd;stroke:rgb(0, 213, 255);stroke-width:1;" d="M 407.95, 719.128 L 418.209, 705.279 L 457.876, 651.079 L 468.134, 637.23 L 503.697, 652.105 L 535.157, 665.441 L 529.344, 673.477 L 479.761, 741.184 L 475.144, 747.339 L 443.856, 734.345 L 407.95, 719.128 z "/>
<path style="fill:rgb(0, 0, 255);fill-opacity:0;fill-rule:evenodd;stroke:rgb(0, 213, 255);stroke-width:1;" d="M 372.558, 234.067 L 391.879, 207.737 L 600.812, 294.764 L 581.663, 321.265 L 372.558, 234.067 z "/>
<path style="fill:rgb(255, 255, 0);fill-opacity:0;fill-rule:evenodd;stroke:rgb(0, 213, 255);stroke-width:1;" d="M 512.246, 597.051 L 543.535, 554.648 L 560.12, 561.658 L 662.022, 604.574 L 655.012, 614.148 L 668.177, 619.62 L 650.908, 643.385 L 637.572, 637.743 L 630.733, 647.147 L 528.831, 604.061 L 512.246, 597.051 z "/>
<path style="fill:rgb(255, 0, 0);fill-opacity:0;fill-rule:evenodd;stroke:rgb(0, 213, 255);stroke-width:1;" d="M 582.518, 498.568 L 585.937, 497.884 L 587.134, 496.345 L 586.108, 493.781 L 589.528, 493.097 L 590.383, 491.558 L 589.357, 488.993 L 592.776, 488.309 L 593.973, 486.942 L 592.776, 484.377 L 596.196, 483.522 L 597.222, 482.154 L 596.367, 479.59 L 599.615, 478.906 L 600.641, 477.367 L 599.615, 474.802 L 603.035, 474.118 L 604.061, 472.751 L 603.206, 470.186 L 606.454, 469.331 L 607.48, 467.963 L 606.454, 465.399 L 609.874, 464.715 L 610.9, 463.176 L 609.874, 460.611 L 613.293, 459.756 L 614.319, 458.389 L 613.293, 455.824 L 616.713, 455.14 L 617.739, 453.601 L 616.713, 451.037 L 620.133, 450.353 L 621.158, 448.985 L 620.133, 446.42 L 623.552, 445.565 L 624.578, 444.197 L 623.552, 441.633 L 626.972, 440.778 L 627.997, 443.343 L 629.536, 444.027 L 632.956, 443.343 L 633.982, 445.907 L 635.691, 446.591 L 638.94, 445.736 L 639.966, 448.301 L 641.505, 448.985 L 644.924, 448.301 L 645.95, 450.695 L 647.489, 451.378 L 650.908, 450.695 L 651.934, 453.259 L 653.473, 453.943 L 656.892, 453.259 L 657.918, 455.824 L 659.457, 456.337 L 662.877, 455.653 L 663.903, 458.218 L 665.612, 458.901 L 669.032, 458.218 L 669.887, 460.611 L 671.426, 461.295 L 674.845, 460.611 L 675.871, 463.176 L 677.41, 463.86 L 681, 463.176 L 681.855, 465.57 L 683.565, 466.253 L 686.813, 465.57 L 687.839, 468.134 L 689.378, 468.818 L 692.798, 468.134 L 693.823, 470.528 L 695.362, 471.212 L 698.953, 470.528 L 699.808, 473.093 L 701.346, 473.605 L 704.766, 472.922 L 705.792, 475.486 L 707.331, 476.17 L 710.75, 475.486 L 711.776, 477.88 L 713.486, 478.564 L 716.905, 477.88 L 717.76, 480.445 L 714.341, 481.128 L 713.315, 482.667 L 714.341, 485.232 L 710.921, 485.916 L 709.895, 487.284 L 710.921, 489.848 L 707.502, 490.703 L 706.476, 492.071 L 707.502, 494.636 L 704.082, 495.49 L 703.227, 496.858 L 704.082, 499.423 L 700.663, 500.107 L 699.637, 501.646 L 700.663, 504.21 L 697.414, 504.894 L 696.217, 506.433 L 697.243, 508.998 L 693.823, 509.682 L 692.798, 511.22 L 693.823, 513.785 L 690.404, 514.469 L 689.378, 515.837 L 690.404, 518.401 L 686.984, 519.256 L 685.959, 520.624 L 686.984, 523.189 L 683.736, 523.873 L 682.539, 525.411 L 683.565, 527.976 L 680.145, 528.66 L 679.119, 530.199 L 680.145, 532.763 L 676.897, 533.447 L 675.871, 534.815 L 676.897, 537.38 L 673.306, 538.064 L 672.451, 535.67 L 671.255, 535.157 L 667.664, 535.841 L 666.809, 533.276 L 665.612, 532.763 L 662.022, 533.618 L 661.167, 531.054 L 659.97, 530.541 L 656.551, 531.225 L 655.525, 528.66 L 654.328, 528.147 L 650.908, 528.831 L 649.882, 526.266 L 648.686, 525.924 L 645.266, 526.608 L 644.411, 524.044 L 643.043, 523.531 L 639.624, 524.215 L 638.769, 521.65 L 637.401, 521.308 L 633.982, 521.992 L 633.127, 519.427 L 631.93, 518.914 L 628.339, 519.598 L 627.485, 517.034 L 626.288, 516.521 L 622.868, 517.376 L 621.842, 514.811 L 620.645, 514.298 L 617.226, 514.982 L 616.371, 512.417 L 615.003, 511.904 L 611.584, 512.759 L 610.558, 510.194 L 609.361, 509.682 L 605.941, 510.365 L 605.087, 507.801 L 603.719, 507.288 L 600.299, 508.143 L 599.444, 505.578 L 598.077, 505.065 L 594.657, 505.749 L 593.802, 503.184 L 592.605, 502.672 L 589.186, 503.355 L 588.16, 500.962 L 586.963, 500.449 L 583.543, 501.133 L 582.518, 498.568 z "/>
<path style="fill:rgb(0, 255, 0);fill-opacity:0;fill-rule:evenodd;stroke:rgb(0, 213, 255);stroke-width:1;" d="M 713.144, 549.348 L 721.351, 538.406 L 743.065, 509.511 L 751.614, 497.884 L 759.479, 501.304 L 764.095, 495.32 L 771.96, 498.739 L 776.576, 492.413 L 792.135, 499.081 L 806.668, 505.236 L 821.714, 511.733 L 817.098, 517.888 L 824.963, 521.308 L 820.517, 527.292 L 828.382, 530.712 L 820.004, 541.825 L 798.29, 570.891 L 789.912, 582.176 L 781.876, 578.756 L 777.089, 584.911 L 769.224, 581.492 L 764.95, 587.305 L 750.588, 581.15 L 735.371, 574.653 L 719.812, 567.985 L 724.257, 562.171 L 716.734, 558.752 L 721.18, 552.768 L 713.144, 549.348 z "/>
<path style="fill:rgb(0, 0, 255);fill-opacity:0;fill-rule:evenodd;stroke:rgb(0, 213, 255);stroke-width:1;" d="M 585.937, 497.884 L 587.134, 496.345 L 589.528, 493.097 L 590.383, 491.558 L 592.776, 488.309 L 593.973, 486.942 L 596.196, 483.522 L 597.222, 482.154 L 599.615, 478.906 L 600.641, 477.367 L 603.035, 474.118 L 604.061, 472.751 L 606.454, 469.331 L 607.48, 467.963 L 609.874, 464.715 L 610.9, 463.176 L 613.293, 459.756 L 614.319, 458.389 L 616.713, 455.14 L 617.739, 453.601 L 620.133, 450.353 L 621.158, 448.985 L 623.552, 445.565 L 624.578, 444.197 L 627.997, 443.343 L 629.536, 444.027 L 633.982, 445.907 L 635.691, 446.591 L 639.966, 448.301 L 641.505, 448.985 L 645.95, 450.695 L 647.489, 451.378 L 651.934, 453.259 L 653.473, 453.943 L 657.918, 455.824 L 659.457, 456.337 L 663.903, 458.218 L 665.612, 458.901 L 669.887, 460.611 L 671.426, 461.295 L 675.871, 463.176 L 677.41, 463.86 L 681.855, 465.57 L 683.565, 466.253 L 687.839, 468.134 L 689.378, 468.818 L 693.823, 470.528 L 695.362, 471.212 L 699.808, 473.093 L 701.346, 473.605 L 705.792, 475.486 L 707.331, 476.17 L 711.776, 477.88 L 713.486, 478.564 L 714.341, 481.128 L 713.315, 482.667 L 710.921, 485.916 L 709.895, 487.284 L 707.502, 490.703 L 706.476, 492.071 L 704.082, 495.49 L 703.227, 496.858 L 700.663, 500.107 L 699.637, 501.646 L 697.414, 504.894 L 696.217, 506.433 L 693.823, 509.682 L 692.798, 511.22 L 690.404, 514.469 L 689.378, 515.837 L 686.984, 519.256 L 685.959, 520.624 L 683.736, 523.873 L 682.539, 525.411 L 680.145, 528.66 L 679.119, 530.199 L 676.897, 533.447 L 675.871, 534.815 L 672.451, 535.67 L 671.255, 535.157 L 666.809, 533.276 L 665.612, 532.763 L 661.167, 531.054 L 659.97, 530.541 L 655.525, 528.66 L 654.328, 528.147 L 649.882, 526.266 L 648.686, 525.924 L 644.411, 524.044 L 643.043, 523.531 L 638.769, 521.65 L 637.401, 521.308 L 633.127, 519.427 L 631.93, 518.914 L 627.485, 517.034 L 626.288, 516.521 L 621.842, 514.811 L 620.645, 514.298 L 616.371, 512.417 L 615.003, 511.904 L 610.558, 510.194 L 609.361, 509.682 L 605.087, 507.801 L 603.719, 507.288 L 599.444, 505.578 L 598.077, 505.065 L 593.802, 503.184 L 592.605, 502.672 L 588.16, 500.962 L 586.963, 500.449 L 585.937, 497.884 z "/>
<path style="fill:rgb(255, 255, 0);fill-opacity:0;fill-rule:evenodd;stroke:rgb(0, 213, 255);stroke-width:1;" d="M 288.267, 108.57 L 293.396, 101.56 L 293.909, 100.876 L 317.846, 67.8778 L 333.918, 74.7168 L 344.86, 79.1622 L 361.787, 86.3432 L 416.328, 109.254 L 449.498, 63.4324 L 453.259, 64.9711 L 457.534, 66.8519 L 424.364, 112.503 L 425.39, 113.016 L 395.811, 153.708 L 390.682, 151.656 L 288.267, 108.57 z "/>
<path style="fill:rgb(255, 0, 0);fill-opacity:0;fill-rule:evenodd;stroke:rgb(0, 213, 255);stroke-width:1;" d="M 757.427, 249.797 L 773.157, 227.741 L 784.099, 232.357 L 792.648, 220.731 L 896.26, 263.988 L 891.302, 270.485 L 876.769, 290.489 L 870.1, 299.209 L 840.692, 286.899 L 821.543, 313.058 L 815.217, 321.607 L 788.716, 310.323 L 795.213, 301.603 L 818.978, 270.143 L 807.352, 265.014 L 804.103, 269.63 L 757.427, 249.797 z "/>
<path style="fill:rgb(0, 255, 0);fill-opacity:0;fill-rule:evenodd;stroke:rgb(0, 213, 255);stroke-width:1;" d="M 985.51, 111.306 L 990.468, 104.638 L 997.478, 95.234 L 1002.95, 87.882 L 1004.32, 88.395 L 1016.11, 93.3533 L 1019.53, 94.8921 L 1052.19, 50.6091 L 1053.56, 51.293 L 1138.19, 87.1981 L 1139.9, 87.882 L 1134.6, 94.7211 L 1125.2, 107.544 L 1119.73, 114.896 L 1118.36, 114.212 L 1072.19, 94.7211 L 1069.29, 93.3533 L 1067.58, 95.576 L 1060.91, 104.467 L 1039.2, 134.046 L 986.536, 111.648 L 985.51, 111.306 z "/>
<path style="fill:rgb(0, 0, 255);fill-opacity:0;fill-rule:evenodd;stroke:rgb(0, 213, 255);stroke-width:1;" d="M 721.351, 538.406 L 743.065, 509.511 L 750.075, 512.588 L 754.691, 506.262 L 762.556, 509.682 L 767.172, 503.697 L 775.037, 507.117 L 779.654, 500.791 L 788.032, 504.381 L 792.135, 499.081 L 806.668, 505.236 L 802.565, 510.536 L 810.601, 513.956 L 805.984, 520.282 L 813.849, 523.702 L 809.404, 529.686 L 817.269, 533.105 L 812.994, 538.919 L 820.004, 541.825 L 798.29, 570.891 L 791.109, 567.814 L 786.664, 573.798 L 778.799, 570.378 L 774.183, 576.533 L 766.147, 573.114 L 761.872, 578.927 L 754.52, 575.85 L 750.588, 581.15 L 735.371, 574.653 L 739.303, 569.352 L 730.925, 565.762 L 735.371, 559.778 L 727.677, 556.529 L 732.293, 550.545 L 724.257, 546.954 L 728.532, 541.312 L 721.351, 538.406 z "/>
<path style="fill:rgb(255, 255, 0);fill-opacity:0;fill-rule:evenodd;stroke:rgb(0, 213, 255);stroke-width:1;" d="M 940.714, 633.469 L 966.702, 598.589 L 1061.25, 638.94 L 1077.15, 645.608 L 1081.6, 647.489 L 1055.44, 682.71 L 1050.99, 680.829 L 1035.09, 674.161 L 940.714, 633.469 z "/>
<path style="fill:rgb(255, 0, 0);fill-opacity:0;fill-rule:evenodd;stroke:rgb(0, 213, 255);stroke-width:1;" d="M 830.776, 563.71 L 831.118, 563.197 L 854.2, 532.25 L 861.894, 521.992 L 957.811, 563.197 L 946.014, 579.269 L 926.865, 604.916 L 886.685, 587.647 L 855.396, 574.311 L 830.776, 563.71 z "/>
<path style="fill:rgb(0, 255, 0);fill-opacity:0;fill-rule:evenodd;stroke:rgb(0, 213, 255);stroke-width:1;" d="M 168.241, 191.494 L 175.422, 181.577 L 188.416, 163.796 L 192.178, 158.495 L 194.742, 159.692 L 196.794, 156.786 L 229.28, 170.464 L 234.751, 172.686 L 239.538, 174.738 L 249.968, 179.013 L 279.718, 138.149 L 300.406, 147.04 L 291.857, 158.666 L 287.754, 164.138 L 270.314, 187.732 L 253.046, 211.669 L 248.942, 217.14 L 245.523, 221.757 L 245.01, 222.612 L 240.906, 227.912 L 209.959, 215.26 L 213.55, 210.472 L 168.241, 191.494 z "/>
<path style="fill:rgb(0, 0, 255);fill-opacity:0;fill-rule:evenodd;stroke:rgb(0, 213, 255);stroke-width:1;" d="M 694.849, 140.201 L 705.108, 126.181 L 716.221, 130.968 L 717.589, 129.087 L 720.667, 130.284 L 723.915, 125.839 L 720.838, 124.471 L 722.206, 122.761 L 716.734, 120.368 L 744.262, 82.9237 L 749.562, 85.3174 L 751.443, 82.9237 L 754.52, 84.1205 L 757.598, 80.0171 L 754.52, 78.6493 L 755.888, 76.7685 L 744.946, 72.1522 L 755.375, 57.7901 L 804.958, 78.8203 L 744.433, 161.231 L 694.849, 140.201 z "/>
<path style="fill:rgb(255, 255, 0);fill-opacity:0;fill-rule:evenodd;stroke:rgb(0, 213, 255);stroke-width:1;" d="M 253.216, 226.544 L 253.558, 226.202 L 257.491, 220.731 L 261.423, 215.26 L 295.619, 167.386 L 299.551, 161.915 L 303.655, 156.273 L 306.048, 157.299 L 310.323, 159.008 L 320.581, 163.283 L 324.343, 164.822 L 326.736, 165.847 L 325.027, 168.412 L 322.975, 170.977 L 316.307, 180.38 L 326.395, 184.655 L 333.234, 175.251 L 335.114, 172.515 L 336.824, 170.122 L 339.047, 170.977 L 343.15, 172.686 L 353.409, 176.961 L 357.17, 178.5 L 359.222, 179.355 L 354.948, 185.168 L 351.015, 190.639 L 316.82, 238.342 L 312.887, 243.813 L 308.955, 249.284 L 308.955, 249.455 L 302.287, 246.719 L 292.028, 242.616 L 285.702, 240.051 L 286.899, 238.342 L 289.293, 234.922 L 296.132, 225.518 L 285.873, 221.244 L 279.205, 230.648 L 276.811, 234.067 L 275.614, 235.777 L 269.288, 233.212 L 259.03, 228.938 L 253.216, 226.544 z "/>
<path style="fill:rgb(255, 0, 0);fill-opacity:0;fill-rule:evenodd;stroke:rgb(0, 213, 255);stroke-width:1;" d="M 756.743, 669.887 L 770.934, 650.566 L 779.141, 639.453 L 832.315, 660.825 L 867.536, 675.529 L 927.72, 700.321 L 905.322, 731.096 L 882.924, 721.864 L 852.49, 709.382 L 867.365, 688.694 L 817.611, 668.006 L 802.565, 688.865 L 756.743, 669.887 z "/>
<path style="fill:rgb(0, 255, 0);fill-opacity:0;fill-rule:evenodd;stroke:rgb(0, 213, 255);stroke-width:1;" d="M 450.011, 176.448 L 479.761, 135.414 L 509.682, 94.0372 L 550.203, 110.964 L 490.361, 193.375 L 450.011, 176.448 z "/>
<path style="fill:rgb(0, 0, 255);fill-opacity:0;fill-rule:evenodd;stroke:rgb(0, 213, 255);stroke-width:1;" d="M 902.415, 507.801 L 903.27, 506.775 L 936.439, 460.44 L 1006.54, 489.677 L 972.515, 536.867 L 902.415, 507.801 z "/>
<path style="fill:rgb(255, 255, 0);fill-opacity:0;fill-rule:evenodd;stroke:rgb(0, 213, 255);stroke-width:1;" d="M 935.926, 738.79 L 960.718, 704.937 L 1018.34, 729.558 L 1041.25, 738.961 L 1012.35, 778.799 L 962.257, 757.94 L 966.873, 751.785 L 935.926, 738.79 z "/>
<path style="fill:rgb(255, 0, 0);fill-opacity:0;fill-rule:evenodd;stroke:rgb(0, 213, 255);stroke-width:1;" d="M 656.209, 390.34 L 689.549, 343.492 L 699.637, 347.938 L 712.118, 330.84 L 744.946, 344.689 L 744.262, 345.886 L 758.111, 351.699 L 749.904, 362.3 L 740.5, 375.465 L 730.412, 371.19 L 702.714, 409.318 L 656.209, 390.34 z "/>
<path style="fill:rgb(0, 255, 0);fill-opacity:0;fill-rule:evenodd;stroke:rgb(0, 213, 255);stroke-width:1;" d="M 422.825, 707.331 L 462.663, 653.131 L 472.922, 657.405 L 516.35, 675.7 L 476.683, 729.9 L 433.084, 711.605 L 422.825, 707.331 z "/>
<path style="fill:rgb(0, 0, 255);fill-opacity:0;fill-rule:evenodd;stroke:rgb(0, 213, 255);stroke-width:1;" d="M 777.089, 724.086 L 802.565, 688.865 L 817.611, 668.006 L 867.365, 688.694 L 852.49, 709.382 L 850.438, 712.118 L 827.014, 744.775 L 777.089, 724.086 z "/>
<path style="fill:rgb(255, 255, 0);fill-opacity:0;fill-rule:evenodd;stroke:rgb(0, 213, 255);stroke-width:1;" d="M 180.722, 479.077 L 234.751, 404.189 L 272.024, 419.577 L 263.646, 431.032 L 226.031, 483.18 L 217.824, 494.636 L 180.722, 479.077 z "/>
<path style="fill:rgb(255, 0, 0);fill-opacity:0;fill-rule:evenodd;stroke:rgb(0, 213, 255);stroke-width:1;" d="M 719.983, 290.489 L 751.614, 247.232 L 757.427, 249.797 L 804.103, 269.63 L 807.352, 265.014 L 818.978, 270.143 L 795.213, 301.603 L 788.716, 310.323 L 783.415, 317.162 L 757.427, 306.219 L 760.846, 300.919 L 748.536, 295.79 L 744.775, 300.919 L 719.983, 290.489 z "/>
<path style="fill:rgb(0, 255, 0);fill-opacity:0;fill-rule:evenodd;stroke:rgb(0, 213, 255);stroke-width:1;" d="M 880.017, 218.337 L 900.192, 190.297 L 909.596, 177.645 L 972.857, 204.146 L 943.278, 244.839 L 880.017, 218.337 z "/>
<path style="fill:rgb(0, 0, 255);fill-opacity:0;fill-rule:evenodd;stroke:rgb(0, 213, 255);stroke-width:1;" d="M 757.427, 249.797 L 773.157, 227.741 L 784.099, 232.357 L 794.7, 236.974 L 856.935, 263.988 L 847.361, 277.324 L 840.692, 286.899 L 821.543, 313.058 L 795.213, 301.603 L 818.978, 270.143 L 807.352, 265.014 L 804.103, 269.63 L 757.427, 249.797 z "/>
<path style="fill:rgb(255, 255, 0);fill-opacity:0;fill-rule:evenodd;stroke:rgb(0, 213, 255);stroke-width:1;" d="M 147.553, 465.399 L 153.195, 457.534 L 158.666, 450.011 L 165.847, 439.923 L 183.116, 416.157 L 190.468, 406.07 L 195.768, 398.547 L 201.582, 390.511 L 218.508, 397.521 L 234.751, 404.189 L 180.722, 479.077 L 163.967, 472.238 L 147.553, 465.399 z "/>
<path style="fill:rgb(255, 0, 0);fill-opacity:0;fill-rule:evenodd;stroke:rgb(0, 213, 255);stroke-width:1;" d="M 798.119, 183.629 L 819.491, 154.221 L 822.227, 153.879 L 829.921, 143.449 L 890.96, 169.096 L 873.52, 193.033 L 872.836, 192.862 L 861.21, 208.592 L 854.884, 206.027 L 866.51, 190.126 L 863.774, 188.929 L 854.029, 202.265 L 850.609, 200.898 L 849.241, 202.778 L 842.231, 199.872 L 843.599, 197.991 L 841.547, 197.136 L 838.983, 200.727 L 798.119, 183.629 z "/>
<path style="fill:rgb(0, 255, 0);fill-opacity:0;fill-rule:evenodd;stroke:rgb(0, 213, 255);stroke-width:1;" d="M 282.966, 343.15 L 318.701, 294.422 L 367.771, 315.11 L 362.471, 322.462 L 354.435, 333.405 L 332.037, 364.18 L 282.966, 343.15 z "/>
<path style="fill:rgb(0, 0, 255);fill-opacity:0;fill-rule:evenodd;stroke:rgb(0, 213, 255);stroke-width:1;" d="M 823.766, 140.372 L 843.77, 113.7 L 856.593, 119.342 L 863.774, 109.938 L 905.322, 127.891 L 919, 133.875 L 912.161, 143.108 L 904.638, 153.708 L 892.156, 169.78 L 890.96, 169.096 L 829.921, 143.449 L 823.766, 140.372 z "/>
<path style="fill:rgb(255, 255, 0);fill-opacity:0;fill-rule:evenodd;stroke:rgb(0, 213, 255);stroke-width:1;" d="M 293.909, 100.876 L 314.597, 78.4783 L 410.515, 119.855 L 393.417, 143.278 L 293.909, 100.876 z "/>
<path style="fill:rgb(255, 0, 0);fill-opacity:0;fill-rule:evenodd;stroke:rgb(0, 213, 255);stroke-width:1;" d="M 850.096, 484.719 L 853.516, 479.761 L 868.733, 458.73 L 876.085, 448.643 L 882.24, 451.208 L 888.395, 453.772 L 896.431, 443.856 L 902.244, 446.42 L 908.228, 448.814 L 924.471, 455.653 L 930.455, 458.047 L 936.439, 460.44 L 903.27, 506.775 L 897.115, 504.21 L 890.96, 501.646 L 862.406, 489.848 L 856.251, 487.284 L 850.096, 484.719 z "/>
<path style="fill:rgb(0, 255, 0);fill-opacity:0;fill-rule:evenodd;stroke:rgb(0, 213, 255);stroke-width:1;" d="M 804.787, 393.246 L 818.978, 373.584 L 935.072, 421.8 L 920.71, 441.462 L 902.928, 434.11 L 865.142, 418.38 L 804.787, 393.246 z "/>
<path style="fill:rgb(0, 0, 255);fill-opacity:0;fill-rule:evenodd;stroke:rgb(0, 213, 255);stroke-width:1;" d="M 823.766, 140.372 L 843.77, 113.7 L 856.593, 119.342 L 863.774, 109.938 L 905.322, 127.891 L 898.483, 137.123 L 912.161, 143.108 L 904.638, 153.708 L 892.156, 169.78 L 890.96, 169.096 L 829.921, 143.449 L 823.766, 140.372 z "/>
<path style="fill:rgb(255, 255, 0);fill-opacity:0;fill-rule:evenodd;stroke:rgb(0, 213, 255);stroke-width:1;" d="M 312.545, 258.346 L 316.82, 252.533 L 320.752, 247.061 L 324.856, 241.59 L 359.735, 194.23 L 363.667, 188.758 L 372.045, 177.303 L 375.294, 178.671 L 381.278, 181.235 L 387.775, 183.8 L 401.624, 189.613 L 389.314, 206.711 L 369.823, 233.041 L 365.548, 231.161 L 337.85, 268.946 L 328.446, 265.014 L 315.623, 259.714 L 312.545, 258.346 z "/>
<path style="fill:rgb(255, 0, 0);fill-opacity:0;fill-rule:evenodd;stroke:rgb(0, 213, 255);stroke-width:1;" d="M 312.545, 258.346 L 316.82, 252.533 L 320.752, 247.061 L 324.856, 241.59 L 359.735, 194.23 L 363.667, 188.758 L 372.045, 177.303 L 375.294, 178.671 L 381.278, 181.235 L 387.775, 183.8 L 401.624, 189.613 L 369.823, 233.041 L 365.548, 231.161 L 337.85, 268.946 L 328.446, 265.014 L 322.12, 262.449 L 315.623, 259.714 L 312.545, 258.346 z "/>
<path style="fill:rgb(0, 255, 0);fill-opacity:0;fill-rule:evenodd;stroke:rgb(0, 213, 255);stroke-width:1;" d="M 733.832, 545.074 L 757.427, 513.614 L 765.292, 517.034 L 769.737, 511.049 L 777.602, 514.298 L 782.389, 508.143 L 800.855, 516.008 L 796.239, 522.334 L 804.274, 525.753 L 799.658, 531.738 L 807.523, 534.986 L 784.099, 566.446 L 776.063, 563.026 L 771.447, 569.181 L 763.582, 565.762 L 759.137, 571.746 L 740.671, 563.71 L 745.116, 557.726 L 737.423, 554.477 L 741.868, 548.493 L 733.832, 545.074 z "/>
<path style="fill:rgb(0, 0, 255);fill-opacity:0;fill-rule:evenodd;stroke:rgb(0, 213, 255);stroke-width:1;" d="M 240.393, 367.6 L 250.823, 353.922 L 259.201, 342.808 L 259.885, 341.44 L 264.672, 335.114 L 271.682, 338.192 L 282.966, 343.15 L 332.037, 364.18 L 326.395, 371.532 L 321.778, 377.688 L 313.058, 389.485 L 307.587, 396.666 L 254.413, 373.755 L 240.393, 367.6 z "/>
<path style="fill:rgb(255, 255, 0);fill-opacity:0;fill-rule:evenodd;stroke:rgb(0, 213, 255);stroke-width:1;" d="M 846.677, 565.591 L 869.588, 534.815 L 938.833, 564.394 L 915.751, 595.17 L 846.677, 565.591 z "/>
<path style="fill:rgb(255, 0, 0);fill-opacity:0;fill-rule:evenodd;stroke:rgb(0, 213, 255);stroke-width:1;" d="M 779.996, 426.929 L 799.658, 399.915 L 786.151, 394.272 L 790.938, 387.604 L 804.787, 393.246 L 865.142, 418.38 L 843.428, 448.13 L 840.521, 452.062 L 779.996, 426.929 z "/>
<path style="fill:rgb(0, 255, 0);fill-opacity:0;fill-rule:evenodd;stroke:rgb(0, 213, 255);stroke-width:1;" d="M 935.926, 738.79 L 960.718, 704.937 L 1018.34, 729.558 L 994.059, 763.24 L 966.873, 751.785 L 935.926, 738.79 z "/>
<path style="fill:rgb(0, 0, 255);fill-opacity:0;fill-rule:evenodd;stroke:rgb(0, 213, 255);stroke-width:1;" d="M 186.023, 152.169 L 198.846, 134.388 L 202.778, 128.916 L 215.773, 111.306 L 263.475, 131.31 L 250.652, 149.092 L 245.865, 147.04 L 229.28, 170.464 L 196.794, 156.786 L 186.023, 152.169 z "/>
<path style="fill:rgb(255, 255, 0);fill-opacity:0;fill-rule:evenodd;stroke:rgb(0, 213, 255);stroke-width:1;" d="M 674.503, 382.646 L 699.637, 347.938 L 712.118, 330.84 L 744.946, 344.689 L 744.262, 345.886 L 736.226, 356.657 L 726.822, 369.652 L 730.412, 371.19 L 710.921, 398.034 L 674.503, 382.646 z "/>
<path style="fill:rgb(255, 0, 0);fill-opacity:0;fill-rule:evenodd;stroke:rgb(0, 213, 255);stroke-width:1;" d="M 975.251, 394.443 L 985.168, 380.936 L 991.152, 372.558 L 1006.54, 379.055 L 1011.16, 372.9 L 1048.26, 388.63 L 1043.64, 394.956 L 1059.03, 401.453 L 1043.3, 422.996 L 1037.32, 420.432 L 1036.63, 421.458 L 1035.43, 421.971 L 1034.75, 422.312 L 1033.38, 422.312 L 1032.7, 422.312 L 1031.5, 421.8 L 1030.48, 421.116 L 1030.13, 420.603 L 1029.79, 419.919 L 1029.79, 419.064 L 1030.13, 418.038 L 1030.48, 417.696 L 1027.23, 416.328 L 1026.37, 417.183 L 1025.35, 417.867 L 1024.66, 418.038 L 1023.12, 418.038 L 1021.76, 417.696 L 1021.24, 417.354 L 1020.39, 416.67 L 1019.88, 415.473 L 1020.05, 414.448 L 1020.56, 413.422 L 997.991, 403.847 L 997.649, 404.36 L 996.623, 405.215 L 995.255, 405.728 L 993.888, 405.728 L 992.52, 405.386 L 991.323, 404.702 L 990.639, 403.676 L 990.468, 402.65 L 990.81, 401.624 L 991.323, 401.111 L 987.903, 399.744 L 987.219, 400.598 L 986.707, 400.94 L 985.51, 401.453 L 984.826, 401.624 L 983.458, 401.453 L 982.09, 401.111 L 981.064, 400.427 L 980.722, 399.915 L 980.38, 398.889 L 980.551, 397.863 L 981.064, 396.837 L 975.251, 394.443 z "/>
<path style="fill:rgb(0, 255, 0);fill-opacity:0;fill-rule:evenodd;stroke:rgb(0, 213, 255);stroke-width:1;" d="M 856.251, 487.284 L 882.24, 451.208 L 888.395, 453.772 L 894.721, 456.337 L 902.244, 446.42 L 908.228, 448.814 L 924.471, 455.653 L 930.455, 458.047 L 897.115, 504.21 L 890.96, 501.646 L 862.406, 489.848 L 856.251, 487.284 z "/>
<path style="fill:rgb(0, 0, 255);fill-opacity:0;fill-rule:evenodd;stroke:rgb(0, 213, 255);stroke-width:1;" d="M 818.978, 373.584 L 823.595, 367.087 L 962.257, 424.706 L 936.439, 460.44 L 930.455, 458.047 L 924.471, 455.653 L 908.228, 448.814 L 902.244, 446.42 L 896.431, 443.856 L 902.928, 434.11 L 920.71, 441.462 L 935.072, 421.8 L 818.978, 373.584 z "/>
<path style="fill:rgb(255, 255, 0);fill-opacity:0;fill-rule:evenodd;stroke:rgb(0, 213, 255);stroke-width:1;" d="M 186.023, 152.169 L 198.846, 134.388 L 222.954, 144.475 L 226.886, 139.175 L 202.778, 128.916 L 215.773, 111.306 L 263.475, 131.31 L 250.652, 149.092 L 245.865, 147.04 L 229.28, 170.464 L 196.794, 156.786 L 186.023, 152.169 z "/>
<path style="fill:rgb(255, 0, 0);fill-opacity:0;fill-rule:evenodd;stroke:rgb(0, 213, 255);stroke-width:1;" d="M 129.258, 302.116 L 137.294, 281.428 L 167.215, 287.925 L 165.847, 291.515 L 175.593, 293.909 L 244.155, 322.633 L 232.699, 338.534 L 165.847, 309.81 L 129.258, 302.116 z "/>
<path style="fill:rgb(0, 255, 0);fill-opacity:0;fill-rule:evenodd;stroke:rgb(0, 213, 255);stroke-width:1;" d="M 171.832, 190.468 L 173.541, 188.245 L 172.174, 187.561 L 176.106, 181.919 L 175.422, 181.577 L 188.416, 163.796 L 189.442, 164.138 L 193.204, 159.008 L 194.742, 159.692 L 196.794, 156.786 L 229.28, 170.464 L 234.751, 172.686 L 231.161, 177.645 L 233.041, 178.329 L 227.228, 186.365 L 245.01, 193.717 L 234.238, 208.592 L 225.176, 205.001 L 224.492, 205.856 L 216.115, 202.436 L 215.089, 203.633 L 210.814, 201.923 L 207.908, 205.856 L 200.043, 202.607 L 199.53, 203.291 L 183.116, 196.452 L 183.8, 195.597 L 171.832, 190.468 z "/>
<path style="fill:rgb(0, 0, 255);fill-opacity:0;fill-rule:evenodd;stroke:rgb(0, 213, 255);stroke-width:1;" d="M 1051.51, 49.5832 L 1051.85, 48.8993 L 1053.39, 46.8476 L 1055.1, 44.283 L 1162.64, 89.9337 L 1135.46, 126.865 L 1132.72, 130.797 L 1092.37, 113.7 L 1078.52, 107.715 L 1064.5, 101.731 L 1062.11, 104.98 L 1060.91, 104.467 L 1067.58, 95.576 L 1068.43, 96.0889 L 1069.46, 94.7211 L 1071.68, 95.576 L 1072.19, 94.7211 L 1118.36, 114.212 L 1117.85, 115.067 L 1120.41, 116.093 L 1126.39, 108.057 L 1125.2, 107.544 L 1134.6, 94.7211 L 1135.63, 95.234 L 1141.61, 87.0271 L 1139.05, 86.0013 L 1138.19, 87.1981 L 1053.56, 51.293 L 1054.07, 50.6091 L 1051.51, 49.5832 z "/>
<path style="fill:rgb(255, 255, 0);fill-opacity:0;fill-rule:evenodd;stroke:rgb(0, 213, 255);stroke-width:1;" d="M 366.574, 79.6751 L 374.439, 68.9036 L 382.475, 72.1522 L 384.869, 68.9036 L 392.904, 72.3231 L 397.692, 65.6551 L 389.656, 62.4065 L 392.221, 58.987 L 384.185, 55.5674 L 392.05, 44.6249 L 445.394, 67.0229 L 437.529, 77.7944 L 429.152, 74.3749 L 426.758, 77.9654 L 418.722, 74.5458 L 413.935, 81.043 L 421.971, 84.4625 L 419.577, 87.711 L 427.784, 91.1306 L 419.919, 102.073 L 366.574, 79.6751 z "/>
<path style="fill:rgb(255, 0, 0);fill-opacity:0;fill-rule:evenodd;stroke:rgb(0, 213, 255);stroke-width:1;" d="M 768.198, 443.514 L 779.996, 426.929 L 840.521, 452.062 L 843.428, 448.13 L 868.733, 458.73 L 853.516, 479.761 L 768.198, 443.514 z "/>
<path style="fill:rgb(0, 255, 0);fill-opacity:0;fill-rule:evenodd;stroke:rgb(0, 213, 255);stroke-width:1;" d="M 129.258, 279.718 L 131.994, 272.366 L 147.211, 231.844 L 184.997, 240.222 L 167.215, 287.925 L 137.294, 281.428 L 129.258, 279.718 z "/>
<path style="fill:rgb(0, 0, 255);fill-opacity:0;fill-rule:evenodd;stroke:rgb(0, 213, 255);stroke-width:1;" d="M 824.108, 616.2 L 828.895, 610.045 L 830.263, 607.822 L 848.899, 583.031 L 855.396, 574.311 L 886.685, 587.647 L 880.188, 596.367 L 860.184, 623.381 L 858.645, 625.433 L 855.567, 629.536 L 840.351, 623.21 L 824.108, 616.2 z "/>
<path style="fill:rgb(255, 255, 0);fill-opacity:0;fill-rule:evenodd;stroke:rgb(0, 213, 255);stroke-width:1;" d="M 858.645, 625.433 L 860.184, 623.381 L 880.188, 596.367 L 886.685, 587.647 L 926.865, 604.916 L 921.735, 611.926 L 913.016, 608.335 L 887.369, 642.872 L 880.188, 639.966 L 883.266, 635.862 L 858.645, 625.433 z "/>
<path style="fill:rgb(255, 0, 0);fill-opacity:0;fill-rule:evenodd;stroke:rgb(0, 213, 255);stroke-width:1;" d="M 233.554, 85.6593 L 255.952, 55.0545 L 274.589, 62.9194 L 268.091, 71.8102 L 274.931, 74.5458 L 278.521, 69.9295 L 295.277, 76.9395 L 289.122, 85.4884 L 295.277, 88.053 L 287.241, 99.1665 L 282.112, 106.177 L 233.554, 85.6593 z "/>
<path style="fill:rgb(0, 255, 0);fill-opacity:0;fill-rule:evenodd;stroke:rgb(0, 213, 255);stroke-width:1;" d="M 928.916, 377.004 L 939.346, 362.471 L 945.501, 365.035 L 957.982, 347.938 L 991.494, 361.958 L 979.526, 378.542 L 985.168, 380.936 L 975.251, 394.443 L 973.883, 396.324 L 967.215, 393.588 L 965.334, 394.101 L 935.243, 381.449 L 934.901, 379.568 L 928.916, 377.004 z "/>
<path style="fill:rgb(0, 0, 255);fill-opacity:0;fill-rule:evenodd;stroke:rgb(0, 213, 255);stroke-width:1;" d="M 644.582, 119 L 653.986, 106.177 L 667.664, 111.99 L 676.042, 100.705 L 662.193, 94.8921 L 666.809, 88.5659 L 670.058, 84.1205 L 715.196, 103.27 L 707.502, 114.041 L 694.507, 108.57 L 686.3, 119.855 L 699.124, 125.326 L 689.891, 137.978 L 644.582, 119 z "/>
<path style="fill:rgb(255, 255, 0);fill-opacity:0;fill-rule:evenodd;stroke:rgb(0, 213, 255);stroke-width:1;" d="M 438.213, 703.911 L 466.253, 665.783 L 499.081, 679.461 L 471.041, 717.76 L 438.213, 703.911 z "/>
<path style="fill:rgb(255, 0, 0);fill-opacity:0;fill-rule:evenodd;stroke:rgb(0, 213, 255);stroke-width:1;" d="M 727.335, 713.315 L 750.759, 681.171 L 789.228, 697.414 L 767.856, 726.822 L 765.805, 729.558 L 727.335, 713.315 z "/>
<path style="fill:rgb(0, 255, 0);fill-opacity:0;fill-rule:evenodd;stroke:rgb(0, 213, 255);stroke-width:1;" d="M 972.515, 536.867 L 1006.54, 489.677 L 1032.19, 500.278 L 1027.91, 506.262 L 1016.63, 521.992 L 998.162, 547.638 L 972.515, 536.867 z "/>
<path style="fill:rgb(0, 0, 255);fill-opacity:0;fill-rule:evenodd;stroke:rgb(0, 213, 255);stroke-width:1;" d="M 869.588, 299.722 L 870.1, 299.209 L 876.769, 290.489 L 891.302, 270.485 L 896.26, 263.988 L 899.337, 258.859 L 928.916, 271.34 L 927.72, 273.05 L 899.166, 312.203 L 890.96, 308.613 L 881.385, 304.68 L 869.588, 299.722 z "/>
<path style="fill:rgb(255, 255, 0);fill-opacity:0;fill-rule:evenodd;stroke:rgb(0, 213, 255);stroke-width:1;" d="M 862.406, 489.848 L 888.395, 453.772 L 894.721, 456.337 L 900.876, 459.072 L 908.228, 448.814 L 924.471, 455.653 L 890.96, 501.646 L 862.406, 489.848 z "/>
<path style="fill:rgb(255, 0, 0);fill-opacity:0;fill-rule:evenodd;stroke:rgb(0, 213, 255);stroke-width:1;" d="M 968.412, 332.379 L 969.096, 331.353 L 975.593, 322.633 L 985.339, 326.566 L 994.571, 314.084 L 984.826, 309.981 L 993.204, 298.354 L 1033.21, 315.11 L 1030.65, 318.53 L 1024.66, 326.736 L 1015.43, 322.804 L 1006.37, 335.285 L 1015.6, 339.218 L 1014.92, 340.073 L 1008.25, 349.305 L 968.412, 332.379 z "/>
<path style="fill:rgb(0, 255, 0);fill-opacity:0;fill-rule:evenodd;stroke:rgb(0, 213, 255);stroke-width:1;" d="M 821.372, 752.297 L 827.014, 744.775 L 850.438, 712.118 L 878.478, 723.915 L 848.899, 764.437 L 821.372, 752.297 z "/>
<path style="fill:rgb(0, 0, 255);fill-opacity:0;fill-rule:evenodd;stroke:rgb(0, 213, 255);stroke-width:1;" d="M 943.278, 244.839 L 972.857, 204.146 L 1000.04, 215.602 L 970.464, 256.294 L 943.278, 244.839 z "/>
<path style="fill:rgb(255, 255, 0);fill-opacity:0;fill-rule:evenodd;stroke:rgb(0, 213, 255);stroke-width:1;" d="M 453.259, 124.3 L 457.705, 118.316 L 465.399, 107.715 L 473.434, 96.6018 L 483.351, 82.9237 L 509.682, 94.0372 L 479.761, 135.414 L 459.072, 126.694 L 453.259, 124.3 z "/>
<path style="fill:rgb(255, 0, 0);fill-opacity:0;fill-rule:evenodd;stroke:rgb(0, 213, 255);stroke-width:1;" d="M 811.113, 328.788 L 815.73, 322.462 L 821.714, 314.255 L 828.04, 316.991 L 841.034, 299.209 L 869.417, 311.178 L 856.422, 329.13 L 861.894, 331.353 L 851.464, 345.715 L 811.113, 328.788 z "/>
<path style="fill:rgb(0, 255, 0);fill-opacity:0;fill-rule:evenodd;stroke:rgb(0, 213, 255);stroke-width:1;" d="M 962.257, 757.94 L 966.873, 751.785 L 994.059, 763.24 L 1018.34, 729.558 L 1041.25, 738.961 L 1012.35, 778.799 L 962.257, 757.94 z "/>
<path style="fill:rgb(0, 0, 255);fill-opacity:0;fill-rule:evenodd;stroke:rgb(0, 213, 255);stroke-width:1;" d="M 443.856, 734.345 L 448.643, 727.677 L 471.212, 737.252 L 476.683, 729.9 L 516.35, 675.7 L 521.65, 668.348 L 498.91, 658.773 L 503.697, 652.105 L 535.157, 665.441 L 529.344, 673.477 L 479.761, 741.184 L 475.144, 747.339 L 443.856, 734.345 z "/>
<path style="fill:rgb(255, 255, 0);fill-opacity:0;fill-rule:evenodd;stroke:rgb(0, 213, 255);stroke-width:1;" d="M 843.428, 448.13 L 865.142, 418.38 L 902.928, 434.11 L 896.431, 443.856 L 888.395, 453.772 L 882.24, 451.208 L 876.085, 448.643 L 868.733, 458.73 L 843.428, 448.13 z "/>
<path style="fill:rgb(255, 0, 0);fill-opacity:0;fill-rule:evenodd;stroke:rgb(0, 213, 255);stroke-width:1;" d="M 1011.16, 273.392 L 1035.95, 239.196 L 1038.85, 240.393 L 1043.64, 233.725 L 1064.33, 242.445 L 1059.88, 248.6 L 1063.13, 249.968 L 1055.61, 260.056 L 1048.26, 256.978 L 1040.22, 268.262 L 1047.75, 271.34 L 1038.17, 284.676 L 1011.16, 273.392 z "/>
<path style="fill:rgb(0, 255, 0);fill-opacity:0;fill-rule:evenodd;stroke:rgb(0, 213, 255);stroke-width:1;" d="M 328.446, 265.014 L 334.259, 256.978 L 380.765, 193.546 L 387.775, 183.8 L 401.624, 189.613 L 389.314, 206.711 L 369.823, 233.041 L 365.548, 231.161 L 337.85, 268.946 L 328.446, 265.014 z "/>
<path style="fill:rgb(0, 0, 255);fill-opacity:0;fill-rule:evenodd;stroke:rgb(0, 213, 255);stroke-width:1;" d="M 794.7, 236.974 L 798.803, 231.673 L 891.302, 270.485 L 876.769, 290.489 L 847.361, 277.324 L 856.935, 263.988 L 794.7, 236.974 z "/>
<path style="fill:rgb(255, 255, 0);fill-opacity:0;fill-rule:evenodd;stroke:rgb(0, 213, 255);stroke-width:1;" d="M 695.875, 81.3849 L 702.03, 73.0071 L 715.708, 54.1996 L 718.444, 50.6091 L 723.06, 44.112 L 750.075, 55.5674 L 739.474, 70.1004 L 727.506, 64.9711 L 721.522, 73.178 L 733.49, 78.1364 L 722.719, 92.6694 L 695.875, 81.3849 z "/>
<path style="fill:rgb(255, 0, 0);fill-opacity:0;fill-rule:evenodd;stroke:rgb(0, 213, 255);stroke-width:1;" d="M 207.908, 205.856 L 210.814, 201.923 L 215.089, 203.633 L 216.115, 202.436 L 224.492, 205.856 L 225.176, 205.001 L 234.238, 208.592 L 245.01, 193.717 L 227.228, 186.365 L 233.041, 178.329 L 231.161, 177.645 L 234.751, 172.686 L 239.538, 174.738 L 249.968, 179.013 L 270.314, 187.732 L 253.046, 211.669 L 248.942, 217.14 L 245.523, 221.757 L 207.908, 205.856 z "/>
<path style="fill:rgb(0, 255, 0);fill-opacity:0;fill-rule:evenodd;stroke:rgb(0, 213, 255);stroke-width:1;" d="M 264.672, 335.114 L 266.04, 333.234 L 300.748, 286.899 L 306.732, 289.293 L 318.701, 294.422 L 282.966, 343.15 L 271.682, 338.192 L 264.672, 335.114 z "/>
<path style="fill:rgb(0, 0, 255);fill-opacity:0;fill-rule:evenodd;stroke:rgb(0, 213, 255);stroke-width:1;" d="M 656.209, 390.34 L 689.549, 343.492 L 699.637, 347.938 L 674.503, 382.646 L 710.921, 398.034 L 702.714, 409.318 L 656.209, 390.34 z "/>
<path style="fill:rgb(255, 255, 0);fill-opacity:0;fill-rule:evenodd;stroke:rgb(0, 213, 255);stroke-width:1;" d="M 828.895, 610.045 L 830.263, 607.822 L 848.899, 583.031 L 880.188, 596.367 L 860.184, 623.381 L 828.895, 610.045 z "/>
<path style="fill:rgb(255, 0, 0);fill-opacity:0;fill-rule:evenodd;stroke:rgb(0, 213, 255);stroke-width:1;" d="M 249.968, 179.013 L 279.718, 138.149 L 300.406, 147.04 L 291.857, 158.666 L 287.754, 164.138 L 270.314, 187.732 L 249.968, 179.013 z "/>
<path style="fill:rgb(0, 255, 0);fill-opacity:0;fill-rule:evenodd;stroke:rgb(0, 213, 255);stroke-width:1;" d="M 321.607, 251.678 L 368.113, 188.245 L 380.765, 193.546 L 334.259, 256.978 L 321.607, 251.678 z "/>
<path style="fill:rgb(0, 0, 255);fill-opacity:0;fill-rule:evenodd;stroke:rgb(0, 213, 255);stroke-width:1;" d="M 432.058, 107.544 L 439.752, 96.9438 L 447.104, 100.021 L 455.14, 88.9079 L 447.959, 85.8303 L 457.705, 72.1522 L 483.351, 82.9237 L 473.434, 96.6018 L 465.228, 93.0113 L 457.192, 104.125 L 465.399, 107.715 L 457.705, 118.316 L 432.058, 107.544 z "/>
<path style="fill:rgb(255, 255, 0);fill-opacity:0;fill-rule:evenodd;stroke:rgb(0, 213, 255);stroke-width:1;" d="M 784.099, 232.357 L 792.648, 220.731 L 896.26, 263.988 L 891.302, 270.485 L 798.803, 231.673 L 794.7, 236.974 L 784.099, 232.357 z "/>
<path style="fill:rgb(255, 0, 0);fill-opacity:0;fill-rule:evenodd;stroke:rgb(0, 213, 255);stroke-width:1;" d="M 344.86, 79.1622 L 374.952, 37.4439 L 392.05, 44.6249 L 384.185, 55.5674 L 374.439, 68.9036 L 366.574, 79.6751 L 361.787, 86.3432 L 344.86, 79.1622 z "/>
<path style="fill:rgb(0, 255, 0);fill-opacity:0;fill-rule:evenodd;stroke:rgb(0, 213, 255);stroke-width:1;" d="M 250.823, 353.922 L 259.201, 342.808 L 274.931, 349.647 L 273.05, 352.041 L 308.613, 367.429 L 310.494, 364.693 L 326.395, 371.532 L 321.778, 377.688 L 318.017, 382.817 L 315.281, 381.449 L 312.545, 380.252 L 309.468, 379.055 L 306.732, 377.859 L 303.997, 376.662 L 264.843, 359.906 L 262.107, 358.709 L 259.201, 357.512 L 256.123, 356.315 L 253.558, 355.119 L 250.823, 353.922 z "/>
<path style="fill:rgb(0, 0, 255);fill-opacity:0;fill-rule:evenodd;stroke:rgb(0, 213, 255);stroke-width:1;" d="M 660.654, 55.5674 L 666.125, 48.2154 L 677.239, 52.8318 L 685.104, 42.2312 L 685.617, 41.5473 L 699.979, 47.5315 L 715.708, 54.1996 L 702.03, 73.0071 L 660.654, 55.5674 z "/>
<path style="fill:rgb(255, 255, 0);fill-opacity:0;fill-rule:evenodd;stroke:rgb(0, 213, 255);stroke-width:1;" d="M 259.201, 342.808 L 259.885, 341.44 L 264.672, 335.114 L 282.966, 343.15 L 332.037, 364.18 L 326.395, 371.532 L 310.494, 364.693 L 308.613, 367.429 L 273.05, 352.041 L 274.931, 349.647 L 259.201, 342.808 z "/>
<path style="fill:rgb(255, 0, 0);fill-opacity:0;fill-rule:evenodd;stroke:rgb(0, 213, 255);stroke-width:1;" d="M 1034.07, 143.108 L 1039.88, 135.414 L 1062.11, 104.98 L 1064.5, 101.731 L 1078.52, 107.715 L 1048.09, 149.092 L 1034.07, 143.108 z "/>
<path style="fill:rgb(0, 255, 0);fill-opacity:0;fill-rule:evenodd;stroke:rgb(0, 213, 255);stroke-width:1;" d="M 1026.89, 226.544 L 1028.42, 224.15 L 1055.78, 186.707 L 1070.14, 192.691 L 1042.1, 231.161 L 1041.25, 232.528 L 1040.91, 232.357 L 1030.48, 228.083 L 1026.89, 226.544 z "/>
<path style="fill:rgb(0, 0, 255);fill-opacity:0;fill-rule:evenodd;stroke:rgb(0, 213, 255);stroke-width:1;" d="M 987.561, 210.13 L 990.126, 206.711 L 1017.82, 168.583 L 1030.65, 174.054 L 1029.45, 175.593 L 1011.5, 200.556 L 1000.38, 215.602 L 987.561, 210.13 z "/>
<path style="fill:rgb(255, 255, 0);fill-opacity:0;fill-rule:evenodd;stroke:rgb(0, 213, 255);stroke-width:1;" d="M 186.365, 188.416 L 192.52, 180.209 L 194.571, 177.474 L 193.204, 176.961 L 199.359, 168.754 L 201.582, 169.609 L 202.778, 167.899 L 225.86, 177.474 L 219.876, 185.51 L 209.959, 199.017 L 188.245, 189.955 L 188.758, 189.442 L 186.365, 188.416 z "/>
<path style="fill:rgb(255, 0, 0);fill-opacity:0;fill-rule:evenodd;stroke:rgb(0, 213, 255);stroke-width:1;" d="M 651.421, 68.0487 L 660.654, 55.5674 L 702.03, 73.0071 L 695.875, 81.3849 L 692.798, 85.4884 L 674.674, 77.7944 L 651.421, 68.0487 z "/>
<path style="fill:rgb(0, 255, 0);fill-opacity:0;fill-rule:evenodd;stroke:rgb(0, 213, 255);stroke-width:1;" d="M 976.619, 200.898 L 1004.32, 162.941 L 1017.82, 168.583 L 990.126, 206.711 L 976.619, 200.898 z "/>
<path style="fill:rgb(0, 0, 255);fill-opacity:0;fill-rule:evenodd;stroke:rgb(0, 213, 255);stroke-width:1;" d="M 1015.26, 218.679 L 1024.49, 206.027 L 1042.62, 181.235 L 1055.78, 186.707 L 1028.42, 224.15 L 1015.26, 218.679 z "/>
<path style="fill:rgb(255, 255, 0);fill-opacity:0;fill-rule:evenodd;stroke:rgb(0, 213, 255);stroke-width:1;" d="M 209.105, 126.865 L 217.995, 114.725 L 257.491, 131.481 L 248.6, 143.62 L 209.105, 126.865 z "/>
<path style="fill:rgb(255, 0, 0);fill-opacity:0;fill-rule:evenodd;stroke:rgb(0, 213, 255);stroke-width:1;" d="M 189.613, 149.776 L 198.504, 137.636 L 238.171, 154.221 L 229.28, 166.36 L 189.613, 149.776 z "/>
<path style="fill:rgb(0, 255, 0);fill-opacity:0;fill-rule:evenodd;stroke:rgb(0, 213, 255);stroke-width:1;" d="M 963.112, 199.017 L 992.862, 158.153 L 1004.32, 162.941 L 976.619, 200.898 L 974.567, 203.804 L 963.112, 199.017 z "/>
<path style="fill:rgb(0, 0, 255);fill-opacity:0;fill-rule:evenodd;stroke:rgb(0, 213, 255);stroke-width:1;" d="M 893.353, 364.351 L 894.55, 362.642 L 913.187, 337.166 L 920.71, 326.736 L 931.994, 331.524 L 920.71, 347.083 L 921.906, 347.596 L 907.202, 367.771 L 905.835, 369.652 L 893.353, 364.351 z "/>
<path style="fill:rgb(255, 255, 0);fill-opacity:0;fill-rule:evenodd;stroke:rgb(0, 213, 255);stroke-width:1;" d="M 764.437, 449.156 L 764.608, 448.643 L 768.198, 443.514 L 853.516, 479.761 L 850.096, 484.719 L 764.437, 449.156 z "/>
<path style="fill:rgb(255, 0, 0);fill-opacity:0;fill-rule:evenodd;stroke:rgb(0, 213, 255);stroke-width:1;" d="M 942.766, 190.468 L 954.221, 174.738 L 970.806, 151.827 L 972.515, 149.605 L 983.287, 154.05 L 953.537, 195.084 L 942.766, 190.468 z "/>
<path style="fill:rgb(0, 255, 0);fill-opacity:0;fill-rule:evenodd;stroke:rgb(0, 213, 255);stroke-width:1;" d="M 239.538, 174.738 L 269.288, 133.704 L 279.718, 138.149 L 249.968, 179.013 L 239.538, 174.738 z "/>
<path style="fill:rgb(0, 0, 255);fill-opacity:0;fill-rule:evenodd;stroke:rgb(0, 213, 255);stroke-width:1;" d="M 1000.73, 268.946 L 1018.85, 243.984 L 1030.48, 228.083 L 1040.91, 232.357 L 1035.95, 239.196 L 1011.16, 273.392 L 1000.73, 268.946 z "/>
<path style="fill:rgb(255, 255, 0);fill-opacity:0;fill-rule:evenodd;stroke:rgb(0, 213, 255);stroke-width:1;" d="M 861.039, 349.647 L 890.96, 308.613 L 899.166, 312.203 L 901.218, 313.058 L 890.276, 327.933 L 871.297, 354.093 L 861.039, 349.647 z "/>
<path style="fill:rgb(255, 0, 0);fill-opacity:0;fill-rule:evenodd;stroke:rgb(0, 213, 255);stroke-width:1;" d="M 909.083, 316.307 L 937.636, 277.324 L 948.066, 281.77 L 933.02, 302.458 L 919.684, 320.752 L 909.083, 316.307 z "/>
<path style="fill:rgb(0, 255, 0);fill-opacity:0;fill-rule:evenodd;stroke:rgb(0, 213, 255);stroke-width:1;" d="M 867.536, 675.529 L 868.22, 674.503 L 872.665, 668.861 L 932.849, 693.311 L 927.72, 700.321 L 867.536, 675.529 z "/>
<path style="fill:rgb(0, 0, 255);fill-opacity:0;fill-rule:evenodd;stroke:rgb(0, 213, 255);stroke-width:1;" d="M 981.577, 259.03 L 1010.13, 219.876 L 1020.56, 224.321 L 1020.05, 225.005 L 992.178, 263.304 L 981.577, 259.03 z "/>
<path style="fill:rgb(255, 255, 0);fill-opacity:0;fill-rule:evenodd;stroke:rgb(0, 213, 255);stroke-width:1;" d="M 970.464, 256.294 L 1000.04, 215.602 L 1010.13, 219.876 L 981.577, 259.03 L 980.551, 260.568 L 970.464, 256.294 z "/>
<path style="fill:rgb(255, 0, 0);fill-opacity:0;fill-rule:evenodd;stroke:rgb(0, 213, 255);stroke-width:1;" d="M 1007.57, 60.8677 L 1018.34, 46.3347 L 1026.72, 49.9252 L 1037.49, 54.5416 L 1045.35, 57.7901 L 1034.58, 72.4941 L 1007.57, 60.8677 z "/>
<path style="fill:rgb(0, 255, 0);fill-opacity:0;fill-rule:evenodd;stroke:rgb(0, 213, 255);stroke-width:1;" d="M 953.537, 195.084 L 983.287, 154.05 L 992.862, 158.153 L 963.112, 199.017 L 953.537, 195.084 z "/>
<path style="fill:rgb(0, 0, 255);fill-opacity:0;fill-rule:evenodd;stroke:rgb(0, 213, 255);stroke-width:1;" d="M 316.82, 238.342 L 351.015, 190.639 L 359.735, 194.23 L 324.856, 241.59 L 316.82, 238.342 z "/>
<path style="fill:rgb(255, 255, 0);fill-opacity:0;fill-rule:evenodd;stroke:rgb(0, 213, 255);stroke-width:1;" d="M 933.875, 320.41 L 958.837, 285.873 L 970.293, 290.66 L 945.672, 324.343 L 945.159, 325.027 L 933.875, 320.41 z "/>
<path style="fill:rgb(255, 0, 0);fill-opacity:0;fill-rule:evenodd;stroke:rgb(0, 213, 255);stroke-width:1;" d="M 851.464, 345.715 L 861.894, 331.353 L 881.385, 304.68 L 890.96, 308.613 L 861.039, 349.647 L 851.464, 345.715 z "/>
<path style="fill:rgb(0, 255, 0);fill-opacity:0;fill-rule:evenodd;stroke:rgb(0, 213, 255);stroke-width:1;" d="M 253.046, 211.669 L 270.314, 187.732 L 287.754, 164.138 L 295.619, 167.386 L 261.423, 215.26 L 253.046, 211.669 z "/>
<path style="fill:rgb(0, 0, 255);fill-opacity:0;fill-rule:evenodd;stroke:rgb(0, 213, 255);stroke-width:1;" d="M 899.166, 312.203 L 927.72, 273.05 L 937.636, 277.324 L 909.083, 316.307 L 901.218, 313.058 L 899.166, 312.203 z "/>
<path style="fill:rgb(255, 255, 0);fill-opacity:0;fill-rule:evenodd;stroke:rgb(0, 213, 255);stroke-width:1;" d="M 973.712, 107.202 L 999.872, 71.6392 L 1010.3, 76.0846 L 1002.44, 86.8562 L 996.623, 94.8921 L 997.478, 95.234 L 990.468, 104.638 L 989.784, 104.296 L 984.313, 111.819 L 973.712, 107.202 z "/>
<path style="fill:rgb(255, 0, 0);fill-opacity:0;fill-rule:evenodd;stroke:rgb(0, 213, 255);stroke-width:1;" d="M 771.618, 731.78 L 777.089, 724.086 L 827.014, 744.775 L 821.372, 752.297 L 771.618, 731.78 z "/>
<path style="fill:rgb(0, 255, 0);fill-opacity:0;fill-rule:evenodd;stroke:rgb(0, 213, 255);stroke-width:1;" d="M 779.141, 639.453 L 784.783, 631.759 L 837.102, 654.328 L 832.828, 660.141 L 832.315, 660.825 L 779.141, 639.453 z "/>
<path style="fill:rgb(0, 0, 255);fill-opacity:0;fill-rule:evenodd;stroke:rgb(0, 213, 255);stroke-width:1;" d="M 957.811, 326.566 L 981.919, 293.567 L 993.204, 298.354 L 984.826, 309.981 L 975.593, 322.633 L 969.096, 331.353 L 957.811, 326.566 z "/>
<path style="fill:rgb(255, 255, 0);fill-opacity:0;fill-rule:evenodd;stroke:rgb(0, 213, 255);stroke-width:1;" d="M 945.672, 324.343 L 970.293, 290.66 L 971.319, 289.122 L 981.919, 293.567 L 957.811, 326.566 L 956.102, 328.788 L 945.672, 324.343 z "/>
<path style="fill:rgb(255, 0, 0);fill-opacity:0;fill-rule:evenodd;stroke:rgb(0, 213, 255);stroke-width:1;" d="M 871.297, 354.093 L 890.276, 327.933 L 891.644, 328.446 L 895.063, 327.42 L 898.141, 328.788 L 901.047, 324.856 L 906.86, 327.249 L 902.928, 332.892 L 884.292, 358.367 L 883.608, 359.222 L 871.297, 354.093 z "/>
<path style="fill:rgb(0, 255, 0);fill-opacity:0;fill-rule:evenodd;stroke:rgb(0, 213, 255);stroke-width:1;" d="M 457.876, 651.079 L 468.134, 637.23 L 503.697, 652.105 L 498.91, 658.773 L 478.393, 650.224 L 472.922, 657.405 L 462.663, 653.131 L 457.876, 651.079 z "/>
<path style="fill:rgb(0, 0, 255);fill-opacity:0;fill-rule:evenodd;stroke:rgb(0, 213, 255);stroke-width:1;" d="M 407.95, 719.128 L 418.209, 705.279 L 422.825, 707.331 L 433.084, 711.605 L 427.784, 718.957 L 448.643, 727.677 L 443.856, 734.345 L 407.95, 719.128 z "/>
<path style="fill:rgb(255, 255, 0);fill-opacity:0;fill-rule:evenodd;stroke:rgb(0, 213, 255);stroke-width:1;" d="M 926.694, 317.333 L 936.268, 303.997 L 933.02, 302.458 L 948.066, 281.77 L 949.434, 279.889 L 960.034, 284.334 L 958.837, 285.873 L 933.875, 320.41 L 926.694, 317.333 z "/>
<path style="fill:rgb(255, 0, 0);fill-opacity:0;fill-rule:evenodd;stroke:rgb(0, 213, 255);stroke-width:1;" d="M 258.517, 368.455 L 264.843, 359.906 L 303.997, 376.662 L 297.67, 385.211 L 258.517, 368.455 z "/>
<path style="fill:rgb(0, 255, 0);fill-opacity:0;fill-rule:evenodd;stroke:rgb(0, 213, 255);stroke-width:1;" d="M 182.603, 422.312 L 191.836, 409.489 L 217.995, 420.261 L 208.763, 433.084 L 182.603, 422.312 z "/>
<path style="fill:rgb(0, 0, 255);fill-opacity:0;fill-rule:evenodd;stroke:rgb(0, 213, 255);stroke-width:1;" d="M 164.138, 447.959 L 173.37, 435.136 L 199.53, 445.907 L 190.297, 458.73 L 164.138, 447.959 z "/>
<path style="fill:rgb(255, 255, 0);fill-opacity:0;fill-rule:evenodd;stroke:rgb(0, 213, 255);stroke-width:1;" d="M 173.37, 435.136 L 182.603, 422.312 L 208.763, 433.084 L 199.53, 445.907 L 173.37, 435.136 z "/>
<path style="fill:rgb(255, 0, 0);fill-opacity:0;fill-rule:evenodd;stroke:rgb(0, 213, 255);stroke-width:1;" d="M 990.981, 264.843 L 992.178, 263.304 L 1020.05, 225.005 L 1026.37, 227.57 L 1018.85, 238 L 1016.63, 237.145 L 1013.38, 241.761 L 1018.85, 243.984 L 1000.73, 268.946 L 990.981, 264.843 z "/>
<path style="fill:rgb(0, 255, 0);fill-opacity:0;fill-rule:evenodd;stroke:rgb(0, 213, 255);stroke-width:1;" d="M 1011.5, 200.556 L 1029.45, 175.593 L 1042.62, 181.235 L 1024.49, 206.027 L 1011.5, 200.556 z "/>
<path style="fill:rgb(0, 0, 255);fill-opacity:0;fill-rule:evenodd;stroke:rgb(0, 213, 255);stroke-width:1;" d="M 472.922, 657.405 L 478.393, 650.224 L 498.91, 658.773 L 521.65, 668.348 L 516.35, 675.7 L 472.922, 657.405 z "/>
<path style="fill:rgb(255, 255, 0);fill-opacity:0;fill-rule:evenodd;stroke:rgb(0, 213, 255);stroke-width:1;" d="M 427.784, 718.957 L 433.084, 711.605 L 476.683, 729.9 L 471.212, 737.252 L 448.643, 727.677 L 427.784, 718.957 z "/>
<path style="fill:rgb(255, 0, 0);fill-opacity:0;fill-rule:evenodd;stroke:rgb(0, 213, 255);stroke-width:1;" d="M 907.202, 367.771 L 921.906, 347.596 L 928.745, 338.363 L 933.875, 340.244 L 939.517, 342.637 L 935.585, 347.938 L 918.829, 371.019 L 917.803, 372.216 L 907.202, 367.771 z "/>
<path style="fill:rgb(0, 255, 0);fill-opacity:0;fill-rule:evenodd;stroke:rgb(0, 213, 255);stroke-width:1;" d="M 904.638, 153.708 L 912.161, 143.108 L 919, 133.875 L 921.735, 130.284 L 935.072, 135.926 L 918.145, 159.179 L 904.638, 153.708 z "/>
<path style="fill:rgb(0, 0, 255);fill-opacity:0;fill-rule:evenodd;stroke:rgb(0, 213, 255);stroke-width:1;" d="M 926.865, 177.303 L 951.827, 142.937 L 960.718, 146.698 L 960.205, 147.382 L 936.781, 179.526 L 935.585, 181.064 L 926.865, 177.303 z "/>
<path style="fill:rgb(255, 255, 0);fill-opacity:0;fill-rule:evenodd;stroke:rgb(0, 213, 255);stroke-width:1;" d="M 918.316, 173.712 L 926.352, 162.77 L 943.278, 139.346 L 951.827, 142.937 L 926.865, 177.303 L 918.316, 173.712 z "/>
<path style="fill:rgb(255, 0, 0);fill-opacity:0;fill-rule:evenodd;stroke:rgb(0, 213, 255);stroke-width:1;" d="M 936.781, 179.526 L 960.205, 147.382 L 970.806, 151.827 L 954.221, 174.738 L 948.579, 172.345 L 941.74, 181.577 L 936.781, 179.526 z "/>
<path style="fill:rgb(0, 255, 0);fill-opacity:0;fill-rule:evenodd;stroke:rgb(0, 213, 255);stroke-width:1;" d="M 168.241, 191.494 L 175.422, 181.577 L 176.106, 181.919 L 172.174, 187.561 L 173.541, 188.245 L 171.832, 190.468 L 183.8, 195.597 L 183.116, 196.452 L 199.53, 203.291 L 200.043, 202.607 L 207.908, 205.856 L 245.523, 221.757 L 245.01, 222.612 L 240.906, 227.912 L 209.959, 215.26 L 213.55, 210.472 L 168.241, 191.494 z "/>
<path style="fill:rgb(0, 0, 255);fill-opacity:0;fill-rule:evenodd;stroke:rgb(0, 213, 255);stroke-width:1;" d="M 917.803, 372.216 L 918.829, 371.019 L 935.585, 347.938 L 939.517, 347.083 L 943.108, 348.451 L 943.278, 351.357 L 946.527, 352.554 L 939.346, 362.471 L 928.916, 377.004 L 917.803, 372.216 z "/>
<path style="fill:rgb(255, 255, 0);fill-opacity:0;fill-rule:evenodd;stroke:rgb(0, 213, 255);stroke-width:1;" d="M 840.692, 286.899 L 847.361, 277.324 L 876.769, 290.489 L 870.1, 299.209 L 840.692, 286.899 z "/>
<path style="fill:rgb(255, 0, 0);fill-opacity:0;fill-rule:evenodd;stroke:rgb(0, 213, 255);stroke-width:1;" d="M 870.442, 214.234 L 884.804, 194.401 L 890.618, 186.365 L 900.192, 190.297 L 880.017, 218.337 L 870.442, 214.234 z "/>
<path style="fill:rgb(0, 255, 0);fill-opacity:0;fill-rule:evenodd;stroke:rgb(0, 213, 255);stroke-width:1;" d="M 312.545, 258.346 L 316.82, 252.533 L 320.752, 247.061 L 324.856, 241.59 L 359.735, 194.23 L 363.667, 188.758 L 372.045, 177.303 L 375.294, 178.671 L 368.113, 188.245 L 321.607, 251.678 L 315.623, 259.714 L 312.545, 258.346 z "/>
<path style="fill:rgb(0, 0, 255);fill-opacity:0;fill-rule:evenodd;stroke:rgb(0, 213, 255);stroke-width:1;" d="M 884.292, 358.367 L 902.928, 332.892 L 913.187, 337.166 L 894.55, 362.642 L 884.292, 358.367 z "/>
<path style="fill:rgb(255, 255, 0);fill-opacity:0;fill-rule:evenodd;stroke:rgb(0, 213, 255);stroke-width:1;" d="M 418.209, 705.279 L 457.876, 651.079 L 462.663, 653.131 L 422.825, 707.331 L 418.209, 705.279 z "/>
<path style="fill:rgb(255, 0, 0);fill-opacity:0;fill-rule:evenodd;stroke:rgb(0, 213, 255);stroke-width:1;" d="M 999.872, 71.6392 L 1001.07, 69.5875 L 1001.58, 68.9036 L 1028.77, 80.3591 L 1018.85, 93.6952 L 1016.46, 92.6694 L 1016.11, 93.3533 L 1004.32, 88.395 L 1005, 87.711 L 1002.44, 86.8562 L 1010.3, 76.0846 L 999.872, 71.6392 z "/>
<path style="fill:rgb(0, 255, 0);fill-opacity:0;fill-rule:evenodd;stroke:rgb(0, 213, 255);stroke-width:1;" d="M 832.315, 660.825 L 832.828, 660.141 L 837.102, 654.328 L 872.665, 668.861 L 868.22, 674.503 L 867.536, 675.529 L 832.315, 660.825 z "/>
<path style="fill:rgb(0, 0, 255);fill-opacity:0;fill-rule:evenodd;stroke:rgb(0, 213, 255);stroke-width:1;" d="M 788.716, 310.323 L 795.213, 301.603 L 821.543, 313.058 L 815.217, 321.607 L 788.716, 310.323 z "/>
<path style="fill:rgb(255, 255, 0);fill-opacity:0;fill-rule:evenodd;stroke:rgb(0, 213, 255);stroke-width:1;" d="M 179.013, 189.1 L 187.049, 177.987 L 192.52, 180.209 L 186.365, 188.416 L 188.758, 189.442 L 188.245, 189.955 L 209.959, 199.017 L 219.876, 185.51 L 228.596, 189.271 L 219.363, 201.582 L 212.353, 198.504 L 209.788, 201.923 L 179.013, 189.1 z "/>
<path style="fill:rgb(255, 0, 0);fill-opacity:0;fill-rule:evenodd;stroke:rgb(0, 213, 255);stroke-width:1;" d="M 258.688, 229.622 L 259.03, 228.938 L 273.563, 208.763 L 283.821, 213.037 L 269.288, 233.212 L 268.946, 233.896 L 267.066, 233.212 L 265.185, 232.357 L 262.107, 230.99 L 260.227, 230.306 L 258.688, 229.622 z "/>
<path style="fill:rgb(0, 255, 0);fill-opacity:0;fill-rule:evenodd;stroke:rgb(0, 213, 255);stroke-width:1;" d="M 328.446, 192.862 L 343.15, 172.686 L 343.492, 172.174 L 345.202, 172.857 L 347.083, 173.712 L 350.16, 175.08 L 352.041, 175.764 L 353.751, 176.448 L 353.409, 176.961 L 338.705, 197.136 L 328.446, 192.862 z "/>
<path style="fill:rgb(0, 0, 255);fill-opacity:0;fill-rule:evenodd;stroke:rgb(0, 213, 255);stroke-width:1;" d="M 291.686, 243.129 L 292.028, 242.616 L 306.39, 222.441 L 316.649, 226.715 L 302.287, 246.719 L 301.945, 247.403 L 300.235, 246.719 L 298.354, 245.865 L 295.106, 244.497 L 293.225, 243.813 L 291.686, 243.129 z "/>
<path style="fill:rgb(255, 255, 0);fill-opacity:0;fill-rule:evenodd;stroke:rgb(0, 213, 255);stroke-width:1;" d="M 295.619, 179.184 L 310.323, 159.008 L 310.665, 158.495 L 312.374, 159.179 L 314.255, 160.034 L 317.333, 161.402 L 319.214, 162.086 L 320.923, 162.77 L 320.581, 163.283 L 305.877, 183.458 L 295.619, 179.184 z "/>
<path style="fill:rgb(255, 0, 0);fill-opacity:0;fill-rule:evenodd;stroke:rgb(0, 213, 255);stroke-width:1;" d="M 1018.34, 46.3347 L 1023.3, 39.6666 L 1032.19, 43.4281 L 1033.55, 41.2054 L 1042.96, 45.1378 L 1041.42, 47.3605 L 1050.31, 51.122 L 1045.35, 57.7901 L 1037.49, 54.5416 L 1026.72, 49.9252 L 1018.34, 46.3347 z "/>
<path style="fill:rgb(0, 255, 0);fill-opacity:0;fill-rule:evenodd;stroke:rgb(0, 213, 255);stroke-width:1;" d="M 918.145, 159.179 L 935.072, 135.926 L 943.278, 139.346 L 926.352, 162.77 L 918.145, 159.179 z "/>
<path style="fill:rgb(0, 0, 255);fill-opacity:0;fill-rule:evenodd;stroke:rgb(0, 213, 255);stroke-width:1;" d="M 274.076, 367.771 L 282.624, 356.486 L 298.354, 363.155 L 289.806, 374.61 L 287.241, 373.413 L 276.469, 368.797 L 274.076, 367.771 z "/>
<path style="fill:rgb(255, 255, 0);fill-opacity:0;fill-rule:evenodd;stroke:rgb(0, 213, 255);stroke-width:1;" d="M 726.822, 369.652 L 736.226, 356.657 L 749.904, 362.3 L 740.5, 375.465 L 730.412, 371.19 L 726.822, 369.652 z "/>
<path style="fill:rgb(255, 0, 0);fill-opacity:0;fill-rule:evenodd;stroke:rgb(0, 213, 255);stroke-width:1;" d="M 861.894, 210.643 L 876.427, 190.81 L 884.804, 194.401 L 870.442, 214.234 L 861.894, 210.643 z "/>
<path style="fill:rgb(0, 255, 0);fill-opacity:0;fill-rule:evenodd;stroke:rgb(0, 213, 255);stroke-width:1;" d="M 736.226, 356.657 L 744.262, 345.886 L 758.111, 351.699 L 749.904, 362.3 L 736.226, 356.657 z "/>
<path style="fill:rgb(0, 0, 255);fill-opacity:0;fill-rule:evenodd;stroke:rgb(0, 213, 255);stroke-width:1;" d="M 240.393, 367.6 L 250.823, 353.922 L 253.558, 355.119 L 243.984, 367.771 L 255.268, 372.558 L 305.535, 394.272 L 315.281, 381.449 L 318.017, 382.817 L 313.058, 389.485 L 307.587, 396.666 L 254.413, 373.755 L 240.393, 367.6 z "/>
<path style="fill:rgb(255, 255, 0);fill-opacity:0;fill-rule:evenodd;stroke:rgb(0, 213, 255);stroke-width:1;" d="M 198.846, 134.388 L 202.778, 128.916 L 226.886, 139.175 L 222.954, 144.475 L 198.846, 134.388 z "/>
<path style="fill:rgb(255, 0, 0);fill-opacity:0;fill-rule:evenodd;stroke:rgb(0, 213, 255);stroke-width:1;" d="M 898.483, 137.123 L 905.322, 127.891 L 919, 133.875 L 912.161, 143.108 L 898.483, 137.123 z "/>
<path style="fill:rgb(0, 255, 0);fill-opacity:0;fill-rule:evenodd;stroke:rgb(0, 213, 255);stroke-width:1;" d="M 243.984, 367.771 L 253.558, 355.119 L 256.123, 356.315 L 247.403, 367.942 L 256.123, 371.703 L 274.589, 379.568 L 275.785, 380.081 L 303.655, 392.05 L 312.545, 380.252 L 315.281, 381.449 L 305.535, 394.272 L 255.268, 372.558 L 243.984, 367.771 z "/>
<path style="fill:rgb(0, 0, 255);fill-opacity:0;fill-rule:evenodd;stroke:rgb(0, 213, 255);stroke-width:1;" d="M 368.113, 188.245 L 375.294, 178.671 L 381.278, 181.235 L 387.775, 183.8 L 380.765, 193.546 L 368.113, 188.245 z "/>
<path style="fill:rgb(255, 255, 0);fill-opacity:0;fill-rule:evenodd;stroke:rgb(0, 213, 255);stroke-width:1;" d="M 666.125, 48.2154 L 671.767, 40.3505 L 673.819, 37.4439 L 685.104, 42.2312 L 677.239, 52.8318 L 666.125, 48.2154 z "/>
<path style="fill:rgb(255, 0, 0);fill-opacity:0;fill-rule:evenodd;stroke:rgb(0, 213, 255);stroke-width:1;" d="M 247.403, 367.942 L 256.123, 356.315 L 259.201, 357.512 L 250.994, 368.284 L 256.807, 370.677 L 270.485, 376.491 L 275.272, 378.713 L 276.64, 379.226 L 281.257, 381.278 L 301.261, 389.998 L 309.468, 379.055 L 312.545, 380.252 L 303.655, 392.05 L 275.785, 380.081 L 274.589, 379.568 L 256.123, 371.703 L 247.403, 367.942 z "/>
<path style="fill:rgb(0, 255, 0);fill-opacity:0;fill-rule:evenodd;stroke:rgb(0, 213, 255);stroke-width:1;" d="M 354.948, 185.168 L 359.222, 179.355 L 357.17, 178.5 L 361.445, 172.686 L 372.045, 177.303 L 363.667, 188.758 L 354.948, 185.168 z "/>
<path style="fill:rgb(0, 0, 255);fill-opacity:0;fill-rule:evenodd;stroke:rgb(0, 213, 255);stroke-width:1;" d="M 250.994, 368.284 L 259.201, 357.512 L 262.107, 358.709 L 254.755, 368.455 L 257.662, 369.652 L 299.209, 387.604 L 306.732, 377.859 L 309.468, 379.055 L 301.261, 389.998 L 281.257, 381.278 L 276.64, 379.226 L 275.272, 378.713 L 270.485, 376.491 L 256.807, 370.677 L 250.994, 368.284 z "/>
<path style="fill:rgb(255, 255, 0);fill-opacity:0;fill-rule:evenodd;stroke:rgb(0, 213, 255);stroke-width:1;" d="M 291.857, 158.666 L 300.406, 147.04 L 310.323, 151.143 L 306.048, 157.299 L 303.655, 156.273 L 299.551, 161.915 L 291.857, 158.666 z "/>
<path style="fill:rgb(255, 0, 0);fill-opacity:0;fill-rule:evenodd;stroke:rgb(0, 213, 255);stroke-width:1;" d="M 254.755, 368.455 L 262.107, 358.709 L 264.843, 359.906 L 258.517, 368.455 L 297.67, 385.211 L 303.997, 376.662 L 306.732, 377.859 L 299.209, 387.604 L 257.662, 369.652 L 254.755, 368.455 z "/>
<path style="fill:rgb(0, 255, 0);fill-opacity:0;fill-rule:evenodd;stroke:rgb(0, 213, 255);stroke-width:1;" d="M 306.048, 157.299 L 310.323, 151.143 L 328.788, 159.008 L 324.343, 164.822 L 320.581, 163.283 L 320.923, 162.77 L 319.214, 162.086 L 316.478, 159.692 L 312.374, 159.179 L 310.665, 158.495 L 310.323, 159.008 L 306.048, 157.299 z "/>
<path style="fill:rgb(0, 0, 255);fill-opacity:0;fill-rule:evenodd;stroke:rgb(0, 213, 255);stroke-width:1;" d="M 315.623, 259.714 L 321.607, 251.678 L 334.259, 256.978 L 328.446, 265.014 L 322.12, 262.449 L 315.623, 259.714 z "/>
<path style="fill:rgb(255, 255, 0);fill-opacity:0;fill-rule:evenodd;stroke:rgb(0, 213, 255);stroke-width:1;" d="M 339.047, 170.977 L 343.15, 165.163 L 361.445, 172.686 L 357.17, 178.5 L 353.409, 176.961 L 353.751, 176.448 L 352.041, 175.764 L 349.305, 173.541 L 345.202, 172.857 L 343.492, 172.174 L 343.15, 172.686 L 339.047, 170.977 z "/>
<path style="fill:rgb(255, 0, 0);fill-opacity:0;fill-rule:evenodd;stroke:rgb(0, 213, 255);stroke-width:1;" d="M 248.429, 336.653 L 254.584, 328.275 L 257.32, 329.472 L 266.04, 333.234 L 264.672, 335.114 L 259.885, 341.44 L 251.336, 337.85 L 248.429, 336.653 z "/>
<path style="fill:rgb(0, 255, 0);fill-opacity:0;fill-rule:evenodd;stroke:rgb(0, 213, 255);stroke-width:1;" d="M 279.205, 230.648 L 285.873, 221.244 L 296.132, 225.518 L 289.293, 234.922 L 279.205, 230.648 z "/>
<path style="fill:rgb(0, 0, 255);fill-opacity:0;fill-rule:evenodd;stroke:rgb(0, 213, 255);stroke-width:1;" d="M 316.307, 180.38 L 322.975, 170.977 L 333.234, 175.251 L 326.395, 184.655 L 316.307, 180.38 z "/>
<path style="fill:rgb(255, 255, 0);fill-opacity:0;fill-rule:evenodd;stroke:rgb(0, 213, 255);stroke-width:1;" d="M 324.343, 164.822 L 328.788, 159.008 L 343.321, 165.163 L 343.15, 165.163 L 339.047, 170.977 L 336.824, 170.122 L 326.736, 165.847 L 324.343, 164.822 z "/>
<path style="fill:rgb(255, 0, 0);fill-opacity:0;fill-rule:evenodd;stroke:rgb(0, 213, 255);stroke-width:1;" d="M 270.485, 376.491 L 276.469, 368.797 L 287.241, 373.413 L 281.257, 381.278 L 276.64, 379.226 L 275.272, 378.713 L 270.485, 376.491 z "/>
<path style="fill:rgb(0, 255, 0);fill-opacity:0;fill-rule:evenodd;stroke:rgb(0, 213, 255);stroke-width:1;" d="M 1024.83, 37.4439 L 1026.37, 35.3922 L 1027.91, 36.0761 L 1035.26, 39.1537 L 1037.14, 36.589 L 1046.38, 40.5215 L 1044.5, 43.0861 L 1051.68, 46.1637 L 1053.39, 46.8476 L 1051.85, 48.8993 L 1042.96, 45.1378 L 1033.55, 41.2054 L 1024.83, 37.4439 z "/>
<path style="fill:rgb(0, 0, 255);fill-opacity:0;fill-rule:evenodd;stroke:rgb(0, 213, 255);stroke-width:1;" d="M 1021.24, 57.2772 L 1026.72, 49.9252 L 1037.49, 54.5416 L 1032.02, 61.8936 L 1021.24, 57.2772 z "/>
<path style="fill:rgb(255, 255, 0);fill-opacity:0;fill-rule:evenodd;stroke:rgb(0, 213, 255);stroke-width:1;" d="M 283.65, 246.206 L 286.386, 242.274 L 292.541, 244.839 L 295.277, 247.061 L 299.38, 247.574 L 307.758, 251.165 L 304.68, 255.097 L 283.65, 246.206 z "/>
<path style="fill:rgb(255, 0, 0);fill-opacity:0;fill-rule:evenodd;stroke:rgb(0, 213, 255);stroke-width:1;" d="M 124.471, 278.521 L 127.207, 271.34 L 131.994, 272.366 L 140.201, 274.076 L 137.294, 281.428 L 129.258, 279.718 L 124.471, 278.521 z "/>
<path style="fill:rgb(0, 255, 0);fill-opacity:0;fill-rule:evenodd;stroke:rgb(0, 213, 255);stroke-width:1;" d="M 1023.3, 39.6666 L 1024.83, 37.4439 L 1033.55, 41.2054 L 1035.26, 39.1537 L 1044.5, 43.0861 L 1042.96, 45.1378 L 1051.85, 48.8993 L 1051.51, 49.5832 L 1050.31, 51.122 L 1041.42, 47.3605 L 1032.19, 43.4281 L 1023.3, 39.6666 z "/>
<path style="fill:rgb(0, 0, 255);fill-opacity:0;fill-rule:evenodd;stroke:rgb(0, 213, 255);stroke-width:1;" d="M 249.626, 231.673 L 252.191, 228.083 L 259.543, 231.161 L 262.278, 233.554 L 266.553, 234.067 L 272.537, 236.632 L 269.801, 240.222 L 249.626, 231.673 z "/>
<path style="fill:rgb(255, 255, 0);fill-opacity:0;fill-rule:evenodd;stroke:rgb(0, 213, 255);stroke-width:1;" d="M 369.823, 233.041 L 389.314, 206.711 L 391.879, 207.737 L 372.558, 234.067 L 369.823, 233.041 z "/>
<path style="fill:rgb(255, 0, 0);fill-opacity:0;fill-rule:evenodd;stroke:rgb(0, 213, 255);stroke-width:1;" d="M 581.663, 321.265 L 600.812, 294.764 L 603.377, 295.79 L 584.227, 322.291 L 581.663, 321.265 z "/>
<path style="fill:rgb(0, 255, 0);fill-opacity:0;fill-rule:evenodd;stroke:rgb(0, 213, 255);stroke-width:1;" d="M 269.801, 240.222 L 272.537, 236.632 L 274.418, 237.316 L 274.76, 236.974 L 284.847, 241.077 L 284.676, 241.419 L 286.386, 242.274 L 283.65, 246.206 L 269.801, 240.222 z "/>
<path style="fill:rgb(0, 0, 255);fill-opacity:0;fill-rule:evenodd;stroke:rgb(0, 213, 255);stroke-width:1;" d="M 1003.12, 66.8519 L 1004.66, 64.8002 L 1031.67, 76.4266 L 1030.13, 78.4783 L 1003.12, 66.8519 z "/>
<path style="fill:rgb(255, 255, 0);fill-opacity:0;fill-rule:evenodd;stroke:rgb(0, 213, 255);stroke-width:1;" d="M 1006.03, 62.9194 L 1007.57, 60.8677 L 1034.58, 72.4941 L 1033.21, 74.3749 L 1006.03, 62.9194 z "/>
<path style="fill:rgb(255, 0, 0);fill-opacity:0;fill-rule:evenodd;stroke:rgb(0, 213, 255);stroke-width:1;" d="M 1001.58, 68.9036 L 1003.12, 66.8519 L 1030.13, 78.4783 L 1028.77, 80.3591 L 1001.58, 68.9036 z "/>
<path style="fill:rgb(0, 255, 0);fill-opacity:0;fill-rule:evenodd;stroke:rgb(0, 213, 255);stroke-width:1;" d="M 1016.11, 93.3533 L 1016.46, 92.6694 L 1018.85, 93.6952 L 1028.77, 80.3591 L 1030.13, 78.4783 L 1031.67, 76.4266 L 1033.21, 74.3749 L 1034.58, 72.4941 L 1045.35, 57.7901 L 1050.31, 51.122 L 1051.51, 49.5832 L 1054.07, 50.6091 L 1053.56, 51.293 L 1052.19, 50.6091 L 1019.53, 94.8921 L 1016.11, 93.3533 z "/>
<path style="fill:rgb(0, 0, 255);fill-opacity:0;fill-rule:evenodd;stroke:rgb(0, 213, 255);stroke-width:1;" d="M 1004.66, 64.8002 L 1006.03, 62.9194 L 1033.21, 74.3749 L 1031.67, 76.4266 L 1004.66, 64.8002 z "/>
<path style="fill:rgb(255, 255, 0);fill-opacity:0;fill-rule:evenodd;stroke:rgb(0, 213, 255);stroke-width:1;" d="M 240.906, 227.912 L 245.01, 222.612 L 253.558, 226.202 L 253.216, 226.544 L 252.191, 228.083 L 249.626, 231.673 L 240.906, 227.912 z "/>
<path style="fill:rgb(255, 0, 0);fill-opacity:0;fill-rule:evenodd;stroke:rgb(0, 213, 255);stroke-width:1;" d="M 351.015, 190.639 L 354.948, 185.168 L 363.667, 188.758 L 359.735, 194.23 L 351.015, 190.639 z "/>
<path style="fill:rgb(0, 255, 0);fill-opacity:0;fill-rule:evenodd;stroke:rgb(0, 213, 255);stroke-width:1;" d="M 245.01, 222.612 L 245.523, 221.757 L 248.942, 217.14 L 257.491, 220.731 L 253.558, 226.202 L 245.01, 222.612 z "/>
<path style="fill:rgb(0, 0, 255);fill-opacity:0;fill-rule:evenodd;stroke:rgb(0, 213, 255);stroke-width:1;" d="M 248.942, 217.14 L 253.046, 211.669 L 261.423, 215.26 L 257.491, 220.731 L 248.942, 217.14 z "/>
<path style="fill:rgb(255, 255, 0);fill-opacity:0;fill-rule:evenodd;stroke:rgb(0, 213, 255);stroke-width:1;" d="M 304.68, 255.097 L 307.758, 251.165 L 308.955, 249.455 L 308.955, 249.284 L 316.82, 252.533 L 312.545, 258.346 L 304.68, 255.097 z "/>
<path style="fill:rgb(255, 0, 0);fill-opacity:0;fill-rule:evenodd;stroke:rgb(0, 213, 255);stroke-width:1;" d="M 312.887, 243.813 L 316.82, 238.342 L 324.856, 241.59 L 320.752, 247.061 L 312.887, 243.813 z "/>
<path style="fill:rgb(0, 255, 0);fill-opacity:0;fill-rule:evenodd;stroke:rgb(0, 213, 255);stroke-width:1;" d="M 308.955, 249.284 L 312.887, 243.813 L 320.752, 247.061 L 316.82, 252.533 L 308.955, 249.284 z "/>
<path style="fill:rgb(0, 0, 255);fill-opacity:0;fill-rule:evenodd;stroke:rgb(0, 213, 255);stroke-width:1;" d="M 287.754, 164.138 L 291.857, 158.666 L 299.551, 161.915 L 295.619, 167.386 L 287.754, 164.138 z "/>
<path style="fill:rgb(255, 255, 0);fill-opacity:0;fill-rule:evenodd;stroke:rgb(0, 213, 255);stroke-width:1;" d="M 685.617, 41.5473 L 687.497, 38.9827 L 701.859, 44.9669 L 699.979, 47.5315 L 685.617, 41.5473 z "/>
<path style="fill:rgb(255, 0, 0);fill-opacity:0;fill-rule:evenodd;stroke:rgb(0, 213, 255);stroke-width:1;" d="M 1038.68, 134.901 L 1039.2, 134.046 L 1060.91, 104.467 L 1062.11, 104.98 L 1039.88, 135.414 L 1038.68, 134.901 z "/>
<path style="fill:rgb(0, 255, 0);fill-opacity:0;fill-rule:evenodd;stroke:rgb(0, 213, 255);stroke-width:1;" d="M 276.811, 234.067 L 279.205, 230.648 L 289.293, 234.922 L 286.899, 238.342 L 276.811, 234.067 z "/>
<path style="fill:rgb(0, 0, 255);fill-opacity:0;fill-rule:evenodd;stroke:rgb(0, 213, 255);stroke-width:1;" d="M 255.952, 55.0545 L 269.63, 36.0761 L 291.344, 45.1378 L 296.816, 37.4439 L 275.272, 28.3821 L 293.396, 3.24856 L 315.623, 12.6523 L 304.68, 27.8692 L 315.452, 32.3146 L 326.395, 17.0977 L 338.363, 22.227 L 326.736, 38.2988 L 335.969, 42.0603 L 347.596, 25.9885 L 369.652, 35.2212 L 354.264, 56.5933 L 348.792, 54.1996 L 333.918, 74.7168 L 317.846, 67.8778 L 317.675, 67.7068 L 321.778, 62.0645 L 315.965, 59.6709 L 316.82, 58.3031 L 315.281, 57.7901 L 316.136, 56.7643 L 313.058, 55.3965 L 302.8, 69.4165 L 281.428, 60.5258 L 278.521, 64.4582 L 274.589, 62.9194 L 255.952, 55.0545 z "/>
<path style="fill:rgb(255, 255, 0);fill-opacity:0;fill-rule:evenodd;stroke:rgb(0, 213, 255);stroke-width:1;" d="M 131.139, 42.9152 L 146.014, 22.227 L 160.718, 28.3821 L 157.128, 33.5114 L 172.174, 39.6666 L 175.764, 34.5373 L 194.913, 42.5732 L 179.867, 63.2614 L 131.139, 42.9152 z "/>
<path style="fill:rgb(255, 0, 0);fill-opacity:0;fill-rule:evenodd;stroke:rgb(0, 213, 255);stroke-width:1;" d="M 564.907, 68.2197 L 584.74, 41.2054 L 589.528, 34.8792 L 591.066, 32.6566 L 600.641, 19.4913 L 605.429, 13.1652 L 615.003, 0 L 671.767, 40.3505 L 666.125, 48.2154 L 660.654, 55.5674 L 651.421, 68.0487 L 674.674, 77.7944 L 670.058, 84.1205 L 666.809, 88.5659 L 662.193, 94.8921 L 653.986, 106.177 L 644.582, 119 L 564.907, 68.2197 z "/>
<path style="fill:rgb(0, 255, 0);fill-opacity:0;fill-rule:evenodd;stroke:rgb(0, 213, 255);stroke-width:1;" d="M 564.907, 68.2197 L 589.528, 34.8792 L 594.315, 34.0244 L 591.066, 32.6566 L 600.641, 19.4913 L 605.429, 13.1652 L 640.65, 27.8692 L 645.779, 26.6724 L 644.069, 29.237 L 671.767, 40.3505 L 666.125, 48.2154 L 660.654, 55.5674 L 651.421, 68.0487 L 644.069, 79.1622 L 666.809, 88.5659 L 653.986, 106.177 L 616.542, 90.2757 L 610.216, 91.8145 L 612.781, 88.7369 L 564.907, 68.2197 z "/>
<path style="fill:rgb(0, 0, 255);fill-opacity:0;fill-rule:evenodd;stroke:rgb(0, 213, 255);stroke-width:1;" d="M 597.222, 62.9194 L 619.107, 32.4856 L 640.821, 41.3764 L 618.936, 71.9812 L 597.222, 62.9194 z "/>
<path style="fill:rgb(255, 255, 0);fill-opacity:0;fill-rule:evenodd;stroke:rgb(0, 213, 255);stroke-width:1;" d="M 987.561, 63.7743 L 1014.75, 27.1853 L 1028.25, 32.8275 L 1026.37, 35.3922 L 1024.83, 37.4439 L 1023.3, 39.6666 L 1018.34, 46.3347 L 1007.57, 60.8677 L 1006.03, 62.9194 L 1004.66, 64.8002 L 1003.12, 66.8519 L 1001.58, 68.9036 L 1001.07, 69.5875 L 987.561, 63.7743 z "/>
<path style="fill:rgb(255, 0, 0);fill-opacity:0;fill-rule:evenodd;stroke:rgb(0, 213, 255);stroke-width:1;" d="M 479.761, 741.184 L 529.344, 673.477 L 653.815, 726.309 L 640.137, 744.946 L 618.936, 774.353 L 604.916, 793.503 L 479.761, 741.184 z "/>
<path style="fill:rgb(0, 255, 0);fill-opacity:0;fill-rule:evenodd;stroke:rgb(0, 213, 255);stroke-width:1;" d="M 907.886, 630.562 L 921.735, 611.926 L 926.865, 604.916 L 946.014, 579.269 L 956.786, 583.885 L 962.257, 576.362 L 1030.31, 605.429 L 1036.63, 596.709 L 1119.73, 632.101 L 1057.83, 715.538 L 974.738, 680.145 L 981.235, 671.426 L 913.187, 642.53 L 918.658, 635.178 L 907.886, 630.562 z "/>
<path style="fill:rgb(0, 0, 255);fill-opacity:0;fill-rule:evenodd;stroke:rgb(0, 213, 255);stroke-width:1;" d="M 907.886, 630.562 L 921.735, 611.926 L 926.865, 604.916 L 946.014, 579.269 L 956.786, 583.885 L 962.257, 576.362 L 1030.31, 605.429 L 1088.61, 630.22 L 1083.14, 637.572 L 1077.15, 645.608 L 1081.6, 647.489 L 1055.44, 682.71 L 1050.99, 680.829 L 1039.54, 696.217 L 981.235, 671.426 L 913.187, 642.53 L 918.658, 635.178 L 907.886, 630.562 z "/>
<path style="fill:rgb(255, 255, 0);fill-opacity:0;fill-rule:evenodd;stroke:rgb(0, 213, 255);stroke-width:1;" d="M 907.886, 630.562 L 921.735, 611.926 L 926.865, 604.916 L 946.014, 579.269 L 956.786, 583.885 L 1067.24, 630.904 L 1061.25, 638.94 L 1077.15, 645.608 L 1081.6, 647.489 L 1055.44, 682.71 L 1050.99, 680.829 L 1035.09, 674.161 L 1029.11, 682.197 L 918.658, 635.178 L 907.886, 630.562 z "/>
<path style="fill:rgb(255, 0, 0);fill-opacity:0;fill-rule:evenodd;stroke:rgb(0, 213, 255);stroke-width:1;" d="M 940.714, 633.469 L 966.702, 598.589 L 1061.25, 638.94 L 1077.15, 645.608 L 1081.6, 647.489 L 1055.44, 682.71 L 1050.99, 680.829 L 1035.09, 674.161 L 940.714, 633.469 z "/>
<path style="fill:rgb(0, 255, 0);fill-opacity:0;fill-rule:evenodd;stroke:rgb(0, 213, 255);stroke-width:1;" d="M 93.1823, 285.36 L 97.4567, 277.837 L 103.099, 271.853 L 113.529, 276.298 L 114.383, 273.392 L 120.71, 274.76 L 141.227, 220.047 L 188.245, 239.538 L 186.878, 245.352 L 197.991, 248.087 L 200.898, 243.984 L 293.909, 283.479 L 293.567, 283.992 L 300.748, 286.899 L 266.04, 333.234 L 264.672, 335.114 L 259.885, 341.44 L 259.201, 342.808 L 250.823, 353.922 L 240.393, 367.6 L 105.322, 310.494 L 110.109, 303.997 L 104.638, 302.287 L 98.3116, 297.499 L 93.6952, 292.199 L 93.1823, 285.36 z "/>
<path style="fill:rgb(0, 0, 255);fill-opacity:0;fill-rule:evenodd;stroke:rgb(0, 213, 255);stroke-width:1;" d="M 98.9955, 297.499 L 106.006, 287.754 L 110.109, 275.785 L 124.471, 278.521 L 129.258, 279.718 L 137.294, 281.428 L 129.258, 302.116 L 165.847, 309.81 L 232.699, 338.534 L 244.155, 322.633 L 175.593, 293.909 L 165.847, 291.515 L 167.215, 287.925 L 177.816, 290.489 L 260.91, 324.685 L 257.32, 329.472 L 254.584, 328.275 L 248.429, 336.653 L 251.336, 337.85 L 245.01, 346.741 L 163.796, 311.862 L 98.9955, 297.499 z "/>
<path style="fill:rgb(255, 255, 0);fill-opacity:0;fill-rule:evenodd;stroke:rgb(0, 213, 255);stroke-width:1;" d="M 935.926, 738.79 L 960.718, 704.937 L 1018.34, 729.558 L 994.059, 763.24 L 966.873, 751.785 L 935.926, 738.79 z "/>
<path style="fill:rgb(255, 0, 0);fill-opacity:0;fill-rule:evenodd;stroke:rgb(0, 213, 255);stroke-width:1;" d="M 962.257, 757.94 L 966.873, 751.785 L 994.059, 763.24 L 1018.34, 729.558 L 1041.25, 738.961 L 1012.35, 778.799 L 962.257, 757.94 z "/>
<path style="fill:rgb(0, 255, 0);fill-opacity:0;fill-rule:evenodd;stroke:rgb(0, 213, 255);stroke-width:1;" d="M 985.51, 111.306 L 990.468, 104.638 L 997.478, 95.234 L 1002.95, 87.882 L 1004.32, 88.395 L 1016.11, 93.3533 L 1019.53, 94.8921 L 1052.19, 50.6091 L 1053.56, 51.293 L 1138.19, 87.1981 L 1139.9, 87.882 L 1134.6, 94.7211 L 1125.2, 107.544 L 1119.73, 114.896 L 1118.36, 114.212 L 1072.19, 94.7211 L 1069.29, 93.3533 L 1067.58, 95.576 L 1060.91, 104.467 L 1039.2, 134.046 L 986.536, 111.648 L 985.51, 111.306 z "/>
<path style="fill:rgb(0, 0, 255);fill-opacity:0;fill-rule:evenodd;stroke:rgb(0, 213, 255);stroke-width:1;" d="M 1051.51, 49.5832 L 1051.85, 48.8993 L 1053.39, 46.8476 L 1055.1, 44.283 L 1162.64, 89.9337 L 1135.46, 126.865 L 1132.72, 130.797 L 1092.37, 113.7 L 1078.52, 107.715 L 1064.5, 101.731 L 1062.11, 104.98 L 1060.91, 104.467 L 1067.58, 95.576 L 1068.43, 96.0889 L 1069.46, 94.7211 L 1071.68, 95.576 L 1072.19, 94.7211 L 1118.36, 114.212 L 1117.85, 115.067 L 1120.41, 116.093 L 1126.39, 108.057 L 1125.2, 107.544 L 1134.6, 94.7211 L 1135.63, 95.234 L 1141.61, 87.0271 L 1139.05, 86.0013 L 1138.19, 87.1981 L 1053.56, 51.293 L 1054.07, 50.6091 L 1051.51, 49.5832 z "/>
<path style="fill:rgb(255, 255, 0);fill-opacity:0;fill-rule:evenodd;stroke:rgb(0, 213, 255);stroke-width:1;" d="M 0, 404.189 L 16.7557, 381.278 L 22.9109, 383.843 L 43.4281, 355.461 L 37.1019, 352.896 L 54.1996, 329.301 L 105.664, 350.673 L 201.582, 390.511 L 218.508, 397.521 L 234.751, 404.189 L 272.024, 419.577 L 263.646, 431.032 L 226.031, 483.18 L 217.824, 494.636 L 180.722, 479.077 L 163.967, 472.238 L 147.553, 465.399 L 51.464, 425.561 L 0, 404.189 z "/>
<path style="fill:rgb(255, 0, 0);fill-opacity:0;fill-rule:evenodd;stroke:rgb(0, 213, 255);stroke-width:1;" d="M 51.464, 425.561 L 57.2772, 417.525 L 62.5775, 410.173 L 69.9295, 400.085 L 87.0271, 376.32 L 94.3791, 366.232 L 99.6794, 358.709 L 105.664, 350.673 L 201.582, 390.511 L 195.768, 398.547 L 190.468, 406.07 L 183.116, 416.157 L 165.847, 439.923 L 158.666, 450.011 L 153.195, 457.534 L 147.553, 465.399 L 51.464, 425.561 z "/>
<path style="fill:rgb(0, 255, 0);fill-opacity:0;fill-rule:evenodd;stroke:rgb(0, 213, 255);stroke-width:1;" d="M 57.2772, 417.525 L 62.5775, 410.173 L 69.9295, 400.085 L 87.0271, 376.32 L 94.3791, 366.232 L 99.6794, 358.709 L 195.768, 398.547 L 190.468, 406.07 L 183.116, 416.157 L 165.847, 439.923 L 158.666, 450.011 L 153.195, 457.534 L 57.2772, 417.525 z "/>
<path style="fill:rgb(0, 0, 255);fill-opacity:0;fill-rule:evenodd;stroke:rgb(0, 213, 255);stroke-width:1;" d="M 62.5775, 410.173 L 69.9295, 400.085 L 87.0271, 376.32 L 94.3791, 366.232 L 190.468, 406.07 L 183.116, 416.157 L 165.847, 439.923 L 158.666, 450.011 L 62.5775, 410.173 z "/>
<path style="fill:rgb(255, 255, 0);fill-opacity:0;fill-rule:evenodd;stroke:rgb(0, 213, 255);stroke-width:1;" d="M 0, 404.189 L 16.7557, 381.278 L 22.9109, 383.843 L 43.4281, 355.461 L 37.1019, 352.896 L 54.1996, 329.301 L 105.664, 350.673 L 99.6794, 358.709 L 94.3791, 366.232 L 87.0271, 376.32 L 69.9295, 400.085 L 62.5775, 410.173 L 57.2772, 417.525 L 51.464, 425.561 L 0, 404.189 z "/>
<path style="fill:rgb(255, 0, 0);fill-opacity:0;fill-rule:evenodd;stroke:rgb(0, 213, 255);stroke-width:1;" d="M 69.9295, 400.085 L 87.0271, 376.32 L 183.116, 416.157 L 165.847, 439.923 L 69.9295, 400.085 z "/>
<path style="fill:rgb(0, 255, 0);fill-opacity:0;fill-rule:evenodd;stroke:rgb(0, 213, 255);stroke-width:1;" d="M 443.856, 734.345 L 448.643, 727.677 L 471.212, 737.252 L 476.683, 729.9 L 516.35, 675.7 L 521.65, 668.348 L 498.91, 658.773 L 503.697, 652.105 L 535.157, 665.441 L 529.344, 673.477 L 479.761, 741.184 L 475.144, 747.339 L 443.856, 734.345 z "/>
<path style="fill:rgb(0, 0, 255);fill-opacity:0;fill-rule:evenodd;stroke:rgb(0, 213, 255);stroke-width:1;" d="M 771.618, 731.78 L 777.089, 724.086 L 827.014, 744.775 L 821.372, 752.297 L 771.618, 731.78 z "/>
<path style="fill:rgb(255, 255, 0);fill-opacity:0;fill-rule:evenodd;stroke:rgb(0, 213, 255);stroke-width:1;" d="M 999.872, 71.6392 L 1001.07, 69.5875 L 1001.58, 68.9036 L 1003.12, 66.8519 L 1004.66, 64.8002 L 1006.03, 62.9194 L 1007.57, 60.8677 L 1018.34, 46.3347 L 1023.3, 39.6666 L 1024.83, 37.4439 L 1026.37, 35.3922 L 1028.25, 32.8275 L 1033.04, 34.8792 L 1037.14, 36.589 L 1046.38, 40.5215 L 1050.31, 42.2312 L 1055.1, 44.283 L 1053.39, 46.8476 L 1051.85, 48.8993 L 1051.51, 49.5832 L 1050.31, 51.122 L 1045.35, 57.7901 L 1034.58, 72.4941 L 1033.21, 74.3749 L 1031.67, 76.4266 L 1030.13, 78.4783 L 1028.77, 80.3591 L 1018.85, 93.6952 L 1016.46, 92.6694 L 1016.11, 93.3533 L 1004.32, 88.395 L 1005, 87.711 L 1002.44, 86.8562 L 1010.3, 76.0846 L 999.872, 71.6392 z "/>
<path style="fill:rgb(255, 0, 0);fill-opacity:0;fill-rule:evenodd;stroke:rgb(0, 213, 255);stroke-width:1;" d="M 651.421, 68.0487 L 660.654, 55.5674 L 666.125, 48.2154 L 671.767, 40.3505 L 673.819, 37.4439 L 677.068, 33.1695 L 681.855, 26.6724 L 723.06, 44.112 L 718.444, 50.6091 L 715.708, 54.1996 L 702.03, 73.0071 L 695.875, 81.3849 L 692.798, 85.4884 L 674.674, 77.7944 L 651.421, 68.0487 z "/>
<path style="fill:rgb(0, 255, 0);fill-opacity:0;fill-rule:evenodd;stroke:rgb(0, 213, 255);stroke-width:1;" d="M 677.068, 33.1695 L 681.855, 26.6724 L 723.06, 44.112 L 718.444, 50.6091 L 677.068, 33.1695 z "/>
<path style="fill:rgb(0, 0, 255);fill-opacity:0;fill-rule:evenodd;stroke:rgb(0, 213, 255);stroke-width:1;" d="M 673.819, 37.4439 L 677.068, 33.1695 L 718.444, 50.6091 L 715.708, 54.1996 L 699.979, 47.5315 L 685.617, 41.5473 L 685.104, 42.2312 L 673.819, 37.4439 z "/>
</svg>