<?xml version="1.0" encoding="iso-8859-1" standalone="no"?>
<!DOCTYPE svg PUBLIC "-//W3C//DTD SVG 1.0//EN" "http://www.w3.org/TR/2001/REC-SVG-20010904/DTD/svg10.dtd">
<svg xmlns="http://www.w3.org/2000/svg" width="1024" height="800">
<path style="fill:rgb(255, 0, 0);fill-opacity:0;fill-rule:evenodd;stroke:rgb(8, 255, 0);stroke-width:1;" d="M 524.095, 609.003 L 568.226, 572.992 L 572.639, 569.285 L 575.64, 570.697 L 586.761, 575.993 L 590.115, 571.756 L 593.292, 573.345 L 623.831, 535.746 L 651.015, 548.455 L 627.714, 577.229 L 617.652, 589.938 L 627.184, 594.351 L 605.296, 612.18 L 569.638, 641.483 L 524.095, 609.003 z "/>
<path style="fill:rgb(0, 255, 0);fill-opacity:0;fill-rule:evenodd;stroke:rgb(8, 255, 0);stroke-width:1;" d="M 825.243, 51.368 L 840.424, 33.7158 L 883.848, 55.2515 L 876.258, 64.2542 L 882.613, 67.4316 L 885.966, 63.7246 L 891.615, 66.549 L 905.031, 51.015 L 908.914, 52.9568 L 910.15, 51.1915 L 915.269, 53.8394 L 921.271, 46.955 L 963.989, 68.1377 L 923.566, 116.681 L 870.256, 90.203 L 880.141, 78.5525 L 877.846, 77.3169 L 825.243, 51.368 z "/>
<path style="fill:rgb(0, 0, 255);fill-opacity:0;fill-rule:evenodd;stroke:rgb(8, 255, 0);stroke-width:1;" d="M 667.432, 460.724 L 684.731, 440.424 L 730.803, 463.372 L 738.923, 467.432 L 751.28, 453.663 L 757.105, 446.955 L 758.164, 447.485 L 809.003, 472.727 L 774.581, 512.798 L 770.168, 510.68 L 734.157, 492.851 L 721.801, 487.555 L 706.973, 480.318 L 694.969, 474.316 L 667.432, 460.724 z "/>
<path style="fill:rgb(255, 255, 0);fill-opacity:0;fill-rule:evenodd;stroke:rgb(8, 255, 0);stroke-width:1;" d="M 481.024, 208.473 L 505.031, 180.229 L 609.532, 231.774 L 611.297, 232.657 L 587.467, 260.724 L 481.024, 208.473 z "/>
<path style="fill:rgb(255, 0, 0);fill-opacity:0;fill-rule:evenodd;stroke:rgb(8, 255, 0);stroke-width:1;" d="M 703.442, 738.394 L 741.041, 696.734 L 744.748, 692.498 L 728.332, 684.025 L 724.095, 681.906 L 750.221, 650.838 L 766.99, 659.135 L 771.227, 654.016 L 802.118, 617.299 L 821.712, 626.478 L 721.447, 751.28 L 703.442, 738.394 z "/>
<path style="fill:rgb(0, 255, 0);fill-opacity:0;fill-rule:evenodd;stroke:rgb(8, 255, 0);stroke-width:1;" d="M 626.125, 285.437 L 644.131, 263.725 L 755.163, 316.858 L 737.158, 338.57 L 626.125, 285.437 z "/>
<path style="fill:rgb(0, 0, 255);fill-opacity:0;fill-rule:evenodd;stroke:rgb(8, 255, 0);stroke-width:1;" d="M 335.216, 631.951 L 353.222, 610.768 L 448.014, 653.486 L 420.83, 685.79 L 383.23, 668.844 L 392.056, 657.546 L 383.936, 653.839 L 335.216, 631.951 z "/>
<path style="fill:rgb(255, 255, 0);fill-opacity:0;fill-rule:evenodd;stroke:rgb(8, 255, 0);stroke-width:1;" d="M 34.0688, 178.288 L 71.1386, 135.04 L 85.2604, 118.094 L 123.566, 136.805 L 72.9038, 197.176 L 34.0688, 178.288 z "/>
<path style="fill:rgb(255, 0, 0);fill-opacity:0;fill-rule:evenodd;stroke:rgb(8, 255, 0);stroke-width:1;" d="M 378.288, 329.038 L 395.94, 308.385 L 502.913, 361.165 L 485.26, 381.818 L 432.304, 355.693 L 429.832, 354.457 L 421.536, 364.342 L 412.357, 359.929 L 413.063, 359.047 L 418.005, 353.398 L 421.889, 355.34 L 424.713, 351.986 L 378.288, 329.038 z "/>
<path style="fill:rgb(0, 255, 0);fill-opacity:0;fill-rule:evenodd;stroke:rgb(8, 255, 0);stroke-width:1;" d="M 544.925, 133.274 L 563.107, 111.915 L 669.726, 164.519 L 651.721, 185.878 L 544.925, 133.274 z "/>
<path style="fill:rgb(0, 0, 255);fill-opacity:0;fill-rule:evenodd;stroke:rgb(8, 255, 0);stroke-width:1;" d="M 572.286, 101.147 L 590.291, 79.9647 L 697.087, 132.568 L 678.906, 153.751 L 572.286, 101.147 z "/>
<path style="fill:rgb(255, 255, 0);fill-opacity:0;fill-rule:evenodd;stroke:rgb(8, 255, 0);stroke-width:1;" d="M 644.131, 263.725 L 660.9, 243.248 L 664.254, 244.837 L 717.211, 270.256 L 725.508, 274.316 L 770.344, 295.675 L 772.109, 296.558 L 755.163, 316.858 L 644.131, 263.725 z "/>
<path style="fill:rgb(255, 0, 0);fill-opacity:0;fill-rule:evenodd;stroke:rgb(8, 255, 0);stroke-width:1;" d="M 418.535, 534.334 L 439.718, 508.208 L 490.026, 531.686 L 516.152, 543.866 L 512.621, 546.867 L 481.2, 572.462 L 477.14, 575.816 L 418.535, 534.334 z "/>
<path style="fill:rgb(0, 255, 0);fill-opacity:0;fill-rule:evenodd;stroke:rgb(8, 255, 0);stroke-width:1;" d="M 706.267, 193.292 L 730.627, 163.989 L 784.466, 189.762 L 768.932, 208.473 L 781.465, 214.475 L 796.47, 221.712 L 810.062, 228.244 L 824.89, 235.305 L 816.064, 245.896 L 706.267, 193.292 z "/>
<path style="fill:rgb(0, 0, 255);fill-opacity:0;fill-rule:evenodd;stroke:rgb(8, 255, 0);stroke-width:1;" d="M 413.239, 288.085 L 430.362, 267.961 L 442.542, 274.139 L 484.025, 294.44 L 537.335, 320.741 L 520.212, 340.688 L 413.239, 288.085 z "/>
<path style="fill:rgb(255, 255, 0);fill-opacity:0;fill-rule:evenodd;stroke:rgb(8, 255, 0);stroke-width:1;" d="M 75.7282, 237.07 L 102.207, 206.178 L 153.575, 235.305 L 131.333, 261.606 L 124.625, 258.429 L 121.271, 262.489 L 118.623, 261.43 L 89.1439, 298.5 L 77.6699, 290.38 L 104.854, 257.193 L 106.973, 254.545 L 97.4404, 249.25 L 75.7282, 237.07 z "/>
<path style="fill:rgb(255, 0, 0);fill-opacity:0;fill-rule:evenodd;stroke:rgb(8, 255, 0);stroke-width:1;" d="M 171.403, 618.005 L 200.53, 581.112 L 227.714, 593.645 L 215.357, 609.532 L 221.183, 612.18 L 270.786, 634.775 L 254.369, 655.958 L 171.403, 618.005 z "/>
<path style="fill:rgb(0, 255, 0);fill-opacity:0;fill-rule:evenodd;stroke:rgb(8, 255, 0);stroke-width:1;" d="M 910.68, 780.229 L 926.92, 753.928 L 926.037, 751.986 L 926.567, 750.75 L 941.041, 726.92 L 954.281, 731.686 L 955.516, 730.98 L 956.575, 730.803 L 958.694, 731.333 L 978.111, 738.217 L 975.993, 741.571 L 977.935, 741.748 L 979.876, 742.807 L 981.112, 744.925 L 981.642, 747.749 L 980.229, 749.868 L 968.226, 769.285 L 962.224, 779.347 L 961.165, 780.759 L 959.929, 780.406 L 958.164, 783.23 L 973.169, 788.703 L 966.637, 799.294 L 966.108, 800 L 963.989, 799.294 L 948.632, 793.822 L 939.806, 790.644 L 910.68, 780.229 z "/>
<path style="fill:rgb(0, 0, 255);fill-opacity:0;fill-rule:evenodd;stroke:rgb(8, 255, 0);stroke-width:1;" d="M 682.789, 533.098 L 709.267, 502.03 L 721.271, 508.032 L 734.157, 492.851 L 770.168, 510.68 L 730.627, 556.752 L 682.789, 533.098 z "/>
<path style="fill:rgb(255, 255, 0);fill-opacity:0;fill-rule:evenodd;stroke:rgb(8, 255, 0);stroke-width:1;" d="M 792.586, 584.819 L 819.771, 551.103 L 829.656, 538.923 L 874.316, 559.929 L 837.246, 605.649 L 792.586, 584.819 z "/>
<path style="fill:rgb(255, 0, 0);fill-opacity:0;fill-rule:evenodd;stroke:rgb(8, 255, 0);stroke-width:1;" d="M 642.189, 512.974 L 670.609, 479.788 L 656.84, 473.08 L 667.432, 460.724 L 694.969, 474.316 L 685.084, 485.613 L 697.264, 491.615 L 706.973, 480.318 L 721.801, 487.555 L 709.267, 502.03 L 682.789, 533.098 L 642.189, 512.974 z "/>
<path style="fill:rgb(0, 255, 0);fill-opacity:0;fill-rule:evenodd;stroke:rgb(8, 255, 0);stroke-width:1;" d="M 725.508, 274.316 L 760.106, 232.48 L 804.943, 254.016 L 770.344, 295.675 L 725.508, 274.316 z "/>
<path style="fill:rgb(0, 0, 255);fill-opacity:0;fill-rule:evenodd;stroke:rgb(8, 255, 0);stroke-width:1;" d="M 630.362, 595.763 L 640.424, 583.23 L 663.725, 554.457 L 710.856, 576.523 L 674.669, 616.593 L 630.362, 595.763 z "/>
<path style="fill:rgb(255, 255, 0);fill-opacity:0;fill-rule:evenodd;stroke:rgb(8, 255, 0);stroke-width:1;" d="M 569.109, 355.516 L 577.229, 345.984 L 621.536, 367.873 L 630.185, 372.109 L 657.193, 385.349 L 684.025, 398.588 L 659.312, 427.714 L 621.006, 408.826 L 637.776, 389.232 L 624.537, 382.701 L 569.109, 355.516 z "/>
<path style="fill:rgb(255, 0, 0);fill-opacity:0;fill-rule:evenodd;stroke:rgb(8, 255, 0);stroke-width:1;" d="M 956.399, 528.332 L 982.524, 496.205 L 1022.77, 512.621 L 1002.29, 561.695 L 988.879, 556.222 L 966.284, 547.043 L 974.228, 535.393 L 956.399, 528.332 z "/>
<path style="fill:rgb(0, 255, 0);fill-opacity:0;fill-rule:evenodd;stroke:rgb(8, 255, 0);stroke-width:1;" d="M 498.5, 715.446 L 500.971, 713.327 L 535.922, 684.907 L 581.289, 717.211 L 553.751, 747.749 L 535.04, 737.864 L 541.924, 732.215 L 533.274, 725.861 L 533.098, 729.038 L 528.332, 732.745 L 519.859, 726.743 L 524.625, 722.86 L 528.155, 722.33 L 519.329, 715.975 L 511.386, 722.507 L 498.5, 715.446 z "/>
<path style="fill:rgb(0, 0, 255);fill-opacity:0;fill-rule:evenodd;stroke:rgb(8, 255, 0);stroke-width:1;" d="M 430.362, 267.961 L 463.372, 229.303 L 510.15, 252.251 L 493.733, 271.492 L 480.318, 287.202 L 445.896, 270.256 L 442.542, 274.139 L 430.362, 267.961 z "/>
<path style="fill:rgb(255, 255, 0);fill-opacity:0;fill-rule:evenodd;stroke:rgb(8, 255, 0);stroke-width:1;" d="M 814.122, 531.509 L 841.836, 501.677 L 899.559, 528.861 L 874.316, 559.929 L 829.656, 538.923 L 814.122, 531.509 z M 843.071, 533.451 L 859.841, 541.571 L 864.784, 535.922 L 848.014, 527.626 L 843.071, 533.451 z "/>
<path style="fill:rgb(255, 0, 0);fill-opacity:0;fill-rule:evenodd;stroke:rgb(8, 255, 0);stroke-width:1;" d="M 456.311, 487.555 L 474.139, 465.666 L 541.041, 496.911 L 508.385, 537.335 L 494.969, 530.98 L 518.27, 502.207 L 510.327, 498.5 L 501.853, 508.914 L 456.311, 487.555 z "/>
<path style="fill:rgb(0, 255, 0);fill-opacity:0;fill-rule:evenodd;stroke:rgb(8, 255, 0);stroke-width:1;" d="M 136.628, 682.789 L 166.99, 644.484 L 236.187, 676.081 L 219.064, 696.381 L 171.756, 674.846 L 170.168, 673.963 L 172.109, 671.492 L 165.402, 668.491 L 149.338, 688.614 L 145.984, 687.026 L 143.16, 690.556 L 138.394, 688.261 L 141.041, 684.907 L 136.628, 682.789 z "/>
<path style="fill:rgb(0, 0, 255);fill-opacity:0;fill-rule:evenodd;stroke:rgb(8, 255, 0);stroke-width:1;" d="M 347.043, 144.042 L 381.995, 102.913 L 415.181, 119.153 L 413.416, 121.271 L 407.414, 128.332 L 413.945, 131.686 L 386.937, 163.636 L 347.043, 144.042 z "/>
<path style="fill:rgb(255, 255, 0);fill-opacity:0;fill-rule:evenodd;stroke:rgb(8, 255, 0);stroke-width:1;" d="M 687.026, 211.827 L 703.442, 192.056 L 706.267, 193.292 L 816.064, 245.896 L 808.12, 255.428 L 804.943, 254.016 L 760.106, 232.48 L 746.161, 225.949 L 737.688, 236.011 L 687.026, 211.827 z "/>
<path style="fill:rgb(255, 0, 0);fill-opacity:0;fill-rule:evenodd;stroke:rgb(8, 255, 0);stroke-width:1;" d="M 713.857, 640.247 L 754.457, 595.234 L 786.584, 610.238 L 756.046, 646.602 L 751.103, 644.131 L 742.277, 653.839 L 740.159, 652.957 L 713.857, 640.247 z "/>
<path style="fill:rgb(0, 255, 0);fill-opacity:0;fill-rule:evenodd;stroke:rgb(8, 255, 0);stroke-width:1;" d="M 762.93, 349.515 L 806.355, 298.676 L 834.422, 312.445 L 830.715, 316.858 L 791.174, 363.46 L 762.93, 349.515 z "/>
<path style="fill:rgb(0, 0, 255);fill-opacity:0;fill-rule:evenodd;stroke:rgb(8, 255, 0);stroke-width:1;" d="M 534.863, 395.763 L 542.807, 386.408 L 598.235, 413.592 L 611.297, 420.124 L 621.006, 408.826 L 659.312, 427.714 L 641.836, 448.367 L 627.184, 441.13 L 597.176, 426.302 L 534.863, 395.763 z "/>
<path style="fill:rgb(255, 255, 0);fill-opacity:0;fill-rule:evenodd;stroke:rgb(8, 255, 0);stroke-width:1;" d="M 349.162, 212.71 L 360.812, 199.117 L 425.066, 230.715 L 413.239, 244.66 L 402.824, 257.017 L 359.047, 235.481 L 369.815, 222.948 L 349.162, 212.71 z "/>
<path style="fill:rgb(255, 0, 0);fill-opacity:0;fill-rule:evenodd;stroke:rgb(8, 255, 0);stroke-width:1;" d="M 684.731, 440.424 L 710.503, 410.415 L 756.575, 433.186 L 730.803, 463.372 L 684.731, 440.424 z "/>
<path style="fill:rgb(0, 255, 0);fill-opacity:0;fill-rule:evenodd;stroke:rgb(8, 255, 0);stroke-width:1;" d="M 932.392, 430.891 L 965.931, 390.997 L 973.345, 394.704 L 1001.06, 408.12 L 967.696, 448.014 L 932.392, 430.891 z "/>
<path style="fill:rgb(0, 0, 255);fill-opacity:0;fill-rule:evenodd;stroke:rgb(8, 255, 0);stroke-width:1;" d="M 284.201, 439.718 L 327.273, 389.232 L 353.751, 402.295 L 307.855, 456.311 L 284.201, 439.718 z "/>
<path style="fill:rgb(255, 255, 0);fill-opacity:0;fill-rule:evenodd;stroke:rgb(8, 255, 0);stroke-width:1;" d="M 488.438, 445.543 L 510.15, 419.947 L 512.974, 421.359 L 554.634, 441.836 L 551.809, 445.19 L 562.754, 450.485 L 545.631, 470.786 L 543.866, 472.904 L 488.438, 445.543 z "/>
<path style="fill:rgb(255, 0, 0);fill-opacity:0;fill-rule:evenodd;stroke:rgb(8, 255, 0);stroke-width:1;" d="M 265.843, 103.972 L 276.787, 91.0856 L 279.612, 92.4978 L 291.262, 78.9056 L 297.087, 81.7299 L 341.924, 103.972 L 319.153, 130.45 L 265.843, 103.972 z "/>
<path style="fill:rgb(0, 255, 0);fill-opacity:0;fill-rule:evenodd;stroke:rgb(8, 255, 0);stroke-width:1;" d="M 243.601, 263.372 L 269.55, 232.833 L 314.916, 255.252 L 288.967, 285.613 L 243.601, 263.372 z "/>
<path style="fill:rgb(0, 0, 255);fill-opacity:0;fill-rule:evenodd;stroke:rgb(8, 255, 0);stroke-width:1;" d="M 894.616, 685.26 L 896.381, 682.613 L 918.623, 651.015 L 928.155, 637.776 L 954.81, 648.897 L 958.164, 650.132 L 930.803, 694.793 L 925.154, 696.381 L 894.616, 685.26 z "/>
<path style="fill:rgb(255, 255, 0);fill-opacity:0;fill-rule:evenodd;stroke:rgb(8, 255, 0);stroke-width:1;" d="M 590.291, 79.9647 L 601.059, 67.4316 L 707.679, 120.035 L 697.087, 132.568 L 590.291, 79.9647 z "/>
<path style="fill:rgb(255, 0, 0);fill-opacity:0;fill-rule:evenodd;stroke:rgb(8, 255, 0);stroke-width:1;" d="M 605.296, 612.18 L 627.184, 594.351 L 630.362, 595.763 L 674.669, 616.593 L 647.838, 646.602 L 636.54, 639.894 L 625.419, 633.186 L 612.71, 625.772 L 620.477, 619.241 L 605.296, 612.18 z "/>
<path style="fill:rgb(0, 255, 0);fill-opacity:0;fill-rule:evenodd;stroke:rgb(8, 255, 0);stroke-width:1;" d="M 769.815, 116.152 L 792.763, 89.1439 L 836.717, 111.033 L 830.009, 118.623 L 840.953, 124.095 L 827.538, 139.629 L 769.815, 116.152 z "/>
<path style="fill:rgb(0, 0, 255);fill-opacity:0;fill-rule:evenodd;stroke:rgb(8, 255, 0);stroke-width:1;" d="M 266.549, 527.979 L 284.907, 504.854 L 344.395, 547.22 L 344.395, 548.279 L 333.274, 561.518 L 332.745, 561.695 L 331.686, 561.695 L 266.549, 527.979 z "/>
<path style="fill:rgb(255, 255, 0);fill-opacity:0;fill-rule:evenodd;stroke:rgb(8, 255, 0);stroke-width:1;" d="M 524.448, 407.944 L 534.863, 395.763 L 597.176, 426.302 L 586.761, 438.658 L 590.115, 440.424 L 558.694, 477.317 L 545.631, 470.786 L 562.754, 450.485 L 565.578, 447.308 L 577.052, 433.892 L 524.448, 407.944 z "/>
<path style="fill:rgb(255, 0, 0);fill-opacity:0;fill-rule:evenodd;stroke:rgb(8, 255, 0);stroke-width:1;" d="M 868.138, 672.374 L 890.733, 640.424 L 872.727, 633.01 L 883.319, 619.417 L 919.506, 634.245 L 910.15, 647.485 L 918.623, 651.015 L 896.381, 682.613 L 868.138, 672.374 z "/>
<path style="fill:rgb(0, 255, 0);fill-opacity:0;fill-rule:evenodd;stroke:rgb(8, 255, 0);stroke-width:1;" d="M 352.868, 700.794 L 364.166, 686.496 L 365.755, 684.378 L 369.638, 686.143 L 383.23, 668.844 L 420.83, 685.79 L 393.116, 718.8 L 352.868, 700.794 z "/>
<path style="fill:rgb(0, 0, 255);fill-opacity:0;fill-rule:evenodd;stroke:rgb(8, 255, 0);stroke-width:1;" d="M 399.47, 82.2595 L 420.124, 57.8994 L 460.371, 77.4934 L 471.139, 82.7891 L 450.485, 107.326 L 399.47, 82.2595 z "/>
<path style="fill:rgb(255, 255, 0);fill-opacity:0;fill-rule:evenodd;stroke:rgb(8, 255, 0);stroke-width:1;" d="M 914.74, 422.418 L 974.228, 351.456 L 989.762, 359.047 L 991.35, 359.753 L 989.585, 361.871 L 990.997, 362.577 L 984.466, 370.521 L 976.169, 380.406 L 970.874, 386.761 L 965.049, 383.936 L 960.989, 388.703 L 965.931, 390.997 L 932.392, 430.891 L 914.74, 422.418 z "/>
<path style="fill:rgb(255, 0, 0);fill-opacity:0;fill-rule:evenodd;stroke:rgb(8, 255, 0);stroke-width:1;" d="M 847.838, 251.721 L 887.555, 204.413 L 914.563, 215.711 L 878.553, 258.605 L 876.434, 257.546 L 871.668, 263.372 L 847.838, 251.721 z "/>
<path style="fill:rgb(0, 255, 0);fill-opacity:0;fill-rule:evenodd;stroke:rgb(8, 255, 0);stroke-width:1;" d="M 166.108, 354.634 L 201.236, 313.327 L 248.897, 336.628 L 239.541, 347.749 L 237.07, 346.514 L 228.42, 342.101 L 227.008, 338.923 L 226.655, 338.747 L 215.887, 333.451 L 185.878, 368.756 L 166.108, 354.634 z "/>
<path style="fill:rgb(0, 0, 255);fill-opacity:0;fill-rule:evenodd;stroke:rgb(8, 255, 0);stroke-width:1;" d="M 111.915, 590.821 L 142.807, 551.633 L 144.219, 549.691 L 174.934, 563.813 L 142.454, 604.766 L 111.915, 590.821 z "/>
<path style="fill:rgb(255, 255, 0);fill-opacity:0;fill-rule:evenodd;stroke:rgb(8, 255, 0);stroke-width:1;" d="M 791.174, 363.46 L 830.715, 316.858 L 856.487, 329.568 L 816.77, 375.993 L 791.174, 363.46 z "/>
<path style="fill:rgb(255, 0, 0);fill-opacity:0;fill-rule:evenodd;stroke:rgb(8, 255, 0);stroke-width:1;" d="M 924.978, 180.936 L 955.693, 144.925 L 941.748, 138.217 L 949.868, 128.685 L 964.872, 135.922 L 969.285, 151.103 L 970.521, 149.691 L 984.113, 156.575 L 953.222, 192.763 L 924.978, 180.936 z "/>
<path style="fill:rgb(0, 255, 0);fill-opacity:0;fill-rule:evenodd;stroke:rgb(8, 255, 0);stroke-width:1;" d="M 526.567, 154.987 L 535.922, 144.042 L 642.542, 196.47 L 633.186, 207.59 L 575.993, 179.347 L 526.567, 154.987 z "/>
<path style="fill:rgb(0, 0, 255);fill-opacity:0;fill-rule:evenodd;stroke:rgb(8, 255, 0);stroke-width:1;" d="M 362.93, 437.599 L 381.465, 415.887 L 435.305, 442.542 L 416.77, 464.254 L 362.93, 437.599 z "/>
<path style="fill:rgb(255, 255, 0);fill-opacity:0;fill-rule:evenodd;stroke:rgb(8, 255, 0);stroke-width:1;" d="M 269.726, 706.796 L 279.435, 695.146 L 375.463, 739.1 L 364.342, 752.339 L 269.726, 706.796 z "/>
<path style="fill:rgb(255, 0, 0);fill-opacity:0;fill-rule:evenodd;stroke:rgb(8, 255, 0);stroke-width:1;" d="M 227.538, 599.823 L 247.132, 574.934 L 296.911, 601.942 L 279.788, 623.477 L 230.009, 600.883 L 227.538, 599.823 z "/>
<path style="fill:rgb(0, 255, 0);fill-opacity:0;fill-rule:evenodd;stroke:rgb(8, 255, 0);stroke-width:1;" d="M 493.733, 271.492 L 510.15, 252.251 L 570.344, 281.906 L 553.928, 301.147 L 500.618, 275.022 L 493.733, 271.492 z "/>
<path style="fill:rgb(0, 0, 255);fill-opacity:0;fill-rule:evenodd;stroke:rgb(8, 255, 0);stroke-width:1;" d="M 404.06, 298.853 L 413.239, 288.085 L 520.212, 340.688 L 511.033, 351.456 L 404.06, 298.853 z "/>
<path style="fill:rgb(255, 255, 0);fill-opacity:0;fill-rule:evenodd;stroke:rgb(8, 255, 0);stroke-width:1;" d="M 563.107, 111.915 L 572.286, 101.147 L 678.906, 153.751 L 669.726, 164.519 L 563.107, 111.915 z "/>
<path style="fill:rgb(255, 0, 0);fill-opacity:0;fill-rule:evenodd;stroke:rgb(8, 255, 0);stroke-width:1;" d="M 535.922, 144.042 L 544.925, 133.274 L 651.721, 185.878 L 642.542, 196.47 L 535.922, 144.042 z "/>
<path style="fill:rgb(0, 255, 0);fill-opacity:0;fill-rule:evenodd;stroke:rgb(8, 255, 0);stroke-width:1;" d="M 540.865, 385.525 L 557.988, 365.402 L 615.181, 393.645 L 598.235, 413.592 L 542.807, 386.408 L 540.865, 385.525 z "/>
<path style="fill:rgb(0, 0, 255);fill-opacity:0;fill-rule:evenodd;stroke:rgb(8, 255, 0);stroke-width:1;" d="M 110.503, 452.074 L 146.69, 406.531 L 170.344, 423.301 L 137.688, 464.607 L 110.503, 452.074 z "/>
<path style="fill:rgb(255, 255, 0);fill-opacity:0;fill-rule:evenodd;stroke:rgb(8, 255, 0);stroke-width:1;" d="M 841.836, 501.677 L 859.841, 482.083 L 888.085, 495.322 L 915.975, 508.561 L 899.559, 528.861 L 841.836, 501.677 z "/>
<path style="fill:rgb(255, 0, 0);fill-opacity:0;fill-rule:evenodd;stroke:rgb(8, 255, 0);stroke-width:1;" d="M 892.321, 265.313 L 928.861, 221.889 L 955.693, 233.186 L 927.273, 266.726 L 920.035, 275.552 L 907.502, 269.373 L 905.56, 271.845 L 892.321, 265.313 z "/>
<path style="fill:rgb(0, 255, 0);fill-opacity:0;fill-rule:evenodd;stroke:rgb(8, 255, 0);stroke-width:1;" d="M 250.485, 729.921 L 260.194, 718.27 L 354.81, 763.813 L 344.925, 775.64 L 250.485, 729.921 z "/>
<path style="fill:rgb(0, 0, 255);fill-opacity:0;fill-rule:evenodd;stroke:rgb(8, 255, 0);stroke-width:1;" d="M 127.096, 176.876 L 144.042, 156.929 L 195.94, 182.348 L 198.235, 183.407 L 181.289, 203.53 L 127.096, 176.876 z "/>
<path style="fill:rgb(255, 255, 0);fill-opacity:0;fill-rule:evenodd;stroke:rgb(8, 255, 0);stroke-width:1;" d="M 30.7149, 700.441 L 58.6055, 665.137 L 64.4307, 657.723 L 76.2577, 663.019 L 78.729, 659.841 L 92.1447, 666.019 L 90.203, 668.314 L 55.7811, 711.915 L 30.7149, 700.441 z "/>
<path style="fill:rgb(255, 0, 0);fill-opacity:0;fill-rule:evenodd;stroke:rgb(8, 255, 0);stroke-width:1;" d="M 260.194, 718.27 L 269.726, 706.796 L 364.342, 752.339 L 354.81, 763.813 L 260.194, 718.27 z "/>
<path style="fill:rgb(0, 255, 0);fill-opacity:0;fill-rule:evenodd;stroke:rgb(8, 255, 0);stroke-width:1;" d="M 242.365, 176.699 L 275.905, 137.158 L 302.736, 150.397 L 269.197, 189.762 L 242.365, 176.699 z "/>
<path style="fill:rgb(0, 0, 255);fill-opacity:0;fill-rule:evenodd;stroke:rgb(8, 255, 0);stroke-width:1;" d="M 240.953, 741.218 L 250.485, 729.921 L 344.925, 775.64 L 335.569, 786.937 L 240.953, 741.218 z "/>
<path style="fill:rgb(255, 255, 0);fill-opacity:0;fill-rule:evenodd;stroke:rgb(8, 255, 0);stroke-width:1;" d="M 248.72, 352.162 L 266.019, 331.862 L 271.668, 334.51 L 317.741, 357.282 L 300.441, 377.582 L 275.199, 365.225 L 264.607, 360.106 L 252.604, 354.104 L 248.72, 352.162 z "/>
<path style="fill:rgb(255, 0, 0);fill-opacity:0;fill-rule:evenodd;stroke:rgb(8, 255, 0);stroke-width:1;" d="M 271.668, 334.51 L 290.909, 311.739 L 336.981, 334.334 L 317.741, 357.282 L 271.668, 334.51 z "/>
<path style="fill:rgb(0, 255, 0);fill-opacity:0;fill-rule:evenodd;stroke:rgb(8, 255, 0);stroke-width:1;" d="M 381.995, 102.913 L 399.47, 82.2595 L 450.485, 107.326 L 433.01, 127.802 L 415.181, 119.153 L 381.995, 102.913 z "/>
<path style="fill:rgb(0, 0, 255);fill-opacity:0;fill-rule:evenodd;stroke:rgb(8, 255, 0);stroke-width:1;" d="M 484.025, 294.44 L 500.618, 275.022 L 553.928, 301.147 L 537.335, 320.741 L 484.025, 294.44 z "/>
<path style="fill:rgb(255, 255, 0);fill-opacity:0;fill-rule:evenodd;stroke:rgb(8, 255, 0);stroke-width:1;" d="M 94.7926, 729.744 L 128.685, 687.026 L 153.928, 698.676 L 149.868, 703.795 L 130.803, 727.802 L 120.035, 741.395 L 94.7926, 729.744 z "/>
<path style="fill:rgb(255, 0, 0);fill-opacity:0;fill-rule:evenodd;stroke:rgb(8, 255, 0);stroke-width:1;" d="M 445.013, 120.388 L 462.136, 100.088 L 513.327, 125.154 L 496.205, 145.455 L 445.013, 120.388 z "/>
<path style="fill:rgb(0, 255, 0);fill-opacity:0;fill-rule:evenodd;stroke:rgb(8, 255, 0);stroke-width:1;" d="M 514.74, 82.083 L 517.387, 78.9056 L 515.446, 77.8464 L 545.631, 42.3654 L 572.462, 55.4281 L 539.629, 94.263 L 514.74, 82.083 z "/>
<path style="fill:rgb(0, 0, 255);fill-opacity:0;fill-rule:evenodd;stroke:rgb(8, 255, 0);stroke-width:1;" d="M 84.7308, 578.464 L 116.152, 538.57 L 133.274, 546.514 L 132.921, 547.043 L 142.807, 551.633 L 111.915, 590.821 L 84.7308, 578.464 z "/>
<path style="fill:rgb(255, 255, 0);fill-opacity:0;fill-rule:evenodd;stroke:rgb(8, 255, 0);stroke-width:1;" d="M 395.94, 308.385 L 404.06, 298.853 L 511.033, 351.456 L 502.913, 361.165 L 395.94, 308.385 z "/>
<path style="fill:rgb(255, 0, 0);fill-opacity:0;fill-rule:evenodd;stroke:rgb(8, 255, 0);stroke-width:1;" d="M 269.55, 232.833 L 286.496, 212.886 L 333.098, 235.658 L 337.511, 237.952 L 320.388, 257.899 L 314.916, 255.252 L 269.55, 232.833 z "/>
<path style="fill:rgb(0, 255, 0);fill-opacity:0;fill-rule:evenodd;stroke:rgb(8, 255, 0);stroke-width:1;" d="M 353.222, 610.768 L 362.577, 599.823 L 405.119, 619.064 L 427.361, 629.126 L 443.954, 636.54 L 457.193, 642.365 L 448.014, 653.486 L 353.222, 610.768 z "/>
<path style="fill:rgb(0, 0, 255);fill-opacity:0;fill-rule:evenodd;stroke:rgb(8, 255, 0);stroke-width:1;" d="M 439.718, 508.208 L 456.311, 487.555 L 501.853, 508.914 L 506.62, 511.209 L 490.026, 531.686 L 439.718, 508.208 z "/>
<path style="fill:rgb(255, 255, 0);fill-opacity:0;fill-rule:evenodd;stroke:rgb(8, 255, 0);stroke-width:1;" d="M 488.967, 584.289 L 524.625, 555.34 L 527.802, 552.692 L 530.803, 554.81 L 536.805, 550.574 L 569.462, 510.327 L 581.995, 516.152 L 549.691, 556.046 L 548.102, 557.988 L 543.866, 556.046 L 538.57, 560.459 L 499.912, 592.056 L 488.967, 584.289 z "/>
<path style="fill:rgb(255, 0, 0);fill-opacity:0;fill-rule:evenodd;stroke:rgb(8, 255, 0);stroke-width:1;" d="M 111.562, 195.234 L 127.096, 176.876 L 181.289, 203.53 L 165.755, 221.889 L 165.225, 221.536 L 111.562, 195.234 z "/>
<path style="fill:rgb(0, 255, 0);fill-opacity:0;fill-rule:evenodd;stroke:rgb(8, 255, 0);stroke-width:1;" d="M 809.532, 69.7264 L 825.243, 51.368 L 877.846, 77.3169 L 861.959, 95.6752 L 809.532, 69.7264 z "/>
<path style="fill:rgb(0, 0, 255);fill-opacity:0;fill-rule:evenodd;stroke:rgb(8, 255, 0);stroke-width:1;" d="M 958.517, 118.623 L 975.463, 98.8526 L 1024.01, 122.86 L 1007.24, 142.63 L 958.517, 118.623 z "/>
<path style="fill:rgb(255, 255, 0);fill-opacity:0;fill-rule:evenodd;stroke:rgb(8, 255, 0);stroke-width:1;" d="M 303.089, 60.9003 L 318.447, 42.895 L 371.58, 69.3733 L 356.222, 87.3786 L 311.386, 65.1368 L 303.089, 60.9003 z "/>
<path style="fill:rgb(255, 0, 0);fill-opacity:0;fill-rule:evenodd;stroke:rgb(8, 255, 0);stroke-width:1;" d="M 927.273, 266.726 L 955.693, 233.186 L 984.819, 245.366 L 955.34, 280.318 L 927.273, 266.726 z "/>
<path style="fill:rgb(0, 255, 0);fill-opacity:0;fill-rule:evenodd;stroke:rgb(8, 255, 0);stroke-width:1;" d="M 143.689, 724.978 L 157.635, 707.326 L 149.868, 703.795 L 153.928, 698.676 L 155.693, 696.381 L 162.754, 699.735 L 201.412, 717.387 L 180.759, 741.748 L 143.689, 724.978 z "/>
<path style="fill:rgb(0, 0, 255);fill-opacity:0;fill-rule:evenodd;stroke:rgb(8, 255, 0);stroke-width:1;" d="M 286.496, 212.886 L 303.442, 192.939 L 314.387, 198.411 L 325.861, 204.06 L 335.922, 209.003 L 347.573, 214.651 L 351.633, 216.593 L 343.16, 226.655 L 341.571, 225.949 L 333.098, 235.658 L 286.496, 212.886 z "/>
<path style="fill:rgb(255, 255, 0);fill-opacity:0;fill-rule:evenodd;stroke:rgb(8, 255, 0);stroke-width:1;" d="M 408.12, 725.508 L 443.248, 684.554 L 459.488, 693.91 L 464.607, 696.734 L 432.833, 736.452 L 408.12, 725.508 z "/>
<path style="fill:rgb(255, 0, 0);fill-opacity:0;fill-rule:evenodd;stroke:rgb(8, 255, 0);stroke-width:1;" d="M 188.173, 566.637 L 217.299, 529.568 L 243.248, 541.395 L 213.945, 578.464 L 188.173, 566.637 z "/>
<path style="fill:rgb(0, 255, 0);fill-opacity:0;fill-rule:evenodd;stroke:rgb(8, 255, 0);stroke-width:1;" d="M 758.164, 447.485 L 766.99, 437.423 L 776.876, 442.365 L 786.584, 447.132 L 805.825, 456.664 L 834.245, 423.301 L 846.249, 429.126 L 809.003, 472.727 L 758.164, 447.485 z "/>
<path style="fill:rgb(0, 0, 255);fill-opacity:0;fill-rule:evenodd;stroke:rgb(8, 255, 0);stroke-width:1;" d="M 360.812, 199.117 L 372.816, 184.819 L 437.246, 216.417 L 425.066, 230.715 L 360.812, 199.117 z "/>
<path style="fill:rgb(255, 255, 0);fill-opacity:0;fill-rule:evenodd;stroke:rgb(8, 255, 0);stroke-width:1;" d="M 386.937, 163.636 L 413.945, 131.686 L 407.414, 128.332 L 413.416, 121.271 L 433.01, 130.803 L 423.124, 142.63 L 436.187, 148.985 L 412.886, 176.346 L 386.937, 163.636 z "/>
<path style="fill:rgb(255, 0, 0);fill-opacity:0;fill-rule:evenodd;stroke:rgb(8, 255, 0);stroke-width:1;" d="M 657.193, 385.349 L 686.143, 351.456 L 712.974, 364.695 L 684.025, 398.588 L 657.193, 385.349 z "/>
<path style="fill:rgb(0, 255, 0);fill-opacity:0;fill-rule:evenodd;stroke:rgb(8, 255, 0);stroke-width:1;" d="M 360.106, 378.817 L 380.583, 354.634 L 363.636, 346.337 L 370.697, 338.217 L 401.942, 353.575 L 397.529, 358.87 L 408.826, 364.519 L 385.878, 391.527 L 360.106, 378.817 z "/>
<path style="fill:rgb(0, 0, 255);fill-opacity:0;fill-rule:evenodd;stroke:rgb(8, 255, 0);stroke-width:1;" d="M 569.638, 641.483 L 605.296, 612.18 L 620.477, 619.241 L 612.71, 625.772 L 625.419, 633.186 L 594.175, 658.782 L 569.638, 641.483 z "/>
<path style="fill:rgb(255, 255, 0);fill-opacity:0;fill-rule:evenodd;stroke:rgb(8, 255, 0);stroke-width:1;" d="M 888.085, 495.322 L 914.034, 463.372 L 942.101, 476.434 L 915.975, 508.561 L 888.085, 495.322 z "/>
<path style="fill:rgb(255, 0, 0);fill-opacity:0;fill-rule:evenodd;stroke:rgb(8, 255, 0);stroke-width:1;" d="M 151.456, 470.786 L 166.637, 451.721 L 177.229, 456.487 L 196.823, 465.49 L 194.175, 468.844 L 214.475, 478.023 L 211.827, 481.377 L 201.765, 493.91 L 151.456, 470.786 z "/>
<path style="fill:rgb(0, 255, 0);fill-opacity:0;fill-rule:evenodd;stroke:rgb(8, 255, 0);stroke-width:1;" d="M 188.879, 138.923 L 215.534, 107.502 L 239.894, 119.506 L 206.355, 159.047 L 194.351, 153.045 L 201.236, 144.925 L 188.879, 138.923 z "/>
<path style="fill:rgb(0, 0, 255);fill-opacity:0;fill-rule:evenodd;stroke:rgb(8, 255, 0);stroke-width:1;" d="M 443.248, 684.554 L 477.846, 643.778 L 500.794, 660.194 L 466.196, 688.438 L 459.488, 693.91 L 443.248, 684.554 z "/>
<path style="fill:rgb(255, 255, 0);fill-opacity:0;fill-rule:evenodd;stroke:rgb(8, 255, 0);stroke-width:1;" d="M 466.196, 688.438 L 500.794, 660.194 L 523.919, 676.434 L 489.144, 704.678 L 466.196, 688.438 z "/>
<path style="fill:rgb(255, 0, 0);fill-opacity:0;fill-rule:evenodd;stroke:rgb(8, 255, 0);stroke-width:1;" d="M 171.227, 228.597 L 186.937, 210.062 L 232.833, 232.657 L 217.123, 251.192 L 171.227, 228.597 z "/>
<path style="fill:rgb(0, 255, 0);fill-opacity:0;fill-rule:evenodd;stroke:rgb(8, 255, 0);stroke-width:1;" d="M 31.068, 639.894 L 64.6072, 597.529 L 85.4369, 607.237 L 52.0741, 649.603 L 31.068, 639.894 z "/>
<path style="fill:rgb(0, 0, 255);fill-opacity:0;fill-rule:evenodd;stroke:rgb(8, 255, 0);stroke-width:1;" d="M 286.673, 309.62 L 300.794, 292.851 L 305.207, 294.969 L 351.28, 317.741 L 336.981, 334.334 L 290.909, 311.739 L 286.673, 309.62 z "/>
<path style="fill:rgb(255, 255, 0);fill-opacity:0;fill-rule:evenodd;stroke:rgb(8, 255, 0);stroke-width:1;" d="M 663.548, 59.6646 L 677.846, 43.248 L 684.731, 41.6593 L 748.102, 73.6099 L 736.981, 86.3195 L 701.147, 68.1377 L 706.796, 61.7829 L 688.967, 52.7802 L 676.964, 66.549 L 663.548, 59.6646 z "/>
<path style="fill:rgb(255, 0, 0);fill-opacity:0;fill-rule:evenodd;stroke:rgb(8, 255, 0);stroke-width:1;" d="M 152.515, 146.867 L 168.049, 128.685 L 188.879, 138.923 L 201.236, 144.925 L 194.351, 153.045 L 206.355, 159.047 L 216.417, 163.989 L 207.767, 174.051 L 204.237, 172.286 L 152.515, 146.867 z "/>
<path style="fill:rgb(0, 255, 0);fill-opacity:0;fill-rule:evenodd;stroke:rgb(8, 255, 0);stroke-width:1;" d="M 501.147, 766.637 L 526.743, 733.451 L 535.04, 737.864 L 553.751, 747.749 L 526.214, 778.111 L 501.147, 766.637 z "/>
<path style="fill:rgb(0, 0, 255);fill-opacity:0;fill-rule:evenodd;stroke:rgb(8, 255, 0);stroke-width:1;" d="M 95.8517, 519.859 L 122.33, 486.143 L 147.749, 497.793 L 121.271, 531.333 L 95.8517, 519.859 z "/>
<path style="fill:rgb(255, 255, 0);fill-opacity:0;fill-rule:evenodd;stroke:rgb(8, 255, 0);stroke-width:1;" d="M 120.035, 741.395 L 130.803, 727.802 L 137.688, 730.98 L 142.807, 724.448 L 143.689, 724.978 L 180.759, 741.748 L 164.166, 761.518 L 120.035, 741.395 z "/>
<path style="fill:rgb(255, 0, 0);fill-opacity:0;fill-rule:evenodd;stroke:rgb(8, 255, 0);stroke-width:1;" d="M 152.692, 242.365 L 166.284, 226.302 L 171.227, 228.597 L 217.123, 251.192 L 203.53, 267.255 L 152.692, 242.365 z "/>
<path style="fill:rgb(0, 255, 0);fill-opacity:0;fill-rule:evenodd;stroke:rgb(8, 255, 0);stroke-width:1;" d="M 630.185, 372.109 L 635.305, 365.931 L 648.897, 372.639 L 656.487, 363.813 L 642.895, 357.105 L 650.485, 348.279 L 658.076, 339.1 L 658.959, 338.041 L 686.143, 351.456 L 657.193, 385.349 L 630.185, 372.109 z "/>
<path style="fill:rgb(0, 0, 255);fill-opacity:0;fill-rule:evenodd;stroke:rgb(8, 255, 0);stroke-width:1;" d="M 685.084, 725.331 L 723.742, 688.438 L 741.041, 696.734 L 703.442, 738.394 L 685.084, 725.331 z "/>
<path style="fill:rgb(255, 255, 0);fill-opacity:0;fill-rule:evenodd;stroke:rgb(8, 255, 0);stroke-width:1;" d="M 667.785, 712.798 L 712.445, 675.728 L 720.035, 679.788 L 724.095, 681.906 L 728.332, 684.025 L 723.742, 688.438 L 685.084, 725.331 L 667.785, 712.798 z "/>
<path style="fill:rgb(255, 0, 0);fill-opacity:0;fill-rule:evenodd;stroke:rgb(8, 255, 0);stroke-width:1;" d="M 320.212, 464.96 L 352.339, 427.361 L 367.696, 409.179 L 381.465, 415.887 L 362.93, 437.599 L 354.281, 447.661 L 345.631, 457.899 L 332.392, 473.433 L 320.212, 464.96 z "/>
<path style="fill:rgb(0, 255, 0);fill-opacity:0;fill-rule:evenodd;stroke:rgb(8, 255, 0);stroke-width:1;" d="M 48.1906, 269.373 L 75.7282, 237.07 L 97.4404, 249.25 L 94.7926, 252.427 L 69.0203, 284.201 L 48.1906, 269.373 z "/>
<path style="fill:rgb(0, 0, 255);fill-opacity:0;fill-rule:evenodd;stroke:rgb(8, 255, 0);stroke-width:1;" d="M 309.267, 282.436 L 322.154, 267.255 L 372.992, 292.145 L 360.106, 307.326 L 314.034, 284.731 L 309.267, 282.436 z "/>
<path style="fill:rgb(255, 255, 0);fill-opacity:0;fill-rule:evenodd;stroke:rgb(8, 255, 0);stroke-width:1;" d="M 74.316, 643.954 L 98.6761, 613.239 L 125.861, 625.596 L 103.795, 653.663 L 89.6734, 647.308 L 87.5552, 649.956 L 74.316, 643.954 z "/>
<path style="fill:rgb(255, 0, 0);fill-opacity:0;fill-rule:evenodd;stroke:rgb(8, 255, 0);stroke-width:1;" d="M 307.855, 456.311 L 353.751, 402.295 L 367.696, 409.179 L 352.339, 427.361 L 320.212, 464.96 L 307.855, 456.311 z "/>
<path style="fill:rgb(0, 255, 0);fill-opacity:0;fill-rule:evenodd;stroke:rgb(8, 255, 0);stroke-width:1;" d="M 297.087, 81.7299 L 311.386, 65.1368 L 356.222, 87.3786 L 341.924, 103.972 L 297.087, 81.7299 z "/>
<path style="fill:rgb(0, 0, 255);fill-opacity:0;fill-rule:evenodd;stroke:rgb(8, 255, 0);stroke-width:1;" d="M 186.937, 210.062 L 200.53, 193.998 L 246.602, 216.593 L 232.833, 232.657 L 186.937, 210.062 z "/>
<path style="fill:rgb(255, 255, 0);fill-opacity:0;fill-rule:evenodd;stroke:rgb(8, 255, 0);stroke-width:1;" d="M 177.229, 456.487 L 191.703, 438.482 L 231.244, 466.549 L 217.476, 484.025 L 211.827, 481.377 L 214.475, 478.023 L 194.175, 468.844 L 196.823, 465.49 L 177.229, 456.487 z "/>
<path style="fill:rgb(255, 0, 0);fill-opacity:0;fill-rule:evenodd;stroke:rgb(8, 255, 0);stroke-width:1;" d="M 372.462, 588.173 L 383.407, 575.287 L 438.482, 615.004 L 427.361, 629.126 L 405.119, 619.064 L 414.475, 607.061 L 372.462, 588.173 z "/>
<path style="fill:rgb(0, 255, 0);fill-opacity:0;fill-rule:evenodd;stroke:rgb(8, 255, 0);stroke-width:1;" d="M 322.154, 267.255 L 334.157, 252.957 L 337.158, 254.369 L 384.996, 277.846 L 372.992, 292.145 L 322.154, 267.255 z "/>
<path style="fill:rgb(0, 0, 255);fill-opacity:0;fill-rule:evenodd;stroke:rgb(8, 255, 0);stroke-width:1;" d="M 585.349, 490.38 L 619.064, 450.662 L 627.184, 441.13 L 641.836, 448.367 L 599.823, 497.44 L 585.349, 490.38 z "/>
<path style="fill:rgb(255, 255, 0);fill-opacity:0;fill-rule:evenodd;stroke:rgb(8, 255, 0);stroke-width:1;" d="M 655.958, 704.501 L 691.615, 664.96 L 712.445, 675.728 L 667.785, 712.798 L 655.958, 704.501 z "/>
<path style="fill:rgb(255, 0, 0);fill-opacity:0;fill-rule:evenodd;stroke:rgb(8, 255, 0);stroke-width:1;" d="M 460.371, 77.4934 L 469.373, 66.7255 L 473.61, 61.7829 L 485.966, 67.9612 L 512.798, 81.0238 L 514.74, 82.083 L 539.629, 94.263 L 531.509, 103.795 L 480.318, 78.729 L 478.023, 77.4934 L 472.727, 83.6717 L 471.139, 82.7891 L 460.371, 77.4934 z "/>
<path style="fill:rgb(0, 255, 0);fill-opacity:0;fill-rule:evenodd;stroke:rgb(8, 255, 0);stroke-width:1;" d="M 512.974, 421.359 L 524.448, 407.944 L 577.052, 433.892 L 565.578, 447.308 L 554.634, 441.836 L 512.974, 421.359 z "/>
<path style="fill:rgb(0, 0, 255);fill-opacity:0;fill-rule:evenodd;stroke:rgb(8, 255, 0);stroke-width:1;" d="M 827.538, 139.629 L 840.953, 124.095 L 866.549, 94.263 L 882.083, 101.853 L 857.017, 130.98 L 843.954, 146.337 L 827.538, 139.629 z "/>
<path style="fill:rgb(255, 255, 0);fill-opacity:0;fill-rule:evenodd;stroke:rgb(8, 255, 0);stroke-width:1;" d="M 412.886, 176.346 L 436.187, 148.985 L 438.482, 146.161 L 452.427, 153.045 L 444.307, 162.577 L 457.723, 169.285 L 440.424, 189.762 L 412.886, 176.346 z "/>
<path style="fill:rgb(255, 0, 0);fill-opacity:0;fill-rule:evenodd;stroke:rgb(8, 255, 0);stroke-width:1;" d="M 691.615, 664.96 L 713.857, 640.247 L 740.159, 652.957 L 723.213, 673.433 L 724.625, 674.139 L 720.035, 679.788 L 712.445, 675.728 L 691.615, 664.96 z "/>
<path style="fill:rgb(0, 255, 0);fill-opacity:0;fill-rule:evenodd;stroke:rgb(8, 255, 0);stroke-width:1;" d="M 664.254, 244.837 L 674.846, 232.127 L 727.626, 257.546 L 717.211, 270.256 L 664.254, 244.837 z "/>
<path style="fill:rgb(0, 0, 255);fill-opacity:0;fill-rule:evenodd;stroke:rgb(8, 255, 0);stroke-width:1;" d="M 102.207, 206.178 L 111.562, 195.234 L 165.225, 221.536 L 153.575, 235.305 L 102.207, 206.178 z "/>
<path style="fill:rgb(255, 255, 0);fill-opacity:0;fill-rule:evenodd;stroke:rgb(8, 255, 0);stroke-width:1;" d="M 168.049, 128.685 L 192.939, 99.3822 L 196.823, 98.323 L 215.534, 107.502 L 188.879, 138.923 L 168.049, 128.685 z "/>
<path style="fill:rgb(255, 0, 0);fill-opacity:0;fill-rule:evenodd;stroke:rgb(8, 255, 0);stroke-width:1;" d="M 297.793, 675.905 L 307.855, 664.078 L 356.575, 686.143 L 358.341, 683.848 L 359.929, 684.554 L 364.166, 686.496 L 352.868, 700.794 L 297.793, 675.905 z "/>
<path style="fill:rgb(0, 255, 0);fill-opacity:0;fill-rule:evenodd;stroke:rgb(8, 255, 0);stroke-width:1;" d="M 786.584, 447.132 L 815.004, 413.769 L 834.245, 423.301 L 805.825, 456.664 L 786.584, 447.132 z "/>
<path style="fill:rgb(0, 0, 255);fill-opacity:0;fill-rule:evenodd;stroke:rgb(8, 255, 0);stroke-width:1;" d="M 810.062, 228.244 L 828.597, 205.825 L 845.896, 184.819 L 861.077, 191.35 L 824.89, 235.305 L 810.062, 228.244 z "/>
<path style="fill:rgb(255, 255, 0);fill-opacity:0;fill-rule:evenodd;stroke:rgb(8, 255, 0);stroke-width:1;" d="M 594.704, 325.508 L 605.119, 313.151 L 658.076, 339.1 L 650.485, 348.279 L 642.189, 344.219 L 639.365, 347.573 L 594.704, 325.508 z "/>
<path style="fill:rgb(255, 0, 0);fill-opacity:0;fill-rule:evenodd;stroke:rgb(8, 255, 0);stroke-width:1;" d="M 557.988, 365.402 L 567.343, 354.457 L 569.109, 355.516 L 624.537, 382.701 L 615.181, 393.645 L 557.988, 365.402 z "/>
<path style="fill:rgb(0, 255, 0);fill-opacity:0;fill-rule:evenodd;stroke:rgb(8, 255, 0);stroke-width:1;" d="M 730.627, 163.989 L 740.335, 152.162 L 794.175, 177.935 L 784.466, 189.762 L 730.627, 163.989 z "/>
<path style="fill:rgb(0, 0, 255);fill-opacity:0;fill-rule:evenodd;stroke:rgb(8, 255, 0);stroke-width:1;" d="M 96.7343, 445.719 L 113.504, 424.36 L 120.741, 415.357 L 134.687, 397.882 L 146.69, 406.531 L 110.503, 452.074 L 96.7343, 445.719 z "/>
<path style="fill:rgb(255, 255, 0);fill-opacity:0;fill-rule:evenodd;stroke:rgb(8, 255, 0);stroke-width:1;" d="M 781.465, 214.475 L 816.417, 172.286 L 831.774, 178.817 L 814.828, 199.294 L 796.47, 221.712 L 781.465, 214.475 z "/>
<path style="fill:rgb(255, 0, 0);fill-opacity:0;fill-rule:evenodd;stroke:rgb(8, 255, 0);stroke-width:1;" d="M 353.928, 488.438 L 369.815, 469.726 L 399.647, 484.554 L 380.406, 506.973 L 353.928, 488.438 z "/>
<path style="fill:rgb(0, 255, 0);fill-opacity:0;fill-rule:evenodd;stroke:rgb(8, 255, 0);stroke-width:1;" d="M 915.446, 578.994 L 923.919, 568.579 L 945.631, 577.229 L 986.761, 593.469 L 981.289, 604.237 L 930.45, 584.819 L 915.446, 578.994 z "/>
<path style="fill:rgb(0, 0, 255);fill-opacity:0;fill-rule:evenodd;stroke:rgb(8, 255, 0);stroke-width:1;" d="M 567.167, 189.938 L 575.993, 179.347 L 633.186, 207.59 L 624.184, 218.005 L 567.167, 189.938 z "/>
<path style="fill:rgb(255, 255, 0);fill-opacity:0;fill-rule:evenodd;stroke:rgb(8, 255, 0);stroke-width:1;" d="M 878.553, 258.605 L 914.563, 215.711 L 928.861, 221.889 L 892.321, 265.313 L 878.553, 258.605 z "/>
<path style="fill:rgb(255, 0, 0);fill-opacity:0;fill-rule:evenodd;stroke:rgb(8, 255, 0);stroke-width:1;" d="M 55.7811, 711.915 L 90.203, 668.314 L 104.325, 674.846 L 103.795, 675.552 L 69.9029, 718.447 L 55.7811, 711.915 z "/>
<path style="fill:rgb(0, 255, 0);fill-opacity:0;fill-rule:evenodd;stroke:rgb(8, 255, 0);stroke-width:1;" d="M 883.319, 619.417 L 889.673, 611.474 L 932.745, 627.891 L 960.989, 638.658 L 954.81, 648.897 L 928.155, 637.776 L 919.506, 634.245 L 883.319, 619.417 z "/>
<path style="fill:rgb(0, 0, 255);fill-opacity:0;fill-rule:evenodd;stroke:rgb(8, 255, 0);stroke-width:1;" d="M 156.752, 611.297 L 189.056, 570.168 L 203.883, 577.052 L 200.53, 581.112 L 171.403, 618.005 L 156.752, 611.297 z "/>
<path style="fill:rgb(255, 255, 0);fill-opacity:0;fill-rule:evenodd;stroke:rgb(8, 255, 0);stroke-width:1;" d="M 946.161, 291.262 L 955.34, 280.318 L 984.819, 245.366 L 997.882, 251.015 L 958.87, 297.44 L 946.161, 291.262 z "/>
<path style="fill:rgb(255, 0, 0);fill-opacity:0;fill-rule:evenodd;stroke:rgb(8, 255, 0);stroke-width:1;" d="M 558.694, 477.317 L 590.115, 440.424 L 594.528, 435.305 L 608.297, 442.012 L 606.355, 444.307 L 572.462, 484.025 L 558.694, 477.317 z "/>
<path style="fill:rgb(0, 255, 0);fill-opacity:0;fill-rule:evenodd;stroke:rgb(8, 255, 0);stroke-width:1;" d="M 311.033, 39.3645 L 317.917, 31.421 L 332.568, 38.6584 L 334.334, 36.7167 L 380.053, 59.4881 L 371.58, 69.3733 L 318.447, 42.895 L 311.033, 39.3645 z "/>
<path style="fill:rgb(0, 0, 255);fill-opacity:0;fill-rule:evenodd;stroke:rgb(8, 255, 0);stroke-width:1;" d="M 953.222, 192.763 L 984.113, 156.575 L 988.173, 151.633 L 1002.29, 158.694 L 998.411, 163.283 L 967.873, 198.941 L 953.222, 192.763 z "/>
<path style="fill:rgb(255, 255, 0);fill-opacity:0;fill-rule:evenodd;stroke:rgb(8, 255, 0);stroke-width:1;" d="M 522.33, 543.866 L 554.81, 503.442 L 569.462, 510.327 L 536.805, 550.574 L 522.33, 543.866 z "/>
<path style="fill:rgb(255, 0, 0);fill-opacity:0;fill-rule:evenodd;stroke:rgb(8, 255, 0);stroke-width:1;" d="M 575.64, 570.697 L 577.052, 568.932 L 609.356, 529.038 L 623.831, 535.746 L 593.292, 573.345 L 590.115, 571.756 L 586.761, 575.993 L 575.64, 570.697 z "/>
<path style="fill:rgb(0, 255, 0);fill-opacity:0;fill-rule:evenodd;stroke:rgb(8, 255, 0);stroke-width:1;" d="M 316.681, 653.663 L 326.743, 641.836 L 375.993, 664.078 L 366.637, 676.081 L 316.681, 653.663 z "/>
<path style="fill:rgb(0, 0, 255);fill-opacity:0;fill-rule:evenodd;stroke:rgb(8, 255, 0);stroke-width:1;" d="M 499.912, 592.056 L 538.57, 560.459 L 541.748, 562.754 L 547.396, 558.164 L 556.399, 564.695 L 512.268, 600.706 L 499.912, 592.056 z "/>
<path style="fill:rgb(255, 255, 0);fill-opacity:0;fill-rule:evenodd;stroke:rgb(8, 255, 0);stroke-width:1;" d="M 847.308, 664.784 L 872.727, 633.01 L 890.733, 640.424 L 868.138, 672.374 L 847.308, 664.784 z "/>
<path style="fill:rgb(255, 0, 0);fill-opacity:0;fill-rule:evenodd;stroke:rgb(8, 255, 0);stroke-width:1;" d="M 512.268, 600.706 L 556.399, 564.695 L 568.226, 572.992 L 524.095, 609.003 L 512.268, 600.706 z "/>
<path style="fill:rgb(0, 255, 0);fill-opacity:0;fill-rule:evenodd;stroke:rgb(8, 255, 0);stroke-width:1;" d="M 142.454, 604.766 L 174.934, 563.813 L 189.056, 570.168 L 156.752, 611.297 L 142.454, 604.766 z "/>
<path style="fill:rgb(0, 0, 255);fill-opacity:0;fill-rule:evenodd;stroke:rgb(8, 255, 0);stroke-width:1;" d="M 859.841, 482.083 L 869.02, 472.374 L 883.142, 478.906 L 900.794, 457.193 L 914.034, 463.372 L 888.085, 495.322 L 859.841, 482.083 z "/>
<path style="fill:rgb(255, 255, 0);fill-opacity:0;fill-rule:evenodd;stroke:rgb(8, 255, 0);stroke-width:1;" d="M 50.662, 651.368 L 52.0741, 649.603 L 85.4369, 607.237 L 98.6761, 613.239 L 74.316, 643.954 L 63.7246, 657.37 L 50.662, 651.368 z "/>
<path style="fill:rgb(255, 0, 0);fill-opacity:0;fill-rule:evenodd;stroke:rgb(8, 255, 0);stroke-width:1;" d="M 462.136, 100.088 L 471.492, 89.1439 L 522.683, 114.21 L 513.327, 125.154 L 462.136, 100.088 z "/>
<path style="fill:rgb(0, 255, 0);fill-opacity:0;fill-rule:evenodd;stroke:rgb(8, 255, 0);stroke-width:1;" d="M 549.691, 556.046 L 581.995, 516.152 L 596.293, 522.86 L 563.989, 562.754 L 549.691, 556.046 z "/>
<path style="fill:rgb(0, 0, 255);fill-opacity:0;fill-rule:evenodd;stroke:rgb(8, 255, 0);stroke-width:1;" d="M 756.046, 646.602 L 786.584, 610.238 L 802.118, 617.299 L 771.227, 654.016 L 756.046, 646.602 z "/>
<path style="fill:rgb(255, 255, 0);fill-opacity:0;fill-rule:evenodd;stroke:rgb(8, 255, 0);stroke-width:1;" d="M 345.631, 457.899 L 354.281, 447.661 L 408.297, 474.316 L 399.647, 484.554 L 369.815, 469.726 L 358.341, 464.078 L 345.631, 457.899 z "/>
<path style="fill:rgb(255, 0, 0);fill-opacity:0;fill-rule:evenodd;stroke:rgb(8, 255, 0);stroke-width:1;" d="M 218.711, 292.674 L 228.773, 280.847 L 275.552, 303.972 L 265.666, 315.622 L 218.711, 292.674 z "/>
<path style="fill:rgb(0, 255, 0);fill-opacity:0;fill-rule:evenodd;stroke:rgb(8, 255, 0);stroke-width:1;" d="M 64.6072, 510.856 L 94.0865, 473.257 L 109.444, 480.318 L 79.9647, 517.741 L 64.6072, 510.856 z "/>
<path style="fill:rgb(0, 0, 255);fill-opacity:0;fill-rule:evenodd;stroke:rgb(8, 255, 0);stroke-width:1;" d="M 208.826, 304.325 L 218.711, 292.674 L 265.666, 315.622 L 255.781, 327.449 L 208.826, 304.325 z "/>
<path style="fill:rgb(255, 255, 0);fill-opacity:0;fill-rule:evenodd;stroke:rgb(8, 255, 0);stroke-width:1;" d="M 741.041, 420.124 L 765.931, 390.997 L 784.643, 400.177 L 759.753, 429.303 L 741.041, 420.124 z "/>
<path style="fill:rgb(255, 0, 0);fill-opacity:0;fill-rule:evenodd;stroke:rgb(8, 255, 0);stroke-width:1;" d="M 892.851, 296.381 L 902.56, 284.907 L 911.915, 289.32 L 950.397, 308.032 L 940.865, 319.682 L 894.44, 297.087 L 892.851, 296.381 z "/>
<path style="fill:rgb(0, 255, 0);fill-opacity:0;fill-rule:evenodd;stroke:rgb(8, 255, 0);stroke-width:1;" d="M 337.158, 254.369 L 346.69, 242.895 L 394.704, 266.549 L 384.996, 277.846 L 337.158, 254.369 z "/>
<path style="fill:rgb(0, 0, 255);fill-opacity:0;fill-rule:evenodd;stroke:rgb(8, 255, 0);stroke-width:1;" d="M 354.281, 447.661 L 362.93, 437.599 L 416.77, 464.254 L 408.297, 474.316 L 354.281, 447.661 z "/>
<path style="fill:rgb(255, 255, 0);fill-opacity:0;fill-rule:evenodd;stroke:rgb(8, 255, 0);stroke-width:1;" d="M 508.385, 537.335 L 541.041, 496.911 L 554.81, 503.442 L 522.33, 543.866 L 508.385, 537.335 z "/>
<path style="fill:rgb(255, 0, 0);fill-opacity:0;fill-rule:evenodd;stroke:rgb(8, 255, 0);stroke-width:1;" d="M 678.199, 222.595 L 687.026, 211.827 L 737.688, 236.011 L 738.041, 236.187 L 729.214, 246.955 L 678.199, 222.595 z "/>
<path style="fill:rgb(0, 255, 0);fill-opacity:0;fill-rule:evenodd;stroke:rgb(8, 255, 0);stroke-width:1;" d="M 911.033, 591.174 L 913.68, 587.467 L 925.684, 592.056 L 930.45, 584.819 L 981.289, 604.237 L 974.581, 615.534 L 930.98, 598.764 L 911.033, 591.174 z "/>
<path style="fill:rgb(0, 0, 255);fill-opacity:0;fill-rule:evenodd;stroke:rgb(8, 255, 0);stroke-width:1;" d="M 221.183, 612.18 L 230.009, 600.883 L 279.788, 623.477 L 270.786, 634.775 L 221.183, 612.18 z "/>
<path style="fill:rgb(255, 255, 0);fill-opacity:0;fill-rule:evenodd;stroke:rgb(8, 255, 0);stroke-width:1;" d="M 471.492, 89.1439 L 480.318, 78.729 L 531.509, 103.795 L 522.683, 114.21 L 471.492, 89.1439 z "/>
<path style="fill:rgb(255, 0, 0);fill-opacity:0;fill-rule:evenodd;stroke:rgb(8, 255, 0);stroke-width:1;" d="M 740.335, 152.162 L 747.926, 143.16 L 803.53, 166.814 L 794.175, 177.935 L 740.335, 152.162 z "/>
<path style="fill:rgb(0, 255, 0);fill-opacity:0;fill-rule:evenodd;stroke:rgb(8, 255, 0);stroke-width:1;" d="M 137.688, 464.607 L 170.344, 423.301 L 182.348, 431.774 L 166.637, 451.721 L 151.456, 470.786 L 137.688, 464.607 z "/>
<path style="fill:rgb(0, 0, 255);fill-opacity:0;fill-rule:evenodd;stroke:rgb(8, 255, 0);stroke-width:1;" d="M 70.962, 572.109 L 102.383, 532.392 L 116.152, 538.57 L 84.7308, 578.464 L 70.962, 572.109 z "/>
<path style="fill:rgb(255, 255, 0);fill-opacity:0;fill-rule:evenodd;stroke:rgb(8, 255, 0);stroke-width:1;" d="M 434.598, 129.391 L 443.071, 119.506 L 445.013, 120.388 L 496.205, 145.455 L 487.732, 155.34 L 461.43, 142.454 L 439.894, 132.039 L 434.598, 129.391 z "/>
<path style="fill:rgb(255, 0, 0);fill-opacity:0;fill-rule:evenodd;stroke:rgb(8, 255, 0);stroke-width:1;" d="M 432.833, 736.452 L 464.607, 696.734 L 477.67, 704.148 L 446.955, 742.63 L 432.833, 736.452 z "/>
<path style="fill:rgb(0, 255, 0);fill-opacity:0;fill-rule:evenodd;stroke:rgb(8, 255, 0);stroke-width:1;" d="M 252.074, 97.0874 L 284.554, 59.135 L 298.323, 66.0194 L 276.787, 91.0856 L 265.843, 103.972 L 252.074, 97.0874 z "/>
<path style="fill:rgb(0, 0, 255);fill-opacity:0;fill-rule:evenodd;stroke:rgb(8, 255, 0);stroke-width:1;" d="M 108.208, 670.962 L 139.276, 631.774 L 153.222, 638.129 L 122.154, 677.493 L 108.208, 670.962 z "/>
<path style="fill:rgb(255, 255, 0);fill-opacity:0;fill-rule:evenodd;stroke:rgb(8, 255, 0);stroke-width:1;" d="M 30.1853, 553.575 L 61.6064, 513.68 L 75.3751, 520.035 L 43.9541, 559.753 L 30.1853, 553.575 z "/>
<path style="fill:rgb(255, 0, 0);fill-opacity:0;fill-rule:evenodd;stroke:rgb(8, 255, 0);stroke-width:1;" d="M 424.007, 365.578 L 432.304, 355.693 L 485.26, 381.818 L 476.964, 391.703 L 424.007, 365.578 z "/>
<path style="fill:rgb(0, 255, 0);fill-opacity:0;fill-rule:evenodd;stroke:rgb(8, 255, 0);stroke-width:1;" d="M 78.376, 101.147 L 86.6726, 91.4387 L 140.512, 117.387 L 132.215, 127.273 L 78.376, 101.147 z "/>
<path style="fill:rgb(0, 0, 255);fill-opacity:0;fill-rule:evenodd;stroke:rgb(8, 255, 0);stroke-width:1;" d="M 82.083, 724.095 L 115.975, 681.2 L 128.685, 687.026 L 94.7926, 729.744 L 82.083, 724.095 z "/>
<path style="fill:rgb(255, 255, 0);fill-opacity:0;fill-rule:evenodd;stroke:rgb(8, 255, 0);stroke-width:1;" d="M 122.154, 677.493 L 153.222, 638.129 L 166.99, 644.484 L 136.628, 682.789 L 135.922, 683.672 L 122.154, 677.493 z "/>
<path style="fill:rgb(255, 0, 0);fill-opacity:0;fill-rule:evenodd;stroke:rgb(8, 255, 0);stroke-width:1;" d="M 210.238, 175.463 L 218.888, 165.225 L 229.832, 170.521 L 242.365, 176.699 L 269.197, 189.762 L 260.371, 200.177 L 212.004, 176.346 L 210.238, 175.463 z "/>
<path style="fill:rgb(0, 255, 0);fill-opacity:0;fill-rule:evenodd;stroke:rgb(8, 255, 0);stroke-width:1;" d="M 517.564, 165.402 L 526.567, 154.987 L 575.993, 179.347 L 567.167, 189.938 L 517.564, 165.402 z "/>
<path style="fill:rgb(0, 0, 255);fill-opacity:0;fill-rule:evenodd;stroke:rgb(8, 255, 0);stroke-width:1;" d="M 43.9541, 559.753 L 75.3751, 520.035 L 88.9673, 526.214 L 57.5463, 565.931 L 43.9541, 559.753 z "/>
<path style="fill:rgb(255, 255, 0);fill-opacity:0;fill-rule:evenodd;stroke:rgb(8, 255, 0);stroke-width:1;" d="M 768.932, 208.473 L 784.466, 189.762 L 794.175, 177.935 L 803.53, 166.814 L 816.417, 172.286 L 781.465, 214.475 L 768.932, 208.473 z "/>
<path style="fill:rgb(255, 0, 0);fill-opacity:0;fill-rule:evenodd;stroke:rgb(8, 255, 0);stroke-width:1;" d="M 71.3151, 109.797 L 76.4342, 103.442 L 78.376, 101.147 L 132.215, 127.273 L 124.095, 136.981 L 123.566, 136.805 L 85.2604, 118.094 L 76.0812, 113.68 L 76.9638, 112.621 L 71.3151, 109.797 z "/>
<path style="fill:rgb(0, 255, 0);fill-opacity:0;fill-rule:evenodd;stroke:rgb(8, 255, 0);stroke-width:1;" d="M 57.5463, 565.931 L 88.9673, 526.214 L 102.383, 532.392 L 70.962, 572.109 L 57.5463, 565.931 z "/>
<path style="fill:rgb(0, 0, 255);fill-opacity:0;fill-rule:evenodd;stroke:rgb(8, 255, 0);stroke-width:1;" d="M 144.042, 156.929 L 152.515, 146.867 L 204.237, 172.286 L 195.94, 182.348 L 144.042, 156.929 z "/>
<path style="fill:rgb(255, 255, 0);fill-opacity:0;fill-rule:evenodd;stroke:rgb(8, 255, 0);stroke-width:1;" d="M 50.3089, 504.325 L 57.7229, 494.969 L 62.6655, 488.614 L 79.9647, 466.726 L 94.0865, 473.257 L 64.6072, 510.856 L 50.3089, 504.325 z "/>
<path style="fill:rgb(255, 0, 0);fill-opacity:0;fill-rule:evenodd;stroke:rgb(8, 255, 0);stroke-width:1;" d="M 676.964, 66.549 L 688.967, 52.7802 L 706.796, 61.7829 L 701.147, 68.1377 L 736.981, 86.3195 L 730.803, 93.5569 L 676.964, 66.549 z "/>
<path style="fill:rgb(0, 255, 0);fill-opacity:0;fill-rule:evenodd;stroke:rgb(8, 255, 0);stroke-width:1;" d="M 159.753, 553.575 L 189.056, 516.681 L 203.354, 523.213 L 174.228, 560.282 L 159.753, 553.575 z "/>
<path style="fill:rgb(0, 0, 255);fill-opacity:0;fill-rule:evenodd;stroke:rgb(8, 255, 0);stroke-width:1;" d="M 89.1439, 298.5 L 118.623, 261.43 L 131.686, 269.197 L 125.684, 276.787 L 112.798, 293.204 L 101.677, 307.326 L 89.1439, 298.5 z "/>
<path style="fill:rgb(255, 255, 0);fill-opacity:0;fill-rule:evenodd;stroke:rgb(8, 255, 0);stroke-width:1;" d="M 572.462, 484.025 L 606.355, 444.307 L 619.064, 450.662 L 585.349, 490.38 L 572.462, 484.025 z "/>
<path style="fill:rgb(255, 0, 0);fill-opacity:0;fill-rule:evenodd;stroke:rgb(8, 255, 0);stroke-width:1;" d="M 307.855, 664.078 L 316.681, 653.663 L 366.637, 676.081 L 359.929, 684.554 L 358.341, 683.848 L 356.575, 686.143 L 307.855, 664.078 z "/>
<path style="fill:rgb(0, 255, 0);fill-opacity:0;fill-rule:evenodd;stroke:rgb(8, 255, 0);stroke-width:1;" d="M 792.763, 89.1439 L 801.412, 79.2586 L 852.074, 104.325 L 843.425, 114.387 L 836.717, 111.033 L 792.763, 89.1439 z "/>
<path style="fill:rgb(0, 0, 255);fill-opacity:0;fill-rule:evenodd;stroke:rgb(8, 255, 0);stroke-width:1;" d="M 563.989, 562.754 L 596.293, 522.86 L 609.356, 529.038 L 577.052, 568.932 L 563.989, 562.754 z "/>
<path style="fill:rgb(255, 255, 0);fill-opacity:0;fill-rule:evenodd;stroke:rgb(8, 255, 0);stroke-width:1;" d="M 910.503, 174.934 L 941.748, 138.217 L 955.693, 144.925 L 924.978, 180.936 L 910.503, 174.934 z "/>
<path style="fill:rgb(255, 0, 0);fill-opacity:0;fill-rule:evenodd;stroke:rgb(8, 255, 0);stroke-width:1;" d="M 118.447, 534.863 L 121.271, 531.333 L 147.749, 497.793 L 162.048, 504.325 L 132.745, 541.395 L 118.447, 534.863 z "/>
<path style="fill:rgb(0, 255, 0);fill-opacity:0;fill-rule:evenodd;stroke:rgb(8, 255, 0);stroke-width:1;" d="M 94.7926, 664.96 L 103.795, 653.663 L 125.861, 625.596 L 139.276, 631.774 L 108.208, 670.962 L 94.7926, 664.96 z "/>
<path style="fill:rgb(0, 0, 255);fill-opacity:0;fill-rule:evenodd;stroke:rgb(8, 255, 0);stroke-width:1;" d="M 69.9029, 718.447 L 103.795, 675.552 L 115.975, 681.2 L 82.083, 724.095 L 69.9029, 718.447 z "/>
<path style="fill:rgb(255, 255, 0);fill-opacity:0;fill-rule:evenodd;stroke:rgb(8, 255, 0);stroke-width:1;" d="M 801.412, 79.2586 L 809.532, 69.7264 L 861.959, 95.6752 L 853.839, 105.207 L 852.074, 104.325 L 801.412, 79.2586 z "/>
<path style="fill:rgb(255, 0, 0);fill-opacity:0;fill-rule:evenodd;stroke:rgb(8, 255, 0);stroke-width:1;" d="M 229.832, 170.521 L 263.372, 130.98 L 275.905, 137.158 L 242.365, 176.699 L 229.832, 170.521 z "/>
<path style="fill:rgb(0, 255, 0);fill-opacity:0;fill-rule:evenodd;stroke:rgb(8, 255, 0);stroke-width:1;" d="M 154.281, 694.793 L 162.401, 684.554 L 163.636, 685.084 L 210.415, 706.62 L 201.412, 717.387 L 162.754, 699.735 L 163.46, 698.853 L 154.281, 694.793 z "/>
<path style="fill:rgb(0, 0, 255);fill-opacity:0;fill-rule:evenodd;stroke:rgb(8, 255, 0);stroke-width:1;" d="M 206.355, 159.047 L 239.894, 119.506 L 252.427, 125.684 L 218.888, 165.225 L 216.417, 163.989 L 206.355, 159.047 z "/>
<path style="fill:rgb(255, 255, 0);fill-opacity:0;fill-rule:evenodd;stroke:rgb(8, 255, 0);stroke-width:1;" d="M 174.228, 560.282 L 203.354, 523.213 L 217.299, 529.568 L 188.173, 566.637 L 174.228, 560.282 z "/>
<path style="fill:rgb(255, 0, 0);fill-opacity:0;fill-rule:evenodd;stroke:rgb(8, 255, 0);stroke-width:1;" d="M 949.868, 128.685 L 958.517, 118.623 L 1007.24, 142.63 L 998.588, 152.692 L 964.872, 135.922 L 949.868, 128.685 z "/>
<path style="fill:rgb(0, 255, 0);fill-opacity:0;fill-rule:evenodd;stroke:rgb(8, 255, 0);stroke-width:1;" d="M 225.596, 506.443 L 247.838, 478.553 L 264.254, 490.203 L 243.778, 515.975 L 225.596, 506.443 z "/>
<path style="fill:rgb(0, 0, 255);fill-opacity:0;fill-rule:evenodd;stroke:rgb(8, 255, 0);stroke-width:1;" d="M 344.219, 241.659 L 352.339, 232.127 L 359.047, 235.481 L 402.824, 257.017 L 394.704, 266.549 L 346.69, 242.895 L 344.219, 241.659 z "/>
<path style="fill:rgb(255, 255, 0);fill-opacity:0;fill-rule:evenodd;stroke:rgb(8, 255, 0);stroke-width:1;" d="M 446.955, 742.63 L 477.67, 704.148 L 490.203, 711.386 L 485.437, 717.211 L 459.841, 748.455 L 446.955, 742.63 z "/>
<path style="fill:rgb(255, 0, 0);fill-opacity:0;fill-rule:evenodd;stroke:rgb(8, 255, 0);stroke-width:1;" d="M 146.161, 547.396 L 175.463, 510.503 L 189.056, 516.681 L 159.753, 553.575 L 146.161, 547.396 z "/>
<path style="fill:rgb(0, 255, 0);fill-opacity:0;fill-rule:evenodd;stroke:rgb(8, 255, 0);stroke-width:1;" d="M 234.951, 273.61 L 243.601, 263.372 L 288.967, 285.613 L 290.556, 286.32 L 281.906, 296.558 L 234.951, 273.61 z "/>
<path style="fill:rgb(0, 0, 255);fill-opacity:0;fill-rule:evenodd;stroke:rgb(8, 255, 0);stroke-width:1;" d="M 132.745, 541.395 L 162.048, 504.325 L 175.463, 510.503 L 146.161, 547.396 L 132.745, 541.395 z "/>
<path style="fill:rgb(255, 255, 0);fill-opacity:0;fill-rule:evenodd;stroke:rgb(8, 255, 0);stroke-width:1;" d="M 586.231, 335.393 L 594.704, 325.508 L 639.365, 347.573 L 642.718, 349.162 L 634.245, 359.047 L 630.538, 357.282 L 586.231, 335.393 z "/>
<path style="fill:rgb(255, 0, 0);fill-opacity:0;fill-rule:evenodd;stroke:rgb(8, 255, 0);stroke-width:1;" d="M 885.79, 307.502 L 894.44, 297.087 L 940.865, 319.682 L 932.039, 330.097 L 885.79, 307.502 z "/>
<path style="fill:rgb(0, 255, 0);fill-opacity:0;fill-rule:evenodd;stroke:rgb(8, 255, 0);stroke-width:1;" d="M 305.207, 294.969 L 314.034, 284.731 L 360.106, 307.326 L 351.28, 317.741 L 305.207, 294.969 z "/>
<path style="fill:rgb(0, 0, 255);fill-opacity:0;fill-rule:evenodd;stroke:rgb(8, 255, 0);stroke-width:1;" d="M 362.577, 599.823 L 372.462, 588.173 L 414.475, 607.061 L 405.119, 619.064 L 362.577, 599.823 z "/>
<path style="fill:rgb(255, 255, 0);fill-opacity:0;fill-rule:evenodd;stroke:rgb(8, 255, 0);stroke-width:1;" d="M 326.743, 641.836 L 335.216, 631.951 L 383.936, 653.839 L 375.993, 664.078 L 326.743, 641.836 z "/>
<path style="fill:rgb(255, 0, 0);fill-opacity:0;fill-rule:evenodd;stroke:rgb(8, 255, 0);stroke-width:1;" d="M 910.503, 41.6593 L 918.094, 32.8332 L 971.403, 59.135 L 963.989, 68.1377 L 921.271, 46.955 L 910.503, 41.6593 z "/>
<path style="fill:rgb(0, 255, 0);fill-opacity:0;fill-rule:evenodd;stroke:rgb(8, 255, 0);stroke-width:1;" d="M 962.048, 568.226 L 972.816, 552.868 L 982.524, 556.752 L 980.406, 559.753 L 984.996, 561.695 L 988.879, 556.222 L 1002.29, 561.695 L 992.586, 584.643 L 991.527, 584.113 L 978.464, 578.817 L 980.583, 575.816 L 979.347, 574.051 L 977.229, 574.404 L 962.048, 568.226 z "/>
<path style="fill:rgb(0, 0, 255);fill-opacity:0;fill-rule:evenodd;stroke:rgb(8, 255, 0);stroke-width:1;" d="M 95.3222, 402.824 L 112.621, 382.348 L 134.687, 397.882 L 120.741, 415.357 L 95.3222, 402.824 z "/>
<path style="fill:rgb(255, 255, 0);fill-opacity:0;fill-rule:evenodd;stroke:rgb(8, 255, 0);stroke-width:1;" d="M 577.229, 345.984 L 586.231, 335.393 L 630.538, 357.282 L 621.536, 367.873 L 577.229, 345.984 z "/>
<path style="fill:rgb(255, 0, 0);fill-opacity:0;fill-rule:evenodd;stroke:rgb(8, 255, 0);stroke-width:1;" d="M 163.636, 685.084 L 171.756, 674.846 L 219.064, 696.381 L 210.415, 706.62 L 163.636, 685.084 z "/>
<path style="fill:rgb(0, 255, 0);fill-opacity:0;fill-rule:evenodd;stroke:rgb(8, 255, 0);stroke-width:1;" d="M 79.9647, 517.741 L 109.444, 480.318 L 122.33, 486.143 L 95.8517, 519.859 L 92.8508, 523.566 L 79.9647, 517.741 z "/>
<path style="fill:rgb(0, 0, 255);fill-opacity:0;fill-rule:evenodd;stroke:rgb(8, 255, 0);stroke-width:1;" d="M 213.416, 388.35 L 252.604, 354.104 L 264.607, 360.106 L 263.725, 360.812 L 252.427, 370.697 L 240.6, 381.112 L 223.831, 395.763 L 213.416, 388.35 z "/>
<path style="fill:rgb(255, 255, 0);fill-opacity:0;fill-rule:evenodd;stroke:rgb(8, 255, 0);stroke-width:1;" d="M 477.14, 575.816 L 481.2, 572.462 L 512.621, 546.867 L 524.625, 555.34 L 488.967, 584.289 L 477.14, 575.816 z "/>
<path style="fill:rgb(255, 0, 0);fill-opacity:0;fill-rule:evenodd;stroke:rgb(8, 255, 0);stroke-width:1;" d="M 628.42, 506.267 L 656.84, 473.08 L 670.609, 479.788 L 642.189, 512.974 L 628.42, 506.267 z "/>
<path style="fill:rgb(0, 255, 0);fill-opacity:0;fill-rule:evenodd;stroke:rgb(8, 255, 0);stroke-width:1;" d="M 604.59, 666.196 L 636.54, 639.894 L 647.838, 646.602 L 619.947, 676.964 L 604.59, 666.196 z "/>
<path style="fill:rgb(0, 0, 255);fill-opacity:0;fill-rule:evenodd;stroke:rgb(8, 255, 0);stroke-width:1;" d="M 489.144, 704.678 L 523.919, 676.434 L 535.922, 684.907 L 500.971, 713.327 L 489.144, 704.678 z "/>
<path style="fill:rgb(255, 255, 0);fill-opacity:0;fill-rule:evenodd;stroke:rgb(8, 255, 0);stroke-width:1;" d="M 206.002, 383.054 L 237.07, 346.514 L 239.541, 347.749 L 248.72, 352.162 L 252.604, 354.104 L 213.416, 388.35 L 206.002, 383.054 z "/>
<path style="fill:rgb(255, 0, 0);fill-opacity:0;fill-rule:evenodd;stroke:rgb(8, 255, 0);stroke-width:1;" d="M 671.492, 230.538 L 678.199, 222.595 L 729.214, 246.955 L 734.334, 249.426 L 727.626, 257.546 L 674.846, 232.127 L 671.492, 230.538 z "/>
<path style="fill:rgb(0, 255, 0);fill-opacity:0;fill-rule:evenodd;stroke:rgb(8, 255, 0);stroke-width:1;" d="M 195.41, 375.463 L 226.655, 338.747 L 227.008, 338.923 L 228.42, 342.101 L 237.07, 346.514 L 206.002, 383.054 L 195.41, 375.463 z "/>
<path style="fill:rgb(0, 0, 255);fill-opacity:0;fill-rule:evenodd;stroke:rgb(8, 255, 0);stroke-width:1;" d="M 923.566, 610.062 L 930.98, 598.764 L 974.581, 615.534 L 967.873, 627.008 L 940.159, 616.417 L 923.566, 610.062 z "/>
<path style="fill:rgb(255, 255, 0);fill-opacity:0;fill-rule:evenodd;stroke:rgb(8, 255, 0);stroke-width:1;" d="M 712.445, 407.767 L 738.57, 377.405 L 752.692, 384.289 L 726.567, 414.828 L 712.445, 407.767 z "/>
<path style="fill:rgb(255, 0, 0);fill-opacity:0;fill-rule:evenodd;stroke:rgb(8, 255, 0);stroke-width:1;" d="M 806.355, 298.676 L 815.711, 287.555 L 853.31, 306.09 L 855.075, 306.973 L 845.719, 318.094 L 834.422, 312.445 L 806.355, 298.676 z "/>
<path style="fill:rgb(0, 255, 0);fill-opacity:0;fill-rule:evenodd;stroke:rgb(8, 255, 0);stroke-width:1;" d="M 420.124, 57.8994 L 429.126, 47.1315 L 453.486, 58.9585 L 455.428, 60.0177 L 469.373, 66.7255 L 460.371, 77.4934 L 420.124, 57.8994 z "/>
<path style="fill:rgb(0, 0, 255);fill-opacity:0;fill-rule:evenodd;stroke:rgb(8, 255, 0);stroke-width:1;" d="M 889.673, 611.474 L 898.5, 600.353 L 923.566, 610.062 L 940.159, 616.417 L 932.745, 627.891 L 889.673, 611.474 z "/>
<path style="fill:rgb(255, 255, 0);fill-opacity:0;fill-rule:evenodd;stroke:rgb(8, 255, 0);stroke-width:1;" d="M 218.888, 165.225 L 252.427, 125.684 L 263.372, 130.98 L 229.832, 170.521 L 218.888, 165.225 z "/>
<path style="fill:rgb(255, 0, 0);fill-opacity:0;fill-rule:evenodd;stroke:rgb(8, 255, 0);stroke-width:1;" d="M 201.236, 313.327 L 208.826, 304.325 L 255.781, 327.449 L 256.487, 327.802 L 248.897, 336.628 L 201.236, 313.327 z "/>
<path style="fill:rgb(0, 255, 0);fill-opacity:0;fill-rule:evenodd;stroke:rgb(8, 255, 0);stroke-width:1;" d="M 962.224, 779.347 L 968.226, 769.285 L 970.521, 767.873 L 979.876, 751.809 L 980.229, 749.868 L 981.642, 747.749 L 986.761, 739.276 L 1000.53, 744.219 L 994.175, 754.457 L 991.527, 755.693 L 986.937, 762.93 L 984.643, 762.048 L 981.465, 767.343 L 983.76, 768.049 L 981.465, 771.756 L 982.171, 774.228 L 975.816, 784.289 L 962.224, 779.347 z "/>
<path style="fill:rgb(0, 0, 255);fill-opacity:0;fill-rule:evenodd;stroke:rgb(8, 255, 0);stroke-width:1;" d="M 198.588, 192.939 L 206.002, 184.289 L 253.839, 207.944 L 246.602, 216.593 L 200.53, 193.998 L 198.588, 192.939 z "/>
<path style="fill:rgb(255, 255, 0);fill-opacity:0;fill-rule:evenodd;stroke:rgb(8, 255, 0);stroke-width:1;" d="M 911.915, 289.32 L 920.918, 278.906 L 946.161, 291.262 L 958.87, 297.44 L 960.635, 298.323 L 951.809, 308.738 L 950.397, 308.032 L 911.915, 289.32 z "/>
<path style="fill:rgb(255, 0, 0);fill-opacity:0;fill-rule:evenodd;stroke:rgb(8, 255, 0);stroke-width:1;" d="M 343.16, 370.521 L 363.636, 346.337 L 380.583, 354.634 L 360.106, 378.817 L 343.16, 370.521 z "/>
<path style="fill:rgb(0, 255, 0);fill-opacity:0;fill-rule:evenodd;stroke:rgb(8, 255, 0);stroke-width:1;" d="M 726.567, 414.828 L 752.692, 384.289 L 765.931, 390.997 L 741.041, 420.124 L 739.982, 421.359 L 726.567, 414.828 z "/>
<path style="fill:rgb(0, 0, 255);fill-opacity:0;fill-rule:evenodd;stroke:rgb(8, 255, 0);stroke-width:1;" d="M 101.677, 307.326 L 112.798, 293.204 L 125.684, 276.787 L 138.923, 282.789 L 112.974, 315.446 L 101.677, 307.326 z "/>
<path style="fill:rgb(255, 255, 0);fill-opacity:0;fill-rule:evenodd;stroke:rgb(8, 255, 0);stroke-width:1;" d="M 370.697, 338.217 L 378.288, 329.038 L 424.713, 351.986 L 421.889, 355.34 L 418.005, 353.398 L 413.063, 359.047 L 401.942, 353.575 L 370.697, 338.217 z "/>
<path style="fill:rgb(255, 0, 0);fill-opacity:0;fill-rule:evenodd;stroke:rgb(8, 255, 0);stroke-width:1;" d="M 815.711, 287.555 L 824.537, 277.14 L 852.427, 290.909 L 862.136, 295.675 L 853.31, 306.09 L 815.711, 287.555 z "/>
<path style="fill:rgb(0, 255, 0);fill-opacity:0;fill-rule:evenodd;stroke:rgb(8, 255, 0);stroke-width:1;" d="M 185.878, 368.756 L 215.887, 333.451 L 226.655, 338.747 L 195.41, 375.463 L 185.878, 368.756 z "/>
<path style="fill:rgb(0, 0, 255);fill-opacity:0;fill-rule:evenodd;stroke:rgb(8, 255, 0);stroke-width:1;" d="M 459.841, 748.455 L 485.437, 717.211 L 497.44, 723.036 L 473.257, 754.457 L 459.841, 748.455 z "/>
<path style="fill:rgb(255, 255, 0);fill-opacity:0;fill-rule:evenodd;stroke:rgb(8, 255, 0);stroke-width:1;" d="M 261.783, 376.876 L 273.08, 366.99 L 275.199, 365.225 L 300.441, 377.582 L 286.849, 393.469 L 270.962, 383.054 L 261.783, 376.876 z "/>
<path style="fill:rgb(255, 0, 0);fill-opacity:0;fill-rule:evenodd;stroke:rgb(8, 255, 0);stroke-width:1;" d="M 874.316, 329.921 L 882.259, 320.212 L 890.733, 324.272 L 900.088, 328.861 L 896.911, 332.568 L 901.853, 335.04 L 905.031, 331.333 L 909.797, 333.628 L 923.389, 340.335 L 915.446, 349.868 L 874.316, 329.921 z "/>
<path style="fill:rgb(0, 255, 0);fill-opacity:0;fill-rule:evenodd;stroke:rgb(8, 255, 0);stroke-width:1;" d="M 876.787, 317.564 L 885.26, 307.326 L 885.79, 307.502 L 932.039, 330.097 L 923.389, 340.335 L 909.797, 333.628 L 914.387, 328.155 L 895.322, 318.8 L 890.733, 324.272 L 882.259, 320.212 L 876.787, 317.564 z "/>
<path style="fill:rgb(0, 0, 255);fill-opacity:0;fill-rule:evenodd;stroke:rgb(8, 255, 0);stroke-width:1;" d="M 205.472, 184.113 L 212.004, 176.346 L 260.371, 200.177 L 253.839, 207.944 L 206.002, 184.289 L 205.472, 184.113 z "/>
<path style="fill:rgb(255, 255, 0);fill-opacity:0;fill-rule:evenodd;stroke:rgb(8, 255, 0);stroke-width:1;" d="M 939.806, 548.985 L 956.399, 528.332 L 974.228, 535.393 L 966.284, 547.043 L 959.576, 556.752 L 939.806, 548.985 z "/>
<path style="fill:rgb(255, 0, 0);fill-opacity:0;fill-rule:evenodd;stroke:rgb(8, 255, 0);stroke-width:1;" d="M 78.9056, 437.599 L 90.203, 424.007 L 96.9109, 416.24 L 113.504, 424.36 L 96.7343, 445.719 L 78.9056, 437.599 z "/>
<path style="fill:rgb(0, 255, 0);fill-opacity:0;fill-rule:evenodd;stroke:rgb(8, 255, 0);stroke-width:1;" d="M 862.842, 739.276 L 871.668, 724.801 L 886.849, 730.097 L 900.794, 735.04 L 891.968, 749.515 L 862.842, 739.276 z "/>
<path style="fill:rgb(0, 0, 255);fill-opacity:0;fill-rule:evenodd;stroke:rgb(8, 255, 0);stroke-width:1;" d="M 627.714, 577.229 L 651.015, 548.455 L 663.725, 554.457 L 640.424, 583.23 L 627.714, 577.229 z "/>
<path style="fill:rgb(255, 255, 0);fill-opacity:0;fill-rule:evenodd;stroke:rgb(8, 255, 0);stroke-width:1;" d="M 73.7864, 404.943 L 81.0238, 395.763 L 95.3222, 402.824 L 120.741, 415.357 L 113.504, 424.36 L 96.9109, 416.24 L 73.7864, 404.943 z "/>
<path style="fill:rgb(255, 0, 0);fill-opacity:0;fill-rule:evenodd;stroke:rgb(8, 255, 0);stroke-width:1;" d="M 594.175, 658.782 L 625.419, 633.186 L 636.54, 639.894 L 604.59, 666.196 L 594.175, 658.782 z "/>
<path style="fill:rgb(0, 255, 0);fill-opacity:0;fill-rule:evenodd;stroke:rgb(8, 255, 0);stroke-width:1;" d="M 335.922, 209.003 L 361.165, 179.17 L 372.816, 184.819 L 360.812, 199.117 L 349.162, 212.71 L 347.573, 214.651 L 335.922, 209.003 z "/>
<path style="fill:rgb(0, 0, 255);fill-opacity:0;fill-rule:evenodd;stroke:rgb(8, 255, 0);stroke-width:1;" d="M 228.773, 280.847 L 234.951, 273.61 L 281.906, 296.558 L 275.552, 303.972 L 228.773, 280.847 z "/>
<path style="fill:rgb(255, 255, 0);fill-opacity:0;fill-rule:evenodd;stroke:rgb(8, 255, 0);stroke-width:1;" d="M 976.169, 380.406 L 984.466, 370.521 L 990.468, 373.345 L 1019.06, 387.29 L 1010.59, 397.176 L 982.701, 383.583 L 976.169, 380.406 z "/>
<path style="fill:rgb(255, 0, 0);fill-opacity:0;fill-rule:evenodd;stroke:rgb(8, 255, 0);stroke-width:1;" d="M 766.99, 437.423 L 769.638, 434.245 L 794.528, 405.119 L 795.41, 404.06 L 805.472, 409.003 L 776.876, 442.365 L 766.99, 437.423 z "/>
<path style="fill:rgb(0, 255, 0);fill-opacity:0;fill-rule:evenodd;stroke:rgb(8, 255, 0);stroke-width:1;" d="M 303.442, 192.939 L 328.685, 163.107 L 339.806, 168.579 L 315.975, 196.646 L 314.387, 198.411 L 303.442, 192.939 z "/>
<path style="fill:rgb(0, 0, 255);fill-opacity:0;fill-rule:evenodd;stroke:rgb(8, 255, 0);stroke-width:1;" d="M 945.631, 577.229 L 951.986, 568.049 L 978.464, 578.817 L 991.527, 584.113 L 986.761, 593.469 L 945.631, 577.229 z "/>
<path style="fill:rgb(255, 255, 0);fill-opacity:0;fill-rule:evenodd;stroke:rgb(8, 255, 0);stroke-width:1;" d="M 62.3124, 68.3142 L 83.8482, 42.5419 L 96.7343, 48.7202 L 96.0282, 49.2498 L 75.0221, 74.4925 L 62.3124, 68.3142 z "/>
<path style="fill:rgb(255, 0, 0);fill-opacity:0;fill-rule:evenodd;stroke:rgb(8, 255, 0);stroke-width:1;" d="M 647.838, 53.4863 L 666.196, 32.3036 L 684.731, 41.6593 L 677.846, 43.248 L 663.548, 59.6646 L 662.489, 60.9003 L 647.838, 53.4863 z "/>
<path style="fill:rgb(0, 255, 0);fill-opacity:0;fill-rule:evenodd;stroke:rgb(8, 255, 0);stroke-width:1;" d="M 776.876, 442.365 L 805.472, 409.003 L 815.004, 413.769 L 786.584, 447.132 L 776.876, 442.365 z "/>
<path style="fill:rgb(0, 0, 255);fill-opacity:0;fill-rule:evenodd;stroke:rgb(8, 255, 0);stroke-width:1;" d="M 385.878, 391.527 L 408.826, 364.519 L 409.885, 363.107 L 421.183, 368.756 L 397.176, 396.999 L 385.878, 391.527 z "/>
<path style="fill:rgb(255, 255, 0);fill-opacity:0;fill-rule:evenodd;stroke:rgb(8, 255, 0);stroke-width:1;" d="M 315.975, 196.646 L 339.806, 168.579 L 351.103, 174.228 L 327.449, 202.295 L 315.975, 196.646 z "/>
<path style="fill:rgb(255, 0, 0);fill-opacity:0;fill-rule:evenodd;stroke:rgb(8, 255, 0);stroke-width:1;" d="M 81.0238, 395.763 L 99.2056, 372.816 L 112.621, 382.348 L 95.3222, 402.824 L 81.0238, 395.763 z "/>
<path style="fill:rgb(0, 255, 0);fill-opacity:0;fill-rule:evenodd;stroke:rgb(8, 255, 0);stroke-width:1;" d="M 69.0203, 284.201 L 94.7926, 252.427 L 104.854, 257.193 L 77.6699, 290.38 L 69.0203, 284.201 z "/>
<path style="fill:rgb(0, 0, 255);fill-opacity:0;fill-rule:evenodd;stroke:rgb(8, 255, 0);stroke-width:1;" d="M 201.765, 493.91 L 211.827, 481.377 L 217.476, 484.025 L 231.244, 466.549 L 239.011, 472.198 L 225.419, 489.144 L 224.537, 488.614 L 214.828, 500.794 L 201.765, 493.91 z "/>
<path style="fill:rgb(255, 255, 0);fill-opacity:0;fill-rule:evenodd;stroke:rgb(8, 255, 0);stroke-width:1;" d="M 56.1342, 427.184 L 67.4316, 412.886 L 90.203, 424.007 L 78.9056, 437.599 L 56.1342, 427.184 z "/>
<path style="fill:rgb(255, 0, 0);fill-opacity:0;fill-rule:evenodd;stroke:rgb(8, 255, 0);stroke-width:1;" d="M 824.537, 277.14 L 834.069, 266.196 L 861.783, 279.788 L 852.427, 290.909 L 824.537, 277.14 z "/>
<path style="fill:rgb(0, 255, 0);fill-opacity:0;fill-rule:evenodd;stroke:rgb(8, 255, 0);stroke-width:1;" d="M 973.345, 394.704 L 982.701, 383.583 L 1010.59, 397.176 L 1001.06, 408.12 L 973.345, 394.704 z "/>
<path style="fill:rgb(0, 0, 255);fill-opacity:0;fill-rule:evenodd;stroke:rgb(8, 255, 0);stroke-width:1;" d="M 253.839, 521.271 L 273.433, 496.558 L 284.907, 504.854 L 266.549, 527.979 L 253.839, 521.271 z "/>
<path style="fill:rgb(255, 255, 0);fill-opacity:0;fill-rule:evenodd;stroke:rgb(8, 255, 0);stroke-width:1;" d="M 37.5993, 60.0177 L 61.6064, 31.5975 L 72.1977, 36.8932 L 50.662, 62.6655 L 48.3672, 65.3133 L 37.5993, 60.0177 z "/>
<path style="fill:rgb(255, 0, 0);fill-opacity:0;fill-rule:evenodd;stroke:rgb(8, 255, 0);stroke-width:1;" d="M 50.662, 62.6655 L 72.1977, 36.8932 L 83.8482, 42.5419 L 62.3124, 68.3142 L 50.662, 62.6655 z "/>
<path style="fill:rgb(0, 255, 0);fill-opacity:0;fill-rule:evenodd;stroke:rgb(8, 255, 0);stroke-width:1;" d="M 325.861, 204.06 L 327.449, 202.295 L 351.103, 174.228 L 361.165, 179.17 L 335.922, 209.003 L 325.861, 204.06 z "/>
<path style="fill:rgb(0, 0, 255);fill-opacity:0;fill-rule:evenodd;stroke:rgb(8, 255, 0);stroke-width:1;" d="M 214.828, 500.794 L 224.537, 488.614 L 225.419, 489.144 L 239.011, 472.198 L 247.838, 478.553 L 225.596, 506.443 L 214.828, 500.794 z "/>
<path style="fill:rgb(255, 255, 0);fill-opacity:0;fill-rule:evenodd;stroke:rgb(8, 255, 0);stroke-width:1;" d="M 759.753, 429.303 L 784.643, 400.177 L 794.528, 405.119 L 769.638, 434.245 L 759.753, 429.303 z "/>
<path style="fill:rgb(255, 0, 0);fill-opacity:0;fill-rule:evenodd;stroke:rgb(8, 255, 0);stroke-width:1;" d="M 75.0221, 74.4925 L 96.0282, 49.2498 L 107.679, 54.8985 L 86.496, 79.9647 L 75.0221, 74.4925 z "/>
<path style="fill:rgb(0, 255, 0);fill-opacity:0;fill-rule:evenodd;stroke:rgb(8, 255, 0);stroke-width:1;" d="M 233.01, 402.295 L 249.956, 387.29 L 261.783, 376.876 L 270.962, 383.054 L 258.252, 393.998 L 241.836, 408.473 L 233.01, 402.295 z "/>
<path style="fill:rgb(0, 0, 255);fill-opacity:0;fill-rule:evenodd;stroke:rgb(8, 255, 0);stroke-width:1;" d="M 932.745, 627.891 L 940.159, 616.417 L 967.873, 627.008 L 960.989, 638.658 L 932.745, 627.891 z "/>
<path style="fill:rgb(255, 255, 0);fill-opacity:0;fill-rule:evenodd;stroke:rgb(8, 255, 0);stroke-width:1;" d="M 869.02, 472.374 L 888.438, 451.368 L 900.794, 457.193 L 883.142, 478.906 L 869.02, 472.374 z "/>
<path style="fill:rgb(255, 0, 0);fill-opacity:0;fill-rule:evenodd;stroke:rgb(8, 255, 0);stroke-width:1;" d="M 452.427, 153.045 L 461.43, 142.454 L 487.732, 155.34 L 478.906, 165.931 L 452.427, 153.045 z "/>
<path style="fill:rgb(0, 255, 0);fill-opacity:0;fill-rule:evenodd;stroke:rgb(8, 255, 0);stroke-width:1;" d="M 814.828, 199.294 L 831.774, 178.817 L 845.896, 184.819 L 828.597, 205.825 L 814.828, 199.294 z "/>
<path style="fill:rgb(0, 0, 255);fill-opacity:0;fill-rule:evenodd;stroke:rgb(8, 255, 0);stroke-width:1;" d="M 834.069, 266.196 L 842.189, 256.487 L 870.079, 270.256 L 861.783, 279.788 L 834.069, 266.196 z "/>
<path style="fill:rgb(255, 255, 0);fill-opacity:0;fill-rule:evenodd;stroke:rgb(8, 255, 0);stroke-width:1;" d="M 440.424, 189.762 L 457.723, 169.285 L 470.609, 175.64 L 453.31, 196.117 L 440.424, 189.762 z "/>
<path style="fill:rgb(255, 0, 0);fill-opacity:0;fill-rule:evenodd;stroke:rgb(8, 255, 0);stroke-width:1;" d="M 444.307, 162.577 L 452.427, 153.045 L 478.906, 165.931 L 470.609, 175.64 L 457.723, 169.285 L 444.307, 162.577 z "/>
<path style="fill:rgb(0, 255, 0);fill-opacity:0;fill-rule:evenodd;stroke:rgb(8, 255, 0);stroke-width:1;" d="M 243.778, 515.975 L 264.254, 490.203 L 273.433, 496.558 L 253.839, 521.271 L 243.778, 515.975 z "/>
<path style="fill:rgb(0, 0, 255);fill-opacity:0;fill-rule:evenodd;stroke:rgb(8, 255, 0);stroke-width:1;" d="M 898.5, 600.353 L 906.973, 589.585 L 911.033, 591.174 L 930.98, 598.764 L 923.566, 610.062 L 898.5, 600.353 z "/>
<path style="fill:rgb(255, 255, 0);fill-opacity:0;fill-rule:evenodd;stroke:rgb(8, 255, 0);stroke-width:1;" d="M 872.198, 720.565 L 882.259, 703.795 L 899.206, 709.797 L 889.144, 726.567 L 872.198, 720.565 z "/>
<path style="fill:rgb(255, 0, 0);fill-opacity:0;fill-rule:evenodd;stroke:rgb(8, 255, 0);stroke-width:1;" d="M 886.849, 730.097 L 889.144, 726.567 L 899.206, 709.797 L 913.151, 714.74 L 900.794, 735.04 L 886.849, 730.097 z "/>
<path style="fill:rgb(0, 255, 0);fill-opacity:0;fill-rule:evenodd;stroke:rgb(8, 255, 0);stroke-width:1;" d="M 431.068, 142.454 L 439.894, 132.039 L 461.43, 142.454 L 452.427, 153.045 L 438.482, 146.161 L 431.068, 142.454 z "/>
<path style="fill:rgb(0, 0, 255);fill-opacity:0;fill-rule:evenodd;stroke:rgb(8, 255, 0);stroke-width:1;" d="M 258.252, 393.998 L 270.962, 383.054 L 286.849, 393.469 L 277.493, 404.59 L 268.314, 398.764 L 260.724, 393.998 L 259.665, 394.881 L 258.252, 393.998 z "/>
<path style="fill:rgb(255, 255, 0);fill-opacity:0;fill-rule:evenodd;stroke:rgb(8, 255, 0);stroke-width:1;" d="M 857.899, 747.573 L 862.842, 739.276 L 891.968, 749.515 L 886.849, 757.811 L 857.899, 747.573 z "/>
<path style="fill:rgb(255, 0, 0);fill-opacity:0;fill-rule:evenodd;stroke:rgb(8, 255, 0);stroke-width:1;" d="M 32.8332, 456.311 L 39.188, 448.191 L 66.0194, 460.371 L 59.6646, 468.491 L 32.8332, 456.311 z "/>
<path style="fill:rgb(0, 255, 0);fill-opacity:0;fill-rule:evenodd;stroke:rgb(8, 255, 0);stroke-width:1;" d="M 332.392, 473.433 L 345.631, 457.899 L 358.341, 464.078 L 343.689, 481.377 L 332.392, 473.433 z "/>
<path style="fill:rgb(0, 0, 255);fill-opacity:0;fill-rule:evenodd;stroke:rgb(8, 255, 0);stroke-width:1;" d="M 343.689, 481.377 L 358.341, 464.078 L 369.815, 469.726 L 353.928, 488.438 L 343.689, 481.377 z "/>
<path style="fill:rgb(255, 255, 0);fill-opacity:0;fill-rule:evenodd;stroke:rgb(8, 255, 0);stroke-width:1;" d="M 427.361, 629.126 L 438.482, 615.004 L 452.78, 625.243 L 443.954, 636.54 L 427.361, 629.126 z "/>
<path style="fill:rgb(255, 0, 0);fill-opacity:0;fill-rule:evenodd;stroke:rgb(8, 255, 0);stroke-width:1;" d="M 923.919, 568.579 L 932.039, 558.517 L 952.868, 566.814 L 951.986, 568.049 L 945.631, 577.229 L 923.919, 568.579 z "/>
<path style="fill:rgb(0, 255, 0);fill-opacity:0;fill-rule:evenodd;stroke:rgb(8, 255, 0);stroke-width:1;" d="M 166.637, 451.721 L 182.348, 431.774 L 191.703, 438.482 L 177.229, 456.487 L 166.637, 451.721 z "/>
<path style="fill:rgb(0, 0, 255);fill-opacity:0;fill-rule:evenodd;stroke:rgb(8, 255, 0);stroke-width:1;" d="M 241.836, 408.473 L 258.252, 393.998 L 259.665, 394.881 L 260.724, 393.998 L 268.314, 398.764 L 262.665, 404.237 L 264.607, 405.472 L 255.252, 413.592 L 253.486, 412.533 L 250.662, 414.828 L 241.836, 408.473 z "/>
<path style="fill:rgb(255, 255, 0);fill-opacity:0;fill-rule:evenodd;stroke:rgb(8, 255, 0);stroke-width:1;" d="M 250.662, 414.828 L 253.486, 412.533 L 255.252, 413.592 L 264.607, 405.472 L 262.665, 404.237 L 268.314, 398.764 L 277.493, 404.59 L 261.959, 422.771 L 250.662, 414.828 z "/>
<path style="fill:rgb(255, 0, 0);fill-opacity:0;fill-rule:evenodd;stroke:rgb(8, 255, 0);stroke-width:1;" d="M 932.039, 558.517 L 939.806, 548.985 L 959.576, 556.752 L 952.868, 566.814 L 932.039, 558.517 z "/>
<path style="fill:rgb(0, 255, 0);fill-opacity:0;fill-rule:evenodd;stroke:rgb(8, 255, 0);stroke-width:1;" d="M 843.954, 146.337 L 857.017, 130.98 L 868.844, 136.805 L 856.311, 151.456 L 843.954, 146.337 z "/>
<path style="fill:rgb(0, 0, 255);fill-opacity:0;fill-rule:evenodd;stroke:rgb(8, 255, 0);stroke-width:1;" d="M 67.4316, 412.886 L 73.7864, 404.943 L 96.9109, 416.24 L 90.203, 424.007 L 67.4316, 412.886 z "/>
<path style="fill:rgb(255, 255, 0);fill-opacity:0;fill-rule:evenodd;stroke:rgb(8, 255, 0);stroke-width:1;" d="M 223.831, 395.763 L 240.6, 381.112 L 249.956, 387.29 L 233.01, 402.295 L 223.831, 395.763 z "/>
<path style="fill:rgb(255, 0, 0);fill-opacity:0;fill-rule:evenodd;stroke:rgb(8, 255, 0);stroke-width:1;" d="M 809.532, 536.628 L 814.122, 531.509 L 829.656, 538.923 L 819.771, 551.103 L 812.18, 547.573 L 809.532, 536.628 z "/>
<path style="fill:rgb(0, 255, 0);fill-opacity:0;fill-rule:evenodd;stroke:rgb(8, 255, 0);stroke-width:1;" d="M 864.784, 296.205 L 873.433, 285.26 L 887.732, 291.792 L 879.082, 302.736 L 864.784, 296.205 z "/>
<path style="fill:rgb(0, 0, 255);fill-opacity:0;fill-rule:evenodd;stroke:rgb(8, 255, 0);stroke-width:1;" d="M 873.433, 285.26 L 881.553, 275.022 L 895.852, 281.553 L 887.732, 291.792 L 873.433, 285.26 z "/>
<path style="fill:rgb(255, 255, 0);fill-opacity:0;fill-rule:evenodd;stroke:rgb(8, 255, 0);stroke-width:1;" d="M 443.954, 636.54 L 452.78, 625.243 L 464.254, 634.069 L 457.193, 642.365 L 443.954, 636.54 z "/>
<path style="fill:rgb(255, 0, 0);fill-opacity:0;fill-rule:evenodd;stroke:rgb(8, 255, 0);stroke-width:1;" d="M 240.6, 381.112 L 252.427, 370.697 L 261.783, 376.876 L 249.956, 387.29 L 240.6, 381.112 z "/>
<path style="fill:rgb(0, 255, 0);fill-opacity:0;fill-rule:evenodd;stroke:rgb(8, 255, 0);stroke-width:1;" d="M 252.427, 370.697 L 263.725, 360.812 L 273.08, 366.99 L 261.783, 376.876 L 252.427, 370.697 z "/>
<path style="fill:rgb(0, 0, 255);fill-opacity:0;fill-rule:evenodd;stroke:rgb(8, 255, 0);stroke-width:1;" d="M 4.76611, 182.171 L 15.7105, 169.462 L 34.0688, 178.288 L 72.9038, 197.176 L 73.0803, 197.529 L 51.7211, 223.477 L 43.6011, 219.594 L 16.2401, 206.708 L 27.8906, 190.468 L 19.241, 185.525 L 16.9462, 188.173 L 4.76611, 182.171 z "/>
<path style="fill:rgb(255, 255, 0);fill-opacity:0;fill-rule:evenodd;stroke:rgb(8, 255, 0);stroke-width:1;" d="M 4.23654, 627.538 L 37.5993, 585.349 L 64.6072, 597.529 L 31.068, 639.894 L 4.23654, 627.538 z "/>
<path style="fill:rgb(255, 0, 0);fill-opacity:0;fill-rule:evenodd;stroke:rgb(8, 255, 0);stroke-width:1;" d="M 22.9479, 77.4934 L 37.5993, 60.0177 L 48.3672, 65.3133 L 83.8482, 82.436 L 79.4351, 87.9082 L 86.6726, 91.4387 L 78.376, 101.147 L 76.4342, 103.442 L 22.9479, 77.4934 z "/>
<path style="fill:rgb(0, 255, 0);fill-opacity:0;fill-rule:evenodd;stroke:rgb(8, 255, 0);stroke-width:1;" d="M 16.9462, 476.434 L 32.8332, 456.311 L 59.6646, 468.491 L 66.0194, 460.371 L 79.9647, 466.726 L 62.6655, 488.614 L 49.6028, 491.262 L 16.9462, 476.434 z "/>
<path style="fill:rgb(0, 0, 255);fill-opacity:0;fill-rule:evenodd;stroke:rgb(8, 255, 0);stroke-width:1;" d="M 13.9453, 692.851 L 41.8358, 657.546 L 58.6055, 665.137 L 30.7149, 700.441 L 13.9453, 692.851 z "/>
<path style="fill:rgb(255, 255, 0);fill-opacity:0;fill-rule:evenodd;stroke:rgb(8, 255, 0);stroke-width:1;" d="M 16.7696, 547.396 L 38.4819, 520.035 L 40.9532, 516.681 L 48.3672, 507.326 L 61.7829, 513.504 L 61.6064, 513.68 L 30.1853, 553.575 L 16.7696, 547.396 z "/>
<path style="fill:rgb(255, 0, 0);fill-opacity:0;fill-rule:evenodd;stroke:rgb(8, 255, 0);stroke-width:1;" d="M 15.1809, 87.0256 L 22.9479, 77.4934 L 76.4342, 103.442 L 71.3151, 109.797 L 68.6673, 112.798 L 15.1809, 87.0256 z "/>
<path style="fill:rgb(0, 255, 0);fill-opacity:0;fill-rule:evenodd;stroke:rgb(8, 255, 0);stroke-width:1;" d="M 0, 497.97 L 8.47308, 487.026 L 49.2498, 505.56 L 49.6028, 505.737 L 48.3672, 507.326 L 40.9532, 516.681 L 24.1836, 509.091 L 0, 497.97 z "/>
<path style="fill:rgb(0, 0, 255);fill-opacity:0;fill-rule:evenodd;stroke:rgb(8, 255, 0);stroke-width:1;" d="M 8.47308, 487.026 L 16.9462, 476.434 L 49.6028, 491.262 L 57.7229, 494.969 L 50.3089, 504.325 L 49.2498, 505.56 L 8.47308, 487.026 z "/>
<path style="fill:rgb(255, 255, 0);fill-opacity:0;fill-rule:evenodd;stroke:rgb(8, 255, 0);stroke-width:1;" d="M 8.47308, 94.7926 L 15.1809, 87.0256 L 68.6673, 112.798 L 61.9594, 120.741 L 45.5428, 112.798 L 9.70874, 95.3222 L 8.47308, 94.7926 z "/>
<path style="fill:rgb(255, 0, 0);fill-opacity:0;fill-rule:evenodd;stroke:rgb(8, 255, 0);stroke-width:1;" d="M 14.6514, 245.19 L 39.0115, 223.654 L 43.6011, 219.594 L 51.7211, 223.477 L 28.2436, 252.074 L 26.6549, 254.016 L 14.6514, 245.19 z "/>
<path style="fill:rgb(0, 255, 0);fill-opacity:0;fill-rule:evenodd;stroke:rgb(8, 255, 0);stroke-width:1;" d="M 641.306, 19.7705 L 658.605, 0 L 696.911, 19.4175 L 765.402, 53.8394 L 748.102, 73.6099 L 684.731, 41.6593 L 666.196, 32.3036 L 641.306, 19.7705 z "/>
<path style="fill:rgb(0, 0, 255);fill-opacity:0;fill-rule:evenodd;stroke:rgb(8, 255, 0);stroke-width:1;" d="M 429.126, 47.1315 L 466.196, 3.35393 L 492.321, 16.2401 L 458.782, 55.7811 L 457.017, 54.8985 L 453.486, 58.9585 L 429.126, 47.1315 z "/>
<path style="fill:rgb(255, 255, 0);fill-opacity:0;fill-rule:evenodd;stroke:rgb(8, 255, 0);stroke-width:1;" d="M 325.684, 32.4801 L 342.454, 12.8861 L 346.337, 14.8279 L 396.823, 39.8941 L 380.053, 59.4881 L 334.334, 36.7167 L 325.684, 32.4801 z "/>
<path style="fill:rgb(255, 0, 0);fill-opacity:0;fill-rule:evenodd;stroke:rgb(8, 255, 0);stroke-width:1;" d="M 485.966, 67.9612 L 518.8, 29.1262 L 545.631, 42.3654 L 515.446, 77.8464 L 512.798, 81.0238 L 485.966, 67.9612 z "/>
<path style="fill:rgb(0, 255, 0);fill-opacity:0;fill-rule:evenodd;stroke:rgb(8, 255, 0);stroke-width:1;" d="M 157.988, 51.7211 L 179.523, 26.4784 L 205.649, 39.541 L 184.113, 64.7838 L 157.988, 51.7211 z "/>
<path style="fill:rgb(0, 0, 255);fill-opacity:0;fill-rule:evenodd;stroke:rgb(8, 255, 0);stroke-width:1;" d="M 455.428, 60.0177 L 458.782, 55.7811 L 492.321, 16.2401 L 506.443, 23.1244 L 473.61, 61.7829 L 469.373, 66.7255 L 455.428, 60.0177 z "/>
<path style="fill:rgb(255, 255, 0);fill-opacity:0;fill-rule:evenodd;stroke:rgb(8, 255, 0);stroke-width:1;" d="M 696.911, 19.4175 L 704.148, 11.1209 L 769.638, 44.1306 L 772.462, 45.5428 L 765.402, 53.8394 L 696.911, 19.4175 z "/>
<path style="fill:rgb(255, 0, 0);fill-opacity:0;fill-rule:evenodd;stroke:rgb(8, 255, 0);stroke-width:1;" d="M 621.183, 40.0706 L 639.541, 18.8879 L 641.306, 19.7705 L 666.196, 32.3036 L 647.838, 53.4863 L 621.183, 40.0706 z "/>
<path style="fill:rgb(0, 255, 0);fill-opacity:0;fill-rule:evenodd;stroke:rgb(8, 255, 0);stroke-width:1;" d="M 246.602, 36.7167 L 255.781, 25.9488 L 302.736, 49.0733 L 307.679, 51.5446 L 298.323, 62.489 L 246.602, 36.7167 z "/>
<path style="fill:rgb(0, 0, 255);fill-opacity:0;fill-rule:evenodd;stroke:rgb(8, 255, 0);stroke-width:1;" d="M 840.424, 33.7158 L 849.25, 23.301 L 900.618, 48.7202 L 902.913, 49.7793 L 893.91, 60.1942 L 883.848, 55.2515 L 840.424, 33.7158 z "/>
<path style="fill:rgb(255, 255, 0);fill-opacity:0;fill-rule:evenodd;stroke:rgb(8, 255, 0);stroke-width:1;" d="M 473.61, 61.7829 L 506.443, 23.1244 L 518.8, 29.1262 L 485.966, 67.9612 L 473.61, 61.7829 z "/>
</svg>