<?xml version="1.0" encoding="iso-8859-1" standalone="no"?>
<!DOCTYPE svg PUBLIC "-//W3C//DTD SVG 1.0//EN" "http://www.w3.org/TR/2001/REC-SVG-20010904/DTD/svg10.dtd">
<svg xmlns="http://www.w3.org/2000/svg" width="1135" height="800">
<path style="fill:rgb(255, 0, 0);fill-opacity:0;fill-rule:evenodd;stroke:rgb(255, 35, 0);stroke-width:1;" d="M 932.444, 145.422 L 940.267, 134.222 L 987.022, 69.1556 L 993.244, 71.8222 L 990.578, 75.3778 L 1135.64, 135.644 L 1121.07, 156.089 L 1076.98, 137.778 L 1049.24, 176.356 L 1039.64, 189.867 L 932.444, 145.422 z "/>
<path style="fill:rgb(0, 255, 0);fill-opacity:0;fill-rule:evenodd;stroke:rgb(255, 35, 0);stroke-width:1;" d="M 731.378, 340.089 L 749.867, 315.378 L 750.933, 315.911 L 754.311, 311.111 L 764.8, 315.556 L 779.733, 321.956 L 791.644, 327.111 L 798.222, 329.956 L 795.733, 333.511 L 852.444, 357.867 L 864, 342.4 L 873.067, 330.133 L 884.089, 315.2 L 892.267, 304.356 L 947.556, 328 L 945.6, 330.667 L 932.978, 347.556 L 903.822, 387.022 L 891.378, 403.733 L 888.533, 407.644 L 731.378, 340.089 z "/>
<path style="fill:rgb(0, 0, 255);fill-opacity:0;fill-rule:evenodd;stroke:rgb(255, 35, 0);stroke-width:1;" d="M 498.844, 659.911 L 556.622, 580.622 L 780.267, 674.844 L 768.356, 691.2 L 566.222, 606.044 L 532.622, 652.267 L 607.467, 683.911 L 595.378, 700.622 L 498.844, 659.911 z "/>
<path style="fill:rgb(255, 255, 0);fill-opacity:0;fill-rule:evenodd;stroke:rgb(255, 35, 0);stroke-width:1;" d="M 153.778, 574.044 L 165.689, 557.689 L 380.978, 648.533 L 379.733, 650.311 L 369.067, 664.889 L 153.778, 574.044 z "/>
<path style="fill:rgb(255, 0, 0);fill-opacity:0;fill-rule:evenodd;stroke:rgb(255, 35, 0);stroke-width:1;" d="M 965.156, 582.222 L 984.889, 555.378 L 1006.58, 564.444 L 1018.49, 549.156 L 1004.62, 543.467 L 1018.49, 525.156 L 1033.07, 504.711 L 1034.31, 502.756 L 1063.47, 514.489 L 1056.89, 523.556 L 1052.44, 529.778 L 1056, 531.378 L 1048.36, 542.044 L 1073.6, 552.533 L 1041.96, 594.311 L 1029.87, 589.156 L 1015.47, 582.933 L 1003.2, 577.778 L 991.822, 593.244 L 965.156, 582.222 z "/>
<path style="fill:rgb(0, 255, 0);fill-opacity:0;fill-rule:evenodd;stroke:rgb(255, 35, 0);stroke-width:1;" d="M 556.622, 580.622 L 780.267, 674.844 L 768.356, 691.2 L 566.222, 606.044 L 556.622, 580.622 z "/>
<path style="fill:rgb(0, 0, 255);fill-opacity:0;fill-rule:evenodd;stroke:rgb(255, 35, 0);stroke-width:1;" d="M 633.778, 716.444 L 646.044, 699.911 L 843.2, 783.289 L 841.422, 785.422 L 830.933, 800 L 633.778, 716.444 z "/>
<path style="fill:rgb(255, 255, 0);fill-opacity:0;fill-rule:evenodd;stroke:rgb(255, 35, 0);stroke-width:1;" d="M 910.578, 681.067 L 910.933, 680.533 L 919.822, 668.267 L 927.467, 657.6 L 951.822, 623.822 L 964.444, 629.156 L 980.8, 635.911 L 1004.09, 645.689 L 962.844, 702.933 L 935.467, 691.556 L 910.578, 681.067 z "/>
<path style="fill:rgb(255, 0, 0);fill-opacity:0;fill-rule:evenodd;stroke:rgb(255, 35, 0);stroke-width:1;" d="M 932.978, 347.556 L 945.6, 330.667 L 1071.64, 384.711 L 1048.36, 416.178 L 1044.98, 420.8 L 1033.42, 415.822 L 1038.4, 409.244 L 1048, 396.267 L 1037.33, 391.644 L 1035.38, 394.311 L 1018.49, 387.022 L 1020.27, 384.533 L 1010.49, 380.444 L 1008, 384 L 997.156, 379.378 L 995.2, 382.044 L 977.244, 374.4 L 979.022, 371.911 L 968.533, 367.289 L 970.844, 364.267 L 960.533, 359.822 L 958.933, 362.133 L 942.4, 355.022 L 944.178, 352.356 L 932.978, 347.556 z "/>
<path style="fill:rgb(0, 255, 0);fill-opacity:0;fill-rule:evenodd;stroke:rgb(255, 35, 0);stroke-width:1;" d="M 380.089, 264.178 L 396.267, 241.956 L 408.356, 246.933 L 407.467, 248.356 L 411.556, 250.133 L 412.622, 248.711 L 442.311, 261.333 L 440.533, 263.644 L 449.422, 267.378 L 451.2, 265.067 L 480.889, 277.511 L 480, 278.578 L 484.089, 280.356 L 484.978, 279.111 L 500.444, 285.689 L 489.956, 300.267 L 484.267, 307.911 L 428.978, 284.622 L 429.867, 283.2 L 421.867, 280 L 420.978, 281.244 L 380.089, 264.178 z "/>
<path style="fill:rgb(0, 0, 255);fill-opacity:0;fill-rule:evenodd;stroke:rgb(255, 35, 0);stroke-width:1;" d="M 891.378, 403.733 L 903.822, 387.022 L 915.378, 392 L 917.156, 389.511 L 934.222, 396.8 L 932.089, 399.467 L 942.044, 403.733 L 944.889, 400 L 955.378, 404.622 L 957.511, 401.778 L 975.467, 409.422 L 973.511, 412.089 L 984, 416.533 L 981.511, 419.911 L 991.289, 424.178 L 993.244, 421.689 L 1009.96, 428.8 L 1008.36, 431.111 L 1019.38, 435.911 L 1006.58, 453.156 L 891.378, 403.733 z "/>
<path style="fill:rgb(255, 255, 0);fill-opacity:0;fill-rule:evenodd;stroke:rgb(255, 35, 0);stroke-width:1;" d="M 567.111, 74.4889 L 574.4, 64.5333 L 575.289, 63.2889 L 582.4, 66.3111 L 590.222, 55.4667 L 583.289, 52.4444 L 591.111, 41.6 L 591.644, 41.0667 L 661.689, 70.5778 L 653.333, 81.9556 L 645.333, 92.9778 L 637.511, 103.644 L 623.644, 97.7778 L 632.889, 85.3333 L 618.489, 79.2889 L 611.022, 89.4222 L 597.156, 83.5556 L 595.022, 86.4 L 567.111, 74.4889 z M 595.022, 73.2444 L 602.311, 76.4444 L 612.267, 62.7556 L 606.756, 60.2667 L 604.978, 60.9778 L 603.378, 63.1111 L 601.6, 64.1778 L 595.022, 73.2444 z "/>
<path style="fill:rgb(255, 0, 0);fill-opacity:0;fill-rule:evenodd;stroke:rgb(255, 35, 0);stroke-width:1;" d="M 635.556, 577.244 L 643.022, 567.111 L 645.689, 563.556 L 652.444, 554.133 L 687.467, 568.711 L 688.711, 566.933 L 701.689, 572.267 L 700.444, 574.044 L 735.467, 588.622 L 728.533, 598.044 L 725.867, 601.778 L 718.578, 611.911 L 676.444, 594.311 L 635.556, 577.244 z "/>
<path style="fill:rgb(0, 255, 0);fill-opacity:0;fill-rule:evenodd;stroke:rgb(255, 35, 0);stroke-width:1;" d="M 916.089, 287.467 L 918.933, 283.378 L 923.556, 285.333 L 924.444, 284.089 L 930.667, 275.733 L 927.289, 274.311 L 927.644, 272.711 L 942.044, 253.156 L 999.467, 277.689 L 996.978, 281.067 L 996.8, 281.067 L 978.133, 306.667 L 976.889, 306.133 L 974.578, 309.333 L 970.844, 307.733 L 969.067, 310.044 L 916.089, 287.467 z "/>
<path style="fill:rgb(0, 0, 255);fill-opacity:0;fill-rule:evenodd;stroke:rgb(255, 35, 0);stroke-width:1;" d="M 910.578, 122.133 L 957.333, 56.8889 L 987.022, 69.1556 L 940.267, 134.222 L 910.578, 122.133 z "/>
<path style="fill:rgb(255, 255, 0);fill-opacity:0;fill-rule:evenodd;stroke:rgb(255, 35, 0);stroke-width:1;" d="M 228.267, 269.689 L 235.378, 259.733 L 235.733, 259.911 L 255.644, 232.356 L 273.6, 240 L 263.289, 254.044 L 314.489, 275.556 L 306.844, 286.044 L 296.711, 299.911 L 281.6, 293.511 L 282.489, 292.444 L 228.267, 269.689 z "/>
<path style="fill:rgb(255, 0, 0);fill-opacity:0;fill-rule:evenodd;stroke:rgb(255, 35, 0);stroke-width:1;" d="M 573.156, 342.578 L 587.733, 322.489 L 592.178, 316.267 L 666.667, 347.733 L 648.889, 372.089 L 602.311, 352.356 L 598.222, 350.756 L 596.978, 352.533 L 573.156, 342.578 z "/>
<path style="fill:rgb(0, 255, 0);fill-opacity:0;fill-rule:evenodd;stroke:rgb(255, 35, 0);stroke-width:1;" d="M 807.289, 318.756 L 816.889, 305.956 L 831.111, 312.178 L 839.467, 300.978 L 830.4, 297.244 L 832.889, 294.044 L 827.556, 291.733 L 836.089, 280.178 L 892.267, 304.356 L 884.089, 315.2 L 878.222, 312.711 L 875.556, 316.267 L 866.311, 312.178 L 857.778, 323.556 L 873.067, 330.133 L 864, 342.4 L 846.756, 334.933 L 843.022, 336.178 L 825.244, 328.711 L 824.356, 326.044 L 807.289, 318.756 z "/>
<path style="fill:rgb(0, 0, 255);fill-opacity:0;fill-rule:evenodd;stroke:rgb(255, 35, 0);stroke-width:1;" d="M 788.978, 642.311 L 816, 604.622 L 860.444, 623.289 L 862.222, 627.911 L 837.333, 662.4 L 788.978, 642.311 z "/>
<path style="fill:rgb(255, 255, 0);fill-opacity:0;fill-rule:evenodd;stroke:rgb(255, 35, 0);stroke-width:1;" d="M 241.778, 345.067 L 261.156, 318.578 L 271.467, 323.022 L 268.8, 326.578 L 275.911, 329.6 L 278.578, 325.867 L 313.244, 340.444 L 310.578, 344.178 L 317.156, 347.022 L 319.822, 343.289 L 330.667, 347.733 L 311.289, 374.4 L 259.2, 352.356 L 261.689, 348.8 L 255.111, 346.133 L 252.444, 349.511 L 241.778, 345.067 z "/>
<path style="fill:rgb(255, 0, 0);fill-opacity:0;fill-rule:evenodd;stroke:rgb(255, 35, 0);stroke-width:1;" d="M 266.489, 218.667 L 270.756, 212.8 L 274.133, 214.222 L 277.867, 209.067 L 287.822, 195.378 L 284.444, 193.956 L 288.711, 188.089 L 343.822, 211.2 L 313.778, 252.622 L 305.6, 249.067 L 308.978, 244.267 L 292.267, 235.733 L 294.044, 233.244 L 311.111, 241.422 L 313.422, 238.4 L 266.489, 218.667 z "/>
<path style="fill:rgb(0, 255, 0);fill-opacity:0;fill-rule:evenodd;stroke:rgb(255, 35, 0);stroke-width:1;" d="M 692.622, 129.422 L 693.867, 127.644 L 698.844, 120.889 L 700.8, 120 L 712, 104.711 L 711.644, 103.289 L 718.044, 94.5778 L 773.867, 118.222 L 767.644, 126.578 L 764.978, 127.467 L 753.778, 142.756 L 754.489, 144.533 L 748.267, 153.067 L 692.622, 129.422 z M 711.289, 124.8 L 712, 126.756 L 715.022, 126.4 L 717.689, 122.667 L 728.356, 127.289 L 725.689, 130.844 L 726.4, 132.8 L 729.067, 132.267 L 731.733, 128.711 L 741.689, 132.978 L 746.667, 126.4 L 722.489, 116.089 L 721.244, 117.867 L 717.333, 116.267 L 711.289, 124.8 z "/>
<path style="fill:rgb(0, 0, 255);fill-opacity:0;fill-rule:evenodd;stroke:rgb(255, 35, 0);stroke-width:1;" d="M 295.822, 573.511 L 307.733, 557.156 L 410.133, 600.356 L 398.222, 616.711 L 295.822, 573.511 z "/>
<path style="fill:rgb(255, 255, 0);fill-opacity:0;fill-rule:evenodd;stroke:rgb(255, 35, 0);stroke-width:1;" d="M 548.444, 125.156 L 551.289, 121.244 L 555.2, 116.089 L 557.333, 115.911 L 566.933, 102.756 L 566.044, 101.156 L 566.933, 99.7333 L 572.8, 91.9111 L 628.622, 115.556 L 622.044, 124.444 L 619.556, 125.156 L 616.356, 129.6 L 614.044, 128.711 L 610.844, 132.978 L 612.978, 133.867 L 609.956, 137.956 L 611.378, 139.733 L 604.622, 148.978 L 548.444, 125.156 z M 569.778, 115.733 L 575.111, 118.044 L 573.867, 119.644 L 597.333, 129.422 L 601.956, 123.2 L 592, 118.933 L 594.844, 115.022 L 594.133, 112.889 L 591.111, 113.422 L 588.089, 117.333 L 577.6, 112.889 L 580.444, 108.8 L 580.267, 106.844 L 577.067, 107.556 L 574.4, 111.111 L 573.511, 110.756 L 569.778, 115.733 z "/>
<path style="fill:rgb(255, 0, 0);fill-opacity:0;fill-rule:evenodd;stroke:rgb(255, 35, 0);stroke-width:1;" d="M 532.089, 399.111 L 540.622, 387.2 L 563.2, 356.089 L 565.333, 353.422 L 569.6, 347.556 L 569.778, 347.556 L 573.156, 342.578 L 596.978, 352.533 L 598.222, 350.756 L 602.311, 352.356 L 591.111, 367.822 L 590.756, 367.822 L 572.978, 392.533 L 559.644, 410.667 L 532.089, 399.111 z "/>
<path style="fill:rgb(0, 255, 0);fill-opacity:0;fill-rule:evenodd;stroke:rgb(255, 35, 0);stroke-width:1;" d="M 863.822, 749.333 L 886.756, 717.689 L 936, 738.489 L 913.067, 770.133 L 899.2, 764.267 L 884.444, 758.044 L 868.8, 751.467 L 863.822, 749.333 z "/>
<path style="fill:rgb(0, 0, 255);fill-opacity:0;fill-rule:evenodd;stroke:rgb(255, 35, 0);stroke-width:1;" d="M 485.689, 514.311 L 492.444, 504.889 L 495.822, 506.311 L 515.911, 478.578 L 531.378, 484.978 L 518.578, 502.756 L 520.889, 503.822 L 526.4, 506.133 L 529.956, 507.556 L 536, 499.022 L 534.222, 496.889 L 529.422, 494.933 L 536.178, 485.689 L 558.756, 495.289 L 531.022, 533.333 L 485.689, 514.311 z "/>
<path style="fill:rgb(255, 255, 0);fill-opacity:0;fill-rule:evenodd;stroke:rgb(255, 35, 0);stroke-width:1;" d="M 156.978, 658.311 L 175.822, 632.178 L 231.644, 655.644 L 219.556, 672.356 L 212.622, 681.778 L 156.978, 658.311 z "/>
<path style="fill:rgb(255, 0, 0);fill-opacity:0;fill-rule:evenodd;stroke:rgb(255, 35, 0);stroke-width:1;" d="M 447.111, 585.956 L 462.4, 565.156 L 477.511, 544.711 L 512.356, 559.467 L 481.956, 600.711 L 469.511, 595.556 L 447.111, 585.956 z "/>
<path style="fill:rgb(0, 255, 0);fill-opacity:0;fill-rule:evenodd;stroke:rgb(255, 35, 0);stroke-width:1;" d="M 75.7333, 761.422 L 79.8222, 755.733 L 92.8, 737.422 L 99.2, 728.533 L 103.289, 723.022 L 140.444, 739.378 L 137.244, 743.822 L 131.2, 752.356 L 117.689, 771.2 L 113.422, 777.067 L 101.867, 772.267 L 101.333, 772.978 L 86.7556, 766.933 L 87.2889, 766.222 L 75.7333, 761.422 z "/>
<path style="fill:rgb(0, 0, 255);fill-opacity:0;fill-rule:evenodd;stroke:rgb(255, 35, 0);stroke-width:1;" d="M 498.844, 659.911 L 532.622, 652.267 L 607.467, 683.911 L 595.378, 700.622 L 498.844, 659.911 z "/>
<path style="fill:rgb(255, 255, 0);fill-opacity:0;fill-rule:evenodd;stroke:rgb(255, 35, 0);stroke-width:1;" d="M 498.844, 659.911 L 556.622, 580.622 L 566.222, 606.044 L 532.622, 652.267 L 498.844, 659.911 z "/>
<path style="fill:rgb(255, 0, 0);fill-opacity:0;fill-rule:evenodd;stroke:rgb(255, 35, 0);stroke-width:1;" d="M 204.444, 395.911 L 210.667, 387.378 L 222.933, 370.489 L 226.311, 371.911 L 234.133, 375.111 L 231.467, 378.844 L 237.867, 381.511 L 240.533, 377.778 L 261.511, 386.667 L 258.844, 390.4 L 265.6, 393.067 L 268.267, 389.511 L 278.756, 393.956 L 260.444, 419.378 L 249.6, 414.933 L 252.444, 411.022 L 245.689, 408.178 L 242.844, 412.089 L 221.867, 403.2 L 224.533, 399.467 L 217.956, 396.622 L 215.289, 400.356 L 204.444, 395.911 z "/>
<path style="fill:rgb(0, 255, 0);fill-opacity:0;fill-rule:evenodd;stroke:rgb(255, 35, 0);stroke-width:1;" d="M 724.267, 60.6222 L 737.422, 41.9556 L 741.156, 36.8 L 797.333, 59.9111 L 780.444, 83.7333 L 773.156, 80.7111 L 773.867, 79.6444 L 731.911, 62.4 L 731.2, 63.4667 L 724.267, 60.6222 z "/>
<path style="fill:rgb(0, 0, 255);fill-opacity:0;fill-rule:evenodd;stroke:rgb(255, 35, 0);stroke-width:1;" d="M 926.4, 502.4 L 951.822, 467.556 L 988.622, 483.022 L 986.844, 485.333 L 980.978, 493.511 L 978.667, 493.689 L 975.467, 498.133 L 973.867, 497.422 L 971.022, 501.333 L 972.622, 502.044 L 969.6, 506.311 L 970.844, 507.556 L 963.378, 517.867 L 926.4, 502.4 z M 961.956, 490.667 L 965.689, 492.267 L 967.822, 489.422 L 966.933, 487.644 L 964.089, 487.822 L 961.956, 490.667 z M 955.2, 500.444 L 956.089, 502.578 L 958.578, 502.222 L 960.533, 499.733 L 956.978, 498.133 L 955.2, 500.444 z M 944.533, 489.956 L 947.911, 491.2 L 953.244, 483.378 L 952.178, 481.244 L 950.044, 481.956 L 944.533, 489.956 z M 940.089, 497.422 L 943.111, 498.667 L 945.778, 495.111 L 943.644, 494.222 L 941.333, 495.467 L 940.089, 497.422 z "/>
<path style="fill:rgb(255, 255, 0);fill-opacity:0;fill-rule:evenodd;stroke:rgb(255, 35, 0);stroke-width:1;" d="M 643.022, 567.111 L 645.689, 563.556 L 652.444, 554.133 L 687.467, 568.711 L 688.711, 566.933 L 701.689, 572.267 L 700.444, 574.044 L 735.467, 588.622 L 728.533, 598.044 L 725.867, 601.778 L 716.622, 597.867 L 691.733, 587.378 L 677.333, 581.511 L 652.267, 571.022 L 643.022, 567.111 z "/>
<path style="fill:rgb(255, 0, 0);fill-opacity:0;fill-rule:evenodd;stroke:rgb(255, 35, 0);stroke-width:1;" d="M 353.422, 688 L 368.178, 667.733 L 418.311, 688.889 L 417.422, 689.956 L 415.822, 689.244 L 412.622, 693.689 L 414.222, 694.4 L 407.822, 703.111 L 406.222, 702.4 L 403.022, 706.844 L 404.622, 707.556 L 403.378, 709.156 L 402.844, 708.8 L 391.111, 703.822 L 353.422, 688 z "/>
<path style="fill:rgb(0, 255, 0);fill-opacity:0;fill-rule:evenodd;stroke:rgb(255, 35, 0);stroke-width:1;" d="M 978.133, 306.667 L 996.8, 281.067 L 996.978, 281.067 L 1007.64, 285.689 L 1004.98, 289.422 L 1027.56, 298.844 L 1030.22, 295.289 L 1040.89, 299.733 L 1022.4, 325.156 L 1011.56, 320.533 L 1014.22, 316.8 L 991.467, 307.378 L 988.622, 311.111 L 978.133, 306.667 z "/>
<path style="fill:rgb(0, 0, 255);fill-opacity:0;fill-rule:evenodd;stroke:rgb(255, 35, 0);stroke-width:1;" d="M 343.644, 720.889 L 351.644, 709.867 L 378.489, 721.067 L 381.689, 716.8 L 354.844, 705.422 L 362.844, 694.578 L 389.689, 705.956 L 391.111, 703.822 L 402.844, 708.8 L 380.622, 739.2 L 368.711, 734.4 L 370.311, 732.267 L 343.644, 720.889 z "/>
<path style="fill:rgb(255, 255, 0);fill-opacity:0;fill-rule:evenodd;stroke:rgb(255, 35, 0);stroke-width:1;" d="M 403.378, 344.711 L 422.756, 318.044 L 433.6, 303.111 L 455.822, 312.356 L 450.489, 319.644 L 444.089, 328.533 L 432.711, 344.356 L 425.6, 353.956 L 403.378, 344.711 z "/>
<path style="fill:rgb(255, 0, 0);fill-opacity:0;fill-rule:evenodd;stroke:rgb(255, 35, 0);stroke-width:1;" d="M 254.222, 699.378 L 260.267, 691.2 L 263.467, 690.667 L 270.222, 681.6 L 271.289, 681.956 L 273.067, 679.289 L 272.356, 679.111 L 275.378, 674.844 L 273.778, 672.533 L 280, 664 L 307.556, 675.733 L 301.333, 684.267 L 298.667, 684.622 L 295.467, 688.889 L 294.222, 688.356 L 292.089, 691.2 L 293.333, 691.733 L 286.933, 700.444 L 288.178, 702.4 L 281.956, 710.933 L 254.222, 699.378 z "/>
<path style="fill:rgb(0, 255, 0);fill-opacity:0;fill-rule:evenodd;stroke:rgb(255, 35, 0);stroke-width:1;" d="M 1021.87, 273.422 L 1028.44, 264.356 L 1027.38, 264 L 1030.58, 259.733 L 1048.89, 234.311 L 1072.18, 244.089 L 1045.16, 281.6 L 1044.27, 282.844 L 1021.87, 273.422 z "/>
<path style="fill:rgb(0, 0, 255);fill-opacity:0;fill-rule:evenodd;stroke:rgb(255, 35, 0);stroke-width:1;" d="M 319.467, 513.6 L 337.956, 487.289 L 359.111, 496.533 L 359.289, 496.178 L 367.289, 499.556 L 338.844, 538.667 L 330.844, 535.289 L 331.733, 534.044 L 331.2, 532.622 L 331.022, 531.911 L 331.022, 531.2 L 331.556, 529.956 L 332.622, 528.711 L 333.333, 528.178 L 334.933, 527.467 L 336.711, 527.111 L 340.267, 522.311 L 319.467, 513.6 z "/>
<path style="fill:rgb(255, 255, 0);fill-opacity:0;fill-rule:evenodd;stroke:rgb(255, 35, 0);stroke-width:1;" d="M 325.511, 135.467 L 335.822, 121.6 L 358.222, 131.022 L 365.511, 121.244 L 384.356, 129.422 L 362.311, 159.289 L 343.644, 151.467 L 350.756, 141.867 L 344.178, 139.022 L 341.689, 142.4 L 325.511, 135.467 z "/>
<path style="fill:rgb(255, 0, 0);fill-opacity:0;fill-rule:evenodd;stroke:rgb(255, 35, 0);stroke-width:1;" d="M 635.556, 577.244 L 643.022, 567.111 L 652.267, 571.022 L 677.333, 581.511 L 691.733, 587.378 L 716.622, 597.867 L 725.867, 601.778 L 718.578, 611.911 L 676.444, 594.311 L 635.556, 577.244 z "/>
<path style="fill:rgb(0, 255, 0);fill-opacity:0;fill-rule:evenodd;stroke:rgb(255, 35, 0);stroke-width:1;" d="M 307.022, 161.956 L 321.778, 141.867 L 333.689, 147.022 L 333.867, 149.511 L 348.8, 155.733 L 345.6, 160 L 353.778, 163.556 L 355.911, 160.533 L 365.867, 164.8 L 353.422, 181.867 L 307.022, 161.956 z "/>
<path style="fill:rgb(0, 0, 255);fill-opacity:0;fill-rule:evenodd;stroke:rgb(255, 35, 0);stroke-width:1;" d="M 1016.36, 460.8 L 1036.44, 433.422 L 1039.47, 434.667 L 1042.49, 430.578 L 1050.13, 433.778 L 1047.11, 438.044 L 1053.16, 440.533 L 1056.53, 436.089 L 1064.18, 439.289 L 1060.98, 443.556 L 1064.18, 444.978 L 1043.91, 472.533 L 1016.36, 460.8 z "/>
<path style="fill:rgb(255, 255, 0);fill-opacity:0;fill-rule:evenodd;stroke:rgb(255, 35, 0);stroke-width:1;" d="M 523.022, 473.956 L 541.333, 448.711 L 553.422, 453.867 L 550.933, 457.244 L 549.511, 456.711 L 547.556, 459.378 L 560.533, 464.889 L 561.956, 466.133 L 564.444, 465.6 L 568.533, 460.089 L 580.622, 465.244 L 562.311, 490.489 L 550.222, 485.333 L 553.778, 480.356 L 553.422, 477.867 L 551.467, 477.867 L 540.622, 473.422 L 539.911, 472.178 L 537.244, 473.422 L 536.178, 474.844 L 537.244, 475.378 L 534.756, 478.756 L 523.022, 473.956 z "/>
<path style="fill:rgb(255, 0, 0);fill-opacity:0;fill-rule:evenodd;stroke:rgb(255, 35, 0);stroke-width:1;" d="M 670.4, 419.911 L 672, 417.778 L 671.467, 417.6 L 676.8, 410.489 L 677.511, 410.844 L 680.711, 406.578 L 679.822, 406.222 L 685.156, 398.933 L 685.867, 399.289 L 687.644, 396.978 L 689.6, 397.867 L 701.689, 403.022 L 697.067, 409.244 L 711.822, 415.467 L 716.267, 409.422 L 721.422, 411.556 L 728.178, 414.4 L 711.111, 437.511 L 699.378, 432.356 L 703.644, 426.667 L 688.889, 420.267 L 684.622, 425.956 L 672.178, 420.622 L 670.4, 419.911 z "/>
<path style="fill:rgb(0, 255, 0);fill-opacity:0;fill-rule:evenodd;stroke:rgb(255, 35, 0);stroke-width:1;" d="M 618.667, 494.578 L 632.533, 475.378 L 679.111, 494.578 L 672, 504.356 L 659.556, 499.2 L 652.8, 508.8 L 646.4, 506.133 L 631.289, 499.733 L 618.667, 494.578 z "/>
<path style="fill:rgb(0, 0, 255);fill-opacity:0;fill-rule:evenodd;stroke:rgb(255, 35, 0);stroke-width:1;" d="M 874.667, 679.467 L 875.2, 678.756 L 882.489, 668.622 L 889.6, 671.644 L 897.778, 660.089 L 897.244, 658.844 L 891.378, 656.356 L 897.422, 648 L 899.022, 645.689 L 927.467, 657.6 L 919.822, 668.267 L 914.489, 665.956 L 911.822, 665.956 L 903.467, 677.511 L 910.933, 680.533 L 910.578, 681.067 L 903.289, 691.2 L 895.644, 688.178 L 896, 687.644 L 882.311, 681.956 L 881.956, 682.489 L 874.667, 679.467 z "/>
<path style="fill:rgb(255, 255, 0);fill-opacity:0;fill-rule:evenodd;stroke:rgb(255, 35, 0);stroke-width:1;" d="M 721.244, 199.111 L 736, 178.844 L 738.311, 179.733 L 748.8, 184.178 L 744.889, 189.511 L 746.311, 191.644 L 757.867, 196.444 L 761.067, 196.444 L 764.978, 191.111 L 766.044, 191.467 L 777.422, 196.267 L 778.667, 196.978 L 763.911, 217.244 L 721.244, 199.111 z "/>
<path style="fill:rgb(255, 0, 0);fill-opacity:0;fill-rule:evenodd;stroke:rgb(255, 35, 0);stroke-width:1;" d="M 801.778, 451.2 L 808, 442.489 L 809.956, 439.822 L 817.067, 442.844 L 826.489, 429.511 L 819.556, 426.489 L 827.733, 414.933 L 854.933, 426.311 L 846.933, 436.978 L 839.644, 434.133 L 828.978, 448.889 L 835.911, 451.556 L 828.089, 462.222 L 801.778, 451.2 z "/>
<path style="fill:rgb(0, 255, 0);fill-opacity:0;fill-rule:evenodd;stroke:rgb(255, 35, 0);stroke-width:1;" d="M 209.956, 540.089 L 216.889, 530.667 L 224.711, 533.867 L 226.133, 531.911 L 225.422, 531.556 L 232.178, 522.489 L 232.889, 522.667 L 233.956, 521.244 L 234.489, 521.422 L 236.978, 518.222 L 228.978, 514.844 L 236.622, 504.356 L 252.089, 510.756 L 260.267, 514.311 L 257.244, 518.4 L 243.2, 537.6 L 241.244, 536.711 L 238.756, 539.911 L 244.089, 542.044 L 237.333, 551.467 L 209.956, 540.089 z "/>
<path style="fill:rgb(0, 0, 255);fill-opacity:0;fill-rule:evenodd;stroke:rgb(255, 35, 0);stroke-width:1;" d="M 390.933, 416.711 L 396.089, 409.6 L 398.222, 406.756 L 403.911, 409.067 L 406.756, 408.711 L 415.289, 396.978 L 413.689, 395.556 L 408, 393.067 L 408.711, 392.178 L 415.822, 382.578 L 443.733, 394.311 L 440.178, 399.111 L 436.267, 404.622 L 430.578, 402.311 L 428.267, 402.489 L 420.089, 413.689 L 420.978, 415.467 L 426.844, 417.956 L 425.244, 420.267 L 419.022, 428.622 L 390.933, 416.711 z "/>
<path style="fill:rgb(255, 255, 0);fill-opacity:0;fill-rule:evenodd;stroke:rgb(255, 35, 0);stroke-width:1;" d="M 358.222, 184.711 L 365.867, 174.4 L 373.156, 177.422 L 375.822, 173.689 L 375.822, 172.089 L 383.111, 162.489 L 376.711, 159.644 L 384.711, 148.978 L 410.844, 160.178 L 403.022, 171.022 L 396.267, 168.178 L 393.956, 171.378 L 392.711, 172.089 L 385.067, 182.578 L 392.889, 185.956 L 385.956, 195.022 L 385.244, 196.267 L 358.222, 184.711 z "/>
<path style="fill:rgb(255, 0, 0);fill-opacity:0;fill-rule:evenodd;stroke:rgb(255, 35, 0);stroke-width:1;" d="M 637.511, 103.644 L 645.333, 92.9778 L 652.444, 96 L 660.444, 84.9778 L 653.333, 81.9556 L 661.689, 70.5778 L 689.422, 82.4889 L 682.311, 92.0889 L 677.333, 89.9556 L 674.844, 90.4889 L 665.778, 102.756 L 666.844, 103.822 L 672, 106.133 L 665.244, 115.378 L 637.511, 103.644 z "/>
<path style="fill:rgb(0, 255, 0);fill-opacity:0;fill-rule:evenodd;stroke:rgb(255, 35, 0);stroke-width:1;" d="M 111.467, 779.911 L 113.422, 777.067 L 117.689, 771.2 L 120.178, 770.311 L 126.044, 761.956 L 129.956, 763.556 L 131.911, 760.711 L 128.178, 759.111 L 131.378, 754.489 L 131.2, 752.356 L 137.244, 743.822 L 159.822, 753.244 L 153.6, 761.778 L 150.933, 762.311 L 147.556, 766.933 L 145.778, 766.044 L 143.289, 769.422 L 145.244, 770.133 L 139.378, 778.311 L 140.089, 780.622 L 134.044, 789.156 L 111.467, 779.911 z "/>
<path style="fill:rgb(0, 0, 255);fill-opacity:0;fill-rule:evenodd;stroke:rgb(255, 35, 0);stroke-width:1;" d="M 385.956, 195.022 L 392.889, 185.956 L 400, 188.8 L 407.111, 179.2 L 407.289, 177.956 L 410.133, 174.044 L 403.022, 171.022 L 410.844, 160.178 L 426.133, 166.756 L 422.933, 170.844 L 435.733, 176.178 L 428.267, 186.311 L 422.4, 183.822 L 419.911, 184.356 L 412.8, 194.133 L 420.089, 197.156 L 413.156, 206.756 L 385.956, 195.022 z "/>
<path style="fill:rgb(255, 255, 0);fill-opacity:0;fill-rule:evenodd;stroke:rgb(255, 35, 0);stroke-width:1;" d="M 425.6, 353.956 L 432.711, 344.356 L 435.022, 344.533 L 440.889, 336.356 L 444.622, 337.956 L 446.222, 335.822 L 442.489, 334.222 L 445.333, 330.311 L 444.089, 328.533 L 450.489, 319.644 L 472.356, 328.889 L 447.467, 363.2 L 425.6, 353.956 z "/>
<path style="fill:rgb(255, 0, 0);fill-opacity:0;fill-rule:evenodd;stroke:rgb(255, 35, 0);stroke-width:1;" d="M 262.578, 561.422 L 270.222, 551.111 L 273.244, 552.533 L 275.733, 552.178 L 274.489, 550.578 L 291.556, 527.111 L 299.733, 530.844 L 313.244, 536.533 L 305.067, 547.733 L 298.133, 544.889 L 289.067, 557.156 L 290.667, 558.933 L 295.467, 561.067 L 287.467, 571.911 L 262.578, 561.422 z "/>
<path style="fill:rgb(0, 255, 0);fill-opacity:0;fill-rule:evenodd;stroke:rgb(255, 35, 0);stroke-width:1;" d="M 790.4, 723.556 L 807.467, 700.089 L 809.6, 700.978 L 811.556, 698.311 L 805.511, 695.822 L 812.622, 686.222 L 837.511, 696.711 L 829.156, 708.444 L 821.689, 705.244 L 813.156, 716.8 L 820.444, 720 L 816.178, 725.867 L 811.378, 732.444 L 790.4, 723.556 z "/>
<path style="fill:rgb(0, 0, 255);fill-opacity:0;fill-rule:evenodd;stroke:rgb(255, 35, 0);stroke-width:1;" d="M 369.6, 330.489 L 369.778, 330.133 L 377.422, 319.644 L 380.089, 319.111 L 383.289, 314.667 L 385.956, 315.733 L 389.689, 310.578 L 387.022, 309.333 L 397.333, 295.289 L 415.822, 303.111 L 404.267, 318.756 L 402.844, 318.222 L 400.178, 321.778 L 402.489, 322.844 L 398.933, 327.467 L 399.822, 329.422 L 392.178, 339.911 L 369.6, 330.489 z "/>
<path style="fill:rgb(255, 255, 0);fill-opacity:0;fill-rule:evenodd;stroke:rgb(255, 35, 0);stroke-width:1;" d="M 684.444, 540.622 L 699.2, 520.178 L 702.044, 521.422 L 704.533, 518.044 L 697.244, 515.022 L 704.356, 505.244 L 705.067, 504.356 L 730.844, 515.2 L 730.133, 516.089 L 722.667, 526.4 L 715.2, 523.2 L 705.956, 536 L 713.422, 539.2 L 705.956, 549.689 L 684.444, 540.622 z "/>
<path style="fill:rgb(255, 0, 0);fill-opacity:0;fill-rule:evenodd;stroke:rgb(255, 35, 0);stroke-width:1;" d="M 722.489, 556.444 L 731.378, 544 L 731.911, 544.178 L 737.778, 536.178 L 739.2, 536.889 L 741.511, 533.867 L 735.822, 531.378 L 743.111, 521.422 L 768.533, 532.089 L 762.133, 540.978 L 761.422, 542.044 L 754.133, 539.022 L 744.356, 552.533 L 747.733, 553.956 L 749.511, 551.467 L 753.422, 553.067 L 750.222, 557.511 L 744.356, 565.511 L 722.489, 556.444 z "/>
<path style="fill:rgb(0, 255, 0);fill-opacity:0;fill-rule:evenodd;stroke:rgb(255, 35, 0);stroke-width:1;" d="M 971.911, 245.156 L 980.267, 233.422 L 985.422, 235.556 L 987.733, 235.911 L 995.733, 224.711 L 995.733, 222.933 L 989.689, 220.444 L 996.444, 211.2 L 1021.51, 221.689 L 1014.76, 231.111 L 1009.42, 228.8 L 1006.93, 229.156 L 1000.89, 237.511 L 1001.24, 240 L 999.289, 242.667 L 1000.53, 244.267 L 1004.09, 245.867 L 999.467, 252.089 L 996.978, 255.644 L 971.911, 245.156 z "/>
<path style="fill:rgb(0, 0, 255);fill-opacity:0;fill-rule:evenodd;stroke:rgb(255, 35, 0);stroke-width:1;" d="M 507.378, 388.8 L 514.311, 379.2 L 520.533, 381.689 L 522.489, 378.844 L 520, 377.778 L 536.533, 354.844 L 556.8, 363.378 L 548.622, 374.756 L 540.8, 371.378 L 532.444, 384.356 L 540.622, 387.2 L 532.089, 399.111 L 507.378, 388.8 z "/>
<path style="fill:rgb(255, 255, 0);fill-opacity:0;fill-rule:evenodd;stroke:rgb(255, 35, 0);stroke-width:1;" d="M 197.689, 309.867 L 207.822, 296.178 L 257.956, 317.333 L 250.133, 328 L 247.111, 326.756 L 244.8, 330.133 L 233.778, 325.511 L 235.556, 323.022 L 228.622, 320 L 226.667, 320.533 L 223.289, 319.111 L 221.333, 319.822 L 216.533, 317.867 L 217.244, 315.733 L 212.267, 313.778 L 210.489, 315.2 L 198.933, 310.4 L 197.689, 309.867 z "/>
<path style="fill:rgb(255, 0, 0);fill-opacity:0;fill-rule:evenodd;stroke:rgb(255, 35, 0);stroke-width:1;" d="M 776.711, 277.689 L 789.511, 260.444 L 830.756, 278.044 L 817.956, 295.467 L 815.822, 294.578 L 804.978, 289.956 L 808.889, 284.444 L 794.133, 278.044 L 790.044, 283.556 L 788.622, 282.844 L 776.711, 277.689 z "/>
<path style="fill:rgb(0, 255, 0);fill-opacity:0;fill-rule:evenodd;stroke:rgb(255, 35, 0);stroke-width:1;" d="M 749.333, 488.533 L 754.667, 480.889 L 760, 483.022 L 769.6, 469.511 L 764.8, 467.556 L 770.311, 459.911 L 775.111, 461.689 L 782.756, 451.2 L 796.089, 456.533 L 773.333, 488.711 L 766.4, 498.667 L 752.178, 492.8 L 753.956, 490.489 L 749.333, 488.533 z "/>
<path style="fill:rgb(0, 0, 255);fill-opacity:0;fill-rule:evenodd;stroke:rgb(255, 35, 0);stroke-width:1;" d="M 485.333, 379.378 L 506.133, 350.933 L 528.178, 360.178 L 514.311, 379.2 L 507.378, 388.8 L 485.333, 379.378 z "/>
<path style="fill:rgb(255, 255, 0);fill-opacity:0;fill-rule:evenodd;stroke:rgb(255, 35, 0);stroke-width:1;" d="M 660.267, 172.267 L 676.089, 151.111 L 689.956, 157.156 L 692.267, 154.133 L 705.778, 160 L 687.644, 184.178 L 660.267, 172.267 z "/>
<path style="fill:rgb(255, 0, 0);fill-opacity:0;fill-rule:evenodd;stroke:rgb(255, 35, 0);stroke-width:1;" d="M 900.622, 273.778 L 906.667, 265.422 L 910.044, 266.844 L 928.533, 241.778 L 945.067, 248.889 L 942.044, 253.156 L 927.644, 272.711 L 927.289, 274.311 L 930.667, 275.733 L 924.444, 284.089 L 900.622, 273.778 z "/>
<path style="fill:rgb(0, 255, 0);fill-opacity:0;fill-rule:evenodd;stroke:rgb(255, 35, 0);stroke-width:1;" d="M 522.667, 109.156 L 538.311, 87.8222 L 566.933, 99.7333 L 566.044, 101.156 L 555.2, 116.089 L 551.289, 121.244 L 522.667, 109.156 z "/>
<path style="fill:rgb(0, 0, 255);fill-opacity:0;fill-rule:evenodd;stroke:rgb(255, 35, 0);stroke-width:1;" d="M 456, 717.333 L 470.756, 697.422 L 482.844, 702.578 L 480.533, 705.778 L 479.822, 708.267 L 488.178, 712 L 487.467, 712.889 L 491.911, 714.844 L 491.2, 715.556 L 494.756, 715.2 L 496.711, 712.533 L 495.467, 712 L 497.778, 708.978 L 509.511, 713.956 L 494.756, 733.867 L 492.978, 733.156 L 483.022, 728.889 L 486.4, 724.444 L 484.978, 722.489 L 473.6, 717.689 L 470.933, 719.111 L 468.444, 722.667 L 457.067, 717.867 L 456, 717.333 z "/>
<path style="fill:rgb(255, 255, 0);fill-opacity:0;fill-rule:evenodd;stroke:rgb(255, 35, 0);stroke-width:1;" d="M 425.244, 420.267 L 426.844, 417.956 L 436.267, 404.622 L 440.178, 399.111 L 468.8, 411.556 L 454.4, 431.467 L 453.867, 432 L 425.244, 420.267 z "/>
<path style="fill:rgb(255, 0, 0);fill-opacity:0;fill-rule:evenodd;stroke:rgb(255, 35, 0);stroke-width:1;" d="M 775.467, 578.667 L 781.333, 570.311 L 782.4, 568.889 L 784.711, 569.956 L 787.022, 566.756 L 789.867, 568 L 791.111, 566.222 L 788.267, 564.978 L 797.867, 551.822 L 795.378, 550.756 L 800, 544.356 L 819.911, 552.711 L 819.378, 553.6 L 815.289, 559.111 L 813.689, 558.4 L 804.089, 571.733 L 800.889, 570.311 L 799.644, 572.089 L 801.956, 573.156 L 799.822, 576.178 L 802.489, 577.244 L 795.556, 587.022 L 775.467, 578.667 z "/>
<path style="fill:rgb(0, 255, 0);fill-opacity:0;fill-rule:evenodd;stroke:rgb(255, 35, 0);stroke-width:1;" d="M 604.8, 513.778 L 618.667, 494.578 L 631.289, 499.733 L 628.444, 503.822 L 628.8, 505.956 L 640.711, 510.933 L 643.378, 510.222 L 646.4, 506.133 L 652.8, 508.8 L 657.778, 510.756 L 643.911, 530.133 L 642.489, 529.6 L 632.533, 525.333 L 635.022, 521.778 L 634.489, 519.644 L 622.578, 514.667 L 620.089, 515.2 L 617.244, 518.933 L 604.8, 513.778 z "/>
<path style="fill:rgb(0, 0, 255);fill-opacity:0;fill-rule:evenodd;stroke:rgb(255, 35, 0);stroke-width:1;" d="M 296.533, 713.422 L 313.6, 689.956 L 323.733, 675.911 L 339.2, 682.489 L 336.356, 686.4 L 330.133, 694.933 L 316.267, 714.133 L 311.822, 720 L 296.533, 713.422 z "/>
<path style="fill:rgb(255, 255, 0);fill-opacity:0;fill-rule:evenodd;stroke:rgb(255, 35, 0);stroke-width:1;" d="M 953.067, 237.333 L 969.6, 214.4 L 970.311, 212.267 L 966.933, 211.022 L 973.689, 201.778 L 975.111, 201.6 L 980.8, 203.911 L 980.267, 204.622 L 989.511, 208.533 L 990.044, 207.822 L 995.556, 210.133 L 996.444, 211.2 L 989.689, 220.444 L 989.511, 220.8 L 984.889, 218.844 L 982.756, 219.556 L 981.511, 221.156 L 983.289, 221.867 L 967.644, 243.556 L 953.067, 237.333 z "/>
<path style="fill:rgb(255, 0, 0);fill-opacity:0;fill-rule:evenodd;stroke:rgb(255, 35, 0);stroke-width:1;" d="M 766.4, 498.667 L 773.333, 488.711 L 776.356, 488.178 L 794.489, 462.578 L 806.578, 467.556 L 801.244, 475.022 L 815.111, 480.711 L 806.933, 492.267 L 795.2, 487.467 L 798.933, 482.311 L 793.6, 480.178 L 791.822, 482.844 L 792.356, 483.733 L 785.6, 493.333 L 786.489, 495.111 L 779.911, 504.178 L 766.4, 498.667 z "/>
<path style="fill:rgb(0, 255, 0);fill-opacity:0;fill-rule:evenodd;stroke:rgb(255, 35, 0);stroke-width:1;" d="M 316.444, 442.844 L 344.356, 404.444 L 359.289, 410.667 L 348.622, 425.244 L 331.378, 449.067 L 316.444, 442.844 z "/>
<path style="fill:rgb(0, 0, 255);fill-opacity:0;fill-rule:evenodd;stroke:rgb(255, 35, 0);stroke-width:1;" d="M 371.911, 112.178 L 381.333, 99.3778 L 382.4, 99.9111 L 385.6, 95.6444 L 391.467, 98.1333 L 394.133, 94.2222 L 406.4, 99.5556 L 406.756, 98.8444 L 417.244, 103.289 L 409.778, 113.244 L 405.156, 119.644 L 401.244, 117.867 L 397.867, 122.311 L 391.467, 119.644 L 391.111, 120.356 L 371.911, 112.178 z "/>
<path style="fill:rgb(255, 255, 0);fill-opacity:0;fill-rule:evenodd;stroke:rgb(255, 35, 0);stroke-width:1;" d="M 573.689, 418.133 L 585.422, 401.956 L 598.222, 407.289 L 599.289, 405.867 L 617.956, 413.689 L 619.733, 414.578 L 607.111, 432 L 573.689, 418.133 z "/>
<path style="fill:rgb(255, 0, 0);fill-opacity:0;fill-rule:evenodd;stroke:rgb(255, 35, 0);stroke-width:1;" d="M 860.978, 762.311 L 868.8, 751.467 L 884.444, 758.044 L 880, 764.267 L 893.156, 769.778 L 894.933, 767.467 L 896.533, 768.178 L 899.2, 764.267 L 913.067, 770.133 L 900.444, 787.378 L 888.711, 782.4 L 890.311, 780.267 L 888.533, 779.556 L 889.067, 778.844 L 864.356, 768.356 L 866.844, 764.8 L 860.978, 762.311 z "/>
<path style="fill:rgb(0, 255, 0);fill-opacity:0;fill-rule:evenodd;stroke:rgb(255, 35, 0);stroke-width:1;" d="M 919.111, 223.644 L 934.933, 201.6 L 936, 201.956 L 938.311, 198.756 L 933.333, 196.622 L 939.911, 187.556 L 962.311, 196.978 L 955.2, 206.933 L 950.4, 204.8 L 946.844, 204.267 L 944.711, 207.111 L 940.622, 212.8 L 941.333, 213.156 L 938.133, 217.6 L 939.556, 219.556 L 944.533, 221.511 L 937.6, 231.289 L 919.111, 223.644 z "/>
<path style="fill:rgb(0, 0, 255);fill-opacity:0;fill-rule:evenodd;stroke:rgb(255, 35, 0);stroke-width:1;" d="M 604.622, 148.978 L 611.378, 139.733 L 622.044, 124.444 L 644.978, 133.689 L 632.889, 150.4 L 627.022, 158.578 L 604.622, 148.978 z "/>
<path style="fill:rgb(255, 255, 0);fill-opacity:0;fill-rule:evenodd;stroke:rgb(255, 35, 0);stroke-width:1;" d="M 546.844, 345.6 L 551.289, 339.378 L 553.422, 340.444 L 559.822, 331.556 L 561.6, 332.267 L 563.911, 328.889 L 563.2, 327.111 L 571.556, 315.556 L 569.244, 314.667 L 573.689, 308.622 L 592.178, 316.267 L 587.733, 322.489 L 585.422, 321.422 L 576.356, 334.044 L 572.8, 332.622 L 570.489, 336 L 573.867, 337.422 L 567.289, 346.489 L 569.6, 347.556 L 565.333, 353.422 L 546.844, 345.6 z "/>
<path style="fill:rgb(255, 0, 0);fill-opacity:0;fill-rule:evenodd;stroke:rgb(255, 35, 0);stroke-width:1;" d="M 528.711, 337.956 L 533.156, 331.911 L 535.289, 332.622 L 541.867, 323.733 L 545.244, 325.156 L 547.556, 322.133 L 544, 320.533 L 553.244, 307.911 L 551.111, 307.022 L 555.556, 300.978 L 573.689, 308.622 L 569.244, 314.667 L 566.933, 313.778 L 558.756, 325.156 L 556.267, 325.689 L 553.778, 329.067 L 555.2, 329.6 L 548.8, 338.489 L 551.289, 339.378 L 546.844, 345.6 L 528.711, 337.956 z "/>
<path style="fill:rgb(0, 255, 0);fill-opacity:0;fill-rule:evenodd;stroke:rgb(255, 35, 0);stroke-width:1;" d="M 367.822, 667.556 L 375.644, 656.889 L 426.133, 678.044 L 418.311, 688.889 L 368.178, 667.733 L 367.822, 667.556 z "/>
<path style="fill:rgb(0, 0, 255);fill-opacity:0;fill-rule:evenodd;stroke:rgb(255, 35, 0);stroke-width:1;" d="M 607.644, 288.711 L 636.444, 249.067 L 650.133, 254.756 L 635.2, 275.378 L 621.156, 294.4 L 607.644, 288.711 z "/>
<path style="fill:rgb(255, 255, 0);fill-opacity:0;fill-rule:evenodd;stroke:rgb(255, 35, 0);stroke-width:1;" d="M 302.578, 436.978 L 321.778, 410.489 L 330.489, 398.578 L 344.356, 404.444 L 316.444, 442.844 L 302.578, 436.978 z "/>
<path style="fill:rgb(255, 0, 0);fill-opacity:0;fill-rule:evenodd;stroke:rgb(255, 35, 0);stroke-width:1;" d="M 991.822, 593.244 L 1003.2, 577.778 L 1015.47, 582.933 L 1012.44, 587.022 L 1013.51, 589.511 L 1023.82, 593.778 L 1026.84, 593.244 L 1029.87, 589.156 L 1041.96, 594.311 L 1030.58, 609.6 L 991.822, 593.244 z "/>
<path style="fill:rgb(0, 255, 0);fill-opacity:0;fill-rule:evenodd;stroke:rgb(255, 35, 0);stroke-width:1;" d="M 247.822, 494.4 L 266.667, 468.622 L 263.289, 467.022 L 270.933, 456.533 L 290.311, 464.711 L 282.489, 475.2 L 278.756, 473.778 L 260.089, 499.556 L 247.822, 494.4 z "/>
<path style="fill:rgb(0, 0, 255);fill-opacity:0;fill-rule:evenodd;stroke:rgb(255, 35, 0);stroke-width:1;" d="M 702.933, 190.4 L 731.2, 151.467 L 744.533, 157.156 L 738.311, 165.689 L 716.267, 195.911 L 702.933, 190.4 z "/>
<path style="fill:rgb(255, 255, 0);fill-opacity:0;fill-rule:evenodd;stroke:rgb(255, 35, 0);stroke-width:1;" d="M 165.333, 356.622 L 176.711, 341.156 L 189.333, 346.489 L 187.378, 349.156 L 187.733, 350.933 L 191.111, 350.4 L 194.489, 351.822 L 196.089, 349.333 L 200.178, 351.111 L 198.222, 353.778 L 219.022, 362.489 L 211.911, 372.267 L 183.644, 360.356 L 182.4, 358.222 L 179.733, 358.933 L 177.6, 361.778 L 165.333, 356.622 z "/>
<path style="fill:rgb(255, 0, 0);fill-opacity:0;fill-rule:evenodd;stroke:rgb(255, 35, 0);stroke-width:1;" d="M 605.511, 564.8 L 626.489, 535.644 L 627.2, 536 L 635.378, 539.378 L 643.911, 542.933 L 642.311, 545.244 L 630.044, 562.311 L 623.111, 572.089 L 605.511, 564.8 z "/>
<path style="fill:rgb(0, 255, 0);fill-opacity:0;fill-rule:evenodd;stroke:rgb(255, 35, 0);stroke-width:1;" d="M 118.933, 581.156 L 137.422, 555.911 L 133.689, 554.311 L 140.8, 544.711 L 160.711, 553.067 L 153.6, 562.667 L 149.689, 561.067 L 131.2, 586.311 L 118.933, 581.156 z "/>
<path style="fill:rgb(0, 0, 255);fill-opacity:0;fill-rule:evenodd;stroke:rgb(255, 35, 0);stroke-width:1;" d="M 513.778, 336.533 L 543.289, 295.822 L 555.556, 300.978 L 551.111, 307.022 L 533.156, 331.911 L 528.711, 337.956 L 526.044, 341.689 L 513.778, 336.533 z "/>
<path style="fill:rgb(255, 255, 0);fill-opacity:0;fill-rule:evenodd;stroke:rgb(255, 35, 0);stroke-width:1;" d="M 375.644, 656.889 L 382.933, 646.933 L 433.244, 668.267 L 426.133, 678.044 L 375.644, 656.889 z "/>
<path style="fill:rgb(255, 0, 0);fill-opacity:0;fill-rule:evenodd;stroke:rgb(255, 35, 0);stroke-width:1;" d="M 777.956, 87.2889 L 780.444, 83.7333 L 797.333, 59.9111 L 800, 56.1778 L 816.178, 62.9333 L 801.067, 84.0889 L 794.133, 94.0444 L 777.956, 87.2889 z "/>
<path style="fill:rgb(0, 255, 0);fill-opacity:0;fill-rule:evenodd;stroke:rgb(255, 35, 0);stroke-width:1;" d="M 1022.4, 325.156 L 1040.89, 299.733 L 1046.93, 291.378 L 1061.51, 297.6 L 1037.16, 331.378 L 1022.4, 325.156 z "/>
<path style="fill:rgb(0, 0, 255);fill-opacity:0;fill-rule:evenodd;stroke:rgb(255, 35, 0);stroke-width:1;" d="M 764.444, 294.4 L 776.711, 277.689 L 788.622, 282.844 L 785.6, 287.111 L 787.022, 288.889 L 798.044, 293.689 L 800.356, 293.333 L 803.556, 289.244 L 804.978, 289.956 L 815.822, 294.578 L 803.556, 311.111 L 791.644, 305.956 L 795.733, 300.267 L 780.978, 294.044 L 776.711, 299.733 L 764.444, 294.4 z "/>
<path style="fill:rgb(255, 255, 0);fill-opacity:0;fill-rule:evenodd;stroke:rgb(255, 35, 0);stroke-width:1;" d="M 884.444, 625.778 L 892.089, 615.467 L 894.933, 616.711 L 897.067, 613.511 L 899.378, 614.4 L 901.689, 611.378 L 899.378, 610.489 L 904.711, 603.022 L 901.867, 601.778 L 908.978, 591.822 L 909.689, 590.933 L 926.756, 598.044 L 918.933, 608.889 L 916.444, 608 L 913.778, 611.556 L 912, 610.844 L 907.733, 616.889 L 909.511, 617.6 L 903.289, 626.311 L 905.778, 627.2 L 901.511, 633.067 L 884.444, 625.778 z "/>
<path style="fill:rgb(255, 0, 0);fill-opacity:0;fill-rule:evenodd;stroke:rgb(255, 35, 0);stroke-width:1;" d="M 918.044, 639.822 L 925.333, 629.867 L 927.822, 630.933 L 930.311, 627.378 L 932.978, 628.444 L 935.111, 625.422 L 932.8, 624.356 L 938.133, 616.889 L 935.467, 615.822 L 943.289, 604.8 L 960.356, 611.911 L 959.644, 612.978 L 952.356, 622.933 L 950.222, 622.044 L 947.022, 626.311 L 944.711, 625.422 L 940.444, 631.289 L 942.933, 632.178 L 936.533, 641.067 L 938.133, 641.6 L 934.4, 646.578 L 918.044, 639.822 z "/>
<path style="fill:rgb(0, 255, 0);fill-opacity:0;fill-rule:evenodd;stroke:rgb(255, 35, 0);stroke-width:1;" d="M 901.511, 633.067 L 905.778, 627.2 L 907.911, 628.089 L 914.133, 619.556 L 915.733, 620.267 L 920.178, 614.222 L 918.4, 613.511 L 921.067, 609.778 L 918.933, 608.889 L 926.756, 598.044 L 943.289, 604.8 L 935.467, 615.822 L 932.978, 614.756 L 927.644, 622.222 L 925.333, 621.156 L 923.022, 624.356 L 925.511, 625.422 L 923.022, 628.978 L 925.333, 629.867 L 918.044, 639.822 L 901.511, 633.067 z "/>
<path style="fill:rgb(0, 0, 255);fill-opacity:0;fill-rule:evenodd;stroke:rgb(255, 35, 0);stroke-width:1;" d="M 557.333, 208.711 L 564.622, 198.756 L 566.756, 197.689 L 569.6, 193.778 L 571.911, 194.844 L 575.111, 190.578 L 573.333, 189.689 L 576, 186.133 L 575.111, 184.178 L 582.756, 173.689 L 583.467, 172.978 L 598.756, 179.556 L 590.756, 190.222 L 588.089, 190.756 L 585.244, 194.667 L 582.4, 193.422 L 579.2, 197.867 L 582.044, 199.111 L 579.2, 202.844 L 579.911, 205.333 L 572.8, 215.289 L 557.333, 208.711 z "/>
<path style="fill:rgb(255, 255, 0);fill-opacity:0;fill-rule:evenodd;stroke:rgb(255, 35, 0);stroke-width:1;" d="M 404.622, 619.733 L 405.333, 618.667 L 406.756, 619.378 L 412.444, 611.556 L 421.511, 615.467 L 422.222, 617.244 L 430.4, 620.8 L 432.533, 620.089 L 437.867, 622.4 L 438.578, 624.178 L 446.578, 627.556 L 448.889, 627.2 L 459.2, 631.644 L 452.444, 640.889 L 449.422, 641.422 L 406.222, 622.933 L 404.622, 619.733 z "/>
<path style="fill:rgb(255, 0, 0);fill-opacity:0;fill-rule:evenodd;stroke:rgb(255, 35, 0);stroke-width:1;" d="M 418.844, 610.667 L 425.778, 601.244 L 452.8, 612.622 L 453.511, 613.867 L 456.356, 613.156 L 458.311, 610.667 L 470.756, 616 L 459.2, 631.644 L 448.889, 627.2 L 446.756, 626.311 L 448.711, 623.644 L 447.644, 621.867 L 445.867, 622.222 L 418.844, 610.667 z "/>
<path style="fill:rgb(0, 255, 0);fill-opacity:0;fill-rule:evenodd;stroke:rgb(255, 35, 0);stroke-width:1;" d="M 430.222, 595.2 L 437.333, 585.6 L 464.356, 597.156 L 465.244, 597.867 L 467.733, 597.689 L 469.511, 595.556 L 481.956, 600.711 L 470.756, 616 L 458.311, 610.667 L 460.267, 608 L 458.844, 606.578 L 457.244, 606.756 L 430.222, 595.2 z "/>
<path style="fill:rgb(0, 0, 255);fill-opacity:0;fill-rule:evenodd;stroke:rgb(255, 35, 0);stroke-width:1;" d="M 526.4, 195.378 L 533.867, 185.244 L 536.533, 185.067 L 539.2, 181.689 L 540.8, 182.4 L 544.533, 177.422 L 542.756, 176.711 L 545.244, 173.156 L 544.178, 171.2 L 552.533, 160 L 567.822, 166.578 L 567.289, 167.111 L 559.822, 177.422 L 557.156, 178.133 L 554.311, 181.867 L 551.467, 180.8 L 548.444, 185.067 L 551.289, 186.311 L 548.444, 190.044 L 549.333, 192 L 541.867, 201.956 L 526.4, 195.378 z "/>
<path style="fill:rgb(255, 255, 0);fill-opacity:0;fill-rule:evenodd;stroke:rgb(255, 35, 0);stroke-width:1;" d="M 703.467, 553.067 L 705.956, 549.689 L 713.422, 539.2 L 722.667, 526.4 L 730.133, 516.089 L 743.111, 521.422 L 735.822, 531.378 L 716.444, 558.578 L 703.467, 553.067 z "/>
<path style="fill:rgb(255, 0, 0);fill-opacity:0;fill-rule:evenodd;stroke:rgb(255, 35, 0);stroke-width:1;" d="M 541.867, 201.956 L 549.333, 192 L 551.644, 191.289 L 554.133, 187.911 L 556.444, 188.8 L 560, 184 L 558.044, 183.111 L 560.533, 179.556 L 559.822, 177.422 L 567.289, 167.111 L 582.756, 173.689 L 575.111, 184.178 L 572.8, 184.711 L 569.778, 188.8 L 566.578, 187.378 L 563.733, 191.289 L 566.933, 192.711 L 564.089, 196.622 L 564.622, 198.756 L 557.333, 208.711 L 541.867, 201.956 z "/>
<path style="fill:rgb(0, 255, 0);fill-opacity:0;fill-rule:evenodd;stroke:rgb(255, 35, 0);stroke-width:1;" d="M 627.022, 158.578 L 632.889, 150.4 L 635.556, 150.222 L 647.289, 133.511 L 646.222, 131.733 L 651.911, 123.556 L 668.622, 130.489 L 662.933, 138.667 L 658.667, 138.489 L 655.644, 142.933 L 653.689, 142.222 L 648.178, 149.867 L 650.489, 150.933 L 647.467, 155.022 L 649.422, 157.333 L 643.556, 165.333 L 627.022, 158.578 z "/>
<path style="fill:rgb(0, 0, 255);fill-opacity:0;fill-rule:evenodd;stroke:rgb(255, 35, 0);stroke-width:1;" d="M 717.867, 612.8 L 718.578, 611.911 L 725.867, 601.778 L 728.533, 598.044 L 735.467, 588.622 L 741.689, 579.556 L 756.622, 585.778 L 748.978, 596.444 L 746.667, 596.8 L 739.733, 606.4 L 740.8, 607.822 L 732.8, 619.022 L 717.867, 612.8 z "/>
<path style="fill:rgb(255, 255, 0);fill-opacity:0;fill-rule:evenodd;stroke:rgb(255, 35, 0);stroke-width:1;" d="M 431.111, 159.289 L 433.778, 155.733 L 438.222, 149.689 L 440.533, 149.156 L 443.378, 145.422 L 444.8, 145.956 L 448.533, 140.8 L 447.289, 140.267 L 452.444, 132.978 L 451.733, 131.556 L 452.444, 130.489 L 459.2, 121.244 L 473.422, 127.289 L 466.489, 136.889 L 463.644, 137.778 L 457.956, 145.244 L 455.822, 144.356 L 452.8, 148.622 L 454.933, 149.511 L 451.733, 153.956 L 452.444, 155.733 L 445.333, 165.333 L 431.111, 159.289 z "/>
<path style="fill:rgb(255, 0, 0);fill-opacity:0;fill-rule:evenodd;stroke:rgb(255, 35, 0);stroke-width:1;" d="M 752.533, 310.4 L 764.444, 294.4 L 776.711, 299.733 L 772.8, 305.067 L 787.556, 311.467 L 791.644, 305.956 L 803.556, 311.111 L 791.644, 327.111 L 779.733, 321.956 L 782.756, 318.044 L 781.689, 316.089 L 770.311, 311.111 L 767.644, 311.822 L 764.8, 315.556 L 754.311, 311.111 L 752.533, 310.4 z "/>
<path style="fill:rgb(0, 255, 0);fill-opacity:0;fill-rule:evenodd;stroke:rgb(255, 35, 0);stroke-width:1;" d="M 211.911, 682.844 L 212.622, 681.778 L 219.556, 672.356 L 222.044, 672 L 233.244, 656.533 L 232.533, 654.578 L 239.289, 645.333 L 239.644, 645.511 L 253.156, 651.2 L 246.578, 660.444 L 244.089, 661.156 L 232.711, 676.622 L 233.244, 678.578 L 225.956, 688.711 L 211.911, 682.844 z "/>
<path style="fill:rgb(0, 0, 255);fill-opacity:0;fill-rule:evenodd;stroke:rgb(255, 35, 0);stroke-width:1;" d="M 225.956, 688.711 L 233.244, 678.578 L 235.911, 677.867 L 247.289, 662.4 L 246.578, 660.444 L 253.156, 651.2 L 267.2, 657.244 L 260.622, 666.311 L 257.778, 666.844 L 246.578, 682.489 L 247.289, 684.622 L 240, 694.578 L 225.956, 688.711 z "/>
<path style="fill:rgb(255, 255, 0);fill-opacity:0;fill-rule:evenodd;stroke:rgb(255, 35, 0);stroke-width:1;" d="M 665.244, 115.378 L 672, 106.133 L 682.311, 92.0889 L 689.422, 82.4889 L 703.467, 88.3556 L 679.289, 121.422 L 665.244, 115.378 z "/>
<path style="fill:rgb(255, 0, 0);fill-opacity:0;fill-rule:evenodd;stroke:rgb(255, 35, 0);stroke-width:1;" d="M 152.356, 374.578 L 158.933, 365.689 L 207.289, 385.956 L 210.667, 387.378 L 204.444, 395.911 L 204.089, 396.267 L 152.356, 374.578 z "/>
<path style="fill:rgb(0, 255, 0);fill-opacity:0;fill-rule:evenodd;stroke:rgb(255, 35, 0);stroke-width:1;" d="M 759.111, 572.622 L 765.511, 563.733 L 768.178, 563.733 L 771.378, 559.111 L 773.156, 559.822 L 777.067, 554.311 L 775.644, 553.778 L 778.844, 549.333 L 777.244, 547.378 L 784.178, 537.778 L 800, 544.356 L 795.378, 550.756 L 793.244, 553.778 L 790.044, 554.133 L 787.022, 558.578 L 785.067, 557.689 L 781.156, 563.2 L 783.111, 563.911 L 779.733, 568.533 L 781.333, 570.311 L 775.467, 578.667 L 774.933, 579.2 L 759.111, 572.622 z "/>
<path style="fill:rgb(0, 0, 255);fill-opacity:0;fill-rule:evenodd;stroke:rgb(255, 35, 0);stroke-width:1;" d="M 679.289, 121.422 L 703.467, 88.3556 L 718.044, 94.5778 L 711.644, 103.289 L 707.911, 105.244 L 699.733, 116.267 L 700.622, 118.4 L 698.844, 120.889 L 693.867, 127.644 L 679.289, 121.422 z "/>
<path style="fill:rgb(255, 255, 0);fill-opacity:0;fill-rule:evenodd;stroke:rgb(255, 35, 0);stroke-width:1;" d="M 506.311, 245.867 L 512.711, 237.333 L 516.267, 237.156 L 521.6, 230.044 L 523.2, 230.756 L 526.578, 226.133 L 524.8, 225.422 L 527.289, 222.222 L 525.689, 219.733 L 526.222, 219.022 L 531.911, 211.378 L 547.733, 218.133 L 542.222, 225.778 L 541.511, 226.667 L 537.956, 226.667 L 526.756, 241.778 L 528.711, 244.089 L 522.311, 252.8 L 506.311, 245.867 z "/>
<path style="fill:rgb(255, 0, 0);fill-opacity:0;fill-rule:evenodd;stroke:rgb(255, 35, 0);stroke-width:1;" d="M 350.933, 542.222 L 379.2, 503.289 L 390.933, 508.267 L 362.667, 547.2 L 350.933, 542.222 z "/>
<path style="fill:rgb(0, 255, 0);fill-opacity:0;fill-rule:evenodd;stroke:rgb(255, 35, 0);stroke-width:1;" d="M 744, 566.222 L 744.356, 565.511 L 750.222, 557.511 L 753.067, 557.333 L 763.378, 542.933 L 762.133, 540.978 L 768.533, 532.089 L 768.889, 531.556 L 784.178, 537.778 L 777.244, 547.378 L 774.578, 547.556 L 771.378, 552 L 769.778, 551.289 L 765.867, 556.8 L 767.644, 557.511 L 764.267, 562.133 L 765.511, 563.733 L 759.111, 572.622 L 744, 566.222 z "/>
<path style="fill:rgb(0, 0, 255);fill-opacity:0;fill-rule:evenodd;stroke:rgb(255, 35, 0);stroke-width:1;" d="M 190.222, 322.311 L 198.933, 310.4 L 210.489, 315.2 L 209.778, 317.511 L 214.578, 319.467 L 216.533, 317.867 L 221.333, 319.822 L 221.511, 321.6 L 242.311, 330.311 L 235.378, 339.911 L 230.044, 337.778 L 229.333, 338.844 L 227.911, 338.311 L 224, 336.533 L 225.244, 335.111 L 216.178, 331.2 L 217.067, 330.133 L 215.467, 329.422 L 213.511, 332.089 L 208.178, 329.956 L 208.533, 327.467 L 203.733, 325.511 L 201.422, 327.111 L 190.222, 322.311 z "/>
<path style="fill:rgb(255, 255, 0);fill-opacity:0;fill-rule:evenodd;stroke:rgb(255, 35, 0);stroke-width:1;" d="M 443.733, 167.644 L 445.333, 165.333 L 452.444, 155.733 L 466.489, 136.889 L 473.422, 127.289 L 484.622, 132.089 L 464, 160.178 L 454.933, 172.444 L 443.733, 167.644 z "/>
<path style="fill:rgb(255, 0, 0);fill-opacity:0;fill-rule:evenodd;stroke:rgb(255, 35, 0);stroke-width:1;" d="M 376.178, 412.267 L 382.4, 403.911 L 384.533, 403.022 L 395.022, 388.444 L 395.022, 386.311 L 401.956, 376.711 L 415.822, 382.578 L 408.711, 392.178 L 406.4, 393.422 L 395.911, 407.822 L 396.089, 409.6 L 390.933, 416.711 L 389.867, 418.133 L 376.178, 412.267 z "/>
<path style="fill:rgb(0, 255, 0);fill-opacity:0;fill-rule:evenodd;stroke:rgb(255, 35, 0);stroke-width:1;" d="M 999.467, 252.089 L 1004.09, 245.867 L 1014.76, 231.111 L 1021.51, 221.689 L 1036.27, 227.911 L 1035.73, 228.8 L 1017.42, 254.044 L 1014.22, 258.311 L 999.467, 252.089 z "/>
<path style="fill:rgb(0, 0, 255);fill-opacity:0;fill-rule:evenodd;stroke:rgb(255, 35, 0);stroke-width:1;" d="M 338.844, 538.667 L 367.289, 499.556 L 368, 498.489 L 379.2, 503.289 L 350.933, 542.222 L 350.044, 543.289 L 338.844, 538.667 z "/>
<path style="fill:rgb(255, 255, 0);fill-opacity:0;fill-rule:evenodd;stroke:rgb(255, 35, 0);stroke-width:1;" d="M 732.267, 619.733 L 732.8, 619.022 L 740.8, 607.822 L 742.933, 607.644 L 749.867, 598.222 L 748.978, 596.444 L 756.622, 585.778 L 770.844, 591.822 L 763.556, 601.956 L 760.889, 602.489 L 753.956, 612.089 L 754.844, 614.578 L 746.844, 625.778 L 732.267, 619.733 z "/>
<path style="fill:rgb(255, 0, 0);fill-opacity:0;fill-rule:evenodd;stroke:rgb(255, 35, 0);stroke-width:1;" d="M 487.467, 237.867 L 499.733, 221.333 L 505.6, 223.822 L 513.244, 213.511 L 526.222, 219.022 L 525.689, 219.733 L 512.711, 237.333 L 506.311, 245.867 L 487.467, 237.867 z "/>
<path style="fill:rgb(0, 255, 0);fill-opacity:0;fill-rule:evenodd;stroke:rgb(255, 35, 0);stroke-width:1;" d="M 537.956, 260.089 L 538.311, 259.556 L 545.422, 249.956 L 547.022, 249.956 L 552.889, 241.778 L 558.044, 235.022 L 557.689, 233.422 L 564.622, 224 L 578.489, 229.867 L 571.733, 239.111 L 569.422, 239.289 L 566.4, 243.2 L 563.733, 242.133 L 560.711, 246.4 L 563.378, 247.644 L 558.4, 254.4 L 559.111, 256.178 L 552.356, 265.244 L 551.822, 265.956 L 537.956, 260.089 z "/>
<path style="fill:rgb(0, 0, 255);fill-opacity:0;fill-rule:evenodd;stroke:rgb(255, 35, 0);stroke-width:1;" d="M 362.133, 406.4 L 363.2, 404.978 L 368.178, 398.222 L 370.311, 397.689 L 381.511, 382.4 L 380.978, 380.444 L 387.2, 372.089 L 388.089, 370.844 L 401.956, 376.711 L 395.022, 386.311 L 392, 387.2 L 381.511, 401.778 L 382.4, 403.911 L 376.178, 412.267 L 362.133, 406.4 z "/>
<path style="fill:rgb(255, 255, 0);fill-opacity:0;fill-rule:evenodd;stroke:rgb(255, 35, 0);stroke-width:1;" d="M 613.333, 710.222 L 620.444, 700.444 L 623.111, 700.444 L 635.556, 683.733 L 633.956, 682.133 L 640, 673.956 L 654.044, 680 L 648.356, 687.822 L 646.4, 688 L 642.133, 693.689 L 640.889, 693.156 L 638.044, 697.067 L 639.289, 697.6 L 633.956, 704.889 L 634.311, 706.667 L 627.2, 716.267 L 613.333, 710.222 z "/>
<path style="fill:rgb(255, 0, 0);fill-opacity:0;fill-rule:evenodd;stroke:rgb(255, 35, 0);stroke-width:1;" d="M 418.489, 149.333 L 425.067, 140.444 L 427.911, 140.089 L 431.289, 135.644 L 433.778, 136.711 L 437.689, 131.556 L 435.022, 130.311 L 438.044, 126.4 L 436.978, 124.444 L 444.089, 114.844 L 459.2, 121.244 L 452.444, 130.489 L 449.067, 131.2 L 446.044, 135.289 L 444.444, 134.756 L 440.711, 139.733 L 442.311, 140.444 L 439.111, 144.889 L 440.356, 146.844 L 438.222, 149.689 L 433.778, 155.733 L 418.489, 149.333 z "/>
<path style="fill:rgb(0, 255, 0);fill-opacity:0;fill-rule:evenodd;stroke:rgb(255, 35, 0);stroke-width:1;" d="M 794.133, 94.0444 L 801.067, 84.0889 L 812.444, 88.7111 L 846.222, 102.578 L 839.111, 112.533 L 794.133, 94.0444 z "/>
<path style="fill:rgb(0, 0, 255);fill-opacity:0;fill-rule:evenodd;stroke:rgb(255, 35, 0);stroke-width:1;" d="M 134.222, 280.533 L 143.467, 267.556 L 177.244, 281.778 L 167.822, 294.578 L 136.711, 281.6 L 134.222, 280.533 z "/>
<path style="fill:rgb(255, 255, 0);fill-opacity:0;fill-rule:evenodd;stroke:rgb(255, 35, 0);stroke-width:1;" d="M 599.822, 704.356 L 606.933, 694.756 L 609.067, 694.4 L 621.511, 677.867 L 620.444, 676.444 L 626.489, 668.267 L 640, 673.956 L 633.956, 682.133 L 632, 682.133 L 627.911, 687.467 L 626.667, 686.933 L 623.822, 690.844 L 625.067, 691.378 L 619.556, 699.022 L 620.444, 700.444 L 613.333, 710.222 L 599.822, 704.356 z "/>
<path style="fill:rgb(255, 0, 0);fill-opacity:0;fill-rule:evenodd;stroke:rgb(255, 35, 0);stroke-width:1;" d="M 953.067, 577.067 L 971.022, 553.067 L 979.733, 541.156 L 991.822, 546.133 L 984.889, 555.378 L 965.156, 582.222 L 953.067, 577.067 z "/>
<path style="fill:rgb(0, 255, 0);fill-opacity:0;fill-rule:evenodd;stroke:rgb(255, 35, 0);stroke-width:1;" d="M 392.533, 136.711 L 399.289, 127.467 L 401.956, 127.111 L 411.022, 114.844 L 409.778, 113.244 L 417.244, 103.289 L 431.289, 109.333 L 423.822, 119.289 L 421.867, 119.289 L 412.622, 131.733 L 413.333, 133.333 L 406.578, 142.756 L 392.533, 136.711 z "/>
<path style="fill:rgb(0, 0, 255);fill-opacity:0;fill-rule:evenodd;stroke:rgb(255, 35, 0);stroke-width:1;" d="M 552.356, 265.244 L 559.111, 256.178 L 563.556, 250.133 L 567.644, 251.733 L 571.022, 247.289 L 568.889, 246.4 L 572.267, 241.6 L 571.733, 239.111 L 578.489, 229.867 L 592.356, 235.911 L 585.6, 245.156 L 583.111, 245.333 L 579.2, 250.844 L 576.889, 249.956 L 575.111, 252.444 L 574.578, 253.156 L 576, 253.689 L 571.733, 259.556 L 573.156, 262.044 L 566.4, 271.289 L 552.356, 265.244 z "/>
<path style="fill:rgb(255, 255, 0);fill-opacity:0;fill-rule:evenodd;stroke:rgb(255, 35, 0);stroke-width:1;" d="M 273.956, 425.778 L 281.067, 416 L 283.2, 415.111 L 294.044, 400 L 293.867, 398.756 L 299.556, 390.933 L 313.244, 396.622 L 309.333, 401.778 L 307.733, 401.067 L 294.222, 419.556 L 294.933, 421.689 L 287.822, 431.467 L 273.956, 425.778 z "/>
<path style="fill:rgb(255, 0, 0);fill-opacity:0;fill-rule:evenodd;stroke:rgb(255, 35, 0);stroke-width:1;" d="M 820.444, 521.956 L 828.8, 511.289 L 831.111, 511.111 L 837.689, 502.756 L 839.111, 503.289 L 844.267, 496.711 L 841.067, 495.111 L 848, 486.044 L 861.156, 491.911 L 853.156, 502.222 L 850.311, 500.978 L 846.044, 506.489 L 848, 507.378 L 841.6, 515.733 L 842.489, 517.689 L 834.311, 528.178 L 820.444, 521.956 z "/>
<path style="fill:rgb(0, 255, 0);fill-opacity:0;fill-rule:evenodd;stroke:rgb(255, 35, 0);stroke-width:1;" d="M 807.289, 516.089 L 815.289, 505.956 L 817.244, 505.422 L 823.822, 496.889 L 825.067, 497.422 L 829.156, 492.089 L 826.311, 490.844 L 834.489, 480 L 848, 486.044 L 841.067, 495.111 L 837.867, 493.689 L 832.533, 500.622 L 834.311, 501.333 L 827.911, 509.867 L 828.8, 511.289 L 820.444, 521.956 L 807.289, 516.089 z "/>
<path style="fill:rgb(0, 0, 255);fill-opacity:0;fill-rule:evenodd;stroke:rgb(255, 35, 0);stroke-width:1;" d="M 158.933, 365.689 L 165.333, 356.622 L 177.6, 361.778 L 203.022, 372.444 L 202.667, 372.978 L 213.511, 377.422 L 207.289, 385.956 L 158.933, 365.689 z "/>
<path style="fill:rgb(255, 255, 0);fill-opacity:0;fill-rule:evenodd;stroke:rgb(255, 35, 0);stroke-width:1;" d="M 310.044, 722.667 L 311.822, 720 L 316.267, 714.133 L 319.111, 713.422 L 324.8, 705.422 L 326.756, 706.133 L 329.6, 702.222 L 327.822, 701.333 L 330.667, 697.422 L 330.133, 694.933 L 336.356, 686.4 L 350.222, 692.267 L 344, 700.8 L 341.511, 701.511 L 338.311, 705.956 L 336.356, 705.067 L 333.333, 709.156 L 335.289, 710.044 L 329.6, 717.867 L 329.6, 719.822 L 323.378, 728.356 L 310.044, 722.667 z "/>
<path style="fill:rgb(255, 0, 0);fill-opacity:0;fill-rule:evenodd;stroke:rgb(255, 35, 0);stroke-width:1;" d="M 741.511, 168.356 L 748.8, 158.4 L 760.533, 163.378 L 791.289, 176.356 L 784, 186.489 L 745.422, 169.956 L 741.511, 168.356 z "/>
<path style="fill:rgb(0, 255, 0);fill-opacity:0;fill-rule:evenodd;stroke:rgb(255, 35, 0);stroke-width:1;" d="M 428.267, 491.2 L 428.978, 490.133 L 446.4, 466.311 L 450.311, 460.978 L 464.356, 466.844 L 442.311, 497.067 L 428.267, 491.2 z "/>
<path style="fill:rgb(0, 0, 255);fill-opacity:0;fill-rule:evenodd;stroke:rgb(255, 35, 0);stroke-width:1;" d="M 935.289, 234.489 L 937.6, 231.289 L 944.533, 221.511 L 955.2, 206.933 L 962.311, 196.978 L 973.689, 201.778 L 966.933, 211.022 L 946.489, 239.289 L 935.289, 234.489 z "/>
<path style="fill:rgb(255, 255, 0);fill-opacity:0;fill-rule:evenodd;stroke:rgb(255, 35, 0);stroke-width:1;" d="M 442.311, 497.067 L 464.356, 466.844 L 478.222, 472.711 L 456.356, 502.933 L 442.311, 497.067 z "/>
<path style="fill:rgb(255, 0, 0);fill-opacity:0;fill-rule:evenodd;stroke:rgb(255, 35, 0);stroke-width:1;" d="M 470.756, 697.422 L 478.756, 686.578 L 524.8, 706.311 L 519.644, 713.778 L 495.467, 703.467 L 492.978, 706.844 L 482.844, 702.578 L 470.756, 697.422 z "/>
<path style="fill:rgb(0, 255, 0);fill-opacity:0;fill-rule:evenodd;stroke:rgb(255, 35, 0);stroke-width:1;" d="M 491.911, 172.267 L 513.244, 143.111 L 527.644, 149.333 L 506.311, 178.311 L 491.911, 172.267 z "/>
<path style="fill:rgb(0, 0, 255);fill-opacity:0;fill-rule:evenodd;stroke:rgb(255, 35, 0);stroke-width:1;" d="M 859.911, 613.333 L 865.956, 604.8 L 883.2, 580.978 L 896.178, 586.311 L 881.956, 606.222 L 872.889, 618.844 L 859.911, 613.333 z "/>
<path style="fill:rgb(255, 255, 0);fill-opacity:0;fill-rule:evenodd;stroke:rgb(255, 35, 0);stroke-width:1;" d="M 623.111, 572.089 L 630.044, 562.311 L 632.178, 563.2 L 644.444, 546.133 L 642.311, 545.244 L 643.911, 542.933 L 648.889, 536.178 L 661.511, 541.333 L 652.444, 554.133 L 645.689, 563.556 L 643.022, 567.111 L 635.556, 577.244 L 623.111, 572.089 z "/>
<path style="fill:rgb(255, 0, 0);fill-opacity:0;fill-rule:evenodd;stroke:rgb(255, 35, 0);stroke-width:1;" d="M 928.711, 566.578 L 946.667, 542.222 L 954.133, 532.267 L 966.044, 537.244 L 958.4, 547.556 L 940.622, 571.733 L 928.711, 566.578 z "/>
<path style="fill:rgb(0, 255, 0);fill-opacity:0;fill-rule:evenodd;stroke:rgb(255, 35, 0);stroke-width:1;" d="M 890.311, 205.867 L 904.533, 186.311 L 912, 176 L 925.867, 181.689 L 918.756, 191.467 L 907.911, 206.4 L 904.178, 211.733 L 890.311, 205.867 z "/>
<path style="fill:rgb(0, 0, 255);fill-opacity:0;fill-rule:evenodd;stroke:rgb(255, 35, 0);stroke-width:1;" d="M 477.689, 166.044 L 499.022, 137.244 L 513.244, 143.111 L 491.911, 172.267 L 477.689, 166.044 z "/>
<path style="fill:rgb(255, 255, 0);fill-opacity:0;fill-rule:evenodd;stroke:rgb(255, 35, 0);stroke-width:1;" d="M 756.978, 149.867 L 764.444, 139.733 L 779.911, 146.489 L 805.333, 157.156 L 798.044, 167.289 L 767.289, 154.133 L 756.978, 149.867 z "/>
<path style="fill:rgb(255, 0, 0);fill-opacity:0;fill-rule:evenodd;stroke:rgb(255, 35, 0);stroke-width:1;" d="M 125.689, 726.222 L 132.444, 716.978 L 134.933, 716.267 L 137.422, 712.889 L 139.733, 713.956 L 142.933, 709.511 L 140.444, 708.622 L 145.6, 701.511 L 145.422, 698.667 L 150.4, 691.911 L 151.822, 689.778 L 165.156, 695.467 L 159.111, 704 L 155.911, 705.422 L 150.756, 712.533 L 149.511, 712 L 146.133, 716.8 L 147.378, 717.333 L 144.711, 720.889 L 145.244, 723.2 L 139.022, 731.733 L 125.689, 726.222 z "/>
<path style="fill:rgb(0, 255, 0);fill-opacity:0;fill-rule:evenodd;stroke:rgb(255, 35, 0);stroke-width:1;" d="M 901.156, 216 L 904.178, 211.733 L 907.911, 206.4 L 910.4, 206.044 L 913.422, 201.956 L 916.089, 203.022 L 919.644, 198.4 L 916.8, 197.156 L 919.644, 193.422 L 918.756, 191.467 L 925.867, 181.689 L 939.911, 187.556 L 933.333, 196.622 L 932.8, 197.333 L 930.489, 197.867 L 927.644, 201.778 L 925.867, 200.889 L 922.311, 205.689 L 924.267, 206.578 L 921.422, 210.489 L 921.956, 212.267 L 915.2, 221.867 L 901.156, 216 z "/>
<path style="fill:rgb(0, 0, 255);fill-opacity:0;fill-rule:evenodd;stroke:rgb(255, 35, 0);stroke-width:1;" d="M 99.0222, 293.156 L 106.667, 282.667 L 114.667, 271.644 L 123.022, 260.267 L 138.844, 266.844 L 131.911, 276.267 L 123.911, 273.067 L 122.133, 275.556 L 123.2, 275.911 L 115.556, 286.4 L 115.022, 286.044 L 113.422, 288.178 L 120.889, 291.378 L 115.022, 299.733 L 99.0222, 293.156 z "/>
<path style="fill:rgb(255, 255, 0);fill-opacity:0;fill-rule:evenodd;stroke:rgb(255, 35, 0);stroke-width:1;" d="M 711.467, 475.556 L 712, 474.844 L 718.756, 465.244 L 721.244, 465.067 L 724.089, 460.978 L 726.578, 461.156 L 729.778, 456.356 L 727.822, 455.467 L 730.667, 451.378 L 729.778, 449.422 L 736.711, 439.644 L 750.222, 445.156 L 744.889, 452.622 L 743.111, 455.111 L 740.978, 454.933 L 738.489, 458.489 L 736.889, 459.2 L 733.333, 464.533 L 733.333, 465.778 L 731.022, 469.333 L 731.911, 470.756 L 724.978, 480.533 L 724.622, 481.067 L 711.467, 475.556 z "/>
<path style="fill:rgb(255, 0, 0);fill-opacity:0;fill-rule:evenodd;stroke:rgb(255, 35, 0);stroke-width:1;" d="M 998.933, 519.111 L 1015.47, 495.822 L 1027.56, 500.8 L 1026.67, 502.044 L 1033.07, 504.711 L 1018.49, 525.156 L 1011.38, 522.133 L 1010.13, 523.733 L 998.933, 519.111 z "/>
<path style="fill:rgb(0, 255, 0);fill-opacity:0;fill-rule:evenodd;stroke:rgb(255, 35, 0);stroke-width:1;" d="M 413.156, 206.756 L 420.089, 197.156 L 422.756, 197.333 L 425.956, 193.067 L 427.2, 193.6 L 431.111, 188.267 L 428.978, 187.378 L 429.333, 186.844 L 428.267, 186.311 L 435.733, 176.178 L 438.4, 172.444 L 452.089, 178.311 L 446.222, 186.311 L 443.378, 187.556 L 440, 192 L 437.689, 190.933 L 433.956, 196.267 L 436.089, 197.156 L 433.067, 201.422 L 433.067, 204.089 L 426.844, 212.444 L 413.156, 206.756 z "/>
<path style="fill:rgb(0, 0, 255);fill-opacity:0;fill-rule:evenodd;stroke:rgb(255, 35, 0);stroke-width:1;" d="M 652.267, 447.467 L 665.956, 428.8 L 685.867, 437.333 L 670.933, 457.6 L 654.044, 450.311 L 652.267, 447.467 z "/>
<path style="fill:rgb(255, 255, 0);fill-opacity:0;fill-rule:evenodd;stroke:rgb(255, 35, 0);stroke-width:1;" d="M 506.311, 178.311 L 527.644, 149.333 L 541.511, 155.2 L 528.178, 173.333 L 520, 184.178 L 506.311, 178.311 z "/>
<path style="fill:rgb(255, 0, 0);fill-opacity:0;fill-rule:evenodd;stroke:rgb(255, 35, 0);stroke-width:1;" d="M 464, 160.178 L 484.622, 132.089 L 485.333, 131.2 L 499.022, 137.244 L 477.689, 166.044 L 464, 160.178 z "/>
<path style="fill:rgb(0, 255, 0);fill-opacity:0;fill-rule:evenodd;stroke:rgb(255, 35, 0);stroke-width:1;" d="M 441.6, 738.667 L 449.422, 728.178 L 472.533, 737.956 L 471.111, 739.911 L 488.533, 747.2 L 481.956, 756.089 L 468.978, 750.4 L 441.6, 738.667 z "/>
<path style="fill:rgb(0, 0, 255);fill-opacity:0;fill-rule:evenodd;stroke:rgb(255, 35, 0);stroke-width:1;" d="M 502.756, 464.533 L 508.978, 456 L 511.644, 455.111 L 514.844, 450.667 L 516.8, 451.556 L 519.644, 447.644 L 517.689, 446.756 L 520.711, 442.667 L 520.356, 440.178 L 526.933, 431.289 L 540.622, 436.978 L 534.044, 446.044 L 531.2, 447.111 L 528.178, 451.2 L 526.756, 450.489 L 523.911, 454.4 L 525.333, 455.111 L 522.133, 459.556 L 522.667, 461.689 L 516.444, 470.4 L 502.756, 464.533 z "/>
<path style="fill:rgb(255, 255, 0);fill-opacity:0;fill-rule:evenodd;stroke:rgb(255, 35, 0);stroke-width:1;" d="M 320.889, 386.311 L 327.111, 377.778 L 329.956, 377.6 L 332.978, 373.511 L 333.867, 373.867 L 337.067, 369.422 L 335.822, 368.889 L 339.022, 364.444 L 338.133, 362.489 L 344.533, 353.6 L 358.933, 359.644 L 352.178, 368.711 L 349.511, 368.889 L 346.311, 373.333 L 344.533, 372.622 L 341.689, 376.533 L 343.467, 377.244 L 340.089, 381.867 L 341.333, 383.644 L 335.111, 392.356 L 320.889, 386.311 z "/>
<path style="fill:rgb(255, 0, 0);fill-opacity:0;fill-rule:evenodd;stroke:rgb(255, 35, 0);stroke-width:1;" d="M 353.956, 262.222 L 380.089, 226.311 L 393.956, 232.178 L 387.733, 240.711 L 382.578, 238.578 L 380.8, 239.111 L 379.378, 241.067 L 382.044, 242.133 L 364.267, 266.667 L 353.956, 262.222 z "/>
<path style="fill:rgb(0, 255, 0);fill-opacity:0;fill-rule:evenodd;stroke:rgb(255, 35, 0);stroke-width:1;" d="M 522.311, 252.8 L 528.711, 244.089 L 541.511, 226.667 L 542.222, 225.778 L 548.089, 228.267 L 544.356, 233.244 L 548.089, 234.844 L 549.156, 233.244 L 555.733, 235.911 L 545.422, 249.956 L 538.311, 259.556 L 522.311, 252.8 z "/>
<path style="fill:rgb(0, 0, 255);fill-opacity:0;fill-rule:evenodd;stroke:rgb(255, 35, 0);stroke-width:1;" d="M 862.4, 673.6 L 884.622, 642.667 L 897.422, 648 L 891.378, 656.356 L 882.489, 668.622 L 875.2, 678.756 L 862.4, 673.6 z "/>
<path style="fill:rgb(255, 255, 0);fill-opacity:0;fill-rule:evenodd;stroke:rgb(255, 35, 0);stroke-width:1;" d="M 127.644, 294.222 L 136.711, 281.6 L 167.822, 294.578 L 158.578, 307.2 L 157.333, 306.667 L 138.133, 298.667 L 127.644, 294.222 z "/>
<path style="fill:rgb(255, 0, 0);fill-opacity:0;fill-rule:evenodd;stroke:rgb(255, 35, 0);stroke-width:1;" d="M 335.111, 392.356 L 341.333, 383.644 L 342.044, 382.933 L 344.356, 384 L 347.556, 379.556 L 345.422, 378.489 L 348.444, 374.222 L 350.4, 375.111 L 352.889, 371.733 L 352, 369.067 L 352.178, 368.711 L 358.933, 359.644 L 372.622, 365.511 L 372.444, 365.867 L 366.222, 374.222 L 365.511, 375.289 L 362.489, 376 L 360, 379.556 L 361.778, 380.267 L 359.289, 384 L 355.556, 382.4 L 352, 387.556 L 353.956, 388.444 L 347.378, 397.511 L 335.111, 392.356 z "/>
<path style="fill:rgb(0, 255, 0);fill-opacity:0;fill-rule:evenodd;stroke:rgb(255, 35, 0);stroke-width:1;" d="M 287.822, 431.467 L 294.933, 421.689 L 307.378, 404.444 L 321.778, 410.489 L 302.578, 436.978 L 302.222, 437.511 L 287.822, 431.467 z "/>
<path style="fill:rgb(0, 0, 255);fill-opacity:0;fill-rule:evenodd;stroke:rgb(255, 35, 0);stroke-width:1;" d="M 793.778, 436.978 L 813.689, 409.422 L 827.733, 414.933 L 819.556, 426.489 L 809.956, 439.822 L 808, 442.489 L 793.778, 436.978 z "/>
<path style="fill:rgb(255, 255, 0);fill-opacity:0;fill-rule:evenodd;stroke:rgb(255, 35, 0);stroke-width:1;" d="M 344.178, 258.133 L 361.956, 233.778 L 364.089, 234.489 L 365.333, 232.711 L 365.156, 231.111 L 360.533, 229.333 L 366.756, 220.622 L 380.089, 226.311 L 353.956, 262.222 L 344.178, 258.133 z "/>
<path style="fill:rgb(255, 0, 0);fill-opacity:0;fill-rule:evenodd;stroke:rgb(255, 35, 0);stroke-width:1;" d="M 426.844, 212.444 L 433.067, 204.089 L 435.733, 203.378 L 442.311, 194.489 L 444.8, 195.556 L 448.889, 190.044 L 445.867, 188.8 L 446.222, 186.311 L 452.089, 178.311 L 452.978, 177.244 L 463.289, 181.511 L 451.022, 198.044 L 452.8, 198.933 L 446.4, 207.644 L 446.933, 209.778 L 440.533, 218.311 L 426.844, 212.444 z "/>
<path style="fill:rgb(0, 255, 0);fill-opacity:0;fill-rule:evenodd;stroke:rgb(255, 35, 0);stroke-width:1;" d="M 352.889, 400.533 L 368.533, 379.022 L 369.956, 379.556 L 372.089, 376.711 L 366.222, 374.222 L 372.444, 365.867 L 387.2, 372.089 L 380.978, 380.444 L 368.178, 398.222 L 363.2, 404.978 L 352.889, 400.533 z "/>
<path style="fill:rgb(0, 0, 255);fill-opacity:0;fill-rule:evenodd;stroke:rgb(255, 35, 0);stroke-width:1;" d="M 449.422, 728.178 L 457.067, 717.867 L 468.444, 722.667 L 483.022, 728.889 L 492.978, 733.156 L 485.333, 743.467 L 472.533, 737.956 L 449.422, 728.178 z "/>
<path style="fill:rgb(255, 255, 0);fill-opacity:0;fill-rule:evenodd;stroke:rgb(255, 35, 0);stroke-width:1;" d="M 829.689, 55.2889 L 837.156, 44.8 L 850.489, 50.3111 L 850.844, 52.2667 L 849.956, 53.3333 L 853.333, 54.7556 L 854.044, 53.5111 L 859.733, 55.8222 L 862.044, 55.1111 L 875.911, 60.8 L 868.444, 71.2889 L 854.044, 65.2444 L 854.4, 63.8222 L 845.156, 60.0889 L 842.311, 60.4444 L 834.844, 57.4222 L 829.689, 55.2889 z "/>
<path style="fill:rgb(255, 0, 0);fill-opacity:0;fill-rule:evenodd;stroke:rgb(255, 35, 0);stroke-width:1;" d="M 596.444, 523.556 L 603.733, 513.422 L 604.8, 513.778 L 617.244, 518.933 L 632.533, 525.333 L 642.489, 529.6 L 635.378, 539.378 L 627.2, 536 L 629.333, 532.978 L 623.467, 530.489 L 621.156, 533.867 L 596.444, 523.556 z "/>
<path style="fill:rgb(0, 255, 0);fill-opacity:0;fill-rule:evenodd;stroke:rgb(255, 35, 0);stroke-width:1;" d="M 816.178, 725.867 L 820.444, 720 L 829.156, 708.444 L 837.511, 696.711 L 850.133, 702.044 L 828.8, 731.2 L 816.178, 725.867 z "/>
<path style="fill:rgb(0, 0, 255);fill-opacity:0;fill-rule:evenodd;stroke:rgb(255, 35, 0);stroke-width:1;" d="M 176.711, 341.156 L 184, 331.022 L 221.689, 347.022 L 228.267, 349.867 L 223.111, 356.978 L 202.311, 348.267 L 200.178, 351.111 L 196.089, 349.333 L 198.222, 346.489 L 194.133, 344.711 L 194.844, 343.822 L 193.244, 343.289 L 191.111, 343.822 L 189.333, 346.489 L 176.711, 341.156 z "/>
<path style="fill:rgb(255, 255, 0);fill-opacity:0;fill-rule:evenodd;stroke:rgb(255, 35, 0);stroke-width:1;" d="M 849.956, 532.444 L 870.044, 505.067 L 883.2, 510.578 L 863.111, 537.956 L 849.956, 532.444 z "/>
<path style="fill:rgb(255, 0, 0);fill-opacity:0;fill-rule:evenodd;stroke:rgb(255, 35, 0);stroke-width:1;" d="M 539.378, 448 L 545.778, 439.111 L 586.844, 456.533 L 580.622, 465.244 L 568.533, 460.089 L 553.422, 453.867 L 541.333, 448.711 L 539.378, 448 z "/>
<path style="fill:rgb(0, 255, 0);fill-opacity:0;fill-rule:evenodd;stroke:rgb(255, 35, 0);stroke-width:1;" d="M 467.2, 444.267 L 471.289, 438.578 L 467.733, 436.978 L 484.8, 413.511 L 498.667, 419.378 L 481.6, 442.844 L 477.689, 441.244 L 473.6, 446.933 L 467.2, 444.267 z "/>
<path style="fill:rgb(0, 0, 255);fill-opacity:0;fill-rule:evenodd;stroke:rgb(255, 35, 0);stroke-width:1;" d="M 344.178, 455.822 L 362.133, 430.933 L 376.711, 437.156 L 358.756, 461.867 L 344.178, 455.822 z "/>
<path style="fill:rgb(255, 255, 0);fill-opacity:0;fill-rule:evenodd;stroke:rgb(255, 35, 0);stroke-width:1;" d="M 827.2, 68.0889 L 834.844, 57.4222 L 842.311, 60.4444 L 854.044, 65.2444 L 868.444, 71.2889 L 860.8, 81.9556 L 827.2, 68.0889 z "/>
<path style="fill:rgb(255, 0, 0);fill-opacity:0;fill-rule:evenodd;stroke:rgb(255, 35, 0);stroke-width:1;" d="M 724.978, 480.533 L 731.911, 470.756 L 743.111, 455.111 L 744.889, 452.622 L 755.2, 456.889 L 748.622, 465.956 L 752.711, 467.556 L 739.2, 486.4 L 724.978, 480.533 z "/>
<path style="fill:rgb(0, 255, 0);fill-opacity:0;fill-rule:evenodd;stroke:rgb(255, 35, 0);stroke-width:1;" d="M 837.156, 44.8 L 844.267, 34.8444 L 857.6, 40.3556 L 857.778, 41.7778 L 867.2, 45.6889 L 869.333, 45.1556 L 883.022, 50.8444 L 875.911, 60.8 L 862.044, 55.1111 L 861.689, 53.5111 L 855.822, 51.0222 L 856.356, 50.3111 L 853.333, 48.8889 L 852.622, 49.7778 L 850.489, 50.3111 L 837.156, 44.8 z "/>
<path style="fill:rgb(0, 0, 255);fill-opacity:0;fill-rule:evenodd;stroke:rgb(255, 35, 0);stroke-width:1;" d="M 819.556, 78.9333 L 827.2, 68.0889 L 860.8, 81.9556 L 853.156, 92.8 L 819.556, 78.9333 z "/>
<path style="fill:rgb(255, 255, 0);fill-opacity:0;fill-rule:evenodd;stroke:rgb(255, 35, 0);stroke-width:1;" d="M 836.978, 526.933 L 857.244, 499.556 L 870.044, 505.067 L 849.956, 532.444 L 836.978, 526.933 z "/>
<path style="fill:rgb(255, 0, 0);fill-opacity:0;fill-rule:evenodd;stroke:rgb(255, 35, 0);stroke-width:1;" d="M 644.444, 304 L 650.844, 295.467 L 658.844, 298.844 L 692.089, 312.889 L 685.689, 321.422 L 644.444, 304 z "/>
<path style="fill:rgb(0, 255, 0);fill-opacity:0;fill-rule:evenodd;stroke:rgb(255, 35, 0);stroke-width:1;" d="M 372.8, 467.378 L 390.578, 442.844 L 404.978, 448.889 L 387.2, 473.422 L 372.8, 467.378 z "/>
<path style="fill:rgb(0, 0, 255);fill-opacity:0;fill-rule:evenodd;stroke:rgb(255, 35, 0);stroke-width:1;" d="M 665.956, 428.8 L 672.178, 420.622 L 684.622, 425.956 L 699.378, 432.356 L 711.111, 437.511 L 714.489, 438.756 L 708.267, 447.111 L 685.867, 437.333 L 665.956, 428.8 z "/>
<path style="fill:rgb(255, 255, 0);fill-opacity:0;fill-rule:evenodd;stroke:rgb(255, 35, 0);stroke-width:1;" d="M 566.4, 271.289 L 573.156, 262.044 L 585.6, 245.156 L 598.578, 250.667 L 579.378, 276.8 L 566.4, 271.289 z "/>
<path style="fill:rgb(255, 0, 0);fill-opacity:0;fill-rule:evenodd;stroke:rgb(255, 35, 0);stroke-width:1;" d="M 358.756, 461.867 L 376.711, 437.156 L 390.578, 442.844 L 372.8, 467.378 L 372.622, 467.733 L 358.756, 461.867 z "/>
<path style="fill:rgb(0, 255, 0);fill-opacity:0;fill-rule:evenodd;stroke:rgb(255, 35, 0);stroke-width:1;" d="M 386.844, 473.956 L 387.2, 473.422 L 404.978, 448.889 L 418.667, 454.756 L 401.422, 478.578 L 400.533, 479.644 L 386.844, 473.956 z "/>
<path style="fill:rgb(0, 0, 255);fill-opacity:0;fill-rule:evenodd;stroke:rgb(255, 35, 0);stroke-width:1;" d="M 660.267, 520.889 L 672, 504.356 L 679.111, 494.578 L 692.089, 500.089 L 673.244, 526.222 L 660.267, 520.889 z "/>
<path style="fill:rgb(255, 255, 0);fill-opacity:0;fill-rule:evenodd;stroke:rgb(255, 35, 0);stroke-width:1;" d="M 86.2222, 333.867 L 92.4444, 325.333 L 131.733, 341.867 L 125.511, 350.4 L 99.2, 339.2 L 86.2222, 333.867 z "/>
<path style="fill:rgb(255, 0, 0);fill-opacity:0;fill-rule:evenodd;stroke:rgb(255, 35, 0);stroke-width:1;" d="M 330.667, 450.133 L 331.378, 449.067 L 348.622, 425.244 L 362.133, 430.933 L 344.178, 455.822 L 330.667, 450.133 z "/>
<path style="fill:rgb(0, 255, 0);fill-opacity:0;fill-rule:evenodd;stroke:rgb(255, 35, 0);stroke-width:1;" d="M 414.933, 484.267 L 422.4, 473.956 L 424.533, 470.933 L 432.178, 460.444 L 446.4, 466.311 L 428.978, 490.133 L 414.933, 484.267 z "/>
<path style="fill:rgb(0, 0, 255);fill-opacity:0;fill-rule:evenodd;stroke:rgb(255, 35, 0);stroke-width:1;" d="M 1017.42, 254.044 L 1035.73, 228.8 L 1048.89, 234.311 L 1030.58, 259.733 L 1017.42, 254.044 z "/>
<path style="fill:rgb(255, 255, 0);fill-opacity:0;fill-rule:evenodd;stroke:rgb(255, 35, 0);stroke-width:1;" d="M 281.956, 710.933 L 288.178, 702.4 L 301.156, 684.622 L 313.6, 689.956 L 296.533, 713.422 L 294.4, 716.267 L 281.956, 710.933 z "/>
<path style="fill:rgb(255, 0, 0);fill-opacity:0;fill-rule:evenodd;stroke:rgb(255, 35, 0);stroke-width:1;" d="M 812.444, 88.7111 L 819.556, 78.9333 L 853.156, 92.8 L 846.222, 102.578 L 812.444, 88.7111 z "/>
<path style="fill:rgb(0, 255, 0);fill-opacity:0;fill-rule:evenodd;stroke:rgb(255, 35, 0);stroke-width:1;" d="M 560, 58.3111 L 576.533, 35.5556 L 591.111, 41.6 L 583.289, 52.4444 L 575.289, 63.2889 L 574.4, 64.5333 L 560, 58.3111 z "/>
<path style="fill:rgb(0, 0, 255);fill-opacity:0;fill-rule:evenodd;stroke:rgb(255, 35, 0);stroke-width:1;" d="M 857.956, 166.222 L 865.067, 156.267 L 899.022, 170.489 L 893.689, 177.956 L 891.022, 176.889 L 889.244, 179.378 L 857.956, 166.222 z "/>
<path style="fill:rgb(255, 255, 0);fill-opacity:0;fill-rule:evenodd;stroke:rgb(255, 35, 0);stroke-width:1;" d="M 184, 331.022 L 190.222, 322.311 L 201.422, 327.111 L 208.178, 329.956 L 213.511, 332.089 L 224, 336.533 L 227.911, 338.311 L 221.689, 347.022 L 184, 331.022 z "/>
<path style="fill:rgb(255, 0, 0);fill-opacity:0;fill-rule:evenodd;stroke:rgb(255, 35, 0);stroke-width:1;" d="M 903.467, 555.733 L 924.978, 526.756 L 928.533, 528.178 L 924.978, 532.8 L 934.222, 536.711 L 916.089, 561.244 L 903.467, 555.733 z "/>
<path style="fill:rgb(0, 255, 0);fill-opacity:0;fill-rule:evenodd;stroke:rgb(255, 35, 0);stroke-width:1;" d="M 673.244, 526.222 L 692.089, 500.089 L 704.356, 505.244 L 697.244, 515.022 L 685.511, 531.378 L 673.244, 526.222 z "/>
<path style="fill:rgb(0, 0, 255);fill-opacity:0;fill-rule:evenodd;stroke:rgb(255, 35, 0);stroke-width:1;" d="M 92.4444, 325.333 L 98.4889, 317.156 L 137.778, 333.689 L 131.733, 341.867 L 92.4444, 325.333 z "/>
<path style="fill:rgb(255, 255, 0);fill-opacity:0;fill-rule:evenodd;stroke:rgb(255, 35, 0);stroke-width:1;" d="M 481.6, 442.844 L 498.667, 419.378 L 512.356, 425.067 L 500.267, 441.778 L 495.289, 448.533 L 481.6, 442.844 z "/>
<path style="fill:rgb(255, 0, 0);fill-opacity:0;fill-rule:evenodd;stroke:rgb(255, 35, 0);stroke-width:1;" d="M 837.333, 598.222 L 857.956, 569.6 L 870.4, 574.933 L 856.889, 593.6 L 853.511, 592.178 L 846.4, 601.956 L 837.333, 598.222 z "/>
<path style="fill:rgb(0, 255, 0);fill-opacity:0;fill-rule:evenodd;stroke:rgb(255, 35, 0);stroke-width:1;" d="M 852.8, 599.289 L 856.889, 593.6 L 870.4, 574.933 L 883.556, 580.444 L 883.2, 580.978 L 865.956, 604.8 L 852.8, 599.289 z "/>
<path style="fill:rgb(0, 0, 255);fill-opacity:0;fill-rule:evenodd;stroke:rgb(255, 35, 0);stroke-width:1;" d="M 417.422, 769.244 L 425.6, 758.222 L 454.222, 770.489 L 445.867, 781.511 L 417.422, 769.244 z "/>
<path style="fill:rgb(255, 255, 0);fill-opacity:0;fill-rule:evenodd;stroke:rgb(255, 35, 0);stroke-width:1;" d="M 431.822, 579.556 L 443.022, 564.267 L 447.111, 558.756 L 462.4, 565.156 L 447.111, 585.956 L 431.822, 579.556 z "/>
<path style="fill:rgb(255, 0, 0);fill-opacity:0;fill-rule:evenodd;stroke:rgb(255, 35, 0);stroke-width:1;" d="M 454.4, 431.467 L 468.8, 411.556 L 471.467, 407.822 L 484.8, 413.511 L 467.733, 436.978 L 454.4, 431.467 z "/>
<path style="fill:rgb(0, 255, 0);fill-opacity:0;fill-rule:evenodd;stroke:rgb(255, 35, 0);stroke-width:1;" d="M 985.244, 513.422 L 1001.07, 491.378 L 1001.96, 490.133 L 1015.47, 495.822 L 998.933, 519.111 L 985.244, 513.422 z "/>
<path style="fill:rgb(0, 0, 255);fill-opacity:0;fill-rule:evenodd;stroke:rgb(255, 35, 0);stroke-width:1;" d="M 401.422, 478.578 L 418.667, 454.756 L 432.178, 460.444 L 424.533, 470.933 L 421.511, 469.689 L 419.378, 472.711 L 422.4, 473.956 L 414.933, 484.267 L 401.422, 478.578 z "/>
<path style="fill:rgb(255, 255, 0);fill-opacity:0;fill-rule:evenodd;stroke:rgb(255, 35, 0);stroke-width:1;" d="M 447.111, 558.756 L 462.222, 538.311 L 477.511, 544.711 L 462.4, 565.156 L 447.111, 558.756 z "/>
<path style="fill:rgb(255, 0, 0);fill-opacity:0;fill-rule:evenodd;stroke:rgb(255, 35, 0);stroke-width:1;" d="M 916.089, 561.244 L 934.222, 536.711 L 946.667, 542.222 L 928.711, 566.578 L 916.089, 561.244 z "/>
<path style="fill:rgb(0, 255, 0);fill-opacity:0;fill-rule:evenodd;stroke:rgb(255, 35, 0);stroke-width:1;" d="M 489.956, 300.267 L 500.444, 285.689 L 501.511, 285.333 L 505.956, 279.111 L 515.556, 283.2 L 520, 284.978 L 504.533, 306.489 L 489.956, 300.267 z "/>
<path style="fill:rgb(0, 0, 255);fill-opacity:0;fill-rule:evenodd;stroke:rgb(255, 35, 0);stroke-width:1;" d="M 706.844, 374.578 L 712.711, 366.578 L 750.933, 382.933 L 744.889, 390.933 L 706.844, 374.578 z "/>
<path style="fill:rgb(255, 255, 0);fill-opacity:0;fill-rule:evenodd;stroke:rgb(255, 35, 0);stroke-width:1;" d="M 940.622, 571.733 L 958.4, 547.556 L 971.022, 553.067 L 953.067, 577.067 L 940.622, 571.733 z "/>
<path style="fill:rgb(255, 0, 0);fill-opacity:0;fill-rule:evenodd;stroke:rgb(255, 35, 0);stroke-width:1;" d="M 830.756, 595.378 L 837.689, 585.6 L 831.644, 583.111 L 844.978, 564.267 L 857.956, 569.6 L 837.333, 598.222 L 830.756, 595.378 z "/>
<path style="fill:rgb(0, 255, 0);fill-opacity:0;fill-rule:evenodd;stroke:rgb(255, 35, 0);stroke-width:1;" d="M 877.333, 544.533 L 889.956, 527.289 L 898.844, 531.022 L 900.267, 529.244 L 898.133, 528.533 L 904.178, 520.356 L 911.111, 523.378 L 904, 532.978 L 891.022, 550.4 L 877.333, 544.533 z "/>
<path style="fill:rgb(0, 0, 255);fill-opacity:0;fill-rule:evenodd;stroke:rgb(255, 35, 0);stroke-width:1;" d="M 738.311, 179.733 L 745.422, 169.956 L 784, 186.489 L 785.067, 186.844 L 781.511, 191.822 L 780.8, 191.644 L 777.422, 196.267 L 766.044, 191.467 L 768.356, 188.267 L 769.067, 185.778 L 754.667, 179.733 L 750.756, 185.067 L 748.8, 184.178 L 738.311, 179.733 z "/>
<path style="fill:rgb(255, 255, 0);fill-opacity:0;fill-rule:evenodd;stroke:rgb(255, 35, 0);stroke-width:1;" d="M 583.467, 399.289 L 584.889, 397.511 L 589.867, 390.4 L 592.533, 391.644 L 624.356, 404.978 L 617.956, 413.689 L 599.289, 405.867 L 583.467, 399.289 z "/>
<path style="fill:rgb(255, 0, 0);fill-opacity:0;fill-rule:evenodd;stroke:rgb(255, 35, 0);stroke-width:1;" d="M 972.089, 505.778 L 980.978, 493.511 L 986.844, 485.333 L 1001.07, 491.378 L 985.244, 513.422 L 977.956, 510.4 L 979.022, 508.622 L 972.089, 505.778 z "/>
<path style="fill:rgb(0, 255, 0);fill-opacity:0;fill-rule:evenodd;stroke:rgb(255, 35, 0);stroke-width:1;" d="M 708.089, 56.3556 L 708.267, 56.1778 L 722.667, 35.7333 L 737.422, 41.9556 L 724.267, 60.6222 L 722.844, 62.4 L 708.089, 56.3556 z "/>
<path style="fill:rgb(0, 0, 255);fill-opacity:0;fill-rule:evenodd;stroke:rgb(255, 35, 0);stroke-width:1;" d="M 700.978, 382.4 L 706.844, 374.578 L 744.889, 390.933 L 739.022, 398.756 L 737.778, 398.222 L 700.978, 382.4 z "/>
<path style="fill:rgb(255, 255, 0);fill-opacity:0;fill-rule:evenodd;stroke:rgb(255, 35, 0);stroke-width:1;" d="M 98.4889, 317.156 L 104, 309.333 L 114.311, 313.778 L 125.511, 318.4 L 130.844, 320.711 L 143.289, 326.044 L 137.778, 333.689 L 98.4889, 317.156 z "/>
<path style="fill:rgb(255, 0, 0);fill-opacity:0;fill-rule:evenodd;stroke:rgb(255, 35, 0);stroke-width:1;" d="M 780.089, 708.444 L 785.422, 701.156 L 800.356, 680.889 L 812.622, 686.222 L 805.511, 695.822 L 799.289, 704.533 L 794.667, 702.578 L 787.911, 711.822 L 780.089, 708.444 z "/>
<path style="fill:rgb(0, 255, 0);fill-opacity:0;fill-rule:evenodd;stroke:rgb(255, 35, 0);stroke-width:1;" d="M 392.178, 339.911 L 399.822, 329.422 L 411.556, 313.422 L 422.756, 318.044 L 403.378, 344.711 L 392.178, 339.911 z "/>
<path style="fill:rgb(0, 0, 255);fill-opacity:0;fill-rule:evenodd;stroke:rgb(255, 35, 0);stroke-width:1;" d="M 891.022, 550.4 L 904, 532.978 L 911.644, 536.356 L 913.6, 533.689 L 911.111, 532.622 L 917.689, 523.556 L 924.978, 526.756 L 903.467, 555.733 L 891.022, 550.4 z "/>
<path style="fill:rgb(255, 255, 0);fill-opacity:0;fill-rule:evenodd;stroke:rgb(255, 35, 0);stroke-width:1;" d="M 476.267, 233.067 L 488.533, 216.356 L 495.289, 207.111 L 506.667, 211.911 L 499.733, 221.333 L 487.467, 237.867 L 476.267, 233.067 z "/>
<path style="fill:rgb(255, 0, 0);fill-opacity:0;fill-rule:evenodd;stroke:rgb(255, 35, 0);stroke-width:1;" d="M 414.4, 131.911 L 423.822, 119.289 L 431.289, 109.333 L 444.089, 114.844 L 436.978, 124.444 L 427.378, 137.422 L 414.4, 131.911 z "/>
<path style="fill:rgb(0, 255, 0);fill-opacity:0;fill-rule:evenodd;stroke:rgb(255, 35, 0);stroke-width:1;" d="M 432.889, 748.444 L 440.356, 738.311 L 441.6, 738.667 L 468.978, 750.4 L 461.511, 760.533 L 432.889, 748.444 z "/>
<path style="fill:rgb(0, 0, 255);fill-opacity:0;fill-rule:evenodd;stroke:rgb(255, 35, 0);stroke-width:1;" d="M 114.311, 313.778 L 121.956, 303.289 L 131.911, 307.378 L 133.156, 307.911 L 133.156, 310.222 L 137.244, 311.822 L 138.489, 310.222 L 150.933, 315.556 L 143.289, 326.044 L 130.844, 320.711 L 132.089, 318.933 L 128, 317.333 L 125.511, 318.4 L 114.311, 313.778 z "/>
<path style="fill:rgb(255, 255, 0);fill-opacity:0;fill-rule:evenodd;stroke:rgb(255, 35, 0);stroke-width:1;" d="M 432.178, 559.644 L 451.2, 533.511 L 462.222, 538.311 L 447.111, 558.756 L 443.022, 564.267 L 432.178, 559.644 z "/>
<path style="fill:rgb(255, 0, 0);fill-opacity:0;fill-rule:evenodd;stroke:rgb(255, 35, 0);stroke-width:1;" d="M 694.4, 389.333 L 699.911, 381.867 L 700.978, 382.4 L 737.778, 398.222 L 732.267, 405.689 L 718.578, 399.644 L 695.644, 389.867 L 694.4, 389.333 z "/>
<path style="fill:rgb(0, 255, 0);fill-opacity:0;fill-rule:evenodd;stroke:rgb(255, 35, 0);stroke-width:1;" d="M 685.156, 265.778 L 691.733, 256.711 L 723.2, 270.044 L 716.622, 279.111 L 685.156, 265.778 z "/>
<path style="fill:rgb(0, 0, 255);fill-opacity:0;fill-rule:evenodd;stroke:rgb(255, 35, 0);stroke-width:1;" d="M 760.533, 163.378 L 767.289, 154.133 L 798.044, 167.289 L 791.289, 176.356 L 760.533, 163.378 z "/>
<path style="fill:rgb(255, 255, 0);fill-opacity:0;fill-rule:evenodd;stroke:rgb(255, 35, 0);stroke-width:1;" d="M 425.6, 758.222 L 432.889, 748.444 L 461.511, 760.533 L 454.222, 770.489 L 425.6, 758.222 z "/>
<path style="fill:rgb(255, 0, 0);fill-opacity:0;fill-rule:evenodd;stroke:rgb(255, 35, 0);stroke-width:1;" d="M 664.889, 290.489 L 671.111, 281.956 L 683.2, 287.111 L 691.378, 290.667 L 704.356, 296 L 698.133, 304.533 L 684.267, 298.667 L 678.756, 296.356 L 664.889, 290.489 z "/>
<path style="fill:rgb(0, 255, 0);fill-opacity:0;fill-rule:evenodd;stroke:rgb(255, 35, 0);stroke-width:1;" d="M 928, 701.867 L 935.467, 691.556 L 962.844, 702.933 L 955.378, 713.244 L 928, 701.867 z "/>
<path style="fill:rgb(0, 0, 255);fill-opacity:0;fill-rule:evenodd;stroke:rgb(255, 35, 0);stroke-width:1;" d="M 771.911, 695.289 L 786.667, 675.2 L 800.356, 680.889 L 785.422, 701.156 L 771.911, 695.289 z "/>
<path style="fill:rgb(255, 255, 0);fill-opacity:0;fill-rule:evenodd;stroke:rgb(255, 35, 0);stroke-width:1;" d="M 671.111, 281.956 L 677.333, 273.244 L 710.578, 287.467 L 704.356, 296 L 691.378, 290.667 L 691.556, 288.178 L 685.511, 285.511 L 683.2, 287.111 L 671.111, 281.956 z "/>
<path style="fill:rgb(255, 0, 0);fill-opacity:0;fill-rule:evenodd;stroke:rgb(255, 35, 0);stroke-width:1;" d="M 805.867, 572.267 L 815.289, 559.111 L 819.378, 553.6 L 832.356, 558.933 L 818.844, 577.778 L 814.4, 583.822 L 809.244, 581.511 L 813.511, 575.467 L 805.867, 572.267 z "/>
<path style="fill:rgb(0, 255, 0);fill-opacity:0;fill-rule:evenodd;stroke:rgb(255, 35, 0);stroke-width:1;" d="M 731.2, 409.422 L 739.022, 398.756 L 744.889, 390.933 L 750.933, 382.933 L 760.889, 387.378 L 748.089, 404.622 L 741.156, 413.867 L 731.2, 409.422 z "/>
<path style="fill:rgb(0, 0, 255);fill-opacity:0;fill-rule:evenodd;stroke:rgb(255, 35, 0);stroke-width:1;" d="M 658.844, 298.844 L 664.889, 290.489 L 678.756, 296.356 L 676.978, 298.844 L 682.489, 301.156 L 684.267, 298.667 L 698.133, 304.533 L 692.089, 312.889 L 658.844, 298.844 z "/>
<path style="fill:rgb(255, 255, 0);fill-opacity:0;fill-rule:evenodd;stroke:rgb(255, 35, 0);stroke-width:1;" d="M 785.422, 134.4 L 791.822, 125.689 L 819.733, 137.6 L 812.8, 147.022 L 787.378, 136.178 L 785.956, 135.644 L 785.422, 134.4 z "/>
<path style="fill:rgb(255, 0, 0);fill-opacity:0;fill-rule:evenodd;stroke:rgb(255, 35, 0);stroke-width:1;" d="M 358.756, 325.511 L 363.2, 319.467 L 365.867, 320.533 L 377.778, 304.356 L 374.933, 303.289 L 378.844, 297.956 L 389.867, 302.578 L 377.422, 319.644 L 369.778, 330.133 L 358.756, 325.511 z "/>
<path style="fill:rgb(0, 255, 0);fill-opacity:0;fill-rule:evenodd;stroke:rgb(255, 35, 0);stroke-width:1;" d="M 779.911, 146.489 L 787.378, 136.178 L 812.8, 147.022 L 805.333, 157.156 L 779.911, 146.489 z "/>
<path style="fill:rgb(0, 0, 255);fill-opacity:0;fill-rule:evenodd;stroke:rgb(255, 35, 0);stroke-width:1;" d="M 863.111, 539.733 L 876.978, 520.889 L 890.489, 526.578 L 889.956, 527.289 L 877.333, 544.533 L 876.622, 545.422 L 863.111, 539.733 z "/>
<path style="fill:rgb(255, 255, 0);fill-opacity:0;fill-rule:evenodd;stroke:rgb(255, 35, 0);stroke-width:1;" d="M 881.956, 606.222 L 896.178, 586.311 L 908.978, 591.822 L 901.867, 601.778 L 894.756, 611.556 L 881.956, 606.222 z "/>
<path style="fill:rgb(255, 0, 0);fill-opacity:0;fill-rule:evenodd;stroke:rgb(255, 35, 0);stroke-width:1;" d="M 92.2667, 348.8 L 99.2, 339.2 L 125.511, 350.4 L 118.578, 359.822 L 92.2667, 348.8 z "/>
<path style="fill:rgb(0, 255, 0);fill-opacity:0;fill-rule:evenodd;stroke:rgb(255, 35, 0);stroke-width:1;" d="M 592.533, 391.644 L 598.222, 383.644 L 601.422, 384.889 L 630.044, 396.978 L 624.356, 404.978 L 592.533, 391.644 z "/>
<path style="fill:rgb(0, 0, 255);fill-opacity:0;fill-rule:evenodd;stroke:rgb(255, 35, 0);stroke-width:1;" d="M 296.711, 299.911 L 306.844, 286.044 L 313.067, 288.711 L 313.956, 287.467 L 316.267, 287.467 L 324.978, 291.022 L 314.133, 305.956 L 313.422, 306.844 L 296.711, 299.911 z "/>
<path style="fill:rgb(255, 255, 0);fill-opacity:0;fill-rule:evenodd;stroke:rgb(255, 35, 0);stroke-width:1;" d="M 260.267, 230.578 L 266.667, 221.689 L 294.044, 233.244 L 292.267, 235.733 L 287.644, 242.133 L 260.267, 230.578 z "/>
<path style="fill:rgb(255, 0, 0);fill-opacity:0;fill-rule:evenodd;stroke:rgb(255, 35, 0);stroke-width:1;" d="M 500.267, 441.778 L 512.356, 425.067 L 526.933, 431.289 L 520.356, 440.178 L 514.844, 447.822 L 500.267, 441.778 z "/>
<path style="fill:rgb(0, 255, 0);fill-opacity:0;fill-rule:evenodd;stroke:rgb(255, 35, 0);stroke-width:1;" d="M 601.422, 384.889 L 607.644, 376.533 L 636.267, 388.444 L 630.044, 396.978 L 601.422, 384.889 z "/>
<path style="fill:rgb(0, 0, 255);fill-opacity:0;fill-rule:evenodd;stroke:rgb(255, 35, 0);stroke-width:1;" d="M 589.333, 533.333 L 596.444, 523.556 L 621.156, 533.867 L 614.044, 543.644 L 589.333, 533.333 z "/>
<path style="fill:rgb(255, 255, 0);fill-opacity:0;fill-rule:evenodd;stroke:rgb(255, 35, 0);stroke-width:1;" d="M 793.6, 510.044 L 806.756, 492.978 L 820.444, 499.2 L 815.289, 505.956 L 807.289, 516.089 L 793.6, 510.044 z "/>
<path style="fill:rgb(255, 0, 0);fill-opacity:0;fill-rule:evenodd;stroke:rgb(255, 35, 0);stroke-width:1;" d="M 818.844, 577.778 L 832.356, 558.933 L 844.978, 564.267 L 831.644, 583.111 L 818.844, 577.778 z "/>
<path style="fill:rgb(0, 255, 0);fill-opacity:0;fill-rule:evenodd;stroke:rgb(255, 35, 0);stroke-width:1;" d="M 701.511, 470.4 L 715.378, 451.022 L 719.822, 449.778 L 721.067, 448.178 L 728.711, 451.378 L 718.756, 465.244 L 712, 474.844 L 701.511, 470.4 z "/>
<path style="fill:rgb(0, 0, 255);fill-opacity:0;fill-rule:evenodd;stroke:rgb(255, 35, 0);stroke-width:1;" d="M 382.4, 529.422 L 394.667, 512.711 L 408.711, 518.578 L 396.444, 535.289 L 396.444, 535.467 L 382.4, 529.422 z "/>
<path style="fill:rgb(255, 255, 0);fill-opacity:0;fill-rule:evenodd;stroke:rgb(255, 35, 0);stroke-width:1;" d="M 1010.67, 412.267 L 1017.42, 403.2 L 1025.96, 406.933 L 1027.73, 404.622 L 1038.4, 409.244 L 1033.42, 415.822 L 1028.27, 422.756 L 1017.78, 418.311 L 1019.56, 416 L 1010.67, 412.267 z "/>
<path style="fill:rgb(255, 0, 0);fill-opacity:0;fill-rule:evenodd;stroke:rgb(255, 35, 0);stroke-width:1;" d="M 980.8, 635.911 L 982.4, 633.778 L 983.467, 634.133 L 989.156, 626.311 L 1011.2, 635.556 L 1004.09, 645.689 L 980.8, 635.911 z "/>
<path style="fill:rgb(0, 255, 0);fill-opacity:0;fill-rule:evenodd;stroke:rgb(255, 35, 0);stroke-width:1;" d="M 689.6, 397.867 L 695.644, 389.867 L 718.578, 399.644 L 715.022, 404.444 L 718.222, 404.8 L 724.444, 407.467 L 721.422, 411.556 L 716.267, 409.422 L 701.689, 403.022 L 689.6, 397.867 z "/>
<path style="fill:rgb(0, 0, 255);fill-opacity:0;fill-rule:evenodd;stroke:rgb(255, 35, 0);stroke-width:1;" d="M 559.644, 410.667 L 572.978, 392.533 L 584.889, 397.511 L 583.467, 399.289 L 571.556, 415.644 L 559.644, 410.667 z "/>
<path style="fill:rgb(255, 255, 0);fill-opacity:0;fill-rule:evenodd;stroke:rgb(255, 35, 0);stroke-width:1;" d="M 463.467, 228.267 L 476.267, 211.022 L 488.533, 216.356 L 476.267, 233.067 L 475.733, 233.6 L 463.467, 228.267 z "/>
<path style="fill:rgb(255, 0, 0);fill-opacity:0;fill-rule:evenodd;stroke:rgb(255, 35, 0);stroke-width:1;" d="M 342.222, 111.111 L 348.8, 102.222 L 371.911, 112.178 L 365.511, 120.889 L 342.222, 111.111 z "/>
<path style="fill:rgb(0, 255, 0);fill-opacity:0;fill-rule:evenodd;stroke:rgb(255, 35, 0);stroke-width:1;" d="M 528.178, 173.333 L 541.511, 155.2 L 552.533, 160 L 544.178, 171.2 L 539.2, 177.956 L 528.178, 173.333 z "/>
<path style="fill:rgb(0, 0, 255);fill-opacity:0;fill-rule:evenodd;stroke:rgb(255, 35, 0);stroke-width:1;" d="M 347.022, 320.711 L 359.467, 303.644 L 371.022, 308.622 L 363.2, 319.467 L 358.756, 325.511 L 347.022, 320.711 z "/>
<path style="fill:rgb(255, 255, 0);fill-opacity:0;fill-rule:evenodd;stroke:rgb(255, 35, 0);stroke-width:1;" d="M 748.089, 404.622 L 760.889, 387.378 L 771.911, 392 L 759.289, 409.422 L 748.089, 404.622 z "/>
<path style="fill:rgb(255, 0, 0);fill-opacity:0;fill-rule:evenodd;stroke:rgb(255, 35, 0);stroke-width:1;" d="M 324.089, 311.289 L 324.8, 310.4 L 335.644, 295.467 L 336.711, 294.044 L 347.911, 298.844 L 335.644, 315.911 L 335.467, 316.089 L 324.089, 311.289 z "/>
<path style="fill:rgb(0, 255, 0);fill-opacity:0;fill-rule:evenodd;stroke:rgb(255, 35, 0);stroke-width:1;" d="M 335.644, 315.911 L 347.911, 298.844 L 359.467, 303.644 L 347.022, 320.711 L 335.644, 315.911 z "/>
<path style="fill:rgb(0, 0, 255);fill-opacity:0;fill-rule:evenodd;stroke:rgb(255, 35, 0);stroke-width:1;" d="M 964.444, 629.156 L 972.267, 618.311 L 989.689, 625.422 L 989.156, 626.311 L 983.467, 634.133 L 982.4, 633.778 L 980.8, 635.911 L 964.444, 629.156 z "/>
<path style="fill:rgb(255, 255, 0);fill-opacity:0;fill-rule:evenodd;stroke:rgb(255, 35, 0);stroke-width:1;" d="M 766.933, 127.467 L 767.644, 126.578 L 773.867, 118.222 L 791.822, 125.689 L 785.422, 134.4 L 784.889, 135.111 L 766.933, 127.467 z "/>
<path style="fill:rgb(255, 0, 0);fill-opacity:0;fill-rule:evenodd;stroke:rgb(255, 35, 0);stroke-width:1;" d="M 131.911, 307.378 L 138.133, 298.667 L 157.333, 306.667 L 150.933, 315.556 L 138.489, 310.222 L 133.156, 307.911 L 131.911, 307.378 z "/>
<path style="fill:rgb(0, 255, 0);fill-opacity:0;fill-rule:evenodd;stroke:rgb(255, 35, 0);stroke-width:1;" d="M 314.133, 305.956 L 324.978, 291.022 L 335.644, 295.467 L 324.8, 310.4 L 314.133, 305.956 z "/>
<path style="fill:rgb(0, 0, 255);fill-opacity:0;fill-rule:evenodd;stroke:rgb(255, 35, 0);stroke-width:1;" d="M 474.133, 575.822 L 486.933, 558.4 L 495.822, 562.133 L 482.844, 579.556 L 474.133, 575.822 z "/>
<path style="fill:rgb(255, 255, 0);fill-opacity:0;fill-rule:evenodd;stroke:rgb(255, 35, 0);stroke-width:1;" d="M 940.8, 91.9111 L 948.267, 81.2444 L 962.133, 86.9333 L 954.489, 97.6 L 940.8, 91.9111 z "/>
<path style="fill:rgb(255, 0, 0);fill-opacity:0;fill-rule:evenodd;stroke:rgb(255, 35, 0);stroke-width:1;" d="M 683.378, 459.2 L 693.156, 445.689 L 703.467, 449.956 L 693.689, 463.644 L 683.378, 459.2 z "/>
<path style="fill:rgb(0, 255, 0);fill-opacity:0;fill-rule:evenodd;stroke:rgb(255, 35, 0);stroke-width:1;" d="M 681.422, 144.178 L 688.356, 133.867 L 702.4, 139.378 L 695.467, 149.689 L 681.422, 144.178 z "/>
<path style="fill:rgb(0, 0, 255);fill-opacity:0;fill-rule:evenodd;stroke:rgb(255, 35, 0);stroke-width:1;" d="M 951.822, 623.822 L 952.356, 622.933 L 959.644, 612.978 L 972.267, 618.311 L 964.444, 629.156 L 951.822, 623.822 z "/>
<path style="fill:rgb(255, 255, 0);fill-opacity:0;fill-rule:evenodd;stroke:rgb(255, 35, 0);stroke-width:1;" d="M 891.556, 180.8 L 893.689, 177.956 L 899.022, 170.489 L 912, 176 L 904.533, 186.311 L 891.556, 180.8 z "/>
<path style="fill:rgb(255, 0, 0);fill-opacity:0;fill-rule:evenodd;stroke:rgb(255, 35, 0);stroke-width:1;" d="M 78.7556, 344.178 L 86.2222, 333.867 L 99.2, 339.2 L 92.2667, 348.8 L 91.5556, 349.689 L 78.7556, 344.178 z "/>
<path style="fill:rgb(0, 255, 0);fill-opacity:0;fill-rule:evenodd;stroke:rgb(255, 35, 0);stroke-width:1;" d="M 677.333, 581.511 L 682.133, 574.933 L 696.356, 580.8 L 691.733, 587.378 L 677.333, 581.511 z "/>
<path style="fill:rgb(0, 0, 255);fill-opacity:0;fill-rule:evenodd;stroke:rgb(255, 35, 0);stroke-width:1;" d="M 223.289, 748.267 L 228.444, 740.978 L 241.422, 746.311 L 236.267, 753.6 L 223.289, 748.267 z "/>
<path style="fill:rgb(255, 255, 0);fill-opacity:0;fill-rule:evenodd;stroke:rgb(255, 35, 0);stroke-width:1;" d="M 510.756, 511.644 L 513.422, 508.089 L 516.8, 509.511 L 520.889, 503.822 L 526.4, 506.133 L 519.644, 515.378 L 510.756, 511.644 z "/>
<path style="fill:rgb(255, 0, 0);fill-opacity:0;fill-rule:evenodd;stroke:rgb(255, 35, 0);stroke-width:1;" d="M 639.111, 292.089 L 644.8, 283.733 L 651.378, 286.222 L 645.689, 294.756 L 639.111, 292.089 z "/>
<path style="fill:rgb(0, 255, 0);fill-opacity:0;fill-rule:evenodd;stroke:rgb(255, 35, 0);stroke-width:1;" d="M 0, 584.711 L 35.0222, 536.711 L 38.2222, 537.956 L 50.6667, 520.711 L 53.1556, 521.778 L 63.4667, 507.911 L 62.2222, 507.378 L 68.0889, 499.2 L 69.3333, 499.733 L 116.089, 435.556 L 113.067, 434.311 L 131.556, 408.711 L 159.467, 420.444 L 160.711, 418.844 L 182.4, 428.089 L 181.156, 429.689 L 250.667, 459.022 L 251.2, 458.489 L 262.756, 463.289 L 262.4, 464 L 263.289, 464.356 L 244.8, 489.6 L 149.333, 449.422 L 103.111, 513.067 L 127.644, 523.378 L 61.1556, 614.578 L 0.711111, 589.156 L 3.02222, 586.133 L 0, 584.711 z "/>
<path style="fill:rgb(0, 0, 255);fill-opacity:0;fill-rule:evenodd;stroke:rgb(255, 35, 0);stroke-width:1;" d="M 62.7556, 688 L 80.7111, 662.933 L 150.4, 691.911 L 145.422, 698.667 L 132.444, 716.978 L 62.7556, 688 z "/>
<path style="fill:rgb(255, 255, 0);fill-opacity:0;fill-rule:evenodd;stroke:rgb(255, 35, 0);stroke-width:1;" d="M 68.2667, 280.178 L 75.9111, 269.689 L 83.5556, 272.889 L 86.7556, 268.444 L 88.5333, 269.156 L 93.3333, 262.578 L 83.9111, 258.667 L 84.4444, 257.778 L 92.0889, 247.111 L 123.022, 260.267 L 114.667, 271.644 L 107.022, 268.267 L 99.0222, 279.289 L 106.667, 282.667 L 99.0222, 293.156 L 68.2667, 280.178 z "/>
<path style="fill:rgb(255, 0, 0);fill-opacity:0;fill-rule:evenodd;stroke:rgb(255, 35, 0);stroke-width:1;" d="M 50.8444, 754.133 L 56.7111, 746.133 L 59.3778, 745.067 L 65.0667, 737.067 L 69.3333, 738.844 L 72, 735.289 L 67.7333, 733.511 L 70.0444, 730.133 L 70.4, 727.111 L 76.2667, 718.933 L 99.2, 728.533 L 92.8, 737.422 L 90.4889, 738.133 L 87.8222, 742.044 L 86.2222, 741.333 L 83.9111, 744.533 L 85.5111, 745.244 L 79.8222, 753.067 L 79.8222, 755.733 L 75.7333, 761.422 L 73.9556, 763.733 L 50.8444, 754.133 z "/>
<path style="fill:rgb(0, 255, 0);fill-opacity:0;fill-rule:evenodd;stroke:rgb(255, 35, 0);stroke-width:1;" d="M 68.2667, 339.733 L 69.1556, 338.667 L 87.1111, 313.956 L 97.0667, 300.267 L 107.378, 304.711 L 104, 309.333 L 98.4889, 317.156 L 92.4444, 325.333 L 86.2222, 333.867 L 78.7556, 344.178 L 68.2667, 339.733 z "/>
<path style="fill:rgb(0, 0, 255);fill-opacity:0;fill-rule:evenodd;stroke:rgb(255, 35, 0);stroke-width:1;" d="M 435.378, 78.2222 L 454.933, 51.3778 L 456.889, 48.7111 L 462.044, 50.8444 L 470.4, 39.4667 L 465.244, 37.3333 L 476.089, 22.4 L 492.622, 0 L 576.533, 35.5556 L 560, 58.3111 L 549.333, 72.8889 L 544.533, 70.9333 L 536.356, 82.1333 L 541.156, 84.0889 L 538.311, 87.8222 L 522.667, 109.156 L 519.467, 113.778 L 500.444, 105.778 L 516.444, 83.9111 L 502.044, 77.8667 L 499.911, 80.8889 L 482.133, 73.4222 L 484.267, 70.4 L 470.4, 64.5333 L 454.578, 86.2222 L 435.378, 78.2222 z "/>
<path style="fill:rgb(255, 255, 0);fill-opacity:0;fill-rule:evenodd;stroke:rgb(255, 35, 0);stroke-width:1;" d="M 1007.47, 43.2 L 1023.82, 20.8 L 1051.02, 32.1778 L 1109.69, 57.0667 L 1093.33, 79.4667 L 1007.47, 43.2 z "/>
<path style="fill:rgb(255, 0, 0);fill-opacity:0;fill-rule:evenodd;stroke:rgb(255, 35, 0);stroke-width:1;" d="M 383.822, 56.3556 L 404.978, 27.3778 L 427.2, 36.8 L 423.822, 41.4222 L 428.089, 43.2 L 429.867, 40.8889 L 454.933, 51.3778 L 435.378, 78.2222 L 383.822, 56.3556 z "/>
<path style="fill:rgb(0, 255, 0);fill-opacity:0;fill-rule:evenodd;stroke:rgb(255, 35, 0);stroke-width:1;" d="M 694.756, 50.4889 L 701.156, 41.6 L 712.533, 25.7778 L 713.244, 24.7111 L 720.356, 27.7333 L 718.933, 29.6889 L 725.333, 32.1778 L 722.667, 35.7333 L 708.267, 56.1778 L 694.756, 50.4889 z "/>
<path style="fill:rgb(0, 0, 255);fill-opacity:0;fill-rule:evenodd;stroke:rgb(255, 35, 0);stroke-width:1;" d="M 858.133, 40.5333 L 865.6, 29.8667 L 890.489, 40.1778 L 883.022, 50.8444 L 869.333, 45.1556 L 858.133, 40.5333 z "/>
</svg>