<?xml version="1.0" encoding="iso-8859-1" standalone="no"?>
<!DOCTYPE svg PUBLIC "-//W3C//DTD SVG 1.0//EN" "http://www.w3.org/TR/2001/REC-SVG-20010904/DTD/svg10.dtd">
<svg xmlns="http://www.w3.org/2000/svg" width="651" height="800">
<path style="fill:rgb(255, 0, 0);fill-opacity:0;fill-rule:evenodd;stroke:rgb(0, 229, 255);stroke-width:1;" d="M 371.915, 636.946 L 395.365, 605.59 L 477.71, 641.309 L 489.434, 625.494 L 468.712, 616.496 L 526.517, 539.605 L 589.502, 455.624 L 651.125, 482.072 L 586.23, 568.78 L 565.235, 596.319 L 647.58, 632.038 L 635.855, 647.853 L 624.404, 663.122 L 562.781, 636.401 L 550.784, 652.215 L 571.234, 661.213 L 523.245, 725.017 L 512.883, 738.923 L 533.606, 747.921 L 510.157, 779.005 L 494.615, 800 L 456.442, 783.64 L 453.988, 786.912 L 447.171, 783.913 L 449.898, 780.641 L 411.997, 764.281 L 440.082, 726.926 L 450.988, 712.474 L 471.711, 721.472 L 475.801, 716.019 L 507.157, 674.301 L 486.708, 665.303 L 474.71, 681.391 L 371.915, 636.946 z "/>
<path style="fill:rgb(0, 255, 0);fill-opacity:0;fill-rule:evenodd;stroke:rgb(0, 229, 255);stroke-width:1;" d="M 180.232, 595.501 L 211.316, 553.238 L 215.406, 555.147 L 232.856, 531.425 L 281.391, 552.147 L 288.207, 555.147 L 286.299, 557.873 L 317.382, 571.234 L 285.753, 613.77 L 281.663, 612.134 L 269.393, 628.766 L 250.852, 653.851 L 227.403, 643.763 L 195.228, 630.13 L 211.043, 608.589 L 180.232, 595.501 z M 263.395, 589.775 L 276.755, 595.228 L 281.936, 588.139 L 268.575, 582.686 L 263.395, 589.775 z M 247.58, 568.78 L 257.396, 572.87 L 264.213, 562.781 L 254.669, 558.691 L 247.58, 568.78 z M 216.224, 579.686 L 229.584, 585.412 L 235.037, 578.323 L 221.677, 572.324 L 216.224, 579.686 z "/>
<path style="fill:rgb(0, 0, 255);fill-opacity:0;fill-rule:evenodd;stroke:rgb(0, 229, 255);stroke-width:1;" d="M 172.324, 708.93 L 191.138, 683.845 L 203.681, 666.939 L 233.129, 679.482 L 258.759, 690.389 L 260.668, 687.935 L 316.019, 711.656 L 298.841, 735.106 L 302.113, 736.742 L 270.484, 779.005 L 239.4, 765.644 L 237.491, 768.098 L 182.14, 744.376 L 199.864, 720.654 L 172.324, 708.93 z M 257.941, 717.928 L 266.939, 722.018 L 274.301, 711.929 L 265.303, 708.112 L 257.941, 717.928 z M 257.941, 741.922 L 271.029, 747.648 L 276.21, 740.559 L 263.122, 734.833 L 257.941, 741.922 z M 224.131, 744.922 L 233.947, 749.012 L 240.763, 739.196 L 230.948, 735.106 L 224.131, 744.922 z "/>
<path style="fill:rgb(255, 255, 0);fill-opacity:0;fill-rule:evenodd;stroke:rgb(0, 229, 255);stroke-width:1;" d="M 361.282, 383.64 L 377.641, 362.372 L 393.183, 341.922 L 419.905, 353.92 L 437.9, 330.47 L 487.253, 352.284 L 493.252, 355.01 L 491.616, 356.919 L 522.427, 370.552 L 490.252, 412.815 L 486.98, 411.179 L 469.257, 434.356 L 414.179, 410.089 L 416.087, 407.907 L 392.911, 397.819 L 361.282, 383.64 z M 468.166, 389.093 L 481.8, 394.819 L 487.526, 387.185 L 473.62, 381.459 L 468.166, 389.093 z M 451.534, 368.098 L 461.35, 372.188 L 468.984, 362.1 L 459.168, 358.01 L 451.534, 368.098 z M 439.264, 403.817 L 448.807, 407.907 L 456.169, 397.546 L 446.353, 393.729 L 439.264, 403.817 z "/>
<path style="fill:rgb(255, 0, 0);fill-opacity:0;fill-rule:evenodd;stroke:rgb(0, 229, 255);stroke-width:1;" d="M 223.04, 472.529 L 240.218, 449.08 L 237.219, 447.716 L 268.303, 405.181 L 299.387, 418.269 L 314.656, 397.546 L 370.007, 421.268 L 338.923, 463.531 L 341.65, 464.622 L 310.566, 506.885 L 279.755, 493.797 L 278.119, 495.978 L 223.04, 472.529 z M 263.122, 444.172 L 268.03, 446.353 L 276.21, 449.898 L 281.663, 443.081 L 268.575, 437.355 L 263.122, 444.172 z M 298.023, 469.802 L 311.384, 475.801 L 316.837, 468.984 L 303.476, 462.986 L 298.023, 469.802 z M 264.485, 473.347 L 274.301, 477.164 L 281.663, 466.53 L 272.12, 462.713 L 264.485, 473.347 z "/>
<path style="fill:rgb(0, 255, 0);fill-opacity:0;fill-rule:evenodd;stroke:rgb(0, 229, 255);stroke-width:1;" d="M 423.449, 95.9782 L 433.265, 88.0709 L 431.357, 86.9802 L 438.173, 81.2543 L 440.082, 82.6176 L 474.165, 54.8057 L 479.618, 58.623 L 501.159, 41.1725 L 480.436, 26.4485 L 492.161, 17.1779 L 489.98, 15.5419 L 499.796, 7.36196 L 501.977, 8.99796 L 513.156, 0 L 520.245, 5.18064 L 566.326, 38.1731 L 573.96, 43.6264 L 581.868, 49.3524 L 588.139, 53.7151 L 555.147, 80.4363 L 520.791, 55.8964 L 504.431, 68.9843 L 499.25, 73.0743 L 502.522, 75.5283 L 451.806, 116.428 L 423.449, 95.9782 z "/>
<path style="fill:rgb(0, 0, 255);fill-opacity:0;fill-rule:evenodd;stroke:rgb(0, 229, 255);stroke-width:1;" d="M 112.883, 446.898 L 154.329, 401.363 L 167.144, 407.362 L 127.335, 452.897 L 112.883, 446.898 z "/>
<path style="fill:rgb(255, 255, 0);fill-opacity:0;fill-rule:evenodd;stroke:rgb(0, 229, 255);stroke-width:1;" d="M 0, 551.329 L 31.6292, 506.885 L 44.1718, 512.065 L 12.5426, 556.51 L 0, 551.329 z "/>
<path style="fill:rgb(255, 0, 0);fill-opacity:0;fill-rule:evenodd;stroke:rgb(0, 229, 255);stroke-width:1;" d="M 188.139, 367.007 L 209.952, 343.013 L 218.95, 347.921 L 198.228, 371.643 L 188.139, 367.007 z "/>
<path style="fill:rgb(0, 255, 0);fill-opacity:0;fill-rule:evenodd;stroke:rgb(0, 229, 255);stroke-width:1;" d="M 164.417, 393.729 L 180.504, 373.824 L 192.229, 378.732 L 175.324, 398.091 L 164.417, 393.729 z "/>
</svg>