<?xml version="1.0" encoding="iso-8859-1" standalone="no"?>
<!DOCTYPE svg PUBLIC "-//W3C//DTD SVG 1.0//EN" "http://www.w3.org/TR/2001/REC-SVG-20010904/DTD/svg10.dtd">
<svg xmlns="http://www.w3.org/2000/svg" width="953" height="800">
<path style="fill:rgb(255, 0, 0);fill-opacity:0;fill-rule:evenodd;stroke:rgb(0, 255, 112);stroke-width:1;" d="M 441.549, 296.479 L 544.718, 225.88 L 616.373, 286.62 L 513.908, 356.514 L 513.028, 357.218 L 441.549, 296.479 z "/>
<path style="fill:rgb(0, 255, 0);fill-opacity:0;fill-rule:evenodd;stroke:rgb(0, 255, 112);stroke-width:1;" d="M 320.423, 368.662 L 327.465, 363.908 L 334.155, 359.331 L 341.021, 354.577 L 347.887, 350 L 354.577, 345.423 L 371.303, 333.979 L 374.648, 331.866 L 377.993, 329.401 L 381.514, 327.113 L 384.859, 324.824 L 388.38, 322.535 L 391.725, 320.246 L 398.592, 315.493 L 405.282, 310.915 L 411.62, 316.373 L 417.782, 321.479 L 423.944, 326.585 L 429.93, 331.866 L 436.092, 336.972 L 452.289, 350.704 L 458.451, 355.81 L 464.613, 361.092 L 470.599, 366.197 L 476.761, 371.479 L 482.923, 376.585 L 475.88, 381.338 L 469.014, 385.915 L 462.148, 390.669 L 455.458, 395.246 L 448.592, 400 L 432.042, 411.092 L 425.176, 415.669 L 418.486, 420.423 L 411.62, 425 L 404.754, 429.577 L 398.063, 434.155 L 391.549, 428.873 L 385.563, 423.768 L 379.401, 418.486 L 373.239, 413.38 L 367.077, 408.099 L 351.056, 394.542 L 347.887, 391.901 L 344.894, 389.261 L 341.901, 386.796 L 338.732, 384.155 L 335.739, 381.514 L 332.57, 378.873 L 329.577, 376.408 L 326.408, 373.768 L 320.423, 368.662 z "/>
<path style="fill:rgb(0, 0, 255);fill-opacity:0;fill-rule:evenodd;stroke:rgb(0, 255, 112);stroke-width:1;" d="M 725.704, 121.303 L 726.232, 108.627 L 750, 91.9014 L 770.07, 77.8169 L 794.014, 60.9155 L 810.035, 61.2676 L 832.57, 79.7535 L 850.704, 94.5423 L 872.887, 112.676 L 872.359, 125.176 L 848.592, 141.901 L 828.521, 155.986 L 824.12, 155.81 L 808.451, 166.901 L 783.451, 166.373 L 769.19, 154.225 L 766.021, 154.225 L 747.887, 139.437 L 725.704, 121.303 z "/>
<path style="fill:rgb(255, 255, 0);fill-opacity:0;fill-rule:evenodd;stroke:rgb(0, 255, 112);stroke-width:1;" d="M 641.373, 218.31 L 645.775, 214.437 L 649.472, 211.092 L 672.183, 191.549 L 670.246, 190.317 L 676.585, 184.859 L 675.352, 184.155 L 707.746, 158.099 L 713.204, 161.092 L 727.465, 149.648 L 787.324, 188.38 L 690.669, 251.761 L 641.373, 218.31 z "/>
<path style="fill:rgb(255, 0, 0);fill-opacity:0;fill-rule:evenodd;stroke:rgb(0, 255, 112);stroke-width:1;" d="M 747.887, 139.437 L 750, 91.9014 L 770.07, 77.8169 L 832.57, 79.7535 L 850.704, 94.5423 L 848.592, 141.901 L 828.521, 155.986 L 824.12, 155.81 L 769.19, 154.225 L 766.021, 154.225 L 747.887, 139.437 z "/>
<path style="fill:rgb(0, 255, 0);fill-opacity:0;fill-rule:evenodd;stroke:rgb(0, 255, 112);stroke-width:1;" d="M 143.486, 227.993 L 226.937, 182.394 L 257.923, 212.148 L 274.648, 228.169 L 195.951, 280.458 L 143.486, 227.993 z "/>
<path style="fill:rgb(0, 0, 255);fill-opacity:0;fill-rule:evenodd;stroke:rgb(0, 255, 112);stroke-width:1;" d="M 361.972, 226.585 L 460.563, 155.81 L 484.331, 174.824 L 465.845, 188.028 L 458.627, 182.218 L 447.711, 190.141 L 481.514, 217.43 L 412.5, 267.077 L 361.972, 226.585 z "/>
<path style="fill:rgb(255, 255, 0);fill-opacity:0;fill-rule:evenodd;stroke:rgb(0, 255, 112);stroke-width:1;" d="M 245.599, 307.042 L 327.465, 251.585 L 376.232, 293.134 L 350.88, 310.387 L 294.366, 348.768 L 245.599, 307.042 z "/>
<path style="fill:rgb(255, 0, 0);fill-opacity:0;fill-rule:evenodd;stroke:rgb(0, 255, 112);stroke-width:1;" d="M 354.225, 392.077 L 357.746, 348.063 L 374.472, 336.62 L 432.57, 339.261 L 448.944, 353.169 L 445.599, 397.183 L 429.049, 408.275 L 370.599, 405.986 L 354.225, 392.077 z "/>
<path style="fill:rgb(0, 255, 0);fill-opacity:0;fill-rule:evenodd;stroke:rgb(0, 255, 112);stroke-width:1;" d="M 298.063, 148.944 L 299.296, 148.063 L 299.12, 144.542 L 298.063, 143.662 L 299.12, 142.958 L 300, 142.254 L 304.577, 138.908 L 305.458, 138.38 L 306.514, 137.676 L 311.092, 134.331 L 311.972, 133.627 L 312.852, 132.923 L 317.43, 129.577 L 318.31, 128.873 L 319.366, 128.169 L 323.944, 124.824 L 324.824, 124.12 L 325.88, 123.415 L 330.458, 120.07 L 331.338, 119.366 L 332.218, 118.662 L 336.796, 115.493 L 337.852, 114.789 L 338.732, 114.085 L 343.31, 110.739 L 344.19, 110.035 L 345.246, 109.331 L 349.824, 105.986 L 350.704, 105.282 L 351.585, 104.577 L 356.162, 101.232 L 357.218, 100.528 L 358.099, 99.8239 L 362.676, 96.4789 L 363.556, 95.7746 L 364.613, 95.0704 L 369.19, 91.7254 L 370.07, 91.0211 L 370.951, 90.493 L 372.183, 91.3732 L 377.113, 91.5493 L 377.993, 90.8451 L 379.049, 91.5493 L 379.93, 92.2535 L 383.979, 95.4225 L 384.859, 96.1268 L 385.739, 96.831 L 389.789, 100.176 L 390.669, 100.88 L 391.725, 101.585 L 395.775, 104.754 L 396.655, 105.458 L 397.535, 106.162 L 401.761, 109.507 L 402.465, 110.211 L 403.521, 110.915 L 407.57, 114.085 L 408.451, 114.789 L 409.331, 115.669 L 413.38, 118.838 L 414.261, 119.542 L 415.317, 120.246 L 414.261, 120.951 L 414.261, 124.648 L 415.317, 125.528 L 414.261, 126.232 L 413.38, 126.761 L 408.803, 130.106 L 407.746, 130.81 L 406.866, 131.514 L 402.289, 134.859 L 401.408, 135.563 L 400.352, 136.268 L 395.775, 139.613 L 394.894, 140.317 L 393.838, 141.021 L 389.261, 144.366 L 388.38, 144.894 L 387.324, 145.775 L 382.746, 148.944 L 381.866, 149.648 L 380.986, 150.352 L 376.408, 153.697 L 375.352, 154.401 L 374.472, 155.106 L 369.894, 158.451 L 368.838, 159.155 L 367.958, 159.859 L 363.38, 163.204 L 362.5, 163.732 L 361.444, 164.437 L 356.866, 167.782 L 355.986, 168.486 L 354.93, 169.19 L 350.352, 172.535 L 349.472, 173.239 L 348.415, 173.944 L 343.838, 177.289 L 342.958, 177.993 L 342.077, 178.697 L 341.021, 177.817 L 336.268, 177.993 L 335.211, 178.697 L 334.331, 177.993 L 333.451, 177.289 L 329.401, 173.944 L 328.521, 173.239 L 327.641, 172.535 L 323.415, 169.19 L 322.535, 168.486 L 321.655, 167.782 L 317.606, 164.613 L 316.725, 163.908 L 315.845, 163.028 L 311.62, 159.859 L 310.739, 159.155 L 309.859, 158.451 L 305.81, 155.106 L 304.93, 154.401 L 304.049, 153.697 L 299.824, 150.352 L 298.944, 149.648 L 298.063, 148.944 z "/>
<path style="fill:rgb(0, 0, 255);fill-opacity:0;fill-rule:evenodd;stroke:rgb(0, 255, 112);stroke-width:1;" d="M 584.507, 181.866 L 658.275, 130.986 L 664.085, 134.155 L 707.746, 158.099 L 675.352, 184.155 L 676.585, 184.859 L 670.246, 190.317 L 672.183, 191.549 L 649.472, 211.092 L 645.775, 214.437 L 641.373, 218.31 L 584.507, 181.866 z "/>
<path style="fill:rgb(255, 255, 0);fill-opacity:0;fill-rule:evenodd;stroke:rgb(0, 255, 112);stroke-width:1;" d="M 309.859, 158.451 L 311.092, 157.57 L 311.268, 154.401 L 311.796, 138.732 L 311.972, 135.035 L 311.092, 134.331 L 311.972, 133.627 L 312.852, 132.923 L 317.43, 129.577 L 318.31, 128.873 L 319.366, 128.169 L 323.944, 124.824 L 324.824, 124.12 L 325.88, 123.415 L 330.458, 120.07 L 331.338, 119.366 L 332.218, 118.662 L 336.796, 115.493 L 337.852, 114.789 L 338.732, 114.085 L 343.31, 110.739 L 344.19, 110.035 L 345.246, 109.331 L 349.824, 105.986 L 350.704, 105.282 L 351.585, 104.577 L 356.162, 101.232 L 357.218, 100.528 L 358.099, 99.8239 L 359.155, 100.88 L 363.556, 100.88 L 384.507, 100.88 L 388.908, 100.88 L 389.789, 100.176 L 390.669, 100.88 L 391.725, 101.585 L 395.775, 104.754 L 396.655, 105.458 L 397.535, 106.162 L 401.761, 109.507 L 402.465, 110.211 L 403.521, 110.915 L 402.465, 111.62 L 402.289, 114.789 L 401.408, 130.81 L 401.232, 134.155 L 402.289, 134.859 L 401.408, 135.563 L 400.352, 136.268 L 395.775, 139.613 L 394.894, 140.317 L 393.838, 141.021 L 389.261, 144.366 L 388.38, 144.894 L 387.324, 145.775 L 382.746, 148.944 L 381.866, 149.648 L 380.986, 150.352 L 376.408, 153.697 L 375.352, 154.401 L 374.472, 155.106 L 369.894, 158.451 L 368.838, 159.155 L 367.958, 159.859 L 363.38, 163.204 L 362.5, 163.732 L 361.444, 164.437 L 356.866, 167.782 L 355.986, 168.486 L 354.93, 169.19 L 354.049, 168.486 L 349.472, 168.486 L 329.049, 168.486 L 324.472, 168.486 L 323.415, 169.19 L 322.535, 168.486 L 321.655, 167.782 L 317.606, 164.613 L 316.725, 163.908 L 315.845, 163.028 L 311.62, 159.859 L 310.739, 159.155 L 309.859, 158.451 z "/>
<path style="fill:rgb(255, 0, 0);fill-opacity:0;fill-rule:evenodd;stroke:rgb(0, 255, 112);stroke-width:1;" d="M 509.155, 124.296 L 573.063, 79.0493 L 619.19, 116.901 L 571.303, 150.704 L 555.282, 161.972 L 509.155, 124.296 z "/>
<path style="fill:rgb(0, 255, 0);fill-opacity:0;fill-rule:evenodd;stroke:rgb(0, 255, 112);stroke-width:1;" d="M 309.859, 158.451 L 311.092, 157.57 L 311.268, 154.401 L 311.796, 138.732 L 311.972, 135.035 L 311.092, 134.331 L 311.972, 133.627 L 312.852, 132.923 L 314.085, 133.803 L 318.31, 133.979 L 318.486, 130.282 L 317.43, 129.577 L 318.31, 128.873 L 319.366, 128.169 L 320.423, 129.049 L 324.824, 129.225 L 324.824, 125.528 L 323.944, 124.824 L 324.824, 124.12 L 325.88, 123.415 L 326.937, 124.296 L 331.338, 124.472 L 331.338, 120.775 L 330.458, 120.07 L 331.338, 119.366 L 332.218, 118.662 L 333.451, 119.718 L 337.676, 119.718 L 337.852, 116.197 L 336.796, 115.493 L 337.852, 114.789 L 338.732, 114.085 L 339.789, 114.965 L 344.19, 115.141 L 344.19, 111.444 L 343.31, 110.739 L 344.19, 110.035 L 345.246, 109.331 L 346.303, 110.211 L 350.704, 110.387 L 350.704, 106.69 L 349.824, 105.986 L 350.704, 105.282 L 351.585, 104.577 L 352.817, 105.458 L 357.042, 105.634 L 357.218, 101.937 L 356.162, 101.232 L 357.218, 100.528 L 358.099, 99.8239 L 359.155, 100.88 L 363.556, 100.88 L 384.507, 100.88 L 388.908, 100.88 L 389.789, 100.176 L 390.669, 100.88 L 391.725, 101.585 L 390.669, 102.289 L 390.317, 105.458 L 394.718, 105.458 L 395.775, 104.754 L 396.655, 105.458 L 397.535, 106.162 L 396.655, 107.042 L 396.127, 110.211 L 400.704, 110.211 L 401.761, 109.507 L 402.465, 110.211 L 403.521, 110.915 L 402.465, 111.62 L 402.289, 114.789 L 401.408, 130.81 L 401.232, 134.155 L 402.289, 134.859 L 401.408, 135.563 L 400.352, 136.268 L 399.472, 135.563 L 394.894, 135.211 L 394.894, 138.908 L 395.775, 139.613 L 394.894, 140.317 L 393.838, 141.021 L 392.958, 140.141 L 388.38, 139.965 L 388.38, 143.486 L 389.261, 144.366 L 388.38, 144.894 L 387.324, 145.775 L 386.444, 144.894 L 382.042, 144.718 L 381.866, 148.239 L 382.746, 148.944 L 381.866, 149.648 L 380.986, 150.352 L 379.93, 149.648 L 375.528, 149.296 L 375.352, 152.993 L 376.408, 153.697 L 375.352, 154.401 L 374.472, 155.106 L 373.415, 154.401 L 369.014, 154.049 L 368.838, 157.746 L 369.894, 158.451 L 368.838, 159.155 L 367.958, 159.859 L 367.077, 158.979 L 362.5, 158.803 L 362.324, 162.324 L 363.38, 163.204 L 362.5, 163.732 L 361.444, 164.437 L 360.563, 163.732 L 355.986, 163.38 L 355.986, 167.077 L 356.866, 167.782 L 355.986, 168.486 L 354.93, 169.19 L 354.049, 168.486 L 349.472, 168.486 L 329.049, 168.486 L 324.472, 168.486 L 323.415, 169.19 L 322.535, 168.486 L 321.655, 167.782 L 322.887, 166.901 L 323.063, 163.908 L 318.662, 163.732 L 317.606, 164.613 L 316.725, 163.908 L 315.845, 163.028 L 317.077, 162.324 L 317.254, 159.155 L 312.676, 159.155 L 311.62, 159.859 L 310.739, 159.155 L 309.859, 158.451 z "/>
<path style="fill:rgb(0, 0, 255);fill-opacity:0;fill-rule:evenodd;stroke:rgb(0, 255, 112);stroke-width:1;" d="M 605.282, 182.923 L 663.732, 142.254 L 691.197, 158.803 L 667.43, 178.521 L 675.352, 184.155 L 676.585, 184.859 L 670.246, 190.317 L 672.183, 191.549 L 649.472, 211.092 L 605.282, 182.923 z "/>
<path style="fill:rgb(255, 255, 0);fill-opacity:0;fill-rule:evenodd;stroke:rgb(0, 255, 112);stroke-width:1;" d="M 317.606, 141.901 L 368.31, 104.754 L 380.634, 104.754 L 396.127, 116.901 L 395.423, 126.056 L 344.718, 163.204 L 333.099, 163.028 L 317.606, 150.704 L 317.606, 141.901 z "/>
<path style="fill:rgb(255, 0, 0);fill-opacity:0;fill-rule:evenodd;stroke:rgb(0, 255, 112);stroke-width:1;" d="M 219.366, 109.155 L 291.725, 101.408 L 294.014, 101.585 L 295.951, 102.113 L 296.831, 102.641 L 298.592, 103.697 L 299.296, 104.225 L 300.352, 105.634 L 300.704, 106.514 L 301.056, 108.099 L 300.88, 109.683 L 300.176, 111.268 L 299.12, 112.676 L 298.415, 113.38 L 271.655, 130.986 L 237.5, 148.592 L 219.366, 109.155 z "/>
<path style="fill:rgb(0, 255, 0);fill-opacity:0;fill-rule:evenodd;stroke:rgb(0, 255, 112);stroke-width:1;" d="M 285.739, 400.352 L 302.817, 389.085 L 373.592, 451.232 L 356.69, 462.5 L 285.739, 400.352 z "/>
<path style="fill:rgb(0, 0, 255);fill-opacity:0;fill-rule:evenodd;stroke:rgb(0, 255, 112);stroke-width:1;" d="M 779.049, 133.803 L 780.986, 99.4718 L 786.796, 95.2465 L 813.028, 95.9507 L 819.19, 100.88 L 817.077, 135.035 L 810.739, 139.437 L 784.507, 138.556 L 779.049, 133.803 z "/>
<path style="fill:rgb(255, 255, 0);fill-opacity:0;fill-rule:evenodd;stroke:rgb(0, 255, 112);stroke-width:1;" d="M 595.246, 181.338 L 664.085, 134.155 L 707.746, 158.099 L 675.352, 184.155 L 667.43, 178.521 L 691.197, 158.803 L 663.732, 142.254 L 605.282, 182.923 L 649.472, 211.092 L 645.775, 214.437 L 595.246, 181.338 z "/>
<path style="fill:rgb(255, 0, 0);fill-opacity:0;fill-rule:evenodd;stroke:rgb(0, 255, 112);stroke-width:1;" d="M 407.394, 73.2394 L 424.824, 55.8099 L 453.521, 74.2958 L 457.57, 71.6549 L 476.585, 83.9789 L 453.873, 101.232 L 451.585, 101.408 L 407.394, 73.2394 z "/>
<path style="fill:rgb(0, 255, 0);fill-opacity:0;fill-rule:evenodd;stroke:rgb(0, 255, 112);stroke-width:1;" d="M 118.838, 763.732 L 131.162, 758.275 L 133.803, 761.444 L 153.169, 752.993 L 173.063, 780.634 L 155.81, 788.204 L 158.979, 793.134 L 144.014, 800 L 118.838, 763.732 z "/>
<path style="fill:rgb(0, 0, 255);fill-opacity:0;fill-rule:evenodd;stroke:rgb(0, 255, 112);stroke-width:1;" d="M 322.183, 146.479 L 374.296, 108.451 L 391.021, 121.655 L 338.908, 159.683 L 322.183, 146.479 z "/>
<path style="fill:rgb(255, 255, 0);fill-opacity:0;fill-rule:evenodd;stroke:rgb(0, 255, 112);stroke-width:1;" d="M 447.711, 190.141 L 458.627, 182.218 L 465.845, 188.028 L 484.331, 174.824 L 510.915, 196.303 L 481.514, 217.43 L 447.711, 190.141 z "/>
<path style="fill:rgb(255, 0, 0);fill-opacity:0;fill-rule:evenodd;stroke:rgb(0, 255, 112);stroke-width:1;" d="M 242.43, 177.993 L 262.852, 163.556 L 274.472, 173.063 L 271.303, 175.528 L 285.563, 187.324 L 282.218, 189.789 L 295.423, 200.528 L 293.31, 202.113 L 297.887, 205.81 L 294.718, 208.099 L 297.535, 210.387 L 285.211, 219.19 L 270.246, 204.754 L 242.43, 177.993 z "/>
<path style="fill:rgb(0, 255, 0);fill-opacity:0;fill-rule:evenodd;stroke:rgb(0, 255, 112);stroke-width:1;" d="M 658.275, 130.986 L 674.648, 118.134 L 727.465, 149.648 L 713.204, 161.092 L 707.746, 158.099 L 664.085, 134.155 L 658.275, 130.986 z "/>
<path style="fill:rgb(0, 0, 255);fill-opacity:0;fill-rule:evenodd;stroke:rgb(0, 255, 112);stroke-width:1;" d="M 185.035, 113.556 L 207.394, 110.739 L 223.415, 152.465 L 198.944, 159.331 L 185.035, 113.556 z "/>
<path style="fill:rgb(255, 255, 0);fill-opacity:0;fill-rule:evenodd;stroke:rgb(0, 255, 112);stroke-width:1;" d="M 584.507, 181.866 L 658.275, 130.986 L 664.085, 134.155 L 595.246, 181.338 L 645.775, 214.437 L 641.373, 218.31 L 584.507, 181.866 z "/>
<path style="fill:rgb(255, 0, 0);fill-opacity:0;fill-rule:evenodd;stroke:rgb(0, 255, 112);stroke-width:1;" d="M 639.261, 452.289 L 656.69, 441.197 L 687.676, 469.718 L 670.423, 480.634 L 639.261, 452.289 z "/>
<path style="fill:rgb(0, 255, 0);fill-opacity:0;fill-rule:evenodd;stroke:rgb(0, 255, 112);stroke-width:1;" d="M 770.07, 77.8169 L 794.014, 60.9155 L 810.035, 61.2676 L 832.57, 79.7535 L 770.07, 77.8169 z "/>
<path style="fill:rgb(0, 0, 255);fill-opacity:0;fill-rule:evenodd;stroke:rgb(0, 255, 112);stroke-width:1;" d="M 725.704, 121.303 L 726.232, 108.627 L 750, 91.9014 L 747.887, 139.437 L 725.704, 121.303 z "/>
<path style="fill:rgb(255, 255, 0);fill-opacity:0;fill-rule:evenodd;stroke:rgb(0, 255, 112);stroke-width:1;" d="M 848.592, 141.901 L 850.704, 94.5423 L 872.887, 112.676 L 872.359, 125.176 L 848.592, 141.901 z "/>
<path style="fill:rgb(255, 0, 0);fill-opacity:0;fill-rule:evenodd;stroke:rgb(0, 255, 112);stroke-width:1;" d="M 226.937, 182.394 L 239.261, 175 L 242.43, 177.993 L 270.246, 204.754 L 257.923, 212.148 L 226.937, 182.394 z "/>
<path style="fill:rgb(0, 255, 0);fill-opacity:0;fill-rule:evenodd;stroke:rgb(0, 255, 112);stroke-width:1;" d="M 207.394, 110.739 L 219.366, 109.155 L 237.5, 148.592 L 223.415, 152.465 L 207.394, 110.739 z "/>
<path style="fill:rgb(0, 0, 255);fill-opacity:0;fill-rule:evenodd;stroke:rgb(0, 255, 112);stroke-width:1;" d="M 769.19, 154.225 L 824.12, 155.81 L 808.451, 166.901 L 783.451, 166.373 L 769.19, 154.225 z "/>
<path style="fill:rgb(255, 255, 0);fill-opacity:0;fill-rule:evenodd;stroke:rgb(0, 255, 112);stroke-width:1;" d="M 438.732, 59.1549 L 444.542, 54.2254 L 484.331, 78.169 L 476.585, 83.9789 L 457.57, 71.6549 L 438.732, 59.1549 z "/>
<path style="fill:rgb(255, 0, 0);fill-opacity:0;fill-rule:evenodd;stroke:rgb(0, 255, 112);stroke-width:1;" d="M 257.923, 212.148 L 270.246, 204.754 L 285.211, 219.19 L 286.972, 220.775 L 274.648, 228.169 L 257.923, 212.148 z "/>
<path style="fill:rgb(0, 255, 0);fill-opacity:0;fill-rule:evenodd;stroke:rgb(0, 255, 112);stroke-width:1;" d="M 414.261, 323.768 L 417.782, 321.479 L 423.944, 326.585 L 429.93, 331.866 L 436.092, 336.972 L 452.289, 350.704 L 458.451, 355.81 L 464.613, 361.092 L 470.599, 366.197 L 467.077, 368.662 L 414.261, 323.768 z "/>
<path style="fill:rgb(0, 0, 255);fill-opacity:0;fill-rule:evenodd;stroke:rgb(0, 255, 112);stroke-width:1;" d="M 332.57, 378.873 L 336.092, 376.585 L 342.254, 381.69 L 348.415, 386.972 L 354.225, 392.077 L 370.599, 405.986 L 376.585, 411.092 L 388.908, 421.479 L 385.563, 423.768 L 332.57, 378.873 z "/>
<path style="fill:rgb(255, 255, 0);fill-opacity:0;fill-rule:evenodd;stroke:rgb(0, 255, 112);stroke-width:1;" d="M 334.155, 359.331 L 391.725, 320.246 L 394.894, 322.887 L 388.028, 327.465 L 381.162, 332.218 L 374.472, 336.62 L 357.746, 348.063 L 350.88, 352.641 L 344.014, 357.218 L 337.148, 361.796 L 334.155, 359.331 z "/>
<path style="fill:rgb(255, 0, 0);fill-opacity:0;fill-rule:evenodd;stroke:rgb(0, 255, 112);stroke-width:1;" d="M 408.451, 422.359 L 415.317, 417.606 L 422.183, 413.028 L 429.049, 408.275 L 445.599, 397.183 L 452.289, 392.782 L 459.155, 388.028 L 466.021, 383.451 L 469.014, 385.915 L 411.62, 425 L 408.451, 422.359 z "/>
<path style="fill:rgb(0, 255, 0);fill-opacity:0;fill-rule:evenodd;stroke:rgb(0, 255, 112);stroke-width:1;" d="M 370.599, 405.986 L 429.049, 408.275 L 422.183, 413.028 L 376.585, 411.092 L 370.599, 405.986 z "/>
<path style="fill:rgb(0, 0, 255);fill-opacity:0;fill-rule:evenodd;stroke:rgb(0, 255, 112);stroke-width:1;" d="M 348.415, 386.972 L 350.88, 352.641 L 357.746, 348.063 L 354.225, 392.077 L 348.415, 386.972 z "/>
<path style="fill:rgb(255, 255, 0);fill-opacity:0;fill-rule:evenodd;stroke:rgb(0, 255, 112);stroke-width:1;" d="M 445.599, 397.183 L 448.944, 353.169 L 454.93, 358.275 L 452.289, 392.782 L 445.599, 397.183 z "/>
<path style="fill:rgb(255, 0, 0);fill-opacity:0;fill-rule:evenodd;stroke:rgb(0, 255, 112);stroke-width:1;" d="M 374.472, 336.62 L 381.162, 332.218 L 426.585, 334.155 L 432.57, 339.261 L 374.472, 336.62 z "/>
<path style="fill:rgb(0, 255, 0);fill-opacity:0;fill-rule:evenodd;stroke:rgb(0, 255, 112);stroke-width:1;" d="M 420.423, 328.873 L 423.944, 326.585 L 429.93, 331.866 L 436.092, 336.972 L 452.289, 350.704 L 458.451, 355.81 L 464.613, 361.092 L 460.915, 363.38 L 420.423, 328.873 z "/>
<path style="fill:rgb(0, 0, 255);fill-opacity:0;fill-rule:evenodd;stroke:rgb(0, 255, 112);stroke-width:1;" d="M 338.732, 384.155 L 342.254, 381.69 L 348.415, 386.972 L 354.225, 392.077 L 370.599, 405.986 L 376.585, 411.092 L 382.746, 416.197 L 379.401, 418.486 L 338.732, 384.155 z "/>
<path style="fill:rgb(255, 255, 0);fill-opacity:0;fill-rule:evenodd;stroke:rgb(0, 255, 112);stroke-width:1;" d="M 341.021, 354.577 L 384.859, 324.824 L 388.028, 327.465 L 381.162, 332.218 L 374.472, 336.62 L 357.746, 348.063 L 350.88, 352.641 L 344.014, 357.218 L 341.021, 354.577 z "/>
<path style="fill:rgb(255, 0, 0);fill-opacity:0;fill-rule:evenodd;stroke:rgb(0, 255, 112);stroke-width:1;" d="M 415.317, 417.606 L 422.183, 413.028 L 429.049, 408.275 L 445.599, 397.183 L 452.289, 392.782 L 459.155, 388.028 L 462.148, 390.669 L 418.486, 420.423 L 415.317, 417.606 z "/>
<path style="fill:rgb(0, 255, 0);fill-opacity:0;fill-rule:evenodd;stroke:rgb(0, 255, 112);stroke-width:1;" d="M 381.162, 332.218 L 388.028, 327.465 L 420.423, 328.873 L 426.585, 334.155 L 381.162, 332.218 z "/>
<path style="fill:rgb(0, 0, 255);fill-opacity:0;fill-rule:evenodd;stroke:rgb(0, 255, 112);stroke-width:1;" d="M 452.289, 392.782 L 454.93, 358.275 L 460.915, 363.38 L 459.155, 388.028 L 452.289, 392.782 z "/>
<path style="fill:rgb(255, 255, 0);fill-opacity:0;fill-rule:evenodd;stroke:rgb(0, 255, 112);stroke-width:1;" d="M 376.585, 411.092 L 422.183, 413.028 L 415.317, 417.606 L 382.746, 416.197 L 376.585, 411.092 z "/>
<path style="fill:rgb(255, 0, 0);fill-opacity:0;fill-rule:evenodd;stroke:rgb(0, 255, 112);stroke-width:1;" d="M 342.254, 381.69 L 344.014, 357.218 L 350.88, 352.641 L 348.415, 386.972 L 342.254, 381.69 z "/>
<path style="fill:rgb(0, 255, 0);fill-opacity:0;fill-rule:evenodd;stroke:rgb(0, 255, 112);stroke-width:1;" d="M 426.585, 334.155 L 429.93, 331.866 L 436.092, 336.972 L 452.289, 350.704 L 458.451, 355.81 L 454.93, 358.275 L 426.585, 334.155 z "/>
<path style="fill:rgb(0, 0, 255);fill-opacity:0;fill-rule:evenodd;stroke:rgb(0, 255, 112);stroke-width:1;" d="M 344.894, 389.261 L 348.415, 386.972 L 354.225, 392.077 L 370.599, 405.986 L 376.585, 411.092 L 373.239, 413.38 L 344.894, 389.261 z "/>
<path style="fill:rgb(255, 255, 0);fill-opacity:0;fill-rule:evenodd;stroke:rgb(0, 255, 112);stroke-width:1;" d="M 347.887, 350 L 377.993, 329.401 L 381.162, 332.218 L 374.472, 336.62 L 357.746, 348.063 L 350.88, 352.641 L 347.887, 350 z "/>
<path style="fill:rgb(255, 0, 0);fill-opacity:0;fill-rule:evenodd;stroke:rgb(0, 255, 112);stroke-width:1;" d="M 422.183, 413.028 L 429.049, 408.275 L 445.599, 397.183 L 452.289, 392.782 L 455.458, 395.246 L 425.176, 415.669 L 422.183, 413.028 z "/>
<path style="fill:rgb(0, 255, 0);fill-opacity:0;fill-rule:evenodd;stroke:rgb(0, 255, 112);stroke-width:1;" d="M 466.021, 383.451 L 467.077, 368.662 L 470.599, 366.197 L 476.761, 371.479 L 473.239, 373.768 L 472.887, 378.697 L 475.88, 381.338 L 469.014, 385.915 L 466.021, 383.451 z "/>
<path style="fill:rgb(0, 0, 255);fill-opacity:0;fill-rule:evenodd;stroke:rgb(0, 255, 112);stroke-width:1;" d="M 385.563, 423.768 L 388.908, 421.479 L 408.451, 422.359 L 411.62, 425 L 404.754, 429.577 L 401.408, 426.937 L 395.07, 426.585 L 391.549, 428.873 L 385.563, 423.768 z "/>
<path style="fill:rgb(255, 255, 0);fill-opacity:0;fill-rule:evenodd;stroke:rgb(0, 255, 112);stroke-width:1;" d="M 391.725, 320.246 L 398.592, 315.493 L 401.761, 318.31 L 408.275, 318.486 L 411.62, 316.373 L 417.782, 321.479 L 414.261, 323.768 L 394.894, 322.887 L 391.725, 320.246 z "/>
<path style="fill:rgb(255, 0, 0);fill-opacity:0;fill-rule:evenodd;stroke:rgb(0, 255, 112);stroke-width:1;" d="M 326.408, 373.768 L 330.106, 371.303 L 330.458, 366.373 L 327.465, 363.908 L 334.155, 359.331 L 337.148, 361.796 L 336.092, 376.585 L 332.57, 378.873 L 326.408, 373.768 z "/>
<path style="fill:rgb(0, 255, 0);fill-opacity:0;fill-rule:evenodd;stroke:rgb(0, 255, 112);stroke-width:1;" d="M 388.028, 327.465 L 394.894, 322.887 L 414.261, 323.768 L 420.423, 328.873 L 388.028, 327.465 z "/>
<path style="fill:rgb(0, 0, 255);fill-opacity:0;fill-rule:evenodd;stroke:rgb(0, 255, 112);stroke-width:1;" d="M 336.092, 376.585 L 337.148, 361.796 L 344.014, 357.218 L 342.254, 381.69 L 336.092, 376.585 z "/>
<path style="fill:rgb(255, 255, 0);fill-opacity:0;fill-rule:evenodd;stroke:rgb(0, 255, 112);stroke-width:1;" d="M 382.746, 416.197 L 415.317, 417.606 L 408.451, 422.359 L 388.908, 421.479 L 382.746, 416.197 z "/>
<path style="fill:rgb(255, 0, 0);fill-opacity:0;fill-rule:evenodd;stroke:rgb(0, 255, 112);stroke-width:1;" d="M 459.155, 388.028 L 460.915, 363.38 L 467.077, 368.662 L 466.021, 383.451 L 459.155, 388.028 z "/>
<path style="fill:rgb(0, 255, 0);fill-opacity:0;fill-rule:evenodd;stroke:rgb(0, 255, 112);stroke-width:1;" d="M 362.676, 96.4789 L 363.556, 95.7746 L 364.613, 95.0704 L 365.669, 96.1268 L 370.07, 96.1268 L 378.521, 96.1268 L 382.923, 96.1268 L 383.979, 95.4225 L 384.859, 96.1268 L 385.739, 96.831 L 384.859, 97.7113 L 384.507, 100.88 L 363.556, 100.88 L 363.556, 97.1831 L 362.676, 96.4789 z "/>
<path style="fill:rgb(0, 0, 255);fill-opacity:0;fill-rule:evenodd;stroke:rgb(0, 255, 112);stroke-width:1;" d="M 401.408, 130.81 L 402.289, 114.789 L 406.514, 114.965 L 407.57, 114.085 L 408.451, 114.789 L 409.331, 115.669 L 408.451, 116.373 L 408.275, 119.542 L 407.923, 126.056 L 407.746, 129.401 L 408.803, 130.106 L 407.746, 130.81 L 406.866, 131.514 L 405.986, 130.81 L 401.408, 130.81 z "/>
<path style="fill:rgb(255, 255, 0);fill-opacity:0;fill-rule:evenodd;stroke:rgb(0, 255, 112);stroke-width:1;" d="M 304.049, 153.697 L 305.282, 152.817 L 305.282, 149.824 L 305.458, 143.486 L 305.458, 139.789 L 304.577, 138.908 L 305.458, 138.38 L 306.514, 137.676 L 307.57, 138.556 L 311.796, 138.732 L 311.268, 154.401 L 306.866, 154.401 L 305.81, 155.106 L 304.93, 154.401 L 304.049, 153.697 z "/>
<path style="fill:rgb(255, 0, 0);fill-opacity:0;fill-rule:evenodd;stroke:rgb(0, 255, 112);stroke-width:1;" d="M 327.641, 172.535 L 328.873, 171.655 L 329.049, 168.486 L 349.472, 168.486 L 349.472, 171.831 L 350.352, 172.535 L 349.472, 173.239 L 348.415, 173.944 L 347.535, 173.063 L 342.958, 173.239 L 334.859, 173.239 L 330.282, 173.239 L 329.401, 173.944 L 328.521, 173.239 L 327.641, 172.535 z "/>
<path style="fill:rgb(0, 255, 0);fill-opacity:0;fill-rule:evenodd;stroke:rgb(0, 255, 112);stroke-width:1;" d="M 352.993, 126.408 L 358.979, 122.183 L 369.014, 130.106 L 363.028, 134.331 L 352.993, 126.408 z "/>
<path style="fill:rgb(0, 0, 255);fill-opacity:0;fill-rule:evenodd;stroke:rgb(0, 255, 112);stroke-width:1;" d="M 432.57, 339.261 L 436.092, 336.972 L 452.289, 350.704 L 448.944, 353.169 L 432.57, 339.261 z "/>
<path style="fill:rgb(255, 255, 0);fill-opacity:0;fill-rule:evenodd;stroke:rgb(0, 255, 112);stroke-width:1;" d="M 351.056, 394.542 L 354.225, 392.077 L 370.599, 405.986 L 367.077, 408.099 L 351.056, 394.542 z "/>
<path style="fill:rgb(255, 0, 0);fill-opacity:0;fill-rule:evenodd;stroke:rgb(0, 255, 112);stroke-width:1;" d="M 354.577, 345.423 L 371.303, 333.979 L 374.472, 336.62 L 357.746, 348.063 L 354.577, 345.423 z "/>
<path style="fill:rgb(0, 255, 0);fill-opacity:0;fill-rule:evenodd;stroke:rgb(0, 255, 112);stroke-width:1;" d="M 331.69, 142.077 L 341.549, 134.859 L 346.831, 139.085 L 336.972, 146.303 L 331.69, 142.077 z "/>
<path style="fill:rgb(0, 0, 255);fill-opacity:0;fill-rule:evenodd;stroke:rgb(0, 255, 112);stroke-width:1;" d="M 429.049, 408.275 L 445.599, 397.183 L 448.592, 400 L 432.042, 411.092 L 429.049, 408.275 z "/>
<path style="fill:rgb(255, 255, 0);fill-opacity:0;fill-rule:evenodd;stroke:rgb(0, 255, 112);stroke-width:1;" d="M 472.887, 378.697 L 473.239, 373.768 L 476.761, 371.479 L 482.923, 376.585 L 475.88, 381.338 L 472.887, 378.697 z "/>
<path style="fill:rgb(255, 0, 0);fill-opacity:0;fill-rule:evenodd;stroke:rgb(0, 255, 112);stroke-width:1;" d="M 391.549, 428.873 L 395.07, 426.585 L 401.408, 426.937 L 404.754, 429.577 L 398.063, 434.155 L 391.549, 428.873 z "/>
<path style="fill:rgb(0, 255, 0);fill-opacity:0;fill-rule:evenodd;stroke:rgb(0, 255, 112);stroke-width:1;" d="M 398.592, 315.493 L 405.282, 310.915 L 411.62, 316.373 L 408.275, 318.486 L 401.761, 318.31 L 398.592, 315.493 z "/>
<path style="fill:rgb(0, 0, 255);fill-opacity:0;fill-rule:evenodd;stroke:rgb(0, 255, 112);stroke-width:1;" d="M 320.423, 368.662 L 327.465, 363.908 L 330.458, 366.373 L 330.106, 371.303 L 326.408, 373.768 L 320.423, 368.662 z "/>
<path style="fill:rgb(255, 255, 0);fill-opacity:0;fill-rule:evenodd;stroke:rgb(0, 255, 112);stroke-width:1;" d="M 90.3169, 128.169 L 164.789, 115.669 L 179.754, 164.437 L 108.451, 180.282 L 107.923, 179.049 L 90.3169, 128.169 z "/>
<path style="fill:rgb(255, 0, 0);fill-opacity:0;fill-rule:evenodd;stroke:rgb(0, 255, 112);stroke-width:1;" d="M 176.761, 63.3803 L 207.042, 1.93662 L 214.437, 0 L 268.31, 25.7042 L 250.528, 49.6479 L 240.845, 62.8521 L 232.394, 59.331 L 229.225, 65.1408 L 233.979, 88.7324 L 180.282, 93.838 L 176.761, 63.3803 z "/>
<path style="fill:rgb(0, 255, 0);fill-opacity:0;fill-rule:evenodd;stroke:rgb(0, 255, 112);stroke-width:1;" d="M 229.225, 65.1408 L 246.127, 65.3169 L 244.718, 63.3803 L 255.634, 52.4648 L 250.528, 49.6479 L 268.31, 25.7042 L 269.014, 24.6479 L 297.183, 40.8451 L 269.542, 84.6831 L 233.979, 88.7324 L 229.225, 65.1408 z "/>
<path style="fill:rgb(0, 0, 255);fill-opacity:0;fill-rule:evenodd;stroke:rgb(0, 255, 112);stroke-width:1;" d="M 269.542, 84.6831 L 297.183, 40.8451 L 343.838, 67.7817 L 334.331, 77.1127 L 269.542, 84.6831 z "/>
<path style="fill:rgb(255, 255, 0);fill-opacity:0;fill-rule:evenodd;stroke:rgb(0, 255, 112);stroke-width:1;" d="M 882.923, 55.8099 L 905.634, 40.3169 L 953.345, 79.7535 L 933.627, 93.662 L 882.923, 55.8099 z "/>
<path style="fill:rgb(255, 0, 0);fill-opacity:0;fill-rule:evenodd;stroke:rgb(0, 255, 112);stroke-width:1;" d="M 382.042, 56.6901 L 410.739, 27.993 L 412.148, 28.5211 L 442.958, 43.3099 L 432.57, 53.6972 L 429.049, 51.5845 L 424.824, 55.8099 L 407.394, 73.2394 L 382.923, 57.7465 L 382.042, 56.6901 z "/>
<path style="fill:rgb(0, 255, 0);fill-opacity:0;fill-rule:evenodd;stroke:rgb(0, 255, 112);stroke-width:1;" d="M 464.613, 54.7535 L 481.866, 39.4366 L 512.148, 57.2183 L 492.782, 71.831 L 464.613, 54.7535 z "/>
<path style="fill:rgb(0, 0, 255);fill-opacity:0;fill-rule:evenodd;stroke:rgb(0, 255, 112);stroke-width:1;" d="M 444.542, 54.2254 L 451.937, 47.007 L 457.394, 50.3521 L 464.613, 54.7535 L 492.782, 71.831 L 484.331, 78.169 L 444.542, 54.2254 z "/>
<path style="fill:rgb(255, 255, 0);fill-opacity:0;fill-rule:evenodd;stroke:rgb(0, 255, 112);stroke-width:1;" d="M 0, 468.838 L 80.1056, 416.021 L 101.585, 434.683 L 122.887, 420.599 L 110.739, 410.035 L 193.134, 355.458 L 234.683, 391.549 L 258.979, 412.5 L 331.338, 475.528 L 319.19, 483.627 L 316.021, 480.986 L 245.246, 527.817 L 241.901, 525 L 193.838, 556.866 L 189.085, 552.817 L 136.62, 587.5 L 0, 468.838 z "/>
<path style="fill:rgb(255, 0, 0);fill-opacity:0;fill-rule:evenodd;stroke:rgb(0, 255, 112);stroke-width:1;" d="M 101.585, 434.683 L 122.887, 420.599 L 110.739, 410.035 L 193.134, 355.458 L 234.683, 391.549 L 258.979, 412.5 L 331.338, 475.528 L 319.19, 483.627 L 316.021, 480.986 L 245.246, 527.817 L 241.901, 525 L 193.838, 556.866 L 189.085, 552.817 L 216.549, 534.683 L 101.585, 434.683 z "/>
<path style="fill:rgb(0, 255, 0);fill-opacity:0;fill-rule:evenodd;stroke:rgb(0, 255, 112);stroke-width:1;" d="M 0, 468.838 L 80.1056, 416.021 L 101.585, 434.683 L 216.549, 534.683 L 189.085, 552.817 L 136.62, 587.5 L 0, 468.838 z "/>
</svg>