<?xml version="1.0" encoding="iso-8859-1" standalone="no"?>
<!DOCTYPE svg PUBLIC "-//W3C//DTD SVG 1.0//EN" "http://www.w3.org/TR/2001/REC-SVG-20010904/DTD/svg10.dtd">
<svg xmlns="http://www.w3.org/2000/svg" width="953" height="800">
<path style="fill:rgb(255, 0, 0);fill-opacity:0;fill-rule:evenodd;stroke:rgb(230, 0, 255);stroke-width:1;" d="M 260.761, 414.855 L 273.11, 398.031 L 270.246, 396.779 L 350.425, 288.322 L 390.515, 305.503 L 392.304, 302.998 L 404.116, 308.188 L 394.81, 320.537 L 343.445, 390.157 L 366.353, 400 L 357.047, 412.528 L 389.799, 426.488 L 383.893, 434.362 L 343.803, 417.181 L 321.432, 447.606 L 306.219, 440.984 L 309.978, 435.794 L 260.761, 414.855 z "/>
<path style="fill:rgb(0, 255, 0);fill-opacity:0;fill-rule:evenodd;stroke:rgb(230, 0, 255);stroke-width:1;" d="M 127.964, 590.425 L 178.434, 521.7 L 286.89, 567.696 L 236.6, 636.421 L 127.964, 590.425 z "/>
<path style="fill:rgb(0, 0, 255);fill-opacity:0;fill-rule:evenodd;stroke:rgb(230, 0, 255);stroke-width:1;" d="M 533.154, 315.526 L 587.204, 241.253 L 682.058, 280.984 L 685.459, 282.416 L 679.553, 290.47 L 665.951, 309.083 L 662.55, 307.83 L 652.528, 321.432 L 668.277, 328.054 L 649.664, 353.647 L 633.915, 347.025 L 628.009, 355.257 L 600.805, 343.982 L 603.132, 340.761 L 597.584, 338.434 L 565.011, 324.653 L 562.685, 327.875 L 533.154, 315.526 z "/>
<path style="fill:rgb(255, 255, 0);fill-opacity:0;fill-rule:evenodd;stroke:rgb(230, 0, 255);stroke-width:1;" d="M 393.378, 552.304 L 426.667, 508.098 L 444.743, 515.436 L 447.248, 512.215 L 470.694, 522.058 L 468.367, 525.28 L 485.369, 532.617 L 486.085, 531.723 L 484.116, 531.007 L 483.758, 528.143 L 486.622, 526.532 L 489.128, 527.606 L 580.403, 404.295 L 594.362, 385.861 L 617.808, 395.705 L 536.376, 506.13 L 476.242, 587.562 L 393.378, 552.304 z "/>
<path style="fill:rgb(255, 0, 0);fill-opacity:0;fill-rule:evenodd;stroke:rgb(230, 0, 255);stroke-width:1;" d="M 587.204, 241.253 L 617.987, 198.837 L 624.072, 201.342 L 633.378, 188.635 L 671.32, 204.743 L 695.302, 214.765 L 695.839, 214.049 L 739.687, 232.662 L 706.577, 278.121 L 689.396, 270.962 L 682.058, 280.984 L 587.204, 241.253 z "/>
<path style="fill:rgb(0, 255, 0);fill-opacity:0;fill-rule:evenodd;stroke:rgb(230, 0, 255);stroke-width:1;" d="M 697.092, 656.107 L 700.492, 651.454 L 709.62, 655.213 L 727.696, 630.157 L 733.244, 632.304 L 736.465, 628.009 L 764.922, 639.284 L 750.604, 658.971 L 809.843, 683.848 L 810.917, 687.606 L 808.412, 690.828 L 814.676, 693.512 L 835.615, 664.698 L 840.089, 659.866 L 867.472, 670.067 L 865.503, 673.289 L 841.879, 705.682 L 827.562, 726.443 L 782.282, 707.472 L 783.356, 711.409 L 780.85, 714.81 L 776.018, 716.242 L 740.403, 701.387 L 746.488, 692.975 L 702.282, 674.541 L 710.515, 662.908 L 705.503, 660.761 L 706.219, 659.866 L 697.092, 656.107 z "/>
<path style="fill:rgb(0, 0, 255);fill-opacity:0;fill-rule:evenodd;stroke:rgb(230, 0, 255);stroke-width:1;" d="M 284.027, 656.107 L 296.376, 639.284 L 297.629, 639.642 L 318.389, 611.186 L 322.685, 605.459 L 321.432, 604.922 L 334.318, 587.204 L 356.689, 596.689 L 356.331, 597.405 L 422.908, 625.503 L 423.445, 624.787 L 446.532, 634.452 L 433.11, 652.886 L 430.425, 651.812 L 416.465, 671.141 L 407.159, 683.848 L 409.664, 684.922 L 396.063, 703.535 L 366.174, 691.007 L 379.776, 672.215 L 386.04, 674.899 L 402.148, 653.065 L 336.107, 625.145 L 319.821, 647.517 L 326.98, 650.559 L 313.736, 668.635 L 284.027, 656.107 z "/>
<path style="fill:rgb(255, 255, 0);fill-opacity:0;fill-rule:evenodd;stroke:rgb(230, 0, 255);stroke-width:1;" d="M 209.754, 475.884 L 217.987, 464.787 L 219.239, 465.324 L 250.38, 423.266 L 249.128, 422.729 L 256.465, 412.886 L 260.761, 414.855 L 309.978, 435.794 L 306.219, 440.984 L 321.432, 447.606 L 331.812, 452.081 L 322.864, 464.072 L 305.861, 487.159 L 307.114, 487.696 L 290.291, 510.425 L 209.754, 475.884 z "/>
<path style="fill:rgb(255, 0, 0);fill-opacity:0;fill-rule:evenodd;stroke:rgb(230, 0, 255);stroke-width:1;" d="M 563.579, 627.472 L 625.861, 541.566 L 682.595, 565.369 L 669.888, 582.908 L 645.011, 572.349 L 638.389, 581.655 L 663.266, 592.036 L 667.562, 593.826 L 667.025, 594.72 L 650.738, 617.092 L 649.306, 616.555 L 644.832, 614.586 L 638.389, 623.356 L 614.586, 613.333 L 608.322, 621.924 L 620.492, 627.114 L 622.998, 623.893 L 634.631, 628.725 L 618.702, 650.559 L 563.579, 627.472 z "/>
<path style="fill:rgb(0, 255, 0);fill-opacity:0;fill-rule:evenodd;stroke:rgb(230, 0, 255);stroke-width:1;" d="M 820.582, 732.528 L 822.908, 731.275 L 823.803, 731.454 L 827.562, 726.443 L 841.879, 705.682 L 843.848, 706.398 L 846.532, 702.819 L 851.365, 701.029 L 853.87, 702.103 L 854.586, 706.219 L 863.535, 709.978 L 862.64, 711.409 L 915.615, 733.602 L 933.512, 741.119 L 934.049, 740.403 L 945.861, 745.414 L 945.324, 746.13 L 953.915, 749.709 L 932.617, 779.239 L 923.49, 775.481 L 922.953, 776.197 L 911.678, 771.544 L 912.573, 770.291 L 842.416, 740.94 L 841.163, 742.729 L 839.195, 743.266 L 836.689, 742.192 L 836.51, 740.761 L 823.445, 735.391 L 823.266, 735.749 L 820.761, 734.676 L 820.582, 732.528 z "/>
<path style="fill:rgb(0, 0, 255);fill-opacity:0;fill-rule:evenodd;stroke:rgb(230, 0, 255);stroke-width:1;" d="M 471.946, 766.353 L 491.096, 759.732 L 473.199, 751.499 L 530.112, 671.32 L 567.159, 686.532 L 565.906, 688.143 L 580.045, 694.944 L 572.528, 705.145 L 558.747, 699.239 L 546.577, 715.705 L 507.919, 767.785 L 500.045, 764.385 L 492.349, 774.765 L 471.946, 766.353 z "/>
<path style="fill:rgb(255, 255, 0);fill-opacity:0;fill-rule:evenodd;stroke:rgb(230, 0, 255);stroke-width:1;" d="M 402.685, 497.897 L 433.468, 456.197 L 426.488, 453.333 L 442.595, 431.499 L 449.396, 434.362 L 470.336, 406.085 L 468.546, 405.369 L 476.6, 394.631 L 478.21, 395.347 L 487.338, 382.998 L 485.727, 382.282 L 491.096, 374.944 L 518.121, 386.398 L 512.931, 393.378 L 511.678, 392.841 L 502.371, 405.548 L 503.624, 406.085 L 495.213, 417.36 L 494.318, 417.002 L 473.736, 444.922 L 477.494, 446.532 L 461.387, 468.009 L 457.45, 466.398 L 426.667, 508.098 L 402.685, 497.897 z "/>
<path style="fill:rgb(255, 0, 0);fill-opacity:0;fill-rule:evenodd;stroke:rgb(230, 0, 255);stroke-width:1;" d="M 369.396, 411.633 L 423.266, 338.792 L 395.705, 326.98 L 399.105, 322.327 L 394.81, 320.537 L 404.116, 308.188 L 408.233, 309.799 L 408.949, 309.441 L 410.38, 309.262 L 411.812, 309.441 L 461.566, 330.738 L 403.221, 409.306 L 404.295, 409.843 L 394.989, 422.55 L 369.396, 411.633 z "/>
<path style="fill:rgb(0, 255, 0);fill-opacity:0;fill-rule:evenodd;stroke:rgb(230, 0, 255);stroke-width:1;" d="M 562.685, 718.747 L 572.528, 705.145 L 580.045, 694.944 L 582.192, 691.902 L 685.28, 735.034 L 674.899, 749.172 L 684.564, 753.11 L 681.7, 757.047 L 672.215, 752.931 L 665.235, 762.595 L 639.642, 751.857 L 643.043, 747.025 L 625.145, 739.508 L 622.819, 742.729 L 634.81, 747.74 L 632.304, 751.32 L 620.134, 746.309 L 618.166, 748.993 L 601.7, 742.192 L 608.68, 732.707 L 591.141, 725.369 L 588.098, 729.306 L 562.685, 718.747 z "/>
<path style="fill:rgb(0, 0, 255);fill-opacity:0;fill-rule:evenodd;stroke:rgb(230, 0, 255);stroke-width:1;" d="M 301.029, 790.336 L 347.74, 700.313 L 386.398, 716.421 L 323.043, 800 L 301.029, 790.336 z "/>
<path style="fill:rgb(255, 255, 0);fill-opacity:0;fill-rule:evenodd;stroke:rgb(230, 0, 255);stroke-width:1;" d="M 682.058, 111.141 L 695.839, 92.17 L 722.506, 103.266 L 726.801, 97.3602 L 700.134, 86.264 L 711.23, 70.8725 L 737.897, 81.9687 L 742.192, 76.0626 L 715.526, 64.9664 L 729.128, 46.3535 L 743.445, 52.4385 L 741.119, 55.302 L 774.944, 69.6197 L 766.353, 81.4318 L 762.058, 79.6421 L 757.226, 86.264 L 761.521, 88.0537 L 748.456, 106.13 L 740.045, 102.55 L 737.36, 106.13 L 739.866, 107.383 L 738.434, 109.351 L 744.161, 111.857 L 732.707, 127.785 L 698.523, 113.289 L 695.839, 116.868 L 682.058, 111.141 z "/>
<path style="fill:rgb(255, 0, 0);fill-opacity:0;fill-rule:evenodd;stroke:rgb(230, 0, 255);stroke-width:1;" d="M 663.266, 592.036 L 669.888, 582.908 L 682.595, 565.369 L 771.365, 602.416 L 758.837, 619.597 L 767.427, 623.177 L 763.49, 628.546 L 742.371, 619.776 L 739.687, 618.702 L 736.107, 623.535 L 667.025, 594.72 L 667.562, 593.826 L 663.266, 592.036 z "/>
<path style="fill:rgb(0, 255, 0);fill-opacity:0;fill-rule:evenodd;stroke:rgb(230, 0, 255);stroke-width:1;" d="M 736.465, 628.009 L 742.371, 619.776 L 763.49, 628.546 L 767.427, 623.177 L 758.837, 619.597 L 771.365, 602.416 L 839.732, 631.051 L 827.919, 647.338 L 838.658, 651.812 L 841.342, 658.076 L 840.089, 659.866 L 835.615, 664.698 L 828.814, 666.309 L 764.922, 639.284 L 736.465, 628.009 z "/>
<path style="fill:rgb(0, 0, 255);fill-opacity:0;fill-rule:evenodd;stroke:rgb(230, 0, 255);stroke-width:1;" d="M 750.783, 131.007 L 760.984, 117.047 L 770.112, 120.984 L 774.586, 114.72 L 765.459, 110.783 L 776.018, 96.2864 L 782.998, 99.3289 L 785.861, 99.1499 L 788.904, 95.0336 L 787.472, 93.2438 L 780.313, 90.3803 L 790.515, 76.5996 L 827.025, 91.9911 L 829.351, 88.9485 L 841.521, 94.1387 L 829.172, 111.141 L 806.98, 101.834 L 804.474, 101.477 L 801.432, 100.224 L 798.21, 104.519 L 801.253, 105.951 L 802.685, 107.74 L 824.877, 117.047 L 814.497, 131.365 L 792.125, 122.058 L 789.62, 121.879 L 786.398, 120.626 L 783.177, 125.101 L 786.398, 126.353 L 787.651, 128.322 L 809.843, 137.629 L 797.494, 154.81 L 782.461, 148.546 L 784.787, 145.324 L 750.783, 131.007 z "/>
<path style="fill:rgb(255, 255, 0);fill-opacity:0;fill-rule:evenodd;stroke:rgb(230, 0, 255);stroke-width:1;" d="M 734.855, 494.855 L 762.237, 457.092 L 817.718, 480.358 L 811.633, 488.77 L 790.336, 518.121 L 734.855, 494.855 z "/>
<path style="fill:rgb(255, 0, 0);fill-opacity:0;fill-rule:evenodd;stroke:rgb(230, 0, 255);stroke-width:1;" d="M 618.702, 650.559 L 634.631, 628.725 L 639.105, 630.515 L 649.306, 616.555 L 650.738, 617.092 L 653.96, 618.523 L 651.633, 621.566 L 690.47, 637.673 L 692.617, 634.81 L 708.009, 641.074 L 700.492, 651.454 L 697.092, 656.107 L 682.058, 677.047 L 618.702, 650.559 z "/>
<path style="fill:rgb(0, 255, 0);fill-opacity:0;fill-rule:evenodd;stroke:rgb(230, 0, 255);stroke-width:1;" d="M 706.04, 213.154 L 714.452, 201.521 L 713.915, 199.553 L 715.347, 197.763 L 717.494, 197.405 L 720, 194.004 L 718.21, 193.11 L 722.327, 187.204 L 723.4, 187.025 L 724.474, 185.593 L 723.937, 184.161 L 725.548, 182.192 L 727.517, 181.655 L 730.201, 178.076 L 727.517, 177.002 L 731.633, 170.022 L 732.707, 168.412 L 734.676, 161.79 L 735.928, 160.179 L 749.53, 165.906 L 764.206, 171.991 L 779.955, 178.613 L 741.298, 231.946 L 721.253, 223.714 L 725.011, 218.702 L 721.969, 217.45 L 719.642, 218.881 L 706.04, 213.154 z "/>
<path style="fill:rgb(0, 0, 255);fill-opacity:0;fill-rule:evenodd;stroke:rgb(230, 0, 255);stroke-width:1;" d="M 238.747, 725.369 L 242.685, 720 L 244.832, 720.895 L 246.98, 717.673 L 243.758, 716.421 L 244.653, 715.168 L 241.611, 713.915 L 260.94, 687.069 L 264.34, 688.501 L 265.414, 686.89 L 267.383, 687.785 L 273.468, 679.374 L 311.588, 695.123 L 307.651, 700.492 L 306.04, 699.955 L 303.893, 702.819 L 307.472, 704.43 L 306.398, 705.861 L 309.083, 706.935 L 289.754, 733.96 L 286.711, 732.707 L 285.817, 733.96 L 282.416, 732.349 L 280.089, 735.57 L 281.879, 736.286 L 277.942, 741.655 L 238.747, 725.369 z "/>
<path style="fill:rgb(255, 255, 0);fill-opacity:0;fill-rule:evenodd;stroke:rgb(230, 0, 255);stroke-width:1;" d="M 74.2729, 658.255 L 105.235, 615.481 L 156.957, 637.136 L 141.566, 658.255 L 147.293, 660.582 L 131.365, 682.595 L 122.774, 679.016 L 125.28, 675.257 L 94.4966, 662.371 L 92.17, 665.772 L 74.2729, 658.255 z M 107.025, 646.98 L 107.383, 648.591 L 119.732, 653.96 L 123.132, 652.886 L 125.28, 650.022 L 127.427, 647.159 L 129.038, 647.875 L 132.617, 643.221 L 119.732, 637.673 L 119.374, 634.81 L 116.152, 634.631 L 107.025, 646.98 z "/>
<path style="fill:rgb(255, 0, 0);fill-opacity:0;fill-rule:evenodd;stroke:rgb(230, 0, 255);stroke-width:1;" d="M 291.544, 119.553 L 311.946, 79.2841 L 365.101, 94.8546 L 344.698, 135.123 L 291.544, 119.553 z "/>
<path style="fill:rgb(0, 255, 0);fill-opacity:0;fill-rule:evenodd;stroke:rgb(230, 0, 255);stroke-width:1;" d="M 650.38, 154.452 L 662.729, 137.45 L 677.763, 143.714 L 681.163, 142.461 L 685.638, 136.376 L 684.743, 133.333 L 670.246, 127.248 L 682.058, 111.141 L 695.839, 116.868 L 694.049, 119.374 L 696.734, 121.342 L 730.022, 135.302 L 718.747, 150.694 L 710.336, 147.114 L 711.23, 146.219 L 700.313, 141.566 L 694.944, 149.262 L 705.682, 153.736 L 706.398, 152.662 L 717.673, 157.315 L 706.756, 172.349 L 698.881, 168.949 L 697.987, 170.201 L 668.635, 157.852 L 666.488, 157.136 L 664.34, 160.358 L 650.38, 154.452 z "/>
<path style="fill:rgb(0, 0, 255);fill-opacity:0;fill-rule:evenodd;stroke:rgb(230, 0, 255);stroke-width:1;" d="M 676.152, 471.946 L 700.313, 438.658 L 700.313, 437.226 L 701.029, 435.973 L 702.103, 434.72 L 703.535, 433.826 L 704.43, 433.468 L 706.219, 433.11 L 707.293, 432.931 L 709.083, 433.289 L 709.978, 433.468 L 711.588, 434.362 L 713.02, 435.436 L 755.794, 453.512 L 743.445, 470.515 L 734.139, 466.577 L 736.465, 463.535 L 731.633, 461.387 L 724.295, 471.767 L 729.843, 474.094 L 730.738, 473.02 L 737.539, 475.884 L 727.875, 489.128 L 693.512, 474.81 L 691.007, 478.21 L 676.152, 471.946 z M 702.64, 462.282 L 716.779, 468.188 L 724.832, 456.913 L 710.694, 451.007 L 702.64, 462.282 z "/>
<path style="fill:rgb(255, 255, 0);fill-opacity:0;fill-rule:evenodd;stroke:rgb(230, 0, 255);stroke-width:1;" d="M 645.727, 514.004 L 676.152, 471.946 L 691.007, 478.21 L 688.859, 481.253 L 723.043, 495.57 L 711.23, 512.036 L 702.998, 508.635 L 704.966, 505.951 L 678.479, 494.855 L 669.709, 506.667 L 696.376, 517.763 L 698.345, 514.899 L 708.009, 519.016 L 696.376, 535.123 L 645.727, 514.004 z "/>
<path style="fill:rgb(255, 0, 0);fill-opacity:0;fill-rule:evenodd;stroke:rgb(230, 0, 255);stroke-width:1;" d="M 497.181, 368.68 L 511.141, 350.067 L 594.362, 385.861 L 580.403, 404.295 L 497.181, 368.68 z "/>
<path style="fill:rgb(0, 255, 0);fill-opacity:0;fill-rule:evenodd;stroke:rgb(230, 0, 255);stroke-width:1;" d="M 105.235, 736.286 L 130.828, 701.029 L 154.989, 711.23 L 157.494, 707.651 L 165.906, 711.23 L 178.792, 716.6 L 166.264, 733.96 L 140.671, 723.221 L 134.944, 731.096 L 160.537, 741.834 L 147.83, 759.374 L 126.711, 750.604 L 129.754, 746.488 L 105.235, 736.286 z "/>
<path style="fill:rgb(0, 0, 255);fill-opacity:0;fill-rule:evenodd;stroke:rgb(230, 0, 255);stroke-width:1;" d="M 704.966, 539.06 L 732.349, 501.477 L 773.333, 518.658 L 765.817, 529.038 L 761.342, 527.248 L 748.277, 545.145 L 747.025, 546.756 L 751.499, 548.725 L 745.951, 556.242 L 704.966, 539.06 z "/>
<path style="fill:rgb(255, 255, 0);fill-opacity:0;fill-rule:evenodd;stroke:rgb(230, 0, 255);stroke-width:1;" d="M 627.293, 186.13 L 650.38, 154.452 L 664.34, 160.358 L 667.74, 161.79 L 665.772, 164.474 L 705.861, 181.477 L 702.64, 185.772 L 703.535, 186.13 L 699.239, 192.036 L 688.501, 187.383 L 684.743, 192.573 L 686.353, 194.362 L 695.839, 198.3 L 692.438, 202.953 L 693.154, 203.311 L 689.396, 208.68 L 673.289, 202.058 L 671.32, 204.743 L 633.378, 188.635 L 627.293, 186.13 z M 650.917, 185.772 L 653.423, 188.814 L 660.94, 191.857 L 667.562, 194.541 L 675.436, 183.087 L 661.298, 177.36 L 656.644, 177.181 L 650.917, 185.772 z "/>
<path style="fill:rgb(255, 0, 0);fill-opacity:0;fill-rule:evenodd;stroke:rgb(230, 0, 255);stroke-width:1;" d="M 290.291, 510.425 L 307.114, 487.696 L 305.861, 487.159 L 322.864, 464.072 L 333.423, 468.546 L 335.749, 465.503 L 356.51, 471.409 L 318.747, 522.416 L 290.291, 510.425 z "/>
<path style="fill:rgb(0, 255, 0);fill-opacity:0;fill-rule:evenodd;stroke:rgb(230, 0, 255);stroke-width:1;" d="M 834.183, 593.11 L 842.416, 581.834 L 852.617, 586.13 L 859.955, 575.928 L 862.461, 577.181 L 864.609, 574.139 L 851.902, 568.77 L 860.134, 557.315 L 898.255, 573.244 L 889.843, 584.877 L 878.568, 580.045 L 877.136, 582.013 L 876.063, 583.445 L 878.568, 584.519 L 871.409, 594.183 L 880.358, 597.942 L 872.304, 609.038 L 834.183, 593.11 z "/>
<path style="fill:rgb(0, 0, 255);fill-opacity:0;fill-rule:evenodd;stroke:rgb(230, 0, 255);stroke-width:1;" d="M 758.837, 561.611 L 767.248, 550.157 L 776.913, 554.273 L 784.43, 544.072 L 786.577, 544.966 L 788.546, 542.282 L 776.555, 537.271 L 784.966, 525.817 L 822.55, 541.566 L 814.318, 553.199 L 802.685, 548.367 L 801.611, 549.799 L 800.537, 551.409 L 803.043, 552.483 L 795.884, 562.327 L 804.832, 566.085 L 796.6, 577.539 L 758.837, 561.611 z "/>
<path style="fill:rgb(255, 255, 0);fill-opacity:0;fill-rule:evenodd;stroke:rgb(230, 0, 255);stroke-width:1;" d="M 796.6, 577.539 L 804.832, 566.085 L 814.855, 570.38 L 822.013, 560.358 L 824.161, 561.253 L 826.309, 558.21 L 814.318, 553.199 L 822.55, 541.566 L 860.134, 557.315 L 851.902, 568.77 L 841.342, 564.474 L 839.911, 566.085 L 838.837, 567.875 L 840.626, 568.591 L 833.647, 578.255 L 842.416, 581.834 L 834.183, 593.11 L 796.6, 577.539 z "/>
<path style="fill:rgb(255, 0, 0);fill-opacity:0;fill-rule:evenodd;stroke:rgb(230, 0, 255);stroke-width:1;" d="M 150.872, 669.351 L 155.168, 663.445 L 153.378, 662.729 L 168.233, 642.506 L 217.629, 663.087 L 198.658, 689.217 L 185.772, 683.848 L 184.34, 683.311 L 191.678, 672.931 L 175.391, 666.13 L 172.886, 665.056 L 165.369, 675.257 L 164.295, 674.899 L 150.872, 669.351 z "/>
<path style="fill:rgb(0, 255, 0);fill-opacity:0;fill-rule:evenodd;stroke:rgb(230, 0, 255);stroke-width:1;" d="M 369.754, 542.282 L 402.685, 497.897 L 426.667, 508.098 L 393.378, 552.304 L 369.754, 542.282 z "/>
<path style="fill:rgb(0, 0, 255);fill-opacity:0;fill-rule:evenodd;stroke:rgb(230, 0, 255);stroke-width:1;" d="M 35.4362, 711.946 L 55.123, 684.743 L 74.9888, 692.975 L 71.7673, 697.45 L 97.7181, 708.367 L 84.4743, 726.801 L 57.4497, 715.526 L 54.4072, 719.821 L 35.4362, 711.946 z "/>
<path style="fill:rgb(255, 255, 0);fill-opacity:0;fill-rule:evenodd;stroke:rgb(230, 0, 255);stroke-width:1;" d="M 55.123, 684.743 L 74.2729, 658.255 L 92.17, 665.772 L 94.1387, 666.488 L 91.2752, 670.425 L 117.405, 681.342 L 103.982, 699.955 L 77.8523, 689.038 L 74.9888, 692.975 L 55.123, 684.743 z "/>
<path style="fill:rgb(255, 0, 0);fill-opacity:0;fill-rule:evenodd;stroke:rgb(230, 0, 255);stroke-width:1;" d="M 131.186, 696.555 L 150.872, 669.351 L 164.295, 674.899 L 158.747, 682.416 L 164.832, 684.922 L 165.906, 683.311 L 181.477, 689.933 L 185.772, 683.848 L 198.658, 689.217 L 178.792, 716.6 L 165.906, 711.23 L 171.275, 703.893 L 169.128, 702.998 L 149.083, 694.586 L 143.893, 701.924 L 131.186, 696.555 z "/>
<path style="fill:rgb(0, 255, 0);fill-opacity:0;fill-rule:evenodd;stroke:rgb(230, 0, 255);stroke-width:1;" d="M 17.5391, 736.644 L 35.4362, 711.946 L 54.4072, 719.821 L 55.8389, 720.537 L 54.0492, 722.864 L 55.302, 725.548 L 79.1051, 735.57 L 67.1141, 752.036 L 39.1946, 740.403 L 36.3311, 744.34 L 17.5391, 736.644 z "/>
<path style="fill:rgb(0, 0, 255);fill-opacity:0;fill-rule:evenodd;stroke:rgb(230, 0, 255);stroke-width:1;" d="M 0, 760.626 L 17.5391, 736.644 L 36.3311, 744.34 L 33.6465, 748.098 L 61.566, 759.732 L 49.5749, 776.197 L 25.5928, 766.174 L 22.0134, 766.89 L 20.4027, 769.217 L 0, 760.626 z "/>
<path style="fill:rgb(255, 255, 0);fill-opacity:0;fill-rule:evenodd;stroke:rgb(230, 0, 255);stroke-width:1;" d="M 87.8747, 760.447 L 100.045, 743.803 L 124.206, 754.004 L 126.711, 750.604 L 147.83, 759.374 L 130.291, 783.714 L 109.172, 774.765 L 112.215, 770.649 L 87.8747, 760.447 z "/>
<path style="fill:rgb(255, 0, 0);fill-opacity:0;fill-rule:evenodd;stroke:rgb(230, 0, 255);stroke-width:1;" d="M 735.928, 160.179 L 740.582, 146.935 L 749.53, 134.586 L 766.174, 141.566 L 759.553, 150.694 L 774.049, 156.6 L 780.492, 147.651 L 782.461, 148.546 L 797.494, 154.81 L 779.955, 178.613 L 764.206, 171.991 L 768.501, 166.085 L 769.754, 166.622 L 771.902, 163.758 L 754.362, 156.242 L 752.215, 159.463 L 753.826, 160.179 L 749.53, 165.906 L 735.928, 160.179 z "/>
<path style="fill:rgb(0, 255, 0);fill-opacity:0;fill-rule:evenodd;stroke:rgb(230, 0, 255);stroke-width:1;" d="M 845.101, 534.586 L 860.134, 513.647 L 861.745, 514.362 L 862.998, 512.752 L 862.819, 510.246 L 858.881, 508.635 L 864.966, 500.045 L 888.949, 510.067 L 882.685, 518.658 L 878.747, 517.047 L 876.779, 517.584 L 875.168, 519.732 L 876.421, 520.268 L 861.208, 541.208 L 845.101, 534.586 z "/>
<path style="fill:rgb(0, 0, 255);fill-opacity:0;fill-rule:evenodd;stroke:rgb(230, 0, 255);stroke-width:1;" d="M 821.655, 524.743 L 836.868, 503.803 L 838.121, 504.34 L 839.732, 502.371 L 839.374, 500.224 L 835.436, 498.613 L 841.521, 490.201 L 864.966, 500.045 L 858.881, 508.635 L 854.944, 506.846 L 852.975, 508.098 L 851.544, 510.067 L 852.975, 510.604 L 837.763, 531.544 L 821.655, 524.743 z "/>
<path style="fill:rgb(255, 255, 0);fill-opacity:0;fill-rule:evenodd;stroke:rgb(230, 0, 255);stroke-width:1;" d="M 798.031, 514.72 L 813.244, 493.602 L 815.034, 494.318 L 816.286, 492.528 L 815.749, 490.38 L 811.633, 488.77 L 817.718, 480.358 L 841.521, 490.201 L 835.436, 498.613 L 831.499, 496.823 L 829.53, 497.718 L 827.74, 500.045 L 828.993, 500.582 L 813.96, 521.342 L 798.031, 514.72 z "/>
<path style="fill:rgb(255, 0, 0);fill-opacity:0;fill-rule:evenodd;stroke:rgb(230, 0, 255);stroke-width:1;" d="M 803.221, 74.2729 L 809.843, 65.3244 L 816.286, 68.0089 L 819.329, 67.2931 L 838.3, 75.3468 L 840.268, 74.9888 L 852.081, 79.821 L 841.521, 94.1387 L 829.351, 88.9485 L 829.53, 87.3378 L 810.559, 79.2841 L 809.664, 76.9575 L 803.221, 74.2729 z "/>
<path style="fill:rgb(0, 255, 0);fill-opacity:0;fill-rule:evenodd;stroke:rgb(230, 0, 255);stroke-width:1;" d="M 813.602, 59.9553 L 819.866, 51.3647 L 826.488, 54.0492 L 829.53, 53.1544 L 848.68, 61.2081 L 851.007, 60.3132 L 862.64, 65.1454 L 852.081, 79.821 L 840.268, 74.9888 L 839.911, 73.0201 L 820.94, 64.9664 L 820.224, 62.6398 L 813.602, 59.9553 z "/>
<path style="fill:rgb(0, 0, 255);fill-opacity:0;fill-rule:evenodd;stroke:rgb(230, 0, 255);stroke-width:1;" d="M 745.951, 556.242 L 751.499, 548.725 L 765.817, 529.038 L 773.333, 518.658 L 786.219, 524.027 L 784.966, 525.817 L 776.555, 537.271 L 767.248, 550.157 L 758.837, 561.611 L 745.951, 556.242 z "/>
<path style="fill:rgb(255, 255, 0);fill-opacity:0;fill-rule:evenodd;stroke:rgb(230, 0, 255);stroke-width:1;" d="M 182.729, 82.3266 L 198.837, 51.7226 L 216.376, 57.0917 L 200.089, 87.6957 L 182.729, 82.3266 z "/>
<path style="fill:rgb(255, 0, 0);fill-opacity:0;fill-rule:evenodd;stroke:rgb(230, 0, 255);stroke-width:1;" d="M 657.539, 617.629 L 667.562, 603.848 L 690.112, 613.512 L 689.933, 613.691 L 680.089, 627.114 L 657.539, 617.629 z "/>
<path style="fill:rgb(0, 255, 0);fill-opacity:0;fill-rule:evenodd;stroke:rgb(230, 0, 255);stroke-width:1;" d="M 528.501, 55.66 L 568.949, 0 L 594.72, 10.7383 L 600.626, 13.2438 L 603.132, 9.66443 L 641.969, 25.9508 L 639.463, 29.3512 L 670.067, 42.0582 L 629.62, 97.7181 L 610.47, 89.6644 L 616.018, 81.9687 L 554.631, 56.1969 L 548.725, 64.0716 L 528.501, 55.66 z "/>
<path style="fill:rgb(0, 0, 255);fill-opacity:0;fill-rule:evenodd;stroke:rgb(230, 0, 255);stroke-width:1;" d="M 820.582, 45.9955 L 828.635, 35.0783 L 832.394, 33.6465 L 870.872, 49.7539 L 871.946, 52.4385 L 862.64, 65.1454 L 851.007, 60.3132 L 851.902, 57.6286 L 849.754, 56.7338 L 848.859, 57.9866 L 820.582, 45.9955 z "/>
<path style="fill:rgb(255, 255, 0);fill-opacity:0;fill-rule:evenodd;stroke:rgb(230, 0, 255);stroke-width:1;" d="M 789.799, 64.2506 L 796.421, 55.123 L 809.128, 37.7629 L 816.823, 27.0246 L 827.204, 31.4989 L 820.045, 41.3423 L 815.928, 39.7315 L 814.139, 42.0582 L 817.897, 43.6689 L 815.57, 46.7114 L 814.139, 46.1745 L 804.832, 58.8814 L 802.685, 59.5973 L 797.136, 67.2931 L 789.799, 64.2506 z "/>
</svg>