<?xml version="1.0" encoding="iso-8859-1" standalone="no"?>
<!DOCTYPE svg PUBLIC "-//W3C//DTD SVG 1.0//EN" "http://www.w3.org/TR/2001/REC-SVG-20010904/DTD/svg10.dtd">
<svg xmlns="http://www.w3.org/2000/svg" width="988" height="800">
<path style="fill:rgb(255, 0, 0);fill-opacity:0;fill-rule:evenodd;stroke:rgb(0, 255, 128);stroke-width:1;" d="M 572.52, 216.54 L 581.203, 204.558 L 587.801, 207.337 L 620.968, 162.014 L 589.538, 148.643 L 588.843, 149.512 L 587.801, 149.164 L 587.454, 149.512 L 579.987, 146.386 L 581.029, 145.17 L 579.64, 144.649 L 594.4, 124.333 L 717.343, 176.254 L 690.601, 212.72 L 681.572, 208.9 L 653.44, 247.623 L 644.411, 248.144 L 634.86, 244.15 L 632.776, 241.893 L 572.52, 216.54 z "/>
<path style="fill:rgb(0, 255, 0);fill-opacity:0;fill-rule:evenodd;stroke:rgb(0, 255, 128);stroke-width:1;" d="M 808.161, 322.639 L 868.765, 239.288 L 911.656, 257.348 L 945.691, 271.587 L 930.584, 292.251 L 926.416, 290.514 L 925.201, 292.251 L 875.885, 271.587 L 873.801, 274.365 L 875.711, 275.06 L 868.07, 285.479 L 874.322, 288.083 L 877.447, 283.742 L 904.363, 295.029 L 902.974, 296.766 L 917.908, 303.017 L 905.578, 320.035 L 890.645, 313.783 L 888.561, 316.735 L 864.597, 306.664 L 867.549, 302.496 L 857.825, 298.329 L 848.795, 310.658 L 897.243, 330.975 L 896.028, 332.711 L 899.848, 334.448 L 884.914, 354.938 L 808.161, 322.639 z "/>
<path style="fill:rgb(0, 0, 255);fill-opacity:0;fill-rule:evenodd;stroke:rgb(0, 255, 128);stroke-width:1;" d="M 309.095, 514.869 L 322.639, 496.288 L 333.753, 500.977 L 354.764, 472.325 L 343.651, 467.636 L 356.675, 449.924 L 379.596, 459.648 L 379.944, 462.948 L 388.105, 466.421 L 390.71, 467.463 L 391.578, 466.247 L 393.835, 466.073 L 433.601, 482.744 L 415.368, 507.575 L 419.188, 509.138 L 409.29, 522.683 L 405.47, 521.12 L 404.081, 523.204 L 404.602, 523.377 L 385.327, 549.772 L 389.668, 551.509 L 377.686, 567.832 L 363.794, 562.101 L 375.776, 545.778 L 377.686, 546.473 L 379.249, 544.389 L 363.1, 537.617 L 359.627, 536.227 L 366.399, 527.024 L 344.172, 517.647 L 337.4, 526.85 L 309.963, 515.042 L 309.095, 514.869 z "/>
<path style="fill:rgb(255, 255, 0);fill-opacity:0;fill-rule:evenodd;stroke:rgb(0, 255, 128);stroke-width:1;" d="M 453.397, 315.694 L 464.858, 300.065 L 467.463, 300.933 L 493.51, 265.335 L 491.252, 264.293 L 504.623, 246.06 L 534.317, 258.563 L 530.497, 263.773 L 531.539, 264.12 L 532.234, 265.683 L 555.155, 275.407 L 541.263, 294.508 L 522.162, 286.347 L 507.054, 307.185 L 524.94, 314.652 L 525.635, 313.783 L 527.719, 314.652 L 528.413, 313.783 L 533.97, 316.214 L 540.048, 307.879 L 542.132, 307.358 L 545.952, 308.921 L 547.167, 307.185 L 550.467, 306.664 L 554.634, 308.4 L 555.676, 311.179 L 566.442, 315.694 L 539.874, 352.16 L 453.397, 315.694 z "/>
<path style="fill:rgb(255, 0, 0);fill-opacity:0;fill-rule:evenodd;stroke:rgb(0, 255, 128);stroke-width:1;" d="M 865.813, 772.737 L 889.082, 740.786 L 908.704, 749.121 L 899.501, 761.797 L 915.824, 768.57 L 947.081, 725.505 L 930.758, 718.732 L 922.075, 730.888 L 902.626, 722.726 L 925.722, 691.122 L 927.285, 690.428 L 950.727, 700.152 L 988.583, 716.128 L 973.649, 736.792 L 970.002, 735.229 L 938.745, 778.12 L 942.739, 779.857 L 928.153, 800 L 866.855, 774.3 L 865.813, 772.737 z "/>
<path style="fill:rgb(0, 255, 0);fill-opacity:0;fill-rule:evenodd;stroke:rgb(0, 255, 128);stroke-width:1;" d="M 375.602, 424.919 L 405.644, 383.417 L 434.99, 395.572 L 437.074, 396.44 L 429.433, 407.206 L 430.649, 407.727 L 426.308, 413.805 L 447.319, 422.661 L 446.277, 424.05 L 456.523, 428.392 L 455.828, 429.433 L 480.139, 439.679 L 476.145, 445.062 L 483.438, 448.014 L 471.283, 464.858 L 375.602, 424.919 z "/>
<path style="fill:rgb(0, 0, 255);fill-opacity:0;fill-rule:evenodd;stroke:rgb(0, 255, 128);stroke-width:1;" d="M 405.644, 383.417 L 435.858, 341.567 L 500.977, 368.83 L 499.761, 370.567 L 510.875, 375.255 L 494.031, 398.35 L 488.127, 395.919 L 475.798, 412.937 L 452.702, 403.386 L 465.552, 385.674 L 445.062, 376.992 L 442.283, 380.638 L 445.062, 381.854 L 434.99, 395.572 L 405.644, 383.417 z "/>
<path style="fill:rgb(255, 255, 0);fill-opacity:0;fill-rule:evenodd;stroke:rgb(0, 255, 128);stroke-width:1;" d="M 885.435, 497.504 L 903.321, 472.846 L 897.764, 470.415 L 902.105, 464.511 L 910.267, 453.223 L 950.727, 470.415 L 974.691, 480.486 L 944.997, 521.12 L 937.356, 517.821 L 936.488, 519.036 L 885.435, 497.504 z "/>
<path style="fill:rgb(255, 0, 0);fill-opacity:0;fill-rule:evenodd;stroke:rgb(0, 255, 128);stroke-width:1;" d="M 650.141, 398.871 L 651.009, 397.656 L 669.069, 372.998 L 671.326, 369.872 L 679.661, 373.345 L 681.745, 370.393 L 673.584, 366.746 L 680.53, 357.369 L 685.044, 359.279 L 689.212, 353.723 L 695.637, 344.867 L 706.577, 349.381 L 714.217, 338.962 L 703.451, 334.448 L 714.391, 319.34 L 716.128, 317.083 L 745.301, 329.412 L 734.708, 343.825 L 684.003, 413.11 L 650.141, 398.871 z "/>
<path style="fill:rgb(0, 255, 0);fill-opacity:0;fill-rule:evenodd;stroke:rgb(0, 255, 128);stroke-width:1;" d="M 216.54, 641.806 L 246.755, 600.478 L 261.168, 606.382 L 272.976, 611.417 L 277.143, 613.154 L 277.838, 612.112 L 279.748, 612.98 L 279.054, 614.022 L 281.485, 615.064 L 277.491, 620.621 L 282.353, 622.705 L 278.533, 627.914 L 280.443, 628.782 L 275.233, 635.902 L 289.125, 641.632 L 290.167, 643.369 L 288.604, 645.626 L 291.556, 646.842 L 287.215, 652.919 L 288.952, 653.614 L 279.227, 666.985 L 277.491, 667.506 L 216.54, 641.806 z "/>
<path style="fill:rgb(0, 0, 255);fill-opacity:0;fill-rule:evenodd;stroke:rgb(0, 255, 128);stroke-width:1;" d="M 539.006, 493.51 L 540.048, 492.121 L 546.82, 482.744 L 549.077, 479.792 L 555.85, 482.744 L 560.365, 476.666 L 558.628, 475.971 L 569.221, 461.385 L 591.448, 470.762 L 595.789, 472.672 L 603.082, 475.624 L 605.166, 472.846 L 616.28, 477.708 L 618.016, 475.277 L 633.818, 482.049 L 604.992, 521.294 L 579.292, 510.354 L 594.053, 490.037 L 579.987, 484.133 L 564.88, 504.623 L 539.006, 493.51 z "/>
<path style="fill:rgb(255, 255, 0);fill-opacity:0;fill-rule:evenodd;stroke:rgb(0, 255, 128);stroke-width:1;" d="M 629.303, 315.173 L 636.944, 304.754 L 647.015, 290.862 L 714.391, 319.34 L 703.451, 334.448 L 695.637, 344.867 L 689.212, 353.723 L 678.446, 349.208 L 686.086, 338.789 L 680.182, 336.358 L 676.188, 341.914 L 641.111, 326.981 L 644.758, 321.771 L 629.303, 315.173 z "/>
<path style="fill:rgb(255, 0, 0);fill-opacity:0;fill-rule:evenodd;stroke:rgb(0, 255, 128);stroke-width:1;" d="M 182.331, 687.823 L 197.612, 667.159 L 279.401, 701.715 L 264.293, 722.379 L 258.737, 720.122 L 243.629, 740.786 L 231.995, 735.924 L 242.414, 721.511 L 233.21, 717.69 L 235.12, 714.912 L 237.899, 711.092 L 223.833, 705.361 L 229.564, 697.547 L 209.594, 689.038 L 203.864, 696.853 L 182.331, 687.823 z "/>
<path style="fill:rgb(0, 255, 0);fill-opacity:0;fill-rule:evenodd;stroke:rgb(0, 255, 128);stroke-width:1;" d="M 614.89, 99.5008 L 619.405, 93.2494 L 617.842, 92.7285 L 618.537, 90.2974 L 619.926, 88.0399 L 621.663, 85.9562 L 623.92, 84.2197 L 625.483, 84.9143 L 631.561, 76.4055 L 629.998, 75.7109 L 630.519, 73.6271 L 631.734, 71.5433 L 633.297, 69.8068 L 635.381, 68.244 L 637.291, 69.1122 L 641.98, 62.3399 L 664.728, 71.717 L 661.081, 76.7528 L 667.853, 79.5311 L 665.596, 82.6568 L 688.344, 92.0339 L 680.182, 103.321 L 687.476, 106.273 L 677.578, 120.165 L 669.937, 116.866 L 666.985, 121.033 L 654.83, 115.997 L 654.656, 113.74 L 639.028, 107.315 L 637.812, 109.051 L 614.89, 99.5008 z "/>
<path style="fill:rgb(0, 0, 255);fill-opacity:0;fill-rule:evenodd;stroke:rgb(0, 255, 128);stroke-width:1;" d="M 515.39, 571.131 L 528.413, 553.245 L 523.204, 550.988 L 540.221, 527.545 L 585.717, 546.82 L 555.502, 588.148 L 540.395, 581.723 L 515.39, 571.131 z "/>
<path style="fill:rgb(255, 255, 0);fill-opacity:0;fill-rule:evenodd;stroke:rgb(0, 255, 128);stroke-width:1;" d="M 680.703, 127.285 L 693.38, 109.572 L 700.326, 112.351 L 712.307, 95.6805 L 754.157, 113.045 L 743.043, 128.847 L 749.815, 131.626 L 736.445, 150.38 L 680.703, 127.285 z "/>
<path style="fill:rgb(255, 0, 0);fill-opacity:0;fill-rule:evenodd;stroke:rgb(0, 255, 128);stroke-width:1;" d="M 255.958, 587.801 L 277.317, 558.455 L 305.448, 570.436 L 336.705, 583.46 L 323.855, 601.172 L 318.298, 598.741 L 312.741, 606.555 L 297.981, 600.304 L 298.676, 599.609 L 284.958, 593.705 L 286.347, 591.969 L 278.185, 588.496 L 273.323, 595.094 L 255.958, 587.801 z "/>
<path style="fill:rgb(0, 255, 0);fill-opacity:0;fill-rule:evenodd;stroke:rgb(0, 255, 128);stroke-width:1;" d="M 718.559, 76.5791 L 725.157, 67.5494 L 733.493, 71.0224 L 743.39, 57.3041 L 735.055, 53.8311 L 743.043, 42.544 L 794.27, 63.7291 L 786.976, 73.8007 L 777.773, 70.1541 L 767.875, 83.8724 L 777.078, 87.6926 L 775.516, 89.7764 L 769.785, 97.7643 L 718.559, 76.5791 z "/>
<path style="fill:rgb(0, 0, 255);fill-opacity:0;fill-rule:evenodd;stroke:rgb(0, 255, 128);stroke-width:1;" d="M 786.629, 685.218 L 816.67, 643.89 L 849.664, 657.608 L 821.706, 696.158 L 808.509, 690.601 L 806.251, 693.553 L 786.629, 685.218 z "/>
<path style="fill:rgb(255, 255, 0);fill-opacity:0;fill-rule:evenodd;stroke:rgb(0, 255, 128);stroke-width:1;" d="M 631.213, 751.378 L 638.854, 741.133 L 644.063, 743.217 L 647.71, 738.355 L 636.944, 733.84 L 647.884, 718.906 L 650.141, 715.78 L 693.727, 734.013 L 689.733, 739.744 L 681.398, 751.031 L 672.889, 747.558 L 670.632, 750.51 L 672.194, 751.205 L 667.68, 757.282 L 669.069, 757.803 L 663.686, 765.097 L 631.213, 751.378 z "/>
<path style="fill:rgb(255, 0, 0);fill-opacity:0;fill-rule:evenodd;stroke:rgb(0, 255, 128);stroke-width:1;" d="M 504.623, 246.06 L 514.869, 232.168 L 601.346, 268.635 L 591.274, 282.527 L 534.317, 258.563 L 504.623, 246.06 z "/>
<path style="fill:rgb(0, 255, 0);fill-opacity:0;fill-rule:evenodd;stroke:rgb(0, 255, 128);stroke-width:1;" d="M 549.946, 356.327 L 574.604, 322.813 L 606.903, 336.358 L 597.699, 349.034 L 592.142, 346.777 L 588.669, 351.639 L 600.13, 356.501 L 589.19, 371.435 L 588.322, 372.65 L 549.946, 356.327 z "/>
<path style="fill:rgb(0, 0, 255);fill-opacity:0;fill-rule:evenodd;stroke:rgb(0, 255, 128);stroke-width:1;" d="M 847.753, 141.871 L 851.226, 136.835 L 878.663, 98.6325 L 902.105, 108.53 L 903.321, 112.524 L 874.322, 152.985 L 873.627, 152.637 L 860.082, 146.907 L 847.753, 141.871 z "/>
<path style="fill:rgb(255, 255, 0);fill-opacity:0;fill-rule:evenodd;stroke:rgb(0, 255, 128);stroke-width:1;" d="M 586.759, 306.143 L 611.244, 272.802 L 648.752, 288.604 L 647.015, 290.862 L 636.944, 304.754 L 626.351, 300.239 L 622.531, 305.448 L 627.393, 307.532 L 618.537, 319.687 L 586.759, 306.143 z "/>
<path style="fill:rgb(255, 0, 0);fill-opacity:0;fill-rule:evenodd;stroke:rgb(0, 255, 128);stroke-width:1;" d="M 756.067, 727.936 L 767.528, 712.307 L 773.258, 714.738 L 789.407, 692.338 L 816.323, 703.625 L 788.886, 741.654 L 756.067, 727.936 z "/>
<path style="fill:rgb(0, 255, 0);fill-opacity:0;fill-rule:evenodd;stroke:rgb(0, 255, 128);stroke-width:1;" d="M 774.995, 369.004 L 789.755, 348.513 L 843.933, 371.261 L 842.718, 372.824 L 834.382, 384.285 L 831.43, 384.979 L 824.311, 382.027 L 819.97, 387.931 L 811.114, 384.285 L 774.995, 369.004 z "/>
<path style="fill:rgb(0, 0, 255);fill-opacity:0;fill-rule:evenodd;stroke:rgb(0, 255, 128);stroke-width:1;" d="M 690.601, 212.72 L 717.343, 176.254 L 744.259, 187.714 L 717.343, 224.528 L 714.912, 228.001 L 706.23, 224.181 L 709.008, 220.36 L 690.601, 212.72 z "/>
<path style="fill:rgb(255, 255, 0);fill-opacity:0;fill-rule:evenodd;stroke:rgb(0, 255, 128);stroke-width:1;" d="M 736.445, 150.38 L 749.815, 131.626 L 763.881, 112.003 L 790.623, 123.117 L 780.378, 137.53 L 764.228, 160.104 L 763.186, 161.493 L 736.445, 150.38 z "/>
<path style="fill:rgb(255, 0, 0);fill-opacity:0;fill-rule:evenodd;stroke:rgb(0, 255, 128);stroke-width:1;" d="M 819.796, 611.765 L 828.999, 599.088 L 823.095, 596.657 L 828.999, 588.496 L 881.268, 610.376 L 866.16, 631.213 L 819.796, 611.765 z "/>
<path style="fill:rgb(0, 255, 0);fill-opacity:0;fill-rule:evenodd;stroke:rgb(0, 255, 128);stroke-width:1;" d="M 452.702, 687.302 L 462.253, 674.105 L 483.265, 645.453 L 507.402, 655.524 L 476.666, 697.547 L 457.217, 689.212 L 452.702, 687.302 z "/>
<path style="fill:rgb(0, 0, 255);fill-opacity:0;fill-rule:evenodd;stroke:rgb(0, 255, 128);stroke-width:1;" d="M 506.186, 415.889 L 511.917, 408.075 L 515.911, 402.692 L 521.815, 405.296 L 520.773, 400.608 L 523.03, 397.656 L 520.425, 396.44 L 530.323, 382.896 L 560.538, 395.746 L 535.707, 429.781 L 527.892, 426.481 L 528.587, 425.44 L 527.198, 426.308 L 525.635, 426.829 L 523.898, 427.002 L 523.03, 426.829 L 521.467, 426.308 L 520.078, 425.613 L 519.036, 424.398 L 518.689, 423.877 L 518.515, 422.488 L 518.689, 421.272 L 506.186, 415.889 z "/>
<path style="fill:rgb(255, 255, 0);fill-opacity:0;fill-rule:evenodd;stroke:rgb(0, 255, 128);stroke-width:1;" d="M 830.041, 561.928 L 859.562, 521.467 L 860.777, 519.904 L 885.262, 530.323 L 858.693, 566.442 L 852.963, 564.011 L 848.795, 569.742 L 830.041, 561.928 z "/>
<path style="fill:rgb(255, 0, 0);fill-opacity:0;fill-rule:evenodd;stroke:rgb(0, 255, 128);stroke-width:1;" d="M 296.418, 533.623 L 309.963, 515.042 L 337.4, 526.85 L 359.627, 536.227 L 363.1, 537.617 L 349.555, 556.023 L 296.418, 533.623 z "/>
<path style="fill:rgb(0, 255, 0);fill-opacity:0;fill-rule:evenodd;stroke:rgb(0, 255, 128);stroke-width:1;" d="M 303.017, 678.793 L 327.502, 645.279 L 333.579, 636.944 L 340.004, 639.722 L 340.352, 639.896 L 340.873, 640.59 L 340.873, 641.459 L 340.352, 642.153 L 339.483, 642.674 L 338.442, 642.848 L 335.489, 644.932 L 343.998, 648.405 L 347.819, 643.195 L 357.543, 647.363 L 353.723, 652.572 L 355.459, 653.267 L 346.603, 665.249 L 343.651, 664.033 L 339.831, 669.242 L 334.969, 667.159 L 331.843, 671.674 L 339.657, 674.973 L 328.891, 689.733 L 303.017, 678.793 z "/>
<path style="fill:rgb(0, 0, 255);fill-opacity:0;fill-rule:evenodd;stroke:rgb(0, 255, 128);stroke-width:1;" d="M 682.44, 270.545 L 705.709, 238.593 L 710.745, 240.677 L 715.259, 234.6 L 731.409, 241.545 L 725.331, 250.228 L 731.061, 252.659 L 709.703, 282.006 L 682.44, 270.545 z "/>
<path style="fill:rgb(255, 255, 0);fill-opacity:0;fill-rule:evenodd;stroke:rgb(0, 255, 128);stroke-width:1;" d="M 663.686, 519.21 L 678.793, 498.546 L 712.307, 512.611 L 724.81, 517.994 L 729.151, 519.731 L 723.421, 527.545 L 726.547, 528.934 L 722.205, 534.838 L 701.194, 525.982 L 697.374, 531.365 L 692.164, 529.108 L 690.949, 530.671 L 663.686, 519.21 z "/>
<path style="fill:rgb(255, 0, 0);fill-opacity:0;fill-rule:evenodd;stroke:rgb(0, 255, 128);stroke-width:1;" d="M 873.106, 572.867 L 886.303, 554.634 L 889.082, 554.113 L 888.387, 550.988 L 890.471, 548.209 L 894.118, 546.994 L 901.411, 537.096 L 927.111, 547.862 L 907.489, 574.778 L 901.932, 572.52 L 894.986, 581.897 L 873.106, 572.867 z "/>
<path style="fill:rgb(0, 255, 0);fill-opacity:0;fill-rule:evenodd;stroke:rgb(0, 255, 128);stroke-width:1;" d="M 485.696, 469.025 L 493.684, 458.086 L 495.767, 458.954 L 497.677, 456.523 L 496.983, 456.002 L 499.935, 452.008 L 500.977, 452.529 L 503.061, 449.75 L 500.629, 448.708 L 510.18, 435.858 L 520.252, 440.2 L 520.425, 439.852 L 521.294, 439.331 L 523.03, 438.811 L 523.898, 438.811 L 525.809, 438.811 L 527.545, 439.331 L 528.413, 439.852 L 529.629, 440.721 L 530.497, 442.11 L 530.844, 442.804 L 537.964, 445.756 L 527.371, 460.169 L 524.246, 458.78 L 525.114, 460.169 L 525.461, 461.558 L 525.288, 463.121 L 524.593, 464.511 L 524.246, 465.205 L 522.857, 466.421 L 521.294, 467.289 L 519.384, 467.81 L 517.473, 467.984 L 520.599, 469.373 L 512.438, 480.486 L 498.198, 474.409 L 496.115, 474.756 L 493.857, 474.756 L 491.773, 474.409 L 489.863, 473.714 L 488.127, 472.672 L 486.911, 471.283 L 485.696, 469.025 z "/>
<path style="fill:rgb(0, 0, 255);fill-opacity:0;fill-rule:evenodd;stroke:rgb(0, 255, 128);stroke-width:1;" d="M 460.169, 602.909 L 480.834, 574.778 L 482.57, 575.472 L 491.079, 563.838 L 498.198, 566.79 L 489.863, 578.25 L 498.546, 581.897 L 508.444, 568.353 L 511.048, 569.221 L 516.432, 571.652 L 513.653, 575.472 L 485.696, 613.675 L 460.169, 602.909 z "/>
<path style="fill:rgb(255, 255, 0);fill-opacity:0;fill-rule:evenodd;stroke:rgb(0, 255, 128);stroke-width:1;" d="M 401.997, 720.469 L 415.021, 702.583 L 430.996, 709.355 L 433.948, 705.361 L 462.253, 717.343 L 446.277, 739.223 L 401.997, 720.469 z "/>
<path style="fill:rgb(255, 0, 0);fill-opacity:0;fill-rule:evenodd;stroke:rgb(0, 255, 128);stroke-width:1;" d="M 759.366, 240.504 L 785.414, 204.906 L 810.766, 215.672 L 784.719, 251.096 L 759.366, 240.504 z "/>
<path style="fill:rgb(0, 255, 0);fill-opacity:0;fill-rule:evenodd;stroke:rgb(0, 255, 128);stroke-width:1;" d="M 882.31, 441.589 L 911.483, 401.823 L 936.314, 412.416 L 912.351, 445.409 L 896.896, 438.984 L 892.034, 445.756 L 882.31, 441.589 z "/>
<path style="fill:rgb(0, 0, 255);fill-opacity:0;fill-rule:evenodd;stroke:rgb(0, 255, 128);stroke-width:1;" d="M 394.877, 644.237 L 397.135, 641.285 L 415.021, 616.627 L 441.242, 627.74 L 412.937, 666.464 L 411.027, 669.242 L 402.344, 665.422 L 404.254, 662.817 L 401.65, 661.776 L 408.769, 651.878 L 406.512, 651.009 L 407.38, 649.62 L 394.877, 644.237 z "/>
<path style="fill:rgb(255, 255, 0);fill-opacity:0;fill-rule:evenodd;stroke:rgb(0, 255, 128);stroke-width:1;" d="M 775.516, 89.7764 L 777.078, 87.6926 L 786.976, 73.8007 L 794.27, 63.7291 L 821.359, 75.0163 L 804.168, 98.9798 L 800.174, 97.2433 L 789.755, 111.83 L 779.162, 107.489 L 783.503, 101.237 L 778.12, 98.9798 L 782.635, 92.7285 L 775.516, 89.7764 z "/>
<path style="fill:rgb(255, 0, 0);fill-opacity:0;fill-rule:evenodd;stroke:rgb(0, 255, 128);stroke-width:1;" d="M 356.327, 704.32 L 358.064, 702.062 L 378.902, 673.236 L 381.68, 669.416 L 395.225, 675.147 L 401.997, 665.943 L 410.679, 669.59 L 409.464, 671.326 L 380.291, 711.265 L 378.554, 713.523 L 356.327, 704.32 z "/>
<path style="fill:rgb(0, 255, 0);fill-opacity:0;fill-rule:evenodd;stroke:rgb(0, 255, 128);stroke-width:1;" d="M 724.463, 653.961 L 727.415, 649.794 L 749.642, 618.884 L 751.378, 616.627 L 773.084, 625.657 L 745.995, 662.991 L 743.911, 665.943 L 740.959, 666.29 L 737.139, 664.728 L 734.187, 663.512 L 737.139, 659.344 L 724.463, 653.961 z "/>
<path style="fill:rgb(0, 0, 255);fill-opacity:0;fill-rule:evenodd;stroke:rgb(0, 255, 128);stroke-width:1;" d="M 696.332, 647.189 L 701.541, 640.069 L 724.463, 608.292 L 749.642, 618.884 L 727.415, 649.794 L 709.703, 642.327 L 705.535, 648.231 L 701.715, 647.363 L 700.847, 648.231 L 699.457, 648.578 L 696.332, 647.189 z "/>
<path style="fill:rgb(255, 255, 0);fill-opacity:0;fill-rule:evenodd;stroke:rgb(0, 255, 128);stroke-width:1;" d="M 795.485, 537.096 L 799.305, 531.886 L 806.946, 521.467 L 811.634, 523.551 L 816.497, 516.605 L 811.982, 514.695 L 817.712, 506.707 L 820.491, 502.887 L 840.807, 511.569 L 835.772, 518.515 L 841.849, 521.12 L 825.526, 543.694 L 819.275, 541.09 L 815.802, 545.778 L 795.485, 537.096 z "/>
<path style="fill:rgb(255, 0, 0);fill-opacity:0;fill-rule:evenodd;stroke:rgb(0, 255, 128);stroke-width:1;" d="M 490.731, 549.425 L 490.905, 549.425 L 514.695, 516.779 L 533.449, 524.767 L 514.348, 550.988 L 521.988, 554.287 L 511.048, 569.221 L 508.444, 568.353 L 495.246, 562.622 L 501.498, 553.94 L 490.731, 549.425 z "/>
<path style="fill:rgb(0, 255, 0);fill-opacity:0;fill-rule:evenodd;stroke:rgb(0, 255, 128);stroke-width:1;" d="M 518.515, 483.091 L 547.862, 443.152 L 559.67, 448.014 L 558.455, 449.75 L 557.586, 449.403 L 555.329, 452.529 L 565.921, 456.87 L 558.975, 466.421 L 556.023, 465.205 L 544.042, 481.528 L 546.82, 482.744 L 540.048, 492.121 L 518.515, 483.091 z "/>
<path style="fill:rgb(0, 0, 255);fill-opacity:0;fill-rule:evenodd;stroke:rgb(0, 255, 128);stroke-width:1;" d="M 535.707, 429.781 L 560.538, 395.746 L 582.244, 404.949 L 560.712, 434.469 L 557.413, 438.811 L 535.707, 429.781 z "/>
<path style="fill:rgb(255, 255, 0);fill-opacity:0;fill-rule:evenodd;stroke:rgb(0, 255, 128);stroke-width:1;" d="M 770.132, 520.946 L 789.407, 494.725 L 817.712, 506.707 L 811.982, 514.695 L 806.946, 521.467 L 799.305, 531.886 L 778.294, 522.857 L 777.252, 524.246 L 775.516, 524.593 L 772.216, 523.377 L 770.132, 520.946 z "/>
<path style="fill:rgb(255, 0, 0);fill-opacity:0;fill-rule:evenodd;stroke:rgb(0, 255, 128);stroke-width:1;" d="M 592.663, 736.097 L 603.951, 720.469 L 607.771, 722.032 L 612.633, 715.259 L 608.813, 713.697 L 617.495, 701.888 L 638.68, 710.918 L 636.249, 714.044 L 619.405, 737.313 L 613.848, 744.953 L 592.663, 736.097 z "/>
<path style="fill:rgb(0, 255, 0);fill-opacity:0;fill-rule:evenodd;stroke:rgb(0, 255, 128);stroke-width:1;" d="M 617.842, 581.897 L 629.998, 565.053 L 677.578, 584.849 L 668.201, 597.873 L 637.117, 584.849 L 634.339, 588.669 L 617.842, 581.897 z "/>
<path style="fill:rgb(0, 0, 255);fill-opacity:0;fill-rule:evenodd;stroke:rgb(0, 255, 128);stroke-width:1;" d="M 648.926, 539.527 L 657.434, 527.892 L 698.415, 545.257 L 713.002, 551.335 L 704.493, 563.143 L 665.596, 546.646 L 661.428, 548.209 L 657.434, 546.646 L 655.524, 542.305 L 648.926, 539.527 z "/>
<path style="fill:rgb(255, 255, 0);fill-opacity:0;fill-rule:evenodd;stroke:rgb(0, 255, 128);stroke-width:1;" d="M 618.19, 670.284 L 643.716, 635.034 L 647.015, 636.423 L 662.47, 642.848 L 636.944, 678.099 L 618.19, 670.284 z "/>
<path style="fill:rgb(255, 0, 0);fill-opacity:0;fill-rule:evenodd;stroke:rgb(0, 255, 128);stroke-width:1;" d="M 572.346, 448.708 L 577.556, 441.589 L 599.609, 411.374 L 616.974, 418.667 L 616.453, 419.362 L 594.053, 449.75 L 590.232, 455.307 L 589.538, 456.002 L 572.346, 448.708 z "/>
<path style="fill:rgb(0, 255, 0);fill-opacity:0;fill-rule:evenodd;stroke:rgb(0, 255, 128);stroke-width:1;" d="M 509.659, 623.746 L 531.365, 594.053 L 540.395, 581.723 L 555.502, 588.148 L 524.767, 630.171 L 509.659, 623.746 z "/>
<path style="fill:rgb(0, 0, 255);fill-opacity:0;fill-rule:evenodd;stroke:rgb(0, 255, 128);stroke-width:1;" d="M 246.755, 600.478 L 255.958, 587.801 L 273.323, 595.094 L 321.077, 615.238 L 316.562, 621.489 L 303.364, 615.932 L 298.676, 622.357 L 281.485, 615.064 L 279.054, 614.022 L 279.748, 612.98 L 277.838, 612.112 L 277.143, 613.154 L 272.976, 611.417 L 279.054, 603.256 L 267.072, 598.22 L 261.168, 606.382 L 246.755, 600.478 z "/>
<path style="fill:rgb(255, 255, 0);fill-opacity:0;fill-rule:evenodd;stroke:rgb(0, 255, 128);stroke-width:1;" d="M 844.628, 419.709 L 847.059, 416.41 L 870.328, 384.458 L 890.471, 393.141 L 871.022, 419.709 L 861.472, 415.715 L 855.394, 424.05 L 844.628, 419.709 z "/>
<path style="fill:rgb(255, 0, 0);fill-opacity:0;fill-rule:evenodd;stroke:rgb(0, 255, 128);stroke-width:1;" d="M 443.846, 595.963 L 474.756, 553.592 L 483.091, 557.065 L 476.666, 565.921 L 484.827, 569.394 L 480.834, 574.778 L 460.169, 602.909 L 443.846, 595.963 z "/>
<path style="fill:rgb(0, 255, 0);fill-opacity:0;fill-rule:evenodd;stroke:rgb(0, 255, 128);stroke-width:1;" d="M 851.226, 584.502 L 858.172, 575.125 L 855.915, 574.257 L 860.777, 567.658 L 873.106, 572.867 L 894.986, 581.897 L 900.369, 584.155 L 888.735, 600.304 L 851.226, 584.502 z "/>
<path style="fill:rgb(0, 0, 255);fill-opacity:0;fill-rule:evenodd;stroke:rgb(0, 255, 128);stroke-width:1;" d="M 328.891, 689.733 L 339.657, 674.973 L 346.603, 665.249 L 355.459, 653.267 L 358.237, 649.446 L 365.878, 652.746 L 366.573, 651.878 L 374.04, 655.003 L 343.998, 695.984 L 328.891, 689.733 z "/>
<path style="fill:rgb(255, 255, 0);fill-opacity:0;fill-rule:evenodd;stroke:rgb(0, 255, 128);stroke-width:1;" d="M 723.595, 287.91 L 751.552, 249.533 L 767.528, 256.306 L 739.57, 294.682 L 723.595, 287.91 z "/>
<path style="fill:rgb(255, 0, 0);fill-opacity:0;fill-rule:evenodd;stroke:rgb(0, 255, 128);stroke-width:1;" d="M 313.957, 628.782 L 332.711, 603.256 L 330.801, 602.388 L 342.609, 586.238 L 358.411, 592.837 L 329.238, 632.95 L 326.46, 631.734 L 325.244, 633.471 L 313.957, 628.782 z "/>
<path style="fill:rgb(0, 255, 0);fill-opacity:0;fill-rule:evenodd;stroke:rgb(0, 255, 128);stroke-width:1;" d="M 736.618, 421.446 L 749.468, 403.733 L 781.072, 416.931 L 776.21, 423.703 L 778.988, 427.697 L 774.474, 433.775 L 769.264, 435.164 L 736.618, 421.446 z "/>
<path style="fill:rgb(0, 0, 255);fill-opacity:0;fill-rule:evenodd;stroke:rgb(0, 255, 128);stroke-width:1;" d="M 329.238, 632.95 L 358.411, 592.837 L 373.692, 599.262 L 371.087, 602.735 L 352.333, 628.435 L 347.819, 626.525 L 347.992, 628.261 L 347.819, 629.303 L 347.471, 630.171 L 346.429, 631.734 L 344.867, 633.124 L 342.956, 634.339 L 341.914, 634.686 L 340.004, 637.291 L 329.238, 632.95 z "/>
<path style="fill:rgb(255, 255, 0);fill-opacity:0;fill-rule:evenodd;stroke:rgb(0, 255, 128);stroke-width:1;" d="M 829.868, 189.104 L 830.909, 187.714 L 856.783, 151.595 L 860.082, 146.907 L 873.627, 152.637 L 843.412, 194.66 L 829.868, 189.104 z "/>
<path style="fill:rgb(255, 0, 0);fill-opacity:0;fill-rule:evenodd;stroke:rgb(0, 255, 128);stroke-width:1;" d="M 782.982, 454.439 L 805.383, 423.529 L 814.239, 427.35 L 815.802, 425.44 L 814.934, 422.488 L 818.059, 418.146 L 821.706, 416.583 L 827.263, 419.015 L 828.478, 419.535 L 820.664, 430.302 L 798.264, 460.864 L 782.982, 454.439 z "/>
<path style="fill:rgb(0, 255, 0);fill-opacity:0;fill-rule:evenodd;stroke:rgb(0, 255, 128);stroke-width:1;" d="M 816.323, 556.023 L 825.526, 543.694 L 841.849, 521.12 L 846.017, 515.563 L 859.562, 521.467 L 830.041, 561.928 L 816.323, 556.023 z "/>
<path style="fill:rgb(0, 0, 255);fill-opacity:0;fill-rule:evenodd;stroke:rgb(0, 255, 128);stroke-width:1;" d="M 615.238, 382.548 L 637.638, 351.812 L 655.698, 359.453 L 633.124, 390.015 L 615.238, 382.548 z "/>
<path style="fill:rgb(255, 255, 0);fill-opacity:0;fill-rule:evenodd;stroke:rgb(0, 255, 128);stroke-width:1;" d="M 284.437, 670.979 L 300.239, 649.446 L 308.921, 653.093 L 311.7, 649.273 L 307.358, 647.363 L 313.262, 639.375 L 327.502, 645.279 L 303.017, 678.793 L 284.437, 670.979 z "/>
<path style="fill:rgb(255, 0, 0);fill-opacity:0;fill-rule:evenodd;stroke:rgb(0, 255, 128);stroke-width:1;" d="M 851.921, 483.438 L 882.31, 441.589 L 892.034, 445.756 L 895.507, 447.146 L 887.519, 458.259 L 865.118, 488.995 L 851.921, 483.438 z "/>
<path style="fill:rgb(0, 255, 0);fill-opacity:0;fill-rule:evenodd;stroke:rgb(0, 255, 128);stroke-width:1;" d="M 693.032, 479.097 L 701.715, 467.289 L 747.732, 486.738 L 739.049, 498.719 L 693.032, 479.097 z "/>
<path style="fill:rgb(0, 0, 255);fill-opacity:0;fill-rule:evenodd;stroke:rgb(0, 255, 128);stroke-width:1;" d="M 633.124, 390.015 L 655.698, 359.453 L 657.608, 356.675 L 669.416, 361.71 L 663.165, 370.393 L 669.069, 372.998 L 651.009, 397.656 L 633.124, 390.015 z "/>
<path style="fill:rgb(255, 255, 0);fill-opacity:0;fill-rule:evenodd;stroke:rgb(0, 255, 128);stroke-width:1;" d="M 759.887, 389.668 L 768.222, 378.207 L 806.946, 394.53 L 821.88, 400.781 L 815.802, 409.117 L 793.749, 399.74 L 791.318, 402.865 L 759.887, 389.668 z "/>
<path style="fill:rgb(255, 0, 0);fill-opacity:0;fill-rule:evenodd;stroke:rgb(0, 255, 128);stroke-width:1;" d="M 838.029, 477.534 L 865.292, 440.373 L 874.322, 444.194 L 877.621, 439.679 L 882.31, 441.589 L 851.921, 483.438 L 838.029, 477.534 z "/>
<path style="fill:rgb(0, 255, 0);fill-opacity:0;fill-rule:evenodd;stroke:rgb(0, 255, 128);stroke-width:1;" d="M 561.58, 733.666 L 568.179, 724.81 L 574.257, 716.475 L 580.334, 707.966 L 586.238, 699.805 L 592.49, 691.47 L 605.861, 697.026 L 579.813, 732.624 L 576.34, 731.061 L 573.041, 735.576 L 569.221, 736.965 L 561.58, 733.666 z "/>
<path style="fill:rgb(0, 0, 255);fill-opacity:0;fill-rule:evenodd;stroke:rgb(0, 255, 128);stroke-width:1;" d="M 709.703, 282.006 L 731.061, 252.659 L 737.486, 243.629 L 751.552, 249.533 L 723.595, 287.91 L 709.703, 282.006 z "/>
<path style="fill:rgb(255, 255, 0);fill-opacity:0;fill-rule:evenodd;stroke:rgb(0, 255, 128);stroke-width:1;" d="M 745.648, 580.334 L 765.791, 552.724 L 775.516, 539.18 L 787.845, 544.389 L 778.12, 557.934 L 779.162, 558.281 L 759.019, 585.891 L 745.648, 580.334 z "/>
<path style="fill:rgb(255, 0, 0);fill-opacity:0;fill-rule:evenodd;stroke:rgb(0, 255, 128);stroke-width:1;" d="M 636.944, 678.099 L 662.47, 642.848 L 664.728, 639.722 L 668.722, 639.896 L 673.757, 641.98 L 674.626, 644.411 L 672.889, 646.842 L 674.973, 647.71 L 671.153, 653.093 L 673.063, 653.961 L 651.183, 684.176 L 636.944, 678.099 z "/>
<path style="fill:rgb(0, 255, 0);fill-opacity:0;fill-rule:evenodd;stroke:rgb(0, 255, 128);stroke-width:1;" d="M 828.999, 588.496 L 836.293, 578.25 L 851.226, 584.502 L 888.735, 600.304 L 881.268, 610.376 L 828.999, 588.496 z "/>
<path style="fill:rgb(0, 0, 255);fill-opacity:0;fill-rule:evenodd;stroke:rgb(0, 255, 128);stroke-width:1;" d="M 599.957, 375.95 L 619.232, 349.729 L 629.651, 335.489 L 635.728, 337.921 L 628.435, 347.992 L 637.638, 351.812 L 615.238, 382.548 L 599.957, 375.95 z "/>
<path style="fill:rgb(255, 255, 0);fill-opacity:0;fill-rule:evenodd;stroke:rgb(0, 255, 128);stroke-width:1;" d="M 797.743, 115.303 L 808.161, 100.716 L 804.168, 98.9798 L 821.359, 75.0163 L 836.466, 81.2676 L 808.856, 119.818 L 797.743, 115.303 z "/>
<path style="fill:rgb(255, 0, 0);fill-opacity:0;fill-rule:evenodd;stroke:rgb(0, 255, 128);stroke-width:1;" d="M 404.775, 579.292 L 434.643, 538.485 L 444.194, 542.652 L 434.817, 555.676 L 439.158, 557.586 L 438.463, 558.455 L 418.841, 585.37 L 404.775, 579.292 z "/>
<path style="fill:rgb(0, 255, 0);fill-opacity:0;fill-rule:evenodd;stroke:rgb(0, 255, 128);stroke-width:1;" d="M 739.57, 294.682 L 767.528, 256.306 L 770.653, 252.138 L 780.899, 256.479 L 782.809, 257.348 L 751.899, 299.718 L 739.57, 294.682 z "/>
<path style="fill:rgb(0, 0, 255);fill-opacity:0;fill-rule:evenodd;stroke:rgb(0, 255, 128);stroke-width:1;" d="M 369.872, 652.572 L 398.003, 614.196 L 400.608, 610.549 L 415.021, 616.627 L 397.135, 641.285 L 391.752, 639.028 L 379.075, 656.392 L 369.872, 652.572 z "/>
<path style="fill:rgb(255, 255, 0);fill-opacity:0;fill-rule:evenodd;stroke:rgb(0, 255, 128);stroke-width:1;" d="M 780.899, 256.479 L 784.719, 251.096 L 810.766, 215.672 L 823.269, 221.055 L 793.575, 261.862 L 782.809, 257.348 L 780.899, 256.479 z "/>
<path style="fill:rgb(255, 0, 0);fill-opacity:0;fill-rule:evenodd;stroke:rgb(0, 255, 128);stroke-width:1;" d="M 359.279, 648.057 L 368.656, 635.207 L 364.489, 633.471 L 383.069, 607.944 L 398.003, 614.196 L 369.872, 652.572 L 359.279, 648.057 z "/>
<path style="fill:rgb(0, 255, 0);fill-opacity:0;fill-rule:evenodd;stroke:rgb(0, 255, 128);stroke-width:1;" d="M 701.715, 467.289 L 709.876, 456.175 L 755.893, 475.624 L 747.732, 486.738 L 701.715, 467.289 z "/>
<path style="fill:rgb(0, 0, 255);fill-opacity:0;fill-rule:evenodd;stroke:rgb(0, 255, 128);stroke-width:1;" d="M 826.047, 127.458 L 836.987, 112.351 L 832.82, 110.614 L 850.011, 86.8244 L 864.771, 93.0758 L 843.239, 123.117 L 836.814, 131.973 L 826.047, 127.458 z "/>
<path style="fill:rgb(255, 255, 0);fill-opacity:0;fill-rule:evenodd;stroke:rgb(0, 255, 128);stroke-width:1;" d="M 704.493, 563.143 L 713.002, 551.335 L 718.038, 544.389 L 718.385, 543.868 L 719.601, 543.347 L 720.295, 543.347 L 721.858, 543.347 L 721.337, 540.569 L 723.247, 537.79 L 726.373, 537.096 L 725.678, 536.054 L 725.505, 535.533 L 725.678, 533.796 L 730.888, 526.85 L 734.708, 528.413 L 738.355, 523.377 L 747.558, 527.198 L 738.355, 540.048 L 717.69, 568.526 L 704.493, 563.143 z "/>
<path style="fill:rgb(255, 0, 0);fill-opacity:0;fill-rule:evenodd;stroke:rgb(0, 255, 128);stroke-width:1;" d="M 343.998, 695.984 L 374.04, 655.003 L 382.896, 658.65 L 373.866, 671.153 L 378.902, 673.236 L 358.064, 702.062 L 343.998, 695.984 z "/>
<path style="fill:rgb(0, 255, 0);fill-opacity:0;fill-rule:evenodd;stroke:rgb(0, 255, 128);stroke-width:1;" d="M 772.737, 591.795 L 793.749, 562.969 L 797.395, 564.359 L 806.425, 552.203 L 816.149, 556.371 L 786.282, 597.352 L 772.737, 591.795 z "/>
<path style="fill:rgb(0, 0, 255);fill-opacity:0;fill-rule:evenodd;stroke:rgb(0, 255, 128);stroke-width:1;" d="M 560.712, 434.469 L 582.244, 404.949 L 588.496, 407.554 L 589.017, 406.859 L 599.609, 411.374 L 577.556, 441.589 L 560.712, 434.469 z "/>
<path style="fill:rgb(255, 255, 0);fill-opacity:0;fill-rule:evenodd;stroke:rgb(0, 255, 128);stroke-width:1;" d="M 717.343, 224.528 L 744.259, 187.714 L 757.977, 193.445 L 731.061, 230.258 L 717.343, 224.528 z "/>
<path style="fill:rgb(255, 0, 0);fill-opacity:0;fill-rule:evenodd;stroke:rgb(0, 255, 128);stroke-width:1;" d="M 485.696, 613.675 L 513.653, 575.472 L 526.85, 581.029 L 520.599, 589.538 L 498.893, 619.232 L 485.696, 613.675 z "/>
<path style="fill:rgb(0, 255, 0);fill-opacity:0;fill-rule:evenodd;stroke:rgb(0, 255, 128);stroke-width:1;" d="M 817.191, 414.673 L 828.478, 399.392 L 824.484, 397.656 L 834.382, 384.285 L 842.718, 372.824 L 856.61, 378.728 L 827.263, 419.015 L 821.706, 416.583 L 817.191, 414.673 z "/>
<path style="fill:rgb(0, 0, 255);fill-opacity:0;fill-rule:evenodd;stroke:rgb(0, 255, 128);stroke-width:1;" d="M 786.282, 597.352 L 816.149, 556.371 L 823.616, 559.496 L 815.802, 570.263 L 822.227, 573.041 L 800.347, 603.256 L 786.282, 597.352 z "/>
<path style="fill:rgb(255, 255, 0);fill-opacity:0;fill-rule:evenodd;stroke:rgb(0, 255, 128);stroke-width:1;" d="M 651.183, 684.176 L 673.063, 653.961 L 677.925, 647.189 L 681.745, 645.105 L 687.649, 647.363 L 689.212, 651.009 L 682.787, 659.865 L 685.565, 661.081 L 664.728, 689.733 L 651.183, 684.176 z "/>
<path style="fill:rgb(255, 0, 0);fill-opacity:0;fill-rule:evenodd;stroke:rgb(0, 255, 128);stroke-width:1;" d="M 764.228, 160.104 L 780.378, 137.53 L 786.803, 140.308 L 793.749, 130.584 L 798.437, 132.494 L 801.563, 127.979 L 807.293, 130.41 L 781.072, 167.05 L 764.228, 160.104 z "/>
<path style="fill:rgb(0, 255, 0);fill-opacity:0;fill-rule:evenodd;stroke:rgb(0, 255, 128);stroke-width:1;" d="M 599.783, 606.729 L 606.729, 597.178 L 656.392, 618.016 L 659.344, 619.232 L 652.399, 628.782 L 599.783, 606.729 z "/>
<path style="fill:rgb(0, 0, 255);fill-opacity:0;fill-rule:evenodd;stroke:rgb(0, 255, 128);stroke-width:1;" d="M 827.263, 419.015 L 856.61, 378.728 L 870.328, 384.458 L 847.059, 416.41 L 840.981, 413.805 L 834.903, 422.14 L 828.478, 419.535 L 827.263, 419.015 z "/>
<path style="fill:rgb(255, 255, 0);fill-opacity:0;fill-rule:evenodd;stroke:rgb(0, 255, 128);stroke-width:1;" d="M 431.344, 590.58 L 457.912, 554.113 L 463.99, 556.718 L 468.331, 550.814 L 474.756, 553.592 L 443.846, 595.963 L 431.344, 590.58 z "/>
<path style="fill:rgb(255, 0, 0);fill-opacity:0;fill-rule:evenodd;stroke:rgb(0, 255, 128);stroke-width:1;" d="M 685.218, 489.863 L 693.032, 479.097 L 739.049, 498.719 L 731.061, 509.312 L 725.505, 507.054 L 685.218, 489.863 z "/>
<path style="fill:rgb(0, 255, 0);fill-opacity:0;fill-rule:evenodd;stroke:rgb(0, 255, 128);stroke-width:1;" d="M 377.686, 567.832 L 389.668, 551.509 L 405.991, 529.108 L 416.583, 533.623 L 408.422, 544.736 L 411.374, 546.125 L 410.679, 547.167 L 391.231, 573.562 L 377.686, 567.832 z "/>
<path style="fill:rgb(0, 0, 255);fill-opacity:0;fill-rule:evenodd;stroke:rgb(0, 255, 128);stroke-width:1;" d="M 448.708, 544.563 L 454.96, 536.054 L 479.792, 502.019 L 491.252, 506.881 L 468.678, 537.79 L 460.169, 549.425 L 452.876, 546.299 L 448.708, 544.563 z "/>
<path style="fill:rgb(255, 255, 0);fill-opacity:0;fill-rule:evenodd;stroke:rgb(0, 255, 128);stroke-width:1;" d="M 800.347, 603.256 L 822.227, 573.041 L 828.826, 564.011 L 836.987, 567.311 L 830.736, 575.993 L 836.293, 578.25 L 828.999, 588.496 L 823.095, 596.657 L 814.066, 608.986 L 800.347, 603.256 z "/>
<path style="fill:rgb(255, 0, 0);fill-opacity:0;fill-rule:evenodd;stroke:rgb(0, 255, 128);stroke-width:1;" d="M 440.547, 529.976 L 465.552, 495.941 L 479.792, 502.019 L 454.96, 536.054 L 440.547, 529.976 z "/>
<path style="fill:rgb(0, 255, 0);fill-opacity:0;fill-rule:evenodd;stroke:rgb(0, 255, 128);stroke-width:1;" d="M 391.231, 573.562 L 410.679, 547.167 L 415.021, 548.904 L 425.44, 534.665 L 434.643, 538.485 L 404.775, 579.292 L 391.231, 573.562 z "/>
<path style="fill:rgb(0, 0, 255);fill-opacity:0;fill-rule:evenodd;stroke:rgb(0, 255, 128);stroke-width:1;" d="M 808.856, 119.818 L 836.466, 81.2676 L 850.011, 86.8244 L 832.82, 110.614 L 829.347, 109.225 L 826.221, 113.74 L 828.305, 114.608 L 820.838, 124.853 L 808.856, 119.818 z "/>
<path style="fill:rgb(255, 255, 0);fill-opacity:0;fill-rule:evenodd;stroke:rgb(0, 255, 128);stroke-width:1;" d="M 724.81, 517.994 L 731.061, 509.312 L 739.049, 498.719 L 747.732, 486.738 L 755.893, 475.624 L 767.354, 480.486 L 742.522, 514.348 L 736.271, 522.857 L 729.151, 519.731 L 724.81, 517.994 z "/>
<path style="fill:rgb(255, 0, 0);fill-opacity:0;fill-rule:evenodd;stroke:rgb(0, 255, 128);stroke-width:1;" d="M 432.038, 695.811 L 439.331, 685.739 L 454.96, 692.338 L 457.217, 689.212 L 476.666, 697.547 L 464.684, 714.217 L 445.062, 705.882 L 447.667, 702.409 L 432.038, 695.811 z "/>
<path style="fill:rgb(0, 255, 0);fill-opacity:0;fill-rule:evenodd;stroke:rgb(0, 255, 128);stroke-width:1;" d="M 747.384, 235.468 L 752.42, 228.348 L 750.857, 227.654 L 771.695, 199.175 L 785.414, 204.906 L 759.366, 240.504 L 758.324, 241.893 L 750.163, 238.42 L 751.205, 237.031 L 747.384, 235.468 z "/>
<path style="fill:rgb(0, 0, 255);fill-opacity:0;fill-rule:evenodd;stroke:rgb(0, 255, 128);stroke-width:1;" d="M 426.481, 524.072 L 451.313, 490.037 L 465.552, 495.941 L 440.547, 529.976 L 426.481, 524.072 z "/>
<path style="fill:rgb(255, 255, 0);fill-opacity:0;fill-rule:evenodd;stroke:rgb(0, 255, 128);stroke-width:1;" d="M 711.613, 709.355 L 736.097, 675.494 L 740.438, 669.59 L 752.594, 674.626 L 742.87, 687.997 L 723.768, 714.391 L 711.613, 709.355 z "/>
<path style="fill:rgb(255, 0, 0);fill-opacity:0;fill-rule:evenodd;stroke:rgb(0, 255, 128);stroke-width:1;" d="M 575.646, 738.528 L 579.813, 732.624 L 605.861, 697.026 L 617.495, 701.888 L 608.813, 713.697 L 603.951, 720.469 L 592.663, 736.097 L 587.28, 743.39 L 575.646, 738.528 z "/>
<path style="fill:rgb(0, 255, 0);fill-opacity:0;fill-rule:evenodd;stroke:rgb(0, 255, 128);stroke-width:1;" d="M 813.024, 466.942 L 835.251, 436.379 L 840.634, 438.811 L 848.622, 427.697 L 856.262, 430.823 L 850.532, 438.637 L 825.874, 472.498 L 813.024, 466.942 z "/>
<path style="fill:rgb(0, 0, 255);fill-opacity:0;fill-rule:evenodd;stroke:rgb(0, 255, 128);stroke-width:1;" d="M 759.019, 585.891 L 779.162, 558.281 L 784.198, 551.161 L 797.916, 556.892 L 793.749, 562.969 L 772.737, 591.795 L 759.019, 585.891 z "/>
<path style="fill:rgb(255, 255, 0);fill-opacity:0;fill-rule:evenodd;stroke:rgb(0, 255, 128);stroke-width:1;" d="M 412.937, 666.464 L 441.242, 627.74 L 455.133, 633.644 L 434.469, 661.949 L 428.218, 659.344 L 420.577, 669.763 L 412.937, 666.464 z "/>
<path style="fill:rgb(255, 0, 0);fill-opacity:0;fill-rule:evenodd;stroke:rgb(0, 255, 128);stroke-width:1;" d="M 429.954, 668.027 L 434.469, 661.949 L 455.133, 633.644 L 470.067, 639.896 L 460.169, 653.44 L 454.439, 651.009 L 453.918, 651.704 L 449.403, 657.782 L 455.133, 660.213 L 444.888, 674.278 L 429.954, 668.027 z "/>
<path style="fill:rgb(0, 255, 0);fill-opacity:0;fill-rule:evenodd;stroke:rgb(0, 255, 128);stroke-width:1;" d="M 798.264, 460.864 L 820.664, 430.302 L 829.694, 434.122 L 833.167, 429.433 L 838.724, 431.691 L 835.251, 436.379 L 813.024, 466.942 L 798.264, 460.864 z "/>
<path style="fill:rgb(0, 0, 255);fill-opacity:0;fill-rule:evenodd;stroke:rgb(0, 255, 128);stroke-width:1;" d="M 764.402, 676.015 L 794.443, 634.513 L 805.904, 639.375 L 775.863, 680.703 L 765.097, 676.188 L 764.402, 676.015 z "/>
<path style="fill:rgb(255, 255, 0);fill-opacity:0;fill-rule:evenodd;stroke:rgb(0, 255, 128);stroke-width:1;" d="M 732.103, 574.604 L 752.768, 546.125 L 754.33, 546.82 L 761.276, 537.269 L 762.666, 537.096 L 764.228, 537.096 L 764.923, 537.443 L 765.965, 538.138 L 766.659, 539.006 L 766.833, 539.7 L 765.27, 541.611 L 769.091, 543.173 L 763.013, 551.509 L 765.791, 552.724 L 745.648, 580.334 L 732.103, 574.604 z "/>
<path style="fill:rgb(255, 0, 0);fill-opacity:0;fill-rule:evenodd;stroke:rgb(0, 255, 128);stroke-width:1;" d="M 664.728, 689.733 L 685.565, 661.081 L 692.685, 651.183 L 698.415, 653.614 L 693.553, 660.56 L 701.194, 663.686 L 699.805, 665.769 L 678.272, 695.463 L 664.728, 689.733 z "/>
<path style="fill:rgb(0, 255, 0);fill-opacity:0;fill-rule:evenodd;stroke:rgb(0, 255, 128);stroke-width:1;" d="M 731.061, 230.258 L 757.977, 193.445 L 771.695, 199.175 L 750.857, 227.654 L 745.648, 225.57 L 739.57, 233.905 L 731.061, 230.258 z "/>
<path style="fill:rgb(0, 0, 255);fill-opacity:0;fill-rule:evenodd;stroke:rgb(0, 255, 128);stroke-width:1;" d="M 870.675, 436.727 L 874.148, 432.038 L 899.674, 396.961 L 911.483, 401.823 L 882.31, 441.589 L 877.621, 439.679 L 870.675, 436.727 z "/>
<path style="fill:rgb(255, 255, 0);fill-opacity:0;fill-rule:evenodd;stroke:rgb(0, 255, 128);stroke-width:1;" d="M 488.648, 416.063 L 516.952, 377.339 L 530.323, 382.896 L 520.425, 396.44 L 515.911, 402.692 L 511.917, 408.075 L 507.923, 406.512 L 498.025, 420.056 L 488.648, 416.063 z "/>
<path style="fill:rgb(255, 0, 0);fill-opacity:0;fill-rule:evenodd;stroke:rgb(0, 255, 128);stroke-width:1;" d="M 843.239, 123.117 L 864.771, 93.0758 L 878.663, 98.6325 L 851.226, 136.835 L 844.975, 134.231 L 850.879, 126.243 L 843.239, 123.117 z "/>
<path style="fill:rgb(0, 255, 0);fill-opacity:0;fill-rule:evenodd;stroke:rgb(0, 255, 128);stroke-width:1;" d="M 825.874, 472.498 L 850.532, 438.637 L 856.61, 441.242 L 862.34, 433.427 L 868.418, 436.032 L 865.292, 440.373 L 838.029, 477.534 L 825.874, 472.498 z "/>
<path style="fill:rgb(0, 0, 255);fill-opacity:0;fill-rule:evenodd;stroke:rgb(0, 255, 128);stroke-width:1;" d="M 734.187, 718.732 L 753.288, 692.338 L 765.097, 676.188 L 775.863, 680.703 L 764.402, 696.679 L 744.953, 723.247 L 734.187, 718.732 z "/>
<path style="fill:rgb(255, 255, 0);fill-opacity:0;fill-rule:evenodd;stroke:rgb(0, 255, 128);stroke-width:1;" d="M 816.844, 181.984 L 834.035, 157.847 L 838.55, 159.757 L 838.029, 156.805 L 840.981, 152.811 L 844.801, 151.595 L 847.58, 147.775 L 856.783, 151.595 L 830.909, 187.714 L 816.844, 181.984 z "/>
<path style="fill:rgb(255, 0, 0);fill-opacity:0;fill-rule:evenodd;stroke:rgb(0, 255, 128);stroke-width:1;" d="M 751.899, 299.718 L 782.809, 257.348 L 793.575, 261.862 L 762.492, 304.233 L 751.899, 299.718 z "/>
<path style="fill:rgb(0, 255, 0);fill-opacity:0;fill-rule:evenodd;stroke:rgb(0, 255, 128);stroke-width:1;" d="M 792.88, 171.912 L 813.371, 143.26 L 819.275, 135.099 L 828.305, 138.919 L 825.179, 143.26 L 826.395, 148.817 L 805.904, 177.295 L 792.88, 171.912 z "/>
<path style="fill:rgb(0, 0, 255);fill-opacity:0;fill-rule:evenodd;stroke:rgb(0, 255, 128);stroke-width:1;" d="M 418.841, 585.37 L 438.463, 558.455 L 442.804, 560.191 L 452.876, 546.299 L 460.169, 549.425 L 461.211, 549.772 L 457.912, 554.113 L 431.344, 590.58 L 418.841, 585.37 z "/>
<path style="fill:rgb(255, 255, 0);fill-opacity:0;fill-rule:evenodd;stroke:rgb(0, 255, 128);stroke-width:1;" d="M 906.447, 362.405 L 926.937, 334.795 L 943.087, 341.741 L 922.596, 369.351 L 906.447, 362.405 z "/>
<path style="fill:rgb(255, 0, 0);fill-opacity:0;fill-rule:evenodd;stroke:rgb(0, 255, 128);stroke-width:1;" d="M 865.118, 488.995 L 887.519, 458.259 L 902.105, 464.511 L 897.764, 470.415 L 879.705, 495.073 L 865.118, 488.995 z "/>
<path style="fill:rgb(0, 255, 0);fill-opacity:0;fill-rule:evenodd;stroke:rgb(0, 255, 128);stroke-width:1;" d="M 590.232, 455.307 L 594.053, 449.75 L 604.471, 454.265 L 641.98, 470.067 L 635.034, 479.618 L 601.172, 465.205 L 595.789, 472.672 L 591.448, 470.762 L 599.609, 459.301 L 590.232, 455.307 z "/>
<path style="fill:rgb(0, 0, 255);fill-opacity:0;fill-rule:evenodd;stroke:rgb(0, 255, 128);stroke-width:1;" d="M 621.663, 436.553 L 630.171, 425.092 L 636.249, 427.697 L 637.638, 425.787 L 665.769, 437.769 L 655.871, 451.14 L 621.663, 436.553 z "/>
<path style="fill:rgb(255, 255, 0);fill-opacity:0;fill-rule:evenodd;stroke:rgb(0, 255, 128);stroke-width:1;" d="M 775.863, 680.703 L 805.904, 639.375 L 816.67, 643.89 L 786.629, 685.218 L 775.863, 680.703 z "/>
<path style="fill:rgb(255, 0, 0);fill-opacity:0;fill-rule:evenodd;stroke:rgb(0, 255, 128);stroke-width:1;" d="M 749.468, 403.733 L 759.887, 389.668 L 791.318, 402.865 L 781.072, 416.931 L 749.468, 403.733 z "/>
<path style="fill:rgb(0, 255, 0);fill-opacity:0;fill-rule:evenodd;stroke:rgb(0, 255, 128);stroke-width:1;" d="M 380.291, 711.265 L 409.464, 671.326 L 420.404, 676.015 L 409.638, 690.775 L 391.231, 715.954 L 380.291, 711.265 z "/>
<path style="fill:rgb(0, 0, 255);fill-opacity:0;fill-rule:evenodd;stroke:rgb(0, 255, 128);stroke-width:1;" d="M 753.809, 671.5 L 763.707, 657.782 L 783.677, 629.998 L 794.443, 634.513 L 764.402, 676.015 L 753.809, 671.5 z "/>
<path style="fill:rgb(255, 255, 0);fill-opacity:0;fill-rule:evenodd;stroke:rgb(0, 255, 128);stroke-width:1;" d="M 568.873, 649.62 L 576.34, 639.201 L 617.669, 656.392 L 610.028, 666.985 L 568.873, 649.62 z "/>
<path style="fill:rgb(255, 0, 0);fill-opacity:0;fill-rule:evenodd;stroke:rgb(0, 255, 128);stroke-width:1;" d="M 757.282, 514 L 777.252, 486.738 L 790.97, 492.468 L 789.407, 494.725 L 770.132, 520.946 L 765.791, 527.024 L 758.672, 523.898 L 764.055, 516.779 L 757.282, 514 z "/>
<path style="fill:rgb(0, 255, 0);fill-opacity:0;fill-rule:evenodd;stroke:rgb(0, 255, 128);stroke-width:1;" d="M 891.166, 355.806 L 911.483, 328.196 L 926.937, 334.795 L 906.447, 362.405 L 891.166, 355.806 z "/>
<path style="fill:rgb(0, 0, 255);fill-opacity:0;fill-rule:evenodd;stroke:rgb(0, 255, 128);stroke-width:1;" d="M 728.804, 432.212 L 736.618, 421.446 L 769.264, 435.164 L 776.21, 438.116 L 768.222, 448.882 L 728.804, 432.212 z "/>
<path style="fill:rgb(255, 255, 0);fill-opacity:0;fill-rule:evenodd;stroke:rgb(0, 255, 128);stroke-width:1;" d="M 805.904, 177.295 L 826.395, 148.817 L 833.514, 138.745 L 844.628, 143.26 L 834.035, 157.847 L 816.844, 181.984 L 805.904, 177.295 z "/>
<path style="fill:rgb(255, 0, 0);fill-opacity:0;fill-rule:evenodd;stroke:rgb(0, 255, 128);stroke-width:1;" d="M 443.673, 676.015 L 444.888, 674.278 L 455.133, 660.213 L 460.169, 653.44 L 470.067, 639.896 L 483.265, 645.453 L 462.253, 674.105 L 454.265, 670.805 L 449.056, 678.099 L 443.673, 676.015 z "/>
<path style="fill:rgb(0, 255, 0);fill-opacity:0;fill-rule:evenodd;stroke:rgb(0, 255, 128);stroke-width:1;" d="M 742.522, 514.348 L 767.354, 480.486 L 778.468, 485.175 L 777.252, 486.738 L 757.282, 514 L 748.947, 525.461 L 743.564, 523.204 L 748.253, 516.779 L 742.522, 514.348 z "/>
<path style="fill:rgb(0, 0, 255);fill-opacity:0;fill-rule:evenodd;stroke:rgb(0, 255, 128);stroke-width:1;" d="M 717.69, 568.526 L 738.355, 540.048 L 752.768, 546.125 L 732.103, 574.604 L 717.69, 568.526 z "/>
<path style="fill:rgb(255, 255, 0);fill-opacity:0;fill-rule:evenodd;stroke:rgb(0, 255, 128);stroke-width:1;" d="M 414.5, 519.036 L 439.505, 485.001 L 451.313, 490.037 L 426.481, 524.072 L 414.5, 519.036 z "/>
<path style="fill:rgb(255, 0, 0);fill-opacity:0;fill-rule:evenodd;stroke:rgb(0, 255, 128);stroke-width:1;" d="M 701.02, 704.84 L 703.451, 701.367 L 720.295, 678.272 L 731.582, 662.47 L 734.187, 663.512 L 737.139, 664.728 L 732.277, 671.326 L 728.978, 672.542 L 736.097, 675.494 L 711.613, 709.355 L 701.02, 704.84 z "/>
<path style="fill:rgb(0, 255, 0);fill-opacity:0;fill-rule:evenodd;stroke:rgb(0, 255, 128);stroke-width:1;" d="M 594.226, 614.369 L 599.783, 606.729 L 652.399, 628.782 L 647.015, 636.423 L 643.716, 635.034 L 640.59, 633.818 L 594.226, 614.369 z "/>
<path style="fill:rgb(0, 0, 255);fill-opacity:0;fill-rule:evenodd;stroke:rgb(0, 255, 128);stroke-width:1;" d="M 678.099, 634.513 L 679.835, 632.082 L 703.278, 599.609 L 715.433, 604.645 L 697.2, 629.651 L 693.901, 634.165 L 689.907, 632.603 L 686.086, 637.812 L 678.099, 634.513 z "/>
<path style="fill:rgb(255, 255, 0);fill-opacity:0;fill-rule:evenodd;stroke:rgb(0, 255, 128);stroke-width:1;" d="M 468.157, 546.473 L 473.193, 539.7 L 468.678, 537.79 L 491.252, 506.881 L 502.713, 511.743 L 478.75, 544.389 L 475.103, 549.425 L 468.157, 546.473 z "/>
<path style="fill:rgb(255, 0, 0);fill-opacity:0;fill-rule:evenodd;stroke:rgb(0, 255, 128);stroke-width:1;" d="M 657.434, 527.892 L 663.686, 519.21 L 690.949, 530.671 L 713.87, 540.395 L 710.745, 544.736 L 701.541, 540.916 L 698.415, 545.257 L 657.434, 527.892 z "/>
<path style="fill:rgb(0, 255, 0);fill-opacity:0;fill-rule:evenodd;stroke:rgb(0, 255, 128);stroke-width:1;" d="M 744.953, 723.247 L 764.402, 696.679 L 767.701, 698.068 L 777.078, 685.044 L 784.893, 688.17 L 767.528, 712.307 L 756.067, 727.936 L 744.953, 723.247 z "/>
<path style="fill:rgb(0, 0, 255);fill-opacity:0;fill-rule:evenodd;stroke:rgb(0, 255, 128);stroke-width:1;" d="M 478.75, 544.389 L 502.713, 511.743 L 514.695, 516.779 L 490.905, 549.425 L 478.75, 544.389 z "/>
<path style="fill:rgb(255, 255, 0);fill-opacity:0;fill-rule:evenodd;stroke:rgb(0, 255, 128);stroke-width:1;" d="M 588.148, 622.878 L 594.226, 614.369 L 640.59, 633.818 L 634.339, 642.153 L 588.148, 622.878 z "/>
<path style="fill:rgb(255, 0, 0);fill-opacity:0;fill-rule:evenodd;stroke:rgb(0, 255, 128);stroke-width:1;" d="M 391.231, 715.954 L 409.638, 690.775 L 411.548, 691.47 L 416.931, 684.176 L 421.446, 682.44 L 424.745, 677.925 L 431.17, 680.703 L 417.973, 698.589 L 415.021, 702.583 L 401.997, 720.469 L 391.231, 715.954 z "/>
<path style="fill:rgb(0, 255, 0);fill-opacity:0;fill-rule:evenodd;stroke:rgb(0, 255, 128);stroke-width:1;" d="M 612.459, 589.19 L 617.842, 581.897 L 634.339, 588.669 L 670.458, 603.951 L 665.249, 611.244 L 645.8, 603.082 L 612.459, 589.19 z "/>
<path style="fill:rgb(0, 0, 255);fill-opacity:0;fill-rule:evenodd;stroke:rgb(0, 255, 128);stroke-width:1;" d="M 781.072, 167.05 L 807.293, 130.41 L 811.287, 131.973 L 811.808, 134.404 L 807.293, 140.829 L 813.371, 143.26 L 792.88, 171.912 L 781.072, 167.05 z "/>
<path style="fill:rgb(255, 255, 0);fill-opacity:0;fill-rule:evenodd;stroke:rgb(0, 255, 128);stroke-width:1;" d="M 582.244, 631.04 L 588.148, 622.878 L 634.339, 642.153 L 628.435, 650.315 L 616.974, 645.626 L 582.244, 631.04 z "/>
<path style="fill:rgb(255, 0, 0);fill-opacity:0;fill-rule:evenodd;stroke:rgb(0, 255, 128);stroke-width:1;" d="M 668.201, 627.219 L 691.817, 594.747 L 703.278, 599.609 L 679.835, 632.082 L 668.201, 627.219 z "/>
<path style="fill:rgb(0, 255, 0);fill-opacity:0;fill-rule:evenodd;stroke:rgb(0, 255, 128);stroke-width:1;" d="M 678.272, 695.463 L 699.805, 665.769 L 712.307, 670.979 L 710.224, 673.931 L 693.38, 697.2 L 690.775, 700.673 L 678.272, 695.463 z "/>
<path style="fill:rgb(0, 0, 255);fill-opacity:0;fill-rule:evenodd;stroke:rgb(0, 255, 128);stroke-width:1;" d="M 606.729, 597.178 L 612.459, 589.19 L 645.8, 603.082 L 644.411, 604.992 L 660.907, 611.765 L 656.392, 618.016 L 606.729, 597.178 z "/>
<path style="fill:rgb(255, 255, 0);fill-opacity:0;fill-rule:evenodd;stroke:rgb(0, 255, 128);stroke-width:1;" d="M 520.078, 716.301 L 526.503, 707.445 L 568.179, 724.81 L 561.58, 733.666 L 548.209, 728.109 L 520.078, 716.301 z "/>
<path style="fill:rgb(255, 0, 0);fill-opacity:0;fill-rule:evenodd;stroke:rgb(0, 255, 128);stroke-width:1;" d="M 594.053, 449.75 L 616.453, 419.362 L 621.489, 421.446 L 624.615, 420.404 L 629.303, 422.314 L 630.171, 425.092 L 621.663, 436.553 L 618.537, 435.164 L 611.417, 444.888 L 604.471, 454.265 L 594.053, 449.75 z "/>
<path style="fill:rgb(0, 255, 0);fill-opacity:0;fill-rule:evenodd;stroke:rgb(0, 255, 128);stroke-width:1;" d="M 660.386, 623.92 L 666.985, 614.717 L 663.686, 613.328 L 665.249, 611.244 L 670.458, 603.951 L 682.613, 586.933 L 693.901, 591.795 L 691.817, 594.747 L 668.201, 627.219 L 660.386, 623.92 z "/>
<path style="fill:rgb(0, 0, 255);fill-opacity:0;fill-rule:evenodd;stroke:rgb(0, 255, 128);stroke-width:1;" d="M 611.417, 444.888 L 618.537, 435.164 L 621.663, 436.553 L 655.871, 451.14 L 648.926, 460.69 L 611.417, 444.888 z "/>
<path style="fill:rgb(255, 255, 0);fill-opacity:0;fill-rule:evenodd;stroke:rgb(0, 255, 128);stroke-width:1;" d="M 745.995, 662.991 L 773.084, 625.657 L 783.677, 629.998 L 763.707, 657.782 L 758.498, 655.698 L 755.893, 659.171 L 757.977, 660.039 L 753.462, 666.117 L 745.995, 662.991 z "/>
<path style="fill:rgb(255, 0, 0);fill-opacity:0;fill-rule:evenodd;stroke:rgb(0, 255, 128);stroke-width:1;" d="M 532.581, 698.936 L 538.832, 690.601 L 580.334, 707.966 L 574.257, 716.475 L 532.581, 698.936 z "/>
<path style="fill:rgb(0, 255, 0);fill-opacity:0;fill-rule:evenodd;stroke:rgb(0, 255, 128);stroke-width:1;" d="M 544.736, 682.44 L 550.988, 673.931 L 592.49, 691.47 L 586.238, 699.805 L 544.736, 682.44 z "/>
<path style="fill:rgb(0, 0, 255);fill-opacity:0;fill-rule:evenodd;stroke:rgb(0, 255, 128);stroke-width:1;" d="M 604.471, 454.265 L 611.417, 444.888 L 648.926, 460.69 L 641.98, 470.067 L 604.471, 454.265 z "/>
<path style="fill:rgb(255, 255, 0);fill-opacity:0;fill-rule:evenodd;stroke:rgb(0, 255, 128);stroke-width:1;" d="M 526.503, 707.445 L 532.581, 698.936 L 574.257, 716.475 L 568.179, 724.81 L 526.503, 707.445 z "/>
<path style="fill:rgb(255, 0, 0);fill-opacity:0;fill-rule:evenodd;stroke:rgb(0, 255, 128);stroke-width:1;" d="M 858.693, 566.442 L 885.262, 530.323 L 894.812, 534.317 L 868.244, 570.436 L 858.693, 566.442 z "/>
<path style="fill:rgb(0, 255, 0);fill-opacity:0;fill-rule:evenodd;stroke:rgb(0, 255, 128);stroke-width:1;" d="M 768.222, 378.207 L 774.995, 369.004 L 811.114, 384.285 L 807.988, 388.626 L 810.419, 389.494 L 806.946, 394.53 L 768.222, 378.207 z "/>
<path style="fill:rgb(0, 0, 255);fill-opacity:0;fill-rule:evenodd;stroke:rgb(0, 255, 128);stroke-width:1;" d="M 538.832, 690.601 L 544.736, 682.44 L 586.238, 699.805 L 580.334, 707.966 L 538.832, 690.601 z "/>
<path style="fill:rgb(255, 255, 0);fill-opacity:0;fill-rule:evenodd;stroke:rgb(0, 255, 128);stroke-width:1;" d="M 0, 688.865 L 9.55068, 677.925 L 37.6818, 692.164 L 31.0831, 699.805 L 28.1311, 703.104 L 0, 688.865 z "/>
<path style="fill:rgb(255, 0, 0);fill-opacity:0;fill-rule:evenodd;stroke:rgb(0, 255, 128);stroke-width:1;" d="M 678.793, 498.546 L 685.218, 489.863 L 725.505, 507.054 L 725.852, 507.402 L 726.373, 508.444 L 726.373, 509.312 L 725.678, 510.354 L 724.81, 511.048 L 724.115, 511.222 L 722.726, 511.222 L 721.511, 511.048 L 720.469, 510.354 L 719.948, 509.486 L 719.08, 509.138 L 718.906, 509.659 L 718.038, 510.527 L 716.822, 511.048 L 715.433, 511.222 L 714.912, 511.048 L 713.87, 510.701 L 712.307, 512.611 L 678.793, 498.546 z "/>
<path style="fill:rgb(0, 255, 0);fill-opacity:0;fill-rule:evenodd;stroke:rgb(0, 255, 128);stroke-width:1;" d="M 864.945, 428.218 L 871.022, 419.709 L 890.471, 393.141 L 899.674, 396.961 L 874.148, 432.038 L 864.945, 428.218 z "/>
<path style="fill:rgb(0, 0, 255);fill-opacity:0;fill-rule:evenodd;stroke:rgb(0, 255, 128);stroke-width:1;" d="M 772.216, 449.924 L 788.539, 427.697 L 790.623, 427.35 L 796.874, 418.841 L 800.695, 420.577 L 798.437, 423.529 L 802.605, 422.488 L 805.383, 423.529 L 782.982, 454.439 L 772.216, 449.924 z "/>
<path style="fill:rgb(255, 255, 0);fill-opacity:0;fill-rule:evenodd;stroke:rgb(0, 255, 128);stroke-width:1;" d="M 498.893, 619.232 L 520.599, 589.538 L 531.365, 594.053 L 509.659, 623.746 L 498.893, 619.232 z "/>
<path style="fill:rgb(255, 0, 0);fill-opacity:0;fill-rule:evenodd;stroke:rgb(0, 255, 128);stroke-width:1;" d="M 352.333, 628.435 L 371.087, 602.735 L 383.069, 607.944 L 364.489, 633.471 L 352.333, 628.435 z "/>
<path style="fill:rgb(0, 255, 0);fill-opacity:0;fill-rule:evenodd;stroke:rgb(0, 255, 128);stroke-width:1;" d="M 576.34, 639.201 L 582.244, 631.04 L 616.974, 645.626 L 613.328, 650.662 L 619.926, 653.44 L 617.669, 656.392 L 576.34, 639.201 z "/>
<path style="fill:rgb(0, 0, 255);fill-opacity:0;fill-rule:evenodd;stroke:rgb(0, 255, 128);stroke-width:1;" d="M 589.19, 371.435 L 600.13, 356.501 L 608.465, 345.04 L 619.232, 349.729 L 599.957, 375.95 L 589.19, 371.435 z "/>
<path style="fill:rgb(255, 255, 0);fill-opacity:0;fill-rule:evenodd;stroke:rgb(0, 255, 128);stroke-width:1;" d="M 723.768, 714.391 L 742.87, 687.997 L 753.288, 692.338 L 734.187, 718.732 L 723.768, 714.391 z "/>
<path style="fill:rgb(255, 0, 0);fill-opacity:0;fill-rule:evenodd;stroke:rgb(0, 255, 128);stroke-width:1;" d="M 695.463, 637.465 L 698.936, 632.603 L 697.2, 629.651 L 715.433, 604.645 L 724.463, 608.292 L 701.541, 640.069 L 695.463, 637.465 z "/>
<path style="fill:rgb(0, 255, 0);fill-opacity:0;fill-rule:evenodd;stroke:rgb(0, 255, 128);stroke-width:1;" d="M 619.405, 737.313 L 636.249, 714.044 L 647.884, 718.906 L 636.944, 733.84 L 630.866, 742.175 L 619.405, 737.313 z "/>
<path style="fill:rgb(0, 0, 255);fill-opacity:0;fill-rule:evenodd;stroke:rgb(0, 255, 128);stroke-width:1;" d="M 693.38, 697.2 L 710.224, 673.931 L 720.295, 678.272 L 703.451, 701.367 L 693.38, 697.2 z "/>
<path style="fill:rgb(255, 255, 0);fill-opacity:0;fill-rule:evenodd;stroke:rgb(0, 255, 128);stroke-width:1;" d="M 172.26, 423.356 L 175.212, 420.23 L 173.822, 416.41 L 177.469, 413.11 L 181.637, 413.284 L 184.068, 410.332 L 191.014, 413.805 L 188.756, 416.583 L 189.277, 417.973 L 189.277, 419.709 L 188.583, 421.272 L 187.541, 422.488 L 185.978, 423.529 L 183.894, 424.224 L 182.331, 424.398 L 179.553, 427.002 L 172.26, 423.356 z "/>
<path style="fill:rgb(255, 0, 0);fill-opacity:0;fill-rule:evenodd;stroke:rgb(0, 255, 128);stroke-width:1;" d="M 859.041, 36.1189 L 879.705, 7.98784 L 885.435, 0 L 908.357, 9.55068 L 906.273, 12.5027 L 911.656, 14.7601 L 910.267, 16.6703 L 912.872, 17.7122 L 906.447, 26.5683 L 919.123, 31.9514 L 927.806, 20.1433 L 939.787, 25.1791 L 943.087, 20.6642 L 953.332, 24.8318 L 963.924, 29.3466 L 935.446, 68.244 L 916.518, 60.2561 L 917.213, 59.2142 L 878.663, 43.0649 L 877.968, 44.1068 L 859.041, 36.1189 z "/>
<path style="fill:rgb(0, 255, 0);fill-opacity:0;fill-rule:evenodd;stroke:rgb(0, 255, 128);stroke-width:1;" d="M 640.417, 61.6453 L 674.452, 14.0656 L 737.313, 40.1129 L 706.23, 83.3514 L 669.937, 68.244 L 666.638, 72.5852 L 664.728, 71.717 L 641.98, 62.3399 L 640.417, 61.6453 z M 673.41, 51.4 L 691.122, 59.0406 L 701.541, 44.975 L 683.829, 37.3345 L 673.41, 51.4 z "/>
</svg>