<?xml version="1.0" encoding="iso-8859-1" standalone="no"?>
<!DOCTYPE svg PUBLIC "-//W3C//DTD SVG 1.0//EN" "http://www.w3.org/TR/2001/REC-SVG-20010904/DTD/svg10.dtd">
<svg xmlns="http://www.w3.org/2000/svg" width="1015" height="800">
<path style="fill:rgb(255, 0, 0);fill-opacity:0;fill-rule:evenodd;stroke:rgb(0, 255, 14);stroke-width:1;" d="M 456.31, 465.973 L 471.304, 375.01 L 549.771, 382.341 L 632.403, 390.171 L 710.87, 397.668 L 709.038, 408.83 L 697.709, 477.301 L 695.877, 488.796 L 617.409, 481.299 L 534.777, 473.469 L 456.31, 465.973 z "/>
<path style="fill:rgb(0, 255, 0);fill-opacity:0;fill-rule:evenodd;stroke:rgb(0, 255, 14);stroke-width:1;" d="M 456.31, 465.973 L 471.304, 375.01 L 549.771, 382.341 L 548.105, 392.836 L 630.571, 400.666 L 632.403, 390.171 L 710.87, 397.668 L 709.038, 408.83 L 705.04, 408.496 L 693.878, 476.968 L 697.709, 477.301 L 695.877, 488.796 L 617.409, 481.299 L 619.075, 470.804 L 536.61, 462.974 L 534.777, 473.469 L 456.31, 465.973 z "/>
<path style="fill:rgb(0, 0, 255);fill-opacity:0;fill-rule:evenodd;stroke:rgb(0, 255, 14);stroke-width:1;" d="M 219.075, 320.7 L 243.232, 230.737 L 292.212, 235.402 L 437.151, 249.563 L 421.991, 340.358 L 277.218, 326.364 L 219.075, 320.7 z "/>
<path style="fill:rgb(255, 255, 0);fill-opacity:0;fill-rule:evenodd;stroke:rgb(0, 255, 14);stroke-width:1;" d="M 207.414, 429.821 L 219.075, 361.849 L 219.908, 360.35 L 221.574, 358.85 L 223.74, 358.017 L 226.406, 357.684 L 407.497, 374.511 L 409.663, 375.177 L 411.495, 376.343 L 412.661, 378.009 L 412.995, 379.675 L 401.999, 448.646 L 400.666, 450.479 L 399.167, 451.978 L 397.334, 452.645 L 394.835, 452.978 L 212.911, 435.818 L 210.412, 434.819 L 208.746, 433.319 L 207.913, 431.987 L 207.414, 429.821 z "/>
<path style="fill:rgb(255, 0, 0);fill-opacity:0;fill-rule:evenodd;stroke:rgb(0, 255, 14);stroke-width:1;" d="M 235.902, 565.431 L 237.401, 556.935 L 237.901, 553.769 L 244.898, 510.121 L 248.73, 486.631 L 249.229, 483.465 L 250.562, 474.969 L 284.881, 478.301 L 309.704, 480.466 L 359.35, 485.131 L 362.016, 485.464 L 364.848, 485.798 L 381.175, 487.297 L 385.839, 487.63 L 397.168, 488.796 L 395.668, 497.293 L 395.169, 500.458 L 394.669, 503.457 L 393.836, 509.454 L 393.17, 512.62 L 392.67, 516.118 L 387.005, 551.603 L 386.506, 554.935 L 385.839, 558.101 L 385.006, 564.098 L 384.34, 567.264 L 383.84, 570.596 L 382.507, 579.092 L 371.179, 578.092 L 366.514, 577.593 L 362.349, 577.259 L 354.352, 576.426 L 350.187, 576.093 L 347.355, 575.76 L 344.856, 575.594 L 295.044, 570.929 L 270.387, 568.596 L 235.902, 565.431 z "/>
<path style="fill:rgb(0, 255, 0);fill-opacity:0;fill-rule:evenodd;stroke:rgb(0, 255, 14);stroke-width:1;" d="M 215.077, 424.823 L 224.406, 369.013 L 225.239, 367.347 L 226.739, 366.181 L 228.571, 365.181 L 231.07, 364.848 L 400.167, 380.841 L 402.499, 381.674 L 403.832, 382.674 L 404.998, 384.007 L 405.664, 385.839 L 396.168, 442.482 L 395.002, 444.148 L 393.503, 445.148 L 392.003, 445.981 L 389.504, 446.314 L 220.075, 429.988 L 217.909, 429.321 L 216.576, 428.155 L 215.577, 426.656 L 215.077, 424.823 z "/>
<path style="fill:rgb(0, 0, 255);fill-opacity:0;fill-rule:evenodd;stroke:rgb(0, 255, 14);stroke-width:1;" d="M 277.218, 326.364 L 292.212, 235.402 L 437.151, 249.563 L 421.991, 340.358 L 277.218, 326.364 z M 372.845, 277.218 L 406.664, 280.55 L 409.496, 264.223 L 375.51, 260.891 L 372.845, 277.218 z M 366.514, 314.202 L 400.666, 317.534 L 403.332, 301.208 L 369.346, 297.876 L 366.514, 314.202 z M 305.04, 308.372 L 339.192, 311.703 L 342.024, 295.377 L 307.705, 292.045 L 305.04, 308.372 z "/>
<path style="fill:rgb(255, 255, 0);fill-opacity:0;fill-rule:evenodd;stroke:rgb(0, 255, 14);stroke-width:1;" d="M 237.901, 553.769 L 244.898, 510.121 L 248.73, 486.631 L 296.377, 491.129 L 296.876, 487.963 L 308.372, 489.13 L 363.515, 494.294 L 364.515, 494.294 L 365.681, 487.963 L 369.013, 486.131 L 376.843, 486.797 L 379.675, 489.463 L 378.676, 495.627 L 379.675, 495.793 L 384.506, 496.293 L 384.007, 499.292 L 383.84, 500.292 L 392.17, 500.958 L 394.669, 503.457 L 393.836, 509.454 L 390.504, 511.62 L 382.174, 510.954 L 382.007, 511.62 L 380.175, 522.949 L 379.675, 525.781 L 386.506, 526.281 L 384.34, 540.441 L 377.509, 539.775 L 377.01, 542.441 L 375.177, 553.936 L 375.01, 554.769 L 383.34, 555.602 L 385.839, 558.101 L 385.006, 564.098 L 381.674, 566.264 L 373.344, 565.431 L 373.178, 566.264 L 372.678, 569.596 L 367.847, 569.096 L 366.847, 568.93 L 365.681, 575.427 L 362.349, 577.259 L 354.352, 576.426 L 351.687, 573.928 L 352.686, 567.763 L 351.687, 567.597 L 296.543, 562.432 L 285.048, 561.433 L 285.548, 558.267 L 237.901, 553.769 z "/>
<path style="fill:rgb(255, 0, 0);fill-opacity:0;fill-rule:evenodd;stroke:rgb(0, 255, 14);stroke-width:1;" d="M 222.574, 421.824 L 230.737, 373.344 L 231.57, 371.845 L 232.903, 371.012 L 234.736, 370.179 L 237.068, 369.846 L 392.836, 384.673 L 394.835, 385.339 L 396.501, 386.506 L 397.668, 387.838 L 398.334, 389.671 L 390.504, 437.318 L 389.671, 438.984 L 388.005, 440.65 L 385.839, 441.483 L 383.34, 441.816 L 227.239, 426.989 L 225.073, 426.156 L 223.907, 424.823 L 222.907, 423.657 L 222.574, 421.824 z "/>
<path style="fill:rgb(0, 255, 0);fill-opacity:0;fill-rule:evenodd;stroke:rgb(0, 255, 14);stroke-width:1;" d="M 116.951, 188.421 L 119.95, 172.761 L 131.778, 110.287 L 134.111, 97.7926 L 146.772, 98.9588 L 196.751, 103.79 L 209.579, 105.123 L 229.571, 106.955 L 237.068, 107.622 L 233.903, 119.284 L 212.411, 197.418 L 128.113, 189.421 L 116.951, 188.421 z "/>
<path style="fill:rgb(0, 0, 255);fill-opacity:0;fill-rule:evenodd;stroke:rgb(0, 255, 14);stroke-width:1;" d="M 756.018, 493.961 L 758.85, 476.801 L 767.847, 420.491 L 770.512, 404.165 L 794.002, 406.331 L 856.31, 412.328 L 926.614, 418.825 L 925.281, 426.489 L 922.449, 444.148 L 920.117, 458.476 L 846.481, 451.645 L 831.32, 450.146 L 815.993, 448.813 L 813.328, 465.473 L 810.829, 480.966 L 808.163, 497.126 L 807.83, 498.792 L 778.842, 495.96 L 756.018, 493.961 z "/>
<path style="fill:rgb(255, 255, 0);fill-opacity:0;fill-rule:evenodd;stroke:rgb(0, 255, 14);stroke-width:1;" d="M 119.95, 172.761 L 131.778, 110.287 L 144.107, 111.62 L 146.772, 98.9588 L 196.751, 103.79 L 209.579, 105.123 L 209.08, 109.954 L 208.413, 116.118 L 227.239, 118.451 L 233.903, 119.284 L 212.411, 197.418 L 128.113, 189.421 L 131.112, 173.761 L 119.95, 172.761 z "/>
<path style="fill:rgb(255, 0, 0);fill-opacity:0;fill-rule:evenodd;stroke:rgb(0, 255, 14);stroke-width:1;" d="M 119.95, 172.761 L 131.778, 110.287 L 144.107, 111.62 L 146.772, 98.9588 L 196.751, 103.79 L 209.579, 105.123 L 209.08, 109.954 L 208.413, 116.118 L 227.239, 118.451 L 233.903, 119.284 L 212.411, 197.418 L 128.113, 189.421 L 131.112, 173.761 L 119.95, 172.761 z "/>
<path style="fill:rgb(0, 255, 0);fill-opacity:0;fill-rule:evenodd;stroke:rgb(0, 255, 14);stroke-width:1;" d="M 437.318, 586.422 L 451.978, 495.46 L 540.608, 503.79 L 525.948, 594.752 L 437.318, 586.422 z "/>
<path style="fill:rgb(0, 0, 255);fill-opacity:0;fill-rule:evenodd;stroke:rgb(0, 255, 14);stroke-width:1;" d="M 756.018, 493.961 L 758.85, 476.801 L 760.35, 476.968 L 769.513, 420.658 L 767.847, 420.491 L 770.512, 404.165 L 794.002, 406.331 L 793.836, 407.497 L 856.143, 413.328 L 855.144, 419.992 L 854.977, 421.158 L 901.958, 425.656 L 902.124, 424.323 L 925.281, 426.489 L 922.449, 444.148 L 920.117, 458.476 L 846.481, 451.645 L 831.32, 450.146 L 815.993, 448.813 L 813.328, 465.473 L 810.829, 480.966 L 808.163, 497.126 L 779.009, 494.461 L 778.842, 495.96 L 756.018, 493.961 z "/>
<path style="fill:rgb(255, 255, 0);fill-opacity:0;fill-rule:evenodd;stroke:rgb(0, 255, 14);stroke-width:1;" d="M 418.492, 707.039 L 433.153, 616.077 L 527.78, 624.906 L 526.281, 633.403 L 525.781, 636.735 L 524.781, 642.732 L 521.783, 661.058 L 484.298, 657.726 L 481.299, 676.052 L 518.95, 679.55 L 515.952, 697.876 L 514.952, 703.873 L 514.452, 707.372 L 512.953, 715.868 L 418.492, 707.039 z "/>
<path style="fill:rgb(255, 0, 0);fill-opacity:0;fill-rule:evenodd;stroke:rgb(0, 255, 14);stroke-width:1;" d="M 230.237, 418.492 L 236.735, 378.842 L 237.568, 377.509 L 238.567, 376.51 L 240.4, 375.51 L 242.566, 375.01 L 385.673, 388.505 L 387.505, 389.005 L 389.171, 390.171 L 390.671, 392.003 L 391.004, 393.836 L 384.34, 432.653 L 383.84, 433.986 L 382.674, 435.818 L 380.508, 436.985 L 377.676, 437.318 L 235.735, 423.49 L 233.403, 422.824 L 231.903, 421.824 L 231.07, 420.491 L 230.237, 418.492 z "/>
<path style="fill:rgb(0, 255, 0);fill-opacity:0;fill-rule:evenodd;stroke:rgb(0, 255, 14);stroke-width:1;" d="M 640.067, 359.85 L 640.4, 358.517 L 654.227, 272.22 L 654.561, 270.054 L 703.873, 274.719 L 728.363, 276.885 L 725.198, 296.21 L 716.868, 348.355 L 713.869, 366.681 L 689.379, 364.515 L 640.067, 359.85 z "/>
<path style="fill:rgb(0, 0, 255);fill-opacity:0;fill-rule:evenodd;stroke:rgb(0, 255, 14);stroke-width:1;" d="M 418.492, 707.039 L 433.153, 616.077 L 527.78, 624.906 L 526.281, 633.403 L 525.781, 636.735 L 524.781, 642.732 L 521.783, 661.058 L 484.298, 657.726 L 485.131, 652.062 L 486.297, 644.565 L 456.81, 641.899 L 454.81, 654.894 L 451.812, 673.386 L 449.646, 686.547 L 479.134, 689.379 L 481.299, 676.052 L 518.95, 679.55 L 515.952, 697.876 L 514.952, 703.873 L 514.452, 707.372 L 512.953, 715.868 L 418.492, 707.039 z "/>
<path style="fill:rgb(255, 255, 0);fill-opacity:0;fill-rule:evenodd;stroke:rgb(0, 255, 14);stroke-width:1;" d="M 640.4, 358.517 L 654.227, 272.22 L 703.54, 276.718 L 703.873, 274.719 L 728.363, 276.885 L 725.198, 296.21 L 723.032, 296.043 L 714.702, 348.188 L 716.868, 348.355 L 713.869, 366.681 L 689.379, 364.515 L 689.546, 363.015 L 640.4, 358.517 z "/>
<path style="fill:rgb(255, 0, 0);fill-opacity:0;fill-rule:evenodd;stroke:rgb(0, 255, 14);stroke-width:1;" d="M 718.034, 735.194 L 731.695, 645.231 L 789.338, 650.396 L 786.672, 668.555 L 783.507, 688.546 L 780.008, 688.213 L 779.009, 695.21 L 794.835, 696.543 L 793.503, 705.706 L 796.501, 706.039 L 797.834, 697.209 L 803.499, 697.709 L 799.5, 724.365 L 796.835, 742.191 L 718.034, 735.194 z "/>
<path style="fill:rgb(0, 255, 0);fill-opacity:0;fill-rule:evenodd;stroke:rgb(0, 255, 14);stroke-width:1;" d="M 525.948, 594.752 L 540.608, 503.79 L 600.416, 509.288 L 600.083, 511.287 L 592.92, 555.768 L 594.252, 555.935 L 587.089, 600.416 L 525.948, 594.752 z "/>
<path style="fill:rgb(0, 0, 255);fill-opacity:0;fill-rule:evenodd;stroke:rgb(0, 255, 14);stroke-width:1;" d="M 381.674, 214.411 L 393.669, 138.609 L 389.504, 138.109 L 390.337, 132.611 L 394.502, 132.945 L 396.002, 123.282 L 455.31, 128.78 L 440.983, 219.908 L 381.674, 214.411 z "/>
<path style="fill:rgb(255, 255, 0);fill-opacity:0;fill-rule:evenodd;stroke:rgb(0, 255, 14);stroke-width:1;" d="M 736.36, 615.244 L 750.021, 523.948 L 807.164, 528.946 L 803.499, 553.436 L 796.335, 601.416 L 793.503, 620.075 L 736.36, 615.244 z "/>
<path style="fill:rgb(255, 0, 0);fill-opacity:0;fill-rule:evenodd;stroke:rgb(0, 255, 14);stroke-width:1;" d="M 244.731, 690.379 L 250.396, 655.56 L 264.89, 656.893 L 265.889, 650.729 L 310.704, 655.06 L 311.537, 650.229 L 371.512, 655.893 L 364.015, 701.708 L 244.731, 690.379 z "/>
<path style="fill:rgb(0, 255, 0);fill-opacity:0;fill-rule:evenodd;stroke:rgb(0, 255, 14);stroke-width:1;" d="M 219.075, 320.7 L 243.232, 230.737 L 292.212, 235.402 L 277.218, 326.364 L 219.075, 320.7 z "/>
<path style="fill:rgb(0, 0, 255);fill-opacity:0;fill-rule:evenodd;stroke:rgb(0, 255, 14);stroke-width:1;" d="M 550.771, 351.687 L 557.934, 307.039 L 562.099, 307.372 L 564.431, 293.878 L 560.1, 293.378 L 565.098, 261.891 L 584.59, 263.723 L 580.925, 286.547 L 630.571, 291.212 L 634.236, 268.222 L 654.561, 270.054 L 654.227, 272.22 L 640.4, 358.517 L 640.067, 359.85 L 619.742, 358.017 L 626.239, 317.701 L 620.408, 317.201 L 576.26, 313.036 L 569.763, 353.353 L 550.771, 351.687 z "/>
<path style="fill:rgb(255, 255, 0);fill-opacity:0;fill-rule:evenodd;stroke:rgb(0, 255, 14);stroke-width:1;" d="M 451.479, 578.092 L 463.14, 506.289 L 526.281, 512.287 L 514.786, 583.923 L 451.479, 578.092 z "/>
<path style="fill:rgb(255, 0, 0);fill-opacity:0;fill-rule:evenodd;stroke:rgb(0, 255, 14);stroke-width:1;" d="M 77.4677, 387.005 L 82.9654, 358.017 L 94.7938, 359.184 L 103.623, 339.359 L 155.768, 344.523 L 156.601, 366.347 L 168.263, 367.514 L 163.432, 396.168 L 77.4677, 387.005 z "/>
<path style="fill:rgb(0, 255, 0);fill-opacity:0;fill-rule:evenodd;stroke:rgb(0, 255, 14);stroke-width:1;" d="M 102.291, 263.057 L 110.454, 218.409 L 203.748, 228.238 L 195.085, 260.725 L 148.938, 255.893 L 146.772, 267.722 L 102.291, 263.057 z "/>
<path style="fill:rgb(0, 0, 255);fill-opacity:0;fill-rule:evenodd;stroke:rgb(0, 255, 14);stroke-width:1;" d="M 261.558, 167.93 L 264.556, 156.268 L 276.052, 112.12 L 321.2, 116.285 L 335.86, 117.618 L 334.194, 128.113 L 328.696, 162.599 L 326.864, 174.094 L 303.873, 171.928 L 276.718, 169.429 L 261.558, 167.93 z "/>
<path style="fill:rgb(255, 255, 0);fill-opacity:0;fill-rule:evenodd;stroke:rgb(0, 255, 14);stroke-width:1;" d="M 587.089, 600.416 L 594.252, 555.935 L 622.407, 558.434 L 638.234, 559.933 L 636.401, 571.095 L 645.231, 571.928 L 648.563, 572.262 L 654.061, 572.761 L 666.222, 573.928 L 673.719, 574.594 L 680.716, 575.26 L 675.385, 608.58 L 587.089, 600.416 z "/>
<path style="fill:rgb(255, 0, 0);fill-opacity:0;fill-rule:evenodd;stroke:rgb(0, 255, 14);stroke-width:1;" d="M 592.92, 555.768 L 600.083, 511.287 L 606.414, 511.787 L 606.747, 509.954 L 690.046, 517.618 L 684.548, 551.77 L 677.551, 551.104 L 673.219, 550.771 L 654.394, 548.938 L 642.566, 547.772 L 624.406, 546.106 L 623.407, 552.77 L 622.407, 558.434 L 594.252, 555.935 L 592.92, 555.768 z "/>
<path style="fill:rgb(0, 255, 0);fill-opacity:0;fill-rule:evenodd;stroke:rgb(0, 255, 14);stroke-width:1;" d="M 582.591, 722.366 L 589.921, 677.051 L 619.575, 679.883 L 664.223, 684.048 L 656.893, 729.363 L 582.591, 722.366 z "/>
<path style="fill:rgb(0, 0, 255);fill-opacity:0;fill-rule:evenodd;stroke:rgb(0, 255, 14);stroke-width:1;" d="M 176.426, 559.933 L 185.423, 504.623 L 244.898, 510.121 L 237.901, 553.769 L 237.401, 556.935 L 235.902, 565.431 L 176.426, 559.933 z "/>
<path style="fill:rgb(255, 255, 0);fill-opacity:0;fill-rule:evenodd;stroke:rgb(0, 255, 14);stroke-width:1;" d="M 446.314, 691.545 L 447.98, 680.883 L 449.313, 673.219 L 452.145, 654.727 L 453.478, 647.064 L 455.144, 636.401 L 524.781, 642.732 L 521.783, 661.058 L 484.298, 657.726 L 481.299, 676.052 L 518.95, 679.55 L 515.952, 697.876 L 446.314, 691.545 z "/>
<path style="fill:rgb(255, 0, 0);fill-opacity:0;fill-rule:evenodd;stroke:rgb(0, 255, 14);stroke-width:1;" d="M 600.083, 550.604 L 606.414, 511.787 L 606.747, 509.954 L 690.046, 517.618 L 684.548, 551.77 L 677.551, 551.104 L 673.219, 550.771 L 654.394, 548.938 L 642.566, 547.772 L 624.406, 546.106 L 623.407, 552.77 L 600.083, 550.604 z "/>
<path style="fill:rgb(0, 255, 0);fill-opacity:0;fill-rule:evenodd;stroke:rgb(0, 255, 14);stroke-width:1;" d="M 956.102, 754.852 L 958.434, 740.691 L 961.599, 741.025 L 963.265, 731.195 L 971.262, 731.862 L 978.759, 713.369 L 965.431, 712.203 L 969.763, 685.048 L 956.268, 683.715 L 958.767, 668.721 L 960.267, 667.055 L 1013.41, 671.887 L 1015.08, 673.719 L 1006.75, 694.211 L 981.258, 757.185 L 978.259, 758.351 L 957.434, 756.518 L 956.102, 754.852 z "/>
<path style="fill:rgb(0, 0, 255);fill-opacity:0;fill-rule:evenodd;stroke:rgb(0, 255, 14);stroke-width:1;" d="M 294.044, 290.712 L 300.208, 253.728 L 326.697, 256.227 L 323.865, 272.553 L 345.356, 274.719 L 372.845, 277.218 L 406.664, 280.55 L 416.993, 281.549 L 413.661, 302.207 L 403.332, 301.208 L 369.346, 297.876 L 342.024, 295.377 L 307.705, 292.045 L 294.044, 290.712 z "/>
<path style="fill:rgb(255, 255, 0);fill-opacity:0;fill-rule:evenodd;stroke:rgb(0, 255, 14);stroke-width:1;" d="M 311.537, 650.229 L 312.703, 643.399 L 319.034, 604.581 L 379.009, 610.246 L 371.512, 655.893 L 311.537, 650.229 z "/>
<path style="fill:rgb(255, 0, 0);fill-opacity:0;fill-rule:evenodd;stroke:rgb(0, 255, 14);stroke-width:1;" d="M 854.144, 323.532 L 892.295, 311.37 L 897.459, 320.367 L 904.79, 333.361 L 909.288, 341.524 L 904.456, 342.691 L 903.124, 340.525 L 893.794, 343.524 L 898.459, 352.187 L 900.958, 352.187 L 899.958, 362.349 L 918.117, 363.349 L 914.286, 386.506 L 869.138, 382.174 L 871.803, 352.853 L 864.973, 339.858 L 854.144, 323.532 z "/>
<path style="fill:rgb(0, 255, 0);fill-opacity:0;fill-rule:evenodd;stroke:rgb(0, 255, 14);stroke-width:1;" d="M 159.267, 658.892 L 166.764, 613.244 L 167.097, 613.244 L 209.913, 617.243 L 223.74, 618.576 L 216.243, 664.39 L 159.267, 658.892 z "/>
<path style="fill:rgb(0, 0, 255);fill-opacity:0;fill-rule:evenodd;stroke:rgb(0, 255, 14);stroke-width:1;" d="M 788.671, 282.049 L 791.004, 270.387 L 804.165, 271.887 L 809.496, 244.565 L 827.322, 238.567 L 832.986, 248.397 L 841.983, 263.557 L 856.476, 258.559 L 862.807, 269.388 L 870.304, 282.216 L 853.978, 287.38 L 823.823, 297.709 L 819.658, 290.379 L 819.159, 289.546 L 788.671, 282.049 z "/>
<path style="fill:rgb(255, 255, 0);fill-opacity:0;fill-rule:evenodd;stroke:rgb(0, 255, 14);stroke-width:1;" d="M 690.212, 242.899 L 698.042, 195.585 L 709.038, 196.585 L 709.871, 190.92 L 716.701, 191.587 L 718.034, 191.753 L 717.201, 197.418 L 728.363, 198.417 L 729.863, 189.754 L 761.849, 190.421 L 738.526, 231.737 L 697.543, 243.565 L 690.212, 242.899 z "/>
<path style="fill:rgb(255, 0, 0);fill-opacity:0;fill-rule:evenodd;stroke:rgb(0, 255, 14);stroke-width:1;" d="M 428.155, 699.375 L 428.655, 696.043 L 432.653, 671.72 L 437.151, 672.053 L 449.313, 673.219 L 451.812, 673.386 L 481.299, 676.052 L 518.95, 679.55 L 515.952, 697.876 L 514.952, 703.873 L 514.452, 707.372 L 428.155, 699.375 z "/>
<path style="fill:rgb(0, 255, 0);fill-opacity:0;fill-rule:evenodd;stroke:rgb(0, 255, 14);stroke-width:1;" d="M 435.652, 653.228 L 439.484, 628.905 L 439.983, 625.406 L 526.281, 633.403 L 525.781, 636.735 L 524.781, 642.732 L 521.783, 661.058 L 484.298, 657.726 L 454.81, 654.894 L 452.145, 654.727 L 440.15, 653.561 L 435.652, 653.228 z "/>
<path style="fill:rgb(0, 0, 255);fill-opacity:0;fill-rule:evenodd;stroke:rgb(0, 255, 14);stroke-width:1;" d="M 63.4736, 459.642 L 77.4677, 387.005 L 163.432, 396.168 L 151.104, 469.971 L 135.277, 468.138 L 139.275, 463.807 L 142.274, 457.976 L 149.771, 406.164 L 85.631, 399 L 76.1349, 450.146 L 76.4681, 456.31 L 78.4673, 461.474 L 63.4736, 459.642 z "/>
<path style="fill:rgb(255, 255, 0);fill-opacity:0;fill-rule:evenodd;stroke:rgb(0, 255, 14);stroke-width:1;" d="M 252.561, 202.416 L 261.558, 167.93 L 276.718, 169.429 L 303.873, 171.928 L 302.874, 177.926 L 325.864, 180.092 L 321.2, 208.746 L 252.561, 202.416 z "/>
<path style="fill:rgb(255, 0, 0);fill-opacity:0;fill-rule:evenodd;stroke:rgb(0, 255, 14);stroke-width:1;" d="M 428.655, 696.043 L 432.653, 671.72 L 437.151, 672.053 L 449.313, 673.219 L 451.812, 673.386 L 481.299, 676.052 L 518.95, 679.55 L 515.952, 697.876 L 514.952, 703.873 L 428.655, 696.043 z "/>
<path style="fill:rgb(0, 255, 0);fill-opacity:0;fill-rule:evenodd;stroke:rgb(0, 255, 14);stroke-width:1;" d="M 435.652, 653.228 L 439.484, 628.905 L 525.781, 636.735 L 524.781, 642.732 L 521.783, 661.058 L 484.298, 657.726 L 454.81, 654.894 L 452.145, 654.727 L 440.15, 653.561 L 435.652, 653.228 z "/>
<path style="fill:rgb(0, 0, 255);fill-opacity:0;fill-rule:evenodd;stroke:rgb(0, 255, 14);stroke-width:1;" d="M 915.952, 508.955 L 918.284, 494.127 L 930.779, 495.294 L 932.278, 486.131 L 919.783, 484.965 L 922.282, 469.804 L 934.611, 470.97 L 935.777, 473.136 L 938.276, 471.304 L 959.767, 473.469 L 961.766, 475.135 L 963.932, 473.803 L 975.927, 474.969 L 973.594, 489.963 L 961.1, 488.796 L 959.6, 498.126 L 972.262, 499.292 L 971.928, 500.791 L 989.754, 502.457 L 989.254, 505.956 L 987.589, 515.618 L 915.952, 508.955 z "/>
<path style="fill:rgb(255, 255, 0);fill-opacity:0;fill-rule:evenodd;stroke:rgb(0, 255, 14);stroke-width:1;" d="M 619.575, 679.883 L 624.74, 647.73 L 626.905, 634.402 L 671.554, 638.567 L 664.223, 684.048 L 619.575, 679.883 z "/>
<path style="fill:rgb(255, 0, 0);fill-opacity:0;fill-rule:evenodd;stroke:rgb(0, 255, 14);stroke-width:1;" d="M 328.696, 162.599 L 334.194, 128.113 L 335.86, 117.618 L 371.012, 120.95 L 380.675, 121.783 L 378.842, 133.278 L 373.511, 166.764 L 358.351, 165.431 L 348.521, 164.431 L 328.696, 162.599 z "/>
<path style="fill:rgb(0, 255, 0);fill-opacity:0;fill-rule:evenodd;stroke:rgb(0, 255, 14);stroke-width:1;" d="M 801.333, 665.889 L 803.499, 651.562 L 860.142, 656.56 L 858.476, 667.888 L 856.476, 667.722 L 855.977, 671.054 L 852.645, 670.887 L 848.98, 694.211 L 801.333, 690.046 L 804.998, 666.222 L 801.333, 665.889 z "/>
<path style="fill:rgb(0, 0, 255);fill-opacity:0;fill-rule:evenodd;stroke:rgb(0, 255, 14);stroke-width:1;" d="M 853.644, 694.377 L 855.31, 683.549 L 859.975, 683.882 L 860.641, 680.05 L 863.807, 680.383 L 865.639, 668.555 L 858.476, 667.888 L 860.142, 656.56 L 918.451, 661.724 L 916.785, 673.386 L 909.121, 672.72 L 907.289, 684.548 L 910.287, 684.881 L 909.788, 688.713 L 913.786, 689.046 L 912.287, 699.542 L 853.644, 694.377 z M 877.801, 684.048 L 892.128, 685.214 L 893.961, 672.387 L 879.633, 671.054 L 878.467, 678.884 L 877.801, 684.048 z "/>
<path style="fill:rgb(255, 255, 0);fill-opacity:0;fill-rule:evenodd;stroke:rgb(0, 255, 14);stroke-width:1;" d="M 145.273, 740.525 L 150.104, 710.704 L 210.579, 716.535 L 206.914, 739.192 L 205.581, 746.356 L 145.273, 740.525 z "/>
<path style="fill:rgb(255, 0, 0);fill-opacity:0;fill-rule:evenodd;stroke:rgb(0, 255, 14);stroke-width:1;" d="M 101.791, 266.222 L 102.291, 263.057 L 146.772, 267.722 L 148.938, 255.893 L 195.085, 260.725 L 191.42, 274.052 L 181.924, 285.714 L 102.124, 278.217 L 101.791, 266.222 z "/>
<path style="fill:rgb(0, 255, 0);fill-opacity:0;fill-rule:evenodd;stroke:rgb(0, 255, 14);stroke-width:1;" d="M 277.884, 532.611 L 280.716, 514.119 L 319.2, 517.618 L 319.367, 516.451 L 368.68, 521.116 L 365.181, 542.441 L 315.868, 537.943 L 316.202, 536.11 L 277.884, 532.611 z "/>
<path style="fill:rgb(0, 0, 255);fill-opacity:0;fill-rule:evenodd;stroke:rgb(0, 255, 14);stroke-width:1;" d="M 718.201, 189.421 L 726.864, 146.272 L 751.687, 138.276 L 753.353, 147.772 L 755.852, 161.433 L 759.35, 180.758 L 769.013, 177.593 L 761.849, 190.421 L 729.863, 189.754 L 718.201, 189.421 z "/>
<path style="fill:rgb(255, 255, 0);fill-opacity:0;fill-rule:evenodd;stroke:rgb(0, 255, 14);stroke-width:1;" d="M 936.776, 388.671 L 939.775, 370.346 L 946.272, 370.845 L 950.437, 346.189 L 966.431, 347.855 L 967.597, 341.524 L 981.924, 343.024 L 980.425, 352.353 L 973.761, 392.337 L 936.776, 388.671 z "/>
<path style="fill:rgb(255, 0, 0);fill-opacity:0;fill-rule:evenodd;stroke:rgb(0, 255, 14);stroke-width:1;" d="M 513.786, 429.488 L 515.618, 418.492 L 543.107, 421.158 L 624.906, 428.988 L 652.395, 431.653 L 650.729, 442.482 L 623.074, 439.817 L 541.274, 431.987 L 513.786, 429.488 z "/>
<path style="fill:rgb(0, 255, 0);fill-opacity:0;fill-rule:evenodd;stroke:rgb(0, 255, 14);stroke-width:1;" d="M 816.993, 335.194 L 844.815, 326.364 L 854.144, 343.357 L 858.476, 352.187 L 857.143, 366.514 L 855.643, 366.514 L 854.311, 380.675 L 824.823, 377.843 L 827.322, 360.017 L 827.988, 355.352 L 816.993, 335.194 z "/>
<path style="fill:rgb(0, 0, 255);fill-opacity:0;fill-rule:evenodd;stroke:rgb(0, 255, 14);stroke-width:1;" d="M 237.901, 638.567 L 244.731, 597.085 L 274.219, 599.917 L 269.221, 629.571 L 265.889, 650.729 L 264.89, 656.893 L 250.396, 655.56 L 249.396, 655.394 L 250.396, 649.396 L 251.895, 639.9 L 237.901, 638.567 z "/>
<path style="fill:rgb(255, 255, 0);fill-opacity:0;fill-rule:evenodd;stroke:rgb(0, 255, 14);stroke-width:1;" d="M 339.192, 311.703 L 342.024, 295.377 L 345.356, 274.719 L 348.188, 258.226 L 375.51, 260.891 L 372.845, 277.218 L 369.346, 297.876 L 366.514, 314.202 L 339.192, 311.703 z "/>
<path style="fill:rgb(255, 0, 0);fill-opacity:0;fill-rule:evenodd;stroke:rgb(0, 255, 14);stroke-width:1;" d="M 281.383, 414.327 L 284.548, 393.003 L 300.708, 394.336 L 301.208, 391.337 L 328.03, 393.669 L 327.53, 396.668 L 342.357, 398.001 L 339.025, 419.492 L 323.865, 418.159 L 323.365, 420.825 L 296.71, 418.492 L 297.209, 415.66 L 281.383, 414.327 z "/>
<path style="fill:rgb(0, 255, 0);fill-opacity:0;fill-rule:evenodd;stroke:rgb(0, 255, 14);stroke-width:1;" d="M 552.436, 719.7 L 559.767, 674.219 L 589.921, 677.051 L 582.591, 722.366 L 552.436, 719.7 z "/>
<path style="fill:rgb(0, 0, 255);fill-opacity:0;fill-rule:evenodd;stroke:rgb(0, 255, 14);stroke-width:1;" d="M 449.646, 686.547 L 451.812, 673.386 L 454.81, 654.894 L 456.81, 641.899 L 486.297, 644.565 L 485.131, 652.062 L 484.298, 657.726 L 481.299, 676.052 L 479.134, 689.379 L 449.646, 686.547 z "/>
<path style="fill:rgb(255, 255, 0);fill-opacity:0;fill-rule:evenodd;stroke:rgb(0, 255, 14);stroke-width:1;" d="M 321.2, 208.746 L 325.864, 180.092 L 326.864, 174.094 L 328.696, 162.599 L 348.521, 164.431 L 347.522, 170.429 L 357.518, 171.429 L 351.02, 211.412 L 321.2, 208.746 z "/>
<path style="fill:rgb(255, 0, 0);fill-opacity:0;fill-rule:evenodd;stroke:rgb(0, 255, 14);stroke-width:1;" d="M 351.02, 211.412 L 357.518, 171.429 L 358.351, 165.431 L 373.511, 166.764 L 385.173, 167.93 L 377.843, 213.911 L 351.02, 211.412 z "/>
<path style="fill:rgb(0, 255, 0);fill-opacity:0;fill-rule:evenodd;stroke:rgb(0, 255, 14);stroke-width:1;" d="M 215.577, 687.547 L 217.409, 676.218 L 219.242, 664.556 L 222.241, 646.731 L 250.396, 649.396 L 249.396, 655.394 L 250.396, 655.56 L 244.731, 690.379 L 215.577, 687.547 z "/>
<path style="fill:rgb(0, 0, 255);fill-opacity:0;fill-rule:evenodd;stroke:rgb(0, 255, 14);stroke-width:1;" d="M 830.154, 554.102 L 833.153, 534.111 L 877.468, 537.943 L 874.969, 554.269 L 874.469, 558.267 L 864.973, 557.434 L 863.307, 568.43 L 837.984, 566.264 L 839.65, 554.935 L 830.154, 554.102 z "/>
<path style="fill:rgb(255, 255, 0);fill-opacity:0;fill-rule:evenodd;stroke:rgb(0, 255, 14);stroke-width:1;" d="M 882.299, 505.456 L 883.465, 497.626 L 885.298, 496.293 L 886.631, 486.797 L 889.629, 486.964 L 890.462, 481.133 L 887.63, 480.966 L 888.463, 475.469 L 887.963, 473.469 L 889.13, 465.806 L 919.117, 468.471 L 917.951, 476.968 L 916.118, 477.968 L 915.285, 483.632 L 912.786, 483.465 L 911.953, 489.296 L 913.786, 489.463 L 912.287, 498.792 L 913.619, 500.791 L 912.453, 508.122 L 882.299, 505.456 z M 897.459, 497.793 L 898.792, 499.125 L 900.292, 497.959 L 900.791, 494.461 L 899.459, 494.294 L 897.959, 494.127 L 897.459, 497.793 z M 900.292, 482.132 L 903.124, 482.299 L 903.957, 476.635 L 902.957, 475.469 L 901.125, 476.468 L 900.292, 482.132 z "/>
<path style="fill:rgb(255, 0, 0);fill-opacity:0;fill-rule:evenodd;stroke:rgb(0, 255, 14);stroke-width:1;" d="M 167.097, 613.244 L 170.929, 590.087 L 215.743, 594.252 L 213.744, 606.581 L 211.579, 606.414 L 209.913, 617.243 L 167.097, 613.244 z "/>
<path style="fill:rgb(0, 255, 0);fill-opacity:0;fill-rule:evenodd;stroke:rgb(0, 255, 14);stroke-width:1;" d="M 751.687, 138.276 L 778.342, 129.779 L 787.005, 145.106 L 769.013, 177.593 L 759.35, 180.758 L 755.852, 161.433 L 761.683, 160.766 L 764.015, 157.601 L 762.682, 149.771 L 758.017, 147.272 L 753.353, 147.772 L 751.687, 138.276 z "/>
<path style="fill:rgb(0, 0, 255);fill-opacity:0;fill-rule:evenodd;stroke:rgb(0, 255, 14);stroke-width:1;" d="M 589.921, 677.051 L 595.085, 644.898 L 624.74, 647.73 L 619.575, 679.883 L 589.921, 677.051 z "/>
<path style="fill:rgb(255, 255, 0);fill-opacity:0;fill-rule:evenodd;stroke:rgb(0, 255, 14);stroke-width:1;" d="M 857.809, 150.104 L 867.139, 146.939 L 882.466, 173.928 L 891.129, 171.095 L 889.463, 167.93 L 888.463, 168.263 L 874.969, 144.44 L 884.965, 141.108 L 887.963, 146.439 L 905.956, 178.092 L 878.8, 186.922 L 859.808, 153.603 L 857.809, 150.104 z "/>
<path style="fill:rgb(255, 0, 0);fill-opacity:0;fill-rule:evenodd;stroke:rgb(0, 255, 14);stroke-width:1;" d="M 890.462, 248.896 L 911.287, 241.899 L 933.278, 279.217 L 912.453, 286.214 L 911.953, 285.548 L 903.124, 270.554 L 890.462, 248.896 z "/>
<path style="fill:rgb(0, 255, 0);fill-opacity:0;fill-rule:evenodd;stroke:rgb(0, 255, 14);stroke-width:1;" d="M 212.245, 616.576 L 213.411, 608.913 L 215.244, 609.08 L 217.743, 594.419 L 244.731, 597.085 L 237.901, 638.567 L 237.568, 640.566 L 223.24, 639.234 L 226.739, 617.909 L 212.245, 616.576 z "/>
<path style="fill:rgb(0, 0, 255);fill-opacity:0;fill-rule:evenodd;stroke:rgb(0, 255, 14);stroke-width:1;" d="M 927.613, 207.913 L 964.431, 195.419 L 978.592, 219.575 L 965.598, 224.073 L 959.1, 212.911 L 949.271, 216.243 L 952.436, 221.741 L 948.938, 222.907 L 951.77, 227.905 L 944.606, 230.404 L 942.274, 226.406 L 938.942, 227.572 L 927.613, 207.913 z "/>
<path style="fill:rgb(255, 255, 0);fill-opacity:0;fill-rule:evenodd;stroke:rgb(0, 255, 14);stroke-width:1;" d="M 548.105, 392.836 L 549.771, 382.341 L 632.403, 390.171 L 630.571, 400.666 L 548.105, 392.836 z "/>
<path style="fill:rgb(255, 0, 0);fill-opacity:0;fill-rule:evenodd;stroke:rgb(0, 255, 14);stroke-width:1;" d="M 534.777, 473.469 L 536.61, 462.974 L 619.075, 470.804 L 617.409, 481.299 L 534.777, 473.469 z "/>
<path style="fill:rgb(0, 255, 0);fill-opacity:0;fill-rule:evenodd;stroke:rgb(0, 255, 14);stroke-width:1;" d="M 944.44, 253.394 L 946.439, 252.728 L 957.934, 248.896 L 961.433, 254.894 L 963.932, 255.56 L 979.259, 250.396 L 979.758, 248.397 L 976.426, 242.732 L 989.421, 238.234 L 1000.58, 257.393 L 955.602, 272.553 L 944.44, 253.394 z "/>
<path style="fill:rgb(0, 0, 255);fill-opacity:0;fill-rule:evenodd;stroke:rgb(0, 255, 14);stroke-width:1;" d="M 914.286, 386.506 L 918.117, 363.349 L 920.616, 348.521 L 943.107, 350.687 L 939.775, 370.346 L 936.776, 388.671 L 914.286, 386.506 z "/>
<path style="fill:rgb(255, 255, 0);fill-opacity:0;fill-rule:evenodd;stroke:rgb(0, 255, 14);stroke-width:1;" d="M 937.11, 236.735 L 963.099, 227.905 L 964.265, 230.071 L 968.263, 228.738 L 965.598, 224.073 L 978.592, 219.575 L 989.421, 238.234 L 976.426, 242.732 L 973.428, 237.568 L 956.102, 243.399 L 959.1, 248.563 L 957.934, 248.896 L 946.439, 252.728 L 937.11, 236.735 z "/>
<path style="fill:rgb(255, 0, 0);fill-opacity:0;fill-rule:evenodd;stroke:rgb(0, 255, 14);stroke-width:1;" d="M 911.287, 241.899 L 925.781, 236.901 L 928.946, 242.066 L 930.945, 241.399 L 949.771, 273.553 L 933.278, 279.217 L 911.287, 241.899 z "/>
<path style="fill:rgb(0, 255, 0);fill-opacity:0;fill-rule:evenodd;stroke:rgb(0, 255, 14);stroke-width:1;" d="M 641.399, 554.102 L 642.566, 547.772 L 654.394, 548.938 L 673.219, 550.771 L 677.551, 551.104 L 675.718, 562.932 L 673.719, 574.594 L 666.222, 573.928 L 654.061, 572.761 L 648.563, 572.262 L 650.562, 560.766 L 641.399, 559.933 L 642.399, 554.269 L 641.399, 554.102 z "/>
<path style="fill:rgb(0, 0, 255);fill-opacity:0;fill-rule:evenodd;stroke:rgb(0, 255, 14);stroke-width:1;" d="M 925.614, 300.875 L 942.107, 295.71 L 947.605, 305.539 L 949.105, 308.205 L 953.936, 317.201 L 961.1, 330.029 L 962.266, 332.528 L 945.773, 337.693 L 942.774, 332.195 L 937.943, 323.199 L 930.779, 310.204 L 925.614, 300.875 z "/>
<path style="fill:rgb(255, 255, 0);fill-opacity:0;fill-rule:evenodd;stroke:rgb(0, 255, 14);stroke-width:1;" d="M 157.268, 670.554 L 159.267, 658.892 L 216.243, 664.39 L 219.242, 664.556 L 217.409, 676.218 L 157.268, 670.554 z "/>
<path style="fill:rgb(255, 0, 0);fill-opacity:0;fill-rule:evenodd;stroke:rgb(0, 255, 14);stroke-width:1;" d="M 155.435, 681.883 L 157.268, 670.554 L 217.409, 676.218 L 215.577, 687.547 L 155.435, 681.883 z "/>
<path style="fill:rgb(0, 255, 0);fill-opacity:0;fill-rule:evenodd;stroke:rgb(0, 255, 14);stroke-width:1;" d="M 889.463, 750.354 L 891.628, 736.526 L 892.795, 728.363 L 896.293, 706.206 L 911.454, 707.539 L 909.788, 717.368 L 904.623, 751.687 L 889.463, 750.354 z "/>
<path style="fill:rgb(0, 0, 255);fill-opacity:0;fill-rule:evenodd;stroke:rgb(0, 255, 14);stroke-width:1;" d="M 206.914, 739.192 L 210.579, 716.535 L 239.733, 719.367 L 239.4, 721.2 L 236.068, 742.024 L 206.914, 739.192 z "/>
<path style="fill:rgb(255, 255, 0);fill-opacity:0;fill-rule:evenodd;stroke:rgb(0, 255, 14);stroke-width:1;" d="M 883.798, 121.449 L 895.96, 117.451 L 896.127, 117.284 L 897.626, 117.618 L 902.291, 115.952 L 903.124, 115.119 L 905.956, 114.119 L 916.951, 110.454 L 926.281, 126.947 L 917.951, 129.613 L 912.453, 131.445 L 910.787, 130.945 L 906.122, 132.445 L 905.456, 133.778 L 904.123, 134.111 L 893.128, 137.776 L 889.963, 132.112 L 887.297, 132.945 L 884.465, 128.113 L 887.13, 127.114 L 883.798, 121.449 z "/>
<path style="fill:rgb(255, 0, 0);fill-opacity:0;fill-rule:evenodd;stroke:rgb(0, 255, 14);stroke-width:1;" d="M 853.978, 229.404 L 881.633, 220.075 L 881.966, 220.408 L 894.127, 241.399 L 896.626, 245.731 L 888.796, 248.397 L 884.798, 241.733 L 886.464, 241.233 L 883.465, 236.068 L 875.968, 238.567 L 876.801, 240.067 L 873.803, 241.066 L 876.468, 245.564 L 868.805, 248.23 L 865.973, 243.565 L 862.974, 244.565 L 859.309, 238.567 L 853.978, 229.404 z "/>
<path style="fill:rgb(0, 255, 0);fill-opacity:0;fill-rule:evenodd;stroke:rgb(0, 255, 14);stroke-width:1;" d="M 942.107, 295.71 L 955.768, 291.379 L 960.267, 299.542 L 961.1, 301.208 L 957.934, 302.207 L 959.434, 305.206 L 962.766, 304.207 L 963.099, 304.873 L 966.597, 311.204 L 967.43, 312.703 L 964.265, 313.703 L 966.097, 317.201 L 970.929, 315.702 L 979.259, 330.862 L 964.098, 335.527 L 962.266, 332.528 L 961.1, 330.029 L 962.266, 329.696 L 957.434, 321.033 L 959.933, 320.2 L 957.601, 316.035 L 953.936, 317.201 L 949.105, 308.205 L 951.603, 307.372 L 950.271, 304.706 L 947.605, 305.539 L 942.107, 295.71 z "/>
<path style="fill:rgb(0, 0, 255);fill-opacity:0;fill-rule:evenodd;stroke:rgb(0, 255, 14);stroke-width:1;" d="M 797.834, 285.548 L 819.658, 290.379 L 823.823, 297.709 L 830.987, 310.371 L 810.162, 317.201 L 805.331, 308.871 L 799.667, 299.042 L 798.334, 289.546 L 797.834, 285.548 z M 808.163, 301.708 L 810.329, 305.706 L 811.662, 306.206 L 812.495, 304.873 L 810.162, 300.875 L 808.163, 301.708 z "/>
<path style="fill:rgb(255, 255, 0);fill-opacity:0;fill-rule:evenodd;stroke:rgb(0, 255, 14);stroke-width:1;" d="M 955.768, 291.379 L 969.263, 287.047 L 973.761, 295.21 L 973.761, 296.876 L 975.927, 300.708 L 977.259, 300.375 L 980.758, 306.706 L 977.426, 307.872 L 980.258, 313.036 L 982.591, 312.203 L 987.255, 320.866 L 989.088, 321.2 L 992.753, 328.03 L 979.925, 332.028 L 979.259, 330.862 L 970.929, 315.702 L 972.428, 315.035 L 969.763, 310.037 L 966.597, 311.204 L 963.099, 304.873 L 965.264, 304.207 L 963.265, 300.541 L 960.267, 299.542 L 955.768, 291.379 z "/>
<path style="fill:rgb(255, 0, 0);fill-opacity:0;fill-rule:evenodd;stroke:rgb(0, 255, 14);stroke-width:1;" d="M 892.295, 311.37 L 909.788, 305.873 L 914.619, 314.869 L 912.953, 316.368 L 919.783, 328.696 L 922.449, 327.863 L 927.78, 337.359 L 928.28, 338.192 L 921.116, 340.358 L 909.288, 341.524 L 904.79, 333.361 L 909.288, 331.695 L 908.455, 330.029 L 905.789, 330.862 L 900.125, 320.533 L 897.459, 320.367 L 892.295, 311.37 z "/>
<path style="fill:rgb(0, 255, 0);fill-opacity:0;fill-rule:evenodd;stroke:rgb(0, 255, 14);stroke-width:1;" d="M 648.563, 572.262 L 650.562, 560.766 L 650.729, 559.267 L 652.728, 559.434 L 653.894, 551.437 L 654.394, 548.938 L 673.219, 550.771 L 677.551, 551.104 L 675.718, 562.932 L 673.719, 574.594 L 666.222, 573.928 L 654.061, 572.761 L 648.563, 572.262 z "/>
<path style="fill:rgb(0, 0, 255);fill-opacity:0;fill-rule:evenodd;stroke:rgb(0, 255, 14);stroke-width:1;" d="M 845.148, 158.434 L 859.808, 153.603 L 878.8, 186.922 L 864.14, 191.753 L 845.148, 158.434 z "/>
<path style="fill:rgb(255, 255, 0);fill-opacity:0;fill-rule:evenodd;stroke:rgb(0, 255, 14);stroke-width:1;" d="M 305.04, 308.372 L 307.705, 292.045 L 342.024, 295.377 L 339.192, 311.703 L 305.04, 308.372 z "/>
<path style="fill:rgb(255, 0, 0);fill-opacity:0;fill-rule:evenodd;stroke:rgb(0, 255, 14);stroke-width:1;" d="M 366.514, 314.202 L 369.346, 297.876 L 403.332, 301.208 L 400.666, 317.534 L 366.514, 314.202 z "/>
<path style="fill:rgb(0, 255, 0);fill-opacity:0;fill-rule:evenodd;stroke:rgb(0, 255, 14);stroke-width:1;" d="M 372.845, 277.218 L 375.51, 260.891 L 409.496, 264.223 L 406.664, 280.55 L 372.845, 277.218 z "/>
<path style="fill:rgb(0, 0, 255);fill-opacity:0;fill-rule:evenodd;stroke:rgb(0, 255, 14);stroke-width:1;" d="M 887.963, 146.439 L 902.457, 141.608 L 906.289, 148.272 L 920.95, 174.094 L 906.456, 178.759 L 905.956, 178.092 L 887.963, 146.439 z "/>
<path style="fill:rgb(255, 255, 0);fill-opacity:0;fill-rule:evenodd;stroke:rgb(0, 255, 14);stroke-width:1;" d="M 909.788, 305.873 L 925.614, 300.875 L 930.779, 310.204 L 929.946, 312.037 L 933.778, 318.867 L 931.945, 321.033 L 933.944, 324.531 L 937.943, 323.199 L 942.774, 332.195 L 940.941, 332.695 L 943.44, 337.359 L 932.278, 339.192 L 930.779, 336.36 L 927.78, 337.359 L 922.449, 327.863 L 925.448, 326.864 L 923.282, 323.032 L 921.283, 322.699 L 917.284, 315.535 L 914.619, 314.869 L 909.788, 305.873 z "/>
<path style="fill:rgb(255, 0, 0);fill-opacity:0;fill-rule:evenodd;stroke:rgb(0, 255, 14);stroke-width:1;" d="M 906.289, 148.272 L 910.121, 146.939 L 918.784, 144.107 L 924.282, 142.274 L 938.942, 168.097 L 920.95, 174.094 L 906.289, 148.272 z "/>
<path style="fill:rgb(0, 255, 0);fill-opacity:0;fill-rule:evenodd;stroke:rgb(0, 255, 14);stroke-width:1;" d="M 827.322, 238.567 L 853.978, 229.404 L 859.309, 238.567 L 855.81, 239.733 L 861.808, 250.062 L 841.15, 257.06 L 835.652, 247.564 L 832.986, 248.397 L 827.322, 238.567 z "/>
<path style="fill:rgb(0, 0, 255);fill-opacity:0;fill-rule:evenodd;stroke:rgb(0, 255, 14);stroke-width:1;" d="M 297.709, 642.066 L 299.375, 632.403 L 301.541, 631.237 L 302.207, 626.406 L 303.873, 626.572 L 304.373, 623.574 L 302.874, 623.407 L 304.373, 614.077 L 302.541, 612.245 L 304.207, 603.082 L 319.034, 604.581 L 312.703, 643.399 L 297.709, 642.066 z "/>
<path style="fill:rgb(255, 255, 0);fill-opacity:0;fill-rule:evenodd;stroke:rgb(0, 255, 14);stroke-width:1;" d="M 855.144, 419.992 L 856.143, 413.328 L 856.31, 412.328 L 926.614, 418.825 L 925.281, 426.489 L 902.124, 424.323 L 855.144, 419.992 z "/>
<path style="fill:rgb(255, 0, 0);fill-opacity:0;fill-rule:evenodd;stroke:rgb(0, 255, 14);stroke-width:1;" d="M 807.83, 498.792 L 808.163, 497.126 L 810.829, 480.966 L 840.983, 483.798 L 838.151, 501.624 L 807.83, 498.792 z "/>
<path style="fill:rgb(0, 255, 0);fill-opacity:0;fill-rule:evenodd;stroke:rgb(0, 255, 14);stroke-width:1;" d="M 789.504, 343.857 L 803.332, 339.525 L 811.995, 356.685 L 811.828, 358.85 L 809.329, 376.343 L 795.002, 375.01 L 797.168, 359.017 L 789.504, 343.857 z "/>
<path style="fill:rgb(0, 0, 255);fill-opacity:0;fill-rule:evenodd;stroke:rgb(0, 255, 14);stroke-width:1;" d="M 775.344, 373.178 L 778.509, 347.355 L 789.504, 343.857 L 797.168, 359.017 L 795.002, 375.01 L 775.344, 373.178 z "/>
<path style="fill:rgb(255, 255, 0);fill-opacity:0;fill-rule:evenodd;stroke:rgb(0, 255, 14);stroke-width:1;" d="M 961.599, 583.59 L 962.932, 575.26 L 964.765, 573.761 L 965.431, 569.263 L 968.097, 569.429 L 968.763, 565.098 L 967.93, 565.098 L 968.263, 562.766 L 965.264, 562.599 L 965.931, 557.601 L 967.93, 557.768 L 969.263, 549.604 L 967.264, 549.438 L 967.93, 544.773 L 982.757, 545.939 L 981.924, 550.937 L 980.258, 550.771 L 979.092, 558.934 L 980.758, 559.1 L 979.925, 564.265 L 976.76, 564.098 L 975.927, 570.262 L 977.259, 570.429 L 976.593, 574.927 L 978.092, 576.593 L 976.926, 584.923 L 961.599, 583.59 z "/>
<path style="fill:rgb(255, 0, 0);fill-opacity:0;fill-rule:evenodd;stroke:rgb(0, 255, 14);stroke-width:1;" d="M 859.642, 747.688 L 862.974, 725.864 L 892.795, 728.363 L 891.628, 736.526 L 878.967, 735.36 L 876.801, 749.188 L 859.642, 747.688 z "/>
<path style="fill:rgb(0, 255, 0);fill-opacity:0;fill-rule:evenodd;stroke:rgb(0, 255, 14);stroke-width:1;" d="M 812.661, 432.653 L 812.995, 430.154 L 813.828, 425.489 L 878.301, 431.487 L 877.135, 438.817 L 812.661, 432.653 z "/>
<path style="fill:rgb(0, 0, 255);fill-opacity:0;fill-rule:evenodd;stroke:rgb(0, 255, 14);stroke-width:1;" d="M 284.215, 630.904 L 289.213, 600.416 L 304.373, 601.916 L 304.207, 603.082 L 302.541, 612.245 L 299.375, 632.403 L 284.215, 630.904 z "/>
<path style="fill:rgb(255, 255, 0);fill-opacity:0;fill-rule:evenodd;stroke:rgb(0, 255, 14);stroke-width:1;" d="M 269.221, 629.571 L 274.219, 599.917 L 274.386, 599.084 L 289.213, 600.416 L 284.215, 630.904 L 269.221, 629.571 z "/>
<path style="fill:rgb(255, 0, 0);fill-opacity:0;fill-rule:evenodd;stroke:rgb(0, 255, 14);stroke-width:1;" d="M 837.151, 172.262 L 845.148, 158.434 L 864.14, 191.753 L 850.812, 196.252 L 850.312, 195.419 L 837.484, 172.761 L 837.151, 172.262 z "/>
<path style="fill:rgb(0, 255, 0);fill-opacity:0;fill-rule:evenodd;stroke:rgb(0, 255, 14);stroke-width:1;" d="M 868.138, 504.29 L 871.47, 482.132 L 873.969, 464.307 L 883.299, 465.14 L 881.633, 476.302 L 880.3, 476.135 L 878.8, 486.964 L 884.965, 487.464 L 883.465, 497.626 L 882.299, 505.456 L 868.138, 504.29 z "/>
<path style="fill:rgb(0, 0, 255);fill-opacity:0;fill-rule:evenodd;stroke:rgb(0, 255, 14);stroke-width:1;" d="M 665.889, 115.119 L 669.554, 92.9613 L 671.22, 82.9654 L 672.22, 83.132 L 672.387, 82.4656 L 683.049, 83.4652 L 683.049, 83.6318 L 684.048, 83.7984 L 682.549, 92.6281 L 683.549, 92.7947 L 679.55, 116.451 L 665.889, 115.119 z "/>
<path style="fill:rgb(255, 255, 0);fill-opacity:0;fill-rule:evenodd;stroke:rgb(0, 255, 14);stroke-width:1;" d="M 781.175, 75.1354 L 795.835, 70.6372 L 800.666, 79.6335 L 799.667, 81.4661 L 800.167, 82.299 L 803.665, 88.9629 L 805.831, 89.4627 L 810.662, 98.6256 L 796.002, 103.124 L 791.17, 94.1274 L 792.337, 92.6281 L 789.504, 87.1304 L 788.505, 85.2978 L 786.006, 84.1316 L 781.175, 75.1354 z "/>
<path style="fill:rgb(255, 0, 0);fill-opacity:0;fill-rule:evenodd;stroke:rgb(0, 255, 14);stroke-width:1;" d="M 904.623, 751.687 L 909.788, 717.368 L 922.616, 718.534 L 919.95, 735.693 L 917.451, 752.853 L 904.623, 751.687 z "/>
<path style="fill:rgb(0, 255, 0);fill-opacity:0;fill-rule:evenodd;stroke:rgb(0, 255, 14);stroke-width:1;" d="M 672.053, 455.31 L 677.384, 423.823 L 690.879, 425.156 L 685.714, 456.643 L 672.053, 455.31 z "/>
<path style="fill:rgb(0, 0, 255);fill-opacity:0;fill-rule:evenodd;stroke:rgb(0, 255, 14);stroke-width:1;" d="M 818.492, 206.081 L 837.484, 172.761 L 850.312, 195.419 L 818.492, 206.081 z "/>
<path style="fill:rgb(255, 255, 0);fill-opacity:0;fill-rule:evenodd;stroke:rgb(0, 255, 14);stroke-width:1;" d="M 948.272, 574.094 L 948.938, 569.263 L 952.77, 543.44 L 967.93, 544.773 L 967.264, 549.438 L 965.931, 557.601 L 965.264, 562.599 L 961.599, 562.266 L 959.767, 575.094 L 948.272, 574.094 z "/>
<path style="fill:rgb(255, 0, 0);fill-opacity:0;fill-rule:evenodd;stroke:rgb(0, 255, 14);stroke-width:1;" d="M 592.92, 555.768 L 600.083, 511.287 L 606.414, 511.787 L 600.083, 550.604 L 623.407, 552.77 L 622.407, 558.434 L 594.252, 555.935 L 592.92, 555.768 z "/>
<path style="fill:rgb(0, 255, 0);fill-opacity:0;fill-rule:evenodd;stroke:rgb(0, 255, 14);stroke-width:1;" d="M 435.818, 679.717 L 437.151, 672.053 L 440.15, 653.561 L 441.316, 645.898 L 453.478, 647.064 L 452.145, 654.727 L 449.313, 673.219 L 447.98, 680.883 L 435.818, 679.717 z "/>
<path style="fill:rgb(0, 0, 255);fill-opacity:0;fill-rule:evenodd;stroke:rgb(0, 255, 14);stroke-width:1;" d="M 767.847, 79.1337 L 781.175, 75.1354 L 786.006, 84.1316 L 785.839, 85.631 L 789.838, 93.2945 L 791.17, 94.1274 L 796.002, 103.124 L 782.674, 107.122 L 778.009, 98.459 L 778.676, 96.6264 L 774.511, 88.6297 L 773.011, 88.9629 L 767.847, 79.1337 z "/>
<path style="fill:rgb(255, 255, 0);fill-opacity:0;fill-rule:evenodd;stroke:rgb(0, 255, 14);stroke-width:1;" d="M 854.311, 380.675 L 855.643, 366.514 L 857.143, 366.514 L 858.476, 352.187 L 871.803, 352.853 L 869.138, 382.174 L 854.311, 380.675 z "/>
<path style="fill:rgb(255, 0, 0);fill-opacity:0;fill-rule:evenodd;stroke:rgb(0, 255, 14);stroke-width:1;" d="M 804.165, 57.3095 L 817.659, 53.1445 L 828.488, 73.4694 L 820.491, 88.2965 L 818.659, 84.798 L 813.661, 75.4686 L 808.996, 66.6389 L 804.165, 57.3095 z "/>
<path style="fill:rgb(0, 255, 0);fill-opacity:0;fill-rule:evenodd;stroke:rgb(0, 255, 14);stroke-width:1;" d="M 922.449, 444.148 L 925.281, 426.489 L 926.614, 418.825 L 941.941, 420.325 L 939.442, 435.818 L 937.776, 445.648 L 922.449, 444.148 z "/>
<path style="fill:rgb(0, 0, 255);fill-opacity:0;fill-rule:evenodd;stroke:rgb(0, 255, 14);stroke-width:1;" d="M 869.971, 116.618 L 883.465, 95.6268 L 892.128, 110.787 L 895.96, 117.451 L 883.798, 121.449 L 874.469, 124.448 L 869.971, 116.618 z "/>
<path style="fill:rgb(255, 255, 0);fill-opacity:0;fill-rule:evenodd;stroke:rgb(0, 255, 14);stroke-width:1;" d="M 795.835, 70.6372 L 808.996, 66.6389 L 813.661, 75.4686 L 813.328, 77.3011 L 817.493, 85.1312 L 818.659, 84.798 L 820.491, 88.2965 L 813.494, 97.626 L 812.328, 98.9588 L 810.662, 98.6256 L 805.831, 89.4627 L 800.666, 79.6335 L 795.835, 70.6372 z "/>
<path style="fill:rgb(255, 0, 0);fill-opacity:0;fill-rule:evenodd;stroke:rgb(0, 255, 14);stroke-width:1;" d="M 705.04, 118.95 L 709.038, 95.127 L 710.704, 84.798 L 717.368, 85.4644 L 716.035, 93.6277 L 713.536, 95.96 L 721.699, 96.793 L 717.868, 120.117 L 705.04, 118.95 z "/>
<path style="fill:rgb(0, 255, 0);fill-opacity:0;fill-rule:evenodd;stroke:rgb(0, 255, 14);stroke-width:1;" d="M 803.499, 553.436 L 807.164, 528.946 L 822.99, 530.279 L 822.157, 535.943 L 821.658, 535.943 L 820.658, 543.274 L 819.325, 543.107 L 817.493, 554.602 L 803.499, 553.436 z "/>
<path style="fill:rgb(0, 0, 255);fill-opacity:0;fill-rule:evenodd;stroke:rgb(0, 255, 14);stroke-width:1;" d="M 818.992, 622.241 L 821.824, 603.748 L 831.32, 604.415 L 833.153, 592.92 L 839.15, 593.419 L 837.484, 605.081 L 834.652, 623.74 L 818.992, 622.241 z "/>
<path style="fill:rgb(255, 255, 0);fill-opacity:0;fill-rule:evenodd;stroke:rgb(0, 255, 14);stroke-width:1;" d="M 514.786, 102.957 L 516.451, 92.7947 L 545.773, 95.6268 L 551.77, 96.1266 L 550.437, 104.123 L 550.104, 106.456 L 514.786, 102.957 z "/>
<path style="fill:rgb(255, 0, 0);fill-opacity:0;fill-rule:evenodd;stroke:rgb(0, 255, 14);stroke-width:1;" d="M 924.448, 632.903 L 927.28, 613.411 L 932.945, 613.911 L 934.111, 606.747 L 934.777, 606.747 L 935.61, 601.916 L 942.774, 602.582 L 941.608, 610.412 L 938.109, 634.069 L 924.448, 632.903 z "/>
<path style="fill:rgb(0, 255, 0);fill-opacity:0;fill-rule:evenodd;stroke:rgb(0, 255, 14);stroke-width:1;" d="M 280.716, 514.119 L 282.216, 504.956 L 320.7, 508.455 L 319.367, 516.451 L 319.2, 517.618 L 280.716, 514.119 z "/>
<path style="fill:rgb(0, 0, 255);fill-opacity:0;fill-rule:evenodd;stroke:rgb(0, 255, 14);stroke-width:1;" d="M 276.385, 541.774 L 277.884, 532.611 L 316.202, 536.11 L 315.868, 537.943 L 314.702, 545.439 L 276.385, 541.774 z "/>
<path style="fill:rgb(255, 255, 0);fill-opacity:0;fill-rule:evenodd;stroke:rgb(0, 255, 14);stroke-width:1;" d="M 264.556, 412.828 L 268.222, 391.504 L 284.548, 393.003 L 281.383, 414.327 L 264.556, 412.828 z "/>
<path style="fill:rgb(255, 0, 0);fill-opacity:0;fill-rule:evenodd;stroke:rgb(0, 255, 14);stroke-width:1;" d="M 323.865, 272.553 L 326.697, 256.227 L 348.188, 258.226 L 345.356, 274.719 L 323.865, 272.553 z "/>
<path style="fill:rgb(0, 255, 0);fill-opacity:0;fill-rule:evenodd;stroke:rgb(0, 255, 14);stroke-width:1;" d="M 803.332, 339.525 L 816.993, 335.194 L 827.988, 355.352 L 827.322, 360.017 L 811.828, 358.85 L 811.995, 356.685 L 803.332, 339.525 z "/>
<path style="fill:rgb(0, 0, 255);fill-opacity:0;fill-rule:evenodd;stroke:rgb(0, 255, 14);stroke-width:1;" d="M 945.273, 116.451 L 964.431, 110.454 L 977.259, 106.456 L 982.924, 116.951 L 970.096, 120.783 L 969.429, 119.45 L 950.604, 125.281 L 945.273, 116.451 z "/>
<path style="fill:rgb(255, 255, 0);fill-opacity:0;fill-rule:evenodd;stroke:rgb(0, 255, 14);stroke-width:1;" d="M 519.95, 72.3032 L 521.449, 62.474 L 551.603, 65.3061 L 557.101, 65.9725 L 555.435, 75.6352 L 549.105, 74.9688 L 519.95, 72.3032 z "/>
<path style="fill:rgb(255, 0, 0);fill-opacity:0;fill-rule:evenodd;stroke:rgb(0, 255, 14);stroke-width:1;" d="M 873.469, 265.723 L 884.132, 262.224 L 891.462, 274.552 L 900.292, 289.546 L 889.629, 293.211 L 873.469, 265.723 z "/>
<path style="fill:rgb(0, 255, 0);fill-opacity:0;fill-rule:evenodd;stroke:rgb(0, 255, 14);stroke-width:1;" d="M 862.807, 269.388 L 873.469, 265.723 L 889.629, 293.211 L 878.967, 296.876 L 870.304, 282.216 L 862.807, 269.388 z "/>
<path style="fill:rgb(0, 0, 255);fill-opacity:0;fill-rule:evenodd;stroke:rgb(0, 255, 14);stroke-width:1;" d="M 563.432, 105.456 L 567.264, 81.6327 L 574.427, 82.299 L 575.76, 74.469 L 581.091, 74.9688 L 579.758, 83.132 L 575.927, 106.622 L 563.432, 105.456 z "/>
<path style="fill:rgb(255, 255, 0);fill-opacity:0;fill-rule:evenodd;stroke:rgb(0, 255, 14);stroke-width:1;" d="M 894.461, 217.243 L 909.788, 212.078 L 919.617, 228.738 L 914.952, 230.404 L 917.451, 234.736 L 910.121, 237.234 L 907.122, 232.07 L 903.79, 233.236 L 901.291, 228.905 L 899.459, 225.739 L 894.461, 217.243 z "/>
<path style="fill:rgb(255, 0, 0);fill-opacity:0;fill-rule:evenodd;stroke:rgb(0, 255, 14);stroke-width:1;" d="M 917.451, 752.853 L 919.95, 735.693 L 924.615, 736.193 L 925.948, 728.03 L 931.612, 728.53 L 930.446, 736.693 L 937.11, 737.193 L 936.11, 744.19 L 934.611, 754.352 L 917.451, 752.853 z "/>
<path style="fill:rgb(0, 255, 0);fill-opacity:0;fill-rule:evenodd;stroke:rgb(0, 255, 14);stroke-width:1;" d="M 755.185, 92.7947 L 769.346, 88.4631 L 775.177, 99.292 L 778.009, 98.459 L 782.674, 107.122 L 765.681, 112.287 L 762.016, 105.623 L 762.682, 103.29 L 760.85, 99.6252 L 758.017, 97.9592 L 755.185, 92.7947 z "/>
<path style="fill:rgb(0, 0, 255);fill-opacity:0;fill-rule:evenodd;stroke:rgb(0, 255, 14);stroke-width:1;" d="M 742.857, 96.4598 L 755.185, 92.7947 L 758.017, 97.9592 L 757.518, 99.9584 L 760.017, 104.623 L 762.016, 105.623 L 765.681, 112.287 L 745.856, 118.95 L 743.69, 109.621 L 748.855, 107.955 L 742.857, 96.4598 z "/>
<path style="fill:rgb(255, 255, 0);fill-opacity:0;fill-rule:evenodd;stroke:rgb(0, 255, 14);stroke-width:1;" d="M 844.981, 746.356 L 847.647, 728.696 L 848.48, 723.865 L 863.14, 725.031 L 862.974, 725.864 L 859.642, 747.688 L 844.981, 746.356 z "/>
<path style="fill:rgb(255, 0, 0);fill-opacity:0;fill-rule:evenodd;stroke:rgb(0, 255, 14);stroke-width:1;" d="M 469.804, 544.94 L 471.47, 535.61 L 495.127, 537.776 L 492.295, 555.269 L 479.134, 553.936 L 480.466, 545.939 L 469.804, 544.94 z "/>
<path style="fill:rgb(0, 255, 0);fill-opacity:0;fill-rule:evenodd;stroke:rgb(0, 255, 14);stroke-width:1;" d="M 938.109, 634.069 L 941.608, 610.412 L 955.435, 611.579 L 954.769, 616.243 L 951.937, 635.235 L 938.109, 634.069 z "/>
<path style="fill:rgb(0, 0, 255);fill-opacity:0;fill-rule:evenodd;stroke:rgb(0, 255, 14);stroke-width:1;" d="M 965.764, 636.401 L 968.596, 617.409 L 969.263, 613.744 L 983.59, 615.077 L 980.092, 637.734 L 965.764, 636.401 z "/>
<path style="fill:rgb(255, 255, 0);fill-opacity:0;fill-rule:evenodd;stroke:rgb(0, 255, 14);stroke-width:1;" d="M 935.277, 559.767 L 938.109, 541.441 L 952.936, 542.774 L 952.77, 543.44 L 948.938, 569.263 L 942.94, 568.596 L 944.273, 560.433 L 935.277, 559.767 z "/>
<path style="fill:rgb(255, 0, 0);fill-opacity:0;fill-rule:evenodd;stroke:rgb(0, 255, 14);stroke-width:1;" d="M 923.282, 558.434 L 925.948, 540.441 L 938.109, 541.441 L 935.277, 559.767 L 933.611, 571.595 L 925.281, 570.929 L 926.947, 558.767 L 923.282, 558.434 z "/>
<path style="fill:rgb(0, 255, 0);fill-opacity:0;fill-rule:evenodd;stroke:rgb(0, 255, 14);stroke-width:1;" d="M 717.868, 120.117 L 721.699, 96.793 L 735.36, 98.1258 L 734.361, 103.457 L 731.362, 121.449 L 717.868, 120.117 z "/>
<path style="fill:rgb(0, 0, 255);fill-opacity:0;fill-rule:evenodd;stroke:rgb(0, 255, 14);stroke-width:1;" d="M 883.632, 564.765 L 883.965, 562.099 L 887.297, 562.432 L 890.962, 537.443 L 902.291, 538.442 L 900.125, 552.936 L 899.459, 552.936 L 898.792, 557.101 L 897.459, 565.931 L 883.632, 564.765 z "/>
<path style="fill:rgb(255, 255, 0);fill-opacity:0;fill-rule:evenodd;stroke:rgb(0, 255, 14);stroke-width:1;" d="M 878.301, 252.228 L 890.129, 248.23 L 890.462, 248.896 L 903.124, 270.554 L 891.462, 274.552 L 884.132, 262.224 L 878.301, 252.228 z "/>
<path style="fill:rgb(255, 0, 0);fill-opacity:0;fill-rule:evenodd;stroke:rgb(0, 255, 14);stroke-width:1;" d="M 550.437, 104.123 L 551.77, 96.1266 L 554.436, 80.2999 L 567.264, 81.6327 L 563.432, 105.456 L 550.437, 104.123 z "/>
<path style="fill:rgb(0, 255, 0);fill-opacity:0;fill-rule:evenodd;stroke:rgb(0, 255, 14);stroke-width:1;" d="M 904.123, 134.111 L 905.456, 133.778 L 911.62, 131.778 L 912.453, 133.111 L 918.784, 131.112 L 917.951, 129.613 L 926.281, 126.947 L 933.444, 139.275 L 924.948, 142.107 L 924.615, 141.274 L 918.284, 143.44 L 918.784, 144.107 L 910.121, 146.939 L 909.621, 145.939 L 910.621, 145.606 L 904.123, 134.111 z "/>
<path style="fill:rgb(0, 0, 255);fill-opacity:0;fill-rule:evenodd;stroke:rgb(0, 255, 14);stroke-width:1;" d="M 521.449, 62.474 L 523.115, 52.3115 L 546.606, 54.6439 L 553.269, 55.3103 L 551.603, 65.3061 L 521.449, 62.474 z "/>
<path style="fill:rgb(255, 255, 0);fill-opacity:0;fill-rule:evenodd;stroke:rgb(0, 255, 14);stroke-width:1;" d="M 848.98, 626.406 L 849.146, 624.906 L 851.978, 606.247 L 853.644, 595.585 L 861.474, 596.252 L 860.308, 603.748 L 857.476, 603.582 L 856.81, 607.913 L 863.64, 608.58 L 860.808, 627.405 L 848.98, 626.406 z "/>
<path style="fill:rgb(255, 0, 0);fill-opacity:0;fill-rule:evenodd;stroke:rgb(0, 255, 14);stroke-width:1;" d="M 679.55, 116.451 L 683.549, 92.7947 L 696.377, 93.9608 L 692.378, 117.784 L 679.55, 116.451 z "/>
<path style="fill:rgb(0, 255, 0);fill-opacity:0;fill-rule:evenodd;stroke:rgb(0, 255, 14);stroke-width:1;" d="M 518.117, 82.6322 L 519.95, 72.3032 L 549.105, 74.9688 L 547.439, 85.4644 L 518.117, 82.6322 z "/>
<path style="fill:rgb(0, 0, 255);fill-opacity:0;fill-rule:evenodd;stroke:rgb(0, 255, 14);stroke-width:1;" d="M 208.413, 116.118 L 209.08, 109.954 L 209.579, 105.123 L 229.571, 106.955 L 237.068, 107.622 L 233.903, 119.284 L 227.239, 118.451 L 208.413, 116.118 z "/>
<path style="fill:rgb(255, 255, 0);fill-opacity:0;fill-rule:evenodd;stroke:rgb(0, 255, 14);stroke-width:1;" d="M 909.788, 212.078 L 923.282, 207.414 L 934.444, 226.406 L 920.95, 230.904 L 919.617, 228.738 L 909.788, 212.078 z "/>
<path style="fill:rgb(255, 0, 0);fill-opacity:0;fill-rule:evenodd;stroke:rgb(0, 255, 14);stroke-width:1;" d="M 692.378, 117.784 L 696.377, 93.9608 L 709.038, 95.127 L 705.04, 118.95 L 692.378, 117.784 z "/>
<path style="fill:rgb(0, 255, 0);fill-opacity:0;fill-rule:evenodd;stroke:rgb(0, 255, 14);stroke-width:1;" d="M 513.786, 429.488 L 515.618, 418.492 L 543.107, 421.158 L 541.274, 431.987 L 513.786, 429.488 z "/>
<path style="fill:rgb(0, 0, 255);fill-opacity:0;fill-rule:evenodd;stroke:rgb(0, 255, 14);stroke-width:1;" d="M 623.074, 439.817 L 624.906, 428.988 L 652.395, 431.653 L 650.729, 442.482 L 623.074, 439.817 z "/>
<path style="fill:rgb(255, 255, 0);fill-opacity:0;fill-rule:evenodd;stroke:rgb(0, 255, 14);stroke-width:1;" d="M 516.451, 92.7947 L 518.117, 82.6322 L 547.439, 85.4644 L 545.773, 95.6268 L 516.451, 92.7947 z "/>
<path style="fill:rgb(255, 0, 0);fill-opacity:0;fill-rule:evenodd;stroke:rgb(0, 255, 14);stroke-width:1;" d="M 575.927, 106.622 L 579.758, 83.132 L 592.42, 84.2982 L 591.587, 89.4627 L 588.588, 107.788 L 575.927, 106.622 z "/>
<path style="fill:rgb(0, 255, 0);fill-opacity:0;fill-rule:evenodd;stroke:rgb(0, 255, 14);stroke-width:1;" d="M 667.888, 346.855 L 671.554, 325.864 L 677.884, 326.531 L 685.714, 327.364 L 682.049, 348.188 L 667.888, 346.855 z "/>
<path style="fill:rgb(0, 0, 255);fill-opacity:0;fill-rule:evenodd;stroke:rgb(0, 255, 14);stroke-width:1;" d="M 884.965, 629.571 L 887.464, 612.911 L 888.63, 605.248 L 900.625, 606.247 L 899.625, 613.911 L 897.126, 630.571 L 884.965, 629.571 z "/>
<path style="fill:rgb(255, 255, 0);fill-opacity:0;fill-rule:evenodd;stroke:rgb(0, 255, 14);stroke-width:1;" d="M 601.249, 108.955 L 604.248, 90.6289 L 604.915, 86.7972 L 618.242, 87.9633 L 614.577, 110.287 L 601.249, 108.955 z "/>
<path style="fill:rgb(255, 0, 0);fill-opacity:0;fill-rule:evenodd;stroke:rgb(0, 255, 14);stroke-width:1;" d="M 249.229, 483.465 L 250.562, 474.969 L 284.881, 478.301 L 283.549, 486.797 L 249.229, 483.465 z "/>
<path style="fill:rgb(0, 255, 0);fill-opacity:0;fill-rule:evenodd;stroke:rgb(0, 255, 14);stroke-width:1;" d="M 235.902, 565.431 L 237.401, 556.935 L 271.72, 560.1 L 270.387, 568.596 L 235.902, 565.431 z "/>
<path style="fill:rgb(0, 0, 255);fill-opacity:0;fill-rule:evenodd;stroke:rgb(0, 255, 14);stroke-width:1;" d="M 614.577, 110.287 L 618.242, 87.9633 L 631.237, 89.2961 L 627.572, 111.454 L 614.577, 110.287 z "/>
<path style="fill:rgb(255, 255, 0);fill-opacity:0;fill-rule:evenodd;stroke:rgb(0, 255, 14);stroke-width:1;" d="M 881.966, 220.408 L 893.961, 216.41 L 894.461, 217.243 L 899.459, 225.739 L 897.793, 226.239 L 899.792, 229.571 L 901.291, 228.905 L 903.79, 233.236 L 906.289, 237.234 L 894.127, 241.399 L 881.966, 220.408 z "/>
<path style="fill:rgb(255, 0, 0);fill-opacity:0;fill-rule:evenodd;stroke:rgb(0, 255, 14);stroke-width:1;" d="M 308.372, 489.13 L 309.204, 483.798 L 358.85, 488.463 L 361.516, 488.796 L 364.348, 488.963 L 363.515, 494.294 L 308.372, 489.13 z "/>
<path style="fill:rgb(0, 255, 0);fill-opacity:0;fill-rule:evenodd;stroke:rgb(0, 255, 14);stroke-width:1;" d="M 640.067, 112.62 L 643.732, 90.4623 L 656.726, 91.6285 L 653.061, 113.953 L 640.067, 112.62 z "/>
<path style="fill:rgb(0, 0, 255);fill-opacity:0;fill-rule:evenodd;stroke:rgb(0, 255, 14);stroke-width:1;" d="M 909.288, 631.57 L 911.787, 614.91 L 919.117, 615.577 L 919.783, 610.746 L 927.613, 611.412 L 927.28, 613.411 L 924.448, 632.903 L 909.288, 631.57 z "/>
<path style="fill:rgb(255, 255, 0);fill-opacity:0;fill-rule:evenodd;stroke:rgb(0, 255, 14);stroke-width:1;" d="M 295.544, 567.597 L 296.543, 562.432 L 351.687, 567.597 L 350.854, 572.761 L 348.022, 572.595 L 345.356, 572.262 L 295.544, 567.597 z "/>
<path style="fill:rgb(255, 0, 0);fill-opacity:0;fill-rule:evenodd;stroke:rgb(0, 255, 14);stroke-width:1;" d="M 926.281, 687.547 L 929.946, 662.724 L 941.774, 663.723 L 938.609, 684.382 L 937.943, 688.546 L 926.281, 687.547 z "/>
<path style="fill:rgb(0, 255, 0);fill-opacity:0;fill-rule:evenodd;stroke:rgb(0, 255, 14);stroke-width:1;" d="M 653.061, 113.953 L 656.726, 91.6285 L 669.554, 92.9613 L 665.889, 115.119 L 653.061, 113.953 z "/>
<path style="fill:rgb(0, 0, 255);fill-opacity:0;fill-rule:evenodd;stroke:rgb(0, 255, 14);stroke-width:1;" d="M 806.164, 621.241 L 808.83, 602.582 L 815.993, 603.249 L 817.16, 595.252 L 822.99, 595.752 L 821.824, 603.748 L 818.992, 622.241 L 806.164, 621.241 z "/>
<path style="fill:rgb(255, 255, 0);fill-opacity:0;fill-rule:evenodd;stroke:rgb(0, 255, 14);stroke-width:1;" d="M 855.643, 141.108 L 869.971, 116.618 L 874.469, 124.448 L 880.466, 135.11 L 856.81, 142.94 L 855.643, 141.108 z "/>
<path style="fill:rgb(255, 0, 0);fill-opacity:0;fill-rule:evenodd;stroke:rgb(0, 255, 14);stroke-width:1;" d="M 914.786, 686.381 L 916.785, 673.386 L 918.451, 661.724 L 929.946, 662.724 L 926.281, 687.547 L 914.786, 686.381 z "/>
<path style="fill:rgb(0, 255, 0);fill-opacity:0;fill-rule:evenodd;stroke:rgb(0, 255, 14);stroke-width:1;" d="M 195.918, 108.955 L 196.751, 103.79 L 209.579, 105.123 L 229.571, 106.955 L 227.239, 118.451 L 208.413, 116.118 L 209.08, 109.954 L 195.918, 108.955 z "/>
<path style="fill:rgb(0, 0, 255);fill-opacity:0;fill-rule:evenodd;stroke:rgb(0, 255, 14);stroke-width:1;" d="M 893.628, 92.2949 L 904.623, 88.6297 L 916.951, 110.454 L 905.956, 114.119 L 902.124, 107.455 L 893.628, 92.2949 z "/>
<path style="fill:rgb(255, 255, 0);fill-opacity:0;fill-rule:evenodd;stroke:rgb(0, 255, 14);stroke-width:1;" d="M 343.857, 412.495 L 344.856, 405.664 L 351.687, 401.666 L 360.516, 402.332 L 366.014, 407.663 L 364.848, 414.494 L 357.851, 418.492 L 349.188, 417.659 L 343.857, 412.495 z "/>
<path style="fill:rgb(255, 0, 0);fill-opacity:0;fill-rule:evenodd;stroke:rgb(0, 255, 14);stroke-width:1;" d="M 817.493, 554.602 L 819.325, 543.107 L 820.658, 543.274 L 821.658, 535.943 L 822.157, 535.943 L 822.99, 530.279 L 833.486, 531.279 L 833.153, 534.111 L 830.154, 554.102 L 829.821, 555.602 L 817.493, 554.602 z "/>
<path style="fill:rgb(0, 255, 0);fill-opacity:0;fill-rule:evenodd;stroke:rgb(0, 255, 14);stroke-width:1;" d="M 855.477, 503.29 L 858.809, 480.966 L 871.47, 482.132 L 868.138, 504.29 L 855.477, 503.29 z "/>
<path style="fill:rgb(0, 0, 255);fill-opacity:0;fill-rule:evenodd;stroke:rgb(0, 255, 14);stroke-width:1;" d="M 924.282, 142.274 L 924.948, 142.107 L 933.444, 139.275 L 948.105, 165.098 L 938.942, 168.097 L 924.282, 142.274 z "/>
<path style="fill:rgb(255, 255, 0);fill-opacity:0;fill-rule:evenodd;stroke:rgb(0, 255, 14);stroke-width:1;" d="M 627.572, 111.454 L 631.237, 89.2961 L 643.732, 90.4623 L 640.067, 112.62 L 627.572, 111.454 z "/>
<path style="fill:rgb(255, 0, 0);fill-opacity:0;fill-rule:evenodd;stroke:rgb(0, 255, 14);stroke-width:1;" d="M 910.621, 562.766 L 911.287, 558.101 L 914.119, 539.442 L 925.948, 540.441 L 923.282, 558.434 L 922.449, 563.765 L 910.621, 562.766 z "/>
<path style="fill:rgb(0, 255, 0);fill-opacity:0;fill-rule:evenodd;stroke:rgb(0, 255, 14);stroke-width:1;" d="M 809.329, 376.343 L 811.828, 358.85 L 827.322, 360.017 L 824.823, 377.843 L 809.329, 376.343 z "/>
<path style="fill:rgb(0, 0, 255);fill-opacity:0;fill-rule:evenodd;stroke:rgb(0, 255, 14);stroke-width:1;" d="M 874.969, 554.269 L 877.468, 537.943 L 878.134, 537.943 L 878.467, 536.277 L 890.962, 537.443 L 887.297, 562.432 L 883.965, 562.099 L 881.799, 561.933 L 882.799, 554.935 L 874.969, 554.269 z "/>
<path style="fill:rgb(255, 255, 0);fill-opacity:0;fill-rule:evenodd;stroke:rgb(0, 255, 14);stroke-width:1;" d="M 834.652, 623.74 L 837.484, 605.081 L 851.978, 606.247 L 849.146, 624.906 L 834.652, 623.74 z "/>
<path style="fill:rgb(255, 0, 0);fill-opacity:0;fill-rule:evenodd;stroke:rgb(0, 255, 14);stroke-width:1;" d="M 935.444, 99.7918 L 953.936, 93.9608 L 963.432, 90.9621 L 967.93, 99.4586 L 959.933, 101.958 L 940.441, 108.122 L 935.444, 99.7918 z "/>
<path style="fill:rgb(0, 255, 0);fill-opacity:0;fill-rule:evenodd;stroke:rgb(0, 255, 14);stroke-width:1;" d="M 693.878, 476.968 L 705.04, 408.496 L 709.038, 408.83 L 697.709, 477.301 L 693.878, 476.968 z "/>
<path style="fill:rgb(0, 0, 255);fill-opacity:0;fill-rule:evenodd;stroke:rgb(0, 255, 14);stroke-width:1;" d="M 951.937, 635.235 L 954.769, 616.243 L 968.596, 617.409 L 965.764, 636.401 L 951.937, 635.235 z "/>
<path style="fill:rgb(255, 255, 0);fill-opacity:0;fill-rule:evenodd;stroke:rgb(0, 255, 14);stroke-width:1;" d="M 793.503, 620.075 L 796.335, 601.416 L 805.331, 602.249 L 806.497, 594.086 L 810.162, 594.419 L 808.83, 602.582 L 806.164, 621.241 L 793.503, 620.075 z "/>
<path style="fill:rgb(255, 0, 0);fill-opacity:0;fill-rule:evenodd;stroke:rgb(0, 255, 14);stroke-width:1;" d="M 786.672, 668.555 L 789.338, 650.396 L 803.499, 651.562 L 801.333, 665.889 L 800.666, 669.721 L 786.672, 668.555 z "/>
<path style="fill:rgb(0, 255, 0);fill-opacity:0;fill-rule:evenodd;stroke:rgb(0, 255, 14);stroke-width:1;" d="M 813.328, 465.473 L 815.993, 448.813 L 831.32, 450.146 L 828.488, 466.972 L 813.328, 465.473 z "/>
<path style="fill:rgb(0, 0, 255);fill-opacity:0;fill-rule:evenodd;stroke:rgb(0, 255, 14);stroke-width:1;" d="M 828.488, 466.972 L 831.32, 450.146 L 846.481, 451.645 L 843.815, 468.305 L 828.488, 466.972 z "/>
<path style="fill:rgb(255, 255, 0);fill-opacity:0;fill-rule:evenodd;stroke:rgb(0, 255, 14);stroke-width:1;" d="M 860.808, 627.405 L 863.64, 608.58 L 870.97, 609.246 L 871.137, 607.58 L 870.137, 607.414 L 870.637, 603.915 L 876.468, 604.415 L 875.302, 611.745 L 872.803, 628.405 L 860.808, 627.405 z "/>
<path style="fill:rgb(255, 0, 0);fill-opacity:0;fill-rule:evenodd;stroke:rgb(0, 255, 14);stroke-width:1;" d="M 652.728, 559.434 L 653.894, 551.437 L 654.394, 548.938 L 673.219, 550.771 L 670.887, 564.765 L 654.727, 563.265 L 655.227, 559.767 L 652.728, 559.434 z "/>
<path style="fill:rgb(0, 255, 0);fill-opacity:0;fill-rule:evenodd;stroke:rgb(0, 255, 14);stroke-width:1;" d="M 613.911, 586.756 L 617.076, 568.43 L 630.737, 569.763 L 627.572, 588.088 L 613.911, 586.756 z "/>
<path style="fill:rgb(0, 0, 255);fill-opacity:0;fill-rule:evenodd;stroke:rgb(0, 255, 14);stroke-width:1;" d="M 960.933, 141.274 L 974.261, 137.11 L 983.09, 153.269 L 969.763, 157.601 L 960.933, 141.274 z "/>
<path style="fill:rgb(255, 255, 0);fill-opacity:0;fill-rule:evenodd;stroke:rgb(0, 255, 14);stroke-width:1;" d="M 925.448, 82.9654 L 951.27, 74.8022 L 955.768, 82.9654 L 953.103, 83.7984 L 930.112, 90.9621 L 925.448, 82.9654 z "/>
<path style="fill:rgb(255, 0, 0);fill-opacity:0;fill-rule:evenodd;stroke:rgb(0, 255, 14);stroke-width:1;" d="M 838.151, 501.624 L 840.983, 483.798 L 854.644, 485.131 L 851.812, 502.957 L 838.151, 501.624 z "/>
<path style="fill:rgb(0, 255, 0);fill-opacity:0;fill-rule:evenodd;stroke:rgb(0, 255, 14);stroke-width:1;" d="M 897.126, 630.571 L 899.625, 613.911 L 906.456, 614.411 L 907.622, 606.414 L 912.953, 606.914 L 911.787, 614.91 L 909.288, 631.57 L 897.126, 630.571 z "/>
<path style="fill:rgb(0, 0, 255);fill-opacity:0;fill-rule:evenodd;stroke:rgb(0, 255, 14);stroke-width:1;" d="M 809.163, 743.357 L 811.828, 725.531 L 812.828, 725.531 L 813.828, 719.367 L 817.826, 719.7 L 816.993, 725.864 L 823.99, 726.531 L 821.158, 744.357 L 809.163, 743.357 z "/>
<path style="fill:rgb(255, 255, 0);fill-opacity:0;fill-rule:evenodd;stroke:rgb(0, 255, 14);stroke-width:1;" d="M 588.588, 107.788 L 591.587, 89.4627 L 604.248, 90.6289 L 601.249, 108.955 L 588.588, 107.788 z "/>
<path style="fill:rgb(255, 0, 0);fill-opacity:0;fill-rule:evenodd;stroke:rgb(0, 255, 14);stroke-width:1;" d="M 953.103, 126.614 L 966.431, 122.449 L 969.096, 127.28 L 974.261, 137.11 L 960.933, 141.274 L 953.103, 126.614 z "/>
<path style="fill:rgb(0, 255, 0);fill-opacity:0;fill-rule:evenodd;stroke:rgb(0, 255, 14);stroke-width:1;" d="M 469.471, 425.323 L 471.304, 413.994 L 491.129, 415.827 L 489.13, 427.155 L 469.471, 425.323 z "/>
<path style="fill:rgb(0, 0, 255);fill-opacity:0;fill-rule:evenodd;stroke:rgb(0, 255, 14);stroke-width:1;" d="M 898.792, 557.101 L 899.459, 552.936 L 900.125, 552.936 L 902.291, 538.442 L 914.119, 539.442 L 911.287, 558.101 L 898.792, 557.101 z "/>
<path style="fill:rgb(255, 255, 0);fill-opacity:0;fill-rule:evenodd;stroke:rgb(0, 255, 14);stroke-width:1;" d="M 796.835, 742.191 L 799.5, 724.365 L 811.828, 725.531 L 809.163, 743.357 L 796.835, 742.191 z "/>
<path style="fill:rgb(255, 0, 0);fill-opacity:0;fill-rule:evenodd;stroke:rgb(0, 255, 14);stroke-width:1;" d="M 832.82, 745.356 L 835.485, 727.53 L 847.647, 728.696 L 844.981, 746.356 L 832.82, 745.356 z "/>
<path style="fill:rgb(0, 255, 0);fill-opacity:0;fill-rule:evenodd;stroke:rgb(0, 255, 14);stroke-width:1;" d="M 930.112, 90.9621 L 953.103, 83.7984 L 955.269, 87.9633 L 951.937, 90.4623 L 953.936, 93.9608 L 935.444, 99.7918 L 930.112, 90.9621 z "/>
<path style="fill:rgb(0, 0, 255);fill-opacity:0;fill-rule:evenodd;stroke:rgb(0, 255, 14);stroke-width:1;" d="M 783.673, 315.702 L 785.006, 307.039 L 805.331, 308.871 L 810.162, 317.201 L 801, 319.367 L 799.334, 317.035 L 783.673, 315.702 z "/>
<path style="fill:rgb(255, 255, 0);fill-opacity:0;fill-rule:evenodd;stroke:rgb(0, 255, 14);stroke-width:1;" d="M 283.549, 486.797 L 284.881, 478.301 L 309.704, 480.466 L 309.204, 483.798 L 308.372, 489.13 L 296.876, 487.963 L 283.549, 486.797 z "/>
<path style="fill:rgb(255, 0, 0);fill-opacity:0;fill-rule:evenodd;stroke:rgb(0, 255, 14);stroke-width:1;" d="M 270.387, 568.596 L 271.72, 560.1 L 285.048, 561.433 L 296.543, 562.432 L 295.544, 567.597 L 295.044, 570.929 L 270.387, 568.596 z "/>
<path style="fill:rgb(0, 255, 0);fill-opacity:0;fill-rule:evenodd;stroke:rgb(0, 255, 14);stroke-width:1;" d="M 938.609, 684.382 L 941.774, 663.723 L 951.937, 664.556 L 948.771, 685.381 L 938.609, 684.382 z "/>
<path style="fill:rgb(0, 0, 255);fill-opacity:0;fill-rule:evenodd;stroke:rgb(0, 255, 14);stroke-width:1;" d="M 891.462, 274.552 L 903.124, 270.554 L 911.953, 285.548 L 900.292, 289.546 L 891.462, 274.552 z "/>
<path style="fill:rgb(255, 255, 0);fill-opacity:0;fill-rule:evenodd;stroke:rgb(0, 255, 14);stroke-width:1;" d="M 821.158, 744.357 L 823.99, 726.531 L 835.485, 727.53 L 832.82, 745.356 L 821.158, 744.357 z "/>
<path style="fill:rgb(255, 0, 0);fill-opacity:0;fill-rule:evenodd;stroke:rgb(0, 255, 14);stroke-width:1;" d="M 872.803, 628.405 L 875.302, 611.745 L 887.464, 612.911 L 884.965, 629.571 L 872.803, 628.405 z "/>
<path style="fill:rgb(0, 255, 0);fill-opacity:0;fill-rule:evenodd;stroke:rgb(0, 255, 14);stroke-width:1;" d="M 844.815, 326.364 L 854.144, 323.532 L 864.973, 339.858 L 854.144, 343.357 L 844.815, 326.364 z "/>
<path style="fill:rgb(0, 0, 255);fill-opacity:0;fill-rule:evenodd;stroke:rgb(0, 255, 14);stroke-width:1;" d="M 784.673, 441.316 L 787.505, 423.99 L 798.667, 425.156 L 795.835, 442.482 L 784.673, 441.316 z "/>
<path style="fill:rgb(255, 255, 0);fill-opacity:0;fill-rule:evenodd;stroke:rgb(0, 255, 14);stroke-width:1;" d="M 731.362, 121.449 L 734.361, 103.457 L 742.024, 102.291 L 743.69, 109.621 L 745.856, 118.95 L 731.362, 121.449 z "/>
<path style="fill:rgb(255, 0, 0);fill-opacity:0;fill-rule:evenodd;stroke:rgb(0, 255, 14);stroke-width:1;" d="M 352.353, 252.895 L 353.686, 244.398 L 375.843, 246.564 L 374.344, 255.06 L 352.353, 252.895 z "/>
<path style="fill:rgb(0, 255, 0);fill-opacity:0;fill-rule:evenodd;stroke:rgb(0, 255, 14);stroke-width:1;" d="M 940.441, 108.122 L 959.933, 101.958 L 964.431, 110.454 L 945.273, 116.451 L 940.441, 108.122 z "/>
<path style="fill:rgb(0, 0, 255);fill-opacity:0;fill-rule:evenodd;stroke:rgb(0, 255, 14);stroke-width:1;" d="M 668.888, 325.698 L 672.387, 305.373 L 681.383, 306.206 L 677.884, 326.531 L 671.554, 325.864 L 668.888, 325.698 z "/>
<path style="fill:rgb(255, 255, 0);fill-opacity:0;fill-rule:evenodd;stroke:rgb(0, 255, 14);stroke-width:1;" d="M 960.933, 437.818 L 963.432, 422.324 L 975.094, 423.49 L 972.595, 438.984 L 960.933, 437.818 z "/>
<path style="fill:rgb(255, 0, 0);fill-opacity:0;fill-rule:evenodd;stroke:rgb(0, 255, 14);stroke-width:1;" d="M 883.465, 95.6268 L 893.628, 92.2949 L 902.124, 107.455 L 892.128, 110.787 L 883.465, 95.6268 z "/>
<path style="fill:rgb(0, 255, 0);fill-opacity:0;fill-rule:evenodd;stroke:rgb(0, 255, 14);stroke-width:1;" d="M 261.558, 167.93 L 264.556, 156.268 L 279.55, 157.934 L 276.718, 169.429 L 261.558, 167.93 z "/>
<path style="fill:rgb(0, 0, 255);fill-opacity:0;fill-rule:evenodd;stroke:rgb(0, 255, 14);stroke-width:1;" d="M 876.801, 749.188 L 878.967, 735.36 L 891.628, 736.526 L 889.463, 750.354 L 876.801, 749.188 z "/>
<path style="fill:rgb(255, 255, 0);fill-opacity:0;fill-rule:evenodd;stroke:rgb(0, 255, 14);stroke-width:1;" d="M 116.951, 188.421 L 119.95, 172.761 L 131.112, 173.761 L 128.113, 189.421 L 116.951, 188.421 z "/>
<path style="fill:rgb(255, 0, 0);fill-opacity:0;fill-rule:evenodd;stroke:rgb(0, 255, 14);stroke-width:1;" d="M 959.6, 72.1366 L 970.262, 68.8047 L 976.26, 79.6335 L 977.926, 82.9654 L 967.264, 86.2974 L 964.098, 80.4665 L 959.6, 72.1366 z "/>
<path style="fill:rgb(0, 255, 0);fill-opacity:0;fill-rule:evenodd;stroke:rgb(0, 255, 14);stroke-width:1;" d="M 950.104, 436.818 L 952.603, 421.324 L 963.432, 422.324 L 960.933, 437.818 L 950.104, 436.818 z "/>
<path style="fill:rgb(0, 0, 255);fill-opacity:0;fill-rule:evenodd;stroke:rgb(0, 255, 14);stroke-width:1;" d="M 939.442, 435.818 L 941.941, 420.325 L 952.603, 421.324 L 950.104, 436.818 L 939.442, 435.818 z "/>
<path style="fill:rgb(255, 255, 0);fill-opacity:0;fill-rule:evenodd;stroke:rgb(0, 255, 14);stroke-width:1;" d="M 295.044, 570.929 L 295.544, 567.597 L 345.356, 572.262 L 344.856, 575.594 L 295.044, 570.929 z "/>
<path style="fill:rgb(255, 0, 0);fill-opacity:0;fill-rule:evenodd;stroke:rgb(0, 255, 14);stroke-width:1;" d="M 309.204, 483.798 L 309.704, 480.466 L 359.35, 485.131 L 358.85, 488.463 L 309.204, 483.798 z "/>
<path style="fill:rgb(0, 255, 0);fill-opacity:0;fill-rule:evenodd;stroke:rgb(0, 255, 14);stroke-width:1;" d="M 131.778, 110.287 L 134.111, 97.7926 L 146.772, 98.9588 L 144.107, 111.62 L 131.778, 110.287 z "/>
<path style="fill:rgb(0, 0, 255);fill-opacity:0;fill-rule:evenodd;stroke:rgb(0, 255, 14);stroke-width:1;" d="M 382.507, 551.27 L 383.84, 543.107 L 384.34, 540.441 L 386.506, 526.281 L 387.005, 523.615 L 388.338, 515.618 L 392.67, 516.118 L 387.005, 551.603 L 382.507, 551.27 z "/>
<path style="fill:rgb(255, 255, 0);fill-opacity:0;fill-rule:evenodd;stroke:rgb(0, 255, 14);stroke-width:1;" d="M 785.006, 307.039 L 786.339, 297.876 L 799.667, 299.042 L 805.331, 308.871 L 785.006, 307.039 z "/>
<path style="fill:rgb(255, 0, 0);fill-opacity:0;fill-rule:evenodd;stroke:rgb(0, 255, 14);stroke-width:1;" d="M 319.534, 126.781 L 321.2, 116.285 L 335.86, 117.618 L 334.194, 128.113 L 319.534, 126.781 z "/>
<path style="fill:rgb(0, 255, 0);fill-opacity:0;fill-rule:evenodd;stroke:rgb(0, 255, 14);stroke-width:1;" d="M 248.73, 486.631 L 249.229, 483.465 L 283.549, 486.797 L 296.876, 487.963 L 296.377, 491.129 L 248.73, 486.631 z "/>
<path style="fill:rgb(0, 0, 255);fill-opacity:0;fill-rule:evenodd;stroke:rgb(0, 255, 14);stroke-width:1;" d="M 778.342, 129.779 L 788.505, 126.614 L 794.669, 132.611 L 787.005, 145.106 L 778.342, 129.779 z "/>
<path style="fill:rgb(255, 255, 0);fill-opacity:0;fill-rule:evenodd;stroke:rgb(0, 255, 14);stroke-width:1;" d="M 914.286, 595.918 L 915.618, 585.923 L 930.612, 587.089 L 929.279, 597.251 L 914.286, 595.918 z "/>
<path style="fill:rgb(255, 0, 0);fill-opacity:0;fill-rule:evenodd;stroke:rgb(0, 255, 14);stroke-width:1;" d="M 786.339, 297.876 L 788.505, 284.715 L 797.834, 285.548 L 798.334, 289.546 L 799.667, 299.042 L 786.339, 297.876 z "/>
<path style="fill:rgb(0, 255, 0);fill-opacity:0;fill-rule:evenodd;stroke:rgb(0, 255, 14);stroke-width:1;" d="M 237.401, 556.935 L 237.901, 553.769 L 285.548, 558.267 L 285.048, 561.433 L 271.72, 560.1 L 237.401, 556.935 z "/>
<path style="fill:rgb(0, 0, 255);fill-opacity:0;fill-rule:evenodd;stroke:rgb(0, 255, 14);stroke-width:1;" d="M 923.115, 717.534 L 924.781, 708.705 L 941.274, 710.537 L 939.775, 719.2 L 923.115, 717.534 z "/>
<path style="fill:rgb(255, 255, 0);fill-opacity:0;fill-rule:evenodd;stroke:rgb(0, 255, 14);stroke-width:1;" d="M 693.378, 318.867 L 695.21, 306.706 L 707.205, 307.705 L 705.206, 320.033 L 693.378, 318.867 z "/>
<path style="fill:rgb(255, 0, 0);fill-opacity:0;fill-rule:evenodd;stroke:rgb(0, 255, 14);stroke-width:1;" d="M 373.178, 566.264 L 373.344, 565.431 L 375.01, 554.769 L 375.177, 553.936 L 382.007, 554.602 L 386.506, 554.935 L 385.839, 558.101 L 385.006, 564.098 L 384.34, 567.264 L 373.178, 566.264 z "/>
<path style="fill:rgb(0, 255, 0);fill-opacity:0;fill-rule:evenodd;stroke:rgb(0, 255, 14);stroke-width:1;" d="M 363.515, 494.294 L 364.348, 488.963 L 364.848, 485.798 L 369.013, 486.131 L 376.843, 486.797 L 381.175, 487.297 L 379.675, 495.793 L 378.676, 495.627 L 364.515, 494.294 L 363.515, 494.294 z "/>
<path style="fill:rgb(0, 0, 255);fill-opacity:0;fill-rule:evenodd;stroke:rgb(0, 255, 14);stroke-width:1;" d="M 382.007, 511.62 L 382.174, 510.954 L 383.84, 500.292 L 384.007, 499.292 L 395.169, 500.458 L 394.669, 503.457 L 393.836, 509.454 L 393.17, 512.62 L 388.838, 512.287 L 382.007, 511.62 z "/>
<path style="fill:rgb(255, 255, 0);fill-opacity:0;fill-rule:evenodd;stroke:rgb(0, 255, 14);stroke-width:1;" d="M 350.187, 576.093 L 350.854, 572.761 L 351.687, 567.597 L 352.686, 567.763 L 366.847, 568.93 L 367.847, 569.096 L 366.514, 577.593 L 362.349, 577.259 L 354.352, 576.426 L 350.187, 576.093 z "/>
<path style="fill:rgb(255, 0, 0);fill-opacity:0;fill-rule:evenodd;stroke:rgb(0, 255, 14);stroke-width:1;" d="M 641.399, 554.102 L 642.566, 547.772 L 654.394, 548.938 L 653.894, 551.437 L 652.728, 559.434 L 650.729, 559.267 L 650.562, 560.766 L 641.399, 559.933 L 642.399, 554.269 L 641.399, 554.102 z "/>
<path style="fill:rgb(0, 255, 0);fill-opacity:0;fill-rule:evenodd;stroke:rgb(0, 255, 14);stroke-width:1;" d="M 242.232, 242.899 L 244.232, 231.404 L 254.227, 232.403 L 252.395, 243.898 L 242.232, 242.899 z "/>
<path style="fill:rgb(0, 0, 255);fill-opacity:0;fill-rule:evenodd;stroke:rgb(0, 255, 14);stroke-width:1;" d="M 280.883, 322.032 L 282.216, 314.369 L 297.543, 315.702 L 296.21, 323.365 L 280.883, 322.032 z "/>
<path style="fill:rgb(255, 255, 0);fill-opacity:0;fill-rule:evenodd;stroke:rgb(0, 255, 14);stroke-width:1;" d="M 714.702, 348.188 L 723.032, 296.043 L 725.198, 296.21 L 716.868, 348.355 L 714.702, 348.188 z "/>
<path style="fill:rgb(255, 0, 0);fill-opacity:0;fill-rule:evenodd;stroke:rgb(0, 255, 14);stroke-width:1;" d="M 782.007, 326.197 L 783.673, 315.702 L 799.334, 317.035 L 801, 319.367 L 782.007, 326.197 z "/>
<path style="fill:rgb(0, 255, 0);fill-opacity:0;fill-rule:evenodd;stroke:rgb(0, 255, 14);stroke-width:1;" d="M 369.18, 132.445 L 371.012, 120.95 L 380.675, 121.783 L 378.842, 133.278 L 369.18, 132.445 z "/>
<path style="fill:rgb(0, 0, 255);fill-opacity:0;fill-rule:evenodd;stroke:rgb(0, 255, 14);stroke-width:1;" d="M 654.227, 272.22 L 654.561, 270.054 L 703.873, 274.719 L 703.54, 276.718 L 654.227, 272.22 z "/>
<path style="fill:rgb(255, 255, 0);fill-opacity:0;fill-rule:evenodd;stroke:rgb(0, 255, 14);stroke-width:1;" d="M 384.506, 496.293 L 385.839, 487.63 L 397.168, 488.796 L 395.668, 497.293 L 384.506, 496.293 z "/>
<path style="fill:rgb(255, 0, 0);fill-opacity:0;fill-rule:evenodd;stroke:rgb(0, 255, 14);stroke-width:1;" d="M 371.179, 578.092 L 372.678, 569.596 L 383.84, 570.596 L 382.507, 579.092 L 371.179, 578.092 z "/>
<path style="fill:rgb(0, 255, 0);fill-opacity:0;fill-rule:evenodd;stroke:rgb(0, 255, 14);stroke-width:1;" d="M 934.777, 709.538 L 936.277, 700.208 L 945.939, 701.041 L 945.773, 702.207 L 944.44, 710.371 L 934.777, 709.538 z "/>
<path style="fill:rgb(0, 0, 255);fill-opacity:0;fill-rule:evenodd;stroke:rgb(0, 255, 14);stroke-width:1;" d="M 758.85, 476.801 L 767.847, 420.491 L 769.513, 420.658 L 760.35, 476.968 L 758.85, 476.801 z "/>
<path style="fill:rgb(255, 255, 0);fill-opacity:0;fill-rule:evenodd;stroke:rgb(0, 255, 14);stroke-width:1;" d="M 951.27, 74.8022 L 959.6, 72.1366 L 964.098, 80.4665 L 955.768, 82.9654 L 951.27, 74.8022 z "/>
<path style="fill:rgb(255, 0, 0);fill-opacity:0;fill-rule:evenodd;stroke:rgb(0, 255, 14);stroke-width:1;" d="M 375.177, 553.936 L 377.01, 542.441 L 383.84, 543.107 L 382.507, 551.27 L 382.007, 554.602 L 375.177, 553.936 z "/>
<path style="fill:rgb(0, 255, 0);fill-opacity:0;fill-rule:evenodd;stroke:rgb(0, 255, 14);stroke-width:1;" d="M 653.061, 579.259 L 653.394, 577.259 L 654.061, 572.761 L 666.222, 573.928 L 665.223, 580.425 L 653.061, 579.259 z "/>
<path style="fill:rgb(0, 0, 255);fill-opacity:0;fill-rule:evenodd;stroke:rgb(0, 255, 14);stroke-width:1;" d="M 380.175, 522.949 L 382.007, 511.62 L 388.838, 512.287 L 388.338, 515.618 L 387.005, 523.615 L 380.175, 522.949 z "/>
<path style="fill:rgb(255, 255, 0);fill-opacity:0;fill-rule:evenodd;stroke:rgb(0, 255, 14);stroke-width:1;" d="M 793.836, 407.497 L 794.002, 406.331 L 856.31, 412.328 L 856.143, 413.328 L 793.836, 407.497 z "/>
<path style="fill:rgb(255, 0, 0);fill-opacity:0;fill-rule:evenodd;stroke:rgb(0, 255, 14);stroke-width:1;" d="M 640.067, 359.85 L 640.4, 358.517 L 689.546, 363.015 L 689.379, 364.515 L 640.067, 359.85 z "/>
<path style="fill:rgb(0, 255, 0);fill-opacity:0;fill-rule:evenodd;stroke:rgb(0, 255, 14);stroke-width:1;" d="M 195.585, 729.196 L 196.418, 723.865 L 208.58, 725.031 L 207.747, 730.362 L 195.585, 729.196 z "/>
<path style="fill:rgb(0, 0, 255);fill-opacity:0;fill-rule:evenodd;stroke:rgb(0, 255, 14);stroke-width:1;" d="M 156.268, 740.858 L 157.268, 735.527 L 169.429, 736.693 L 168.43, 742.024 L 156.268, 740.858 z "/>
<path style="fill:rgb(255, 255, 0);fill-opacity:0;fill-rule:evenodd;stroke:rgb(0, 255, 14);stroke-width:1;" d="M 498.459, 539.275 L 499.625, 532.611 L 509.121, 533.444 L 508.122, 540.108 L 498.459, 539.275 z "/>
<path style="fill:rgb(255, 0, 0);fill-opacity:0;fill-rule:evenodd;stroke:rgb(0, 255, 14);stroke-width:1;" d="M 289.546, 527.28 L 290.379, 521.283 L 301.208, 522.282 L 300.375, 528.28 L 289.546, 527.28 z "/>
<path style="fill:rgb(0, 255, 0);fill-opacity:0;fill-rule:evenodd;stroke:rgb(0, 255, 14);stroke-width:1;" d="M 309.038, 137.276 L 309.204, 136.277 L 309.871, 135.444 L 310.537, 134.777 L 311.537, 134.277 L 312.703, 133.944 L 314.036, 133.778 L 315.035, 133.778 L 316.368, 134.111 L 317.368, 134.611 L 318.201, 135.277 L 318.867, 136.277 L 319.2, 136.943 L 319.2, 137.943 L 319.034, 138.776 L 318.367, 139.775 L 317.701, 140.441 L 316.701, 141.108 L 315.369, 141.441 L 314.536, 141.441 L 313.036, 141.441 L 311.87, 141.108 L 310.87, 140.608 L 309.871, 139.942 L 309.371, 139.109 L 309.038, 138.109 L 309.038, 137.276 z "/>
<path style="fill:rgb(0, 0, 255);fill-opacity:0;fill-rule:evenodd;stroke:rgb(0, 255, 14);stroke-width:1;" d="M 854.977, 421.158 L 855.144, 419.992 L 902.124, 424.323 L 901.958, 425.656 L 854.977, 421.158 z "/>
<path style="fill:rgb(255, 255, 0);fill-opacity:0;fill-rule:evenodd;stroke:rgb(0, 255, 14);stroke-width:1;" d="M 645.731, 558.767 L 646.897, 550.937 L 653.894, 551.437 L 652.728, 559.434 L 650.729, 559.267 L 645.731, 558.767 z "/>
<path style="fill:rgb(255, 0, 0);fill-opacity:0;fill-rule:evenodd;stroke:rgb(0, 255, 14);stroke-width:1;" d="M 847.813, 432.486 L 847.98, 431.653 L 848.48, 430.82 L 849.146, 430.154 L 850.146, 429.654 L 851.145, 429.488 L 852.312, 429.321 L 853.311, 429.321 L 854.477, 429.654 L 855.31, 430.154 L 856.143, 430.654 L 856.643, 431.487 L 856.976, 432.32 L 856.976, 433.153 L 856.81, 433.986 L 856.31, 434.652 L 855.643, 435.319 L 854.644, 435.818 L 853.644, 436.152 L 852.478, 436.318 L 851.479, 436.318 L 850.312, 435.985 L 849.479, 435.485 L 848.646, 434.819 L 848.147, 434.152 L 847.813, 433.319 L 847.813, 432.486 z "/>
<path style="fill:rgb(0, 255, 0);fill-opacity:0;fill-rule:evenodd;stroke:rgb(0, 255, 14);stroke-width:1;" d="M 866.639, 434.319 L 866.972, 433.486 L 867.472, 432.653 L 868.138, 431.987 L 868.971, 431.487 L 870.137, 431.154 L 871.137, 430.987 L 872.303, 431.154 L 873.303, 431.487 L 874.302, 431.82 L 875.135, 432.486 L 875.635, 433.153 L 875.968, 433.986 L 875.968, 434.819 L 875.635, 435.652 L 875.135, 436.485 L 874.469, 437.151 L 873.636, 437.651 L 872.636, 437.984 L 871.47, 438.151 L 870.304, 437.984 L 869.304, 437.818 L 868.305, 437.318 L 867.638, 436.651 L 866.972, 435.985 L 866.639, 435.152 L 866.639, 434.319 z "/>
<path style="fill:rgb(0, 0, 255);fill-opacity:0;fill-rule:evenodd;stroke:rgb(0, 255, 14);stroke-width:1;" d="M 778.842, 495.96 L 779.009, 494.461 L 808.163, 497.126 L 807.83, 498.792 L 778.842, 495.96 z "/>
<path style="fill:rgb(255, 255, 0);fill-opacity:0;fill-rule:evenodd;stroke:rgb(0, 255, 14);stroke-width:1;" d="M 388.838, 90.7955 L 396.335, 45.6476 L 393.003, 45.3145 L 400.5, 0 L 475.469, 7.16368 L 460.641, 97.626 L 388.838, 90.7955 z "/>
<path style="fill:rgb(255, 0, 0);fill-opacity:0;fill-rule:evenodd;stroke:rgb(0, 255, 14);stroke-width:1;" d="M 140.608, 67.3053 L 144.94, 44.4815 L 191.92, 48.9796 L 203.582, 50.1458 L 216.077, 51.312 L 240.733, 53.8109 L 251.395, 54.8105 L 245.231, 77.4677 L 140.608, 67.3053 z "/>
<path style="fill:rgb(0, 255, 0);fill-opacity:0;fill-rule:evenodd;stroke:rgb(0, 255, 14);stroke-width:1;" d="M 364.848, 88.4631 L 372.178, 43.3153 L 377.843, 43.8151 L 393.003, 45.3145 L 396.335, 45.6476 L 388.838, 90.7955 L 364.848, 88.4631 z "/>
<path style="fill:rgb(0, 0, 255);fill-opacity:0;fill-rule:evenodd;stroke:rgb(0, 255, 14);stroke-width:1;" d="M 912.12, 56.4765 L 919.95, 53.9775 L 937.943, 47.98 L 947.105, 44.8147 L 948.272, 44.4815 L 949.604, 46.8138 L 953.769, 54.1441 L 920.783, 64.4731 L 915.952, 63.1404 L 912.12, 56.4765 z "/>
<path style="fill:rgb(255, 255, 0);fill-opacity:0;fill-rule:evenodd;stroke:rgb(0, 255, 14);stroke-width:1;" d="M 291.212, 56.6431 L 293.878, 47.4802 L 320.2, 49.646 L 318.867, 59.142 L 291.212, 56.6431 z "/>
<path style="fill:rgb(255, 0, 0);fill-opacity:0;fill-rule:evenodd;stroke:rgb(0, 255, 14);stroke-width:1;" d="M 0, 790.837 L 27.1554, 649.063 L 63.4736, 459.642 L 77.4677, 387.005 L 82.9654, 358.017 L 94.7938, 359.184 L 103.623, 339.359 L 155.768, 344.523 L 156.601, 366.347 L 168.263, 367.514 L 163.432, 396.168 L 151.104, 469.971 L 119.284, 659.225 L 95.7934, 800 L 0, 790.837 z "/>
<path style="fill:rgb(0, 255, 0);fill-opacity:0;fill-rule:evenodd;stroke:rgb(0, 255, 14);stroke-width:1;" d="M 27.1554, 649.063 L 63.4736, 459.642 L 78.4673, 461.474 L 76.4681, 456.31 L 76.1349, 450.146 L 85.631, 399 L 149.771, 406.164 L 142.274, 457.976 L 139.275, 463.807 L 135.277, 468.138 L 151.104, 469.971 L 119.284, 659.225 L 84.4648, 655.394 L 63.307, 762.349 L 55.1437, 761.516 L 56.8097, 751.354 L 51.9783, 750.854 L 50.1458, 761.016 L 41.8159, 760.183 L 63.1404, 653.061 L 27.1554, 649.063 z "/>
<path style="fill:rgb(0, 0, 255);fill-opacity:0;fill-rule:evenodd;stroke:rgb(0, 255, 14);stroke-width:1;" d="M 0, 790.837 L 27.1554, 649.063 L 63.1404, 653.061 L 41.8159, 760.183 L 38.484, 778.676 L 60.1416, 780.841 L 63.307, 762.349 L 84.4648, 655.394 L 119.284, 659.225 L 95.7934, 800 L 0, 790.837 z "/>
<path style="fill:rgb(255, 255, 0);fill-opacity:0;fill-rule:evenodd;stroke:rgb(0, 255, 14);stroke-width:1;" d="M 27.1554, 649.063 L 63.4736, 459.642 L 78.4673, 461.474 L 76.4681, 456.31 L 76.1349, 450.146 L 85.631, 399 L 149.771, 406.164 L 142.274, 457.976 L 139.275, 463.807 L 135.277, 468.138 L 151.104, 469.971 L 119.284, 659.225 L 84.4648, 655.394 L 63.307, 762.349 L 55.1437, 761.516 L 56.8097, 751.354 L 51.9783, 750.854 L 50.1458, 761.016 L 41.8159, 760.183 L 63.1404, 653.061 L 27.1554, 649.063 z "/>
<path style="fill:rgb(255, 0, 0);fill-opacity:0;fill-rule:evenodd;stroke:rgb(0, 255, 14);stroke-width:1;" d="M 0, 790.837 L 27.1554, 649.063 L 63.1404, 653.061 L 41.8159, 760.183 L 38.484, 778.676 L 60.1416, 780.841 L 63.307, 762.349 L 84.4648, 655.394 L 119.284, 659.225 L 95.7934, 800 L 0, 790.837 z "/>
<path style="fill:rgb(0, 255, 0);fill-opacity:0;fill-rule:evenodd;stroke:rgb(0, 255, 14);stroke-width:1;" d="M 38.484, 778.676 L 41.8159, 760.183 L 50.1458, 761.016 L 51.9783, 750.854 L 56.8097, 751.354 L 55.1437, 761.516 L 63.307, 762.349 L 60.1416, 780.841 L 38.484, 778.676 z "/>
<path style="fill:rgb(0, 0, 255);fill-opacity:0;fill-rule:evenodd;stroke:rgb(0, 255, 14);stroke-width:1;" d="M 38.484, 778.676 L 41.8159, 760.183 L 50.1458, 761.016 L 51.9783, 750.854 L 56.8097, 751.354 L 55.1437, 761.516 L 63.307, 762.349 L 60.1416, 780.841 L 38.484, 778.676 z "/>
<path style="fill:rgb(255, 255, 0);fill-opacity:0;fill-rule:evenodd;stroke:rgb(0, 255, 14);stroke-width:1;" d="M 36.1516, 792.003 L 38.484, 778.676 L 60.1416, 780.841 L 57.8092, 794.169 L 36.1516, 792.003 z "/>
<path style="fill:rgb(255, 0, 0);fill-opacity:0;fill-rule:evenodd;stroke:rgb(0, 255, 14);stroke-width:1;" d="M 36.1516, 792.003 L 38.484, 778.676 L 60.1416, 780.841 L 57.8092, 794.169 L 36.1516, 792.003 z "/>
</svg>