<?xml version="1.0" encoding="iso-8859-1" standalone="no"?>
<!DOCTYPE svg PUBLIC "-//W3C//DTD SVG 1.0//EN" "http://www.w3.org/TR/2001/REC-SVG-20010904/DTD/svg10.dtd">
<svg xmlns="http://www.w3.org/2000/svg" width="300" height="84">
<path style="fill:rgb(255, 0, 0);fill-opacity:1.0;fill-rule:evenodd;stroke:rgb(0, 0, 0);stroke-width:1.0;" d="M 44.2279, 23.252 L 41.9488, 23.364 L 39.6917, 23.6988 L 37.4782, 24.2532 L 35.3298, 25.022 L 33.267, 25.9976 L 31.3098, 27.1707 L 29.477, 28.53 L 27.7863, 30.0624 L 26.2539, 31.7531 L 24.8946, 33.5859 L 23.7215, 35.5431 L 22.7459, 37.6059 L 21.9772, 39.7543 L 21.4227, 41.9678 L 21.0879, 44.2249 L 20.9759, 46.504 L 21.0879, 48.7831 L 21.4227, 51.0403 L 21.9772, 53.2537 L 22.7459, 55.4022 L 23.7215, 57.4649 L 24.8946, 59.4221 L 26.2539, 61.2549 L 27.7863, 62.9457 L 29.477, 64.4781 L 31.3098, 65.8373 L 33.267, 67.0104 L 35.3298, 67.9861 L 37.4782, 68.7548 L 39.6917, 69.3092 L 41.9488, 69.6441 L 44.2279, 69.756 L 46.507, 69.6441 L 48.7642, 69.3092 L 50.9776, 68.7548 L 53.1261, 67.9861 L 55.1889, 67.0104 L 57.1461, 65.8373 L 58.9789, 64.4781 L 60.6696, 62.9457 L 62.202, 61.2549 L 63.5613, 59.4221 L 64.7344, 57.4649 L 65.71, 55.4022 L 66.4787, 53.2537 L 67.0332, 51.0403 L 67.368, 48.7831 L 67.4799, 46.504 L 67.368, 44.2249 L 67.0332, 41.9678 L 66.4787, 39.7543 L 65.71, 37.6059 L 64.7344, 35.5431 L 63.5613, 33.5859 L 62.202, 31.7531 L 60.6696, 30.0624 L 58.9789, 28.53 L 57.1461, 27.1707 L 55.1889, 25.9976 L 53.1261, 25.022 L 50.9776, 24.2532 L 48.7642, 23.6988 L 46.507, 23.364 z M 63.362, 20.1682 L 88.4559, 32.1335 L 75.1875, 56.5634 L 71.5623, 84.1265 L 44.2279, 79.0568 L 16.8936, 84.1265 L 13.2684, 56.5634 L 0, 32.1335 L 25.0939, 20.1682 L 44.2279, 0 z "/>
<path style="fill:rgb(0, 255, 0);fill-opacity:1.0;fill-rule:evenodd;stroke:rgb(0, 0, 0);stroke-width:1.0;" d="M 160.488, 0 L 179.622, 20.1682 L 204.716, 32.1335 L 191.448, 56.5634 L 187.822, 84.1265 L 160.488, 79.0568 L 133.154, 84.1265 L 129.528, 56.5634 L 116.26, 32.1335 L 141.354, 20.1682 z "/>
<path style="fill:rgb(0, 0, 255);fill-opacity:1.0;fill-rule:evenodd;stroke:rgb(0, 0, 0);stroke-width:1.0;" d="M 276.748, 23.252 L 279.027, 23.364 L 281.284, 23.6988 L 283.498, 24.2532 L 285.646, 25.022 L 287.709, 25.9976 L 289.666, 27.1707 L 291.499, 28.53 L 293.19, 30.0624 L 294.722, 31.7531 L 296.081, 33.5859 L 297.254, 35.5431 L 298.23, 37.6059 L 298.999, 39.7543 L 299.553, 41.9678 L 299.888, 44.2249 L 300, 46.504 L 299.888, 48.7831 L 299.553, 51.0403 L 298.999, 53.2537 L 298.23, 55.4022 L 297.254, 57.4649 L 296.081, 59.4221 L 294.722, 61.2549 L 293.19, 62.9457 L 291.499, 64.4781 L 289.666, 65.8373 L 287.709, 67.0104 L 285.646, 67.9861 L 283.498, 68.7548 L 281.284, 69.3092 L 279.027, 69.6441 L 276.748, 69.756 L 274.469, 69.6441 L 272.212, 69.3092 L 269.998, 68.7548 L 267.85, 67.9861 L 265.787, 67.0104 L 263.83, 65.8373 L 261.997, 64.4781 L 260.306, 62.9457 L 258.774, 61.2549 L 257.415, 59.4221 L 256.242, 57.4649 L 255.266, 55.4022 L 254.497, 53.2537 L 253.943, 51.0403 L 253.608, 48.7831 L 253.496, 46.504 L 253.608, 44.2249 L 253.943, 41.9678 L 254.497, 39.7543 L 255.266, 37.6059 L 256.242, 35.5431 L 257.415, 33.5859 L 258.774, 31.7531 L 260.306, 30.0624 L 261.997, 28.53 L 263.83, 27.1707 L 265.787, 25.9976 L 267.85, 25.022 L 269.998, 24.2532 L 272.212, 23.6988 L 274.469, 23.364 z "/>
</svg>