<?xml version="1.0" encoding="iso-8859-1" standalone="no"?>
<!DOCTYPE svg PUBLIC "-//W3C//DTD SVG 1.0//EN" "http://www.w3.org/TR/2001/REC-SVG-20010904/DTD/svg10.dtd">
<svg xmlns="http://www.w3.org/2000/svg" width="2146" height="400">
<path style="fill:rgb(255, 0, 0);fill-opacity:1.0;fill-rule:evenodd;stroke:rgb(0, 0, 0);stroke-width:1.0;" d="M 223.789, 31.7181 L 232.599, 35.2423 L 237.885, 33.4802 L 241.41, 26.4317 L 241.41, 21.1454 L 246.696, 24.6696 L 253.744, 26.4317 L 257.269, 22.9075 L 266.079, 17.6211 L 271.366, 17.6211 L 274.89, 17.6211 L 278.414, 17.6211 L 285.463, 21.1454 L 290.749, 19.3833 L 294.273, 19.3833 L 296.035, 29.9559 L 294.273, 37.0044 L 297.797, 38.7665 L 299.559, 40.5286 L 299.559, 47.5771 L 303.084, 49.3392 L 308.37, 54.6256 L 308.37, 56.3877 L 308.37, 61.674 L 311.894, 61.674 L 313.656, 68.7225 L 313.656, 68.7225 L 310.132, 61.674 L 311.894, 58.1498 L 313.656, 59.9119 L 315.419, 61.674 L 317.181, 65.1982 L 315.419, 72.2467 L 313.656, 74.0088 L 304.846, 77.533 L 301.322, 84.5815 L 301.322, 86.3436 L 304.846, 84.5815 L 311.894, 75.7709 L 318.943, 77.533 L 322.467, 77.533 L 324.229, 84.5815 L 329.515, 89.8678 L 327.753, 95.1542 L 331.278, 98.6784 L 327.753, 105.727 L 327.753, 109.251 L 327.753, 111.013 L 327.753, 114.537 L 324.229, 114.537 L 324.229, 114.537 L 322.467, 107.489 L 324.229, 102.203 L 324.229, 96.9163 L 322.467, 95.1542 L 317.181, 89.8678 L 315.419, 89.8678 L 313.656, 95.1542 L 317.181, 95.1542 L 315.419, 96.9163 L 317.181, 98.6784 L 318.943, 105.727 L 311.894, 112.775 L 320.705, 109.251 L 322.467, 114.537 L 324.229, 116.3 L 320.705, 119.824 L 315.419, 125.11 L 313.656, 123.348 L 310.132, 121.586 L 303.084, 126.872 L 303.084, 133.921 L 301.322, 140.969 L 290.749, 146.256 L 287.225, 146.256 L 288.987, 142.731 L 283.7, 140.969 L 281.938, 140.969 L 278.414, 139.207 L 281.938, 140.969 L 283.7, 146.256 L 285.463, 146.256 L 287.225, 148.018 L 281.938, 151.542 L 273.128, 146.256 L 271.366, 146.256 L 271.366, 146.256 L 271.366, 149.78 L 269.604, 156.828 L 271.366, 160.352 L 276.652, 160.352 L 276.652, 167.401 L 278.414, 170.925 L 278.414, 174.449 L 278.414, 181.498 L 278.414, 185.022 L 287.225, 193.833 L 285.463, 199.119 L 281.938, 207.93 L 283.7, 213.216 L 287.225, 213.216 L 288.987, 216.74 L 281.938, 213.216 L 280.176, 216.74 L 278.414, 216.74 L 280.176, 222.026 L 283.7, 225.551 L 283.7, 232.599 L 287.225, 243.172 L 285.463, 255.507 L 290.749, 257.269 L 285.463, 269.604 L 281.938, 273.128 L 278.414, 280.176 L 273.128, 288.987 L 274.89, 299.559 L 264.317, 317.181 L 262.555, 320.705 L 259.031, 318.943 L 259.031, 320.705 L 259.031, 324.229 L 260.793, 325.991 L 260.793, 324.229 L 260.793, 331.278 L 264.317, 334.802 L 260.793, 340.088 L 259.031, 340.088 L 260.793, 338.326 L 255.507, 340.088 L 255.507, 338.326 L 253.744, 338.326 L 246.696, 340.088 L 239.648, 333.04 L 234.361, 336.564 L 236.123, 333.04 L 234.361, 333.04 L 232.599, 333.04 L 230.837, 334.802 L 232.599, 338.326 L 230.837, 338.326 L 227.313, 341.85 L 223.789, 345.374 L 223.789, 343.612 L 227.313, 341.85 L 227.313, 338.326 L 225.551, 334.802 L 223.789, 333.04 L 222.026, 327.753 L 223.789, 334.802 L 222.026, 338.326 L 223.789, 338.326 L 220.264, 343.612 L 213.216, 341.85 L 216.74, 336.564 L 213.216, 336.564 L 213.216, 336.564 L 213.216, 340.088 L 209.692, 340.088 L 207.93, 341.85 L 192.07, 341.85 L 185.022, 343.612 L 185.022, 345.374 L 181.498, 343.612 L 179.736, 345.374 L 181.498, 348.899 L 185.022, 350.661 L 183.26, 350.661 L 183.26, 354.185 L 174.449, 354.185 L 172.687, 359.471 L 169.163, 359.471 L 165.639, 359.471 L 163.877, 355.947 L 162.115, 359.471 L 160.352, 359.471 L 162.115, 364.758 L 155.066, 366.52 L 151.542, 370.044 L 153.304, 371.806 L 142.731, 373.568 L 137.445, 371.806 L 137.445, 370.044 L 142.731, 368.282 L 144.493, 364.758 L 135.683, 366.52 L 130.396, 362.996 L 128.634, 366.52 L 132.159, 366.52 L 135.683, 370.044 L 133.921, 373.568 L 133.921, 375.33 L 130.396, 380.617 L 125.11, 380.617 L 123.348, 382.379 L 118.062, 380.617 L 119.824, 382.379 L 116.3, 385.903 L 116.3, 391.189 L 114.537, 389.427 L 107.489, 389.427 L 105.727, 396.476 L 102.203, 396.476 L 102.203, 392.952 L 95.1542, 391.189 L 93.3921, 398.238 L 89.8678, 398.238 L 89.8678, 398.238 L 86.3436, 392.952 L 81.0573, 396.476 L 77.533, 391.189 L 79.2952, 396.476 L 74.0088, 396.476 L 74.0088, 394.714 L 74.0088, 400 L 72.2467, 400 L 70.4846, 400 L 72.2467, 400 L 68.7225, 398.238 L 68.7225, 400 L 65.1982, 400 L 63.4361, 400 L 61.674, 398.238 L 63.4361, 392.952 L 59.9119, 387.665 L 59.9119, 391.189 L 56.3877, 392.952 L 52.8634, 391.189 L 52.8634, 396.476 L 51.1013, 396.476 L 49.3392, 398.238 L 47.5771, 396.476 L 47.5771, 391.189 L 42.2907, 396.476 L 44.0529, 396.476 L 38.7665, 398.238 L 38.7665, 394.714 L 35.2423, 398.238 L 35.2423, 394.714 L 35.2423, 394.714 L 42.2907, 389.427 L 47.5771, 389.427 L 54.6256, 382.379 L 52.8634, 382.379 L 37.0044, 389.427 L 35.2423, 389.427 L 38.7665, 385.903 L 42.2907, 382.379 L 61.674, 377.093 L 61.674, 377.093 L 61.674, 375.33 L 59.9119, 373.568 L 58.1498, 370.044 L 56.3877, 368.282 L 56.3877, 370.044 L 52.8634, 377.093 L 31.7181, 378.855 L 29.9559, 380.617 L 22.9075, 380.617 L 21.1454, 380.617 L 17.6211, 380.617 L 15.859, 380.617 L 15.859, 380.617 L 15.859, 378.855 L 21.1454, 380.617 L 21.1454, 377.093 L 19.3833, 375.33 L 21.1454, 375.33 L 28.1938, 373.568 L 29.9559, 370.044 L 26.4317, 370.044 L 28.1938, 366.52 L 33.4802, 364.758 L 35.2423, 366.52 L 35.2423, 364.758 L 42.2907, 364.758 L 38.7665, 362.996 L 44.0529, 357.709 L 49.3392, 355.947 L 54.6256, 357.709 L 45.815, 355.947 L 40.5286, 359.471 L 37.0044, 359.471 L 35.2423, 361.233 L 33.4802, 359.471 L 17.6211, 366.52 L 17.6211, 364.758 L 12.3348, 362.996 L 14.0969, 361.233 L 15.859, 357.709 L 14.0969, 354.185 L 10.5727, 355.947 L 5.28634, 359.471 L 7.04846, 352.423 L 3.52423, 352.423 L 1.76211, 348.899 L 10.5727, 347.137 L 12.3348, 348.899 L 10.5727, 345.374 L 8.81057, 343.612 L 12.3348, 341.85 L 12.3348, 340.088 L 29.9559, 334.802 L 33.4802, 329.515 L 33.4802, 333.04 L 35.2423, 334.802 L 38.7665, 325.991 L 40.5286, 327.753 L 45.815, 327.753 L 38.7665, 324.229 L 33.4802, 324.229 L 33.4802, 327.753 L 31.7181, 324.229 L 19.3833, 327.753 L 15.859, 324.229 L 12.3348, 324.229 L 10.5727, 324.229 L 14.0969, 325.991 L 12.3348, 327.753 L 5.28634, 324.229 L 8.81057, 325.991 L 3.52423, 325.991 L 0, 324.229 L 0, 322.467 L 0, 320.705 L 1.76211, 318.943 L 0, 317.181 L 3.52423, 317.181 L 3.52423, 318.943 L 7.04846, 318.943 L 7.04846, 311.894 L 10.5727, 313.656 L 14.0969, 310.132 L 21.1454, 308.37 L 21.1454, 313.656 L 26.4317, 315.419 L 29.9559, 308.37 L 28.1938, 306.608 L 31.7181, 304.846 L 29.9559, 310.132 L 35.2423, 315.419 L 40.5286, 315.419 L 42.2907, 315.419 L 42.2907, 315.419 L 47.5771, 315.419 L 47.5771, 313.656 L 38.7665, 311.894 L 38.7665, 306.608 L 42.2907, 308.37 L 42.2907, 306.608 L 44.0529, 301.322 L 37.0044, 297.797 L 37.0044, 296.035 L 49.3392, 294.273 L 54.6256, 288.987 L 58.1498, 292.511 L 56.3877, 288.987 L 54.6256, 288.987 L 54.6256, 288.987 L 56.3877, 283.7 L 59.9119, 281.938 L 68.7225, 285.463 L 68.7225, 283.7 L 77.533, 285.463 L 93.3921, 280.176 L 93.3921, 283.7 L 96.9163, 283.7 L 100.441, 278.414 L 107.489, 280.176 L 109.251, 278.414 L 114.537, 278.414 L 105.727, 274.89 L 100.441, 274.89 L 100.441, 273.128 L 98.6784, 267.841 L 93.3921, 269.604 L 93.3921, 273.128 L 86.3436, 281.938 L 81.0573, 280.176 L 77.533, 285.463 L 75.7709, 281.938 L 79.2952, 278.414 L 70.4846, 280.176 L 65.1982, 278.414 L 63.4361, 274.89 L 61.674, 273.128 L 63.4361, 278.414 L 54.6256, 278.414 L 54.6256, 281.938 L 42.2907, 280.176 L 38.7665, 280.176 L 45.815, 278.414 L 56.3877, 269.604 L 61.674, 264.317 L 66.9604, 264.317 L 66.9604, 259.031 L 70.4846, 257.269 L 70.4846, 250.22 L 77.533, 246.696 L 75.7709, 246.696 L 68.7225, 244.934 L 68.7225, 244.934 L 72.2467, 243.172 L 82.8194, 227.313 L 89.8678, 229.075 L 95.1542, 227.313 L 93.3921, 227.313 L 100.441, 227.313 L 95.1542, 227.313 L 102.203, 227.313 L 102.203, 227.313 L 103.965, 229.075 L 103.965, 229.075 L 103.965, 225.551 L 107.489, 220.264 L 103.965, 222.026 L 100.441, 220.264 L 102.203, 218.502 L 103.965, 216.74 L 105.727, 216.74 L 105.727, 213.216 L 98.6784, 213.216 L 89.8678, 216.74 L 70.4846, 216.74 L 66.9604, 214.978 L 66.9604, 207.93 L 66.9604, 209.692 L 65.1982, 214.978 L 65.1982, 214.978 L 65.1982, 211.454 L 65.1982, 207.93 L 65.1982, 204.405 L 65.1982, 204.405 L 66.9604, 204.405 L 65.1982, 202.643 L 65.1982, 204.405 L 65.1982, 202.643 L 63.4361, 202.643 L 65.1982, 200.881 L 63.4361, 200.881 L 59.9119, 204.405 L 58.1498, 206.167 L 52.8634, 202.643 L 49.3392, 202.643 L 51.1013, 199.119 L 49.3392, 199.119 L 58.1498, 195.595 L 58.1498, 195.595 L 56.3877, 195.595 L 56.3877, 193.833 L 51.1013, 193.833 L 51.1013, 193.833 L 51.1013, 193.833 L 49.3392, 193.833 L 47.5771, 193.833 L 45.815, 197.357 L 40.5286, 193.833 L 38.7665, 192.07 L 35.2423, 193.833 L 33.4802, 190.308 L 31.7181, 192.07 L 35.2423, 185.022 L 40.5286, 186.784 L 37.0044, 183.26 L 37.0044, 179.736 L 35.2423, 177.974 L 31.7181, 176.211 L 38.7665, 177.974 L 38.7665, 174.449 L 45.815, 176.211 L 42.2907, 169.163 L 52.8634, 169.163 L 52.8634, 163.877 L 54.6256, 158.59 L 61.674, 155.066 L 68.7225, 156.828 L 72.2467, 153.304 L 68.7225, 153.304 L 70.4846, 151.542 L 68.7225, 151.542 L 70.4846, 146.256 L 70.4846, 146.256 L 72.2467, 144.493 L 61.674, 144.493 L 58.1498, 144.493 L 52.8634, 144.493 L 52.8634, 144.493 L 54.6256, 135.683 L 59.9119, 139.207 L 61.674, 140.969 L 61.674, 140.969 L 61.674, 133.921 L 59.9119, 133.921 L 59.9119, 137.445 L 59.9119, 133.921 L 59.9119, 132.159 L 56.3877, 128.634 L 56.3877, 125.11 L 59.9119, 123.348 L 58.1498, 123.348 L 61.674, 119.824 L 58.1498, 119.824 L 58.1498, 123.348 L 54.6256, 121.586 L 52.8634, 121.586 L 52.8634, 121.586 L 56.3877, 118.062 L 54.6256, 116.3 L 56.3877, 114.537 L 54.6256, 112.775 L 56.3877, 111.013 L 56.3877, 111.013 L 51.1013, 107.489 L 51.1013, 111.013 L 49.3392, 111.013 L 51.1013, 112.775 L 47.5771, 112.775 L 47.5771, 114.537 L 45.815, 116.3 L 47.5771, 121.586 L 44.0529, 119.824 L 45.815, 107.489 L 47.5771, 107.489 L 44.0529, 103.965 L 47.5771, 103.965 L 47.5771, 102.203 L 52.8634, 96.9163 L 54.6256, 102.203 L 58.1498, 105.727 L 56.3877, 109.251 L 52.8634, 105.727 L 52.8634, 107.489 L 59.9119, 109.251 L 59.9119, 103.965 L 61.674, 105.727 L 61.674, 102.203 L 61.674, 102.203 L 59.9119, 98.6784 L 61.674, 96.9163 L 68.7225, 98.6784 L 81.0573, 100.441 L 86.3436, 107.489 L 89.8678, 102.203 L 93.3921, 103.965 L 95.1542, 107.489 L 98.6784, 109.251 L 96.9163, 111.013 L 98.6784, 112.775 L 96.9163, 114.537 L 100.441, 116.3 L 102.203, 118.062 L 107.489, 107.489 L 114.537, 107.489 L 121.586, 112.775 L 125.11, 111.013 L 126.872, 111.013 L 130.396, 112.775 L 135.683, 118.062 L 139.207, 118.062 L 135.683, 112.775 L 133.921, 112.775 L 137.445, 111.013 L 142.731, 111.013 L 137.445, 105.727 L 137.445, 105.727 L 142.731, 107.489 L 142.731, 105.727 L 139.207, 103.965 L 133.921, 105.727 L 132.159, 103.965 L 137.445, 100.441 L 137.445, 96.9163 L 139.207, 96.9163 L 144.493, 95.1542 L 142.731, 91.63 L 144.493, 89.8678 L 146.256, 91.63 L 155.066, 91.63 L 158.59, 86.3436 L 160.352, 84.5815 L 165.639, 75.7709 L 167.401, 75.7709 L 169.163, 77.533 L 167.401, 75.7709 L 158.59, 75.7709 L 156.828, 75.7709 L 156.828, 75.7709 L 156.828, 75.7709 L 153.304, 75.7709 L 146.256, 82.8194 L 146.256, 77.533 L 151.542, 75.7709 L 151.542, 75.7709 L 146.256, 75.7709 L 144.493, 75.7709 L 139.207, 75.7709 L 133.921, 75.7709 L 126.872, 68.7225 L 128.634, 66.9604 L 126.872, 66.9604 L 130.396, 66.9604 L 128.634, 61.674 L 133.921, 58.1498 L 149.78, 61.674 L 146.256, 58.1498 L 142.731, 58.1498 L 146.256, 58.1498 L 151.542, 61.674 L 142.731, 52.8634 L 146.256, 52.8634 L 156.828, 52.8634 L 153.304, 49.3392 L 153.304, 47.5771 L 156.828, 49.3392 L 158.59, 49.3392 L 156.828, 47.5771 L 153.304, 45.815 L 153.304, 47.5771 L 149.78, 45.815 L 149.78, 40.5286 L 155.066, 40.5286 L 153.304, 40.5286 L 149.78, 33.4802 L 153.304, 33.4802 L 153.304, 29.9559 L 156.828, 31.7181 L 156.828, 28.1938 L 158.59, 28.1938 L 158.59, 28.1938 L 160.352, 28.1938 L 160.352, 26.4317 L 162.115, 21.1454 L 169.163, 22.9075 L 170.925, 22.9075 L 170.925, 22.9075 L 169.163, 24.6696 L 174.449, 22.9075 L 177.974, 21.1454 L 177.974, 14.0969 L 179.736, 12.3348 L 183.26, 14.0969 L 183.26, 17.6211 L 185.022, 17.6211 L 186.784, 21.1454 L 185.022, 22.9075 L 188.546, 22.9075 L 185.022, 22.9075 L 188.546, 22.9075 L 188.546, 22.9075 L 190.308, 17.6211 L 186.784, 17.6211 L 185.022, 12.3348 L 188.546, 12.3348 L 190.308, 12.3348 L 190.308, 21.1454 L 193.833, 22.9075 L 197.357, 24.6696 L 197.357, 28.1938 L 199.119, 24.6696 L 197.357, 14.0969 L 195.595, 22.9075 L 195.595, 19.3833 L 195.595, 15.859 L 192.07, 14.0969 L 193.833, 12.3348 L 195.595, 12.3348 L 199.119, 8.81057 L 202.643, 12.3348 L 202.643, 19.3833 L 206.167, 24.6696 L 206.167, 24.6696 L 206.167, 29.9559 L 199.119, 35.2423 L 202.643, 35.2423 L 204.405, 35.2423 L 199.119, 37.0044 L 197.357, 42.2907 L 204.405, 35.2423 L 209.692, 33.4802 L 209.692, 31.7181 L 209.692, 24.6696 L 206.167, 15.859 L 209.692, 14.0969 L 206.167, 10.5727 L 209.692, 10.5727 L 209.692, 10.5727 L 211.454, 10.5727 L 216.74, 8.81057 L 218.502, 8.81057 L 218.502, 10.5727 L 223.789, 10.5727 L 218.502, 8.81057 L 216.74, 5.28634 L 218.502, 5.28634 L 216.74, 1.76211 L 214.978, 0 L 214.978, 0 L 223.789, 1.76211 L 227.313, 5.28634 L 230.837, 8.81057 L 243.172, 15.859 L 243.172, 17.6211 L 229.075, 24.6696 z "/>
<path style="fill:rgb(0, 255, 0);fill-opacity:1.0;fill-rule:evenodd;stroke:rgb(0, 0, 0);stroke-width:1.0;" d="M 588.194, 31.7181 L 597.004, 35.2423 L 602.291, 33.4802 L 605.815, 26.4317 L 605.815, 21.1454 L 611.101, 24.6696 L 618.15, 26.4317 L 621.674, 22.9075 L 630.485, 17.6211 L 642.819, 17.6211 L 649.868, 21.1454 L 658.678, 19.3833 L 660.441, 29.9559 L 658.678, 37.0044 L 663.965, 40.5286 L 663.965, 47.5771 L 667.489, 49.3392 L 672.775, 61.674 L 676.3, 61.674 L 674.537, 61.674 L 681.586, 65.1982 L 679.824, 72.2467 L 678.062, 74.0088 L 669.251, 77.533 L 669.251, 84.5815 L 676.3, 75.7709 L 686.872, 77.533 L 688.634, 84.5815 L 693.921, 89.8678 L 692.159, 95.1542 L 695.683, 98.6784 L 692.159, 105.727 L 686.872, 107.489 L 688.634, 102.203 L 678.062, 95.1542 L 681.586, 98.6784 L 683.348, 105.727 L 676.3, 112.775 L 685.11, 109.251 L 688.634, 116.3 L 679.824, 125.11 L 674.537, 121.586 L 667.489, 126.872 L 667.489, 133.921 L 665.727, 140.969 L 655.154, 146.256 L 651.63, 146.256 L 653.392, 142.731 L 646.344, 140.969 L 651.63, 148.018 L 646.344, 151.542 L 637.533, 146.256 L 634.009, 156.828 L 635.771, 160.352 L 641.057, 160.352 L 641.057, 167.401 L 642.819, 185.022 L 651.63, 193.833 L 646.344, 207.93 L 648.106, 213.216 L 651.63, 213.216 L 653.392, 216.74 L 646.344, 213.216 L 644.581, 222.026 L 648.106, 225.551 L 648.106, 232.599 L 651.63, 243.172 L 649.868, 255.507 L 655.154, 257.269 L 649.868, 269.604 L 646.344, 273.128 L 642.819, 280.176 L 637.533, 288.987 L 639.295, 299.559 L 628.722, 317.181 L 626.96, 320.705 L 625.198, 331.278 L 628.722, 334.802 L 611.101, 340.088 L 604.053, 333.04 L 598.767, 336.564 L 591.718, 341.85 L 588.194, 334.802 L 584.67, 343.612 L 577.621, 341.85 L 581.145, 336.564 L 572.335, 341.85 L 556.476, 341.85 L 549.427, 343.612 L 547.665, 354.185 L 538.855, 354.185 L 537.093, 359.471 L 530.044, 359.471 L 528.282, 355.947 L 526.52, 364.758 L 519.471, 366.52 L 515.947, 370.044 L 517.709, 371.806 L 507.137, 373.568 L 507.137, 368.282 L 508.899, 364.758 L 500.088, 366.52 L 494.802, 362.996 L 493.04, 366.52 L 496.564, 366.52 L 500.088, 370.044 L 494.802, 380.617 L 487.753, 382.379 L 484.229, 382.379 L 480.705, 385.903 L 478.943, 389.427 L 471.894, 389.427 L 470.132, 396.476 L 466.608, 392.952 L 459.559, 391.189 L 457.797, 398.238 L 450.749, 392.952 L 445.463, 396.476 L 441.938, 391.189 L 443.7, 396.476 L 426.079, 398.238 L 427.841, 392.952 L 424.317, 387.665 L 424.317, 391.189 L 420.793, 392.952 L 417.269, 391.189 L 411.982, 391.189 L 403.172, 398.238 L 403.172, 394.714 L 399.648, 398.238 L 406.696, 389.427 L 411.982, 389.427 L 419.031, 382.379 L 417.269, 382.379 L 401.41, 389.427 L 406.696, 382.379 L 417.269, 377.093 L 396.123, 378.855 L 394.361, 380.617 L 385.551, 380.617 L 392.599, 373.568 L 394.361, 370.044 L 390.837, 370.044 L 392.599, 366.52 L 397.885, 364.758 L 399.648, 364.758 L 406.696, 364.758 L 403.172, 362.996 L 408.458, 357.709 L 413.744, 355.947 L 419.031, 357.709 L 410.22, 355.947 L 404.934, 359.471 L 397.885, 359.471 L 382.026, 366.52 L 376.74, 362.996 L 380.264, 357.709 L 378.502, 354.185 L 369.692, 359.471 L 371.454, 352.423 L 367.93, 352.423 L 366.167, 348.899 L 374.978, 347.137 L 376.74, 340.088 L 394.361, 334.802 L 397.885, 329.515 L 399.648, 334.802 L 403.172, 325.991 L 410.22, 327.753 L 403.172, 324.229 L 397.885, 324.229 L 396.123, 324.229 L 383.789, 327.753 L 380.264, 324.229 L 376.74, 327.753 L 371.454, 318.943 L 371.454, 311.894 L 374.978, 313.656 L 378.502, 310.132 L 385.551, 308.37 L 385.551, 313.656 L 390.837, 315.419 L 394.361, 308.37 L 396.123, 304.846 L 394.361, 310.132 L 399.648, 315.419 L 411.982, 313.656 L 403.172, 311.894 L 403.172, 306.608 L 408.458, 301.322 L 401.41, 297.797 L 401.41, 296.035 L 413.744, 294.273 L 419.031, 288.987 L 420.793, 283.7 L 424.317, 281.938 L 433.128, 285.463 L 433.128, 283.7 L 441.938, 285.463 L 457.797, 280.176 L 461.322, 283.7 L 464.846, 278.414 L 471.894, 280.176 L 478.943, 278.414 L 470.132, 274.89 L 463.084, 267.841 L 457.797, 269.604 L 457.797, 273.128 L 450.749, 281.938 L 445.463, 280.176 L 441.938, 285.463 L 440.176, 281.938 L 443.7, 278.414 L 434.89, 280.176 L 429.604, 278.414 L 427.841, 278.414 L 419.031, 278.414 L 419.031, 281.938 L 406.696, 280.176 L 410.22, 278.414 L 420.793, 269.604 L 426.079, 264.317 L 431.366, 264.317 L 431.366, 259.031 L 434.89, 257.269 L 434.89, 250.22 L 436.652, 243.172 L 447.225, 227.313 L 454.273, 229.075 L 468.37, 225.551 L 471.894, 220.264 L 468.37, 222.026 L 470.132, 213.216 L 463.084, 213.216 L 454.273, 216.74 L 434.89, 216.74 L 431.366, 214.978 L 422.555, 206.167 L 417.269, 202.643 L 413.744, 202.643 L 410.22, 197.357 L 399.648, 193.833 L 399.648, 185.022 L 404.934, 186.784 L 401.41, 183.26 L 403.172, 177.974 L 403.172, 174.449 L 410.22, 176.211 L 406.696, 169.163 L 417.269, 169.163 L 417.269, 163.877 L 419.031, 158.59 L 426.079, 155.066 L 433.128, 156.828 L 436.652, 153.304 L 436.652, 144.493 L 419.031, 135.683 L 426.079, 133.921 L 420.793, 128.634 L 420.793, 125.11 L 426.079, 119.824 L 422.555, 119.824 L 422.555, 123.348 L 420.793, 118.062 L 415.507, 107.489 L 410.22, 116.3 L 411.982, 121.586 L 408.458, 119.824 L 410.22, 107.489 L 408.458, 103.965 L 417.269, 96.9163 L 419.031, 102.203 L 422.555, 105.727 L 420.793, 109.251 L 417.269, 107.489 L 424.317, 109.251 L 426.079, 96.9163 L 433.128, 98.6784 L 445.463, 100.441 L 450.749, 107.489 L 454.273, 102.203 L 466.608, 118.062 L 471.894, 107.489 L 478.943, 107.489 L 485.991, 112.775 L 494.802, 112.775 L 500.088, 118.062 L 503.612, 118.062 L 507.137, 111.013 L 503.612, 103.965 L 498.326, 105.727 L 496.564, 103.965 L 501.85, 100.441 L 508.899, 95.1542 L 510.661, 91.63 L 519.471, 91.63 L 530.044, 75.7709 L 531.806, 75.7709 L 517.709, 75.7709 L 510.661, 82.8194 L 510.661, 77.533 L 498.326, 75.7709 L 491.278, 68.7225 L 494.802, 66.9604 L 493.04, 61.674 L 498.326, 58.1498 L 514.185, 61.674 L 510.661, 58.1498 L 510.661, 58.1498 L 515.947, 61.674 L 507.137, 52.8634 L 521.233, 52.8634 L 514.185, 45.815 L 514.185, 40.5286 L 517.709, 40.5286 L 514.185, 33.4802 L 517.709, 33.4802 L 517.709, 29.9559 L 521.233, 31.7181 L 526.52, 21.1454 L 542.379, 21.1454 L 542.379, 14.0969 L 547.665, 14.0969 L 554.714, 17.6211 L 551.189, 17.6211 L 549.427, 12.3348 L 554.714, 12.3348 L 554.714, 21.1454 L 561.762, 24.6696 L 563.524, 24.6696 L 561.762, 14.0969 L 560, 15.859 L 563.524, 8.81057 L 567.048, 12.3348 L 567.048, 19.3833 L 570.573, 29.9559 L 563.524, 35.2423 L 563.524, 37.0044 L 561.762, 42.2907 L 568.811, 35.2423 L 574.097, 24.6696 L 570.573, 15.859 L 574.097, 14.0969 L 570.573, 10.5727 L 588.194, 10.5727 L 582.907, 8.81057 L 588.194, 1.76211 L 595.242, 8.81057 L 607.577, 15.859 L 607.577, 17.6211 L 593.48, 24.6696 z "/>
<path style="fill:rgb(0, 0, 255);fill-opacity:1.0;fill-rule:evenodd;stroke:rgb(0, 0, 0);stroke-width:1.0;" d="M 952.599, 31.7181 L 961.41, 35.2423 L 994.89, 17.6211 L 1007.22, 17.6211 L 1014.27, 21.1454 L 1023.08, 19.3833 L 1024.85, 29.9559 L 1023.08, 37.0044 L 1028.37, 40.5286 L 1031.89, 49.3392 L 1037.18, 61.674 L 1045.99, 65.1982 L 1033.66, 77.533 L 1033.66, 84.5815 L 1040.7, 75.7709 L 1051.28, 77.533 L 1058.33, 89.8678 L 1060.09, 98.6784 L 1053.04, 102.203 L 1047.75, 105.727 L 1040.7, 112.775 L 1049.52, 109.251 L 1053.04, 116.3 L 1044.23, 125.11 L 1038.94, 121.586 L 1031.89, 126.872 L 1030.13, 140.969 L 1010.75, 140.969 L 1016.04, 148.018 L 1010.75, 151.542 L 1001.94, 146.256 L 998.414, 156.828 L 1005.46, 160.352 L 1007.22, 185.022 L 1016.04, 193.833 L 1010.75, 207.93 L 1010.75, 213.216 L 1008.99, 222.026 L 1016.04, 243.172 L 1014.27, 255.507 L 1019.56, 257.269 L 1014.27, 269.604 L 1001.94, 288.987 L 1003.7, 299.559 L 989.604, 331.278 L 993.128, 334.802 L 975.507, 340.088 L 968.458, 333.04 L 956.123, 341.85 L 952.599, 334.802 L 949.075, 343.612 L 942.026, 341.85 L 945.551, 336.564 L 936.74, 341.85 L 920.881, 341.85 L 913.833, 343.612 L 912.07, 354.185 L 903.26, 354.185 L 901.498, 359.471 L 890.925, 364.758 L 871.542, 373.568 L 864.493, 366.52 L 864.493, 370.044 L 859.207, 380.617 L 836.3, 389.427 L 823.965, 391.189 L 822.203, 398.238 L 815.154, 392.952 L 809.868, 396.476 L 808.106, 396.476 L 790.485, 398.238 L 776.388, 391.189 L 767.577, 398.238 L 771.101, 389.427 L 776.388, 389.427 L 765.815, 389.427 L 771.101, 382.379 L 781.674, 377.093 L 760.529, 378.855 L 749.956, 380.617 L 774.626, 355.947 L 762.291, 359.471 L 746.432, 366.52 L 741.145, 362.996 L 742.907, 354.185 L 734.097, 359.471 L 739.383, 347.137 L 741.145, 340.088 L 758.767, 334.802 L 764.053, 334.802 L 767.577, 325.991 L 748.194, 327.753 L 741.145, 327.753 L 735.859, 318.943 L 749.956, 308.37 L 755.242, 315.419 L 758.767, 310.132 L 764.053, 315.419 L 776.388, 313.656 L 767.577, 311.894 L 772.863, 301.322 L 778.15, 294.273 L 806.344, 285.463 L 822.203, 280.176 L 829.251, 278.414 L 843.348, 278.414 L 834.537, 274.89 L 827.489, 267.841 L 815.154, 281.938 L 783.436, 281.938 L 771.101, 280.176 L 801.057, 243.172 L 811.63, 227.313 L 818.678, 229.075 L 832.775, 225.551 L 834.537, 213.216 L 818.678, 216.74 L 799.295, 216.74 L 774.626, 197.357 L 764.053, 193.833 L 764.053, 185.022 L 774.626, 176.211 L 771.101, 169.163 L 781.674, 169.163 L 790.485, 155.066 L 801.057, 144.493 L 783.436, 135.683 L 790.485, 133.921 L 779.912, 107.489 L 774.626, 116.3 L 772.863, 119.824 L 774.626, 107.489 L 772.863, 103.965 L 781.674, 96.9163 L 788.722, 109.251 L 790.485, 96.9163 L 809.868, 100.441 L 815.154, 107.489 L 818.678, 102.203 L 831.013, 118.062 L 836.3, 107.489 L 843.348, 107.489 L 850.396, 112.775 L 859.207, 112.775 L 871.542, 111.013 L 868.018, 103.965 L 883.877, 91.63 L 894.449, 75.7709 L 882.115, 75.7709 L 875.066, 82.8194 L 875.066, 77.533 L 862.731, 75.7709 L 855.683, 68.7225 L 862.731, 58.1498 L 878.59, 61.674 L 871.542, 52.8634 L 885.639, 52.8634 L 878.59, 45.815 L 885.639, 31.7181 L 890.925, 21.1454 L 906.784, 21.1454 L 906.784, 14.0969 L 919.119, 12.3348 L 919.119, 21.1454 L 927.93, 8.81057 L 934.978, 29.9559 L 933.216, 35.2423 L 938.502, 24.6696 L 934.978, 15.859 L 934.978, 10.5727 L 952.599, 10.5727 L 947.313, 8.81057 L 952.599, 1.76211 L 959.648, 8.81057 L 957.885, 24.6696 z "/>
<path style="fill:rgb(255, 255, 0);fill-opacity:1.0;fill-rule:evenodd;stroke:rgb(0, 0, 0);stroke-width:1.0;" d="M 1325.81, 35.2423 L 1359.3, 17.6211 L 1387.49, 19.3833 L 1401.59, 61.674 L 1410.4, 65.1982 L 1398.06, 77.533 L 1405.11, 75.7709 L 1415.68, 77.533 L 1417.44, 116.3 L 1396.3, 126.872 L 1394.54, 140.969 L 1375.15, 140.969 L 1366.34, 146.256 L 1369.87, 160.352 L 1371.63, 185.022 L 1380.44, 193.833 L 1373.39, 222.026 L 1380.44, 243.172 L 1366.34, 288.987 L 1368.11, 299.559 L 1354.01, 331.278 L 1357.53, 334.802 L 1339.91, 340.088 L 1332.86, 333.04 L 1320.53, 341.85 L 1301.15, 341.85 L 1276.48, 354.185 L 1235.95, 373.568 L 1223.61, 380.617 L 1200.7, 389.427 L 1154.89, 398.238 L 1140.79, 391.189 L 1146.08, 377.093 L 1114.36, 380.617 L 1139.03, 355.947 L 1110.84, 366.52 L 1098.5, 359.471 L 1105.55, 340.088 L 1131.98, 325.991 L 1100.26, 318.943 L 1114.36, 308.37 L 1131.98, 311.894 L 1142.56, 294.273 L 1191.89, 267.841 L 1179.56, 281.938 L 1147.84, 281.938 L 1135.51, 280.176 L 1165.46, 243.172 L 1176.04, 227.313 L 1197.18, 225.551 L 1198.94, 213.216 L 1183.08, 216.74 L 1163.7, 216.74 L 1139.03, 197.357 L 1128.46, 193.833 L 1128.46, 185.022 L 1139.03, 176.211 L 1146.08, 169.163 L 1165.46, 144.493 L 1147.84, 135.683 L 1154.89, 133.921 L 1144.32, 107.489 L 1146.08, 96.9163 L 1153.13, 109.251 L 1154.89, 96.9163 L 1174.27, 100.441 L 1183.08, 102.203 L 1195.42, 118.062 L 1235.95, 111.013 L 1232.42, 103.965 L 1248.28, 91.63 L 1258.85, 75.7709 L 1246.52, 75.7709 L 1220.09, 68.7225 L 1227.14, 58.1498 L 1243, 61.674 L 1235.95, 52.8634 L 1250.04, 52.8634 L 1243, 45.815 L 1255.33, 21.1454 L 1271.19, 21.1454 L 1283.52, 12.3348 L 1283.52, 21.1454 L 1292.33, 8.81057 L 1299.38, 29.9559 L 1299.38, 10.5727 L 1324.05, 8.81057 z "/>
<path style="fill:rgb(255, 0, 0);fill-opacity:1.0;fill-rule:evenodd;stroke:rgb(0, 0, 0);stroke-width:1.0;" d="M 1690.22, 35.2423 L 1723.7, 17.6211 L 1751.89, 19.3833 L 1765.99, 61.674 L 1780.09, 77.533 L 1781.85, 116.3 L 1760.7, 126.872 L 1758.94, 140.969 L 1744.85, 193.833 L 1737.8, 222.026 L 1744.85, 243.172 L 1730.75, 288.987 L 1732.51, 299.559 L 1665.55, 341.85 L 1565.11, 389.427 L 1519.3, 398.238 L 1510.48, 377.093 L 1478.77, 380.617 L 1503.44, 355.947 L 1475.24, 366.52 L 1462.91, 359.471 L 1469.96, 340.088 L 1496.39, 325.991 L 1464.67, 318.943 L 1478.77, 308.37 L 1496.39, 311.894 L 1506.96, 294.273 L 1556.3, 267.841 L 1543.96, 281.938 L 1499.91, 280.176 L 1540.44, 227.313 L 1561.59, 225.551 L 1528.11, 216.74 L 1529.87, 144.493 L 1519.3, 96.9163 L 1559.82, 118.062 L 1600.35, 111.013 L 1584.49, 68.7225 L 1607.4, 45.815 L 1619.74, 21.1454 L 1656.74, 8.81057 L 1663.79, 10.5727 L 1688.46, 8.81057 z "/>
<path style="fill:rgb(0, 255, 0);fill-opacity:1.0;fill-rule:evenodd;stroke:rgb(0, 0, 0);stroke-width:1.0;" d="M 2054.63, 35.2423 L 2116.3, 19.3833 L 2146.26, 116.3 L 2109.25, 243.172 L 2096.92, 299.559 L 2029.96, 341.85 L 1929.52, 389.427 L 1883.7, 398.238 L 1843.17, 380.617 L 1860.79, 325.991 L 1871.37, 294.273 L 1908.37, 281.938 L 1864.32, 280.176 L 1904.85, 227.313 L 1892.51, 216.74 L 1894.27, 144.493 L 1883.7, 96.9163 L 1924.23, 118.062 L 1964.76, 111.013 L 1948.9, 68.7225 L 1984.14, 21.1454 z "/>
</svg>